<?xml version="1.0" encoding="UTF-8" standalone="no"?>
<!DOCTYPE svg PUBLIC "-//W3C//DTD SVG 1.1//EN"
 "http://www.w3.org/Graphics/SVG/1.1/DTD/svg11.dtd">
<!-- Generated by graphviz version 12.2.1 (20241206.2353)
 -->
<!-- Title: G Pages: 1 -->
<svg width="1287pt" height="116pt"
 viewBox="0.00 0.00 1286.80 116.00" xmlns="http://www.w3.org/2000/svg" xmlns:xlink="http://www.w3.org/1999/xlink">
<g id="graph0" class="graph" transform="scale(1 1) rotate(0) translate(4 112)">
<title>G</title>
<polygon fill="white" stroke="none" points="-4,4 -4,-112 1282.8,-112 1282.8,4 -4,4"/>
<!-- 0 -->
<g id="node1" class="node">
<title>0</title>
<ellipse fill="none" stroke="black" cx="410.82" cy="-90" rx="39.07" ry="18"/>
<text text-anchor="middle" x="410.82" y="-84.95" font-family="Times New Roman,serif" font-size="14.00">START</text>
</g>
<!-- 0&#45;&gt;0 -->
<g id="edge1" class="edge">
<title>0&#45;&gt;0</title>
<path fill="none" stroke="black" d="M439,-102.94C454.12,-105.14 467.88,-100.83 467.88,-90 467.88,-81.96 460.3,-77.52 450.21,-76.65"/>
<polygon fill="black" stroke="black" points="450.38,-73.15 440.52,-77 450.64,-80.14 450.38,-73.15"/>
</g>
<!-- 1 -->
<g id="node2" class="node">
<title>1</title>
<ellipse fill="none" stroke="black" cx="515.82" cy="-90" rx="29.86" ry="18"/>
<text text-anchor="middle" x="515.82" y="-84.95" font-family="Times New Roman,serif" font-size="14.00">input</text>
</g>
<!-- 2 -->
<g id="node3" class="node">
<title>2</title>
<ellipse fill="none" stroke="black" cx="114.82" cy="-18" rx="114.82" ry="18"/>
<text text-anchor="middle" x="114.82" y="-12.95" font-family="Times New Roman,serif" font-size="14.00">Cuno: “该死的混蛋。”</text>
</g>
<!-- 1&#45;&gt;2 -->
<g id="edge2" class="edge">
<title>1&#45;&gt;2</title>
<path fill="none" stroke="black" d="M493.09,-77.89C487.84,-75.67 482.21,-73.54 476.82,-72 464.01,-68.34 312.62,-46.73 209.72,-32.26"/>
<polygon fill="black" stroke="black" points="210.25,-28.8 199.86,-30.87 209.27,-35.73 210.25,-28.8"/>
</g>
<!-- 3 -->
<g id="node4" class="node">
<title>3</title>
<ellipse fill="none" stroke="black" cx="362.82" cy="-18" rx="114.82" ry="18"/>
<text text-anchor="middle" x="362.82" y="-12.95" font-family="Times New Roman,serif" font-size="14.00">Cuno: “交给坤诺吧。”</text>
</g>
<!-- 1&#45;&gt;3 -->
<g id="edge3" class="edge">
<title>1&#45;&gt;3</title>
<path fill="none" stroke="black" d="M492.58,-78.37C470.49,-68.26 436.64,-52.77 409.05,-40.15"/>
<polygon fill="black" stroke="black" points="410.74,-37.08 400.19,-36.1 407.83,-43.44 410.74,-37.08"/>
</g>
<!-- 4 -->
<g id="node5" class="node">
<title>4</title>
<ellipse fill="none" stroke="black" cx="668.82" cy="-18" rx="173.67" ry="18"/>
<text text-anchor="middle" x="668.82" y="-12.95" font-family="Times New Roman,serif" font-size="14.00">Cuno: “坤诺他妈的知道怎么扔！”</text>
</g>
<!-- 1&#45;&gt;4 -->
<g id="edge4" class="edge">
<title>1&#45;&gt;4</title>
<path fill="none" stroke="black" d="M539.05,-78.37C560.85,-68.4 594.09,-53.19 621.47,-40.66"/>
<polygon fill="black" stroke="black" points="622.63,-43.98 630.26,-36.64 619.72,-37.62 622.63,-43.98"/>
</g>
<!-- 5 -->
<g id="node6" class="node">
<title>5</title>
<ellipse fill="none" stroke="black" cx="1069.82" cy="-18" rx="208.99" ry="18"/>
<text text-anchor="middle" x="1069.82" y="-12.95" font-family="Times New Roman,serif" font-size="14.00">Cuno: “看招，终结者！着陆时间到了。”</text>
</g>
<!-- 1&#45;&gt;5 -->
<g id="edge5" class="edge">
<title>1&#45;&gt;5</title>
<path fill="none" stroke="black" d="M544.82,-85.34C617.94,-76.1 813.27,-51.41 943.94,-34.9"/>
<polygon fill="black" stroke="black" points="944.22,-38.4 953.7,-33.67 943.34,-31.45 944.22,-38.4"/>
</g>
</g>
</svg>
