<?xml version="1.0" encoding="UTF-8" standalone="no"?>
<!DOCTYPE svg PUBLIC "-//W3C//DTD SVG 1.1//EN"
 "http://www.w3.org/Graphics/SVG/1.1/DTD/svg11.dtd">
<!-- Generated by graphviz version 12.2.1 (20241206.2353)
 -->
<!-- Title: G Pages: 1 -->
<svg width="3406pt" height="188pt"
 viewBox="0.00 0.00 3406.47 188.00" xmlns="http://www.w3.org/2000/svg" xmlns:xlink="http://www.w3.org/1999/xlink">
<g id="graph0" class="graph" transform="scale(1 1) rotate(0) translate(4 184)">
<title>G</title>
<polygon fill="white" stroke="none" points="-4,4 -4,-184 3402.47,-184 3402.47,4 -4,4"/>
<!-- 0 -->
<g id="node1" class="node">
<title>0</title>
<ellipse fill="none" stroke="black" cx="816.71" cy="-162" rx="39.07" ry="18"/>
<text text-anchor="middle" x="816.71" y="-156.95" font-family="Times New Roman,serif" font-size="14.00">START</text>
</g>
<!-- 1 -->
<g id="node2" class="node">
<title>1</title>
<ellipse fill="none" stroke="black" cx="816.71" cy="-90" rx="29.86" ry="18"/>
<text text-anchor="middle" x="816.71" y="-84.95" font-family="Times New Roman,serif" font-size="14.00">input</text>
</g>
<!-- 0&#45;&gt;1 -->
<g id="edge1" class="edge">
<title>0&#45;&gt;1</title>
<path fill="none" stroke="black" d="M816.71,-143.7C816.71,-136.41 816.71,-127.73 816.71,-119.54"/>
<polygon fill="black" stroke="black" points="820.21,-119.62 816.71,-109.62 813.21,-119.62 820.21,-119.62"/>
</g>
<!-- 2 -->
<g id="node3" class="node">
<title>2</title>
<ellipse fill="none" stroke="black" cx="153.71" cy="-18" rx="153.71" ry="18"/>
<text text-anchor="middle" x="153.71" y="-12.95" font-family="Times New Roman,serif" font-size="14.00">Cunoesse: “我们走吧，坤诺！”</text>
</g>
<!-- 1&#45;&gt;2 -->
<g id="edge2" class="edge">
<title>1&#45;&gt;2</title>
<path fill="none" stroke="black" d="M787.37,-85.9C699.45,-76.62 434.5,-48.65 276.41,-31.95"/>
<polygon fill="black" stroke="black" points="277.04,-28.5 266.72,-30.93 276.3,-35.46 277.04,-28.5"/>
</g>
<!-- 5 -->
<g id="node6" class="node">
<title>5</title>
<ellipse fill="none" stroke="black" cx="502.71" cy="-18" rx="177.26" ry="18"/>
<text text-anchor="middle" x="502.71" y="-12.95" font-family="Times New Roman,serif" font-size="14.00">Cunoesse: “我们在干什么，坤诺？”</text>
</g>
<!-- 1&#45;&gt;5 -->
<g id="edge3" class="edge">
<title>1&#45;&gt;5</title>
<path fill="none" stroke="black" d="M788.85,-82.79C743.56,-72.69 652.29,-52.35 584.96,-37.33"/>
<polygon fill="black" stroke="black" points="585.94,-33.97 575.42,-35.21 584.42,-40.8 585.94,-33.97"/>
</g>
<!-- 7 -->
<g id="node8" class="node">
<title>7</title>
<ellipse fill="none" stroke="black" cx="816.71" cy="-18" rx="118.4" ry="18"/>
<text text-anchor="middle" x="816.71" y="-12.95" font-family="Times New Roman,serif" font-size="14.00">Cunoesse: “太无聊啦！”</text>
</g>
<!-- 1&#45;&gt;7 -->
<g id="edge4" class="edge">
<title>1&#45;&gt;7</title>
<path fill="none" stroke="black" d="M816.71,-71.7C816.71,-64.41 816.71,-55.73 816.71,-47.54"/>
<polygon fill="black" stroke="black" points="820.21,-47.62 816.71,-37.62 813.21,-47.62 820.21,-47.62"/>
</g>
<!-- 11 -->
<g id="node11" class="node">
<title>11</title>
<ellipse fill="none" stroke="black" cx="1118.71" cy="-18" rx="165.48" ry="18"/>
<text text-anchor="middle" x="1118.71" y="-12.95" font-family="Times New Roman,serif" font-size="14.00">Cunoesse: “我好无聊啊，坤诺！”</text>
</g>
<!-- 1&#45;&gt;11 -->
<g id="edge5" class="edge">
<title>1&#45;&gt;11</title>
<path fill="none" stroke="black" d="M844.31,-82.6C888.09,-72.46 975.05,-52.3 1039.4,-37.38"/>
<polygon fill="black" stroke="black" points="1039.9,-40.86 1048.85,-35.19 1038.32,-34.04 1039.9,-40.86"/>
</g>
<!-- 13 -->
<g id="node13" class="node">
<title>13</title>
<ellipse fill="none" stroke="black" cx="1455.71" cy="-18" rx="153.71" ry="18"/>
<text text-anchor="middle" x="1455.71" y="-12.95" font-family="Times New Roman,serif" font-size="14.00">Cunoesse: “快点走吧，坤诺！”</text>
</g>
<!-- 1&#45;&gt;13 -->
<g id="edge6" class="edge">
<title>1&#45;&gt;13</title>
<path fill="none" stroke="black" d="M846.25,-85.76C931.8,-76.39 1183.29,-48.84 1335.16,-32.21"/>
<polygon fill="black" stroke="black" points="1335.31,-35.71 1344.87,-31.14 1334.55,-28.75 1335.31,-35.71"/>
</g>
<!-- 3 -->
<g id="node4" class="node">
<title>3</title>
<ellipse fill="none" stroke="black" cx="1059.71" cy="-162" rx="185.45" ry="18"/>
<text text-anchor="middle" x="1059.71" y="-156.95" font-family="Times New Roman,serif" font-size="14.00">Cuno: “坤诺他妈的要犯心脏病了！”</text>
</g>
<!-- 4 -->
<g id="node5" class="node">
<title>4</title>
<ellipse fill="none" stroke="black" cx="1460.71" cy="-162" rx="197.22" ry="18"/>
<text text-anchor="middle" x="1460.71" y="-156.95" font-family="Times New Roman,serif" font-size="14.00">Cuno: “这玩意对坤诺来说不算什么。”</text>
</g>
<!-- 6 -->
<g id="node7" class="node">
<title>6</title>
<ellipse fill="none" stroke="black" cx="1938.71" cy="-162" rx="262.73" ry="18"/>
<text text-anchor="middle" x="1938.71" y="-156.95" font-family="Times New Roman,serif" font-size="14.00">Cuno: “坤诺他妈的能通电！2000伏特！坤诺伏特。”</text>
</g>
<!-- 8 -->
<g id="node9" class="node">
<title>8</title>
<ellipse fill="none" stroke="black" cx="2435.71" cy="-162" rx="216.67" ry="18"/>
<text text-anchor="middle" x="2435.71" y="-156.95" font-family="Times New Roman,serif" font-size="14.00">Cuno: “高速列車：坤诺号——离开車站！”</text>
</g>
<!-- 9 -->
<g id="node10" class="node">
<title>9</title>
<ellipse fill="none" stroke="black" cx="2804.71" cy="-162" rx="134.26" ry="18"/>
<text text-anchor="middle" x="2804.71" y="-156.95" font-family="Times New Roman,serif" font-size="14.00">Cuno: “坤诺的小把戏……”</text>
</g>
<!-- 12 -->
<g id="node12" class="node">
<title>12</title>
<ellipse fill="none" stroke="black" cx="3177.71" cy="-162" rx="220.76" ry="18"/>
<text text-anchor="middle" x="3177.71" y="-156.95" font-family="Times New Roman,serif" font-size="14.00">Cuno: “坤诺很喜欢动脑子，思考什么的。”</text>
</g>
</g>
</svg>
