<?xml version="1.0" encoding="UTF-8" standalone="no"?>
<!DOCTYPE svg PUBLIC "-//W3C//DTD SVG 1.1//EN"
 "http://www.w3.org/Graphics/SVG/1.1/DTD/svg11.dtd">
<!-- Generated by graphviz version 12.2.1 (20241206.2353)
 -->
<!-- Title: G Pages: 1 -->
<svg width="3406pt" height="476pt"
 viewBox="0.00 0.00 3406.07 476.00" xmlns="http://www.w3.org/2000/svg" xmlns:xlink="http://www.w3.org/1999/xlink">
<g id="graph0" class="graph" transform="scale(1 1) rotate(0) translate(4 472)">
<title>G</title>
<polygon fill="white" stroke="none" points="-4,4 -4,-472 3402.07,-472 3402.07,4 -4,4"/>
<!-- 0 -->
<g id="node1" class="node">
<title>0</title>
<ellipse fill="none" stroke="black" cx="146.55" cy="-450" rx="39.07" ry="18"/>
<text text-anchor="middle" x="146.55" y="-444.95" font-family="Times New Roman,serif" font-size="14.00">START</text>
</g>
<!-- 1 -->
<g id="node2" class="node">
<title>1</title>
<ellipse fill="none" stroke="black" cx="146.55" cy="-378" rx="29.86" ry="18"/>
<text text-anchor="middle" x="146.55" y="-372.95" font-family="Times New Roman,serif" font-size="14.00">input</text>
</g>
<!-- 0&#45;&gt;1 -->
<g id="edge1" class="edge">
<title>0&#45;&gt;1</title>
<path fill="none" stroke="black" d="M146.55,-431.7C146.55,-424.41 146.55,-415.73 146.55,-407.54"/>
<polygon fill="black" stroke="black" points="150.05,-407.62 146.55,-397.62 143.05,-407.62 150.05,-407.62"/>
</g>
<!-- 11 -->
<g id="node12" class="node">
<title>11</title>
<ellipse fill="none" stroke="black" cx="146.55" cy="-306" rx="146.55" ry="18"/>
<text text-anchor="middle" x="146.55" y="-300.95" font-family="Times New Roman,serif" font-size="14.00">You: How&#39;d they do that? And why?</text>
</g>
<!-- 1&#45;&gt;11 -->
<g id="edge2" class="edge">
<title>1&#45;&gt;11</title>
<path fill="none" stroke="black" d="M146.55,-359.7C146.55,-352.41 146.55,-343.73 146.55,-335.54"/>
<polygon fill="black" stroke="black" points="150.05,-335.62 146.55,-325.62 143.05,-335.62 150.05,-335.62"/>
</g>
<!-- 2 -->
<g id="node3" class="node">
<title>2</title>
<ellipse fill="none" stroke="black" cx="926.55" cy="-450" rx="722.84" ry="18"/>
<text text-anchor="middle" x="926.55" y="-444.95" font-family="Times New Roman,serif" font-size="14.00">Interfacing: The &#39;how&#39; was a closely guarded secret. Something that was locked in safes and human heads across the river where they were manufactured. As to why? Your fingers don&#39;t know.</text>
</g>
<!-- 7 -->
<g id="node8" class="node">
<title>7</title>
<ellipse fill="none" stroke="black" cx="926.55" cy="-378" rx="462.85" ry="18"/>
<text text-anchor="middle" x="926.55" y="-372.95" font-family="Times New Roman,serif" font-size="14.00">Interfacing: Yes. Filament memories. From the time when wires were cast in glass; slides with an inlaid nervous system.</text>
</g>
<!-- 2&#45;&gt;7 -->
<g id="edge3" class="edge">
<title>2&#45;&gt;7</title>
<path fill="none" stroke="black" d="M926.55,-431.7C926.55,-424.41 926.55,-415.73 926.55,-407.54"/>
<polygon fill="black" stroke="black" points="930.05,-407.62 926.55,-397.62 923.05,-407.62 930.05,-407.62"/>
</g>
<!-- 3 -->
<g id="node4" class="node">
<title>3</title>
<ellipse fill="none" stroke="black" cx="146.55" cy="-234" rx="99.46" ry="18"/>
<text text-anchor="middle" x="146.55" y="-228.95" font-family="Times New Roman,serif" font-size="14.00">You: [Discard thought.]</text>
</g>
<!-- 4 -->
<g id="node5" class="node">
<title>4</title>
<ellipse fill="none" stroke="black" cx="1999.55" cy="-162" rx="190.56" ry="18"/>
<text text-anchor="middle" x="1999.55" y="-156.95" font-family="Times New Roman,serif" font-size="14.00">You: &quot;So this is all that remains of Feld R&amp;D?&quot;</text>
</g>
<!-- 18 -->
<g id="node19" class="node">
<title>18</title>
<ellipse fill="none" stroke="black" cx="1999.55" cy="-90" rx="546.78" ry="18"/>
<text text-anchor="middle" x="1999.55" y="-84.95" font-family="Times New Roman,serif" font-size="14.00">Kim Kitsuragi: &quot;These? No. These are old filament memories. I hope you&#39;re not expecting to find that device here &#45;&#45; you will be disappointed.&quot;</text>
</g>
<!-- 4&#45;&gt;18 -->
<g id="edge4" class="edge">
<title>4&#45;&gt;18</title>
<path fill="none" stroke="black" d="M1999.55,-143.7C1999.55,-136.41 1999.55,-127.73 1999.55,-119.54"/>
<polygon fill="black" stroke="black" points="2003.05,-119.62 1999.55,-109.62 1996.05,-119.62 2003.05,-119.62"/>
</g>
<!-- 5 -->
<g id="node6" class="node">
<title>5</title>
<ellipse fill="none" stroke="black" cx="1999.55" cy="-306" rx="179.82" ry="18"/>
<text text-anchor="middle" x="1999.55" y="-300.95" font-family="Times New Roman,serif" font-size="14.00">Inland Empire: All you will find here is pain.</text>
</g>
<!-- 10 -->
<g id="node11" class="node">
<title>10</title>
<ellipse fill="none" stroke="black" cx="1999.55" cy="-234" rx="284.22" ry="18"/>
<text text-anchor="middle" x="1999.55" y="-228.95" font-family="Times New Roman,serif" font-size="14.00">Interfacing: This isn&#39;t just glass &#45;&#45; these are old computation components.</text>
</g>
<!-- 5&#45;&gt;10 -->
<g id="edge5" class="edge">
<title>5&#45;&gt;10</title>
<path fill="none" stroke="black" d="M1999.55,-287.7C1999.55,-280.41 1999.55,-271.73 1999.55,-263.54"/>
<polygon fill="black" stroke="black" points="2003.05,-263.62 1999.55,-253.62 1996.05,-263.62 2003.05,-263.62"/>
</g>
<!-- 6 -->
<g id="node7" class="node">
<title>6</title>
<ellipse fill="none" stroke="black" cx="1711.55" cy="-18" rx="692.65" ry="18"/>
<text text-anchor="middle" x="1711.55" y="-12.95" font-family="Times New Roman,serif" font-size="14.00">Encyclopedia: The &#39;why&#39; is easy &#45;&#45; because they hadn&#39;t come up with modern silicon&#45;based systems yet. For vitreous&#45;cast filament memories, though, these seem incredibly advanced.</text>
</g>
<!-- 6&#45;&gt;10 -->
<g id="edge6" class="edge">
<title>6&#45;&gt;10</title>
<path fill="none" stroke="black" d="M1498.57,-35.6C1446.43,-48.21 1413.22,-70.1 1443.55,-108 1491.03,-167.34 1681.74,-200.47 1826.69,-217.49"/>
<polygon fill="black" stroke="black" points="1826.08,-220.94 1836.41,-218.61 1826.88,-213.98 1826.08,-220.94"/>
</g>
<!-- 17 -->
<g id="node18" class="node">
<title>17</title>
<ellipse fill="none" stroke="black" cx="1123.55" cy="-306" rx="328.24" ry="18"/>
<text text-anchor="middle" x="1123.55" y="-300.95" font-family="Times New Roman,serif" font-size="14.00">Kim Kitsuragi: He nods. &quot;The rest of the building seems to have been picked clean.&quot;</text>
</g>
<!-- 7&#45;&gt;17 -->
<g id="edge7" class="edge">
<title>7&#45;&gt;17</title>
<path fill="none" stroke="black" d="M975.5,-359.61C1002.48,-350.02 1036.16,-338.05 1064.58,-327.95"/>
<polygon fill="black" stroke="black" points="1065.51,-331.34 1073.76,-324.69 1063.17,-324.74 1065.51,-331.34"/>
</g>
<!-- 8 -->
<g id="node9" class="node">
<title>8</title>
<ellipse fill="none" stroke="black" cx="1635.55" cy="-306" rx="166" ry="18"/>
<text text-anchor="middle" x="1635.55" y="-300.95" font-family="Times New Roman,serif" font-size="14.00">You: &quot;Hey Kim, look &#45;&#45; old cybernetics.&quot;</text>
</g>
<!-- 16 -->
<g id="node17" class="node">
<title>16</title>
<ellipse fill="none" stroke="black" cx="1909.55" cy="-450" rx="57.49" ry="18"/>
<text text-anchor="middle" x="1909.55" y="-444.95" font-family="Times New Roman,serif" font-size="14.00">Untitled hub</text>
</g>
<!-- 8&#45;&gt;16 -->
<g id="edge8" class="edge">
<title>8&#45;&gt;16</title>
<path fill="none" stroke="black" d="M1633.64,-324.29C1632.46,-344.34 1633.89,-377.06 1652.55,-396 1678.62,-422.46 1775.75,-436.71 1842.84,-443.58"/>
<polygon fill="black" stroke="black" points="1842.36,-447.05 1852.66,-444.55 1843.05,-440.08 1842.36,-447.05"/>
</g>
<!-- 9 -->
<g id="node10" class="node">
<title>9</title>
<ellipse fill="none" stroke="black" cx="1506.55" cy="-378" rx="98.95" ry="18"/>
<text text-anchor="middle" x="1506.55" y="-372.95" font-family="Times New Roman,serif" font-size="14.00">Jump to: [Untitled hub]</text>
</g>
<!-- 9&#45;&gt;17 -->
<g id="edge9" class="edge">
<title>9&#45;&gt;17</title>
<path fill="none" stroke="black" d="M1438.52,-364.57C1379.57,-353.79 1293.41,-338.04 1226.1,-325.74"/>
<polygon fill="black" stroke="black" points="1226.99,-322.35 1216.53,-323.99 1225.74,-329.23 1226.99,-322.35"/>
</g>
<!-- 10&#45;&gt;4 -->
<g id="edge10" class="edge">
<title>10&#45;&gt;4</title>
<path fill="none" stroke="black" d="M1999.55,-215.7C1999.55,-208.41 1999.55,-199.73 1999.55,-191.54"/>
<polygon fill="black" stroke="black" points="2003.05,-191.62 1999.55,-181.62 1996.05,-191.62 2003.05,-191.62"/>
</g>
<!-- 13 -->
<g id="node14" class="node">
<title>13</title>
<ellipse fill="none" stroke="black" cx="2517.55" cy="-162" rx="235.6" ry="18"/>
<text text-anchor="middle" x="2517.55" y="-156.95" font-family="Times New Roman,serif" font-size="14.00">You: &quot;Could this be part of the Feld Playback Experiment?&quot;</text>
</g>
<!-- 10&#45;&gt;13 -->
<g id="edge11" class="edge">
<title>10&#45;&gt;13</title>
<path fill="none" stroke="black" d="M2116.77,-217.16C2199.23,-206.02 2309.4,-191.13 2393.37,-179.78"/>
<polygon fill="black" stroke="black" points="2393.83,-183.25 2403.28,-178.44 2392.9,-176.31 2393.83,-183.25"/>
</g>
<!-- 11&#45;&gt;3 -->
<g id="edge12" class="edge">
<title>11&#45;&gt;3</title>
<path fill="none" stroke="black" d="M146.55,-287.7C146.55,-280.41 146.55,-271.73 146.55,-263.54"/>
<polygon fill="black" stroke="black" points="150.05,-263.62 146.55,-253.62 143.05,-263.62 150.05,-263.62"/>
</g>
<!-- 12 -->
<g id="node13" class="node">
<title>12</title>
<ellipse fill="none" stroke="black" cx="1817.55" cy="-378" rx="156.27" ry="18"/>
<text text-anchor="middle" x="1817.55" y="-372.95" font-family="Times New Roman,serif" font-size="14.00">You: These are computer components?</text>
</g>
<!-- 12&#45;&gt;8 -->
<g id="edge13" class="edge">
<title>12&#45;&gt;8</title>
<path fill="none" stroke="black" d="M1773.95,-360.23C1748.61,-350.49 1716.46,-338.12 1689.52,-327.76"/>
<polygon fill="black" stroke="black" points="1691.1,-324.62 1680.51,-324.29 1688.59,-331.15 1691.1,-324.62"/>
</g>
<!-- 19 -->
<g id="node20" class="node">
<title>19</title>
<ellipse fill="none" stroke="black" cx="2591.55" cy="-90" rx="27" ry="18"/>
<text text-anchor="middle" x="2591.55" y="-84.95" font-family="Times New Roman,serif" font-size="14.00">19</text>
</g>
<!-- 13&#45;&gt;19 -->
<g id="edge14" class="edge">
<title>13&#45;&gt;19</title>
<path fill="none" stroke="black" d="M2535.84,-143.7C2545.6,-134.46 2557.73,-122.99 2568.17,-113.12"/>
<polygon fill="black" stroke="black" points="2570.49,-115.73 2575.35,-106.32 2565.68,-110.65 2570.49,-115.73"/>
</g>
<!-- 14 -->
<g id="node15" class="node">
<title>14</title>
<ellipse fill="none" stroke="black" cx="2123.55" cy="-378" rx="93.83" ry="18"/>
<text text-anchor="middle" x="2123.55" y="-372.95" font-family="Times New Roman,serif" font-size="14.00">You: [Finish thought.]</text>
</g>
<!-- 15 -->
<g id="node16" class="node">
<title>15</title>
<ellipse fill="none" stroke="black" cx="2797.55" cy="-306" rx="600.52" ry="18"/>
<text text-anchor="middle" x="2797.55" y="-300.95" font-family="Times New Roman,serif" font-size="14.00">Kim Kitsuragi: The lieutenant tilts his head, watching the light glimmer on the glass. &quot;So it is. I think these used to form a single system, slotted in the wall.&quot;</text>
</g>
<!-- 15&#45;&gt;10 -->
<g id="edge15" class="edge">
<title>15&#45;&gt;10</title>
<path fill="none" stroke="black" d="M2608.94,-288.46C2476.73,-276.86 2301.35,-261.47 2172.69,-250.19"/>
<polygon fill="black" stroke="black" points="2173.34,-246.73 2163.07,-249.34 2172.73,-253.7 2173.34,-246.73"/>
</g>
<!-- 16&#45;&gt;5 -->
<g id="edge16" class="edge">
<title>16&#45;&gt;5</title>
<path fill="none" stroke="black" d="M1939.45,-434.33C1954.68,-425.34 1972.14,-412.39 1982.55,-396 1993.96,-378.03 1998.06,-354.18 1999.38,-335.69"/>
<polygon fill="black" stroke="black" points="2002.87,-336.1 1999.84,-325.95 1995.88,-335.78 2002.87,-336.1"/>
</g>
<!-- 16&#45;&gt;9 -->
<g id="edge17" class="edge">
<title>16&#45;&gt;9</title>
<path fill="none" stroke="black" d="M1860.13,-440.42C1792.18,-428.61 1669.07,-407.23 1587.54,-393.07"/>
<polygon fill="black" stroke="black" points="1588.27,-389.64 1577.82,-391.38 1587.07,-396.54 1588.27,-389.64"/>
</g>
<!-- 16&#45;&gt;12 -->
<g id="edge18" class="edge">
<title>16&#45;&gt;12</title>
<path fill="none" stroke="black" d="M1888.67,-433.12C1877.07,-424.29 1862.39,-413.12 1849.38,-403.22"/>
<polygon fill="black" stroke="black" points="1851.56,-400.48 1841.48,-397.21 1847.32,-406.05 1851.56,-400.48"/>
</g>
<!-- 16&#45;&gt;14 -->
<g id="edge19" class="edge">
<title>16&#45;&gt;14</title>
<path fill="none" stroke="black" d="M1948.3,-436.32C1981.41,-425.49 2029.48,-409.77 2066.9,-397.53"/>
<polygon fill="black" stroke="black" points="2067.79,-400.92 2076.21,-394.49 2065.61,-394.27 2067.79,-400.92"/>
</g>
<!-- 16&#45;&gt;15 -->
<g id="edge20" class="edge">
<title>16&#45;&gt;15</title>
<path fill="none" stroke="black" d="M1959.83,-440.96C2097.32,-418.97 2482.29,-357.41 2678.83,-325.98"/>
<polygon fill="black" stroke="black" points="2679.24,-329.46 2688.57,-324.43 2678.14,-322.55 2679.24,-329.46"/>
</g>
<!-- 17&#45;&gt;10 -->
<g id="edge21" class="edge">
<title>17&#45;&gt;10</title>
<path fill="none" stroke="black" d="M1304.26,-290.56C1454.04,-278.59 1666.02,-261.65 1816.46,-249.63"/>
<polygon fill="black" stroke="black" points="1816.44,-253.14 1826.13,-248.86 1815.88,-246.17 1816.44,-253.14"/>
</g>
<!-- 18&#45;&gt;6 -->
<g id="edge22" class="edge">
<title>18&#45;&gt;6</title>
<path fill="none" stroke="black" d="M1928.36,-71.7C1887.68,-61.81 1836.49,-49.37 1794.07,-39.06"/>
<polygon fill="black" stroke="black" points="1794.93,-35.67 1784.39,-36.7 1793.28,-42.47 1794.93,-35.67"/>
</g>
</g>
</svg>
