<?xml version="1.0" encoding="UTF-8" standalone="no"?>
<!DOCTYPE svg PUBLIC "-//W3C//DTD SVG 1.1//EN"
 "http://www.w3.org/Graphics/SVG/1.1/DTD/svg11.dtd">
<!-- Generated by graphviz version 12.2.1 (20241206.2353)
 -->
<!-- Title: G Pages: 1 -->
<svg width="4828pt" height="404pt"
 viewBox="0.00 0.00 4827.89 404.00" xmlns="http://www.w3.org/2000/svg" xmlns:xlink="http://www.w3.org/1999/xlink">
<g id="graph0" class="graph" transform="scale(1 1) rotate(0) translate(4 400)">
<title>G</title>
<polygon fill="white" stroke="none" points="-4,4 -4,-400 4823.89,-400 4823.89,4 -4,4"/>
<!-- 0 -->
<g id="node1" class="node">
<title>0</title>
<ellipse fill="none" stroke="black" cx="1276.31" cy="-378" rx="39.07" ry="18"/>
<text text-anchor="middle" x="1276.31" y="-372.95" font-family="Times New Roman,serif" font-size="14.00">START</text>
</g>
<!-- 0&#45;&gt;0 -->
<g id="edge1" class="edge">
<title>0&#45;&gt;0</title>
<path fill="none" stroke="black" d="M1304.5,-390.94C1319.61,-393.14 1333.38,-388.83 1333.38,-378 1333.38,-369.96 1325.79,-365.52 1315.7,-364.65"/>
<polygon fill="black" stroke="black" points="1315.88,-361.15 1306.01,-365 1316.13,-368.14 1315.88,-361.15"/>
</g>
<!-- 1 -->
<g id="node2" class="node">
<title>1</title>
<ellipse fill="none" stroke="black" cx="1381.31" cy="-378" rx="29.86" ry="18"/>
<text text-anchor="middle" x="1381.31" y="-372.95" font-family="Times New Roman,serif" font-size="14.00">input</text>
</g>
<!-- 9 -->
<g id="node10" class="node">
<title>9</title>
<ellipse fill="none" stroke="black" cx="1162.31" cy="-306" rx="177.77" ry="18"/>
<text text-anchor="middle" x="1162.31" y="-300.95" font-family="Times New Roman,serif" font-size="14.00">You: &quot;But it&#39;s so sad, Kim. Too sad for me!&quot;</text>
</g>
<!-- 1&#45;&gt;9 -->
<g id="edge2" class="edge">
<title>1&#45;&gt;9</title>
<path fill="none" stroke="black" d="M1357.99,-366.27C1352.87,-364.08 1347.45,-361.87 1342.31,-360 1307.65,-347.4 1268.45,-335.58 1235.49,-326.31"/>
<polygon fill="black" stroke="black" points="1236.61,-322.99 1226.03,-323.68 1234.73,-329.73 1236.61,-322.99"/>
</g>
<!-- 2 -->
<g id="node3" class="node">
<title>2</title>
<ellipse fill="none" stroke="black" cx="3301.31" cy="-162" rx="167.02" ry="18"/>
<text text-anchor="middle" x="3301.31" y="-156.95" font-family="Times New Roman,serif" font-size="14.00">You: &quot;Sorry!&quot; (Hit your head.) &quot;I forgot.&quot;</text>
</g>
<!-- 13 -->
<g id="node14" class="node">
<title>13</title>
<polygon fill="none" stroke="black" points="3489.31,-108 2966.48,-90 3489.31,-72 4012.14,-90 3489.31,-108"/>
<text text-anchor="middle" x="3489.31" y="-84.95" font-family="Times New Roman,serif" font-size="14.00">!(Variable[&quot;boardwalk.ruby_killed_herself&quot;] &#160;and &#160;Variable[&quot;boardwalk.tent_covered&quot;] == false)</text>
</g>
<!-- 2&#45;&gt;13 -->
<g id="edge3" class="edge">
<title>2&#45;&gt;13</title>
<path fill="none" stroke="black" d="M3340.94,-144.05C3366.97,-133.96 3401.39,-121.12 3430.56,-110.59"/>
<polygon fill="black" stroke="black" points="3431.39,-114.01 3439.62,-107.34 3429.02,-107.43 3431.39,-114.01"/>
</g>
<!-- 3 -->
<g id="node4" class="node">
<title>3</title>
<ellipse fill="none" stroke="black" cx="2573.31" cy="-234" rx="117.37" ry="18"/>
<text text-anchor="middle" x="2573.31" y="-228.95" font-family="Times New Roman,serif" font-size="14.00">CheckItem(&quot;rubys_journal&quot;)</text>
</g>
<!-- 3&#45;&gt;3 -->
<g id="edge4" class="edge">
<title>3&#45;&gt;3</title>
<path fill="none" stroke="black" d="M2653.92,-247.47C2683.96,-247.91 2708.68,-243.42 2708.68,-234 2708.68,-225.79 2689.92,-221.33 2665.23,-220.6"/>
<polygon fill="black" stroke="black" points="2665.45,-217.11 2655.43,-220.54 2665.41,-224.11 2665.45,-217.11"/>
</g>
<!-- 4 -->
<g id="node5" class="node">
<title>4</title>
<polygon fill="none" stroke="black" points="2573.31,-180 2407.32,-162 2573.31,-144 2739.3,-162 2573.31,-180"/>
<text text-anchor="middle" x="2573.31" y="-156.95" font-family="Times New Roman,serif" font-size="14.00">CheckItem(&quot;rubys_journal&quot;)</text>
</g>
<!-- 3&#45;&gt;4 -->
<g id="edge5" class="edge">
<title>3&#45;&gt;4</title>
<path fill="none" stroke="black" d="M2573.31,-215.7C2573.31,-208.41 2573.31,-199.73 2573.31,-191.54"/>
<polygon fill="black" stroke="black" points="2576.81,-191.62 2573.31,-181.62 2569.81,-191.62 2576.81,-191.62"/>
</g>
<!-- 21 -->
<g id="node22" class="node">
<title>21</title>
<ellipse fill="none" stroke="black" cx="2573.31" cy="-90" rx="374.81" ry="18"/>
<text text-anchor="middle" x="2573.31" y="-84.95" font-family="Times New Roman,serif" font-size="14.00">Kim Kitsuragi: &quot;Her journal? We should probably leaf through it. Might learn something useful.&quot;</text>
</g>
<!-- 4&#45;&gt;21 -->
<g id="edge6" class="edge">
<title>4&#45;&gt;21</title>
<path fill="none" stroke="black" d="M2573.31,-143.7C2573.31,-136.41 2573.31,-127.73 2573.31,-119.54"/>
<polygon fill="black" stroke="black" points="2576.81,-119.62 2573.31,-109.62 2569.81,-119.62 2576.81,-119.62"/>
</g>
<!-- 5 -->
<g id="node6" class="node">
<title>5</title>
<polygon fill="none" stroke="black" points="931.31,-180 752.29,-162 931.31,-144 1110.33,-162 931.31,-180"/>
<text text-anchor="middle" x="931.31" y="-156.95" font-family="Times New Roman,serif" font-size="14.00">!(CheckItem(&quot;rubys_journal&quot;))</text>
</g>
<!-- 18 -->
<g id="node19" class="node">
<title>18</title>
<ellipse fill="none" stroke="black" cx="591.31" cy="-90" rx="591.31" ry="18"/>
<text text-anchor="middle" x="591.31" y="-84.95" font-family="Times New Roman,serif" font-size="14.00">Kim Kitsuragi: &quot;Be that as it may, it doesn&#39;t change the fact. We have a duty to her. Let&#39;s see it through.&quot; He gestures back toward the tunnels. &quot;After you.&quot;</text>
</g>
<!-- 5&#45;&gt;18 -->
<g id="edge7" class="edge">
<title>5&#45;&gt;18</title>
<path fill="none" stroke="black" d="M874.4,-149.28C823.15,-138.73 746.79,-123.01 686.29,-110.56"/>
<polygon fill="black" stroke="black" points="687.17,-107.16 676.67,-108.57 685.76,-114.02 687.17,-107.16"/>
</g>
<!-- 6 -->
<g id="node7" class="node">
<title>6</title>
<ellipse fill="none" stroke="black" cx="1415.31" cy="-90" rx="215.13" ry="18"/>
<text text-anchor="middle" x="1415.31" y="-84.95" font-family="Times New Roman,serif" font-size="14.00">You: &quot;I&#39;d rather go outside and have a beer right now.&quot;</text>
</g>
<!-- 17 -->
<g id="node18" class="node">
<title>17</title>
<ellipse fill="none" stroke="black" cx="931.31" cy="-234" rx="640.44" ry="18"/>
<text text-anchor="middle" x="931.31" y="-228.95" font-family="Times New Roman,serif" font-size="14.00">Kim Kitsuragi: &quot;We still have to deal with her...&quot; He adjusts his coat. &quot;Not pleasant, I know. But we can&#39;t leave her like that. And we have to investigate the scene, too.&quot;</text>
</g>
<!-- 6&#45;&gt;17 -->
<g id="edge8" class="edge">
<title>6&#45;&gt;17</title>
<path fill="none" stroke="black" d="M1360.29,-107.85C1300.92,-125.97 1203.55,-155.46 1119.31,-180 1081.7,-190.95 1039.76,-202.81 1005.05,-212.53"/>
<polygon fill="black" stroke="black" points="1004.2,-209.13 995.51,-215.2 1006.08,-215.87 1004.2,-209.13"/>
</g>
<!-- 7 -->
<g id="node8" class="node">
<title>7</title>
<ellipse fill="none" stroke="black" cx="3676.31" cy="-162" rx="190.05" ry="18"/>
<text text-anchor="middle" x="3676.31" y="-156.95" font-family="Times New Roman,serif" font-size="14.00">You: &quot;Aw, can&#39;t you do it Kim? I&#39;m wiped out.&quot;</text>
</g>
<!-- 7&#45;&gt;13 -->
<g id="edge9" class="edge">
<title>7&#45;&gt;13</title>
<path fill="none" stroke="black" d="M3631.04,-144.05C3604.42,-134.09 3570.61,-121.43 3542.69,-110.98"/>
<polygon fill="black" stroke="black" points="3543.92,-107.71 3533.33,-107.48 3541.47,-114.26 3543.92,-107.71"/>
</g>
<!-- 8 -->
<g id="node9" class="node">
<title>8</title>
<ellipse fill="none" stroke="black" cx="478.31" cy="-162" rx="256.07" ry="18"/>
<text text-anchor="middle" x="478.31" y="-156.95" font-family="Times New Roman,serif" font-size="14.00">Kim Kitsuragi: He gestures back toward the tunnels. &quot;After you.&quot;</text>
</g>
<!-- 9&#45;&gt;17 -->
<g id="edge10" class="edge">
<title>9&#45;&gt;17</title>
<path fill="none" stroke="black" d="M1107.57,-288.41C1075.18,-278.6 1033.89,-266.08 999.41,-255.64"/>
<polygon fill="black" stroke="black" points="1000.51,-252.31 989.93,-252.76 998.48,-259.01 1000.51,-252.31"/>
</g>
<!-- 10 -->
<g id="node11" class="node">
<title>10</title>
<ellipse fill="none" stroke="black" cx="4437.31" cy="-378" rx="364.58" ry="18"/>
<text text-anchor="middle" x="4437.31" y="-372.95" font-family="Times New Roman,serif" font-size="14.00">Kim Kitsuragi: The lieutenant clears his throat. &quot;Detective &#45;&#45; aren&#39;t you forgetting something?&quot;</text>
</g>
<!-- 10&#45;&gt;10 -->
<g id="edge11" class="edge">
<title>10&#45;&gt;10</title>
<path fill="none" stroke="black" d="M4687.52,-391.47C4761.96,-391.07 4819.89,-386.58 4819.89,-378 4819.89,-369.86 4767.7,-365.4 4698.73,-364.62"/>
<polygon fill="black" stroke="black" points="4699.06,-361.13 4689.03,-364.54 4699,-368.13 4699.06,-361.13"/>
</g>
<!-- 11 -->
<g id="node12" class="node">
<title>11</title>
<ellipse fill="none" stroke="black" cx="3676.31" cy="-378" rx="360.48" ry="18"/>
<text text-anchor="middle" x="3676.31" y="-372.95" font-family="Times New Roman,serif" font-size="14.00">Variable[&quot;boardwalk.ruby_killed_herself&quot;] &#160;and &#160;Variable[&quot;boardwalk.tent_covered&quot;] == false</text>
</g>
<!-- 11&#45;&gt;11 -->
<g id="edge12" class="edge">
<title>11&#45;&gt;11</title>
<path fill="none" stroke="black" d="M3923.39,-391.47C3997.25,-391.09 4054.79,-386.6 4054.79,-378 4054.79,-369.84 4002.95,-365.38 3934.51,-364.62"/>
<polygon fill="black" stroke="black" points="3934.93,-361.12 3924.9,-364.54 3934.87,-368.12 3934.93,-361.12"/>
</g>
<!-- 12 -->
<g id="node13" class="node">
<title>12</title>
<polygon fill="none" stroke="black" points="3676.31,-324 3166.51,-306 3676.31,-288 4186.11,-306 3676.31,-324"/>
<text text-anchor="middle" x="3676.31" y="-300.95" font-family="Times New Roman,serif" font-size="14.00">Variable[&quot;boardwalk.ruby_killed_herself&quot;] &#160;and &#160;Variable[&quot;boardwalk.tent_covered&quot;] == false</text>
</g>
<!-- 11&#45;&gt;12 -->
<g id="edge13" class="edge">
<title>11&#45;&gt;12</title>
<path fill="none" stroke="black" d="M3676.31,-359.7C3676.31,-352.41 3676.31,-343.73 3676.31,-335.54"/>
<polygon fill="black" stroke="black" points="3679.81,-335.62 3676.31,-325.62 3672.81,-335.62 3679.81,-335.62"/>
</g>
<!-- 16 -->
<g id="node17" class="node">
<title>16</title>
<ellipse fill="none" stroke="black" cx="3676.31" cy="-234" rx="190.56" ry="18"/>
<text text-anchor="middle" x="3676.31" y="-228.95" font-family="Times New Roman,serif" font-size="14.00">You: &quot;Yeah, you&#39;re right. Let&#39;s get it over with.&quot;</text>
</g>
<!-- 12&#45;&gt;16 -->
<g id="edge14" class="edge">
<title>12&#45;&gt;16</title>
<path fill="none" stroke="black" d="M3676.31,-287.7C3676.31,-280.41 3676.31,-271.73 3676.31,-263.54"/>
<polygon fill="black" stroke="black" points="3679.81,-263.62 3676.31,-253.62 3672.81,-263.62 3679.81,-263.62"/>
</g>
<!-- 13&#45;&gt;2 -->
<g id="edge15" class="edge">
<title>13&#45;&gt;2</title>
<path fill="none" stroke="black" d="M3451.83,-107.11C3426.23,-117.06 3391.81,-129.93 3362.32,-140.59"/>
<polygon fill="black" stroke="black" points="3361.35,-137.22 3353.13,-143.9 3363.72,-143.81 3361.35,-137.22"/>
</g>
<!-- 14 -->
<g id="node15" class="node">
<title>14</title>
<ellipse fill="none" stroke="black" cx="2243.31" cy="-18" rx="307.77" ry="18"/>
<text text-anchor="middle" x="2243.31" y="-12.95" font-family="Times New Roman,serif" font-size="14.00">Kim Kitsuragi: The lieutenant only shakes his head. &quot;Let&#39;s just do it, shall we?&quot;</text>
</g>
<!-- 15 -->
<g id="node16" class="node">
<title>15</title>
<ellipse fill="none" stroke="black" cx="1505.31" cy="-162" rx="57.49" ry="18"/>
<text text-anchor="middle" x="1505.31" y="-156.95" font-family="Times New Roman,serif" font-size="14.00">Untitled hub</text>
</g>
<!-- 15&#45;&gt;1 -->
<g id="edge16" class="edge">
<title>15&#45;&gt;1</title>
<path fill="none" stroke="black" d="M1538.09,-177.16C1553.91,-185.88 1571.36,-198.73 1580.31,-216 1587.67,-230.21 1588.05,-238 1580.31,-252 1545.96,-314.15 1466.33,-349.57 1418.87,-365.88"/>
<polygon fill="black" stroke="black" points="1417.95,-362.5 1409.55,-368.96 1420.15,-369.14 1417.95,-362.5"/>
</g>
<!-- 15&#45;&gt;6 -->
<g id="edge18" class="edge">
<title>15&#45;&gt;6</title>
<path fill="none" stroke="black" d="M1484.43,-144.76C1473.15,-135.99 1459,-124.98 1446.44,-115.21"/>
<polygon fill="black" stroke="black" points="1448.88,-112.68 1438.84,-109.3 1444.58,-118.2 1448.88,-112.68"/>
</g>
<!-- 19 -->
<g id="node20" class="node">
<title>19</title>
<ellipse fill="none" stroke="black" cx="1914.31" cy="-90" rx="266.31" ry="18"/>
<text text-anchor="middle" x="1914.31" y="-84.95" font-family="Times New Roman,serif" font-size="14.00">Kim Kitsuragi: &quot;We still need to investigate the scene. Remember?&quot;</text>
</g>
<!-- 15&#45;&gt;19 -->
<g id="edge17" class="edge">
<title>15&#45;&gt;19</title>
<path fill="none" stroke="black" d="M1554.64,-152.56C1617.04,-141.88 1726.19,-123.2 1807.93,-109.21"/>
<polygon fill="black" stroke="black" points="1808.52,-112.66 1817.79,-107.52 1807.34,-105.76 1808.52,-112.66"/>
</g>
<!-- 16&#45;&gt;7 -->
<g id="edge19" class="edge">
<title>16&#45;&gt;7</title>
<path fill="none" stroke="black" d="M3676.31,-215.7C3676.31,-208.41 3676.31,-199.73 3676.31,-191.54"/>
<polygon fill="black" stroke="black" points="3679.81,-191.62 3676.31,-181.62 3672.81,-191.62 3679.81,-191.62"/>
</g>
<!-- 17&#45;&gt;5 -->
<g id="edge21" class="edge">
<title>17&#45;&gt;5</title>
<path fill="none" stroke="black" d="M931.31,-215.7C931.31,-208.41 931.31,-199.73 931.31,-191.54"/>
<polygon fill="black" stroke="black" points="934.81,-191.62 931.31,-181.62 927.81,-191.62 934.81,-191.62"/>
</g>
<!-- 17&#45;&gt;8 -->
<g id="edge20" class="edge">
<title>17&#45;&gt;8</title>
<path fill="none" stroke="black" d="M819.91,-215.79C750.66,-205.08 661.85,-191.36 592.15,-180.59"/>
<polygon fill="black" stroke="black" points="593.04,-177.19 582.62,-179.12 591.97,-184.11 593.04,-177.19"/>
</g>
<!-- 17&#45;&gt;15 -->
<g id="edge22" class="edge">
<title>17&#45;&gt;15</title>
<path fill="none" stroke="black" d="M1070.99,-215.97C1188.78,-201.6 1351.98,-181.7 1441.03,-170.84"/>
<polygon fill="black" stroke="black" points="1441.29,-174.33 1450.8,-169.65 1440.45,-167.38 1441.29,-174.33"/>
</g>
<!-- 19&#45;&gt;14 -->
<g id="edge23" class="edge">
<title>19&#45;&gt;14</title>
<path fill="none" stroke="black" d="M1992.69,-72.32C2040.84,-62.08 2102.7,-48.92 2152.92,-38.23"/>
<polygon fill="black" stroke="black" points="2153.56,-41.67 2162.62,-36.17 2152.11,-34.83 2153.56,-41.67"/>
</g>
<!-- 20 -->
<g id="node21" class="node">
<title>20</title>
<ellipse fill="none" stroke="black" cx="4157.31" cy="-162" rx="272.96" ry="18"/>
<text text-anchor="middle" x="4157.31" y="-156.95" font-family="Times New Roman,serif" font-size="14.00">You: &quot;Of course. I was just testing you, to see if *you* remembered.&quot;</text>
</g>
<!-- 20&#45;&gt;13 -->
<g id="edge24" class="edge">
<title>20&#45;&gt;13</title>
<path fill="none" stroke="black" d="M4016.05,-146.2C3901.09,-134.15 3739.82,-117.25 3626.08,-105.33"/>
<polygon fill="black" stroke="black" points="3626.7,-101.88 3616.39,-104.32 3625.97,-108.84 3626.7,-101.88"/>
</g>
<!-- 21&#45;&gt;14 -->
<g id="edge25" class="edge">
<title>21&#45;&gt;14</title>
<path fill="none" stroke="black" d="M2493,-71.97C2444.94,-61.77 2383.71,-48.78 2333.92,-38.22"/>
<polygon fill="black" stroke="black" points="2334.82,-34.83 2324.31,-36.18 2333.37,-41.68 2334.82,-34.83"/>
</g>
</g>
</svg>
