<?xml version="1.0" encoding="UTF-8" standalone="no"?>
<!DOCTYPE svg PUBLIC "-//W3C//DTD SVG 1.1//EN"
 "http://www.w3.org/Graphics/SVG/1.1/DTD/svg11.dtd">
<!-- Generated by graphviz version 12.2.1 (20241206.2353)
 -->
<!-- Title: G Pages: 1 -->
<svg width="3467pt" height="620pt"
 viewBox="0.00 0.00 3467.50 620.00" xmlns="http://www.w3.org/2000/svg" xmlns:xlink="http://www.w3.org/1999/xlink">
<g id="graph0" class="graph" transform="scale(1 1) rotate(0) translate(4 616)">
<title>G</title>
<polygon fill="white" stroke="none" points="-4,4 -4,-616 3463.5,-616 3463.5,4 -4,4"/>
<!-- 0 -->
<g id="node1" class="node">
<title>0</title>
<ellipse fill="none" stroke="black" cx="1494" cy="-594" rx="39.07" ry="18"/>
<text text-anchor="middle" x="1494" y="-588.95" font-family="Times New Roman,serif" font-size="14.00">START</text>
</g>
<!-- 0&#45;&gt;0 -->
<g id="edge1" class="edge">
<title>0&#45;&gt;0</title>
<path fill="none" stroke="black" d="M1522.19,-606.94C1537.3,-609.14 1551.07,-604.83 1551.07,-594 1551.07,-585.96 1543.48,-581.52 1533.4,-580.65"/>
<polygon fill="black" stroke="black" points="1533.57,-577.15 1523.7,-581 1533.82,-584.14 1533.57,-577.15"/>
</g>
<!-- 1 -->
<g id="node2" class="node">
<title>1</title>
<ellipse fill="none" stroke="black" cx="118" cy="-522" rx="29.86" ry="18"/>
<text text-anchor="middle" x="118" y="-516.95" font-family="Times New Roman,serif" font-size="14.00">input</text>
</g>
<!-- 16 -->
<g id="node17" class="node">
<title>16</title>
<ellipse fill="none" stroke="black" cx="312" cy="-450" rx="207.45" ry="18"/>
<text text-anchor="middle" x="312" y="-444.95" font-family="Times New Roman,serif" font-size="14.00">Encyclopedia: 这是瑞瓦肖宗主国的旗帜。</text>
</g>
<!-- 1&#45;&gt;16 -->
<g id="edge2" class="edge">
<title>1&#45;&gt;16</title>
<path fill="none" stroke="black" d="M143.36,-511.85C171.41,-501.73 217.5,-485.1 254.42,-471.78"/>
<polygon fill="black" stroke="black" points="255.41,-475.14 263.63,-468.45 253.04,-468.56 255.41,-475.14"/>
</g>
<!-- 2 -->
<g id="node3" class="node">
<title>2</title>
<ellipse fill="none" stroke="black" cx="654" cy="-18" rx="266.31" ry="18"/>
<text text-anchor="middle" x="654" y="-12.95" font-family="Times New Roman,serif" font-size="14.00">Encyclopedia: 旗帜庄严肃穆地接受了你诚挚的敬意。</text>
</g>
<!-- 3 -->
<g id="node4" class="node">
<title>3</title>
<ellipse fill="none" stroke="black" cx="1628" cy="-594" rx="58.52" ry="18"/>
<text text-anchor="middle" x="1628" y="-588.95" font-family="Times New Roman,serif" font-size="14.00">IsKimHere()</text>
</g>
<!-- 3&#45;&gt;3 -->
<g id="edge3" class="edge">
<title>3&#45;&gt;3</title>
<path fill="none" stroke="black" d="M1668.94,-607.23C1687.93,-608.68 1704.52,-604.27 1704.52,-594 1704.52,-585.82 1693.98,-581.36 1680.09,-580.61"/>
<polygon fill="black" stroke="black" points="1680.4,-577.11 1670.45,-580.75 1680.5,-584.11 1680.4,-577.11"/>
</g>
<!-- 4 -->
<g id="node5" class="node">
<title>4</title>
<polygon fill="none" stroke="black" points="1628,-540 1545.24,-522 1628,-504 1710.76,-522 1628,-540"/>
<text text-anchor="middle" x="1628" y="-516.95" font-family="Times New Roman,serif" font-size="14.00">IsKimHere()</text>
</g>
<!-- 3&#45;&gt;4 -->
<g id="edge4" class="edge">
<title>3&#45;&gt;4</title>
<path fill="none" stroke="black" d="M1628,-575.7C1628,-568.41 1628,-559.73 1628,-551.54"/>
<polygon fill="black" stroke="black" points="1631.5,-551.62 1628,-541.62 1624.5,-551.62 1631.5,-551.62"/>
</g>
<!-- 14 -->
<g id="node15" class="node">
<title>14</title>
<ellipse fill="none" stroke="black" cx="1628" cy="-450" rx="466.43" ry="18"/>
<text text-anchor="middle" x="1628" y="-444.95" font-family="Times New Roman,serif" font-size="14.00">Encyclopedia: 不是只有一个太阳，在大太阳周围还有舞动的小太阳。就是所谓的七日奇迹。</text>
</g>
<!-- 4&#45;&gt;14 -->
<g id="edge5" class="edge">
<title>4&#45;&gt;14</title>
<path fill="none" stroke="black" d="M1628,-503.7C1628,-496.41 1628,-487.73 1628,-479.54"/>
<polygon fill="black" stroke="black" points="1631.5,-479.62 1628,-469.62 1624.5,-479.62 1631.5,-479.62"/>
</g>
<!-- 5 -->
<g id="node6" class="node">
<title>5</title>
<polygon fill="none" stroke="black" points="204,-108 108.22,-90 204,-72 299.78,-90 204,-108"/>
<text text-anchor="middle" x="204" y="-84.95" font-family="Times New Roman,serif" font-size="14.00">!(IsKimHere())</text>
</g>
<!-- 5&#45;&gt;1 -->
<g id="edge6" class="edge">
<title>5&#45;&gt;1</title>
<path fill="none" stroke="black" d="M161.23,-100.44C101.42,-116.46 0,-155.11 0,-233 0,-379 0,-379 0,-379 0,-433.94 52.89,-478.96 87.85,-502.72"/>
<polygon fill="black" stroke="black" points="85.63,-505.45 95.91,-508.02 89.48,-499.6 85.63,-505.45"/>
</g>
<!-- 6 -->
<g id="node7" class="node">
<title>6</title>
<ellipse fill="none" stroke="black" cx="1699" cy="-306" rx="259.15" ry="18"/>
<text text-anchor="middle" x="1699" y="-300.95" font-family="Times New Roman,serif" font-size="14.00">You: “警督——是宗主国的旧旗帜。”（指向它。）</text>
</g>
<!-- 20 -->
<g id="node21" class="node">
<title>20</title>
<ellipse fill="none" stroke="black" cx="1849" cy="-234" rx="413.2" ry="18"/>
<text text-anchor="middle" x="1849" y="-228.95" font-family="Times New Roman,serif" font-size="14.00">Kim Kitsuragi: “嗯。”他看了看这间公寓。“这个租客应该是个*作风老派*的家伙。”</text>
</g>
<!-- 6&#45;&gt;20 -->
<g id="edge7" class="edge">
<title>6&#45;&gt;20</title>
<path fill="none" stroke="black" d="M1736.08,-287.7C1755.82,-278.48 1780.32,-267.05 1801.45,-257.19"/>
<polygon fill="black" stroke="black" points="1802.87,-260.39 1810.46,-252.99 1799.91,-254.04 1802.87,-260.39"/>
</g>
<!-- 7 -->
<g id="node8" class="node">
<title>7</title>
<ellipse fill="none" stroke="black" cx="1338" cy="-18" rx="399.38" ry="18"/>
<text text-anchor="middle" x="1338" y="-12.95" font-family="Times New Roman,serif" font-size="14.00">Esprit de Corps: 这不是我的旗帜，他暗自思忖——我的旗帜是控制区的信号蓝。</text>
</g>
<!-- 8 -->
<g id="node9" class="node">
<title>8</title>
<ellipse fill="none" stroke="black" cx="2629" cy="-378" rx="678.32" ry="18"/>
<text text-anchor="middle" x="2629" y="-372.95" font-family="Times New Roman,serif" font-size="14.00">Encyclopedia: 旗帜好像不是很介意，毕竟它只是一块绣着太阳的彩色布料而已。就像所有的封建旗帜一样，看起来宛如孩童的画作。</text>
</g>
<!-- 9 -->
<g id="node10" class="node">
<title>9</title>
<ellipse fill="none" stroke="black" cx="723" cy="-378" rx="125.56" ry="18"/>
<text text-anchor="middle" x="723" y="-372.95" font-family="Times New Roman,serif" font-size="14.00">You: 什么是七日奇迹？</text>
</g>
<!-- 11 -->
<g id="node12" class="node">
<title>11</title>
<ellipse fill="none" stroke="black" cx="723" cy="-306" rx="160.88" ry="18"/>
<text text-anchor="middle" x="723" y="-300.95" font-family="Times New Roman,serif" font-size="14.00">You: 上面的太阳是什么意思？</text>
</g>
<!-- 9&#45;&gt;11 -->
<g id="edge8" class="edge">
<title>9&#45;&gt;11</title>
<path fill="none" stroke="black" d="M723,-359.7C723,-352.41 723,-343.73 723,-335.54"/>
<polygon fill="black" stroke="black" points="726.5,-335.62 723,-325.62 719.5,-335.62 726.5,-335.62"/>
</g>
<!-- 10 -->
<g id="node11" class="node">
<title>10</title>
<ellipse fill="none" stroke="black" cx="312" cy="-378" rx="190.56" ry="18"/>
<text text-anchor="middle" x="312" y="-372.95" font-family="Times New Roman,serif" font-size="14.00">You: 幸好知道了这个。[放弃思维。]</text>
</g>
<!-- 13 -->
<g id="node14" class="node">
<title>13</title>
<ellipse fill="none" stroke="black" cx="723" cy="-234" rx="694.69" ry="18"/>
<text text-anchor="middle" x="723" y="-228.95" font-family="Times New Roman,serif" font-size="14.00">Inland Empire: 不过是这个奇妙岛屿上众多*大气光学*异象的其中之一。你确定自己看见过幻日——年轻的时候见过。还有蓝色的耀斑……</text>
</g>
<!-- 11&#45;&gt;13 -->
<g id="edge9" class="edge">
<title>11&#45;&gt;13</title>
<path fill="none" stroke="black" d="M723,-287.7C723,-280.41 723,-271.73 723,-263.54"/>
<polygon fill="black" stroke="black" points="726.5,-263.62 723,-253.62 719.5,-263.62 726.5,-263.62"/>
</g>
<!-- 12 -->
<g id="node13" class="node">
<title>12</title>
<ellipse fill="none" stroke="black" cx="2582" cy="-594" rx="859.5" ry="18"/>
<text text-anchor="middle" x="2582" y="-588.95" font-family="Times New Roman,serif" font-size="14.00">Encyclopedia: 那是第一批定居者看到的大气光学异象。天冷的时候就会发生：有6个小太阳把一个大太阳围在中央。这种复杂的光晕现象就是旧瑞瓦肖旗帜的灵感来源。</text>
</g>
<!-- 12&#45;&gt;12 -->
<g id="edge10" class="edge">
<title>12&#45;&gt;12</title>
<path fill="none" stroke="black" d="M3174.37,-607.41C3336.13,-606.74 3459.5,-602.27 3459.5,-594 3459.5,-585.93 3341.84,-581.48 3185.68,-580.64"/>
<polygon fill="black" stroke="black" points="3185.9,-577.14 3175.88,-580.6 3185.86,-584.14 3185.9,-577.14"/>
</g>
<!-- 17 -->
<g id="node18" class="node">
<title>17</title>
<ellipse fill="none" stroke="black" cx="723" cy="-162" rx="57.49" ry="18"/>
<text text-anchor="middle" x="723" y="-156.95" font-family="Times New Roman,serif" font-size="14.00">Untitled hub</text>
</g>
<!-- 13&#45;&gt;17 -->
<g id="edge11" class="edge">
<title>13&#45;&gt;17</title>
<path fill="none" stroke="black" d="M723,-215.7C723,-208.41 723,-199.73 723,-191.54"/>
<polygon fill="black" stroke="black" points="726.5,-191.62 723,-181.62 719.5,-191.62 726.5,-191.62"/>
</g>
<!-- 14&#45;&gt;8 -->
<g id="edge12" class="edge">
<title>14&#45;&gt;8</title>
<path fill="none" stroke="black" d="M1847.05,-433.68C2005.53,-422.6 2219.78,-407.62 2383.94,-396.14"/>
<polygon fill="black" stroke="black" points="2383.93,-399.65 2393.66,-395.46 2383.45,-392.66 2383.93,-399.65"/>
</g>
<!-- 14&#45;&gt;9 -->
<g id="edge13" class="edge">
<title>14&#45;&gt;9</title>
<path fill="none" stroke="black" d="M1425.46,-433.33C1246.46,-419.49 991.4,-399.76 842.95,-388.28"/>
<polygon fill="black" stroke="black" points="843.32,-384.8 833.08,-387.51 842.78,-391.78 843.32,-384.8"/>
</g>
<!-- 15 -->
<g id="node16" class="node">
<title>15</title>
<ellipse fill="none" stroke="black" cx="1549" cy="-378" rx="383.51" ry="18"/>
<text text-anchor="middle" x="1549" y="-372.95" font-family="Times New Roman,serif" font-size="14.00">Kim Kitsuragi: 警督没有向旗帜鞠躬——它庄严肃穆地接受了你诚挚的敬意。</text>
</g>
<!-- 15&#45;&gt;6 -->
<g id="edge14" class="edge">
<title>15&#45;&gt;6</title>
<path fill="none" stroke="black" d="M1586.08,-359.7C1605.89,-350.45 1630.5,-338.96 1651.69,-329.08"/>
<polygon fill="black" stroke="black" points="1653.13,-332.27 1660.72,-324.87 1650.17,-325.92 1653.13,-332.27"/>
</g>
<!-- 16&#45;&gt;9 -->
<g id="edge15" class="edge">
<title>16&#45;&gt;9</title>
<path fill="none" stroke="black" d="M403.47,-433.42C471.92,-421.76 565.07,-405.9 633.13,-394.31"/>
<polygon fill="black" stroke="black" points="633.5,-397.79 642.77,-392.66 632.32,-390.89 633.5,-397.79"/>
</g>
<!-- 16&#45;&gt;10 -->
<g id="edge16" class="edge">
<title>16&#45;&gt;10</title>
<path fill="none" stroke="black" d="M312,-431.7C312,-424.41 312,-415.73 312,-407.54"/>
<polygon fill="black" stroke="black" points="315.5,-407.62 312,-397.62 308.5,-407.62 315.5,-407.62"/>
</g>
<!-- 17&#45;&gt;5 -->
<g id="edge19" class="edge">
<title>17&#45;&gt;5</title>
<path fill="none" stroke="black" d="M670.86,-153.97C575.59,-141.12 373.63,-113.88 269.35,-99.81"/>
<polygon fill="black" stroke="black" points="269.93,-96.36 259.55,-98.49 268.99,-103.3 269.93,-96.36"/>
</g>
<!-- 18 -->
<g id="node19" class="node">
<title>18</title>
<ellipse fill="none" stroke="black" cx="1270" cy="-90" rx="190.56" ry="18"/>
<text text-anchor="middle" x="1270" y="-84.95" font-family="Times New Roman,serif" font-size="14.00">You: 不要对旗帜鞠躬。[完成思维。]</text>
</g>
<!-- 17&#45;&gt;18 -->
<g id="edge18" class="edge">
<title>17&#45;&gt;18</title>
<path fill="none" stroke="black" d="M775.45,-154.29C860.8,-143.37 1031.95,-121.46 1148.75,-106.52"/>
<polygon fill="black" stroke="black" points="1148.9,-110.03 1158.37,-105.28 1148.01,-103.08 1148.9,-110.03"/>
</g>
<!-- 21 -->
<g id="node22" class="node">
<title>21</title>
<ellipse fill="none" stroke="black" cx="723" cy="-90" rx="202.33" ry="18"/>
<text text-anchor="middle" x="723" y="-84.95" font-family="Times New Roman,serif" font-size="14.00">You: 对着旗帜鞠上一躬。[完成思维。]</text>
</g>
<!-- 17&#45;&gt;21 -->
<g id="edge17" class="edge">
<title>17&#45;&gt;21</title>
<path fill="none" stroke="black" d="M723,-143.7C723,-136.41 723,-127.73 723,-119.54"/>
<polygon fill="black" stroke="black" points="726.5,-119.62 723,-109.62 719.5,-119.62 726.5,-119.62"/>
</g>
<!-- 18&#45;&gt;7 -->
<g id="edge20" class="edge">
<title>18&#45;&gt;7</title>
<path fill="none" stroke="black" d="M1286.81,-71.7C1294.88,-63.39 1304.7,-53.28 1313.58,-44.14"/>
<polygon fill="black" stroke="black" points="1315.87,-46.8 1320.33,-37.19 1310.85,-41.92 1315.87,-46.8"/>
</g>
<!-- 19 -->
<g id="node20" class="node">
<title>19</title>
<ellipse fill="none" stroke="black" cx="1270" cy="-162" rx="287.81" ry="18"/>
<text text-anchor="middle" x="1270" y="-156.95" font-family="Times New Roman,serif" font-size="14.00">Rhetoric: 他口中的“作风老派”，其实指的是“极右翼派”。</text>
</g>
<!-- 19&#45;&gt;18 -->
<g id="edge21" class="edge">
<title>19&#45;&gt;18</title>
<path fill="none" stroke="black" d="M1270,-143.7C1270,-136.41 1270,-127.73 1270,-119.54"/>
<polygon fill="black" stroke="black" points="1273.5,-119.62 1270,-109.62 1266.5,-119.62 1273.5,-119.62"/>
</g>
<!-- 19&#45;&gt;21 -->
<g id="edge22" class="edge">
<title>19&#45;&gt;21</title>
<path fill="none" stroke="black" d="M1147.24,-145.29C1057.53,-133.81 936.34,-118.3 846.46,-106.8"/>
<polygon fill="black" stroke="black" points="846.97,-103.34 836.61,-105.54 846.09,-110.28 846.97,-103.34"/>
</g>
<!-- 20&#45;&gt;19 -->
<g id="edge23" class="edge">
<title>20&#45;&gt;19</title>
<path fill="none" stroke="black" d="M1712.88,-216.54C1621.59,-205.51 1501.67,-191.01 1409.65,-179.88"/>
<polygon fill="black" stroke="black" points="1410.13,-176.42 1399.79,-178.69 1409.29,-183.37 1410.13,-176.42"/>
</g>
<!-- 21&#45;&gt;2 -->
<g id="edge24" class="edge">
<title>21&#45;&gt;2</title>
<path fill="none" stroke="black" d="M705.94,-71.7C697.76,-63.39 687.79,-53.28 678.78,-44.14"/>
<polygon fill="black" stroke="black" points="681.44,-41.85 671.92,-37.18 676.45,-46.76 681.44,-41.85"/>
</g>
</g>
</svg>
