<?xml version="1.0" encoding="UTF-8" standalone="no"?>
<!DOCTYPE svg PUBLIC "-//W3C//DTD SVG 1.1//EN"
 "http://www.w3.org/Graphics/SVG/1.1/DTD/svg11.dtd">
<!-- Generated by graphviz version 12.2.1 (20241206.2353)
 -->
<!-- Title: G Pages: 1 -->
<svg width="4598pt" height="44pt"
 viewBox="0.00 0.00 4597.95 44.00" xmlns="http://www.w3.org/2000/svg" xmlns:xlink="http://www.w3.org/1999/xlink">
<g id="graph0" class="graph" transform="scale(1 1) rotate(0) translate(4 40)">
<title>G</title>
<polygon fill="white" stroke="none" points="-4,4 -4,-40 4593.95,-40 4593.95,4 -4,4"/>
<!-- 0 -->
<g id="node1" class="node">
<title>0</title>
<ellipse fill="none" stroke="black" cx="39.07" cy="-18" rx="39.07" ry="18"/>
<text text-anchor="middle" x="39.07" y="-12.95" font-family="Times New Roman,serif" font-size="14.00">START</text>
</g>
<!-- 0&#45;&gt;0 -->
<g id="edge1" class="edge">
<title>0&#45;&gt;0</title>
<path fill="none" stroke="black" d="M75.84,-24.74C87.21,-24.61 96.14,-22.36 96.14,-18 96.14,-15.28 92.65,-13.38 87.26,-12.3"/>
<polygon fill="black" stroke="black" points="87.63,-8.82 77.35,-11.39 86.99,-15.79 87.63,-8.82"/>
</g>
<!-- 1 -->
<g id="node2" class="node">
<title>1</title>
<ellipse fill="none" stroke="black" cx="144.07" cy="-18" rx="29.86" ry="18"/>
<text text-anchor="middle" x="144.07" y="-12.95" font-family="Times New Roman,serif" font-size="14.00">input</text>
</g>
<!-- 2 -->
<g id="node3" class="node">
<title>2</title>
<ellipse fill="none" stroke="black" cx="447.07" cy="-18" rx="255.56" ry="18"/>
<text text-anchor="middle" x="447.07" y="-12.95" font-family="Times New Roman,serif" font-size="14.00">Scabette: “拜托，我可以半工半薪，还能上夜班！”</text>
</g>
<!-- 3 -->
<g id="node4" class="node">
<title>3</title>
<ellipse fill="none" stroke="black" cx="847.07" cy="-18" rx="126.08" ry="18"/>
<text text-anchor="middle" x="847.07" y="-12.95" font-family="Times New Roman,serif" font-size="14.00">Scabette: “让我们过去！”</text>
</g>
<!-- 4 -->
<g id="node5" class="node">
<title>4</title>
<ellipse fill="none" stroke="black" cx="1133.07" cy="-18" rx="141.94" ry="18"/>
<text text-anchor="middle" x="1133.07" y="-12.95" font-family="Times New Roman,serif" font-size="14.00">Banger Scab: “不如上班吧？”</text>
</g>
<!-- 5 -->
<g id="node6" class="node">
<title>5</title>
<ellipse fill="none" stroke="black" cx="1555.07" cy="-18" rx="261.7" ry="18"/>
<text text-anchor="middle" x="1555.07" y="-12.95" font-family="Times New Roman,serif" font-size="14.00">Probably a Migrant: “你们赢不了的，让我们上班吧！”</text>
</g>
<!-- 6 -->
<g id="node7" class="node">
<title>6</title>
<ellipse fill="none" stroke="black" cx="2061.07" cy="-18" rx="226.39" ry="18"/>
<text text-anchor="middle" x="2061.07" y="-12.95" font-family="Times New Roman,serif" font-size="14.00">Probably a Migrant: “兑现承诺，我们要工作！”</text>
</g>
<!-- 7 -->
<g id="node8" class="node">
<title>7</title>
<ellipse fill="none" stroke="black" cx="2485.07" cy="-18" rx="179.82" ry="18"/>
<text text-anchor="middle" x="2485.07" y="-12.95" font-family="Times New Roman,serif" font-size="14.00">Right&#45;to&#45;Worker: “工作权！工作权！”</text>
</g>
<!-- 8 -->
<g id="node9" class="node">
<title>8</title>
<ellipse fill="none" stroke="black" cx="2832.07" cy="-18" rx="149.62" ry="18"/>
<text text-anchor="middle" x="2832.07" y="-12.95" font-family="Times New Roman,serif" font-size="14.00">Scabette: “工会就是个骗局！”</text>
</g>
<!-- 9 -->
<g id="node10" class="node">
<title>9</title>
<ellipse fill="none" stroke="black" cx="3227.07" cy="-18" rx="226.9" ry="18"/>
<text text-anchor="middle" x="3227.07" y="-12.95" font-family="Times New Roman,serif" font-size="14.00">Former Coal Miner: “你们这是想让我们饿死！”</text>
</g>
<!-- 10 -->
<g id="node11" class="node">
<title>10</title>
<ellipse fill="none" stroke="black" cx="3731.07" cy="-18" rx="259.15" ry="18"/>
<text text-anchor="middle" x="3731.07" y="-12.95" font-family="Times New Roman,serif" font-size="14.00">Probably a Migrant: “我会比*任何人*都更努力工作！”</text>
</g>
<!-- 11 -->
<g id="node12" class="node">
<title>11</title>
<ellipse fill="none" stroke="black" cx="4299.07" cy="-18" rx="290.88" ry="18"/>
<text text-anchor="middle" x="4299.07" y="-12.95" font-family="Times New Roman,serif" font-size="14.00">Banger Scab: “早知道就留在那个该死的锯木厂不走了……”</text>
</g>
</g>
</svg>
