<?xml version="1.0" encoding="UTF-8" standalone="no"?>
<!DOCTYPE svg PUBLIC "-//W3C//DTD SVG 1.1//EN"
 "http://www.w3.org/Graphics/SVG/1.1/DTD/svg11.dtd">
<!-- Generated by graphviz version 12.2.1 (20241206.2353)
 -->
<!-- Title: G Pages: 1 -->
<svg width="2284pt" height="188pt"
 viewBox="0.00 0.00 2283.69 188.00" xmlns="http://www.w3.org/2000/svg" xmlns:xlink="http://www.w3.org/1999/xlink">
<g id="graph0" class="graph" transform="scale(1 1) rotate(0) translate(4 184)">
<title>G</title>
<polygon fill="white" stroke="none" points="-4,4 -4,-184 2279.69,-184 2279.69,4 -4,4"/>
<!-- 0 -->
<g id="node1" class="node">
<title>0</title>
<ellipse fill="none" stroke="black" cx="1090.46" cy="-162" rx="39.07" ry="18"/>
<text text-anchor="middle" x="1090.46" y="-156.95" font-family="Times New Roman,serif" font-size="14.00">START</text>
</g>
<!-- 1 -->
<g id="node2" class="node">
<title>1</title>
<ellipse fill="none" stroke="black" cx="1090.46" cy="-90" rx="29.86" ry="18"/>
<text text-anchor="middle" x="1090.46" y="-84.95" font-family="Times New Roman,serif" font-size="14.00">input</text>
</g>
<!-- 0&#45;&gt;1 -->
<g id="edge1" class="edge">
<title>0&#45;&gt;1</title>
<path fill="none" stroke="black" d="M1090.46,-143.7C1090.46,-136.41 1090.46,-127.73 1090.46,-119.54"/>
<polygon fill="black" stroke="black" points="1093.96,-119.62 1090.46,-109.62 1086.96,-119.62 1093.96,-119.62"/>
</g>
<!-- 2 -->
<g id="node3" class="node">
<title>2</title>
<ellipse fill="none" stroke="black" cx="164.46" cy="-18" rx="164.46" ry="18"/>
<text text-anchor="middle" x="164.46" y="-12.95" font-family="Times New Roman,serif" font-size="14.00">Scab Leader: “我们哪里也不去！”</text>
</g>
<!-- 1&#45;&gt;2 -->
<g id="edge2" class="edge">
<title>1&#45;&gt;2</title>
<path fill="none" stroke="black" d="M1060.66,-87.2C959.3,-81.01 618.55,-59.7 337.46,-36 323.08,-34.79 308.04,-33.44 293.08,-32.04"/>
<polygon fill="black" stroke="black" points="293.47,-28.56 283.18,-31.1 292.81,-35.53 293.47,-28.56"/>
</g>
<!-- 3 -->
<g id="node4" class="node">
<title>3</title>
<ellipse fill="none" stroke="black" cx="534.46" cy="-18" rx="188" ry="18"/>
<text text-anchor="middle" x="534.46" y="-12.95" font-family="Times New Roman,serif" font-size="14.00">Scab Leader: “工人权利！工人权利！”</text>
</g>
<!-- 1&#45;&gt;3 -->
<g id="edge3" class="edge">
<title>1&#45;&gt;3</title>
<path fill="none" stroke="black" d="M1061.35,-85.34C987.15,-75.99 787.56,-50.87 656.45,-34.36"/>
<polygon fill="black" stroke="black" points="657.02,-30.9 646.66,-33.13 656.15,-37.85 657.02,-30.9"/>
</g>
<!-- 4 -->
<g id="node5" class="node">
<title>4</title>
<ellipse fill="none" stroke="black" cx="881.46" cy="-18" rx="140.92" ry="18"/>
<text text-anchor="middle" x="881.46" y="-12.95" font-family="Times New Roman,serif" font-size="14.00">Scab Leader: “让我们工作！”</text>
</g>
<!-- 1&#45;&gt;4 -->
<g id="edge4" class="edge">
<title>1&#45;&gt;4</title>
<path fill="none" stroke="black" d="M1064.83,-80.42C1034.11,-70.13 981.66,-52.56 940.7,-38.84"/>
<polygon fill="black" stroke="black" points="942.05,-35.6 931.45,-35.74 939.82,-42.24 942.05,-35.6"/>
</g>
<!-- 6 -->
<g id="node6" class="node">
<title>6</title>
<ellipse fill="none" stroke="black" cx="1299.46" cy="-18" rx="258.63" ry="18"/>
<text text-anchor="middle" x="1299.46" y="-12.95" font-family="Times New Roman,serif" font-size="14.00">Scab Leader: “后面的人大声点！我们要工作！！！”</text>
</g>
<!-- 1&#45;&gt;6 -->
<g id="edge5" class="edge">
<title>1&#45;&gt;6</title>
<path fill="none" stroke="black" d="M1116.09,-80.42C1146.14,-70.35 1197.01,-53.32 1237.55,-39.74"/>
<polygon fill="black" stroke="black" points="1238.61,-43.07 1246.98,-36.58 1236.39,-36.43 1238.61,-43.07"/>
</g>
<!-- 7 -->
<g id="node7" class="node">
<title>7</title>
<ellipse fill="none" stroke="black" cx="1740.46" cy="-18" rx="164.46" ry="18"/>
<text text-anchor="middle" x="1740.46" y="-12.95" font-family="Times New Roman,serif" font-size="14.00">Scab Leader: “工作权！工作权！”</text>
</g>
<!-- 1&#45;&gt;7 -->
<g id="edge6" class="edge">
<title>1&#45;&gt;7</title>
<path fill="none" stroke="black" d="M1119.65,-85.86C1205.35,-76.63 1459.94,-49.21 1615.2,-32.49"/>
<polygon fill="black" stroke="black" points="1615.13,-36.02 1624.7,-31.47 1614.38,-29.06 1615.13,-36.02"/>
</g>
<!-- 8 -->
<g id="node8" class="node">
<title>8</title>
<ellipse fill="none" stroke="black" cx="2099.46" cy="-18" rx="176.23" ry="18"/>
<text text-anchor="middle" x="2099.46" y="-12.95" font-family="Times New Roman,serif" font-size="14.00">Scab Leader: “让我们过去，野人！”</text>
</g>
<!-- 1&#45;&gt;8 -->
<g id="edge7" class="edge">
<title>1&#45;&gt;8</title>
<path fill="none" stroke="black" d="M1120.38,-87.36C1227.74,-81.43 1603.7,-60.13 1913.46,-36 1929.29,-34.77 1945.86,-33.38 1962.32,-31.95"/>
<polygon fill="black" stroke="black" points="1962.52,-35.45 1972.18,-31.09 1961.91,-28.48 1962.52,-35.45"/>
</g>
</g>
</svg>
