<?xml version="1.0" encoding="UTF-8" standalone="no"?>
<!DOCTYPE svg PUBLIC "-//W3C//DTD SVG 1.1//EN"
 "http://www.w3.org/Graphics/SVG/1.1/DTD/svg11.dtd">
<!-- Generated by graphviz version 12.2.1 (20241206.2353)
 -->
<!-- Title: G Pages: 1 -->
<svg width="3574pt" height="188pt"
 viewBox="0.00 0.00 3573.54 188.00" xmlns="http://www.w3.org/2000/svg" xmlns:xlink="http://www.w3.org/1999/xlink">
<g id="graph0" class="graph" transform="scale(1 1) rotate(0) translate(4 184)">
<title>G</title>
<polygon fill="white" stroke="none" points="-4,4 -4,-184 3569.54,-184 3569.54,4 -4,4"/>
<!-- 0 -->
<g id="node1" class="node">
<title>0</title>
<ellipse fill="none" stroke="black" cx="1785.89" cy="-162" rx="39.07" ry="18"/>
<text text-anchor="middle" x="1785.89" y="-156.95" font-family="Times New Roman,serif" font-size="14.00">START</text>
</g>
<!-- 1 -->
<g id="node2" class="node">
<title>1</title>
<ellipse fill="none" stroke="black" cx="1785.89" cy="-90" rx="29.86" ry="18"/>
<text text-anchor="middle" x="1785.89" y="-84.95" font-family="Times New Roman,serif" font-size="14.00">input</text>
</g>
<!-- 0&#45;&gt;1 -->
<g id="edge1" class="edge">
<title>0&#45;&gt;1</title>
<path fill="none" stroke="black" d="M1785.89,-143.7C1785.89,-136.41 1785.89,-127.73 1785.89,-119.54"/>
<polygon fill="black" stroke="black" points="1789.39,-119.62 1785.89,-109.62 1782.39,-119.62 1789.39,-119.62"/>
</g>
<!-- 2 -->
<g id="node3" class="node">
<title>2</title>
<ellipse fill="none" stroke="black" cx="182.89" cy="-18" rx="182.89" ry="18"/>
<text text-anchor="middle" x="182.89" y="-12.95" font-family="Times New Roman,serif" font-size="14.00">Measurehead&#39;s Babe: “哦，测颅先生！”</text>
</g>
<!-- 1&#45;&gt;2 -->
<g id="edge2" class="edge">
<title>1&#45;&gt;2</title>
<path fill="none" stroke="black" d="M1756.07,-88.44C1607.14,-85.54 929.02,-70.92 374.89,-36 357.82,-34.92 339.92,-33.6 322.19,-32.17"/>
<polygon fill="black" stroke="black" points="322.64,-28.7 312.39,-31.37 322.07,-35.67 322.64,-28.7"/>
</g>
<!-- 3 -->
<g id="node4" class="node">
<title>3</title>
<ellipse fill="none" stroke="black" cx="599.89" cy="-18" rx="215.64" ry="18"/>
<text text-anchor="middle" x="599.89" y="-12.95" font-family="Times New Roman,serif" font-size="14.00">Measurehead&#39;s Babe: “测颅先生就是*法律*。”</text>
</g>
<!-- 1&#45;&gt;3 -->
<g id="edge3" class="edge">
<title>1&#45;&gt;3</title>
<path fill="none" stroke="black" d="M1755.95,-87.58C1637.62,-81.9 1191.09,-60.05 823.89,-36 804.6,-34.74 784.39,-33.33 764.33,-31.87"/>
<polygon fill="black" stroke="black" points="764.62,-28.38 754.39,-31.15 764.11,-35.37 764.62,-28.38"/>
</g>
<!-- 4 -->
<g id="node5" class="node">
<title>4</title>
<ellipse fill="none" stroke="black" cx="1086.89" cy="-18" rx="253.52" ry="18"/>
<text text-anchor="middle" x="1086.89" y="-12.95" font-family="Times New Roman,serif" font-size="14.00">Measurehead&#39;s Babe: “每个人都该向测颅先生学习。”</text>
</g>
<!-- 1&#45;&gt;4 -->
<g id="edge4" class="edge">
<title>1&#45;&gt;4</title>
<path fill="none" stroke="black" d="M1756.3,-86.04C1669.32,-77.33 1409.95,-51.35 1240.78,-34.41"/>
<polygon fill="black" stroke="black" points="1241.32,-30.95 1231.02,-33.43 1240.62,-37.91 1241.32,-30.95"/>
</g>
<!-- 5 -->
<g id="node6" class="node">
<title>5</title>
<ellipse fill="none" stroke="black" cx="1564.89" cy="-18" rx="206.43" ry="18"/>
<text text-anchor="middle" x="1564.89" y="-12.95" font-family="Times New Roman,serif" font-size="14.00">Measurehead&#39;s Babe: “没人过得了你这关。”</text>
</g>
<!-- 1&#45;&gt;5 -->
<g id="edge5" class="edge">
<title>1&#45;&gt;5</title>
<path fill="none" stroke="black" d="M1759.67,-80.7C1727.62,-70.55 1672.3,-53.02 1628.78,-39.24"/>
<polygon fill="black" stroke="black" points="1630.03,-35.96 1619.44,-36.28 1627.92,-42.64 1630.03,-35.96"/>
</g>
<!-- 6 -->
<g id="node7" class="node">
<title>6</title>
<ellipse fill="none" stroke="black" cx="2007.89" cy="-18" rx="218.2" ry="18"/>
<text text-anchor="middle" x="2007.89" y="-12.95" font-family="Times New Roman,serif" font-size="14.00">Measurehead&#39;s Babe: “看看他，多么的强壮。”</text>
</g>
<!-- 1&#45;&gt;6 -->
<g id="edge6" class="edge">
<title>1&#45;&gt;6</title>
<path fill="none" stroke="black" d="M1811.79,-80.83C1843.84,-70.73 1899.56,-53.16 1943.43,-39.32"/>
<polygon fill="black" stroke="black" points="1944.38,-42.7 1952.86,-36.35 1942.27,-36.02 1944.38,-42.7"/>
</g>
<!-- 7 -->
<g id="node8" class="node">
<title>7</title>
<ellipse fill="none" stroke="black" cx="2497.89" cy="-18" rx="253.52" ry="18"/>
<text text-anchor="middle" x="2497.89" y="-12.95" font-family="Times New Roman,serif" font-size="14.00">Measurehead&#39;s Babe: “跟其他柔弱的男人都不一样。”</text>
</g>
<!-- 1&#45;&gt;7 -->
<g id="edge7" class="edge">
<title>1&#45;&gt;7</title>
<path fill="none" stroke="black" d="M1815.12,-86.13C1903.02,-77.48 2169.42,-51.29 2342.29,-34.3"/>
<polygon fill="black" stroke="black" points="2342.43,-37.8 2352.04,-33.34 2341.74,-30.83 2342.43,-37.8"/>
</g>
<!-- 8 -->
<g id="node9" class="node">
<title>8</title>
<ellipse fill="none" stroke="black" cx="2963.89" cy="-18" rx="194.66" ry="18"/>
<text text-anchor="middle" x="2963.89" y="-12.95" font-family="Times New Roman,serif" font-size="14.00">Measurehead&#39;s Babe: “测颅先生太棒了！”</text>
</g>
<!-- 1&#45;&gt;8 -->
<g id="edge8" class="edge">
<title>1&#45;&gt;8</title>
<path fill="none" stroke="black" d="M1815.83,-87.69C1935.15,-82.41 2388.4,-61.71 2760.89,-36 2778.34,-34.79 2796.64,-33.42 2814.79,-31.99"/>
<polygon fill="black" stroke="black" points="2814.87,-35.49 2824.56,-31.21 2814.31,-28.51 2814.87,-35.49"/>
</g>
<!-- 9 -->
<g id="node10" class="node">
<title>9</title>
<ellipse fill="none" stroke="black" cx="3370.89" cy="-18" rx="194.66" ry="18"/>
<text text-anchor="middle" x="3370.89" y="-12.95" font-family="Times New Roman,serif" font-size="14.00">Measurehead&#39;s Babe: “我总是会梦见你。”</text>
</g>
<!-- 1&#45;&gt;9 -->
<g id="edge9" class="edge">
<title>1&#45;&gt;9</title>
<path fill="none" stroke="black" d="M1816.06,-88.35C1963.87,-85.05 2626.25,-69.05 3167.89,-36 3185.95,-34.9 3204.9,-33.56 3223.67,-32.12"/>
<polygon fill="black" stroke="black" points="3223.79,-35.62 3233.49,-31.35 3223.25,-28.64 3223.79,-35.62"/>
</g>
</g>
</svg>
