<?xml version="1.0" encoding="UTF-8" standalone="no"?>
<!DOCTYPE svg PUBLIC "-//W3C//DTD SVG 1.1//EN"
 "http://www.w3.org/Graphics/SVG/1.1/DTD/svg11.dtd">
<!-- Generated by graphviz version 12.2.1 (20241206.2353)
 -->
<!-- Title: G Pages: 1 -->
<svg width="6052pt" height="1168pt"
 viewBox="0.00 0.00 6052.40 1167.97" xmlns="http://www.w3.org/2000/svg" xmlns:xlink="http://www.w3.org/1999/xlink">
<g id="graph0" class="graph" transform="scale(1 1) rotate(0) translate(4 1163.97)">
<title>G</title>
<polygon fill="white" stroke="none" points="-4,4 -4,-1163.97 6048.4,-1163.97 6048.4,4 -4,4"/>
<!-- 0 -->
<g id="node1" class="node">
<title>0</title>
<ellipse fill="none" stroke="black" cx="3131.4" cy="-1141.97" rx="39.07" ry="18"/>
<text text-anchor="middle" x="3131.4" y="-1136.92" font-family="Times New Roman,serif" font-size="14.00">START</text>
</g>
<!-- 1 -->
<g id="node2" class="node">
<title>1</title>
<ellipse fill="none" stroke="black" cx="3131.4" cy="-1069.97" rx="29.86" ry="18"/>
<text text-anchor="middle" x="3131.4" y="-1064.92" font-family="Times New Roman,serif" font-size="14.00">input</text>
</g>
<!-- 0&#45;&gt;1 -->
<g id="edge1" class="edge">
<title>0&#45;&gt;1</title>
<path fill="none" stroke="black" d="M3131.4,-1123.66C3131.4,-1116.37 3131.4,-1107.69 3131.4,-1099.5"/>
<polygon fill="black" stroke="black" points="3134.91,-1099.58 3131.4,-1089.58 3127.91,-1099.58 3134.91,-1099.58"/>
</g>
<!-- 30 -->
<g id="node31" class="node">
<title>30</title>
<ellipse fill="none" stroke="black" cx="3131.4" cy="-997.97" rx="309.3" ry="18"/>
<text text-anchor="middle" x="3131.4" y="-992.92" font-family="Times New Roman,serif" font-size="14.00">You: &quot;Won&#39;t make my fortune here, but it does seem like a good place to start.&quot;</text>
</g>
<!-- 1&#45;&gt;30 -->
<g id="edge2" class="edge">
<title>1&#45;&gt;30</title>
<path fill="none" stroke="black" d="M3131.4,-1051.66C3131.4,-1044.37 3131.4,-1035.69 3131.4,-1027.5"/>
<polygon fill="black" stroke="black" points="3134.91,-1027.58 3131.4,-1017.58 3127.91,-1027.58 3134.91,-1027.58"/>
</g>
<!-- 2 -->
<g id="node3" class="node">
<title>2</title>
<ellipse fill="none" stroke="black" cx="3131.4" cy="-914.97" rx="695.97" ry="28.99"/>
<text text-anchor="middle" x="3131.4" y="-918.17" font-family="Times New Roman,serif" font-size="14.00">Kim Kitsuragi: &quot;I&#39;m pretty sure you can pick up some odds and ends to sell here.&quot; He nods toward a table of knick&#45;knacks. &quot;The owner seems to have *eclectic* taste.&quot;</text>
<text text-anchor="middle" x="3131.4" y="-901.67" font-family="Times New Roman,serif" font-size="14.00">&quot;I&#39;m pretty sure you can pick up some odds and ends to sell here &#45;&#45; besides my spinners...&quot; He nods toward a table of knick&#45;knacks. &quot;The owner seems to have *eclectic* taste.&quot;</text>
</g>
<!-- 19 -->
<g id="node20" class="node">
<title>19</title>
<ellipse fill="none" stroke="black" cx="4135.4" cy="-831.98" rx="349.74" ry="18"/>
<text text-anchor="middle" x="4135.4" y="-826.93" font-family="Times New Roman,serif" font-size="14.00">Authority: Eclectic taste? This shop is full of *stolen* goods &#45;&#45; a blight on the community!</text>
</g>
<!-- 2&#45;&gt;19 -->
<g id="edge3" class="edge">
<title>2&#45;&gt;19</title>
<path fill="none" stroke="black" d="M3445.29,-888.65C3607.59,-875.56 3800.55,-860 3941.11,-848.66"/>
<polygon fill="black" stroke="black" points="3941.22,-852.16 3950.91,-847.87 3940.66,-845.18 3941.22,-852.16"/>
</g>
<!-- 3 -->
<g id="node4" class="node">
<title>3</title>
<ellipse fill="none" stroke="black" cx="3054.4" cy="-183.98" rx="570.84" ry="18"/>
<text text-anchor="middle" x="3054.4" y="-178.93" font-family="Times New Roman,serif" font-size="14.00">Empathy: It pains him to see a fellow officer struggling to make ends meet and not be able to offer assistance. This is his way of making it up to you.</text>
</g>
<!-- 4 -->
<g id="node5" class="node">
<title>4</title>
<ellipse fill="none" stroke="black" cx="5015.4" cy="-687.98" rx="277.06" ry="18"/>
<text text-anchor="middle" x="5015.4" y="-682.93" font-family="Times New Roman,serif" font-size="14.00">You: &quot;*Or* we could shut this place down? The stuff is clearly stolen.&quot;</text>
</g>
<!-- 11 -->
<g id="node12" class="node">
<title>11</title>
<ellipse fill="none" stroke="black" cx="5281.4" cy="-615.98" rx="351.27" ry="18"/>
<text text-anchor="middle" x="5281.4" y="-610.93" font-family="Times New Roman,serif" font-size="14.00">Kim Kitsuragi: &quot;On the contrary &#45;&#45; we should do our part to *support* the local economy.&quot;</text>
</g>
<!-- 4&#45;&gt;11 -->
<g id="edge4" class="edge">
<title>4&#45;&gt;11</title>
<path fill="none" stroke="black" d="M5079.8,-670.04C5117.6,-660.09 5165.59,-647.46 5205.27,-637.02"/>
<polygon fill="black" stroke="black" points="5205.98,-640.45 5214.76,-634.52 5204.2,-633.68 5205.98,-640.45"/>
</g>
<!-- 5 -->
<g id="node6" class="node">
<title>5</title>
<ellipse fill="none" stroke="black" cx="335.4" cy="-183.98" rx="335.4" ry="18"/>
<text text-anchor="middle" x="335.4" y="-178.93" font-family="Times New Roman,serif" font-size="14.00">Kim Kitsuragi: &quot;Sure. But one&#39;s financial situation could always be even better, right?&quot;</text>
</g>
<!-- 18 -->
<g id="node19" class="node">
<title>18</title>
<ellipse fill="none" stroke="black" cx="566.4" cy="-111.98" rx="455.68" ry="18"/>
<text text-anchor="middle" x="566.4" y="-106.93" font-family="Times New Roman,serif" font-size="14.00">Drama: He doesn&#39;t really think you&#39;re a superstar or that you&#39;re well&#45;off. He&#39;s only playing along because it&#39;s expedient.</text>
</g>
<!-- 5&#45;&gt;18 -->
<g id="edge5" class="edge">
<title>5&#45;&gt;18</title>
<path fill="none" stroke="black" d="M392.21,-165.77C424.39,-156.02 464.86,-143.75 498.69,-133.5"/>
<polygon fill="black" stroke="black" points="499.42,-136.94 507.97,-130.69 497.39,-130.24 499.42,-136.94"/>
</g>
<!-- 6 -->
<g id="node7" class="node">
<title>6</title>
<ellipse fill="none" stroke="black" cx="4135.4" cy="-759.98" rx="64.66" ry="18"/>
<text text-anchor="middle" x="4135.4" y="-754.93" font-family="Times New Roman,serif" font-size="14.00">shouldisellhub</text>
</g>
<!-- 6&#45;&gt;4 -->
<g id="edge7" class="edge">
<title>6&#45;&gt;4</title>
<path fill="none" stroke="black" d="M4196.94,-754.09C4327.08,-743.74 4634.6,-719.27 4833.42,-703.46"/>
<polygon fill="black" stroke="black" points="4833.68,-706.95 4843.37,-702.67 4833.12,-699.97 4833.68,-706.95"/>
</g>
<!-- 13 -->
<g id="node14" class="node">
<title>13</title>
<ellipse fill="none" stroke="black" cx="3400.4" cy="-687.98" rx="297.53" ry="18"/>
<text text-anchor="middle" x="3400.4" y="-682.93" font-family="Times New Roman,serif" font-size="14.00">You: &quot;Mhm. I plan to *enterprise* my way out of this jam. I have a vision.&quot;</text>
</g>
<!-- 6&#45;&gt;13 -->
<g id="edge8" class="edge">
<title>6&#45;&gt;13</title>
<path fill="none" stroke="black" d="M4074.94,-753.22C3964.84,-742.74 3728.1,-720.19 3566.52,-704.8"/>
<polygon fill="black" stroke="black" points="3567.29,-701.36 3557.01,-703.9 3566.63,-708.33 3567.29,-701.36"/>
</g>
<!-- 24 -->
<g id="node25" class="node">
<title>24</title>
<ellipse fill="none" stroke="black" cx="4135.4" cy="-687.98" rx="319.03" ry="18"/>
<text text-anchor="middle" x="4135.4" y="-682.93" font-family="Times New Roman,serif" font-size="14.00">You: (Lower your voice.) &quot;You do realize this place is full of stolen goods, right?&quot;</text>
</g>
<!-- 6&#45;&gt;24 -->
<g id="edge6" class="edge">
<title>6&#45;&gt;24</title>
<path fill="none" stroke="black" d="M4135.4,-741.68C4135.4,-734.39 4135.4,-725.71 4135.4,-717.52"/>
<polygon fill="black" stroke="black" points="4138.91,-717.6 4135.4,-707.6 4131.91,-717.6 4138.91,-717.6"/>
</g>
<!-- 7 -->
<g id="node8" class="node">
<title>7</title>
<ellipse fill="none" stroke="black" cx="4135.4" cy="-543.98" rx="367.14" ry="18"/>
<text text-anchor="middle" x="4135.4" y="-538.93" font-family="Times New Roman,serif" font-size="14.00">You: &quot;You misunderstood me. I think it&#39;s super cool and *gangster* that he sells stolen goods.&quot;</text>
</g>
<!-- 34 -->
<g id="node35" class="node">
<title>34</title>
<ellipse fill="none" stroke="black" cx="4104.4" cy="-471.98" rx="336.43" ry="18"/>
<text text-anchor="middle" x="4104.4" y="-466.93" font-family="Times New Roman,serif" font-size="14.00">Kim Kitsuragi: He nods. &quot;Go ahead, do your part to support this grass&#45;roots initiative.&quot;</text>
</g>
<!-- 7&#45;&gt;34 -->
<g id="edge9" class="edge">
<title>7&#45;&gt;34</title>
<path fill="none" stroke="black" d="M4127.74,-525.68C4124.36,-518.05 4120.31,-508.9 4116.54,-500.38"/>
<polygon fill="black" stroke="black" points="4119.84,-499.2 4112.59,-491.47 4113.44,-502.03 4119.84,-499.2"/>
</g>
<!-- 8 -->
<g id="node9" class="node">
<title>8</title>
<ellipse fill="none" stroke="black" cx="4803.4" cy="-471.98" rx="344.62" ry="18"/>
<text text-anchor="middle" x="4803.4" y="-466.93" font-family="Times New Roman,serif" font-size="14.00">Kim Kitsuragi: &quot;It won&#39;t help our investigation to antagonize people we could interview.&quot;</text>
</g>
<!-- 32 -->
<g id="node33" class="node">
<title>32</title>
<ellipse fill="none" stroke="black" cx="4385.4" cy="-399.98" rx="425.48" ry="18"/>
<text text-anchor="middle" x="4385.4" y="-394.93" font-family="Times New Roman,serif" font-size="14.00">Empathy: He&#39;s not too comfortable counselling you like this, but he&#39;s genuinely concerned for your well&#45;being.</text>
</g>
<!-- 8&#45;&gt;32 -->
<g id="edge10" class="edge">
<title>8&#45;&gt;32</title>
<path fill="none" stroke="black" d="M4703.81,-454.3C4641.73,-443.91 4561.69,-430.5 4497.4,-419.74"/>
<polygon fill="black" stroke="black" points="4498.34,-416.35 4487.9,-418.15 4497.19,-423.25 4498.34,-416.35"/>
</g>
<!-- 9 -->
<g id="node10" class="node">
<title>9</title>
<ellipse fill="none" stroke="black" cx="726.4" cy="-255.98" rx="328.75" ry="18"/>
<text text-anchor="middle" x="726.4" y="-250.93" font-family="Times New Roman,serif" font-size="14.00">You: &quot;My financial situation is great! Superstars don&#39;t have problems with finances!&quot;</text>
</g>
<!-- 9&#45;&gt;5 -->
<g id="edge11" class="edge">
<title>9&#45;&gt;5</title>
<path fill="none" stroke="black" d="M633.25,-238.3C575.09,-227.89 500.1,-214.47 439.92,-203.69"/>
<polygon fill="black" stroke="black" points="440.81,-200.3 430.35,-201.98 439.58,-207.19 440.81,-200.3"/>
</g>
<!-- 10 -->
<g id="node11" class="node">
<title>10</title>
<ellipse fill="none" stroke="black" cx="3301.4" cy="-615.98" rx="318" ry="18"/>
<text text-anchor="middle" x="3301.4" y="-610.93" font-family="Times New Roman,serif" font-size="14.00">Kim Kitsuragi: &quot;Sure. Why not?&quot; It doesn&#39;t sound like he believes in the *vision*.</text>
</g>
<!-- 23 -->
<g id="node24" class="node">
<title>23</title>
<ellipse fill="none" stroke="black" cx="5560.4" cy="-543.98" rx="455.68" ry="18"/>
<text text-anchor="middle" x="5560.4" y="-538.93" font-family="Times New Roman,serif" font-size="14.00">Esprit de Corps: ...we shouldn&#39;t disrupt the way things are done here, he thinks. And have little power to do so anyway.</text>
</g>
<!-- 11&#45;&gt;23 -->
<g id="edge12" class="edge">
<title>11&#45;&gt;23</title>
<path fill="none" stroke="black" d="M5349.66,-597.86C5389.26,-587.92 5439.34,-575.36 5480.74,-564.97"/>
<polygon fill="black" stroke="black" points="5481.58,-568.37 5490.42,-562.54 5479.87,-561.58 5481.58,-568.37"/>
</g>
<!-- 12 -->
<g id="node13" class="node">
<title>12</title>
<ellipse fill="none" stroke="black" cx="1718.4" cy="-255.98" rx="217.18" ry="18"/>
<text text-anchor="middle" x="1718.4" y="-250.93" font-family="Times New Roman,serif" font-size="14.00">You: &quot;My financial situation is none of your business.&quot;</text>
</g>
<!-- 17 -->
<g id="node18" class="node">
<title>17</title>
<ellipse fill="none" stroke="black" cx="1718.4" cy="-183.98" rx="394.26" ry="18"/>
<text text-anchor="middle" x="1718.4" y="-178.93" font-family="Times New Roman,serif" font-size="14.00">Kim Kitsuragi: &quot;It&#39;s not my intention to make it my business, just to move this investigation forward.&quot;</text>
</g>
<!-- 12&#45;&gt;17 -->
<g id="edge13" class="edge">
<title>12&#45;&gt;17</title>
<path fill="none" stroke="black" d="M1718.4,-237.68C1718.4,-230.39 1718.4,-221.71 1718.4,-213.52"/>
<polygon fill="black" stroke="black" points="1721.91,-213.6 1718.4,-203.6 1714.91,-213.6 1721.91,-213.6"/>
</g>
<!-- 13&#45;&gt;10 -->
<g id="edge14" class="edge">
<title>13&#45;&gt;10</title>
<path fill="none" stroke="black" d="M3375.93,-669.68C3363.68,-661.01 3348.64,-650.38 3335.3,-640.95"/>
<polygon fill="black" stroke="black" points="3337.36,-638.12 3327.17,-635.2 3333.32,-643.83 3337.36,-638.12"/>
</g>
<!-- 14 -->
<g id="node15" class="node">
<title>14</title>
<ellipse fill="none" stroke="black" cx="3727.4" cy="-1069.97" rx="259.66" ry="18"/>
<text text-anchor="middle" x="3727.4" y="-1064.92" font-family="Times New Roman,serif" font-size="14.00">Kim Kitsuragi: &quot;Perhaps, but it&#39;s no use punishing yourself more.&quot;</text>
</g>
<!-- 33 -->
<g id="node34" class="node">
<title>33</title>
<ellipse fill="none" stroke="black" cx="3727.4" cy="-997.97" rx="268.36" ry="18"/>
<text text-anchor="middle" x="3727.4" y="-992.92" font-family="Times New Roman,serif" font-size="14.00">Kim Kitsuragi: &quot;I wouldn&#39;t go that far but...&quot; He shrugs. &quot;Why not?&quot;</text>
</g>
<!-- 14&#45;&gt;33 -->
<g id="edge15" class="edge">
<title>14&#45;&gt;33</title>
<path fill="none" stroke="black" d="M3727.4,-1051.66C3727.4,-1044.37 3727.4,-1035.69 3727.4,-1027.5"/>
<polygon fill="black" stroke="black" points="3730.91,-1027.58 3727.4,-1017.58 3723.91,-1027.58 3730.91,-1027.58"/>
</g>
<!-- 15 -->
<g id="node16" class="node">
<title>15</title>
<ellipse fill="none" stroke="black" cx="2179.4" cy="-28.99" rx="728.32" ry="28.99"/>
<text text-anchor="middle" x="2179.4" y="-32.19" font-family="Times New Roman,serif" font-size="14.00">Kim Kitsuragi: &quot;I&#39;m pretty sure you can pick up some odds and ends to sell here. Take a look around.&quot; He nods toward a table heaped with knick&#45;knacks. &quot;The owner has eclectic taste.&quot;</text>
<text text-anchor="middle" x="2179.4" y="-15.69" font-family="Times New Roman,serif" font-size="14.00">&quot;I&#39;m pretty sure you can pick up some odds and ends to sell here &#45;&#45; besides my spinners...&quot; He nods toward a table of knick&#45;knacks. &quot;The owner seems to have *eclectic* taste.&quot;</text>
</g>
<!-- 15&#45;&gt;19 -->
<g id="edge16" class="edge">
<title>15&#45;&gt;19</title>
<path fill="none" stroke="black" d="M2855.4,-39.99C3963.45,-58.63 6044.4,-104.14 6044.4,-182.98 6044.4,-688.98 6044.4,-688.98 6044.4,-688.98 6044.4,-767.62 5000.68,-807.6 4456.73,-823.1"/>
<polygon fill="black" stroke="black" points="4456.98,-819.59 4447.08,-823.37 4457.18,-826.59 4456.98,-819.59"/>
</g>
<!-- 16 -->
<g id="node17" class="node">
<title>16</title>
<ellipse fill="none" stroke="black" cx="2562.4" cy="-543.98" rx="406.03" ry="18"/>
<text text-anchor="middle" x="2562.4" y="-538.93" font-family="Times New Roman,serif" font-size="14.00">You: &quot;Oh... Yes, I see what you&#39;re getting at. I guess we should just let it slide &#45;&#45; and maybe even profit?&quot;</text>
</g>
<!-- 36 -->
<g id="node37" class="node">
<title>36</title>
<ellipse fill="none" stroke="black" cx="2513.4" cy="-471.98" rx="307.26" ry="18"/>
<text text-anchor="middle" x="2513.4" y="-466.93" font-family="Times New Roman,serif" font-size="14.00">You: &quot;I&#39;ve accepted my lot &#45;&#45; sleeping on park benches, getting by on scraps...&quot;</text>
</g>
<!-- 16&#45;&gt;36 -->
<g id="edge17" class="edge">
<title>16&#45;&gt;36</title>
<path fill="none" stroke="black" d="M2550.29,-525.68C2544.71,-517.71 2537.97,-508.08 2531.79,-499.25"/>
<polygon fill="black" stroke="black" points="2534.85,-497.51 2526.25,-491.33 2529.11,-501.53 2534.85,-497.51"/>
</g>
<!-- 38 -->
<g id="node39" class="node">
<title>38</title>
<ellipse fill="none" stroke="black" cx="1679.4" cy="-111.98" rx="27" ry="18"/>
<text text-anchor="middle" x="1679.4" y="-106.93" font-family="Times New Roman,serif" font-size="14.00">38</text>
</g>
<!-- 17&#45;&gt;38 -->
<g id="edge18" class="edge">
<title>17&#45;&gt;38</title>
<path fill="none" stroke="black" d="M1708.76,-165.68C1704.29,-157.65 1698.88,-147.93 1693.92,-139.04"/>
<polygon fill="black" stroke="black" points="1697.06,-137.48 1689.14,-130.45 1690.95,-140.89 1697.06,-137.48"/>
</g>
<!-- 18&#45;&gt;15 -->
<g id="edge19" class="edge">
<title>18&#45;&gt;15</title>
<path fill="none" stroke="black" d="M840.49,-97.22C1082.03,-85.09 1438.74,-67.18 1723.25,-52.9"/>
<polygon fill="black" stroke="black" points="1723.29,-56.4 1733.1,-52.4 1722.94,-49.41 1723.29,-56.4"/>
</g>
<!-- 19&#45;&gt;6 -->
<g id="edge20" class="edge">
<title>19&#45;&gt;6</title>
<path fill="none" stroke="black" d="M4135.4,-813.68C4135.4,-806.39 4135.4,-797.71 4135.4,-789.52"/>
<polygon fill="black" stroke="black" points="4138.91,-789.6 4135.4,-779.6 4131.91,-789.6 4138.91,-789.6"/>
</g>
<!-- 20 -->
<g id="node21" class="node">
<title>20</title>
<ellipse fill="none" stroke="black" cx="4135.4" cy="-615.98" rx="498.16" ry="18"/>
<text text-anchor="middle" x="4135.4" y="-610.93" font-family="Times New Roman,serif" font-size="14.00">Kim Kitsuragi: &quot;We can&#39;t go around punishing the people we&#39;re supposed to protect for breaking laws they don&#39;t even know exist.&quot;</text>
</g>
<!-- 20&#45;&gt;7 -->
<g id="edge24" class="edge">
<title>20&#45;&gt;7</title>
<path fill="none" stroke="black" d="M4135.4,-597.68C4135.4,-590.39 4135.4,-581.71 4135.4,-573.52"/>
<polygon fill="black" stroke="black" points="4138.91,-573.6 4135.4,-563.6 4131.91,-573.6 4138.91,-573.6"/>
</g>
<!-- 20&#45;&gt;16 -->
<g id="edge21" class="edge">
<title>20&#45;&gt;16</title>
<path fill="none" stroke="black" d="M3829.78,-601.38C3547.41,-588.82 3130.83,-570.28 2853.26,-557.93"/>
<polygon fill="black" stroke="black" points="2853.46,-554.43 2843.31,-557.48 2853.15,-561.42 2853.46,-554.43"/>
</g>
<!-- 22 -->
<g id="node23" class="node">
<title>22</title>
<ellipse fill="none" stroke="black" cx="4803.4" cy="-543.98" rx="283.2" ry="18"/>
<text text-anchor="middle" x="4803.4" y="-538.93" font-family="Times New Roman,serif" font-size="14.00">You: &quot;Shouldn&#39;t we at least ask where some of these things came from?&quot;</text>
</g>
<!-- 20&#45;&gt;22 -->
<g id="edge23" class="edge">
<title>20&#45;&gt;22</title>
<path fill="none" stroke="black" d="M4293.29,-598.44C4400.87,-587.16 4542.6,-572.31 4649.36,-561.13"/>
<polygon fill="black" stroke="black" points="4649.47,-564.63 4659.05,-560.11 4648.74,-557.67 4649.47,-564.63"/>
</g>
<!-- 26 -->
<g id="node27" class="node">
<title>26</title>
<ellipse fill="none" stroke="black" cx="3368.4" cy="-543.98" rx="381.98" ry="18"/>
<text text-anchor="middle" x="3368.4" y="-538.93" font-family="Times New Roman,serif" font-size="14.00">You: &quot;True. There are inherent injustices in the social system I &#45;&#45; and all of us &#45;&#45; find ourselves in.&quot;</text>
</g>
<!-- 20&#45;&gt;26 -->
<g id="edge22" class="edge">
<title>20&#45;&gt;26</title>
<path fill="none" stroke="black" d="M3957.51,-598.75C3835.21,-587.59 3673.29,-572.81 3550.16,-561.57"/>
<polygon fill="black" stroke="black" points="3550.53,-558.09 3540.25,-560.67 3549.89,-565.06 3550.53,-558.09"/>
</g>
<!-- 21 -->
<g id="node22" class="node">
<title>21</title>
<ellipse fill="none" stroke="black" cx="1464.4" cy="-399.98" rx="635.84" ry="18"/>
<text text-anchor="middle" x="1464.4" y="-394.93" font-family="Times New Roman,serif" font-size="14.00">Kim Kitsuragi: He looks at you seriously. &quot;An officer of the Citizens Militia can&#39;t live like that. We won&#39;t be able to complete *this investigation* if you live like that.&quot;</text>
</g>
<!-- 29 -->
<g id="node30" class="node">
<title>29</title>
<ellipse fill="none" stroke="black" cx="1718.4" cy="-327.98" rx="72.34" ry="18"/>
<text text-anchor="middle" x="1718.4" y="-322.93" font-family="Times New Roman,serif" font-size="14.00">pawnshopswitch</text>
</g>
<!-- 21&#45;&gt;29 -->
<g id="edge25" class="edge">
<title>21&#45;&gt;29</title>
<path fill="none" stroke="black" d="M1527.52,-381.59C1568.12,-370.4 1620.51,-355.96 1660.13,-345.04"/>
<polygon fill="black" stroke="black" points="1661.03,-348.42 1669.75,-342.39 1659.17,-341.68 1661.03,-348.42"/>
</g>
<!-- 22&#45;&gt;8 -->
<g id="edge26" class="edge">
<title>22&#45;&gt;8</title>
<path fill="none" stroke="black" d="M4803.4,-525.68C4803.4,-518.39 4803.4,-509.71 4803.4,-501.52"/>
<polygon fill="black" stroke="black" points="4806.91,-501.6 4803.4,-491.6 4799.91,-501.6 4806.91,-501.6"/>
</g>
<!-- 24&#45;&gt;20 -->
<g id="edge27" class="edge">
<title>24&#45;&gt;20</title>
<path fill="none" stroke="black" d="M4135.4,-669.68C4135.4,-662.39 4135.4,-653.71 4135.4,-645.52"/>
<polygon fill="black" stroke="black" points="4138.91,-645.6 4135.4,-635.6 4131.91,-645.6 4138.91,-645.6"/>
</g>
<!-- 25 -->
<g id="node26" class="node">
<title>25</title>
<ellipse fill="none" stroke="black" cx="3268.4" cy="-255.98" rx="72.34" ry="18"/>
<text text-anchor="middle" x="3268.4" y="-250.93" font-family="Times New Roman,serif" font-size="14.00">You: &quot;How so?&quot;</text>
</g>
<!-- 25&#45;&gt;2 -->
<g id="edge28" class="edge">
<title>25&#45;&gt;2</title>
<path fill="none" stroke="black" d="M3215.6,-268.63C3205.91,-270.57 3195.88,-272.44 3186.4,-273.98 3069.56,-292.96 2128.4,-280.61 2128.4,-398.98 2128.4,-760.98 2128.4,-760.98 2128.4,-760.98 2128.4,-825.54 2457.34,-866.33 2738.47,-889.41"/>
<polygon fill="black" stroke="black" points="2737.95,-892.87 2748.2,-890.2 2738.52,-885.9 2737.95,-892.87"/>
</g>
<!-- 35 -->
<g id="node36" class="node">
<title>35</title>
<ellipse fill="none" stroke="black" cx="3368.4" cy="-327.98" rx="331.82" ry="18"/>
<text text-anchor="middle" x="3368.4" y="-322.93" font-family="Times New Roman,serif" font-size="14.00">Kim Kitsuragi: &quot;It *would* help our investigation if you weren&#39;t so hard up for cash.&quot;</text>
</g>
<!-- 26&#45;&gt;35 -->
<g id="edge29" class="edge">
<title>26&#45;&gt;35</title>
<path fill="none" stroke="black" d="M3368.4,-525.83C3368.4,-489.13 3368.4,-402.64 3368.4,-357.51"/>
<polygon fill="black" stroke="black" points="3371.91,-357.73 3368.4,-347.73 3364.91,-357.73 3371.91,-357.73"/>
</g>
<!-- 27 -->
<g id="node28" class="node">
<title>27</title>
<ellipse fill="none" stroke="black" cx="3727.4" cy="-1141.97" rx="227.41" ry="18"/>
<text text-anchor="middle" x="3727.4" y="-1136.92" font-family="Times New Roman,serif" font-size="14.00">You: &quot;I am fully deserving of the trials life has dealt me.&quot;</text>
</g>
<!-- 27&#45;&gt;14 -->
<g id="edge30" class="edge">
<title>27&#45;&gt;14</title>
<path fill="none" stroke="black" d="M3727.4,-1123.66C3727.4,-1116.37 3727.4,-1107.69 3727.4,-1099.5"/>
<polygon fill="black" stroke="black" points="3730.91,-1099.58 3727.4,-1089.58 3723.91,-1099.58 3730.91,-1099.58"/>
</g>
<!-- 28 -->
<g id="node29" class="node">
<title>28</title>
<ellipse fill="none" stroke="black" cx="997.4" cy="-183.98" rx="308.28" ry="18"/>
<text text-anchor="middle" x="997.4" y="-178.93" font-family="Times New Roman,serif" font-size="14.00">Composure: The lieutenant&#39;s tone doesn&#39;t betray any frustration. Concern &#45;&#45; yes.</text>
</g>
<!-- 28&#45;&gt;15 -->
<g id="edge31" class="edge">
<title>28&#45;&gt;15</title>
<path fill="none" stroke="black" d="M1110.23,-166.81C1239.09,-148.48 1456.31,-118.04 1643.4,-93.98 1738.55,-81.75 1843.29,-69.07 1934.76,-58.26"/>
<polygon fill="black" stroke="black" points="1935.11,-61.74 1944.63,-57.09 1934.28,-54.79 1935.11,-61.74"/>
</g>
<!-- 29&#45;&gt;9 -->
<g id="edge33" class="edge">
<title>29&#45;&gt;9</title>
<path fill="none" stroke="black" d="M1649.44,-322.12C1503.39,-311.81 1157.95,-287.43 933.56,-271.6"/>
<polygon fill="black" stroke="black" points="934.04,-268.13 923.81,-270.91 933.54,-275.11 934.04,-268.13"/>
</g>
<!-- 29&#45;&gt;12 -->
<g id="edge34" class="edge">
<title>29&#45;&gt;12</title>
<path fill="none" stroke="black" d="M1718.4,-309.68C1718.4,-302.39 1718.4,-293.71 1718.4,-285.52"/>
<polygon fill="black" stroke="black" points="1721.91,-285.6 1718.4,-275.6 1714.91,-285.6 1721.91,-285.6"/>
</g>
<!-- 29&#45;&gt;25 -->
<g id="edge35" class="edge">
<title>29&#45;&gt;25</title>
<path fill="none" stroke="black" d="M1789.22,-323.74C1868.44,-320.17 2000.6,-314.34 2114.4,-309.98 2590.77,-291.76 2713.06,-330.58 3186.4,-273.98 3192.79,-273.22 3199.41,-272.21 3206,-271.07"/>
<polygon fill="black" stroke="black" points="3206.32,-274.57 3215.52,-269.31 3205.05,-267.69 3206.32,-274.57"/>
</g>
<!-- 29&#45;&gt;28 -->
<g id="edge36" class="edge">
<title>29&#45;&gt;28</title>
<path fill="none" stroke="black" d="M1663.03,-316.08C1540.78,-292 1246.6,-234.06 1093.55,-203.92"/>
<polygon fill="black" stroke="black" points="1094.31,-200.5 1083.82,-202 1092.95,-207.37 1094.31,-200.5"/>
</g>
<!-- 31 -->
<g id="node32" class="node">
<title>31</title>
<ellipse fill="none" stroke="black" cx="2628.4" cy="-255.98" rx="549.34" ry="18"/>
<text text-anchor="middle" x="2628.4" y="-250.93" font-family="Times New Roman,serif" font-size="14.00">Kim Kitsuragi: &quot;It *would* help our investigation,&quot; he adds, his voice softening as he looks off to the side, &quot;if you weren&#39;t so hard up for cash.&quot;</text>
</g>
<!-- 29&#45;&gt;31 -->
<g id="edge37" class="edge">
<title>29&#45;&gt;31</title>
<path fill="none" stroke="black" d="M1786.8,-321.72C1916.92,-311.71 2205.19,-289.54 2407.94,-273.94"/>
<polygon fill="black" stroke="black" points="2408.13,-277.44 2417.84,-273.18 2407.6,-270.46 2408.13,-277.44"/>
</g>
<!-- 37 -->
<g id="node38" class="node">
<title>37</title>
<ellipse fill="none" stroke="black" cx="2179.4" cy="-111.98" rx="454.66" ry="18"/>
<text text-anchor="middle" x="2179.4" y="-106.93" font-family="Times New Roman,serif" font-size="14.00">Composure: He is mildly offended that his display of camaraderie went wrong &#45;&#45; though it doesn&#39;t show in his posture.</text>
</g>
<!-- 29&#45;&gt;37 -->
<g id="edge32" class="edge">
<title>29&#45;&gt;37</title>
<path fill="none" stroke="black" d="M1786.44,-321.6C1873.11,-311.53 2023.37,-282.86 2121.4,-201.98 2141.57,-185.35 2157.19,-159.85 2167.11,-140.4"/>
<polygon fill="black" stroke="black" points="2170.13,-142.2 2171.37,-131.67 2163.84,-139.13 2170.13,-142.2"/>
</g>
<!-- 30&#45;&gt;2 -->
<g id="edge38" class="edge">
<title>30&#45;&gt;2</title>
<path fill="none" stroke="black" d="M3131.4,-979.79C3131.4,-972.7 3131.4,-964.17 3131.4,-955.68"/>
<polygon fill="black" stroke="black" points="3134.91,-955.79 3131.4,-945.79 3127.91,-955.79 3134.91,-955.79"/>
</g>
<!-- 31&#45;&gt;3 -->
<g id="edge39" class="edge">
<title>31&#45;&gt;3</title>
<path fill="none" stroke="black" d="M2732.62,-237.86C2795.14,-227.59 2874.75,-214.5 2939.15,-203.92"/>
<polygon fill="black" stroke="black" points="2939.37,-207.43 2948.67,-202.36 2938.23,-200.53 2939.37,-207.43"/>
</g>
<!-- 32&#45;&gt;15 -->
<g id="edge40" class="edge">
<title>32&#45;&gt;15</title>
<path fill="none" stroke="black" d="M4201.75,-383.4C4126.8,-365.94 4057.4,-330.05 4057.4,-256.98 4057.4,-256.98 4057.4,-256.98 4057.4,-182.98 4057.4,-115.96 3287.58,-72.05 2733.69,-49.12"/>
<polygon fill="black" stroke="black" points="2733.93,-45.63 2723.8,-48.72 2733.64,-52.63 2733.93,-45.63"/>
</g>
<!-- 35&#45;&gt;3 -->
<g id="edge41" class="edge">
<title>35&#45;&gt;3</title>
<path fill="none" stroke="black" d="M3369.96,-309.57C3370.73,-289.39 3368.59,-256.55 3349.4,-237.98 3333.26,-222.35 3294.42,-211.24 3250.05,-203.37"/>
<polygon fill="black" stroke="black" points="3250.9,-199.96 3240.46,-201.74 3249.73,-206.86 3250.9,-199.96"/>
</g>
<!-- 36&#45;&gt;21 -->
<g id="edge42" class="edge">
<title>36&#45;&gt;21</title>
<path fill="none" stroke="black" d="M2316.1,-457.82C2146.49,-446.5 1900.9,-430.11 1716.97,-417.84"/>
<polygon fill="black" stroke="black" points="1717.22,-414.35 1707.01,-417.17 1716.76,-421.33 1717.22,-414.35"/>
</g>
<!-- 37&#45;&gt;15 -->
<g id="edge43" class="edge">
<title>37&#45;&gt;15</title>
<path fill="none" stroke="black" d="M2179.4,-93.81C2179.4,-86.72 2179.4,-78.19 2179.4,-69.7"/>
<polygon fill="black" stroke="black" points="2182.91,-69.81 2179.4,-59.81 2175.91,-69.81 2182.91,-69.81"/>
</g>
</g>
</svg>
