<?xml version="1.0" encoding="UTF-8" standalone="no"?>
<!DOCTYPE svg PUBLIC "-//W3C//DTD SVG 1.1//EN"
 "http://www.w3.org/Graphics/SVG/1.1/DTD/svg11.dtd">
<!-- Generated by graphviz version 12.2.1 (20241206.2353)
 -->
<!-- Title: G Pages: 1 -->
<svg width="5943pt" height="1334pt"
 viewBox="0.00 0.00 5943.38 1333.95" xmlns="http://www.w3.org/2000/svg" xmlns:xlink="http://www.w3.org/1999/xlink">
<g id="graph0" class="graph" transform="scale(1 1) rotate(0) translate(4 1329.95)">
<title>G</title>
<polygon fill="white" stroke="none" points="-4,4 -4,-1329.95 5939.38,-1329.95 5939.38,4 -4,4"/>
<!-- 0 -->
<g id="node1" class="node">
<title>0</title>
<ellipse fill="none" stroke="black" cx="3061.68" cy="-1296.96" rx="39.07" ry="18"/>
<text text-anchor="middle" x="3061.68" y="-1291.91" font-family="Times New Roman,serif" font-size="14.00">START</text>
</g>
<!-- 0&#45;&gt;0 -->
<g id="edge1" class="edge">
<title>0&#45;&gt;0</title>
<path fill="none" stroke="black" d="M3086.61,-1311.22C3102.94,-1315.08 3118.75,-1310.33 3118.75,-1296.96 3118.75,-1286.72 3109.48,-1281.53 3097.81,-1281.4"/>
<polygon fill="black" stroke="black" points="3097.65,-1277.89 3088.11,-1282.52 3098.45,-1284.85 3097.65,-1277.89"/>
</g>
<!-- 1 -->
<g id="node2" class="node">
<title>1</title>
<ellipse fill="none" stroke="black" cx="3176.68" cy="-543.98" rx="29.86" ry="18"/>
<text text-anchor="middle" x="3176.68" y="-538.93" font-family="Times New Roman,serif" font-size="14.00">input</text>
</g>
<!-- 63 -->
<g id="node64" class="node">
<title>63</title>
<ellipse fill="none" stroke="black" cx="3176.68" cy="-471.98" rx="194.66" ry="18"/>
<text text-anchor="middle" x="3176.68" y="-466.93" font-family="Times New Roman,serif" font-size="14.00">Volition: The urge is strong, but you are stronger.</text>
</g>
<!-- 1&#45;&gt;63 -->
<g id="edge2" class="edge">
<title>1&#45;&gt;63</title>
<path fill="none" stroke="black" d="M3176.68,-525.68C3176.68,-518.39 3176.68,-509.71 3176.68,-501.52"/>
<polygon fill="black" stroke="black" points="3180.18,-501.6 3176.68,-491.6 3173.18,-501.6 3180.18,-501.6"/>
</g>
<!-- 2 -->
<g id="node3" class="node">
<title>2</title>
<ellipse fill="none" stroke="black" cx="1807.68" cy="-543.98" rx="148.59" ry="18"/>
<text text-anchor="middle" x="1807.68" y="-538.93" font-family="Times New Roman,serif" font-size="14.00">You: &quot;Reckless traffic hooliganism.&quot;</text>
</g>
<!-- 37 -->
<g id="node38" class="node">
<title>37</title>
<ellipse fill="none" stroke="black" cx="1668.68" cy="-471.98" rx="491.51" ry="18"/>
<text text-anchor="middle" x="1668.68" y="-466.93" font-family="Times New Roman,serif" font-size="14.00">Conceptualization: Somewhere in the depths of your alcohol&#45;addled soul, you find a few threads that you can weave into a story.</text>
</g>
<!-- 2&#45;&gt;37 -->
<g id="edge3" class="edge">
<title>2&#45;&gt;37</title>
<path fill="none" stroke="black" d="M1774.03,-526.04C1755.69,-516.8 1732.77,-505.26 1713,-495.3"/>
<polygon fill="black" stroke="black" points="1714.84,-492.31 1704.33,-490.94 1711.69,-498.56 1714.84,-492.31"/>
</g>
<!-- 3 -->
<g id="node4" class="node">
<title>3</title>
<ellipse fill="none" stroke="black" cx="1804.68" cy="-914.97" rx="328.98" ry="28.99"/>
<text text-anchor="middle" x="1804.68" y="-918.17" font-family="Times New Roman,serif" font-size="14.00">You: &quot;Some top&#45;shelf shenanigans. I want to meet the driver and shake his hand.&quot;</text>
<text text-anchor="middle" x="1804.68" y="-901.67" font-family="Times New Roman,serif" font-size="14.00">&quot;Some top&#45;shelf shenanigans. I want to meet the driver and shake her hand.&quot;</text>
</g>
<!-- 3&#45;&gt;37 -->
<g id="edge4" class="edge">
<title>3&#45;&gt;37</title>
<path fill="none" stroke="black" d="M1736.41,-886.29C1687.66,-861.5 1630.68,-819.91 1630.68,-760.98 1630.68,-760.98 1630.68,-760.98 1630.68,-614.98 1630.68,-574.16 1645.51,-528.91 1656.65,-500.71"/>
<polygon fill="black" stroke="black" points="1659.87,-502.06 1660.42,-491.48 1653.39,-499.41 1659.87,-502.06"/>
</g>
<!-- 4 -->
<g id="node5" class="node">
<title>4</title>
<ellipse fill="none" stroke="black" cx="2551.68" cy="-471.98" rx="335.92" ry="18"/>
<text text-anchor="middle" x="2551.68" y="-466.93" font-family="Times New Roman,serif" font-size="14.00">You: &quot;On second thought, maybe this doesn&#39;t really warrant an investigation.&quot; [Leave.]</text>
</g>
<!-- 5 -->
<g id="node6" class="node">
<title>5</title>
<ellipse fill="none" stroke="black" cx="2614.68" cy="-759.98" rx="40.6" ry="18"/>
<text text-anchor="middle" x="2614.68" y="-754.93" font-family="Times New Roman,serif" font-size="14.00">whohub</text>
</g>
<!-- 40 -->
<g id="node41" class="node">
<title>40</title>
<ellipse fill="none" stroke="black" cx="2431.68" cy="-687.98" rx="59.54" ry="18"/>
<text text-anchor="middle" x="2431.68" y="-682.93" font-family="Times New Roman,serif" font-size="14.00">carmodelhub</text>
</g>
<!-- 5&#45;&gt;40 -->
<g id="edge5" class="edge">
<title>5&#45;&gt;40</title>
<path fill="none" stroke="black" d="M2584.87,-747.58C2555.9,-736.5 2511.48,-719.51 2477.92,-706.67"/>
<polygon fill="black" stroke="black" points="2479.45,-703.51 2468.86,-703.2 2476.95,-710.05 2479.45,-703.51"/>
</g>
<!-- 47 -->
<g id="node48" class="node">
<title>47</title>
<ellipse fill="none" stroke="black" cx="2706.68" cy="-687.98" rx="197.22" ry="18"/>
<text text-anchor="middle" x="2706.68" y="-682.93" font-family="Times New Roman,serif" font-size="14.00">Kim Kitsuragi: &quot;The TipTop Tournée champion?&quot;</text>
</g>
<!-- 5&#45;&gt;47 -->
<g id="edge6" class="edge">
<title>5&#45;&gt;47</title>
<path fill="none" stroke="black" d="M2634.19,-744.14C2646.02,-735.14 2661.39,-723.44 2674.93,-713.14"/>
<polygon fill="black" stroke="black" points="2676.91,-716.03 2682.75,-707.19 2672.67,-710.46 2676.91,-716.03"/>
</g>
<!-- 6 -->
<g id="node7" class="node">
<title>6</title>
<ellipse fill="none" stroke="black" cx="4022.68" cy="-18" rx="476.66" ry="18"/>
<text text-anchor="middle" x="4022.68" y="-12.95" font-family="Times New Roman,serif" font-size="14.00">Kim Kitsuragi: &quot;The traffic hooliganism? I hope not. Fortunately, we&#39;re not traffic cops. Should we get back to the murder?&quot;</text>
</g>
<!-- 6&#45;&gt;6 -->
<g id="edge7" class="edge">
<title>6&#45;&gt;6</title>
<path fill="none" stroke="black" d="M4350.03,-31.45C4444.43,-30.95 4517.34,-26.46 4517.34,-18 4517.34,-9.88 4450.29,-5.43 4361.53,-4.63"/>
<polygon fill="black" stroke="black" points="4361.57,-1.13 4351.54,-4.56 4361.52,-8.13 4361.57,-1.13"/>
</g>
<!-- 7 -->
<g id="node8" class="node">
<title>7</title>
<ellipse fill="none" stroke="black" cx="3422.68" cy="-997.97" rx="63.12" ry="18"/>
<text text-anchor="middle" x="3422.68" y="-992.92" font-family="Times New Roman,serif" font-size="14.00">trafficcasehub</text>
</g>
<!-- 7&#45;&gt;3 -->
<g id="edge8" class="edge">
<title>7&#45;&gt;3</title>
<path fill="none" stroke="black" d="M3360.29,-994.66C3183.28,-988.01 2662.71,-967.76 2230.68,-943.97 2179.03,-941.12 2123.89,-937.75 2070.99,-934.34"/>
<polygon fill="black" stroke="black" points="2071.45,-930.87 2061.25,-933.72 2071,-937.85 2071.45,-930.87"/>
</g>
<!-- 12 -->
<g id="node13" class="node">
<title>12</title>
<ellipse fill="none" stroke="black" cx="2856.68" cy="-914.97" rx="333.87" ry="18"/>
<text text-anchor="middle" x="2856.68" y="-909.92" font-family="Times New Roman,serif" font-size="14.00">You: &quot;Actually, never mind, I need more evidence to come up with a list of suspects.&quot;</text>
</g>
<!-- 7&#45;&gt;12 -->
<g id="edge9" class="edge">
<title>7&#45;&gt;12</title>
<path fill="none" stroke="black" d="M3367.12,-989.02C3278.39,-976.32 3102.48,-951.15 2982.22,-933.94"/>
<polygon fill="black" stroke="black" points="2983.01,-930.52 2972.62,-932.56 2982.02,-937.45 2983.01,-930.52"/>
</g>
<!-- 23 -->
<g id="node24" class="node">
<title>23</title>
<ellipse fill="none" stroke="black" cx="5430.68" cy="-255.98" rx="499.18" ry="18"/>
<text text-anchor="middle" x="5430.68" y="-250.93" font-family="Times New Roman,serif" font-size="14.00">Kim Kitsuragi: &quot;I suppose that narrows it down somewhat. Fortunately, we&#39;re not traffic cops. Should we get back to the murder?&quot;</text>
</g>
<!-- 7&#45;&gt;23 -->
<g id="edge11" class="edge">
<title>7&#45;&gt;23</title>
<path fill="none" stroke="black" d="M3486.05,-996.58C3848.37,-994.26 5642.9,-980.91 5685.68,-943.97 5723.55,-911.26 5704.68,-883.03 5704.68,-832.98 5704.68,-832.98 5704.68,-832.98 5704.68,-398.98 5704.68,-330.45 5636.28,-294.95 5567.83,-276.59"/>
<polygon fill="black" stroke="black" points="5568.87,-273.24 5558.32,-274.16 5567.14,-280.02 5568.87,-273.24"/>
</g>
<!-- 51 -->
<g id="node52" class="node">
<title>51</title>
<ellipse fill="none" stroke="black" cx="3746.68" cy="-914.97" rx="294.97" ry="18"/>
<text text-anchor="middle" x="3746.68" y="-909.92" font-family="Times New Roman,serif" font-size="14.00">Conceptualization: You&#39;ve thought of a very touching story. It&#39;s shit, though.</text>
</g>
<!-- 7&#45;&gt;51 -->
<g id="edge10" class="edge">
<title>7&#45;&gt;51</title>
<path fill="none" stroke="black" d="M3469.1,-985.36C3520.93,-972.41 3605.7,-951.22 3667.94,-935.66"/>
<polygon fill="black" stroke="black" points="3668.58,-939.1 3677.43,-933.28 3666.88,-932.31 3668.58,-939.1"/>
</g>
<!-- 55 -->
<g id="node56" class="node">
<title>55</title>
<ellipse fill="none" stroke="black" cx="5344.68" cy="-914.97" rx="332.33" ry="18"/>
<text text-anchor="middle" x="5344.68" y="-909.92" font-family="Times New Roman,serif" font-size="14.00">Kim Kitsuragi: The lieutenant patiently listens to the words coming from your mouth.</text>
</g>
<!-- 7&#45;&gt;55 -->
<g id="edge12" class="edge">
<title>7&#45;&gt;55</title>
<path fill="none" stroke="black" d="M3485.61,-995.95C3698.89,-992.27 4413.86,-978.04 5003.68,-943.97 5057.66,-940.85 5116.36,-936.41 5169.61,-931.98"/>
<polygon fill="black" stroke="black" points="5169.7,-935.48 5179.37,-931.16 5169.12,-928.51 5169.7,-935.48"/>
</g>
<!-- 8 -->
<g id="node9" class="node">
<title>8</title>
<ellipse fill="none" stroke="black" cx="423.68" cy="-543.98" rx="393.24" ry="18"/>
<text text-anchor="middle" x="423.68" y="-538.93" font-family="Times New Roman,serif" font-size="14.00">You: &quot;See, Kim, what happened here is &#45;&#45; the driver was a man whose wife was about to give birth...&quot;</text>
</g>
<!-- 60 -->
<g id="node61" class="node">
<title>60</title>
<ellipse fill="none" stroke="black" cx="529.68" cy="-471.98" rx="160.37" ry="18"/>
<text text-anchor="middle" x="529.68" y="-466.93" font-family="Times New Roman,serif" font-size="14.00">You: Maybe I shouldn&#39;t tell it if it&#39;s shit.</text>
</g>
<!-- 8&#45;&gt;60 -->
<g id="edge13" class="edge">
<title>8&#45;&gt;60</title>
<path fill="none" stroke="black" d="M449.88,-525.68C463.36,-516.78 479.97,-505.81 494.55,-496.18"/>
<polygon fill="black" stroke="black" points="496.1,-499.35 502.51,-490.92 492.24,-493.51 496.1,-499.35"/>
</g>
<!-- 9 -->
<g id="node10" class="node">
<title>9</title>
<ellipse fill="none" stroke="black" cx="3422.68" cy="-1141.97" rx="222.81" ry="18"/>
<text text-anchor="middle" x="3422.68" y="-1136.92" font-family="Times New Roman,serif" font-size="14.00">You: &quot;It had to be someone really cool and courageous.&quot;</text>
</g>
<!-- 22 -->
<g id="node23" class="node">
<title>22</title>
<ellipse fill="none" stroke="black" cx="3422.68" cy="-1069.97" rx="179.3" ry="18"/>
<text text-anchor="middle" x="3422.68" y="-1064.92" font-family="Times New Roman,serif" font-size="14.00">Conceptualization: Well, you&#39;re in luck, then.</text>
</g>
<!-- 9&#45;&gt;22 -->
<g id="edge14" class="edge">
<title>9&#45;&gt;22</title>
<path fill="none" stroke="black" d="M3422.68,-1123.66C3422.68,-1116.37 3422.68,-1107.69 3422.68,-1099.5"/>
<polygon fill="black" stroke="black" points="3426.18,-1099.58 3422.68,-1089.58 3419.18,-1099.58 3426.18,-1099.58"/>
</g>
<!-- 10 -->
<g id="node11" class="node">
<title>10</title>
<ellipse fill="none" stroke="black" cx="3870.68" cy="-759.98" rx="350.25" ry="18"/>
<text text-anchor="middle" x="3870.68" y="-754.93" font-family="Times New Roman,serif" font-size="14.00">Esprit de Corps: I&#39;m not expecting him to get far with this, the lieutenant consoles himself.</text>
</g>
<!-- 11 -->
<g id="node12" class="node">
<title>11</title>
<ellipse fill="none" stroke="black" cx="1218.68" cy="-543.98" rx="384.03" ry="18"/>
<text text-anchor="middle" x="1218.68" y="-538.93" font-family="Times New Roman,serif" font-size="14.00">Kim Kitsuragi: &quot;You&#39;re right.&quot; He straightens his back. &quot;Let&#39;s get back to the murder investigation.&quot;</text>
</g>
<!-- 32 -->
<g id="node33" class="node">
<title>32</title>
<ellipse fill="none" stroke="black" cx="2614.68" cy="-831.98" rx="342.06" ry="18"/>
<text text-anchor="middle" x="2614.68" y="-826.93" font-family="Times New Roman,serif" font-size="14.00">You: &quot;It was someone dangerous. Perhaps this is somehow *connected* to the murder?&quot;</text>
</g>
<!-- 12&#45;&gt;32 -->
<g id="edge15" class="edge">
<title>12&#45;&gt;32</title>
<path fill="none" stroke="black" d="M2805.06,-896.7C2767.63,-884.17 2716.82,-867.17 2677.1,-853.88"/>
<polygon fill="black" stroke="black" points="2678.25,-850.57 2667.65,-850.71 2676.02,-857.2 2678.25,-850.57"/>
</g>
<!-- 13 -->
<g id="node14" class="node">
<title>13</title>
<ellipse fill="none" stroke="black" cx="3176.68" cy="-399.98" rx="244.3" ry="18"/>
<text text-anchor="middle" x="3176.68" y="-394.93" font-family="Times New Roman,serif" font-size="14.00">You: &quot;Let&#39;s move on. We&#39;ve learned all we can here.&quot; [Leave.]</text>
</g>
<!-- 14 -->
<g id="node15" class="node">
<title>14</title>
<ellipse fill="none" stroke="black" cx="1887.68" cy="-687.98" rx="220.25" ry="18"/>
<text text-anchor="middle" x="1887.68" y="-682.93" font-family="Times New Roman,serif" font-size="14.00">Kim Kitsuragi: Variable[&quot;canal.kim_samaran_volition&quot;]</text>
</g>
<!-- 14&#45;&gt;14 -->
<g id="edge16" class="edge">
<title>14&#45;&gt;14</title>
<path fill="none" stroke="black" d="M2038.61,-701.48C2087.3,-701.36 2125.93,-696.86 2125.93,-687.98 2125.93,-679.82 2093.24,-675.36 2050.1,-674.6"/>
<polygon fill="black" stroke="black" points="2050.16,-671.1 2040.13,-674.5 2050.09,-678.1 2050.16,-671.1"/>
</g>
<!-- 15 -->
<g id="node16" class="node">
<title>15</title>
<polygon fill="none" stroke="black" points="1887.68,-633.98 1658.71,-615.98 1887.68,-597.98 2116.64,-615.98 1887.68,-633.98"/>
<text text-anchor="middle" x="1887.68" y="-610.93" font-family="Times New Roman,serif" font-size="14.00">Variable[&quot;canal.kim_samaran_volition&quot;]</text>
</g>
<!-- 14&#45;&gt;15 -->
<g id="edge17" class="edge">
<title>14&#45;&gt;15</title>
<path fill="none" stroke="black" d="M1887.68,-669.68C1887.68,-662.39 1887.68,-653.71 1887.68,-645.52"/>
<polygon fill="black" stroke="black" points="1891.18,-645.6 1887.68,-635.6 1884.18,-645.6 1891.18,-645.6"/>
</g>
<!-- 30 -->
<g id="node31" class="node">
<title>30</title>
<ellipse fill="none" stroke="black" cx="2281.68" cy="-543.98" rx="307.77" ry="18"/>
<text text-anchor="middle" x="2281.68" y="-538.93" font-family="Times New Roman,serif" font-size="14.00">Kim Kitsuragi: He seems impressed. &quot;That&#39;s quite likely, from what I can tell.&quot;</text>
</g>
<!-- 15&#45;&gt;30 -->
<g id="edge18" class="edge">
<title>15&#45;&gt;30</title>
<path fill="none" stroke="black" d="M1955.86,-602.87C2016.8,-592.04 2107.03,-576.01 2177.1,-563.56"/>
<polygon fill="black" stroke="black" points="2177.44,-567.06 2186.67,-561.86 2176.21,-560.17 2177.44,-567.06"/>
</g>
<!-- 16 -->
<g id="node17" class="node">
<title>16</title>
<polygon fill="none" stroke="black" points="2376.68,-633.98 2134.69,-615.98 2376.68,-597.98 2618.67,-615.98 2376.68,-633.98"/>
<text text-anchor="middle" x="2376.68" y="-610.93" font-family="Times New Roman,serif" font-size="14.00">!(Variable[&quot;canal.kim_samaran_volition&quot;])</text>
</g>
<!-- 16&#45;&gt;7 -->
<g id="edge19" class="edge">
<title>16&#45;&gt;7</title>
<path fill="none" stroke="black" d="M2346.72,-632.18C2307.78,-654.33 2244.68,-699.41 2244.68,-758.98 2244.68,-832.98 2244.68,-832.98 2244.68,-832.98 2244.68,-962.31 2387.16,-917.14 2513.68,-943.97 2672.34,-977.6 3160.7,-991.37 3348.25,-995.51"/>
<polygon fill="black" stroke="black" points="3348.05,-999 3358.12,-995.72 3348.2,-992 3348.05,-999"/>
</g>
<!-- 17 -->
<g id="node18" class="node">
<title>17</title>
<ellipse fill="none" stroke="black" cx="4425.68" cy="-687.98" rx="152.18" ry="18"/>
<text text-anchor="middle" x="4425.68" y="-682.93" font-family="Times New Roman,serif" font-size="14.00">You: &quot;I believe it was a Linnea G22.&quot;</text>
</g>
<!-- 29 -->
<g id="node30" class="node">
<title>29</title>
<ellipse fill="none" stroke="black" cx="4266.68" cy="-471.98" rx="103.56" ry="18"/>
<text text-anchor="middle" x="4266.68" y="-466.93" font-family="Times New Roman,serif" font-size="14.00">Authority: Shut *down*.</text>
</g>
<!-- 17&#45;&gt;29 -->
<g id="edge20" class="edge">
<title>17&#45;&gt;29</title>
<path fill="none" stroke="black" d="M4440.32,-669.6C4453.95,-651.17 4470.41,-621.53 4457.68,-597.98 4429.5,-545.86 4369.08,-511.98 4323.7,-492.82"/>
<polygon fill="black" stroke="black" points="4325.08,-489.6 4314.5,-489.06 4322.44,-496.08 4325.08,-489.6"/>
</g>
<!-- 18 -->
<g id="node19" class="node">
<title>18</title>
<ellipse fill="none" stroke="black" cx="3903.68" cy="-1296.96" rx="176.78" ry="28.99"/>
<text text-anchor="middle" x="3903.68" y="-1300.16" font-family="Times New Roman,serif" font-size="14.00">You: &quot;I have no idea.&quot;</text>
<text text-anchor="middle" x="3903.68" y="-1283.66" font-family="Times New Roman,serif" font-size="14.00">&quot;I don&#39;t know, maybe a superstar mobile?&quot;</text>
</g>
<!-- 18&#45;&gt;18 -->
<g id="edge21" class="edge">
<title>18&#45;&gt;18</title>
<path fill="none" stroke="black" d="M4059.16,-1311.11C4082.58,-1308.93 4098.45,-1304.21 4098.45,-1296.96 4098.45,-1290.95 4087.57,-1286.68 4070.53,-1284.15"/>
<polygon fill="black" stroke="black" points="4071.01,-1280.69 4060.67,-1282.98 4070.18,-1287.64 4071.01,-1280.69"/>
</g>
<!-- 19 -->
<g id="node20" class="node">
<title>19</title>
<ellipse fill="none" stroke="black" cx="2867.68" cy="-543.98" rx="260.68" ry="18"/>
<text text-anchor="middle" x="2867.68" y="-538.93" font-family="Times New Roman,serif" font-size="14.00">Kim Kitsuragi: &quot;I suppose it&#39;s not really our job to figure that out.&quot;</text>
</g>
<!-- 19&#45;&gt;4 -->
<g id="edge22" class="edge">
<title>19&#45;&gt;4</title>
<path fill="none" stroke="black" d="M2792.39,-526.3C2746.41,-516.12 2687.41,-503.05 2639.33,-492.4"/>
<polygon fill="black" stroke="black" points="2640.31,-489.03 2629.79,-490.29 2638.79,-495.87 2640.31,-489.03"/>
</g>
<!-- 20 -->
<g id="node21" class="node">
<title>20</title>
<ellipse fill="none" stroke="black" cx="3746.68" cy="-831.98" rx="230.48" ry="18"/>
<text text-anchor="middle" x="3746.68" y="-826.93" font-family="Times New Roman,serif" font-size="14.00">You: &quot;I don&#39;t care and it&#39;s not really our concern.&quot; [Leave.]</text>
</g>
<!-- 20&#45;&gt;10 -->
<g id="edge23" class="edge">
<title>20&#45;&gt;10</title>
<path fill="none" stroke="black" d="M3777.33,-813.68C3793.28,-804.68 3812.98,-793.55 3830.17,-783.85"/>
<polygon fill="black" stroke="black" points="3831.64,-787.04 3838.63,-779.07 3828.2,-780.94 3831.64,-787.04"/>
</g>
<!-- 21 -->
<g id="node22" class="node">
<title>21</title>
<ellipse fill="none" stroke="black" cx="4260.68" cy="-1296.96" rx="144.5" ry="18"/>
<text text-anchor="middle" x="4260.68" y="-1291.91" font-family="Times New Roman,serif" font-size="14.00">You: That&#39;s okay, I love shit stories.</text>
</g>
<!-- 21&#45;&gt;21 -->
<g id="edge24" class="edge">
<title>21&#45;&gt;21</title>
<path fill="none" stroke="black" d="M4344.29,-1312.06C4385.98,-1314.15 4423.18,-1309.11 4423.18,-1296.96 4423.18,-1285.89 4392.37,-1280.73 4355.39,-1281.47"/>
<polygon fill="black" stroke="black" points="4355.67,-1277.95 4345.8,-1281.8 4355.92,-1284.95 4355.67,-1277.95"/>
</g>
<!-- 22&#45;&gt;7 -->
<g id="edge25" class="edge">
<title>22&#45;&gt;7</title>
<path fill="none" stroke="black" d="M3422.68,-1051.66C3422.68,-1044.37 3422.68,-1035.69 3422.68,-1027.5"/>
<polygon fill="black" stroke="black" points="3426.18,-1027.58 3422.68,-1017.58 3419.18,-1027.58 3426.18,-1027.58"/>
</g>
<!-- 23&#45;&gt;6 -->
<g id="edge26" class="edge">
<title>23&#45;&gt;6</title>
<path fill="none" stroke="black" d="M5374.63,-237.64C5252.56,-200.63 4952.99,-113.87 4695.68,-72 4579.67,-53.12 4451.27,-40.9 4337.99,-33.02"/>
<polygon fill="black" stroke="black" points="4338.45,-29.54 4328.24,-32.35 4337.97,-36.53 4338.45,-29.54"/>
</g>
<!-- 24 -->
<g id="node25" class="node">
<title>24</title>
<ellipse fill="none" stroke="black" cx="4732.68" cy="-1296.96" rx="291.39" ry="18"/>
<text text-anchor="middle" x="4732.68" y="-1291.91" font-family="Times New Roman,serif" font-size="14.00">You: Try to come up with a convincing explanation for the driver&#39;s actions.</text>
</g>
<!-- 24&#45;&gt;24 -->
<g id="edge27" class="edge">
<title>24&#45;&gt;24</title>
<path fill="none" stroke="black" d="M4897.8,-1312.2C4974.75,-1313.89 5042.07,-1308.81 5042.07,-1296.96 5042.07,-1285.68 4981.16,-1280.53 4909,-1281.51"/>
<polygon fill="black" stroke="black" points="4909.25,-1278.01 4899.32,-1281.69 4909.38,-1285.01 4909.25,-1278.01"/>
</g>
<!-- 25 -->
<g id="node26" class="node">
<title>25</title>
<ellipse fill="none" stroke="black" cx="4762.68" cy="-914.97" rx="214.11" ry="18"/>
<text text-anchor="middle" x="4762.68" y="-909.92" font-family="Times New Roman,serif" font-size="14.00">You: Variable[&quot;canal.canal_tires_red_check_boolean&quot;]</text>
</g>
<!-- 25&#45;&gt;25 -->
<g id="edge28" class="edge">
<title>25&#45;&gt;25</title>
<path fill="none" stroke="black" d="M4884.78,-930.16C4943.24,-932.01 4994.78,-926.95 4994.78,-914.97 4994.78,-903.77 4949.67,-898.62 4895.98,-899.51"/>
<polygon fill="black" stroke="black" points="4896.2,-896.01 4886.29,-899.75 4896.37,-903 4896.2,-896.01"/>
</g>
<!-- 26 -->
<g id="node27" class="node">
<title>26</title>
<polygon fill="none" stroke="black" points="4808.68,-849.98 4534.11,-831.98 4808.68,-813.98 5083.24,-831.98 4808.68,-849.98"/>
<text text-anchor="middle" x="4808.68" y="-826.93" font-family="Times New Roman,serif" font-size="14.00">Variable[&quot;canal.canal_tires_red_check_boolean&quot;]</text>
</g>
<!-- 25&#45;&gt;26 -->
<g id="edge29" class="edge">
<title>25&#45;&gt;26</title>
<path fill="none" stroke="black" d="M4772.43,-896.8C4778.61,-885.91 4786.73,-871.62 4793.72,-859.32"/>
<polygon fill="black" stroke="black" points="4796.61,-861.32 4798.5,-850.9 4790.52,-857.86 4796.61,-861.32"/>
</g>
<!-- 33 -->
<g id="node34" class="node">
<title>33</title>
<ellipse fill="none" stroke="black" cx="4808.68" cy="-759.98" rx="293.44" ry="18"/>
<text text-anchor="middle" x="4808.68" y="-754.93" font-family="Times New Roman,serif" font-size="14.00">Kim Kitsuragi: &quot;We&#39;re not traffic cops. Should we get back to the murder?&quot;</text>
</g>
<!-- 26&#45;&gt;33 -->
<g id="edge30" class="edge">
<title>26&#45;&gt;33</title>
<path fill="none" stroke="black" d="M4808.68,-813.68C4808.68,-806.39 4808.68,-797.71 4808.68,-789.52"/>
<polygon fill="black" stroke="black" points="4812.18,-789.6 4808.68,-779.6 4805.18,-789.6 4812.18,-789.6"/>
</g>
<!-- 27 -->
<g id="node28" class="node">
<title>27</title>
<polygon fill="none" stroke="black" points="5388.68,-849.98 5101.09,-831.98 5388.68,-813.98 5676.27,-831.98 5388.68,-849.98"/>
<text text-anchor="middle" x="5388.68" y="-826.93" font-family="Times New Roman,serif" font-size="14.00">!(Variable[&quot;canal.canal_tires_red_check_boolean&quot;])</text>
</g>
<!-- 27&#45;&gt;33 -->
<g id="edge31" class="edge">
<title>27&#45;&gt;33</title>
<path fill="none" stroke="black" d="M5293.23,-819.46C5199.59,-808.16 5055.73,-790.8 4949.06,-777.93"/>
<polygon fill="black" stroke="black" points="4949.73,-774.48 4939.38,-776.76 4948.89,-781.43 4949.73,-774.48"/>
</g>
<!-- 28 -->
<g id="node29" class="node">
<title>28</title>
<ellipse fill="none" stroke="black" cx="2338.68" cy="-172.99" rx="498.67" ry="18"/>
<text text-anchor="middle" x="2338.68" y="-167.94" font-family="Times New Roman,serif" font-size="14.00">You: &quot;After quitting in frustration, he became a recluse, a ghost&#45;driver, searching for death on the streets of Revachol, speeding...&quot;</text>
</g>
<!-- 53 -->
<g id="node54" class="node">
<title>53</title>
<ellipse fill="none" stroke="black" cx="2930.68" cy="-90" rx="104.58" ry="18"/>
<text text-anchor="middle" x="2930.68" y="-84.95" font-family="Times New Roman,serif" font-size="14.00">Jump to: [trafficcasehub]</text>
</g>
<!-- 28&#45;&gt;53 -->
<g id="edge32" class="edge">
<title>28&#45;&gt;53</title>
<path fill="none" stroke="black" d="M2462.06,-155.11C2574.74,-139.7 2738.73,-117.26 2839.85,-103.43"/>
<polygon fill="black" stroke="black" points="2840.01,-106.94 2849.45,-102.11 2839.07,-100 2840.01,-106.94"/>
</g>
<!-- 41 -->
<g id="node42" class="node">
<title>41</title>
<ellipse fill="none" stroke="black" cx="4266.68" cy="-399.98" rx="222.81" ry="18"/>
<text text-anchor="middle" x="4266.68" y="-394.93" font-family="Times New Roman,serif" font-size="14.00">You: &quot;I have some ideas about who it might have been.&quot;</text>
</g>
<!-- 29&#45;&gt;41 -->
<g id="edge33" class="edge">
<title>29&#45;&gt;41</title>
<path fill="none" stroke="black" d="M4266.68,-453.68C4266.68,-446.39 4266.68,-437.71 4266.68,-429.52"/>
<polygon fill="black" stroke="black" points="4270.18,-429.6 4266.68,-419.6 4263.18,-429.6 4270.18,-429.6"/>
</g>
<!-- 30&#45;&gt;4 -->
<g id="edge34" class="edge">
<title>30&#45;&gt;4</title>
<path fill="none" stroke="black" d="M2347.38,-525.95C2385.76,-516 2434.4,-503.39 2474.58,-492.97"/>
<polygon fill="black" stroke="black" points="2475.41,-496.37 2484.21,-490.47 2473.66,-489.6 2475.41,-496.37"/>
</g>
<!-- 31 -->
<g id="node32" class="node">
<title>31</title>
<ellipse fill="none" stroke="black" cx="591.68" cy="-172.99" rx="104.58" ry="18"/>
<text text-anchor="middle" x="591.68" y="-167.94" font-family="Times New Roman,serif" font-size="14.00">Jump to: [trafficcasehub]</text>
</g>
<!-- 31&#45;&gt;6 -->
<g id="edge35" class="edge">
<title>31&#45;&gt;6</title>
<path fill="none" stroke="black" d="M691.75,-167.46C1005.2,-153.27 1996.05,-108.47 2816.68,-72 3119.28,-58.55 3464.6,-43.4 3707.95,-32.75"/>
<polygon fill="black" stroke="black" points="3707.75,-36.26 3717.58,-32.32 3707.44,-29.26 3707.75,-36.26"/>
</g>
<!-- 32&#45;&gt;5 -->
<g id="edge36" class="edge">
<title>32&#45;&gt;5</title>
<path fill="none" stroke="black" d="M2614.68,-813.68C2614.68,-806.39 2614.68,-797.71 2614.68,-789.52"/>
<polygon fill="black" stroke="black" points="2618.18,-789.6 2614.68,-779.6 2611.18,-789.6 2618.18,-789.6"/>
</g>
<!-- 33&#45;&gt;6 -->
<g id="edge37" class="edge">
<title>33&#45;&gt;6</title>
<path fill="none" stroke="black" d="M4776.96,-741.73C4739.34,-718.68 4681.68,-674.04 4681.68,-616.98 4681.68,-616.98 4681.68,-616.98 4681.68,-171.99 4681.68,-89.99 4485.63,-51.93 4307.39,-34.27"/>
<polygon fill="black" stroke="black" points="4307.75,-30.79 4297.46,-33.3 4307.07,-37.75 4307.75,-30.79"/>
</g>
<!-- 34 -->
<g id="node35" class="node">
<title>34</title>
<ellipse fill="none" stroke="black" cx="3227.68" cy="-831.98" rx="252.49" ry="18"/>
<text text-anchor="middle" x="3227.68" y="-826.93" font-family="Times New Roman,serif" font-size="14.00">Kim Kitsuragi: Variable[&quot;canal.canal_tires_red_check_boolean&quot;]</text>
</g>
<!-- 34&#45;&gt;34 -->
<g id="edge38" class="edge">
<title>34&#45;&gt;34</title>
<path fill="none" stroke="black" d="M3400.68,-845.48C3455.18,-845.27 3498.17,-840.77 3498.17,-831.98 3498.17,-823.81 3461.01,-819.35 3411.99,-818.6"/>
<polygon fill="black" stroke="black" points="3412.22,-815.1 3402.19,-818.5 3412.16,-822.1 3412.22,-815.1"/>
</g>
<!-- 35 -->
<g id="node36" class="node">
<title>35</title>
<polygon fill="none" stroke="black" points="3227.68,-777.98 2953.11,-759.98 3227.68,-741.98 3502.24,-759.98 3227.68,-777.98"/>
<text text-anchor="middle" x="3227.68" y="-754.93" font-family="Times New Roman,serif" font-size="14.00">Variable[&quot;canal.canal_tires_red_check_boolean&quot;]</text>
</g>
<!-- 34&#45;&gt;35 -->
<g id="edge39" class="edge">
<title>34&#45;&gt;35</title>
<path fill="none" stroke="black" d="M3227.68,-813.68C3227.68,-806.39 3227.68,-797.71 3227.68,-789.52"/>
<polygon fill="black" stroke="black" points="3231.18,-789.6 3227.68,-779.6 3224.18,-789.6 3231.18,-789.6"/>
</g>
<!-- 36 -->
<g id="node37" class="node">
<title>36</title>
<polygon fill="none" stroke="black" points="3572.68,-705.98 3285.09,-687.98 3572.68,-669.98 3860.27,-687.98 3572.68,-705.98"/>
<text text-anchor="middle" x="3572.68" y="-682.93" font-family="Times New Roman,serif" font-size="14.00">!(Variable[&quot;canal.canal_tires_red_check_boolean&quot;])</text>
</g>
<!-- 35&#45;&gt;36 -->
<g id="edge40" class="edge">
<title>35&#45;&gt;36</title>
<path fill="none" stroke="black" d="M3292.57,-745.82C3350.27,-734.11 3434.71,-716.98 3495.78,-704.58"/>
<polygon fill="black" stroke="black" points="3496.32,-708.05 3505.42,-702.63 3494.92,-701.19 3496.32,-708.05"/>
</g>
<!-- 50 -->
<g id="node51" class="node">
<title>50</title>
<ellipse fill="none" stroke="black" cx="4050.68" cy="-615.98" rx="398.36" ry="18"/>
<text text-anchor="middle" x="4050.68" y="-610.93" font-family="Times New Roman,serif" font-size="14.00">Kim Kitsuragi: &quot;Yes, yes, that could very well have been it. Now let&#39;s move on. We&#39;re not traffic cops.&quot;</text>
</g>
<!-- 36&#45;&gt;50 -->
<g id="edge41" class="edge">
<title>36&#45;&gt;50</title>
<path fill="none" stroke="black" d="M3656.21,-674.75C3730.61,-663.85 3840.52,-647.76 3925.44,-635.32"/>
<polygon fill="black" stroke="black" points="3925.84,-638.8 3935.23,-633.89 3924.82,-631.88 3925.84,-638.8"/>
</g>
<!-- 66 -->
<g id="node67" class="node">
<title>66</title>
<ellipse fill="none" stroke="black" cx="1728.68" cy="-399.98" rx="92.81" ry="18"/>
<text text-anchor="middle" x="1728.68" y="-394.93" font-family="Times New Roman,serif" font-size="14.00">Rhetoric: No, it&#39;s shit.</text>
</g>
<!-- 37&#45;&gt;66 -->
<g id="edge42" class="edge">
<title>37&#45;&gt;66</title>
<path fill="none" stroke="black" d="M1683.51,-453.68C1690.48,-445.54 1698.94,-435.67 1706.65,-426.68"/>
<polygon fill="black" stroke="black" points="1709.18,-429.11 1713.03,-419.24 1703.87,-424.55 1709.18,-429.11"/>
</g>
<!-- 38 -->
<g id="node39" class="node">
<title>38</title>
<ellipse fill="none" stroke="black" cx="4266.68" cy="-327.98" rx="219.74" ry="18"/>
<text text-anchor="middle" x="4266.68" y="-322.93" font-family="Times New Roman,serif" font-size="14.00">Kim Kitsuragi: &quot;What kind of car do you think it was?&quot;</text>
</g>
<!-- 56 -->
<g id="node57" class="node">
<title>56</title>
<ellipse fill="none" stroke="black" cx="4266.68" cy="-255.98" rx="240.72" ry="18"/>
<text text-anchor="middle" x="4266.68" y="-250.93" font-family="Times New Roman,serif" font-size="14.00">You: &quot;We should bring this driver to justice.&quot; (Take the task.)</text>
</g>
<!-- 38&#45;&gt;56 -->
<g id="edge43" class="edge">
<title>38&#45;&gt;56</title>
<path fill="none" stroke="black" d="M4266.68,-309.68C4266.68,-302.39 4266.68,-293.71 4266.68,-285.52"/>
<polygon fill="black" stroke="black" points="4270.18,-285.6 4266.68,-275.6 4263.18,-285.6 4270.18,-285.6"/>
</g>
<!-- 39 -->
<g id="node40" class="node">
<title>39</title>
<ellipse fill="none" stroke="black" cx="423.68" cy="-615.98" rx="183.91" ry="18"/>
<text text-anchor="middle" x="423.68" y="-610.93" font-family="Times New Roman,serif" font-size="14.00">Kim Kitsuragi: He raises his eyebrows. &quot;Oh?&quot;</text>
</g>
<!-- 39&#45;&gt;8 -->
<g id="edge44" class="edge">
<title>39&#45;&gt;8</title>
<path fill="none" stroke="black" d="M423.68,-597.68C423.68,-590.39 423.68,-581.71 423.68,-573.52"/>
<polygon fill="black" stroke="black" points="427.18,-573.6 423.68,-563.6 420.18,-573.6 427.18,-573.6"/>
</g>
<!-- 39&#45;&gt;11 -->
<g id="edge45" class="edge">
<title>39&#45;&gt;11</title>
<path fill="none" stroke="black" d="M557.19,-603.23C687.26,-591.77 886.15,-574.26 1031.89,-561.43"/>
<polygon fill="black" stroke="black" points="1032,-564.93 1041.66,-560.57 1031.39,-557.96 1032,-564.93"/>
</g>
<!-- 39&#45;&gt;31 -->
<g id="edge46" class="edge">
<title>39&#45;&gt;31</title>
<path fill="none" stroke="black" d="M245.34,-611.28C153.71,-605.6 54.51,-592.31 21.68,-561.98 -8.03,-534.54 2.68,-513.43 2.68,-472.98 2.68,-472.98 2.68,-472.98 2.68,-326.98 2.68,-229.08 311.39,-192.75 481.82,-180.15"/>
<polygon fill="black" stroke="black" points="481.86,-183.65 491.58,-179.44 481.36,-176.67 481.86,-183.65"/>
</g>
<!-- 40&#45;&gt;16 -->
<g id="edge47" class="edge">
<title>40&#45;&gt;16</title>
<path fill="none" stroke="black" d="M2418.36,-670.04C2411.78,-661.66 2403.71,-651.39 2396.43,-642.12"/>
<polygon fill="black" stroke="black" points="2399.36,-640.18 2390.43,-634.48 2393.85,-644.51 2399.36,-640.18"/>
</g>
<!-- 42 -->
<g id="node43" class="node">
<title>42</title>
<ellipse fill="none" stroke="black" cx="3214.68" cy="-615.98" rx="419.85" ry="18"/>
<text text-anchor="middle" x="3214.68" y="-610.93" font-family="Times New Roman,serif" font-size="14.00">Kim Kitsuragi: &quot;In conclusion &#45;&#45; it&#39;s a colourful theory, but I don&#39;t believe Jacob Irw did this. Should we go?&quot;</text>
</g>
<!-- 40&#45;&gt;42 -->
<g id="edge48" class="edge">
<title>40&#45;&gt;42</title>
<path fill="none" stroke="black" d="M2474.88,-675.16C2483.38,-673.17 2492.27,-671.32 2500.68,-669.98 2629.07,-649.55 2771.74,-636.96 2895.58,-629.23"/>
<polygon fill="black" stroke="black" points="2895.46,-632.74 2905.23,-628.63 2895.03,-625.75 2895.46,-632.74"/>
</g>
<!-- 41&#45;&gt;38 -->
<g id="edge49" class="edge">
<title>41&#45;&gt;38</title>
<path fill="none" stroke="black" d="M4266.68,-381.68C4266.68,-374.39 4266.68,-365.71 4266.68,-357.52"/>
<polygon fill="black" stroke="black" points="4270.18,-357.6 4266.68,-347.6 4263.18,-357.6 4270.18,-357.6"/>
</g>
<!-- 52 -->
<g id="node53" class="node">
<title>52</title>
<ellipse fill="none" stroke="black" cx="3997.68" cy="-543.98" rx="314.42" ry="18"/>
<text text-anchor="middle" x="3997.68" y="-538.93" font-family="Times New Roman,serif" font-size="14.00">You: &quot;No, we need to find this Jacob Irw before tragedy strikes.&quot; (Take the task.)</text>
</g>
<!-- 42&#45;&gt;52 -->
<g id="edge50" class="edge">
<title>42&#45;&gt;52</title>
<path fill="none" stroke="black" d="M3390.89,-599.23C3519.5,-587.73 3693.1,-572.21 3821.66,-560.72"/>
<polygon fill="black" stroke="black" points="3821.63,-564.24 3831.28,-559.86 3821.01,-557.26 3821.63,-564.24"/>
</g>
<!-- 43 -->
<g id="node44" class="node">
<title>43</title>
<ellipse fill="none" stroke="black" cx="3470.68" cy="-543.98" rx="141.43" ry="18"/>
<text text-anchor="middle" x="3470.68" y="-538.93" font-family="Times New Roman,serif" font-size="14.00">You: &quot;I think it was a Coupris 40.&quot;</text>
</g>
<!-- 43&#45;&gt;29 -->
<g id="edge51" class="edge">
<title>43&#45;&gt;29</title>
<path fill="none" stroke="black" d="M3584.3,-532.99C3739.52,-519.34 4015.52,-495.07 4164.51,-481.97"/>
<polygon fill="black" stroke="black" points="4164.73,-485.46 4174.38,-481.1 4164.12,-478.49 4164.73,-485.46"/>
</g>
<!-- 44 -->
<g id="node45" class="node">
<title>44</title>
<ellipse fill="none" stroke="black" cx="1695.68" cy="-327.98" rx="194.15" ry="18"/>
<text text-anchor="middle" x="1695.68" y="-322.93" font-family="Times New Roman,serif" font-size="14.00">You: &quot;It looks like someone was in a real hurry.&quot;</text>
</g>
<!-- 44&#45;&gt;37 -->
<g id="edge52" class="edge">
<title>44&#45;&gt;37</title>
<path fill="none" stroke="black" d="M1661.84,-346.02C1648.3,-354.77 1634.16,-366.81 1626.68,-381.98 1619.6,-396.33 1621.42,-402.87 1626.68,-417.98 1630.1,-427.81 1636.19,-437.19 1642.68,-445.25"/>
<polygon fill="black" stroke="black" points="1639.88,-447.35 1649.08,-452.6 1645.16,-442.76 1639.88,-447.35"/>
</g>
<!-- 45 -->
<g id="node46" class="node">
<title>45</title>
<ellipse fill="none" stroke="black" cx="4022.68" cy="-172.99" rx="604.75" ry="28.99"/>
<text text-anchor="middle" x="4022.68" y="-176.19" font-family="Times New Roman,serif" font-size="14.00">You: &quot;He was out drinking with his pals when he got the news, and, flushed with paternal pride, he got into his Coupris at once and raced to the clinic...&quot;</text>
<text text-anchor="middle" x="4022.68" y="-159.69" font-family="Times New Roman,serif" font-size="14.00">&quot;He was out drinking with his pals when he got the news, and, flushed with paternal pride, he got into his Linnea at once and raced to the clinic...&quot;</text>
</g>
<!-- 49 -->
<g id="node50" class="node">
<title>49</title>
<ellipse fill="none" stroke="black" cx="4022.68" cy="-90" rx="377.88" ry="18"/>
<text text-anchor="middle" x="4022.68" y="-84.95" font-family="Times New Roman,serif" font-size="14.00">Kim Kitsuragi: The lieutenant shrugs. &quot;We&#39;re not traffic cops. Should we get back to the murder?&quot;</text>
</g>
<!-- 45&#45;&gt;49 -->
<g id="edge53" class="edge">
<title>45&#45;&gt;49</title>
<path fill="none" stroke="black" d="M4022.68,-143.66C4022.68,-135.79 4022.68,-127.24 4022.68,-119.36"/>
<polygon fill="black" stroke="black" points="4026.18,-119.61 4022.68,-109.61 4019.18,-119.61 4026.18,-119.61"/>
</g>
<!-- 46 -->
<g id="node47" class="node">
<title>46</title>
<ellipse fill="none" stroke="black" cx="3422.68" cy="-1213.97" rx="158.32" ry="18"/>
<text text-anchor="middle" x="3422.68" y="-1208.92" font-family="Times New Roman,serif" font-size="14.00">Kim Kitsuragi: He sighs. &quot;If we must.&quot;</text>
</g>
<!-- 46&#45;&gt;9 -->
<g id="edge54" class="edge">
<title>46&#45;&gt;9</title>
<path fill="none" stroke="black" d="M3422.68,-1195.66C3422.68,-1188.37 3422.68,-1179.69 3422.68,-1171.5"/>
<polygon fill="black" stroke="black" points="3426.18,-1171.58 3422.68,-1161.58 3419.18,-1171.58 3426.18,-1171.58"/>
</g>
<!-- 64 -->
<g id="node65" class="node">
<title>64</title>
<ellipse fill="none" stroke="black" cx="2706.68" cy="-615.98" rx="69.78" ry="18"/>
<text text-anchor="middle" x="2706.68" y="-610.93" font-family="Times New Roman,serif" font-size="14.00">canalsignswitch</text>
</g>
<!-- 47&#45;&gt;64 -->
<g id="edge55" class="edge">
<title>47&#45;&gt;64</title>
<path fill="none" stroke="black" d="M2706.68,-669.68C2706.68,-662.39 2706.68,-653.71 2706.68,-645.52"/>
<polygon fill="black" stroke="black" points="2710.18,-645.6 2706.68,-635.6 2703.18,-645.6 2710.18,-645.6"/>
</g>
<!-- 48 -->
<g id="node49" class="node">
<title>48</title>
<ellipse fill="none" stroke="black" cx="5273.68" cy="-1296.96" rx="214.11" ry="18"/>
<text text-anchor="middle" x="5273.68" y="-1291.91" font-family="Times New Roman,serif" font-size="14.00">You: &quot;Yeah, I have no idea. Who could it have been?&quot;</text>
</g>
<!-- 48&#45;&gt;48 -->
<g id="edge56" class="edge">
<title>48&#45;&gt;48</title>
<path fill="none" stroke="black" d="M5395.78,-1312.15C5454.24,-1313.99 5505.78,-1308.93 5505.78,-1296.96 5505.78,-1285.75 5460.67,-1280.6 5406.98,-1281.5"/>
<polygon fill="black" stroke="black" points="5407.2,-1277.99 5397.29,-1281.73 5407.37,-1284.99 5407.2,-1277.99"/>
</g>
<!-- 49&#45;&gt;6 -->
<g id="edge57" class="edge">
<title>49&#45;&gt;6</title>
<path fill="none" stroke="black" d="M4022.68,-71.7C4022.68,-64.41 4022.68,-55.73 4022.68,-47.54"/>
<polygon fill="black" stroke="black" points="4026.18,-47.62 4022.68,-37.62 4019.18,-47.62 4026.18,-47.62"/>
</g>
<!-- 50&#45;&gt;52 -->
<g id="edge58" class="edge">
<title>50&#45;&gt;52</title>
<path fill="none" stroke="black" d="M4037.58,-597.68C4031.54,-589.71 4024.25,-580.08 4017.56,-571.25"/>
<polygon fill="black" stroke="black" points="4020.37,-569.15 4011.54,-563.29 4014.79,-573.38 4020.37,-569.15"/>
</g>
<!-- 51&#45;&gt;20 -->
<g id="edge60" class="edge">
<title>51&#45;&gt;20</title>
<path fill="none" stroke="black" d="M3746.68,-896.8C3746.68,-886.67 3746.68,-873.58 3746.68,-861.9"/>
<polygon fill="black" stroke="black" points="3750.18,-861.93 3746.68,-851.93 3743.18,-861.93 3750.18,-861.93"/>
</g>
<!-- 59 -->
<g id="node60" class="node">
<title>59</title>
<polygon fill="none" stroke="black" points="4255.68,-849.98 3994.87,-831.98 4255.68,-813.98 4516.49,-831.98 4255.68,-849.98"/>
<text text-anchor="middle" x="4255.68" y="-826.93" font-family="Times New Roman,serif" font-size="14.00">!(Variable[&quot;canal.samaran_vis_calc_vehicle&quot;])</text>
</g>
<!-- 51&#45;&gt;59 -->
<g id="edge59" class="edge">
<title>51&#45;&gt;59</title>
<path fill="none" stroke="black" d="M3849.38,-897.63C3942.85,-882.76 4079.39,-861.03 4167.89,-846.95"/>
<polygon fill="black" stroke="black" points="4168.42,-850.41 4177.75,-845.38 4167.32,-843.5 4168.42,-850.41"/>
</g>
<!-- 52&#45;&gt;45 -->
<g id="edge61" class="edge">
<title>52&#45;&gt;45</title>
<path fill="none" stroke="black" d="M3997.68,-525.49C3997.68,-498.69 3997.68,-445.85 3997.68,-400.98 3997.68,-400.98 3997.68,-400.98 3997.68,-326.98 3997.68,-287.96 4005.7,-244.07 4012.65,-213.34"/>
<polygon fill="black" stroke="black" points="4016.03,-214.25 4014.9,-203.72 4009.22,-212.66 4016.03,-214.25"/>
</g>
<!-- 53&#45;&gt;6 -->
<g id="edge62" class="edge">
<title>53&#45;&gt;6</title>
<path fill="none" stroke="black" d="M3027.11,-82.82C3193.47,-72.15 3539.32,-49.98 3776.22,-34.8"/>
<polygon fill="black" stroke="black" points="3776.15,-38.31 3785.91,-34.18 3775.7,-31.32 3776.15,-38.31"/>
</g>
<!-- 54 -->
<g id="node55" class="node">
<title>54</title>
<ellipse fill="none" stroke="black" cx="1563.68" cy="-255.98" rx="532.45" ry="18"/>
<text text-anchor="middle" x="1563.68" y="-250.93" font-family="Times New Roman,serif" font-size="14.00">Kim Kitsuragi: &quot;... jumping canals at night?&quot; He interrupts you. &quot;If I was Jacob Irw I wouldn&#39;t drive in *Martinaise*. The roads are awful.&quot;</text>
</g>
<!-- 54&#45;&gt;28 -->
<g id="edge63" class="edge">
<title>54&#45;&gt;28</title>
<path fill="none" stroke="black" d="M1722.85,-238.35C1852.97,-224.75 2036.49,-205.57 2169.3,-191.69"/>
<polygon fill="black" stroke="black" points="2169.29,-195.21 2178.87,-190.69 2168.56,-188.25 2169.29,-195.21"/>
</g>
<!-- 55&#45;&gt;27 -->
<g id="edge64" class="edge">
<title>55&#45;&gt;27</title>
<path fill="none" stroke="black" d="M5354.01,-896.8C5359.82,-886.1 5367.43,-872.1 5374.03,-859.94"/>
<polygon fill="black" stroke="black" points="5377.09,-861.64 5378.79,-851.19 5370.94,-858.3 5377.09,-861.64"/>
</g>
<!-- 56&#45;&gt;45 -->
<g id="edge65" class="edge">
<title>56&#45;&gt;45</title>
<path fill="none" stroke="black" d="M4215.53,-238C4187.28,-228.63 4151.28,-216.68 4118.05,-205.65"/>
<polygon fill="black" stroke="black" points="4119.4,-202.41 4108.81,-202.58 4117.2,-209.05 4119.4,-202.41"/>
</g>
<!-- 57 -->
<g id="node58" class="node">
<title>57</title>
<ellipse fill="none" stroke="black" cx="423.68" cy="-759.98" rx="233.56" ry="18"/>
<text text-anchor="middle" x="423.68" y="-754.93" font-family="Times New Roman,serif" font-size="14.00">Kim Kitsuragi: Variable[&quot;canal.samaran_vis_calc_vehicle&quot;]</text>
</g>
<!-- 57&#45;&gt;57 -->
<g id="edge66" class="edge">
<title>57&#45;&gt;57</title>
<path fill="none" stroke="black" d="M583.65,-773.48C634.77,-773.32 675.23,-768.82 675.23,-759.98 675.23,-751.81 640.7,-747.35 595.14,-746.6"/>
<polygon fill="black" stroke="black" points="595.2,-743.1 585.17,-746.5 595.13,-750.1 595.2,-743.1"/>
</g>
<!-- 58 -->
<g id="node59" class="node">
<title>58</title>
<polygon fill="none" stroke="black" points="423.68,-705.98 175.89,-687.98 423.68,-669.98 671.46,-687.98 423.68,-705.98"/>
<text text-anchor="middle" x="423.68" y="-682.93" font-family="Times New Roman,serif" font-size="14.00">Variable[&quot;canal.samaran_vis_calc_vehicle&quot;]</text>
</g>
<!-- 57&#45;&gt;58 -->
<g id="edge67" class="edge">
<title>57&#45;&gt;58</title>
<path fill="none" stroke="black" d="M423.68,-741.68C423.68,-734.39 423.68,-725.71 423.68,-717.52"/>
<polygon fill="black" stroke="black" points="427.18,-717.6 423.68,-707.6 420.18,-717.6 427.18,-717.6"/>
</g>
<!-- 58&#45;&gt;39 -->
<g id="edge68" class="edge">
<title>58&#45;&gt;39</title>
<path fill="none" stroke="black" d="M423.68,-669.68C423.68,-662.39 423.68,-653.71 423.68,-645.52"/>
<polygon fill="black" stroke="black" points="427.18,-645.6 423.68,-635.6 420.18,-645.6 427.18,-645.6"/>
</g>
<!-- 59&#45;&gt;17 -->
<g id="edge69" class="edge">
<title>59&#45;&gt;17</title>
<path fill="none" stroke="black" d="M4274.85,-814.97C4304.42,-790.27 4361.39,-742.68 4396.22,-713.59"/>
<polygon fill="black" stroke="black" points="4398.4,-716.33 4403.83,-707.23 4393.91,-710.96 4398.4,-716.33"/>
</g>
<!-- 61 -->
<g id="node62" class="node">
<title>61</title>
<ellipse fill="none" stroke="black" cx="635.68" cy="-399.98" rx="214.11" ry="18"/>
<text text-anchor="middle" x="635.68" y="-394.93" font-family="Times New Roman,serif" font-size="14.00">Conceptualization: Yes, this is good, this is very good.</text>
</g>
<!-- 60&#45;&gt;61 -->
<g id="edge70" class="edge">
<title>60&#45;&gt;61</title>
<path fill="none" stroke="black" d="M555.61,-453.86C569.08,-444.96 585.75,-433.96 600.38,-424.29"/>
<polygon fill="black" stroke="black" points="601.97,-427.44 608.38,-419.01 598.11,-421.6 601.97,-427.44"/>
</g>
<!-- 65 -->
<g id="node66" class="node">
<title>65</title>
<ellipse fill="none" stroke="black" cx="789.68" cy="-327.98" rx="687.02" ry="18"/>
<text text-anchor="middle" x="789.68" y="-322.93" font-family="Times New Roman,serif" font-size="14.00">You: &quot;After the untimely death of dear friend and fellow racer Alfie Deletraz at Fjordhammer, Jacob Irw was desperately chasing death on the race track &#45;&#45; but death *eluded* him.&quot;</text>
</g>
<!-- 61&#45;&gt;65 -->
<g id="edge71" class="edge">
<title>61&#45;&gt;65</title>
<path fill="none" stroke="black" d="M673.35,-381.86C693.71,-372.61 719.07,-361.08 740.92,-351.15"/>
<polygon fill="black" stroke="black" points="742.29,-354.37 749.95,-347.04 739.39,-347.99 742.29,-354.37"/>
</g>
<!-- 62 -->
<g id="node63" class="node">
<title>62</title>
<ellipse fill="none" stroke="black" cx="5720.68" cy="-1296.96" rx="196.7" ry="18"/>
<text text-anchor="middle" x="5720.68" y="-1291.91" font-family="Times New Roman,serif" font-size="14.00">Conceptualization: Nope, you&#39;re already telling it.</text>
</g>
<!-- 62&#45;&gt;62 -->
<g id="edge72" class="edge">
<title>62&#45;&gt;62</title>
<path fill="none" stroke="black" d="M5833.35,-1312.14C5887.54,-1314.01 5935.38,-1308.95 5935.38,-1296.96 5935.38,-1285.81 5894.03,-1280.65 5844.67,-1281.48"/>
<polygon fill="black" stroke="black" points="5844.77,-1277.98 5834.86,-1281.74 5844.95,-1284.98 5844.77,-1277.98"/>
</g>
<!-- 63&#45;&gt;13 -->
<g id="edge73" class="edge">
<title>63&#45;&gt;13</title>
<path fill="none" stroke="black" d="M3176.68,-453.68C3176.68,-446.39 3176.68,-437.71 3176.68,-429.52"/>
<polygon fill="black" stroke="black" points="3180.18,-429.6 3176.68,-419.6 3173.18,-429.6 3180.18,-429.6"/>
</g>
<!-- 64&#45;&gt;1 -->
<g id="edge75" class="edge">
<title>64&#45;&gt;1</title>
<path fill="none" stroke="black" d="M2757.1,-603.27C2766.56,-601.32 2776.39,-599.45 2785.68,-597.98 2941.01,-573.4 2985.56,-601.88 3137.68,-561.98 3139.54,-561.49 3141.44,-560.93 3143.33,-560.3"/>
<polygon fill="black" stroke="black" points="3144.47,-563.61 3152.59,-556.8 3141.99,-557.07 3144.47,-563.61"/>
</g>
<!-- 64&#45;&gt;2 -->
<g id="edge76" class="edge">
<title>64&#45;&gt;2</title>
<path fill="none" stroke="black" d="M2656.74,-602.99C2647.14,-601.04 2637.13,-599.25 2627.68,-597.98 2335.19,-558.82 2258.81,-585.88 1964.68,-561.98 1951.31,-560.9 1937.32,-559.61 1923.43,-558.23"/>
<polygon fill="black" stroke="black" points="1924.13,-554.78 1913.83,-557.26 1923.43,-561.74 1924.13,-554.78"/>
</g>
<!-- 64&#45;&gt;19 -->
<g id="edge74" class="edge">
<title>64&#45;&gt;19</title>
<path fill="none" stroke="black" d="M2741.22,-599.97C2763.53,-590.26 2792.93,-577.48 2817.77,-566.68"/>
<polygon fill="black" stroke="black" points="2818.93,-569.99 2826.71,-562.8 2816.14,-563.57 2818.93,-569.99"/>
</g>
<!-- 64&#45;&gt;43 -->
<g id="edge77" class="edge">
<title>64&#45;&gt;43</title>
<path fill="none" stroke="black" d="M2756.64,-603.17C2766.24,-601.2 2776.24,-599.36 2785.68,-597.98 2838.64,-590.27 3154.08,-567.32 3337.89,-554.29"/>
<polygon fill="black" stroke="black" points="3338.02,-557.79 3347.75,-553.59 3337.53,-550.81 3338.02,-557.79"/>
</g>
<!-- 65&#45;&gt;54 -->
<g id="edge78" class="edge">
<title>65&#45;&gt;54</title>
<path fill="none" stroke="black" d="M975.07,-310.22C1094.77,-299.39 1250.17,-285.34 1371.23,-274.39"/>
<polygon fill="black" stroke="black" points="1371.32,-277.89 1380.96,-273.51 1370.69,-270.92 1371.32,-277.89"/>
</g>
<!-- 66&#45;&gt;44 -->
<g id="edge79" class="edge">
<title>66&#45;&gt;44</title>
<path fill="none" stroke="black" d="M1720.52,-381.68C1716.92,-374.05 1712.61,-364.9 1708.59,-356.38"/>
<polygon fill="black" stroke="black" points="1711.82,-355.01 1704.39,-347.46 1705.48,-357.99 1711.82,-355.01"/>
</g>
<!-- 67 -->
<g id="node68" class="node">
<title>67</title>
<ellipse fill="none" stroke="black" cx="3422.68" cy="-1296.96" rx="286.27" ry="18"/>
<text text-anchor="middle" x="3422.68" y="-1291.91" font-family="Times New Roman,serif" font-size="14.00">You: &quot;This could have only been...&quot; (Pause dramatically.) &quot;... Jacob Irw.&quot;</text>
</g>
<!-- 67&#45;&gt;46 -->
<g id="edge80" class="edge">
<title>67&#45;&gt;46</title>
<path fill="none" stroke="black" d="M3422.68,-1278.78C3422.68,-1268.65 3422.68,-1255.56 3422.68,-1243.88"/>
<polygon fill="black" stroke="black" points="3426.18,-1243.91 3422.68,-1233.91 3419.18,-1243.91 3426.18,-1243.91"/>
</g>
</g>
</svg>
