<?xml version="1.0" encoding="UTF-8" standalone="no"?>
<!DOCTYPE svg PUBLIC "-//W3C//DTD SVG 1.1//EN"
 "http://www.w3.org/Graphics/SVG/1.1/DTD/svg11.dtd">
<!-- Generated by graphviz version 12.2.1 (20241206.2353)
 -->
<!-- Title: G Pages: 1 -->
<svg width="4529pt" height="1556pt"
 viewBox="0.00 0.00 4528.90 1556.00" xmlns="http://www.w3.org/2000/svg" xmlns:xlink="http://www.w3.org/1999/xlink">
<g id="graph0" class="graph" transform="scale(1 1) rotate(0) translate(4 1552)">
<title>G</title>
<polygon fill="white" stroke="none" points="-4,4 -4,-1552 4524.9,-1552 4524.9,4 -4,4"/>
<!-- 0 -->
<g id="node1" class="node">
<title>0</title>
<ellipse fill="none" stroke="black" cx="3235.95" cy="-1530" rx="39.07" ry="18"/>
<text text-anchor="middle" x="3235.95" y="-1524.95" font-family="Times New Roman,serif" font-size="14.00">START</text>
</g>
<!-- 0&#45;&gt;0 -->
<g id="edge1" class="edge">
<title>0&#45;&gt;0</title>
<path fill="none" stroke="black" d="M3264.13,-1542.94C3279.25,-1545.14 3293.01,-1540.83 3293.01,-1530 3293.01,-1521.96 3285.43,-1517.52 3275.34,-1516.65"/>
<polygon fill="black" stroke="black" points="3275.51,-1513.15 3265.65,-1517 3275.77,-1520.14 3275.51,-1513.15"/>
</g>
<!-- 1 -->
<g id="node2" class="node">
<title>1</title>
<ellipse fill="none" stroke="black" cx="3340.95" cy="-1530" rx="29.86" ry="18"/>
<text text-anchor="middle" x="3340.95" y="-1524.95" font-family="Times New Roman,serif" font-size="14.00">input</text>
</g>
<!-- 1&#45;&gt;1 -->
<g id="edge2" class="edge">
<title>1&#45;&gt;1</title>
<path fill="none" stroke="black" d="M3362.6,-1542.55C3376.03,-1545.57 3388.8,-1541.39 3388.8,-1530 3388.8,-1521.99 3382.48,-1517.55 3374.07,-1516.66"/>
<polygon fill="black" stroke="black" points="3373.85,-1513.17 3364.11,-1517.35 3374.33,-1520.15 3373.85,-1513.17"/>
</g>
<!-- 2 -->
<g id="node3" class="node">
<title>2</title>
<ellipse fill="none" stroke="black" cx="3602.95" cy="-1530" rx="196.19" ry="18"/>
<text text-anchor="middle" x="3602.95" y="-1524.95" font-family="Times New Roman,serif" font-size="14.00">You: &quot;You think this will make them cooperate?&quot;</text>
</g>
<!-- 34 -->
<g id="node35" class="node">
<title>34</title>
<ellipse fill="none" stroke="black" cx="3138.95" cy="-1458" rx="900.95" ry="18"/>
<text text-anchor="middle" x="3138.95" y="-1452.95" font-family="Times New Roman,serif" font-size="14.00">Kim Kitsuragi: &quot;Nothing will make them respect the RCM. But it will disrupt the game they prepared for us. We just stripped off one layer of whatever it is. Her decision to not corroborate their story was *definitely* not part of the plan.&quot;</text>
</g>
<!-- 2&#45;&gt;34 -->
<g id="edge3" class="edge">
<title>2&#45;&gt;34</title>
<path fill="none" stroke="black" d="M3503.97,-1514.07C3434.09,-1503.53 3339.87,-1489.31 3264.66,-1477.97"/>
<polygon fill="black" stroke="black" points="3265.62,-1474.57 3255.21,-1476.54 3264.57,-1481.49 3265.62,-1474.57"/>
</g>
<!-- 3 -->
<g id="node4" class="node">
<title>3</title>
<ellipse fill="none" stroke="black" cx="3113.95" cy="-522" rx="194.66" ry="18"/>
<text text-anchor="middle" x="3113.95" y="-516.95" font-family="Times New Roman,serif" font-size="14.00">Volition: Like hell you would have &#45;&#45; remember?</text>
</g>
<!-- 31 -->
<g id="node32" class="node">
<title>31</title>
<ellipse fill="none" stroke="black" cx="3300.95" cy="-450" rx="46.23" ry="18"/>
<text text-anchor="middle" x="3300.95" y="-444.95" font-family="Times New Roman,serif" font-size="14.00">fixthehub</text>
</g>
<!-- 3&#45;&gt;31 -->
<g id="edge4" class="edge">
<title>3&#45;&gt;31</title>
<path fill="none" stroke="black" d="M3159.21,-504.05C3189.25,-492.81 3228.43,-478.14 3257.98,-467.08"/>
<polygon fill="black" stroke="black" points="3258.84,-470.5 3266.98,-463.71 3256.39,-463.94 3258.84,-470.5"/>
</g>
<!-- 4 -->
<g id="node5" class="node">
<title>4</title>
<ellipse fill="none" stroke="black" cx="3300.95" cy="-378" rx="699.81" ry="18"/>
<text text-anchor="middle" x="3300.95" y="-372.95" font-family="Times New Roman,serif" font-size="14.00">Kim Kitsuragi: &quot;You think so?&quot; A shadow runs across his face. &quot;She seemed forthcoming... Unusually so. Being forthcoming about some things is a good way to obscure other things.&quot;</text>
</g>
<!-- 26 -->
<g id="node27" class="node">
<title>26</title>
<ellipse fill="none" stroke="black" cx="3300.95" cy="-306" rx="568.79" ry="18"/>
<text text-anchor="middle" x="3300.95" y="-300.95" font-family="Times New Roman,serif" font-size="14.00">Kim Kitsuragi: &quot;The best liars are always forthcoming... Anyway, we should move. I suspect our investigation will bring us back here soon enough.&quot;</text>
</g>
<!-- 4&#45;&gt;26 -->
<g id="edge5" class="edge">
<title>4&#45;&gt;26</title>
<path fill="none" stroke="black" d="M3300.95,-359.7C3300.95,-352.41 3300.95,-343.73 3300.95,-335.54"/>
<polygon fill="black" stroke="black" points="3304.45,-335.62 3300.95,-325.62 3297.45,-335.62 3304.45,-335.62"/>
</g>
<!-- 5 -->
<g id="node6" class="node">
<title>5</title>
<ellipse fill="none" stroke="black" cx="2267.95" cy="-522" rx="238.16" ry="18"/>
<text text-anchor="middle" x="2267.95" y="-516.95" font-family="Times New Roman,serif" font-size="14.00">You: &quot;I&#39;m not sure she *had* to lie. I wouldn&#39;t have known.&quot;</text>
</g>
<!-- 36 -->
<g id="node37" class="node">
<title>36</title>
<ellipse fill="none" stroke="black" cx="2911.95" cy="-738" rx="268.87" ry="18"/>
<text text-anchor="middle" x="2911.95" y="-732.95" font-family="Times New Roman,serif" font-size="14.00">Kim Kitsuragi: &quot;If not you, then me. It was a smart move from her.&quot;</text>
</g>
<!-- 5&#45;&gt;36 -->
<g id="edge6" class="edge">
<title>5&#45;&gt;36</title>
<path fill="none" stroke="black" d="M2275.98,-540.38C2286.38,-560.84 2306.46,-594.27 2333.95,-612 2438.21,-679.25 2572.85,-710.86 2685.94,-725.5"/>
<polygon fill="black" stroke="black" points="2685.3,-728.95 2695.66,-726.72 2686.17,-722 2685.3,-728.95"/>
</g>
<!-- 6 -->
<g id="node7" class="node">
<title>6</title>
<ellipse fill="none" stroke="black" cx="813.95" cy="-234" rx="813.95" ry="18"/>
<text text-anchor="middle" x="813.95" y="-228.95" font-family="Times New Roman,serif" font-size="14.00">Kim Kitsuragi: &quot;You think so?&quot; A shadow runs across his face. &quot;Being candid is the best way to lie. The appearance of candour, with some facts thrown in, draws attention away from whatever one chooses to omit.&quot;</text>
</g>
<!-- 38 -->
<g id="node39" class="node">
<title>38</title>
<ellipse fill="none" stroke="black" cx="813.95" cy="-162" rx="622.02" ry="18"/>
<text text-anchor="middle" x="813.95" y="-156.95" font-family="Times New Roman,serif" font-size="14.00">Kim Kitsuragi: &quot;She may be trying to control the pace of the investigation. Anyway, we should move. I suspect our inquiries will bring us back here soon enough.&quot;</text>
</g>
<!-- 6&#45;&gt;38 -->
<g id="edge7" class="edge">
<title>6&#45;&gt;38</title>
<path fill="none" stroke="black" d="M813.95,-215.7C813.95,-208.41 813.95,-199.73 813.95,-191.54"/>
<polygon fill="black" stroke="black" points="817.45,-191.62 813.95,-181.62 810.45,-191.62 817.45,-191.62"/>
</g>
<!-- 7 -->
<g id="node8" class="node">
<title>7</title>
<ellipse fill="none" stroke="black" cx="2059.95" cy="-234" rx="165.48" ry="18"/>
<text text-anchor="middle" x="2059.95" y="-228.95" font-family="Times New Roman,serif" font-size="14.00">You: &quot;Perhaps that&#39;s because you *are*?&quot;</text>
</g>
<!-- 33 -->
<g id="node34" class="node">
<title>33</title>
<ellipse fill="none" stroke="black" cx="2005.95" cy="-162" rx="497.65" ry="18"/>
<text text-anchor="middle" x="2005.95" y="-156.95" font-family="Times New Roman,serif" font-size="14.00">Kim Kitsuragi: &quot;I am not easily swayed by young women. But on the other hand... the best liars are candid. And she was candid.&quot;</text>
</g>
<!-- 7&#45;&gt;33 -->
<g id="edge8" class="edge">
<title>7&#45;&gt;33</title>
<path fill="none" stroke="black" d="M2046.6,-215.7C2040.38,-207.64 2032.86,-197.89 2025.99,-188.98"/>
<polygon fill="black" stroke="black" points="2028.94,-187.08 2020.06,-181.3 2023.4,-191.36 2028.94,-187.08"/>
</g>
<!-- 8 -->
<g id="node9" class="node">
<title>8</title>
<ellipse fill="none" stroke="black" cx="851.95" cy="-306" rx="701.86" ry="18"/>
<text text-anchor="middle" x="851.95" y="-300.95" font-family="Times New Roman,serif" font-size="14.00">Kim Kitsuragi: &quot;She seemed forthcoming to me... Unusually so. Being forthcoming with some things is a good way to obscure other things. But I wouldn&#39;t call myself compromised...&quot;</text>
</g>
<!-- 8&#45;&gt;6 -->
<g id="edge9" class="edge">
<title>8&#45;&gt;6</title>
<path fill="none" stroke="black" d="M842.55,-287.7C838.36,-279.98 833.33,-270.71 828.66,-262.11"/>
<polygon fill="black" stroke="black" points="831.8,-260.55 823.95,-253.43 825.65,-263.89 831.8,-260.55"/>
</g>
<!-- 22 -->
<g id="node23" class="node">
<title>22</title>
<ellipse fill="none" stroke="black" cx="1760.95" cy="-234" rx="115.33" ry="18"/>
<text text-anchor="middle" x="1760.95" y="-228.95" font-family="Times New Roman,serif" font-size="14.00">You: &quot;Well. I am, anyway.&quot;</text>
</g>
<!-- 8&#45;&gt;22 -->
<g id="edge10" class="edge">
<title>8&#45;&gt;22</title>
<path fill="none" stroke="black" d="M1156.17,-289.35C1301.84,-280.61 1478.64,-268.18 1636.95,-252 1646.95,-250.98 1657.38,-249.77 1667.77,-248.48"/>
<polygon fill="black" stroke="black" points="1668.02,-251.97 1677.5,-247.24 1667.14,-245.03 1668.02,-251.97"/>
</g>
<!-- 9 -->
<g id="node10" class="node">
<title>9</title>
<ellipse fill="none" stroke="black" cx="2005.95" cy="-18" rx="399.89" ry="18"/>
<text text-anchor="middle" x="2005.95" y="-12.95" font-family="Times New Roman,serif" font-size="14.00">Kim Kitsuragi: &quot;Anyway, we should move. I suspect our investigation will bring us back soon enough.&quot;</text>
</g>
<!-- 10 -->
<g id="node11" class="node">
<title>10</title>
<ellipse fill="none" stroke="black" cx="3544.95" cy="-1386" rx="131.71" ry="18"/>
<text text-anchor="middle" x="3544.95" y="-1380.95" font-family="Times New Roman,serif" font-size="14.00">You: &quot;Got it. Let&#39;s go.&quot; [Leave.]</text>
</g>
<!-- 11 -->
<g id="node12" class="node">
<title>11</title>
<ellipse fill="none" stroke="black" cx="3213.95" cy="-1242" rx="139.38" ry="18"/>
<text text-anchor="middle" x="3213.95" y="-1236.95" font-family="Times New Roman,serif" font-size="14.00">Drama: You would have caught it.</text>
</g>
<!-- 15 -->
<g id="node16" class="node">
<title>15</title>
<ellipse fill="none" stroke="black" cx="3215.95" cy="-1170" rx="232.02" ry="18"/>
<text text-anchor="middle" x="3215.95" y="-1164.95" font-family="Times New Roman,serif" font-size="14.00">Variable[&quot;whirling.klaasje_drama_would_have_caught_it&quot;]</text>
</g>
<!-- 11&#45;&gt;15 -->
<g id="edge11" class="edge">
<title>11&#45;&gt;15</title>
<path fill="none" stroke="black" d="M3214.44,-1223.7C3214.65,-1216.41 3214.9,-1207.73 3215.13,-1199.54"/>
<polygon fill="black" stroke="black" points="3218.63,-1199.71 3215.41,-1189.62 3211.63,-1199.51 3218.63,-1199.71"/>
</g>
<!-- 12 -->
<g id="node13" class="node">
<title>12</title>
<ellipse fill="none" stroke="black" cx="3193.95" cy="-810" rx="152.69" ry="18"/>
<text text-anchor="middle" x="3193.95" y="-804.95" font-family="Times New Roman,serif" font-size="14.00">You: (Nod.) &quot;I would have caught it.&quot;</text>
</g>
<!-- 12&#45;&gt;36 -->
<g id="edge12" class="edge">
<title>12&#45;&gt;36</title>
<path fill="none" stroke="black" d="M3130.31,-793.2C3088.97,-782.94 3034.8,-769.49 2990.75,-758.56"/>
<polygon fill="black" stroke="black" points="2991.8,-755.22 2981.25,-756.2 2990.11,-762.01 2991.8,-755.22"/>
</g>
<!-- 13 -->
<g id="node14" class="node">
<title>13</title>
<ellipse fill="none" stroke="black" cx="2318.95" cy="-378" rx="264.26" ry="18"/>
<text text-anchor="middle" x="2318.95" y="-372.95" font-family="Times New Roman,serif" font-size="14.00">Kim Kitsuragi: &quot;So you said to her.... What did you *mean* by it?&quot;</text>
</g>
<!-- 32 -->
<g id="node33" class="node">
<title>32</title>
<ellipse fill="none" stroke="black" cx="2059.95" cy="-306" rx="450.56" ry="18"/>
<text text-anchor="middle" x="2059.95" y="-300.95" font-family="Times New Roman,serif" font-size="14.00">You: (Whisper.) &quot;She has half my skillset compromised, singing her tune. My assessments of her are untrustworthy.&quot;</text>
</g>
<!-- 13&#45;&gt;32 -->
<g id="edge13" class="edge">
<title>13&#45;&gt;32</title>
<path fill="none" stroke="black" d="M2256.25,-360.05C2219.57,-350.14 2173.06,-337.57 2134.51,-327.15"/>
<polygon fill="black" stroke="black" points="2135.89,-323.9 2125.33,-324.67 2134.07,-330.66 2135.89,-323.9"/>
</g>
<!-- 14 -->
<g id="node15" class="node">
<title>14</title>
<ellipse fill="none" stroke="black" cx="1854.95" cy="-378" rx="181.86" ry="18"/>
<text text-anchor="middle" x="1854.95" y="-372.95" font-family="Times New Roman,serif" font-size="14.00">Kim Kitsuragi: &quot;What do you mean by that?&quot;</text>
</g>
<!-- 14&#45;&gt;32 -->
<g id="edge14" class="edge">
<title>14&#45;&gt;32</title>
<path fill="none" stroke="black" d="M1904.05,-360.23C1932.32,-350.58 1968.11,-338.36 1998.27,-328.06"/>
<polygon fill="black" stroke="black" points="1999.34,-331.39 2007.67,-324.85 1997.08,-324.77 1999.34,-331.39"/>
</g>
<!-- 16 -->
<g id="node17" class="node">
<title>16</title>
<polygon fill="none" stroke="black" points="3653.95,-1116 3325.82,-1098 3653.95,-1080 3982.07,-1098 3653.95,-1116"/>
<text text-anchor="middle" x="3653.95" y="-1092.95" font-family="Times New Roman,serif" font-size="14.00">Variable[&quot;whirling.klaasje_drama_would_have_caught_it&quot;]</text>
</g>
<!-- 15&#45;&gt;16 -->
<g id="edge15" class="edge">
<title>15&#45;&gt;16</title>
<path fill="none" stroke="black" d="M3314.51,-1153.25C3388.54,-1141.42 3489.2,-1125.33 3561.66,-1113.75"/>
<polygon fill="black" stroke="black" points="3561.77,-1117.28 3571.09,-1112.24 3560.67,-1110.36 3561.77,-1117.28"/>
</g>
<!-- 17 -->
<g id="node18" class="node">
<title>17</title>
<polygon fill="none" stroke="black" points="3215.95,-1044 2874.79,-1026 3215.95,-1008 3557.1,-1026 3215.95,-1044"/>
<text text-anchor="middle" x="3215.95" y="-1020.95" font-family="Times New Roman,serif" font-size="14.00">!(Variable[&quot;whirling.klaasje_drama_would_have_caught_it&quot;])</text>
</g>
<!-- 15&#45;&gt;17 -->
<g id="edge16" class="edge">
<title>15&#45;&gt;17</title>
<path fill="none" stroke="black" d="M3215.95,-1151.59C3215.95,-1127.61 3215.95,-1084.14 3215.95,-1055.42"/>
<polygon fill="black" stroke="black" points="3219.45,-1055.62 3215.95,-1045.62 3212.45,-1055.62 3219.45,-1055.62"/>
</g>
<!-- 18 -->
<g id="node19" class="node">
<title>18</title>
<ellipse fill="none" stroke="black" cx="3752.95" cy="-1026" rx="178.28" ry="18"/>
<text text-anchor="middle" x="3752.95" y="-1020.95" font-family="Times New Roman,serif" font-size="14.00">Variable[&quot;XP.detect_compromized_skillset&quot;]</text>
</g>
<!-- 16&#45;&gt;18 -->
<g id="edge17" class="edge">
<title>16&#45;&gt;18</title>
<path fill="none" stroke="black" d="M3676.91,-1080.76C3689.53,-1071.84 3705.42,-1060.6 3719.41,-1050.71"/>
<polygon fill="black" stroke="black" points="3721.35,-1053.63 3727.49,-1045 3717.31,-1047.91 3721.35,-1053.63"/>
</g>
<!-- 25 -->
<g id="node26" class="node">
<title>25</title>
<ellipse fill="none" stroke="black" cx="3374.95" cy="-882" rx="52.89" ry="18"/>
<text text-anchor="middle" x="3374.95" y="-876.95" font-family="Times New Roman,serif" font-size="14.00">nomesshub</text>
</g>
<!-- 17&#45;&gt;25 -->
<g id="edge18" class="edge">
<title>17&#45;&gt;25</title>
<path fill="none" stroke="black" d="M3219.29,-1007.79C3223.92,-988.11 3234.08,-956.05 3253.95,-936 3272.41,-917.36 3298.53,-904.8 3321.78,-896.6"/>
<polygon fill="black" stroke="black" points="3322.74,-899.97 3331.13,-893.51 3320.54,-893.33 3322.74,-899.97"/>
</g>
<!-- 19 -->
<g id="node20" class="node">
<title>19</title>
<polygon fill="none" stroke="black" points="4065.95,-972 3813.82,-954 4065.95,-936 4318.07,-954 4065.95,-972"/>
<text text-anchor="middle" x="4065.95" y="-948.95" font-family="Times New Roman,serif" font-size="14.00">Variable[&quot;XP.detect_compromized_skillset&quot;]</text>
</g>
<!-- 18&#45;&gt;19 -->
<g id="edge19" class="edge">
<title>18&#45;&gt;19</title>
<path fill="none" stroke="black" d="M3823.97,-1009.12C3875.39,-997.62 3944.57,-982.15 3995.79,-970.69"/>
<polygon fill="black" stroke="black" points="3996.28,-974.17 4005.28,-968.57 3994.76,-967.33 3996.28,-974.17"/>
</g>
<!-- 20 -->
<g id="node21" class="node">
<title>20</title>
<polygon fill="none" stroke="black" points="3527.95,-972 3262.79,-954 3527.95,-936 3793.1,-954 3527.95,-972"/>
<text text-anchor="middle" x="3527.95" y="-948.95" font-family="Times New Roman,serif" font-size="14.00">!(Variable[&quot;XP.detect_compromized_skillset&quot;])</text>
</g>
<!-- 18&#45;&gt;20 -->
<g id="edge20" class="edge">
<title>18&#45;&gt;20</title>
<path fill="none" stroke="black" d="M3699.62,-1008.41C3665,-997.64 3619.92,-983.61 3584.64,-972.64"/>
<polygon fill="black" stroke="black" points="3586.07,-969.42 3575.48,-969.79 3583.99,-976.1 3586.07,-969.42"/>
</g>
<!-- 19&#45;&gt;2 -->
<g id="edge21" class="edge">
<title>19&#45;&gt;2</title>
<path fill="none" stroke="black" d="M4066.34,-972.05C4066.92,-998.71 4067.95,-1051.88 4067.95,-1097 4067.95,-1387 4067.95,-1387 4067.95,-1387 4067.95,-1427.45 4078.83,-1448.75 4048.95,-1476 4028.24,-1494.88 3890.18,-1509.27 3773.08,-1518.26"/>
<polygon fill="black" stroke="black" points="3773.03,-1514.75 3763.33,-1518.99 3773.56,-1521.73 3773.03,-1514.75"/>
</g>
<!-- 20&#45;&gt;25 -->
<g id="edge22" class="edge">
<title>20&#45;&gt;25</title>
<path fill="none" stroke="black" d="M3494.75,-937.81C3471.6,-927.22 3440.57,-913.02 3415.88,-901.73"/>
<polygon fill="black" stroke="black" points="3417.66,-898.69 3407.11,-897.72 3414.75,-905.06 3417.66,-898.69"/>
</g>
<!-- 21 -->
<g id="node22" class="node">
<title>21</title>
<ellipse fill="none" stroke="black" cx="3108.95" cy="-594" rx="123" ry="18"/>
<text text-anchor="middle" x="3108.95" y="-588.95" font-family="Times New Roman,serif" font-size="14.00">You: &quot;Something is off here.&quot;</text>
</g>
<!-- 21&#45;&gt;3 -->
<g id="edge23" class="edge">
<title>21&#45;&gt;3</title>
<path fill="none" stroke="black" d="M3110.18,-575.7C3110.7,-568.41 3111.32,-559.73 3111.91,-551.54"/>
<polygon fill="black" stroke="black" points="3115.39,-551.84 3112.62,-541.61 3108.41,-551.34 3115.39,-551.84"/>
</g>
<!-- 22&#45;&gt;33 -->
<g id="edge24" class="edge">
<title>22&#45;&gt;33</title>
<path fill="none" stroke="black" d="M1814.71,-217.64C1849.84,-207.6 1896.12,-194.38 1934.35,-183.46"/>
<polygon fill="black" stroke="black" points="1935.31,-186.82 1943.96,-180.71 1933.38,-180.09 1935.31,-186.82"/>
</g>
<!-- 23 -->
<g id="node24" class="node">
<title>23</title>
<ellipse fill="none" stroke="black" cx="2451.95" cy="-594" rx="108.67" ry="18"/>
<text text-anchor="middle" x="2451.95" y="-588.95" font-family="Times New Roman,serif" font-size="14.00">You: &quot;She seems candid.&quot;</text>
</g>
<!-- 23&#45;&gt;5 -->
<g id="edge25" class="edge">
<title>23&#45;&gt;5</title>
<path fill="none" stroke="black" d="M2409.73,-576.94C2384.16,-567.21 2351.25,-554.69 2323.57,-544.16"/>
<polygon fill="black" stroke="black" points="2324.86,-540.91 2314.27,-540.62 2322.37,-547.45 2324.86,-540.91"/>
</g>
<!-- 24 -->
<g id="node25" class="node">
<title>24</title>
<ellipse fill="none" stroke="black" cx="3163.95" cy="-1314" rx="419.85" ry="18"/>
<text text-anchor="middle" x="3163.95" y="-1308.95" font-family="Times New Roman,serif" font-size="14.00">Kim Kitsuragi: &quot;What else could she have done? Lie? She saw there was no way to lie and get away with it.&quot;</text>
</g>
<!-- 24&#45;&gt;11 -->
<g id="edge26" class="edge">
<title>24&#45;&gt;11</title>
<path fill="none" stroke="black" d="M3176.31,-1295.7C3182,-1287.73 3188.87,-1278.1 3195.19,-1269.26"/>
<polygon fill="black" stroke="black" points="3197.88,-1271.51 3200.85,-1261.34 3192.19,-1267.44 3197.88,-1271.51"/>
</g>
<!-- 25&#45;&gt;4 -->
<g id="edge28" class="edge">
<title>25&#45;&gt;4</title>
<path fill="none" stroke="black" d="M3374.95,-863.51C3374.95,-836.71 3374.95,-783.87 3374.95,-739 3374.95,-739 3374.95,-739 3374.95,-521 3374.95,-480.55 3375.59,-467.36 3355.95,-432 3350.2,-421.65 3341.77,-412.08 3333.24,-404"/>
<polygon fill="black" stroke="black" points="3335.68,-401.49 3325.89,-397.45 3331.02,-406.71 3335.68,-401.49"/>
</g>
<!-- 25&#45;&gt;12 -->
<g id="edge27" class="edge">
<title>25&#45;&gt;12</title>
<path fill="none" stroke="black" d="M3340.9,-867.83C3314.61,-857.67 3277.74,-843.41 3247.5,-831.71"/>
<polygon fill="black" stroke="black" points="3249.12,-828.58 3238.53,-828.24 3246.59,-835.11 3249.12,-828.58"/>
</g>
<!-- 39 -->
<g id="node40" class="node">
<title>39</title>
<ellipse fill="none" stroke="black" cx="4269.95" cy="-378" rx="250.96" ry="18"/>
<text text-anchor="middle" x="4269.95" y="-372.95" font-family="Times New Roman,serif" font-size="14.00">You: &quot;I have reason to doubt my ability to see through her lies.&quot;</text>
</g>
<!-- 25&#45;&gt;39 -->
<g id="edge29" class="edge">
<title>25&#45;&gt;39</title>
<path fill="none" stroke="black" d="M3425.93,-876.96C3550.45,-865.71 3859.95,-828.71 3859.95,-739 3859.95,-739 3859.95,-739 3859.95,-521 3859.95,-458.95 4029.72,-417.96 4150.77,-396.62"/>
<polygon fill="black" stroke="black" points="4151.21,-400.09 4160.46,-394.94 4150.01,-393.2 4151.21,-400.09"/>
</g>
<!-- 27 -->
<g id="node28" class="node">
<title>27</title>
<ellipse fill="none" stroke="black" cx="2841.95" cy="-666" rx="59.03" ry="18"/>
<text text-anchor="middle" x="2841.95" y="-660.95" font-family="Times New Roman,serif" font-size="14.00">lies_and_lies</text>
</g>
<!-- 27&#45;&gt;21 -->
<g id="edge31" class="edge">
<title>27&#45;&gt;21</title>
<path fill="none" stroke="black" d="M2885.74,-653.52C2927.46,-642.58 2990.95,-625.94 3039.56,-613.19"/>
<polygon fill="black" stroke="black" points="3040.38,-616.59 3049.17,-610.67 3038.6,-609.82 3040.38,-616.59"/>
</g>
<!-- 27&#45;&gt;23 -->
<g id="edge32" class="edge">
<title>27&#45;&gt;23</title>
<path fill="none" stroke="black" d="M2792.16,-656.06C2727.27,-644.42 2612.91,-623.89 2534.84,-609.88"/>
<polygon fill="black" stroke="black" points="2535.55,-606.45 2525.09,-608.13 2534.31,-613.34 2535.55,-606.45"/>
</g>
<!-- 37 -->
<g id="node38" class="node">
<title>37</title>
<ellipse fill="none" stroke="black" cx="2777.95" cy="-594" rx="179.82" ry="18"/>
<text text-anchor="middle" x="2777.95" y="-588.95" font-family="Times New Roman,serif" font-size="14.00">You: (Whisper) &quot;I know she&#39;s manipulative.&quot;</text>
</g>
<!-- 27&#45;&gt;37 -->
<g id="edge30" class="edge">
<title>27&#45;&gt;37</title>
<path fill="none" stroke="black" d="M2826.78,-648.41C2819.08,-639.99 2809.57,-629.58 2800.99,-620.2"/>
<polygon fill="black" stroke="black" points="2803.8,-618.09 2794.47,-613.07 2798.63,-622.82 2803.8,-618.09"/>
</g>
<!-- 28 -->
<g id="node29" class="node">
<title>28</title>
<ellipse fill="none" stroke="black" cx="2712.95" cy="-522" rx="188.52" ry="18"/>
<text text-anchor="middle" x="2712.95" y="-516.95" font-family="Times New Roman,serif" font-size="14.00">Variable[&quot;whirling.klaasje_said_manipulation&quot;]</text>
</g>
<!-- 29 -->
<g id="node30" class="node">
<title>29</title>
<polygon fill="none" stroke="black" points="2638.95,-468 2372.34,-450 2638.95,-432 2905.55,-450 2638.95,-468"/>
<text text-anchor="middle" x="2638.95" y="-444.95" font-family="Times New Roman,serif" font-size="14.00">Variable[&quot;whirling.klaasje_said_manipulation&quot;]</text>
</g>
<!-- 28&#45;&gt;29 -->
<g id="edge33" class="edge">
<title>28&#45;&gt;29</title>
<path fill="none" stroke="black" d="M2694.65,-503.7C2685.52,-495.05 2674.32,-484.46 2664.36,-475.04"/>
<polygon fill="black" stroke="black" points="2666.78,-472.51 2657.11,-468.18 2661.97,-477.6 2666.78,-472.51"/>
</g>
<!-- 30 -->
<g id="node31" class="node">
<title>30</title>
<polygon fill="none" stroke="black" points="2001.95,-468 1722.32,-450 2001.95,-432 2281.58,-450 2001.95,-468"/>
<text text-anchor="middle" x="2001.95" y="-444.95" font-family="Times New Roman,serif" font-size="14.00">!(Variable[&quot;whirling.klaasje_said_manipulation&quot;])</text>
</g>
<!-- 28&#45;&gt;30 -->
<g id="edge34" class="edge">
<title>28&#45;&gt;30</title>
<path fill="none" stroke="black" d="M2585.01,-508.4C2453.16,-495.42 2249.25,-475.35 2120.82,-462.7"/>
<polygon fill="black" stroke="black" points="2121.2,-459.22 2110.9,-461.73 2120.51,-466.19 2121.2,-459.22"/>
</g>
<!-- 29&#45;&gt;13 -->
<g id="edge35" class="edge">
<title>29&#45;&gt;13</title>
<path fill="none" stroke="black" d="M2578,-435.67C2529.4,-425.04 2460.69,-410.01 2406.24,-398.1"/>
<polygon fill="black" stroke="black" points="2407.2,-394.72 2396.68,-396 2405.7,-401.56 2407.2,-394.72"/>
</g>
<!-- 30&#45;&gt;14 -->
<g id="edge36" class="edge">
<title>30&#45;&gt;14</title>
<path fill="none" stroke="black" d="M1969.69,-433.64C1949.55,-424.05 1923.31,-411.55 1901,-400.93"/>
<polygon fill="black" stroke="black" points="1902.64,-397.83 1892.1,-396.69 1899.63,-404.15 1902.64,-397.83"/>
</g>
<!-- 31&#45;&gt;4 -->
<g id="edge38" class="edge">
<title>31&#45;&gt;4</title>
<path fill="none" stroke="black" d="M3300.95,-431.7C3300.95,-424.41 3300.95,-415.73 3300.95,-407.54"/>
<polygon fill="black" stroke="black" points="3304.45,-407.62 3300.95,-397.62 3297.45,-407.62 3304.45,-407.62"/>
</g>
<!-- 31&#45;&gt;12 -->
<g id="edge37" class="edge">
<title>31&#45;&gt;12</title>
<path fill="none" stroke="black" d="M3308.23,-468.13C3318.75,-494.47 3336.95,-546.71 3336.95,-593 3336.95,-667 3336.95,-667 3336.95,-667 3336.95,-722.27 3282.49,-763.4 3240.79,-786.8"/>
<polygon fill="black" stroke="black" points="3239.23,-783.66 3232.1,-791.5 3242.56,-789.82 3239.23,-783.66"/>
</g>
<!-- 31&#45;&gt;39 -->
<g id="edge39" class="edge">
<title>31&#45;&gt;39</title>
<path fill="none" stroke="black" d="M3341.32,-440.94C3358.95,-437.69 3379.91,-434.21 3398.95,-432 3669.17,-400.7 3738.44,-412.87 4009.95,-396 4032.26,-394.61 4055.64,-393.13 4078.85,-391.64"/>
<polygon fill="black" stroke="black" points="4078.96,-395.14 4088.72,-391 4078.51,-388.15 4078.96,-395.14"/>
</g>
<!-- 32&#45;&gt;7 -->
<g id="edge40" class="edge">
<title>32&#45;&gt;7</title>
<path fill="none" stroke="black" d="M2059.95,-287.7C2059.95,-280.41 2059.95,-271.73 2059.95,-263.54"/>
<polygon fill="black" stroke="black" points="2063.45,-263.62 2059.95,-253.62 2056.45,-263.62 2063.45,-263.62"/>
</g>
<!-- 40 -->
<g id="node41" class="node">
<title>40</title>
<ellipse fill="none" stroke="black" cx="2005.95" cy="-90" rx="409.11" ry="18"/>
<text text-anchor="middle" x="2005.95" y="-84.95" font-family="Times New Roman,serif" font-size="14.00">Volition: The lieutenant seems oddly sure he is not compromised, not psychologically at least. Is it hubris?</text>
</g>
<!-- 33&#45;&gt;40 -->
<g id="edge41" class="edge">
<title>33&#45;&gt;40</title>
<path fill="none" stroke="black" d="M2005.95,-143.7C2005.95,-136.41 2005.95,-127.73 2005.95,-119.54"/>
<polygon fill="black" stroke="black" points="2009.45,-119.62 2005.95,-109.62 2002.45,-119.62 2009.45,-119.62"/>
</g>
<!-- 34&#45;&gt;10 -->
<g id="edge42" class="edge">
<title>34&#45;&gt;10</title>
<path fill="none" stroke="black" d="M3239.57,-1439.65C3305.25,-1428.33 3390.31,-1413.66 3453.97,-1402.69"/>
<polygon fill="black" stroke="black" points="3454.44,-1406.16 3463.7,-1401.01 3453.25,-1399.26 3454.44,-1406.16"/>
</g>
<!-- 35 -->
<g id="node36" class="node">
<title>35</title>
<ellipse fill="none" stroke="black" cx="3138.95" cy="-1386" rx="256.59" ry="18"/>
<text text-anchor="middle" x="3138.95" y="-1380.95" font-family="Times New Roman,serif" font-size="14.00">You: (Say in a hushed voice.) &quot;Why *did* she tell us all of that?&quot;</text>
</g>
<!-- 34&#45;&gt;35 -->
<g id="edge43" class="edge">
<title>34&#45;&gt;35</title>
<path fill="none" stroke="black" d="M3138.95,-1439.7C3138.95,-1432.41 3138.95,-1423.73 3138.95,-1415.54"/>
<polygon fill="black" stroke="black" points="3142.45,-1415.62 3138.95,-1405.62 3135.45,-1415.62 3142.45,-1415.62"/>
</g>
<!-- 35&#45;&gt;24 -->
<g id="edge44" class="edge">
<title>35&#45;&gt;24</title>
<path fill="none" stroke="black" d="M3145.13,-1367.7C3147.82,-1360.15 3151.05,-1351.12 3154.06,-1342.68"/>
<polygon fill="black" stroke="black" points="3157.26,-1344.12 3157.33,-1333.53 3150.67,-1341.77 3157.26,-1344.12"/>
</g>
<!-- 36&#45;&gt;27 -->
<g id="edge45" class="edge">
<title>36&#45;&gt;27</title>
<path fill="none" stroke="black" d="M2894.64,-719.7C2886.21,-711.27 2875.92,-700.97 2866.68,-691.73"/>
<polygon fill="black" stroke="black" points="2869.18,-689.29 2859.64,-684.69 2864.23,-694.24 2869.18,-689.29"/>
</g>
<!-- 37&#45;&gt;28 -->
<g id="edge46" class="edge">
<title>37&#45;&gt;28</title>
<path fill="none" stroke="black" d="M2761.88,-575.7C2754.24,-567.47 2744.97,-557.48 2736.55,-548.42"/>
<polygon fill="black" stroke="black" points="2739.23,-546.16 2729.86,-541.21 2734.1,-550.92 2739.23,-546.16"/>
</g>
<!-- 39&#45;&gt;36 -->
<g id="edge47" class="edge">
<title>39&#45;&gt;36</title>
<path fill="none" stroke="black" d="M4106.61,-392.05C4027.31,-400.25 3931.01,-412.98 3845.95,-432 3502.4,-508.82 3105.77,-660 2964.9,-715.72"/>
<polygon fill="black" stroke="black" points="2963.83,-712.38 2955.83,-719.32 2966.41,-718.89 2963.83,-712.38"/>
</g>
<!-- 40&#45;&gt;9 -->
<g id="edge48" class="edge">
<title>40&#45;&gt;9</title>
<path fill="none" stroke="black" d="M2005.95,-71.7C2005.95,-64.41 2005.95,-55.73 2005.95,-47.54"/>
<polygon fill="black" stroke="black" points="2009.45,-47.62 2005.95,-37.62 2002.45,-47.62 2009.45,-47.62"/>
</g>
</g>
</svg>
