<?xml version="1.0" encoding="UTF-8" standalone="no"?>
<!DOCTYPE svg PUBLIC "-//W3C//DTD SVG 1.1//EN"
 "http://www.w3.org/Graphics/SVG/1.1/DTD/svg11.dtd">
<!-- Generated by graphviz version 12.2.1 (20241206.2353)
 -->
<!-- Title: G Pages: 1 -->
<svg width="5146pt" height="1052pt"
 viewBox="0.00 0.00 5145.55 1052.00" xmlns="http://www.w3.org/2000/svg" xmlns:xlink="http://www.w3.org/1999/xlink">
<g id="graph0" class="graph" transform="scale(1 1) rotate(0) translate(4 1048)">
<title>G</title>
<polygon fill="white" stroke="none" points="-4,4 -4,-1048 5141.55,-1048 5141.55,4 -4,4"/>
<!-- 0 -->
<g id="node1" class="node">
<title>0</title>
<ellipse fill="none" stroke="black" cx="2025" cy="-1026" rx="39.07" ry="18"/>
<text text-anchor="middle" x="2025" y="-1020.95" font-family="Times New Roman,serif" font-size="14.00">START</text>
</g>
<!-- 0&#45;&gt;0 -->
<g id="edge1" class="edge">
<title>0&#45;&gt;0</title>
<path fill="none" stroke="black" d="M2053.19,-1038.94C2068.3,-1041.14 2082.07,-1036.83 2082.07,-1026 2082.07,-1017.96 2074.49,-1013.52 2064.4,-1012.65"/>
<polygon fill="black" stroke="black" points="2064.57,-1009.15 2054.7,-1013 2064.82,-1016.14 2064.57,-1009.15"/>
</g>
<!-- 1 -->
<g id="node2" class="node">
<title>1</title>
<ellipse fill="none" stroke="black" cx="1179" cy="-882" rx="29.86" ry="18"/>
<text text-anchor="middle" x="1179" y="-876.95" font-family="Times New Roman,serif" font-size="14.00">input</text>
</g>
<!-- 47 -->
<g id="node48" class="node">
<title>47</title>
<ellipse fill="none" stroke="black" cx="1179" cy="-810" rx="69.26" ry="18"/>
<text text-anchor="middle" x="1179" y="-804.95" font-family="Times New Roman,serif" font-size="14.00">endofdayswitch</text>
</g>
<!-- 1&#45;&gt;47 -->
<g id="edge2" class="edge">
<title>1&#45;&gt;47</title>
<path fill="none" stroke="black" d="M1173.13,-864.05C1172.34,-856.68 1172.09,-847.84 1172.36,-839.51"/>
<polygon fill="black" stroke="black" points="1175.83,-839.99 1172.99,-829.79 1168.85,-839.54 1175.83,-839.99"/>
</g>
<!-- 2 -->
<g id="node3" class="node">
<title>2</title>
<ellipse fill="none" stroke="black" cx="3104" cy="-1026" rx="237.65" ry="18"/>
<text text-anchor="middle" x="3104" y="-1020.95" font-family="Times New Roman,serif" font-size="14.00">You: &quot;I haven&#39;t paid the cafeteria manager for damages yet.&quot;</text>
</g>
<!-- 53 -->
<g id="node54" class="node">
<title>53</title>
<ellipse fill="none" stroke="black" cx="3104" cy="-954" rx="206.43" ry="18"/>
<text text-anchor="middle" x="3104" y="-948.95" font-family="Times New Roman,serif" font-size="14.00">Kim Kitsuragi: &quot;You should take care of that, then.&quot;</text>
</g>
<!-- 2&#45;&gt;53 -->
<g id="edge3" class="edge">
<title>2&#45;&gt;53</title>
<path fill="none" stroke="black" d="M3098.09,-1007.7C3097.34,-1000.41 3097.09,-991.73 3097.36,-983.54"/>
<polygon fill="black" stroke="black" points="3100.85,-983.82 3098.01,-973.61 3093.86,-983.36 3100.85,-983.82"/>
</g>
<!-- 3 -->
<g id="node4" class="node">
<title>3</title>
<ellipse fill="none" stroke="black" cx="2242" cy="-1026" rx="141.94" ry="18"/>
<text text-anchor="middle" x="2242" y="-1020.95" font-family="Times New Roman,serif" font-size="14.00">Variable[&quot;character.pay_garte_30&quot;]</text>
</g>
<!-- 3&#45;&gt;3 -->
<g id="edge4" class="edge">
<title>3&#45;&gt;3</title>
<path fill="none" stroke="black" d="M2339.22,-1039.49C2373.81,-1039.74 2401.94,-1035.25 2401.94,-1026 2401.94,-1017.8 2379.82,-1013.34 2350.69,-1012.61"/>
<polygon fill="black" stroke="black" points="2350.76,-1009.11 2340.73,-1012.52 2350.7,-1016.11 2350.76,-1009.11"/>
</g>
<!-- 4 -->
<g id="node5" class="node">
<title>4</title>
<polygon fill="none" stroke="black" points="2242,-972 2041.27,-954 2242,-936 2442.74,-954 2242,-972"/>
<text text-anchor="middle" x="2242" y="-948.95" font-family="Times New Roman,serif" font-size="14.00">Variable[&quot;character.pay_garte_30&quot;]</text>
</g>
<!-- 3&#45;&gt;4 -->
<g id="edge5" class="edge">
<title>3&#45;&gt;4</title>
<path fill="none" stroke="black" d="M2242,-1007.7C2242,-1000.41 2242,-991.73 2242,-983.54"/>
<polygon fill="black" stroke="black" points="2245.5,-983.62 2242,-973.62 2238.5,-983.62 2245.5,-983.62"/>
</g>
<!-- 44 -->
<g id="node45" class="node">
<title>44</title>
<ellipse fill="none" stroke="black" cx="2242" cy="-882" rx="106.63" ry="18"/>
<text text-anchor="middle" x="2242" y="-876.95" font-family="Times New Roman,serif" font-size="14.00">MoneyAmount() &gt;=3000</text>
</g>
<!-- 4&#45;&gt;44 -->
<g id="edge6" class="edge">
<title>4&#45;&gt;44</title>
<path fill="none" stroke="black" d="M2242,-935.7C2242,-928.41 2242,-919.73 2242,-911.54"/>
<polygon fill="black" stroke="black" points="2245.5,-911.62 2242,-901.62 2238.5,-911.62 2245.5,-911.62"/>
</g>
<!-- 5 -->
<g id="node6" class="node">
<title>5</title>
<polygon fill="none" stroke="black" points="2913,-684 2699.24,-666 2913,-648 3126.77,-666 2913,-684"/>
<text text-anchor="middle" x="2913" y="-660.95" font-family="Times New Roman,serif" font-size="14.00">!(Variable[&quot;character.pay_garte_30&quot;])</text>
</g>
<!-- 48 -->
<g id="node49" class="node">
<title>48</title>
<ellipse fill="none" stroke="black" cx="2886" cy="-594" rx="141.94" ry="18"/>
<text text-anchor="middle" x="2886" y="-588.95" font-family="Times New Roman,serif" font-size="14.00">Variable[&quot;character.pay_garte_60&quot;]</text>
</g>
<!-- 5&#45;&gt;48 -->
<g id="edge7" class="edge">
<title>5&#45;&gt;48</title>
<path fill="none" stroke="black" d="M2906.47,-648.05C2903.56,-640.52 2900.06,-631.44 2896.78,-622.94"/>
<polygon fill="black" stroke="black" points="2900.08,-621.76 2893.21,-613.69 2893.54,-624.28 2900.08,-621.76"/>
</g>
<!-- 6 -->
<g id="node7" class="node">
<title>6</title>
<ellipse fill="none" stroke="black" cx="926" cy="-738" rx="477.18" ry="18"/>
<text text-anchor="middle" x="926" y="-732.95" font-family="Times New Roman,serif" font-size="14.00">Empathy: Though he finds this situation frustrating, he is doing his best to not make you feel any worse than you already do.</text>
</g>
<!-- 7 -->
<g id="node8" class="node">
<title>7</title>
<ellipse fill="none" stroke="black" cx="2886" cy="-450" rx="228.95" ry="18"/>
<text text-anchor="middle" x="2886" y="-444.95" font-family="Times New Roman,serif" font-size="14.00">You: &quot;Then I should check in with the cafeteria manager.&quot;</text>
</g>
<!-- 39 -->
<g id="node40" class="node">
<title>39</title>
<ellipse fill="none" stroke="black" cx="2886" cy="-378" rx="275.52" ry="18"/>
<text text-anchor="middle" x="2886" y="-372.95" font-family="Times New Roman,serif" font-size="14.00">Kim Kitsuragi: &quot;Do that. I&#39;ll be waiting for you downstairs tomorrow.&quot;</text>
</g>
<!-- 7&#45;&gt;39 -->
<g id="edge8" class="edge">
<title>7&#45;&gt;39</title>
<path fill="none" stroke="black" d="M2886,-431.7C2886,-424.41 2886,-415.73 2886,-407.54"/>
<polygon fill="black" stroke="black" points="2889.5,-407.62 2886,-397.62 2882.5,-407.62 2889.5,-407.62"/>
</g>
<!-- 8 -->
<g id="node9" class="node">
<title>8</title>
<ellipse fill="none" stroke="black" cx="4056" cy="-1026" rx="141.94" ry="18"/>
<text text-anchor="middle" x="4056" y="-1020.95" font-family="Times New Roman,serif" font-size="14.00">Variable[&quot;character.pay_garte_70&quot;]</text>
</g>
<!-- 8&#45;&gt;8 -->
<g id="edge9" class="edge">
<title>8&#45;&gt;8</title>
<path fill="none" stroke="black" d="M4153.22,-1039.49C4187.81,-1039.74 4215.94,-1035.25 4215.94,-1026 4215.94,-1017.8 4193.82,-1013.34 4164.69,-1012.61"/>
<polygon fill="black" stroke="black" points="4164.76,-1009.11 4154.73,-1012.52 4164.7,-1016.11 4164.76,-1009.11"/>
</g>
<!-- 9 -->
<g id="node10" class="node">
<title>9</title>
<polygon fill="none" stroke="black" points="4056,-972 3855.27,-954 4056,-936 4256.74,-954 4056,-972"/>
<text text-anchor="middle" x="4056" y="-948.95" font-family="Times New Roman,serif" font-size="14.00">Variable[&quot;character.pay_garte_70&quot;]</text>
</g>
<!-- 8&#45;&gt;9 -->
<g id="edge10" class="edge">
<title>8&#45;&gt;9</title>
<path fill="none" stroke="black" d="M4056,-1007.7C4056,-1000.41 4056,-991.73 4056,-983.54"/>
<polygon fill="black" stroke="black" points="4059.5,-983.62 4056,-973.62 4052.5,-983.62 4059.5,-983.62"/>
</g>
<!-- 28 -->
<g id="node29" class="node">
<title>28</title>
<ellipse fill="none" stroke="black" cx="4056" cy="-882" rx="278.59" ry="18"/>
<text text-anchor="middle" x="4056" y="-876.95" font-family="Times New Roman,serif" font-size="14.00">Kim Kitsuragi: &quot;We can pick up where we left off tomorrow morning.&quot;</text>
</g>
<!-- 9&#45;&gt;28 -->
<g id="edge11" class="edge">
<title>9&#45;&gt;28</title>
<path fill="none" stroke="black" d="M4056,-935.7C4056,-928.41 4056,-919.73 4056,-911.54"/>
<polygon fill="black" stroke="black" points="4059.5,-911.62 4056,-901.62 4052.5,-911.62 4059.5,-911.62"/>
</g>
<!-- 10 -->
<g id="node11" class="node">
<title>10</title>
<polygon fill="none" stroke="black" points="2045,-396 1831.24,-378 2045,-360 2258.77,-378 2045,-396"/>
<text text-anchor="middle" x="2045" y="-372.95" font-family="Times New Roman,serif" font-size="14.00">!(Variable[&quot;character.pay_garte_70&quot;])</text>
</g>
<!-- 34 -->
<g id="node35" class="node">
<title>34</title>
<ellipse fill="none" stroke="black" cx="1833" cy="-306" rx="146.55" ry="18"/>
<text text-anchor="middle" x="1833" y="-300.95" font-family="Times New Roman,serif" font-size="14.00">Variable[&quot;character.pay_garte_100&quot;]</text>
</g>
<!-- 10&#45;&gt;34 -->
<g id="edge12" class="edge">
<title>10&#45;&gt;34</title>
<path fill="none" stroke="black" d="M2002.87,-363.09C1971.46,-352.72 1928.13,-338.41 1893.09,-326.84"/>
<polygon fill="black" stroke="black" points="1894.54,-323.63 1883.94,-323.82 1892.34,-330.28 1894.54,-323.63"/>
</g>
<!-- 11 -->
<g id="node12" class="node">
<title>11</title>
<ellipse fill="none" stroke="black" cx="1536" cy="-90" rx="148.08" ry="18"/>
<text text-anchor="middle" x="1536" y="-84.95" font-family="Times New Roman,serif" font-size="14.00">You: &quot;But I don&#39;t have the money...&quot;</text>
</g>
<!-- 22 -->
<g id="node23" class="node">
<title>22</title>
<polygon fill="none" stroke="black" points="1624,-36 1460.18,-18 1624,0 1787.82,-18 1624,-36"/>
<text text-anchor="middle" x="1624" y="-12.95" font-family="Times New Roman,serif" font-size="14.00">!(MoneyAmount() &gt;=6000)</text>
</g>
<!-- 11&#45;&gt;22 -->
<g id="edge13" class="edge">
<title>11&#45;&gt;22</title>
<path fill="none" stroke="black" d="M1557.31,-72.05C1568.93,-62.81 1583.47,-51.25 1596,-41.28"/>
<polygon fill="black" stroke="black" points="1597.87,-44.26 1603.51,-35.3 1593.51,-38.78 1597.87,-44.26"/>
</g>
<!-- 12 -->
<g id="node13" class="node">
<title>12</title>
<ellipse fill="none" stroke="black" cx="1833" cy="-162" rx="395.8" ry="18"/>
<text text-anchor="middle" x="1833" y="-156.95" font-family="Times New Roman,serif" font-size="14.00">Empathy: He&#39;s proud of you for getting your act together and finding a way to pay back what you owe.</text>
</g>
<!-- 13 -->
<g id="node14" class="node">
<title>13</title>
<ellipse fill="none" stroke="black" cx="3297" cy="-882" rx="111.23" ry="18"/>
<text text-anchor="middle" x="3297" y="-876.95" font-family="Times New Roman,serif" font-size="14.00">MoneyAmount() &gt;=10000</text>
</g>
<!-- 13&#45;&gt;13 -->
<g id="edge14" class="edge">
<title>13&#45;&gt;13</title>
<path fill="none" stroke="black" d="M3373.31,-895.46C3402.28,-895.98 3426.24,-891.49 3426.24,-882 3426.24,-873.77 3408.22,-869.3 3384.54,-868.6"/>
<polygon fill="black" stroke="black" points="3384.84,-865.1 3374.82,-868.55 3384.81,-872.1 3384.84,-865.1"/>
</g>
<!-- 14 -->
<g id="node15" class="node">
<title>14</title>
<polygon fill="none" stroke="black" points="3297,-828 3139.7,-810 3297,-792 3454.31,-810 3297,-828"/>
<text text-anchor="middle" x="3297" y="-804.95" font-family="Times New Roman,serif" font-size="14.00">MoneyAmount() &gt;=10000</text>
</g>
<!-- 13&#45;&gt;14 -->
<g id="edge15" class="edge">
<title>13&#45;&gt;14</title>
<path fill="none" stroke="black" d="M3297,-863.7C3297,-856.41 3297,-847.73 3297,-839.54"/>
<polygon fill="black" stroke="black" points="3300.5,-839.62 3297,-829.62 3293.5,-839.62 3300.5,-839.62"/>
</g>
<!-- 23 -->
<g id="node24" class="node">
<title>23</title>
<ellipse fill="none" stroke="black" cx="2952" cy="-738" rx="496.62" ry="18"/>
<text text-anchor="middle" x="2952" y="-732.95" font-family="Times New Roman,serif" font-size="14.00">Kim Kitsuragi: &quot;Let&#39;s talk to him anyway. An officer of the RCM shouldn&#39;t be sleeping in the streets. We&#39;ll figure something out.&quot;</text>
</g>
<!-- 14&#45;&gt;23 -->
<g id="edge16" class="edge">
<title>14&#45;&gt;23</title>
<path fill="none" stroke="black" d="M3241.96,-797.83C3189.82,-787.25 3110.43,-771.14 3047.89,-758.46"/>
<polygon fill="black" stroke="black" points="3048.8,-755.07 3038.3,-756.51 3047.41,-761.93 3048.8,-755.07"/>
</g>
<!-- 15 -->
<g id="node16" class="node">
<title>15</title>
<polygon fill="none" stroke="black" points="889,-468 718.67,-450 889,-432 1059.34,-450 889,-468"/>
<text text-anchor="middle" x="889" y="-444.95" font-family="Times New Roman,serif" font-size="14.00">!(MoneyAmount() &gt;=10000)</text>
</g>
<!-- 15&#45;&gt;10 -->
<g id="edge17" class="edge">
<title>15&#45;&gt;10</title>
<path fill="none" stroke="black" d="M994.14,-442.63C1205.52,-429.83 1681.5,-401.01 1913.25,-386.98"/>
<polygon fill="black" stroke="black" points="1913.15,-390.49 1922.92,-386.39 1912.73,-383.5 1913.15,-390.49"/>
</g>
<!-- 16 -->
<g id="node17" class="node">
<title>16</title>
<ellipse fill="none" stroke="black" cx="990" cy="-162" rx="429.58" ry="18"/>
<text text-anchor="middle" x="990" y="-156.95" font-family="Times New Roman,serif" font-size="14.00">Kim Kitsuragi: He nods. &quot;I&#39;ll also take a room at the Whirling. One cannot get much closer to the crime scene.&quot;</text>
</g>
<!-- 16&#45;&gt;11 -->
<g id="edge18" class="edge">
<title>16&#45;&gt;11</title>
<path fill="none" stroke="black" d="M1119.74,-144.37C1212.8,-132.44 1336.85,-116.53 1425.26,-105.2"/>
<polygon fill="black" stroke="black" points="1425.7,-108.67 1435.18,-103.93 1424.81,-101.73 1425.7,-108.67"/>
</g>
<!-- 17 -->
<g id="node18" class="node">
<title>17</title>
<ellipse fill="none" stroke="black" cx="3630" cy="-882" rx="111.23" ry="18"/>
<text text-anchor="middle" x="3630" y="-876.95" font-family="Times New Roman,serif" font-size="14.00">MoneyAmount() &gt;=13000</text>
</g>
<!-- 17&#45;&gt;17 -->
<g id="edge19" class="edge">
<title>17&#45;&gt;17</title>
<path fill="none" stroke="black" d="M3706.31,-895.46C3735.28,-895.98 3759.24,-891.49 3759.24,-882 3759.24,-873.77 3741.22,-869.3 3717.54,-868.6"/>
<polygon fill="black" stroke="black" points="3717.84,-865.1 3707.82,-868.55 3717.81,-872.1 3717.84,-865.1"/>
</g>
<!-- 18 -->
<g id="node19" class="node">
<title>18</title>
<polygon fill="none" stroke="black" points="3630,-828 3472.7,-810 3630,-792 3787.31,-810 3630,-828"/>
<text text-anchor="middle" x="3630" y="-804.95" font-family="Times New Roman,serif" font-size="14.00">MoneyAmount() &gt;=13000</text>
</g>
<!-- 17&#45;&gt;18 -->
<g id="edge20" class="edge">
<title>17&#45;&gt;18</title>
<path fill="none" stroke="black" d="M3630,-863.7C3630,-856.41 3630,-847.73 3630,-839.54"/>
<polygon fill="black" stroke="black" points="3633.5,-839.62 3630,-829.62 3626.5,-839.62 3633.5,-839.62"/>
</g>
<!-- 18&#45;&gt;23 -->
<g id="edge21" class="edge">
<title>18&#45;&gt;23</title>
<path fill="none" stroke="black" d="M3549.9,-800.73C3445.44,-789.94 3259.92,-770.79 3123.15,-756.67"/>
<polygon fill="black" stroke="black" points="3123.55,-753.19 3113.24,-755.65 3122.83,-760.16 3123.55,-753.19"/>
</g>
<!-- 19 -->
<g id="node20" class="node">
<title>19</title>
<polygon fill="none" stroke="black" points="2331,-468 2160.67,-450 2331,-432 2501.34,-450 2331,-468"/>
<text text-anchor="middle" x="2331" y="-444.95" font-family="Times New Roman,serif" font-size="14.00">!(MoneyAmount() &gt;=13000)</text>
</g>
<!-- 19&#45;&gt;10 -->
<g id="edge22" class="edge">
<title>19&#45;&gt;10</title>
<path fill="none" stroke="black" d="M2281.19,-436.81C2233.47,-425.13 2161.25,-407.45 2109.23,-394.72"/>
<polygon fill="black" stroke="black" points="2110.14,-391.34 2099.6,-392.36 2108.48,-398.14 2110.14,-391.34"/>
</g>
<!-- 20 -->
<g id="node21" class="node">
<title>20</title>
<ellipse fill="none" stroke="black" cx="2651" cy="-882" rx="106.63" ry="18"/>
<text text-anchor="middle" x="2651" y="-876.95" font-family="Times New Roman,serif" font-size="14.00">MoneyAmount() &gt;=6000</text>
</g>
<!-- 20&#45;&gt;20 -->
<g id="edge23" class="edge">
<title>20&#45;&gt;20</title>
<path fill="none" stroke="black" d="M2724.28,-895.45C2752.35,-896.01 2775.63,-891.53 2775.63,-882 2775.63,-873.81 2758.44,-869.35 2735.79,-868.61"/>
<polygon fill="black" stroke="black" points="2735.81,-865.11 2725.79,-868.55 2735.77,-872.11 2735.81,-865.11"/>
</g>
<!-- 21 -->
<g id="node22" class="node">
<title>21</title>
<polygon fill="none" stroke="black" points="2651,-828 2500.21,-810 2651,-792 2801.8,-810 2651,-828"/>
<text text-anchor="middle" x="2651" y="-804.95" font-family="Times New Roman,serif" font-size="14.00">MoneyAmount() &gt;=6000</text>
</g>
<!-- 20&#45;&gt;21 -->
<g id="edge24" class="edge">
<title>20&#45;&gt;21</title>
<path fill="none" stroke="black" d="M2651,-863.7C2651,-856.41 2651,-847.73 2651,-839.54"/>
<polygon fill="black" stroke="black" points="2654.5,-839.62 2651,-829.62 2647.5,-839.62 2654.5,-839.62"/>
</g>
<!-- 21&#45;&gt;23 -->
<g id="edge25" class="edge">
<title>21&#45;&gt;23</title>
<path fill="none" stroke="black" d="M2700.71,-797.44C2745.78,-786.96 2813.16,-771.29 2866.81,-758.81"/>
<polygon fill="black" stroke="black" points="2867.27,-762.3 2876.22,-756.62 2865.69,-755.48 2867.27,-762.3"/>
</g>
<!-- 22&#45;&gt;10 -->
<g id="edge26" class="edge">
<title>22&#45;&gt;10</title>
<path fill="none" stroke="black" d="M1754.39,-22.14C1939.7,-30.21 2257,-58.93 2257,-161 2257,-235 2257,-235 2257,-235 2257,-305 2176.24,-342.68 2114.41,-361.28"/>
<polygon fill="black" stroke="black" points="2113.59,-357.87 2104.95,-364.01 2115.53,-364.6 2113.59,-357.87"/>
</g>
<!-- 23&#45;&gt;5 -->
<g id="edge27" class="edge">
<title>23&#45;&gt;5</title>
<path fill="none" stroke="black" d="M2942.36,-719.7C2937.95,-711.78 2932.63,-702.23 2927.73,-693.44"/>
<polygon fill="black" stroke="black" points="2930.93,-691.98 2923,-684.94 2924.81,-695.38 2930.93,-691.98"/>
</g>
<!-- 24 -->
<g id="node25" class="node">
<title>24</title>
<ellipse fill="none" stroke="black" cx="318" cy="-522" rx="318" ry="18"/>
<text text-anchor="middle" x="318" y="-516.95" font-family="Times New Roman,serif" font-size="14.00">You: &quot;I think I have the money now. This is money, right?&quot; (Show him reál bills.)</text>
</g>
<!-- 24&#45;&gt;15 -->
<g id="edge28" class="edge">
<title>24&#45;&gt;15</title>
<path fill="none" stroke="black" d="M447.57,-505.12C555.71,-491.86 706.9,-473.32 801.32,-461.75"/>
<polygon fill="black" stroke="black" points="801.54,-465.25 811.04,-460.56 800.69,-458.3 801.54,-465.25"/>
</g>
<!-- 25 -->
<g id="node26" class="node">
<title>25</title>
<ellipse fill="none" stroke="black" cx="4473" cy="-1026" rx="75.92" ry="18"/>
<text text-anchor="middle" x="4473" y="-1020.95" font-family="Times New Roman,serif" font-size="14.00">DayCount() == 1</text>
</g>
<!-- 25&#45;&gt;25 -->
<g id="edge29" class="edge">
<title>25&#45;&gt;25</title>
<path fill="none" stroke="black" d="M4525.63,-1039.36C4547.93,-1040.37 4566.92,-1035.91 4566.92,-1026 4566.92,-1017.79 4553.9,-1013.32 4536.76,-1012.6"/>
<polygon fill="black" stroke="black" points="4537.13,-1009.1 4527.15,-1012.63 4537.16,-1016.1 4537.13,-1009.1"/>
</g>
<!-- 26 -->
<g id="node27" class="node">
<title>26</title>
<polygon fill="none" stroke="black" points="4473,-972 4365.64,-954 4473,-936 4580.37,-954 4473,-972"/>
<text text-anchor="middle" x="4473" y="-948.95" font-family="Times New Roman,serif" font-size="14.00">DayCount() == 1</text>
</g>
<!-- 25&#45;&gt;26 -->
<g id="edge30" class="edge">
<title>25&#45;&gt;26</title>
<path fill="none" stroke="black" d="M4473,-1007.7C4473,-1000.41 4473,-991.73 4473,-983.54"/>
<polygon fill="black" stroke="black" points="4476.5,-983.62 4473,-973.62 4469.5,-983.62 4476.5,-983.62"/>
</g>
<!-- 27 -->
<g id="node28" class="node">
<title>27</title>
<polygon fill="none" stroke="black" points="4473,-900 4352.61,-882 4473,-864 4593.4,-882 4473,-900"/>
<text text-anchor="middle" x="4473" y="-876.95" font-family="Times New Roman,serif" font-size="14.00">!(DayCount() == 1)</text>
</g>
<!-- 26&#45;&gt;27 -->
<g id="edge31" class="edge">
<title>26&#45;&gt;27</title>
<path fill="none" stroke="black" d="M4473,-935.7C4473,-928.41 4473,-919.73 4473,-911.54"/>
<polygon fill="black" stroke="black" points="4476.5,-911.62 4473,-901.62 4469.5,-911.62 4476.5,-911.62"/>
</g>
<!-- 37 -->
<g id="node38" class="node">
<title>37</title>
<ellipse fill="none" stroke="black" cx="4473" cy="-810" rx="384.03" ry="18"/>
<text text-anchor="middle" x="4473" y="-804.95" font-family="Times New Roman,serif" font-size="14.00">Kim Kitsuragi: &quot;Let&#39;s continue tomorrow, bright and early &#45;&#45; 7:30 sharp. I&#39;ll be waiting downstairs.&quot;</text>
</g>
<!-- 27&#45;&gt;37 -->
<g id="edge32" class="edge">
<title>27&#45;&gt;37</title>
<path fill="none" stroke="black" d="M4473,-863.7C4473,-856.41 4473,-847.73 4473,-839.54"/>
<polygon fill="black" stroke="black" points="4476.5,-839.62 4473,-829.62 4469.5,-839.62 4476.5,-839.62"/>
</g>
<!-- 29 -->
<g id="node30" class="node">
<title>29</title>
<ellipse fill="none" stroke="black" cx="2971" cy="-882" rx="106.63" ry="18"/>
<text text-anchor="middle" x="2971" y="-876.95" font-family="Times New Roman,serif" font-size="14.00">MoneyAmount() &gt;=7000</text>
</g>
<!-- 29&#45;&gt;29 -->
<g id="edge33" class="edge">
<title>29&#45;&gt;29</title>
<path fill="none" stroke="black" d="M3044.28,-895.45C3072.35,-896.01 3095.63,-891.53 3095.63,-882 3095.63,-873.81 3078.44,-869.35 3055.79,-868.61"/>
<polygon fill="black" stroke="black" points="3055.81,-865.11 3045.79,-868.55 3055.77,-872.11 3055.81,-865.11"/>
</g>
<!-- 30 -->
<g id="node31" class="node">
<title>30</title>
<polygon fill="none" stroke="black" points="2971,-828 2820.21,-810 2971,-792 3121.8,-810 2971,-828"/>
<text text-anchor="middle" x="2971" y="-804.95" font-family="Times New Roman,serif" font-size="14.00">MoneyAmount() &gt;=7000</text>
</g>
<!-- 29&#45;&gt;30 -->
<g id="edge34" class="edge">
<title>29&#45;&gt;30</title>
<path fill="none" stroke="black" d="M2971,-863.7C2971,-856.41 2971,-847.73 2971,-839.54"/>
<polygon fill="black" stroke="black" points="2974.5,-839.62 2971,-829.62 2967.5,-839.62 2974.5,-839.62"/>
</g>
<!-- 30&#45;&gt;23 -->
<g id="edge35" class="edge">
<title>30&#45;&gt;23</title>
<path fill="none" stroke="black" d="M2966.4,-792.05C2964.38,-784.6 2961.95,-775.64 2959.66,-767.22"/>
<polygon fill="black" stroke="black" points="2963.09,-766.47 2957.09,-757.74 2956.33,-768.3 2963.09,-766.47"/>
</g>
<!-- 31 -->
<g id="node32" class="node">
<title>31</title>
<polygon fill="none" stroke="black" points="1657,-612 1493.18,-594 1657,-576 1820.82,-594 1657,-612"/>
<text text-anchor="middle" x="1657" y="-588.95" font-family="Times New Roman,serif" font-size="14.00">!(MoneyAmount() &gt;=7000)</text>
</g>
<!-- 31&#45;&gt;10 -->
<g id="edge36" class="edge">
<title>31&#45;&gt;10</title>
<path fill="none" stroke="black" d="M1683.37,-578.46C1750.78,-541.28 1929.63,-442.63 2007.69,-399.58"/>
<polygon fill="black" stroke="black" points="2009.18,-402.76 2016.25,-394.86 2005.8,-396.63 2009.18,-402.76"/>
</g>
<!-- 32 -->
<g id="node33" class="node">
<title>32</title>
<ellipse fill="none" stroke="black" cx="4861" cy="-1026" rx="276.55" ry="18"/>
<text text-anchor="middle" x="4861" y="-1020.95" font-family="Times New Roman,serif" font-size="14.00">You: &quot;I think I need to talk to the cafeteria manager about my room...&quot;</text>
</g>
<!-- 38 -->
<g id="node39" class="node">
<title>38</title>
<ellipse fill="none" stroke="black" cx="4861" cy="-954" rx="213.08" ry="18"/>
<text text-anchor="middle" x="4861" y="-948.95" font-family="Times New Roman,serif" font-size="14.00">Kim Kitsuragi: &quot;You certainly have been avoiding it.&quot;</text>
</g>
<!-- 32&#45;&gt;38 -->
<g id="edge37" class="edge">
<title>32&#45;&gt;38</title>
<path fill="none" stroke="black" d="M4861,-1007.7C4861,-1000.41 4861,-991.73 4861,-983.54"/>
<polygon fill="black" stroke="black" points="4864.5,-983.62 4861,-973.62 4857.5,-983.62 4864.5,-983.62"/>
</g>
<!-- 33 -->
<g id="node34" class="node">
<title>33</title>
<ellipse fill="none" stroke="black" cx="1869" cy="-666" rx="410.13" ry="18"/>
<text text-anchor="middle" x="1869" y="-660.95" font-family="Times New Roman,serif" font-size="14.00">Kim Kitsuragi: &quot;Good to know. I&#39;ll be wherever is necessary in the morning. Bright and early, 7:30 sharp.&quot;</text>
</g>
<!-- 35 -->
<g id="node36" class="node">
<title>35</title>
<polygon fill="none" stroke="black" points="1833,-252 1625.75,-234 1833,-216 2040.25,-234 1833,-252"/>
<text text-anchor="middle" x="1833" y="-228.95" font-family="Times New Roman,serif" font-size="14.00">Variable[&quot;character.pay_garte_100&quot;]</text>
</g>
<!-- 34&#45;&gt;35 -->
<g id="edge38" class="edge">
<title>34&#45;&gt;35</title>
<path fill="none" stroke="black" d="M1833,-287.7C1833,-280.41 1833,-271.73 1833,-263.54"/>
<polygon fill="black" stroke="black" points="1836.5,-263.62 1833,-253.62 1829.5,-263.62 1836.5,-263.62"/>
</g>
<!-- 36 -->
<g id="node37" class="node">
<title>36</title>
<polygon fill="none" stroke="black" points="1189,-252 968.73,-234 1189,-216 1409.28,-234 1189,-252"/>
<text text-anchor="middle" x="1189" y="-228.95" font-family="Times New Roman,serif" font-size="14.00">!(Variable[&quot;character.pay_garte_100&quot;])</text>
</g>
<!-- 34&#45;&gt;36 -->
<g id="edge39" class="edge">
<title>34&#45;&gt;36</title>
<path fill="none" stroke="black" d="M1725.94,-293.36C1605.36,-280.26 1410.78,-259.11 1291.93,-246.19"/>
<polygon fill="black" stroke="black" points="1292.49,-242.73 1282.17,-245.13 1291.74,-249.69 1292.49,-242.73"/>
</g>
<!-- 35&#45;&gt;12 -->
<g id="edge40" class="edge">
<title>35&#45;&gt;12</title>
<path fill="none" stroke="black" d="M1833,-215.7C1833,-208.41 1833,-199.73 1833,-191.54"/>
<polygon fill="black" stroke="black" points="1836.5,-191.62 1833,-181.62 1829.5,-191.62 1836.5,-191.62"/>
</g>
<!-- 36&#45;&gt;16 -->
<g id="edge41" class="edge">
<title>36&#45;&gt;16</title>
<path fill="none" stroke="black" d="M1148.73,-218.83C1120.37,-208.86 1081.9,-195.33 1049.94,-184.08"/>
<polygon fill="black" stroke="black" points="1051.4,-180.89 1040.81,-180.87 1049.08,-187.49 1051.4,-180.89"/>
</g>
<!-- 40 -->
<g id="node41" class="node">
<title>40</title>
<ellipse fill="none" stroke="black" cx="291" cy="-738" rx="139.89" ry="18"/>
<text text-anchor="middle" x="291" y="-732.95" font-family="Times New Roman,serif" font-size="14.00">You: &quot;Yes, my hostel room calls.&quot;</text>
</g>
<!-- 41 -->
<g id="node42" class="node">
<title>41</title>
<ellipse fill="none" stroke="black" cx="318" cy="-666" rx="150.13" ry="18"/>
<text text-anchor="middle" x="318" y="-660.95" font-family="Times New Roman,serif" font-size="14.00">Variable[&quot;whirling.kim_took_room&quot;]</text>
</g>
<!-- 40&#45;&gt;41 -->
<g id="edge42" class="edge">
<title>40&#45;&gt;41</title>
<path fill="none" stroke="black" d="M297.68,-719.7C300.59,-712.15 304.07,-703.12 307.33,-694.68"/>
<polygon fill="black" stroke="black" points="310.53,-696.11 310.86,-685.52 304,-693.59 310.53,-696.11"/>
</g>
<!-- 42 -->
<g id="node43" class="node">
<title>42</title>
<polygon fill="none" stroke="black" points="318,-612 105.69,-594 318,-576 530.32,-594 318,-612"/>
<text text-anchor="middle" x="318" y="-588.95" font-family="Times New Roman,serif" font-size="14.00">Variable[&quot;whirling.kim_took_room&quot;]</text>
</g>
<!-- 41&#45;&gt;42 -->
<g id="edge43" class="edge">
<title>41&#45;&gt;42</title>
<path fill="none" stroke="black" d="M318,-647.7C318,-640.41 318,-631.73 318,-623.54"/>
<polygon fill="black" stroke="black" points="321.5,-623.62 318,-613.62 314.5,-623.62 321.5,-623.62"/>
</g>
<!-- 43 -->
<g id="node44" class="node">
<title>43</title>
<polygon fill="none" stroke="black" points="821,-612 595.66,-594 821,-576 1046.35,-594 821,-612"/>
<text text-anchor="middle" x="821" y="-588.95" font-family="Times New Roman,serif" font-size="14.00">!(Variable[&quot;whirling.kim_took_room&quot;])</text>
</g>
<!-- 41&#45;&gt;43 -->
<g id="edge44" class="edge">
<title>41&#45;&gt;43</title>
<path fill="none" stroke="black" d="M413.5,-651.71C504.49,-639.05 640.5,-620.12 729.98,-607.67"/>
<polygon fill="black" stroke="black" points="730.28,-611.16 739.7,-606.31 729.31,-604.23 730.28,-611.16"/>
</g>
<!-- 42&#45;&gt;24 -->
<g id="edge45" class="edge">
<title>42&#45;&gt;24</title>
<path fill="none" stroke="black" d="M318,-575.7C318,-568.41 318,-559.73 318,-551.54"/>
<polygon fill="black" stroke="black" points="321.5,-551.62 318,-541.62 314.5,-551.62 321.5,-551.62"/>
</g>
<!-- 51 -->
<g id="node52" class="node">
<title>51</title>
<ellipse fill="none" stroke="black" cx="868" cy="-522" rx="213.59" ry="18"/>
<text text-anchor="middle" x="868" y="-516.95" font-family="Times New Roman,serif" font-size="14.00">Kim Kitsuragi: &quot;I&#39;ll also take a room at the Whirling.&quot;</text>
</g>
<!-- 43&#45;&gt;51 -->
<g id="edge46" class="edge">
<title>43&#45;&gt;51</title>
<path fill="none" stroke="black" d="M832.14,-576.41C837.48,-568.45 844.02,-558.72 850.04,-549.76"/>
<polygon fill="black" stroke="black" points="852.78,-551.96 855.45,-541.7 846.97,-548.05 852.78,-551.96"/>
</g>
<!-- 45 -->
<g id="node46" class="node">
<title>45</title>
<polygon fill="none" stroke="black" points="2331,-828 2180.21,-810 2331,-792 2481.8,-810 2331,-828"/>
<text text-anchor="middle" x="2331" y="-804.95" font-family="Times New Roman,serif" font-size="14.00">MoneyAmount() &gt;=3000</text>
</g>
<!-- 44&#45;&gt;45 -->
<g id="edge47" class="edge">
<title>44&#45;&gt;45</title>
<path fill="none" stroke="black" d="M2263.55,-864.05C2275.39,-854.74 2290.21,-843.08 2302.95,-833.07"/>
<polygon fill="black" stroke="black" points="2304.89,-835.99 2310.59,-827.06 2300.56,-830.49 2304.89,-835.99"/>
</g>
<!-- 46 -->
<g id="node47" class="node">
<title>46</title>
<polygon fill="none" stroke="black" points="2461,-684 2297.18,-666 2461,-648 2624.82,-666 2461,-684"/>
<text text-anchor="middle" x="2461" y="-660.95" font-family="Times New Roman,serif" font-size="14.00">!(MoneyAmount() &gt;=3000)</text>
</g>
<!-- 44&#45;&gt;46 -->
<g id="edge48" class="edge">
<title>44&#45;&gt;46</title>
<path fill="none" stroke="black" d="M2207.96,-864.64C2193.8,-855.9 2178.86,-843.68 2171,-828 2163.83,-813.7 2162.21,-805.37 2171,-792 2215.96,-723.67 2307.01,-692.53 2375.16,-678.44"/>
<polygon fill="black" stroke="black" points="2375.7,-681.9 2384.84,-676.53 2374.35,-675.03 2375.7,-681.9"/>
</g>
<!-- 45&#45;&gt;23 -->
<g id="edge49" class="edge">
<title>45&#45;&gt;23</title>
<path fill="none" stroke="black" d="M2406.22,-800.52C2501.67,-789.76 2668.81,-770.92 2793.05,-756.92"/>
<polygon fill="black" stroke="black" points="2793.14,-760.43 2802.68,-755.83 2792.35,-753.47 2793.14,-760.43"/>
</g>
<!-- 46&#45;&gt;10 -->
<g id="edge50" class="edge">
<title>46&#45;&gt;10</title>
<path fill="none" stroke="black" d="M2420.13,-652.01C2364.55,-633.11 2263.63,-594.24 2190,-540 2136.3,-500.44 2087.42,-438.43 2062.45,-404.06"/>
<polygon fill="black" stroke="black" points="2065.61,-402.46 2056.94,-396.37 2059.92,-406.54 2065.61,-402.46"/>
</g>
<!-- 47&#45;&gt;1 -->
<g id="edge51" class="edge">
<title>47&#45;&gt;1</title>
<path fill="none" stroke="black" d="M1184.92,-828.28C1185.67,-835.6 1185.92,-844.34 1185.65,-852.57"/>
<polygon fill="black" stroke="black" points="1182.15,-852.33 1184.98,-862.54 1189.14,-852.8 1182.15,-852.33"/>
</g>
<!-- 47&#45;&gt;6 -->
<g id="edge52" class="edge">
<title>47&#45;&gt;6</title>
<path fill="none" stroke="black" d="M1132.89,-796.24C1095.66,-785.94 1042.55,-771.25 999.47,-759.33"/>
<polygon fill="black" stroke="black" points="1000.49,-755.98 989.92,-756.69 998.63,-762.73 1000.49,-755.98"/>
</g>
<!-- 47&#45;&gt;31 -->
<g id="edge55" class="edge">
<title>47&#45;&gt;31</title>
<path fill="none" stroke="black" d="M1241.15,-801.7C1301.35,-793.46 1387.08,-778.22 1412,-756 1449.99,-722.14 1412.48,-682.37 1450,-648 1475.74,-624.43 1510.51,-611.02 1544.2,-603.5"/>
<polygon fill="black" stroke="black" points="1544.52,-607.01 1553.61,-601.56 1543.11,-600.15 1544.52,-607.01"/>
</g>
<!-- 47&#45;&gt;40 -->
<g id="edge53" class="edge">
<title>47&#45;&gt;40</title>
<path fill="none" stroke="black" d="M1111.93,-805.14C982.08,-797.45 687.35,-778.97 440,-756 427.67,-754.85 414.78,-753.55 401.96,-752.18"/>
<polygon fill="black" stroke="black" points="402.55,-748.72 392.23,-751.13 401.8,-755.68 402.55,-748.72"/>
</g>
<!-- 52 -->
<g id="node53" class="node">
<title>52</title>
<ellipse fill="none" stroke="black" cx="1849" cy="-738" rx="249.93" ry="18"/>
<text text-anchor="middle" x="1849" y="-732.95" font-family="Times New Roman,serif" font-size="14.00">You: &quot;I found lodgings in the village. I&#39;ll spend the night there.&quot;</text>
</g>
<!-- 47&#45;&gt;52 -->
<g id="edge54" class="edge">
<title>47&#45;&gt;52</title>
<path fill="none" stroke="black" d="M1242.34,-802.38C1346.46,-791.5 1556.53,-769.56 1699.99,-754.57"/>
<polygon fill="black" stroke="black" points="1699.98,-758.09 1709.56,-753.57 1699.25,-751.13 1699.98,-758.09"/>
</g>
<!-- 49 -->
<g id="node50" class="node">
<title>49</title>
<polygon fill="none" stroke="black" points="2400,-540 2199.27,-522 2400,-504 2600.74,-522 2400,-540"/>
<text text-anchor="middle" x="2400" y="-516.95" font-family="Times New Roman,serif" font-size="14.00">Variable[&quot;character.pay_garte_60&quot;]</text>
</g>
<!-- 48&#45;&gt;49 -->
<g id="edge56" class="edge">
<title>48&#45;&gt;49</title>
<path fill="none" stroke="black" d="M2794.59,-579.83C2706.04,-567.08 2572.78,-547.88 2486.08,-535.4"/>
<polygon fill="black" stroke="black" points="2486.59,-531.93 2476.19,-533.97 2485.59,-538.86 2486.59,-531.93"/>
</g>
<!-- 50 -->
<g id="node51" class="node">
<title>50</title>
<polygon fill="none" stroke="black" points="2886,-540 2672.24,-522 2886,-504 3099.77,-522 2886,-540"/>
<text text-anchor="middle" x="2886" y="-516.95" font-family="Times New Roman,serif" font-size="14.00">!(Variable[&quot;character.pay_garte_60&quot;])</text>
</g>
<!-- 48&#45;&gt;50 -->
<g id="edge57" class="edge">
<title>48&#45;&gt;50</title>
<path fill="none" stroke="black" d="M2886,-575.7C2886,-568.41 2886,-559.73 2886,-551.54"/>
<polygon fill="black" stroke="black" points="2889.5,-551.62 2886,-541.62 2882.5,-551.62 2889.5,-551.62"/>
</g>
<!-- 49&#45;&gt;19 -->
<g id="edge58" class="edge">
<title>49&#45;&gt;19</title>
<path fill="none" stroke="black" d="M2384.35,-505.12C2375.52,-496.17 2364.33,-484.81 2354.48,-474.81"/>
<polygon fill="black" stroke="black" points="2357.17,-472.56 2347.66,-467.9 2352.19,-477.48 2357.17,-472.56"/>
</g>
<!-- 50&#45;&gt;7 -->
<g id="edge59" class="edge">
<title>50&#45;&gt;7</title>
<path fill="none" stroke="black" d="M2886,-503.7C2886,-496.41 2886,-487.73 2886,-479.54"/>
<polygon fill="black" stroke="black" points="2889.5,-479.62 2886,-469.62 2882.5,-479.62 2889.5,-479.62"/>
</g>
<!-- 52&#45;&gt;33 -->
<g id="edge60" class="edge">
<title>52&#45;&gt;33</title>
<path fill="none" stroke="black" d="M1853.95,-719.7C1856.08,-712.24 1858.63,-703.32 1861.01,-694.97"/>
<polygon fill="black" stroke="black" points="1864.32,-696.14 1863.7,-685.56 1857.59,-694.21 1864.32,-696.14"/>
</g>
<!-- 53&#45;&gt;2 -->
<g id="edge61" class="edge">
<title>53&#45;&gt;2</title>
<path fill="none" stroke="black" d="M3109.9,-972.1C3110.66,-979.37 3110.91,-988.04 3110.66,-996.24"/>
<polygon fill="black" stroke="black" points="3107.17,-995.98 3110.02,-1006.19 3114.15,-996.43 3107.17,-995.98"/>
</g>
</g>
</svg>
