<?xml version="1.0" encoding="UTF-8" standalone="no"?>
<!DOCTYPE svg PUBLIC "-//W3C//DTD SVG 1.1//EN"
 "http://www.w3.org/Graphics/SVG/1.1/DTD/svg11.dtd">
<!-- Generated by graphviz version 12.2.1 (20241206.2353)
 -->
<!-- Title: G Pages: 1 -->
<svg width="6009pt" height="1412pt"
 viewBox="0.00 0.00 6009.39 1412.00" xmlns="http://www.w3.org/2000/svg" xmlns:xlink="http://www.w3.org/1999/xlink">
<g id="graph0" class="graph" transform="scale(1 1) rotate(0) translate(4 1408)">
<title>G</title>
<polygon fill="white" stroke="none" points="-4,4 -4,-1408 6005.39,-1408 6005.39,4 -4,4"/>
<!-- 0 -->
<g id="node1" class="node">
<title>0</title>
<ellipse fill="none" stroke="black" cx="1621.39" cy="-1386" rx="39.07" ry="18"/>
<text text-anchor="middle" x="1621.39" y="-1380.95" font-family="Times New Roman,serif" font-size="14.00">START</text>
</g>
<!-- 0&#45;&gt;0 -->
<g id="edge1" class="edge">
<title>0&#45;&gt;0</title>
<path fill="none" stroke="black" d="M1649.58,-1398.94C1664.69,-1401.14 1678.46,-1396.83 1678.46,-1386 1678.46,-1377.96 1670.87,-1373.52 1660.79,-1372.65"/>
<polygon fill="black" stroke="black" points="1660.96,-1369.15 1651.09,-1373 1661.21,-1376.14 1660.96,-1369.15"/>
</g>
<!-- 1 -->
<g id="node2" class="node">
<title>1</title>
<ellipse fill="none" stroke="black" cx="2626.39" cy="-1170" rx="29.86" ry="18"/>
<text text-anchor="middle" x="2626.39" y="-1164.95" font-family="Times New Roman,serif" font-size="14.00">input</text>
</g>
<!-- 64 -->
<g id="node65" class="node">
<title>64</title>
<ellipse fill="none" stroke="black" cx="2445.39" cy="-1098" rx="285.25" ry="18"/>
<text text-anchor="middle" x="2445.39" y="-1092.95" font-family="Times New Roman,serif" font-size="14.00">Alice: &quot;One moment...&quot; You can hear her shuffling through some papers.</text>
</g>
<!-- 1&#45;&gt;64 -->
<g id="edge2" class="edge">
<title>1&#45;&gt;64</title>
<path fill="none" stroke="black" d="M2601.6,-1159.41C2575.74,-1149.41 2534.35,-1133.41 2500.67,-1120.38"/>
<polygon fill="black" stroke="black" points="2502.04,-1117.16 2491.45,-1116.81 2499.51,-1123.68 2502.04,-1117.16"/>
</g>
<!-- 2 -->
<g id="node3" class="node">
<title>2</title>
<ellipse fill="none" stroke="black" cx="3040.39" cy="-882" rx="221.27" ry="18"/>
<text text-anchor="middle" x="3040.39" y="-876.95" font-family="Times New Roman,serif" font-size="14.00">You: &quot;There might be a *sequence killer* on the loose.&quot;</text>
</g>
<!-- 45 -->
<g id="node46" class="node">
<title>45</title>
<ellipse fill="none" stroke="black" cx="2777.39" cy="-810" rx="529.89" ry="18"/>
<text text-anchor="middle" x="2777.39" y="-804.95" font-family="Times New Roman,serif" font-size="14.00">Alice: &quot;A sequence killer.&quot; You can hear her stop typing. &quot;Are you suggesting that this might be connected to the case you&#39;re working on?&quot;</text>
</g>
<!-- 2&#45;&gt;45 -->
<g id="edge3" class="edge">
<title>2&#45;&gt;45</title>
<path fill="none" stroke="black" d="M2977.73,-864.32C2940.37,-854.38 2892.69,-841.69 2853.22,-831.18"/>
<polygon fill="black" stroke="black" points="2854.34,-827.86 2843.78,-828.67 2852.54,-834.62 2854.34,-827.86"/>
</g>
<!-- 3 -->
<g id="node4" class="node">
<title>3</title>
<ellipse fill="none" stroke="black" cx="4066.39" cy="-1098" rx="544.22" ry="18"/>
<text text-anchor="middle" x="4066.39" y="-1092.95" font-family="Times New Roman,serif" font-size="14.00">You: &quot;An unidentified middle&#45;aged man. Looks like he slipped, fell through a hole in the boardwalk and hit his head against the metal bench.&quot;</text>
</g>
<!-- 24 -->
<g id="node25" class="node">
<title>24</title>
<ellipse fill="none" stroke="black" cx="4188.39" cy="-1026" rx="58.52" ry="18"/>
<text text-anchor="middle" x="4188.39" y="-1020.95" font-family="Times New Roman,serif" font-size="14.00">IsKimHere()</text>
</g>
<!-- 3&#45;&gt;24 -->
<g id="edge4" class="edge">
<title>3&#45;&gt;24</title>
<path fill="none" stroke="black" d="M4096.55,-1079.7C4113.18,-1070.15 4133.97,-1058.23 4151.56,-1048.13"/>
<polygon fill="black" stroke="black" points="4153.24,-1051.2 4160.17,-1043.19 4149.76,-1045.13 4153.24,-1051.2"/>
</g>
<!-- 4 -->
<g id="node5" class="node">
<title>4</title>
<ellipse fill="none" stroke="black" cx="2000.39" cy="-1386" rx="168.56" ry="18"/>
<text text-anchor="middle" x="2000.39" y="-1380.95" font-family="Times New Roman,serif" font-size="14.00">Alice: &quot;Did you perform a field autopsy?&quot;</text>
</g>
<!-- 4&#45;&gt;4 -->
<g id="edge5" class="edge">
<title>4&#45;&gt;4</title>
<path fill="none" stroke="black" d="M2115.62,-1399.5C2155.12,-1399.6 2186.95,-1395.11 2186.95,-1386 2186.95,-1377.78 2161.03,-1373.32 2126.95,-1372.6"/>
<polygon fill="black" stroke="black" points="2127.16,-1369.1 2117.13,-1372.52 2127.1,-1376.1 2127.16,-1369.1"/>
</g>
<!-- 5 -->
<g id="node6" class="node">
<title>5</title>
<ellipse fill="none" stroke="black" cx="1484.39" cy="-1242" rx="133.24" ry="18"/>
<text text-anchor="middle" x="1484.39" y="-1236.95" font-family="Times New Roman,serif" font-size="14.00">You: &quot;No, it&#39;s still just a theory.&quot;</text>
</g>
<!-- 13 -->
<g id="node14" class="node">
<title>13</title>
<polygon fill="none" stroke="black" points="1374.39,-1188 1100.55,-1170 1374.39,-1152 1648.23,-1170 1374.39,-1188"/>
<text text-anchor="middle" x="1374.39" y="-1164.95" font-family="Times New Roman,serif" font-size="14.00">!(Variable[&quot;boardwalk.library_card_main_hub&quot;])</text>
</g>
<!-- 5&#45;&gt;13 -->
<g id="edge6" class="edge">
<title>5&#45;&gt;13</title>
<path fill="none" stroke="black" d="M1457.76,-1224.05C1443.02,-1214.67 1424.53,-1202.91 1408.71,-1192.84"/>
<polygon fill="black" stroke="black" points="1410.86,-1190.06 1400.54,-1187.64 1407.1,-1195.96 1410.86,-1190.06"/>
</g>
<!-- 6 -->
<g id="node7" class="node">
<title>6</title>
<ellipse fill="none" stroke="black" cx="5403.39" cy="-18" rx="542.18" ry="18"/>
<text text-anchor="middle" x="5403.39" y="-12.95" font-family="Times New Roman,serif" font-size="14.00">Kim Kitsuragi: &quot;We suspect he might have been inebriated when he fell &#45;&#45; there were bottles all around him, and traces of vomit on his shirt.&quot;</text>
</g>
<!-- 39 -->
<g id="node40" class="node">
<title>39</title>
<ellipse fill="none" stroke="black" cx="3494.39" cy="-1242" rx="129.66" ry="18"/>
<text text-anchor="middle" x="3494.39" y="-1236.95" font-family="Times New Roman,serif" font-size="14.00">Alice: &quot;Any signs of violence?&quot;</text>
</g>
<!-- 6&#45;&gt;39 -->
<g id="edge7" class="edge">
<title>6&#45;&gt;39</title>
<path fill="none" stroke="black" d="M5662.2,-34.22C5823.82,-51.09 6001.39,-86.57 6001.39,-161 6001.39,-1099 6001.39,-1099 6001.39,-1099 6001.39,-1218.41 4164.47,-1237.44 3635.39,-1240.44"/>
<polygon fill="black" stroke="black" points="3635.39,-1236.94 3625.41,-1240.5 3635.43,-1243.94 3635.39,-1236.94"/>
</g>
<!-- 7 -->
<g id="node8" class="node">
<title>7</title>
<ellipse fill="none" stroke="black" cx="3896.39" cy="-378" rx="261.19" ry="18"/>
<text text-anchor="middle" x="3896.39" y="-372.95" font-family="Times New Roman,serif" font-size="14.00">Alice: &quot;What about his belongings? Did you examine his clothes?&quot;</text>
</g>
<!-- 17 -->
<g id="node18" class="node">
<title>17</title>
<ellipse fill="none" stroke="black" cx="4283.39" cy="-306" rx="494.58" ry="18"/>
<text text-anchor="middle" x="4283.39" y="-300.95" font-family="Times New Roman,serif" font-size="14.00">You: &quot;He was wearing boots, trousers and an old leather jacket with a bright blue lining. I found a library card from his pockets.&quot;</text>
</g>
<!-- 7&#45;&gt;17 -->
<g id="edge8" class="edge">
<title>7&#45;&gt;17</title>
<path fill="none" stroke="black" d="M3986.64,-360.68C4043.72,-350.35 4117.77,-336.96 4177.61,-326.13"/>
<polygon fill="black" stroke="black" points="4177.9,-329.64 4187.12,-324.41 4176.66,-322.75 4177.9,-329.64"/>
</g>
<!-- 8 -->
<g id="node9" class="node">
<title>8</title>
<ellipse fill="none" stroke="black" cx="2274.39" cy="-1026" rx="362.53" ry="18"/>
<text text-anchor="middle" x="2274.39" y="-1020.95" font-family="Times New Roman,serif" font-size="14.00">You: &quot;It&#39;s from Central Jamrock Public Library. It belongs to someone named Billie Méjean.&quot;</text>
</g>
<!-- 44 -->
<g id="node45" class="node">
<title>44</title>
<ellipse fill="none" stroke="black" cx="1914.39" cy="-954" rx="130.68" ry="18"/>
<text text-anchor="middle" x="1914.39" y="-948.95" font-family="Times New Roman,serif" font-size="14.00">Alice: &quot;Good, you have a lead.&quot;</text>
</g>
<!-- 8&#45;&gt;44 -->
<g id="edge9" class="edge">
<title>8&#45;&gt;44</title>
<path fill="none" stroke="black" d="M2187.24,-1008.05C2130.08,-996.94 2055.72,-982.48 1999.07,-971.46"/>
<polygon fill="black" stroke="black" points="1999.95,-968.07 1989.47,-969.6 1998.61,-974.94 1999.95,-968.07"/>
</g>
<!-- 9 -->
<g id="node10" class="node">
<title>9</title>
<ellipse fill="none" stroke="black" cx="3193.39" cy="-1098" rx="272.96" ry="18"/>
<text text-anchor="middle" x="3193.39" y="-1092.95" font-family="Times New Roman,serif" font-size="14.00">Alice: &quot;Can you please describe the body &#45;&#45; age, sex, cause of death?&quot;</text>
</g>
<!-- 48 -->
<g id="node49" class="node">
<title>48</title>
<ellipse fill="none" stroke="black" cx="2994.39" cy="-1026" rx="212.06" ry="18"/>
<text text-anchor="middle" x="2994.39" y="-1020.95" font-family="Times New Roman,serif" font-size="14.00">Variable[&quot;boardwalk.corpse_viscal_personal_details&quot;]</text>
</g>
<!-- 9&#45;&gt;48 -->
<g id="edge10" class="edge">
<title>9&#45;&gt;48</title>
<path fill="none" stroke="black" d="M3144.71,-1079.88C3117.16,-1070.19 3082.51,-1058 3053.42,-1047.76"/>
<polygon fill="black" stroke="black" points="3054.59,-1044.47 3044,-1044.45 3052.27,-1051.07 3054.59,-1044.47"/>
</g>
<!-- 10 -->
<g id="node11" class="node">
<title>10</title>
<ellipse fill="none" stroke="black" cx="4398.39" cy="-162" rx="197.73" ry="18"/>
<text text-anchor="middle" x="4398.39" y="-156.95" font-family="Times New Roman,serif" font-size="14.00">Alice: &quot;No field autopsy necessary...&quot; she repeats.</text>
</g>
<!-- 46 -->
<g id="node47" class="node">
<title>46</title>
<ellipse fill="none" stroke="black" cx="4805.39" cy="-90" rx="285.25" ry="18"/>
<text text-anchor="middle" x="4805.39" y="-84.95" font-family="Times New Roman,serif" font-size="14.00">Perception (Hearing): You can hear her quickly typing in the background.</text>
</g>
<!-- 10&#45;&gt;46 -->
<g id="edge11" class="edge">
<title>10&#45;&gt;46</title>
<path fill="none" stroke="black" d="M4488.21,-145.55C4550.4,-134.86 4633.43,-120.58 4698.94,-109.31"/>
<polygon fill="black" stroke="black" points="4699.37,-112.79 4708.64,-107.64 4698.19,-105.89 4699.37,-112.79"/>
</g>
<!-- 11 -->
<g id="node12" class="node">
<title>11</title>
<ellipse fill="none" stroke="black" cx="3896.39" cy="-522" rx="184.42" ry="18"/>
<text text-anchor="middle" x="3896.39" y="-516.95" font-family="Times New Roman,serif" font-size="14.00">Variable[&quot;boardwalk.library_card_main_hub&quot;]</text>
</g>
<!-- 11&#45;&gt;11 -->
<g id="edge12" class="edge">
<title>11&#45;&gt;11</title>
<path fill="none" stroke="black" d="M4022.41,-535.5C4064.81,-535.54 4098.81,-531.04 4098.81,-522 4098.81,-513.78 4070.65,-509.31 4033.62,-508.6"/>
<polygon fill="black" stroke="black" points="4033.95,-505.1 4023.92,-508.51 4033.89,-512.1 4033.95,-505.1"/>
</g>
<!-- 12 -->
<g id="node13" class="node">
<title>12</title>
<polygon fill="none" stroke="black" points="3896.39,-468 3635.58,-450 3896.39,-432 4157.2,-450 3896.39,-468"/>
<text text-anchor="middle" x="3896.39" y="-444.95" font-family="Times New Roman,serif" font-size="14.00">Variable[&quot;boardwalk.library_card_main_hub&quot;]</text>
</g>
<!-- 11&#45;&gt;12 -->
<g id="edge13" class="edge">
<title>11&#45;&gt;12</title>
<path fill="none" stroke="black" d="M3896.39,-503.7C3896.39,-496.41 3896.39,-487.73 3896.39,-479.54"/>
<polygon fill="black" stroke="black" points="3899.89,-479.62 3896.39,-469.62 3892.89,-479.62 3899.89,-479.62"/>
</g>
<!-- 12&#45;&gt;7 -->
<g id="edge14" class="edge">
<title>12&#45;&gt;7</title>
<path fill="none" stroke="black" d="M3896.39,-431.7C3896.39,-424.41 3896.39,-415.73 3896.39,-407.54"/>
<polygon fill="black" stroke="black" points="3899.89,-407.62 3896.39,-397.62 3892.89,-407.62 3899.89,-407.62"/>
</g>
<!-- 29 -->
<g id="node30" class="node">
<title>29</title>
<ellipse fill="none" stroke="black" cx="1334.39" cy="-1098" rx="134.26" ry="18"/>
<text text-anchor="middle" x="1334.39" y="-1092.95" font-family="Times New Roman,serif" font-size="14.00">You: &quot;I haven&#39;t examined it yet.&quot;</text>
</g>
<!-- 13&#45;&gt;29 -->
<g id="edge15" class="edge">
<title>13&#45;&gt;29</title>
<path fill="none" stroke="black" d="M1364.91,-1152.41C1360.46,-1144.62 1355.04,-1135.14 1350.01,-1126.33"/>
<polygon fill="black" stroke="black" points="1353.11,-1124.71 1345.11,-1117.76 1347.03,-1128.18 1353.11,-1124.71"/>
</g>
<!-- 14 -->
<g id="node15" class="node">
<title>14</title>
<ellipse fill="none" stroke="black" cx="5504.39" cy="-306" rx="58.52" ry="18"/>
<text text-anchor="middle" x="5504.39" y="-300.95" font-family="Times New Roman,serif" font-size="14.00">IsKimHere()</text>
</g>
<!-- 14&#45;&gt;14 -->
<g id="edge16" class="edge">
<title>14&#45;&gt;14</title>
<path fill="none" stroke="black" d="M5545.33,-319.23C5564.32,-320.68 5580.91,-316.27 5580.91,-306 5580.91,-297.82 5570.37,-293.36 5556.48,-292.61"/>
<polygon fill="black" stroke="black" points="5556.79,-289.11 5546.84,-292.75 5556.89,-296.11 5556.79,-289.11"/>
</g>
<!-- 15 -->
<g id="node16" class="node">
<title>15</title>
<polygon fill="none" stroke="black" points="5504.39,-252 5421.64,-234 5504.39,-216 5587.15,-234 5504.39,-252"/>
<text text-anchor="middle" x="5504.39" y="-228.95" font-family="Times New Roman,serif" font-size="14.00">IsKimHere()</text>
</g>
<!-- 14&#45;&gt;15 -->
<g id="edge17" class="edge">
<title>14&#45;&gt;15</title>
<path fill="none" stroke="black" d="M5504.39,-287.7C5504.39,-280.41 5504.39,-271.73 5504.39,-263.54"/>
<polygon fill="black" stroke="black" points="5507.89,-263.62 5504.39,-253.62 5500.89,-263.62 5507.89,-263.62"/>
</g>
<!-- 54 -->
<g id="node55" class="node">
<title>54</title>
<ellipse fill="none" stroke="black" cx="5446.39" cy="-162" rx="527.33" ry="18"/>
<text text-anchor="middle" x="5446.39" y="-156.95" font-family="Times New Roman,serif" font-size="14.00">Kim Kitsuragi: &quot;It looked like an accident to me, Alice,&quot; the lieutenant rushes in to say. &quot;But that&#39;s for the guys in processing to confirm.&quot;</text>
</g>
<!-- 15&#45;&gt;54 -->
<g id="edge18" class="edge">
<title>15&#45;&gt;54</title>
<path fill="none" stroke="black" d="M5492.37,-218.5C5485.36,-210.03 5476.3,-199.1 5468.09,-189.18"/>
<polygon fill="black" stroke="black" points="5470.9,-187.09 5461.82,-181.62 5465.51,-191.56 5470.9,-187.09"/>
</g>
<!-- 16 -->
<g id="node17" class="node">
<title>16</title>
<polygon fill="none" stroke="black" points="4805.39,-180 4709.61,-162 4805.39,-144 4901.17,-162 4805.39,-180"/>
<text text-anchor="middle" x="4805.39" y="-156.95" font-family="Times New Roman,serif" font-size="14.00">!(IsKimHere())</text>
</g>
<!-- 16&#45;&gt;46 -->
<g id="edge19" class="edge">
<title>16&#45;&gt;46</title>
<path fill="none" stroke="black" d="M4805.39,-143.7C4805.39,-136.41 4805.39,-127.73 4805.39,-119.54"/>
<polygon fill="black" stroke="black" points="4808.89,-119.62 4805.39,-109.62 4801.89,-119.62 4808.89,-119.62"/>
</g>
<!-- 67 -->
<g id="node68" class="node">
<title>67</title>
<ellipse fill="none" stroke="black" cx="4283.39" cy="-234" rx="181.86" ry="18"/>
<text text-anchor="middle" x="4283.39" y="-228.95" font-family="Times New Roman,serif" font-size="14.00">Alice: &quot;Any information on the library card?&quot;</text>
</g>
<!-- 17&#45;&gt;67 -->
<g id="edge20" class="edge">
<title>17&#45;&gt;67</title>
<path fill="none" stroke="black" d="M4283.39,-287.7C4283.39,-280.41 4283.39,-271.73 4283.39,-263.54"/>
<polygon fill="black" stroke="black" points="4286.89,-263.62 4283.39,-253.62 4279.89,-263.62 4286.89,-263.62"/>
</g>
<!-- 18 -->
<g id="node19" class="node">
<title>18</title>
<ellipse fill="none" stroke="black" cx="1310.39" cy="-666" rx="120.96" ry="18"/>
<text text-anchor="middle" x="1310.39" y="-660.95" font-family="Times New Roman,serif" font-size="14.00">You: &quot;We&#39;re taking the case.&quot;</text>
</g>
<!-- 40 -->
<g id="node41" class="node">
<title>40</title>
<ellipse fill="none" stroke="black" cx="1336.39" cy="-594" rx="653.75" ry="18"/>
<text text-anchor="middle" x="1336.39" y="-588.95" font-family="Times New Roman,serif" font-size="14.00">Alice: &quot;I have assigned the case to Lieutenant Kim Kitsuragi. Please follow up on this library lead to identify the man. We&#39;ll send someone to take the body to the morgue.&quot;</text>
</g>
<!-- 18&#45;&gt;40 -->
<g id="edge21" class="edge">
<title>18&#45;&gt;40</title>
<path fill="none" stroke="black" d="M1316.82,-647.7C1319.62,-640.15 1322.97,-631.12 1326.11,-622.68"/>
<polygon fill="black" stroke="black" points="1329.31,-624.12 1329.51,-613.52 1322.75,-621.68 1329.31,-624.12"/>
</g>
<!-- 19 -->
<g id="node20" class="node">
<title>19</title>
<ellipse fill="none" stroke="black" cx="581.39" cy="-666" rx="58.52" ry="18"/>
<text text-anchor="middle" x="581.39" y="-660.95" font-family="Times New Roman,serif" font-size="14.00">IsKimHere()</text>
</g>
<!-- 20 -->
<g id="node21" class="node">
<title>20</title>
<polygon fill="none" stroke="black" points="581.39,-612 498.64,-594 581.39,-576 664.15,-594 581.39,-612"/>
<text text-anchor="middle" x="581.39" y="-588.95" font-family="Times New Roman,serif" font-size="14.00">IsKimHere()</text>
</g>
<!-- 19&#45;&gt;20 -->
<g id="edge22" class="edge">
<title>19&#45;&gt;20</title>
<path fill="none" stroke="black" d="M581.39,-647.7C581.39,-640.41 581.39,-631.73 581.39,-623.54"/>
<polygon fill="black" stroke="black" points="584.89,-623.62 581.39,-613.62 577.89,-623.62 584.89,-623.62"/>
</g>
<!-- 21 -->
<g id="node22" class="node">
<title>21</title>
<polygon fill="none" stroke="black" points="310.39,-612 214.61,-594 310.39,-576 406.17,-594 310.39,-612"/>
<text text-anchor="middle" x="310.39" y="-588.95" font-family="Times New Roman,serif" font-size="14.00">!(IsKimHere())</text>
</g>
<!-- 19&#45;&gt;21 -->
<g id="edge23" class="edge">
<title>19&#45;&gt;21</title>
<path fill="none" stroke="black" d="M537.55,-653.68C489.08,-641.16 411.16,-621.03 360.37,-607.91"/>
<polygon fill="black" stroke="black" points="361.36,-604.55 350.8,-605.44 359.61,-611.33 361.36,-604.55"/>
</g>
<!-- 30 -->
<g id="node31" class="node">
<title>30</title>
<ellipse fill="none" stroke="black" cx="665.39" cy="-522" rx="324.15" ry="18"/>
<text text-anchor="middle" x="665.39" y="-516.95" font-family="Times New Roman,serif" font-size="14.00">Kim Kitsuragi: &quot;Assign it to someone else, Alice &#45;&#45; we&#39;ve got enough on our plate.&quot;</text>
</g>
<!-- 20&#45;&gt;30 -->
<g id="edge24" class="edge">
<title>20&#45;&gt;30</title>
<path fill="none" stroke="black" d="M597.99,-579.17C608.86,-570.11 623.38,-558.01 636.16,-547.36"/>
<polygon fill="black" stroke="black" points="638.06,-550.33 643.5,-541.24 633.57,-544.96 638.06,-550.33"/>
</g>
<!-- 68 -->
<g id="node69" class="node">
<title>68</title>
<ellipse fill="none" stroke="black" cx="161.39" cy="-522" rx="161.39" ry="18"/>
<text text-anchor="middle" x="161.39" y="-516.95" font-family="Times New Roman,serif" font-size="14.00">You: &quot;Please assign it to someone else.&quot;</text>
</g>
<!-- 21&#45;&gt;68 -->
<g id="edge25" class="edge">
<title>21&#45;&gt;68</title>
<path fill="none" stroke="black" d="M284.09,-580.65C263.04,-570.76 232.99,-556.64 207.89,-544.85"/>
<polygon fill="black" stroke="black" points="209.39,-541.68 198.85,-540.6 206.42,-548.02 209.39,-541.68"/>
</g>
<!-- 22 -->
<g id="node23" class="node">
<title>22</title>
<ellipse fill="none" stroke="black" cx="4574.39" cy="-378" rx="398.36" ry="18"/>
<text text-anchor="middle" x="4574.39" y="-372.95" font-family="Times New Roman,serif" font-size="14.00">Alice: &quot;What about his belongings? Did you examine his clothes?&quot; She goes on as if nothing happened.</text>
</g>
<!-- 22&#45;&gt;17 -->
<g id="edge26" class="edge">
<title>22&#45;&gt;17</title>
<path fill="none" stroke="black" d="M4503.2,-359.88C4461.8,-349.92 4409.42,-337.32 4366.17,-326.91"/>
<polygon fill="black" stroke="black" points="4367.12,-323.54 4356.57,-324.6 4365.48,-330.35 4367.12,-323.54"/>
</g>
<!-- 23 -->
<g id="node24" class="node">
<title>23</title>
<ellipse fill="none" stroke="black" cx="1294.39" cy="-1026" rx="214.11" ry="18"/>
<text text-anchor="middle" x="1294.39" y="-1020.95" font-family="Times New Roman,serif" font-size="14.00">Alice: You can hear her sigh audibly on the other side.</text>
</g>
<!-- 53 -->
<g id="node54" class="node">
<title>53</title>
<ellipse fill="none" stroke="black" cx="1070.39" cy="-954" rx="173.16" ry="18"/>
<text text-anchor="middle" x="1070.39" y="-948.95" font-family="Times New Roman,serif" font-size="14.00">Authority: So unprofessional of you... Pity!</text>
</g>
<!-- 23&#45;&gt;53 -->
<g id="edge27" class="edge">
<title>23&#45;&gt;53</title>
<path fill="none" stroke="black" d="M1240.45,-1008.14C1208.44,-998.14 1167.69,-985.41 1134.11,-974.91"/>
<polygon fill="black" stroke="black" points="1135.51,-971.68 1124.92,-972.04 1133.42,-978.36 1135.51,-971.68"/>
</g>
<!-- 25 -->
<g id="node26" class="node">
<title>25</title>
<polygon fill="none" stroke="black" points="4188.39,-972 4105.64,-954 4188.39,-936 4271.15,-954 4188.39,-972"/>
<text text-anchor="middle" x="4188.39" y="-948.95" font-family="Times New Roman,serif" font-size="14.00">IsKimHere()</text>
</g>
<!-- 24&#45;&gt;25 -->
<g id="edge28" class="edge">
<title>24&#45;&gt;25</title>
<path fill="none" stroke="black" d="M4188.39,-1007.7C4188.39,-1000.41 4188.39,-991.73 4188.39,-983.54"/>
<polygon fill="black" stroke="black" points="4191.89,-983.62 4188.39,-973.62 4184.89,-983.62 4191.89,-983.62"/>
</g>
<!-- 26 -->
<g id="node27" class="node">
<title>26</title>
<polygon fill="none" stroke="black" points="4512.39,-972 4416.61,-954 4512.39,-936 4608.17,-954 4512.39,-972"/>
<text text-anchor="middle" x="4512.39" y="-948.95" font-family="Times New Roman,serif" font-size="14.00">!(IsKimHere())</text>
</g>
<!-- 24&#45;&gt;26 -->
<g id="edge29" class="edge">
<title>24&#45;&gt;26</title>
<path fill="none" stroke="black" d="M4235.16,-1014.9C4294.22,-1002.14 4395.65,-980.22 4458.08,-966.73"/>
<polygon fill="black" stroke="black" points="4458.75,-970.17 4467.78,-964.64 4457.27,-963.33 4458.75,-970.17"/>
</g>
<!-- 34 -->
<g id="node35" class="node">
<title>34</title>
<ellipse fill="none" stroke="black" cx="4188.39" cy="-882" rx="824.69" ry="18"/>
<text text-anchor="middle" x="4188.39" y="-876.95" font-family="Times New Roman,serif" font-size="14.00">Kim Kitsuragi: &quot;The man was about 173 cm tall, stout, with dark hair and a moustache. We suspect he might have been inebriated when he slipped &#45;&#45; there were bottles all around him, and traces of vomit on his shirt.&quot;</text>
</g>
<!-- 25&#45;&gt;34 -->
<g id="edge30" class="edge">
<title>25&#45;&gt;34</title>
<path fill="none" stroke="black" d="M4188.39,-935.7C4188.39,-928.41 4188.39,-919.73 4188.39,-911.54"/>
<polygon fill="black" stroke="black" points="4191.89,-911.62 4188.39,-901.62 4184.89,-911.62 4191.89,-911.62"/>
</g>
<!-- 26&#45;&gt;39 -->
<g id="edge31" class="edge">
<title>26&#45;&gt;39</title>
<path fill="none" stroke="black" d="M4533.13,-968.36C4575.24,-997.06 4663.22,-1066.06 4619.39,-1116 4555.07,-1189.29 3914.28,-1224.07 3629.54,-1236"/>
<polygon fill="black" stroke="black" points="3629.68,-1232.49 3619.83,-1236.41 3629.97,-1239.49 3629.68,-1232.49"/>
</g>
<!-- 27 -->
<g id="node28" class="node">
<title>27</title>
<ellipse fill="none" stroke="black" cx="2083.39" cy="-882" rx="717.73" ry="18"/>
<text text-anchor="middle" x="2083.39" y="-876.95" font-family="Times New Roman,serif" font-size="14.00">You: &quot;An unidentified middle&#45;aged man. Height 170&#45;175 cm, dark hair, medium build. Looks like he slipped, fell through a hole in the boardwalk and hit his head against the metal bench.&quot;</text>
</g>
<!-- 55 -->
<g id="node56" class="node">
<title>55</title>
<ellipse fill="none" stroke="black" cx="1755.39" cy="-1386" rx="58.52" ry="18"/>
<text text-anchor="middle" x="1755.39" y="-1380.95" font-family="Times New Roman,serif" font-size="14.00">IsKimHere()</text>
</g>
<!-- 27&#45;&gt;55 -->
<g id="edge32" class="edge">
<title>27&#45;&gt;55</title>
<path fill="none" stroke="black" d="M1883.17,-899.75C1834.77,-907.64 1791.91,-919.18 1774.39,-936 1745.22,-964.02 1755.39,-984.55 1755.39,-1025 1755.39,-1243 1755.39,-1243 1755.39,-1243 1755.39,-1282.26 1755.39,-1327.62 1755.39,-1356.31"/>
<polygon fill="black" stroke="black" points="1751.89,-1356 1755.39,-1366 1758.89,-1356 1751.89,-1356"/>
</g>
<!-- 28 -->
<g id="node29" class="node">
<title>28</title>
<ellipse fill="none" stroke="black" cx="3246.39" cy="-1170" rx="167.02" ry="18"/>
<text text-anchor="middle" x="3246.39" y="-1164.95" font-family="Times New Roman,serif" font-size="14.00">You: &quot;No, seems like it was an accident.&quot;</text>
</g>
<!-- 28&#45;&gt;9 -->
<g id="edge33" class="edge">
<title>28&#45;&gt;9</title>
<path fill="none" stroke="black" d="M3233.29,-1151.7C3227.26,-1143.73 3219.97,-1134.1 3213.28,-1125.26"/>
<polygon fill="black" stroke="black" points="3216.08,-1123.17 3207.25,-1117.31 3210.5,-1127.4 3216.08,-1123.17"/>
</g>
<!-- 29&#45;&gt;23 -->
<g id="edge34" class="edge">
<title>29&#45;&gt;23</title>
<path fill="none" stroke="black" d="M1324.5,-1079.7C1320.05,-1071.9 1314.68,-1062.51 1309.72,-1053.83"/>
<polygon fill="black" stroke="black" points="1312.92,-1052.36 1304.91,-1045.42 1306.84,-1055.84 1312.92,-1052.36"/>
</g>
<!-- 65 -->
<g id="node66" class="node">
<title>65</title>
<ellipse fill="none" stroke="black" cx="590.39" cy="-450" rx="535.52" ry="18"/>
<text text-anchor="middle" x="590.39" y="-444.95" font-family="Times New Roman,serif" font-size="14.00">Alice: &quot;Great, I&#39;ll give it to your colleagues. You don&#39;t have to worry about the case anymore, we&#39;ll send our officers to take away the body.&quot;</text>
</g>
<!-- 30&#45;&gt;65 -->
<g id="edge35" class="edge">
<title>30&#45;&gt;65</title>
<path fill="none" stroke="black" d="M646.85,-503.7C637.93,-495.37 627.06,-485.22 617.25,-476.07"/>
<polygon fill="black" stroke="black" points="619.78,-473.64 610.08,-469.38 615.01,-478.76 619.78,-473.64"/>
</g>
<!-- 31 -->
<g id="node32" class="node">
<title>31</title>
<ellipse fill="none" stroke="black" cx="4943.39" cy="-234" rx="460.29" ry="18"/>
<text text-anchor="middle" x="4943.39" y="-228.95" font-family="Times New Roman,serif" font-size="14.00">Alice: &quot;I see.&quot; Silence. &quot;This is something you should discuss with the Lieutenant Kitsuragi, as you&#39;re sharing the case.&quot;</text>
</g>
<!-- 31&#45;&gt;46 -->
<g id="edge36" class="edge">
<title>31&#45;&gt;46</title>
<path fill="none" stroke="black" d="M4796.76,-216.49C4753.37,-208.4 4713.83,-196.69 4700.39,-180 4690.35,-167.54 4692,-157.63 4700.39,-144 4708.53,-130.78 4721.1,-120.73 4734.74,-113.14"/>
<polygon fill="black" stroke="black" points="4736.13,-116.37 4743.48,-108.73 4732.97,-110.12 4736.13,-116.37"/>
</g>
<!-- 32 -->
<g id="node33" class="node">
<title>32</title>
<ellipse fill="none" stroke="black" cx="963.39" cy="-306" rx="137.85" ry="18"/>
<text text-anchor="middle" x="963.39" y="-300.95" font-family="Times New Roman,serif" font-size="14.00">Jump to: [The actual Radio HUB]</text>
</g>
<!-- 33 -->
<g id="node34" class="node">
<title>33</title>
<ellipse fill="none" stroke="black" cx="590.39" cy="-378" rx="364.07" ry="18"/>
<text text-anchor="middle" x="590.39" y="-372.95" font-family="Times New Roman,serif" font-size="14.00">Alice: &quot;That&#39;s all for now. Thank you for reporting in. Is there anything else I can do for you?&quot;</text>
</g>
<!-- 33&#45;&gt;32 -->
<g id="edge37" class="edge">
<title>33&#45;&gt;32</title>
<path fill="none" stroke="black" d="M680.21,-360.14C739.54,-349.01 816.93,-334.49 875.81,-323.44"/>
<polygon fill="black" stroke="black" points="876.28,-326.91 885.46,-321.62 874.99,-320.03 876.28,-326.91"/>
</g>
<!-- 34&#45;&gt;39 -->
<g id="edge38" class="edge">
<title>34&#45;&gt;39</title>
<path fill="none" stroke="black" d="M3806.88,-898.39C3645.61,-915.7 3494.39,-951.52 3494.39,-1025 3494.39,-1099 3494.39,-1099 3494.39,-1099 3494.39,-1138.26 3494.39,-1183.62 3494.39,-1212.31"/>
<polygon fill="black" stroke="black" points="3490.89,-1212 3494.39,-1222 3497.89,-1212 3490.89,-1212"/>
</g>
<!-- 35 -->
<g id="node36" class="node">
<title>35</title>
<ellipse fill="none" stroke="black" cx="4095.39" cy="-738" rx="58.52" ry="18"/>
<text text-anchor="middle" x="4095.39" y="-732.95" font-family="Times New Roman,serif" font-size="14.00">IsKimHere()</text>
</g>
<!-- 36 -->
<g id="node37" class="node">
<title>36</title>
<polygon fill="none" stroke="black" points="4095.39,-684 4012.64,-666 4095.39,-648 4178.15,-666 4095.39,-684"/>
<text text-anchor="middle" x="4095.39" y="-660.95" font-family="Times New Roman,serif" font-size="14.00">IsKimHere()</text>
</g>
<!-- 35&#45;&gt;36 -->
<g id="edge39" class="edge">
<title>35&#45;&gt;36</title>
<path fill="none" stroke="black" d="M4095.39,-719.7C4095.39,-712.41 4095.39,-703.73 4095.39,-695.54"/>
<polygon fill="black" stroke="black" points="4098.89,-695.62 4095.39,-685.62 4091.89,-695.62 4098.89,-695.62"/>
</g>
<!-- 37 -->
<g id="node38" class="node">
<title>37</title>
<polygon fill="none" stroke="black" points="4592.39,-684 4496.61,-666 4592.39,-648 4688.17,-666 4592.39,-684"/>
<text text-anchor="middle" x="4592.39" y="-660.95" font-family="Times New Roman,serif" font-size="14.00">!(IsKimHere())</text>
</g>
<!-- 35&#45;&gt;37 -->
<g id="edge40" class="edge">
<title>35&#45;&gt;37</title>
<path fill="none" stroke="black" d="M4147.64,-729.64C4239.22,-716.74 4428.42,-690.09 4527.96,-676.08"/>
<polygon fill="black" stroke="black" points="4528.43,-679.54 4537.85,-674.68 4527.46,-672.61 4528.43,-679.54"/>
</g>
<!-- 38 -->
<g id="node39" class="node">
<title>38</title>
<ellipse fill="none" stroke="black" cx="4095.39" cy="-594" rx="732.06" ry="18"/>
<text text-anchor="middle" x="4095.39" y="-588.95" font-family="Times New Roman,serif" font-size="14.00">Kim Kitsuragi: &quot;No, we&#39;re not,&quot; the lieutenant rushes in to say. &quot;There is no evidence to suggest that this man was connected to the lynching &#45;&#45; or that we&#39;re dealing with a sequence killer here.&quot;</text>
</g>
<!-- 36&#45;&gt;38 -->
<g id="edge41" class="edge">
<title>36&#45;&gt;38</title>
<path fill="none" stroke="black" d="M4095.39,-647.7C4095.39,-640.41 4095.39,-631.73 4095.39,-623.54"/>
<polygon fill="black" stroke="black" points="4098.89,-623.62 4095.39,-613.62 4091.89,-623.62 4098.89,-623.62"/>
</g>
<!-- 58 -->
<g id="node59" class="node">
<title>58</title>
<ellipse fill="none" stroke="black" cx="4892.39" cy="-594" rx="46.75" ry="18"/>
<text text-anchor="middle" x="4892.39" y="-588.95" font-family="Times New Roman,serif" font-size="14.00">minihubo</text>
</g>
<!-- 37&#45;&gt;58 -->
<g id="edge42" class="edge">
<title>37&#45;&gt;58</title>
<path fill="none" stroke="black" d="M4638.07,-656.23C4687.29,-646.5 4767.79,-629.83 4836.39,-612 4839.52,-611.19 4842.75,-610.31 4845.99,-609.4"/>
<polygon fill="black" stroke="black" points="4846.88,-612.79 4855.51,-606.65 4844.93,-606.06 4846.88,-612.79"/>
</g>
<!-- 51 -->
<g id="node52" class="node">
<title>51</title>
<ellipse fill="none" stroke="black" cx="3337.39" cy="-522" rx="351.27" ry="18"/>
<text text-anchor="middle" x="3337.39" y="-516.95" font-family="Times New Roman,serif" font-size="14.00">Kim Kitsuragi: &quot;It looked like a simple accident to me, Alice. No field autopsy necessary.&quot;</text>
</g>
<!-- 38&#45;&gt;51 -->
<g id="edge43" class="edge">
<title>38&#45;&gt;51</title>
<path fill="none" stroke="black" d="M3912.38,-576.1C3791.53,-564.94 3633.99,-550.39 3514.38,-539.35"/>
<polygon fill="black" stroke="black" points="3514.72,-535.86 3504.44,-538.43 3514.07,-542.83 3514.72,-535.86"/>
</g>
<!-- 39&#45;&gt;1 -->
<g id="edge44" class="edge">
<title>39&#45;&gt;1</title>
<path fill="none" stroke="black" d="M3384.46,-1232.13C3190.25,-1216.47 2794.92,-1184.59 2667.18,-1174.29"/>
<polygon fill="black" stroke="black" points="2667.77,-1170.83 2657.52,-1173.51 2667.21,-1177.8 2667.77,-1170.83"/>
</g>
<!-- 39&#45;&gt;28 -->
<g id="edge46" class="edge">
<title>39&#45;&gt;28</title>
<path fill="none" stroke="black" d="M3438.73,-1225.29C3402.13,-1214.96 3353.98,-1201.37 3315,-1190.37"/>
<polygon fill="black" stroke="black" points="3316.04,-1187.02 3305.47,-1187.68 3314.14,-1193.76 3316.04,-1187.02"/>
</g>
<!-- 66 -->
<g id="node67" class="node">
<title>66</title>
<ellipse fill="none" stroke="black" cx="3883.39" cy="-1170" rx="176.74" ry="18"/>
<text text-anchor="middle" x="3883.39" y="-1164.95" font-family="Times New Roman,serif" font-size="14.00">You: &quot;Someone might have... pushed him?&quot;</text>
</g>
<!-- 39&#45;&gt;66 -->
<g id="edge45" class="edge">
<title>39&#45;&gt;66</title>
<path fill="none" stroke="black" d="M3571.24,-1227.17C3633.43,-1215.98 3721.32,-1200.16 3788.01,-1188.16"/>
<polygon fill="black" stroke="black" points="3788.22,-1191.68 3797.45,-1186.47 3786.98,-1184.79 3788.22,-1191.68"/>
</g>
<!-- 41 -->
<g id="node42" class="node">
<title>41</title>
<ellipse fill="none" stroke="black" cx="1336.39" cy="-378" rx="364.07" ry="18"/>
<text text-anchor="middle" x="1336.39" y="-372.95" font-family="Times New Roman,serif" font-size="14.00">Alice: &quot;That&#39;s all for now. Thank you for reporting in. Is there anything else I can do for you?&quot;</text>
</g>
<!-- 40&#45;&gt;41 -->
<g id="edge47" class="edge">
<title>40&#45;&gt;41</title>
<path fill="none" stroke="black" d="M1336.39,-575.85C1336.39,-539.14 1336.39,-452.66 1336.39,-407.53"/>
<polygon fill="black" stroke="black" points="1339.89,-407.75 1336.39,-397.75 1332.89,-407.75 1339.89,-407.75"/>
</g>
<!-- 41&#45;&gt;32 -->
<g id="edge48" class="edge">
<title>41&#45;&gt;32</title>
<path fill="none" stroke="black" d="M1246.57,-360.14C1187.24,-349.01 1109.85,-334.49 1050.97,-323.44"/>
<polygon fill="black" stroke="black" points="1051.79,-320.03 1041.32,-321.62 1050.5,-326.91 1051.79,-320.03"/>
</g>
<!-- 42 -->
<g id="node43" class="node">
<title>42</title>
<ellipse fill="none" stroke="black" cx="5236.39" cy="-522" rx="55.96" ry="18"/>
<text text-anchor="middle" x="5236.39" y="-516.95" font-family="Times New Roman,serif" font-size="14.00">You: &quot;Yes.&quot;</text>
</g>
<!-- 42&#45;&gt;31 -->
<g id="edge49" class="edge">
<title>42&#45;&gt;31</title>
<path fill="none" stroke="black" d="M5219.37,-504.39C5170.25,-456.44 5027.99,-317.57 4969.24,-260.23"/>
<polygon fill="black" stroke="black" points="4971.88,-257.92 4962.28,-253.44 4966.99,-262.93 4971.88,-257.92"/>
</g>
<!-- 43 -->
<g id="node44" class="node">
<title>43</title>
<ellipse fill="none" stroke="black" cx="958.39" cy="-882" rx="389.66" ry="18"/>
<text text-anchor="middle" x="958.39" y="-876.95" font-family="Times New Roman,serif" font-size="14.00">Alice: &quot;Do you and Lieutenant Kitsuragi want to take the case or should I assign it to someone else?&quot;</text>
</g>
<!-- 60 -->
<g id="node61" class="node">
<title>60</title>
<ellipse fill="none" stroke="black" cx="958.39" cy="-810" rx="182.89" ry="18"/>
<text text-anchor="middle" x="958.39" y="-804.95" font-family="Times New Roman,serif" font-size="14.00">Variable[&quot;TASK.identify_corpse_boardwalk&quot;]</text>
</g>
<!-- 43&#45;&gt;60 -->
<g id="edge50" class="edge">
<title>43&#45;&gt;60</title>
<path fill="none" stroke="black" d="M958.39,-863.7C958.39,-856.41 958.39,-847.73 958.39,-839.54"/>
<polygon fill="black" stroke="black" points="961.89,-839.62 958.39,-829.62 954.89,-839.62 961.89,-839.62"/>
</g>
<!-- 44&#45;&gt;43 -->
<g id="edge51" class="edge">
<title>44&#45;&gt;43</title>
<path fill="none" stroke="black" d="M1801.44,-944.73C1646.95,-933.42 1366.73,-912.9 1171.97,-898.64"/>
<polygon fill="black" stroke="black" points="1172.46,-895.17 1162.24,-897.93 1171.95,-902.15 1172.46,-895.17"/>
</g>
<!-- 45&#45;&gt;35 -->
<g id="edge52" class="edge">
<title>45&#45;&gt;35</title>
<path fill="none" stroke="black" d="M3054.89,-794.26C3365.61,-777.76 3848.91,-752.09 4026.73,-742.65"/>
<polygon fill="black" stroke="black" points="4026.69,-746.15 4036.49,-742.13 4026.32,-739.16 4026.69,-746.15"/>
</g>
<!-- 46&#45;&gt;6 -->
<g id="edge53" class="edge">
<title>46&#45;&gt;6</title>
<path fill="none" stroke="black" d="M4936.99,-73.59C5028.79,-62.85 5151.64,-48.47 5248.21,-37.16"/>
<polygon fill="black" stroke="black" points="5248.53,-40.65 5258.05,-36.01 5247.71,-33.7 5248.53,-40.65"/>
</g>
<!-- 47 -->
<g id="node48" class="node">
<title>47</title>
<ellipse fill="none" stroke="black" cx="4457.39" cy="-522" rx="53.4" ry="18"/>
<text text-anchor="middle" x="4457.39" y="-516.95" font-family="Times New Roman,serif" font-size="14.00">You: &quot;No.&quot;</text>
</g>
<!-- 52 -->
<g id="node53" class="node">
<title>52</title>
<ellipse fill="none" stroke="black" cx="4435.39" cy="-450" rx="251.47" ry="18"/>
<text text-anchor="middle" x="4435.39" y="-444.95" font-family="Times New Roman,serif" font-size="14.00">Alice: &quot;No? It&#39;s some *other* sequence killer?&quot; Silence. &quot;I see.&quot;</text>
</g>
<!-- 47&#45;&gt;52 -->
<g id="edge54" class="edge">
<title>47&#45;&gt;52</title>
<path fill="none" stroke="black" d="M4451.95,-503.7C4449.61,-496.24 4446.81,-487.32 4444.18,-478.97"/>
<polygon fill="black" stroke="black" points="4447.56,-478.04 4441.22,-469.55 4440.88,-480.14 4447.56,-478.04"/>
</g>
<!-- 49 -->
<g id="node50" class="node">
<title>49</title>
<polygon fill="none" stroke="black" points="2363.39,-972 2063.49,-954 2363.39,-936 2663.29,-954 2363.39,-972"/>
<text text-anchor="middle" x="2363.39" y="-948.95" font-family="Times New Roman,serif" font-size="14.00">Variable[&quot;boardwalk.corpse_viscal_personal_details&quot;]</text>
</g>
<!-- 48&#45;&gt;49 -->
<g id="edge55" class="edge">
<title>48&#45;&gt;49</title>
<path fill="none" stroke="black" d="M2868.97,-1011.09C2754.65,-998.4 2587.25,-979.83 2476.84,-967.59"/>
<polygon fill="black" stroke="black" points="2477.5,-964.14 2467.17,-966.51 2476.72,-971.09 2477.5,-964.14"/>
</g>
<!-- 50 -->
<g id="node51" class="node">
<title>50</title>
<polygon fill="none" stroke="black" points="2994.39,-972 2681.46,-954 2994.39,-936 3307.32,-954 2994.39,-972"/>
<text text-anchor="middle" x="2994.39" y="-948.95" font-family="Times New Roman,serif" font-size="14.00">!(Variable[&quot;boardwalk.corpse_viscal_personal_details&quot;])</text>
</g>
<!-- 48&#45;&gt;50 -->
<g id="edge56" class="edge">
<title>48&#45;&gt;50</title>
<path fill="none" stroke="black" d="M2994.39,-1007.7C2994.39,-1000.41 2994.39,-991.73 2994.39,-983.54"/>
<polygon fill="black" stroke="black" points="2997.89,-983.62 2994.39,-973.62 2990.89,-983.62 2997.89,-983.62"/>
</g>
<!-- 49&#45;&gt;27 -->
<g id="edge57" class="edge">
<title>49&#45;&gt;27</title>
<path fill="none" stroke="black" d="M2307.06,-938.92C2266.05,-928.67 2209.9,-914.63 2164.12,-903.18"/>
<polygon fill="black" stroke="black" points="2165.05,-899.81 2154.5,-900.78 2163.35,-906.6 2165.05,-899.81"/>
</g>
<!-- 50&#45;&gt;2 -->
<g id="edge58" class="edge">
<title>50&#45;&gt;2</title>
<path fill="none" stroke="black" d="M3005.29,-936.41C3010.46,-928.54 3016.78,-918.93 3022.62,-910.04"/>
<polygon fill="black" stroke="black" points="3025.53,-911.99 3028.09,-901.71 3019.68,-908.15 3025.53,-911.99"/>
</g>
<!-- 51&#45;&gt;9 -->
<g id="edge59" class="edge">
<title>51&#45;&gt;9</title>
<path fill="none" stroke="black" d="M3336.99,-540.49C3336.4,-567.29 3335.39,-620.13 3335.39,-665 3335.39,-955 3335.39,-955 3335.39,-955 3335.39,-1009.75 3281.95,-1050.77 3240.63,-1074.3"/>
<polygon fill="black" stroke="black" points="3239.1,-1071.14 3232.03,-1079.03 3242.47,-1077.28 3239.1,-1071.14"/>
</g>
<!-- 52&#45;&gt;22 -->
<g id="edge60" class="edge">
<title>52&#45;&gt;22</title>
<path fill="none" stroke="black" d="M4469.75,-431.7C4487.88,-422.57 4510.33,-411.26 4529.79,-401.46"/>
<polygon fill="black" stroke="black" points="4531.24,-404.65 4538.59,-397.03 4528.09,-398.4 4531.24,-404.65"/>
</g>
<!-- 53&#45;&gt;43 -->
<g id="edge61" class="edge">
<title>53&#45;&gt;43</title>
<path fill="none" stroke="black" d="M1042.99,-935.88C1028.86,-927.04 1011.41,-916.14 996.03,-906.53"/>
<polygon fill="black" stroke="black" points="997.9,-903.57 987.57,-901.24 994.19,-909.5 997.9,-903.57"/>
</g>
<!-- 54&#45;&gt;46 -->
<g id="edge62" class="edge">
<title>54&#45;&gt;46</title>
<path fill="none" stroke="black" d="M5293.67,-144.32C5191.32,-133.15 5057.18,-118.5 4955.4,-107.38"/>
<polygon fill="black" stroke="black" points="4955.92,-103.92 4945.6,-106.31 4955.16,-110.88 4955.92,-103.92"/>
</g>
<!-- 56 -->
<g id="node57" class="node">
<title>56</title>
<polygon fill="none" stroke="black" points="1509.39,-1332 1426.64,-1314 1509.39,-1296 1592.15,-1314 1509.39,-1332"/>
<text text-anchor="middle" x="1509.39" y="-1308.95" font-family="Times New Roman,serif" font-size="14.00">IsKimHere()</text>
</g>
<!-- 55&#45;&gt;56 -->
<g id="edge63" class="edge">
<title>55&#45;&gt;56</title>
<path fill="none" stroke="black" d="M1713.38,-1373.05C1669.36,-1360.52 1600.41,-1340.9 1555.06,-1328"/>
<polygon fill="black" stroke="black" points="1556.1,-1324.65 1545.53,-1325.28 1554.19,-1331.39 1556.1,-1324.65"/>
</g>
<!-- 57 -->
<g id="node58" class="node">
<title>57</title>
<polygon fill="none" stroke="black" points="2686.39,-1332 2590.61,-1314 2686.39,-1296 2782.17,-1314 2686.39,-1332"/>
<text text-anchor="middle" x="2686.39" y="-1308.95" font-family="Times New Roman,serif" font-size="14.00">!(IsKimHere())</text>
</g>
<!-- 55&#45;&gt;57 -->
<g id="edge64" class="edge">
<title>55&#45;&gt;57</title>
<path fill="none" stroke="black" d="M1797.32,-1373.08C1805.57,-1371.1 1814.21,-1369.28 1822.39,-1368 2094.09,-1325.58 2418.8,-1316.72 2581.93,-1315.12"/>
<polygon fill="black" stroke="black" points="2581.91,-1318.62 2591.88,-1315.03 2581.85,-1311.62 2581.91,-1318.62"/>
</g>
<!-- 56&#45;&gt;5 -->
<g id="edge65" class="edge">
<title>56&#45;&gt;5</title>
<path fill="none" stroke="black" d="M1503.59,-1296.76C1500.83,-1289.04 1497.46,-1279.59 1494.31,-1270.77"/>
<polygon fill="black" stroke="black" points="1497.67,-1269.79 1491.01,-1261.55 1491.08,-1272.14 1497.67,-1269.79"/>
</g>
<!-- 57&#45;&gt;39 -->
<g id="edge66" class="edge">
<title>57&#45;&gt;39</title>
<path fill="none" stroke="black" d="M2750.13,-1307.48C2885.14,-1295.78 3201.74,-1268.35 3375.34,-1253.31"/>
<polygon fill="black" stroke="black" points="3375.4,-1256.82 3385.06,-1252.47 3374.79,-1249.85 3375.4,-1256.82"/>
</g>
<!-- 58&#45;&gt;42 -->
<g id="edge67" class="edge">
<title>58&#45;&gt;42</title>
<path fill="none" stroke="black" d="M4934.64,-585.9C4989.45,-576.47 5087.94,-558.82 5171.39,-540 5175.38,-539.1 5179.5,-538.13 5183.63,-537.12"/>
<polygon fill="black" stroke="black" points="5184.21,-540.58 5193.07,-534.76 5182.52,-533.79 5184.21,-540.58"/>
</g>
<!-- 58&#45;&gt;47 -->
<g id="edge69" class="edge">
<title>58&#45;&gt;47</title>
<path fill="none" stroke="black" d="M4857.67,-581.5C4850.68,-579.45 4843.34,-577.5 4836.39,-576 4716.77,-550.14 4684.49,-557.69 4563.39,-540 4547.88,-537.73 4531.13,-535.12 4515.61,-532.64"/>
<polygon fill="black" stroke="black" points="4516.5,-529.23 4506.07,-531.1 4515.38,-536.15 4516.5,-529.23"/>
</g>
<!-- 63 -->
<g id="node64" class="node">
<title>63</title>
<ellipse fill="none" stroke="black" cx="4867.39" cy="-522" rx="295.48" ry="18"/>
<text text-anchor="middle" x="4867.39" y="-516.95" font-family="Times New Roman,serif" font-size="14.00">You: &quot;Actually, scratch that &#45;&#45; there is no sequence killer, I just made it up.&quot;</text>
</g>
<!-- 58&#45;&gt;63 -->
<g id="edge68" class="edge">
<title>58&#45;&gt;63</title>
<path fill="none" stroke="black" d="M4886.21,-575.7C4883.52,-568.15 4880.29,-559.12 4877.28,-550.68"/>
<polygon fill="black" stroke="black" points="4880.67,-549.77 4874.01,-541.53 4874.08,-552.12 4880.67,-549.77"/>
</g>
<!-- 59 -->
<g id="node60" class="node">
<title>59</title>
<ellipse fill="none" stroke="black" cx="4889.39" cy="-450" rx="184.93" ry="18"/>
<text text-anchor="middle" x="4889.39" y="-444.95" font-family="Times New Roman,serif" font-size="14.00">Alice: &quot;You just made it up?&quot; Silence. &quot;I see.&quot;</text>
</g>
<!-- 59&#45;&gt;22 -->
<g id="edge70" class="edge">
<title>59&#45;&gt;22</title>
<path fill="none" stroke="black" d="M4817.52,-433.03C4771.53,-422.81 4711.55,-409.48 4662.67,-398.62"/>
<polygon fill="black" stroke="black" points="4663.46,-395.21 4652.94,-396.45 4661.94,-402.04 4663.46,-395.21"/>
</g>
<!-- 61 -->
<g id="node62" class="node">
<title>61</title>
<polygon fill="none" stroke="black" points="1284.39,-756 1025.75,-738 1284.39,-720 1543.03,-738 1284.39,-756"/>
<text text-anchor="middle" x="1284.39" y="-732.95" font-family="Times New Roman,serif" font-size="14.00">Variable[&quot;TASK.identify_corpse_boardwalk&quot;]</text>
</g>
<!-- 60&#45;&gt;61 -->
<g id="edge71" class="edge">
<title>60&#45;&gt;61</title>
<path fill="none" stroke="black" d="M1032.36,-793.12C1086.12,-781.57 1158.51,-766.03 1211.91,-754.56"/>
<polygon fill="black" stroke="black" points="1212.49,-758.02 1221.53,-752.5 1211.02,-751.18 1212.49,-758.02"/>
</g>
<!-- 62 -->
<g id="node63" class="node">
<title>62</title>
<polygon fill="none" stroke="black" points="684.39,-756 412.72,-738 684.39,-720 956.06,-738 684.39,-756"/>
<text text-anchor="middle" x="684.39" y="-732.95" font-family="Times New Roman,serif" font-size="14.00">!(Variable[&quot;TASK.identify_corpse_boardwalk&quot;])</text>
</g>
<!-- 60&#45;&gt;62 -->
<g id="edge72" class="edge">
<title>60&#45;&gt;62</title>
<path fill="none" stroke="black" d="M894.5,-792.68C851,-781.56 793.6,-766.9 749.79,-755.71"/>
<polygon fill="black" stroke="black" points="750.7,-752.33 740.14,-753.24 748.96,-759.11 750.7,-752.33"/>
</g>
<!-- 61&#45;&gt;18 -->
<g id="edge73" class="edge">
<title>61&#45;&gt;18</title>
<path fill="none" stroke="black" d="M1290.68,-720.05C1293.48,-712.52 1296.86,-703.44 1300.01,-694.94"/>
<polygon fill="black" stroke="black" points="1303.25,-696.29 1303.45,-685.69 1296.68,-693.85 1303.25,-696.29"/>
</g>
<!-- 62&#45;&gt;19 -->
<g id="edge74" class="edge">
<title>62&#45;&gt;19</title>
<path fill="none" stroke="black" d="M661.02,-721.12C647.06,-711.63 629.12,-699.44 613.81,-689.03"/>
<polygon fill="black" stroke="black" points="616.16,-686.4 605.92,-683.67 612.23,-692.19 616.16,-686.4"/>
</g>
<!-- 63&#45;&gt;59 -->
<g id="edge75" class="edge">
<title>63&#45;&gt;59</title>
<path fill="none" stroke="black" d="M4872.83,-503.7C4875.17,-496.24 4877.97,-487.32 4880.6,-478.97"/>
<polygon fill="black" stroke="black" points="4883.9,-480.14 4883.56,-469.55 4877.22,-478.04 4883.9,-480.14"/>
</g>
<!-- 64&#45;&gt;8 -->
<g id="edge76" class="edge">
<title>64&#45;&gt;8</title>
<path fill="none" stroke="black" d="M2403.56,-1079.88C2380.56,-1070.46 2351.8,-1058.69 2327.26,-1048.64"/>
<polygon fill="black" stroke="black" points="2328.66,-1045.43 2318.08,-1044.88 2326.01,-1051.91 2328.66,-1045.43"/>
</g>
<!-- 65&#45;&gt;33 -->
<g id="edge77" class="edge">
<title>65&#45;&gt;33</title>
<path fill="none" stroke="black" d="M590.39,-431.7C590.39,-424.41 590.39,-415.73 590.39,-407.54"/>
<polygon fill="black" stroke="black" points="593.89,-407.62 590.39,-397.62 586.89,-407.62 593.89,-407.62"/>
</g>
<!-- 66&#45;&gt;3 -->
<g id="edge78" class="edge">
<title>66&#45;&gt;3</title>
<path fill="none" stroke="black" d="M3927.22,-1152.23C3952.13,-1142.71 3983.57,-1130.68 4010.27,-1120.47"/>
<polygon fill="black" stroke="black" points="4011.5,-1123.74 4019.59,-1116.9 4009,-1117.21 4011.5,-1123.74"/>
</g>
<!-- 67&#45;&gt;10 -->
<g id="edge79" class="edge">
<title>67&#45;&gt;10</title>
<path fill="none" stroke="black" d="M4311.52,-215.88C4326.28,-206.89 4344.57,-195.76 4360.55,-186.03"/>
<polygon fill="black" stroke="black" points="4362.13,-189.17 4368.86,-180.98 4358.5,-183.19 4362.13,-189.17"/>
</g>
<!-- 68&#45;&gt;65 -->
<g id="edge80" class="edge">
<title>68&#45;&gt;65</title>
<path fill="none" stroke="black" d="M250.02,-506.54C315,-495.94 403.82,-481.44 474.44,-469.92"/>
<polygon fill="black" stroke="black" points="474.81,-473.41 484.11,-468.34 473.68,-466.5 474.81,-473.41"/>
</g>
</g>
</svg>
