<?xml version="1.0" encoding="UTF-8" standalone="no"?>
<!DOCTYPE svg PUBLIC "-//W3C//DTD SVG 1.1//EN"
 "http://www.w3.org/Graphics/SVG/1.1/DTD/svg11.dtd">
<!-- Generated by graphviz version 12.2.1 (20241206.2353)
 -->
<!-- Title: G Pages: 1 -->
<svg width="3089pt" height="908pt"
 viewBox="0.00 0.00 3088.98 908.00" xmlns="http://www.w3.org/2000/svg" xmlns:xlink="http://www.w3.org/1999/xlink">
<g id="graph0" class="graph" transform="scale(1 1) rotate(0) translate(4 904)">
<title>G</title>
<polygon fill="white" stroke="none" points="-4,4 -4,-904 3084.98,-904 3084.98,4 -4,4"/>
<!-- 0 -->
<g id="node1" class="node">
<title>0</title>
<ellipse fill="none" stroke="black" cx="1705.42" cy="-810" rx="39.07" ry="18"/>
<text text-anchor="middle" x="1705.42" y="-804.95" font-family="Times New Roman,serif" font-size="14.00">START</text>
</g>
<!-- 1 -->
<g id="node2" class="node">
<title>1</title>
<ellipse fill="none" stroke="black" cx="1724.42" cy="-738" rx="29.86" ry="18"/>
<text text-anchor="middle" x="1724.42" y="-732.95" font-family="Times New Roman,serif" font-size="14.00">input</text>
</g>
<!-- 0&#45;&gt;1 -->
<g id="edge1" class="edge">
<title>0&#45;&gt;1</title>
<path fill="none" stroke="black" d="M1710.12,-791.7C1712.14,-784.24 1714.56,-775.32 1716.83,-766.97"/>
<polygon fill="black" stroke="black" points="1720.14,-768.13 1719.38,-757.57 1713.38,-766.3 1720.14,-768.13"/>
</g>
<!-- 23 -->
<g id="node24" class="node">
<title>23</title>
<ellipse fill="none" stroke="black" cx="1792.42" cy="-666" rx="545.25" ry="18"/>
<text text-anchor="middle" x="1792.42" y="-660.95" font-family="Times New Roman,serif" font-size="14.00">Trash Can: 上面还残留着蛋黄酱和番茄酱的痕迹，还有一点发霉的番茄角。包装纸上写着：“瑞瓦肖烤肉。”</text>
</g>
<!-- 1&#45;&gt;23 -->
<g id="edge2" class="edge">
<title>1&#45;&gt;23</title>
<path fill="none" stroke="black" d="M1738.84,-722.15C1747.25,-713.5 1758.08,-702.35 1767.8,-692.35"/>
<polygon fill="black" stroke="black" points="1770.11,-694.99 1774.57,-685.38 1765.09,-690.11 1770.11,-694.99"/>
</g>
<!-- 2 -->
<g id="node3" class="node">
<title>2</title>
<ellipse fill="none" stroke="black" cx="1864.42" cy="-810" rx="102.02" ry="18"/>
<text text-anchor="middle" x="1864.42" y="-804.95" font-family="Times New Roman,serif" font-size="14.00">You: 检查回收品。</text>
</g>
<!-- 18 -->
<g id="node19" class="node">
<title>18</title>
<ellipse fill="none" stroke="black" cx="1864.42" cy="-738" rx="72.85" ry="18"/>
<text text-anchor="middle" x="1864.42" y="-732.95" font-family="Times New Roman,serif" font-size="14.00">You: [离开。]</text>
</g>
<!-- 2&#45;&gt;18 -->
<g id="edge3" class="edge">
<title>2&#45;&gt;18</title>
<path fill="none" stroke="black" d="M1864.42,-791.7C1864.42,-784.41 1864.42,-775.73 1864.42,-767.54"/>
<polygon fill="black" stroke="black" points="1867.92,-767.62 1864.42,-757.62 1860.92,-767.62 1867.92,-767.62"/>
</g>
<!-- 3 -->
<g id="node4" class="node">
<title>3</title>
<ellipse fill="none" stroke="black" cx="2955.42" cy="-882" rx="125.56" ry="18"/>
<text text-anchor="middle" x="2955.42" y="-876.95" font-family="Times New Roman,serif" font-size="14.00">You: 检查烤肉包装纸。</text>
</g>
<!-- 24 -->
<g id="node25" class="node">
<title>24</title>
<ellipse fill="none" stroke="black" cx="2955.42" cy="-810" rx="27" ry="18"/>
<text text-anchor="middle" x="2955.42" y="-804.95" font-family="Times New Roman,serif" font-size="14.00">24</text>
</g>
<!-- 3&#45;&gt;24 -->
<g id="edge4" class="edge">
<title>3&#45;&gt;24</title>
<path fill="none" stroke="black" d="M2955.42,-863.7C2955.42,-856.41 2955.42,-847.73 2955.42,-839.54"/>
<polygon fill="black" stroke="black" points="2958.92,-839.62 2955.42,-829.62 2951.92,-839.62 2958.92,-839.62"/>
</g>
<!-- 4 -->
<g id="node5" class="node">
<title>4</title>
<ellipse fill="none" stroke="black" cx="804.42" cy="-666" rx="58.52" ry="18"/>
<text text-anchor="middle" x="804.42" y="-660.95" font-family="Times New Roman,serif" font-size="14.00">IsKimHere()</text>
</g>
<!-- 6 -->
<g id="node7" class="node">
<title>6</title>
<polygon fill="none" stroke="black" points="556.42,-540 460.64,-522 556.42,-504 652.2,-522 556.42,-540"/>
<text text-anchor="middle" x="556.42" y="-516.95" font-family="Times New Roman,serif" font-size="14.00">!(IsKimHere())</text>
</g>
<!-- 4&#45;&gt;6 -->
<g id="edge5" class="edge">
<title>4&#45;&gt;6</title>
<path fill="none" stroke="black" d="M768.31,-651.38C743.78,-641.59 710.91,-627.45 683.42,-612 647,-591.53 608.07,-563.18 583.05,-544.02"/>
<polygon fill="black" stroke="black" points="585.43,-541.43 575.38,-538.08 581.15,-546.97 585.43,-541.43"/>
</g>
<!-- 7 -->
<g id="node8" class="node">
<title>7</title>
<ellipse fill="none" stroke="black" cx="835.42" cy="-594" rx="143.48" ry="18"/>
<text text-anchor="middle" x="835.42" y="-588.95" font-family="Times New Roman,serif" font-size="14.00">Jump to: [trash can hub boardwalk]</text>
</g>
<!-- 4&#45;&gt;7 -->
<g id="edge6" class="edge">
<title>4&#45;&gt;7</title>
<path fill="none" stroke="black" d="M812.08,-647.7C815.46,-640.07 819.51,-630.92 823.29,-622.4"/>
<polygon fill="black" stroke="black" points="826.38,-624.05 827.23,-613.49 819.98,-621.21 826.38,-624.05"/>
</g>
<!-- 5 -->
<g id="node6" class="node">
<title>5</title>
<polygon fill="none" stroke="black" points="820.42,-108 737.66,-90 820.42,-72 903.17,-90 820.42,-108"/>
<text text-anchor="middle" x="820.42" y="-84.95" font-family="Times New Roman,serif" font-size="14.00">IsKimHere()</text>
</g>
<!-- 13 -->
<g id="node14" class="node">
<title>13</title>
<ellipse fill="none" stroke="black" cx="875.42" cy="-18" rx="143.48" ry="18"/>
<text text-anchor="middle" x="875.42" y="-12.95" font-family="Times New Roman,serif" font-size="14.00">Jump to: [trash can hub boardwalk]</text>
</g>
<!-- 5&#45;&gt;13 -->
<g id="edge7" class="edge">
<title>5&#45;&gt;13</title>
<path fill="none" stroke="black" d="M832.08,-74.15C838.68,-65.76 847.12,-55.02 854.79,-45.25"/>
<polygon fill="black" stroke="black" points="857.47,-47.51 860.9,-37.48 851.97,-43.18 857.47,-47.51"/>
</g>
<!-- 14 -->
<g id="node15" class="node">
<title>14</title>
<ellipse fill="none" stroke="black" cx="574.42" cy="-306" rx="380.44" ry="18"/>
<text text-anchor="middle" x="574.42" y="-300.95" font-family="Times New Roman,serif" font-size="14.00">Perception (Smell): 在这种味道下，你很难集中精神。海风带来了一些安慰。</text>
</g>
<!-- 6&#45;&gt;14 -->
<g id="edge8" class="edge">
<title>6&#45;&gt;14</title>
<path fill="none" stroke="black" d="M557.86,-503.85C560.95,-467.14 568.22,-380.66 572.02,-335.53"/>
<polygon fill="black" stroke="black" points="575.49,-336 572.84,-325.74 568.52,-335.41 575.49,-336"/>
</g>
<!-- 10 -->
<g id="node11" class="node">
<title>10</title>
<ellipse fill="none" stroke="black" cx="1176.42" cy="-522" rx="505.84" ry="18"/>
<text text-anchor="middle" x="1176.42" y="-516.95" font-family="Times New Roman,serif" font-size="14.00">Electrochemistry: 这就让派对看起来就有点*糟糕*了。不过——不要让它影响到你。*你*是很负责的。</text>
</g>
<!-- 7&#45;&gt;10 -->
<g id="edge9" class="edge">
<title>7&#45;&gt;10</title>
<path fill="none" stroke="black" d="M908.15,-578.07C958.75,-567.68 1026.7,-553.73 1081.55,-542.47"/>
<polygon fill="black" stroke="black" points="1082.12,-545.93 1091.21,-540.49 1080.71,-539.07 1082.12,-545.93"/>
</g>
<!-- 8 -->
<g id="node9" class="node">
<title>8</title>
<ellipse fill="none" stroke="black" cx="574.42" cy="-234" rx="412.18" ry="18"/>
<text text-anchor="middle" x="574.42" y="-228.95" font-family="Times New Roman,serif" font-size="14.00">Encyclopedia: “红阿斯特拉”是黑市版的“阿斯特拉”香烟，因为高焦油含量而闻名。</text>
</g>
<!-- 11 -->
<g id="node12" class="node">
<title>11</title>
<ellipse fill="none" stroke="black" cx="574.42" cy="-162" rx="574.42" ry="18"/>
<text text-anchor="middle" x="574.42" y="-156.95" font-family="Times New Roman,serif" font-size="14.00">Perception (Sight): 不。还不止这些。“利维斯”草莓酒，还有些比尔森啤酒。最好不要捡起来，它们似乎不太卫生。</text>
</g>
<!-- 8&#45;&gt;11 -->
<g id="edge10" class="edge">
<title>8&#45;&gt;11</title>
<path fill="none" stroke="black" d="M574.42,-215.7C574.42,-208.41 574.42,-199.73 574.42,-191.54"/>
<polygon fill="black" stroke="black" points="577.92,-191.62 574.42,-181.62 570.92,-191.62 577.92,-191.62"/>
</g>
<!-- 9 -->
<g id="node10" class="node">
<title>9</title>
<ellipse fill="none" stroke="black" cx="1864.42" cy="-882" rx="102.02" ry="18"/>
<text text-anchor="middle" x="1864.42" y="-876.95" font-family="Times New Roman,serif" font-size="14.00">trash can hub boardwalk</text>
</g>
<!-- 9&#45;&gt;2 -->
<g id="edge12" class="edge">
<title>9&#45;&gt;2</title>
<path fill="none" stroke="black" d="M1864.42,-863.7C1864.42,-856.41 1864.42,-847.73 1864.42,-839.54"/>
<polygon fill="black" stroke="black" points="1867.92,-839.62 1864.42,-829.62 1860.92,-839.62 1867.92,-839.62"/>
</g>
<!-- 9&#45;&gt;4 -->
<g id="edge14" class="edge">
<title>9&#45;&gt;4</title>
<path fill="none" stroke="black" d="M1763.3,-879.34C1508.41,-874.7 857.39,-859.78 823.42,-828 787.53,-794.43 791.76,-731.76 798.08,-695.3"/>
<polygon fill="black" stroke="black" points="801.43,-696.42 799.87,-685.94 794.55,-695.1 801.43,-696.42"/>
</g>
<!-- 17 -->
<g id="node18" class="node">
<title>17</title>
<ellipse fill="none" stroke="black" cx="1240.42" cy="-810" rx="408.08" ry="18"/>
<text text-anchor="middle" x="1240.42" y="-804.95" font-family="Times New Roman,serif" font-size="14.00">Trash Can: 你只找到两支空的‘陶尔洛拉’伏特加酒瓶，还有一罐‘高度波特’啤酒。</text>
</g>
<!-- 9&#45;&gt;17 -->
<g id="edge11" class="edge">
<title>9&#45;&gt;17</title>
<path fill="none" stroke="black" d="M1779.94,-871.52C1681.87,-860.52 1518.07,-842.15 1396.63,-828.52"/>
<polygon fill="black" stroke="black" points="1397.22,-825.07 1386.89,-827.43 1396.44,-832.02 1397.22,-825.07"/>
</g>
<!-- 19 -->
<g id="node20" class="node">
<title>19</title>
<ellipse fill="none" stroke="black" cx="2447.42" cy="-810" rx="462.85" ry="18"/>
<text text-anchor="middle" x="2447.42" y="-804.95" font-family="Times New Roman,serif" font-size="14.00">Trash Can: 不管是谁把它丢在这里的，一定是个老烟枪：这个牌子的名字是“红阿斯特拉”。</text>
</g>
<!-- 9&#45;&gt;19 -->
<g id="edge13" class="edge">
<title>9&#45;&gt;19</title>
<path fill="none" stroke="black" d="M1945.18,-870.71C2034.54,-859.74 2180.55,-842.17 2292.19,-828.92"/>
<polygon fill="black" stroke="black" points="2292.55,-832.4 2302.07,-827.75 2291.72,-825.45 2292.55,-832.4"/>
</g>
<!-- 21 -->
<g id="node22" class="node">
<title>21</title>
<ellipse fill="none" stroke="black" cx="870.42" cy="-450" rx="274.5" ry="18"/>
<text text-anchor="middle" x="870.42" y="-444.95" font-family="Times New Roman,serif" font-size="14.00">Visual Calculus: 不超过一天，或者两天。还没有长霉。</text>
</g>
<!-- 10&#45;&gt;21 -->
<g id="edge15" class="edge">
<title>10&#45;&gt;21</title>
<path fill="none" stroke="black" d="M1101.17,-503.79C1056.87,-493.65 1000.72,-480.81 954.9,-470.33"/>
<polygon fill="black" stroke="black" points="955.79,-466.94 945.27,-468.12 954.23,-473.76 955.79,-466.94"/>
</g>
<!-- 11&#45;&gt;5 -->
<g id="edge16" class="edge">
<title>11&#45;&gt;5</title>
<path fill="none" stroke="black" d="M635.54,-143.61C678.67,-131.33 735.52,-115.16 774.74,-104"/>
<polygon fill="black" stroke="black" points="775.69,-107.37 784.35,-101.26 773.77,-100.63 775.69,-107.37"/>
</g>
<!-- 12 -->
<g id="node13" class="node">
<title>12</title>
<ellipse fill="none" stroke="black" cx="1215.42" cy="-738" rx="358.44" ry="18"/>
<text text-anchor="middle" x="1215.42" y="-732.95" font-family="Times New Roman,serif" font-size="14.00">Kim Kitsuragi: “一场悲剧…”警督看着罐子，眼睛被味道熏得有些湿润。</text>
</g>
<!-- 16 -->
<g id="node17" class="node">
<title>16</title>
<ellipse fill="none" stroke="black" cx="1127.42" cy="-666" rx="102.02" ry="18"/>
<text text-anchor="middle" x="1127.42" y="-660.95" font-family="Times New Roman,serif" font-size="14.00">You: 检查香烟盒。</text>
</g>
<!-- 12&#45;&gt;16 -->
<g id="edge17" class="edge">
<title>12&#45;&gt;16</title>
<path fill="none" stroke="black" d="M1193.67,-719.7C1182.72,-710.99 1169.27,-700.29 1157.36,-690.82"/>
<polygon fill="black" stroke="black" points="1159.81,-688.29 1149.8,-684.81 1155.45,-693.77 1159.81,-688.29"/>
</g>
<!-- 13&#45;&gt;10 -->
<g id="edge18" class="edge">
<title>13&#45;&gt;10</title>
<path fill="none" stroke="black" d="M994.38,-28.4C1078.52,-42.32 1176.42,-76.64 1176.42,-161 1176.42,-379 1176.42,-379 1176.42,-379 1176.42,-418.26 1176.42,-463.62 1176.42,-492.31"/>
<polygon fill="black" stroke="black" points="1172.92,-492 1176.42,-502 1179.92,-492 1172.92,-492"/>
</g>
<!-- 14&#45;&gt;8 -->
<g id="edge19" class="edge">
<title>14&#45;&gt;8</title>
<path fill="none" stroke="black" d="M574.42,-287.7C574.42,-280.41 574.42,-271.73 574.42,-263.54"/>
<polygon fill="black" stroke="black" points="577.92,-263.62 574.42,-253.62 570.92,-263.62 577.92,-263.62"/>
</g>
<!-- 15 -->
<g id="node16" class="node">
<title>15</title>
<ellipse fill="none" stroke="black" cx="841.42" cy="-378" rx="214.62" ry="18"/>
<text text-anchor="middle" x="841.42" y="-372.95" font-family="Times New Roman,serif" font-size="14.00">Empathy: 他摇摇头，流露出真实的悲伤。</text>
</g>
<!-- 15&#45;&gt;14 -->
<g id="edge20" class="edge">
<title>15&#45;&gt;14</title>
<path fill="none" stroke="black" d="M778.14,-360.41C740.09,-350.43 691.38,-337.66 651.14,-327.11"/>
<polygon fill="black" stroke="black" points="652.05,-323.74 641.49,-324.58 650.28,-330.51 652.05,-323.74"/>
</g>
<!-- 20 -->
<g id="node21" class="node">
<title>20</title>
<ellipse fill="none" stroke="black" cx="1158.42" cy="-594" rx="143.48" ry="18"/>
<text text-anchor="middle" x="1158.42" y="-588.95" font-family="Times New Roman,serif" font-size="14.00">Jump to: [trash can hub boardwalk]</text>
</g>
<!-- 16&#45;&gt;20 -->
<g id="edge21" class="edge">
<title>16&#45;&gt;20</title>
<path fill="none" stroke="black" d="M1135.08,-647.7C1138.46,-640.07 1142.51,-630.92 1146.29,-622.4"/>
<polygon fill="black" stroke="black" points="1149.38,-624.05 1150.23,-613.49 1142.98,-621.21 1149.38,-624.05"/>
</g>
<!-- 17&#45;&gt;12 -->
<g id="edge22" class="edge">
<title>17&#45;&gt;12</title>
<path fill="none" stroke="black" d="M1234.24,-791.7C1231.55,-784.15 1228.32,-775.12 1225.31,-766.68"/>
<polygon fill="black" stroke="black" points="1228.7,-765.77 1222.04,-757.53 1222.1,-768.12 1228.7,-765.77"/>
</g>
<!-- 19&#45;&gt;9 -->
<g id="edge23" class="edge">
<title>19&#45;&gt;9</title>
<path fill="none" stroke="black" d="M2314.29,-827.69C2206.09,-840.85 2056.13,-858.82 1959.66,-870.17"/>
<polygon fill="black" stroke="black" points="1959.48,-866.67 1949.96,-871.31 1960.3,-873.62 1959.48,-866.67"/>
</g>
<!-- 20&#45;&gt;10 -->
<g id="edge24" class="edge">
<title>20&#45;&gt;10</title>
<path fill="none" stroke="black" d="M1162.87,-575.7C1164.77,-568.32 1167.03,-559.52 1169.15,-551.25"/>
<polygon fill="black" stroke="black" points="1172.54,-552.13 1171.64,-541.57 1165.76,-550.38 1172.54,-552.13"/>
</g>
<!-- 21&#45;&gt;15 -->
<g id="edge25" class="edge">
<title>21&#45;&gt;15</title>
<path fill="none" stroke="black" d="M863.25,-431.7C860.13,-424.15 856.38,-415.12 852.89,-406.68"/>
<polygon fill="black" stroke="black" points="856.15,-405.4 849.08,-397.5 849.68,-408.08 856.15,-405.4"/>
</g>
<!-- 22 -->
<g id="node23" class="node">
<title>22</title>
<ellipse fill="none" stroke="black" cx="1762.42" cy="-594" rx="431.11" ry="18"/>
<text text-anchor="middle" x="1762.42" y="-588.95" font-family="Times New Roman,serif" font-size="14.00">Trash Can: 垃圾箱里有一些回收品，一个空香烟盒，还有一张皱巴巴的烤肉包装纸。</text>
</g>
<!-- 22&#45;&gt;10 -->
<g id="edge26" class="edge">
<title>22&#45;&gt;10</title>
<path fill="none" stroke="black" d="M1624.29,-576.5C1535.29,-565.87 1419.53,-552.04 1328,-541.11"/>
<polygon fill="black" stroke="black" points="1328.52,-537.64 1318.18,-539.93 1327.69,-544.59 1328.52,-537.64"/>
</g>
<!-- 23&#45;&gt;22 -->
<g id="edge27" class="edge">
<title>23&#45;&gt;22</title>
<path fill="none" stroke="black" d="M1785,-647.7C1781.77,-640.15 1777.9,-631.12 1774.28,-622.68"/>
<polygon fill="black" stroke="black" points="1777.5,-621.31 1770.35,-613.5 1771.07,-624.07 1777.5,-621.31"/>
</g>
</g>
</svg>
