<?xml version="1.0" encoding="UTF-8" standalone="no"?>
<!DOCTYPE svg PUBLIC "-//W3C//DTD SVG 1.1//EN"
 "http://www.w3.org/Graphics/SVG/1.1/DTD/svg11.dtd">
<!-- Generated by graphviz version 12.2.1 (20241206.2353)
 -->
<!-- Title: G Pages: 1 -->
<svg width="5856pt" height="620pt"
 viewBox="0.00 0.00 5856.04 620.00" xmlns="http://www.w3.org/2000/svg" xmlns:xlink="http://www.w3.org/1999/xlink">
<g id="graph0" class="graph" transform="scale(1 1) rotate(0) translate(4 616)">
<title>G</title>
<polygon fill="white" stroke="none" points="-4,4 -4,-616 5852.04,-616 5852.04,4 -4,4"/>
<!-- 0 -->
<g id="node1" class="node">
<title>0</title>
<ellipse fill="none" stroke="black" cx="2212.84" cy="-594" rx="39.07" ry="18"/>
<text text-anchor="middle" x="2212.84" y="-588.95" font-family="Times New Roman,serif" font-size="14.00">START</text>
</g>
<!-- 1 -->
<g id="node2" class="node">
<title>1</title>
<ellipse fill="none" stroke="black" cx="2212.84" cy="-522" rx="29.86" ry="18"/>
<text text-anchor="middle" x="2212.84" y="-516.95" font-family="Times New Roman,serif" font-size="14.00">input</text>
</g>
<!-- 0&#45;&gt;1 -->
<g id="edge1" class="edge">
<title>0&#45;&gt;1</title>
<path fill="none" stroke="black" d="M2212.84,-575.7C2212.84,-568.41 2212.84,-559.73 2212.84,-551.54"/>
<polygon fill="black" stroke="black" points="2216.34,-551.62 2212.84,-541.62 2209.34,-551.62 2216.34,-551.62"/>
</g>
<!-- 28 -->
<g id="node29" class="node">
<title>28</title>
<ellipse fill="none" stroke="black" cx="2212.84" cy="-450" rx="559.58" ry="18"/>
<text text-anchor="middle" x="2212.84" y="-444.95" font-family="Times New Roman,serif" font-size="14.00">From A to Zrieek! A Guide To a Well&#45;Behaved Cockatoo: Variable[&quot;tc.turn_off_tutorial_node&quot;] &#160;or &#160;Variable[&quot;character.interactable_tutorial_seen&quot;]</text>
</g>
<!-- 1&#45;&gt;28 -->
<g id="edge2" class="edge">
<title>1&#45;&gt;28</title>
<path fill="none" stroke="black" d="M2212.84,-503.7C2212.84,-496.41 2212.84,-487.73 2212.84,-479.54"/>
<polygon fill="black" stroke="black" points="2216.34,-479.62 2212.84,-469.62 2209.34,-479.62 2216.34,-479.62"/>
</g>
<!-- 2 -->
<g id="node3" class="node">
<title>2</title>
<ellipse fill="none" stroke="black" cx="2528.84" cy="-306" rx="43.16" ry="18"/>
<text text-anchor="middle" x="2528.84" y="-300.95" font-family="Times New Roman,serif" font-size="14.00">bookhub</text>
</g>
<!-- 7 -->
<g id="node8" class="node">
<title>7</title>
<ellipse fill="none" stroke="black" cx="3647.84" cy="-234" rx="180.84" ry="18"/>
<text text-anchor="middle" x="3647.84" y="-228.95" font-family="Times New Roman,serif" font-size="14.00">You: “我想买这本凤头鹦鹉指南。”</text>
</g>
<!-- 2&#45;&gt;7 -->
<g id="edge4" class="edge">
<title>2&#45;&gt;7</title>
<path fill="none" stroke="black" d="M2571.34,-302.34C2720.45,-293.01 3224.91,-261.46 3486.89,-245.07"/>
<polygon fill="black" stroke="black" points="3486.76,-248.58 3496.52,-244.47 3486.32,-241.6 3486.76,-248.58"/>
</g>
<!-- 8 -->
<g id="node9" class="node">
<title>8</title>
<ellipse fill="none" stroke="black" cx="4557.84" cy="-234" rx="90.25" ry="18"/>
<text text-anchor="middle" x="4557.84" y="-228.95" font-family="Times New Roman,serif" font-size="14.00">You: 翻阅书页。</text>
</g>
<!-- 2&#45;&gt;8 -->
<g id="edge5" class="edge">
<title>2&#45;&gt;8</title>
<path fill="none" stroke="black" d="M2571.69,-303.52C2821.45,-294.91 4090.99,-251.11 4458.21,-238.44"/>
<polygon fill="black" stroke="black" points="4458.21,-241.94 4468.08,-238.1 4457.97,-234.94 4458.21,-241.94"/>
</g>
<!-- 13 -->
<g id="node14" class="node">
<title>13</title>
<ellipse fill="none" stroke="black" cx="2772.84" cy="-234" rx="216.15" ry="18"/>
<text text-anchor="middle" x="2772.84" y="-228.95" font-family="Times New Roman,serif" font-size="14.00">You: “这本凤头鹦鹉指南怎么样，店主？”</text>
</g>
<!-- 2&#45;&gt;13 -->
<g id="edge6" class="edge">
<title>2&#45;&gt;13</title>
<path fill="none" stroke="black" d="M2563.8,-294.97C2600.08,-284.56 2657.78,-268.01 2703.38,-254.93"/>
<polygon fill="black" stroke="black" points="2704.29,-258.31 2712.94,-252.19 2702.36,-251.58 2704.29,-258.31"/>
</g>
<!-- 16 -->
<g id="node17" class="node">
<title>16</title>
<ellipse fill="none" stroke="black" cx="779.84" cy="-234" rx="213.59" ry="18"/>
<text text-anchor="middle" x="779.84" y="-228.95" font-family="Times New Roman,serif" font-size="14.00">You: Variable[&quot;doomed.book_cockatoo_wc_stealing&quot;]</text>
</g>
<!-- 2&#45;&gt;16 -->
<g id="edge7" class="edge">
<title>2&#45;&gt;16</title>
<path fill="none" stroke="black" d="M2485.56,-304.12C2304.82,-300.31 1592.55,-283.97 1007.84,-252 986.48,-250.83 964.01,-249.4 941.84,-247.87"/>
<polygon fill="black" stroke="black" points="942.37,-244.4 932.15,-247.2 941.88,-251.38 942.37,-244.4"/>
</g>
<!-- 33 -->
<g id="node34" class="node">
<title>33</title>
<ellipse fill="none" stroke="black" cx="1775.84" cy="-234" rx="468.48" ry="18"/>
<text text-anchor="middle" x="1775.84" y="-228.95" font-family="Times New Roman,serif" font-size="14.00">Interfacing: 你在等待店主分心。当她没看到的时候，你把凤头鹦鹉指南塞进了自己的口袋。</text>
</g>
<!-- 2&#45;&gt;33 -->
<g id="edge3" class="edge">
<title>2&#45;&gt;33</title>
<path fill="none" stroke="black" d="M2487.01,-301.11C2388.46,-291.95 2136.77,-268.55 1960.94,-252.21"/>
<polygon fill="black" stroke="black" points="1961.52,-248.75 1951.24,-251.31 1960.88,-255.72 1961.52,-248.75"/>
</g>
<!-- 3 -->
<g id="node4" class="node">
<title>3</title>
<ellipse fill="none" stroke="black" cx="3671.84" cy="-594" rx="276.04" ry="18"/>
<text text-anchor="middle" x="3671.84" y="-588.95" font-family="Times New Roman,serif" font-size="14.00">From A to Zrieek! A Guide To a Well&#45;Behaved Cockatoo: IsKimHere()</text>
</g>
<!-- 4 -->
<g id="node5" class="node">
<title>4</title>
<polygon fill="none" stroke="black" points="4986.84,-540 4904.08,-522 4986.84,-504 5069.6,-522 4986.84,-540"/>
<text text-anchor="middle" x="4986.84" y="-516.95" font-family="Times New Roman,serif" font-size="14.00">IsKimHere()</text>
</g>
<!-- 3&#45;&gt;4 -->
<g id="edge8" class="edge">
<title>3&#45;&gt;4</title>
<path fill="none" stroke="black" d="M3868.84,-581.04C3898.33,-579.31 3928.38,-577.58 3956.84,-576 4312.92,-556.22 4738.4,-535.14 4909.75,-526.75"/>
<polygon fill="black" stroke="black" points="4909.83,-530.25 4919.64,-526.27 4909.49,-523.26 4909.83,-530.25"/>
</g>
<!-- 5 -->
<g id="node6" class="node">
<title>5</title>
<polygon fill="none" stroke="black" points="3389.84,-540 3294.06,-522 3389.84,-504 3485.62,-522 3389.84,-540"/>
<text text-anchor="middle" x="3389.84" y="-516.95" font-family="Times New Roman,serif" font-size="14.00">!(IsKimHere())</text>
</g>
<!-- 3&#45;&gt;5 -->
<g id="edge9" class="edge">
<title>3&#45;&gt;5</title>
<path fill="none" stroke="black" d="M3603.94,-576.14C3553.75,-563.69 3486.5,-546.99 3440.86,-535.66"/>
<polygon fill="black" stroke="black" points="3441.76,-532.28 3431.21,-533.27 3440.07,-539.08 3441.76,-532.28"/>
</g>
<!-- 9 -->
<g id="node10" class="node">
<title>9</title>
<ellipse fill="none" stroke="black" cx="5369.84" cy="-450" rx="478.2" ry="18"/>
<text text-anchor="middle" x="5369.84" y="-444.95" font-family="Times New Roman,serif" font-size="14.00">Kim Kitsuragi: 警督用力咳了几声，然后低语到：“我们真要这么做吗？我觉得还是不要了吧。”</text>
</g>
<!-- 4&#45;&gt;9 -->
<g id="edge10" class="edge">
<title>4&#45;&gt;9</title>
<path fill="none" stroke="black" d="M5030.4,-513.04C5087.12,-502.67 5188.1,-484.22 5265.22,-470.12"/>
<polygon fill="black" stroke="black" points="5265.72,-473.59 5274.93,-468.35 5264.46,-466.7 5265.72,-473.59"/>
</g>
<!-- 21 -->
<g id="node22" class="node">
<title>21</title>
<ellipse fill="none" stroke="black" cx="3232.84" cy="-450" rx="410.64" ry="18"/>
<text text-anchor="middle" x="3232.84" y="-444.95" font-family="Times New Roman,serif" font-size="14.00">From A to Zrieek! A Guide To a Well&#45;Behaved Cockatoo: Variable[&quot;doomed.book_cockatoo_wc_stealing&quot;]</text>
</g>
<!-- 5&#45;&gt;21 -->
<g id="edge11" class="edge">
<title>5&#45;&gt;21</title>
<path fill="none" stroke="black" d="M3362.49,-508.81C3340.31,-498.92 3308.48,-484.72 3281.91,-472.88"/>
<polygon fill="black" stroke="black" points="3283.58,-469.79 3273.02,-468.91 3280.73,-476.18 3283.58,-469.79"/>
</g>
<!-- 6 -->
<g id="node7" class="node">
<title>6</title>
<ellipse fill="none" stroke="black" cx="5178.84" cy="-162" rx="546.27" ry="18"/>
<text text-anchor="middle" x="5178.84" y="-156.95" font-family="Times New Roman,serif" font-size="14.00">From A to Zrieek! A Guide To a Well&#45;Behaved Cockatoo: 结果居然有这么多不同种类的凤头鹦鹉，而且都有行为问题。</text>
</g>
<!-- 12 -->
<g id="node13" class="node">
<title>12</title>
<ellipse fill="none" stroke="black" cx="5178.84" cy="-90" rx="306.23" ry="18"/>
<text text-anchor="middle" x="5178.84" y="-84.95" font-family="Times New Roman,serif" font-size="14.00">Composure: 你没有行为问题。那些都是废话。你没什么事。</text>
</g>
<!-- 6&#45;&gt;12 -->
<g id="edge12" class="edge">
<title>6&#45;&gt;12</title>
<path fill="none" stroke="black" d="M5178.84,-143.7C5178.84,-136.41 5178.84,-127.73 5178.84,-119.54"/>
<polygon fill="black" stroke="black" points="5182.34,-119.62 5178.84,-109.62 5175.34,-119.62 5182.34,-119.62"/>
</g>
<!-- 20 -->
<g id="node21" class="node">
<title>20</title>
<ellipse fill="none" stroke="black" cx="4107.84" cy="-162" rx="506.35" ry="18"/>
<text text-anchor="middle" x="4107.84" y="-156.95" font-family="Times New Roman,serif" font-size="14.00">Plaisance: “先生，请不要乱碰商品。大家都喜欢崭新的书，而不是被天知道什么样的人碰过的书。”</text>
</g>
<!-- 7&#45;&gt;20 -->
<g id="edge13" class="edge">
<title>7&#45;&gt;20</title>
<path fill="none" stroke="black" d="M3743.99,-218.37C3814.03,-207.71 3909.46,-193.19 3985.02,-181.69"/>
<polygon fill="black" stroke="black" points="3985.16,-185.21 3994.52,-180.24 3984.11,-178.29 3985.16,-185.21"/>
</g>
<!-- 8&#45;&gt;6 -->
<g id="edge14" class="edge">
<title>8&#45;&gt;6</title>
<path fill="none" stroke="black" d="M4634.92,-224.31C4730.29,-213.56 4895.12,-194.98 5018.41,-181.08"/>
<polygon fill="black" stroke="black" points="5018.78,-184.56 5028.32,-179.97 5017.99,-177.61 5018.78,-184.56"/>
</g>
<!-- 25 -->
<g id="node26" class="node">
<title>25</title>
<ellipse fill="none" stroke="black" cx="4107.84" cy="-90" rx="433.16" ry="18"/>
<text text-anchor="middle" x="4107.84" y="-84.95" font-family="Times New Roman,serif" font-size="14.00">Interfacing: 这是个不小的挑战，不过最终凤头鹦鹉指南是你的了。多么辉煌的成就！</text>
</g>
<!-- 9&#45;&gt;25 -->
<g id="edge15" class="edge">
<title>9&#45;&gt;25</title>
<path fill="none" stroke="black" d="M5471.22,-431.95C5584.69,-409.93 5752.84,-367.15 5752.84,-307 5752.84,-307 5752.84,-307 5752.84,-233 5752.84,-192.55 5764.87,-169.95 5733.84,-144 5721.93,-134.04 4958.48,-112.74 4482.06,-100.39"/>
<polygon fill="black" stroke="black" points="4482.46,-96.9 4472.38,-100.14 4482.28,-103.89 4482.46,-96.9"/>
</g>
<!-- 10 -->
<g id="node11" class="node">
<title>10</title>
<ellipse fill="none" stroke="black" cx="1506.84" cy="-90" rx="84.62" ry="18"/>
<text text-anchor="middle" x="1506.84" y="-84.95" font-family="Times New Roman,serif" font-size="14.00">Jump to: [bookhub]</text>
</g>
<!-- 10&#45;&gt;2 -->
<g id="edge16" class="edge">
<title>10&#45;&gt;2</title>
<path fill="none" stroke="black" d="M1445.77,-102.8C1434.83,-104.7 1423.52,-106.52 1412.84,-108 898.07,-179.33 966.6,-82.2 1040.84,-180 1129.17,-296.36 2215.59,-304.72 2473.96,-305.06"/>
<polygon fill="black" stroke="black" points="2473.77,-308.56 2483.77,-305.07 2473.77,-301.56 2473.77,-308.56"/>
</g>
<!-- 11 -->
<g id="node12" class="node">
<title>11</title>
<ellipse fill="none" stroke="black" cx="3483.84" cy="-306" rx="374.3" ry="18"/>
<text text-anchor="middle" x="3483.84" y="-300.95" font-family="Times New Roman,serif" font-size="14.00">Interfacing: 你慢慢把手伸向凤头鹦鹉指南。还没碰到书，你就被打断了：</text>
</g>
<!-- 11&#45;&gt;3 -->
<g id="edge17" class="edge">
<title>11&#45;&gt;3</title>
<path fill="none" stroke="black" d="M3528.58,-324.34C3548.7,-333.31 3572.09,-345.45 3590.84,-360 3624.2,-385.89 3635.84,-393.34 3652.84,-432 3671.91,-475.37 3674.11,-531.31 3673.39,-564.55"/>
<polygon fill="black" stroke="black" points="3669.9,-564.07 3673.07,-574.18 3676.9,-564.31 3669.9,-564.07"/>
</g>
<!-- 32 -->
<g id="node33" class="node">
<title>32</title>
<ellipse fill="none" stroke="black" cx="5178.84" cy="-18" rx="72.85" ry="18"/>
<text text-anchor="middle" x="5178.84" y="-12.95" font-family="Times New Roman,serif" font-size="14.00">You: [离开。]</text>
</g>
<!-- 12&#45;&gt;32 -->
<g id="edge18" class="edge">
<title>12&#45;&gt;32</title>
<path fill="none" stroke="black" d="M5178.84,-71.7C5178.84,-64.41 5178.84,-55.73 5178.84,-47.54"/>
<polygon fill="black" stroke="black" points="5182.34,-47.62 5178.84,-37.62 5175.34,-47.62 5182.34,-47.62"/>
</g>
<!-- 27 -->
<g id="node28" class="node">
<title>27</title>
<ellipse fill="none" stroke="black" cx="2772.84" cy="-162" rx="810.87" ry="18"/>
<text text-anchor="middle" x="2772.84" y="-156.95" font-family="Times New Roman,serif" font-size="14.00">From A to Zrieek! A Guide To a Well&#45;Behaved Cockatoo: 一只硫磺色羽冠的凤头鹦鹉坐在封面上，嘴部微张。似乎这只鸟正在呼唤着书名：“从0到1！凤头鹦鹉驯养指南。”</text>
</g>
<!-- 13&#45;&gt;27 -->
<g id="edge19" class="edge">
<title>13&#45;&gt;27</title>
<path fill="none" stroke="black" d="M2772.84,-215.7C2772.84,-208.41 2772.84,-199.73 2772.84,-191.54"/>
<polygon fill="black" stroke="black" points="2776.34,-191.62 2772.84,-181.62 2769.34,-191.62 2776.34,-191.62"/>
</g>
<!-- 14 -->
<g id="node15" class="node">
<title>14</title>
<ellipse fill="none" stroke="black" cx="4318.84" cy="-594" rx="352.81" ry="18"/>
<text text-anchor="middle" x="4318.84" y="-588.95" font-family="Times New Roman,serif" font-size="14.00">Tutorial Agent: 你得到了一个可互动物品。前往物品栏中与之互动吧。</text>
</g>
<!-- 15 -->
<g id="node16" class="node">
<title>15</title>
<ellipse fill="none" stroke="black" cx="643.84" cy="-306" rx="137.34" ry="18"/>
<text text-anchor="middle" x="643.84" y="-300.95" font-family="Times New Roman,serif" font-size="14.00">You: 偷走凤头鹦鹉指南。</text>
</g>
<!-- 17 -->
<g id="node18" class="node">
<title>17</title>
<polygon fill="none" stroke="black" points="274.84,-252 1,-234 274.84,-216 548.68,-234 274.84,-252"/>
<text text-anchor="middle" x="274.84" y="-228.95" font-family="Times New Roman,serif" font-size="14.00">Variable[&quot;doomed.book_cockatoo_wc_stealing&quot;]</text>
</g>
<!-- 15&#45;&gt;17 -->
<g id="edge20" class="edge">
<title>15&#45;&gt;17</title>
<path fill="none" stroke="black" d="M567.83,-290.58C505.54,-278.76 417.65,-262.09 354.4,-250.09"/>
<polygon fill="black" stroke="black" points="355.25,-246.69 344.78,-248.27 353.95,-253.57 355.25,-246.69"/>
</g>
<!-- 18 -->
<g id="node19" class="node">
<title>18</title>
<polygon fill="none" stroke="black" points="609.84,-180 322.97,-162 609.84,-144 896.71,-162 609.84,-180"/>
<text text-anchor="middle" x="609.84" y="-156.95" font-family="Times New Roman,serif" font-size="14.00">!(Variable[&quot;doomed.book_cockatoo_wc_stealing&quot;])</text>
</g>
<!-- 16&#45;&gt;18 -->
<g id="edge21" class="edge">
<title>16&#45;&gt;18</title>
<path fill="none" stroke="black" d="M738.25,-215.88C713.74,-205.78 682.64,-192.98 657.19,-182.5"/>
<polygon fill="black" stroke="black" points="658.64,-179.31 648.06,-178.74 655.98,-185.78 658.64,-179.31"/>
</g>
<!-- 19 -->
<g id="node20" class="node">
<title>19</title>
<ellipse fill="none" stroke="black" cx="984.84" cy="-90" rx="419.34" ry="18"/>
<text text-anchor="middle" x="984.84" y="-84.95" font-family="Times New Roman,serif" font-size="14.00">Plaisance: “哦，一个自然爱好者！选的好。我就*知道*把它留在附近是个好主意…”</text>
</g>
<!-- 16&#45;&gt;19 -->
<g id="edge22" class="edge">
<title>16&#45;&gt;19</title>
<path fill="none" stroke="black" d="M834.39,-216.13C857.65,-207.45 884.33,-195.41 905.84,-180 929.98,-162.71 951.91,-136.78 966.51,-117.37"/>
<polygon fill="black" stroke="black" points="969.28,-119.51 972.36,-109.38 963.63,-115.38 969.28,-119.51"/>
</g>
<!-- 22 -->
<g id="node23" class="node">
<title>22</title>
<polygon fill="none" stroke="black" points="273.84,-108 0,-90 273.84,-72 547.68,-90 273.84,-108"/>
<text text-anchor="middle" x="273.84" y="-84.95" font-family="Times New Roman,serif" font-size="14.00">Variable[&quot;doomed.book_cockatoo_wc_stealing&quot;]</text>
</g>
<!-- 17&#45;&gt;22 -->
<g id="edge23" class="edge">
<title>17&#45;&gt;22</title>
<path fill="none" stroke="black" d="M274.72,-215.59C274.55,-191.61 274.24,-148.14 274.04,-119.42"/>
<polygon fill="black" stroke="black" points="277.54,-119.6 273.97,-109.62 270.54,-119.65 277.54,-119.6"/>
</g>
<!-- 18&#45;&gt;22 -->
<g id="edge24" class="edge">
<title>18&#45;&gt;22</title>
<path fill="none" stroke="black" d="M545.45,-147.59C489.24,-135.88 407.64,-118.88 348.57,-106.57"/>
<polygon fill="black" stroke="black" points="349.42,-103.17 338.92,-104.56 348,-110.02 349.42,-103.17"/>
</g>
<!-- 29 -->
<g id="node30" class="node">
<title>29</title>
<polygon fill="none" stroke="black" points="2545.84,-36 2061.37,-18 2545.84,0 3030.31,-18 2545.84,-36"/>
<text text-anchor="middle" x="2545.84" y="-12.95" font-family="Times New Roman,serif" font-size="14.00">Variable[&quot;tc.turn_off_tutorial_node&quot;] &#160;or &#160;Variable[&quot;character.interactable_tutorial_seen&quot;]</text>
</g>
<!-- 19&#45;&gt;29 -->
<g id="edge25" class="edge">
<title>19&#45;&gt;29</title>
<path fill="none" stroke="black" d="M1267.53,-76.32C1569.85,-62.77 2043.21,-41.54 2321.14,-29.08"/>
<polygon fill="black" stroke="black" points="2321.24,-32.58 2331.08,-28.63 2320.93,-25.58 2321.24,-32.58"/>
</g>
<!-- 20&#45;&gt;25 -->
<g id="edge26" class="edge">
<title>20&#45;&gt;25</title>
<path fill="none" stroke="black" d="M4107.84,-143.7C4107.84,-136.41 4107.84,-127.73 4107.84,-119.54"/>
<polygon fill="black" stroke="black" points="4111.34,-119.62 4107.84,-109.62 4104.34,-119.62 4111.34,-119.62"/>
</g>
<!-- 23 -->
<g id="node24" class="node">
<title>23</title>
<polygon fill="none" stroke="black" points="3294.84,-396 3007.97,-378 3294.84,-360 3581.71,-378 3294.84,-396"/>
<text text-anchor="middle" x="3294.84" y="-372.95" font-family="Times New Roman,serif" font-size="14.00">!(Variable[&quot;doomed.book_cockatoo_wc_stealing&quot;])</text>
</g>
<!-- 21&#45;&gt;23 -->
<g id="edge28" class="edge">
<title>21&#45;&gt;23</title>
<path fill="none" stroke="black" d="M3248.17,-431.7C3255.67,-423.23 3264.83,-412.89 3273.04,-403.61"/>
<polygon fill="black" stroke="black" points="3275.53,-406.08 3279.54,-396.28 3270.29,-401.44 3275.53,-406.08"/>
</g>
<!-- 24 -->
<g id="node25" class="node">
<title>24</title>
<ellipse fill="none" stroke="black" cx="2713.84" cy="-378" rx="84.62" ry="18"/>
<text text-anchor="middle" x="2713.84" y="-372.95" font-family="Times New Roman,serif" font-size="14.00">Jump to: [bookhub]</text>
</g>
<!-- 21&#45;&gt;24 -->
<g id="edge27" class="edge">
<title>21&#45;&gt;24</title>
<path fill="none" stroke="black" d="M3109.52,-432.37C3012.35,-419.26 2879.65,-401.36 2795.34,-389.99"/>
<polygon fill="black" stroke="black" points="2795.9,-386.54 2785.53,-388.67 2794.97,-393.47 2795.9,-386.54"/>
</g>
<!-- 34 -->
<g id="node35" class="node">
<title>34</title>
<ellipse fill="none" stroke="black" cx="273.84" cy="-18" rx="27" ry="18"/>
<text text-anchor="middle" x="273.84" y="-12.95" font-family="Times New Roman,serif" font-size="14.00">34</text>
</g>
<!-- 22&#45;&gt;34 -->
<g id="edge29" class="edge">
<title>22&#45;&gt;34</title>
<path fill="none" stroke="black" d="M273.84,-71.7C273.84,-64.41 273.84,-55.73 273.84,-47.54"/>
<polygon fill="black" stroke="black" points="277.34,-47.62 273.84,-37.62 270.34,-47.62 277.34,-47.62"/>
</g>
<!-- 23&#45;&gt;11 -->
<g id="edge30" class="edge">
<title>23&#45;&gt;11</title>
<path fill="none" stroke="black" d="M3334.92,-362.15C3361.56,-352.29 3396.94,-339.18 3426.54,-328.22"/>
<polygon fill="black" stroke="black" points="3427.57,-331.57 3435.73,-324.82 3425.14,-325.01 3427.57,-331.57"/>
</g>
<!-- 24&#45;&gt;2 -->
<g id="edge31" class="edge">
<title>24&#45;&gt;2</title>
<path fill="none" stroke="black" d="M2673.7,-361.81C2643.18,-350.26 2601.33,-334.43 2570.46,-322.75"/>
<polygon fill="black" stroke="black" points="2572.04,-319.6 2561.45,-319.34 2569.56,-326.15 2572.04,-319.6"/>
</g>
<!-- 25&#45;&gt;29 -->
<g id="edge32" class="edge">
<title>25&#45;&gt;29</title>
<path fill="none" stroke="black" d="M3820.89,-76.14C3518.19,-62.58 3047.51,-41.48 2770.64,-29.07"/>
<polygon fill="black" stroke="black" points="2770.9,-25.58 2760.76,-28.63 2770.59,-32.58 2770.9,-25.58"/>
</g>
<!-- 26 -->
<g id="node27" class="node">
<title>26</title>
<ellipse fill="none" stroke="black" cx="1496.84" cy="-162" rx="447.49" ry="18"/>
<text text-anchor="middle" x="1496.84" y="-156.95" font-family="Times New Roman,serif" font-size="14.00">Plaisance: “如果你有凤头鹦鹉的话，那这本就是必需品了。我听说它们挺反复无常的。”</text>
</g>
<!-- 26&#45;&gt;10 -->
<g id="edge33" class="edge">
<title>26&#45;&gt;10</title>
<path fill="none" stroke="black" d="M1499.31,-143.7C1500.37,-136.32 1501.62,-127.52 1502.8,-119.25"/>
<polygon fill="black" stroke="black" points="1506.23,-120 1504.18,-109.6 1499.3,-119.01 1506.23,-120"/>
</g>
<!-- 27&#45;&gt;2 -->
<g id="edge34" class="edge">
<title>27&#45;&gt;2</title>
<path fill="none" stroke="black" d="M2648.78,-180.25C2605.02,-188.77 2562.93,-200.59 2547.84,-216 2532.37,-231.8 2528.14,-256.92 2527.48,-276.45"/>
<polygon fill="black" stroke="black" points="2523.98,-276.24 2527.46,-286.25 2530.98,-276.25 2523.98,-276.24"/>
</g>
<!-- 30 -->
<g id="node31" class="node">
<title>30</title>
<polygon fill="none" stroke="black" points="1376.84,-396 879.34,-378 1376.84,-360 1874.34,-378 1376.84,-396"/>
<text text-anchor="middle" x="1376.84" y="-372.95" font-family="Times New Roman,serif" font-size="14.00">!(Variable[&quot;tc.turn_off_tutorial_node&quot;] &#160;or &#160;Variable[&quot;character.interactable_tutorial_seen&quot;])</text>
</g>
<!-- 28&#45;&gt;30 -->
<g id="edge35" class="edge">
<title>28&#45;&gt;30</title>
<path fill="none" stroke="black" d="M2017.89,-432.68C1870.65,-420.35 1671.19,-403.65 1534.07,-392.17"/>
<polygon fill="black" stroke="black" points="1534.42,-388.68 1524.17,-391.34 1533.84,-395.66 1534.42,-388.68"/>
</g>
<!-- 31 -->
<g id="node32" class="node">
<title>31</title>
<ellipse fill="none" stroke="black" cx="2343.84" cy="-378" rx="84.62" ry="18"/>
<text text-anchor="middle" x="2343.84" y="-372.95" font-family="Times New Roman,serif" font-size="14.00">Jump to: [bookhub]</text>
</g>
<!-- 28&#45;&gt;31 -->
<g id="edge36" class="edge">
<title>28&#45;&gt;31</title>
<path fill="none" stroke="black" d="M2245.22,-431.7C2262.87,-422.27 2284.86,-410.52 2303.6,-400.5"/>
<polygon fill="black" stroke="black" points="2305.12,-403.66 2312.29,-395.86 2301.82,-397.48 2305.12,-403.66"/>
</g>
<!-- 30&#45;&gt;15 -->
<g id="edge37" class="edge">
<title>30&#45;&gt;15</title>
<path fill="none" stroke="black" d="M1244.1,-364.32C1107.2,-351.25 895.62,-331.04 763.66,-318.44"/>
<polygon fill="black" stroke="black" points="764.13,-314.97 753.84,-317.5 763.46,-321.94 764.13,-314.97"/>
</g>
<!-- 31&#45;&gt;2 -->
<g id="edge38" class="edge">
<title>31&#45;&gt;2</title>
<path fill="none" stroke="black" d="M2383.98,-361.81C2414.5,-350.26 2456.35,-334.43 2487.22,-322.75"/>
<polygon fill="black" stroke="black" points="2488.12,-326.15 2496.23,-319.34 2485.64,-319.6 2488.12,-326.15"/>
</g>
<!-- 33&#45;&gt;26 -->
<g id="edge39" class="edge">
<title>33&#45;&gt;26</title>
<path fill="none" stroke="black" d="M1707.23,-215.79C1667.77,-205.89 1618,-193.4 1576.78,-183.06"/>
<polygon fill="black" stroke="black" points="1577.69,-179.68 1567.14,-180.64 1575.98,-186.47 1577.69,-179.68"/>
</g>
</g>
</svg>
