<?xml version="1.0" encoding="UTF-8" standalone="no"?>
<!DOCTYPE svg PUBLIC "-//W3C//DTD SVG 1.1//EN"
 "http://www.w3.org/Graphics/SVG/1.1/DTD/svg11.dtd">
<!-- Generated by graphviz version 12.2.1 (20241206.2353)
 -->
<!-- Title: G Pages: 1 -->
<svg width="4779pt" height="764pt"
 viewBox="0.00 0.00 4778.67 764.00" xmlns="http://www.w3.org/2000/svg" xmlns:xlink="http://www.w3.org/1999/xlink">
<g id="graph0" class="graph" transform="scale(1 1) rotate(0) translate(4 760)">
<title>G</title>
<polygon fill="white" stroke="none" points="-4,4 -4,-760 4774.67,-760 4774.67,4 -4,4"/>
<!-- 0 -->
<g id="node1" class="node">
<title>0</title>
<ellipse fill="none" stroke="black" cx="2250.47" cy="-738" rx="39.07" ry="18"/>
<text text-anchor="middle" x="2250.47" y="-732.95" font-family="Times New Roman,serif" font-size="14.00">START</text>
</g>
<!-- 0&#45;&gt;0 -->
<g id="edge1" class="edge">
<title>0&#45;&gt;0</title>
<path fill="none" stroke="black" d="M2278.66,-750.94C2293.77,-753.14 2307.54,-748.83 2307.54,-738 2307.54,-729.96 2299.95,-725.52 2289.86,-724.65"/>
<polygon fill="black" stroke="black" points="2290.04,-721.15 2280.17,-725 2290.29,-728.14 2290.04,-721.15"/>
</g>
<!-- 1 -->
<g id="node2" class="node">
<title>1</title>
<ellipse fill="none" stroke="black" cx="2403.47" cy="-234" rx="29.86" ry="18"/>
<text text-anchor="middle" x="2403.47" y="-228.95" font-family="Times New Roman,serif" font-size="14.00">input</text>
</g>
<!-- 27 -->
<g id="node28" class="node">
<title>27</title>
<ellipse fill="none" stroke="black" cx="2403.47" cy="-162" rx="810.87" ry="18"/>
<text text-anchor="middle" x="2403.47" y="-156.95" font-family="Times New Roman,serif" font-size="14.00">From A to Zrieek! A Guide To a Well&#45;Behaved Cockatoo: 一只硫磺色羽冠的凤头鹦鹉坐在封面上，嘴部微张。似乎这只鸟正在呼唤着书名：“从0到1！凤头鹦鹉驯养指南。”</text>
</g>
<!-- 1&#45;&gt;27 -->
<g id="edge2" class="edge">
<title>1&#45;&gt;27</title>
<path fill="none" stroke="black" d="M2397.59,-216.05C2396.81,-208.68 2396.55,-199.84 2396.82,-191.51"/>
<polygon fill="black" stroke="black" points="2400.3,-191.99 2397.46,-181.79 2393.31,-191.54 2400.3,-191.99"/>
</g>
<!-- 2 -->
<g id="node3" class="node">
<title>2</title>
<ellipse fill="none" stroke="black" cx="2368.47" cy="-738" rx="43.16" ry="18"/>
<text text-anchor="middle" x="2368.47" y="-732.95" font-family="Times New Roman,serif" font-size="14.00">bookhub</text>
</g>
<!-- 6 -->
<g id="node7" class="node">
<title>6</title>
<ellipse fill="none" stroke="black" cx="2081.47" cy="-666" rx="546.27" ry="18"/>
<text text-anchor="middle" x="2081.47" y="-660.95" font-family="Times New Roman,serif" font-size="14.00">From A to Zrieek! A Guide To a Well&#45;Behaved Cockatoo: 结果居然有这么多不同种类的凤头鹦鹉，而且都有行为问题。</text>
</g>
<!-- 2&#45;&gt;6 -->
<g id="edge4" class="edge">
<title>2&#45;&gt;6</title>
<path fill="none" stroke="black" d="M2335.88,-725.83C2329.48,-723.78 2322.79,-721.74 2316.47,-720 2271.31,-707.56 2220.69,-695.86 2178.03,-686.63"/>
<polygon fill="black" stroke="black" points="2178.78,-683.21 2168.27,-684.54 2177.31,-690.06 2178.78,-683.21"/>
</g>
<!-- 7 -->
<g id="node8" class="node">
<title>7</title>
<ellipse fill="none" stroke="black" cx="705.47" cy="-666" rx="180.84" ry="18"/>
<text text-anchor="middle" x="705.47" y="-660.95" font-family="Times New Roman,serif" font-size="14.00">You: “我想买这本凤头鹦鹉指南。”</text>
</g>
<!-- 2&#45;&gt;7 -->
<g id="edge5" class="edge">
<title>2&#45;&gt;7</title>
<path fill="none" stroke="black" d="M2337.22,-725.16C2330.46,-723.07 2323.3,-721.18 2316.47,-720 2005.18,-666.36 1210.83,-702.08 895.47,-684 878.23,-683.01 860.14,-681.72 842.25,-680.29"/>
<polygon fill="black" stroke="black" points="842.6,-676.81 832.35,-679.48 842.03,-683.79 842.6,-676.81"/>
</g>
<!-- 12 -->
<g id="node13" class="node">
<title>12</title>
<ellipse fill="none" stroke="black" cx="1210.47" cy="-666" rx="306.23" ry="18"/>
<text text-anchor="middle" x="1210.47" y="-660.95" font-family="Times New Roman,serif" font-size="14.00">Composure: 你没有行为问题。那些都是废话。你没什么事。</text>
</g>
<!-- 2&#45;&gt;12 -->
<g id="edge6" class="edge">
<title>2&#45;&gt;12</title>
<path fill="none" stroke="black" d="M2337.2,-725.27C2330.45,-723.16 2323.29,-721.25 2316.47,-720 1970.72,-656.81 1877.51,-701.44 1526.47,-684 1498.49,-682.61 1469.12,-681.1 1440.03,-679.57"/>
<polygon fill="black" stroke="black" points="1440.57,-676.1 1430.4,-679.06 1440.21,-683.09 1440.57,-676.1"/>
</g>
<!-- 15 -->
<g id="node16" class="node">
<title>15</title>
<ellipse fill="none" stroke="black" cx="2984.47" cy="-666" rx="137.34" ry="18"/>
<text text-anchor="middle" x="2984.47" y="-660.95" font-family="Times New Roman,serif" font-size="14.00">You: 偷走凤头鹦鹉指南。</text>
</g>
<!-- 2&#45;&gt;15 -->
<g id="edge7" class="edge">
<title>2&#45;&gt;15</title>
<path fill="none" stroke="black" d="M2409.97,-732.37C2491.9,-723.22 2680.2,-702.14 2838.47,-684 2849.71,-682.71 2861.43,-681.36 2873.14,-680.01"/>
<polygon fill="black" stroke="black" points="2873.3,-683.51 2882.83,-678.88 2872.5,-676.56 2873.3,-683.51"/>
</g>
<!-- 32 -->
<g id="node33" class="node">
<title>32</title>
<ellipse fill="none" stroke="black" cx="2756.47" cy="-666" rx="72.85" ry="18"/>
<text text-anchor="middle" x="2756.47" y="-660.95" font-family="Times New Roman,serif" font-size="14.00">You: [离开。]</text>
</g>
<!-- 2&#45;&gt;32 -->
<g id="edge3" class="edge">
<title>2&#45;&gt;32</title>
<path fill="none" stroke="black" d="M2407.95,-730.29C2465.52,-720.45 2575.82,-701.39 2669.47,-684 2676.12,-682.76 2683.05,-681.45 2689.98,-680.12"/>
<polygon fill="black" stroke="black" points="2690.16,-683.65 2699.32,-678.32 2688.83,-676.78 2690.16,-683.65"/>
</g>
<!-- 3 -->
<g id="node4" class="node">
<title>3</title>
<ellipse fill="none" stroke="black" cx="3415.47" cy="-666" rx="276.04" ry="18"/>
<text text-anchor="middle" x="3415.47" y="-660.95" font-family="Times New Roman,serif" font-size="14.00">From A to Zrieek! A Guide To a Well&#45;Behaved Cockatoo: IsKimHere()</text>
</g>
<!-- 3&#45;&gt;3 -->
<g id="edge8" class="edge">
<title>3&#45;&gt;3</title>
<path fill="none" stroke="black" d="M3604.59,-679.49C3663.33,-679.23 3709.5,-674.74 3709.5,-666 3709.5,-657.83 3669.09,-653.36 3615.78,-652.61"/>
<polygon fill="black" stroke="black" points="3616.14,-649.12 3606.1,-652.53 3616.07,-656.12 3616.14,-649.12"/>
</g>
<!-- 4 -->
<g id="node5" class="node">
<title>4</title>
<polygon fill="none" stroke="black" points="3412.47,-612 3329.71,-594 3412.47,-576 3495.22,-594 3412.47,-612"/>
<text text-anchor="middle" x="3412.47" y="-588.95" font-family="Times New Roman,serif" font-size="14.00">IsKimHere()</text>
</g>
<!-- 3&#45;&gt;4 -->
<g id="edge9" class="edge">
<title>3&#45;&gt;4</title>
<path fill="none" stroke="black" d="M3414.73,-647.7C3414.41,-640.41 3414.04,-631.73 3413.69,-623.54"/>
<polygon fill="black" stroke="black" points="3417.19,-623.46 3413.27,-613.62 3410.2,-623.76 3417.19,-623.46"/>
</g>
<!-- 8 -->
<g id="node9" class="node">
<title>8</title>
<ellipse fill="none" stroke="black" cx="3380.47" cy="-522" rx="90.25" ry="18"/>
<text text-anchor="middle" x="3380.47" y="-516.95" font-family="Times New Roman,serif" font-size="14.00">You: 翻阅书页。</text>
</g>
<!-- 4&#45;&gt;8 -->
<g id="edge10" class="edge">
<title>4&#45;&gt;8</title>
<path fill="none" stroke="black" d="M3405.21,-577.12C3401.64,-569.32 3397.24,-559.69 3393.14,-550.73"/>
<polygon fill="black" stroke="black" points="3396.34,-549.31 3389,-541.67 3389.98,-552.22 3396.34,-549.31"/>
</g>
<!-- 5 -->
<g id="node6" class="node">
<title>5</title>
<polygon fill="none" stroke="black" points="3334.47,-468 3238.68,-450 3334.47,-432 3430.25,-450 3334.47,-468"/>
<text text-anchor="middle" x="3334.47" y="-444.95" font-family="Times New Roman,serif" font-size="14.00">!(IsKimHere())</text>
</g>
<!-- 20 -->
<g id="node21" class="node">
<title>20</title>
<ellipse fill="none" stroke="black" cx="3289.47" cy="-378" rx="506.35" ry="18"/>
<text text-anchor="middle" x="3289.47" y="-372.95" font-family="Times New Roman,serif" font-size="14.00">Plaisance: “先生，请不要乱碰商品。大家都喜欢崭新的书，而不是被天知道什么样的人碰过的书。”</text>
</g>
<!-- 5&#45;&gt;20 -->
<g id="edge11" class="edge">
<title>5&#45;&gt;20</title>
<path fill="none" stroke="black" d="M3324.48,-433.46C3319.31,-425.42 3312.84,-415.36 3306.88,-406.09"/>
<polygon fill="black" stroke="black" points="3309.86,-404.25 3301.51,-397.73 3303.97,-408.04 3309.86,-404.25"/>
</g>
<!-- 11 -->
<g id="node12" class="node">
<title>11</title>
<ellipse fill="none" stroke="black" cx="2225.47" cy="-594" rx="374.3" ry="18"/>
<text text-anchor="middle" x="2225.47" y="-588.95" font-family="Times New Roman,serif" font-size="14.00">Interfacing: 你慢慢把手伸向凤头鹦鹉指南。还没碰到书，你就被打断了：</text>
</g>
<!-- 6&#45;&gt;11 -->
<g id="edge12" class="edge">
<title>6&#45;&gt;11</title>
<path fill="none" stroke="black" d="M2117.06,-647.7C2135.93,-638.53 2159.32,-627.16 2179.54,-617.33"/>
<polygon fill="black" stroke="black" points="2180.96,-620.53 2188.42,-613.01 2177.9,-614.23 2180.96,-620.53"/>
</g>
<!-- 19 -->
<g id="node20" class="node">
<title>19</title>
<ellipse fill="none" stroke="black" cx="830.47" cy="-234" rx="419.34" ry="18"/>
<text text-anchor="middle" x="830.47" y="-228.95" font-family="Times New Roman,serif" font-size="14.00">Plaisance: “哦，一个自然爱好者！选的好。我就*知道*把它留在附近是个好主意…”</text>
</g>
<!-- 7&#45;&gt;19 -->
<g id="edge13" class="edge">
<title>7&#45;&gt;19</title>
<path fill="none" stroke="black" d="M718.19,-647.62C735.8,-621.81 765.47,-571.17 765.47,-523 765.47,-523 765.47,-523 765.47,-377 765.47,-333.53 790.96,-288.82 810.01,-261.47"/>
<polygon fill="black" stroke="black" points="812.79,-263.6 815.8,-253.44 807.11,-259.51 812.79,-263.6"/>
</g>
<!-- 8&#45;&gt;5 -->
<g id="edge14" class="edge">
<title>8&#45;&gt;5</title>
<path fill="none" stroke="black" d="M3369.1,-503.7C3363.55,-495.25 3356.77,-484.94 3350.69,-475.69"/>
<polygon fill="black" stroke="black" points="3353.71,-473.9 3345.29,-467.47 3347.86,-477.75 3353.71,-473.9"/>
</g>
<!-- 9 -->
<g id="node10" class="node">
<title>9</title>
<ellipse fill="none" stroke="black" cx="4292.47" cy="-378" rx="478.2" ry="18"/>
<text text-anchor="middle" x="4292.47" y="-372.95" font-family="Times New Roman,serif" font-size="14.00">Kim Kitsuragi: 警督用力咳了几声，然后低语到：“我们真要这么做吗？我觉得还是不要了吧。”</text>
</g>
<!-- 24 -->
<g id="node25" class="node">
<title>24</title>
<ellipse fill="none" stroke="black" cx="3289.47" cy="-306" rx="84.62" ry="18"/>
<text text-anchor="middle" x="3289.47" y="-300.95" font-family="Times New Roman,serif" font-size="14.00">Jump to: [bookhub]</text>
</g>
<!-- 9&#45;&gt;24 -->
<g id="edge15" class="edge">
<title>9&#45;&gt;24</title>
<path fill="none" stroke="black" d="M4071.73,-361.59C3855.1,-346.48 3535.32,-324.16 3380.32,-313.34"/>
<polygon fill="black" stroke="black" points="3380.72,-309.86 3370.5,-312.66 3380.24,-316.84 3380.72,-309.86"/>
</g>
<!-- 10 -->
<g id="node11" class="node">
<title>10</title>
<ellipse fill="none" stroke="black" cx="2403.47" cy="-306" rx="84.62" ry="18"/>
<text text-anchor="middle" x="2403.47" y="-300.95" font-family="Times New Roman,serif" font-size="14.00">Jump to: [bookhub]</text>
</g>
<!-- 10&#45;&gt;1 -->
<g id="edge16" class="edge">
<title>10&#45;&gt;1</title>
<path fill="none" stroke="black" d="M2403.47,-287.7C2403.47,-280.41 2403.47,-271.73 2403.47,-263.54"/>
<polygon fill="black" stroke="black" points="2406.97,-263.62 2403.47,-253.62 2399.97,-263.62 2406.97,-263.62"/>
</g>
<!-- 11&#45;&gt;2 -->
<g id="edge17" class="edge">
<title>11&#45;&gt;2</title>
<path fill="none" stroke="black" d="M2430.01,-609.49C2525.63,-618.4 2621.8,-631.32 2636.47,-648 2698.31,-718.33 2518.62,-733.26 2423.44,-736.3"/>
<polygon fill="black" stroke="black" points="2423.4,-732.8 2413.5,-736.58 2423.6,-739.8 2423.4,-732.8"/>
</g>
<!-- 31 -->
<g id="node32" class="node">
<title>31</title>
<ellipse fill="none" stroke="black" cx="1229.47" cy="-450" rx="84.62" ry="18"/>
<text text-anchor="middle" x="1229.47" y="-444.95" font-family="Times New Roman,serif" font-size="14.00">Jump to: [bookhub]</text>
</g>
<!-- 12&#45;&gt;31 -->
<g id="edge18" class="edge">
<title>12&#45;&gt;31</title>
<path fill="none" stroke="black" d="M1211.99,-647.85C1215.25,-611.14 1222.93,-524.66 1226.93,-479.53"/>
<polygon fill="black" stroke="black" points="1230.41,-480.01 1227.8,-469.74 1223.43,-479.39 1230.41,-480.01"/>
</g>
<!-- 13 -->
<g id="node14" class="node">
<title>13</title>
<ellipse fill="none" stroke="black" cx="4292.47" cy="-522" rx="216.15" ry="18"/>
<text text-anchor="middle" x="4292.47" y="-516.95" font-family="Times New Roman,serif" font-size="14.00">You: “这本凤头鹦鹉指南怎么样，店主？”</text>
</g>
<!-- 26 -->
<g id="node27" class="node">
<title>26</title>
<ellipse fill="none" stroke="black" cx="4292.47" cy="-450" rx="447.49" ry="18"/>
<text text-anchor="middle" x="4292.47" y="-444.95" font-family="Times New Roman,serif" font-size="14.00">Plaisance: “如果你有凤头鹦鹉的话，那这本就是必需品了。我听说它们挺反复无常的。”</text>
</g>
<!-- 13&#45;&gt;26 -->
<g id="edge19" class="edge">
<title>13&#45;&gt;26</title>
<path fill="none" stroke="black" d="M4292.47,-503.7C4292.47,-496.41 4292.47,-487.73 4292.47,-479.54"/>
<polygon fill="black" stroke="black" points="4295.97,-479.62 4292.47,-469.62 4288.97,-479.62 4295.97,-479.62"/>
</g>
<!-- 14 -->
<g id="node15" class="node">
<title>14</title>
<ellipse fill="none" stroke="black" cx="1484.47" cy="-18" rx="352.81" ry="18"/>
<text text-anchor="middle" x="1484.47" y="-12.95" font-family="Times New Roman,serif" font-size="14.00">Tutorial Agent: 你得到了一个可互动物品。前往物品栏中与之互动吧。</text>
</g>
<!-- 16 -->
<g id="node17" class="node">
<title>16</title>
<ellipse fill="none" stroke="black" cx="2982.47" cy="-594" rx="213.59" ry="18"/>
<text text-anchor="middle" x="2982.47" y="-588.95" font-family="Times New Roman,serif" font-size="14.00">You: Variable[&quot;doomed.book_cockatoo_wc_stealing&quot;]</text>
</g>
<!-- 15&#45;&gt;16 -->
<g id="edge20" class="edge">
<title>15&#45;&gt;16</title>
<path fill="none" stroke="black" d="M2983.97,-647.7C2983.76,-640.41 2983.52,-631.73 2983.28,-623.54"/>
<polygon fill="black" stroke="black" points="2986.78,-623.51 2983,-613.62 2979.79,-623.71 2986.78,-623.51"/>
</g>
<!-- 17 -->
<g id="node18" class="node">
<title>17</title>
<polygon fill="none" stroke="black" points="2982.47,-540 2708.63,-522 2982.47,-504 3256.31,-522 2982.47,-540"/>
<text text-anchor="middle" x="2982.47" y="-516.95" font-family="Times New Roman,serif" font-size="14.00">Variable[&quot;doomed.book_cockatoo_wc_stealing&quot;]</text>
</g>
<!-- 16&#45;&gt;17 -->
<g id="edge21" class="edge">
<title>16&#45;&gt;17</title>
<path fill="none" stroke="black" d="M2982.47,-575.7C2982.47,-568.41 2982.47,-559.73 2982.47,-551.54"/>
<polygon fill="black" stroke="black" points="2985.97,-551.62 2982.47,-541.62 2978.97,-551.62 2985.97,-551.62"/>
</g>
<!-- 18 -->
<g id="node19" class="node">
<title>18</title>
<polygon fill="none" stroke="black" points="2403.47,-540 2116.6,-522 2403.47,-504 2690.34,-522 2403.47,-540"/>
<text text-anchor="middle" x="2403.47" y="-516.95" font-family="Times New Roman,serif" font-size="14.00">!(Variable[&quot;doomed.book_cockatoo_wc_stealing&quot;])</text>
</g>
<!-- 16&#45;&gt;18 -->
<g id="edge22" class="edge">
<title>16&#45;&gt;18</title>
<path fill="none" stroke="black" d="M2863.55,-578.62C2759.51,-566.04 2609.77,-547.94 2509.68,-535.84"/>
<polygon fill="black" stroke="black" points="2510.18,-532.38 2499.84,-534.65 2509.34,-539.33 2510.18,-532.38"/>
</g>
<!-- 21 -->
<g id="node22" class="node">
<title>21</title>
<ellipse fill="none" stroke="black" cx="2403.47" cy="-450" rx="410.64" ry="18"/>
<text text-anchor="middle" x="2403.47" y="-444.95" font-family="Times New Roman,serif" font-size="14.00">From A to Zrieek! A Guide To a Well&#45;Behaved Cockatoo: Variable[&quot;doomed.book_cockatoo_wc_stealing&quot;]</text>
</g>
<!-- 17&#45;&gt;21 -->
<g id="edge23" class="edge">
<title>17&#45;&gt;21</title>
<path fill="none" stroke="black" d="M2888.8,-509.68C2797.38,-498.62 2656.9,-481.64 2550.57,-468.78"/>
<polygon fill="black" stroke="black" points="2551.26,-465.34 2540.91,-467.62 2550.42,-472.29 2551.26,-465.34"/>
</g>
<!-- 18&#45;&gt;21 -->
<g id="edge24" class="edge">
<title>18&#45;&gt;21</title>
<path fill="none" stroke="black" d="M2403.47,-503.7C2403.47,-496.41 2403.47,-487.73 2403.47,-479.54"/>
<polygon fill="black" stroke="black" points="2406.97,-479.62 2403.47,-469.62 2399.97,-479.62 2406.97,-479.62"/>
</g>
<!-- 28 -->
<g id="node29" class="node">
<title>28</title>
<ellipse fill="none" stroke="black" cx="984.47" cy="-162" rx="559.58" ry="18"/>
<text text-anchor="middle" x="984.47" y="-156.95" font-family="Times New Roman,serif" font-size="14.00">From A to Zrieek! A Guide To a Well&#45;Behaved Cockatoo: Variable[&quot;tc.turn_off_tutorial_node&quot;] &#160;or &#160;Variable[&quot;character.interactable_tutorial_seen&quot;]</text>
</g>
<!-- 19&#45;&gt;28 -->
<g id="edge25" class="edge">
<title>19&#45;&gt;28</title>
<path fill="none" stroke="black" d="M868.53,-215.7C888.9,-206.44 914.19,-194.95 935.94,-185.06"/>
<polygon fill="black" stroke="black" points="937.27,-188.3 944.93,-180.97 934.37,-181.93 937.27,-188.3"/>
</g>
<!-- 20&#45;&gt;24 -->
<g id="edge26" class="edge">
<title>20&#45;&gt;24</title>
<path fill="none" stroke="black" d="M3289.47,-359.7C3289.47,-352.41 3289.47,-343.73 3289.47,-335.54"/>
<polygon fill="black" stroke="black" points="3292.97,-335.62 3289.47,-325.62 3285.97,-335.62 3292.97,-335.62"/>
</g>
<!-- 22 -->
<g id="node23" class="node">
<title>22</title>
<polygon fill="none" stroke="black" points="1794.47,-396 1520.63,-378 1794.47,-360 2068.31,-378 1794.47,-396"/>
<text text-anchor="middle" x="1794.47" y="-372.95" font-family="Times New Roman,serif" font-size="14.00">Variable[&quot;doomed.book_cockatoo_wc_stealing&quot;]</text>
</g>
<!-- 21&#45;&gt;22 -->
<g id="edge27" class="edge">
<title>21&#45;&gt;22</title>
<path fill="none" stroke="black" d="M2261.45,-432.68C2151.8,-420.07 2002.39,-402.9 1902.39,-391.41"/>
<polygon fill="black" stroke="black" points="1902.89,-387.94 1892.56,-390.27 1902.09,-394.89 1902.89,-387.94"/>
</g>
<!-- 23 -->
<g id="node24" class="node">
<title>23</title>
<polygon fill="none" stroke="black" points="2403.47,-396 2116.6,-378 2403.47,-360 2690.34,-378 2403.47,-396"/>
<text text-anchor="middle" x="2403.47" y="-372.95" font-family="Times New Roman,serif" font-size="14.00">!(Variable[&quot;doomed.book_cockatoo_wc_stealing&quot;])</text>
</g>
<!-- 21&#45;&gt;23 -->
<g id="edge28" class="edge">
<title>21&#45;&gt;23</title>
<path fill="none" stroke="black" d="M2403.47,-431.7C2403.47,-424.41 2403.47,-415.73 2403.47,-407.54"/>
<polygon fill="black" stroke="black" points="2406.97,-407.62 2403.47,-397.62 2399.97,-407.62 2406.97,-407.62"/>
</g>
<!-- 33 -->
<g id="node34" class="node">
<title>33</title>
<ellipse fill="none" stroke="black" cx="1787.47" cy="-306" rx="468.48" ry="18"/>
<text text-anchor="middle" x="1787.47" y="-300.95" font-family="Times New Roman,serif" font-size="14.00">Interfacing: 你在等待店主分心。当她没看到的时候，你把凤头鹦鹉指南塞进了自己的口袋。</text>
</g>
<!-- 22&#45;&gt;33 -->
<g id="edge29" class="edge">
<title>22&#45;&gt;33</title>
<path fill="none" stroke="black" d="M1792.74,-359.7C1792.01,-352.41 1791.14,-343.73 1790.32,-335.54"/>
<polygon fill="black" stroke="black" points="1793.81,-335.21 1789.33,-325.61 1786.84,-335.91 1793.81,-335.21"/>
</g>
<!-- 23&#45;&gt;10 -->
<g id="edge30" class="edge">
<title>23&#45;&gt;10</title>
<path fill="none" stroke="black" d="M2403.47,-359.7C2403.47,-352.41 2403.47,-343.73 2403.47,-335.54"/>
<polygon fill="black" stroke="black" points="2406.97,-335.62 2403.47,-325.62 2399.97,-335.62 2406.97,-335.62"/>
</g>
<!-- 24&#45;&gt;1 -->
<g id="edge31" class="edge">
<title>24&#45;&gt;1</title>
<path fill="none" stroke="black" d="M3211.23,-298.82C3029.19,-284.44 2582.3,-249.13 2444.56,-238.25"/>
<polygon fill="black" stroke="black" points="2445.07,-234.78 2434.83,-237.48 2444.52,-241.75 2445.07,-234.78"/>
</g>
<!-- 25 -->
<g id="node26" class="node">
<title>25</title>
<ellipse fill="none" stroke="black" cx="1733.47" cy="-234" rx="433.16" ry="18"/>
<text text-anchor="middle" x="1733.47" y="-228.95" font-family="Times New Roman,serif" font-size="14.00">Interfacing: 这是个不小的挑战，不过最终凤头鹦鹉指南是你的了。多么辉煌的成就！</text>
</g>
<!-- 25&#45;&gt;28 -->
<g id="edge32" class="edge">
<title>25&#45;&gt;28</title>
<path fill="none" stroke="black" d="M1562.57,-217.03C1446.28,-206.16 1292.36,-191.77 1172.58,-180.58"/>
<polygon fill="black" stroke="black" points="1173.25,-177.13 1162.97,-179.68 1172.6,-184.1 1173.25,-177.13"/>
</g>
<!-- 26&#45;&gt;9 -->
<g id="edge33" class="edge">
<title>26&#45;&gt;9</title>
<path fill="none" stroke="black" d="M4292.47,-431.7C4292.47,-424.41 4292.47,-415.73 4292.47,-407.54"/>
<polygon fill="black" stroke="black" points="4295.97,-407.62 4292.47,-397.62 4288.97,-407.62 4295.97,-407.62"/>
</g>
<!-- 27&#45;&gt;1 -->
<g id="edge34" class="edge">
<title>27&#45;&gt;1</title>
<path fill="none" stroke="black" d="M2409.38,-180.28C2410.14,-187.6 2410.38,-196.34 2410.11,-204.57"/>
<polygon fill="black" stroke="black" points="2406.62,-204.33 2409.45,-214.54 2413.6,-204.8 2406.62,-204.33"/>
</g>
<!-- 29 -->
<g id="node30" class="node">
<title>29</title>
<polygon fill="none" stroke="black" points="484.47,-108 0,-90 484.47,-72 968.93,-90 484.47,-108"/>
<text text-anchor="middle" x="484.47" y="-84.95" font-family="Times New Roman,serif" font-size="14.00">Variable[&quot;tc.turn_off_tutorial_node&quot;] &#160;or &#160;Variable[&quot;character.interactable_tutorial_seen&quot;]</text>
</g>
<!-- 28&#45;&gt;29 -->
<g id="edge35" class="edge">
<title>28&#45;&gt;29</title>
<path fill="none" stroke="black" d="M862.79,-143.97C780.8,-132.49 673.53,-117.47 594.17,-106.36"/>
<polygon fill="black" stroke="black" points="595.05,-102.95 584.66,-105.03 594.08,-109.88 595.05,-102.95"/>
</g>
<!-- 30 -->
<g id="node31" class="node">
<title>30</title>
<polygon fill="none" stroke="black" points="1484.47,-108 986.97,-90 1484.47,-72 1981.96,-90 1484.47,-108"/>
<text text-anchor="middle" x="1484.47" y="-84.95" font-family="Times New Roman,serif" font-size="14.00">!(Variable[&quot;tc.turn_off_tutorial_node&quot;] &#160;or &#160;Variable[&quot;character.interactable_tutorial_seen&quot;])</text>
</g>
<!-- 28&#45;&gt;30 -->
<g id="edge36" class="edge">
<title>28&#45;&gt;30</title>
<path fill="none" stroke="black" d="M1106.14,-143.97C1188,-132.51 1295.04,-117.52 1374.37,-106.41"/>
<polygon fill="black" stroke="black" points="1374.45,-109.94 1383.87,-105.08 1373.48,-103 1374.45,-109.94"/>
</g>
<!-- 30&#45;&gt;14 -->
<g id="edge37" class="edge">
<title>30&#45;&gt;14</title>
<path fill="none" stroke="black" d="M1484.47,-71.7C1484.47,-64.41 1484.47,-55.73 1484.47,-47.54"/>
<polygon fill="black" stroke="black" points="1487.97,-47.62 1484.47,-37.62 1480.97,-47.62 1487.97,-47.62"/>
</g>
<!-- 31&#45;&gt;1 -->
<g id="edge38" class="edge">
<title>31&#45;&gt;1</title>
<path fill="none" stroke="black" d="M1232.34,-431.57C1239.04,-397.18 1259.2,-321.09 1310.47,-288 1391.29,-235.84 2079.43,-257.58 2175.47,-252 2240.94,-248.2 2316.88,-242.22 2362.5,-238.46"/>
<polygon fill="black" stroke="black" points="2362.79,-241.95 2372.47,-237.64 2362.21,-234.97 2362.79,-241.95"/>
</g>
<!-- 33&#45;&gt;25 -->
<g id="edge39" class="edge">
<title>33&#45;&gt;25</title>
<path fill="none" stroke="black" d="M1774.12,-287.7C1767.91,-279.64 1760.39,-269.89 1753.51,-260.98"/>
<polygon fill="black" stroke="black" points="1756.47,-259.08 1747.59,-253.3 1750.92,-263.36 1756.47,-259.08"/>
</g>
</g>
</svg>
