<?xml version="1.0" encoding="UTF-8" standalone="no"?>
<!DOCTYPE svg PUBLIC "-//W3C//DTD SVG 1.1//EN"
 "http://www.w3.org/Graphics/SVG/1.1/DTD/svg11.dtd">
<!-- Generated by graphviz version 12.2.1 (20241206.2353)
 -->
<!-- Title: G Pages: 1 -->
<svg width="3876pt" height="1988pt"
 viewBox="0.00 0.00 3875.51 1988.00" xmlns="http://www.w3.org/2000/svg" xmlns:xlink="http://www.w3.org/1999/xlink">
<g id="graph0" class="graph" transform="scale(1 1) rotate(0) translate(4 1984)">
<title>G</title>
<polygon fill="white" stroke="none" points="-4,4 -4,-1984 3871.51,-1984 3871.51,4 -4,4"/>
<!-- 0 -->
<g id="node1" class="node">
<title>0</title>
<ellipse fill="none" stroke="black" cx="57.51" cy="-1962" rx="39.07" ry="18"/>
<text text-anchor="middle" x="57.51" y="-1956.95" font-family="Times New Roman,serif" font-size="14.00">START</text>
</g>
<!-- 0&#45;&gt;0 -->
<g id="edge1" class="edge">
<title>0&#45;&gt;0</title>
<path fill="none" stroke="black" d="M85.7,-1974.94C100.81,-1977.14 114.58,-1972.83 114.58,-1962 114.58,-1953.96 106.99,-1949.52 96.9,-1948.65"/>
<polygon fill="black" stroke="black" points="97.08,-1945.15 87.21,-1949 97.33,-1952.14 97.08,-1945.15"/>
</g>
<!-- 1 -->
<g id="node2" class="node">
<title>1</title>
<ellipse fill="none" stroke="black" cx="1493.51" cy="-1602" rx="29.86" ry="18"/>
<text text-anchor="middle" x="1493.51" y="-1596.95" font-family="Times New Roman,serif" font-size="14.00">input</text>
</g>
<!-- 32 -->
<g id="node33" class="node">
<title>32</title>
<ellipse fill="none" stroke="black" cx="1493.51" cy="-1530" rx="446.98" ry="18"/>
<text text-anchor="middle" x="1493.51" y="-1524.95" font-family="Times New Roman,serif" font-size="14.00">Logic: 这个价格*有点*不合理，不过毕竟是豪华配置增量套装第三版，所以也能说通。</text>
</g>
<!-- 1&#45;&gt;32 -->
<g id="edge2" class="edge">
<title>1&#45;&gt;32</title>
<path fill="none" stroke="black" d="M1493.51,-1583.7C1493.51,-1576.41 1493.51,-1567.73 1493.51,-1559.54"/>
<polygon fill="black" stroke="black" points="1497.01,-1559.62 1493.51,-1549.62 1490.01,-1559.62 1497.01,-1559.62"/>
</g>
<!-- 2 -->
<g id="node3" class="node">
<title>2</title>
<ellipse fill="none" stroke="black" cx="1400.51" cy="-1026" rx="27" ry="18"/>
<text text-anchor="middle" x="1400.51" y="-1020.95" font-family="Times New Roman,serif" font-size="14.00">noie</text>
</g>
<!-- 7 -->
<g id="node8" class="node">
<title>7</title>
<ellipse fill="none" stroke="black" cx="1363.51" cy="-882" rx="101.51" ry="18"/>
<text text-anchor="middle" x="1363.51" y="-876.95" font-family="Times New Roman,serif" font-size="14.00">Jump to: [mountainhub]</text>
</g>
<!-- 2&#45;&gt;7 -->
<g id="edge5" class="edge">
<title>2&#45;&gt;7</title>
<path fill="none" stroke="black" d="M1396.05,-1007.87C1389.8,-983.88 1378.36,-939.99 1370.85,-911.16"/>
<polygon fill="black" stroke="black" points="1374.28,-910.45 1368.37,-901.65 1367.5,-912.21 1374.28,-910.45"/>
</g>
<!-- 14 -->
<g id="node15" class="node">
<title>14</title>
<ellipse fill="none" stroke="black" cx="973.51" cy="-954" rx="351.78" ry="18"/>
<text text-anchor="middle" x="973.51" y="-948.95" font-family="Times New Roman,serif" font-size="14.00">Mountain of Board Games: 堆得像山一样高的桌游盒，还有威勒尔法典。</text>
</g>
<!-- 2&#45;&gt;14 -->
<g id="edge4" class="edge">
<title>2&#45;&gt;14</title>
<path fill="none" stroke="black" d="M1374.44,-1020.73C1318.47,-1011.55 1183.97,-989.5 1086.14,-973.46"/>
<polygon fill="black" stroke="black" points="1086.93,-970.05 1076.49,-971.88 1085.8,-976.95 1086.93,-970.05"/>
</g>
<!-- 25 -->
<g id="node26" class="node">
<title>25</title>
<ellipse fill="none" stroke="black" cx="2103.51" cy="-954" rx="514.54" ry="18"/>
<text text-anchor="middle" x="2103.51" y="-948.95" font-family="Times New Roman,serif" font-size="14.00">Plaisance: “如果你这么说的话。”她好奇地看了你一言。“不过你最好离那些邪恶的神秘仪式远一点。”</text>
</g>
<!-- 2&#45;&gt;25 -->
<g id="edge3" class="edge">
<title>2&#45;&gt;25</title>
<path fill="none" stroke="black" d="M1427.21,-1022.34C1507.95,-1014.3 1754.53,-989.75 1926.48,-972.63"/>
<polygon fill="black" stroke="black" points="1926.59,-976.13 1936.19,-971.66 1925.9,-969.17 1926.59,-976.13"/>
</g>
<!-- 3 -->
<g id="node4" class="node">
<title>3</title>
<ellipse fill="none" stroke="black" cx="3326.51" cy="-810" rx="292.41" ry="18"/>
<text text-anchor="middle" x="3326.51" y="-804.95" font-family="Times New Roman,serif" font-size="14.00">Conceptualization: 把书放在*桌游*区域？谁愿意看书啊！？</text>
</g>
<!-- 4 -->
<g id="node5" class="node">
<title>4</title>
<ellipse fill="none" stroke="black" cx="2955.51" cy="-738" rx="154.74" ry="18"/>
<text text-anchor="middle" x="2955.51" y="-732.95" font-family="Times New Roman,serif" font-size="14.00">You: “我想买*大领主*游戏。”</text>
</g>
<!-- 3&#45;&gt;4 -->
<g id="edge7" class="edge">
<title>3&#45;&gt;4</title>
<path fill="none" stroke="black" d="M3238.59,-792.41C3180.31,-781.42 3104.07,-767.03 3045.39,-755.96"/>
<polygon fill="black" stroke="black" points="3046.24,-752.56 3035.77,-754.14 3044.94,-759.44 3046.24,-752.56"/>
</g>
<!-- 8 -->
<g id="node9" class="node">
<title>8</title>
<ellipse fill="none" stroke="black" cx="3356.51" cy="-738" rx="227.93" ry="18"/>
<text text-anchor="middle" x="3356.51" y="-732.95" font-family="Times New Roman,serif" font-size="14.00">You: “看看我，你觉得谁愿意跟我生孩子？”</text>
</g>
<!-- 3&#45;&gt;8 -->
<g id="edge6" class="edge">
<title>3&#45;&gt;8</title>
<path fill="none" stroke="black" d="M3333.92,-791.7C3337.16,-784.15 3341.03,-775.12 3344.65,-766.68"/>
<polygon fill="black" stroke="black" points="3347.86,-768.07 3348.58,-757.5 3341.43,-765.31 3347.86,-768.07"/>
</g>
<!-- 29 -->
<g id="node30" class="node">
<title>29</title>
<ellipse fill="none" stroke="black" cx="2488.51" cy="-666" rx="101.51" ry="18"/>
<text text-anchor="middle" x="2488.51" y="-660.95" font-family="Times New Roman,serif" font-size="14.00">Jump to: [mountainhub]</text>
</g>
<!-- 4&#45;&gt;29 -->
<g id="edge8" class="edge">
<title>4&#45;&gt;29</title>
<path fill="none" stroke="black" d="M2863.24,-723.17C2779.59,-710.63 2657.2,-692.29 2575.3,-680.01"/>
<polygon fill="black" stroke="black" points="2575.92,-676.56 2565.51,-678.54 2574.88,-683.49 2575.92,-676.56"/>
</g>
<!-- 5 -->
<g id="node6" class="node">
<title>5</title>
<ellipse fill="none" stroke="black" cx="1589.51" cy="-450" rx="219.74" ry="18"/>
<text text-anchor="middle" x="1589.51" y="-444.95" font-family="Times New Roman,serif" font-size="14.00">You: 嗯，也许我对这些东西不太感兴趣。</text>
</g>
<!-- 53 -->
<g id="node54" class="node">
<title>53</title>
<ellipse fill="none" stroke="black" cx="1669.51" cy="-378" rx="311.35" ry="18"/>
<text text-anchor="middle" x="1669.51" y="-372.95" font-family="Times New Roman,serif" font-size="14.00">Jump to: [Mountain of Board Games: &quot;A towering mountain of colourful bo...&quot;]</text>
</g>
<!-- 5&#45;&gt;53 -->
<g id="edge9" class="edge">
<title>5&#45;&gt;53</title>
<path fill="none" stroke="black" d="M1609.28,-431.7C1618.9,-423.28 1630.63,-413.02 1641.18,-403.79"/>
<polygon fill="black" stroke="black" points="1643.32,-406.56 1648.54,-397.34 1638.71,-401.29 1643.32,-406.56"/>
</g>
<!-- 6 -->
<g id="node7" class="node">
<title>6</title>
<ellipse fill="none" stroke="black" cx="1301.51" cy="-1674" rx="128.63" ry="18"/>
<text text-anchor="middle" x="1301.51" y="-1668.95" font-family="Times New Roman,serif" font-size="14.00">Inland Empire: 那就不要。</text>
</g>
<!-- 6&#45;&gt;1 -->
<g id="edge10" class="edge">
<title>6&#45;&gt;1</title>
<path fill="none" stroke="black" d="M1346.04,-1656.76C1380.03,-1644.37 1426.24,-1627.52 1457.82,-1616.01"/>
<polygon fill="black" stroke="black" points="1458.72,-1619.41 1466.91,-1612.7 1456.32,-1612.83 1458.72,-1619.41"/>
</g>
<!-- 15 -->
<g id="node16" class="node">
<title>15</title>
<ellipse fill="none" stroke="black" cx="1265.51" cy="-594" rx="227.93" ry="18"/>
<text text-anchor="middle" x="1265.51" y="-588.95" font-family="Times New Roman,serif" font-size="14.00">You: “是的。孩子，朋友，小妞。我都有。”</text>
</g>
<!-- 7&#45;&gt;15 -->
<g id="edge11" class="edge">
<title>7&#45;&gt;15</title>
<path fill="none" stroke="black" d="M1358.79,-863.6C1354.55,-843.75 1351.33,-811.52 1368.51,-792 1379.35,-779.68 1939.02,-696.62 1949.51,-684 1959.74,-671.7 1960.38,-659.74 1949.51,-648 1918.96,-614.99 1686.36,-602.48 1500.76,-597.78"/>
<polygon fill="black" stroke="black" points="1501.04,-594.28 1490.96,-597.54 1500.87,-601.28 1501.04,-594.28"/>
</g>
<!-- 38 -->
<g id="node39" class="node">
<title>38</title>
<ellipse fill="none" stroke="black" cx="3197.51" cy="-666" rx="328.75" ry="18"/>
<text text-anchor="middle" x="3197.51" y="-660.95" font-family="Times New Roman,serif" font-size="14.00">Inland Empire: 你打算跟谁一起玩桌游呢？你有朋友或者家人吗？</text>
</g>
<!-- 8&#45;&gt;38 -->
<g id="edge12" class="edge">
<title>8&#45;&gt;38</title>
<path fill="none" stroke="black" d="M3317.61,-719.88C3296.42,-710.55 3269.97,-698.9 3247.29,-688.92"/>
<polygon fill="black" stroke="black" points="3248.78,-685.75 3238.22,-684.92 3245.96,-692.15 3248.78,-685.75"/>
</g>
<!-- 9 -->
<g id="node10" class="node">
<title>9</title>
<ellipse fill="none" stroke="black" cx="3105.51" cy="-594" rx="184.42" ry="18"/>
<text text-anchor="middle" x="3105.51" y="-588.95" font-family="Times New Roman,serif" font-size="14.00">You: 有什么特别吸引我目光的吗？</text>
</g>
<!-- 39 -->
<g id="node40" class="node">
<title>39</title>
<ellipse fill="none" stroke="black" cx="2698.51" cy="-378" rx="659.38" ry="18"/>
<text text-anchor="middle" x="2698.51" y="-372.95" font-family="Times New Roman,serif" font-size="14.00">Plaisance: “别对自己这么苛刻，先生。你需要好好梳洗一下。而且从严格意义上讲，朋友也有点像家人。”她摆弄着自己的吊坠。</text>
</g>
<!-- 9&#45;&gt;39 -->
<g id="edge13" class="edge">
<title>9&#45;&gt;39</title>
<path fill="none" stroke="black" d="M3049,-576.42C2985.24,-556.29 2879.84,-518.65 2798.51,-468 2769.81,-450.13 2741.44,-423.83 2722.28,-404.45"/>
<polygon fill="black" stroke="black" points="2724.95,-402.17 2715.47,-397.44 2719.93,-407.05 2724.95,-402.17"/>
</g>
<!-- 10 -->
<g id="node11" class="node">
<title>10</title>
<ellipse fill="none" stroke="black" cx="1042.51" cy="-810" rx="149.62" ry="18"/>
<text text-anchor="middle" x="1042.51" y="-804.95" font-family="Times New Roman,serif" font-size="14.00">Variable[&quot;doomed.game_ie_family&quot;]</text>
</g>
<!-- 10&#45;&gt;10 -->
<g id="edge14" class="edge">
<title>10&#45;&gt;10</title>
<path fill="none" stroke="black" d="M1144.8,-823.49C1180.87,-823.71 1210.13,-819.21 1210.13,-810 1210.13,-801.76 1186.71,-797.29 1155.96,-796.6"/>
<polygon fill="black" stroke="black" points="1156.34,-793.1 1146.32,-796.52 1156.29,-800.1 1156.34,-793.1"/>
</g>
<!-- 11 -->
<g id="node12" class="node">
<title>11</title>
<polygon fill="none" stroke="black" points="700.51,-756 488.92,-738 700.51,-720 912.1,-738 700.51,-756"/>
<text text-anchor="middle" x="700.51" y="-732.95" font-family="Times New Roman,serif" font-size="14.00">Variable[&quot;doomed.game_ie_family&quot;]</text>
</g>
<!-- 10&#45;&gt;11 -->
<g id="edge15" class="edge">
<title>10&#45;&gt;11</title>
<path fill="none" stroke="black" d="M968.72,-793.9C910.46,-781.97 829.64,-765.43 771.99,-753.63"/>
<polygon fill="black" stroke="black" points="772.76,-750.22 762.26,-751.64 771.35,-757.07 772.76,-750.22"/>
</g>
<!-- 49 -->
<g id="node50" class="node">
<title>49</title>
<ellipse fill="none" stroke="black" cx="269.51" cy="-666" rx="101.51" ry="18"/>
<text text-anchor="middle" x="269.51" y="-660.95" font-family="Times New Roman,serif" font-size="14.00">Jump to: [mountainhub]</text>
</g>
<!-- 11&#45;&gt;49 -->
<g id="edge16" class="edge">
<title>11&#45;&gt;49</title>
<path fill="none" stroke="black" d="M629.82,-725.52C554.1,-713.22 433.97,-693.71 353.48,-680.64"/>
<polygon fill="black" stroke="black" points="354.32,-677.23 343.89,-679.08 353.2,-684.14 354.32,-677.23"/>
</g>
<!-- 12 -->
<g id="node13" class="node">
<title>12</title>
<polygon fill="none" stroke="black" points="3514.51,-36 3289.89,-18 3514.51,0 3739.13,-18 3514.51,-36"/>
<text text-anchor="middle" x="3514.51" y="-12.95" font-family="Times New Roman,serif" font-size="14.00">!(Variable[&quot;doomed.game_ie_family&quot;])</text>
</g>
<!-- 12&#45;&gt;1 -->
<g id="edge17" class="edge">
<title>12&#45;&gt;1</title>
<path fill="none" stroke="black" d="M3579.25,-31.27C3681.16,-52.44 3867.51,-99.57 3867.51,-161 3867.51,-1459 3867.51,-1459 3867.51,-1459 3867.51,-1580.78 1850.54,-1598.71 1534.85,-1600.76"/>
<polygon fill="black" stroke="black" points="1535.02,-1597.26 1525.04,-1600.83 1535.06,-1604.26 1535.02,-1597.26"/>
</g>
<!-- 13 -->
<g id="node14" class="node">
<title>13</title>
<ellipse fill="none" stroke="black" cx="2078.51" cy="-306" rx="400.4" ry="18"/>
<text text-anchor="middle" x="2078.51" y="-300.95" font-family="Times New Roman,serif" font-size="14.00">Plaisance: “从严格意义上讲，朋友就像家人一样。”她把玩着吊坠，若有所思。</text>
</g>
<!-- 46 -->
<g id="node47" class="node">
<title>46</title>
<ellipse fill="none" stroke="black" cx="2875.51" cy="-234" rx="207.96" ry="18"/>
<text text-anchor="middle" x="2875.51" y="-228.95" font-family="Times New Roman,serif" font-size="14.00">You: 哇哦，我有孩子？有自己的家庭？</text>
</g>
<!-- 13&#45;&gt;46 -->
<g id="edge18" class="edge">
<title>13&#45;&gt;46</title>
<path fill="none" stroke="black" d="M2255.88,-289.42C2395.75,-277.14 2588.8,-260.18 2722.07,-248.48"/>
<polygon fill="black" stroke="black" points="2722,-252 2731.66,-247.63 2721.39,-245.02 2722,-252"/>
</g>
<!-- 14&#45;&gt;15 -->
<g id="edge19" class="edge">
<title>14&#45;&gt;15</title>
<path fill="none" stroke="black" d="M776.39,-938.69C529.79,-918.08 139.51,-875.3 139.51,-811 139.51,-811 139.51,-811 139.51,-737 139.51,-696.55 127.68,-674.18 158.51,-648 191.3,-620.15 718.75,-605.34 1033.57,-598.95"/>
<polygon fill="black" stroke="black" points="1033.24,-602.46 1043.17,-598.76 1033.1,-595.46 1033.24,-602.46"/>
</g>
<!-- 22 -->
<g id="node23" class="node">
<title>22</title>
<ellipse fill="none" stroke="black" cx="1429.51" cy="-522" rx="149.11" ry="18"/>
<text text-anchor="middle" x="1429.51" y="-516.95" font-family="Times New Roman,serif" font-size="14.00">You: 我不想思考这个问题。</text>
</g>
<!-- 15&#45;&gt;22 -->
<g id="edge20" class="edge">
<title>15&#45;&gt;22</title>
<path fill="none" stroke="black" d="M1305.63,-575.88C1327.91,-566.36 1355.84,-554.44 1379.53,-544.33"/>
<polygon fill="black" stroke="black" points="1380.87,-547.57 1388.7,-540.42 1378.12,-541.13 1380.87,-547.57"/>
</g>
<!-- 16 -->
<g id="node17" class="node">
<title>16</title>
<ellipse fill="none" stroke="black" cx="2243.51" cy="-882" rx="60.05" ry="18"/>
<text text-anchor="middle" x="2243.51" y="-876.95" font-family="Times New Roman,serif" font-size="14.00">mountainhub</text>
</g>
<!-- 16&#45;&gt;3 -->
<g id="edge22" class="edge">
<title>16&#45;&gt;3</title>
<path fill="none" stroke="black" d="M2301.74,-877.24C2453.31,-867.44 2865.9,-840.77 3118.93,-824.42"/>
<polygon fill="black" stroke="black" points="3118.84,-827.93 3128.6,-823.79 3118.39,-820.94 3118.84,-827.93"/>
</g>
<!-- 23 -->
<g id="node24" class="node">
<title>23</title>
<ellipse fill="none" stroke="black" cx="3323.51" cy="-450" rx="516.07" ry="18"/>
<text text-anchor="middle" x="3323.51" y="-444.95" font-family="Times New Roman,serif" font-size="14.00">Plaisance: “那你可真是个幸运的男人，警官。孩子是最大的财富…”她把玩着自己的吊坠，若有所思。</text>
</g>
<!-- 16&#45;&gt;23 -->
<g id="edge26" class="edge">
<title>16&#45;&gt;23</title>
<path fill="none" stroke="black" d="M2303.58,-880.74C2562.96,-879.35 3576.19,-871.17 3627.51,-828 3658.46,-801.96 3646.51,-779.45 3646.51,-739 3646.51,-739 3646.51,-739 3646.51,-593 3646.51,-524.25 3584.42,-488.49 3514.69,-470"/>
<polygon fill="black" stroke="black" points="3515.92,-466.7 3505.36,-467.66 3514.21,-473.49 3515.92,-466.7"/>
</g>
<!-- 33 -->
<g id="node34" class="node">
<title>33</title>
<ellipse fill="none" stroke="black" cx="1164.51" cy="-666" rx="775.56" ry="18"/>
<text text-anchor="middle" x="1164.51" y="-660.95" font-family="Times New Roman,serif" font-size="14.00">Mountain of Board Games: 彩色的桌游盒堆成了一座小山，里面有各种各样为不同年龄段准备的游戏。书架的很多空间似乎都被威勒尔相关的商品占据了。</text>
</g>
<!-- 16&#45;&gt;33 -->
<g id="edge21" class="edge">
<title>16&#45;&gt;33</title>
<path fill="none" stroke="black" d="M2183.83,-879.45C1999.04,-874.37 1444.19,-856.86 1368.51,-828 1292.21,-798.9 1221.83,-730.48 1187.14,-692.87"/>
<polygon fill="black" stroke="black" points="1189.83,-690.63 1180.51,-685.58 1184.64,-695.34 1189.83,-690.63"/>
</g>
<!-- 36 -->
<g id="node37" class="node">
<title>36</title>
<ellipse fill="none" stroke="black" cx="2383.51" cy="-810" rx="595.4" ry="18"/>
<text text-anchor="middle" x="2383.51" y="-804.95" font-family="Times New Roman,serif" font-size="14.00">Mountain of Board Games: 桌子上散落着不同种类的资料书，攻略书和法典。最上面那本的标题是“精灵纲要，第二版。”</text>
</g>
<!-- 16&#45;&gt;36 -->
<g id="edge23" class="edge">
<title>16&#45;&gt;36</title>
<path fill="none" stroke="black" d="M2273.54,-865.98C2292.46,-856.52 2317.24,-844.14 2338.48,-833.51"/>
<polygon fill="black" stroke="black" points="2339.85,-836.74 2347.23,-829.14 2336.72,-830.48 2339.85,-836.74"/>
</g>
<!-- 43 -->
<g id="node44" class="node">
<title>43</title>
<ellipse fill="none" stroke="black" cx="546.51" cy="-810" rx="328.75" ry="18"/>
<text text-anchor="middle" x="546.51" y="-804.95" font-family="Times New Roman,serif" font-size="14.00">Inland Empire: 感觉就像是：不管你是谁，都会跟着你一起死去。</text>
</g>
<!-- 16&#45;&gt;43 -->
<g id="edge24" class="edge">
<title>16&#45;&gt;43</title>
<path fill="none" stroke="black" d="M2183.84,-878.92C1993.91,-872.24 1386.3,-850.48 883.51,-828 853.28,-826.65 821.52,-825.15 790.09,-823.62"/>
<polygon fill="black" stroke="black" points="790.66,-820.14 780.5,-823.15 790.32,-827.13 790.66,-820.14"/>
</g>
<!-- 44 -->
<g id="node45" class="node">
<title>44</title>
<ellipse fill="none" stroke="black" cx="1573.51" cy="-810" rx="196.19" ry="18"/>
<text text-anchor="middle" x="1573.51" y="-804.95" font-family="Times New Roman,serif" font-size="14.00">You: 浏览那堆跟威勒尔有关的商品。</text>
</g>
<!-- 16&#45;&gt;44 -->
<g id="edge25" class="edge">
<title>16&#45;&gt;44</title>
<path fill="none" stroke="black" d="M2187.54,-875.15C2083.55,-864.29 1857.8,-840.7 1710.92,-825.36"/>
<polygon fill="black" stroke="black" points="1711.42,-821.89 1701.11,-824.33 1710.69,-828.85 1711.42,-821.89"/>
</g>
<!-- 17 -->
<g id="node18" class="node">
<title>17</title>
<ellipse fill="none" stroke="black" cx="2757.51" cy="-1962" rx="342.57" ry="18"/>
<text text-anchor="middle" x="2757.51" y="-1956.95" font-family="Times New Roman,serif" font-size="14.00">Variable[&quot;tc.turn_off_tutorial_node&quot;] &#160;or &#160;Variable[&quot;character.interactable_tutorial_seen&quot;]</text>
</g>
<!-- 17&#45;&gt;17 -->
<g id="edge27" class="edge">
<title>17&#45;&gt;17</title>
<path fill="none" stroke="black" d="M2992.46,-1975.48C3063.04,-1975.1 3118.08,-1970.61 3118.08,-1962 3118.08,-1953.86 3068.89,-1949.4 3003.89,-1948.62"/>
<polygon fill="black" stroke="black" points="3004,-1945.12 2993.97,-1948.54 3003.94,-1952.12 3004,-1945.12"/>
</g>
<!-- 18 -->
<g id="node19" class="node">
<title>18</title>
<polygon fill="none" stroke="black" points="2757.51,-1908 2273.04,-1890 2757.51,-1872 3241.98,-1890 2757.51,-1908"/>
<text text-anchor="middle" x="2757.51" y="-1884.95" font-family="Times New Roman,serif" font-size="14.00">Variable[&quot;tc.turn_off_tutorial_node&quot;] &#160;or &#160;Variable[&quot;character.interactable_tutorial_seen&quot;]</text>
</g>
<!-- 17&#45;&gt;18 -->
<g id="edge28" class="edge">
<title>17&#45;&gt;18</title>
<path fill="none" stroke="black" d="M2757.51,-1943.7C2757.51,-1936.41 2757.51,-1927.73 2757.51,-1919.54"/>
<polygon fill="black" stroke="black" points="2761.01,-1919.62 2757.51,-1909.62 2754.01,-1919.62 2761.01,-1919.62"/>
</g>
<!-- 34 -->
<g id="node35" class="node">
<title>34</title>
<ellipse fill="none" stroke="black" cx="2757.51" cy="-1818" rx="192.61" ry="18"/>
<text text-anchor="middle" x="2757.51" y="-1812.95" font-family="Times New Roman,serif" font-size="14.00">You: “店主，你这里都有什么桌游？”</text>
</g>
<!-- 18&#45;&gt;34 -->
<g id="edge29" class="edge">
<title>18&#45;&gt;34</title>
<path fill="none" stroke="black" d="M2757.51,-1871.7C2757.51,-1864.41 2757.51,-1855.73 2757.51,-1847.54"/>
<polygon fill="black" stroke="black" points="2761.01,-1847.62 2757.51,-1837.62 2754.01,-1847.62 2761.01,-1847.62"/>
</g>
<!-- 19 -->
<g id="node20" class="node">
<title>19</title>
<polygon fill="none" stroke="black" points="1493.51,-1260 996.01,-1242 1493.51,-1224 1991,-1242 1493.51,-1260"/>
<text text-anchor="middle" x="1493.51" y="-1236.95" font-family="Times New Roman,serif" font-size="14.00">!(Variable[&quot;tc.turn_off_tutorial_node&quot;] &#160;or &#160;Variable[&quot;character.interactable_tutorial_seen&quot;])</text>
</g>
<!-- 40 -->
<g id="node41" class="node">
<title>40</title>
<ellipse fill="none" stroke="black" cx="1493.51" cy="-1170" rx="888.67" ry="18"/>
<text text-anchor="middle" x="1493.51" y="-1164.95" font-family="Times New Roman,serif" font-size="14.00">Mountain of Board Games: 有一个盒子上面写着：“威勒尔。豪华配置增量套装第三版”。侧面注释着：“一部*幻想*冒险桌游。新地图，新模型！上面贴着一个标签——25雷亚尔。”</text>
</g>
<!-- 19&#45;&gt;40 -->
<g id="edge30" class="edge">
<title>19&#45;&gt;40</title>
<path fill="none" stroke="black" d="M1493.51,-1223.7C1493.51,-1216.41 1493.51,-1207.73 1493.51,-1199.54"/>
<polygon fill="black" stroke="black" points="1497.01,-1199.62 1493.51,-1189.62 1490.01,-1199.62 1497.01,-1199.62"/>
</g>
<!-- 20 -->
<g id="node21" class="node">
<title>20</title>
<ellipse fill="none" stroke="black" cx="1109.51" cy="-1818" rx="815.99" ry="18"/>
<text text-anchor="middle" x="1109.51" y="-1812.95" font-family="Times New Roman,serif" font-size="14.00">Plaisance: “那里有污秽的光环！”她颤抖着。“不，*角色扮演游戏*是其中最流行的…你知道的，大家喜欢这类东西。就我个人而言，我不喜欢。一点也不喜欢！”</text>
</g>
<!-- 52 -->
<g id="node53" class="node">
<title>52</title>
<ellipse fill="none" stroke="black" cx="1109.51" cy="-1746" rx="890.2" ry="18"/>
<text text-anchor="middle" x="1109.51" y="-1740.95" font-family="Times New Roman,serif" font-size="14.00">Plaisance: “我听说他们会把人变成神秘主义爱好者。他们还有某种仪式，用来召唤特殊的*存在*。都是特别邪恶的东西…不过，你要买还是可以的。”她看着桌子，抱紧双臂。</text>
</g>
<!-- 20&#45;&gt;52 -->
<g id="edge31" class="edge">
<title>20&#45;&gt;52</title>
<path fill="none" stroke="black" d="M1109.51,-1799.7C1109.51,-1792.41 1109.51,-1783.73 1109.51,-1775.54"/>
<polygon fill="black" stroke="black" points="1113.01,-1775.62 1109.51,-1765.62 1106.01,-1775.62 1113.01,-1775.62"/>
</g>
<!-- 21 -->
<g id="node22" class="node">
<title>21</title>
<ellipse fill="none" stroke="black" cx="101.51" cy="-1818" rx="101.51" ry="18"/>
<text text-anchor="middle" x="101.51" y="-1812.95" font-family="Times New Roman,serif" font-size="14.00">Jump to: [mountainhub]</text>
</g>
<!-- 21&#45;&gt;15 -->
<g id="edge32" class="edge">
<title>21&#45;&gt;15</title>
<path fill="none" stroke="black" d="M101.51,-1799.51C101.51,-1772.71 101.51,-1719.87 101.51,-1675 101.51,-1675 101.51,-1675 101.51,-737 101.51,-694.97 99.7,-672.98 133.51,-648 169.1,-621.71 713.86,-606.19 1034.48,-599.29"/>
<polygon fill="black" stroke="black" points="1034.35,-602.8 1044.27,-599.08 1034.2,-595.8 1034.35,-602.8"/>
</g>
<!-- 22&#45;&gt;5 -->
<g id="edge33" class="edge">
<title>22&#45;&gt;5</title>
<path fill="none" stroke="black" d="M1467.83,-504.23C1489.48,-494.76 1516.77,-482.82 1540.02,-472.65"/>
<polygon fill="black" stroke="black" points="1541.24,-475.94 1549,-468.72 1538.43,-469.52 1541.24,-475.94"/>
</g>
<!-- 23&#45;&gt;46 -->
<g id="edge34" class="edge">
<title>23&#45;&gt;46</title>
<path fill="none" stroke="black" d="M3342.53,-431.73C3361,-412.87 3383.89,-382.36 3366.51,-360 3322.87,-303.86 3138.54,-268.78 3008.62,-250.54"/>
<polygon fill="black" stroke="black" points="3009.29,-247.1 2998.9,-249.2 3008.33,-254.04 3009.29,-247.1"/>
</g>
<!-- 24 -->
<g id="node25" class="node">
<title>24</title>
<ellipse fill="none" stroke="black" cx="1493.51" cy="-1314" rx="163.44" ry="18"/>
<text text-anchor="middle" x="1493.51" y="-1308.95" font-family="Times New Roman,serif" font-size="14.00">You: “那一堆‘威勒尔’是什么？”</text>
</g>
<!-- 24&#45;&gt;19 -->
<g id="edge35" class="edge">
<title>24&#45;&gt;19</title>
<path fill="none" stroke="black" d="M1493.51,-1295.7C1493.51,-1288.41 1493.51,-1279.73 1493.51,-1271.54"/>
<polygon fill="black" stroke="black" points="1497.01,-1271.62 1493.51,-1261.62 1490.01,-1271.62 1497.01,-1271.62"/>
</g>
<!-- 25&#45;&gt;16 -->
<g id="edge36" class="edge">
<title>25&#45;&gt;16</title>
<path fill="none" stroke="black" d="M2138.12,-935.7C2157.93,-925.79 2182.87,-913.32 2203.52,-903"/>
<polygon fill="black" stroke="black" points="2204.84,-906.25 2212.22,-898.65 2201.71,-899.99 2204.84,-906.25"/>
</g>
<!-- 26 -->
<g id="node27" class="node">
<title>26</title>
<ellipse fill="none" stroke="black" cx="3416.51" cy="-90" rx="169.07" ry="18"/>
<text text-anchor="middle" x="3416.51" y="-84.95" font-family="Times New Roman,serif" font-size="14.00">You: “我觉得自己好像没孩子。”</text>
</g>
<!-- 26&#45;&gt;12 -->
<g id="edge37" class="edge">
<title>26&#45;&gt;12</title>
<path fill="none" stroke="black" d="M3440.73,-71.7C3453.63,-62.49 3469.63,-51.06 3483.43,-41.2"/>
<polygon fill="black" stroke="black" points="3485.23,-44.21 3491.34,-35.55 3481.17,-38.52 3485.23,-44.21"/>
</g>
<!-- 27 -->
<g id="node28" class="node">
<title>27</title>
<ellipse fill="none" stroke="black" cx="1493.51" cy="-1458" rx="786.31" ry="18"/>
<text text-anchor="middle" x="1493.51" y="-1452.95" font-family="Times New Roman,serif" font-size="14.00">Plaisance: “*强盗贵族*是一款有趣的经济竞争游戏，不过玩着玩着就会变得很紧张。我们还有适合全家人一起玩的游戏。你可以跟自己的孩子一起玩耍！”</text>
</g>
<!-- 37 -->
<g id="node38" class="node">
<title>37</title>
<ellipse fill="none" stroke="black" cx="1493.51" cy="-1386" rx="154.74" ry="18"/>
<text text-anchor="middle" x="1493.51" y="-1380.95" font-family="Times New Roman,serif" font-size="14.00">You: “我想买*威勒尔*游戏。”</text>
</g>
<!-- 27&#45;&gt;37 -->
<g id="edge38" class="edge">
<title>27&#45;&gt;37</title>
<path fill="none" stroke="black" d="M1493.51,-1439.7C1493.51,-1432.41 1493.51,-1423.73 1493.51,-1415.54"/>
<polygon fill="black" stroke="black" points="1497.01,-1415.62 1493.51,-1405.62 1490.01,-1415.62 1497.01,-1415.62"/>
</g>
<!-- 28 -->
<g id="node29" class="node">
<title>28</title>
<ellipse fill="none" stroke="black" cx="3414.51" cy="-1962" rx="278.59" ry="18"/>
<text text-anchor="middle" x="3414.51" y="-1956.95" font-family="Times New Roman,serif" font-size="14.00">Physical Instrument: 对于贫血四眼仔来说，这都是废话！</text>
</g>
<!-- 28&#45;&gt;28 -->
<g id="edge39" class="edge">
<title>28&#45;&gt;28</title>
<path fill="none" stroke="black" d="M3605.28,-1975.49C3664.52,-1975.23 3711.1,-1970.74 3711.1,-1962 3711.1,-1953.83 3670.34,-1949.36 3616.57,-1948.61"/>
<polygon fill="black" stroke="black" points="3616.82,-1945.12 3606.79,-1948.53 3616.76,-1952.12 3616.82,-1945.12"/>
</g>
<!-- 29&#45;&gt;15 -->
<g id="edge40" class="edge">
<title>29&#45;&gt;15</title>
<path fill="none" stroke="black" d="M2393.92,-659.12C2339.91,-655.8 2270.91,-651.59 2209.51,-648 1950.23,-632.82 1650.85,-616.16 1459.98,-605.65"/>
<polygon fill="black" stroke="black" points="1460.39,-602.16 1450.21,-605.11 1460,-609.15 1460.39,-602.16"/>
</g>
<!-- 30 -->
<g id="node31" class="node">
<title>30</title>
<ellipse fill="none" stroke="black" cx="2353.51" cy="-738" rx="429.58" ry="18"/>
<text text-anchor="middle" x="2353.51" y="-732.95" font-family="Times New Roman,serif" font-size="14.00">Plaisance: “很棒的选择，先生。”她对你笑了笑。“一个有益身心健康的*家庭*游戏。”</text>
</g>
<!-- 30&#45;&gt;16 -->
<g id="edge41" class="edge">
<title>30&#45;&gt;16</title>
<path fill="none" stroke="black" d="M2613.06,-752.72C2782.32,-762.97 2974.29,-777.63 2987.51,-792 2998.34,-803.78 2998.41,-816.29 2987.51,-828 2942.31,-876.54 2492.94,-881.33 2315.26,-881.31"/>
<polygon fill="black" stroke="black" points="2315.48,-877.81 2305.47,-881.3 2315.47,-884.81 2315.48,-877.81"/>
</g>
<!-- 31 -->
<g id="node32" class="node">
<title>31</title>
<ellipse fill="none" stroke="black" cx="1493.51" cy="-1098" rx="918.87" ry="18"/>
<text text-anchor="middle" x="1493.51" y="-1092.95" font-family="Times New Roman,serif" font-size="14.00">Mountain of Board Games: 还有一本大型精装巨著，封面图片特别复杂：“卡塔克猎人：北方生物纲要”，还有一本*自由路线选择*冒险游戏书，名字是：“威勒尔传说：沃克拉格山洞”。</text>
</g>
<!-- 31&#45;&gt;2 -->
<g id="edge42" class="edge">
<title>31&#45;&gt;2</title>
<path fill="none" stroke="black" d="M1470.52,-1079.7C1457.32,-1069.76 1440.69,-1057.25 1426.95,-1046.91"/>
<polygon fill="black" stroke="black" points="1429.29,-1044.28 1419.19,-1041.06 1425.08,-1049.87 1429.29,-1044.28"/>
</g>
<!-- 32&#45;&gt;27 -->
<g id="edge43" class="edge">
<title>32&#45;&gt;27</title>
<path fill="none" stroke="black" d="M1493.51,-1511.7C1493.51,-1504.41 1493.51,-1495.73 1493.51,-1487.54"/>
<polygon fill="black" stroke="black" points="1497.01,-1487.62 1493.51,-1477.62 1490.01,-1487.62 1497.01,-1487.62"/>
</g>
<!-- 33&#45;&gt;15 -->
<g id="edge44" class="edge">
<title>33&#45;&gt;15</title>
<path fill="none" stroke="black" d="M1189.73,-647.52C1202.36,-638.76 1217.83,-628.04 1231.49,-618.58"/>
<polygon fill="black" stroke="black" points="1233.13,-621.7 1239.36,-613.12 1229.15,-615.94 1233.13,-621.7"/>
</g>
<!-- 41 -->
<g id="node42" class="node">
<title>41</title>
<ellipse fill="none" stroke="black" cx="2757.51" cy="-1746" rx="352.81" ry="18"/>
<text text-anchor="middle" x="2757.51" y="-1740.95" font-family="Times New Roman,serif" font-size="14.00">Tutorial Agent: 你得到了一个可互动物品。前往物品栏中与之互动吧。</text>
</g>
<!-- 34&#45;&gt;41 -->
<g id="edge45" class="edge">
<title>34&#45;&gt;41</title>
<path fill="none" stroke="black" d="M2751.59,-1799.7C2750.84,-1792.41 2750.6,-1783.73 2750.86,-1775.54"/>
<polygon fill="black" stroke="black" points="2754.35,-1775.82 2751.51,-1765.61 2747.37,-1775.36 2754.35,-1775.82"/>
</g>
<!-- 35 -->
<g id="node36" class="node">
<title>35</title>
<ellipse fill="none" stroke="black" cx="2098.51" cy="-666" rx="101.51" ry="18"/>
<text text-anchor="middle" x="2098.51" y="-660.95" font-family="Times New Roman,serif" font-size="14.00">Jump to: [mountainhub]</text>
</g>
<!-- 35&#45;&gt;15 -->
<g id="edge46" class="edge">
<title>35&#45;&gt;15</title>
<path fill="none" stroke="black" d="M2024.35,-653.32C2010.47,-651.37 1996.06,-649.49 1982.51,-648 1806.27,-628.6 1604.85,-614.41 1460.47,-605.62"/>
<polygon fill="black" stroke="black" points="1461,-602.15 1450.81,-605.04 1460.58,-609.14 1461,-602.15"/>
</g>
<!-- 36&#45;&gt;30 -->
<g id="edge47" class="edge">
<title>36&#45;&gt;30</title>
<path fill="none" stroke="black" d="M2376.09,-791.7C2372.86,-784.15 2368.99,-775.12 2365.37,-766.68"/>
<polygon fill="black" stroke="black" points="2368.59,-765.31 2361.44,-757.5 2362.16,-768.07 2368.59,-765.31"/>
</g>
<!-- 37&#45;&gt;24 -->
<g id="edge48" class="edge">
<title>37&#45;&gt;24</title>
<path fill="none" stroke="black" d="M1493.51,-1367.7C1493.51,-1360.41 1493.51,-1351.73 1493.51,-1343.54"/>
<polygon fill="black" stroke="black" points="1497.01,-1343.62 1493.51,-1333.62 1490.01,-1343.62 1497.01,-1343.62"/>
</g>
<!-- 38&#45;&gt;9 -->
<g id="edge49" class="edge">
<title>38&#45;&gt;9</title>
<path fill="none" stroke="black" d="M3174.77,-647.7C3163.49,-639.11 3149.68,-628.61 3137.36,-619.24"/>
<polygon fill="black" stroke="black" points="3139.59,-616.53 3129.51,-613.26 3135.35,-622.1 3139.59,-616.53"/>
</g>
<!-- 39&#45;&gt;46 -->
<g id="edge50" class="edge">
<title>39&#45;&gt;46</title>
<path fill="none" stroke="black" d="M2720.21,-359.59C2751.48,-334.5 2809.35,-288.08 2844.93,-259.53"/>
<polygon fill="black" stroke="black" points="2847.11,-262.27 2852.72,-253.28 2842.73,-256.81 2847.11,-262.27"/>
</g>
<!-- 40&#45;&gt;31 -->
<g id="edge51" class="edge">
<title>40&#45;&gt;31</title>
<path fill="none" stroke="black" d="M1493.51,-1151.7C1493.51,-1144.41 1493.51,-1135.73 1493.51,-1127.54"/>
<polygon fill="black" stroke="black" points="1497.01,-1127.62 1493.51,-1117.62 1490.01,-1127.62 1497.01,-1127.62"/>
</g>
<!-- 41&#45;&gt;34 -->
<g id="edge52" class="edge">
<title>41&#45;&gt;34</title>
<path fill="none" stroke="black" d="M2763.4,-1764.1C2764.16,-1771.37 2764.42,-1780.04 2764.16,-1788.24"/>
<polygon fill="black" stroke="black" points="2760.67,-1787.98 2763.52,-1798.19 2767.66,-1788.43 2760.67,-1787.98"/>
</g>
<!-- 42 -->
<g id="node43" class="node">
<title>42</title>
<ellipse fill="none" stroke="black" cx="3066.51" cy="-162" rx="677.8" ry="18"/>
<text text-anchor="middle" x="3066.51" y="-156.95" font-family="Times New Roman,serif" font-size="14.00">Plaisance: “很棒的桌游，先生。*葡萄种植者*肯定很经典，或者你也许会喜欢*伊苏林迪群岛*，一款为地理爱好者准备的教育游戏。”</text>
</g>
<!-- 42&#45;&gt;26 -->
<g id="edge53" class="edge">
<title>42&#45;&gt;26</title>
<path fill="none" stroke="black" d="M3153.03,-143.7C3206.32,-133.04 3274.47,-119.41 3328.11,-108.68"/>
<polygon fill="black" stroke="black" points="3328.72,-112.13 3337.84,-106.73 3327.35,-105.26 3328.72,-112.13"/>
</g>
<!-- 43&#45;&gt;1 -->
<g id="edge54" class="edge">
<title>43&#45;&gt;1</title>
<path fill="none" stroke="black" d="M546.51,-828.49C546.51,-855.29 546.51,-908.13 546.51,-953 546.51,-1459 546.51,-1459 546.51,-1459 546.51,-1551.98 1269.77,-1590.9 1452.14,-1599.23"/>
<polygon fill="black" stroke="black" points="1451.94,-1602.73 1462.09,-1599.68 1452.26,-1595.73 1451.94,-1602.73"/>
</g>
<!-- 44&#45;&gt;35 -->
<g id="edge55" class="edge">
<title>44&#45;&gt;35</title>
<path fill="none" stroke="black" d="M1634.76,-792.43C1734.48,-765.46 1931.05,-712.29 2033.28,-684.64"/>
<polygon fill="black" stroke="black" points="2034.17,-688.03 2042.91,-682.04 2032.34,-681.27 2034.17,-688.03"/>
</g>
<!-- 45 -->
<g id="node46" class="node">
<title>45</title>
<ellipse fill="none" stroke="black" cx="202.51" cy="-1890" rx="72.85" ry="18"/>
<text text-anchor="middle" x="202.51" y="-1884.95" font-family="Times New Roman,serif" font-size="14.00">You: [离开。]</text>
</g>
<!-- 46&#45;&gt;42 -->
<g id="edge56" class="edge">
<title>46&#45;&gt;42</title>
<path fill="none" stroke="black" d="M2921.74,-216.05C2947.77,-206.52 2980.51,-194.52 3008.27,-184.34"/>
<polygon fill="black" stroke="black" points="3009.43,-187.65 3017.62,-180.92 3007.02,-181.07 3009.43,-187.65"/>
</g>
<!-- 47 -->
<g id="node48" class="node">
<title>47</title>
<ellipse fill="none" stroke="black" cx="1109.51" cy="-1890" rx="815.99" ry="18"/>
<text text-anchor="middle" x="1109.51" y="-1884.95" font-family="Times New Roman,serif" font-size="14.00">Plaisance: “如果跟朋友一起玩的话，我推荐‘大领主’。这是一个文明建设类游戏，你需要创建一种文明，然后进行野蛮殖民，镇压其他文明。价格是12雷亚尔。”</text>
</g>
<!-- 47&#45;&gt;20 -->
<g id="edge57" class="edge">
<title>47&#45;&gt;20</title>
<path fill="none" stroke="black" d="M1109.51,-1871.7C1109.51,-1864.41 1109.51,-1855.73 1109.51,-1847.54"/>
<polygon fill="black" stroke="black" points="1113.01,-1847.62 1109.51,-1837.62 1106.01,-1847.62 1113.01,-1847.62"/>
</g>
<!-- 48 -->
<g id="node49" class="node">
<title>48</title>
<ellipse fill="none" stroke="black" cx="2202.51" cy="-1746" rx="184.42" ry="18"/>
<text text-anchor="middle" x="2202.51" y="-1740.95" font-family="Times New Roman,serif" font-size="14.00">You: 我有朋友吗？（看着警督。）</text>
</g>
<!-- 51 -->
<g id="node52" class="node">
<title>51</title>
<ellipse fill="none" stroke="black" cx="1959.51" cy="-1674" rx="411.15" ry="18"/>
<text text-anchor="middle" x="1959.51" y="-1668.95" font-family="Times New Roman,serif" font-size="14.00">Inland Empire: 你真的有朋友吗？或者只是在特定环境下偶尔聚集在一起的同事？</text>
</g>
<!-- 48&#45;&gt;51 -->
<g id="edge58" class="edge">
<title>48&#45;&gt;51</title>
<path fill="none" stroke="black" d="M2145.23,-1728.5C2110.75,-1718.57 2066.58,-1705.84 2029.97,-1695.3"/>
<polygon fill="black" stroke="black" points="2031.4,-1692.07 2020.82,-1692.66 2029.46,-1698.79 2031.4,-1692.07"/>
</g>
<!-- 49&#45;&gt;15 -->
<g id="edge59" class="edge">
<title>49&#45;&gt;15</title>
<path fill="none" stroke="black" d="M341.27,-652.92C353.98,-651.06 367.12,-649.33 379.51,-648 606.76,-623.7 868.09,-609.76 1047.73,-602.34"/>
<polygon fill="black" stroke="black" points="1047.81,-605.84 1057.66,-601.94 1047.53,-598.85 1047.81,-605.84"/>
</g>
<!-- 50 -->
<g id="node51" class="node">
<title>50</title>
<ellipse fill="none" stroke="black" cx="202.51" cy="-1962" rx="69.78" ry="18"/>
<text text-anchor="middle" x="202.51" y="-1956.95" font-family="Times New Roman,serif" font-size="14.00">inlandfriendhub</text>
</g>
<!-- 50&#45;&gt;21 -->
<g id="edge60" class="edge">
<title>50&#45;&gt;21</title>
<path fill="none" stroke="black" d="M167.45,-1946.2C150.79,-1937.44 132.06,-1924.75 120.51,-1908 108.3,-1890.29 103.7,-1866.24 102.07,-1847.6"/>
<polygon fill="black" stroke="black" points="105.58,-1847.54 101.47,-1837.77 98.59,-1847.96 105.58,-1847.54"/>
</g>
<!-- 50&#45;&gt;45 -->
<g id="edge61" class="edge">
<title>50&#45;&gt;45</title>
<path fill="none" stroke="black" d="M202.51,-1943.7C202.51,-1936.41 202.51,-1927.73 202.51,-1919.54"/>
<polygon fill="black" stroke="black" points="206.01,-1919.62 202.51,-1909.62 199.01,-1919.62 206.01,-1919.62"/>
</g>
<!-- 50&#45;&gt;47 -->
<g id="edge62" class="edge">
<title>50&#45;&gt;47</title>
<path fill="none" stroke="black" d="M268.47,-1955.91C395.1,-1946.14 677.64,-1924.33 880.31,-1908.69"/>
<polygon fill="black" stroke="black" points="880.51,-1912.18 890.21,-1907.93 879.97,-1905.2 880.51,-1912.18"/>
</g>
<!-- 51&#45;&gt;1 -->
<g id="edge63" class="edge">
<title>51&#45;&gt;1</title>
<path fill="none" stroke="black" d="M1847.89,-1656.23C1746.58,-1641.02 1602.81,-1619.42 1533.68,-1609.03"/>
<polygon fill="black" stroke="black" points="1534.36,-1605.6 1523.95,-1607.57 1533.32,-1612.52 1534.36,-1605.6"/>
</g>
<!-- 52&#45;&gt;6 -->
<g id="edge64" class="edge">
<title>52&#45;&gt;6</title>
<path fill="none" stroke="black" d="M1156.97,-1727.7C1184.05,-1717.82 1218.12,-1705.4 1246.38,-1695.1"/>
<polygon fill="black" stroke="black" points="1247.28,-1698.5 1255.48,-1691.78 1244.88,-1691.92 1247.28,-1698.5"/>
</g>
<!-- 53&#45;&gt;13 -->
<g id="edge65" class="edge">
<title>53&#45;&gt;13</title>
<path fill="none" stroke="black" d="M1766.18,-360.46C1826.89,-350.06 1905.38,-336.63 1968.48,-325.83"/>
<polygon fill="black" stroke="black" points="1968.91,-329.31 1978.18,-324.17 1967.73,-322.41 1968.91,-329.31"/>
</g>
</g>
</svg>
