<?xml version="1.0" encoding="UTF-8" standalone="no"?>
<!DOCTYPE svg PUBLIC "-//W3C//DTD SVG 1.1//EN"
 "http://www.w3.org/Graphics/SVG/1.1/DTD/svg11.dtd">
<!-- Generated by graphviz version 12.2.1 (20241206.2353)
 -->
<!-- Title: G Pages: 1 -->
<svg width="3757pt" height="836pt"
 viewBox="0.00 0.00 3757.42 836.00" xmlns="http://www.w3.org/2000/svg" xmlns:xlink="http://www.w3.org/1999/xlink">
<g id="graph0" class="graph" transform="scale(1 1) rotate(0) translate(4 832)">
<title>G</title>
<polygon fill="white" stroke="none" points="-4,4 -4,-832 3753.42,-832 3753.42,4 -4,4"/>
<!-- 0 -->
<g id="node1" class="node">
<title>0</title>
<ellipse fill="none" stroke="black" cx="262.26" cy="-810" rx="39.07" ry="18"/>
<text text-anchor="middle" x="262.26" y="-804.95" font-family="Times New Roman,serif" font-size="14.00">START</text>
</g>
<!-- 1 -->
<g id="node2" class="node">
<title>1</title>
<ellipse fill="none" stroke="black" cx="262.26" cy="-738" rx="29.86" ry="18"/>
<text text-anchor="middle" x="262.26" y="-732.95" font-family="Times New Roman,serif" font-size="14.00">input</text>
</g>
<!-- 0&#45;&gt;1 -->
<g id="edge1" class="edge">
<title>0&#45;&gt;1</title>
<path fill="none" stroke="black" d="M262.26,-791.7C262.26,-784.41 262.26,-775.73 262.26,-767.54"/>
<polygon fill="black" stroke="black" points="265.76,-767.62 262.26,-757.62 258.76,-767.62 265.76,-767.62"/>
</g>
<!-- 25 -->
<g id="node26" class="node">
<title>25</title>
<ellipse fill="none" stroke="black" cx="262.26" cy="-666" rx="113.79" ry="18"/>
<text text-anchor="middle" x="262.26" y="-660.95" font-family="Times New Roman,serif" font-size="14.00">You: 偷走初级读物。</text>
</g>
<!-- 1&#45;&gt;25 -->
<g id="edge2" class="edge">
<title>1&#45;&gt;25</title>
<path fill="none" stroke="black" d="M262.26,-719.7C262.26,-712.41 262.26,-703.73 262.26,-695.54"/>
<polygon fill="black" stroke="black" points="265.76,-695.62 262.26,-685.62 258.76,-695.62 265.76,-695.62"/>
</g>
<!-- 2 -->
<g id="node3" class="node">
<title>2</title>
<ellipse fill="none" stroke="black" cx="2509.26" cy="-666" rx="145.52" ry="18"/>
<text text-anchor="middle" x="2509.26" y="-660.95" font-family="Times New Roman,serif" font-size="14.00">You: “夫人，这是什么书？”</text>
</g>
<!-- 4 -->
<g id="node5" class="node">
<title>4</title>
<ellipse fill="none" stroke="black" cx="2677.26" cy="-594" rx="480.76" ry="18"/>
<text text-anchor="middle" x="2677.26" y="-588.95" font-family="Times New Roman,serif" font-size="14.00">Plaisance: “不过，你已经是个成年人了。所以现在可能有点太迟了…这本书是给小孩子看的。”</text>
</g>
<!-- 2&#45;&gt;4 -->
<g id="edge3" class="edge">
<title>2&#45;&gt;4</title>
<path fill="none" stroke="black" d="M2549.5,-648.23C2572.16,-638.79 2600.72,-626.89 2625.08,-616.74"/>
<polygon fill="black" stroke="black" points="2626.31,-620.02 2634.2,-612.94 2623.62,-613.56 2626.31,-620.02"/>
</g>
<!-- 3 -->
<g id="node4" class="node">
<title>3</title>
<ellipse fill="none" stroke="black" cx="3186.26" cy="-450" rx="563.16" ry="18"/>
<text text-anchor="middle" x="3186.26" y="-444.95" font-family="Times New Roman,serif" font-size="14.00">Plaisance: “一本非常有教育意义的初级读物。对于年轻的小脑瓜来说有些超常了…而且很显然，十分受欢迎。”</text>
</g>
<!-- 8 -->
<g id="node9" class="node">
<title>8</title>
<ellipse fill="none" stroke="black" cx="3283.26" cy="-378" rx="111.74" ry="18"/>
<text text-anchor="middle" x="3283.26" y="-372.95" font-family="Times New Roman,serif" font-size="14.00">Primer Book: IsKimHere()</text>
</g>
<!-- 3&#45;&gt;8 -->
<g id="edge4" class="edge">
<title>3&#45;&gt;8</title>
<path fill="none" stroke="black" d="M3210.24,-431.7C3222.43,-422.9 3237.42,-412.08 3250.64,-402.54"/>
<polygon fill="black" stroke="black" points="3252.6,-405.44 3258.66,-396.75 3248.51,-399.76 3252.6,-405.44"/>
</g>
<!-- 12 -->
<g id="node13" class="node">
<title>12</title>
<ellipse fill="none" stroke="black" cx="2747.26" cy="-378" rx="406.55" ry="18"/>
<text text-anchor="middle" x="2747.26" y="-372.95" font-family="Times New Roman,serif" font-size="14.00">Plaisance: “呃…你有孩子吗？”她不自在地颤抖着。“好吧，我猜。好好享受吧。”</text>
</g>
<!-- 3&#45;&gt;12 -->
<g id="edge5" class="edge">
<title>3&#45;&gt;12</title>
<path fill="none" stroke="black" d="M3078.87,-431.88C3013.7,-421.49 2930.52,-408.22 2863.77,-397.58"/>
<polygon fill="black" stroke="black" points="2864.7,-394.18 2854.28,-396.06 2863.6,-401.1 2864.7,-394.18"/>
</g>
<!-- 15 -->
<g id="node16" class="node">
<title>15</title>
<ellipse fill="none" stroke="black" cx="2586.26" cy="-522" rx="367.65" ry="18"/>
<text text-anchor="middle" x="2586.26" y="-516.95" font-family="Times New Roman,serif" font-size="14.00">Savoir Faire: 你慢慢把手伸向那本小书。不过还没碰到，你就被打断了：</text>
</g>
<!-- 4&#45;&gt;15 -->
<g id="edge6" class="edge">
<title>4&#45;&gt;15</title>
<path fill="none" stroke="black" d="M2654.76,-575.7C2643.61,-567.11 2629.95,-556.61 2617.77,-547.24"/>
<polygon fill="black" stroke="black" points="2620.07,-544.59 2610.01,-541.27 2615.8,-550.14 2620.07,-544.59"/>
</g>
<!-- 5 -->
<g id="node6" class="node">
<title>5</title>
<ellipse fill="none" stroke="black" cx="2232.26" cy="-234" rx="520.68" ry="18"/>
<text text-anchor="middle" x="2232.26" y="-228.95" font-family="Times New Roman,serif" font-size="14.00">Savoir Faire: 现在，你骄傲地拥有了一本给小孩子看的初级读物，而且说实话，它根本花不了几个钱。</text>
</g>
<!-- 17 -->
<g id="node18" class="node">
<title>17</title>
<ellipse fill="none" stroke="black" cx="1815.26" cy="-162" rx="238.16" ry="18"/>
<text text-anchor="middle" x="1815.26" y="-156.95" font-family="Times New Roman,serif" font-size="14.00">Primer Book: Variable[&quot;doomed.book_primer_wc_stealing&quot;]</text>
</g>
<!-- 5&#45;&gt;17 -->
<g id="edge7" class="edge">
<title>5&#45;&gt;17</title>
<path fill="none" stroke="black" d="M2130.25,-215.88C2066.77,-205.22 1985.29,-191.54 1921.1,-180.77"/>
<polygon fill="black" stroke="black" points="1922.08,-177.38 1911.64,-179.18 1920.92,-184.29 1922.08,-177.38"/>
</g>
<!-- 6 -->
<g id="node7" class="node">
<title>6</title>
<ellipse fill="none" stroke="black" cx="1436.26" cy="-306" rx="460.29" ry="18"/>
<text text-anchor="middle" x="1436.26" y="-300.95" font-family="Times New Roman,serif" font-size="14.00">Primer Book: 确实很像是初级读物——每一页上都有一个单词，跟字母表上的字母相对应。</text>
</g>
<!-- 14 -->
<g id="node15" class="node">
<title>14</title>
<ellipse fill="none" stroke="black" cx="1192.26" cy="-234" rx="91.27" ry="18"/>
<text text-anchor="middle" x="1192.26" y="-228.95" font-family="Times New Roman,serif" font-size="14.00">Jump to: [primerhub]</text>
</g>
<!-- 6&#45;&gt;14 -->
<g id="edge8" class="edge">
<title>6&#45;&gt;14</title>
<path fill="none" stroke="black" d="M1375.94,-287.7C1338.57,-276.97 1290.71,-263.24 1253.21,-252.49"/>
<polygon fill="black" stroke="black" points="1254.46,-249.2 1243.88,-249.81 1252.53,-255.93 1254.46,-249.2"/>
</g>
<!-- 7 -->
<g id="node8" class="node">
<title>7</title>
<ellipse fill="none" stroke="black" cx="2232.26" cy="-306" rx="239.7" ry="18"/>
<text text-anchor="middle" x="2232.26" y="-300.95" font-family="Times New Roman,serif" font-size="14.00">You: “哇哦，太酷了吧，我想变得更聪明点。”</text>
</g>
<!-- 7&#45;&gt;5 -->
<g id="edge9" class="edge">
<title>7&#45;&gt;5</title>
<path fill="none" stroke="black" d="M2232.26,-287.7C2232.26,-280.41 2232.26,-271.73 2232.26,-263.54"/>
<polygon fill="black" stroke="black" points="2235.76,-263.62 2232.26,-253.62 2228.76,-263.62 2235.76,-263.62"/>
</g>
<!-- 10 -->
<g id="node11" class="node">
<title>10</title>
<polygon fill="none" stroke="black" points="3283.26,-324 3187.48,-306 3283.26,-288 3379.04,-306 3283.26,-324"/>
<text text-anchor="middle" x="3283.26" y="-300.95" font-family="Times New Roman,serif" font-size="14.00">!(IsKimHere())</text>
</g>
<!-- 8&#45;&gt;10 -->
<g id="edge10" class="edge">
<title>8&#45;&gt;10</title>
<path fill="none" stroke="black" d="M3283.26,-359.7C3283.26,-352.41 3283.26,-343.73 3283.26,-335.54"/>
<polygon fill="black" stroke="black" points="3286.76,-335.62 3283.26,-325.62 3279.76,-335.62 3286.76,-335.62"/>
</g>
<!-- 11 -->
<g id="node12" class="node">
<title>11</title>
<ellipse fill="none" stroke="black" cx="2830.26" cy="-306" rx="74.89" ry="18"/>
<text text-anchor="middle" x="2830.26" y="-300.95" font-family="Times New Roman,serif" font-size="14.00">You: “行吧。”</text>
</g>
<!-- 8&#45;&gt;11 -->
<g id="edge11" class="edge">
<title>8&#45;&gt;11</title>
<path fill="none" stroke="black" d="M3204.61,-364.85C3119.8,-351.74 2985.86,-331.04 2903.29,-318.29"/>
<polygon fill="black" stroke="black" points="2903.91,-314.84 2893.49,-316.77 2902.84,-321.76 2903.91,-314.84"/>
</g>
<!-- 9 -->
<g id="node10" class="node">
<title>9</title>
<polygon fill="none" stroke="black" points="2329.26,-468 2246.5,-450 2329.26,-432 2412.01,-450 2329.26,-468"/>
<text text-anchor="middle" x="2329.26" y="-444.95" font-family="Times New Roman,serif" font-size="14.00">IsKimHere()</text>
</g>
<!-- 30 -->
<g id="node31" class="node">
<title>30</title>
<ellipse fill="none" stroke="black" cx="2232.26" cy="-378" rx="90.25" ry="18"/>
<text text-anchor="middle" x="2232.26" y="-372.95" font-family="Times New Roman,serif" font-size="14.00">You: 翻阅书页。</text>
</g>
<!-- 9&#45;&gt;30 -->
<g id="edge12" class="edge">
<title>9&#45;&gt;30</title>
<path fill="none" stroke="black" d="M2311.01,-435.83C2298.02,-426.45 2280.19,-413.59 2264.79,-402.47"/>
<polygon fill="black" stroke="black" points="2266.96,-399.72 2256.8,-396.71 2262.86,-405.4 2266.96,-399.72"/>
</g>
<!-- 21 -->
<g id="node22" class="node">
<title>21</title>
<ellipse fill="none" stroke="black" cx="3283.26" cy="-234" rx="72.85" ry="18"/>
<text text-anchor="middle" x="3283.26" y="-228.95" font-family="Times New Roman,serif" font-size="14.00">You: [离开。]</text>
</g>
<!-- 10&#45;&gt;21 -->
<g id="edge13" class="edge">
<title>10&#45;&gt;21</title>
<path fill="none" stroke="black" d="M3283.26,-287.7C3283.26,-280.41 3283.26,-271.73 3283.26,-263.54"/>
<polygon fill="black" stroke="black" points="3286.76,-263.62 3283.26,-253.62 3279.76,-263.62 3286.76,-263.62"/>
</g>
<!-- 11&#45;&gt;5 -->
<g id="edge14" class="edge">
<title>11&#45;&gt;5</title>
<path fill="none" stroke="black" d="M2763.98,-297.24C2673.59,-286.66 2508.96,-267.39 2386.75,-253.08"/>
<polygon fill="black" stroke="black" points="2387.27,-249.62 2376.93,-251.93 2386.46,-256.57 2387.27,-249.62"/>
</g>
<!-- 13 -->
<g id="node14" class="node">
<title>13</title>
<ellipse fill="none" stroke="black" cx="1644.26" cy="-594" rx="495.6" ry="18"/>
<text text-anchor="middle" x="1644.26" y="-588.95" font-family="Times New Roman,serif" font-size="14.00">Primer Book: 我不确定你打算从里面得到些什么。这是给小婴儿看的——字面意义上的，小婴儿。</text>
</g>
<!-- 33 -->
<g id="node34" class="node">
<title>33</title>
<ellipse fill="none" stroke="black" cx="1644.26" cy="-522" rx="117.37" ry="18"/>
<text text-anchor="middle" x="1644.26" y="-516.95" font-family="Times New Roman,serif" font-size="14.00">Jump to: [mainmapwallhub]</text>
</g>
<!-- 13&#45;&gt;33 -->
<g id="edge15" class="edge">
<title>13&#45;&gt;33</title>
<path fill="none" stroke="black" d="M1644.26,-575.7C1644.26,-568.41 1644.26,-559.73 1644.26,-551.54"/>
<polygon fill="black" stroke="black" points="1647.76,-551.62 1644.26,-541.62 1640.76,-551.62 1647.76,-551.62"/>
</g>
<!-- 23 -->
<g id="node24" class="node">
<title>23</title>
<ellipse fill="none" stroke="black" cx="1359.26" cy="-378" rx="650.17" ry="18"/>
<text text-anchor="middle" x="1359.26" y="-372.95" font-family="Times New Roman,serif" font-size="14.00">Savoir Faire: 你偷偷盯着店主，等待她分心。当她没看到时，你熟练地把那本小册子从书架上取了下来，然后塞进自己的口袋。</text>
</g>
<!-- 14&#45;&gt;23 -->
<g id="edge16" class="edge">
<title>14&#45;&gt;23</title>
<path fill="none" stroke="black" d="M1108.03,-241.16C1026.7,-250.26 921.99,-272.2 967.26,-324 979.91,-338.48 1056.49,-350.43 1138.66,-359.3"/>
<polygon fill="black" stroke="black" points="1138.2,-362.77 1148.52,-360.34 1138.94,-355.81 1138.2,-362.77"/>
</g>
<!-- 15&#45;&gt;9 -->
<g id="edge17" class="edge">
<title>15&#45;&gt;9</title>
<path fill="none" stroke="black" d="M2523.06,-503.79C2477.55,-491.39 2417.16,-474.94 2375.96,-463.72"/>
<polygon fill="black" stroke="black" points="2376.91,-460.35 2366.34,-461.1 2375.07,-467.1 2376.91,-460.35"/>
</g>
<!-- 16 -->
<g id="node17" class="node">
<title>16</title>
<ellipse fill="none" stroke="black" cx="1815.26" cy="-18" rx="117.37" ry="18"/>
<text text-anchor="middle" x="1815.26" y="-12.95" font-family="Times New Roman,serif" font-size="14.00">Jump to: [mainmapwallhub]</text>
</g>
<!-- 19 -->
<g id="node20" class="node">
<title>19</title>
<polygon fill="none" stroke="black" points="1815.26,-108 1539.97,-90 1815.26,-72 2090.55,-90 1815.26,-108"/>
<text text-anchor="middle" x="1815.26" y="-84.95" font-family="Times New Roman,serif" font-size="14.00">!(Variable[&quot;doomed.book_primer_wc_stealing&quot;])</text>
</g>
<!-- 17&#45;&gt;19 -->
<g id="edge18" class="edge">
<title>17&#45;&gt;19</title>
<path fill="none" stroke="black" d="M1815.26,-143.7C1815.26,-136.41 1815.26,-127.73 1815.26,-119.54"/>
<polygon fill="black" stroke="black" points="1818.76,-119.62 1815.26,-109.62 1811.76,-119.62 1818.76,-119.62"/>
</g>
<!-- 20 -->
<g id="node21" class="node">
<title>20</title>
<ellipse fill="none" stroke="black" cx="1322.26" cy="-90" rx="188.52" ry="18"/>
<text text-anchor="middle" x="1322.26" y="-84.95" font-family="Times New Roman,serif" font-size="14.00">Plaisance: “先生，请不要乱碰商品。”</text>
</g>
<!-- 17&#45;&gt;20 -->
<g id="edge19" class="edge">
<title>17&#45;&gt;20</title>
<path fill="none" stroke="black" d="M1706.46,-145.55C1626.16,-134.15 1517.16,-118.67 1435.76,-107.12"/>
<polygon fill="black" stroke="black" points="1436.36,-103.67 1425.97,-105.73 1435.38,-110.6 1436.36,-103.67"/>
</g>
<!-- 18 -->
<g id="node19" class="node">
<title>18</title>
<polygon fill="none" stroke="black" points="855.26,-540 593,-522 855.26,-504 1117.52,-522 855.26,-540"/>
<text text-anchor="middle" x="855.26" y="-516.95" font-family="Times New Roman,serif" font-size="14.00">Variable[&quot;doomed.book_primer_wc_stealing&quot;]</text>
</g>
<!-- 24 -->
<g id="node25" class="node">
<title>24</title>
<ellipse fill="none" stroke="black" cx="1147.26" cy="-450" rx="354.85" ry="18"/>
<text text-anchor="middle" x="1147.26" y="-444.95" font-family="Times New Roman,serif" font-size="14.00">Primer Book: 你看见一个彩色的初级读本。标题是：“儿童识字入门。”</text>
</g>
<!-- 18&#45;&gt;24 -->
<g id="edge20" class="edge">
<title>18&#45;&gt;24</title>
<path fill="none" stroke="black" d="M911.91,-507.42C955.37,-497 1016.01,-482.46 1064.85,-470.76"/>
<polygon fill="black" stroke="black" points="1065.65,-474.16 1074.56,-468.43 1064.02,-467.36 1065.65,-474.16"/>
</g>
<!-- 19&#45;&gt;16 -->
<g id="edge21" class="edge">
<title>19&#45;&gt;16</title>
<path fill="none" stroke="black" d="M1815.26,-71.7C1815.26,-64.41 1815.26,-55.73 1815.26,-47.54"/>
<polygon fill="black" stroke="black" points="1818.76,-47.62 1815.26,-37.62 1811.76,-47.62 1818.76,-47.62"/>
</g>
<!-- 34 -->
<g id="node35" class="node">
<title>34</title>
<ellipse fill="none" stroke="black" cx="1214.26" cy="-18" rx="27" ry="18"/>
<text text-anchor="middle" x="1214.26" y="-12.95" font-family="Times New Roman,serif" font-size="14.00">34</text>
</g>
<!-- 20&#45;&gt;34 -->
<g id="edge22" class="edge">
<title>20&#45;&gt;34</title>
<path fill="none" stroke="black" d="M1295.56,-71.7C1279.53,-61.3 1259.13,-48.08 1242.78,-37.49"/>
<polygon fill="black" stroke="black" points="1244.76,-34.6 1234.47,-32.1 1240.95,-40.47 1244.76,-34.6"/>
</g>
<!-- 22 -->
<g id="node23" class="node">
<title>22</title>
<ellipse fill="none" stroke="black" cx="1992.26" cy="-738" rx="49.82" ry="18"/>
<text text-anchor="middle" x="1992.26" y="-732.95" font-family="Times New Roman,serif" font-size="14.00">primerhub</text>
</g>
<!-- 22&#45;&gt;2 -->
<g id="edge24" class="edge">
<title>22&#45;&gt;2</title>
<path fill="none" stroke="black" d="M2038.14,-730.79C2119.37,-719.79 2290.49,-696.62 2402.59,-681.44"/>
<polygon fill="black" stroke="black" points="2402.99,-684.92 2412.43,-680.11 2402.05,-677.98 2402.99,-684.92"/>
</g>
<!-- 22&#45;&gt;22 -->
<g id="edge25" class="edge">
<title>22&#45;&gt;22</title>
<path fill="none" stroke="black" d="M2027.5,-751.14C2044.76,-752.86 2060.08,-748.48 2060.08,-738 2060.08,-729.9 2050.91,-725.44 2038.78,-724.63"/>
<polygon fill="black" stroke="black" points="2038.94,-721.13 2029.01,-724.83 2039.08,-728.13 2038.94,-721.13"/>
</g>
<!-- 26 -->
<g id="node27" class="node">
<title>26</title>
<ellipse fill="none" stroke="black" cx="855.26" cy="-666" rx="205.41" ry="18"/>
<text text-anchor="middle" x="855.26" y="-660.95" font-family="Times New Roman,serif" font-size="14.00">You: Variable[&quot;doomed.book_primer_wc_stealing&quot;]</text>
</g>
<!-- 22&#45;&gt;26 -->
<g id="edge26" class="edge">
<title>22&#45;&gt;26</title>
<path fill="none" stroke="black" d="M1943.4,-733.99C1787.57,-724.4 1297.01,-694.2 1030.96,-677.82"/>
<polygon fill="black" stroke="black" points="1031.35,-674.33 1021.15,-677.21 1030.92,-681.32 1031.35,-674.33"/>
</g>
<!-- 31 -->
<g id="node32" class="node">
<title>31</title>
<ellipse fill="none" stroke="black" cx="1817.26" cy="-666" rx="149.11" ry="18"/>
<text text-anchor="middle" x="1817.26" y="-660.95" font-family="Times New Roman,serif" font-size="14.00">You: 我想买这本初级读物。</text>
</g>
<!-- 22&#45;&gt;31 -->
<g id="edge27" class="edge">
<title>22&#45;&gt;31</title>
<path fill="none" stroke="black" d="M1959.75,-724C1934.4,-713.86 1898.69,-699.57 1869.36,-687.84"/>
<polygon fill="black" stroke="black" points="1870.86,-684.67 1860.28,-684.21 1868.26,-691.17 1870.86,-684.67"/>
</g>
<!-- 32 -->
<g id="node33" class="node">
<title>32</title>
<ellipse fill="none" stroke="black" cx="2019.26" cy="-522" rx="91.27" ry="18"/>
<text text-anchor="middle" x="2019.26" y="-516.95" font-family="Times New Roman,serif" font-size="14.00">Jump to: [primerhub]</text>
</g>
<!-- 22&#45;&gt;32 -->
<g id="edge23" class="edge">
<title>22&#45;&gt;32</title>
<path fill="none" stroke="black" d="M2022.49,-723.39C2060.23,-704.51 2123.01,-666.45 2149.26,-612 2156.21,-597.59 2158.19,-589.28 2149.26,-576 2137.1,-557.91 2117.58,-546 2097.32,-538.14"/>
<polygon fill="black" stroke="black" points="2098.71,-534.92 2088.12,-534.9 2096.38,-541.53 2098.71,-534.92"/>
</g>
<!-- 23&#45;&gt;6 -->
<g id="edge28" class="edge">
<title>23&#45;&gt;6</title>
<path fill="none" stroke="black" d="M1378.29,-359.7C1387.46,-351.37 1398.61,-341.22 1408.68,-332.07"/>
<polygon fill="black" stroke="black" points="1411.01,-334.68 1416.06,-325.37 1406.3,-329.5 1411.01,-334.68"/>
</g>
<!-- 24&#45;&gt;23 -->
<g id="edge29" class="edge">
<title>24&#45;&gt;23</title>
<path fill="none" stroke="black" d="M1199.39,-431.79C1228.56,-422.15 1265.15,-410.07 1295.96,-399.9"/>
<polygon fill="black" stroke="black" points="1296.76,-403.32 1305.15,-396.86 1294.56,-396.68 1296.76,-403.32"/>
</g>
<!-- 27 -->
<g id="node28" class="node">
<title>27</title>
<polygon fill="none" stroke="black" points="262.26,-612 0,-594 262.26,-576 524.52,-594 262.26,-612"/>
<text text-anchor="middle" x="262.26" y="-588.95" font-family="Times New Roman,serif" font-size="14.00">Variable[&quot;doomed.book_primer_wc_stealing&quot;]</text>
</g>
<!-- 25&#45;&gt;27 -->
<g id="edge30" class="edge">
<title>25&#45;&gt;27</title>
<path fill="none" stroke="black" d="M262.26,-647.7C262.26,-640.41 262.26,-631.73 262.26,-623.54"/>
<polygon fill="black" stroke="black" points="265.76,-623.62 262.26,-613.62 258.76,-623.62 265.76,-623.62"/>
</g>
<!-- 28 -->
<g id="node29" class="node">
<title>28</title>
<polygon fill="none" stroke="black" points="855.26,-612 579.97,-594 855.26,-576 1130.55,-594 855.26,-612"/>
<text text-anchor="middle" x="855.26" y="-588.95" font-family="Times New Roman,serif" font-size="14.00">!(Variable[&quot;doomed.book_primer_wc_stealing&quot;])</text>
</g>
<!-- 26&#45;&gt;28 -->
<g id="edge31" class="edge">
<title>26&#45;&gt;28</title>
<path fill="none" stroke="black" d="M855.26,-647.7C855.26,-640.41 855.26,-631.73 855.26,-623.54"/>
<polygon fill="black" stroke="black" points="858.76,-623.62 855.26,-613.62 851.76,-623.62 858.76,-623.62"/>
</g>
<!-- 29 -->
<g id="node30" class="node">
<title>29</title>
<ellipse fill="none" stroke="black" cx="898.26" cy="-162" rx="487.41" ry="18"/>
<text text-anchor="middle" x="898.26" y="-156.95" font-family="Times New Roman,serif" font-size="14.00">Kim Kitsuragi: 警督用力咳了几声，然后低语到：“还是别了吧。诈骗小商家可不是我们的*菜*。”</text>
</g>
<!-- 26&#45;&gt;29 -->
<g id="edge32" class="edge">
<title>26&#45;&gt;29</title>
<path fill="none" stroke="black" d="M710.88,-652.85C651.58,-644.92 591.96,-632.17 571.26,-612 542.29,-583.77 552.26,-563.45 552.26,-523 552.26,-523 552.26,-523 552.26,-305 552.26,-250.65 700.21,-206.66 802.61,-182.72"/>
<polygon fill="black" stroke="black" points="803.18,-186.18 812.14,-180.53 801.61,-179.36 803.18,-186.18"/>
</g>
<!-- 27&#45;&gt;18 -->
<g id="edge33" class="edge">
<title>27&#45;&gt;18</title>
<path fill="none" stroke="black" d="M355.89,-581.95C463.18,-569.28 638.53,-548.58 750.34,-535.39"/>
<polygon fill="black" stroke="black" points="750.6,-538.88 760.12,-534.23 749.78,-531.93 750.6,-538.88"/>
</g>
<!-- 28&#45;&gt;18 -->
<g id="edge34" class="edge">
<title>28&#45;&gt;18</title>
<path fill="none" stroke="black" d="M855.26,-575.7C855.26,-568.41 855.26,-559.73 855.26,-551.54"/>
<polygon fill="black" stroke="black" points="858.76,-551.62 855.26,-541.62 851.76,-551.62 858.76,-551.62"/>
</g>
<!-- 29&#45;&gt;34 -->
<g id="edge35" class="edge">
<title>29&#45;&gt;34</title>
<path fill="none" stroke="black" d="M937.01,-143.59C1000,-115.28 1123.45,-59.81 1181.99,-33.5"/>
<polygon fill="black" stroke="black" points="1183.07,-36.85 1190.75,-29.56 1180.2,-30.47 1183.07,-36.85"/>
</g>
<!-- 30&#45;&gt;7 -->
<g id="edge36" class="edge">
<title>30&#45;&gt;7</title>
<path fill="none" stroke="black" d="M2232.26,-359.7C2232.26,-352.41 2232.26,-343.73 2232.26,-335.54"/>
<polygon fill="black" stroke="black" points="2235.76,-335.62 2232.26,-325.62 2228.76,-335.62 2235.76,-335.62"/>
</g>
<!-- 31&#45;&gt;13 -->
<g id="edge37" class="edge">
<title>31&#45;&gt;13</title>
<path fill="none" stroke="black" d="M1775.82,-648.23C1752.38,-638.75 1722.81,-626.79 1697.65,-616.6"/>
<polygon fill="black" stroke="black" points="1699.15,-613.44 1688.57,-612.93 1696.53,-619.92 1699.15,-613.44"/>
</g>
<!-- 32&#45;&gt;23 -->
<g id="edge38" class="edge">
<title>32&#45;&gt;23</title>
<path fill="none" stroke="black" d="M1959.23,-508.09C1843.29,-483.14 1587.9,-428.19 1450.7,-398.67"/>
<polygon fill="black" stroke="black" points="1451.81,-395.33 1441.29,-396.65 1450.33,-402.18 1451.81,-395.33"/>
</g>
</g>
</svg>
