<?xml version="1.0" encoding="UTF-8" standalone="no"?>
<!DOCTYPE svg PUBLIC "-//W3C//DTD SVG 1.1//EN"
 "http://www.w3.org/Graphics/SVG/1.1/DTD/svg11.dtd">
<!-- Generated by graphviz version 12.2.1 (20241206.2353)
 -->
<!-- Title: G Pages: 1 -->
<svg width="8079pt" height="1340pt"
 viewBox="0.00 0.00 8079.42 1340.00" xmlns="http://www.w3.org/2000/svg" xmlns:xlink="http://www.w3.org/1999/xlink">
<g id="graph0" class="graph" transform="scale(1 1) rotate(0) translate(4 1336)">
<title>G</title>
<polygon fill="white" stroke="none" points="-4,4 -4,-1336 8075.42,-1336 8075.42,4 -4,4"/>
<!-- 0 -->
<g id="node1" class="node">
<title>0</title>
<ellipse fill="none" stroke="black" cx="1904.93" cy="-1314" rx="39.07" ry="18"/>
<text text-anchor="middle" x="1904.93" y="-1308.95" font-family="Times New Roman,serif" font-size="14.00">START</text>
</g>
<!-- 0&#45;&gt;0 -->
<g id="edge1" class="edge">
<title>0&#45;&gt;0</title>
<path fill="none" stroke="black" d="M1933.12,-1326.94C1948.23,-1329.14 1962,-1324.83 1962,-1314 1962,-1305.96 1954.41,-1301.52 1944.32,-1300.65"/>
<polygon fill="black" stroke="black" points="1944.5,-1297.15 1934.63,-1301 1944.75,-1304.14 1944.5,-1297.15"/>
</g>
<!-- 1 -->
<g id="node2" class="node">
<title>1</title>
<ellipse fill="none" stroke="black" cx="2589.93" cy="-738" rx="29.86" ry="18"/>
<text text-anchor="middle" x="2589.93" y="-732.95" font-family="Times New Roman,serif" font-size="14.00">input</text>
</g>
<!-- 35 -->
<g id="node36" class="node">
<title>35</title>
<ellipse fill="none" stroke="black" cx="2589.93" cy="-666" rx="730.01" ry="18"/>
<text text-anchor="middle" x="2589.93" y="-660.95" font-family="Times New Roman,serif" font-size="14.00">Plaisance: “当然。对于一个人来说，对历史和社会至少有一个初级的理解是很明智的。想象一下，如果不是这样，我们将会陷入怎样的混乱。”</text>
</g>
<!-- 1&#45;&gt;35 -->
<g id="edge2" class="edge">
<title>1&#45;&gt;35</title>
<path fill="none" stroke="black" d="M2589.93,-719.7C2589.93,-712.41 2589.93,-703.73 2589.93,-695.54"/>
<polygon fill="black" stroke="black" points="2593.43,-695.62 2589.93,-685.62 2586.43,-695.62 2593.43,-695.62"/>
</g>
<!-- 2 -->
<g id="node3" class="node">
<title>2</title>
<ellipse fill="none" stroke="black" cx="4624.93" cy="-1314" rx="876.9" ry="18"/>
<text text-anchor="middle" x="4624.93" y="-1308.95" font-family="Times New Roman,serif" font-size="14.00">Plaisance: “一个很有影响力的历史人物，这一点应该就不用我告诉你了吧。”她摆摆手，像是要把这个想法抛在一旁。“你是一个警官，执法人员至少都受过*一些*教育吧。”</text>
</g>
<!-- 18 -->
<g id="node19" class="node">
<title>18</title>
<ellipse fill="none" stroke="black" cx="4624.93" cy="-1242" rx="90.25" ry="18"/>
<text text-anchor="middle" x="4624.93" y="-1236.95" font-family="Times New Roman,serif" font-size="14.00">You: 讲什么的？</text>
</g>
<!-- 2&#45;&gt;18 -->
<g id="edge3" class="edge">
<title>2&#45;&gt;18</title>
<path fill="none" stroke="black" d="M4619.01,-1295.7C4618.26,-1288.41 4618.02,-1279.73 4618.28,-1271.54"/>
<polygon fill="black" stroke="black" points="4621.77,-1271.82 4618.93,-1261.61 4614.79,-1271.36 4621.77,-1271.82"/>
</g>
<!-- 3 -->
<g id="node4" class="node">
<title>3</title>
<ellipse fill="none" stroke="black" cx="6270.93" cy="-1314" rx="751.5" ry="18"/>
<text text-anchor="middle" x="6270.93" y="-1308.95" font-family="Times New Roman,serif" font-size="14.00">Shelf of Biographies: “全速恋爱”讲的是历史上两名顶尖巡回赛車手之间的罗曼史。其中之一是狂妄車手雅各布·欧文。他的金色鬓毛为封面增色不少。</text>
</g>
<!-- 3&#45;&gt;3 -->
<g id="edge4" class="edge">
<title>3&#45;&gt;3</title>
<path fill="none" stroke="black" d="M6788.36,-1327.42C6931.21,-1326.78 7040.43,-1322.31 7040.43,-1314 7040.43,-1305.91 6936.89,-1301.46 6799.58,-1300.64"/>
<polygon fill="black" stroke="black" points="6799.89,-1297.14 6789.87,-1300.59 6799.85,-1304.14 6799.89,-1297.14"/>
</g>
<!-- 4 -->
<g id="node5" class="node">
<title>4</title>
<ellipse fill="none" stroke="black" cx="2589.93" cy="-522" rx="842.61" ry="18"/>
<text text-anchor="middle" x="2589.93" y="-516.95" font-family="Times New Roman,serif" font-size="14.00">Shelf of Biographies: 在欧文的传记旁边，你看见一本薄薄的奥西登摇滚明星传记，名叫“叛逆巨星”。他因为在一只眼睛里注射吗啡，另一只眼睛里注射可卡因而出名。</text>
</g>
<!-- 6 -->
<g id="node7" class="node">
<title>6</title>
<ellipse fill="none" stroke="black" cx="2668.93" cy="-450" rx="763.79" ry="18"/>
<text text-anchor="middle" x="2668.93" y="-444.95" font-family="Times New Roman,serif" font-size="14.00">Shelf of Biographies: 浏览所有这些书还有它们的书名，让你感到头晕目眩。没有一本看起来很重要，或者有什么关联。全都是些毫无趣味的利己主义！</text>
</g>
<!-- 4&#45;&gt;6 -->
<g id="edge5" class="edge">
<title>4&#45;&gt;6</title>
<path fill="none" stroke="black" d="M2609.46,-503.7C2618.95,-495.28 2630.54,-485.02 2640.95,-475.79"/>
<polygon fill="black" stroke="black" points="2643.05,-478.6 2648.22,-469.35 2638.41,-473.36 2643.05,-478.6"/>
</g>
<!-- 5 -->
<g id="node6" class="node">
<title>5</title>
<ellipse fill="none" stroke="black" cx="1070.93" cy="-306" rx="560.09" ry="18"/>
<text text-anchor="middle" x="1070.93" y="-300.95" font-family="Times New Roman,serif" font-size="14.00">Shelf of Biographies: 书架的饰板上写着：“名人传记。”你看见各种各样的名字，但是没有一个能勾起你的回忆。</text>
</g>
<!-- 25 -->
<g id="node26" class="node">
<title>25</title>
<ellipse fill="none" stroke="black" cx="1366.93" cy="-234" rx="315.96" ry="18"/>
<text text-anchor="middle" x="1366.93" y="-228.95" font-family="Times New Roman,serif" font-size="14.00">Suggestion: 她明白自己得罪了顾客，立马纠正了自己的行为。</text>
</g>
<!-- 5&#45;&gt;25 -->
<g id="edge6" class="edge">
<title>5&#45;&gt;25</title>
<path fill="none" stroke="black" d="M1144.1,-287.7C1186.55,-277.66 1240.15,-264.98 1284.15,-254.58"/>
<polygon fill="black" stroke="black" points="1284.71,-258.04 1293.64,-252.33 1283.1,-251.23 1284.71,-258.04"/>
</g>
<!-- 40 -->
<g id="node41" class="node">
<title>40</title>
<ellipse fill="none" stroke="black" cx="2610.93" cy="-378" rx="133.75" ry="18"/>
<text text-anchor="middle" x="2610.93" y="-372.95" font-family="Times New Roman,serif" font-size="14.00">You: “所以你很推荐了？”</text>
</g>
<!-- 6&#45;&gt;40 -->
<g id="edge7" class="edge">
<title>6&#45;&gt;40</title>
<path fill="none" stroke="black" d="M2654.59,-431.7C2647.85,-423.56 2639.67,-413.69 2632.22,-404.7"/>
<polygon fill="black" stroke="black" points="2635.14,-402.74 2626.07,-397.27 2629.75,-407.2 2635.14,-402.74"/>
</g>
<!-- 7 -->
<g id="node8" class="node">
<title>7</title>
<ellipse fill="none" stroke="black" cx="2125.93" cy="-90" rx="840.05" ry="18"/>
<text text-anchor="middle" x="2125.93" y="-84.95" font-family="Times New Roman,serif" font-size="14.00">Shelf of Biographies: 在那旁边是瑞瓦肖的广播名人纪尧姆·贝维，站在一个贩毒窝点前面。他是8频道的不变招牌，专门报道现实生活中的犯罪，还有破坏警察的生活…</text>
</g>
<!-- 9 -->
<g id="node10" class="node">
<title>9</title>
<ellipse fill="none" stroke="black" cx="2125.93" cy="-18" rx="77.97" ry="18"/>
<text text-anchor="middle" x="2125.93" y="-12.95" font-family="Times New Roman,serif" font-size="14.00">Jump to: [biohub]</text>
</g>
<!-- 7&#45;&gt;9 -->
<g id="edge8" class="edge">
<title>7&#45;&gt;9</title>
<path fill="none" stroke="black" d="M2120.01,-71.7C2119.26,-64.41 2119.02,-55.73 2119.28,-47.54"/>
<polygon fill="black" stroke="black" points="2122.77,-47.82 2119.93,-37.61 2115.79,-47.36 2122.77,-47.82"/>
</g>
<!-- 8 -->
<g id="node9" class="node">
<title>8</title>
<ellipse fill="none" stroke="black" cx="2426.93" cy="-1026" rx="36.51" ry="18"/>
<text text-anchor="middle" x="2426.93" y="-1020.95" font-family="Times New Roman,serif" font-size="14.00">biohub</text>
</g>
<!-- 19 -->
<g id="node20" class="node">
<title>19</title>
<ellipse fill="none" stroke="black" cx="958.93" cy="-810" rx="682.92" ry="18"/>
<text text-anchor="middle" x="958.93" y="-804.95" font-family="Times New Roman,serif" font-size="14.00">Plaisance: “这本书也非常大胆。作者想要重新审视大众对无罪体系的普遍理解，创造一个全新的有利位置，改变让人厌倦的旧秩序。”</text>
</g>
<!-- 8&#45;&gt;19 -->
<g id="edge9" class="edge">
<title>8&#45;&gt;19</title>
<path fill="none" stroke="black" d="M2392.09,-1019.92C2214.49,-994.03 1406,-876.17 1087.97,-829.81"/>
<polygon fill="black" stroke="black" points="1088.77,-826.39 1078.37,-828.41 1087.76,-833.32 1088.77,-826.39"/>
</g>
<!-- 20 -->
<g id="node21" class="node">
<title>20</title>
<ellipse fill="none" stroke="black" cx="2264.93" cy="-954" rx="72.85" ry="18"/>
<text text-anchor="middle" x="2264.93" y="-948.95" font-family="Times New Roman,serif" font-size="14.00">You: [离开。]</text>
</g>
<!-- 8&#45;&gt;20 -->
<g id="edge11" class="edge">
<title>8&#45;&gt;20</title>
<path fill="none" stroke="black" d="M2400.18,-1013.44C2375.77,-1002.89 2339.19,-987.09 2310.22,-974.57"/>
<polygon fill="black" stroke="black" points="2311.89,-971.48 2301.32,-970.73 2309.11,-977.91 2311.89,-971.48"/>
</g>
<!-- 21 -->
<g id="node22" class="node">
<title>21</title>
<ellipse fill="none" stroke="black" cx="2589.93" cy="-954" rx="234.07" ry="18"/>
<text text-anchor="middle" x="2589.93" y="-948.95" font-family="Times New Roman,serif" font-size="14.00">You: “我对那本‘最伟大的无罪者’有点兴趣。”</text>
</g>
<!-- 8&#45;&gt;21 -->
<g id="edge12" class="edge">
<title>8&#45;&gt;21</title>
<path fill="none" stroke="black" d="M2453.84,-1013.44C2477.02,-1003.49 2511.08,-988.86 2539.33,-976.73"/>
<polygon fill="black" stroke="black" points="2540.64,-979.97 2548.45,-972.81 2537.88,-973.54 2540.64,-979.97"/>
</g>
<!-- 27 -->
<g id="node28" class="node">
<title>27</title>
<ellipse fill="none" stroke="black" cx="3328.93" cy="-882" rx="337.45" ry="18"/>
<text text-anchor="middle" x="3328.93" y="-876.95" font-family="Times New Roman,serif" font-size="14.00">Shelf of Biographies: 书架上堆满了*名人*传记，不管他们到底是谁。</text>
</g>
<!-- 8&#45;&gt;27 -->
<g id="edge10" class="edge">
<title>8&#45;&gt;27</title>
<path fill="none" stroke="black" d="M2462.31,-1020.96C2532.92,-1012.76 2696.3,-993.16 2832.93,-972 2971.53,-950.53 3131.06,-921.05 3230.95,-902.01"/>
<polygon fill="black" stroke="black" points="3231.58,-905.45 3240.74,-900.14 3230.26,-898.57 3231.58,-905.45"/>
</g>
<!-- 9&#45;&gt;7 -->
<g id="edge13" class="edge">
<title>9&#45;&gt;7</title>
<path fill="none" stroke="black" d="M2131.82,-36.1C2132.58,-43.37 2132.84,-52.04 2132.58,-60.24"/>
<polygon fill="black" stroke="black" points="2129.09,-59.98 2131.94,-70.19 2136.08,-60.43 2129.09,-59.98"/>
</g>
<!-- 10 -->
<g id="node11" class="node">
<title>10</title>
<ellipse fill="none" stroke="black" cx="1808.93" cy="-378" rx="591.82" ry="18"/>
<text text-anchor="middle" x="1808.93" y="-372.95" font-family="Times New Roman,serif" font-size="14.00">Plaisance: “我*必须*坚持你买一本书。”店主打断了你。“读书可不是免费的。不过请继续浏览。但是别*太久*就好。”</text>
</g>
<!-- 24 -->
<g id="node25" class="node">
<title>24</title>
<ellipse fill="none" stroke="black" cx="1856.93" cy="-162" rx="77.97" ry="18"/>
<text text-anchor="middle" x="1856.93" y="-156.95" font-family="Times New Roman,serif" font-size="14.00">Jump to: [biohub]</text>
</g>
<!-- 10&#45;&gt;24 -->
<g id="edge14" class="edge">
<title>10&#45;&gt;24</title>
<path fill="none" stroke="black" d="M1812.78,-359.85C1821.03,-323.07 1840.49,-236.29 1850.59,-191.24"/>
<polygon fill="black" stroke="black" points="1853.96,-192.23 1852.73,-181.71 1847.13,-190.7 1853.96,-192.23"/>
</g>
<!-- 11 -->
<g id="node12" class="node">
<title>11</title>
<ellipse fill="none" stroke="black" cx="2589.93" cy="-810" rx="180.84" ry="18"/>
<text text-anchor="middle" x="2589.93" y="-804.95" font-family="Times New Roman,serif" font-size="14.00">You: “无罪者是谁，或者是什么？”</text>
</g>
<!-- 11&#45;&gt;1 -->
<g id="edge15" class="edge">
<title>11&#45;&gt;1</title>
<path fill="none" stroke="black" d="M2589.93,-791.7C2589.93,-784.41 2589.93,-775.73 2589.93,-767.54"/>
<polygon fill="black" stroke="black" points="2593.43,-767.62 2589.93,-757.62 2586.43,-767.62 2593.43,-767.62"/>
</g>
<!-- 12 -->
<g id="node13" class="node">
<title>12</title>
<ellipse fill="none" stroke="black" cx="958.93" cy="-450" rx="928.08" ry="18"/>
<text text-anchor="middle" x="958.93" y="-444.95" font-family="Times New Roman,serif" font-size="14.00">Plaisance: “要我说的话…”女人低语到。“‘最伟大的无罪者’。没错，我很肯定。这是一本很重要的教学工具，对历史、宗教信仰，以及它们与*无罪政权*之间的联系进行了深入探究。”</text>
</g>
<!-- 12&#45;&gt;10 -->
<g id="edge16" class="edge">
<title>12&#45;&gt;10</title>
<path fill="none" stroke="black" d="M1165.77,-431.97C1296.97,-421.16 1466.21,-407.22 1598.15,-396.36"/>
<polygon fill="black" stroke="black" points="1598.4,-399.85 1608.08,-395.54 1597.83,-392.87 1598.4,-399.85"/>
</g>
<!-- 28 -->
<g id="node29" class="node">
<title>28</title>
<ellipse fill="none" stroke="black" cx="958.93" cy="-378" rx="125.56" ry="18"/>
<text text-anchor="middle" x="958.93" y="-372.95" font-family="Times New Roman,serif" font-size="14.00">You: 浏览陈列的书籍。</text>
</g>
<!-- 12&#45;&gt;28 -->
<g id="edge17" class="edge">
<title>12&#45;&gt;28</title>
<path fill="none" stroke="black" d="M958.93,-431.7C958.93,-424.41 958.93,-415.73 958.93,-407.54"/>
<polygon fill="black" stroke="black" points="962.43,-407.62 958.93,-397.62 955.43,-407.62 962.43,-407.62"/>
</g>
<!-- 13 -->
<g id="node14" class="node">
<title>13</title>
<ellipse fill="none" stroke="black" cx="1999.93" cy="-1170" rx="342.57" ry="18"/>
<text text-anchor="middle" x="1999.93" y="-1164.95" font-family="Times New Roman,serif" font-size="14.00">Variable[&quot;tc.turn_off_tutorial_node&quot;] &#160;or &#160;Variable[&quot;character.interactable_tutorial_seen&quot;]</text>
</g>
<!-- 13&#45;&gt;13 -->
<g id="edge18" class="edge">
<title>13&#45;&gt;13</title>
<path fill="none" stroke="black" d="M2234.88,-1183.48C2305.46,-1183.1 2360.5,-1178.61 2360.5,-1170 2360.5,-1161.86 2311.31,-1157.4 2246.31,-1156.62"/>
<polygon fill="black" stroke="black" points="2246.42,-1153.12 2236.39,-1156.54 2246.36,-1160.12 2246.42,-1153.12"/>
</g>
<!-- 14 -->
<g id="node15" class="node">
<title>14</title>
<polygon fill="none" stroke="black" points="1999.93,-1116 1515.46,-1098 1999.93,-1080 2484.4,-1098 1999.93,-1116"/>
<text text-anchor="middle" x="1999.93" y="-1092.95" font-family="Times New Roman,serif" font-size="14.00">Variable[&quot;tc.turn_off_tutorial_node&quot;] &#160;or &#160;Variable[&quot;character.interactable_tutorial_seen&quot;]</text>
</g>
<!-- 13&#45;&gt;14 -->
<g id="edge19" class="edge">
<title>13&#45;&gt;14</title>
<path fill="none" stroke="black" d="M1999.93,-1151.7C1999.93,-1144.41 1999.93,-1135.73 1999.93,-1127.54"/>
<polygon fill="black" stroke="black" points="2003.43,-1127.62 1999.93,-1117.62 1996.43,-1127.62 2003.43,-1127.62"/>
</g>
<!-- 14&#45;&gt;8 -->
<g id="edge20" class="edge">
<title>14&#45;&gt;8</title>
<path fill="none" stroke="black" d="M2086.85,-1082.75C2176.13,-1068.11 2311.62,-1045.9 2381.58,-1034.43"/>
<polygon fill="black" stroke="black" points="2381.84,-1037.94 2391.14,-1032.87 2380.71,-1031.03 2381.84,-1037.94"/>
</g>
<!-- 15 -->
<g id="node16" class="node">
<title>15</title>
<polygon fill="none" stroke="black" points="7555.93,-1332 7058.43,-1314 7555.93,-1296 8053.42,-1314 7555.93,-1332"/>
<text text-anchor="middle" x="7555.93" y="-1308.95" font-family="Times New Roman,serif" font-size="14.00">!(Variable[&quot;tc.turn_off_tutorial_node&quot;] &#160;or &#160;Variable[&quot;character.interactable_tutorial_seen&quot;])</text>
</g>
<!-- 15&#45;&gt;15 -->
<g id="edge21" class="edge">
<title>15&#45;&gt;15</title>
<path fill="none" stroke="black" d="M7748.61,-1325.51C7906.91,-1330.29 8071.42,-1326.45 8071.42,-1314 8071.42,-1301.84 7914.53,-1297.89 7759.75,-1302.17"/>
<polygon fill="black" stroke="black" points="7760.02,-1298.66 7750.13,-1302.44 7760.22,-1305.65 7760.02,-1298.66"/>
</g>
<!-- 16 -->
<g id="node17" class="node">
<title>16</title>
<ellipse fill="none" stroke="black" cx="2854.93" cy="-1098" rx="352.81" ry="18"/>
<text text-anchor="middle" x="2854.93" y="-1092.95" font-family="Times New Roman,serif" font-size="14.00">Tutorial Agent: 你得到了一个可互动物品。前往物品栏中与之互动吧。</text>
</g>
<!-- 16&#45;&gt;8 -->
<g id="edge22" class="edge">
<title>16&#45;&gt;8</title>
<path fill="none" stroke="black" d="M2752.96,-1080.32C2663.85,-1065.75 2538.67,-1045.28 2472.33,-1034.43"/>
<polygon fill="black" stroke="black" points="2472.97,-1030.98 2462.54,-1032.82 2471.84,-1037.89 2472.97,-1030.98"/>
</g>
<!-- 17 -->
<g id="node18" class="node">
<title>17</title>
<ellipse fill="none" stroke="black" cx="2854.93" cy="-1242" rx="538.08" ry="18"/>
<text text-anchor="middle" x="2854.93" y="-1236.95" font-family="Times New Roman,serif" font-size="14.00">Plaisance: “对于一个外行来说也许是吧！”她嘲笑着。“要想层层剥开多层含义，深入分析是很有必要的。”</text>
</g>
<!-- 30 -->
<g id="node31" class="node">
<title>30</title>
<ellipse fill="none" stroke="black" cx="2854.93" cy="-1170" rx="329.78" ry="18"/>
<text text-anchor="middle" x="2854.93" y="-1164.95" font-family="Times New Roman,serif" font-size="14.00">You: “我以为这是关于这些…无罪者当中…谁是最酷最伟大的？”</text>
</g>
<!-- 17&#45;&gt;30 -->
<g id="edge23" class="edge">
<title>17&#45;&gt;30</title>
<path fill="none" stroke="black" d="M2854.93,-1223.7C2854.93,-1216.41 2854.93,-1207.73 2854.93,-1199.54"/>
<polygon fill="black" stroke="black" points="2858.43,-1199.62 2854.93,-1189.62 2851.43,-1199.62 2858.43,-1199.62"/>
</g>
<!-- 18&#45;&gt;2 -->
<g id="edge24" class="edge">
<title>18&#45;&gt;2</title>
<path fill="none" stroke="black" d="M4630.82,-1260.1C4631.58,-1267.37 4631.84,-1276.04 4631.58,-1284.24"/>
<polygon fill="black" stroke="black" points="4628.09,-1283.98 4630.94,-1294.19 4635.08,-1284.43 4628.09,-1283.98"/>
</g>
<!-- 19&#45;&gt;28 -->
<g id="edge25" class="edge">
<title>19&#45;&gt;28</title>
<path fill="none" stroke="black" d="M669.18,-793.27C387.83,-773.98 2.93,-735.14 2.93,-667 2.93,-667 2.93,-667 2.93,-521 2.93,-480.55 -8.78,-458.32 21.93,-432 51.88,-406.34 572.67,-389.17 824.58,-382.33"/>
<polygon fill="black" stroke="black" points="824.59,-385.83 834.49,-382.07 824.4,-378.84 824.59,-385.83"/>
</g>
<!-- 29 -->
<g id="node30" class="node">
<title>29</title>
<ellipse fill="none" stroke="black" cx="847.93" cy="-738" rx="192.61" ry="18"/>
<text text-anchor="middle" x="847.93" y="-732.95" font-family="Times New Roman,serif" font-size="14.00">You: “很好。我也不用知道更多了。”</text>
</g>
<!-- 19&#45;&gt;29 -->
<g id="edge26" class="edge">
<title>19&#45;&gt;29</title>
<path fill="none" stroke="black" d="M931.2,-791.52C917.19,-782.68 900,-771.84 884.88,-762.3"/>
<polygon fill="black" stroke="black" points="886.9,-759.44 876.58,-757.07 883.17,-765.36 886.9,-759.44"/>
</g>
<!-- 39 -->
<g id="node40" class="node">
<title>39</title>
<ellipse fill="none" stroke="black" cx="958.93" cy="-594" rx="559.58" ry="18"/>
<text text-anchor="middle" x="958.93" y="-588.95" font-family="Times New Roman,serif" font-size="14.00">Inland Empire: 你觉得自己应该买这本。绝对如此。不知道为什么，它就是*很重要*。里面有些很私人的东西…</text>
</g>
<!-- 19&#45;&gt;39 -->
<g id="edge27" class="edge">
<title>19&#45;&gt;39</title>
<path fill="none" stroke="black" d="M1002.55,-791.55C1065.1,-763.95 1168.21,-707.25 1124.93,-648 1115.14,-634.6 1101.93,-624.51 1087.21,-616.93"/>
<polygon fill="black" stroke="black" points="1088.71,-613.77 1078.17,-612.71 1085.75,-620.11 1088.71,-613.77"/>
</g>
<!-- 22 -->
<g id="node23" class="node">
<title>22</title>
<ellipse fill="none" stroke="black" cx="2589.93" cy="-882" rx="251.47" ry="18"/>
<text text-anchor="middle" x="2589.93" y="-876.95" font-family="Times New Roman,serif" font-size="14.00">You: “店主，这个书架上有什么值得注意的吗？”</text>
</g>
<!-- 21&#45;&gt;22 -->
<g id="edge28" class="edge">
<title>21&#45;&gt;22</title>
<path fill="none" stroke="black" d="M2589.93,-935.7C2589.93,-928.41 2589.93,-919.73 2589.93,-911.54"/>
<polygon fill="black" stroke="black" points="2593.43,-911.62 2589.93,-901.62 2586.43,-911.62 2593.43,-911.62"/>
</g>
<!-- 22&#45;&gt;11 -->
<g id="edge29" class="edge">
<title>22&#45;&gt;11</title>
<path fill="none" stroke="black" d="M2589.93,-863.7C2589.93,-856.41 2589.93,-847.73 2589.93,-839.54"/>
<polygon fill="black" stroke="black" points="2593.43,-839.62 2589.93,-829.62 2586.43,-839.62 2593.43,-839.62"/>
</g>
<!-- 23 -->
<g id="node24" class="node">
<title>23</title>
<ellipse fill="none" stroke="black" cx="958.93" cy="-522" rx="337.96" ry="18"/>
<text text-anchor="middle" x="958.93" y="-516.95" font-family="Times New Roman,serif" font-size="14.00">Plaisance: “一个真正的文化试金石。”她点点头。“祝你阅读愉快。”</text>
</g>
<!-- 23&#45;&gt;12 -->
<g id="edge30" class="edge">
<title>23&#45;&gt;12</title>
<path fill="none" stroke="black" d="M958.93,-503.7C958.93,-496.41 958.93,-487.73 958.93,-479.54"/>
<polygon fill="black" stroke="black" points="962.43,-479.62 958.93,-469.62 955.43,-479.62 962.43,-479.62"/>
</g>
<!-- 24&#45;&gt;7 -->
<g id="edge31" class="edge">
<title>24&#45;&gt;7</title>
<path fill="none" stroke="black" d="M1907.21,-147.92C1946.83,-137.61 2002.75,-123.05 2048.14,-111.24"/>
<polygon fill="black" stroke="black" points="2048.87,-114.67 2057.67,-108.76 2047.11,-107.89 2048.87,-114.67"/>
</g>
<!-- 33 -->
<g id="node34" class="node">
<title>33</title>
<ellipse fill="none" stroke="black" cx="1597.93" cy="-162" rx="77.97" ry="18"/>
<text text-anchor="middle" x="1597.93" y="-156.95" font-family="Times New Roman,serif" font-size="14.00">Jump to: [biohub]</text>
</g>
<!-- 25&#45;&gt;33 -->
<g id="edge32" class="edge">
<title>25&#45;&gt;33</title>
<path fill="none" stroke="black" d="M1423.44,-215.88C1459.27,-205.02 1505.45,-191.02 1541.3,-180.16"/>
<polygon fill="black" stroke="black" points="1542.07,-183.58 1550.63,-177.33 1540.04,-176.88 1542.07,-183.58"/>
</g>
<!-- 26 -->
<g id="node27" class="node">
<title>26</title>
<ellipse fill="none" stroke="black" cx="2482.93" cy="-162" rx="442.88" ry="18"/>
<text text-anchor="middle" x="2482.93" y="-156.95" font-family="Times New Roman,serif" font-size="14.00">Composure: 总有一天，你也会在那个书架上拥有一席之地…或者要努力到*至死方休*！</text>
</g>
<!-- 26&#45;&gt;7 -->
<g id="edge33" class="edge">
<title>26&#45;&gt;7</title>
<path fill="none" stroke="black" d="M2395.6,-143.88C2344.24,-133.81 2279.11,-121.04 2225.73,-110.57"/>
<polygon fill="black" stroke="black" points="2226.5,-107.15 2216.01,-108.66 2225.15,-114.02 2226.5,-107.15"/>
</g>
<!-- 27&#45;&gt;7 -->
<g id="edge34" class="edge">
<title>27&#45;&gt;7</title>
<path fill="none" stroke="black" d="M3362.58,-863.67C3401.69,-840.84 3460.93,-796.73 3460.93,-739 3460.93,-739 3460.93,-739 3460.93,-233 3460.93,-154.28 3089.15,-119.1 2737.98,-103.43"/>
<polygon fill="black" stroke="black" points="2738.21,-99.93 2728.06,-102.99 2737.9,-106.93 2738.21,-99.93"/>
</g>
<!-- 28&#45;&gt;5 -->
<g id="edge35" class="edge">
<title>28&#45;&gt;5</title>
<path fill="none" stroke="black" d="M986.04,-360.05C1000.41,-351.07 1018.27,-339.91 1033.9,-330.14"/>
<polygon fill="black" stroke="black" points="1035.38,-333.35 1042,-325.08 1031.67,-327.41 1035.38,-333.35"/>
</g>
<!-- 31 -->
<g id="node32" class="node">
<title>31</title>
<ellipse fill="none" stroke="black" cx="773.93" cy="-666" rx="342.06" ry="18"/>
<text text-anchor="middle" x="773.93" y="-660.95" font-family="Times New Roman,serif" font-size="14.00">Conceptualization: 在你看来，她的话语是不是很模糊，而且很抽象？</text>
</g>
<!-- 29&#45;&gt;31 -->
<g id="edge36" class="edge">
<title>29&#45;&gt;31</title>
<path fill="none" stroke="black" d="M829.64,-719.7C820.83,-711.37 810.11,-701.22 800.43,-692.07"/>
<polygon fill="black" stroke="black" points="803.04,-689.72 793.37,-685.39 798.23,-694.8 803.04,-689.72"/>
</g>
<!-- 30&#45;&gt;16 -->
<g id="edge37" class="edge">
<title>30&#45;&gt;16</title>
<path fill="none" stroke="black" d="M2854.93,-1151.7C2854.93,-1144.41 2854.93,-1135.73 2854.93,-1127.54"/>
<polygon fill="black" stroke="black" points="2858.43,-1127.62 2854.93,-1117.62 2851.43,-1127.62 2858.43,-1127.62"/>
</g>
<!-- 31&#45;&gt;39 -->
<g id="edge38" class="edge">
<title>31&#45;&gt;39</title>
<path fill="none" stroke="black" d="M819.66,-647.7C844.67,-638.23 875.88,-626.42 902.41,-616.38"/>
<polygon fill="black" stroke="black" points="903.55,-619.7 911.67,-612.88 901.08,-613.15 903.55,-619.7"/>
</g>
<!-- 32 -->
<g id="node33" class="node">
<title>32</title>
<ellipse fill="none" stroke="black" cx="2482.93" cy="-234" rx="282.18" ry="18"/>
<text text-anchor="middle" x="2482.93" y="-228.95" font-family="Times New Roman,serif" font-size="14.00">Jump to: [Shelf of Biographies: &quot;Shelves full of biographies of *fam...&quot;]</text>
</g>
<!-- 32&#45;&gt;26 -->
<g id="edge39" class="edge">
<title>32&#45;&gt;26</title>
<path fill="none" stroke="black" d="M2482.93,-215.7C2482.93,-208.41 2482.93,-199.73 2482.93,-191.54"/>
<polygon fill="black" stroke="black" points="2486.43,-191.62 2482.93,-181.62 2479.43,-191.62 2486.43,-191.62"/>
</g>
<!-- 33&#45;&gt;7 -->
<g id="edge40" class="edge">
<title>33&#45;&gt;7</title>
<path fill="none" stroke="black" d="M1664.27,-152.21C1744.17,-141.61 1880.6,-123.52 1984.48,-109.75"/>
<polygon fill="black" stroke="black" points="1984.75,-113.25 1994.21,-108.46 1983.83,-106.31 1984.75,-113.25"/>
</g>
<!-- 34 -->
<g id="node35" class="node">
<title>34</title>
<ellipse fill="none" stroke="black" cx="2482.93" cy="-306" rx="456.7" ry="18"/>
<text text-anchor="middle" x="2482.93" y="-300.95" font-family="Times New Roman,serif" font-size="14.00">Plaisance: “很抱歉，我也不想催你。你*的确*是在浏览。请吧。别着急。时间就是生意。”</text>
</g>
<!-- 34&#45;&gt;32 -->
<g id="edge41" class="edge">
<title>34&#45;&gt;32</title>
<path fill="none" stroke="black" d="M2482.93,-287.7C2482.93,-280.41 2482.93,-271.73 2482.93,-263.54"/>
<polygon fill="black" stroke="black" points="2486.43,-263.62 2482.93,-253.62 2479.43,-263.62 2486.43,-263.62"/>
</g>
<!-- 38 -->
<g id="node39" class="node">
<title>38</title>
<polygon fill="none" stroke="black" points="2589.93,-612 2281.35,-594 2589.93,-576 2898.51,-594 2589.93,-612"/>
<text text-anchor="middle" x="2589.93" y="-588.95" font-family="Times New Roman,serif" font-size="14.00">!(Variable[&quot;doomed.bookstore_famous_hub_reached&quot;])</text>
</g>
<!-- 35&#45;&gt;38 -->
<g id="edge42" class="edge">
<title>35&#45;&gt;38</title>
<path fill="none" stroke="black" d="M2589.93,-647.7C2589.93,-640.41 2589.93,-631.73 2589.93,-623.54"/>
<polygon fill="black" stroke="black" points="2593.43,-623.62 2589.93,-613.62 2586.43,-623.62 2593.43,-623.62"/>
</g>
<!-- 36 -->
<g id="node37" class="node">
<title>36</title>
<ellipse fill="none" stroke="black" cx="3166.93" cy="-306" rx="208.99" ry="18"/>
<text text-anchor="middle" x="3166.93" y="-300.95" font-family="Times New Roman,serif" font-size="14.00">Variable[&quot;doomed.bookstore_famous_hub_reached&quot;]</text>
</g>
<!-- 36&#45;&gt;36 -->
<g id="edge43" class="edge">
<title>36&#45;&gt;36</title>
<path fill="none" stroke="black" d="M3309.9,-319.5C3356.67,-319.43 3393.92,-314.93 3393.92,-306 3393.92,-297.8 3362.53,-293.34 3321.21,-292.61"/>
<polygon fill="black" stroke="black" points="3321.45,-289.11 3311.42,-292.52 3321.38,-296.11 3321.45,-289.11"/>
</g>
<!-- 37 -->
<g id="node38" class="node">
<title>37</title>
<polygon fill="none" stroke="black" points="3127.93,-252 2832.37,-234 3127.93,-216 3423.48,-234 3127.93,-252"/>
<text text-anchor="middle" x="3127.93" y="-228.95" font-family="Times New Roman,serif" font-size="14.00">Variable[&quot;doomed.bookstore_famous_hub_reached&quot;]</text>
</g>
<!-- 36&#45;&gt;37 -->
<g id="edge44" class="edge">
<title>36&#45;&gt;37</title>
<path fill="none" stroke="black" d="M3157.29,-287.7C3152.88,-279.78 3147.56,-270.23 3142.66,-261.44"/>
<polygon fill="black" stroke="black" points="3145.85,-259.98 3137.93,-252.94 3139.74,-263.38 3145.85,-259.98"/>
</g>
<!-- 37&#45;&gt;26 -->
<g id="edge45" class="edge">
<title>37&#45;&gt;26</title>
<path fill="none" stroke="black" d="M3024.66,-221.79C2922.43,-210.7 2764.41,-193.55 2645.37,-180.63"/>
<polygon fill="black" stroke="black" points="2645.79,-177.15 2635.48,-179.56 2645.04,-184.11 2645.79,-177.15"/>
</g>
<!-- 38&#45;&gt;4 -->
<g id="edge46" class="edge">
<title>38&#45;&gt;4</title>
<path fill="none" stroke="black" d="M2589.93,-575.7C2589.93,-568.41 2589.93,-559.73 2589.93,-551.54"/>
<polygon fill="black" stroke="black" points="2593.43,-551.62 2589.93,-541.62 2586.43,-551.62 2593.43,-551.62"/>
</g>
<!-- 39&#45;&gt;23 -->
<g id="edge47" class="edge">
<title>39&#45;&gt;23</title>
<path fill="none" stroke="black" d="M958.93,-575.7C958.93,-568.41 958.93,-559.73 958.93,-551.54"/>
<polygon fill="black" stroke="black" points="962.43,-551.62 958.93,-541.62 955.43,-551.62 962.43,-551.62"/>
</g>
<!-- 40&#45;&gt;34 -->
<g id="edge48" class="edge">
<title>40&#45;&gt;34</title>
<path fill="none" stroke="black" d="M2579.94,-360.05C2563.29,-350.95 2542.53,-339.59 2524.49,-329.73"/>
<polygon fill="black" stroke="black" points="2526.3,-326.73 2515.85,-325 2522.94,-332.87 2526.3,-326.73"/>
</g>
<!-- 41 -->
<g id="node42" class="node">
<title>41</title>
<ellipse fill="none" stroke="black" cx="2854.93" cy="-1314" rx="875.36" ry="18"/>
<text text-anchor="middle" x="2854.93" y="-1308.95" font-family="Times New Roman,serif" font-size="14.00">Shelf of Biographies: 突然间，一个特别古怪的标题吸引了你的注意。上面写着：“全速恋爱：雅各布·欧文与阿尔菲·德拉查斯的真实爱情悲剧”，作者是塞西莉亚·艾维布鲁克。</text>
</g>
<!-- 41&#45;&gt;17 -->
<g id="edge49" class="edge">
<title>41&#45;&gt;17</title>
<path fill="none" stroke="black" d="M2854.93,-1295.7C2854.93,-1288.41 2854.93,-1279.73 2854.93,-1271.54"/>
<polygon fill="black" stroke="black" points="2858.43,-1271.62 2854.93,-1261.62 2851.43,-1271.62 2858.43,-1271.62"/>
</g>
</g>
</svg>
