<?xml version="1.0" encoding="UTF-8" standalone="no"?>
<!DOCTYPE svg PUBLIC "-//W3C//DTD SVG 1.1//EN"
 "http://www.w3.org/Graphics/SVG/1.1/DTD/svg11.dtd">
<!-- Generated by graphviz version 12.2.1 (20241206.2353)
 -->
<!-- Title: G Pages: 1 -->
<svg width="2588pt" height="188pt"
 viewBox="0.00 0.00 2588.32 188.00" xmlns="http://www.w3.org/2000/svg" xmlns:xlink="http://www.w3.org/1999/xlink">
<g id="graph0" class="graph" transform="scale(1 1) rotate(0) translate(4 184)">
<title>G</title>
<polygon fill="white" stroke="none" points="-4,4 -4,-184 2584.32,-184 2584.32,4 -4,4"/>
<!-- 0 -->
<g id="node1" class="node">
<title>0</title>
<ellipse fill="none" stroke="black" cx="1353.02" cy="-162" rx="39.07" ry="18"/>
<text text-anchor="middle" x="1353.02" y="-156.95" font-family="Times New Roman,serif" font-size="14.00">START</text>
</g>
<!-- 1 -->
<g id="node2" class="node">
<title>1</title>
<ellipse fill="none" stroke="black" cx="1353.02" cy="-90" rx="29.86" ry="18"/>
<text text-anchor="middle" x="1353.02" y="-84.95" font-family="Times New Roman,serif" font-size="14.00">input</text>
</g>
<!-- 0&#45;&gt;1 -->
<g id="edge1" class="edge">
<title>0&#45;&gt;1</title>
<path fill="none" stroke="black" d="M1353.02,-143.7C1353.02,-136.41 1353.02,-127.73 1353.02,-119.54"/>
<polygon fill="black" stroke="black" points="1356.52,-119.62 1353.02,-109.62 1349.52,-119.62 1356.52,-119.62"/>
</g>
<!-- 2 -->
<g id="node3" class="node">
<title>2</title>
<ellipse fill="none" stroke="black" cx="102.02" cy="-18" rx="102.02" ry="18"/>
<text text-anchor="middle" x="102.02" y="-12.95" font-family="Times New Roman,serif" font-size="14.00">Acele: *teeth clattering*</text>
</g>
<!-- 1&#45;&gt;2 -->
<g id="edge2" class="edge">
<title>1&#45;&gt;2</title>
<path fill="none" stroke="black" d="M1322.99,-88.77C1191.41,-87.5 652.68,-79.76 213.02,-36 203.99,-35.1 194.57,-33.97 185.2,-32.71"/>
<polygon fill="black" stroke="black" points="185.72,-29.25 175.33,-31.34 184.75,-36.18 185.72,-29.25"/>
</g>
<!-- 3 -->
<g id="node4" class="node">
<title>3</title>
<ellipse fill="none" stroke="black" cx="358.02" cy="-18" rx="135.8" ry="18"/>
<text text-anchor="middle" x="358.02" y="-12.95" font-family="Times New Roman,serif" font-size="14.00">Acele: &quot;It&#39;s creaking really loud.&quot;</text>
</g>
<!-- 1&#45;&gt;3 -->
<g id="edge3" class="edge">
<title>1&#45;&gt;3</title>
<path fill="none" stroke="black" d="M1323.24,-87.73C1213.82,-82.94 823.69,-64.77 503.02,-36 490.82,-34.91 478.05,-33.62 465.37,-32.25"/>
<polygon fill="black" stroke="black" points="466.1,-28.81 455.77,-31.19 465.33,-35.77 466.1,-28.81"/>
</g>
<!-- 4 -->
<g id="node5" class="node">
<title>4</title>
<ellipse fill="none" stroke="black" cx="713.02" cy="-18" rx="201.31" ry="18"/>
<text text-anchor="middle" x="713.02" y="-12.95" font-family="Times New Roman,serif" font-size="14.00">Acele: &quot;This place must have a mind of its own...&quot;</text>
</g>
<!-- 1&#45;&gt;4 -->
<g id="edge4" class="edge">
<title>1&#45;&gt;4</title>
<path fill="none" stroke="black" d="M1323.86,-85.81C1241.25,-76.78 1001.76,-50.58 848.35,-33.8"/>
<polygon fill="black" stroke="black" points="848.83,-30.33 838.51,-32.72 848.07,-37.29 848.83,-30.33"/>
</g>
<!-- 5 -->
<g id="node6" class="node">
<title>5</title>
<ellipse fill="none" stroke="black" cx="1069.02" cy="-18" rx="136.82" ry="18"/>
<text text-anchor="middle" x="1069.02" y="-12.95" font-family="Times New Roman,serif" font-size="14.00">Acele: &quot;Damn it&#39;s cold outside...&quot;</text>
</g>
<!-- 1&#45;&gt;5 -->
<g id="edge5" class="edge">
<title>1&#45;&gt;5</title>
<path fill="none" stroke="black" d="M1325.53,-82.22C1283.66,-71.9 1202.46,-51.89 1142.59,-37.13"/>
<polygon fill="black" stroke="black" points="1143.69,-33.8 1133.14,-34.8 1142.01,-40.6 1143.69,-33.8"/>
</g>
<!-- 7 -->
<g id="node7" class="node">
<title>7</title>
<ellipse fill="none" stroke="black" cx="1353.02" cy="-18" rx="129.66" ry="18"/>
<text text-anchor="middle" x="1353.02" y="-12.95" font-family="Times New Roman,serif" font-size="14.00">Acele: &quot;Much warmer in here.&quot;</text>
</g>
<!-- 1&#45;&gt;7 -->
<g id="edge6" class="edge">
<title>1&#45;&gt;7</title>
<path fill="none" stroke="black" d="M1353.02,-71.7C1353.02,-64.41 1353.02,-55.73 1353.02,-47.54"/>
<polygon fill="black" stroke="black" points="1356.52,-47.62 1353.02,-37.62 1349.52,-47.62 1356.52,-47.62"/>
</g>
<!-- 8 -->
<g id="node8" class="node">
<title>8</title>
<ellipse fill="none" stroke="black" cx="1611.02" cy="-18" rx="110.72" ry="18"/>
<text text-anchor="middle" x="1611.02" y="-12.95" font-family="Times New Roman,serif" font-size="14.00">Acele: &quot;Oh, here we go...&quot;</text>
</g>
<!-- 1&#45;&gt;8 -->
<g id="edge7" class="edge">
<title>1&#45;&gt;8</title>
<path fill="none" stroke="black" d="M1379.66,-81.77C1418.32,-71.28 1491.23,-51.5 1544.9,-36.94"/>
<polygon fill="black" stroke="black" points="1545.51,-40.4 1554.24,-34.4 1543.68,-33.65 1545.51,-40.4"/>
</g>
<!-- 9 -->
<g id="node9" class="node">
<title>9</title>
<ellipse fill="none" stroke="black" cx="1875.02" cy="-18" rx="135.29" ry="18"/>
<text text-anchor="middle" x="1875.02" y="-12.95" font-family="Times New Roman,serif" font-size="14.00">Acele: &quot;Sounds like it&#39;s smiling.&quot;</text>
</g>
<!-- 1&#45;&gt;9 -->
<g id="edge8" class="edge">
<title>1&#45;&gt;9</title>
<path fill="none" stroke="black" d="M1382.2,-85.09C1455.34,-75.28 1649.27,-49.27 1770.92,-32.96"/>
<polygon fill="black" stroke="black" points="1771.14,-36.46 1780.59,-31.66 1770.21,-29.52 1771.14,-36.46"/>
</g>
<!-- 10 -->
<g id="node10" class="node">
<title>10</title>
<ellipse fill="none" stroke="black" cx="2116.02" cy="-18" rx="87.69" ry="18"/>
<text text-anchor="middle" x="2116.02" y="-12.95" font-family="Times New Roman,serif" font-size="14.00">Acele: &quot;Beautiful...&quot;</text>
</g>
<!-- 1&#45;&gt;10 -->
<g id="edge9" class="edge">
<title>1&#45;&gt;10</title>
<path fill="none" stroke="black" d="M1382.99,-87.62C1477.03,-83.08 1774.51,-67.09 2019.02,-36 2026.43,-35.06 2034.13,-33.94 2041.81,-32.74"/>
<polygon fill="black" stroke="black" points="2042.21,-36.22 2051.52,-31.17 2041.09,-29.31 2042.21,-36.22"/>
</g>
<!-- 11 -->
<g id="node11" class="node">
<title>11</title>
<ellipse fill="none" stroke="black" cx="2401.02" cy="-18" rx="179.3" ry="18"/>
<text text-anchor="middle" x="2401.02" y="-12.95" font-family="Times New Roman,serif" font-size="14.00">Acele: &quot;The frequency can&#39;t be *that* low...&quot;</text>
</g>
<!-- 1&#45;&gt;11 -->
<g id="edge10" class="edge">
<title>1&#45;&gt;11</title>
<path fill="none" stroke="black" d="M1382.75,-87.48C1492.85,-81.77 1887.85,-60.72 2213.02,-36 2228.95,-34.79 2245.63,-33.42 2262.2,-32"/>
<polygon fill="black" stroke="black" points="2262.47,-35.49 2272.13,-31.15 2261.87,-28.52 2262.47,-35.49"/>
</g>
</g>
</svg>
