<?xml version="1.0" encoding="UTF-8" standalone="no"?>
<!DOCTYPE svg PUBLIC "-//W3C//DTD SVG 1.1//EN"
 "http://www.w3.org/Graphics/SVG/1.1/DTD/svg11.dtd">
<!-- Generated by graphviz version 12.2.1 (20241206.2353)
 -->
<!-- Title: G Pages: 1 -->
<svg width="2653pt" height="116pt"
 viewBox="0.00 0.00 2653.49 116.00" xmlns="http://www.w3.org/2000/svg" xmlns:xlink="http://www.w3.org/1999/xlink">
<g id="graph0" class="graph" transform="scale(1 1) rotate(0) translate(4 112)">
<title>G</title>
<polygon fill="white" stroke="none" points="-4,4 -4,-112 2649.49,-112 2649.49,4 -4,4"/>
<!-- 0 -->
<g id="node1" class="node">
<title>0</title>
<ellipse fill="none" stroke="black" cx="1321.16" cy="-90" rx="39.07" ry="18"/>
<text text-anchor="middle" x="1321.16" y="-84.95" font-family="Times New Roman,serif" font-size="14.00">START</text>
</g>
<!-- 0&#45;&gt;0 -->
<g id="edge1" class="edge">
<title>0&#45;&gt;0</title>
<path fill="none" stroke="black" d="M1349.35,-102.94C1364.46,-105.14 1378.23,-100.83 1378.23,-90 1378.23,-81.96 1370.65,-77.52 1360.56,-76.65"/>
<polygon fill="black" stroke="black" points="1360.73,-73.15 1350.86,-77 1360.98,-80.14 1360.73,-73.15"/>
</g>
<!-- 1 -->
<g id="node2" class="node">
<title>1</title>
<ellipse fill="none" stroke="black" cx="1426.16" cy="-90" rx="29.86" ry="18"/>
<text text-anchor="middle" x="1426.16" y="-84.95" font-family="Times New Roman,serif" font-size="14.00">input</text>
</g>
<!-- 1&#45;&gt;1 -->
<g id="edge2" class="edge">
<title>1&#45;&gt;1</title>
<path fill="none" stroke="black" d="M1447.82,-102.55C1461.24,-105.57 1474.02,-101.39 1474.02,-90 1474.02,-81.99 1467.7,-77.55 1459.28,-76.66"/>
<polygon fill="black" stroke="black" points="1459.06,-73.17 1449.33,-77.35 1459.54,-80.15 1459.06,-73.17"/>
</g>
<!-- 2 -->
<g id="node3" class="node">
<title>2</title>
<ellipse fill="none" stroke="black" cx="173.16" cy="-18" rx="173.16" ry="18"/>
<text text-anchor="middle" x="173.16" y="-12.95" font-family="Times New Roman,serif" font-size="14.00">Soona, the Programmer: &quot;No, that&#39;s not it.&quot;</text>
</g>
<!-- 1&#45;&gt;2 -->
<g id="edge3" class="edge">
<title>1&#45;&gt;2</title>
<path fill="none" stroke="black" d="M1403.97,-77.62C1398.6,-75.35 1392.78,-73.27 1387.16,-72 1163.37,-21.26 584.16,-50.68 355.16,-36 338.92,-34.96 321.89,-33.65 305.03,-32.23"/>
<polygon fill="black" stroke="black" points="305.76,-28.78 295.5,-31.41 305.16,-35.75 305.76,-28.78"/>
</g>
<!-- 4 -->
<g id="node5" class="node">
<title>4</title>
<ellipse fill="none" stroke="black" cx="690.16" cy="-18" rx="326.19" ry="18"/>
<text text-anchor="middle" x="690.16" y="-12.95" font-family="Times New Roman,serif" font-size="14.00">Soona, the Programmer: &quot;... equals equals false, close brackets, equals equals true?&quot;</text>
</g>
<!-- 1&#45;&gt;4 -->
<g id="edge4" class="edge">
<title>1&#45;&gt;4</title>
<path fill="none" stroke="black" d="M1403.93,-77.79C1398.56,-75.51 1392.75,-73.39 1387.16,-72 1342.29,-60.85 1103.87,-44.2 918.22,-32.54"/>
<polygon fill="black" stroke="black" points="918.62,-29.06 908.42,-31.93 918.18,-36.05 918.62,-29.06"/>
</g>
<!-- 5 -->
<g id="node6" class="node">
<title>5</title>
<ellipse fill="none" stroke="black" cx="1426.16" cy="-18" rx="391.7" ry="18"/>
<text text-anchor="middle" x="1426.16" y="-12.95" font-family="Times New Roman,serif" font-size="14.00">Soona, the Programmer: “What about... &#39;1 &lt;= getResult() and and getResult() &lt;= getNumSides()&#39;...?”</text>
</g>
<!-- 1&#45;&gt;5 -->
<g id="edge5" class="edge">
<title>1&#45;&gt;5</title>
<path fill="none" stroke="black" d="M1426.16,-71.7C1426.16,-64.41 1426.16,-55.73 1426.16,-47.54"/>
<polygon fill="black" stroke="black" points="1429.66,-47.62 1426.16,-37.62 1422.66,-47.62 1429.66,-47.62"/>
</g>
<!-- 6 -->
<g id="node7" class="node">
<title>6</title>
<ellipse fill="none" stroke="black" cx="1986.16" cy="-18" rx="150.64" ry="18"/>
<text text-anchor="middle" x="1986.16" y="-12.95" font-family="Times New Roman,serif" font-size="14.00">Soona, the Programmer: &quot;Hmmm...&quot;</text>
</g>
<!-- 1&#45;&gt;6 -->
<g id="edge6" class="edge">
<title>1&#45;&gt;6</title>
<path fill="none" stroke="black" d="M1451.73,-80.27C1461.47,-77.24 1472.73,-74.08 1483.16,-72 1633.91,-41.9 1674.29,-52.17 1827.16,-36 1839.55,-34.69 1852.47,-33.32 1865.37,-31.94"/>
<polygon fill="black" stroke="black" points="1865.61,-35.44 1875.18,-30.9 1864.86,-28.48 1865.61,-35.44"/>
</g>
<!-- 7 -->
<g id="node8" class="node">
<title>7</title>
<ellipse fill="none" stroke="black" cx="2400.16" cy="-18" rx="245.33" ry="18"/>
<text text-anchor="middle" x="2400.16" y="-12.95" font-family="Times New Roman,serif" font-size="14.00">Soona, the Programmer: &quot;What do you mean &#39;file not found&#39;?&quot;</text>
</g>
<!-- 1&#45;&gt;7 -->
<g id="edge7" class="edge">
<title>1&#45;&gt;7</title>
<path fill="none" stroke="black" d="M1451.68,-79.99C1461.41,-76.93 1472.68,-73.82 1483.16,-72 1773.91,-21.48 1851.6,-53.85 2146.16,-36 2168.15,-34.67 2191.21,-33.21 2214.08,-31.72"/>
<polygon fill="black" stroke="black" points="2214.02,-35.24 2223.78,-31.09 2213.57,-28.25 2214.02,-35.24"/>
</g>
<!-- 3 -->
<g id="node4" class="node">
<title>3</title>
<ellipse fill="none" stroke="black" cx="1721.16" cy="-90" rx="229.46" ry="18"/>
<text text-anchor="middle" x="1721.16" y="-84.95" font-family="Times New Roman,serif" font-size="14.00">Soona, the Programmer: &quot;Where did that &#39;Õ&#39; come from?&quot;</text>
</g>
</g>
</svg>
