<?xml version="1.0" encoding="UTF-8" standalone="no"?>
<!DOCTYPE svg PUBLIC "-//W3C//DTD SVG 1.1//EN"
 "http://www.w3.org/Graphics/SVG/1.1/DTD/svg11.dtd">
<!-- Generated by graphviz version 12.2.1 (20241206.2353)
 -->
<!-- Title: G Pages: 1 -->
<svg width="7504pt" height="1766pt"
 viewBox="0.00 0.00 7504.36 1765.95" xmlns="http://www.w3.org/2000/svg" xmlns:xlink="http://www.w3.org/1999/xlink">
<g id="graph0" class="graph" transform="scale(1 1) rotate(0) translate(4 1761.95)">
<title>G</title>
<polygon fill="white" stroke="none" points="-4,4 -4,-1761.95 7500.36,-1761.95 7500.36,4 -4,4"/>
<!-- 0 -->
<g id="node1" class="node">
<title>0</title>
<ellipse fill="none" stroke="black" cx="4667.76" cy="-1739.95" rx="39.07" ry="18"/>
<text text-anchor="middle" x="4667.76" y="-1734.9" font-family="Times New Roman,serif" font-size="14.00">START</text>
</g>
<!-- 1 -->
<g id="node2" class="node">
<title>1</title>
<ellipse fill="none" stroke="black" cx="4667.76" cy="-1667.95" rx="29.86" ry="18"/>
<text text-anchor="middle" x="4667.76" y="-1662.9" font-family="Times New Roman,serif" font-size="14.00">input</text>
</g>
<!-- 0&#45;&gt;1 -->
<g id="edge1" class="edge">
<title>0&#45;&gt;1</title>
<path fill="none" stroke="black" d="M4667.76,-1721.64C4667.76,-1714.35 4667.76,-1705.67 4667.76,-1697.48"/>
<polygon fill="black" stroke="black" points="4671.26,-1697.57 4667.76,-1687.57 4664.26,-1697.57 4671.26,-1697.57"/>
</g>
<!-- 28 -->
<g id="node29" class="node">
<title>28</title>
<ellipse fill="none" stroke="black" cx="4667.76" cy="-1595.95" rx="428.55" ry="18"/>
<text text-anchor="middle" x="4667.76" y="-1590.9" font-family="Times New Roman,serif" font-size="14.00">Electrochemistry: Now that you&#39;ve acquired some stimulants, it&#39;s time for a little pick&#45;me&#45;up. Time to *detect*.</text>
</g>
<!-- 1&#45;&gt;28 -->
<g id="edge2" class="edge">
<title>1&#45;&gt;28</title>
<path fill="none" stroke="black" d="M4667.76,-1649.64C4667.76,-1642.35 4667.76,-1633.67 4667.76,-1625.48"/>
<polygon fill="black" stroke="black" points="4671.26,-1625.57 4667.76,-1615.57 4664.26,-1625.57 4671.26,-1625.57"/>
</g>
<!-- 2 -->
<g id="node3" class="node">
<title>2</title>
<ellipse fill="none" stroke="black" cx="2432.76" cy="-1346.97" rx="131.71" ry="18"/>
<text text-anchor="middle" x="2432.76" y="-1341.92" font-family="Times New Roman,serif" font-size="14.00">CheckHeldRightGroup(&quot;speed&quot;)</text>
</g>
<!-- 3 -->
<g id="node4" class="node">
<title>3</title>
<polygon fill="none" stroke="black" points="2348.76,-1281.98 2162.51,-1263.98 2348.76,-1245.98 2535.02,-1263.98 2348.76,-1281.98"/>
<text text-anchor="middle" x="2348.76" y="-1258.93" font-family="Times New Roman,serif" font-size="14.00">CheckHeldRightGroup(&quot;speed&quot;)</text>
</g>
<!-- 2&#45;&gt;3 -->
<g id="edge3" class="edge">
<title>2&#45;&gt;3</title>
<path fill="none" stroke="black" d="M2414.95,-1328.8C2402.86,-1317.14 2386.72,-1301.58 2373.4,-1288.74"/>
<polygon fill="black" stroke="black" points="2375.85,-1286.23 2366.22,-1281.81 2370.99,-1291.27 2375.85,-1286.23"/>
</g>
<!-- 4 -->
<g id="node5" class="node">
<title>4</title>
<polygon fill="none" stroke="black" points="3134.76,-1281.98 2935.48,-1263.98 3134.76,-1245.98 3334.05,-1263.98 3134.76,-1281.98"/>
<text text-anchor="middle" x="3134.76" y="-1258.93" font-family="Times New Roman,serif" font-size="14.00">!(CheckHeldRightGroup(&quot;speed&quot;))</text>
</g>
<!-- 2&#45;&gt;4 -->
<g id="edge4" class="edge">
<title>2&#45;&gt;4</title>
<path fill="none" stroke="black" d="M2500.3,-1331.12C2523.5,-1326.4 2549.69,-1321.5 2573.76,-1317.98 2723.3,-1296.13 2896.65,-1281.35 3010.62,-1273.07"/>
<polygon fill="black" stroke="black" points="3010.57,-1276.58 3020.29,-1272.37 3010.07,-1269.6 3010.57,-1276.58"/>
</g>
<!-- 40 -->
<g id="node41" class="node">
<title>40</title>
<ellipse fill="none" stroke="black" cx="2181.76" cy="-1191.98" rx="152.18" ry="18"/>
<text text-anchor="middle" x="2181.76" y="-1186.93" font-family="Times New Roman,serif" font-size="14.00">CheckEquipped(&quot;drug_speed_bottle&quot;)</text>
</g>
<!-- 3&#45;&gt;40 -->
<g id="edge5" class="edge">
<title>3&#45;&gt;40</title>
<path fill="none" stroke="black" d="M2314.97,-1248.82C2291.16,-1238.84 2258.87,-1225.3 2232.04,-1214.06"/>
<polygon fill="black" stroke="black" points="2233.65,-1210.94 2223.08,-1210.3 2230.95,-1217.39 2233.65,-1210.94"/>
</g>
<!-- 9 -->
<g id="node10" class="node">
<title>9</title>
<ellipse fill="none" stroke="black" cx="3600.76" cy="-1191.98" rx="152.18" ry="18"/>
<text text-anchor="middle" x="3600.76" y="-1186.93" font-family="Times New Roman,serif" font-size="14.00">CheckEquipped(&quot;drug_speed_bottle&quot;)</text>
</g>
<!-- 4&#45;&gt;9 -->
<g id="edge6" class="edge">
<title>4&#45;&gt;9</title>
<path fill="none" stroke="black" d="M3207.32,-1252.08C3285.25,-1240.38 3409.74,-1221.68 3497.79,-1208.45"/>
<polygon fill="black" stroke="black" points="3498.28,-1211.92 3507.65,-1206.97 3497.24,-1204.99 3498.28,-1211.92"/>
</g>
<!-- 5 -->
<g id="node6" class="node">
<title>5</title>
<ellipse fill="none" stroke="black" cx="2778.76" cy="-666" rx="224.85" ry="18"/>
<text text-anchor="middle" x="2778.76" y="-660.95" font-family="Times New Roman,serif" font-size="14.00">Composure: Whooh, this shit is strong. This shit is disco.</text>
</g>
<!-- 54 -->
<g id="node54" class="node">
<title>54</title>
<ellipse fill="none" stroke="black" cx="2778.76" cy="-594" rx="58.52" ry="18"/>
<text text-anchor="middle" x="2778.76" y="-588.95" font-family="Times New Roman,serif" font-size="14.00">IsKimHere()</text>
</g>
<!-- 5&#45;&gt;54 -->
<g id="edge7" class="edge">
<title>5&#45;&gt;54</title>
<path fill="none" stroke="black" d="M2778.76,-647.7C2778.76,-640.41 2778.76,-631.73 2778.76,-623.54"/>
<polygon fill="black" stroke="black" points="2782.26,-623.62 2778.76,-613.62 2775.26,-623.62 2782.26,-623.62"/>
</g>
<!-- 6 -->
<g id="node7" class="node">
<title>6</title>
<ellipse fill="none" stroke="black" cx="6697.76" cy="-1263.98" rx="149.11" ry="18"/>
<text text-anchor="middle" x="6697.76" y="-1258.93" font-family="Times New Roman,serif" font-size="14.00">Variable[&quot;tc.turn_off_tutorial_node&quot;]</text>
</g>
<!-- 7 -->
<g id="node8" class="node">
<title>7</title>
<polygon fill="none" stroke="black" points="6470.76,-1209.98 6259.9,-1191.98 6470.76,-1173.98 6681.63,-1191.98 6470.76,-1209.98"/>
<text text-anchor="middle" x="6470.76" y="-1186.93" font-family="Times New Roman,serif" font-size="14.00">Variable[&quot;tc.turn_off_tutorial_node&quot;]</text>
</g>
<!-- 6&#45;&gt;7 -->
<g id="edge9" class="edge">
<title>6&#45;&gt;7</title>
<path fill="none" stroke="black" d="M6645.12,-1246.75C6609.39,-1235.73 6562.24,-1221.19 6525.98,-1210.01"/>
<polygon fill="black" stroke="black" points="6527.14,-1206.7 6516.55,-1207.1 6525.08,-1213.39 6527.14,-1206.7"/>
</g>
<!-- 8 -->
<g id="node9" class="node">
<title>8</title>
<polygon fill="none" stroke="black" points="6923.76,-1209.98 6699.87,-1191.98 6923.76,-1173.98 7147.66,-1191.98 6923.76,-1209.98"/>
<text text-anchor="middle" x="6923.76" y="-1186.93" font-family="Times New Roman,serif" font-size="14.00">!(Variable[&quot;tc.turn_off_tutorial_node&quot;])</text>
</g>
<!-- 6&#45;&gt;8 -->
<g id="edge8" class="edge">
<title>6&#45;&gt;8</title>
<path fill="none" stroke="black" d="M6750.18,-1246.75C6785.63,-1235.77 6832.38,-1221.29 6868.43,-1210.12"/>
<polygon fill="black" stroke="black" points="6869.29,-1213.52 6877.8,-1207.22 6867.22,-1206.83 6869.29,-1213.52"/>
</g>
<!-- 31 -->
<g id="node32" class="node">
<title>31</title>
<ellipse fill="none" stroke="black" cx="6923.76" cy="-1119.98" rx="566.23" ry="18"/>
<text text-anchor="middle" x="6923.76" y="-1114.93" font-family="Times New Roman,serif" font-size="14.00">Tutorial Agent: You&#39;ve passed up your chance to start using SPEED for now, but don&#39;t worry! The option to use it becomes available again in 1 hour.</text>
</g>
<!-- 8&#45;&gt;31 -->
<g id="edge10" class="edge">
<title>8&#45;&gt;31</title>
<path fill="none" stroke="black" d="M6923.76,-1173.68C6923.76,-1166.39 6923.76,-1157.71 6923.76,-1149.52"/>
<polygon fill="black" stroke="black" points="6927.26,-1149.6 6923.76,-1139.6 6920.26,-1149.6 6927.26,-1149.6"/>
</g>
<!-- 10 -->
<g id="node11" class="node">
<title>10</title>
<polygon fill="none" stroke="black" points="4540.76,-1137.98 4325.55,-1119.98 4540.76,-1101.98 4755.98,-1119.98 4540.76,-1137.98"/>
<text text-anchor="middle" x="4540.76" y="-1114.93" font-family="Times New Roman,serif" font-size="14.00">CheckEquipped(&quot;drug_speed_bottle&quot;)</text>
</g>
<!-- 9&#45;&gt;10 -->
<g id="edge11" class="edge">
<title>9&#45;&gt;10</title>
<path fill="none" stroke="black" d="M3726.56,-1181.61C3907.78,-1168.12 4240.11,-1143.37 4419.04,-1130.05"/>
<polygon fill="black" stroke="black" points="4419.11,-1133.55 4428.82,-1129.32 4418.59,-1126.57 4419.11,-1133.55"/>
</g>
<!-- 11 -->
<g id="node12" class="node">
<title>11</title>
<polygon fill="none" stroke="black" points="3600.76,-1137.98 3372.52,-1119.98 3600.76,-1101.98 3829,-1119.98 3600.76,-1137.98"/>
<text text-anchor="middle" x="3600.76" y="-1114.93" font-family="Times New Roman,serif" font-size="14.00">!(CheckEquipped(&quot;drug_speed_bottle&quot;))</text>
</g>
<!-- 9&#45;&gt;11 -->
<g id="edge12" class="edge">
<title>9&#45;&gt;11</title>
<path fill="none" stroke="black" d="M3600.76,-1173.68C3600.76,-1166.39 3600.76,-1157.71 3600.76,-1149.52"/>
<polygon fill="black" stroke="black" points="3604.26,-1149.6 3600.76,-1139.6 3597.26,-1149.6 3604.26,-1149.6"/>
</g>
<!-- 12 -->
<g id="node13" class="node">
<title>12</title>
<ellipse fill="none" stroke="black" cx="5019.76" cy="-1047.98" rx="637.88" ry="18"/>
<text text-anchor="middle" x="5019.76" y="-1042.93" font-family="Times New Roman,serif" font-size="14.00">Electrochemistry: You raise the bottle, close a nostril and inhale *furiously*. The rush is almost immediate. It tastes bitter and caustic, and stings a bit inside your nose.</text>
</g>
<!-- 10&#45;&gt;12 -->
<g id="edge13" class="edge">
<title>10&#45;&gt;12</title>
<path fill="none" stroke="black" d="M4616.93,-1107.85C4690.52,-1097.1 4803.4,-1080.6 4890.97,-1067.81"/>
<polygon fill="black" stroke="black" points="4891.44,-1071.27 4900.83,-1066.36 4890.43,-1064.35 4891.44,-1071.27"/>
</g>
<!-- 18 -->
<g id="node19" class="node">
<title>18</title>
<ellipse fill="none" stroke="black" cx="3600.76" cy="-1047.98" rx="762.76" ry="18"/>
<text text-anchor="middle" x="3600.76" y="-1042.93" font-family="Times New Roman,serif" font-size="14.00">Electrochemistry: You raise the Preptide bottle, press one nostril closed, and inhale *furiously* with the other. The rush is almost immediate. It tastes bitter and caustic, and stings a bit inside your nose.</text>
</g>
<!-- 11&#45;&gt;18 -->
<g id="edge14" class="edge">
<title>11&#45;&gt;18</title>
<path fill="none" stroke="black" d="M3600.76,-1101.68C3600.76,-1094.39 3600.76,-1085.71 3600.76,-1077.52"/>
<polygon fill="black" stroke="black" points="3604.26,-1077.6 3600.76,-1067.6 3597.26,-1077.6 3604.26,-1077.6"/>
</g>
<!-- 21 -->
<g id="node22" class="node">
<title>21</title>
<ellipse fill="none" stroke="black" cx="2604.76" cy="-964.99" rx="83.6" ry="18"/>
<text text-anchor="middle" x="2604.76" y="-959.94" font-family="Times New Roman,serif" font-size="14.00">You: Mamma mia!</text>
</g>
<!-- 12&#45;&gt;21 -->
<g id="edge17" class="edge">
<title>12&#45;&gt;21</title>
<path fill="none" stroke="black" d="M4569.47,-1034.87C4503.5,-1033.18 4436.37,-1031.5 4372.76,-1029.98 4186.66,-1025.54 2881.63,-1023.07 2697.76,-993.98 2684.23,-991.84 2669.92,-988.24 2656.69,-984.32"/>
<polygon fill="black" stroke="black" points="2657.9,-981.03 2647.32,-981.43 2655.84,-987.72 2657.9,-981.03"/>
</g>
<!-- 34 -->
<g id="node35" class="node">
<title>34</title>
<ellipse fill="none" stroke="black" cx="2778.76" cy="-964.99" rx="72.34" ry="18"/>
<text text-anchor="middle" x="2778.76" y="-959.94" font-family="Times New Roman,serif" font-size="14.00">You: &quot;Hngfff...&quot;</text>
</g>
<!-- 12&#45;&gt;34 -->
<g id="edge16" class="edge">
<title>12&#45;&gt;34</title>
<path fill="none" stroke="black" d="M4567.28,-1034.95C4502.01,-1033.26 4435.67,-1031.56 4372.76,-1029.98 4204.77,-1025.78 3026.21,-1023.47 2860.76,-993.98 2849.09,-991.9 2836.84,-988.45 2825.46,-984.67"/>
<polygon fill="black" stroke="black" points="2826.9,-981.46 2816.3,-981.47 2824.59,-988.07 2826.9,-981.46"/>
</g>
<!-- 57 -->
<g id="node57" class="node">
<title>57</title>
<ellipse fill="none" stroke="black" cx="3177.76" cy="-964.99" rx="308.3" ry="28.99"/>
<text text-anchor="middle" x="3177.76" y="-968.19" font-family="Times New Roman,serif" font-size="14.00">You: Good to have you back, Officer Supercop. The world has been waiting.</text>
<text text-anchor="middle" x="3177.76" y="-951.69" font-family="Times New Roman,serif" font-size="14.00">Good to have you back, Officer Megacop. The world has been waiting.</text>
</g>
<!-- 12&#45;&gt;57 -->
<g id="edge15" class="edge">
<title>12&#45;&gt;57</title>
<path fill="none" stroke="black" d="M4684.59,-1032.25C4335.69,-1016.9 3795.02,-993.13 3465.04,-978.62"/>
<polygon fill="black" stroke="black" points="3465.54,-975.14 3455.39,-978.2 3465.23,-982.13 3465.54,-975.14"/>
</g>
<!-- 13 -->
<g id="node14" class="node">
<title>13</title>
<ellipse fill="none" stroke="black" cx="2577.76" cy="-1440.96" rx="243.79" ry="18"/>
<text text-anchor="middle" x="2577.76" y="-1435.91" font-family="Times New Roman,serif" font-size="14.00">You: Okay, my body is ready. Let&#39;s do this. (Try some speed.)</text>
</g>
<!-- 13&#45;&gt;2 -->
<g id="edge18" class="edge">
<title>13&#45;&gt;2</title>
<path fill="none" stroke="black" d="M2550.49,-1422.66C2527.46,-1408.05 2494.29,-1387 2469.03,-1370.98"/>
<polygon fill="black" stroke="black" points="2471.02,-1368.1 2460.7,-1365.7 2467.27,-1374.01 2471.02,-1368.1"/>
</g>
<!-- 14 -->
<g id="node15" class="node">
<title>14</title>
<ellipse fill="none" stroke="black" cx="3114.76" cy="-1346.97" rx="532.1" ry="28.99"/>
<text text-anchor="middle" x="3114.76" y="-1350.17" font-family="Times New Roman,serif" font-size="14.00">Electrochemistry: See, that&#39;s your problem &#45;&#45; a lack of confidence. Speed can help you with that. It can help you with EVERYTHING.</text>
<text text-anchor="middle" x="3114.76" y="-1333.67" font-family="Times New Roman,serif" font-size="14.00">See, that&#39;s your problem &#45;&#45; a lack of confidence. Speed can help you with that *and* Kim. It can help you with EVERYTHING.</text>
</g>
<!-- 53 -->
<g id="node53" class="node">
<title>53</title>
<ellipse fill="none" stroke="black" cx="4152.76" cy="-1263.98" rx="418.32" ry="18"/>
<text text-anchor="middle" x="4152.76" y="-1258.93" font-family="Times New Roman,serif" font-size="14.00">Jump to: [But you need the zeal. Let&#39;s face it, you&#39;re never going to finish this case without some extra help.]</text>
</g>
<!-- 14&#45;&gt;53 -->
<g id="edge19" class="edge">
<title>14&#45;&gt;53</title>
<path fill="none" stroke="black" d="M3414.3,-1322.6C3584.45,-1309.33 3793.18,-1293.04 3945.27,-1281.17"/>
<polygon fill="black" stroke="black" points="3945.37,-1284.68 3955.07,-1280.41 3944.83,-1277.7 3945.37,-1284.68"/>
</g>
<!-- 15 -->
<g id="node16" class="node">
<title>15</title>
<ellipse fill="none" stroke="black" cx="3184.76" cy="-234" rx="330.29" ry="18"/>
<text text-anchor="middle" x="3184.76" y="-228.95" font-family="Times New Roman,serif" font-size="14.00">Electrochemistry: To *this*? You kidding?! There are downsides to *not* being on it.</text>
</g>
<!-- 52 -->
<g id="node52" class="node">
<title>52</title>
<ellipse fill="none" stroke="black" cx="3187.76" cy="-162" rx="416.78" ry="18"/>
<text text-anchor="middle" x="3187.76" y="-156.95" font-family="Times New Roman,serif" font-size="14.00">Volition: There are *massive* downsides. It&#39;s a potent neurotoxin. You&#39;re turning yourself into a frayed idiot.</text>
</g>
<!-- 15&#45;&gt;52 -->
<g id="edge20" class="edge">
<title>15&#45;&gt;52</title>
<path fill="none" stroke="black" d="M3185.51,-215.7C3185.82,-208.41 3186.19,-199.73 3186.54,-191.54"/>
<polygon fill="black" stroke="black" points="3190.04,-191.76 3186.97,-181.62 3183.04,-191.46 3190.04,-191.76"/>
</g>
<!-- 16 -->
<g id="node17" class="node">
<title>16</title>
<ellipse fill="none" stroke="black" cx="3790.76" cy="-18" rx="1058.08" ry="18"/>
<text text-anchor="middle" x="3790.76" y="-12.95" font-family="Times New Roman,serif" font-size="14.00">Tutorial Agent: In the bottom right corner of the screen there&#39;s a SPEED button! SPEED gives +1 to MOTORIC skills: Perception, Reaction Speed, Hand/Eye Coordination, Savoir Faire, Interfacing, and Composure. This is good before a White Check &#45;&#45; but damages your Morale.</text>
</g>
<!-- 17 -->
<g id="node18" class="node">
<title>17</title>
<ellipse fill="none" stroke="black" cx="4017.76" cy="-234" rx="484.34" ry="18"/>
<text text-anchor="middle" x="4017.76" y="-228.95" font-family="Times New Roman,serif" font-size="14.00">Electrochemistry: Spring&#45;spring! Everything is clear around you. You&#39;re ready to concentrate on the next task in the task chain.</text>
</g>
<!-- 37 -->
<g id="node38" class="node">
<title>37</title>
<ellipse fill="none" stroke="black" cx="4017.76" cy="-162" rx="149.11" ry="18"/>
<text text-anchor="middle" x="4017.76" y="-156.95" font-family="Times New Roman,serif" font-size="14.00">Variable[&quot;tc.turn_off_tutorial_node&quot;]</text>
</g>
<!-- 17&#45;&gt;37 -->
<g id="edge21" class="edge">
<title>17&#45;&gt;37</title>
<path fill="none" stroke="black" d="M4017.76,-215.7C4017.76,-208.41 4017.76,-199.73 4017.76,-191.54"/>
<polygon fill="black" stroke="black" points="4021.26,-191.62 4017.76,-181.62 4014.26,-191.62 4021.26,-191.62"/>
</g>
<!-- 18&#45;&gt;21 -->
<g id="edge24" class="edge">
<title>18&#45;&gt;21</title>
<path fill="none" stroke="black" d="M3194.18,-1032.33C3000.95,-1023.49 2791.94,-1010.68 2697.76,-993.98 2684.53,-991.64 2670.53,-988.04 2657.51,-984.2"/>
<polygon fill="black" stroke="black" points="2658.89,-980.96 2648.3,-981.38 2656.84,-987.65 2658.89,-980.96"/>
</g>
<!-- 18&#45;&gt;34 -->
<g id="edge23" class="edge">
<title>18&#45;&gt;34</title>
<path fill="none" stroke="black" d="M3148.23,-1033.12C3052.68,-1025.03 2952.91,-1012.68 2860.76,-993.98 2849.49,-991.69 2837.63,-988.27 2826.54,-984.6"/>
<polygon fill="black" stroke="black" points="2827.79,-981.33 2817.19,-981.37 2825.5,-987.95 2827.79,-981.33"/>
</g>
<!-- 18&#45;&gt;57 -->
<g id="edge22" class="edge">
<title>18&#45;&gt;57</title>
<path fill="none" stroke="black" d="M3510.28,-1029.66C3455.56,-1019.18 3384.55,-1005.59 3322.22,-993.65"/>
<polygon fill="black" stroke="black" points="3323.05,-990.25 3312.57,-991.8 3321.74,-997.12 3323.05,-990.25"/>
</g>
<!-- 19 -->
<g id="node20" class="node">
<title>19</title>
<ellipse fill="none" stroke="black" cx="5307.76" cy="-1346.97" rx="573.91" ry="18"/>
<text text-anchor="middle" x="5307.76" y="-1341.92" font-family="Times New Roman,serif" font-size="14.00">Electrochemistry: It will make you into *more* than that &#45;&#45; a Megacop! This is your modus operandi. This is how you&#39;ve done it for *years*. Let&#39;s go!</text>
</g>
<!-- 27 -->
<g id="node28" class="node">
<title>27</title>
<ellipse fill="none" stroke="black" cx="5157.76" cy="-1263.98" rx="418.32" ry="18"/>
<text text-anchor="middle" x="5157.76" y="-1258.93" font-family="Times New Roman,serif" font-size="14.00">Jump to: [But you need the zeal. Let&#39;s face it, you&#39;re never going to finish this case without some extra help.]</text>
</g>
<!-- 19&#45;&gt;27 -->
<g id="edge25" class="edge">
<title>19&#45;&gt;27</title>
<path fill="none" stroke="black" d="M5275.59,-1328.6C5253.44,-1316.64 5223.81,-1300.64 5199.8,-1287.68"/>
<polygon fill="black" stroke="black" points="5201.68,-1284.72 5191.22,-1283.05 5198.36,-1290.88 5201.68,-1284.72"/>
</g>
<!-- 20 -->
<g id="node21" class="node">
<title>20</title>
<ellipse fill="none" stroke="black" cx="2450.76" cy="-234" rx="386.07" ry="18"/>
<text text-anchor="middle" x="2450.76" y="-228.95" font-family="Times New Roman,serif" font-size="14.00">Kim Kitsuragi: &quot;I&#39;m not your mother.&quot; He avoids your gaze. &quot;I don&#39;t care. Do what you have to do.&quot;</text>
</g>
<!-- 44 -->
<g id="node45" class="node">
<title>44</title>
<ellipse fill="none" stroke="black" cx="2408.76" cy="-162" rx="344.11" ry="18"/>
<text text-anchor="middle" x="2408.76" y="-156.95" font-family="Times New Roman,serif" font-size="14.00">Esprit de Corps: As long as you remain functional, he thinks. Now let&#39;s get back to work.</text>
</g>
<!-- 20&#45;&gt;44 -->
<g id="edge26" class="edge">
<title>20&#45;&gt;44</title>
<path fill="none" stroke="black" d="M2440.38,-215.7C2435.7,-207.9 2430.07,-198.51 2424.86,-189.83"/>
<polygon fill="black" stroke="black" points="2427.95,-188.18 2419.81,-181.4 2421.95,-191.78 2427.95,-188.18"/>
</g>
<!-- 49 -->
<g id="node50" class="node">
<title>49</title>
<ellipse fill="none" stroke="black" cx="2778.76" cy="-882" rx="786.31" ry="18"/>
<text text-anchor="middle" x="2778.76" y="-876.95" font-family="Times New Roman,serif" font-size="14.00">Electrochemistry: Now the taste is slowly receding into your throat... The rush is growing in intensity, your little heart pounding like a bird in a cage. A sweat breaks out across your brow, your jaw clenches...</text>
</g>
<!-- 21&#45;&gt;49 -->
<g id="edge27" class="edge">
<title>21&#45;&gt;49</title>
<path fill="none" stroke="black" d="M2638.73,-948.18C2664.98,-935.97 2701.64,-918.9 2730.87,-905.29"/>
<polygon fill="black" stroke="black" points="2732.31,-908.48 2739.9,-901.09 2729.35,-902.14 2732.31,-908.48"/>
</g>
<!-- 22 -->
<g id="node23" class="node">
<title>22</title>
<ellipse fill="none" stroke="black" cx="4667.76" cy="-1523.95" rx="376.86" ry="18"/>
<text text-anchor="middle" x="4667.76" y="-1518.9" font-family="Times New Roman,serif" font-size="14.00">But you need the zeal. Let&#39;s face it, you&#39;re never going to finish this case without some extra help.</text>
</g>
<!-- 22&#45;&gt;13 -->
<g id="edge29" class="edge">
<title>22&#45;&gt;13</title>
<path fill="none" stroke="black" d="M4382.09,-1511.88C3961.13,-1495.57 3182.93,-1465.41 2801.01,-1450.61"/>
<polygon fill="black" stroke="black" points="2801.19,-1447.11 2791.06,-1450.22 2800.91,-1454.11 2801.19,-1447.11"/>
</g>
<!-- 23 -->
<g id="node24" class="node">
<title>23</title>
<ellipse fill="none" stroke="black" cx="4287.76" cy="-1440.96" rx="216.67" ry="18"/>
<text text-anchor="middle" x="4287.76" y="-1435.91" font-family="Times New Roman,serif" font-size="14.00">You: This is gonna be really bad for my health, isn&#39;t it?</text>
</g>
<!-- 22&#45;&gt;23 -->
<g id="edge31" class="edge">
<title>22&#45;&gt;23</title>
<path fill="none" stroke="black" d="M4587.64,-1505.87C4525.37,-1492.6 4439.12,-1474.22 4375.09,-1460.57"/>
<polygon fill="black" stroke="black" points="4376.2,-1457.23 4365.7,-1458.57 4374.75,-1464.07 4376.2,-1457.23"/>
</g>
<!-- 29 -->
<g id="node30" class="node">
<title>29</title>
<ellipse fill="none" stroke="black" cx="5098.76" cy="-1440.96" rx="157.3" ry="18"/>
<text text-anchor="middle" x="5098.76" y="-1435.91" font-family="Times New Roman,serif" font-size="14.00">You: Will it make me into a Supercop?</text>
</g>
<!-- 22&#45;&gt;29 -->
<g id="edge32" class="edge">
<title>22&#45;&gt;29</title>
<path fill="none" stroke="black" d="M4757.85,-1506.02C4831.32,-1492.21 4934.62,-1472.8 5008.21,-1458.97"/>
<polygon fill="black" stroke="black" points="5008.63,-1462.46 5017.82,-1457.17 5007.34,-1455.58 5008.63,-1462.46"/>
</g>
<!-- 43 -->
<g id="node44" class="node">
<title>43</title>
<ellipse fill="none" stroke="black" cx="3585.76" cy="-1440.96" rx="187.91" ry="28.99"/>
<text text-anchor="middle" x="3585.76" y="-1444.16" font-family="Times New Roman,serif" font-size="14.00">You: What... but right *here*? Now?</text>
<text text-anchor="middle" x="3585.76" y="-1427.66" font-family="Times New Roman,serif" font-size="14.00">Wait, but Kim is here. He&#39;ll be dissappointed.</text>
</g>
<!-- 22&#45;&gt;43 -->
<g id="edge28" class="edge">
<title>22&#45;&gt;43</title>
<path fill="none" stroke="black" d="M4470.57,-1508.19C4268.91,-1493.09 3958.44,-1469.85 3763.97,-1455.3"/>
<polygon fill="black" stroke="black" points="3764.52,-1451.83 3754.29,-1454.57 3764,-1458.81 3764.52,-1451.83"/>
</g>
<!-- 46 -->
<g id="node47" class="node">
<title>46</title>
<ellipse fill="none" stroke="black" cx="6077.76" cy="-1440.96" rx="183.91" ry="18"/>
<text text-anchor="middle" x="6077.76" y="-1435.91" font-family="Times New Roman,serif" font-size="14.00">You: I&#39;m not doing this now. [Ignore thought.]</text>
</g>
<!-- 22&#45;&gt;46 -->
<g id="edge30" class="edge">
<title>22&#45;&gt;46</title>
<path fill="none" stroke="black" d="M4902.18,-1509.48C5187.05,-1493.12 5660.59,-1465.92 5910.87,-1451.54"/>
<polygon fill="black" stroke="black" points="5910.96,-1455.04 5920.74,-1450.98 5910.56,-1448.06 5910.96,-1455.04"/>
</g>
<!-- 32 -->
<g id="node33" class="node">
<title>32</title>
<ellipse fill="none" stroke="black" cx="4152.76" cy="-1346.97" rx="487.41" ry="18"/>
<text text-anchor="middle" x="4152.76" y="-1341.92" font-family="Times New Roman,serif" font-size="14.00">Electrochemistry: It&#39;s not ideal, no... But you need the zeal. Let&#39;s face it, you&#39;re never going to finish this case without cheating.</text>
</g>
<!-- 23&#45;&gt;32 -->
<g id="edge33" class="edge">
<title>23&#45;&gt;32</title>
<path fill="none" stroke="black" d="M4262.37,-1422.66C4241.16,-1408.2 4210.71,-1387.45 4187.28,-1371.49"/>
<polygon fill="black" stroke="black" points="4189.53,-1368.79 4179.29,-1366.05 4185.59,-1374.57 4189.53,-1368.79"/>
</g>
<!-- 24 -->
<g id="node25" class="node">
<title>24</title>
<ellipse fill="none" stroke="black" cx="2181.76" cy="-1047.98" rx="637.88" ry="18"/>
<text text-anchor="middle" x="2181.76" y="-1042.93" font-family="Times New Roman,serif" font-size="14.00">Electrochemistry: You raise the bottle, close a nostril and inhale *furiously*. The rush is almost immediate. It tastes bitter and caustic, and stings a bit inside your nose.</text>
</g>
<!-- 24&#45;&gt;21 -->
<g id="edge36" class="edge">
<title>24&#45;&gt;21</title>
<path fill="none" stroke="black" d="M2271.99,-1029.71C2349.72,-1014.82 2460.46,-993.62 2532.47,-979.83"/>
<polygon fill="black" stroke="black" points="2533.04,-983.29 2542.2,-977.97 2531.72,-976.41 2533.04,-983.29"/>
</g>
<!-- 24&#45;&gt;34 -->
<g id="edge35" class="edge">
<title>24&#45;&gt;34</title>
<path fill="none" stroke="black" d="M2450.12,-1031.23C2530.39,-1023.35 2618.19,-1011.57 2697.76,-993.98 2708.77,-991.55 2720.35,-988.11 2731.21,-984.46"/>
<polygon fill="black" stroke="black" points="2732.06,-987.88 2740.35,-981.28 2729.75,-981.26 2732.06,-987.88"/>
</g>
<!-- 24&#45;&gt;57 -->
<g id="edge34" class="edge">
<title>24&#45;&gt;57</title>
<path fill="none" stroke="black" d="M2398.22,-1030.6C2531.37,-1020.39 2705.48,-1006.8 2859.76,-993.98 2887.8,-991.65 2917.23,-989.15 2946.38,-986.62"/>
<polygon fill="black" stroke="black" points="2946.37,-990.14 2956.03,-985.79 2945.77,-983.17 2946.37,-990.14"/>
</g>
<!-- 25 -->
<g id="node26" class="node">
<title>25</title>
<ellipse fill="none" stroke="black" cx="762.76" cy="-1047.98" rx="762.76" ry="18"/>
<text text-anchor="middle" x="762.76" y="-1042.93" font-family="Times New Roman,serif" font-size="14.00">Electrochemistry: You raise the Preptide bottle, press one nostril closed, and inhale *furiously* with the other. The rush is almost immediate. It tastes bitter and caustic, and stings a bit inside your nose.</text>
</g>
<!-- 25&#45;&gt;21 -->
<g id="edge39" class="edge">
<title>25&#45;&gt;21</title>
<path fill="none" stroke="black" d="M1113.57,-1031.56C1547.39,-1012.48 2259.5,-981.17 2512.24,-970.06"/>
<polygon fill="black" stroke="black" points="2512.22,-973.56 2522.05,-969.63 2511.91,-966.57 2512.22,-973.56"/>
</g>
<!-- 25&#45;&gt;34 -->
<g id="edge38" class="edge">
<title>25&#45;&gt;34</title>
<path fill="none" stroke="black" d="M1287.05,-1034.55C1848.19,-1020.96 2663.21,-1000.27 2697.76,-993.98 2709.18,-991.9 2721.16,-988.49 2732.3,-984.76"/>
<polygon fill="black" stroke="black" points="2733.41,-988.08 2741.68,-981.45 2731.09,-981.47 2733.41,-988.08"/>
</g>
<!-- 25&#45;&gt;57 -->
<g id="edge37" class="edge">
<title>25&#45;&gt;57</title>
<path fill="none" stroke="black" d="M1306.31,-1035.01C1876.03,-1022.18 2709.24,-1002.5 2859.76,-993.98 2890.58,-992.24 2923.03,-989.93 2954.95,-987.38"/>
<polygon fill="black" stroke="black" points="2955.03,-990.89 2964.71,-986.59 2954.46,-983.91 2955.03,-990.89"/>
</g>
<!-- 26 -->
<g id="node27" class="node">
<title>26</title>
<ellipse fill="none" stroke="black" cx="6697.76" cy="-1346.97" rx="798.59" ry="18"/>
<text text-anchor="middle" x="6697.76" y="-1341.92" font-family="Times New Roman,serif" font-size="14.00">Electrochemistry: This is so unprofessional of you. Think you can ignore this &#45;&#45; your *moral compass* telling you to sniff it? Guess again &#45;&#45; you&#39;ll be back here soon. You&#39;ll get the chance to choose more wisely.</text>
</g>
<!-- 26&#45;&gt;6 -->
<g id="edge40" class="edge">
<title>26&#45;&gt;6</title>
<path fill="none" stroke="black" d="M6697.76,-1328.8C6697.76,-1318.67 6697.76,-1305.58 6697.76,-1293.9"/>
<polygon fill="black" stroke="black" points="6701.26,-1293.93 6697.76,-1283.93 6694.26,-1293.93 6701.26,-1293.93"/>
</g>
<!-- 27&#45;&gt;22 -->
<g id="edge41" class="edge">
<title>27&#45;&gt;22</title>
<path fill="none" stroke="black" d="M4862.2,-1277.08C4801.18,-1285.01 4748.3,-1297.73 4724.76,-1317.98 4723.05,-1319.46 4690.53,-1438.89 4675.4,-1494.74"/>
<polygon fill="black" stroke="black" points="4672.08,-1493.6 4672.84,-1504.17 4678.83,-1495.43 4672.08,-1493.6"/>
</g>
<!-- 28&#45;&gt;22 -->
<g id="edge42" class="edge">
<title>28&#45;&gt;22</title>
<path fill="none" stroke="black" d="M4667.76,-1577.64C4667.76,-1570.35 4667.76,-1561.67 4667.76,-1553.48"/>
<polygon fill="black" stroke="black" points="4671.26,-1553.57 4667.76,-1543.57 4664.26,-1553.57 4671.26,-1553.57"/>
</g>
<!-- 29&#45;&gt;19 -->
<g id="edge43" class="edge">
<title>29&#45;&gt;19</title>
<path fill="none" stroke="black" d="M5137.1,-1423.09C5171.14,-1408.11 5221.09,-1386.12 5258.16,-1369.8"/>
<polygon fill="black" stroke="black" points="5259.13,-1373.2 5266.87,-1365.97 5256.31,-1366.8 5259.13,-1373.2"/>
</g>
<!-- 30 -->
<g id="node31" class="node">
<title>30</title>
<ellipse fill="none" stroke="black" cx="2487.76" cy="-306" rx="337.45" ry="18"/>
<text text-anchor="middle" x="2487.76" y="-300.95" font-family="Times New Roman,serif" font-size="14.00">You: &quot;Kim, I did a little speed. I hope you don&#39;t mind. It was for professional reasons.&quot;</text>
</g>
<!-- 30&#45;&gt;20 -->
<g id="edge44" class="edge">
<title>30&#45;&gt;20</title>
<path fill="none" stroke="black" d="M2478.62,-287.7C2474.54,-279.98 2469.64,-270.71 2465.1,-262.11"/>
<polygon fill="black" stroke="black" points="2468.28,-260.65 2460.51,-253.44 2462.09,-263.92 2468.28,-260.65"/>
</g>
<!-- 32&#45;&gt;53 -->
<g id="edge45" class="edge">
<title>32&#45;&gt;53</title>
<path fill="none" stroke="black" d="M4152.76,-1328.8C4152.76,-1318.67 4152.76,-1305.58 4152.76,-1293.9"/>
<polygon fill="black" stroke="black" points="4156.26,-1293.93 4152.76,-1283.93 4149.26,-1293.93 4156.26,-1293.93"/>
</g>
<!-- 33 -->
<g id="node34" class="node">
<title>33</title>
<ellipse fill="none" stroke="black" cx="2779.76" cy="-378" rx="73.87" ry="18"/>
<text text-anchor="middle" x="2779.76" y="-372.95" font-family="Times New Roman,serif" font-size="14.00">did_not_fuck_up</text>
</g>
<!-- 33&#45;&gt;30 -->
<g id="edge48" class="edge">
<title>33&#45;&gt;30</title>
<path fill="none" stroke="black" d="M2728.57,-364.73C2684.76,-354.22 2620.88,-338.91 2569.93,-326.7"/>
<polygon fill="black" stroke="black" points="2570.95,-323.34 2560.4,-324.41 2569.31,-330.15 2570.95,-323.34"/>
</g>
<!-- 35 -->
<g id="node36" class="node">
<title>35</title>
<ellipse fill="none" stroke="black" cx="3146.76" cy="-306" rx="228.44" ry="18"/>
<text text-anchor="middle" x="3146.76" y="-300.95" font-family="Times New Roman,serif" font-size="14.00">You: Feels great. Are there *any* downsides to this at all?</text>
</g>
<!-- 33&#45;&gt;35 -->
<g id="edge47" class="edge">
<title>33&#45;&gt;35</title>
<path fill="none" stroke="black" d="M2836.71,-366.14C2893.83,-355.24 2982.84,-338.27 3050.87,-325.29"/>
<polygon fill="black" stroke="black" points="3051.38,-328.76 3060.54,-323.45 3050.07,-321.88 3051.38,-328.76"/>
</g>
<!-- 48 -->
<g id="node49" class="node">
<title>48</title>
<ellipse fill="none" stroke="black" cx="3854.76" cy="-306" rx="261.19" ry="18"/>
<text text-anchor="middle" x="3854.76" y="-300.95" font-family="Times New Roman,serif" font-size="14.00">You: Cool, cool, let&#39;s boogie. [Finish thought and spring to action.]</text>
</g>
<!-- 33&#45;&gt;48 -->
<g id="edge46" class="edge">
<title>33&#45;&gt;48</title>
<path fill="none" stroke="black" d="M2850.3,-372.41C3012.09,-361.87 3414.69,-335.66 3658.23,-319.8"/>
<polygon fill="black" stroke="black" points="3658.45,-323.29 3668.2,-319.15 3657.99,-316.31 3658.45,-323.29"/>
</g>
<!-- 34&#45;&gt;49 -->
<g id="edge49" class="edge">
<title>34&#45;&gt;49</title>
<path fill="none" stroke="black" d="M2778.76,-946.82C2778.76,-936.68 2778.76,-923.6 2778.76,-911.91"/>
<polygon fill="black" stroke="black" points="2782.26,-911.94 2778.76,-901.94 2775.26,-911.94 2782.26,-911.94"/>
</g>
<!-- 35&#45;&gt;15 -->
<g id="edge50" class="edge">
<title>35&#45;&gt;15</title>
<path fill="none" stroke="black" d="M3156.16,-287.7C3160.35,-279.98 3165.38,-270.71 3170.05,-262.11"/>
<polygon fill="black" stroke="black" points="3173.06,-263.89 3174.76,-253.43 3166.91,-260.55 3173.06,-263.89"/>
</g>
<!-- 36 -->
<g id="node37" class="node">
<title>36</title>
<ellipse fill="none" stroke="black" cx="2408.76" cy="-90" rx="115.33" ry="18"/>
<text text-anchor="middle" x="2408.76" y="-84.95" font-family="Times New Roman,serif" font-size="14.00">Jump to: [did_not_fuck_up]</text>
</g>
<!-- 36&#45;&gt;33 -->
<g id="edge51" class="edge">
<title>36&#45;&gt;33</title>
<path fill="none" stroke="black" d="M2294.28,-92.56C2203.23,-96.52 2086.24,-108.6 2055.76,-144 2024.44,-180.37 2035.45,-208.51 2055.76,-252 2076.86,-297.17 2095.66,-305.05 2141.76,-324 2239.51,-364.17 2544.11,-373.91 2694.29,-376.26"/>
<polygon fill="black" stroke="black" points="2694.14,-379.76 2704.19,-376.4 2694.25,-372.76 2694.14,-379.76"/>
</g>
<!-- 38 -->
<g id="node39" class="node">
<title>38</title>
<polygon fill="none" stroke="black" points="4243.76,-108 4032.9,-90 4243.76,-72 4454.63,-90 4243.76,-108"/>
<text text-anchor="middle" x="4243.76" y="-84.95" font-family="Times New Roman,serif" font-size="14.00">Variable[&quot;tc.turn_off_tutorial_node&quot;]</text>
</g>
<!-- 37&#45;&gt;38 -->
<g id="edge52" class="edge">
<title>37&#45;&gt;38</title>
<path fill="none" stroke="black" d="M4070.18,-144.76C4105.75,-133.75 4152.69,-119.21 4188.79,-108.03"/>
<polygon fill="black" stroke="black" points="4189.66,-111.42 4198.17,-105.12 4187.59,-104.74 4189.66,-111.42"/>
</g>
<!-- 39 -->
<g id="node40" class="node">
<title>39</title>
<polygon fill="none" stroke="black" points="3790.76,-108 3566.87,-90 3790.76,-72 4014.66,-90 3790.76,-108"/>
<text text-anchor="middle" x="3790.76" y="-84.95" font-family="Times New Roman,serif" font-size="14.00">!(Variable[&quot;tc.turn_off_tutorial_node&quot;])</text>
</g>
<!-- 37&#45;&gt;39 -->
<g id="edge53" class="edge">
<title>37&#45;&gt;39</title>
<path fill="none" stroke="black" d="M3965.12,-144.76C3929.51,-133.78 3882.55,-119.31 3846.35,-108.14"/>
<polygon fill="black" stroke="black" points="3847.51,-104.84 3836.92,-105.23 3845.45,-111.53 3847.51,-104.84"/>
</g>
<!-- 39&#45;&gt;16 -->
<g id="edge54" class="edge">
<title>39&#45;&gt;16</title>
<path fill="none" stroke="black" d="M3790.76,-71.7C3790.76,-64.41 3790.76,-55.73 3790.76,-47.54"/>
<polygon fill="black" stroke="black" points="3794.26,-47.62 3790.76,-37.62 3787.26,-47.62 3794.26,-47.62"/>
</g>
<!-- 41 -->
<g id="node42" class="node">
<title>41</title>
<polygon fill="none" stroke="black" points="2181.76,-1137.98 1966.55,-1119.98 2181.76,-1101.98 2396.98,-1119.98 2181.76,-1137.98"/>
<text text-anchor="middle" x="2181.76" y="-1114.93" font-family="Times New Roman,serif" font-size="14.00">CheckEquipped(&quot;drug_speed_bottle&quot;)</text>
</g>
<!-- 40&#45;&gt;41 -->
<g id="edge55" class="edge">
<title>40&#45;&gt;41</title>
<path fill="none" stroke="black" d="M2181.76,-1173.68C2181.76,-1166.39 2181.76,-1157.71 2181.76,-1149.52"/>
<polygon fill="black" stroke="black" points="2185.26,-1149.6 2181.76,-1139.6 2178.26,-1149.6 2185.26,-1149.6"/>
</g>
<!-- 42 -->
<g id="node43" class="node">
<title>42</title>
<polygon fill="none" stroke="black" points="1241.76,-1137.98 1013.52,-1119.98 1241.76,-1101.98 1470,-1119.98 1241.76,-1137.98"/>
<text text-anchor="middle" x="1241.76" y="-1114.93" font-family="Times New Roman,serif" font-size="14.00">!(CheckEquipped(&quot;drug_speed_bottle&quot;))</text>
</g>
<!-- 40&#45;&gt;42 -->
<g id="edge56" class="edge">
<title>40&#45;&gt;42</title>
<path fill="none" stroke="black" d="M2055.97,-1181.61C1875.98,-1168.21 1546.9,-1143.71 1367.14,-1130.32"/>
<polygon fill="black" stroke="black" points="1367.53,-1126.84 1357.29,-1129.59 1367.01,-1133.82 1367.53,-1126.84"/>
</g>
<!-- 41&#45;&gt;24 -->
<g id="edge57" class="edge">
<title>41&#45;&gt;24</title>
<path fill="none" stroke="black" d="M2181.76,-1101.68C2181.76,-1094.39 2181.76,-1085.71 2181.76,-1077.52"/>
<polygon fill="black" stroke="black" points="2185.26,-1077.6 2181.76,-1067.6 2178.26,-1077.6 2185.26,-1077.6"/>
</g>
<!-- 42&#45;&gt;25 -->
<g id="edge58" class="edge">
<title>42&#45;&gt;25</title>
<path fill="none" stroke="black" d="M1164.01,-1107.62C1090.53,-1096.88 978.92,-1080.57 892.05,-1067.88"/>
<polygon fill="black" stroke="black" points="892.67,-1064.43 882.27,-1066.45 891.66,-1071.36 892.67,-1064.43"/>
</g>
<!-- 43&#45;&gt;14 -->
<g id="edge59" class="edge">
<title>43&#45;&gt;14</title>
<path fill="none" stroke="black" d="M3471.15,-1417.57C3409.5,-1405.53 3332.69,-1390.53 3266.18,-1377.54"/>
<polygon fill="black" stroke="black" points="3267.14,-1374.17 3256.66,-1375.68 3265.8,-1381.04 3267.14,-1374.17"/>
</g>
<!-- 44&#45;&gt;36 -->
<g id="edge60" class="edge">
<title>44&#45;&gt;36</title>
<path fill="none" stroke="black" d="M2408.76,-143.7C2408.76,-136.41 2408.76,-127.73 2408.76,-119.54"/>
<polygon fill="black" stroke="black" points="2412.26,-119.62 2408.76,-109.62 2405.26,-119.62 2412.26,-119.62"/>
</g>
<!-- 45 -->
<g id="node46" class="node">
<title>45</title>
<ellipse fill="none" stroke="black" cx="2566.76" cy="-450" rx="311.86" ry="18"/>
<text text-anchor="middle" x="2566.76" y="-444.95" font-family="Times New Roman,serif" font-size="14.00">Suggestion: Time for a little truth. Tell the lieutenant you did some, clear the air.</text>
</g>
<!-- 45&#45;&gt;33 -->
<g id="edge61" class="edge">
<title>45&#45;&gt;33</title>
<path fill="none" stroke="black" d="M2619.14,-431.79C2651.68,-421.09 2693.39,-407.38 2726.16,-396.62"/>
<polygon fill="black" stroke="black" points="2727.05,-400.01 2735.46,-393.56 2724.87,-393.36 2727.05,-400.01"/>
</g>
<!-- 46&#45;&gt;26 -->
<g id="edge62" class="edge">
<title>46&#45;&gt;26</title>
<path fill="none" stroke="black" d="M6176.35,-1425.33C6283.01,-1409.51 6453.45,-1384.22 6570.24,-1366.89"/>
<polygon fill="black" stroke="black" points="6570.49,-1370.39 6579.87,-1365.46 6569.46,-1363.47 6570.49,-1370.39"/>
</g>
<!-- 47 -->
<g id="node48" class="node">
<title>47</title>
<ellipse fill="none" stroke="black" cx="2778.76" cy="-738" rx="937.8" ry="18"/>
<text text-anchor="middle" x="2778.76" y="-732.95" font-family="Times New Roman,serif" font-size="14.00">Logic: Hmmm, you could work with this high... Like, literally *work*: Solve the case, file some papers. Maybe clean up your hostel room, then solve *another* case, then start a side investigation into the para&#45;natural, then build a radiocomputer...</text>
</g>
<!-- 47&#45;&gt;5 -->
<g id="edge63" class="edge">
<title>47&#45;&gt;5</title>
<path fill="none" stroke="black" d="M2778.76,-719.7C2778.76,-712.41 2778.76,-703.73 2778.76,-695.54"/>
<polygon fill="black" stroke="black" points="2782.26,-695.62 2778.76,-685.62 2775.26,-695.62 2782.26,-695.62"/>
</g>
<!-- 48&#45;&gt;17 -->
<g id="edge64" class="edge">
<title>48&#45;&gt;17</title>
<path fill="none" stroke="black" d="M3894.64,-287.88C3916.38,-278.54 3943.52,-266.88 3966.79,-256.89"/>
<polygon fill="black" stroke="black" points="3967.97,-260.19 3975.78,-253.03 3965.21,-253.76 3967.97,-260.19"/>
</g>
<!-- 50 -->
<g id="node51" class="node">
<title>50</title>
<ellipse fill="none" stroke="black" cx="2778.76" cy="-810" rx="519.66" ry="18"/>
<text text-anchor="middle" x="2778.76" y="-804.95" font-family="Times New Roman,serif" font-size="14.00">Endurance: And, let&#39;s be honest, there&#39;s a little chest pain &#45;&#45; the *good* kind, of course. You may wanna blast a Nosaphed or something.</text>
</g>
<!-- 49&#45;&gt;50 -->
<g id="edge65" class="edge">
<title>49&#45;&gt;50</title>
<path fill="none" stroke="black" d="M2778.76,-863.7C2778.76,-856.41 2778.76,-847.73 2778.76,-839.54"/>
<polygon fill="black" stroke="black" points="2782.26,-839.62 2778.76,-829.62 2775.26,-839.62 2782.26,-839.62"/>
</g>
<!-- 50&#45;&gt;47 -->
<g id="edge66" class="edge">
<title>50&#45;&gt;47</title>
<path fill="none" stroke="black" d="M2778.76,-791.7C2778.76,-784.41 2778.76,-775.73 2778.76,-767.54"/>
<polygon fill="black" stroke="black" points="2782.26,-767.62 2778.76,-757.62 2775.26,-767.62 2782.26,-767.62"/>
</g>
<!-- 52&#45;&gt;36 -->
<g id="edge67" class="edge">
<title>52&#45;&gt;36</title>
<path fill="none" stroke="black" d="M3012.46,-145.25C2860.89,-131.63 2646.54,-112.37 2518.22,-100.84"/>
<polygon fill="black" stroke="black" points="2518.62,-97.36 2508.35,-99.95 2518,-104.33 2518.62,-97.36"/>
</g>
<!-- 53&#45;&gt;22 -->
<g id="edge68" class="edge">
<title>53&#45;&gt;22</title>
<path fill="none" stroke="black" d="M4411.34,-1278.51C4522.23,-1286.9 4630.67,-1299.64 4648.76,-1317.98 4672.64,-1342.2 4671.52,-1443.68 4669.37,-1494.17"/>
<polygon fill="black" stroke="black" points="4665.88,-1493.88 4668.9,-1504.03 4672.87,-1494.21 4665.88,-1493.88"/>
</g>
<!-- 55 -->
<g id="node55" class="node">
<title>55</title>
<polygon fill="none" stroke="black" points="2723.76,-540 2641.01,-522 2723.76,-504 2806.52,-522 2723.76,-540"/>
<text text-anchor="middle" x="2723.76" y="-516.95" font-family="Times New Roman,serif" font-size="14.00">IsKimHere()</text>
</g>
<!-- 54&#45;&gt;55 -->
<g id="edge70" class="edge">
<title>54&#45;&gt;55</title>
<path fill="none" stroke="black" d="M2765.45,-576.05C2758.58,-567.32 2750.09,-556.51 2742.57,-546.93"/>
<polygon fill="black" stroke="black" points="2745.33,-544.78 2736.4,-539.08 2739.82,-549.1 2745.33,-544.78"/>
</g>
<!-- 56 -->
<g id="node56" class="node">
<title>56</title>
<polygon fill="none" stroke="black" points="2992.76,-468 2896.98,-450 2992.76,-432 3088.55,-450 2992.76,-468"/>
<text text-anchor="middle" x="2992.76" y="-444.95" font-family="Times New Roman,serif" font-size="14.00">!(IsKimHere())</text>
</g>
<!-- 54&#45;&gt;56 -->
<g id="edge69" class="edge">
<title>54&#45;&gt;56</title>
<path fill="none" stroke="black" d="M2802.48,-577.26C2841.76,-551.2 2920.2,-499.15 2963.09,-470.69"/>
<polygon fill="black" stroke="black" points="2964.77,-473.78 2971.16,-465.33 2960.9,-467.95 2964.77,-473.78"/>
</g>
<!-- 55&#45;&gt;45 -->
<g id="edge71" class="edge">
<title>55&#45;&gt;45</title>
<path fill="none" stroke="black" d="M2697.49,-509.28C2675.29,-499.39 2642.91,-484.95 2615.92,-472.92"/>
<polygon fill="black" stroke="black" points="2617.44,-469.76 2606.88,-468.89 2614.59,-476.15 2617.44,-469.76"/>
</g>
<!-- 56&#45;&gt;33 -->
<g id="edge72" class="edge">
<title>56&#45;&gt;33</title>
<path fill="none" stroke="black" d="M2959.01,-437.91C2925.24,-426.81 2872.76,-409.56 2833.3,-396.59"/>
<polygon fill="black" stroke="black" points="2834.57,-393.33 2823.98,-393.53 2832.39,-399.98 2834.57,-393.33"/>
</g>
<!-- 57&#45;&gt;49 -->
<g id="edge73" class="edge">
<title>57&#45;&gt;49</title>
<path fill="none" stroke="black" d="M3050.42,-938.14C2993.68,-926.62 2927.93,-913.28 2875.34,-902.6"/>
<polygon fill="black" stroke="black" points="2876.3,-899.23 2865.8,-900.67 2874.91,-906.09 2876.3,-899.23"/>
</g>
</g>
</svg>
