<?xml version="1.0" encoding="UTF-8" standalone="no"?>
<!DOCTYPE svg PUBLIC "-//W3C//DTD SVG 1.1//EN"
 "http://www.w3.org/Graphics/SVG/1.1/DTD/svg11.dtd">
<!-- Generated by graphviz version 12.2.1 (20241206.2353)
 -->
<!-- Title: G Pages: 1 -->
<svg width="8589pt" height="1694pt"
 viewBox="0.00 0.00 8588.59 1693.95" xmlns="http://www.w3.org/2000/svg" xmlns:xlink="http://www.w3.org/1999/xlink">
<g id="graph0" class="graph" transform="scale(1 1) rotate(0) translate(4 1689.95)">
<title>G</title>
<polygon fill="white" stroke="none" points="-4,4 -4,-1689.95 8584.59,-1689.95 8584.59,4 -4,4"/>
<!-- 0 -->
<g id="node1" class="node">
<title>0</title>
<ellipse fill="none" stroke="black" cx="5752" cy="-1667.95" rx="39.07" ry="18"/>
<text text-anchor="middle" x="5752" y="-1662.9" font-family="Times New Roman,serif" font-size="14.00">START</text>
</g>
<!-- 1 -->
<g id="node2" class="node">
<title>1</title>
<ellipse fill="none" stroke="black" cx="5752" cy="-1595.95" rx="29.86" ry="18"/>
<text text-anchor="middle" x="5752" y="-1590.9" font-family="Times New Roman,serif" font-size="14.00">input</text>
</g>
<!-- 0&#45;&gt;1 -->
<g id="edge1" class="edge">
<title>0&#45;&gt;1</title>
<path fill="none" stroke="black" d="M5752,-1649.64C5752,-1642.35 5752,-1633.67 5752,-1625.48"/>
<polygon fill="black" stroke="black" points="5755.5,-1625.57 5752,-1615.57 5748.5,-1625.57 5755.5,-1625.57"/>
</g>
<!-- 28 -->
<g id="node29" class="node">
<title>28</title>
<ellipse fill="none" stroke="black" cx="5752" cy="-1523.95" rx="428.55" ry="18"/>
<text text-anchor="middle" x="5752" y="-1518.9" font-family="Times New Roman,serif" font-size="14.00">Electrochemistry: Now that you&#39;ve acquired some stimulants, it&#39;s time for a little pick&#45;me&#45;up. Time to *detect*.</text>
</g>
<!-- 1&#45;&gt;28 -->
<g id="edge2" class="edge">
<title>1&#45;&gt;28</title>
<path fill="none" stroke="black" d="M5752,-1577.64C5752,-1570.35 5752,-1561.67 5752,-1553.48"/>
<polygon fill="black" stroke="black" points="5755.5,-1553.57 5752,-1543.57 5748.5,-1553.57 5755.5,-1553.57"/>
</g>
<!-- 2 -->
<g id="node3" class="node">
<title>2</title>
<ellipse fill="none" stroke="black" cx="4372" cy="-1274.97" rx="131.71" ry="18"/>
<text text-anchor="middle" x="4372" y="-1269.92" font-family="Times New Roman,serif" font-size="14.00">CheckHeldRightGroup(&quot;speed&quot;)</text>
</g>
<!-- 3 -->
<g id="node4" class="node">
<title>3</title>
<polygon fill="none" stroke="black" points="3461,-1209.98 3274.74,-1191.98 3461,-1173.98 3647.26,-1191.98 3461,-1209.98"/>
<text text-anchor="middle" x="3461" y="-1186.93" font-family="Times New Roman,serif" font-size="14.00">CheckHeldRightGroup(&quot;speed&quot;)</text>
</g>
<!-- 2&#45;&gt;3 -->
<g id="edge3" class="edge">
<title>2&#45;&gt;3</title>
<path fill="none" stroke="black" d="M4263.92,-1264.37C4087.74,-1248.7 3740.86,-1217.86 3566.42,-1202.35"/>
<polygon fill="black" stroke="black" points="3566.96,-1198.89 3556.69,-1201.49 3566.34,-1205.86 3566.96,-1198.89"/>
</g>
<!-- 4 -->
<g id="node5" class="node">
<title>4</title>
<polygon fill="none" stroke="black" points="4372,-1209.98 4172.71,-1191.98 4372,-1173.98 4571.29,-1191.98 4372,-1209.98"/>
<text text-anchor="middle" x="4372" y="-1186.93" font-family="Times New Roman,serif" font-size="14.00">!(CheckHeldRightGroup(&quot;speed&quot;))</text>
</g>
<!-- 2&#45;&gt;4 -->
<g id="edge4" class="edge">
<title>2&#45;&gt;4</title>
<path fill="none" stroke="black" d="M4372,-1256.8C4372,-1246.67 4372,-1233.58 4372,-1221.9"/>
<polygon fill="black" stroke="black" points="4375.5,-1221.93 4372,-1211.93 4368.5,-1221.93 4375.5,-1221.93"/>
</g>
<!-- 40 -->
<g id="node41" class="node">
<title>40</title>
<ellipse fill="none" stroke="black" cx="2248" cy="-1119.98" rx="152.18" ry="18"/>
<text text-anchor="middle" x="2248" y="-1114.93" font-family="Times New Roman,serif" font-size="14.00">CheckEquipped(&quot;drug_speed_bottle&quot;)</text>
</g>
<!-- 3&#45;&gt;40 -->
<g id="edge5" class="edge">
<title>3&#45;&gt;40</title>
<path fill="none" stroke="black" d="M3347.7,-1184.44C3126.68,-1171.69 2638.26,-1143.5 2393.61,-1129.39"/>
<polygon fill="black" stroke="black" points="2393.84,-1125.89 2383.66,-1128.81 2393.44,-1132.88 2393.84,-1125.89"/>
</g>
<!-- 9 -->
<g id="node10" class="node">
<title>9</title>
<ellipse fill="none" stroke="black" cx="4372" cy="-1119.98" rx="152.18" ry="18"/>
<text text-anchor="middle" x="4372" y="-1114.93" font-family="Times New Roman,serif" font-size="14.00">CheckEquipped(&quot;drug_speed_bottle&quot;)</text>
</g>
<!-- 4&#45;&gt;9 -->
<g id="edge6" class="edge">
<title>4&#45;&gt;9</title>
<path fill="none" stroke="black" d="M4372,-1173.68C4372,-1166.39 4372,-1157.71 4372,-1149.52"/>
<polygon fill="black" stroke="black" points="4375.5,-1149.6 4372,-1139.6 4368.5,-1149.6 4375.5,-1149.6"/>
</g>
<!-- 5 -->
<g id="node6" class="node">
<title>5</title>
<ellipse fill="none" stroke="black" cx="2248" cy="-594" rx="224.85" ry="18"/>
<text text-anchor="middle" x="2248" y="-588.95" font-family="Times New Roman,serif" font-size="14.00">Composure: Whooh, this shit is strong. This shit is disco.</text>
</g>
<!-- 54 -->
<g id="node55" class="node">
<title>54</title>
<polygon fill="none" stroke="black" points="2248,-540 2165.24,-522 2248,-504 2330.76,-522 2248,-540"/>
<text text-anchor="middle" x="2248" y="-516.95" font-family="Times New Roman,serif" font-size="14.00">IsKimHere()</text>
</g>
<!-- 5&#45;&gt;54 -->
<g id="edge7" class="edge">
<title>5&#45;&gt;54</title>
<path fill="none" stroke="black" d="M2248,-575.7C2248,-568.41 2248,-559.73 2248,-551.54"/>
<polygon fill="black" stroke="black" points="2251.5,-551.62 2248,-541.62 2244.5,-551.62 2251.5,-551.62"/>
</g>
<!-- 6 -->
<g id="node7" class="node">
<title>6</title>
<ellipse fill="none" stroke="black" cx="7782" cy="-1191.98" rx="149.11" ry="18"/>
<text text-anchor="middle" x="7782" y="-1186.93" font-family="Times New Roman,serif" font-size="14.00">Variable[&quot;tc.turn_off_tutorial_node&quot;]</text>
</g>
<!-- 7 -->
<g id="node8" class="node">
<title>7</title>
<polygon fill="none" stroke="black" points="8008,-1137.98 7797.13,-1119.98 8008,-1101.98 8218.87,-1119.98 8008,-1137.98"/>
<text text-anchor="middle" x="8008" y="-1114.93" font-family="Times New Roman,serif" font-size="14.00">Variable[&quot;tc.turn_off_tutorial_node&quot;]</text>
</g>
<!-- 6&#45;&gt;7 -->
<g id="edge9" class="edge">
<title>6&#45;&gt;7</title>
<path fill="none" stroke="black" d="M7834.42,-1174.75C7869.99,-1163.73 7916.93,-1149.19 7953.02,-1138.01"/>
<polygon fill="black" stroke="black" points="7953.89,-1141.41 7962.41,-1135.1 7951.82,-1134.72 7953.89,-1141.41"/>
</g>
<!-- 8 -->
<g id="node9" class="node">
<title>8</title>
<polygon fill="none" stroke="black" points="7555,-1137.98 7331.1,-1119.98 7555,-1101.98 7778.9,-1119.98 7555,-1137.98"/>
<text text-anchor="middle" x="7555" y="-1114.93" font-family="Times New Roman,serif" font-size="14.00">!(Variable[&quot;tc.turn_off_tutorial_node&quot;])</text>
</g>
<!-- 6&#45;&gt;8 -->
<g id="edge8" class="edge">
<title>6&#45;&gt;8</title>
<path fill="none" stroke="black" d="M7729.35,-1174.75C7693.74,-1163.77 7646.79,-1149.29 7610.58,-1138.12"/>
<polygon fill="black" stroke="black" points="7611.75,-1134.82 7601.16,-1135.22 7609.68,-1141.51 7611.75,-1134.82"/>
</g>
<!-- 31 -->
<g id="node32" class="node">
<title>31</title>
<ellipse fill="none" stroke="black" cx="7555" cy="-1047.98" rx="566.23" ry="18"/>
<text text-anchor="middle" x="7555" y="-1042.93" font-family="Times New Roman,serif" font-size="14.00">Tutorial Agent: You&#39;ve passed up your chance to start using SPEED for now, but don&#39;t worry! The option to use it becomes available again in 1 hour.</text>
</g>
<!-- 8&#45;&gt;31 -->
<g id="edge10" class="edge">
<title>8&#45;&gt;31</title>
<path fill="none" stroke="black" d="M7555,-1101.68C7555,-1094.39 7555,-1085.71 7555,-1077.52"/>
<polygon fill="black" stroke="black" points="7558.5,-1077.6 7555,-1067.6 7551.5,-1077.6 7558.5,-1077.6"/>
</g>
<!-- 10 -->
<g id="node11" class="node">
<title>10</title>
<polygon fill="none" stroke="black" points="4607,-1065.98 4391.79,-1047.98 4607,-1029.98 4822.21,-1047.98 4607,-1065.98"/>
<text text-anchor="middle" x="4607" y="-1042.93" font-family="Times New Roman,serif" font-size="14.00">CheckEquipped(&quot;drug_speed_bottle&quot;)</text>
</g>
<!-- 9&#45;&gt;10 -->
<g id="edge11" class="edge">
<title>9&#45;&gt;10</title>
<path fill="none" stroke="black" d="M4426.5,-1102.75C4463.77,-1091.65 4513.05,-1076.97 4550.69,-1065.75"/>
<polygon fill="black" stroke="black" points="4551.45,-1069.18 4560.03,-1062.97 4549.45,-1062.47 4551.45,-1069.18"/>
</g>
<!-- 11 -->
<g id="node12" class="node">
<title>11</title>
<polygon fill="none" stroke="black" points="3902,-1065.98 3673.76,-1047.98 3902,-1029.98 4130.24,-1047.98 3902,-1065.98"/>
<text text-anchor="middle" x="3902" y="-1042.93" font-family="Times New Roman,serif" font-size="14.00">!(CheckEquipped(&quot;drug_speed_bottle&quot;))</text>
</g>
<!-- 9&#45;&gt;11 -->
<g id="edge12" class="edge">
<title>9&#45;&gt;11</title>
<path fill="none" stroke="black" d="M4279.98,-1105.28C4195.93,-1092.76 4072.49,-1074.38 3989.79,-1062.06"/>
<polygon fill="black" stroke="black" points="3990.55,-1058.63 3980.15,-1060.62 3989.52,-1065.56 3990.55,-1058.63"/>
</g>
<!-- 12 -->
<g id="node13" class="node">
<title>12</title>
<ellipse fill="none" stroke="black" cx="5086" cy="-975.98" rx="637.88" ry="18"/>
<text text-anchor="middle" x="5086" y="-970.93" font-family="Times New Roman,serif" font-size="14.00">Electrochemistry: You raise the bottle, close a nostril and inhale *furiously*. The rush is almost immediate. It tastes bitter and caustic, and stings a bit inside your nose.</text>
</g>
<!-- 10&#45;&gt;12 -->
<g id="edge13" class="edge">
<title>10&#45;&gt;12</title>
<path fill="none" stroke="black" d="M4683.16,-1035.85C4756.75,-1025.1 4869.63,-1008.6 4957.2,-995.81"/>
<polygon fill="black" stroke="black" points="4957.68,-999.27 4967.07,-994.36 4956.67,-992.35 4957.68,-999.27"/>
</g>
<!-- 18 -->
<g id="node19" class="node">
<title>18</title>
<ellipse fill="none" stroke="black" cx="3667" cy="-975.98" rx="762.76" ry="18"/>
<text text-anchor="middle" x="3667" y="-970.93" font-family="Times New Roman,serif" font-size="14.00">Electrochemistry: You raise the Preptide bottle, press one nostril closed, and inhale *furiously* with the other. The rush is almost immediate. It tastes bitter and caustic, and stings a bit inside your nose.</text>
</g>
<!-- 11&#45;&gt;18 -->
<g id="edge14" class="edge">
<title>11&#45;&gt;18</title>
<path fill="none" stroke="black" d="M3855.57,-1033.15C3821.46,-1022.99 3774.55,-1009.02 3736.05,-997.55"/>
<polygon fill="black" stroke="black" points="3737.46,-994.32 3726.88,-994.82 3735.46,-1001.03 3737.46,-994.32"/>
</g>
<!-- 21 -->
<g id="node22" class="node">
<title>21</title>
<ellipse fill="none" stroke="black" cx="2494" cy="-892.99" rx="83.6" ry="18"/>
<text text-anchor="middle" x="2494" y="-887.94" font-family="Times New Roman,serif" font-size="14.00">You: Mamma mia!</text>
</g>
<!-- 12&#45;&gt;21 -->
<g id="edge17" class="edge">
<title>12&#45;&gt;21</title>
<path fill="none" stroke="black" d="M4669.55,-961.97C4049.03,-942.58 2919.18,-907.28 2587.74,-896.92"/>
<polygon fill="black" stroke="black" points="2587.91,-893.42 2577.81,-896.61 2587.69,-900.42 2587.91,-893.42"/>
</g>
<!-- 34 -->
<g id="node35" class="node">
<title>34</title>
<ellipse fill="none" stroke="black" cx="2248" cy="-892.99" rx="72.34" ry="18"/>
<text text-anchor="middle" x="2248" y="-887.94" font-family="Times New Roman,serif" font-size="14.00">You: &quot;Hngfff...&quot;</text>
</g>
<!-- 12&#45;&gt;34 -->
<g id="edge16" class="edge">
<title>12&#45;&gt;34</title>
<path fill="none" stroke="black" d="M4640.51,-962.74C4573,-961.04 4504.16,-959.39 4439,-957.98 4204.58,-952.9 2559.9,-962.78 2329,-921.98 2317.57,-919.96 2305.59,-916.58 2294.45,-912.84"/>
<polygon fill="black" stroke="black" points="2295.66,-909.56 2285.07,-909.53 2293.34,-916.16 2295.66,-909.56"/>
</g>
<!-- 57 -->
<g id="node58" class="node">
<title>57</title>
<ellipse fill="none" stroke="black" cx="2365" cy="-892.99" rx="27" ry="18"/>
<text text-anchor="middle" x="2365" y="-887.94" font-family="Times New Roman,serif" font-size="14.00">57</text>
</g>
<!-- 12&#45;&gt;57 -->
<g id="edge15" class="edge">
<title>12&#45;&gt;57</title>
<path fill="none" stroke="black" d="M4640.08,-962.76C4572.7,-961.06 4504.02,-959.41 4439,-957.98 4325.79,-955.5 2507.78,-959.67 2401,-921.98 2396.67,-920.46 2392.46,-918.18 2388.53,-915.59"/>
<polygon fill="black" stroke="black" points="2390.73,-912.86 2380.65,-909.6 2386.49,-918.44 2390.73,-912.86"/>
</g>
<!-- 13 -->
<g id="node14" class="node">
<title>13</title>
<ellipse fill="none" stroke="black" cx="5148" cy="-1368.96" rx="243.79" ry="18"/>
<text text-anchor="middle" x="5148" y="-1363.91" font-family="Times New Roman,serif" font-size="14.00">You: Okay, my body is ready. Let&#39;s do this. (Try some speed.)</text>
</g>
<!-- 13&#45;&gt;2 -->
<g id="edge18" class="edge">
<title>13&#45;&gt;2</title>
<path fill="none" stroke="black" d="M5022.89,-1353.13C4872.63,-1335.32 4623.06,-1305.73 4480.57,-1288.84"/>
<polygon fill="black" stroke="black" points="4481.08,-1285.38 4470.73,-1287.68 4480.25,-1292.33 4481.08,-1285.38"/>
</g>
<!-- 14 -->
<g id="node15" class="node">
<title>14</title>
<ellipse fill="none" stroke="black" cx="3451" cy="-1274.97" rx="532.1" ry="28.99"/>
<text text-anchor="middle" x="3451" y="-1278.17" font-family="Times New Roman,serif" font-size="14.00">Electrochemistry: See, that&#39;s your problem &#45;&#45; a lack of confidence. Speed can help you with that. It can help you with EVERYTHING.</text>
<text text-anchor="middle" x="3451" y="-1261.67" font-family="Times New Roman,serif" font-size="14.00">See, that&#39;s your problem &#45;&#45; a lack of confidence. Speed can help you with that *and* Kim. It can help you with EVERYTHING.</text>
</g>
<!-- 53 -->
<g id="node54" class="node">
<title>53</title>
<ellipse fill="none" stroke="black" cx="982" cy="-1191.98" rx="58.52" ry="18"/>
<text text-anchor="middle" x="982" y="-1186.93" font-family="Times New Roman,serif" font-size="14.00">IsKimHere()</text>
</g>
<!-- 14&#45;&gt;53 -->
<g id="edge19" class="edge">
<title>14&#45;&gt;53</title>
<path fill="none" stroke="black" d="M3001.02,-1259.21C2386.75,-1239.06 1330.01,-1204.4 1051.13,-1195.25"/>
<polygon fill="black" stroke="black" points="1051.6,-1191.76 1041.49,-1194.93 1051.37,-1198.76 1051.6,-1191.76"/>
</g>
<!-- 15 -->
<g id="node16" class="node">
<title>15</title>
<ellipse fill="none" stroke="black" cx="2606" cy="-234" rx="330.29" ry="18"/>
<text text-anchor="middle" x="2606" y="-228.95" font-family="Times New Roman,serif" font-size="14.00">Electrochemistry: To *this*? You kidding?! There are downsides to *not* being on it.</text>
</g>
<!-- 52 -->
<g id="node53" class="node">
<title>52</title>
<ellipse fill="none" stroke="black" cx="4888" cy="-162" rx="418.32" ry="18"/>
<text text-anchor="middle" x="4888" y="-156.95" font-family="Times New Roman,serif" font-size="14.00">Jump to: [But you need the zeal. Let&#39;s face it, you&#39;re never going to finish this case without some extra help.]</text>
</g>
<!-- 15&#45;&gt;52 -->
<g id="edge20" class="edge">
<title>15&#45;&gt;52</title>
<path fill="none" stroke="black" d="M2836.41,-220.77C2873.06,-219.03 2910.57,-217.37 2946,-216 3487.62,-195.07 4114.53,-179.53 4506.2,-170.86"/>
<polygon fill="black" stroke="black" points="4506,-174.37 4515.92,-170.65 4505.84,-167.37 4506,-174.37"/>
</g>
<!-- 16 -->
<g id="node17" class="node">
<title>16</title>
<ellipse fill="none" stroke="black" cx="3212" cy="-18" rx="1058.08" ry="18"/>
<text text-anchor="middle" x="3212" y="-12.95" font-family="Times New Roman,serif" font-size="14.00">Tutorial Agent: In the bottom right corner of the screen there&#39;s a SPEED button! SPEED gives +1 to MOTORIC skills: Perception, Reaction Speed, Hand/Eye Coordination, Savoir Faire, Interfacing, and Composure. This is good before a White Check &#45;&#45; but damages your Morale.</text>
</g>
<!-- 17 -->
<g id="node18" class="node">
<title>17</title>
<ellipse fill="none" stroke="black" cx="3439" cy="-234" rx="484.34" ry="18"/>
<text text-anchor="middle" x="3439" y="-228.95" font-family="Times New Roman,serif" font-size="14.00">Electrochemistry: Spring&#45;spring! Everything is clear around you. You&#39;re ready to concentrate on the next task in the task chain.</text>
</g>
<!-- 37 -->
<g id="node38" class="node">
<title>37</title>
<ellipse fill="none" stroke="black" cx="3439" cy="-162" rx="149.11" ry="18"/>
<text text-anchor="middle" x="3439" y="-156.95" font-family="Times New Roman,serif" font-size="14.00">Variable[&quot;tc.turn_off_tutorial_node&quot;]</text>
</g>
<!-- 17&#45;&gt;37 -->
<g id="edge21" class="edge">
<title>17&#45;&gt;37</title>
<path fill="none" stroke="black" d="M3439,-215.7C3439,-208.41 3439,-199.73 3439,-191.54"/>
<polygon fill="black" stroke="black" points="3442.5,-191.62 3439,-181.62 3435.5,-191.62 3442.5,-191.62"/>
</g>
<!-- 18&#45;&gt;21 -->
<g id="edge24" class="edge">
<title>18&#45;&gt;21</title>
<path fill="none" stroke="black" d="M3427.15,-958.42C3166.15,-940.4 2762.31,-912.52 2583.93,-900.2"/>
<polygon fill="black" stroke="black" points="2584.24,-896.71 2574.02,-899.52 2583.76,-903.7 2584.24,-896.71"/>
</g>
<!-- 18&#45;&gt;34 -->
<g id="edge23" class="edge">
<title>18&#45;&gt;34</title>
<path fill="none" stroke="black" d="M3162.8,-962.11C2818.59,-952.1 2410.67,-937.37 2329,-921.98 2317.7,-919.86 2305.85,-916.46 2294.8,-912.76"/>
<polygon fill="black" stroke="black" points="2296.1,-909.51 2285.5,-909.5 2293.78,-916.11 2296.1,-909.51"/>
</g>
<!-- 18&#45;&gt;57 -->
<g id="edge22" class="edge">
<title>18&#45;&gt;57</title>
<path fill="none" stroke="black" d="M3185.76,-961.63C2843.78,-951.04 2438.63,-935.78 2401,-921.98 2396.69,-920.4 2392.49,-918.1 2388.56,-915.49"/>
<polygon fill="black" stroke="black" points="2390.76,-912.77 2380.68,-909.5 2386.53,-918.34 2390.76,-912.77"/>
</g>
<!-- 19 -->
<g id="node20" class="node">
<title>19</title>
<ellipse fill="none" stroke="black" cx="6392" cy="-1274.97" rx="573.91" ry="18"/>
<text text-anchor="middle" x="6392" y="-1269.92" font-family="Times New Roman,serif" font-size="14.00">Electrochemistry: It will make you into *more* than that &#45;&#45; a Megacop! This is your modus operandi. This is how you&#39;ve done it for *years*. Let&#39;s go!</text>
</g>
<!-- 27 -->
<g id="node28" class="node">
<title>27</title>
<ellipse fill="none" stroke="black" cx="6295" cy="-1191.98" rx="418.32" ry="18"/>
<text text-anchor="middle" x="6295" y="-1186.93" font-family="Times New Roman,serif" font-size="14.00">Jump to: [But you need the zeal. Let&#39;s face it, you&#39;re never going to finish this case without some extra help.]</text>
</g>
<!-- 19&#45;&gt;27 -->
<g id="edge25" class="edge">
<title>19&#45;&gt;27</title>
<path fill="none" stroke="black" d="M6371.43,-1256.8C6357.76,-1245.39 6339.6,-1230.23 6324.42,-1217.55"/>
<polygon fill="black" stroke="black" points="6326.96,-1215.11 6317.04,-1211.38 6322.47,-1220.48 6326.96,-1215.11"/>
</g>
<!-- 20 -->
<g id="node21" class="node">
<title>20</title>
<ellipse fill="none" stroke="black" cx="1834" cy="-234" rx="386.07" ry="18"/>
<text text-anchor="middle" x="1834" y="-228.95" font-family="Times New Roman,serif" font-size="14.00">Kim Kitsuragi: &quot;I&#39;m not your mother.&quot; He avoids your gaze. &quot;I don&#39;t care. Do what you have to do.&quot;</text>
</g>
<!-- 44 -->
<g id="node45" class="node">
<title>44</title>
<ellipse fill="none" stroke="black" cx="1855" cy="-162" rx="344.11" ry="18"/>
<text text-anchor="middle" x="1855" y="-156.95" font-family="Times New Roman,serif" font-size="14.00">Esprit de Corps: As long as you remain functional, he thinks. Now let&#39;s get back to work.</text>
</g>
<!-- 20&#45;&gt;44 -->
<g id="edge26" class="edge">
<title>20&#45;&gt;44</title>
<path fill="none" stroke="black" d="M1839.19,-215.7C1841.43,-208.24 1844.1,-199.32 1846.61,-190.97"/>
<polygon fill="black" stroke="black" points="1849.91,-192.14 1849.43,-181.55 1843.21,-190.13 1849.91,-192.14"/>
</g>
<!-- 49 -->
<g id="node50" class="node">
<title>49</title>
<ellipse fill="none" stroke="black" cx="2248" cy="-810" rx="786.31" ry="18"/>
<text text-anchor="middle" x="2248" y="-804.95" font-family="Times New Roman,serif" font-size="14.00">Electrochemistry: Now the taste is slowly receding into your throat... The rush is growing in intensity, your little heart pounding like a bird in a cage. A sweat breaks out across your brow, your jaw clenches...</text>
</g>
<!-- 21&#45;&gt;49 -->
<g id="edge27" class="edge">
<title>21&#45;&gt;49</title>
<path fill="none" stroke="black" d="M2449.45,-877.32C2410.9,-864.63 2354.71,-846.13 2311.46,-831.89"/>
<polygon fill="black" stroke="black" points="2312.8,-828.65 2302.2,-828.85 2310.61,-835.3 2312.8,-828.65"/>
</g>
<!-- 22 -->
<g id="node23" class="node">
<title>22</title>
<ellipse fill="none" stroke="black" cx="5752" cy="-1451.95" rx="376.86" ry="18"/>
<text text-anchor="middle" x="5752" y="-1446.9" font-family="Times New Roman,serif" font-size="14.00">But you need the zeal. Let&#39;s face it, you&#39;re never going to finish this case without some extra help.</text>
</g>
<!-- 22&#45;&gt;13 -->
<g id="edge29" class="edge">
<title>22&#45;&gt;13</title>
<path fill="none" stroke="black" d="M5629.04,-1434.46C5525.46,-1420.57 5377.9,-1400.78 5273.58,-1386.8"/>
<polygon fill="black" stroke="black" points="5274.23,-1383.35 5263.85,-1385.49 5273.3,-1390.29 5274.23,-1383.35"/>
</g>
<!-- 23 -->
<g id="node24" class="node">
<title>23</title>
<ellipse fill="none" stroke="black" cx="2280" cy="-1368.96" rx="216.67" ry="18"/>
<text text-anchor="middle" x="2280" y="-1363.91" font-family="Times New Roman,serif" font-size="14.00">You: This is gonna be really bad for my health, isn&#39;t it?</text>
</g>
<!-- 22&#45;&gt;23 -->
<g id="edge31" class="edge">
<title>22&#45;&gt;23</title>
<path fill="none" stroke="black" d="M5419.88,-1443.2C4715.07,-1426.76 3086.13,-1388.76 2497.33,-1375.03"/>
<polygon fill="black" stroke="black" points="2497.76,-1371.54 2487.68,-1374.8 2497.6,-1378.53 2497.76,-1371.54"/>
</g>
<!-- 29 -->
<g id="node30" class="node">
<title>29</title>
<ellipse fill="none" stroke="black" cx="6183" cy="-1368.96" rx="157.3" ry="18"/>
<text text-anchor="middle" x="6183" y="-1363.91" font-family="Times New Roman,serif" font-size="14.00">You: Will it make me into a Supercop?</text>
</g>
<!-- 22&#45;&gt;29 -->
<g id="edge32" class="edge">
<title>22&#45;&gt;29</title>
<path fill="none" stroke="black" d="M5842.09,-1434.02C5915.56,-1420.21 6018.85,-1400.8 6092.45,-1386.97"/>
<polygon fill="black" stroke="black" points="6092.87,-1390.46 6102.05,-1385.17 6091.58,-1383.58 6092.87,-1390.46"/>
</g>
<!-- 43 -->
<g id="node44" class="node">
<title>43</title>
<ellipse fill="none" stroke="black" cx="4033" cy="-1368.96" rx="187.91" ry="28.99"/>
<text text-anchor="middle" x="4033" y="-1372.16" font-family="Times New Roman,serif" font-size="14.00">You: What... but right *here*? Now?</text>
<text text-anchor="middle" x="4033" y="-1355.66" font-family="Times New Roman,serif" font-size="14.00">Wait, but Kim is here. He&#39;ll be dissappointed.</text>
</g>
<!-- 22&#45;&gt;43 -->
<g id="edge28" class="edge">
<title>22&#45;&gt;43</title>
<path fill="none" stroke="black" d="M5490.45,-1438.63C5141.26,-1422.17 4531.06,-1393.42 4222.77,-1378.9"/>
<polygon fill="black" stroke="black" points="4223.15,-1375.41 4213,-1378.44 4222.82,-1382.4 4223.15,-1375.41"/>
</g>
<!-- 46 -->
<g id="node47" class="node">
<title>46</title>
<ellipse fill="none" stroke="black" cx="7162" cy="-1368.96" rx="183.91" ry="18"/>
<text text-anchor="middle" x="7162" y="-1363.91" font-family="Times New Roman,serif" font-size="14.00">You: I&#39;m not doing this now. [Ignore thought.]</text>
</g>
<!-- 22&#45;&gt;46 -->
<g id="edge30" class="edge">
<title>22&#45;&gt;46</title>
<path fill="none" stroke="black" d="M5986.42,-1437.48C6271.29,-1421.12 6744.82,-1393.92 6995.11,-1379.54"/>
<polygon fill="black" stroke="black" points="6995.2,-1383.04 7004.98,-1378.98 6994.79,-1376.06 6995.2,-1383.04"/>
</g>
<!-- 32 -->
<g id="node33" class="node">
<title>32</title>
<ellipse fill="none" stroke="black" cx="1936" cy="-1274.97" rx="487.41" ry="18"/>
<text text-anchor="middle" x="1936" y="-1269.92" font-family="Times New Roman,serif" font-size="14.00">Electrochemistry: It&#39;s not ideal, no... But you need the zeal. Let&#39;s face it, you&#39;re never going to finish this case without cheating.</text>
</g>
<!-- 23&#45;&gt;32 -->
<g id="edge33" class="edge">
<title>23&#45;&gt;32</title>
<path fill="none" stroke="black" d="M2217.7,-1351.3C2159.8,-1335.82 2073.44,-1312.72 2011.61,-1296.19"/>
<polygon fill="black" stroke="black" points="2012.78,-1292.88 2002.21,-1293.68 2010.97,-1299.64 2012.78,-1292.88"/>
</g>
<!-- 24 -->
<g id="node25" class="node">
<title>24</title>
<ellipse fill="none" stroke="black" cx="2248" cy="-975.98" rx="637.88" ry="18"/>
<text text-anchor="middle" x="2248" y="-970.93" font-family="Times New Roman,serif" font-size="14.00">Electrochemistry: You raise the bottle, close a nostril and inhale *furiously*. The rush is almost immediate. It tastes bitter and caustic, and stings a bit inside your nose.</text>
</g>
<!-- 24&#45;&gt;21 -->
<g id="edge36" class="edge">
<title>24&#45;&gt;21</title>
<path fill="none" stroke="black" d="M2300.77,-957.61C2341.47,-944.21 2397.58,-925.74 2438.86,-912.15"/>
<polygon fill="black" stroke="black" points="2439.71,-915.55 2448.11,-909.1 2437.52,-908.9 2439.71,-915.55"/>
</g>
<!-- 24&#45;&gt;34 -->
<g id="edge35" class="edge">
<title>24&#45;&gt;34</title>
<path fill="none" stroke="black" d="M2248,-957.81C2248,-947.67 2248,-934.59 2248,-922.91"/>
<polygon fill="black" stroke="black" points="2251.5,-922.94 2248,-912.94 2244.5,-922.94 2251.5,-922.94"/>
</g>
<!-- 24&#45;&gt;57 -->
<g id="edge34" class="edge">
<title>24&#45;&gt;57</title>
<path fill="none" stroke="black" d="M2275.74,-957.62C2291.56,-947.53 2311.63,-934.39 2329,-921.98 2332.42,-919.54 2335.98,-916.9 2339.46,-914.26"/>
<polygon fill="black" stroke="black" points="2341.39,-917.19 2347.17,-908.31 2337.11,-911.65 2341.39,-917.19"/>
</g>
<!-- 25 -->
<g id="node26" class="node">
<title>25</title>
<ellipse fill="none" stroke="black" cx="829" cy="-975.98" rx="762.76" ry="18"/>
<text text-anchor="middle" x="829" y="-970.93" font-family="Times New Roman,serif" font-size="14.00">Electrochemistry: You raise the Preptide bottle, press one nostril closed, and inhale *furiously* with the other. The rush is almost immediate. It tastes bitter and caustic, and stings a bit inside your nose.</text>
</g>
<!-- 25&#45;&gt;21 -->
<g id="edge39" class="edge">
<title>25&#45;&gt;21</title>
<path fill="none" stroke="black" d="M1383.76,-963.29C1795.34,-953.42 2301.68,-938.32 2401,-921.98 2414.39,-919.78 2428.55,-916.2 2441.67,-912.32"/>
<polygon fill="black" stroke="black" points="2442.44,-915.74 2450.97,-909.46 2440.38,-909.05 2442.44,-915.74"/>
</g>
<!-- 25&#45;&gt;34 -->
<g id="edge38" class="edge">
<title>25&#45;&gt;34</title>
<path fill="none" stroke="black" d="M1112.32,-958.81C1441.92,-940 1966.46,-910.06 2166.69,-898.63"/>
<polygon fill="black" stroke="black" points="2166.69,-902.14 2176.47,-898.07 2166.29,-895.15 2166.69,-902.14"/>
</g>
<!-- 25&#45;&gt;57 -->
<g id="edge37" class="edge">
<title>25&#45;&gt;57</title>
<path fill="none" stroke="black" d="M1384.86,-963.32C1792.96,-953.46 2283.85,-938.37 2329,-921.98 2333.31,-920.42 2337.52,-918.13 2341.45,-915.52"/>
<polygon fill="black" stroke="black" points="2343.48,-918.37 2349.33,-909.53 2339.25,-912.79 2343.48,-918.37"/>
</g>
<!-- 26 -->
<g id="node27" class="node">
<title>26</title>
<ellipse fill="none" stroke="black" cx="7782" cy="-1274.97" rx="798.59" ry="18"/>
<text text-anchor="middle" x="7782" y="-1269.92" font-family="Times New Roman,serif" font-size="14.00">Electrochemistry: This is so unprofessional of you. Think you can ignore this &#45;&#45; your *moral compass* telling you to sniff it? Guess again &#45;&#45; you&#39;ll be back here soon. You&#39;ll get the chance to choose more wisely.</text>
</g>
<!-- 26&#45;&gt;6 -->
<g id="edge40" class="edge">
<title>26&#45;&gt;6</title>
<path fill="none" stroke="black" d="M7782,-1256.8C7782,-1246.67 7782,-1233.58 7782,-1221.9"/>
<polygon fill="black" stroke="black" points="7785.5,-1221.93 7782,-1211.93 7778.5,-1221.93 7785.5,-1221.93"/>
</g>
<!-- 27&#45;&gt;22 -->
<g id="edge41" class="edge">
<title>27&#45;&gt;22</title>
<path fill="none" stroke="black" d="M6056.27,-1207.17C5943.48,-1216.01 5829.03,-1228.97 5809,-1245.98 5807.28,-1247.45 5774.76,-1366.88 5759.63,-1422.74"/>
<polygon fill="black" stroke="black" points="5756.31,-1421.6 5757.08,-1432.16 5763.07,-1423.43 5756.31,-1421.6"/>
</g>
<!-- 28&#45;&gt;22 -->
<g id="edge42" class="edge">
<title>28&#45;&gt;22</title>
<path fill="none" stroke="black" d="M5752,-1505.64C5752,-1498.35 5752,-1489.67 5752,-1481.48"/>
<polygon fill="black" stroke="black" points="5755.5,-1481.57 5752,-1471.57 5748.5,-1481.57 5755.5,-1481.57"/>
</g>
<!-- 29&#45;&gt;19 -->
<g id="edge43" class="edge">
<title>29&#45;&gt;19</title>
<path fill="none" stroke="black" d="M6221.33,-1351.09C6255.37,-1336.11 6305.32,-1314.12 6342.4,-1297.8"/>
<polygon fill="black" stroke="black" points="6343.36,-1301.2 6351.1,-1293.97 6340.54,-1294.8 6343.36,-1301.2"/>
</g>
<!-- 30 -->
<g id="node31" class="node">
<title>30</title>
<ellipse fill="none" stroke="black" cx="1859" cy="-306" rx="337.45" ry="18"/>
<text text-anchor="middle" x="1859" y="-300.95" font-family="Times New Roman,serif" font-size="14.00">You: &quot;Kim, I did a little speed. I hope you don&#39;t mind. It was for professional reasons.&quot;</text>
</g>
<!-- 30&#45;&gt;20 -->
<g id="edge44" class="edge">
<title>30&#45;&gt;20</title>
<path fill="none" stroke="black" d="M1852.82,-287.7C1850.13,-280.15 1846.9,-271.12 1843.89,-262.68"/>
<polygon fill="black" stroke="black" points="1847.28,-261.77 1840.62,-253.53 1840.69,-264.12 1847.28,-261.77"/>
</g>
<!-- 32&#45;&gt;53 -->
<g id="edge45" class="edge">
<title>32&#45;&gt;53</title>
<path fill="none" stroke="black" d="M1746.95,-1257.92C1531.96,-1239.67 1192.26,-1210.83 1049.12,-1198.68"/>
<polygon fill="black" stroke="black" points="1049.69,-1195.22 1039.43,-1197.86 1049.1,-1202.19 1049.69,-1195.22"/>
</g>
<!-- 33 -->
<g id="node34" class="node">
<title>33</title>
<ellipse fill="none" stroke="black" cx="2248" cy="-378" rx="73.87" ry="18"/>
<text text-anchor="middle" x="2248" y="-372.95" font-family="Times New Roman,serif" font-size="14.00">did_not_fuck_up</text>
</g>
<!-- 33&#45;&gt;30 -->
<g id="edge48" class="edge">
<title>33&#45;&gt;30</title>
<path fill="none" stroke="black" d="M2189.76,-366.52C2129.99,-355.76 2035.71,-338.8 1963.07,-325.73"/>
<polygon fill="black" stroke="black" points="1964.02,-322.34 1953.55,-324.01 1962.78,-329.23 1964.02,-322.34"/>
</g>
<!-- 35 -->
<g id="node36" class="node">
<title>35</title>
<ellipse fill="none" stroke="black" cx="2555" cy="-306" rx="228.44" ry="18"/>
<text text-anchor="middle" x="2555" y="-300.95" font-family="Times New Roman,serif" font-size="14.00">You: Feels great. Are there *any* downsides to this at all?</text>
</g>
<!-- 33&#45;&gt;35 -->
<g id="edge47" class="edge">
<title>33&#45;&gt;35</title>
<path fill="none" stroke="black" d="M2300.78,-364.97C2347.69,-354.27 2417.08,-338.45 2471.51,-326.04"/>
<polygon fill="black" stroke="black" points="2472.09,-329.49 2481.06,-323.86 2470.53,-322.67 2472.09,-329.49"/>
</g>
<!-- 48 -->
<g id="node49" class="node">
<title>48</title>
<ellipse fill="none" stroke="black" cx="3251" cy="-306" rx="261.19" ry="18"/>
<text text-anchor="middle" x="3251" y="-300.95" font-family="Times New Roman,serif" font-size="14.00">You: Cool, cool, let&#39;s boogie. [Finish thought and spring to action.]</text>
</g>
<!-- 33&#45;&gt;48 -->
<g id="edge46" class="edge">
<title>33&#45;&gt;48</title>
<path fill="none" stroke="black" d="M2318.13,-372.11C2470.34,-361.48 2835.39,-336.01 3061.06,-320.26"/>
<polygon fill="black" stroke="black" points="3061.13,-323.76 3070.86,-319.57 3060.64,-316.78 3061.13,-323.76"/>
</g>
<!-- 34&#45;&gt;49 -->
<g id="edge49" class="edge">
<title>34&#45;&gt;49</title>
<path fill="none" stroke="black" d="M2248,-874.82C2248,-864.68 2248,-851.6 2248,-839.91"/>
<polygon fill="black" stroke="black" points="2251.5,-839.94 2248,-829.94 2244.5,-839.94 2251.5,-839.94"/>
</g>
<!-- 35&#45;&gt;15 -->
<g id="edge50" class="edge">
<title>35&#45;&gt;15</title>
<path fill="none" stroke="black" d="M2567.61,-287.7C2573.41,-279.73 2580.43,-270.1 2586.86,-261.26"/>
<polygon fill="black" stroke="black" points="2589.59,-263.47 2592.65,-253.33 2583.93,-259.35 2589.59,-263.47"/>
</g>
<!-- 36 -->
<g id="node37" class="node">
<title>36</title>
<ellipse fill="none" stroke="black" cx="1855" cy="-90" rx="115.33" ry="18"/>
<text text-anchor="middle" x="1855" y="-84.95" font-family="Times New Roman,serif" font-size="14.00">Jump to: [did_not_fuck_up]</text>
</g>
<!-- 36&#45;&gt;33 -->
<g id="edge51" class="edge">
<title>36&#45;&gt;33</title>
<path fill="none" stroke="black" d="M1966.66,-94.9C2056.28,-100.31 2172.76,-113.22 2208,-144 2266.54,-195.14 2260.36,-298.13 2253.18,-348.27"/>
<polygon fill="black" stroke="black" points="2249.73,-347.62 2251.65,-358.04 2256.65,-348.7 2249.73,-347.62"/>
</g>
<!-- 38 -->
<g id="node39" class="node">
<title>38</title>
<polygon fill="none" stroke="black" points="3665,-108 3454.13,-90 3665,-72 3875.87,-90 3665,-108"/>
<text text-anchor="middle" x="3665" y="-84.95" font-family="Times New Roman,serif" font-size="14.00">Variable[&quot;tc.turn_off_tutorial_node&quot;]</text>
</g>
<!-- 37&#45;&gt;38 -->
<g id="edge52" class="edge">
<title>37&#45;&gt;38</title>
<path fill="none" stroke="black" d="M3491.42,-144.76C3526.99,-133.75 3573.93,-119.21 3610.02,-108.03"/>
<polygon fill="black" stroke="black" points="3610.89,-111.42 3619.41,-105.12 3608.82,-104.74 3610.89,-111.42"/>
</g>
<!-- 39 -->
<g id="node40" class="node">
<title>39</title>
<polygon fill="none" stroke="black" points="3212,-108 2988.1,-90 3212,-72 3435.9,-90 3212,-108"/>
<text text-anchor="middle" x="3212" y="-84.95" font-family="Times New Roman,serif" font-size="14.00">!(Variable[&quot;tc.turn_off_tutorial_node&quot;])</text>
</g>
<!-- 37&#45;&gt;39 -->
<g id="edge53" class="edge">
<title>37&#45;&gt;39</title>
<path fill="none" stroke="black" d="M3386.35,-144.76C3350.74,-133.78 3303.79,-119.31 3267.58,-108.14"/>
<polygon fill="black" stroke="black" points="3268.75,-104.84 3258.16,-105.23 3266.68,-111.53 3268.75,-104.84"/>
</g>
<!-- 39&#45;&gt;16 -->
<g id="edge54" class="edge">
<title>39&#45;&gt;16</title>
<path fill="none" stroke="black" d="M3212,-71.7C3212,-64.41 3212,-55.73 3212,-47.54"/>
<polygon fill="black" stroke="black" points="3215.5,-47.62 3212,-37.62 3208.5,-47.62 3215.5,-47.62"/>
</g>
<!-- 41 -->
<g id="node42" class="node">
<title>41</title>
<polygon fill="none" stroke="black" points="2248,-1065.98 2032.79,-1047.98 2248,-1029.98 2463.21,-1047.98 2248,-1065.98"/>
<text text-anchor="middle" x="2248" y="-1042.93" font-family="Times New Roman,serif" font-size="14.00">CheckEquipped(&quot;drug_speed_bottle&quot;)</text>
</g>
<!-- 40&#45;&gt;41 -->
<g id="edge55" class="edge">
<title>40&#45;&gt;41</title>
<path fill="none" stroke="black" d="M2248,-1101.68C2248,-1094.39 2248,-1085.71 2248,-1077.52"/>
<polygon fill="black" stroke="black" points="2251.5,-1077.6 2248,-1067.6 2244.5,-1077.6 2251.5,-1077.6"/>
</g>
<!-- 42 -->
<g id="node43" class="node">
<title>42</title>
<polygon fill="none" stroke="black" points="1308,-1065.98 1079.76,-1047.98 1308,-1029.98 1536.24,-1047.98 1308,-1065.98"/>
<text text-anchor="middle" x="1308" y="-1042.93" font-family="Times New Roman,serif" font-size="14.00">!(CheckEquipped(&quot;drug_speed_bottle&quot;))</text>
</g>
<!-- 40&#45;&gt;42 -->
<g id="edge56" class="edge">
<title>40&#45;&gt;42</title>
<path fill="none" stroke="black" d="M2122.2,-1109.61C1942.21,-1096.21 1613.13,-1071.71 1433.38,-1058.32"/>
<polygon fill="black" stroke="black" points="1433.76,-1054.84 1423.53,-1057.59 1433.24,-1061.82 1433.76,-1054.84"/>
</g>
<!-- 41&#45;&gt;24 -->
<g id="edge57" class="edge">
<title>41&#45;&gt;24</title>
<path fill="none" stroke="black" d="M2248,-1029.68C2248,-1022.39 2248,-1013.71 2248,-1005.52"/>
<polygon fill="black" stroke="black" points="2251.5,-1005.6 2248,-995.6 2244.5,-1005.6 2251.5,-1005.6"/>
</g>
<!-- 42&#45;&gt;25 -->
<g id="edge58" class="edge">
<title>42&#45;&gt;25</title>
<path fill="none" stroke="black" d="M1230.24,-1035.62C1156.76,-1024.88 1045.15,-1008.57 958.29,-995.88"/>
<polygon fill="black" stroke="black" points="958.91,-992.43 948.51,-994.45 957.9,-999.36 958.91,-992.43"/>
</g>
<!-- 43&#45;&gt;14 -->
<g id="edge59" class="edge">
<title>43&#45;&gt;14</title>
<path fill="none" stroke="black" d="M3903.84,-1347.54C3824.03,-1334.93 3720.41,-1318.55 3632.44,-1304.65"/>
<polygon fill="black" stroke="black" points="3633.16,-1301.22 3622.73,-1303.12 3632.07,-1308.13 3633.16,-1301.22"/>
</g>
<!-- 44&#45;&gt;36 -->
<g id="edge60" class="edge">
<title>44&#45;&gt;36</title>
<path fill="none" stroke="black" d="M1855,-143.7C1855,-136.41 1855,-127.73 1855,-119.54"/>
<polygon fill="black" stroke="black" points="1858.5,-119.62 1855,-109.62 1851.5,-119.62 1858.5,-119.62"/>
</g>
<!-- 45 -->
<g id="node46" class="node">
<title>45</title>
<ellipse fill="none" stroke="black" cx="2248" cy="-450" rx="311.86" ry="18"/>
<text text-anchor="middle" x="2248" y="-444.95" font-family="Times New Roman,serif" font-size="14.00">Suggestion: Time for a little truth. Tell the lieutenant you did some, clear the air.</text>
</g>
<!-- 45&#45;&gt;33 -->
<g id="edge61" class="edge">
<title>45&#45;&gt;33</title>
<path fill="none" stroke="black" d="M2248,-431.7C2248,-424.41 2248,-415.73 2248,-407.54"/>
<polygon fill="black" stroke="black" points="2251.5,-407.62 2248,-397.62 2244.5,-407.62 2251.5,-407.62"/>
</g>
<!-- 46&#45;&gt;26 -->
<g id="edge62" class="edge">
<title>46&#45;&gt;26</title>
<path fill="none" stroke="black" d="M7260.58,-1353.33C7367.24,-1337.51 7537.68,-1312.22 7654.47,-1294.89"/>
<polygon fill="black" stroke="black" points="7654.73,-1298.39 7664.11,-1293.46 7653.7,-1291.47 7654.73,-1298.39"/>
</g>
<!-- 47 -->
<g id="node48" class="node">
<title>47</title>
<ellipse fill="none" stroke="black" cx="2248" cy="-666" rx="937.8" ry="18"/>
<text text-anchor="middle" x="2248" y="-660.95" font-family="Times New Roman,serif" font-size="14.00">Logic: Hmmm, you could work with this high... Like, literally *work*: Solve the case, file some papers. Maybe clean up your hostel room, then solve *another* case, then start a side investigation into the para&#45;natural, then build a radiocomputer...</text>
</g>
<!-- 47&#45;&gt;5 -->
<g id="edge63" class="edge">
<title>47&#45;&gt;5</title>
<path fill="none" stroke="black" d="M2248,-647.7C2248,-640.41 2248,-631.73 2248,-623.54"/>
<polygon fill="black" stroke="black" points="2251.5,-623.62 2248,-613.62 2244.5,-623.62 2251.5,-623.62"/>
</g>
<!-- 48&#45;&gt;17 -->
<g id="edge64" class="edge">
<title>48&#45;&gt;17</title>
<path fill="none" stroke="black" d="M3296.99,-287.88C3322.61,-278.34 3354.74,-266.37 3381.96,-256.24"/>
<polygon fill="black" stroke="black" points="3382.94,-259.61 3391.09,-252.84 3380.5,-253.05 3382.94,-259.61"/>
</g>
<!-- 50 -->
<g id="node51" class="node">
<title>50</title>
<ellipse fill="none" stroke="black" cx="2248" cy="-738" rx="519.66" ry="18"/>
<text text-anchor="middle" x="2248" y="-732.95" font-family="Times New Roman,serif" font-size="14.00">Endurance: And, let&#39;s be honest, there&#39;s a little chest pain &#45;&#45; the *good* kind, of course. You may wanna blast a Nosaphed or something.</text>
</g>
<!-- 49&#45;&gt;50 -->
<g id="edge65" class="edge">
<title>49&#45;&gt;50</title>
<path fill="none" stroke="black" d="M2248,-791.7C2248,-784.41 2248,-775.73 2248,-767.54"/>
<polygon fill="black" stroke="black" points="2251.5,-767.62 2248,-757.62 2244.5,-767.62 2251.5,-767.62"/>
</g>
<!-- 50&#45;&gt;47 -->
<g id="edge66" class="edge">
<title>50&#45;&gt;47</title>
<path fill="none" stroke="black" d="M2248,-719.7C2248,-712.41 2248,-703.73 2248,-695.54"/>
<polygon fill="black" stroke="black" points="2251.5,-695.62 2248,-685.62 2244.5,-695.62 2251.5,-695.62"/>
</g>
<!-- 51 -->
<g id="node52" class="node">
<title>51</title>
<ellipse fill="none" stroke="black" cx="1076" cy="-162" rx="416.78" ry="18"/>
<text text-anchor="middle" x="1076" y="-156.95" font-family="Times New Roman,serif" font-size="14.00">Volition: There are *massive* downsides. It&#39;s a potent neurotoxin. You&#39;re turning yourself into a frayed idiot.</text>
</g>
<!-- 51&#45;&gt;36 -->
<g id="edge67" class="edge">
<title>51&#45;&gt;36</title>
<path fill="none" stroke="black" d="M1251.31,-145.25C1402.87,-131.63 1617.23,-112.37 1745.54,-100.84"/>
<polygon fill="black" stroke="black" points="1745.77,-104.33 1755.41,-99.95 1745.14,-97.36 1745.77,-104.33"/>
</g>
<!-- 52&#45;&gt;22 -->
<g id="edge68" class="edge">
<title>52&#45;&gt;22</title>
<path fill="none" stroke="black" d="M5106.58,-177.76C5362.54,-198.06 5752,-239.68 5752,-305 5752,-1275.97 5752,-1275.97 5752,-1275.97 5752,-1327.6 5752,-1387.8 5752,-1422.44"/>
<polygon fill="black" stroke="black" points="5748.5,-1422.05 5752,-1432.05 5755.5,-1422.05 5748.5,-1422.05"/>
</g>
<!-- 55 -->
<g id="node56" class="node">
<title>55</title>
<polygon fill="none" stroke="black" points="321,-828 225.22,-810 321,-792 416.78,-810 321,-828"/>
<text text-anchor="middle" x="321" y="-804.95" font-family="Times New Roman,serif" font-size="14.00">!(IsKimHere())</text>
</g>
<!-- 53&#45;&gt;55 -->
<g id="edge70" class="edge">
<title>53&#45;&gt;55</title>
<path fill="none" stroke="black" d="M924.24,-1188.76C713.74,-1179.91 0,-1142.97 0,-1048.98 0,-1048.98 0,-1048.98 0,-974.98 0,-866.29 147.77,-829.6 242.79,-817.25"/>
<polygon fill="black" stroke="black" points="243.1,-820.73 252.6,-816.04 242.24,-813.79 243.1,-820.73"/>
</g>
<!-- 56 -->
<g id="node57" class="node">
<title>56</title>
<ellipse fill="none" stroke="black" cx="1093" cy="-892.99" rx="308.3" ry="28.99"/>
<text text-anchor="middle" x="1093" y="-896.19" font-family="Times New Roman,serif" font-size="14.00">You: Good to have you back, Officer Supercop. The world has been waiting.</text>
<text text-anchor="middle" x="1093" y="-879.69" font-family="Times New Roman,serif" font-size="14.00">Good to have you back, Officer Megacop. The world has been waiting.</text>
</g>
<!-- 53&#45;&gt;56 -->
<g id="edge69" class="edge">
<title>53&#45;&gt;56</title>
<path fill="none" stroke="black" d="M925.98,-1186.43C707.68,-1167.65 -67.99,-1090.93 57,-957.98 82.06,-931.33 492.3,-912.74 788.9,-902.71"/>
<polygon fill="black" stroke="black" points="788.9,-906.21 798.78,-902.38 788.66,-899.21 788.9,-906.21"/>
</g>
<!-- 54&#45;&gt;45 -->
<g id="edge71" class="edge">
<title>54&#45;&gt;45</title>
<path fill="none" stroke="black" d="M2248,-503.7C2248,-496.41 2248,-487.73 2248,-479.54"/>
<polygon fill="black" stroke="black" points="2251.5,-479.62 2248,-469.62 2244.5,-479.62 2251.5,-479.62"/>
</g>
<!-- 55&#45;&gt;33 -->
<g id="edge72" class="edge">
<title>55&#45;&gt;33</title>
<path fill="none" stroke="black" d="M402.58,-806.87C497.39,-799.54 641,-771.24 641,-667 641,-667 641,-667 641,-521 641,-443.82 1832.65,-394.27 2163.63,-381.99"/>
<polygon fill="black" stroke="black" points="2163.66,-385.49 2173.53,-381.62 2163.4,-378.5 2163.66,-385.49"/>
</g>
<!-- 56&#45;&gt;49 -->
<g id="edge73" class="edge">
<title>56&#45;&gt;49</title>
<path fill="none" stroke="black" d="M1336.53,-874.91C1531.31,-861.26 1803.3,-842.18 1999.39,-828.43"/>
<polygon fill="black" stroke="black" points="1999.49,-831.93 2009.22,-827.74 1999,-824.95 1999.49,-831.93"/>
</g>
</g>
</svg>
