<?xml version="1.0" encoding="UTF-8" standalone="no"?>
<!DOCTYPE svg PUBLIC "-//W3C//DTD SVG 1.1//EN"
 "http://www.w3.org/Graphics/SVG/1.1/DTD/svg11.dtd">
<!-- Generated by graphviz version 12.2.1 (20241206.2353)
 -->
<!-- Title: G Pages: 1 -->
<svg width="9708pt" height="1052pt"
 viewBox="0.00 0.00 9707.81 1052.00" xmlns="http://www.w3.org/2000/svg" xmlns:xlink="http://www.w3.org/1999/xlink">
<g id="graph0" class="graph" transform="scale(1 1) rotate(0) translate(4 1048)">
<title>G</title>
<polygon fill="white" stroke="none" points="-4,4 -4,-1048 9703.81,-1048 9703.81,4 -4,4"/>
<!-- 0 -->
<g id="node1" class="node">
<title>0</title>
<ellipse fill="none" stroke="black" cx="3960.84" cy="-594" rx="39.07" ry="18"/>
<text text-anchor="middle" x="3960.84" y="-588.95" font-family="Times New Roman,serif" font-size="14.00">START</text>
</g>
<!-- 1 -->
<g id="node2" class="node">
<title>1</title>
<ellipse fill="none" stroke="black" cx="4107.84" cy="-522" rx="29.86" ry="18"/>
<text text-anchor="middle" x="4107.84" y="-516.95" font-family="Times New Roman,serif" font-size="14.00">input</text>
</g>
<!-- 0&#45;&gt;1 -->
<g id="edge1" class="edge">
<title>0&#45;&gt;1</title>
<path fill="none" stroke="black" d="M3987.46,-580.32C4011.9,-568.69 4048.19,-551.41 4074.54,-538.86"/>
<polygon fill="black" stroke="black" points="4075.91,-542.08 4083.44,-534.62 4072.9,-535.76 4075.91,-542.08"/>
</g>
<!-- 16 -->
<g id="node17" class="node">
<title>16</title>
<ellipse fill="none" stroke="black" cx="4682.84" cy="-450" rx="685.99" ry="18"/>
<text text-anchor="middle" x="4682.84" y="-444.95" font-family="Times New Roman,serif" font-size="14.00">Man from Hjelmdall and the Devil Woman: The edges of the pages are worn and smudged. A lot of people have read about the Devil Woman&#39;s altercations with the Hjelmdall Man.</text>
</g>
<!-- 1&#45;&gt;16 -->
<g id="edge2" class="edge">
<title>1&#45;&gt;16</title>
<path fill="none" stroke="black" d="M4137.15,-517.43C4208.6,-508.73 4395.83,-485.94 4531.07,-469.48"/>
<polygon fill="black" stroke="black" points="4531.34,-472.97 4540.84,-468.29 4530.5,-466.02 4531.34,-472.97"/>
</g>
<!-- 2 -->
<g id="node3" class="node">
<title>2</title>
<ellipse fill="none" stroke="black" cx="5856.84" cy="-738" rx="169.58" ry="18"/>
<text text-anchor="middle" x="5856.84" y="-732.95" font-family="Times New Roman,serif" font-size="14.00">You: Okay, got it. No need to read further.</text>
</g>
<!-- 23 -->
<g id="node24" class="node">
<title>23</title>
<ellipse fill="none" stroke="black" cx="5783.84" cy="-522" rx="372.26" ry="18"/>
<text text-anchor="middle" x="5783.84" y="-516.95" font-family="Times New Roman,serif" font-size="14.00">Jump to: [Man from Hjelmdall and the Devil Woman: &quot;The edges of the pages are worn and...&quot;]</text>
</g>
<!-- 2&#45;&gt;23 -->
<g id="edge3" class="edge">
<title>2&#45;&gt;23</title>
<path fill="none" stroke="black" d="M5854.19,-719.68C5851.17,-701.55 5845.63,-672.38 5837.84,-648 5826.82,-613.47 5809.63,-575.47 5797.62,-550.54"/>
<polygon fill="black" stroke="black" points="5800.85,-549.19 5793.32,-541.74 5794.56,-552.26 5800.85,-549.19"/>
</g>
<!-- 3 -->
<g id="node4" class="node">
<title>3</title>
<ellipse fill="none" stroke="black" cx="7084.84" cy="-954" rx="145.01" ry="18"/>
<text text-anchor="middle" x="7084.84" y="-948.95" font-family="Times New Roman,serif" font-size="14.00">You: Ugh, vulgar. (Close the book.)</text>
</g>
<!-- 49 -->
<g id="node50" class="node">
<title>49</title>
<ellipse fill="none" stroke="black" cx="6580.84" cy="-882" rx="127.61" ry="18"/>
<text text-anchor="middle" x="6580.84" y="-876.95" font-family="Times New Roman,serif" font-size="14.00">You: Oh shit, gritty and heroic.</text>
</g>
<!-- 3&#45;&gt;49 -->
<g id="edge4" class="edge">
<title>3&#45;&gt;49</title>
<path fill="none" stroke="black" d="M6990.63,-939.92C6902.38,-927.66 6770.93,-909.4 6680.84,-896.89"/>
<polygon fill="black" stroke="black" points="6681.4,-893.43 6671.02,-895.52 6680.44,-900.37 6681.4,-893.43"/>
</g>
<!-- 4 -->
<g id="node5" class="node">
<title>4</title>
<ellipse fill="none" stroke="black" cx="5628.84" cy="-234" rx="118.91" ry="18"/>
<text text-anchor="middle" x="5628.84" y="-228.95" font-family="Times New Roman,serif" font-size="14.00">You: Look at the back cover.</text>
</g>
<!-- 13 -->
<g id="node14" class="node">
<title>13</title>
<ellipse fill="none" stroke="black" cx="5983.84" cy="-162" rx="1121.03" ry="18"/>
<text text-anchor="middle" x="5983.84" y="-156.95" font-family="Times New Roman,serif" font-size="14.00">Man from Hjelmdall and the Devil Woman: The jacket copy proclaims: &quot;Man from Hjelmdall returns in his most exciting adventure yet! After crashing into a strange jungle, cannibalistic natives abduct his only surviving comrade, noble Tyrbald. Before Man from Hjemdall can mount a rescue...&quot;</text>
</g>
<!-- 4&#45;&gt;13 -->
<g id="edge5" class="edge">
<title>4&#45;&gt;13</title>
<path fill="none" stroke="black" d="M5699.4,-219.09C5752.31,-208.65 5825.42,-194.24 5884.27,-182.63"/>
<polygon fill="black" stroke="black" points="5884.84,-186.09 5893.98,-180.72 5883.49,-179.22 5884.84,-186.09"/>
</g>
<!-- 5 -->
<g id="node6" class="node">
<title>5</title>
<ellipse fill="none" stroke="black" cx="5925.84" cy="-90" rx="1074.46" ry="18"/>
<text text-anchor="middle" x="5925.84" y="-84.95" font-family="Times New Roman,serif" font-size="14.00">Man from Hjelmdall and the Devil Woman: &quot;...he is ambushed by a tribe of female warriors and taken to the ancient citadel of Cloud City, where a mysterious and wicked queen rules supreme. Will Man from Hjelmdall be able to escape his dire situation and find his missing friend?&quot;</text>
</g>
<!-- 36 -->
<g id="node37" class="node">
<title>36</title>
<ellipse fill="none" stroke="black" cx="5245.84" cy="-18" rx="84.62" ry="18"/>
<text text-anchor="middle" x="5245.84" y="-12.95" font-family="Times New Roman,serif" font-size="14.00">Jump to: [bookhub]</text>
</g>
<!-- 5&#45;&gt;36 -->
<g id="edge6" class="edge">
<title>5&#45;&gt;36</title>
<path fill="none" stroke="black" d="M5758.19,-71.74C5623.11,-57.84 5438.68,-38.85 5331.91,-27.86"/>
<polygon fill="black" stroke="black" points="5332.37,-24.39 5322.06,-26.85 5331.65,-31.35 5332.37,-24.39"/>
</g>
<!-- 6 -->
<g id="node7" class="node">
<title>6</title>
<ellipse fill="none" stroke="black" cx="8051.84" cy="-522" rx="228.44" ry="18"/>
<text text-anchor="middle" x="8051.84" y="-516.95" font-family="Times New Roman,serif" font-size="14.00">Rhetoric: It calls out to you. This is the spirit of Revachol.</text>
</g>
<!-- 30 -->
<g id="node31" class="node">
<title>30</title>
<ellipse fill="none" stroke="black" cx="7455.84" cy="-1026" rx="37.02" ry="18"/>
<text text-anchor="middle" x="7455.84" y="-1020.95" font-family="Times New Roman,serif" font-size="14.00">failhub</text>
</g>
<!-- 6&#45;&gt;30 -->
<g id="edge7" class="edge">
<title>6&#45;&gt;30</title>
<path fill="none" stroke="black" d="M7861.21,-532.19C7686.84,-545.98 7455.84,-580.24 7455.84,-665 7455.84,-883 7455.84,-883 7455.84,-883 7455.84,-922.26 7455.84,-967.62 7455.84,-996.31"/>
<polygon fill="black" stroke="black" points="7452.34,-996 7455.84,-1006 7459.34,-996 7452.34,-996"/>
</g>
<!-- 7 -->
<g id="node8" class="node">
<title>7</title>
<ellipse fill="none" stroke="black" cx="6900.84" cy="-594" rx="379.42" ry="18"/>
<text text-anchor="middle" x="6900.84" y="-588.95" font-family="Times New Roman,serif" font-size="14.00">Man from Hjelmdall and the Devil Woman: Write a thesis. Man from Hjelmdall is done with you.</text>
</g>
<!-- 34 -->
<g id="node35" class="node">
<title>34</title>
<ellipse fill="none" stroke="black" cx="6335.84" cy="-522" rx="84.62" ry="18"/>
<text text-anchor="middle" x="6335.84" y="-516.95" font-family="Times New Roman,serif" font-size="14.00">Jump to: [bookhub]</text>
</g>
<!-- 7&#45;&gt;34 -->
<g id="edge8" class="edge">
<title>7&#45;&gt;34</title>
<path fill="none" stroke="black" d="M6769.09,-576.68C6660.78,-563.26 6510.67,-544.66 6418.57,-533.25"/>
<polygon fill="black" stroke="black" points="6419.21,-529.8 6408.86,-532.05 6418.35,-536.75 6419.21,-529.8"/>
</g>
<!-- 8 -->
<g id="node9" class="node">
<title>8</title>
<ellipse fill="none" stroke="black" cx="2424.84" cy="-666" rx="810.36" ry="18"/>
<text text-anchor="middle" x="2424.84" y="-660.95" font-family="Times New Roman,serif" font-size="14.00">Man from Hjelmdall and the Devil Woman: The steel muscles of Man from Hjelmdall gleam in the humid jungle air, yet the man does not sweat. In meditation his soul drifts in the frigid Northlands he calls home.</text>
</g>
<!-- 15 -->
<g id="node16" class="node">
<title>15</title>
<ellipse fill="none" stroke="black" cx="1840.84" cy="-594" rx="239.18" ry="18"/>
<text text-anchor="middle" x="1840.84" y="-588.95" font-family="Times New Roman,serif" font-size="14.00">You: &quot;Holy shit, this is so *me*!&quot; (Really get into the book.)</text>
</g>
<!-- 8&#45;&gt;15 -->
<g id="edge10" class="edge">
<title>8&#45;&gt;15</title>
<path fill="none" stroke="black" d="M2281.61,-647.83C2188.24,-636.64 2067.19,-622.13 1975.57,-611.15"/>
<polygon fill="black" stroke="black" points="1976.12,-607.69 1965.77,-609.97 1975.28,-614.64 1976.12,-607.69"/>
</g>
<!-- 39 -->
<g id="node40" class="node">
<title>39</title>
<ellipse fill="none" stroke="black" cx="2954.84" cy="-594" rx="800.64" ry="18"/>
<text text-anchor="middle" x="2954.84" y="-588.95" font-family="Times New Roman,serif" font-size="14.00">Man from Hjelmdall and the Devil Woman: You open the book to a random page. Man from Hjelmdall, wielding his two zweihänders, is carving through a sea of savages, his visage fixed in grim determination.</text>
</g>
<!-- 8&#45;&gt;39 -->
<g id="edge9" class="edge">
<title>8&#45;&gt;39</title>
<path fill="none" stroke="black" d="M2555.17,-647.79C2633.48,-637.44 2733.15,-624.28 2813.37,-613.69"/>
<polygon fill="black" stroke="black" points="2813.6,-617.19 2823.05,-612.41 2812.68,-610.25 2813.6,-617.19"/>
</g>
<!-- 9 -->
<g id="node10" class="node">
<title>9</title>
<ellipse fill="none" stroke="black" cx="6250.84" cy="-738" rx="111.23" ry="18"/>
<text text-anchor="middle" x="6250.84" y="-732.95" font-family="Times New Roman,serif" font-size="14.00">You: Maybe, I don&#39;t know.</text>
</g>
<!-- 32 -->
<g id="node33" class="node">
<title>32</title>
<ellipse fill="none" stroke="black" cx="6344.84" cy="-666" rx="459.77" ry="18"/>
<text text-anchor="middle" x="6344.84" y="-660.95" font-family="Times New Roman,serif" font-size="14.00">Man from Hjelmdall and the Devil Woman: Man from Hjelmdall has no time for illiterates. The book is done with you.</text>
</g>
<!-- 9&#45;&gt;32 -->
<g id="edge11" class="edge">
<title>9&#45;&gt;32</title>
<path fill="none" stroke="black" d="M6273.6,-720.05C6285.31,-711.33 6299.8,-700.54 6312.64,-690.98"/>
<polygon fill="black" stroke="black" points="6314.5,-693.96 6320.43,-685.18 6310.32,-688.34 6314.5,-693.96"/>
</g>
<!-- 10 -->
<g id="node11" class="node">
<title>10</title>
<ellipse fill="none" stroke="black" cx="4562.84" cy="-666" rx="302.65" ry="18"/>
<text text-anchor="middle" x="4562.84" y="-660.95" font-family="Times New Roman,serif" font-size="14.00">You: I kept hoping it would get better but the writing is terrible and repetitive.</text>
</g>
<!-- 38 -->
<g id="node39" class="node">
<title>38</title>
<ellipse fill="none" stroke="black" cx="4946.84" cy="-594" rx="167.02" ry="18"/>
<text text-anchor="middle" x="4946.84" y="-588.95" font-family="Times New Roman,serif" font-size="14.00">You: Uh&#45;huh. I&#39;m done. (Close the book.)</text>
</g>
<!-- 10&#45;&gt;38 -->
<g id="edge12" class="edge">
<title>10&#45;&gt;38</title>
<path fill="none" stroke="black" d="M4653.84,-648.41C4713.98,-637.45 4792.58,-623.12 4853.24,-612.06"/>
<polygon fill="black" stroke="black" points="4853.65,-615.55 4862.86,-610.31 4852.39,-608.66 4853.65,-615.55"/>
</g>
<!-- 11 -->
<g id="node12" class="node">
<title>11</title>
<ellipse fill="none" stroke="black" cx="7151.84" cy="-882" rx="125.56" ry="18"/>
<text text-anchor="middle" x="7151.84" y="-876.95" font-family="Times New Roman,serif" font-size="14.00">You: Let&#39;s give this a chance...</text>
</g>
<!-- 17 -->
<g id="node18" class="node">
<title>17</title>
<ellipse fill="none" stroke="black" cx="6430.84" cy="-810" rx="997.17" ry="18"/>
<text text-anchor="middle" x="6430.84" y="-804.95" font-family="Times New Roman,serif" font-size="14.00">Man from Hjelmdall and the Devil Woman: Berserker rage burns in his azure&#45;hued eyes as he brings glory and honour to his long lost Hjelmdaller tribe from the village of Hjelmdall. The ivory giant roars like an ice bear, and the winds of Katla howl out his name.</text>
</g>
<!-- 11&#45;&gt;17 -->
<g id="edge13" class="edge">
<title>11&#45;&gt;17</title>
<path fill="none" stroke="black" d="M7050.07,-871.12C6938.39,-860.28 6756.69,-842.64 6618.93,-829.26"/>
<polygon fill="black" stroke="black" points="6619.63,-825.81 6609.34,-828.33 6618.96,-832.78 6619.63,-825.81"/>
</g>
<!-- 12 -->
<g id="node13" class="node">
<title>12</title>
<ellipse fill="none" stroke="black" cx="9296.84" cy="-450" rx="402.96" ry="18"/>
<text text-anchor="middle" x="9296.84" y="-444.95" font-family="Times New Roman,serif" font-size="14.00">Man from Hjelmdall and the Devil Woman: You flip to the copyright page. This book was written in &#39;38.</text>
</g>
<!-- 12&#45;&gt;30 -->
<g id="edge14" class="edge">
<title>12&#45;&gt;30</title>
<path fill="none" stroke="black" d="M9458.58,-466.94C9533.34,-484.19 9605.84,-519.79 9605.84,-593 9605.84,-883 9605.84,-883 9605.84,-883 9605.84,-992.01 7822.99,-1020.24 7504.3,-1024.41"/>
<polygon fill="black" stroke="black" points="7504.63,-1020.91 7494.67,-1024.54 7504.72,-1027.91 7504.63,-1020.91"/>
</g>
<!-- 13&#45;&gt;5 -->
<g id="edge15" class="edge">
<title>13&#45;&gt;5</title>
<path fill="none" stroke="black" d="M5969.5,-143.7C5962.76,-135.56 5954.58,-125.69 5947.14,-116.7"/>
<polygon fill="black" stroke="black" points="5950.05,-114.74 5940.98,-109.27 5944.66,-119.2 5950.05,-114.74"/>
</g>
<!-- 14 -->
<g id="node15" class="node">
<title>14</title>
<ellipse fill="none" stroke="black" cx="1112.84" cy="-450" rx="1112.84" ry="18"/>
<text text-anchor="middle" x="1112.84" y="-444.95" font-family="Times New Roman,serif" font-size="14.00">Man from Hjelmdall and the Devil Woman: &quot;&#39;Thine spells are no match for purity and strength of will. Brothers of Hjelmdall stand above the vices of flesh for it is weak and corruptible, yet mine is forged in gore and strife.&#39; Queen Lydiaana just laughs, a sultry and salacious sound, then says...&quot;</text>
</g>
<!-- 44 -->
<g id="node45" class="node">
<title>44</title>
<ellipse fill="none" stroke="black" cx="2424.84" cy="-810" rx="928.59" ry="18"/>
<text text-anchor="middle" x="2424.84" y="-804.95" font-family="Times New Roman,serif" font-size="14.00">Man from Hjelmdall and the Devil Woman: Man from Hjelmdall rides on a gilded gryffin, his golden mane billowing in the breeze. Both zweihänders sheathed on his back, he is off to war. Will he conquer his enemies? Will he conquer himself?</text>
</g>
<!-- 14&#45;&gt;44 -->
<g id="edge16" class="edge">
<title>14&#45;&gt;44</title>
<path fill="none" stroke="black" d="M677.08,-467C569.26,-474.91 478.61,-486.64 458.84,-504 428.45,-530.69 439.84,-552.55 439.84,-593 439.84,-667 439.84,-667 439.84,-667 439.84,-738.26 1264.54,-776.65 1850.79,-794.94"/>
<polygon fill="black" stroke="black" points="1850.38,-798.43 1860.48,-795.24 1850.59,-791.44 1850.38,-798.43"/>
</g>
<!-- 18 -->
<g id="node19" class="node">
<title>18</title>
<ellipse fill="none" stroke="black" cx="1785.84" cy="-522" rx="1318.08" ry="18"/>
<text text-anchor="middle" x="1785.84" y="-516.95" font-family="Times New Roman,serif" font-size="14.00">Man from Hjelmdall and the Devil Woman: A passage reads: &quot;The Man from Hjelmdall looks up, his eyes blue as the mountain lakes of his homeland. He rarely speaks, but now his voice booms in the darkened throne room: &#39;Do not try to sap my masculine essence, wicked temptress! Son of Hjelmdall will never succumb to your seductive wiles&#39;.&quot;</text>
</g>
<!-- 15&#45;&gt;18 -->
<g id="edge17" class="edge">
<title>15&#45;&gt;18</title>
<path fill="none" stroke="black" d="M1827.25,-575.7C1820.92,-567.64 1813.26,-557.89 1806.26,-548.98"/>
<polygon fill="black" stroke="black" points="1809.15,-547 1800.22,-541.29 1803.64,-551.32 1809.15,-547"/>
</g>
<!-- 43 -->
<g id="node44" class="node">
<title>43</title>
<ellipse fill="none" stroke="black" cx="4682.84" cy="-378" rx="1417.88" ry="18"/>
<text text-anchor="middle" x="4682.84" y="-372.95" font-family="Times New Roman,serif" font-size="14.00">Man from Hjelmdall and the Devil Woman: &quot;&#39;I have grand plans for you, Man from Hjelmdall.&#39; She gestures her diabolical hand toward an array of potions and unguents. &#39;First you shall please me, then lead my armies against the vicious cannibals.&#39; Not a muscle moves in the face of Man from Hjelmdall, yet inside there is turmoil &#45;&#45; this goes against all he holds sacrosanct.&quot;</text>
</g>
<!-- 16&#45;&gt;43 -->
<g id="edge18" class="edge">
<title>16&#45;&gt;43</title>
<path fill="none" stroke="black" d="M4682.84,-431.7C4682.84,-424.41 4682.84,-415.73 4682.84,-407.54"/>
<polygon fill="black" stroke="black" points="4686.34,-407.62 4682.84,-397.62 4679.34,-407.62 4686.34,-407.62"/>
</g>
<!-- 17&#45;&gt;2 -->
<g id="edge19" class="edge">
<title>17&#45;&gt;2</title>
<path fill="none" stroke="black" d="M6288.95,-791.7C6192.87,-779.98 6067.33,-764.67 5976.35,-753.57"/>
<polygon fill="black" stroke="black" points="5977,-750.13 5966.65,-752.39 5976.15,-757.08 5977,-750.13"/>
</g>
<!-- 19 -->
<g id="node20" class="node">
<title>19</title>
<ellipse fill="none" stroke="black" cx="6829.84" cy="-738" rx="85.13" ry="18"/>
<text text-anchor="middle" x="6829.84" y="-732.95" font-family="Times New Roman,serif" font-size="14.00">You: Gimme more!</text>
</g>
<!-- 17&#45;&gt;19 -->
<g id="edge20" class="edge">
<title>17&#45;&gt;19</title>
<path fill="none" stroke="black" d="M6529.98,-791.61C6599.55,-779.4 6691.12,-763.34 6754.69,-752.18"/>
<polygon fill="black" stroke="black" points="6755.09,-755.67 6764.33,-750.49 6753.88,-748.77 6755.09,-755.67"/>
</g>
<!-- 18&#45;&gt;14 -->
<g id="edge21" class="edge">
<title>18&#45;&gt;14</title>
<path fill="none" stroke="black" d="M1619.05,-503.65C1519.06,-493.25 1391.98,-480.03 1290.17,-469.44"/>
<polygon fill="black" stroke="black" points="1290.64,-465.97 1280.33,-468.42 1289.92,-472.94 1290.64,-465.97"/>
</g>
<!-- 45 -->
<g id="node46" class="node">
<title>45</title>
<ellipse fill="none" stroke="black" cx="7099.84" cy="-666" rx="277.06" ry="18"/>
<text text-anchor="middle" x="7099.84" y="-660.95" font-family="Times New Roman,serif" font-size="14.00">You: Excuse me, I know a thing or two about critical analysis. And art.</text>
</g>
<!-- 19&#45;&gt;45 -->
<g id="edge22" class="edge">
<title>19&#45;&gt;45</title>
<path fill="none" stroke="black" d="M6882.22,-723.42C6922.46,-712.99 6978.6,-698.43 7023.78,-686.72"/>
<polygon fill="black" stroke="black" points="7024.45,-690.16 7033.26,-684.26 7022.7,-683.38 7024.45,-690.16"/>
</g>
<!-- 20 -->
<g id="node21" class="node">
<title>20</title>
<ellipse fill="none" stroke="black" cx="4081.84" cy="-666" rx="159.85" ry="18"/>
<text text-anchor="middle" x="4081.84" y="-660.95" font-family="Times New Roman,serif" font-size="14.00">You: I&#39;ve had enough. (Close the book.)</text>
</g>
<!-- 31 -->
<g id="node32" class="node">
<title>31</title>
<ellipse fill="none" stroke="black" cx="4389.84" cy="-594" rx="372.26" ry="18"/>
<text text-anchor="middle" x="4389.84" y="-588.95" font-family="Times New Roman,serif" font-size="14.00">Jump to: [Man from Hjelmdall and the Devil Woman: &quot;The edges of the pages are worn and...&quot;]</text>
</g>
<!-- 20&#45;&gt;31 -->
<g id="edge23" class="edge">
<title>20&#45;&gt;31</title>
<path fill="none" stroke="black" d="M4150.58,-649.38C4195.73,-639.12 4255.16,-625.61 4303.49,-614.63"/>
<polygon fill="black" stroke="black" points="4304.12,-618.07 4313.1,-612.44 4302.57,-611.25 4304.12,-618.07"/>
</g>
<!-- 21 -->
<g id="node22" class="node">
<title>21</title>
<ellipse fill="none" stroke="black" cx="8530.84" cy="-882" rx="1046.82" ry="18"/>
<text text-anchor="middle" x="8530.84" y="-876.95" font-family="Times New Roman,serif" font-size="14.00">Man from Hjelmdall and the Devil Woman: In the final pages, Man from Hjelmdall mounts Galawaryn &#45;&#45; his mighty gryffin &#45;&#45; and turns his gaze to the horizon. Queen Lydiaana is dead, but an army of cannibals is storming the gates and still there&#39;s no word of trusty Tyrbald...</text>
</g>
<!-- 26 -->
<g id="node27" class="node">
<title>26</title>
<ellipse fill="none" stroke="black" cx="8530.84" cy="-810" rx="759.69" ry="18"/>
<text text-anchor="middle" x="8530.84" y="-804.95" font-family="Times New Roman,serif" font-size="14.00">Man from Hjelmdall and the Devil Woman: To find out what happens next, you&#39;ll have to pick up &quot;Man from Hjelmdall and the Three&#45;Eyed Skull&quot;, available in fine bookstores everywhere, spring &#39;39.</text>
</g>
<!-- 21&#45;&gt;26 -->
<g id="edge24" class="edge">
<title>21&#45;&gt;26</title>
<path fill="none" stroke="black" d="M8530.84,-863.7C8530.84,-856.41 8530.84,-847.73 8530.84,-839.54"/>
<polygon fill="black" stroke="black" points="8534.34,-839.62 8530.84,-829.62 8527.34,-839.62 8534.34,-839.62"/>
</g>
<!-- 22 -->
<g id="node23" class="node">
<title>22</title>
<ellipse fill="none" stroke="black" cx="4992.84" cy="-234" rx="144.5" ry="18"/>
<text text-anchor="middle" x="4992.84" y="-228.95" font-family="Times New Roman,serif" font-size="14.00">You: Time to flip through the book.</text>
</g>
<!-- 40 -->
<g id="node41" class="node">
<title>40</title>
<ellipse fill="none" stroke="black" cx="4748.84" cy="-162" rx="95.88" ry="18"/>
<text text-anchor="middle" x="4748.84" y="-156.95" font-family="Times New Roman,serif" font-size="14.00">You: Of course I have.</text>
</g>
<!-- 22&#45;&gt;40 -->
<g id="edge25" class="edge">
<title>22&#45;&gt;40</title>
<path fill="none" stroke="black" d="M4936.86,-216.94C4899.18,-206.13 4849.47,-191.87 4810.63,-180.73"/>
<polygon fill="black" stroke="black" points="4812.02,-177.48 4801.44,-178.09 4810.09,-184.21 4812.02,-177.48"/>
</g>
<!-- 23&#45;&gt;16 -->
<g id="edge26" class="edge">
<title>23&#45;&gt;16</title>
<path fill="none" stroke="black" d="M5564.67,-507.07C5387.5,-495.8 5137.4,-479.9 4948.78,-467.91"/>
<polygon fill="black" stroke="black" points="4949.01,-464.42 4938.81,-467.27 4948.56,-471.4 4949.01,-464.42"/>
</g>
<!-- 24 -->
<g id="node25" class="node">
<title>24</title>
<ellipse fill="none" stroke="black" cx="4907.84" cy="-522" rx="372.26" ry="18"/>
<text text-anchor="middle" x="4907.84" y="-516.95" font-family="Times New Roman,serif" font-size="14.00">Jump to: [Man from Hjelmdall and the Devil Woman: &quot;The edges of the pages are worn and...&quot;]</text>
</g>
<!-- 24&#45;&gt;16 -->
<g id="edge27" class="edge">
<title>24&#45;&gt;16</title>
<path fill="none" stroke="black" d="M4852.51,-503.79C4821.42,-494.11 4782.38,-481.97 4749.6,-471.77"/>
<polygon fill="black" stroke="black" points="4750.77,-468.47 4740.18,-468.84 4748.69,-475.15 4750.77,-468.47"/>
</g>
<!-- 25 -->
<g id="node26" class="node">
<title>25</title>
<ellipse fill="none" stroke="black" cx="8987.84" cy="-522" rx="300.09" ry="18"/>
<text text-anchor="middle" x="8987.84" y="-516.95" font-family="Times New Roman,serif" font-size="14.00">Rhetoric: Good god this is some retrograde stuff. When was this shit written?</text>
</g>
<!-- 25&#45;&gt;12 -->
<g id="edge28" class="edge">
<title>25&#45;&gt;12</title>
<path fill="none" stroke="black" d="M9062.25,-504.14C9106.8,-494.05 9163.64,-481.17 9210.21,-470.62"/>
<polygon fill="black" stroke="black" points="9210.75,-474.09 9219.73,-468.47 9209.2,-467.27 9210.75,-474.09"/>
</g>
<!-- 47 -->
<g id="node48" class="node">
<title>47</title>
<ellipse fill="none" stroke="black" cx="8530.84" cy="-738" rx="607.18" ry="18"/>
<text text-anchor="middle" x="8530.84" y="-732.95" font-family="Times New Roman,serif" font-size="14.00">Man from Hjelmdall and the Devil Woman: His arms, whirling like windmills, are soaked with the blood of his enemies. Mangled corpses litter the battlefield.</text>
</g>
<!-- 26&#45;&gt;47 -->
<g id="edge29" class="edge">
<title>26&#45;&gt;47</title>
<path fill="none" stroke="black" d="M8530.84,-791.7C8530.84,-784.41 8530.84,-775.73 8530.84,-767.54"/>
<polygon fill="black" stroke="black" points="8534.34,-767.62 8530.84,-757.62 8527.34,-767.62 8534.34,-767.62"/>
</g>
<!-- 27 -->
<g id="node28" class="node">
<title>27</title>
<ellipse fill="none" stroke="black" cx="8530.84" cy="-666" rx="166.51" ry="18"/>
<text text-anchor="middle" x="8530.84" y="-660.95" font-family="Times New Roman,serif" font-size="14.00">IsTHCPresent(&quot;revacholian_nationhood&quot;)</text>
</g>
<!-- 28 -->
<g id="node29" class="node">
<title>28</title>
<polygon fill="none" stroke="black" points="8257.84,-612 8022.36,-594 8257.84,-576 8493.32,-594 8257.84,-612"/>
<text text-anchor="middle" x="8257.84" y="-588.95" font-family="Times New Roman,serif" font-size="14.00">IsTHCPresent(&quot;revacholian_nationhood&quot;)</text>
</g>
<!-- 27&#45;&gt;28 -->
<g id="edge30" class="edge">
<title>27&#45;&gt;28</title>
<path fill="none" stroke="black" d="M8468.21,-648.94C8424.09,-637.63 8365.24,-622.54 8321.01,-611.2"/>
<polygon fill="black" stroke="black" points="8322.12,-607.87 8311.56,-608.77 8320.38,-614.65 8322.12,-607.87"/>
</g>
<!-- 29 -->
<g id="node30" class="node">
<title>29</title>
<polygon fill="none" stroke="black" points="8781.84,-612 8533.33,-594 8781.84,-576 9030.35,-594 8781.84,-612"/>
<text text-anchor="middle" x="8781.84" y="-588.95" font-family="Times New Roman,serif" font-size="14.00">!(IsTHCPresent(&quot;revacholian_nationhood&quot;))</text>
</g>
<!-- 27&#45;&gt;29 -->
<g id="edge31" class="edge">
<title>27&#45;&gt;29</title>
<path fill="none" stroke="black" d="M8589.37,-648.68C8628.96,-637.64 8681.13,-623.09 8721.16,-611.92"/>
<polygon fill="black" stroke="black" points="8721.96,-615.33 8730.66,-609.27 8720.08,-608.59 8721.96,-615.33"/>
</g>
<!-- 28&#45;&gt;6 -->
<g id="edge32" class="edge">
<title>28&#45;&gt;6</title>
<path fill="none" stroke="black" d="M8216.15,-578.83C8186.34,-568.7 8145.76,-554.91 8112.39,-543.57"/>
<polygon fill="black" stroke="black" points="8113.85,-540.38 8103.26,-540.47 8111.6,-547 8113.85,-540.38"/>
</g>
<!-- 29&#45;&gt;25 -->
<g id="edge33" class="edge">
<title>29&#45;&gt;25</title>
<path fill="none" stroke="black" d="M8824.03,-578.67C8853.66,-568.6 8893.76,-554.97 8926.86,-543.72"/>
<polygon fill="black" stroke="black" points="8927.57,-547.18 8935.91,-540.65 8925.32,-540.55 8927.57,-547.18"/>
</g>
<!-- 30&#45;&gt;3 -->
<g id="edge34" class="edge">
<title>30&#45;&gt;3</title>
<path fill="none" stroke="black" d="M7421.6,-1018.54C7365.67,-1007.99 7252.95,-986.72 7173.36,-971.7"/>
<polygon fill="black" stroke="black" points="7174.32,-968.32 7163.85,-969.91 7173.03,-975.2 7174.32,-968.32"/>
</g>
<!-- 30&#45;&gt;11 -->
<g id="edge36" class="edge">
<title>30&#45;&gt;11</title>
<path fill="none" stroke="black" d="M7429.66,-1012.77C7377.95,-988.62 7262.16,-934.53 7197.58,-904.37"/>
<polygon fill="black" stroke="black" points="7199.21,-901.26 7188.66,-900.2 7196.24,-907.6 7199.21,-901.26"/>
</g>
<!-- 50 -->
<g id="node51" class="node">
<title>50</title>
<ellipse fill="none" stroke="black" cx="8058.84" cy="-954" rx="103.04" ry="18"/>
<text text-anchor="middle" x="8058.84" y="-948.95" font-family="Times New Roman,serif" font-size="14.00">You: Wow... this is epic!</text>
</g>
<!-- 30&#45;&gt;50 -->
<g id="edge35" class="edge">
<title>30&#45;&gt;50</title>
<path fill="none" stroke="black" d="M7491.76,-1020.83C7583.25,-1010.21 7827.47,-981.86 7963.68,-966.05"/>
<polygon fill="black" stroke="black" points="7963.87,-969.55 7973.4,-964.92 7963.07,-962.59 7963.87,-969.55"/>
</g>
<!-- 31&#45;&gt;16 -->
<g id="edge37" class="edge">
<title>31&#45;&gt;16</title>
<path fill="none" stroke="black" d="M4412.55,-575.71C4438.91,-556.25 4484.23,-524.68 4526.84,-504 4552.96,-491.32 4582.9,-480.37 4609.52,-471.76"/>
<polygon fill="black" stroke="black" points="4610.39,-475.15 4618.87,-468.79 4608.28,-468.48 4610.39,-475.15"/>
</g>
<!-- 32&#45;&gt;34 -->
<g id="edge38" class="edge">
<title>32&#45;&gt;34</title>
<path fill="none" stroke="black" d="M6343.74,-647.59C6342.22,-623.61 6339.46,-580.14 6337.64,-551.42"/>
<polygon fill="black" stroke="black" points="6341.15,-551.38 6337.02,-541.62 6334.16,-551.82 6341.15,-551.38"/>
</g>
<!-- 33 -->
<g id="node34" class="node">
<title>33</title>
<ellipse fill="none" stroke="black" cx="4741.84" cy="-234" rx="88.71" ry="18"/>
<text text-anchor="middle" x="4741.84" y="-228.95" font-family="Times New Roman,serif" font-size="14.00">You: Put book away.</text>
</g>
<!-- 34&#45;&gt;43 -->
<g id="edge39" class="edge">
<title>34&#45;&gt;43</title>
<path fill="none" stroke="black" d="M6260.94,-513.43C6231.05,-510.44 6196.32,-507 6164.84,-504 5815.19,-470.63 5727.85,-461.35 5377.84,-432 5229.91,-419.59 5064.16,-406.91 4931.64,-397.06"/>
<polygon fill="black" stroke="black" points="4932.28,-393.6 4922.05,-396.35 4931.77,-400.58 4932.28,-393.6"/>
</g>
<!-- 35 -->
<g id="node36" class="node">
<title>35</title>
<ellipse fill="none" stroke="black" cx="2424.84" cy="-738" rx="64.15" ry="18"/>
<text text-anchor="middle" x="2424.84" y="-732.95" font-family="Times New Roman,serif" font-size="14.00">You: Onward!</text>
</g>
<!-- 35&#45;&gt;8 -->
<g id="edge40" class="edge">
<title>35&#45;&gt;8</title>
<path fill="none" stroke="black" d="M2424.84,-719.7C2424.84,-712.41 2424.84,-703.73 2424.84,-695.54"/>
<polygon fill="black" stroke="black" points="2428.34,-695.62 2424.84,-685.62 2421.34,-695.62 2428.34,-695.62"/>
</g>
<!-- 36&#45;&gt;43 -->
<g id="edge41" class="edge">
<title>36&#45;&gt;43</title>
<path fill="none" stroke="black" d="M5161.66,-20.47C5031.95,-23.89 4790.11,-35.14 4712.84,-72 4662.63,-95.95 4624.84,-105.37 4624.84,-161 4624.84,-235 4624.84,-235 4624.84,-235 4624.84,-277.5 4647.39,-322.21 4664.37,-349.84"/>
<polygon fill="black" stroke="black" points="4661.41,-351.72 4669.73,-358.28 4667.32,-347.97 4661.41,-351.72"/>
</g>
<!-- 37 -->
<g id="node38" class="node">
<title>37</title>
<ellipse fill="none" stroke="black" cx="4562.84" cy="-810" rx="479.73" ry="18"/>
<text text-anchor="middle" x="4562.84" y="-804.95" font-family="Times New Roman,serif" font-size="14.00">Man from Hjelmdall and the Devil Woman: What do you even know about literature, have you ever read a book in your life?</text>
</g>
<!-- 37&#45;&gt;9 -->
<g id="edge44" class="edge">
<title>37&#45;&gt;9</title>
<path fill="none" stroke="black" d="M4956.54,-799.43C5253.35,-791.09 5670.36,-777.01 6035.84,-756 6071.09,-753.97 6109.54,-751.13 6144.05,-748.35"/>
<polygon fill="black" stroke="black" points="6143.92,-751.88 6153.6,-747.58 6143.35,-744.9 6143.92,-751.88"/>
</g>
<!-- 41 -->
<g id="node42" class="node">
<title>41</title>
<ellipse fill="none" stroke="black" cx="4562.84" cy="-738" rx="186.47" ry="18"/>
<text text-anchor="middle" x="4562.84" y="-732.95" font-family="Times New Roman,serif" font-size="14.00">Conceptualization: *This* is beyond primitive.</text>
</g>
<!-- 37&#45;&gt;41 -->
<g id="edge43" class="edge">
<title>37&#45;&gt;41</title>
<path fill="none" stroke="black" d="M4562.84,-791.7C4562.84,-784.41 4562.84,-775.73 4562.84,-767.54"/>
<polygon fill="black" stroke="black" points="4566.34,-767.62 4562.84,-757.62 4559.34,-767.62 4566.34,-767.62"/>
</g>
<!-- 46 -->
<g id="node47" class="node">
<title>46</title>
<ellipse fill="none" stroke="black" cx="3893.84" cy="-450" rx="84.62" ry="18"/>
<text text-anchor="middle" x="3893.84" y="-444.95" font-family="Times New Roman,serif" font-size="14.00">Jump to: [bookhub]</text>
</g>
<!-- 37&#45;&gt;46 -->
<g id="edge42" class="edge">
<title>37&#45;&gt;46</title>
<path fill="none" stroke="black" d="M4241.57,-796.26C4070.03,-780.33 3893.84,-744.99 3893.84,-667 3893.84,-667 3893.84,-667 3893.84,-593 3893.84,-553.74 3893.84,-508.38 3893.84,-479.69"/>
<polygon fill="black" stroke="black" points="3897.34,-480 3893.84,-470 3890.34,-480 3897.34,-480"/>
</g>
<!-- 38&#45;&gt;24 -->
<g id="edge45" class="edge">
<title>38&#45;&gt;24</title>
<path fill="none" stroke="black" d="M4937.2,-575.7C4932.9,-567.98 4927.74,-558.71 4922.95,-550.11"/>
<polygon fill="black" stroke="black" points="4926.03,-548.46 4918.11,-541.43 4919.92,-551.87 4926.03,-548.46"/>
</g>
<!-- 48 -->
<g id="node49" class="node">
<title>48</title>
<ellipse fill="none" stroke="black" cx="3493.84" cy="-522" rx="372.26" ry="18"/>
<text text-anchor="middle" x="3493.84" y="-516.95" font-family="Times New Roman,serif" font-size="14.00">Jump to: [Man from Hjelmdall and the Devil Woman: &quot;The edges of the pages are worn and...&quot;]</text>
</g>
<!-- 39&#45;&gt;48 -->
<g id="edge46" class="edge">
<title>39&#45;&gt;48</title>
<path fill="none" stroke="black" d="M3087.39,-575.79C3169.19,-565.16 3273.92,-551.56 3356.58,-540.83"/>
<polygon fill="black" stroke="black" points="3356.87,-544.32 3366.34,-539.56 3355.97,-537.38 3356.87,-544.32"/>
</g>
<!-- 52 -->
<g id="node53" class="node">
<title>52</title>
<ellipse fill="none" stroke="black" cx="4748.84" cy="-90" rx="27" ry="18"/>
<text text-anchor="middle" x="4748.84" y="-84.95" font-family="Times New Roman,serif" font-size="14.00">52</text>
</g>
<!-- 40&#45;&gt;52 -->
<g id="edge47" class="edge">
<title>40&#45;&gt;52</title>
<path fill="none" stroke="black" d="M4748.84,-143.7C4748.84,-136.41 4748.84,-127.73 4748.84,-119.54"/>
<polygon fill="black" stroke="black" points="4752.34,-119.62 4748.84,-109.62 4745.34,-119.62 4752.34,-119.62"/>
</g>
<!-- 41&#45;&gt;10 -->
<g id="edge48" class="edge">
<title>41&#45;&gt;10</title>
<path fill="none" stroke="black" d="M4562.84,-719.7C4562.84,-712.41 4562.84,-703.73 4562.84,-695.54"/>
<polygon fill="black" stroke="black" points="4566.34,-695.62 4562.84,-685.62 4559.34,-695.62 4566.34,-695.62"/>
</g>
<!-- 41&#45;&gt;20 -->
<g id="edge50" class="edge">
<title>41&#45;&gt;20</title>
<path fill="none" stroke="black" d="M4462.59,-722.41C4382.39,-710.74 4270.2,-694.41 4188.38,-682.51"/>
<polygon fill="black" stroke="black" points="4188.95,-679.05 4178.55,-681.07 4187.94,-685.98 4188.95,-679.05"/>
</g>
<!-- 51 -->
<g id="node52" class="node">
<title>51</title>
<ellipse fill="none" stroke="black" cx="5355.84" cy="-666" rx="472.57" ry="18"/>
<text text-anchor="middle" x="5355.84" y="-660.95" font-family="Times New Roman,serif" font-size="14.00">Man from Hjelmdall and the Devil Woman: This is not just another book. It&#39;s Man from Hjelmdall. And it&#39;s done with you.</text>
</g>
<!-- 41&#45;&gt;51 -->
<g id="edge49" class="edge">
<title>41&#45;&gt;51</title>
<path fill="none" stroke="black" d="M4696.91,-725.17C4824.65,-713.89 5018.32,-696.79 5162.69,-684.05"/>
<polygon fill="black" stroke="black" points="5162.71,-687.56 5172.36,-683.2 5162.09,-680.59 5162.71,-687.56"/>
</g>
<!-- 42 -->
<g id="node43" class="node">
<title>42</title>
<ellipse fill="none" stroke="black" cx="4866.84" cy="-306" rx="43.16" ry="18"/>
<text text-anchor="middle" x="4866.84" y="-300.95" font-family="Times New Roman,serif" font-size="14.00">bookhub</text>
</g>
<!-- 42&#45;&gt;4 -->
<g id="edge52" class="edge">
<title>42&#45;&gt;4</title>
<path fill="none" stroke="black" d="M4908.9,-301.14C5023.86,-290.58 5346.23,-260.96 5517.94,-245.19"/>
<polygon fill="black" stroke="black" points="5518.13,-248.69 5527.77,-244.28 5517.49,-241.71 5518.13,-248.69"/>
</g>
<!-- 42&#45;&gt;22 -->
<g id="edge53" class="edge">
<title>42&#45;&gt;22</title>
<path fill="none" stroke="black" d="M4892.04,-291C4909.28,-281.42 4932.53,-268.51 4952.35,-257.5"/>
<polygon fill="black" stroke="black" points="4953.99,-260.59 4961.03,-252.67 4950.59,-254.47 4953.99,-260.59"/>
</g>
<!-- 42&#45;&gt;33 -->
<g id="edge51" class="edge">
<title>42&#45;&gt;33</title>
<path fill="none" stroke="black" d="M4841.85,-291C4824.49,-281.29 4801.02,-268.14 4781.18,-257.03"/>
<polygon fill="black" stroke="black" points="4782.94,-254 4772.5,-252.17 4779.52,-260.11 4782.94,-254"/>
</g>
<!-- 43&#45;&gt;42 -->
<g id="edge54" class="edge">
<title>43&#45;&gt;42</title>
<path fill="none" stroke="black" d="M4728.8,-359.52C4758.34,-348.28 4796.42,-333.79 4825.1,-322.88"/>
<polygon fill="black" stroke="black" points="4826.07,-326.25 4834.18,-319.43 4823.58,-319.71 4826.07,-326.25"/>
</g>
<!-- 44&#45;&gt;2 -->
<g id="edge55" class="edge">
<title>44&#45;&gt;2</title>
<path fill="none" stroke="black" d="M3047.84,-796.29C3850.68,-779.92 5200.27,-752.39 5680.59,-742.59"/>
<polygon fill="black" stroke="black" points="5680.33,-746.1 5690.26,-742.4 5680.19,-739.1 5680.33,-746.1"/>
</g>
<!-- 44&#45;&gt;35 -->
<g id="edge56" class="edge">
<title>44&#45;&gt;35</title>
<path fill="none" stroke="black" d="M2424.84,-791.7C2424.84,-784.41 2424.84,-775.73 2424.84,-767.54"/>
<polygon fill="black" stroke="black" points="2428.34,-767.62 2424.84,-757.62 2421.34,-767.62 2428.34,-767.62"/>
</g>
<!-- 45&#45;&gt;7 -->
<g id="edge57" class="edge">
<title>45&#45;&gt;7</title>
<path fill="none" stroke="black" d="M7051.16,-647.88C7023.92,-638.29 6989.73,-626.27 6960.84,-616.11"/>
<polygon fill="black" stroke="black" points="6962.08,-612.83 6951.48,-612.81 6959.76,-619.43 6962.08,-612.83"/>
</g>
<!-- 46&#45;&gt;43 -->
<g id="edge58" class="edge">
<title>46&#45;&gt;43</title>
<path fill="none" stroke="black" d="M3954.63,-437.06C3965.65,-435.17 3977.07,-433.38 3987.84,-432 4108.33,-416.55 4241.2,-405.07 4358.2,-396.82"/>
<polygon fill="black" stroke="black" points="4358.23,-400.32 4367.96,-396.13 4357.74,-393.34 4358.23,-400.32"/>
</g>
<!-- 47&#45;&gt;27 -->
<g id="edge59" class="edge">
<title>47&#45;&gt;27</title>
<path fill="none" stroke="black" d="M8530.84,-719.7C8530.84,-712.41 8530.84,-703.73 8530.84,-695.54"/>
<polygon fill="black" stroke="black" points="8534.34,-695.62 8530.84,-685.62 8527.34,-695.62 8534.34,-695.62"/>
</g>
<!-- 48&#45;&gt;16 -->
<g id="edge60" class="edge">
<title>48&#45;&gt;16</title>
<path fill="none" stroke="black" d="M3723.8,-507.46C3916.86,-496.1 4193.47,-479.81 4400.05,-467.65"/>
<polygon fill="black" stroke="black" points="4400.1,-471.15 4409.87,-467.07 4399.68,-464.16 4400.1,-471.15"/>
</g>
<!-- 49&#45;&gt;17 -->
<g id="edge61" class="edge">
<title>49&#45;&gt;17</title>
<path fill="none" stroke="black" d="M6545.29,-864.41C6525.34,-855.1 6500.18,-843.36 6478.53,-833.26"/>
<polygon fill="black" stroke="black" points="6480.14,-830.14 6469.6,-829.09 6477.18,-836.49 6480.14,-830.14"/>
</g>
<!-- 50&#45;&gt;21 -->
<g id="edge62" class="edge">
<title>50&#45;&gt;21</title>
<path fill="none" stroke="black" d="M8135.46,-941.64C8207.55,-930.95 8316.86,-914.73 8402.3,-902.06"/>
<polygon fill="black" stroke="black" points="8402.78,-905.53 8412.16,-900.6 8401.75,-898.61 8402.78,-905.53"/>
</g>
<!-- 51&#45;&gt;34 -->
<g id="edge63" class="edge">
<title>51&#45;&gt;34</title>
<path fill="none" stroke="black" d="M5472.59,-648.08C5674.37,-618.85 6083.29,-559.59 6255.99,-534.57"/>
<polygon fill="black" stroke="black" points="6256.38,-538.05 6265.77,-533.15 6255.37,-531.12 6256.38,-538.05"/>
</g>
</g>
</svg>
