<?xml version="1.0" encoding="UTF-8" standalone="no"?>
<!DOCTYPE svg PUBLIC "-//W3C//DTD SVG 1.1//EN"
 "http://www.w3.org/Graphics/SVG/1.1/DTD/svg11.dtd">
<!-- Generated by graphviz version 12.2.1 (20241206.2353)
 -->
<!-- Title: G Pages: 1 -->
<svg width="6233pt" height="1484pt"
 viewBox="0.00 0.00 6233.46 1484.00" xmlns="http://www.w3.org/2000/svg" xmlns:xlink="http://www.w3.org/1999/xlink">
<g id="graph0" class="graph" transform="scale(1 1) rotate(0) translate(4 1480)">
<title>G</title>
<polygon fill="white" stroke="none" points="-4,4 -4,-1480 6229.46,-1480 6229.46,4 -4,4"/>
<!-- 0 -->
<g id="node1" class="node">
<title>0</title>
<ellipse fill="none" stroke="black" cx="3940" cy="-1458" rx="39.07" ry="18"/>
<text text-anchor="middle" x="3940" y="-1452.95" font-family="Times New Roman,serif" font-size="14.00">START</text>
</g>
<!-- 0&#45;&gt;0 -->
<g id="edge1" class="edge">
<title>0&#45;&gt;0</title>
<path fill="none" stroke="black" d="M3968.19,-1470.94C3983.3,-1473.14 3997.07,-1468.83 3997.07,-1458 3997.07,-1449.96 3989.48,-1445.52 3979.4,-1444.65"/>
<polygon fill="black" stroke="black" points="3979.57,-1441.15 3969.7,-1445 3979.82,-1448.14 3979.57,-1441.15"/>
</g>
<!-- 1 -->
<g id="node2" class="node">
<title>1</title>
<ellipse fill="none" stroke="black" cx="4045" cy="-1458" rx="29.86" ry="18"/>
<text text-anchor="middle" x="4045" y="-1452.95" font-family="Times New Roman,serif" font-size="14.00">input</text>
</g>
<!-- 39 -->
<g id="node40" class="node">
<title>39</title>
<ellipse fill="none" stroke="black" cx="4045" cy="-1386" rx="913.75" ry="18"/>
<text text-anchor="middle" x="4045" y="-1380.95" font-family="Times New Roman,serif" font-size="14.00">Stock Certificate: The pearlescent paper adamantly resists being held open &#45;&#45; it demands struggle at both ends. The print inside is just as taxing due to its fine and curlicued font. The most attractive part is the image emblazoned across the top.</text>
</g>
<!-- 1&#45;&gt;39 -->
<g id="edge2" class="edge">
<title>1&#45;&gt;39</title>
<path fill="none" stroke="black" d="M4045,-1439.7C4045,-1432.41 4045,-1423.73 4045,-1415.54"/>
<polygon fill="black" stroke="black" points="4048.5,-1415.62 4045,-1405.62 4041.5,-1415.62 4048.5,-1415.62"/>
</g>
<!-- 2 -->
<g id="node3" class="node">
<title>2</title>
<ellipse fill="none" stroke="black" cx="2297" cy="-306" rx="759.18" ry="18"/>
<text text-anchor="middle" x="2297" y="-300.95" font-family="Times New Roman,serif" font-size="14.00">Stock Certificate: The scrawl across the paper opens wide its many grins back at you. A mess of mouths ready to swallow you up. Intertwined and interflowing, impenetrably. Your eyes begin to water.</text>
</g>
<!-- 44 -->
<g id="node45" class="node">
<title>44</title>
<ellipse fill="none" stroke="black" cx="2814" cy="-234" rx="376.86" ry="18"/>
<text text-anchor="middle" x="2814" y="-228.95" font-family="Times New Roman,serif" font-size="14.00">Perception (Sight): Okay, okay &#45;&#45; enough of that. It&#39;s starting to sting. Better try another approach.</text>
</g>
<!-- 2&#45;&gt;44 -->
<g id="edge3" class="edge">
<title>2&#45;&gt;44</title>
<path fill="none" stroke="black" d="M2424.13,-287.79C2502.23,-277.21 2602.12,-263.69 2681.23,-252.98"/>
<polygon fill="black" stroke="black" points="2681.32,-256.5 2690.76,-251.69 2680.38,-249.56 2681.32,-256.5"/>
</g>
<!-- 3 -->
<g id="node4" class="node">
<title>3</title>
<ellipse fill="none" stroke="black" cx="1651" cy="-450" rx="449.03" ry="18"/>
<text text-anchor="middle" x="1651" y="-444.95" font-family="Times New Roman,serif" font-size="14.00">Logic: Focus on the negative space &#45;&#45; this will tell you the parameters of each letter. Isolate each one and *decipher*.</text>
</g>
<!-- 20 -->
<g id="node21" class="node">
<title>20</title>
<ellipse fill="none" stroke="black" cx="1510" cy="-378" rx="900.44" ry="18"/>
<text text-anchor="middle" x="1510" y="-372.95" font-family="Times New Roman,serif" font-size="14.00">Stock Certificate: Slowly, it happens &#45;&#45; individual letters coalesce. It&#39;s like watching ice melt to reveal the shrubs underneath. A few seconds later and you can read the entire heading: M &#45;&#45; K &#45;&#45; M &#45;&#45; G. This is a start. Can you read the rest?</text>
</g>
<!-- 3&#45;&gt;20 -->
<g id="edge4" class="edge">
<title>3&#45;&gt;20</title>
<path fill="none" stroke="black" d="M1616.15,-431.7C1597.76,-422.57 1574.98,-411.26 1555.24,-401.46"/>
<polygon fill="black" stroke="black" points="1556.81,-398.33 1546.3,-397.02 1553.7,-404.6 1556.81,-398.33"/>
</g>
<!-- 4 -->
<g id="node5" class="node">
<title>4</title>
<ellipse fill="none" stroke="black" cx="4045" cy="-1314" rx="307.77" ry="18"/>
<text text-anchor="middle" x="4045" y="-1308.95" font-family="Times New Roman,serif" font-size="14.00">Hand/Eye Coordination: Feisty little thing! But don&#39;t worry &#45;&#45; it&#39;s under control.</text>
</g>
<!-- 8 -->
<g id="node9" class="node">
<title>8</title>
<ellipse fill="none" stroke="black" cx="4045" cy="-1242" rx="574.93" ry="18"/>
<text text-anchor="middle" x="4045" y="-1236.95" font-family="Times New Roman,serif" font-size="14.00">Rhetoric: Devious use of Swish there. It&#39;s a font literally *designed* to win legal agreements by way of being almost unreadable through flamboyance.</text>
</g>
<!-- 4&#45;&gt;8 -->
<g id="edge5" class="edge">
<title>4&#45;&gt;8</title>
<path fill="none" stroke="black" d="M4045,-1295.7C4045,-1288.41 4045,-1279.73 4045,-1271.54"/>
<polygon fill="black" stroke="black" points="4048.5,-1271.62 4045,-1261.62 4041.5,-1271.62 4048.5,-1271.62"/>
</g>
<!-- 5 -->
<g id="node6" class="node">
<title>5</title>
<ellipse fill="none" stroke="black" cx="2556" cy="-594" rx="224.85" ry="18"/>
<text text-anchor="middle" x="2556" y="-588.95" font-family="Times New Roman,serif" font-size="14.00">Variable[&quot;inventory.stock_certificate_perception_squint&quot;]</text>
</g>
<!-- 6 -->
<g id="node7" class="node">
<title>6</title>
<polygon fill="none" stroke="black" points="2881,-540 2563.01,-522 2881,-504 3198.99,-522 2881,-540"/>
<text text-anchor="middle" x="2881" y="-516.95" font-family="Times New Roman,serif" font-size="14.00">Variable[&quot;inventory.stock_certificate_perception_squint&quot;]</text>
</g>
<!-- 5&#45;&gt;6 -->
<g id="edge6" class="edge">
<title>5&#45;&gt;6</title>
<path fill="none" stroke="black" d="M2631.79,-576.68C2684.12,-565.4 2753.43,-550.48 2805.67,-539.23"/>
<polygon fill="black" stroke="black" points="2806.36,-542.66 2815.4,-537.13 2804.89,-535.81 2806.36,-542.66"/>
</g>
<!-- 7 -->
<g id="node8" class="node">
<title>7</title>
<polygon fill="none" stroke="black" points="2214,-540 1882.98,-522 2214,-504 2545.02,-522 2214,-540"/>
<text text-anchor="middle" x="2214" y="-516.95" font-family="Times New Roman,serif" font-size="14.00">!(Variable[&quot;inventory.stock_certificate_perception_squint&quot;])</text>
</g>
<!-- 5&#45;&gt;7 -->
<g id="edge7" class="edge">
<title>5&#45;&gt;7</title>
<path fill="none" stroke="black" d="M2476.68,-576.76C2421.3,-565.43 2347.7,-550.37 2292.5,-539.07"/>
<polygon fill="black" stroke="black" points="2293.35,-535.67 2282.85,-537.09 2291.94,-542.53 2293.35,-535.67"/>
</g>
<!-- 29 -->
<g id="node30" class="node">
<title>29</title>
<ellipse fill="none" stroke="black" cx="2843" cy="-450" rx="385.56" ry="18"/>
<text text-anchor="middle" x="2843" y="-444.95" font-family="Times New Roman,serif" font-size="14.00">Perception (Sight): That really didn&#39;t help, did it? How about opening your eyes as wide as possible?</text>
</g>
<!-- 6&#45;&gt;29 -->
<g id="edge8" class="edge">
<title>6&#45;&gt;29</title>
<path fill="none" stroke="black" d="M2871.8,-504.05C2867.62,-496.35 2862.56,-487.03 2857.85,-478.36"/>
<polygon fill="black" stroke="black" points="2860.95,-476.72 2853.1,-469.61 2854.8,-480.06 2860.95,-476.72"/>
</g>
<!-- 18 -->
<g id="node19" class="node">
<title>18</title>
<ellipse fill="none" stroke="black" cx="2214" cy="-450" rx="96.39" ry="18"/>
<text text-anchor="middle" x="2214" y="-444.95" font-family="Times New Roman,serif" font-size="14.00">Jump to: [reading hub]</text>
</g>
<!-- 7&#45;&gt;18 -->
<g id="edge9" class="edge">
<title>7&#45;&gt;18</title>
<path fill="none" stroke="black" d="M2214,-503.7C2214,-496.41 2214,-487.73 2214,-479.54"/>
<polygon fill="black" stroke="black" points="2217.5,-479.62 2214,-469.62 2210.5,-479.62 2217.5,-479.62"/>
</g>
<!-- 10 -->
<g id="node11" class="node">
<title>10</title>
<ellipse fill="none" stroke="black" cx="4045" cy="-1170" rx="64.15" ry="18"/>
<text text-anchor="middle" x="4045" y="-1164.95" font-family="Times New Roman,serif" font-size="14.00">certificate hub</text>
</g>
<!-- 8&#45;&gt;10 -->
<g id="edge10" class="edge">
<title>8&#45;&gt;10</title>
<path fill="none" stroke="black" d="M4045,-1223.7C4045,-1216.41 4045,-1207.73 4045,-1199.54"/>
<polygon fill="black" stroke="black" points="4048.5,-1199.62 4045,-1189.62 4041.5,-1199.62 4048.5,-1199.62"/>
</g>
<!-- 9 -->
<g id="node10" class="node">
<title>9</title>
<ellipse fill="none" stroke="black" cx="162" cy="-234" rx="105.6" ry="18"/>
<text text-anchor="middle" x="162" y="-228.95" font-family="Times New Roman,serif" font-size="14.00">Jump to: [certificate hub]</text>
</g>
<!-- 9&#45;&gt;10 -->
<g id="edge11" class="edge">
<title>9&#45;&gt;10</title>
<path fill="none" stroke="black" d="M119.44,-250.78C71.44,-271.66 0,-313.42 0,-377 0,-1027 0,-1027 0,-1027 0,-1130.29 3414.33,-1163.65 3969.21,-1168.39"/>
<polygon fill="black" stroke="black" points="3969.1,-1171.88 3979.13,-1168.47 3969.16,-1164.89 3969.1,-1171.88"/>
</g>
<!-- 23 -->
<g id="node24" class="node">
<title>23</title>
<ellipse fill="none" stroke="black" cx="4155" cy="-1098" rx="81.55" ry="18"/>
<text text-anchor="middle" x="4155" y="-1092.95" font-family="Times New Roman,serif" font-size="14.00">You: [Put it away.]</text>
</g>
<!-- 10&#45;&gt;23 -->
<g id="edge14" class="edge">
<title>10&#45;&gt;23</title>
<path fill="none" stroke="black" d="M4069.96,-1153.12C4084.66,-1143.76 4103.49,-1131.78 4119.69,-1121.47"/>
<polygon fill="black" stroke="black" points="4121.54,-1124.44 4128.1,-1116.12 4117.78,-1118.54 4121.54,-1124.44"/>
</g>
<!-- 26 -->
<g id="node27" class="node">
<title>26</title>
<ellipse fill="none" stroke="black" cx="4853" cy="-1098" rx="154.22" ry="18"/>
<text text-anchor="middle" x="4853" y="-1092.95" font-family="Times New Roman,serif" font-size="14.00">You: Look at the top of the document.</text>
</g>
<!-- 10&#45;&gt;26 -->
<g id="edge12" class="edge">
<title>10&#45;&gt;26</title>
<path fill="none" stroke="black" d="M4105.73,-1163.74C4235.71,-1152.48 4543.41,-1125.82 4720.78,-1110.45"/>
<polygon fill="black" stroke="black" points="4720.84,-1113.96 4730.5,-1109.61 4720.24,-1106.99 4720.84,-1113.96"/>
</g>
<!-- 27 -->
<g id="node28" class="node">
<title>27</title>
<ellipse fill="none" stroke="black" cx="3577" cy="-1098" rx="131.19" ry="18"/>
<text text-anchor="middle" x="3577" y="-1092.95" font-family="Times New Roman,serif" font-size="14.00">You: Attempt to read the words.</text>
</g>
<!-- 10&#45;&gt;27 -->
<g id="edge13" class="edge">
<title>10&#45;&gt;27</title>
<path fill="none" stroke="black" d="M3989.48,-1160.7C3911.92,-1149.09 3769.96,-1127.86 3674.54,-1113.59"/>
<polygon fill="black" stroke="black" points="3675.34,-1110.17 3664.93,-1112.15 3674.3,-1117.09 3675.34,-1110.17"/>
</g>
<!-- 11 -->
<g id="node12" class="node">
<title>11</title>
<ellipse fill="none" stroke="black" cx="991" cy="-594" rx="199.26" ry="18"/>
<text text-anchor="middle" x="991" y="-588.95" font-family="Times New Roman,serif" font-size="14.00">Variable[&quot;inventory.stock_certificate_logic_style&quot;]</text>
</g>
<!-- 12 -->
<g id="node13" class="node">
<title>12</title>
<polygon fill="none" stroke="black" points="1383,-540 1101.2,-522 1383,-504 1664.8,-522 1383,-540"/>
<text text-anchor="middle" x="1383" y="-516.95" font-family="Times New Roman,serif" font-size="14.00">Variable[&quot;inventory.stock_certificate_logic_style&quot;]</text>
</g>
<!-- 11&#45;&gt;12 -->
<g id="edge15" class="edge">
<title>11&#45;&gt;12</title>
<path fill="none" stroke="black" d="M1078.48,-577.38C1144.61,-565.57 1234.8,-549.46 1299.84,-537.85"/>
<polygon fill="black" stroke="black" points="1300.15,-541.35 1309.38,-536.15 1298.92,-534.46 1300.15,-541.35"/>
</g>
<!-- 13 -->
<g id="node14" class="node">
<title>13</title>
<polygon fill="none" stroke="black" points="706,-540 411.17,-522 706,-504 1000.83,-522 706,-540"/>
<text text-anchor="middle" x="706" y="-516.95" font-family="Times New Roman,serif" font-size="14.00">!(Variable[&quot;inventory.stock_certificate_logic_style&quot;])</text>
</g>
<!-- 11&#45;&gt;13 -->
<g id="edge16" class="edge">
<title>11&#45;&gt;13</title>
<path fill="none" stroke="black" d="M924.18,-576.59C878.89,-565.46 819.22,-550.81 773.74,-539.64"/>
<polygon fill="black" stroke="black" points="774.8,-536.3 764.26,-537.31 773.14,-543.09 774.8,-536.3"/>
</g>
<!-- 12&#45;&gt;3 -->
<g id="edge17" class="edge">
<title>12&#45;&gt;3</title>
<path fill="none" stroke="black" d="M1436.59,-507C1476.02,-496.7 1530.19,-482.56 1574.21,-471.06"/>
<polygon fill="black" stroke="black" points="1574.92,-474.49 1583.71,-468.58 1573.15,-467.72 1574.92,-474.49"/>
</g>
<!-- 47 -->
<g id="node48" class="node">
<title>47</title>
<ellipse fill="none" stroke="black" cx="625" cy="-450" rx="558.55" ry="18"/>
<text text-anchor="middle" x="625" y="-444.95" font-family="Times New Roman,serif" font-size="14.00">Stock Certificate: If it does, it remains hidden from you. All you see is a baffling enigma, a coiled nest of viper&#45;letters &#45;&#45; if they even *are* letters.</text>
</g>
<!-- 13&#45;&gt;47 -->
<g id="edge18" class="edge">
<title>13&#45;&gt;47</title>
<path fill="none" stroke="black" d="M687.21,-504.76C677.26,-496.16 664.81,-485.41 653.68,-475.78"/>
<polygon fill="black" stroke="black" points="656.1,-473.25 646.25,-469.36 651.52,-478.55 656.1,-473.25"/>
</g>
<!-- 14 -->
<g id="node15" class="node">
<title>14</title>
<ellipse fill="none" stroke="black" cx="2626" cy="-810" rx="54.93" ry="18"/>
<text text-anchor="middle" x="2626" y="-804.95" font-family="Times New Roman,serif" font-size="14.00">reading hub</text>
</g>
<!-- 17 -->
<g id="node18" class="node">
<title>17</title>
<ellipse fill="none" stroke="black" cx="1355" cy="-738" rx="108.16" ry="18"/>
<text text-anchor="middle" x="1355" y="-732.95" font-family="Times New Roman,serif" font-size="14.00">You: Focus on the header.</text>
</g>
<!-- 14&#45;&gt;17 -->
<g id="edge20" class="edge">
<title>14&#45;&gt;17</title>
<path fill="none" stroke="black" d="M2572.2,-806.04C2380.87,-795.5 1730.82,-759.7 1467.32,-745.19"/>
<polygon fill="black" stroke="black" points="1467.89,-741.71 1457.72,-744.66 1467.51,-748.7 1467.89,-741.71"/>
</g>
<!-- 40 -->
<g id="node41" class="node">
<title>40</title>
<ellipse fill="none" stroke="black" cx="2579" cy="-738" rx="225.88" ry="18"/>
<text text-anchor="middle" x="2579" y="-732.95" font-family="Times New Roman,serif" font-size="14.00">You: Squint in hope of seeing something within the lines.</text>
</g>
<!-- 14&#45;&gt;40 -->
<g id="edge19" class="edge">
<title>14&#45;&gt;40</title>
<path fill="none" stroke="black" d="M2614.62,-792.05C2609.33,-784.18 2602.91,-774.62 2596.99,-765.79"/>
<polygon fill="black" stroke="black" points="2599.92,-763.88 2591.44,-757.53 2594.11,-767.79 2599.92,-763.88"/>
</g>
<!-- 41 -->
<g id="node42" class="node">
<title>41</title>
<ellipse fill="none" stroke="black" cx="3544" cy="-738" rx="113.79" ry="18"/>
<text text-anchor="middle" x="3544" y="-732.95" font-family="Times New Roman,serif" font-size="14.00">You: Give it up. (Go back.)</text>
</g>
<!-- 14&#45;&gt;41 -->
<g id="edge21" class="edge">
<title>14&#45;&gt;41</title>
<path fill="none" stroke="black" d="M2678.99,-804.96C2824.5,-793.86 3232.64,-762.74 3431.83,-747.55"/>
<polygon fill="black" stroke="black" points="3431.97,-751.05 3441.68,-746.8 3431.44,-744.07 3431.97,-751.05"/>
</g>
<!-- 15 -->
<g id="node16" class="node">
<title>15</title>
<ellipse fill="none" stroke="black" cx="2744" cy="-954" rx="248.91" ry="18"/>
<text text-anchor="middle" x="2744" y="-948.95" font-family="Times New Roman,serif" font-size="14.00">Perception (Sight): You can do this. Maybe squinting will help?</text>
</g>
<!-- 30 -->
<g id="node31" class="node">
<title>30</title>
<ellipse fill="none" stroke="black" cx="2720" cy="-882" rx="425.48" ry="18"/>
<text text-anchor="middle" x="2720" y="-876.95" font-family="Times New Roman,serif" font-size="14.00">Logic: Start with the biggest letters in order to learn the characteristics of the style. Then work your way down.</text>
</g>
<!-- 15&#45;&gt;30 -->
<g id="edge22" class="edge">
<title>15&#45;&gt;30</title>
<path fill="none" stroke="black" d="M2738.07,-935.7C2735.51,-928.24 2732.45,-919.32 2729.59,-910.97"/>
<polygon fill="black" stroke="black" points="2732.91,-909.86 2726.36,-901.54 2726.29,-912.13 2732.91,-909.86"/>
</g>
<!-- 16 -->
<g id="node17" class="node">
<title>16</title>
<ellipse fill="none" stroke="black" cx="2931" cy="-1026" rx="673.2" ry="18"/>
<text text-anchor="middle" x="2931" y="-1020.95" font-family="Times New Roman,serif" font-size="14.00">Stock Certificate: Each letter is shaped like a laugh line being pulled in a million different &#160;directions. They&#39;re all grinning at you &#45;&#45; pleased with practically being indecipherable.</text>
</g>
<!-- 16&#45;&gt;15 -->
<g id="edge23" class="edge">
<title>16&#45;&gt;15</title>
<path fill="none" stroke="black" d="M2884.78,-1007.7C2859.19,-998.12 2827.19,-986.14 2800.16,-976.02"/>
<polygon fill="black" stroke="black" points="2801.7,-972.86 2791.11,-972.63 2799.25,-979.42 2801.7,-972.86"/>
</g>
<!-- 19 -->
<g id="node20" class="node">
<title>19</title>
<ellipse fill="none" stroke="black" cx="991" cy="-666" rx="835.95" ry="18"/>
<text text-anchor="middle" x="991" y="-660.95" font-family="Times New Roman,serif" font-size="14.00">Stock Certificate: A bold, black mesh curves around the oval image at the top of the document. It almost looks as if it were penned with intention. Perhaps it was. You&#39;re starting to think it might actually *say* something.</text>
</g>
<!-- 17&#45;&gt;19 -->
<g id="edge24" class="edge">
<title>17&#45;&gt;19</title>
<path fill="none" stroke="black" d="M1286.11,-723.75C1231.37,-713.23 1154.03,-698.35 1092.25,-686.47"/>
<polygon fill="black" stroke="black" points="1093.27,-683.1 1082.79,-684.65 1091.95,-689.98 1093.27,-683.1"/>
</g>
<!-- 18&#45;&gt;14 -->
<g id="edge25" class="edge">
<title>18&#45;&gt;14</title>
<path fill="none" stroke="black" d="M2143.13,-462.56C2131.72,-464.39 2120.04,-466.26 2109,-468 2056.81,-476.22 1912.43,-467.75 1874,-504 1844.58,-531.75 1855,-552.55 1855,-593 1855,-667 1855,-667 1855,-667 1855,-738.62 2376.22,-788.46 2561.55,-803.92"/>
<polygon fill="black" stroke="black" points="2561.24,-807.41 2571.5,-804.74 2561.82,-800.43 2561.24,-807.41"/>
</g>
<!-- 19&#45;&gt;11 -->
<g id="edge26" class="edge">
<title>19&#45;&gt;11</title>
<path fill="none" stroke="black" d="M991,-647.7C991,-640.41 991,-631.73 991,-623.54"/>
<polygon fill="black" stroke="black" points="994.5,-623.62 991,-613.62 987.5,-623.62 994.5,-623.62"/>
</g>
<!-- 21 -->
<g id="node22" class="node">
<title>21</title>
<ellipse fill="none" stroke="black" cx="912" cy="-306" rx="205.92" ry="18"/>
<text text-anchor="middle" x="912" y="-300.95" font-family="Times New Roman,serif" font-size="14.00">You: Phew! Reading is hard. That&#39;s enough for now.</text>
</g>
<!-- 20&#45;&gt;21 -->
<g id="edge28" class="edge">
<title>20&#45;&gt;21</title>
<path fill="none" stroke="black" d="M1362.95,-359.79C1265.08,-348.33 1137.63,-333.41 1043.2,-322.36"/>
<polygon fill="black" stroke="black" points="1043.7,-318.89 1033.36,-321.21 1042.89,-325.84 1043.7,-318.89"/>
</g>
<!-- 48 -->
<g id="node49" class="node">
<title>48</title>
<ellipse fill="none" stroke="black" cx="1394" cy="-306" rx="125.56" ry="18"/>
<text text-anchor="middle" x="1394" y="-300.95" font-family="Times New Roman,serif" font-size="14.00">You: Try to read the tiny print.</text>
</g>
<!-- 20&#45;&gt;48 -->
<g id="edge27" class="edge">
<title>20&#45;&gt;48</title>
<path fill="none" stroke="black" d="M1481.03,-359.52C1466.13,-350.53 1447.8,-339.47 1431.81,-329.81"/>
<polygon fill="black" stroke="black" points="1433.87,-326.97 1423.5,-324.8 1430.25,-332.96 1433.87,-326.97"/>
</g>
<!-- 21&#45;&gt;9 -->
<g id="edge29" class="edge">
<title>21&#45;&gt;9</title>
<path fill="none" stroke="black" d="M774.87,-292.2C627.42,-278.44 396.4,-256.88 264.13,-244.53"/>
<polygon fill="black" stroke="black" points="264.61,-241.06 254.33,-243.62 263.96,-248.03 264.61,-241.06"/>
</g>
<!-- 22 -->
<g id="node23" class="node">
<title>22</title>
<ellipse fill="none" stroke="black" cx="1471" cy="-234" rx="796.03" ry="18"/>
<text text-anchor="middle" x="1471" y="-228.95" font-family="Times New Roman,serif" font-size="14.00">Stock Certificate: Oh brother, you have tumbled into a *chophouse* of words. This is where letters come to die. A pile of discarded alphabet limbs lie before you in spidery formation. Why are they all so hairy?</text>
</g>
<!-- 25 -->
<g id="node26" class="node">
<title>25</title>
<ellipse fill="none" stroke="black" cx="1907" cy="-162" rx="988.47" ry="18"/>
<text text-anchor="middle" x="1907" y="-156.95" font-family="Times New Roman,serif" font-size="14.00">Stock Certificate: You start to carefully shave it all with your razor eyes. A few &#39;R&#39;s stick out. There&#39;s an &#39;E&#39;. Then, suddenly, some whole words appear: &#39;This certifies that (unreadable) is entitled (unreadable) in the capital stock of Mauer&#45;Koshlai Mercury Group.&#39;</text>
</g>
<!-- 22&#45;&gt;25 -->
<g id="edge30" class="edge">
<title>22&#45;&gt;25</title>
<path fill="none" stroke="black" d="M1578.78,-215.7C1642.18,-205.52 1722.48,-192.63 1787.78,-182.14"/>
<polygon fill="black" stroke="black" points="1788.14,-185.63 1797.46,-180.59 1787.03,-178.72 1788.14,-185.63"/>
</g>
<!-- 24 -->
<g id="node25" class="node">
<title>24</title>
<ellipse fill="none" stroke="black" cx="3651" cy="-666" rx="327.73" ry="18"/>
<text text-anchor="middle" x="3651" y="-660.95" font-family="Times New Roman,serif" font-size="14.00">Stock Certificate: The certificate threatens to coil back into itself as you relax a little.</text>
</g>
<!-- 46 -->
<g id="node47" class="node">
<title>46</title>
<ellipse fill="none" stroke="black" cx="3781" cy="-594" rx="105.6" ry="18"/>
<text text-anchor="middle" x="3781" y="-588.95" font-family="Times New Roman,serif" font-size="14.00">Jump to: [certificate hub]</text>
</g>
<!-- 24&#45;&gt;46 -->
<g id="edge31" class="edge">
<title>24&#45;&gt;46</title>
<path fill="none" stroke="black" d="M3683.13,-647.7C3700.31,-638.45 3721.64,-626.96 3740,-617.08"/>
<polygon fill="black" stroke="black" points="3741.65,-620.16 3748.8,-612.34 3738.33,-614 3741.65,-620.16"/>
</g>
<!-- 33 -->
<g id="node34" class="node">
<title>33</title>
<ellipse fill="none" stroke="black" cx="2422" cy="-90" rx="916.82" ry="18"/>
<text text-anchor="middle" x="2422" y="-84.95" font-family="Times New Roman,serif" font-size="14.00">Savoir Faire: I know business&#45;speak when I see it. This is an official, legitimate, checked&#45;by&#45;the&#45;board certificate. You really are a stock market big&#45;boy now. Sound the money klaxon and bring out the hustle&#45;clowns &#45;&#45; they dance for us today!</text>
</g>
<!-- 25&#45;&gt;33 -->
<g id="edge32" class="edge">
<title>25&#45;&gt;33</title>
<path fill="none" stroke="black" d="M2034.3,-143.7C2109.96,-133.41 2205.97,-120.36 2283.52,-109.82"/>
<polygon fill="black" stroke="black" points="2283.89,-113.31 2293.32,-108.49 2282.94,-106.37 2283.89,-113.31"/>
</g>
<!-- 49 -->
<g id="node50" class="node">
<title>49</title>
<ellipse fill="none" stroke="black" cx="5259" cy="-1026" rx="966.46" ry="18"/>
<text text-anchor="middle" x="5259" y="-1020.95" font-family="Times New Roman,serif" font-size="14.00">Stock Certificate: Inside an oval frame is a grey sketch of a curly&#45;haired girl enthusiastically riding an industrial drill. It&#39;s churning up hard chunks of rocky ground and scattering them into the air. In the hole created beneath is a silvery river of liquid metal.</text>
</g>
<!-- 26&#45;&gt;49 -->
<g id="edge33" class="edge">
<title>26&#45;&gt;49</title>
<path fill="none" stroke="black" d="M4937.12,-1082.5C4997.83,-1072.03 5080.44,-1057.79 5146.77,-1046.35"/>
<polygon fill="black" stroke="black" points="5147.36,-1049.8 5156.62,-1044.65 5146.17,-1042.9 5147.36,-1049.8"/>
</g>
<!-- 27&#45;&gt;16 -->
<g id="edge34" class="edge">
<title>27&#45;&gt;16</title>
<path fill="none" stroke="black" d="M3476.42,-1086.1C3375.57,-1075.17 3218.49,-1058.15 3098.76,-1045.18"/>
<polygon fill="black" stroke="black" points="3099.48,-1041.74 3089.16,-1044.14 3098.73,-1048.7 3099.48,-1041.74"/>
</g>
<!-- 28 -->
<g id="node29" class="node">
<title>28</title>
<ellipse fill="none" stroke="black" cx="2556" cy="-666" rx="672.69" ry="18"/>
<text text-anchor="middle" x="2556" y="-660.95" font-family="Times New Roman,serif" font-size="14.00">Stock Certificate: Your vision blurs into a haze of dark scribbles. It&#39;s like looking at a wrought iron fence through a greasy lens. Not a single recognisable symbol appears to you.</text>
</g>
<!-- 28&#45;&gt;5 -->
<g id="edge35" class="edge">
<title>28&#45;&gt;5</title>
<path fill="none" stroke="black" d="M2556,-647.7C2556,-640.41 2556,-631.73 2556,-623.54"/>
<polygon fill="black" stroke="black" points="2559.5,-623.62 2556,-613.62 2552.5,-623.62 2559.5,-623.62"/>
</g>
<!-- 32 -->
<g id="node33" class="node">
<title>32</title>
<ellipse fill="none" stroke="black" cx="2684" cy="-378" rx="95.88" ry="18"/>
<text text-anchor="middle" x="2684" y="-372.95" font-family="Times New Roman,serif" font-size="14.00">You: Open them wide.</text>
</g>
<!-- 29&#45;&gt;32 -->
<g id="edge36" class="edge">
<title>29&#45;&gt;32</title>
<path fill="none" stroke="black" d="M2803.7,-431.7C2781.61,-421.97 2753.9,-409.77 2730.7,-399.56"/>
<polygon fill="black" stroke="black" points="2732.35,-396.46 2721.79,-395.64 2729.53,-402.87 2732.35,-396.46"/>
</g>
<!-- 42 -->
<g id="node43" class="node">
<title>42</title>
<ellipse fill="none" stroke="black" cx="3093" cy="-378" rx="90.25" ry="18"/>
<text text-anchor="middle" x="3093" y="-372.95" font-family="Times New Roman,serif" font-size="14.00">You: Nah. (Give up.)</text>
</g>
<!-- 29&#45;&gt;42 -->
<g id="edge37" class="edge">
<title>29&#45;&gt;42</title>
<path fill="none" stroke="black" d="M2904.48,-431.79C2943.2,-420.94 2992.99,-407 3031.68,-396.17"/>
<polygon fill="black" stroke="black" points="3032.14,-399.68 3040.82,-393.61 3030.25,-392.94 3032.14,-399.68"/>
</g>
<!-- 30&#45;&gt;14 -->
<g id="edge38" class="edge">
<title>30&#45;&gt;14</title>
<path fill="none" stroke="black" d="M2696.76,-863.7C2684.6,-854.64 2669.56,-843.44 2656.47,-833.69"/>
<polygon fill="black" stroke="black" points="2658.69,-830.98 2648.58,-827.81 2654.51,-836.59 2658.69,-830.98"/>
</g>
<!-- 31 -->
<g id="node32" class="node">
<title>31</title>
<ellipse fill="none" stroke="black" cx="2894" cy="-18" rx="105.6" ry="18"/>
<text text-anchor="middle" x="2894" y="-12.95" font-family="Times New Roman,serif" font-size="14.00">Jump to: [certificate hub]</text>
</g>
<!-- 31&#45;&gt;10 -->
<g id="edge39" class="edge">
<title>31&#45;&gt;10</title>
<path fill="none" stroke="black" d="M2998.43,-21.02C3281.96,-27.88 4045,-56.08 4045,-161 4045,-1027 4045,-1027 4045,-1027 4045,-1066.26 4045,-1111.62 4045,-1140.31"/>
<polygon fill="black" stroke="black" points="4041.5,-1140 4045,-1150 4048.5,-1140 4041.5,-1140"/>
</g>
<!-- 32&#45;&gt;2 -->
<g id="edge40" class="edge">
<title>32&#45;&gt;2</title>
<path fill="none" stroke="black" d="M2616.59,-364.81C2557.92,-354.19 2471.86,-338.63 2403.82,-326.32"/>
<polygon fill="black" stroke="black" points="2404.58,-322.9 2394.12,-324.57 2403.34,-329.79 2404.58,-322.9"/>
</g>
<!-- 33&#45;&gt;31 -->
<g id="edge41" class="edge">
<title>33&#45;&gt;31</title>
<path fill="none" stroke="black" d="M2538.98,-71.65C2621.3,-59.44 2729.78,-43.35 2805.07,-32.19"/>
<polygon fill="black" stroke="black" points="2805.52,-35.66 2814.9,-30.73 2804.49,-28.74 2805.52,-35.66"/>
</g>
<!-- 34 -->
<g id="node35" class="node">
<title>34</title>
<ellipse fill="none" stroke="black" cx="5182" cy="-954" rx="631.23" ry="18"/>
<text text-anchor="middle" x="5182" y="-948.95" font-family="Times New Roman,serif" font-size="14.00">Conceptualization: An underground kingdom of shimmering spillways! Silver stars melted down and filtered for their precious discharge. What a place of inspiration!</text>
</g>
<!-- 45 -->
<g id="node46" class="node">
<title>45</title>
<ellipse fill="none" stroke="black" cx="5105" cy="-882" rx="657.84" ry="18"/>
<text text-anchor="middle" x="5105" y="-876.95" font-family="Times New Roman,serif" font-size="14.00">Physical Instrument: Her form is terrible! She needs to straighten her back and increase the downward pressure on that machine. Has *no one* taught her about ergonomics?</text>
</g>
<!-- 34&#45;&gt;45 -->
<g id="edge42" class="edge">
<title>34&#45;&gt;45</title>
<path fill="none" stroke="black" d="M5162.97,-935.7C5153.8,-927.37 5142.65,-917.22 5132.57,-908.07"/>
<polygon fill="black" stroke="black" points="5134.96,-905.5 5125.2,-901.37 5130.25,-910.68 5134.96,-905.5"/>
</g>
<!-- 35 -->
<g id="node36" class="node">
<title>35</title>
<ellipse fill="none" stroke="black" cx="329" cy="-378" rx="262.73" ry="18"/>
<text text-anchor="middle" x="329" y="-372.95" font-family="Times New Roman,serif" font-size="14.00">Logic: There must be *some* form of logic hidden away in there...</text>
</g>
<!-- 37 -->
<g id="node38" class="node">
<title>37</title>
<ellipse fill="none" stroke="black" cx="226" cy="-306" rx="96.39" ry="18"/>
<text text-anchor="middle" x="226" y="-300.95" font-family="Times New Roman,serif" font-size="14.00">Jump to: [reading hub]</text>
</g>
<!-- 35&#45;&gt;37 -->
<g id="edge43" class="edge">
<title>35&#45;&gt;37</title>
<path fill="none" stroke="black" d="M303.54,-359.7C290.47,-350.81 274.37,-339.87 260.23,-330.26"/>
<polygon fill="black" stroke="black" points="262.3,-327.44 252.06,-324.71 258.37,-333.23 262.3,-327.44"/>
</g>
<!-- 36 -->
<g id="node37" class="node">
<title>36</title>
<ellipse fill="none" stroke="black" cx="3171" cy="-306" rx="96.39" ry="18"/>
<text text-anchor="middle" x="3171" y="-300.95" font-family="Times New Roman,serif" font-size="14.00">Jump to: [reading hub]</text>
</g>
<!-- 36&#45;&gt;14 -->
<g id="edge44" class="edge">
<title>36&#45;&gt;14</title>
<path fill="none" stroke="black" d="M3189.66,-323.81C3214.95,-348.54 3257,-397.41 3257,-449 3257,-667 3257,-667 3257,-667 3257,-781.8 2854.47,-803.8 2692.41,-808.01"/>
<polygon fill="black" stroke="black" points="2692.59,-804.5 2682.68,-808.25 2692.76,-811.5 2692.59,-804.5"/>
</g>
<!-- 37&#45;&gt;14 -->
<g id="edge45" class="edge">
<title>37&#45;&gt;14</title>
<path fill="none" stroke="black" d="M142.97,-315.34C112,-322.55 79.05,-335.79 57,-360 29.77,-389.91 38,-408.55 38,-449 38,-667 38,-667 38,-667 38,-797.19 2153.75,-808.04 2559.25,-808.92"/>
<polygon fill="black" stroke="black" points="2559.23,-812.42 2569.24,-808.94 2559.24,-805.42 2559.23,-812.42"/>
</g>
<!-- 38 -->
<g id="node39" class="node">
<title>38</title>
<ellipse fill="none" stroke="black" cx="4608" cy="-810" rx="105.6" ry="18"/>
<text text-anchor="middle" x="4608" y="-804.95" font-family="Times New Roman,serif" font-size="14.00">Jump to: [certificate hub]</text>
</g>
<!-- 38&#45;&gt;10 -->
<g id="edge46" class="edge">
<title>38&#45;&gt;10</title>
<path fill="none" stroke="black" d="M4541.46,-824.4C4441.71,-846.42 4265,-893.79 4265,-953 4265,-1027 4265,-1027 4265,-1027 4265,-1067.45 4273.91,-1086.73 4246,-1116 4227.59,-1135.3 4163.43,-1149.99 4112.48,-1158.95"/>
<polygon fill="black" stroke="black" points="4111.93,-1155.49 4102.67,-1160.63 4113.12,-1162.39 4111.93,-1155.49"/>
</g>
<!-- 39&#45;&gt;4 -->
<g id="edge47" class="edge">
<title>39&#45;&gt;4</title>
<path fill="none" stroke="black" d="M4045,-1367.7C4045,-1360.41 4045,-1351.73 4045,-1343.54"/>
<polygon fill="black" stroke="black" points="4048.5,-1343.62 4045,-1333.62 4041.5,-1343.62 4048.5,-1343.62"/>
</g>
<!-- 40&#45;&gt;28 -->
<g id="edge48" class="edge">
<title>40&#45;&gt;28</title>
<path fill="none" stroke="black" d="M2573.31,-719.7C2570.86,-712.24 2567.93,-703.32 2565.19,-694.97"/>
<polygon fill="black" stroke="black" points="2568.54,-693.95 2562.09,-685.54 2561.89,-696.14 2568.54,-693.95"/>
</g>
<!-- 41&#45;&gt;24 -->
<g id="edge49" class="edge">
<title>41&#45;&gt;24</title>
<path fill="none" stroke="black" d="M3569.9,-720.05C3583.5,-711.16 3600.37,-700.12 3615.2,-690.42"/>
<polygon fill="black" stroke="black" points="3616.87,-693.51 3623.33,-685.1 3613.04,-687.65 3616.87,-693.51"/>
</g>
<!-- 42&#45;&gt;36 -->
<g id="edge50" class="edge">
<title>42&#45;&gt;36</title>
<path fill="none" stroke="black" d="M3111.88,-360.05C3121.39,-351.52 3133.1,-341.01 3143.58,-331.61"/>
<polygon fill="black" stroke="black" points="3145.79,-334.33 3150.9,-325.04 3141.12,-329.12 3145.79,-334.33"/>
</g>
<!-- 43 -->
<g id="node44" class="node">
<title>43</title>
<ellipse fill="none" stroke="black" cx="3054" cy="-162" rx="96.39" ry="18"/>
<text text-anchor="middle" x="3054" y="-156.95" font-family="Times New Roman,serif" font-size="14.00">Jump to: [reading hub]</text>
</g>
<!-- 43&#45;&gt;14 -->
<g id="edge51" class="edge">
<title>43&#45;&gt;14</title>
<path fill="none" stroke="black" d="M3126.31,-174.26C3197.3,-189.92 3295,-225.84 3295,-305 3295,-667 3295,-667 3295,-667 3295,-726.17 3250.2,-732.28 3196,-756 3107.18,-794.87 2822.65,-805.28 2692.32,-808.03"/>
<polygon fill="black" stroke="black" points="2692.39,-804.53 2682.47,-808.23 2692.54,-811.52 2692.39,-804.53"/>
</g>
<!-- 44&#45;&gt;43 -->
<g id="edge52" class="edge">
<title>44&#45;&gt;43</title>
<path fill="none" stroke="black" d="M2873.02,-215.79C2909.53,-205.14 2956.29,-191.5 2993.13,-180.75"/>
<polygon fill="black" stroke="black" points="2993.66,-184.24 3002.28,-178.08 2991.7,-177.52 2993.66,-184.24"/>
</g>
<!-- 45&#45;&gt;38 -->
<g id="edge53" class="edge">
<title>45&#45;&gt;38</title>
<path fill="none" stroke="black" d="M4983.1,-863.83C4895.13,-851.44 4778.27,-834.98 4698.51,-823.75"/>
<polygon fill="black" stroke="black" points="4699.4,-820.34 4689.01,-822.41 4698.43,-827.27 4699.4,-820.34"/>
</g>
<!-- 46&#45;&gt;10 -->
<g id="edge54" class="edge">
<title>46&#45;&gt;10</title>
<path fill="none" stroke="black" d="M3859.73,-606.39C3910.43,-615.33 3970.11,-629.37 3988,-648 4016.02,-677.17 4007,-696.55 4007,-737 4007,-1027 4007,-1027 4007,-1027 4007,-1067.82 4021.84,-1113.07 4032.97,-1141.28"/>
<polygon fill="black" stroke="black" points="4029.72,-1142.57 4036.74,-1150.51 4036.2,-1139.92 4029.72,-1142.57"/>
</g>
<!-- 47&#45;&gt;35 -->
<g id="edge55" class="edge">
<title>47&#45;&gt;35</title>
<path fill="none" stroke="black" d="M551.83,-431.7C509.14,-421.6 455.18,-408.84 411.05,-398.4"/>
<polygon fill="black" stroke="black" points="412.06,-395.05 401.52,-396.15 410.45,-401.86 412.06,-395.05"/>
</g>
<!-- 48&#45;&gt;22 -->
<g id="edge56" class="edge">
<title>48&#45;&gt;22</title>
<path fill="none" stroke="black" d="M1412.64,-288.05C1421.96,-279.58 1433.42,-269.17 1443.7,-259.82"/>
<polygon fill="black" stroke="black" points="1445.83,-262.61 1450.88,-253.29 1441.12,-257.43 1445.83,-262.61"/>
</g>
<!-- 49&#45;&gt;34 -->
<g id="edge57" class="edge">
<title>49&#45;&gt;34</title>
<path fill="none" stroke="black" d="M5239.97,-1007.7C5230.8,-999.37 5219.65,-989.22 5209.57,-980.07"/>
<polygon fill="black" stroke="black" points="5211.96,-977.5 5202.2,-973.37 5207.25,-982.68 5211.96,-977.5"/>
</g>
</g>
</svg>
