<?xml version="1.0" encoding="UTF-8" standalone="no"?>
<!DOCTYPE svg PUBLIC "-//W3C//DTD SVG 1.1//EN"
 "http://www.w3.org/Graphics/SVG/1.1/DTD/svg11.dtd">
<!-- Generated by graphviz version 12.2.1 (20241206.2353)
 -->
<!-- Title: G Pages: 1 -->
<svg width="2642pt" height="1268pt"
 viewBox="0.00 0.00 2642.48 1268.00" xmlns="http://www.w3.org/2000/svg" xmlns:xlink="http://www.w3.org/1999/xlink">
<g id="graph0" class="graph" transform="scale(1 1) rotate(0) translate(4 1264)">
<title>G</title>
<polygon fill="white" stroke="none" points="-4,4 -4,-1264 2638.48,-1264 2638.48,4 -4,4"/>
<!-- 0 -->
<g id="node1" class="node">
<title>0</title>
<ellipse fill="none" stroke="black" cx="1143.55" cy="-1242" rx="39.07" ry="18"/>
<text text-anchor="middle" x="1143.55" y="-1236.95" font-family="Times New Roman,serif" font-size="14.00">START</text>
</g>
<!-- 1 -->
<g id="node2" class="node">
<title>1</title>
<ellipse fill="none" stroke="black" cx="1143.55" cy="-1170" rx="29.86" ry="18"/>
<text text-anchor="middle" x="1143.55" y="-1164.95" font-family="Times New Roman,serif" font-size="14.00">input</text>
</g>
<!-- 0&#45;&gt;1 -->
<g id="edge1" class="edge">
<title>0&#45;&gt;1</title>
<path fill="none" stroke="black" d="M1143.55,-1223.7C1143.55,-1216.41 1143.55,-1207.73 1143.55,-1199.54"/>
<polygon fill="black" stroke="black" points="1147.05,-1199.62 1143.55,-1189.62 1140.05,-1199.62 1147.05,-1199.62"/>
</g>
<!-- 10 -->
<g id="node11" class="node">
<title>10</title>
<ellipse fill="none" stroke="black" cx="1143.55" cy="-1098" rx="1143.55" ry="18"/>
<text text-anchor="middle" x="1143.55" y="-1092.95" font-family="Times New Roman,serif" font-size="14.00">Photo of Tattoos: An intricate web of blue lines stretches across the torso of the hanged man, from the right shoulder to the solar plexus. Each time the lines intersect, a small white star is formed in their crossing. Hundreds of fading asterisks riddle his skin; their concentration is highest around his heart.</text>
</g>
<!-- 1&#45;&gt;10 -->
<g id="edge2" class="edge">
<title>1&#45;&gt;10</title>
<path fill="none" stroke="black" d="M1143.55,-1151.7C1143.55,-1144.41 1143.55,-1135.73 1143.55,-1127.54"/>
<polygon fill="black" stroke="black" points="1147.05,-1127.62 1143.55,-1117.62 1140.05,-1127.62 1147.05,-1127.62"/>
</g>
<!-- 2 -->
<g id="node3" class="node">
<title>2</title>
<ellipse fill="none" stroke="black" cx="1333.55" cy="-162" rx="213.08" ry="18"/>
<text text-anchor="middle" x="1333.55" y="-156.95" font-family="Times New Roman,serif" font-size="14.00">Suggestion: Someone close to the victim might know.</text>
</g>
<!-- 17 -->
<g id="node17" class="node">
<title>17</title>
<ellipse fill="none" stroke="black" cx="1333.55" cy="-90" rx="253.52" ry="18"/>
<text text-anchor="middle" x="1333.55" y="-84.95" font-family="Times New Roman,serif" font-size="14.00">Encyclopedia: Someone who knows about history could tell you.</text>
</g>
<!-- 2&#45;&gt;17 -->
<g id="edge3" class="edge">
<title>2&#45;&gt;17</title>
<path fill="none" stroke="black" d="M1333.55,-143.7C1333.55,-136.41 1333.55,-127.73 1333.55,-119.54"/>
<polygon fill="black" stroke="black" points="1337.05,-119.62 1333.55,-109.62 1330.05,-119.62 1337.05,-119.62"/>
</g>
<!-- 3 -->
<g id="node4" class="node">
<title>3</title>
<ellipse fill="none" stroke="black" cx="982.55" cy="-162" rx="99.46" ry="18"/>
<text text-anchor="middle" x="982.55" y="-156.95" font-family="Times New Roman,serif" font-size="14.00">Photo of Tattoos: Gone.</text>
</g>
<!-- 16 -->
<g id="node16" class="node">
<title>16</title>
<ellipse fill="none" stroke="black" cx="1333.55" cy="-18" rx="105.09" ry="18"/>
<text text-anchor="middle" x="1333.55" y="-12.95" font-family="Times New Roman,serif" font-size="14.00">Jump to: [interacthereyo]</text>
</g>
<!-- 3&#45;&gt;16 -->
<g id="edge4" class="edge">
<title>3&#45;&gt;16</title>
<path fill="none" stroke="black" d="M994.4,-143.92C1009.57,-123.43 1037.85,-89.65 1070.55,-72 1117.51,-46.65 1175.12,-33.38 1224.44,-26.45"/>
<polygon fill="black" stroke="black" points="1224.85,-29.92 1234.3,-25.14 1223.93,-22.98 1224.85,-29.92"/>
</g>
<!-- 4 -->
<g id="node5" class="node">
<title>4</title>
<ellipse fill="none" stroke="black" cx="1333.55" cy="-234" rx="344.11" ry="18"/>
<text text-anchor="middle" x="1333.55" y="-228.95" font-family="Times New Roman,serif" font-size="14.00">Photo of Tattoos: For you to discover. You&#39;ve gotten as far as you will without assistance.</text>
</g>
<!-- 4&#45;&gt;2 -->
<g id="edge5" class="edge">
<title>4&#45;&gt;2</title>
<path fill="none" stroke="black" d="M1333.55,-215.7C1333.55,-208.41 1333.55,-199.73 1333.55,-191.54"/>
<polygon fill="black" stroke="black" points="1337.05,-191.62 1333.55,-181.62 1330.05,-191.62 1337.05,-191.62"/>
</g>
<!-- 5 -->
<g id="node6" class="node">
<title>5</title>
<ellipse fill="none" stroke="black" cx="1403.55" cy="-738" rx="479.73" ry="18"/>
<text text-anchor="middle" x="1403.55" y="-732.95" font-family="Times New Roman,serif" font-size="14.00">Photo of Tattoos: It almost looks like the electronic patterns inside a radiocomputer or an old filament memory, but not quite.</text>
</g>
<!-- 6 -->
<g id="node7" class="node">
<title>6</title>
<ellipse fill="none" stroke="black" cx="1422.55" cy="-378" rx="63.63" ry="18"/>
<text text-anchor="middle" x="1422.55" y="-372.95" font-family="Times New Roman,serif" font-size="14.00">interacthereyo</text>
</g>
<!-- 5&#45;&gt;6 -->
<g id="edge6" class="edge">
<title>5&#45;&gt;6</title>
<path fill="none" stroke="black" d="M1399.7,-719.61C1394.15,-692.94 1384.55,-640.27 1384.55,-595 1384.55,-595 1384.55,-595 1384.55,-521 1384.55,-480.18 1399.39,-434.93 1410.52,-406.72"/>
<polygon fill="black" stroke="black" points="1413.75,-408.08 1414.29,-397.49 1407.27,-405.43 1413.75,-408.08"/>
</g>
<!-- 12 -->
<g id="node12" class="node">
<title>12</title>
<ellipse fill="none" stroke="black" cx="990.55" cy="-306" rx="83.6" ry="18"/>
<text text-anchor="middle" x="990.55" y="-300.95" font-family="Times New Roman,serif" font-size="14.00">You: Who are you?</text>
</g>
<!-- 6&#45;&gt;12 -->
<g id="edge8" class="edge">
<title>6&#45;&gt;12</title>
<path fill="none" stroke="black" d="M1368.27,-368.21C1292.26,-355.89 1153.72,-333.44 1067.21,-319.42"/>
<polygon fill="black" stroke="black" points="1067.8,-315.97 1057.37,-317.83 1066.68,-322.88 1067.8,-315.97"/>
</g>
<!-- 19 -->
<g id="node19" class="node">
<title>19</title>
<ellipse fill="none" stroke="black" cx="1278.55" cy="-306" rx="158.83" ry="18"/>
<text text-anchor="middle" x="1278.55" y="-300.95" font-family="Times New Roman,serif" font-size="14.00">You: What&#39;s the meaning of this tattoo?</text>
</g>
<!-- 6&#45;&gt;19 -->
<g id="edge7" class="edge">
<title>6&#45;&gt;19</title>
<path fill="none" stroke="black" d="M1391.66,-361.98C1371.83,-352.34 1345.73,-339.66 1323.61,-328.9"/>
<polygon fill="black" stroke="black" points="1325.32,-325.84 1314.8,-324.62 1322.26,-332.14 1325.32,-325.84"/>
</g>
<!-- 23 -->
<g id="node23" class="node">
<title>23</title>
<ellipse fill="none" stroke="black" cx="1566.55" cy="-306" rx="111.23" ry="18"/>
<text text-anchor="middle" x="1566.55" y="-300.95" font-family="Times New Roman,serif" font-size="14.00">You: [Put the photo away.]</text>
</g>
<!-- 6&#45;&gt;23 -->
<g id="edge9" class="edge">
<title>6&#45;&gt;23</title>
<path fill="none" stroke="black" d="M1453.44,-361.98C1473.49,-352.24 1499.93,-339.38 1522.21,-328.56"/>
<polygon fill="black" stroke="black" points="1523.61,-331.77 1531.07,-324.25 1520.55,-325.47 1523.61,-331.77"/>
</g>
<!-- 7 -->
<g id="node8" class="node">
<title>7</title>
<ellipse fill="none" stroke="black" cx="1143.55" cy="-1026" rx="159.85" ry="18"/>
<text text-anchor="middle" x="1143.55" y="-1020.95" font-family="Times New Roman,serif" font-size="14.00">Variable[&quot;yard.hanged_tats_night_sky&quot;]</text>
</g>
<!-- 8 -->
<g id="node9" class="node">
<title>8</title>
<polygon fill="none" stroke="black" points="902.55,-972 676.48,-954 902.55,-936 1128.62,-954 902.55,-972"/>
<text text-anchor="middle" x="902.55" y="-948.95" font-family="Times New Roman,serif" font-size="14.00">Variable[&quot;yard.hanged_tats_night_sky&quot;]</text>
</g>
<!-- 7&#45;&gt;8 -->
<g id="edge10" class="edge">
<title>7&#45;&gt;8</title>
<path fill="none" stroke="black" d="M1087.35,-1008.68C1049.25,-997.61 999.01,-983.02 960.53,-971.84"/>
<polygon fill="black" stroke="black" points="961.54,-968.49 950.96,-969.06 959.59,-975.21 961.54,-968.49"/>
</g>
<!-- 9 -->
<g id="node10" class="node">
<title>9</title>
<polygon fill="none" stroke="black" points="1397.55,-972 1158.45,-954 1397.55,-936 1636.65,-954 1397.55,-972"/>
<text text-anchor="middle" x="1397.55" y="-948.95" font-family="Times New Roman,serif" font-size="14.00">!(Variable[&quot;yard.hanged_tats_night_sky&quot;])</text>
</g>
<!-- 7&#45;&gt;9 -->
<g id="edge11" class="edge">
<title>7&#45;&gt;9</title>
<path fill="none" stroke="black" d="M1202.14,-1008.85C1242.54,-997.72 1296.09,-982.96 1336.92,-971.71"/>
<polygon fill="black" stroke="black" points="1337.64,-975.14 1346.35,-969.11 1335.78,-968.39 1337.64,-975.14"/>
</g>
<!-- 18 -->
<g id="node18" class="node">
<title>18</title>
<ellipse fill="none" stroke="black" cx="933.55" cy="-450" rx="403.99" ry="18"/>
<text text-anchor="middle" x="933.55" y="-444.95" font-family="Times New Roman,serif" font-size="14.00">Photo of Tattoos: It still kind of looks like a map of the stars in the night sky, but... something&#39;s not right.</text>
</g>
<!-- 8&#45;&gt;18 -->
<g id="edge12" class="edge">
<title>8&#45;&gt;18</title>
<path fill="none" stroke="black" d="M901.17,-935.96C899.13,-909.32 895.55,-856.17 895.55,-811 895.55,-811 895.55,-811 895.55,-593 895.55,-552.18 910.39,-506.93 921.52,-478.72"/>
<polygon fill="black" stroke="black" points="924.75,-480.08 925.29,-469.49 918.27,-477.43 924.75,-480.08"/>
</g>
<!-- 20 -->
<g id="node20" class="node">
<title>20</title>
<ellipse fill="none" stroke="black" cx="1403.55" cy="-882" rx="186.47" ry="18"/>
<text text-anchor="middle" x="1403.55" y="-876.95" font-family="Times New Roman,serif" font-size="14.00">Variable[&quot;yard.hanged_tats_micro_electronic&quot;]</text>
</g>
<!-- 9&#45;&gt;20 -->
<g id="edge13" class="edge">
<title>9&#45;&gt;20</title>
<path fill="none" stroke="black" d="M1399.03,-935.7C1399.66,-928.41 1400.4,-919.73 1401.1,-911.54"/>
<polygon fill="black" stroke="black" points="1404.59,-911.87 1401.95,-901.61 1397.61,-911.28 1404.59,-911.87"/>
</g>
<!-- 10&#45;&gt;7 -->
<g id="edge14" class="edge">
<title>10&#45;&gt;7</title>
<path fill="none" stroke="black" d="M1143.55,-1079.7C1143.55,-1072.41 1143.55,-1063.73 1143.55,-1055.54"/>
<polygon fill="black" stroke="black" points="1147.05,-1055.62 1143.55,-1045.62 1140.05,-1055.62 1147.05,-1055.62"/>
</g>
<!-- 12&#45;&gt;3 -->
<g id="edge15" class="edge">
<title>12&#45;&gt;3</title>
<path fill="none" stroke="black" d="M986.49,-287.93C984.24,-277.6 981.68,-264.12 980.55,-252 978.68,-231.97 979.23,-209.29 980.22,-191.85"/>
<polygon fill="black" stroke="black" points="983.7,-192.16 980.87,-181.95 976.72,-191.7 983.7,-192.16"/>
</g>
<!-- 13 -->
<g id="node13" class="node">
<title>13</title>
<ellipse fill="none" stroke="black" cx="2084.55" cy="-738" rx="183.4" ry="18"/>
<text text-anchor="middle" x="2084.55" y="-732.95" font-family="Times New Roman,serif" font-size="14.00">Variable[&quot;yard.hanged_tats_national_pattern&quot;]</text>
</g>
<!-- 14 -->
<g id="node14" class="node">
<title>14</title>
<polygon fill="none" stroke="black" points="1748.55,-684 1489.19,-666 1748.55,-648 2007.91,-666 1748.55,-684"/>
<text text-anchor="middle" x="1748.55" y="-660.95" font-family="Times New Roman,serif" font-size="14.00">Variable[&quot;yard.hanged_tats_national_pattern&quot;]</text>
</g>
<!-- 13&#45;&gt;14 -->
<g id="edge16" class="edge">
<title>13&#45;&gt;14</title>
<path fill="none" stroke="black" d="M2008.73,-721.2C1953.04,-709.6 1877.8,-693.93 1822.55,-682.42"/>
<polygon fill="black" stroke="black" points="1823.41,-679.02 1812.91,-680.41 1821.99,-685.87 1823.41,-679.02"/>
</g>
<!-- 15 -->
<g id="node15" class="node">
<title>15</title>
<polygon fill="none" stroke="black" points="2298.55,-684 2026.16,-666 2298.55,-648 2570.94,-666 2298.55,-684"/>
<text text-anchor="middle" x="2298.55" y="-660.95" font-family="Times New Roman,serif" font-size="14.00">!(Variable[&quot;yard.hanged_tats_national_pattern&quot;])</text>
</g>
<!-- 13&#45;&gt;15 -->
<g id="edge17" class="edge">
<title>13&#45;&gt;15</title>
<path fill="none" stroke="black" d="M2135.81,-720.23C2168.25,-709.62 2210.17,-695.91 2243.34,-685.06"/>
<polygon fill="black" stroke="black" points="2244.37,-688.4 2252.79,-681.97 2242.2,-681.75 2244.37,-688.4"/>
</g>
<!-- 27 -->
<g id="node27" class="node">
<title>27</title>
<ellipse fill="none" stroke="black" cx="1748.55" cy="-594" rx="336.43" ry="18"/>
<text text-anchor="middle" x="1748.55" y="-588.95" font-family="Times New Roman,serif" font-size="14.00">Photo of Tattoos: The pattern still kind of has an ethnic feel to it, but nothing familiar...</text>
</g>
<!-- 14&#45;&gt;27 -->
<g id="edge18" class="edge">
<title>14&#45;&gt;27</title>
<path fill="none" stroke="black" d="M1748.55,-647.7C1748.55,-640.41 1748.55,-631.73 1748.55,-623.54"/>
<polygon fill="black" stroke="black" points="1752.05,-623.62 1748.55,-613.62 1745.05,-623.62 1752.05,-623.62"/>
</g>
<!-- 24 -->
<g id="node24" class="node">
<title>24</title>
<ellipse fill="none" stroke="black" cx="2298.55" cy="-594" rx="158.32" ry="18"/>
<text text-anchor="middle" x="2298.55" y="-588.95" font-family="Times New Roman,serif" font-size="14.00">Variable[&quot;yard.hanged_tats_insepcted&quot;]</text>
</g>
<!-- 15&#45;&gt;24 -->
<g id="edge19" class="edge">
<title>15&#45;&gt;24</title>
<path fill="none" stroke="black" d="M2298.55,-647.7C2298.55,-640.41 2298.55,-631.73 2298.55,-623.54"/>
<polygon fill="black" stroke="black" points="2302.05,-623.62 2298.55,-613.62 2295.05,-623.62 2302.05,-623.62"/>
</g>
<!-- 16&#45;&gt;6 -->
<g id="edge20" class="edge">
<title>16&#45;&gt;6</title>
<path fill="none" stroke="black" d="M1426.78,-26.67C1478.7,-33.62 1543.39,-46.86 1596.55,-72 1653.09,-98.74 1705.55,-98.46 1705.55,-161 1705.55,-235 1705.55,-235 1705.55,-235 1705.55,-275.45 1715.32,-295.57 1686.55,-324 1659.93,-350.3 1563.36,-364.43 1494.74,-371.33"/>
<polygon fill="black" stroke="black" points="1494.68,-367.82 1485.07,-372.27 1495.36,-374.79 1494.68,-367.82"/>
</g>
<!-- 17&#45;&gt;16 -->
<g id="edge21" class="edge">
<title>17&#45;&gt;16</title>
<path fill="none" stroke="black" d="M1333.55,-71.7C1333.55,-64.41 1333.55,-55.73 1333.55,-47.54"/>
<polygon fill="black" stroke="black" points="1337.05,-47.62 1333.55,-37.62 1330.05,-47.62 1337.05,-47.62"/>
</g>
<!-- 18&#45;&gt;6 -->
<g id="edge22" class="edge">
<title>18&#45;&gt;6</title>
<path fill="none" stroke="black" d="M1050.06,-432.32C1145.37,-418.68 1276.83,-399.86 1355.4,-388.61"/>
<polygon fill="black" stroke="black" points="1355.69,-392.11 1365.1,-387.22 1354.7,-385.18 1355.69,-392.11"/>
</g>
<!-- 19&#45;&gt;4 -->
<g id="edge23" class="edge">
<title>19&#45;&gt;4</title>
<path fill="none" stroke="black" d="M1292.15,-287.7C1298.47,-279.64 1306.13,-269.89 1313.14,-260.98"/>
<polygon fill="black" stroke="black" points="1315.75,-263.32 1319.18,-253.29 1310.25,-259 1315.75,-263.32"/>
</g>
<!-- 21 -->
<g id="node21" class="node">
<title>21</title>
<polygon fill="none" stroke="black" points="1403.55,-828 1139.84,-810 1403.55,-792 1667.26,-810 1403.55,-828"/>
<text text-anchor="middle" x="1403.55" y="-804.95" font-family="Times New Roman,serif" font-size="14.00">Variable[&quot;yard.hanged_tats_micro_electronic&quot;]</text>
</g>
<!-- 20&#45;&gt;21 -->
<g id="edge24" class="edge">
<title>20&#45;&gt;21</title>
<path fill="none" stroke="black" d="M1403.55,-863.7C1403.55,-856.41 1403.55,-847.73 1403.55,-839.54"/>
<polygon fill="black" stroke="black" points="1407.05,-839.62 1403.55,-829.62 1400.05,-839.62 1407.05,-839.62"/>
</g>
<!-- 22 -->
<g id="node22" class="node">
<title>22</title>
<polygon fill="none" stroke="black" points="2022.55,-828 1745.81,-810 2022.55,-792 2299.29,-810 2022.55,-828"/>
<text text-anchor="middle" x="2022.55" y="-804.95" font-family="Times New Roman,serif" font-size="14.00">!(Variable[&quot;yard.hanged_tats_micro_electronic&quot;])</text>
</g>
<!-- 20&#45;&gt;22 -->
<g id="edge25" class="edge">
<title>20&#45;&gt;22</title>
<path fill="none" stroke="black" d="M1521.44,-867.67C1634.37,-854.9 1803.41,-835.78 1913.35,-823.35"/>
<polygon fill="black" stroke="black" points="1913.41,-826.86 1922.96,-822.26 1912.63,-819.91 1913.41,-826.86"/>
</g>
<!-- 21&#45;&gt;5 -->
<g id="edge26" class="edge">
<title>21&#45;&gt;5</title>
<path fill="none" stroke="black" d="M1403.55,-791.7C1403.55,-784.41 1403.55,-775.73 1403.55,-767.54"/>
<polygon fill="black" stroke="black" points="1407.05,-767.62 1403.55,-757.62 1400.05,-767.62 1407.05,-767.62"/>
</g>
<!-- 22&#45;&gt;13 -->
<g id="edge27" class="edge">
<title>22&#45;&gt;13</title>
<path fill="none" stroke="black" d="M2036.93,-792.76C2044.3,-784.44 2053.46,-774.1 2061.76,-764.73"/>
<polygon fill="black" stroke="black" points="2064.37,-767.06 2068.38,-757.26 2059.13,-762.42 2064.37,-767.06"/>
</g>
<!-- 25 -->
<g id="node25" class="node">
<title>25</title>
<polygon fill="none" stroke="black" points="1913.55,-540 1689.65,-522 1913.55,-504 2137.45,-522 1913.55,-540"/>
<text text-anchor="middle" x="1913.55" y="-516.95" font-family="Times New Roman,serif" font-size="14.00">Variable[&quot;yard.hanged_tats_insepcted&quot;]</text>
</g>
<!-- 24&#45;&gt;25 -->
<g id="edge28" class="edge">
<title>24&#45;&gt;25</title>
<path fill="none" stroke="black" d="M2216.9,-578.15C2150.24,-566.03 2056.66,-549.02 1991.12,-537.1"/>
<polygon fill="black" stroke="black" points="1992,-533.71 1981.53,-535.36 1990.74,-540.59 1992,-533.71"/>
</g>
<!-- 26 -->
<g id="node26" class="node">
<title>26</title>
<polygon fill="none" stroke="black" points="2397.55,-540 2160.62,-522 2397.55,-504 2634.48,-522 2397.55,-540"/>
<text text-anchor="middle" x="2397.55" y="-516.95" font-family="Times New Roman,serif" font-size="14.00">!(Variable[&quot;yard.hanged_tats_insepcted&quot;])</text>
</g>
<!-- 24&#45;&gt;26 -->
<g id="edge29" class="edge">
<title>24&#45;&gt;26</title>
<path fill="none" stroke="black" d="M2322.77,-575.88C2335.79,-566.67 2352.01,-555.2 2366,-545.31"/>
<polygon fill="black" stroke="black" points="2367.89,-548.26 2374.04,-539.62 2363.85,-542.54 2367.89,-548.26"/>
</g>
<!-- 28 -->
<g id="node28" class="node">
<title>28</title>
<ellipse fill="none" stroke="black" cx="1911.55" cy="-450" rx="460.8" ry="18"/>
<text text-anchor="middle" x="1911.55" y="-444.95" font-family="Times New Roman,serif" font-size="14.00">Photo of Tattoos: It could be anything... religious symbols, a road map. It could even be purely decorative. Who knows?</text>
</g>
<!-- 25&#45;&gt;28 -->
<g id="edge30" class="edge">
<title>25&#45;&gt;28</title>
<path fill="none" stroke="black" d="M1913.06,-503.7C1912.85,-496.41 1912.6,-487.73 1912.37,-479.54"/>
<polygon fill="black" stroke="black" points="1915.87,-479.51 1912.08,-469.62 1908.87,-479.71 1915.87,-479.51"/>
</g>
<!-- 26&#45;&gt;6 -->
<g id="edge31" class="edge">
<title>26&#45;&gt;6</title>
<path fill="none" stroke="black" d="M2400.08,-503.96C2402.04,-483.52 2401.66,-449.78 2381.55,-432 2348.57,-402.84 1717.16,-385.72 1497.28,-380.62"/>
<polygon fill="black" stroke="black" points="1497.47,-377.12 1487.4,-380.39 1497.31,-384.12 1497.47,-377.12"/>
</g>
<!-- 27&#45;&gt;6 -->
<g id="edge32" class="edge">
<title>27&#45;&gt;6</title>
<path fill="none" stroke="black" d="M1644.77,-576.44C1577.15,-560.22 1492.36,-528.66 1441.55,-468 1427.59,-451.33 1423.15,-426.85 1422.02,-407.79"/>
<polygon fill="black" stroke="black" points="1425.53,-407.87 1421.74,-397.97 1418.53,-408.07 1425.53,-407.87"/>
</g>
<!-- 28&#45;&gt;6 -->
<g id="edge33" class="edge">
<title>28&#45;&gt;6</title>
<path fill="none" stroke="black" d="M1793.8,-432.14C1698.58,-418.51 1567.91,-399.81 1489.69,-388.61"/>
<polygon fill="black" stroke="black" points="1490.43,-385.18 1480.03,-387.23 1489.44,-392.11 1490.43,-385.18"/>
</g>
</g>
</svg>
