<?xml version="1.0" encoding="UTF-8" standalone="no"?>
<!DOCTYPE svg PUBLIC "-//W3C//DTD SVG 1.1//EN"
 "http://www.w3.org/Graphics/SVG/1.1/DTD/svg11.dtd">
<!-- Generated by graphviz version 12.2.1 (20241206.2353)
 -->
<!-- Title: G Pages: 1 -->
<svg width="5394pt" height="980pt"
 viewBox="0.00 0.00 5394.06 980.00" xmlns="http://www.w3.org/2000/svg" xmlns:xlink="http://www.w3.org/1999/xlink">
<g id="graph0" class="graph" transform="scale(1 1) rotate(0) translate(4 976)">
<title>G</title>
<polygon fill="white" stroke="none" points="-4,4 -4,-976 5390.06,-976 5390.06,4 -4,4"/>
<!-- 0 -->
<g id="node1" class="node">
<title>0</title>
<ellipse fill="none" stroke="black" cx="3771" cy="-954" rx="39.07" ry="18"/>
<text text-anchor="middle" x="3771" y="-948.95" font-family="Times New Roman,serif" font-size="14.00">START</text>
</g>
<!-- 0&#45;&gt;0 -->
<g id="edge1" class="edge">
<title>0&#45;&gt;0</title>
<path fill="none" stroke="black" d="M3799.19,-966.94C3814.3,-969.14 3828.07,-964.83 3828.07,-954 3828.07,-945.96 3820.48,-941.52 3810.4,-940.65"/>
<polygon fill="black" stroke="black" points="3810.57,-937.15 3800.7,-941 3810.82,-944.14 3810.57,-937.15"/>
</g>
<!-- 1 -->
<g id="node2" class="node">
<title>1</title>
<ellipse fill="none" stroke="black" cx="3876" cy="-954" rx="29.86" ry="18"/>
<text text-anchor="middle" x="3876" y="-948.95" font-family="Times New Roman,serif" font-size="14.00">input</text>
</g>
<!-- 1&#45;&gt;1 -->
<g id="edge2" class="edge">
<title>1&#45;&gt;1</title>
<path fill="none" stroke="black" d="M3897.65,-966.55C3911.08,-969.57 3923.86,-965.39 3923.86,-954 3923.86,-945.99 3917.54,-941.55 3909.12,-940.66"/>
<polygon fill="black" stroke="black" points="3908.9,-937.17 3899.16,-941.35 3909.38,-944.15 3908.9,-937.17"/>
</g>
<!-- 2 -->
<g id="node3" class="node">
<title>2</title>
<ellipse fill="none" stroke="black" cx="936" cy="-306" rx="741.27" ry="18"/>
<text text-anchor="middle" x="936" y="-300.95" font-family="Times New Roman,serif" font-size="14.00">A Folded Library Card: The library card is folded into two and still slightly wet to the touch. The front side reads: &quot;Central Jamrock Public Library Card. Issued to Billie Méjean, expires July &#39;53.&quot;</text>
</g>
<!-- 18 -->
<g id="node19" class="node">
<title>18</title>
<ellipse fill="none" stroke="black" cx="1216" cy="-234" rx="309.3" ry="18"/>
<text text-anchor="middle" x="1216" y="-228.95" font-family="Times New Roman,serif" font-size="14.00">Logic: Billie is a unisex name. Could be the deceased *or* his family member?</text>
</g>
<!-- 2&#45;&gt;18 -->
<g id="edge3" class="edge">
<title>2&#45;&gt;18</title>
<path fill="none" stroke="black" d="M1005.57,-287.61C1045.48,-277.63 1095.72,-265.07 1137.09,-254.73"/>
<polygon fill="black" stroke="black" points="1137.91,-258.13 1146.77,-252.31 1136.22,-251.34 1137.91,-258.13"/>
</g>
<!-- 3 -->
<g id="node4" class="node">
<title>3</title>
<ellipse fill="none" stroke="black" cx="4125" cy="-954" rx="182.89" ry="18"/>
<text text-anchor="middle" x="4125" y="-948.95" font-family="Times New Roman,serif" font-size="14.00">Variable[&quot;TASK.identify_corpse_boardwalk&quot;]</text>
</g>
<!-- 3&#45;&gt;3 -->
<g id="edge4" class="edge">
<title>3&#45;&gt;3</title>
<path fill="none" stroke="black" d="M4250.06,-967.5C4292.14,-967.54 4325.89,-963.04 4325.89,-954 4325.89,-945.78 4297.93,-941.31 4261.18,-940.6"/>
<polygon fill="black" stroke="black" points="4261.61,-937.1 4251.58,-940.51 4261.54,-944.1 4261.61,-937.1"/>
</g>
<!-- 4 -->
<g id="node5" class="node">
<title>4</title>
<polygon fill="none" stroke="black" points="4125,-900 3866.36,-882 4125,-864 4383.64,-882 4125,-900"/>
<text text-anchor="middle" x="4125" y="-876.95" font-family="Times New Roman,serif" font-size="14.00">Variable[&quot;TASK.identify_corpse_boardwalk&quot;]</text>
</g>
<!-- 3&#45;&gt;4 -->
<g id="edge5" class="edge">
<title>3&#45;&gt;4</title>
<path fill="none" stroke="black" d="M4125,-935.7C4125,-928.41 4125,-919.73 4125,-911.54"/>
<polygon fill="black" stroke="black" points="4128.5,-911.62 4125,-901.62 4121.5,-911.62 4128.5,-911.62"/>
</g>
<!-- 42 -->
<g id="node43" class="node">
<title>42</title>
<ellipse fill="none" stroke="black" cx="4125" cy="-810" rx="302.14" ry="18"/>
<text text-anchor="middle" x="4125" y="-804.95" font-family="Times New Roman,serif" font-size="14.00">IsTaskActive(&quot;TASK.examine_library_card_with_main_task&quot;)&#45;&#45;[[ Variable[ ]]</text>
</g>
<!-- 4&#45;&gt;42 -->
<g id="edge6" class="edge">
<title>4&#45;&gt;42</title>
<path fill="none" stroke="black" d="M4125,-863.7C4125,-856.41 4125,-847.73 4125,-839.54"/>
<polygon fill="black" stroke="black" points="4128.5,-839.62 4125,-829.62 4121.5,-839.62 4128.5,-839.62"/>
</g>
<!-- 5 -->
<g id="node6" class="node">
<title>5</title>
<polygon fill="none" stroke="black" points="5063,-756 4791.33,-738 5063,-720 5334.67,-738 5063,-756"/>
<text text-anchor="middle" x="5063" y="-732.95" font-family="Times New Roman,serif" font-size="14.00">!(Variable[&quot;TASK.identify_corpse_boardwalk&quot;])</text>
</g>
<!-- 12 -->
<g id="node13" class="node">
<title>12</title>
<ellipse fill="none" stroke="black" cx="5063" cy="-666" rx="213.59" ry="18"/>
<text text-anchor="middle" x="5063" y="-660.95" font-family="Times New Roman,serif" font-size="14.00">A Folded Library Card: You put the library card away.</text>
</g>
<!-- 5&#45;&gt;12 -->
<g id="edge7" class="edge">
<title>5&#45;&gt;12</title>
<path fill="none" stroke="black" d="M5063,-719.7C5063,-712.41 5063,-703.73 5063,-695.54"/>
<polygon fill="black" stroke="black" points="5066.5,-695.62 5063,-685.62 5059.5,-695.62 5066.5,-695.62"/>
</g>
<!-- 6 -->
<g id="node7" class="node">
<title>6</title>
<ellipse fill="none" stroke="black" cx="5063" cy="-954" rx="58.52" ry="18"/>
<text text-anchor="middle" x="5063" y="-948.95" font-family="Times New Roman,serif" font-size="14.00">IsKimHere()</text>
</g>
<!-- 6&#45;&gt;6 -->
<g id="edge8" class="edge">
<title>6&#45;&gt;6</title>
<path fill="none" stroke="black" d="M5103.94,-967.23C5122.93,-968.68 5139.52,-964.27 5139.52,-954 5139.52,-945.82 5128.98,-941.36 5115.09,-940.61"/>
<polygon fill="black" stroke="black" points="5115.4,-937.11 5105.45,-940.75 5115.5,-944.11 5115.4,-937.11"/>
</g>
<!-- 7 -->
<g id="node8" class="node">
<title>7</title>
<polygon fill="none" stroke="black" points="5063,-900 4980.24,-882 5063,-864 5145.76,-882 5063,-900"/>
<text text-anchor="middle" x="5063" y="-876.95" font-family="Times New Roman,serif" font-size="14.00">IsKimHere()</text>
</g>
<!-- 6&#45;&gt;7 -->
<g id="edge9" class="edge">
<title>6&#45;&gt;7</title>
<path fill="none" stroke="black" d="M5063,-935.7C5063,-928.41 5063,-919.73 5063,-911.54"/>
<polygon fill="black" stroke="black" points="5066.5,-911.62 5063,-901.62 5059.5,-911.62 5066.5,-911.62"/>
</g>
<!-- 15 -->
<g id="node16" class="node">
<title>15</title>
<polygon fill="none" stroke="black" points="5063,-828 4739.94,-810 5063,-792 5386.06,-810 5063,-828"/>
<text text-anchor="middle" x="5063" y="-804.95" font-family="Times New Roman,serif" font-size="14.00">!(Variable[&quot;TASK.report_corpse_wo_taking_main_task&quot;])</text>
</g>
<!-- 7&#45;&gt;15 -->
<g id="edge10" class="edge">
<title>7&#45;&gt;15</title>
<path fill="none" stroke="black" d="M5063,-863.7C5063,-856.41 5063,-847.73 5063,-839.54"/>
<polygon fill="black" stroke="black" points="5066.5,-839.62 5063,-829.62 5059.5,-839.62 5066.5,-839.62"/>
</g>
<!-- 8 -->
<g id="node9" class="node">
<title>8</title>
<polygon fill="none" stroke="black" points="1916,-180 1820.22,-162 1916,-144 2011.78,-162 1916,-180"/>
<text text-anchor="middle" x="1916" y="-156.95" font-family="Times New Roman,serif" font-size="14.00">!(IsKimHere())</text>
</g>
<!-- 28 -->
<g id="node29" class="node">
<title>28</title>
<ellipse fill="none" stroke="black" cx="1911" cy="-90" rx="467.96" ry="18"/>
<text text-anchor="middle" x="1911" y="-84.95" font-family="Times New Roman,serif" font-size="14.00">Logic: You should first decide what to do with the corpse, before taking any further actions. Talk to the lieutenant about it.</text>
</g>
<!-- 8&#45;&gt;28 -->
<g id="edge11" class="edge">
<title>8&#45;&gt;28</title>
<path fill="none" stroke="black" d="M1914.79,-144.05C1914.26,-136.68 1913.63,-127.84 1913.04,-119.51"/>
<polygon fill="black" stroke="black" points="1916.55,-119.51 1912.34,-109.78 1909.56,-120.01 1916.55,-119.51"/>
</g>
<!-- 9 -->
<g id="node10" class="node">
<title>9</title>
<ellipse fill="none" stroke="black" cx="1450" cy="-522" rx="70.29" ry="18"/>
<text text-anchor="middle" x="1450" y="-516.95" font-family="Times New Roman,serif" font-size="14.00">library card hub</text>
</g>
<!-- 16 -->
<g id="node17" class="node">
<title>16</title>
<ellipse fill="none" stroke="black" cx="604" cy="-162" rx="601.55" ry="18"/>
<text text-anchor="middle" x="604" y="-156.95" font-family="Times New Roman,serif" font-size="14.00">Kim Kitsuragi: &quot;We should first decide what to do with the body, before taking any other actions. Let&#39;s take another look at the body and talk things through.&quot;</text>
</g>
<!-- 9&#45;&gt;16 -->
<g id="edge12" class="edge">
<title>9&#45;&gt;16</title>
<path fill="none" stroke="black" d="M1379.57,-521.58C1089.19,-523.07 0,-519.3 0,-379 0,-379 0,-379 0,-305 0,-232.74 165.87,-197.22 323.77,-179.78"/>
<polygon fill="black" stroke="black" points="324.05,-183.27 333.61,-178.71 323.3,-176.31 324.05,-183.27"/>
</g>
<!-- 22 -->
<g id="node23" class="node">
<title>22</title>
<ellipse fill="none" stroke="black" cx="904" cy="-450" rx="111.23" ry="18"/>
<text text-anchor="middle" x="904" y="-444.95" font-family="Times New Roman,serif" font-size="14.00">You: Look at the backside.</text>
</g>
<!-- 9&#45;&gt;22 -->
<g id="edge14" class="edge">
<title>9&#45;&gt;22</title>
<path fill="none" stroke="black" d="M1388.16,-513.07C1293.55,-500.94 1112.1,-477.68 1000.19,-463.33"/>
<polygon fill="black" stroke="black" points="1000.78,-459.88 990.42,-462.08 999.89,-466.82 1000.78,-459.88"/>
</g>
<!-- 45 -->
<g id="node46" class="node">
<title>45</title>
<ellipse fill="none" stroke="black" cx="1553" cy="-450" rx="77.97" ry="18"/>
<text text-anchor="middle" x="1553" y="-444.95" font-family="Times New Roman,serif" font-size="14.00">You: Look inside.</text>
</g>
<!-- 9&#45;&gt;45 -->
<g id="edge13" class="edge">
<title>9&#45;&gt;45</title>
<path fill="none" stroke="black" d="M1473.89,-504.76C1487.44,-495.55 1504.62,-483.88 1519.5,-473.77"/>
<polygon fill="black" stroke="black" points="1521.33,-476.76 1527.63,-468.24 1517.39,-470.97 1521.33,-476.76"/>
</g>
<!-- 10 -->
<g id="node11" class="node">
<title>10</title>
<ellipse fill="none" stroke="black" cx="3062" cy="-18" rx="284.22" ry="18"/>
<text text-anchor="middle" x="3062" y="-12.95" font-family="Times New Roman,serif" font-size="14.00">A Folded Library Card: Something tells you you should give them a call.</text>
</g>
<!-- 10&#45;&gt;10 -->
<g id="edge15" class="edge">
<title>10&#45;&gt;10</title>
<path fill="none" stroke="black" d="M3256.75,-31.49C3316.95,-31.21 3364.22,-26.72 3364.22,-18 3364.22,-9.84 3322.85,-5.38 3268.22,-4.62"/>
<polygon fill="black" stroke="black" points="3268.3,-1.12 3258.27,-4.53 3268.24,-8.12 3268.3,-1.12"/>
</g>
<!-- 11 -->
<g id="node12" class="node">
<title>11</title>
<ellipse fill="none" stroke="black" cx="3584" cy="-234" rx="111.74" ry="18"/>
<text text-anchor="middle" x="3584" y="-228.95" font-family="Times New Roman,serif" font-size="14.00">Jump to: [library card hub]</text>
</g>
<!-- 11&#45;&gt;8 -->
<g id="edge16" class="edge">
<title>11&#45;&gt;8</title>
<path fill="none" stroke="black" d="M3505.71,-220.77C3491.52,-218.91 3476.84,-217.21 3463,-216 2922.15,-168.87 2271.53,-163.12 2021.2,-162.79"/>
<polygon fill="black" stroke="black" points="2021.46,-159.29 2011.46,-162.78 2021.45,-166.29 2021.46,-159.29"/>
</g>
<!-- 13 -->
<g id="node14" class="node">
<title>13</title>
<ellipse fill="none" stroke="black" cx="4253" cy="-378" rx="219.22" ry="18"/>
<text text-anchor="middle" x="4253" y="-372.95" font-family="Times New Roman,serif" font-size="14.00">Variable[&quot;TASK.report_corpse_wo_taking_main_task&quot;]</text>
</g>
<!-- 13&#45;&gt;13 -->
<g id="edge17" class="edge">
<title>13&#45;&gt;13</title>
<path fill="none" stroke="black" d="M4403,-391.5C4451.61,-391.39 4490.22,-386.89 4490.22,-378 4490.22,-369.82 4457.55,-365.35 4414.47,-364.61"/>
<polygon fill="black" stroke="black" points="4414.55,-361.11 4404.51,-364.52 4414.48,-368.11 4414.55,-361.11"/>
</g>
<!-- 14 -->
<g id="node15" class="node">
<title>14</title>
<polygon fill="none" stroke="black" points="4253,-324 3942.97,-306 4253,-288 4563.03,-306 4253,-324"/>
<text text-anchor="middle" x="4253" y="-300.95" font-family="Times New Roman,serif" font-size="14.00">Variable[&quot;TASK.report_corpse_wo_taking_main_task&quot;]</text>
</g>
<!-- 13&#45;&gt;14 -->
<g id="edge18" class="edge">
<title>13&#45;&gt;14</title>
<path fill="none" stroke="black" d="M4253,-359.7C4253,-352.41 4253,-343.73 4253,-335.54"/>
<polygon fill="black" stroke="black" points="4256.5,-335.62 4253,-325.62 4249.5,-335.62 4256.5,-335.62"/>
</g>
<!-- 32 -->
<g id="node33" class="node">
<title>32</title>
<ellipse fill="none" stroke="black" cx="4253" cy="-234" rx="58.52" ry="18"/>
<text text-anchor="middle" x="4253" y="-228.95" font-family="Times New Roman,serif" font-size="14.00">IsKimHere()</text>
</g>
<!-- 14&#45;&gt;32 -->
<g id="edge19" class="edge">
<title>14&#45;&gt;32</title>
<path fill="none" stroke="black" d="M4253,-287.7C4253,-280.41 4253,-271.73 4253,-263.54"/>
<polygon fill="black" stroke="black" points="4256.5,-263.62 4253,-253.62 4249.5,-263.62 4256.5,-263.62"/>
</g>
<!-- 15&#45;&gt;5 -->
<g id="edge20" class="edge">
<title>15&#45;&gt;5</title>
<path fill="none" stroke="black" d="M5063,-791.7C5063,-784.41 5063,-775.73 5063,-767.54"/>
<polygon fill="black" stroke="black" points="5066.5,-767.62 5063,-757.62 5059.5,-767.62 5066.5,-767.62"/>
</g>
<!-- 16&#45;&gt;10 -->
<g id="edge21" class="edge">
<title>16&#45;&gt;10</title>
<path fill="none" stroke="black" d="M734.55,-143.97C897.82,-123.37 1186.06,-89.31 1434,-72 1901.51,-39.37 2445.97,-26.78 2771.84,-21.95"/>
<polygon fill="black" stroke="black" points="2771.87,-25.45 2781.82,-21.8 2771.77,-18.45 2771.87,-25.45"/>
</g>
<!-- 17 -->
<g id="node18" class="node">
<title>17</title>
<ellipse fill="none" stroke="black" cx="2630" cy="-594" rx="81.55" ry="18"/>
<text text-anchor="middle" x="2630" y="-588.95" font-family="Times New Roman,serif" font-size="14.00">You: [Put it away.]</text>
</g>
<!-- 19 -->
<g id="node20" class="node">
<title>19</title>
<ellipse fill="none" stroke="black" cx="2630" cy="-522" rx="321.59" ry="18"/>
<text text-anchor="middle" x="2630" y="-516.95" font-family="Times New Roman,serif" font-size="14.00">IsTaskActive(&quot;TASK.examine_libray_card_wo_taking_main_task&quot;)&#45;&#45;[[ Variable[ ]]</text>
</g>
<!-- 17&#45;&gt;19 -->
<g id="edge22" class="edge">
<title>17&#45;&gt;19</title>
<path fill="none" stroke="black" d="M2630,-575.7C2630,-568.41 2630,-559.73 2630,-551.54"/>
<polygon fill="black" stroke="black" points="2633.5,-551.62 2630,-541.62 2626.5,-551.62 2633.5,-551.62"/>
</g>
<!-- 18&#45;&gt;8 -->
<g id="edge23" class="edge">
<title>18&#45;&gt;8</title>
<path fill="none" stroke="black" d="M1367.03,-217.9C1514.49,-203.15 1732.52,-181.35 1844.25,-170.18"/>
<polygon fill="black" stroke="black" points="1844.27,-173.69 1853.87,-169.21 1843.57,-166.73 1844.27,-173.69"/>
</g>
<!-- 20 -->
<g id="node21" class="node">
<title>20</title>
<polygon fill="none" stroke="black" points="3279,-468 2824.21,-450 3279,-432 3733.79,-450 3279,-468"/>
<text text-anchor="middle" x="3279" y="-444.95" font-family="Times New Roman,serif" font-size="14.00">IsTaskActive(&quot;TASK.examine_libray_card_wo_taking_main_task&quot;)&#45;&#45;[[ Variable[ ]]</text>
</g>
<!-- 19&#45;&gt;20 -->
<g id="edge24" class="edge">
<title>19&#45;&gt;20</title>
<path fill="none" stroke="black" d="M2774.03,-505.46C2886.2,-493.37 3040.56,-476.72 3148.99,-465.02"/>
<polygon fill="black" stroke="black" points="3149.26,-468.51 3158.82,-463.96 3148.51,-461.55 3149.26,-468.51"/>
</g>
<!-- 21 -->
<g id="node22" class="node">
<title>21</title>
<polygon fill="none" stroke="black" points="2338,-468 1870.18,-450 2338,-432 2805.82,-450 2338,-468"/>
<text text-anchor="middle" x="2338" y="-444.95" font-family="Times New Roman,serif" font-size="14.00">!(IsTaskActive(&quot;TASK.examine_libray_card_wo_taking_main_task&quot;)&#45;&#45;[[ Variable[ ]])</text>
</g>
<!-- 19&#45;&gt;21 -->
<g id="edge25" class="edge">
<title>19&#45;&gt;21</title>
<path fill="none" stroke="black" d="M2558.94,-503.97C2514.28,-493.26 2456.78,-479.47 2411.63,-468.65"/>
<polygon fill="black" stroke="black" points="2412.45,-465.25 2401.91,-466.32 2410.81,-472.05 2412.45,-465.25"/>
</g>
<!-- 39 -->
<g id="node40" class="node">
<title>39</title>
<ellipse fill="none" stroke="black" cx="3584" cy="-378" rx="58.52" ry="18"/>
<text text-anchor="middle" x="3584" y="-372.95" font-family="Times New Roman,serif" font-size="14.00">IsKimHere()</text>
</g>
<!-- 20&#45;&gt;39 -->
<g id="edge26" class="edge">
<title>20&#45;&gt;39</title>
<path fill="none" stroke="black" d="M3347.04,-434.26C3394.47,-423.86 3459.18,-409.45 3516,-396 3520.21,-395 3524.56,-393.96 3528.93,-392.89"/>
<polygon fill="black" stroke="black" points="3529.43,-396.37 3538.31,-390.59 3527.76,-389.57 3529.43,-396.37"/>
</g>
<!-- 30 -->
<g id="node31" class="node">
<title>30</title>
<ellipse fill="none" stroke="black" cx="644" cy="-378" rx="616.39" ry="18"/>
<text text-anchor="middle" x="644" y="-372.95" font-family="Times New Roman,serif" font-size="14.00">A Folded Library Card: &quot;If lost, please return the card to the library. Dial 005&#45;02&#45;55&#45;211 or visit us at Meroe Street 78, Jamrock. Business hours: 09.00 to 18.00.&quot;</text>
</g>
<!-- 22&#45;&gt;30 -->
<g id="edge27" class="edge">
<title>22&#45;&gt;30</title>
<path fill="none" stroke="black" d="M848.22,-433.98C810.64,-423.86 760.6,-410.39 719.46,-399.32"/>
<polygon fill="black" stroke="black" points="720.42,-395.95 709.85,-396.73 718.6,-402.71 720.42,-395.95"/>
</g>
<!-- 23 -->
<g id="node24" class="node">
<title>23</title>
<ellipse fill="none" stroke="black" cx="2393" cy="-378" rx="1114.38" ry="18"/>
<text text-anchor="middle" x="2393" y="-372.95" font-family="Times New Roman,serif" font-size="14.00">A Folded Library Card: Whoever owns this card is an avid reader: you find a list of books written in blue pencil: &#39;Radiothriller&#39;, &#39;Stand a Little Less Between Me and the Sun&#39;. The last one in the list is &#39;The Glinting Curve&#39;, by M. Thibault. A library stamp indicates that the book has been returned.</text>
</g>
<!-- 36 -->
<g id="node37" class="node">
<title>36</title>
<ellipse fill="none" stroke="black" cx="2203" cy="-306" rx="340.52" ry="18"/>
<text text-anchor="middle" x="2203" y="-300.95" font-family="Times New Roman,serif" font-size="14.00">Conceptualization: Most of these titles seem to be in the sci&#45;fi genre. Some thrillers too.</text>
</g>
<!-- 23&#45;&gt;36 -->
<g id="edge28" class="edge">
<title>23&#45;&gt;36</title>
<path fill="none" stroke="black" d="M2346.03,-359.7C2320.13,-350.15 2287.76,-338.23 2260.37,-328.14"/>
<polygon fill="black" stroke="black" points="2261.77,-324.92 2251.18,-324.75 2259.35,-331.49 2261.77,-324.92"/>
</g>
<!-- 24 -->
<g id="node25" class="node">
<title>24</title>
<ellipse fill="none" stroke="black" cx="3762" cy="-666" rx="58.52" ry="18"/>
<text text-anchor="middle" x="3762" y="-660.95" font-family="Times New Roman,serif" font-size="14.00">IsKimHere()</text>
</g>
<!-- 25 -->
<g id="node26" class="node">
<title>25</title>
<polygon fill="none" stroke="black" points="3762,-612 3679.24,-594 3762,-576 3844.76,-594 3762,-612"/>
<text text-anchor="middle" x="3762" y="-588.95" font-family="Times New Roman,serif" font-size="14.00">IsKimHere()</text>
</g>
<!-- 24&#45;&gt;25 -->
<g id="edge29" class="edge">
<title>24&#45;&gt;25</title>
<path fill="none" stroke="black" d="M3762,-647.7C3762,-640.41 3762,-631.73 3762,-623.54"/>
<polygon fill="black" stroke="black" points="3765.5,-623.62 3762,-613.62 3758.5,-623.62 3765.5,-623.62"/>
</g>
<!-- 26 -->
<g id="node27" class="node">
<title>26</title>
<polygon fill="none" stroke="black" points="1926,-612 1830.22,-594 1926,-576 2021.78,-594 1926,-612"/>
<text text-anchor="middle" x="1926" y="-588.95" font-family="Times New Roman,serif" font-size="14.00">!(IsKimHere())</text>
</g>
<!-- 24&#45;&gt;26 -->
<g id="edge30" class="edge">
<title>24&#45;&gt;26</title>
<path fill="none" stroke="black" d="M3704.02,-662.79C3438.29,-652.66 2336,-610.63 2014.43,-598.37"/>
<polygon fill="black" stroke="black" points="2014.96,-594.89 2004.84,-598.01 2014.69,-601.88 2014.96,-594.89"/>
</g>
<!-- 35 -->
<g id="node36" class="node">
<title>35</title>
<ellipse fill="none" stroke="black" cx="3762" cy="-522" rx="537.06" ry="18"/>
<text text-anchor="middle" x="3762" y="-516.95" font-family="Times New Roman,serif" font-size="14.00">Kim Kitsuragi: &quot;Good.&quot; He takes a note. &quot;We should give them a call from my Kineema, see if we can learn anything about Billie Méjean.&quot;</text>
</g>
<!-- 25&#45;&gt;35 -->
<g id="edge31" class="edge">
<title>25&#45;&gt;35</title>
<path fill="none" stroke="black" d="M3762,-575.7C3762,-568.41 3762,-559.73 3762,-551.54"/>
<polygon fill="black" stroke="black" points="3765.5,-551.62 3762,-541.62 3758.5,-551.62 3765.5,-551.62"/>
</g>
<!-- 26&#45;&gt;9 -->
<g id="edge32" class="edge">
<title>26&#45;&gt;9</title>
<path fill="none" stroke="black" d="M1874.15,-585.38C1788.63,-572.8 1617.84,-547.68 1521.1,-533.46"/>
<polygon fill="black" stroke="black" points="1521.87,-530.03 1511.47,-532.04 1520.85,-536.96 1521.87,-530.03"/>
</g>
<!-- 27 -->
<g id="node28" class="node">
<title>27</title>
<ellipse fill="none" stroke="black" cx="1935" cy="-234" rx="111.74" ry="18"/>
<text text-anchor="middle" x="1935" y="-228.95" font-family="Times New Roman,serif" font-size="14.00">Jump to: [library card hub]</text>
</g>
<!-- 27&#45;&gt;8 -->
<g id="edge33" class="edge">
<title>27&#45;&gt;8</title>
<path fill="none" stroke="black" d="M1930.3,-215.7C1928.25,-208.13 1925.79,-199.06 1923.49,-190.59"/>
<polygon fill="black" stroke="black" points="1926.91,-189.82 1920.91,-181.08 1920.15,-191.65 1926.91,-189.82"/>
</g>
<!-- 28&#45;&gt;10 -->
<g id="edge34" class="edge">
<title>28&#45;&gt;10</title>
<path fill="none" stroke="black" d="M2154.39,-74.2C2360.84,-61.64 2653.96,-43.82 2850.7,-31.85"/>
<polygon fill="black" stroke="black" points="2850.76,-35.35 2860.53,-31.25 2850.34,-28.37 2850.76,-35.35"/>
</g>
<!-- 29 -->
<g id="node30" class="node">
<title>29</title>
<ellipse fill="none" stroke="black" cx="2798" cy="-234" rx="656.31" ry="18"/>
<text text-anchor="middle" x="2798" y="-228.95" font-family="Times New Roman,serif" font-size="14.00">Kim Kitsuragi: &quot;Good, we&#39;ve examined the library card &#45;&#45; that should be enough for our colleagues. Now we can call the station from my Kineema and hand over the case.&quot;</text>
</g>
<!-- 30&#45;&gt;2 -->
<g id="edge35" class="edge">
<title>30&#45;&gt;2</title>
<path fill="none" stroke="black" d="M716.18,-359.7C757.43,-349.81 809.35,-337.36 852.37,-327.05"/>
<polygon fill="black" stroke="black" points="853,-330.5 861.91,-324.76 851.37,-323.69 853,-330.5"/>
</g>
<!-- 31 -->
<g id="node32" class="node">
<title>31</title>
<ellipse fill="none" stroke="black" cx="2688" cy="-90" rx="291.39" ry="18"/>
<text text-anchor="middle" x="2688" y="-84.95" font-family="Times New Roman,serif" font-size="14.00">Reaction Speed: Good idea. There was plenty of information here to go by.</text>
</g>
<!-- 31&#45;&gt;10 -->
<g id="edge36" class="edge">
<title>31&#45;&gt;10</title>
<path fill="none" stroke="black" d="M2776.63,-72.41C2832.54,-61.95 2904.85,-48.41 2962.69,-37.59"/>
<polygon fill="black" stroke="black" points="2963.01,-41.09 2972.19,-35.81 2961.72,-34.21 2963.01,-41.09"/>
</g>
<!-- 33 -->
<g id="node34" class="node">
<title>33</title>
<polygon fill="none" stroke="black" points="3970,-180 3887.24,-162 3970,-144 4052.76,-162 3970,-180"/>
<text text-anchor="middle" x="3970" y="-156.95" font-family="Times New Roman,serif" font-size="14.00">IsKimHere()</text>
</g>
<!-- 32&#45;&gt;33 -->
<g id="edge37" class="edge">
<title>32&#45;&gt;33</title>
<path fill="none" stroke="black" d="M4208.47,-221.99C4156.74,-209.19 4071.68,-188.15 4018.36,-174.96"/>
<polygon fill="black" stroke="black" points="4019.51,-171.64 4008.96,-172.64 4017.83,-178.44 4019.51,-171.64"/>
</g>
<!-- 34 -->
<g id="node35" class="node">
<title>34</title>
<polygon fill="none" stroke="black" points="4258,-180 4162.22,-162 4258,-144 4353.78,-162 4258,-180"/>
<text text-anchor="middle" x="4258" y="-156.95" font-family="Times New Roman,serif" font-size="14.00">!(IsKimHere())</text>
</g>
<!-- 32&#45;&gt;34 -->
<g id="edge38" class="edge">
<title>32&#45;&gt;34</title>
<path fill="none" stroke="black" d="M4254.24,-215.7C4254.76,-208.41 4255.38,-199.73 4255.96,-191.54"/>
<polygon fill="black" stroke="black" points="4259.45,-191.84 4256.67,-181.61 4252.47,-191.34 4259.45,-191.84"/>
</g>
<!-- 37 -->
<g id="node38" class="node">
<title>37</title>
<ellipse fill="none" stroke="black" cx="3436" cy="-90" rx="438.79" ry="18"/>
<text text-anchor="middle" x="3436" y="-84.95" font-family="Times New Roman,serif" font-size="14.00">Kim Kitsuragi: &quot;We already decided to let the station handle this case, so there&#39;s no need for us to call the library.&quot;</text>
</g>
<!-- 33&#45;&gt;37 -->
<g id="edge39" class="edge">
<title>33&#45;&gt;37</title>
<path fill="none" stroke="black" d="M3920.24,-154.48C3842.13,-144.24 3687.93,-124.02 3574.44,-109.15"/>
<polygon fill="black" stroke="black" points="3575.11,-105.71 3564.74,-107.88 3574.2,-112.65 3575.11,-105.71"/>
</g>
<!-- 38 -->
<g id="node39" class="node">
<title>38</title>
<ellipse fill="none" stroke="black" cx="4268" cy="-90" rx="374.81" ry="18"/>
<text text-anchor="middle" x="4268" y="-84.95" font-family="Times New Roman,serif" font-size="14.00">Logic: You already decided to let the station handle the case, so there&#39;s no need to call the library.</text>
</g>
<!-- 34&#45;&gt;38 -->
<g id="edge40" class="edge">
<title>34&#45;&gt;38</title>
<path fill="none" stroke="black" d="M4260.42,-144.05C4261.47,-136.68 4262.74,-127.84 4263.93,-119.51"/>
<polygon fill="black" stroke="black" points="4267.37,-120.17 4265.32,-109.77 4260.44,-119.18 4267.37,-120.17"/>
</g>
<!-- 35&#45;&gt;31 -->
<g id="edge41" class="edge">
<title>35&#45;&gt;31</title>
<path fill="none" stroke="black" d="M3762,-503.51C3762,-476.71 3762,-423.87 3762,-379 3762,-379 3762,-379 3762,-233 3762,-188.56 3176.37,-132.32 2870,-105.94"/>
<polygon fill="black" stroke="black" points="2870.54,-102.48 2860.28,-105.11 2869.94,-109.45 2870.54,-102.48"/>
</g>
<!-- 36&#45;&gt;27 -->
<g id="edge42" class="edge">
<title>36&#45;&gt;27</title>
<path fill="none" stroke="black" d="M2137.44,-287.88C2096.56,-277.2 2044.06,-263.49 2002.77,-252.7"/>
<polygon fill="black" stroke="black" points="2003.74,-249.34 1993.18,-250.2 2001.97,-256.11 2003.74,-249.34"/>
</g>
<!-- 37&#45;&gt;10 -->
<g id="edge43" class="edge">
<title>37&#45;&gt;10</title>
<path fill="none" stroke="black" d="M3344.99,-71.97C3289.55,-61.59 3218.66,-48.32 3161.71,-37.66"/>
<polygon fill="black" stroke="black" points="3162.47,-34.24 3152,-35.84 3161.19,-41.12 3162.47,-34.24"/>
</g>
<!-- 38&#45;&gt;10 -->
<g id="edge44" class="edge">
<title>38&#45;&gt;10</title>
<path fill="none" stroke="black" d="M4035.47,-75.5C3816.42,-62.79 3490.89,-43.89 3277.56,-31.51"/>
<polygon fill="black" stroke="black" points="3277.92,-28.03 3267.73,-30.94 3277.51,-35.01 3277.92,-28.03"/>
</g>
<!-- 40 -->
<g id="node41" class="node">
<title>40</title>
<polygon fill="none" stroke="black" points="3093,-324 3010.24,-306 3093,-288 3175.76,-306 3093,-324"/>
<text text-anchor="middle" x="3093" y="-300.95" font-family="Times New Roman,serif" font-size="14.00">IsKimHere()</text>
</g>
<!-- 39&#45;&gt;40 -->
<g id="edge45" class="edge">
<title>39&#45;&gt;40</title>
<path fill="none" stroke="black" d="M3541,-365.42C3532.74,-363.43 3524.13,-361.52 3516,-360 3392.15,-336.85 3245.95,-321.05 3161.91,-313.06"/>
<polygon fill="black" stroke="black" points="3162.26,-309.58 3151.97,-312.13 3161.6,-316.55 3162.26,-309.58"/>
</g>
<!-- 41 -->
<g id="node42" class="node">
<title>41</title>
<polygon fill="none" stroke="black" points="3584,-324 3488.22,-306 3584,-288 3679.78,-306 3584,-324"/>
<text text-anchor="middle" x="3584" y="-300.95" font-family="Times New Roman,serif" font-size="14.00">!(IsKimHere())</text>
</g>
<!-- 39&#45;&gt;41 -->
<g id="edge46" class="edge">
<title>39&#45;&gt;41</title>
<path fill="none" stroke="black" d="M3584,-359.7C3584,-352.41 3584,-343.73 3584,-335.54"/>
<polygon fill="black" stroke="black" points="3587.5,-335.62 3584,-325.62 3580.5,-335.62 3587.5,-335.62"/>
</g>
<!-- 40&#45;&gt;29 -->
<g id="edge47" class="edge">
<title>40&#45;&gt;29</title>
<path fill="none" stroke="black" d="M3054.74,-295.92C3011.26,-285.6 2938.96,-268.45 2882.15,-254.97"/>
<polygon fill="black" stroke="black" points="2883.02,-251.58 2872.48,-252.67 2881.4,-258.39 2883.02,-251.58"/>
</g>
<!-- 41&#45;&gt;11 -->
<g id="edge48" class="edge">
<title>41&#45;&gt;11</title>
<path fill="none" stroke="black" d="M3584,-287.7C3584,-280.41 3584,-271.73 3584,-263.54"/>
<polygon fill="black" stroke="black" points="3587.5,-263.62 3584,-253.62 3580.5,-263.62 3587.5,-263.62"/>
</g>
<!-- 43 -->
<g id="node44" class="node">
<title>43</title>
<polygon fill="none" stroke="black" points="3890,-756 3462.71,-738 3890,-720 4317.29,-738 3890,-756"/>
<text text-anchor="middle" x="3890" y="-732.95" font-family="Times New Roman,serif" font-size="14.00">IsTaskActive(&quot;TASK.examine_library_card_with_main_task&quot;)&#45;&#45;[[ Variable[ ]]</text>
</g>
<!-- 42&#45;&gt;43 -->
<g id="edge49" class="edge">
<title>42&#45;&gt;43</title>
<path fill="none" stroke="black" d="M4067.51,-791.88C4032.54,-781.46 3987.87,-768.15 3952.09,-757.5"/>
<polygon fill="black" stroke="black" points="3953.33,-754.21 3942.75,-754.71 3951.33,-760.92 3953.33,-754.21"/>
</g>
<!-- 44 -->
<g id="node45" class="node">
<title>44</title>
<polygon fill="none" stroke="black" points="4391,-684 3950.68,-666 4391,-648 4831.32,-666 4391,-684"/>
<text text-anchor="middle" x="4391" y="-660.95" font-family="Times New Roman,serif" font-size="14.00">!(IsTaskActive(&quot;TASK.examine_library_card_with_main_task&quot;)&#45;&#45;[[ Variable[ ]])</text>
</g>
<!-- 42&#45;&gt;44 -->
<g id="edge50" class="edge">
<title>42&#45;&gt;44</title>
<path fill="none" stroke="black" d="M4239.8,-792.93C4269.63,-785.08 4300.51,-773.39 4326,-756 4348.91,-740.37 4366.71,-713.9 4377.85,-693.89"/>
<polygon fill="black" stroke="black" points="4380.89,-695.63 4382.49,-685.16 4374.71,-692.34 4380.89,-695.63"/>
</g>
<!-- 43&#45;&gt;24 -->
<g id="edge51" class="edge">
<title>43&#45;&gt;24</title>
<path fill="none" stroke="black" d="M3860.31,-720.76C3842.28,-710.9 3819.1,-698.22 3799.77,-687.65"/>
<polygon fill="black" stroke="black" points="3801.56,-684.64 3791.1,-682.92 3798.2,-690.78 3801.56,-684.64"/>
</g>
<!-- 44&#45;&gt;10 -->
<g id="edge52" class="edge">
<title>44&#45;&gt;10</title>
<path fill="none" stroke="black" d="M4505.29,-652.23C4582.71,-636.48 4671,-601.35 4671,-523 4671,-523 4671,-523 4671,-161 4671,-120.55 4683.02,-97.96 4652,-72 4603.29,-31.23 3803.4,-21.69 3357.18,-19.54"/>
<polygon fill="black" stroke="black" points="3357.25,-16.04 3347.23,-19.5 3357.22,-23.04 3357.25,-16.04"/>
</g>
<!-- 45&#45;&gt;23 -->
<g id="edge53" class="edge">
<title>45&#45;&gt;23</title>
<path fill="none" stroke="black" d="M1625.34,-442.97C1746.28,-432.89 1994.08,-412.24 2175.56,-397.12"/>
<polygon fill="black" stroke="black" points="2175.68,-400.62 2185.36,-396.3 2175.1,-393.65 2175.68,-400.62"/>
</g>
</g>
</svg>
