<?xml version="1.0" encoding="UTF-8" standalone="no"?>
<!DOCTYPE svg PUBLIC "-//W3C//DTD SVG 1.1//EN"
 "http://www.w3.org/Graphics/SVG/1.1/DTD/svg11.dtd">
<!-- Generated by graphviz version 12.2.1 (20241206.2353)
 -->
<!-- Title: G Pages: 1 -->
<svg width="2360pt" height="1844pt"
 viewBox="0.00 0.00 2359.79 1844.00" xmlns="http://www.w3.org/2000/svg" xmlns:xlink="http://www.w3.org/1999/xlink">
<g id="graph0" class="graph" transform="scale(1 1) rotate(0) translate(4 1840)">
<title>G</title>
<polygon fill="white" stroke="none" points="-4,4 -4,-1840 2355.79,-1840 2355.79,4 -4,4"/>
<!-- 0 -->
<g id="node1" class="node">
<title>0</title>
<ellipse fill="none" stroke="black" cx="1430.2" cy="-1818" rx="39.07" ry="18"/>
<text text-anchor="middle" x="1430.2" y="-1812.95" font-family="Times New Roman,serif" font-size="14.00">START</text>
</g>
<!-- 1 -->
<g id="node2" class="node">
<title>1</title>
<ellipse fill="none" stroke="black" cx="1430.2" cy="-1746" rx="29.86" ry="18"/>
<text text-anchor="middle" x="1430.2" y="-1740.95" font-family="Times New Roman,serif" font-size="14.00">input</text>
</g>
<!-- 0&#45;&gt;1 -->
<g id="edge1" class="edge">
<title>0&#45;&gt;1</title>
<path fill="none" stroke="black" d="M1430.2,-1799.7C1430.2,-1792.41 1430.2,-1783.73 1430.2,-1775.54"/>
<polygon fill="black" stroke="black" points="1433.7,-1775.62 1430.2,-1765.62 1426.7,-1775.62 1433.7,-1775.62"/>
</g>
<!-- 3 -->
<g id="node4" class="node">
<title>3</title>
<ellipse fill="none" stroke="black" cx="1430.2" cy="-1674" rx="346.15" ry="18"/>
<text text-anchor="middle" x="1430.2" y="-1668.95" font-family="Times New Roman,serif" font-size="14.00">Filthy Jacket: As you hold it in your hands, it makes an uncomfortable crunching sound...</text>
</g>
<!-- 1&#45;&gt;3 -->
<g id="edge2" class="edge">
<title>1&#45;&gt;3</title>
<path fill="none" stroke="black" d="M1430.2,-1727.7C1430.2,-1720.41 1430.2,-1711.73 1430.2,-1703.54"/>
<polygon fill="black" stroke="black" points="1433.7,-1703.62 1430.2,-1693.62 1426.7,-1703.62 1433.7,-1703.62"/>
</g>
<!-- 2 -->
<g id="node3" class="node">
<title>2</title>
<ellipse fill="none" stroke="black" cx="993.2" cy="-1602" rx="176.23" ry="18"/>
<text text-anchor="middle" x="993.2" y="-1596.95" font-family="Times New Roman,serif" font-size="14.00">You: Why did I fondle the shit jacket again?</text>
</g>
<!-- 16 -->
<g id="node17" class="node">
<title>16</title>
<ellipse fill="none" stroke="black" cx="943.2" cy="-1530" rx="125.56" ry="18"/>
<text text-anchor="middle" x="943.2" y="-1524.95" font-family="Times New Roman,serif" font-size="14.00">Filthy Jacket: There is no why.</text>
</g>
<!-- 2&#45;&gt;16 -->
<g id="edge3" class="edge">
<title>2&#45;&gt;16</title>
<path fill="none" stroke="black" d="M980.84,-1583.7C975.15,-1575.73 968.27,-1566.1 961.96,-1557.26"/>
<polygon fill="black" stroke="black" points="964.95,-1555.44 956.29,-1549.34 959.26,-1559.51 964.95,-1555.44"/>
</g>
<!-- 3&#45;&gt;2 -->
<g id="edge5" class="edge">
<title>3&#45;&gt;2</title>
<path fill="none" stroke="black" d="M1326.36,-1656.37C1256.75,-1645.22 1165.49,-1630.6 1096.08,-1619.48"/>
<polygon fill="black" stroke="black" points="1097.06,-1616.09 1086.63,-1617.97 1095.95,-1623 1097.06,-1616.09"/>
</g>
<!-- 23 -->
<g id="node24" class="node">
<title>23</title>
<ellipse fill="none" stroke="black" cx="1430.2" cy="-1602" rx="193.63" ry="18"/>
<text text-anchor="middle" x="1430.2" y="-1596.95" font-family="Times New Roman,serif" font-size="14.00">You: Man, how did this jacket get so disgusting?</text>
</g>
<!-- 3&#45;&gt;23 -->
<g id="edge6" class="edge">
<title>3&#45;&gt;23</title>
<path fill="none" stroke="black" d="M1430.2,-1655.7C1430.2,-1648.41 1430.2,-1639.73 1430.2,-1631.54"/>
<polygon fill="black" stroke="black" points="1433.7,-1631.62 1430.2,-1621.62 1426.7,-1631.62 1433.7,-1631.62"/>
</g>
<!-- 32 -->
<g id="node33" class="node">
<title>32</title>
<ellipse fill="none" stroke="black" cx="1936.2" cy="-1602" rx="270.41" ry="18"/>
<text text-anchor="middle" x="1936.2" y="-1596.95" font-family="Times New Roman,serif" font-size="14.00">You: Let&#39;s not think about that right now. [Put the filthy jacket away.]</text>
</g>
<!-- 3&#45;&gt;32 -->
<g id="edge4" class="edge">
<title>3&#45;&gt;32</title>
<path fill="none" stroke="black" d="M1548.51,-1656.63C1627.45,-1645.71 1731.09,-1631.37 1811.35,-1620.27"/>
<polygon fill="black" stroke="black" points="1811.59,-1623.77 1821.01,-1618.93 1810.63,-1616.84 1811.59,-1623.77"/>
</g>
<!-- 4 -->
<g id="node5" class="node">
<title>4</title>
<ellipse fill="none" stroke="black" cx="1428.2" cy="-1242" rx="196.7" ry="18"/>
<text text-anchor="middle" x="1428.2" y="-1236.95" font-family="Times New Roman,serif" font-size="14.00">You: On second thought, let&#39;s *do* think about it.</text>
</g>
<!-- 13 -->
<g id="node14" class="node">
<title>13</title>
<ellipse fill="none" stroke="black" cx="1315.2" cy="-1170" rx="557.53" ry="18"/>
<text text-anchor="middle" x="1315.2" y="-1164.95" font-family="Times New Roman,serif" font-size="14.00">Filthy Jacket: It occurs to you that you&#39;re not even *holding* the jacket itself, but rather the thick crust of jetsam and seagull shit that ensconces it.</text>
</g>
<!-- 4&#45;&gt;13 -->
<g id="edge7" class="edge">
<title>4&#45;&gt;13</title>
<path fill="none" stroke="black" d="M1400.26,-1223.7C1385.87,-1214.78 1368.11,-1203.78 1352.55,-1194.14"/>
<polygon fill="black" stroke="black" points="1354.83,-1191.43 1344.49,-1189.14 1351.14,-1197.39 1354.83,-1191.43"/>
</g>
<!-- 5 -->
<g id="node6" class="node">
<title>5</title>
<ellipse fill="none" stroke="black" cx="868.2" cy="-810" rx="223.32" ry="18"/>
<text text-anchor="middle" x="868.2" y="-804.95" font-family="Times New Roman,serif" font-size="14.00">You: What happened once someone put it on the railing?</text>
</g>
<!-- 28 -->
<g id="node29" class="node">
<title>28</title>
<ellipse fill="none" stroke="black" cx="868.2" cy="-738" rx="458.75" ry="18"/>
<text text-anchor="middle" x="868.2" y="-732.95" font-family="Times New Roman,serif" font-size="14.00">Filthy Jacket: The crust is hard. This jacket spent at least a day baking in the sun. Who knows what happened to it then?</text>
</g>
<!-- 5&#45;&gt;28 -->
<g id="edge8" class="edge">
<title>5&#45;&gt;28</title>
<path fill="none" stroke="black" d="M868.2,-791.7C868.2,-784.41 868.2,-775.73 868.2,-767.54"/>
<polygon fill="black" stroke="black" points="871.7,-767.62 868.2,-757.62 864.7,-767.62 871.7,-767.62"/>
</g>
<!-- 6 -->
<g id="node7" class="node">
<title>6</title>
<ellipse fill="none" stroke="black" cx="757.2" cy="-306" rx="391.7" ry="18"/>
<text text-anchor="middle" x="757.2" y="-300.95" font-family="Times New Roman,serif" font-size="14.00">Shivers: *SPLAT*. An explosion of white on a man&#39;s shoe. A curse goes up, but the birds do not hear.</text>
</g>
<!-- 14 -->
<g id="node15" class="node">
<title>14</title>
<ellipse fill="none" stroke="black" cx="579.2" cy="-234" rx="283.71" ry="18"/>
<text text-anchor="middle" x="579.2" y="-228.95" font-family="Times New Roman,serif" font-size="14.00">You: I feel like I really understand this jacket now. [Put the jacket away.]</text>
</g>
<!-- 6&#45;&gt;14 -->
<g id="edge9" class="edge">
<title>6&#45;&gt;14</title>
<path fill="none" stroke="black" d="M713.2,-287.7C689.15,-278.24 659.14,-266.44 633.63,-256.41"/>
<polygon fill="black" stroke="black" points="634.99,-253.18 624.41,-252.78 632.43,-259.7 634.99,-253.18"/>
</g>
<!-- 15 -->
<g id="node16" class="node">
<title>15</title>
<ellipse fill="none" stroke="black" cx="1142.2" cy="-234" rx="261.19" ry="18"/>
<text text-anchor="middle" x="1142.2" y="-228.95" font-family="Times New Roman,serif" font-size="14.00">You: Why did I just spend all this time thinking about seagull shit?</text>
</g>
<!-- 6&#45;&gt;15 -->
<g id="edge10" class="edge">
<title>6&#45;&gt;15</title>
<path fill="none" stroke="black" d="M850.39,-288.05C907.99,-277.58 981.93,-264.14 1040.96,-253.41"/>
<polygon fill="black" stroke="black" points="1041.48,-256.87 1050.69,-251.64 1040.22,-249.98 1041.48,-256.87"/>
</g>
<!-- 7 -->
<g id="node8" class="node">
<title>7</title>
<ellipse fill="none" stroke="black" cx="868.2" cy="-594" rx="178.28" ry="18"/>
<text text-anchor="middle" x="868.2" y="-588.95" font-family="Times New Roman,serif" font-size="14.00">Variable[&quot;inventory.filthy_shivers_seagulls&quot;]</text>
</g>
<!-- 8 -->
<g id="node9" class="node">
<title>8</title>
<polygon fill="none" stroke="black" points="841.2,-540 589.07,-522 841.2,-504 1093.32,-522 841.2,-540"/>
<text text-anchor="middle" x="841.2" y="-516.95" font-family="Times New Roman,serif" font-size="14.00">Variable[&quot;inventory.filthy_shivers_seagulls&quot;]</text>
</g>
<!-- 7&#45;&gt;8 -->
<g id="edge11" class="edge">
<title>7&#45;&gt;8</title>
<path fill="none" stroke="black" d="M861.52,-575.7C858.57,-568.04 855.02,-558.85 851.73,-550.3"/>
<polygon fill="black" stroke="black" points="855.02,-549.1 848.15,-541.03 848.49,-551.62 855.02,-549.1"/>
</g>
<!-- 9 -->
<g id="node10" class="node">
<title>9</title>
<polygon fill="none" stroke="black" points="1404.2,-540 1139.04,-522 1404.2,-504 1669.35,-522 1404.2,-540"/>
<text text-anchor="middle" x="1404.2" y="-516.95" font-family="Times New Roman,serif" font-size="14.00">!(Variable[&quot;inventory.filthy_shivers_seagulls&quot;])</text>
</g>
<!-- 7&#45;&gt;9 -->
<g id="edge12" class="edge">
<title>7&#45;&gt;9</title>
<path fill="none" stroke="black" d="M974.41,-579.13C1070.61,-566.57 1211.24,-548.2 1305.14,-535.94"/>
<polygon fill="black" stroke="black" points="1305.39,-539.43 1314.86,-534.67 1304.49,-532.49 1305.39,-539.43"/>
</g>
<!-- 25 -->
<g id="node26" class="node">
<title>25</title>
<ellipse fill="none" stroke="black" cx="799.2" cy="-450" rx="420.88" ry="18"/>
<text text-anchor="middle" x="799.2" y="-444.95" font-family="Times New Roman,serif" font-size="14.00">Shivers: They are like the bombardiers of the aerostatic brigades, gliding above a *target&#45;rich environment*...</text>
</g>
<!-- 8&#45;&gt;25 -->
<g id="edge13" class="edge">
<title>8&#45;&gt;25</title>
<path fill="none" stroke="black" d="M831.24,-504.41C826.52,-496.54 820.75,-486.93 815.42,-478.04"/>
<polygon fill="black" stroke="black" points="818.59,-476.52 810.44,-469.74 812.59,-480.12 818.59,-476.52"/>
</g>
<!-- 36 -->
<g id="node36" class="node">
<title>36</title>
<ellipse fill="none" stroke="black" cx="1431.2" cy="-378" rx="240.72" ry="18"/>
<text text-anchor="middle" x="1431.2" y="-372.95" font-family="Times New Roman,serif" font-size="14.00">You: I&#39;m just going to pretend I didn&#39;t think about any of this.</text>
</g>
<!-- 9&#45;&gt;36 -->
<g id="edge14" class="edge">
<title>9&#45;&gt;36</title>
<path fill="none" stroke="black" d="M1407.45,-503.87C1412.02,-479.88 1420.36,-435.99 1425.84,-407.16"/>
<polygon fill="black" stroke="black" points="1429.22,-408.15 1427.65,-397.68 1422.34,-406.85 1429.22,-408.15"/>
</g>
<!-- 10 -->
<g id="node11" class="node">
<title>10</title>
<ellipse fill="none" stroke="black" cx="1961.2" cy="-1530" rx="169.58" ry="18"/>
<text text-anchor="middle" x="1961.2" y="-1524.95" font-family="Times New Roman,serif" font-size="14.00">Filthy Jacket: It&#39;s probably better that way.</text>
</g>
<!-- 11 -->
<g id="node12" class="node">
<title>11</title>
<ellipse fill="none" stroke="black" cx="1943.2" cy="-18" rx="408.59" ry="18"/>
<text text-anchor="middle" x="1943.2" y="-12.95" font-family="Times New Roman,serif" font-size="14.00">Composure: What? No! Then it&#39;ll just be on your *pants*. This is a disaster. You&#39;ll never get the smell out.</text>
</g>
<!-- 12 -->
<g id="node13" class="node">
<title>12</title>
<ellipse fill="none" stroke="black" cx="1594.2" cy="-1314" rx="287.29" ry="18"/>
<text text-anchor="middle" x="1594.2" y="-1308.95" font-family="Times New Roman,serif" font-size="14.00">Filthy Jacket: Good choice. The less you think about the jacket, the better.</text>
</g>
<!-- 12&#45;&gt;4 -->
<g id="edge15" class="edge">
<title>12&#45;&gt;4</title>
<path fill="none" stroke="black" d="M1553.16,-1295.7C1530.85,-1286.29 1503.05,-1274.56 1479.33,-1264.56"/>
<polygon fill="black" stroke="black" points="1480.73,-1261.35 1470.15,-1260.69 1478.01,-1267.8 1480.73,-1261.35"/>
</g>
<!-- 31 -->
<g id="node32" class="node">
<title>31</title>
<ellipse fill="none" stroke="black" cx="1777.2" cy="-1242" rx="134.78" ry="18"/>
<text text-anchor="middle" x="1777.2" y="-1236.95" font-family="Times New Roman,serif" font-size="14.00">You: [Put the filthy jacket away.]</text>
</g>
<!-- 12&#45;&gt;31 -->
<g id="edge16" class="edge">
<title>12&#45;&gt;31</title>
<path fill="none" stroke="black" d="M1638.96,-1295.88C1664.56,-1286.09 1696.82,-1273.74 1723.74,-1263.45"/>
<polygon fill="black" stroke="black" points="1724.65,-1266.85 1732.74,-1260.01 1722.15,-1260.31 1724.65,-1266.85"/>
</g>
<!-- 39 -->
<g id="node39" class="node">
<title>39</title>
<ellipse fill="none" stroke="black" cx="1315.2" cy="-1098" rx="660.91" ry="18"/>
<text text-anchor="middle" x="1315.2" y="-1092.95" font-family="Times New Roman,serif" font-size="14.00">Perception (Smell): It smells like a dead sea creature, tangled in grey strands of seaweed. It must have spent quite some time in the water before the tide deposited it ashore...</text>
</g>
<!-- 13&#45;&gt;39 -->
<g id="edge17" class="edge">
<title>13&#45;&gt;39</title>
<path fill="none" stroke="black" d="M1315.2,-1151.7C1315.2,-1144.41 1315.2,-1135.73 1315.2,-1127.54"/>
<polygon fill="black" stroke="black" points="1318.7,-1127.62 1315.2,-1117.62 1311.7,-1127.62 1318.7,-1127.62"/>
</g>
<!-- 37 -->
<g id="node37" class="node">
<title>37</title>
<ellipse fill="none" stroke="black" cx="1298.2" cy="-162" rx="386.07" ry="18"/>
<text text-anchor="middle" x="1298.2" y="-156.95" font-family="Times New Roman,serif" font-size="14.00">Composure: It&#39;s too late! You&#39;ve already thought about it. And now your hands are covered in muck!</text>
</g>
<!-- 15&#45;&gt;37 -->
<g id="edge18" class="edge">
<title>15&#45;&gt;37</title>
<path fill="none" stroke="black" d="M1180.36,-215.88C1201.15,-206.55 1227.1,-194.9 1249.36,-184.92"/>
<polygon fill="black" stroke="black" points="1250.55,-188.22 1258.24,-180.93 1247.68,-181.83 1250.55,-188.22"/>
</g>
<!-- 33 -->
<g id="node34" class="node">
<title>33</title>
<ellipse fill="none" stroke="black" cx="943.2" cy="-1458" rx="129.66" ry="18"/>
<text text-anchor="middle" x="943.2" y="-1452.95" font-family="Times New Roman,serif" font-size="14.00">You: Let&#39;s just put it away then.</text>
</g>
<!-- 16&#45;&gt;33 -->
<g id="edge19" class="edge">
<title>16&#45;&gt;33</title>
<path fill="none" stroke="black" d="M943.2,-1511.7C943.2,-1504.41 943.2,-1495.73 943.2,-1487.54"/>
<polygon fill="black" stroke="black" points="946.7,-1487.62 943.2,-1477.62 939.7,-1487.62 946.7,-1487.62"/>
</g>
<!-- 17 -->
<g id="node18" class="node">
<title>17</title>
<ellipse fill="none" stroke="black" cx="990.2" cy="-954" rx="577.49" ry="18"/>
<text text-anchor="middle" x="990.2" y="-948.95" font-family="Times New Roman,serif" font-size="14.00">Filthy Jacket: Somehow it was carried or dragged to the boardwalk, if not by human hands than perhaps the feral dogs that prowl the beaches at night...</text>
</g>
<!-- 40 -->
<g id="node40" class="node">
<title>40</title>
<ellipse fill="none" stroke="black" cx="868.2" cy="-882" rx="868.2" ry="18"/>
<text text-anchor="middle" x="868.2" y="-876.95" font-family="Times New Roman,serif" font-size="14.00">Visual Calculus: The faint impressions of many footprints are also present, though it&#39;s impossible to tell what kind or how many. Suffice to say, the jacket spent some time on the ground before someone draped it over the railing...</text>
</g>
<!-- 17&#45;&gt;40 -->
<g id="edge20" class="edge">
<title>17&#45;&gt;40</title>
<path fill="none" stroke="black" d="M960.04,-935.7C944.35,-926.69 924.97,-915.57 908.05,-905.87"/>
<polygon fill="black" stroke="black" points="910.16,-903.04 899.74,-901.1 906.67,-909.11 910.16,-903.04"/>
</g>
<!-- 18 -->
<g id="node19" class="node">
<title>18</title>
<ellipse fill="none" stroke="black" cx="1430.2" cy="-1458" rx="299.07" ry="18"/>
<text text-anchor="middle" x="1430.2" y="-1452.95" font-family="Times New Roman,serif" font-size="14.00">Composure: Some secrets are better left uncovered. Don&#39;t even try, seriously.</text>
</g>
<!-- 19 -->
<g id="node20" class="node">
<title>19</title>
<ellipse fill="none" stroke="black" cx="1529.2" cy="-1386" rx="106.11" ry="18"/>
<text text-anchor="middle" x="1529.2" y="-1380.95" font-family="Times New Roman,serif" font-size="14.00">You: Don&#39;t think about it.</text>
</g>
<!-- 18&#45;&gt;19 -->
<g id="edge22" class="edge">
<title>18&#45;&gt;19</title>
<path fill="none" stroke="black" d="M1454.67,-1439.7C1467.23,-1430.81 1482.71,-1419.87 1496.3,-1410.26"/>
<polygon fill="black" stroke="black" points="1497.97,-1413.37 1504.11,-1404.74 1493.93,-1407.65 1497.97,-1413.37"/>
</g>
<!-- 24 -->
<g id="node25" class="node">
<title>24</title>
<ellipse fill="none" stroke="black" cx="1203.2" cy="-1314" rx="86.15" ry="18"/>
<text text-anchor="middle" x="1203.2" y="-1308.95" font-family="Times New Roman,serif" font-size="14.00">You: Think about it.</text>
</g>
<!-- 18&#45;&gt;24 -->
<g id="edge21" class="edge">
<title>18&#45;&gt;24</title>
<path fill="none" stroke="black" d="M1402.36,-1439.59C1361.31,-1413.91 1284.5,-1365.86 1239.21,-1337.53"/>
<polygon fill="black" stroke="black" points="1241.12,-1334.59 1230.78,-1332.26 1237.41,-1340.53 1241.12,-1334.59"/>
</g>
<!-- 19&#45;&gt;12 -->
<g id="edge23" class="edge">
<title>19&#45;&gt;12</title>
<path fill="none" stroke="black" d="M1544.93,-1368.05C1552.56,-1359.84 1561.89,-1349.79 1570.37,-1340.66"/>
<polygon fill="black" stroke="black" points="1572.89,-1343.09 1577.13,-1333.38 1567.76,-1338.33 1572.89,-1343.09"/>
</g>
<!-- 20 -->
<g id="node21" class="node">
<title>20</title>
<ellipse fill="none" stroke="black" cx="1750.2" cy="-90" rx="183.4" ry="18"/>
<text text-anchor="middle" x="1750.2" y="-84.95" font-family="Times New Roman,serif" font-size="14.00">You: Maybe if I wipe my hands on my pants?</text>
</g>
<!-- 20&#45;&gt;11 -->
<g id="edge24" class="edge">
<title>20&#45;&gt;11</title>
<path fill="none" stroke="black" d="M1796.43,-72.23C1822.93,-62.62 1856.45,-50.46 1884.76,-40.2"/>
<polygon fill="black" stroke="black" points="1885.7,-43.58 1893.91,-36.88 1883.31,-37 1885.7,-43.58"/>
</g>
<!-- 21 -->
<g id="node22" class="node">
<title>21</title>
<ellipse fill="none" stroke="black" cx="1214.2" cy="-1026" rx="174.19" ry="18"/>
<text text-anchor="middle" x="1214.2" y="-1020.95" font-family="Times New Roman,serif" font-size="14.00">You: Okay, but what&#39;s the crust *made* of?</text>
</g>
<!-- 21&#45;&gt;17 -->
<g id="edge25" class="edge">
<title>21&#45;&gt;17</title>
<path fill="none" stroke="black" d="M1161.11,-1008.41C1129.71,-998.6 1089.67,-986.08 1056.24,-975.64"/>
<polygon fill="black" stroke="black" points="1057.67,-972.42 1047.08,-972.78 1055.58,-979.1 1057.67,-972.42"/>
</g>
<!-- 22 -->
<g id="node23" class="node">
<title>22</title>
<ellipse fill="none" stroke="black" cx="1105.2" cy="-18" rx="411.15" ry="18"/>
<text text-anchor="middle" x="1105.2" y="-12.95" font-family="Times New Roman,serif" font-size="14.00">Composure: Now you&#39;re just flicking that shit everywhere! This is a disaster. You&#39;ll never get the smell out.</text>
</g>
<!-- 38 -->
<g id="node38" class="node">
<title>38</title>
<ellipse fill="none" stroke="black" cx="1430.2" cy="-1530" rx="343.59" ry="18"/>
<text text-anchor="middle" x="1430.2" y="-1524.95" font-family="Times New Roman,serif" font-size="14.00">Filthy Jacket: It&#39;s a sordid, filthy tale, not for the weak. Are you sure you can stomach it?</text>
</g>
<!-- 23&#45;&gt;38 -->
<g id="edge26" class="edge">
<title>23&#45;&gt;38</title>
<path fill="none" stroke="black" d="M1430.2,-1583.7C1430.2,-1576.41 1430.2,-1567.73 1430.2,-1559.54"/>
<polygon fill="black" stroke="black" points="1433.7,-1559.62 1430.2,-1549.62 1426.7,-1559.62 1433.7,-1559.62"/>
</g>
<!-- 24&#45;&gt;13 -->
<g id="edge27" class="edge">
<title>24&#45;&gt;13</title>
<path fill="none" stroke="black" d="M1202.85,-1295.58C1203.32,-1276.31 1206.71,-1245.17 1222.2,-1224 1231.38,-1211.45 1244.5,-1201.44 1258,-1193.65"/>
<polygon fill="black" stroke="black" points="1259.35,-1196.9 1266.51,-1189.08 1256.04,-1190.73 1259.35,-1196.9"/>
</g>
<!-- 29 -->
<g id="node30" class="node">
<title>29</title>
<ellipse fill="none" stroke="black" cx="757.2" cy="-378" rx="415.25" ry="18"/>
<text text-anchor="middle" x="757.2" y="-372.95" font-family="Times New Roman,serif" font-size="14.00">Shivers: All of a sudden, the bomb bay doors open, and their white glittering payload rushes to the ground...</text>
</g>
<!-- 25&#45;&gt;29 -->
<g id="edge28" class="edge">
<title>25&#45;&gt;29</title>
<path fill="none" stroke="black" d="M788.82,-431.7C784.14,-423.9 778.5,-414.51 773.29,-405.83"/>
<polygon fill="black" stroke="black" points="776.38,-404.18 768.24,-397.4 770.38,-407.78 776.38,-404.18"/>
</g>
<!-- 26 -->
<g id="node27" class="node">
<title>26</title>
<ellipse fill="none" stroke="black" cx="1702.2" cy="-954" rx="55.45" ry="18"/>
<text text-anchor="middle" x="1702.2" y="-948.95" font-family="Times New Roman,serif" font-size="14.00">You: Gross.</text>
</g>
<!-- 41 -->
<g id="node41" class="node">
<title>41</title>
<ellipse fill="none" stroke="black" cx="1736.2" cy="-666" rx="365.6" ry="18"/>
<text text-anchor="middle" x="1736.2" y="-660.95" font-family="Times New Roman,serif" font-size="14.00">Composure: Why, why did you think about it? Look at your hands &#45;&#45; They&#39;re covered in muck!</text>
</g>
<!-- 26&#45;&gt;41 -->
<g id="edge29" class="edge">
<title>26&#45;&gt;41</title>
<path fill="none" stroke="black" d="M1720.34,-936.76C1729.71,-927.13 1740.21,-914.07 1745.2,-900 1770.1,-829.78 1754.54,-740.09 1743.83,-695.23"/>
<polygon fill="black" stroke="black" points="1747.29,-694.64 1741.47,-685.79 1740.5,-696.34 1747.29,-694.64"/>
</g>
<!-- 27 -->
<g id="node28" class="node">
<title>27</title>
<ellipse fill="none" stroke="black" cx="1298.2" cy="-90" rx="151.15" ry="18"/>
<text text-anchor="middle" x="1298.2" y="-84.95" font-family="Times New Roman,serif" font-size="14.00">You: Ew, ew, ew! (Flick your hands.)</text>
</g>
<!-- 27&#45;&gt;22 -->
<g id="edge30" class="edge">
<title>27&#45;&gt;22</title>
<path fill="none" stroke="black" d="M1252.46,-72.41C1225.87,-62.77 1192.09,-50.52 1163.6,-40.18"/>
<polygon fill="black" stroke="black" points="1164.98,-36.96 1154.38,-36.84 1162.59,-43.54 1164.98,-36.96"/>
</g>
<!-- 30 -->
<g id="node31" class="node">
<title>30</title>
<ellipse fill="none" stroke="black" cx="868.2" cy="-666" rx="339.5" ry="18"/>
<text text-anchor="middle" x="868.2" y="-660.95" font-family="Times New Roman,serif" font-size="14.00">Shivers: Somewhere, high above the city, a pair of seagulls trace loops through the air...</text>
</g>
<!-- 28&#45;&gt;30 -->
<g id="edge31" class="edge">
<title>28&#45;&gt;30</title>
<path fill="none" stroke="black" d="M868.2,-719.7C868.2,-712.41 868.2,-703.73 868.2,-695.54"/>
<polygon fill="black" stroke="black" points="871.7,-695.62 868.2,-685.62 864.7,-695.62 871.7,-695.62"/>
</g>
<!-- 29&#45;&gt;6 -->
<g id="edge32" class="edge">
<title>29&#45;&gt;6</title>
<path fill="none" stroke="black" d="M757.2,-359.7C757.2,-352.41 757.2,-343.73 757.2,-335.54"/>
<polygon fill="black" stroke="black" points="760.7,-335.62 757.2,-325.62 753.7,-335.62 760.7,-335.62"/>
</g>
<!-- 30&#45;&gt;7 -->
<g id="edge33" class="edge">
<title>30&#45;&gt;7</title>
<path fill="none" stroke="black" d="M868.2,-647.7C868.2,-640.41 868.2,-631.73 868.2,-623.54"/>
<polygon fill="black" stroke="black" points="871.7,-623.62 868.2,-613.62 864.7,-623.62 871.7,-623.62"/>
</g>
<!-- 32&#45;&gt;10 -->
<g id="edge34" class="edge">
<title>32&#45;&gt;10</title>
<path fill="none" stroke="black" d="M1942.38,-1583.7C1945.07,-1576.15 1948.3,-1567.12 1951.31,-1558.68"/>
<polygon fill="black" stroke="black" points="1954.51,-1560.12 1954.58,-1549.53 1947.92,-1557.77 1954.51,-1560.12"/>
</g>
<!-- 34 -->
<g id="node35" class="node">
<title>34</title>
<ellipse fill="none" stroke="black" cx="1423.2" cy="-810" rx="205.92" ry="18"/>
<text text-anchor="middle" x="1423.2" y="-804.95" font-family="Times New Roman,serif" font-size="14.00">You: Okay, that&#39;s pretty disgusting. I&#39;ve had enough.</text>
</g>
<!-- 34&#45;&gt;41 -->
<g id="edge35" class="edge">
<title>34&#45;&gt;41</title>
<path fill="none" stroke="black" d="M1460.95,-791.87C1517.82,-766.07 1625.44,-717.25 1687.93,-688.9"/>
<polygon fill="black" stroke="black" points="1689.27,-692.13 1696.93,-684.81 1686.38,-685.76 1689.27,-692.13"/>
</g>
<!-- 36&#45;&gt;37 -->
<g id="edge36" class="edge">
<title>36&#45;&gt;37</title>
<path fill="none" stroke="black" d="M1434.24,-359.55C1438.78,-327.74 1443.72,-259.55 1412.2,-216 1402.58,-202.71 1388.78,-192.66 1374.09,-185.08"/>
<polygon fill="black" stroke="black" points="1375.72,-181.98 1365.18,-180.88 1372.73,-188.31 1375.72,-181.98"/>
</g>
<!-- 37&#45;&gt;20 -->
<g id="edge38" class="edge">
<title>37&#45;&gt;20</title>
<path fill="none" stroke="black" d="M1406.18,-144.28C1478.06,-133.14 1572.09,-118.58 1643.68,-107.5"/>
<polygon fill="black" stroke="black" points="1644.12,-110.97 1653.47,-105.98 1643.05,-104.05 1644.12,-110.97"/>
</g>
<!-- 37&#45;&gt;27 -->
<g id="edge37" class="edge">
<title>37&#45;&gt;27</title>
<path fill="none" stroke="black" d="M1298.2,-143.7C1298.2,-136.41 1298.2,-127.73 1298.2,-119.54"/>
<polygon fill="black" stroke="black" points="1301.7,-119.62 1298.2,-109.62 1294.7,-119.62 1301.7,-119.62"/>
</g>
<!-- 38&#45;&gt;18 -->
<g id="edge39" class="edge">
<title>38&#45;&gt;18</title>
<path fill="none" stroke="black" d="M1430.2,-1511.7C1430.2,-1504.41 1430.2,-1495.73 1430.2,-1487.54"/>
<polygon fill="black" stroke="black" points="1433.7,-1487.62 1430.2,-1477.62 1426.7,-1487.62 1433.7,-1487.62"/>
</g>
<!-- 39&#45;&gt;21 -->
<g id="edge41" class="edge">
<title>39&#45;&gt;21</title>
<path fill="none" stroke="black" d="M1289.97,-1079.52C1277.34,-1070.76 1261.87,-1060.04 1248.21,-1050.58"/>
<polygon fill="black" stroke="black" points="1250.56,-1047.94 1240.35,-1045.12 1246.57,-1053.7 1250.56,-1047.94"/>
</g>
<!-- 39&#45;&gt;26 -->
<g id="edge40" class="edge">
<title>39&#45;&gt;26</title>
<path fill="none" stroke="black" d="M1362.65,-1079.59C1437.48,-1052.13 1581.99,-999.11 1656.02,-971.94"/>
<polygon fill="black" stroke="black" points="1656.81,-975.38 1665,-968.65 1654.4,-968.81 1656.81,-975.38"/>
</g>
<!-- 40&#45;&gt;5 -->
<g id="edge43" class="edge">
<title>40&#45;&gt;5</title>
<path fill="none" stroke="black" d="M868.2,-863.7C868.2,-856.41 868.2,-847.73 868.2,-839.54"/>
<polygon fill="black" stroke="black" points="871.7,-839.62 868.2,-829.62 864.7,-839.62 871.7,-839.62"/>
</g>
<!-- 40&#45;&gt;34 -->
<g id="edge42" class="edge">
<title>40&#45;&gt;34</title>
<path fill="none" stroke="black" d="M1005.03,-863.74C1094.67,-852.44 1210.93,-837.77 1298.1,-826.78"/>
<polygon fill="black" stroke="black" points="1298.4,-830.27 1307.89,-825.54 1297.53,-823.32 1298.4,-830.27"/>
</g>
<!-- 41&#45;&gt;20 -->
<g id="edge45" class="edge">
<title>41&#45;&gt;20</title>
<path fill="none" stroke="black" d="M1739.03,-647.57C1743.12,-620.84 1750.2,-568.09 1750.2,-523 1750.2,-523 1750.2,-523 1750.2,-233 1750.2,-193.74 1750.2,-148.38 1750.2,-119.69"/>
<polygon fill="black" stroke="black" points="1753.7,-120 1750.2,-110 1746.7,-120 1753.7,-120"/>
</g>
<!-- 41&#45;&gt;27 -->
<g id="edge44" class="edge">
<title>41&#45;&gt;27</title>
<path fill="none" stroke="black" d="M1731.34,-647.67C1724.33,-621.08 1712.2,-568.5 1712.2,-523 1712.2,-523 1712.2,-523 1712.2,-233 1712.2,-192.55 1722.88,-171.48 1693.2,-144 1674.06,-126.28 1540.42,-111.05 1433.81,-101.52"/>
<polygon fill="black" stroke="black" points="1434.38,-98.06 1424.11,-100.66 1433.76,-105.03 1434.38,-98.06"/>
</g>
</g>
</svg>
