<?xml version="1.0" encoding="UTF-8" standalone="no"?>
<!DOCTYPE svg PUBLIC "-//W3C//DTD SVG 1.1//EN"
 "http://www.w3.org/Graphics/SVG/1.1/DTD/svg11.dtd">
<!-- Generated by graphviz version 12.2.1 (20241206.2353)
 -->
<!-- Title: G Pages: 1 -->
<svg width="2314pt" height="548pt"
 viewBox="0.00 0.00 2314.31 548.00" xmlns="http://www.w3.org/2000/svg" xmlns:xlink="http://www.w3.org/1999/xlink">
<g id="graph0" class="graph" transform="scale(1 1) rotate(0) translate(4 544)">
<title>G</title>
<polygon fill="white" stroke="none" points="-4,4 -4,-544 2310.31,-544 2310.31,4 -4,4"/>
<!-- 0 -->
<g id="node1" class="node">
<title>0</title>
<ellipse fill="none" stroke="black" cx="918.2" cy="-522" rx="39.07" ry="18"/>
<text text-anchor="middle" x="918.2" y="-516.95" font-family="Times New Roman,serif" font-size="14.00">START</text>
</g>
<!-- 0&#45;&gt;0 -->
<g id="edge1" class="edge">
<title>0&#45;&gt;0</title>
<path fill="none" stroke="black" d="M946.39,-534.94C961.5,-537.14 975.27,-532.83 975.27,-522 975.27,-513.96 967.69,-509.52 957.6,-508.65"/>
<polygon fill="black" stroke="black" points="957.77,-505.15 947.9,-509 958.02,-512.14 957.77,-505.15"/>
</g>
<!-- 1 -->
<g id="node2" class="node">
<title>1</title>
<ellipse fill="none" stroke="black" cx="1023.2" cy="-522" rx="29.86" ry="18"/>
<text text-anchor="middle" x="1023.2" y="-516.95" font-family="Times New Roman,serif" font-size="14.00">input</text>
</g>
<!-- 3 -->
<g id="node4" class="node">
<title>3</title>
<ellipse fill="none" stroke="black" cx="913.2" cy="-450" rx="192.1" ry="18"/>
<text text-anchor="middle" x="913.2" y="-444.95" font-family="Times New Roman,serif" font-size="14.00">Visual Calculus: 哇啊！看看这是什么？</text>
</g>
<!-- 1&#45;&gt;3 -->
<g id="edge2" class="edge">
<title>1&#45;&gt;3</title>
<path fill="none" stroke="black" d="M1003.28,-508.32C988.34,-498.82 967.47,-485.54 949.59,-474.15"/>
<polygon fill="black" stroke="black" points="951.6,-471.29 941.29,-468.87 947.84,-477.19 951.6,-471.29"/>
</g>
<!-- 2 -->
<g id="node3" class="node">
<title>2</title>
<ellipse fill="none" stroke="black" cx="1565.2" cy="-522" rx="160.88" ry="18"/>
<text text-anchor="middle" x="1565.2" y="-516.95" font-family="Times New Roman,serif" font-size="14.00">You: 看来我只能碰碰运气了。</text>
</g>
<!-- 12 -->
<g id="node13" class="node">
<title>12</title>
<ellipse fill="none" stroke="black" cx="1565.2" cy="-450" rx="403.99" ry="18"/>
<text text-anchor="middle" x="1565.2" y="-444.95" font-family="Times New Roman,serif" font-size="14.00">Visual Calculus: 我想也是。不过要小心点！只要迈错一步，就会让你损失惨重！</text>
</g>
<!-- 2&#45;&gt;12 -->
<g id="edge3" class="edge">
<title>2&#45;&gt;12</title>
<path fill="none" stroke="black" d="M1565.2,-503.7C1565.2,-496.41 1565.2,-487.73 1565.2,-479.54"/>
<polygon fill="black" stroke="black" points="1568.7,-479.62 1565.2,-469.62 1561.7,-479.62 1568.7,-479.62"/>
</g>
<!-- 13 -->
<g id="node14" class="node">
<title>13</title>
<ellipse fill="none" stroke="black" cx="970.2" cy="-378" rx="78.48" ry="18"/>
<text text-anchor="middle" x="970.2" y="-372.95" font-family="Times New Roman,serif" font-size="14.00">You: 一座桥？</text>
</g>
<!-- 3&#45;&gt;13 -->
<g id="edge4" class="edge">
<title>3&#45;&gt;13</title>
<path fill="none" stroke="black" d="M927.29,-431.7C933.85,-423.64 941.79,-413.89 949.04,-404.98"/>
<polygon fill="black" stroke="black" points="951.72,-407.24 955.32,-397.28 946.29,-402.82 951.72,-407.24"/>
</g>
<!-- 4 -->
<g id="node5" class="node">
<title>4</title>
<ellipse fill="none" stroke="black" cx="714.2" cy="-90" rx="196.7" ry="18"/>
<text text-anchor="middle" x="714.2" y="-84.95" font-family="Times New Roman,serif" font-size="14.00">Endurance: 你可以走那些尖锐的岩石！</text>
</g>
<!-- 5 -->
<g id="node6" class="node">
<title>5</title>
<ellipse fill="none" stroke="black" cx="1702.2" cy="-162" rx="580.05" ry="18"/>
<text text-anchor="middle" x="1702.2" y="-156.95" font-family="Times New Roman,serif" font-size="14.00">Kim Kitsuragi: 警督四下看了看。“是啊，他们从来都不会清理战争留下的伤害……不过瑞瓦肖其它地方要好很多。”</text>
</g>
<!-- 11 -->
<g id="node12" class="node">
<title>11</title>
<ellipse fill="none" stroke="black" cx="1702.2" cy="-90" rx="204.38" ry="18"/>
<text text-anchor="middle" x="1702.2" y="-84.95" font-family="Times New Roman,serif" font-size="14.00">You: “但是警督先生，想想那些碎片！”</text>
</g>
<!-- 5&#45;&gt;11 -->
<g id="edge5" class="edge">
<title>5&#45;&gt;11</title>
<path fill="none" stroke="black" d="M1702.2,-143.7C1702.2,-136.41 1702.2,-127.73 1702.2,-119.54"/>
<polygon fill="black" stroke="black" points="1705.7,-119.62 1702.2,-109.62 1698.7,-119.62 1705.7,-119.62"/>
</g>
<!-- 6 -->
<g id="node7" class="node">
<title>6</title>
<ellipse fill="none" stroke="black" cx="714.2" cy="-234" rx="349.22" ry="18"/>
<text text-anchor="middle" x="714.2" y="-228.95" font-family="Times New Roman,serif" font-size="14.00">You: 无所谓了。死神要来就来吧。我可是瑞瓦肖土生土长的混蛋。</text>
</g>
<!-- 9 -->
<g id="node10" class="node">
<title>9</title>
<ellipse fill="none" stroke="black" cx="153.2" cy="-162" rx="153.2" ry="18"/>
<text text-anchor="middle" x="153.2" y="-156.95" font-family="Times New Roman,serif" font-size="14.00">Visual Calculus: Visual Calculus: &quot;...&quot;</text>
</g>
<!-- 6&#45;&gt;9 -->
<g id="edge6" class="edge">
<title>6&#45;&gt;9</title>
<path fill="none" stroke="black" d="M584.79,-216.85C488.65,-204.86 358.76,-188.65 266.66,-177.16"/>
<polygon fill="black" stroke="black" points="267.19,-173.7 256.84,-175.93 266.33,-180.64 267.19,-173.7"/>
</g>
<!-- 14 -->
<g id="node15" class="node">
<title>14</title>
<ellipse fill="none" stroke="black" cx="714.2" cy="-162" rx="389.66" ry="18"/>
<text text-anchor="middle" x="714.2" y="-156.95" font-family="Times New Roman,serif" font-size="14.00">Visual Calculus: 哎呀，那真是不好意思了。我都忘记你有多*狂拽酷炫*了呢。</text>
</g>
<!-- 6&#45;&gt;14 -->
<g id="edge7" class="edge">
<title>6&#45;&gt;14</title>
<path fill="none" stroke="black" d="M714.2,-215.7C714.2,-208.41 714.2,-199.73 714.2,-191.54"/>
<polygon fill="black" stroke="black" points="717.7,-191.62 714.2,-181.62 710.7,-191.62 717.7,-191.62"/>
</g>
<!-- 7 -->
<g id="node8" class="node">
<title>7</title>
<ellipse fill="none" stroke="black" cx="1023.2" cy="-306" rx="662.96" ry="18"/>
<text text-anchor="middle" x="1023.2" y="-300.95" font-family="Times New Roman,serif" font-size="14.00">Visual Calculus: 一座钉子已经松松垮垮、木板腐烂到在风中嘎吱作响的破桥。如果说曾经有过施工规范的话，这就是违规的范例！</text>
</g>
<!-- 7&#45;&gt;1 -->
<g id="edge9" class="edge">
<title>7&#45;&gt;1</title>
<path fill="none" stroke="black" d="M1041.55,-324.36C1063.75,-346.76 1099.91,-388.1 1114.2,-432 1119.15,-447.21 1122.17,-454.13 1114.2,-468 1102.67,-488.06 1080.3,-501.24 1060.62,-509.44"/>
<polygon fill="black" stroke="black" points="1059.55,-506.1 1051.47,-512.95 1062.06,-512.64 1059.55,-506.1"/>
</g>
<!-- 7&#45;&gt;6 -->
<g id="edge10" class="edge">
<title>7&#45;&gt;6</title>
<path fill="none" stroke="black" d="M946.82,-287.7C902.49,-277.65 846.51,-264.97 800.58,-254.57"/>
<polygon fill="black" stroke="black" points="801.44,-251.17 790.91,-252.38 799.89,-258 801.44,-251.17"/>
</g>
<!-- 8 -->
<g id="node9" class="node">
<title>8</title>
<ellipse fill="none" stroke="black" cx="1517.2" cy="-234" rx="251.47" ry="18"/>
<text text-anchor="middle" x="1517.2" y="-228.95" font-family="Times New Roman,serif" font-size="14.00">You: “金，看来这里有起违反施工规范的案件。”</text>
</g>
<!-- 7&#45;&gt;8 -->
<g id="edge8" class="edge">
<title>7&#45;&gt;8</title>
<path fill="none" stroke="black" d="M1144.36,-287.83C1220.87,-276.99 1319.36,-263.03 1395.89,-252.19"/>
<polygon fill="black" stroke="black" points="1396.11,-255.69 1405.52,-250.82 1395.13,-248.76 1396.11,-255.69"/>
</g>
<!-- 8&#45;&gt;5 -->
<g id="edge11" class="edge">
<title>8&#45;&gt;5</title>
<path fill="none" stroke="black" d="M1562.46,-215.88C1587.47,-206.41 1618.77,-194.57 1645.41,-184.49"/>
<polygon fill="black" stroke="black" points="1646.6,-187.78 1654.71,-180.97 1644.12,-181.23 1646.6,-187.78"/>
</g>
<!-- 10 -->
<g id="node11" class="node">
<title>10</title>
<ellipse fill="none" stroke="black" cx="1702.2" cy="-18" rx="604.1" ry="18"/>
<text text-anchor="middle" x="1702.2" y="-12.95" font-family="Times New Roman,serif" font-size="14.00">Kim Kitsuragi: “这座桥已经不错了。毕竟本地人一直都用它。没什么好担心的。”他推了推鼻梁上的眼镜。“我们走吧？”</text>
</g>
<!-- 11&#45;&gt;10 -->
<g id="edge12" class="edge">
<title>11&#45;&gt;10</title>
<path fill="none" stroke="black" d="M1702.2,-71.7C1702.2,-64.41 1702.2,-55.73 1702.2,-47.54"/>
<polygon fill="black" stroke="black" points="1705.7,-47.62 1702.2,-37.62 1698.7,-47.62 1705.7,-47.62"/>
</g>
<!-- 13&#45;&gt;7 -->
<g id="edge13" class="edge">
<title>13&#45;&gt;7</title>
<path fill="none" stroke="black" d="M983.03,-360.05C989.12,-352.01 996.55,-342.2 1003.34,-333.23"/>
<polygon fill="black" stroke="black" points="1005.96,-335.57 1009.21,-325.48 1000.38,-331.34 1005.96,-335.57"/>
</g>
<!-- 14&#45;&gt;4 -->
<g id="edge14" class="edge">
<title>14&#45;&gt;4</title>
<path fill="none" stroke="black" d="M714.2,-143.7C714.2,-136.41 714.2,-127.73 714.2,-119.54"/>
<polygon fill="black" stroke="black" points="717.7,-119.62 714.2,-109.62 710.7,-119.62 717.7,-119.62"/>
</g>
</g>
</svg>
