<?xml version="1.0" encoding="UTF-8" standalone="no"?>
<!DOCTYPE svg PUBLIC "-//W3C//DTD SVG 1.1//EN"
 "http://www.w3.org/Graphics/SVG/1.1/DTD/svg11.dtd">
<!-- Generated by graphviz version 12.2.1 (20241206.2353)
 -->
<!-- Title: G Pages: 1 -->
<svg width="3831pt" height="260pt"
 viewBox="0.00 0.00 3831.16 260.00" xmlns="http://www.w3.org/2000/svg" xmlns:xlink="http://www.w3.org/1999/xlink">
<g id="graph0" class="graph" transform="scale(1 1) rotate(0) translate(4 256)">
<title>G</title>
<polygon fill="white" stroke="none" points="-4,4 -4,-256 3827.16,-256 3827.16,4 -4,4"/>
<!-- 0 -->
<g id="node1" class="node">
<title>0</title>
<ellipse fill="none" stroke="black" cx="178.79" cy="-234" rx="39.07" ry="18"/>
<text text-anchor="middle" x="178.79" y="-228.95" font-family="Times New Roman,serif" font-size="14.00">START</text>
</g>
<!-- 1 -->
<g id="node2" class="node">
<title>1</title>
<ellipse fill="none" stroke="black" cx="178.79" cy="-162" rx="29.86" ry="18"/>
<text text-anchor="middle" x="178.79" y="-156.95" font-family="Times New Roman,serif" font-size="14.00">input</text>
</g>
<!-- 0&#45;&gt;1 -->
<g id="edge1" class="edge">
<title>0&#45;&gt;1</title>
<path fill="none" stroke="black" d="M178.79,-215.7C178.79,-208.41 178.79,-199.73 178.79,-191.54"/>
<polygon fill="black" stroke="black" points="182.29,-191.62 178.79,-181.62 175.29,-191.62 182.29,-191.62"/>
</g>
<!-- 7 -->
<g id="node8" class="node">
<title>7</title>
<ellipse fill="none" stroke="black" cx="178.79" cy="-90" rx="178.79" ry="18"/>
<text text-anchor="middle" x="178.79" y="-84.95" font-family="Times New Roman,serif" font-size="14.00">You: 那不关我的事。[放弃思维。]</text>
</g>
<!-- 1&#45;&gt;7 -->
<g id="edge2" class="edge">
<title>1&#45;&gt;7</title>
<path fill="none" stroke="black" d="M178.79,-143.7C178.79,-136.41 178.79,-127.73 178.79,-119.54"/>
<polygon fill="black" stroke="black" points="182.29,-119.62 178.79,-109.62 175.29,-119.62 182.29,-119.62"/>
</g>
<!-- 2 -->
<g id="node3" class="node">
<title>2</title>
<ellipse fill="none" stroke="black" cx="991.79" cy="-234" rx="102.02" ry="18"/>
<text text-anchor="middle" x="991.79" y="-228.95" font-family="Times New Roman,serif" font-size="14.00">You: 仔细看一看。</text>
</g>
<!-- 3 -->
<g id="node4" class="node">
<title>3</title>
<ellipse fill="none" stroke="black" cx="727.79" cy="-162" rx="500.72" ry="18"/>
<text text-anchor="middle" x="727.79" y="-156.95" font-family="Times New Roman,serif" font-size="14.00">René Arnoux: 虽然走路一跛一跛的，但那个穿制服男人的动作十分优雅。他的行动慎重而又精准。</text>
</g>
<!-- 2&#45;&gt;3 -->
<g id="edge3" class="edge">
<title>2&#45;&gt;3</title>
<path fill="none" stroke="black" d="M936.77,-218.41C898.26,-208.2 846.32,-194.43 803.86,-183.17"/>
<polygon fill="black" stroke="black" points="805.02,-179.86 794.46,-180.68 803.23,-186.62 805.02,-179.86"/>
</g>
<!-- 6 -->
<g id="node7" class="node">
<title>6</title>
<ellipse fill="none" stroke="black" cx="991.79" cy="-90" rx="221.27" ry="18"/>
<text text-anchor="middle" x="991.79" y="-84.95" font-family="Times New Roman,serif" font-size="14.00">Composure: 这个游戏感觉*有些*不太对劲。</text>
</g>
<!-- 3&#45;&gt;6 -->
<g id="edge4" class="edge">
<title>3&#45;&gt;6</title>
<path fill="none" stroke="black" d="M793.05,-143.7C830.93,-133.65 878.77,-120.97 918.01,-110.56"/>
<polygon fill="black" stroke="black" points="918.87,-113.96 927.64,-108.01 917.08,-107.19 918.87,-113.96"/>
</g>
<!-- 4 -->
<g id="node5" class="node">
<title>4</title>
<ellipse fill="none" stroke="black" cx="1876.79" cy="-234" rx="765.32" ry="18"/>
<text text-anchor="middle" x="1876.79" y="-228.95" font-family="Times New Roman,serif" font-size="14.00">Gaston Martin: ……突然间，他倾向前方，用卷尺标了0的那一头把对手的球撞得离坑里的棕色小球又远了一点。他一边做着，一边抱怨着自己的后背。</text>
</g>
<!-- 9 -->
<g id="node10" class="node">
<title>9</title>
<ellipse fill="none" stroke="black" cx="1876.79" cy="-162" rx="27" ry="18"/>
<text text-anchor="middle" x="1876.79" y="-156.95" font-family="Times New Roman,serif" font-size="14.00">9</text>
</g>
<!-- 4&#45;&gt;9 -->
<g id="edge5" class="edge">
<title>4&#45;&gt;9</title>
<path fill="none" stroke="black" d="M1876.79,-215.7C1876.79,-208.41 1876.79,-199.73 1876.79,-191.54"/>
<polygon fill="black" stroke="black" points="1880.29,-191.62 1876.79,-181.62 1873.29,-191.62 1880.29,-191.62"/>
</g>
<!-- 5 -->
<g id="node6" class="node">
<title>5</title>
<ellipse fill="none" stroke="black" cx="3232.79" cy="-234" rx="572.37" ry="18"/>
<text text-anchor="middle" x="3232.79" y="-228.95" font-family="Times New Roman,serif" font-size="14.00">Gaston Martin: 一个满面春风，穿着格子夹克的男人懒洋洋地移动着。就像一只巨大的公猫在太阳底下伸懒腰……</text>
</g>
<!-- 5&#45;&gt;5 -->
<g id="edge6" class="edge">
<title>5&#45;&gt;5</title>
<path fill="none" stroke="black" d="M3626.28,-247.44C3737.58,-246.87 3823.16,-242.39 3823.16,-234 3823.16,-225.89 3743.33,-221.44 3637.6,-220.63"/>
<polygon fill="black" stroke="black" points="3637.82,-217.13 3627.79,-220.57 3637.77,-224.13 3637.82,-217.13"/>
</g>
<!-- 6&#45;&gt;2 -->
<g id="edge8" class="edge">
<title>6&#45;&gt;2</title>
<path fill="none" stroke="black" d="M1150.41,-102.91C1217.47,-114.29 1272.89,-136.54 1237.79,-180 1227.52,-192.72 1145.18,-208.68 1078.54,-219.75"/>
<polygon fill="black" stroke="black" points="1078.37,-216.23 1069.07,-221.3 1079.5,-223.14 1078.37,-216.23"/>
</g>
<!-- 8 -->
<g id="node9" class="node">
<title>8</title>
<ellipse fill="none" stroke="black" cx="991.79" cy="-18" rx="477.18" ry="18"/>
<text text-anchor="middle" x="991.79" y="-12.95" font-family="Times New Roman,serif" font-size="14.00">René Arnoux: 那个穿制服的男人显然没有注意到同伴的诡计，他抓起一个球，再次开始瞄准。</text>
</g>
<!-- 6&#45;&gt;8 -->
<g id="edge7" class="edge">
<title>6&#45;&gt;8</title>
<path fill="none" stroke="black" d="M991.79,-71.7C991.79,-64.41 991.79,-55.73 991.79,-47.54"/>
<polygon fill="black" stroke="black" points="995.29,-47.62 991.79,-37.62 988.29,-47.62 995.29,-47.62"/>
</g>
</g>
</svg>
