<?xml version="1.0" encoding="UTF-8" standalone="no"?>
<!DOCTYPE svg PUBLIC "-//W3C//DTD SVG 1.1//EN"
 "http://www.w3.org/Graphics/SVG/1.1/DTD/svg11.dtd">
<!-- Generated by graphviz version 12.2.1 (20241206.2353)
 -->
<!-- Title: G Pages: 1 -->
<svg width="5454pt" height="404pt"
 viewBox="0.00 0.00 5454.21 404.00" xmlns="http://www.w3.org/2000/svg" xmlns:xlink="http://www.w3.org/1999/xlink">
<g id="graph0" class="graph" transform="scale(1 1) rotate(0) translate(4 400)">
<title>G</title>
<polygon fill="white" stroke="none" points="-4,4 -4,-400 5450.21,-400 5450.21,4 -4,4"/>
<!-- 0 -->
<g id="node1" class="node">
<title>0</title>
<ellipse fill="none" stroke="black" cx="585.07" cy="-378" rx="39.07" ry="18"/>
<text text-anchor="middle" x="585.07" y="-372.95" font-family="Times New Roman,serif" font-size="14.00">START</text>
</g>
<!-- 0&#45;&gt;0 -->
<g id="edge1" class="edge">
<title>0&#45;&gt;0</title>
<path fill="none" stroke="black" d="M613.26,-390.94C628.37,-393.14 642.14,-388.83 642.14,-378 642.14,-369.96 634.56,-365.52 624.47,-364.65"/>
<polygon fill="black" stroke="black" points="624.64,-361.15 614.77,-365 624.89,-368.14 624.64,-361.15"/>
</g>
<!-- 1 -->
<g id="node2" class="node">
<title>1</title>
<ellipse fill="none" stroke="black" cx="5144.07" cy="-234" rx="29.86" ry="18"/>
<text text-anchor="middle" x="5144.07" y="-228.95" font-family="Times New Roman,serif" font-size="14.00">input</text>
</g>
<!-- 3 -->
<g id="node4" class="node">
<title>3</title>
<ellipse fill="none" stroke="black" cx="5144.07" cy="-162" rx="145.01" ry="18"/>
<text text-anchor="middle" x="5144.07" y="-156.95" font-family="Times New Roman,serif" font-size="14.00">You: 等等……出什么事了？</text>
</g>
<!-- 1&#45;&gt;3 -->
<g id="edge2" class="edge">
<title>1&#45;&gt;3</title>
<path fill="none" stroke="black" d="M5144.07,-215.7C5144.07,-208.41 5144.07,-199.73 5144.07,-191.54"/>
<polygon fill="black" stroke="black" points="5147.57,-191.62 5144.07,-181.62 5140.57,-191.62 5147.57,-191.62"/>
</g>
<!-- 2 -->
<g id="node3" class="node">
<title>2</title>
<ellipse fill="none" stroke="black" cx="2014.07" cy="-306" rx="573.91" ry="18"/>
<text text-anchor="middle" x="2014.07" y="-300.95" font-family="Times New Roman,serif" font-size="14.00">Electrochemistry: 是啊，呆子，是时候把你的酗酒问题放大，大到连星星都会在它周围陨落吧。变成一个酒鬼吧！</text>
</g>
<!-- 5 -->
<g id="node6" class="node">
<title>5</title>
<ellipse fill="none" stroke="black" cx="5144.07" cy="-90" rx="235.09" ry="18"/>
<text text-anchor="middle" x="5144.07" y="-84.95" font-family="Times New Roman,serif" font-size="14.00">You: 不，我*一小口*都不想喝。[放弃思维。]</text>
</g>
<!-- 3&#45;&gt;5 -->
<g id="edge3" class="edge">
<title>3&#45;&gt;5</title>
<path fill="none" stroke="black" d="M5144.07,-143.7C5144.07,-136.41 5144.07,-127.73 5144.07,-119.54"/>
<polygon fill="black" stroke="black" points="5147.57,-119.62 5144.07,-109.62 5140.57,-119.62 5147.57,-119.62"/>
</g>
<!-- 4 -->
<g id="node5" class="node">
<title>4</title>
<ellipse fill="none" stroke="black" cx="711.07" cy="-306" rx="711.07" ry="18"/>
<text text-anchor="middle" x="711.07" y="-300.95" font-family="Times New Roman,serif" font-size="14.00">Electrochemistry: 看看那个幸运的酒馆，整个星球上最疯狂的酒徒！看看他那张写满酗酒借口的脸——那双肿胀的圆眼，那张喋喋不休的嘴。</text>
</g>
<!-- 13 -->
<g id="node14" class="node">
<title>13</title>
<ellipse fill="none" stroke="black" cx="1363.07" cy="-378" rx="703.39" ry="18"/>
<text text-anchor="middle" x="1363.07" y="-372.95" font-family="Times New Roman,serif" font-size="14.00">Electrochemistry: 不知道他今天喝了多少纯酒精？我打赌你一定很想稍微来上一小口吧。让你那张爷们无比的嘴，品尝一下真正的味道吧。</text>
</g>
<!-- 4&#45;&gt;13 -->
<g id="edge4" class="edge">
<title>4&#45;&gt;13</title>
<path fill="none" stroke="black" d="M875.2,-323.99C974.23,-334.5 1099.94,-347.99 1198.97,-358.74"/>
<polygon fill="black" stroke="black" points="1198.47,-362.2 1208.79,-359.8 1199.23,-355.24 1198.47,-362.2"/>
</g>
<!-- 10 -->
<g id="node11" class="node">
<title>10</title>
<ellipse fill="none" stroke="black" cx="4774.07" cy="-18" rx="500.72" ry="18"/>
<text text-anchor="middle" x="4774.07" y="-12.95" font-family="Times New Roman,serif" font-size="14.00">Electrochemistry: 当你到那儿的时候，也许你应该从匿名酗酒者旁边跳过去。你真是要*笑死爹了*。</text>
</g>
<!-- 5&#45;&gt;10 -->
<g id="edge5" class="edge">
<title>5&#45;&gt;10</title>
<path fill="none" stroke="black" d="M5058.72,-72.85C5004.3,-62.56 4933.48,-49.16 4876.1,-38.3"/>
<polygon fill="black" stroke="black" points="4876.77,-34.87 4866.29,-36.45 4875.47,-41.75 4876.77,-34.87"/>
</g>
<!-- 6 -->
<g id="node7" class="node">
<title>6</title>
<ellipse fill="none" stroke="black" cx="2988.07" cy="-90" rx="912.72" ry="18"/>
<text text-anchor="middle" x="2988.07" y="-84.95" font-family="Times New Roman,serif" font-size="14.00">Electrochemistry: 那个老酒鬼想起一些美好的回忆了。还记得尿在裤子里的感觉有多好吗？温暖又惬意，正好是你喜欢的感觉。是时候再给自己来一杯，*好好地*尿湿你的裤子吧！</text>
</g>
<!-- 8 -->
<g id="node9" class="node">
<title>8</title>
<ellipse fill="none" stroke="black" cx="2988.07" cy="-162" rx="57.49" ry="18"/>
<text text-anchor="middle" x="2988.07" y="-156.95" font-family="Times New Roman,serif" font-size="14.00">Untitled hub</text>
</g>
<!-- 6&#45;&gt;8 -->
<g id="edge6" class="edge">
<title>6&#45;&gt;8</title>
<path fill="none" stroke="black" d="M2993.97,-108.1C2994.73,-115.37 2994.98,-124.04 2994.73,-132.24"/>
<polygon fill="black" stroke="black" points="2991.24,-131.98 2994.09,-142.19 2998.22,-132.43 2991.24,-131.98"/>
</g>
<!-- 7 -->
<g id="node8" class="node">
<title>7</title>
<ellipse fill="none" stroke="black" cx="5144.07" cy="-306" rx="302.14" ry="18"/>
<text text-anchor="middle" x="5144.07" y="-300.95" font-family="Times New Roman,serif" font-size="14.00">You: 那还用说！我生来就爱喝酒。新的一天，一瓶新酒！</text>
</g>
<!-- 7&#45;&gt;1 -->
<g id="edge7" class="edge">
<title>7&#45;&gt;1</title>
<path fill="none" stroke="black" d="M5144.07,-287.7C5144.07,-280.41 5144.07,-271.73 5144.07,-263.54"/>
<polygon fill="black" stroke="black" points="5147.57,-263.62 5144.07,-253.62 5140.57,-263.62 5147.57,-263.62"/>
</g>
<!-- 8&#45;&gt;6 -->
<g id="edge9" class="edge">
<title>8&#45;&gt;6</title>
<path fill="none" stroke="black" d="M2982.16,-143.7C2981.4,-136.41 2981.16,-127.73 2981.43,-119.54"/>
<polygon fill="black" stroke="black" points="2984.91,-119.82 2982.08,-109.61 2977.93,-119.36 2984.91,-119.82"/>
</g>
<!-- 11 -->
<g id="node12" class="node">
<title>11</title>
<ellipse fill="none" stroke="black" cx="4405.07" cy="-90" rx="486.39" ry="18"/>
<text text-anchor="middle" x="4405.07" y="-84.95" font-family="Times New Roman,serif" font-size="14.00">You: 该死，我不知道……也许我不应该这么匆忙地一头扎进坏习惯里？我暂时还是不碰酒了。</text>
</g>
<!-- 8&#45;&gt;11 -->
<g id="edge8" class="edge">
<title>8&#45;&gt;11</title>
<path fill="none" stroke="black" d="M3044.49,-158.21C3220,-149.54 3765.14,-122.61 4109.77,-105.59"/>
<polygon fill="black" stroke="black" points="4109.85,-109.09 4119.67,-105.1 4109.51,-102.1 4109.85,-109.09"/>
</g>
<!-- 9 -->
<g id="node10" class="node">
<title>9</title>
<ellipse fill="none" stroke="black" cx="2988.07" cy="-234" rx="609.22" ry="18"/>
<text text-anchor="middle" x="2988.07" y="-228.95" font-family="Times New Roman,serif" font-size="14.00">Electrochemistry: 那你就该快点跑起来，无赖。成为一个现代猎人，驯服你内心深处那股肮脏的欲望。奖励你的电化学！</text>
</g>
<!-- 9&#45;&gt;8 -->
<g id="edge10" class="edge">
<title>9&#45;&gt;8</title>
<path fill="none" stroke="black" d="M2988.07,-215.7C2988.07,-208.41 2988.07,-199.73 2988.07,-191.54"/>
<polygon fill="black" stroke="black" points="2991.57,-191.62 2988.07,-181.62 2984.57,-191.62 2991.57,-191.62"/>
</g>
<!-- 11&#45;&gt;10 -->
<g id="edge11" class="edge">
<title>11&#45;&gt;10</title>
<path fill="none" stroke="black" d="M4495.34,-71.88C4548.84,-61.73 4616.78,-48.84 4672.19,-38.33"/>
<polygon fill="black" stroke="black" points="4672.8,-41.77 4681.97,-36.47 4671.49,-34.9 4672.8,-41.77"/>
</g>
<!-- 12 -->
<g id="node13" class="node">
<title>12</title>
<ellipse fill="none" stroke="black" cx="2988.07" cy="-306" rx="381.98" ry="18"/>
<text text-anchor="middle" x="2988.07" y="-300.95" font-family="Times New Roman,serif" font-size="14.00">You: 我想要的可不止一小口。我真想把酒精这个*恶魔本身*一口气喝光。</text>
</g>
<!-- 12&#45;&gt;9 -->
<g id="edge12" class="edge">
<title>12&#45;&gt;9</title>
<path fill="none" stroke="black" d="M2988.07,-287.7C2988.07,-280.41 2988.07,-271.73 2988.07,-263.54"/>
<polygon fill="black" stroke="black" points="2991.57,-263.62 2988.07,-253.62 2984.57,-263.62 2991.57,-263.62"/>
</g>
<!-- 13&#45;&gt;2 -->
<g id="edge13" class="edge">
<title>13&#45;&gt;2</title>
<path fill="none" stroke="black" d="M1521.08,-360.01C1619.65,-349.41 1746.39,-335.78 1846.68,-325"/>
<polygon fill="black" stroke="black" points="1846.77,-328.51 1856.34,-323.96 1846.03,-321.55 1846.77,-328.51"/>
</g>
<!-- 13&#45;&gt;4 -->
<g id="edge15" class="edge">
<title>13&#45;&gt;4</title>
<path fill="none" stroke="black" d="M1198.94,-360.01C1099.93,-349.5 974.25,-336.01 875.23,-325.27"/>
<polygon fill="black" stroke="black" points="875.73,-321.8 865.41,-324.2 874.98,-328.76 875.73,-321.8"/>
</g>
<!-- 13&#45;&gt;12 -->
<g id="edge14" class="edge">
<title>13&#45;&gt;12</title>
<path fill="none" stroke="black" d="M1714.13,-361.97C1961.08,-351.39 2299.29,-336.87 2597.07,-324 2631.45,-322.51 2667.52,-320.95 2703.27,-319.4"/>
<polygon fill="black" stroke="black" points="2703.01,-322.92 2712.85,-318.98 2702.7,-315.92 2703.01,-322.92"/>
</g>
</g>
</svg>
