<?xml version="1.0" encoding="UTF-8" standalone="no"?>
<!DOCTYPE svg PUBLIC "-//W3C//DTD SVG 1.1//EN"
 "http://www.w3.org/Graphics/SVG/1.1/DTD/svg11.dtd">
<!-- Generated by graphviz version 12.2.1 (20241206.2353)
 -->
<!-- Title: G Pages: 1 -->
<svg width="2702pt" height="1124pt"
 viewBox="0.00 0.00 2702.29 1124.00" xmlns="http://www.w3.org/2000/svg" xmlns:xlink="http://www.w3.org/1999/xlink">
<g id="graph0" class="graph" transform="scale(1 1) rotate(0) translate(4 1120)">
<title>G</title>
<polygon fill="white" stroke="none" points="-4,4 -4,-1120 2698.29,-1120 2698.29,4 -4,4"/>
<!-- 0 -->
<g id="node1" class="node">
<title>0</title>
<ellipse fill="none" stroke="black" cx="1430.41" cy="-1098" rx="39.07" ry="18"/>
<text text-anchor="middle" x="1430.41" y="-1092.95" font-family="Times New Roman,serif" font-size="14.00">START</text>
</g>
<!-- 0&#45;&gt;0 -->
<g id="edge1" class="edge">
<title>0&#45;&gt;0</title>
<path fill="none" stroke="black" d="M1458.6,-1110.94C1473.71,-1113.14 1487.48,-1108.83 1487.48,-1098 1487.48,-1089.96 1479.9,-1085.52 1469.81,-1084.65"/>
<polygon fill="black" stroke="black" points="1469.98,-1081.15 1460.11,-1085 1470.23,-1088.14 1469.98,-1081.15"/>
</g>
<!-- 1 -->
<g id="node2" class="node">
<title>1</title>
<ellipse fill="none" stroke="black" cx="766.41" cy="-522" rx="29.86" ry="18"/>
<text text-anchor="middle" x="766.41" y="-516.95" font-family="Times New Roman,serif" font-size="14.00">input</text>
</g>
<!-- 13 -->
<g id="node14" class="node">
<title>13</title>
<ellipse fill="none" stroke="black" cx="617.41" cy="-450" rx="617.41" ry="18"/>
<text text-anchor="middle" x="617.41" y="-444.95" font-family="Times New Roman,serif" font-size="14.00">Coin&#45;Operated Viewer: 这个投币式望远镜朝向南方。它的投币口里塞满了硬邦邦的口香糖，让这台机器永远也无法使用了。</text>
</g>
<!-- 1&#45;&gt;13 -->
<g id="edge2" class="edge">
<title>1&#45;&gt;13</title>
<path fill="none" stroke="black" d="M743.46,-510.22C722.49,-500.36 690.83,-485.49 664.48,-473.11"/>
<polygon fill="black" stroke="black" points="666.22,-470.06 655.68,-468.98 663.24,-476.4 666.22,-470.06"/>
</g>
<!-- 2 -->
<g id="node3" class="node">
<title>2</title>
<ellipse fill="none" stroke="black" cx="959.41" cy="-306" rx="72.85" ry="18"/>
<text text-anchor="middle" x="959.41" y="-300.95" font-family="Times New Roman,serif" font-size="14.00">You: [离开。]</text>
</g>
<!-- 3 -->
<g id="node4" class="node">
<title>3</title>
<ellipse fill="none" stroke="black" cx="1666.41" cy="-810" rx="216.15" ry="18"/>
<text text-anchor="middle" x="1666.41" y="-804.95" font-family="Times New Roman,serif" font-size="14.00">You: “故意破坏公共财物。”（摇摇头。）</text>
</g>
<!-- 18 -->
<g id="node19" class="node">
<title>18</title>
<ellipse fill="none" stroke="black" cx="1666.41" cy="-738" rx="58.52" ry="18"/>
<text text-anchor="middle" x="1666.41" y="-732.95" font-family="Times New Roman,serif" font-size="14.00">IsKimHere()</text>
</g>
<!-- 3&#45;&gt;18 -->
<g id="edge3" class="edge">
<title>3&#45;&gt;18</title>
<path fill="none" stroke="black" d="M1666.41,-791.7C1666.41,-784.41 1666.41,-775.73 1666.41,-767.54"/>
<polygon fill="black" stroke="black" points="1669.91,-767.62 1666.41,-757.62 1662.91,-767.62 1669.91,-767.62"/>
</g>
<!-- 4 -->
<g id="node5" class="node">
<title>4</title>
<ellipse fill="none" stroke="black" cx="2072.41" cy="-90" rx="519.14" ry="18"/>
<text text-anchor="middle" x="2072.41" y="-84.95" font-family="Times New Roman,serif" font-size="14.00">Perception (Sight): 在巨大的木质建筑周围，你看见大块的海冰聚集在海滩上。冰面上搭了一座小帐篷。</text>
</g>
<!-- 25 -->
<g id="node26" class="node">
<title>25</title>
<ellipse fill="none" stroke="black" cx="2345.41" cy="-18" rx="95.37" ry="18"/>
<text text-anchor="middle" x="2345.41" y="-12.95" font-family="Times New Roman,serif" font-size="14.00">Jump to: [Viewer hub]</text>
</g>
<!-- 4&#45;&gt;25 -->
<g id="edge4" class="edge">
<title>4&#45;&gt;25</title>
<path fill="none" stroke="black" d="M2139.89,-71.7C2182.51,-60.77 2237.3,-46.72 2279.59,-35.88"/>
<polygon fill="black" stroke="black" points="2280.33,-39.3 2289.15,-33.43 2278.59,-32.52 2280.33,-39.3"/>
</g>
<!-- 5 -->
<g id="node6" class="node">
<title>5</title>
<ellipse fill="none" stroke="black" cx="1666.41" cy="-1098" rx="160.88" ry="18"/>
<text text-anchor="middle" x="1666.41" y="-1092.95" font-family="Times New Roman,serif" font-size="14.00">You: 将注意力转移到背景上。</text>
</g>
<!-- 21 -->
<g id="node22" class="node">
<title>21</title>
<ellipse fill="none" stroke="black" cx="1666.41" cy="-1026" rx="1027.88" ry="18"/>
<text text-anchor="middle" x="1666.41" y="-1020.95" font-family="Times New Roman,serif" font-size="14.00">Coin&#45;Operated Viewer: 涂鸦下面，出现一片蓝灰色的海洋——海洋的背后，是一条布满混凝土和芦苇丛的海岸。在那上面——一座高高耸立的教堂，修长的木板饱受风雨侵蚀，尖塔顶端是一个X形的十字。</text>
</g>
<!-- 5&#45;&gt;21 -->
<g id="edge5" class="edge">
<title>5&#45;&gt;21</title>
<path fill="none" stroke="black" d="M1666.41,-1079.7C1666.41,-1072.41 1666.41,-1063.73 1666.41,-1055.54"/>
<polygon fill="black" stroke="black" points="1669.91,-1055.62 1666.41,-1045.62 1662.91,-1055.62 1669.91,-1055.62"/>
</g>
<!-- 6 -->
<g id="node7" class="node">
<title>6</title>
<ellipse fill="none" stroke="black" cx="2050.41" cy="-234" rx="562.14" ry="18"/>
<text text-anchor="middle" x="2050.41" y="-228.95" font-family="Times New Roman,serif" font-size="14.00">Coin&#45;Operated Viewer: 一层厚厚的涂鸦遮住了镜头——你在另一边分辨出“ONUC”的字样——而且N和C是倒着写的。</text>
</g>
<!-- 14 -->
<g id="node15" class="node">
<title>14</title>
<ellipse fill="none" stroke="black" cx="2061.41" cy="-162" rx="143.48" ry="18"/>
<text text-anchor="middle" x="2061.41" y="-156.95" font-family="Times New Roman,serif" font-size="14.00">Logic: 镜头上写的是坤诺。</text>
</g>
<!-- 6&#45;&gt;14 -->
<g id="edge6" class="edge">
<title>6&#45;&gt;14</title>
<path fill="none" stroke="black" d="M2053.13,-215.7C2054.29,-208.32 2055.67,-199.52 2056.97,-191.25"/>
<polygon fill="black" stroke="black" points="2060.39,-192.02 2058.49,-181.6 2053.48,-190.93 2060.39,-192.02"/>
</g>
<!-- 7 -->
<g id="node8" class="node">
<title>7</title>
<ellipse fill="none" stroke="black" cx="1262.41" cy="-306" rx="212.06" ry="18"/>
<text text-anchor="middle" x="1262.41" y="-300.95" font-family="Times New Roman,serif" font-size="14.00">You: “可怜的小望远镜……”（拍拍它。）</text>
</g>
<!-- 16 -->
<g id="node17" class="node">
<title>16</title>
<ellipse fill="none" stroke="black" cx="1100.41" cy="-234" rx="370.21" ry="18"/>
<text text-anchor="middle" x="1100.41" y="-228.95" font-family="Times New Roman,serif" font-size="14.00">Coin&#45;Operated Viewer: 掌心下的金属感觉冰冷而潮湿。它看起来很不卫生。</text>
</g>
<!-- 7&#45;&gt;16 -->
<g id="edge7" class="edge">
<title>7&#45;&gt;16</title>
<path fill="none" stroke="black" d="M1222.78,-287.88C1201.09,-278.5 1173.99,-266.8 1150.82,-256.78"/>
<polygon fill="black" stroke="black" points="1152.43,-253.67 1141.86,-252.91 1149.66,-260.09 1152.43,-253.67"/>
</g>
<!-- 8 -->
<g id="node9" class="node">
<title>8</title>
<ellipse fill="none" stroke="black" cx="901.41" cy="-162" rx="95.37" ry="18"/>
<text text-anchor="middle" x="901.41" y="-156.95" font-family="Times New Roman,serif" font-size="14.00">Jump to: [Viewer hub]</text>
</g>
<!-- 15 -->
<g id="node16" class="node">
<title>15</title>
<ellipse fill="none" stroke="black" cx="1262.41" cy="-378" rx="53.91" ry="18"/>
<text text-anchor="middle" x="1262.41" y="-372.95" font-family="Times New Roman,serif" font-size="14.00">Viewer hub</text>
</g>
<!-- 8&#45;&gt;15 -->
<g id="edge8" class="edge">
<title>8&#45;&gt;15</title>
<path fill="none" stroke="black" d="M823.78,-172.75C762.8,-183.98 692.62,-207 721.41,-252 772.71,-332.18 1066.84,-363.04 1198.6,-372.96"/>
<polygon fill="black" stroke="black" points="1197.95,-376.42 1208.18,-373.67 1198.47,-369.44 1197.95,-376.42"/>
</g>
<!-- 9 -->
<g id="node10" class="node">
<title>9</title>
<ellipse fill="none" stroke="black" cx="1324.41" cy="-594" rx="356.39" ry="18"/>
<text text-anchor="middle" x="1324.41" y="-588.95" font-family="Times New Roman,serif" font-size="14.00">Kim Kitsuragi: “也许是小孩子做的吧……”警督检查着被堵死的投币口。</text>
</g>
<!-- 24 -->
<g id="node25" class="node">
<title>24</title>
<ellipse fill="none" stroke="black" cx="1310.41" cy="-522" rx="421.39" ry="18"/>
<text text-anchor="middle" x="1310.41" y="-516.95" font-family="Times New Roman,serif" font-size="14.00">Interfacing: 这是破坏投币式望远镜的一种简单又聪明的办法。这是需要费脑筋的。</text>
</g>
<!-- 9&#45;&gt;24 -->
<g id="edge9" class="edge">
<title>9&#45;&gt;24</title>
<path fill="none" stroke="black" d="M1320.95,-575.7C1319.48,-568.32 1317.72,-559.52 1316.06,-551.25"/>
<polygon fill="black" stroke="black" points="1319.52,-550.71 1314.13,-541.59 1312.66,-552.08 1319.52,-550.71"/>
</g>
<!-- 10 -->
<g id="node11" class="node">
<title>10</title>
<ellipse fill="none" stroke="black" cx="1385.41" cy="-450" rx="95.37" ry="18"/>
<text text-anchor="middle" x="1385.41" y="-444.95" font-family="Times New Roman,serif" font-size="14.00">Jump to: [Viewer hub]</text>
</g>
<!-- 10&#45;&gt;15 -->
<g id="edge10" class="edge">
<title>10&#45;&gt;15</title>
<path fill="none" stroke="black" d="M1356.26,-432.41C1339,-422.59 1316.98,-410.06 1298.61,-399.6"/>
<polygon fill="black" stroke="black" points="1300.57,-396.69 1290.15,-394.79 1297.11,-402.77 1300.57,-396.69"/>
</g>
<!-- 11 -->
<g id="node12" class="node">
<title>11</title>
<ellipse fill="none" stroke="black" cx="1666.41" cy="-882" rx="375.84" ry="18"/>
<text text-anchor="middle" x="1666.41" y="-876.95" font-family="Times New Roman,serif" font-size="14.00">Inland Empire: 教堂看起来饱经风雨，残破不堪。窗户里没有透露出光亮。</text>
</g>
<!-- 11&#45;&gt;3 -->
<g id="edge11" class="edge">
<title>11&#45;&gt;3</title>
<path fill="none" stroke="black" d="M1666.41,-863.7C1666.41,-856.41 1666.41,-847.73 1666.41,-839.54"/>
<polygon fill="black" stroke="black" points="1669.91,-839.62 1666.41,-829.62 1662.91,-839.62 1669.91,-839.62"/>
</g>
<!-- 12 -->
<g id="node13" class="node">
<title>12</title>
<ellipse fill="none" stroke="black" cx="2025.41" cy="-522" rx="276.04" ry="18"/>
<text text-anchor="middle" x="2025.41" y="-516.95" font-family="Times New Roman,serif" font-size="14.00">Interfacing: 不过没错——这就是在故意破坏公共财物。</text>
</g>
<!-- 12&#45;&gt;10 -->
<g id="edge12" class="edge">
<title>12&#45;&gt;10</title>
<path fill="none" stroke="black" d="M1888.12,-505.98C1764.13,-492.42 1585.13,-472.84 1477.54,-461.08"/>
<polygon fill="black" stroke="black" points="1478.22,-457.63 1467.89,-460.02 1477.46,-464.59 1478.22,-457.63"/>
</g>
<!-- 13&#45;&gt;15 -->
<g id="edge13" class="edge">
<title>13&#45;&gt;15</title>
<path fill="none" stroke="black" d="M773.14,-432.1C910.16,-417.23 1102.6,-396.34 1200.28,-385.74"/>
<polygon fill="black" stroke="black" points="1200.64,-389.22 1210.21,-384.67 1199.89,-382.27 1200.64,-389.22"/>
</g>
<!-- 14&#45;&gt;4 -->
<g id="edge14" class="edge">
<title>14&#45;&gt;4</title>
<path fill="none" stroke="black" d="M2064.13,-143.7C2065.29,-136.32 2066.67,-127.52 2067.97,-119.25"/>
<polygon fill="black" stroke="black" points="2071.39,-120.02 2069.49,-109.6 2064.48,-118.93 2071.39,-120.02"/>
</g>
<!-- 15&#45;&gt;1 -->
<g id="edge15" class="edge">
<title>15&#45;&gt;1</title>
<path fill="none" stroke="black" d="M1264.2,-396.32C1265.24,-416.72 1263.43,-450.1 1243.41,-468 1182.99,-522.04 960.86,-494.02 880.41,-504 855.67,-507.07 828,-511.18 806.12,-514.59"/>
<polygon fill="black" stroke="black" points="805.77,-511.1 796.43,-516.11 806.85,-518.02 805.77,-511.1"/>
</g>
<!-- 15&#45;&gt;2 -->
<g id="edge16" class="edge">
<title>15&#45;&gt;2</title>
<path fill="none" stroke="black" d="M1219,-366.97C1167.5,-355.07 1081.23,-335.14 1022.39,-321.55"/>
<polygon fill="black" stroke="black" points="1023.38,-318.19 1012.85,-319.35 1021.81,-325.01 1023.38,-318.19"/>
</g>
<!-- 15&#45;&gt;7 -->
<g id="edge18" class="edge">
<title>15&#45;&gt;7</title>
<path fill="none" stroke="black" d="M1262.41,-359.7C1262.41,-352.41 1262.41,-343.73 1262.41,-335.54"/>
<polygon fill="black" stroke="black" points="1265.91,-335.62 1262.41,-325.62 1258.91,-335.62 1265.91,-335.62"/>
</g>
<!-- 22 -->
<g id="node23" class="node">
<title>22</title>
<ellipse fill="none" stroke="black" cx="1738.41" cy="-306" rx="90.25" ry="18"/>
<text text-anchor="middle" x="1738.41" y="-300.95" font-family="Times New Roman,serif" font-size="14.00">You: 看看里面。</text>
</g>
<!-- 15&#45;&gt;22 -->
<g id="edge17" class="edge">
<title>15&#45;&gt;22</title>
<path fill="none" stroke="black" d="M1311.11,-369.84C1392.45,-357.88 1556.79,-333.71 1656.28,-319.08"/>
<polygon fill="black" stroke="black" points="1656.6,-322.57 1665.99,-317.65 1655.58,-315.64 1656.6,-322.57"/>
</g>
<!-- 16&#45;&gt;8 -->
<g id="edge19" class="edge">
<title>16&#45;&gt;8</title>
<path fill="none" stroke="black" d="M1051.22,-215.7C1022.31,-205.53 985.72,-192.66 955.93,-182.18"/>
<polygon fill="black" stroke="black" points="957.32,-178.96 946.72,-178.94 954.99,-185.56 957.32,-178.96"/>
</g>
<!-- 17 -->
<g id="node18" class="node">
<title>17</title>
<ellipse fill="none" stroke="black" cx="1666.41" cy="-954" rx="744.85" ry="18"/>
<text text-anchor="middle" x="1666.41" y="-948.95" font-family="Times New Roman,serif" font-size="14.00">Encyclopedia: 你知道这就是佩里卡纳西斯之星，又叫做凯乐符号。佩里卡纳西斯教堂的中心象征——它是一颗星，一种值得我们奋斗的道德高度。</text>
</g>
<!-- 17&#45;&gt;11 -->
<g id="edge20" class="edge">
<title>17&#45;&gt;11</title>
<path fill="none" stroke="black" d="M1666.41,-935.7C1666.41,-928.41 1666.41,-919.73 1666.41,-911.54"/>
<polygon fill="black" stroke="black" points="1669.91,-911.62 1666.41,-901.62 1662.91,-911.62 1669.91,-911.62"/>
</g>
<!-- 19 -->
<g id="node20" class="node">
<title>19</title>
<polygon fill="none" stroke="black" points="1568.41,-684 1485.66,-666 1568.41,-648 1651.17,-666 1568.41,-684"/>
<text text-anchor="middle" x="1568.41" y="-660.95" font-family="Times New Roman,serif" font-size="14.00">IsKimHere()</text>
</g>
<!-- 18&#45;&gt;19 -->
<g id="edge21" class="edge">
<title>18&#45;&gt;19</title>
<path fill="none" stroke="black" d="M1644.17,-721.12C1629.86,-710.89 1611.16,-697.53 1595.92,-686.65"/>
<polygon fill="black" stroke="black" points="1598.35,-684.08 1588.17,-681.12 1594.28,-689.78 1598.35,-684.08"/>
</g>
<!-- 20 -->
<g id="node21" class="node">
<title>20</title>
<polygon fill="none" stroke="black" points="1891.41,-684 1795.63,-666 1891.41,-648 1987.19,-666 1891.41,-684"/>
<text text-anchor="middle" x="1891.41" y="-660.95" font-family="Times New Roman,serif" font-size="14.00">!(IsKimHere())</text>
</g>
<!-- 18&#45;&gt;20 -->
<g id="edge22" class="edge">
<title>18&#45;&gt;20</title>
<path fill="none" stroke="black" d="M1706.64,-724.49C1745.66,-712.35 1804.79,-693.95 1845.6,-681.25"/>
<polygon fill="black" stroke="black" points="1846.38,-684.67 1854.89,-678.36 1844.3,-677.99 1846.38,-684.67"/>
</g>
<!-- 19&#45;&gt;9 -->
<g id="edge23" class="edge">
<title>19&#45;&gt;9</title>
<path fill="none" stroke="black" d="M1533.71,-655.05C1497.85,-644.76 1440.87,-628.41 1395.41,-615.37"/>
<polygon fill="black" stroke="black" points="1396.45,-612.03 1385.87,-612.63 1394.52,-618.75 1396.45,-612.03"/>
</g>
<!-- 23 -->
<g id="node24" class="node">
<title>23</title>
<ellipse fill="none" stroke="black" cx="2017.41" cy="-594" rx="311.35" ry="18"/>
<text text-anchor="middle" x="2017.41" y="-588.95" font-family="Times New Roman,serif" font-size="14.00">Coin&#45;Operated Viewer: 沉默的机器无法确认或是否定你的理论。</text>
</g>
<!-- 20&#45;&gt;23 -->
<g id="edge24" class="edge">
<title>20&#45;&gt;23</title>
<path fill="none" stroke="black" d="M1914.82,-652C1932.11,-642.39 1956.09,-629.07 1976.52,-617.72"/>
<polygon fill="black" stroke="black" points="1978.16,-620.81 1985.2,-612.9 1974.76,-614.69 1978.16,-620.81"/>
</g>
<!-- 21&#45;&gt;17 -->
<g id="edge25" class="edge">
<title>21&#45;&gt;17</title>
<path fill="none" stroke="black" d="M1666.41,-1007.7C1666.41,-1000.41 1666.41,-991.73 1666.41,-983.54"/>
<polygon fill="black" stroke="black" points="1669.91,-983.62 1666.41,-973.62 1662.91,-983.62 1669.91,-983.62"/>
</g>
<!-- 22&#45;&gt;6 -->
<g id="edge26" class="edge">
<title>22&#45;&gt;6</title>
<path fill="none" stroke="black" d="M1796.73,-291.92C1843.25,-281.48 1909.15,-266.69 1962.13,-254.81"/>
<polygon fill="black" stroke="black" points="1962.76,-258.25 1971.75,-252.65 1961.23,-251.42 1962.76,-258.25"/>
</g>
<!-- 23&#45;&gt;12 -->
<g id="edge27" class="edge">
<title>23&#45;&gt;12</title>
<path fill="none" stroke="black" d="M2019.39,-575.7C2020.22,-568.41 2021.21,-559.73 2022.15,-551.54"/>
<polygon fill="black" stroke="black" points="2025.63,-551.94 2023.28,-541.61 2018.67,-551.15 2025.63,-551.94"/>
</g>
<!-- 24&#45;&gt;10 -->
<g id="edge28" class="edge">
<title>24&#45;&gt;10</title>
<path fill="none" stroke="black" d="M1328.95,-503.7C1337.94,-495.3 1348.91,-485.07 1358.77,-475.86"/>
<polygon fill="black" stroke="black" points="1361.06,-478.52 1365.98,-469.14 1356.28,-473.4 1361.06,-478.52"/>
</g>
<!-- 25&#45;&gt;15 -->
<g id="edge29" class="edge">
<title>25&#45;&gt;15</title>
<path fill="none" stroke="black" d="M2426.44,-27.77C2490.69,-36.17 2573.93,-50.73 2600.41,-72 2634.22,-99.16 2640.41,-117.63 2640.41,-161 2640.41,-235 2640.41,-235 2640.41,-235 2640.41,-368.66 1601.27,-377.27 1327.74,-377.21"/>
<polygon fill="black" stroke="black" points="1327.95,-373.71 1317.94,-377.21 1327.94,-380.71 1327.95,-373.71"/>
</g>
</g>
</svg>
