<?xml version="1.0" encoding="UTF-8" standalone="no"?>
<!DOCTYPE svg PUBLIC "-//W3C//DTD SVG 1.1//EN"
 "http://www.w3.org/Graphics/SVG/1.1/DTD/svg11.dtd">
<!-- Generated by graphviz version 12.2.1 (20241206.2353)
 -->
<!-- Title: G Pages: 1 -->
<svg width="4198pt" height="188pt"
 viewBox="0.00 0.00 4197.68 188.00" xmlns="http://www.w3.org/2000/svg" xmlns:xlink="http://www.w3.org/1999/xlink">
<g id="graph0" class="graph" transform="scale(1 1) rotate(0) translate(4 184)">
<title>G</title>
<polygon fill="white" stroke="none" points="-4,4 -4,-184 4193.68,-184 4193.68,4 -4,4"/>
<!-- 0 -->
<g id="node1" class="node">
<title>0</title>
<ellipse fill="none" stroke="black" cx="2354.68" cy="-162" rx="39.07" ry="18"/>
<text text-anchor="middle" x="2354.68" y="-156.95" font-family="Times New Roman,serif" font-size="14.00">START</text>
</g>
<!-- 1 -->
<g id="node2" class="node">
<title>1</title>
<ellipse fill="none" stroke="black" cx="2354.68" cy="-90" rx="29.86" ry="18"/>
<text text-anchor="middle" x="2354.68" y="-84.95" font-family="Times New Roman,serif" font-size="14.00">input</text>
</g>
<!-- 0&#45;&gt;1 -->
<g id="edge1" class="edge">
<title>0&#45;&gt;1</title>
<path fill="none" stroke="black" d="M2354.68,-143.7C2354.68,-136.41 2354.68,-127.73 2354.68,-119.54"/>
<polygon fill="black" stroke="black" points="2358.18,-119.62 2354.68,-109.62 2351.18,-119.62 2358.18,-119.62"/>
</g>
<!-- 3 -->
<g id="node4" class="node">
<title>3</title>
<ellipse fill="none" stroke="black" cx="325.68" cy="-18" rx="325.68" ry="18"/>
<text text-anchor="middle" x="325.68" y="-12.95" font-family="Times New Roman,serif" font-size="14.00">Gaston Martin: “是啊，是啊，过去的好日子。孤注一掷的日子。”</text>
</g>
<!-- 1&#45;&gt;3 -->
<g id="edge2" class="edge">
<title>1&#45;&gt;3</title>
<path fill="none" stroke="black" d="M2324.59,-88.28C2158.21,-84.23 1333.93,-63.61 660.68,-36 629.84,-34.74 597.41,-33.27 565.37,-31.73"/>
<polygon fill="black" stroke="black" points="565.73,-28.24 555.57,-31.26 565.39,-35.23 565.73,-28.24"/>
</g>
<!-- 4 -->
<g id="node5" class="node">
<title>4</title>
<ellipse fill="none" stroke="black" cx="929.68" cy="-18" rx="260.17" ry="18"/>
<text text-anchor="middle" x="929.68" y="-12.95" font-family="Times New Roman,serif" font-size="14.00">Gaston Martin: “*我的天啦*，今天疼的特别厉害……”</text>
</g>
<!-- 1&#45;&gt;4 -->
<g id="edge3" class="edge">
<title>1&#45;&gt;4</title>
<path fill="none" stroke="black" d="M2324.75,-87.82C2192.41,-82.55 1646.54,-60.42 1198.68,-36 1174.88,-34.7 1149.89,-33.25 1125.14,-31.75"/>
<polygon fill="black" stroke="black" points="1125.49,-28.27 1115.3,-31.15 1125.07,-35.25 1125.49,-28.27"/>
</g>
<!-- 5 -->
<g id="node6" class="node">
<title>5</title>
<ellipse fill="none" stroke="black" cx="1501.68" cy="-18" rx="293.95" ry="18"/>
<text text-anchor="middle" x="1501.68" y="-12.95" font-family="Times New Roman,serif" font-size="14.00">Gaston Martin: “啊……我的背！我发誓它越来越糟糕了……”</text>
</g>
<!-- 1&#45;&gt;5 -->
<g id="edge4" class="edge">
<title>1&#45;&gt;5</title>
<path fill="none" stroke="black" d="M2325.32,-86.59C2225.67,-78.41 1894.87,-51.27 1684.06,-33.97"/>
<polygon fill="black" stroke="black" points="1684.62,-30.5 1674.36,-33.17 1684.05,-37.48 1684.62,-30.5"/>
</g>
<!-- 7 -->
<g id="node8" class="node">
<title>7</title>
<ellipse fill="none" stroke="black" cx="2080.68" cy="-18" rx="266.82" ry="18"/>
<text text-anchor="middle" x="2080.68" y="-12.95" font-family="Times New Roman,serif" font-size="14.00">Gaston Martin: “你是我见过的最愤怒的男人，雷内。”</text>
</g>
<!-- 1&#45;&gt;7 -->
<g id="edge5" class="edge">
<title>1&#45;&gt;7</title>
<path fill="none" stroke="black" d="M2327.41,-82.03C2288.26,-72.03 2214.61,-53.22 2157.93,-38.74"/>
<polygon fill="black" stroke="black" points="2158.86,-35.36 2148.3,-36.28 2157.13,-42.14 2158.86,-35.36"/>
</g>
<!-- 8 -->
<g id="node9" class="node">
<title>8</title>
<ellipse fill="none" stroke="black" cx="2629.68" cy="-18" rx="264.26" ry="18"/>
<text text-anchor="middle" x="2629.68" y="-12.95" font-family="Times New Roman,serif" font-size="14.00">Gaston Martin: “我们俩都认识多久了？快80年了吧？”</text>
</g>
<!-- 1&#45;&gt;8 -->
<g id="edge6" class="edge">
<title>1&#45;&gt;8</title>
<path fill="none" stroke="black" d="M2382.05,-82.03C2421.35,-72.03 2495.26,-53.22 2552.15,-38.74"/>
<polygon fill="black" stroke="black" points="2552.99,-42.13 2561.82,-36.27 2551.26,-35.35 2552.99,-42.13"/>
</g>
<!-- 9 -->
<g id="node10" class="node">
<title>9</title>
<ellipse fill="none" stroke="black" cx="3190.68" cy="-18" rx="278.59" ry="18"/>
<text text-anchor="middle" x="3190.68" y="-12.95" font-family="Times New Roman,serif" font-size="14.00">Gaston Martin: “还不赖，雷内，这次你可能还有机会。”</text>
</g>
<!-- 1&#45;&gt;9 -->
<g id="edge7" class="edge">
<title>1&#45;&gt;9</title>
<path fill="none" stroke="black" d="M2384.43,-86.51C2483.54,-78.21 2807.81,-51.06 3013.66,-33.82"/>
<polygon fill="black" stroke="black" points="3013.72,-37.33 3023.39,-33.01 3013.13,-30.35 3013.72,-37.33"/>
</g>
<!-- 10 -->
<g id="node11" class="node">
<title>10</title>
<ellipse fill="none" stroke="black" cx="3802.68" cy="-18" rx="314.93" ry="18"/>
<text text-anchor="middle" x="3802.68" y="-12.95" font-family="Times New Roman,serif" font-size="14.00">Gaston Martin: “我只要量一下……*哎哟*。我都快动不了了……”</text>
</g>
<!-- 1&#45;&gt;10 -->
<g id="edge8" class="edge">
<title>1&#45;&gt;10</title>
<path fill="none" stroke="black" d="M2384.64,-87.65C2514.8,-81.75 3044.06,-57.65 3478.68,-36 3507.11,-34.58 3536.95,-33.06 3566.53,-31.54"/>
<polygon fill="black" stroke="black" points="3566.53,-35.04 3576.33,-31.03 3566.17,-28.05 3566.53,-35.04"/>
</g>
<!-- 11 -->
<g id="node12" class="node">
<title>11</title>
<ellipse fill="none" stroke="black" cx="4162.68" cy="-18" rx="27" ry="18"/>
<text text-anchor="middle" x="4162.68" y="-12.95" font-family="Times New Roman,serif" font-size="14.00">11</text>
</g>
<!-- 1&#45;&gt;11 -->
<g id="edge9" class="edge">
<title>1&#45;&gt;11</title>
<path fill="none" stroke="black" d="M2384.95,-88.84C2604.63,-87.58 3950.85,-78.2 4126.68,-36 4128.44,-35.58 4130.23,-35.06 4132,-34.48"/>
<polygon fill="black" stroke="black" points="4133.26,-37.74 4141.25,-30.79 4130.66,-31.24 4133.26,-37.74"/>
</g>
<!-- 2 -->
<g id="node3" class="node">
<title>2</title>
<ellipse fill="none" stroke="black" cx="2549.68" cy="-162" rx="138.36" ry="18"/>
<text text-anchor="middle" x="2549.68" y="-156.95" font-family="Times New Roman,serif" font-size="14.00">Gaston Martin: *大声地咀嚼*</text>
</g>
<!-- 6 -->
<g id="node7" class="node">
<title>6</title>
<ellipse fill="none" stroke="black" cx="2902.68" cy="-162" rx="196.19" ry="18"/>
<text text-anchor="middle" x="2902.68" y="-156.95" font-family="Times New Roman,serif" font-size="14.00">Gaston Martin: “你想明天一个人玩吗？”</text>
</g>
</g>
</svg>
