<?xml version="1.0" encoding="UTF-8" standalone="no"?>
<!DOCTYPE svg PUBLIC "-//W3C//DTD SVG 1.1//EN"
 "http://www.w3.org/Graphics/SVG/1.1/DTD/svg11.dtd">
<!-- Generated by graphviz version 12.2.1 (20241206.2353)
 -->
<!-- Title: G Pages: 1 -->
<svg width="3872pt" height="1350pt"
 viewBox="0.00 0.00 3872.06 1349.57" xmlns="http://www.w3.org/2000/svg" xmlns:xlink="http://www.w3.org/1999/xlink">
<g id="graph0" class="graph" transform="scale(1 1) rotate(0) translate(4 1345.57)">
<title>G</title>
<polygon fill="white" stroke="none" points="-4,4 -4,-1345.57 3868.06,-1345.57 3868.06,4 -4,4"/>
<!-- 0 -->
<g id="node1" class="node">
<title>0</title>
<ellipse fill="none" stroke="black" cx="1373" cy="-1312.58" rx="39.07" ry="18"/>
<text text-anchor="middle" x="1373" y="-1307.53" font-family="Times New Roman,serif" font-size="14.00">START</text>
</g>
<!-- 0&#45;&gt;0 -->
<g id="edge1" class="edge">
<title>0&#45;&gt;0</title>
<path fill="none" stroke="black" d="M1397.93,-1326.84C1414.26,-1330.7 1430.07,-1325.95 1430.07,-1312.58 1430.07,-1302.34 1420.8,-1297.15 1409.13,-1297.02"/>
<polygon fill="black" stroke="black" points="1408.97,-1293.51 1399.44,-1298.14 1409.77,-1300.47 1408.97,-1293.51"/>
</g>
<!-- 1 -->
<g id="node2" class="node">
<title>1</title>
<ellipse fill="none" stroke="black" cx="58" cy="-468.8" rx="29.86" ry="18"/>
<text text-anchor="middle" x="58" y="-463.75" font-family="Times New Roman,serif" font-size="14.00">input</text>
</g>
<!-- 14 -->
<g id="node15" class="node">
<title>14</title>
<ellipse fill="none" stroke="black" cx="454" cy="-387.4" rx="297.02" ry="18"/>
<text text-anchor="middle" x="454" y="-382.35" font-family="Times New Roman,serif" font-size="14.00">Empathy: 警督想的是你所有省下来的时间。他喜欢这样。</text>
</g>
<!-- 1&#45;&gt;14 -->
<g id="edge2" class="edge">
<title>1&#45;&gt;14</title>
<path fill="none" stroke="black" d="M80.76,-456.8C86,-454.57 91.62,-452.42 97,-450.8 165.78,-430.12 244.2,-415.48 309.99,-405.6"/>
<polygon fill="black" stroke="black" points="310.4,-409.08 319.78,-404.15 309.37,-402.15 310.4,-409.08"/>
</g>
<!-- 2 -->
<g id="node3" class="node">
<title>2</title>
<ellipse fill="none" stroke="black" cx="1554" cy="-162" rx="98.95" ry="18"/>
<text text-anchor="middle" x="1554" y="-156.95" font-family="Times New Roman,serif" font-size="14.00">Jump to: [Untitled hub]</text>
</g>
<!-- 3 -->
<g id="node4" class="node">
<title>3</title>
<ellipse fill="none" stroke="black" cx="1882" cy="-90" rx="599.5" ry="18"/>
<text text-anchor="middle" x="1882" y="-84.95" font-family="Times New Roman,serif" font-size="14.00">Inland Empire: 没必要过分责怪自己。它可能不是谜题的最后一片答案。不过，不知道为什么，铃兰就是感觉很重要。</text>
</g>
<!-- 2&#45;&gt;3 -->
<g id="edge3" class="edge">
<title>2&#45;&gt;3</title>
<path fill="none" stroke="black" d="M1616.47,-147.67C1665.42,-137.22 1734.26,-122.53 1789.59,-110.72"/>
<polygon fill="black" stroke="black" points="1790.29,-114.15 1799.34,-108.64 1788.83,-107.31 1790.29,-114.15"/>
</g>
<!-- 30 -->
<g id="node31" class="node">
<title>30</title>
<ellipse fill="none" stroke="black" cx="1882" cy="-18" rx="452.1" ry="18"/>
<text text-anchor="middle" x="1882" y="-12.95" font-family="Times New Roman,serif" font-size="14.00">Kim Kitsuragi: “你有没有注意到有时候人们会在某些地方出现或者消失？这就叫*做事*。”</text>
</g>
<!-- 3&#45;&gt;30 -->
<g id="edge4" class="edge">
<title>3&#45;&gt;30</title>
<path fill="none" stroke="black" d="M1876.08,-71.7C1875.33,-64.41 1875.09,-55.73 1875.35,-47.54"/>
<polygon fill="black" stroke="black" points="1878.84,-47.82 1876.01,-37.61 1871.86,-47.36 1878.84,-47.82"/>
</g>
<!-- 4 -->
<g id="node5" class="node">
<title>4</title>
<ellipse fill="none" stroke="black" cx="1421" cy="-1085.58" rx="57.49" ry="18"/>
<text text-anchor="middle" x="1421" y="-1080.53" font-family="Times New Roman,serif" font-size="14.00">Untitled hub</text>
</g>
<!-- 5 -->
<g id="node6" class="node">
<title>5</title>
<ellipse fill="none" stroke="black" cx="1048" cy="-1002.59" rx="140.41" ry="18"/>
<text text-anchor="middle" x="1048" y="-997.54" font-family="Times New Roman,serif" font-size="14.00">Inland Empire: 地掷球玩家？</text>
</g>
<!-- 4&#45;&gt;5 -->
<g id="edge8" class="edge">
<title>4&#45;&gt;5</title>
<path fill="none" stroke="black" d="M1374.89,-1074.57C1313.4,-1061.22 1203.57,-1037.37 1128.33,-1021.03"/>
<polygon fill="black" stroke="black" points="1129.48,-1017.7 1118.96,-1019 1127.99,-1024.54 1129.48,-1017.7"/>
</g>
<!-- 10 -->
<g id="node11" class="node">
<title>10</title>
<polygon fill="none" stroke="black" points="1435,-252 1339.22,-234 1435,-216 1530.78,-234 1435,-252"/>
<text text-anchor="middle" x="1435" y="-228.95" font-family="Times New Roman,serif" font-size="14.00">!(IsKimHere())</text>
</g>
<!-- 4&#45;&gt;10 -->
<g id="edge6" class="edge">
<title>4&#45;&gt;10</title>
<path fill="none" stroke="black" d="M1470.77,-1076.17C1582.58,-1055.84 1844,-999.86 1844,-920.6 1844,-920.6 1844,-920.6 1844,-386.4 1844,-320.14 1791.7,-316.74 1732,-288 1667.14,-256.77 1586.31,-243.8 1525.36,-238.48"/>
<polygon fill="black" stroke="black" points="1525.98,-235.02 1515.73,-237.69 1525.41,-241.99 1525.98,-235.02"/>
</g>
<!-- 12 -->
<g id="node13" class="node">
<title>12</title>
<ellipse fill="none" stroke="black" cx="924" cy="-234" rx="98.95" ry="18"/>
<text text-anchor="middle" x="924" y="-228.95" font-family="Times New Roman,serif" font-size="14.00">Jump to: [Untitled hub]</text>
</g>
<!-- 4&#45;&gt;12 -->
<g id="edge7" class="edge">
<title>4&#45;&gt;12</title>
<path fill="none" stroke="black" d="M1363.54,-1084.1C1097.69,-1081.11 0,-1060.29 0,-920.6 0,-920.6 0,-920.6 0,-386.4 0,-320.14 50.79,-313.38 112,-288 175.32,-261.75 609.33,-244.84 815.58,-238.19"/>
<polygon fill="black" stroke="black" points="815.64,-241.69 825.52,-237.88 815.41,-234.7 815.64,-241.69"/>
</g>
<!-- 40 -->
<g id="node41" class="node">
<title>40</title>
<ellipse fill="none" stroke="black" cx="1421" cy="-1002.59" rx="169.35" ry="28.99"/>
<text text-anchor="middle" x="1421" y="-1005.79" font-family="Times New Roman,serif" font-size="14.00">You: “好吧。我们走。”[离开。]</text>
<text text-anchor="middle" x="1421" y="-989.29" font-family="Times New Roman,serif" font-size="14.00">没错。该走了。[离开。]</text>
</g>
<!-- 4&#45;&gt;40 -->
<g id="edge5" class="edge">
<title>4&#45;&gt;40</title>
<path fill="none" stroke="black" d="M1421,-1067.41C1421,-1060.32 1421,-1051.79 1421,-1043.3"/>
<polygon fill="black" stroke="black" points="1424.5,-1043.41 1421,-1033.41 1417.5,-1043.41 1424.5,-1043.41"/>
</g>
<!-- 18 -->
<g id="node19" class="node">
<title>18</title>
<ellipse fill="none" stroke="black" cx="1037" cy="-919.6" rx="284.74" ry="18"/>
<text text-anchor="middle" x="1037" y="-914.55" font-family="Times New Roman,serif" font-size="14.00">Logic: 反正可能也没什么。只是你自己的一个小想法。</text>
</g>
<!-- 5&#45;&gt;18 -->
<g id="edge9" class="edge">
<title>5&#45;&gt;18</title>
<path fill="none" stroke="black" d="M1045.67,-984.42C1044.28,-974.18 1042.48,-960.92 1040.88,-949.15"/>
<polygon fill="black" stroke="black" points="1044.39,-948.97 1039.57,-939.53 1037.45,-949.91 1044.39,-948.97"/>
</g>
<!-- 6 -->
<g id="node7" class="node">
<title>6</title>
<ellipse fill="none" stroke="black" cx="3015" cy="-387.4" rx="272.77" ry="27.4"/>
<text text-anchor="middle" x="3015" y="-389.48" font-family="Times New Roman,serif" font-size="14.00">You: “等等，也许他们在雇佣兵宣判的时候死了？”</text>
<text text-anchor="middle" x="3015" y="-372.98" font-family="Times New Roman,serif" font-size="14.00">也许他们也死在雇佣兵宣判中了？</text>
</g>
<!-- 26 -->
<g id="node27" class="node">
<title>26</title>
<ellipse fill="none" stroke="black" cx="3015" cy="-306" rx="145.52" ry="18"/>
<text text-anchor="middle" x="3015" y="-300.95" font-family="Times New Roman,serif" font-size="14.00">You: “是啊，他们去哪了？”</text>
</g>
<!-- 6&#45;&gt;26 -->
<g id="edge10" class="edge">
<title>6&#45;&gt;26</title>
<path fill="none" stroke="black" d="M3015,-359.52C3015,-351.75 3015,-343.25 3015,-335.39"/>
<polygon fill="black" stroke="black" points="3018.5,-335.66 3015,-325.66 3011.5,-335.66 3018.5,-335.66"/>
</g>
<!-- 7 -->
<g id="node8" class="node">
<title>7</title>
<ellipse fill="none" stroke="black" cx="961" cy="-468.8" rx="854.89" ry="18"/>
<text text-anchor="middle" x="961" y="-463.75" font-family="Times New Roman,serif" font-size="14.00">Kim Kitsuragi: “还有，我是想说……如果这两个老人是我们要找的凶手，那就太过分了。那是不可能的。不会的……”他似乎对自己很满意。“我们只会在这里浪费时间。”</text>
</g>
<!-- 13 -->
<g id="node14" class="node">
<title>13</title>
<ellipse fill="none" stroke="black" cx="1031" cy="-387.4" rx="204.38" ry="18"/>
<text text-anchor="middle" x="1031" y="-382.35" font-family="Times New Roman,serif" font-size="14.00">You: “但是，如果我想跟他们说话呢？”</text>
</g>
<!-- 7&#45;&gt;13 -->
<g id="edge11" class="edge">
<title>7&#45;&gt;13</title>
<path fill="none" stroke="black" d="M976.19,-450.57C985.64,-439.86 997.96,-425.88 1008.52,-413.9"/>
<polygon fill="black" stroke="black" points="1010.85,-416.55 1014.84,-406.73 1005.6,-411.92 1010.85,-416.55"/>
</g>
<!-- 8 -->
<g id="node9" class="node">
<title>8</title>
<ellipse fill="none" stroke="black" cx="148" cy="-703.6" rx="117.89" ry="18"/>
<text text-anchor="middle" x="148" y="-698.55" font-family="Times New Roman,serif" font-size="14.00">Gaston Martin: IsKimHere()</text>
</g>
<!-- 8&#45;&gt;8 -->
<g id="edge12" class="edge">
<title>8&#45;&gt;8</title>
<path fill="none" stroke="black" d="M228.91,-717.07C259.07,-717.51 283.89,-713.02 283.89,-703.6 283.89,-695.39 265.05,-690.93 240.27,-690.21"/>
<polygon fill="black" stroke="black" points="240.45,-686.71 230.43,-690.14 240.4,-693.71 240.45,-686.71"/>
</g>
<!-- 9 -->
<g id="node10" class="node">
<title>9</title>
<polygon fill="none" stroke="black" points="148,-649.6 65.24,-631.6 148,-613.6 230.76,-631.6 148,-649.6"/>
<text text-anchor="middle" x="148" y="-626.55" font-family="Times New Roman,serif" font-size="14.00">IsKimHere()</text>
</g>
<!-- 8&#45;&gt;9 -->
<g id="edge13" class="edge">
<title>8&#45;&gt;9</title>
<path fill="none" stroke="black" d="M148,-685.3C148,-678.01 148,-669.33 148,-661.14"/>
<polygon fill="black" stroke="black" points="151.5,-661.22 148,-651.22 144.5,-661.22 151.5,-661.22"/>
</g>
<!-- 21 -->
<g id="node22" class="node">
<title>21</title>
<ellipse fill="none" stroke="black" cx="148" cy="-550.2" rx="119.93" ry="18"/>
<text text-anchor="middle" x="148" y="-545.15" font-family="Times New Roman,serif" font-size="14.00">Logic: 他也许是对的。</text>
</g>
<!-- 9&#45;&gt;21 -->
<g id="edge14" class="edge">
<title>9&#45;&gt;21</title>
<path fill="none" stroke="black" d="M148,-613.37C148,-603.66 148,-591.27 148,-580.11"/>
<polygon fill="black" stroke="black" points="151.5,-580.18 148,-570.18 144.5,-580.18 151.5,-580.18"/>
</g>
<!-- 10&#45;&gt;2 -->
<g id="edge15" class="edge">
<title>10&#45;&gt;2</title>
<path fill="none" stroke="black" d="M1457.38,-219.83C1473.89,-210.12 1496.76,-196.67 1516.1,-185.3"/>
<polygon fill="black" stroke="black" points="1517.69,-188.42 1524.53,-180.33 1514.14,-182.39 1517.69,-188.42"/>
</g>
<!-- 11 -->
<g id="node12" class="node">
<title>11</title>
<ellipse fill="none" stroke="black" cx="962" cy="-550.2" rx="255.27" ry="27.4"/>
<text text-anchor="middle" x="962" y="-552.28" font-family="Times New Roman,serif" font-size="14.00">You: “该死，我没问那些人干铃兰的事。”</text>
<text text-anchor="middle" x="962" y="-535.78" font-family="Times New Roman,serif" font-size="14.00">该死。看来我错过问他们枯萎铃兰的机会了。</text>
</g>
<!-- 11&#45;&gt;7 -->
<g id="edge16" class="edge">
<title>11&#45;&gt;7</title>
<path fill="none" stroke="black" d="M961.66,-522.32C961.56,-514.55 961.46,-506.05 961.36,-498.19"/>
<polygon fill="black" stroke="black" points="964.86,-498.41 961.23,-488.46 957.86,-498.5 964.86,-498.41"/>
</g>
<!-- 12&#45;&gt;3 -->
<g id="edge17" class="edge">
<title>12&#45;&gt;3</title>
<path fill="none" stroke="black" d="M991.41,-220.44C1090.71,-202.19 1282.26,-167.9 1446,-144 1535.27,-130.97 1635.15,-118.67 1716.76,-109.2"/>
<polygon fill="black" stroke="black" points="1717.12,-112.68 1726.65,-108.05 1716.32,-105.73 1717.12,-112.68"/>
</g>
<!-- 32 -->
<g id="node33" class="node">
<title>32</title>
<ellipse fill="none" stroke="black" cx="1335" cy="-306" rx="387.61" ry="18"/>
<text text-anchor="middle" x="1335" y="-300.95" font-family="Times New Roman,serif" font-size="14.00">Inland Empire: 不太可能。宣判刚开始每个人都吓跑了。他们可能没什么事。</text>
</g>
<!-- 13&#45;&gt;32 -->
<g id="edge18" class="edge">
<title>13&#45;&gt;32</title>
<path fill="none" stroke="black" d="M1094.36,-369.85C1142.02,-357.4 1207.56,-340.29 1258.2,-327.06"/>
<polygon fill="black" stroke="black" points="1258.84,-330.51 1267.63,-324.6 1257.07,-323.74 1258.84,-330.51"/>
</g>
<!-- 20 -->
<g id="node21" class="node">
<title>20</title>
<ellipse fill="none" stroke="black" cx="525" cy="-306" rx="403.99" ry="18"/>
<text text-anchor="middle" x="525" y="-300.95" font-family="Times New Roman,serif" font-size="14.00">Kim Kitsuragi: “他们没有，”警督的话让你平静下来。“相信我。我看过尸体了。”</text>
</g>
<!-- 14&#45;&gt;20 -->
<g id="edge19" class="edge">
<title>14&#45;&gt;20</title>
<path fill="none" stroke="black" d="M469.41,-369.17C478.92,-358.53 491.31,-344.67 501.98,-332.74"/>
<polygon fill="black" stroke="black" points="504.31,-335.38 508.37,-325.6 499.1,-330.72 504.31,-335.38"/>
</g>
<!-- 15 -->
<g id="node16" class="node">
<title>15</title>
<ellipse fill="none" stroke="black" cx="1031" cy="-847.6" rx="375.84" ry="18"/>
<text text-anchor="middle" x="1031" y="-842.55" font-family="Times New Roman,serif" font-size="14.00">Inland Empire: 这里只有可怕的孤寂。没有喧闹。没有玩小球游戏的老人。</text>
</g>
<!-- 35 -->
<g id="node36" class="node">
<title>35</title>
<polygon fill="none" stroke="black" points="1031,-793.6 935.22,-775.6 1031,-757.6 1126.78,-775.6 1031,-793.6"/>
<text text-anchor="middle" x="1031" y="-770.55" font-family="Times New Roman,serif" font-size="14.00">!(IsKimHere())</text>
</g>
<!-- 15&#45;&gt;35 -->
<g id="edge21" class="edge">
<title>15&#45;&gt;35</title>
<path fill="none" stroke="black" d="M1031,-829.3C1031,-822.01 1031,-813.33 1031,-805.14"/>
<polygon fill="black" stroke="black" points="1034.5,-805.22 1031,-795.22 1027.5,-805.22 1034.5,-805.22"/>
</g>
<!-- 41 -->
<g id="node42" class="node">
<title>41</title>
<ellipse fill="none" stroke="black" cx="686" cy="-775.6" rx="231.51" ry="18"/>
<text text-anchor="middle" x="686" y="-770.55" font-family="Times New Roman,serif" font-size="14.00">You: 弹坑不就是这样的吗。（抛弃思维。）</text>
</g>
<!-- 15&#45;&gt;41 -->
<g id="edge20" class="edge">
<title>15&#45;&gt;41</title>
<path fill="none" stroke="black" d="M947.49,-829.66C896.1,-819.23 830.21,-805.86 777.42,-795.15"/>
<polygon fill="black" stroke="black" points="778.35,-791.77 767.85,-793.21 776.96,-798.63 778.35,-791.77"/>
</g>
<!-- 16 -->
<g id="node17" class="node">
<title>16</title>
<ellipse fill="none" stroke="black" cx="2280" cy="-1312.58" rx="455.68" ry="18"/>
<text text-anchor="middle" x="2280" y="-1307.53" font-family="Times New Roman,serif" font-size="14.00">Inland Empire: *不过*，你还是无法摆脱这些铃兰的确很重要的感觉。只有一点点就好了。</text>
</g>
<!-- 16&#45;&gt;16 -->
<g id="edge22" class="edge">
<title>16&#45;&gt;16</title>
<path fill="none" stroke="black" d="M2536.43,-1327.87C2652.72,-1329.41 2753.68,-1324.31 2753.68,-1312.58 2753.68,-1301.22 2659.12,-1296.08 2547.62,-1297.15"/>
<polygon fill="black" stroke="black" points="2547.9,-1293.65 2537.94,-1297.26 2547.98,-1300.65 2547.9,-1293.65"/>
</g>
<!-- 17 -->
<g id="node18" class="node">
<title>17</title>
<ellipse fill="none" stroke="black" cx="1971" cy="-919.6" rx="98.95" ry="18"/>
<text text-anchor="middle" x="1971" y="-914.55" font-family="Times New Roman,serif" font-size="14.00">Jump to: [Untitled hub]</text>
</g>
<!-- 17&#45;&gt;3 -->
<g id="edge23" class="edge">
<title>17&#45;&gt;3</title>
<path fill="none" stroke="black" d="M1951.25,-901.51C1925.03,-876.81 1882,-828.39 1882,-776.6 1882,-776.6 1882,-776.6 1882,-233 1882,-193.74 1882,-148.38 1882,-119.69"/>
<polygon fill="black" stroke="black" points="1885.5,-120 1882,-110 1878.5,-120 1885.5,-120"/>
</g>
<!-- 18&#45;&gt;15 -->
<g id="edge24" class="edge">
<title>18&#45;&gt;15</title>
<path fill="none" stroke="black" d="M1035.52,-901.3C1034.89,-894.01 1034.15,-885.33 1033.45,-877.14"/>
<polygon fill="black" stroke="black" points="1036.94,-876.88 1032.6,-867.21 1029.96,-877.48 1036.94,-876.88"/>
</g>
<!-- 19 -->
<g id="node20" class="node">
<title>19</title>
<ellipse fill="none" stroke="black" cx="2404" cy="-306" rx="137.34" ry="18"/>
<text text-anchor="middle" x="2404" y="-300.95" font-family="Times New Roman,serif" font-size="14.00">You: 是啊，他们去哪了？</text>
</g>
<!-- 24 -->
<g id="node25" class="node">
<title>24</title>
<ellipse fill="none" stroke="black" cx="2404" cy="-234" rx="219.22" ry="18"/>
<text text-anchor="middle" x="2404" y="-228.95" font-family="Times New Roman,serif" font-size="14.00">Kim Kitsuragi: ”你是说玩地掷球的那些人？”</text>
</g>
<!-- 19&#45;&gt;24 -->
<g id="edge25" class="edge">
<title>19&#45;&gt;24</title>
<path fill="none" stroke="black" d="M2404,-287.7C2404,-280.41 2404,-271.73 2404,-263.54"/>
<polygon fill="black" stroke="black" points="2407.5,-263.62 2404,-253.62 2400.5,-263.62 2407.5,-263.62"/>
</g>
<!-- 20&#45;&gt;10 -->
<g id="edge26" class="edge">
<title>20&#45;&gt;10</title>
<path fill="none" stroke="black" d="M721.9,-289.85C920.9,-274.55 1218.34,-251.67 1357.72,-240.94"/>
<polygon fill="black" stroke="black" points="1357.88,-244.44 1367.59,-240.19 1357.35,-237.46 1357.88,-244.44"/>
</g>
<!-- 20&#45;&gt;12 -->
<g id="edge27" class="edge">
<title>20&#45;&gt;12</title>
<path fill="none" stroke="black" d="M621.59,-288.05C689.47,-276.15 779.24,-260.4 843.31,-249.16"/>
<polygon fill="black" stroke="black" points="843.82,-252.62 853.07,-247.44 842.61,-245.73 843.82,-252.62"/>
</g>
<!-- 21&#45;&gt;1 -->
<g id="edge28" class="edge">
<title>21&#45;&gt;1</title>
<path fill="none" stroke="black" d="M128.47,-531.97C115.11,-520.19 97.29,-504.46 82.91,-491.78"/>
<polygon fill="black" stroke="black" points="85.42,-489.33 75.61,-485.34 80.79,-494.58 85.42,-489.33"/>
</g>
<!-- 22 -->
<g id="node23" class="node">
<title>22</title>
<ellipse fill="none" stroke="black" cx="3309" cy="-1312.58" rx="537.06" ry="18"/>
<text text-anchor="middle" x="3309" y="-1307.53" font-family="Times New Roman,serif" font-size="14.00">Kim Kitsuragi: “不要因此责怪自己。关于那些花和它们的含义，我想你已经给出了一个十分详尽的答案。”</text>
</g>
<!-- 22&#45;&gt;22 -->
<g id="edge29" class="edge">
<title>22&#45;&gt;22</title>
<path fill="none" stroke="black" d="M3610.54,-1327.88C3746.36,-1329.38 3864.06,-1324.28 3864.06,-1312.58 3864.06,-1301.21 3752.94,-1296.07 3622.03,-1297.16"/>
<polygon fill="black" stroke="black" points="3622.02,-1293.66 3612.05,-1297.25 3622.09,-1300.66 3622.02,-1293.66"/>
</g>
<!-- 23 -->
<g id="node24" class="node">
<title>23</title>
<ellipse fill="none" stroke="black" cx="1924" cy="-1085.58" rx="337.45" ry="18"/>
<text text-anchor="middle" x="1924" y="-1080.53" font-family="Times New Roman,serif" font-size="14.00">Physical Instrument: 别再管那些该死的花了！你是警察还是花匠啊？</text>
</g>
<!-- 23&#45;&gt;17 -->
<g id="edge30" class="edge">
<title>23&#45;&gt;17</title>
<path fill="none" stroke="black" d="M1928.94,-1067.35C1937.04,-1039.1 1953.2,-982.7 1962.96,-948.64"/>
<polygon fill="black" stroke="black" points="1966.32,-949.64 1965.71,-939.06 1959.59,-947.71 1966.32,-949.64"/>
</g>
<!-- 25 -->
<g id="node26" class="node">
<title>25</title>
<ellipse fill="none" stroke="black" cx="2404" cy="-162" rx="493.55" ry="18"/>
<text text-anchor="middle" x="2404" y="-156.95" font-family="Times New Roman,serif" font-size="14.00">Inland Empire: 回家了？去工作了？去别处拿东西了？谁知道我们没注意的时候大家都在干什么。</text>
</g>
<!-- 24&#45;&gt;25 -->
<g id="edge31" class="edge">
<title>24&#45;&gt;25</title>
<path fill="none" stroke="black" d="M2404,-215.7C2404,-208.41 2404,-199.73 2404,-191.54"/>
<polygon fill="black" stroke="black" points="2407.5,-191.62 2404,-181.62 2400.5,-191.62 2407.5,-191.62"/>
</g>
<!-- 25&#45;&gt;3 -->
<g id="edge32" class="edge">
<title>25&#45;&gt;3</title>
<path fill="none" stroke="black" d="M2278.3,-144.14C2200.51,-133.71 2100.55,-120.31 2020.48,-109.57"/>
<polygon fill="black" stroke="black" points="2021.2,-106.14 2010.82,-108.28 2020.27,-113.07 2021.2,-106.14"/>
</g>
<!-- 29 -->
<g id="node30" class="node">
<title>29</title>
<polygon fill="none" stroke="black" points="3015,-252 2919.22,-234 3015,-216 3110.78,-234 3015,-252"/>
<text text-anchor="middle" x="3015" y="-228.95" font-family="Times New Roman,serif" font-size="14.00">!(IsKimHere())</text>
</g>
<!-- 26&#45;&gt;29 -->
<g id="edge33" class="edge">
<title>26&#45;&gt;29</title>
<path fill="none" stroke="black" d="M3015,-287.7C3015,-280.41 3015,-271.73 3015,-263.54"/>
<polygon fill="black" stroke="black" points="3018.5,-263.62 3015,-253.62 3011.5,-263.62 3018.5,-263.62"/>
</g>
<!-- 27 -->
<g id="node28" class="node">
<title>27</title>
<ellipse fill="none" stroke="black" cx="2404" cy="-468.8" rx="117.89" ry="18"/>
<text text-anchor="middle" x="2404" y="-463.75" font-family="Times New Roman,serif" font-size="14.00">Gaston Martin: IsKimHere()</text>
</g>
<!-- 27&#45;&gt;27 -->
<g id="edge34" class="edge">
<title>27&#45;&gt;27</title>
<path fill="none" stroke="black" d="M2474.26,-483.63C2508.99,-485.63 2539.89,-480.68 2539.89,-468.8 2539.89,-458.22 2515.38,-453.14 2485.49,-453.56"/>
<polygon fill="black" stroke="black" points="2485.64,-450.05 2475.78,-453.91 2485.9,-457.05 2485.64,-450.05"/>
</g>
<!-- 28 -->
<g id="node29" class="node">
<title>28</title>
<polygon fill="none" stroke="black" points="2404,-405.4 2321.24,-387.4 2404,-369.4 2486.76,-387.4 2404,-405.4"/>
<text text-anchor="middle" x="2404" y="-382.35" font-family="Times New Roman,serif" font-size="14.00">IsKimHere()</text>
</g>
<!-- 27&#45;&gt;28 -->
<g id="edge35" class="edge">
<title>27&#45;&gt;28</title>
<path fill="none" stroke="black" d="M2404,-450.57C2404,-440.86 2404,-428.47 2404,-417.31"/>
<polygon fill="black" stroke="black" points="2407.5,-417.38 2404,-407.38 2400.5,-417.38 2407.5,-417.38"/>
</g>
<!-- 28&#45;&gt;19 -->
<g id="edge36" class="edge">
<title>28&#45;&gt;19</title>
<path fill="none" stroke="black" d="M2404,-369.17C2404,-359.46 2404,-347.07 2404,-335.91"/>
<polygon fill="black" stroke="black" points="2407.5,-335.98 2404,-325.98 2400.5,-335.98 2407.5,-335.98"/>
</g>
<!-- 31 -->
<g id="node32" class="node">
<title>31</title>
<ellipse fill="none" stroke="black" cx="3015" cy="-162" rx="98.95" ry="18"/>
<text text-anchor="middle" x="3015" y="-156.95" font-family="Times New Roman,serif" font-size="14.00">Jump to: [Untitled hub]</text>
</g>
<!-- 29&#45;&gt;31 -->
<g id="edge37" class="edge">
<title>29&#45;&gt;31</title>
<path fill="none" stroke="black" d="M3015,-215.7C3015,-208.41 3015,-199.73 3015,-191.54"/>
<polygon fill="black" stroke="black" points="3018.5,-191.62 3015,-181.62 3011.5,-191.62 3018.5,-191.62"/>
</g>
<!-- 30&#45;&gt;3 -->
<g id="edge38" class="edge">
<title>30&#45;&gt;3</title>
<path fill="none" stroke="black" d="M1887.9,-36.1C1888.66,-43.37 1888.91,-52.04 1888.65,-60.24"/>
<polygon fill="black" stroke="black" points="1885.16,-59.98 1888.01,-70.19 1892.15,-60.43 1885.16,-59.98"/>
</g>
<!-- 31&#45;&gt;3 -->
<g id="edge39" class="edge">
<title>31&#45;&gt;3</title>
<path fill="none" stroke="black" d="M2945.13,-148.91C2932.47,-147.03 2919.37,-145.29 2907,-144 2714.53,-123.93 2500.89,-111.35 2318.69,-103.52"/>
<polygon fill="black" stroke="black" points="2318.94,-100.03 2308.8,-103.1 2318.64,-107.02 2318.94,-100.03"/>
</g>
<!-- 32&#45;&gt;10 -->
<g id="edge40" class="edge">
<title>32&#45;&gt;10</title>
<path fill="none" stroke="black" d="M1359.72,-287.7C1373.86,-277.8 1391.66,-265.34 1406.4,-255.02"/>
<polygon fill="black" stroke="black" points="1408.15,-258.07 1414.33,-249.47 1404.13,-252.33 1408.15,-258.07"/>
</g>
<!-- 32&#45;&gt;12 -->
<g id="edge41" class="edge">
<title>32&#45;&gt;12</title>
<path fill="none" stroke="black" d="M1236.03,-288.14C1165.53,-276.14 1071.9,-260.19 1005.65,-248.91"/>
<polygon fill="black" stroke="black" points="1006.38,-245.48 995.93,-247.25 1005.2,-252.38 1006.38,-245.48"/>
</g>
<!-- 33 -->
<g id="node34" class="node">
<title>33</title>
<ellipse fill="none" stroke="black" cx="3015" cy="-631.6" rx="117.89" ry="18"/>
<text text-anchor="middle" x="3015" y="-626.55" font-family="Times New Roman,serif" font-size="14.00">Gaston Martin: IsKimHere()</text>
</g>
<!-- 33&#45;&gt;33 -->
<g id="edge42" class="edge">
<title>33&#45;&gt;33</title>
<path fill="none" stroke="black" d="M3095.91,-645.07C3126.07,-645.51 3150.89,-641.02 3150.89,-631.6 3150.89,-623.39 3132.05,-618.93 3107.27,-618.21"/>
<polygon fill="black" stroke="black" points="3107.45,-614.71 3097.43,-618.14 3107.4,-621.71 3107.45,-614.71"/>
</g>
<!-- 34 -->
<g id="node35" class="node">
<title>34</title>
<polygon fill="none" stroke="black" points="3015,-568.2 2932.24,-550.2 3015,-532.2 3097.76,-550.2 3015,-568.2"/>
<text text-anchor="middle" x="3015" y="-545.15" font-family="Times New Roman,serif" font-size="14.00">IsKimHere()</text>
</g>
<!-- 33&#45;&gt;34 -->
<g id="edge43" class="edge">
<title>33&#45;&gt;34</title>
<path fill="none" stroke="black" d="M3015,-613.37C3015,-603.66 3015,-591.27 3015,-580.11"/>
<polygon fill="black" stroke="black" points="3018.5,-580.18 3015,-570.18 3011.5,-580.18 3018.5,-580.18"/>
</g>
<!-- 42 -->
<g id="node43" class="node">
<title>42</title>
<ellipse fill="none" stroke="black" cx="3015" cy="-468.8" rx="336.94" ry="18"/>
<text text-anchor="middle" x="3015" y="-463.75" font-family="Times New Roman,serif" font-size="14.00">Kim Kitsuragi: “下次再找他们吧，”警督看着空荡荡的弹坑回复到。</text>
</g>
<!-- 34&#45;&gt;42 -->
<g id="edge44" class="edge">
<title>34&#45;&gt;42</title>
<path fill="none" stroke="black" d="M3015,-531.97C3015,-522.26 3015,-509.87 3015,-498.71"/>
<polygon fill="black" stroke="black" points="3018.5,-498.78 3015,-488.78 3011.5,-498.78 3018.5,-498.78"/>
</g>
<!-- 43 -->
<g id="node44" class="node">
<title>43</title>
<ellipse fill="none" stroke="black" cx="1028" cy="-703.6" rx="387.61" ry="18"/>
<text text-anchor="middle" x="1028" y="-698.55" font-family="Times New Roman,serif" font-size="14.00">Inland Empire: 下次再找他们吧。不过说实在的，他们都不在嫌疑人名单上。</text>
</g>
<!-- 35&#45;&gt;43 -->
<g id="edge45" class="edge">
<title>35&#45;&gt;43</title>
<path fill="none" stroke="black" d="M1030.26,-757.3C1029.95,-750.01 1029.57,-741.33 1029.22,-733.14"/>
<polygon fill="black" stroke="black" points="1032.72,-733.06 1028.8,-723.22 1025.73,-733.36 1032.72,-733.06"/>
</g>
<!-- 36 -->
<g id="node37" class="node">
<title>36</title>
<ellipse fill="none" stroke="black" cx="1627" cy="-1312.58" rx="178.9" ry="28.99"/>
<text text-anchor="middle" x="1627" y="-1315.78" font-family="Times New Roman,serif" font-size="14.00">You: 是啊，那些老家伙去哪了？</text>
<text text-anchor="middle" x="1627" y="-1299.28" font-family="Times New Roman,serif" font-size="14.00">“那帮老家伙去哪了？”</text>
</g>
<!-- 37 -->
<g id="node38" class="node">
<title>37</title>
<ellipse fill="none" stroke="black" cx="1627" cy="-1229.58" rx="117.89" ry="18"/>
<text text-anchor="middle" x="1627" y="-1224.53" font-family="Times New Roman,serif" font-size="14.00">Gaston Martin: IsKimHere()</text>
</g>
<!-- 36&#45;&gt;37 -->
<g id="edge46" class="edge">
<title>36&#45;&gt;37</title>
<path fill="none" stroke="black" d="M1627,-1283.25C1627,-1275.37 1627,-1266.82 1627,-1258.94"/>
<polygon fill="black" stroke="black" points="1630.5,-1259.19 1627,-1249.19 1623.5,-1259.19 1630.5,-1259.19"/>
</g>
<!-- 38 -->
<g id="node39" class="node">
<title>38</title>
<polygon fill="none" stroke="black" points="1780,-1175.58 1697.24,-1157.58 1780,-1139.58 1862.76,-1157.58 1780,-1175.58"/>
<text text-anchor="middle" x="1780" y="-1152.53" font-family="Times New Roman,serif" font-size="14.00">IsKimHere()</text>
</g>
<!-- 37&#45;&gt;38 -->
<g id="edge47" class="edge">
<title>37&#45;&gt;38</title>
<path fill="none" stroke="black" d="M1663.26,-1212C1687.74,-1200.8 1719.9,-1186.08 1744.27,-1174.93"/>
<polygon fill="black" stroke="black" points="1745.51,-1178.21 1753.15,-1170.87 1742.6,-1171.85 1745.51,-1178.21"/>
</g>
<!-- 39 -->
<g id="node40" class="node">
<title>39</title>
<polygon fill="none" stroke="black" points="1529,-1175.58 1433.22,-1157.58 1529,-1139.58 1624.78,-1157.58 1529,-1175.58"/>
<text text-anchor="middle" x="1529" y="-1152.53" font-family="Times New Roman,serif" font-size="14.00">!(IsKimHere())</text>
</g>
<!-- 37&#45;&gt;39 -->
<g id="edge48" class="edge">
<title>37&#45;&gt;39</title>
<path fill="none" stroke="black" d="M1603.28,-1211.64C1589.43,-1201.75 1571.87,-1189.21 1557.31,-1178.8"/>
<polygon fill="black" stroke="black" points="1559.64,-1176.17 1549.47,-1173.2 1555.57,-1181.86 1559.64,-1176.17"/>
</g>
<!-- 38&#45;&gt;23 -->
<g id="edge49" class="edge">
<title>38&#45;&gt;23</title>
<path fill="none" stroke="black" d="M1804.75,-1144.55C1824.88,-1134.77 1853.82,-1120.7 1878.15,-1108.87"/>
<polygon fill="black" stroke="black" points="1879.43,-1112.14 1886.89,-1104.62 1876.37,-1105.85 1879.43,-1112.14"/>
</g>
<!-- 39&#45;&gt;4 -->
<g id="edge50" class="edge">
<title>39&#45;&gt;4</title>
<path fill="none" stroke="black" d="M1508.18,-1143.09C1492.97,-1133.23 1472.04,-1119.66 1454.49,-1108.29"/>
<polygon fill="black" stroke="black" points="1456.72,-1105.56 1446.42,-1103.06 1452.91,-1111.44 1456.72,-1105.56"/>
</g>
<!-- 42&#45;&gt;6 -->
<g id="edge51" class="edge">
<title>42&#45;&gt;6</title>
<path fill="none" stroke="black" d="M3015,-450.57C3015,-443.49 3015,-434.97 3015,-426.56"/>
<polygon fill="black" stroke="black" points="3018.5,-426.79 3015,-416.79 3011.5,-426.79 3018.5,-426.79"/>
</g>
<!-- 44 -->
<g id="node45" class="node">
<title>44</title>
<ellipse fill="none" stroke="black" cx="984" cy="-631.6" rx="432.14" ry="18"/>
<text text-anchor="middle" x="984" y="-626.55" font-family="Times New Roman,serif" font-size="14.00">Inland Empire: 跟这两个领退休金的人聊天会浪费你*太多*时间的。宝贵的查案时间。</text>
</g>
<!-- 43&#45;&gt;44 -->
<g id="edge52" class="edge">
<title>43&#45;&gt;44</title>
<path fill="none" stroke="black" d="M1017.12,-685.3C1012.22,-677.5 1006.32,-668.11 1000.86,-659.43"/>
<polygon fill="black" stroke="black" points="1003.84,-657.59 995.56,-650.99 997.92,-661.32 1003.84,-657.59"/>
</g>
<!-- 44&#45;&gt;11 -->
<g id="edge53" class="edge">
<title>44&#45;&gt;11</title>
<path fill="none" stroke="black" d="M979.23,-613.37C977.24,-606.21 974.85,-597.58 972.49,-589.07"/>
<polygon fill="black" stroke="black" points="975.89,-588.24 969.85,-579.54 969.15,-590.11 975.89,-588.24"/>
</g>
</g>
</svg>
