<?xml version="1.0" encoding="UTF-8" standalone="no"?>
<!DOCTYPE svg PUBLIC "-//W3C//DTD SVG 1.1//EN"
 "http://www.w3.org/Graphics/SVG/1.1/DTD/svg11.dtd">
<!-- Generated by graphviz version 12.2.1 (20241206.2353)
 -->
<!-- Title: G Pages: 1 -->
<svg width="4971pt" height="1196pt"
 viewBox="0.00 0.00 4970.73 1196.00" xmlns="http://www.w3.org/2000/svg" xmlns:xlink="http://www.w3.org/1999/xlink">
<g id="graph0" class="graph" transform="scale(1 1) rotate(0) translate(4 1192)">
<title>G</title>
<polygon fill="white" stroke="none" points="-4,4 -4,-1192 4966.73,-1192 4966.73,4 -4,4"/>
<!-- 0 -->
<g id="node1" class="node">
<title>0</title>
<ellipse fill="none" stroke="black" cx="2267.88" cy="-1170" rx="39.07" ry="18"/>
<text text-anchor="middle" x="2267.88" y="-1164.95" font-family="Times New Roman,serif" font-size="14.00">START</text>
</g>
<!-- 1 -->
<g id="node2" class="node">
<title>1</title>
<ellipse fill="none" stroke="black" cx="2267.88" cy="-1098" rx="29.86" ry="18"/>
<text text-anchor="middle" x="2267.88" y="-1092.95" font-family="Times New Roman,serif" font-size="14.00">input</text>
</g>
<!-- 0&#45;&gt;1 -->
<g id="edge1" class="edge">
<title>0&#45;&gt;1</title>
<path fill="none" stroke="black" d="M2267.88,-1151.7C2267.88,-1144.41 2267.88,-1135.73 2267.88,-1127.54"/>
<polygon fill="black" stroke="black" points="2271.38,-1127.62 2267.88,-1117.62 2264.38,-1127.62 2271.38,-1127.62"/>
</g>
<!-- 9 -->
<g id="node10" class="node">
<title>9</title>
<ellipse fill="none" stroke="black" cx="2267.88" cy="-1026" rx="254.03" ry="18"/>
<text text-anchor="middle" x="2267.88" y="-1020.95" font-family="Times New Roman,serif" font-size="14.00">Inland Empire: 无头FALN骑士——他随时可能出现！</text>
</g>
<!-- 1&#45;&gt;9 -->
<g id="edge2" class="edge">
<title>1&#45;&gt;9</title>
<path fill="none" stroke="black" d="M2267.88,-1079.7C2267.88,-1072.41 2267.88,-1063.73 2267.88,-1055.54"/>
<polygon fill="black" stroke="black" points="2271.38,-1055.62 2267.88,-1045.62 2264.38,-1055.62 2271.38,-1055.62"/>
</g>
<!-- 2 -->
<g id="node3" class="node">
<title>2</title>
<ellipse fill="none" stroke="black" cx="3807.88" cy="-522" rx="192.61" ry="18"/>
<text text-anchor="middle" x="3807.88" y="-516.95" font-family="Times New Roman,serif" font-size="14.00">You: “我再等个几分钟，以防万一。”</text>
</g>
<!-- 28 -->
<g id="node28" class="node">
<title>28</title>
<ellipse fill="none" stroke="black" cx="3914.88" cy="-450" rx="281.67" ry="18"/>
<text text-anchor="middle" x="3914.88" y="-444.95" font-family="Times New Roman,serif" font-size="14.00">Inland Empire: 没错，留下！再等几分钟又不会怎么样？</text>
</g>
<!-- 2&#45;&gt;28 -->
<g id="edge3" class="edge">
<title>2&#45;&gt;28</title>
<path fill="none" stroke="black" d="M3834.33,-503.7C3847.83,-494.86 3864.45,-483.99 3879.09,-474.41"/>
<polygon fill="black" stroke="black" points="3880.64,-477.58 3887.09,-469.18 3876.81,-471.72 3880.64,-477.58"/>
</g>
<!-- 3 -->
<g id="node4" class="node">
<title>3</title>
<ellipse fill="none" stroke="black" cx="2818.88" cy="-594" rx="401.43" ry="18"/>
<text text-anchor="middle" x="2818.88" y="-588.95" font-family="Times New Roman,serif" font-size="14.00">Kim Kitsuragi: “是啊，会*特别*酷。”警督点点头。“现在我们走吧，回去休息。”</text>
</g>
<!-- 4 -->
<g id="node5" class="node">
<title>4</title>
<ellipse fill="none" stroke="black" cx="485.88" cy="-594" rx="485.88" ry="18"/>
<text text-anchor="middle" x="485.88" y="-588.95" font-family="Times New Roman,serif" font-size="14.00">Kim Kitsuragi: “很好。现在已经很晚了——我们早就应该回去休息的。明天又会是难熬的一天。”</text>
</g>
<!-- 5 -->
<g id="node6" class="node">
<title>5</title>
<ellipse fill="none" stroke="black" cx="818.88" cy="-810" rx="157.3" ry="18"/>
<text text-anchor="middle" x="818.88" y="-804.95" font-family="Times New Roman,serif" font-size="14.00">You: “不是，我们只是路过。”</text>
</g>
<!-- 8 -->
<g id="node9" class="node">
<title>8</title>
<ellipse fill="none" stroke="black" cx="588.88" cy="-738" rx="266.31" ry="18"/>
<text text-anchor="middle" x="588.88" y="-732.95" font-family="Times New Roman,serif" font-size="14.00">Kim Kitsuragi: “很好。现在很晚了，我们该休息了。”</text>
</g>
<!-- 5&#45;&gt;8 -->
<g id="edge4" class="edge">
<title>5&#45;&gt;8</title>
<path fill="none" stroke="black" d="M765.24,-792.68C732.52,-782.72 690.43,-769.91 655.57,-759.3"/>
<polygon fill="black" stroke="black" points="657.04,-756.09 646.45,-756.52 655,-762.78 657.04,-756.09"/>
</g>
<!-- 6 -->
<g id="node7" class="node">
<title>6</title>
<ellipse fill="none" stroke="black" cx="3920.88" cy="-234" rx="277.57" ry="18"/>
<text text-anchor="middle" x="3920.88" y="-228.95" font-family="Times New Roman,serif" font-size="14.00">Inland Empire: 脑子里那片静寂在你的耳边嗡嗡作响……</text>
</g>
<!-- 20 -->
<g id="node20" class="node">
<title>20</title>
<ellipse fill="none" stroke="black" cx="3641.88" cy="-162" rx="340.01" ry="18"/>
<text text-anchor="middle" x="3641.88" y="-156.95" font-family="Times New Roman,serif" font-size="14.00">You: “你说的没错，金。我到底在想什么呢？我们走吧。”[离开。]</text>
</g>
<!-- 6&#45;&gt;20 -->
<g id="edge6" class="edge">
<title>6&#45;&gt;20</title>
<path fill="none" stroke="black" d="M3853.34,-216.05C3813.37,-206.03 3762.54,-193.27 3720.74,-182.79"/>
<polygon fill="black" stroke="black" points="3721.78,-179.44 3711.23,-180.4 3720.08,-186.23 3721.78,-179.44"/>
</g>
<!-- 27 -->
<g id="node27" class="node">
<title>27</title>
<ellipse fill="none" stroke="black" cx="4217.88" cy="-162" rx="188.52" ry="18"/>
<text text-anchor="middle" x="4217.88" y="-156.95" font-family="Times New Roman,serif" font-size="14.00">You: “让我无法形容的……不高兴。”</text>
</g>
<!-- 6&#45;&gt;27 -->
<g id="edge5" class="edge">
<title>6&#45;&gt;27</title>
<path fill="none" stroke="black" d="M3992.39,-216.14C4036.32,-205.79 4092.66,-192.51 4138.04,-181.82"/>
<polygon fill="black" stroke="black" points="4138.62,-185.28 4147.55,-179.57 4137.02,-178.46 4138.62,-185.28"/>
</g>
<!-- 7 -->
<g id="node8" class="node">
<title>7</title>
<ellipse fill="none" stroke="black" cx="2267.88" cy="-882" rx="243.79" ry="18"/>
<text text-anchor="middle" x="2267.88" y="-876.95" font-family="Times New Roman,serif" font-size="14.00">Inland Empire: 别听警督的！他*什么*都不知道。</text>
</g>
<!-- 7&#45;&gt;5 -->
<g id="edge7" class="edge">
<title>7&#45;&gt;5</title>
<path fill="none" stroke="black" d="M2068.3,-871.36C1775.76,-857.23 1236.72,-831.19 972.72,-818.43"/>
<polygon fill="black" stroke="black" points="973.19,-814.95 963.03,-817.96 972.85,-821.94 973.19,-814.95"/>
</g>
<!-- 14 -->
<g id="node14" class="node">
<title>14</title>
<ellipse fill="none" stroke="black" cx="2818.88" cy="-666" rx="322.1" ry="18"/>
<text text-anchor="middle" x="2818.88" y="-660.95" font-family="Times New Roman,serif" font-size="14.00">You: “是啊，你说的没错。不过，难道你不觉得这样很酷吗？”</text>
</g>
<!-- 7&#45;&gt;14 -->
<g id="edge8" class="edge">
<title>7&#45;&gt;14</title>
<path fill="none" stroke="black" d="M2263.77,-863.72C2257.05,-830.62 2248.02,-758.16 2286.88,-720 2307.55,-699.7 2434.6,-686.59 2559.35,-678.49"/>
<polygon fill="black" stroke="black" points="2559.37,-682 2569.13,-677.87 2558.93,-675.01 2559.37,-682"/>
</g>
<!-- 15 -->
<g id="node15" class="node">
<title>15</title>
<ellipse fill="none" stroke="black" cx="1731.88" cy="-810" rx="333.87" ry="18"/>
<text text-anchor="middle" x="1731.88" y="-804.95" font-family="Times New Roman,serif" font-size="14.00">You: “当然不是，我们可不是为这个来的。你为什么会这么想？”</text>
</g>
<!-- 7&#45;&gt;15 -->
<g id="edge9" class="edge">
<title>7&#45;&gt;15</title>
<path fill="none" stroke="black" d="M2151.24,-865.77C2067.6,-854.84 1954.69,-840.1 1867.1,-828.66"/>
<polygon fill="black" stroke="black" points="1867.6,-825.2 1857.24,-827.37 1866.7,-832.14 1867.6,-825.2"/>
</g>
<!-- 17 -->
<g id="node17" class="node">
<title>17</title>
<ellipse fill="none" stroke="black" cx="2690.88" cy="-810" rx="121.98" ry="18"/>
<text text-anchor="middle" x="2690.88" y="-804.95" font-family="Times New Roman,serif" font-size="14.00">You: “你怎么知道的？”</text>
</g>
<!-- 7&#45;&gt;17 -->
<g id="edge10" class="edge">
<title>7&#45;&gt;17</title>
<path fill="none" stroke="black" d="M2364.39,-865.03C2435.3,-853.29 2530.99,-837.46 2600.43,-825.97"/>
<polygon fill="black" stroke="black" points="2600.98,-829.42 2610.28,-824.34 2599.84,-822.52 2600.98,-829.42"/>
</g>
<!-- 23 -->
<g id="node23" class="node">
<title>23</title>
<ellipse fill="none" stroke="black" cx="3646.88" cy="-666" rx="121.98" ry="18"/>
<text text-anchor="middle" x="3646.88" y="-660.95" font-family="Times New Roman,serif" font-size="14.00">You: “我们等着瞧吧。”</text>
</g>
<!-- 7&#45;&gt;23 -->
<g id="edge11" class="edge">
<title>7&#45;&gt;23</title>
<path fill="none" stroke="black" d="M2498.9,-876.03C2869.37,-865.71 3562.87,-835.86 3640.88,-756 3656.09,-740.42 3656.4,-715.11 3653.59,-695.45"/>
<polygon fill="black" stroke="black" points="3657.08,-695.08 3651.87,-685.85 3650.19,-696.31 3657.08,-695.08"/>
</g>
<!-- 22 -->
<g id="node22" class="node">
<title>22</title>
<ellipse fill="none" stroke="black" cx="2267.88" cy="-954" rx="603.59" ry="18"/>
<text text-anchor="middle" x="2267.88" y="-948.95" font-family="Times New Roman,serif" font-size="14.00">Kim Kitsuragi: “麻烦你告诉我，我们来这儿不是为了找一个穿着运动服的无头骑士……因为根本就没有这种东西存在。”</text>
</g>
<!-- 9&#45;&gt;22 -->
<g id="edge12" class="edge">
<title>9&#45;&gt;22</title>
<path fill="none" stroke="black" d="M2267.88,-1007.7C2267.88,-1000.41 2267.88,-991.73 2267.88,-983.54"/>
<polygon fill="black" stroke="black" points="2271.38,-983.62 2267.88,-973.62 2264.38,-983.62 2271.38,-983.62"/>
</g>
<!-- 11 -->
<g id="node11" class="node">
<title>11</title>
<ellipse fill="none" stroke="black" cx="1669.88" cy="-594" rx="679.85" ry="18"/>
<text text-anchor="middle" x="1669.88" y="-588.95" font-family="Times New Roman,serif" font-size="14.00">Kim Kitsuragi: “……一个愚蠢的心愿。但是没关系。我明白的。其实它感觉真的挺*酷*的。”警督点点头。“现在我们走吧，回去休息。”</text>
</g>
<!-- 12 -->
<g id="node12" class="node">
<title>12</title>
<ellipse fill="none" stroke="black" cx="1556.88" cy="-738" rx="683.43" ry="18"/>
<text text-anchor="middle" x="1556.88" y="-732.95" font-family="Times New Roman,serif" font-size="14.00">Kim Kitsuragi: “这几天我们一直在做一些*稀奇古怪*的事。我已经见识过你的脑子是怎么运转的了……它就是对这种东西特别感兴趣。”</text>
</g>
<!-- 25 -->
<g id="node25" class="node">
<title>25</title>
<ellipse fill="none" stroke="black" cx="754.88" cy="-666" rx="303.67" ry="18"/>
<text text-anchor="middle" x="754.88" y="-660.95" font-family="Times New Roman,serif" font-size="14.00">You: “我承认……我*经常*会做这种事情。但这次不一样。”</text>
</g>
<!-- 12&#45;&gt;25 -->
<g id="edge13" class="edge">
<title>12&#45;&gt;25</title>
<path fill="none" stroke="black" d="M1365.03,-720.26C1233.44,-708.77 1060.13,-693.64 931.85,-682.45"/>
<polygon fill="black" stroke="black" points="932.52,-678.99 922.26,-681.61 931.91,-685.97 932.52,-678.99"/>
</g>
<!-- 30 -->
<g id="node30" class="node">
<title>30</title>
<ellipse fill="none" stroke="black" cx="1569.88" cy="-666" rx="223.83" ry="18"/>
<text text-anchor="middle" x="1569.88" y="-660.95" font-family="Times New Roman,serif" font-size="14.00">You: “好吧，你说服我了。我有个心愿……”</text>
</g>
<!-- 12&#45;&gt;30 -->
<g id="edge14" class="edge">
<title>12&#45;&gt;30</title>
<path fill="none" stroke="black" d="M1560.09,-719.7C1561.46,-712.32 1563.09,-703.52 1564.63,-695.25"/>
<polygon fill="black" stroke="black" points="1568.04,-696.06 1566.42,-685.59 1561.16,-694.79 1568.04,-696.06"/>
</g>
<!-- 13 -->
<g id="node13" class="node">
<title>13</title>
<ellipse fill="none" stroke="black" cx="4217.88" cy="-90" rx="744.85" ry="18"/>
<text text-anchor="middle" x="4217.88" y="-84.95" font-family="Times New Roman,serif" font-size="14.00">Kim Kitsuragi: “我知道神话和传说很有诱惑力，但最后那些都是讲给小孩听的故事……为了给他们上一课，或者是吓唬他们。”他向着海浪比划着。</text>
</g>
<!-- 29 -->
<g id="node29" class="node">
<title>29</title>
<ellipse fill="none" stroke="black" cx="4217.88" cy="-18" rx="509.42" ry="18"/>
<text text-anchor="middle" x="4217.88" y="-12.95" font-family="Times New Roman,serif" font-size="14.00">Kim Kitsuragi: “我们走吧。现在已经很晚了——我们早就应该回去休息的。明天又会是难熬的一天。”</text>
</g>
<!-- 13&#45;&gt;29 -->
<g id="edge15" class="edge">
<title>13&#45;&gt;29</title>
<path fill="none" stroke="black" d="M4217.88,-71.7C4217.88,-64.41 4217.88,-55.73 4217.88,-47.54"/>
<polygon fill="black" stroke="black" points="4221.38,-47.62 4217.88,-37.62 4214.38,-47.62 4221.38,-47.62"/>
</g>
<!-- 14&#45;&gt;3 -->
<g id="edge16" class="edge">
<title>14&#45;&gt;3</title>
<path fill="none" stroke="black" d="M2818.88,-647.7C2818.88,-640.41 2818.88,-631.73 2818.88,-623.54"/>
<polygon fill="black" stroke="black" points="2822.38,-623.62 2818.88,-613.62 2815.38,-623.62 2822.38,-623.62"/>
</g>
<!-- 15&#45;&gt;12 -->
<g id="edge17" class="edge">
<title>15&#45;&gt;12</title>
<path fill="none" stroke="black" d="M1688.62,-791.7C1665.06,-782.27 1635.7,-770.53 1610.67,-760.52"/>
<polygon fill="black" stroke="black" points="1612.23,-757.37 1601.65,-756.91 1609.63,-763.87 1612.23,-757.37"/>
</g>
<!-- 16 -->
<g id="node16" class="node">
<title>16</title>
<ellipse fill="none" stroke="black" cx="2963.88" cy="-738" rx="668.08" ry="18"/>
<text text-anchor="middle" x="2963.88" y="-732.95" font-family="Times New Roman,serif" font-size="14.00">Kim Kitsuragi: “没人真正*见过*无头FALN骑士，因为他根本*不存在*。他只是个都市传说。而*传说*，就意味着*一个虚构的故事。*”</text>
</g>
<!-- 16&#45;&gt;14 -->
<g id="edge18" class="edge">
<title>16&#45;&gt;14</title>
<path fill="none" stroke="black" d="M2928.03,-719.7C2909.04,-710.53 2885.48,-699.16 2865.12,-689.33"/>
<polygon fill="black" stroke="black" points="2866.7,-686.2 2856.17,-685 2863.66,-692.5 2866.7,-686.2"/>
</g>
<!-- 16&#45;&gt;23 -->
<g id="edge19" class="edge">
<title>16&#45;&gt;23</title>
<path fill="none" stroke="black" d="M3128.78,-720.1C3255.68,-707.09 3427.46,-689.49 3537.75,-678.18"/>
<polygon fill="black" stroke="black" points="3537.79,-681.7 3547.38,-677.2 3537.08,-674.74 3537.79,-681.7"/>
</g>
<!-- 17&#45;&gt;16 -->
<g id="edge20" class="edge">
<title>17&#45;&gt;16</title>
<path fill="none" stroke="black" d="M2750.11,-793.81C2789.64,-783.68 2842.06,-770.24 2885.09,-759.2"/>
<polygon fill="black" stroke="black" points="2885.82,-762.63 2894.64,-756.75 2884.08,-755.85 2885.82,-762.63"/>
</g>
<!-- 18 -->
<g id="node18" class="node">
<title>18</title>
<ellipse fill="none" stroke="black" cx="3284.88" cy="-450" rx="324.15" ry="18"/>
<text text-anchor="middle" x="3284.88" y="-444.95" font-family="Times New Roman,serif" font-size="14.00">You: “你说的对，看我……都在想什么呢？我们走吧。”[离开。]</text>
</g>
<!-- 26 -->
<g id="node26" class="node">
<title>26</title>
<ellipse fill="none" stroke="black" cx="3283.88" cy="-90" rx="152.18" ry="18"/>
<text text-anchor="middle" x="3283.88" y="-84.95" font-family="Times New Roman,serif" font-size="14.00">Kim Kitsuragi: 警督点了点头。</text>
</g>
<!-- 18&#45;&gt;26 -->
<g id="edge21" class="edge">
<title>18&#45;&gt;26</title>
<path fill="none" stroke="black" d="M3282.65,-431.55C3279.44,-404.79 3273.88,-352 3273.88,-307 3273.88,-307 3273.88,-307 3273.88,-233 3273.88,-193.64 3277.75,-148.3 3280.67,-119.65"/>
<polygon fill="black" stroke="black" points="3284.12,-120.28 3281.69,-109.97 3277.16,-119.54 3284.12,-120.28"/>
</g>
<!-- 19 -->
<g id="node19" class="node">
<title>19</title>
<ellipse fill="none" stroke="black" cx="3646.88" cy="-594" rx="384.03" ry="18"/>
<text text-anchor="middle" x="3646.88" y="-588.95" font-family="Times New Roman,serif" font-size="14.00">Kim Kitsuragi: “没什么好等的。我们应该回去休息，今天已经够漫长的了。”</text>
</g>
<!-- 19&#45;&gt;2 -->
<g id="edge22" class="edge">
<title>19&#45;&gt;2</title>
<path fill="none" stroke="black" d="M3686.67,-575.7C3708.32,-566.29 3735.28,-554.56 3758.28,-544.56"/>
<polygon fill="black" stroke="black" points="3759.37,-547.9 3767.15,-540.71 3756.58,-541.49 3759.37,-547.9"/>
</g>
<!-- 19&#45;&gt;18 -->
<g id="edge23" class="edge">
<title>19&#45;&gt;18</title>
<path fill="none" stroke="black" d="M3602.85,-575.73C3536.63,-549.75 3411.49,-500.67 3339.53,-472.44"/>
<polygon fill="black" stroke="black" points="3340.88,-469.21 3330.29,-468.81 3338.32,-475.72 3340.88,-469.21"/>
</g>
<!-- 20&#45;&gt;26 -->
<g id="edge24" class="edge">
<title>20&#45;&gt;26</title>
<path fill="none" stroke="black" d="M3555.67,-144.14C3499.91,-133.24 3427.53,-119.09 3371.49,-108.13"/>
<polygon fill="black" stroke="black" points="3372.48,-104.76 3361.99,-106.27 3371.14,-111.63 3372.48,-104.76"/>
</g>
<!-- 21 -->
<g id="node21" class="node">
<title>21</title>
<ellipse fill="none" stroke="black" cx="3920.88" cy="-306" rx="180.33" ry="18"/>
<text text-anchor="middle" x="3920.88" y="-300.95" font-family="Times New Roman,serif" font-size="14.00">You: 这里什么也没有——你骗我！</text>
</g>
<!-- 21&#45;&gt;6 -->
<g id="edge25" class="edge">
<title>21&#45;&gt;6</title>
<path fill="none" stroke="black" d="M3920.88,-287.7C3920.88,-280.41 3920.88,-271.73 3920.88,-263.54"/>
<polygon fill="black" stroke="black" points="3924.38,-263.62 3920.88,-253.62 3917.38,-263.62 3924.38,-263.62"/>
</g>
<!-- 22&#45;&gt;7 -->
<g id="edge26" class="edge">
<title>22&#45;&gt;7</title>
<path fill="none" stroke="black" d="M2267.88,-935.7C2267.88,-928.41 2267.88,-919.73 2267.88,-911.54"/>
<polygon fill="black" stroke="black" points="2271.38,-911.62 2267.88,-901.62 2264.38,-911.62 2271.38,-911.62"/>
</g>
<!-- 23&#45;&gt;19 -->
<g id="edge27" class="edge">
<title>23&#45;&gt;19</title>
<path fill="none" stroke="black" d="M3646.88,-647.7C3646.88,-640.41 3646.88,-631.73 3646.88,-623.54"/>
<polygon fill="black" stroke="black" points="3650.38,-623.62 3646.88,-613.62 3643.38,-623.62 3650.38,-623.62"/>
</g>
<!-- 24 -->
<g id="node24" class="node">
<title>24</title>
<ellipse fill="none" stroke="black" cx="3920.88" cy="-378" rx="619.46" ry="18"/>
<text text-anchor="middle" x="3920.88" y="-372.95" font-family="Times New Roman,serif" font-size="14.00">Kim Kitsuragi: 警督双手交叉抱在胸前，手指轻轻敲打着自己的二头肌。“好了，我们等了。什么也没发生。现在高兴了？”</text>
</g>
<!-- 24&#45;&gt;20 -->
<g id="edge29" class="edge">
<title>24&#45;&gt;20</title>
<path fill="none" stroke="black" d="M3796.43,-359.92C3733.7,-343.83 3664.56,-312.61 3633.88,-252 3624.41,-233.29 3627.17,-209.53 3631.88,-191.26"/>
<polygon fill="black" stroke="black" points="3635.18,-192.46 3634.64,-181.88 3628.46,-190.49 3635.18,-192.46"/>
</g>
<!-- 24&#45;&gt;21 -->
<g id="edge30" class="edge">
<title>24&#45;&gt;21</title>
<path fill="none" stroke="black" d="M3920.88,-359.7C3920.88,-352.41 3920.88,-343.73 3920.88,-335.54"/>
<polygon fill="black" stroke="black" points="3924.38,-335.62 3920.88,-325.62 3917.38,-335.62 3924.38,-335.62"/>
</g>
<!-- 24&#45;&gt;27 -->
<g id="edge28" class="edge">
<title>24&#45;&gt;27</title>
<path fill="none" stroke="black" d="M4007,-359.8C4040.14,-351.41 4077.71,-339.68 4109.88,-324 4158.46,-300.32 4180.81,-298.78 4207.88,-252 4218.37,-233.87 4220.59,-210.18 4220.33,-191.8"/>
<polygon fill="black" stroke="black" points="4223.83,-191.68 4219.92,-181.84 4216.84,-191.97 4223.83,-191.68"/>
</g>
<!-- 25&#45;&gt;4 -->
<g id="edge31" class="edge">
<title>25&#45;&gt;4</title>
<path fill="none" stroke="black" d="M689.42,-647.97C651.32,-638.05 603.08,-625.5 563.13,-615.1"/>
<polygon fill="black" stroke="black" points="564.12,-611.74 553.56,-612.61 562.36,-618.52 564.12,-611.74"/>
</g>
<!-- 27&#45;&gt;13 -->
<g id="edge32" class="edge">
<title>27&#45;&gt;13</title>
<path fill="none" stroke="black" d="M4217.88,-143.7C4217.88,-136.41 4217.88,-127.73 4217.88,-119.54"/>
<polygon fill="black" stroke="black" points="4221.38,-119.62 4217.88,-109.62 4214.38,-119.62 4221.38,-119.62"/>
</g>
<!-- 28&#45;&gt;24 -->
<g id="edge33" class="edge">
<title>28&#45;&gt;24</title>
<path fill="none" stroke="black" d="M3916.36,-431.7C3916.98,-424.41 3917.73,-415.73 3918.43,-407.54"/>
<polygon fill="black" stroke="black" points="3921.91,-407.87 3919.28,-397.61 3914.94,-407.28 3921.91,-407.87"/>
</g>
<!-- 30&#45;&gt;11 -->
<g id="edge34" class="edge">
<title>30&#45;&gt;11</title>
<path fill="none" stroke="black" d="M1594.6,-647.7C1607.1,-638.95 1622.46,-628.19 1636.04,-618.69"/>
<polygon fill="black" stroke="black" points="1637.67,-621.82 1643.86,-613.21 1633.66,-616.08 1637.67,-621.82"/>
</g>
</g>
</svg>
