<?xml version="1.0" encoding="UTF-8" standalone="no"?>
<!DOCTYPE svg PUBLIC "-//W3C//DTD SVG 1.1//EN"
 "http://www.w3.org/Graphics/SVG/1.1/DTD/svg11.dtd">
<!-- Generated by graphviz version 12.2.1 (20241206.2353)
 -->
<!-- Title: G Pages: 1 -->
<svg width="2987pt" height="332pt"
 viewBox="0.00 0.00 2987.31 332.00" xmlns="http://www.w3.org/2000/svg" xmlns:xlink="http://www.w3.org/1999/xlink">
<g id="graph0" class="graph" transform="scale(1 1) rotate(0) translate(4 328)">
<title>G</title>
<polygon fill="white" stroke="none" points="-4,4 -4,-328 2983.31,-328 2983.31,4 -4,4"/>
<!-- 0 -->
<g id="node1" class="node">
<title>0</title>
<ellipse fill="none" stroke="black" cx="1396.23" cy="-306" rx="39.07" ry="18"/>
<text text-anchor="middle" x="1396.23" y="-300.95" font-family="Times New Roman,serif" font-size="14.00">START</text>
</g>
<!-- 1 -->
<g id="node2" class="node">
<title>1</title>
<ellipse fill="none" stroke="black" cx="1396.23" cy="-234" rx="29.86" ry="18"/>
<text text-anchor="middle" x="1396.23" y="-228.95" font-family="Times New Roman,serif" font-size="14.00">input</text>
</g>
<!-- 0&#45;&gt;1 -->
<g id="edge1" class="edge">
<title>0&#45;&gt;1</title>
<path fill="none" stroke="black" d="M1396.23,-287.7C1396.23,-280.41 1396.23,-271.73 1396.23,-263.54"/>
<polygon fill="black" stroke="black" points="1399.73,-263.62 1396.23,-253.62 1392.73,-263.62 1399.73,-263.62"/>
</g>
<!-- 3 -->
<g id="node4" class="node">
<title>3</title>
<ellipse fill="none" stroke="black" cx="1396.23" cy="-162" rx="618.43" ry="18"/>
<text text-anchor="middle" x="1396.23" y="-156.95" font-family="Times New Roman,serif" font-size="14.00">Volition: 嗯，这些是非常普通的裤子。不太紧，也不太松——从各种意义上讲都很适中。你可以很快融入愉快的晚宴中。</text>
</g>
<!-- 1&#45;&gt;3 -->
<g id="edge2" class="edge">
<title>1&#45;&gt;3</title>
<path fill="none" stroke="black" d="M1396.23,-215.7C1396.23,-208.41 1396.23,-199.73 1396.23,-191.54"/>
<polygon fill="black" stroke="black" points="1399.73,-191.62 1396.23,-181.62 1392.73,-191.62 1399.73,-191.62"/>
</g>
<!-- 2 -->
<g id="node3" class="node">
<title>2</title>
<ellipse fill="none" stroke="black" cx="2031.23" cy="-18" rx="329.78" ry="18"/>
<text text-anchor="middle" x="2031.23" y="-12.95" font-family="Times New Roman,serif" font-size="14.00">Composure: 有道理。穿上无聊的工装裤就会对你造成这种影响。</text>
</g>
<!-- 5 -->
<g id="node6" class="node">
<title>5</title>
<ellipse fill="none" stroke="black" cx="761.23" cy="-90" rx="761.23" ry="18"/>
<text text-anchor="middle" x="761.23" y="-84.95" font-family="Times New Roman,serif" font-size="14.00">Volition: 嗯，我知道你会的。这些跨洲裤就像是给你的股间穿上了一件完美的*妥协*。这样没人会叫国际道德伦理委员会来抓你，这一点是肯定的。</text>
</g>
<!-- 3&#45;&gt;5 -->
<g id="edge4" class="edge">
<title>3&#45;&gt;5</title>
<path fill="none" stroke="black" d="M1242.92,-144.1C1147.59,-133.59 1025.02,-120.08 927.37,-109.32"/>
<polygon fill="black" stroke="black" points="928.03,-105.87 917.7,-108.25 927.26,-112.82 928.03,-105.87"/>
</g>
<!-- 8 -->
<g id="node9" class="node">
<title>8</title>
<ellipse fill="none" stroke="black" cx="2031.23" cy="-90" rx="490.48" ry="18"/>
<text text-anchor="middle" x="2031.23" y="-84.95" font-family="Times New Roman,serif" font-size="14.00">Volition: 现在你变得更像个道德家了，伙计。变得更*正常*一些了。就算这不是你想要的结果。</text>
</g>
<!-- 3&#45;&gt;8 -->
<g id="edge3" class="edge">
<title>3&#45;&gt;8</title>
<path fill="none" stroke="black" d="M1549.54,-144.1C1646.28,-133.44 1771.08,-119.68 1869.41,-108.84"/>
<polygon fill="black" stroke="black" points="1869.6,-112.34 1879.16,-107.76 1868.83,-105.38 1869.6,-112.34"/>
</g>
<!-- 4 -->
<g id="node5" class="node">
<title>4</title>
<ellipse fill="none" stroke="black" cx="2506.23" cy="-306" rx="351.27" ry="18"/>
<text text-anchor="middle" x="2506.23" y="-300.95" font-family="Times New Roman,serif" font-size="14.00">You: 哎呀，对时尚还真是太失礼了！[放弃思维——还有这条裤子。]</text>
</g>
<!-- 7 -->
<g id="node8" class="node">
<title>7</title>
<ellipse fill="none" stroke="black" cx="2506.23" cy="-234" rx="172.65" ry="18"/>
<text text-anchor="middle" x="2506.23" y="-228.95" font-family="Times New Roman,serif" font-size="14.00">You: 我喜欢普通又寻常的东西。</text>
</g>
<!-- 4&#45;&gt;7 -->
<g id="edge5" class="edge">
<title>4&#45;&gt;7</title>
<path fill="none" stroke="black" d="M2506.23,-287.7C2506.23,-280.41 2506.23,-271.73 2506.23,-263.54"/>
<polygon fill="black" stroke="black" points="2509.73,-263.62 2506.23,-253.62 2502.73,-263.62 2509.73,-263.62"/>
</g>
<!-- 9 -->
<g id="node10" class="node">
<title>9</title>
<ellipse fill="none" stroke="black" cx="761.23" cy="-18" rx="27" ry="18"/>
<text text-anchor="middle" x="761.23" y="-12.95" font-family="Times New Roman,serif" font-size="14.00">9</text>
</g>
<!-- 5&#45;&gt;9 -->
<g id="edge6" class="edge">
<title>5&#45;&gt;9</title>
<path fill="none" stroke="black" d="M761.23,-71.7C761.23,-64.41 761.23,-55.73 761.23,-47.54"/>
<polygon fill="black" stroke="black" points="764.73,-47.62 761.23,-37.62 757.73,-47.62 764.73,-47.62"/>
</g>
<!-- 6 -->
<g id="node7" class="node">
<title>6</title>
<ellipse fill="none" stroke="black" cx="2506.23" cy="-162" rx="473.08" ry="18"/>
<text text-anchor="middle" x="2506.23" y="-156.95" font-family="Times New Roman,serif" font-size="14.00">Volition: 希望没人看见你穿着这条普通地相当凶残——几乎可以说像个道德家！——的裤子。</text>
</g>
<!-- 7&#45;&gt;6 -->
<g id="edge7" class="edge">
<title>7&#45;&gt;6</title>
<path fill="none" stroke="black" d="M2506.23,-215.7C2506.23,-208.41 2506.23,-199.73 2506.23,-191.54"/>
<polygon fill="black" stroke="black" points="2509.73,-191.62 2506.23,-181.62 2502.73,-191.62 2509.73,-191.62"/>
</g>
<!-- 8&#45;&gt;2 -->
<g id="edge8" class="edge">
<title>8&#45;&gt;2</title>
<path fill="none" stroke="black" d="M2031.23,-71.7C2031.23,-64.41 2031.23,-55.73 2031.23,-47.54"/>
<polygon fill="black" stroke="black" points="2034.73,-47.62 2031.23,-37.62 2027.73,-47.62 2034.73,-47.62"/>
</g>
</g>
</svg>
