<?xml version="1.0" encoding="UTF-8" standalone="no"?>
<!DOCTYPE svg PUBLIC "-//W3C//DTD SVG 1.1//EN"
 "http://www.w3.org/Graphics/SVG/1.1/DTD/svg11.dtd">
<!-- Generated by graphviz version 12.2.1 (20241206.2353)
 -->
<!-- Title: G Pages: 1 -->
<svg width="485pt" height="116pt"
 viewBox="0.00 0.00 485.35 116.00" xmlns="http://www.w3.org/2000/svg" xmlns:xlink="http://www.w3.org/1999/xlink">
<g id="graph0" class="graph" transform="scale(1 1) rotate(0) translate(4 112)">
<title>G</title>
<polygon fill="white" stroke="none" points="-4,4 -4,-112 481.35,-112 481.35,4 -4,4"/>
<!-- 0 -->
<g id="node1" class="node">
<title>0</title>
<ellipse fill="none" stroke="black" cx="133.67" cy="-90" rx="39.07" ry="18"/>
<text text-anchor="middle" x="133.67" y="-84.95" font-family="Times New Roman,serif" font-size="14.00">START</text>
</g>
<!-- 0&#45;&gt;0 -->
<g id="edge1" class="edge">
<title>0&#45;&gt;0</title>
<path fill="none" stroke="black" d="M161.86,-102.94C176.97,-105.14 190.74,-100.83 190.74,-90 190.74,-81.96 183.16,-77.52 173.07,-76.65"/>
<polygon fill="black" stroke="black" points="173.24,-73.15 163.37,-77 173.49,-80.14 173.24,-73.15"/>
</g>
<!-- 1 -->
<g id="node2" class="node">
<title>1</title>
<ellipse fill="none" stroke="black" cx="238.67" cy="-90" rx="29.86" ry="18"/>
<text text-anchor="middle" x="238.67" y="-84.95" font-family="Times New Roman,serif" font-size="14.00">input</text>
</g>
<!-- 2 -->
<g id="node3" class="node">
<title>2</title>
<ellipse fill="none" stroke="black" cx="238.67" cy="-18" rx="238.67" ry="18"/>
<text text-anchor="middle" x="238.67" y="-12.95" font-family="Times New Roman,serif" font-size="14.00">Kim Kitsuragi: “看起来像是一栋废弃的建筑……”</text>
</g>
<!-- 1&#45;&gt;2 -->
<g id="edge2" class="edge">
<title>1&#45;&gt;2</title>
<path fill="none" stroke="black" d="M238.67,-71.7C238.67,-64.41 238.67,-55.73 238.67,-47.54"/>
<polygon fill="black" stroke="black" points="242.17,-47.62 238.67,-37.62 235.17,-47.62 242.17,-47.62"/>
</g>
</g>
</svg>
