<?xml version="1.0" encoding="UTF-8" standalone="no"?>
<!DOCTYPE svg PUBLIC "-//W3C//DTD SVG 1.1//EN"
 "http://www.w3.org/Graphics/SVG/1.1/DTD/svg11.dtd">
<!-- Generated by graphviz version 12.2.1 (20241206.2353)
 -->
<!-- Title: G Pages: 1 -->
<svg width="5090pt" height="836pt"
 viewBox="0.00 0.00 5090.06 836.00" xmlns="http://www.w3.org/2000/svg" xmlns:xlink="http://www.w3.org/1999/xlink">
<g id="graph0" class="graph" transform="scale(1 1) rotate(0) translate(4 832)">
<title>G</title>
<polygon fill="white" stroke="none" points="-4,4 -4,-832 5086.06,-832 5086.06,4 -4,4"/>
<!-- 0 -->
<g id="node1" class="node">
<title>0</title>
<ellipse fill="none" stroke="black" cx="607.62" cy="-810" rx="39.07" ry="18"/>
<text text-anchor="middle" x="607.62" y="-804.95" font-family="Times New Roman,serif" font-size="14.00">START</text>
</g>
<!-- 1 -->
<g id="node2" class="node">
<title>1</title>
<ellipse fill="none" stroke="black" cx="607.62" cy="-738" rx="29.86" ry="18"/>
<text text-anchor="middle" x="607.62" y="-732.95" font-family="Times New Roman,serif" font-size="14.00">input</text>
</g>
<!-- 0&#45;&gt;1 -->
<g id="edge1" class="edge">
<title>0&#45;&gt;1</title>
<path fill="none" stroke="black" d="M607.62,-791.7C607.62,-784.41 607.62,-775.73 607.62,-767.54"/>
<polygon fill="black" stroke="black" points="611.12,-767.62 607.62,-757.62 604.12,-767.62 611.12,-767.62"/>
</g>
<!-- 2 -->
<g id="node3" class="node">
<title>2</title>
<ellipse fill="none" stroke="black" cx="607.62" cy="-666" rx="548.32" ry="18"/>
<text text-anchor="middle" x="607.62" y="-660.95" font-family="Times New Roman,serif" font-size="14.00">Inland Empire: 只是一把红椅子。一个空旷棚屋里的红椅子——屋里的架子上像是放着一条灰尘扑扑的领带。</text>
</g>
<!-- 1&#45;&gt;2 -->
<g id="edge2" class="edge">
<title>1&#45;&gt;2</title>
<path fill="none" stroke="black" d="M607.62,-719.7C607.62,-712.41 607.62,-703.73 607.62,-695.54"/>
<polygon fill="black" stroke="black" points="611.12,-695.62 607.62,-685.62 604.12,-695.62 611.12,-695.62"/>
</g>
<!-- 13 -->
<g id="node14" class="node">
<title>13</title>
<ellipse fill="none" stroke="black" cx="320.62" cy="-594" rx="96.39" ry="18"/>
<text text-anchor="middle" x="320.62" y="-588.95" font-family="Times New Roman,serif" font-size="14.00">You: [放弃思维。]</text>
</g>
<!-- 2&#45;&gt;13 -->
<g id="edge5" class="edge">
<title>2&#45;&gt;13</title>
<path fill="none" stroke="black" d="M536.67,-647.7C491.53,-636.69 433.39,-622.51 388.79,-611.63"/>
<polygon fill="black" stroke="black" points="389.78,-608.27 379.23,-609.3 388.12,-615.07 389.78,-608.27"/>
</g>
<!-- 16 -->
<g id="node17" class="node">
<title>16</title>
<ellipse fill="none" stroke="black" cx="607.62" cy="-594" rx="172.65" ry="18"/>
<text text-anchor="middle" x="607.62" y="-588.95" font-family="Times New Roman,serif" font-size="14.00">You: 听起来我们需要调查一下。</text>
</g>
<!-- 2&#45;&gt;16 -->
<g id="edge3" class="edge">
<title>2&#45;&gt;16</title>
<path fill="none" stroke="black" d="M607.62,-647.7C607.62,-640.41 607.62,-631.73 607.62,-623.54"/>
<polygon fill="black" stroke="black" points="611.12,-623.62 607.62,-613.62 604.12,-623.62 611.12,-623.62"/>
</g>
<!-- 19 -->
<g id="node20" class="node">
<title>19</title>
<ellipse fill="none" stroke="black" cx="1225.62" cy="-594" rx="169.07" ry="18"/>
<text text-anchor="middle" x="1225.62" y="-588.95" font-family="Times New Roman,serif" font-size="14.00">You: “喂，金，我们这是在哪？”</text>
</g>
<!-- 2&#45;&gt;19 -->
<g id="edge4" class="edge">
<title>2&#45;&gt;19</title>
<path fill="none" stroke="black" d="M755.64,-648.23C861.2,-636.28 1001.53,-620.38 1101.3,-609.08"/>
<polygon fill="black" stroke="black" points="1101.6,-612.57 1111.14,-607.97 1100.81,-605.61 1101.6,-612.57"/>
</g>
<!-- 3 -->
<g id="node4" class="node">
<title>3</title>
<ellipse fill="none" stroke="black" cx="3687.62" cy="-378" rx="115.33" ry="18"/>
<text text-anchor="middle" x="3687.62" y="-372.95" font-family="Times New Roman,serif" font-size="14.00">CheckEquipped(&quot;neck_tie&quot;)</text>
</g>
<!-- 4 -->
<g id="node5" class="node">
<title>4</title>
<polygon fill="none" stroke="black" points="4059.62,-324 3896.52,-306 4059.62,-288 4222.71,-306 4059.62,-324"/>
<text text-anchor="middle" x="4059.62" y="-300.95" font-family="Times New Roman,serif" font-size="14.00">CheckEquipped(&quot;neck_tie&quot;)</text>
</g>
<!-- 3&#45;&gt;4 -->
<g id="edge6" class="edge">
<title>3&#45;&gt;4</title>
<path fill="none" stroke="black" d="M3759.34,-363.5C3825.9,-350.98 3924.34,-332.45 3990.16,-320.07"/>
<polygon fill="black" stroke="black" points="3990.58,-323.55 3999.76,-318.26 3989.29,-316.67 3990.58,-323.55"/>
</g>
<!-- 5 -->
<g id="node6" class="node">
<title>5</title>
<polygon fill="none" stroke="black" points="3601.62,-324 3425.49,-306 3601.62,-288 3777.74,-306 3601.62,-324"/>
<text text-anchor="middle" x="3601.62" y="-300.95" font-family="Times New Roman,serif" font-size="14.00">!(CheckEquipped(&quot;neck_tie&quot;))</text>
</g>
<!-- 3&#45;&gt;5 -->
<g id="edge7" class="edge">
<title>3&#45;&gt;5</title>
<path fill="none" stroke="black" d="M3666.8,-360.05C3655.55,-350.9 3641.51,-339.47 3629.34,-329.57"/>
<polygon fill="black" stroke="black" points="3631.62,-326.91 3621.66,-323.31 3627.2,-332.34 3631.62,-326.91"/>
</g>
<!-- 35 -->
<g id="node36" class="node">
<title>35</title>
<ellipse fill="none" stroke="black" cx="4246.62" cy="-234" rx="835.44" ry="18"/>
<text text-anchor="middle" x="4246.62" y="-228.95" font-family="Times New Roman,serif" font-size="14.00">Horrific Necktie: 你就因为那坨屎把*我*取下来？你他妈是白痴吧！马上给我把那条可怕的领带戴回去——不然你会错过最终决战的。最后警告你一次。把我戴回去。</text>
</g>
<!-- 4&#45;&gt;35 -->
<g id="edge8" class="edge">
<title>4&#45;&gt;35</title>
<path fill="none" stroke="black" d="M4095.67,-291.5C4122.26,-281.55 4158.95,-267.82 4189.51,-256.38"/>
<polygon fill="black" stroke="black" points="4190.48,-259.75 4198.61,-252.97 4188.02,-253.2 4190.48,-259.75"/>
</g>
<!-- 36 -->
<g id="node37" class="node">
<title>36</title>
<ellipse fill="none" stroke="black" cx="3366.62" cy="-234" rx="27" ry="18"/>
<text text-anchor="middle" x="3366.62" y="-228.95" font-family="Times New Roman,serif" font-size="14.00">36</text>
</g>
<!-- 5&#45;&gt;36 -->
<g id="edge9" class="edge">
<title>5&#45;&gt;36</title>
<path fill="none" stroke="black" d="M3546.74,-293.21C3506.31,-283.84 3450.3,-269.44 3402.62,-252 3401.08,-251.44 3399.51,-250.83 3397.94,-250.2"/>
<polygon fill="black" stroke="black" points="3399.62,-247.11 3389.05,-246.32 3396.82,-253.53 3399.62,-247.11"/>
</g>
<!-- 6 -->
<g id="node7" class="node">
<title>6</title>
<ellipse fill="none" stroke="black" cx="2833.62" cy="-18" rx="98.95" ry="18"/>
<text text-anchor="middle" x="2833.62" y="-12.95" font-family="Times New Roman,serif" font-size="14.00">Jump to: [Untitled hub]</text>
</g>
<!-- 18 -->
<g id="node19" class="node">
<title>18</title>
<ellipse fill="none" stroke="black" cx="1354.62" cy="-378" rx="57.49" ry="18"/>
<text text-anchor="middle" x="1354.62" y="-372.95" font-family="Times New Roman,serif" font-size="14.00">Untitled hub</text>
</g>
<!-- 6&#45;&gt;18 -->
<g id="edge10" class="edge">
<title>6&#45;&gt;18</title>
<path fill="none" stroke="black" d="M2736.37,-21.85C2473.71,-30.84 1769.62,-63.98 1769.62,-161 1769.62,-235 1769.62,-235 1769.62,-235 1769.62,-294.17 1723.91,-298.31 1670.62,-324 1591.51,-362.14 1489.8,-373.39 1423.45,-376.42"/>
<polygon fill="black" stroke="black" points="1423.66,-372.91 1413.81,-376.8 1423.94,-379.9 1423.66,-372.91"/>
</g>
<!-- 7 -->
<g id="node8" class="node">
<title>7</title>
<ellipse fill="none" stroke="black" cx="2638.62" cy="-162" rx="290.37" ry="18"/>
<text text-anchor="middle" x="2638.62" y="-156.95" font-family="Times New Roman,serif" font-size="14.00">Half Light: 你的领带听起来很吓人。永远别把它取下来。</text>
</g>
<!-- 14 -->
<g id="node15" class="node">
<title>14</title>
<ellipse fill="none" stroke="black" cx="2833.62" cy="-90" rx="352.29" ry="18"/>
<text text-anchor="middle" x="2833.62" y="-84.95" font-family="Times New Roman,serif" font-size="14.00">Inland Empire: 没错。我同意。你不应该把领带取下来，永远也不要。</text>
</g>
<!-- 7&#45;&gt;14 -->
<g id="edge11" class="edge">
<title>7&#45;&gt;14</title>
<path fill="none" stroke="black" d="M2686.32,-143.88C2713.01,-134.29 2746.52,-122.27 2774.82,-112.11"/>
<polygon fill="black" stroke="black" points="2775.74,-115.5 2783.97,-108.82 2773.37,-108.91 2775.74,-115.5"/>
</g>
<!-- 8 -->
<g id="node9" class="node">
<title>8</title>
<ellipse fill="none" stroke="black" cx="478.62" cy="-450" rx="356.9" ry="18"/>
<text text-anchor="middle" x="478.62" y="-444.95" font-family="Times New Roman,serif" font-size="14.00">Half Light: 你突然有点害怕这张椅子。看起来像有鲜血从上面滑落……</text>
</g>
<!-- 9 -->
<g id="node10" class="node">
<title>9</title>
<ellipse fill="none" stroke="black" cx="3500.62" cy="-522" rx="162.41" ry="18"/>
<text text-anchor="middle" x="3500.62" y="-516.95" font-family="Times New Roman,serif" font-size="14.00">Variable[&quot;whirling.necktie_personified&quot;]</text>
</g>
<!-- 10 -->
<g id="node11" class="node">
<title>10</title>
<polygon fill="none" stroke="black" points="3658.62,-468 3428.93,-450 3658.62,-432 3888.3,-450 3658.62,-468"/>
<text text-anchor="middle" x="3658.62" y="-444.95" font-family="Times New Roman,serif" font-size="14.00">Variable[&quot;whirling.necktie_personified&quot;]</text>
</g>
<!-- 9&#45;&gt;10 -->
<g id="edge12" class="edge">
<title>9&#45;&gt;10</title>
<path fill="none" stroke="black" d="M3538.86,-504.05C3561.86,-493.87 3591.19,-480.87 3615.07,-470.29"/>
<polygon fill="black" stroke="black" points="3616.17,-473.64 3623.89,-466.38 3613.33,-467.24 3616.17,-473.64"/>
</g>
<!-- 11 -->
<g id="node12" class="node">
<title>11</title>
<polygon fill="none" stroke="black" points="3311.62,-396 3068.9,-378 3311.62,-360 3554.33,-378 3311.62,-396"/>
<text text-anchor="middle" x="3311.62" y="-372.95" font-family="Times New Roman,serif" font-size="14.00">!(Variable[&quot;whirling.necktie_personified&quot;])</text>
</g>
<!-- 9&#45;&gt;11 -->
<g id="edge13" class="edge">
<title>9&#45;&gt;11</title>
<path fill="none" stroke="black" d="M3472.74,-503.82C3456.88,-493.79 3436.81,-480.65 3419.62,-468 3391.02,-446.96 3359.88,-420.94 3338.42,-402.48"/>
<polygon fill="black" stroke="black" points="3340.85,-399.96 3331,-396.06 3336.27,-405.25 3340.85,-399.96"/>
</g>
<!-- 10&#45;&gt;3 -->
<g id="edge14" class="edge">
<title>10&#45;&gt;3</title>
<path fill="none" stroke="black" d="M3665.64,-432.05C3668.8,-424.43 3672.61,-415.23 3676.16,-406.65"/>
<polygon fill="black" stroke="black" points="3679.29,-408.25 3679.88,-397.67 3672.82,-405.57 3679.29,-408.25"/>
</g>
<!-- 11&#45;&gt;6 -->
<g id="edge15" class="edge">
<title>11&#45;&gt;6</title>
<path fill="none" stroke="black" d="M3311.62,-359.51C3311.62,-332.71 3311.62,-279.87 3311.62,-235 3311.62,-235 3311.62,-235 3311.62,-161 3311.62,-95.67 3254.84,-97.32 3194.62,-72 3114.64,-38.37 3016.9,-25.55 2943.3,-20.91"/>
<polygon fill="black" stroke="black" points="2943.86,-17.43 2933.68,-20.34 2943.45,-24.42 2943.86,-17.43"/>
</g>
<!-- 12 -->
<g id="node13" class="node">
<title>12</title>
<ellipse fill="none" stroke="black" cx="1354.62" cy="-306" rx="169.07" ry="18"/>
<text text-anchor="middle" x="1354.62" y="-300.95" font-family="Times New Roman,serif" font-size="14.00">You: “这把红椅子是怎么回事？”</text>
</g>
<!-- 30 -->
<g id="node31" class="node">
<title>30</title>
<ellipse fill="none" stroke="black" cx="1354.62" cy="-234" rx="348.71" ry="18"/>
<text text-anchor="middle" x="1354.62" y="-228.95" font-family="Times New Roman,serif" font-size="14.00">Kim Kitsuragi: “没什么。只是一件家具。”他看着椅子上堆积的灰尘。</text>
</g>
<!-- 12&#45;&gt;30 -->
<g id="edge16" class="edge">
<title>12&#45;&gt;30</title>
<path fill="none" stroke="black" d="M1354.62,-287.7C1354.62,-280.41 1354.62,-271.73 1354.62,-263.54"/>
<polygon fill="black" stroke="black" points="1358.12,-263.62 1354.62,-253.62 1351.12,-263.62 1358.12,-263.62"/>
</g>
<!-- 14&#45;&gt;6 -->
<g id="edge17" class="edge">
<title>14&#45;&gt;6</title>
<path fill="none" stroke="black" d="M2833.62,-71.7C2833.62,-64.41 2833.62,-55.73 2833.62,-47.54"/>
<polygon fill="black" stroke="black" points="2837.12,-47.62 2833.62,-37.62 2830.12,-47.62 2837.12,-47.62"/>
</g>
<!-- 15 -->
<g id="node16" class="node">
<title>15</title>
<ellipse fill="none" stroke="black" cx="1364.62" cy="-162" rx="328.75" ry="18"/>
<text text-anchor="middle" x="1364.62" y="-156.95" font-family="Times New Roman,serif" font-size="14.00">Inland Empire: 红色的油漆从上面剥落。看起来像鲜血，不是吗？</text>
</g>
<!-- 21 -->
<g id="node22" class="node">
<title>21</title>
<ellipse fill="none" stroke="black" cx="1503.62" cy="-90" rx="98.95" ry="18"/>
<text text-anchor="middle" x="1503.62" y="-84.95" font-family="Times New Roman,serif" font-size="14.00">Jump to: [Untitled hub]</text>
</g>
<!-- 15&#45;&gt;21 -->
<g id="edge18" class="edge">
<title>15&#45;&gt;21</title>
<path fill="none" stroke="black" d="M1398.98,-143.7C1417.73,-134.25 1441.13,-122.47 1461.04,-112.44"/>
<polygon fill="black" stroke="black" points="1462.38,-115.69 1469.73,-108.06 1459.23,-109.44 1462.38,-115.69"/>
</g>
<!-- 32 -->
<g id="node33" class="node">
<title>32</title>
<ellipse fill="none" stroke="black" cx="478.62" cy="-522" rx="434.7" ry="18"/>
<text text-anchor="middle" x="478.62" y="-516.95" font-family="Times New Roman,serif" font-size="14.00">Inland Empire: 调查这把血红色的椅子？你还是放着它别管了，哈里。你必须这么做。</text>
</g>
<!-- 16&#45;&gt;32 -->
<g id="edge19" class="edge">
<title>16&#45;&gt;32</title>
<path fill="none" stroke="black" d="M576.06,-575.88C559.4,-566.83 538.72,-555.62 520.71,-545.84"/>
<polygon fill="black" stroke="black" points="522.53,-542.85 512.07,-541.16 519.19,-549 522.53,-542.85"/>
</g>
<!-- 17 -->
<g id="node18" class="node">
<title>17</title>
<ellipse fill="none" stroke="black" cx="1354.62" cy="-522" rx="423.44" ry="18"/>
<text text-anchor="middle" x="1354.62" y="-516.95" font-family="Times New Roman,serif" font-size="14.00">Kim Kitsuragi: “在某人废弃的棚屋里。海岸边。马丁内斯……”他看着你。“瑞瓦肖。”</text>
</g>
<!-- 27 -->
<g id="node28" class="node">
<title>27</title>
<ellipse fill="none" stroke="black" cx="1354.62" cy="-450" rx="165.48" ry="18"/>
<text text-anchor="middle" x="1354.62" y="-444.95" font-family="Times New Roman,serif" font-size="14.00">Rhetoric: 他害怕你会突然忘记。</text>
</g>
<!-- 17&#45;&gt;27 -->
<g id="edge20" class="edge">
<title>17&#45;&gt;27</title>
<path fill="none" stroke="black" d="M1354.62,-503.7C1354.62,-496.41 1354.62,-487.73 1354.62,-479.54"/>
<polygon fill="black" stroke="black" points="1358.12,-479.62 1354.62,-469.62 1351.12,-479.62 1358.12,-479.62"/>
</g>
<!-- 18&#45;&gt;12 -->
<g id="edge21" class="edge">
<title>18&#45;&gt;12</title>
<path fill="none" stroke="black" d="M1354.62,-359.7C1354.62,-352.41 1354.62,-343.73 1354.62,-335.54"/>
<polygon fill="black" stroke="black" points="1358.12,-335.62 1354.62,-325.62 1351.12,-335.62 1358.12,-335.62"/>
</g>
<!-- 20 -->
<g id="node21" class="node">
<title>20</title>
<ellipse fill="none" stroke="black" cx="2294.62" cy="-306" rx="251.47" ry="18"/>
<text text-anchor="middle" x="2294.62" y="-300.95" font-family="Times New Roman,serif" font-size="14.00">You: “这条红领带是怎么回事？”（拿给他看。）</text>
</g>
<!-- 18&#45;&gt;20 -->
<g id="edge22" class="edge">
<title>18&#45;&gt;20</title>
<path fill="none" stroke="black" d="M1410.26,-372.86C1545.64,-362.77 1897.03,-336.61 2113.92,-320.46"/>
<polygon fill="black" stroke="black" points="2113.88,-323.97 2123.6,-319.74 2113.36,-316.99 2113.88,-323.97"/>
</g>
<!-- 22 -->
<g id="node23" class="node">
<title>22</title>
<ellipse fill="none" stroke="black" cx="745.62" cy="-306" rx="204.38" ry="18"/>
<text text-anchor="middle" x="745.62" y="-300.95" font-family="Times New Roman,serif" font-size="14.00">You: “我们的嫌疑人会不会待在这里？”</text>
</g>
<!-- 18&#45;&gt;22 -->
<g id="edge23" class="edge">
<title>18&#45;&gt;22</title>
<path fill="none" stroke="black" d="M1301.37,-370.88C1207.6,-360.1 1010.39,-337.43 877.93,-322.21"/>
<polygon fill="black" stroke="black" points="878.35,-318.73 868.02,-321.07 877.55,-325.69 878.35,-318.73"/>
</g>
<!-- 31 -->
<g id="node32" class="node">
<title>31</title>
<ellipse fill="none" stroke="black" cx="336.62" cy="-306" rx="186.98" ry="18"/>
<text text-anchor="middle" x="336.62" y="-300.95" font-family="Times New Roman,serif" font-size="14.00">You: “好吧。我们走。”[完成思维。]</text>
</g>
<!-- 18&#45;&gt;31 -->
<g id="edge24" class="edge">
<title>18&#45;&gt;31</title>
<path fill="none" stroke="black" d="M1298.28,-373.8C1165.08,-366.13 820.31,-345.75 532.62,-324 515.99,-322.74 498.58,-321.35 481.29,-319.91"/>
<polygon fill="black" stroke="black" points="481.72,-316.44 471.46,-319.09 481.14,-323.41 481.72,-316.44"/>
</g>
<!-- 19&#45;&gt;17 -->
<g id="edge25" class="edge">
<title>19&#45;&gt;17</title>
<path fill="none" stroke="black" d="M1257.17,-575.88C1273.84,-566.83 1294.51,-555.62 1312.52,-545.84"/>
<polygon fill="black" stroke="black" points="1314.04,-549 1321.16,-541.16 1310.7,-542.85 1314.04,-549"/>
</g>
<!-- 34 -->
<g id="node35" class="node">
<title>34</title>
<ellipse fill="none" stroke="black" cx="2540.62" cy="-234" rx="742.8" ry="18"/>
<text text-anchor="middle" x="2540.62" y="-228.95" font-family="Times New Roman,serif" font-size="14.00">Horrific Necktie: 你他妈最好别想着因为那条劣质又肮脏的领带甩开我。你和我正在为*最终决战*做准备，而且一定会*盛况空前*。你等着看好吧。</text>
</g>
<!-- 20&#45;&gt;34 -->
<g id="edge26" class="edge">
<title>20&#45;&gt;34</title>
<path fill="none" stroke="black" d="M2354.17,-288.05C2388.57,-278.26 2432.1,-265.88 2468.45,-255.54"/>
<polygon fill="black" stroke="black" points="2469.36,-258.92 2478.02,-252.81 2467.44,-252.18 2469.36,-258.92"/>
</g>
<!-- 21&#45;&gt;18 -->
<g id="edge27" class="edge">
<title>21&#45;&gt;18</title>
<path fill="none" stroke="black" d="M1578.43,-102.14C1627.66,-111.06 1685.98,-125.19 1702.62,-144 1713.11,-155.86 1725.51,-232.96 1712.62,-252 1648.93,-346.07 1508.43,-370.12 1423.61,-375.8"/>
<polygon fill="black" stroke="black" points="1423.57,-372.3 1413.79,-376.38 1423.98,-379.28 1423.57,-372.3"/>
</g>
<!-- 25 -->
<g id="node26" class="node">
<title>25</title>
<ellipse fill="none" stroke="black" cx="474.62" cy="-234" rx="474.62" ry="18"/>
<text text-anchor="middle" x="474.62" y="-228.95" font-family="Times New Roman,serif" font-size="14.00">Kim Kitsuragi: “这里？”他看了看周围。“我没看见最近有人居住过的痕迹。这里已经废弃了。”</text>
</g>
<!-- 22&#45;&gt;25 -->
<g id="edge28" class="edge">
<title>22&#45;&gt;25</title>
<path fill="none" stroke="black" d="M681.74,-288.5C643.03,-278.5 593.39,-265.68 552.41,-255.09"/>
<polygon fill="black" stroke="black" points="553.4,-251.73 542.84,-252.62 551.65,-258.51 553.4,-251.73"/>
</g>
<!-- 23 -->
<g id="node24" class="node">
<title>23</title>
<ellipse fill="none" stroke="black" cx="3500.62" cy="-666" rx="261.7" ry="18"/>
<text text-anchor="middle" x="3500.62" y="-660.95" font-family="Times New Roman,serif" font-size="14.00">Empathy: 他听起来有些担心。这是个奇怪的习惯。</text>
</g>
<!-- 26 -->
<g id="node27" class="node">
<title>26</title>
<ellipse fill="none" stroke="black" cx="3500.62" cy="-594" rx="247.37" ry="18"/>
<text text-anchor="middle" x="3500.62" y="-588.95" font-family="Times New Roman,serif" font-size="14.00">Composure: 别担心，警督。衣服是有益健康的。</text>
</g>
<!-- 23&#45;&gt;26 -->
<g id="edge29" class="edge">
<title>23&#45;&gt;26</title>
<path fill="none" stroke="black" d="M3500.62,-647.7C3500.62,-640.41 3500.62,-631.73 3500.62,-623.54"/>
<polygon fill="black" stroke="black" points="3504.12,-623.62 3500.62,-613.62 3497.12,-623.62 3504.12,-623.62"/>
</g>
<!-- 24 -->
<g id="node25" class="node">
<title>24</title>
<ellipse fill="none" stroke="black" cx="824.62" cy="-90" rx="98.95" ry="18"/>
<text text-anchor="middle" x="824.62" y="-84.95" font-family="Times New Roman,serif" font-size="14.00">Jump to: [Untitled hub]</text>
</g>
<!-- 24&#45;&gt;18 -->
<g id="edge30" class="edge">
<title>24&#45;&gt;18</title>
<path fill="none" stroke="black" d="M842.86,-107.94C868.69,-131.93 917.36,-177.21 958.62,-216 975.57,-231.93 977.02,-239.46 996.62,-252 1069.18,-298.46 1095.24,-295.68 1176.62,-324 1218.15,-338.46 1265.95,-352.55 1301.56,-362.57"/>
<polygon fill="black" stroke="black" points="1300.16,-365.81 1310.73,-365.14 1302.05,-359.07 1300.16,-365.81"/>
</g>
<!-- 29 -->
<g id="node30" class="node">
<title>29</title>
<ellipse fill="none" stroke="black" cx="573.62" cy="-162" rx="278.08" ry="18"/>
<text text-anchor="middle" x="573.62" y="-156.95" font-family="Times New Roman,serif" font-size="14.00">Suggestion: 看见没？他也不喜欢这把红椅子的*波动*。</text>
</g>
<!-- 25&#45;&gt;29 -->
<g id="edge31" class="edge">
<title>25&#45;&gt;29</title>
<path fill="none" stroke="black" d="M499.09,-215.7C511.34,-207.03 526.38,-196.4 539.73,-186.96"/>
<polygon fill="black" stroke="black" points="541.7,-189.85 547.85,-181.22 537.66,-184.14 541.7,-189.85"/>
</g>
<!-- 26&#45;&gt;9 -->
<g id="edge32" class="edge">
<title>26&#45;&gt;9</title>
<path fill="none" stroke="black" d="M3500.62,-575.7C3500.62,-568.41 3500.62,-559.73 3500.62,-551.54"/>
<polygon fill="black" stroke="black" points="3504.12,-551.62 3500.62,-541.62 3497.12,-551.62 3504.12,-551.62"/>
</g>
<!-- 27&#45;&gt;18 -->
<g id="edge33" class="edge">
<title>27&#45;&gt;18</title>
<path fill="none" stroke="black" d="M1354.62,-431.7C1354.62,-424.41 1354.62,-415.73 1354.62,-407.54"/>
<polygon fill="black" stroke="black" points="1358.12,-407.62 1354.62,-397.62 1351.12,-407.62 1358.12,-407.62"/>
</g>
<!-- 28 -->
<g id="node29" class="node">
<title>28</title>
<ellipse fill="none" stroke="black" cx="3979.62" cy="-162" rx="372.77" ry="18"/>
<text text-anchor="middle" x="3979.62" y="-156.95" font-family="Times New Roman,serif" font-size="14.00">Half Light: 你的领带听起来很吓人。不戴好像不太安全，还是戴回去吧。</text>
</g>
<!-- 28&#45;&gt;14 -->
<g id="edge34" class="edge">
<title>28&#45;&gt;14</title>
<path fill="none" stroke="black" d="M3754.57,-147.25C3555.45,-135.09 3266.1,-117.42 3065.07,-105.14"/>
<polygon fill="black" stroke="black" points="3065.47,-101.66 3055.28,-104.54 3065.04,-108.64 3065.47,-101.66"/>
</g>
<!-- 29&#45;&gt;24 -->
<g id="edge35" class="edge">
<title>29&#45;&gt;24</title>
<path fill="none" stroke="black" d="M634.7,-143.97C673.16,-133.24 722.71,-119.42 761.55,-108.59"/>
<polygon fill="black" stroke="black" points="762.05,-112.08 770.74,-106.03 760.17,-105.34 762.05,-112.08"/>
</g>
<!-- 30&#45;&gt;15 -->
<g id="edge36" class="edge">
<title>30&#45;&gt;15</title>
<path fill="none" stroke="black" d="M1357.09,-215.7C1358.14,-208.32 1359.4,-199.52 1360.58,-191.25"/>
<polygon fill="black" stroke="black" points="1364.01,-192 1361.96,-181.6 1357.08,-191.01 1364.01,-192"/>
</g>
<!-- 32&#45;&gt;8 -->
<g id="edge37" class="edge">
<title>32&#45;&gt;8</title>
<path fill="none" stroke="black" d="M478.62,-503.7C478.62,-496.41 478.62,-487.73 478.62,-479.54"/>
<polygon fill="black" stroke="black" points="482.12,-479.62 478.62,-469.62 475.12,-479.62 482.12,-479.62"/>
</g>
<!-- 33 -->
<g id="node34" class="node">
<title>33</title>
<ellipse fill="none" stroke="black" cx="3500.62" cy="-738" rx="450.56" ry="18"/>
<text text-anchor="middle" x="3500.62" y="-732.95" font-family="Times New Roman,serif" font-size="14.00">Kim Kitsuragi: “只是你捡到的一件衣物。你是会这么做，警官——有时候你会收集衣服。”</text>
</g>
<!-- 33&#45;&gt;23 -->
<g id="edge38" class="edge">
<title>33&#45;&gt;23</title>
<path fill="none" stroke="black" d="M3500.62,-719.7C3500.62,-712.41 3500.62,-703.73 3500.62,-695.54"/>
<polygon fill="black" stroke="black" points="3504.12,-695.62 3500.62,-685.62 3497.12,-695.62 3504.12,-695.62"/>
</g>
<!-- 34&#45;&gt;7 -->
<g id="edge39" class="edge">
<title>34&#45;&gt;7</title>
<path fill="none" stroke="black" d="M2565.09,-215.52C2577.23,-206.85 2592.07,-196.25 2605.23,-186.85"/>
<polygon fill="black" stroke="black" points="2607.12,-189.8 2613.22,-181.14 2603.05,-184.1 2607.12,-189.8"/>
</g>
<!-- 35&#45;&gt;28 -->
<g id="edge40" class="edge">
<title>35&#45;&gt;28</title>
<path fill="none" stroke="black" d="M4180.27,-215.61C4142.66,-205.75 4095.43,-193.36 4056.24,-183.09"/>
<polygon fill="black" stroke="black" points="4057.18,-179.72 4046.62,-180.57 4055.41,-186.49 4057.18,-179.72"/>
</g>
</g>
</svg>
