<?xml version="1.0" encoding="UTF-8" standalone="no"?>
<!DOCTYPE svg PUBLIC "-//W3C//DTD SVG 1.1//EN"
 "http://www.w3.org/Graphics/SVG/1.1/DTD/svg11.dtd">
<!-- Generated by graphviz version 12.2.1 (20241206.2353)
 -->
<!-- Title: G Pages: 1 -->
<svg width="5313pt" height="116pt"
 viewBox="0.00 0.00 5313.36 116.00" xmlns="http://www.w3.org/2000/svg" xmlns:xlink="http://www.w3.org/1999/xlink">
<g id="graph0" class="graph" transform="scale(1 1) rotate(0) translate(4 112)">
<title>G</title>
<polygon fill="white" stroke="none" points="-4,4 -4,-112 5309.36,-112 5309.36,4 -4,4"/>
<!-- 0 -->
<g id="node1" class="node">
<title>0</title>
<ellipse fill="none" stroke="black" cx="2676.37" cy="-90" rx="39.07" ry="18"/>
<text text-anchor="middle" x="2676.37" y="-84.95" font-family="Times New Roman,serif" font-size="14.00">START</text>
</g>
<!-- 0&#45;&gt;0 -->
<g id="edge1" class="edge">
<title>0&#45;&gt;0</title>
<path fill="none" stroke="black" d="M2704.55,-102.94C2719.67,-105.14 2733.43,-100.83 2733.43,-90 2733.43,-81.96 2725.85,-77.52 2715.76,-76.65"/>
<polygon fill="black" stroke="black" points="2715.93,-73.15 2706.07,-77 2716.19,-80.14 2715.93,-73.15"/>
</g>
<!-- 1 -->
<g id="node2" class="node">
<title>1</title>
<ellipse fill="none" stroke="black" cx="2781.37" cy="-90" rx="29.86" ry="18"/>
<text text-anchor="middle" x="2781.37" y="-84.95" font-family="Times New Roman,serif" font-size="14.00">input</text>
</g>
<!-- 2 -->
<g id="node3" class="node">
<title>2</title>
<ellipse fill="none" stroke="black" cx="290.37" cy="-18" rx="290.37" ry="18"/>
<text text-anchor="middle" x="290.37" y="-12.95" font-family="Times New Roman,serif" font-size="14.00">Morell, the Cryptozoologist: “已经确认12月在米诺瓦出现过。”</text>
</g>
<!-- 1&#45;&gt;2 -->
<g id="edge2" class="edge">
<title>1&#45;&gt;2</title>
<path fill="none" stroke="black" d="M2759.19,-77.55C2753.82,-75.28 2748,-73.22 2742.37,-72 2508.56,-21.21 828.46,-44.79 589.37,-36 560.8,-34.95 530.72,-33.57 501.08,-32.04"/>
<polygon fill="black" stroke="black" points="501.43,-28.56 491.26,-31.53 501.06,-35.55 501.43,-28.56"/>
</g>
<!-- 3 -->
<g id="node4" class="node">
<title>3</title>
<ellipse fill="none" stroke="black" cx="946.37" cy="-18" rx="347.69" ry="18"/>
<text text-anchor="middle" x="946.37" y="-12.95" font-family="Times New Roman,serif" font-size="14.00">Morell, the Cryptozoologist: “证据就摆在这儿——不能就这么无视它吧。”</text>
</g>
<!-- 1&#45;&gt;3 -->
<g id="edge3" class="edge">
<title>1&#45;&gt;3</title>
<path fill="none" stroke="black" d="M2759.18,-77.58C2753.81,-75.31 2747.99,-73.25 2742.37,-72 2586.21,-37.4 1463.2,-41.8 1303.37,-36 1269.79,-34.78 1234.45,-33.32 1199.6,-31.77"/>
<polygon fill="black" stroke="black" points="1199.96,-28.28 1189.81,-31.33 1199.64,-35.27 1199.96,-28.28"/>
</g>
<!-- 4 -->
<g id="node5" class="node">
<title>4</title>
<ellipse fill="none" stroke="black" cx="1746.37" cy="-18" rx="434.18" ry="18"/>
<text text-anchor="middle" x="1746.37" y="-12.95" font-family="Times New Roman,serif" font-size="14.00">Morell, the Cryptozoologist: “盖理，我很不想打断你，但是犀牛是不会在火焰中燃烧的。”</text>
</g>
<!-- 1&#45;&gt;4 -->
<g id="edge4" class="edge">
<title>1&#45;&gt;4</title>
<path fill="none" stroke="black" d="M2759.15,-77.69C2753.78,-75.42 2747.97,-73.33 2742.37,-72 2708.61,-64.02 2326.91,-45.27 2046.06,-32.35"/>
<polygon fill="black" stroke="black" points="2046.52,-28.87 2036.37,-31.91 2046.19,-35.86 2046.52,-28.87"/>
</g>
<!-- 5 -->
<g id="node6" class="node">
<title>5</title>
<ellipse fill="none" stroke="black" cx="2511.37" cy="-18" rx="312.37" ry="18"/>
<text text-anchor="middle" x="2511.37" y="-12.95" font-family="Times New Roman,serif" font-size="14.00">Morell, the Cryptozoologist: “老天，真希望那个陷阱能坚持住……”</text>
</g>
<!-- 1&#45;&gt;5 -->
<g id="edge5" class="edge">
<title>1&#45;&gt;5</title>
<path fill="none" stroke="black" d="M2758.54,-78.21C2753.3,-75.97 2747.7,-73.76 2742.37,-72 2700.66,-58.26 2653.59,-46.76 2612.86,-38.03"/>
<polygon fill="black" stroke="black" points="2613.82,-34.66 2603.31,-36.01 2612.37,-41.5 2613.82,-34.66"/>
</g>
<!-- 6 -->
<g id="node7" class="node">
<title>6</title>
<ellipse fill="none" stroke="black" cx="3052.37" cy="-18" rx="210.52" ry="18"/>
<text text-anchor="middle" x="3052.37" y="-12.95" font-family="Times New Roman,serif" font-size="14.00">Morell, the Cryptozoologist: “这里有点拥挤。”</text>
</g>
<!-- 1&#45;&gt;6 -->
<g id="edge6" class="edge">
<title>1&#45;&gt;6</title>
<path fill="none" stroke="black" d="M2808.59,-81.97C2847.66,-71.88 2921.1,-52.91 2977.2,-38.41"/>
<polygon fill="black" stroke="black" points="2977.91,-41.85 2986.71,-35.96 2976.16,-35.07 2977.91,-41.85"/>
</g>
<!-- 7 -->
<g id="node8" class="node">
<title>7</title>
<ellipse fill="none" stroke="black" cx="3656.37" cy="-18" rx="375.33" ry="18"/>
<text text-anchor="middle" x="3656.37" y="-12.95" font-family="Times New Roman,serif" font-size="14.00">Morell, the Cryptozoologist: “拜托，盖理，从来都不是黑白分明这么简单的。”</text>
</g>
<!-- 1&#45;&gt;7 -->
<g id="edge7" class="edge">
<title>1&#45;&gt;7</title>
<path fill="none" stroke="black" d="M2810.98,-86.63C2910.74,-78.65 3240.44,-52.27 3457.4,-34.92"/>
<polygon fill="black" stroke="black" points="3457.42,-38.43 3467.11,-34.14 3456.86,-31.45 3457.42,-38.43"/>
</g>
<!-- 8 -->
<g id="node9" class="node">
<title>8</title>
<ellipse fill="none" stroke="black" cx="4307.37" cy="-18" rx="257.61" ry="18"/>
<text text-anchor="middle" x="4307.37" y="-12.95" font-family="Times New Roman,serif" font-size="14.00">Morell, the Cryptozoologist: “你玩的开心吗，亲爱的？”</text>
</g>
<!-- 1&#45;&gt;8 -->
<g id="edge8" class="edge">
<title>1&#45;&gt;8</title>
<path fill="none" stroke="black" d="M2811.12,-87.98C2950.11,-83.19 3549.37,-61.96 4040.37,-36 4064.2,-34.74 4089.22,-33.3 4113.99,-31.81"/>
<polygon fill="black" stroke="black" points="4114.07,-35.31 4123.84,-31.21 4113.65,-28.32 4114.07,-35.31"/>
</g>
<!-- 9 -->
<g id="node10" class="node">
<title>9</title>
<ellipse fill="none" stroke="black" cx="4944.37" cy="-18" rx="361" ry="18"/>
<text text-anchor="middle" x="4944.37" y="-12.95" font-family="Times New Roman,serif" font-size="14.00">Morell, the Cryptozoologist: “没有*真正*目击到的话，那就只是个故事了。”</text>
</g>
<!-- 1&#45;&gt;9 -->
<g id="edge9" class="edge">
<title>1&#45;&gt;9</title>
<path fill="none" stroke="black" d="M2811.5,-88.29C2983.59,-84.22 3859.39,-62.99 4574.37,-36 4608.43,-34.71 4644.25,-33.23 4679.65,-31.69"/>
<polygon fill="black" stroke="black" points="4679.77,-35.19 4689.61,-31.25 4679.46,-28.19 4679.77,-35.19"/>
</g>
</g>
</svg>
