<?xml version="1.0" encoding="UTF-8" standalone="no"?>
<!DOCTYPE svg PUBLIC "-//W3C//DTD SVG 1.1//EN"
 "http://www.w3.org/Graphics/SVG/1.1/DTD/svg11.dtd">
<!-- Generated by graphviz version 12.2.1 (20241206.2353)
 -->
<!-- Title: G Pages: 1 -->
<svg width="6758pt" height="692pt"
 viewBox="0.00 0.00 6758.29 692.00" xmlns="http://www.w3.org/2000/svg" xmlns:xlink="http://www.w3.org/1999/xlink">
<g id="graph0" class="graph" transform="scale(1 1) rotate(0) translate(4 688)">
<title>G</title>
<polygon fill="white" stroke="none" points="-4,4 -4,-688 6754.29,-688 6754.29,4 -4,4"/>
<!-- 0 -->
<g id="node1" class="node">
<title>0</title>
<ellipse fill="none" stroke="black" cx="1612.92" cy="-666" rx="39.07" ry="18"/>
<text text-anchor="middle" x="1612.92" y="-660.95" font-family="Times New Roman,serif" font-size="14.00">START</text>
</g>
<!-- 1 -->
<g id="node2" class="node">
<title>1</title>
<ellipse fill="none" stroke="black" cx="1612.92" cy="-594" rx="29.86" ry="18"/>
<text text-anchor="middle" x="1612.92" y="-588.95" font-family="Times New Roman,serif" font-size="14.00">input</text>
</g>
<!-- 0&#45;&gt;1 -->
<g id="edge1" class="edge">
<title>0&#45;&gt;1</title>
<path fill="none" stroke="black" d="M1612.92,-647.7C1612.92,-640.41 1612.92,-631.73 1612.92,-623.54"/>
<polygon fill="black" stroke="black" points="1616.42,-623.62 1612.92,-613.62 1609.42,-623.62 1616.42,-623.62"/>
</g>
<!-- 9 -->
<g id="node10" class="node">
<title>9</title>
<ellipse fill="none" stroke="black" cx="1612.92" cy="-522" rx="816.5" ry="18"/>
<text text-anchor="middle" x="1612.92" y="-516.95" font-family="Times New Roman,serif" font-size="14.00">Shivers: 温度骤降。在一条空旷的街道上，连空气的流动也变得容易起来。在你面前，一条没有货車堵死的大道。没有坐在托杆上抽烟的司机。只有……寂静。</text>
</g>
<!-- 1&#45;&gt;9 -->
<g id="edge2" class="edge">
<title>1&#45;&gt;9</title>
<path fill="none" stroke="black" d="M1612.92,-575.7C1612.92,-568.41 1612.92,-559.73 1612.92,-551.54"/>
<polygon fill="black" stroke="black" points="1616.42,-551.62 1612.92,-541.62 1609.42,-551.62 1616.42,-551.62"/>
</g>
<!-- 2 -->
<g id="node3" class="node">
<title>2</title>
<ellipse fill="none" stroke="black" cx="2848.92" cy="-90" rx="633.79" ry="18"/>
<text text-anchor="middle" x="2848.92" y="-84.95" font-family="Times New Roman,serif" font-size="14.00">Suggestion: 他的男朋友还在回家路上，身上带着肉类和蔬菜罐头。他们的口袋因为金钱变得沉重了些；不过只有一点而已。</text>
</g>
<!-- 6 -->
<g id="node7" class="node">
<title>6</title>
<ellipse fill="none" stroke="black" cx="2848.92" cy="-18" rx="124.03" ry="18"/>
<text text-anchor="middle" x="2848.92" y="-12.95" font-family="Times New Roman,serif" font-size="14.00">Jump to: [shiver_me_timbers]</text>
</g>
<!-- 2&#45;&gt;6 -->
<g id="edge3" class="edge">
<title>2&#45;&gt;6</title>
<path fill="none" stroke="black" d="M2848.92,-71.7C2848.92,-64.41 2848.92,-55.73 2848.92,-47.54"/>
<polygon fill="black" stroke="black" points="2852.42,-47.62 2848.92,-37.62 2845.42,-47.62 2852.42,-47.62"/>
</g>
<!-- 3 -->
<g id="node4" class="node">
<title>3</title>
<ellipse fill="none" stroke="black" cx="1463.92" cy="-450" rx="167.02" ry="18"/>
<text text-anchor="middle" x="1463.92" y="-444.95" font-family="Times New Roman,serif" font-size="14.00">You: 放下这一刻。[放弃思维。]</text>
</g>
<!-- 4 -->
<g id="node5" class="node">
<title>4</title>
<ellipse fill="none" stroke="black" cx="4475.92" cy="-90" rx="975.17" ry="18"/>
<text text-anchor="middle" x="4475.92" y="-84.95" font-family="Times New Roman,serif" font-size="14.00">Shivers: 312D号。以前会有年轻的女孩来到这里，挤成一团，寻求着比身上单薄大衣更多的温暖。公交車把她们送往学校。它已经有8年没有运行了；没有足够多的女孩来负担它运营的成本。</text>
</g>
<!-- 4&#45;&gt;6 -->
<g id="edge4" class="edge">
<title>4&#45;&gt;6</title>
<path fill="none" stroke="black" d="M4102.14,-72.92C3741.94,-57.42 3217.32,-34.85 2977.36,-24.53"/>
<polygon fill="black" stroke="black" points="2977.8,-21.04 2967.66,-24.11 2977.5,-28.04 2977.8,-21.04"/>
</g>
<!-- 5 -->
<g id="node6" class="node">
<title>5</title>
<ellipse fill="none" stroke="black" cx="1762.92" cy="-450" rx="113.79" ry="18"/>
<text text-anchor="middle" x="1762.92" y="-444.95" font-family="Times New Roman,serif" font-size="14.00">You: 烟是什么味道？</text>
</g>
<!-- 20 -->
<g id="node21" class="node">
<title>20</title>
<ellipse fill="none" stroke="black" cx="1762.92" cy="-378" rx="585.17" ry="18"/>
<text text-anchor="middle" x="1762.92" y="-372.95" font-family="Times New Roman,serif" font-size="14.00">Shivers: 道路通畅而混杂。坑洞里填满黑色的沥青。第一次铺设的沥青已经变灰。一排建造中的公寓伫立在远方。</text>
</g>
<!-- 5&#45;&gt;20 -->
<g id="edge5" class="edge">
<title>5&#45;&gt;20</title>
<path fill="none" stroke="black" d="M1762.92,-431.7C1762.92,-424.41 1762.92,-415.73 1762.92,-407.54"/>
<polygon fill="black" stroke="black" points="1766.42,-407.62 1762.92,-397.62 1759.42,-407.62 1766.42,-407.62"/>
</g>
<!-- 16 -->
<g id="node17" class="node">
<title>16</title>
<ellipse fill="none" stroke="black" cx="1762.92" cy="-306" rx="82.57" ry="18"/>
<text text-anchor="middle" x="1762.92" y="-300.95" font-family="Times New Roman,serif" font-size="14.00">shiver_me_timbers</text>
</g>
<!-- 6&#45;&gt;16 -->
<g id="edge6" class="edge">
<title>6&#45;&gt;16</title>
<path fill="none" stroke="black" d="M2724.64,-19.02C2190.78,-19.41 117.02,-23.99 69.92,-72 -254.92,-403.1 636.85,-201.38 1097.92,-252 1303.13,-274.53 1544.96,-291.38 1672.94,-299.54"/>
<polygon fill="black" stroke="black" points="1672.5,-303.02 1682.7,-300.16 1672.94,-296.03 1672.5,-303.02"/>
</g>
<!-- 7 -->
<g id="node8" class="node">
<title>7</title>
<ellipse fill="none" stroke="black" cx="1196.92" cy="-234" rx="90.25" ry="18"/>
<text text-anchor="middle" x="1196.92" y="-228.95" font-family="Times New Roman,serif" font-size="14.00">You: 那条路呢？</text>
</g>
<!-- 18 -->
<g id="node19" class="node">
<title>18</title>
<ellipse fill="none" stroke="black" cx="969.92" cy="-162" rx="155.25" ry="18"/>
<text text-anchor="middle" x="969.92" y="-156.95" font-family="Times New Roman,serif" font-size="14.00">You: 已经够了。[完成思维。]</text>
</g>
<!-- 7&#45;&gt;18 -->
<g id="edge7" class="edge">
<title>7&#45;&gt;18</title>
<path fill="none" stroke="black" d="M1149.33,-218.33C1115.73,-207.96 1070.33,-193.96 1033.6,-182.64"/>
<polygon fill="black" stroke="black" points="1035.04,-179.42 1024.45,-179.82 1032.97,-186.11 1035.04,-179.42"/>
</g>
<!-- 8 -->
<g id="node9" class="node">
<title>8</title>
<ellipse fill="none" stroke="black" cx="1602.92" cy="-90" rx="594.38" ry="18"/>
<text text-anchor="middle" x="1602.92" y="-84.95" font-family="Times New Roman,serif" font-size="14.00">Shivers: 悲剧来自于飞驰的車轮，那是急着赶去工作的RCM专車。一股寒意充斥着你的全身。大海的声音渐行渐远。</text>
</g>
<!-- 8&#45;&gt;6 -->
<g id="edge8" class="edge">
<title>8&#45;&gt;6</title>
<path fill="none" stroke="black" d="M1877.13,-73.59C2140.71,-58.79 2527.18,-37.08 2723.89,-26.02"/>
<polygon fill="black" stroke="black" points="2723.83,-29.53 2733.62,-25.48 2723.44,-22.54 2723.83,-29.53"/>
</g>
<!-- 9&#45;&gt;3 -->
<g id="edge9" class="edge">
<title>9&#45;&gt;3</title>
<path fill="none" stroke="black" d="M1576.09,-503.7C1556.26,-494.38 1531.59,-482.79 1510.45,-472.86"/>
<polygon fill="black" stroke="black" points="1511.98,-469.71 1501.44,-468.63 1509,-476.05 1511.98,-469.71"/>
</g>
<!-- 9&#45;&gt;5 -->
<g id="edge10" class="edge">
<title>9&#45;&gt;5</title>
<path fill="none" stroke="black" d="M1650,-503.7C1670.35,-494.2 1695.76,-482.34 1717.32,-472.28"/>
<polygon fill="black" stroke="black" points="1718.6,-475.54 1726.19,-468.14 1715.64,-469.2 1718.6,-475.54"/>
</g>
<!-- 10 -->
<g id="node11" class="node">
<title>10</title>
<ellipse fill="none" stroke="black" cx="2465.92" cy="-162" rx="835.44" ry="18"/>
<text text-anchor="middle" x="2465.92" y="-156.95" font-family="Times New Roman,serif" font-size="14.00">Shivers: 一盆温水，上面漂浮着白色的肥皂沫。一个男人正在洗澡，无线电波正里传输着彩票中奖号码：4,18,21,4,1……洗碗机把装满镀银餐具的抽屉晃得咯咯直响。</text>
</g>
<!-- 10&#45;&gt;2 -->
<g id="edge11" class="edge">
<title>10&#45;&gt;2</title>
<path fill="none" stroke="black" d="M2560.59,-143.7C2615.94,-133.58 2685.93,-120.79 2743.09,-110.34"/>
<polygon fill="black" stroke="black" points="2743.64,-113.8 2752.85,-108.56 2742.38,-106.91 2743.64,-113.8"/>
</g>
<!-- 11 -->
<g id="node12" class="node">
<title>11</title>
<ellipse fill="none" stroke="black" cx="1622.92" cy="-234" rx="90.25" ry="18"/>
<text text-anchor="middle" x="1622.92" y="-228.95" font-family="Times New Roman,serif" font-size="14.00">You: 一条死狗？</text>
</g>
<!-- 11&#45;&gt;8 -->
<g id="edge12" class="edge">
<title>11&#45;&gt;8</title>
<path fill="none" stroke="black" d="M1620.47,-215.59C1617.09,-191.61 1610.97,-148.14 1606.92,-119.42"/>
<polygon fill="black" stroke="black" points="1610.4,-119.02 1605.54,-109.61 1603.47,-120 1610.4,-119.02"/>
</g>
<!-- 12 -->
<g id="node13" class="node">
<title>12</title>
<ellipse fill="none" stroke="black" cx="2066.92" cy="-234" rx="172.65" ry="18"/>
<text text-anchor="middle" x="2066.92" y="-228.95" font-family="Times New Roman,serif" font-size="14.00">You: 住在路对面的都是什么人？</text>
</g>
<!-- 12&#45;&gt;10 -->
<g id="edge13" class="edge">
<title>12&#45;&gt;10</title>
<path fill="none" stroke="black" d="M2152.51,-217.98C2212.04,-207.54 2291.91,-193.53 2356.13,-182.26"/>
<polygon fill="black" stroke="black" points="2356.37,-185.77 2365.62,-180.6 2355.16,-178.88 2356.37,-185.77"/>
</g>
<!-- 13 -->
<g id="node14" class="node">
<title>13</title>
<ellipse fill="none" stroke="black" cx="534.92" cy="-90" rx="455.68" ry="18"/>
<text text-anchor="middle" x="534.92" y="-84.95" font-family="Times New Roman,serif" font-size="14.00">Shivers: 风吹散了气溶胶。一个警探站在拦車杆的后面；一阵微风吹起了他的一缕卷发。</text>
</g>
<!-- 14 -->
<g id="node15" class="node">
<title>14</title>
<ellipse fill="none" stroke="black" cx="2463.92" cy="-234" rx="125.56" ry="18"/>
<text text-anchor="middle" x="2463.92" y="-228.95" font-family="Times New Roman,serif" font-size="14.00">You: 那个公交車站呢？</text>
</g>
<!-- 14&#45;&gt;4 -->
<g id="edge14" class="edge">
<title>14&#45;&gt;4</title>
<path fill="none" stroke="black" d="M2562.88,-222.63C2587.69,-220.24 2614.26,-217.86 2638.92,-216 2787.82,-204.78 3172.73,-238.97 3309.92,-180 3331.29,-170.81 3326.52,-153.12 3347.92,-144 3394.41,-124.2 3586.38,-111.75 3799.13,-103.95"/>
<polygon fill="black" stroke="black" points="3799.19,-107.45 3809.06,-103.59 3798.94,-100.45 3799.19,-107.45"/>
</g>
<!-- 15 -->
<g id="node16" class="node">
<title>15</title>
<ellipse fill="none" stroke="black" cx="5917.92" cy="-90" rx="448.51" ry="18"/>
<text text-anchor="middle" x="5917.92" y="-84.95" font-family="Times New Roman,serif" font-size="14.00">Perception (Sight): 路上有一块隆起：一条死狗平躺在两百米开外，刚好就在转角的地方。</text>
</g>
<!-- 15&#45;&gt;6 -->
<g id="edge15" class="edge">
<title>15&#45;&gt;6</title>
<path fill="none" stroke="black" d="M5605.67,-76.71C5556.89,-74.99 5507.04,-73.35 5459.92,-72 4511.55,-44.78 3369.01,-26.65 2983.41,-20.93"/>
<polygon fill="black" stroke="black" points="2983.51,-17.43 2973.46,-20.79 2983.41,-24.43 2983.51,-17.43"/>
</g>
<!-- 16&#45;&gt;7 -->
<g id="edge16" class="edge">
<title>16&#45;&gt;7</title>
<path fill="none" stroke="black" d="M1692.38,-296.28C1588.67,-283.45 1395.24,-259.53 1283.2,-245.67"/>
<polygon fill="black" stroke="black" points="1283.81,-242.22 1273.46,-244.47 1282.95,-249.17 1283.81,-242.22"/>
</g>
<!-- 16&#45;&gt;11 -->
<g id="edge17" class="edge">
<title>16&#45;&gt;11</title>
<path fill="none" stroke="black" d="M1730.8,-288.94C1711.46,-279.27 1686.61,-266.84 1665.63,-256.35"/>
<polygon fill="black" stroke="black" points="1667.24,-253.25 1656.73,-251.9 1664.11,-259.51 1667.24,-253.25"/>
</g>
<!-- 16&#45;&gt;12 -->
<g id="edge18" class="edge">
<title>16&#45;&gt;12</title>
<path fill="none" stroke="black" d="M1818.32,-292.24C1865.41,-281.4 1933.61,-265.7 1986.67,-253.48"/>
<polygon fill="black" stroke="black" points="1987.32,-256.92 1996.28,-251.27 1985.75,-250.1 1987.32,-256.92"/>
</g>
<!-- 16&#45;&gt;14 -->
<g id="edge19" class="edge">
<title>16&#45;&gt;14</title>
<path fill="none" stroke="black" d="M1836.94,-297.61C1960.08,-285.31 2207.72,-260.58 2352.19,-246.16"/>
<polygon fill="black" stroke="black" points="2352.16,-249.68 2361.76,-245.2 2351.46,-242.71 2352.16,-249.68"/>
</g>
<!-- 19 -->
<g id="node20" class="node">
<title>19</title>
<ellipse fill="none" stroke="black" cx="3362.92" cy="-234" rx="714.65" ry="18"/>
<text text-anchor="middle" x="3362.92" y="-228.95" font-family="Times New Roman,serif" font-size="14.00">Shivers: 化学的甜味。道路那边是一个被遗忘的公交車站；锈迹在它的顶部开了个洞。一棵榆树看守着建筑。它的枝头滴落着雨水和雪水。</text>
</g>
<!-- 16&#45;&gt;19 -->
<g id="edge20" class="edge">
<title>16&#45;&gt;19</title>
<path fill="none" stroke="black" d="M1843.36,-301.48C2052.9,-292.31 2625.56,-267.26 3004.93,-250.66"/>
<polygon fill="black" stroke="black" points="3005.03,-254.16 3014.87,-250.23 3004.73,-247.17 3005.03,-254.16"/>
</g>
<!-- 17 -->
<g id="node18" class="node">
<title>17</title>
<ellipse fill="none" stroke="black" cx="5917.92" cy="-162" rx="832.37" ry="18"/>
<text text-anchor="middle" x="5917.92" y="-156.95" font-family="Times New Roman,serif" font-size="14.00">Shivers: 路的表面密密麻麻全是坑洞。孩子们在里面玩耍，直到载满黑色沥青的重型货車蜂拥而至。土地所有者用钱填满了这些坑洞。它是商业流通的重要命脉。</text>
</g>
<!-- 17&#45;&gt;15 -->
<g id="edge21" class="edge">
<title>17&#45;&gt;15</title>
<path fill="none" stroke="black" d="M5917.92,-143.7C5917.92,-136.41 5917.92,-127.73 5917.92,-119.54"/>
<polygon fill="black" stroke="black" points="5921.42,-119.62 5917.92,-109.62 5914.42,-119.62 5921.42,-119.62"/>
</g>
<!-- 18&#45;&gt;13 -->
<g id="edge22" class="edge">
<title>18&#45;&gt;13</title>
<path fill="none" stroke="black" d="M881.63,-146.79C815.25,-136.11 723.69,-121.38 651.33,-109.73"/>
<polygon fill="black" stroke="black" points="652.27,-106.34 641.84,-108.21 651.16,-113.25 652.27,-106.34"/>
</g>
<!-- 21 -->
<g id="node22" class="node">
<title>21</title>
<ellipse fill="none" stroke="black" cx="3383.92" cy="-162" rx="27" ry="18"/>
<text text-anchor="middle" x="3383.92" y="-156.95" font-family="Times New Roman,serif" font-size="14.00">21</text>
</g>
<!-- 19&#45;&gt;21 -->
<g id="edge23" class="edge">
<title>19&#45;&gt;21</title>
<path fill="none" stroke="black" d="M3368.11,-215.7C3370.35,-208.24 3373.02,-199.32 3375.53,-190.97"/>
<polygon fill="black" stroke="black" points="3378.83,-192.14 3378.35,-181.55 3372.13,-190.13 3378.83,-192.14"/>
</g>
<!-- 20&#45;&gt;16 -->
<g id="edge24" class="edge">
<title>20&#45;&gt;16</title>
<path fill="none" stroke="black" d="M1762.92,-359.7C1762.92,-352.41 1762.92,-343.73 1762.92,-335.54"/>
<polygon fill="black" stroke="black" points="1766.42,-335.62 1762.92,-325.62 1759.42,-335.62 1766.42,-335.62"/>
</g>
</g>
</svg>
