<?xml version="1.0" encoding="UTF-8" standalone="no"?>
<!DOCTYPE svg PUBLIC "-//W3C//DTD SVG 1.1//EN"
 "http://www.w3.org/Graphics/SVG/1.1/DTD/svg11.dtd">
<!-- Generated by graphviz version 12.2.1 (20241206.2353)
 -->
<!-- Title: G Pages: 1 -->
<svg width="6656pt" height="116pt"
 viewBox="0.00 0.00 6655.64 116.00" xmlns="http://www.w3.org/2000/svg" xmlns:xlink="http://www.w3.org/1999/xlink">
<g id="graph0" class="graph" transform="scale(1 1) rotate(0) translate(4 112)">
<title>G</title>
<polygon fill="white" stroke="none" points="-4,4 -4,-112 6651.64,-112 6651.64,4 -4,4"/>
<!-- 0 -->
<g id="node1" class="node">
<title>0</title>
<ellipse fill="none" stroke="black" cx="3429.13" cy="-90" rx="39.07" ry="18"/>
<text text-anchor="middle" x="3429.13" y="-84.95" font-family="Times New Roman,serif" font-size="14.00">START</text>
</g>
<!-- 0&#45;&gt;0 -->
<g id="edge1" class="edge">
<title>0&#45;&gt;0</title>
<path fill="none" stroke="black" d="M3457.32,-102.94C3472.43,-105.14 3486.2,-100.83 3486.2,-90 3486.2,-81.96 3478.61,-77.52 3468.52,-76.65"/>
<polygon fill="black" stroke="black" points="3468.7,-73.15 3458.83,-77 3468.95,-80.14 3468.7,-73.15"/>
</g>
<!-- 1 -->
<g id="node2" class="node">
<title>1</title>
<ellipse fill="none" stroke="black" cx="3534.13" cy="-90" rx="29.86" ry="18"/>
<text text-anchor="middle" x="3534.13" y="-84.95" font-family="Times New Roman,serif" font-size="14.00">input</text>
</g>
<!-- 1&#45;&gt;1 -->
<g id="edge2" class="edge">
<title>1&#45;&gt;1</title>
<path fill="none" stroke="black" d="M3555.78,-102.55C3569.21,-105.57 3581.98,-101.39 3581.98,-90 3581.98,-81.99 3575.67,-77.55 3567.25,-76.66"/>
<polygon fill="black" stroke="black" points="3567.03,-73.17 3557.29,-77.35 3567.51,-80.15 3567.03,-73.17"/>
</g>
<!-- 2 -->
<g id="node3" class="node">
<title>2</title>
<ellipse fill="none" stroke="black" cx="410.13" cy="-18" rx="410.13" ry="18"/>
<text text-anchor="middle" x="410.13" y="-12.95" font-family="Times New Roman,serif" font-size="14.00">Women&#39;s Rights: “男性……从条件反射上说……不能……做出精神上的自由反应……”</text>
</g>
<!-- 1&#45;&gt;2 -->
<g id="edge3" class="edge">
<title>1&#45;&gt;2</title>
<path fill="none" stroke="black" d="M3511.95,-77.53C3506.58,-75.27 3500.76,-73.21 3495.13,-72 3350.33,-40.79 977.2,-40 829.13,-36 788.29,-34.9 745.23,-33.46 702.88,-31.89"/>
<polygon fill="black" stroke="black" points="703.18,-28.4 693.05,-31.52 702.92,-35.39 703.18,-28.4"/>
</g>
<!-- 3 -->
<g id="node4" class="node">
<title>3</title>
<ellipse fill="none" stroke="black" cx="1160.13" cy="-18" rx="321.59" ry="18"/>
<text text-anchor="middle" x="1160.13" y="-12.95" font-family="Times New Roman,serif" font-size="14.00">Women&#39;s Rights: “一个堕落者……只能创作出堕落的*艺术品*……”</text>
</g>
<!-- 1&#45;&gt;3 -->
<g id="edge4" class="edge">
<title>1&#45;&gt;3</title>
<path fill="none" stroke="black" d="M3511.95,-77.55C3506.58,-75.28 3500.76,-73.23 3495.13,-72 3277.53,-24.59 1713.7,-43.71 1491.13,-36 1459.35,-34.9 1425.88,-33.48 1392.91,-31.93"/>
<polygon fill="black" stroke="black" points="1393.42,-28.46 1383.27,-31.48 1393.09,-35.45 1393.42,-28.46"/>
</g>
<!-- 4 -->
<g id="node5" class="node">
<title>4</title>
<ellipse fill="none" stroke="black" cx="1790.13" cy="-18" rx="290.37" ry="18"/>
<text text-anchor="middle" x="1790.13" y="-12.95" font-family="Times New Roman,serif" font-size="14.00">Women&#39;s Rights: “*男艺术家*这个词明显是自相矛盾的……”</text>
</g>
<!-- 1&#45;&gt;4 -->
<g id="edge5" class="edge">
<title>1&#45;&gt;4</title>
<path fill="none" stroke="black" d="M3511.94,-77.58C3506.57,-75.31 3500.75,-73.25 3495.13,-72 3342.57,-38.15 2245.27,-42.44 2089.13,-36 2061.27,-34.85 2031.96,-33.44 2003.03,-31.92"/>
<polygon fill="black" stroke="black" points="2003.22,-28.43 1993.04,-31.39 2002.84,-35.42 2003.22,-28.43"/>
</g>
<!-- 5 -->
<g id="node6" class="node">
<title>5</title>
<ellipse fill="none" stroke="black" cx="2352.13" cy="-18" rx="253.52" ry="18"/>
<text text-anchor="middle" x="2352.13" y="-12.95" font-family="Times New Roman,serif" font-size="14.00">Women&#39;s Rights: “男性……根本没有深层的个性……”</text>
</g>
<!-- 1&#45;&gt;5 -->
<g id="edge6" class="edge">
<title>1&#45;&gt;5</title>
<path fill="none" stroke="black" d="M3511.93,-77.64C3506.56,-75.37 3500.74,-73.29 3495.13,-72 3304.17,-28.1 2809.8,-46.34 2614.13,-36 2590.64,-34.76 2565.98,-33.33 2541.57,-31.83"/>
<polygon fill="black" stroke="black" points="2542.09,-28.36 2531.89,-31.23 2541.65,-35.34 2542.09,-28.36"/>
</g>
<!-- 6 -->
<g id="node7" class="node">
<title>6</title>
<ellipse fill="none" stroke="black" cx="2873.13" cy="-18" rx="249.93" ry="18"/>
<text text-anchor="middle" x="2873.13" y="-12.95" font-family="Times New Roman,serif" font-size="14.00">Women&#39;s Rights: “我是个混蛋，卑微可怜的混蛋！”</text>
</g>
<!-- 1&#45;&gt;6 -->
<g id="edge7" class="edge">
<title>1&#45;&gt;6</title>
<path fill="none" stroke="black" d="M3511.88,-77.82C3506.52,-75.55 3500.71,-73.41 3495.13,-72 3453.82,-61.54 3228.54,-43.93 3060.91,-31.9"/>
<polygon fill="black" stroke="black" points="3061.18,-28.41 3050.96,-31.19 3060.68,-35.4 3061.18,-28.41"/>
</g>
<!-- 8 -->
<g id="node9" class="node">
<title>8</title>
<ellipse fill="none" stroke="black" cx="3251.13" cy="-18" rx="109.7" ry="18"/>
<text text-anchor="middle" x="3251.13" y="-12.95" font-family="Times New Roman,serif" font-size="14.00">Women&#39;s Rights: *打嗝*</text>
</g>
<!-- 1&#45;&gt;8 -->
<g id="edge8" class="edge">
<title>1&#45;&gt;8</title>
<path fill="none" stroke="black" d="M3511.32,-78.16C3506.08,-75.93 3500.47,-73.73 3495.13,-72 3443.86,-55.44 3384.86,-42.46 3337.72,-33.5"/>
<polygon fill="black" stroke="black" points="3338.59,-30.1 3328.11,-31.7 3337.3,-36.98 3338.59,-30.1"/>
</g>
<!-- 9 -->
<g id="node10" class="node">
<title>9</title>
<ellipse fill="none" stroke="black" cx="3818.13" cy="-18" rx="439.3" ry="18"/>
<text text-anchor="middle" x="3818.13" y="-12.95" font-family="Times New Roman,serif" font-size="14.00">Women&#39;s Rights: “男性试着确认自己的*男子气概*，通过表现地……像其他男人一样……”</text>
</g>
<!-- 1&#45;&gt;9 -->
<g id="edge9" class="edge">
<title>1&#45;&gt;9</title>
<path fill="none" stroke="black" d="M3560.43,-80.79C3570.05,-77.89 3581.05,-74.68 3591.13,-72 3636.1,-60.06 3686.46,-48.15 3728.31,-38.66"/>
<polygon fill="black" stroke="black" points="3728.85,-42.12 3737.83,-36.5 3727.31,-35.29 3728.85,-42.12"/>
</g>
<!-- 10 -->
<g id="node11" class="node">
<title>10</title>
<ellipse fill="none" stroke="black" cx="4536.13" cy="-18" rx="261.19" ry="18"/>
<text text-anchor="middle" x="4536.13" y="-12.95" font-family="Times New Roman,serif" font-size="14.00">Women&#39;s Rights: “退出……不是答案……愚蠢才是……”</text>
</g>
<!-- 1&#45;&gt;10 -->
<g id="edge10" class="edge">
<title>1&#45;&gt;10</title>
<path fill="none" stroke="black" d="M3559.64,-79.99C3569.37,-76.92 3580.65,-73.82 3591.13,-72 3887.14,-20.71 3966.21,-53.44 4266.13,-36 4289.61,-34.63 4314.24,-33.15 4338.66,-31.65"/>
<polygon fill="black" stroke="black" points="4338.59,-35.16 4348.36,-31.06 4338.16,-28.18 4338.59,-35.16"/>
</g>
<!-- 11 -->
<g id="node12" class="node">
<title>11</title>
<ellipse fill="none" stroke="black" cx="5045.13" cy="-18" rx="229.97" ry="18"/>
<text text-anchor="middle" x="5045.13" y="-12.95" font-family="Times New Roman,serif" font-size="14.00">Women&#39;s Rights: “男性是……不完整的女性……”</text>
</g>
<!-- 1&#45;&gt;11 -->
<g id="edge11" class="edge">
<title>1&#45;&gt;11</title>
<path fill="none" stroke="black" d="M3559.34,-79.94C3569.13,-76.83 3580.53,-73.71 3591.13,-72 3857.81,-29.04 4536.35,-49.59 4806.13,-36 4827.99,-34.9 4850.95,-33.53 4873.65,-32.06"/>
<polygon fill="black" stroke="black" points="4873.87,-35.55 4883.62,-31.4 4873.41,-28.57 4873.87,-35.55"/>
</g>
<!-- 12 -->
<g id="node13" class="node">
<title>12</title>
<ellipse fill="none" stroke="black" cx="5589.13" cy="-18" rx="296.51" ry="18"/>
<text text-anchor="middle" x="5589.13" y="-12.95" font-family="Times New Roman,serif" font-size="14.00">Women&#39;s Rights: “男性……可以……与其他任何男性互换……”</text>
</g>
<!-- 1&#45;&gt;12 -->
<g id="edge12" class="edge">
<title>1&#45;&gt;12</title>
<path fill="none" stroke="black" d="M3559.33,-79.9C3569.12,-76.78 3580.52,-73.66 3591.13,-72 3962.89,-13.7 4908.1,-50.47 5284.13,-36 5312.91,-34.89 5343.21,-33.49 5373.08,-31.97"/>
<polygon fill="black" stroke="black" points="5373.19,-35.47 5383,-31.46 5372.83,-28.47 5373.19,-35.47"/>
</g>
<!-- 13 -->
<g id="node14" class="node">
<title>13</title>
<ellipse fill="none" stroke="black" cx="6013.13" cy="-18" rx="109.7" ry="18"/>
<text text-anchor="middle" x="6013.13" y="-12.95" font-family="Times New Roman,serif" font-size="14.00">Women&#39;s Rights: *哼哼*</text>
</g>
<!-- 1&#45;&gt;13 -->
<g id="edge13" class="edge">
<title>1&#45;&gt;13</title>
<path fill="none" stroke="black" d="M3559.32,-79.87C3569.12,-76.75 3580.51,-73.63 3591.13,-72 4097.23,5.91 5384.68,-76.59 5895.13,-36 5905.2,-35.2 5915.73,-34.08 5926.17,-32.81"/>
<polygon fill="black" stroke="black" points="5926.46,-36.3 5935.93,-31.55 5925.57,-29.35 5926.46,-36.3"/>
</g>
<!-- 14 -->
<g id="node15" class="node">
<title>14</title>
<ellipse fill="none" stroke="black" cx="6394.13" cy="-18" rx="253.52" ry="18"/>
<text text-anchor="middle" x="6394.13" y="-12.95" font-family="Times New Roman,serif" font-size="14.00">Women&#39;s Rights: “男性的精……精神上是被动的……”</text>
</g>
<!-- 1&#45;&gt;14 -->
<g id="edge14" class="edge">
<title>1&#45;&gt;14</title>
<path fill="none" stroke="black" d="M3559.32,-79.86C3569.12,-76.74 3580.51,-73.63 3591.13,-72 3870.23,-29.24 5849.99,-47.14 6132.13,-36 6157.12,-35.01 6183.44,-33.67 6209.37,-32.16"/>
<polygon fill="black" stroke="black" points="6209.56,-35.66 6219.34,-31.57 6209.15,-28.67 6209.56,-35.66"/>
</g>
<!-- 7 -->
<g id="node8" class="node">
<title>7</title>
<ellipse fill="none" stroke="black" cx="3710.13" cy="-90" rx="109.7" ry="18"/>
<text text-anchor="middle" x="3710.13" y="-84.95" font-family="Times New Roman,serif" font-size="14.00">Women&#39;s Rights: *打嗝*</text>
</g>
</g>
</svg>
