<?xml version="1.0" encoding="UTF-8" standalone="no"?>
<!DOCTYPE svg PUBLIC "-//W3C//DTD SVG 1.1//EN"
 "http://www.w3.org/Graphics/SVG/1.1/DTD/svg11.dtd">
<!-- Generated by graphviz version 12.2.1 (20241206.2353)
 -->
<!-- Title: G Pages: 1 -->
<svg width="3314pt" height="1340pt"
 viewBox="0.00 0.00 3314.14 1340.00" xmlns="http://www.w3.org/2000/svg" xmlns:xlink="http://www.w3.org/1999/xlink">
<g id="graph0" class="graph" transform="scale(1 1) rotate(0) translate(4 1336)">
<title>G</title>
<polygon fill="white" stroke="none" points="-4,4 -4,-1336 3310.14,-1336 3310.14,4 -4,4"/>
<!-- 0 -->
<g id="node1" class="node">
<title>0</title>
<ellipse fill="none" stroke="black" cx="563.7" cy="-1314" rx="39.07" ry="18"/>
<text text-anchor="middle" x="563.7" y="-1308.95" font-family="Times New Roman,serif" font-size="14.00">START</text>
</g>
<!-- 1 -->
<g id="node2" class="node">
<title>1</title>
<ellipse fill="none" stroke="black" cx="563.7" cy="-1242" rx="29.86" ry="18"/>
<text text-anchor="middle" x="563.7" y="-1236.95" font-family="Times New Roman,serif" font-size="14.00">input</text>
</g>
<!-- 0&#45;&gt;1 -->
<g id="edge1" class="edge">
<title>0&#45;&gt;1</title>
<path fill="none" stroke="black" d="M563.7,-1295.7C563.7,-1288.41 563.7,-1279.73 563.7,-1271.54"/>
<polygon fill="black" stroke="black" points="567.2,-1271.62 563.7,-1261.62 560.2,-1271.62 567.2,-1271.62"/>
</g>
<!-- 2 -->
<g id="node3" class="node">
<title>2</title>
<ellipse fill="none" stroke="black" cx="563.7" cy="-1170" rx="548.32" ry="18"/>
<text text-anchor="middle" x="563.7" y="-1164.95" font-family="Times New Roman,serif" font-size="14.00">Inland Empire: 只是一把红椅子。一个空旷棚屋里的红椅子——屋里的架子上像是放着一条灰尘扑扑的领带。</text>
</g>
<!-- 1&#45;&gt;2 -->
<g id="edge2" class="edge">
<title>1&#45;&gt;2</title>
<path fill="none" stroke="black" d="M563.7,-1223.7C563.7,-1216.41 563.7,-1207.73 563.7,-1199.54"/>
<polygon fill="black" stroke="black" points="567.2,-1199.62 563.7,-1189.62 560.2,-1199.62 567.2,-1199.62"/>
</g>
<!-- 13 -->
<g id="node14" class="node">
<title>13</title>
<ellipse fill="none" stroke="black" cx="276.7" cy="-1098" rx="96.39" ry="18"/>
<text text-anchor="middle" x="276.7" y="-1092.95" font-family="Times New Roman,serif" font-size="14.00">You: [放弃思维。]</text>
</g>
<!-- 2&#45;&gt;13 -->
<g id="edge5" class="edge">
<title>2&#45;&gt;13</title>
<path fill="none" stroke="black" d="M492.75,-1151.7C447.61,-1140.69 389.47,-1126.51 344.87,-1115.63"/>
<polygon fill="black" stroke="black" points="345.86,-1112.27 335.31,-1113.3 344.2,-1119.07 345.86,-1112.27"/>
</g>
<!-- 16 -->
<g id="node17" class="node">
<title>16</title>
<ellipse fill="none" stroke="black" cx="563.7" cy="-1098" rx="172.65" ry="18"/>
<text text-anchor="middle" x="563.7" y="-1092.95" font-family="Times New Roman,serif" font-size="14.00">You: 听起来我们需要调查一下。</text>
</g>
<!-- 2&#45;&gt;16 -->
<g id="edge3" class="edge">
<title>2&#45;&gt;16</title>
<path fill="none" stroke="black" d="M563.7,-1151.7C563.7,-1144.41 563.7,-1135.73 563.7,-1127.54"/>
<polygon fill="black" stroke="black" points="567.2,-1127.62 563.7,-1117.62 560.2,-1127.62 567.2,-1127.62"/>
</g>
<!-- 19 -->
<g id="node20" class="node">
<title>19</title>
<ellipse fill="none" stroke="black" cx="1181.7" cy="-1098" rx="169.07" ry="18"/>
<text text-anchor="middle" x="1181.7" y="-1092.95" font-family="Times New Roman,serif" font-size="14.00">You: “喂，金，我们这是在哪？”</text>
</g>
<!-- 2&#45;&gt;19 -->
<g id="edge4" class="edge">
<title>2&#45;&gt;19</title>
<path fill="none" stroke="black" d="M711.72,-1152.23C817.28,-1140.28 957.61,-1124.38 1057.37,-1113.08"/>
<polygon fill="black" stroke="black" points="1057.68,-1116.57 1067.22,-1111.97 1056.89,-1109.61 1057.68,-1116.57"/>
</g>
<!-- 3 -->
<g id="node4" class="node">
<title>3</title>
<ellipse fill="none" stroke="black" cx="874.7" cy="-378" rx="115.33" ry="18"/>
<text text-anchor="middle" x="874.7" y="-372.95" font-family="Times New Roman,serif" font-size="14.00">CheckEquipped(&quot;neck_tie&quot;)</text>
</g>
<!-- 4 -->
<g id="node5" class="node">
<title>4</title>
<polygon fill="none" stroke="black" points="874.7,-324 711.6,-306 874.7,-288 1037.79,-306 874.7,-324"/>
<text text-anchor="middle" x="874.7" y="-300.95" font-family="Times New Roman,serif" font-size="14.00">CheckEquipped(&quot;neck_tie&quot;)</text>
</g>
<!-- 3&#45;&gt;4 -->
<g id="edge6" class="edge">
<title>3&#45;&gt;4</title>
<path fill="none" stroke="black" d="M874.7,-359.7C874.7,-352.41 874.7,-343.73 874.7,-335.54"/>
<polygon fill="black" stroke="black" points="878.2,-335.62 874.7,-325.62 871.2,-335.62 878.2,-335.62"/>
</g>
<!-- 5 -->
<g id="node6" class="node">
<title>5</title>
<polygon fill="none" stroke="black" points="1850.7,-324 1674.57,-306 1850.7,-288 2026.82,-306 1850.7,-324"/>
<text text-anchor="middle" x="1850.7" y="-300.95" font-family="Times New Roman,serif" font-size="14.00">!(CheckEquipped(&quot;neck_tie&quot;))</text>
</g>
<!-- 3&#45;&gt;5 -->
<g id="edge7" class="edge">
<title>3&#45;&gt;5</title>
<path fill="none" stroke="black" d="M977.76,-369.61C1162.4,-356.37 1548.06,-328.71 1738.86,-315.02"/>
<polygon fill="black" stroke="black" points="1739.07,-318.51 1748.8,-314.31 1738.57,-311.53 1739.07,-318.51"/>
</g>
<!-- 35 -->
<g id="node35" class="node">
<title>35</title>
<ellipse fill="none" stroke="black" cx="874.7" cy="-234" rx="742.8" ry="18"/>
<text text-anchor="middle" x="874.7" y="-228.95" font-family="Times New Roman,serif" font-size="14.00">Horrific Necktie: 你他妈最好别想着因为那条劣质又肮脏的领带甩开我。你和我正在为*最终决战*做准备，而且一定会*盛况空前*。你等着看好吧。</text>
</g>
<!-- 4&#45;&gt;35 -->
<g id="edge8" class="edge">
<title>4&#45;&gt;35</title>
<path fill="none" stroke="black" d="M874.7,-287.7C874.7,-280.41 874.7,-271.73 874.7,-263.54"/>
<polygon fill="black" stroke="black" points="878.2,-263.62 874.7,-253.62 871.2,-263.62 878.2,-263.62"/>
</g>
<!-- 36 -->
<g id="node36" class="node">
<title>36</title>
<ellipse fill="none" stroke="black" cx="2470.7" cy="-234" rx="835.44" ry="18"/>
<text text-anchor="middle" x="2470.7" y="-228.95" font-family="Times New Roman,serif" font-size="14.00">Horrific Necktie: 你就因为那坨屎把*我*取下来？你他妈是白痴吧！马上给我把那条可怕的领带戴回去——不然你会错过最终决战的。最后警告你一次。把我戴回去。</text>
</g>
<!-- 5&#45;&gt;36 -->
<g id="edge9" class="edge">
<title>5&#45;&gt;36</title>
<path fill="none" stroke="black" d="M1931.75,-295.85C2026.68,-285.13 2186.34,-267.1 2307.3,-253.45"/>
<polygon fill="black" stroke="black" points="2307.47,-256.95 2317.01,-252.35 2306.68,-250 2307.47,-256.95"/>
</g>
<!-- 6 -->
<g id="node7" class="node">
<title>6</title>
<ellipse fill="none" stroke="black" cx="103.7" cy="-18" rx="98.95" ry="18"/>
<text text-anchor="middle" x="103.7" y="-12.95" font-family="Times New Roman,serif" font-size="14.00">Jump to: [Untitled hub]</text>
</g>
<!-- 18 -->
<g id="node19" class="node">
<title>18</title>
<ellipse fill="none" stroke="black" cx="1310.7" cy="-882" rx="57.49" ry="18"/>
<text text-anchor="middle" x="1310.7" y="-876.95" font-family="Times New Roman,serif" font-size="14.00">Untitled hub</text>
</g>
<!-- 6&#45;&gt;18 -->
<g id="edge10" class="edge">
<title>6&#45;&gt;18</title>
<path fill="none" stroke="black" d="M96.01,-36.09C84.9,-62.38 65.7,-114.55 65.7,-161 65.7,-739 65.7,-739 65.7,-739 65.7,-858.37 980.88,-877.43 1241.94,-880.44"/>
<polygon fill="black" stroke="black" points="1241.59,-883.94 1251.63,-880.55 1241.67,-876.94 1241.59,-883.94"/>
</g>
<!-- 7 -->
<g id="node8" class="node">
<title>7</title>
<ellipse fill="none" stroke="black" cx="874.7" cy="-162" rx="290.37" ry="18"/>
<text text-anchor="middle" x="874.7" y="-156.95" font-family="Times New Roman,serif" font-size="14.00">Half Light: 你的领带听起来很吓人。永远别把它取下来。</text>
</g>
<!-- 14 -->
<g id="node15" class="node">
<title>14</title>
<ellipse fill="none" stroke="black" cx="874.7" cy="-90" rx="352.29" ry="18"/>
<text text-anchor="middle" x="874.7" y="-84.95" font-family="Times New Roman,serif" font-size="14.00">Inland Empire: 没错。我同意。你不应该把领带取下来，永远也不要。</text>
</g>
<!-- 7&#45;&gt;14 -->
<g id="edge11" class="edge">
<title>7&#45;&gt;14</title>
<path fill="none" stroke="black" d="M874.7,-143.7C874.7,-136.41 874.7,-127.73 874.7,-119.54"/>
<polygon fill="black" stroke="black" points="878.2,-119.62 874.7,-109.62 871.2,-119.62 878.2,-119.62"/>
</g>
<!-- 8 -->
<g id="node9" class="node">
<title>8</title>
<ellipse fill="none" stroke="black" cx="434.7" cy="-954" rx="356.9" ry="18"/>
<text text-anchor="middle" x="434.7" y="-948.95" font-family="Times New Roman,serif" font-size="14.00">Half Light: 你突然有点害怕这张椅子。看起来像有鲜血从上面滑落……</text>
</g>
<!-- 9 -->
<g id="node10" class="node">
<title>9</title>
<ellipse fill="none" stroke="black" cx="544.7" cy="-522" rx="162.41" ry="18"/>
<text text-anchor="middle" x="544.7" y="-516.95" font-family="Times New Roman,serif" font-size="14.00">Variable[&quot;whirling.necktie_personified&quot;]</text>
</g>
<!-- 10 -->
<g id="node11" class="node">
<title>10</title>
<polygon fill="none" stroke="black" points="797.7,-468 568.01,-450 797.7,-432 1027.38,-450 797.7,-468"/>
<text text-anchor="middle" x="797.7" y="-444.95" font-family="Times New Roman,serif" font-size="14.00">Variable[&quot;whirling.necktie_personified&quot;]</text>
</g>
<!-- 9&#45;&gt;10 -->
<g id="edge12" class="edge">
<title>9&#45;&gt;10</title>
<path fill="none" stroke="black" d="M603.37,-504.76C643.67,-493.62 697,-478.86 737.6,-467.63"/>
<polygon fill="black" stroke="black" points="738.53,-471 747.23,-464.96 736.66,-464.26 738.53,-471"/>
</g>
<!-- 11 -->
<g id="node12" class="node">
<title>11</title>
<polygon fill="none" stroke="black" points="417.7,-396 174.98,-378 417.7,-360 660.41,-378 417.7,-396"/>
<text text-anchor="middle" x="417.7" y="-372.95" font-family="Times New Roman,serif" font-size="14.00">!(Variable[&quot;whirling.necktie_personified&quot;])</text>
</g>
<!-- 9&#45;&gt;11 -->
<g id="edge13" class="edge">
<title>9&#45;&gt;11</title>
<path fill="none" stroke="black" d="M529.12,-503.59C506.67,-478.49 465.12,-432.02 439.59,-403.48"/>
<polygon fill="black" stroke="black" points="442.5,-401.49 433.23,-396.37 437.28,-406.15 442.5,-401.49"/>
</g>
<!-- 10&#45;&gt;3 -->
<g id="edge14" class="edge">
<title>10&#45;&gt;3</title>
<path fill="none" stroke="black" d="M815.17,-433.12C824.76,-424.39 836.87,-413.39 847.65,-403.58"/>
<polygon fill="black" stroke="black" points="849.78,-406.38 854.83,-397.06 845.07,-401.2 849.78,-406.38"/>
</g>
<!-- 11&#45;&gt;6 -->
<g id="edge15" class="edge">
<title>11&#45;&gt;6</title>
<path fill="none" stroke="black" d="M291.34,-368.92C204.08,-355.67 103.7,-321.6 103.7,-235 103.7,-235 103.7,-235 103.7,-161 103.7,-121.74 103.7,-76.38 103.7,-47.69"/>
<polygon fill="black" stroke="black" points="107.2,-48 103.7,-38 100.2,-48 107.2,-48"/>
</g>
<!-- 12 -->
<g id="node13" class="node">
<title>12</title>
<ellipse fill="none" stroke="black" cx="1310.7" cy="-810" rx="169.07" ry="18"/>
<text text-anchor="middle" x="1310.7" y="-804.95" font-family="Times New Roman,serif" font-size="14.00">You: “这把红椅子是怎么回事？”</text>
</g>
<!-- 30 -->
<g id="node31" class="node">
<title>30</title>
<ellipse fill="none" stroke="black" cx="1400.7" cy="-738" rx="348.71" ry="18"/>
<text text-anchor="middle" x="1400.7" y="-732.95" font-family="Times New Roman,serif" font-size="14.00">Kim Kitsuragi: “没什么。只是一件家具。”他看着椅子上堆积的灰尘。</text>
</g>
<!-- 12&#45;&gt;30 -->
<g id="edge16" class="edge">
<title>12&#45;&gt;30</title>
<path fill="none" stroke="black" d="M1332.94,-791.7C1343.98,-783.11 1357.49,-772.61 1369.53,-763.24"/>
<polygon fill="black" stroke="black" points="1371.45,-766.18 1377.2,-757.28 1367.16,-760.65 1371.45,-766.18"/>
</g>
<!-- 14&#45;&gt;6 -->
<g id="edge17" class="edge">
<title>14&#45;&gt;6</title>
<path fill="none" stroke="black" d="M706.92,-73.77C552.66,-59.76 329.18,-39.47 202.01,-27.93"/>
<polygon fill="black" stroke="black" points="202.54,-24.46 192.27,-27.04 201.91,-31.43 202.54,-24.46"/>
</g>
<!-- 15 -->
<g id="node16" class="node">
<title>15</title>
<ellipse fill="none" stroke="black" cx="1390.7" cy="-666" rx="328.75" ry="18"/>
<text text-anchor="middle" x="1390.7" y="-660.95" font-family="Times New Roman,serif" font-size="14.00">Inland Empire: 红色的油漆从上面剥落。看起来像鲜血，不是吗？</text>
</g>
<!-- 21 -->
<g id="node22" class="node">
<title>21</title>
<ellipse fill="none" stroke="black" cx="1202.7" cy="-594" rx="98.95" ry="18"/>
<text text-anchor="middle" x="1202.7" y="-588.95" font-family="Times New Roman,serif" font-size="14.00">Jump to: [Untitled hub]</text>
</g>
<!-- 15&#45;&gt;21 -->
<g id="edge18" class="edge">
<title>15&#45;&gt;21</title>
<path fill="none" stroke="black" d="M1344.22,-647.7C1317.35,-637.69 1283.43,-625.06 1255.54,-614.68"/>
<polygon fill="black" stroke="black" points="1256.8,-611.41 1246.2,-611.2 1254.35,-617.97 1256.8,-611.41"/>
</g>
<!-- 32 -->
<g id="node33" class="node">
<title>32</title>
<ellipse fill="none" stroke="black" cx="434.7" cy="-1026" rx="434.7" ry="18"/>
<text text-anchor="middle" x="434.7" y="-1020.95" font-family="Times New Roman,serif" font-size="14.00">Inland Empire: 调查这把血红色的椅子？你还是放着它别管了，哈里。你必须这么做。</text>
</g>
<!-- 16&#45;&gt;32 -->
<g id="edge19" class="edge">
<title>16&#45;&gt;32</title>
<path fill="none" stroke="black" d="M532.14,-1079.88C515.48,-1070.83 494.8,-1059.62 476.79,-1049.84"/>
<polygon fill="black" stroke="black" points="478.61,-1046.85 468.15,-1045.16 475.27,-1053 478.61,-1046.85"/>
</g>
<!-- 17 -->
<g id="node18" class="node">
<title>17</title>
<ellipse fill="none" stroke="black" cx="1310.7" cy="-1026" rx="423.44" ry="18"/>
<text text-anchor="middle" x="1310.7" y="-1020.95" font-family="Times New Roman,serif" font-size="14.00">Kim Kitsuragi: “在某人废弃的棚屋里。海岸边。马丁内斯……”他看着你。“瑞瓦肖。”</text>
</g>
<!-- 27 -->
<g id="node28" class="node">
<title>27</title>
<ellipse fill="none" stroke="black" cx="1310.7" cy="-954" rx="165.48" ry="18"/>
<text text-anchor="middle" x="1310.7" y="-948.95" font-family="Times New Roman,serif" font-size="14.00">Rhetoric: 他害怕你会突然忘记。</text>
</g>
<!-- 17&#45;&gt;27 -->
<g id="edge20" class="edge">
<title>17&#45;&gt;27</title>
<path fill="none" stroke="black" d="M1310.7,-1007.7C1310.7,-1000.41 1310.7,-991.73 1310.7,-983.54"/>
<polygon fill="black" stroke="black" points="1314.2,-983.62 1310.7,-973.62 1307.2,-983.62 1314.2,-983.62"/>
</g>
<!-- 18&#45;&gt;12 -->
<g id="edge21" class="edge">
<title>18&#45;&gt;12</title>
<path fill="none" stroke="black" d="M1310.7,-863.7C1310.7,-856.41 1310.7,-847.73 1310.7,-839.54"/>
<polygon fill="black" stroke="black" points="1314.2,-839.62 1310.7,-829.62 1307.2,-839.62 1314.2,-839.62"/>
</g>
<!-- 20 -->
<g id="node21" class="node">
<title>20</title>
<ellipse fill="none" stroke="black" cx="644.7" cy="-810" rx="251.47" ry="18"/>
<text text-anchor="middle" x="644.7" y="-804.95" font-family="Times New Roman,serif" font-size="14.00">You: “这条红领带是怎么回事？”（拿给他看。）</text>
</g>
<!-- 18&#45;&gt;20 -->
<g id="edge22" class="edge">
<title>18&#45;&gt;20</title>
<path fill="none" stroke="black" d="M1256.76,-875.33C1157.01,-864.85 940.52,-842.09 793.66,-826.66"/>
<polygon fill="black" stroke="black" points="794.14,-823.19 783.83,-825.62 793.41,-830.15 794.14,-823.19"/>
</g>
<!-- 22 -->
<g id="node23" class="node">
<title>22</title>
<ellipse fill="none" stroke="black" cx="2167.7" cy="-810" rx="204.38" ry="18"/>
<text text-anchor="middle" x="2167.7" y="-804.95" font-family="Times New Roman,serif" font-size="14.00">You: “我们的嫌疑人会不会待在这里？”</text>
</g>
<!-- 18&#45;&gt;22 -->
<g id="edge23" class="edge">
<title>18&#45;&gt;22</title>
<path fill="none" stroke="black" d="M1365.94,-876.49C1494.12,-866.02 1815.65,-839.76 2010.37,-823.85"/>
<polygon fill="black" stroke="black" points="2010.37,-827.36 2020.05,-823.06 2009.8,-820.39 2010.37,-827.36"/>
</g>
<!-- 31 -->
<g id="node32" class="node">
<title>31</title>
<ellipse fill="none" stroke="black" cx="1684.7" cy="-810" rx="186.98" ry="18"/>
<text text-anchor="middle" x="1684.7" y="-804.95" font-family="Times New Roman,serif" font-size="14.00">You: “好吧。我们走。”[完成思维。]</text>
</g>
<!-- 18&#45;&gt;31 -->
<g id="edge24" class="edge">
<title>18&#45;&gt;31</title>
<path fill="none" stroke="black" d="M1359.21,-871.92C1417.58,-861 1516.91,-842.4 1590.53,-828.63"/>
<polygon fill="black" stroke="black" points="1590.98,-832.1 1600.16,-826.82 1589.69,-825.22 1590.98,-832.1"/>
</g>
<!-- 19&#45;&gt;17 -->
<g id="edge25" class="edge">
<title>19&#45;&gt;17</title>
<path fill="none" stroke="black" d="M1213.25,-1079.88C1229.92,-1070.83 1250.59,-1059.62 1268.6,-1049.84"/>
<polygon fill="black" stroke="black" points="1270.12,-1053 1277.24,-1045.16 1266.78,-1046.85 1270.12,-1053"/>
</g>
<!-- 34 -->
<g id="node34" class="node">
<title>34</title>
<ellipse fill="none" stroke="black" cx="544.7" cy="-738" rx="450.56" ry="18"/>
<text text-anchor="middle" x="544.7" y="-732.95" font-family="Times New Roman,serif" font-size="14.00">Kim Kitsuragi: “只是你捡到的一件衣物。你是会这么做，警官——有时候你会收集衣服。”</text>
</g>
<!-- 20&#45;&gt;34 -->
<g id="edge26" class="edge">
<title>20&#45;&gt;34</title>
<path fill="none" stroke="black" d="M619.98,-791.7C607.48,-782.95 592.12,-772.19 578.54,-762.69"/>
<polygon fill="black" stroke="black" points="580.92,-760.08 570.72,-757.21 576.9,-765.82 580.92,-760.08"/>
</g>
<!-- 21&#45;&gt;18 -->
<g id="edge27" class="edge">
<title>21&#45;&gt;18</title>
<path fill="none" stroke="black" d="M1125.28,-605.55C1098.48,-613.08 1070.68,-625.96 1052.7,-648 1047.25,-654.67 1032.31,-734.39 1042.7,-756 1079.12,-831.78 1178.63,-861.76 1245.59,-873.53"/>
<polygon fill="black" stroke="black" points="1244.94,-876.97 1255.38,-875.14 1246.08,-870.06 1244.94,-876.97"/>
</g>
<!-- 25 -->
<g id="node26" class="node">
<title>25</title>
<ellipse fill="none" stroke="black" cx="2241.7" cy="-738" rx="474.62" ry="18"/>
<text text-anchor="middle" x="2241.7" y="-732.95" font-family="Times New Roman,serif" font-size="14.00">Kim Kitsuragi: “这里？”他看了看周围。“我没看见最近有人居住过的痕迹。这里已经废弃了。”</text>
</g>
<!-- 22&#45;&gt;25 -->
<g id="edge28" class="edge">
<title>22&#45;&gt;25</title>
<path fill="none" stroke="black" d="M2185.99,-791.7C2194.79,-783.37 2205.52,-773.22 2215.2,-764.07"/>
<polygon fill="black" stroke="black" points="2217.4,-766.8 2222.26,-757.39 2212.59,-761.72 2217.4,-766.8"/>
</g>
<!-- 23 -->
<g id="node24" class="node">
<title>23</title>
<ellipse fill="none" stroke="black" cx="544.7" cy="-666" rx="261.7" ry="18"/>
<text text-anchor="middle" x="544.7" y="-660.95" font-family="Times New Roman,serif" font-size="14.00">Empathy: 他听起来有些担心。这是个奇怪的习惯。</text>
</g>
<!-- 26 -->
<g id="node27" class="node">
<title>26</title>
<ellipse fill="none" stroke="black" cx="544.7" cy="-594" rx="247.37" ry="18"/>
<text text-anchor="middle" x="544.7" y="-588.95" font-family="Times New Roman,serif" font-size="14.00">Composure: 别担心，警督。衣服是有益健康的。</text>
</g>
<!-- 23&#45;&gt;26 -->
<g id="edge29" class="edge">
<title>23&#45;&gt;26</title>
<path fill="none" stroke="black" d="M544.7,-647.7C544.7,-640.41 544.7,-631.73 544.7,-623.54"/>
<polygon fill="black" stroke="black" points="548.2,-623.62 544.7,-613.62 541.2,-623.62 548.2,-623.62"/>
</g>
<!-- 24 -->
<g id="node25" class="node">
<title>24</title>
<ellipse fill="none" stroke="black" cx="2590.7" cy="-594" rx="98.95" ry="18"/>
<text text-anchor="middle" x="2590.7" y="-588.95" font-family="Times New Roman,serif" font-size="14.00">Jump to: [Untitled hub]</text>
</g>
<!-- 24&#45;&gt;18 -->
<g id="edge30" class="edge">
<title>24&#45;&gt;18</title>
<path fill="none" stroke="black" d="M2622.53,-611.32C2674.87,-640.24 2769.18,-702.5 2725.7,-756 2639.91,-861.53 1651.41,-878.01 1379.53,-880.54"/>
<polygon fill="black" stroke="black" points="1379.75,-877.04 1369.78,-880.63 1379.81,-884.04 1379.75,-877.04"/>
</g>
<!-- 29 -->
<g id="node30" class="node">
<title>29</title>
<ellipse fill="none" stroke="black" cx="2339.7" cy="-666" rx="278.08" ry="18"/>
<text text-anchor="middle" x="2339.7" y="-660.95" font-family="Times New Roman,serif" font-size="14.00">Suggestion: 看见没？他也不喜欢这把红椅子的*波动*。</text>
</g>
<!-- 25&#45;&gt;29 -->
<g id="edge31" class="edge">
<title>25&#45;&gt;29</title>
<path fill="none" stroke="black" d="M2265.92,-719.7C2278.05,-711.03 2292.94,-700.4 2306.15,-690.96"/>
<polygon fill="black" stroke="black" points="2308.08,-693.89 2314.18,-685.23 2304.01,-688.19 2308.08,-693.89"/>
</g>
<!-- 26&#45;&gt;9 -->
<g id="edge32" class="edge">
<title>26&#45;&gt;9</title>
<path fill="none" stroke="black" d="M544.7,-575.7C544.7,-568.41 544.7,-559.73 544.7,-551.54"/>
<polygon fill="black" stroke="black" points="548.2,-551.62 544.7,-541.62 541.2,-551.62 548.2,-551.62"/>
</g>
<!-- 27&#45;&gt;18 -->
<g id="edge33" class="edge">
<title>27&#45;&gt;18</title>
<path fill="none" stroke="black" d="M1310.7,-935.7C1310.7,-928.41 1310.7,-919.73 1310.7,-911.54"/>
<polygon fill="black" stroke="black" points="1314.2,-911.62 1310.7,-901.62 1307.2,-911.62 1314.2,-911.62"/>
</g>
<!-- 28 -->
<g id="node29" class="node">
<title>28</title>
<ellipse fill="none" stroke="black" cx="2012.7" cy="-162" rx="372.77" ry="18"/>
<text text-anchor="middle" x="2012.7" y="-156.95" font-family="Times New Roman,serif" font-size="14.00">Half Light: 你的领带听起来很吓人。不戴好像不太安全，还是戴回去吧。</text>
</g>
<!-- 28&#45;&gt;14 -->
<g id="edge34" class="edge">
<title>28&#45;&gt;14</title>
<path fill="none" stroke="black" d="M1788.54,-147.21C1591.06,-135.06 1304.59,-117.44 1105.22,-105.18"/>
<polygon fill="black" stroke="black" points="1105.71,-101.7 1095.52,-104.58 1105.28,-108.69 1105.71,-101.7"/>
</g>
<!-- 29&#45;&gt;24 -->
<g id="edge35" class="edge">
<title>29&#45;&gt;24</title>
<path fill="none" stroke="black" d="M2400.78,-647.97C2439.24,-637.24 2488.78,-623.42 2527.62,-612.59"/>
<polygon fill="black" stroke="black" points="2528.13,-616.08 2536.82,-610.03 2526.25,-609.34 2528.13,-616.08"/>
</g>
<!-- 30&#45;&gt;15 -->
<g id="edge36" class="edge">
<title>30&#45;&gt;15</title>
<path fill="none" stroke="black" d="M1398.22,-719.7C1397.17,-712.32 1395.91,-703.52 1394.73,-695.25"/>
<polygon fill="black" stroke="black" points="1398.23,-695.01 1393.35,-685.6 1391.3,-696 1398.23,-695.01"/>
</g>
<!-- 32&#45;&gt;8 -->
<g id="edge37" class="edge">
<title>32&#45;&gt;8</title>
<path fill="none" stroke="black" d="M434.7,-1007.7C434.7,-1000.41 434.7,-991.73 434.7,-983.54"/>
<polygon fill="black" stroke="black" points="438.2,-983.62 434.7,-973.62 431.2,-983.62 438.2,-983.62"/>
</g>
<!-- 34&#45;&gt;23 -->
<g id="edge38" class="edge">
<title>34&#45;&gt;23</title>
<path fill="none" stroke="black" d="M544.7,-719.7C544.7,-712.41 544.7,-703.73 544.7,-695.54"/>
<polygon fill="black" stroke="black" points="548.2,-695.62 544.7,-685.62 541.2,-695.62 548.2,-695.62"/>
</g>
<!-- 35&#45;&gt;7 -->
<g id="edge39" class="edge">
<title>35&#45;&gt;7</title>
<path fill="none" stroke="black" d="M874.7,-215.7C874.7,-208.41 874.7,-199.73 874.7,-191.54"/>
<polygon fill="black" stroke="black" points="878.2,-191.62 874.7,-181.62 871.2,-191.62 878.2,-191.62"/>
</g>
<!-- 36&#45;&gt;28 -->
<g id="edge40" class="edge">
<title>36&#45;&gt;28</title>
<path fill="none" stroke="black" d="M2357.48,-215.7C2289.21,-205.26 2202.32,-191.98 2132.84,-181.36"/>
<polygon fill="black" stroke="black" points="2133.76,-177.96 2123.34,-179.91 2132.7,-184.88 2133.76,-177.96"/>
</g>
</g>
</svg>
