<?xml version="1.0" encoding="UTF-8" standalone="no"?>
<!DOCTYPE svg PUBLIC "-//W3C//DTD SVG 1.1//EN"
 "http://www.w3.org/Graphics/SVG/1.1/DTD/svg11.dtd">
<!-- Generated by graphviz version 12.2.1 (20241206.2353)
 -->
<!-- Title: G Pages: 1 -->
<svg width="8953pt" height="997pt"
 viewBox="0.00 0.00 8952.80 997.28" xmlns="http://www.w3.org/2000/svg" xmlns:xlink="http://www.w3.org/1999/xlink">
<g id="graph0" class="graph" transform="scale(1 1) rotate(0) translate(4 993.28)">
<title>G</title>
<polygon fill="white" stroke="none" points="-4,4 -4,-993.28 8948.8,-993.28 8948.8,4 -4,4"/>
<!-- 0 -->
<g id="node1" class="node">
<title>0</title>
<ellipse fill="none" stroke="black" cx="4269.8" cy="-971.28" rx="39.07" ry="18"/>
<text text-anchor="middle" x="4269.8" y="-966.23" font-family="Times New Roman,serif" font-size="14.00">START</text>
</g>
<!-- 0&#45;&gt;0 -->
<g id="edge1" class="edge">
<title>0&#45;&gt;0</title>
<path fill="none" stroke="black" d="M4297.99,-984.23C4313.1,-986.43 4326.87,-982.11 4326.87,-971.28 4326.87,-963.25 4319.29,-958.8 4309.2,-957.94"/>
<polygon fill="black" stroke="black" points="4309.37,-954.43 4299.5,-958.29 4309.62,-961.42 4309.37,-954.43"/>
</g>
<!-- 1 -->
<g id="node2" class="node">
<title>1</title>
<ellipse fill="none" stroke="black" cx="6365.8" cy="-683.28" rx="29.86" ry="18"/>
<text text-anchor="middle" x="6365.8" y="-678.23" font-family="Times New Roman,serif" font-size="14.00">input</text>
</g>
<!-- 5 -->
<g id="node6" class="node">
<title>5</title>
<ellipse fill="none" stroke="black" cx="5143.8" cy="-600.29" rx="275.01" ry="18"/>
<text text-anchor="middle" x="5143.8" y="-595.24" font-family="Times New Roman,serif" font-size="14.00">You: “还有，我研究了犯罪现场的足迹。是工作靴。”</text>
</g>
<!-- 1&#45;&gt;5 -->
<g id="edge4" class="edge">
<title>1&#45;&gt;5</title>
<path fill="none" stroke="black" d="M6336.41,-678.82C6302.9,-674.99 6246.48,-668.88 6197.8,-665.28 5856.14,-640.03 5769.5,-654.09 5427.8,-629.28 5383.82,-626.09 5336.1,-621.73 5292.54,-617.41"/>
<polygon fill="black" stroke="black" points="5293.07,-613.94 5282.78,-616.43 5292.38,-620.91 5293.07,-613.94"/>
</g>
<!-- 11 -->
<g id="node12" class="node">
<title>11</title>
<ellipse fill="none" stroke="black" cx="7301.8" cy="-600.29" rx="952.65" ry="28.99"/>
<text text-anchor="middle" x="7301.8" y="-603.49" font-family="Times New Roman,serif" font-size="14.00">Kim Kitsuragi: “克莱尔先生。那个男人是被一条货物带吊起来的。一条钢骨货物带。可以这么推测，工会跟这起凶杀案有着*某种*关联的。”</text>
<text text-anchor="middle" x="7301.8" y="-586.99" font-family="Times New Roman,serif" font-size="14.00">“克莱尔先生。那个男人是被一条货物带吊起来的。一条钢骨货物带，就像你旁边的这种一样。侧面还有“弗米利恩”的标志。可以这么推测，你跟这起凶杀案有着*某种*关联的。”</text>
</g>
<!-- 1&#45;&gt;11 -->
<g id="edge5" class="edge">
<title>1&#45;&gt;11</title>
<path fill="none" stroke="black" d="M6395.36,-679.73C6484.25,-672.03 6756.74,-648.46 6979.94,-629.14"/>
<polygon fill="black" stroke="black" points="6980.03,-632.65 6989.69,-628.3 6979.43,-625.67 6980.03,-632.65"/>
</g>
<!-- 33 -->
<g id="node34" class="node">
<title>33</title>
<ellipse fill="none" stroke="black" cx="8043.8" cy="-172.99" rx="873.32" ry="18"/>
<text text-anchor="middle" x="8043.8" y="-167.94" font-family="Times New Roman,serif" font-size="14.00">Evrart Claire: “让·卢克，在刚才那场肉搏战中打败你的警察在我这里，他碰到一个*树上的尸体*的小问题。也就是说，他需要把尸体弄下来。请向他展示一下你的好意吧。”</text>
</g>
<!-- 1&#45;&gt;33 -->
<g id="edge2" class="edge">
<title>1&#45;&gt;33</title>
<path fill="none" stroke="black" d="M6396.1,-682.31C6633.01,-682.43 8181.39,-681.2 8263.8,-629.28 8310.72,-599.73 8320.8,-573.75 8320.8,-518.3 8320.8,-518.3 8320.8,-518.3 8320.8,-349.64 8320.8,-262.9 8222.72,-217.19 8143.28,-194.4"/>
<polygon fill="black" stroke="black" points="8144.24,-191.03 8133.67,-191.74 8142.37,-197.78 8144.24,-191.03"/>
</g>
<!-- 36 -->
<g id="node37" class="node">
<title>36</title>
<ellipse fill="none" stroke="black" cx="5766.8" cy="-600.29" rx="329.78" ry="18"/>
<text text-anchor="middle" x="5766.8" y="-595.24" font-family="Times New Roman,serif" font-size="14.00">You: “你好像是这个社区的领导者——就当是为了这个社区吧。”</text>
</g>
<!-- 1&#45;&gt;36 -->
<g id="edge3" class="edge">
<title>1&#45;&gt;36</title>
<path fill="none" stroke="black" d="M6336.91,-678.38C6258.9,-667.83 6040.28,-638.27 5897.56,-618.97"/>
<polygon fill="black" stroke="black" points="5898.44,-615.56 5888.06,-617.69 5897.5,-622.5 5898.44,-615.56"/>
</g>
<!-- 45 -->
<g id="node46" class="node">
<title>45</title>
<ellipse fill="none" stroke="black" cx="6222.8" cy="-600.29" rx="108.16" ry="18"/>
<text text-anchor="middle" x="6222.8" y="-595.24" font-family="Times New Roman,serif" font-size="14.00">Jump to: [EVRARTHUB]</text>
</g>
<!-- 1&#45;&gt;45 -->
<g id="edge6" class="edge">
<title>1&#45;&gt;45</title>
<path fill="none" stroke="black" d="M6344.7,-670.33C6323.07,-658.08 6288.92,-638.74 6262.26,-623.64"/>
<polygon fill="black" stroke="black" points="6264.19,-620.71 6253.77,-618.83 6260.74,-626.8 6264.19,-620.71"/>
</g>
<!-- 2 -->
<g id="node3" class="node">
<title>2</title>
<ellipse fill="none" stroke="black" cx="4299.8" cy="-445.3" rx="670.13" ry="18"/>
<text text-anchor="middle" x="4299.8" y="-440.25" font-family="Times New Roman,serif" font-size="14.00">Evrart Claire: 他露出一个探寻的表情，然后开心地笑了。“不要以为我是在针对某个人，不过我*为什么*要卷入这种事情呢，哈里？”</text>
</g>
<!-- 15 -->
<g id="node16" class="node">
<title>15</title>
<ellipse fill="none" stroke="black" cx="4299.8" cy="-350.64" rx="360.48" ry="18"/>
<text text-anchor="middle" x="4299.8" y="-345.59" font-family="Times New Roman,serif" font-size="14.00">Kim Kitsuragi: “你可能已经注意到了，旅社背后的树上挂着一具尸体。”</text>
</g>
<!-- 2&#45;&gt;15 -->
<g id="edge7" class="edge">
<title>2&#45;&gt;15</title>
<path fill="none" stroke="black" d="M4299.8,-426.87C4299.8,-413.8 4299.8,-395.62 4299.8,-380.4"/>
<polygon fill="black" stroke="black" points="4303.3,-380.51 4299.8,-370.51 4296.3,-380.51 4303.3,-380.51"/>
</g>
<!-- 3 -->
<g id="node4" class="node">
<title>3</title>
<ellipse fill="none" stroke="black" cx="1401.8" cy="-683.28" rx="239.7" ry="18"/>
<text text-anchor="middle" x="1401.8" y="-678.23" font-family="Times New Roman,serif" font-size="14.00">You: “特酿！那个很可疑，非常可疑的特酿。”</text>
</g>
<!-- 7 -->
<g id="node8" class="node">
<title>7</title>
<ellipse fill="none" stroke="black" cx="1401.8" cy="-600.29" rx="580.05" ry="18"/>
<text text-anchor="middle" x="1401.8" y="-595.24" font-family="Times New Roman,serif" font-size="14.00">Evrart Claire: “天啦……”他开心地笑了。“不要以为我是在针对某个人，不过我*为什么*要卷入这种事情呢，哈里？”</text>
</g>
<!-- 3&#45;&gt;7 -->
<g id="edge8" class="edge">
<title>3&#45;&gt;7</title>
<path fill="none" stroke="black" d="M1401.8,-665.11C1401.8,-654.97 1401.8,-641.89 1401.8,-630.21"/>
<polygon fill="black" stroke="black" points="1405.3,-630.24 1401.8,-620.24 1398.3,-630.24 1405.3,-630.24"/>
</g>
<!-- 4 -->
<g id="node5" class="node">
<title>4</title>
<ellipse fill="none" stroke="black" cx="2351.8" cy="-755.28" rx="486.9" ry="18"/>
<text text-anchor="middle" x="2351.8" y="-750.23" font-family="Times New Roman,serif" font-size="14.00">You: “男人脖子上的那条皮带，暗示了工会是脱不了干系的。至少你能稍微帮我们一点忙吧。”</text>
</g>
<!-- 12 -->
<g id="node13" class="node">
<title>12</title>
<ellipse fill="none" stroke="black" cx="4261.8" cy="-517.3" rx="248.91" ry="18"/>
<text text-anchor="middle" x="4261.8" y="-512.25" font-family="Times New Roman,serif" font-size="14.00">Evrart Claire: “什么？”大块头男人吃惊地看着你。</text>
</g>
<!-- 4&#45;&gt;12 -->
<g id="edge9" class="edge">
<title>4&#45;&gt;12</title>
<path fill="none" stroke="black" d="M2391.72,-736.98C2441.35,-716.27 2529.15,-682.27 2607.8,-665.28 3095.39,-559.98 3679.49,-529.88 4006.88,-521.43"/>
<polygon fill="black" stroke="black" points="4006.51,-524.94 4016.42,-521.19 4006.33,-517.94 4006.51,-524.94"/>
</g>
<!-- 5&#45;&gt;12 -->
<g id="edge10" class="edge">
<title>5&#45;&gt;12</title>
<path fill="none" stroke="black" d="M4997.89,-584.63C4953.55,-580.25 4904.69,-575.5 4859.8,-571.3 4714.54,-557.7 4549.33,-543.13 4429.43,-532.71"/>
<polygon fill="black" stroke="black" points="4429.74,-529.23 4419.48,-531.85 4429.14,-536.2 4429.74,-529.23"/>
</g>
<!-- 6 -->
<g id="node7" class="node">
<title>6</title>
<ellipse fill="none" stroke="black" cx="4347.8" cy="-255.98" rx="586.19" ry="18"/>
<text text-anchor="middle" x="4347.8" y="-250.93" font-family="Times New Roman,serif" font-size="14.00">Evrart Claire: “我不知道那是什么意思，哈里。见不得人的阴谋？在我的经营范围很广，我没办法全部追踪到的……”</text>
</g>
<!-- 18 -->
<g id="node19" class="node">
<title>18</title>
<ellipse fill="none" stroke="black" cx="4537.8" cy="-172.99" rx="907.04" ry="28.99"/>
<text text-anchor="middle" x="4537.8" y="-176.19" font-family="Times New Roman,serif" font-size="14.00">Evrart Claire: “还有，让……把你的种族科学理论稍微放松一点。所以，把尸体从树上放下来是*可以的*，讲你那套种族科学理论是*不可以的*。”他挂断电话，然后转向你。</text>
<text text-anchor="middle" x="4537.8" y="-159.69" font-family="Times New Roman,serif" font-size="14.00">“还有，让……把你的种族科学理论稍微放松一点。他已经受够了。”他挂断电话，然后转向你。</text>
</g>
<!-- 6&#45;&gt;18 -->
<g id="edge11" class="edge">
<title>6&#45;&gt;18</title>
<path fill="none" stroke="black" d="M4388.56,-237.61C4409.65,-228.62 4436.09,-217.35 4460.84,-206.8"/>
<polygon fill="black" stroke="black" points="4462.11,-210.06 4469.94,-202.92 4459.36,-203.62 4462.11,-210.06"/>
</g>
<!-- 47 -->
<g id="node48" class="node">
<title>47</title>
<ellipse fill="none" stroke="black" cx="1401.8" cy="-517.3" rx="611.78" ry="18"/>
<text text-anchor="middle" x="1401.8" y="-512.25" font-family="Times New Roman,serif" font-size="14.00">Variable[&quot;yard.hanged_electrochem_vermillion_belt&quot;] &#160;&#160;or &#160;Variable[&quot;yard.hanged_encyclo_cargo_belt_airships&quot;] &#160;or &#160;Variable[&quot;yard.hangedman_saw_the_belt&quot;]</text>
</g>
<!-- 7&#45;&gt;47 -->
<g id="edge12" class="edge">
<title>7&#45;&gt;47</title>
<path fill="none" stroke="black" d="M1401.8,-582.12C1401.8,-571.98 1401.8,-558.9 1401.8,-547.21"/>
<polygon fill="black" stroke="black" points="1405.3,-547.24 1401.8,-537.24 1398.3,-547.24 1405.3,-547.24"/>
</g>
<!-- 8 -->
<g id="node9" class="node">
<title>8</title>
<ellipse fill="none" stroke="black" cx="3406.8" cy="-683.28" rx="790.4" ry="18"/>
<text text-anchor="middle" x="3406.8" y="-678.23" font-family="Times New Roman,serif" font-size="14.00">Evrart Claire: “哦，我怎么把你的小编外项目给忘了呢！做得好，哈里。做得好！其实你都不用费心告诉我的。不过干得漂亮！我喜欢工人有这种主动性。”</text>
</g>
<!-- 20 -->
<g id="node21" class="node">
<title>20</title>
<ellipse fill="none" stroke="black" cx="3750.8" cy="-600.29" rx="102.02" ry="18"/>
<text text-anchor="middle" x="3750.8" y="-595.24" font-family="Times New Roman,serif" font-size="14.00">You: 什么也不说。</text>
</g>
<!-- 8&#45;&gt;20 -->
<g id="edge13" class="edge">
<title>8&#45;&gt;20</title>
<path fill="none" stroke="black" d="M3480.6,-664.91C3539.76,-650.98 3622.24,-631.56 3680.47,-617.85"/>
<polygon fill="black" stroke="black" points="3681.01,-621.32 3689.94,-615.62 3679.4,-614.51 3681.01,-621.32"/>
</g>
<!-- 9 -->
<g id="node10" class="node">
<title>9</title>
<ellipse fill="none" stroke="black" cx="8043.8" cy="-90" rx="296.51" ry="18"/>
<text text-anchor="middle" x="8043.8" y="-84.95" font-family="Times New Roman,serif" font-size="14.00">Drama: 他是真的不知道您在说什么——而且他也不在乎。</text>
</g>
<!-- 39 -->
<g id="node40" class="node">
<title>39</title>
<polygon fill="none" stroke="black" points="8493.8,-36 8398.02,-18 8493.8,0 8589.59,-18 8493.8,-36"/>
<text text-anchor="middle" x="8493.8" y="-12.95" font-family="Times New Roman,serif" font-size="14.00">!(IsKimHere())</text>
</g>
<!-- 9&#45;&gt;39 -->
<g id="edge14" class="edge">
<title>9&#45;&gt;39</title>
<path fill="none" stroke="black" d="M8148.46,-72.72C8236.21,-59.07 8358.56,-40.04 8431.62,-28.67"/>
<polygon fill="black" stroke="black" points="8432.07,-32.15 8441.41,-27.15 8430.99,-25.23 8432.07,-32.15"/>
</g>
<!-- 10 -->
<g id="node11" class="node">
<title>10</title>
<ellipse fill="none" stroke="black" cx="972.8" cy="-350.64" rx="972.8" ry="40.66"/>
<text text-anchor="middle" x="972.8" y="-362.09" font-family="Times New Roman,serif" font-size="14.00">Evrart Claire: “让·卢克就在大门下面。”他又转向了你。“他个头很大，让人印象很深刻。你知道的：纹身啊，肌肉啊——看起来很有民族特色。肯定不会看漏的。他是个很不错的家伙。”</text>
<text text-anchor="middle" x="972.8" y="-345.59" font-family="Times New Roman,serif" font-size="14.00">“让·卢克就在大门下面，不过……”他傻笑起来。“……你已经知道了。不管怎么说，他会帮你的。”</text>
<text text-anchor="middle" x="972.8" y="-329.09" font-family="Times New Roman,serif" font-size="14.00">他又转向你。“让·卢克就在大门下面，不过……”他傻笑起来。“……你已经知道了。不管怎么说，他会帮你的——现在他已经又重新站起来了。”</text>
</g>
<!-- 44 -->
<g id="node45" class="node">
<title>44</title>
<ellipse fill="none" stroke="black" cx="972.8" cy="-255.98" rx="108.16" ry="18"/>
<text text-anchor="middle" x="972.8" y="-250.93" font-family="Times New Roman,serif" font-size="14.00">Jump to: [EVRARTHUB]</text>
</g>
<!-- 10&#45;&gt;44 -->
<g id="edge15" class="edge">
<title>10&#45;&gt;44</title>
<path fill="none" stroke="black" d="M972.8,-309.54C972.8,-301.55 972.8,-293.3 972.8,-285.78"/>
<polygon fill="black" stroke="black" points="976.3,-285.85 972.8,-275.86 969.3,-285.86 976.3,-285.85"/>
</g>
<!-- 13 -->
<g id="node14" class="node">
<title>13</title>
<ellipse fill="none" stroke="black" cx="6774.8" cy="-517.3" rx="564.18" ry="18"/>
<text text-anchor="middle" x="6774.8" y="-512.25" font-family="Times New Roman,serif" font-size="14.00">Evrart Claire: “我确实能看出，他在那里可能会开始影响*某些*房地产的价值。”他舔了一下肥厚的嘴唇，笑了。</text>
</g>
<!-- 11&#45;&gt;13 -->
<g id="edge16" class="edge">
<title>11&#45;&gt;13</title>
<path fill="none" stroke="black" d="M7120.07,-571.36C7046.5,-560.06 6963.48,-547.3 6897.3,-537.13"/>
<polygon fill="black" stroke="black" points="6897.89,-533.68 6887.48,-535.62 6896.83,-540.6 6897.89,-533.68"/>
</g>
<!-- 12&#45;&gt;2 -->
<g id="edge17" class="edge">
<title>12&#45;&gt;2</title>
<path fill="none" stroke="black" d="M4271.2,-499C4275.38,-491.28 4280.42,-482.01 4285.08,-473.41"/>
<polygon fill="black" stroke="black" points="4288.1,-475.19 4289.79,-464.73 4281.95,-471.85 4288.1,-475.19"/>
</g>
<!-- 31 -->
<g id="node32" class="node">
<title>31</title>
<polygon fill="none" stroke="black" points="6774.8,-463.3 6540.05,-445.3 6774.8,-427.3 7009.56,-445.3 6774.8,-463.3"/>
<text text-anchor="middle" x="6774.8" y="-440.25" font-family="Times New Roman,serif" font-size="14.00">!(Variable[&quot;gates.mhead_fight_success&quot;])</text>
</g>
<!-- 13&#45;&gt;31 -->
<g id="edge18" class="edge">
<title>13&#45;&gt;31</title>
<path fill="none" stroke="black" d="M6774.8,-499C6774.8,-491.71 6774.8,-483.03 6774.8,-474.84"/>
<polygon fill="black" stroke="black" points="6778.3,-474.92 6774.8,-464.92 6771.3,-474.92 6778.3,-474.92"/>
</g>
<!-- 14 -->
<g id="node15" class="node">
<title>14</title>
<ellipse fill="none" stroke="black" cx="4403.8" cy="-827.28" rx="454.66" ry="18"/>
<text text-anchor="middle" x="4403.8" y="-822.23" font-family="Times New Roman,serif" font-size="14.00">Kim Kitsuragi: “再说了，把尸体放下来对我们大家都有好处。它是整片街区的一个污点。”</text>
</g>
<!-- 14&#45;&gt;4 -->
<g id="edge22" class="edge">
<title>14&#45;&gt;4</title>
<path fill="none" stroke="black" d="M4067.27,-814.84C3752.11,-804.12 3268.04,-787.64 2847.8,-773.28 2803.55,-771.77 2757.08,-770.18 2711.06,-768.61"/>
<polygon fill="black" stroke="black" points="2711.32,-765.11 2701.2,-768.27 2711.08,-772.11 2711.32,-765.11"/>
</g>
<!-- 19 -->
<g id="node20" class="node">
<title>19</title>
<ellipse fill="none" stroke="black" cx="3750.8" cy="-755.28" rx="893.79" ry="18"/>
<text text-anchor="middle" x="3750.8" y="-750.23" font-family="Times New Roman,serif" font-size="14.00">Evrart Claire: “你知道吗？不用费心告诉我。不管你在计划什么——你去做吧。让我惊讶一下！”他重新考虑了一下。“只有一件事……如果可以的话，请让它变得更*隐蔽*一些。”</text>
</g>
<!-- 14&#45;&gt;19 -->
<g id="edge21" class="edge">
<title>14&#45;&gt;19</title>
<path fill="none" stroke="black" d="M4250.7,-809.87C4152.33,-799.33 4024.36,-785.61 3922.53,-774.69"/>
<polygon fill="black" stroke="black" points="3923.01,-771.22 3912.7,-773.64 3922.27,-778.18 3923.01,-771.22"/>
</g>
<!-- 27 -->
<g id="node28" class="node">
<title>27</title>
<ellipse fill="none" stroke="black" cx="5055.8" cy="-755.28" rx="392.73" ry="18"/>
<text text-anchor="middle" x="5055.8" y="-750.23" font-family="Times New Roman,serif" font-size="14.00">You: “留在犯罪现场的脚印指向某个穿着工作靴的人。可能是个码头工人。”</text>
</g>
<!-- 14&#45;&gt;27 -->
<g id="edge19" class="edge">
<title>14&#45;&gt;27</title>
<path fill="none" stroke="black" d="M4556.67,-809.87C4658.26,-798.96 4791.46,-784.66 4894.7,-773.58"/>
<polygon fill="black" stroke="black" points="4894.79,-777.09 4904.36,-772.54 4894.04,-770.13 4894.79,-777.09"/>
</g>
<!-- 34 -->
<g id="node35" class="node">
<title>34</title>
<ellipse fill="none" stroke="black" cx="7229.8" cy="-755.28" rx="248.91" ry="18"/>
<text text-anchor="middle" x="7229.8" y="-750.23" font-family="Times New Roman,serif" font-size="14.00">Evrart Claire: “什么？”大块头男人困惑地看着你。</text>
</g>
<!-- 14&#45;&gt;34 -->
<g id="edge20" class="edge">
<title>14&#45;&gt;34</title>
<path fill="none" stroke="black" d="M4780.9,-816.94C5370.11,-802.35 6492.65,-774.54 6986.43,-762.31"/>
<polygon fill="black" stroke="black" points="6986.19,-765.82 6996.1,-762.07 6986.02,-758.82 6986.19,-765.82"/>
</g>
<!-- 15&#45;&gt;6 -->
<g id="edge23" class="edge">
<title>15&#45;&gt;6</title>
<path fill="none" stroke="black" d="M4308.83,-332.21C4315.8,-318.75 4325.58,-299.87 4333.6,-284.4"/>
<polygon fill="black" stroke="black" points="4336.63,-286.17 4338.12,-275.68 4330.41,-282.95 4336.63,-286.17"/>
</g>
<!-- 16 -->
<g id="node17" class="node">
<title>16</title>
<ellipse fill="none" stroke="black" cx="1792.8" cy="-755.28" rx="54.42" ry="18"/>
<text text-anchor="middle" x="1792.8" y="-750.23" font-family="Times New Roman,serif" font-size="14.00">notkimstuff</text>
</g>
<!-- 16&#45;&gt;3 -->
<g id="edge26" class="edge">
<title>16&#45;&gt;3</title>
<path fill="none" stroke="black" d="M1745.64,-745.84C1685.79,-735.13 1580.96,-716.36 1502.73,-702.35"/>
<polygon fill="black" stroke="black" points="1503.83,-698.99 1493.37,-700.68 1502.6,-705.88 1503.83,-698.99"/>
</g>
<!-- 26 -->
<g id="node27" class="node">
<title>26</title>
<polygon fill="none" stroke="black" points="2040.8,-701.28 1945.02,-683.28 2040.8,-665.28 2136.59,-683.28 2040.8,-701.28"/>
<text text-anchor="middle" x="2040.8" y="-678.23" font-family="Times New Roman,serif" font-size="14.00">!(IsKimHere())</text>
</g>
<!-- 16&#45;&gt;26 -->
<g id="edge25" class="edge">
<title>16&#45;&gt;26</title>
<path fill="none" stroke="black" d="M1831.01,-742.01C1873.7,-729.41 1942.81,-709.9 1990.01,-697.11"/>
<polygon fill="black" stroke="black" points="1990.71,-700.54 1999.46,-694.56 1988.89,-693.78 1990.71,-700.54"/>
</g>
<!-- 35 -->
<g id="node36" class="node">
<title>35</title>
<ellipse fill="none" stroke="black" cx="1792.8" cy="-683.28" rx="133.75" ry="18"/>
<text text-anchor="middle" x="1792.8" y="-678.23" font-family="Times New Roman,serif" font-size="14.00">You: “是啊，那个皮带！”</text>
</g>
<!-- 16&#45;&gt;35 -->
<g id="edge24" class="edge">
<title>16&#45;&gt;35</title>
<path fill="none" stroke="black" d="M1792.8,-736.98C1792.8,-729.69 1792.8,-721.01 1792.8,-712.82"/>
<polygon fill="black" stroke="black" points="1796.3,-712.9 1792.8,-702.9 1789.3,-712.9 1796.3,-712.9"/>
</g>
<!-- 17 -->
<g id="node18" class="node">
<title>17</title>
<ellipse fill="none" stroke="black" cx="6345.8" cy="-172.99" rx="788.36" ry="18"/>
<text text-anchor="middle" x="6345.8" y="-167.94" font-family="Times New Roman,serif" font-size="14.00">Evrart Claire: “让·卢克，我的兄弟。我这边有个警察要到你那去。他需要有人帮忙处理*树上挂了具尸体*的问题。也就是说，他需要把那具尸体弄*下来*。”</text>
</g>
<!-- 17&#45;&gt;17 -->
<g id="edge27" class="edge">
<title>17&#45;&gt;17</title>
<path fill="none" stroke="black" d="M6787.19,-188.32C6983.1,-189.74 7152.16,-184.63 7152.16,-172.99 7152.16,-161.58 6989.64,-156.45 6798.64,-157.59"/>
<polygon fill="black" stroke="black" points="6798.68,-154.08 6788.7,-157.65 6798.73,-161.08 6798.68,-154.08"/>
</g>
<!-- 18&#45;&gt;9 -->
<g id="edge28" class="edge">
<title>18&#45;&gt;9</title>
<path fill="none" stroke="black" d="M5203.29,-152.96C5318.5,-149.84 5437.12,-146.73 5548.8,-144 6346.86,-124.48 7288.6,-105.6 7753.78,-96.55"/>
<polygon fill="black" stroke="black" points="7753.58,-100.06 7763.51,-96.37 7753.45,-93.06 7753.58,-100.06"/>
</g>
<!-- 19&#45;&gt;8 -->
<g id="edge29" class="edge">
<title>19&#45;&gt;8</title>
<path fill="none" stroke="black" d="M3665.33,-736.89C3616.11,-726.87 3554.11,-714.26 3503.16,-703.89"/>
<polygon fill="black" stroke="black" points="3504.12,-700.51 3493.62,-701.95 3502.72,-707.37 3504.12,-700.51"/>
</g>
<!-- 20&#45;&gt;12 -->
<g id="edge30" class="edge">
<title>20&#45;&gt;12</title>
<path fill="none" stroke="black" d="M3824.83,-587.56C3910.19,-574.03 4051.4,-551.65 4150.13,-536"/>
<polygon fill="black" stroke="black" points="4150.52,-539.48 4159.85,-534.46 4149.43,-532.57 4150.52,-539.48"/>
</g>
<!-- 21 -->
<g id="node22" class="node">
<title>21</title>
<ellipse fill="none" stroke="black" cx="7824.8" cy="-517.3" rx="467.96" ry="18"/>
<text text-anchor="middle" x="7824.8" y="-512.25" font-family="Times New Roman,serif" font-size="14.00">Electrochemistry: 我也是。那酒的味道真的很不错，如果可以的话，你现在就应该喝上几口！</text>
</g>
<!-- 43 -->
<g id="node44" class="node">
<title>43</title>
<ellipse fill="none" stroke="black" cx="6393.8" cy="-255.98" rx="823.67" ry="18"/>
<text text-anchor="middle" x="6393.8" y="-250.93" font-family="Times New Roman,serif" font-size="14.00">Evrart Claire: “让·卢克，我的兄弟。我这边有两个警察要到你那去。他们需要有人帮忙处理*树上挂了具尸体*的问题。也就是说，他们需要把那具尸体弄*下来*。”</text>
</g>
<!-- 21&#45;&gt;43 -->
<g id="edge31" class="edge">
<title>21&#45;&gt;43</title>
<path fill="none" stroke="black" d="M7806.04,-499.01C7759.31,-457.2 7632.21,-351.04 7503.8,-309.98 7447.44,-291.96 7190.2,-279.04 6937.55,-270.47"/>
<polygon fill="black" stroke="black" points="6937.91,-266.98 6927.8,-270.14 6937.67,-273.98 6937.91,-266.98"/>
</g>
<!-- 22 -->
<g id="node23" class="node">
<title>22</title>
<ellipse fill="none" stroke="black" cx="5988.8" cy="-899.28" rx="475.13" ry="18"/>
<text text-anchor="middle" x="5988.8" y="-894.23" font-family="Times New Roman,serif" font-size="14.00">You: “可疑的特酿。你告诉我让它变得更可疑一点。我没有。那里面有酒精。现在没有了。”</text>
</g>
<!-- 40 -->
<g id="node41" class="node">
<title>40</title>
<ellipse fill="none" stroke="black" cx="5988.8" cy="-827.28" rx="108.16" ry="18"/>
<text text-anchor="middle" x="5988.8" y="-822.23" font-family="Times New Roman,serif" font-size="14.00">Jump to: [EVRARTHUB]</text>
</g>
<!-- 22&#45;&gt;40 -->
<g id="edge32" class="edge">
<title>22&#45;&gt;40</title>
<path fill="none" stroke="black" d="M5988.8,-880.98C5988.8,-873.69 5988.8,-865.01 5988.8,-856.82"/>
<polygon fill="black" stroke="black" points="5992.3,-856.9 5988.8,-846.9 5985.3,-856.9 5992.3,-856.9"/>
</g>
<!-- 23 -->
<g id="node24" class="node">
<title>23</title>
<ellipse fill="none" stroke="black" cx="6774.8" cy="-350.64" rx="719.77" ry="18"/>
<text text-anchor="middle" x="6774.8" y="-345.59" font-family="Times New Roman,serif" font-size="14.00">Evrart Claire: “都不用告诉我到底是怎么一回事。什么酒精特酿，什么更烈一些，阻止啊，罢工啊什么的。我只想等着你来给我惊喜，哈里。”</text>
</g>
<!-- 23&#45;&gt;43 -->
<g id="edge33" class="edge">
<title>23&#45;&gt;43</title>
<path fill="none" stroke="black" d="M6703.59,-332.32C6639.11,-316.64 6544.14,-293.55 6476.37,-277.06"/>
<polygon fill="black" stroke="black" points="6477.33,-273.69 6466.79,-274.73 6475.68,-280.5 6477.33,-273.69"/>
</g>
<!-- 24 -->
<g id="node25" class="node">
<title>24</title>
<ellipse fill="none" stroke="black" cx="5394.8" cy="-517.3" rx="58.52" ry="18"/>
<text text-anchor="middle" x="5394.8" y="-512.25" font-family="Times New Roman,serif" font-size="14.00">IsKimHere()</text>
</g>
<!-- 24&#45;&gt;24 -->
<g id="edge34" class="edge">
<title>24&#45;&gt;24</title>
<path fill="none" stroke="black" d="M5435.74,-530.53C5454.73,-531.98 5471.32,-527.57 5471.32,-517.3 5471.32,-509.12 5460.78,-504.66 5446.89,-503.91"/>
<polygon fill="black" stroke="black" points="5447.2,-500.41 5437.25,-504.05 5447.3,-507.41 5447.2,-500.41"/>
</g>
<!-- 25 -->
<g id="node26" class="node">
<title>25</title>
<polygon fill="none" stroke="black" points="5394.8,-463.3 5312.05,-445.3 5394.8,-427.3 5477.56,-445.3 5394.8,-463.3"/>
<text text-anchor="middle" x="5394.8" y="-440.25" font-family="Times New Roman,serif" font-size="14.00">IsKimHere()</text>
</g>
<!-- 24&#45;&gt;25 -->
<g id="edge35" class="edge">
<title>24&#45;&gt;25</title>
<path fill="none" stroke="black" d="M5394.8,-499C5394.8,-491.71 5394.8,-483.03 5394.8,-474.84"/>
<polygon fill="black" stroke="black" points="5398.3,-474.92 5394.8,-464.92 5391.3,-474.92 5398.3,-474.92"/>
</g>
<!-- 42 -->
<g id="node43" class="node">
<title>42</title>
<ellipse fill="none" stroke="black" cx="5394.8" cy="-350.64" rx="642.49" ry="18"/>
<text text-anchor="middle" x="5394.8" y="-345.59" font-family="Times New Roman,serif" font-size="14.00">Evrart Claire: “我甚至都不想知道这些都是什么意思——特酿啊，可疑啊，酒精啊，关闭啊。我准备等着这个世界给我*惊喜*。”</text>
</g>
<!-- 25&#45;&gt;42 -->
<g id="edge36" class="edge">
<title>25&#45;&gt;42</title>
<path fill="none" stroke="black" d="M5394.8,-426.87C5394.8,-413.8 5394.8,-395.62 5394.8,-380.4"/>
<polygon fill="black" stroke="black" points="5398.3,-380.51 5394.8,-370.51 5391.3,-380.51 5398.3,-380.51"/>
</g>
<!-- 26&#45;&gt;16 -->
<g id="edge37" class="edge">
<title>26&#45;&gt;16</title>
<path fill="none" stroke="black" d="M2006.64,-695.36C1965.19,-707.65 1895.08,-727.47 1846.43,-740.69"/>
<polygon fill="black" stroke="black" points="1845.68,-737.27 1836.94,-743.26 1847.51,-744.03 1845.68,-737.27"/>
</g>
<!-- 27&#45;&gt;12 -->
<g id="edge38" class="edge">
<title>27&#45;&gt;12</title>
<path fill="none" stroke="black" d="M4875.57,-738.88C4648.96,-717.67 4284.43,-676.65 4243.8,-629.28 4224.1,-606.31 4234.86,-570.45 4246.42,-545.74"/>
<polygon fill="black" stroke="black" points="4249.48,-547.45 4250.83,-536.94 4243.22,-544.31 4249.48,-547.45"/>
</g>
<!-- 28 -->
<g id="node29" class="node">
<title>28</title>
<ellipse fill="none" stroke="black" cx="4551.8" cy="-600.29" rx="298.55" ry="18"/>
<text text-anchor="middle" x="4551.8" y="-595.24" font-family="Times New Roman,serif" font-size="14.00">You: “你是这个社区的领导者，那就应该帮助这个社区！”</text>
</g>
<!-- 28&#45;&gt;12 -->
<g id="edge39" class="edge">
<title>28&#45;&gt;12</title>
<path fill="none" stroke="black" d="M4490.65,-582.21C4444.71,-569.38 4381.66,-551.77 4333.37,-538.29"/>
<polygon fill="black" stroke="black" points="4334.4,-534.94 4323.83,-535.62 4332.52,-541.68 4334.4,-534.94"/>
</g>
<!-- 29 -->
<g id="node30" class="node">
<title>29</title>
<ellipse fill="none" stroke="black" cx="5687.8" cy="-827.28" rx="156.78" ry="18"/>
<text text-anchor="middle" x="5687.8" y="-822.23" font-family="Times New Roman,serif" font-size="14.00">Variable[&quot;gates.mhead_fight_success&quot;]</text>
</g>
<!-- 29&#45;&gt;29 -->
<g id="edge40" class="edge">
<title>29&#45;&gt;29</title>
<path fill="none" stroke="black" d="M5795.33,-840.78C5832.54,-840.92 5862.59,-836.42 5862.59,-827.28 5862.59,-819.11 5838.54,-814.64 5806.84,-813.9"/>
<polygon fill="black" stroke="black" points="5806.88,-810.4 5796.84,-813.8 5806.81,-817.4 5806.88,-810.4"/>
</g>
<!-- 30 -->
<g id="node31" class="node">
<title>30</title>
<polygon fill="none" stroke="black" points="5687.8,-773.28 5466.08,-755.28 5687.8,-737.28 5909.53,-755.28 5687.8,-773.28"/>
<text text-anchor="middle" x="5687.8" y="-750.23" font-family="Times New Roman,serif" font-size="14.00">Variable[&quot;gates.mhead_fight_success&quot;]</text>
</g>
<!-- 29&#45;&gt;30 -->
<g id="edge41" class="edge">
<title>29&#45;&gt;30</title>
<path fill="none" stroke="black" d="M5687.8,-808.98C5687.8,-801.69 5687.8,-793.01 5687.8,-784.82"/>
<polygon fill="black" stroke="black" points="5691.3,-784.9 5687.8,-774.9 5684.3,-784.9 5691.3,-784.9"/>
</g>
<!-- 32 -->
<g id="node33" class="node">
<title>32</title>
<ellipse fill="none" stroke="black" cx="5616.8" cy="-683.28" rx="571.86" ry="18"/>
<text text-anchor="middle" x="5616.8" y="-678.23" font-family="Times New Roman,serif" font-size="14.00">Evrart Claire: “不过当然了，玩笑归玩笑，我*的确*会帮你。”他抓起右边的无线电话听筒——然后按下一个按钮。</text>
</g>
<!-- 30&#45;&gt;32 -->
<g id="edge42" class="edge">
<title>30&#45;&gt;32</title>
<path fill="none" stroke="black" d="M5671.69,-738.4C5663,-729.83 5652.06,-719.05 5642.25,-709.37"/>
<polygon fill="black" stroke="black" points="5645,-707.17 5635.42,-702.64 5640.08,-712.15 5645,-707.17"/>
</g>
<!-- 31&#45;&gt;23 -->
<g id="edge43" class="edge">
<title>31&#45;&gt;23</title>
<path fill="none" stroke="black" d="M6774.8,-426.87C6774.8,-413.8 6774.8,-395.62 6774.8,-380.4"/>
<polygon fill="black" stroke="black" points="6778.3,-380.51 6774.8,-370.51 6771.3,-380.51 6778.3,-380.51"/>
</g>
<!-- 32&#45;&gt;28 -->
<g id="edge44" class="edge">
<title>32&#45;&gt;28</title>
<path fill="none" stroke="black" d="M5373.8,-666.55C5225.28,-656.62 5031.5,-643.09 4859.8,-629.28 4813.94,-625.59 4764.28,-621.24 4718.49,-617.08"/>
<polygon fill="black" stroke="black" points="4719.03,-613.61 4708.76,-616.19 4718.4,-620.58 4719.03,-613.61"/>
</g>
<!-- 33&#45;&gt;9 -->
<g id="edge45" class="edge">
<title>33&#45;&gt;9</title>
<path fill="none" stroke="black" d="M8043.8,-154.82C8043.8,-144.68 8043.8,-131.6 8043.8,-119.91"/>
<polygon fill="black" stroke="black" points="8047.3,-119.94 8043.8,-109.94 8040.3,-119.94 8047.3,-119.94"/>
</g>
<!-- 34&#45;&gt;21 -->
<g id="edge46" class="edge">
<title>34&#45;&gt;21</title>
<path fill="none" stroke="black" d="M7429.19,-744.2C7714.09,-727.72 8209.47,-690.58 8263.8,-629.28 8280.9,-610 8280.9,-590.58 8263.8,-571.3 8249.47,-555.14 8162.89,-542.94 8070.35,-534.35"/>
<polygon fill="black" stroke="black" points="8070.83,-530.88 8060.55,-533.46 8070.19,-537.85 8070.83,-530.88"/>
</g>
<!-- 35&#45;&gt;12 -->
<g id="edge47" class="edge">
<title>35&#45;&gt;12</title>
<path fill="none" stroke="black" d="M1859.06,-667.23C1972.81,-642.12 2212.93,-592.39 2418.8,-571.3 2718.55,-540.59 3574.2,-526.38 4005.98,-521.02"/>
<polygon fill="black" stroke="black" points="4005.9,-524.52 4015.85,-520.9 4005.81,-517.52 4005.9,-524.52"/>
</g>
<!-- 36&#45;&gt;12 -->
<g id="edge48" class="edge">
<title>36&#45;&gt;12</title>
<path fill="none" stroke="black" d="M5600.5,-584.33C5545.55,-579.71 5484.08,-574.9 5427.8,-571.3 5104.11,-550.59 4729.35,-535.06 4493.94,-526.32"/>
<polygon fill="black" stroke="black" points="4494.12,-522.83 4484,-525.96 4493.86,-529.82 4494.12,-522.83"/>
</g>
<!-- 37 -->
<g id="node38" class="node">
<title>37</title>
<ellipse fill="none" stroke="black" cx="4403.8" cy="-971.28" rx="58.52" ry="18"/>
<text text-anchor="middle" x="4403.8" y="-966.23" font-family="Times New Roman,serif" font-size="14.00">IsKimHere()</text>
</g>
<!-- 37&#45;&gt;37 -->
<g id="edge49" class="edge">
<title>37&#45;&gt;37</title>
<path fill="none" stroke="black" d="M4444.74,-984.52C4463.73,-985.96 4480.32,-981.55 4480.32,-971.28 4480.32,-963.1 4469.78,-958.64 4455.89,-957.89"/>
<polygon fill="black" stroke="black" points="4456.2,-954.39 4446.25,-958.03 4456.3,-961.39 4456.2,-954.39"/>
</g>
<!-- 38 -->
<g id="node39" class="node">
<title>38</title>
<polygon fill="none" stroke="black" points="4403.8,-917.28 4321.05,-899.28 4403.8,-881.28 4486.56,-899.28 4403.8,-917.28"/>
<text text-anchor="middle" x="4403.8" y="-894.23" font-family="Times New Roman,serif" font-size="14.00">IsKimHere()</text>
</g>
<!-- 37&#45;&gt;38 -->
<g id="edge50" class="edge">
<title>37&#45;&gt;38</title>
<path fill="none" stroke="black" d="M4403.8,-952.98C4403.8,-945.69 4403.8,-937.01 4403.8,-928.82"/>
<polygon fill="black" stroke="black" points="4407.3,-928.9 4403.8,-918.9 4400.3,-928.9 4407.3,-928.9"/>
</g>
<!-- 38&#45;&gt;14 -->
<g id="edge51" class="edge">
<title>38&#45;&gt;14</title>
<path fill="none" stroke="black" d="M4403.8,-880.98C4403.8,-873.69 4403.8,-865.01 4403.8,-856.82"/>
<polygon fill="black" stroke="black" points="4407.3,-856.9 4403.8,-846.9 4400.3,-856.9 4407.3,-856.9"/>
</g>
<!-- 39&#45;&gt;1 -->
<g id="edge52" class="edge">
<title>39&#45;&gt;1</title>
<path fill="none" stroke="black" d="M8549.56,-25.95C8670.22,-42.56 8944.8,-89.41 8944.8,-171.99 8944.8,-518.3 8944.8,-518.3 8944.8,-518.3 8944.8,-807.87 8590.94,-600.59 8302.8,-629.28 7916.42,-667.76 6651.84,-679.94 6407.04,-681.96"/>
<polygon fill="black" stroke="black" points="6407.33,-678.46 6397.36,-682.04 6407.39,-685.46 6407.33,-678.46"/>
</g>
<!-- 41 -->
<g id="node42" class="node">
<title>41</title>
<ellipse fill="none" stroke="black" cx="7701.8" cy="-971.28" rx="884.58" ry="18"/>
<text text-anchor="middle" x="7701.8" y="-966.23" font-family="Times New Roman,serif" font-size="14.00">Evrart Claire: “我有吗？那你做得很好啊，哈里。我比较倾向于不知道，而且我相信你做了正确的决定。我一整天都在委派任务，能看到有人主动承担工作真是松了一口气。”</text>
</g>
<!-- 41&#45;&gt;41 -->
<g id="edge53" class="edge">
<title>41&#45;&gt;41</title>
<path fill="none" stroke="black" d="M8311.36,-984.69C8477.62,-984.01 8604.38,-979.54 8604.38,-971.28 8604.38,-963.21 8483.25,-958.75 8322.51,-957.93"/>
<polygon fill="black" stroke="black" points="8322.89,-954.43 8312.88,-957.88 8322.86,-961.43 8322.89,-954.43"/>
</g>
<!-- 42&#45;&gt;43 -->
<g id="edge54" class="edge">
<title>42&#45;&gt;43</title>
<path fill="none" stroke="black" d="M5575.42,-332.89C5751.48,-316.56 6018.37,-291.8 6199.09,-275.04"/>
<polygon fill="black" stroke="black" points="6199.19,-278.55 6208.82,-274.14 6198.54,-271.58 6199.19,-278.55"/>
</g>
<!-- 43&#45;&gt;17 -->
<g id="edge55" class="edge">
<title>43&#45;&gt;17</title>
<path fill="none" stroke="black" d="M6383.62,-237.81C6377.3,-227.14 6369.04,-213.2 6361.85,-201.07"/>
<polygon fill="black" stroke="black" points="6365.01,-199.54 6356.9,-192.72 6358.99,-203.11 6365.01,-199.54"/>
</g>
<!-- 46 -->
<g id="node47" class="node">
<title>46</title>
<ellipse fill="none" stroke="black" cx="5988.8" cy="-971.28" rx="810.36" ry="18"/>
<text text-anchor="middle" x="5988.8" y="-966.23" font-family="Times New Roman,serif" font-size="14.00">Evrart Claire: “我不知道那是什么意思，哈里。但是我喜欢！”他咯咯地笑了。“我喜欢你的主动性！知道有你在外面维持各种事情的运转，我才能专注于大局。”</text>
</g>
<!-- 46&#45;&gt;22 -->
<g id="edge56" class="edge">
<title>46&#45;&gt;22</title>
<path fill="none" stroke="black" d="M5988.8,-952.98C5988.8,-945.69 5988.8,-937.01 5988.8,-928.82"/>
<polygon fill="black" stroke="black" points="5992.3,-928.9 5988.8,-918.9 5985.3,-928.9 5992.3,-928.9"/>
</g>
<!-- 48 -->
<g id="node49" class="node">
<title>48</title>
<polygon fill="none" stroke="black" points="972.8,-463.3 107.61,-445.3 972.8,-427.3 1837.99,-445.3 972.8,-463.3"/>
<text text-anchor="middle" x="972.8" y="-440.25" font-family="Times New Roman,serif" font-size="14.00">Variable[&quot;yard.hanged_electrochem_vermillion_belt&quot;] &#160;&#160;or &#160;Variable[&quot;yard.hanged_encyclo_cargo_belt_airships&quot;] &#160;or &#160;Variable[&quot;yard.hangedman_saw_the_belt&quot;]</text>
</g>
<!-- 47&#45;&gt;48 -->
<g id="edge57" class="edge">
<title>47&#45;&gt;48</title>
<path fill="none" stroke="black" d="M1296.31,-499.09C1230.17,-488.3 1145.21,-474.43 1078.95,-463.62"/>
<polygon fill="black" stroke="black" points="1079.57,-460.18 1069.14,-462.02 1078.44,-467.08 1079.57,-460.18"/>
</g>
<!-- 49 -->
<g id="node50" class="node">
<title>49</title>
<polygon fill="none" stroke="black" points="2733.8,-463.3 1855.58,-445.3 2733.8,-427.3 3612.02,-445.3 2733.8,-463.3"/>
<text text-anchor="middle" x="2733.8" y="-440.25" font-family="Times New Roman,serif" font-size="14.00">!(Variable[&quot;yard.hanged_electrochem_vermillion_belt&quot;] &#160;&#160;or &#160;Variable[&quot;yard.hanged_encyclo_cargo_belt_airships&quot;] &#160;or &#160;Variable[&quot;yard.hangedman_saw_the_belt&quot;])</text>
</g>
<!-- 47&#45;&gt;49 -->
<g id="edge58" class="edge">
<title>47&#45;&gt;49</title>
<path fill="none" stroke="black" d="M1692.47,-501.02C1928.65,-488.61 2258.34,-471.29 2483.06,-459.48"/>
<polygon fill="black" stroke="black" points="2483.04,-462.98 2492.84,-458.96 2482.67,-455.99 2483.04,-462.98"/>
</g>
<!-- 48&#45;&gt;10 -->
<g id="edge59" class="edge">
<title>48&#45;&gt;10</title>
<path fill="none" stroke="black" d="M972.8,-426.87C972.8,-419.95 972.8,-411.59 972.8,-402.99"/>
<polygon fill="black" stroke="black" points="976.3,-403.18 972.8,-393.18 969.3,-403.18 976.3,-403.18"/>
</g>
<!-- 49&#45;&gt;15 -->
<g id="edge60" class="edge">
<title>49&#45;&gt;15</title>
<path fill="none" stroke="black" d="M2953.2,-431.32C3245.57,-414.02 3760.98,-383.52 4062.26,-365.7"/>
<polygon fill="black" stroke="black" points="4062.04,-369.22 4071.82,-365.13 4061.63,-362.23 4062.04,-369.22"/>
</g>
</g>
</svg>
