<?xml version="1.0" encoding="UTF-8" standalone="no"?>
<!DOCTYPE svg PUBLIC "-//W3C//DTD SVG 1.1//EN"
 "http://www.w3.org/Graphics/SVG/1.1/DTD/svg11.dtd">
<!-- Generated by graphviz version 12.2.1 (20241206.2353)
 -->
<!-- Title: G Pages: 1 -->
<svg width="4266pt" height="1503pt"
 viewBox="0.00 0.00 4266.30 1502.80" xmlns="http://www.w3.org/2000/svg" xmlns:xlink="http://www.w3.org/1999/xlink">
<g id="graph0" class="graph" transform="scale(1 1) rotate(0) translate(4 1498.8)">
<title>G</title>
<polygon fill="white" stroke="none" points="-4,4 -4,-1498.8 4262.3,-1498.8 4262.3,4 -4,4"/>
<!-- 0 -->
<g id="node1" class="node">
<title>0</title>
<ellipse fill="none" stroke="black" cx="2059.75" cy="-1476.8" rx="39.07" ry="18"/>
<text text-anchor="middle" x="2059.75" y="-1471.75" font-family="Times New Roman,serif" font-size="14.00">START</text>
</g>
<!-- 1 -->
<g id="node2" class="node">
<title>1</title>
<ellipse fill="none" stroke="black" cx="2059.75" cy="-1404.8" rx="29.86" ry="18"/>
<text text-anchor="middle" x="2059.75" y="-1399.75" font-family="Times New Roman,serif" font-size="14.00">input</text>
</g>
<!-- 0&#45;&gt;1 -->
<g id="edge1" class="edge">
<title>0&#45;&gt;1</title>
<path fill="none" stroke="black" d="M2059.75,-1458.5C2059.75,-1451.21 2059.75,-1442.53 2059.75,-1434.34"/>
<polygon fill="black" stroke="black" points="2063.25,-1434.42 2059.75,-1424.42 2056.25,-1434.42 2063.25,-1434.42"/>
</g>
<!-- 22 -->
<g id="node23" class="node">
<title>22</title>
<ellipse fill="none" stroke="black" cx="2059.75" cy="-1332.8" rx="168.04" ry="18"/>
<text text-anchor="middle" x="2059.75" y="-1327.75" font-family="Times New Roman,serif" font-size="14.00">Variable[&quot;cargo.crane_container_moved&quot;]</text>
</g>
<!-- 1&#45;&gt;22 -->
<g id="edge2" class="edge">
<title>1&#45;&gt;22</title>
<path fill="none" stroke="black" d="M2059.75,-1386.5C2059.75,-1379.21 2059.75,-1370.53 2059.75,-1362.34"/>
<polygon fill="black" stroke="black" points="2063.25,-1362.42 2059.75,-1352.42 2056.25,-1362.42 2063.25,-1362.42"/>
</g>
<!-- 2 -->
<g id="node3" class="node">
<title>2</title>
<ellipse fill="none" stroke="black" cx="2959.75" cy="-378" rx="791.43" ry="18"/>
<text text-anchor="middle" x="2959.75" y="-372.95" font-family="Times New Roman,serif" font-size="14.00">Savoir Faire: 看到那个巨大的集装箱了吗，就是那个巨大机械臂吊起来的那个？没错，就是它！我们得把那个宝贝集装箱弄下来。用那边的操纵杆试试吧。</text>
</g>
<!-- 35 -->
<g id="node35" class="node">
<title>35</title>
<ellipse fill="none" stroke="black" cx="2959.75" cy="-306" rx="280.64" ry="18"/>
<text text-anchor="middle" x="2959.75" y="-300.95" font-family="Times New Roman,serif" font-size="14.00">Logic: 等等……为什么超级大富豪要躲在集装箱里呢？</text>
</g>
<!-- 2&#45;&gt;35 -->
<g id="edge3" class="edge">
<title>2&#45;&gt;35</title>
<path fill="none" stroke="black" d="M2959.75,-359.7C2959.75,-352.41 2959.75,-343.73 2959.75,-335.54"/>
<polygon fill="black" stroke="black" points="2963.25,-335.62 2959.75,-325.62 2956.25,-335.62 2963.25,-335.62"/>
</g>
<!-- 3 -->
<g id="node4" class="node">
<title>3</title>
<ellipse fill="none" stroke="black" cx="2597.75" cy="-90" rx="109.7" ry="18"/>
<text text-anchor="middle" x="2597.75" y="-84.95" font-family="Times New Roman,serif" font-size="14.00">You: 没错，可是……</text>
</g>
<!-- 13 -->
<g id="node14" class="node">
<title>13</title>
<ellipse fill="none" stroke="black" cx="2571.75" cy="-18" rx="250.44" ry="18"/>
<text text-anchor="middle" x="2571.75" y="-12.95" font-family="Times New Roman,serif" font-size="14.00">Savoir Faire: 我不要‘可是’，我要‘可以’。动起来！</text>
</g>
<!-- 3&#45;&gt;13 -->
<g id="edge4" class="edge">
<title>3&#45;&gt;13</title>
<path fill="none" stroke="black" d="M2591.32,-71.7C2588.52,-64.15 2585.17,-55.12 2582.03,-46.68"/>
<polygon fill="black" stroke="black" points="2585.39,-45.68 2578.63,-37.52 2578.83,-48.12 2585.39,-45.68"/>
</g>
<!-- 4 -->
<g id="node5" class="node">
<title>4</title>
<ellipse fill="none" stroke="black" cx="1630.75" cy="-1044.8" rx="435.72" ry="18"/>
<text text-anchor="middle" x="1630.75" y="-1039.75" font-family="Times New Roman,serif" font-size="14.00">Savoir Faire: 那儿！那个你移动过的集装箱。里面有*钱*的味道。我们得想办法进去。</text>
</g>
<!-- 5 -->
<g id="node6" class="node">
<title>5</title>
<ellipse fill="none" stroke="black" cx="1100.75" cy="-972.8" rx="113.79" ry="18"/>
<text text-anchor="middle" x="1100.75" y="-967.75" font-family="Times New Roman,serif" font-size="14.00">You: 你有什么建议？</text>
</g>
<!-- 4&#45;&gt;5 -->
<g id="edge5" class="edge">
<title>4&#45;&gt;5</title>
<path fill="none" stroke="black" d="M1504.48,-1027.12C1410.27,-1014.68 1283.49,-997.94 1197.31,-986.55"/>
<polygon fill="black" stroke="black" points="1197.82,-983.09 1187.45,-985.25 1196.91,-990.03 1197.82,-983.09"/>
</g>
<!-- 15 -->
<g id="node16" class="node">
<title>15</title>
<ellipse fill="none" stroke="black" cx="1630.75" cy="-972.8" rx="266.82" ry="18"/>
<text text-anchor="middle" x="1630.75" y="-967.75" font-family="Times New Roman,serif" font-size="14.00">You: 可是我已经尝试过要打开它了，但是失败了。</text>
</g>
<!-- 4&#45;&gt;15 -->
<g id="edge6" class="edge">
<title>4&#45;&gt;15</title>
<path fill="none" stroke="black" d="M1630.75,-1026.5C1630.75,-1019.21 1630.75,-1010.53 1630.75,-1002.34"/>
<polygon fill="black" stroke="black" points="1634.25,-1002.42 1630.75,-992.42 1627.25,-1002.42 1634.25,-1002.42"/>
</g>
<!-- 10 -->
<g id="node11" class="node">
<title>10</title>
<ellipse fill="none" stroke="black" cx="806.75" cy="-900.8" rx="461.82" ry="18"/>
<text text-anchor="middle" x="806.75" y="-895.75" font-family="Times New Roman,serif" font-size="14.00">Savoir Faire: 开门？得了，我本来不该告诉你的。带我去看看，让我来给你演示怎么开门。</text>
</g>
<!-- 5&#45;&gt;10 -->
<g id="edge7" class="edge">
<title>5&#45;&gt;10</title>
<path fill="none" stroke="black" d="M1039.48,-957.21C996.24,-946.92 937.8,-933 890.3,-921.69"/>
<polygon fill="black" stroke="black" points="891.11,-918.29 880.57,-919.38 889.49,-925.1 891.11,-918.29"/>
</g>
<!-- 6 -->
<g id="node7" class="node">
<title>6</title>
<ellipse fill="none" stroke="black" cx="2255.75" cy="-972.8" rx="340.01" ry="18"/>
<text text-anchor="middle" x="2255.75" y="-967.75" font-family="Times New Roman,serif" font-size="14.00">Savoir Faire: 似乎是超级大富豪发出的噪音……好像就在我们上面。</text>
</g>
<!-- 32 -->
<g id="node33" class="node">
<title>32</title>
<ellipse fill="none" stroke="black" cx="3020.75" cy="-900.8" rx="541.15" ry="18"/>
<text text-anchor="middle" x="3020.75" y="-895.75" font-family="Times New Roman,serif" font-size="14.00">Perception (Hearing): 你听到码头上海水拍打已被海藻侵蚀的混凝土的声音，但绝对没有什么大富豪的噪音。</text>
</g>
<!-- 6&#45;&gt;32 -->
<g id="edge8" class="edge">
<title>6&#45;&gt;32</title>
<path fill="none" stroke="black" d="M2421.27,-956.65C2541.43,-945.66 2704.27,-930.76 2829.91,-919.26"/>
<polygon fill="black" stroke="black" points="2830.04,-922.77 2839.68,-918.37 2829.4,-915.8 2830.04,-922.77"/>
</g>
<!-- 7 -->
<g id="node8" class="node">
<title>7</title>
<ellipse fill="none" stroke="black" cx="2959.75" cy="-450" rx="102.02" ry="18"/>
<text text-anchor="middle" x="2959.75" y="-444.95" font-family="Times New Roman,serif" font-size="14.00">You: （往上看。）</text>
</g>
<!-- 7&#45;&gt;2 -->
<g id="edge9" class="edge">
<title>7&#45;&gt;2</title>
<path fill="none" stroke="black" d="M2959.75,-431.7C2959.75,-424.41 2959.75,-415.73 2959.75,-407.54"/>
<polygon fill="black" stroke="black" points="2963.25,-407.62 2959.75,-397.62 2956.25,-407.62 2963.25,-407.62"/>
</g>
<!-- 8 -->
<g id="node9" class="node">
<title>8</title>
<ellipse fill="none" stroke="black" cx="3851.75" cy="-972.8" rx="406.55" ry="18"/>
<text text-anchor="middle" x="3851.75" y="-967.75" font-family="Times New Roman,serif" font-size="14.00">Savoir Faire: 不，不是雨——是是超级大富豪发出的噪音……好像就在我们上面。</text>
</g>
<!-- 8&#45;&gt;32 -->
<g id="edge10" class="edge">
<title>8&#45;&gt;32</title>
<path fill="none" stroke="black" d="M3667.84,-956.31C3536.83,-945.27 3360.68,-930.43 3225.25,-919.03"/>
<polygon fill="black" stroke="black" points="3225.69,-915.55 3215.43,-918.2 3225.1,-922.53 3225.69,-915.55"/>
</g>
<!-- 9 -->
<g id="node10" class="node">
<title>9</title>
<ellipse fill="none" stroke="black" cx="3020.75" cy="-972.8" rx="406.55" ry="18"/>
<text text-anchor="middle" x="3020.75" y="-967.75" font-family="Times New Roman,serif" font-size="14.00">Savoir Faire: 不，不是雪——是是超级大富豪发出的噪音……好像就在我们上面。</text>
</g>
<!-- 9&#45;&gt;32 -->
<g id="edge11" class="edge">
<title>9&#45;&gt;32</title>
<path fill="none" stroke="black" d="M3020.75,-954.5C3020.75,-947.21 3020.75,-938.53 3020.75,-930.34"/>
<polygon fill="black" stroke="black" points="3024.25,-930.42 3020.75,-920.42 3017.25,-930.42 3024.25,-930.42"/>
</g>
<!-- 11 -->
<g id="node12" class="node">
<title>11</title>
<ellipse fill="none" stroke="black" cx="2255.75" cy="-1044.8" rx="125.56" ry="18"/>
<text text-anchor="middle" x="2255.75" y="-1039.75" font-family="Times New Roman,serif" font-size="14.00">You: 我什么也没听见。</text>
</g>
<!-- 11&#45;&gt;6 -->
<g id="edge12" class="edge">
<title>11&#45;&gt;6</title>
<path fill="none" stroke="black" d="M2255.75,-1026.5C2255.75,-1019.21 2255.75,-1010.53 2255.75,-1002.34"/>
<polygon fill="black" stroke="black" points="2259.25,-1002.42 2255.75,-992.42 2252.25,-1002.42 2259.25,-1002.42"/>
</g>
<!-- 12 -->
<g id="node13" class="node">
<title>12</title>
<ellipse fill="none" stroke="black" cx="2812.75" cy="-234" rx="266.82" ry="18"/>
<text text-anchor="middle" x="2812.75" y="-228.95" font-family="Times New Roman,serif" font-size="14.00">You: 先等等。我们为什么要去集装箱里找富人呢？</text>
</g>
<!-- 17 -->
<g id="node18" class="node">
<title>17</title>
<ellipse fill="none" stroke="black" cx="2648.75" cy="-162" rx="593.87" ry="18"/>
<text text-anchor="middle" x="2648.75" y="-156.95" font-family="Times New Roman,serif" font-size="14.00">Savoir Faire: *等等*？我们可没时间等等——已经*迫在眉睫*了！还不赶快去把那机械臂弄下来？我们要去做买卖了。</text>
</g>
<!-- 12&#45;&gt;17 -->
<g id="edge13" class="edge">
<title>12&#45;&gt;17</title>
<path fill="none" stroke="black" d="M2772.63,-215.88C2750.76,-206.54 2723.45,-194.88 2700.04,-184.89"/>
<polygon fill="black" stroke="black" points="2701.56,-181.73 2690.99,-181.03 2698.81,-188.17 2701.56,-181.73"/>
</g>
<!-- 14 -->
<g id="node15" class="node">
<title>14</title>
<ellipse fill="none" stroke="black" cx="3372.75" cy="-594" rx="160.88" ry="18"/>
<text text-anchor="middle" x="3372.75" y="-588.95" font-family="Times New Roman,serif" font-size="14.00">You: 等等，你是说避税天堂？</text>
</g>
<!-- 39 -->
<g id="node39" class="node">
<title>39</title>
<ellipse fill="none" stroke="black" cx="3507.75" cy="-522" rx="520.17" ry="18"/>
<text text-anchor="middle" x="3507.75" y="-516.95" font-family="Times New Roman,serif" font-size="14.00">Savoir Faire: 避税天堂，OFC，洗涤池，导管，*天堂*……把这些术语记住了，骗子小哥。现在往上看！</text>
</g>
<!-- 14&#45;&gt;39 -->
<g id="edge14" class="edge">
<title>14&#45;&gt;39</title>
<path fill="none" stroke="black" d="M3405.43,-576.05C3423.16,-566.86 3445.3,-555.38 3464.44,-545.46"/>
<polygon fill="black" stroke="black" points="3465.82,-548.68 3473.09,-540.97 3462.6,-542.47 3465.82,-548.68"/>
</g>
<!-- 31 -->
<g id="node32" class="node">
<title>31</title>
<ellipse fill="none" stroke="black" cx="1792.75" cy="-900.8" rx="506.35" ry="18"/>
<text text-anchor="middle" x="1792.75" y="-895.75" font-family="Times New Roman,serif" font-size="14.00">Savoir Faire: 是时候展现*大师*风范了。在鬼鬼面前，没有任何门锁能够撑过一回合。带我去看看。</text>
</g>
<!-- 15&#45;&gt;31 -->
<g id="edge15" class="edge">
<title>15&#45;&gt;31</title>
<path fill="none" stroke="black" d="M1670.38,-954.68C1691.99,-945.34 1718.96,-933.68 1742.08,-923.69"/>
<polygon fill="black" stroke="black" points="1743.22,-927.01 1751.01,-919.83 1740.45,-920.59 1743.22,-927.01"/>
</g>
<!-- 16 -->
<g id="node17" class="node">
<title>16</title>
<ellipse fill="none" stroke="black" cx="3270.75" cy="-90" rx="304.18" ry="18"/>
<text text-anchor="middle" x="3270.75" y="-84.95" font-family="Times New Roman,serif" font-size="14.00">You: 没问题，老大。我这就去把机械臂弄下来……[离开。]</text>
</g>
<!-- 27 -->
<g id="node28" class="node">
<title>27</title>
<ellipse fill="none" stroke="black" cx="3296.75" cy="-18" rx="456.7" ry="18"/>
<text text-anchor="middle" x="3296.75" y="-12.95" font-family="Times New Roman,serif" font-size="14.00">Savoir Faire: 你的职业道德很*高*嘛，朋友。没有人会拒绝为了巨大*成功*而脏一脏手的。</text>
</g>
<!-- 16&#45;&gt;27 -->
<g id="edge16" class="edge">
<title>16&#45;&gt;27</title>
<path fill="none" stroke="black" d="M3277.18,-71.7C3279.98,-64.15 3283.33,-55.12 3286.47,-46.68"/>
<polygon fill="black" stroke="black" points="3289.67,-48.12 3289.87,-37.52 3283.11,-45.68 3289.67,-48.12"/>
</g>
<!-- 17&#45;&gt;3 -->
<g id="edge18" class="edge">
<title>17&#45;&gt;3</title>
<path fill="none" stroke="black" d="M2636.14,-143.7C2630.34,-135.73 2623.32,-126.1 2616.89,-117.26"/>
<polygon fill="black" stroke="black" points="2619.82,-115.35 2611.1,-109.33 2614.16,-119.47 2619.82,-115.35"/>
</g>
<!-- 17&#45;&gt;16 -->
<g id="edge17" class="edge">
<title>17&#45;&gt;16</title>
<path fill="none" stroke="black" d="M2798.53,-144.14C2896.57,-133.11 3024.16,-118.75 3121.99,-107.74"/>
<polygon fill="black" stroke="black" points="3122.12,-111.25 3131.66,-106.65 3121.34,-104.29 3122.12,-111.25"/>
</g>
<!-- 18 -->
<g id="node19" class="node">
<title>18</title>
<ellipse fill="none" stroke="black" cx="2489.75" cy="-1116.8" rx="54.93" ry="18"/>
<text text-anchor="middle" x="2489.75" y="-1111.75" font-family="Times New Roman,serif" font-size="14.00">greetinghub</text>
</g>
<!-- 18&#45;&gt;11 -->
<g id="edge20" class="edge">
<title>18&#45;&gt;11</title>
<path fill="none" stroke="black" d="M2450.06,-1103.93C2414.27,-1093.22 2361.01,-1077.29 2319.3,-1064.81"/>
<polygon fill="black" stroke="black" points="2320.45,-1061.5 2309.86,-1061.99 2318.44,-1068.21 2320.45,-1061.5"/>
</g>
<!-- 20 -->
<g id="node21" class="node">
<title>20</title>
<ellipse fill="none" stroke="black" cx="2907.75" cy="-1044.8" rx="196.19" ry="18"/>
<text text-anchor="middle" x="2907.75" y="-1039.75" font-family="Times New Roman,serif" font-size="14.00">You: 下雪的时候一切都安静了下来。</text>
</g>
<!-- 18&#45;&gt;20 -->
<g id="edge21" class="edge">
<title>18&#45;&gt;20</title>
<path fill="none" stroke="black" d="M2537.7,-1107.77C2602.55,-1096.91 2719.9,-1077.26 2805.1,-1062.99"/>
<polygon fill="black" stroke="black" points="2805.6,-1066.46 2814.88,-1061.35 2804.44,-1059.55 2805.6,-1066.46"/>
</g>
<!-- 21 -->
<g id="node22" class="node">
<title>21</title>
<ellipse fill="none" stroke="black" cx="2489.75" cy="-1044.8" rx="90.25" ry="18"/>
<text text-anchor="middle" x="2489.75" y="-1039.75" font-family="Times New Roman,serif" font-size="14.00">You: 听见什么？</text>
</g>
<!-- 18&#45;&gt;21 -->
<g id="edge22" class="edge">
<title>18&#45;&gt;21</title>
<path fill="none" stroke="black" d="M2489.75,-1098.5C2489.75,-1091.21 2489.75,-1082.53 2489.75,-1074.34"/>
<polygon fill="black" stroke="black" points="2493.25,-1074.42 2489.75,-1064.42 2486.25,-1074.42 2493.25,-1074.42"/>
</g>
<!-- 34 -->
<g id="node34" class="node">
<title>34</title>
<ellipse fill="none" stroke="black" cx="3537.75" cy="-1044.8" rx="102.02" ry="18"/>
<text text-anchor="middle" x="3537.75" y="-1039.75" font-family="Times New Roman,serif" font-size="14.00">You: 你在说雨吗？</text>
</g>
<!-- 18&#45;&gt;34 -->
<g id="edge19" class="edge">
<title>18&#45;&gt;34</title>
<path fill="none" stroke="black" d="M2543.16,-1112.23C2708.18,-1101.21 3212.01,-1067.56 3432.53,-1052.83"/>
<polygon fill="black" stroke="black" points="3432.52,-1056.34 3442.26,-1052.18 3432.05,-1049.35 3432.52,-1056.34"/>
</g>
<!-- 19 -->
<g id="node20" class="node">
<title>19</title>
<ellipse fill="none" stroke="black" cx="3683.75" cy="-594" rx="131.71" ry="18"/>
<text text-anchor="middle" x="3683.75" y="-588.95" font-family="Times New Roman,serif" font-size="14.00">You: 等等，什么是OFC？</text>
</g>
<!-- 19&#45;&gt;39 -->
<g id="edge23" class="edge">
<title>19&#45;&gt;39</title>
<path fill="none" stroke="black" d="M3642.49,-576.59C3618.46,-567.03 3587.9,-554.88 3561.95,-544.56"/>
<polygon fill="black" stroke="black" points="3563.51,-541.41 3552.93,-540.97 3560.93,-547.92 3563.51,-541.41"/>
</g>
<!-- 20&#45;&gt;9 -->
<g id="edge24" class="edge">
<title>20&#45;&gt;9</title>
<path fill="none" stroke="black" d="M2935.68,-1026.5C2950.08,-1017.58 2967.83,-1006.58 2983.39,-996.94"/>
<polygon fill="black" stroke="black" points="2984.8,-1000.19 2991.46,-991.94 2981.12,-994.24 2984.8,-1000.19"/>
</g>
<!-- 21&#45;&gt;6 -->
<g id="edge25" class="edge">
<title>21&#45;&gt;6</title>
<path fill="none" stroke="black" d="M2440.98,-1029.21C2407.09,-1019.07 2361.46,-1005.42 2323.97,-994.21"/>
<polygon fill="black" stroke="black" points="2325.16,-990.91 2314.57,-991.4 2323.15,-997.62 2325.16,-990.91"/>
</g>
<!-- 23 -->
<g id="node24" class="node">
<title>23</title>
<polygon fill="none" stroke="black" points="1806.75,-1278.8 1569.1,-1260.8 1806.75,-1242.8 2044.4,-1260.8 1806.75,-1278.8"/>
<text text-anchor="middle" x="1806.75" y="-1255.75" font-family="Times New Roman,serif" font-size="14.00">Variable[&quot;cargo.crane_container_moved&quot;]</text>
</g>
<!-- 22&#45;&gt;23 -->
<g id="edge27" class="edge">
<title>22&#45;&gt;23</title>
<path fill="none" stroke="black" d="M2000.75,-1315.48C1960.58,-1304.36 1907.56,-1289.69 1867.1,-1278.5"/>
<polygon fill="black" stroke="black" points="1868.08,-1275.14 1857.5,-1275.84 1866.21,-1281.88 1868.08,-1275.14"/>
</g>
<!-- 24 -->
<g id="node25" class="node">
<title>24</title>
<polygon fill="none" stroke="black" points="2400.75,-1278.8 2150.07,-1260.8 2400.75,-1242.8 2651.43,-1260.8 2400.75,-1278.8"/>
<text text-anchor="middle" x="2400.75" y="-1255.75" font-family="Times New Roman,serif" font-size="14.00">!(Variable[&quot;cargo.crane_container_moved&quot;])</text>
</g>
<!-- 22&#45;&gt;24 -->
<g id="edge26" class="edge">
<title>22&#45;&gt;24</title>
<path fill="none" stroke="black" d="M2135.01,-1316.35C2192.01,-1304.65 2269.92,-1288.66 2326.64,-1277.01"/>
<polygon fill="black" stroke="black" points="2327.11,-1280.49 2336.21,-1275.05 2325.71,-1273.63 2327.11,-1280.49"/>
</g>
<!-- 28 -->
<g id="node29" class="node">
<title>28</title>
<ellipse fill="none" stroke="black" cx="1630.75" cy="-1188.8" rx="161.9" ry="18"/>
<text text-anchor="middle" x="1630.75" y="-1183.75" font-family="Times New Roman,serif" font-size="14.00">Variable[&quot;cargo.container_rhetoric_wc&quot;]</text>
</g>
<!-- 23&#45;&gt;28 -->
<g id="edge28" class="edge">
<title>23&#45;&gt;28</title>
<path fill="none" stroke="black" d="M1769.85,-1245.13C1744.74,-1235.14 1711.12,-1221.77 1683.23,-1210.67"/>
<polygon fill="black" stroke="black" points="1684.84,-1207.55 1674.26,-1207.1 1682.25,-1214.05 1684.84,-1207.55"/>
</g>
<!-- 25 -->
<g id="node26" class="node">
<title>25</title>
<ellipse fill="none" stroke="black" cx="2444.75" cy="-1188.8" rx="155.76" ry="18"/>
<text text-anchor="middle" x="2444.75" y="-1183.75" font-family="Times New Roman,serif" font-size="14.00">Savoir Faire: 嘘，你听见了吗？</text>
</g>
<!-- 24&#45;&gt;25 -->
<g id="edge29" class="edge">
<title>24&#45;&gt;25</title>
<path fill="none" stroke="black" d="M2411.18,-1243.21C2416.13,-1235.34 2422.17,-1225.73 2427.75,-1216.84"/>
<polygon fill="black" stroke="black" points="2430.62,-1218.86 2432.98,-1208.53 2424.69,-1215.13 2430.62,-1218.86"/>
</g>
<!-- 25&#45;&gt;18 -->
<g id="edge30" class="edge">
<title>25&#45;&gt;18</title>
<path fill="none" stroke="black" d="M2455.87,-1170.5C2460.94,-1162.61 2467.05,-1153.1 2472.68,-1144.35"/>
<polygon fill="black" stroke="black" points="2475.47,-1146.48 2477.94,-1136.18 2469.58,-1142.7 2475.47,-1146.48"/>
</g>
<!-- 26 -->
<g id="node27" class="node">
<title>26</title>
<ellipse fill="none" stroke="black" cx="3378.75" cy="-738" rx="300.6" ry="18"/>
<text text-anchor="middle" x="3378.75" y="-732.95" font-family="Times New Roman,serif" font-size="14.00">Savoir Faire: 是的，我确定。*有人*把财产装在这些OFC里。</text>
</g>
<!-- 37 -->
<g id="node37" class="node">
<title>37</title>
<ellipse fill="none" stroke="black" cx="3548.75" cy="-666" rx="639.93" ry="18"/>
<text text-anchor="middle" x="3548.75" y="-660.95" font-family="Times New Roman,serif" font-size="14.00">Encyclopedia: OFC就是离岸财务中心 —— 也就是避税天堂。EPIS已经启用了离岸网络来对抗这些OFC，但这个问题仍然很普遍。</text>
</g>
<!-- 26&#45;&gt;37 -->
<g id="edge31" class="edge">
<title>26&#45;&gt;37</title>
<path fill="none" stroke="black" d="M3420.77,-719.7C3443.56,-710.32 3471.93,-698.63 3496.16,-688.65"/>
<polygon fill="black" stroke="black" points="3497.31,-691.97 3505.22,-684.92 3494.64,-685.49 3497.31,-691.97"/>
</g>
<!-- 29 -->
<g id="node30" class="node">
<title>29</title>
<polygon fill="none" stroke="black" points="865.75,-1134.8 636.79,-1116.8 865.75,-1098.8 1094.71,-1116.8 865.75,-1134.8"/>
<text text-anchor="middle" x="865.75" y="-1111.75" font-family="Times New Roman,serif" font-size="14.00">Variable[&quot;cargo.container_rhetoric_wc&quot;]</text>
</g>
<!-- 28&#45;&gt;29 -->
<g id="edge32" class="edge">
<title>28&#45;&gt;29</title>
<path fill="none" stroke="black" d="M1508.69,-1176.63C1363.09,-1163.31 1121.61,-1141.21 979.69,-1128.23"/>
<polygon fill="black" stroke="black" points="980.17,-1124.76 969.89,-1127.33 979.53,-1131.73 980.17,-1124.76"/>
</g>
<!-- 30 -->
<g id="node31" class="node">
<title>30</title>
<polygon fill="none" stroke="black" points="1630.75,-1134.8 1388.76,-1116.8 1630.75,-1098.8 1872.74,-1116.8 1630.75,-1134.8"/>
<text text-anchor="middle" x="1630.75" y="-1111.75" font-family="Times New Roman,serif" font-size="14.00">!(Variable[&quot;cargo.container_rhetoric_wc&quot;])</text>
</g>
<!-- 28&#45;&gt;30 -->
<g id="edge33" class="edge">
<title>28&#45;&gt;30</title>
<path fill="none" stroke="black" d="M1630.75,-1170.5C1630.75,-1163.21 1630.75,-1154.53 1630.75,-1146.34"/>
<polygon fill="black" stroke="black" points="1634.25,-1146.42 1630.75,-1136.42 1627.25,-1146.42 1634.25,-1146.42"/>
</g>
<!-- 38 -->
<g id="node38" class="node">
<title>38</title>
<ellipse fill="none" stroke="black" cx="588.75" cy="-1044.8" rx="588.75" ry="18"/>
<text text-anchor="middle" x="588.75" y="-1039.75" font-family="Times New Roman,serif" font-size="14.00">Savoir Faire: 好了。无论那里面的人是谁，他肯定很有钱。那么就让我们来说服他们买下我们的*独家*艺术画作吧。</text>
</g>
<!-- 29&#45;&gt;38 -->
<g id="edge34" class="edge">
<title>29&#45;&gt;38</title>
<path fill="none" stroke="black" d="M813,-1102.47C772.09,-1092.13 714.73,-1077.64 668.26,-1065.89"/>
<polygon fill="black" stroke="black" points="669.33,-1062.55 658.78,-1063.5 667.61,-1069.34 669.33,-1062.55"/>
</g>
<!-- 30&#45;&gt;4 -->
<g id="edge35" class="edge">
<title>30&#45;&gt;4</title>
<path fill="none" stroke="black" d="M1630.75,-1098.5C1630.75,-1091.21 1630.75,-1082.53 1630.75,-1074.34"/>
<polygon fill="black" stroke="black" points="1634.25,-1074.42 1630.75,-1064.42 1627.25,-1074.42 1634.25,-1074.42"/>
</g>
<!-- 32&#45;&gt;7 -->
<g id="edge37" class="edge">
<title>32&#45;&gt;7</title>
<path fill="none" stroke="black" d="M2989.68,-882.46C2948.43,-856.89 2880.75,-804.89 2880.75,-739 2880.75,-739 2880.75,-739 2880.75,-593 2880.75,-547.63 2911.93,-503.22 2935.11,-476.48"/>
<polygon fill="black" stroke="black" points="2937.53,-479.02 2941.6,-469.23 2932.32,-474.35 2937.53,-479.02"/>
</g>
<!-- 36 -->
<g id="node36" class="node">
<title>36</title>
<ellipse fill="none" stroke="black" cx="3160.75" cy="-819.4" rx="203.29" ry="27.4"/>
<text text-anchor="middle" x="3160.75" y="-821.48" font-family="Times New Roman,serif" font-size="14.00">You: 我一个人也没看见。你确定吗？</text>
<text text-anchor="middle" x="3160.75" y="-804.98" font-family="Times New Roman,serif" font-size="14.00">还是没有。你确定？</text>
</g>
<!-- 32&#45;&gt;36 -->
<g id="edge36" class="edge">
<title>32&#45;&gt;36</title>
<path fill="none" stroke="black" d="M3051.47,-882.38C3067.09,-873.52 3086.57,-862.47 3104.74,-852.17"/>
<polygon fill="black" stroke="black" points="3106.38,-855.26 3113.35,-847.28 3102.92,-849.17 3106.38,-855.26"/>
</g>
<!-- 34&#45;&gt;8 -->
<g id="edge38" class="edge">
<title>34&#45;&gt;8</title>
<path fill="none" stroke="black" d="M3599.41,-1030.05C3646.35,-1019.59 3711.59,-1005.05 3763.97,-993.37"/>
<polygon fill="black" stroke="black" points="3764.46,-996.85 3773.46,-991.25 3762.94,-990.01 3764.46,-996.85"/>
</g>
<!-- 35&#45;&gt;12 -->
<g id="edge40" class="edge">
<title>35&#45;&gt;12</title>
<path fill="none" stroke="black" d="M2923.41,-287.7C2903.99,-278.45 2879.88,-266.96 2859.12,-257.08"/>
<polygon fill="black" stroke="black" points="2860.82,-254.02 2850.29,-252.88 2857.81,-260.34 2860.82,-254.02"/>
</g>
<!-- 35&#45;&gt;16 -->
<g id="edge39" class="edge">
<title>35&#45;&gt;16</title>
<path fill="none" stroke="black" d="M3053.54,-288.6C3118.81,-272.24 3202.62,-240.44 3251.75,-180 3265.47,-163.13 3269.93,-138.67 3271.12,-119.66"/>
<polygon fill="black" stroke="black" points="3274.61,-119.99 3271.44,-109.88 3267.61,-119.76 3274.61,-119.99"/>
</g>
<!-- 36&#45;&gt;26 -->
<g id="edge41" class="edge">
<title>36&#45;&gt;26</title>
<path fill="none" stroke="black" d="M3230.03,-793.17C3259.19,-782.55 3292.76,-770.32 3320.61,-760.18"/>
<polygon fill="black" stroke="black" points="3321.75,-763.48 3329.95,-756.77 3319.36,-756.91 3321.75,-763.48"/>
</g>
<!-- 37&#45;&gt;7 -->
<g id="edge44" class="edge">
<title>37&#45;&gt;7</title>
<path fill="none" stroke="black" d="M3369.62,-648.28C3222.6,-630.64 3030.51,-597.26 2978.75,-540 2964.08,-523.77 2959.72,-499.06 2958.81,-479.79"/>
<polygon fill="black" stroke="black" points="2962.31,-479.8 2958.66,-469.85 2955.31,-479.91 2962.31,-479.8"/>
</g>
<!-- 37&#45;&gt;14 -->
<g id="edge43" class="edge">
<title>37&#45;&gt;14</title>
<path fill="none" stroke="black" d="M3505.24,-647.7C3481.11,-638.1 3450.91,-626.09 3425.44,-615.96"/>
<polygon fill="black" stroke="black" points="3426.84,-612.75 3416.25,-612.3 3424.25,-619.25 3426.84,-612.75"/>
</g>
<!-- 37&#45;&gt;19 -->
<g id="edge42" class="edge">
<title>37&#45;&gt;19</title>
<path fill="none" stroke="black" d="M3582.12,-647.7C3599.91,-638.47 3621.99,-627.03 3641.02,-617.16"/>
<polygon fill="black" stroke="black" points="3642.62,-620.27 3649.89,-612.56 3639.4,-614.06 3642.62,-620.27"/>
</g>
<!-- 39&#45;&gt;7 -->
<g id="edge45" class="edge">
<title>39&#45;&gt;7</title>
<path fill="none" stroke="black" d="M3375.79,-504.14C3275.67,-491.35 3140.57,-474.1 3051.86,-462.77"/>
<polygon fill="black" stroke="black" points="3052.33,-459.3 3041.97,-461.5 3051.45,-466.24 3052.33,-459.3"/>
</g>
</g>
</svg>
