<?xml version="1.0" encoding="UTF-8" standalone="no"?>
<!DOCTYPE svg PUBLIC "-//W3C//DTD SVG 1.1//EN"
 "http://www.w3.org/Graphics/SVG/1.1/DTD/svg11.dtd">
<!-- Generated by graphviz version 12.2.1 (20241206.2353)
 -->
<!-- Title: G Pages: 1 -->
<svg width="3331pt" height="2464pt"
 viewBox="0.00 0.00 3330.92 2463.97" xmlns="http://www.w3.org/2000/svg" xmlns:xlink="http://www.w3.org/1999/xlink">
<g id="graph0" class="graph" transform="scale(1 1) rotate(0) translate(4 2459.97)">
<title>G</title>
<polygon fill="white" stroke="none" points="-4,4 -4,-2459.97 3326.92,-2459.97 3326.92,4 -4,4"/>
<!-- 0 -->
<g id="node1" class="node">
<title>0</title>
<ellipse fill="none" stroke="black" cx="2262.77" cy="-2437.97" rx="39.07" ry="18"/>
<text text-anchor="middle" x="2262.77" y="-2432.92" font-family="Times New Roman,serif" font-size="14.00">START</text>
</g>
<!-- 1 -->
<g id="node2" class="node">
<title>1</title>
<ellipse fill="none" stroke="black" cx="2262.77" cy="-2365.97" rx="29.86" ry="18"/>
<text text-anchor="middle" x="2262.77" y="-2360.92" font-family="Times New Roman,serif" font-size="14.00">input</text>
</g>
<!-- 0&#45;&gt;1 -->
<g id="edge1" class="edge">
<title>0&#45;&gt;1</title>
<path fill="none" stroke="black" d="M2262.77,-2419.66C2262.77,-2412.37 2262.77,-2403.69 2262.77,-2395.5"/>
<polygon fill="black" stroke="black" points="2266.27,-2395.58 2262.77,-2385.58 2259.27,-2395.58 2266.27,-2395.58"/>
</g>
<!-- 8 -->
<g id="node9" class="node">
<title>8</title>
<ellipse fill="none" stroke="black" cx="2262.77" cy="-2293.97" rx="172.14" ry="18"/>
<text text-anchor="middle" x="2262.77" y="-2288.92" font-family="Times New Roman,serif" font-size="14.00">Kim Kitsuragi: “我们从头开始吧。”</text>
</g>
<!-- 1&#45;&gt;8 -->
<g id="edge2" class="edge">
<title>1&#45;&gt;8</title>
<path fill="none" stroke="black" d="M2262.77,-2347.66C2262.77,-2340.37 2262.77,-2331.69 2262.77,-2323.5"/>
<polygon fill="black" stroke="black" points="2266.27,-2323.58 2262.77,-2313.58 2259.27,-2323.58 2266.27,-2323.58"/>
</g>
<!-- 2 -->
<g id="node3" class="node">
<title>2</title>
<ellipse fill="none" stroke="black" cx="2051.77" cy="-997.97" rx="169.58" ry="18"/>
<text text-anchor="middle" x="2051.77" y="-992.92" font-family="Times New Roman,serif" font-size="14.00">Authority: 这件事已经有定论了。</text>
</g>
<!-- 24 -->
<g id="node25" class="node">
<title>24</title>
<ellipse fill="none" stroke="black" cx="1701.77" cy="-925.97" rx="296" ry="18"/>
<text text-anchor="middle" x="1701.77" y="-920.92" font-family="Times New Roman,serif" font-size="14.00">You: “我们还是不知道他们是*怎么*听到广播的，对吧？”</text>
</g>
<!-- 2&#45;&gt;24 -->
<g id="edge3" class="edge">
<title>2&#45;&gt;24</title>
<path fill="none" stroke="black" d="M1974.53,-981.52C1921.97,-971 1852.09,-957.03 1796.21,-945.85"/>
<polygon fill="black" stroke="black" points="1797.21,-942.48 1786.72,-943.96 1795.84,-949.35 1797.21,-942.48"/>
</g>
<!-- 43 -->
<g id="node44" class="node">
<title>43</title>
<ellipse fill="none" stroke="black" cx="2401.77" cy="-925.97" rx="294.46" ry="18"/>
<text text-anchor="middle" x="2401.77" y="-920.92" font-family="Times New Roman,serif" font-size="14.00">You: “什么鬼东西。这是……什么意思？”（陷入沉思。）</text>
</g>
<!-- 2&#45;&gt;43 -->
<g id="edge4" class="edge">
<title>2&#45;&gt;43</title>
<path fill="none" stroke="black" d="M2129.02,-981.52C2181.58,-971 2251.46,-957.03 2307.33,-945.85"/>
<polygon fill="black" stroke="black" points="2307.71,-949.35 2316.83,-943.96 2306.33,-942.48 2307.71,-949.35"/>
</g>
<!-- 3 -->
<g id="node4" class="node">
<title>3</title>
<ellipse fill="none" stroke="black" cx="1537.77" cy="-349.97" rx="360.48" ry="18"/>
<text text-anchor="middle" x="1537.77" y="-344.92" font-family="Times New Roman,serif" font-size="14.00">Kim Kitsuragi: “我不知道该说什么，也不知道你想要我说什么。抱歉。”</text>
</g>
<!-- 34 -->
<g id="node35" class="node">
<title>34</title>
<ellipse fill="none" stroke="black" cx="1537.77" cy="-266.97" rx="605.28" ry="28.99"/>
<text text-anchor="middle" x="1537.77" y="-270.17" font-family="Times New Roman,serif" font-size="14.00">Kim Kitsuragi: 一阵风将警督的头发吹乱。他拨了拨头发。“我们问过那些孩子是在哪儿听到声音的吗？”</text>
<text text-anchor="middle" x="1537.77" y="-253.67" font-family="Times New Roman,serif" font-size="14.00">一阵风将警督的头发吹乱。他拨了拨头发。“你第一次和那对双胞胎对话时，问过他们是在哪儿听到声音的吗？”</text>
</g>
<!-- 3&#45;&gt;34 -->
<g id="edge5" class="edge">
<title>3&#45;&gt;34</title>
<path fill="none" stroke="black" d="M1537.77,-331.79C1537.77,-324.7 1537.77,-316.17 1537.77,-307.68"/>
<polygon fill="black" stroke="black" points="1541.27,-307.79 1537.77,-297.79 1534.27,-307.79 1541.27,-307.79"/>
</g>
<!-- 4 -->
<g id="node5" class="node">
<title>4</title>
<ellipse fill="none" stroke="black" cx="1537.77" cy="-111.98" rx="313.4" ry="18"/>
<text text-anchor="middle" x="1537.77" y="-106.93" font-family="Times New Roman,serif" font-size="14.00">Kim Kitsuragi: “我们可以去问问事情发生的时候他们在哪儿。”</text>
</g>
<!-- 45 -->
<g id="node46" class="node">
<title>45</title>
<ellipse fill="none" stroke="black" cx="1537.77" cy="-28.99" rx="402.17" ry="28.99"/>
<text text-anchor="middle" x="1537.77" y="-32.19" font-family="Times New Roman,serif" font-size="14.00">Kim Kitsuragi: “还有，警探……”他微笑着转向你。“谢了，这还挺有意思的。”</text>
<text text-anchor="middle" x="1537.77" y="-15.69" font-family="Times New Roman,serif" font-size="14.00">他望着海岸点点头。“等你准备好了就行。”他冷冰冰地说道。</text>
</g>
<!-- 4&#45;&gt;45 -->
<g id="edge6" class="edge">
<title>4&#45;&gt;45</title>
<path fill="none" stroke="black" d="M1537.77,-93.81C1537.77,-86.72 1537.77,-78.19 1537.77,-69.7"/>
<polygon fill="black" stroke="black" points="1541.27,-69.81 1537.77,-59.81 1534.27,-69.81 1541.27,-69.81"/>
</g>
<!-- 5 -->
<g id="node6" class="node">
<title>5</title>
<ellipse fill="none" stroke="black" cx="1733.77" cy="-709.97" rx="460.8" ry="18"/>
<text text-anchor="middle" x="1733.77" y="-704.92" font-family="Times New Roman,serif" font-size="14.00">You: “我是说，*我*脑海中总有个奇怪的声音要我去和孩子们谈话。也许和这件事有关？”</text>
</g>
<!-- 23 -->
<g id="node24" class="node">
<title>23</title>
<ellipse fill="none" stroke="black" cx="1537.77" cy="-637.97" rx="313.4" ry="18"/>
<text text-anchor="middle" x="1537.77" y="-632.92" font-family="Times New Roman,serif" font-size="14.00">Kim Kitsuragi: “我觉得你脑子里的声音和这件事没什么关系。”</text>
</g>
<!-- 5&#45;&gt;23 -->
<g id="edge7" class="edge">
<title>5&#45;&gt;23</title>
<path fill="none" stroke="black" d="M1685.07,-691.57C1658.23,-681.99 1624.72,-670.02 1596.44,-659.92"/>
<polygon fill="black" stroke="black" points="1597.9,-656.72 1587.31,-656.66 1595.55,-663.32 1597.9,-656.72"/>
</g>
<!-- 6 -->
<g id="node7" class="node">
<title>6</title>
<ellipse fill="none" stroke="black" cx="1090.77" cy="-183.98" rx="133.75" ry="18"/>
<text text-anchor="middle" x="1090.77" y="-178.93" font-family="Times New Roman,serif" font-size="14.00">You: “我没有，对不起。”</text>
</g>
<!-- 7 -->
<g id="node8" class="node">
<title>7</title>
<ellipse fill="none" stroke="black" cx="869.77" cy="-111.98" rx="336.94" ry="18"/>
<text text-anchor="middle" x="869.77" y="-106.93" font-family="Times New Roman,serif" font-size="14.00">Kim Kitsuragi: “你没必要道歉。我只是想说，去问问他们比较好。”</text>
</g>
<!-- 6&#45;&gt;7 -->
<g id="edge8" class="edge">
<title>6&#45;&gt;7</title>
<path fill="none" stroke="black" d="M1040.07,-166.92C1008.79,-157.02 968.37,-144.21 934.76,-133.57"/>
<polygon fill="black" stroke="black" points="936.13,-130.33 925.54,-130.65 934.02,-137 936.13,-130.33"/>
</g>
<!-- 7&#45;&gt;45 -->
<g id="edge9" class="edge">
<title>7&#45;&gt;45</title>
<path fill="none" stroke="black" d="M1001.75,-94.98C1093.74,-83.83 1218.48,-68.7 1324.48,-55.85"/>
<polygon fill="black" stroke="black" points="1324.65,-59.36 1334.16,-54.68 1323.81,-52.41 1324.65,-59.36"/>
</g>
<!-- 17 -->
<g id="node18" class="node">
<title>17</title>
<ellipse fill="none" stroke="black" cx="2262.77" cy="-2221.97" rx="215.13" ry="18"/>
<text text-anchor="middle" x="2262.77" y="-2216.92" font-family="Times New Roman,serif" font-size="14.00">Variable[&quot;plaza.kineema_mesh_worst_kim_shoutout&quot;]</text>
</g>
<!-- 8&#45;&gt;17 -->
<g id="edge10" class="edge">
<title>8&#45;&gt;17</title>
<path fill="none" stroke="black" d="M2262.77,-2275.66C2262.77,-2268.37 2262.77,-2259.69 2262.77,-2251.5"/>
<polygon fill="black" stroke="black" points="2266.27,-2251.58 2262.77,-2241.58 2259.27,-2251.58 2266.27,-2251.58"/>
</g>
<!-- 9 -->
<g id="node10" class="node">
<title>9</title>
<ellipse fill="none" stroke="black" cx="1492.77" cy="-1501.97" rx="407.57" ry="18"/>
<text text-anchor="middle" x="1492.77" y="-1496.92" font-family="Times New Roman,serif" font-size="14.00">Kim Kitsuragi: 警督摇了摇头。“我们赶紧把这个案子结了吧。我只想立马办完。”</text>
</g>
<!-- 33 -->
<g id="node34" class="node">
<title>33</title>
<ellipse fill="none" stroke="black" cx="1451.77" cy="-1285.97" rx="832.37" ry="18"/>
<text text-anchor="middle" x="1451.77" y="-1280.92" font-family="Times New Roman,serif" font-size="14.00">Kim Kitsuragi: “这对双胞胎肯定是听了狂飙怪人.FM”，他一边平息着愤怒一边说道。“我还是不知道他们在没有收音机的情况下是怎么做到的，但他们一定是听过。”</text>
</g>
<!-- 9&#45;&gt;33 -->
<g id="edge11" class="edge">
<title>9&#45;&gt;33</title>
<path fill="none" stroke="black" d="M1489.49,-1483.81C1482.45,-1447.11 1465.89,-1360.63 1457.24,-1315.5"/>
<polygon fill="black" stroke="black" points="1460.68,-1314.85 1455.36,-1305.68 1453.8,-1316.16 1460.68,-1314.85"/>
</g>
<!-- 10 -->
<g id="node11" class="node">
<title>10</title>
<ellipse fill="none" stroke="black" cx="1537.77" cy="-183.98" rx="74.89" ry="18"/>
<text text-anchor="middle" x="1537.77" y="-178.93" font-family="Times New Roman,serif" font-size="14.00">You: “没有。”</text>
</g>
<!-- 10&#45;&gt;4 -->
<g id="edge12" class="edge">
<title>10&#45;&gt;4</title>
<path fill="none" stroke="black" d="M1537.77,-165.68C1537.77,-158.39 1537.77,-149.71 1537.77,-141.52"/>
<polygon fill="black" stroke="black" points="1541.27,-141.6 1537.77,-131.6 1534.27,-141.6 1541.27,-141.6"/>
</g>
<!-- 11 -->
<g id="node12" class="node">
<title>11</title>
<ellipse fill="none" stroke="black" cx="730.77" cy="-1357.97" rx="269.38" ry="18"/>
<text text-anchor="middle" x="730.77" y="-1352.92" font-family="Times New Roman,serif" font-size="14.00">Volition: 治愈之路是漫长的。坚持到底，总会胜利。</text>
</g>
<!-- 11&#45;&gt;33 -->
<g id="edge13" class="edge">
<title>11&#45;&gt;33</title>
<path fill="none" stroke="black" d="M879.29,-1342.55C991.02,-1331.7 1144.89,-1316.76 1264.97,-1305.1"/>
<polygon fill="black" stroke="black" points="1264.99,-1308.62 1274.61,-1304.17 1264.31,-1301.65 1264.99,-1308.62"/>
</g>
<!-- 12 -->
<g id="node13" class="node">
<title>12</title>
<ellipse fill="none" stroke="black" cx="2051.77" cy="-1141.97" rx="322.1" ry="18"/>
<text text-anchor="middle" x="2051.77" y="-1136.92" font-family="Times New Roman,serif" font-size="14.00">You: “等等，金。见到你的无线电英雄，不打算说点什么吗？”</text>
</g>
<!-- 13 -->
<g id="node14" class="node">
<title>13</title>
<ellipse fill="none" stroke="black" cx="2051.77" cy="-1069.97" rx="101.51" ry="18"/>
<text text-anchor="middle" x="2051.77" y="-1064.92" font-family="Times New Roman,serif" font-size="14.00">Kim Kitsuragi: “不。”</text>
</g>
<!-- 12&#45;&gt;13 -->
<g id="edge14" class="edge">
<title>12&#45;&gt;13</title>
<path fill="none" stroke="black" d="M2051.77,-1123.66C2051.77,-1116.37 2051.77,-1107.69 2051.77,-1099.5"/>
<polygon fill="black" stroke="black" points="2055.27,-1099.58 2051.77,-1089.58 2048.27,-1099.58 2055.27,-1099.58"/>
</g>
<!-- 13&#45;&gt;2 -->
<g id="edge15" class="edge">
<title>13&#45;&gt;2</title>
<path fill="none" stroke="black" d="M2051.77,-1051.66C2051.77,-1044.37 2051.77,-1035.69 2051.77,-1027.5"/>
<polygon fill="black" stroke="black" points="2055.27,-1027.58 2051.77,-1017.58 2048.27,-1027.58 2055.27,-1027.58"/>
</g>
<!-- 14 -->
<g id="node15" class="node">
<title>14</title>
<ellipse fill="none" stroke="black" cx="1637.77" cy="-853.97" rx="391.7" ry="18"/>
<text text-anchor="middle" x="1637.77" y="-848.92" font-family="Times New Roman,serif" font-size="14.00">Kim Kitsuragi: 警督的目光看向海岸，看向远处的渔村。“嗯……我们不知道。”</text>
</g>
<!-- 48 -->
<g id="node49" class="node">
<title>48</title>
<ellipse fill="none" stroke="black" cx="2051.77" cy="-781.97" rx="75.41" ry="18"/>
<text text-anchor="middle" x="2051.77" y="-776.92" font-family="Times New Roman,serif" font-size="14.00">Untitled hub (04)</text>
</g>
<!-- 14&#45;&gt;48 -->
<g id="edge16" class="edge">
<title>14&#45;&gt;48</title>
<path fill="none" stroke="black" d="M1737.46,-836.11C1812.33,-823.45 1913.08,-806.42 1980.11,-795.08"/>
<polygon fill="black" stroke="black" points="1980.63,-798.54 1989.9,-793.43 1979.46,-791.64 1980.63,-798.54"/>
</g>
<!-- 15 -->
<g id="node16" class="node">
<title>15</title>
<ellipse fill="none" stroke="black" cx="1537.77" cy="-565.97" rx="333.87" ry="18"/>
<text text-anchor="middle" x="1537.77" y="-560.92" font-family="Times New Roman,serif" font-size="14.00">You: “可那声音听起来不像是来自我的思维。像是女性的声音。”</text>
</g>
<!-- 51 -->
<g id="node51" class="node">
<title>51</title>
<ellipse fill="none" stroke="black" cx="1537.77" cy="-493.97" rx="163.95" ry="18"/>
<text text-anchor="middle" x="1537.77" y="-488.92" font-family="Times New Roman,serif" font-size="14.00">Kim Kitsuragi: 警督看了你许久。</text>
</g>
<!-- 15&#45;&gt;51 -->
<g id="edge17" class="edge">
<title>15&#45;&gt;51</title>
<path fill="none" stroke="black" d="M1537.77,-547.66C1537.77,-540.37 1537.77,-531.69 1537.77,-523.5"/>
<polygon fill="black" stroke="black" points="1541.27,-523.58 1537.77,-513.58 1534.27,-523.58 1541.27,-523.58"/>
</g>
<!-- 16 -->
<g id="node17" class="node">
<title>16</title>
<ellipse fill="none" stroke="black" cx="1099.77" cy="-493.97" rx="157.3" ry="18"/>
<text text-anchor="middle" x="1099.77" y="-488.92" font-family="Times New Roman,serif" font-size="14.00">You: “大概没有。抱歉，金。”</text>
</g>
<!-- 16&#45;&gt;34 -->
<g id="edge18" class="edge">
<title>16&#45;&gt;34</title>
<path fill="none" stroke="black" d="M1073.19,-475.88C1061.54,-466.78 1049.09,-454.46 1042.77,-439.97 1036.38,-425.3 1034.74,-417.8 1042.77,-403.97 1075.15,-348.18 1108.08,-353.8 1168.77,-331.97 1210.6,-316.92 1256.4,-305.34 1301.07,-296.46"/>
<polygon fill="black" stroke="black" points="1301.46,-299.95 1310.61,-294.6 1300.12,-293.07 1301.46,-299.95"/>
</g>
<!-- 18 -->
<g id="node19" class="node">
<title>18</title>
<polygon fill="none" stroke="black" points="1942.77,-2167.97 1638.53,-2149.97 1942.77,-2131.97 2247.01,-2149.97 1942.77,-2167.97"/>
<text text-anchor="middle" x="1942.77" y="-2144.92" font-family="Times New Roman,serif" font-size="14.00">Variable[&quot;plaza.kineema_mesh_worst_kim_shoutout&quot;]</text>
</g>
<!-- 17&#45;&gt;18 -->
<g id="edge19" class="edge">
<title>17&#45;&gt;18</title>
<path fill="none" stroke="black" d="M2188.15,-2204.64C2136.53,-2193.35 2068.15,-2178.39 2016.69,-2167.13"/>
<polygon fill="black" stroke="black" points="2017.64,-2163.76 2007.12,-2165.04 2016.15,-2170.6 2017.64,-2163.76"/>
</g>
<!-- 19 -->
<g id="node20" class="node">
<title>19</title>
<polygon fill="none" stroke="black" points="2616.77,-2167.97 2299.5,-2149.97 2616.77,-2131.97 2934.04,-2149.97 2616.77,-2167.97"/>
<text text-anchor="middle" x="2616.77" y="-2144.92" font-family="Times New Roman,serif" font-size="14.00">!(Variable[&quot;plaza.kineema_mesh_worst_kim_shoutout&quot;])</text>
</g>
<!-- 17&#45;&gt;19 -->
<g id="edge20" class="edge">
<title>17&#45;&gt;19</title>
<path fill="none" stroke="black" d="M2343.99,-2204.91C2401.88,-2193.46 2479.33,-2178.14 2536.91,-2166.76"/>
<polygon fill="black" stroke="black" points="2537.53,-2170.2 2546.66,-2164.83 2536.17,-2163.34 2537.53,-2170.2"/>
</g>
<!-- 22 -->
<g id="node23" class="node">
<title>22</title>
<ellipse fill="none" stroke="black" cx="1873.77" cy="-2077.97" rx="466.43" ry="18"/>
<text text-anchor="middle" x="1873.77" y="-2072.92" font-family="Times New Roman,serif" font-size="14.00">Kim Kitsuragi: “你羞辱了我。我不管你有什么政治信仰，但你不能公开宣扬我也是那种人。”</text>
</g>
<!-- 18&#45;&gt;22 -->
<g id="edge21" class="edge">
<title>18&#45;&gt;22</title>
<path fill="none" stroke="black" d="M1926.77,-2132.73C1918.39,-2124.23 1907.95,-2113.64 1898.56,-2104.11"/>
<polygon fill="black" stroke="black" points="1901.23,-2101.83 1891.71,-2097.17 1896.24,-2106.75 1901.23,-2101.83"/>
</g>
<!-- 20 -->
<g id="node21" class="node">
<title>20</title>
<ellipse fill="none" stroke="black" cx="2651.77" cy="-2005.97" rx="671.15" ry="18"/>
<text text-anchor="middle" x="2651.77" y="-2000.92" font-family="Times New Roman,serif" font-size="14.00">Kim Kitsuragi: “这对双胞胎肯定是听了狂飙怪人.FM。我还是不知道他们在没有收音机的情况下是怎么做到的，但他们一定是听过。”</text>
</g>
<!-- 19&#45;&gt;20 -->
<g id="edge22" class="edge">
<title>19&#45;&gt;20</title>
<path fill="none" stroke="black" d="M2620.99,-2131.84C2626.91,-2107.85 2637.73,-2063.96 2644.83,-2035.12"/>
<polygon fill="black" stroke="black" points="2648.18,-2036.17 2647.17,-2025.62 2641.38,-2034.5 2648.18,-2036.17"/>
</g>
<!-- 27 -->
<g id="node28" class="node">
<title>27</title>
<ellipse fill="none" stroke="black" cx="2051.77" cy="-1213.97" rx="75.41" ry="18"/>
<text text-anchor="middle" x="2051.77" y="-1208.92" font-family="Times New Roman,serif" font-size="14.00">Untitled hub (03)</text>
</g>
<!-- 20&#45;&gt;27 -->
<g id="edge23" class="edge">
<title>20&#45;&gt;27</title>
<path fill="none" stroke="black" d="M2651.77,-1987.48C2651.77,-1960.68 2651.77,-1907.83 2651.77,-1862.97 2651.77,-1862.97 2651.77,-1862.97 2651.77,-1356.97 2651.77,-1252.59 2303.58,-1224.83 2137.69,-1217.53"/>
<polygon fill="black" stroke="black" points="2138.2,-1214.05 2128.06,-1217.12 2137.91,-1221.04 2138.2,-1214.05"/>
</g>
<!-- 21 -->
<g id="node22" class="node">
<title>21</title>
<ellipse fill="none" stroke="black" cx="2566.77" cy="-421.97" rx="525.29" ry="18"/>
<text text-anchor="middle" x="2566.77" y="-416.92" font-family="Times New Roman,serif" font-size="14.00">Kim Kitsuragi: “那倒未必。我们已经了解到一点情况了。虽然不知道是怎么回事，但终归有点线索了。”</text>
</g>
<!-- 21&#45;&gt;34 -->
<g id="edge24" class="edge">
<title>21&#45;&gt;34</title>
<path fill="none" stroke="black" d="M2452.22,-403.93C2277.89,-378.01 1943.84,-328.35 1731.36,-296.76"/>
<polygon fill="black" stroke="black" points="1731.97,-293.31 1721.57,-295.3 1730.95,-300.23 1731.97,-293.31"/>
</g>
<!-- 35 -->
<g id="node36" class="node">
<title>35</title>
<ellipse fill="none" stroke="black" cx="1736.77" cy="-2005.97" rx="225.37" ry="18"/>
<text text-anchor="middle" x="1736.77" y="-2000.92" font-family="Times New Roman,serif" font-size="14.00">Variable[&quot;plaza.kineema_radio_kim_heard_bad_callout&quot;]</text>
</g>
<!-- 22&#45;&gt;35 -->
<g id="edge25" class="edge">
<title>22&#45;&gt;35</title>
<path fill="none" stroke="black" d="M1839.91,-2059.66C1821.91,-2050.46 1799.58,-2039.05 1780.3,-2029.21"/>
<polygon fill="black" stroke="black" points="1782.09,-2026.19 1771.6,-2024.76 1778.91,-2032.43 1782.09,-2026.19"/>
</g>
<!-- 23&#45;&gt;15 -->
<g id="edge27" class="edge">
<title>23&#45;&gt;15</title>
<path fill="none" stroke="black" d="M1537.77,-619.66C1537.77,-612.37 1537.77,-603.69 1537.77,-595.5"/>
<polygon fill="black" stroke="black" points="1541.27,-595.58 1537.77,-585.58 1534.27,-595.58 1541.27,-595.58"/>
</g>
<!-- 23&#45;&gt;16 -->
<g id="edge26" class="edge">
<title>23&#45;&gt;16</title>
<path fill="none" stroke="black" d="M1382.3,-621.94C1307.92,-612.95 1227.96,-600.12 1194.77,-583.97 1164.5,-569.23 1137.3,-541.51 1119.84,-520.91"/>
<polygon fill="black" stroke="black" points="1122.76,-518.96 1113.71,-513.46 1117.36,-523.4 1122.76,-518.96"/>
</g>
<!-- 24&#45;&gt;14 -->
<g id="edge28" class="edge">
<title>24&#45;&gt;14</title>
<path fill="none" stroke="black" d="M1685.95,-907.66C1678.43,-899.44 1669.3,-889.45 1661.01,-880.39"/>
<polygon fill="black" stroke="black" points="1663.76,-878.21 1654.43,-873.19 1658.6,-882.93 1663.76,-878.21"/>
</g>
<!-- 25 -->
<g id="node26" class="node">
<title>25</title>
<ellipse fill="none" stroke="black" cx="2418.77" cy="-709.97" rx="157.3" ry="18"/>
<text text-anchor="middle" x="2418.77" y="-704.92" font-family="Times New Roman,serif" font-size="14.00">You: “看来我们卡在这儿了。”</text>
</g>
<!-- 28 -->
<g id="node29" class="node">
<title>28</title>
<ellipse fill="none" stroke="black" cx="2443.77" cy="-637.97" rx="269.89" ry="18"/>
<text text-anchor="middle" x="2443.77" y="-632.92" font-family="Times New Roman,serif" font-size="14.00">Kim Kitsuragi: 警督的注意力从海岸转移回你的身上。</text>
</g>
<!-- 25&#45;&gt;28 -->
<g id="edge29" class="edge">
<title>25&#45;&gt;28</title>
<path fill="none" stroke="black" d="M2424.95,-691.66C2427.65,-684.12 2430.87,-675.08 2433.89,-666.65"/>
<polygon fill="black" stroke="black" points="2437.09,-668.09 2437.16,-657.5 2430.5,-665.74 2437.09,-668.09"/>
</g>
<!-- 26 -->
<g id="node27" class="node">
<title>26</title>
<ellipse fill="none" stroke="black" cx="1492.77" cy="-1789.97" rx="505.33" ry="18"/>
<text text-anchor="middle" x="1492.77" y="-1784.92" font-family="Times New Roman,serif" font-size="14.00">Kim Kitsuragi: “你要是敢再这么做——或者打算这么做——我会要你好看的。这种行为非常讨人厌。”</text>
</g>
<!-- 31 -->
<g id="node32" class="node">
<title>31</title>
<ellipse fill="none" stroke="black" cx="1492.77" cy="-1717.97" rx="245.84" ry="18"/>
<text text-anchor="middle" x="1492.77" y="-1712.92" font-family="Times New Roman,serif" font-size="14.00">Volition: 这确实很伤人。道个歉，好好改正吧。</text>
</g>
<!-- 26&#45;&gt;31 -->
<g id="edge30" class="edge">
<title>26&#45;&gt;31</title>
<path fill="none" stroke="black" d="M1492.77,-1771.66C1492.77,-1764.37 1492.77,-1755.69 1492.77,-1747.5"/>
<polygon fill="black" stroke="black" points="1496.27,-1747.58 1492.77,-1737.58 1489.27,-1747.58 1496.27,-1747.58"/>
</g>
<!-- 27&#45;&gt;12 -->
<g id="edge33" class="edge">
<title>27&#45;&gt;12</title>
<path fill="none" stroke="black" d="M2051.77,-1195.66C2051.77,-1188.37 2051.77,-1179.69 2051.77,-1171.5"/>
<polygon fill="black" stroke="black" points="2055.27,-1171.58 2051.77,-1161.58 2048.27,-1171.58 2055.27,-1171.58"/>
</g>
<!-- 27&#45;&gt;24 -->
<g id="edge31" class="edge">
<title>27&#45;&gt;24</title>
<path fill="none" stroke="black" d="M1976.95,-1211.36C1890.11,-1207.8 1754.47,-1196.38 1720.77,-1159.97 1668.82,-1103.83 1683.06,-1004.07 1694.19,-955.34"/>
<polygon fill="black" stroke="black" points="1697.54,-956.39 1696.49,-945.85 1690.74,-954.75 1697.54,-956.39"/>
</g>
<!-- 27&#45;&gt;43 -->
<g id="edge32" class="edge">
<title>27&#45;&gt;43</title>
<path fill="none" stroke="black" d="M2126.6,-1211.36C2213.44,-1207.8 2349.07,-1196.38 2382.77,-1159.97 2434.72,-1103.83 2420.48,-1004.07 2409.35,-955.34"/>
<polygon fill="black" stroke="black" points="2412.81,-954.75 2407.06,-945.85 2406.01,-956.39 2412.81,-954.75"/>
</g>
<!-- 28&#45;&gt;21 -->
<g id="edge34" class="edge">
<title>28&#45;&gt;21</title>
<path fill="none" stroke="black" d="M2453.63,-619.81C2474.95,-582.72 2525.5,-494.78 2551.2,-450.07"/>
<polygon fill="black" stroke="black" points="2554.17,-451.92 2556.11,-441.51 2548.1,-448.44 2554.17,-451.92"/>
</g>
<!-- 29 -->
<g id="node30" class="node">
<title>29</title>
<ellipse fill="none" stroke="black" cx="2008.77" cy="-183.98" rx="169.07" ry="18"/>
<text text-anchor="middle" x="2008.77" y="-178.93" font-family="Times New Roman,serif" font-size="14.00">You: “你这是在批评我吗，金？”</text>
</g>
<!-- 52 -->
<g id="node52" class="node">
<title>52</title>
<ellipse fill="none" stroke="black" cx="2217.77" cy="-111.98" rx="348.71" ry="18"/>
<text text-anchor="middle" x="2217.77" y="-106.93" font-family="Times New Roman,serif" font-size="14.00">Kim Kitsuragi: 他叹了口气。“不是。我只是觉得去问问他们比较好。”</text>
</g>
<!-- 29&#45;&gt;52 -->
<g id="edge35" class="edge">
<title>29&#45;&gt;52</title>
<path fill="none" stroke="black" d="M2058.57,-166.3C2087.62,-156.57 2124.53,-144.21 2155.49,-133.84"/>
<polygon fill="black" stroke="black" points="2156.37,-137.24 2164.74,-130.74 2154.15,-130.6 2156.37,-137.24"/>
</g>
<!-- 30 -->
<g id="node31" class="node">
<title>30</title>
<ellipse fill="none" stroke="black" cx="2051.77" cy="-1357.97" rx="572.37" ry="18"/>
<text text-anchor="middle" x="2051.77" y="-1352.92" font-family="Times New Roman,serif" font-size="14.00">Kim Kitsuragi: 警督的目光看向你。“我现在都不觉得奇怪了，警官。赶紧把这个案子结了吧。我只想立马办完。”</text>
</g>
<!-- 30&#45;&gt;33 -->
<g id="edge36" class="edge">
<title>30&#45;&gt;33</title>
<path fill="none" stroke="black" d="M1907.29,-1340.11C1817.75,-1329.66 1702.66,-1316.24 1610.57,-1305.49"/>
<polygon fill="black" stroke="black" points="1611.01,-1302.02 1600.67,-1304.34 1610.2,-1308.97 1611.01,-1302.02"/>
</g>
<!-- 32 -->
<g id="node33" class="node">
<title>32</title>
<ellipse fill="none" stroke="black" cx="1492.77" cy="-1645.97" rx="90.25" ry="18"/>
<text text-anchor="middle" x="1492.77" y="-1640.92" font-family="Times New Roman,serif" font-size="14.00">You: 沉默不语。</text>
</g>
<!-- 31&#45;&gt;32 -->
<g id="edge37" class="edge">
<title>31&#45;&gt;32</title>
<path fill="none" stroke="black" d="M1492.77,-1699.66C1492.77,-1692.37 1492.77,-1683.69 1492.77,-1675.5"/>
<polygon fill="black" stroke="black" points="1496.27,-1675.58 1492.77,-1665.58 1489.27,-1675.58 1496.27,-1675.58"/>
</g>
<!-- 42 -->
<g id="node43" class="node">
<title>42</title>
<ellipse fill="none" stroke="black" cx="1949.77" cy="-1645.97" rx="286.78" ry="18"/>
<text text-anchor="middle" x="1949.77" y="-1640.92" font-family="Times New Roman,serif" font-size="14.00">You: “我只是说出了心里话。我不会为这份热情道歉。”</text>
</g>
<!-- 31&#45;&gt;42 -->
<g id="edge39" class="edge">
<title>31&#45;&gt;42</title>
<path fill="none" stroke="black" d="M1595.9,-1701.17C1666.39,-1690.37 1759.93,-1676.04 1833.14,-1664.83"/>
<polygon fill="black" stroke="black" points="1833.39,-1668.33 1842.75,-1663.36 1832.34,-1661.41 1833.39,-1668.33"/>
</g>
<!-- 50 -->
<g id="node50" class="node">
<title>50</title>
<ellipse fill="none" stroke="black" cx="1004.77" cy="-1645.97" rx="298.55" ry="18"/>
<text text-anchor="middle" x="1004.77" y="-1640.92" font-family="Times New Roman,serif" font-size="14.00">You: “是我的错，我很抱歉。我可以做些什么来弥补吗？”</text>
</g>
<!-- 31&#45;&gt;50 -->
<g id="edge38" class="edge">
<title>31&#45;&gt;50</title>
<path fill="none" stroke="black" d="M1384.17,-1701.39C1308.26,-1690.5 1206.76,-1675.94 1127.85,-1664.62"/>
<polygon fill="black" stroke="black" points="1128.76,-1661.22 1118.37,-1663.26 1127.77,-1668.14 1128.76,-1661.22"/>
</g>
<!-- 32&#45;&gt;9 -->
<g id="edge40" class="edge">
<title>32&#45;&gt;9</title>
<path fill="none" stroke="black" d="M1492.77,-1627.55C1492.77,-1603.58 1492.77,-1560.11 1492.77,-1531.38"/>
<polygon fill="black" stroke="black" points="1496.27,-1531.59 1492.77,-1521.59 1489.27,-1531.59 1496.27,-1531.59"/>
</g>
<!-- 33&#45;&gt;27 -->
<g id="edge41" class="edge">
<title>33&#45;&gt;27</title>
<path fill="none" stroke="black" d="M1598.93,-1267.8C1717.46,-1253.97 1879.41,-1235.07 1974.08,-1224.03"/>
<polygon fill="black" stroke="black" points="1974.25,-1227.53 1983.78,-1222.9 1973.44,-1220.58 1974.25,-1227.53"/>
</g>
<!-- 34&#45;&gt;6 -->
<g id="edge44" class="edge">
<title>34&#45;&gt;6</title>
<path fill="none" stroke="black" d="M1385.82,-238.44C1317.1,-225.99 1238.3,-211.71 1179.43,-201.05"/>
<polygon fill="black" stroke="black" points="1180.25,-197.64 1169.79,-199.3 1179.01,-204.53 1180.25,-197.64"/>
</g>
<!-- 34&#45;&gt;10 -->
<g id="edge42" class="edge">
<title>34&#45;&gt;10</title>
<path fill="none" stroke="black" d="M1537.77,-237.65C1537.77,-229.77 1537.77,-221.22 1537.77,-213.34"/>
<polygon fill="black" stroke="black" points="1541.27,-213.59 1537.77,-203.59 1534.27,-213.59 1541.27,-213.59"/>
</g>
<!-- 34&#45;&gt;29 -->
<g id="edge43" class="edge">
<title>34&#45;&gt;29</title>
<path fill="none" stroke="black" d="M1697.23,-238.55C1768.08,-226.37 1849.22,-212.42 1910.92,-201.81"/>
<polygon fill="black" stroke="black" points="1911.46,-205.27 1920.72,-200.12 1910.27,-198.37 1911.46,-205.27"/>
</g>
<!-- 36 -->
<g id="node37" class="node">
<title>36</title>
<polygon fill="none" stroke="black" points="1573.77,-1951.97 1255.06,-1933.97 1573.77,-1915.97 1892.49,-1933.97 1573.77,-1951.97"/>
<text text-anchor="middle" x="1573.77" y="-1928.92" font-family="Times New Roman,serif" font-size="14.00">Variable[&quot;plaza.kineema_radio_kim_heard_bad_callout&quot;]</text>
</g>
<!-- 35&#45;&gt;36 -->
<g id="edge45" class="edge">
<title>35&#45;&gt;36</title>
<path fill="none" stroke="black" d="M1696.9,-1987.84C1673.66,-1977.86 1644.26,-1965.24 1620.01,-1954.82"/>
<polygon fill="black" stroke="black" points="1621.59,-1951.69 1611.02,-1950.96 1618.82,-1958.12 1621.59,-1951.69"/>
</g>
<!-- 37 -->
<g id="node38" class="node">
<title>37</title>
<polygon fill="none" stroke="black" points="2158.77,-1879.97 1827.03,-1861.97 2158.77,-1843.97 2490.52,-1861.97 2158.77,-1879.97"/>
<text text-anchor="middle" x="2158.77" y="-1856.92" font-family="Times New Roman,serif" font-size="14.00">!(Variable[&quot;plaza.kineema_radio_kim_heard_bad_callout&quot;])</text>
</g>
<!-- 35&#45;&gt;37 -->
<g id="edge46" class="edge">
<title>35&#45;&gt;37</title>
<path fill="none" stroke="black" d="M1790.38,-1988.08C1822.7,-1977.82 1864.67,-1964.35 1901.77,-1951.97 1972.44,-1928.38 2053.62,-1900.06 2105.51,-1881.8"/>
<polygon fill="black" stroke="black" points="2106.43,-1885.19 2114.7,-1878.57 2104.11,-1878.59 2106.43,-1885.19"/>
</g>
<!-- 46 -->
<g id="node47" class="node">
<title>46</title>
<ellipse fill="none" stroke="black" cx="1276.77" cy="-1861.97" rx="531.94" ry="18"/>
<text text-anchor="middle" x="1276.77" y="-1856.92" font-family="Times New Roman,serif" font-size="14.00">Kim Kitsuragi: “我在*电台直播*中被诽谤了，以前可从来没遇到过这种事情。而且*以后*也绝不会再有。”</text>
</g>
<!-- 36&#45;&gt;46 -->
<g id="edge47" class="edge">
<title>36&#45;&gt;46</title>
<path fill="none" stroke="black" d="M1514.03,-1918.88C1470.18,-1908.55 1410.03,-1894.37 1361.27,-1882.88"/>
<polygon fill="black" stroke="black" points="1362.1,-1879.48 1351.57,-1880.59 1360.5,-1886.29 1362.1,-1879.48"/>
</g>
<!-- 37&#45;&gt;26 -->
<g id="edge48" class="edge">
<title>37&#45;&gt;26</title>
<path fill="none" stroke="black" d="M2049.17,-1849.45C1943.9,-1838.38 1783.35,-1821.51 1661.72,-1808.72"/>
<polygon fill="black" stroke="black" points="1662.26,-1805.26 1651.95,-1807.7 1661.53,-1812.22 1662.26,-1805.26"/>
</g>
<!-- 38 -->
<g id="node39" class="node">
<title>38</title>
<ellipse fill="none" stroke="black" cx="823.77" cy="-1501.97" rx="243.79" ry="18"/>
<text text-anchor="middle" x="823.77" y="-1496.92" font-family="Times New Roman,serif" font-size="14.00">Variable[&quot;plaza.kineema_kim_fucked_up_say_sorry&quot;] == true</text>
</g>
<!-- 39 -->
<g id="node40" class="node">
<title>39</title>
<polygon fill="none" stroke="black" points="344.77,-1447.97 0,-1429.97 344.77,-1411.97 689.55,-1429.97 344.77,-1447.97"/>
<text text-anchor="middle" x="344.77" y="-1424.92" font-family="Times New Roman,serif" font-size="14.00">Variable[&quot;plaza.kineema_kim_fucked_up_say_sorry&quot;] == true</text>
</g>
<!-- 38&#45;&gt;39 -->
<g id="edge50" class="edge">
<title>38&#45;&gt;39</title>
<path fill="none" stroke="black" d="M716.87,-1485.34C635.24,-1473.41 523.59,-1457.1 443.93,-1445.46"/>
<polygon fill="black" stroke="black" points="444.81,-1442.05 434.41,-1444.07 443.8,-1448.97 444.81,-1442.05"/>
</g>
<!-- 40 -->
<g id="node41" class="node">
<title>40</title>
<polygon fill="none" stroke="black" points="1065.77,-1447.97 707.97,-1429.97 1065.77,-1411.97 1423.57,-1429.97 1065.77,-1447.97"/>
<text text-anchor="middle" x="1065.77" y="-1424.92" font-family="Times New Roman,serif" font-size="14.00">!(Variable[&quot;plaza.kineema_kim_fucked_up_say_sorry&quot;] == true)</text>
</g>
<!-- 38&#45;&gt;40 -->
<g id="edge49" class="edge">
<title>38&#45;&gt;40</title>
<path fill="none" stroke="black" d="M882.35,-1484.02C919.02,-1473.41 966.22,-1459.76 1003.55,-1448.96"/>
<polygon fill="black" stroke="black" points="1004.22,-1452.41 1012.85,-1446.27 1002.27,-1445.69 1004.22,-1452.41"/>
</g>
<!-- 39&#45;&gt;11 -->
<g id="edge51" class="edge">
<title>39&#45;&gt;11</title>
<path fill="none" stroke="black" d="M419.66,-1415.39C479.34,-1404.56 563.52,-1389.3 629.27,-1377.37"/>
<polygon fill="black" stroke="black" points="629.78,-1380.84 639,-1375.61 628.53,-1373.95 629.78,-1380.84"/>
</g>
<!-- 40&#45;&gt;33 -->
<g id="edge52" class="edge">
<title>40&#45;&gt;33</title>
<path fill="none" stroke="black" d="M1107.45,-1413.63C1176.62,-1388.19 1315.28,-1337.18 1393.9,-1308.26"/>
<polygon fill="black" stroke="black" points="1394.98,-1311.59 1403.16,-1304.85 1392.56,-1305.02 1394.98,-1311.59"/>
</g>
<!-- 41 -->
<g id="node42" class="node">
<title>41</title>
<ellipse fill="none" stroke="black" cx="1537.77" cy="-421.97" rx="485.88" ry="18"/>
<text text-anchor="middle" x="1537.77" y="-416.92" font-family="Times New Roman,serif" font-size="14.00">Esprit de Corps: 警官对同事的态度如此真诚。他觉得你需要他的帮助，可又不知道该怎么帮你。</text>
</g>
<!-- 41&#45;&gt;3 -->
<g id="edge53" class="edge">
<title>41&#45;&gt;3</title>
<path fill="none" stroke="black" d="M1537.77,-403.66C1537.77,-396.37 1537.77,-387.69 1537.77,-379.5"/>
<polygon fill="black" stroke="black" points="1541.27,-379.58 1537.77,-369.58 1534.27,-379.58 1541.27,-379.58"/>
</g>
<!-- 42&#45;&gt;30 -->
<g id="edge54" class="edge">
<title>42&#45;&gt;30</title>
<path fill="none" stroke="black" d="M1956,-1627.51C1973.11,-1579.52 2020.96,-1445.36 2041.83,-1386.84"/>
<polygon fill="black" stroke="black" points="2045.06,-1388.22 2045.12,-1377.62 2038.46,-1385.87 2045.06,-1388.22"/>
</g>
<!-- 44 -->
<g id="node45" class="node">
<title>44</title>
<ellipse fill="none" stroke="black" cx="2466.77" cy="-853.97" rx="419.34" ry="18"/>
<text text-anchor="middle" x="2466.77" y="-848.92" font-family="Times New Roman,serif" font-size="14.00">Kim Kitsuragi: 警督的目光看向海岸，看向远处的渔村。“我不知道这是什么意思。”</text>
</g>
<!-- 43&#45;&gt;44 -->
<g id="edge55" class="edge">
<title>43&#45;&gt;44</title>
<path fill="none" stroke="black" d="M2417.84,-907.66C2425.48,-899.44 2434.75,-889.45 2443.17,-880.39"/>
<polygon fill="black" stroke="black" points="2445.62,-882.89 2449.86,-873.18 2440.49,-878.13 2445.62,-882.89"/>
</g>
<!-- 44&#45;&gt;48 -->
<g id="edge56" class="edge">
<title>44&#45;&gt;48</title>
<path fill="none" stroke="black" d="M2366.31,-836.02C2291.25,-823.36 2190.46,-806.36 2123.42,-795.05"/>
<polygon fill="black" stroke="black" points="2124.07,-791.61 2113.63,-793.4 2122.91,-798.51 2124.07,-791.61"/>
</g>
<!-- 46&#45;&gt;26 -->
<g id="edge57" class="edge">
<title>46&#45;&gt;26</title>
<path fill="none" stroke="black" d="M1330.44,-1843.57C1360.17,-1833.94 1397.33,-1821.9 1428.59,-1811.77"/>
<polygon fill="black" stroke="black" points="1429.5,-1815.15 1437.94,-1808.74 1427.35,-1808.49 1429.5,-1815.15"/>
</g>
<!-- 47 -->
<g id="node48" class="node">
<title>47</title>
<ellipse fill="none" stroke="black" cx="922.77" cy="-1573.97" rx="442.88" ry="18"/>
<text text-anchor="middle" x="922.77" y="-1568.92" font-family="Times New Roman,serif" font-size="14.00">Kim Kitsuragi: “算了，警官，说出去的话也收不回来了。我们赶快把这个案子结了吧。”</text>
</g>
<!-- 47&#45;&gt;38 -->
<g id="edge58" class="edge">
<title>47&#45;&gt;38</title>
<path fill="none" stroke="black" d="M898.3,-1555.66C886.04,-1547 871.01,-1536.37 857.66,-1526.93"/>
<polygon fill="black" stroke="black" points="859.73,-1524.1 849.54,-1521.19 855.69,-1529.82 859.73,-1524.1"/>
</g>
<!-- 48&#45;&gt;5 -->
<g id="edge60" class="edge">
<title>48&#45;&gt;5</title>
<path fill="none" stroke="black" d="M1997.83,-769.09C1949.98,-758.56 1879.17,-742.97 1822.92,-730.59"/>
<polygon fill="black" stroke="black" points="1823.87,-727.21 1813.35,-728.48 1822.36,-734.05 1823.87,-727.21"/>
</g>
<!-- 48&#45;&gt;25 -->
<g id="edge59" class="edge">
<title>48&#45;&gt;25</title>
<path fill="none" stroke="black" d="M2109.12,-770.03C2167.93,-758.81 2260.27,-741.2 2328.82,-728.12"/>
<polygon fill="black" stroke="black" points="2329.39,-731.58 2338.56,-726.27 2328.08,-724.7 2329.39,-731.58"/>
</g>
<!-- 50&#45;&gt;47 -->
<g id="edge61" class="edge">
<title>50&#45;&gt;47</title>
<path fill="none" stroke="black" d="M984.5,-1627.66C974.65,-1619.25 962.62,-1608.98 951.81,-1599.76"/>
<polygon fill="black" stroke="black" points="954.12,-1597.13 944.24,-1593.3 949.58,-1602.45 954.12,-1597.13"/>
</g>
<!-- 51&#45;&gt;41 -->
<g id="edge62" class="edge">
<title>51&#45;&gt;41</title>
<path fill="none" stroke="black" d="M1537.77,-475.66C1537.77,-468.37 1537.77,-459.69 1537.77,-451.5"/>
<polygon fill="black" stroke="black" points="1541.27,-451.58 1537.77,-441.58 1534.27,-451.58 1541.27,-451.58"/>
</g>
<!-- 52&#45;&gt;45 -->
<g id="edge63" class="edge">
<title>52&#45;&gt;45</title>
<path fill="none" stroke="black" d="M2083.02,-94.93C1989.06,-83.74 1861.69,-68.57 1753.68,-55.71"/>
<polygon fill="black" stroke="black" points="1754.14,-52.24 1743.79,-54.53 1753.31,-59.19 1754.14,-52.24"/>
</g>
</g>
</svg>
