<?xml version="1.0" encoding="UTF-8" standalone="no"?>
<!DOCTYPE svg PUBLIC "-//W3C//DTD SVG 1.1//EN"
 "http://www.w3.org/Graphics/SVG/1.1/DTD/svg11.dtd">
<!-- Generated by graphviz version 12.2.1 (20241206.2353)
 -->
<!-- Title: G Pages: 1 -->
<svg width="5606pt" height="1052pt"
 viewBox="0.00 0.00 5605.76 1052.00" xmlns="http://www.w3.org/2000/svg" xmlns:xlink="http://www.w3.org/1999/xlink">
<g id="graph0" class="graph" transform="scale(1 1) rotate(0) translate(4 1048)">
<title>G</title>
<polygon fill="white" stroke="none" points="-4,4 -4,-1048 5601.76,-1048 5601.76,4 -4,4"/>
<!-- 0 -->
<g id="node1" class="node">
<title>0</title>
<ellipse fill="none" stroke="black" cx="2379.61" cy="-1026" rx="39.07" ry="18"/>
<text text-anchor="middle" x="2379.61" y="-1020.95" font-family="Times New Roman,serif" font-size="14.00">START</text>
</g>
<!-- 0&#45;&gt;0 -->
<g id="edge1" class="edge">
<title>0&#45;&gt;0</title>
<path fill="none" stroke="black" d="M2407.8,-1038.94C2422.91,-1041.14 2436.68,-1036.83 2436.68,-1026 2436.68,-1017.96 2429.09,-1013.52 2419.01,-1012.65"/>
<polygon fill="black" stroke="black" points="2419.18,-1009.15 2409.31,-1013 2419.43,-1016.14 2419.18,-1009.15"/>
</g>
<!-- 1 -->
<g id="node2" class="node">
<title>1</title>
<ellipse fill="none" stroke="black" cx="1286.61" cy="-882" rx="29.86" ry="18"/>
<text text-anchor="middle" x="1286.61" y="-876.95" font-family="Times New Roman,serif" font-size="14.00">input</text>
</g>
<!-- 47 -->
<g id="node48" class="node">
<title>47</title>
<ellipse fill="none" stroke="black" cx="1286.61" cy="-810" rx="69.26" ry="18"/>
<text text-anchor="middle" x="1286.61" y="-804.95" font-family="Times New Roman,serif" font-size="14.00">endofdayswitch</text>
</g>
<!-- 1&#45;&gt;47 -->
<g id="edge2" class="edge">
<title>1&#45;&gt;47</title>
<path fill="none" stroke="black" d="M1280.73,-864.05C1279.95,-856.68 1279.69,-847.84 1279.96,-839.51"/>
<polygon fill="black" stroke="black" points="1283.44,-839.99 1280.6,-829.79 1276.46,-839.54 1283.44,-839.99"/>
</g>
<!-- 2 -->
<g id="node3" class="node">
<title>2</title>
<ellipse fill="none" stroke="black" cx="3493.61" cy="-1026" rx="204.38" ry="18"/>
<text text-anchor="middle" x="3493.61" y="-1020.95" font-family="Times New Roman,serif" font-size="14.00">You: “我还没有向餐厅经理赔偿损失。”</text>
</g>
<!-- 53 -->
<g id="node54" class="node">
<title>53</title>
<ellipse fill="none" stroke="black" cx="3493.61" cy="-954" rx="219.22" ry="18"/>
<text text-anchor="middle" x="3493.61" y="-948.95" font-family="Times New Roman,serif" font-size="14.00">Kim Kitsuragi: “那你应该把这件事处理好。”</text>
</g>
<!-- 2&#45;&gt;53 -->
<g id="edge3" class="edge">
<title>2&#45;&gt;53</title>
<path fill="none" stroke="black" d="M3487.69,-1007.7C3486.94,-1000.41 3486.7,-991.73 3486.96,-983.54"/>
<polygon fill="black" stroke="black" points="3490.45,-983.82 3487.62,-973.61 3483.47,-983.36 3490.45,-983.82"/>
</g>
<!-- 3 -->
<g id="node4" class="node">
<title>3</title>
<ellipse fill="none" stroke="black" cx="2596.61" cy="-1026" rx="141.94" ry="18"/>
<text text-anchor="middle" x="2596.61" y="-1020.95" font-family="Times New Roman,serif" font-size="14.00">Variable[&quot;character.pay_garte_30&quot;]</text>
</g>
<!-- 3&#45;&gt;3 -->
<g id="edge4" class="edge">
<title>3&#45;&gt;3</title>
<path fill="none" stroke="black" d="M2693.83,-1039.49C2728.42,-1039.74 2756.55,-1035.25 2756.55,-1026 2756.55,-1017.8 2734.43,-1013.34 2705.3,-1012.61"/>
<polygon fill="black" stroke="black" points="2705.37,-1009.11 2695.34,-1012.52 2705.31,-1016.11 2705.37,-1009.11"/>
</g>
<!-- 4 -->
<g id="node5" class="node">
<title>4</title>
<polygon fill="none" stroke="black" points="2596.61,-972 2395.87,-954 2596.61,-936 2797.35,-954 2596.61,-972"/>
<text text-anchor="middle" x="2596.61" y="-948.95" font-family="Times New Roman,serif" font-size="14.00">Variable[&quot;character.pay_garte_30&quot;]</text>
</g>
<!-- 3&#45;&gt;4 -->
<g id="edge5" class="edge">
<title>3&#45;&gt;4</title>
<path fill="none" stroke="black" d="M2596.61,-1007.7C2596.61,-1000.41 2596.61,-991.73 2596.61,-983.54"/>
<polygon fill="black" stroke="black" points="2600.11,-983.62 2596.61,-973.62 2593.11,-983.62 2600.11,-983.62"/>
</g>
<!-- 44 -->
<g id="node45" class="node">
<title>44</title>
<ellipse fill="none" stroke="black" cx="2596.61" cy="-882" rx="106.63" ry="18"/>
<text text-anchor="middle" x="2596.61" y="-876.95" font-family="Times New Roman,serif" font-size="14.00">MoneyAmount() &gt;=3000</text>
</g>
<!-- 4&#45;&gt;44 -->
<g id="edge6" class="edge">
<title>4&#45;&gt;44</title>
<path fill="none" stroke="black" d="M2596.61,-935.7C2596.61,-928.41 2596.61,-919.73 2596.61,-911.54"/>
<polygon fill="black" stroke="black" points="2600.11,-911.62 2596.61,-901.62 2593.11,-911.62 2600.11,-911.62"/>
</g>
<!-- 5 -->
<g id="node6" class="node">
<title>5</title>
<polygon fill="none" stroke="black" points="3275.61,-684 3061.85,-666 3275.61,-648 3489.37,-666 3275.61,-684"/>
<text text-anchor="middle" x="3275.61" y="-660.95" font-family="Times New Roman,serif" font-size="14.00">!(Variable[&quot;character.pay_garte_30&quot;])</text>
</g>
<!-- 48 -->
<g id="node49" class="node">
<title>48</title>
<ellipse fill="none" stroke="black" cx="3250.61" cy="-594" rx="141.94" ry="18"/>
<text text-anchor="middle" x="3250.61" y="-588.95" font-family="Times New Roman,serif" font-size="14.00">Variable[&quot;character.pay_garte_60&quot;]</text>
</g>
<!-- 5&#45;&gt;48 -->
<g id="edge7" class="edge">
<title>5&#45;&gt;48</title>
<path fill="none" stroke="black" d="M3269.56,-648.05C3266.87,-640.52 3263.62,-631.44 3260.59,-622.94"/>
<polygon fill="black" stroke="black" points="3263.95,-621.94 3257.29,-613.7 3257.36,-624.3 3263.95,-621.94"/>
</g>
<!-- 6 -->
<g id="node7" class="node">
<title>6</title>
<ellipse fill="none" stroke="black" cx="982.61" cy="-738" rx="579.54" ry="18"/>
<text text-anchor="middle" x="982.61" y="-732.95" font-family="Times New Roman,serif" font-size="14.00">Empathy: 虽然他发现眼下的状况让人有些沮丧，不过还是打算尽自己最大努力，让你的感觉不要比现在更糟糕。</text>
</g>
<!-- 7 -->
<g id="node8" class="node">
<title>7</title>
<ellipse fill="none" stroke="black" cx="3250.61" cy="-450" rx="180.84" ry="18"/>
<text text-anchor="middle" x="3250.61" y="-444.95" font-family="Times New Roman,serif" font-size="14.00">You: “那我应该去问问餐厅经理。”</text>
</g>
<!-- 39 -->
<g id="node40" class="node">
<title>39</title>
<ellipse fill="none" stroke="black" cx="3250.61" cy="-378" rx="289.85" ry="18"/>
<text text-anchor="middle" x="3250.61" y="-372.95" font-family="Times New Roman,serif" font-size="14.00">Kim Kitsuragi: 警督点点头。“去吧。明天我在楼下等你。”</text>
</g>
<!-- 7&#45;&gt;39 -->
<g id="edge8" class="edge">
<title>7&#45;&gt;39</title>
<path fill="none" stroke="black" d="M3250.61,-431.7C3250.61,-424.41 3250.61,-415.73 3250.61,-407.54"/>
<polygon fill="black" stroke="black" points="3254.11,-407.62 3250.61,-397.62 3247.11,-407.62 3254.11,-407.62"/>
</g>
<!-- 8 -->
<g id="node9" class="node">
<title>8</title>
<ellipse fill="none" stroke="black" cx="4480.61" cy="-1026" rx="141.94" ry="18"/>
<text text-anchor="middle" x="4480.61" y="-1020.95" font-family="Times New Roman,serif" font-size="14.00">Variable[&quot;character.pay_garte_70&quot;]</text>
</g>
<!-- 8&#45;&gt;8 -->
<g id="edge9" class="edge">
<title>8&#45;&gt;8</title>
<path fill="none" stroke="black" d="M4577.83,-1039.49C4612.42,-1039.74 4640.55,-1035.25 4640.55,-1026 4640.55,-1017.8 4618.43,-1013.34 4589.3,-1012.61"/>
<polygon fill="black" stroke="black" points="4589.37,-1009.11 4579.34,-1012.52 4589.31,-1016.11 4589.37,-1009.11"/>
</g>
<!-- 9 -->
<g id="node10" class="node">
<title>9</title>
<polygon fill="none" stroke="black" points="4480.61,-972 4279.87,-954 4480.61,-936 4681.35,-954 4480.61,-972"/>
<text text-anchor="middle" x="4480.61" y="-948.95" font-family="Times New Roman,serif" font-size="14.00">Variable[&quot;character.pay_garte_70&quot;]</text>
</g>
<!-- 8&#45;&gt;9 -->
<g id="edge10" class="edge">
<title>8&#45;&gt;9</title>
<path fill="none" stroke="black" d="M4480.61,-1007.7C4480.61,-1000.41 4480.61,-991.73 4480.61,-983.54"/>
<polygon fill="black" stroke="black" points="4484.11,-983.62 4480.61,-973.62 4477.11,-983.62 4484.11,-983.62"/>
</g>
<!-- 28 -->
<g id="node29" class="node">
<title>28</title>
<ellipse fill="none" stroke="black" cx="4480.61" cy="-882" rx="348.71" ry="18"/>
<text text-anchor="middle" x="4480.61" y="-876.95" font-family="Times New Roman,serif" font-size="14.00">Kim Kitsuragi: 警督点点头。“明天一早我们可以继续没完成的工作。”</text>
</g>
<!-- 9&#45;&gt;28 -->
<g id="edge11" class="edge">
<title>9&#45;&gt;28</title>
<path fill="none" stroke="black" d="M4480.61,-935.7C4480.61,-928.41 4480.61,-919.73 4480.61,-911.54"/>
<polygon fill="black" stroke="black" points="4484.11,-911.62 4480.61,-901.62 4477.11,-911.62 4484.11,-911.62"/>
</g>
<!-- 10 -->
<g id="node11" class="node">
<title>10</title>
<polygon fill="none" stroke="black" points="2496.61,-396 2282.85,-378 2496.61,-360 2710.37,-378 2496.61,-396"/>
<text text-anchor="middle" x="2496.61" y="-372.95" font-family="Times New Roman,serif" font-size="14.00">!(Variable[&quot;character.pay_garte_70&quot;])</text>
</g>
<!-- 34 -->
<g id="node35" class="node">
<title>34</title>
<ellipse fill="none" stroke="black" cx="2281.61" cy="-306" rx="146.55" ry="18"/>
<text text-anchor="middle" x="2281.61" y="-300.95" font-family="Times New Roman,serif" font-size="14.00">Variable[&quot;character.pay_garte_100&quot;]</text>
</g>
<!-- 10&#45;&gt;34 -->
<g id="edge12" class="edge">
<title>10&#45;&gt;34</title>
<path fill="none" stroke="black" d="M2454.13,-363.17C2422.19,-352.77 2377.98,-338.38 2342.32,-326.76"/>
<polygon fill="black" stroke="black" points="2343.58,-323.49 2332.98,-323.73 2341.41,-330.15 2343.58,-323.49"/>
</g>
<!-- 11 -->
<g id="node12" class="node">
<title>11</title>
<ellipse fill="none" stroke="black" cx="2004.61" cy="-90" rx="117.89" ry="18"/>
<text text-anchor="middle" x="2004.61" y="-84.95" font-family="Times New Roman,serif" font-size="14.00">You: “但是我没钱……”</text>
</g>
<!-- 22 -->
<g id="node23" class="node">
<title>22</title>
<polygon fill="none" stroke="black" points="2077.61,-36 1913.79,-18 2077.61,0 2241.43,-18 2077.61,-36"/>
<text text-anchor="middle" x="2077.61" y="-12.95" font-family="Times New Roman,serif" font-size="14.00">!(MoneyAmount() &gt;=6000)</text>
</g>
<!-- 11&#45;&gt;22 -->
<g id="edge13" class="edge">
<title>11&#45;&gt;22</title>
<path fill="none" stroke="black" d="M2022.28,-72.05C2031.64,-63.08 2043.28,-51.92 2053.47,-42.15"/>
<polygon fill="black" stroke="black" points="2055.71,-44.85 2060.5,-35.4 2050.86,-39.8 2055.71,-44.85"/>
</g>
<!-- 12 -->
<g id="node13" class="node">
<title>12</title>
<ellipse fill="none" stroke="black" cx="2281.61" cy="-162" rx="402.96" ry="18"/>
<text text-anchor="middle" x="2281.61" y="-156.95" font-family="Times New Roman,serif" font-size="14.00">Empathy: 你终于振作起来，想办法还清了自己的债务，这让他为你感到骄傲。</text>
</g>
<!-- 13 -->
<g id="node14" class="node">
<title>13</title>
<ellipse fill="none" stroke="black" cx="3651.61" cy="-882" rx="111.23" ry="18"/>
<text text-anchor="middle" x="3651.61" y="-876.95" font-family="Times New Roman,serif" font-size="14.00">MoneyAmount() &gt;=10000</text>
</g>
<!-- 13&#45;&gt;13 -->
<g id="edge14" class="edge">
<title>13&#45;&gt;13</title>
<path fill="none" stroke="black" d="M3727.92,-895.46C3756.88,-895.98 3780.84,-891.49 3780.84,-882 3780.84,-873.77 3762.83,-869.3 3739.15,-868.6"/>
<polygon fill="black" stroke="black" points="3739.45,-865.1 3729.43,-868.55 3739.41,-872.1 3739.45,-865.1"/>
</g>
<!-- 14 -->
<g id="node15" class="node">
<title>14</title>
<polygon fill="none" stroke="black" points="3651.61,-828 3494.3,-810 3651.61,-792 3808.92,-810 3651.61,-828"/>
<text text-anchor="middle" x="3651.61" y="-804.95" font-family="Times New Roman,serif" font-size="14.00">MoneyAmount() &gt;=10000</text>
</g>
<!-- 13&#45;&gt;14 -->
<g id="edge15" class="edge">
<title>13&#45;&gt;14</title>
<path fill="none" stroke="black" d="M3651.61,-863.7C3651.61,-856.41 3651.61,-847.73 3651.61,-839.54"/>
<polygon fill="black" stroke="black" points="3655.11,-839.62 3651.61,-829.62 3648.11,-839.62 3655.11,-839.62"/>
</g>
<!-- 23 -->
<g id="node24" class="node">
<title>23</title>
<ellipse fill="none" stroke="black" cx="3308.61" cy="-738" rx="546.27" ry="18"/>
<text text-anchor="middle" x="3308.61" y="-732.95" font-family="Times New Roman,serif" font-size="14.00">Kim Kitsuragi: “不管怎么说，我们还是去跟他聊聊吧。RCM的警官不应该睡在大街上。我们会想出办法的。”</text>
</g>
<!-- 14&#45;&gt;23 -->
<g id="edge16" class="edge">
<title>14&#45;&gt;23</title>
<path fill="none" stroke="black" d="M3596.88,-797.83C3545.14,-787.27 3466.39,-771.2 3404.27,-758.52"/>
<polygon fill="black" stroke="black" points="3405.25,-755.15 3394.75,-756.58 3403.85,-762.01 3405.25,-755.15"/>
</g>
<!-- 15 -->
<g id="node16" class="node">
<title>15</title>
<polygon fill="none" stroke="black" points="1549.61,-468 1379.27,-450 1549.61,-432 1719.95,-450 1549.61,-468"/>
<text text-anchor="middle" x="1549.61" y="-444.95" font-family="Times New Roman,serif" font-size="14.00">!(MoneyAmount() &gt;=10000)</text>
</g>
<!-- 15&#45;&gt;10 -->
<g id="edge17" class="edge">
<title>15&#45;&gt;10</title>
<path fill="none" stroke="black" d="M1646.95,-441.81C1820.86,-428.95 2184.52,-402.07 2374.74,-388.01"/>
<polygon fill="black" stroke="black" points="2374.95,-391.5 2384.67,-387.27 2374.43,-384.52 2374.95,-391.5"/>
</g>
<!-- 16 -->
<g id="node17" class="node">
<title>16</title>
<ellipse fill="none" stroke="black" cx="1441.61" cy="-162" rx="419.34" ry="18"/>
<text text-anchor="middle" x="1441.61" y="-156.95" font-family="Times New Roman,serif" font-size="14.00">Kim Kitsuragi: 他点点头。“我也去飞旋旅社开个房间。离犯罪现场多近都不为过。”</text>
</g>
<!-- 16&#45;&gt;11 -->
<g id="edge18" class="edge">
<title>16&#45;&gt;11</title>
<path fill="none" stroke="black" d="M1574.68,-144.46C1675.65,-131.9 1812.3,-114.91 1904.2,-103.48"/>
<polygon fill="black" stroke="black" points="1904.47,-106.98 1913.96,-102.27 1903.61,-100.03 1904.47,-106.98"/>
</g>
<!-- 17 -->
<g id="node18" class="node">
<title>17</title>
<ellipse fill="none" stroke="black" cx="3984.61" cy="-882" rx="111.23" ry="18"/>
<text text-anchor="middle" x="3984.61" y="-876.95" font-family="Times New Roman,serif" font-size="14.00">MoneyAmount() &gt;=13000</text>
</g>
<!-- 17&#45;&gt;17 -->
<g id="edge19" class="edge">
<title>17&#45;&gt;17</title>
<path fill="none" stroke="black" d="M4060.92,-895.46C4089.88,-895.98 4113.84,-891.49 4113.84,-882 4113.84,-873.77 4095.83,-869.3 4072.15,-868.6"/>
<polygon fill="black" stroke="black" points="4072.45,-865.1 4062.43,-868.55 4072.41,-872.1 4072.45,-865.1"/>
</g>
<!-- 18 -->
<g id="node19" class="node">
<title>18</title>
<polygon fill="none" stroke="black" points="3984.61,-828 3827.3,-810 3984.61,-792 4141.92,-810 3984.61,-828"/>
<text text-anchor="middle" x="3984.61" y="-804.95" font-family="Times New Roman,serif" font-size="14.00">MoneyAmount() &gt;=13000</text>
</g>
<!-- 17&#45;&gt;18 -->
<g id="edge20" class="edge">
<title>17&#45;&gt;18</title>
<path fill="none" stroke="black" d="M3984.61,-863.7C3984.61,-856.41 3984.61,-847.73 3984.61,-839.54"/>
<polygon fill="black" stroke="black" points="3988.11,-839.62 3984.61,-829.62 3981.11,-839.62 3988.11,-839.62"/>
</g>
<!-- 18&#45;&gt;23 -->
<g id="edge21" class="edge">
<title>18&#45;&gt;23</title>
<path fill="none" stroke="black" d="M3904.41,-800.7C3800.57,-789.94 3616.81,-770.91 3480.74,-756.82"/>
<polygon fill="black" stroke="black" points="3481.19,-753.35 3470.89,-755.8 3480.47,-760.32 3481.19,-753.35"/>
</g>
<!-- 19 -->
<g id="node20" class="node">
<title>19</title>
<polygon fill="none" stroke="black" points="2753.61,-468 2583.27,-450 2753.61,-432 2923.95,-450 2753.61,-468"/>
<text text-anchor="middle" x="2753.61" y="-444.95" font-family="Times New Roman,serif" font-size="14.00">!(MoneyAmount() &gt;=13000)</text>
</g>
<!-- 19&#45;&gt;10 -->
<g id="edge22" class="edge">
<title>19&#45;&gt;10</title>
<path fill="none" stroke="black" d="M2707.37,-436.4C2665.18,-424.91 2602.58,-407.86 2556.57,-395.33"/>
<polygon fill="black" stroke="black" points="2557.57,-391.98 2547,-392.73 2555.73,-398.73 2557.57,-391.98"/>
</g>
<!-- 20 -->
<g id="node21" class="node">
<title>20</title>
<ellipse fill="none" stroke="black" cx="3005.61" cy="-882" rx="106.63" ry="18"/>
<text text-anchor="middle" x="3005.61" y="-876.95" font-family="Times New Roman,serif" font-size="14.00">MoneyAmount() &gt;=6000</text>
</g>
<!-- 20&#45;&gt;20 -->
<g id="edge23" class="edge">
<title>20&#45;&gt;20</title>
<path fill="none" stroke="black" d="M3078.89,-895.45C3106.96,-896.01 3130.24,-891.53 3130.24,-882 3130.24,-873.81 3113.05,-869.35 3090.4,-868.61"/>
<polygon fill="black" stroke="black" points="3090.42,-865.11 3080.4,-868.55 3090.38,-872.11 3090.42,-865.11"/>
</g>
<!-- 21 -->
<g id="node22" class="node">
<title>21</title>
<polygon fill="none" stroke="black" points="3005.61,-828 2854.82,-810 3005.61,-792 3156.4,-810 3005.61,-828"/>
<text text-anchor="middle" x="3005.61" y="-804.95" font-family="Times New Roman,serif" font-size="14.00">MoneyAmount() &gt;=6000</text>
</g>
<!-- 20&#45;&gt;21 -->
<g id="edge24" class="edge">
<title>20&#45;&gt;21</title>
<path fill="none" stroke="black" d="M3005.61,-863.7C3005.61,-856.41 3005.61,-847.73 3005.61,-839.54"/>
<polygon fill="black" stroke="black" points="3009.11,-839.62 3005.61,-829.62 3002.11,-839.62 3009.11,-839.62"/>
</g>
<!-- 21&#45;&gt;23 -->
<g id="edge25" class="edge">
<title>21&#45;&gt;23</title>
<path fill="none" stroke="black" d="M3055.31,-797.52C3100.62,-787.05 3168.55,-771.36 3222.66,-758.86"/>
<polygon fill="black" stroke="black" points="3223.21,-762.32 3232.16,-756.66 3221.63,-755.5 3223.21,-762.32"/>
</g>
<!-- 22&#45;&gt;10 -->
<g id="edge26" class="edge">
<title>22&#45;&gt;10</title>
<path fill="none" stroke="black" d="M2208.8,-22.08C2394.74,-30.07 2712.61,-58.7 2712.61,-161 2712.61,-235 2712.61,-235 2712.61,-235 2712.61,-305.85 2630.47,-343.32 2567.5,-361.63"/>
<polygon fill="black" stroke="black" points="2566.93,-358.16 2558.24,-364.21 2568.81,-364.9 2566.93,-358.16"/>
</g>
<!-- 23&#45;&gt;5 -->
<g id="edge27" class="edge">
<title>23&#45;&gt;5</title>
<path fill="none" stroke="black" d="M3300.45,-719.7C3296.8,-711.95 3292.41,-702.64 3288.35,-694.02"/>
<polygon fill="black" stroke="black" points="3291.52,-692.54 3284.09,-684.99 3285.19,-695.53 3291.52,-692.54"/>
</g>
<!-- 24 -->
<g id="node25" class="node">
<title>24</title>
<ellipse fill="none" stroke="black" cx="1070.61" cy="-522" rx="404.5" ry="18"/>
<text text-anchor="middle" x="1070.61" y="-516.95" font-family="Times New Roman,serif" font-size="14.00">You: “我现在好像有钱了。这个是钱，没错吧？”（把雷亚尔钞票拿给他看。）</text>
</g>
<!-- 24&#45;&gt;15 -->
<g id="edge28" class="edge">
<title>24&#45;&gt;15</title>
<path fill="none" stroke="black" d="M1185.04,-504.28C1272.61,-491.48 1391.19,-474.15 1469.01,-462.78"/>
<polygon fill="black" stroke="black" points="1469.3,-466.27 1478.68,-461.37 1468.28,-459.35 1469.3,-466.27"/>
</g>
<!-- 25 -->
<g id="node26" class="node">
<title>25</title>
<ellipse fill="none" stroke="black" cx="4967.61" cy="-1026" rx="75.92" ry="18"/>
<text text-anchor="middle" x="4967.61" y="-1020.95" font-family="Times New Roman,serif" font-size="14.00">DayCount() == 1</text>
</g>
<!-- 25&#45;&gt;25 -->
<g id="edge29" class="edge">
<title>25&#45;&gt;25</title>
<path fill="none" stroke="black" d="M5020.24,-1039.36C5042.53,-1040.37 5061.53,-1035.91 5061.53,-1026 5061.53,-1017.79 5048.5,-1013.32 5031.36,-1012.6"/>
<polygon fill="black" stroke="black" points="5031.74,-1009.1 5021.75,-1012.63 5031.76,-1016.1 5031.74,-1009.1"/>
</g>
<!-- 26 -->
<g id="node27" class="node">
<title>26</title>
<polygon fill="none" stroke="black" points="4967.61,-972 4860.25,-954 4967.61,-936 5074.98,-954 4967.61,-972"/>
<text text-anchor="middle" x="4967.61" y="-948.95" font-family="Times New Roman,serif" font-size="14.00">DayCount() == 1</text>
</g>
<!-- 25&#45;&gt;26 -->
<g id="edge30" class="edge">
<title>25&#45;&gt;26</title>
<path fill="none" stroke="black" d="M4967.61,-1007.7C4967.61,-1000.41 4967.61,-991.73 4967.61,-983.54"/>
<polygon fill="black" stroke="black" points="4971.11,-983.62 4967.61,-973.62 4964.11,-983.62 4971.11,-983.62"/>
</g>
<!-- 27 -->
<g id="node28" class="node">
<title>27</title>
<polygon fill="none" stroke="black" points="4967.61,-900 4847.22,-882 4967.61,-864 5088,-882 4967.61,-900"/>
<text text-anchor="middle" x="4967.61" y="-876.95" font-family="Times New Roman,serif" font-size="14.00">!(DayCount() == 1)</text>
</g>
<!-- 26&#45;&gt;27 -->
<g id="edge31" class="edge">
<title>26&#45;&gt;27</title>
<path fill="none" stroke="black" d="M4967.61,-935.7C4967.61,-928.41 4967.61,-919.73 4967.61,-911.54"/>
<polygon fill="black" stroke="black" points="4971.11,-911.62 4967.61,-901.62 4964.11,-911.62 4971.11,-911.62"/>
</g>
<!-- 37 -->
<g id="node38" class="node">
<title>37</title>
<ellipse fill="none" stroke="black" cx="4967.61" cy="-810" rx="476.15" ry="18"/>
<text text-anchor="middle" x="4967.61" y="-804.95" font-family="Times New Roman,serif" font-size="14.00">Kim Kitsuragi: 警督点点头。“我们明天再继续吧，就一大早——7：30分整。我会在楼下等你。”</text>
</g>
<!-- 27&#45;&gt;37 -->
<g id="edge32" class="edge">
<title>27&#45;&gt;37</title>
<path fill="none" stroke="black" d="M4967.61,-863.7C4967.61,-856.41 4967.61,-847.73 4967.61,-839.54"/>
<polygon fill="black" stroke="black" points="4971.11,-839.62 4967.61,-829.62 4964.11,-839.62 4971.11,-839.62"/>
</g>
<!-- 29 -->
<g id="node30" class="node">
<title>29</title>
<ellipse fill="none" stroke="black" cx="3325.61" cy="-882" rx="106.63" ry="18"/>
<text text-anchor="middle" x="3325.61" y="-876.95" font-family="Times New Roman,serif" font-size="14.00">MoneyAmount() &gt;=7000</text>
</g>
<!-- 29&#45;&gt;29 -->
<g id="edge33" class="edge">
<title>29&#45;&gt;29</title>
<path fill="none" stroke="black" d="M3398.89,-895.45C3426.96,-896.01 3450.24,-891.53 3450.24,-882 3450.24,-873.81 3433.05,-869.35 3410.4,-868.61"/>
<polygon fill="black" stroke="black" points="3410.42,-865.11 3400.4,-868.55 3410.38,-872.11 3410.42,-865.11"/>
</g>
<!-- 30 -->
<g id="node31" class="node">
<title>30</title>
<polygon fill="none" stroke="black" points="3325.61,-828 3174.82,-810 3325.61,-792 3476.4,-810 3325.61,-828"/>
<text text-anchor="middle" x="3325.61" y="-804.95" font-family="Times New Roman,serif" font-size="14.00">MoneyAmount() &gt;=7000</text>
</g>
<!-- 29&#45;&gt;30 -->
<g id="edge34" class="edge">
<title>29&#45;&gt;30</title>
<path fill="none" stroke="black" d="M3325.61,-863.7C3325.61,-856.41 3325.61,-847.73 3325.61,-839.54"/>
<polygon fill="black" stroke="black" points="3329.11,-839.62 3325.61,-829.62 3322.11,-839.62 3329.11,-839.62"/>
</g>
<!-- 30&#45;&gt;23 -->
<g id="edge35" class="edge">
<title>30&#45;&gt;23</title>
<path fill="none" stroke="black" d="M3321.5,-792.05C3319.68,-784.6 3317.51,-775.64 3315.46,-767.22"/>
<polygon fill="black" stroke="black" points="3318.92,-766.64 3313.16,-757.75 3312.12,-768.29 3318.92,-766.64"/>
</g>
<!-- 31 -->
<g id="node32" class="node">
<title>31</title>
<polygon fill="none" stroke="black" points="2224.61,-612 2060.79,-594 2224.61,-576 2388.43,-594 2224.61,-612"/>
<text text-anchor="middle" x="2224.61" y="-588.95" font-family="Times New Roman,serif" font-size="14.00">!(MoneyAmount() &gt;=7000)</text>
</g>
<!-- 31&#45;&gt;10 -->
<g id="edge36" class="edge">
<title>31&#45;&gt;10</title>
<path fill="none" stroke="black" d="M2243.74,-577.95C2290.72,-540.99 2412.01,-445.56 2467.78,-401.68"/>
<polygon fill="black" stroke="black" points="2469.89,-404.48 2475.58,-395.54 2465.56,-398.98 2469.89,-404.48"/>
</g>
<!-- 32 -->
<g id="node33" class="node">
<title>32</title>
<ellipse fill="none" stroke="black" cx="5338.61" cy="-1026" rx="259.15" ry="18"/>
<text text-anchor="middle" x="5338.61" y="-1020.95" font-family="Times New Roman,serif" font-size="14.00">You: “我觉得应该去跟餐厅经理聊聊房间的事……”</text>
</g>
<!-- 38 -->
<g id="node39" class="node">
<title>38</title>
<ellipse fill="none" stroke="black" cx="5338.61" cy="-954" rx="183.91" ry="18"/>
<text text-anchor="middle" x="5338.61" y="-948.95" font-family="Times New Roman,serif" font-size="14.00">Kim Kitsuragi: “你确实一直在逃避。”</text>
</g>
<!-- 32&#45;&gt;38 -->
<g id="edge37" class="edge">
<title>32&#45;&gt;38</title>
<path fill="none" stroke="black" d="M5338.61,-1007.7C5338.61,-1000.41 5338.61,-991.73 5338.61,-983.54"/>
<polygon fill="black" stroke="black" points="5342.11,-983.62 5338.61,-973.62 5335.11,-983.62 5342.11,-983.62"/>
</g>
<!-- 33 -->
<g id="node34" class="node">
<title>33</title>
<ellipse fill="none" stroke="black" cx="2124.61" cy="-666" rx="506.35" ry="18"/>
<text text-anchor="middle" x="2124.61" y="-660.95" font-family="Times New Roman,serif" font-size="14.00">Kim Kitsuragi: 警督点点头。“很高兴知道这个。早上我会出现在那个地方。明天一大早，7:30分整。”</text>
</g>
<!-- 35 -->
<g id="node36" class="node">
<title>35</title>
<polygon fill="none" stroke="black" points="2281.61,-252 2074.36,-234 2281.61,-216 2488.86,-234 2281.61,-252"/>
<text text-anchor="middle" x="2281.61" y="-228.95" font-family="Times New Roman,serif" font-size="14.00">Variable[&quot;character.pay_garte_100&quot;]</text>
</g>
<!-- 34&#45;&gt;35 -->
<g id="edge38" class="edge">
<title>34&#45;&gt;35</title>
<path fill="none" stroke="black" d="M2281.61,-287.7C2281.61,-280.41 2281.61,-271.73 2281.61,-263.54"/>
<polygon fill="black" stroke="black" points="2285.11,-263.62 2281.61,-253.62 2278.11,-263.62 2285.11,-263.62"/>
</g>
<!-- 36 -->
<g id="node37" class="node">
<title>36</title>
<polygon fill="none" stroke="black" points="1638.61,-252 1418.33,-234 1638.61,-216 1858.89,-234 1638.61,-252"/>
<text text-anchor="middle" x="1638.61" y="-228.95" font-family="Times New Roman,serif" font-size="14.00">!(Variable[&quot;character.pay_garte_100&quot;])</text>
</g>
<!-- 34&#45;&gt;36 -->
<g id="edge39" class="edge">
<title>34&#45;&gt;36</title>
<path fill="none" stroke="black" d="M2174.71,-293.36C2054.41,-280.27 1860.32,-259.14 1741.63,-246.22"/>
<polygon fill="black" stroke="black" points="1742.21,-242.76 1731.89,-245.16 1741.45,-249.72 1742.21,-242.76"/>
</g>
<!-- 35&#45;&gt;12 -->
<g id="edge40" class="edge">
<title>35&#45;&gt;12</title>
<path fill="none" stroke="black" d="M2281.61,-215.7C2281.61,-208.41 2281.61,-199.73 2281.61,-191.54"/>
<polygon fill="black" stroke="black" points="2285.11,-191.62 2281.61,-181.62 2278.11,-191.62 2285.11,-191.62"/>
</g>
<!-- 36&#45;&gt;16 -->
<g id="edge41" class="edge">
<title>36&#45;&gt;16</title>
<path fill="none" stroke="black" d="M1598.74,-218.83C1570.66,-208.86 1532.59,-195.33 1500.95,-184.08"/>
<polygon fill="black" stroke="black" points="1502.51,-180.93 1491.92,-180.87 1500.17,-187.52 1502.51,-180.93"/>
</g>
<!-- 40 -->
<g id="node41" class="node">
<title>40</title>
<ellipse fill="none" stroke="black" cx="192.61" cy="-738" rx="192.61" ry="18"/>
<text text-anchor="middle" x="192.61" y="-732.95" font-family="Times New Roman,serif" font-size="14.00">You: “是的，我的旅社房间在呼唤。”</text>
</g>
<!-- 41 -->
<g id="node42" class="node">
<title>41</title>
<ellipse fill="none" stroke="black" cx="1070.61" cy="-666" rx="150.13" ry="18"/>
<text text-anchor="middle" x="1070.61" y="-660.95" font-family="Times New Roman,serif" font-size="14.00">Variable[&quot;whirling.kim_took_room&quot;]</text>
</g>
<!-- 40&#45;&gt;41 -->
<g id="edge42" class="edge">
<title>40&#45;&gt;41</title>
<path fill="none" stroke="black" d="M331.27,-725.16C352.16,-723.41 373.45,-721.64 393.61,-720 581.48,-704.7 798.74,-687.84 935.41,-677.33"/>
<polygon fill="black" stroke="black" points="935.53,-680.84 945.24,-676.58 935,-673.86 935.53,-680.84"/>
</g>
<!-- 42 -->
<g id="node43" class="node">
<title>42</title>
<polygon fill="none" stroke="black" points="1070.61,-612 858.29,-594 1070.61,-576 1282.93,-594 1070.61,-612"/>
<text text-anchor="middle" x="1070.61" y="-588.95" font-family="Times New Roman,serif" font-size="14.00">Variable[&quot;whirling.kim_took_room&quot;]</text>
</g>
<!-- 41&#45;&gt;42 -->
<g id="edge43" class="edge">
<title>41&#45;&gt;42</title>
<path fill="none" stroke="black" d="M1070.61,-647.7C1070.61,-640.41 1070.61,-631.73 1070.61,-623.54"/>
<polygon fill="black" stroke="black" points="1074.11,-623.62 1070.61,-613.62 1067.11,-623.62 1074.11,-623.62"/>
</g>
<!-- 43 -->
<g id="node44" class="node">
<title>43</title>
<polygon fill="none" stroke="black" points="1619.61,-612 1394.27,-594 1619.61,-576 1844.96,-594 1619.61,-612"/>
<text text-anchor="middle" x="1619.61" y="-588.95" font-family="Times New Roman,serif" font-size="14.00">!(Variable[&quot;whirling.kim_took_room&quot;])</text>
</g>
<!-- 41&#45;&gt;43 -->
<g id="edge44" class="edge">
<title>41&#45;&gt;43</title>
<path fill="none" stroke="black" d="M1170.67,-652.24C1271.32,-639.41 1425.41,-619.76 1524.34,-607.15"/>
<polygon fill="black" stroke="black" points="1524.54,-610.65 1534.02,-605.91 1523.66,-603.71 1524.54,-610.65"/>
</g>
<!-- 42&#45;&gt;24 -->
<g id="edge45" class="edge">
<title>42&#45;&gt;24</title>
<path fill="none" stroke="black" d="M1070.61,-575.7C1070.61,-568.41 1070.61,-559.73 1070.61,-551.54"/>
<polygon fill="black" stroke="black" points="1074.11,-551.62 1070.61,-541.62 1067.11,-551.62 1074.11,-551.62"/>
</g>
<!-- 51 -->
<g id="node52" class="node">
<title>51</title>
<ellipse fill="none" stroke="black" cx="1712.61" cy="-522" rx="219.22" ry="18"/>
<text text-anchor="middle" x="1712.61" y="-516.95" font-family="Times New Roman,serif" font-size="14.00">Kim Kitsuragi: “我也去飞旋旅社开个房间。”</text>
</g>
<!-- 43&#45;&gt;51 -->
<g id="edge46" class="edge">
<title>43&#45;&gt;51</title>
<path fill="none" stroke="black" d="M1640.25,-577.46C1652.16,-568.5 1667.4,-557.03 1680.81,-546.93"/>
<polygon fill="black" stroke="black" points="1682.65,-549.93 1688.54,-541.12 1678.44,-544.34 1682.65,-549.93"/>
</g>
<!-- 45 -->
<g id="node46" class="node">
<title>45</title>
<polygon fill="none" stroke="black" points="2685.61,-828 2534.82,-810 2685.61,-792 2836.4,-810 2685.61,-828"/>
<text text-anchor="middle" x="2685.61" y="-804.95" font-family="Times New Roman,serif" font-size="14.00">MoneyAmount() &gt;=3000</text>
</g>
<!-- 44&#45;&gt;45 -->
<g id="edge47" class="edge">
<title>44&#45;&gt;45</title>
<path fill="none" stroke="black" d="M2618.15,-864.05C2629.99,-854.74 2644.82,-843.08 2657.55,-833.07"/>
<polygon fill="black" stroke="black" points="2659.5,-835.99 2665.19,-827.06 2655.17,-830.49 2659.5,-835.99"/>
</g>
<!-- 46 -->
<g id="node47" class="node">
<title>46</title>
<polygon fill="none" stroke="black" points="2812.61,-684 2648.79,-666 2812.61,-648 2976.43,-666 2812.61,-684"/>
<text text-anchor="middle" x="2812.61" y="-660.95" font-family="Times New Roman,serif" font-size="14.00">!(MoneyAmount() &gt;=3000)</text>
</g>
<!-- 44&#45;&gt;46 -->
<g id="edge48" class="edge">
<title>44&#45;&gt;46</title>
<path fill="none" stroke="black" d="M2562.56,-864.64C2548.41,-855.9 2533.47,-843.68 2525.61,-828 2518.44,-813.7 2516.84,-805.38 2525.61,-792 2570.12,-724.07 2660.45,-692.85 2727.95,-678.63"/>
<polygon fill="black" stroke="black" points="2728.4,-682.11 2737.52,-676.71 2727.02,-675.25 2728.4,-682.11"/>
</g>
<!-- 45&#45;&gt;23 -->
<g id="edge49" class="edge">
<title>45&#45;&gt;23</title>
<path fill="none" stroke="black" d="M2761.07,-800.52C2856.59,-789.79 3023.68,-771.01 3148.23,-757.02"/>
<polygon fill="black" stroke="black" points="3148.34,-760.53 3157.88,-755.94 3147.55,-753.57 3148.34,-760.53"/>
</g>
<!-- 46&#45;&gt;10 -->
<g id="edge50" class="edge">
<title>46&#45;&gt;10</title>
<path fill="none" stroke="black" d="M2773.87,-651.77C2724.54,-633.31 2639.06,-595.69 2583.61,-540 2544.74,-500.96 2518.61,-440.94 2505.8,-406.28"/>
<polygon fill="black" stroke="black" points="2509.14,-405.22 2502.47,-396.98 2502.55,-407.58 2509.14,-405.22"/>
</g>
<!-- 47&#45;&gt;1 -->
<g id="edge51" class="edge">
<title>47&#45;&gt;1</title>
<path fill="none" stroke="black" d="M1292.52,-828.28C1293.28,-835.6 1293.52,-844.34 1293.25,-852.57"/>
<polygon fill="black" stroke="black" points="1289.76,-852.33 1292.59,-862.54 1296.75,-852.8 1289.76,-852.33"/>
</g>
<!-- 47&#45;&gt;6 -->
<g id="edge52" class="edge">
<title>47&#45;&gt;6</title>
<path fill="none" stroke="black" d="M1236.07,-797.36C1190.58,-786.89 1122.78,-771.27 1068.74,-758.83"/>
<polygon fill="black" stroke="black" points="1069.79,-755.48 1059.26,-756.65 1068.22,-762.3 1069.79,-755.48"/>
</g>
<!-- 47&#45;&gt;31 -->
<g id="edge55" class="edge">
<title>47&#45;&gt;31</title>
<path fill="none" stroke="black" d="M1352.78,-804.29C1426.46,-797.77 1539.45,-783.54 1571.61,-756 1610.26,-722.9 1569.39,-679.17 1609.61,-648 1629.04,-632.94 1936.61,-612.24 2109.25,-601.72"/>
<polygon fill="black" stroke="black" points="2109.4,-605.22 2119.17,-601.12 2108.98,-598.23 2109.4,-605.22"/>
</g>
<!-- 47&#45;&gt;40 -->
<g id="edge53" class="edge">
<title>47&#45;&gt;40</title>
<path fill="none" stroke="black" d="M1219.08,-805.57C1070.03,-797.88 701.68,-778.17 393.61,-756 376.48,-754.77 358.54,-753.38 340.72,-751.95"/>
<polygon fill="black" stroke="black" points="341.11,-748.47 330.86,-751.15 340.54,-755.45 341.11,-748.47"/>
</g>
<!-- 52 -->
<g id="node53" class="node">
<title>52</title>
<ellipse fill="none" stroke="black" cx="2107.61" cy="-738" rx="275.01" ry="18"/>
<text text-anchor="middle" x="2107.61" y="-732.95" font-family="Times New Roman,serif" font-size="14.00">You: “我在村庄里发现一些住所，打算去那里过夜。”</text>
</g>
<!-- 47&#45;&gt;52 -->
<g id="edge54" class="edge">
<title>47&#45;&gt;52</title>
<path fill="none" stroke="black" d="M1351.72,-803.45C1476.17,-792.84 1751.57,-769.36 1933.32,-753.86"/>
<polygon fill="black" stroke="black" points="1933.44,-757.36 1943.1,-753.03 1932.84,-750.39 1933.44,-757.36"/>
</g>
<!-- 49 -->
<g id="node50" class="node">
<title>49</title>
<polygon fill="none" stroke="black" points="2793.61,-540 2592.87,-522 2793.61,-504 2994.35,-522 2793.61,-540"/>
<text text-anchor="middle" x="2793.61" y="-516.95" font-family="Times New Roman,serif" font-size="14.00">Variable[&quot;character.pay_garte_60&quot;]</text>
</g>
<!-- 48&#45;&gt;49 -->
<g id="edge56" class="edge">
<title>48&#45;&gt;49</title>
<path fill="none" stroke="black" d="M3162.5,-579.5C3080.01,-566.87 2957.66,-548.13 2876.8,-535.74"/>
<polygon fill="black" stroke="black" points="2877.59,-532.32 2867.17,-534.27 2876.53,-539.24 2877.59,-532.32"/>
</g>
<!-- 50 -->
<g id="node51" class="node">
<title>50</title>
<polygon fill="none" stroke="black" points="3250.61,-540 3036.85,-522 3250.61,-504 3464.37,-522 3250.61,-540"/>
<text text-anchor="middle" x="3250.61" y="-516.95" font-family="Times New Roman,serif" font-size="14.00">!(Variable[&quot;character.pay_garte_60&quot;])</text>
</g>
<!-- 48&#45;&gt;50 -->
<g id="edge57" class="edge">
<title>48&#45;&gt;50</title>
<path fill="none" stroke="black" d="M3250.61,-575.7C3250.61,-568.41 3250.61,-559.73 3250.61,-551.54"/>
<polygon fill="black" stroke="black" points="3254.11,-551.62 3250.61,-541.62 3247.11,-551.62 3254.11,-551.62"/>
</g>
<!-- 49&#45;&gt;19 -->
<g id="edge58" class="edge">
<title>49&#45;&gt;19</title>
<path fill="none" stroke="black" d="M2784.13,-504.41C2779.5,-496.3 2773.81,-486.35 2768.61,-477.25"/>
<polygon fill="black" stroke="black" points="2771.77,-475.73 2763.77,-468.78 2765.7,-479.2 2771.77,-475.73"/>
</g>
<!-- 50&#45;&gt;7 -->
<g id="edge59" class="edge">
<title>50&#45;&gt;7</title>
<path fill="none" stroke="black" d="M3250.61,-503.7C3250.61,-496.41 3250.61,-487.73 3250.61,-479.54"/>
<polygon fill="black" stroke="black" points="3254.11,-479.62 3250.61,-469.62 3247.11,-479.62 3254.11,-479.62"/>
</g>
<!-- 52&#45;&gt;33 -->
<g id="edge60" class="edge">
<title>52&#45;&gt;33</title>
<path fill="none" stroke="black" d="M2111.81,-719.7C2113.6,-712.32 2115.74,-703.52 2117.75,-695.25"/>
<polygon fill="black" stroke="black" points="2121.14,-696.12 2120.1,-685.58 2114.34,-694.47 2121.14,-696.12"/>
</g>
<!-- 53&#45;&gt;2 -->
<g id="edge61" class="edge">
<title>53&#45;&gt;2</title>
<path fill="none" stroke="black" d="M3499.51,-972.1C3500.27,-979.37 3500.52,-988.04 3500.26,-996.24"/>
<polygon fill="black" stroke="black" points="3496.77,-995.98 3499.62,-1006.19 3503.76,-996.43 3496.77,-995.98"/>
</g>
</g>
</svg>
