<?xml version="1.0" encoding="UTF-8" standalone="no"?>
<!DOCTYPE svg PUBLIC "-//W3C//DTD SVG 1.1//EN"
 "http://www.w3.org/Graphics/SVG/1.1/DTD/svg11.dtd">
<!-- Generated by graphviz version 12.2.1 (20241206.2353)
 -->
<!-- Title: G Pages: 1 -->
<svg width="10617pt" height="642pt"
 viewBox="0.00 0.00 10617.15 641.98" xmlns="http://www.w3.org/2000/svg" xmlns:xlink="http://www.w3.org/1999/xlink">
<g id="graph0" class="graph" transform="scale(1 1) rotate(0) translate(4 637.98)">
<title>G</title>
<polygon fill="white" stroke="none" points="-4,4 -4,-637.98 10613.15,-637.98 10613.15,4 -4,4"/>
<!-- 0 -->
<g id="node1" class="node">
<title>0</title>
<ellipse fill="none" stroke="black" cx="2446.54" cy="-615.98" rx="39.07" ry="18"/>
<text text-anchor="middle" x="2446.54" y="-610.93" font-family="Times New Roman,serif" font-size="14.00">START</text>
</g>
<!-- 1 -->
<g id="node2" class="node">
<title>1</title>
<ellipse fill="none" stroke="black" cx="2446.54" cy="-543.98" rx="29.86" ry="18"/>
<text text-anchor="middle" x="2446.54" y="-538.93" font-family="Times New Roman,serif" font-size="14.00">input</text>
</g>
<!-- 0&#45;&gt;1 -->
<g id="edge1" class="edge">
<title>0&#45;&gt;1</title>
<path fill="none" stroke="black" d="M2446.54,-597.68C2446.54,-590.39 2446.54,-581.71 2446.54,-573.52"/>
<polygon fill="black" stroke="black" points="2450.04,-573.6 2446.54,-563.6 2443.04,-573.6 2450.04,-573.6"/>
</g>
<!-- 27 -->
<g id="node28" class="node">
<title>27</title>
<ellipse fill="none" stroke="black" cx="2446.54" cy="-471.98" rx="517.61" ry="18"/>
<text text-anchor="middle" x="2446.54" y="-466.93" font-family="Times New Roman,serif" font-size="14.00">Kim Kitsuragi: “别必要道歉——只要别再把枪塞进嘴里，我们绝对会没事的。”他点点头。“我们走吧。”</text>
</g>
<!-- 1&#45;&gt;27 -->
<g id="edge2" class="edge">
<title>1&#45;&gt;27</title>
<path fill="none" stroke="black" d="M2446.54,-525.68C2446.54,-518.39 2446.54,-509.71 2446.54,-501.52"/>
<polygon fill="black" stroke="black" points="2450.04,-501.6 2446.54,-491.6 2443.04,-501.6 2450.04,-501.6"/>
</g>
<!-- 2 -->
<g id="node3" class="node">
<title>2</title>
<ellipse fill="none" stroke="black" cx="1733.54" cy="-399.98" rx="151.67" ry="18"/>
<text text-anchor="middle" x="1733.54" y="-394.93" font-family="Times New Roman,serif" font-size="14.00">You: “不，不用了。”[离开。]</text>
</g>
<!-- 18 -->
<g id="node19" class="node">
<title>18</title>
<ellipse fill="none" stroke="black" cx="839.54" cy="-327.98" rx="839.54" ry="18"/>
<text text-anchor="middle" x="839.54" y="-322.93" font-family="Times New Roman,serif" font-size="14.00">Kim Kitsuragi: “是的。好吧，如果按照你前后的话重新理解的话，我可以把它当成一个黑色幽默。”他若有所思地停顿了一会儿。“不过下次我就没办法这样理解了。”</text>
</g>
<!-- 2&#45;&gt;18 -->
<g id="edge3" class="edge">
<title>2&#45;&gt;18</title>
<path fill="none" stroke="black" d="M1609.7,-389.29C1469.68,-378.32 1238.76,-360.24 1066.24,-346.73"/>
<polygon fill="black" stroke="black" points="1066.71,-343.26 1056.47,-345.97 1066.16,-350.24 1066.71,-343.26"/>
</g>
<!-- 3 -->
<g id="node4" class="node">
<title>3</title>
<ellipse fill="none" stroke="black" cx="7346.54" cy="-244.99" rx="367.7" ry="28.99"/>
<text text-anchor="middle" x="7346.54" y="-248.19" font-family="Times New Roman,serif" font-size="14.00">You: “还会发生这种事的。我还会这么做的，*很快*就会有第二次。”</text>
<text text-anchor="middle" x="7346.54" y="-231.69" font-family="Times New Roman,serif" font-size="14.00">“这种事还会发生的。直到我成功为止。自杀是没有痛苦的。”</text>
</g>
<!-- 22 -->
<g id="node23" class="node">
<title>22</title>
<ellipse fill="none" stroke="black" cx="6739.54" cy="-162" rx="543.71" ry="18"/>
<text text-anchor="middle" x="6739.54" y="-156.95" font-family="Times New Roman,serif" font-size="14.00">Kim Kitsuragi: “我能理解，有时候你会使用*极端的*审讯策略，但我想让你明白：那个有点*太过*极端了。”</text>
</g>
<!-- 3&#45;&gt;22 -->
<g id="edge4" class="edge">
<title>3&#45;&gt;22</title>
<path fill="none" stroke="black" d="M7162.77,-219.47C7071.1,-207.24 6962.08,-192.69 6877.64,-181.43"/>
<polygon fill="black" stroke="black" points="6878.3,-177.98 6867.92,-180.13 6877.37,-184.92 6878.3,-177.98"/>
</g>
<!-- 4 -->
<g id="node5" class="node">
<title>4</title>
<ellipse fill="none" stroke="black" cx="3745.54" cy="-327.98" rx="757.13" ry="18"/>
<text text-anchor="middle" x="3745.54" y="-322.93" font-family="Times New Roman,serif" font-size="14.00">Kim Kitsuragi: “是的。呃。根据你的前言后语，我可以把它理解成一个黑色幽默。”他若有所思地停顿了一会儿。“不过下次我就没办法这样理解了。”</text>
</g>
<!-- 23 -->
<g id="node24" class="node">
<title>23</title>
<ellipse fill="none" stroke="black" cx="4185.54" cy="-162" rx="654.77" ry="18"/>
<text text-anchor="middle" x="4185.54" y="-156.95" font-family="Times New Roman,serif" font-size="14.00">Kim Kitsuragi: 他把眼镜戴了回去。“我们走吧。记得别再把枪塞到嘴巴里了。还有，不要说任何末日黄昏，或者其他之类的话。”</text>
</g>
<!-- 4&#45;&gt;23 -->
<g id="edge5" class="edge">
<title>4&#45;&gt;23</title>
<path fill="none" stroke="black" d="M3742.84,-309.88C3740.05,-285.31 3739.11,-240.32 3764.54,-216 3781.58,-199.69 3816.45,-188.23 3859.16,-180.2"/>
<polygon fill="black" stroke="black" points="3859.77,-183.65 3869,-178.45 3858.54,-176.76 3859.77,-183.65"/>
</g>
<!-- 5 -->
<g id="node6" class="node">
<title>5</title>
<ellipse fill="none" stroke="black" cx="2620.54" cy="-399.98" rx="110.21" ry="18"/>
<text text-anchor="middle" x="2620.54" y="-394.93" font-family="Times New Roman,serif" font-size="14.00">You: “一定要聊吗？”</text>
</g>
<!-- 32 -->
<g id="node33" class="node">
<title>32</title>
<ellipse fill="none" stroke="black" cx="2333.54" cy="-327.98" rx="636.86" ry="18"/>
<text text-anchor="middle" x="2333.54" y="-322.93" font-family="Times New Roman,serif" font-size="14.00">Kim Kitsuragi: “没错。错的非常，非常，*非常*离谱。”他点头表示赞同。“很高兴你能以我的方式看待这个问题。我们走吧。”</text>
</g>
<!-- 5&#45;&gt;32 -->
<g id="edge6" class="edge">
<title>5&#45;&gt;32</title>
<path fill="none" stroke="black" d="M2561.07,-384.48C2518.96,-374.21 2461.96,-360.31 2415.54,-348.98"/>
<polygon fill="black" stroke="black" points="2416.61,-345.64 2406.06,-346.67 2414.95,-352.44 2416.61,-345.64"/>
</g>
<!-- 6 -->
<g id="node7" class="node">
<title>6</title>
<ellipse fill="none" stroke="black" cx="8053.54" cy="-162" rx="752.02" ry="18"/>
<text text-anchor="middle" x="8053.54" y="-156.95" font-family="Times New Roman,serif" font-size="14.00">Kim Kitsuragi: “末日黄昏？”他取下眼镜，轻轻擦拭着。“那正好就是我们*不能*拥有的。我也说不太好了。我要根据你的前言后语*重新理解*一下。”</text>
</g>
<!-- 24 -->
<g id="node25" class="node">
<title>24</title>
<ellipse fill="none" stroke="black" cx="8053.54" cy="-90" rx="574.93" ry="18"/>
<text text-anchor="middle" x="8053.54" y="-84.95" font-family="Times New Roman,serif" font-size="14.00">Suggestion: 这是你道歉的机会，但你没选择这样做。相反，你选择做一个混账的自杀牛仔，现在他不喜欢你了。</text>
</g>
<!-- 6&#45;&gt;24 -->
<g id="edge7" class="edge">
<title>6&#45;&gt;24</title>
<path fill="none" stroke="black" d="M8053.54,-143.7C8053.54,-136.41 8053.54,-127.73 8053.54,-119.54"/>
<polygon fill="black" stroke="black" points="8057.04,-119.62 8053.54,-109.62 8050.04,-119.62 8057.04,-119.62"/>
</g>
<!-- 7 -->
<g id="node8" class="node">
<title>7</title>
<ellipse fill="none" stroke="black" cx="8057.54" cy="-244.99" rx="286.78" ry="18"/>
<text text-anchor="middle" x="8057.54" y="-239.94" font-family="Times New Roman,serif" font-size="14.00">You: “我想提前拥抱末日黄昏。原子的毁灭在召唤我。”</text>
</g>
<!-- 7&#45;&gt;6 -->
<g id="edge8" class="edge">
<title>7&#45;&gt;6</title>
<path fill="none" stroke="black" d="M8056.69,-226.82C8056.19,-216.68 8055.54,-203.6 8054.96,-191.91"/>
<polygon fill="black" stroke="black" points="8058.46,-191.76 8054.47,-181.94 8051.47,-192.1 8058.46,-191.76"/>
</g>
<!-- 8 -->
<g id="node9" class="node">
<title>8</title>
<ellipse fill="none" stroke="black" cx="3457.54" cy="-399.98" rx="133.75" ry="18"/>
<text text-anchor="middle" x="3457.54" y="-394.93" font-family="Times New Roman,serif" font-size="14.00">You: “这是在寻求帮助。”</text>
</g>
<!-- 8&#45;&gt;4 -->
<g id="edge9" class="edge">
<title>8&#45;&gt;4</title>
<path fill="none" stroke="black" d="M3520.38,-383.71C3562.2,-373.54 3617.58,-360.08 3662.95,-349.06"/>
<polygon fill="black" stroke="black" points="3663.59,-352.5 3672.48,-346.74 3661.94,-345.7 3663.59,-352.5"/>
</g>
<!-- 9 -->
<g id="node10" class="node">
<title>9</title>
<ellipse fill="none" stroke="black" cx="3039.54" cy="-615.98" rx="407.57" ry="18"/>
<text text-anchor="middle" x="3039.54" y="-610.93" font-family="Times New Roman,serif" font-size="14.00">Kim Kitsuragi: 他重新戴上眼镜，又重复了一遍：“永远不可以。现在我们走吧。”</text>
</g>
<!-- 25 -->
<g id="node26" class="node">
<title>25</title>
<ellipse fill="none" stroke="black" cx="3039.54" cy="-543.98" rx="306.74" ry="18"/>
<text text-anchor="middle" x="3039.54" y="-538.93" font-family="Times New Roman,serif" font-size="14.00">Rhetoric: 他就是想不出合适的词来。他试过，但是失败了。</text>
</g>
<!-- 9&#45;&gt;25 -->
<g id="edge10" class="edge">
<title>9&#45;&gt;25</title>
<path fill="none" stroke="black" d="M3039.54,-597.68C3039.54,-590.39 3039.54,-581.71 3039.54,-573.52"/>
<polygon fill="black" stroke="black" points="3043.04,-573.6 3039.54,-563.6 3036.04,-573.6 3043.04,-573.6"/>
</g>
<!-- 10 -->
<g id="node11" class="node">
<title>10</title>
<ellipse fill="none" stroke="black" cx="9825.54" cy="-162" rx="403.99" ry="18"/>
<text text-anchor="middle" x="9825.54" y="-156.95" font-family="Times New Roman,serif" font-size="14.00">Kim Kitsuragi: “很好。很高兴我们进行了这次的谈话。”他点点头。“你先走吧。”</text>
</g>
<!-- 11 -->
<g id="node12" class="node">
<title>11</title>
<ellipse fill="none" stroke="black" cx="4986.54" cy="-327.98" rx="465.92" ry="18"/>
<text text-anchor="middle" x="4986.54" y="-322.93" font-family="Times New Roman,serif" font-size="14.00">Kim Kitsuragi: “呃……”他取下眼镜，掏出一块布——停了一会儿——然后又把眼镜戴了回去。</text>
</g>
<!-- 17 -->
<g id="node18" class="node">
<title>17</title>
<ellipse fill="none" stroke="black" cx="4624.54" cy="-244.99" rx="851.31" ry="18"/>
<text text-anchor="middle" x="4624.54" y="-239.94" font-family="Times New Roman,serif" font-size="14.00">Kim Kitsuragi: “不，不行。我们必须要谈谈。根据你的前言后语，我可以把它理解成一个黑色幽默。”他若有所思地停顿了一会儿。“不过下次我就没办法这样理解了。”</text>
</g>
<!-- 11&#45;&gt;17 -->
<g id="edge11" class="edge">
<title>11&#45;&gt;17</title>
<path fill="none" stroke="black" d="M4909.77,-309.81C4852.23,-296.93 4773.37,-279.29 4713.15,-265.82"/>
<polygon fill="black" stroke="black" points="4714.13,-262.45 4703.61,-263.68 4712.6,-269.28 4714.13,-262.45"/>
</g>
<!-- 12 -->
<g id="node13" class="node">
<title>12</title>
<ellipse fill="none" stroke="black" cx="9113.54" cy="-162" rx="289.85" ry="18"/>
<text text-anchor="middle" x="9113.54" y="-156.95" font-family="Times New Roman,serif" font-size="14.00">Kim Kitsuragi: “我不知道她为什么会离开你。我们走吧。”</text>
</g>
<!-- 13 -->
<g id="node14" class="node">
<title>13</title>
<ellipse fill="none" stroke="black" cx="3039.54" cy="-471.98" rx="57.49" ry="18"/>
<text text-anchor="middle" x="3039.54" y="-466.93" font-family="Times New Roman,serif" font-size="14.00">Untitled hub</text>
</g>
<!-- 13&#45;&gt;2 -->
<g id="edge14" class="edge">
<title>13&#45;&gt;2</title>
<path fill="none" stroke="black" d="M2998.62,-459.03C2990.38,-457.02 2981.73,-455.2 2973.54,-453.98 2770.18,-423.79 2181,-409.16 1894.18,-403.67"/>
<polygon fill="black" stroke="black" points="1894.43,-400.17 1884.36,-403.48 1894.3,-407.17 1894.43,-400.17"/>
</g>
<!-- 13&#45;&gt;5 -->
<g id="edge13" class="edge">
<title>13&#45;&gt;5</title>
<path fill="none" stroke="black" d="M2997.44,-459.45C2989.53,-457.48 2981.3,-455.56 2973.54,-453.98 2887.93,-436.58 2789.58,-422.27 2718.46,-412.93"/>
<polygon fill="black" stroke="black" points="2719.16,-409.49 2708.79,-411.67 2718.25,-416.43 2719.16,-409.49"/>
</g>
<!-- 13&#45;&gt;8 -->
<g id="edge12" class="edge">
<title>13&#45;&gt;8</title>
<path fill="none" stroke="black" d="M3089.13,-462.68C3156.91,-451.33 3279.76,-430.75 3364.86,-416.5"/>
<polygon fill="black" stroke="black" points="3365.31,-419.98 3374.59,-414.87 3364.15,-413.07 3365.31,-419.98"/>
</g>
<!-- 29 -->
<g id="node30" class="node">
<title>29</title>
<ellipse fill="none" stroke="black" cx="4554.54" cy="-399.98" rx="226.39" ry="18"/>
<text text-anchor="middle" x="4554.54" y="-394.93" font-family="Times New Roman,serif" font-size="14.00">You: “100%理解。我保证再也不会这样了。”</text>
</g>
<!-- 13&#45;&gt;29 -->
<g id="edge15" class="edge">
<title>13&#45;&gt;29</title>
<path fill="none" stroke="black" d="M3096.16,-468.37C3299.69,-458.96 4000.62,-426.58 4351.33,-410.37"/>
<polygon fill="black" stroke="black" points="4351.29,-413.88 4361.12,-409.92 4350.97,-406.88 4351.29,-413.88"/>
</g>
<!-- 14 -->
<g id="node15" class="node">
<title>14</title>
<ellipse fill="none" stroke="black" cx="4327.54" cy="-615.98" rx="640.44" ry="18"/>
<text text-anchor="middle" x="4327.54" y="-610.93" font-family="Times New Roman,serif" font-size="14.00">Kim Kitsuragi: “我们不能让RCM警官把枪放在自己的嘴里四处走动。这种场面实在是让人承受不起。几乎没有什么机构可以。”</text>
</g>
<!-- 16 -->
<g id="node17" class="node">
<title>16</title>
<ellipse fill="none" stroke="black" cx="4135.54" cy="-543.98" rx="579.03" ry="18"/>
<text text-anchor="middle" x="4135.54" y="-538.93" font-family="Times New Roman,serif" font-size="14.00">Suggestion: 他知道那个*她*是谁了。很多警察都会曾经被一个*她*或者是*他*抛弃过。但他只是不知道说什么好。</text>
</g>
<!-- 14&#45;&gt;16 -->
<g id="edge16" class="edge">
<title>14&#45;&gt;16</title>
<path fill="none" stroke="black" d="M4280.08,-597.68C4254,-588.17 4221.44,-576.3 4193.82,-566.23"/>
<polygon fill="black" stroke="black" points="4195.13,-562.99 4184.54,-562.85 4192.73,-569.56 4195.13,-562.99"/>
</g>
<!-- 15 -->
<g id="node16" class="node">
<title>15</title>
<ellipse fill="none" stroke="black" cx="8057.54" cy="-327.98" rx="60.05" ry="18"/>
<text text-anchor="middle" x="8057.54" y="-322.93" font-family="Times New Roman,serif" font-size="14.00">guns_abound</text>
</g>
<!-- 15&#45;&gt;3 -->
<g id="edge17" class="edge">
<title>15&#45;&gt;3</title>
<path fill="none" stroke="black" d="M8002.04,-320.66C7908.86,-310.05 7716.19,-288.1 7563.72,-270.73"/>
<polygon fill="black" stroke="black" points="7564.19,-267.26 7553.86,-269.61 7563.4,-274.22 7564.19,-267.26"/>
</g>
<!-- 15&#45;&gt;7 -->
<g id="edge18" class="edge">
<title>15&#45;&gt;7</title>
<path fill="none" stroke="black" d="M8057.54,-309.81C8057.54,-299.67 8057.54,-286.59 8057.54,-274.91"/>
<polygon fill="black" stroke="black" points="8061.04,-274.94 8057.54,-264.94 8054.04,-274.94 8061.04,-274.94"/>
</g>
<!-- 20 -->
<g id="node21" class="node">
<title>20</title>
<ellipse fill="none" stroke="black" cx="8549.54" cy="-244.99" rx="157.3" ry="18"/>
<text text-anchor="middle" x="8549.54" y="-239.94" font-family="Times New Roman,serif" font-size="14.00">You: “那她为什么会离开我？”</text>
</g>
<!-- 15&#45;&gt;20 -->
<g id="edge19" class="edge">
<title>15&#45;&gt;20</title>
<path fill="none" stroke="black" d="M8109.26,-318.47C8190.11,-305.16 8347.84,-279.19 8450.9,-262.23"/>
<polygon fill="black" stroke="black" points="8451.47,-265.68 8460.76,-260.6 8450.33,-258.78 8451.47,-265.68"/>
</g>
<!-- 21 -->
<g id="node22" class="node">
<title>21</title>
<ellipse fill="none" stroke="black" cx="9473.54" cy="-244.99" rx="733.59" ry="18"/>
<text text-anchor="middle" x="9473.54" y="-239.94" font-family="Times New Roman,serif" font-size="14.00">Kim Kitsuragi: “不行。”他取下眼镜，轻轻擦拭着。“不可以。我们在审问别人的时候，你不能把枪放进自己的嘴里。这种事永远不能再次发生。”</text>
</g>
<!-- 15&#45;&gt;21 -->
<g id="edge20" class="edge">
<title>15&#45;&gt;21</title>
<path fill="none" stroke="black" d="M8116.13,-323.63C8294.28,-313.44 8838.19,-282.33 9181,-262.72"/>
<polygon fill="black" stroke="black" points="9181.05,-266.23 9190.84,-262.16 9180.65,-259.24 9181.05,-266.23"/>
</g>
<!-- 30 -->
<g id="node31" class="node">
<title>30</title>
<ellipse fill="none" stroke="black" cx="10412.54" cy="-244.99" rx="180.84" ry="18"/>
<text text-anchor="middle" x="10412.54" y="-239.94" font-family="Times New Roman,serif" font-size="14.00">You: “很抱歉让你陷入这种境地。”</text>
</g>
<!-- 15&#45;&gt;30 -->
<g id="edge21" class="edge">
<title>15&#45;&gt;30</title>
<path fill="none" stroke="black" d="M8117.8,-326.46C8422.14,-323.68 9792.34,-309.36 10216.54,-273.98 10247.65,-271.39 10281.37,-267.11 10311.92,-262.67"/>
<polygon fill="black" stroke="black" points="10312.14,-266.18 10321.52,-261.25 10311.12,-259.25 10312.14,-266.18"/>
</g>
<!-- 31 -->
<g id="node32" class="node">
<title>31</title>
<ellipse fill="none" stroke="black" cx="6227.54" cy="-244.99" rx="733.59" ry="18"/>
<text text-anchor="middle" x="6227.54" y="-239.94" font-family="Times New Roman,serif" font-size="14.00">Kim Kitsuragi: “要的。根据你的前言后语，我可以把它理解成一个黑色幽默。”他若有所思地停顿了一会儿。“不过下次我就没办法这样理解了。”</text>
</g>
<!-- 15&#45;&gt;31 -->
<g id="edge22" class="edge">
<title>15&#45;&gt;31</title>
<path fill="none" stroke="black" d="M7998.21,-324.36C7783.68,-314.86 7037.16,-281.82 6584.76,-261.8"/>
<polygon fill="black" stroke="black" points="6585.12,-258.31 6574.98,-261.37 6584.81,-265.31 6585.12,-258.31"/>
</g>
<!-- 26 -->
<g id="node27" class="node">
<title>26</title>
<ellipse fill="none" stroke="black" cx="4438.54" cy="-471.98" rx="297.53" ry="18"/>
<text text-anchor="middle" x="4438.54" y="-466.93" font-family="Times New Roman,serif" font-size="14.00">Kim Kitsuragi: “这个戏剧性的自杀企图——我们需要聊聊。”</text>
</g>
<!-- 16&#45;&gt;26 -->
<g id="edge23" class="edge">
<title>16&#45;&gt;26</title>
<path fill="none" stroke="black" d="M4210.43,-525.68C4254.07,-515.6 4309.2,-502.86 4354.34,-492.44"/>
<polygon fill="black" stroke="black" points="4354.85,-495.91 4363.81,-490.25 4353.28,-489.09 4354.85,-495.91"/>
</g>
<!-- 17&#45;&gt;23 -->
<g id="edge24" class="edge">
<title>17&#45;&gt;23</title>
<path fill="none" stroke="black" d="M4530.36,-226.62C4459.79,-213.6 4363.22,-195.78 4290.23,-182.31"/>
<polygon fill="black" stroke="black" points="4291.14,-178.92 4280.67,-180.55 4289.87,-185.81 4291.14,-178.92"/>
</g>
<!-- 18&#45;&gt;23 -->
<g id="edge25" class="edge">
<title>18&#45;&gt;23</title>
<path fill="none" stroke="black" d="M1166.46,-310.96C1808.01,-279.52 3224.81,-210.08 3862.89,-178.81"/>
<polygon fill="black" stroke="black" points="3862.76,-182.32 3872.58,-178.34 3862.42,-175.33 3862.76,-182.32"/>
</g>
<!-- 19 -->
<g id="node20" class="node">
<title>19</title>
<ellipse fill="none" stroke="black" cx="10416.54" cy="-90" rx="192.61" ry="18"/>
<text text-anchor="middle" x="10416.54" y="-84.95" font-family="Times New Roman,serif" font-size="14.00">You: “我按直觉行事，这次它错了。”</text>
</g>
<!-- 33 -->
<g id="node34" class="node">
<title>33</title>
<ellipse fill="none" stroke="black" cx="10416.54" cy="-18" rx="27" ry="18"/>
<text text-anchor="middle" x="10416.54" y="-12.95" font-family="Times New Roman,serif" font-size="14.00">33</text>
</g>
<!-- 19&#45;&gt;33 -->
<g id="edge26" class="edge">
<title>19&#45;&gt;33</title>
<path fill="none" stroke="black" d="M10416.54,-71.7C10416.54,-64.41 10416.54,-55.73 10416.54,-47.54"/>
<polygon fill="black" stroke="black" points="10420.04,-47.62 10416.54,-37.62 10413.04,-47.62 10420.04,-47.62"/>
</g>
<!-- 20&#45;&gt;12 -->
<g id="edge27" class="edge">
<title>20&#45;&gt;12</title>
<path fill="none" stroke="black" d="M8639.26,-229.83C8668.36,-225.31 8700.8,-220.36 8730.54,-216 8814.87,-203.64 8909.78,-190.51 8984.01,-180.4"/>
<polygon fill="black" stroke="black" points="8984.34,-183.89 8993.78,-179.07 8983.4,-176.95 8984.34,-183.89"/>
</g>
<!-- 21&#45;&gt;10 -->
<g id="edge28" class="edge">
<title>21&#45;&gt;10</title>
<path fill="none" stroke="black" d="M9549.05,-226.62C9605.13,-213.71 9681.68,-196.1 9740.01,-182.68"/>
<polygon fill="black" stroke="black" points="9740.62,-186.13 9749.58,-180.48 9739.05,-179.31 9740.62,-186.13"/>
</g>
<!-- 22&#45;&gt;15 -->
<g id="edge29" class="edge">
<title>22&#45;&gt;15</title>
<path fill="none" stroke="black" d="M7115.16,-175.39C7381.58,-185.44 7696.53,-200.46 7723.54,-216 7750.24,-231.37 7735.83,-257 7761.54,-273.98 7798.05,-298.11 7913.67,-313.36 7989.14,-321.02"/>
<polygon fill="black" stroke="black" points="7988.63,-324.49 7998.92,-321.99 7989.32,-317.52 7988.63,-324.49"/>
</g>
<!-- 25&#45;&gt;13 -->
<g id="edge30" class="edge">
<title>25&#45;&gt;13</title>
<path fill="none" stroke="black" d="M3039.54,-525.68C3039.54,-518.39 3039.54,-509.71 3039.54,-501.52"/>
<polygon fill="black" stroke="black" points="3043.04,-501.6 3039.54,-491.6 3036.04,-501.6 3043.04,-501.6"/>
</g>
<!-- 26&#45;&gt;14 -->
<g id="edge31" class="edge">
<title>26&#45;&gt;14</title>
<path fill="none" stroke="black" d="M4648.44,-485.1C4714.17,-496.81 4760.91,-519.27 4723.54,-561.98 4710.78,-576.56 4633.71,-588.51 4550.91,-597.35"/>
<polygon fill="black" stroke="black" points="4550.55,-593.87 4540.96,-598.39 4551.27,-600.83 4550.55,-593.87"/>
</g>
<!-- 28 -->
<g id="node29" class="node">
<title>28</title>
<ellipse fill="none" stroke="black" cx="10416.54" cy="-162" rx="169.07" ry="18"/>
<text text-anchor="middle" x="10416.54" y="-156.95" font-family="Times New Roman,serif" font-size="14.00">You: “好啊。我也想聊聊这个。”</text>
</g>
<!-- 28&#45;&gt;19 -->
<g id="edge32" class="edge">
<title>28&#45;&gt;19</title>
<path fill="none" stroke="black" d="M10416.54,-143.7C10416.54,-136.41 10416.54,-127.73 10416.54,-119.54"/>
<polygon fill="black" stroke="black" points="10420.04,-119.62 10416.54,-109.62 10413.04,-119.62 10420.04,-119.62"/>
</g>
<!-- 29&#45;&gt;11 -->
<g id="edge33" class="edge">
<title>29&#45;&gt;11</title>
<path fill="none" stroke="black" d="M4651.49,-383.27C4716.29,-372.77 4801.88,-358.9 4870.33,-347.81"/>
<polygon fill="black" stroke="black" points="4870.8,-351.28 4880.11,-346.23 4869.68,-344.37 4870.8,-351.28"/>
</g>
<!-- 30&#45;&gt;28 -->
<g id="edge34" class="edge">
<title>30&#45;&gt;28</title>
<path fill="none" stroke="black" d="M10413.38,-226.82C10413.88,-216.68 10414.53,-203.6 10415.11,-191.91"/>
<polygon fill="black" stroke="black" points="10418.6,-192.1 10415.6,-181.94 10411.61,-191.76 10418.6,-192.1"/>
</g>
<!-- 31&#45;&gt;23 -->
<g id="edge35" class="edge">
<title>31&#45;&gt;23</title>
<path fill="none" stroke="black" d="M5852.11,-229.1C5484.33,-214.51 4927.07,-192.41 4559.72,-177.84"/>
<polygon fill="black" stroke="black" points="4560,-174.35 4549.87,-177.45 4559.73,-181.34 4560,-174.35"/>
</g>
</g>
</svg>
