<?xml version="1.0" encoding="UTF-8" standalone="no"?>
<!DOCTYPE svg PUBLIC "-//W3C//DTD SVG 1.1//EN"
 "http://www.w3.org/Graphics/SVG/1.1/DTD/svg11.dtd">
<!-- Generated by graphviz version 12.2.1 (20241206.2353)
 -->
<!-- Title: G Pages: 1 -->
<svg width="6170pt" height="1334pt"
 viewBox="0.00 0.00 6169.73 1333.95" xmlns="http://www.w3.org/2000/svg" xmlns:xlink="http://www.w3.org/1999/xlink">
<g id="graph0" class="graph" transform="scale(1 1) rotate(0) translate(4 1329.95)">
<title>G</title>
<polygon fill="white" stroke="none" points="-4,4 -4,-1329.95 6165.73,-1329.95 6165.73,4 -4,4"/>
<!-- 0 -->
<g id="node1" class="node">
<title>0</title>
<ellipse fill="none" stroke="black" cx="2994.71" cy="-1296.96" rx="39.07" ry="18"/>
<text text-anchor="middle" x="2994.71" y="-1291.91" font-family="Times New Roman,serif" font-size="14.00">START</text>
</g>
<!-- 0&#45;&gt;0 -->
<g id="edge1" class="edge">
<title>0&#45;&gt;0</title>
<path fill="none" stroke="black" d="M3019.64,-1311.22C3035.97,-1315.08 3051.77,-1310.33 3051.77,-1296.96 3051.77,-1286.72 3042.51,-1281.53 3030.84,-1281.4"/>
<polygon fill="black" stroke="black" points="3030.67,-1277.89 3021.14,-1282.52 3031.48,-1284.85 3030.67,-1277.89"/>
</g>
<!-- 1 -->
<g id="node2" class="node">
<title>1</title>
<ellipse fill="none" stroke="black" cx="3169.71" cy="-543.98" rx="29.86" ry="18"/>
<text text-anchor="middle" x="3169.71" y="-538.93" font-family="Times New Roman,serif" font-size="14.00">input</text>
</g>
<!-- 63 -->
<g id="node64" class="node">
<title>63</title>
<ellipse fill="none" stroke="black" cx="3169.71" cy="-471.98" rx="198.75" ry="18"/>
<text text-anchor="middle" x="3169.71" y="-466.93" font-family="Times New Roman,serif" font-size="14.00">Volition: 欲望很强烈，但你更加强大。</text>
</g>
<!-- 1&#45;&gt;63 -->
<g id="edge2" class="edge">
<title>1&#45;&gt;63</title>
<path fill="none" stroke="black" d="M3169.71,-525.68C3169.71,-518.39 3169.71,-509.71 3169.71,-501.52"/>
<polygon fill="black" stroke="black" points="3173.21,-501.6 3169.71,-491.6 3166.21,-501.6 3173.21,-501.6"/>
</g>
<!-- 2 -->
<g id="node3" class="node">
<title>2</title>
<ellipse fill="none" stroke="black" cx="1816.71" cy="-543.98" rx="133.75" ry="18"/>
<text text-anchor="middle" x="1816.71" y="-538.93" font-family="Times New Roman,serif" font-size="14.00">You: “鲁莽的交通流氓。”</text>
</g>
<!-- 37 -->
<g id="node38" class="node">
<title>37</title>
<ellipse fill="none" stroke="black" cx="1802.71" cy="-471.98" rx="436.23" ry="18"/>
<text text-anchor="middle" x="1802.71" y="-466.93" font-family="Times New Roman,serif" font-size="14.00">Conceptualization: 在你那被酒精腐蚀的灵魂深处，你发现一些可以编织成故事的线索。</text>
</g>
<!-- 2&#45;&gt;37 -->
<g id="edge3" class="edge">
<title>2&#45;&gt;37</title>
<path fill="none" stroke="black" d="M1813.24,-525.68C1811.77,-518.3 1810.01,-509.51 1808.36,-501.23"/>
<polygon fill="black" stroke="black" points="1811.82,-500.69 1806.42,-491.57 1804.95,-502.06 1811.82,-500.69"/>
</g>
<!-- 3 -->
<g id="node4" class="node">
<title>3</title>
<ellipse fill="none" stroke="black" cx="1861.71" cy="-914.97" rx="333.75" ry="28.99"/>
<text text-anchor="middle" x="1861.71" y="-918.17" font-family="Times New Roman,serif" font-size="14.00">You: “某种一流的恶作剧。我想见见这位司机，跟他握个手。”</text>
<text text-anchor="middle" x="1861.71" y="-901.67" font-family="Times New Roman,serif" font-size="14.00">“某种一流的恶作剧。我想见见这位司机，跟他握个手。”</text>
</g>
<!-- 3&#45;&gt;37 -->
<g id="edge4" class="edge">
<title>3&#45;&gt;37</title>
<path fill="none" stroke="black" d="M1772.42,-886.62C1716.39,-863.29 1654.71,-823.43 1654.71,-760.98 1654.71,-760.98 1654.71,-760.98 1654.71,-614.98 1654.71,-574.54 1647.78,-557.03 1673.71,-525.98 1685.14,-512.28 1700.69,-502.08 1717.02,-494.49"/>
<polygon fill="black" stroke="black" points="1718.07,-497.85 1725.88,-490.7 1715.31,-491.42 1718.07,-497.85"/>
</g>
<!-- 4 -->
<g id="node5" class="node">
<title>4</title>
<ellipse fill="none" stroke="black" cx="2611.71" cy="-471.98" rx="281.15" ry="18"/>
<text text-anchor="middle" x="2611.71" y="-466.93" font-family="Times New Roman,serif" font-size="14.00">You: “又想了一下，也许真没什么好调查的。”[离开。]</text>
</g>
<!-- 5 -->
<g id="node6" class="node">
<title>5</title>
<ellipse fill="none" stroke="black" cx="2694.71" cy="-759.98" rx="40.6" ry="18"/>
<text text-anchor="middle" x="2694.71" y="-754.93" font-family="Times New Roman,serif" font-size="14.00">whohub</text>
</g>
<!-- 40 -->
<g id="node41" class="node">
<title>40</title>
<ellipse fill="none" stroke="black" cx="2480.71" cy="-687.98" rx="59.54" ry="18"/>
<text text-anchor="middle" x="2480.71" y="-682.93" font-family="Times New Roman,serif" font-size="14.00">carmodelhub</text>
</g>
<!-- 5&#45;&gt;40 -->
<g id="edge5" class="edge">
<title>5&#45;&gt;40</title>
<path fill="none" stroke="black" d="M2662.67,-748.5C2627.74,-737.08 2571.4,-718.65 2530.66,-705.32"/>
<polygon fill="black" stroke="black" points="2531.9,-702.05 2521.31,-702.27 2529.73,-708.7 2531.9,-702.05"/>
</g>
<!-- 47 -->
<g id="node48" class="node">
<title>47</title>
<ellipse fill="none" stroke="black" cx="2730.71" cy="-687.98" rx="172.14" ry="18"/>
<text text-anchor="middle" x="2730.71" y="-682.93" font-family="Times New Roman,serif" font-size="14.00">Kim Kitsuragi: “大师锦标赛冠军？”</text>
</g>
<!-- 5&#45;&gt;47 -->
<g id="edge6" class="edge">
<title>5&#45;&gt;47</title>
<path fill="none" stroke="black" d="M2703.42,-742.04C2707.39,-734.33 2712.18,-725.01 2716.63,-716.35"/>
<polygon fill="black" stroke="black" points="2719.67,-718.1 2721.13,-707.6 2713.44,-714.9 2719.67,-718.1"/>
</g>
<!-- 6 -->
<g id="node7" class="node">
<title>6</title>
<ellipse fill="none" stroke="black" cx="4155.71" cy="-18" rx="525.29" ry="18"/>
<text text-anchor="middle" x="4155.71" y="-12.95" font-family="Times New Roman,serif" font-size="14.00">Kim Kitsuragi: “交通流氓？我希望不是。幸运的是，我们不是交警。难道不是应该继续调查凶杀案吗？”</text>
</g>
<!-- 6&#45;&gt;6 -->
<g id="edge7" class="edge">
<title>6&#45;&gt;6</title>
<path fill="none" stroke="black" d="M4516.84,-31.44C4619.74,-30.9 4698.99,-26.42 4698.99,-18 4698.99,-9.89 4625.51,-5.44 4528.2,-4.63"/>
<polygon fill="black" stroke="black" points="4528.38,-1.13 4518.36,-4.57 4528.33,-8.13 4528.38,-1.13"/>
</g>
<!-- 7 -->
<g id="node8" class="node">
<title>7</title>
<ellipse fill="none" stroke="black" cx="3418.71" cy="-997.97" rx="63.12" ry="18"/>
<text text-anchor="middle" x="3418.71" y="-992.92" font-family="Times New Roman,serif" font-size="14.00">trafficcasehub</text>
</g>
<!-- 7&#45;&gt;3 -->
<g id="edge8" class="edge">
<title>7&#45;&gt;3</title>
<path fill="none" stroke="black" d="M3356.46,-994.31C3187.89,-987.05 2708.34,-965.94 2309.71,-943.97 2253.72,-940.88 2193.81,-937.32 2136.61,-933.79"/>
<polygon fill="black" stroke="black" points="2136.92,-930.3 2126.72,-933.18 2136.49,-937.29 2136.92,-930.3"/>
</g>
<!-- 12 -->
<g id="node13" class="node">
<title>12</title>
<ellipse fill="none" stroke="black" cx="2958.71" cy="-914.97" rx="357.41" ry="18"/>
<text text-anchor="middle" x="2958.71" y="-909.92" font-family="Times New Roman,serif" font-size="14.00">You: “其实，无所谓了，我需要更多证据才能列出一份嫌疑人清单。”</text>
</g>
<!-- 7&#45;&gt;12 -->
<g id="edge9" class="edge">
<title>7&#45;&gt;12</title>
<path fill="none" stroke="black" d="M3365.94,-987.67C3292.92,-974.82 3159.42,-951.31 3065.22,-934.73"/>
<polygon fill="black" stroke="black" points="3065.88,-931.29 3055.42,-933 3064.66,-938.18 3065.88,-931.29"/>
</g>
<!-- 23 -->
<g id="node24" class="node">
<title>23</title>
<ellipse fill="none" stroke="black" cx="5607.71" cy="-255.98" rx="379.93" ry="18"/>
<text text-anchor="middle" x="5607.71" y="-250.93" font-family="Times New Roman,serif" font-size="14.00">Kim Kitsuragi: “我猜这样就缩小一定的范围了。幸运的是，我们不是交警。</text>
</g>
<!-- 7&#45;&gt;23 -->
<g id="edge11" class="edge">
<title>7&#45;&gt;23</title>
<path fill="none" stroke="black" d="M3482.14,-996.6C3860.51,-994.32 5805.01,-980.81 5853.71,-943.97 5894.85,-912.84 5887.71,-884.57 5887.71,-832.98 5887.71,-832.98 5887.71,-832.98 5887.71,-398.98 5887.71,-329.78 5818.84,-294.3 5749.42,-276.1"/>
<polygon fill="black" stroke="black" points="5750.3,-272.72 5739.75,-273.69 5748.6,-279.51 5750.3,-272.72"/>
</g>
<!-- 51 -->
<g id="node52" class="node">
<title>51</title>
<ellipse fill="none" stroke="black" cx="3878.71" cy="-914.97" rx="294.97" ry="18"/>
<text text-anchor="middle" x="3878.71" y="-909.92" font-family="Times New Roman,serif" font-size="14.00">Conceptualization: 你想到一个感人的故事。不过挺垃圾的。</text>
</g>
<!-- 7&#45;&gt;51 -->
<g id="edge10" class="edge">
<title>7&#45;&gt;51</title>
<path fill="none" stroke="black" d="M3471.47,-987.67C3544.83,-974.76 3679.23,-951.09 3773.51,-934.5"/>
<polygon fill="black" stroke="black" points="3774.07,-937.95 3783.31,-932.77 3772.85,-931.06 3774.07,-937.95"/>
</g>
<!-- 55 -->
<g id="node56" class="node">
<title>55</title>
<ellipse fill="none" stroke="black" cx="5551.71" cy="-914.97" rx="293.44" ry="18"/>
<text text-anchor="middle" x="5551.71" y="-909.92" font-family="Times New Roman,serif" font-size="14.00">Kim Kitsuragi: 警督耐心地听着从你口中蹦出的每一个字。</text>
</g>
<!-- 7&#45;&gt;55 -->
<g id="edge12" class="edge">
<title>7&#45;&gt;55</title>
<path fill="none" stroke="black" d="M3481.82,-996.45C3714.66,-994.28 4547.43,-984.01 5232.71,-943.97 5284.3,-940.95 5340.5,-936.43 5391.14,-931.9"/>
<polygon fill="black" stroke="black" points="5391.38,-935.4 5401.02,-931.01 5390.75,-928.42 5391.38,-935.4"/>
</g>
<!-- 8 -->
<g id="node9" class="node">
<title>8</title>
<ellipse fill="none" stroke="black" cx="450.71" cy="-543.98" rx="419.85" ry="18"/>
<text text-anchor="middle" x="450.71" y="-538.93" font-family="Times New Roman,serif" font-size="14.00">You: “快看，金，这里的故事是这样的——司机是个男的，他的老婆正要生产……”</text>
</g>
<!-- 60 -->
<g id="node61" class="node">
<title>60</title>
<ellipse fill="none" stroke="black" cx="516.71" cy="-471.98" rx="219.74" ry="18"/>
<text text-anchor="middle" x="516.71" y="-466.93" font-family="Times New Roman,serif" font-size="14.00">You: 也许我不应该这么早就说它是垃圾。</text>
</g>
<!-- 8&#45;&gt;60 -->
<g id="edge13" class="edge">
<title>8&#45;&gt;60</title>
<path fill="none" stroke="black" d="M467.02,-525.68C474.77,-517.46 484.19,-507.47 492.74,-498.4"/>
<polygon fill="black" stroke="black" points="495.23,-500.87 499.54,-491.19 490.13,-496.06 495.23,-500.87"/>
</g>
<!-- 9 -->
<g id="node10" class="node">
<title>9</title>
<ellipse fill="none" stroke="black" cx="3418.71" cy="-1141.97" rx="192.61" ry="18"/>
<text text-anchor="middle" x="3418.71" y="-1136.92" font-family="Times New Roman,serif" font-size="14.00">You: “一定是个又酷又有胆量的人。”</text>
</g>
<!-- 22 -->
<g id="node23" class="node">
<title>22</title>
<ellipse fill="none" stroke="black" cx="3418.71" cy="-1069.97" rx="177.26" ry="18"/>
<text text-anchor="middle" x="3418.71" y="-1064.92" font-family="Times New Roman,serif" font-size="14.00">Conceptualization: 呃，那你走运了。</text>
</g>
<!-- 9&#45;&gt;22 -->
<g id="edge14" class="edge">
<title>9&#45;&gt;22</title>
<path fill="none" stroke="black" d="M3418.71,-1123.66C3418.71,-1116.37 3418.71,-1107.69 3418.71,-1099.5"/>
<polygon fill="black" stroke="black" points="3422.21,-1099.58 3418.71,-1089.58 3415.21,-1099.58 3422.21,-1099.58"/>
</g>
<!-- 10 -->
<g id="node11" class="node">
<title>10</title>
<ellipse fill="none" stroke="black" cx="3969.71" cy="-759.98" rx="368.16" ry="18"/>
<text text-anchor="middle" x="3969.71" y="-754.93" font-family="Times New Roman,serif" font-size="14.00">Esprit de Corps: 我没指望他在这件事上能有多大进展，警督安慰着自己。</text>
</g>
<!-- 11 -->
<g id="node12" class="node">
<title>11</title>
<ellipse fill="none" stroke="black" cx="1257.71" cy="-543.98" rx="368.67" ry="18"/>
<text text-anchor="middle" x="1257.71" y="-538.93" font-family="Times New Roman,serif" font-size="14.00">Kim Kitsuragi: “你说得对。”他挺直后背。“我们还是继续调查凶杀案吧。”</text>
</g>
<!-- 32 -->
<g id="node33" class="node">
<title>32</title>
<ellipse fill="none" stroke="black" cx="2694.71" cy="-831.98" rx="343.08" ry="18"/>
<text text-anchor="middle" x="2694.71" y="-826.93" font-family="Times New Roman,serif" font-size="14.00">You: “应该是某个很危险的角色。也许这也跟凶杀案有所*关联*？”</text>
</g>
<!-- 12&#45;&gt;32 -->
<g id="edge15" class="edge">
<title>12&#45;&gt;32</title>
<path fill="none" stroke="black" d="M2902.72,-896.8C2861.42,-884.13 2805.05,-866.84 2761.42,-853.45"/>
<polygon fill="black" stroke="black" points="2762.65,-850.17 2752.06,-850.58 2760.59,-856.86 2762.65,-850.17"/>
</g>
<!-- 13 -->
<g id="node14" class="node">
<title>13</title>
<ellipse fill="none" stroke="black" cx="3169.71" cy="-399.98" rx="269.38" ry="18"/>
<text text-anchor="middle" x="3169.71" y="-394.93" font-family="Times New Roman,serif" font-size="14.00">You: “走吧，这里的信息都已经收集全了。”[离开。]</text>
</g>
<!-- 14 -->
<g id="node15" class="node">
<title>14</title>
<ellipse fill="none" stroke="black" cx="1911.71" cy="-687.98" rx="220.25" ry="18"/>
<text text-anchor="middle" x="1911.71" y="-682.93" font-family="Times New Roman,serif" font-size="14.00">Kim Kitsuragi: Variable[&quot;canal.kim_samaran_volition&quot;]</text>
</g>
<!-- 14&#45;&gt;14 -->
<g id="edge16" class="edge">
<title>14&#45;&gt;14</title>
<path fill="none" stroke="black" d="M2062.64,-701.48C2111.32,-701.36 2149.95,-696.86 2149.95,-687.98 2149.95,-679.82 2117.26,-675.36 2074.13,-674.6"/>
<polygon fill="black" stroke="black" points="2074.19,-671.1 2064.15,-674.5 2074.12,-678.1 2074.19,-671.1"/>
</g>
<!-- 15 -->
<g id="node16" class="node">
<title>15</title>
<polygon fill="none" stroke="black" points="1911.71,-633.98 1682.74,-615.98 1911.71,-597.98 2140.67,-615.98 1911.71,-633.98"/>
<text text-anchor="middle" x="1911.71" y="-610.93" font-family="Times New Roman,serif" font-size="14.00">Variable[&quot;canal.kim_samaran_volition&quot;]</text>
</g>
<!-- 14&#45;&gt;15 -->
<g id="edge17" class="edge">
<title>14&#45;&gt;15</title>
<path fill="none" stroke="black" d="M1911.71,-669.68C1911.71,-662.39 1911.71,-653.71 1911.71,-645.52"/>
<polygon fill="black" stroke="black" points="1915.21,-645.6 1911.71,-635.6 1908.21,-645.6 1915.21,-645.6"/>
</g>
<!-- 30 -->
<g id="node31" class="node">
<title>30</title>
<ellipse fill="none" stroke="black" cx="2281.71" cy="-543.98" rx="313.4" ry="18"/>
<text text-anchor="middle" x="2281.71" y="-538.93" font-family="Times New Roman,serif" font-size="14.00">Kim Kitsuragi: 他好像被打动了。“在我看来，确实很有可能。”</text>
</g>
<!-- 15&#45;&gt;30 -->
<g id="edge18" class="edge">
<title>15&#45;&gt;30</title>
<path fill="none" stroke="black" d="M1977,-602.63C2033.88,-591.87 2117.2,-576.11 2182.34,-563.78"/>
<polygon fill="black" stroke="black" points="2182.8,-567.26 2191.97,-561.96 2181.5,-560.38 2182.8,-567.26"/>
</g>
<!-- 16 -->
<g id="node17" class="node">
<title>16</title>
<polygon fill="none" stroke="black" points="2400.71,-633.98 2158.71,-615.98 2400.71,-597.98 2642.7,-615.98 2400.71,-633.98"/>
<text text-anchor="middle" x="2400.71" y="-610.93" font-family="Times New Roman,serif" font-size="14.00">!(Variable[&quot;canal.kim_samaran_volition&quot;])</text>
</g>
<!-- 16&#45;&gt;7 -->
<g id="edge19" class="edge">
<title>16&#45;&gt;7</title>
<path fill="none" stroke="black" d="M2385.12,-632.92C2362.62,-657.7 2323.71,-707.94 2323.71,-758.98 2323.71,-832.98 2323.71,-832.98 2323.71,-832.98 2323.71,-962.31 2466.27,-916.77 2592.71,-943.97 2735,-974.57 3169.31,-989.92 3344.39,-995"/>
<polygon fill="black" stroke="black" points="3344.18,-998.5 3354.28,-995.29 3344.38,-991.5 3344.18,-998.5"/>
</g>
<!-- 17 -->
<g id="node18" class="node">
<title>17</title>
<ellipse fill="none" stroke="black" cx="4637.71" cy="-687.98" rx="149.62" ry="18"/>
<text text-anchor="middle" x="4637.71" y="-682.93" font-family="Times New Roman,serif" font-size="14.00">You: “我觉得是林内亚G22。”</text>
</g>
<!-- 29 -->
<g id="node30" class="node">
<title>29</title>
<ellipse fill="none" stroke="black" cx="4391.71" cy="-471.98" rx="96.39" ry="18"/>
<text text-anchor="middle" x="4391.71" y="-466.93" font-family="Times New Roman,serif" font-size="14.00">Authority: *关闭*。</text>
</g>
<!-- 17&#45;&gt;29 -->
<g id="edge20" class="edge">
<title>17&#45;&gt;29</title>
<path fill="none" stroke="black" d="M4736.67,-674.14C4797.62,-661.91 4858.67,-639.07 4827.71,-597.98 4785.68,-542.22 4592.64,-503.73 4477.99,-485.34"/>
<polygon fill="black" stroke="black" points="4478.72,-481.91 4468.3,-483.81 4477.63,-488.83 4478.72,-481.91"/>
</g>
<!-- 18 -->
<g id="node19" class="node">
<title>18</title>
<ellipse fill="none" stroke="black" cx="4012.71" cy="-1296.96" rx="227.16" ry="28.99"/>
<text text-anchor="middle" x="4012.71" y="-1300.16" font-family="Times New Roman,serif" font-size="14.00">You: “我不知道。”</text>
<text text-anchor="middle" x="4012.71" y="-1283.66" font-family="Times New Roman,serif" font-size="14.00">“我不知道，也许是超级明星移动电话？”</text>
</g>
<!-- 18&#45;&gt;18 -->
<g id="edge21" class="edge">
<title>18&#45;&gt;18</title>
<path fill="none" stroke="black" d="M4214.21,-1310.64C4240.48,-1308.28 4257.86,-1303.72 4257.86,-1296.96 4257.86,-1291.22 4245.37,-1287.07 4225.56,-1284.51"/>
<polygon fill="black" stroke="black" points="4226.03,-1281.04 4215.71,-1283.44 4225.28,-1288 4226.03,-1281.04"/>
</g>
<!-- 19 -->
<g id="node20" class="node">
<title>19</title>
<ellipse fill="none" stroke="black" cx="2867.71" cy="-543.98" rx="254.54" ry="18"/>
<text text-anchor="middle" x="2867.71" y="-538.93" font-family="Times New Roman,serif" font-size="14.00">Kim Kitsuragi: “我觉得查这个真不是我们的工作。”</text>
</g>
<!-- 19&#45;&gt;4 -->
<g id="edge22" class="edge">
<title>19&#45;&gt;4</title>
<path fill="none" stroke="black" d="M2805.74,-526.04C2769.37,-516.09 2723.22,-503.47 2685.05,-493.04"/>
<polygon fill="black" stroke="black" points="2686.02,-489.68 2675.45,-490.41 2684.18,-496.43 2686.02,-489.68"/>
</g>
<!-- 20 -->
<g id="node21" class="node">
<title>20</title>
<ellipse fill="none" stroke="black" cx="3878.71" cy="-831.98" rx="281.15" ry="18"/>
<text text-anchor="middle" x="3878.71" y="-826.93" font-family="Times New Roman,serif" font-size="14.00">You: “我不在乎，而且真的不是我们的问题。”[离开。]</text>
</g>
<!-- 20&#45;&gt;10 -->
<g id="edge23" class="edge">
<title>20&#45;&gt;10</title>
<path fill="none" stroke="black" d="M3901.2,-813.68C3912.36,-805.1 3926.02,-794.59 3938.2,-785.22"/>
<polygon fill="black" stroke="black" points="3940.16,-788.12 3945.95,-779.25 3935.89,-782.58 3940.16,-788.12"/>
</g>
<!-- 21 -->
<g id="node22" class="node">
<title>21</title>
<ellipse fill="none" stroke="black" cx="4483.71" cy="-1296.96" rx="207.96" ry="18"/>
<text text-anchor="middle" x="4483.71" y="-1291.91" font-family="Times New Roman,serif" font-size="14.00">You: 没问题啊，我就是喜欢垃圾故事。</text>
</g>
<!-- 21&#45;&gt;21 -->
<g id="edge24" class="edge">
<title>21&#45;&gt;21</title>
<path fill="none" stroke="black" d="M4602.57,-1312.15C4659.49,-1313.99 4709.67,-1308.93 4709.67,-1296.96 4709.67,-1285.78 4665.93,-1280.62 4613.81,-1281.49"/>
<polygon fill="black" stroke="black" points="4614,-1277.98 4604.09,-1281.73 4614.17,-1284.98 4614,-1277.98"/>
</g>
<!-- 22&#45;&gt;7 -->
<g id="edge25" class="edge">
<title>22&#45;&gt;7</title>
<path fill="none" stroke="black" d="M3418.71,-1051.66C3418.71,-1044.37 3418.71,-1035.69 3418.71,-1027.5"/>
<polygon fill="black" stroke="black" points="3422.21,-1027.58 3418.71,-1017.58 3415.21,-1027.58 3422.21,-1027.58"/>
</g>
<!-- 23&#45;&gt;6 -->
<g id="edge26" class="edge">
<title>23&#45;&gt;6</title>
<path fill="none" stroke="black" d="M5560.5,-237.65C5455.83,-200.06 5195.62,-111.28 4969.71,-72 4846.29,-50.54 4710.98,-37.58 4586.72,-29.81"/>
<polygon fill="black" stroke="black" points="4587.21,-26.34 4577.01,-29.22 4586.78,-33.32 4587.21,-26.34"/>
</g>
<!-- 24 -->
<g id="node25" class="node">
<title>24</title>
<ellipse fill="none" stroke="black" cx="4994.71" cy="-1296.96" rx="266.82" ry="18"/>
<text text-anchor="middle" x="4994.71" y="-1291.91" font-family="Times New Roman,serif" font-size="14.00">You: 试着为司机的行动想出一个让人信服的解释。</text>
</g>
<!-- 24&#45;&gt;24 -->
<g id="edge27" class="edge">
<title>24&#45;&gt;24</title>
<path fill="none" stroke="black" d="M5145.99,-1312.18C5217.13,-1313.93 5279.53,-1308.85 5279.53,-1296.96 5279.53,-1285.69 5223.54,-1280.54 5157.17,-1281.51"/>
<polygon fill="black" stroke="black" points="5157.43,-1278.01 5147.5,-1281.7 5157.57,-1285 5157.43,-1278.01"/>
</g>
<!-- 25 -->
<g id="node26" class="node">
<title>25</title>
<ellipse fill="none" stroke="black" cx="4991.71" cy="-914.97" rx="214.11" ry="18"/>
<text text-anchor="middle" x="4991.71" y="-909.92" font-family="Times New Roman,serif" font-size="14.00">You: Variable[&quot;canal.canal_tires_red_check_boolean&quot;]</text>
</g>
<!-- 25&#45;&gt;25 -->
<g id="edge28" class="edge">
<title>25&#45;&gt;25</title>
<path fill="none" stroke="black" d="M5113.8,-930.16C5172.27,-932.01 5223.81,-926.95 5223.81,-914.97 5223.81,-903.77 5178.7,-898.62 5125.01,-899.51"/>
<polygon fill="black" stroke="black" points="5125.23,-896.01 5115.32,-899.75 5125.4,-903 5125.23,-896.01"/>
</g>
<!-- 26 -->
<g id="node27" class="node">
<title>26</title>
<polygon fill="none" stroke="black" points="4991.71,-849.98 4717.14,-831.98 4991.71,-813.98 5266.27,-831.98 4991.71,-849.98"/>
<text text-anchor="middle" x="4991.71" y="-826.93" font-family="Times New Roman,serif" font-size="14.00">Variable[&quot;canal.canal_tires_red_check_boolean&quot;]</text>
</g>
<!-- 25&#45;&gt;26 -->
<g id="edge29" class="edge">
<title>25&#45;&gt;26</title>
<path fill="none" stroke="black" d="M4991.71,-896.8C4991.71,-886.67 4991.71,-873.58 4991.71,-861.9"/>
<polygon fill="black" stroke="black" points="4995.21,-861.93 4991.71,-851.93 4988.21,-861.93 4995.21,-861.93"/>
</g>
<!-- 33 -->
<g id="node34" class="node">
<title>33</title>
<ellipse fill="none" stroke="black" cx="4991.71" cy="-759.98" rx="336.94" ry="18"/>
<text text-anchor="middle" x="4991.71" y="-754.93" font-family="Times New Roman,serif" font-size="14.00">Kim Kitsuragi: “我们不是交警。难道不是应该继续调查凶杀案吗？”</text>
</g>
<!-- 26&#45;&gt;33 -->
<g id="edge30" class="edge">
<title>26&#45;&gt;33</title>
<path fill="none" stroke="black" d="M4991.71,-813.68C4991.71,-806.39 4991.71,-797.71 4991.71,-789.52"/>
<polygon fill="black" stroke="black" points="4995.21,-789.6 4991.71,-779.6 4988.21,-789.6 4995.21,-789.6"/>
</g>
<!-- 27 -->
<g id="node28" class="node">
<title>27</title>
<polygon fill="none" stroke="black" points="5571.71,-849.98 5284.11,-831.98 5571.71,-813.98 5859.3,-831.98 5571.71,-849.98"/>
<text text-anchor="middle" x="5571.71" y="-826.93" font-family="Times New Roman,serif" font-size="14.00">!(Variable[&quot;canal.canal_tires_red_check_boolean&quot;])</text>
</g>
<!-- 27&#45;&gt;33 -->
<g id="edge31" class="edge">
<title>27&#45;&gt;33</title>
<path fill="none" stroke="black" d="M5476.26,-819.46C5383.55,-808.27 5241.61,-791.14 5135.28,-778.31"/>
<polygon fill="black" stroke="black" points="5135.98,-774.87 5125.63,-777.15 5135.14,-781.82 5135.98,-774.87"/>
</g>
<!-- 28 -->
<g id="node29" class="node">
<title>28</title>
<ellipse fill="none" stroke="black" cx="2333.71" cy="-172.99" rx="506.35" ry="18"/>
<text text-anchor="middle" x="2333.71" y="-167.94" font-family="Times New Roman,serif" font-size="14.00">You: “因为挫折退出后，他变成一个隐居的幽灵車手，在瑞瓦肖的街道上追寻死亡，超速驾驶……”</text>
</g>
<!-- 53 -->
<g id="node54" class="node">
<title>53</title>
<ellipse fill="none" stroke="black" cx="2979.71" cy="-90" rx="104.58" ry="18"/>
<text text-anchor="middle" x="2979.71" y="-84.95" font-family="Times New Roman,serif" font-size="14.00">Jump to: [trafficcasehub]</text>
</g>
<!-- 28&#45;&gt;53 -->
<g id="edge32" class="edge">
<title>28&#45;&gt;53</title>
<path fill="none" stroke="black" d="M2467.95,-155.16C2592.91,-139.49 2775.94,-116.55 2885.89,-102.76"/>
<polygon fill="black" stroke="black" points="2886.3,-106.24 2895.78,-101.52 2885.43,-99.29 2886.3,-106.24"/>
</g>
<!-- 41 -->
<g id="node42" class="node">
<title>41</title>
<ellipse fill="none" stroke="black" cx="4391.71" cy="-399.98" rx="192.61" ry="18"/>
<text text-anchor="middle" x="4391.71" y="-394.93" font-family="Times New Roman,serif" font-size="14.00">You: “我有个想法，大概知道是谁。”</text>
</g>
<!-- 29&#45;&gt;41 -->
<g id="edge33" class="edge">
<title>29&#45;&gt;41</title>
<path fill="none" stroke="black" d="M4391.71,-453.68C4391.71,-446.39 4391.71,-437.71 4391.71,-429.52"/>
<polygon fill="black" stroke="black" points="4395.21,-429.6 4391.71,-419.6 4388.21,-429.6 4395.21,-429.6"/>
</g>
<!-- 30&#45;&gt;4 -->
<g id="edge34" class="edge">
<title>30&#45;&gt;4</title>
<path fill="none" stroke="black" d="M2361.17,-526.13C2409.57,-515.86 2471.55,-502.71 2521.75,-492.06"/>
<polygon fill="black" stroke="black" points="2522.4,-495.51 2531.45,-490.01 2520.94,-488.66 2522.4,-495.51"/>
</g>
<!-- 31 -->
<g id="node32" class="node">
<title>31</title>
<ellipse fill="none" stroke="black" cx="529.71" cy="-172.99" rx="104.58" ry="18"/>
<text text-anchor="middle" x="529.71" y="-167.94" font-family="Times New Roman,serif" font-size="14.00">Jump to: [trafficcasehub]</text>
</g>
<!-- 31&#45;&gt;6 -->
<g id="edge35" class="edge">
<title>31&#45;&gt;6</title>
<path fill="none" stroke="black" d="M630.17,-167.63C954.06,-153.58 2000.07,-108.31 2865.71,-72 3187.63,-58.5 3554.76,-43.45 3814.82,-32.85"/>
<polygon fill="black" stroke="black" points="3814.6,-36.36 3824.45,-32.45 3814.32,-29.36 3814.6,-36.36"/>
</g>
<!-- 32&#45;&gt;5 -->
<g id="edge36" class="edge">
<title>32&#45;&gt;5</title>
<path fill="none" stroke="black" d="M2694.71,-813.68C2694.71,-806.39 2694.71,-797.71 2694.71,-789.52"/>
<polygon fill="black" stroke="black" points="2698.21,-789.6 2694.71,-779.6 2691.21,-789.6 2698.21,-789.6"/>
</g>
<!-- 33&#45;&gt;6 -->
<g id="edge37" class="edge">
<title>33&#45;&gt;6</title>
<path fill="none" stroke="black" d="M4984.42,-741.85C4973.9,-715.51 4955.71,-663.27 4955.71,-616.98 4955.71,-616.98 4955.71,-616.98 4955.71,-171.99 4955.71,-110.01 4580.4,-61.16 4343.91,-36.53"/>
<polygon fill="black" stroke="black" points="4344.57,-33.08 4334.26,-35.53 4343.85,-40.04 4344.57,-33.08"/>
</g>
<!-- 34 -->
<g id="node35" class="node">
<title>34</title>
<ellipse fill="none" stroke="black" cx="3308.71" cy="-831.98" rx="252.49" ry="18"/>
<text text-anchor="middle" x="3308.71" y="-826.93" font-family="Times New Roman,serif" font-size="14.00">Kim Kitsuragi: Variable[&quot;canal.canal_tires_red_check_boolean&quot;]</text>
</g>
<!-- 34&#45;&gt;34 -->
<g id="edge38" class="edge">
<title>34&#45;&gt;34</title>
<path fill="none" stroke="black" d="M3481.71,-845.48C3536.2,-845.27 3579.2,-840.77 3579.2,-831.98 3579.2,-823.81 3542.04,-819.35 3493.02,-818.6"/>
<polygon fill="black" stroke="black" points="3493.25,-815.1 3483.22,-818.5 3493.19,-822.1 3493.25,-815.1"/>
</g>
<!-- 35 -->
<g id="node36" class="node">
<title>35</title>
<polygon fill="none" stroke="black" points="3308.71,-777.98 3034.14,-759.98 3308.71,-741.98 3583.27,-759.98 3308.71,-777.98"/>
<text text-anchor="middle" x="3308.71" y="-754.93" font-family="Times New Roman,serif" font-size="14.00">Variable[&quot;canal.canal_tires_red_check_boolean&quot;]</text>
</g>
<!-- 34&#45;&gt;35 -->
<g id="edge39" class="edge">
<title>34&#45;&gt;35</title>
<path fill="none" stroke="black" d="M3308.71,-813.68C3308.71,-806.39 3308.71,-797.71 3308.71,-789.52"/>
<polygon fill="black" stroke="black" points="3312.21,-789.6 3308.71,-779.6 3305.21,-789.6 3312.21,-789.6"/>
</g>
<!-- 36 -->
<g id="node37" class="node">
<title>36</title>
<polygon fill="none" stroke="black" points="3661.71,-705.98 3374.11,-687.98 3661.71,-669.98 3949.3,-687.98 3661.71,-705.98"/>
<text text-anchor="middle" x="3661.71" y="-682.93" font-family="Times New Roman,serif" font-size="14.00">!(Variable[&quot;canal.canal_tires_red_check_boolean&quot;])</text>
</g>
<!-- 35&#45;&gt;36 -->
<g id="edge40" class="edge">
<title>35&#45;&gt;36</title>
<path fill="none" stroke="black" d="M3374.69,-745.9C3433.99,-734.14 3521.13,-716.86 3583.83,-704.43"/>
<polygon fill="black" stroke="black" points="3584.23,-707.91 3593.36,-702.54 3582.87,-701.05 3584.23,-707.91"/>
</g>
<!-- 50 -->
<g id="node51" class="node">
<title>50</title>
<ellipse fill="none" stroke="black" cx="4363.71" cy="-615.98" rx="454.66" ry="18"/>
<text text-anchor="middle" x="4363.71" y="-610.93" font-family="Times New Roman,serif" font-size="14.00">Kim Kitsuragi: “是啊，是啊，很有可能就是这样。好了，我们该走了。我们也不是交警。”</text>
</g>
<!-- 36&#45;&gt;50 -->
<g id="edge41" class="edge">
<title>36&#45;&gt;50</title>
<path fill="none" stroke="black" d="M3769.47,-676.24C3881.23,-665.09 4057.71,-647.5 4189.35,-634.37"/>
<polygon fill="black" stroke="black" points="4189.63,-637.86 4199.24,-633.38 4188.94,-630.89 4189.63,-637.86"/>
</g>
<!-- 66 -->
<g id="node67" class="node">
<title>66</title>
<ellipse fill="none" stroke="black" cx="1902.71" cy="-399.98" rx="130.17" ry="18"/>
<text text-anchor="middle" x="1902.71" y="-394.93" font-family="Times New Roman,serif" font-size="14.00">Rhetoric: 不，都是垃圾。</text>
</g>
<!-- 37&#45;&gt;66 -->
<g id="edge42" class="edge">
<title>37&#45;&gt;66</title>
<path fill="none" stroke="black" d="M1827.42,-453.68C1840.02,-444.86 1855.52,-434.01 1869.17,-424.46"/>
<polygon fill="black" stroke="black" points="1870.85,-427.56 1877.03,-418.96 1866.83,-421.82 1870.85,-427.56"/>
</g>
<!-- 38 -->
<g id="node39" class="node">
<title>38</title>
<ellipse fill="none" stroke="black" cx="4391.71" cy="-327.98" rx="172.14" ry="18"/>
<text text-anchor="middle" x="4391.71" y="-322.93" font-family="Times New Roman,serif" font-size="14.00">Kim Kitsuragi: “你觉得是什么車？”</text>
</g>
<!-- 56 -->
<g id="node57" class="node">
<title>56</title>
<ellipse fill="none" stroke="black" cx="4391.71" cy="-255.98" rx="310.33" ry="18"/>
<text text-anchor="middle" x="4391.71" y="-250.93" font-family="Times New Roman,serif" font-size="14.00">You: “金，我们应该把这个司机绳之以法。”（接受任务。）</text>
</g>
<!-- 38&#45;&gt;56 -->
<g id="edge43" class="edge">
<title>38&#45;&gt;56</title>
<path fill="none" stroke="black" d="M4391.71,-309.68C4391.71,-302.39 4391.71,-293.71 4391.71,-285.52"/>
<polygon fill="black" stroke="black" points="4395.21,-285.6 4391.71,-275.6 4388.21,-285.6 4395.21,-285.6"/>
</g>
<!-- 39 -->
<g id="node40" class="node">
<title>39</title>
<ellipse fill="none" stroke="black" cx="450.71" cy="-615.98" rx="172.14" ry="18"/>
<text text-anchor="middle" x="450.71" y="-610.93" font-family="Times New Roman,serif" font-size="14.00">Kim Kitsuragi: 他抬高眉毛。“哦？”</text>
</g>
<!-- 39&#45;&gt;8 -->
<g id="edge44" class="edge">
<title>39&#45;&gt;8</title>
<path fill="none" stroke="black" d="M450.71,-597.68C450.71,-590.39 450.71,-581.71 450.71,-573.52"/>
<polygon fill="black" stroke="black" points="454.21,-573.6 450.71,-563.6 447.21,-573.6 454.21,-573.6"/>
</g>
<!-- 39&#45;&gt;11 -->
<g id="edge45" class="edge">
<title>39&#45;&gt;11</title>
<path fill="none" stroke="black" d="M579.92,-603.77C712.52,-592.27 920.16,-574.26 1070.7,-561.2"/>
<polygon fill="black" stroke="black" points="1070.72,-564.72 1080.38,-560.36 1070.12,-557.74 1070.72,-564.72"/>
</g>
<!-- 39&#45;&gt;31 -->
<g id="edge46" class="edge">
<title>39&#45;&gt;31</title>
<path fill="none" stroke="black" d="M279.67,-613.63C176.97,-609.14 59.16,-596.3 21.71,-561.98 -8.12,-534.66 2.71,-513.43 2.71,-472.98 2.71,-472.98 2.71,-472.98 2.71,-326.98 2.71,-239.73 272.49,-199.01 426.01,-182.91"/>
<polygon fill="black" stroke="black" points="426.21,-186.41 435.8,-181.9 425.49,-179.44 426.21,-186.41"/>
</g>
<!-- 40&#45;&gt;16 -->
<g id="edge47" class="edge">
<title>40&#45;&gt;16</title>
<path fill="none" stroke="black" d="M2462.15,-670.75C2451.78,-661.67 2438.67,-650.21 2427.23,-640.2"/>
<polygon fill="black" stroke="black" points="2429.85,-637.84 2420.02,-633.89 2425.24,-643.1 2429.85,-637.84"/>
</g>
<!-- 42 -->
<g id="node43" class="node">
<title>42</title>
<ellipse fill="none" stroke="black" cx="3354.71" cy="-615.98" rx="536.03" ry="18"/>
<text text-anchor="middle" x="3354.71" y="-610.93" font-family="Times New Roman,serif" font-size="14.00">Kim Kitsuragi: “总而言之——这是个很有意思的理论，但我不相信是雅各布·欧文做的。我们可以走了吗？”</text>
</g>
<!-- 40&#45;&gt;42 -->
<g id="edge48" class="edge">
<title>40&#45;&gt;42</title>
<path fill="none" stroke="black" d="M2523.53,-675.19C2532.15,-673.17 2541.17,-671.3 2549.71,-669.98 2680.83,-649.67 2825.16,-637.14 2954.95,-629.4"/>
<polygon fill="black" stroke="black" points="2954.97,-632.91 2964.75,-628.83 2954.56,-625.92 2954.97,-632.91"/>
</g>
<!-- 41&#45;&gt;38 -->
<g id="edge49" class="edge">
<title>41&#45;&gt;38</title>
<path fill="none" stroke="black" d="M4391.71,-381.68C4391.71,-374.39 4391.71,-365.71 4391.71,-357.52"/>
<polygon fill="black" stroke="black" points="4395.21,-357.6 4391.71,-347.6 4388.21,-357.6 4395.21,-357.6"/>
</g>
<!-- 52 -->
<g id="node53" class="node">
<title>52</title>
<ellipse fill="none" stroke="black" cx="4053.71" cy="-543.98" rx="395.8" ry="18"/>
<text text-anchor="middle" x="4053.71" y="-538.93" font-family="Times New Roman,serif" font-size="14.00">You: “不，在悲剧发生前，我们必须找到这个雅各布·欧文。”（接受任务。）</text>
</g>
<!-- 42&#45;&gt;52 -->
<g id="edge50" class="edge">
<title>42&#45;&gt;52</title>
<path fill="none" stroke="black" d="M3520.36,-598.39C3629.84,-587.43 3772.97,-573.1 3883.39,-562.04"/>
<polygon fill="black" stroke="black" points="3883.54,-565.54 3893.15,-561.06 3882.85,-558.58 3883.54,-565.54"/>
</g>
<!-- 43 -->
<g id="node44" class="node">
<title>43</title>
<ellipse fill="none" stroke="black" cx="3433.71" cy="-543.98" rx="154.74" ry="18"/>
<text text-anchor="middle" x="3433.71" y="-538.93" font-family="Times New Roman,serif" font-size="14.00">You: “我觉得是库普瑞斯40。”</text>
</g>
<!-- 43&#45;&gt;29 -->
<g id="edge51" class="edge">
<title>43&#45;&gt;29</title>
<path fill="none" stroke="black" d="M3558.18,-532.98C3587.84,-530.64 3619.4,-528.19 3648.71,-525.98 3878.47,-508.7 4148.32,-489.8 4291.16,-479.91"/>
<polygon fill="black" stroke="black" points="4291.24,-483.41 4300.97,-479.23 4290.75,-476.43 4291.24,-483.41"/>
</g>
<!-- 44 -->
<g id="node45" class="node">
<title>44</title>
<ellipse fill="none" stroke="black" cx="1873.71" cy="-327.98" rx="157.3" ry="18"/>
<text text-anchor="middle" x="1873.71" y="-322.93" font-family="Times New Roman,serif" font-size="14.00">You: “看来有人真的很着急。”</text>
</g>
<!-- 44&#45;&gt;37 -->
<g id="edge52" class="edge">
<title>44&#45;&gt;37</title>
<path fill="none" stroke="black" d="M1811.49,-344.89C1792.9,-352.87 1774.59,-364.66 1763.71,-381.98 1751.19,-401.9 1763.88,-426.53 1778.03,-444.82"/>
<polygon fill="black" stroke="black" points="1775.18,-446.86 1784.25,-452.33 1780.57,-442.4 1775.18,-446.86"/>
</g>
<!-- 45 -->
<g id="node46" class="node">
<title>45</title>
<ellipse fill="none" stroke="black" cx="4155.71" cy="-172.99" rx="710.82" ry="28.99"/>
<text text-anchor="middle" x="4155.71" y="-176.19" font-family="Times New Roman,serif" font-size="14.00">You: “他出去跟自己的兄弟喝酒，然后他收到消息，带着即将成为父亲的骄傲冲了出去，钻进自己的库普瑞斯，一路飙到诊所……”</text>
<text text-anchor="middle" x="4155.71" y="-159.69" font-family="Times New Roman,serif" font-size="14.00">“收到消息的时候，他正跟朋友一起在外面喝酒，然后他带着即将成为父亲的骄傲冲了出去，钻进自己的林内亚，一路飙到诊所……”</text>
</g>
<!-- 49 -->
<g id="node50" class="node">
<title>49</title>
<ellipse fill="none" stroke="black" cx="4155.71" cy="-90" rx="407.57" ry="18"/>
<text text-anchor="middle" x="4155.71" y="-84.95" font-family="Times New Roman,serif" font-size="14.00">Kim Kitsuragi: 警督耸耸肩。“我们不是交警。难道不是应该继续调查凶杀案吗？”</text>
</g>
<!-- 45&#45;&gt;49 -->
<g id="edge53" class="edge">
<title>45&#45;&gt;49</title>
<path fill="none" stroke="black" d="M4155.71,-143.66C4155.71,-135.79 4155.71,-127.24 4155.71,-119.36"/>
<polygon fill="black" stroke="black" points="4159.21,-119.61 4155.71,-109.61 4152.21,-119.61 4159.21,-119.61"/>
</g>
<!-- 46 -->
<g id="node47" class="node">
<title>46</title>
<ellipse fill="none" stroke="black" cx="3418.71" cy="-1213.97" rx="242.77" ry="18"/>
<text text-anchor="middle" x="3418.71" y="-1208.92" font-family="Times New Roman,serif" font-size="14.00">Kim Kitsuragi: 他叹口气。“如果你觉得有必要。”</text>
</g>
<!-- 46&#45;&gt;9 -->
<g id="edge54" class="edge">
<title>46&#45;&gt;9</title>
<path fill="none" stroke="black" d="M3418.71,-1195.66C3418.71,-1188.37 3418.71,-1179.69 3418.71,-1171.5"/>
<polygon fill="black" stroke="black" points="3422.21,-1171.58 3418.71,-1161.58 3415.21,-1171.58 3422.21,-1171.58"/>
</g>
<!-- 64 -->
<g id="node65" class="node">
<title>64</title>
<ellipse fill="none" stroke="black" cx="2730.71" cy="-615.98" rx="69.78" ry="18"/>
<text text-anchor="middle" x="2730.71" y="-610.93" font-family="Times New Roman,serif" font-size="14.00">canalsignswitch</text>
</g>
<!-- 47&#45;&gt;64 -->
<g id="edge55" class="edge">
<title>47&#45;&gt;64</title>
<path fill="none" stroke="black" d="M2730.71,-669.68C2730.71,-662.39 2730.71,-653.71 2730.71,-645.52"/>
<polygon fill="black" stroke="black" points="2734.21,-645.6 2730.71,-635.6 2727.21,-645.6 2734.21,-645.6"/>
</g>
<!-- 48 -->
<g id="node49" class="node">
<title>48</title>
<ellipse fill="none" stroke="black" cx="5513.71" cy="-1296.96" rx="216.15" ry="18"/>
<text text-anchor="middle" x="5513.71" y="-1291.91" font-family="Times New Roman,serif" font-size="14.00">You: “是啊，我不知道。可能会是谁呢？”</text>
</g>
<!-- 48&#45;&gt;48 -->
<g id="edge56" class="edge">
<title>48&#45;&gt;48</title>
<path fill="none" stroke="black" d="M5637.18,-1312.16C5696.04,-1313.98 5747.86,-1308.91 5747.86,-1296.96 5747.86,-1285.77 5702.5,-1280.62 5648.46,-1281.49"/>
<polygon fill="black" stroke="black" points="5648.61,-1277.99 5638.69,-1281.72 5648.77,-1284.98 5648.61,-1277.99"/>
</g>
<!-- 49&#45;&gt;6 -->
<g id="edge57" class="edge">
<title>49&#45;&gt;6</title>
<path fill="none" stroke="black" d="M4155.71,-71.7C4155.71,-64.41 4155.71,-55.73 4155.71,-47.54"/>
<polygon fill="black" stroke="black" points="4159.21,-47.62 4155.71,-37.62 4152.21,-47.62 4159.21,-47.62"/>
</g>
<!-- 50&#45;&gt;52 -->
<g id="edge58" class="edge">
<title>50&#45;&gt;52</title>
<path fill="none" stroke="black" d="M4287.47,-597.77C4243.09,-587.75 4186.97,-575.07 4140.84,-564.66"/>
<polygon fill="black" stroke="black" points="4141.64,-561.25 4131.12,-562.46 4140.1,-568.08 4141.64,-561.25"/>
</g>
<!-- 51&#45;&gt;20 -->
<g id="edge60" class="edge">
<title>51&#45;&gt;20</title>
<path fill="none" stroke="black" d="M3878.71,-896.8C3878.71,-886.67 3878.71,-873.58 3878.71,-861.9"/>
<polygon fill="black" stroke="black" points="3882.21,-861.93 3878.71,-851.93 3875.21,-861.93 3882.21,-861.93"/>
</g>
<!-- 59 -->
<g id="node60" class="node">
<title>59</title>
<polygon fill="none" stroke="black" points="4438.71,-849.98 4177.89,-831.98 4438.71,-813.98 4699.52,-831.98 4438.71,-849.98"/>
<text text-anchor="middle" x="4438.71" y="-826.93" font-family="Times New Roman,serif" font-size="14.00">!(Variable[&quot;canal.samaran_vis_calc_vehicle&quot;])</text>
</g>
<!-- 51&#45;&gt;59 -->
<g id="edge59" class="edge">
<title>51&#45;&gt;59</title>
<path fill="none" stroke="black" d="M3990.01,-897.88C4094.18,-882.81 4248.01,-860.56 4345.76,-846.42"/>
<polygon fill="black" stroke="black" points="4346.21,-849.9 4355.61,-845 4345.21,-842.97 4346.21,-849.9"/>
</g>
<!-- 52&#45;&gt;45 -->
<g id="edge61" class="edge">
<title>52&#45;&gt;45</title>
<path fill="none" stroke="black" d="M4053.71,-525.49C4053.71,-498.69 4053.71,-445.85 4053.71,-400.98 4053.71,-400.98 4053.71,-400.98 4053.71,-326.98 4053.71,-286.54 4051.15,-272.21 4072.71,-237.98 4079.46,-227.27 4088.67,-217.65 4098.51,-209.32"/>
<polygon fill="black" stroke="black" points="4100.45,-212.25 4106.09,-203.28 4096.09,-206.77 4100.45,-212.25"/>
</g>
<!-- 53&#45;&gt;6 -->
<g id="edge62" class="edge">
<title>53&#45;&gt;6</title>
<path fill="none" stroke="black" d="M3077.19,-83.2C3253.56,-72.7 3631.23,-50.22 3889.39,-34.85"/>
<polygon fill="black" stroke="black" points="3889.53,-38.35 3899.31,-34.26 3889.12,-31.36 3889.53,-38.35"/>
</g>
<!-- 54 -->
<g id="node55" class="node">
<title>54</title>
<ellipse fill="none" stroke="black" cx="1573.71" cy="-255.98" rx="635.84" ry="18"/>
<text text-anchor="middle" x="1573.71" y="-250.93" font-family="Times New Roman,serif" font-size="14.00">Kim Kitsuragi: “……半夜跃过运河？”他打断了。“如果我是雅各布·欧文，我根本不会在*马丁内斯*开車。这里的路太可怕了。”</text>
</g>
<!-- 54&#45;&gt;28 -->
<g id="edge63" class="edge">
<title>54&#45;&gt;28</title>
<path fill="none" stroke="black" d="M1732.1,-238.1C1859.34,-224.54 2037.52,-205.56 2166.93,-191.76"/>
<polygon fill="black" stroke="black" points="2167.04,-195.27 2176.61,-190.73 2166.3,-188.31 2167.04,-195.27"/>
</g>
<!-- 55&#45;&gt;27 -->
<g id="edge64" class="edge">
<title>55&#45;&gt;27</title>
<path fill="none" stroke="black" d="M5555.95,-896.8C5558.49,-886.49 5561.79,-873.12 5564.72,-861.29"/>
<polygon fill="black" stroke="black" points="5568.11,-862.15 5567.11,-851.6 5561.31,-860.47 5568.11,-862.15"/>
</g>
<!-- 56&#45;&gt;45 -->
<g id="edge65" class="edge">
<title>56&#45;&gt;45</title>
<path fill="none" stroke="black" d="M4341.66,-237.81C4314.55,-228.5 4280.18,-216.71 4248.39,-205.8"/>
<polygon fill="black" stroke="black" points="4249.75,-202.56 4239.15,-202.63 4247.47,-209.18 4249.75,-202.56"/>
</g>
<!-- 57 -->
<g id="node58" class="node">
<title>57</title>
<ellipse fill="none" stroke="black" cx="450.71" cy="-759.98" rx="233.56" ry="18"/>
<text text-anchor="middle" x="450.71" y="-754.93" font-family="Times New Roman,serif" font-size="14.00">Kim Kitsuragi: Variable[&quot;canal.samaran_vis_calc_vehicle&quot;]</text>
</g>
<!-- 57&#45;&gt;57 -->
<g id="edge66" class="edge">
<title>57&#45;&gt;57</title>
<path fill="none" stroke="black" d="M610.68,-773.48C661.8,-773.32 702.26,-768.82 702.26,-759.98 702.26,-751.81 667.73,-747.35 622.16,-746.6"/>
<polygon fill="black" stroke="black" points="622.23,-743.1 612.19,-746.5 622.16,-750.1 622.23,-743.1"/>
</g>
<!-- 58 -->
<g id="node59" class="node">
<title>58</title>
<polygon fill="none" stroke="black" points="450.71,-705.98 202.92,-687.98 450.71,-669.98 698.49,-687.98 450.71,-705.98"/>
<text text-anchor="middle" x="450.71" y="-682.93" font-family="Times New Roman,serif" font-size="14.00">Variable[&quot;canal.samaran_vis_calc_vehicle&quot;]</text>
</g>
<!-- 57&#45;&gt;58 -->
<g id="edge67" class="edge">
<title>57&#45;&gt;58</title>
<path fill="none" stroke="black" d="M450.71,-741.68C450.71,-734.39 450.71,-725.71 450.71,-717.52"/>
<polygon fill="black" stroke="black" points="454.21,-717.6 450.71,-707.6 447.21,-717.6 454.21,-717.6"/>
</g>
<!-- 58&#45;&gt;39 -->
<g id="edge68" class="edge">
<title>58&#45;&gt;39</title>
<path fill="none" stroke="black" d="M450.71,-669.68C450.71,-662.39 450.71,-653.71 450.71,-645.52"/>
<polygon fill="black" stroke="black" points="454.21,-645.6 450.71,-635.6 447.21,-645.6 454.21,-645.6"/>
</g>
<!-- 59&#45;&gt;17 -->
<g id="edge69" class="edge">
<title>59&#45;&gt;17</title>
<path fill="none" stroke="black" d="M4460.76,-815.24C4495.61,-790.38 4563.64,-741.84 4604.44,-712.72"/>
<polygon fill="black" stroke="black" points="4606.36,-715.65 4612.46,-706.99 4602.29,-709.95 4606.36,-715.65"/>
</g>
<!-- 61 -->
<g id="node62" class="node">
<title>61</title>
<ellipse fill="none" stroke="black" cx="582.71" cy="-399.98" rx="236.11" ry="18"/>
<text text-anchor="middle" x="582.71" y="-394.93" font-family="Times New Roman,serif" font-size="14.00">Conceptualization: 是的，这样就好，这样很好。</text>
</g>
<!-- 60&#45;&gt;61 -->
<g id="edge70" class="edge">
<title>60&#45;&gt;61</title>
<path fill="none" stroke="black" d="M533.02,-453.68C540.77,-445.46 550.19,-435.47 558.74,-426.4"/>
<polygon fill="black" stroke="black" points="561.23,-428.87 565.54,-419.19 556.13,-424.06 561.23,-428.87"/>
</g>
<!-- 65 -->
<g id="node66" class="node">
<title>65</title>
<ellipse fill="none" stroke="black" cx="814.71" cy="-327.98" rx="768.91" ry="18"/>
<text text-anchor="middle" x="814.71" y="-322.93" font-family="Times New Roman,serif" font-size="14.00">You: “在他最亲爱的朋友、弗加德哈默尔的赛車手同伴阿尔菲·德拉查斯英年早逝后，雅各布·欧文在赛道上拼命追逐着死亡——但是死亡*避开*了他。”</text>
</g>
<!-- 61&#45;&gt;65 -->
<g id="edge71" class="edge">
<title>61&#45;&gt;65</title>
<path fill="none" stroke="black" d="M638.87,-382.04C671.18,-372.29 712.01,-359.97 746.2,-349.65"/>
<polygon fill="black" stroke="black" points="747.03,-353.06 755.6,-346.82 745.01,-346.36 747.03,-353.06"/>
</g>
<!-- 62 -->
<g id="node63" class="node">
<title>62</title>
<ellipse fill="none" stroke="black" cx="5954.71" cy="-1296.96" rx="189.03" ry="18"/>
<text text-anchor="middle" x="5954.71" y="-1291.91" font-family="Times New Roman,serif" font-size="14.00">Conceptualization: 不，你已经在说了。</text>
</g>
<!-- 62&#45;&gt;62 -->
<g id="edge72" class="edge">
<title>62&#45;&gt;62</title>
<path fill="none" stroke="black" d="M6063.08,-1312.13C6115.45,-1314.03 6161.73,-1308.97 6161.73,-1296.96 6161.73,-1285.81 6121.9,-1280.65 6074.32,-1281.48"/>
<polygon fill="black" stroke="black" points="6074.5,-1277.98 6064.6,-1281.74 6074.69,-1284.97 6074.5,-1277.98"/>
</g>
<!-- 63&#45;&gt;13 -->
<g id="edge73" class="edge">
<title>63&#45;&gt;13</title>
<path fill="none" stroke="black" d="M3169.71,-453.68C3169.71,-446.39 3169.71,-437.71 3169.71,-429.52"/>
<polygon fill="black" stroke="black" points="3173.21,-429.6 3169.71,-419.6 3166.21,-429.6 3173.21,-429.6"/>
</g>
<!-- 64&#45;&gt;1 -->
<g id="edge75" class="edge">
<title>64&#45;&gt;1</title>
<path fill="none" stroke="black" d="M2781.56,-603.25C2790.89,-601.32 2800.57,-599.47 2809.71,-597.98 2951.83,-574.81 2992.77,-599.84 3131.71,-561.98 3133.44,-561.51 3135.21,-560.97 3136.97,-560.37"/>
<polygon fill="black" stroke="black" points="3138.16,-563.66 3146.21,-556.78 3135.62,-557.14 3138.16,-563.66"/>
</g>
<!-- 64&#45;&gt;2 -->
<g id="edge76" class="edge">
<title>64&#45;&gt;2</title>
<path fill="none" stroke="black" d="M2680.77,-602.97C2671.17,-601.03 2661.16,-599.24 2651.71,-597.98 2346.41,-557.46 2266.56,-588.18 1959.71,-561.98 1947.69,-560.96 1935.13,-559.71 1922.65,-558.37"/>
<polygon fill="black" stroke="black" points="1923.05,-554.9 1912.73,-557.28 1922.29,-561.85 1923.05,-554.9"/>
</g>
<!-- 64&#45;&gt;19 -->
<g id="edge74" class="edge">
<title>64&#45;&gt;19</title>
<path fill="none" stroke="black" d="M2761.11,-599.45C2779.59,-590.01 2803.49,-577.79 2823.97,-567.33"/>
<polygon fill="black" stroke="black" points="2825.36,-570.55 2832.67,-562.88 2822.18,-564.32 2825.36,-570.55"/>
</g>
<!-- 64&#45;&gt;43 -->
<g id="edge77" class="edge">
<title>64&#45;&gt;43</title>
<path fill="none" stroke="black" d="M2781.1,-603.14C2790.57,-601.2 2800.41,-599.37 2809.71,-597.98 2856.44,-591 3127.46,-569.06 3296.6,-555.7"/>
<polygon fill="black" stroke="black" points="3296.64,-559.2 3306.33,-554.93 3296.08,-552.23 3296.64,-559.2"/>
</g>
<!-- 65&#45;&gt;54 -->
<g id="edge78" class="edge">
<title>65&#45;&gt;54</title>
<path fill="none" stroke="black" d="M998.44,-310.04C1114.26,-299.36 1263.57,-285.59 1381.05,-274.75"/>
<polygon fill="black" stroke="black" points="1381.18,-278.25 1390.81,-273.85 1380.53,-271.28 1381.18,-278.25"/>
</g>
<!-- 66&#45;&gt;44 -->
<g id="edge79" class="edge">
<title>66&#45;&gt;44</title>
<path fill="none" stroke="black" d="M1895.54,-381.68C1892.41,-374.14 1888.67,-365.1 1885.17,-356.66"/>
<polygon fill="black" stroke="black" points="1888.43,-355.38 1881.37,-347.49 1881.96,-358.06 1888.43,-355.38"/>
</g>
<!-- 67 -->
<g id="node68" class="node">
<title>67</title>
<ellipse fill="none" stroke="black" cx="3418.71" cy="-1296.96" rx="348.71" ry="18"/>
<text text-anchor="middle" x="3418.71" y="-1291.91" font-family="Times New Roman,serif" font-size="14.00">You: “只有可能是……”（戏剧性的暂停一下。）“……雅各布·欧文。”</text>
</g>
<!-- 67&#45;&gt;46 -->
<g id="edge80" class="edge">
<title>67&#45;&gt;46</title>
<path fill="none" stroke="black" d="M3418.71,-1278.78C3418.71,-1268.65 3418.71,-1255.56 3418.71,-1243.88"/>
<polygon fill="black" stroke="black" points="3422.21,-1243.91 3418.71,-1233.91 3415.21,-1243.91 3422.21,-1243.91"/>
</g>
</g>
</svg>
