<?xml version="1.0" encoding="UTF-8" standalone="no"?>
<!DOCTYPE svg PUBLIC "-//W3C//DTD SVG 1.1//EN"
 "http://www.w3.org/Graphics/SVG/1.1/DTD/svg11.dtd">
<!-- Generated by graphviz version 12.2.1 (20241206.2353)
 -->
<!-- Title: G Pages: 1 -->
<svg width="4661pt" height="332pt"
 viewBox="0.00 0.00 4660.86 332.00" xmlns="http://www.w3.org/2000/svg" xmlns:xlink="http://www.w3.org/1999/xlink">
<g id="graph0" class="graph" transform="scale(1 1) rotate(0) translate(4 328)">
<title>G</title>
<polygon fill="white" stroke="none" points="-4,4 -4,-328 4656.86,-328 4656.86,4 -4,4"/>
<!-- 0 -->
<g id="node1" class="node">
<title>0</title>
<ellipse fill="none" stroke="black" cx="41.87" cy="-306" rx="39.07" ry="18"/>
<text text-anchor="middle" x="41.87" y="-300.95" font-family="Times New Roman,serif" font-size="14.00">START</text>
</g>
<!-- 1 -->
<g id="node2" class="node">
<title>1</title>
<ellipse fill="none" stroke="black" cx="41.87" cy="-234" rx="29.86" ry="18"/>
<text text-anchor="middle" x="41.87" y="-228.95" font-family="Times New Roman,serif" font-size="14.00">input</text>
</g>
<!-- 0&#45;&gt;1 -->
<g id="edge1" class="edge">
<title>0&#45;&gt;1</title>
<path fill="none" stroke="black" d="M41.87,-287.7C41.87,-280.41 41.87,-271.73 41.87,-263.54"/>
<polygon fill="black" stroke="black" points="45.37,-263.62 41.87,-253.62 38.37,-263.62 45.37,-263.62"/>
</g>
<!-- 2 -->
<g id="node3" class="node">
<title>2</title>
<ellipse fill="none" stroke="black" cx="296.87" cy="-234" rx="207.45" ry="18"/>
<text text-anchor="middle" x="296.87" y="-228.95" font-family="Times New Roman,serif" font-size="14.00">Kim Kitsuragi: Variable[&quot;tc.turn_off_tutorial_node&quot;]</text>
</g>
<!-- 3 -->
<g id="node4" class="node">
<title>3</title>
<polygon fill="none" stroke="black" points="210.87,-180 0,-162 210.87,-144 421.74,-162 210.87,-180"/>
<text text-anchor="middle" x="210.87" y="-156.95" font-family="Times New Roman,serif" font-size="14.00">Variable[&quot;tc.turn_off_tutorial_node&quot;]</text>
</g>
<!-- 2&#45;&gt;3 -->
<g id="edge2" class="edge">
<title>2&#45;&gt;3</title>
<path fill="none" stroke="black" d="M275.61,-215.7C264.51,-206.66 250.79,-195.5 238.84,-185.77"/>
<polygon fill="black" stroke="black" points="241.26,-183.22 231.3,-179.63 236.84,-188.65 241.26,-183.22"/>
</g>
<!-- 4 -->
<g id="node5" class="node">
<title>4</title>
<polygon fill="none" stroke="black" points="663.87,-180 439.97,-162 663.87,-144 887.77,-162 663.87,-180"/>
<text text-anchor="middle" x="663.87" y="-156.95" font-family="Times New Roman,serif" font-size="14.00">!(Variable[&quot;tc.turn_off_tutorial_node&quot;])</text>
</g>
<!-- 2&#45;&gt;4 -->
<g id="edge3" class="edge">
<title>2&#45;&gt;4</title>
<path fill="none" stroke="black" d="M380.15,-217.12C442.76,-205.17 527.83,-188.95 588.45,-177.38"/>
<polygon fill="black" stroke="black" points="588.82,-180.88 597.99,-175.57 587.51,-174 588.82,-180.88"/>
</g>
<!-- 14 -->
<g id="node15" class="node">
<title>14</title>
<ellipse fill="none" stroke="black" cx="685.87" cy="-90" rx="180.84" ry="18"/>
<text text-anchor="middle" x="685.87" y="-84.95" font-family="Times New Roman,serif" font-size="14.00">You: “说得好。没错，是很明显。”</text>
</g>
<!-- 4&#45;&gt;14 -->
<g id="edge4" class="edge">
<title>4&#45;&gt;14</title>
<path fill="none" stroke="black" d="M669.19,-144.05C671.54,-136.6 674.35,-127.64 677,-119.22"/>
<polygon fill="black" stroke="black" points="680.33,-120.31 679.99,-109.72 673.65,-118.21 680.33,-120.31"/>
</g>
<!-- 5 -->
<g id="node6" class="node">
<title>5</title>
<ellipse fill="none" stroke="black" cx="2239.87" cy="-90" rx="807.8" ry="18"/>
<text text-anchor="middle" x="2239.87" y="-84.95" font-family="Times New Roman,serif" font-size="14.00">Kim Kitsuragi: 警督皱皱眉。“我很抱歉，宇宙的基本律法好像不太赞同你的意见，警探。不过事实没有改变，这里太黑了，如果没有手电筒，什么也看不见。”</text>
</g>
<!-- 13 -->
<g id="node14" class="node">
<title>13</title>
<ellipse fill="none" stroke="black" cx="2239.87" cy="-18" rx="564.69" ry="18"/>
<text text-anchor="middle" x="2239.87" y="-12.95" font-family="Times New Roman,serif" font-size="14.00">Tutorial Agent: 有些地方必须使用手电筒才可进入。你已经拿到手电筒了，可以在道具栏中装备它并继续探索。</text>
</g>
<!-- 5&#45;&gt;13 -->
<g id="edge5" class="edge">
<title>5&#45;&gt;13</title>
<path fill="none" stroke="black" d="M2239.87,-71.7C2239.87,-64.41 2239.87,-55.73 2239.87,-47.54"/>
<polygon fill="black" stroke="black" points="2243.37,-47.62 2239.87,-37.62 2236.37,-47.62 2243.37,-47.62"/>
</g>
<!-- 6 -->
<g id="node7" class="node">
<title>6</title>
<ellipse fill="none" stroke="black" cx="3373.87" cy="-234" rx="159.85" ry="18"/>
<text text-anchor="middle" x="3373.87" y="-228.95" font-family="Times New Roman,serif" font-size="14.00">Kim Kitsuragi: CheckItem(&quot;flashlight&quot;)</text>
</g>
<!-- 8 -->
<g id="node9" class="node">
<title>8</title>
<polygon fill="none" stroke="black" points="3330.87,-180 3175.01,-162 3330.87,-144 3486.73,-162 3330.87,-180"/>
<text text-anchor="middle" x="3330.87" y="-156.95" font-family="Times New Roman,serif" font-size="14.00">!(CheckItem(&quot;flashlight&quot;))</text>
</g>
<!-- 6&#45;&gt;8 -->
<g id="edge6" class="edge">
<title>6&#45;&gt;8</title>
<path fill="none" stroke="black" d="M3363.24,-215.7C3358.25,-207.58 3352.21,-197.74 3346.7,-188.76"/>
<polygon fill="black" stroke="black" points="3349.79,-187.12 3341.58,-180.43 3343.83,-190.79 3349.79,-187.12"/>
</g>
<!-- 9 -->
<g id="node10" class="node">
<title>9</title>
<ellipse fill="none" stroke="black" cx="3794.87" cy="-162" rx="289.85" ry="18"/>
<text text-anchor="middle" x="3794.87" y="-156.95" font-family="Times New Roman,serif" font-size="14.00">Kim Kitsuragi: “好吧，现在让我们开始吧，”警督点点头。</text>
</g>
<!-- 6&#45;&gt;9 -->
<g id="edge7" class="edge">
<title>6&#45;&gt;9</title>
<path fill="none" stroke="black" d="M3461.1,-218.5C3526.14,-207.68 3615.43,-192.84 3685.28,-181.22"/>
<polygon fill="black" stroke="black" points="3685.54,-184.73 3694.83,-179.63 3684.39,-177.82 3685.54,-184.73"/>
</g>
<!-- 7 -->
<g id="node8" class="node">
<title>7</title>
<polygon fill="none" stroke="black" points="1583.87,-180 1441.04,-162 1583.87,-144 1726.7,-162 1583.87,-180"/>
<text text-anchor="middle" x="1583.87" y="-156.95" font-family="Times New Roman,serif" font-size="14.00">CheckItem(&quot;flashlight&quot;)</text>
</g>
<!-- 16 -->
<g id="node17" class="node">
<title>16</title>
<ellipse fill="none" stroke="black" cx="1233.87" cy="-90" rx="133.75" ry="18"/>
<text text-anchor="middle" x="1233.87" y="-84.95" font-family="Times New Roman,serif" font-size="14.00">You: “这样就合理多了。”</text>
</g>
<!-- 7&#45;&gt;16 -->
<g id="edge8" class="edge">
<title>7&#45;&gt;16</title>
<path fill="none" stroke="black" d="M1530.33,-150.29C1473.76,-138.98 1383.78,-120.98 1317.77,-107.78"/>
<polygon fill="black" stroke="black" points="1318.54,-104.37 1308.05,-105.84 1317.17,-111.23 1318.54,-104.37"/>
</g>
<!-- 26 -->
<g id="node27" class="node">
<title>26</title>
<ellipse fill="none" stroke="black" cx="3330.87" cy="-90" rx="27" ry="18"/>
<text text-anchor="middle" x="3330.87" y="-84.95" font-family="Times New Roman,serif" font-size="14.00">26</text>
</g>
<!-- 8&#45;&gt;26 -->
<g id="edge9" class="edge">
<title>8&#45;&gt;26</title>
<path fill="none" stroke="black" d="M3330.87,-143.7C3330.87,-136.41 3330.87,-127.73 3330.87,-119.54"/>
<polygon fill="black" stroke="black" points="3334.37,-119.62 3330.87,-109.62 3327.37,-119.62 3334.37,-119.62"/>
</g>
<!-- 21 -->
<g id="node22" class="node">
<title>21</title>
<polygon fill="none" stroke="black" points="4075.87,-108 3865,-90 4075.87,-72 4286.74,-90 4075.87,-108"/>
<text text-anchor="middle" x="4075.87" y="-84.95" font-family="Times New Roman,serif" font-size="14.00">Variable[&quot;tc.turn_off_tutorial_node&quot;]</text>
</g>
<!-- 9&#45;&gt;21 -->
<g id="edge10" class="edge">
<title>9&#45;&gt;21</title>
<path fill="none" stroke="black" d="M3862.89,-144.05C3908.56,-132.68 3968.3,-117.8 4012.88,-106.69"/>
<polygon fill="black" stroke="black" points="4013.55,-110.13 4022.4,-104.32 4011.86,-103.34 4013.55,-110.13"/>
</g>
<!-- 10 -->
<g id="node11" class="node">
<title>10</title>
<ellipse fill="none" stroke="black" cx="915.87" cy="-18" rx="631.23" ry="18"/>
<text text-anchor="middle" x="915.87" y="-12.95" font-family="Times New Roman,serif" font-size="14.00">Kim Kitsuragi: “我的锐影工具箱里应该有一只。我们应该先回去取，然后再继续前进。这样在黑暗里跌跌撞撞的毫无意义。”</text>
</g>
<!-- 10&#45;&gt;2 -->
<g id="edge11" class="edge">
<title>10&#45;&gt;2</title>
<path fill="none" stroke="black" d="M920.01,-36.32C926.8,-69.49 935.94,-142.06 896.87,-180 892.91,-183.85 632.69,-205.71 456.28,-220.13"/>
<polygon fill="black" stroke="black" points="456.24,-216.62 446.56,-220.92 456.81,-223.6 456.24,-216.62"/>
</g>
<!-- 11 -->
<g id="node12" class="node">
<title>11</title>
<ellipse fill="none" stroke="black" cx="2587.87" cy="-234" rx="608.2" ry="18"/>
<text text-anchor="middle" x="2587.87" y="-228.95" font-family="Times New Roman,serif" font-size="14.00">Kim Kitsuragi: “是的，”警督回答到。“你甚至可以称之为宇宙的一种*特征*，你需要把工具*握在手里*才能*使用*它们。”</text>
</g>
<!-- 17 -->
<g id="node18" class="node">
<title>17</title>
<ellipse fill="none" stroke="black" cx="2239.87" cy="-162" rx="145.52" ry="18"/>
<text text-anchor="middle" x="2239.87" y="-156.95" font-family="Times New Roman,serif" font-size="14.00">You: “这样一点都说不通。”</text>
</g>
<!-- 11&#45;&gt;17 -->
<g id="edge12" class="edge">
<title>11&#45;&gt;17</title>
<path fill="none" stroke="black" d="M2501.85,-215.7C2448.01,-204.87 2378.93,-190.97 2325.22,-180.17"/>
<polygon fill="black" stroke="black" points="2325.98,-176.75 2315.49,-178.21 2324.6,-183.61 2325.98,-176.75"/>
</g>
<!-- 18 -->
<g id="node19" class="node">
<title>18</title>
<ellipse fill="none" stroke="black" cx="2672.87" cy="-162" rx="269.38" ry="18"/>
<text text-anchor="middle" x="2672.87" y="-156.95" font-family="Times New Roman,serif" font-size="14.00">You: “明白了，金，没必要反复说个没完。”[离开。]</text>
</g>
<!-- 11&#45;&gt;18 -->
<g id="edge13" class="edge">
<title>11&#45;&gt;18</title>
<path fill="none" stroke="black" d="M2608.88,-215.7C2619.2,-207.2 2631.81,-196.81 2643.1,-187.51"/>
<polygon fill="black" stroke="black" points="2645.14,-190.37 2650.64,-181.31 2640.69,-184.96 2645.14,-190.37"/>
</g>
<!-- 12 -->
<g id="node13" class="node">
<title>12</title>
<ellipse fill="none" stroke="black" cx="4356.87" cy="-162" rx="254.54" ry="18"/>
<text text-anchor="middle" x="4356.87" y="-156.95" font-family="Times New Roman,serif" font-size="14.00">Kim Kitsuragi: “所以赶紧吧。我们还有工作要做。”</text>
</g>
<!-- 12&#45;&gt;21 -->
<g id="edge14" class="edge">
<title>12&#45;&gt;21</title>
<path fill="none" stroke="black" d="M4289.56,-144.23C4243.91,-132.86 4183.95,-117.92 4139.17,-106.77"/>
<polygon fill="black" stroke="black" points="4140.15,-103.41 4129.6,-104.38 4138.46,-110.2 4140.15,-103.41"/>
</g>
<!-- 14&#45;&gt;10 -->
<g id="edge15" class="edge">
<title>14&#45;&gt;10</title>
<path fill="none" stroke="black" d="M740.38,-72.41C772.62,-62.6 813.73,-50.08 848.06,-39.64"/>
<polygon fill="black" stroke="black" points="848.95,-43.02 857.5,-36.76 846.91,-36.33 848.95,-43.02"/>
</g>
<!-- 15 -->
<g id="node16" class="node">
<title>15</title>
<ellipse fill="none" stroke="black" cx="1407.87" cy="-306" rx="369.7" ry="18"/>
<text text-anchor="middle" x="1407.87" y="-300.95" font-family="Times New Roman,serif" font-size="14.00">Kim Kitsuragi: “而且，如果你把手电筒*握在手里*的话，可能会好很多。”</text>
</g>
<!-- 15&#45;&gt;15 -->
<g id="edge18" class="edge">
<title>15&#45;&gt;15</title>
<path fill="none" stroke="black" d="M1661.43,-319.47C1736.86,-319.07 1795.56,-314.58 1795.56,-306 1795.56,-297.86 1742.67,-293.4 1672.78,-292.62"/>
<polygon fill="black" stroke="black" points="1672.97,-289.12 1662.94,-292.54 1672.91,-296.12 1672.97,-289.12"/>
</g>
<!-- 19 -->
<g id="node20" class="node">
<title>19</title>
<ellipse fill="none" stroke="black" cx="1086.87" cy="-234" rx="564.69" ry="18"/>
<text text-anchor="middle" x="1086.87" y="-228.95" font-family="Times New Roman,serif" font-size="14.00">Tutorial Agent: 有些地方必须使用手电筒才可进入。你已经拿到手电筒了，可以在道具栏中装备它并继续探索。</text>
</g>
<!-- 15&#45;&gt;19 -->
<g id="edge17" class="edge">
<title>15&#45;&gt;19</title>
<path fill="none" stroke="black" d="M1329.75,-287.97C1283.7,-277.92 1225.23,-265.17 1177.2,-254.7"/>
<polygon fill="black" stroke="black" points="1178.17,-251.33 1167.65,-252.62 1176.68,-258.17 1178.17,-251.33"/>
</g>
<!-- 24 -->
<g id="node25" class="node">
<title>24</title>
<ellipse fill="none" stroke="black" cx="1729.87" cy="-234" rx="60.56" ry="18"/>
<text text-anchor="middle" x="1729.87" y="-228.95" font-family="Times New Roman,serif" font-size="14.00">kiminthedark</text>
</g>
<!-- 15&#45;&gt;24 -->
<g id="edge16" class="edge">
<title>15&#45;&gt;24</title>
<path fill="none" stroke="black" d="M1492.65,-288.01C1541.86,-277.96 1604.97,-264.74 1660.87,-252 1665.08,-251.04 1669.43,-250.03 1673.8,-248.99"/>
<polygon fill="black" stroke="black" points="1674.26,-252.48 1683.17,-246.74 1672.63,-245.67 1674.26,-252.48"/>
</g>
<!-- 16&#45;&gt;10 -->
<g id="edge19" class="edge">
<title>16&#45;&gt;10</title>
<path fill="none" stroke="black" d="M1166.04,-74.07C1119.22,-63.76 1056.47,-49.95 1005.53,-38.74"/>
<polygon fill="black" stroke="black" points="1006.52,-35.37 996,-36.64 1005.01,-42.21 1006.52,-35.37"/>
</g>
<!-- 17&#45;&gt;5 -->
<g id="edge20" class="edge">
<title>17&#45;&gt;5</title>
<path fill="none" stroke="black" d="M2239.87,-143.7C2239.87,-136.41 2239.87,-127.73 2239.87,-119.54"/>
<polygon fill="black" stroke="black" points="2243.37,-119.62 2239.87,-109.62 2236.37,-119.62 2243.37,-119.62"/>
</g>
<!-- 20 -->
<g id="node21" class="node">
<title>20</title>
<ellipse fill="none" stroke="black" cx="3818.87" cy="-306" rx="207.45" ry="18"/>
<text text-anchor="middle" x="3818.87" y="-300.95" font-family="Times New Roman,serif" font-size="14.00">Kim Kitsuragi: Variable[&quot;tc.turn_off_tutorial_node&quot;]</text>
</g>
<!-- 22 -->
<g id="node23" class="node">
<title>22</title>
<polygon fill="none" stroke="black" points="3818.87,-252 3594.97,-234 3818.87,-216 4042.77,-234 3818.87,-252"/>
<text text-anchor="middle" x="3818.87" y="-228.95" font-family="Times New Roman,serif" font-size="14.00">!(Variable[&quot;tc.turn_off_tutorial_node&quot;])</text>
</g>
<!-- 20&#45;&gt;22 -->
<g id="edge21" class="edge">
<title>20&#45;&gt;22</title>
<path fill="none" stroke="black" d="M3812.95,-287.7C3812.18,-280.21 3811.94,-271.26 3812.24,-262.88"/>
<polygon fill="black" stroke="black" points="3815.72,-263.35 3812.92,-253.13 3808.74,-262.87 3815.72,-263.35"/>
</g>
<!-- 23 -->
<g id="node24" class="node">
<title>23</title>
<ellipse fill="none" stroke="black" cx="4356.87" cy="-234" rx="296" ry="18"/>
<text text-anchor="middle" x="4356.87" y="-228.95" font-family="Times New Roman,serif" font-size="14.00">You: “把手电筒握在*你手里*？”（不解地盯着你的手。）</text>
</g>
<!-- 20&#45;&gt;23 -->
<g id="edge22" class="edge">
<title>20&#45;&gt;23</title>
<path fill="none" stroke="black" d="M3930.67,-290.45C4015.99,-279.35 4133.83,-264.02 4223.97,-252.29"/>
<polygon fill="black" stroke="black" points="4224.42,-255.76 4233.88,-251 4223.51,-248.82 4224.42,-255.76"/>
</g>
<!-- 22&#45;&gt;20 -->
<g id="edge23" class="edge">
<title>22&#45;&gt;20</title>
<path fill="none" stroke="black" d="M3824.71,-251.62C3825.52,-259.02 3825.79,-267.94 3825.52,-276.35"/>
<polygon fill="black" stroke="black" points="3822.04,-275.98 3824.88,-286.19 3829.02,-276.43 3822.04,-275.98"/>
</g>
<!-- 23&#45;&gt;12 -->
<g id="edge24" class="edge">
<title>23&#45;&gt;12</title>
<path fill="none" stroke="black" d="M4356.87,-215.7C4356.87,-208.41 4356.87,-199.73 4356.87,-191.54"/>
<polygon fill="black" stroke="black" points="4360.37,-191.62 4356.87,-181.62 4353.37,-191.62 4360.37,-191.62"/>
</g>
<!-- 24&#45;&gt;7 -->
<g id="edge25" class="edge">
<title>24&#45;&gt;7</title>
<path fill="none" stroke="black" d="M1698.91,-218.15C1676.59,-207.46 1646.33,-192.95 1622.45,-181.5"/>
<polygon fill="black" stroke="black" points="1624.21,-178.46 1613.68,-177.29 1621.18,-184.77 1624.21,-178.46"/>
</g>
<!-- 25 -->
<g id="node26" class="node">
<title>25</title>
<ellipse fill="none" stroke="black" cx="2587.87" cy="-306" rx="238.67" ry="18"/>
<text text-anchor="middle" x="2587.87" y="-300.95" font-family="Times New Roman,serif" font-size="14.00">Kim Kitsuragi: “要是有个手电筒就容易多了……”</text>
</g>
<!-- 25&#45;&gt;11 -->
<g id="edge26" class="edge">
<title>25&#45;&gt;11</title>
<path fill="none" stroke="black" d="M2587.87,-287.7C2587.87,-280.41 2587.87,-271.73 2587.87,-263.54"/>
<polygon fill="black" stroke="black" points="2591.37,-263.62 2587.87,-253.62 2584.37,-263.62 2591.37,-263.62"/>
</g>
</g>
</svg>
