<?xml version="1.0" encoding="UTF-8" standalone="no"?>
<!DOCTYPE svg PUBLIC "-//W3C//DTD SVG 1.1//EN"
 "http://www.w3.org/Graphics/SVG/1.1/DTD/svg11.dtd">
<!-- Generated by graphviz version 12.2.1 (20241206.2353)
 -->
<!-- Title: G Pages: 1 -->
<svg width="9446pt" height="548pt"
 viewBox="0.00 0.00 9445.77 548.00" xmlns="http://www.w3.org/2000/svg" xmlns:xlink="http://www.w3.org/1999/xlink">
<g id="graph0" class="graph" transform="scale(1 1) rotate(0) translate(4 544)">
<title>G</title>
<polygon fill="white" stroke="none" points="-4,4 -4,-544 9441.77,-544 9441.77,4 -4,4"/>
<!-- 0 -->
<g id="node1" class="node">
<title>0</title>
<ellipse fill="none" stroke="black" cx="2507.18" cy="-522" rx="39.07" ry="18"/>
<text text-anchor="middle" x="2507.18" y="-516.95" font-family="Times New Roman,serif" font-size="14.00">START</text>
</g>
<!-- 0&#45;&gt;0 -->
<g id="edge1" class="edge">
<title>0&#45;&gt;0</title>
<path fill="none" stroke="black" d="M2535.36,-534.94C2550.48,-537.14 2564.24,-532.83 2564.24,-522 2564.24,-513.96 2556.66,-509.52 2546.57,-508.65"/>
<polygon fill="black" stroke="black" points="2546.74,-505.15 2536.88,-509 2547,-512.14 2546.74,-505.15"/>
</g>
<!-- 1 -->
<g id="node2" class="node">
<title>1</title>
<ellipse fill="none" stroke="black" cx="2612.18" cy="-522" rx="29.86" ry="18"/>
<text text-anchor="middle" x="2612.18" y="-516.95" font-family="Times New Roman,serif" font-size="14.00">input</text>
</g>
<!-- 19 -->
<g id="node20" class="node">
<title>19</title>
<ellipse fill="none" stroke="black" cx="3074.18" cy="-450" rx="169.07" ry="18"/>
<text text-anchor="middle" x="3074.18" y="-444.95" font-family="Times New Roman,serif" font-size="14.00">You: “那我们就去拿手电筒吧。”</text>
</g>
<!-- 1&#45;&gt;19 -->
<g id="edge2" class="edge">
<title>1&#45;&gt;19</title>
<path fill="none" stroke="black" d="M2641.08,-516.62C2705.28,-506.89 2862.48,-483.08 2968.75,-466.97"/>
<polygon fill="black" stroke="black" points="2968.97,-470.48 2978.34,-465.52 2967.92,-463.56 2968.97,-470.48"/>
</g>
<!-- 2 -->
<g id="node3" class="node">
<title>2</title>
<ellipse fill="none" stroke="black" cx="7643.18" cy="-522" rx="101" ry="18"/>
<text text-anchor="middle" x="7643.18" y="-516.95" font-family="Times New Roman,serif" font-size="14.00">CheckItem(&quot;flashlight&quot;)</text>
</g>
<!-- 2&#45;&gt;2 -->
<g id="edge3" class="edge">
<title>2&#45;&gt;2</title>
<path fill="none" stroke="black" d="M7712.85,-535.45C7739.78,-536.04 7762.17,-531.56 7762.17,-522 7762.17,-513.82 7745.79,-509.36 7724.19,-508.61"/>
<polygon fill="black" stroke="black" points="7724.38,-505.11 7714.36,-508.56 7724.34,-512.11 7724.38,-505.11"/>
</g>
<!-- 3 -->
<g id="node4" class="node">
<title>3</title>
<polygon fill="none" stroke="black" points="7643.18,-468 7500.34,-450 7643.18,-432 7786.01,-450 7643.18,-468"/>
<text text-anchor="middle" x="7643.18" y="-444.95" font-family="Times New Roman,serif" font-size="14.00">CheckItem(&quot;flashlight&quot;)</text>
</g>
<!-- 2&#45;&gt;3 -->
<g id="edge4" class="edge">
<title>2&#45;&gt;3</title>
<path fill="none" stroke="black" d="M7643.18,-503.7C7643.18,-496.41 7643.18,-487.73 7643.18,-479.54"/>
<polygon fill="black" stroke="black" points="7646.68,-479.62 7643.18,-469.62 7639.68,-479.62 7646.68,-479.62"/>
</g>
<!-- 5 -->
<g id="node6" class="node">
<title>5</title>
<ellipse fill="none" stroke="black" cx="7643.18" cy="-378" rx="157.3" ry="18"/>
<text text-anchor="middle" x="7643.18" y="-372.95" font-family="Times New Roman,serif" font-size="14.00">You: “在我看来像是健身房。”</text>
</g>
<!-- 3&#45;&gt;5 -->
<g id="edge5" class="edge">
<title>3&#45;&gt;5</title>
<path fill="none" stroke="black" d="M7643.18,-431.7C7643.18,-424.41 7643.18,-415.73 7643.18,-407.54"/>
<polygon fill="black" stroke="black" points="7646.68,-407.62 7643.18,-397.62 7639.68,-407.62 7646.68,-407.62"/>
</g>
<!-- 4 -->
<g id="node5" class="node">
<title>4</title>
<polygon fill="none" stroke="black" points="3575.18,-180 3419.32,-162 3575.18,-144 3731.03,-162 3575.18,-180"/>
<text text-anchor="middle" x="3575.18" y="-156.95" font-family="Times New Roman,serif" font-size="14.00">!(CheckItem(&quot;flashlight&quot;))</text>
</g>
<!-- 22 -->
<g id="node23" class="node">
<title>22</title>
<ellipse fill="none" stroke="black" cx="3495.18" cy="-90" rx="411.66" ry="18"/>
<text text-anchor="middle" x="3495.18" y="-84.95" font-family="Times New Roman,serif" font-size="14.00">Kim Kitsuragi: “我觉得你说的对，”他说道。“不过看起来已经很久没人来过了……”</text>
</g>
<!-- 4&#45;&gt;22 -->
<g id="edge6" class="edge">
<title>4&#45;&gt;22</title>
<path fill="none" stroke="black" d="M3557.82,-145.81C3547.78,-137.03 3534.91,-125.77 3523.45,-115.74"/>
<polygon fill="black" stroke="black" points="3526.01,-113.33 3516.17,-109.37 3521.4,-118.59 3526.01,-113.33"/>
</g>
<!-- 29 -->
<g id="node30" class="node">
<title>29</title>
<ellipse fill="none" stroke="black" cx="7643.18" cy="-306" rx="334.89" ry="18"/>
<text text-anchor="middle" x="7643.18" y="-300.95" font-family="Times New Roman,serif" font-size="14.00">You: “不知道，金……但我的脑袋很疼……我的脑袋伤的*很重*。”</text>
</g>
<!-- 5&#45;&gt;29 -->
<g id="edge7" class="edge">
<title>5&#45;&gt;29</title>
<path fill="none" stroke="black" d="M7643.18,-359.7C7643.18,-352.41 7643.18,-343.73 7643.18,-335.54"/>
<polygon fill="black" stroke="black" points="7646.68,-335.62 7643.18,-325.62 7639.68,-335.62 7646.68,-335.62"/>
</g>
<!-- 6 -->
<g id="node7" class="node">
<title>6</title>
<ellipse fill="none" stroke="black" cx="8073.18" cy="-378" rx="254.54" ry="18"/>
<text text-anchor="middle" x="8073.18" y="-372.95" font-family="Times New Roman,serif" font-size="14.00">Kim Kitsuragi: “现在，我们该继续前进了，走吧？”</text>
</g>
<!-- 7 -->
<g id="node8" class="node">
<title>7</title>
<ellipse fill="none" stroke="black" cx="8501.18" cy="-306" rx="452.1" ry="18"/>
<text text-anchor="middle" x="8501.18" y="-300.95" font-family="Times New Roman,serif" font-size="14.00">Kim Kitsuragi: “没必要寻找什么*超自然*解释，用老一套的理由就够了。我们该走了吧？”</text>
</g>
<!-- 8 -->
<g id="node9" class="node">
<title>8</title>
<ellipse fill="none" stroke="black" cx="6111.18" cy="-18" rx="534.5" ry="18"/>
<text text-anchor="middle" x="6111.18" y="-12.95" font-family="Times New Roman,serif" font-size="14.00">Kim Kitsuragi: “没必要寻找什么*超自然*解释，用老一套的理由就够了。我们先去拿手电筒吧，怎么样？”</text>
</g>
<!-- 9 -->
<g id="node10" class="node">
<title>9</title>
<ellipse fill="none" stroke="black" cx="542.18" cy="-234" rx="55.96" ry="18"/>
<text text-anchor="middle" x="542.18" y="-228.95" font-family="Times New Roman,serif" font-size="14.00">IsDaytime()</text>
</g>
<!-- 9&#45;&gt;9 -->
<g id="edge8" class="edge">
<title>9&#45;&gt;9</title>
<path fill="none" stroke="black" d="M581.36,-247.2C599.88,-248.74 616.13,-244.34 616.13,-234 616.13,-225.84 606.01,-221.38 592.65,-220.62"/>
<polygon fill="black" stroke="black" points="592.82,-217.12 582.88,-220.77 592.93,-224.11 592.82,-217.12"/>
</g>
<!-- 10 -->
<g id="node11" class="node">
<title>10</title>
<polygon fill="none" stroke="black" points="542.18,-180 463.04,-162 542.18,-144 621.31,-162 542.18,-180"/>
<text text-anchor="middle" x="542.18" y="-156.95" font-family="Times New Roman,serif" font-size="14.00">IsDaytime()</text>
</g>
<!-- 9&#45;&gt;10 -->
<g id="edge9" class="edge">
<title>9&#45;&gt;10</title>
<path fill="none" stroke="black" d="M542.18,-215.7C542.18,-208.41 542.18,-199.73 542.18,-191.54"/>
<polygon fill="black" stroke="black" points="545.68,-191.62 542.18,-181.62 538.68,-191.62 545.68,-191.62"/>
</g>
<!-- 26 -->
<g id="node27" class="node">
<title>26</title>
<ellipse fill="none" stroke="black" cx="542.18" cy="-90" rx="542.18" ry="18"/>
<text text-anchor="middle" x="542.18" y="-84.95" font-family="Times New Roman,serif" font-size="14.00">Kim Kitsuragi: “我们*没必要*探索一个废弃的健身房，你应该知道的。再说，已经很久没人来过这里了……”</text>
</g>
<!-- 10&#45;&gt;26 -->
<g id="edge10" class="edge">
<title>10&#45;&gt;26</title>
<path fill="none" stroke="black" d="M542.18,-143.7C542.18,-136.41 542.18,-127.73 542.18,-119.54"/>
<polygon fill="black" stroke="black" points="545.68,-119.62 542.18,-109.62 538.68,-119.62 545.68,-119.62"/>
</g>
<!-- 11 -->
<g id="node12" class="node">
<title>11</title>
<polygon fill="none" stroke="black" points="2725.18,-180 2633.01,-162 2725.18,-144 2817.34,-162 2725.18,-180"/>
<text text-anchor="middle" x="2725.18" y="-156.95" font-family="Times New Roman,serif" font-size="14.00">!(IsDaytime())</text>
</g>
<!-- 31 -->
<g id="node32" class="node">
<title>31</title>
<ellipse fill="none" stroke="black" cx="2621.18" cy="-90" rx="444.42" ry="18"/>
<text text-anchor="middle" x="2621.18" y="-84.95" font-family="Times New Roman,serif" font-size="14.00">Kim Kitsuragi: “*没必要*把门撞开，你知道的……”他看了看这个“很久没人待过的地方”。</text>
</g>
<!-- 11&#45;&gt;31 -->
<g id="edge11" class="edge">
<title>11&#45;&gt;31</title>
<path fill="none" stroke="black" d="M2705.12,-147.5C2691.31,-138.2 2672.58,-125.6 2656.32,-114.65"/>
<polygon fill="black" stroke="black" points="2658.59,-111.96 2648.34,-109.28 2654.68,-117.77 2658.59,-111.96"/>
</g>
<!-- 12 -->
<g id="node13" class="node">
<title>12</title>
<ellipse fill="none" stroke="black" cx="8880.18" cy="-522" rx="224.34" ry="18"/>
<text text-anchor="middle" x="8880.18" y="-516.95" font-family="Times New Roman,serif" font-size="14.00">Kim Kitsuragi: “是的，因为这里*关门*了……”</text>
</g>
<!-- 12&#45;&gt;12 -->
<g id="edge12" class="edge">
<title>12&#45;&gt;12</title>
<path fill="none" stroke="black" d="M9033.7,-535.5C9083.22,-535.38 9122.52,-530.88 9122.52,-522 9122.52,-513.82 9089.12,-509.35 9045.11,-508.61"/>
<polygon fill="black" stroke="black" points="9045.25,-505.11 9035.22,-508.52 9045.18,-512.11 9045.25,-505.11"/>
</g>
<!-- 13 -->
<g id="node14" class="node">
<title>13</title>
<ellipse fill="none" stroke="black" cx="2910.18" cy="-378" rx="518.63" ry="18"/>
<text text-anchor="middle" x="2910.18" y="-372.95" font-family="Times New Roman,serif" font-size="14.00">Variable[&quot;TASK.doomed_investigation&quot;] &#160;or &#160;Variable[&quot;tc.doomed_commercial_area&quot;] &#160;or &#160;Variable[&quot;plaza.annette_heard_of_doomed&quot;]</text>
</g>
<!-- 13&#45;&gt;13 -->
<g id="edge13" class="edge">
<title>13&#45;&gt;13</title>
<path fill="none" stroke="black" d="M3266.57,-391.45C3368.36,-390.91 3446.81,-386.43 3446.81,-378 3446.81,-369.88 3374.08,-365.43 3277.81,-364.63"/>
<polygon fill="black" stroke="black" points="3278.11,-361.13 3268.09,-364.56 3278.06,-368.13 3278.11,-361.13"/>
</g>
<!-- 14 -->
<g id="node15" class="node">
<title>14</title>
<polygon fill="none" stroke="black" points="2910.18,-324 2176.72,-306 2910.18,-288 3643.63,-306 2910.18,-324"/>
<text text-anchor="middle" x="2910.18" y="-300.95" font-family="Times New Roman,serif" font-size="14.00">Variable[&quot;TASK.doomed_investigation&quot;] &#160;or &#160;Variable[&quot;tc.doomed_commercial_area&quot;] &#160;or &#160;Variable[&quot;plaza.annette_heard_of_doomed&quot;]</text>
</g>
<!-- 13&#45;&gt;14 -->
<g id="edge14" class="edge">
<title>13&#45;&gt;14</title>
<path fill="none" stroke="black" d="M2910.18,-359.7C2910.18,-352.41 2910.18,-343.73 2910.18,-335.54"/>
<polygon fill="black" stroke="black" points="2913.68,-335.62 2910.18,-325.62 2906.68,-335.62 2913.68,-335.62"/>
</g>
<!-- 45 -->
<g id="node46" class="node">
<title>45</title>
<ellipse fill="none" stroke="black" cx="2818.18" cy="-234" rx="256.59" ry="18"/>
<text text-anchor="middle" x="2818.18" y="-228.95" font-family="Times New Roman,serif" font-size="14.00">You: “如果这里这么多年没人是有*原因*的呢……”</text>
</g>
<!-- 14&#45;&gt;45 -->
<g id="edge15" class="edge">
<title>14&#45;&gt;45</title>
<path fill="none" stroke="black" d="M2887.9,-288.05C2876.44,-279.33 2862.26,-268.54 2849.69,-258.98"/>
<polygon fill="black" stroke="black" points="2852.16,-256.46 2842.08,-253.19 2847.92,-262.03 2852.16,-256.46"/>
</g>
<!-- 15 -->
<g id="node16" class="node">
<title>15</title>
<polygon fill="none" stroke="black" points="2385.18,-36 1638.69,-18 2385.18,0 3131.66,-18 2385.18,-36"/>
<text text-anchor="middle" x="2385.18" y="-12.95" font-family="Times New Roman,serif" font-size="14.00">!(Variable[&quot;TASK.doomed_investigation&quot;] &#160;or &#160;Variable[&quot;tc.doomed_commercial_area&quot;] &#160;or &#160;Variable[&quot;plaza.annette_heard_of_doomed&quot;])</text>
</g>
<!-- 15&#45;&gt;1 -->
<g id="edge16" class="edge">
<title>15&#45;&gt;1</title>
<path fill="none" stroke="black" d="M2279.95,-33.9C2232.88,-42.67 2184.35,-55.34 2168.18,-72 2140,-101.02 2149.18,-120.55 2149.18,-161 2149.18,-379 2149.18,-379 2149.18,-379 2149.18,-575.46 2388.55,-436.84 2573.18,-504 2574.94,-504.64 2576.74,-505.32 2578.55,-506.03"/>
<polygon fill="black" stroke="black" points="2576.88,-509.13 2587.46,-509.7 2579.54,-502.66 2576.88,-509.13"/>
</g>
<!-- 16 -->
<g id="node17" class="node">
<title>16</title>
<ellipse fill="none" stroke="black" cx="7171.18" cy="-306" rx="101" ry="18"/>
<text text-anchor="middle" x="7171.18" y="-300.95" font-family="Times New Roman,serif" font-size="14.00">CheckItem(&quot;flashlight&quot;)</text>
</g>
<!-- 16&#45;&gt;16 -->
<g id="edge17" class="edge">
<title>16&#45;&gt;16</title>
<path fill="none" stroke="black" d="M7240.85,-319.45C7267.78,-320.04 7290.17,-315.56 7290.17,-306 7290.17,-297.82 7273.79,-293.36 7252.19,-292.61"/>
<polygon fill="black" stroke="black" points="7252.38,-289.11 7242.36,-292.56 7252.34,-296.11 7252.38,-289.11"/>
</g>
<!-- 17 -->
<g id="node18" class="node">
<title>17</title>
<polygon fill="none" stroke="black" points="7171.18,-252 7028.34,-234 7171.18,-216 7314.01,-234 7171.18,-252"/>
<text text-anchor="middle" x="7171.18" y="-228.95" font-family="Times New Roman,serif" font-size="14.00">CheckItem(&quot;flashlight&quot;)</text>
</g>
<!-- 16&#45;&gt;17 -->
<g id="edge18" class="edge">
<title>16&#45;&gt;17</title>
<path fill="none" stroke="black" d="M7171.18,-287.7C7171.18,-280.41 7171.18,-271.73 7171.18,-263.54"/>
<polygon fill="black" stroke="black" points="7174.68,-263.62 7171.18,-253.62 7167.68,-263.62 7174.68,-263.62"/>
</g>
<!-- 41 -->
<g id="node42" class="node">
<title>41</title>
<polygon fill="none" stroke="black" points="7171.18,-180 6840.15,-162 7171.18,-144 7502.2,-162 7171.18,-180"/>
<text text-anchor="middle" x="7171.18" y="-156.95" font-family="Times New Roman,serif" font-size="14.00">!(IsTaskActive(&quot;TASK.go_see_the_fridge&quot;)&#45;&#45;[[ Variable[ ]])</text>
</g>
<!-- 17&#45;&gt;41 -->
<g id="edge19" class="edge">
<title>17&#45;&gt;41</title>
<path fill="none" stroke="black" d="M7171.18,-215.7C7171.18,-208.41 7171.18,-199.73 7171.18,-191.54"/>
<polygon fill="black" stroke="black" points="7174.68,-191.62 7171.18,-181.62 7167.68,-191.62 7174.68,-191.62"/>
</g>
<!-- 18 -->
<g id="node19" class="node">
<title>18</title>
<polygon fill="none" stroke="black" points="5510.18,-396 5354.32,-378 5510.18,-360 5666.03,-378 5510.18,-396"/>
<text text-anchor="middle" x="5510.18" y="-372.95" font-family="Times New Roman,serif" font-size="14.00">!(CheckItem(&quot;flashlight&quot;))</text>
</g>
<!-- 35 -->
<g id="node36" class="node">
<title>35</title>
<ellipse fill="none" stroke="black" cx="5418.18" cy="-450" rx="75.41" ry="18"/>
<text text-anchor="middle" x="5418.18" y="-444.95" font-family="Times New Roman,serif" font-size="14.00">Untitled hub (02)</text>
</g>
<!-- 18&#45;&gt;35 -->
<g id="edge20" class="edge">
<title>18&#45;&gt;35</title>
<path fill="none" stroke="black" d="M5495.32,-394.67C5484.19,-403.97 5468.68,-415.93 5454.43,-426.26"/>
<polygon fill="black" stroke="black" points="5452.65,-423.23 5446.55,-431.89 5456.72,-428.93 5452.65,-423.23"/>
</g>
<!-- 37 -->
<g id="node38" class="node">
<title>37</title>
<ellipse fill="none" stroke="black" cx="3902.18" cy="-378" rx="242.26" ry="18"/>
<text text-anchor="middle" x="3902.18" y="-372.95" font-family="Times New Roman,serif" font-size="14.00">Inland Empire: 一种奇异的感觉涌上你的心头……</text>
</g>
<!-- 19&#45;&gt;37 -->
<g id="edge21" class="edge">
<title>19&#45;&gt;37</title>
<path fill="none" stroke="black" d="M3203.55,-438.06C3346.91,-425.94 3578.51,-406.36 3735.39,-393.1"/>
<polygon fill="black" stroke="black" points="3735.38,-396.61 3745.05,-392.28 3734.79,-389.64 3735.38,-396.61"/>
</g>
<!-- 20 -->
<g id="node21" class="node">
<title>20</title>
<ellipse fill="none" stroke="black" cx="4083.18" cy="-234" rx="96.9" ry="18"/>
<text text-anchor="middle" x="4083.18" y="-228.95" font-family="Times New Roman,serif" font-size="14.00">kimdoomedgymswitch</text>
</g>
<!-- 20&#45;&gt;4 -->
<g id="edge23" class="edge">
<title>20&#45;&gt;4</title>
<path fill="none" stroke="black" d="M4007.12,-222.52C3912.47,-209.48 3751.57,-187.31 3655.14,-174.02"/>
<polygon fill="black" stroke="black" points="3655.88,-170.59 3645.49,-172.69 3654.92,-177.52 3655.88,-170.59"/>
</g>
<!-- 23 -->
<g id="node24" class="node">
<title>23</title>
<ellipse fill="none" stroke="black" cx="3170.18" cy="-162" rx="231" ry="18"/>
<text text-anchor="middle" x="3170.18" y="-156.95" font-family="Times New Roman,serif" font-size="14.00">Kim Kitsuragi: “我们去拿手电筒吧，怎么样？”</text>
</g>
<!-- 20&#45;&gt;23 -->
<g id="edge24" class="edge">
<title>20&#45;&gt;23</title>
<path fill="none" stroke="black" d="M3994.8,-226.22C3844.41,-214.69 3536.19,-191.06 3342.11,-176.18"/>
<polygon fill="black" stroke="black" points="3342.4,-172.69 3332.16,-175.42 3341.86,-179.67 3342.4,-172.69"/>
</g>
<!-- 27 -->
<g id="node28" class="node">
<title>27</title>
<ellipse fill="none" stroke="black" cx="5746.18" cy="-162" rx="507.37" ry="18"/>
<text text-anchor="middle" x="5746.18" y="-156.95" font-family="Times New Roman,serif" font-size="14.00">Perception (Sight): 窗户上落下些许灰尘，在日光下闪烁着点点光芒。除此之外，这个房间一片漆黑。</text>
</g>
<!-- 20&#45;&gt;27 -->
<g id="edge25" class="edge">
<title>20&#45;&gt;27</title>
<path fill="none" stroke="black" d="M4176.75,-229.06C4410.62,-219.22 5029.56,-193.16 5416.62,-176.87"/>
<polygon fill="black" stroke="black" points="5416.64,-180.37 5426.49,-176.46 5416.35,-173.38 5416.64,-180.37"/>
</g>
<!-- 28 -->
<g id="node29" class="node">
<title>28</title>
<ellipse fill="none" stroke="black" cx="4083.18" cy="-162" rx="333.87" ry="18"/>
<text text-anchor="middle" x="4083.18" y="-156.95" font-family="Times New Roman,serif" font-size="14.00">You: “我觉得可能是针对青少年运动员的阿特米普拳击俱乐部。”</text>
</g>
<!-- 20&#45;&gt;28 -->
<g id="edge26" class="edge">
<title>20&#45;&gt;28</title>
<path fill="none" stroke="black" d="M4083.18,-215.7C4083.18,-208.41 4083.18,-199.73 4083.18,-191.54"/>
<polygon fill="black" stroke="black" points="4086.68,-191.62 4083.18,-181.62 4079.68,-191.62 4086.68,-191.62"/>
</g>
<!-- 33 -->
<g id="node34" class="node">
<title>33</title>
<ellipse fill="none" stroke="black" cx="4828.18" cy="-162" rx="392.73" ry="18"/>
<text text-anchor="middle" x="4828.18" y="-156.95" font-family="Times New Roman,serif" font-size="14.00">You: “我们还是走吧，我肯定这里只是个普通的废弃房屋，没什么神秘的。”</text>
</g>
<!-- 20&#45;&gt;33 -->
<g id="edge22" class="edge">
<title>20&#45;&gt;33</title>
<path fill="none" stroke="black" d="M4168.27,-225C4284.86,-214.05 4497.1,-194.11 4649.44,-179.79"/>
<polygon fill="black" stroke="black" points="4649.62,-183.29 4659.25,-178.87 4648.97,-176.32 4649.62,-183.29"/>
</g>
<!-- 21 -->
<g id="node22" class="node">
<title>21</title>
<ellipse fill="none" stroke="black" cx="4383.18" cy="-90" rx="458.75" ry="18"/>
<text text-anchor="middle" x="4383.18" y="-84.95" font-family="Times New Roman,serif" font-size="14.00">Kim Kitsuragi: “不，这是个健身房，”他不同意这个看法。“不过看起来已经很久没人了……”</text>
</g>
<!-- 21&#45;&gt;15 -->
<g id="edge27" class="edge">
<title>21&#45;&gt;15</title>
<path fill="none" stroke="black" d="M4056.26,-77.03C4009.25,-75.33 3961.48,-73.61 3916.18,-72 3493.97,-57.01 3006.25,-40.21 2696.88,-29.63"/>
<polygon fill="black" stroke="black" points="2697.12,-26.13 2687,-29.29 2696.88,-33.13 2697.12,-26.13"/>
</g>
<!-- 22&#45;&gt;15 -->
<g id="edge28" class="edge">
<title>22&#45;&gt;15</title>
<path fill="none" stroke="black" d="M3266.86,-74.6C3070.26,-62.2 2788.74,-44.45 2597.06,-32.36"/>
<polygon fill="black" stroke="black" points="2597.43,-28.88 2587.23,-31.74 2596.99,-35.86 2597.43,-28.88"/>
</g>
<!-- 24 -->
<g id="node25" class="node">
<title>24</title>
<ellipse fill="none" stroke="black" cx="4482.18" cy="-306" rx="110.21" ry="18"/>
<text text-anchor="middle" x="4482.18" y="-300.95" font-family="Times New Roman,serif" font-size="14.00">You: “这是场冒险！”</text>
</g>
<!-- 24&#45;&gt;20 -->
<g id="edge29" class="edge">
<title>24&#45;&gt;20</title>
<path fill="none" stroke="black" d="M4408.99,-292.16C4339.37,-279.95 4234.89,-261.62 4163.12,-249.03"/>
<polygon fill="black" stroke="black" points="4163.84,-245.6 4153.38,-247.32 4162.63,-252.49 4163.84,-245.6"/>
</g>
<!-- 25 -->
<g id="node26" class="node">
<title>25</title>
<ellipse fill="none" stroke="black" cx="7171.18" cy="-90" rx="497.65" ry="18"/>
<text text-anchor="middle" x="7171.18" y="-84.95" font-family="Times New Roman,serif" font-size="14.00">Kim Kitsuragi: “不知道电还能不能用……还好我们身上带着手电筒。走之前记得先从包里拿出来。”</text>
</g>
<!-- 25&#45;&gt;8 -->
<g id="edge30" class="edge">
<title>25&#45;&gt;8</title>
<path fill="none" stroke="black" d="M6938.88,-73.66C6767.15,-62.32 6533.71,-46.9 6358.52,-35.33"/>
<polygon fill="black" stroke="black" points="6358.78,-31.84 6348.57,-34.68 6358.32,-38.83 6358.78,-31.84"/>
</g>
<!-- 26&#45;&gt;15 -->
<g id="edge31" class="edge">
<title>26&#45;&gt;15</title>
<path fill="none" stroke="black" d="M889.64,-75.8C1237.2,-62.6 1765.81,-42.52 2092.6,-30.11"/>
<polygon fill="black" stroke="black" points="2092.28,-33.63 2102.14,-29.75 2092.02,-26.63 2092.28,-33.63"/>
</g>
<!-- 36 -->
<g id="node37" class="node">
<title>36</title>
<ellipse fill="none" stroke="black" cx="6111.18" cy="-90" rx="544.73" ry="18"/>
<text text-anchor="middle" x="6111.18" y="-84.95" font-family="Times New Roman,serif" font-size="14.00">Kim Kitsuragi: “不知道电还能不能用……如果想继续调查的话，应该找个手电筒。我的锐影里应该有一只。”</text>
</g>
<!-- 27&#45;&gt;36 -->
<g id="edge32" class="edge">
<title>27&#45;&gt;36</title>
<path fill="none" stroke="black" d="M5835.46,-143.88C5888.38,-133.73 5955.59,-120.84 6010.4,-110.33"/>
<polygon fill="black" stroke="black" points="6010.89,-113.8 6020.06,-108.47 6009.58,-106.92 6010.89,-113.8"/>
</g>
<!-- 28&#45;&gt;21 -->
<g id="edge33" class="edge">
<title>28&#45;&gt;21</title>
<path fill="none" stroke="black" d="M4156.18,-143.97C4199.03,-133.97 4253.38,-121.29 4298.16,-110.84"/>
<polygon fill="black" stroke="black" points="4298.9,-114.26 4307.85,-108.58 4297.31,-107.44 4298.9,-114.26"/>
</g>
<!-- 38 -->
<g id="node39" class="node">
<title>38</title>
<ellipse fill="none" stroke="black" cx="7643.18" cy="-234" rx="140.41" ry="18"/>
<text text-anchor="middle" x="7643.18" y="-228.95" font-family="Times New Roman,serif" font-size="14.00">Kim Kitsuragi: 警督点点头。</text>
</g>
<!-- 29&#45;&gt;38 -->
<g id="edge34" class="edge">
<title>29&#45;&gt;38</title>
<path fill="none" stroke="black" d="M7643.18,-287.7C7643.18,-280.41 7643.18,-271.73 7643.18,-263.54"/>
<polygon fill="black" stroke="black" points="7646.68,-263.62 7643.18,-253.62 7639.68,-263.62 7646.68,-263.62"/>
</g>
<!-- 30 -->
<g id="node31" class="node">
<title>30</title>
<ellipse fill="none" stroke="black" cx="1612.18" cy="-90" rx="509.42" ry="18"/>
<text text-anchor="middle" x="1612.18" y="-84.95" font-family="Times New Roman,serif" font-size="14.00">Kim Kitsuragi: “是的，不过已经很久没人来过这里了。”他的脚在满是灰尘的地板上拖出一条痕迹……</text>
</g>
<!-- 30&#45;&gt;15 -->
<g id="edge35" class="edge">
<title>30&#45;&gt;15</title>
<path fill="none" stroke="black" d="M1791.95,-72.72C1921.74,-60.97 2095.6,-45.22 2221.52,-33.82"/>
<polygon fill="black" stroke="black" points="2221.64,-37.32 2231.28,-32.94 2221.01,-30.35 2221.64,-37.32"/>
</g>
<!-- 31&#45;&gt;15 -->
<g id="edge36" class="edge">
<title>31&#45;&gt;15</title>
<path fill="none" stroke="black" d="M2562.84,-71.7C2528.7,-61.57 2485.51,-48.76 2450.27,-38.31"/>
<polygon fill="black" stroke="black" points="2451.64,-35.06 2441.06,-35.57 2449.65,-41.77 2451.64,-35.06"/>
</g>
<!-- 32 -->
<g id="node33" class="node">
<title>32</title>
<ellipse fill="none" stroke="black" cx="5738.18" cy="-306" rx="542.69" ry="18"/>
<text text-anchor="middle" x="5738.18" y="-300.95" font-family="Times New Roman,serif" font-size="14.00">Perception (Sight): 窗户上落下些许灰尘，在街灯的照耀下闪烁着点点光芒。除此之外，这个房间一片漆黑。</text>
</g>
<!-- 32&#45;&gt;36 -->
<g id="edge37" class="edge">
<title>32&#45;&gt;36</title>
<path fill="none" stroke="black" d="M5898.86,-288.37C6035.82,-270.49 6217.41,-236.71 6262.18,-180 6286.83,-148.77 6246.9,-126.22 6201.93,-111.64"/>
<polygon fill="black" stroke="black" points="6203.08,-108.33 6192.49,-108.73 6201.02,-115.02 6203.08,-108.33"/>
</g>
<!-- 49 -->
<g id="node50" class="node">
<title>49</title>
<ellipse fill="none" stroke="black" cx="5204.18" cy="-90" rx="344.62" ry="18"/>
<text text-anchor="middle" x="5204.18" y="-84.95" font-family="Times New Roman,serif" font-size="14.00">Kim Kitsuragi: “不知道电还有没有用……还好我们身上带着手电筒。”</text>
</g>
<!-- 33&#45;&gt;49 -->
<g id="edge38" class="edge">
<title>33&#45;&gt;49</title>
<path fill="none" stroke="black" d="M4919.19,-144.05C4974.51,-133.76 5045.26,-120.58 5102.43,-109.94"/>
<polygon fill="black" stroke="black" points="5102.99,-113.4 5112.18,-108.13 5101.71,-106.52 5102.99,-113.4"/>
</g>
<!-- 34 -->
<g id="node35" class="node">
<title>34</title>
<ellipse fill="none" stroke="black" cx="3985.18" cy="-306" rx="145.52" ry="18"/>
<text text-anchor="middle" x="3985.18" y="-300.95" font-family="Times New Roman,serif" font-size="14.00">You: “这是阴间。是来世。”</text>
</g>
<!-- 34&#45;&gt;20 -->
<g id="edge39" class="edge">
<title>34&#45;&gt;20</title>
<path fill="none" stroke="black" d="M4009.15,-287.88C4021.67,-278.93 4037.18,-267.86 4050.75,-258.16"/>
<polygon fill="black" stroke="black" points="4052.45,-261.25 4058.56,-252.59 4048.38,-255.55 4052.45,-261.25"/>
</g>
<!-- 35&#45;&gt;18 -->
<g id="edge41" class="edge">
<title>35&#45;&gt;18</title>
<path fill="none" stroke="black" d="M5434.57,-432.05C5446.28,-422.36 5462.24,-410.13 5476.54,-399.85"/>
<polygon fill="black" stroke="black" points="5478.25,-402.93 5484.4,-394.3 5474.21,-397.21 5478.25,-402.93"/>
</g>
<!-- 35&#45;&gt;32 -->
<g id="edge40" class="edge">
<title>35&#45;&gt;32</title>
<path fill="none" stroke="black" d="M5384.34,-433.53C5369.46,-424.8 5353.5,-412.33 5345.18,-396 5337.91,-381.75 5334.64,-372.05 5345.18,-360 5358.05,-345.27 5436.94,-333.18 5520.71,-324.28"/>
<polygon fill="black" stroke="black" points="5520.92,-327.77 5530.51,-323.26 5520.2,-320.81 5520.92,-327.77"/>
</g>
<!-- 44 -->
<g id="node45" class="node">
<title>44</title>
<polygon fill="none" stroke="black" points="4705.18,-396 4523.98,-378 4705.18,-360 4886.37,-378 4705.18,-396"/>
<text text-anchor="middle" x="4705.18" y="-372.95" font-family="Times New Roman,serif" font-size="14.00">!(CheckEquipped(&quot;flashlight&quot;))</text>
</g>
<!-- 35&#45;&gt;44 -->
<g id="edge42" class="edge">
<title>35&#45;&gt;44</title>
<path fill="none" stroke="black" d="M5349.49,-442.26C5222.78,-429.82 4951.82,-403.21 4804.88,-388.79"/>
<polygon fill="black" stroke="black" points="4805.45,-385.33 4795.16,-387.83 4804.77,-392.29 4805.45,-385.33"/>
</g>
<!-- 36&#45;&gt;8 -->
<g id="edge43" class="edge">
<title>36&#45;&gt;8</title>
<path fill="none" stroke="black" d="M6111.18,-71.7C6111.18,-64.41 6111.18,-55.73 6111.18,-47.54"/>
<polygon fill="black" stroke="black" points="6114.68,-47.62 6111.18,-37.62 6107.68,-47.62 6114.68,-47.62"/>
</g>
<!-- 37&#45;&gt;34 -->
<g id="edge44" class="edge">
<title>37&#45;&gt;34</title>
<path fill="none" stroke="black" d="M3922.69,-359.7C3932.84,-351.14 3945.27,-340.66 3956.36,-331.3"/>
<polygon fill="black" stroke="black" points="3958.35,-334.2 3963.74,-325.08 3953.84,-328.85 3958.35,-334.2"/>
</g>
<!-- 39 -->
<g id="node40" class="node">
<title>39</title>
<ellipse fill="none" stroke="black" cx="1612.18" cy="-234" rx="224.85" ry="18"/>
<text text-anchor="middle" x="1612.18" y="-228.95" font-family="Times New Roman,serif" font-size="14.00">IsTaskActive(&quot;TASK.go_see_the_fridge&quot;)&#45;&#45;[[ Variable[ ]]</text>
</g>
<!-- 39&#45;&gt;39 -->
<g id="edge46" class="edge">
<title>39&#45;&gt;39</title>
<path fill="none" stroke="black" d="M1766.03,-247.5C1815.65,-247.38 1855.03,-242.88 1855.03,-234 1855.03,-225.82 1821.57,-221.35 1777.46,-220.61"/>
<polygon fill="black" stroke="black" points="1777.58,-217.11 1767.54,-220.52 1777.51,-224.11 1777.58,-217.11"/>
</g>
<!-- 40 -->
<g id="node41" class="node">
<title>40</title>
<polygon fill="none" stroke="black" points="1612.18,-180 1294.18,-162 1612.18,-144 1930.17,-162 1612.18,-180"/>
<text text-anchor="middle" x="1612.18" y="-156.95" font-family="Times New Roman,serif" font-size="14.00">IsTaskActive(&quot;TASK.go_see_the_fridge&quot;)&#45;&#45;[[ Variable[ ]]</text>
</g>
<!-- 39&#45;&gt;40 -->
<g id="edge45" class="edge">
<title>39&#45;&gt;40</title>
<path fill="none" stroke="black" d="M1612.18,-215.7C1612.18,-208.41 1612.18,-199.73 1612.18,-191.54"/>
<polygon fill="black" stroke="black" points="1615.68,-191.62 1612.18,-181.62 1608.68,-191.62 1615.68,-191.62"/>
</g>
<!-- 40&#45;&gt;30 -->
<g id="edge47" class="edge">
<title>40&#45;&gt;30</title>
<path fill="none" stroke="black" d="M1612.18,-143.7C1612.18,-136.41 1612.18,-127.73 1612.18,-119.54"/>
<polygon fill="black" stroke="black" points="1615.68,-119.62 1612.18,-109.62 1608.68,-119.62 1615.68,-119.62"/>
</g>
<!-- 41&#45;&gt;25 -->
<g id="edge48" class="edge">
<title>41&#45;&gt;25</title>
<path fill="none" stroke="black" d="M7171.18,-143.7C7171.18,-136.41 7171.18,-127.73 7171.18,-119.54"/>
<polygon fill="black" stroke="black" points="7174.68,-119.62 7171.18,-109.62 7167.68,-119.62 7174.68,-119.62"/>
</g>
<!-- 42 -->
<g id="node43" class="node">
<title>42</title>
<ellipse fill="none" stroke="black" cx="8501.18" cy="-522" rx="118.91" ry="18"/>
<text text-anchor="middle" x="8501.18" y="-516.95" font-family="Times New Roman,serif" font-size="14.00">CheckEquipped(&quot;flashlight&quot;)</text>
</g>
<!-- 42&#45;&gt;42 -->
<g id="edge49" class="edge">
<title>42&#45;&gt;42</title>
<path fill="none" stroke="black" d="M8582.7,-535.47C8613.08,-535.91 8638.09,-531.42 8638.09,-522 8638.09,-513.79 8619.11,-509.33 8594.14,-508.6"/>
<polygon fill="black" stroke="black" points="8594.23,-505.11 8584.21,-508.54 8594.19,-512.11 8594.23,-505.11"/>
</g>
<!-- 43 -->
<g id="node44" class="node">
<title>43</title>
<polygon fill="none" stroke="black" points="8501.18,-468 8333.01,-450 8501.18,-432 8669.34,-450 8501.18,-468"/>
<text text-anchor="middle" x="8501.18" y="-444.95" font-family="Times New Roman,serif" font-size="14.00">CheckEquipped(&quot;flashlight&quot;)</text>
</g>
<!-- 42&#45;&gt;43 -->
<g id="edge50" class="edge">
<title>42&#45;&gt;43</title>
<path fill="none" stroke="black" d="M8501.18,-503.7C8501.18,-496.41 8501.18,-487.73 8501.18,-479.54"/>
<polygon fill="black" stroke="black" points="8504.68,-479.62 8501.18,-469.62 8497.68,-479.62 8504.68,-479.62"/>
</g>
<!-- 48 -->
<g id="node49" class="node">
<title>48</title>
<polygon fill="none" stroke="black" points="8501.18,-396 8345.32,-378 8501.18,-360 8657.03,-378 8501.18,-396"/>
<text text-anchor="middle" x="8501.18" y="-372.95" font-family="Times New Roman,serif" font-size="14.00">!(CheckItem(&quot;flashlight&quot;))</text>
</g>
<!-- 43&#45;&gt;48 -->
<g id="edge51" class="edge">
<title>43&#45;&gt;48</title>
<path fill="none" stroke="black" d="M8501.18,-431.7C8501.18,-424.41 8501.18,-415.73 8501.18,-407.54"/>
<polygon fill="black" stroke="black" points="8504.68,-407.62 8501.18,-397.62 8497.68,-407.62 8504.68,-407.62"/>
</g>
<!-- 44&#45;&gt;24 -->
<g id="edge52" class="edge">
<title>44&#45;&gt;24</title>
<path fill="none" stroke="black" d="M4662.97,-363.75C4628.95,-353.07 4580.68,-337.92 4542.57,-325.96"/>
<polygon fill="black" stroke="black" points="4543.63,-322.62 4533.05,-322.97 4541.54,-329.3 4543.63,-322.62"/>
</g>
<!-- 45&#45;&gt;11 -->
<g id="edge53" class="edge">
<title>45&#45;&gt;11</title>
<path fill="none" stroke="black" d="M2795.19,-215.7C2782.25,-205.96 2766.02,-193.74 2752.44,-183.52"/>
<polygon fill="black" stroke="black" points="2754.85,-180.95 2744.75,-177.73 2750.64,-186.54 2754.85,-180.95"/>
</g>
<!-- 46 -->
<g id="node47" class="node">
<title>46</title>
<ellipse fill="none" stroke="black" cx="8073.18" cy="-522" rx="101" ry="18"/>
<text text-anchor="middle" x="8073.18" y="-516.95" font-family="Times New Roman,serif" font-size="14.00">CheckItem(&quot;flashlight&quot;)</text>
</g>
<!-- 46&#45;&gt;46 -->
<g id="edge54" class="edge">
<title>46&#45;&gt;46</title>
<path fill="none" stroke="black" d="M8142.85,-535.45C8169.78,-536.04 8192.17,-531.56 8192.17,-522 8192.17,-513.82 8175.79,-509.36 8154.19,-508.61"/>
<polygon fill="black" stroke="black" points="8154.38,-505.11 8144.36,-508.56 8154.34,-512.11 8154.38,-505.11"/>
</g>
<!-- 47 -->
<g id="node48" class="node">
<title>47</title>
<polygon fill="none" stroke="black" points="8073.18,-468 7930.34,-450 8073.18,-432 8216.01,-450 8073.18,-468"/>
<text text-anchor="middle" x="8073.18" y="-444.95" font-family="Times New Roman,serif" font-size="14.00">CheckItem(&quot;flashlight&quot;)</text>
</g>
<!-- 46&#45;&gt;47 -->
<g id="edge55" class="edge">
<title>46&#45;&gt;47</title>
<path fill="none" stroke="black" d="M8073.18,-503.7C8073.18,-496.41 8073.18,-487.73 8073.18,-479.54"/>
<polygon fill="black" stroke="black" points="8076.68,-479.62 8073.18,-469.62 8069.68,-479.62 8076.68,-479.62"/>
</g>
<!-- 47&#45;&gt;6 -->
<g id="edge56" class="edge">
<title>47&#45;&gt;6</title>
<path fill="none" stroke="black" d="M8073.18,-431.7C8073.18,-424.41 8073.18,-415.73 8073.18,-407.54"/>
<polygon fill="black" stroke="black" points="8076.68,-407.62 8073.18,-397.62 8069.68,-407.62 8076.68,-407.62"/>
</g>
<!-- 48&#45;&gt;7 -->
<g id="edge57" class="edge">
<title>48&#45;&gt;7</title>
<path fill="none" stroke="black" d="M8501.18,-359.7C8501.18,-352.41 8501.18,-343.73 8501.18,-335.54"/>
<polygon fill="black" stroke="black" points="8504.68,-335.62 8501.18,-325.62 8497.68,-335.62 8504.68,-335.62"/>
</g>
<!-- 49&#45;&gt;8 -->
<g id="edge58" class="edge">
<title>49&#45;&gt;8</title>
<path fill="none" stroke="black" d="M5392.11,-74.5C5537.52,-63.27 5739.17,-47.71 5891.93,-35.92"/>
<polygon fill="black" stroke="black" points="5892.1,-39.42 5901.8,-35.16 5891.56,-32.44 5892.1,-39.42"/>
</g>
<!-- 50 -->
<g id="node51" class="node">
<title>50</title>
<ellipse fill="none" stroke="black" cx="9289.18" cy="-522" rx="148.59" ry="18"/>
<text text-anchor="middle" x="9289.18" y="-516.95" font-family="Times New Roman,serif" font-size="14.00">Kim Kitsuragi: “听起来不错。”</text>
</g>
</g>
</svg>
