<?xml version="1.0" encoding="UTF-8" standalone="no"?>
<!DOCTYPE svg PUBLIC "-//W3C//DTD SVG 1.1//EN"
 "http://www.w3.org/Graphics/SVG/1.1/DTD/svg11.dtd">
<!-- Generated by graphviz version 12.2.1 (20241206.2353)
 -->
<!-- Title: G Pages: 1 -->
<svg width="5480pt" height="1700pt"
 viewBox="0.00 0.00 5479.80 1700.00" xmlns="http://www.w3.org/2000/svg" xmlns:xlink="http://www.w3.org/1999/xlink">
<g id="graph0" class="graph" transform="scale(1 1) rotate(0) translate(4 1696)">
<title>G</title>
<polygon fill="white" stroke="none" points="-4,4 -4,-1696 5475.8,-1696 5475.8,4 -4,4"/>
<!-- 0 -->
<g id="node1" class="node">
<title>0</title>
<ellipse fill="none" stroke="black" cx="2135.13" cy="-1098" rx="39.07" ry="18"/>
<text text-anchor="middle" x="2135.13" y="-1092.95" font-family="Times New Roman,serif" font-size="14.00">START</text>
</g>
<!-- 1 -->
<g id="node2" class="node">
<title>1</title>
<ellipse fill="none" stroke="black" cx="2135.13" cy="-1026" rx="29.86" ry="18"/>
<text text-anchor="middle" x="2135.13" y="-1020.95" font-family="Times New Roman,serif" font-size="14.00">input</text>
</g>
<!-- 0&#45;&gt;1 -->
<g id="edge1" class="edge">
<title>0&#45;&gt;1</title>
<path fill="none" stroke="black" d="M2135.13,-1079.7C2135.13,-1072.41 2135.13,-1063.73 2135.13,-1055.54"/>
<polygon fill="black" stroke="black" points="2138.63,-1055.62 2135.13,-1045.62 2131.63,-1055.62 2138.63,-1055.62"/>
</g>
<!-- 65 -->
<g id="node66" class="node">
<title>65</title>
<ellipse fill="none" stroke="black" cx="2135.13" cy="-954" rx="515.05" ry="18"/>
<text text-anchor="middle" x="2135.13" y="-948.95" font-family="Times New Roman,serif" font-size="14.00">Alice: “好的，我会把案子指派给你的同事。你不用再担心这个案子了，我们会派警官把尸体运走。”</text>
</g>
<!-- 1&#45;&gt;65 -->
<g id="edge2" class="edge">
<title>1&#45;&gt;65</title>
<path fill="none" stroke="black" d="M2135.13,-1007.7C2135.13,-1000.41 2135.13,-991.73 2135.13,-983.54"/>
<polygon fill="black" stroke="black" points="2138.63,-983.62 2135.13,-973.62 2131.63,-983.62 2138.63,-983.62"/>
</g>
<!-- 2 -->
<g id="node3" class="node">
<title>2</title>
<ellipse fill="none" stroke="black" cx="4233.13" cy="-1602" rx="225.37" ry="18"/>
<text text-anchor="middle" x="4233.13" y="-1596.95" font-family="Times New Roman,serif" font-size="14.00">You: “可能有一个逍遥法外的*连环杀手*。”</text>
</g>
<!-- 46 -->
<g id="node47" class="node">
<title>46</title>
<ellipse fill="none" stroke="black" cx="4261.13" cy="-1530" rx="282.18" ry="18"/>
<text text-anchor="middle" x="4261.13" y="-1524.95" font-family="Times New Roman,serif" font-size="14.00">Perception (Hearing): 你能听见她在后台飞快打字的声音。</text>
</g>
<!-- 2&#45;&gt;46 -->
<g id="edge3" class="edge">
<title>2&#45;&gt;46</title>
<path fill="none" stroke="black" d="M4240.05,-1583.7C4243.07,-1576.15 4246.68,-1567.12 4250.05,-1558.68"/>
<polygon fill="black" stroke="black" points="4253.26,-1560.09 4253.72,-1549.51 4246.76,-1557.49 4253.26,-1560.09"/>
</g>
<!-- 3 -->
<g id="node4" class="node">
<title>3</title>
<ellipse fill="none" stroke="black" cx="1718.13" cy="-666" rx="604.62" ry="18"/>
<text text-anchor="middle" x="1718.13" y="-660.95" font-family="Times New Roman,serif" font-size="14.00">You: “一个身份不明的中年男子。看起来像是脚滑了一下，然后从木板道的洞里摔了下去，脑袋撞到一个金属长凳。”</text>
</g>
<!-- 25 -->
<g id="node26" class="node">
<title>25</title>
<polygon fill="none" stroke="black" points="1943.13,-612 1860.37,-594 1943.13,-576 2025.88,-594 1943.13,-612"/>
<text text-anchor="middle" x="1943.13" y="-588.95" font-family="Times New Roman,serif" font-size="14.00">IsKimHere()</text>
</g>
<!-- 3&#45;&gt;25 -->
<g id="edge4" class="edge">
<title>3&#45;&gt;25</title>
<path fill="none" stroke="black" d="M1774.03,-647.61C1812.84,-635.53 1863.79,-619.68 1899.58,-608.55"/>
<polygon fill="black" stroke="black" points="1900.22,-612.01 1908.73,-605.7 1898.14,-605.33 1900.22,-612.01"/>
</g>
<!-- 4 -->
<g id="node5" class="node">
<title>4</title>
<ellipse fill="none" stroke="black" cx="2891.13" cy="-1242" rx="161.9" ry="18"/>
<text text-anchor="middle" x="2891.13" y="-1236.95" font-family="Times New Roman,serif" font-size="14.00">Alice: “你有进行现场验尸吗？”</text>
</g>
<!-- 5 -->
<g id="node6" class="node">
<title>5</title>
<ellipse fill="none" stroke="black" cx="2995.13" cy="-1170" rx="145.52" ry="18"/>
<text text-anchor="middle" x="2995.13" y="-1164.95" font-family="Times New Roman,serif" font-size="14.00">You: “不，只是一个推论。”</text>
</g>
<!-- 4&#45;&gt;5 -->
<g id="edge5" class="edge">
<title>4&#45;&gt;5</title>
<path fill="none" stroke="black" d="M2916.57,-1223.88C2929.66,-1215.06 2945.83,-1204.18 2960.08,-1194.59"/>
<polygon fill="black" stroke="black" points="2961.99,-1197.52 2968.33,-1189.03 2958.08,-1191.72 2961.99,-1197.52"/>
</g>
<!-- 14 -->
<g id="node15" class="node">
<title>14</title>
<ellipse fill="none" stroke="black" cx="3100.13" cy="-1098" rx="58.52" ry="18"/>
<text text-anchor="middle" x="3100.13" y="-1092.95" font-family="Times New Roman,serif" font-size="14.00">IsKimHere()</text>
</g>
<!-- 5&#45;&gt;14 -->
<g id="edge6" class="edge">
<title>5&#45;&gt;14</title>
<path fill="none" stroke="black" d="M3020.81,-1151.88C3034.76,-1142.58 3052.15,-1130.98 3067.1,-1121.02"/>
<polygon fill="black" stroke="black" points="3068.86,-1124.05 3075.24,-1115.59 3064.98,-1118.22 3068.86,-1124.05"/>
</g>
<!-- 6 -->
<g id="node7" class="node">
<title>6</title>
<ellipse fill="none" stroke="black" cx="800.13" cy="-882" rx="509.42" ry="18"/>
<text text-anchor="middle" x="800.13" y="-876.95" font-family="Times New Roman,serif" font-size="14.00">Kim Kitsuragi: “我们怀疑他摔倒的时候可能是喝醉了——周围都是瓶子，衬衫上还有呕吐物的痕迹。”</text>
</g>
<!-- 40 -->
<g id="node41" class="node">
<title>40</title>
<ellipse fill="none" stroke="black" cx="1337.13" cy="-810" rx="632.77" ry="18"/>
<text text-anchor="middle" x="1337.13" y="-804.95" font-family="Times New Roman,serif" font-size="14.00">Alice: “我已经把案件指派给了你和曷城警督。请追查图书馆的线索确认这名男子的身份。我们会派人把尸体送到停尸房。”</text>
</g>
<!-- 6&#45;&gt;40 -->
<g id="edge7" class="edge">
<title>6&#45;&gt;40</title>
<path fill="none" stroke="black" d="M929.43,-864.14C1009.55,-853.7 1112.51,-840.28 1194.92,-829.54"/>
<polygon fill="black" stroke="black" points="1195.18,-833.03 1204.64,-828.27 1194.28,-826.09 1195.18,-833.03"/>
</g>
<!-- 7 -->
<g id="node8" class="node">
<title>7</title>
<ellipse fill="none" stroke="black" cx="4261.13" cy="-1314" rx="279.62" ry="18"/>
<text text-anchor="middle" x="4261.13" y="-1308.95" font-family="Times New Roman,serif" font-size="14.00">Alice: “他的随身物品呢？你有没有检查过他的衣服？”</text>
</g>
<!-- 18 -->
<g id="node19" class="node">
<title>18</title>
<ellipse fill="none" stroke="black" cx="3825.13" cy="-522" rx="157.3" ry="18"/>
<text text-anchor="middle" x="3825.13" y="-516.95" font-family="Times New Roman,serif" font-size="14.00">You: “我们会接下这个案子。”</text>
</g>
<!-- 7&#45;&gt;18 -->
<g id="edge8" class="edge">
<title>7&#45;&gt;18</title>
<path fill="none" stroke="black" d="M4261.13,-1295.51C4261.13,-1268.71 4261.13,-1215.87 4261.13,-1171 4261.13,-1171 4261.13,-1171 4261.13,-665 4261.13,-618.03 4243.67,-601.35 4204.13,-576 4166.78,-552.06 4065.27,-538.67 3976.7,-531.35"/>
<polygon fill="black" stroke="black" points="3977.17,-527.87 3966.92,-530.56 3976.61,-534.85 3977.17,-527.87"/>
</g>
<!-- 8 -->
<g id="node9" class="node">
<title>8</title>
<ellipse fill="none" stroke="black" cx="3499.13" cy="-1386" rx="325.17" ry="18"/>
<text text-anchor="middle" x="3499.13" y="-1380.95" font-family="Times New Roman,serif" font-size="14.00">You: “是加姆洛克公里图书馆的。属于某个叫比莉·梅让的人。”</text>
</g>
<!-- 45 -->
<g id="node46" class="node">
<title>45</title>
<ellipse fill="none" stroke="black" cx="3400.13" cy="-1314" rx="523.24" ry="18"/>
<text text-anchor="middle" x="3400.13" y="-1308.95" font-family="Times New Roman,serif" font-size="14.00">Alice: “一个连环杀手。”你可以听见她停下了打字的动作。“你是想说也许跟你手上的案子有关联吗？”</text>
</g>
<!-- 8&#45;&gt;45 -->
<g id="edge9" class="edge">
<title>8&#45;&gt;45</title>
<path fill="none" stroke="black" d="M3474.65,-1367.7C3462.4,-1359.03 3447.36,-1348.4 3434.02,-1338.96"/>
<polygon fill="black" stroke="black" points="3436.08,-1336.14 3425.9,-1333.22 3432.04,-1341.85 3436.08,-1336.14"/>
</g>
<!-- 9 -->
<g id="node10" class="node">
<title>9</title>
<ellipse fill="none" stroke="black" cx="3200.13" cy="-738" rx="310.84" ry="18"/>
<text text-anchor="middle" x="3200.13" y="-732.95" font-family="Times New Roman,serif" font-size="14.00">Alice: “你能不能描述一下那具尸体——年龄，性别，死因？”</text>
</g>
<!-- 49 -->
<g id="node50" class="node">
<title>49</title>
<polygon fill="none" stroke="black" points="3427.13,-684 3127.23,-666 3427.13,-648 3727.02,-666 3427.13,-684"/>
<text text-anchor="middle" x="3427.13" y="-660.95" font-family="Times New Roman,serif" font-size="14.00">Variable[&quot;boardwalk.corpse_viscal_personal_details&quot;]</text>
</g>
<!-- 9&#45;&gt;49 -->
<g id="edge10" class="edge">
<title>9&#45;&gt;49</title>
<path fill="none" stroke="black" d="M3255.66,-719.88C3290,-709.28 3334.03,-695.71 3368.87,-684.96"/>
<polygon fill="black" stroke="black" points="3369.87,-688.32 3378.39,-682.03 3367.81,-681.63 3369.87,-688.32"/>
</g>
<!-- 10 -->
<g id="node11" class="node">
<title>10</title>
<ellipse fill="none" stroke="black" cx="3004.13" cy="-522" rx="216.67" ry="18"/>
<text text-anchor="middle" x="3004.13" y="-516.95" font-family="Times New Roman,serif" font-size="14.00">Alice: “无需进行现场验尸……”她重复到。</text>
</g>
<!-- 47 -->
<g id="node48" class="node">
<title>47</title>
<ellipse fill="none" stroke="black" cx="3366.13" cy="-162" rx="74.89" ry="18"/>
<text text-anchor="middle" x="3366.13" y="-156.95" font-family="Times New Roman,serif" font-size="14.00">You: “不是。”</text>
</g>
<!-- 10&#45;&gt;47 -->
<g id="edge11" class="edge">
<title>10&#45;&gt;47</title>
<path fill="none" stroke="black" d="M3083.25,-504.78C3184.54,-481.69 3347.13,-435.8 3347.13,-379 3347.13,-379 3347.13,-379 3347.13,-305 3347.13,-265.39 3354.48,-220.11 3360.04,-191.54"/>
<polygon fill="black" stroke="black" points="3363.44,-192.37 3361.98,-181.87 3356.58,-190.98 3363.44,-192.37"/>
</g>
<!-- 11 -->
<g id="node12" class="node">
<title>11</title>
<ellipse fill="none" stroke="black" cx="3630.13" cy="-1530" rx="184.42" ry="18"/>
<text text-anchor="middle" x="3630.13" y="-1524.95" font-family="Times New Roman,serif" font-size="14.00">Variable[&quot;boardwalk.library_card_main_hub&quot;]</text>
</g>
<!-- 12 -->
<g id="node13" class="node">
<title>12</title>
<polygon fill="none" stroke="black" points="3630.13,-1476 3369.32,-1458 3630.13,-1440 3890.94,-1458 3630.13,-1476"/>
<text text-anchor="middle" x="3630.13" y="-1452.95" font-family="Times New Roman,serif" font-size="14.00">Variable[&quot;boardwalk.library_card_main_hub&quot;]</text>
</g>
<!-- 11&#45;&gt;12 -->
<g id="edge12" class="edge">
<title>11&#45;&gt;12</title>
<path fill="none" stroke="black" d="M3630.13,-1511.7C3630.13,-1504.41 3630.13,-1495.73 3630.13,-1487.54"/>
<polygon fill="black" stroke="black" points="3633.63,-1487.62 3630.13,-1477.62 3626.63,-1487.62 3633.63,-1487.62"/>
</g>
<!-- 13 -->
<g id="node14" class="node">
<title>13</title>
<polygon fill="none" stroke="black" points="2062.13,-1476 1788.29,-1458 2062.13,-1440 2335.97,-1458 2062.13,-1476"/>
<text text-anchor="middle" x="2062.13" y="-1452.95" font-family="Times New Roman,serif" font-size="14.00">!(Variable[&quot;boardwalk.library_card_main_hub&quot;])</text>
</g>
<!-- 11&#45;&gt;13 -->
<g id="edge13" class="edge">
<title>11&#45;&gt;13</title>
<path fill="none" stroke="black" d="M3459.12,-1522.97C3212.84,-1514.05 2744.01,-1496.2 2345.13,-1476 2300.7,-1473.75 2252.36,-1470.97 2208.42,-1468.31"/>
<polygon fill="black" stroke="black" points="2208.76,-1464.83 2198.56,-1467.71 2208.33,-1471.81 2208.76,-1464.83"/>
</g>
<!-- 12&#45;&gt;8 -->
<g id="edge14" class="edge">
<title>12&#45;&gt;8</title>
<path fill="none" stroke="black" d="M3601.38,-1441.64C3583.8,-1432.25 3561.01,-1420.07 3541.41,-1409.59"/>
<polygon fill="black" stroke="black" points="3543.3,-1406.63 3532.83,-1405.01 3540,-1412.81 3543.3,-1406.63"/>
</g>
<!-- 30 -->
<g id="node31" class="node">
<title>30</title>
<ellipse fill="none" stroke="black" cx="2202.13" cy="-1386" rx="332.85" ry="18"/>
<text text-anchor="middle" x="2202.13" y="-1380.95" font-family="Times New Roman,serif" font-size="14.00">Kim Kitsuragi: “指派给其他人，爱丽丝——我们的事已经够多了。”</text>
</g>
<!-- 13&#45;&gt;30 -->
<g id="edge15" class="edge">
<title>13&#45;&gt;30</title>
<path fill="none" stroke="black" d="M2092.85,-1441.64C2111.8,-1432.16 2136.44,-1419.85 2157.52,-1409.31"/>
<polygon fill="black" stroke="black" points="2158.81,-1412.57 2166.18,-1404.97 2155.67,-1406.31 2158.81,-1412.57"/>
</g>
<!-- 15 -->
<g id="node16" class="node">
<title>15</title>
<polygon fill="none" stroke="black" points="3100.13,-1044 3017.37,-1026 3100.13,-1008 3182.88,-1026 3100.13,-1044"/>
<text text-anchor="middle" x="3100.13" y="-1020.95" font-family="Times New Roman,serif" font-size="14.00">IsKimHere()</text>
</g>
<!-- 14&#45;&gt;15 -->
<g id="edge17" class="edge">
<title>14&#45;&gt;15</title>
<path fill="none" stroke="black" d="M3100.13,-1079.7C3100.13,-1072.41 3100.13,-1063.73 3100.13,-1055.54"/>
<polygon fill="black" stroke="black" points="3103.63,-1055.62 3100.13,-1045.62 3096.63,-1055.62 3103.63,-1055.62"/>
</g>
<!-- 16 -->
<g id="node17" class="node">
<title>16</title>
<polygon fill="none" stroke="black" points="4040.13,-324 3944.34,-306 4040.13,-288 4135.91,-306 4040.13,-324"/>
<text text-anchor="middle" x="4040.13" y="-300.95" font-family="Times New Roman,serif" font-size="14.00">!(IsKimHere())</text>
</g>
<!-- 14&#45;&gt;16 -->
<g id="edge16" class="edge">
<title>14&#45;&gt;16</title>
<path fill="none" stroke="black" d="M3158.53,-1095.82C3389.04,-1090.42 4223.13,-1063.39 4223.13,-955 4223.13,-955 4223.13,-955 4223.13,-449 4223.13,-406.81 4220.19,-389.6 4190.13,-360 4167.18,-337.4 4134.02,-324.4 4104.7,-316.93"/>
<polygon fill="black" stroke="black" points="4105.7,-313.57 4095.16,-314.68 4104.09,-320.38 4105.7,-313.57"/>
</g>
<!-- 55 -->
<g id="node56" class="node">
<title>55</title>
<ellipse fill="none" stroke="black" cx="3100.13" cy="-954" rx="58.52" ry="18"/>
<text text-anchor="middle" x="3100.13" y="-948.95" font-family="Times New Roman,serif" font-size="14.00">IsKimHere()</text>
</g>
<!-- 15&#45;&gt;55 -->
<g id="edge18" class="edge">
<title>15&#45;&gt;55</title>
<path fill="none" stroke="black" d="M3100.13,-1007.7C3100.13,-1000.41 3100.13,-991.73 3100.13,-983.54"/>
<polygon fill="black" stroke="black" points="3103.63,-983.62 3100.13,-973.62 3096.63,-983.62 3103.63,-983.62"/>
</g>
<!-- 16&#45;&gt;47 -->
<g id="edge19" class="edge">
<title>16&#45;&gt;47</title>
<path fill="none" stroke="black" d="M3994.24,-296.17C3941.01,-285.86 3850.62,-268.16 3773.13,-252 3651.74,-226.68 3510.41,-195.36 3430.28,-177.43"/>
<polygon fill="black" stroke="black" points="3431.39,-174.09 3420.87,-175.32 3429.86,-180.92 3431.39,-174.09"/>
</g>
<!-- 17 -->
<g id="node18" class="node">
<title>17</title>
<ellipse fill="none" stroke="black" cx="2853.13" cy="-1458" rx="498.67" ry="18"/>
<text text-anchor="middle" x="2853.13" y="-1452.95" font-family="Times New Roman,serif" font-size="14.00">You: “他穿着靴子、裤子和一件带亮蓝色衬里的旧皮夹克。我在他的口袋里发现了一张借书证。”</text>
</g>
<!-- 68 -->
<g id="node69" class="node">
<title>68</title>
<ellipse fill="none" stroke="black" cx="2768.13" cy="-1386" rx="133.75" ry="18"/>
<text text-anchor="middle" x="2768.13" y="-1380.95" font-family="Times New Roman,serif" font-size="14.00">You: “请指派给其他人。”</text>
</g>
<!-- 17&#45;&gt;68 -->
<g id="edge20" class="edge">
<title>17&#45;&gt;68</title>
<path fill="none" stroke="black" d="M2832.12,-1439.7C2821.72,-1431.14 2808.99,-1420.66 2797.64,-1411.3"/>
<polygon fill="black" stroke="black" points="2800.01,-1408.72 2790.06,-1405.07 2795.56,-1414.13 2800.01,-1408.72"/>
</g>
<!-- 41 -->
<g id="node42" class="node">
<title>41</title>
<ellipse fill="none" stroke="black" cx="3825.13" cy="-450" rx="338.48" ry="18"/>
<text text-anchor="middle" x="3825.13" y="-444.95" font-family="Times New Roman,serif" font-size="14.00">Alice: “现在先到这里吧。谢谢你的汇报。还有什么能帮你的吗？”</text>
</g>
<!-- 18&#45;&gt;41 -->
<g id="edge21" class="edge">
<title>18&#45;&gt;41</title>
<path fill="none" stroke="black" d="M3825.13,-503.7C3825.13,-496.41 3825.13,-487.73 3825.13,-479.54"/>
<polygon fill="black" stroke="black" points="3828.63,-479.62 3825.13,-469.62 3821.63,-479.62 3828.63,-479.62"/>
</g>
<!-- 19 -->
<g id="node20" class="node">
<title>19</title>
<ellipse fill="none" stroke="black" cx="3803.13" cy="-666" rx="58.52" ry="18"/>
<text text-anchor="middle" x="3803.13" y="-660.95" font-family="Times New Roman,serif" font-size="14.00">IsKimHere()</text>
</g>
<!-- 21 -->
<g id="node22" class="node">
<title>21</title>
<polygon fill="none" stroke="black" points="3287.13,-612 3191.34,-594 3287.13,-576 3382.91,-594 3287.13,-612"/>
<text text-anchor="middle" x="3287.13" y="-588.95" font-family="Times New Roman,serif" font-size="14.00">!(IsKimHere())</text>
</g>
<!-- 19&#45;&gt;21 -->
<g id="edge22" class="edge">
<title>19&#45;&gt;21</title>
<path fill="none" stroke="black" d="M3760.8,-653.28C3752.65,-651.3 3744.16,-649.43 3736.13,-648 3584.79,-621.03 3544.51,-632.29 3392.13,-612 3377.32,-610.03 3361.39,-607.61 3346.52,-605.21"/>
<polygon fill="black" stroke="black" points="3347.32,-601.8 3336.89,-603.64 3346.2,-608.71 3347.32,-601.8"/>
</g>
<!-- 22 -->
<g id="node23" class="node">
<title>22</title>
<ellipse fill="none" stroke="black" cx="3798.13" cy="-594" rx="397.33" ry="18"/>
<text text-anchor="middle" x="3798.13" y="-588.95" font-family="Times New Roman,serif" font-size="14.00">Alice: “那他的随身物品呢？有没有检查他的衣物？”她假装什么也没发生过。</text>
</g>
<!-- 19&#45;&gt;22 -->
<g id="edge23" class="edge">
<title>19&#45;&gt;22</title>
<path fill="none" stroke="black" d="M3801.89,-647.7C3801.37,-640.41 3800.75,-631.73 3800.16,-623.54"/>
<polygon fill="black" stroke="black" points="3803.66,-623.34 3799.46,-613.61 3796.68,-623.84 3803.66,-623.34"/>
</g>
<!-- 20 -->
<g id="node21" class="node">
<title>20</title>
<polygon fill="none" stroke="black" points="4464.13,-324 4381.37,-306 4464.13,-288 4546.88,-306 4464.13,-324"/>
<text text-anchor="middle" x="4464.13" y="-300.95" font-family="Times New Roman,serif" font-size="14.00">IsKimHere()</text>
</g>
<!-- 31 -->
<g id="node32" class="node">
<title>31</title>
<ellipse fill="none" stroke="black" cx="4282.13" cy="-234" rx="499.7" ry="18"/>
<text text-anchor="middle" x="4282.13" y="-228.95" font-family="Times New Roman,serif" font-size="14.00">Alice: “我明白了。”一阵沉默。“既然你们正在处理这个案子，也许你应该跟曷城警督讨论一下。”</text>
</g>
<!-- 20&#45;&gt;31 -->
<g id="edge24" class="edge">
<title>20&#45;&gt;31</title>
<path fill="none" stroke="black" d="M4435.29,-293.91C4409.17,-283.86 4369.97,-268.79 4337.77,-256.4"/>
<polygon fill="black" stroke="black" points="4339.15,-253.18 4328.56,-252.86 4336.64,-259.72 4339.15,-253.18"/>
</g>
<!-- 69 -->
<g id="node70" class="node">
<title>69</title>
<ellipse fill="none" stroke="black" cx="3287.13" cy="-522" rx="27" ry="18"/>
<text text-anchor="middle" x="3287.13" y="-516.95" font-family="Times New Roman,serif" font-size="14.00">69</text>
</g>
<!-- 21&#45;&gt;69 -->
<g id="edge25" class="edge">
<title>21&#45;&gt;69</title>
<path fill="none" stroke="black" d="M3287.13,-575.7C3287.13,-568.41 3287.13,-559.73 3287.13,-551.54"/>
<polygon fill="black" stroke="black" points="3290.63,-551.62 3287.13,-541.62 3283.63,-551.62 3290.63,-551.62"/>
</g>
<!-- 22&#45;&gt;18 -->
<g id="edge26" class="edge">
<title>22&#45;&gt;18</title>
<path fill="none" stroke="black" d="M3804.8,-575.7C3807.71,-568.15 3811.19,-559.12 3814.45,-550.68"/>
<polygon fill="black" stroke="black" points="3817.65,-552.11 3817.98,-541.52 3811.12,-549.59 3817.65,-552.11"/>
</g>
<!-- 23 -->
<g id="node24" class="node">
<title>23</title>
<ellipse fill="none" stroke="black" cx="2725.13" cy="-306" rx="212.57" ry="18"/>
<text text-anchor="middle" x="2725.13" y="-300.95" font-family="Times New Roman,serif" font-size="14.00">Alice: 你可以听见她在另一头的叹气声。</text>
</g>
<!-- 54 -->
<g id="node55" class="node">
<title>54</title>
<ellipse fill="none" stroke="black" cx="2781.13" cy="-234" rx="509.93" ry="18"/>
<text text-anchor="middle" x="2781.13" y="-228.95" font-family="Times New Roman,serif" font-size="14.00">Kim Kitsuragi: “在我看来是个意外，爱丽丝，”警督连忙插嘴。“不过还是交给分析部的人去确认吧。”</text>
</g>
<!-- 23&#45;&gt;54 -->
<g id="edge27" class="edge">
<title>23&#45;&gt;54</title>
<path fill="none" stroke="black" d="M2738.97,-287.7C2745.41,-279.64 2753.21,-269.89 2760.34,-260.98"/>
<polygon fill="black" stroke="black" points="2762.98,-263.28 2766.5,-253.29 2757.52,-258.91 2762.98,-263.28"/>
</g>
<!-- 24 -->
<g id="node25" class="node">
<title>24</title>
<ellipse fill="none" stroke="black" cx="1628.13" cy="-1098" rx="58.52" ry="18"/>
<text text-anchor="middle" x="1628.13" y="-1092.95" font-family="Times New Roman,serif" font-size="14.00">IsKimHere()</text>
</g>
<!-- 26 -->
<g id="node27" class="node">
<title>26</title>
<polygon fill="none" stroke="black" points="1421.13,-972 1325.34,-954 1421.13,-936 1516.91,-954 1421.13,-972"/>
<text text-anchor="middle" x="1421.13" y="-948.95" font-family="Times New Roman,serif" font-size="14.00">!(IsKimHere())</text>
</g>
<!-- 24&#45;&gt;26 -->
<g id="edge28" class="edge">
<title>24&#45;&gt;26</title>
<path fill="none" stroke="black" d="M1629.37,-1079.54C1629.79,-1059.64 1627.28,-1027.36 1609.13,-1008 1583.06,-980.2 1543.66,-966.59 1507.64,-960.08"/>
<polygon fill="black" stroke="black" points="1508.52,-956.67 1498.09,-958.52 1507.39,-963.58 1508.52,-956.67"/>
</g>
<!-- 27 -->
<g id="node28" class="node">
<title>27</title>
<ellipse fill="none" stroke="black" cx="800.13" cy="-1026" rx="800.13" ry="18"/>
<text text-anchor="middle" x="800.13" y="-1020.95" font-family="Times New Roman,serif" font-size="14.00">You: “一个身份不明的中年男子。身高大约170&#45;175厘米，深色头发，中等身材。看起来像是脚滑了一下，从木板道的洞里摔了下去，脑袋撞到了金属长凳。”</text>
</g>
<!-- 24&#45;&gt;27 -->
<g id="edge29" class="edge">
<title>24&#45;&gt;27</title>
<path fill="none" stroke="black" d="M1572.19,-1092.27C1459.15,-1082.71 1198.38,-1060.67 1011.17,-1044.84"/>
<polygon fill="black" stroke="black" points="1011.56,-1041.36 1001.3,-1044.01 1010.97,-1048.34 1011.56,-1041.36"/>
</g>
<!-- 35 -->
<g id="node36" class="node">
<title>35</title>
<ellipse fill="none" stroke="black" cx="1988.13" cy="-522" rx="58.52" ry="18"/>
<text text-anchor="middle" x="1988.13" y="-516.95" font-family="Times New Roman,serif" font-size="14.00">IsKimHere()</text>
</g>
<!-- 25&#45;&gt;35 -->
<g id="edge30" class="edge">
<title>25&#45;&gt;35</title>
<path fill="none" stroke="black" d="M1952.89,-577.81C1958.19,-569.57 1964.88,-559.15 1971.02,-549.62"/>
<polygon fill="black" stroke="black" points="1973.83,-551.7 1976.3,-541.4 1967.95,-547.92 1973.83,-551.7"/>
</g>
<!-- 26&#45;&gt;40 -->
<g id="edge31" class="edge">
<title>26&#45;&gt;40</title>
<path fill="none" stroke="black" d="M1398.16,-939.91C1383.89,-930.59 1366.38,-916.77 1356.13,-900 1345.03,-881.84 1340.35,-858.15 1338.41,-839.78"/>
<polygon fill="black" stroke="black" points="1341.9,-839.5 1337.59,-829.82 1334.92,-840.07 1341.9,-839.5"/>
</g>
<!-- 56 -->
<g id="node57" class="node">
<title>56</title>
<polygon fill="none" stroke="black" points="800.13,-972 717.37,-954 800.13,-936 882.88,-954 800.13,-972"/>
<text text-anchor="middle" x="800.13" y="-948.95" font-family="Times New Roman,serif" font-size="14.00">IsKimHere()</text>
</g>
<!-- 27&#45;&gt;56 -->
<g id="edge32" class="edge">
<title>27&#45;&gt;56</title>
<path fill="none" stroke="black" d="M800.13,-1007.7C800.13,-1000.41 800.13,-991.73 800.13,-983.54"/>
<polygon fill="black" stroke="black" points="803.63,-983.62 800.13,-973.62 796.63,-983.62 803.63,-983.62"/>
</g>
<!-- 28 -->
<g id="node29" class="node">
<title>28</title>
<ellipse fill="none" stroke="black" cx="3004.13" cy="-594" rx="169.07" ry="18"/>
<text text-anchor="middle" x="3004.13" y="-588.95" font-family="Times New Roman,serif" font-size="14.00">You: “没有，看起来像是意外。”</text>
</g>
<!-- 28&#45;&gt;10 -->
<g id="edge33" class="edge">
<title>28&#45;&gt;10</title>
<path fill="none" stroke="black" d="M3004.13,-575.7C3004.13,-568.41 3004.13,-559.73 3004.13,-551.54"/>
<polygon fill="black" stroke="black" points="3007.63,-551.62 3004.13,-541.62 3000.63,-551.62 3007.63,-551.62"/>
</g>
<!-- 29 -->
<g id="node30" class="node">
<title>29</title>
<ellipse fill="none" stroke="black" cx="2565.13" cy="-1602" rx="133.75" ry="18"/>
<text text-anchor="middle" x="2565.13" y="-1596.95" font-family="Times New Roman,serif" font-size="14.00">You: “我还没有检查过。”</text>
</g>
<!-- 29&#45;&gt;24 -->
<g id="edge34" class="edge">
<title>29&#45;&gt;24</title>
<path fill="none" stroke="black" d="M2445.39,-1593.72C2206.65,-1577.59 1694.13,-1534.22 1694.13,-1459 1694.13,-1459 1694.13,-1459 1694.13,-1241 1694.13,-1197.18 1667.96,-1152.24 1648.57,-1124.97"/>
<polygon fill="black" stroke="black" points="1651.44,-1122.96 1642.7,-1116.97 1645.8,-1127.1 1651.44,-1122.96"/>
</g>
<!-- 66 -->
<g id="node67" class="node">
<title>66</title>
<ellipse fill="none" stroke="black" cx="2682.13" cy="-1314" rx="176.74" ry="18"/>
<text text-anchor="middle" x="2682.13" y="-1308.95" font-family="Times New Roman,serif" font-size="14.00">You: “也许有人……推了他一把？”</text>
</g>
<!-- 30&#45;&gt;66 -->
<g id="edge35" class="edge">
<title>30&#45;&gt;66</title>
<path fill="none" stroke="black" d="M2314.67,-1368.59C2392.45,-1357.25 2495.39,-1342.23 2572.52,-1330.98"/>
<polygon fill="black" stroke="black" points="2572.82,-1334.48 2582.21,-1329.57 2571.81,-1327.55 2572.82,-1334.48"/>
</g>
<!-- 31&#45;&gt;47 -->
<g id="edge36" class="edge">
<title>31&#45;&gt;47</title>
<path fill="none" stroke="black" d="M4075.13,-217.18C3877,-202.04 3588.2,-179.97 3448.25,-169.28"/>
<polygon fill="black" stroke="black" points="3448.55,-165.79 3438.31,-168.52 3448.01,-172.77 3448.55,-165.79"/>
</g>
<!-- 32 -->
<g id="node33" class="node">
<title>32</title>
<ellipse fill="none" stroke="black" cx="958.13" cy="-666" rx="137.85" ry="18"/>
<text text-anchor="middle" x="958.13" y="-660.95" font-family="Times New Roman,serif" font-size="14.00">Jump to: [The actual Radio HUB]</text>
</g>
<!-- 33 -->
<g id="node34" class="node">
<title>33</title>
<ellipse fill="none" stroke="black" cx="3825.13" cy="-378" rx="338.48" ry="18"/>
<text text-anchor="middle" x="3825.13" y="-372.95" font-family="Times New Roman,serif" font-size="14.00">Alice: “现在先到这里吧。谢谢你的汇报。还有什么能帮你的吗？”</text>
</g>
<!-- 33&#45;&gt;33 -->
<g id="edge37" class="edge">
<title>33&#45;&gt;33</title>
<path fill="none" stroke="black" d="M4056.98,-391.48C4126.96,-391.12 4181.6,-386.63 4181.6,-378 4181.6,-369.84 4132.78,-365.38 4068.32,-364.62"/>
<polygon fill="black" stroke="black" points="4068.53,-361.12 4058.5,-364.54 4068.47,-368.12 4068.53,-361.12"/>
</g>
<!-- 34 -->
<g id="node35" class="node">
<title>34</title>
<ellipse fill="none" stroke="black" cx="2135.13" cy="-882" rx="770.44" ry="18"/>
<text text-anchor="middle" x="2135.13" y="-876.95" font-family="Times New Roman,serif" font-size="14.00">Kim Kitsuragi: “这个男子大概身高173厘米，肥胖，黑头发，留小胡子。我们怀疑他可能是醉酒摔倒的——他身边都是瓶子，衬衫上还有呕吐物的痕迹。”</text>
</g>
<!-- 34&#45;&gt;40 -->
<g id="edge38" class="edge">
<title>34&#45;&gt;40</title>
<path fill="none" stroke="black" d="M1942.46,-864.1C1820.01,-853.36 1661.79,-839.48 1537.82,-828.6"/>
<polygon fill="black" stroke="black" points="1538.47,-825.15 1528.2,-827.76 1537.85,-832.12 1538.47,-825.15"/>
</g>
<!-- 37 -->
<g id="node38" class="node">
<title>37</title>
<polygon fill="none" stroke="black" points="2725.13,-468 2629.34,-450 2725.13,-432 2820.91,-450 2725.13,-468"/>
<text text-anchor="middle" x="2725.13" y="-444.95" font-family="Times New Roman,serif" font-size="14.00">!(IsKimHere())</text>
</g>
<!-- 35&#45;&gt;37 -->
<g id="edge39" class="edge">
<title>35&#45;&gt;37</title>
<path fill="none" stroke="black" d="M2045.45,-517.71C2156.72,-511 2409.61,-494.1 2621.13,-468 2635.89,-466.18 2651.76,-463.8 2666.55,-461.4"/>
<polygon fill="black" stroke="black" points="2666.82,-464.9 2676.11,-459.82 2665.68,-458 2666.82,-464.9"/>
</g>
<!-- 38 -->
<g id="node39" class="node">
<title>38</title>
<ellipse fill="none" stroke="black" cx="1988.13" cy="-450" rx="623.55" ry="18"/>
<text text-anchor="middle" x="1988.13" y="-444.95" font-family="Times New Roman,serif" font-size="14.00">Kim Kitsuragi: “不，我们没有，”警督连忙插嘴。“没有证据显示这个人跟私刑案有关——或者说我们在对付一个连环杀手。”</text>
</g>
<!-- 35&#45;&gt;38 -->
<g id="edge40" class="edge">
<title>35&#45;&gt;38</title>
<path fill="none" stroke="black" d="M1988.13,-503.7C1988.13,-496.41 1988.13,-487.73 1988.13,-479.54"/>
<polygon fill="black" stroke="black" points="1991.63,-479.62 1988.13,-469.62 1984.63,-479.62 1991.63,-479.62"/>
</g>
<!-- 36 -->
<g id="node37" class="node">
<title>36</title>
<polygon fill="none" stroke="black" points="3675.13,-1260 3592.37,-1242 3675.13,-1224 3757.88,-1242 3675.13,-1260"/>
<text text-anchor="middle" x="3675.13" y="-1236.95" font-family="Times New Roman,serif" font-size="14.00">IsKimHere()</text>
</g>
<!-- 39 -->
<g id="node40" class="node">
<title>39</title>
<ellipse fill="none" stroke="black" cx="3807.13" cy="-1674" rx="161.9" ry="18"/>
<text text-anchor="middle" x="3807.13" y="-1668.95" font-family="Times New Roman,serif" font-size="14.00">Alice: “有遭受暴力的痕迹吗？”</text>
</g>
<!-- 36&#45;&gt;39 -->
<g id="edge41" class="edge">
<title>36&#45;&gt;39</title>
<path fill="none" stroke="black" d="M3733.64,-1247.72C3800.64,-1254.34 3904.69,-1268.75 3932.13,-1296 3960.83,-1324.5 3951.13,-1344.55 3951.13,-1385 3951.13,-1531 3951.13,-1531 3951.13,-1531 3951.13,-1586.3 3896.61,-1627.31 3854.67,-1650.68"/>
<polygon fill="black" stroke="black" points="3853.07,-1647.56 3845.92,-1655.38 3856.38,-1653.73 3853.07,-1647.56"/>
</g>
<!-- 59 -->
<g id="node60" class="node">
<title>59</title>
<ellipse fill="none" stroke="black" cx="2725.13" cy="-378" rx="217.18" ry="18"/>
<text text-anchor="middle" x="2725.13" y="-372.95" font-family="Times New Roman,serif" font-size="14.00">Alice: “你瞎编的？”一阵沉默。“明白了。”</text>
</g>
<!-- 37&#45;&gt;59 -->
<g id="edge42" class="edge">
<title>37&#45;&gt;59</title>
<path fill="none" stroke="black" d="M2725.13,-431.7C2725.13,-424.41 2725.13,-415.73 2725.13,-407.54"/>
<polygon fill="black" stroke="black" points="2728.63,-407.62 2725.13,-397.62 2721.63,-407.62 2728.63,-407.62"/>
</g>
<!-- 52 -->
<g id="node53" class="node">
<title>52</title>
<ellipse fill="none" stroke="black" cx="2073.13" cy="-378" rx="332.33" ry="18"/>
<text text-anchor="middle" x="2073.13" y="-372.95" font-family="Times New Roman,serif" font-size="14.00">Alice: “不是？难道还有*其他*连环杀手？”一阵沉默。“明白了。”</text>
</g>
<!-- 38&#45;&gt;52 -->
<g id="edge43" class="edge">
<title>38&#45;&gt;52</title>
<path fill="none" stroke="black" d="M2009.14,-431.7C2019.46,-423.2 2032.07,-412.81 2043.36,-403.51"/>
<polygon fill="black" stroke="black" points="2045.4,-406.37 2050.89,-397.31 2040.95,-400.96 2045.4,-406.37"/>
</g>
<!-- 39&#45;&gt;2 -->
<g id="edge44" class="edge">
<title>39&#45;&gt;2</title>
<path fill="none" stroke="black" d="M3895.39,-1658.5C3962.48,-1647.47 4055.05,-1632.26 4126.32,-1620.55"/>
<polygon fill="black" stroke="black" points="4126.77,-1624.02 4136.07,-1618.95 4125.64,-1617.12 4126.77,-1624.02"/>
</g>
<!-- 39&#45;&gt;29 -->
<g id="edge46" class="edge">
<title>39&#45;&gt;29</title>
<path fill="none" stroke="black" d="M3665.26,-1665C3423.22,-1651.36 2933.85,-1623.78 2698.06,-1610.49"/>
<polygon fill="black" stroke="black" points="2698.37,-1607 2688.19,-1609.94 2697.98,-1613.99 2698.37,-1607"/>
</g>
<!-- 67 -->
<g id="node68" class="node">
<title>67</title>
<ellipse fill="none" stroke="black" cx="3706.13" cy="-1602" rx="173.67" ry="18"/>
<text text-anchor="middle" x="3706.13" y="-1596.95" font-family="Times New Roman,serif" font-size="14.00">Alice: “借书证上有什么信息吗？”</text>
</g>
<!-- 39&#45;&gt;67 -->
<g id="edge45" class="edge">
<title>39&#45;&gt;67</title>
<path fill="none" stroke="black" d="M3782.42,-1655.88C3769.7,-1647.06 3754,-1636.18 3740.16,-1626.59"/>
<polygon fill="black" stroke="black" points="3742.39,-1623.87 3732.17,-1621.05 3738.4,-1629.62 3742.39,-1623.87"/>
</g>
<!-- 42 -->
<g id="node43" class="node">
<title>42</title>
<ellipse fill="none" stroke="black" cx="1137.13" cy="-738" rx="74.89" ry="18"/>
<text text-anchor="middle" x="1137.13" y="-732.95" font-family="Times New Roman,serif" font-size="14.00">You: “是的。”</text>
</g>
<!-- 40&#45;&gt;42 -->
<g id="edge47" class="edge">
<title>40&#45;&gt;42</title>
<path fill="none" stroke="black" d="M1287.43,-791.61C1257.45,-781.11 1219.31,-767.76 1188.95,-757.14"/>
<polygon fill="black" stroke="black" points="1190.17,-753.86 1179.57,-753.86 1187.86,-760.46 1190.17,-753.86"/>
</g>
<!-- 41&#45;&gt;33 -->
<g id="edge48" class="edge">
<title>41&#45;&gt;33</title>
<path fill="none" stroke="black" d="M3825.13,-431.7C3825.13,-424.41 3825.13,-415.73 3825.13,-407.54"/>
<polygon fill="black" stroke="black" points="3828.63,-407.62 3825.13,-397.62 3821.63,-407.62 3828.63,-407.62"/>
</g>
<!-- 42&#45;&gt;32 -->
<g id="edge49" class="edge">
<title>42&#45;&gt;32</title>
<path fill="none" stroke="black" d="M1099.17,-722.15C1073.5,-712.12 1039.27,-698.73 1010.95,-687.66"/>
<polygon fill="black" stroke="black" points="1012.42,-684.47 1001.83,-684.09 1009.87,-690.99 1012.42,-684.47"/>
</g>
<!-- 43 -->
<g id="node44" class="node">
<title>43</title>
<ellipse fill="none" stroke="black" cx="3824.13" cy="-810" rx="362.02" ry="18"/>
<text text-anchor="middle" x="3824.13" y="-804.95" font-family="Times New Roman,serif" font-size="14.00">Alice: “你和曷城警督想要接下这个案子吗，还是我把它指派给别人？”</text>
</g>
<!-- 61 -->
<g id="node62" class="node">
<title>61</title>
<polygon fill="none" stroke="black" points="3807.13,-756 3548.49,-738 3807.13,-720 4065.77,-738 3807.13,-756"/>
<text text-anchor="middle" x="3807.13" y="-732.95" font-family="Times New Roman,serif" font-size="14.00">Variable[&quot;TASK.identify_corpse_boardwalk&quot;]</text>
</g>
<!-- 43&#45;&gt;61 -->
<g id="edge50" class="edge">
<title>43&#45;&gt;61</title>
<path fill="none" stroke="black" d="M3819.92,-791.7C3818.13,-784.32 3816,-775.52 3813.99,-767.25"/>
<polygon fill="black" stroke="black" points="3817.4,-766.47 3811.64,-757.58 3810.6,-768.12 3817.4,-766.47"/>
</g>
<!-- 44 -->
<g id="node45" class="node">
<title>44</title>
<ellipse fill="none" stroke="black" cx="3366.13" cy="-18" rx="150.13" ry="18"/>
<text text-anchor="middle" x="3366.13" y="-12.95" font-family="Times New Roman,serif" font-size="14.00">Alice: “很好，你有线索了。”</text>
</g>
<!-- 44&#45;&gt;44 -->
<g id="edge51" class="edge">
<title>44&#45;&gt;44</title>
<path fill="none" stroke="black" d="M3469.15,-31.49C3505.13,-31.67 3534.26,-27.18 3534.26,-18 3534.26,-9.79 3510.95,-5.33 3480.28,-4.6"/>
<polygon fill="black" stroke="black" points="3480.69,-1.11 3470.66,-4.52 3480.63,-8.11 3480.69,-1.11"/>
</g>
<!-- 45&#45;&gt;36 -->
<g id="edge52" class="edge">
<title>45&#45;&gt;36</title>
<path fill="none" stroke="black" d="M3468.1,-1295.7C3517.56,-1283.11 3583.3,-1266.37 3627.3,-1255.17"/>
<polygon fill="black" stroke="black" points="3627.98,-1258.61 3636.81,-1252.75 3626.25,-1251.83 3627.98,-1258.61"/>
</g>
<!-- 46&#45;&gt;7 -->
<g id="edge53" class="edge">
<title>46&#45;&gt;7</title>
<path fill="none" stroke="black" d="M4261.13,-1511.85C4261.13,-1475.14 4261.13,-1388.66 4261.13,-1343.53"/>
<polygon fill="black" stroke="black" points="4264.63,-1343.75 4261.13,-1333.75 4257.63,-1343.75 4264.63,-1343.75"/>
</g>
<!-- 53 -->
<g id="node54" class="node">
<title>53</title>
<ellipse fill="none" stroke="black" cx="3366.13" cy="-90" rx="200.8" ry="18"/>
<text text-anchor="middle" x="3366.13" y="-84.95" font-family="Times New Roman,serif" font-size="14.00">Authority: 你真是太不专业了……可惜！</text>
</g>
<!-- 47&#45;&gt;53 -->
<g id="edge54" class="edge">
<title>47&#45;&gt;53</title>
<path fill="none" stroke="black" d="M3366.13,-143.7C3366.13,-136.41 3366.13,-127.73 3366.13,-119.54"/>
<polygon fill="black" stroke="black" points="3369.63,-119.62 3366.13,-109.62 3362.63,-119.62 3369.63,-119.62"/>
</g>
<!-- 48 -->
<g id="node49" class="node">
<title>48</title>
<ellipse fill="none" stroke="black" cx="2686.13" cy="-810" rx="212.06" ry="18"/>
<text text-anchor="middle" x="2686.13" y="-804.95" font-family="Times New Roman,serif" font-size="14.00">Variable[&quot;boardwalk.corpse_viscal_personal_details&quot;]</text>
</g>
<!-- 50 -->
<g id="node51" class="node">
<title>50</title>
<polygon fill="none" stroke="black" points="2030.13,-756 1717.2,-738 2030.13,-720 2343.05,-738 2030.13,-756"/>
<text text-anchor="middle" x="2030.13" y="-732.95" font-family="Times New Roman,serif" font-size="14.00">!(Variable[&quot;boardwalk.corpse_viscal_personal_details&quot;])</text>
</g>
<!-- 48&#45;&gt;50 -->
<g id="edge55" class="edge">
<title>48&#45;&gt;50</title>
<path fill="none" stroke="black" d="M2557.7,-795.3C2438.75,-782.6 2263.33,-763.88 2147.91,-751.57"/>
<polygon fill="black" stroke="black" points="2148.4,-748.1 2138.09,-750.52 2147.66,-755.06 2148.4,-748.1"/>
</g>
<!-- 51 -->
<g id="node52" class="node">
<title>51</title>
<ellipse fill="none" stroke="black" cx="2725.13" cy="-666" rx="384.03" ry="18"/>
<text text-anchor="middle" x="2725.13" y="-660.95" font-family="Times New Roman,serif" font-size="14.00">Kim Kitsuragi: “在我看来只是一起简单的意外，爱丽丝。没必要现场验尸。”</text>
</g>
<!-- 48&#45;&gt;51 -->
<g id="edge56" class="edge">
<title>48&#45;&gt;51</title>
<path fill="none" stroke="black" d="M2690.91,-791.59C2697.52,-767.5 2709.54,-723.75 2717.43,-695.03"/>
<polygon fill="black" stroke="black" points="2720.75,-696.14 2720.03,-685.57 2714,-694.29 2720.75,-696.14"/>
</g>
<!-- 49&#45;&gt;28 -->
<g id="edge57" class="edge">
<title>49&#45;&gt;28</title>
<path fill="none" stroke="black" d="M3349.54,-652.16C3280.58,-640.75 3179.34,-623.99 3104.28,-611.57"/>
<polygon fill="black" stroke="black" points="3104.86,-608.12 3094.42,-609.94 3103.72,-615.03 3104.86,-608.12"/>
</g>
<!-- 50&#45;&gt;3 -->
<g id="edge58" class="edge">
<title>50&#45;&gt;3</title>
<path fill="none" stroke="black" d="M1968.11,-723.09C1921.84,-712.7 1857.97,-698.38 1806.38,-686.8"/>
<polygon fill="black" stroke="black" points="1807.23,-683.4 1796.71,-684.63 1805.7,-690.23 1807.23,-683.4"/>
</g>
<!-- 51&#45;&gt;10 -->
<g id="edge59" class="edge">
<title>51&#45;&gt;10</title>
<path fill="none" stroke="black" d="M2740.22,-647.78C2758.63,-627.8 2791.58,-595.14 2826.13,-576 2852.76,-561.25 2883.97,-550.16 2912.75,-542.05"/>
<polygon fill="black" stroke="black" points="2913.46,-545.49 2922.19,-539.49 2911.62,-538.73 2913.46,-545.49"/>
</g>
<!-- 52&#45;&gt;23 -->
<g id="edge60" class="edge">
<title>52&#45;&gt;23</title>
<path fill="none" stroke="black" d="M2218.64,-361.38C2328.2,-349.62 2477.47,-333.59 2585.56,-321.98"/>
<polygon fill="black" stroke="black" points="2585.8,-325.48 2595.37,-320.93 2585.06,-318.52 2585.8,-325.48"/>
</g>
<!-- 53&#45;&gt;44 -->
<g id="edge61" class="edge">
<title>53&#45;&gt;44</title>
<path fill="none" stroke="black" d="M3366.13,-71.7C3366.13,-64.41 3366.13,-55.73 3366.13,-47.54"/>
<polygon fill="black" stroke="black" points="3369.63,-47.62 3366.13,-37.62 3362.63,-47.62 3369.63,-47.62"/>
</g>
<!-- 54&#45;&gt;47 -->
<g id="edge62" class="edge">
<title>54&#45;&gt;47</title>
<path fill="none" stroke="black" d="M2921.25,-216.23C3036.44,-202.45 3195.38,-183.43 3288.8,-172.25"/>
<polygon fill="black" stroke="black" points="3289.12,-175.74 3298.63,-171.08 3288.29,-168.79 3289.12,-175.74"/>
</g>
<!-- 57 -->
<g id="node58" class="node">
<title>57</title>
<polygon fill="none" stroke="black" points="3019.13,-900 2923.34,-882 3019.13,-864 3114.91,-882 3019.13,-900"/>
<text text-anchor="middle" x="3019.13" y="-876.95" font-family="Times New Roman,serif" font-size="14.00">!(IsKimHere())</text>
</g>
<!-- 55&#45;&gt;57 -->
<g id="edge63" class="edge">
<title>55&#45;&gt;57</title>
<path fill="none" stroke="black" d="M3081.34,-936.76C3070.32,-927.24 3056.25,-915.08 3044.28,-904.73"/>
<polygon fill="black" stroke="black" points="3046.62,-902.13 3036.76,-898.24 3042.04,-907.43 3046.62,-902.13"/>
</g>
<!-- 58 -->
<g id="node59" class="node">
<title>58</title>
<ellipse fill="none" stroke="black" cx="3180.13" cy="-882" rx="46.75" ry="18"/>
<text text-anchor="middle" x="3180.13" y="-876.95" font-family="Times New Roman,serif" font-size="14.00">minihubo</text>
</g>
<!-- 55&#45;&gt;58 -->
<g id="edge64" class="edge">
<title>55&#45;&gt;58</title>
<path fill="none" stroke="black" d="M3118.68,-936.76C3129.05,-927.69 3142.16,-916.22 3153.6,-906.21"/>
<polygon fill="black" stroke="black" points="3155.59,-909.12 3160.81,-899.9 3150.98,-903.85 3155.59,-909.12"/>
</g>
<!-- 56&#45;&gt;6 -->
<g id="edge65" class="edge">
<title>56&#45;&gt;6</title>
<path fill="none" stroke="black" d="M800.13,-935.7C800.13,-928.41 800.13,-919.73 800.13,-911.54"/>
<polygon fill="black" stroke="black" points="803.63,-911.62 800.13,-901.62 796.63,-911.62 803.63,-911.62"/>
</g>
<!-- 57&#45;&gt;40 -->
<g id="edge66" class="edge">
<title>57&#45;&gt;40</title>
<path fill="none" stroke="black" d="M2973.03,-872.24C2954.76,-869.11 2933.52,-865.89 2914.13,-864 2716.07,-844.72 2234.92,-830.25 1855.78,-821.35"/>
<polygon fill="black" stroke="black" points="1855.9,-817.85 1845.82,-821.11 1855.74,-824.85 1855.9,-817.85"/>
</g>
<!-- 58&#45;&gt;43 -->
<g id="edge69" class="edge">
<title>58&#45;&gt;43</title>
<path fill="none" stroke="black" d="M3224.9,-876.13C3314.83,-866.36 3521.23,-843.92 3666.56,-828.13"/>
<polygon fill="black" stroke="black" points="3666.72,-831.63 3676.28,-827.07 3665.97,-824.67 3666.72,-831.63"/>
</g>
<!-- 58&#45;&gt;48 -->
<g id="edge67" class="edge">
<title>58&#45;&gt;48</title>
<path fill="none" stroke="black" d="M3145.72,-869.53C3138.64,-867.46 3131.19,-865.49 3124.13,-864 3034.29,-845.08 2932.55,-832.26 2849.76,-823.97"/>
<polygon fill="black" stroke="black" points="2850.27,-820.5 2839.97,-823.01 2849.58,-827.47 2850.27,-820.5"/>
</g>
<!-- 64 -->
<g id="node65" class="node">
<title>64</title>
<ellipse fill="none" stroke="black" cx="3180.13" cy="-810" rx="263.75" ry="18"/>
<text text-anchor="middle" x="3180.13" y="-804.95" font-family="Times New Roman,serif" font-size="14.00">Alice: “等一下……”你可以听到她翻阅纸张的声音。</text>
</g>
<!-- 58&#45;&gt;64 -->
<g id="edge68" class="edge">
<title>58&#45;&gt;64</title>
<path fill="none" stroke="black" d="M3180.13,-863.7C3180.13,-856.41 3180.13,-847.73 3180.13,-839.54"/>
<polygon fill="black" stroke="black" points="3183.63,-839.62 3180.13,-829.62 3176.63,-839.62 3183.63,-839.62"/>
</g>
<!-- 59&#45;&gt;23 -->
<g id="edge70" class="edge">
<title>59&#45;&gt;23</title>
<path fill="none" stroke="black" d="M2725.13,-359.7C2725.13,-352.41 2725.13,-343.73 2725.13,-335.54"/>
<polygon fill="black" stroke="black" points="2728.63,-335.62 2725.13,-325.62 2721.63,-335.62 2728.63,-335.62"/>
</g>
<!-- 60 -->
<g id="node61" class="node">
<title>60</title>
<ellipse fill="none" stroke="black" cx="4581.13" cy="-450" rx="182.89" ry="18"/>
<text text-anchor="middle" x="4581.13" y="-444.95" font-family="Times New Roman,serif" font-size="14.00">Variable[&quot;TASK.identify_corpse_boardwalk&quot;]</text>
</g>
<!-- 62 -->
<g id="node63" class="node">
<title>62</title>
<polygon fill="none" stroke="black" points="5200.13,-396 4928.46,-378 5200.13,-360 5471.8,-378 5200.13,-396"/>
<text text-anchor="middle" x="5200.13" y="-372.95" font-family="Times New Roman,serif" font-size="14.00">!(Variable[&quot;TASK.identify_corpse_boardwalk&quot;])</text>
</g>
<!-- 60&#45;&gt;62 -->
<g id="edge71" class="edge">
<title>60&#45;&gt;62</title>
<path fill="none" stroke="black" d="M4697.92,-435.79C4811.05,-423 4981.24,-403.75 5091.52,-391.28"/>
<polygon fill="black" stroke="black" points="5091.62,-394.79 5101.16,-390.19 5090.83,-387.84 5091.62,-394.79"/>
</g>
<!-- 63 -->
<g id="node64" class="node">
<title>63</title>
<ellipse fill="none" stroke="black" cx="4581.13" cy="-378" rx="329.78" ry="18"/>
<text text-anchor="middle" x="4581.13" y="-372.95" font-family="Times New Roman,serif" font-size="14.00">You: “其实吧，你还是划掉吧——没有连环杀手，我刚瞎编的。”</text>
</g>
<!-- 60&#45;&gt;63 -->
<g id="edge72" class="edge">
<title>60&#45;&gt;63</title>
<path fill="none" stroke="black" d="M4575.21,-431.7C4574.46,-424.41 4574.22,-415.73 4574.48,-407.54"/>
<polygon fill="black" stroke="black" points="4577.97,-407.82 4575.13,-397.61 4570.98,-407.36 4577.97,-407.82"/>
</g>
<!-- 61&#45;&gt;19 -->
<g id="edge73" class="edge">
<title>61&#45;&gt;19</title>
<path fill="none" stroke="black" d="M3806.14,-719.7C3805.72,-712.41 3805.23,-703.73 3804.76,-695.54"/>
<polygon fill="black" stroke="black" points="3808.26,-695.4 3804.19,-685.62 3801.27,-695.8 3808.26,-695.4"/>
</g>
<!-- 62&#45;&gt;20 -->
<g id="edge74" class="edge">
<title>62&#45;&gt;20</title>
<path fill="none" stroke="black" d="M5091.92,-366.71C4937.55,-352.03 4658.7,-325.51 4531.12,-313.37"/>
<polygon fill="black" stroke="black" points="4531.78,-309.92 4521.49,-312.46 4531.12,-316.89 4531.78,-309.92"/>
</g>
<!-- 63&#45;&gt;60 -->
<g id="edge75" class="edge">
<title>63&#45;&gt;60</title>
<path fill="none" stroke="black" d="M4587.02,-396.1C4587.78,-403.37 4588.04,-412.04 4587.78,-420.24"/>
<polygon fill="black" stroke="black" points="4584.29,-419.98 4587.14,-430.19 4591.28,-420.43 4584.29,-419.98"/>
</g>
<!-- 64&#45;&gt;9 -->
<g id="edge76" class="edge">
<title>64&#45;&gt;9</title>
<path fill="none" stroke="black" d="M3185.07,-791.7C3187.2,-784.24 3189.75,-775.32 3192.14,-766.97"/>
<polygon fill="black" stroke="black" points="3195.44,-768.14 3194.82,-757.56 3188.71,-766.21 3195.44,-768.14"/>
</g>
<!-- 65&#45;&gt;34 -->
<g id="edge77" class="edge">
<title>65&#45;&gt;34</title>
<path fill="none" stroke="black" d="M2135.13,-935.7C2135.13,-928.41 2135.13,-919.73 2135.13,-911.54"/>
<polygon fill="black" stroke="black" points="2138.63,-911.62 2135.13,-901.62 2131.63,-911.62 2138.63,-911.62"/>
</g>
<!-- 66&#45;&gt;4 -->
<g id="edge78" class="edge">
<title>66&#45;&gt;4</title>
<path fill="none" stroke="black" d="M2731.92,-1296.32C2761.62,-1286.37 2799.53,-1273.68 2830.91,-1263.17"/>
<polygon fill="black" stroke="black" points="2831.91,-1266.53 2840.28,-1260.03 2829.68,-1259.89 2831.91,-1266.53"/>
</g>
<!-- 67&#45;&gt;11 -->
<g id="edge79" class="edge">
<title>67&#45;&gt;11</title>
<path fill="none" stroke="black" d="M3687.34,-1583.7C3678.3,-1575.37 3667.28,-1565.22 3657.34,-1556.07"/>
<polygon fill="black" stroke="black" points="3659.8,-1553.57 3650.07,-1549.37 3655.06,-1558.72 3659.8,-1553.57"/>
</g>
<!-- 68&#45;&gt;66 -->
<g id="edge80" class="edge">
<title>68&#45;&gt;66</title>
<path fill="none" stroke="black" d="M2747.31,-1368.05C2736.8,-1359.5 2723.85,-1348.96 2712.27,-1339.54"/>
<polygon fill="black" stroke="black" points="2714.49,-1336.83 2704.52,-1333.23 2710.07,-1342.26 2714.49,-1336.83"/>
</g>
</g>
</svg>
