<?xml version="1.0" encoding="UTF-8" standalone="no"?>
<!DOCTYPE svg PUBLIC "-//W3C//DTD SVG 1.1//EN"
 "http://www.w3.org/Graphics/SVG/1.1/DTD/svg11.dtd">
<!-- Generated by graphviz version 12.2.1 (20241206.2353)
 -->
<!-- Title: G Pages: 1 -->
<svg width="4556pt" height="836pt"
 viewBox="0.00 0.00 4556.10 836.00" xmlns="http://www.w3.org/2000/svg" xmlns:xlink="http://www.w3.org/1999/xlink">
<g id="graph0" class="graph" transform="scale(1 1) rotate(0) translate(4 832)">
<title>G</title>
<polygon fill="white" stroke="none" points="-4,4 -4,-832 4552.1,-832 4552.1,4 -4,4"/>
<!-- 0 -->
<g id="node1" class="node">
<title>0</title>
<ellipse fill="none" stroke="black" cx="3505.27" cy="-810" rx="39.07" ry="18"/>
<text text-anchor="middle" x="3505.27" y="-804.95" font-family="Times New Roman,serif" font-size="14.00">START</text>
</g>
<!-- 0&#45;&gt;0 -->
<g id="edge1" class="edge">
<title>0&#45;&gt;0</title>
<path fill="none" stroke="black" d="M3533.46,-822.94C3548.57,-825.14 3562.34,-820.83 3562.34,-810 3562.34,-801.96 3554.76,-797.52 3544.67,-796.65"/>
<polygon fill="black" stroke="black" points="3544.84,-793.15 3534.97,-797 3545.09,-800.14 3544.84,-793.15"/>
</g>
<!-- 1 -->
<g id="node2" class="node">
<title>1</title>
<ellipse fill="none" stroke="black" cx="351.27" cy="-90" rx="29.86" ry="18"/>
<text text-anchor="middle" x="351.27" y="-84.95" font-family="Times New Roman,serif" font-size="14.00">input</text>
</g>
<!-- 8 -->
<g id="node9" class="node">
<title>8</title>
<ellipse fill="none" stroke="black" cx="351.27" cy="-18" rx="227.93" ry="18"/>
<text text-anchor="middle" x="351.27" y="-12.95" font-family="Times New Roman,serif" font-size="14.00">Kim Kitsuragi: &quot;Good. It&#39;s late, we should get some rest.&quot;</text>
</g>
<!-- 1&#45;&gt;8 -->
<g id="edge2" class="edge">
<title>1&#45;&gt;8</title>
<path fill="none" stroke="black" d="M351.27,-71.7C351.27,-64.41 351.27,-55.73 351.27,-47.54"/>
<polygon fill="black" stroke="black" points="354.77,-47.62 351.27,-37.62 347.77,-47.62 354.77,-47.62"/>
</g>
<!-- 2 -->
<g id="node3" class="node">
<title>2</title>
<ellipse fill="none" stroke="black" cx="966.27" cy="-162" rx="245.84" ry="18"/>
<text text-anchor="middle" x="966.27" y="-156.95" font-family="Times New Roman,serif" font-size="14.00">You: &quot;I&#39;m just going to wait a few more minutes, just in case.&quot;</text>
</g>
<!-- 27 -->
<g id="node28" class="node">
<title>27</title>
<ellipse fill="none" stroke="black" cx="2426.27" cy="-90" rx="265.8" ry="18"/>
<text text-anchor="middle" x="2426.27" y="-84.95" font-family="Times New Roman,serif" font-size="14.00">Inland Empire: Yes, stay! What&#39;s a few more minutes going to hurt?</text>
</g>
<!-- 2&#45;&gt;27 -->
<g id="edge3" class="edge">
<title>2&#45;&gt;27</title>
<path fill="none" stroke="black" d="M1139.76,-148.91C1167.03,-147.16 1194.91,-145.46 1221.27,-144 1555.98,-125.48 1943.28,-109.4 2186.52,-99.95"/>
<polygon fill="black" stroke="black" points="2186.62,-103.45 2196.48,-99.56 2186.35,-96.45 2186.62,-103.45"/>
</g>
<!-- 3 -->
<g id="node4" class="node">
<title>3</title>
<ellipse fill="none" stroke="black" cx="1625.27" cy="-162" rx="394.77" ry="18"/>
<text text-anchor="middle" x="1625.27" y="-156.95" font-family="Times New Roman,serif" font-size="14.00">Kim Kitsuragi: &quot;Yes, it would have been *very* cool.&quot; The lieutenant nods. &quot;Now let&#39;s get some rest.&quot;</text>
</g>
<!-- 4 -->
<g id="node5" class="node">
<title>4</title>
<ellipse fill="none" stroke="black" cx="1826.27" cy="-378" rx="401.43" ry="18"/>
<text text-anchor="middle" x="1826.27" y="-372.95" font-family="Times New Roman,serif" font-size="14.00">Kim Kitsuragi: &quot;Good. It&#39;s already late, we need to get some rest. Tomorrow will be another tough day.&quot;</text>
</g>
<!-- 5 -->
<g id="node6" class="node">
<title>5</title>
<ellipse fill="none" stroke="black" cx="2206.27" cy="-522" rx="155.25" ry="18"/>
<text text-anchor="middle" x="2206.27" y="-516.95" font-family="Times New Roman,serif" font-size="14.00">You: &quot;No, we&#39;re just passing through.&quot;</text>
</g>
<!-- 7 -->
<g id="node8" class="node">
<title>7</title>
<ellipse fill="none" stroke="black" cx="1612.27" cy="-450" rx="288.83" ry="18"/>
<text text-anchor="middle" x="1612.27" y="-444.95" font-family="Times New Roman,serif" font-size="14.00">Inland Empire: Don&#39;t listen to the lieutenant! He doesn&#39;t know *anything*.</text>
</g>
<!-- 5&#45;&gt;7 -->
<g id="edge4" class="edge">
<title>5&#45;&gt;7</title>
<path fill="none" stroke="black" d="M2100.08,-508.49C2003.71,-497.13 1860.87,-480.3 1754.63,-467.78"/>
<polygon fill="black" stroke="black" points="1755.34,-464.34 1745,-466.64 1754.52,-471.29 1755.34,-464.34"/>
</g>
<!-- 6 -->
<g id="node7" class="node">
<title>6</title>
<ellipse fill="none" stroke="black" cx="3876.27" cy="-666" rx="261.19" ry="18"/>
<text text-anchor="middle" x="3876.27" y="-660.95" font-family="Times New Roman,serif" font-size="14.00">Inland Empire: Your ears hum from the silence inside your mind...</text>
</g>
<!-- 19 -->
<g id="node20" class="node">
<title>19</title>
<ellipse fill="none" stroke="black" cx="3372.27" cy="-594" rx="270.41" ry="18"/>
<text text-anchor="middle" x="3372.27" y="-588.95" font-family="Times New Roman,serif" font-size="14.00">You: &quot;You were right, Kim. What was I thinking? Let&#39;s go.&quot; [Leave.]</text>
</g>
<!-- 6&#45;&gt;19 -->
<g id="edge6" class="edge">
<title>6&#45;&gt;19</title>
<path fill="none" stroke="black" d="M3763.48,-649.33C3684.35,-638.34 3578.55,-623.65 3496.93,-612.31"/>
<polygon fill="black" stroke="black" points="3497.46,-608.85 3487.07,-610.94 3496.5,-615.79 3497.46,-608.85"/>
</g>
<!-- 26 -->
<g id="node27" class="node">
<title>26</title>
<ellipse fill="none" stroke="black" cx="3869.27" cy="-594" rx="193.12" ry="18"/>
<text text-anchor="middle" x="3869.27" y="-588.95" font-family="Times New Roman,serif" font-size="14.00">You: &quot;This has made me unspeakably unhappy.&quot;</text>
</g>
<!-- 6&#45;&gt;26 -->
<g id="edge5" class="edge">
<title>6&#45;&gt;26</title>
<path fill="none" stroke="black" d="M3874.54,-647.7C3873.81,-640.41 3872.94,-631.73 3872.12,-623.54"/>
<polygon fill="black" stroke="black" points="3875.61,-623.21 3871.13,-613.61 3868.64,-623.91 3875.61,-623.21"/>
</g>
<!-- 7&#45;&gt;4 -->
<g id="edge7" class="edge">
<title>7&#45;&gt;4</title>
<path fill="none" stroke="black" d="M1664.62,-431.88C1694.18,-422.21 1731.33,-410.05 1762.57,-399.84"/>
<polygon fill="black" stroke="black" points="1763.49,-403.22 1771.91,-396.78 1761.32,-396.56 1763.49,-403.22"/>
</g>
<!-- 13 -->
<g id="node14" class="node">
<title>13</title>
<ellipse fill="none" stroke="black" cx="966.27" cy="-234" rx="279.62" ry="18"/>
<text text-anchor="middle" x="966.27" y="-228.95" font-family="Times New Roman,serif" font-size="14.00">You: &quot;Yeah, you&#39;re right. Would&#39;ve been cool, though, don&#39;t you think?&quot;</text>
</g>
<!-- 7&#45;&gt;13 -->
<g id="edge8" class="edge">
<title>7&#45;&gt;13</title>
<path fill="none" stroke="black" d="M1484.41,-433.47C1459.5,-425.5 1435.26,-413.63 1416.27,-396 1378.98,-361.38 1417.83,-320 1378.27,-288 1350.77,-265.75 1283.86,-252.77 1211.77,-245.23"/>
<polygon fill="black" stroke="black" points="1212.44,-241.78 1202.14,-244.26 1211.74,-248.74 1212.44,-241.78"/>
</g>
<!-- 14 -->
<g id="node15" class="node">
<title>14</title>
<ellipse fill="none" stroke="black" cx="2567.27" cy="-378" rx="321.07" ry="18"/>
<text text-anchor="middle" x="2567.27" y="-372.95" font-family="Times New Roman,serif" font-size="14.00">You: &quot;Absolutely not. That&#39;s not why we&#39;re here. Why would you even think that?&quot;</text>
</g>
<!-- 7&#45;&gt;14 -->
<g id="edge9" class="edge">
<title>7&#45;&gt;14</title>
<path fill="none" stroke="black" d="M1794.43,-435.65C1957.88,-423.67 2197.35,-406.11 2366.32,-393.73"/>
<polygon fill="black" stroke="black" points="2366.38,-397.23 2376.09,-393.01 2365.87,-390.25 2366.38,-397.23"/>
</g>
<!-- 16 -->
<g id="node17" class="node">
<title>16</title>
<ellipse fill="none" stroke="black" cx="1001.27" cy="-378" rx="126.59" ry="18"/>
<text text-anchor="middle" x="1001.27" y="-372.95" font-family="Times New Roman,serif" font-size="14.00">You: &quot;How would you know?&quot;</text>
</g>
<!-- 7&#45;&gt;16 -->
<g id="edge10" class="edge">
<title>7&#45;&gt;16</title>
<path fill="none" stroke="black" d="M1478.18,-433.64C1367.3,-420.93 1211.86,-403.13 1108.95,-391.34"/>
<polygon fill="black" stroke="black" points="1109.44,-387.87 1099.11,-390.21 1108.65,-394.82 1109.44,-387.87"/>
</g>
<!-- 22 -->
<g id="node23" class="node">
<title>22</title>
<ellipse fill="none" stroke="black" cx="351.27" cy="-234" rx="125.56" ry="18"/>
<text text-anchor="middle" x="351.27" y="-228.95" font-family="Times New Roman,serif" font-size="14.00">You: &quot;We&#39;ll just wait and see.&quot;</text>
</g>
<!-- 7&#45;&gt;22 -->
<g id="edge11" class="edge">
<title>7&#45;&gt;22</title>
<path fill="none" stroke="black" d="M1332.36,-445.35C927.6,-437.11 218.5,-410.38 140.27,-324 102.27,-282.04 171.81,-259.22 241.02,-247.24"/>
<polygon fill="black" stroke="black" points="241.32,-250.73 250.62,-245.65 240.18,-243.83 241.32,-250.73"/>
</g>
<!-- 9 -->
<g id="node10" class="node">
<title>9</title>
<ellipse fill="none" stroke="black" cx="3876.27" cy="-810" rx="295.48" ry="18"/>
<text text-anchor="middle" x="3876.27" y="-804.95" font-family="Times New Roman,serif" font-size="14.00">Inland Empire: The Headless FALN Rider &#45;&#45; he could appear at any minute!</text>
</g>
<!-- 21 -->
<g id="node22" class="node">
<title>21</title>
<ellipse fill="none" stroke="black" cx="3876.27" cy="-738" rx="511.47" ry="18"/>
<text text-anchor="middle" x="3876.27" y="-732.95" font-family="Times New Roman,serif" font-size="14.00">Kim Kitsuragi: &quot;Please tell me we&#39;re not here to look for a headless man in a tracksuit riding a horse... because there&#39;s no such thing.&quot;</text>
</g>
<!-- 9&#45;&gt;21 -->
<g id="edge12" class="edge">
<title>9&#45;&gt;21</title>
<path fill="none" stroke="black" d="M3876.27,-791.7C3876.27,-784.41 3876.27,-775.73 3876.27,-767.54"/>
<polygon fill="black" stroke="black" points="3879.77,-767.62 3876.27,-757.62 3872.77,-767.62 3879.77,-767.62"/>
</g>
<!-- 10 -->
<g id="node11" class="node">
<title>10</title>
<ellipse fill="none" stroke="black" cx="2542.27" cy="-162" rx="503.79" ry="18"/>
<text text-anchor="middle" x="2542.27" y="-156.95" font-family="Times New Roman,serif" font-size="14.00">Kim Kitsuragi: &quot;...a foolish hope. But it&#39;s okay. I get it. It would have been *cool*.&quot; The lieutenant nods. &quot;Now let&#39;s get some rest.&quot;</text>
</g>
<!-- 11 -->
<g id="node12" class="node">
<title>11</title>
<ellipse fill="none" stroke="black" cx="2408.27" cy="-306" rx="637.88" ry="18"/>
<text text-anchor="middle" x="2408.27" y="-300.95" font-family="Times New Roman,serif" font-size="14.00">Kim Kitsuragi: &quot;We&#39;ve been running around together doing *odd things* for days. I&#39;ve seen how your mind operates... this is just the sort of thing it would latch on to.&quot;</text>
</g>
<!-- 24 -->
<g id="node25" class="node">
<title>24</title>
<ellipse fill="none" stroke="black" cx="1823.27" cy="-234" rx="270.92" ry="18"/>
<text text-anchor="middle" x="1823.27" y="-228.95" font-family="Times New Roman,serif" font-size="14.00">You: &quot;I admit... it is a thing I would *usually* do. But not this time.&quot;</text>
</g>
<!-- 11&#45;&gt;24 -->
<g id="edge13" class="edge">
<title>11&#45;&gt;24</title>
<path fill="none" stroke="black" d="M2266.29,-288.01C2173.93,-276.96 2054.05,-262.61 1962.29,-251.63"/>
<polygon fill="black" stroke="black" points="1962.8,-248.17 1952.46,-250.46 1961.97,-255.12 1962.8,-248.17"/>
</g>
<!-- 29 -->
<g id="node30" class="node">
<title>29</title>
<ellipse fill="none" stroke="black" cx="2475.27" cy="-234" rx="165.48" ry="18"/>
<text text-anchor="middle" x="2475.27" y="-228.95" font-family="Times New Roman,serif" font-size="14.00">You: &quot;Okay, you got me. I had a hope...&quot;</text>
</g>
<!-- 11&#45;&gt;29 -->
<g id="edge14" class="edge">
<title>11&#45;&gt;29</title>
<path fill="none" stroke="black" d="M2424.83,-287.7C2432.7,-279.47 2442.27,-269.48 2450.94,-260.42"/>
<polygon fill="black" stroke="black" points="2453.47,-262.84 2457.85,-253.2 2448.41,-258 2453.47,-262.84"/>
</g>
<!-- 12 -->
<g id="node13" class="node">
<title>12</title>
<ellipse fill="none" stroke="black" cx="3869.27" cy="-522" rx="678.83" ry="18"/>
<text text-anchor="middle" x="3869.27" y="-516.95" font-family="Times New Roman,serif" font-size="14.00">Kim Kitsuragi: &quot;I know myths and legends are enticing, but in the end they&#39;re just stories for children... to teach them lessons, or to frighten them.&quot; He gestures toward the waves.</text>
</g>
<!-- 28 -->
<g id="node29" class="node">
<title>28</title>
<ellipse fill="none" stroke="black" cx="3869.27" cy="-450" rx="418.83" ry="18"/>
<text text-anchor="middle" x="3869.27" y="-444.95" font-family="Times New Roman,serif" font-size="14.00">Kim Kitsuragi: &quot;Let&#39;s go. It&#39;s very late &#45;&#45; we should be resting already. Tomorrow will be another tough day.&quot;</text>
</g>
<!-- 12&#45;&gt;28 -->
<g id="edge15" class="edge">
<title>12&#45;&gt;28</title>
<path fill="none" stroke="black" d="M3869.27,-503.7C3869.27,-496.41 3869.27,-487.73 3869.27,-479.54"/>
<polygon fill="black" stroke="black" points="3872.77,-479.62 3869.27,-469.62 3865.77,-479.62 3872.77,-479.62"/>
</g>
<!-- 13&#45;&gt;2 -->
<g id="edge16" class="edge">
<title>13&#45;&gt;2</title>
<path fill="none" stroke="black" d="M966.27,-215.7C966.27,-208.41 966.27,-199.73 966.27,-191.54"/>
<polygon fill="black" stroke="black" points="969.77,-191.62 966.27,-181.62 962.77,-191.62 969.77,-191.62"/>
</g>
<!-- 14&#45;&gt;11 -->
<g id="edge17" class="edge">
<title>14&#45;&gt;11</title>
<path fill="none" stroke="black" d="M2527.97,-359.7C2506.85,-350.4 2480.6,-338.84 2458.06,-328.92"/>
<polygon fill="black" stroke="black" points="2459.62,-325.78 2449.06,-324.96 2456.8,-332.19 2459.62,-325.78"/>
</g>
<!-- 15 -->
<g id="node16" class="node">
<title>15</title>
<ellipse fill="none" stroke="black" cx="759.27" cy="-306" rx="609.73" ry="18"/>
<text text-anchor="middle" x="759.27" y="-300.95" font-family="Times New Roman,serif" font-size="14.00">Kim Kitsuragi: &quot;No one&#39;s actually *seen* the Headless FALN Rider because he doesn&#39;t exist. He&#39;s an urban legend. A *legend*, meaning a story that&#39;s not real.&quot;</text>
</g>
<!-- 15&#45;&gt;13 -->
<g id="edge18" class="edge">
<title>15&#45;&gt;13</title>
<path fill="none" stroke="black" d="M810.71,-287.61C839.18,-277.98 874.76,-265.95 904.71,-255.82"/>
<polygon fill="black" stroke="black" points="905.67,-259.19 914.03,-252.67 903.43,-252.56 905.67,-259.19"/>
</g>
<!-- 15&#45;&gt;22 -->
<g id="edge19" class="edge">
<title>15&#45;&gt;22</title>
<path fill="none" stroke="black" d="M658.94,-287.79C592.28,-276.35 505.5,-261.46 441.1,-250.41"/>
<polygon fill="black" stroke="black" points="441.69,-246.96 431.25,-248.72 440.51,-253.86 441.69,-246.96"/>
</g>
<!-- 16&#45;&gt;15 -->
<g id="edge20" class="edge">
<title>16&#45;&gt;15</title>
<path fill="none" stroke="black" d="M946.96,-361.29C912.46,-351.31 867.44,-338.29 830.15,-327.5"/>
<polygon fill="black" stroke="black" points="831.38,-324.21 820.8,-324.8 829.43,-330.94 831.38,-324.21"/>
</g>
<!-- 17 -->
<g id="node18" class="node">
<title>17</title>
<ellipse fill="none" stroke="black" cx="1075.27" cy="-90" rx="234.58" ry="18"/>
<text text-anchor="middle" x="1075.27" y="-84.95" font-family="Times New Roman,serif" font-size="14.00">You: &quot;You&#39;re right, what was I thinking? Let&#39;s go.&quot; [Leave.]</text>
</g>
<!-- 25 -->
<g id="node26" class="node">
<title>25</title>
<ellipse fill="none" stroke="black" cx="1481.27" cy="-18" rx="145.01" ry="18"/>
<text text-anchor="middle" x="1481.27" y="-12.95" font-family="Times New Roman,serif" font-size="14.00">Kim Kitsuragi: The lieutenant nods.</text>
</g>
<!-- 17&#45;&gt;25 -->
<g id="edge21" class="edge">
<title>17&#45;&gt;25</title>
<path fill="none" stroke="black" d="M1167.91,-73.03C1233.72,-61.68 1321.78,-46.5 1387.79,-35.12"/>
<polygon fill="black" stroke="black" points="1388.26,-38.59 1397.52,-33.44 1387.07,-31.69 1388.26,-38.59"/>
</g>
<!-- 18 -->
<g id="node19" class="node">
<title>18</title>
<ellipse fill="none" stroke="black" cx="351.27" cy="-162" rx="351.27" ry="18"/>
<text text-anchor="middle" x="351.27" y="-156.95" font-family="Times New Roman,serif" font-size="14.00">Kim Kitsuragi: &quot;There&#39;s nothing to wait for. We should get some rest, it&#39;s been a long day.&quot;</text>
</g>
<!-- 18&#45;&gt;1 -->
<g id="edge22" class="edge">
<title>18&#45;&gt;1</title>
<path fill="none" stroke="black" d="M351.27,-143.7C351.27,-136.41 351.27,-127.73 351.27,-119.54"/>
<polygon fill="black" stroke="black" points="354.77,-119.62 351.27,-109.62 347.77,-119.62 354.77,-119.62"/>
</g>
<!-- 18&#45;&gt;17 -->
<g id="edge23" class="edge">
<title>18&#45;&gt;17</title>
<path fill="none" stroke="black" d="M511.05,-145.55C633.51,-133.71 801.43,-117.48 922.18,-105.8"/>
<polygon fill="black" stroke="black" points="922.23,-109.31 931.85,-104.87 921.56,-102.35 922.23,-109.31"/>
</g>
<!-- 19&#45;&gt;25 -->
<g id="edge24" class="edge">
<title>19&#45;&gt;25</title>
<path fill="none" stroke="black" d="M3256.15,-577.32C3229.42,-569.45 3202.62,-557.66 3181.27,-540 3147.27,-511.87 3137.27,-495.13 3137.27,-451 3137.27,-451 3137.27,-451 3137.27,-161 3137.27,-124.5 3708.09,-189.13 2701.27,-72 2321.07,-27.77 1870.35,-19.56 1637.67,-18.57"/>
<polygon fill="black" stroke="black" points="1637.94,-15.07 1627.93,-18.53 1637.92,-22.07 1637.94,-15.07"/>
</g>
<!-- 20 -->
<g id="node21" class="node">
<title>20</title>
<ellipse fill="none" stroke="black" cx="2649.27" cy="-594" rx="176.23" ry="18"/>
<text text-anchor="middle" x="2649.27" y="-588.95" font-family="Times New Roman,serif" font-size="14.00">You: There&#39;s nothing here &#45;&#45; You lied to me!</text>
</g>
<!-- 20&#45;&gt;5 -->
<g id="edge25" class="edge">
<title>20&#45;&gt;5</title>
<path fill="none" stroke="black" d="M2556.13,-578.28C2483.11,-566.74 2381.67,-550.72 2306.82,-538.89"/>
<polygon fill="black" stroke="black" points="2307.42,-535.44 2297,-537.34 2306.33,-542.35 2307.42,-535.44"/>
</g>
<!-- 21&#45;&gt;6 -->
<g id="edge26" class="edge">
<title>21&#45;&gt;6</title>
<path fill="none" stroke="black" d="M3876.27,-719.7C3876.27,-712.41 3876.27,-703.73 3876.27,-695.54"/>
<polygon fill="black" stroke="black" points="3879.77,-695.62 3876.27,-685.62 3872.77,-695.62 3879.77,-695.62"/>
</g>
<!-- 22&#45;&gt;18 -->
<g id="edge27" class="edge">
<title>22&#45;&gt;18</title>
<path fill="none" stroke="black" d="M351.27,-215.7C351.27,-208.41 351.27,-199.73 351.27,-191.54"/>
<polygon fill="black" stroke="black" points="354.77,-191.62 351.27,-181.62 347.77,-191.62 354.77,-191.62"/>
</g>
<!-- 23 -->
<g id="node24" class="node">
<title>23</title>
<ellipse fill="none" stroke="black" cx="3066.27" cy="-666" rx="530.4" ry="18"/>
<text text-anchor="middle" x="3066.27" y="-660.95" font-family="Times New Roman,serif" font-size="14.00">Kim Kitsuragi: The lieutenant has his arms crossed, fingers tapping against his bicep. &quot;There, we waited. Nothing happened. Happy now?&quot;</text>
</g>
<!-- 23&#45;&gt;19 -->
<g id="edge29" class="edge">
<title>23&#45;&gt;19</title>
<path fill="none" stroke="black" d="M3141.91,-647.7C3186.14,-637.58 3242.07,-624.78 3287.74,-614.34"/>
<polygon fill="black" stroke="black" points="3288.38,-617.78 3297.34,-612.14 3286.82,-610.96 3288.38,-617.78"/>
</g>
<!-- 23&#45;&gt;20 -->
<g id="edge30" class="edge">
<title>23&#45;&gt;20</title>
<path fill="none" stroke="black" d="M2964.26,-647.88C2898.84,-636.89 2814.31,-622.7 2749.29,-611.79"/>
<polygon fill="black" stroke="black" points="2750.14,-608.38 2739.7,-610.18 2748.98,-615.29 2750.14,-608.38"/>
</g>
<!-- 23&#45;&gt;26 -->
<g id="edge28" class="edge">
<title>23&#45;&gt;26</title>
<path fill="none" stroke="black" d="M3253.27,-648.7C3395.45,-636.3 3588.43,-619.48 3720.27,-607.99"/>
<polygon fill="black" stroke="black" points="3720.47,-611.48 3730.13,-607.13 3719.86,-604.51 3720.47,-611.48"/>
</g>
<!-- 24&#45;&gt;3 -->
<g id="edge31" class="edge">
<title>24&#45;&gt;3</title>
<path fill="none" stroke="black" d="M1774.83,-215.88C1747.73,-206.29 1713.71,-194.27 1684.97,-184.11"/>
<polygon fill="black" stroke="black" points="1686.26,-180.85 1675.66,-180.82 1683.93,-187.45 1686.26,-180.85"/>
</g>
<!-- 26&#45;&gt;12 -->
<g id="edge32" class="edge">
<title>26&#45;&gt;12</title>
<path fill="none" stroke="black" d="M3869.27,-575.7C3869.27,-568.41 3869.27,-559.73 3869.27,-551.54"/>
<polygon fill="black" stroke="black" points="3872.77,-551.62 3869.27,-541.62 3865.77,-551.62 3872.77,-551.62"/>
</g>
<!-- 27&#45;&gt;23 -->
<g id="edge33" class="edge">
<title>27&#45;&gt;23</title>
<path fill="none" stroke="black" d="M2668.13,-97.71C2832.72,-104.57 3025.85,-118.08 3055.27,-144 3085.62,-170.74 3074.27,-192.55 3074.27,-233 3074.27,-523 3074.27,-523 3074.27,-523 3074.27,-562.32 3071.18,-607.67 3068.84,-636.33"/>
<polygon fill="black" stroke="black" points="3065.37,-635.76 3068.02,-646.02 3072.35,-636.35 3065.37,-635.76"/>
</g>
<!-- 29&#45;&gt;10 -->
<g id="edge34" class="edge">
<title>29&#45;&gt;10</title>
<path fill="none" stroke="black" d="M2491.83,-215.7C2499.7,-207.47 2509.27,-197.48 2517.94,-188.42"/>
<polygon fill="black" stroke="black" points="2520.47,-190.84 2524.85,-181.2 2515.41,-186 2520.47,-190.84"/>
</g>
</g>
</svg>
