<?xml version="1.0" encoding="UTF-8" standalone="no"?>
<!DOCTYPE svg PUBLIC "-//W3C//DTD SVG 1.1//EN"
 "http://www.w3.org/Graphics/SVG/1.1/DTD/svg11.dtd">
<!-- Generated by graphviz version 12.2.1 (20241206.2353)
 -->
<!-- Title: G Pages: 1 -->
<svg width="4858pt" height="116pt"
 viewBox="0.00 0.00 4858.24 116.00" xmlns="http://www.w3.org/2000/svg" xmlns:xlink="http://www.w3.org/1999/xlink">
<g id="graph0" class="graph" transform="scale(1 1) rotate(0) translate(4 112)">
<title>G</title>
<polygon fill="white" stroke="none" points="-4,4 -4,-112 4854.24,-112 4854.24,4 -4,4"/>
<!-- 0 -->
<g id="node1" class="node">
<title>0</title>
<ellipse fill="none" stroke="black" cx="2540.99" cy="-90" rx="39.07" ry="18"/>
<text text-anchor="middle" x="2540.99" y="-84.95" font-family="Times New Roman,serif" font-size="14.00">START</text>
</g>
<!-- 0&#45;&gt;0 -->
<g id="edge1" class="edge">
<title>0&#45;&gt;0</title>
<path fill="none" stroke="black" d="M2569.18,-102.94C2584.29,-105.14 2598.06,-100.83 2598.06,-90 2598.06,-81.96 2590.47,-77.52 2580.38,-76.65"/>
<polygon fill="black" stroke="black" points="2580.56,-73.15 2570.69,-77 2580.81,-80.14 2580.56,-73.15"/>
</g>
<!-- 1 -->
<g id="node2" class="node">
<title>1</title>
<ellipse fill="none" stroke="black" cx="2645.99" cy="-90" rx="29.86" ry="18"/>
<text text-anchor="middle" x="2645.99" y="-84.95" font-family="Times New Roman,serif" font-size="14.00">input</text>
</g>
<!-- 2 -->
<g id="node3" class="node">
<title>2</title>
<ellipse fill="none" stroke="black" cx="338.99" cy="-18" rx="338.99" ry="18"/>
<text text-anchor="middle" x="338.99" y="-12.95" font-family="Times New Roman,serif" font-size="14.00">Morell, the Cryptozoologist: &quot;There was a confirmed sighting in Mirova in December.&quot;</text>
</g>
<!-- 1&#45;&gt;2 -->
<g id="edge2" class="edge">
<title>1&#45;&gt;2</title>
<path fill="none" stroke="black" d="M2623.81,-77.55C2618.44,-75.29 2612.62,-73.23 2606.99,-72 2398.53,-26.5 900.24,-43.21 686.99,-36 653.71,-34.88 618.66,-33.45 584.13,-31.9"/>
<polygon fill="black" stroke="black" points="584.6,-28.42 574.45,-31.46 584.28,-35.41 584.6,-28.42"/>
</g>
<!-- 3 -->
<g id="node4" class="node">
<title>3</title>
<ellipse fill="none" stroke="black" cx="1016.99" cy="-18" rx="321.07" ry="18"/>
<text text-anchor="middle" x="1016.99" y="-12.95" font-family="Times New Roman,serif" font-size="14.00">Morell, the Cryptozoologist: &quot;The evidence is right there &#45;&#45; we can&#39;t just ignore it.&quot;</text>
</g>
<!-- 1&#45;&gt;3 -->
<g id="edge3" class="edge">
<title>1&#45;&gt;3</title>
<path fill="none" stroke="black" d="M2623.8,-77.59C2618.43,-75.33 2612.61,-73.26 2606.99,-72 2470.3,-41.46 1486.93,-41.6 1346.99,-36 1316.35,-34.77 1284.12,-33.32 1252.3,-31.78"/>
<polygon fill="black" stroke="black" points="1252.74,-28.3 1242.58,-31.31 1252.4,-35.29 1252.74,-28.3"/>
</g>
<!-- 4 -->
<g id="node5" class="node">
<title>4</title>
<ellipse fill="none" stroke="black" cx="1743.99" cy="-18" rx="388.12" ry="18"/>
<text text-anchor="middle" x="1743.99" y="-12.95" font-family="Times New Roman,serif" font-size="14.00">Morell, the Cryptozoologist: &quot;Hate to break it to you, Gary, but rhinos don&#39;t just combust in flames.&quot;</text>
</g>
<!-- 1&#45;&gt;4 -->
<g id="edge4" class="edge">
<title>1&#45;&gt;4</title>
<path fill="none" stroke="black" d="M2623.77,-77.73C2618.4,-75.45 2612.59,-73.35 2606.99,-72 2551.66,-58.68 2259.07,-42.55 2029.72,-31.6"/>
<polygon fill="black" stroke="black" points="2030.17,-28.12 2020.01,-31.14 2029.84,-35.11 2030.17,-28.12"/>
</g>
<!-- 5 -->
<g id="node6" class="node">
<title>5</title>
<ellipse fill="none" stroke="black" cx="2400.99" cy="-18" rx="250.44" ry="18"/>
<text text-anchor="middle" x="2400.99" y="-12.95" font-family="Times New Roman,serif" font-size="14.00">Morell, the Cryptozoologist: &quot;God, I hope the traps will hold...&quot;</text>
</g>
<!-- 1&#45;&gt;5 -->
<g id="edge5" class="edge">
<title>1&#45;&gt;5</title>
<path fill="none" stroke="black" d="M2622.72,-78.14C2617.59,-75.95 2612.16,-73.78 2606.99,-72 2568.53,-58.77 2525.04,-47.11 2487.96,-38.12"/>
<polygon fill="black" stroke="black" points="2489.19,-34.82 2478.65,-35.89 2487.56,-41.63 2489.19,-34.82"/>
</g>
<!-- 6 -->
<g id="node7" class="node">
<title>6</title>
<ellipse fill="none" stroke="black" cx="2891.99" cy="-18" rx="222.81" ry="18"/>
<text text-anchor="middle" x="2891.99" y="-12.95" font-family="Times New Roman,serif" font-size="14.00">Morell, the Cryptozoologist: &quot;It&#39;s a bit crowded in here.&quot;</text>
</g>
<!-- 1&#45;&gt;6 -->
<g id="edge6" class="edge">
<title>1&#45;&gt;6</title>
<path fill="none" stroke="black" d="M2672.78,-81.38C2708.32,-71.26 2772.36,-53.04 2822.07,-38.89"/>
<polygon fill="black" stroke="black" points="2822.97,-42.28 2831.63,-36.17 2821.06,-35.54 2822.97,-42.28"/>
</g>
<!-- 7 -->
<g id="node8" class="node">
<title>7</title>
<ellipse fill="none" stroke="black" cx="3426.99" cy="-18" rx="294.46" ry="18"/>
<text text-anchor="middle" x="3426.99" y="-12.95" font-family="Times New Roman,serif" font-size="14.00">Morell, the Cryptozoologist: &quot;C&#39;mon, Gary, it&#39;s never that black and white.&quot;</text>
</g>
<!-- 1&#45;&gt;7 -->
<g id="edge7" class="edge">
<title>1&#45;&gt;7</title>
<path fill="none" stroke="black" d="M2675.65,-86.34C2769.22,-77.96 3063.26,-51.6 3254.55,-34.46"/>
<polygon fill="black" stroke="black" points="3254.7,-37.96 3264.34,-33.58 3254.07,-30.98 3254.7,-37.96"/>
</g>
<!-- 8 -->
<g id="node9" class="node">
<title>8</title>
<ellipse fill="none" stroke="black" cx="4000.99" cy="-18" rx="261.19" ry="18"/>
<text text-anchor="middle" x="4000.99" y="-12.95" font-family="Times New Roman,serif" font-size="14.00">Morell, the Cryptozoologist: &quot;Are you enjoying yourself, darling?&quot;</text>
</g>
<!-- 1&#45;&gt;8 -->
<g id="edge8" class="edge">
<title>1&#45;&gt;8</title>
<path fill="none" stroke="black" d="M2675.74,-87.7C2802.72,-82.1 3311.88,-59.33 3729.99,-36 3753.87,-34.67 3778.92,-33.2 3803.75,-31.69"/>
<polygon fill="black" stroke="black" points="3803.86,-35.19 3813.63,-31.09 3803.43,-28.2 3803.86,-35.19"/>
</g>
<!-- 9 -->
<g id="node10" class="node">
<title>9</title>
<ellipse fill="none" stroke="black" cx="4564.99" cy="-18" rx="285.25" ry="18"/>
<text text-anchor="middle" x="4564.99" y="-12.95" font-family="Times New Roman,serif" font-size="14.00">Morell, the Cryptozoologist: &quot;An *unconfirmed* sighting is just a story.&quot;</text>
</g>
<!-- 1&#45;&gt;9 -->
<g id="edge9" class="edge">
<title>1&#45;&gt;9</title>
<path fill="none" stroke="black" d="M2676.17,-88.3C2838.79,-84.46 3627.02,-65.12 4270.99,-36 4297.81,-34.79 4326,-33.36 4353.87,-31.85"/>
<polygon fill="black" stroke="black" points="4354.06,-35.34 4363.85,-31.3 4353.67,-28.35 4354.06,-35.34"/>
</g>
</g>
</svg>
