<?xml version="1.0" encoding="UTF-8" standalone="no"?>
<!DOCTYPE svg PUBLIC "-//W3C//DTD SVG 1.1//EN"
 "http://www.w3.org/Graphics/SVG/1.1/DTD/svg11.dtd">
<!-- Generated by graphviz version 12.2.1 (20241206.2353)
 -->
<!-- Title: G Pages: 1 -->
<svg width="1767pt" height="548pt"
 viewBox="0.00 0.00 1766.87 548.00" xmlns="http://www.w3.org/2000/svg" xmlns:xlink="http://www.w3.org/1999/xlink">
<g id="graph0" class="graph" transform="scale(1 1) rotate(0) translate(4 544)">
<title>G</title>
<polygon fill="white" stroke="none" points="-4,4 -4,-544 1762.87,-544 1762.87,4 -4,4"/>
<!-- 0 -->
<g id="node1" class="node">
<title>0</title>
<ellipse fill="none" stroke="black" cx="1171.69" cy="-522" rx="39.07" ry="18"/>
<text text-anchor="middle" x="1171.69" y="-516.95" font-family="Times New Roman,serif" font-size="14.00">START</text>
</g>
<!-- 1 -->
<g id="node2" class="node">
<title>1</title>
<ellipse fill="none" stroke="black" cx="1171.69" cy="-450" rx="29.86" ry="18"/>
<text text-anchor="middle" x="1171.69" y="-444.95" font-family="Times New Roman,serif" font-size="14.00">input</text>
</g>
<!-- 0&#45;&gt;1 -->
<g id="edge1" class="edge">
<title>0&#45;&gt;1</title>
<path fill="none" stroke="black" d="M1171.69,-503.7C1171.69,-496.41 1171.69,-487.73 1171.69,-479.54"/>
<polygon fill="black" stroke="black" points="1175.2,-479.62 1171.69,-469.62 1168.2,-479.62 1175.2,-479.62"/>
</g>
<!-- 6 -->
<g id="node7" class="node">
<title>6</title>
<ellipse fill="none" stroke="black" cx="1171.69" cy="-378" rx="531.94" ry="18"/>
<text text-anchor="middle" x="1171.69" y="-372.95" font-family="Times New Roman,serif" font-size="14.00">Physical Instrument: There&#39;s no way the perp is in here, officer. Look how scarred the boards are &#45;&#45; all attempts to pry them off have failed.</text>
</g>
<!-- 1&#45;&gt;6 -->
<g id="edge2" class="edge">
<title>1&#45;&gt;6</title>
<path fill="none" stroke="black" d="M1171.69,-431.7C1171.69,-424.41 1171.69,-415.73 1171.69,-407.54"/>
<polygon fill="black" stroke="black" points="1175.2,-407.62 1171.69,-397.62 1168.2,-407.62 1175.2,-407.62"/>
</g>
<!-- 2 -->
<g id="node3" class="node">
<title>2</title>
<ellipse fill="none" stroke="black" cx="549.69" cy="-234" rx="139.38" ry="18"/>
<text text-anchor="middle" x="549.69" y="-228.95" font-family="Times New Roman,serif" font-size="14.00">You: Can *I* try to get in though?</text>
</g>
<!-- 8 -->
<g id="node9" class="node">
<title>8</title>
<ellipse fill="none" stroke="black" cx="564.69" cy="-162" rx="564.69" ry="18"/>
<text text-anchor="middle" x="564.69" y="-156.95" font-family="Times New Roman,serif" font-size="14.00">Physical Instrument: Not this time. The opposition is insurmountable. But I like the spirit &#45;&#45; have some *points*! It&#39;s lonely and cold without points.</text>
</g>
<!-- 2&#45;&gt;8 -->
<g id="edge3" class="edge">
<title>2&#45;&gt;8</title>
<path fill="none" stroke="black" d="M553.4,-215.7C554.98,-208.32 556.87,-199.52 558.64,-191.25"/>
<polygon fill="black" stroke="black" points="562.04,-192.1 560.71,-181.58 555.19,-190.63 562.04,-192.1"/>
</g>
<!-- 3 -->
<g id="node4" class="node">
<title>3</title>
<ellipse fill="none" stroke="black" cx="1247.69" cy="-90" rx="462.33" ry="18"/>
<text text-anchor="middle" x="1247.69" y="-84.95" font-family="Times New Roman,serif" font-size="14.00">Kim Kitsuragi: &quot;The suspect? God, I hope not &#45;&#45; I can&#39;t see a way in...&quot; He inspects the bars. &quot;Though many have tried.&quot;</text>
</g>
<!-- 11 -->
<g id="node11" class="node">
<title>11</title>
<ellipse fill="none" stroke="black" cx="1247.69" cy="-18" rx="98.95" ry="18"/>
<text text-anchor="middle" x="1247.69" y="-12.95" font-family="Times New Roman,serif" font-size="14.00">Jump to: [Untitled hub]</text>
</g>
<!-- 3&#45;&gt;11 -->
<g id="edge4" class="edge">
<title>3&#45;&gt;11</title>
<path fill="none" stroke="black" d="M1247.69,-71.7C1247.69,-64.41 1247.69,-55.73 1247.69,-47.54"/>
<polygon fill="black" stroke="black" points="1251.2,-47.62 1247.69,-37.62 1244.2,-47.62 1251.2,-47.62"/>
</g>
<!-- 4 -->
<g id="node5" class="node">
<title>4</title>
<ellipse fill="none" stroke="black" cx="916.69" cy="-234" rx="209.5" ry="18"/>
<text text-anchor="middle" x="916.69" y="-228.95" font-family="Times New Roman,serif" font-size="14.00">You: Nothing more to do here then. [Finish thought.]</text>
</g>
<!-- 5 -->
<g id="node6" class="node">
<title>5</title>
<ellipse fill="none" stroke="black" cx="1171.69" cy="-306" rx="57.49" ry="18"/>
<text text-anchor="middle" x="1171.69" y="-300.95" font-family="Times New Roman,serif" font-size="14.00">Untitled hub</text>
</g>
<!-- 5&#45;&gt;2 -->
<g id="edge5" class="edge">
<title>5&#45;&gt;2</title>
<path fill="none" stroke="black" d="M1118.02,-299.05C1030.15,-289.3 850.11,-269.28 697.69,-252 686.3,-250.71 674.42,-249.35 662.55,-248"/>
<polygon fill="black" stroke="black" points="663.03,-244.53 652.7,-246.87 662.24,-251.49 663.03,-244.53"/>
</g>
<!-- 5&#45;&gt;4 -->
<g id="edge7" class="edge">
<title>5&#45;&gt;4</title>
<path fill="none" stroke="black" d="M1129.59,-293.44C1091.3,-282.93 1033.99,-267.2 988.48,-254.7"/>
<polygon fill="black" stroke="black" points="989.5,-251.36 978.93,-252.09 987.65,-258.11 989.5,-251.36"/>
</g>
<!-- 10 -->
<g id="node10" class="node">
<title>10</title>
<ellipse fill="none" stroke="black" cx="1426.69" cy="-234" rx="282.69" ry="18"/>
<text text-anchor="middle" x="1426.69" y="-228.95" font-family="Times New Roman,serif" font-size="14.00">You: &quot;Kim, you think she&#39;s in there?&quot; (Point at the boarded up building.)</text>
</g>
<!-- 5&#45;&gt;10 -->
<g id="edge6" class="edge">
<title>5&#45;&gt;10</title>
<path fill="none" stroke="black" d="M1213.8,-293.44C1251.83,-283 1308.62,-267.41 1353.98,-254.96"/>
<polygon fill="black" stroke="black" points="1354.78,-258.37 1363.49,-252.35 1352.92,-251.62 1354.78,-258.37"/>
</g>
<!-- 6&#45;&gt;5 -->
<g id="edge8" class="edge">
<title>6&#45;&gt;5</title>
<path fill="none" stroke="black" d="M1171.69,-359.7C1171.69,-352.41 1171.69,-343.73 1171.69,-335.54"/>
<polygon fill="black" stroke="black" points="1175.2,-335.62 1171.69,-325.62 1168.2,-335.62 1175.2,-335.62"/>
</g>
<!-- 7 -->
<g id="node8" class="node">
<title>7</title>
<ellipse fill="none" stroke="black" cx="572.69" cy="-90" rx="187.49" ry="18"/>
<text text-anchor="middle" x="572.69" y="-84.95" font-family="Times New Roman,serif" font-size="14.00">Inland Empire: And dangerous. Dangerous too.</text>
</g>
<!-- 7&#45;&gt;11 -->
<g id="edge9" class="edge">
<title>7&#45;&gt;11</title>
<path fill="none" stroke="black" d="M696.89,-76.12C828.39,-62.48 1033.1,-41.25 1152.42,-28.88"/>
<polygon fill="black" stroke="black" points="1152.61,-32.38 1162.19,-27.87 1151.89,-25.42 1152.61,-32.38"/>
</g>
<!-- 8&#45;&gt;7 -->
<g id="edge10" class="edge">
<title>8&#45;&gt;7</title>
<path fill="none" stroke="black" d="M566.67,-143.7C567.51,-136.41 568.5,-127.73 569.43,-119.54"/>
<polygon fill="black" stroke="black" points="572.91,-119.94 570.57,-109.61 565.96,-119.15 572.91,-119.94"/>
</g>
<!-- 10&#45;&gt;3 -->
<g id="edge11" class="edge">
<title>10&#45;&gt;3</title>
<path fill="none" stroke="black" d="M1404.75,-215.59C1372.99,-190.4 1314.1,-143.68 1278.16,-115.17"/>
<polygon fill="black" stroke="black" points="1280.74,-112.75 1270.73,-109.27 1276.39,-118.23 1280.74,-112.75"/>
</g>
<!-- 11&#45;&gt;5 -->
<g id="edge12" class="edge">
<title>11&#45;&gt;5</title>
<path fill="none" stroke="black" d="M1343.23,-23.05C1473.66,-29.57 1694.16,-44.54 1718.69,-72 1772.01,-131.65 1772.47,-192.77 1718.69,-252 1687.12,-286.79 1380.33,-299.42 1240.51,-303.39"/>
<polygon fill="black" stroke="black" points="1240.54,-299.89 1230.64,-303.67 1240.73,-306.89 1240.54,-299.89"/>
</g>
</g>
</svg>
