<?xml version="1.0" encoding="UTF-8" standalone="no"?>
<!DOCTYPE svg PUBLIC "-//W3C//DTD SVG 1.1//EN"
 "http://www.w3.org/Graphics/SVG/1.1/DTD/svg11.dtd">
<!-- Generated by graphviz version 12.2.1 (20241206.2353)
 -->
<!-- Title: G Pages: 1 -->
<svg width="1850pt" height="836pt"
 viewBox="0.00 0.00 1850.19 836.00" xmlns="http://www.w3.org/2000/svg" xmlns:xlink="http://www.w3.org/1999/xlink">
<g id="graph0" class="graph" transform="scale(1 1) rotate(0) translate(4 832)">
<title>G</title>
<polygon fill="white" stroke="none" points="-4,4 -4,-832 1846.19,-832 1846.19,4 -4,4"/>
<!-- 0 -->
<g id="node1" class="node">
<title>0</title>
<ellipse fill="none" stroke="black" cx="1301.24" cy="-810" rx="39.07" ry="18"/>
<text text-anchor="middle" x="1301.24" y="-804.95" font-family="Times New Roman,serif" font-size="14.00">START</text>
</g>
<!-- 1 -->
<g id="node2" class="node">
<title>1</title>
<ellipse fill="none" stroke="black" cx="1301.24" cy="-738" rx="29.86" ry="18"/>
<text text-anchor="middle" x="1301.24" y="-732.95" font-family="Times New Roman,serif" font-size="14.00">input</text>
</g>
<!-- 0&#45;&gt;1 -->
<g id="edge1" class="edge">
<title>0&#45;&gt;1</title>
<path fill="none" stroke="black" d="M1301.24,-791.7C1301.24,-784.41 1301.24,-775.73 1301.24,-767.54"/>
<polygon fill="black" stroke="black" points="1304.74,-767.62 1301.24,-757.62 1297.74,-767.62 1304.74,-767.62"/>
</g>
<!-- 5 -->
<g id="node6" class="node">
<title>5</title>
<ellipse fill="none" stroke="black" cx="1301.24" cy="-666" rx="376.35" ry="18"/>
<text text-anchor="middle" x="1301.24" y="-660.95" font-family="Times New Roman,serif" font-size="14.00">Logic: This is it &#45;&#45; the scene of the party. The fire pit, cigarettes, and empty bottles all evidence it.</text>
</g>
<!-- 1&#45;&gt;5 -->
<g id="edge2" class="edge">
<title>1&#45;&gt;5</title>
<path fill="none" stroke="black" d="M1301.24,-719.7C1301.24,-712.41 1301.24,-703.73 1301.24,-695.54"/>
<polygon fill="black" stroke="black" points="1304.74,-695.62 1301.24,-685.62 1297.74,-695.62 1304.74,-695.62"/>
</g>
<!-- 2 -->
<g id="node3" class="node">
<title>2</title>
<ellipse fill="none" stroke="black" cx="328.24" cy="-162" rx="328.24" ry="18"/>
<text text-anchor="middle" x="328.24" y="-156.95" font-family="Times New Roman,serif" font-size="14.00">You: &quot;This was some kind of theatre to them. A circus production by a great clown.&quot;</text>
</g>
<!-- 3 -->
<g id="node4" class="node">
<title>3</title>
<ellipse fill="none" stroke="black" cx="876.24" cy="-90" rx="338.99" ry="18"/>
<text text-anchor="middle" x="876.24" y="-84.95" font-family="Times New Roman,serif" font-size="14.00">Kim Kitsuragi: &quot;Hey &#45;&#45; let&#39;s keep moving, detective.&quot; The lieutenant adjusts his glasses.</text>
</g>
<!-- 2&#45;&gt;3 -->
<g id="edge3" class="edge">
<title>2&#45;&gt;3</title>
<path fill="none" stroke="black" d="M453.96,-144.94C538.88,-134.09 650.98,-119.77 738.34,-108.62"/>
<polygon fill="black" stroke="black" points="738.7,-112.1 748.18,-107.36 737.82,-105.15 738.7,-112.1"/>
</g>
<!-- 13 -->
<g id="node14" class="node">
<title>13</title>
<ellipse fill="none" stroke="black" cx="1179.24" cy="-18" rx="206.94" ry="18"/>
<text text-anchor="middle" x="1179.24" y="-12.95" font-family="Times New Roman,serif" font-size="14.00">Empathy: Somehow he doesn&#39;t want to dwell on it...</text>
</g>
<!-- 3&#45;&gt;13 -->
<g id="edge4" class="edge">
<title>3&#45;&gt;13</title>
<path fill="none" stroke="black" d="M949.97,-71.97C994.56,-61.67 1051.47,-48.52 1097.44,-37.9"/>
<polygon fill="black" stroke="black" points="1098.14,-41.33 1107.1,-35.67 1096.56,-34.51 1098.14,-41.33"/>
</g>
<!-- 4 -->
<g id="node5" class="node">
<title>4</title>
<ellipse fill="none" stroke="black" cx="890.24" cy="-162" rx="216.15" ry="18"/>
<text text-anchor="middle" x="890.24" y="-156.95" font-family="Times New Roman,serif" font-size="14.00">You: &quot;Looks like they had a great time laughing here.&quot;</text>
</g>
<!-- 4&#45;&gt;3 -->
<g id="edge5" class="edge">
<title>4&#45;&gt;3</title>
<path fill="none" stroke="black" d="M886.78,-143.7C885.3,-136.32 883.54,-127.52 881.89,-119.25"/>
<polygon fill="black" stroke="black" points="885.35,-118.71 879.96,-109.59 878.49,-120.08 885.35,-118.71"/>
</g>
<!-- 6 -->
<g id="node7" class="node">
<title>6</title>
<ellipse fill="none" stroke="black" cx="1128.24" cy="-450" rx="225.88" ry="18"/>
<text text-anchor="middle" x="1128.24" y="-444.95" font-family="Times New Roman,serif" font-size="14.00">You: Yeah. Sure does look like a lot of folks partied here.</text>
</g>
<!-- 5&#45;&gt;6 -->
<g id="edge8" class="edge">
<title>5&#45;&gt;6</title>
<path fill="none" stroke="black" d="M1167.86,-648.79C1104.56,-632.94 1037,-601.66 1010.24,-540 1003.87,-525.32 1001.55,-517.43 1010.24,-504 1019.16,-490.21 1032.61,-479.98 1047.28,-472.39"/>
<polygon fill="black" stroke="black" points="1048.66,-475.61 1056.22,-468.19 1045.68,-469.28 1048.66,-475.61"/>
</g>
<!-- 10 -->
<g id="node11" class="node">
<title>10</title>
<ellipse fill="none" stroke="black" cx="1301.24" cy="-594" rx="205.41" ry="18"/>
<text text-anchor="middle" x="1301.24" y="-588.95" font-family="Times New Roman,serif" font-size="14.00">You: Hold up &#45;&#45; don&#39;t you mean scene of the crime?</text>
</g>
<!-- 5&#45;&gt;10 -->
<g id="edge7" class="edge">
<title>5&#45;&gt;10</title>
<path fill="none" stroke="black" d="M1301.24,-647.7C1301.24,-640.41 1301.24,-631.73 1301.24,-623.54"/>
<polygon fill="black" stroke="black" points="1304.74,-623.62 1301.24,-613.62 1297.74,-623.62 1304.74,-623.62"/>
</g>
<!-- 17 -->
<g id="node17" class="node">
<title>17</title>
<ellipse fill="none" stroke="black" cx="1542.24" cy="-450" rx="101" ry="18"/>
<text text-anchor="middle" x="1542.24" y="-444.95" font-family="Times New Roman,serif" font-size="14.00">You: (Dismiss thought.)</text>
</g>
<!-- 5&#45;&gt;17 -->
<g id="edge6" class="edge">
<title>5&#45;&gt;17</title>
<path fill="none" stroke="black" d="M1413.81,-648.36C1447.75,-640.43 1484.21,-628.84 1515.24,-612 1556.42,-589.65 1573.59,-582.98 1592.24,-540 1598.61,-525.32 1598.15,-518.87 1592.24,-504 1588.05,-493.44 1580.64,-483.77 1572.79,-475.66"/>
<polygon fill="black" stroke="black" points="1575.32,-473.23 1565.67,-468.85 1570.48,-478.29 1575.32,-473.23"/>
</g>
<!-- 9 -->
<g id="node10" class="node">
<title>9</title>
<ellipse fill="none" stroke="black" cx="1128.24" cy="-378" rx="678.32" ry="18"/>
<text text-anchor="middle" x="1128.24" y="-372.95" font-family="Times New Roman,serif" font-size="14.00">Logic: Looks like they were here a while, judging from all the bottles. The sunken motor carriage provided them a focal point &#45;&#45; like a goose ice&#45;sculpture or a chocolate fountain.</text>
</g>
<!-- 6&#45;&gt;9 -->
<g id="edge9" class="edge">
<title>6&#45;&gt;9</title>
<path fill="none" stroke="black" d="M1128.24,-431.7C1128.24,-424.41 1128.24,-415.73 1128.24,-407.54"/>
<polygon fill="black" stroke="black" points="1131.74,-407.62 1128.24,-397.62 1124.74,-407.62 1131.74,-407.62"/>
</g>
<!-- 7 -->
<g id="node8" class="node">
<title>7</title>
<ellipse fill="none" stroke="black" cx="1483.24" cy="-162" rx="358.95" ry="18"/>
<text text-anchor="middle" x="1483.24" y="-156.95" font-family="Times New Roman,serif" font-size="14.00">You: &quot;Was this party against the law? On the ice like this &#45;&#45; it was probably a public danger.&quot;</text>
</g>
<!-- 12 -->
<g id="node13" class="node">
<title>12</title>
<ellipse fill="none" stroke="black" cx="1483.24" cy="-90" rx="250.44" ry="18"/>
<text text-anchor="middle" x="1483.24" y="-84.95" font-family="Times New Roman,serif" font-size="14.00">Kim Kitsuragi: &quot;Not as such, no. Let&#39;s keep moving, detective.&quot;</text>
</g>
<!-- 7&#45;&gt;12 -->
<g id="edge10" class="edge">
<title>7&#45;&gt;12</title>
<path fill="none" stroke="black" d="M1483.24,-143.7C1483.24,-136.41 1483.24,-127.73 1483.24,-119.54"/>
<polygon fill="black" stroke="black" points="1486.74,-119.62 1483.24,-109.62 1479.74,-119.62 1486.74,-119.62"/>
</g>
<!-- 8 -->
<g id="node9" class="node">
<title>8</title>
<ellipse fill="none" stroke="black" cx="890.24" cy="-234" rx="127.61" ry="18"/>
<text text-anchor="middle" x="890.24" y="-228.95" font-family="Times New Roman,serif" font-size="14.00">Kim Kitsuragi: &quot;Looks like it.&quot;</text>
</g>
<!-- 8&#45;&gt;2 -->
<g id="edge11" class="edge">
<title>8&#45;&gt;2</title>
<path fill="none" stroke="black" d="M796.81,-221.36C707.15,-210.2 570.62,-193.19 468.03,-180.41"/>
<polygon fill="black" stroke="black" points="468.49,-176.94 458.14,-179.18 467.63,-183.89 468.49,-176.94"/>
</g>
<!-- 8&#45;&gt;4 -->
<g id="edge12" class="edge">
<title>8&#45;&gt;4</title>
<path fill="none" stroke="black" d="M890.24,-215.7C890.24,-208.41 890.24,-199.73 890.24,-191.54"/>
<polygon fill="black" stroke="black" points="893.74,-191.62 890.24,-181.62 886.74,-191.62 893.74,-191.62"/>
</g>
<!-- 8&#45;&gt;7 -->
<g id="edge13" class="edge">
<title>8&#45;&gt;7</title>
<path fill="none" stroke="black" d="M985.84,-221.71C1080.39,-210.55 1226.37,-193.32 1335.78,-180.41"/>
<polygon fill="black" stroke="black" points="1335.89,-183.92 1345.41,-179.27 1335.07,-176.97 1335.89,-183.92"/>
</g>
<!-- 11 -->
<g id="node12" class="node">
<title>11</title>
<ellipse fill="none" stroke="black" cx="890.24" cy="-306" rx="269.89" ry="18"/>
<text text-anchor="middle" x="890.24" y="-300.95" font-family="Times New Roman,serif" font-size="14.00">You: &quot;Hey, Kim. Looks like we&#39;ve had a couple of party&#45;goers here.&quot;</text>
</g>
<!-- 9&#45;&gt;11 -->
<g id="edge14" class="edge">
<title>9&#45;&gt;11</title>
<path fill="none" stroke="black" d="M1069.1,-359.61C1035.81,-349.81 994.07,-337.54 959.28,-327.31"/>
<polygon fill="black" stroke="black" points="960.28,-323.95 949.7,-324.49 958.31,-330.67 960.28,-323.95"/>
</g>
<!-- 14 -->
<g id="node15" class="node">
<title>14</title>
<ellipse fill="none" stroke="black" cx="1367.24" cy="-306" rx="189.03" ry="18"/>
<text text-anchor="middle" x="1367.24" y="-300.95" font-family="Times New Roman,serif" font-size="14.00">You: Guess I&#39;ll be on my way. (Finish thought.)</text>
</g>
<!-- 9&#45;&gt;14 -->
<g id="edge15" class="edge">
<title>9&#45;&gt;14</title>
<path fill="none" stroke="black" d="M1187.63,-359.61C1221.7,-349.63 1264.6,-337.06 1299.93,-326.72"/>
<polygon fill="black" stroke="black" points="1300.56,-330.18 1309.18,-324.01 1298.6,-323.46 1300.56,-330.18"/>
</g>
<!-- 15 -->
<g id="node16" class="node">
<title>15</title>
<ellipse fill="none" stroke="black" cx="1301.24" cy="-522" rx="281.67" ry="18"/>
<text text-anchor="middle" x="1301.24" y="-516.95" font-family="Times New Roman,serif" font-size="14.00">Logic: Not as such. I&#39;m talking about what came after &#45;&#45; the party scene.</text>
</g>
<!-- 10&#45;&gt;15 -->
<g id="edge16" class="edge">
<title>10&#45;&gt;15</title>
<path fill="none" stroke="black" d="M1301.24,-575.7C1301.24,-568.41 1301.24,-559.73 1301.24,-551.54"/>
<polygon fill="black" stroke="black" points="1304.74,-551.62 1301.24,-541.62 1297.74,-551.62 1304.74,-551.62"/>
</g>
<!-- 11&#45;&gt;8 -->
<g id="edge17" class="edge">
<title>11&#45;&gt;8</title>
<path fill="none" stroke="black" d="M890.24,-287.7C890.24,-280.41 890.24,-271.73 890.24,-263.54"/>
<polygon fill="black" stroke="black" points="893.74,-263.62 890.24,-253.62 886.74,-263.62 893.74,-263.62"/>
</g>
<!-- 12&#45;&gt;13 -->
<g id="edge18" class="edge">
<title>12&#45;&gt;13</title>
<path fill="none" stroke="black" d="M1410.81,-72.32C1365.86,-61.97 1307.97,-48.64 1261.32,-37.9"/>
<polygon fill="black" stroke="black" points="1262.33,-34.54 1251.8,-35.71 1260.76,-41.36 1262.33,-34.54"/>
</g>
<!-- 15&#45;&gt;6 -->
<g id="edge20" class="edge">
<title>15&#45;&gt;6</title>
<path fill="none" stroke="black" d="M1258.92,-503.88C1235.37,-494.35 1205.86,-482.41 1180.84,-472.28"/>
<polygon fill="black" stroke="black" points="1182.41,-469.14 1171.83,-468.64 1179.78,-475.63 1182.41,-469.14"/>
</g>
<!-- 15&#45;&gt;17 -->
<g id="edge19" class="edge">
<title>15&#45;&gt;17</title>
<path fill="none" stroke="black" d="M1359.89,-503.97C1396.41,-493.36 1443.33,-479.73 1480.43,-468.95"/>
<polygon fill="black" stroke="black" points="1481.03,-472.42 1489.66,-466.27 1479.08,-465.7 1481.03,-472.42"/>
</g>
</g>
</svg>
