<?xml version="1.0" encoding="UTF-8" standalone="no"?>
<!DOCTYPE svg PUBLIC "-//W3C//DTD SVG 1.1//EN"
 "http://www.w3.org/Graphics/SVG/1.1/DTD/svg11.dtd">
<!-- Generated by graphviz version 12.2.1 (20241206.2353)
 -->
<!-- Title: G Pages: 1 -->
<svg width="3073pt" height="548pt"
 viewBox="0.00 0.00 3072.75 548.00" xmlns="http://www.w3.org/2000/svg" xmlns:xlink="http://www.w3.org/1999/xlink">
<g id="graph0" class="graph" transform="scale(1 1) rotate(0) translate(4 544)">
<title>G</title>
<polygon fill="white" stroke="none" points="-4,4 -4,-544 3068.75,-544 3068.75,4 -4,4"/>
<!-- 0 -->
<g id="node1" class="node">
<title>0</title>
<ellipse fill="none" stroke="black" cx="2049.8" cy="-522" rx="39.07" ry="18"/>
<text text-anchor="middle" x="2049.8" y="-516.95" font-family="Times New Roman,serif" font-size="14.00">START</text>
</g>
<!-- 0&#45;&gt;0 -->
<g id="edge1" class="edge">
<title>0&#45;&gt;0</title>
<path fill="none" stroke="black" d="M2077.99,-534.94C2093.1,-537.14 2106.87,-532.83 2106.87,-522 2106.87,-513.96 2099.29,-509.52 2089.2,-508.65"/>
<polygon fill="black" stroke="black" points="2089.37,-505.15 2079.5,-509 2089.62,-512.14 2089.37,-505.15"/>
</g>
<!-- 1 -->
<g id="node2" class="node">
<title>1</title>
<ellipse fill="none" stroke="black" cx="807.8" cy="-234" rx="29.86" ry="18"/>
<text text-anchor="middle" x="807.8" y="-228.95" font-family="Times New Roman,serif" font-size="14.00">input</text>
</g>
<!-- 6 -->
<g id="node7" class="node">
<title>6</title>
<ellipse fill="none" stroke="black" cx="807.8" cy="-162" rx="166.51" ry="18"/>
<text text-anchor="middle" x="807.8" y="-156.95" font-family="Times New Roman,serif" font-size="14.00">You: &quot;Kim, any idea what&#39;s down there?&quot;</text>
</g>
<!-- 1&#45;&gt;6 -->
<g id="edge2" class="edge">
<title>1&#45;&gt;6</title>
<path fill="none" stroke="black" d="M807.8,-215.7C807.8,-208.41 807.8,-199.73 807.8,-191.54"/>
<polygon fill="black" stroke="black" points="811.3,-191.62 807.8,-181.62 804.3,-191.62 811.3,-191.62"/>
</g>
<!-- 2 -->
<g id="node3" class="node">
<title>2</title>
<ellipse fill="none" stroke="black" cx="807.8" cy="-378" rx="807.8" ry="18"/>
<text text-anchor="middle" x="807.8" y="-372.95" font-family="Times New Roman,serif" font-size="14.00">Kim Kitsuragi: &quot;We might find her down *somewhere* &#45;&#45; there&#39;s an old storm drain system beneath Martinaise that&#39;s mostly collapsed. Revachol&#39;s sewage system has been built and rebuilt four or five times now.&quot;</text>
</g>
<!-- 4 -->
<g id="node5" class="node">
<title>4</title>
<ellipse fill="none" stroke="black" cx="807.8" cy="-306" rx="187.49" ry="18"/>
<text text-anchor="middle" x="807.8" y="-300.95" font-family="Times New Roman,serif" font-size="14.00">You: &quot;Think we might find Ruby down there?&quot;</text>
</g>
<!-- 2&#45;&gt;4 -->
<g id="edge3" class="edge">
<title>2&#45;&gt;4</title>
<path fill="none" stroke="black" d="M807.8,-359.7C807.8,-352.41 807.8,-343.73 807.8,-335.54"/>
<polygon fill="black" stroke="black" points="811.3,-335.62 807.8,-325.62 804.3,-335.62 811.3,-335.62"/>
</g>
<!-- 3 -->
<g id="node4" class="node">
<title>3</title>
<ellipse fill="none" stroke="black" cx="807.8" cy="-18" rx="93.83" ry="18"/>
<text text-anchor="middle" x="807.8" y="-12.95" font-family="Times New Roman,serif" font-size="14.00">You: [Finish thought.]</text>
</g>
<!-- 4&#45;&gt;1 -->
<g id="edge4" class="edge">
<title>4&#45;&gt;1</title>
<path fill="none" stroke="black" d="M807.8,-287.7C807.8,-280.41 807.8,-271.73 807.8,-263.54"/>
<polygon fill="black" stroke="black" points="811.3,-263.62 807.8,-253.62 804.3,-263.62 811.3,-263.62"/>
</g>
<!-- 5 -->
<g id="node6" class="node">
<title>5</title>
<ellipse fill="none" stroke="black" cx="2001.8" cy="-378" rx="368.67" ry="18"/>
<text text-anchor="middle" x="2001.8" y="-372.95" font-family="Times New Roman,serif" font-size="14.00">Kim Kitsuragi: He puts his glasses back on. &quot;In conclusion &#45;&#45; she could be under any building.&quot;</text>
</g>
<!-- 13 -->
<g id="node14" class="node">
<title>13</title>
<ellipse fill="none" stroke="black" cx="1995.8" cy="-306" rx="102.02" ry="18"/>
<text text-anchor="middle" x="1995.8" y="-300.95" font-family="Times New Roman,serif" font-size="14.00">You: &quot;But not in there?&quot;</text>
</g>
<!-- 5&#45;&gt;13 -->
<g id="edge5" class="edge">
<title>5&#45;&gt;13</title>
<path fill="none" stroke="black" d="M2000.32,-359.7C1999.7,-352.41 1998.95,-343.73 1998.25,-335.54"/>
<polygon fill="black" stroke="black" points="2001.74,-335.28 1997.4,-325.61 1994.77,-335.87 2001.74,-335.28"/>
</g>
<!-- 11 -->
<g id="node12" class="node">
<title>11</title>
<ellipse fill="none" stroke="black" cx="807.8" cy="-90" rx="462.33" ry="18"/>
<text text-anchor="middle" x="807.8" y="-84.95" font-family="Times New Roman,serif" font-size="14.00">Kim Kitsuragi: &quot;No idea.&quot; He takes his glasses off to polish. &quot;Could be connected to one of the buildings around here...&quot;</text>
</g>
<!-- 6&#45;&gt;11 -->
<g id="edge6" class="edge">
<title>6&#45;&gt;11</title>
<path fill="none" stroke="black" d="M807.8,-143.7C807.8,-136.41 807.8,-127.73 807.8,-119.54"/>
<polygon fill="black" stroke="black" points="811.3,-119.62 807.8,-109.62 804.3,-119.62 811.3,-119.62"/>
</g>
<!-- 7 -->
<g id="node8" class="node">
<title>7</title>
<ellipse fill="none" stroke="black" cx="2506.8" cy="-522" rx="381.98" ry="18"/>
<text text-anchor="middle" x="2506.8" y="-516.95" font-family="Times New Roman,serif" font-size="14.00">Visual Calculus: The light vanishes inside the concrete slit. The structure goes deep under the earth.</text>
</g>
<!-- 12 -->
<g id="node13" class="node">
<title>12</title>
<ellipse fill="none" stroke="black" cx="2506.8" cy="-450" rx="57.49" ry="18"/>
<text text-anchor="middle" x="2506.8" y="-444.95" font-family="Times New Roman,serif" font-size="14.00">Untitled hub</text>
</g>
<!-- 7&#45;&gt;12 -->
<g id="edge7" class="edge">
<title>7&#45;&gt;12</title>
<path fill="none" stroke="black" d="M2506.8,-503.7C2506.8,-496.41 2506.8,-487.73 2506.8,-479.54"/>
<polygon fill="black" stroke="black" points="2510.3,-479.62 2506.8,-469.62 2503.3,-479.62 2510.3,-479.62"/>
</g>
<!-- 8 -->
<g id="node9" class="node">
<title>8</title>
<ellipse fill="none" stroke="black" cx="2590.8" cy="-162" rx="98.95" ry="18"/>
<text text-anchor="middle" x="2590.8" y="-156.95" font-family="Times New Roman,serif" font-size="14.00">Jump to: [Untitled hub]</text>
</g>
<!-- 8&#45;&gt;12 -->
<g id="edge8" class="edge">
<title>8&#45;&gt;12</title>
<path fill="none" stroke="black" d="M2686.08,-167.14C2815.46,-173.75 3033.52,-188.8 3057.8,-216 3068.46,-227.93 3065.12,-237.77 3057.8,-252 3007.59,-349.75 2958.61,-354.63 2856.8,-396 2764.25,-433.61 2648.12,-444.83 2575.67,-448"/>
<polygon fill="black" stroke="black" points="2575.79,-444.5 2565.94,-448.39 2576.07,-451.49 2575.79,-444.5"/>
</g>
<!-- 9 -->
<g id="node10" class="node">
<title>9</title>
<ellipse fill="none" stroke="black" cx="2506.8" cy="-378" rx="118.4" ry="18"/>
<text text-anchor="middle" x="2506.8" y="-372.95" font-family="Times New Roman,serif" font-size="14.00">You: Yell &quot;Ho!&quot; into the slit.</text>
</g>
<!-- 16 -->
<g id="node17" class="node">
<title>16</title>
<ellipse fill="none" stroke="black" cx="2376.8" cy="-306" rx="199.26" ry="18"/>
<text text-anchor="middle" x="2376.8" y="-300.95" font-family="Times New Roman,serif" font-size="14.00">Visual Calculus: There&#39;s no echo &#45;&#45; and no answer.</text>
</g>
<!-- 9&#45;&gt;16 -->
<g id="edge9" class="edge">
<title>9&#45;&gt;16</title>
<path fill="none" stroke="black" d="M2475.67,-360.23C2458.55,-351.02 2437.1,-339.47 2418.55,-329.48"/>
<polygon fill="black" stroke="black" points="2420.39,-326.49 2409.92,-324.83 2417.07,-332.66 2420.39,-326.49"/>
</g>
<!-- 10 -->
<g id="node11" class="node">
<title>10</title>
<ellipse fill="none" stroke="black" cx="1927.8" cy="-234" rx="238.67" ry="18"/>
<text text-anchor="middle" x="1927.8" y="-228.95" font-family="Times New Roman,serif" font-size="14.00">Kim Kitsuragi: He looks into the slit and sighs. &quot;I hope not.&quot;</text>
</g>
<!-- 10&#45;&gt;8 -->
<g id="edge10" class="edge">
<title>10&#45;&gt;8</title>
<path fill="none" stroke="black" d="M2062.77,-218.75C2191.44,-205.17 2381.92,-185.05 2495.48,-173.06"/>
<polygon fill="black" stroke="black" points="2495.82,-176.55 2505.4,-172.02 2495.09,-169.59 2495.82,-176.55"/>
</g>
<!-- 11&#45;&gt;3 -->
<g id="edge11" class="edge">
<title>11&#45;&gt;3</title>
<path fill="none" stroke="black" d="M807.8,-71.7C807.8,-64.41 807.8,-55.73 807.8,-47.54"/>
<polygon fill="black" stroke="black" points="811.3,-47.62 807.8,-37.62 804.3,-47.62 811.3,-47.62"/>
</g>
<!-- 12&#45;&gt;2 -->
<g id="edge13" class="edge">
<title>12&#45;&gt;2</title>
<path fill="none" stroke="black" d="M2449.79,-446.65C2256.5,-438.69 1614.67,-412.24 1193.05,-394.87"/>
<polygon fill="black" stroke="black" points="1193.22,-391.38 1183.08,-394.46 1192.93,-398.37 1193.22,-391.38"/>
</g>
<!-- 12&#45;&gt;5 -->
<g id="edge14" class="edge">
<title>12&#45;&gt;5</title>
<path fill="none" stroke="black" d="M2455.13,-441.84C2379.82,-431.4 2237.44,-411.66 2132.26,-397.08"/>
<polygon fill="black" stroke="black" points="2132.8,-393.62 2122.41,-395.72 2131.84,-400.56 2132.8,-393.62"/>
</g>
<!-- 12&#45;&gt;9 -->
<g id="edge12" class="edge">
<title>12&#45;&gt;9</title>
<path fill="none" stroke="black" d="M2506.8,-431.7C2506.8,-424.41 2506.8,-415.73 2506.8,-407.54"/>
<polygon fill="black" stroke="black" points="2510.3,-407.62 2506.8,-397.62 2503.3,-407.62 2510.3,-407.62"/>
</g>
<!-- 14 -->
<g id="node15" class="node">
<title>14</title>
<ellipse fill="none" stroke="black" cx="2756.8" cy="-378" rx="91.27" ry="18"/>
<text text-anchor="middle" x="2756.8" y="-372.95" font-family="Times New Roman,serif" font-size="14.00">You: What&#39;s in there?</text>
</g>
<!-- 12&#45;&gt;14 -->
<g id="edge15" class="edge">
<title>12&#45;&gt;14</title>
<path fill="none" stroke="black" d="M2548.65,-437.28C2588.58,-426.1 2649.25,-409.12 2694.8,-396.36"/>
<polygon fill="black" stroke="black" points="2695.59,-399.77 2704.28,-393.71 2693.71,-393.03 2695.59,-399.77"/>
</g>
<!-- 13&#45;&gt;10 -->
<g id="edge16" class="edge">
<title>13&#45;&gt;10</title>
<path fill="none" stroke="black" d="M1979.34,-288.05C1971.28,-279.75 1961.4,-269.58 1952.46,-260.38"/>
<polygon fill="black" stroke="black" points="1955.12,-258.09 1945.64,-253.36 1950.1,-262.97 1955.12,-258.09"/>
</g>
<!-- 15 -->
<g id="node16" class="node">
<title>15</title>
<ellipse fill="none" stroke="black" cx="2811.8" cy="-234" rx="236.63" ry="18"/>
<text text-anchor="middle" x="2811.8" y="-228.95" font-family="Times New Roman,serif" font-size="14.00">Visual Calculus: Maybe it&#39;s just a storm drain for the sewer?</text>
</g>
<!-- 14&#45;&gt;15 -->
<g id="edge17" class="edge">
<title>14&#45;&gt;15</title>
<path fill="none" stroke="black" d="M2763.55,-359.59C2772.92,-335.4 2789.97,-291.36 2801.09,-262.65"/>
<polygon fill="black" stroke="black" points="2804.28,-264.11 2804.63,-253.52 2797.75,-261.58 2804.28,-264.11"/>
</g>
<!-- 15&#45;&gt;8 -->
<g id="edge18" class="edge">
<title>15&#45;&gt;8</title>
<path fill="none" stroke="black" d="M2758.31,-216.05C2725.34,-205.61 2683.05,-192.22 2649.21,-181.5"/>
<polygon fill="black" stroke="black" points="2650.58,-178.26 2639.99,-178.58 2648.46,-184.93 2650.58,-178.26"/>
</g>
<!-- 17 -->
<g id="node18" class="node">
<title>17</title>
<ellipse fill="none" stroke="black" cx="2370.8" cy="-234" rx="185.96" ry="18"/>
<text text-anchor="middle" x="2370.8" y="-228.95" font-family="Times New Roman,serif" font-size="14.00">Conceptualization: The silence of god? Sorry...</text>
</g>
<!-- 16&#45;&gt;17 -->
<g id="edge19" class="edge">
<title>16&#45;&gt;17</title>
<path fill="none" stroke="black" d="M2375.32,-287.7C2374.7,-280.41 2373.95,-271.73 2373.25,-263.54"/>
<polygon fill="black" stroke="black" points="2376.74,-263.28 2372.4,-253.61 2369.77,-263.87 2376.74,-263.28"/>
</g>
<!-- 17&#45;&gt;8 -->
<g id="edge20" class="edge">
<title>17&#45;&gt;8</title>
<path fill="none" stroke="black" d="M2423.22,-216.32C2456.13,-205.85 2498.63,-192.33 2532.59,-181.52"/>
<polygon fill="black" stroke="black" points="2533.38,-184.94 2541.85,-178.58 2531.26,-178.27 2533.38,-184.94"/>
</g>
</g>
</svg>
