<?xml version="1.0" encoding="UTF-8" standalone="no"?>
<!DOCTYPE svg PUBLIC "-//W3C//DTD SVG 1.1//EN"
 "http://www.w3.org/Graphics/SVG/1.1/DTD/svg11.dtd">
<!-- Generated by graphviz version 12.2.1 (20241206.2353)
 -->
<!-- Title: G Pages: 1 -->
<svg width="1850pt" height="548pt"
 viewBox="0.00 0.00 1850.03 548.00" xmlns="http://www.w3.org/2000/svg" xmlns:xlink="http://www.w3.org/1999/xlink">
<g id="graph0" class="graph" transform="scale(1 1) rotate(0) translate(4 544)">
<title>G</title>
<polygon fill="white" stroke="none" points="-4,4 -4,-544 1846.03,-544 1846.03,4 -4,4"/>
<!-- 0 -->
<g id="node1" class="node">
<title>0</title>
<ellipse fill="none" stroke="black" cx="1094.69" cy="-522" rx="39.07" ry="18"/>
<text text-anchor="middle" x="1094.69" y="-516.95" font-family="Times New Roman,serif" font-size="14.00">START</text>
</g>
<!-- 1 -->
<g id="node2" class="node">
<title>1</title>
<ellipse fill="none" stroke="black" cx="1094.69" cy="-450" rx="29.86" ry="18"/>
<text text-anchor="middle" x="1094.69" y="-444.95" font-family="Times New Roman,serif" font-size="14.00">input</text>
</g>
<!-- 0&#45;&gt;1 -->
<g id="edge1" class="edge">
<title>0&#45;&gt;1</title>
<path fill="none" stroke="black" d="M1094.69,-503.7C1094.69,-496.41 1094.69,-487.73 1094.69,-479.54"/>
<polygon fill="black" stroke="black" points="1098.2,-479.62 1094.69,-469.62 1091.2,-479.62 1098.2,-479.62"/>
</g>
<!-- 6 -->
<g id="node7" class="node">
<title>6</title>
<ellipse fill="none" stroke="black" cx="1094.69" cy="-378" rx="531.94" ry="18"/>
<text text-anchor="middle" x="1094.69" y="-372.95" font-family="Times New Roman,serif" font-size="14.00">Physical Instrument: There&#39;s no way the perp is in here, officer. Look how scarred the boards are &#45;&#45; all attempts to pry them off have failed.</text>
</g>
<!-- 1&#45;&gt;6 -->
<g id="edge2" class="edge">
<title>1&#45;&gt;6</title>
<path fill="none" stroke="black" d="M1094.69,-431.7C1094.69,-424.41 1094.69,-415.73 1094.69,-407.54"/>
<polygon fill="black" stroke="black" points="1098.2,-407.62 1094.69,-397.62 1091.2,-407.62 1098.2,-407.62"/>
</g>
<!-- 2 -->
<g id="node3" class="node">
<title>2</title>
<ellipse fill="none" stroke="black" cx="564.69" cy="-234" rx="139.38" ry="18"/>
<text text-anchor="middle" x="564.69" y="-228.95" font-family="Times New Roman,serif" font-size="14.00">You: Can *I* try to get in though?</text>
</g>
<!-- 8 -->
<g id="node9" class="node">
<title>8</title>
<ellipse fill="none" stroke="black" cx="564.69" cy="-162" rx="564.69" ry="18"/>
<text text-anchor="middle" x="564.69" y="-156.95" font-family="Times New Roman,serif" font-size="14.00">Physical Instrument: Not this time. The opposition is insurmountable. But I like the spirit &#45;&#45; have some *points*! It&#39;s lonely and cold without points.</text>
</g>
<!-- 2&#45;&gt;8 -->
<g id="edge3" class="edge">
<title>2&#45;&gt;8</title>
<path fill="none" stroke="black" d="M564.69,-215.7C564.69,-208.41 564.69,-199.73 564.69,-191.54"/>
<polygon fill="black" stroke="black" points="568.2,-191.62 564.69,-181.62 561.2,-191.62 568.2,-191.62"/>
</g>
<!-- 3 -->
<g id="node4" class="node">
<title>3</title>
<ellipse fill="none" stroke="black" cx="1379.69" cy="-90" rx="462.33" ry="18"/>
<text text-anchor="middle" x="1379.69" y="-84.95" font-family="Times New Roman,serif" font-size="14.00">Kim Kitsuragi: &quot;The suspect? God, I hope not &#45;&#45; I can&#39;t see a way in...&quot; He inspects the bars. &quot;Though many have tried.&quot;</text>
</g>
<!-- 11 -->
<g id="node12" class="node">
<title>11</title>
<ellipse fill="none" stroke="black" cx="996.69" cy="-18" rx="27" ry="18"/>
<text text-anchor="middle" x="996.69" y="-12.95" font-family="Times New Roman,serif" font-size="14.00">11</text>
</g>
<!-- 3&#45;&gt;11 -->
<g id="edge4" class="edge">
<title>3&#45;&gt;11</title>
<path fill="none" stroke="black" d="M1286.49,-71.97C1205.29,-57.12 1091.73,-36.37 1033.83,-25.79"/>
<polygon fill="black" stroke="black" points="1034.64,-22.38 1024.18,-24.02 1033.38,-29.26 1034.64,-22.38"/>
</g>
<!-- 4 -->
<g id="node5" class="node">
<title>4</title>
<ellipse fill="none" stroke="black" cx="931.69" cy="-234" rx="209.5" ry="18"/>
<text text-anchor="middle" x="931.69" y="-228.95" font-family="Times New Roman,serif" font-size="14.00">You: Nothing more to do here then. [Finish thought.]</text>
</g>
<!-- 5 -->
<g id="node6" class="node">
<title>5</title>
<ellipse fill="none" stroke="black" cx="1094.69" cy="-306" rx="57.49" ry="18"/>
<text text-anchor="middle" x="1094.69" y="-300.95" font-family="Times New Roman,serif" font-size="14.00">Untitled hub</text>
</g>
<!-- 5&#45;&gt;2 -->
<g id="edge5" class="edge">
<title>5&#45;&gt;2</title>
<path fill="none" stroke="black" d="M1042.43,-298.1C956.46,-286.74 783.54,-263.9 671.03,-249.04"/>
<polygon fill="black" stroke="black" points="671.53,-245.58 661.16,-247.74 670.61,-252.52 671.53,-245.58"/>
</g>
<!-- 5&#45;&gt;4 -->
<g id="edge7" class="edge">
<title>5&#45;&gt;4</title>
<path fill="none" stroke="black" d="M1061.71,-290.83C1038.82,-281 1007.89,-267.72 981.95,-256.58"/>
<polygon fill="black" stroke="black" points="983.5,-253.44 972.93,-252.71 980.74,-259.87 983.5,-253.44"/>
</g>
<!-- 10 -->
<g id="node11" class="node">
<title>10</title>
<ellipse fill="none" stroke="black" cx="1257.69" cy="-234" rx="98.95" ry="18"/>
<text text-anchor="middle" x="1257.69" y="-228.95" font-family="Times New Roman,serif" font-size="14.00">Jump to: [Untitled hub]</text>
</g>
<!-- 5&#45;&gt;10 -->
<g id="edge6" class="edge">
<title>5&#45;&gt;10</title>
<path fill="none" stroke="black" d="M1123.63,-290.15C1146.19,-279.92 1177.98,-266.19 1204.99,-254.99"/>
<polygon fill="black" stroke="black" points="1206.15,-258.3 1214.06,-251.25 1203.48,-251.82 1206.15,-258.3"/>
</g>
<!-- 6&#45;&gt;5 -->
<g id="edge8" class="edge">
<title>6&#45;&gt;5</title>
<path fill="none" stroke="black" d="M1094.69,-359.7C1094.69,-352.41 1094.69,-343.73 1094.69,-335.54"/>
<polygon fill="black" stroke="black" points="1098.2,-335.62 1094.69,-325.62 1091.2,-335.62 1098.2,-335.62"/>
</g>
<!-- 7 -->
<g id="node8" class="node">
<title>7</title>
<ellipse fill="none" stroke="black" cx="662.69" cy="-90" rx="187.49" ry="18"/>
<text text-anchor="middle" x="662.69" y="-84.95" font-family="Times New Roman,serif" font-size="14.00">Inland Empire: And dangerous. Dangerous too.</text>
</g>
<!-- 7&#45;&gt;11 -->
<g id="edge9" class="edge">
<title>7&#45;&gt;11</title>
<path fill="none" stroke="black" d="M738.48,-73.12C807.55,-58.64 906.65,-37.87 959.75,-26.74"/>
<polygon fill="black" stroke="black" points="960.43,-30.18 969.5,-24.7 958.99,-23.33 960.43,-30.18"/>
</g>
<!-- 8&#45;&gt;7 -->
<g id="edge10" class="edge">
<title>8&#45;&gt;7</title>
<path fill="none" stroke="black" d="M588.92,-143.7C601.14,-134.97 616.16,-124.24 629.44,-114.75"/>
<polygon fill="black" stroke="black" points="631.41,-117.64 637.52,-108.98 627.35,-111.95 631.41,-117.64"/>
</g>
<!-- 9 -->
<g id="node10" class="node">
<title>9</title>
<ellipse fill="none" stroke="black" cx="1429.69" cy="-162" rx="282.69" ry="18"/>
<text text-anchor="middle" x="1429.69" y="-156.95" font-family="Times New Roman,serif" font-size="14.00">You: &quot;Kim, you think she&#39;s in there?&quot; (Point at the boarded up building.)</text>
</g>
<!-- 9&#45;&gt;3 -->
<g id="edge11" class="edge">
<title>9&#45;&gt;3</title>
<path fill="none" stroke="black" d="M1417.34,-143.7C1411.64,-135.73 1404.77,-126.1 1398.46,-117.26"/>
<polygon fill="black" stroke="black" points="1401.45,-115.44 1392.79,-109.34 1395.76,-119.51 1401.45,-115.44"/>
</g>
<!-- 10&#45;&gt;5 -->
<g id="edge12" class="edge">
<title>10&#45;&gt;5</title>
<path fill="none" stroke="black" d="M1225.41,-251.36C1201.4,-262.19 1168.4,-276.38 1141.52,-287.44"/>
<polygon fill="black" stroke="black" points="1140.51,-284.08 1132.57,-291.1 1143.15,-290.56 1140.51,-284.08"/>
</g>
</g>
</svg>
