<?xml version="1.0" encoding="UTF-8" standalone="no"?>
<!DOCTYPE svg PUBLIC "-//W3C//DTD SVG 1.1//EN"
 "http://www.w3.org/Graphics/SVG/1.1/DTD/svg11.dtd">
<!-- Generated by graphviz version 12.2.1 (20241206.2353)
 -->
<!-- Title: G Pages: 1 -->
<svg width="3745pt" height="188pt"
 viewBox="0.00 0.00 3744.92 188.00" xmlns="http://www.w3.org/2000/svg" xmlns:xlink="http://www.w3.org/1999/xlink">
<g id="graph0" class="graph" transform="scale(1 1) rotate(0) translate(4 184)">
<title>G</title>
<polygon fill="white" stroke="none" points="-4,4 -4,-184 3740.92,-184 3740.92,4 -4,4"/>
<!-- 0 -->
<g id="node1" class="node">
<title>0</title>
<ellipse fill="none" stroke="black" cx="2168.92" cy="-162" rx="39.07" ry="18"/>
<text text-anchor="middle" x="2168.92" y="-156.95" font-family="Times New Roman,serif" font-size="14.00">START</text>
</g>
<!-- 1 -->
<g id="node2" class="node">
<title>1</title>
<ellipse fill="none" stroke="black" cx="2168.92" cy="-90" rx="29.86" ry="18"/>
<text text-anchor="middle" x="2168.92" y="-84.95" font-family="Times New Roman,serif" font-size="14.00">input</text>
</g>
<!-- 0&#45;&gt;1 -->
<g id="edge1" class="edge">
<title>0&#45;&gt;1</title>
<path fill="none" stroke="black" d="M2168.92,-143.7C2168.92,-136.41 2168.92,-127.73 2168.92,-119.54"/>
<polygon fill="black" stroke="black" points="2172.42,-119.62 2168.92,-109.62 2165.42,-119.62 2172.42,-119.62"/>
</g>
<!-- 2 -->
<g id="node3" class="node">
<title>2</title>
<ellipse fill="none" stroke="black" cx="292.92" cy="-18" rx="292.92" ry="18"/>
<text text-anchor="middle" x="292.92" y="-12.95" font-family="Times New Roman,serif" font-size="14.00">Gary, the Cryptofascist: &quot;What about Revacholian traditions and customs?&quot;</text>
</g>
<!-- 1&#45;&gt;2 -->
<g id="edge2" class="edge">
<title>1&#45;&gt;2</title>
<path fill="none" stroke="black" d="M2138.91,-88.24C1979.67,-84.17 1217.69,-64.01 594.92,-36 567.37,-34.76 538.41,-33.31 509.77,-31.8"/>
<polygon fill="black" stroke="black" points="510.08,-28.31 499.91,-31.27 509.71,-35.3 510.08,-28.31"/>
</g>
<!-- 3 -->
<g id="node4" class="node">
<title>3</title>
<ellipse fill="none" stroke="black" cx="933.92" cy="-18" rx="330.29" ry="18"/>
<text text-anchor="middle" x="933.92" y="-12.95" font-family="Times New Roman,serif" font-size="14.00">Gary, the Cryptofascist: &quot;If I come to *your* home I respect your way of life, right?&quot;</text>
</g>
<!-- 1&#45;&gt;3 -->
<g id="edge3" class="edge">
<title>1&#45;&gt;3</title>
<path fill="none" stroke="black" d="M2139.01,-87.3C2008.38,-79.9 1480.61,-49.99 1168.49,-32.3"/>
<polygon fill="black" stroke="black" points="1168.71,-28.8 1158.53,-31.73 1168.32,-35.79 1168.71,-28.8"/>
</g>
<!-- 4 -->
<g id="node5" class="node">
<title>4</title>
<ellipse fill="none" stroke="black" cx="1553.92" cy="-18" rx="271.43" ry="18"/>
<text text-anchor="middle" x="1553.92" y="-12.95" font-family="Times New Roman,serif" font-size="14.00">Gary, the Cryptofascist: &quot;Quite colourful in here... I mean the lights!&quot;</text>
</g>
<!-- 1&#45;&gt;4 -->
<g id="edge4" class="edge">
<title>1&#45;&gt;4</title>
<path fill="none" stroke="black" d="M2139.68,-85.67C2061.74,-76.8 1845.01,-52.13 1698.19,-35.42"/>
<polygon fill="black" stroke="black" points="1698.7,-31.96 1688.37,-34.3 1697.91,-38.91 1698.7,-31.96"/>
</g>
<!-- 5 -->
<g id="node6" class="node">
<title>5</title>
<ellipse fill="none" stroke="black" cx="2168.92" cy="-18" rx="325.68" ry="18"/>
<text text-anchor="middle" x="2168.92" y="-12.95" font-family="Times New Roman,serif" font-size="14.00">Gary, the Cryptofascist: &quot;Mass&#45;radio can&#39;t be trusted. They&#39;re all just mouth&#45;pieces.&quot;</text>
</g>
<!-- 1&#45;&gt;5 -->
<g id="edge5" class="edge">
<title>1&#45;&gt;5</title>
<path fill="none" stroke="black" d="M2168.92,-71.7C2168.92,-64.41 2168.92,-55.73 2168.92,-47.54"/>
<polygon fill="black" stroke="black" points="2172.42,-47.62 2168.92,-37.62 2165.42,-47.62 2172.42,-47.62"/>
</g>
<!-- 6 -->
<g id="node7" class="node">
<title>6</title>
<ellipse fill="none" stroke="black" cx="2816.92" cy="-18" rx="304.7" ry="18"/>
<text text-anchor="middle" x="2816.92" y="-12.95" font-family="Times New Roman,serif" font-size="14.00">Gary, the Cryptofascist: &quot;I don&#39;t mean to sound paranoid or anything, *but*...&quot;</text>
</g>
<!-- 1&#45;&gt;6 -->
<g id="edge6" class="edge">
<title>1&#45;&gt;6</title>
<path fill="none" stroke="black" d="M2198.45,-85.81C2279.27,-77.08 2508.42,-52.33 2663.91,-35.53"/>
<polygon fill="black" stroke="black" points="2663.91,-39.05 2673.48,-34.5 2663.16,-32.09 2663.91,-39.05"/>
</g>
<!-- 7 -->
<g id="node8" class="node">
<title>7</title>
<ellipse fill="none" stroke="black" cx="3401.92" cy="-18" rx="262.73" ry="18"/>
<text text-anchor="middle" x="3401.92" y="-12.95" font-family="Times New Roman,serif" font-size="14.00">Gary, the Cryptofascist: &quot;It&#39;s not like I go to meetings or anything.&quot;</text>
</g>
<!-- 1&#45;&gt;7 -->
<g id="edge7" class="edge">
<title>1&#45;&gt;7</title>
<path fill="none" stroke="black" d="M2198.85,-87.43C2317.15,-81.23 2763.57,-57.64 3130.92,-36 3154.18,-34.63 3178.56,-33.16 3202.76,-31.67"/>
<polygon fill="black" stroke="black" points="3202.96,-35.16 3212.73,-31.05 3202.53,-28.17 3202.96,-35.16"/>
</g>
<!-- 9 -->
<g id="node10" class="node">
<title>9</title>
<ellipse fill="none" stroke="black" cx="3709.92" cy="-18" rx="27" ry="18"/>
<text text-anchor="middle" x="3709.92" y="-12.95" font-family="Times New Roman,serif" font-size="14.00">9</text>
</g>
<!-- 1&#45;&gt;9 -->
<g id="edge8" class="edge">
<title>1&#45;&gt;9</title>
<path fill="none" stroke="black" d="M2198.96,-88.67C2398.2,-86.39 3525.77,-71.97 3673.92,-36 3675.56,-35.6 3677.21,-35.13 3678.86,-34.59"/>
<polygon fill="black" stroke="black" points="3680.09,-37.87 3688.11,-30.94 3677.52,-31.36 3680.09,-37.87"/>
</g>
<!-- 8 -->
<g id="node9" class="node">
<title>8</title>
<ellipse fill="none" stroke="black" cx="2490.92" cy="-162" rx="265.29" ry="18"/>
<text text-anchor="middle" x="2490.92" y="-156.95" font-family="Times New Roman,serif" font-size="14.00">Gary, the Cryptofascist: &quot;Gotta be careful what you say these days.&quot;</text>
</g>
</g>
</svg>
