<?xml version="1.0" encoding="UTF-8" standalone="no"?>
<!DOCTYPE svg PUBLIC "-//W3C//DTD SVG 1.1//EN"
 "http://www.w3.org/Graphics/SVG/1.1/DTD/svg11.dtd">
<!-- Generated by graphviz version 12.2.1 (20241206.2353)
 -->
<!-- Title: G Pages: 1 -->
<svg width="2323pt" height="476pt"
 viewBox="0.00 0.00 2323.03 476.00" xmlns="http://www.w3.org/2000/svg" xmlns:xlink="http://www.w3.org/1999/xlink">
<g id="graph0" class="graph" transform="scale(1 1) rotate(0) translate(4 472)">
<title>G</title>
<polygon fill="white" stroke="none" points="-4,4 -4,-472 2319.03,-472 2319.03,4 -4,4"/>
<!-- 0 -->
<g id="node1" class="node">
<title>0</title>
<ellipse fill="none" stroke="black" cx="666.33" cy="-450" rx="39.07" ry="18"/>
<text text-anchor="middle" x="666.33" y="-444.95" font-family="Times New Roman,serif" font-size="14.00">START</text>
</g>
<!-- 0&#45;&gt;0 -->
<g id="edge1" class="edge">
<title>0&#45;&gt;0</title>
<path fill="none" stroke="black" d="M694.52,-462.94C709.63,-465.14 723.4,-460.83 723.4,-450 723.4,-441.96 715.82,-437.52 705.73,-436.65"/>
<polygon fill="black" stroke="black" points="705.9,-433.15 696.03,-437 706.15,-440.14 705.9,-433.15"/>
</g>
<!-- 1 -->
<g id="node2" class="node">
<title>1</title>
<ellipse fill="none" stroke="black" cx="771.33" cy="-450" rx="29.86" ry="18"/>
<text text-anchor="middle" x="771.33" y="-444.95" font-family="Times New Roman,serif" font-size="14.00">input</text>
</g>
<!-- 5 -->
<g id="node6" class="node">
<title>5</title>
<ellipse fill="none" stroke="black" cx="771.33" cy="-378" rx="57.49" ry="18"/>
<text text-anchor="middle" x="771.33" y="-372.95" font-family="Times New Roman,serif" font-size="14.00">Untitled hub</text>
</g>
<!-- 1&#45;&gt;5 -->
<g id="edge2" class="edge">
<title>1&#45;&gt;5</title>
<path fill="none" stroke="black" d="M765.46,-432.05C764.67,-424.68 764.42,-415.84 764.69,-407.51"/>
<polygon fill="black" stroke="black" points="768.16,-407.99 765.32,-397.79 761.18,-407.54 768.16,-407.99"/>
</g>
<!-- 2 -->
<g id="node3" class="node">
<title>2</title>
<ellipse fill="none" stroke="black" cx="1082.33" cy="-234" rx="139.38" ry="18"/>
<text text-anchor="middle" x="1082.33" y="-228.95" font-family="Times New Roman,serif" font-size="14.00">You: Can *I* try to get in though?</text>
</g>
<!-- 7 -->
<g id="node8" class="node">
<title>7</title>
<ellipse fill="none" stroke="black" cx="980.33" cy="-162" rx="187.49" ry="18"/>
<text text-anchor="middle" x="980.33" y="-156.95" font-family="Times New Roman,serif" font-size="14.00">Inland Empire: And dangerous. Dangerous too.</text>
</g>
<!-- 2&#45;&gt;7 -->
<g id="edge3" class="edge">
<title>2&#45;&gt;7</title>
<path fill="none" stroke="black" d="M1057.38,-215.88C1044.54,-207.06 1028.68,-196.18 1014.7,-186.59"/>
<polygon fill="black" stroke="black" points="1016.85,-183.82 1006.63,-181.05 1012.89,-189.59 1016.85,-183.82"/>
</g>
<!-- 3 -->
<g id="node4" class="node">
<title>3</title>
<ellipse fill="none" stroke="black" cx="462.33" cy="-234" rx="462.33" ry="18"/>
<text text-anchor="middle" x="462.33" y="-228.95" font-family="Times New Roman,serif" font-size="14.00">Kim Kitsuragi: &quot;The suspect? God, I hope not &#45;&#45; I can&#39;t see a way in...&quot; He inspects the bars. &quot;Though many have tried.&quot;</text>
</g>
<!-- 10 -->
<g id="node11" class="node">
<title>10</title>
<ellipse fill="none" stroke="black" cx="980.33" cy="-90" rx="98.95" ry="18"/>
<text text-anchor="middle" x="980.33" y="-84.95" font-family="Times New Roman,serif" font-size="14.00">Jump to: [Untitled hub]</text>
</g>
<!-- 3&#45;&gt;10 -->
<g id="edge4" class="edge">
<title>3&#45;&gt;10</title>
<path fill="none" stroke="black" d="M524.64,-215.67C589.48,-197.66 693.98,-168.7 784.33,-144 828.12,-132.03 877.46,-118.69 915.68,-108.39"/>
<polygon fill="black" stroke="black" points="916.45,-111.8 925.19,-105.82 914.63,-105.04 916.45,-111.8"/>
</g>
<!-- 4 -->
<g id="node5" class="node">
<title>4</title>
<ellipse fill="none" stroke="black" cx="1304.33" cy="-18" rx="209.5" ry="18"/>
<text text-anchor="middle" x="1304.33" y="-12.95" font-family="Times New Roman,serif" font-size="14.00">You: Nothing more to do here then. [Finish thought.]</text>
</g>
<!-- 5&#45;&gt;1 -->
<g id="edge5" class="edge">
<title>5&#45;&gt;1</title>
<path fill="none" stroke="black" d="M777.25,-396.28C778,-403.6 778.25,-412.34 777.98,-420.57"/>
<polygon fill="black" stroke="black" points="774.48,-420.33 777.31,-430.54 781.47,-420.8 774.48,-420.33"/>
</g>
<!-- 5&#45;&gt;3 -->
<g id="edge6" class="edge">
<title>5&#45;&gt;3</title>
<path fill="none" stroke="black" d="M740,-362.6C685.79,-337.69 574.17,-286.39 510.19,-256.99"/>
<polygon fill="black" stroke="black" points="511.89,-253.92 501.34,-252.92 508.96,-260.28 511.89,-253.92"/>
</g>
<!-- 9 -->
<g id="node10" class="node">
<title>9</title>
<ellipse fill="none" stroke="black" cx="1004.33" cy="-306" rx="282.69" ry="18"/>
<text text-anchor="middle" x="1004.33" y="-300.95" font-family="Times New Roman,serif" font-size="14.00">You: &quot;Kim, you think she&#39;s in there?&quot; (Point at the boarded up building.)</text>
</g>
<!-- 5&#45;&gt;9 -->
<g id="edge7" class="edge">
<title>5&#45;&gt;9</title>
<path fill="none" stroke="black" d="M811.92,-364.81C846.32,-354.47 896.35,-339.44 936.78,-327.3"/>
<polygon fill="black" stroke="black" points="937.61,-330.7 946.18,-324.47 935.6,-324 937.61,-330.7"/>
</g>
<!-- 6 -->
<g id="node7" class="node">
<title>6</title>
<ellipse fill="none" stroke="black" cx="1689.33" cy="-90" rx="531.94" ry="18"/>
<text text-anchor="middle" x="1689.33" y="-84.95" font-family="Times New Roman,serif" font-size="14.00">Physical Instrument: There&#39;s no way the perp is in here, officer. Look how scarred the boards are &#45;&#45; all attempts to pry them off have failed.</text>
</g>
<!-- 6&#45;&gt;4 -->
<g id="edge8" class="edge">
<title>6&#45;&gt;4</title>
<path fill="none" stroke="black" d="M1595.15,-71.88C1536.7,-61.25 1461.71,-47.61 1402.52,-36.85"/>
<polygon fill="black" stroke="black" points="1403.24,-33.43 1392.77,-35.08 1401.99,-40.31 1403.24,-33.43"/>
</g>
<!-- 7&#45;&gt;10 -->
<g id="edge9" class="edge">
<title>7&#45;&gt;10</title>
<path fill="none" stroke="black" d="M980.33,-143.7C980.33,-136.41 980.33,-127.73 980.33,-119.54"/>
<polygon fill="black" stroke="black" points="983.83,-119.62 980.33,-109.62 976.83,-119.62 983.83,-119.62"/>
</g>
<!-- 8 -->
<g id="node9" class="node">
<title>8</title>
<ellipse fill="none" stroke="black" cx="1750.33" cy="-162" rx="564.69" ry="18"/>
<text text-anchor="middle" x="1750.33" y="-156.95" font-family="Times New Roman,serif" font-size="14.00">Physical Instrument: Not this time. The opposition is insurmountable. But I like the spirit &#45;&#45; have some *points*! It&#39;s lonely and cold without points.</text>
</g>
<!-- 8&#45;&gt;6 -->
<g id="edge10" class="edge">
<title>8&#45;&gt;6</title>
<path fill="none" stroke="black" d="M1735.25,-143.7C1728.16,-135.56 1719.56,-125.69 1711.73,-116.7"/>
<polygon fill="black" stroke="black" points="1714.44,-114.49 1705.23,-109.25 1709.16,-119.08 1714.44,-114.49"/>
</g>
<!-- 9&#45;&gt;2 -->
<g id="edge11" class="edge">
<title>9&#45;&gt;2</title>
<path fill="none" stroke="black" d="M1023.61,-287.7C1033.06,-279.22 1044.6,-268.86 1054.94,-259.58"/>
<polygon fill="black" stroke="black" points="1057.04,-262.4 1062.15,-253.12 1052.37,-257.19 1057.04,-262.4"/>
</g>
<!-- 10&#45;&gt;4 -->
<g id="edge12" class="edge">
<title>10&#45;&gt;4</title>
<path fill="none" stroke="black" d="M1042.42,-75.59C1092.19,-64.83 1162.59,-49.62 1217.87,-37.68"/>
<polygon fill="black" stroke="black" points="1218.56,-41.11 1227.59,-35.58 1217.08,-34.27 1218.56,-41.11"/>
</g>
</g>
</svg>
