<?xml version="1.0" encoding="UTF-8" standalone="no"?>
<!DOCTYPE svg PUBLIC "-//W3C//DTD SVG 1.1//EN"
 "http://www.w3.org/Graphics/SVG/1.1/DTD/svg11.dtd">
<!-- Generated by graphviz version 12.2.1 (20241206.2353)
 -->
<!-- Title: G Pages: 1 -->
<svg width="2570pt" height="1556pt"
 viewBox="0.00 0.00 2569.90 1556.00" xmlns="http://www.w3.org/2000/svg" xmlns:xlink="http://www.w3.org/1999/xlink">
<g id="graph0" class="graph" transform="scale(1 1) rotate(0) translate(4 1552)">
<title>G</title>
<polygon fill="white" stroke="none" points="-4,4 -4,-1552 2565.9,-1552 2565.9,4 -4,4"/>
<!-- 0 -->
<g id="node1" class="node">
<title>0</title>
<ellipse fill="none" stroke="black" cx="1963.42" cy="-1530" rx="39.07" ry="18"/>
<text text-anchor="middle" x="1963.42" y="-1524.95" font-family="Times New Roman,serif" font-size="14.00">START</text>
</g>
<!-- 1 -->
<g id="node2" class="node">
<title>1</title>
<ellipse fill="none" stroke="black" cx="1963.42" cy="-1458" rx="29.86" ry="18"/>
<text text-anchor="middle" x="1963.42" y="-1452.95" font-family="Times New Roman,serif" font-size="14.00">input</text>
</g>
<!-- 0&#45;&gt;1 -->
<g id="edge1" class="edge">
<title>0&#45;&gt;1</title>
<path fill="none" stroke="black" d="M1963.42,-1511.7C1963.42,-1504.41 1963.42,-1495.73 1963.42,-1487.54"/>
<polygon fill="black" stroke="black" points="1966.92,-1487.62 1963.42,-1477.62 1959.92,-1487.62 1966.92,-1487.62"/>
</g>
<!-- 9 -->
<g id="node10" class="node">
<title>9</title>
<ellipse fill="none" stroke="black" cx="1963.42" cy="-1386" rx="385.05" ry="18"/>
<text text-anchor="middle" x="1963.42" y="-1380.95" font-family="Times New Roman,serif" font-size="14.00">Evrart Claire: &quot;Of course, let us dispatch with the formalities, you call me Evrart, I call you Harry!&quot;</text>
</g>
<!-- 1&#45;&gt;9 -->
<g id="edge2" class="edge">
<title>1&#45;&gt;9</title>
<path fill="none" stroke="black" d="M1963.42,-1439.7C1963.42,-1432.41 1963.42,-1423.73 1963.42,-1415.54"/>
<polygon fill="black" stroke="black" points="1966.92,-1415.62 1963.42,-1405.62 1959.92,-1415.62 1966.92,-1415.62"/>
</g>
<!-- 2 -->
<g id="node3" class="node">
<title>2</title>
<ellipse fill="none" stroke="black" cx="658.42" cy="-954" rx="490.48" ry="18"/>
<text text-anchor="middle" x="658.42" y="-948.95" font-family="Times New Roman,serif" font-size="14.00">Evrart Claire: &quot;Don&#39;t be too hard on yourself, officer. And if there&#39;s *anything* I can help you with, please don&#39;t hesitate to ask.&quot;</text>
</g>
<!-- 4 -->
<g id="node5" class="node">
<title>4</title>
<ellipse fill="none" stroke="black" cx="509.42" cy="-882" rx="509.42" ry="18"/>
<text text-anchor="middle" x="509.42" y="-876.95" font-family="Times New Roman,serif" font-size="14.00">Inland Empire: Do *not* trust him. For all you know, it might be *his* name by which he is addressing you. You need confirmation.</text>
</g>
<!-- 2&#45;&gt;4 -->
<g id="edge3" class="edge">
<title>2&#45;&gt;4</title>
<path fill="none" stroke="black" d="M621.59,-935.7C601.98,-926.48 577.64,-915.05 556.66,-905.19"/>
<polygon fill="black" stroke="black" points="558.25,-902.07 547.71,-900.99 555.28,-908.41 558.25,-902.07"/>
</g>
<!-- 3 -->
<g id="node4" class="node">
<title>3</title>
<ellipse fill="none" stroke="black" cx="1566.42" cy="-738" rx="524.26" ry="18"/>
<text text-anchor="middle" x="1566.42" y="-732.95" font-family="Times New Roman,serif" font-size="14.00">Perception (Sight): The huge block letters on the folder read &quot;HARRIER DU BOIS&quot;. There&#39;s something in small writing just above that...</text>
</g>
<!-- 26 -->
<g id="node26" class="node">
<title>26</title>
<ellipse fill="none" stroke="black" cx="1566.42" cy="-666" rx="202.33" ry="18"/>
<text text-anchor="middle" x="1566.42" y="-660.95" font-family="Times New Roman,serif" font-size="14.00">Variable[&quot;cargo.evrart_perception_noticed_folder&quot;]</text>
</g>
<!-- 3&#45;&gt;26 -->
<g id="edge4" class="edge">
<title>3&#45;&gt;26</title>
<path fill="none" stroke="black" d="M1566.42,-719.7C1566.42,-712.41 1566.42,-703.73 1566.42,-695.54"/>
<polygon fill="black" stroke="black" points="1569.92,-695.62 1566.42,-685.62 1562.92,-695.62 1569.92,-695.62"/>
</g>
<!-- 21 -->
<g id="node21" class="node">
<title>21</title>
<ellipse fill="none" stroke="black" cx="1566.42" cy="-810" rx="645.56" ry="18"/>
<text text-anchor="middle" x="1566.42" y="-804.95" font-family="Times New Roman,serif" font-size="14.00">Evrart Claire: &quot;I&#39;m sure you had some concerns you thought I might be able to address.&quot; He pauses to look at a brown folder on his desk. &quot;And you were probably right.&quot;</text>
</g>
<!-- 4&#45;&gt;21 -->
<g id="edge5" class="edge">
<title>4&#45;&gt;21</title>
<path fill="none" stroke="black" d="M742.69,-865.55C911.2,-854.39 1138.66,-839.33 1311.86,-827.86"/>
<polygon fill="black" stroke="black" points="1311.93,-831.36 1321.68,-827.21 1311.47,-824.38 1311.93,-831.36"/>
</g>
<!-- 5 -->
<g id="node6" class="node">
<title>5</title>
<ellipse fill="none" stroke="black" cx="1532.42" cy="-234" rx="537.06" ry="18"/>
<text text-anchor="middle" x="1532.42" y="-228.95" font-family="Times New Roman,serif" font-size="14.00">Evrart Claire: &quot;Mr. Kitsuragi...&quot; He leaves the rest of this sentence hanging in the air and lets his smug smile deliver the rest of the message.</text>
</g>
<!-- 24 -->
<g id="node24" class="node">
<title>24</title>
<ellipse fill="none" stroke="black" cx="1712.42" cy="-162" rx="275.52" ry="18"/>
<text text-anchor="middle" x="1712.42" y="-156.95" font-family="Times New Roman,serif" font-size="14.00">Drama: &quot;Don&#39;t you worry, I&#39;ve got plenty on you too, my rigid friend.&quot;</text>
</g>
<!-- 5&#45;&gt;24 -->
<g id="edge6" class="edge">
<title>5&#45;&gt;24</title>
<path fill="none" stroke="black" d="M1576.91,-215.7C1601.34,-206.2 1631.85,-194.33 1657.72,-184.27"/>
<polygon fill="black" stroke="black" points="1658.66,-187.66 1666.71,-180.77 1656.13,-181.14 1658.66,-187.66"/>
</g>
<!-- 6 -->
<g id="node7" class="node">
<title>6</title>
<ellipse fill="none" stroke="black" cx="954.42" cy="-1026" rx="495.6" ry="18"/>
<text text-anchor="middle" x="954.42" y="-1020.95" font-family="Times New Roman,serif" font-size="14.00">Evrart Claire: &quot;I guess the stress of peace&#45;keeping and order&#45;maintaining can get even to the best of us.&quot; He scratches his earlobe.</text>
</g>
<!-- 6&#45;&gt;2 -->
<g id="edge7" class="edge">
<title>6&#45;&gt;2</title>
<path fill="none" stroke="black" d="M881.63,-1007.79C839.5,-997.82 786.29,-985.24 742.39,-974.86"/>
<polygon fill="black" stroke="black" points="743.45,-971.51 732.91,-972.62 741.84,-978.32 743.45,-971.51"/>
</g>
<!-- 7 -->
<g id="node8" class="node">
<title>7</title>
<ellipse fill="none" stroke="black" cx="2331.42" cy="-954" rx="108.16" ry="18"/>
<text text-anchor="middle" x="2331.42" y="-948.95" font-family="Times New Roman,serif" font-size="14.00">Jump to: [EVRARTHUB]</text>
</g>
<!-- 6050606 -->
<g id="node30" class="node">
<title>6050606</title>
<polygon fill="none" stroke="black" points="2195.42,-36 1926.65,-18 2195.42,0 2464.19,-18 2195.42,-36"/>
<text text-anchor="middle" x="2195.42" y="-12.95" font-family="Times New Roman,serif" font-size="14.00">JUMP OUT to CONTAINERYARD / EVRART</text>
</g>
<!-- 7&#45;&gt;6050606 -->
<g id="edge8" class="edge">
<title>7&#45;&gt;6050606</title>
<path fill="none" stroke="black" d="M2331.42,-935.51C2331.42,-908.71 2331.42,-855.87 2331.42,-811 2331.42,-811 2331.42,-811 2331.42,-161 2331.42,-105.61 2276.79,-63.39 2236.78,-39.9"/>
<polygon fill="black" stroke="black" points="2238.7,-36.97 2228.28,-35.08 2235.25,-43.06 2238.7,-36.97"/>
</g>
<!-- 8 -->
<g id="node9" class="node">
<title>8</title>
<ellipse fill="none" stroke="black" cx="1597.42" cy="-1170" rx="323.63" ry="18"/>
<text text-anchor="middle" x="1597.42" y="-1164.95" font-family="Times New Roman,serif" font-size="14.00">Rhetoric: It might be a good idea to hide your confusion, see what his game is first.</text>
</g>
<!-- 13 -->
<g id="node13" class="node">
<title>13</title>
<ellipse fill="none" stroke="black" cx="1115.42" cy="-1098" rx="244.3" ry="18"/>
<text text-anchor="middle" x="1115.42" y="-1092.95" font-family="Times New Roman,serif" font-size="14.00">You: &quot;To be honest, my memory is a bit hazy right now, yes.&quot;</text>
</g>
<!-- 8&#45;&gt;13 -->
<g id="edge9" class="edge">
<title>8&#45;&gt;13</title>
<path fill="none" stroke="black" d="M1485.02,-1152.68C1409.59,-1141.72 1310.39,-1127.31 1233.75,-1116.18"/>
<polygon fill="black" stroke="black" points="1234.51,-1112.76 1224.11,-1114.78 1233.5,-1119.69 1234.51,-1112.76"/>
</g>
<!-- 22 -->
<g id="node22" class="node">
<title>22</title>
<ellipse fill="none" stroke="black" cx="1607.42" cy="-1098" rx="217.69" ry="18"/>
<text text-anchor="middle" x="1607.42" y="-1092.95" font-family="Times New Roman,serif" font-size="14.00">You: &quot;Nah, my memory is fine &#45;&#45; I&#39;m just testing you.&quot;</text>
</g>
<!-- 8&#45;&gt;22 -->
<g id="edge10" class="edge">
<title>8&#45;&gt;22</title>
<path fill="none" stroke="black" d="M1599.89,-1151.7C1600.95,-1144.32 1602.2,-1135.52 1603.38,-1127.25"/>
<polygon fill="black" stroke="black" points="1606.81,-1128 1604.76,-1117.6 1599.88,-1127.01 1606.81,-1128"/>
</g>
<!-- 14 -->
<g id="node14" class="node">
<title>14</title>
<ellipse fill="none" stroke="black" cx="1860.42" cy="-1314" rx="104.58" ry="18"/>
<text text-anchor="middle" x="1860.42" y="-1308.95" font-family="Times New Roman,serif" font-size="14.00">You: &quot;Is that my name?&quot;</text>
</g>
<!-- 9&#45;&gt;14 -->
<g id="edge12" class="edge">
<title>9&#45;&gt;14</title>
<path fill="none" stroke="black" d="M1937.96,-1367.7C1924.89,-1358.81 1908.79,-1347.87 1894.65,-1338.26"/>
<polygon fill="black" stroke="black" points="1896.72,-1335.44 1886.48,-1332.71 1892.79,-1341.23 1896.72,-1335.44"/>
</g>
<!-- 19 -->
<g id="node19" class="node">
<title>19</title>
<ellipse fill="none" stroke="black" cx="2199.42" cy="-1314" rx="84.62" ry="18"/>
<text text-anchor="middle" x="2199.42" y="-1308.95" font-family="Times New Roman,serif" font-size="14.00">You: &quot;Fine by me.&quot;</text>
</g>
<!-- 9&#45;&gt;19 -->
<g id="edge11" class="edge">
<title>9&#45;&gt;19</title>
<path fill="none" stroke="black" d="M2021.45,-1367.79C2057.69,-1357.04 2104.21,-1343.24 2140.6,-1332.45"/>
<polygon fill="black" stroke="black" points="2141.5,-1335.83 2150.09,-1329.63 2139.51,-1329.12 2141.5,-1335.83"/>
</g>
<!-- 10 -->
<g id="node11" class="node">
<title>10</title>
<ellipse fill="none" stroke="black" cx="2331.42" cy="-1242" rx="230.48" ry="18"/>
<text text-anchor="middle" x="2331.42" y="-1236.95" font-family="Times New Roman,serif" font-size="14.00">Evrart Claire: &quot;So Harry, what can I help you with today?&quot;</text>
</g>
<!-- 10&#45;&gt;7 -->
<g id="edge13" class="edge">
<title>10&#45;&gt;7</title>
<path fill="none" stroke="black" d="M2331.42,-1223.54C2331.42,-1175.76 2331.42,-1042.51 2331.42,-983.61"/>
<polygon fill="black" stroke="black" points="2334.92,-983.75 2331.42,-973.75 2327.92,-983.75 2334.92,-983.75"/>
</g>
<!-- 11 -->
<g id="node12" class="node">
<title>11</title>
<ellipse fill="none" stroke="black" cx="1975.42" cy="-90" rx="108.16" ry="18"/>
<text text-anchor="middle" x="1975.42" y="-84.95" font-family="Times New Roman,serif" font-size="14.00">Jump to: [EVRARTHUB]</text>
</g>
<!-- 11&#45;&gt;6050606 -->
<g id="edge14" class="edge">
<title>11&#45;&gt;6050606</title>
<path fill="none" stroke="black" d="M2023.97,-73.55C2058.03,-62.71 2103.66,-48.2 2139.28,-36.86"/>
<polygon fill="black" stroke="black" points="2140.08,-40.28 2148.55,-33.91 2137.96,-33.61 2140.08,-40.28"/>
</g>
<!-- 13&#45;&gt;6 -->
<g id="edge15" class="edge">
<title>13&#45;&gt;6</title>
<path fill="none" stroke="black" d="M1076.03,-1079.88C1054.56,-1070.54 1027.75,-1058.88 1004.77,-1048.89"/>
<polygon fill="black" stroke="black" points="1006.47,-1045.81 995.9,-1045.04 1003.68,-1052.23 1006.47,-1045.81"/>
</g>
<!-- 25 -->
<g id="node25" class="node">
<title>25</title>
<ellipse fill="none" stroke="black" cx="1597.42" cy="-1242" rx="485.36" ry="18"/>
<text text-anchor="middle" x="1597.42" y="-1236.95" font-family="Times New Roman,serif" font-size="14.00">Evrart Claire: For a fraction of a second the big man looks at you inquisitively. &quot;Experiencing partial amnesia, are we, Harry?&quot;</text>
</g>
<!-- 14&#45;&gt;25 -->
<g id="edge16" class="edge">
<title>14&#45;&gt;25</title>
<path fill="none" stroke="black" d="M1805.29,-1298.33C1766.99,-1288.13 1715.46,-1274.42 1673.29,-1263.19"/>
<polygon fill="black" stroke="black" points="1674.25,-1259.83 1663.69,-1260.64 1672.45,-1266.59 1674.25,-1259.83"/>
</g>
<!-- 15 -->
<g id="node15" class="node">
<title>15</title>
<ellipse fill="none" stroke="black" cx="1665.42" cy="-882" rx="628.16" ry="18"/>
<text text-anchor="middle" x="1665.42" y="-876.95" font-family="Times New Roman,serif" font-size="14.00">Evrart Claire: &quot;I&#39;m very glad to hear it. Some of my associates here in Martinaise told me you had trouble remembering things &#45;&#45; I am relieved they were mistaken.&quot;</text>
</g>
<!-- 15&#45;&gt;21 -->
<g id="edge17" class="edge">
<title>15&#45;&gt;21</title>
<path fill="none" stroke="black" d="M1640.69,-863.52C1628.43,-854.85 1613.44,-844.25 1600.15,-834.85"/>
<polygon fill="black" stroke="black" points="1602.25,-832.05 1592.07,-829.13 1598.21,-837.77 1602.25,-832.05"/>
</g>
<!-- 16 -->
<g id="node16" class="node">
<title>16</title>
<ellipse fill="none" stroke="black" cx="1901.42" cy="-450" rx="58.52" ry="18"/>
<text text-anchor="middle" x="1901.42" y="-444.95" font-family="Times New Roman,serif" font-size="14.00">IsKimHere()</text>
</g>
<!-- 17 -->
<g id="node17" class="node">
<title>17</title>
<polygon fill="none" stroke="black" points="1665.42,-396 1582.66,-378 1665.42,-360 1748.17,-378 1665.42,-396"/>
<text text-anchor="middle" x="1665.42" y="-372.95" font-family="Times New Roman,serif" font-size="14.00">IsKimHere()</text>
</g>
<!-- 16&#45;&gt;17 -->
<g id="edge18" class="edge">
<title>16&#45;&gt;17</title>
<path fill="none" stroke="black" d="M1860.31,-436.81C1818.28,-424.34 1753.19,-405.03 1709.95,-392.21"/>
<polygon fill="black" stroke="black" points="1711.22,-388.93 1700.64,-389.45 1709.23,-395.64 1711.22,-388.93"/>
</g>
<!-- 18 -->
<g id="node18" class="node">
<title>18</title>
<polygon fill="none" stroke="black" points="2044.42,-396 1948.64,-378 2044.42,-360 2140.2,-378 2044.42,-396"/>
<text text-anchor="middle" x="2044.42" y="-372.95" font-family="Times New Roman,serif" font-size="14.00">!(IsKimHere())</text>
</g>
<!-- 16&#45;&gt;18 -->
<g id="edge19" class="edge">
<title>16&#45;&gt;18</title>
<path fill="none" stroke="black" d="M1931.75,-434.15C1954.21,-423.16 1984.91,-408.13 2008.59,-396.54"/>
<polygon fill="black" stroke="black" points="2010.11,-399.69 2017.56,-392.15 2007.04,-393.4 2010.11,-399.69"/>
</g>
<!-- 23 -->
<g id="node23" class="node">
<title>23</title>
<ellipse fill="none" stroke="black" cx="1547.42" cy="-306" rx="603.59" ry="18"/>
<text text-anchor="middle" x="1547.42" y="-300.95" font-family="Times New Roman,serif" font-size="14.00">Kim Kitsuragi: &quot;I see you have gotten hold of some of our old documents.&quot; The lieutenant turns to Evrart. &quot;They should have been destroyed some time ago.&quot;</text>
</g>
<!-- 17&#45;&gt;23 -->
<g id="edge20" class="edge">
<title>17&#45;&gt;23</title>
<path fill="none" stroke="black" d="M1644.05,-364.32C1627.99,-354.8 1605.54,-341.48 1586.32,-330.08"/>
<polygon fill="black" stroke="black" points="1588.31,-327.19 1577.92,-325.09 1584.74,-333.21 1588.31,-327.19"/>
</g>
<!-- 29 -->
<g id="node29" class="node">
<title>29</title>
<ellipse fill="none" stroke="black" cx="2195.42" cy="-234" rx="108.16" ry="18"/>
<text text-anchor="middle" x="2195.42" y="-228.95" font-family="Times New Roman,serif" font-size="14.00">Jump to: [EVRARTHUB]</text>
</g>
<!-- 18&#45;&gt;29 -->
<g id="edge21" class="edge">
<title>18&#45;&gt;29</title>
<path fill="none" stroke="black" d="M2084.44,-367.04C2109.19,-359.05 2140.01,-345.54 2160.42,-324 2176.21,-307.33 2185.16,-282.7 2190.04,-263.57"/>
<polygon fill="black" stroke="black" points="2193.42,-264.5 2192.25,-253.97 2186.6,-262.93 2193.42,-264.5"/>
</g>
<!-- 19&#45;&gt;10 -->
<g id="edge22" class="edge">
<title>19&#45;&gt;10</title>
<path fill="none" stroke="black" d="M2230.03,-1296.76C2247.59,-1287.45 2269.9,-1275.62 2289.11,-1265.44"/>
<polygon fill="black" stroke="black" points="2290.6,-1268.61 2297.79,-1260.83 2287.32,-1262.43 2290.6,-1268.61"/>
</g>
<!-- 20 -->
<g id="node20" class="node">
<title>20</title>
<ellipse fill="none" stroke="black" cx="1446.42" cy="-522" rx="190.05" ry="18"/>
<text text-anchor="middle" x="1446.42" y="-516.95" font-family="Times New Roman,serif" font-size="14.00">Perception (Sight): &quot;Revachol Citizens Militia.&quot;</text>
</g>
<!-- 20&#45;&gt;16 -->
<g id="edge23" class="edge">
<title>20&#45;&gt;16</title>
<path fill="none" stroke="black" d="M1543.19,-506.11C1632.42,-492.39 1762.25,-472.41 1838.64,-460.66"/>
<polygon fill="black" stroke="black" points="1839.13,-464.12 1848.48,-459.14 1838.06,-457.21 1839.13,-464.12"/>
</g>
<!-- 21&#45;&gt;3 -->
<g id="edge24" class="edge">
<title>21&#45;&gt;3</title>
<path fill="none" stroke="black" d="M1566.42,-791.7C1566.42,-784.41 1566.42,-775.73 1566.42,-767.54"/>
<polygon fill="black" stroke="black" points="1569.92,-767.62 1566.42,-757.62 1562.92,-767.62 1569.92,-767.62"/>
</g>
<!-- 22&#45;&gt;15 -->
<g id="edge25" class="edge">
<title>22&#45;&gt;15</title>
<path fill="none" stroke="black" d="M1612.07,-1079.85C1622.04,-1043.07 1645.56,-956.29 1657.76,-911.24"/>
<polygon fill="black" stroke="black" points="1661.12,-912.26 1660.35,-901.69 1654.36,-910.43 1661.12,-912.26"/>
</g>
<!-- 23&#45;&gt;5 -->
<g id="edge26" class="edge">
<title>23&#45;&gt;5</title>
<path fill="none" stroke="black" d="M1543.71,-287.7C1542.13,-280.32 1540.25,-271.52 1538.47,-263.25"/>
<polygon fill="black" stroke="black" points="1541.92,-262.63 1536.4,-253.58 1535.08,-264.1 1541.92,-262.63"/>
</g>
<!-- 24&#45;&gt;11 -->
<g id="edge27" class="edge">
<title>24&#45;&gt;11</title>
<path fill="none" stroke="black" d="M1776.08,-144.05C1816.33,-133.34 1868.25,-119.53 1909.01,-108.68"/>
<polygon fill="black" stroke="black" points="1909.69,-112.12 1918.46,-106.16 1907.89,-105.35 1909.69,-112.12"/>
</g>
<!-- 25&#45;&gt;8 -->
<g id="edge28" class="edge">
<title>25&#45;&gt;8</title>
<path fill="none" stroke="black" d="M1597.42,-1223.7C1597.42,-1216.41 1597.42,-1207.73 1597.42,-1199.54"/>
<polygon fill="black" stroke="black" points="1600.92,-1199.62 1597.42,-1189.62 1593.92,-1199.62 1600.92,-1199.62"/>
</g>
<!-- 27 -->
<g id="node27" class="node">
<title>27</title>
<polygon fill="none" stroke="black" points="1486.42,-612 1200.28,-594 1486.42,-576 1772.56,-594 1486.42,-612"/>
<text text-anchor="middle" x="1486.42" y="-588.95" font-family="Times New Roman,serif" font-size="14.00">Variable[&quot;cargo.evrart_perception_noticed_folder&quot;]</text>
</g>
<!-- 26&#45;&gt;27 -->
<g id="edge29" class="edge">
<title>26&#45;&gt;27</title>
<path fill="none" stroke="black" d="M1546.64,-647.7C1536.57,-638.88 1524.17,-628.03 1513.24,-618.47"/>
<polygon fill="black" stroke="black" points="1515.84,-616.09 1506.01,-612.14 1511.23,-621.36 1515.84,-616.09"/>
</g>
<!-- 28 -->
<g id="node28" class="node">
<title>28</title>
<polygon fill="none" stroke="black" points="1953.42,-540 1654.25,-522 1953.42,-504 2252.59,-522 1953.42,-540"/>
<text text-anchor="middle" x="1953.42" y="-516.95" font-family="Times New Roman,serif" font-size="14.00">!(Variable[&quot;cargo.evrart_perception_noticed_folder&quot;])</text>
</g>
<!-- 26&#45;&gt;28 -->
<g id="edge30" class="edge">
<title>26&#45;&gt;28</title>
<path fill="none" stroke="black" d="M1649.99,-649.2C1690.38,-640.37 1739.14,-627.9 1781.42,-612 1830.69,-593.48 1884.02,-564.33 1918.02,-544.47"/>
<polygon fill="black" stroke="black" points="1919.36,-547.75 1926.2,-539.65 1915.8,-541.72 1919.36,-547.75"/>
</g>
<!-- 27&#45;&gt;20 -->
<g id="edge31" class="edge">
<title>27&#45;&gt;20</title>
<path fill="none" stroke="black" d="M1476.94,-576.41C1472.49,-568.62 1467.07,-559.14 1462.04,-550.33"/>
<polygon fill="black" stroke="black" points="1465.14,-548.71 1457.14,-541.76 1459.06,-552.18 1465.14,-548.71"/>
</g>
<!-- 28&#45;&gt;16 -->
<g id="edge32" class="edge">
<title>28&#45;&gt;16</title>
<path fill="none" stroke="black" d="M1941.1,-504.41C1935.03,-496.25 1927.58,-486.22 1920.78,-477.07"/>
<polygon fill="black" stroke="black" points="1923.69,-475.11 1914.92,-469.17 1918.07,-479.29 1923.69,-475.11"/>
</g>
<!-- 29&#45;&gt;6050606 -->
<g id="edge33" class="edge">
<title>29&#45;&gt;6050606</title>
<path fill="none" stroke="black" d="M2195.42,-215.85C2195.42,-179.14 2195.42,-92.66 2195.42,-47.53"/>
<polygon fill="black" stroke="black" points="2198.92,-47.75 2195.42,-37.75 2191.92,-47.75 2198.92,-47.75"/>
</g>
</g>
</svg>
