<?xml version="1.0" encoding="UTF-8" standalone="no"?>
<!DOCTYPE svg PUBLIC "-//W3C//DTD SVG 1.1//EN"
 "http://www.w3.org/Graphics/SVG/1.1/DTD/svg11.dtd">
<!-- Generated by graphviz version 12.2.1 (20241206.2353)
 -->
<!-- Title: G Pages: 1 -->
<svg width="6666pt" height="836pt"
 viewBox="0.00 0.00 6665.63 836.00" xmlns="http://www.w3.org/2000/svg" xmlns:xlink="http://www.w3.org/1999/xlink">
<g id="graph0" class="graph" transform="scale(1 1) rotate(0) translate(4 832)">
<title>G</title>
<polygon fill="white" stroke="none" points="-4,4 -4,-832 6661.63,-832 6661.63,4 -4,4"/>
<!-- 0 -->
<g id="node1" class="node">
<title>0</title>
<ellipse fill="none" stroke="black" cx="4753.12" cy="-810" rx="39.07" ry="18"/>
<text text-anchor="middle" x="4753.12" y="-804.95" font-family="Times New Roman,serif" font-size="14.00">START</text>
</g>
<!-- 1 -->
<g id="node2" class="node">
<title>1</title>
<ellipse fill="none" stroke="black" cx="4753.12" cy="-738" rx="29.86" ry="18"/>
<text text-anchor="middle" x="4753.12" y="-732.95" font-family="Times New Roman,serif" font-size="14.00">input</text>
</g>
<!-- 0&#45;&gt;1 -->
<g id="edge1" class="edge">
<title>0&#45;&gt;1</title>
<path fill="none" stroke="black" d="M4753.12,-791.7C4753.12,-784.41 4753.12,-775.73 4753.12,-767.54"/>
<polygon fill="black" stroke="black" points="4756.62,-767.62 4753.12,-757.62 4749.62,-767.62 4756.62,-767.62"/>
</g>
<!-- 26 -->
<g id="node26" class="node">
<title>26</title>
<ellipse fill="none" stroke="black" cx="4753.12" cy="-666" rx="258.63" ry="18"/>
<text text-anchor="middle" x="4753.12" y="-660.95" font-family="Times New Roman,serif" font-size="14.00">Drama: 哇哦，这么说有人好像有一点……*无聊*？</text>
</g>
<!-- 1&#45;&gt;26 -->
<g id="edge2" class="edge">
<title>1&#45;&gt;26</title>
<path fill="none" stroke="black" d="M4753.12,-719.7C4753.12,-712.41 4753.12,-703.73 4753.12,-695.54"/>
<polygon fill="black" stroke="black" points="4756.62,-695.62 4753.12,-685.62 4749.62,-695.62 4756.62,-695.62"/>
</g>
<!-- 2 -->
<g id="node3" class="node">
<title>2</title>
<ellipse fill="none" stroke="black" cx="4598.12" cy="-594" rx="225.88" ry="18"/>
<text text-anchor="middle" x="4598.12" y="-588.95" font-family="Times New Roman,serif" font-size="14.00">You: 不，我不是。给我出去！[完成思维。]</text>
</g>
<!-- 3 -->
<g id="node4" class="node">
<title>3</title>
<ellipse fill="none" stroke="black" cx="6140.12" cy="-378" rx="440.84" ry="18"/>
<text text-anchor="middle" x="6140.12" y="-372.95" font-family="Times New Roman,serif" font-size="14.00">You: 这是干什么？因为我不够*疯狂*，所以要挑我的刺？我最不关心的就是这个了。</text>
</g>
<!-- 22 -->
<g id="node22" class="node">
<title>22</title>
<ellipse fill="none" stroke="black" cx="6166.12" cy="-234" rx="491.51" ry="18"/>
<text text-anchor="middle" x="6166.12" y="-228.95" font-family="Times New Roman,serif" font-size="14.00">Drama: 没必要这么防备。规则性，褐色，还有*呆板*都拥有自己的诉求——非常*标准*的诉求。</text>
</g>
<!-- 3&#45;&gt;22 -->
<g id="edge3" class="edge">
<title>3&#45;&gt;22</title>
<path fill="none" stroke="black" d="M6143.31,-359.59C6147.7,-335.61 6155.66,-292.14 6160.92,-263.42"/>
<polygon fill="black" stroke="black" points="6164.35,-264.07 6162.71,-253.6 6157.47,-262.81 6164.35,-264.07"/>
</g>
<!-- 4 -->
<g id="node5" class="node">
<title>4</title>
<ellipse fill="none" stroke="black" cx="4205.12" cy="-306" rx="822.65" ry="18"/>
<text text-anchor="middle" x="4205.12" y="-300.95" font-family="Times New Roman,serif" font-size="14.00">Drama: 您当然是了。也许再来点*规则*和一只*普通*的手枪来搭配？官方发言：吾之君主的*警察类型*是普通警察。吾会这一切告知天下。吾将派发一份传真。</text>
</g>
<!-- 9 -->
<g id="node10" class="node">
<title>9</title>
<ellipse fill="none" stroke="black" cx="2737.12" cy="-234" rx="75.41" ry="18"/>
<text text-anchor="middle" x="2737.12" y="-228.95" font-family="Times New Roman,serif" font-size="14.00">Untitled hub (10)</text>
</g>
<!-- 4&#45;&gt;9 -->
<g id="edge4" class="edge">
<title>4&#45;&gt;9</title>
<path fill="none" stroke="black" d="M3871.55,-289.09C3529.84,-272.8 3021.27,-248.55 2821.76,-239.04"/>
<polygon fill="black" stroke="black" points="2822.17,-235.55 2812.01,-238.57 2821.83,-242.54 2822.17,-235.55"/>
</g>
<!-- 5 -->
<g id="node6" class="node">
<title>5</title>
<ellipse fill="none" stroke="black" cx="4909.12" cy="-522" rx="652.73" ry="18"/>
<text text-anchor="middle" x="4909.12" y="-516.95" font-family="Times New Roman,serif" font-size="14.00">Drama: 遵命，吾之*贤君*。有人见过各种各样的疯狂思想匆匆离去，想着——“我就选*无聊*的这一个。普通的就好。棕色的。”</text>
</g>
<!-- 17 -->
<g id="node17" class="node">
<title>17</title>
<ellipse fill="none" stroke="black" cx="4909.12" cy="-450" rx="75.41" ry="18"/>
<text text-anchor="middle" x="4909.12" y="-444.95" font-family="Times New Roman,serif" font-size="14.00">Untitled hub (09)</text>
</g>
<!-- 5&#45;&gt;17 -->
<g id="edge5" class="edge">
<title>5&#45;&gt;17</title>
<path fill="none" stroke="black" d="M4909.12,-503.7C4909.12,-496.41 4909.12,-487.73 4909.12,-479.54"/>
<polygon fill="black" stroke="black" points="4912.62,-479.62 4909.12,-469.62 4905.62,-479.62 4912.62,-479.62"/>
</g>
<!-- 6 -->
<g id="node7" class="node">
<title>6</title>
<ellipse fill="none" stroke="black" cx="5332.12" cy="-306" rx="286.27" ry="18"/>
<text text-anchor="middle" x="5332.12" y="-300.95" font-family="Times New Roman,serif" font-size="14.00">Kim Kitsuragi: “你？”他看着你。“我一点都不担心这个。”</text>
</g>
<!-- 8 -->
<g id="node9" class="node">
<title>8</title>
<ellipse fill="none" stroke="black" cx="5214.12" cy="-234" rx="403.99" ry="18"/>
<text text-anchor="middle" x="5214.12" y="-228.95" font-family="Times New Roman,serif" font-size="14.00">Drama: 看见了吗？你如此*普通*，是黑棕色的，他甚至都不想跟你聊起这个。</text>
</g>
<!-- 6&#45;&gt;8 -->
<g id="edge6" class="edge">
<title>6&#45;&gt;8</title>
<path fill="none" stroke="black" d="M5302.95,-287.7C5287.92,-278.78 5269.38,-267.78 5253.13,-258.14"/>
<polygon fill="black" stroke="black" points="5255.05,-255.21 5244.66,-253.12 5251.48,-261.23 5255.05,-255.21"/>
</g>
<!-- 7 -->
<g id="node8" class="node">
<title>7</title>
<ellipse fill="none" stroke="black" cx="2233.12" cy="-90" rx="658.87" ry="18"/>
<text text-anchor="middle" x="2233.12" y="-84.95" font-family="Times New Roman,serif" font-size="14.00">Drama: 很好，很好。当然了。直截了当地声明自己是个怎样的人，似乎有点……太*有趣*了，不是吗？吾辈以后不会再烦你了。</text>
</g>
<!-- 23 -->
<g id="node23" class="node">
<title>23</title>
<ellipse fill="none" stroke="black" cx="5646.12" cy="-162" rx="116.86" ry="18"/>
<text text-anchor="middle" x="5646.12" y="-156.95" font-family="Times New Roman,serif" font-size="14.00">Jump to: [Untitled hub (09)]</text>
</g>
<!-- 8&#45;&gt;23 -->
<g id="edge7" class="edge">
<title>8&#45;&gt;23</title>
<path fill="none" stroke="black" d="M5318.14,-216.14C5390.87,-204.36 5487,-188.78 5556.36,-177.54"/>
<polygon fill="black" stroke="black" points="5556.89,-181 5566.2,-175.95 5555.77,-174.09 5556.89,-181"/>
</g>
<!-- 12 -->
<g id="node13" class="node">
<title>12</title>
<ellipse fill="none" stroke="black" cx="1215.12" cy="-162" rx="236.63" ry="18"/>
<text text-anchor="middle" x="1215.12" y="-156.95" font-family="Times New Roman,serif" font-size="14.00">You: 等等——现在这就是我的*警察类型*了？</text>
</g>
<!-- 9&#45;&gt;12 -->
<g id="edge10" class="edge">
<title>9&#45;&gt;12</title>
<path fill="none" stroke="black" d="M2663.45,-229.61C2440.89,-219.38 1769.55,-188.5 1424.64,-172.64"/>
<polygon fill="black" stroke="black" points="1424.93,-169.15 1414.78,-172.18 1424.61,-176.14 1424.93,-169.15"/>
</g>
<!-- 16 -->
<g id="node16" class="node">
<title>16</title>
<ellipse fill="none" stroke="black" cx="2297.12" cy="-162" rx="325.68" ry="18"/>
<text text-anchor="middle" x="2297.12" y="-156.95" font-family="Times New Roman,serif" font-size="14.00">You: 是啊，没必要。暂时让那份公告待定吧。（拒绝思想。）</text>
</g>
<!-- 9&#45;&gt;16 -->
<g id="edge8" class="edge">
<title>9&#45;&gt;16</title>
<path fill="none" stroke="black" d="M2675.94,-223.27C2607.92,-212.45 2496.52,-194.72 2412.09,-181.29"/>
<polygon fill="black" stroke="black" points="2412.81,-177.86 2402.38,-179.75 2411.71,-184.77 2412.81,-177.86"/>
</g>
<!-- 19 -->
<g id="node19" class="node">
<title>19</title>
<ellipse fill="none" stroke="black" cx="3113.12" cy="-162" rx="408.08" ry="18"/>
<text text-anchor="middle" x="3113.12" y="-156.95" font-family="Times New Roman,serif" font-size="14.00">You: 为什么不呢。那就派发传真吧。我不觉得有什么羞耻的。（接受思想。）</text>
</g>
<!-- 9&#45;&gt;19 -->
<g id="edge9" class="edge">
<title>9&#45;&gt;19</title>
<path fill="none" stroke="black" d="M2795.04,-222.22C2852.44,-211.53 2941.54,-194.94 3010.86,-182.04"/>
<polygon fill="black" stroke="black" points="3011.13,-185.55 3020.32,-180.28 3009.85,-178.67 3011.13,-185.55"/>
</g>
<!-- 10 -->
<g id="node11" class="node">
<title>10</title>
<ellipse fill="none" stroke="black" cx="778.12" cy="-90" rx="778.12" ry="18"/>
<text text-anchor="middle" x="778.12" y="-84.95" font-family="Times New Roman,serif" font-size="14.00">Drama: 没错，就是您那种警察，大人。把它想象成一个种姓，甚至是一种*阶层*。想象成您从属的普通执法人员的国度。当然，它也有*普通*的好处。</text>
</g>
<!-- 25 -->
<g id="node25" class="node">
<title>25</title>
<ellipse fill="none" stroke="black" cx="2227.12" cy="-18" rx="116.86" ry="18"/>
<text text-anchor="middle" x="2227.12" y="-12.95" font-family="Times New Roman,serif" font-size="14.00">Jump to: [Untitled hub (10)]</text>
</g>
<!-- 10&#45;&gt;25 -->
<g id="edge11" class="edge">
<title>10&#45;&gt;25</title>
<path fill="none" stroke="black" d="M1104.66,-73.23C1422.19,-57.89 1887.57,-35.4 2105.77,-24.86"/>
<polygon fill="black" stroke="black" points="2105.91,-28.36 2115.73,-24.38 2105.58,-21.37 2105.91,-28.36"/>
</g>
<!-- 11 -->
<g id="node12" class="node">
<title>11</title>
<ellipse fill="none" stroke="black" cx="1925.12" cy="-378" rx="102.02" ry="18"/>
<text text-anchor="middle" x="1925.12" y="-372.95" font-family="Times New Roman,serif" font-size="14.00">You: 我喜欢棕色。</text>
</g>
<!-- 27 -->
<g id="node27" class="node">
<title>27</title>
<ellipse fill="none" stroke="black" cx="1240.12" cy="-306" rx="851.31" ry="18"/>
<text text-anchor="middle" x="1240.12" y="-300.95" font-family="Times New Roman,serif" font-size="14.00">Drama: 您当然是了。也许再来一双黑鞋，或者再搭配一件崭新的白衬衫。官方发言：吾之君主的*警察类型*是普通警察。吾会这一切告知天下。吾将派发一份传真。</text>
</g>
<!-- 11&#45;&gt;27 -->
<g id="edge12" class="edge">
<title>11&#45;&gt;27</title>
<path fill="none" stroke="black" d="M1838.71,-368.17C1733.76,-357.45 1554.01,-339.08 1418.81,-325.26"/>
<polygon fill="black" stroke="black" points="1419.32,-321.79 1409.02,-324.26 1418.61,-328.76 1419.32,-321.79"/>
</g>
<!-- 12&#45;&gt;10 -->
<g id="edge13" class="edge">
<title>12&#45;&gt;10</title>
<path fill="none" stroke="black" d="M1116.5,-145.2C1051.52,-134.79 966.05,-121.1 897.27,-110.09"/>
<polygon fill="black" stroke="black" points="897.87,-106.64 887.44,-108.51 896.76,-113.55 897.87,-106.64"/>
</g>
<!-- 14 -->
<g id="node14" class="node">
<title>14</title>
<ellipse fill="none" stroke="black" cx="4346.12" cy="-378" rx="102.02" ry="18"/>
<text text-anchor="middle" x="4346.12" y="-372.95" font-family="Times New Roman,serif" font-size="14.00">You: 我喜欢标准。</text>
</g>
<!-- 14&#45;&gt;4 -->
<g id="edge14" class="edge">
<title>14&#45;&gt;4</title>
<path fill="none" stroke="black" d="M4313.06,-360.59C4294.26,-351.25 4270.45,-339.44 4249.99,-329.27"/>
<polygon fill="black" stroke="black" points="4251.81,-326.27 4241.29,-324.96 4248.69,-332.54 4251.81,-326.27"/>
</g>
<!-- 15 -->
<g id="node15" class="node">
<title>15</title>
<ellipse fill="none" stroke="black" cx="5050.12" cy="-378" rx="133.75" ry="18"/>
<text text-anchor="middle" x="5050.12" y="-372.95" font-family="Times New Roman,serif" font-size="14.00">You: “金。我很无聊吗？”</text>
</g>
<!-- 15&#45;&gt;6 -->
<g id="edge15" class="edge">
<title>15&#45;&gt;6</title>
<path fill="none" stroke="black" d="M5112.01,-361.64C5153.41,-351.36 5208.26,-337.74 5252.86,-326.68"/>
<polygon fill="black" stroke="black" points="5253.63,-330.09 5262.49,-324.28 5251.94,-323.3 5253.63,-330.09"/>
</g>
<!-- 16&#45;&gt;7 -->
<g id="edge16" class="edge">
<title>16&#45;&gt;7</title>
<path fill="none" stroke="black" d="M2281.3,-143.7C2273.78,-135.47 2264.65,-125.48 2256.36,-116.42"/>
<polygon fill="black" stroke="black" points="2259.11,-114.24 2249.78,-109.22 2253.94,-118.96 2259.11,-114.24"/>
</g>
<!-- 17&#45;&gt;3 -->
<g id="edge17" class="edge">
<title>17&#45;&gt;3</title>
<path fill="none" stroke="black" d="M4981.98,-444.86C5154.19,-435.06 5593.25,-410.1 5878.58,-393.87"/>
<polygon fill="black" stroke="black" points="5878.63,-397.37 5888.42,-393.31 5878.24,-390.39 5878.63,-397.37"/>
</g>
<!-- 17&#45;&gt;11 -->
<g id="edge18" class="edge">
<title>17&#45;&gt;11</title>
<path fill="none" stroke="black" d="M4834.24,-447.24C4431.27,-437.79 2520.93,-392.98 2036.83,-381.62"/>
<polygon fill="black" stroke="black" points="2037.25,-378.13 2027.17,-381.39 2037.09,-385.13 2037.25,-378.13"/>
</g>
<!-- 17&#45;&gt;14 -->
<g id="edge19" class="edge">
<title>17&#45;&gt;14</title>
<path fill="none" stroke="black" d="M4843.43,-440.83C4743.5,-428.41 4552.87,-404.71 4438.86,-390.53"/>
<polygon fill="black" stroke="black" points="4439.59,-387.09 4429.23,-389.33 4438.72,-394.04 4439.59,-387.09"/>
</g>
<!-- 17&#45;&gt;15 -->
<g id="edge20" class="edge">
<title>17&#45;&gt;15</title>
<path fill="none" stroke="black" d="M4940.76,-433.29C4960.02,-423.73 4984.9,-411.38 5006.07,-400.87"/>
<polygon fill="black" stroke="black" points="5007.36,-404.13 5014.76,-396.55 5004.25,-397.86 5007.36,-404.13"/>
</g>
<!-- 24 -->
<g id="node24" class="node">
<title>24</title>
<ellipse fill="none" stroke="black" cx="3407.12" cy="-378" rx="290.37" ry="18"/>
<text text-anchor="middle" x="3407.12" y="-372.95" font-family="Times New Roman,serif" font-size="14.00">You: 你看，我只想完成自己的工作，没必要这么浮夸。</text>
</g>
<!-- 17&#45;&gt;24 -->
<g id="edge21" class="edge">
<title>17&#45;&gt;24</title>
<path fill="none" stroke="black" d="M4835.66,-445.58C4621.88,-435.61 3993.26,-406.32 3645.42,-390.11"/>
<polygon fill="black" stroke="black" points="3645.6,-386.61 3635.45,-389.64 3645.28,-393.6 3645.6,-386.61"/>
</g>
<!-- 18 -->
<g id="node18" class="node">
<title>18</title>
<ellipse fill="none" stroke="black" cx="4909.12" cy="-594" rx="66.71" ry="18"/>
<text text-anchor="middle" x="4909.12" y="-588.95" font-family="Times New Roman,serif" font-size="14.00">You: 什么？</text>
</g>
<!-- 18&#45;&gt;5 -->
<g id="edge22" class="edge">
<title>18&#45;&gt;5</title>
<path fill="none" stroke="black" d="M4909.12,-575.7C4909.12,-568.41 4909.12,-559.73 4909.12,-551.54"/>
<polygon fill="black" stroke="black" points="4912.62,-551.62 4909.12,-541.62 4905.62,-551.62 4912.62,-551.62"/>
</g>
<!-- 20 -->
<g id="node20" class="node">
<title>20</title>
<ellipse fill="none" stroke="black" cx="3279.12" cy="-90" rx="368.67" ry="18"/>
<text text-anchor="middle" x="3279.12" y="-84.95" font-family="Times New Roman,serif" font-size="14.00">Drama: 搞定。当然了，不会发放实际的*公报*。要不然就太戏剧性了。</text>
</g>
<!-- 19&#45;&gt;20 -->
<g id="edge23" class="edge">
<title>19&#45;&gt;20</title>
<path fill="none" stroke="black" d="M3154.15,-143.7C3176.3,-134.36 3203.86,-122.74 3227.45,-112.79"/>
<polygon fill="black" stroke="black" points="3228.73,-116.05 3236.59,-108.94 3226.01,-109.6 3228.73,-116.05"/>
</g>
<!-- 21 -->
<g id="node21" class="node">
<title>21</title>
<ellipse fill="none" stroke="black" cx="2737.12" cy="-306" rx="627.65" ry="18"/>
<text text-anchor="middle" x="2737.12" y="-300.95" font-family="Times New Roman,serif" font-size="14.00">Drama: 您当然是了。让我们马上开始吧。吾之君主的*警察类型*是普通警察。吾会这一切告知天下。吾将派发一份传真。</text>
</g>
<!-- 21&#45;&gt;9 -->
<g id="edge24" class="edge">
<title>21&#45;&gt;9</title>
<path fill="none" stroke="black" d="M2737.12,-287.7C2737.12,-280.41 2737.12,-271.73 2737.12,-263.54"/>
<polygon fill="black" stroke="black" points="2740.62,-263.62 2737.12,-253.62 2733.62,-263.62 2740.62,-263.62"/>
</g>
<!-- 22&#45;&gt;23 -->
<g id="edge25" class="edge">
<title>22&#45;&gt;23</title>
<path fill="none" stroke="black" d="M6040.9,-216.14C5949.54,-203.84 5827.48,-187.41 5743.39,-176.09"/>
<polygon fill="black" stroke="black" points="5743.92,-172.63 5733.54,-174.77 5742.99,-179.57 5743.92,-172.63"/>
</g>
<!-- 23&#45;&gt;17 -->
<g id="edge26" class="edge">
<title>23&#45;&gt;17</title>
<path fill="none" stroke="black" d="M5650.02,-180.28C5656.3,-213.07 5664.46,-284.55 5627.12,-324 5541.93,-413.99 5166.77,-439.45 4995.24,-446.45"/>
<polygon fill="black" stroke="black" points="4995.11,-442.95 4985.25,-446.84 4995.38,-449.94 4995.11,-442.95"/>
</g>
<!-- 24&#45;&gt;21 -->
<g id="edge27" class="edge">
<title>24&#45;&gt;21</title>
<path fill="none" stroke="black" d="M3262.98,-361.94C3159.42,-351.12 3019.35,-336.49 2909.82,-325.04"/>
<polygon fill="black" stroke="black" points="2910.46,-321.59 2900.15,-324.03 2909.73,-328.55 2910.46,-321.59"/>
</g>
<!-- 25&#45;&gt;9 -->
<g id="edge28" class="edge">
<title>25&#45;&gt;9</title>
<path fill="none" stroke="black" d="M2344.06,-18.97C2677.48,-19.45 3611.84,-25.01 3657.12,-72 3708.53,-125.35 3601.09,-158.72 3530.12,-180 3400.06,-218.99 3001.31,-229.35 2823.85,-232.06"/>
<polygon fill="black" stroke="black" points="2823.95,-228.56 2814,-232.21 2824.05,-235.56 2823.95,-228.56"/>
</g>
<!-- 26&#45;&gt;2 -->
<g id="edge30" class="edge">
<title>26&#45;&gt;2</title>
<path fill="none" stroke="black" d="M4715.2,-647.88C4694.47,-638.51 4668.56,-626.81 4646.4,-616.8"/>
<polygon fill="black" stroke="black" points="4648.12,-613.74 4637.56,-612.81 4645.23,-620.12 4648.12,-613.74"/>
</g>
<!-- 26&#45;&gt;18 -->
<g id="edge29" class="edge">
<title>26&#45;&gt;18</title>
<path fill="none" stroke="black" d="M4791.28,-647.88C4813.73,-637.8 4842.2,-625.03 4865.53,-614.56"/>
<polygon fill="black" stroke="black" points="4866.78,-617.84 4874.47,-610.55 4863.91,-611.45 4866.78,-617.84"/>
</g>
<!-- 27&#45;&gt;9 -->
<g id="edge31" class="edge">
<title>27&#45;&gt;9</title>
<path fill="none" stroke="black" d="M1581.22,-289.05C1930.37,-272.72 2449.62,-248.44 2652.02,-238.98"/>
<polygon fill="black" stroke="black" points="2652.11,-242.48 2661.94,-238.52 2651.79,-235.49 2652.11,-242.48"/>
</g>
</g>
</svg>
