<?xml version="1.0" encoding="UTF-8" standalone="no"?>
<!DOCTYPE svg PUBLIC "-//W3C//DTD SVG 1.1//EN"
 "http://www.w3.org/Graphics/SVG/1.1/DTD/svg11.dtd">
<!-- Generated by graphviz version 12.2.1 (20241206.2353)
 -->
<!-- Title: G Pages: 1 -->
<svg width="5012pt" height="1052pt"
 viewBox="0.00 0.00 5011.85 1052.00" xmlns="http://www.w3.org/2000/svg" xmlns:xlink="http://www.w3.org/1999/xlink">
<g id="graph0" class="graph" transform="scale(1 1) rotate(0) translate(4 1048)">
<title>G</title>
<polygon fill="white" stroke="none" points="-4,4 -4,-1048 5007.85,-1048 5007.85,4 -4,4"/>
<!-- 0 -->
<g id="node1" class="node">
<title>0</title>
<ellipse fill="none" stroke="black" cx="260.09" cy="-1026" rx="39.07" ry="18"/>
<text text-anchor="middle" x="260.09" y="-1020.95" font-family="Times New Roman,serif" font-size="14.00">START</text>
</g>
<!-- 0&#45;&gt;0 -->
<g id="edge1" class="edge">
<title>0&#45;&gt;0</title>
<path fill="none" stroke="black" d="M288.28,-1038.94C303.39,-1041.14 317.16,-1036.83 317.16,-1026 317.16,-1017.96 309.57,-1013.52 299.49,-1012.65"/>
<polygon fill="black" stroke="black" points="299.66,-1009.15 289.79,-1013 299.91,-1016.14 299.66,-1009.15"/>
</g>
<!-- 1 -->
<g id="node2" class="node">
<title>1</title>
<ellipse fill="none" stroke="black" cx="365.09" cy="-1026" rx="29.86" ry="18"/>
<text text-anchor="middle" x="365.09" y="-1020.95" font-family="Times New Roman,serif" font-size="14.00">input</text>
</g>
<!-- 17 -->
<g id="node18" class="node">
<title>17</title>
<ellipse fill="none" stroke="black" cx="365.09" cy="-954" rx="365.09" ry="18"/>
<text text-anchor="middle" x="365.09" y="-948.95" font-family="Times New Roman,serif" font-size="14.00">Composure: 你转过身，一道明亮的光线照射了过来，让你眯起了双眼。</text>
</g>
<!-- 1&#45;&gt;17 -->
<g id="edge2" class="edge">
<title>1&#45;&gt;17</title>
<path fill="none" stroke="black" d="M359.21,-1008.05C358.43,-1000.68 358.17,-991.84 358.44,-983.51"/>
<polygon fill="black" stroke="black" points="361.92,-983.99 359.08,-973.79 354.93,-983.54 361.92,-983.99"/>
</g>
<!-- 2 -->
<g id="node3" class="node">
<title>2</title>
<ellipse fill="none" stroke="black" cx="1205.09" cy="-1026" rx="57.49" ry="18"/>
<text text-anchor="middle" x="1205.09" y="-1020.95" font-family="Times New Roman,serif" font-size="14.00">Untitled hub</text>
</g>
<!-- 8 -->
<g id="node9" class="node">
<title>8</title>
<ellipse fill="none" stroke="black" cx="758.09" cy="-234" rx="178.79" ry="18"/>
<text text-anchor="middle" x="758.09" y="-228.95" font-family="Times New Roman,serif" font-size="14.00">You: 不。你去死吧！[完成思维。]</text>
</g>
<!-- 2&#45;&gt;8 -->
<g id="edge3" class="edge">
<title>2&#45;&gt;8</title>
<path fill="none" stroke="black" d="M1151.17,-1019.38C1032.28,-1005.5 758.09,-964.63 758.09,-883 758.09,-883 758.09,-883 758.09,-377 758.09,-337.74 758.09,-292.38 758.09,-263.69"/>
<polygon fill="black" stroke="black" points="761.59,-264 758.09,-254 754.59,-264 761.59,-264"/>
</g>
<!-- 19 -->
<g id="node20" class="node">
<title>19</title>
<ellipse fill="none" stroke="black" cx="1269.09" cy="-810" rx="96.39" ry="18"/>
<text text-anchor="middle" x="1269.09" y="-804.95" font-family="Times New Roman,serif" font-size="14.00">You: [放弃思维。]</text>
</g>
<!-- 2&#45;&gt;19 -->
<g id="edge4" class="edge">
<title>2&#45;&gt;19</title>
<path fill="none" stroke="black" d="M1212.1,-1007.85C1221.66,-983.98 1238.89,-939.26 1250.09,-900 1255.8,-880 1260.66,-857.04 1264.03,-839.45"/>
<polygon fill="black" stroke="black" points="1267.46,-840.19 1265.85,-829.72 1260.57,-838.91 1267.46,-840.19"/>
</g>
<!-- 22 -->
<g id="node23" class="node">
<title>22</title>
<ellipse fill="none" stroke="black" cx="1142.09" cy="-954" rx="66.71" ry="18"/>
<text text-anchor="middle" x="1142.09" y="-948.95" font-family="Times New Roman,serif" font-size="14.00">You: 妙啊。</text>
</g>
<!-- 2&#45;&gt;22 -->
<g id="edge5" class="edge">
<title>2&#45;&gt;22</title>
<path fill="none" stroke="black" d="M1190.16,-1008.41C1182.66,-1000.08 1173.41,-989.8 1165.03,-980.49"/>
<polygon fill="black" stroke="black" points="1167.65,-978.17 1158.36,-973.08 1162.45,-982.86 1167.65,-978.17"/>
</g>
<!-- 3 -->
<g id="node4" class="node">
<title>3</title>
<ellipse fill="none" stroke="black" cx="4488.09" cy="-162" rx="320.05" ry="18"/>
<text text-anchor="middle" x="4488.09" y="-156.95" font-family="Times New Roman,serif" font-size="14.00">You: 不。我太悲观了。我再也不会说这种话了。[忽略思维。]</text>
</g>
<!-- 4 -->
<g id="node5" class="node">
<title>4</title>
<ellipse fill="none" stroke="black" cx="2409.09" cy="-90" rx="133.24" ry="18"/>
<text text-anchor="middle" x="2409.09" y="-84.95" font-family="Times New Roman,serif" font-size="14.00">You: 去他的吧——开拍！</text>
</g>
<!-- 6 -->
<g id="node7" class="node">
<title>6</title>
<ellipse fill="none" stroke="black" cx="1431.09" cy="-306" rx="327.22" ry="18"/>
<text text-anchor="middle" x="1431.09" y="-300.95" font-family="Times New Roman,serif" font-size="14.00">Composure: 你确定？灯光很*重要*的。灯光就是生命，是命运。</text>
</g>
<!-- 4&#45;&gt;6 -->
<g id="edge6" class="edge">
<title>4&#45;&gt;6</title>
<path fill="none" stroke="black" d="M2486.76,-104.95C2508.24,-112.77 2529.19,-124.97 2542.09,-144 2551.07,-157.24 2552.75,-168.07 2542.09,-180 2486.49,-242.21 2004.42,-277.24 1693.81,-293.54"/>
<polygon fill="black" stroke="black" points="1693.69,-290.04 1683.89,-294.06 1694.06,-297.03 1693.69,-290.04"/>
</g>
<!-- 5 -->
<g id="node6" class="node">
<title>5</title>
<ellipse fill="none" stroke="black" cx="1367.09" cy="-738" rx="438.28" ry="18"/>
<text text-anchor="middle" x="1367.09" y="-732.95" font-family="Times New Roman,serif" font-size="14.00">You: 说实话，在一个句子里听到*超级明星*和*执法人员*这两个词，好像有点诡异。</text>
</g>
<!-- 20 -->
<g id="node21" class="node">
<title>20</title>
<ellipse fill="none" stroke="black" cx="1464.09" cy="-666" rx="640.44" ry="18"/>
<text text-anchor="middle" x="1464.09" y="-660.95" font-family="Times New Roman,serif" font-size="14.00">Composure: 你怎么了，聋了？它们多完美！就像“摇滚政客”和“瘾君子教师”。拥抱你如此努力才建立起来的超级明星形象吧。</text>
</g>
<!-- 5&#45;&gt;20 -->
<g id="edge7" class="edge">
<title>5&#45;&gt;20</title>
<path fill="none" stroke="black" d="M1391.07,-719.7C1403.08,-711.03 1417.81,-700.4 1430.88,-690.96"/>
<polygon fill="black" stroke="black" points="1432.76,-693.92 1438.82,-685.23 1428.67,-688.25 1432.76,-693.92"/>
</g>
<!-- 6&#45;&gt;8 -->
<g id="edge8" class="edge">
<title>6&#45;&gt;8</title>
<path fill="none" stroke="black" d="M1282.56,-289.55C1165.43,-277.37 1003.55,-260.53 890.73,-248.8"/>
<polygon fill="black" stroke="black" points="891.1,-245.32 880.79,-247.76 890.37,-252.28 891.1,-245.32"/>
</g>
<!-- 9 -->
<g id="node10" class="node">
<title>9</title>
<ellipse fill="none" stroke="black" cx="1542.09" cy="-234" rx="125.56" ry="18"/>
<text text-anchor="middle" x="1542.09" y="-228.95" font-family="Times New Roman,serif" font-size="14.00">You: 它是从哪里来的？</text>
</g>
<!-- 6&#45;&gt;9 -->
<g id="edge9" class="edge">
<title>6&#45;&gt;9</title>
<path fill="none" stroke="black" d="M1458.53,-287.7C1472.75,-278.73 1490.3,-267.66 1505.64,-257.98"/>
<polygon fill="black" stroke="black" points="1507.48,-260.96 1514.07,-252.67 1503.74,-255.04 1507.48,-260.96"/>
</g>
<!-- 7 -->
<g id="node8" class="node">
<title>7</title>
<ellipse fill="none" stroke="black" cx="2033.09" cy="-378" rx="888.16" ry="18"/>
<text text-anchor="middle" x="2033.09" y="-372.95" font-family="Times New Roman,serif" font-size="14.00">Composure: 突然的一阵闪光过后，你周围的世界全都冻住了——把你也包围其中。在一片图像性的单色溶液里，一个黑色的剪影对抗着一个栅格化的橙色世界。它*开幕*了。</text>
</g>
<!-- 15 -->
<g id="node16" class="node">
<title>15</title>
<ellipse fill="none" stroke="black" cx="1763.09" cy="-162" rx="770.44" ry="18"/>
<text text-anchor="middle" x="1763.09" y="-156.95" font-family="Times New Roman,serif" font-size="14.00">Composure: 遥远的日落？舞台灯？闪光摄影？没什么特别的？这只是*超级明星执法人员*该做的——看见灯光就眯眼。而且他们会解决这种狗屁问题。</text>
</g>
<!-- 9&#45;&gt;15 -->
<g id="edge10" class="edge">
<title>9&#45;&gt;15</title>
<path fill="none" stroke="black" d="M1592.24,-217.12C1623.38,-207.25 1663.75,-194.47 1697.42,-183.8"/>
<polygon fill="black" stroke="black" points="1698.18,-187.23 1706.66,-180.87 1696.07,-180.56 1698.18,-187.23"/>
</g>
<!-- 10 -->
<g id="node11" class="node">
<title>10</title>
<ellipse fill="none" stroke="black" cx="1441.09" cy="-1026" rx="160.88" ry="18"/>
<text text-anchor="middle" x="1441.09" y="-1020.95" font-family="Times New Roman,serif" font-size="14.00">You: “是的。”[*真正*放弃它。]</text>
</g>
<!-- 11 -->
<g id="node12" class="node">
<title>11</title>
<ellipse fill="none" stroke="black" cx="1111.09" cy="-882" rx="129.66" ry="18"/>
<text text-anchor="middle" x="1111.09" y="-876.95" font-family="Times New Roman,serif" font-size="14.00">Composure: 真的太妙了。</text>
</g>
<!-- 11&#45;&gt;8 -->
<g id="edge11" class="edge">
<title>11&#45;&gt;8</title>
<path fill="none" stroke="black" d="M992.9,-874.28C903.52,-862.04 796.09,-828.68 796.09,-739 796.09,-739 796.09,-739 796.09,-377 796.09,-336.18 781.25,-290.93 770.12,-262.72"/>
<polygon fill="black" stroke="black" points="773.37,-261.43 766.35,-253.49 766.89,-264.08 773.37,-261.43"/>
</g>
<!-- 11&#45;&gt;19 -->
<g id="edge12" class="edge">
<title>11&#45;&gt;19</title>
<path fill="none" stroke="black" d="M1148.53,-864.41C1170.61,-854.63 1198.75,-842.17 1222.28,-831.74"/>
<polygon fill="black" stroke="black" points="1223.62,-834.97 1231.35,-827.72 1220.79,-828.57 1223.62,-834.97"/>
</g>
<!-- 12 -->
<g id="node13" class="node">
<title>12</title>
<ellipse fill="none" stroke="black" cx="2356.09" cy="-18" rx="888.16" ry="18"/>
<text text-anchor="middle" x="2356.09" y="-12.95" font-family="Times New Roman,serif" font-size="14.00">Composure: 是的，没错！你是明星大侦探。迪克·马伦。萨拉姆·洛奇·巴依。狠角色，横跨黑白两道的迪斯科警察。是时候退回到荒唐的幻想世界了，我们走！相机，灯光……</text>
</g>
<!-- 24 -->
<g id="node25" class="node">
<title>24</title>
<ellipse fill="none" stroke="black" cx="2033.09" cy="-450" rx="75.41" ry="18"/>
<text text-anchor="middle" x="2033.09" y="-444.95" font-family="Times New Roman,serif" font-size="14.00">Untitled hub (02)</text>
</g>
<!-- 12&#45;&gt;24 -->
<g id="edge13" class="edge">
<title>12&#45;&gt;24</title>
<path fill="none" stroke="black" d="M2622.23,-35.61C2779.88,-53.05 2949.09,-88.62 2949.09,-161 2949.09,-307 2949.09,-307 2949.09,-307 2949.09,-347.45 2960.77,-369.64 2930.09,-396 2869.6,-447.97 2333.41,-450.73 2120.08,-449.74"/>
<polygon fill="black" stroke="black" points="2120.17,-446.24 2110.15,-449.69 2120.14,-453.24 2120.17,-446.24"/>
</g>
<!-- 13 -->
<g id="node14" class="node">
<title>13</title>
<ellipse fill="none" stroke="black" cx="1721.09" cy="-594" rx="313.91" ry="18"/>
<text text-anchor="middle" x="1721.09" y="-588.95" font-family="Times New Roman,serif" font-size="14.00">You: 你把我的形象搞错了。我不是超级明星。我是个垃圾。</text>
</g>
<!-- 23 -->
<g id="node24" class="node">
<title>23</title>
<ellipse fill="none" stroke="black" cx="1978.09" cy="-522" rx="929.61" ry="18"/>
<text text-anchor="middle" x="1978.09" y="-516.95" font-family="Times New Roman,serif" font-size="14.00">Composure: 是啊，酷炫的*垃圾*超级明星。倒霉的明星大侦探。萨拉姆·洛奇·巴依。狠角色，横跨黑白两道的迪斯科警察。是时候退回到荒唐的幻想世界了，我们走！相机，灯光……</text>
</g>
<!-- 13&#45;&gt;23 -->
<g id="edge14" class="edge">
<title>13&#45;&gt;23</title>
<path fill="none" stroke="black" d="M1783.96,-575.88C1819.94,-566.08 1865.3,-553.72 1903.12,-543.42"/>
<polygon fill="black" stroke="black" points="1903.9,-546.84 1912.62,-540.83 1902.06,-540.08 1903.9,-546.84"/>
</g>
<!-- 14 -->
<g id="node15" class="node">
<title>14</title>
<ellipse fill="none" stroke="black" cx="4488.09" cy="-234" rx="198.24" ry="18"/>
<text text-anchor="middle" x="4488.09" y="-228.95" font-family="Times New Roman,serif" font-size="14.00">Conceptualization: 这是你*传说*的开始。</text>
</g>
<!-- 14&#45;&gt;2 -->
<g id="edge15" class="edge">
<title>14&#45;&gt;2</title>
<path fill="none" stroke="black" d="M4658.35,-243.51C4791.49,-251.77 4957.99,-266.27 4982.09,-288 5012.13,-315.08 5001.09,-336.55 5001.09,-377 5001.09,-883 5001.09,-883 5001.09,-883 5001.09,-986.67 1373.7,-993.25 1271.09,-1008 1266.48,-1008.66 1261.72,-1009.52 1256.98,-1010.51"/>
<polygon fill="black" stroke="black" points="1256.46,-1007.04 1247.48,-1012.65 1258,-1013.86 1256.46,-1007.04"/>
</g>
<!-- 14&#45;&gt;3 -->
<g id="edge16" class="edge">
<title>14&#45;&gt;3</title>
<path fill="none" stroke="black" d="M4488.09,-215.7C4488.09,-208.41 4488.09,-199.73 4488.09,-191.54"/>
<polygon fill="black" stroke="black" points="4491.59,-191.62 4488.09,-181.62 4484.59,-191.62 4491.59,-191.62"/>
</g>
<!-- 15&#45;&gt;4 -->
<g id="edge18" class="edge">
<title>15&#45;&gt;4</title>
<path fill="none" stroke="black" d="M1920.71,-143.92C2037.11,-131.31 2192.75,-114.44 2296.73,-103.17"/>
<polygon fill="black" stroke="black" points="2296.82,-106.69 2306.39,-102.13 2296.07,-99.73 2296.82,-106.69"/>
</g>
<!-- 18 -->
<g id="node19" class="node">
<title>18</title>
<ellipse fill="none" stroke="black" cx="1763.09" cy="-90" rx="342.57" ry="18"/>
<text text-anchor="middle" x="1763.09" y="-84.95" font-family="Times New Roman,serif" font-size="14.00">You: 没错，是我——我最近一直在努力*打造*我的超级明星形象。</text>
</g>
<!-- 15&#45;&gt;18 -->
<g id="edge17" class="edge">
<title>15&#45;&gt;18</title>
<path fill="none" stroke="black" d="M1763.09,-143.7C1763.09,-136.41 1763.09,-127.73 1763.09,-119.54"/>
<polygon fill="black" stroke="black" points="1766.59,-119.62 1763.09,-109.62 1759.59,-119.62 1766.59,-119.62"/>
</g>
<!-- 16 -->
<g id="node17" class="node">
<title>16</title>
<ellipse fill="none" stroke="black" cx="3598.09" cy="-378" rx="243.28" ry="18"/>
<text text-anchor="middle" x="3598.09" y="-372.95" font-family="Times New Roman,serif" font-size="14.00">You: 等等，这个荒唐的幻想世界是怎么回事？</text>
</g>
<!-- 21 -->
<g id="node22" class="node">
<title>21</title>
<ellipse fill="none" stroke="black" cx="3975.09" cy="-306" rx="998.2" ry="18"/>
<text text-anchor="middle" x="3975.09" y="-300.95" font-family="Times New Roman,serif" font-size="14.00">Composure: 是啊。你知道的，在那下面只是件伤心事，肺部大面积感染，动脉粥样硬化病。这里就是你喊一句*开拍*，然后把一切重新概念化的地方。把它彻底改造成世界第一明星警探的样子！</text>
</g>
<!-- 16&#45;&gt;21 -->
<g id="edge19" class="edge">
<title>16&#45;&gt;21</title>
<path fill="none" stroke="black" d="M3685.53,-360.76C3740.7,-350.52 3812.28,-337.23 3870.46,-326.43"/>
<polygon fill="black" stroke="black" points="3870.85,-329.91 3880.05,-324.65 3869.58,-323.03 3870.85,-329.91"/>
</g>
<!-- 17&#45;&gt;1 -->
<g id="edge20" class="edge">
<title>17&#45;&gt;1</title>
<path fill="none" stroke="black" d="M371,-972.28C371.76,-979.6 372,-988.34 371.73,-996.57"/>
<polygon fill="black" stroke="black" points="368.24,-996.33 371.07,-1006.54 375.23,-996.8 368.24,-996.33"/>
</g>
<!-- 18&#45;&gt;12 -->
<g id="edge21" class="edge">
<title>18&#45;&gt;12</title>
<path fill="none" stroke="black" d="M1898.39,-73.03C1987.82,-62.47 2105.36,-48.6 2198.93,-37.55"/>
<polygon fill="black" stroke="black" points="2199.2,-41.04 2208.72,-36.4 2198.38,-34.09 2199.2,-41.04"/>
</g>
<!-- 19&#45;&gt;5 -->
<g id="edge22" class="edge">
<title>19&#45;&gt;5</title>
<path fill="none" stroke="black" d="M1292.31,-792.41C1304.64,-783.61 1320.01,-772.63 1333.6,-762.92"/>
<polygon fill="black" stroke="black" points="1335.33,-765.99 1341.43,-757.33 1331.26,-760.29 1335.33,-765.99"/>
</g>
<!-- 20&#45;&gt;13 -->
<g id="edge24" class="edge">
<title>20&#45;&gt;13</title>
<path fill="none" stroke="black" d="M1527.95,-647.61C1564.21,-637.73 1609.76,-625.32 1647.51,-615.04"/>
<polygon fill="black" stroke="black" points="1648.26,-618.46 1656.99,-612.46 1646.42,-611.71 1648.26,-618.46"/>
</g>
<!-- 20&#45;&gt;18 -->
<g id="edge23" class="edge">
<title>20&#45;&gt;18</title>
<path fill="none" stroke="black" d="M1288.51,-648.23C1144.79,-629.47 965.09,-592.19 965.09,-523 965.09,-523 965.09,-523 965.09,-233 965.09,-192.55 953.53,-170.49 984.09,-144 1018.28,-114.36 1228.76,-101.22 1422.3,-95.43"/>
<polygon fill="black" stroke="black" points="1422.15,-98.94 1432.04,-95.15 1421.94,-91.94 1422.15,-98.94"/>
</g>
<!-- 21&#45;&gt;14 -->
<g id="edge25" class="edge">
<title>21&#45;&gt;14</title>
<path fill="none" stroke="black" d="M4102.23,-287.65C4184.27,-276.46 4290.23,-262 4370.35,-251.07"/>
<polygon fill="black" stroke="black" points="4370.55,-254.57 4379.98,-249.75 4369.6,-247.64 4370.55,-254.57"/>
</g>
<!-- 22&#45;&gt;11 -->
<g id="edge26" class="edge">
<title>22&#45;&gt;11</title>
<path fill="none" stroke="black" d="M1134.43,-935.7C1131.05,-928.07 1127,-918.92 1123.22,-910.4"/>
<polygon fill="black" stroke="black" points="1126.53,-909.21 1119.28,-901.49 1120.13,-912.05 1126.53,-909.21"/>
</g>
<!-- 23&#45;&gt;24 -->
<g id="edge27" class="edge">
<title>23&#45;&gt;24</title>
<path fill="none" stroke="black" d="M1991.69,-503.7C1998.01,-495.64 2005.67,-485.89 2012.68,-476.98"/>
<polygon fill="black" stroke="black" points="2015.29,-479.32 2018.72,-469.29 2009.79,-475 2015.29,-479.32"/>
</g>
<!-- 24&#45;&gt;7 -->
<g id="edge30" class="edge">
<title>24&#45;&gt;7</title>
<path fill="none" stroke="black" d="M2033.09,-431.7C2033.09,-424.41 2033.09,-415.73 2033.09,-407.54"/>
<polygon fill="black" stroke="black" points="2036.59,-407.62 2033.09,-397.62 2029.59,-407.62 2036.59,-407.62"/>
</g>
<!-- 24&#45;&gt;16 -->
<g id="edge28" class="edge">
<title>24&#45;&gt;16</title>
<path fill="none" stroke="black" d="M2106.73,-445.71C2333.45,-435.57 3027.01,-404.54 3382.73,-388.63"/>
<polygon fill="black" stroke="black" points="3382.85,-392.13 3392.69,-388.19 3382.54,-385.14 3382.85,-392.13"/>
</g>
<!-- 25 -->
<g id="node26" class="node">
<title>25</title>
<ellipse fill="none" stroke="black" cx="1060.09" cy="-378" rx="66.71" ry="18"/>
<text text-anchor="middle" x="1060.09" y="-372.95" font-family="Times New Roman,serif" font-size="14.00">You: 开拍！</text>
</g>
<!-- 24&#45;&gt;25 -->
<g id="edge29" class="edge">
<title>24&#45;&gt;25</title>
<path fill="none" stroke="black" d="M1957.67,-448.63C1802.9,-446.98 1438.49,-438.47 1136.09,-396 1130.46,-395.21 1124.63,-394.22 1118.82,-393.12"/>
<polygon fill="black" stroke="black" points="1119.69,-389.72 1109.2,-391.18 1118.31,-396.59 1119.69,-389.72"/>
</g>
<!-- 25&#45;&gt;6 -->
<g id="edge31" class="edge">
<title>25&#45;&gt;6</title>
<path fill="none" stroke="black" d="M1109.49,-365.63C1118.33,-363.69 1127.47,-361.74 1136.09,-360 1197.17,-347.69 1265.66,-335.3 1321.26,-325.59"/>
<polygon fill="black" stroke="black" points="1321.82,-329.05 1331.07,-323.89 1320.62,-322.15 1321.82,-329.05"/>
</g>
</g>
</svg>
