<?xml version="1.0" encoding="UTF-8" standalone="no"?>
<!DOCTYPE svg PUBLIC "-//W3C//DTD SVG 1.1//EN"
 "http://www.w3.org/Graphics/SVG/1.1/DTD/svg11.dtd">
<!-- Generated by graphviz version 12.2.1 (20241206.2353)
 -->
<!-- Title: G Pages: 1 -->
<svg width="2898pt" height="1340pt"
 viewBox="0.00 0.00 2898.40 1340.00" xmlns="http://www.w3.org/2000/svg" xmlns:xlink="http://www.w3.org/1999/xlink">
<g id="graph0" class="graph" transform="scale(1 1) rotate(0) translate(4 1336)">
<title>G</title>
<polygon fill="white" stroke="none" points="-4,4 -4,-1336 2894.4,-1336 2894.4,4 -4,4"/>
<!-- 0 -->
<g id="node1" class="node">
<title>0</title>
<ellipse fill="none" stroke="black" cx="664.5" cy="-1314" rx="39.07" ry="18"/>
<text text-anchor="middle" x="664.5" y="-1308.95" font-family="Times New Roman,serif" font-size="14.00">START</text>
</g>
<!-- 1 -->
<g id="node2" class="node">
<title>1</title>
<ellipse fill="none" stroke="black" cx="664.5" cy="-1242" rx="29.86" ry="18"/>
<text text-anchor="middle" x="664.5" y="-1236.95" font-family="Times New Roman,serif" font-size="14.00">input</text>
</g>
<!-- 0&#45;&gt;1 -->
<g id="edge1" class="edge">
<title>0&#45;&gt;1</title>
<path fill="none" stroke="black" d="M664.5,-1295.7C664.5,-1288.41 664.5,-1279.73 664.5,-1271.54"/>
<polygon fill="black" stroke="black" points="668,-1271.62 664.5,-1261.62 661,-1271.62 668,-1271.62"/>
</g>
<!-- 27 -->
<g id="node28" class="node">
<title>27</title>
<ellipse fill="none" stroke="black" cx="664.5" cy="-1170" rx="146.55" ry="18"/>
<text text-anchor="middle" x="664.5" y="-1164.95" font-family="Times New Roman,serif" font-size="14.00">You: 我需要再多*镁*一点？</text>
</g>
<!-- 1&#45;&gt;27 -->
<g id="edge2" class="edge">
<title>1&#45;&gt;27</title>
<path fill="none" stroke="black" d="M664.5,-1223.7C664.5,-1216.41 664.5,-1207.73 664.5,-1199.54"/>
<polygon fill="black" stroke="black" points="668,-1199.62 664.5,-1189.62 661,-1199.62 668,-1199.62"/>
</g>
<!-- 2 -->
<g id="node3" class="node">
<title>2</title>
<ellipse fill="none" stroke="black" cx="1501.5" cy="-90" rx="350.25" ry="18"/>
<text text-anchor="middle" x="1501.5" y="-84.95" font-family="Times New Roman,serif" font-size="14.00">Electrochemistry: 也不是吡嚯浣酮，那个甜美又迷人的精神辐射药品。</text>
</g>
<!-- 5 -->
<g id="node6" class="node">
<title>5</title>
<ellipse fill="none" stroke="black" cx="1801.5" cy="-18" rx="618.43" ry="18"/>
<text text-anchor="middle" x="1801.5" y="-12.95" font-family="Times New Roman,serif" font-size="14.00">Electrochemistry: 也不是抽了40年的烟。就是缺镁。还有过量饮用咖啡。你不能再喝咖啡了。它会严重破坏你的消化系统。</text>
</g>
<!-- 2&#45;&gt;5 -->
<g id="edge3" class="edge">
<title>2&#45;&gt;5</title>
<path fill="none" stroke="black" d="M1574.5,-71.97C1617.19,-62 1671.3,-49.38 1715.98,-38.95"/>
<polygon fill="black" stroke="black" points="1716.7,-42.38 1725.65,-36.7 1715.11,-35.56 1716.7,-42.38"/>
</g>
<!-- 3 -->
<g id="node4" class="node">
<title>3</title>
<ellipse fill="none" stroke="black" cx="1483.5" cy="-738" rx="160.88" ry="18"/>
<text text-anchor="middle" x="1483.5" y="-732.95" font-family="Times New Roman,serif" font-size="14.00">You: 所以我的身体里缺镁吗？</text>
</g>
<!-- 11 -->
<g id="node12" class="node">
<title>11</title>
<ellipse fill="none" stroke="black" cx="1234.5" cy="-666" rx="541.66" ry="18"/>
<text text-anchor="middle" x="1234.5" y="-660.95" font-family="Times New Roman,serif" font-size="14.00">Composure: 是的，而且是至关重要的。看看你自己。因为血液里缺少镁，你几乎就快退化成一条咸鱼了。</text>
</g>
<!-- 3&#45;&gt;11 -->
<g id="edge4" class="edge">
<title>3&#45;&gt;11</title>
<path fill="none" stroke="black" d="M1425.75,-720.76C1390.44,-710.84 1344.97,-698.06 1307.22,-687.44"/>
<polygon fill="black" stroke="black" points="1308.32,-684.12 1297.75,-684.78 1306.42,-690.86 1308.32,-684.12"/>
</g>
<!-- 4 -->
<g id="node5" class="node">
<title>4</title>
<ellipse fill="none" stroke="black" cx="1801.5" cy="-306" rx="244.3" ry="18"/>
<text text-anchor="middle" x="1801.5" y="-300.95" font-family="Times New Roman,serif" font-size="14.00">Electrochemistry: 而且肯定也不是右旋安非他命。</text>
</g>
<!-- 6 -->
<g id="node7" class="node">
<title>6</title>
<ellipse fill="none" stroke="black" cx="1801.5" cy="-234" rx="155.25" ry="18"/>
<text text-anchor="middle" x="1801.5" y="-228.95" font-family="Times New Roman,serif" font-size="14.00">Variable[&quot;character.habit_pyrholidon&quot;]</text>
</g>
<!-- 4&#45;&gt;6 -->
<g id="edge5" class="edge">
<title>4&#45;&gt;6</title>
<path fill="none" stroke="black" d="M1801.5,-287.7C1801.5,-280.41 1801.5,-271.73 1801.5,-263.54"/>
<polygon fill="black" stroke="black" points="1805,-263.62 1801.5,-253.62 1798,-263.62 1805,-263.62"/>
</g>
<!-- 7 -->
<g id="node8" class="node">
<title>7</title>
<polygon fill="none" stroke="black" points="1677.5,-180 1457.94,-162 1677.5,-144 1897.05,-162 1677.5,-180"/>
<text text-anchor="middle" x="1677.5" y="-156.95" font-family="Times New Roman,serif" font-size="14.00">Variable[&quot;character.habit_pyrholidon&quot;]</text>
</g>
<!-- 6&#45;&gt;7 -->
<g id="edge7" class="edge">
<title>6&#45;&gt;7</title>
<path fill="none" stroke="black" d="M1771.16,-215.88C1754.06,-206.22 1732.57,-194.09 1714.48,-183.88"/>
<polygon fill="black" stroke="black" points="1716.31,-180.89 1705.88,-179.02 1712.87,-186.99 1716.31,-180.89"/>
</g>
<!-- 8 -->
<g id="node9" class="node">
<title>8</title>
<polygon fill="none" stroke="black" points="2102.5,-108 1869.91,-90 2102.5,-72 2335.08,-90 2102.5,-108"/>
<text text-anchor="middle" x="2102.5" y="-84.95" font-family="Times New Roman,serif" font-size="14.00">!(Variable[&quot;character.habit_pyrholidon&quot;])</text>
</g>
<!-- 6&#45;&gt;8 -->
<g id="edge6" class="edge">
<title>6&#45;&gt;8</title>
<path fill="none" stroke="black" d="M1837.51,-216.01C1893.59,-189.55 2001.52,-138.64 2060.87,-110.64"/>
<polygon fill="black" stroke="black" points="2062.09,-113.93 2069.64,-106.5 2059.1,-107.6 2062.09,-113.93"/>
</g>
<!-- 7&#45;&gt;2 -->
<g id="edge8" class="edge">
<title>7&#45;&gt;2</title>
<path fill="none" stroke="black" d="M1641.03,-146.5C1616.3,-136.66 1583.18,-123.49 1555.42,-112.45"/>
<polygon fill="black" stroke="black" points="1557.06,-109.33 1546.48,-108.89 1554.48,-115.84 1557.06,-109.33"/>
</g>
<!-- 8&#45;&gt;5 -->
<g id="edge9" class="edge">
<title>8&#45;&gt;5</title>
<path fill="none" stroke="black" d="M2046.23,-75.92C2001.45,-65.5 1938.04,-50.75 1886.99,-38.88"/>
<polygon fill="black" stroke="black" points="1887.97,-35.52 1877.43,-36.66 1886.38,-42.33 1887.97,-35.52"/>
</g>
<!-- 9 -->
<g id="node10" class="node">
<title>9</title>
<ellipse fill="none" stroke="black" cx="2039.5" cy="-738" rx="298.04" ry="18"/>
<text text-anchor="middle" x="2039.5" y="-732.95" font-family="Times New Roman,serif" font-size="14.00">You: 我他妈当然知道不是酒精……或者其他什么东西了。</text>
</g>
<!-- 25 -->
<g id="node26" class="node">
<title>25</title>
<ellipse fill="none" stroke="black" cx="2118.5" cy="-666" rx="274.5" ry="18"/>
<text text-anchor="middle" x="2118.5" y="-660.95" font-family="Times New Roman,serif" font-size="14.00">You: 你是说……我需要变成一个以镁过活的生命体？</text>
</g>
<!-- 9&#45;&gt;25 -->
<g id="edge10" class="edge">
<title>9&#45;&gt;25</title>
<path fill="none" stroke="black" d="M2059.03,-719.7C2068.52,-711.28 2080.11,-701.02 2090.52,-691.79"/>
<polygon fill="black" stroke="black" points="2092.62,-694.6 2097.79,-685.35 2087.98,-689.36 2092.62,-694.6"/>
</g>
<!-- 10 -->
<g id="node11" class="node">
<title>10</title>
<ellipse fill="none" stroke="black" cx="664.5" cy="-1098" rx="664.5" ry="18"/>
<text text-anchor="middle" x="664.5" y="-1092.95" font-family="Times New Roman,serif" font-size="14.00">Composure: 你真的*太需要*多镁一点了！你很可能已经心脏病发两次，还有一次轻度中风……唯一的处方就是加入疯狂剂量的镁。</text>
</g>
<!-- 19 -->
<g id="node20" class="node">
<title>19</title>
<ellipse fill="none" stroke="black" cx="664.5" cy="-1026" rx="290.88" ry="18"/>
<text text-anchor="middle" x="664.5" y="-1020.95" font-family="Times New Roman,serif" font-size="14.00">Endurance: 一次中风？别谦虚了。他现在就已经中风了。</text>
</g>
<!-- 10&#45;&gt;19 -->
<g id="edge11" class="edge">
<title>10&#45;&gt;19</title>
<path fill="none" stroke="black" d="M664.5,-1079.7C664.5,-1072.41 664.5,-1063.73 664.5,-1055.54"/>
<polygon fill="black" stroke="black" points="668,-1055.62 664.5,-1045.62 661,-1055.62 668,-1055.62"/>
</g>
<!-- 21 -->
<g id="node22" class="node">
<title>21</title>
<ellipse fill="none" stroke="black" cx="1208.5" cy="-594" rx="170.09" ry="18"/>
<text text-anchor="middle" x="1208.5" y="-588.95" font-family="Times New Roman,serif" font-size="14.00">You: 所以我要再稍微来点*镁*？</text>
</g>
<!-- 11&#45;&gt;21 -->
<g id="edge13" class="edge">
<title>11&#45;&gt;21</title>
<path fill="none" stroke="black" d="M1228.07,-647.7C1225.27,-640.15 1221.91,-631.12 1218.78,-622.68"/>
<polygon fill="black" stroke="black" points="1222.14,-621.68 1215.38,-613.52 1215.58,-624.12 1222.14,-621.68"/>
</g>
<!-- 28 -->
<g id="node29" class="node">
<title>28</title>
<ellipse fill="none" stroke="black" cx="993.5" cy="-594" rx="27" ry="18"/>
<text text-anchor="middle" x="993.5" y="-588.95" font-family="Times New Roman,serif" font-size="14.00">28</text>
</g>
<!-- 11&#45;&gt;28 -->
<g id="edge12" class="edge">
<title>11&#45;&gt;28</title>
<path fill="none" stroke="black" d="M1153.6,-647.8C1115.45,-638.75 1069.6,-626.51 1029.5,-612 1027.95,-611.44 1026.39,-610.84 1024.81,-610.21"/>
<polygon fill="black" stroke="black" points="1026.49,-607.12 1015.92,-606.35 1023.7,-613.54 1026.49,-607.12"/>
</g>
<!-- 12 -->
<g id="node13" class="node">
<title>12</title>
<ellipse fill="none" stroke="black" cx="1416.5" cy="-882" rx="559.58" ry="18"/>
<text text-anchor="middle" x="1416.5" y="-876.95" font-family="Times New Roman,serif" font-size="14.00">Electrochemistry: 你血液里面的镁含量已经低到一个很危险的水平。这里说的是低镁含量，*不是*高酒精含量。</text>
</g>
<!-- 23 -->
<g id="node24" class="node">
<title>23</title>
<ellipse fill="none" stroke="black" cx="1580.5" cy="-810" rx="98.44" ry="18"/>
<text text-anchor="middle" x="1580.5" y="-804.95" font-family="Times New Roman,serif" font-size="14.00">magnesium_based_hub</text>
</g>
<!-- 12&#45;&gt;23 -->
<g id="edge14" class="edge">
<title>12&#45;&gt;23</title>
<path fill="none" stroke="black" d="M1457.04,-863.7C1479.92,-853.93 1508.66,-841.66 1532.65,-831.42"/>
<polygon fill="black" stroke="black" points="1533.74,-834.76 1541.56,-827.62 1530.99,-828.33 1533.74,-834.76"/>
</g>
<!-- 13 -->
<g id="node14" class="node">
<title>13</title>
<ellipse fill="none" stroke="black" cx="445.5" cy="-954" rx="190.56" ry="18"/>
<text text-anchor="middle" x="445.5" y="-948.95" font-family="Times New Roman,serif" font-size="14.00">You: 我不能再想这个。[放弃思维。]</text>
</g>
<!-- 14 -->
<g id="node15" class="node">
<title>14</title>
<ellipse fill="none" stroke="black" cx="1078.5" cy="-738" rx="225.88" ry="18"/>
<text text-anchor="middle" x="1078.5" y="-732.95" font-family="Times New Roman,serif" font-size="14.00">You: 我身体的镁含量挺好的。[放弃思维。]</text>
</g>
<!-- 15 -->
<g id="node16" class="node">
<title>15</title>
<ellipse fill="none" stroke="black" cx="2143.5" cy="-594" rx="746.9" ry="18"/>
<text text-anchor="middle" x="2143.5" y="-588.95" font-family="Times New Roman,serif" font-size="14.00">Composure: 是的。如果你想活下去，就需要*进化*。你需要跨越碳的壁垒。马上去找药剂师，买下疯狂剂量的镁——它会逆转你损坏的循环系统。</text>
</g>
<!-- 16 -->
<g id="node17" class="node">
<title>16</title>
<ellipse fill="none" stroke="black" cx="2143.5" cy="-522" rx="231" ry="18"/>
<text text-anchor="middle" x="2143.5" y="-516.95" font-family="Times New Roman,serif" font-size="14.00">Variable[&quot;yard.maglife_afterthought_elchem_summoned&quot;]</text>
</g>
<!-- 15&#45;&gt;16 -->
<g id="edge15" class="edge">
<title>15&#45;&gt;16</title>
<path fill="none" stroke="black" d="M2143.5,-575.7C2143.5,-568.41 2143.5,-559.73 2143.5,-551.54"/>
<polygon fill="black" stroke="black" points="2147,-551.62 2143.5,-541.62 2140,-551.62 2147,-551.62"/>
</g>
<!-- 17 -->
<g id="node18" class="node">
<title>17</title>
<polygon fill="none" stroke="black" points="1801.5,-468 1474.82,-450 1801.5,-432 2128.18,-450 1801.5,-468"/>
<text text-anchor="middle" x="1801.5" y="-444.95" font-family="Times New Roman,serif" font-size="14.00">Variable[&quot;yard.maglife_afterthought_elchem_summoned&quot;]</text>
</g>
<!-- 16&#45;&gt;17 -->
<g id="edge16" class="edge">
<title>16&#45;&gt;17</title>
<path fill="none" stroke="black" d="M2063.75,-504.68C2008.35,-493.34 1934.88,-478.3 1879.8,-467.03"/>
<polygon fill="black" stroke="black" points="1880.67,-463.63 1870.18,-465.06 1879.27,-470.49 1880.67,-463.63"/>
</g>
<!-- 18 -->
<g id="node19" class="node">
<title>18</title>
<polygon fill="none" stroke="black" points="2485.5,-468 2145.79,-450 2485.5,-432 2825.2,-450 2485.5,-468"/>
<text text-anchor="middle" x="2485.5" y="-444.95" font-family="Times New Roman,serif" font-size="14.00">!(Variable[&quot;yard.maglife_afterthought_elchem_summoned&quot;])</text>
</g>
<!-- 16&#45;&gt;18 -->
<g id="edge17" class="edge">
<title>16&#45;&gt;18</title>
<path fill="none" stroke="black" d="M2223.25,-504.68C2278.46,-493.38 2351.62,-478.4 2406.64,-467.14"/>
<polygon fill="black" stroke="black" points="2407.16,-470.61 2416.26,-465.17 2405.76,-463.75 2407.16,-470.61"/>
</g>
<!-- 20 -->
<g id="node21" class="node">
<title>20</title>
<ellipse fill="none" stroke="black" cx="1801.5" cy="-378" rx="449.54" ry="18"/>
<text text-anchor="middle" x="1801.5" y="-372.95" font-family="Times New Roman,serif" font-size="14.00">Electrochemistry: 只要记住——它不是酒精。但酒精也要多买一点，因为酒精*不是*问题。</text>
</g>
<!-- 17&#45;&gt;20 -->
<g id="edge18" class="edge">
<title>17&#45;&gt;20</title>
<path fill="none" stroke="black" d="M1801.5,-431.7C1801.5,-424.41 1801.5,-415.73 1801.5,-407.54"/>
<polygon fill="black" stroke="black" points="1805,-407.62 1801.5,-397.62 1798,-407.62 1805,-407.62"/>
</g>
<!-- 19&#45;&gt;13 -->
<g id="edge20" class="edge">
<title>19&#45;&gt;13</title>
<path fill="none" stroke="black" d="M610.92,-1007.88C579.98,-997.98 540.89,-985.49 508.48,-975.13"/>
<polygon fill="black" stroke="black" points="509.79,-971.88 499.2,-972.17 507.66,-978.54 509.79,-971.88"/>
</g>
<!-- 26 -->
<g id="node27" class="node">
<title>26</title>
<ellipse fill="none" stroke="black" cx="1254.5" cy="-954" rx="400.4" ry="18"/>
<text text-anchor="middle" x="1254.5" y="-948.95" font-family="Times New Roman,serif" font-size="14.00">Composure: 听见了吗？镁。那是你缺少的东西。缺少镁会让你变得没精打采。</text>
</g>
<!-- 19&#45;&gt;26 -->
<g id="edge19" class="edge">
<title>19&#45;&gt;26</title>
<path fill="none" stroke="black" d="M795.07,-1009.51C886.82,-998.62 1009.74,-984.04 1105.35,-972.7"/>
<polygon fill="black" stroke="black" points="1105.55,-976.2 1115.07,-971.54 1104.73,-969.25 1105.55,-976.2"/>
</g>
<!-- 20&#45;&gt;4 -->
<g id="edge21" class="edge">
<title>20&#45;&gt;4</title>
<path fill="none" stroke="black" d="M1801.5,-359.7C1801.5,-352.41 1801.5,-343.73 1801.5,-335.54"/>
<polygon fill="black" stroke="black" points="1805,-335.62 1801.5,-325.62 1798,-335.62 1805,-335.62"/>
</g>
<!-- 22 -->
<g id="node23" class="node">
<title>22</title>
<ellipse fill="none" stroke="black" cx="915.5" cy="-522" rx="803.2" ry="18"/>
<text text-anchor="middle" x="915.5" y="-516.95" font-family="Times New Roman,serif" font-size="14.00">Composure: 稍微来点*镁*？你在说什么呢？！你需要*多加*一点镁！你很可能已经心脏病发两次，还有一次轻度中风……唯一的处方就是加入疯狂剂量的镁。</text>
</g>
<!-- 21&#45;&gt;22 -->
<g id="edge22" class="edge">
<title>21&#45;&gt;22</title>
<path fill="none" stroke="black" d="M1141.64,-577.03C1099.36,-566.93 1044.36,-553.79 999.18,-542.99"/>
<polygon fill="black" stroke="black" points="1000.23,-539.65 989.69,-540.73 998.61,-546.45 1000.23,-539.65"/>
</g>
<!-- 22&#45;&gt;19 -->
<g id="edge23" class="edge">
<title>22&#45;&gt;19</title>
<path fill="none" stroke="black" d="M809.78,-540.29C741.18,-558.24 664.5,-594.16 664.5,-665 664.5,-883 664.5,-883 664.5,-883 664.5,-922.26 664.5,-967.62 664.5,-996.31"/>
<polygon fill="black" stroke="black" points="661,-996 664.5,-1006 668,-996 661,-996"/>
</g>
<!-- 23&#45;&gt;3 -->
<g id="edge25" class="edge">
<title>23&#45;&gt;3</title>
<path fill="none" stroke="black" d="M1557.02,-792.05C1544.92,-783.33 1529.98,-772.54 1516.72,-762.98"/>
<polygon fill="black" stroke="black" points="1518.82,-760.17 1508.66,-757.16 1514.72,-765.85 1518.82,-760.17"/>
</g>
<!-- 23&#45;&gt;9 -->
<g id="edge24" class="edge">
<title>23&#45;&gt;9</title>
<path fill="none" stroke="black" d="M1654.24,-797.75C1726.4,-786.75 1837.44,-769.82 1921.8,-756.95"/>
<polygon fill="black" stroke="black" points="1922.14,-760.44 1931.5,-755.47 1921.09,-753.52 1922.14,-760.44"/>
</g>
<!-- 23&#45;&gt;14 -->
<g id="edge26" class="edge">
<title>23&#45;&gt;14</title>
<path fill="none" stroke="black" d="M1508.59,-797.33C1496.87,-795.5 1484.85,-793.66 1473.5,-792 1384.27,-778.93 1283.5,-765.43 1206.08,-755.32"/>
<polygon fill="black" stroke="black" points="1206.7,-751.88 1196.34,-754.05 1205.8,-758.82 1206.7,-751.88"/>
</g>
<!-- 24 -->
<g id="node25" class="node">
<title>24</title>
<ellipse fill="none" stroke="black" cx="1078.5" cy="-810" rx="385.56" ry="18"/>
<text text-anchor="middle" x="1078.5" y="-804.95" font-family="Times New Roman,serif" font-size="14.00">Electrochemistry: 是啊，其他东西！其他东西万岁！它们让你变得强壮如牛。</text>
</g>
<!-- 24&#45;&gt;3 -->
<g id="edge27" class="edge">
<title>24&#45;&gt;3</title>
<path fill="none" stroke="black" d="M1176.02,-792.14C1240.05,-781.08 1323.44,-766.66 1387.22,-755.64"/>
<polygon fill="black" stroke="black" points="1387.74,-759.1 1397,-753.95 1386.55,-752.2 1387.74,-759.1"/>
</g>
<!-- 24&#45;&gt;14 -->
<g id="edge28" class="edge">
<title>24&#45;&gt;14</title>
<path fill="none" stroke="black" d="M1078.5,-791.7C1078.5,-784.41 1078.5,-775.73 1078.5,-767.54"/>
<polygon fill="black" stroke="black" points="1082,-767.62 1078.5,-757.62 1075,-767.62 1082,-767.62"/>
</g>
<!-- 25&#45;&gt;15 -->
<g id="edge29" class="edge">
<title>25&#45;&gt;15</title>
<path fill="none" stroke="black" d="M2124.68,-647.7C2127.37,-640.15 2130.6,-631.12 2133.61,-622.68"/>
<polygon fill="black" stroke="black" points="2136.81,-624.12 2136.88,-613.53 2130.22,-621.77 2136.81,-624.12"/>
</g>
<!-- 26&#45;&gt;12 -->
<g id="edge30" class="edge">
<title>26&#45;&gt;12</title>
<path fill="none" stroke="black" d="M1294.54,-935.7C1316.16,-926.36 1343.05,-914.74 1366.08,-904.79"/>
<polygon fill="black" stroke="black" points="1367.17,-908.13 1374.96,-900.95 1364.39,-901.7 1367.17,-908.13"/>
</g>
<!-- 27&#45;&gt;10 -->
<g id="edge31" class="edge">
<title>27&#45;&gt;10</title>
<path fill="none" stroke="black" d="M664.5,-1151.7C664.5,-1144.41 664.5,-1135.73 664.5,-1127.54"/>
<polygon fill="black" stroke="black" points="668,-1127.62 664.5,-1117.62 661,-1127.62 668,-1127.62"/>
</g>
</g>
</svg>
