<?xml version="1.0" encoding="UTF-8" standalone="no"?>
<!DOCTYPE svg PUBLIC "-//W3C//DTD SVG 1.1//EN"
 "http://www.w3.org/Graphics/SVG/1.1/DTD/svg11.dtd">
<!-- Generated by graphviz version 12.2.1 (20241206.2353)
 -->
<!-- Title: G Pages: 1 -->
<svg width="3734pt" height="1412pt"
 viewBox="0.00 0.00 3733.81 1412.00" xmlns="http://www.w3.org/2000/svg" xmlns:xlink="http://www.w3.org/1999/xlink">
<g id="graph0" class="graph" transform="scale(1 1) rotate(0) translate(4 1408)">
<title>G</title>
<polygon fill="white" stroke="none" points="-4,4 -4,-1408 3729.81,-1408 3729.81,4 -4,4"/>
<!-- 0 -->
<g id="node1" class="node">
<title>0</title>
<ellipse fill="none" stroke="black" cx="2260.61" cy="-1386" rx="39.07" ry="18"/>
<text text-anchor="middle" x="2260.61" y="-1380.95" font-family="Times New Roman,serif" font-size="14.00">START</text>
</g>
<!-- 1 -->
<g id="node2" class="node">
<title>1</title>
<ellipse fill="none" stroke="black" cx="2260.61" cy="-1314" rx="29.86" ry="18"/>
<text text-anchor="middle" x="2260.61" y="-1308.95" font-family="Times New Roman,serif" font-size="14.00">input</text>
</g>
<!-- 0&#45;&gt;1 -->
<g id="edge1" class="edge">
<title>0&#45;&gt;1</title>
<path fill="none" stroke="black" d="M2260.61,-1367.7C2260.61,-1360.41 2260.61,-1351.73 2260.61,-1343.54"/>
<polygon fill="black" stroke="black" points="2264.11,-1343.62 2260.61,-1333.62 2257.11,-1343.62 2264.11,-1343.62"/>
</g>
<!-- 18 -->
<g id="node18" class="node">
<title>18</title>
<ellipse fill="none" stroke="black" cx="2260.61" cy="-1242" rx="365.09" ry="18"/>
<text text-anchor="middle" x="2260.61" y="-1236.95" font-family="Times New Roman,serif" font-size="14.00">Composure: 你转过身，一道明亮的光线照射了过来，让你眯起了双眼。</text>
</g>
<!-- 1&#45;&gt;18 -->
<g id="edge2" class="edge">
<title>1&#45;&gt;18</title>
<path fill="none" stroke="black" d="M2260.61,-1295.7C2260.61,-1288.41 2260.61,-1279.73 2260.61,-1271.54"/>
<polygon fill="black" stroke="black" points="2264.11,-1271.62 2260.61,-1261.62 2257.11,-1271.62 2264.11,-1271.62"/>
</g>
<!-- 2 -->
<g id="node3" class="node">
<title>2</title>
<ellipse fill="none" stroke="black" cx="2260.61" cy="-1170" rx="57.49" ry="18"/>
<text text-anchor="middle" x="2260.61" y="-1164.95" font-family="Times New Roman,serif" font-size="14.00">Untitled hub</text>
</g>
<!-- 9 -->
<g id="node10" class="node">
<title>9</title>
<ellipse fill="none" stroke="black" cx="2140.61" cy="-810" rx="125.56" ry="18"/>
<text text-anchor="middle" x="2140.61" y="-804.95" font-family="Times New Roman,serif" font-size="14.00">You: 它是从哪里来的？</text>
</g>
<!-- 2&#45;&gt;9 -->
<g id="edge3" class="edge">
<title>2&#45;&gt;9</title>
<path fill="none" stroke="black" d="M2225.16,-1155.6C2178.57,-1135.41 2102.61,-1092.46 2102.61,-1027 2102.61,-1027 2102.61,-1027 2102.61,-953 2102.61,-912.18 2117.45,-866.93 2128.58,-838.72"/>
<polygon fill="black" stroke="black" points="2131.81,-840.08 2132.35,-829.49 2125.33,-837.43 2131.81,-840.08"/>
</g>
<!-- 20 -->
<g id="node20" class="node">
<title>20</title>
<ellipse fill="none" stroke="black" cx="2418.61" cy="-954" rx="96.39" ry="18"/>
<text text-anchor="middle" x="2418.61" y="-948.95" font-family="Times New Roman,serif" font-size="14.00">You: [放弃思维。]</text>
</g>
<!-- 2&#45;&gt;20 -->
<g id="edge4" class="edge">
<title>2&#45;&gt;20</title>
<path fill="none" stroke="black" d="M2287.33,-1153.75C2320.14,-1133.41 2374.53,-1094.05 2399.61,-1044 2409.09,-1025.09 2413.85,-1001.61 2416.24,-983.52"/>
<polygon fill="black" stroke="black" points="2419.7,-984.08 2417.34,-973.75 2412.74,-983.29 2419.7,-984.08"/>
</g>
<!-- 23 -->
<g id="node23" class="node">
<title>23</title>
<ellipse fill="none" stroke="black" cx="2260.61" cy="-1098" rx="66.71" ry="18"/>
<text text-anchor="middle" x="2260.61" y="-1092.95" font-family="Times New Roman,serif" font-size="14.00">You: 妙啊。</text>
</g>
<!-- 2&#45;&gt;23 -->
<g id="edge5" class="edge">
<title>2&#45;&gt;23</title>
<path fill="none" stroke="black" d="M2260.61,-1151.7C2260.61,-1144.41 2260.61,-1135.73 2260.61,-1127.54"/>
<polygon fill="black" stroke="black" points="2264.11,-1127.62 2260.61,-1117.62 2257.11,-1127.62 2264.11,-1127.62"/>
</g>
<!-- 3 -->
<g id="node4" class="node">
<title>3</title>
<ellipse fill="none" stroke="black" cx="2190.61" cy="-90" rx="320.05" ry="18"/>
<text text-anchor="middle" x="2190.61" y="-84.95" font-family="Times New Roman,serif" font-size="14.00">You: 不。我太悲观了。我再也不会说这种话了。[忽略思维。]</text>
</g>
<!-- 4 -->
<g id="node5" class="node">
<title>4</title>
<ellipse fill="none" stroke="black" cx="2661.61" cy="-90" rx="133.24" ry="18"/>
<text text-anchor="middle" x="2661.61" y="-84.95" font-family="Times New Roman,serif" font-size="14.00">You: 去他的吧——开拍！</text>
</g>
<!-- 7 -->
<g id="node8" class="node">
<title>7</title>
<ellipse fill="none" stroke="black" cx="2185.61" cy="-18" rx="888.16" ry="18"/>
<text text-anchor="middle" x="2185.61" y="-12.95" font-family="Times New Roman,serif" font-size="14.00">Composure: 突然的一阵闪光过后，你周围的世界全都冻住了——把你也包围其中。在一片图像性的单色溶液里，一个黑色的剪影对抗着一个栅格化的橙色世界。它*开幕*了。</text>
</g>
<!-- 4&#45;&gt;7 -->
<g id="edge6" class="edge">
<title>4&#45;&gt;7</title>
<path fill="none" stroke="black" d="M2573.75,-76.08C2501.07,-65.39 2396.82,-50.06 2314.66,-37.98"/>
<polygon fill="black" stroke="black" points="2315.37,-34.54 2304.97,-36.55 2314.35,-41.47 2315.37,-34.54"/>
</g>
<!-- 5 -->
<g id="node6" class="node">
<title>5</title>
<ellipse fill="none" stroke="black" cx="1907.61" cy="-666" rx="438.28" ry="18"/>
<text text-anchor="middle" x="1907.61" y="-660.95" font-family="Times New Roman,serif" font-size="14.00">You: 说实话，在一个句子里听到*超级明星*和*执法人员*这两个词，好像有点诡异。</text>
</g>
<!-- 21 -->
<g id="node21" class="node">
<title>21</title>
<ellipse fill="none" stroke="black" cx="1806.61" cy="-594" rx="640.44" ry="18"/>
<text text-anchor="middle" x="1806.61" y="-588.95" font-family="Times New Roman,serif" font-size="14.00">Composure: 你怎么了，聋了？它们多完美！就像“摇滚政客”和“瘾君子教师”。拥抱你如此努力才建立起来的超级明星形象吧。</text>
</g>
<!-- 5&#45;&gt;21 -->
<g id="edge7" class="edge">
<title>5&#45;&gt;21</title>
<path fill="none" stroke="black" d="M1882.65,-647.7C1870.02,-638.95 1854.51,-628.19 1840.79,-618.69"/>
<polygon fill="black" stroke="black" points="1843.1,-616.03 1832.89,-613.21 1839.11,-621.78 1843.1,-616.03"/>
</g>
<!-- 6 -->
<g id="node7" class="node">
<title>6</title>
<ellipse fill="none" stroke="black" cx="2495.61" cy="-882" rx="327.22" ry="18"/>
<text text-anchor="middle" x="2495.61" y="-876.95" font-family="Times New Roman,serif" font-size="14.00">Composure: 你确定？灯光很*重要*的。灯光就是生命，是命运。</text>
</g>
<!-- 6&#45;&gt;9 -->
<g id="edge8" class="edge">
<title>6&#45;&gt;9</title>
<path fill="none" stroke="black" d="M2410.13,-864.14C2353.49,-852.97 2279.56,-838.4 2223.46,-827.34"/>
<polygon fill="black" stroke="black" points="2224.46,-823.97 2213.98,-825.47 2223.11,-830.83 2224.46,-823.97"/>
</g>
<!-- 10 -->
<g id="node11" class="node">
<title>10</title>
<ellipse fill="none" stroke="black" cx="2495.61" cy="-810" rx="160.88" ry="18"/>
<text text-anchor="middle" x="2495.61" y="-804.95" font-family="Times New Roman,serif" font-size="14.00">You: “是的。”[*真正*放弃它。]</text>
</g>
<!-- 6&#45;&gt;10 -->
<g id="edge9" class="edge">
<title>6&#45;&gt;10</title>
<path fill="none" stroke="black" d="M2495.61,-863.7C2495.61,-856.41 2495.61,-847.73 2495.61,-839.54"/>
<polygon fill="black" stroke="black" points="2499.11,-839.62 2495.61,-829.62 2492.11,-839.62 2499.11,-839.62"/>
</g>
<!-- 8 -->
<g id="node9" class="node">
<title>8</title>
<ellipse fill="none" stroke="black" cx="1640.61" cy="-306" rx="178.79" ry="18"/>
<text text-anchor="middle" x="1640.61" y="-300.95" font-family="Times New Roman,serif" font-size="14.00">You: 不。你去死吧！[完成思维。]</text>
</g>
<!-- 16 -->
<g id="node16" class="node">
<title>16</title>
<ellipse fill="none" stroke="black" cx="2140.61" cy="-738" rx="770.44" ry="18"/>
<text text-anchor="middle" x="2140.61" y="-732.95" font-family="Times New Roman,serif" font-size="14.00">Composure: 遥远的日落？舞台灯？闪光摄影？没什么特别的？这只是*超级明星执法人员*该做的——看见灯光就眯眼。而且他们会解决这种狗屁问题。</text>
</g>
<!-- 9&#45;&gt;16 -->
<g id="edge10" class="edge">
<title>9&#45;&gt;16</title>
<path fill="none" stroke="black" d="M2140.61,-791.7C2140.61,-784.41 2140.61,-775.73 2140.61,-767.54"/>
<polygon fill="black" stroke="black" points="2144.11,-767.62 2140.61,-757.62 2137.11,-767.62 2144.11,-767.62"/>
</g>
<!-- 12 -->
<g id="node12" class="node">
<title>12</title>
<ellipse fill="none" stroke="black" cx="2260.61" cy="-1026" rx="129.66" ry="18"/>
<text text-anchor="middle" x="2260.61" y="-1020.95" font-family="Times New Roman,serif" font-size="14.00">Composure: 真的太妙了。</text>
</g>
<!-- 12&#45;&gt;9 -->
<g id="edge11" class="edge">
<title>12&#45;&gt;9</title>
<path fill="none" stroke="black" d="M2242.2,-1007.84C2219.21,-985.34 2180.39,-943.57 2159.61,-900 2150.51,-880.91 2145.73,-857.44 2143.24,-839.4"/>
<polygon fill="black" stroke="black" points="2146.74,-839.17 2142.07,-829.66 2139.79,-840.01 2146.74,-839.17"/>
</g>
<!-- 12&#45;&gt;20 -->
<g id="edge12" class="edge">
<title>12&#45;&gt;20</title>
<path fill="none" stroke="black" d="M2298.06,-1008.41C2320.14,-998.63 2348.27,-986.17 2371.8,-975.74"/>
<polygon fill="black" stroke="black" points="2373.15,-978.97 2380.87,-971.72 2370.31,-972.57 2373.15,-978.97"/>
</g>
<!-- 13 -->
<g id="node13" class="node">
<title>13</title>
<ellipse fill="none" stroke="black" cx="2765.61" cy="-450" rx="888.16" ry="18"/>
<text text-anchor="middle" x="2765.61" y="-444.95" font-family="Times New Roman,serif" font-size="14.00">Composure: 是的，没错！你是明星大侦探。迪克·马伦。萨拉姆·洛奇·巴依。狠角色，横跨黑白两道的迪斯科警察。是时候退回到荒唐的幻想世界了，我们走！相机，灯光……</text>
</g>
<!-- 25 -->
<g id="node25" class="node">
<title>25</title>
<ellipse fill="none" stroke="black" cx="1847.61" cy="-378" rx="75.41" ry="18"/>
<text text-anchor="middle" x="1847.61" y="-372.95" font-family="Times New Roman,serif" font-size="14.00">Untitled hub (02)</text>
</g>
<!-- 13&#45;&gt;25 -->
<g id="edge13" class="edge">
<title>13&#45;&gt;25</title>
<path fill="none" stroke="black" d="M2543.98,-432.1C2346.06,-417.01 2066.91,-395.72 1929.95,-385.28"/>
<polygon fill="black" stroke="black" points="1930.48,-381.81 1920.24,-384.54 1929.95,-388.79 1930.48,-381.81"/>
</g>
<!-- 14 -->
<g id="node14" class="node">
<title>14</title>
<ellipse fill="none" stroke="black" cx="1510.61" cy="-522" rx="313.91" ry="18"/>
<text text-anchor="middle" x="1510.61" y="-516.95" font-family="Times New Roman,serif" font-size="14.00">You: 你把我的形象搞错了。我不是超级明星。我是个垃圾。</text>
</g>
<!-- 24 -->
<g id="node24" class="node">
<title>24</title>
<ellipse fill="none" stroke="black" cx="929.61" cy="-450" rx="929.61" ry="18"/>
<text text-anchor="middle" x="929.61" y="-444.95" font-family="Times New Roman,serif" font-size="14.00">Composure: 是啊，酷炫的*垃圾*超级明星。倒霉的明星大侦探。萨拉姆·洛奇·巴依。狠角色，横跨黑白两道的迪斯科警察。是时候退回到荒唐的幻想世界了，我们走！相机，灯光……</text>
</g>
<!-- 14&#45;&gt;24 -->
<g id="edge14" class="edge">
<title>14&#45;&gt;24</title>
<path fill="none" stroke="black" d="M1379.5,-505.2C1291.95,-494.66 1176.43,-480.74 1084.37,-469.64"/>
<polygon fill="black" stroke="black" points="1084.82,-466.17 1074.47,-468.45 1083.98,-473.12 1084.82,-466.17"/>
</g>
<!-- 15 -->
<g id="node15" class="node">
<title>15</title>
<ellipse fill="none" stroke="black" cx="2661.61" cy="-162" rx="198.24" ry="18"/>
<text text-anchor="middle" x="2661.61" y="-156.95" font-family="Times New Roman,serif" font-size="14.00">Conceptualization: 这是你*传说*的开始。</text>
</g>
<!-- 15&#45;&gt;3 -->
<g id="edge15" class="edge">
<title>15&#45;&gt;3</title>
<path fill="none" stroke="black" d="M2561.15,-146.07C2488.15,-135.22 2389,-120.48 2311.63,-108.99"/>
<polygon fill="black" stroke="black" points="2312.28,-105.54 2301.88,-107.54 2311.25,-112.47 2312.28,-105.54"/>
</g>
<!-- 15&#45;&gt;4 -->
<g id="edge16" class="edge">
<title>15&#45;&gt;4</title>
<path fill="none" stroke="black" d="M2661.61,-143.7C2661.61,-136.41 2661.61,-127.73 2661.61,-119.54"/>
<polygon fill="black" stroke="black" points="2665.11,-119.62 2661.61,-109.62 2658.11,-119.62 2665.11,-119.62"/>
</g>
<!-- 16&#45;&gt;5 -->
<g id="edge18" class="edge">
<title>16&#45;&gt;5</title>
<path fill="none" stroke="black" d="M2082.72,-719.61C2050.37,-709.89 2009.87,-697.72 1975.97,-687.54"/>
<polygon fill="black" stroke="black" points="1977.24,-684.26 1966.66,-684.74 1975.23,-690.97 1977.24,-684.26"/>
</g>
<!-- 19 -->
<g id="node19" class="node">
<title>19</title>
<ellipse fill="none" stroke="black" cx="2474.61" cy="-522" rx="342.57" ry="18"/>
<text text-anchor="middle" x="2474.61" y="-516.95" font-family="Times New Roman,serif" font-size="14.00">You: 没错，是我——我最近一直在努力*打造*我的超级明星形象。</text>
</g>
<!-- 16&#45;&gt;19 -->
<g id="edge17" class="edge">
<title>16&#45;&gt;19</title>
<path fill="none" stroke="black" d="M2243.7,-719.7C2279.78,-711.52 2319.93,-699.95 2354.61,-684 2404.7,-660.97 2425.36,-658.08 2455.61,-612 2467.35,-594.12 2471.99,-570.27 2473.75,-551.76"/>
<polygon fill="black" stroke="black" points="2477.23,-552.21 2474.44,-541.99 2470.25,-551.72 2477.23,-552.21"/>
</g>
<!-- 17 -->
<g id="node17" class="node">
<title>17</title>
<ellipse fill="none" stroke="black" cx="2524.61" cy="-306" rx="243.28" ry="18"/>
<text text-anchor="middle" x="2524.61" y="-300.95" font-family="Times New Roman,serif" font-size="14.00">You: 等等，这个荒唐的幻想世界是怎么回事？</text>
</g>
<!-- 22 -->
<g id="node22" class="node">
<title>22</title>
<ellipse fill="none" stroke="black" cx="2727.61" cy="-234" rx="998.2" ry="18"/>
<text text-anchor="middle" x="2727.61" y="-228.95" font-family="Times New Roman,serif" font-size="14.00">Composure: 是啊。你知道的，在那下面只是件伤心事，肺部大面积感染，动脉粥样硬化病。这里就是你喊一句*开拍*，然后把一切重新概念化的地方。把它彻底改造成世界第一明星警探的样子！</text>
</g>
<!-- 17&#45;&gt;22 -->
<g id="edge19" class="edge">
<title>17&#45;&gt;22</title>
<path fill="none" stroke="black" d="M2574.01,-287.97C2601.92,-278.34 2637.04,-266.23 2666.65,-256.02"/>
<polygon fill="black" stroke="black" points="2667.54,-259.42 2675.86,-252.85 2665.26,-252.8 2667.54,-259.42"/>
</g>
<!-- 18&#45;&gt;2 -->
<g id="edge20" class="edge">
<title>18&#45;&gt;2</title>
<path fill="none" stroke="black" d="M2260.61,-1223.7C2260.61,-1216.41 2260.61,-1207.73 2260.61,-1199.54"/>
<polygon fill="black" stroke="black" points="2264.11,-1199.62 2260.61,-1189.62 2257.11,-1199.62 2264.11,-1199.62"/>
</g>
<!-- 19&#45;&gt;13 -->
<g id="edge21" class="edge">
<title>19&#45;&gt;13</title>
<path fill="none" stroke="black" d="M2545.43,-503.97C2586.67,-494.04 2638.9,-481.48 2682.14,-471.08"/>
<polygon fill="black" stroke="black" points="2682.84,-474.51 2691.74,-468.77 2681.2,-467.71 2682.84,-474.51"/>
</g>
<!-- 20&#45;&gt;6 -->
<g id="edge22" class="edge">
<title>20&#45;&gt;6</title>
<path fill="none" stroke="black" d="M2437.25,-936.05C2446.57,-927.58 2458.03,-917.17 2468.32,-907.82"/>
<polygon fill="black" stroke="black" points="2470.45,-910.61 2475.49,-901.29 2465.74,-905.43 2470.45,-910.61"/>
</g>
<!-- 21&#45;&gt;14 -->
<g id="edge24" class="edge">
<title>21&#45;&gt;14</title>
<path fill="none" stroke="black" d="M1733.45,-575.7C1690.99,-565.66 1637.39,-552.98 1593.39,-542.58"/>
<polygon fill="black" stroke="black" points="1594.44,-539.23 1583.9,-540.33 1592.83,-546.04 1594.44,-539.23"/>
</g>
<!-- 21&#45;&gt;19 -->
<g id="edge23" class="edge">
<title>21&#45;&gt;19</title>
<path fill="none" stroke="black" d="M1967.89,-576.1C2072.85,-565.1 2209.2,-550.81 2314.02,-539.83"/>
<polygon fill="black" stroke="black" points="2314.26,-543.32 2323.84,-538.8 2313.53,-536.36 2314.26,-543.32"/>
</g>
<!-- 22&#45;&gt;15 -->
<g id="edge25" class="edge">
<title>22&#45;&gt;15</title>
<path fill="none" stroke="black" d="M2711.3,-215.7C2703.55,-207.47 2694.13,-197.48 2685.58,-188.42"/>
<polygon fill="black" stroke="black" points="2688.19,-186.08 2678.78,-181.21 2683.09,-190.88 2688.19,-186.08"/>
</g>
<!-- 23&#45;&gt;12 -->
<g id="edge26" class="edge">
<title>23&#45;&gt;12</title>
<path fill="none" stroke="black" d="M2260.61,-1079.7C2260.61,-1072.41 2260.61,-1063.73 2260.61,-1055.54"/>
<polygon fill="black" stroke="black" points="2264.11,-1055.62 2260.61,-1045.62 2257.11,-1055.62 2264.11,-1055.62"/>
</g>
<!-- 24&#45;&gt;25 -->
<g id="edge27" class="edge">
<title>24&#45;&gt;25</title>
<path fill="none" stroke="black" d="M1151.84,-432.05C1349.77,-416.96 1628.6,-395.7 1765.39,-385.27"/>
<polygon fill="black" stroke="black" points="1765.37,-388.78 1775.08,-384.53 1764.84,-381.8 1765.37,-388.78"/>
</g>
<!-- 25&#45;&gt;8 -->
<g id="edge28" class="edge">
<title>25&#45;&gt;8</title>
<path fill="none" stroke="black" d="M1805.23,-362.67C1775.02,-352.45 1734,-338.58 1700.46,-327.24"/>
<polygon fill="black" stroke="black" points="1701.89,-324.03 1691.29,-324.14 1699.64,-330.66 1701.89,-324.03"/>
</g>
<!-- 25&#45;&gt;17 -->
<g id="edge29" class="edge">
<title>25&#45;&gt;17</title>
<path fill="none" stroke="black" d="M1915.63,-369.97C2022.57,-358.91 2232.59,-337.19 2375.77,-322.39"/>
<polygon fill="black" stroke="black" points="2375.73,-325.91 2385.32,-321.4 2375.01,-318.95 2375.73,-325.91"/>
</g>
<!-- 26 -->
<g id="node26" class="node">
<title>26</title>
<ellipse fill="none" stroke="black" cx="1644.61" cy="-234" rx="66.71" ry="18"/>
<text text-anchor="middle" x="1644.61" y="-228.95" font-family="Times New Roman,serif" font-size="14.00">You: 开拍！</text>
</g>
<!-- 25&#45;&gt;26 -->
<g id="edge30" class="edge">
<title>25&#45;&gt;26</title>
<path fill="none" stroke="black" d="M1848.84,-359.56C1849.24,-339.68 1846.71,-307.42 1828.61,-288 1819.89,-278.65 1755.19,-261.39 1704.95,-249.11"/>
<polygon fill="black" stroke="black" points="1705.84,-245.73 1695.3,-246.77 1704.19,-252.53 1705.84,-245.73"/>
</g>
<!-- 26&#45;&gt;7 -->
<g id="edge31" class="edge">
<title>26&#45;&gt;7</title>
<path fill="none" stroke="black" d="M1661.09,-216.26C1695.14,-182.78 1777.15,-107.73 1861.61,-72 1897.72,-56.72 1937.81,-45.83 1977.15,-38.07"/>
<polygon fill="black" stroke="black" points="1977.56,-41.55 1986.73,-36.24 1976.25,-34.68 1977.56,-41.55"/>
</g>
</g>
</svg>
