<?xml version="1.0" encoding="UTF-8" standalone="no"?>
<!DOCTYPE svg PUBLIC "-//W3C//DTD SVG 1.1//EN"
 "http://www.w3.org/Graphics/SVG/1.1/DTD/svg11.dtd">
<!-- Generated by graphviz version 12.2.1 (20241206.2353)
 -->
<!-- Title: G Pages: 1 -->
<svg width="4296pt" height="1143pt"
 viewBox="0.00 0.00 4295.71 1142.80" xmlns="http://www.w3.org/2000/svg" xmlns:xlink="http://www.w3.org/1999/xlink">
<g id="graph0" class="graph" transform="scale(1 1) rotate(0) translate(4 1138.8)">
<title>G</title>
<polygon fill="white" stroke="none" points="-4,4 -4,-1138.8 4291.71,-1138.8 4291.71,4 -4,4"/>
<!-- 0 -->
<g id="node1" class="node">
<title>0</title>
<ellipse fill="none" stroke="black" cx="395.8" cy="-1116.8" rx="39.07" ry="18"/>
<text text-anchor="middle" x="395.8" y="-1111.75" font-family="Times New Roman,serif" font-size="14.00">START</text>
</g>
<!-- 1 -->
<g id="node2" class="node">
<title>1</title>
<ellipse fill="none" stroke="black" cx="395.8" cy="-1044.8" rx="29.86" ry="18"/>
<text text-anchor="middle" x="395.8" y="-1039.75" font-family="Times New Roman,serif" font-size="14.00">input</text>
</g>
<!-- 0&#45;&gt;1 -->
<g id="edge1" class="edge">
<title>0&#45;&gt;1</title>
<path fill="none" stroke="black" d="M395.8,-1098.5C395.8,-1091.21 395.8,-1082.53 395.8,-1074.34"/>
<polygon fill="black" stroke="black" points="399.3,-1074.42 395.8,-1064.42 392.3,-1074.42 399.3,-1074.42"/>
</g>
<!-- 2 -->
<g id="node3" class="node">
<title>2</title>
<ellipse fill="none" stroke="black" cx="395.8" cy="-972.8" rx="395.8" ry="18"/>
<text text-anchor="middle" x="395.8" y="-967.75" font-family="Times New Roman,serif" font-size="14.00">Suggestion: 喂，我们一直在内部监视你，现在我们都知道你的*警察类型*了。</text>
</g>
<!-- 1&#45;&gt;2 -->
<g id="edge2" class="edge">
<title>1&#45;&gt;2</title>
<path fill="none" stroke="black" d="M395.8,-1026.5C395.8,-1019.21 395.8,-1010.53 395.8,-1002.34"/>
<polygon fill="black" stroke="black" points="399.3,-1002.42 395.8,-992.42 392.3,-1002.42 399.3,-1002.42"/>
</g>
<!-- 11 -->
<g id="node12" class="node">
<title>11</title>
<ellipse fill="none" stroke="black" cx="395.8" cy="-900.8" rx="155.76" ry="18"/>
<text text-anchor="middle" x="395.8" y="-895.75" font-family="Times New Roman,serif" font-size="14.00">Empathy: 这里极度缺乏热情。</text>
</g>
<!-- 2&#45;&gt;11 -->
<g id="edge3" class="edge">
<title>2&#45;&gt;11</title>
<path fill="none" stroke="black" d="M395.8,-954.5C395.8,-947.21 395.8,-938.53 395.8,-930.34"/>
<polygon fill="black" stroke="black" points="399.3,-930.42 395.8,-920.42 392.3,-930.42 399.3,-930.42"/>
</g>
<!-- 3 -->
<g id="node4" class="node">
<title>3</title>
<ellipse fill="none" stroke="black" cx="1421.8" cy="-738" rx="90.25" ry="18"/>
<text text-anchor="middle" x="1421.8" y="-732.95" font-family="Times New Roman,serif" font-size="14.00">You: 酷炫警探？</text>
</g>
<!-- 8 -->
<g id="node9" class="node">
<title>8</title>
<ellipse fill="none" stroke="black" cx="2870.8" cy="-450" rx="427.02" ry="18"/>
<text text-anchor="middle" x="2870.8" y="-444.95" font-family="Times New Roman,serif" font-size="14.00">Suggestion: 不，你是*抱歉警探*——那个最抱歉的警察。这就是正式的了，可以吗？</text>
</g>
<!-- 3&#45;&gt;8 -->
<g id="edge4" class="edge">
<title>3&#45;&gt;8</title>
<path fill="none" stroke="black" d="M1486.83,-725.17C1499.71,-723.17 1513.15,-721.31 1525.8,-720 1658.72,-706.2 3836.45,-708.59 3928.8,-612 4028.16,-508.07 3428.3,-559.15 3285.8,-540 3166.23,-523.93 3029.86,-492.01 2947.08,-471.09"/>
<polygon fill="black" stroke="black" points="2948.03,-467.72 2937.48,-468.65 2946.31,-474.51 2948.03,-467.72"/>
</g>
<!-- 4 -->
<g id="node5" class="node">
<title>4</title>
<ellipse fill="none" stroke="black" cx="3129.8" cy="-900.8" rx="96.39" ry="18"/>
<text text-anchor="middle" x="3129.8" y="-895.75" font-family="Times New Roman,serif" font-size="14.00">You: [放弃思维。]</text>
</g>
<!-- 5 -->
<g id="node6" class="node">
<title>5</title>
<ellipse fill="none" stroke="black" cx="1009.8" cy="-819.4" rx="133.24" ry="18"/>
<text text-anchor="middle" x="1009.8" y="-814.35" font-family="Times New Roman,serif" font-size="14.00">You: 某种……武装警探？</text>
</g>
<!-- 5&#45;&gt;8 -->
<g id="edge5" class="edge">
<title>5&#45;&gt;8</title>
<path fill="none" stroke="black" d="M907.68,-807.54C860.81,-802.64 804.5,-796.87 753.8,-792 708.83,-787.68 382.63,-785.94 348.8,-756 318.51,-729.19 329.8,-707.45 329.8,-667 329.8,-667 329.8,-667 329.8,-593 329.8,-541.27 358.13,-526.31 404.8,-504 450.21,-482.29 1759.61,-463.87 2451.47,-455.63"/>
<polygon fill="black" stroke="black" points="2451.41,-459.13 2461.36,-455.51 2451.32,-452.13 2451.41,-459.13"/>
</g>
<!-- 6 -->
<g id="node7" class="node">
<title>6</title>
<ellipse fill="none" stroke="black" cx="1045.8" cy="-900.8" rx="137.34" ry="18"/>
<text text-anchor="middle" x="1045.8" y="-895.75" font-family="Times New Roman,serif" font-size="14.00">You: 很抱歉让你监视我。</text>
</g>
<!-- 22 -->
<g id="node23" class="node">
<title>22</title>
<ellipse fill="none" stroke="black" cx="1127.8" cy="-972.8" rx="75.41" ry="18"/>
<text text-anchor="middle" x="1127.8" y="-967.75" font-family="Times New Roman,serif" font-size="14.00">Untitled hub (06)</text>
</g>
<!-- 6&#45;&gt;22 -->
<g id="edge6" class="edge">
<title>6&#45;&gt;22</title>
<path fill="none" stroke="black" d="M1071.64,-918.83C1082.55,-927.38 1095.06,-937.89 1105.56,-947.29"/>
<polygon fill="black" stroke="black" points="1102.97,-949.67 1112.71,-953.83 1107.7,-944.5 1102.97,-949.67"/>
</g>
<!-- 7 -->
<g id="node8" class="node">
<title>7</title>
<ellipse fill="none" stroke="black" cx="1885.8" cy="-234" rx="92.3" ry="18"/>
<text text-anchor="middle" x="1885.8" y="-228.95" font-family="Times New Roman,serif" font-size="14.00">Suggestion: 你猜。</text>
</g>
<!-- 23 -->
<g id="node24" class="node">
<title>23</title>
<ellipse fill="none" stroke="black" cx="566.8" cy="-162" rx="240.72" ry="18"/>
<text text-anchor="middle" x="566.8" y="-156.95" font-family="Times New Roman,serif" font-size="14.00">You: 好吧，好吧，那*其他*警察类型是什么？</text>
</g>
<!-- 7&#45;&gt;23 -->
<g id="edge7" class="edge">
<title>7&#45;&gt;23</title>
<path fill="none" stroke="black" d="M1797.72,-228.33C1589.47,-217.27 1062.36,-189.3 769.98,-173.78"/>
<polygon fill="black" stroke="black" points="770.5,-170.31 760.33,-173.27 770.13,-177.3 770.5,-170.31"/>
</g>
<!-- 12 -->
<g id="node13" class="node">
<title>12</title>
<ellipse fill="none" stroke="black" cx="3183.8" cy="-378" rx="184.42" ry="18"/>
<text text-anchor="middle" x="3183.8" y="-372.95" font-family="Times New Roman,serif" font-size="14.00">You: 我有点希望自己是明星警探。</text>
</g>
<!-- 8&#45;&gt;12 -->
<g id="edge8" class="edge">
<title>8&#45;&gt;12</title>
<path fill="none" stroke="black" d="M2947.37,-431.88C2993.86,-421.48 3053.22,-408.2 3100.83,-397.55"/>
<polygon fill="black" stroke="black" points="3101.57,-400.98 3110.57,-395.38 3100.05,-394.14 3101.57,-400.98"/>
</g>
<!-- 9 -->
<g id="node10" class="node">
<title>9</title>
<ellipse fill="none" stroke="black" cx="4072.8" cy="-666" rx="184.42" ry="18"/>
<text text-anchor="middle" x="4072.8" y="-660.95" font-family="Times New Roman,serif" font-size="14.00">You: 我有点希望自己是末日警探。</text>
</g>
<!-- 27 -->
<g id="node28" class="node">
<title>27</title>
<ellipse fill="none" stroke="black" cx="3183.8" cy="-306" rx="137.34" ry="18"/>
<text text-anchor="middle" x="3183.8" y="-300.95" font-family="Times New Roman,serif" font-size="14.00">You: 好吧。那我是什么？</text>
</g>
<!-- 9&#45;&gt;27 -->
<g id="edge9" class="edge">
<title>9&#45;&gt;27</title>
<path fill="none" stroke="black" d="M4072.8,-647.51C4072.8,-620.71 4072.8,-567.87 4072.8,-523 4072.8,-523 4072.8,-523 4072.8,-449 4072.8,-373.57 3567.34,-331.16 3318.69,-314.86"/>
<polygon fill="black" stroke="black" points="3319.13,-311.38 3308.92,-314.22 3318.67,-318.36 3319.13,-311.38"/>
</g>
<!-- 10 -->
<g id="node11" class="node">
<title>10</title>
<ellipse fill="none" stroke="black" cx="2895.8" cy="-972.8" rx="75.41" ry="18"/>
<text text-anchor="middle" x="2895.8" y="-967.75" font-family="Times New Roman,serif" font-size="14.00">Untitled hub (05)</text>
</g>
<!-- 10&#45;&gt;4 -->
<g id="edge12" class="edge">
<title>10&#45;&gt;4</title>
<path fill="none" stroke="black" d="M2941.47,-958.14C2977.94,-947.23 3029.37,-931.84 3069.27,-919.91"/>
<polygon fill="black" stroke="black" points="3070.17,-923.29 3078.75,-917.07 3068.16,-916.59 3070.17,-923.29"/>
</g>
<!-- 28 -->
<g id="node29" class="node">
<title>28</title>
<ellipse fill="none" stroke="black" cx="2895.8" cy="-900.8" rx="119.93" ry="18"/>
<text text-anchor="middle" x="2895.8" y="-895.75" font-family="Times New Roman,serif" font-size="14.00">Logic: 那不会发生的。</text>
</g>
<!-- 10&#45;&gt;28 -->
<g id="edge11" class="edge">
<title>10&#45;&gt;28</title>
<path fill="none" stroke="black" d="M2895.8,-954.5C2895.8,-947.21 2895.8,-938.53 2895.8,-930.34"/>
<polygon fill="black" stroke="black" points="2899.3,-930.42 2895.8,-920.42 2892.3,-930.42 2899.3,-930.42"/>
</g>
<!-- 35 -->
<g id="node36" class="node">
<title>35</title>
<ellipse fill="none" stroke="black" cx="2434.8" cy="-900.8" rx="323.12" ry="18"/>
<text text-anchor="middle" x="2434.8" y="-895.75" font-family="Times New Roman,serif" font-size="14.00">You: 不。我*真的*没有感到抱歉。滚一边去！（拒绝思想。）</text>
</g>
<!-- 10&#45;&gt;35 -->
<g id="edge10" class="edge">
<title>10&#45;&gt;35</title>
<path fill="none" stroke="black" d="M2833.63,-962.36C2762.21,-951.52 2643.4,-933.48 2553.99,-919.9"/>
<polygon fill="black" stroke="black" points="2554.6,-916.45 2544.18,-918.41 2553.54,-923.37 2554.6,-916.45"/>
</g>
<!-- 38 -->
<g id="node39" class="node">
<title>38</title>
<ellipse fill="none" stroke="black" cx="395.8" cy="-819.4" rx="348.71" ry="18"/>
<text text-anchor="middle" x="395.8" y="-814.35" font-family="Times New Roman,serif" font-size="14.00">Suggestion: 什么？妒忌*抱歉警探*？我觉得它们会没事的。别担心。</text>
</g>
<!-- 11&#45;&gt;38 -->
<g id="edge13" class="edge">
<title>11&#45;&gt;38</title>
<path fill="none" stroke="black" d="M395.8,-882.57C395.8,-872.86 395.8,-860.47 395.8,-849.31"/>
<polygon fill="black" stroke="black" points="399.3,-849.38 395.8,-839.38 392.3,-849.38 399.3,-849.38"/>
</g>
<!-- 12&#45;&gt;27 -->
<g id="edge14" class="edge">
<title>12&#45;&gt;27</title>
<path fill="none" stroke="black" d="M3183.8,-359.7C3183.8,-352.41 3183.8,-343.73 3183.8,-335.54"/>
<polygon fill="black" stroke="black" points="3187.3,-335.62 3183.8,-325.62 3180.3,-335.62 3187.3,-335.62"/>
</g>
<!-- 13 -->
<g id="node14" class="node">
<title>13</title>
<ellipse fill="none" stroke="black" cx="1830.8" cy="-900.8" rx="207.96" ry="18"/>
<text text-anchor="middle" x="1830.8" y="-895.75" font-family="Times New Roman,serif" font-size="14.00">You: 呃，那其他警察类型会不会妒忌？</text>
</g>
<!-- 39 -->
<g id="node40" class="node">
<title>39</title>
<ellipse fill="none" stroke="black" cx="1902.8" cy="-819.4" rx="334.89" ry="18"/>
<text text-anchor="middle" x="1902.8" y="-814.35" font-family="Times New Roman,serif" font-size="14.00">You: 你知道的，其实我一点也*没有*感到抱歉。我改变主意了。</text>
</g>
<!-- 13&#45;&gt;39 -->
<g id="edge15" class="edge">
<title>13&#45;&gt;39</title>
<path fill="none" stroke="black" d="M1846.42,-882.57C1856.07,-871.93 1868.64,-858.07 1879.46,-846.14"/>
<polygon fill="black" stroke="black" points="1881.82,-848.75 1885.94,-838.99 1876.63,-844.05 1881.82,-848.75"/>
</g>
<!-- 14 -->
<g id="node15" class="node">
<title>14</title>
<ellipse fill="none" stroke="black" cx="1043.8" cy="-594" rx="227.41" ry="18"/>
<text text-anchor="middle" x="1043.8" y="-588.95" font-family="Times New Roman,serif" font-size="14.00">Half Light: 看看这个烈火警探，胆子真大……</text>
</g>
<!-- 15 -->
<g id="node16" class="node">
<title>15</title>
<ellipse fill="none" stroke="black" cx="805.8" cy="-450" rx="203.87" ry="18"/>
<text text-anchor="middle" x="805.8" y="-444.95" font-family="Times New Roman,serif" font-size="14.00">You: 抱歉警探？很抱歉，我不确定……</text>
</g>
<!-- 30 -->
<g id="node31" class="node">
<title>30</title>
<ellipse fill="none" stroke="black" cx="823.8" cy="-378" rx="327.73" ry="18"/>
<text text-anchor="middle" x="823.8" y="-372.95" font-family="Times New Roman,serif" font-size="14.00">Suggestion: 是啊，是啊，无能的愤怒和悲叹。我们早点结束吧？</text>
</g>
<!-- 15&#45;&gt;30 -->
<g id="edge16" class="edge">
<title>15&#45;&gt;30</title>
<path fill="none" stroke="black" d="M810.25,-431.7C812.14,-424.32 814.41,-415.52 816.53,-407.25"/>
<polygon fill="black" stroke="black" points="819.92,-408.13 819.02,-397.57 813.14,-406.38 819.92,-408.13"/>
</g>
<!-- 16 -->
<g id="node17" class="node">
<title>16</title>
<ellipse fill="none" stroke="black" cx="704.8" cy="-900.8" rx="116.86" ry="18"/>
<text text-anchor="middle" x="704.8" y="-895.75" font-family="Times New Roman,serif" font-size="14.00">Jump to: [Untitled hub (07)]</text>
</g>
<!-- 16&#45;&gt;38 -->
<g id="edge17" class="edge">
<title>16&#45;&gt;38</title>
<path fill="none" stroke="black" d="M646.31,-884.77C597.29,-872.18 526.9,-854.09 473.2,-840.29"/>
<polygon fill="black" stroke="black" points="474.38,-836.98 463.82,-837.88 472.64,-843.76 474.38,-836.98"/>
</g>
<!-- 17 -->
<g id="node18" class="node">
<title>17</title>
<ellipse fill="none" stroke="black" cx="2183.8" cy="-522" rx="184.42" ry="18"/>
<text text-anchor="middle" x="2183.8" y="-516.95" font-family="Times New Roman,serif" font-size="14.00">You: 我有点希望自己是普通警探。</text>
</g>
<!-- 17&#45;&gt;8 -->
<g id="edge18" class="edge">
<title>17&#45;&gt;8</title>
<path fill="none" stroke="black" d="M2308.21,-508.32C2418.07,-497.13 2579.26,-480.71 2700.97,-468.3"/>
<polygon fill="black" stroke="black" points="2701.15,-471.8 2710.74,-467.31 2700.44,-464.84 2701.15,-471.8"/>
</g>
<!-- 18 -->
<g id="node19" class="node">
<title>18</title>
<ellipse fill="none" stroke="black" cx="253.8" cy="-234" rx="186.47" ry="18"/>
<text text-anchor="middle" x="253.8" y="-228.95" font-family="Times New Roman,serif" font-size="14.00">Suggestion: 是的。猜猜你的是什么？</text>
</g>
<!-- 18&#45;&gt;23 -->
<g id="edge19" class="edge">
<title>18&#45;&gt;23</title>
<path fill="none" stroke="black" d="M325.61,-216.94C371.99,-206.57 432.57,-193.02 481.42,-182.09"/>
<polygon fill="black" stroke="black" points="482.13,-185.52 491.13,-179.92 480.6,-178.69 482.13,-185.52"/>
</g>
<!-- 19 -->
<g id="node20" class="node">
<title>19</title>
<ellipse fill="none" stroke="black" cx="2934.8" cy="-162" rx="747.41" ry="18"/>
<text text-anchor="middle" x="2934.8" y="-156.95" font-family="Times New Roman,serif" font-size="14.00">Suggestion: 哦，你知道的。末日警探，超新星警探，进阶趣味警探，液体阴影警探。但你感觉太抱歉，所以说不出那些东西，所以——可以了吗？</text>
</g>
<!-- 41 -->
<g id="node42" class="node">
<title>41</title>
<ellipse fill="none" stroke="black" cx="665.8" cy="-18" rx="116.86" ry="18"/>
<text text-anchor="middle" x="665.8" y="-12.95" font-family="Times New Roman,serif" font-size="14.00">Jump to: [Untitled hub (07)]</text>
</g>
<!-- 19&#45;&gt;41 -->
<g id="edge20" class="edge">
<title>19&#45;&gt;41</title>
<path fill="none" stroke="black" d="M2673.96,-144.68C2182.11,-113.89 1135.42,-48.39 783.8,-26.38"/>
<polygon fill="black" stroke="black" points="784.05,-22.89 773.85,-25.76 783.62,-29.88 784.05,-22.89"/>
</g>
<!-- 20 -->
<g id="node21" class="node">
<title>20</title>
<ellipse fill="none" stroke="black" cx="665.8" cy="-90" rx="598.47" ry="18"/>
<text text-anchor="middle" x="665.8" y="-84.95" font-family="Times New Roman,serif" font-size="14.00">Conceptualization: 它们会超级，超级无所谓的。完全*没问题*。做个抱歉警探的同时你也可以做其他任何风格的警探。</text>
</g>
<!-- 20&#45;&gt;41 -->
<g id="edge21" class="edge">
<title>20&#45;&gt;41</title>
<path fill="none" stroke="black" d="M665.8,-71.7C665.8,-64.41 665.8,-55.73 665.8,-47.54"/>
<polygon fill="black" stroke="black" points="669.3,-47.62 665.8,-37.62 662.3,-47.62 669.3,-47.62"/>
</g>
<!-- 21 -->
<g id="node22" class="node">
<title>21</title>
<ellipse fill="none" stroke="black" cx="835.8" cy="-738" rx="478.2" ry="18"/>
<text text-anchor="middle" x="835.8" y="-732.95" font-family="Times New Roman,serif" font-size="14.00">Suggestion: 好吧，我们来简短的示范一下，请不要说一些*我很抱歉*的话。你猜，会是什么？</text>
</g>
<!-- 37 -->
<g id="node38" class="node">
<title>37</title>
<ellipse fill="none" stroke="black" cx="939.8" cy="-666" rx="75.41" ry="18"/>
<text text-anchor="middle" x="939.8" y="-660.95" font-family="Times New Roman,serif" font-size="14.00">Untitled hub (07)</text>
</g>
<!-- 21&#45;&gt;37 -->
<g id="edge22" class="edge">
<title>21&#45;&gt;37</title>
<path fill="none" stroke="black" d="M861.51,-719.7C875.03,-710.6 891.76,-699.33 906.29,-689.55"/>
<polygon fill="black" stroke="black" points="907.86,-692.72 914.2,-684.23 903.95,-686.91 907.86,-692.72"/>
</g>
<!-- 22&#45;&gt;3 -->
<g id="edge23" class="edge">
<title>22&#45;&gt;3</title>
<path fill="none" stroke="black" d="M1154.25,-955.64C1170.35,-945.52 1191.14,-931.95 1208.8,-918.8 1278.61,-866.79 1355.49,-799.09 1395.03,-763.44"/>
<polygon fill="black" stroke="black" points="1397.15,-766.24 1402.22,-756.93 1392.45,-761.04 1397.15,-766.24"/>
</g>
<!-- 22&#45;&gt;5 -->
<g id="edge24" class="edge">
<title>22&#45;&gt;5</title>
<path fill="none" stroke="black" d="M1156.89,-955.86C1170.15,-946.88 1184.49,-934.34 1191.8,-918.8 1198.61,-904.32 1201.1,-895.82 1191.8,-882.8 1174.75,-858.94 1148,-844.11 1120.2,-834.91"/>
<polygon fill="black" stroke="black" points="1121.54,-831.66 1110.96,-832.1 1119.5,-838.36 1121.54,-831.66"/>
</g>
<!-- 22&#45;&gt;6 -->
<g id="edge25" class="edge">
<title>22&#45;&gt;6</title>
<path fill="none" stroke="black" d="M1102.98,-955.57C1092.04,-947.05 1079.36,-936.42 1068.66,-926.87"/>
<polygon fill="black" stroke="black" points="1071.09,-924.35 1061.34,-920.19 1066.37,-929.52 1071.09,-924.35"/>
</g>
<!-- 22&#45;&gt;9 -->
<g id="edge26" class="edge">
<title>22&#45;&gt;9</title>
<path fill="none" stroke="black" d="M1162.59,-956.51C1250.45,-918.02 1479.87,-818.35 1558.8,-792 1681.91,-750.91 1713.2,-737.51 1841.8,-720 2209.6,-669.91 3140.73,-693.62 3511.8,-684 3637.63,-680.74 3779.31,-676.44 3888.81,-672.98"/>
<polygon fill="black" stroke="black" points="3888.92,-676.48 3898.8,-672.66 3888.7,-669.48 3888.92,-676.48"/>
</g>
<!-- 22&#45;&gt;13 -->
<g id="edge27" class="edge">
<title>22&#45;&gt;13</title>
<path fill="none" stroke="black" d="M1196.48,-964.96C1309.57,-953.7 1537.3,-931.03 1686.87,-916.13"/>
<polygon fill="black" stroke="black" points="1686.84,-919.65 1696.45,-915.18 1686.15,-912.69 1686.84,-919.65"/>
</g>
<!-- 22&#45;&gt;16 -->
<g id="edge28" class="edge">
<title>22&#45;&gt;16</title>
<path fill="none" stroke="black" d="M1067.19,-961.77C995.52,-949.91 875.61,-930.07 793.49,-916.48"/>
<polygon fill="black" stroke="black" points="794.09,-913.03 783.66,-914.85 792.95,-919.94 794.09,-913.03"/>
</g>
<!-- 22&#45;&gt;18 -->
<g id="edge29" class="edge">
<title>22&#45;&gt;18</title>
<path fill="none" stroke="black" d="M1054.46,-968.06C847.42,-957.43 270.82,-927.25 230.8,-918.8 122.41,-895.92 1.8,-931.18 1.8,-820.4 1.8,-820.4 1.8,-820.4 1.8,-377 1.8,-306.45 77.69,-270.57 146.17,-252.55"/>
<polygon fill="black" stroke="black" points="146.77,-256.01 155.62,-250.18 145.07,-249.22 146.77,-256.01"/>
</g>
<!-- 23&#45;&gt;20 -->
<g id="edge30" class="edge">
<title>23&#45;&gt;20</title>
<path fill="none" stroke="black" d="M591.27,-143.7C603.53,-135.03 618.56,-124.4 631.91,-114.96"/>
<polygon fill="black" stroke="black" points="633.88,-117.85 640.03,-109.22 629.84,-112.14 633.88,-117.85"/>
</g>
<!-- 24 -->
<g id="node25" class="node">
<title>24</title>
<ellipse fill="none" stroke="black" cx="596.8" cy="-594" rx="201.31" ry="18"/>
<text text-anchor="middle" x="596.8" y="-588.95" font-family="Times New Roman,serif" font-size="14.00">You: 去他的吧……*它们*才应该抱歉！</text>
</g>
<!-- 31 -->
<g id="node32" class="node">
<title>31</title>
<ellipse fill="none" stroke="black" cx="769.8" cy="-522" rx="356.39" ry="18"/>
<text text-anchor="middle" x="769.8" y="-516.95" font-family="Times New Roman,serif" font-size="14.00">Suggestion: 哇哦。好吧。*滚一边去*？也许我们对你的看法是错的……</text>
</g>
<!-- 24&#45;&gt;31 -->
<g id="edge31" class="edge">
<title>24&#45;&gt;31</title>
<path fill="none" stroke="black" d="M638.68,-576.05C662.13,-566.57 691.6,-554.64 716.66,-544.5"/>
<polygon fill="black" stroke="black" points="717.74,-547.84 725.7,-540.84 715.12,-541.35 717.74,-547.84"/>
</g>
<!-- 25 -->
<g id="node26" class="node">
<title>25</title>
<ellipse fill="none" stroke="black" cx="3164.8" cy="-594" rx="755.09" ry="18"/>
<text text-anchor="middle" x="3164.8" y="-588.95" font-family="Times New Roman,serif" font-size="14.00">Suggestion: 你当然是了。没关系的。看看你能不能从中得到些什么。比如……情报，或者……也许每当你说一次抱歉的时候，就能获得一百万美元？</text>
</g>
<!-- 29 -->
<g id="node30" class="node">
<title>29</title>
<ellipse fill="none" stroke="black" cx="3669.8" cy="-522" rx="374.81" ry="18"/>
<text text-anchor="middle" x="3669.8" y="-516.95" font-family="Times New Roman,serif" font-size="14.00">Suggestion: 是的。抱歉警探。最抱歉的警察。这就是正式的了，可以吗？</text>
</g>
<!-- 25&#45;&gt;29 -->
<g id="edge32" class="edge">
<title>25&#45;&gt;29</title>
<path fill="none" stroke="black" d="M3288.98,-575.79C3365.11,-565.23 3462.44,-551.74 3539.64,-541.04"/>
<polygon fill="black" stroke="black" points="3539.96,-544.53 3549.38,-539.69 3538.99,-537.6 3539.96,-544.53"/>
</g>
<!-- 26 -->
<g id="node27" class="node">
<title>26</title>
<ellipse fill="none" stroke="black" cx="2150.8" cy="-738" rx="300.09" ry="18"/>
<text text-anchor="middle" x="2150.8" y="-732.95" font-family="Times New Roman,serif" font-size="14.00">Suggestion: 这只是一个可笑的白日梦。再猜一次。你是……</text>
</g>
<!-- 26&#45;&gt;37 -->
<g id="edge33" class="edge">
<title>26&#45;&gt;37</title>
<path fill="none" stroke="black" d="M1940.2,-724.83C1669.29,-709.17 1211.33,-682.7 1023.74,-671.85"/>
<polygon fill="black" stroke="black" points="1024.01,-668.36 1013.83,-671.28 1023.61,-675.35 1024.01,-668.36"/>
</g>
<!-- 27&#45;&gt;7 -->
<g id="edge34" class="edge">
<title>27&#45;&gt;7</title>
<path fill="none" stroke="black" d="M3058.75,-298.26C2801.66,-284.39 2218.36,-252.93 1985.01,-240.35"/>
<polygon fill="black" stroke="black" points="1985.51,-236.87 1975.34,-239.83 1985.13,-243.86 1985.51,-236.87"/>
</g>
<!-- 29&#45;&gt;12 -->
<g id="edge35" class="edge">
<title>29&#45;&gt;12</title>
<path fill="none" stroke="black" d="M3611.18,-503.87C3520.59,-477.41 3347.09,-426.71 3251.37,-398.74"/>
<polygon fill="black" stroke="black" points="3252.4,-395.4 3241.82,-395.95 3250.44,-402.12 3252.4,-395.4"/>
</g>
<!-- 42 -->
<g id="node43" class="node">
<title>42</title>
<ellipse fill="none" stroke="black" cx="823.8" cy="-306" rx="27" ry="18"/>
<text text-anchor="middle" x="823.8" y="-300.95" font-family="Times New Roman,serif" font-size="14.00">42</text>
</g>
<!-- 30&#45;&gt;42 -->
<g id="edge36" class="edge">
<title>30&#45;&gt;42</title>
<path fill="none" stroke="black" d="M823.8,-359.7C823.8,-352.41 823.8,-343.73 823.8,-335.54"/>
<polygon fill="black" stroke="black" points="827.3,-335.62 823.8,-325.62 820.3,-335.62 827.3,-335.62"/>
</g>
<!-- 31&#45;&gt;15 -->
<g id="edge37" class="edge">
<title>31&#45;&gt;15</title>
<path fill="none" stroke="black" d="M778.7,-503.7C782.66,-495.98 787.43,-486.71 791.85,-478.11"/>
<polygon fill="black" stroke="black" points="794.85,-479.94 796.31,-469.45 788.62,-476.74 794.85,-479.94"/>
</g>
<!-- 32 -->
<g id="node33" class="node">
<title>32</title>
<ellipse fill="none" stroke="black" cx="2434.8" cy="-819.4" rx="178.9" ry="27.4"/>
<text text-anchor="middle" x="2434.8" y="-821.48" font-family="Times New Roman,serif" font-size="14.00">You: 我很抱歉。（接受思想。）</text>
<text text-anchor="middle" x="2434.8" y="-804.98" font-family="Times New Roman,serif" font-size="14.00">我很抱歉。（接受思想。）</text>
</g>
<!-- 32&#45;&gt;26 -->
<g id="edge38" class="edge">
<title>32&#45;&gt;26</title>
<path fill="none" stroke="black" d="M2350.36,-794.79C2309.71,-783.43 2261.48,-769.94 2222.62,-759.08"/>
<polygon fill="black" stroke="black" points="2223.95,-755.82 2213.38,-756.5 2222.07,-762.56 2223.95,-755.82"/>
</g>
<!-- 33 -->
<g id="node34" class="node">
<title>33</title>
<ellipse fill="none" stroke="black" cx="1840.8" cy="-594" rx="551.39" ry="18"/>
<text text-anchor="middle" x="1840.8" y="-588.95" font-family="Times New Roman,serif" font-size="14.00">Suggestion: 不，不会的。拜托。用不到两分钟，你又会开口说抱歉了吧。别浪费时间了，赶紧开始悔过吧。</text>
</g>
<!-- 33&#45;&gt;17 -->
<g id="edge39" class="edge">
<title>33&#45;&gt;17</title>
<path fill="none" stroke="black" d="M1925.14,-575.79C1976.9,-565.22 2043.09,-551.72 2095.55,-541.01"/>
<polygon fill="black" stroke="black" points="2095.95,-544.5 2105.04,-539.07 2094.55,-537.64 2095.95,-544.5"/>
</g>
<!-- 34 -->
<g id="node35" class="node">
<title>34</title>
<ellipse fill="none" stroke="black" cx="3423.8" cy="-738" rx="181.86" ry="18"/>
<text text-anchor="middle" x="3423.8" y="-732.95" font-family="Times New Roman,serif" font-size="14.00">You: 等等，还有*警察类型*的吗？</text>
</g>
<!-- 34&#45;&gt;19 -->
<g id="edge40" class="edge">
<title>34&#45;&gt;19</title>
<path fill="none" stroke="black" d="M3605.78,-737.03C3838.4,-735.33 4217.06,-726.03 4265.8,-684 4296.43,-657.58 4284.8,-635.45 4284.8,-595 4284.8,-595 4284.8,-595 4284.8,-305 4284.8,-223.82 3893.71,-188.89 3532.52,-173.94"/>
<polygon fill="black" stroke="black" points="3532.68,-170.45 3522.55,-173.53 3532.4,-177.44 3532.68,-170.45"/>
</g>
<!-- 35&#45;&gt;32 -->
<g id="edge41" class="edge">
<title>35&#45;&gt;32</title>
<path fill="none" stroke="black" d="M2434.8,-882.57C2434.8,-875.49 2434.8,-866.97 2434.8,-858.56"/>
<polygon fill="black" stroke="black" points="2438.3,-858.79 2434.8,-848.79 2431.3,-858.79 2438.3,-858.79"/>
</g>
<!-- 36 -->
<g id="node37" class="node">
<title>36</title>
<ellipse fill="none" stroke="black" cx="416.8" cy="-450" rx="116.86" ry="18"/>
<text text-anchor="middle" x="416.8" y="-444.95" font-family="Times New Roman,serif" font-size="14.00">Jump to: [Untitled hub (06)]</text>
</g>
<!-- 36&#45;&gt;23 -->
<g id="edge42" class="edge">
<title>36&#45;&gt;23</title>
<path fill="none" stroke="black" d="M425.73,-431.97C450.79,-384.19 521.89,-248.62 552.5,-190.27"/>
<polygon fill="black" stroke="black" points="555.47,-192.13 557.02,-181.65 549.27,-188.88 555.47,-192.13"/>
</g>
<!-- 37&#45;&gt;14 -->
<g id="edge46" class="edge">
<title>37&#45;&gt;14</title>
<path fill="none" stroke="black" d="M964.18,-648.59C977.48,-639.64 994.17,-628.4 1008.83,-618.54"/>
<polygon fill="black" stroke="black" points="1010.52,-621.62 1016.86,-613.13 1006.61,-615.81 1010.52,-621.62"/>
</g>
<!-- 37&#45;&gt;24 -->
<g id="edge47" class="edge">
<title>37&#45;&gt;24</title>
<path fill="none" stroke="black" d="M883.93,-653.6C830.47,-642.69 748.96,-626.05 686.43,-613.29"/>
<polygon fill="black" stroke="black" points="687.36,-609.91 676.86,-611.34 685.96,-616.77 687.36,-609.91"/>
</g>
<!-- 37&#45;&gt;25 -->
<g id="edge48" class="edge">
<title>37&#45;&gt;25</title>
<path fill="none" stroke="black" d="M1014.15,-662.66C1274.54,-654.47 2159.35,-626.63 2709.63,-609.32"/>
<polygon fill="black" stroke="black" points="2709.54,-612.82 2719.43,-609.01 2709.32,-605.83 2709.54,-612.82"/>
</g>
<!-- 37&#45;&gt;33 -->
<g id="edge43" class="edge">
<title>37&#45;&gt;33</title>
<path fill="none" stroke="black" d="M1010.5,-659.51C1140.58,-649.4 1422.76,-627.48 1621.95,-612"/>
<polygon fill="black" stroke="black" points="1621.95,-615.51 1631.64,-611.25 1621.4,-608.53 1621.95,-615.51"/>
</g>
<!-- 37&#45;&gt;36 -->
<g id="edge44" class="edge">
<title>37&#45;&gt;36</title>
<path fill="none" stroke="black" d="M864.85,-663.3C721.17,-659.27 418.34,-646.71 386.8,-612 353.3,-575.13 379.7,-513.32 399.71,-477.97"/>
<polygon fill="black" stroke="black" points="402.56,-480.03 404.61,-469.63 396.53,-476.48 402.56,-480.03"/>
</g>
<!-- 40 -->
<g id="node41" class="node">
<title>40</title>
<ellipse fill="none" stroke="black" cx="184.8" cy="-594" rx="116.86" ry="18"/>
<text text-anchor="middle" x="184.8" y="-588.95" font-family="Times New Roman,serif" font-size="14.00">Jump to: [Untitled hub (07)]</text>
</g>
<!-- 37&#45;&gt;40 -->
<g id="edge45" class="edge">
<title>37&#45;&gt;40</title>
<path fill="none" stroke="black" d="M869.87,-658.9C759.97,-649.27 540.14,-629.8 353.8,-612 333.61,-610.07 312.08,-607.95 291.37,-605.89"/>
<polygon fill="black" stroke="black" points="291.78,-602.41 281.48,-604.89 291.08,-609.37 291.78,-602.41"/>
</g>
<!-- 38&#45;&gt;21 -->
<g id="edge49" class="edge">
<title>38&#45;&gt;21</title>
<path fill="none" stroke="black" d="M488.84,-801.61C559.37,-788.88 656.36,-771.38 729.86,-758.12"/>
<polygon fill="black" stroke="black" points="730.28,-761.6 739.5,-756.38 729.04,-754.71 730.28,-761.6"/>
</g>
<!-- 39&#45;&gt;34 -->
<g id="edge50" class="edge">
<title>39&#45;&gt;34</title>
<path fill="none" stroke="black" d="M2079.94,-803.73C2133.52,-799.58 2192.54,-795.3 2246.8,-792 2599.84,-770.51 3012.96,-753.87 3243.91,-745.33"/>
<polygon fill="black" stroke="black" points="3243.74,-748.84 3253.6,-744.98 3243.48,-741.85 3243.74,-748.84"/>
</g>
<!-- 40&#45;&gt;38 -->
<g id="edge51" class="edge">
<title>40&#45;&gt;38</title>
<path fill="none" stroke="black" d="M196.68,-612.03C218.42,-642.61 266.89,-708.09 315.8,-756 329.97,-769.88 347.16,-783.63 361.96,-794.67"/>
<polygon fill="black" stroke="black" points="359.47,-797.18 369.6,-800.28 363.61,-791.54 359.47,-797.18"/>
</g>
<!-- 41&#45;&gt;38 -->
<g id="edge52" class="edge">
<title>41&#45;&gt;38</title>
<path fill="none" stroke="black" d="M550.98,-21.77C385.25,-26.84 94.79,-40.19 58.8,-72 28.49,-98.78 39.8,-120.55 39.8,-161 39.8,-667 39.8,-667 39.8,-667 39.8,-744.22 111.6,-782.61 190.71,-801.48"/>
<polygon fill="black" stroke="black" points="189.91,-804.89 200.44,-803.68 191.45,-798.06 189.91,-804.89"/>
</g>
</g>
</svg>
