<?xml version="1.0" encoding="UTF-8" standalone="no"?>
<!DOCTYPE svg PUBLIC "-//W3C//DTD SVG 1.1//EN"
 "http://www.w3.org/Graphics/SVG/1.1/DTD/svg11.dtd">
<!-- Generated by graphviz version 12.2.1 (20241206.2353)
 -->
<!-- Title: G Pages: 1 -->
<svg width="4058pt" height="1215pt"
 viewBox="0.00 0.00 4057.69 1214.80" xmlns="http://www.w3.org/2000/svg" xmlns:xlink="http://www.w3.org/1999/xlink">
<g id="graph0" class="graph" transform="scale(1 1) rotate(0) translate(4 1210.8)">
<title>G</title>
<polygon fill="white" stroke="none" points="-4,4 -4,-1210.8 4053.69,-1210.8 4053.69,4 -4,4"/>
<!-- 0 -->
<g id="node1" class="node">
<title>0</title>
<ellipse fill="none" stroke="black" cx="2775.96" cy="-1188.8" rx="39.07" ry="18"/>
<text text-anchor="middle" x="2775.96" y="-1183.75" font-family="Times New Roman,serif" font-size="14.00">START</text>
</g>
<!-- 1 -->
<g id="node2" class="node">
<title>1</title>
<ellipse fill="none" stroke="black" cx="2775.96" cy="-1116.8" rx="29.86" ry="18"/>
<text text-anchor="middle" x="2775.96" y="-1111.75" font-family="Times New Roman,serif" font-size="14.00">input</text>
</g>
<!-- 0&#45;&gt;1 -->
<g id="edge1" class="edge">
<title>0&#45;&gt;1</title>
<path fill="none" stroke="black" d="M2775.96,-1170.5C2775.96,-1163.21 2775.96,-1154.53 2775.96,-1146.34"/>
<polygon fill="black" stroke="black" points="2779.46,-1146.42 2775.96,-1136.42 2772.46,-1146.42 2779.46,-1146.42"/>
</g>
<!-- 13 -->
<g id="node14" class="node">
<title>13</title>
<ellipse fill="none" stroke="black" cx="2775.96" cy="-1044.8" rx="196.7" ry="18"/>
<text text-anchor="middle" x="2775.96" y="-1039.75" font-family="Times New Roman,serif" font-size="14.00">Endurance: 你知道今天是什么日子吗？</text>
</g>
<!-- 1&#45;&gt;13 -->
<g id="edge2" class="edge">
<title>1&#45;&gt;13</title>
<path fill="none" stroke="black" d="M2775.96,-1098.5C2775.96,-1091.21 2775.96,-1082.53 2775.96,-1074.34"/>
<polygon fill="black" stroke="black" points="2779.46,-1074.42 2775.96,-1064.42 2772.46,-1074.42 2779.46,-1074.42"/>
</g>
<!-- 2 -->
<g id="node3" class="node">
<title>2</title>
<ellipse fill="none" stroke="black" cx="2375.96" cy="-810" rx="125.56" ry="18"/>
<text text-anchor="middle" x="2375.96" y="-804.95" font-family="Times New Roman,serif" font-size="14.00">You: 我的结婚纪念日？</text>
</g>
<!-- 18 -->
<g id="node19" class="node">
<title>18</title>
<ellipse fill="none" stroke="black" cx="2168.96" cy="-738" rx="343.08" ry="18"/>
<text text-anchor="middle" x="2168.96" y="-732.95" font-family="Times New Roman,serif" font-size="14.00">Endurance: 不，不管你信不信，这跟*她*无关。呃，也不完全是……</text>
</g>
<!-- 2&#45;&gt;18 -->
<g id="edge3" class="edge">
<title>2&#45;&gt;18</title>
<path fill="none" stroke="black" d="M2328.47,-792.94C2299.43,-783.12 2261.97,-770.45 2230.65,-759.86"/>
<polygon fill="black" stroke="black" points="2231.88,-756.58 2221.28,-756.69 2229.64,-763.21 2231.88,-756.58"/>
</g>
<!-- 3 -->
<g id="node4" class="node">
<title>3</title>
<ellipse fill="none" stroke="black" cx="2168.96" cy="-594" rx="156.78" ry="18"/>
<text text-anchor="middle" x="2168.96" y="-588.95" font-family="Times New Roman,serif" font-size="14.00">You: 现实……（看看周围。）</text>
</g>
<!-- 7 -->
<g id="node8" class="node">
<title>7</title>
<ellipse fill="none" stroke="black" cx="2168.96" cy="-522" rx="687.02" ry="18"/>
<text text-anchor="middle" x="2168.96" y="-516.95" font-family="Times New Roman,serif" font-size="14.00">Endurance: 是的，虽然还有精神上那片迷雾，但你已经开始渐渐看清这个世界的样子，而且还有你自己——你让自己变成了什么样子。</text>
</g>
<!-- 3&#45;&gt;7 -->
<g id="edge4" class="edge">
<title>3&#45;&gt;7</title>
<path fill="none" stroke="black" d="M2168.96,-575.7C2168.96,-568.41 2168.96,-559.73 2168.96,-551.54"/>
<polygon fill="black" stroke="black" points="2172.46,-551.62 2168.96,-541.62 2165.46,-551.62 2172.46,-551.62"/>
</g>
<!-- 4 -->
<g id="node5" class="node">
<title>4</title>
<ellipse fill="none" stroke="black" cx="1036.96" cy="-234" rx="217.18" ry="18"/>
<text text-anchor="middle" x="1036.96" y="-228.95" font-family="Times New Roman,serif" font-size="14.00">You: 什么？！我已经戒酒*超过两天*了！</text>
</g>
<!-- 31 -->
<g id="node32" class="node">
<title>31</title>
<ellipse fill="none" stroke="black" cx="1036.96" cy="-162" rx="75.41" ry="18"/>
<text text-anchor="middle" x="1036.96" y="-156.95" font-family="Times New Roman,serif" font-size="14.00">Untitled hub (02)</text>
</g>
<!-- 4&#45;&gt;31 -->
<g id="edge5" class="edge">
<title>4&#45;&gt;31</title>
<path fill="none" stroke="black" d="M1036.96,-215.7C1036.96,-208.41 1036.96,-199.73 1036.96,-191.54"/>
<polygon fill="black" stroke="black" points="1040.46,-191.62 1036.96,-181.62 1033.46,-191.62 1040.46,-191.62"/>
</g>
<!-- 5 -->
<g id="node6" class="node">
<title>5</title>
<ellipse fill="none" stroke="black" cx="1984.96" cy="-378" rx="192.1" ry="18"/>
<text text-anchor="middle" x="1984.96" y="-372.95" font-family="Times New Roman,serif" font-size="14.00">You: 我还不知道自己有什么感觉……</text>
</g>
<!-- 12 -->
<g id="node13" class="node">
<title>12</title>
<ellipse fill="none" stroke="black" cx="2404.96" cy="-306" rx="741.78" ry="18"/>
<text text-anchor="middle" x="2404.96" y="-300.95" font-family="Times New Roman,serif" font-size="14.00">Endurance: 在接下来的一个月，你会感觉到各种矛盾又困惑的事情。但是不要灰心——你只要继续坚持，向左前方迈一步，再向右前方迈一步……</text>
</g>
<!-- 5&#45;&gt;12 -->
<g id="edge6" class="edge">
<title>5&#45;&gt;12</title>
<path fill="none" stroke="black" d="M2076.36,-361.77C2139.1,-351.31 2222.87,-337.35 2290.13,-326.14"/>
<polygon fill="black" stroke="black" points="2290.42,-329.64 2299.71,-324.54 2289.27,-322.73 2290.42,-329.64"/>
</g>
<!-- 6 -->
<g id="node7" class="node">
<title>6</title>
<ellipse fill="none" stroke="black" cx="2608.96" cy="-738" rx="78.48" ry="18"/>
<text text-anchor="middle" x="2608.96" y="-732.95" font-family="Times New Roman,serif" font-size="14.00">You: 我放弃。</text>
</g>
<!-- 30 -->
<g id="node31" class="node">
<title>30</title>
<ellipse fill="none" stroke="black" cx="2168.96" cy="-666" rx="467.45" ry="18"/>
<text text-anchor="middle" x="2168.96" y="-660.95" font-family="Times New Roman,serif" font-size="14.00">Endurance: 要让那些垃圾从你的身体系统里出去，然后让现实变得清晰，还需要一段时间。</text>
</g>
<!-- 6&#45;&gt;30 -->
<g id="edge7" class="edge">
<title>6&#45;&gt;30</title>
<path fill="none" stroke="black" d="M2551.28,-725.5C2541.19,-723.59 2530.78,-721.69 2520.96,-720 2448.27,-707.51 2366.86,-695.15 2300.65,-685.51"/>
<polygon fill="black" stroke="black" points="2301.21,-682.05 2290.81,-684.08 2300.2,-688.98 2301.21,-682.05"/>
</g>
<!-- 17 -->
<g id="node18" class="node">
<title>17</title>
<ellipse fill="none" stroke="black" cx="1757.96" cy="-450" rx="75.41" ry="18"/>
<text text-anchor="middle" x="1757.96" y="-444.95" font-family="Times New Roman,serif" font-size="14.00">Untitled hub (03)</text>
</g>
<!-- 7&#45;&gt;17 -->
<g id="edge8" class="edge">
<title>7&#45;&gt;17</title>
<path fill="none" stroke="black" d="M2067.63,-503.74C1993.59,-491.13 1895.03,-474.34 1829.18,-463.13"/>
<polygon fill="black" stroke="black" points="1830.03,-459.72 1819.59,-461.5 1828.86,-466.62 1830.03,-459.72"/>
</g>
<!-- 8 -->
<g id="node9" class="node">
<title>8</title>
<ellipse fill="none" stroke="black" cx="1110.96" cy="-306" rx="533.99" ry="18"/>
<text text-anchor="middle" x="1110.96" y="-300.95" font-family="Times New Roman,serif" font-size="14.00">Endurance: 别太兴奋。你离清醒还有好几个月呢——艰苦，困惑，很情绪化的几个月。我们要不要继续？</text>
</g>
<!-- 32 -->
<g id="node33" class="node">
<title>32</title>
<ellipse fill="none" stroke="black" cx="2789.96" cy="-234" rx="314.42" ry="18"/>
<text text-anchor="middle" x="2789.96" y="-228.95" font-family="Times New Roman,serif" font-size="14.00">Endurance: 当然。已经过去太久，你很久没有过这种感觉了。</text>
</g>
<!-- 8&#45;&gt;32 -->
<g id="edge9" class="edge">
<title>8&#45;&gt;32</title>
<path fill="none" stroke="black" d="M1437.68,-291.38C1756.86,-278.07 2236.34,-258.08 2530.32,-245.82"/>
<polygon fill="black" stroke="black" points="2530.21,-249.33 2540.06,-245.42 2529.92,-242.34 2530.21,-249.33"/>
</g>
<!-- 9 -->
<g id="node10" class="node">
<title>9</title>
<ellipse fill="none" stroke="black" cx="2094.96" cy="-972.8" rx="54.93" ry="18"/>
<text text-anchor="middle" x="2094.96" y="-967.75" font-family="Times New Roman,serif" font-size="14.00">You: 哈？</text>
</g>
<!-- 33 -->
<g id="node34" class="node">
<title>33</title>
<ellipse fill="none" stroke="black" cx="1576.96" cy="-891.4" rx="769.42" ry="18"/>
<text text-anchor="middle" x="1576.96" y="-886.35" font-family="Times New Roman,serif" font-size="14.00">Endurance: ……我们会一起走过现实的荒原。因为就算你没有喝完最后一杯酒，或者说出最后一句话，你永远也无法再真正的、真实地感觉到享受了。</text>
</g>
<!-- 9&#45;&gt;33 -->
<g id="edge10" class="edge">
<title>9&#45;&gt;33</title>
<path fill="none" stroke="black" d="M2046.23,-964.33C1967.89,-952.32 1811.52,-928.35 1700.86,-911.39"/>
<polygon fill="black" stroke="black" points="1701.54,-907.95 1691.12,-909.9 1700.48,-914.87 1701.54,-907.95"/>
</g>
<!-- 10 -->
<g id="node11" class="node">
<title>10</title>
<ellipse fill="none" stroke="black" cx="2775.96" cy="-891.4" rx="411.18" ry="27.4"/>
<text text-anchor="middle" x="2775.96" y="-893.48" font-family="Times New Roman,serif" font-size="14.00">Endurance: 不对。呃，可能是，但是没有警徽，所以你怎么知道？再猜一次。</text>
<text text-anchor="middle" x="2775.96" y="-876.98" font-family="Times New Roman,serif" font-size="14.00">不对。看看你的警徽。是你的生日吗？不，不是的。再猜一次。</text>
</g>
<!-- 10&#45;&gt;2 -->
<g id="edge11" class="edge">
<title>10&#45;&gt;2</title>
<path fill="none" stroke="black" d="M2647.48,-864.9C2585.5,-852.59 2512.96,-838.19 2458.47,-827.38"/>
<polygon fill="black" stroke="black" points="2459.44,-824 2448.95,-825.49 2458.08,-830.87 2459.44,-824"/>
</g>
<!-- 10&#45;&gt;6 -->
<g id="edge13" class="edge">
<title>10&#45;&gt;6</title>
<path fill="none" stroke="black" d="M2746.49,-863.68C2715.13,-835.25 2665.95,-790.66 2635.68,-763.22"/>
<polygon fill="black" stroke="black" points="2638.18,-760.77 2628.42,-756.64 2633.48,-765.95 2638.18,-760.77"/>
</g>
<!-- 14 -->
<g id="node15" class="node">
<title>14</title>
<ellipse fill="none" stroke="black" cx="2930.96" cy="-810" rx="113.79" ry="18"/>
<text text-anchor="middle" x="2930.96" y="-804.95" font-family="Times New Roman,serif" font-size="14.00">You: 我破案的日子？</text>
</g>
<!-- 10&#45;&gt;14 -->
<g id="edge12" class="edge">
<title>10&#45;&gt;14</title>
<path fill="none" stroke="black" d="M2828.01,-863.74C2847.75,-853.63 2869.96,-842.25 2888.69,-832.65"/>
<polygon fill="black" stroke="black" points="2890.05,-835.89 2897.36,-828.22 2886.86,-829.66 2890.05,-835.89"/>
</g>
<!-- 11 -->
<g id="node12" class="node">
<title>11</title>
<ellipse fill="none" stroke="black" cx="3656.96" cy="-594" rx="392.73" ry="18"/>
<text text-anchor="middle" x="3656.96" y="-588.95" font-family="Times New Roman,serif" font-size="14.00">Endurance: 你已经证明自己可以成功脱瘾两天，肯定还能再忍耐地久一点……</text>
</g>
<!-- 11&#45;&gt;32 -->
<g id="edge14" class="edge">
<title>11&#45;&gt;32</title>
<path fill="none" stroke="black" d="M3567.16,-576.06C3501.17,-557.8 3422.96,-521.33 3422.96,-451 3422.96,-451 3422.96,-451 3422.96,-377 3422.96,-296.16 3223.94,-261.33 3049.09,-246.33"/>
<polygon fill="black" stroke="black" points="3049.64,-242.87 3039.38,-245.52 3049.05,-249.84 3049.64,-242.87"/>
</g>
<!-- 12&#45;&gt;32 -->
<g id="edge15" class="edge">
<title>12&#45;&gt;32</title>
<path fill="none" stroke="black" d="M2500.13,-287.7C2556.93,-277.37 2629.06,-264.25 2687.16,-253.69"/>
<polygon fill="black" stroke="black" points="2687.51,-257.19 2696.72,-251.95 2686.26,-250.3 2687.51,-257.19"/>
</g>
<!-- 13&#45;&gt;9 -->
<g id="edge16" class="edge">
<title>13&#45;&gt;9</title>
<path fill="none" stroke="black" d="M2648.67,-1030.72C2502.73,-1015.72 2269.36,-991.73 2158.03,-980.28"/>
<polygon fill="black" stroke="black" points="2158.49,-976.81 2148.19,-979.27 2157.77,-983.78 2158.49,-976.81"/>
</g>
<!-- 28 -->
<g id="node29" class="node">
<title>28</title>
<ellipse fill="none" stroke="black" cx="2775.96" cy="-972.8" rx="90.25" ry="18"/>
<text text-anchor="middle" x="2775.96" y="-967.75" font-family="Times New Roman,serif" font-size="14.00">You: 我的生日？</text>
</g>
<!-- 13&#45;&gt;28 -->
<g id="edge17" class="edge">
<title>13&#45;&gt;28</title>
<path fill="none" stroke="black" d="M2775.96,-1026.5C2775.96,-1019.21 2775.96,-1010.53 2775.96,-1002.34"/>
<polygon fill="black" stroke="black" points="2779.46,-1002.42 2775.96,-992.42 2772.46,-1002.42 2779.46,-1002.42"/>
</g>
<!-- 29 -->
<g id="node30" class="node">
<title>29</title>
<ellipse fill="none" stroke="black" cx="3258.96" cy="-972.8" rx="161.39" ry="18"/>
<text text-anchor="middle" x="3258.96" y="-967.75" font-family="Times New Roman,serif" font-size="14.00">Endurance: 是你戒酒的第一天。</text>
</g>
<!-- 13&#45;&gt;29 -->
<g id="edge18" class="edge">
<title>13&#45;&gt;29</title>
<path fill="none" stroke="black" d="M2878.1,-1029C2958.48,-1017.35 3070.17,-1001.16 3151.82,-989.33"/>
<polygon fill="black" stroke="black" points="3152.24,-992.8 3161.63,-987.91 3151.24,-985.88 3152.24,-992.8"/>
</g>
<!-- 23 -->
<g id="node24" class="node">
<title>23</title>
<ellipse fill="none" stroke="black" cx="3189.96" cy="-738" rx="484.34" ry="18"/>
<text text-anchor="middle" x="3189.96" y="-732.95" font-family="Times New Roman,serif" font-size="14.00">Endurance: 不，没有。你现在已经完全脱瘾了。*现实*开始变得清晰——你看看周围就知道了。</text>
</g>
<!-- 14&#45;&gt;23 -->
<g id="edge19" class="edge">
<title>14&#45;&gt;23</title>
<path fill="none" stroke="black" d="M2986.84,-793.9C3024.3,-783.77 3074.07,-770.32 3114.97,-759.27"/>
<polygon fill="black" stroke="black" points="3115.78,-762.68 3124.52,-756.69 3113.95,-755.92 3115.78,-762.68"/>
</g>
<!-- 15 -->
<g id="node16" class="node">
<title>15</title>
<ellipse fill="none" stroke="black" cx="501.96" cy="-234" rx="299.58" ry="18"/>
<text text-anchor="middle" x="501.96" y="-228.95" font-family="Times New Roman,serif" font-size="14.00">You: 我怎么会让这种事情发生？我需要*立即*兴奋起来。</text>
</g>
<!-- 24 -->
<g id="node25" class="node">
<title>24</title>
<ellipse fill="none" stroke="black" cx="337.96" cy="-162" rx="337.96" ry="18"/>
<text text-anchor="middle" x="337.96" y="-156.95" font-family="Times New Roman,serif" font-size="14.00">Endurance: 不，不是。已经过去太久，你很久没有过这种感觉了。</text>
</g>
<!-- 15&#45;&gt;24 -->
<g id="edge20" class="edge">
<title>15&#45;&gt;24</title>
<path fill="none" stroke="black" d="M461.42,-215.7C439.54,-206.36 412.32,-194.74 389.01,-184.79"/>
<polygon fill="black" stroke="black" points="390.57,-181.65 380,-180.94 387.82,-188.09 390.57,-181.65"/>
</g>
<!-- 16 -->
<g id="node17" class="node">
<title>16</title>
<ellipse fill="none" stroke="black" cx="3201.96" cy="-666" rx="286.27" ry="18"/>
<text text-anchor="middle" x="3201.96" y="-660.95" font-family="Times New Roman,serif" font-size="14.00">You: 现实……（用你清醒的双眼研究着周围的一切。）</text>
</g>
<!-- 16&#45;&gt;7 -->
<g id="edge21" class="edge">
<title>16&#45;&gt;7</title>
<path fill="none" stroke="black" d="M3086.47,-649.12C2894.29,-622.71 2509.77,-569.85 2304.85,-541.68"/>
<polygon fill="black" stroke="black" points="2305.61,-538.25 2295.23,-540.36 2304.66,-545.19 2305.61,-538.25"/>
</g>
<!-- 17&#45;&gt;5 -->
<g id="edge24" class="edge">
<title>17&#45;&gt;5</title>
<path fill="none" stroke="black" d="M1802.81,-435.17C1836.33,-424.83 1882.64,-410.55 1920.17,-398.98"/>
<polygon fill="black" stroke="black" points="1921.04,-402.37 1929.57,-396.08 1918.98,-395.69 1921.04,-402.37"/>
</g>
<!-- 19 -->
<g id="node20" class="node">
<title>19</title>
<ellipse fill="none" stroke="black" cx="1320.96" cy="-378" rx="243.28" ry="18"/>
<text text-anchor="middle" x="1320.96" y="-372.95" font-family="Times New Roman,serif" font-size="14.00">You: 哦，我真是想死这种清晰透明的感觉了！</text>
</g>
<!-- 17&#45;&gt;19 -->
<g id="edge23" class="edge">
<title>17&#45;&gt;19</title>
<path fill="none" stroke="black" d="M1696.74,-439.19C1628.06,-428.19 1515.28,-410.13 1431.17,-396.65"/>
<polygon fill="black" stroke="black" points="1431.94,-393.23 1421.51,-395.11 1430.83,-400.14 1431.94,-393.23"/>
</g>
<!-- 27 -->
<g id="node28" class="node">
<title>27</title>
<ellipse fill="none" stroke="black" cx="827.96" cy="-378" rx="116.86" ry="18"/>
<text text-anchor="middle" x="827.96" y="-372.95" font-family="Times New Roman,serif" font-size="14.00">You: （撒谎。)知道。</text>
</g>
<!-- 17&#45;&gt;27 -->
<g id="edge22" class="edge">
<title>17&#45;&gt;27</title>
<path fill="none" stroke="black" d="M1686.92,-443.65C1526.95,-431.61 1137.32,-402.28 942.63,-387.63"/>
<polygon fill="black" stroke="black" points="942.98,-384.15 932.74,-386.89 942.45,-391.13 942.98,-384.15"/>
</g>
<!-- 18&#45;&gt;30 -->
<g id="edge25" class="edge">
<title>18&#45;&gt;30</title>
<path fill="none" stroke="black" d="M2168.96,-719.7C2168.96,-712.41 2168.96,-703.73 2168.96,-695.54"/>
<polygon fill="black" stroke="black" points="2172.46,-695.62 2168.96,-685.62 2165.46,-695.62 2172.46,-695.62"/>
</g>
<!-- 19&#45;&gt;8 -->
<g id="edge26" class="edge">
<title>19&#45;&gt;8</title>
<path fill="none" stroke="black" d="M1269.86,-359.97C1240.86,-350.3 1204.34,-338.13 1173.63,-327.89"/>
<polygon fill="black" stroke="black" points="1175.06,-324.68 1164.46,-324.83 1172.84,-331.32 1175.06,-324.68"/>
</g>
<!-- 20 -->
<g id="node21" class="node">
<title>20</title>
<ellipse fill="none" stroke="black" cx="666.96" cy="-90" rx="388.12" ry="18"/>
<text text-anchor="middle" x="666.96" y="-84.95" font-family="Times New Roman,serif" font-size="14.00">You: 不，我受不了这个，我不做了。我*现在*就去找点酒喝。[放弃思维。]</text>
</g>
<!-- 21 -->
<g id="node22" class="node">
<title>21</title>
<ellipse fill="none" stroke="black" cx="1405.96" cy="-90" rx="333.36" ry="18"/>
<text text-anchor="middle" x="1405.96" y="-84.95" font-family="Times New Roman,serif" font-size="14.00">You: 我已经受够之前的生活了。一步接着一步，我会继续的……</text>
</g>
<!-- 34 -->
<g id="node35" class="node">
<title>34</title>
<ellipse fill="none" stroke="black" cx="1405.96" cy="-18" rx="27" ry="18"/>
<text text-anchor="middle" x="1405.96" y="-12.95" font-family="Times New Roman,serif" font-size="14.00">34</text>
</g>
<!-- 21&#45;&gt;34 -->
<g id="edge27" class="edge">
<title>21&#45;&gt;34</title>
<path fill="none" stroke="black" d="M1405.96,-71.7C1405.96,-64.41 1405.96,-55.73 1405.96,-47.54"/>
<polygon fill="black" stroke="black" points="1409.46,-47.62 1405.96,-37.62 1402.46,-47.62 1409.46,-47.62"/>
</g>
<!-- 22 -->
<g id="node23" class="node">
<title>22</title>
<ellipse fill="none" stroke="black" cx="1483.96" cy="-738" rx="323.63" ry="18"/>
<text text-anchor="middle" x="1483.96" y="-732.95" font-family="Times New Roman,serif" font-size="14.00">Endurance: 希望如此吧。你似乎开始*有可能*会解决这个案子。</text>
</g>
<!-- 22&#45;&gt;30 -->
<g id="edge28" class="edge">
<title>22&#45;&gt;30</title>
<path fill="none" stroke="black" d="M1634.29,-721.64C1741.47,-710.69 1885.78,-695.94 1997.46,-684.53"/>
<polygon fill="black" stroke="black" points="1997.75,-688.01 2007.34,-683.52 1997.04,-681.05 1997.75,-688.01"/>
</g>
<!-- 23&#45;&gt;16 -->
<g id="edge29" class="edge">
<title>23&#45;&gt;16</title>
<path fill="none" stroke="black" d="M3192.93,-719.7C3194.19,-712.32 3195.7,-703.52 3197.12,-695.25"/>
<polygon fill="black" stroke="black" points="3200.54,-696.04 3198.78,-685.6 3193.64,-694.86 3200.54,-696.04"/>
</g>
<!-- 24&#45;&gt;30 -->
<g id="edge30" class="edge">
<title>24&#45;&gt;30</title>
<path fill="none" stroke="black" d="M249.17,-179.75C228.17,-187.59 207.64,-199.11 192.96,-216 166.44,-246.53 173.96,-264.55 173.96,-305 173.96,-523 173.96,-523 173.96,-523 173.96,-601.78 1176.73,-640.23 1760.4,-655.94"/>
<polygon fill="black" stroke="black" points="1759.93,-659.42 1770.02,-656.19 1760.12,-652.43 1759.93,-659.42"/>
</g>
<!-- 25 -->
<g id="node26" class="node">
<title>25</title>
<ellipse fill="none" stroke="black" cx="501.96" cy="-306" rx="57.49" ry="18"/>
<text text-anchor="middle" x="501.96" y="-300.95" font-family="Times New Roman,serif" font-size="14.00">Untitled hub</text>
</g>
<!-- 25&#45;&gt;4 -->
<g id="edge31" class="edge">
<title>25&#45;&gt;4</title>
<path fill="none" stroke="black" d="M543.67,-293.32C551.69,-291.34 560.05,-289.46 567.96,-288 667.85,-269.59 780.95,-256.58 871.06,-248.06"/>
<polygon fill="black" stroke="black" points="871.36,-251.55 880.99,-247.13 870.71,-244.58 871.36,-251.55"/>
</g>
<!-- 25&#45;&gt;15 -->
<g id="edge32" class="edge">
<title>25&#45;&gt;15</title>
<path fill="none" stroke="black" d="M501.96,-287.7C501.96,-280.41 501.96,-271.73 501.96,-263.54"/>
<polygon fill="black" stroke="black" points="505.46,-263.62 501.96,-253.62 498.46,-263.62 505.46,-263.62"/>
</g>
<!-- 26 -->
<g id="node27" class="node">
<title>26</title>
<ellipse fill="none" stroke="black" cx="3598.96" cy="-891.4" rx="266.82" ry="18"/>
<text text-anchor="middle" x="3598.96" y="-886.35" font-family="Times New Roman,serif" font-size="14.00">You: 一切都很可怕。我要从这趟清醒列车上下去。</text>
</g>
<!-- 26&#45;&gt;11 -->
<g id="edge33" class="edge">
<title>26&#45;&gt;11</title>
<path fill="none" stroke="black" d="M3614.19,-873.28C3634.52,-849.14 3669.54,-802.82 3682.96,-756 3696.09,-710.23 3680.75,-655.12 3668.68,-622.69"/>
<polygon fill="black" stroke="black" points="3672.04,-621.67 3665.15,-613.62 3665.52,-624.21 3672.04,-621.67"/>
</g>
<!-- 27&#45;&gt;25 -->
<g id="edge34" class="edge">
<title>27&#45;&gt;25</title>
<path fill="none" stroke="black" d="M756.3,-363.41C703.96,-353.24 631.37,-338.62 567.96,-324 563.98,-323.08 559.87,-322.1 555.75,-321.09"/>
<polygon fill="black" stroke="black" points="556.86,-317.77 546.31,-318.75 555.17,-324.56 556.86,-317.77"/>
</g>
<!-- 28&#45;&gt;10 -->
<g id="edge35" class="edge">
<title>28&#45;&gt;10</title>
<path fill="none" stroke="black" d="M2775.96,-954.57C2775.96,-947.49 2775.96,-938.97 2775.96,-930.56"/>
<polygon fill="black" stroke="black" points="2779.46,-930.79 2775.96,-920.79 2772.46,-930.79 2779.46,-930.79"/>
</g>
<!-- 29&#45;&gt;26 -->
<g id="edge36" class="edge">
<title>29&#45;&gt;26</title>
<path fill="none" stroke="black" d="M3326.54,-956.02C3381.03,-943.29 3457.9,-925.34 3516.1,-911.75"/>
<polygon fill="black" stroke="black" points="3516.69,-915.21 3525.64,-909.52 3515.1,-908.39 3516.69,-915.21"/>
</g>
<!-- 30&#45;&gt;3 -->
<g id="edge37" class="edge">
<title>30&#45;&gt;3</title>
<path fill="none" stroke="black" d="M2168.96,-647.7C2168.96,-640.41 2168.96,-631.73 2168.96,-623.54"/>
<polygon fill="black" stroke="black" points="2172.46,-623.62 2168.96,-613.62 2165.46,-623.62 2172.46,-623.62"/>
</g>
<!-- 31&#45;&gt;20 -->
<g id="edge38" class="edge">
<title>31&#45;&gt;20</title>
<path fill="none" stroke="black" d="M979.15,-150.06C922.74,-139.39 835.75,-122.93 767.91,-110.1"/>
<polygon fill="black" stroke="black" points="768.73,-106.69 758.25,-108.27 767.43,-113.57 768.73,-106.69"/>
</g>
<!-- 31&#45;&gt;21 -->
<g id="edge39" class="edge">
<title>31&#45;&gt;21</title>
<path fill="none" stroke="black" d="M1094.62,-150.06C1151.17,-139.34 1238.52,-122.76 1306.33,-109.9"/>
<polygon fill="black" stroke="black" points="1306.8,-113.37 1315.97,-108.07 1305.5,-106.5 1306.8,-113.37"/>
</g>
<!-- 32&#45;&gt;30 -->
<g id="edge40" class="edge">
<title>32&#45;&gt;30</title>
<path fill="none" stroke="black" d="M3016.23,-246.86C3077.85,-254.56 3133.75,-267.22 3155.96,-288 3185.5,-315.63 3174.96,-336.55 3174.96,-377 3174.96,-523 3174.96,-523 3174.96,-523 3174.96,-594.86 2767.29,-632.78 2470.98,-650.84"/>
<polygon fill="black" stroke="black" points="2470.88,-647.34 2461.11,-651.44 2471.31,-654.33 2470.88,-647.34"/>
</g>
</g>
</svg>
