<?xml version="1.0" encoding="UTF-8" standalone="no"?>
<!DOCTYPE svg PUBLIC "-//W3C//DTD SVG 1.1//EN"
 "http://www.w3.org/Graphics/SVG/1.1/DTD/svg11.dtd">
<!-- Generated by graphviz version 12.2.1 (20241206.2353)
 -->
<!-- Title: G Pages: 1 -->
<svg width="5283pt" height="764pt"
 viewBox="0.00 0.00 5283.31 764.00" xmlns="http://www.w3.org/2000/svg" xmlns:xlink="http://www.w3.org/1999/xlink">
<g id="graph0" class="graph" transform="scale(1 1) rotate(0) translate(4 760)">
<title>G</title>
<polygon fill="white" stroke="none" points="-4,4 -4,-760 5279.31,-760 5279.31,4 -4,4"/>
<!-- 0 -->
<g id="node1" class="node">
<title>0</title>
<ellipse fill="none" stroke="black" cx="2920.88" cy="-738" rx="39.07" ry="18"/>
<text text-anchor="middle" x="2920.88" y="-732.95" font-family="Times New Roman,serif" font-size="14.00">START</text>
</g>
<!-- 0&#45;&gt;0 -->
<g id="edge1" class="edge">
<title>0&#45;&gt;0</title>
<path fill="none" stroke="black" d="M2949.07,-750.94C2964.18,-753.14 2977.95,-748.83 2977.95,-738 2977.95,-729.96 2970.36,-725.52 2960.27,-724.65"/>
<polygon fill="black" stroke="black" points="2960.45,-721.15 2950.58,-725 2960.7,-728.14 2960.45,-721.15"/>
</g>
<!-- 1 -->
<g id="node2" class="node">
<title>1</title>
<ellipse fill="none" stroke="black" cx="3150.88" cy="-594" rx="29.86" ry="18"/>
<text text-anchor="middle" x="3150.88" y="-588.95" font-family="Times New Roman,serif" font-size="14.00">input</text>
</g>
<!-- 26 -->
<g id="node27" class="node">
<title>26</title>
<ellipse fill="none" stroke="black" cx="3150.88" cy="-522" rx="400.4" ry="18"/>
<text text-anchor="middle" x="3150.88" y="-516.95" font-family="Times New Roman,serif" font-size="14.00">Composure: 听见了吗？镁。那是你缺少的东西。缺少镁会让你变得没精打采。</text>
</g>
<!-- 1&#45;&gt;26 -->
<g id="edge2" class="edge">
<title>1&#45;&gt;26</title>
<path fill="none" stroke="black" d="M3150.88,-575.7C3150.88,-568.41 3150.88,-559.73 3150.88,-551.54"/>
<polygon fill="black" stroke="black" points="3154.38,-551.62 3150.88,-541.62 3147.38,-551.62 3154.38,-551.62"/>
</g>
<!-- 2 -->
<g id="node3" class="node">
<title>2</title>
<ellipse fill="none" stroke="black" cx="4356.88" cy="-162" rx="350.25" ry="18"/>
<text text-anchor="middle" x="4356.88" y="-156.95" font-family="Times New Roman,serif" font-size="14.00">Electrochemistry: 也不是吡嚯浣酮，那个甜美又迷人的精神辐射药品。</text>
</g>
<!-- 4 -->
<g id="node5" class="node">
<title>4</title>
<ellipse fill="none" stroke="black" cx="4656.88" cy="-90" rx="244.3" ry="18"/>
<text text-anchor="middle" x="4656.88" y="-84.95" font-family="Times New Roman,serif" font-size="14.00">Electrochemistry: 而且肯定也不是右旋安非他命。</text>
</g>
<!-- 2&#45;&gt;4 -->
<g id="edge3" class="edge">
<title>2&#45;&gt;4</title>
<path fill="none" stroke="black" d="M4429.88,-143.97C4473.54,-133.78 4529.15,-120.8 4574.39,-110.25"/>
<polygon fill="black" stroke="black" points="4574.95,-113.71 4583.89,-108.03 4573.35,-106.89 4574.95,-113.71"/>
</g>
<!-- 3 -->
<g id="node4" class="node">
<title>3</title>
<ellipse fill="none" stroke="black" cx="2786.88" cy="-306" rx="160.88" ry="18"/>
<text text-anchor="middle" x="2786.88" y="-300.95" font-family="Times New Roman,serif" font-size="14.00">You: 所以我的身体里缺镁吗？</text>
</g>
<!-- 10 -->
<g id="node11" class="node">
<title>10</title>
<ellipse fill="none" stroke="black" cx="2758.88" cy="-234" rx="664.5" ry="18"/>
<text text-anchor="middle" x="2758.88" y="-228.95" font-family="Times New Roman,serif" font-size="14.00">Composure: 你真的*太需要*多镁一点了！你很可能已经心脏病发两次，还有一次轻度中风……唯一的处方就是加入疯狂剂量的镁。</text>
</g>
<!-- 3&#45;&gt;10 -->
<g id="edge4" class="edge">
<title>3&#45;&gt;10</title>
<path fill="none" stroke="black" d="M2779.96,-287.7C2776.94,-280.15 2773.33,-271.12 2769.95,-262.68"/>
<polygon fill="black" stroke="black" points="2773.25,-261.49 2766.28,-253.51 2766.75,-264.09 2773.25,-261.49"/>
</g>
<!-- 5 -->
<g id="node6" class="node">
<title>5</title>
<ellipse fill="none" stroke="black" cx="4656.88" cy="-18" rx="618.43" ry="18"/>
<text text-anchor="middle" x="4656.88" y="-12.95" font-family="Times New Roman,serif" font-size="14.00">Electrochemistry: 也不是抽了40年的烟。就是缺镁。还有过量饮用咖啡。你不能再喝咖啡了。它会严重破坏你的消化系统。</text>
</g>
<!-- 4&#45;&gt;5 -->
<g id="edge5" class="edge">
<title>4&#45;&gt;5</title>
<path fill="none" stroke="black" d="M4656.88,-71.7C4656.88,-64.41 4656.88,-55.73 4656.88,-47.54"/>
<polygon fill="black" stroke="black" points="4660.38,-47.62 4656.88,-37.62 4653.38,-47.62 4660.38,-47.62"/>
</g>
<!-- 6 -->
<g id="node7" class="node">
<title>6</title>
<ellipse fill="none" stroke="black" cx="3150.88" cy="-738" rx="155.25" ry="18"/>
<text text-anchor="middle" x="3150.88" y="-732.95" font-family="Times New Roman,serif" font-size="14.00">Variable[&quot;character.habit_pyrholidon&quot;]</text>
</g>
<!-- 6&#45;&gt;6 -->
<g id="edge6" class="edge">
<title>6&#45;&gt;6</title>
<path fill="none" stroke="black" d="M3257.04,-751.49C3294.11,-751.67 3324.13,-747.18 3324.13,-738 3324.13,-729.79 3300.11,-725.33 3268.5,-724.6"/>
<polygon fill="black" stroke="black" points="3268.58,-721.11 3258.55,-724.52 3268.52,-728.1 3268.58,-721.11"/>
</g>
<!-- 7 -->
<g id="node8" class="node">
<title>7</title>
<polygon fill="none" stroke="black" points="3150.88,-684 2931.32,-666 3150.88,-648 3370.43,-666 3150.88,-684"/>
<text text-anchor="middle" x="3150.88" y="-660.95" font-family="Times New Roman,serif" font-size="14.00">Variable[&quot;character.habit_pyrholidon&quot;]</text>
</g>
<!-- 6&#45;&gt;7 -->
<g id="edge7" class="edge">
<title>6&#45;&gt;7</title>
<path fill="none" stroke="black" d="M3150.88,-719.7C3150.88,-712.41 3150.88,-703.73 3150.88,-695.54"/>
<polygon fill="black" stroke="black" points="3154.38,-695.62 3150.88,-685.62 3147.38,-695.62 3154.38,-695.62"/>
</g>
<!-- 7&#45;&gt;1 -->
<g id="edge8" class="edge">
<title>7&#45;&gt;1</title>
<path fill="none" stroke="black" d="M3150.88,-647.7C3150.88,-640.41 3150.88,-631.73 3150.88,-623.54"/>
<polygon fill="black" stroke="black" points="3154.38,-623.62 3150.88,-613.62 3147.38,-623.62 3154.38,-623.62"/>
</g>
<!-- 8 -->
<g id="node9" class="node">
<title>8</title>
<polygon fill="none" stroke="black" points="4957.88,-180 4725.29,-162 4957.88,-144 5190.46,-162 4957.88,-180"/>
<text text-anchor="middle" x="4957.88" y="-156.95" font-family="Times New Roman,serif" font-size="14.00">!(Variable[&quot;character.habit_pyrholidon&quot;])</text>
</g>
<!-- 8&#45;&gt;4 -->
<g id="edge9" class="edge">
<title>8&#45;&gt;4</title>
<path fill="none" stroke="black" d="M4901.62,-147.92C4856.04,-137.32 4791.17,-122.23 4739.67,-110.25"/>
<polygon fill="black" stroke="black" points="4740.57,-106.87 4730.03,-108.01 4738.98,-113.69 4740.57,-106.87"/>
</g>
<!-- 9 -->
<g id="node10" class="node">
<title>9</title>
<ellipse fill="none" stroke="black" cx="3797.88" cy="-306" rx="298.04" ry="18"/>
<text text-anchor="middle" x="3797.88" y="-300.95" font-family="Times New Roman,serif" font-size="14.00">You: 我他妈当然知道不是酒精……或者其他什么东西了。</text>
</g>
<!-- 24 -->
<g id="node25" class="node">
<title>24</title>
<ellipse fill="none" stroke="black" cx="3826.88" cy="-234" rx="385.56" ry="18"/>
<text text-anchor="middle" x="3826.88" y="-228.95" font-family="Times New Roman,serif" font-size="14.00">Electrochemistry: 是啊，其他东西！其他东西万岁！它们让你变得强壮如牛。</text>
</g>
<!-- 9&#45;&gt;24 -->
<g id="edge10" class="edge">
<title>9&#45;&gt;24</title>
<path fill="none" stroke="black" d="M3805.05,-287.7C3808.17,-280.15 3811.91,-271.12 3815.41,-262.68"/>
<polygon fill="black" stroke="black" points="3818.62,-264.08 3819.21,-253.5 3812.15,-261.4 3818.62,-264.08"/>
</g>
<!-- 18 -->
<g id="node19" class="node">
<title>18</title>
<polygon fill="none" stroke="black" points="2015.88,-180 1676.17,-162 2015.88,-144 2355.58,-162 2015.88,-180"/>
<text text-anchor="middle" x="2015.88" y="-156.95" font-family="Times New Roman,serif" font-size="14.00">!(Variable[&quot;yard.maglife_afterthought_elchem_summoned&quot;])</text>
</g>
<!-- 10&#45;&gt;18 -->
<g id="edge11" class="edge">
<title>10&#45;&gt;18</title>
<path fill="none" stroke="black" d="M2580.44,-216.19C2446.47,-203.57 2266.13,-186.58 2145.68,-175.23"/>
<polygon fill="black" stroke="black" points="2146.37,-171.78 2136.08,-174.32 2145.71,-178.75 2146.37,-171.78"/>
</g>
<!-- 11 -->
<g id="node12" class="node">
<title>11</title>
<ellipse fill="none" stroke="black" cx="3150.88" cy="-450" rx="541.66" ry="18"/>
<text text-anchor="middle" x="3150.88" y="-444.95" font-family="Times New Roman,serif" font-size="14.00">Composure: 是的，而且是至关重要的。看看你自己。因为血液里缺少镁，你几乎就快退化成一条咸鱼了。</text>
</g>
<!-- 20 -->
<g id="node21" class="node">
<title>20</title>
<ellipse fill="none" stroke="black" cx="2843.88" cy="-378" rx="449.54" ry="18"/>
<text text-anchor="middle" x="2843.88" y="-372.95" font-family="Times New Roman,serif" font-size="14.00">Electrochemistry: 只要记住——它不是酒精。但酒精也要多买一点，因为酒精*不是*问题。</text>
</g>
<!-- 11&#45;&gt;20 -->
<g id="edge13" class="edge">
<title>11&#45;&gt;20</title>
<path fill="none" stroke="black" d="M3074.99,-431.7C3031.19,-421.71 2975.96,-409.12 2930.47,-398.74"/>
<polygon fill="black" stroke="black" points="2931.43,-395.37 2920.9,-396.56 2929.87,-402.2 2931.43,-395.37"/>
</g>
<!-- 27 -->
<g id="node28" class="node">
<title>27</title>
<ellipse fill="none" stroke="black" cx="3570.88" cy="-378" rx="146.55" ry="18"/>
<text text-anchor="middle" x="3570.88" y="-372.95" font-family="Times New Roman,serif" font-size="14.00">You: 我需要再多*镁*一点？</text>
</g>
<!-- 11&#45;&gt;27 -->
<g id="edge12" class="edge">
<title>11&#45;&gt;27</title>
<path fill="none" stroke="black" d="M3253.62,-431.88C3321.23,-420.61 3409.11,-405.96 3475.23,-394.94"/>
<polygon fill="black" stroke="black" points="3475.7,-398.41 3484.99,-393.31 3474.55,-391.51 3475.7,-398.41"/>
</g>
<!-- 12 -->
<g id="node13" class="node">
<title>12</title>
<ellipse fill="none" stroke="black" cx="1175.88" cy="-306" rx="559.58" ry="18"/>
<text text-anchor="middle" x="1175.88" y="-300.95" font-family="Times New Roman,serif" font-size="14.00">Electrochemistry: 你血液里面的镁含量已经低到一个很危险的水平。这里说的是低镁含量，*不是*高酒精含量。</text>
</g>
<!-- 22 -->
<g id="node23" class="node">
<title>22</title>
<ellipse fill="none" stroke="black" cx="1272.88" cy="-234" rx="803.2" ry="18"/>
<text text-anchor="middle" x="1272.88" y="-228.95" font-family="Times New Roman,serif" font-size="14.00">Composure: 稍微来点*镁*？你在说什么呢？！你需要*多加*一点镁！你很可能已经心脏病发两次，还有一次轻度中风……唯一的处方就是加入疯狂剂量的镁。</text>
</g>
<!-- 12&#45;&gt;22 -->
<g id="edge14" class="edge">
<title>12&#45;&gt;22</title>
<path fill="none" stroke="black" d="M1199.86,-287.7C1211.86,-279.03 1226.59,-268.4 1239.67,-258.96"/>
<polygon fill="black" stroke="black" points="1241.55,-261.92 1247.61,-253.23 1237.46,-256.25 1241.55,-261.92"/>
</g>
<!-- 13 -->
<g id="node14" class="node">
<title>13</title>
<ellipse fill="none" stroke="black" cx="3797.88" cy="-162" rx="190.56" ry="18"/>
<text text-anchor="middle" x="3797.88" y="-156.95" font-family="Times New Roman,serif" font-size="14.00">You: 我不能再想这个。[放弃思维。]</text>
</g>
<!-- 14 -->
<g id="node15" class="node">
<title>14</title>
<ellipse fill="none" stroke="black" cx="225.88" cy="-234" rx="225.88" ry="18"/>
<text text-anchor="middle" x="225.88" y="-228.95" font-family="Times New Roman,serif" font-size="14.00">You: 我身体的镁含量挺好的。[放弃思维。]</text>
</g>
<!-- 15 -->
<g id="node16" class="node">
<title>15</title>
<ellipse fill="none" stroke="black" cx="4088.88" cy="-738" rx="746.9" ry="18"/>
<text text-anchor="middle" x="4088.88" y="-732.95" font-family="Times New Roman,serif" font-size="14.00">Composure: 是的。如果你想活下去，就需要*进化*。你需要跨越碳的壁垒。马上去找药剂师，买下疯狂剂量的镁——它会逆转你损坏的循环系统。</text>
</g>
<!-- 15&#45;&gt;15 -->
<g id="edge15" class="edge">
<title>15&#45;&gt;15</title>
<path fill="none" stroke="black" d="M4603.21,-751.42C4745.2,-750.78 4853.78,-746.31 4853.78,-738 4853.78,-729.91 4750.85,-725.46 4614.37,-724.64"/>
<polygon fill="black" stroke="black" points="4614.74,-721.14 4604.72,-724.59 4614.7,-728.14 4614.74,-721.14"/>
</g>
<!-- 16 -->
<g id="node17" class="node">
<title>16</title>
<ellipse fill="none" stroke="black" cx="725.88" cy="-522" rx="231" ry="18"/>
<text text-anchor="middle" x="725.88" y="-516.95" font-family="Times New Roman,serif" font-size="14.00">Variable[&quot;yard.maglife_afterthought_elchem_summoned&quot;]</text>
</g>
<!-- 16&#45;&gt;16 -->
<g id="edge16" class="edge">
<title>16&#45;&gt;16</title>
<path fill="none" stroke="black" d="M883.92,-535.5C934.66,-535.36 974.87,-530.86 974.87,-522 974.87,-513.82 940.55,-509.35 895.32,-508.61"/>
<polygon fill="black" stroke="black" points="895.47,-505.11 885.44,-508.52 895.4,-512.11 895.47,-505.11"/>
</g>
<!-- 17 -->
<g id="node18" class="node">
<title>17</title>
<polygon fill="none" stroke="black" points="725.88,-468 399.2,-450 725.88,-432 1052.56,-450 725.88,-468"/>
<text text-anchor="middle" x="725.88" y="-444.95" font-family="Times New Roman,serif" font-size="14.00">Variable[&quot;yard.maglife_afterthought_elchem_summoned&quot;]</text>
</g>
<!-- 16&#45;&gt;17 -->
<g id="edge17" class="edge">
<title>16&#45;&gt;17</title>
<path fill="none" stroke="black" d="M725.88,-503.7C725.88,-496.41 725.88,-487.73 725.88,-479.54"/>
<polygon fill="black" stroke="black" points="729.38,-479.62 725.88,-469.62 722.38,-479.62 729.38,-479.62"/>
</g>
<!-- 19 -->
<g id="node20" class="node">
<title>19</title>
<ellipse fill="none" stroke="black" cx="725.88" cy="-378" rx="290.88" ry="18"/>
<text text-anchor="middle" x="725.88" y="-372.95" font-family="Times New Roman,serif" font-size="14.00">Endurance: 一次中风？别谦虚了。他现在就已经中风了。</text>
</g>
<!-- 17&#45;&gt;19 -->
<g id="edge18" class="edge">
<title>17&#45;&gt;19</title>
<path fill="none" stroke="black" d="M725.88,-431.7C725.88,-424.41 725.88,-415.73 725.88,-407.54"/>
<polygon fill="black" stroke="black" points="729.38,-407.62 725.88,-397.62 722.38,-407.62 729.38,-407.62"/>
</g>
<!-- 19&#45;&gt;12 -->
<g id="edge20" class="edge">
<title>19&#45;&gt;12</title>
<path fill="none" stroke="black" d="M830.25,-360.76C897.28,-350.34 984.6,-336.75 1054.7,-325.85"/>
<polygon fill="black" stroke="black" points="1054.96,-329.35 1064.3,-324.36 1053.88,-322.44 1054.96,-329.35"/>
</g>
<!-- 25 -->
<g id="node26" class="node">
<title>25</title>
<ellipse fill="none" stroke="black" cx="274.88" cy="-306" rx="274.5" ry="18"/>
<text text-anchor="middle" x="274.88" y="-300.95" font-family="Times New Roman,serif" font-size="14.00">You: 你是说……我需要变成一个以镁过活的生命体？</text>
</g>
<!-- 19&#45;&gt;25 -->
<g id="edge19" class="edge">
<title>19&#45;&gt;25</title>
<path fill="none" stroke="black" d="M621.28,-360.76C551.99,-350.01 461.09,-335.9 389.79,-324.84"/>
<polygon fill="black" stroke="black" points="390.44,-321.39 380.02,-323.32 389.36,-328.31 390.44,-321.39"/>
</g>
<!-- 20&#45;&gt;3 -->
<g id="edge21" class="edge">
<title>20&#45;&gt;3</title>
<path fill="none" stroke="black" d="M2829.79,-359.7C2823.23,-351.64 2815.29,-341.89 2808.04,-332.98"/>
<polygon fill="black" stroke="black" points="2810.79,-330.82 2801.76,-325.28 2805.36,-335.24 2810.79,-330.82"/>
</g>
<!-- 21 -->
<g id="node22" class="node">
<title>21</title>
<ellipse fill="none" stroke="black" cx="5041.88" cy="-738" rx="170.09" ry="18"/>
<text text-anchor="middle" x="5041.88" y="-732.95" font-family="Times New Roman,serif" font-size="14.00">You: 所以我要再稍微来点*镁*？</text>
</g>
<!-- 21&#45;&gt;21 -->
<g id="edge22" class="edge">
<title>21&#45;&gt;21</title>
<path fill="none" stroke="black" d="M5158.51,-751.5C5198.13,-751.57 5229.97,-747.07 5229.97,-738 5229.97,-729.82 5204.04,-725.35 5169.88,-724.61"/>
<polygon fill="black" stroke="black" points="5170.06,-721.11 5160.03,-724.52 5169.99,-728.11 5170.06,-721.11"/>
</g>
<!-- 22&#45;&gt;18 -->
<g id="edge23" class="edge">
<title>22&#45;&gt;18</title>
<path fill="none" stroke="black" d="M1453.21,-216.01C1586.88,-203.42 1765.94,-186.55 1885.82,-175.25"/>
<polygon fill="black" stroke="black" points="1886.1,-178.74 1895.72,-174.32 1885.44,-171.77 1886.1,-178.74"/>
</g>
<!-- 23 -->
<g id="node24" class="node">
<title>23</title>
<ellipse fill="none" stroke="black" cx="4356.88" cy="-234" rx="98.44" ry="18"/>
<text text-anchor="middle" x="4356.88" y="-228.95" font-family="Times New Roman,serif" font-size="14.00">magnesium_based_hub</text>
</g>
<!-- 23&#45;&gt;2 -->
<g id="edge25" class="edge">
<title>23&#45;&gt;2</title>
<path fill="none" stroke="black" d="M4356.88,-215.7C4356.88,-208.41 4356.88,-199.73 4356.88,-191.54"/>
<polygon fill="black" stroke="black" points="4360.38,-191.62 4356.88,-181.62 4353.38,-191.62 4360.38,-191.62"/>
</g>
<!-- 23&#45;&gt;8 -->
<g id="edge24" class="edge">
<title>23&#45;&gt;8</title>
<path fill="none" stroke="black" d="M4438.24,-223.52C4546.74,-210.89 4738.76,-188.52 4856.53,-174.8"/>
<polygon fill="black" stroke="black" points="4856.66,-178.31 4866.19,-173.68 4855.85,-171.36 4856.66,-178.31"/>
</g>
<!-- 23&#45;&gt;13 -->
<g id="edge26" class="edge">
<title>23&#45;&gt;13</title>
<path fill="none" stroke="black" d="M4277.64,-223.01C4259.33,-220.7 4239.93,-218.26 4221.88,-216 4120.61,-203.3 4005.74,-188.94 3921.13,-178.38"/>
<polygon fill="black" stroke="black" points="3921.78,-174.93 3911.42,-177.16 3920.91,-181.88 3921.78,-174.93"/>
</g>
<!-- 24&#45;&gt;2 -->
<g id="edge27" class="edge">
<title>24&#45;&gt;2</title>
<path fill="none" stroke="black" d="M3951.81,-216.5C4033.15,-205.76 4139.2,-191.75 4222.38,-180.76"/>
<polygon fill="black" stroke="black" points="4222.74,-184.25 4232.2,-179.47 4221.83,-177.31 4222.74,-184.25"/>
</g>
<!-- 24&#45;&gt;13 -->
<g id="edge28" class="edge">
<title>24&#45;&gt;13</title>
<path fill="none" stroke="black" d="M3819.71,-215.7C3816.58,-208.15 3812.84,-199.12 3809.35,-190.68"/>
<polygon fill="black" stroke="black" points="3812.6,-189.4 3805.54,-181.5 3806.14,-192.08 3812.6,-189.4"/>
</g>
<!-- 25&#45;&gt;14 -->
<g id="edge29" class="edge">
<title>25&#45;&gt;14</title>
<path fill="none" stroke="black" d="M262.77,-287.7C257.19,-279.73 250.45,-270.1 244.26,-261.26"/>
<polygon fill="black" stroke="black" points="247.32,-259.53 238.72,-253.34 241.59,-263.54 247.32,-259.53"/>
</g>
<!-- 26&#45;&gt;11 -->
<g id="edge30" class="edge">
<title>26&#45;&gt;11</title>
<path fill="none" stroke="black" d="M3150.88,-503.7C3150.88,-496.41 3150.88,-487.73 3150.88,-479.54"/>
<polygon fill="black" stroke="black" points="3154.38,-479.62 3150.88,-469.62 3147.38,-479.62 3154.38,-479.62"/>
</g>
<!-- 27&#45;&gt;9 -->
<g id="edge31" class="edge">
<title>27&#45;&gt;9</title>
<path fill="none" stroke="black" d="M3623.53,-360.76C3655.67,-350.85 3697.06,-338.09 3731.45,-327.48"/>
<polygon fill="black" stroke="black" points="3732.38,-330.86 3740.9,-324.57 3730.31,-324.17 3732.38,-330.86"/>
</g>
</g>
</svg>
