<?xml version="1.0" encoding="UTF-8" standalone="no"?>
<!DOCTYPE svg PUBLIC "-//W3C//DTD SVG 1.1//EN"
 "http://www.w3.org/Graphics/SVG/1.1/DTD/svg11.dtd">
<!-- Generated by graphviz version 12.2.1 (20241206.2353)
 -->
<!-- Title: G Pages: 1 -->
<svg width="4897pt" height="1124pt"
 viewBox="0.00 0.00 4897.27 1124.00" xmlns="http://www.w3.org/2000/svg" xmlns:xlink="http://www.w3.org/1999/xlink">
<g id="graph0" class="graph" transform="scale(1 1) rotate(0) translate(4 1120)">
<title>G</title>
<polygon fill="white" stroke="none" points="-4,4 -4,-1120 4893.27,-1120 4893.27,4 -4,4"/>
<!-- 0 -->
<g id="node1" class="node">
<title>0</title>
<ellipse fill="none" stroke="black" cx="3093.6" cy="-1098" rx="39.07" ry="18"/>
<text text-anchor="middle" x="3093.6" y="-1092.95" font-family="Times New Roman,serif" font-size="14.00">START</text>
</g>
<!-- 1 -->
<g id="node2" class="node">
<title>1</title>
<ellipse fill="none" stroke="black" cx="3093.6" cy="-1026" rx="29.86" ry="18"/>
<text text-anchor="middle" x="3093.6" y="-1020.95" font-family="Times New Roman,serif" font-size="14.00">input</text>
</g>
<!-- 0&#45;&gt;1 -->
<g id="edge1" class="edge">
<title>0&#45;&gt;1</title>
<path fill="none" stroke="black" d="M3093.6,-1079.7C3093.6,-1072.41 3093.6,-1063.73 3093.6,-1055.54"/>
<polygon fill="black" stroke="black" points="3097.1,-1055.62 3093.6,-1045.62 3090.1,-1055.62 3097.1,-1055.62"/>
</g>
<!-- 17 -->
<g id="node17" class="node">
<title>17</title>
<ellipse fill="none" stroke="black" cx="3093.6" cy="-954" rx="218.71" ry="18"/>
<text text-anchor="middle" x="3093.6" y="-948.95" font-family="Times New Roman,serif" font-size="14.00">CheckItem(&quot;gun_villiers&quot;) &#160;or &#160;CheckItem(&quot;gun_ruby&quot;)</text>
</g>
<!-- 1&#45;&gt;17 -->
<g id="edge2" class="edge">
<title>1&#45;&gt;17</title>
<path fill="none" stroke="black" d="M3093.6,-1007.7C3093.6,-1000.41 3093.6,-991.73 3093.6,-983.54"/>
<polygon fill="black" stroke="black" points="3097.1,-983.62 3093.6,-973.62 3090.1,-983.62 3097.1,-983.62"/>
</g>
<!-- 2 -->
<g id="node3" class="node">
<title>2</title>
<ellipse fill="none" stroke="black" cx="1213.6" cy="-90" rx="356.9" ry="18"/>
<text text-anchor="middle" x="1213.6" y="-84.95" font-family="Times New Roman,serif" font-size="14.00">You: 嗯……也许我应该这么做。是的。（看着枪，开始认真考虑。）</text>
</g>
<!-- 15 -->
<g id="node15" class="node">
<title>15</title>
<ellipse fill="none" stroke="black" cx="755.6" cy="-18" rx="755.6" ry="18"/>
<text text-anchor="middle" x="755.6" y="-12.95" font-family="Times New Roman,serif" font-size="14.00">Pain Threshold: 没错。再次尝到枪管的味道一定很美好。那酸臭的金属味……哦，但是还没到。但是坚持下去——继续陷入黑暗，它最终会*叩响*的。</text>
</g>
<!-- 2&#45;&gt;15 -->
<g id="edge3" class="edge">
<title>2&#45;&gt;15</title>
<path fill="none" stroke="black" d="M1105.06,-72.41C1037.39,-62.07 950.1,-48.73 879.69,-37.97"/>
<polygon fill="black" stroke="black" points="880.45,-34.54 870.04,-36.49 879.4,-41.46 880.45,-34.54"/>
</g>
<!-- 3 -->
<g id="node4" class="node">
<title>3</title>
<ellipse fill="none" stroke="black" cx="3180.6" cy="-522" rx="563.67" ry="18"/>
<text text-anchor="middle" x="3180.6" y="-516.95" font-family="Times New Roman,serif" font-size="14.00">Pain Threshold: 听起来你像是个自杀警探！手指一直放在*退出*按钮上。随时准备放弃生命！但是你猜怎么着？</text>
</g>
<!-- 11 -->
<g id="node12" class="node">
<title>11</title>
<ellipse fill="none" stroke="black" cx="3050.6" cy="-450" rx="271.94" ry="18"/>
<text text-anchor="middle" x="3050.6" y="-444.95" font-family="Times New Roman,serif" font-size="14.00">Pain Threshold: 你这个白痴！你有子弹，但是没枪啊！</text>
</g>
<!-- 3&#45;&gt;11 -->
<g id="edge4" class="edge">
<title>3&#45;&gt;11</title>
<path fill="none" stroke="black" d="M3148.46,-503.7C3131.67,-494.65 3110.9,-483.47 3092.82,-473.73"/>
<polygon fill="black" stroke="black" points="3094.61,-470.72 3084.15,-469.06 3091.29,-476.89 3094.61,-470.72"/>
</g>
<!-- 4 -->
<g id="node5" class="node">
<title>4</title>
<ellipse fill="none" stroke="black" cx="2260.6" cy="-90" rx="243.28" ry="18"/>
<text text-anchor="middle" x="2260.6" y="-84.95" font-family="Times New Roman,serif" font-size="14.00">You: 不，这是我想活下去的信号。（拒绝。）</text>
</g>
<!-- 20 -->
<g id="node20" class="node">
<title>20</title>
<ellipse fill="none" stroke="black" cx="2232.6" cy="-18" rx="703.39" ry="18"/>
<text text-anchor="middle" x="2232.6" y="-12.95" font-family="Times New Roman,serif" font-size="14.00">Pain Threshold: 很好。改天再继续装模做样吧。这可能是一种解放，不过你还拴在这个案子、你的搭档和这个世界上……实在是太可怜了。</text>
</g>
<!-- 4&#45;&gt;20 -->
<g id="edge5" class="edge">
<title>4&#45;&gt;20</title>
<path fill="none" stroke="black" d="M2253.68,-71.7C2250.66,-64.15 2247.05,-55.12 2243.67,-46.68"/>
<polygon fill="black" stroke="black" points="2246.97,-45.49 2240,-37.51 2240.47,-48.09 2246.97,-45.49"/>
</g>
<!-- 5 -->
<g id="node6" class="node">
<title>5</title>
<ellipse fill="none" stroke="black" cx="3777.6" cy="-18" rx="823.67" ry="18"/>
<text text-anchor="middle" x="3777.6" y="-12.95" font-family="Times New Roman,serif" font-size="14.00">Pain Threshold: 没错。再次尝到枪管的味道一定很美好。那酸臭的金属味……也许还是*有*办法的？还没到。但是坚持下去——继续陷入黑暗，它最终会*叩响*的。</text>
</g>
<!-- 6 -->
<g id="node7" class="node">
<title>6</title>
<ellipse fill="none" stroke="black" cx="4021.6" cy="-450" rx="248.4" ry="18"/>
<text text-anchor="middle" x="4021.6" y="-444.95" font-family="Times New Roman,serif" font-size="14.00">Pain Threshold: 你这个白痴！你没枪，也没子弹！</text>
</g>
<!-- 12 -->
<g id="node13" class="node">
<title>12</title>
<ellipse fill="none" stroke="black" cx="2641.6" cy="-378" rx="503.79" ry="18"/>
<text text-anchor="middle" x="2641.6" y="-372.95" font-family="Times New Roman,serif" font-size="14.00">Composure: 你把它变成了一场轰动的大型演出。现在，你感觉基本上每个人都在*期待*你这么做。</text>
</g>
<!-- 6&#45;&gt;12 -->
<g id="edge6" class="edge">
<title>6&#45;&gt;12</title>
<path fill="none" stroke="black" d="M3822.78,-438.91C3590.06,-427.11 3202.55,-407.45 2935.2,-393.89"/>
<polygon fill="black" stroke="black" points="2935.43,-390.4 2925.26,-393.39 2935.07,-397.39 2935.43,-390.4"/>
</g>
<!-- 7 -->
<g id="node8" class="node">
<title>7</title>
<ellipse fill="none" stroke="black" cx="2759.6" cy="-810" rx="87.18" ry="18"/>
<text text-anchor="middle" x="2759.6" y="-804.95" font-family="Times New Roman,serif" font-size="14.00">CheckItem(&quot;bullet&quot;)</text>
</g>
<!-- 8 -->
<g id="node9" class="node">
<title>8</title>
<polygon fill="none" stroke="black" points="2048.6,-756 1925.31,-738 2048.6,-720 2171.89,-738 2048.6,-756"/>
<text text-anchor="middle" x="2048.6" y="-732.95" font-family="Times New Roman,serif" font-size="14.00">CheckItem(&quot;bullet&quot;)</text>
</g>
<!-- 7&#45;&gt;8 -->
<g id="edge7" class="edge">
<title>7&#45;&gt;8</title>
<path fill="none" stroke="black" d="M2682.16,-801.38C2547.2,-788.09 2270.12,-760.81 2131.46,-747.16"/>
<polygon fill="black" stroke="black" points="2131.9,-743.68 2121.61,-746.19 2131.22,-750.65 2131.9,-743.68"/>
</g>
<!-- 9 -->
<g id="node10" class="node">
<title>9</title>
<polygon fill="none" stroke="black" points="2759.6,-756 2623.28,-738 2759.6,-720 2895.92,-738 2759.6,-756"/>
<text text-anchor="middle" x="2759.6" y="-732.95" font-family="Times New Roman,serif" font-size="14.00">!(CheckItem(&quot;bullet&quot;))</text>
</g>
<!-- 7&#45;&gt;9 -->
<g id="edge8" class="edge">
<title>7&#45;&gt;9</title>
<path fill="none" stroke="black" d="M2759.6,-791.7C2759.6,-784.41 2759.6,-775.73 2759.6,-767.54"/>
<polygon fill="black" stroke="black" points="2763.1,-767.62 2759.6,-757.62 2756.1,-767.62 2763.1,-767.62"/>
</g>
<!-- 14 -->
<g id="node14" class="node">
<title>14</title>
<ellipse fill="none" stroke="black" cx="1614.6" cy="-666" rx="563.67" ry="18"/>
<text text-anchor="middle" x="1614.6" y="-660.95" font-family="Times New Roman,serif" font-size="14.00">Pain Threshold: 听起来你是个潜在的自杀警探！手指一直放在*退出*按钮上。随时准备放弃生命！你猜怎么着？</text>
</g>
<!-- 8&#45;&gt;14 -->
<g id="edge9" class="edge">
<title>8&#45;&gt;14</title>
<path fill="none" stroke="black" d="M1991.86,-727.85C1926.22,-717.26 1816.38,-699.55 1732.1,-685.95"/>
<polygon fill="black" stroke="black" points="1732.83,-682.53 1722.41,-684.39 1731.72,-689.44 1732.83,-682.53"/>
</g>
<!-- 10 -->
<g id="node11" class="node">
<title>10</title>
<ellipse fill="none" stroke="black" cx="2759.6" cy="-666" rx="563.67" ry="18"/>
<text text-anchor="middle" x="2759.6" y="-660.95" font-family="Times New Roman,serif" font-size="14.00">Pain Threshold: 听起来你像是个自杀警探！手指一直放在*退出*按钮上。随时准备放弃生命！但是你猜怎么着？</text>
</g>
<!-- 9&#45;&gt;10 -->
<g id="edge10" class="edge">
<title>9&#45;&gt;10</title>
<path fill="none" stroke="black" d="M2759.6,-719.7C2759.6,-712.41 2759.6,-703.73 2759.6,-695.54"/>
<polygon fill="black" stroke="black" points="2763.1,-695.62 2759.6,-685.62 2756.1,-695.62 2763.1,-695.62"/>
</g>
<!-- 16 -->
<g id="node16" class="node">
<title>16</title>
<ellipse fill="none" stroke="black" cx="2362.6" cy="-522" rx="236.63" ry="18"/>
<text text-anchor="middle" x="2362.6" y="-516.95" font-family="Times New Roman,serif" font-size="14.00">Pain Threshold: 你这个白痴！你根本没有子弹！</text>
</g>
<!-- 10&#45;&gt;16 -->
<g id="edge11" class="edge">
<title>10&#45;&gt;16</title>
<path fill="none" stroke="black" d="M2710.92,-647.59C2637.75,-621.42 2499.66,-572.02 2421.11,-543.93"/>
<polygon fill="black" stroke="black" points="2422.46,-540.69 2411.86,-540.62 2420.1,-547.28 2422.46,-540.69"/>
</g>
<!-- 11&#45;&gt;12 -->
<g id="edge12" class="edge">
<title>11&#45;&gt;12</title>
<path fill="none" stroke="black" d="M2955.22,-432.68C2894.65,-422.31 2816.03,-408.85 2752.65,-398.01"/>
<polygon fill="black" stroke="black" points="2753.35,-394.57 2742.9,-396.34 2752.16,-401.47 2753.35,-394.57"/>
</g>
<!-- 28 -->
<g id="node28" class="node">
<title>28</title>
<ellipse fill="none" stroke="black" cx="2641.6" cy="-306" rx="304.7" ry="18"/>
<text text-anchor="middle" x="2641.6" y="-300.95" font-family="Times New Roman,serif" font-size="14.00">Volition: 这是干什么？你还没准备好去死，这些都是屁话。</text>
</g>
<!-- 12&#45;&gt;28 -->
<g id="edge13" class="edge">
<title>12&#45;&gt;28</title>
<path fill="none" stroke="black" d="M2641.6,-359.7C2641.6,-352.41 2641.6,-343.73 2641.6,-335.54"/>
<polygon fill="black" stroke="black" points="2645.1,-335.62 2641.6,-325.62 2638.1,-335.62 2645.1,-335.62"/>
</g>
<!-- 24 -->
<g id="node24" class="node">
<title>24</title>
<ellipse fill="none" stroke="black" cx="1694.6" cy="-594" rx="90.25" ry="18"/>
<text text-anchor="middle" x="1694.6" y="-588.95" font-family="Times New Roman,serif" font-size="14.00">You: 那是什么？</text>
</g>
<!-- 14&#45;&gt;24 -->
<g id="edge14" class="edge">
<title>14&#45;&gt;24</title>
<path fill="none" stroke="black" d="M1634.37,-647.7C1644.13,-639.16 1656.07,-628.71 1666.74,-619.37"/>
<polygon fill="black" stroke="black" points="1668.97,-622.08 1674.19,-612.86 1664.36,-616.81 1668.97,-622.08"/>
</g>
<!-- 16&#45;&gt;12 -->
<g id="edge15" class="edge">
<title>16&#45;&gt;12</title>
<path fill="none" stroke="black" d="M2396.53,-503.73C2446.98,-478.05 2541.78,-429.8 2597.53,-401.43"/>
<polygon fill="black" stroke="black" points="2598.79,-404.71 2606.12,-397.06 2595.62,-398.47 2598.79,-404.71"/>
</g>
<!-- 18 -->
<g id="node18" class="node">
<title>18</title>
<polygon fill="none" stroke="black" points="2768.6,-900 2459.29,-882 2768.6,-864 3077.91,-882 2768.6,-900"/>
<text text-anchor="middle" x="2768.6" y="-876.95" font-family="Times New Roman,serif" font-size="14.00">CheckItem(&quot;gun_villiers&quot;) &#160;or &#160;CheckItem(&quot;gun_ruby&quot;)</text>
</g>
<!-- 17&#45;&gt;18 -->
<g id="edge16" class="edge">
<title>17&#45;&gt;18</title>
<path fill="none" stroke="black" d="M3017.81,-936.68C2965.39,-925.39 2895.94,-910.43 2843.67,-899.17"/>
<polygon fill="black" stroke="black" points="2844.45,-895.76 2833.93,-897.07 2842.97,-902.6 2844.45,-895.76"/>
</g>
<!-- 19 -->
<g id="node19" class="node">
<title>19</title>
<polygon fill="none" stroke="black" points="3423.6,-900 3101.26,-882 3423.6,-864 3745.93,-882 3423.6,-900"/>
<text text-anchor="middle" x="3423.6" y="-876.95" font-family="Times New Roman,serif" font-size="14.00">!(CheckItem(&quot;gun_villiers&quot;) &#160;or &#160;CheckItem(&quot;gun_ruby&quot;))</text>
</g>
<!-- 17&#45;&gt;19 -->
<g id="edge17" class="edge">
<title>17&#45;&gt;19</title>
<path fill="none" stroke="black" d="M3170.14,-936.76C3223.38,-925.47 3294.06,-910.48 3347.25,-899.19"/>
<polygon fill="black" stroke="black" points="3347.79,-902.66 3356.85,-897.16 3346.34,-895.81 3347.79,-902.66"/>
</g>
<!-- 18&#45;&gt;7 -->
<g id="edge18" class="edge">
<title>18&#45;&gt;7</title>
<path fill="none" stroke="black" d="M2766.37,-863.7C2765.43,-856.32 2764.3,-847.52 2763.23,-839.25"/>
<polygon fill="black" stroke="black" points="2766.74,-839.08 2761.99,-829.61 2759.8,-839.97 2766.74,-839.08"/>
</g>
<!-- 25 -->
<g id="node25" class="node">
<title>25</title>
<ellipse fill="none" stroke="black" cx="3428.6" cy="-666" rx="87.18" ry="18"/>
<text text-anchor="middle" x="3428.6" y="-660.95" font-family="Times New Roman,serif" font-size="14.00">CheckItem(&quot;bullet&quot;)</text>
</g>
<!-- 19&#45;&gt;25 -->
<g id="edge19" class="edge">
<title>19&#45;&gt;25</title>
<path fill="none" stroke="black" d="M3424,-863.85C3424.86,-827.14 3426.88,-740.66 3427.93,-695.53"/>
<polygon fill="black" stroke="black" points="3431.43,-695.82 3428.16,-685.75 3424.43,-695.66 3431.43,-695.82"/>
</g>
<!-- 21 -->
<g id="node21" class="node">
<title>21</title>
<ellipse fill="none" stroke="black" cx="3022.6" cy="-90" rx="389.66" ry="18"/>
<text text-anchor="middle" x="3022.6" y="-84.95" font-family="Times New Roman,serif" font-size="14.00">You: 自杀警探*确实*听起来还不错。我应该考虑一下——但是只有一点点。</text>
</g>
<!-- 21&#45;&gt;5 -->
<g id="edge20" class="edge">
<title>21&#45;&gt;5</title>
<path fill="none" stroke="black" d="M3191.57,-73.33C3307.49,-62.59 3461.63,-48.29 3582.74,-37.07"/>
<polygon fill="black" stroke="black" points="3582.84,-40.57 3592.48,-36.16 3582.2,-33.6 3582.84,-40.57"/>
</g>
<!-- 22 -->
<g id="node22" class="node">
<title>22</title>
<ellipse fill="none" stroke="black" cx="2062.6" cy="-450" rx="251.98" ry="18"/>
<text text-anchor="middle" x="2062.6" y="-444.95" font-family="Times New Roman,serif" font-size="14.00">Jump to: [Composure: &quot;You&#39;ve made such a big show out of...&quot;]</text>
</g>
<!-- 22&#45;&gt;12 -->
<g id="edge21" class="edge">
<title>22&#45;&gt;12</title>
<path fill="none" stroke="black" d="M2187.16,-433.94C2276.35,-423.16 2396.88,-408.59 2491.4,-397.16"/>
<polygon fill="black" stroke="black" points="2491.78,-400.64 2501.29,-395.96 2490.94,-393.69 2491.78,-400.64"/>
</g>
<!-- 23 -->
<g id="node23" class="node">
<title>23</title>
<ellipse fill="none" stroke="black" cx="1784.6" cy="-522" rx="303.16" ry="18"/>
<text text-anchor="middle" x="1784.6" y="-516.95" font-family="Times New Roman,serif" font-size="14.00">Pain Threshold: 一颗子弹就够了。你有枪……而且还有子弹。</text>
</g>
<!-- 23&#45;&gt;22 -->
<g id="edge22" class="edge">
<title>23&#45;&gt;22</title>
<path fill="none" stroke="black" d="M1852.25,-503.97C1892.38,-493.86 1943.4,-481.02 1985.14,-470.51"/>
<polygon fill="black" stroke="black" points="1985.78,-473.95 1994.62,-468.12 1984.07,-467.16 1985.78,-473.95"/>
</g>
<!-- 24&#45;&gt;23 -->
<g id="edge23" class="edge">
<title>24&#45;&gt;23</title>
<path fill="none" stroke="black" d="M1716.39,-576.05C1727.5,-567.41 1741.21,-556.75 1753.41,-547.26"/>
<polygon fill="black" stroke="black" points="1755.45,-550.11 1761.19,-541.2 1751.15,-544.58 1755.45,-550.11"/>
</g>
<!-- 26 -->
<g id="node26" class="node">
<title>26</title>
<polygon fill="none" stroke="black" points="3269.6,-612 3146.31,-594 3269.6,-576 3392.89,-594 3269.6,-612"/>
<text text-anchor="middle" x="3269.6" y="-588.95" font-family="Times New Roman,serif" font-size="14.00">CheckItem(&quot;bullet&quot;)</text>
</g>
<!-- 25&#45;&gt;26 -->
<g id="edge24" class="edge">
<title>25&#45;&gt;26</title>
<path fill="none" stroke="black" d="M3392.92,-649.29C3368.24,-638.43 3335.38,-623.96 3309.78,-612.69"/>
<polygon fill="black" stroke="black" points="3311.25,-609.51 3300.68,-608.69 3308.43,-615.92 3311.25,-609.51"/>
</g>
<!-- 27 -->
<g id="node27" class="node">
<title>27</title>
<polygon fill="none" stroke="black" points="3587.6,-612 3451.28,-594 3587.6,-576 3723.92,-594 3587.6,-612"/>
<text text-anchor="middle" x="3587.6" y="-588.95" font-family="Times New Roman,serif" font-size="14.00">!(CheckItem(&quot;bullet&quot;))</text>
</g>
<!-- 25&#45;&gt;27 -->
<g id="edge25" class="edge">
<title>25&#45;&gt;27</title>
<path fill="none" stroke="black" d="M3464.28,-649.29C3488.72,-638.53 3521.18,-624.24 3546.67,-613.02"/>
<polygon fill="black" stroke="black" points="3547.99,-616.26 3555.74,-609.03 3545.17,-609.85 3547.99,-616.26"/>
</g>
<!-- 26&#45;&gt;3 -->
<g id="edge26" class="edge">
<title>26&#45;&gt;3</title>
<path fill="none" stroke="black" d="M3251.16,-578.5C3239.74,-569.52 3224.79,-557.76 3211.59,-547.37"/>
<polygon fill="black" stroke="black" points="3214.01,-544.82 3203.99,-541.39 3209.68,-550.33 3214.01,-544.82"/>
</g>
<!-- 30 -->
<g id="node30" class="node">
<title>30</title>
<ellipse fill="none" stroke="black" cx="4325.6" cy="-522" rx="563.67" ry="18"/>
<text text-anchor="middle" x="4325.6" y="-516.95" font-family="Times New Roman,serif" font-size="14.00">Pain Threshold: 听起来你像是个自杀警探！手指一直放在*退出*按钮上。随时准备放弃生命！但是你猜怎么着？</text>
</g>
<!-- 27&#45;&gt;30 -->
<g id="edge27" class="edge">
<title>27&#45;&gt;30</title>
<path fill="none" stroke="black" d="M3664.49,-585.71C3775.96,-575.13 3985.88,-555.22 4139.36,-540.66"/>
<polygon fill="black" stroke="black" points="4139.65,-544.15 4149.27,-539.72 4138.99,-537.18 4139.65,-544.15"/>
</g>
<!-- 29 -->
<g id="node29" class="node">
<title>29</title>
<ellipse fill="none" stroke="black" cx="2641.6" cy="-234" rx="390.68" ry="18"/>
<text text-anchor="middle" x="2641.6" y="-228.95" font-family="Times New Roman,serif" font-size="14.00">Authority: 这*也许*是一件荣耀的事。这样真的会让他们看到。让她也看看。</text>
</g>
<!-- 28&#45;&gt;29 -->
<g id="edge28" class="edge">
<title>28&#45;&gt;29</title>
<path fill="none" stroke="black" d="M2641.6,-287.7C2641.6,-280.41 2641.6,-271.73 2641.6,-263.54"/>
<polygon fill="black" stroke="black" points="2645.1,-263.62 2641.6,-253.62 2638.1,-263.62 2645.1,-263.62"/>
</g>
<!-- 32 -->
<g id="node32" class="node">
<title>32</title>
<ellipse fill="none" stroke="black" cx="2641.6" cy="-162" rx="49.82" ry="18"/>
<text text-anchor="middle" x="2641.6" y="-156.95" font-family="Times New Roman,serif" font-size="14.00">no_bulletz</text>
</g>
<!-- 29&#45;&gt;32 -->
<g id="edge29" class="edge">
<title>29&#45;&gt;32</title>
<path fill="none" stroke="black" d="M2641.6,-215.7C2641.6,-208.41 2641.6,-199.73 2641.6,-191.54"/>
<polygon fill="black" stroke="black" points="2645.1,-191.62 2641.6,-181.62 2638.1,-191.62 2645.1,-191.62"/>
</g>
<!-- 30&#45;&gt;6 -->
<g id="edge30" class="edge">
<title>30&#45;&gt;6</title>
<path fill="none" stroke="black" d="M4250.45,-503.7C4206.35,-493.54 4150.54,-480.69 4105.07,-470.22"/>
<polygon fill="black" stroke="black" points="4106.05,-466.86 4095.52,-468.02 4104.48,-473.68 4106.05,-466.86"/>
</g>
<!-- 31 -->
<g id="node31" class="node">
<title>31</title>
<ellipse fill="none" stroke="black" cx="3749.6" cy="-90" rx="264.26" ry="18"/>
<text text-anchor="middle" x="3749.6" y="-84.95" font-family="Times New Roman,serif" font-size="14.00">You: 真可惜。因为这完全很像*我*啊。自杀警探。</text>
</g>
<!-- 31&#45;&gt;5 -->
<g id="edge31" class="edge">
<title>31&#45;&gt;5</title>
<path fill="none" stroke="black" d="M3756.52,-71.7C3759.54,-64.15 3763.15,-55.12 3766.53,-46.68"/>
<polygon fill="black" stroke="black" points="3769.73,-48.09 3770.2,-37.51 3763.23,-45.49 3769.73,-48.09"/>
</g>
<!-- 32&#45;&gt;2 -->
<g id="edge32" class="edge">
<title>32&#45;&gt;2</title>
<path fill="none" stroke="black" d="M2592.44,-158.59C2418.39,-150.06 1823.14,-120.88 1474.23,-103.78"/>
<polygon fill="black" stroke="black" points="1474.63,-100.29 1464.47,-103.3 1474.28,-107.28 1474.63,-100.29"/>
</g>
<!-- 32&#45;&gt;4 -->
<g id="edge33" class="edge">
<title>32&#45;&gt;4</title>
<path fill="none" stroke="black" d="M2597.89,-152.97C2540.23,-142.38 2437.05,-123.42 2359.94,-109.25"/>
<polygon fill="black" stroke="black" points="2360.72,-105.84 2350.25,-107.47 2359.45,-112.72 2360.72,-105.84"/>
</g>
<!-- 32&#45;&gt;21 -->
<g id="edge34" class="edge">
<title>32&#45;&gt;21</title>
<path fill="none" stroke="black" d="M2685.3,-152.97C2741.94,-142.56 2842.5,-124.09 2919.12,-110.01"/>
<polygon fill="black" stroke="black" points="2919.56,-113.49 2928.76,-108.24 2918.29,-106.61 2919.56,-113.49"/>
</g>
<!-- 32&#45;&gt;31 -->
<g id="edge35" class="edge">
<title>32&#45;&gt;31</title>
<path fill="none" stroke="black" d="M2690.64,-157.9C2838.45,-148.56 3285.66,-120.31 3549.27,-103.66"/>
<polygon fill="black" stroke="black" points="3549.24,-107.16 3559,-103.04 3548.8,-100.18 3549.24,-107.16"/>
</g>
</g>
</svg>
