<?xml version="1.0" encoding="UTF-8" standalone="no"?>
<!DOCTYPE svg PUBLIC "-//W3C//DTD SVG 1.1//EN"
 "http://www.w3.org/Graphics/SVG/1.1/DTD/svg11.dtd">
<!-- Generated by graphviz version 12.2.1 (20241206.2353)
 -->
<!-- Title: G Pages: 1 -->
<svg width="11368pt" height="996pt"
 viewBox="0.00 0.00 11367.88 995.93" xmlns="http://www.w3.org/2000/svg" xmlns:xlink="http://www.w3.org/1999/xlink">
<g id="graph0" class="graph" transform="scale(1 1) rotate(0) translate(4 991.93)">
<title>G</title>
<polygon fill="white" stroke="none" points="-4,4 -4,-991.93 11363.88,-991.93 11363.88,4 -4,4"/>
<!-- 0 -->
<g id="node1" class="node">
<title>0</title>
<ellipse fill="none" stroke="black" cx="6574.23" cy="-958.94" rx="39.07" ry="18"/>
<text text-anchor="middle" x="6574.23" y="-953.89" font-family="Times New Roman,serif" font-size="14.00">START</text>
</g>
<!-- 0&#45;&gt;0 -->
<g id="edge1" class="edge">
<title>0&#45;&gt;0</title>
<path fill="none" stroke="black" d="M6599.17,-973.2C6615.5,-977.07 6631.3,-972.31 6631.3,-958.94 6631.3,-948.7 6622.04,-943.52 6610.36,-943.38"/>
<polygon fill="black" stroke="black" points="6610.2,-939.88 6600.67,-944.5 6611.01,-946.83 6610.2,-939.88"/>
</g>
<!-- 1 -->
<g id="node2" class="node">
<title>1</title>
<ellipse fill="none" stroke="black" cx="779.23" cy="-306" rx="29.86" ry="18"/>
<text text-anchor="middle" x="779.23" y="-300.95" font-family="Times New Roman,serif" font-size="14.00">input</text>
</g>
<!-- 2 -->
<g id="node3" class="node">
<title>2</title>
<ellipse fill="none" stroke="black" cx="8205.23" cy="-543.98" rx="100.48" ry="18"/>
<text text-anchor="middle" x="8205.23" y="-538.93" font-family="Times New Roman,serif" font-size="14.00">Jump to: [tribunalHUB]</text>
</g>
<!-- 3 -->
<g id="node4" class="node">
<title>3</title>
<ellipse fill="none" stroke="black" cx="2553.23" cy="-388.99" rx="314.42" ry="18"/>
<text text-anchor="middle" x="2553.23" y="-383.94" font-family="Times New Roman,serif" font-size="14.00">Reaction Speed: 你只剩下*一次*争辩的时间，选择明智一些……</text>
</g>
<!-- 8 -->
<g id="node9" class="node">
<title>8</title>
<ellipse fill="none" stroke="black" cx="1637.23" cy="-306" rx="810.36" ry="18"/>
<text text-anchor="middle" x="1637.23" y="-300.95" font-family="Times New Roman,serif" font-size="14.00">Kortenaer: “当你的工作越来越上手的时候，总会发生这种事。那个名字代表夜袭，他妈的法外私刑……燃烧的村庄。在收音机里听起来绝对他妈的糟糕透顶。”</text>
</g>
<!-- 3&#45;&gt;8 -->
<g id="edge2" class="edge">
<title>3&#45;&gt;8</title>
<path fill="none" stroke="black" d="M2387.09,-373.3C2233.46,-359.72 2004.75,-339.5 1840.34,-324.96"/>
<polygon fill="black" stroke="black" points="1840.89,-321.49 1830.62,-324.1 1840.27,-328.47 1840.89,-321.49"/>
</g>
<!-- 4 -->
<g id="node5" class="node">
<title>4</title>
<ellipse fill="none" stroke="black" cx="4039.23" cy="-388.99" rx="260.57" ry="28.99"/>
<text text-anchor="middle" x="4039.23" y="-392.19" font-family="Times New Roman,serif" font-size="14.00">You: “科奈尔也不代表你拥有私自审判的权利！”</text>
<text text-anchor="middle" x="4039.23" y="-375.69" font-family="Times New Roman,serif" font-size="14.00">“你的雇主给你审判的权利了吗？”</text>
</g>
<!-- 46 -->
<g id="node47" class="node">
<title>46</title>
<ellipse fill="none" stroke="black" cx="4348.23" cy="-306" rx="419.34" ry="18"/>
<text text-anchor="middle" x="4348.23" y="-300.95" font-family="Times New Roman,serif" font-size="14.00">Suggestion: 说点什么。别再无所事事了。谢天谢地，目前为止还只是*徒劳无功*。</text>
</g>
<!-- 4&#45;&gt;46 -->
<g id="edge3" class="edge">
<title>4&#45;&gt;46</title>
<path fill="none" stroke="black" d="M4139.13,-361.81C4182.16,-350.53 4231.68,-337.55 4271.73,-327.05"/>
<polygon fill="black" stroke="black" points="4272.51,-330.47 4281.29,-324.55 4270.73,-323.7 4272.51,-330.47"/>
</g>
<!-- 5 -->
<g id="node6" class="node">
<title>5</title>
<ellipse fill="none" stroke="black" cx="6902.23" cy="-543.98" rx="225.37" ry="18"/>
<text text-anchor="middle" x="6902.23" y="-538.93" font-family="Times New Roman,serif" font-size="14.00">You: “你们曾经叫*深井*。发生什么事了？”</text>
</g>
<!-- 7 -->
<g id="node8" class="node">
<title>7</title>
<ellipse fill="none" stroke="black" cx="7028.23" cy="-471.98" rx="434.18" ry="18"/>
<text text-anchor="middle" x="7028.23" y="-466.93" font-family="Times New Roman,serif" font-size="14.00">Kortenaer: “没人他妈的会关心一个死掉的野人。”他发出轻蔑的鼻音。“这就是现实。”</text>
</g>
<!-- 5&#45;&gt;7 -->
<g id="edge4" class="edge">
<title>5&#45;&gt;7</title>
<path fill="none" stroke="black" d="M6933.38,-525.68C6949.58,-516.68 6969.6,-505.55 6987.07,-495.85"/>
<polygon fill="black" stroke="black" points="6988.64,-498.98 6995.68,-491.06 6985.24,-492.86 6988.64,-498.98"/>
</g>
<!-- 6 -->
<g id="node7" class="node">
<title>6</title>
<ellipse fill="none" stroke="black" cx="8205.23" cy="-709.97" rx="216.15" ry="18"/>
<text text-anchor="middle" x="8205.23" y="-704.92" font-family="Times New Roman,serif" font-size="14.00">You: “这个宣判是违反法律的。国际法。”</text>
</g>
<!-- 53 -->
<g id="node54" class="node">
<title>53</title>
<ellipse fill="none" stroke="black" cx="8205.23" cy="-626.97" rx="292.41" ry="18"/>
<text text-anchor="middle" x="8205.23" y="-621.92" font-family="Times New Roman,serif" font-size="14.00">Suggestion: 真的吗？不管做什么好像都只会激怒他而已。</text>
</g>
<!-- 6&#45;&gt;53 -->
<g id="edge5" class="edge">
<title>6&#45;&gt;53</title>
<path fill="none" stroke="black" d="M8205.23,-691.79C8205.23,-681.66 8205.23,-668.57 8205.23,-656.89"/>
<polygon fill="black" stroke="black" points="8208.73,-656.92 8205.23,-646.92 8201.73,-656.92 8208.73,-656.92"/>
</g>
<!-- 33 -->
<g id="node34" class="node">
<title>33</title>
<ellipse fill="none" stroke="black" cx="6875.23" cy="-626.97" rx="180.33" ry="18"/>
<text text-anchor="middle" x="6875.23" y="-621.92" font-family="Times New Roman,serif" font-size="14.00">Rhetoric: 国际&#45;什么的？！国际法！</text>
</g>
<!-- 7&#45;&gt;33 -->
<g id="edge6" class="edge">
<title>7&#45;&gt;33</title>
<path fill="none" stroke="black" d="M7091.62,-490.16C7109.08,-498.12 7126.01,-509.59 7136.23,-525.98 7144.69,-539.56 7146.11,-549.39 7136.23,-561.98 7118.41,-584.7 7056.81,-600.41 6997.93,-610.58"/>
<polygon fill="black" stroke="black" points="6997.37,-607.12 6988.09,-612.22 6998.53,-614.02 6997.37,-607.12"/>
</g>
<!-- 30 -->
<g id="node31" class="node">
<title>30</title>
<polygon fill="none" stroke="black" points="1354.23,-252 1082.56,-234 1354.23,-216 1625.9,-234 1354.23,-252"/>
<text text-anchor="middle" x="1354.23" y="-228.95" font-family="Times New Roman,serif" font-size="14.00">!(Variable[&quot;tc.crenel_was_whitewater&quot;] == true)</text>
</g>
<!-- 8&#45;&gt;30 -->
<g id="edge7" class="edge">
<title>8&#45;&gt;30</title>
<path fill="none" stroke="black" d="M1566.91,-287.61C1522.34,-276.58 1465.02,-262.4 1421.12,-251.55"/>
<polygon fill="black" stroke="black" points="1422,-248.16 1411.45,-249.15 1420.32,-254.95 1422,-248.16"/>
</g>
<!-- 9 -->
<g id="node10" class="node">
<title>9</title>
<ellipse fill="none" stroke="black" cx="2864.23" cy="-471.98" rx="85.64" ry="18"/>
<text text-anchor="middle" x="2864.23" y="-466.93" font-family="Times New Roman,serif" font-size="14.00">CRENELOHUBBO</text>
</g>
<!-- 9&#45;&gt;3 -->
<g id="edge8" class="edge">
<title>9&#45;&gt;3</title>
<path fill="none" stroke="black" d="M2811.83,-457.34C2762,-444.36 2686.48,-424.69 2629.9,-409.96"/>
<polygon fill="black" stroke="black" points="2630.87,-406.59 2620.31,-407.46 2629.1,-413.37 2630.87,-406.59"/>
</g>
<!-- 9&#45;&gt;4 -->
<g id="edge10" class="edge">
<title>9&#45;&gt;4</title>
<path fill="none" stroke="black" d="M2944.53,-465.45C3120.03,-453.35 3543.31,-424.17 3809.14,-405.85"/>
<polygon fill="black" stroke="black" points="3809.25,-409.35 3818.98,-405.17 3808.77,-402.37 3809.25,-409.35"/>
</g>
<!-- 36 -->
<g id="node37" class="node">
<title>36</title>
<ellipse fill="none" stroke="black" cx="1678.23" cy="-388.99" rx="490.99" ry="18"/>
<text text-anchor="middle" x="1678.23" y="-383.94" font-family="Times New Roman,serif" font-size="14.00">Rhetoric: 现在，放轻松！放轻松。只要告诉他们不是这些人做的。肯定能有和平的解决办法……</text>
</g>
<!-- 9&#45;&gt;36 -->
<g id="edge9" class="edge">
<title>9&#45;&gt;36</title>
<path fill="none" stroke="black" d="M2783.65,-465.48C2607.78,-453.47 2183.82,-424.52 1915.02,-406.16"/>
<polygon fill="black" stroke="black" points="1915.66,-402.7 1905.44,-405.51 1915.18,-409.68 1915.66,-402.7"/>
</g>
<!-- 39 -->
<g id="node40" class="node">
<title>39</title>
<ellipse fill="none" stroke="black" cx="3175.23" cy="-388.99" rx="263.24" ry="18"/>
<text text-anchor="middle" x="3175.23" y="-383.94" font-family="Times New Roman,serif" font-size="14.00">You: “所以说在你们三个之中，你的军衔最高了？”</text>
</g>
<!-- 9&#45;&gt;39 -->
<g id="edge11" class="edge">
<title>9&#45;&gt;39</title>
<path fill="none" stroke="black" d="M2916.64,-457.34C2966.7,-444.3 3042.72,-424.5 3099.4,-409.74"/>
<polygon fill="black" stroke="black" points="3100.2,-413.15 3109,-407.24 3098.44,-406.37 3100.2,-413.15"/>
</g>
<!-- 10 -->
<g id="node11" class="node">
<title>10</title>
<ellipse fill="none" stroke="black" cx="9368.23" cy="-626.97" rx="380.44" ry="18"/>
<text text-anchor="middle" x="9368.23" y="-621.92" font-family="Times New Roman,serif" font-size="14.00">Physical Instrument: 现在开火！干掉他们！动手！你背后的肌肉紧绷起来……</text>
</g>
<!-- 47 -->
<g id="node48" class="node">
<title>47</title>
<ellipse fill="none" stroke="black" cx="8954.23" cy="-958.94" rx="685.36" ry="28.99"/>
<text text-anchor="middle" x="8954.23" y="-962.14" font-family="Times New Roman,serif" font-size="14.00">Kortenaer: “放屁……”他一边说，一边看着你下垂的鬓角——它们似乎让他冷静了一小会。“你根本不知道科奈尔赋予我们的权利。”</text>
<text text-anchor="middle" x="8954.23" y="-945.64" font-family="Times New Roman,serif" font-size="14.00">“放屁……”他说。“你根本不知道科奈尔赋予我们的权利。”</text>
</g>
<!-- 10&#45;&gt;47 -->
<g id="edge12" class="edge">
<title>10&#45;&gt;47</title>
<path fill="none" stroke="black" d="M9173.02,-642.83C9091.68,-659.81 9004.59,-694.42 8954.23,-763.97 8921.67,-808.94 8931.05,-876.45 8941.86,-918.8"/>
<polygon fill="black" stroke="black" points="8938.44,-919.59 8944.44,-928.32 8945.2,-917.76 8938.44,-919.59"/>
</g>
<!-- 11 -->
<g id="node12" class="node">
<title>11</title>
<ellipse fill="none" stroke="black" cx="5429.23" cy="-234" rx="420.37" ry="18"/>
<text text-anchor="middle" x="5429.23" y="-228.95" font-family="Times New Roman,serif" font-size="14.00">Rhetoric: 放轻松，现在……告诉他们不是这些人做的。肯定能有和平的解决办法！</text>
</g>
<!-- 40 -->
<g id="node41" class="node">
<title>40</title>
<ellipse fill="none" stroke="black" cx="5429.23" cy="-162" rx="149.11" ry="18"/>
<text text-anchor="middle" x="5429.23" y="-156.95" font-family="Times New Roman,serif" font-size="14.00">You: 哽住了，什么也不说。</text>
</g>
<!-- 11&#45;&gt;40 -->
<g id="edge13" class="edge">
<title>11&#45;&gt;40</title>
<path fill="none" stroke="black" d="M5429.23,-215.7C5429.23,-208.41 5429.23,-199.73 5429.23,-191.54"/>
<polygon fill="black" stroke="black" points="5432.73,-191.62 5429.23,-181.62 5425.73,-191.62 5432.73,-191.62"/>
</g>
<!-- 12 -->
<g id="node13" class="node">
<title>12</title>
<ellipse fill="none" stroke="black" cx="792.23" cy="-471.98" rx="251.98" ry="18"/>
<text text-anchor="middle" x="792.23" y="-466.93" font-family="Times New Roman,serif" font-size="14.00">Kim Kitsuragi: Variable[&quot;plaza.tribunal_said_they_didnt_do_it&quot;]</text>
</g>
<!-- 12&#45;&gt;12 -->
<g id="edge14" class="edge">
<title>12&#45;&gt;12</title>
<path fill="none" stroke="black" d="M964.91,-485.48C1019.3,-485.27 1062.21,-480.77 1062.21,-471.98 1062.21,-463.81 1025.12,-459.35 976.2,-458.6"/>
<polygon fill="black" stroke="black" points="976.45,-455.1 966.42,-458.5 976.39,-462.1 976.45,-455.1"/>
</g>
<!-- 13 -->
<g id="node14" class="node">
<title>13</title>
<polygon fill="none" stroke="black" points="792.23,-406.99 518.39,-388.99 792.23,-370.99 1066.07,-388.99 792.23,-406.99"/>
<text text-anchor="middle" x="792.23" y="-383.94" font-family="Times New Roman,serif" font-size="14.00">Variable[&quot;plaza.tribunal_said_they_didnt_do_it&quot;]</text>
</g>
<!-- 12&#45;&gt;13 -->
<g id="edge15" class="edge">
<title>12&#45;&gt;13</title>
<path fill="none" stroke="black" d="M792.23,-453.81C792.23,-443.67 792.23,-430.59 792.23,-418.91"/>
<polygon fill="black" stroke="black" points="795.73,-418.94 792.23,-408.94 788.73,-418.94 795.73,-418.94"/>
</g>
<!-- 13&#45;&gt;1 -->
<g id="edge16" class="edge">
<title>13&#45;&gt;1</title>
<path fill="none" stroke="black" d="M789.48,-370.82C787.82,-360.51 785.68,-347.14 783.78,-335.31"/>
<polygon fill="black" stroke="black" points="787.27,-334.96 782.23,-325.65 780.35,-336.07 787.27,-334.96"/>
</g>
<!-- 14 -->
<g id="node15" class="node">
<title>14</title>
<polygon fill="none" stroke="black" points="4704.23,-252 4417.36,-234 4704.23,-216 4991.1,-234 4704.23,-252"/>
<text text-anchor="middle" x="4704.23" y="-228.95" font-family="Times New Roman,serif" font-size="14.00">!(Variable[&quot;plaza.tribunal_said_they_didnt_do_it&quot;])</text>
</g>
<!-- 35 -->
<g id="node36" class="node">
<title>35</title>
<ellipse fill="none" stroke="black" cx="4730.23" cy="-162" rx="90.25" ry="18"/>
<text text-anchor="middle" x="4730.23" y="-156.95" font-family="Times New Roman,serif" font-size="14.00">You: 别说出来。</text>
</g>
<!-- 14&#45;&gt;35 -->
<g id="edge17" class="edge">
<title>14&#45;&gt;35</title>
<path fill="none" stroke="black" d="M4710.53,-216.05C4713.33,-208.52 4716.7,-199.44 4719.86,-190.94"/>
<polygon fill="black" stroke="black" points="4723.09,-192.29 4723.29,-181.69 4716.53,-189.85 4723.09,-192.29"/>
</g>
<!-- 15 -->
<g id="node16" class="node">
<title>15</title>
<ellipse fill="none" stroke="black" cx="6875.23" cy="-958.94" rx="226.39" ry="18"/>
<text text-anchor="middle" x="6875.23" y="-953.89" font-family="Times New Roman,serif" font-size="14.00">Kim Kitsuragi: Variable[&quot;whirling.tribunal_rhetoric_red&quot;]</text>
</g>
<!-- 15&#45;&gt;15 -->
<g id="edge19" class="edge">
<title>15&#45;&gt;15</title>
<path fill="none" stroke="black" d="M7004.11,-974.14C7065.53,-975.96 7119.62,-970.89 7119.62,-958.94 7119.62,-947.73 7072.08,-942.58 7015.53,-943.48"/>
<polygon fill="black" stroke="black" points="7015.54,-939.98 7005.62,-943.71 7015.7,-946.98 7015.54,-939.98"/>
</g>
<!-- 16 -->
<g id="node17" class="node">
<title>16</title>
<polygon fill="none" stroke="black" points="6875.23,-893.95 6637.58,-875.95 6875.23,-857.95 7112.88,-875.95 6875.23,-893.95"/>
<text text-anchor="middle" x="6875.23" y="-870.9" font-family="Times New Roman,serif" font-size="14.00">Variable[&quot;whirling.tribunal_rhetoric_red&quot;]</text>
</g>
<!-- 15&#45;&gt;16 -->
<g id="edge18" class="edge">
<title>15&#45;&gt;16</title>
<path fill="none" stroke="black" d="M6875.23,-940.76C6875.23,-930.63 6875.23,-917.54 6875.23,-905.86"/>
<polygon fill="black" stroke="black" points="6878.73,-905.89 6875.23,-895.89 6871.73,-905.89 6878.73,-905.89"/>
</g>
<!-- 61 -->
<g id="node62" class="node">
<title>61</title>
<ellipse fill="none" stroke="black" cx="6875.23" cy="-792.96" rx="610.59" ry="28.99"/>
<text text-anchor="middle" x="6875.23" y="-796.16" font-family="Times New Roman,serif" font-size="14.00">Rhetoric: 好吧，这么说——这是一场*非法审判*。他们的雇主永远不会*认可*这种事的。谁是*指挥官*？你挑一个！</text>
<text text-anchor="middle" x="6875.23" y="-779.66" font-family="Times New Roman,serif" font-size="14.00">好吧，这么说——这是一场*非法审判*。科奈尔永远不会*认可*这种事的。谁是*指挥官*？你挑一个！</text>
</g>
<!-- 16&#45;&gt;61 -->
<g id="edge20" class="edge">
<title>16&#45;&gt;61</title>
<path fill="none" stroke="black" d="M6875.23,-857.77C6875.23,-850.69 6875.23,-842.15 6875.23,-833.67"/>
<polygon fill="black" stroke="black" points="6878.73,-833.78 6875.23,-823.78 6871.73,-833.78 6878.73,-833.78"/>
</g>
<!-- 17 -->
<g id="node18" class="node">
<title>17</title>
<polygon fill="none" stroke="black" points="6106.23,-489.98 5855.55,-471.98 6106.23,-453.98 6356.91,-471.98 6106.23,-489.98"/>
<text text-anchor="middle" x="6106.23" y="-466.93" font-family="Times New Roman,serif" font-size="14.00">!(Variable[&quot;whirling.tribunal_rhetoric_red&quot;])</text>
</g>
<!-- 32 -->
<g id="node33" class="node">
<title>32</title>
<ellipse fill="none" stroke="black" cx="6106.23" cy="-388.99" rx="433.67" ry="18"/>
<text text-anchor="middle" x="6106.23" y="-383.94" font-family="Times New Roman,serif" font-size="14.00">Kortenaer: “不……只不过是我的枪最大而已。”他敲打着穿着盔甲、宛如枪管的胸膛。</text>
</g>
<!-- 17&#45;&gt;32 -->
<g id="edge21" class="edge">
<title>17&#45;&gt;32</title>
<path fill="none" stroke="black" d="M6106.23,-453.81C6106.23,-443.67 6106.23,-430.59 6106.23,-418.91"/>
<polygon fill="black" stroke="black" points="6109.73,-418.94 6106.23,-408.94 6102.73,-418.94 6109.73,-418.94"/>
</g>
<!-- 18 -->
<g id="node19" class="node">
<title>18</title>
<ellipse fill="none" stroke="black" cx="2864.23" cy="-626.97" rx="395.8" ry="18"/>
<text text-anchor="middle" x="2864.23" y="-621.92" font-family="Times New Roman,serif" font-size="14.00">Kim Kitsuragi: CheckItem(&quot;gun_villiers&quot;) &#160;or &#160;CheckItem(&quot;gun_ruby&quot;) &#160;or &#160;CheckItem(&quot;spirit_bomb&quot;)</text>
</g>
<!-- 18&#45;&gt;18 -->
<g id="edge22" class="edge">
<title>18&#45;&gt;18</title>
<path fill="none" stroke="black" d="M3087.45,-642.26C3189.38,-643.83 3278.03,-638.74 3278.03,-626.97 3278.03,-615.65 3195.83,-610.51 3098.74,-611.54"/>
<polygon fill="black" stroke="black" points="3098.92,-608.04 3088.97,-611.67 3099.01,-615.04 3098.92,-608.04"/>
</g>
<!-- 19 -->
<g id="node20" class="node">
<title>19</title>
<polygon fill="none" stroke="black" points="2864.23,-561.98 2387.73,-543.98 2864.23,-525.98 3340.74,-543.98 2864.23,-561.98"/>
<text text-anchor="middle" x="2864.23" y="-538.93" font-family="Times New Roman,serif" font-size="14.00">CheckItem(&quot;gun_villiers&quot;) &#160;or &#160;CheckItem(&quot;gun_ruby&quot;) &#160;or &#160;CheckItem(&quot;spirit_bomb&quot;)</text>
</g>
<!-- 18&#45;&gt;19 -->
<g id="edge23" class="edge">
<title>18&#45;&gt;19</title>
<path fill="none" stroke="black" d="M2864.23,-608.8C2864.23,-598.67 2864.23,-585.58 2864.23,-573.9"/>
<polygon fill="black" stroke="black" points="2867.73,-573.93 2864.23,-563.93 2860.73,-573.93 2867.73,-573.93"/>
</g>
<!-- 19&#45;&gt;9 -->
<g id="edge24" class="edge">
<title>19&#45;&gt;9</title>
<path fill="none" stroke="black" d="M2864.23,-525.68C2864.23,-518.39 2864.23,-509.71 2864.23,-501.52"/>
<polygon fill="black" stroke="black" points="2867.73,-501.6 2864.23,-491.6 2860.73,-501.6 2867.73,-501.6"/>
</g>
<!-- 20 -->
<g id="node21" class="node">
<title>20</title>
<polygon fill="none" stroke="black" points="9453.23,-810.96 8963.7,-792.96 9453.23,-774.96 9942.77,-792.96 9453.23,-810.96"/>
<text text-anchor="middle" x="9453.23" y="-787.91" font-family="Times New Roman,serif" font-size="14.00">!(CheckItem(&quot;gun_villiers&quot;) &#160;or &#160;CheckItem(&quot;gun_ruby&quot;) &#160;or &#160;CheckItem(&quot;spirit_bomb&quot;))</text>
</g>
<!-- 20&#45;&gt;47 -->
<g id="edge25" class="edge">
<title>20&#45;&gt;47</title>
<path fill="none" stroke="black" d="M9233.57,-803.34C9134.03,-811.75 9030.19,-827.71 8992.23,-857.95 8973.76,-872.66 8964.27,-897.43 8959.39,-918.63"/>
<polygon fill="black" stroke="black" points="8956.01,-917.66 8957.47,-928.15 8962.87,-919.04 8956.01,-917.66"/>
</g>
<!-- 21 -->
<g id="node22" class="node">
<title>21</title>
<ellipse fill="none" stroke="black" cx="10354.23" cy="-958.94" rx="227.93" ry="18"/>
<text text-anchor="middle" x="10354.23" y="-953.89" font-family="Times New Roman,serif" font-size="14.00">You: “等一下，科奈尔的最高军衔是什么？”</text>
</g>
<!-- 63 -->
<g id="node64" class="node">
<title>63</title>
<ellipse fill="none" stroke="black" cx="10354.23" cy="-875.95" rx="284.74" ry="18"/>
<text text-anchor="middle" x="10354.23" y="-870.9" font-family="Times New Roman,serif" font-size="14.00">Kortenaer: “收割者之王，”他的口气听不出一丝的讽刺。</text>
</g>
<!-- 21&#45;&gt;63 -->
<g id="edge26" class="edge">
<title>21&#45;&gt;63</title>
<path fill="none" stroke="black" d="M10354.23,-940.76C10354.23,-930.63 10354.23,-917.54 10354.23,-905.86"/>
<polygon fill="black" stroke="black" points="10357.73,-905.89 10354.23,-895.89 10350.73,-905.89 10357.73,-905.89"/>
</g>
<!-- 22 -->
<g id="node23" class="node">
<title>22</title>
<ellipse fill="none" stroke="black" cx="10749.23" cy="-958.94" rx="149.11" ry="18"/>
<text text-anchor="middle" x="10749.23" y="-953.89" font-family="Times New Roman,serif" font-size="14.00">You: 快点，给我想个说法！</text>
</g>
<!-- 22&#45;&gt;22 -->
<g id="edge27" class="edge">
<title>22&#45;&gt;22</title>
<path fill="none" stroke="black" d="M10835.21,-974.04C10878.09,-976.13 10916.34,-971.1 10916.34,-958.94 10916.34,-947.87 10884.66,-942.71 10846.63,-943.45"/>
<polygon fill="black" stroke="black" points="10846.6,-939.95 10836.72,-943.79 10846.84,-946.94 10846.6,-939.95"/>
</g>
<!-- 23 -->
<g id="node24" class="node">
<title>23</title>
<ellipse fill="none" stroke="black" cx="11122.23" cy="-958.94" rx="188" ry="18"/>
<text text-anchor="middle" x="11122.23" y="-953.89" font-family="Times New Roman,serif" font-size="14.00">You: Variable[&quot;whirling.tribunal_rhetoric_red&quot;]</text>
</g>
<!-- 23&#45;&gt;23 -->
<g id="edge29" class="edge">
<title>23&#45;&gt;23</title>
<path fill="none" stroke="black" d="M11230.07,-974.11C11282.18,-976.01 11328.24,-970.95 11328.24,-958.94 11328.24,-947.82 11288.76,-942.66 11241.56,-943.46"/>
<polygon fill="black" stroke="black" points="11241.49,-939.96 11231.59,-943.73 11241.68,-946.96 11241.49,-939.96"/>
</g>
<!-- 24 -->
<g id="node25" class="node">
<title>24</title>
<polygon fill="none" stroke="black" points="11122.23,-893.95 10884.58,-875.95 11122.23,-857.95 11359.88,-875.95 11122.23,-893.95"/>
<text text-anchor="middle" x="11122.23" y="-870.9" font-family="Times New Roman,serif" font-size="14.00">Variable[&quot;whirling.tribunal_rhetoric_red&quot;]</text>
</g>
<!-- 23&#45;&gt;24 -->
<g id="edge28" class="edge">
<title>23&#45;&gt;24</title>
<path fill="none" stroke="black" d="M11122.23,-940.76C11122.23,-930.63 11122.23,-917.54 11122.23,-905.86"/>
<polygon fill="black" stroke="black" points="11125.73,-905.89 11122.23,-895.89 11118.73,-905.89 11125.73,-905.89"/>
</g>
<!-- 25 -->
<g id="node26" class="node">
<title>25</title>
<polygon fill="none" stroke="black" points="3188.23,-108 2937.55,-90 3188.23,-72 3438.91,-90 3188.23,-108"/>
<text text-anchor="middle" x="3188.23" y="-84.95" font-family="Times New Roman,serif" font-size="14.00">!(Variable[&quot;whirling.tribunal_rhetoric_red&quot;])</text>
</g>
<!-- 26 -->
<g id="node27" class="node">
<title>26</title>
<ellipse fill="none" stroke="black" cx="4611.23" cy="-471.98" rx="234.58" ry="18"/>
<text text-anchor="middle" x="4611.23" y="-466.93" font-family="Times New Roman,serif" font-size="14.00">De Paule: “我们他妈的哪儿也不去，西奥人！”</text>
</g>
<!-- 67 -->
<g id="node68" class="node">
<title>67</title>
<ellipse fill="none" stroke="black" cx="5364.23" cy="-875.95" rx="221.78" ry="18"/>
<text text-anchor="middle" x="5364.23" y="-870.9" font-family="Times New Roman,serif" font-size="14.00">Kim Kitsuragi: Variable[&quot;plaza.tribunal_gardener_shot&quot;]</text>
</g>
<!-- 26&#45;&gt;67 -->
<g id="edge30" class="edge">
<title>26&#45;&gt;67</title>
<path fill="none" stroke="black" d="M4576.38,-490.27C4562.12,-499.06 4546.76,-511.07 4537.23,-525.98 4512.88,-564.1 4518.23,-580.74 4518.23,-625.97 4518.23,-710.97 4518.23,-710.97 4518.23,-710.97 4518.23,-780.72 4967.27,-835.88 5211.06,-860.68"/>
<polygon fill="black" stroke="black" points="5210.35,-864.12 5220.65,-861.65 5211.05,-857.16 5210.35,-864.12"/>
</g>
<!-- 27 -->
<g id="node28" class="node">
<title>27</title>
<ellipse fill="none" stroke="black" cx="6875.23" cy="-709.97" rx="498.16" ry="18"/>
<text text-anchor="middle" x="6875.23" y="-704.92" font-family="Times New Roman,serif" font-size="14.00">Kortenaer: “你说的没错。但是你也看见了……”他停了一会儿，笑了笑。“我*想*以流血冲突结束。”</text>
</g>
<!-- 27&#45;&gt;33 -->
<g id="edge31" class="edge">
<title>27&#45;&gt;33</title>
<path fill="none" stroke="black" d="M6875.23,-691.79C6875.23,-681.66 6875.23,-668.57 6875.23,-656.89"/>
<polygon fill="black" stroke="black" points="6878.73,-656.92 6875.23,-646.92 6871.73,-656.92 6878.73,-656.92"/>
</g>
<!-- 28 -->
<g id="node29" class="node">
<title>28</title>
<ellipse fill="none" stroke="black" cx="241.23" cy="-388.99" rx="241.23" ry="18"/>
<text text-anchor="middle" x="241.23" y="-383.94" font-family="Times New Roman,serif" font-size="14.00">Kim Kitsuragi: Variable[&quot;tc.crenel_was_whitewater&quot;] == true</text>
</g>
<!-- 28&#45;&gt;28 -->
<g id="edge32" class="edge">
<title>28&#45;&gt;28</title>
<path fill="none" stroke="black" d="M378.59,-404.21C443.48,-405.98 500.46,-400.91 500.46,-388.99 500.46,-377.78 449.96,-372.62 389.91,-373.53"/>
<polygon fill="black" stroke="black" points="390.03,-370.03 380.11,-373.74 390.18,-377.03 390.03,-370.03"/>
</g>
<!-- 29 -->
<g id="node30" class="node">
<title>29</title>
<polygon fill="none" stroke="black" points="364.23,-324 105.59,-306 364.23,-288 622.87,-306 364.23,-324"/>
<text text-anchor="middle" x="364.23" y="-300.95" font-family="Times New Roman,serif" font-size="14.00">Variable[&quot;tc.crenel_was_whitewater&quot;] == true</text>
</g>
<!-- 28&#45;&gt;29 -->
<g id="edge33" class="edge">
<title>28&#45;&gt;29</title>
<path fill="none" stroke="black" d="M267.62,-370.62C286.1,-358.45 310.94,-342.09 330.8,-329.01"/>
<polygon fill="black" stroke="black" points="332.7,-331.96 339.12,-323.53 328.85,-326.11 332.7,-331.96"/>
</g>
<!-- 62 -->
<g id="node63" class="node">
<title>62</title>
<ellipse fill="none" stroke="black" cx="615.23" cy="-234" rx="308.28" ry="18"/>
<text text-anchor="middle" x="615.23" y="-228.95" font-family="Times New Roman,serif" font-size="14.00">Encyclopedia: 我也知道一些*琐事*！引起他对现实的*兴趣*！</text>
</g>
<!-- 29&#45;&gt;62 -->
<g id="edge34" class="edge">
<title>29&#45;&gt;62</title>
<path fill="none" stroke="black" d="M414.42,-291C451.25,-280.73 501.8,-266.63 542.97,-255.15"/>
<polygon fill="black" stroke="black" points="543.89,-258.53 552.58,-252.47 542.01,-251.79 543.89,-258.53"/>
</g>
<!-- 52 -->
<g id="node53" class="node">
<title>52</title>
<ellipse fill="none" stroke="black" cx="1055.23" cy="-162" rx="100.48" ry="18"/>
<text text-anchor="middle" x="1055.23" y="-156.95" font-family="Times New Roman,serif" font-size="14.00">Jump to: [tribunalHUB]</text>
</g>
<!-- 30&#45;&gt;52 -->
<g id="edge35" class="edge">
<title>30&#45;&gt;52</title>
<path fill="none" stroke="black" d="M1296.23,-219.42C1247.5,-208.01 1177.69,-191.67 1125.74,-179.51"/>
<polygon fill="black" stroke="black" points="1126.62,-176.12 1116.08,-177.25 1125.02,-182.93 1126.62,-176.12"/>
</g>
<!-- 31 -->
<g id="node32" class="node">
<title>31</title>
<ellipse fill="none" stroke="black" cx="3188.23" cy="-306" rx="722.84" ry="18"/>
<text text-anchor="middle" x="3188.23" y="-300.95" font-family="Times New Roman,serif" font-size="14.00">Kortenaer: “当我们被称作是*不知道哪里来的混账*的时候，就会发生相同的事。不过也许*科奈尔*这个名字也叫不了太久……”他看了看周围。</text>
</g>
<!-- 54 -->
<g id="node55" class="node">
<title>54</title>
<ellipse fill="none" stroke="black" cx="3188.23" cy="-234" rx="548.83" ry="18"/>
<text text-anchor="middle" x="3188.23" y="-228.95" font-family="Times New Roman,serif" font-size="14.00">Kortenaer: 大个子男人笑了。“看看你周围，都是牲畜……我们会宰了你们这群人！你的*国际法*去哪里了？”</text>
</g>
<!-- 31&#45;&gt;54 -->
<g id="edge36" class="edge">
<title>31&#45;&gt;54</title>
<path fill="none" stroke="black" d="M3188.23,-287.7C3188.23,-280.41 3188.23,-271.73 3188.23,-263.54"/>
<polygon fill="black" stroke="black" points="3191.73,-263.62 3188.23,-253.62 3184.73,-263.62 3191.73,-263.62"/>
</g>
<!-- 58 -->
<g id="node59" class="node">
<title>58</title>
<ellipse fill="none" stroke="black" cx="6106.23" cy="-306" rx="516.07" ry="18"/>
<text text-anchor="middle" x="6106.23" y="-300.95" font-family="Times New Roman,serif" font-size="14.00">Rhetoric: 别说出来？但现在你只是站在那里，花了1.5秒时间挠屁股，你觉得这样能有什么*帮助*吗？</text>
</g>
<!-- 32&#45;&gt;58 -->
<g id="edge37" class="edge">
<title>32&#45;&gt;58</title>
<path fill="none" stroke="black" d="M6106.23,-370.82C6106.23,-360.68 6106.23,-347.6 6106.23,-335.91"/>
<polygon fill="black" stroke="black" points="6109.73,-335.94 6106.23,-325.94 6102.73,-335.94 6109.73,-335.94"/>
</g>
<!-- 33&#45;&gt;5 -->
<g id="edge39" class="edge">
<title>33&#45;&gt;5</title>
<path fill="none" stroke="black" d="M6880.96,-608.8C6884.41,-598.45 6888.88,-585.03 6892.84,-573.16"/>
<polygon fill="black" stroke="black" points="6896.1,-574.44 6895.94,-563.85 6889.46,-572.23 6896.1,-574.44"/>
</g>
<!-- 34 -->
<g id="node35" class="node">
<title>34</title>
<ellipse fill="none" stroke="black" cx="6106.23" cy="-543.98" rx="552.41" ry="18"/>
<text text-anchor="middle" x="6106.23" y="-538.93" font-family="Times New Roman,serif" font-size="14.00">Rhetoric: 好吧——不怎么样。但是他开始想*别的事*了。而且他的手没放在枪上。这样还是有点*效果*的……</text>
</g>
<!-- 33&#45;&gt;34 -->
<g id="edge38" class="edge">
<title>33&#45;&gt;34</title>
<path fill="none" stroke="black" d="M6754.23,-613.23C6625.51,-599.67 6420.88,-578.12 6276.05,-562.87"/>
<polygon fill="black" stroke="black" points="6276.67,-559.41 6266.36,-561.85 6275.94,-566.38 6276.67,-559.41"/>
</g>
<!-- 34&#45;&gt;17 -->
<g id="edge40" class="edge">
<title>34&#45;&gt;17</title>
<path fill="none" stroke="black" d="M6106.23,-525.68C6106.23,-518.39 6106.23,-509.71 6106.23,-501.52"/>
<polygon fill="black" stroke="black" points="6109.73,-501.6 6106.23,-491.6 6102.73,-501.6 6109.73,-501.6"/>
</g>
<!-- 57 -->
<g id="node58" class="node">
<title>57</title>
<polygon fill="none" stroke="black" points="4782.23,-108 4538.07,-90 4782.23,-72 5026.4,-90 4782.23,-108"/>
<text text-anchor="middle" x="4782.23" y="-84.95" font-family="Times New Roman,serif" font-size="14.00">!(Variable[&quot;plaza.tribunal_gardener_shot&quot;])</text>
</g>
<!-- 35&#45;&gt;57 -->
<g id="edge41" class="edge">
<title>35&#45;&gt;57</title>
<path fill="none" stroke="black" d="M4743.09,-143.7C4749.25,-135.4 4756.74,-125.31 4763.52,-116.19"/>
<polygon fill="black" stroke="black" points="4766.18,-118.47 4769.34,-108.36 4760.56,-114.3 4766.18,-118.47"/>
</g>
<!-- 36&#45;&gt;1 -->
<g id="edge42" class="edge">
<title>36&#45;&gt;1</title>
<path fill="none" stroke="black" d="M1353.64,-375.12C1153.6,-364.99 917.06,-348.46 818.23,-324 816.22,-323.5 814.19,-322.91 812.15,-322.25"/>
<polygon fill="black" stroke="black" points="813.47,-319.01 802.88,-318.75 811,-325.56 813.47,-319.01"/>
</g>
<!-- 37 -->
<g id="node38" class="node">
<title>37</title>
<ellipse fill="none" stroke="black" cx="10354.23" cy="-792.96" rx="393.68" ry="28.99"/>
<text text-anchor="middle" x="10354.23" y="-796.16" font-family="Times New Roman,serif" font-size="14.00">You: “有个问题——你们的上校死后，谁负责你们这个部队？”</text>
<text text-anchor="middle" x="10354.23" y="-779.66" font-family="Times New Roman,serif" font-size="14.00">“我只想明确一点——你们的上校死后，你是这个小队的正式负责人吗？”</text>
</g>
<!-- 50 -->
<g id="node51" class="node">
<title>50</title>
<polygon fill="none" stroke="black" points="9802.23,-727.97 9515.36,-709.97 9802.23,-691.97 10089.1,-709.97 9802.23,-727.97"/>
<text text-anchor="middle" x="9802.23" y="-704.92" font-family="Times New Roman,serif" font-size="14.00">!(Variable[&quot;plaza.tribunal_said_they_didnt_do_it&quot;])</text>
</g>
<!-- 37&#45;&gt;50 -->
<g id="edge43" class="edge">
<title>37&#45;&gt;50</title>
<path fill="none" stroke="black" d="M10180.71,-766.5C10086.86,-752.73 9974.59,-736.25 9896.82,-724.84"/>
<polygon fill="black" stroke="black" points="9897.5,-721.41 9887.09,-723.42 9896.48,-728.33 9897.5,-721.41"/>
</g>
<!-- 38 -->
<g id="node39" class="node">
<title>38</title>
<ellipse fill="none" stroke="black" cx="5041.23" cy="-543.98" rx="494.58" ry="18"/>
<text text-anchor="middle" x="5041.23" y="-538.93" font-family="Times New Roman,serif" font-size="14.00">You: “那就作为这个团体的领导——重新考虑一下你的行动。这一切不需要以流血冲突结束的。”</text>
</g>
<!-- 38&#45;&gt;26 -->
<g id="edge44" class="edge">
<title>38&#45;&gt;26</title>
<path fill="none" stroke="black" d="M4936.32,-525.9C4870.63,-515.21 4786.17,-501.46 4719.8,-490.66"/>
<polygon fill="black" stroke="black" points="4720.4,-487.21 4709.96,-489.06 4719.27,-494.12 4720.4,-487.21"/>
</g>
<!-- 39&#45;&gt;31 -->
<g id="edge45" class="edge">
<title>39&#45;&gt;31</title>
<path fill="none" stroke="black" d="M3177.99,-370.82C3179.63,-360.58 3181.76,-347.32 3183.65,-335.55"/>
<polygon fill="black" stroke="black" points="3187.07,-336.35 3185.19,-325.93 3180.15,-335.24 3187.07,-336.35"/>
</g>
<!-- 44 -->
<g id="node45" class="node">
<title>44</title>
<ellipse fill="none" stroke="black" cx="5403.23" cy="-90" rx="255.56" ry="18"/>
<text text-anchor="middle" x="5403.23" y="-84.95" font-family="Times New Roman,serif" font-size="14.00">The Gardener: 女人变得更加安静，呼吸也变浅了。</text>
</g>
<!-- 40&#45;&gt;44 -->
<g id="edge46" class="edge">
<title>40&#45;&gt;44</title>
<path fill="none" stroke="black" d="M5422.81,-143.7C5420,-136.15 5416.65,-127.12 5413.51,-118.68"/>
<polygon fill="black" stroke="black" points="5416.88,-117.68 5410.11,-109.52 5410.31,-120.12 5416.88,-117.68"/>
</g>
<!-- 41 -->
<g id="node42" class="node">
<title>41</title>
<ellipse fill="none" stroke="black" cx="5092.23" cy="-18" rx="100.48" ry="18"/>
<text text-anchor="middle" x="5092.23" y="-12.95" font-family="Times New Roman,serif" font-size="14.00">Jump to: [tribunalHUB]</text>
</g>
<!-- 42 -->
<g id="node43" class="node">
<title>42</title>
<ellipse fill="none" stroke="black" cx="6118.23" cy="-709.97" rx="214.11" ry="18"/>
<text text-anchor="middle" x="6118.23" y="-704.92" font-family="Times New Roman,serif" font-size="14.00">Kortenaer: “发生这件破事之后就不会了。”</text>
</g>
<!-- 42&#45;&gt;33 -->
<g id="edge47" class="edge">
<title>42&#45;&gt;33</title>
<path fill="none" stroke="black" d="M6247.08,-695.18C6385.66,-680.35 6604.85,-656.9 6744.25,-641.99"/>
<polygon fill="black" stroke="black" points="6744.33,-645.5 6753.9,-640.96 6743.58,-638.54 6744.33,-645.5"/>
</g>
<!-- 43 -->
<g id="node44" class="node">
<title>43</title>
<ellipse fill="none" stroke="black" cx="5179.23" cy="-306" rx="393.24" ry="18"/>
<text text-anchor="middle" x="5179.23" y="-300.95" font-family="Times New Roman,serif" font-size="14.00">Suggestion: 这次没人中枪简直就是*奇迹*。别再想用你的*脑子*了。没用的！</text>
</g>
<!-- 43&#45;&gt;11 -->
<g id="edge48" class="edge">
<title>43&#45;&gt;11</title>
<path fill="none" stroke="black" d="M5240.71,-287.79C5275.84,-277.95 5320.09,-265.56 5356.9,-255.25"/>
<polygon fill="black" stroke="black" points="5357.42,-258.74 5366.1,-252.68 5355.53,-252 5357.42,-258.74"/>
</g>
<!-- 44&#45;&gt;41 -->
<g id="edge49" class="edge">
<title>44&#45;&gt;41</title>
<path fill="none" stroke="black" d="M5329.14,-72.32C5279.19,-61.08 5213.65,-46.33 5164.17,-35.19"/>
<polygon fill="black" stroke="black" points="5165.23,-31.84 5154.71,-33.06 5163.69,-38.67 5165.23,-31.84"/>
</g>
<!-- 45 -->
<g id="node46" class="node">
<title>45</title>
<ellipse fill="none" stroke="black" cx="5364.23" cy="-709.97" rx="468.99" ry="18"/>
<text text-anchor="middle" x="5364.23" y="-704.92" font-family="Times New Roman,serif" font-size="14.00">Rhetoric: 所以你就这么*干站*在这里！？这样不好，很不好，马上说，要不就做点什么啊！</text>
</g>
<!-- 51 -->
<g id="node52" class="node">
<title>51</title>
<ellipse fill="none" stroke="black" cx="5364.23" cy="-626.97" rx="817.95" ry="28.99"/>
<text text-anchor="middle" x="5364.23" y="-630.17" font-family="Times New Roman,serif" font-size="14.00">Kortenaer: “我是一名科奈尔少校，拥有15年以上的实战经验。我们的上校被那帮土猴子吊死之后，我负责领导小队进行*报复打击*。”</text>
<text text-anchor="middle" x="5364.23" y="-613.67" font-family="Times New Roman,serif" font-size="14.00">“是我，我他妈*告诉*过你了——我是科奈尔的一名少校，有十五年的作战经验。我们的上校被这群泥猴子吊死之后，就由我来引导这次报复打击行动。”</text>
</g>
<!-- 45&#45;&gt;51 -->
<g id="edge50" class="edge">
<title>45&#45;&gt;51</title>
<path fill="none" stroke="black" d="M5364.23,-691.79C5364.23,-684.7 5364.23,-676.17 5364.23,-667.68"/>
<polygon fill="black" stroke="black" points="5367.73,-667.79 5364.23,-657.79 5360.73,-667.79 5367.73,-667.79"/>
</g>
<!-- 46&#45;&gt;11 -->
<g id="edge51" class="edge">
<title>46&#45;&gt;11</title>
<path fill="none" stroke="black" d="M4573.53,-290.41C4754.6,-278.69 5008.2,-262.26 5192.29,-250.34"/>
<polygon fill="black" stroke="black" points="5192.5,-253.84 5202.25,-249.7 5192.05,-246.85 5192.5,-253.84"/>
</g>
<!-- 59 -->
<g id="node60" class="node">
<title>59</title>
<ellipse fill="none" stroke="black" cx="9513.23" cy="-875.95" rx="511.98" ry="18"/>
<text text-anchor="middle" x="9513.23" y="-870.9" font-family="Times New Roman,serif" font-size="14.00">Hand/Eye Coordination: 从严格意义上讲，另一个人的枪才是最大的，不过……现在那个话题已经过了。</text>
</g>
<!-- 47&#45;&gt;59 -->
<g id="edge53" class="edge">
<title>47&#45;&gt;59</title>
<path fill="none" stroke="black" d="M9142.7,-930.63C9222.28,-919.1 9312.91,-905.97 9384.62,-895.58"/>
<polygon fill="black" stroke="black" points="9385.07,-899.05 9394.47,-894.16 9384.07,-892.13 9385.07,-899.05"/>
</g>
<!-- 65 -->
<g id="node66" class="node">
<title>65</title>
<ellipse fill="none" stroke="black" cx="8726.23" cy="-875.95" rx="169.07" ry="18"/>
<text text-anchor="middle" x="8726.23" y="-870.9" font-family="Times New Roman,serif" font-size="14.00">You: “好吧。那都是什么权利？”</text>
</g>
<!-- 47&#45;&gt;65 -->
<g id="edge52" class="edge">
<title>47&#45;&gt;65</title>
<path fill="none" stroke="black" d="M8874.81,-929.73C8844.86,-919.09 8811.39,-907.2 8783.81,-897.4"/>
<polygon fill="black" stroke="black" points="8785.18,-894.17 8774.58,-894.12 8782.84,-900.77 8785.18,-894.17"/>
</g>
<!-- 48 -->
<g id="node49" class="node">
<title>48</title>
<ellipse fill="none" stroke="black" cx="6892.23" cy="-306" rx="251.98" ry="18"/>
<text text-anchor="middle" x="6892.23" y="-300.95" font-family="Times New Roman,serif" font-size="14.00">Kim Kitsuragi: Variable[&quot;plaza.tribunal_said_they_didnt_do_it&quot;]</text>
</g>
<!-- 48&#45;&gt;48 -->
<g id="edge54" class="edge">
<title>48&#45;&gt;48</title>
<path fill="none" stroke="black" d="M7064.91,-319.49C7119.3,-319.29 7162.21,-314.79 7162.21,-306 7162.21,-297.83 7125.12,-293.37 7076.2,-292.61"/>
<polygon fill="black" stroke="black" points="7076.45,-289.12 7066.42,-292.52 7076.39,-296.12 7076.45,-289.12"/>
</g>
<!-- 49 -->
<g id="node50" class="node">
<title>49</title>
<polygon fill="none" stroke="black" points="6641.23,-252 6367.39,-234 6641.23,-216 6915.07,-234 6641.23,-252"/>
<text text-anchor="middle" x="6641.23" y="-228.95" font-family="Times New Roman,serif" font-size="14.00">Variable[&quot;plaza.tribunal_said_they_didnt_do_it&quot;]</text>
</g>
<!-- 48&#45;&gt;49 -->
<g id="edge55" class="edge">
<title>48&#45;&gt;49</title>
<path fill="none" stroke="black" d="M6831.47,-288.05C6792.43,-277.17 6741.89,-263.07 6702.71,-252.14"/>
<polygon fill="black" stroke="black" points="6703.75,-248.8 6693.18,-249.49 6701.87,-255.54 6703.75,-248.8"/>
</g>
<!-- 49&#45;&gt;40 -->
<g id="edge56" class="edge">
<title>49&#45;&gt;40</title>
<path fill="none" stroke="black" d="M6499.53,-224.82C6266.87,-211.38 5806.44,-184.79 5572.65,-171.28"/>
<polygon fill="black" stroke="black" points="5573.05,-167.8 5562.86,-170.72 5572.64,-174.79 5573.05,-167.8"/>
</g>
<!-- 50&#45;&gt;10 -->
<g id="edge57" class="edge">
<title>50&#45;&gt;10</title>
<path fill="none" stroke="black" d="M9732.5,-695.95C9661.56,-682.71 9550.85,-662.05 9470.1,-646.98"/>
<polygon fill="black" stroke="black" points="9470.87,-643.57 9460.4,-645.17 9469.58,-650.45 9470.87,-643.57"/>
</g>
<!-- 51&#45;&gt;38 -->
<g id="edge58" class="edge">
<title>51&#45;&gt;38</title>
<path fill="none" stroke="black" d="M5252.17,-597.87C5209.13,-587.08 5160.9,-574.99 5121.43,-565.09"/>
<polygon fill="black" stroke="black" points="5122.3,-561.7 5111.75,-562.66 5120.59,-568.49 5122.3,-561.7"/>
</g>
<!-- 53&#45;&gt;2 -->
<g id="edge59" class="edge">
<title>53&#45;&gt;2</title>
<path fill="none" stroke="black" d="M8205.23,-608.8C8205.23,-598.67 8205.23,-585.58 8205.23,-573.9"/>
<polygon fill="black" stroke="black" points="8208.73,-573.93 8205.23,-563.93 8201.73,-573.93 8208.73,-573.93"/>
</g>
<!-- 66 -->
<g id="node67" class="node">
<title>66</title>
<ellipse fill="none" stroke="black" cx="3188.23" cy="-162" rx="587.73" ry="18"/>
<text text-anchor="middle" x="3188.23" y="-156.95" font-family="Times New Roman,serif" font-size="14.00">Kim Kitsuragi: “这样会产生分歧的——但是并不需要这样。我们进去，讨论一下我们的调查结果。我们有重要的……”</text>
</g>
<!-- 54&#45;&gt;66 -->
<g id="edge60" class="edge">
<title>54&#45;&gt;66</title>
<path fill="none" stroke="black" d="M3188.23,-215.7C3188.23,-208.41 3188.23,-199.73 3188.23,-191.54"/>
<polygon fill="black" stroke="black" points="3191.73,-191.62 3188.23,-181.62 3184.73,-191.62 3191.73,-191.62"/>
</g>
<!-- 55 -->
<g id="node56" class="node">
<title>55</title>
<ellipse fill="none" stroke="black" cx="5179.23" cy="-471.98" rx="221.78" ry="18"/>
<text text-anchor="middle" x="5179.23" y="-466.93" font-family="Times New Roman,serif" font-size="14.00">Kim Kitsuragi: Variable[&quot;plaza.tribunal_gardener_shot&quot;]</text>
</g>
<!-- 55&#45;&gt;55 -->
<g id="edge62" class="edge">
<title>55&#45;&gt;55</title>
<path fill="none" stroke="black" d="M5331.14,-485.48C5380.14,-485.36 5419.02,-480.86 5419.02,-471.98 5419.02,-463.8 5385.97,-459.34 5342.42,-458.59"/>
<polygon fill="black" stroke="black" points="5342.69,-455.1 5332.65,-458.5 5342.62,-462.1 5342.69,-455.1"/>
</g>
<!-- 56 -->
<g id="node57" class="node">
<title>56</title>
<polygon fill="none" stroke="black" points="5179.23,-406.99 4948.1,-388.99 5179.23,-370.99 5410.37,-388.99 5179.23,-406.99"/>
<text text-anchor="middle" x="5179.23" y="-383.94" font-family="Times New Roman,serif" font-size="14.00">Variable[&quot;plaza.tribunal_gardener_shot&quot;]</text>
</g>
<!-- 55&#45;&gt;56 -->
<g id="edge61" class="edge">
<title>55&#45;&gt;56</title>
<path fill="none" stroke="black" d="M5179.23,-453.81C5179.23,-443.67 5179.23,-430.59 5179.23,-418.91"/>
<polygon fill="black" stroke="black" points="5182.73,-418.94 5179.23,-408.94 5175.73,-418.94 5182.73,-418.94"/>
</g>
<!-- 56&#45;&gt;43 -->
<g id="edge63" class="edge">
<title>56&#45;&gt;43</title>
<path fill="none" stroke="black" d="M5179.23,-370.82C5179.23,-360.68 5179.23,-347.6 5179.23,-335.91"/>
<polygon fill="black" stroke="black" points="5182.73,-335.94 5179.23,-325.94 5175.73,-335.94 5182.73,-335.94"/>
</g>
<!-- 57&#45;&gt;41 -->
<g id="edge64" class="edge">
<title>57&#45;&gt;41</title>
<path fill="none" stroke="black" d="M4840.54,-75.83C4891.57,-64.31 4965.88,-47.53 5020.54,-35.19"/>
<polygon fill="black" stroke="black" points="5021.08,-38.66 5030.06,-33.04 5019.54,-31.83 5021.08,-38.66"/>
</g>
<!-- 58&#45;&gt;11 -->
<g id="edge65" class="edge">
<title>58&#45;&gt;11</title>
<path fill="none" stroke="black" d="M5946.22,-288.46C5840.96,-277.57 5703.46,-263.35 5596.72,-252.32"/>
<polygon fill="black" stroke="black" points="5597.32,-248.86 5587.01,-251.31 5596.6,-255.82 5597.32,-248.86"/>
</g>
<!-- 59&#45;&gt;20 -->
<g id="edge66" class="edge">
<title>59&#45;&gt;20</title>
<path fill="none" stroke="black" d="M9500.51,-857.77C9492.34,-846.75 9481.58,-832.22 9472.39,-819.81"/>
<polygon fill="black" stroke="black" points="9475.4,-818 9466.63,-812.05 9469.77,-822.17 9475.4,-818"/>
</g>
<!-- 59&#45;&gt;37 -->
<g id="edge67" class="edge">
<title>59&#45;&gt;37</title>
<path fill="none" stroke="black" d="M9683.93,-858.51C9805.81,-846.77 9971.62,-830.8 10107.83,-817.69"/>
<polygon fill="black" stroke="black" points="10108.12,-821.17 10117.74,-816.73 10107.45,-814.21 10108.12,-821.17"/>
</g>
<!-- 60 -->
<g id="node61" class="node">
<title>60</title>
<ellipse fill="none" stroke="black" cx="8205.23" cy="-875.95" rx="322.1" ry="18"/>
<text text-anchor="middle" x="8205.23" y="-870.9" font-family="Times New Roman,serif" font-size="14.00">You: “我不在乎。反正不能杀害平民百姓和当地的执法人员。”</text>
</g>
<!-- 64 -->
<g id="node65" class="node">
<title>64</title>
<ellipse fill="none" stroke="black" cx="8205.23" cy="-792.96" rx="701.86" ry="18"/>
<text text-anchor="middle" x="8205.23" y="-787.91" font-family="Times New Roman,serif" font-size="14.00">Kortenaer: “如果我他妈的杀了你，把你吊在街灯上……”他的手指往那个方向。“……用你的肠子把你吊起来——那才叫*必要的武力展示*。”</text>
</g>
<!-- 60&#45;&gt;64 -->
<g id="edge68" class="edge">
<title>60&#45;&gt;64</title>
<path fill="none" stroke="black" d="M8205.23,-857.77C8205.23,-847.64 8205.23,-834.55 8205.23,-822.87"/>
<polygon fill="black" stroke="black" points="8208.73,-822.9 8205.23,-812.9 8201.73,-822.9 8208.73,-822.9"/>
</g>
<!-- 61&#45;&gt;27 -->
<g id="edge69" class="edge">
<title>61&#45;&gt;27</title>
<path fill="none" stroke="black" d="M6875.23,-763.63C6875.23,-755.75 6875.23,-747.2 6875.23,-739.32"/>
<polygon fill="black" stroke="black" points="6878.73,-739.57 6875.23,-729.57 6871.73,-739.57 6878.73,-739.57"/>
</g>
<!-- 62&#45;&gt;52 -->
<g id="edge70" class="edge">
<title>62&#45;&gt;52</title>
<path fill="none" stroke="black" d="M718.39,-216.59C795.19,-204.37 898.73,-187.9 970.67,-176.45"/>
<polygon fill="black" stroke="black" points="971.11,-179.93 980.43,-174.9 970.01,-173.01 971.11,-179.93"/>
</g>
<!-- 63&#45;&gt;37 -->
<g id="edge71" class="edge">
<title>63&#45;&gt;37</title>
<path fill="none" stroke="black" d="M10354.23,-857.77C10354.23,-850.69 10354.23,-842.15 10354.23,-833.67"/>
<polygon fill="black" stroke="black" points="10357.73,-833.78 10354.23,-823.78 10350.73,-833.78 10357.73,-833.78"/>
</g>
<!-- 64&#45;&gt;6 -->
<g id="edge72" class="edge">
<title>64&#45;&gt;6</title>
<path fill="none" stroke="black" d="M8205.23,-774.78C8205.23,-764.65 8205.23,-751.56 8205.23,-739.88"/>
<polygon fill="black" stroke="black" points="8208.73,-739.91 8205.23,-729.91 8201.73,-739.91 8208.73,-739.91"/>
</g>
<!-- 65&#45;&gt;64 -->
<g id="edge73" class="edge">
<title>65&#45;&gt;64</title>
<path fill="none" stroke="black" d="M8633.39,-860.52C8548.07,-847.25 8421.03,-827.5 8327.48,-812.96"/>
<polygon fill="black" stroke="black" points="8328.15,-809.52 8317.73,-811.45 8327.08,-816.44 8328.15,-809.52"/>
</g>
<!-- 66&#45;&gt;25 -->
<g id="edge74" class="edge">
<title>66&#45;&gt;25</title>
<path fill="none" stroke="black" d="M3188.23,-143.7C3188.23,-136.41 3188.23,-127.73 3188.23,-119.54"/>
<polygon fill="black" stroke="black" points="3191.73,-119.62 3188.23,-109.62 3184.73,-119.62 3191.73,-119.62"/>
</g>
<!-- 68 -->
<g id="node69" class="node">
<title>68</title>
<polygon fill="none" stroke="black" points="5976.23,-810.96 5745.1,-792.96 5976.23,-774.96 6207.37,-792.96 5976.23,-810.96"/>
<text text-anchor="middle" x="5976.23" y="-787.91" font-family="Times New Roman,serif" font-size="14.00">Variable[&quot;plaza.tribunal_gardener_shot&quot;]</text>
</g>
<!-- 67&#45;&gt;68 -->
<g id="edge75" class="edge">
<title>67&#45;&gt;68</title>
<path fill="none" stroke="black" d="M5476.84,-860.05C5593.21,-844.65 5772.8,-820.88 5881.93,-806.44"/>
<polygon fill="black" stroke="black" points="5882.29,-809.92 5891.75,-805.14 5881.38,-802.98 5882.29,-809.92"/>
</g>
<!-- 69 -->
<g id="node70" class="node">
<title>69</title>
<polygon fill="none" stroke="black" points="5364.23,-810.96 5120.07,-792.96 5364.23,-774.96 5608.4,-792.96 5364.23,-810.96"/>
<text text-anchor="middle" x="5364.23" y="-787.91" font-family="Times New Roman,serif" font-size="14.00">!(Variable[&quot;plaza.tribunal_gardener_shot&quot;])</text>
</g>
<!-- 67&#45;&gt;69 -->
<g id="edge76" class="edge">
<title>67&#45;&gt;69</title>
<path fill="none" stroke="black" d="M5364.23,-857.77C5364.23,-847.64 5364.23,-834.55 5364.23,-822.87"/>
<polygon fill="black" stroke="black" points="5367.73,-822.9 5364.23,-812.9 5360.73,-822.9 5367.73,-822.9"/>
</g>
<!-- 68&#45;&gt;42 -->
<g id="edge77" class="edge">
<title>68&#45;&gt;42</title>
<path fill="none" stroke="black" d="M6002.94,-776.72C6024.1,-764.65 6054,-747.6 6078.05,-733.89"/>
<polygon fill="black" stroke="black" points="6079.68,-736.98 6086.64,-728.99 6076.22,-730.9 6079.68,-736.98"/>
</g>
<!-- 69&#45;&gt;45 -->
<g id="edge78" class="edge">
<title>69&#45;&gt;45</title>
<path fill="none" stroke="black" d="M5364.23,-774.78C5364.23,-764.65 5364.23,-751.56 5364.23,-739.88"/>
<polygon fill="black" stroke="black" points="5367.73,-739.91 5364.23,-729.91 5360.73,-739.91 5367.73,-739.91"/>
</g>
</g>
</svg>
