<?xml version="1.0" encoding="UTF-8" standalone="no"?>
<!DOCTYPE svg PUBLIC "-//W3C//DTD SVG 1.1//EN"
 "http://www.w3.org/Graphics/SVG/1.1/DTD/svg11.dtd">
<!-- Generated by graphviz version 12.2.1 (20241206.2353)
 -->
<!-- Title: G Pages: 1 -->
<svg width="6764pt" height="1982pt"
 viewBox="0.00 0.00 6764.44 1981.95" xmlns="http://www.w3.org/2000/svg" xmlns:xlink="http://www.w3.org/1999/xlink">
<g id="graph0" class="graph" transform="scale(1 1) rotate(0) translate(4 1977.95)">
<title>G</title>
<polygon fill="white" stroke="none" points="-4,4 -4,-1977.95 6760.44,-1977.95 6760.44,4 -4,4"/>
<!-- 0 -->
<g id="node1" class="node">
<title>0</title>
<ellipse fill="none" stroke="black" cx="4369.36" cy="-1955.95" rx="39.07" ry="18"/>
<text text-anchor="middle" x="4369.36" y="-1950.9" font-family="Times New Roman,serif" font-size="14.00">START</text>
</g>
<!-- 1 -->
<g id="node2" class="node">
<title>1</title>
<ellipse fill="none" stroke="black" cx="4369.36" cy="-1883.95" rx="29.86" ry="18"/>
<text text-anchor="middle" x="4369.36" y="-1878.9" font-family="Times New Roman,serif" font-size="14.00">input</text>
</g>
<!-- 0&#45;&gt;1 -->
<g id="edge1" class="edge">
<title>0&#45;&gt;1</title>
<path fill="none" stroke="black" d="M4369.36,-1937.64C4369.36,-1930.35 4369.36,-1921.67 4369.36,-1913.48"/>
<polygon fill="black" stroke="black" points="4372.86,-1913.57 4369.36,-1903.57 4365.86,-1913.57 4372.86,-1913.57"/>
</g>
<!-- 2 -->
<g id="node3" class="node">
<title>2</title>
<ellipse fill="none" stroke="black" cx="5174.36" cy="-954" rx="100.48" ry="18"/>
<text text-anchor="middle" x="5174.36" y="-948.95" font-family="Times New Roman,serif" font-size="14.00">Jump to: [tribunalHUB]</text>
</g>
<!-- 5370183 -->
<g id="node71" class="node">
<title>5370183</title>
<polygon fill="none" stroke="black" points="4872.36,-36 4644.85,-18 4872.36,0 5099.88,-18 4872.36,-36"/>
<text text-anchor="middle" x="4872.36" y="-12.95" font-family="Times New Roman,serif" font-size="14.00">JUMP OUT to PLAZA / KORTENAER</text>
</g>
<!-- 2&#45;&gt;5370183 -->
<g id="edge2" class="edge">
<title>2&#45;&gt;5370183</title>
<path fill="none" stroke="black" d="M5155.49,-936.23C5129.9,-911.56 5087.36,-862.75 5087.36,-811 5087.36,-811 5087.36,-811 5087.36,-161 5087.36,-90.74 5006.43,-53.24 4943.87,-34.75"/>
<polygon fill="black" stroke="black" points="4944.86,-31.39 4934.28,-32.03 4942.95,-38.13 4944.86,-31.39"/>
</g>
<!-- 3 -->
<g id="node4" class="node">
<title>3</title>
<ellipse fill="none" stroke="black" cx="3887.36" cy="-1429.97" rx="314.42" ry="18"/>
<text text-anchor="middle" x="3887.36" y="-1424.92" font-family="Times New Roman,serif" font-size="14.00">Reaction Speed: 你只剩下*一次*争辩的时间，选择明智一些……</text>
</g>
<!-- 9 -->
<g id="node10" class="node">
<title>9</title>
<ellipse fill="none" stroke="black" cx="3845.36" cy="-1357.97" rx="85.64" ry="18"/>
<text text-anchor="middle" x="3845.36" y="-1352.92" font-family="Times New Roman,serif" font-size="14.00">CRENELOHUBBO</text>
</g>
<!-- 3&#45;&gt;9 -->
<g id="edge3" class="edge">
<title>3&#45;&gt;9</title>
<path fill="none" stroke="black" d="M3876.98,-1411.66C3872.3,-1403.86 3866.67,-1394.47 3861.46,-1385.79"/>
<polygon fill="black" stroke="black" points="3864.55,-1384.14 3856.4,-1377.37 3858.55,-1387.74 3864.55,-1384.14"/>
</g>
<!-- 4 -->
<g id="node5" class="node">
<title>4</title>
<ellipse fill="none" stroke="black" cx="1191.36" cy="-1274.97" rx="260.57" ry="28.99"/>
<text text-anchor="middle" x="1191.36" y="-1278.17" font-family="Times New Roman,serif" font-size="14.00">You: “科奈尔也不代表你拥有私自审判的权利！”</text>
<text text-anchor="middle" x="1191.36" y="-1261.67" font-family="Times New Roman,serif" font-size="14.00">“你的雇主给你审判的权利了吗？”</text>
</g>
<!-- 47 -->
<g id="node48" class="node">
<title>47</title>
<ellipse fill="none" stroke="black" cx="685.36" cy="-1180.99" rx="685.36" ry="28.99"/>
<text text-anchor="middle" x="685.36" y="-1184.19" font-family="Times New Roman,serif" font-size="14.00">Kortenaer: “放屁……”他一边说，一边看着你下垂的鬓角——它们似乎让他冷静了一小会。“你根本不知道科奈尔赋予我们的权利。”</text>
<text text-anchor="middle" x="685.36" y="-1167.69" font-family="Times New Roman,serif" font-size="14.00">“放屁……”他说。“你根本不知道科奈尔赋予我们的权利。”</text>
</g>
<!-- 4&#45;&gt;47 -->
<g id="edge4" class="edge">
<title>4&#45;&gt;47</title>
<path fill="none" stroke="black" d="M1057.76,-1249.69C993.69,-1238.04 916.36,-1223.98 848.81,-1211.7"/>
<polygon fill="black" stroke="black" points="849.58,-1208.29 839.12,-1209.94 848.33,-1215.17 849.58,-1208.29"/>
</g>
<!-- 5 -->
<g id="node6" class="node">
<title>5</title>
<ellipse fill="none" stroke="black" cx="2704.36" cy="-1274.97" rx="225.37" ry="18"/>
<text text-anchor="middle" x="2704.36" y="-1269.92" font-family="Times New Roman,serif" font-size="14.00">You: “你们曾经叫*深井*。发生什么事了？”</text>
</g>
<!-- 8 -->
<g id="node9" class="node">
<title>8</title>
<ellipse fill="none" stroke="black" cx="2199.36" cy="-1180.99" rx="810.36" ry="18"/>
<text text-anchor="middle" x="2199.36" y="-1175.94" font-family="Times New Roman,serif" font-size="14.00">Kortenaer: “当你的工作越来越上手的时候，总会发生这种事。那个名字代表夜袭，他妈的法外私刑……燃烧的村庄。在收音机里听起来绝对他妈的糟糕透顶。”</text>
</g>
<!-- 5&#45;&gt;8 -->
<g id="edge5" class="edge">
<title>5&#45;&gt;8</title>
<path fill="none" stroke="black" d="M2616.4,-1257.95C2529.91,-1242.2 2397.8,-1218.14 2305.52,-1201.33"/>
<polygon fill="black" stroke="black" points="2306.42,-1197.93 2295.96,-1199.59 2305.17,-1204.82 2306.42,-1197.93"/>
</g>
<!-- 6 -->
<g id="node7" class="node">
<title>6</title>
<ellipse fill="none" stroke="black" cx="5377.36" cy="-1717.97" rx="216.15" ry="18"/>
<text text-anchor="middle" x="5377.36" y="-1712.92" font-family="Times New Roman,serif" font-size="14.00">You: “这个宣判是违反法律的。国际法。”</text>
</g>
<!-- 54 -->
<g id="node55" class="node">
<title>54</title>
<ellipse fill="none" stroke="black" cx="5377.36" cy="-1645.97" rx="548.83" ry="18"/>
<text text-anchor="middle" x="5377.36" y="-1640.92" font-family="Times New Roman,serif" font-size="14.00">Kortenaer: 大个子男人笑了。“看看你周围，都是牲畜……我们会宰了你们这群人！你的*国际法*去哪里了？”</text>
</g>
<!-- 6&#45;&gt;54 -->
<g id="edge6" class="edge">
<title>6&#45;&gt;54</title>
<path fill="none" stroke="black" d="M5377.36,-1699.66C5377.36,-1692.37 5377.36,-1683.69 5377.36,-1675.5"/>
<polygon fill="black" stroke="black" points="5380.86,-1675.58 5377.36,-1665.58 5373.86,-1675.58 5380.86,-1675.58"/>
</g>
<!-- 7 -->
<g id="node8" class="node">
<title>7</title>
<ellipse fill="none" stroke="black" cx="1727.36" cy="-666" rx="434.18" ry="18"/>
<text text-anchor="middle" x="1727.36" y="-660.95" font-family="Times New Roman,serif" font-size="14.00">Kortenaer: “没人他妈的会关心一个死掉的野人。”他发出轻蔑的鼻音。“这就是现实。”</text>
</g>
<!-- 34 -->
<g id="node35" class="node">
<title>34</title>
<ellipse fill="none" stroke="black" cx="2752.36" cy="-594" rx="552.41" ry="18"/>
<text text-anchor="middle" x="2752.36" y="-588.95" font-family="Times New Roman,serif" font-size="14.00">Rhetoric: 好吧——不怎么样。但是他开始想*别的事*了。而且他的手没放在枪上。这样还是有点*效果*的……</text>
</g>
<!-- 7&#45;&gt;34 -->
<g id="edge7" class="edge">
<title>7&#45;&gt;34</title>
<path fill="none" stroke="black" d="M1946.62,-650.03C2111.99,-638.73 2338.73,-623.25 2509.57,-611.58"/>
<polygon fill="black" stroke="black" points="2509.75,-615.08 2519.49,-610.9 2509.27,-608.09 2509.75,-615.08"/>
</g>
<!-- 31 -->
<g id="node32" class="node">
<title>31</title>
<ellipse fill="none" stroke="black" cx="2202.36" cy="-1098" rx="722.84" ry="18"/>
<text text-anchor="middle" x="2202.36" y="-1092.95" font-family="Times New Roman,serif" font-size="14.00">Kortenaer: “当我们被称作是*不知道哪里来的混账*的时候，就会发生相同的事。不过也许*科奈尔*这个名字也叫不了太久……”他看了看周围。</text>
</g>
<!-- 8&#45;&gt;31 -->
<g id="edge8" class="edge">
<title>8&#45;&gt;31</title>
<path fill="none" stroke="black" d="M2200,-1162.82C2200.37,-1152.68 2200.86,-1139.6 2201.29,-1127.91"/>
<polygon fill="black" stroke="black" points="2204.79,-1128.07 2201.66,-1117.94 2197.79,-1127.81 2204.79,-1128.07"/>
</g>
<!-- 9&#45;&gt;4 -->
<g id="edge11" class="edge">
<title>9&#45;&gt;4</title>
<path fill="none" stroke="black" d="M3761.18,-1354.4C3407.43,-1343.6 2032.89,-1301.65 1452.4,-1283.94"/>
<polygon fill="black" stroke="black" points="1452.56,-1280.44 1442.46,-1283.64 1452.35,-1287.44 1452.56,-1280.44"/>
</g>
<!-- 9&#45;&gt;5 -->
<g id="edge10" class="edge">
<title>9&#45;&gt;5</title>
<path fill="none" stroke="black" d="M3765.13,-1351.27C3582.28,-1338.29 3131.13,-1306.27 2880.08,-1288.45"/>
<polygon fill="black" stroke="black" points="2880.38,-1284.96 2870.16,-1287.74 2879.88,-1291.94 2880.38,-1284.96"/>
</g>
<!-- 37 -->
<g id="node38" class="node">
<title>37</title>
<ellipse fill="none" stroke="black" cx="3845.36" cy="-1274.97" rx="393.68" ry="28.99"/>
<text text-anchor="middle" x="3845.36" y="-1278.17" font-family="Times New Roman,serif" font-size="14.00">You: “有个问题——你们的上校死后，谁负责你们这个部队？”</text>
<text text-anchor="middle" x="3845.36" y="-1261.67" font-family="Times New Roman,serif" font-size="14.00">“我只想明确一点——你们的上校死后，你是这个小队的正式负责人吗？”</text>
</g>
<!-- 9&#45;&gt;37 -->
<g id="edge12" class="edge">
<title>9&#45;&gt;37</title>
<path fill="none" stroke="black" d="M3845.36,-1339.79C3845.36,-1332.7 3845.36,-1324.17 3845.36,-1315.68"/>
<polygon fill="black" stroke="black" points="3848.86,-1315.79 3845.36,-1305.79 3841.86,-1315.79 3848.86,-1315.79"/>
</g>
<!-- 40 -->
<g id="node41" class="node">
<title>40</title>
<ellipse fill="none" stroke="black" cx="4470.36" cy="-1274.97" rx="149.11" ry="18"/>
<text text-anchor="middle" x="4470.36" y="-1269.92" font-family="Times New Roman,serif" font-size="14.00">You: 哽住了，什么也不说。</text>
</g>
<!-- 9&#45;&gt;40 -->
<g id="edge9" class="edge">
<title>9&#45;&gt;40</title>
<path fill="none" stroke="black" d="M3916.75,-1347.71C4025.11,-1333.67 4231.96,-1306.87 4359.85,-1290.3"/>
<polygon fill="black" stroke="black" points="4360.24,-1293.77 4369.7,-1289.02 4359.34,-1286.83 4360.24,-1293.77"/>
</g>
<!-- 10 -->
<g id="node11" class="node">
<title>10</title>
<ellipse fill="none" stroke="black" cx="2800.36" cy="-378" rx="380.44" ry="18"/>
<text text-anchor="middle" x="2800.36" y="-372.95" font-family="Times New Roman,serif" font-size="14.00">Physical Instrument: 现在开火！干掉他们！动手！你背后的肌肉紧绷起来……</text>
</g>
<!-- 48 -->
<g id="node49" class="node">
<title>48</title>
<ellipse fill="none" stroke="black" cx="3688.36" cy="-306" rx="251.98" ry="18"/>
<text text-anchor="middle" x="3688.36" y="-300.95" font-family="Times New Roman,serif" font-size="14.00">Kim Kitsuragi: Variable[&quot;plaza.tribunal_said_they_didnt_do_it&quot;]</text>
</g>
<!-- 10&#45;&gt;48 -->
<g id="edge13" class="edge">
<title>10&#45;&gt;48</title>
<path fill="none" stroke="black" d="M2990.86,-361.98C3145.48,-349.79 3361.79,-332.74 3512.37,-320.87"/>
<polygon fill="black" stroke="black" points="3512.35,-324.39 3522.04,-320.11 3511.8,-317.41 3512.35,-324.39"/>
</g>
<!-- 11 -->
<g id="node12" class="node">
<title>11</title>
<ellipse fill="none" stroke="black" cx="4400.36" cy="-162" rx="420.37" ry="18"/>
<text text-anchor="middle" x="4400.36" y="-156.95" font-family="Times New Roman,serif" font-size="14.00">Rhetoric: 放轻松，现在……告诉他们不是这些人做的。肯定能有和平的解决办法！</text>
</g>
<!-- 41 -->
<g id="node42" class="node">
<title>41</title>
<ellipse fill="none" stroke="black" cx="4400.36" cy="-90" rx="100.48" ry="18"/>
<text text-anchor="middle" x="4400.36" y="-84.95" font-family="Times New Roman,serif" font-size="14.00">Jump to: [tribunalHUB]</text>
</g>
<!-- 11&#45;&gt;41 -->
<g id="edge14" class="edge">
<title>11&#45;&gt;41</title>
<path fill="none" stroke="black" d="M4400.36,-143.7C4400.36,-136.41 4400.36,-127.73 4400.36,-119.54"/>
<polygon fill="black" stroke="black" points="4403.86,-119.62 4400.36,-109.62 4396.86,-119.62 4403.86,-119.62"/>
</g>
<!-- 12 -->
<g id="node13" class="node">
<title>12</title>
<ellipse fill="none" stroke="black" cx="5889.36" cy="-1180.99" rx="251.98" ry="18"/>
<text text-anchor="middle" x="5889.36" y="-1175.94" font-family="Times New Roman,serif" font-size="14.00">Kim Kitsuragi: Variable[&quot;plaza.tribunal_said_they_didnt_do_it&quot;]</text>
</g>
<!-- 13 -->
<g id="node14" class="node">
<title>13</title>
<polygon fill="none" stroke="black" points="5174.36,-1044 4900.52,-1026 5174.36,-1008 5448.2,-1026 5174.36,-1044"/>
<text text-anchor="middle" x="5174.36" y="-1020.95" font-family="Times New Roman,serif" font-size="14.00">Variable[&quot;plaza.tribunal_said_they_didnt_do_it&quot;]</text>
</g>
<!-- 12&#45;&gt;13 -->
<g id="edge15" class="edge">
<title>12&#45;&gt;13</title>
<path fill="none" stroke="black" d="M5811.83,-1163.4C5672.93,-1133.68 5383.54,-1071.76 5247.73,-1042.7"/>
<polygon fill="black" stroke="black" points="5248.63,-1039.31 5238.12,-1040.64 5247.17,-1046.16 5248.63,-1039.31"/>
</g>
<!-- 14 -->
<g id="node15" class="node">
<title>14</title>
<polygon fill="none" stroke="black" points="5923.36,-1116 5636.49,-1098 5923.36,-1080 6210.23,-1098 5923.36,-1116"/>
<text text-anchor="middle" x="5923.36" y="-1092.95" font-family="Times New Roman,serif" font-size="14.00">!(Variable[&quot;plaza.tribunal_said_they_didnt_do_it&quot;])</text>
</g>
<!-- 12&#45;&gt;14 -->
<g id="edge16" class="edge">
<title>12&#45;&gt;14</title>
<path fill="none" stroke="black" d="M5896.57,-1162.82C5901.02,-1152.22 5906.82,-1138.4 5911.89,-1126.32"/>
<polygon fill="black" stroke="black" points="5915.05,-1127.84 5915.69,-1117.27 5908.6,-1125.13 5915.05,-1127.84"/>
</g>
<!-- 13&#45;&gt;2 -->
<g id="edge17" class="edge">
<title>13&#45;&gt;2</title>
<path fill="none" stroke="black" d="M5174.36,-1007.7C5174.36,-1000.41 5174.36,-991.73 5174.36,-983.54"/>
<polygon fill="black" stroke="black" points="5177.86,-983.62 5174.36,-973.62 5170.86,-983.62 5177.86,-983.62"/>
</g>
<!-- 36 -->
<g id="node37" class="node">
<title>36</title>
<ellipse fill="none" stroke="black" cx="5957.36" cy="-1026" rx="490.99" ry="18"/>
<text text-anchor="middle" x="5957.36" y="-1020.95" font-family="Times New Roman,serif" font-size="14.00">Rhetoric: 现在，放轻松！放轻松。只要告诉他们不是这些人做的。肯定能有和平的解决办法……</text>
</g>
<!-- 14&#45;&gt;36 -->
<g id="edge18" class="edge">
<title>14&#45;&gt;36</title>
<path fill="none" stroke="black" d="M5931.59,-1080.05C5935.34,-1072.35 5939.86,-1063.03 5944.07,-1054.36"/>
<polygon fill="black" stroke="black" points="5947.09,-1056.16 5948.31,-1045.64 5940.79,-1053.1 5947.09,-1056.16"/>
</g>
<!-- 15 -->
<g id="node16" class="node">
<title>15</title>
<ellipse fill="none" stroke="black" cx="4992.36" cy="-1955.95" rx="226.39" ry="18"/>
<text text-anchor="middle" x="4992.36" y="-1950.9" font-family="Times New Roman,serif" font-size="14.00">Kim Kitsuragi: Variable[&quot;whirling.tribunal_rhetoric_red&quot;]</text>
</g>
<!-- 16 -->
<g id="node17" class="node">
<title>16</title>
<polygon fill="none" stroke="black" points="4655.36,-1901.95 4417.71,-1883.95 4655.36,-1865.95 4893.01,-1883.95 4655.36,-1901.95"/>
<text text-anchor="middle" x="4655.36" y="-1878.9" font-family="Times New Roman,serif" font-size="14.00">Variable[&quot;whirling.tribunal_rhetoric_red&quot;]</text>
</g>
<!-- 15&#45;&gt;16 -->
<g id="edge19" class="edge">
<title>15&#45;&gt;16</title>
<path fill="none" stroke="black" d="M4913.78,-1938.62C4857.64,-1926.96 4782.68,-1911.39 4727.95,-1900.03"/>
<polygon fill="black" stroke="black" points="4728.93,-1896.65 4718.43,-1898.05 4727.51,-1903.51 4728.93,-1896.65"/>
</g>
<!-- 17 -->
<g id="node18" class="node">
<title>17</title>
<polygon fill="none" stroke="black" points="5329.36,-1901.95 5078.69,-1883.95 5329.36,-1865.95 5580.04,-1883.95 5329.36,-1901.95"/>
<text text-anchor="middle" x="5329.36" y="-1878.9" font-family="Times New Roman,serif" font-size="14.00">!(Variable[&quot;whirling.tribunal_rhetoric_red&quot;])</text>
</g>
<!-- 15&#45;&gt;17 -->
<g id="edge20" class="edge">
<title>15&#45;&gt;17</title>
<path fill="none" stroke="black" d="M5070.95,-1938.62C5126.81,-1927.02 5201.32,-1911.55 5255.97,-1900.19"/>
<polygon fill="black" stroke="black" points="5256.41,-1903.68 5265.49,-1898.22 5254.99,-1896.82 5256.41,-1903.68"/>
</g>
<!-- 62 -->
<g id="node62" class="node">
<title>62</title>
<ellipse fill="none" stroke="black" cx="4524.36" cy="-1800.96" rx="610.59" ry="28.99"/>
<text text-anchor="middle" x="4524.36" y="-1804.16" font-family="Times New Roman,serif" font-size="14.00">Rhetoric: 好吧，这么说——这是一场*非法审判*。他们的雇主永远不会*认可*这种事的。谁是*指挥官*？你挑一个！</text>
<text text-anchor="middle" x="4524.36" y="-1787.66" font-family="Times New Roman,serif" font-size="14.00">好吧，这么说——这是一场*非法审判*。科奈尔永远不会*认可*这种事的。谁是*指挥官*？你挑一个！</text>
</g>
<!-- 16&#45;&gt;62 -->
<g id="edge21" class="edge">
<title>16&#45;&gt;62</title>
<path fill="none" stroke="black" d="M4630.41,-1867.52C4616.07,-1858.66 4597.45,-1847.14 4579.82,-1836.25"/>
<polygon fill="black" stroke="black" points="4581.8,-1833.35 4571.45,-1831.07 4578.12,-1839.31 4581.8,-1833.35"/>
</g>
<!-- 33 -->
<g id="node34" class="node">
<title>33</title>
<ellipse fill="none" stroke="black" cx="5377.36" cy="-1800.96" rx="180.33" ry="18"/>
<text text-anchor="middle" x="5377.36" y="-1795.91" font-family="Times New Roman,serif" font-size="14.00">Rhetoric: 国际&#45;什么的？！国际法！</text>
</g>
<!-- 17&#45;&gt;33 -->
<g id="edge22" class="edge">
<title>17&#45;&gt;33</title>
<path fill="none" stroke="black" d="M5339.31,-1866.17C5345.66,-1855.45 5354.04,-1841.32 5361.31,-1829.04"/>
<polygon fill="black" stroke="black" points="5364.24,-1830.96 5366.33,-1820.58 5358.22,-1827.4 5364.24,-1830.96"/>
</g>
<!-- 18 -->
<g id="node19" class="node">
<title>18</title>
<ellipse fill="none" stroke="black" cx="2800.36" cy="-522" rx="395.8" ry="18"/>
<text text-anchor="middle" x="2800.36" y="-516.95" font-family="Times New Roman,serif" font-size="14.00">Kim Kitsuragi: CheckItem(&quot;gun_villiers&quot;) &#160;or &#160;CheckItem(&quot;gun_ruby&quot;) &#160;or &#160;CheckItem(&quot;spirit_bomb&quot;)</text>
</g>
<!-- 19 -->
<g id="node20" class="node">
<title>19</title>
<polygon fill="none" stroke="black" points="2800.36,-468 2323.86,-450 2800.36,-432 3276.87,-450 2800.36,-468"/>
<text text-anchor="middle" x="2800.36" y="-444.95" font-family="Times New Roman,serif" font-size="14.00">CheckItem(&quot;gun_villiers&quot;) &#160;or &#160;CheckItem(&quot;gun_ruby&quot;) &#160;or &#160;CheckItem(&quot;spirit_bomb&quot;)</text>
</g>
<!-- 18&#45;&gt;19 -->
<g id="edge23" class="edge">
<title>18&#45;&gt;19</title>
<path fill="none" stroke="black" d="M2800.36,-503.7C2800.36,-496.41 2800.36,-487.73 2800.36,-479.54"/>
<polygon fill="black" stroke="black" points="2803.86,-479.62 2800.36,-469.62 2796.86,-479.62 2803.86,-479.62"/>
</g>
<!-- 20 -->
<g id="node21" class="node">
<title>20</title>
<polygon fill="none" stroke="black" points="3688.36,-396 3198.83,-378 3688.36,-360 4177.9,-378 3688.36,-396"/>
<text text-anchor="middle" x="3688.36" y="-372.95" font-family="Times New Roman,serif" font-size="14.00">!(CheckItem(&quot;gun_villiers&quot;) &#160;or &#160;CheckItem(&quot;gun_ruby&quot;) &#160;or &#160;CheckItem(&quot;spirit_bomb&quot;))</text>
</g>
<!-- 18&#45;&gt;20 -->
<g id="edge24" class="edge">
<title>18&#45;&gt;20</title>
<path fill="none" stroke="black" d="M2985.06,-505.65C3076.09,-496.86 3187.33,-484.31 3286.36,-468 3403.74,-448.67 3538.4,-416.86 3618.26,-396.96"/>
<polygon fill="black" stroke="black" points="3618.84,-400.43 3627.69,-394.61 3617.14,-393.64 3618.84,-400.43"/>
</g>
<!-- 19&#45;&gt;10 -->
<g id="edge25" class="edge">
<title>19&#45;&gt;10</title>
<path fill="none" stroke="black" d="M2800.36,-431.7C2800.36,-424.41 2800.36,-415.73 2800.36,-407.54"/>
<polygon fill="black" stroke="black" points="2803.86,-407.62 2800.36,-397.62 2796.86,-407.62 2803.86,-407.62"/>
</g>
<!-- 20&#45;&gt;48 -->
<g id="edge26" class="edge">
<title>20&#45;&gt;48</title>
<path fill="none" stroke="black" d="M3688.36,-359.7C3688.36,-352.41 3688.36,-343.73 3688.36,-335.54"/>
<polygon fill="black" stroke="black" points="3691.86,-335.62 3688.36,-325.62 3684.86,-335.62 3691.86,-335.62"/>
</g>
<!-- 21 -->
<g id="node22" class="node">
<title>21</title>
<ellipse fill="none" stroke="black" cx="3444.36" cy="-882" rx="227.93" ry="18"/>
<text text-anchor="middle" x="3444.36" y="-876.95" font-family="Times New Roman,serif" font-size="14.00">You: “等一下，科奈尔的最高军衔是什么？”</text>
</g>
<!-- 64 -->
<g id="node64" class="node">
<title>64</title>
<ellipse fill="none" stroke="black" cx="3415.36" cy="-810" rx="284.74" ry="18"/>
<text text-anchor="middle" x="3415.36" y="-804.95" font-family="Times New Roman,serif" font-size="14.00">Kortenaer: “收割者之王，”他的口气听不出一丝的讽刺。</text>
</g>
<!-- 21&#45;&gt;64 -->
<g id="edge27" class="edge">
<title>21&#45;&gt;64</title>
<path fill="none" stroke="black" d="M3437.19,-863.7C3434.07,-856.15 3430.33,-847.12 3426.83,-838.68"/>
<polygon fill="black" stroke="black" points="3430.09,-837.4 3423.03,-829.5 3423.62,-840.08 3430.09,-837.4"/>
</g>
<!-- 22 -->
<g id="node23" class="node">
<title>22</title>
<ellipse fill="none" stroke="black" cx="5870.36" cy="-1955.95" rx="149.11" ry="18"/>
<text text-anchor="middle" x="5870.36" y="-1950.9" font-family="Times New Roman,serif" font-size="14.00">You: 快点，给我想个说法！</text>
</g>
<!-- 23 -->
<g id="node24" class="node">
<title>23</title>
<ellipse fill="none" stroke="black" cx="5870.36" cy="-1883.95" rx="188" ry="18"/>
<text text-anchor="middle" x="5870.36" y="-1878.9" font-family="Times New Roman,serif" font-size="14.00">You: Variable[&quot;whirling.tribunal_rhetoric_red&quot;]</text>
</g>
<!-- 22&#45;&gt;23 -->
<g id="edge28" class="edge">
<title>22&#45;&gt;23</title>
<path fill="none" stroke="black" d="M5870.36,-1937.64C5870.36,-1930.35 5870.36,-1921.67 5870.36,-1913.48"/>
<polygon fill="black" stroke="black" points="5873.86,-1913.57 5870.36,-1903.57 5866.86,-1913.57 5873.86,-1913.57"/>
</g>
<!-- 24 -->
<g id="node25" class="node">
<title>24</title>
<polygon fill="none" stroke="black" points="5823.36,-1818.96 5585.71,-1800.96 5823.36,-1782.96 6061.01,-1800.96 5823.36,-1818.96"/>
<text text-anchor="middle" x="5823.36" y="-1795.91" font-family="Times New Roman,serif" font-size="14.00">Variable[&quot;whirling.tribunal_rhetoric_red&quot;]</text>
</g>
<!-- 23&#45;&gt;24 -->
<g id="edge29" class="edge">
<title>23&#45;&gt;24</title>
<path fill="none" stroke="black" d="M5860.4,-1865.77C5854.08,-1854.89 5845.79,-1840.6 5838.65,-1828.3"/>
<polygon fill="black" stroke="black" points="5841.8,-1826.76 5833.75,-1819.86 5835.75,-1830.27 5841.8,-1826.76"/>
</g>
<!-- 25 -->
<g id="node26" class="node">
<title>25</title>
<polygon fill="none" stroke="black" points="6329.36,-1818.96 6078.69,-1800.96 6329.36,-1782.96 6580.04,-1800.96 6329.36,-1818.96"/>
<text text-anchor="middle" x="6329.36" y="-1795.91" font-family="Times New Roman,serif" font-size="14.00">!(Variable[&quot;whirling.tribunal_rhetoric_red&quot;])</text>
</g>
<!-- 23&#45;&gt;25 -->
<g id="edge30" class="edge">
<title>23&#45;&gt;25</title>
<path fill="none" stroke="black" d="M5957.51,-1867.57C6041.07,-1852.83 6166.24,-1830.74 6247.86,-1816.34"/>
<polygon fill="black" stroke="black" points="6248.35,-1819.81 6257.59,-1814.62 6247.14,-1812.91 6248.35,-1819.81"/>
</g>
<!-- 26 -->
<g id="node27" class="node">
<title>26</title>
<ellipse fill="none" stroke="black" cx="5377.36" cy="-1501.97" rx="234.58" ry="18"/>
<text text-anchor="middle" x="5377.36" y="-1496.92" font-family="Times New Roman,serif" font-size="14.00">De Paule: “我们他妈的哪儿也不去，西奥人！”</text>
</g>
<!-- 68 -->
<g id="node68" class="node">
<title>68</title>
<ellipse fill="none" stroke="black" cx="5377.36" cy="-1429.97" rx="221.78" ry="18"/>
<text text-anchor="middle" x="5377.36" y="-1424.92" font-family="Times New Roman,serif" font-size="14.00">Kim Kitsuragi: Variable[&quot;plaza.tribunal_gardener_shot&quot;]</text>
</g>
<!-- 26&#45;&gt;68 -->
<g id="edge31" class="edge">
<title>26&#45;&gt;68</title>
<path fill="none" stroke="black" d="M5377.36,-1483.66C5377.36,-1476.37 5377.36,-1467.69 5377.36,-1459.5"/>
<polygon fill="black" stroke="black" points="5380.86,-1459.58 5377.36,-1449.58 5373.86,-1459.58 5380.86,-1459.58"/>
</g>
<!-- 27 -->
<g id="node28" class="node">
<title>27</title>
<ellipse fill="none" stroke="black" cx="3410.36" cy="-666" rx="498.16" ry="18"/>
<text text-anchor="middle" x="3410.36" y="-660.95" font-family="Times New Roman,serif" font-size="14.00">Kortenaer: “你说的没错。但是你也看见了……”他停了一会儿，笑了笑。“我*想*以流血冲突结束。”</text>
</g>
<!-- 27&#45;&gt;34 -->
<g id="edge32" class="edge">
<title>27&#45;&gt;34</title>
<path fill="none" stroke="black" d="M3254.84,-648.46C3154.49,-637.78 3023.97,-623.89 2921.1,-612.95"/>
<polygon fill="black" stroke="black" points="2921.47,-609.47 2911.16,-611.89 2920.73,-616.43 2921.47,-609.47"/>
</g>
<!-- 28 -->
<g id="node29" class="node">
<title>28</title>
<ellipse fill="none" stroke="black" cx="4490.36" cy="-1717.97" rx="241.23" ry="18"/>
<text text-anchor="middle" x="4490.36" y="-1712.92" font-family="Times New Roman,serif" font-size="14.00">Kim Kitsuragi: Variable[&quot;tc.crenel_was_whitewater&quot;] == true</text>
</g>
<!-- 29 -->
<g id="node30" class="node">
<title>29</title>
<polygon fill="none" stroke="black" points="4048.36,-1663.97 3789.72,-1645.97 4048.36,-1627.97 4307,-1645.97 4048.36,-1663.97"/>
<text text-anchor="middle" x="4048.36" y="-1640.92" font-family="Times New Roman,serif" font-size="14.00">Variable[&quot;tc.crenel_was_whitewater&quot;] == true</text>
</g>
<!-- 28&#45;&gt;29 -->
<g id="edge33" class="edge">
<title>28&#45;&gt;29</title>
<path fill="none" stroke="black" d="M4390.34,-1701.13C4313.8,-1689 4209.27,-1672.45 4135.99,-1660.84"/>
<polygon fill="black" stroke="black" points="4136.88,-1657.44 4126.46,-1659.33 4135.79,-1664.35 4136.88,-1657.44"/>
</g>
<!-- 30 -->
<g id="node31" class="node">
<title>30</title>
<polygon fill="none" stroke="black" points="4490.36,-1591.97 4218.69,-1573.97 4490.36,-1555.97 4762.03,-1573.97 4490.36,-1591.97"/>
<text text-anchor="middle" x="4490.36" y="-1568.92" font-family="Times New Roman,serif" font-size="14.00">!(Variable[&quot;tc.crenel_was_whitewater&quot;] == true)</text>
</g>
<!-- 28&#45;&gt;30 -->
<g id="edge34" class="edge">
<title>28&#45;&gt;30</title>
<path fill="none" stroke="black" d="M4490.36,-1699.55C4490.36,-1675.58 4490.36,-1632.11 4490.36,-1603.38"/>
<polygon fill="black" stroke="black" points="4493.86,-1603.59 4490.36,-1593.59 4486.86,-1603.59 4493.86,-1603.59"/>
</g>
<!-- 63 -->
<g id="node63" class="node">
<title>63</title>
<ellipse fill="none" stroke="black" cx="3892.36" cy="-1573.97" rx="308.28" ry="18"/>
<text text-anchor="middle" x="3892.36" y="-1568.92" font-family="Times New Roman,serif" font-size="14.00">Encyclopedia: 我也知道一些*琐事*！引起他对现实的*兴趣*！</text>
</g>
<!-- 29&#45;&gt;63 -->
<g id="edge35" class="edge">
<title>29&#45;&gt;63</title>
<path fill="none" stroke="black" d="M4014.9,-1629.95C3993.45,-1620.33 3965.25,-1607.67 3941.31,-1596.93"/>
<polygon fill="black" stroke="black" points="3942.93,-1593.82 3932.38,-1592.92 3940.07,-1600.21 3942.93,-1593.82"/>
</g>
<!-- 53 -->
<g id="node54" class="node">
<title>53</title>
<ellipse fill="none" stroke="black" cx="3892.36" cy="-1501.97" rx="292.41" ry="18"/>
<text text-anchor="middle" x="3892.36" y="-1496.92" font-family="Times New Roman,serif" font-size="14.00">Suggestion: 真的吗？不管做什么好像都只会激怒他而已。</text>
</g>
<!-- 30&#45;&gt;53 -->
<g id="edge36" class="edge">
<title>30&#45;&gt;53</title>
<path fill="none" stroke="black" d="M4394.95,-1561.8C4298.19,-1550.47 4147.27,-1532.8 4036.04,-1519.78"/>
<polygon fill="black" stroke="black" points="4036.57,-1516.32 4026.23,-1518.64 4035.76,-1523.27 4036.57,-1516.32"/>
</g>
<!-- 55 -->
<g id="node56" class="node">
<title>55</title>
<ellipse fill="none" stroke="black" cx="2220.36" cy="-1026" rx="221.78" ry="18"/>
<text text-anchor="middle" x="2220.36" y="-1020.95" font-family="Times New Roman,serif" font-size="14.00">Kim Kitsuragi: Variable[&quot;plaza.tribunal_gardener_shot&quot;]</text>
</g>
<!-- 31&#45;&gt;55 -->
<g id="edge37" class="edge">
<title>31&#45;&gt;55</title>
<path fill="none" stroke="black" d="M2206.81,-1079.7C2208.71,-1072.32 2210.97,-1063.52 2213.1,-1055.25"/>
<polygon fill="black" stroke="black" points="2216.49,-1056.13 2215.59,-1045.57 2209.71,-1054.38 2216.49,-1056.13"/>
</g>
<!-- 32 -->
<g id="node33" class="node">
<title>32</title>
<ellipse fill="none" stroke="black" cx="3764.36" cy="-1026" rx="433.67" ry="18"/>
<text text-anchor="middle" x="3764.36" y="-1020.95" font-family="Times New Roman,serif" font-size="14.00">Kortenaer: “不……只不过是我的枪最大而已。”他敲打着穿着盔甲、宛如枪管的胸膛。</text>
</g>
<!-- 59 -->
<g id="node60" class="node">
<title>59</title>
<ellipse fill="none" stroke="black" cx="3728.36" cy="-954" rx="511.98" ry="18"/>
<text text-anchor="middle" x="3728.36" y="-948.95" font-family="Times New Roman,serif" font-size="14.00">Hand/Eye Coordination: 从严格意义上讲，另一个人的枪才是最大的，不过……现在那个话题已经过了。</text>
</g>
<!-- 32&#45;&gt;59 -->
<g id="edge38" class="edge">
<title>32&#45;&gt;59</title>
<path fill="none" stroke="black" d="M3755.46,-1007.7C3751.5,-999.98 3746.73,-990.71 3742.31,-982.11"/>
<polygon fill="black" stroke="black" points="3745.54,-980.74 3737.85,-973.45 3739.31,-983.94 3745.54,-980.74"/>
</g>
<!-- 33&#45;&gt;6 -->
<g id="edge40" class="edge">
<title>33&#45;&gt;6</title>
<path fill="none" stroke="black" d="M5377.36,-1782.78C5377.36,-1772.65 5377.36,-1759.56 5377.36,-1747.88"/>
<polygon fill="black" stroke="black" points="5380.86,-1747.91 5377.36,-1737.91 5373.86,-1747.91 5380.86,-1747.91"/>
</g>
<!-- 35 -->
<g id="node36" class="node">
<title>35</title>
<ellipse fill="none" stroke="black" cx="6015.36" cy="-1717.97" rx="90.25" ry="18"/>
<text text-anchor="middle" x="6015.36" y="-1712.92" font-family="Times New Roman,serif" font-size="14.00">You: 别说出来。</text>
</g>
<!-- 33&#45;&gt;35 -->
<g id="edge39" class="edge">
<title>33&#45;&gt;35</title>
<path fill="none" stroke="black" d="M5477.02,-1785.55C5508.75,-1781.07 5544.02,-1776.19 5576.36,-1771.97 5697.97,-1756.07 5838.75,-1739.38 5927.42,-1729.07"/>
<polygon fill="black" stroke="black" points="5927.74,-1732.56 5937.27,-1727.93 5926.94,-1725.6 5927.74,-1732.56"/>
</g>
<!-- 34&#45;&gt;18 -->
<g id="edge41" class="edge">
<title>34&#45;&gt;18</title>
<path fill="none" stroke="black" d="M2764.23,-575.7C2769.63,-567.81 2776.15,-558.3 2782.16,-549.55"/>
<polygon fill="black" stroke="black" points="2785.01,-551.58 2787.78,-541.35 2779.24,-547.62 2785.01,-551.58"/>
</g>
<!-- 58 -->
<g id="node59" class="node">
<title>58</title>
<ellipse fill="none" stroke="black" cx="6240.36" cy="-1501.97" rx="516.07" ry="18"/>
<text text-anchor="middle" x="6240.36" y="-1496.92" font-family="Times New Roman,serif" font-size="14.00">Rhetoric: 别说出来？但现在你只是站在那里，花了1.5秒时间挠屁股，你觉得这样能有什么*帮助*吗？</text>
</g>
<!-- 35&#45;&gt;58 -->
<g id="edge42" class="edge">
<title>35&#45;&gt;58</title>
<path fill="none" stroke="black" d="M6033.02,-1700.17C6072.42,-1662.7 6167.7,-1572.08 6214.09,-1527.95"/>
<polygon fill="black" stroke="black" points="6216.23,-1530.75 6221.07,-1521.32 6211.41,-1525.67 6216.23,-1530.75"/>
</g>
<!-- 36&#45;&gt;2 -->
<g id="edge43" class="edge">
<title>36&#45;&gt;2</title>
<path fill="none" stroke="black" d="M5776.25,-1008.81C5619.94,-994.83 5399.97,-975.17 5273.8,-963.89"/>
<polygon fill="black" stroke="black" points="5274.41,-960.43 5264.14,-963.03 5273.79,-967.4 5274.41,-960.43"/>
</g>
<!-- 51 -->
<g id="node52" class="node">
<title>51</title>
<ellipse fill="none" stroke="black" cx="3845.36" cy="-1180.99" rx="817.95" ry="28.99"/>
<text text-anchor="middle" x="3845.36" y="-1184.19" font-family="Times New Roman,serif" font-size="14.00">Kortenaer: “我是一名科奈尔少校，拥有15年以上的实战经验。我们的上校被那帮土猴子吊死之后，我负责领导小队进行*报复打击*。”</text>
<text text-anchor="middle" x="3845.36" y="-1167.69" font-family="Times New Roman,serif" font-size="14.00">“是我，我他妈*告诉*过你了——我是科奈尔的一名少校，有十五年的作战经验。我们的上校被这群泥猴子吊死之后，就由我来引导这次报复打击行动。”</text>
</g>
<!-- 37&#45;&gt;51 -->
<g id="edge44" class="edge">
<title>37&#45;&gt;51</title>
<path fill="none" stroke="black" d="M3845.36,-1245.63C3845.36,-1238.11 3845.36,-1229.85 3845.36,-1221.84"/>
<polygon fill="black" stroke="black" points="3848.86,-1221.92 3845.36,-1211.92 3841.86,-1221.92 3848.86,-1221.92"/>
</g>
<!-- 38 -->
<g id="node39" class="node">
<title>38</title>
<ellipse fill="none" stroke="black" cx="3415.36" cy="-738" rx="494.58" ry="18"/>
<text text-anchor="middle" x="3415.36" y="-732.95" font-family="Times New Roman,serif" font-size="14.00">You: “那就作为这个团体的领导——重新考虑一下你的行动。这一切不需要以流血冲突结束的。”</text>
</g>
<!-- 38&#45;&gt;27 -->
<g id="edge45" class="edge">
<title>38&#45;&gt;27</title>
<path fill="none" stroke="black" d="M3414.13,-719.7C3413.61,-712.41 3412.99,-703.73 3412.4,-695.54"/>
<polygon fill="black" stroke="black" points="3415.9,-695.34 3411.69,-685.61 3408.91,-695.84 3415.9,-695.34"/>
</g>
<!-- 39 -->
<g id="node40" class="node">
<title>39</title>
<ellipse fill="none" stroke="black" cx="3773.36" cy="-1098" rx="263.24" ry="18"/>
<text text-anchor="middle" x="3773.36" y="-1092.95" font-family="Times New Roman,serif" font-size="14.00">You: “所以说在你们三个之中，你的军衔最高了？”</text>
</g>
<!-- 39&#45;&gt;32 -->
<g id="edge46" class="edge">
<title>39&#45;&gt;32</title>
<path fill="none" stroke="black" d="M3771.14,-1079.7C3770.19,-1072.32 3769.06,-1063.52 3768,-1055.25"/>
<polygon fill="black" stroke="black" points="3771.5,-1055.08 3766.76,-1045.61 3764.56,-1055.97 3771.5,-1055.08"/>
</g>
<!-- 45 -->
<g id="node46" class="node">
<title>45</title>
<ellipse fill="none" stroke="black" cx="5150.36" cy="-1180.99" rx="468.99" ry="18"/>
<text text-anchor="middle" x="5150.36" y="-1175.94" font-family="Times New Roman,serif" font-size="14.00">Rhetoric: 所以你就这么*干站*在这里！？这样不好，很不好，马上说，要不就做点什么啊！</text>
</g>
<!-- 40&#45;&gt;45 -->
<g id="edge47" class="edge">
<title>40&#45;&gt;45</title>
<path fill="none" stroke="black" d="M4558.26,-1260.1C4588.39,-1255.45 4622.33,-1250.35 4653.36,-1245.98 4770.63,-1229.47 4903.72,-1212.42 5002.64,-1200.08"/>
<polygon fill="black" stroke="black" points="5002.93,-1203.57 5012.42,-1198.86 5002.06,-1196.62 5002.93,-1203.57"/>
</g>
<!-- 41&#45;&gt;5370183 -->
<g id="edge48" class="edge">
<title>41&#45;&gt;5370183</title>
<path fill="none" stroke="black" d="M4475.94,-77.79C4559.98,-65.33 4695.56,-45.22 4784.33,-32.06"/>
<polygon fill="black" stroke="black" points="4784.58,-35.56 4793.95,-30.63 4783.55,-28.63 4784.58,-35.56"/>
</g>
<!-- 42 -->
<g id="node43" class="node">
<title>42</title>
<ellipse fill="none" stroke="black" cx="2738.36" cy="-810" rx="214.11" ry="18"/>
<text text-anchor="middle" x="2738.36" y="-804.95" font-family="Times New Roman,serif" font-size="14.00">Kortenaer: “发生这件破事之后就不会了。”</text>
</g>
<!-- 42&#45;&gt;34 -->
<g id="edge49" class="edge">
<title>42&#45;&gt;34</title>
<path fill="none" stroke="black" d="M2739.49,-791.85C2741.89,-755.14 2747.54,-668.66 2750.5,-623.53"/>
<polygon fill="black" stroke="black" points="2753.98,-623.95 2751.14,-613.74 2746.99,-623.49 2753.98,-623.95"/>
</g>
<!-- 43 -->
<g id="node44" class="node">
<title>43</title>
<ellipse fill="none" stroke="black" cx="5055.36" cy="-1274.97" rx="393.24" ry="18"/>
<text text-anchor="middle" x="5055.36" y="-1269.92" font-family="Times New Roman,serif" font-size="14.00">Suggestion: 这次没人中枪简直就是*奇迹*。别再想用你的*脑子*了。没用的！</text>
</g>
<!-- 43&#45;&gt;12 -->
<g id="edge50" class="edge">
<title>43&#45;&gt;12</title>
<path fill="none" stroke="black" d="M5201.59,-1257.85C5354.38,-1241 5592.62,-1214.72 5744.79,-1197.94"/>
<polygon fill="black" stroke="black" points="5744.99,-1201.44 5754.55,-1196.86 5744.23,-1194.48 5744.99,-1201.44"/>
</g>
<!-- 44 -->
<g id="node45" class="node">
<title>44</title>
<ellipse fill="none" stroke="black" cx="2220.36" cy="-882" rx="255.56" ry="18"/>
<text text-anchor="middle" x="2220.36" y="-876.95" font-family="Times New Roman,serif" font-size="14.00">The Gardener: 女人变得更加安静，呼吸也变浅了。</text>
</g>
<!-- 44&#45;&gt;42 -->
<g id="edge51" class="edge">
<title>44&#45;&gt;42</title>
<path fill="none" stroke="black" d="M2335,-865.51C2418.71,-854.2 2531.97,-838.89 2617.17,-827.38"/>
<polygon fill="black" stroke="black" points="2617.53,-830.86 2626.97,-826.05 2616.59,-823.92 2617.53,-830.86"/>
</g>
<!-- 52 -->
<g id="node53" class="node">
<title>52</title>
<ellipse fill="none" stroke="black" cx="4872.36" cy="-738" rx="100.48" ry="18"/>
<text text-anchor="middle" x="4872.36" y="-732.95" font-family="Times New Roman,serif" font-size="14.00">Jump to: [tribunalHUB]</text>
</g>
<!-- 45&#45;&gt;52 -->
<g id="edge52" class="edge">
<title>45&#45;&gt;52</title>
<path fill="none" stroke="black" d="M5036.49,-1163.12C4959.71,-1144.55 4872.36,-1106.05 4872.36,-1027 4872.36,-1027 4872.36,-1027 4872.36,-881 4872.36,-841.74 4872.36,-796.38 4872.36,-767.69"/>
<polygon fill="black" stroke="black" points="4875.86,-768 4872.36,-758 4868.86,-768 4875.86,-768"/>
</g>
<!-- 46 -->
<g id="node47" class="node">
<title>46</title>
<ellipse fill="none" stroke="black" cx="5886.36" cy="-1274.97" rx="419.34" ry="18"/>
<text text-anchor="middle" x="5886.36" y="-1269.92" font-family="Times New Roman,serif" font-size="14.00">Suggestion: 说点什么。别再无所事事了。谢天谢地，目前为止还只是*徒劳无功*。</text>
</g>
<!-- 46&#45;&gt;12 -->
<g id="edge53" class="edge">
<title>46&#45;&gt;12</title>
<path fill="none" stroke="black" d="M5886.93,-1256.67C5887.35,-1243.7 5887.94,-1225.65 5888.43,-1210.54"/>
<polygon fill="black" stroke="black" points="5891.92,-1210.84 5888.75,-1200.73 5884.93,-1210.61 5891.92,-1210.84"/>
</g>
<!-- 60 -->
<g id="node61" class="node">
<title>60</title>
<ellipse fill="none" stroke="black" cx="685.36" cy="-1098" rx="322.1" ry="18"/>
<text text-anchor="middle" x="685.36" y="-1092.95" font-family="Times New Roman,serif" font-size="14.00">You: “我不在乎。反正不能杀害平民百姓和当地的执法人员。”</text>
</g>
<!-- 47&#45;&gt;60 -->
<g id="edge55" class="edge">
<title>47&#45;&gt;60</title>
<path fill="none" stroke="black" d="M685.36,-1151.66C685.36,-1143.79 685.36,-1135.24 685.36,-1127.36"/>
<polygon fill="black" stroke="black" points="688.86,-1127.61 685.36,-1117.61 681.86,-1127.61 688.86,-1127.61"/>
</g>
<!-- 66 -->
<g id="node66" class="node">
<title>66</title>
<ellipse fill="none" stroke="black" cx="1194.36" cy="-1098" rx="169.07" ry="18"/>
<text text-anchor="middle" x="1194.36" y="-1092.95" font-family="Times New Roman,serif" font-size="14.00">You: “好吧。那都是什么权利？”</text>
</g>
<!-- 47&#45;&gt;66 -->
<g id="edge54" class="edge">
<title>47&#45;&gt;66</title>
<path fill="none" stroke="black" d="M858.4,-1152.46C936.07,-1140.1 1025.05,-1125.94 1091.92,-1115.3"/>
<polygon fill="black" stroke="black" points="1092.06,-1118.82 1101.39,-1113.79 1090.96,-1111.91 1092.06,-1118.82"/>
</g>
<!-- 49 -->
<g id="node50" class="node">
<title>49</title>
<polygon fill="none" stroke="black" points="3688.36,-180 3414.52,-162 3688.36,-144 3962.2,-162 3688.36,-180"/>
<text text-anchor="middle" x="3688.36" y="-156.95" font-family="Times New Roman,serif" font-size="14.00">Variable[&quot;plaza.tribunal_said_they_didnt_do_it&quot;]</text>
</g>
<!-- 48&#45;&gt;49 -->
<g id="edge56" class="edge">
<title>48&#45;&gt;49</title>
<path fill="none" stroke="black" d="M3688.36,-287.59C3688.36,-263.61 3688.36,-220.14 3688.36,-191.42"/>
<polygon fill="black" stroke="black" points="3691.86,-191.62 3688.36,-181.62 3684.86,-191.62 3691.86,-191.62"/>
</g>
<!-- 50 -->
<g id="node51" class="node">
<title>50</title>
<polygon fill="none" stroke="black" points="4202.36,-252 3915.49,-234 4202.36,-216 4489.23,-234 4202.36,-252"/>
<text text-anchor="middle" x="4202.36" y="-228.95" font-family="Times New Roman,serif" font-size="14.00">!(Variable[&quot;plaza.tribunal_said_they_didnt_do_it&quot;])</text>
</g>
<!-- 48&#45;&gt;50 -->
<g id="edge57" class="edge">
<title>48&#45;&gt;50</title>
<path fill="none" stroke="black" d="M3802.12,-289.51C3892.25,-277.23 4016.92,-260.25 4103.06,-248.52"/>
<polygon fill="black" stroke="black" points="4103.49,-252 4112.93,-247.18 4102.55,-245.06 4103.49,-252"/>
</g>
<!-- 49&#45;&gt;41 -->
<g id="edge58" class="edge">
<title>49&#45;&gt;41</title>
<path fill="none" stroke="black" d="M3794.96,-150.52C3932.36,-137.01 4169.36,-113.71 4302.42,-100.63"/>
<polygon fill="black" stroke="black" points="4302.67,-104.12 4312.28,-99.66 4301.98,-97.16 4302.67,-104.12"/>
</g>
<!-- 50&#45;&gt;11 -->
<g id="edge59" class="edge">
<title>50&#45;&gt;11</title>
<path fill="none" stroke="black" d="M4244.35,-218.15C4272.38,-208.25 4309.65,-195.07 4340.74,-184.08"/>
<polygon fill="black" stroke="black" points="4341.76,-187.43 4350.02,-180.8 4339.43,-180.83 4341.76,-187.43"/>
</g>
<!-- 51&#45;&gt;39 -->
<g id="edge60" class="edge">
<title>51&#45;&gt;39</title>
<path fill="none" stroke="black" d="M3820.18,-1151.66C3812.36,-1142.86 3803.78,-1133.21 3796.13,-1124.61"/>
<polygon fill="black" stroke="black" points="3798.83,-1122.38 3789.57,-1117.23 3793.59,-1127.03 3798.83,-1122.38"/>
</g>
<!-- 52&#45;&gt;5370183 -->
<g id="edge61" class="edge">
<title>52&#45;&gt;5370183</title>
<path fill="none" stroke="black" d="M4872.36,-719.51C4872.36,-692.71 4872.36,-639.87 4872.36,-595 4872.36,-595 4872.36,-595 4872.36,-161 4872.36,-121.74 4872.36,-76.38 4872.36,-47.69"/>
<polygon fill="black" stroke="black" points="4875.86,-48 4872.36,-38 4868.86,-48 4875.86,-48"/>
</g>
<!-- 53&#45;&gt;3 -->
<g id="edge62" class="edge">
<title>53&#45;&gt;3</title>
<path fill="none" stroke="black" d="M3891.13,-1483.66C3890.61,-1476.37 3889.99,-1467.69 3889.4,-1459.5"/>
<polygon fill="black" stroke="black" points="3892.9,-1459.3 3888.69,-1449.58 3885.91,-1459.8 3892.9,-1459.3"/>
</g>
<!-- 67 -->
<g id="node67" class="node">
<title>67</title>
<ellipse fill="none" stroke="black" cx="5377.36" cy="-1573.97" rx="587.73" ry="18"/>
<text text-anchor="middle" x="5377.36" y="-1568.92" font-family="Times New Roman,serif" font-size="14.00">Kim Kitsuragi: “这样会产生分歧的——但是并不需要这样。我们进去，讨论一下我们的调查结果。我们有重要的……”</text>
</g>
<!-- 54&#45;&gt;67 -->
<g id="edge63" class="edge">
<title>54&#45;&gt;67</title>
<path fill="none" stroke="black" d="M5377.36,-1627.66C5377.36,-1620.37 5377.36,-1611.69 5377.36,-1603.5"/>
<polygon fill="black" stroke="black" points="5380.86,-1603.58 5377.36,-1593.58 5373.86,-1603.58 5380.86,-1603.58"/>
</g>
<!-- 56 -->
<g id="node57" class="node">
<title>56</title>
<polygon fill="none" stroke="black" points="2220.36,-972 1989.23,-954 2220.36,-936 2451.5,-954 2220.36,-972"/>
<text text-anchor="middle" x="2220.36" y="-948.95" font-family="Times New Roman,serif" font-size="14.00">Variable[&quot;plaza.tribunal_gardener_shot&quot;]</text>
</g>
<!-- 55&#45;&gt;56 -->
<g id="edge64" class="edge">
<title>55&#45;&gt;56</title>
<path fill="none" stroke="black" d="M2220.36,-1007.7C2220.36,-1000.41 2220.36,-991.73 2220.36,-983.54"/>
<polygon fill="black" stroke="black" points="2223.86,-983.62 2220.36,-973.62 2216.86,-983.62 2223.86,-983.62"/>
</g>
<!-- 57 -->
<g id="node58" class="node">
<title>57</title>
<polygon fill="none" stroke="black" points="2738.36,-900 2494.2,-882 2738.36,-864 2982.53,-882 2738.36,-900"/>
<text text-anchor="middle" x="2738.36" y="-876.95" font-family="Times New Roman,serif" font-size="14.00">!(Variable[&quot;plaza.tribunal_gardener_shot&quot;])</text>
</g>
<!-- 55&#45;&gt;57 -->
<g id="edge65" class="edge">
<title>55&#45;&gt;57</title>
<path fill="none" stroke="black" d="M2302.47,-1008.83C2349.04,-999.17 2408.25,-986.06 2460.36,-972 2540.4,-950.4 2631.67,-920.06 2687.13,-900.97"/>
<polygon fill="black" stroke="black" points="2687.99,-904.38 2696.3,-897.81 2685.71,-897.76 2687.99,-904.38"/>
</g>
<!-- 56&#45;&gt;44 -->
<g id="edge66" class="edge">
<title>56&#45;&gt;44</title>
<path fill="none" stroke="black" d="M2220.36,-935.7C2220.36,-928.41 2220.36,-919.73 2220.36,-911.54"/>
<polygon fill="black" stroke="black" points="2223.86,-911.62 2220.36,-901.62 2216.86,-911.62 2223.86,-911.62"/>
</g>
<!-- 57&#45;&gt;42 -->
<g id="edge67" class="edge">
<title>57&#45;&gt;42</title>
<path fill="none" stroke="black" d="M2738.36,-863.7C2738.36,-856.41 2738.36,-847.73 2738.36,-839.54"/>
<polygon fill="black" stroke="black" points="2741.86,-839.62 2738.36,-829.62 2734.86,-839.62 2741.86,-839.62"/>
</g>
<!-- 58&#45;&gt;12 -->
<g id="edge68" class="edge">
<title>58&#45;&gt;12</title>
<path fill="none" stroke="black" d="M6255.08,-1483.49C6291.06,-1438.61 6376.16,-1317.78 6314.36,-1245.98 6287.96,-1215.3 6207.59,-1199.13 6123.74,-1190.69"/>
<polygon fill="black" stroke="black" points="6124.23,-1187.22 6113.94,-1189.74 6123.55,-1194.18 6124.23,-1187.22"/>
</g>
<!-- 59&#45;&gt;21 -->
<g id="edge69" class="edge">
<title>59&#45;&gt;21</title>
<path fill="none" stroke="black" d="M3658.16,-935.7C3617.15,-925.59 3565.29,-912.81 3522.92,-902.36"/>
<polygon fill="black" stroke="black" points="3523.82,-898.98 3513.27,-899.98 3522.14,-905.78 3523.82,-898.98"/>
</g>
<!-- 59&#45;&gt;38 -->
<g id="edge70" class="edge">
<title>59&#45;&gt;38</title>
<path fill="none" stroke="black" d="M3732.24,-935.74C3738.48,-902.98 3746.59,-831.56 3709.36,-792 3694.36,-776.06 3657.3,-764.87 3614.35,-757.03"/>
<polygon fill="black" stroke="black" points="3614.95,-753.58 3604.5,-755.32 3613.75,-760.48 3614.95,-753.58"/>
</g>
<!-- 65 -->
<g id="node65" class="node">
<title>65</title>
<ellipse fill="none" stroke="black" cx="1194.36" cy="-1026" rx="701.86" ry="18"/>
<text text-anchor="middle" x="1194.36" y="-1020.95" font-family="Times New Roman,serif" font-size="14.00">Kortenaer: “如果我他妈的杀了你，把你吊在街灯上……”他的手指往那个方向。“……用你的肠子把你吊起来——那才叫*必要的武力展示*。”</text>
</g>
<!-- 60&#45;&gt;65 -->
<g id="edge71" class="edge">
<title>60&#45;&gt;65</title>
<path fill="none" stroke="black" d="M803.1,-1080.81C879.38,-1070.32 978.98,-1056.62 1058.6,-1045.67"/>
<polygon fill="black" stroke="black" points="1058.77,-1049.18 1068.2,-1044.35 1057.81,-1042.25 1058.77,-1049.18"/>
</g>
<!-- 62&#45;&gt;28 -->
<g id="edge72" class="edge">
<title>62&#45;&gt;28</title>
<path fill="none" stroke="black" d="M4512.47,-1771.63C4509.05,-1763.48 4505.32,-1754.6 4501.92,-1746.49"/>
<polygon fill="black" stroke="black" points="4505.22,-1745.32 4498.13,-1737.46 4498.77,-1748.03 4505.22,-1745.32"/>
</g>
<!-- 63&#45;&gt;53 -->
<g id="edge73" class="edge">
<title>63&#45;&gt;53</title>
<path fill="none" stroke="black" d="M3892.36,-1555.66C3892.36,-1548.37 3892.36,-1539.69 3892.36,-1531.5"/>
<polygon fill="black" stroke="black" points="3895.86,-1531.58 3892.36,-1521.58 3888.86,-1531.58 3895.86,-1531.58"/>
</g>
<!-- 64&#45;&gt;38 -->
<g id="edge74" class="edge">
<title>64&#45;&gt;38</title>
<path fill="none" stroke="black" d="M3415.36,-791.7C3415.36,-784.41 3415.36,-775.73 3415.36,-767.54"/>
<polygon fill="black" stroke="black" points="3418.86,-767.62 3415.36,-757.62 3411.86,-767.62 3418.86,-767.62"/>
</g>
<!-- 65&#45;&gt;7 -->
<g id="edge75" class="edge">
<title>65&#45;&gt;7</title>
<path fill="none" stroke="black" d="M1287.37,-1007.67C1394.93,-984.91 1557.36,-940.94 1557.36,-883 1557.36,-883 1557.36,-883 1557.36,-809 1557.36,-750.06 1618.29,-710.8 1667.19,-688.78"/>
<polygon fill="black" stroke="black" points="1668.56,-692 1676.35,-684.81 1665.78,-685.58 1668.56,-692"/>
</g>
<!-- 66&#45;&gt;65 -->
<g id="edge76" class="edge">
<title>66&#45;&gt;65</title>
<path fill="none" stroke="black" d="M1194.36,-1079.7C1194.36,-1072.41 1194.36,-1063.73 1194.36,-1055.54"/>
<polygon fill="black" stroke="black" points="1197.86,-1055.62 1194.36,-1045.62 1190.86,-1055.62 1197.86,-1055.62"/>
</g>
<!-- 67&#45;&gt;26 -->
<g id="edge77" class="edge">
<title>67&#45;&gt;26</title>
<path fill="none" stroke="black" d="M5377.36,-1555.66C5377.36,-1548.37 5377.36,-1539.69 5377.36,-1531.5"/>
<polygon fill="black" stroke="black" points="5380.86,-1531.58 5377.36,-1521.58 5373.86,-1531.58 5380.86,-1531.58"/>
</g>
<!-- 69 -->
<g id="node69" class="node">
<title>69</title>
<polygon fill="none" stroke="black" points="5369.36,-1375.97 5138.23,-1357.97 5369.36,-1339.97 5600.5,-1357.97 5369.36,-1375.97"/>
<text text-anchor="middle" x="5369.36" y="-1352.92" font-family="Times New Roman,serif" font-size="14.00">Variable[&quot;plaza.tribunal_gardener_shot&quot;]</text>
</g>
<!-- 68&#45;&gt;69 -->
<g id="edge78" class="edge">
<title>68&#45;&gt;69</title>
<path fill="none" stroke="black" d="M5375.39,-1411.66C5374.55,-1404.37 5373.56,-1395.69 5372.62,-1387.5"/>
<polygon fill="black" stroke="black" points="5376.1,-1387.11 5371.49,-1377.57 5369.15,-1387.91 5376.1,-1387.11"/>
</g>
<!-- 70 -->
<g id="node70" class="node">
<title>70</title>
<polygon fill="none" stroke="black" points="5865.36,-1375.97 5621.2,-1357.97 5865.36,-1339.97 6109.53,-1357.97 5865.36,-1375.97"/>
<text text-anchor="middle" x="5865.36" y="-1352.92" font-family="Times New Roman,serif" font-size="14.00">!(Variable[&quot;plaza.tribunal_gardener_shot&quot;])</text>
</g>
<!-- 68&#45;&gt;70 -->
<g id="edge79" class="edge">
<title>68&#45;&gt;70</title>
<path fill="none" stroke="black" d="M5483.55,-1413.73C5570.18,-1401.31 5691.3,-1383.93 5773.73,-1372.11"/>
<polygon fill="black" stroke="black" points="5774.2,-1375.58 5783.6,-1370.69 5773.2,-1368.65 5774.2,-1375.58"/>
</g>
<!-- 69&#45;&gt;43 -->
<g id="edge80" class="edge">
<title>69&#45;&gt;43</title>
<path fill="none" stroke="black" d="M5317.51,-1343.59C5267.27,-1330.63 5190.45,-1310.82 5132.94,-1295.98"/>
<polygon fill="black" stroke="black" points="5134.09,-1292.67 5123.53,-1293.56 5132.34,-1299.44 5134.09,-1292.67"/>
</g>
<!-- 70&#45;&gt;46 -->
<g id="edge81" class="edge">
<title>70&#45;&gt;46</title>
<path fill="none" stroke="black" d="M5869.71,-1340.18C5872.41,-1329.79 5875.94,-1316.18 5879.05,-1304.17"/>
<polygon fill="black" stroke="black" points="5882.37,-1305.32 5881.49,-1294.76 5875.59,-1303.56 5882.37,-1305.32"/>
</g>
</g>
</svg>
