<?xml version="1.0" encoding="UTF-8" standalone="no"?>
<!DOCTYPE svg PUBLIC "-//W3C//DTD SVG 1.1//EN"
 "http://www.w3.org/Graphics/SVG/1.1/DTD/svg11.dtd">
<!-- Generated by graphviz version 12.2.1 (20241206.2353)
 -->
<!-- Title: G Pages: 1 -->
<svg width="4040pt" height="1196pt"
 viewBox="0.00 0.00 4039.71 1196.00" xmlns="http://www.w3.org/2000/svg" xmlns:xlink="http://www.w3.org/1999/xlink">
<g id="graph0" class="graph" transform="scale(1 1) rotate(0) translate(4 1192)">
<title>G</title>
<polygon fill="white" stroke="none" points="-4,4 -4,-1192 4035.71,-1192 4035.71,4 -4,4"/>
<!-- 0 -->
<g id="node1" class="node">
<title>0</title>
<ellipse fill="none" stroke="black" cx="1875.31" cy="-1170" rx="39.07" ry="18"/>
<text text-anchor="middle" x="1875.31" y="-1164.95" font-family="Times New Roman,serif" font-size="14.00">START</text>
</g>
<!-- 1 -->
<g id="node2" class="node">
<title>1</title>
<ellipse fill="none" stroke="black" cx="1875.31" cy="-1098" rx="29.86" ry="18"/>
<text text-anchor="middle" x="1875.31" y="-1092.95" font-family="Times New Roman,serif" font-size="14.00">input</text>
</g>
<!-- 0&#45;&gt;1 -->
<g id="edge1" class="edge">
<title>0&#45;&gt;1</title>
<path fill="none" stroke="black" d="M1875.31,-1151.7C1875.31,-1144.41 1875.31,-1135.73 1875.31,-1127.54"/>
<polygon fill="black" stroke="black" points="1878.81,-1127.62 1875.31,-1117.62 1871.81,-1127.62 1878.81,-1127.62"/>
</g>
<!-- 2 -->
<g id="node3" class="node">
<title>2</title>
<ellipse fill="none" stroke="black" cx="1688.31" cy="-378" rx="349.22" ry="18"/>
<text text-anchor="middle" x="1688.31" y="-372.95" font-family="Times New Roman,serif" font-size="14.00">Composure: 他肯定是嗑嗨了，酒之外的其它东西。他们总是这样……</text>
</g>
<!-- 7 -->
<g id="node7" class="node">
<title>7</title>
<ellipse fill="none" stroke="black" cx="2355.31" cy="-306" rx="501.74" ry="18"/>
<text text-anchor="middle" x="2355.31" y="-300.95" font-family="Times New Roman,serif" font-size="14.00">De Paule: “够了！这是干什么？！”女人的声音十分恼怒。“我们来这儿可不是他妈的为了闲聊的！”</text>
</g>
<!-- 2&#45;&gt;7 -->
<g id="edge2" class="edge">
<title>2&#45;&gt;7</title>
<path fill="none" stroke="black" d="M1838,-361.29C1941.4,-350.44 2079.09,-335.99 2186.42,-324.72"/>
<polygon fill="black" stroke="black" points="2186.62,-328.22 2196.2,-323.7 2185.89,-321.26 2186.62,-328.22"/>
</g>
<!-- 3 -->
<g id="node4" class="node">
<title>3</title>
<ellipse fill="none" stroke="black" cx="461.31" cy="-450" rx="461.31" ry="18"/>
<text text-anchor="middle" x="461.31" y="-444.95" font-family="Times New Roman,serif" font-size="14.00">Kortenaer: “不……”他擦掉眉头上的汗水。“我清楚的不得了。混账政府任命的超级士兵……”</text>
</g>
<!-- 3&#45;&gt;2 -->
<g id="edge3" class="edge">
<title>3&#45;&gt;2</title>
<path fill="none" stroke="black" d="M714.8,-434.54C930.33,-422.24 1237.58,-404.71 1448.97,-392.65"/>
<polygon fill="black" stroke="black" points="1448.92,-396.16 1458.71,-392.1 1448.52,-389.17 1448.92,-396.16"/>
</g>
<!-- 4 -->
<g id="node5" class="node">
<title>4</title>
<ellipse fill="none" stroke="black" cx="2601.31" cy="-522" rx="133.75" ry="18"/>
<text text-anchor="middle" x="2601.31" y="-516.95" font-family="Times New Roman,serif" font-size="14.00">You: “没什么。挺好的。”</text>
</g>
<!-- 9 -->
<g id="node9" class="node">
<title>9</title>
<ellipse fill="none" stroke="black" cx="2601.31" cy="-450" rx="481.27" ry="18"/>
<text text-anchor="middle" x="2601.31" y="-444.95" font-family="Times New Roman,serif" font-size="14.00">Kortenaer: “听起来什么也不是。”他擦掉眉头上的汗水。“更像是你要开始布道了。是这样吗？”</text>
</g>
<!-- 4&#45;&gt;9 -->
<g id="edge4" class="edge">
<title>4&#45;&gt;9</title>
<path fill="none" stroke="black" d="M2601.31,-503.7C2601.31,-496.41 2601.31,-487.73 2601.31,-479.54"/>
<polygon fill="black" stroke="black" points="2604.81,-479.62 2601.31,-469.62 2597.81,-479.62 2604.81,-479.62"/>
</g>
<!-- 6 -->
<g id="node6" class="node">
<title>6</title>
<ellipse fill="none" stroke="black" cx="1496.31" cy="-882" rx="559.58" ry="18"/>
<text text-anchor="middle" x="1496.31" y="-876.95" font-family="Times New Roman,serif" font-size="14.00">Electrochemistry: 是的。所以呢？你也应该喝醉。或者，比如说，应该喝的*更醉*。你应该不想清醒的死去吧？</text>
</g>
<!-- 10 -->
<g id="node10" class="node">
<title>10</title>
<ellipse fill="none" stroke="black" cx="2101.31" cy="-810" rx="57.49" ry="18"/>
<text text-anchor="middle" x="2101.31" y="-804.95" font-family="Times New Roman,serif" font-size="14.00">Untitled hub</text>
</g>
<!-- 6&#45;&gt;10 -->
<g id="edge5" class="edge">
<title>6&#45;&gt;10</title>
<path fill="none" stroke="black" d="M1641.99,-864.14C1767.69,-849.6 1943.33,-829.28 2036.8,-818.46"/>
<polygon fill="black" stroke="black" points="2037.02,-821.96 2046.55,-817.34 2036.21,-815.01 2037.02,-821.96"/>
</g>
<!-- 15 -->
<g id="node15" class="node">
<title>15</title>
<ellipse fill="none" stroke="black" cx="2424.31" cy="-234" rx="543.71" ry="18"/>
<text text-anchor="middle" x="2424.31" y="-228.95" font-family="Times New Roman,serif" font-size="14.00">Kortenaer: “再打断我一次，我就当场处决你，一等兵。”他的情绪随着嘴唇周围的淡黄色唾液一起迸发了。</text>
</g>
<!-- 7&#45;&gt;15 -->
<g id="edge6" class="edge">
<title>7&#45;&gt;15</title>
<path fill="none" stroke="black" d="M2372.37,-287.7C2380.55,-279.39 2390.52,-269.28 2399.53,-260.14"/>
<polygon fill="black" stroke="black" points="2401.86,-262.76 2406.39,-253.18 2396.87,-257.85 2401.86,-262.76"/>
</g>
<!-- 8 -->
<g id="node8" class="node">
<title>8</title>
<ellipse fill="none" stroke="black" cx="1521.31" cy="-450" rx="580.56" ry="18"/>
<text text-anchor="middle" x="1521.31" y="-444.95" font-family="Times New Roman,serif" font-size="14.00">Kortenaer: “脑子进屎的蠢货……”他擦掉眉头上的汗水。“我知道你在做什么，你这个*杂种*。没用的，我很清楚。”</text>
</g>
<!-- 8&#45;&gt;2 -->
<g id="edge7" class="edge">
<title>8&#45;&gt;2</title>
<path fill="none" stroke="black" d="M1562.59,-431.7C1584.87,-422.36 1612.59,-410.74 1636.33,-400.79"/>
<polygon fill="black" stroke="black" points="1637.66,-404.03 1645.53,-396.93 1634.95,-397.57 1637.66,-404.03"/>
</g>
<!-- 9&#45;&gt;2 -->
<g id="edge8" class="edge">
<title>9&#45;&gt;2</title>
<path fill="none" stroke="black" d="M2396.13,-433.27C2244.55,-421.65 2039.26,-405.91 1888.81,-394.37"/>
<polygon fill="black" stroke="black" points="1889.36,-390.9 1879.12,-393.63 1888.83,-397.88 1889.36,-390.9"/>
</g>
<!-- 10&#45;&gt;4 -->
<g id="edge9" class="edge">
<title>10&#45;&gt;4</title>
<path fill="none" stroke="black" d="M2158.67,-807.54C2389.58,-801.07 3242.44,-771.37 3321.31,-684 3403.4,-593.07 2960.89,-548.14 2731.87,-531.23"/>
<polygon fill="black" stroke="black" points="2732.19,-527.75 2721.97,-530.51 2731.68,-534.73 2732.19,-527.75"/>
</g>
<!-- 14 -->
<g id="node14" class="node">
<title>14</title>
<ellipse fill="none" stroke="black" cx="1521.31" cy="-522" rx="331.31" ry="18"/>
<text text-anchor="middle" x="1521.31" y="-516.95" font-family="Times New Roman,serif" font-size="14.00">You: “酒精是沙漠侏儒欺骗我们的诡计。千万不要向它*屈服*。”</text>
</g>
<!-- 10&#45;&gt;14 -->
<g id="edge10" class="edge">
<title>10&#45;&gt;14</title>
<path fill="none" stroke="black" d="M2043.8,-808.46C1791.83,-805.48 793.8,-787.22 705.31,-684 627.28,-592.98 993.8,-552.3 1260.99,-534.95"/>
<polygon fill="black" stroke="black" points="1261.17,-538.45 1270.93,-534.32 1260.72,-531.46 1261.17,-538.45"/>
</g>
<!-- 16 -->
<g id="node16" class="node">
<title>16</title>
<ellipse fill="none" stroke="black" cx="2265.31" cy="-738" rx="325.68" ry="18"/>
<text text-anchor="middle" x="2265.31" y="-732.95" font-family="Times New Roman,serif" font-size="14.00">You: 老天啊，我现在不想喝酒。看看这个！我正在战斗中呢！</text>
</g>
<!-- 10&#45;&gt;16 -->
<g id="edge11" class="edge">
<title>10&#45;&gt;16</title>
<path fill="none" stroke="black" d="M2134.5,-794.83C2157.45,-785.04 2188.42,-771.82 2214.47,-760.7"/>
<polygon fill="black" stroke="black" points="2215.7,-763.98 2223.53,-756.83 2212.96,-757.54 2215.7,-763.98"/>
</g>
<!-- 17 -->
<g id="node17" class="node">
<title>17</title>
<ellipse fill="none" stroke="black" cx="1447.31" cy="-738" rx="266.82" ry="18"/>
<text text-anchor="middle" x="1447.31" y="-732.95" font-family="Times New Roman,serif" font-size="14.00">You: 老天啊，我现在不需要喝酒，园丁刚中枪了！</text>
</g>
<!-- 10&#45;&gt;17 -->
<g id="edge12" class="edge">
<title>10&#45;&gt;17</title>
<path fill="none" stroke="black" d="M2047.51,-803.24C1949.91,-792.8 1740.48,-770.38 1596.74,-754.99"/>
<polygon fill="black" stroke="black" points="1597.46,-751.55 1587.15,-753.97 1596.72,-758.51 1597.46,-751.55"/>
</g>
<!-- 22 -->
<g id="node22" class="node">
<title>22</title>
<ellipse fill="none" stroke="black" cx="3378.31" cy="-522" rx="204.38" ry="18"/>
<text text-anchor="middle" x="3378.31" y="-516.95" font-family="Times New Roman,serif" font-size="14.00">You: “我也喝多了。来跳舞吧，宝贝。”</text>
</g>
<!-- 10&#45;&gt;22 -->
<g id="edge13" class="edge">
<title>10&#45;&gt;22</title>
<path fill="none" stroke="black" d="M2158.74,-808.29C2347.89,-805.61 2950.17,-794.2 3140.31,-756 3232.93,-737.39 3277.41,-754.49 3340.31,-684 3373.15,-647.19 3379.03,-587.31 3379.34,-551.88"/>
<polygon fill="black" stroke="black" points="3382.84,-551.93 3379.27,-541.96 3375.84,-551.98 3382.84,-551.93"/>
</g>
<!-- 28 -->
<g id="node28" class="node">
<title>28</title>
<ellipse fill="none" stroke="black" cx="648.31" cy="-522" rx="216.15" ry="18"/>
<text text-anchor="middle" x="648.31" y="-516.95" font-family="Times New Roman,serif" font-size="14.00">You: “你的判断是错误的。你会后悔的。”</text>
</g>
<!-- 10&#45;&gt;28 -->
<g id="edge14" class="edge">
<title>10&#45;&gt;28</title>
<path fill="none" stroke="black" d="M2043.85,-808.67C1806.18,-807.05 906.73,-798.16 787.31,-756 736.68,-738.12 720.35,-728.5 690.31,-684 662.82,-643.27 653.32,-585.58 650.04,-551.45"/>
<polygon fill="black" stroke="black" points="653.53,-551.21 649.21,-541.53 646.55,-551.79 653.53,-551.21"/>
</g>
<!-- 11 -->
<g id="node11" class="node">
<title>11</title>
<ellipse fill="none" stroke="black" cx="2568.31" cy="-162" rx="323.63" ry="18"/>
<text text-anchor="middle" x="2568.31" y="-156.95" font-family="Times New Roman,serif" font-size="14.00">Suggestion: 就是现在！你让他们都分心了！他快被她气炸了……</text>
</g>
<!-- 25 -->
<g id="node25" class="node">
<title>25</title>
<ellipse fill="none" stroke="black" cx="2744.31" cy="-90" rx="100.48" ry="18"/>
<text text-anchor="middle" x="2744.31" y="-84.95" font-family="Times New Roman,serif" font-size="14.00">Jump to: [tribunalHUB]</text>
</g>
<!-- 11&#45;&gt;25 -->
<g id="edge15" class="edge">
<title>11&#45;&gt;25</title>
<path fill="none" stroke="black" d="M2611.82,-143.7C2636.69,-133.8 2667.99,-121.35 2693.93,-111.04"/>
<polygon fill="black" stroke="black" points="2694.91,-114.41 2702.91,-107.47 2692.32,-107.91 2694.91,-114.41"/>
</g>
<!-- 12 -->
<g id="node12" class="node">
<title>12</title>
<ellipse fill="none" stroke="black" cx="2101.31" cy="-1170" rx="169.07" ry="18"/>
<text text-anchor="middle" x="2101.31" y="-1164.95" font-family="Times New Roman,serif" font-size="14.00">Jump to: [Kortenaer: &quot;&quot;Yes... So what?&quot;&quot;]</text>
</g>
<!-- 24 -->
<g id="node24" class="node">
<title>24</title>
<ellipse fill="none" stroke="black" cx="2101.31" cy="-1098" rx="151.15" ry="18"/>
<text text-anchor="middle" x="2101.31" y="-1092.95" font-family="Times New Roman,serif" font-size="14.00">Kortenaer: “是的……所以呢？”</text>
</g>
<!-- 12&#45;&gt;24 -->
<g id="edge16" class="edge">
<title>12&#45;&gt;24</title>
<path fill="none" stroke="black" d="M2101.31,-1151.7C2101.31,-1144.41 2101.31,-1135.73 2101.31,-1127.54"/>
<polygon fill="black" stroke="black" points="2104.81,-1127.62 2101.31,-1117.62 2097.81,-1127.62 2104.81,-1127.62"/>
</g>
<!-- 13 -->
<g id="node13" class="node">
<title>13</title>
<ellipse fill="none" stroke="black" cx="2592.31" cy="-666" rx="720.28" ry="18"/>
<text text-anchor="middle" x="2592.31" y="-660.95" font-family="Times New Roman,serif" font-size="14.00">Electrochemistry: 没错。这真是*太可怕*了！不论你做什么，人们都会死——这全都是你的错。只有酒精能带来一些安慰。接着想喝酒的事吧！</text>
</g>
<!-- 18 -->
<g id="node18" class="node">
<title>18</title>
<ellipse fill="none" stroke="black" cx="2056.31" cy="-594" rx="478.71" ry="18"/>
<text text-anchor="middle" x="2056.31" y="-588.95" font-family="Times New Roman,serif" font-size="14.00">Volition: 闭嘴！让他想想，现在情况太危险，他是*不会*因为你搞砸的。我不会让你这么做。</text>
</g>
<!-- 13&#45;&gt;18 -->
<g id="edge17" class="edge">
<title>13&#45;&gt;18</title>
<path fill="none" stroke="black" d="M2460.85,-647.83C2380.62,-637.35 2278.13,-623.97 2196.38,-613.29"/>
<polygon fill="black" stroke="black" points="2196.86,-609.83 2186.49,-612 2195.95,-616.77 2196.86,-609.83"/>
</g>
<!-- 14&#45;&gt;8 -->
<g id="edge18" class="edge">
<title>14&#45;&gt;8</title>
<path fill="none" stroke="black" d="M1521.31,-503.7C1521.31,-496.41 1521.31,-487.73 1521.31,-479.54"/>
<polygon fill="black" stroke="black" points="1524.81,-479.62 1521.31,-469.62 1517.81,-479.62 1524.81,-479.62"/>
</g>
<!-- 15&#45;&gt;11 -->
<g id="edge19" class="edge">
<title>15&#45;&gt;11</title>
<path fill="none" stroke="black" d="M2459.91,-215.7C2478.77,-206.53 2502.16,-195.16 2522.38,-185.33"/>
<polygon fill="black" stroke="black" points="2523.8,-188.53 2531.26,-181.01 2520.74,-182.23 2523.8,-188.53"/>
</g>
<!-- 16&#45;&gt;13 -->
<g id="edge20" class="edge">
<title>16&#45;&gt;13</title>
<path fill="none" stroke="black" d="M2344.47,-720.05C2391.38,-710.01 2451.04,-697.24 2500.07,-686.75"/>
<polygon fill="black" stroke="black" points="2500.8,-690.17 2509.84,-684.65 2499.33,-683.32 2500.8,-690.17"/>
</g>
<!-- 23 -->
<g id="node23" class="node">
<title>23</title>
<ellipse fill="none" stroke="black" cx="1284.31" cy="-666" rx="569.81" ry="18"/>
<text text-anchor="middle" x="1284.31" y="-660.95" font-family="Times New Roman,serif" font-size="14.00">Electrochemistry: 卧槽，好可怕……一个姑娘中枪了？！因为你吗？！只有温热的美酒能帮你抚平这种罪恶感了！</text>
</g>
<!-- 17&#45;&gt;23 -->
<g id="edge21" class="edge">
<title>17&#45;&gt;23</title>
<path fill="none" stroke="black" d="M1407.44,-719.88C1385.69,-710.54 1358.55,-698.88 1335.29,-688.89"/>
<polygon fill="black" stroke="black" points="1336.87,-685.76 1326.3,-685.03 1334.1,-692.19 1336.87,-685.76"/>
</g>
<!-- 18&#45;&gt;4 -->
<g id="edge23" class="edge">
<title>18&#45;&gt;4</title>
<path fill="none" stroke="black" d="M2186.85,-576.23C2281.28,-564.1 2407.26,-547.92 2495.45,-536.6"/>
<polygon fill="black" stroke="black" points="2495.84,-540.07 2505.32,-535.33 2494.95,-533.13 2495.84,-540.07"/>
</g>
<!-- 18&#45;&gt;14 -->
<g id="edge25" class="edge">
<title>18&#45;&gt;14</title>
<path fill="none" stroke="black" d="M1927.82,-576.19C1845.65,-565.44 1739.25,-551.52 1655.91,-540.61"/>
<polygon fill="black" stroke="black" points="1656.44,-537.15 1646.07,-539.32 1655.54,-544.09 1656.44,-537.15"/>
</g>
<!-- 18&#45;&gt;22 -->
<g id="edge24" class="edge">
<title>18&#45;&gt;22</title>
<path fill="none" stroke="black" d="M2325.83,-578.73C2585.16,-565 2970.16,-544.61 3195.54,-532.68"/>
<polygon fill="black" stroke="black" points="3195.51,-536.18 3205.31,-532.16 3195.14,-529.19 3195.51,-536.18"/>
</g>
<!-- 18&#45;&gt;28 -->
<g id="edge22" class="edge">
<title>18&#45;&gt;28</title>
<path fill="none" stroke="black" d="M1775.19,-579.02C1498.34,-565.26 1082.89,-544.61 841.36,-532.6"/>
<polygon fill="black" stroke="black" points="841.66,-529.11 831.5,-532.11 841.32,-536.1 841.66,-529.11"/>
</g>
<!-- 19 -->
<g id="node19" class="node">
<title>19</title>
<ellipse fill="none" stroke="black" cx="2101.31" cy="-1026" rx="200.29" ry="18"/>
<text text-anchor="middle" x="2101.31" y="-1020.95" font-family="Times New Roman,serif" font-size="14.00">Kim Kitsuragi: Variable[&quot;character.habit_alcohol&quot;]</text>
</g>
<!-- 20 -->
<g id="node20" class="node">
<title>20</title>
<polygon fill="none" stroke="black" points="1885.31,-972 1684.57,-954 1885.31,-936 2086.05,-954 1885.31,-972"/>
<text text-anchor="middle" x="1885.31" y="-948.95" font-family="Times New Roman,serif" font-size="14.00">Variable[&quot;character.habit_alcohol&quot;]</text>
</g>
<!-- 19&#45;&gt;20 -->
<g id="edge26" class="edge">
<title>19&#45;&gt;20</title>
<path fill="none" stroke="black" d="M2049.3,-1008.14C2015.62,-997.23 1971.9,-983.06 1938.07,-972.1"/>
<polygon fill="black" stroke="black" points="1939.49,-968.88 1928.9,-969.13 1937.33,-975.54 1939.49,-968.88"/>
</g>
<!-- 21 -->
<g id="node21" class="node">
<title>21</title>
<polygon fill="none" stroke="black" points="2511.31,-972 2297.55,-954 2511.31,-936 2725.07,-954 2511.31,-972"/>
<text text-anchor="middle" x="2511.31" y="-948.95" font-family="Times New Roman,serif" font-size="14.00">!(Variable[&quot;character.habit_alcohol&quot;])</text>
</g>
<!-- 19&#45;&gt;21 -->
<g id="edge27" class="edge">
<title>19&#45;&gt;21</title>
<path fill="none" stroke="black" d="M2192.05,-1009.51C2263.77,-997.26 2362.91,-980.34 2431.6,-968.61"/>
<polygon fill="black" stroke="black" points="2432.02,-972.09 2441.29,-966.96 2430.84,-965.19 2432.02,-972.09"/>
</g>
<!-- 20&#45;&gt;6 -->
<g id="edge28" class="edge">
<title>20&#45;&gt;6</title>
<path fill="none" stroke="black" d="M1820.64,-941.36C1761.37,-930.7 1672.51,-914.71 1602.78,-902.16"/>
<polygon fill="black" stroke="black" points="1603.71,-898.77 1593.25,-900.44 1602.47,-905.66 1603.71,-898.77"/>
</g>
<!-- 27 -->
<g id="node27" class="node">
<title>27</title>
<ellipse fill="none" stroke="black" cx="2706.31" cy="-882" rx="632.77" ry="18"/>
<text text-anchor="middle" x="2706.31" y="-876.95" font-family="Times New Roman,serif" font-size="14.00">Electrochemistry: 是的。所以呢？你也应该喝醉。想想你上次喝酒已经过去多久了，真是太疯狂了吧。赶紧给自己来上一杯。</text>
</g>
<!-- 21&#45;&gt;27 -->
<g id="edge29" class="edge">
<title>21&#45;&gt;27</title>
<path fill="none" stroke="black" d="M2550.77,-938.83C2578.45,-928.9 2615.93,-915.44 2647.17,-904.23"/>
<polygon fill="black" stroke="black" points="2648.27,-907.55 2656.5,-900.88 2645.91,-900.96 2648.27,-907.55"/>
</g>
<!-- 29 -->
<g id="node29" class="node">
<title>29</title>
<ellipse fill="none" stroke="black" cx="3566.31" cy="-450" rx="465.4" ry="18"/>
<text text-anchor="middle" x="3566.31" y="-444.95" font-family="Times New Roman,serif" font-size="14.00">Kortenaer: “好吧。”他擦掉眉头上的汗水。“就这么做吧。把你的屎涂遍整个该死的粪坑……”</text>
</g>
<!-- 22&#45;&gt;29 -->
<g id="edge30" class="edge">
<title>22&#45;&gt;29</title>
<path fill="none" stroke="black" d="M3423.82,-504.05C3449.43,-494.52 3481.66,-482.52 3508.99,-472.34"/>
<polygon fill="black" stroke="black" points="3510.02,-475.7 3518.17,-468.93 3507.57,-469.14 3510.02,-475.7"/>
</g>
<!-- 23&#45;&gt;18 -->
<g id="edge31" class="edge">
<title>23&#45;&gt;18</title>
<path fill="none" stroke="black" d="M1466.29,-648.5C1586.89,-637.56 1744.79,-623.25 1866.89,-612.18"/>
<polygon fill="black" stroke="black" points="1867.07,-615.67 1876.71,-611.28 1866.44,-608.7 1867.07,-615.67"/>
</g>
<!-- 24&#45;&gt;19 -->
<g id="edge32" class="edge">
<title>24&#45;&gt;19</title>
<path fill="none" stroke="black" d="M2101.31,-1079.7C2101.31,-1072.41 2101.31,-1063.73 2101.31,-1055.54"/>
<polygon fill="black" stroke="black" points="2104.81,-1055.62 2101.31,-1045.62 2097.81,-1055.62 2104.81,-1055.62"/>
</g>
<!-- 5370183 -->
<g id="node30" class="node">
<title>5370183</title>
<polygon fill="none" stroke="black" points="2744.31,-36 2516.79,-18 2744.31,0 2971.83,-18 2744.31,-36"/>
<text text-anchor="middle" x="2744.31" y="-12.95" font-family="Times New Roman,serif" font-size="14.00">JUMP OUT to PLAZA / KORTENAER</text>
</g>
<!-- 25&#45;&gt;5370183 -->
<g id="edge33" class="edge">
<title>25&#45;&gt;5370183</title>
<path fill="none" stroke="black" d="M2744.31,-71.7C2744.31,-64.41 2744.31,-55.73 2744.31,-47.54"/>
<polygon fill="black" stroke="black" points="2747.81,-47.62 2744.31,-37.62 2740.81,-47.62 2747.81,-47.62"/>
</g>
<!-- 26 -->
<g id="node26" class="node">
<title>26</title>
<ellipse fill="none" stroke="black" cx="3399.31" cy="-306" rx="190.56" ry="18"/>
<text text-anchor="middle" x="3399.31" y="-300.95" font-family="Times New Roman,serif" font-size="14.00">Authority: 这样没用，他*更*专注了。</text>
</g>
<!-- 26&#45;&gt;25 -->
<g id="edge34" class="edge">
<title>26&#45;&gt;25</title>
<path fill="none" stroke="black" d="M3347.91,-288.21C3227.47,-248.86 2927.69,-150.91 2801.61,-109.72"/>
<polygon fill="black" stroke="black" points="2803.07,-106.52 2792.48,-106.74 2800.9,-113.17 2803.07,-106.52"/>
</g>
<!-- 27&#45;&gt;10 -->
<g id="edge35" class="edge">
<title>27&#45;&gt;10</title>
<path fill="none" stroke="black" d="M2559.47,-864.01C2433.9,-849.48 2259.15,-829.26 2165.94,-818.48"/>
<polygon fill="black" stroke="black" points="2166.55,-815.03 2156.22,-817.35 2165.75,-821.98 2166.55,-815.03"/>
</g>
<!-- 28&#45;&gt;3 -->
<g id="edge36" class="edge">
<title>28&#45;&gt;3</title>
<path fill="none" stroke="black" d="M603.04,-504.05C577.56,-494.52 545.51,-482.52 518.33,-472.34"/>
<polygon fill="black" stroke="black" points="519.8,-469.16 509.2,-468.93 517.34,-475.71 519.8,-469.16"/>
</g>
<!-- 29&#45;&gt;26 -->
<g id="edge37" class="edge">
<title>29&#45;&gt;26</title>
<path fill="none" stroke="black" d="M3545.83,-431.59C3516.33,-406.5 3461.73,-360.08 3428.16,-331.53"/>
<polygon fill="black" stroke="black" points="3430.73,-329.12 3420.85,-325.31 3426.2,-334.46 3430.73,-329.12"/>
</g>
</g>
</svg>
