<?xml version="1.0" encoding="UTF-8" standalone="no"?>
<!DOCTYPE svg PUBLIC "-//W3C//DTD SVG 1.1//EN"
 "http://www.w3.org/Graphics/SVG/1.1/DTD/svg11.dtd">
<!-- Generated by graphviz version 12.2.1 (20241206.2353)
 -->
<!-- Title: G Pages: 1 -->
<svg width="4204pt" height="1052pt"
 viewBox="0.00 0.00 4204.23 1052.00" xmlns="http://www.w3.org/2000/svg" xmlns:xlink="http://www.w3.org/1999/xlink">
<g id="graph0" class="graph" transform="scale(1 1) rotate(0) translate(4 1048)">
<title>G</title>
<polygon fill="white" stroke="none" points="-4,4 -4,-1048 4200.23,-1048 4200.23,4 -4,4"/>
<!-- 0 -->
<g id="node1" class="node">
<title>0</title>
<ellipse fill="none" stroke="black" cx="192.53" cy="-1026" rx="39.07" ry="18"/>
<text text-anchor="middle" x="192.53" y="-1020.95" font-family="Times New Roman,serif" font-size="14.00">START</text>
</g>
<!-- 0&#45;&gt;0 -->
<g id="edge1" class="edge">
<title>0&#45;&gt;0</title>
<path fill="none" stroke="black" d="M220.72,-1038.94C235.83,-1041.14 249.6,-1036.83 249.6,-1026 249.6,-1017.96 242.02,-1013.52 231.93,-1012.65"/>
<polygon fill="black" stroke="black" points="232.1,-1009.15 222.23,-1013 232.35,-1016.14 232.1,-1009.15"/>
</g>
<!-- 1 -->
<g id="node2" class="node">
<title>1</title>
<ellipse fill="none" stroke="black" cx="297.53" cy="-1026" rx="29.86" ry="18"/>
<text text-anchor="middle" x="297.53" y="-1020.95" font-family="Times New Roman,serif" font-size="14.00">input</text>
</g>
<!-- 17 -->
<g id="node18" class="node">
<title>17</title>
<ellipse fill="none" stroke="black" cx="297.53" cy="-954" rx="297.53" ry="18"/>
<text text-anchor="middle" x="297.53" y="-948.95" font-family="Times New Roman,serif" font-size="14.00">Composure: As you turn, a bright light catches your eye, making you squint.</text>
</g>
<!-- 1&#45;&gt;17 -->
<g id="edge2" class="edge">
<title>1&#45;&gt;17</title>
<path fill="none" stroke="black" d="M291.65,-1008.05C290.87,-1000.68 290.61,-991.84 290.89,-983.51"/>
<polygon fill="black" stroke="black" points="294.36,-983.99 291.52,-973.79 287.38,-983.54 294.36,-983.99"/>
</g>
<!-- 2 -->
<g id="node3" class="node">
<title>2</title>
<ellipse fill="none" stroke="black" cx="1047.53" cy="-1026" rx="57.49" ry="18"/>
<text text-anchor="middle" x="1047.53" y="-1020.95" font-family="Times New Roman,serif" font-size="14.00">Untitled hub</text>
</g>
<!-- 8 -->
<g id="node9" class="node">
<title>8</title>
<ellipse fill="none" stroke="black" cx="623.53" cy="-234" rx="148.08" ry="18"/>
<text text-anchor="middle" x="623.53" y="-228.95" font-family="Times New Roman,serif" font-size="14.00">You: No. Fuck you! [Finish thought]</text>
</g>
<!-- 2&#45;&gt;8 -->
<g id="edge3" class="edge">
<title>2&#45;&gt;8</title>
<path fill="none" stroke="black" d="M994.69,-1018.62C881.03,-1003.42 623.53,-960.44 623.53,-883 623.53,-883 623.53,-883 623.53,-377 623.53,-337.74 623.53,-292.38 623.53,-263.69"/>
<polygon fill="black" stroke="black" points="627.03,-264 623.53,-254 620.03,-264 627.03,-264"/>
</g>
<!-- 19 -->
<g id="node20" class="node">
<title>19</title>
<ellipse fill="none" stroke="black" cx="1101.53" cy="-810" rx="99.46" ry="18"/>
<text text-anchor="middle" x="1101.53" y="-804.95" font-family="Times New Roman,serif" font-size="14.00">You: [Discard thought.]</text>
</g>
<!-- 2&#45;&gt;19 -->
<g id="edge4" class="edge">
<title>2&#45;&gt;19</title>
<path fill="none" stroke="black" d="M1052.75,-1007.7C1059.91,-983.66 1072.98,-938.73 1082.53,-900 1087.48,-879.93 1092.33,-857.14 1095.89,-839.64"/>
<polygon fill="black" stroke="black" points="1099.3,-840.45 1097.84,-829.95 1092.44,-839.07 1099.3,-840.45"/>
</g>
<!-- 22 -->
<g id="node23" class="node">
<title>22</title>
<ellipse fill="none" stroke="black" cx="993.53" cy="-954" rx="51.86" ry="18"/>
<text text-anchor="middle" x="993.53" y="-948.95" font-family="Times New Roman,serif" font-size="14.00">You: Cool.</text>
</g>
<!-- 2&#45;&gt;22 -->
<g id="edge5" class="edge">
<title>2&#45;&gt;22</title>
<path fill="none" stroke="black" d="M1034.46,-1008.05C1028.16,-999.89 1020.46,-989.91 1013.45,-980.82"/>
<polygon fill="black" stroke="black" points="1016.29,-978.77 1007.41,-972.99 1010.74,-983.04 1016.29,-978.77"/>
</g>
<!-- 3 -->
<g id="node4" class="node">
<title>3</title>
<ellipse fill="none" stroke="black" cx="3749.53" cy="-162" rx="335.92" ry="18"/>
<text text-anchor="middle" x="3749.53" y="-156.95" font-family="Times New Roman,serif" font-size="14.00">You: No. I&#39;m too down beat. I won&#39;t say those things anymore. [Wave off the thought.]</text>
</g>
<!-- 4 -->
<g id="node5" class="node">
<title>4</title>
<ellipse fill="none" stroke="black" cx="2069.53" cy="-90" rx="106.11" ry="18"/>
<text text-anchor="middle" x="2069.53" y="-84.95" font-family="Times New Roman,serif" font-size="14.00">You: Fuck it &#45;&#45; ACTION!</text>
</g>
<!-- 6 -->
<g id="node7" class="node">
<title>6</title>
<ellipse fill="none" stroke="black" cx="1223.53" cy="-306" rx="302.14" ry="18"/>
<text text-anchor="middle" x="1223.53" y="-300.95" font-family="Times New Roman,serif" font-size="14.00">Composure: You sure? The light is *important*. The light is life. And destiny.</text>
</g>
<!-- 4&#45;&gt;6 -->
<g id="edge6" class="edge">
<title>4&#45;&gt;6</title>
<path fill="none" stroke="black" d="M2135.27,-104.55C2156.56,-112.39 2177.92,-124.71 2190.53,-144 2199.29,-157.39 2201.09,-167.98 2190.53,-180 2141.89,-235.33 1712.23,-273.21 1442.25,-291.79"/>
<polygon fill="black" stroke="black" points="1442.36,-288.28 1432.62,-292.45 1442.84,-295.26 1442.36,-288.28"/>
</g>
<!-- 5 -->
<g id="node6" class="node">
<title>5</title>
<ellipse fill="none" stroke="black" cx="1205.53" cy="-738" rx="390.68" ry="18"/>
<text text-anchor="middle" x="1205.53" y="-732.95" font-family="Times New Roman,serif" font-size="14.00">You: Actually, now that I hear *superstar* and *law official* in a sentence they sound weird together.</text>
</g>
<!-- 20 -->
<g id="node21" class="node">
<title>20</title>
<ellipse fill="none" stroke="black" cx="1308.53" cy="-666" rx="618.95" ry="18"/>
<text text-anchor="middle" x="1308.53" y="-660.95" font-family="Times New Roman,serif" font-size="14.00">Composure: What are you, deaf? They&#39;re perfect! Like &#39;rockstar politician&#39; and &#39;drug&#45;addict teacher&#39;. Embrace the superstardom you&#39;ve worked so hard to establish.</text>
</g>
<!-- 5&#45;&gt;20 -->
<g id="edge7" class="edge">
<title>5&#45;&gt;20</title>
<path fill="none" stroke="black" d="M1230.99,-719.7C1243.87,-710.95 1259.69,-700.19 1273.68,-690.69"/>
<polygon fill="black" stroke="black" points="1275.45,-693.71 1281.75,-685.2 1271.52,-687.92 1275.45,-693.71"/>
</g>
<!-- 6&#45;&gt;8 -->
<g id="edge8" class="edge">
<title>6&#45;&gt;8</title>
<path fill="none" stroke="black" d="M1090,-289.42C984.76,-277.14 839.54,-260.2 739.22,-248.5"/>
<polygon fill="black" stroke="black" points="739.66,-245.03 729.32,-247.34 738.85,-251.98 739.66,-245.03"/>
</g>
<!-- 9 -->
<g id="node10" class="node">
<title>9</title>
<ellipse fill="none" stroke="black" cx="1410.53" cy="-234" rx="124.54" ry="18"/>
<text text-anchor="middle" x="1410.53" y="-228.95" font-family="Times New Roman,serif" font-size="14.00">You: Where&#39;s it coming from?</text>
</g>
<!-- 6&#45;&gt;9 -->
<g id="edge9" class="edge">
<title>6&#45;&gt;9</title>
<path fill="none" stroke="black" d="M1269.28,-287.88C1295.62,-278.01 1328.88,-265.56 1356.51,-255.22"/>
<polygon fill="black" stroke="black" points="1357.63,-258.54 1365.77,-251.76 1355.18,-251.98 1357.63,-258.54"/>
</g>
<!-- 7 -->
<g id="node8" class="node">
<title>7</title>
<ellipse fill="none" stroke="black" cx="1686.53" cy="-378" rx="702.88" ry="18"/>
<text text-anchor="middle" x="1686.53" y="-372.95" font-family="Times New Roman,serif" font-size="14.00">Composure: With a sudden flash the world freezes around you &#45;&#45; and you along with it. In an iconic monochrome solution, a black silhouette against a rasterized orange world. It&#39;s *on*.</text>
</g>
<!-- 15 -->
<g id="node16" class="node">
<title>15</title>
<ellipse fill="none" stroke="black" cx="1504.53" cy="-162" rx="677.29" ry="18"/>
<text text-anchor="middle" x="1504.53" y="-156.95" font-family="Times New Roman,serif" font-size="14.00">Composure: From a distant sunset? A stage light? Flash photography? Nowhere in particular? It&#39;s just what *superstar law&#45;officers* do &#45;&#45; they squint at lights. And they solve shit.</text>
</g>
<!-- 9&#45;&gt;15 -->
<g id="edge10" class="edge">
<title>9&#45;&gt;15</title>
<path fill="none" stroke="black" d="M1433.29,-216.05C1445,-207.33 1459.49,-196.54 1472.33,-186.98"/>
<polygon fill="black" stroke="black" points="1474.19,-189.96 1480.12,-181.18 1470.01,-184.34 1474.19,-189.96"/>
</g>
<!-- 10 -->
<g id="node11" class="node">
<title>10</title>
<ellipse fill="none" stroke="black" cx="1260.53" cy="-1026" rx="137.34" ry="18"/>
<text text-anchor="middle" x="1260.53" y="-1020.95" font-family="Times New Roman,serif" font-size="14.00">You: &quot;Yes.&quot; [*Really* discard it.]</text>
</g>
<!-- 11 -->
<g id="node12" class="node">
<title>11</title>
<ellipse fill="none" stroke="black" cx="965.53" cy="-882" rx="108.16" ry="18"/>
<text text-anchor="middle" x="965.53" y="-876.95" font-family="Times New Roman,serif" font-size="14.00">Composure: Sooooo cool.</text>
</g>
<!-- 11&#45;&gt;8 -->
<g id="edge11" class="edge">
<title>11&#45;&gt;8</title>
<path fill="none" stroke="black" d="M865.57,-874.91C776.96,-863.45 661.53,-830.89 661.53,-739 661.53,-739 661.53,-739 661.53,-377 661.53,-336.18 646.69,-290.93 635.56,-262.72"/>
<polygon fill="black" stroke="black" points="638.81,-261.43 631.79,-253.49 632.33,-264.08 638.81,-261.43"/>
</g>
<!-- 11&#45;&gt;19 -->
<g id="edge12" class="edge">
<title>11&#45;&gt;19</title>
<path fill="none" stroke="black" d="M997.76,-864.41C1016.22,-854.91 1039.6,-842.88 1059.49,-832.64"/>
<polygon fill="black" stroke="black" points="1060.9,-835.85 1068.19,-828.16 1057.69,-829.63 1060.9,-835.85"/>
</g>
<!-- 12 -->
<g id="node13" class="node">
<title>12</title>
<ellipse fill="none" stroke="black" cx="1960.53" cy="-18" rx="758.67" ry="18"/>
<text text-anchor="middle" x="1960.53" y="-12.95" font-family="Times New Roman,serif" font-size="14.00">Composure: Yeah, you have! You&#39;re a big dick cop. Dick Mullen. Salaam Rocky Bhai. Bad&#45;ass, on&#45;the&#45;edge disco cop. Time to recede into a ludicrous fantasy world, HERE WE GO! Camera, lights...</text>
</g>
<!-- 24 -->
<g id="node25" class="node">
<title>24</title>
<ellipse fill="none" stroke="black" cx="1686.53" cy="-450" rx="75.41" ry="18"/>
<text text-anchor="middle" x="1686.53" y="-444.95" font-family="Times New Roman,serif" font-size="14.00">Untitled hub (02)</text>
</g>
<!-- 12&#45;&gt;24 -->
<g id="edge13" class="edge">
<title>12&#45;&gt;24</title>
<path fill="none" stroke="black" d="M2106.7,-36.12C2240.41,-55.99 2417.53,-94.79 2417.53,-161 2417.53,-307 2417.53,-307 2417.53,-307 2417.53,-347.45 2429.01,-369.41 2398.53,-396 2352.38,-436.27 1953.03,-445.95 1773.42,-448.27"/>
<polygon fill="black" stroke="black" points="1773.38,-444.77 1763.42,-448.39 1773.47,-451.77 1773.38,-444.77"/>
</g>
<!-- 13 -->
<g id="node14" class="node">
<title>13</title>
<ellipse fill="none" stroke="black" cx="1480.53" cy="-594" rx="259.15" ry="18"/>
<text text-anchor="middle" x="1480.53" y="-588.95" font-family="Times New Roman,serif" font-size="14.00">You: You&#39;ve got the wrong impression. I&#39;m no superstar. I&#39;m trash.</text>
</g>
<!-- 23 -->
<g id="node24" class="node">
<title>23</title>
<ellipse fill="none" stroke="black" cx="1653.53" cy="-522" rx="793.47" ry="18"/>
<text text-anchor="middle" x="1653.53" y="-516.95" font-family="Times New Roman,serif" font-size="14.00">Composure: Yeah, a cool *trash* superstar. Big dick cop down on his luck. Salaam Rocky Bhai. Bad&#45;ass, on the edge disco cop. Time to recede into a ludicrous fantasy world, HERE WE GO! Camera, lights...</text>
</g>
<!-- 13&#45;&gt;23 -->
<g id="edge14" class="edge">
<title>13&#45;&gt;23</title>
<path fill="none" stroke="black" d="M1522.85,-575.88C1546.13,-566.46 1575.25,-554.67 1600.09,-544.62"/>
<polygon fill="black" stroke="black" points="1601.09,-548 1609.04,-541 1598.46,-541.51 1601.09,-548"/>
</g>
<!-- 14 -->
<g id="node15" class="node">
<title>14</title>
<ellipse fill="none" stroke="black" cx="3749.53" cy="-234" rx="229.46" ry="18"/>
<text text-anchor="middle" x="3749.53" y="-228.95" font-family="Times New Roman,serif" font-size="14.00">Conceptualization: This is the beginning of your *legend*.</text>
</g>
<!-- 14&#45;&gt;2 -->
<g id="edge15" class="edge">
<title>14&#45;&gt;2</title>
<path fill="none" stroke="black" d="M3969.08,-239.47C4056.37,-245.83 4143.43,-259.48 4174.53,-288 4204.34,-315.34 4193.53,-336.55 4193.53,-377 4193.53,-883 4193.53,-883 4193.53,-883 4193.53,-1054.2 1283.94,-983.34 1114.53,-1008 1109.66,-1008.71 1104.62,-1009.63 1099.61,-1010.67"/>
<polygon fill="black" stroke="black" points="1099.18,-1007.18 1090.2,-1012.79 1100.72,-1014.01 1099.18,-1007.18"/>
</g>
<!-- 14&#45;&gt;3 -->
<g id="edge16" class="edge">
<title>14&#45;&gt;3</title>
<path fill="none" stroke="black" d="M3749.53,-215.7C3749.53,-208.41 3749.53,-199.73 3749.53,-191.54"/>
<polygon fill="black" stroke="black" points="3753.03,-191.62 3749.53,-181.62 3746.03,-191.62 3753.03,-191.62"/>
</g>
<!-- 15&#45;&gt;4 -->
<g id="edge18" class="edge">
<title>15&#45;&gt;4</title>
<path fill="none" stroke="black" d="M1642.38,-143.92C1745.29,-131.17 1883.27,-114.08 1974.21,-102.81"/>
<polygon fill="black" stroke="black" points="1974.62,-106.29 1984.11,-101.58 1973.75,-99.34 1974.62,-106.29"/>
</g>
<!-- 18 -->
<g id="node19" class="node">
<title>18</title>
<ellipse fill="none" stroke="black" cx="1504.53" cy="-90" rx="300.09" ry="18"/>
<text text-anchor="middle" x="1504.53" y="-84.95" font-family="Times New Roman,serif" font-size="14.00">You: Yeah, that&#39;s me &#45;&#45; I&#39;ve been *establishing* my superstardom hard lately.</text>
</g>
<!-- 15&#45;&gt;18 -->
<g id="edge17" class="edge">
<title>15&#45;&gt;18</title>
<path fill="none" stroke="black" d="M1504.53,-143.7C1504.53,-136.41 1504.53,-127.73 1504.53,-119.54"/>
<polygon fill="black" stroke="black" points="1508.03,-119.62 1504.53,-109.62 1501.03,-119.62 1508.03,-119.62"/>
</g>
<!-- 16 -->
<g id="node17" class="node">
<title>16</title>
<ellipse fill="none" stroke="black" cx="2984.53" cy="-378" rx="216.67" ry="18"/>
<text text-anchor="middle" x="2984.53" y="-372.95" font-family="Times New Roman,serif" font-size="14.00">You: Wait, what&#39;s that about a ludicrous fantasy world?</text>
</g>
<!-- 21 -->
<g id="node22" class="node">
<title>21</title>
<ellipse fill="none" stroke="black" cx="3305.53" cy="-306" rx="860.01" ry="18"/>
<text text-anchor="middle" x="3305.53" y="-300.95" font-family="Times New Roman,serif" font-size="14.00">Composure: Yeah. You know, beneath it is just heartbreak, a pulmonary tract infection, atherosclerotic disease. This is where you say *action* and re&#45;conceptualize all that. Re&#45;invent it as the world&#39;s first celebrity police officer!</text>
</g>
<!-- 16&#45;&gt;21 -->
<g id="edge19" class="edge">
<title>16&#45;&gt;21</title>
<path fill="none" stroke="black" d="M3059.39,-360.68C3105.8,-350.55 3165.74,-337.49 3214.84,-326.78"/>
<polygon fill="black" stroke="black" points="3215.28,-330.26 3224.31,-324.71 3213.79,-323.42 3215.28,-330.26"/>
</g>
<!-- 17&#45;&gt;1 -->
<g id="edge20" class="edge">
<title>17&#45;&gt;1</title>
<path fill="none" stroke="black" d="M303.44,-972.28C304.2,-979.6 304.44,-988.34 304.17,-996.57"/>
<polygon fill="black" stroke="black" points="300.68,-996.33 303.51,-1006.54 307.67,-996.8 300.68,-996.33"/>
</g>
<!-- 18&#45;&gt;12 -->
<g id="edge21" class="edge">
<title>18&#45;&gt;12</title>
<path fill="none" stroke="black" d="M1610.58,-72.72C1678.14,-62.35 1765.95,-48.87 1836.71,-38.01"/>
<polygon fill="black" stroke="black" points="1837.06,-41.49 1846.42,-36.52 1836,-34.58 1837.06,-41.49"/>
</g>
<!-- 19&#45;&gt;5 -->
<g id="edge22" class="edge">
<title>19&#45;&gt;5</title>
<path fill="none" stroke="black" d="M1126.44,-792.23C1139.65,-783.34 1156.1,-772.27 1170.57,-762.53"/>
<polygon fill="black" stroke="black" points="1172.14,-765.69 1178.48,-757.21 1168.23,-759.89 1172.14,-765.69"/>
</g>
<!-- 20&#45;&gt;13 -->
<g id="edge24" class="edge">
<title>20&#45;&gt;13</title>
<path fill="none" stroke="black" d="M1351.05,-647.7C1374.19,-638.28 1403.02,-626.54 1427.6,-616.54"/>
<polygon fill="black" stroke="black" points="1428.86,-619.81 1436.8,-612.8 1426.22,-613.32 1428.86,-619.81"/>
</g>
<!-- 20&#45;&gt;18 -->
<g id="edge23" class="edge">
<title>20&#45;&gt;18</title>
<path fill="none" stroke="black" d="M1125.49,-648.35C979.56,-629.83 799.53,-592.84 799.53,-523 799.53,-523 799.53,-523 799.53,-233 799.53,-192.55 788.09,-170.63 818.53,-144 849.16,-117.21 1041.52,-103.92 1214.78,-97.35"/>
<polygon fill="black" stroke="black" points="1214.79,-100.86 1224.65,-96.99 1214.53,-93.86 1214.79,-100.86"/>
</g>
<!-- 21&#45;&gt;14 -->
<g id="edge25" class="edge">
<title>21&#45;&gt;14</title>
<path fill="none" stroke="black" d="M3415.28,-287.7C3483.4,-276.96 3570.64,-263.2 3638.91,-252.44"/>
<polygon fill="black" stroke="black" points="3639.3,-255.92 3648.64,-250.91 3638.21,-249.01 3639.3,-255.92"/>
</g>
<!-- 22&#45;&gt;11 -->
<g id="edge26" class="edge">
<title>22&#45;&gt;11</title>
<path fill="none" stroke="black" d="M986.61,-935.7C983.59,-928.15 979.98,-919.12 976.6,-910.68"/>
<polygon fill="black" stroke="black" points="979.9,-909.49 972.93,-901.51 973.4,-912.09 979.9,-909.49"/>
</g>
<!-- 23&#45;&gt;24 -->
<g id="edge27" class="edge">
<title>23&#45;&gt;24</title>
<path fill="none" stroke="black" d="M1661.69,-503.7C1665.29,-496.07 1669.6,-486.92 1673.62,-478.4"/>
<polygon fill="black" stroke="black" points="1676.72,-480.01 1677.82,-469.47 1670.39,-477.03 1676.72,-480.01"/>
</g>
<!-- 24&#45;&gt;7 -->
<g id="edge30" class="edge">
<title>24&#45;&gt;7</title>
<path fill="none" stroke="black" d="M1686.53,-431.7C1686.53,-424.41 1686.53,-415.73 1686.53,-407.54"/>
<polygon fill="black" stroke="black" points="1690.03,-407.62 1686.53,-397.62 1683.03,-407.62 1690.03,-407.62"/>
</g>
<!-- 24&#45;&gt;16 -->
<g id="edge28" class="edge">
<title>24&#45;&gt;16</title>
<path fill="none" stroke="black" d="M1759.57,-445.06C1956.56,-434.44 2503.57,-404.94 2795.41,-389.2"/>
<polygon fill="black" stroke="black" points="2795.23,-392.71 2805.03,-388.68 2794.86,-385.72 2795.23,-392.71"/>
</g>
<!-- 25 -->
<g id="node26" class="node">
<title>25</title>
<ellipse fill="none" stroke="black" cx="896.53" cy="-378" rx="68.75" ry="18"/>
<text text-anchor="middle" x="896.53" y="-372.95" font-family="Times New Roman,serif" font-size="14.00">You: ACTION!</text>
</g>
<!-- 24&#45;&gt;25 -->
<g id="edge29" class="edge">
<title>24&#45;&gt;25</title>
<path fill="none" stroke="black" d="M1611.84,-446.89C1481.76,-442.44 1205.44,-429.59 974.53,-396 968.85,-395.17 962.96,-394.17 957.08,-393.07"/>
<polygon fill="black" stroke="black" points="957.83,-389.65 947.34,-391.14 956.47,-396.51 957.83,-389.65"/>
</g>
<!-- 25&#45;&gt;6 -->
<g id="edge31" class="edge">
<title>25&#45;&gt;6</title>
<path fill="none" stroke="black" d="M948.13,-365.72C956.94,-363.8 966,-361.84 974.53,-360 1027.03,-348.69 1085.79,-336.18 1133.04,-326.15"/>
<polygon fill="black" stroke="black" points="1133.63,-329.6 1142.69,-324.1 1132.18,-322.75 1133.63,-329.6"/>
</g>
</g>
</svg>
