<?xml version="1.0" encoding="UTF-8" standalone="no"?>
<!DOCTYPE svg PUBLIC "-//W3C//DTD SVG 1.1//EN"
 "http://www.w3.org/Graphics/SVG/1.1/DTD/svg11.dtd">
<!-- Generated by graphviz version 12.2.1 (20241206.2353)
 -->
<!-- Title: G Pages: 1 -->
<svg width="6734pt" height="1556pt"
 viewBox="0.00 0.00 6733.76 1556.00" xmlns="http://www.w3.org/2000/svg" xmlns:xlink="http://www.w3.org/1999/xlink">
<g id="graph0" class="graph" transform="scale(1 1) rotate(0) translate(4 1552)">
<title>G</title>
<polygon fill="white" stroke="none" points="-4,4 -4,-1552 6729.76,-1552 6729.76,4 -4,4"/>
<!-- 0 -->
<g id="node1" class="node">
<title>0</title>
<ellipse fill="none" stroke="black" cx="2382.14" cy="-1530" rx="39.07" ry="18"/>
<text text-anchor="middle" x="2382.14" y="-1524.95" font-family="Times New Roman,serif" font-size="14.00">START</text>
</g>
<!-- 1 -->
<g id="node2" class="node">
<title>1</title>
<ellipse fill="none" stroke="black" cx="2382.14" cy="-1458" rx="29.86" ry="18"/>
<text text-anchor="middle" x="2382.14" y="-1452.95" font-family="Times New Roman,serif" font-size="14.00">input</text>
</g>
<!-- 0&#45;&gt;1 -->
<g id="edge1" class="edge">
<title>0&#45;&gt;1</title>
<path fill="none" stroke="black" d="M2382.14,-1511.7C2382.14,-1504.41 2382.14,-1495.73 2382.14,-1487.54"/>
<polygon fill="black" stroke="black" points="2385.64,-1487.62 2382.14,-1477.62 2378.64,-1487.62 2385.64,-1487.62"/>
</g>
<!-- 16 -->
<g id="node17" class="node">
<title>16</title>
<ellipse fill="none" stroke="black" cx="2382.14" cy="-1386" rx="205.41" ry="18"/>
<text text-anchor="middle" x="2382.14" y="-1380.95" font-family="Times New Roman,serif" font-size="14.00">Endurance: It&#39;s clear you like the hard stuff, bröther.</text>
</g>
<!-- 1&#45;&gt;16 -->
<g id="edge2" class="edge">
<title>1&#45;&gt;16</title>
<path fill="none" stroke="black" d="M2382.14,-1439.7C2382.14,-1432.41 2382.14,-1423.73 2382.14,-1415.54"/>
<polygon fill="black" stroke="black" points="2385.64,-1415.62 2382.14,-1405.62 2378.64,-1415.62 2385.64,-1415.62"/>
</g>
<!-- 2 -->
<g id="node3" class="node">
<title>2</title>
<ellipse fill="none" stroke="black" cx="2382.14" cy="-738" rx="72.34" ry="18"/>
<text text-anchor="middle" x="2382.14" y="-732.95" font-family="Times New Roman,serif" font-size="14.00">what_is_thought</text>
</g>
<!-- 12 -->
<g id="node13" class="node">
<title>12</title>
<ellipse fill="none" stroke="black" cx="2382.14" cy="-666" rx="401.94" ry="18"/>
<text text-anchor="middle" x="2382.14" y="-660.95" font-family="Times New Roman,serif" font-size="14.00">You: *Fascism* sounds so bad, though. What if we called it something else? Like, uh, *traditionalism*?</text>
</g>
<!-- 2&#45;&gt;12 -->
<g id="edge3" class="edge">
<title>2&#45;&gt;12</title>
<path fill="none" stroke="black" d="M2382.14,-719.7C2382.14,-712.41 2382.14,-703.73 2382.14,-695.54"/>
<polygon fill="black" stroke="black" points="2385.64,-695.62 2382.14,-685.62 2378.64,-695.62 2385.64,-695.62"/>
</g>
<!-- 17 -->
<g id="node18" class="node">
<title>17</title>
<ellipse fill="none" stroke="black" cx="1249.14" cy="-666" rx="102.53" ry="18"/>
<text text-anchor="middle" x="1249.14" y="-660.95" font-family="Times New Roman,serif" font-size="14.00">You: But I&#39;m a feminist!</text>
</g>
<!-- 2&#45;&gt;17 -->
<g id="edge4" class="edge">
<title>2&#45;&gt;17</title>
<path fill="none" stroke="black" d="M2311.5,-733.68C2155.6,-726.21 1770.32,-706.9 1448.14,-684 1416.1,-681.72 1381.19,-678.87 1349.69,-676.15"/>
<polygon fill="black" stroke="black" points="1350.02,-672.67 1339.76,-675.29 1349.42,-679.64 1350.02,-672.67"/>
</g>
<!-- 19 -->
<g id="node20" class="node">
<title>19</title>
<ellipse fill="none" stroke="black" cx="2922.14" cy="-666" rx="117.37" ry="18"/>
<text text-anchor="middle" x="2922.14" y="-660.95" font-family="Times New Roman,serif" font-size="14.00">You: Why am I getting this?</text>
</g>
<!-- 2&#45;&gt;19 -->
<g id="edge5" class="edge">
<title>2&#45;&gt;19</title>
<path fill="none" stroke="black" d="M2445.51,-728.88C2526.24,-718.53 2670.07,-700.04 2793.14,-684 2803.17,-682.69 2813.64,-681.32 2824.09,-679.95"/>
<polygon fill="black" stroke="black" points="2824.44,-683.43 2833.9,-678.66 2823.53,-676.49 2824.44,-683.43"/>
</g>
<!-- 23 -->
<g id="node24" class="node">
<title>23</title>
<ellipse fill="none" stroke="black" cx="3543.14" cy="-666" rx="135.29" ry="18"/>
<text text-anchor="middle" x="3543.14" y="-660.95" font-family="Times New Roman,serif" font-size="14.00">You: What *is* fascism, though?</text>
</g>
<!-- 2&#45;&gt;23 -->
<g id="edge7" class="edge">
<title>2&#45;&gt;23</title>
<path fill="none" stroke="black" d="M2451.72,-732.8C2640.34,-721.43 3163.84,-689.87 3410.86,-674.98"/>
<polygon fill="black" stroke="black" points="3410.77,-678.49 3420.55,-674.39 3410.35,-671.5 3410.77,-678.49"/>
</g>
<!-- 31 -->
<g id="node32" class="node">
<title>31</title>
<ellipse fill="none" stroke="black" cx="1765.14" cy="-666" rx="196.7" ry="18"/>
<text text-anchor="middle" x="1765.14" y="-660.95" font-family="Times New Roman,serif" font-size="14.00">You: Am I having some kind of stomach seizure?</text>
</g>
<!-- 2&#45;&gt;31 -->
<g id="edge8" class="edge">
<title>2&#45;&gt;31</title>
<path fill="none" stroke="black" d="M2317.27,-729.64C2217.84,-718.36 2025.69,-696.56 1896.39,-681.89"/>
<polygon fill="black" stroke="black" points="1897.09,-678.45 1886.76,-680.8 1896.3,-685.4 1897.09,-678.45"/>
</g>
<!-- 52 -->
<g id="node53" class="node">
<title>52</title>
<ellipse fill="none" stroke="black" cx="4836.14" cy="-666" rx="341.55" ry="18"/>
<text text-anchor="middle" x="4836.14" y="-660.95" font-family="Times New Roman,serif" font-size="14.00">You: Okay, stomach. I&#39;ve made up my mind about fascism. (Proceed to the Jüdgement.)</text>
</g>
<!-- 2&#45;&gt;52 -->
<g id="edge6" class="edge">
<title>2&#45;&gt;52</title>
<path fill="none" stroke="black" d="M2454.32,-735.56C2718.52,-730.19 3657.79,-710.3 4432.14,-684 4476.78,-682.48 4524.19,-680.67 4570.23,-678.8"/>
<polygon fill="black" stroke="black" points="4570.23,-682.31 4580.07,-678.4 4569.94,-675.31 4570.23,-682.31"/>
</g>
<!-- 3 -->
<g id="node4" class="node">
<title>3</title>
<ellipse fill="none" stroke="black" cx="1167.14" cy="-594" rx="267.33" ry="18"/>
<text text-anchor="middle" x="1167.14" y="-588.95" font-family="Times New Roman,serif" font-size="14.00">Endurance: Föminist? No! It can&#39;t be. Not you. No one believes this.</text>
</g>
<!-- 41 -->
<g id="node42" class="node">
<title>41</title>
<ellipse fill="none" stroke="black" cx="1167.14" cy="-522" rx="149.11" ry="18"/>
<text text-anchor="middle" x="1167.14" y="-516.95" font-family="Times New Roman,serif" font-size="14.00">Variable[&quot;tc.turn_off_tutorial_node&quot;]</text>
</g>
<!-- 3&#45;&gt;41 -->
<g id="edge9" class="edge">
<title>3&#45;&gt;41</title>
<path fill="none" stroke="black" d="M1167.14,-575.7C1167.14,-568.41 1167.14,-559.73 1167.14,-551.54"/>
<polygon fill="black" stroke="black" points="1170.64,-551.62 1167.14,-541.62 1163.64,-551.62 1170.64,-551.62"/>
</g>
<!-- 4 -->
<g id="node5" class="node">
<title>4</title>
<ellipse fill="none" stroke="black" cx="2382.14" cy="-1314" rx="216.67" ry="18"/>
<text text-anchor="middle" x="2382.14" y="-1308.95" font-family="Times New Roman,serif" font-size="14.00">You: The what? Sounds like my stomach is growling...</text>
</g>
<!-- 49 -->
<g id="node50" class="node">
<title>49</title>
<ellipse fill="none" stroke="black" cx="2382.14" cy="-1242" rx="246.86" ry="18"/>
<text text-anchor="middle" x="2382.14" y="-1236.95" font-family="Times New Roman,serif" font-size="14.00">Endurance: Evening falls. The time has come to take the vows.</text>
</g>
<!-- 4&#45;&gt;49 -->
<g id="edge10" class="edge">
<title>4&#45;&gt;49</title>
<path fill="none" stroke="black" d="M2382.14,-1295.7C2382.14,-1288.41 2382.14,-1279.73 2382.14,-1271.54"/>
<polygon fill="black" stroke="black" points="2385.64,-1271.62 2382.14,-1261.62 2378.64,-1271.62 2385.64,-1271.62"/>
</g>
<!-- 5 -->
<g id="node6" class="node">
<title>5</title>
<ellipse fill="none" stroke="black" cx="3767.14" cy="-90" rx="525.8" ry="18"/>
<text text-anchor="middle" x="3767.14" y="-84.95" font-family="Times New Roman,serif" font-size="14.00">Endurance: That&#39;s what fascism boils down to. The rest is also important, but the *main thing* is that wömen need to *know their place*.</text>
</g>
<!-- 25 -->
<g id="node26" class="node">
<title>25</title>
<ellipse fill="none" stroke="black" cx="4044.14" cy="-18" rx="113.79" ry="18"/>
<text text-anchor="middle" x="4044.14" y="-12.95" font-family="Times New Roman,serif" font-size="14.00">Jump to: [what_is_thought]</text>
</g>
<!-- 5&#45;&gt;25 -->
<g id="edge11" class="edge">
<title>5&#45;&gt;25</title>
<path fill="none" stroke="black" d="M3835.61,-71.7C3877.82,-61.03 3931.8,-47.39 3974.27,-36.66"/>
<polygon fill="black" stroke="black" points="3975.05,-40.07 3983.89,-34.22 3973.34,-33.28 3975.05,-40.07"/>
</g>
<!-- 6 -->
<g id="node7" class="node">
<title>6</title>
<ellipse fill="none" stroke="black" cx="5530.14" cy="-522" rx="304.18" ry="18"/>
<text text-anchor="middle" x="5530.14" y="-516.95" font-family="Times New Roman,serif" font-size="14.00">You: I will keeps my vöws... for the glory of the Revacholian nation. (Opt in.)</text>
</g>
<!-- 46 -->
<g id="node47" class="node">
<title>46</title>
<ellipse fill="none" stroke="black" cx="5543.14" cy="-450" rx="201.31" ry="18"/>
<text text-anchor="middle" x="5543.14" y="-444.95" font-family="Times New Roman,serif" font-size="14.00">Variable[&quot;character.fascist_thought_open_seizure&quot;]</text>
</g>
<!-- 6&#45;&gt;46 -->
<g id="edge12" class="edge">
<title>6&#45;&gt;46</title>
<path fill="none" stroke="black" d="M5533.35,-503.7C5534.72,-496.32 5536.35,-487.52 5537.89,-479.25"/>
<polygon fill="black" stroke="black" points="5541.3,-480.06 5539.68,-469.59 5534.42,-478.79 5541.3,-480.06"/>
</g>
<!-- 7 -->
<g id="node8" class="node">
<title>7</title>
<ellipse fill="none" stroke="black" cx="1965.14" cy="-450" rx="113.79" ry="18"/>
<text text-anchor="middle" x="1965.14" y="-444.95" font-family="Times New Roman,serif" font-size="14.00">Jump to: [what_is_thought]</text>
</g>
<!-- 7&#45;&gt;2 -->
<g id="edge13" class="edge">
<title>7&#45;&gt;2</title>
<path fill="none" stroke="black" d="M1881.14,-462.41C1764.47,-480.17 1562.74,-518.49 1519.14,-576 1488.21,-616.79 1515.88,-656.64 1559.14,-684 1620.5,-722.81 2101.28,-733.39 2298.33,-736.11"/>
<polygon fill="black" stroke="black" points="2298.2,-739.61 2308.25,-736.25 2298.3,-732.61 2298.2,-739.61"/>
</g>
<!-- 8 -->
<g id="node9" class="node">
<title>8</title>
<ellipse fill="none" stroke="black" cx="3892.14" cy="-594" rx="498.16" ry="18"/>
<text text-anchor="middle" x="3892.14" y="-588.95" font-family="Times New Roman,serif" font-size="14.00">Endurance: Many things, but it&#39;s möstly about trusting your gut. Who does your gut tell you is the source of Revachol&#39;s problems?</text>
</g>
<!-- 10 -->
<g id="node11" class="node">
<title>10</title>
<ellipse fill="none" stroke="black" cx="3438.14" cy="-522" rx="74.89" ry="18"/>
<text text-anchor="middle" x="3438.14" y="-516.95" font-family="Times New Roman,serif" font-size="14.00">You: Foreigners?</text>
</g>
<!-- 8&#45;&gt;10 -->
<g id="edge15" class="edge">
<title>8&#45;&gt;10</title>
<path fill="none" stroke="black" d="M3781.66,-575.97C3697.57,-563 3584.22,-545.52 3511.15,-534.26"/>
<polygon fill="black" stroke="black" points="3511.69,-530.8 3501.27,-532.73 3510.62,-537.72 3511.69,-530.8"/>
</g>
<!-- 18 -->
<g id="node19" class="node">
<title>18</title>
<ellipse fill="none" stroke="black" cx="3438.14" cy="-306" rx="112.26" ry="18"/>
<text text-anchor="middle" x="3438.14" y="-300.95" font-family="Times New Roman,serif" font-size="14.00">You: Leftist academicians?</text>
</g>
<!-- 8&#45;&gt;18 -->
<g id="edge16" class="edge">
<title>8&#45;&gt;18</title>
<path fill="none" stroke="black" d="M3897.14,-575.76C3908.45,-532.71 3930.77,-419.73 3873.14,-360 3825.59,-310.73 3635.08,-332.47 3567.14,-324 3556.29,-322.65 3544.94,-321.2 3533.66,-319.74"/>
<polygon fill="black" stroke="black" points="3534.29,-316.29 3523.93,-318.47 3533.39,-323.23 3534.29,-316.29"/>
</g>
<!-- 38 -->
<g id="node39" class="node">
<title>38</title>
<ellipse fill="none" stroke="black" cx="2946.14" cy="-306" rx="65.68" ry="18"/>
<text text-anchor="middle" x="2946.14" y="-300.95" font-family="Times New Roman,serif" font-size="14.00">You: Liberals?</text>
</g>
<!-- 8&#45;&gt;38 -->
<g id="edge14" class="edge">
<title>8&#45;&gt;38</title>
<path fill="none" stroke="black" d="M3534.32,-581.13C3339.52,-572.58 3129.78,-559.14 3088.14,-540 3006.75,-502.59 2981.44,-478.74 2947.14,-396 2939.21,-376.89 2939.3,-353.42 2941.19,-335.39"/>
<polygon fill="black" stroke="black" points="2944.64,-336.02 2942.47,-325.65 2937.7,-335.11 2944.64,-336.02"/>
</g>
<!-- 53 -->
<g id="node54" class="node">
<title>53</title>
<ellipse fill="none" stroke="black" cx="4119.14" cy="-522" rx="192.1" ry="18"/>
<text text-anchor="middle" x="4119.14" y="-516.95" font-family="Times New Roman,serif" font-size="14.00">You: I thought you were my circulatory system?</text>
</g>
<!-- 8&#45;&gt;53 -->
<g id="edge17" class="edge">
<title>8&#45;&gt;53</title>
<path fill="none" stroke="black" d="M3948.25,-575.7C3980.35,-565.8 4020.77,-553.33 4054.24,-543.01"/>
<polygon fill="black" stroke="black" points="4054.87,-546.48 4063.4,-540.19 4052.81,-539.79 4054.87,-546.48"/>
</g>
<!-- 55 -->
<g id="node56" class="node">
<title>55</title>
<ellipse fill="none" stroke="black" cx="3669.14" cy="-306" rx="93.32" ry="18"/>
<text text-anchor="middle" x="3669.14" y="-300.95" font-family="Times New Roman,serif" font-size="14.00">Endurance: ...wömen.</text>
</g>
<!-- 8&#45;&gt;55 -->
<g id="edge18" class="edge">
<title>8&#45;&gt;55</title>
<path fill="none" stroke="black" d="M4192.62,-579.25C4249.32,-571.28 4297.86,-558.96 4320.14,-540 4357.38,-508.31 4372.39,-469.61 4341.14,-432 4269.95,-346.36 3941.94,-319.1 3771.95,-310.66"/>
<polygon fill="black" stroke="black" points="3772.15,-307.16 3761.99,-310.18 3771.81,-314.15 3772.15,-307.16"/>
</g>
<!-- 9 -->
<g id="node10" class="node">
<title>9</title>
<ellipse fill="none" stroke="black" cx="2107.14" cy="-1026" rx="99.46" ry="18"/>
<text text-anchor="middle" x="2107.14" y="-1020.95" font-family="Times New Roman,serif" font-size="14.00">You: [Discard thought.]</text>
</g>
<!-- 21 -->
<g id="node22" class="node">
<title>21</title>
<ellipse fill="none" stroke="black" cx="1961.14" cy="-954" rx="475.13" ry="18"/>
<text text-anchor="middle" x="1961.14" y="-948.95" font-family="Times New Roman,serif" font-size="14.00">Endurance: No, no. When the blööd and the flesh call, there is no discarding them. Speak true, do you like *the hard stuff*?</text>
</g>
<!-- 9&#45;&gt;21 -->
<g id="edge19" class="edge">
<title>9&#45;&gt;21</title>
<path fill="none" stroke="black" d="M2073.27,-1008.76C2053.73,-999.39 2028.87,-987.47 2007.52,-977.24"/>
<polygon fill="black" stroke="black" points="2009.26,-974.19 1998.73,-973.03 2006.24,-980.5 2009.26,-974.19"/>
</g>
<!-- 32 -->
<g id="node33" class="node">
<title>32</title>
<ellipse fill="none" stroke="black" cx="3171.14" cy="-450" rx="134.78" ry="18"/>
<text text-anchor="middle" x="3171.14" y="-444.95" font-family="Times New Roman,serif" font-size="14.00">Endurance: Yes, them, but also...</text>
</g>
<!-- 10&#45;&gt;32 -->
<g id="edge20" class="edge">
<title>10&#45;&gt;32</title>
<path fill="none" stroke="black" d="M3388.85,-508.08C3347.42,-497.22 3287.7,-481.56 3241.28,-469.39"/>
<polygon fill="black" stroke="black" points="3242.42,-466.07 3231.86,-466.92 3240.64,-472.84 3242.42,-466.07"/>
</g>
<!-- 11 -->
<g id="node12" class="node">
<title>11</title>
<ellipse fill="none" stroke="black" cx="2803.14" cy="-954" rx="349.22" ry="18"/>
<text text-anchor="middle" x="2803.14" y="-948.95" font-family="Times New Roman,serif" font-size="14.00">Endurance: Lower intestine? The term is METABOLIC AND CIRCULATORY SYSTEM.</text>
</g>
<!-- 20 -->
<g id="node21" class="node">
<title>20</title>
<ellipse fill="none" stroke="black" cx="2670.14" cy="-882" rx="166.51" ry="18"/>
<text text-anchor="middle" x="2670.14" y="-876.95" font-family="Times New Roman,serif" font-size="14.00">You: Okay, but... what&#39;s *the hard stuff*?</text>
</g>
<!-- 11&#45;&gt;20 -->
<g id="edge21" class="edge">
<title>11&#45;&gt;20</title>
<path fill="none" stroke="black" d="M2770.26,-935.7C2752.87,-926.54 2731.31,-915.19 2712.65,-905.38"/>
<polygon fill="black" stroke="black" points="2714.45,-902.37 2703.97,-900.81 2711.19,-908.56 2714.45,-902.37"/>
</g>
<!-- 35 -->
<g id="node36" class="node">
<title>35</title>
<ellipse fill="none" stroke="black" cx="2237.14" cy="-594" rx="217.18" ry="18"/>
<text text-anchor="middle" x="2237.14" y="-588.95" font-family="Times New Roman,serif" font-size="14.00">Endurance: Ökay. Yes. Let&#39;s call it that. Good thinking.</text>
</g>
<!-- 12&#45;&gt;35 -->
<g id="edge22" class="edge">
<title>12&#45;&gt;35</title>
<path fill="none" stroke="black" d="M2346.29,-647.7C2327.23,-638.49 2303.57,-627.07 2283.15,-617.22"/>
<polygon fill="black" stroke="black" points="2284.71,-614.08 2274.18,-612.88 2281.66,-620.38 2284.71,-614.08"/>
</g>
<!-- 13 -->
<g id="node14" class="node">
<title>13</title>
<ellipse fill="none" stroke="black" cx="4885.14" cy="-522" rx="309.81" ry="18"/>
<text text-anchor="middle" x="4885.14" y="-516.95" font-family="Times New Roman,serif" font-size="14.00">You: Absolutely not. I&#39;m not going to be played by an upset stomach. (Opt out.)</text>
</g>
<!-- 34 -->
<g id="node35" class="node">
<title>34</title>
<ellipse fill="none" stroke="black" cx="4885.14" cy="-450" rx="438.79" ry="18"/>
<text text-anchor="middle" x="4885.14" y="-444.95" font-family="Times New Roman,serif" font-size="14.00">Endurance: There&#39;s a slow, painful growl somewhere in your intestines, knocking on your alcohol&#45;engorged liver...</text>
</g>
<!-- 13&#45;&gt;34 -->
<g id="edge23" class="edge">
<title>13&#45;&gt;34</title>
<path fill="none" stroke="black" d="M4885.14,-503.7C4885.14,-496.41 4885.14,-487.73 4885.14,-479.54"/>
<polygon fill="black" stroke="black" points="4888.64,-479.62 4885.14,-469.62 4881.64,-479.62 4888.64,-479.62"/>
</g>
<!-- 14 -->
<g id="node15" class="node">
<title>14</title>
<ellipse fill="none" stroke="black" cx="5769.14" cy="-234" rx="423.44" ry="18"/>
<text text-anchor="middle" x="5769.14" y="-228.95" font-family="Times New Roman,serif" font-size="14.00">You: No, fascism is about industry and politics and nationhood, not wömen. I&#39;m absolutely okay with women.</text>
</g>
<!-- 45 -->
<g id="node46" class="node">
<title>45</title>
<ellipse fill="none" stroke="black" cx="5769.14" cy="-162" rx="370.72" ry="18"/>
<text text-anchor="middle" x="5769.14" y="-156.95" font-family="Times New Roman,serif" font-size="14.00">Endurance: Of course you are, bröther. Of course. (A wink&#45;shaped growl sounds from your ass.)</text>
</g>
<!-- 14&#45;&gt;45 -->
<g id="edge24" class="edge">
<title>14&#45;&gt;45</title>
<path fill="none" stroke="black" d="M5769.14,-215.7C5769.14,-208.41 5769.14,-199.73 5769.14,-191.54"/>
<polygon fill="black" stroke="black" points="5772.64,-191.62 5769.14,-181.62 5765.64,-191.62 5772.64,-191.62"/>
</g>
<!-- 15 -->
<g id="node16" class="node">
<title>15</title>
<ellipse fill="none" stroke="black" cx="5303.14" cy="-306" rx="411.15" ry="18"/>
<text text-anchor="middle" x="5303.14" y="-300.95" font-family="Times New Roman,serif" font-size="14.00">Endurance: For the nation... smart. Best not to mention *the wömen issue* too often. People are not ready.</text>
</g>
<!-- 15&#45;&gt;14 -->
<g id="edge26" class="edge">
<title>15&#45;&gt;14</title>
<path fill="none" stroke="black" d="M5414.75,-288.23C5484.4,-277.77 5574.13,-264.29 5645.86,-253.52"/>
<polygon fill="black" stroke="black" points="5646.35,-256.98 5655.72,-252.04 5645.31,-250.06 5646.35,-256.98"/>
</g>
<!-- 29 -->
<g id="node30" class="node">
<title>29</title>
<ellipse fill="none" stroke="black" cx="5769.14" cy="-90" rx="163.95" ry="18"/>
<text text-anchor="middle" x="5769.14" y="-84.95" font-family="Times New Roman,serif" font-size="14.00">You: Pat your stomach. [Finish thought.]</text>
</g>
<!-- 15&#45;&gt;29 -->
<g id="edge25" class="edge">
<title>15&#45;&gt;29</title>
<path fill="none" stroke="black" d="M5306.38,-287.63C5313.9,-253 5336.06,-175.96 5389.14,-144 5426.97,-121.22 5527.53,-107.82 5615.71,-100.2"/>
<polygon fill="black" stroke="black" points="5615.77,-103.7 5625.44,-99.38 5615.18,-96.73 5615.77,-103.7"/>
</g>
<!-- 16&#45;&gt;4 -->
<g id="edge29" class="edge">
<title>16&#45;&gt;4</title>
<path fill="none" stroke="black" d="M2382.14,-1367.7C2382.14,-1360.41 2382.14,-1351.73 2382.14,-1343.54"/>
<polygon fill="black" stroke="black" points="2385.64,-1343.62 2382.14,-1333.62 2378.64,-1343.62 2385.64,-1343.62"/>
</g>
<!-- 16&#45;&gt;9 -->
<g id="edge27" class="edge">
<title>16&#45;&gt;9</title>
<path fill="none" stroke="black" d="M2245.86,-1372.14C2214.12,-1364.2 2182.06,-1351.67 2156.14,-1332 2120.16,-1304.71 2107.14,-1288.15 2107.14,-1243 2107.14,-1243 2107.14,-1243 2107.14,-1169 2107.14,-1129.74 2107.14,-1084.38 2107.14,-1055.69"/>
<polygon fill="black" stroke="black" points="2110.64,-1056 2107.14,-1046 2103.64,-1056 2110.64,-1056"/>
</g>
<!-- 27 -->
<g id="node28" class="node">
<title>27</title>
<ellipse fill="none" stroke="black" cx="2657.14" cy="-1026" rx="194.66" ry="18"/>
<text text-anchor="middle" x="2657.14" y="-1020.95" font-family="Times New Roman,serif" font-size="14.00">You: What is my lower intestine going on about?</text>
</g>
<!-- 16&#45;&gt;27 -->
<g id="edge28" class="edge">
<title>16&#45;&gt;27</title>
<path fill="none" stroke="black" d="M2518.41,-1372.14C2550.15,-1364.2 2582.21,-1351.67 2608.14,-1332 2644.11,-1304.71 2657.14,-1288.15 2657.14,-1243 2657.14,-1243 2657.14,-1243 2657.14,-1169 2657.14,-1129.74 2657.14,-1084.38 2657.14,-1055.69"/>
<polygon fill="black" stroke="black" points="2660.64,-1056 2657.14,-1046 2653.64,-1056 2660.64,-1056"/>
</g>
<!-- 17&#45;&gt;3 -->
<g id="edge30" class="edge">
<title>17&#45;&gt;3</title>
<path fill="none" stroke="black" d="M1229.29,-648.05C1219.26,-639.5 1206.92,-628.96 1195.88,-619.54"/>
<polygon fill="black" stroke="black" points="1198.4,-617.09 1188.52,-613.26 1193.86,-622.41 1198.4,-617.09"/>
</g>
<!-- 18&#45;&gt;32 -->
<g id="edge31" class="edge">
<title>18&#45;&gt;32</title>
<path fill="none" stroke="black" d="M3332.98,-312.61C3211.27,-320.21 3024.68,-335.67 3003.14,-360 2972.26,-394.86 3026.45,-418.33 3081.32,-432.38"/>
<polygon fill="black" stroke="black" points="3080.26,-435.72 3090.81,-434.7 3081.93,-428.92 3080.26,-435.72"/>
</g>
<!-- 40 -->
<g id="node41" class="node">
<title>40</title>
<ellipse fill="none" stroke="black" cx="2924.14" cy="-594" rx="452.1" ry="18"/>
<text text-anchor="middle" x="2924.14" y="-588.95" font-family="Times New Roman,serif" font-size="14.00">Endurance: Because you&#39;ve said the hard things, that others won&#39;t say. The gööd things. You&#39;ve said them many times.</text>
</g>
<!-- 19&#45;&gt;40 -->
<g id="edge32" class="edge">
<title>19&#45;&gt;40</title>
<path fill="none" stroke="black" d="M2922.63,-647.7C2922.84,-640.41 2923.09,-631.73 2923.32,-623.54"/>
<polygon fill="black" stroke="black" points="2926.82,-623.71 2923.6,-613.62 2919.82,-623.51 2926.82,-623.71"/>
</g>
<!-- 30 -->
<g id="node31" class="node">
<title>30</title>
<ellipse fill="none" stroke="black" cx="2382.14" cy="-810" rx="129.15" ry="18"/>
<text text-anchor="middle" x="2382.14" y="-804.95" font-family="Times New Roman,serif" font-size="14.00">Endurance: *Fascism*, bröther.</text>
</g>
<!-- 20&#45;&gt;30 -->
<g id="edge33" class="edge">
<title>20&#45;&gt;30</title>
<path fill="none" stroke="black" d="M2604.42,-865.03C2560.1,-854.26 2501.56,-840.03 2455.68,-828.87"/>
<polygon fill="black" stroke="black" points="2456.62,-825.5 2446.07,-826.54 2454.96,-832.3 2456.62,-825.5"/>
</g>
<!-- 36 -->
<g id="node37" class="node">
<title>36</title>
<ellipse fill="none" stroke="black" cx="2227.14" cy="-882" rx="125.56" ry="18"/>
<text text-anchor="middle" x="2227.14" y="-876.95" font-family="Times New Roman,serif" font-size="14.00">You: What is *the hard stuff*?</text>
</g>
<!-- 21&#45;&gt;36 -->
<g id="edge34" class="edge">
<title>21&#45;&gt;36</title>
<path fill="none" stroke="black" d="M2026.89,-935.7C2066.69,-925.22 2117.39,-911.88 2157.81,-901.24"/>
<polygon fill="black" stroke="black" points="2158.68,-904.63 2167.46,-898.7 2156.9,-897.86 2158.68,-904.63"/>
</g>
<!-- 22 -->
<g id="node23" class="node">
<title>22</title>
<ellipse fill="none" stroke="black" cx="2201.14" cy="-522" rx="302.14" ry="18"/>
<text text-anchor="middle" x="2201.14" y="-516.95" font-family="Times New Roman,serif" font-size="14.00">Rhetoric: That sounds much better. Traditionalism. You like the sound of that.</text>
</g>
<!-- 22&#45;&gt;7 -->
<g id="edge35" class="edge">
<title>22&#45;&gt;7</title>
<path fill="none" stroke="black" d="M2143.4,-503.88C2108.41,-493.5 2063.74,-480.25 2027.87,-469.61"/>
<polygon fill="black" stroke="black" points="2029.08,-466.32 2018.5,-466.83 2027.09,-473.03 2029.08,-466.32"/>
</g>
<!-- 23&#45;&gt;8 -->
<g id="edge36" class="edge">
<title>23&#45;&gt;8</title>
<path fill="none" stroke="black" d="M3615.87,-650.41C3667.94,-639.97 3738.58,-625.8 3795.4,-614.4"/>
<polygon fill="black" stroke="black" points="3795.97,-617.86 3805.08,-612.46 3794.59,-611 3795.97,-617.86"/>
</g>
<!-- 24 -->
<g id="node25" class="node">
<title>24</title>
<ellipse fill="none" stroke="black" cx="3669.14" cy="-234" rx="65.17" ry="18"/>
<text text-anchor="middle" x="3669.14" y="-228.95" font-family="Times New Roman,serif" font-size="14.00">You: Wömen?</text>
</g>
<!-- 44 -->
<g id="node45" class="node">
<title>44</title>
<ellipse fill="none" stroke="black" cx="3669.14" cy="-162" rx="720.8" ry="18"/>
<text text-anchor="middle" x="3669.14" y="-156.95" font-family="Times New Roman,serif" font-size="14.00">Endurance: Wö&#45;Men. Men of Wö. You don&#39;t like them. They&#39;re insane. Their idiocy needs to be scrubbed off this world with rubbing alcohol. Wömen need to go back to the fucking kitchen.</text>
</g>
<!-- 24&#45;&gt;44 -->
<g id="edge37" class="edge">
<title>24&#45;&gt;44</title>
<path fill="none" stroke="black" d="M3669.14,-215.7C3669.14,-208.41 3669.14,-199.73 3669.14,-191.54"/>
<polygon fill="black" stroke="black" points="3672.64,-191.62 3669.14,-181.62 3665.64,-191.62 3672.64,-191.62"/>
</g>
<!-- 25&#45;&gt;2 -->
<g id="edge38" class="edge">
<title>25&#45;&gt;2</title>
<path fill="none" stroke="black" d="M4138.51,-28.37C4188.73,-35.8 4250.58,-48.94 4302.14,-72 4473.32,-148.56 4418.14,-140.38 4418.14,-161 4418.14,-595 4418.14,-595 4418.14,-595 4418.14,-694.56 2848.31,-728.76 2465.54,-735.62"/>
<polygon fill="black" stroke="black" points="2465.75,-732.12 2455.81,-735.8 2465.87,-739.12 2465.75,-732.12"/>
</g>
<!-- 26 -->
<g id="node27" class="node">
<title>26</title>
<ellipse fill="none" stroke="black" cx="497.14" cy="-378" rx="497.14" ry="18"/>
<text text-anchor="middle" x="497.14" y="-372.95" font-family="Times New Roman,serif" font-size="14.00">Tutorial Agent: Did you know you can FORGET Thoughts? Go to your THOUGHT CABINET and FORGET all about föminism.</text>
</g>
<!-- 37 -->
<g id="node38" class="node">
<title>37</title>
<ellipse fill="none" stroke="black" cx="1223.14" cy="-306" rx="113.79" ry="18"/>
<text text-anchor="middle" x="1223.14" y="-300.95" font-family="Times New Roman,serif" font-size="14.00">Jump to: [what_is_thought]</text>
</g>
<!-- 26&#45;&gt;37 -->
<g id="edge39" class="edge">
<title>26&#45;&gt;37</title>
<path fill="none" stroke="black" d="M666.89,-360.63C805.93,-347.23 998.36,-328.67 1116.6,-317.27"/>
<polygon fill="black" stroke="black" points="1116.68,-320.78 1126.3,-316.34 1116.01,-313.81 1116.68,-320.78"/>
</g>
<!-- 27&#45;&gt;11 -->
<g id="edge40" class="edge">
<title>27&#45;&gt;11</title>
<path fill="none" stroke="black" d="M2692.85,-1007.88C2712.13,-998.63 2736.16,-987.11 2756.86,-977.19"/>
<polygon fill="black" stroke="black" points="2758.16,-980.45 2765.66,-972.97 2755.13,-974.13 2758.16,-980.45"/>
</g>
<!-- 28 -->
<g id="node29" class="node">
<title>28</title>
<ellipse fill="none" stroke="black" cx="4885.14" cy="-594" rx="298.55" ry="18"/>
<text text-anchor="middle" x="4885.14" y="-588.95" font-family="Times New Roman,serif" font-size="14.00">Endurance: You&#39;re going to keep your vöws, right? Keep your vöws, bröther!</text>
</g>
<!-- 28&#45;&gt;6 -->
<g id="edge42" class="edge">
<title>28&#45;&gt;6</title>
<path fill="none" stroke="black" d="M5025.89,-577.72C5129.71,-566.46 5270.84,-551.14 5377.39,-539.58"/>
<polygon fill="black" stroke="black" points="5377.5,-543.09 5387.07,-538.53 5376.75,-536.13 5377.5,-543.09"/>
</g>
<!-- 28&#45;&gt;13 -->
<g id="edge41" class="edge">
<title>28&#45;&gt;13</title>
<path fill="none" stroke="black" d="M4885.14,-575.7C4885.14,-568.41 4885.14,-559.73 4885.14,-551.54"/>
<polygon fill="black" stroke="black" points="4888.64,-551.62 4885.14,-541.62 4881.64,-551.62 4888.64,-551.62"/>
</g>
<!-- 30&#45;&gt;2 -->
<g id="edge43" class="edge">
<title>30&#45;&gt;2</title>
<path fill="none" stroke="black" d="M2382.14,-791.7C2382.14,-784.41 2382.14,-775.73 2382.14,-767.54"/>
<polygon fill="black" stroke="black" points="2385.64,-767.62 2382.14,-757.62 2378.64,-767.62 2385.64,-767.62"/>
</g>
<!-- 39 -->
<g id="node40" class="node">
<title>39</title>
<ellipse fill="none" stroke="black" cx="1765.14" cy="-594" rx="236.63" ry="18"/>
<text text-anchor="middle" x="1765.14" y="-588.95" font-family="Times New Roman,serif" font-size="14.00">Endurance: Stomach truth. You&#39;re having a stomach *truth*.</text>
</g>
<!-- 31&#45;&gt;39 -->
<g id="edge44" class="edge">
<title>31&#45;&gt;39</title>
<path fill="none" stroke="black" d="M1765.14,-647.7C1765.14,-640.41 1765.14,-631.73 1765.14,-623.54"/>
<polygon fill="black" stroke="black" points="1768.64,-623.62 1765.14,-613.62 1761.64,-623.62 1768.64,-623.62"/>
</g>
<!-- 56 -->
<g id="node57" class="node">
<title>56</title>
<ellipse fill="none" stroke="black" cx="3438.14" cy="-378" rx="425.99" ry="18"/>
<text text-anchor="middle" x="3438.14" y="-372.95" font-family="Times New Roman,serif" font-size="14.00">Endurance: Quit stalling, bröther! We were talking about the weakest, worst, most insane thing. The weak link!</text>
</g>
<!-- 32&#45;&gt;56 -->
<g id="edge45" class="edge">
<title>32&#45;&gt;56</title>
<path fill="none" stroke="black" d="M3230.39,-433.46C3269.03,-423.33 3319.85,-410.01 3361.54,-399.08"/>
<polygon fill="black" stroke="black" points="3362.24,-402.52 3371.03,-396.59 3360.46,-395.75 3362.24,-402.52"/>
</g>
<!-- 33 -->
<g id="node34" class="node">
<title>33</title>
<ellipse fill="none" stroke="black" cx="6229.14" cy="-306" rx="496.62" ry="18"/>
<text text-anchor="middle" x="6229.14" y="-300.95" font-family="Times New Roman,serif" font-size="14.00">Endurance: For the nation... smart. Best not to mention *the wömen* too often. That&#39;s why you&#39;re the head and I am the stomach.</text>
</g>
<!-- 33&#45;&gt;14 -->
<g id="edge47" class="edge">
<title>33&#45;&gt;14</title>
<path fill="none" stroke="black" d="M6117.49,-288.01C6048.96,-277.58 5961.16,-264.22 5890.85,-253.52"/>
<polygon fill="black" stroke="black" points="5891.63,-250.1 5881.22,-252.06 5890.58,-257.02 5891.63,-250.1"/>
</g>
<!-- 33&#45;&gt;29 -->
<g id="edge46" class="edge">
<title>33&#45;&gt;29</title>
<path fill="none" stroke="black" d="M6226.6,-287.55C6220.5,-252.77 6201.41,-175.47 6149.14,-144 6111.31,-121.22 6010.74,-107.82 5922.57,-100.2"/>
<polygon fill="black" stroke="black" points="5923.09,-96.73 5912.83,-99.38 5922.51,-103.7 5923.09,-96.73"/>
</g>
<!-- 58 -->
<g id="node59" class="node">
<title>58</title>
<ellipse fill="none" stroke="black" cx="4885.14" cy="-378" rx="27" ry="18"/>
<text text-anchor="middle" x="4885.14" y="-372.95" font-family="Times New Roman,serif" font-size="14.00">58</text>
</g>
<!-- 34&#45;&gt;58 -->
<g id="edge48" class="edge">
<title>34&#45;&gt;58</title>
<path fill="none" stroke="black" d="M4885.14,-431.7C4885.14,-424.41 4885.14,-415.73 4885.14,-407.54"/>
<polygon fill="black" stroke="black" points="4888.64,-407.62 4885.14,-397.62 4881.64,-407.62 4888.64,-407.62"/>
</g>
<!-- 35&#45;&gt;22 -->
<g id="edge49" class="edge">
<title>35&#45;&gt;22</title>
<path fill="none" stroke="black" d="M2228.24,-575.7C2224.27,-567.98 2219.5,-558.71 2215.08,-550.11"/>
<polygon fill="black" stroke="black" points="2218.31,-548.74 2210.63,-541.45 2212.09,-551.94 2218.31,-548.74"/>
</g>
<!-- 36&#45;&gt;30 -->
<g id="edge50" class="edge">
<title>36&#45;&gt;30</title>
<path fill="none" stroke="black" d="M2263.87,-864.41C2285.04,-854.85 2311.9,-842.72 2334.66,-832.44"/>
<polygon fill="black" stroke="black" points="2336.08,-835.64 2343.75,-828.34 2333.2,-829.26 2336.08,-835.64"/>
</g>
<!-- 37&#45;&gt;2 -->
<g id="edge51" class="edge">
<title>37&#45;&gt;2</title>
<path fill="none" stroke="black" d="M1309.09,-318.17C1362.45,-326.85 1424.32,-340.69 1443.14,-360 1471.36,-388.97 1462.14,-408.55 1462.14,-449 1462.14,-595 1462.14,-595 1462.14,-595 1462.14,-641.04 1475.82,-660.04 1515.14,-684 1580.93,-724.1 2094.31,-733.95 2298.64,-736.3"/>
<polygon fill="black" stroke="black" points="2298.34,-739.79 2308.38,-736.4 2298.42,-732.79 2298.34,-739.79"/>
</g>
<!-- 38&#45;&gt;32 -->
<g id="edge52" class="edge">
<title>38&#45;&gt;32</title>
<path fill="none" stroke="black" d="M2945.92,-324.24C2946.64,-344.25 2950.96,-376.93 2970.14,-396 2990.64,-416.39 3017.99,-429.2 3045.9,-437.19"/>
<polygon fill="black" stroke="black" points="3045.01,-440.58 3055.57,-439.74 3046.79,-433.81 3045.01,-440.58"/>
</g>
<!-- 39&#45;&gt;7 -->
<g id="edge53" class="edge">
<title>39&#45;&gt;7</title>
<path fill="none" stroke="black" d="M1789.08,-575.91C1814.23,-557.98 1854.94,-528.97 1890.14,-504 1903.84,-494.28 1918.98,-483.57 1932.04,-474.35"/>
<polygon fill="black" stroke="black" points="1933.75,-477.43 1939.9,-468.8 1929.72,-471.71 1933.75,-477.43"/>
</g>
<!-- 40&#45;&gt;7 -->
<g id="edge54" class="edge">
<title>40&#45;&gt;7</title>
<path fill="none" stroke="black" d="M2856.07,-575.75C2774.74,-555.74 2634.33,-523.05 2512.14,-504 2364.03,-480.91 2191.7,-466.2 2080.65,-458.28"/>
<polygon fill="black" stroke="black" points="2081.17,-454.81 2070.94,-457.59 2080.67,-461.79 2081.17,-454.81"/>
</g>
<!-- 42 -->
<g id="node43" class="node">
<title>42</title>
<polygon fill="none" stroke="black" points="1223.14,-396 1012.27,-378 1223.14,-360 1434.01,-378 1223.14,-396"/>
<text text-anchor="middle" x="1223.14" y="-372.95" font-family="Times New Roman,serif" font-size="14.00">Variable[&quot;tc.turn_off_tutorial_node&quot;]</text>
</g>
<!-- 41&#45;&gt;42 -->
<g id="edge55" class="edge">
<title>41&#45;&gt;42</title>
<path fill="none" stroke="black" d="M1174,-503.59C1183.59,-479.27 1201.1,-434.89 1212.41,-406.19"/>
<polygon fill="black" stroke="black" points="1215.59,-407.67 1216.01,-397.08 1209.08,-405.1 1215.59,-407.67"/>
</g>
<!-- 43 -->
<g id="node44" class="node">
<title>43</title>
<polygon fill="none" stroke="black" points="734.14,-468 510.24,-450 734.14,-432 958.03,-450 734.14,-468"/>
<text text-anchor="middle" x="734.14" y="-444.95" font-family="Times New Roman,serif" font-size="14.00">!(Variable[&quot;tc.turn_off_tutorial_node&quot;])</text>
</g>
<!-- 41&#45;&gt;43 -->
<g id="edge56" class="edge">
<title>41&#45;&gt;43</title>
<path fill="none" stroke="black" d="M1080.29,-506.96C1003.74,-494.58 892.95,-476.67 817.47,-464.47"/>
<polygon fill="black" stroke="black" points="818.05,-461.02 807.62,-462.88 816.94,-467.93 818.05,-461.02"/>
</g>
<!-- 42&#45;&gt;37 -->
<g id="edge57" class="edge">
<title>42&#45;&gt;37</title>
<path fill="none" stroke="black" d="M1223.14,-359.7C1223.14,-352.41 1223.14,-343.73 1223.14,-335.54"/>
<polygon fill="black" stroke="black" points="1226.64,-335.62 1223.14,-325.62 1219.64,-335.62 1226.64,-335.62"/>
</g>
<!-- 43&#45;&gt;26 -->
<g id="edge58" class="edge">
<title>43&#45;&gt;26</title>
<path fill="none" stroke="black" d="M687.6,-435.25C653.17,-425.09 605.7,-411.06 566.76,-399.56"/>
<polygon fill="black" stroke="black" points="567.8,-396.22 557.21,-396.74 565.81,-402.93 567.8,-396.22"/>
</g>
<!-- 44&#45;&gt;5 -->
<g id="edge59" class="edge">
<title>44&#45;&gt;5</title>
<path fill="none" stroke="black" d="M3693.61,-143.52C3705.75,-134.85 3720.59,-124.25 3733.75,-114.85"/>
<polygon fill="black" stroke="black" points="3735.64,-117.8 3741.74,-109.14 3731.57,-112.1 3735.64,-117.8"/>
</g>
<!-- 45&#45;&gt;29 -->
<g id="edge60" class="edge">
<title>45&#45;&gt;29</title>
<path fill="none" stroke="black" d="M5769.14,-143.7C5769.14,-136.41 5769.14,-127.73 5769.14,-119.54"/>
<polygon fill="black" stroke="black" points="5772.64,-119.62 5769.14,-109.62 5765.64,-119.62 5772.64,-119.62"/>
</g>
<!-- 47 -->
<g id="node48" class="node">
<title>47</title>
<polygon fill="none" stroke="black" points="6148.14,-396 5863.44,-378 6148.14,-360 6432.83,-378 6148.14,-396"/>
<text text-anchor="middle" x="6148.14" y="-372.95" font-family="Times New Roman,serif" font-size="14.00">Variable[&quot;character.fascist_thought_open_seizure&quot;]</text>
</g>
<!-- 46&#45;&gt;47 -->
<g id="edge62" class="edge">
<title>46&#45;&gt;47</title>
<path fill="none" stroke="black" d="M5663.03,-435.13C5772.54,-422.46 5933.09,-403.88 6039.07,-391.62"/>
<polygon fill="black" stroke="black" points="6039.4,-395.1 6048.93,-390.48 6038.6,-388.15 6039.4,-395.1"/>
</g>
<!-- 48 -->
<g id="node49" class="node">
<title>48</title>
<polygon fill="none" stroke="black" points="5385.14,-396 5087.41,-378 5385.14,-360 5682.86,-378 5385.14,-396"/>
<text text-anchor="middle" x="5385.14" y="-372.95" font-family="Times New Roman,serif" font-size="14.00">!(Variable[&quot;character.fascist_thought_open_seizure&quot;])</text>
</g>
<!-- 46&#45;&gt;48 -->
<g id="edge61" class="edge">
<title>46&#45;&gt;48</title>
<path fill="none" stroke="black" d="M5504.49,-431.88C5482.06,-421.94 5453.72,-409.38 5430.28,-399"/>
<polygon fill="black" stroke="black" points="5431.83,-395.86 5421.27,-395.01 5429,-402.26 5431.83,-395.86"/>
</g>
<!-- 47&#45;&gt;33 -->
<g id="edge63" class="edge">
<title>47&#45;&gt;33</title>
<path fill="none" stroke="black" d="M6166.92,-360.76C6176.88,-352.16 6189.32,-341.41 6200.46,-331.78"/>
<polygon fill="black" stroke="black" points="6202.61,-334.55 6207.89,-325.36 6198.04,-329.25 6202.61,-334.55"/>
</g>
<!-- 48&#45;&gt;15 -->
<g id="edge64" class="edge">
<title>48&#45;&gt;15</title>
<path fill="none" stroke="black" d="M5366.12,-360.76C5356.04,-352.16 5343.44,-341.41 5332.17,-331.78"/>
<polygon fill="black" stroke="black" points="5334.51,-329.18 5324.64,-325.35 5329.97,-334.51 5334.51,-329.18"/>
</g>
<!-- 50 -->
<g id="node51" class="node">
<title>50</title>
<ellipse fill="none" stroke="black" cx="2382.14" cy="-1170" rx="55.45" ry="18"/>
<text text-anchor="middle" x="2382.14" y="-1164.95" font-family="Times New Roman,serif" font-size="14.00">You: Vows?</text>
</g>
<!-- 49&#45;&gt;50 -->
<g id="edge65" class="edge">
<title>49&#45;&gt;50</title>
<path fill="none" stroke="black" d="M2382.14,-1223.7C2382.14,-1216.41 2382.14,-1207.73 2382.14,-1199.54"/>
<polygon fill="black" stroke="black" points="2385.64,-1199.62 2382.14,-1189.62 2378.64,-1199.62 2385.64,-1199.62"/>
</g>
<!-- 51 -->
<g id="node52" class="node">
<title>51</title>
<ellipse fill="none" stroke="black" cx="2382.14" cy="-1098" rx="168.04" ry="18"/>
<text text-anchor="middle" x="2382.14" y="-1092.95" font-family="Times New Roman,serif" font-size="14.00">Endurance: The Vows of Blööd and Flesh.</text>
</g>
<!-- 50&#45;&gt;51 -->
<g id="edge66" class="edge">
<title>50&#45;&gt;51</title>
<path fill="none" stroke="black" d="M2382.14,-1151.7C2382.14,-1144.41 2382.14,-1135.73 2382.14,-1127.54"/>
<polygon fill="black" stroke="black" points="2385.64,-1127.62 2382.14,-1117.62 2378.64,-1127.62 2385.64,-1127.62"/>
</g>
<!-- 51&#45;&gt;9 -->
<g id="edge67" class="edge">
<title>51&#45;&gt;9</title>
<path fill="none" stroke="black" d="M2319.05,-1080.94C2275.63,-1069.89 2218.05,-1055.23 2173.87,-1043.99"/>
<polygon fill="black" stroke="black" points="2174.96,-1040.65 2164.41,-1041.58 2173.23,-1047.44 2174.96,-1040.65"/>
</g>
<!-- 51&#45;&gt;27 -->
<g id="edge68" class="edge">
<title>51&#45;&gt;27</title>
<path fill="none" stroke="black" d="M2445.23,-1080.94C2485.93,-1070.58 2539.07,-1057.05 2581.96,-1046.14"/>
<polygon fill="black" stroke="black" points="2582.61,-1049.58 2591.44,-1043.72 2580.89,-1042.8 2582.61,-1049.58"/>
</g>
<!-- 52&#45;&gt;28 -->
<g id="edge69" class="edge">
<title>52&#45;&gt;28</title>
<path fill="none" stroke="black" d="M4848.25,-647.7C4853.83,-639.73 4860.57,-630.1 4866.75,-621.26"/>
<polygon fill="black" stroke="black" points="4869.43,-623.54 4872.3,-613.34 4863.69,-619.53 4869.43,-623.54"/>
</g>
<!-- 57 -->
<g id="node58" class="node">
<title>57</title>
<ellipse fill="none" stroke="black" cx="4126.14" cy="-450" rx="206.43" ry="18"/>
<text text-anchor="middle" x="4126.14" y="-444.95" font-family="Times New Roman,serif" font-size="14.00">Endurance: It is one of betrayal and disappointment.</text>
</g>
<!-- 53&#45;&gt;57 -->
<g id="edge70" class="edge">
<title>53&#45;&gt;57</title>
<path fill="none" stroke="black" d="M4120.87,-503.7C4121.6,-496.41 4122.46,-487.73 4123.28,-479.54"/>
<polygon fill="black" stroke="black" points="4126.76,-479.91 4124.28,-469.61 4119.8,-479.21 4126.76,-479.91"/>
</g>
<!-- 54 -->
<g id="node55" class="node">
<title>54</title>
<ellipse fill="none" stroke="black" cx="3171.14" cy="-522" rx="73.87" ry="18"/>
<text text-anchor="middle" x="3171.14" y="-516.95" font-family="Times New Roman,serif" font-size="14.00">You: Financiers?</text>
</g>
<!-- 54&#45;&gt;32 -->
<g id="edge71" class="edge">
<title>54&#45;&gt;32</title>
<path fill="none" stroke="black" d="M3171.14,-503.7C3171.14,-496.41 3171.14,-487.73 3171.14,-479.54"/>
<polygon fill="black" stroke="black" points="3174.64,-479.62 3171.14,-469.62 3167.64,-479.62 3174.64,-479.62"/>
</g>
<!-- 55&#45;&gt;24 -->
<g id="edge72" class="edge">
<title>55&#45;&gt;24</title>
<path fill="none" stroke="black" d="M3669.14,-287.7C3669.14,-280.41 3669.14,-271.73 3669.14,-263.54"/>
<polygon fill="black" stroke="black" points="3672.64,-263.62 3669.14,-253.62 3665.64,-263.62 3672.64,-263.62"/>
</g>
<!-- 56&#45;&gt;10 -->
<g id="edge73" class="edge">
<title>56&#45;&gt;10</title>
<path fill="none" stroke="black" d="M3438.14,-396.11C3438.14,-419.92 3438.14,-463.37 3438.14,-492.22"/>
<polygon fill="black" stroke="black" points="3434.64,-492.07 3438.14,-502.07 3441.64,-492.07 3434.64,-492.07"/>
</g>
<!-- 56&#45;&gt;18 -->
<g id="edge74" class="edge">
<title>56&#45;&gt;18</title>
<path fill="none" stroke="black" d="M3438.14,-359.7C3438.14,-352.41 3438.14,-343.73 3438.14,-335.54"/>
<polygon fill="black" stroke="black" points="3441.64,-335.62 3438.14,-325.62 3434.64,-335.62 3441.64,-335.62"/>
</g>
<!-- 56&#45;&gt;38 -->
<g id="edge75" class="edge">
<title>56&#45;&gt;38</title>
<path fill="none" stroke="black" d="M3320.29,-360.23C3224.91,-346.66 3093.88,-328.02 3014.87,-316.78"/>
<polygon fill="black" stroke="black" points="3015.49,-313.33 3005.1,-315.39 3014.5,-320.26 3015.49,-313.33"/>
</g>
<!-- 56&#45;&gt;55 -->
<g id="edge76" class="edge">
<title>56&#45;&gt;55</title>
<path fill="none" stroke="black" d="M3495.24,-359.7C3530.11,-349.13 3574.62,-335.64 3609.88,-324.96"/>
<polygon fill="black" stroke="black" points="3610.5,-328.43 3619.05,-322.18 3608.47,-321.73 3610.5,-328.43"/>
</g>
</g>
</svg>
