<?xml version="1.0" encoding="UTF-8" standalone="no"?>
<!DOCTYPE svg PUBLIC "-//W3C//DTD SVG 1.1//EN"
 "http://www.w3.org/Graphics/SVG/1.1/DTD/svg11.dtd">
<!-- Generated by graphviz version 12.2.1 (20241206.2353)
 -->
<!-- Title: G Pages: 1 -->
<svg width="5872pt" height="2442pt"
 viewBox="0.00 0.00 5871.69 2441.98" xmlns="http://www.w3.org/2000/svg" xmlns:xlink="http://www.w3.org/1999/xlink">
<g id="graph0" class="graph" transform="scale(1 1) rotate(0) translate(4 2437.98)">
<title>G</title>
<polygon fill="white" stroke="none" points="-4,4 -4,-2437.98 5867.69,-2437.98 5867.69,4 -4,4"/>
<!-- 0 -->
<g id="node1" class="node">
<title>0</title>
<ellipse fill="none" stroke="black" cx="2907" cy="-2415.98" rx="39.07" ry="18"/>
<text text-anchor="middle" x="2907" y="-2410.93" font-family="Times New Roman,serif" font-size="14.00">START</text>
</g>
<!-- 1 -->
<g id="node2" class="node">
<title>1</title>
<ellipse fill="none" stroke="black" cx="2907" cy="-2343.98" rx="29.86" ry="18"/>
<text text-anchor="middle" x="2907" y="-2338.93" font-family="Times New Roman,serif" font-size="14.00">input</text>
</g>
<!-- 0&#45;&gt;1 -->
<g id="edge1" class="edge">
<title>0&#45;&gt;1</title>
<path fill="none" stroke="black" d="M2907,-2397.68C2907,-2390.39 2907,-2381.71 2907,-2373.52"/>
<polygon fill="black" stroke="black" points="2910.5,-2373.6 2907,-2363.6 2903.5,-2373.6 2910.5,-2373.6"/>
</g>
<!-- 34 -->
<g id="node34" class="node">
<title>34</title>
<ellipse fill="none" stroke="black" cx="2907" cy="-2271.98" rx="89.74" ry="18"/>
<text text-anchor="middle" x="2907" y="-2266.93" font-family="Times New Roman,serif" font-size="14.00">Rhetoric: Hey, psst...</text>
</g>
<!-- 1&#45;&gt;34 -->
<g id="edge2" class="edge">
<title>1&#45;&gt;34</title>
<path fill="none" stroke="black" d="M2907,-2325.68C2907,-2318.39 2907,-2309.71 2907,-2301.52"/>
<polygon fill="black" stroke="black" points="2910.5,-2301.6 2907,-2291.6 2903.5,-2301.6 2910.5,-2301.6"/>
</g>
<!-- 2 -->
<g id="node3" class="node">
<title>2</title>
<ellipse fill="none" stroke="black" cx="3931" cy="-399.98" rx="216.15" ry="18"/>
<text text-anchor="middle" x="3931" y="-394.93" font-family="Times New Roman,serif" font-size="14.00">Jump to: [You: &quot;Roll up your sleeves and start buil...&quot;]</text>
</g>
<!-- 23 -->
<g id="node24" class="node">
<title>23</title>
<ellipse fill="none" stroke="black" cx="3692" cy="-327.98" rx="264.26" ry="18"/>
<text text-anchor="middle" x="3692" y="-322.93" font-family="Times New Roman,serif" font-size="14.00">You: Roll up your sleeves and start building Communism. (Opt in.)</text>
</g>
<!-- 2&#45;&gt;23 -->
<g id="edge3" class="edge">
<title>2&#45;&gt;23</title>
<path fill="none" stroke="black" d="M3873.75,-382.22C3839.84,-372.28 3796.64,-359.63 3760.87,-349.15"/>
<polygon fill="black" stroke="black" points="3762.06,-345.85 3751.48,-346.4 3760.09,-352.57 3762.06,-345.85"/>
</g>
<!-- 3 -->
<g id="node4" class="node">
<title>3</title>
<ellipse fill="none" stroke="black" cx="4025" cy="-1767.98" rx="111.23" ry="18"/>
<text text-anchor="middle" x="4025" y="-1762.93" font-family="Times New Roman,serif" font-size="14.00">You: Can&#39;t argue with that.</text>
</g>
<!-- 29 -->
<g id="node29" class="node">
<title>29</title>
<ellipse fill="none" stroke="black" cx="4832" cy="-1695.98" rx="946.5" ry="18"/>
<text text-anchor="middle" x="4832" y="-1690.93" font-family="Times New Roman,serif" font-size="14.00">Rhetoric: So, what about all that communism you&#39;ve promised to build? Word on the street is you&#39;ve woken up from a thousand years of slumber, promising to erect a version of communism many times greater than any attempted before. Is that true?</text>
</g>
<!-- 3&#45;&gt;29 -->
<g id="edge4" class="edge">
<title>3&#45;&gt;29</title>
<path fill="none" stroke="black" d="M4121.14,-1758.64C4244.52,-1747.94 4461.96,-1729.08 4623.96,-1715.03"/>
<polygon fill="black" stroke="black" points="4623.87,-1718.55 4633.53,-1714.2 4623.27,-1711.58 4623.87,-1718.55"/>
</g>
<!-- 4 -->
<g id="node5" class="node">
<title>4</title>
<ellipse fill="none" stroke="black" cx="961" cy="-975.98" rx="932.68" ry="18"/>
<text text-anchor="middle" x="961" y="-970.93" font-family="Times New Roman,serif" font-size="14.00">Rhetoric: Of course you do! You *are* failure, you *are* Communism. Absolutely vanquished, beaten, curb&#45;stomped, shat on. While everyone else is out partying, having a callous laugh, *you* will reverse the fortune of the workers of the world.</text>
</g>
<!-- 44 -->
<g id="node44" class="node">
<title>44</title>
<ellipse fill="none" stroke="black" cx="1170" cy="-903.98" rx="1141.5" ry="18"/>
<text text-anchor="middle" x="1170" y="-898.93" font-family="Times New Roman,serif" font-size="14.00">Rhetoric: You alone, against every living thing, against every human alive: eight hundred trillion reál in the hands of an *impossibly* well organized ruling class; towering city blocks of bank&#45;men who have the ears of prime ministers; million&#45;headed armies of nations and the love of your own mother!</text>
</g>
<!-- 4&#45;&gt;44 -->
<g id="edge5" class="edge">
<title>4&#45;&gt;44</title>
<path fill="none" stroke="black" d="M1012.93,-957.59C1041.46,-948.03 1077.07,-936.11 1107.16,-926.03"/>
<polygon fill="black" stroke="black" points="1108.17,-929.38 1116.54,-922.89 1105.94,-922.75 1108.17,-929.38"/>
</g>
<!-- 5 -->
<g id="node6" class="node">
<title>5</title>
<ellipse fill="none" stroke="black" cx="4091" cy="-831.98" rx="193.12" ry="18"/>
<text text-anchor="middle" x="4091" y="-826.93" font-family="Times New Roman,serif" font-size="14.00">Rhetoric: Anyone? Anyone else? There&#39;s no one?</text>
</g>
<!-- 9 -->
<g id="node10" class="node">
<title>9</title>
<ellipse fill="none" stroke="black" cx="4091" cy="-759.98" rx="90.25" ry="18"/>
<text text-anchor="middle" x="4091" y="-754.93" font-family="Times New Roman,serif" font-size="14.00">Volition: There&#39;s one.</text>
</g>
<!-- 5&#45;&gt;9 -->
<g id="edge6" class="edge">
<title>5&#45;&gt;9</title>
<path fill="none" stroke="black" d="M4091,-813.68C4091,-806.39 4091,-797.71 4091,-789.52"/>
<polygon fill="black" stroke="black" points="4094.5,-789.6 4091,-779.6 4087.5,-789.6 4094.5,-789.6"/>
</g>
<!-- 6 -->
<g id="node7" class="node">
<title>6</title>
<ellipse fill="none" stroke="black" cx="3543" cy="-183.98" rx="269.89" ry="18"/>
<text text-anchor="middle" x="3543" y="-178.93" font-family="Times New Roman,serif" font-size="14.00">You: Wait, what? Firing squads? You didn&#39;t say anything about those.</text>
</g>
<!-- 27 -->
<g id="node27" class="node">
<title>27</title>
<ellipse fill="none" stroke="black" cx="3487" cy="-111.98" rx="381.98" ry="18"/>
<text text-anchor="middle" x="3487" y="-106.93" font-family="Times New Roman,serif" font-size="14.00">Rhetoric: Too late to back out now. You can&#39;t make an omelet without breaking a few million eggs!</text>
</g>
<!-- 6&#45;&gt;27 -->
<g id="edge7" class="edge">
<title>6&#45;&gt;27</title>
<path fill="none" stroke="black" d="M3529.16,-165.68C3522.71,-157.63 3514.92,-147.88 3507.79,-138.97"/>
<polygon fill="black" stroke="black" points="3510.61,-136.89 3501.63,-131.27 3505.14,-141.26 3510.61,-136.89"/>
</g>
<!-- 7 -->
<g id="node8" class="node">
<title>7</title>
<ellipse fill="none" stroke="black" cx="2878" cy="-1479.98" rx="148.08" ry="18"/>
<text text-anchor="middle" x="2878" y="-1474.93" font-family="Times New Roman,serif" font-size="14.00">You: Oh, right. That sounds like me.</text>
</g>
<!-- 17 -->
<g id="node18" class="node">
<title>17</title>
<ellipse fill="none" stroke="black" cx="2707" cy="-1335.98" rx="580.56" ry="18"/>
<text text-anchor="middle" x="2707" y="-1330.93" font-family="Times New Roman,serif" font-size="14.00">Rhetoric: Funky&#45;style. Very funky. So tell me. Do you have any questions before we fire up the Big Communism Builder, or do we get right down to it?</text>
</g>
<!-- 7&#45;&gt;17 -->
<g id="edge8" class="edge">
<title>7&#45;&gt;17</title>
<path fill="none" stroke="black" d="M2790.93,-1465.08C2766.89,-1457.27 2742.82,-1445.06 2726,-1425.98 2711.53,-1409.58 2707.15,-1384.88 2706.19,-1365.66"/>
<polygon fill="black" stroke="black" points="2709.69,-1365.69 2706,-1355.76 2702.69,-1365.82 2709.69,-1365.69"/>
</g>
<!-- 8 -->
<g id="node9" class="node">
<title>8</title>
<ellipse fill="none" stroke="black" cx="3022" cy="-1191.98" rx="224.34" ry="18"/>
<text text-anchor="middle" x="3022" y="-1186.93" font-family="Times New Roman,serif" font-size="14.00">You: Wait, first &#45;&#45; what&#39;s this *communism* even about?</text>
</g>
<!-- 43 -->
<g id="node43" class="node">
<title>43</title>
<ellipse fill="none" stroke="black" cx="2727" cy="-1119.98" rx="141.94" ry="18"/>
<text text-anchor="middle" x="2727" y="-1114.93" font-family="Times New Roman,serif" font-size="14.00">Rhetoric: Failure. It&#39;s about failure.</text>
</g>
<!-- 8&#45;&gt;43 -->
<g id="edge9" class="edge">
<title>8&#45;&gt;43</title>
<path fill="none" stroke="black" d="M2952.46,-1174.48C2907.61,-1163.84 2849.27,-1150 2803.17,-1139.06"/>
<polygon fill="black" stroke="black" points="2804.04,-1135.67 2793.5,-1136.76 2802.42,-1142.48 2804.04,-1135.67"/>
</g>
<!-- 49 -->
<g id="node49" class="node">
<title>49</title>
<ellipse fill="none" stroke="black" cx="4091" cy="-687.98" rx="238.16" ry="18"/>
<text text-anchor="middle" x="4091" y="-682.93" font-family="Times New Roman,serif" font-size="14.00">Variable[&quot;plaza.sense_rhetoric_communism_volition_fired&quot;]</text>
</g>
<!-- 9&#45;&gt;49 -->
<g id="edge10" class="edge">
<title>9&#45;&gt;49</title>
<path fill="none" stroke="black" d="M4091,-741.68C4091,-734.39 4091,-725.71 4091,-717.52"/>
<polygon fill="black" stroke="black" points="4094.5,-717.6 4091,-707.6 4087.5,-717.6 4094.5,-717.6"/>
</g>
<!-- 10 -->
<g id="node11" class="node">
<title>10</title>
<ellipse fill="none" stroke="black" cx="2917" cy="-1983.98" rx="355.88" ry="18"/>
<text text-anchor="middle" x="2917" y="-1978.93" font-family="Times New Roman,serif" font-size="14.00">Rhetoric: Yes, you. Word on the street is you&#39;re ready to start building *communism* again!</text>
</g>
<!-- 12 -->
<g id="node13" class="node">
<title>12</title>
<ellipse fill="none" stroke="black" cx="2368" cy="-1623.98" rx="201.31" ry="18"/>
<text text-anchor="middle" x="2368" y="-1618.93" font-family="Times New Roman,serif" font-size="14.00">You: Get the fuck outta here! No. [Finish thought.]</text>
</g>
<!-- 10&#45;&gt;12 -->
<g id="edge11" class="edge">
<title>10&#45;&gt;12</title>
<path fill="none" stroke="black" d="M2563.12,-1981.95C1840.94,-1977.49 265,-1954.72 265,-1840.98 265,-1840.98 265,-1840.98 265,-1766.98 265,-1726.54 252.88,-1703.82 284,-1677.98 319.69,-1648.35 1635.22,-1632.19 2157.45,-1626.92"/>
<polygon fill="black" stroke="black" points="2157.4,-1630.43 2167.37,-1626.82 2157.33,-1623.43 2157.4,-1630.43"/>
</g>
<!-- 39 -->
<g id="node39" class="node">
<title>39</title>
<ellipse fill="none" stroke="black" cx="2917" cy="-1911.98" rx="61.08" ry="18"/>
<text text-anchor="middle" x="2917" y="-1906.93" font-family="Times New Roman,serif" font-size="14.00">You: &#39;Again&#39;?</text>
</g>
<!-- 10&#45;&gt;39 -->
<g id="edge13" class="edge">
<title>10&#45;&gt;39</title>
<path fill="none" stroke="black" d="M2917,-1965.68C2917,-1958.39 2917,-1949.71 2917,-1941.52"/>
<polygon fill="black" stroke="black" points="2920.5,-1941.6 2917,-1931.6 2913.5,-1941.6 2920.5,-1941.6"/>
</g>
<!-- 55 -->
<g id="node55" class="node">
<title>55</title>
<ellipse fill="none" stroke="black" cx="3466" cy="-1623.98" rx="181.35" ry="18"/>
<text text-anchor="middle" x="3466" y="-1618.93" font-family="Times New Roman,serif" font-size="14.00">You: How come there&#39;s *word on the street*?</text>
</g>
<!-- 10&#45;&gt;55 -->
<g id="edge12" class="edge">
<title>10&#45;&gt;55</title>
<path fill="none" stroke="black" d="M3273.18,-1983.6C4045.84,-1982.57 5807,-1966.47 5807,-1840.98 5807,-1840.98 5807,-1840.98 5807,-1766.98 5807,-1726.54 5819.15,-1703.78 5788,-1677.98 5747.18,-1644.18 4206.42,-1630.15 3657.65,-1626.21"/>
<polygon fill="black" stroke="black" points="3658,-1622.72 3647.97,-1626.15 3657.95,-1629.72 3658,-1622.72"/>
</g>
<!-- 11 -->
<g id="node12" class="node">
<title>11</title>
<ellipse fill="none" stroke="black" cx="1798" cy="-1767.98" rx="251.98" ry="18"/>
<text text-anchor="middle" x="1798" y="-1762.93" font-family="Times New Roman,serif" font-size="14.00">You: Love has worked out really well for me. I&#39;m a love winner.</text>
</g>
<!-- 13 -->
<g id="node14" class="node">
<title>13</title>
<ellipse fill="none" stroke="black" cx="1121" cy="-1695.98" rx="828.28" ry="18"/>
<text text-anchor="middle" x="1121" y="-1690.93" font-family="Times New Roman,serif" font-size="14.00">Rhetoric: Good. We need tender men like you building gargantuan communism. Word on the street is it&#39;s going to be ten thousand times larger than any communism previously attempted by human beings. Is that right?</text>
</g>
<!-- 11&#45;&gt;13 -->
<g id="edge14" class="edge">
<title>11&#45;&gt;13</title>
<path fill="none" stroke="black" d="M1658.55,-1752.56C1554.03,-1741.76 1410.25,-1726.89 1297.69,-1715.25"/>
<polygon fill="black" stroke="black" points="1298.37,-1711.8 1288.06,-1714.26 1297.65,-1718.77 1298.37,-1711.8"/>
</g>
<!-- 13&#45;&gt;12 -->
<g id="edge15" class="edge">
<title>13&#45;&gt;12</title>
<path fill="none" stroke="black" d="M1411.79,-1678.66C1652.47,-1665.15 1986.7,-1646.39 2189.58,-1635"/>
<polygon fill="black" stroke="black" points="2189.65,-1638.5 2199.43,-1634.45 2189.25,-1631.51 2189.65,-1638.5"/>
</g>
<!-- 13&#45;&gt;55 -->
<g id="edge16" class="edge">
<title>13&#45;&gt;55</title>
<path fill="none" stroke="black" d="M1595.55,-1680.82C2115.65,-1665.29 2923.84,-1641.17 3283.12,-1630.44"/>
<polygon fill="black" stroke="black" points="3283,-1633.95 3292.89,-1630.15 3282.79,-1626.95 3283,-1633.95"/>
</g>
<!-- 14 -->
<g id="node15" class="node">
<title>14</title>
<ellipse fill="none" stroke="black" cx="2727" cy="-1047.98" rx="61.59" ry="18"/>
<text text-anchor="middle" x="2727" y="-1042.93" font-family="Times New Roman,serif" font-size="14.00">You: Failure?</text>
</g>
<!-- 41 -->
<g id="node41" class="node">
<title>41</title>
<ellipse fill="none" stroke="black" cx="2727" cy="-975.98" rx="814.97" ry="18"/>
<text text-anchor="middle" x="2727" y="-970.93" font-family="Times New Roman,serif" font-size="14.00">Rhetoric: Yes! Abject failure. Total, irreversible defeat on all fronts! Absolutely vanquished, beaten, curb&#45;stomped and pissed on &#45;&#45; until *you* came along! *You* will reverse the fortune of the workers of the world.</text>
</g>
<!-- 14&#45;&gt;41 -->
<g id="edge17" class="edge">
<title>14&#45;&gt;41</title>
<path fill="none" stroke="black" d="M2727,-1029.68C2727,-1022.39 2727,-1013.71 2727,-1005.52"/>
<polygon fill="black" stroke="black" points="2730.5,-1005.6 2727,-995.6 2723.5,-1005.6 2730.5,-1005.6"/>
</g>
<!-- 15 -->
<g id="node16" class="node">
<title>15</title>
<ellipse fill="none" stroke="black" cx="4388" cy="-471.98" rx="304.7" ry="18"/>
<text text-anchor="middle" x="4388" y="-466.93" font-family="Times New Roman,serif" font-size="14.00">Volition: You should build Communism &#45;&#45; precisely *because* it&#39;s impossible.</text>
</g>
<!-- 15&#45;&gt;2 -->
<g id="edge18" class="edge">
<title>15&#45;&gt;2</title>
<path fill="none" stroke="black" d="M4281.43,-454.66C4209.68,-443.67 4115.25,-429.2 4042.49,-418.06"/>
<polygon fill="black" stroke="black" points="4043.38,-414.65 4032.96,-416.6 4042.32,-421.57 4043.38,-414.65"/>
</g>
<!-- 19 -->
<g id="node20" class="node">
<title>19</title>
<ellipse fill="none" stroke="black" cx="4594" cy="-399.98" rx="371.23" ry="18"/>
<text text-anchor="middle" x="4594" y="-394.93" font-family="Times New Roman,serif" font-size="14.00">You: No. Shut up. I want to lie down and let the water carry me downstream. [Discard thought.]</text>
</g>
<!-- 15&#45;&gt;19 -->
<g id="edge19" class="edge">
<title>15&#45;&gt;19</title>
<path fill="none" stroke="black" d="M4438.66,-453.77C4466.99,-444.14 4502.51,-432.07 4532.43,-421.9"/>
<polygon fill="black" stroke="black" points="4533.41,-425.27 4541.75,-418.74 4531.15,-418.64 4533.41,-425.27"/>
</g>
<!-- 16 -->
<g id="node17" class="node">
<title>16</title>
<ellipse fill="none" stroke="black" cx="3466" cy="-1479.98" rx="251.47" ry="18"/>
<text text-anchor="middle" x="3466" y="-1474.93" font-family="Times New Roman,serif" font-size="14.00">You: I&#39;ve said *some* mildly left wing things but none of those.</text>
</g>
<!-- 57 -->
<g id="node57" class="node">
<title>57</title>
<ellipse fill="none" stroke="black" cx="3466" cy="-1407.98" rx="730.52" ry="18"/>
<text text-anchor="middle" x="3466" y="-1402.93" font-family="Times New Roman,serif" font-size="14.00">Rhetoric: Oh yes, the *mask of ambivalence*. Don&#39;t deny it. You&#39;re about to rip it off and reveal the monstrous seven&#45;eyed lamb of global communism that will devour and masticate mankind.</text>
</g>
<!-- 16&#45;&gt;57 -->
<g id="edge20" class="edge">
<title>16&#45;&gt;57</title>
<path fill="none" stroke="black" d="M3466,-1461.68C3466,-1454.39 3466,-1445.71 3466,-1437.52"/>
<polygon fill="black" stroke="black" points="3469.5,-1437.6 3466,-1427.6 3462.5,-1437.6 3469.5,-1437.6"/>
</g>
<!-- 54 -->
<g id="node54" class="node">
<title>54</title>
<ellipse fill="none" stroke="black" cx="3296" cy="-1263.98" rx="53.4" ry="18"/>
<text text-anchor="middle" x="3296" y="-1258.93" font-family="Times New Roman,serif" font-size="14.00">big_builder</text>
</g>
<!-- 17&#45;&gt;54 -->
<g id="edge21" class="edge">
<title>17&#45;&gt;54</title>
<path fill="none" stroke="black" d="M2849.2,-1318.08C2972.32,-1303.45 3144.43,-1283 3234.89,-1272.25"/>
<polygon fill="black" stroke="black" points="3235.29,-1275.72 3244.8,-1271.07 3234.46,-1268.77 3235.29,-1275.72"/>
</g>
<!-- 18 -->
<g id="node19" class="node">
<title>18</title>
<ellipse fill="none" stroke="black" cx="4091" cy="-1047.98" rx="403.48" ry="18"/>
<text text-anchor="middle" x="4091" y="-1042.93" font-family="Times New Roman,serif" font-size="14.00">Logic: No objections. It&#39;s mathematically impossible to achieve a classless society. Everyone knows this.</text>
</g>
<!-- 42 -->
<g id="node42" class="node">
<title>42</title>
<ellipse fill="none" stroke="black" cx="4091" cy="-975.98" rx="433.16" ry="18"/>
<text text-anchor="middle" x="4091" y="-970.93" font-family="Times New Roman,serif" font-size="14.00">Savoir Faire: Let not failure ensnare you any further, beautiful pixie girl! Be an acrobat! A prancing faerie queen!</text>
</g>
<!-- 18&#45;&gt;42 -->
<g id="edge22" class="edge">
<title>18&#45;&gt;42</title>
<path fill="none" stroke="black" d="M4091,-1029.68C4091,-1022.39 4091,-1013.71 4091,-1005.52"/>
<polygon fill="black" stroke="black" points="4094.5,-1005.6 4091,-995.6 4087.5,-1005.6 4094.5,-1005.6"/>
</g>
<!-- 20 -->
<g id="node21" class="node">
<title>20</title>
<ellipse fill="none" stroke="black" cx="2917" cy="-1767.98" rx="171.63" ry="18"/>
<text text-anchor="middle" x="2917" y="-1762.93" font-family="Times New Roman,serif" font-size="14.00">You: Yes, we should all stop building love.</text>
</g>
<!-- 24 -->
<g id="node25" class="node">
<title>24</title>
<ellipse fill="none" stroke="black" cx="2917" cy="-1695.98" rx="950.09" ry="18"/>
<text text-anchor="middle" x="2917" y="-1690.93" font-family="Times New Roman,serif" font-size="14.00">Rhetoric: This conversation isn&#39;t really about love. Try to keep up, okay? This is about the communism you&#39;ve *promised* to build. Word on the street is it&#39;s going to be ten thousand times larger than any communism previously attempted. Is that true?</text>
</g>
<!-- 20&#45;&gt;24 -->
<g id="edge23" class="edge">
<title>20&#45;&gt;24</title>
<path fill="none" stroke="black" d="M2917,-1749.68C2917,-1742.39 2917,-1733.71 2917,-1725.52"/>
<polygon fill="black" stroke="black" points="2920.5,-1725.6 2917,-1715.6 2913.5,-1725.6 2920.5,-1725.6"/>
</g>
<!-- 21 -->
<g id="node22" class="node">
<title>21</title>
<ellipse fill="none" stroke="black" cx="5039" cy="-1407.98" rx="824.69" ry="18"/>
<text text-anchor="middle" x="5039" y="-1402.93" font-family="Times New Roman,serif" font-size="14.00">Rhetoric: Okay, not in so many words. But don&#39;t deny it. You&#39;re about to rip off that mask of social democracy and reveal the monstrous seven&#45;eyed lamb of global communism that will devour and masticate mankind.</text>
</g>
<!-- 53 -->
<g id="node53" class="node">
<title>53</title>
<ellipse fill="none" stroke="black" cx="3885" cy="-1335.98" rx="579.54" ry="18"/>
<text text-anchor="middle" x="3885" y="-1330.93" font-family="Times New Roman,serif" font-size="14.00">Rhetoric: Everyone can see that. So tell me, do you have any questions before we fire up the Big Communism Builder, or do we get *right down to it*?</text>
</g>
<!-- 21&#45;&gt;53 -->
<g id="edge24" class="edge">
<title>21&#45;&gt;53</title>
<path fill="none" stroke="black" d="M4767.71,-1390.53C4582.28,-1379.28 4337.61,-1364.44 4152.91,-1353.23"/>
<polygon fill="black" stroke="black" points="4153.37,-1349.76 4143.17,-1352.64 4152.94,-1356.74 4153.37,-1349.76"/>
</g>
<!-- 22 -->
<g id="node23" class="node">
<title>22</title>
<ellipse fill="none" stroke="black" cx="3996" cy="-1191.98" rx="303.67" ry="18"/>
<text text-anchor="middle" x="3996" y="-1186.93" font-family="Times New Roman,serif" font-size="14.00">You: It&#39;s too tiring. I don&#39;t have it in me. I&#39;m beat down and broken. (Opt out.)</text>
</g>
<!-- 36 -->
<g id="node36" class="node">
<title>36</title>
<ellipse fill="none" stroke="black" cx="4091" cy="-1119.98" rx="493.04" ry="18"/>
<text text-anchor="middle" x="4091" y="-1114.93" font-family="Times New Roman,serif" font-size="14.00">Rhetoric: Very well. I guess no one will build Communism then. Tell the working man it&#39;s over. Unless anyone has... objections?</text>
</g>
<!-- 22&#45;&gt;36 -->
<g id="edge25" class="edge">
<title>22&#45;&gt;36</title>
<path fill="none" stroke="black" d="M4019.48,-1173.68C4031.24,-1165.01 4045.67,-1154.38 4058.48,-1144.95"/>
<polygon fill="black" stroke="black" points="4060.26,-1147.98 4066.24,-1139.23 4056.11,-1142.34 4060.26,-1147.98"/>
</g>
<!-- 52 -->
<g id="node52" class="node">
<title>52</title>
<ellipse fill="none" stroke="black" cx="3692" cy="-255.98" rx="277.06" ry="18"/>
<text text-anchor="middle" x="3692" y="-250.93" font-family="Times New Roman,serif" font-size="14.00">Rhetoric: Oh yeah! Get the firing squads and the animal wagons ready!</text>
</g>
<!-- 23&#45;&gt;52 -->
<g id="edge26" class="edge">
<title>23&#45;&gt;52</title>
<path fill="none" stroke="black" d="M3692,-309.68C3692,-302.39 3692,-293.71 3692,-285.52"/>
<polygon fill="black" stroke="black" points="3695.5,-285.6 3692,-275.6 3688.5,-285.6 3695.5,-285.6"/>
</g>
<!-- 24&#45;&gt;12 -->
<g id="edge27" class="edge">
<title>24&#45;&gt;12</title>
<path fill="none" stroke="black" d="M2781.29,-1677.68C2692.71,-1666.38 2577.96,-1651.75 2491.86,-1640.77"/>
<polygon fill="black" stroke="black" points="2492.3,-1637.3 2481.94,-1639.51 2491.41,-1644.25 2492.3,-1637.3"/>
</g>
<!-- 24&#45;&gt;55 -->
<g id="edge28" class="edge">
<title>24&#45;&gt;55</title>
<path fill="none" stroke="black" d="M3052.71,-1677.68C3142.75,-1666.2 3259.83,-1651.27 3346.38,-1640.24"/>
<polygon fill="black" stroke="black" points="3346.6,-1643.74 3356.07,-1639 3345.71,-1636.79 3346.6,-1643.74"/>
</g>
<!-- 25 -->
<g id="node26" class="node">
<title>25</title>
<ellipse fill="none" stroke="black" cx="3466" cy="-1551.98" rx="1016.11" ry="18"/>
<text text-anchor="middle" x="3466" y="-1546.93" font-family="Times New Roman,serif" font-size="14.00">Rhetoric: You keep saying things like *down with the bourgeoisie*, *eat the rich*, *sodomize the land&#45;owners*, *impale all people who have more than 25 reál in their pocket*, *literally murder all human beings regardless of their political beliefs* &#45;&#45; that kind of stuff.</text>
</g>
<!-- 25&#45;&gt;7 -->
<g id="edge31" class="edge">
<title>25&#45;&gt;7</title>
<path fill="none" stroke="black" d="M3320.65,-1533.68C3219.34,-1521.62 3086.08,-1505.75 2992.34,-1494.59"/>
<polygon fill="black" stroke="black" points="2992.95,-1491.14 2982.61,-1493.44 2992.12,-1498.09 2992.95,-1491.14"/>
</g>
<!-- 25&#45;&gt;16 -->
<g id="edge29" class="edge">
<title>25&#45;&gt;16</title>
<path fill="none" stroke="black" d="M3466,-1533.68C3466,-1526.39 3466,-1517.71 3466,-1509.52"/>
<polygon fill="black" stroke="black" points="3469.5,-1509.6 3466,-1499.6 3462.5,-1509.6 3469.5,-1509.6"/>
</g>
<!-- 28 -->
<g id="node28" class="node">
<title>28</title>
<ellipse fill="none" stroke="black" cx="4462" cy="-1479.98" rx="150.64" ry="18"/>
<text text-anchor="middle" x="4462" y="-1474.93" font-family="Times New Roman,serif" font-size="14.00">You: I haven&#39;t said anything like that.</text>
</g>
<!-- 25&#45;&gt;28 -->
<g id="edge30" class="edge">
<title>25&#45;&gt;28</title>
<path fill="none" stroke="black" d="M3707.42,-1534.02C3900.55,-1520.44 4164.52,-1501.89 4323.6,-1490.71"/>
<polygon fill="black" stroke="black" points="4323.63,-1494.22 4333.36,-1490.02 4323.14,-1487.23 4323.63,-1494.22"/>
</g>
<!-- 38 -->
<g id="node38" class="node">
<title>38</title>
<ellipse fill="none" stroke="black" cx="3692" cy="-28.99" rx="325.27" ry="28.99"/>
<text text-anchor="middle" x="3692" y="-32.19" font-family="Times New Roman,serif" font-size="14.00">You: Roll your sleeves up further and breathe in the pristine air. [Finish thought.]</text>
<text text-anchor="middle" x="3692" y="-15.69" font-family="Times New Roman,serif" font-size="14.00">Roll your sleeves up and breathe in the pristine air. [Finish thought.]</text>
</g>
<!-- 27&#45;&gt;38 -->
<g id="edge32" class="edge">
<title>27&#45;&gt;38</title>
<path fill="none" stroke="black" d="M3530.98,-93.61C3554.45,-84.33 3584.08,-72.63 3611.5,-61.79"/>
<polygon fill="black" stroke="black" points="3612.47,-65.18 3620.48,-58.25 3609.89,-58.67 3612.47,-65.18"/>
</g>
<!-- 28&#45;&gt;21 -->
<g id="edge33" class="edge">
<title>28&#45;&gt;21</title>
<path fill="none" stroke="black" d="M4565.16,-1466.47C4654.36,-1455.65 4784.55,-1439.85 4885.91,-1427.56"/>
<polygon fill="black" stroke="black" points="4886.17,-1431.05 4895.68,-1426.37 4885.33,-1424.1 4886.17,-1431.05"/>
</g>
<!-- 29&#45;&gt;12 -->
<g id="edge34" class="edge">
<title>29&#45;&gt;12</title>
<path fill="none" stroke="black" d="M4319.59,-1680.43C3776.72,-1665 2946.84,-1641.43 2568.5,-1630.68"/>
<polygon fill="black" stroke="black" points="2568.77,-1627.19 2558.68,-1630.4 2568.57,-1634.18 2568.77,-1627.19"/>
</g>
<!-- 29&#45;&gt;55 -->
<g id="edge35" class="edge">
<title>29&#45;&gt;55</title>
<path fill="none" stroke="black" d="M4512.16,-1678.59C4237.99,-1664.54 3853.73,-1644.85 3635.34,-1633.66"/>
<polygon fill="black" stroke="black" points="3635.78,-1630.18 3625.61,-1633.16 3635.42,-1637.17 3635.78,-1630.18"/>
</g>
<!-- 30 -->
<g id="node30" class="node">
<title>30</title>
<ellipse fill="none" stroke="black" cx="1752" cy="-1047.98" rx="105.09" ry="18"/>
<text text-anchor="middle" x="1752" y="-1042.93" font-family="Times New Roman,serif" font-size="14.00">You: I don&#39;t *do* failure.</text>
</g>
<!-- 30&#45;&gt;4 -->
<g id="edge36" class="edge">
<title>30&#45;&gt;4</title>
<path fill="none" stroke="black" d="M1660.49,-1038.88C1540.16,-1028.24 1325.28,-1009.22 1165.33,-995.07"/>
<polygon fill="black" stroke="black" points="1165.69,-991.58 1155.42,-994.19 1165.07,-998.56 1165.69,-991.58"/>
</g>
<!-- 31 -->
<g id="node31" class="node">
<title>31</title>
<ellipse fill="none" stroke="black" cx="307" cy="-687.98" rx="94.86" ry="18"/>
<text text-anchor="middle" x="307" y="-682.93" font-family="Times New Roman,serif" font-size="14.00">Jump to: [big_builder]</text>
</g>
<!-- 31&#45;&gt;54 -->
<g id="edge37" class="edge">
<title>31&#45;&gt;54</title>
<path fill="none" stroke="black" d="M216.14,-693.55C125.61,-703.58 0,-734.82 0,-830.98 0,-1120.98 0,-1120.98 0,-1120.98 0,-1204.99 2769.52,-1254.3 3231.14,-1261.94"/>
<polygon fill="black" stroke="black" points="3230.99,-1265.44 3241.04,-1262.1 3231.1,-1258.44 3230.99,-1265.44"/>
</g>
<!-- 32 -->
<g id="node32" class="node">
<title>32</title>
<ellipse fill="none" stroke="black" cx="4091" cy="-903.98" rx="475.13" ry="18"/>
<text text-anchor="middle" x="4091" y="-898.93" font-family="Times New Roman,serif" font-size="14.00">Electrochemistry: Did someone mention cocaine? Are we doing cocaine? No? I&#39;m sure I heard someone say Cocainimism...</text>
</g>
<!-- 32&#45;&gt;5 -->
<g id="edge38" class="edge">
<title>32&#45;&gt;5</title>
<path fill="none" stroke="black" d="M4091,-885.68C4091,-878.39 4091,-869.71 4091,-861.52"/>
<polygon fill="black" stroke="black" points="4094.5,-861.6 4091,-851.6 4087.5,-861.6 4094.5,-861.6"/>
</g>
<!-- 33 -->
<g id="node33" class="node">
<title>33</title>
<ellipse fill="none" stroke="black" cx="4534" cy="-543.98" rx="99.97" ry="18"/>
<text text-anchor="middle" x="4534" y="-538.93" font-family="Times New Roman,serif" font-size="14.00">You: What should I do?</text>
</g>
<!-- 33&#45;&gt;15 -->
<g id="edge39" class="edge">
<title>33&#45;&gt;15</title>
<path fill="none" stroke="black" d="M4500.14,-526.75C4480.52,-517.34 4455.55,-505.37 4434.15,-495.11"/>
<polygon fill="black" stroke="black" points="4435.87,-492.05 4425.34,-490.88 4432.84,-498.36 4435.87,-492.05"/>
</g>
<!-- 45 -->
<g id="node45" class="node">
<title>45</title>
<ellipse fill="none" stroke="black" cx="2917" cy="-2055.98" rx="76.43" ry="18"/>
<text text-anchor="middle" x="2917" y="-2050.93" font-family="Times New Roman,serif" font-size="14.00">You: Who &#45;&#45; me?</text>
</g>
<!-- 34&#45;&gt;45 -->
<g id="edge40" class="edge">
<title>34&#45;&gt;45</title>
<path fill="none" stroke="black" d="M2896.74,-2253.62C2880.41,-2223.61 2852.16,-2160.43 2871,-2109.98 2874.88,-2099.59 2881.82,-2089.88 2889.15,-2081.69"/>
<polygon fill="black" stroke="black" points="2891.65,-2084.15 2896.09,-2074.52 2886.62,-2079.28 2891.65,-2084.15"/>
</g>
<!-- 46 -->
<g id="node46" class="node">
<title>46</title>
<ellipse fill="none" stroke="black" cx="2972" cy="-2199.98" rx="81.55" ry="18"/>
<text text-anchor="middle" x="2972" y="-2194.93" font-family="Times New Roman,serif" font-size="14.00">You: Look around.</text>
</g>
<!-- 34&#45;&gt;46 -->
<g id="edge41" class="edge">
<title>34&#45;&gt;46</title>
<path fill="none" stroke="black" d="M2922.73,-2254.04C2930.56,-2245.61 2940.17,-2235.26 2948.82,-2225.95"/>
<polygon fill="black" stroke="black" points="2951.14,-2228.59 2955.38,-2218.88 2946.01,-2223.83 2951.14,-2228.59"/>
</g>
<!-- 35 -->
<g id="node35" class="node">
<title>35</title>
<ellipse fill="none" stroke="black" cx="2917" cy="-1839.98" rx="790.91" ry="18"/>
<text text-anchor="middle" x="2917" y="-1834.93" font-family="Times New Roman,serif" font-size="14.00">Rhetoric: Yes &#45;&#45; you&#39;re ready to start building communism *again*. You&#39;ve built it before, *they&#39;ve* built it before. Hasn&#39;t really worked out yet, but neither has *love* &#45;&#45; should we just stop building love, too?</text>
</g>
<!-- 35&#45;&gt;3 -->
<g id="edge43" class="edge">
<title>35&#45;&gt;3</title>
<path fill="none" stroke="black" d="M3177.48,-1822.53C3410.22,-1807.82 3740.15,-1786.98 3911.62,-1776.15"/>
<polygon fill="black" stroke="black" points="3911.66,-1779.65 3921.42,-1775.53 3911.22,-1772.66 3911.66,-1779.65"/>
</g>
<!-- 35&#45;&gt;11 -->
<g id="edge42" class="edge">
<title>35&#45;&gt;11</title>
<path fill="none" stroke="black" d="M2654.29,-1822.55C2452.28,-1809.91 2177.62,-1792.73 1994.4,-1781.27"/>
<polygon fill="black" stroke="black" points="1994.72,-1777.78 1984.52,-1780.65 1994.28,-1784.77 1994.72,-1777.78"/>
</g>
<!-- 35&#45;&gt;20 -->
<g id="edge44" class="edge">
<title>35&#45;&gt;20</title>
<path fill="none" stroke="black" d="M2917,-1821.68C2917,-1814.39 2917,-1805.71 2917,-1797.52"/>
<polygon fill="black" stroke="black" points="2920.5,-1797.6 2917,-1787.6 2913.5,-1797.6 2920.5,-1797.6"/>
</g>
<!-- 36&#45;&gt;18 -->
<g id="edge45" class="edge">
<title>36&#45;&gt;18</title>
<path fill="none" stroke="black" d="M4091,-1101.68C4091,-1094.39 4091,-1085.71 4091,-1077.52"/>
<polygon fill="black" stroke="black" points="4094.5,-1077.6 4091,-1067.6 4087.5,-1077.6 4094.5,-1077.6"/>
</g>
<!-- 37 -->
<g id="node37" class="node">
<title>37</title>
<ellipse fill="none" stroke="black" cx="3945" cy="-543.98" rx="343.59" ry="18"/>
<text text-anchor="middle" x="3945" y="-538.93" font-family="Times New Roman,serif" font-size="14.00">Rhetoric: There&#39;s no one. Okay then. Lie down and let the water carry you downstream...</text>
</g>
<!-- 40 -->
<g id="node40" class="node">
<title>40</title>
<ellipse fill="none" stroke="black" cx="3876" cy="-471.98" rx="189.54" ry="18"/>
<text text-anchor="middle" x="3876" y="-466.93" font-family="Times New Roman,serif" font-size="14.00">You: Good bye, Communism. [Finish thought.]</text>
</g>
<!-- 37&#45;&gt;40 -->
<g id="edge46" class="edge">
<title>37&#45;&gt;40</title>
<path fill="none" stroke="black" d="M3927.94,-525.68C3919.76,-517.37 3909.79,-507.26 3900.78,-498.12"/>
<polygon fill="black" stroke="black" points="3903.44,-495.83 3893.92,-491.16 3898.45,-500.74 3903.44,-495.83"/>
</g>
<!-- 39&#45;&gt;35 -->
<g id="edge47" class="edge">
<title>39&#45;&gt;35</title>
<path fill="none" stroke="black" d="M2917,-1893.68C2917,-1886.39 2917,-1877.71 2917,-1869.52"/>
<polygon fill="black" stroke="black" points="2920.5,-1869.6 2917,-1859.6 2913.5,-1869.6 2920.5,-1869.6"/>
</g>
<!-- 41&#45;&gt;44 -->
<g id="edge48" class="edge">
<title>41&#45;&gt;44</title>
<path fill="none" stroke="black" d="M2377.58,-959.27C2131.09,-948.19 1801.15,-933.36 1548.44,-922"/>
<polygon fill="black" stroke="black" points="1548.88,-918.51 1538.74,-921.56 1548.57,-925.51 1548.88,-918.51"/>
</g>
<!-- 42&#45;&gt;32 -->
<g id="edge49" class="edge">
<title>42&#45;&gt;32</title>
<path fill="none" stroke="black" d="M4091,-957.68C4091,-950.39 4091,-941.71 4091,-933.52"/>
<polygon fill="black" stroke="black" points="4094.5,-933.6 4091,-923.6 4087.5,-933.6 4094.5,-933.6"/>
</g>
<!-- 43&#45;&gt;14 -->
<g id="edge50" class="edge">
<title>43&#45;&gt;14</title>
<path fill="none" stroke="black" d="M2727,-1101.68C2727,-1094.39 2727,-1085.71 2727,-1077.52"/>
<polygon fill="black" stroke="black" points="2730.5,-1077.6 2727,-1067.6 2723.5,-1077.6 2730.5,-1077.6"/>
</g>
<!-- 43&#45;&gt;30 -->
<g id="edge51" class="edge">
<title>43&#45;&gt;30</title>
<path fill="none" stroke="black" d="M2605.98,-1110.29C2413.66,-1096.49 2041.37,-1069.76 1858.55,-1056.63"/>
<polygon fill="black" stroke="black" points="1859.06,-1053.16 1848.83,-1055.93 1858.55,-1060.14 1859.06,-1053.16"/>
</g>
<!-- 48 -->
<g id="node48" class="node">
<title>48</title>
<ellipse fill="none" stroke="black" cx="1139" cy="-831.98" rx="1078.55" ry="18"/>
<text text-anchor="middle" x="1139" y="-826.93" font-family="Times New Roman,serif" font-size="14.00">Rhetoric: You &#45;&#45; against the atom, the charm and the spin. Where the whole world failed &#45;&#45; matter failed to bend to human will; human will failed to get out of bed and tie its laces &#45;&#45; you alone, single&#45;handedly, will rebuild the dreams of the working class. You are The Last Communist.</text>
</g>
<!-- 44&#45;&gt;48 -->
<g id="edge52" class="edge">
<title>44&#45;&gt;48</title>
<path fill="none" stroke="black" d="M1162.34,-885.68C1158.96,-878.05 1154.91,-868.9 1151.13,-860.38"/>
<polygon fill="black" stroke="black" points="1154.44,-859.2 1147.19,-851.47 1148.04,-862.03 1154.44,-859.2"/>
</g>
<!-- 45&#45;&gt;10 -->
<g id="edge53" class="edge">
<title>45&#45;&gt;10</title>
<path fill="none" stroke="black" d="M2917,-2037.68C2917,-2030.39 2917,-2021.71 2917,-2013.52"/>
<polygon fill="black" stroke="black" points="2920.5,-2013.6 2917,-2003.6 2913.5,-2013.6 2920.5,-2013.6"/>
</g>
<!-- 47 -->
<g id="node47" class="node">
<title>47</title>
<ellipse fill="none" stroke="black" cx="2983" cy="-2127.98" rx="102.53" ry="18"/>
<text text-anchor="middle" x="2983" y="-2122.93" font-family="Times New Roman,serif" font-size="14.00">Rhetoric: Psst, hey, you!</text>
</g>
<!-- 46&#45;&gt;47 -->
<g id="edge54" class="edge">
<title>46&#45;&gt;47</title>
<path fill="none" stroke="black" d="M2974.72,-2181.68C2975.88,-2174.3 2977.26,-2165.51 2978.56,-2157.23"/>
<polygon fill="black" stroke="black" points="2981.98,-2158 2980.08,-2147.58 2975.07,-2156.92 2981.98,-2158"/>
</g>
<!-- 47&#45;&gt;45 -->
<g id="edge55" class="edge">
<title>47&#45;&gt;45</title>
<path fill="none" stroke="black" d="M2967.02,-2110.04C2959.08,-2101.61 2949.32,-2091.26 2940.54,-2081.95"/>
<polygon fill="black" stroke="black" points="2943.27,-2079.75 2933.87,-2074.87 2938.18,-2084.55 2943.27,-2079.75"/>
</g>
<!-- 56 -->
<g id="node56" class="node">
<title>56</title>
<ellipse fill="none" stroke="black" cx="644" cy="-759.98" rx="150.64" ry="18"/>
<text text-anchor="middle" x="644" y="-754.93" font-family="Times New Roman,serif" font-size="14.00">Rhetoric: Now get to work, comrade.</text>
</g>
<!-- 48&#45;&gt;56 -->
<g id="edge56" class="edge">
<title>48&#45;&gt;56</title>
<path fill="none" stroke="black" d="M1016.32,-813.63C934.45,-802.06 827.9,-786.99 749.78,-775.94"/>
<polygon fill="black" stroke="black" points="750.35,-772.49 739.96,-774.55 749.37,-779.42 750.35,-772.49"/>
</g>
<!-- 50 -->
<g id="node50" class="node">
<title>50</title>
<polygon fill="none" stroke="black" points="4653,-633.98 4316.19,-615.98 4653,-597.98 4989.81,-615.98 4653,-633.98"/>
<text text-anchor="middle" x="4653" y="-610.93" font-family="Times New Roman,serif" font-size="14.00">Variable[&quot;plaza.sense_rhetoric_communism_volition_fired&quot;]</text>
</g>
<!-- 49&#45;&gt;50 -->
<g id="edge57" class="edge">
<title>49&#45;&gt;50</title>
<path fill="none" stroke="black" d="M4211.22,-672.01C4309.85,-659.72 4448.32,-642.48 4543.81,-630.58"/>
<polygon fill="black" stroke="black" points="4543.96,-634.09 4553.45,-629.38 4543.09,-627.15 4543.96,-634.09"/>
</g>
<!-- 51 -->
<g id="node51" class="node">
<title>51</title>
<polygon fill="none" stroke="black" points="3948,-633.98 3598.16,-615.98 3948,-597.98 4297.84,-615.98 3948,-633.98"/>
<text text-anchor="middle" x="3948" y="-610.93" font-family="Times New Roman,serif" font-size="14.00">!(Variable[&quot;plaza.sense_rhetoric_communism_volition_fired&quot;])</text>
</g>
<!-- 49&#45;&gt;51 -->
<g id="edge58" class="edge">
<title>49&#45;&gt;51</title>
<path fill="none" stroke="black" d="M4056.02,-669.86C4036.21,-660.16 4011.3,-647.97 3990.39,-637.73"/>
<polygon fill="black" stroke="black" points="3992.06,-634.65 3981.53,-633.4 3988.98,-640.94 3992.06,-634.65"/>
</g>
<!-- 50&#45;&gt;19 -->
<g id="edge60" class="edge">
<title>50&#45;&gt;19</title>
<path fill="none" stroke="black" d="M4666.58,-598.28C4689.71,-567.65 4731.51,-501.34 4702,-453.98 4693.78,-440.79 4681.21,-430.79 4667.51,-423.24"/>
<polygon fill="black" stroke="black" points="4669.25,-420.19 4658.74,-418.84 4666.11,-426.45 4669.25,-420.19"/>
</g>
<!-- 50&#45;&gt;33 -->
<g id="edge59" class="edge">
<title>50&#45;&gt;33</title>
<path fill="none" stroke="black" d="M4626,-599.1C4609.91,-589.64 4589.26,-577.49 4571.59,-567.1"/>
<polygon fill="black" stroke="black" points="4573.84,-564.36 4563.44,-562.3 4570.29,-570.39 4573.84,-564.36"/>
</g>
<!-- 51&#45;&gt;37 -->
<g id="edge61" class="edge">
<title>51&#45;&gt;37</title>
<path fill="none" stroke="black" d="M3947.26,-597.68C3946.95,-590.39 3946.57,-581.71 3946.22,-573.52"/>
<polygon fill="black" stroke="black" points="3949.72,-573.44 3945.8,-563.6 3942.73,-573.74 3949.72,-573.44"/>
</g>
<!-- 52&#45;&gt;6 -->
<g id="edge63" class="edge">
<title>52&#45;&gt;6</title>
<path fill="none" stroke="black" d="M3655.17,-237.68C3635.48,-228.43 3611.04,-216.95 3590,-207.06"/>
<polygon fill="black" stroke="black" points="3591.57,-203.94 3581.04,-202.85 3588.6,-210.27 3591.57,-203.94"/>
</g>
<!-- 52&#45;&gt;38 -->
<g id="edge62" class="edge">
<title>52&#45;&gt;38</title>
<path fill="none" stroke="black" d="M3751.73,-238.03C3775.09,-229.58 3801.21,-217.73 3822,-201.98 3865.09,-169.33 3909.4,-138 3878,-93.98 3868.16,-80.19 3855.14,-69.33 3840.55,-60.8"/>
<polygon fill="black" stroke="black" points="3842.55,-57.9 3832.08,-56.24 3839.23,-64.07 3842.55,-57.9"/>
</g>
<!-- 53&#45;&gt;54 -->
<g id="edge64" class="edge">
<title>53&#45;&gt;54</title>
<path fill="none" stroke="black" d="M3742.8,-1318.08C3619.68,-1303.45 3447.57,-1283 3357.11,-1272.25"/>
<polygon fill="black" stroke="black" points="3357.54,-1268.77 3347.2,-1271.07 3356.71,-1275.72 3357.54,-1268.77"/>
</g>
<!-- 54&#45;&gt;8 -->
<g id="edge65" class="edge">
<title>54&#45;&gt;8</title>
<path fill="none" stroke="black" d="M3254.39,-1252.35C3213.03,-1241.79 3148.66,-1225.34 3098.14,-1212.43"/>
<polygon fill="black" stroke="black" points="3099.28,-1209.11 3088.73,-1210.03 3097.55,-1215.9 3099.28,-1209.11"/>
</g>
<!-- 54&#45;&gt;22 -->
<g id="edge66" class="edge">
<title>54&#45;&gt;22</title>
<path fill="none" stroke="black" d="M3346.62,-1257.92C3447.37,-1247.85 3676.8,-1224.9 3834.11,-1209.17"/>
<polygon fill="black" stroke="black" points="3834.2,-1212.68 3843.8,-1208.2 3833.5,-1205.72 3834.2,-1212.68"/>
</g>
<!-- 54&#45;&gt;23 -->
<g id="edge67" class="edge">
<title>54&#45;&gt;23</title>
<path fill="none" stroke="black" d="M3347.86,-1259.11C3427.29,-1250.04 3570,-1219.97 3570,-1120.98 3570,-1120.98 3570,-1120.98 3570,-470.98 3570,-419.37 3616.95,-377.14 3652.6,-352.52"/>
<polygon fill="black" stroke="black" points="3654.21,-355.66 3660.58,-347.19 3650.32,-349.83 3654.21,-355.66"/>
</g>
<!-- 55&#45;&gt;25 -->
<g id="edge68" class="edge">
<title>55&#45;&gt;25</title>
<path fill="none" stroke="black" d="M3466,-1605.68C3466,-1598.39 3466,-1589.71 3466,-1581.52"/>
<polygon fill="black" stroke="black" points="3469.5,-1581.6 3466,-1571.6 3462.5,-1581.6 3469.5,-1581.6"/>
</g>
<!-- 56&#45;&gt;31 -->
<g id="edge69" class="edge">
<title>56&#45;&gt;31</title>
<path fill="none" stroke="black" d="M570.88,-743.79C514.43,-732.07 436.7,-715.92 380.24,-704.19"/>
<polygon fill="black" stroke="black" points="381.22,-700.83 370.72,-702.22 379.8,-707.68 381.22,-700.83"/>
</g>
<!-- 57&#45;&gt;53 -->
<g id="edge70" class="edge">
<title>57&#45;&gt;53</title>
<path fill="none" stroke="black" d="M3569.57,-1389.68C3630.73,-1379.46 3708.22,-1366.52 3771.1,-1356.01"/>
<polygon fill="black" stroke="black" points="3771.48,-1359.5 3780.76,-1354.4 3770.32,-1352.59 3771.48,-1359.5"/>
</g>
</g>
</svg>
