<?xml version="1.0" encoding="UTF-8" standalone="no"?>
<!DOCTYPE svg PUBLIC "-//W3C//DTD SVG 1.1//EN"
 "http://www.w3.org/Graphics/SVG/1.1/DTD/svg11.dtd">
<!-- Generated by graphviz version 12.2.1 (20241206.2353)
 -->
<!-- Title: G Pages: 1 -->
<svg width="7293pt" height="1556pt"
 viewBox="0.00 0.00 7292.81 1556.00" xmlns="http://www.w3.org/2000/svg" xmlns:xlink="http://www.w3.org/1999/xlink">
<g id="graph0" class="graph" transform="scale(1 1) rotate(0) translate(4 1552)">
<title>G</title>
<polygon fill="white" stroke="none" points="-4,4 -4,-1552 7288.81,-1552 7288.81,4 -4,4"/>
<!-- 0 -->
<g id="node1" class="node">
<title>0</title>
<ellipse fill="none" stroke="black" cx="1530" cy="-1530" rx="39.07" ry="18"/>
<text text-anchor="middle" x="1530" y="-1524.95" font-family="Times New Roman,serif" font-size="14.00">START</text>
</g>
<!-- 1 -->
<g id="node2" class="node">
<title>1</title>
<ellipse fill="none" stroke="black" cx="1530" cy="-1458" rx="29.86" ry="18"/>
<text text-anchor="middle" x="1530" y="-1452.95" font-family="Times New Roman,serif" font-size="14.00">input</text>
</g>
<!-- 0&#45;&gt;1 -->
<g id="edge1" class="edge">
<title>0&#45;&gt;1</title>
<path fill="none" stroke="black" d="M1530,-1511.7C1530,-1504.41 1530,-1495.73 1530,-1487.54"/>
<polygon fill="black" stroke="black" points="1533.5,-1487.62 1530,-1477.62 1526.5,-1487.62 1533.5,-1487.62"/>
</g>
<!-- 28 -->
<g id="node29" class="node">
<title>28</title>
<ellipse fill="none" stroke="black" cx="1530" cy="-1386" rx="125.56" ry="18"/>
<text text-anchor="middle" x="1530" y="-1380.95" font-family="Times New Roman,serif" font-size="14.00">CheckEquipped(&quot;shoes_t500&quot;)</text>
</g>
<!-- 1&#45;&gt;28 -->
<g id="edge2" class="edge">
<title>1&#45;&gt;28</title>
<path fill="none" stroke="black" d="M1530,-1439.7C1530,-1432.41 1530,-1423.73 1530,-1415.54"/>
<polygon fill="black" stroke="black" points="1533.5,-1415.62 1530,-1405.62 1526.5,-1415.62 1533.5,-1415.62"/>
</g>
<!-- 2 -->
<g id="node3" class="node">
<title>2</title>
<ellipse fill="none" stroke="black" cx="2463" cy="-1026" rx="471.55" ry="18"/>
<text text-anchor="middle" x="2463" y="-1020.95" font-family="Times New Roman,serif" font-size="14.00">Visual Calculus: The white ceramic cuirass hugs your torso, shielding your vitals without adding much bulk to your form...</text>
</g>
<!-- 5 -->
<g id="node6" class="node">
<title>5</title>
<ellipse fill="none" stroke="black" cx="3039" cy="-954" rx="530.92" ry="18"/>
<text text-anchor="middle" x="3039" y="-948.95" font-family="Times New Roman,serif" font-size="14.00">Perception (Hearing): Your movements cause tiny little clicks, like dice rolling somewhere far away, as the plates reorient to your motions.</text>
</g>
<!-- 2&#45;&gt;5 -->
<g id="edge3" class="edge">
<title>2&#45;&gt;5</title>
<path fill="none" stroke="black" d="M2600.23,-1008.32C2687.19,-997.75 2799.68,-984.08 2888.99,-973.23"/>
<polygon fill="black" stroke="black" points="2889.31,-976.72 2898.81,-972.04 2888.46,-969.77 2889.31,-976.72"/>
</g>
<!-- 3 -->
<g id="node4" class="node">
<title>3</title>
<ellipse fill="none" stroke="black" cx="1849" cy="-450" rx="564.69" ry="18"/>
<text text-anchor="middle" x="1849" y="-444.95" font-family="Times New Roman,serif" font-size="14.00">Visual Calculus: Certainly, but you may want to hold on to the armour you have for long enough to properly analyse it, figure out its vulnerabilities.</text>
</g>
<!-- 21 -->
<g id="node22" class="node">
<title>21</title>
<ellipse fill="none" stroke="black" cx="1283" cy="-306" rx="89.23" ry="18"/>
<text text-anchor="middle" x="1283" y="-300.95" font-family="Times New Roman,serif" font-size="14.00">You: Vulnerabilities?</text>
</g>
<!-- 3&#45;&gt;21 -->
<g id="edge4" class="edge">
<title>3&#45;&gt;21</title>
<path fill="none" stroke="black" d="M1833.69,-431.74C1813.91,-410.73 1777.32,-376.08 1738,-360 1590.39,-299.64 1538.99,-345.64 1381,-324 1373.78,-323.01 1366.28,-321.89 1358.79,-320.7"/>
<polygon fill="black" stroke="black" points="1359.4,-317.25 1348.96,-319.1 1358.27,-324.16 1359.4,-317.25"/>
</g>
<!-- 4 -->
<g id="node5" class="node">
<title>4</title>
<ellipse fill="none" stroke="black" cx="2103" cy="-90" rx="653.24" ry="18"/>
<text text-anchor="middle" x="2103" y="-84.95" font-family="Times New Roman,serif" font-size="14.00">Visual Calculus: Remember, this is a highly specialized kinetic re&#45;distributor meant to stop bullets. Wear it, observe its properties. See if there&#39;s a *weakness* in the design.</text>
</g>
<!-- 61 -->
<g id="node62" class="node">
<title>61</title>
<ellipse fill="none" stroke="black" cx="1412" cy="-18" rx="27" ry="18"/>
<text text-anchor="middle" x="1412" y="-12.95" font-family="Times New Roman,serif" font-size="14.00">61</text>
</g>
<!-- 4&#45;&gt;61 -->
<g id="edge5" class="edge">
<title>4&#45;&gt;61</title>
<path fill="none" stroke="black" d="M1936.6,-72.14C1774.94,-55.77 1540.96,-32.06 1450.08,-22.86"/>
<polygon fill="black" stroke="black" points="1450.53,-19.39 1440.23,-21.86 1449.83,-26.35 1450.53,-19.39"/>
</g>
<!-- 38 -->
<g id="node39" class="node">
<title>38</title>
<ellipse fill="none" stroke="black" cx="3676" cy="-882" rx="187.49" ry="18"/>
<text text-anchor="middle" x="3676" y="-876.95" font-family="Times New Roman,serif" font-size="14.00">Variable[&quot;TASK.report_to_the_tribunal_done&quot;]</text>
</g>
<!-- 5&#45;&gt;38 -->
<g id="edge6" class="edge">
<title>5&#45;&gt;38</title>
<path fill="none" stroke="black" d="M3191.17,-936.28C3298.83,-924.45 3441.73,-908.74 3544.47,-897.45"/>
<polygon fill="black" stroke="black" points="3544.78,-900.94 3554.34,-896.37 3544.02,-893.98 3544.78,-900.94"/>
</g>
<!-- 6 -->
<g id="node7" class="node">
<title>6</title>
<ellipse fill="none" stroke="black" cx="985" cy="-594" rx="170.6" ry="18"/>
<text text-anchor="middle" x="985" y="-588.95" font-family="Times New Roman,serif" font-size="14.00">Variable[&quot;TASK.find_one_armour_piece&quot;]</text>
</g>
<!-- 7 -->
<g id="node8" class="node">
<title>7</title>
<polygon fill="none" stroke="black" points="1254,-540 1012.73,-522 1254,-504 1495.26,-522 1254,-540"/>
<text text-anchor="middle" x="1254" y="-516.95" font-family="Times New Roman,serif" font-size="14.00">Variable[&quot;TASK.find_one_armour_piece&quot;]</text>
</g>
<!-- 6&#45;&gt;7 -->
<g id="edge8" class="edge">
<title>6&#45;&gt;7</title>
<path fill="none" stroke="black" d="M1047.05,-576.85C1090.15,-565.64 1147.41,-550.74 1190.77,-539.45"/>
<polygon fill="black" stroke="black" points="1191.5,-542.88 1200.29,-536.97 1189.74,-536.11 1191.5,-542.88"/>
</g>
<!-- 8 -->
<g id="node9" class="node">
<title>8</title>
<polygon fill="none" stroke="black" points="703,-540 448.7,-522 703,-504 957.29,-522 703,-540"/>
<text text-anchor="middle" x="703" y="-516.95" font-family="Times New Roman,serif" font-size="14.00">!(Variable[&quot;TASK.find_one_armour_piece&quot;])</text>
</g>
<!-- 6&#45;&gt;8 -->
<g id="edge7" class="edge">
<title>6&#45;&gt;8</title>
<path fill="none" stroke="black" d="M920.3,-576.94C874.78,-565.64 814.08,-550.57 768.41,-539.24"/>
<polygon fill="black" stroke="black" points="769.45,-535.89 758.9,-536.88 767.76,-542.68 769.45,-535.89"/>
</g>
<!-- 57 -->
<g id="node58" class="node">
<title>57</title>
<ellipse fill="none" stroke="black" cx="1209" cy="-450" rx="57.49" ry="18"/>
<text text-anchor="middle" x="1209" y="-444.95" font-family="Times New Roman,serif" font-size="14.00">Untitled hub</text>
</g>
<!-- 7&#45;&gt;57 -->
<g id="edge9" class="edge">
<title>7&#45;&gt;57</title>
<path fill="none" stroke="black" d="M1243.33,-504.41C1238.14,-496.34 1231.77,-486.43 1225.94,-477.35"/>
<polygon fill="black" stroke="black" points="1229.07,-475.75 1220.71,-469.23 1223.18,-479.53 1229.07,-475.75"/>
</g>
<!-- 52 -->
<g id="node53" class="node">
<title>52</title>
<ellipse fill="none" stroke="black" cx="703" cy="-450" rx="135.8" ry="18"/>
<text text-anchor="middle" x="703" y="-444.95" font-family="Times New Roman,serif" font-size="14.00">You: Yeah, I *want* the full suit!</text>
</g>
<!-- 8&#45;&gt;52 -->
<g id="edge10" class="edge">
<title>8&#45;&gt;52</title>
<path fill="none" stroke="black" d="M703,-503.7C703,-496.41 703,-487.73 703,-479.54"/>
<polygon fill="black" stroke="black" points="706.5,-479.62 703,-469.62 699.5,-479.62 706.5,-479.62"/>
</g>
<!-- 9 -->
<g id="node10" class="node">
<title>9</title>
<ellipse fill="none" stroke="black" cx="2964" cy="-450" rx="494.07" ry="18"/>
<text text-anchor="middle" x="2964" y="-444.95" font-family="Times New Roman,serif" font-size="14.00">Visual Calculus: Two? Are you sure you&#39;re correct there? There was a helmet too. Three pieces more like. You were *ambitious*.</text>
</g>
<!-- 12 -->
<g id="node13" class="node">
<title>12</title>
<ellipse fill="none" stroke="black" cx="3690" cy="-378" rx="363.55" ry="18"/>
<text text-anchor="middle" x="3690" y="-372.95" font-family="Times New Roman,serif" font-size="14.00">You: I remember a feeling &#45;&#45; being worried about crossing paths with someone in this armour.</text>
</g>
<!-- 9&#45;&gt;12 -->
<g id="edge12" class="edge">
<title>9&#45;&gt;12</title>
<path fill="none" stroke="black" d="M3133.75,-432.63C3249.15,-421.51 3401.31,-406.83 3517.32,-395.65"/>
<polygon fill="black" stroke="black" points="3517.31,-399.17 3526.92,-394.72 3516.64,-392.2 3517.31,-399.17"/>
</g>
<!-- 27 -->
<g id="node28" class="node">
<title>27</title>
<ellipse fill="none" stroke="black" cx="2461" cy="-378" rx="367.14" ry="18"/>
<text text-anchor="middle" x="2461" y="-372.95" font-family="Times New Roman,serif" font-size="14.00">You: This is the long sought after *enemy technology*. I can&#39;t just enjoy it &#45;&#45; I must *study* it.</text>
</g>
<!-- 9&#45;&gt;27 -->
<g id="edge11" class="edge">
<title>9&#45;&gt;27</title>
<path fill="none" stroke="black" d="M2842.55,-432.1C2766.49,-421.51 2668.53,-407.88 2590.91,-397.08"/>
<polygon fill="black" stroke="black" points="2591.5,-393.63 2581.11,-395.72 2590.54,-400.56 2591.5,-393.63"/>
</g>
<!-- 53 -->
<g id="node54" class="node">
<title>53</title>
<ellipse fill="none" stroke="black" cx="2964" cy="-522" rx="196.19" ry="18"/>
<text text-anchor="middle" x="2964" y="-516.95" font-family="Times New Roman,serif" font-size="14.00">You: One down &#45;&#45; two pieces to go. Here I come.</text>
</g>
<!-- 9&#45;&gt;53 -->
<g id="edge13" class="edge">
<title>9&#45;&gt;53</title>
<path fill="none" stroke="black" d="M2969.89,-468.1C2970.65,-475.37 2970.9,-484.04 2970.65,-492.24"/>
<polygon fill="black" stroke="black" points="2967.16,-491.98 2970.01,-502.19 2974.14,-492.43 2967.16,-491.98"/>
</g>
<!-- 10 -->
<g id="node11" class="node">
<title>10</title>
<ellipse fill="none" stroke="black" cx="5112" cy="-450" rx="272.96" ry="18"/>
<text text-anchor="middle" x="5112" y="-444.95" font-family="Times New Roman,serif" font-size="14.00">Visual Calculus: Well, it&#39;s a bit late to think about all this now, isn&#39;t it?</text>
</g>
<!-- 14 -->
<g id="node15" class="node">
<title>14</title>
<ellipse fill="none" stroke="black" cx="5112" cy="-378" rx="99.46" ry="18"/>
<text text-anchor="middle" x="5112" y="-372.95" font-family="Times New Roman,serif" font-size="14.00">You: [Discard thought.]</text>
</g>
<!-- 10&#45;&gt;14 -->
<g id="edge15" class="edge">
<title>10&#45;&gt;14</title>
<path fill="none" stroke="black" d="M5112,-431.7C5112,-424.41 5112,-415.73 5112,-407.54"/>
<polygon fill="black" stroke="black" points="5115.5,-407.62 5112,-397.62 5108.5,-407.62 5115.5,-407.62"/>
</g>
<!-- 56 -->
<g id="node57" class="node">
<title>56</title>
<ellipse fill="none" stroke="black" cx="4696" cy="-738" rx="723.87" ry="18"/>
<text text-anchor="middle" x="4696" y="-732.95" font-family="Times New Roman,serif" font-size="14.00">Visual Calculus: The hardened vitreous enamel, at once sleek and voluptuous, adds a glow to your cheeks and a spring to your step. Just imagine what a full suit of this stuff could do for you!</text>
</g>
<!-- 10&#45;&gt;56 -->
<g id="edge14" class="edge">
<title>10&#45;&gt;56</title>
<path fill="none" stroke="black" d="M5317.99,-462.09C5380.04,-473.72 5423.95,-496.4 5391,-540 5323.72,-628.99 5014.32,-689.43 4831.8,-718.03"/>
<polygon fill="black" stroke="black" points="4831.35,-714.56 4822,-719.55 4832.42,-721.47 4831.35,-714.56"/>
</g>
<!-- 11 -->
<g id="node12" class="node">
<title>11</title>
<ellipse fill="none" stroke="black" cx="3615" cy="-1026" rx="662.45" ry="18"/>
<text text-anchor="middle" x="3615" y="-1020.95" font-family="Times New Roman,serif" font-size="14.00">Visual Calculus: As you fold your fingers into a fist, you realize you could knock anyone out with one punch... the white ceramic gloves wrap around your digits comfortably.</text>
</g>
<!-- 11&#45;&gt;5 -->
<g id="edge16" class="edge">
<title>11&#45;&gt;5</title>
<path fill="none" stroke="black" d="M3474.46,-1007.92C3387.91,-997.4 3277.03,-983.93 3188.81,-973.21"/>
<polygon fill="black" stroke="black" points="3189.48,-969.76 3179.13,-972.03 3188.63,-976.71 3189.48,-969.76"/>
</g>
<!-- 47 -->
<g id="node48" class="node">
<title>47</title>
<ellipse fill="none" stroke="black" cx="3717" cy="-306" rx="389.66" ry="18"/>
<text text-anchor="middle" x="3717" y="-300.95" font-family="Times New Roman,serif" font-size="14.00">Composure: You really do feel more confident. Invulnerability does that. Even partial invulnerability.</text>
</g>
<!-- 12&#45;&gt;47 -->
<g id="edge17" class="edge">
<title>12&#45;&gt;47</title>
<path fill="none" stroke="black" d="M3696.67,-359.7C3699.58,-352.15 3703.06,-343.12 3706.32,-334.68"/>
<polygon fill="black" stroke="black" points="3709.52,-336.11 3709.85,-325.52 3702.99,-333.59 3709.52,-336.11"/>
</g>
<!-- 13 -->
<g id="node14" class="node">
<title>13</title>
<ellipse fill="none" stroke="black" cx="1991" cy="-522" rx="353.83" ry="18"/>
<text text-anchor="middle" x="1991" y="-516.95" font-family="Times New Roman,serif" font-size="14.00">You: This gear could line my pockets with cash. I could probably sell it to some other cops.</text>
</g>
<!-- 13&#45;&gt;3 -->
<g id="edge18" class="edge">
<title>13&#45;&gt;3</title>
<path fill="none" stroke="black" d="M1955.89,-503.7C1937.29,-494.53 1914.22,-483.16 1894.29,-473.33"/>
<polygon fill="black" stroke="black" points="1896.06,-470.3 1885.54,-469.02 1892.96,-476.58 1896.06,-470.3"/>
</g>
<!-- 15 -->
<g id="node16" class="node">
<title>15</title>
<ellipse fill="none" stroke="black" cx="5309" cy="-306" rx="440.33" ry="18"/>
<text text-anchor="middle" x="5309" y="-300.95" font-family="Times New Roman,serif" font-size="14.00">Variable[&quot;TASK.find_one_armour_piece&quot;] == true &#160;and &#160;Variable[&quot;TASK.find_one_armour_piece_done&quot;] == false</text>
</g>
<!-- 14&#45;&gt;15 -->
<g id="edge19" class="edge">
<title>14&#45;&gt;15</title>
<path fill="none" stroke="black" d="M5155.72,-361.46C5183.28,-351.67 5219.23,-338.9 5249.39,-328.18"/>
<polygon fill="black" stroke="black" points="5250.53,-331.49 5258.78,-324.84 5248.19,-324.89 5250.53,-331.49"/>
</g>
<!-- 16 -->
<g id="node17" class="node">
<title>16</title>
<polygon fill="none" stroke="black" points="5947,-252 5324.28,-234 5947,-216 6569.71,-234 5947,-252"/>
<text text-anchor="middle" x="5947" y="-228.95" font-family="Times New Roman,serif" font-size="14.00">Variable[&quot;TASK.find_one_armour_piece&quot;] == true &#160;and &#160;Variable[&quot;TASK.find_one_armour_piece_done&quot;] == false</text>
</g>
<!-- 15&#45;&gt;16 -->
<g id="edge20" class="edge">
<title>15&#45;&gt;16</title>
<path fill="none" stroke="black" d="M5458.18,-288.63C5564.41,-276.98 5706.12,-261.43 5809.6,-250.07"/>
<polygon fill="black" stroke="black" points="5809.69,-253.59 5819.25,-249.02 5808.93,-246.63 5809.69,-253.59"/>
</g>
<!-- 17 -->
<g id="node18" class="node">
<title>17</title>
<polygon fill="none" stroke="black" points="4671,-252 4035.25,-234 4671,-216 5306.74,-234 4671,-252"/>
<text text-anchor="middle" x="4671" y="-228.95" font-family="Times New Roman,serif" font-size="14.00">!(Variable[&quot;TASK.find_one_armour_piece&quot;] == true &#160;and &#160;Variable[&quot;TASK.find_one_armour_piece_done&quot;] == false)</text>
</g>
<!-- 15&#45;&gt;17 -->
<g id="edge21" class="edge">
<title>15&#45;&gt;17</title>
<path fill="none" stroke="black" d="M5159.82,-288.63C5053.75,-277 4912.34,-261.48 4808.91,-250.13"/>
<polygon fill="black" stroke="black" points="4809.58,-246.68 4799.26,-249.07 4808.82,-253.64 4809.58,-246.68"/>
</g>
<!-- 33 -->
<g id="node34" class="node">
<title>33</title>
<ellipse fill="none" stroke="black" cx="5947" cy="-162" rx="370.72" ry="18"/>
<text text-anchor="middle" x="5947" y="-156.95" font-family="Times New Roman,serif" font-size="14.00">Visual Calculus: Well, you found that one piece you were after, anyway. Don&#39;t forget to enjoy it!</text>
</g>
<!-- 16&#45;&gt;33 -->
<g id="edge22" class="edge">
<title>16&#45;&gt;33</title>
<path fill="none" stroke="black" d="M5947,-215.7C5947,-208.41 5947,-199.73 5947,-191.54"/>
<polygon fill="black" stroke="black" points="5950.5,-191.62 5947,-181.62 5943.5,-191.62 5950.5,-191.62"/>
</g>
<!-- 18 -->
<g id="node19" class="node">
<title>18</title>
<ellipse fill="none" stroke="black" cx="1757" cy="-234" rx="188.52" ry="18"/>
<text text-anchor="middle" x="1757" y="-228.95" font-family="Times New Roman,serif" font-size="14.00">Variable[&quot;yard.hanged_technologic_advanced&quot;]</text>
</g>
<!-- 19 -->
<g id="node20" class="node">
<title>19</title>
<polygon fill="none" stroke="black" points="1930,-180 1663.39,-162 1930,-144 2196.6,-162 1930,-180"/>
<text text-anchor="middle" x="1930" y="-156.95" font-family="Times New Roman,serif" font-size="14.00">Variable[&quot;yard.hanged_technologic_advanced&quot;]</text>
</g>
<!-- 18&#45;&gt;19 -->
<g id="edge23" class="edge">
<title>18&#45;&gt;19</title>
<path fill="none" stroke="black" d="M1798.87,-216.05C1824.19,-205.81 1856.52,-192.73 1882.74,-182.12"/>
<polygon fill="black" stroke="black" points="1883.84,-185.45 1891.8,-178.46 1881.21,-178.96 1883.84,-185.45"/>
</g>
<!-- 20 -->
<g id="node21" class="node">
<title>20</title>
<polygon fill="none" stroke="black" points="1066,-180 786.36,-162 1066,-144 1345.63,-162 1066,-180"/>
<text text-anchor="middle" x="1066" y="-156.95" font-family="Times New Roman,serif" font-size="14.00">!(Variable[&quot;yard.hanged_technologic_advanced&quot;])</text>
</g>
<!-- 18&#45;&gt;20 -->
<g id="edge24" class="edge">
<title>18&#45;&gt;20</title>
<path fill="none" stroke="black" d="M1631.06,-220.24C1503.37,-207.31 1307.37,-187.45 1182.99,-174.85"/>
<polygon fill="black" stroke="black" points="1183.37,-171.37 1173.07,-173.85 1182.66,-178.34 1183.37,-171.37"/>
</g>
<!-- 19&#45;&gt;4 -->
<g id="edge25" class="edge">
<title>19&#45;&gt;4</title>
<path fill="none" stroke="black" d="M1966.68,-146.15C1990.76,-136.41 2022.66,-123.51 2049.54,-112.63"/>
<polygon fill="black" stroke="black" points="2050.59,-115.98 2058.54,-108.99 2047.96,-109.49 2050.59,-115.98"/>
</g>
<!-- 23 -->
<g id="node24" class="node">
<title>23</title>
<ellipse fill="none" stroke="black" cx="721" cy="-90" rx="710.56" ry="18"/>
<text text-anchor="middle" x="721" y="-84.95" font-family="Times New Roman,serif" font-size="14.00">Visual Calculus: Remember, the vitreous enamel material acts as a kinetic re&#45;distributor. It&#39;s meant to stop bullets. Wear it, observe its properties. See if there&#39;s a *weakness* in the design.</text>
</g>
<!-- 20&#45;&gt;23 -->
<g id="edge26" class="edge">
<title>20&#45;&gt;23</title>
<path fill="none" stroke="black" d="M1000.7,-147.75C948.94,-137.25 875.86,-122.42 817.38,-110.56"/>
<polygon fill="black" stroke="black" points="818.24,-107.16 807.75,-108.6 816.85,-114.02 818.24,-107.16"/>
</g>
<!-- 21&#45;&gt;18 -->
<g id="edge27" class="edge">
<title>21&#45;&gt;18</title>
<path fill="none" stroke="black" d="M1348.31,-293.37C1359.22,-291.52 1370.42,-289.66 1381,-288 1467.1,-274.47 1564.55,-260.78 1638.67,-250.7"/>
<polygon fill="black" stroke="black" points="1638.96,-254.19 1648.39,-249.38 1638.01,-247.26 1638.96,-254.19"/>
</g>
<!-- 22 -->
<g id="node23" class="node">
<title>22</title>
<ellipse fill="none" stroke="black" cx="5507" cy="-378" rx="113.79" ry="18"/>
<text text-anchor="middle" x="5507" y="-372.95" font-family="Times New Roman,serif" font-size="14.00">Visual Calculus: I guess so.</text>
</g>
<!-- 22&#45;&gt;15 -->
<g id="edge28" class="edge">
<title>22&#45;&gt;15</title>
<path fill="none" stroke="black" d="M5462.07,-361.12C5434.43,-351.34 5398.67,-338.7 5368.67,-328.1"/>
<polygon fill="black" stroke="black" points="5369.93,-324.83 5359.33,-324.8 5367.6,-331.43 5369.93,-324.83"/>
</g>
<!-- 23&#45;&gt;61 -->
<g id="edge29" class="edge">
<title>23&#45;&gt;61</title>
<path fill="none" stroke="black" d="M888.27,-72.05C1049.96,-55.67 1283.38,-32.03 1374.01,-22.85"/>
<polygon fill="black" stroke="black" points="1374.24,-26.34 1383.83,-21.85 1373.53,-19.38 1374.24,-26.34"/>
</g>
<!-- 24 -->
<g id="node25" class="node">
<title>24</title>
<ellipse fill="none" stroke="black" cx="3076" cy="-306" rx="184.93" ry="18"/>
<text text-anchor="middle" x="3076" y="-300.95" font-family="Times New Roman,serif" font-size="14.00">Jump to: [yard.hanged_technologic_advanced]</text>
</g>
<!-- 24&#45;&gt;18 -->
<g id="edge30" class="edge">
<title>24&#45;&gt;18</title>
<path fill="none" stroke="black" d="M2922.22,-295.67C2879.12,-293.11 2832.23,-290.39 2789,-288 2488.37,-271.38 2138.38,-253.77 1932.95,-243.62"/>
<polygon fill="black" stroke="black" points="1933.13,-240.12 1922.97,-243.12 1932.78,-247.11 1933.13,-240.12"/>
</g>
<!-- 25 -->
<g id="node26" class="node">
<title>25</title>
<ellipse fill="none" stroke="black" cx="4063" cy="-594" rx="80.01" ry="18"/>
<text text-anchor="middle" x="4063" y="-588.95" font-family="Times New Roman,serif" font-size="14.00">armourthoughthub</text>
</g>
<!-- 25&#45;&gt;12 -->
<g id="edge31" class="edge">
<title>25&#45;&gt;12</title>
<path fill="none" stroke="black" d="M4064.59,-575.66C4066.6,-542.44 4065.73,-469.8 4025,-432 4006,-414.38 3960.49,-402.61 3908.93,-394.75"/>
<polygon fill="black" stroke="black" points="3909.74,-391.33 3899.34,-393.35 3908.73,-398.26 3909.74,-391.33"/>
</g>
<!-- 25&#45;&gt;13 -->
<g id="edge32" class="edge">
<title>25&#45;&gt;13</title>
<path fill="none" stroke="black" d="M3983.87,-590.62C3747.54,-583.46 3026.15,-561.33 2428,-540 2378.25,-538.23 2325.32,-536.25 2274.1,-534.28"/>
<polygon fill="black" stroke="black" points="2274.49,-530.79 2264.37,-533.91 2274.22,-537.79 2274.49,-530.79"/>
</g>
<!-- 25&#45;&gt;27 -->
<g id="edge35" class="edge">
<title>25&#45;&gt;27</title>
<path fill="none" stroke="black" d="M3983.06,-591.81C3737.64,-587.82 2997.28,-573.3 2759,-540 2624.05,-521.14 2545.27,-575.06 2461,-468 2447.78,-451.21 2448.84,-426.59 2452.61,-407.49"/>
<polygon fill="black" stroke="black" points="2455.98,-408.45 2454.86,-397.91 2449.17,-406.85 2455.98,-408.45"/>
</g>
<!-- 25&#45;&gt;53 -->
<g id="edge33" class="edge">
<title>25&#45;&gt;53</title>
<path fill="none" stroke="black" d="M3987.02,-588.16C3811.74,-577 3375.53,-549.21 3133.14,-533.77"/>
<polygon fill="black" stroke="black" points="3133.46,-530.29 3123.26,-533.14 3133.02,-537.27 3133.46,-530.29"/>
</g>
<!-- 54 -->
<g id="node55" class="node">
<title>54</title>
<ellipse fill="none" stroke="black" cx="5077" cy="-522" rx="305.21" ry="18"/>
<text text-anchor="middle" x="5077" y="-516.95" font-family="Times New Roman,serif" font-size="14.00">Visual Calculus: As your head is ensconced in the ceramic helm, you realize &#45;&#45;</text>
</g>
<!-- 25&#45;&gt;54 -->
<g id="edge34" class="edge">
<title>25&#45;&gt;54</title>
<path fill="none" stroke="black" d="M4138.8,-587.77C4292.64,-577.15 4646.1,-552.75 4872.56,-537.11"/>
<polygon fill="black" stroke="black" points="4872.67,-540.61 4882.41,-536.43 4872.19,-533.63 4872.67,-540.61"/>
</g>
<!-- 60 -->
<g id="node61" class="node">
<title>60</title>
<ellipse fill="none" stroke="black" cx="4432" cy="-522" rx="321.59" ry="18"/>
<text text-anchor="middle" x="4432" y="-516.95" font-family="Times New Roman,serif" font-size="14.00">Half Light: For the day you have to *fight* someone covered in the same material.</text>
</g>
<!-- 25&#45;&gt;60 -->
<g id="edge36" class="edge">
<title>25&#45;&gt;60</title>
<path fill="none" stroke="black" d="M4122.69,-581.68C4179.4,-570.92 4265.72,-554.54 4332.78,-541.82"/>
<polygon fill="black" stroke="black" points="4333.13,-545.32 4342.3,-540.01 4331.83,-538.44 4333.13,-545.32"/>
</g>
<!-- 26 -->
<g id="node27" class="node">
<title>26</title>
<ellipse fill="none" stroke="black" cx="703" cy="-378" rx="549.85" ry="18"/>
<text text-anchor="middle" x="703" y="-372.95" font-family="Times New Roman,serif" font-size="14.00">Visual Calculus: It may be a while before you have all the pieces. In the meantime, you should analyse the armour, figure out its vulnerabilities.</text>
</g>
<!-- 26&#45;&gt;21 -->
<g id="edge37" class="edge">
<title>26&#45;&gt;21</title>
<path fill="none" stroke="black" d="M842.66,-360.14C952.87,-346.84 1103.11,-328.71 1196.53,-317.44"/>
<polygon fill="black" stroke="black" points="1196.91,-320.92 1206.41,-316.24 1196.07,-313.97 1196.91,-320.92"/>
</g>
<!-- 32 -->
<g id="node33" class="node">
<title>32</title>
<ellipse fill="none" stroke="black" cx="2461" cy="-306" rx="318.52" ry="18"/>
<text text-anchor="middle" x="2461" y="-300.95" font-family="Times New Roman,serif" font-size="14.00">Visual Calculus: Yes. You should analyse the armour, figure out its vulnerabilities.</text>
</g>
<!-- 27&#45;&gt;32 -->
<g id="edge38" class="edge">
<title>27&#45;&gt;32</title>
<path fill="none" stroke="black" d="M2461,-359.7C2461,-352.41 2461,-343.73 2461,-335.54"/>
<polygon fill="black" stroke="black" points="2464.5,-335.62 2461,-325.62 2457.5,-335.62 2464.5,-335.62"/>
</g>
<!-- 29 -->
<g id="node30" class="node">
<title>29</title>
<polygon fill="none" stroke="black" points="1337,-1332 1159.42,-1314 1337,-1296 1514.57,-1314 1337,-1332"/>
<text text-anchor="middle" x="1337" y="-1308.95" font-family="Times New Roman,serif" font-size="14.00">CheckEquipped(&quot;shoes_t500&quot;)</text>
</g>
<!-- 28&#45;&gt;29 -->
<g id="edge39" class="edge">
<title>28&#45;&gt;29</title>
<path fill="none" stroke="black" d="M1485.23,-1368.76C1455.25,-1357.89 1415.81,-1343.58 1385.14,-1332.46"/>
<polygon fill="black" stroke="black" points="1386.71,-1329.31 1376.12,-1329.19 1384.32,-1335.89 1386.71,-1329.31"/>
</g>
<!-- 30 -->
<g id="node31" class="node">
<title>30</title>
<polygon fill="none" stroke="black" points="2005,-1332 1814.39,-1314 2005,-1296 2195.6,-1314 2005,-1332"/>
<text text-anchor="middle" x="2005" y="-1308.95" font-family="Times New Roman,serif" font-size="14.00">!(CheckEquipped(&quot;shoes_t500&quot;))</text>
</g>
<!-- 28&#45;&gt;30 -->
<g id="edge40" class="edge">
<title>28&#45;&gt;30</title>
<path fill="none" stroke="black" d="M1615.46,-1372.4C1702.12,-1359.63 1835.36,-1340 1921.36,-1327.33"/>
<polygon fill="black" stroke="black" points="1921.76,-1330.8 1931.15,-1325.88 1920.74,-1323.88 1921.76,-1330.8"/>
</g>
<!-- 46 -->
<g id="node47" class="node">
<title>46</title>
<ellipse fill="none" stroke="black" cx="361" cy="-954" rx="361" ry="18"/>
<text text-anchor="middle" x="361" y="-948.95" font-family="Times New Roman,serif" font-size="14.00">Visual Calculus: Then you should prepare &#45;&#45; analyse this armour, figure out its vulnerabilities.</text>
</g>
<!-- 29&#45;&gt;46 -->
<g id="edge41" class="edge">
<title>29&#45;&gt;46</title>
<path fill="none" stroke="black" d="M1221.3,-1307.24C1056,-1295.8 772,-1262.79 772,-1171 772,-1171 772,-1171 772,-1097 772,-1035.73 606.78,-995.08 485.85,-973.52"/>
<polygon fill="black" stroke="black" points="486.61,-970.1 476.15,-971.82 485.4,-976.99 486.61,-970.1"/>
</g>
<!-- 35 -->
<g id="node36" class="node">
<title>35</title>
<ellipse fill="none" stroke="black" cx="2463" cy="-1242" rx="121.47" ry="18"/>
<text text-anchor="middle" x="2463" y="-1236.95" font-family="Times New Roman,serif" font-size="14.00">CheckEquipped(&quot;shirt_t500&quot;)</text>
</g>
<!-- 30&#45;&gt;35 -->
<g id="edge42" class="edge">
<title>30&#45;&gt;35</title>
<path fill="none" stroke="black" d="M2075.55,-1302.22C2154.4,-1290.17 2282.4,-1270.6 2369.52,-1257.29"/>
<polygon fill="black" stroke="black" points="2369.88,-1260.77 2379.24,-1255.8 2368.82,-1253.85 2369.88,-1260.77"/>
</g>
<!-- 31 -->
<g id="node32" class="node">
<title>31</title>
<ellipse fill="none" stroke="black" cx="4413" cy="-666" rx="389.66" ry="18"/>
<text text-anchor="middle" x="4413" y="-660.95" font-family="Times New Roman,serif" font-size="14.00">Composure: You really do feel more confident. Invulnerability does that. Even partial invulnerability.</text>
</g>
<!-- 31&#45;&gt;25 -->
<g id="edge43" class="edge">
<title>31&#45;&gt;25</title>
<path fill="none" stroke="black" d="M4327.82,-647.97C4267.91,-635.98 4188.72,-620.15 4132.59,-608.92"/>
<polygon fill="black" stroke="black" points="4133.31,-605.49 4122.82,-606.96 4131.94,-612.36 4133.31,-605.49"/>
</g>
<!-- 32&#45;&gt;18 -->
<g id="edge44" class="edge">
<title>32&#45;&gt;18</title>
<path fill="none" stroke="black" d="M2308.24,-289.81C2185.42,-277.6 2014.35,-260.59 1895.49,-248.77"/>
<polygon fill="black" stroke="black" points="1895.95,-245.3 1885.66,-247.79 1895.26,-252.27 1895.95,-245.3"/>
</g>
<!-- 34 -->
<g id="node35" class="node">
<title>34</title>
<ellipse fill="none" stroke="black" cx="3103" cy="-378" rx="199.78" ry="18"/>
<text text-anchor="middle" x="3103" y="-372.95" font-family="Times New Roman,serif" font-size="14.00">You: It is good to be an unstoppable ceramic man.</text>
</g>
<!-- 34&#45;&gt;24 -->
<g id="edge45" class="edge">
<title>34&#45;&gt;24</title>
<path fill="none" stroke="black" d="M3096.32,-359.7C3093.41,-352.15 3089.93,-343.12 3086.67,-334.68"/>
<polygon fill="black" stroke="black" points="3090,-333.59 3083.14,-325.52 3083.47,-336.11 3090,-333.59"/>
</g>
<!-- 36 -->
<g id="node37" class="node">
<title>36</title>
<polygon fill="none" stroke="black" points="2463,-1188 2291.21,-1170 2463,-1152 2634.78,-1170 2463,-1188"/>
<text text-anchor="middle" x="2463" y="-1164.95" font-family="Times New Roman,serif" font-size="14.00">CheckEquipped(&quot;shirt_t500&quot;)</text>
</g>
<!-- 35&#45;&gt;36 -->
<g id="edge46" class="edge">
<title>35&#45;&gt;36</title>
<path fill="none" stroke="black" d="M2463,-1223.7C2463,-1216.41 2463,-1207.73 2463,-1199.54"/>
<polygon fill="black" stroke="black" points="2466.5,-1199.62 2463,-1189.62 2459.5,-1199.62 2466.5,-1199.62"/>
</g>
<!-- 37 -->
<g id="node38" class="node">
<title>37</title>
<polygon fill="none" stroke="black" points="3032,-1188 2847.18,-1170 3032,-1152 3216.81,-1170 3032,-1188"/>
<text text-anchor="middle" x="3032" y="-1164.95" font-family="Times New Roman,serif" font-size="14.00">!(CheckEquipped(&quot;shirt_t500&quot;))</text>
</g>
<!-- 35&#45;&gt;37 -->
<g id="edge47" class="edge">
<title>35&#45;&gt;37</title>
<path fill="none" stroke="black" d="M2554.1,-1229.79C2660.42,-1216.71 2835.18,-1195.21 2941.32,-1182.16"/>
<polygon fill="black" stroke="black" points="2941.64,-1185.64 2951.14,-1180.95 2940.78,-1178.69 2941.64,-1185.64"/>
</g>
<!-- 36&#45;&gt;2 -->
<g id="edge48" class="edge">
<title>36&#45;&gt;2</title>
<path fill="none" stroke="black" d="M2463,-1151.59C2463,-1127.61 2463,-1084.14 2463,-1055.42"/>
<polygon fill="black" stroke="black" points="2466.5,-1055.62 2463,-1045.62 2459.5,-1055.62 2466.5,-1055.62"/>
</g>
<!-- 49 -->
<g id="node50" class="node">
<title>49</title>
<polygon fill="none" stroke="black" points="3420,-1116 3237.35,-1098 3420,-1080 3602.64,-1098 3420,-1116"/>
<text text-anchor="middle" x="3420" y="-1092.95" font-family="Times New Roman,serif" font-size="14.00">CheckEquipped(&quot;gloves_t500&quot;)</text>
</g>
<!-- 37&#45;&gt;49 -->
<g id="edge49" class="edge">
<title>37&#45;&gt;49</title>
<path fill="none" stroke="black" d="M3094.77,-1157.68C3163.52,-1145.27 3273.66,-1125.4 3346.42,-1112.27"/>
<polygon fill="black" stroke="black" points="3346.61,-1115.8 3355.83,-1110.58 3345.36,-1108.91 3346.61,-1115.8"/>
</g>
<!-- 39 -->
<g id="node40" class="node">
<title>39</title>
<polygon fill="none" stroke="black" points="4696,-828 4430.84,-810 4696,-792 4961.15,-810 4696,-828"/>
<text text-anchor="middle" x="4696" y="-804.95" font-family="Times New Roman,serif" font-size="14.00">Variable[&quot;TASK.report_to_the_tribunal_done&quot;]</text>
</g>
<!-- 38&#45;&gt;39 -->
<g id="edge51" class="edge">
<title>38&#45;&gt;39</title>
<path fill="none" stroke="black" d="M3825.13,-870.77C4021.73,-857.27 4365.04,-833.71 4556.63,-820.56"/>
<polygon fill="black" stroke="black" points="4556.65,-824.07 4566.39,-819.89 4556.17,-817.09 4556.65,-824.07"/>
</g>
<!-- 40 -->
<g id="node41" class="node">
<title>40</title>
<polygon fill="none" stroke="black" points="3676,-756 3397.81,-738 3676,-720 3954.18,-738 3676,-756"/>
<text text-anchor="middle" x="3676" y="-732.95" font-family="Times New Roman,serif" font-size="14.00">!(Variable[&quot;TASK.report_to_the_tribunal_done&quot;])</text>
</g>
<!-- 38&#45;&gt;40 -->
<g id="edge50" class="edge">
<title>38&#45;&gt;40</title>
<path fill="none" stroke="black" d="M3676,-863.59C3676,-839.61 3676,-796.14 3676,-767.42"/>
<polygon fill="black" stroke="black" points="3679.5,-767.62 3676,-757.62 3672.5,-767.62 3679.5,-767.62"/>
</g>
<!-- 39&#45;&gt;14 -->
<g id="edge53" class="edge">
<title>39&#45;&gt;14</title>
<path fill="none" stroke="black" d="M4914.05,-806.31C5115.96,-801.74 5390.65,-789.38 5429,-756 5459.5,-729.44 5448,-707.45 5448,-667 5448,-667 5448,-667 5448,-521 5448,-420.84 5319.76,-390.24 5221.73,-381.48"/>
<polygon fill="black" stroke="black" points="5222.3,-378.02 5212.04,-380.69 5221.72,-384.99 5222.3,-378.02"/>
</g>
<!-- 39&#45;&gt;56 -->
<g id="edge52" class="edge">
<title>39&#45;&gt;56</title>
<path fill="none" stroke="black" d="M4696,-791.7C4696,-784.41 4696,-775.73 4696,-767.54"/>
<polygon fill="black" stroke="black" points="4699.5,-767.62 4696,-757.62 4692.5,-767.62 4699.5,-767.62"/>
</g>
<!-- 43 -->
<g id="node44" class="node">
<title>43</title>
<polygon fill="none" stroke="black" points="3746,-468 3475.77,-450 3746,-432 4016.22,-450 3746,-468"/>
<text text-anchor="middle" x="3746" y="-444.95" font-family="Times New Roman,serif" font-size="14.00">Variable[&quot;gates.manana_armour_with_armour&quot;]</text>
</g>
<!-- 40&#45;&gt;43 -->
<g id="edge54" class="edge">
<title>40&#45;&gt;43</title>
<path fill="none" stroke="black" d="M3680.16,-719.97C3691.81,-672.38 3724.78,-537.67 3739.16,-478.95"/>
<polygon fill="black" stroke="black" points="3742.51,-479.96 3741.49,-469.41 3735.71,-478.3 3742.51,-479.96"/>
</g>
<!-- 41 -->
<g id="node42" class="node">
<title>41</title>
<ellipse fill="none" stroke="black" cx="1500" cy="-378" rx="229.46" ry="18"/>
<text text-anchor="middle" x="1500" y="-372.95" font-family="Times New Roman,serif" font-size="14.00">You: Decked out in future&#45;armour. Like a cop ought to be.</text>
</g>
<!-- 41&#45;&gt;6 -->
<g id="edge55" class="edge">
<title>41&#45;&gt;6</title>
<path fill="none" stroke="black" d="M1340.58,-391.28C1277.92,-399.03 1206.04,-411.62 1143,-432 1076.79,-453.4 1046.19,-448.68 1004,-504 990.87,-521.21 986.35,-545.49 984.99,-564.34"/>
<polygon fill="black" stroke="black" points="981.49,-564.16 984.55,-574.3 988.48,-564.47 981.49,-564.16"/>
</g>
<!-- 42 -->
<g id="node43" class="node">
<title>42</title>
<ellipse fill="none" stroke="black" cx="1242" cy="-1098" rx="191.08" ry="18"/>
<text text-anchor="middle" x="1242" y="-1092.95" font-family="Times New Roman,serif" font-size="14.00">Variable[&quot;gates.manana_armour_with_armour&quot;]</text>
</g>
<!-- 44 -->
<g id="node45" class="node">
<title>44</title>
<polygon fill="none" stroke="black" points="985,-900 701.75,-882 985,-864 1268.24,-882 985,-900"/>
<text text-anchor="middle" x="985" y="-876.95" font-family="Times New Roman,serif" font-size="14.00">!(Variable[&quot;gates.manana_armour_with_armour&quot;])</text>
</g>
<!-- 42&#45;&gt;44 -->
<g id="edge56" class="edge">
<title>42&#45;&gt;44</title>
<path fill="none" stroke="black" d="M1123.35,-1083.51C1072.39,-1075.19 1020.7,-1062.5 1004,-1044 971.28,-1007.78 974.17,-946.76 979.44,-911.16"/>
<polygon fill="black" stroke="black" points="982.83,-912.06 981.02,-901.62 975.93,-910.91 982.83,-912.06"/>
</g>
<!-- 45 -->
<g id="node46" class="node">
<title>45</title>
<ellipse fill="none" stroke="black" cx="1493" cy="-1026" rx="480.25" ry="18"/>
<text text-anchor="middle" x="1493" y="-1020.95" font-family="Times New Roman,serif" font-size="14.00">Visual Calculus: You look down at the white ceramic sabatons hugging your arches and calves, surprised at how well they fit.</text>
</g>
<!-- 42&#45;&gt;45 -->
<g id="edge57" class="edge">
<title>42&#45;&gt;45</title>
<path fill="none" stroke="black" d="M1301.16,-1080.5C1336.78,-1070.57 1382.4,-1057.84 1420.21,-1047.3"/>
<polygon fill="black" stroke="black" points="1421.02,-1050.71 1429.71,-1044.65 1419.13,-1043.97 1421.02,-1050.71"/>
</g>
<!-- 43&#45;&gt;14 -->
<g id="edge59" class="edge">
<title>43&#45;&gt;14</title>
<path fill="none" stroke="black" d="M3894.46,-441.39C4172.35,-427.15 4764.75,-396.79 5006.23,-384.42"/>
<polygon fill="black" stroke="black" points="5006.14,-387.93 5015.95,-383.92 5005.78,-380.94 5006.14,-387.93"/>
</g>
<!-- 43&#45;&gt;34 -->
<g id="edge58" class="edge">
<title>43&#45;&gt;34</title>
<path fill="none" stroke="black" d="M3646.58,-438.18C3537.11,-426.26 3360.45,-407.03 3238.38,-393.74"/>
<polygon fill="black" stroke="black" points="3238.94,-390.28 3228.62,-392.68 3238.18,-397.24 3238.94,-390.28"/>
</g>
<!-- 58 -->
<g id="node59" class="node">
<title>58</title>
<ellipse fill="none" stroke="black" cx="985" cy="-810" rx="347.18" ry="18"/>
<text text-anchor="middle" x="985" y="-804.95" font-family="Times New Roman,serif" font-size="14.00">You: I will be responsible with this. This is just to protect me from harm, not to show off.</text>
</g>
<!-- 44&#45;&gt;58 -->
<g id="edge60" class="edge">
<title>44&#45;&gt;58</title>
<path fill="none" stroke="black" d="M985,-863.7C985,-856.41 985,-847.73 985,-839.54"/>
<polygon fill="black" stroke="black" points="988.5,-839.62 985,-829.62 981.5,-839.62 988.5,-839.62"/>
</g>
<!-- 45&#45;&gt;5 -->
<g id="edge61" class="edge">
<title>45&#45;&gt;5</title>
<path fill="none" stroke="black" d="M1791.08,-1011.5C2056.99,-999.46 2445.31,-981.88 2717.97,-969.54"/>
<polygon fill="black" stroke="black" points="2717.9,-973.04 2727.73,-969.09 2717.59,-966.05 2717.9,-973.04"/>
</g>
<!-- 46&#45;&gt;18 -->
<g id="edge62" class="edge">
<title>46&#45;&gt;18</title>
<path fill="none" stroke="black" d="M269.75,-936.11C203.34,-917.93 125,-881.53 125,-811 125,-811 125,-811 125,-377 125,-365.67 133.57,-364.45 144,-360 393.1,-253.62 1182.46,-236.58 1556.59,-234.65"/>
<polygon fill="black" stroke="black" points="1556.58,-238.15 1566.57,-234.6 1556.55,-231.15 1556.58,-238.15"/>
</g>
<!-- 47&#45;&gt;25 -->
<g id="edge63" class="edge">
<title>47&#45;&gt;25</title>
<path fill="none" stroke="black" d="M3952.27,-320.72C4002.7,-328.59 4045.99,-340.87 4063,-360 4113.76,-417.09 4089.62,-516.76 4073.47,-565.11"/>
<polygon fill="black" stroke="black" points="4070.26,-563.67 4070.28,-574.27 4076.87,-565.98 4070.26,-563.67"/>
</g>
<!-- 48 -->
<g id="node49" class="node">
<title>48</title>
<ellipse fill="none" stroke="black" cx="6585" cy="-594" rx="129.15" ry="18"/>
<text text-anchor="middle" x="6585" y="-588.95" font-family="Times New Roman,serif" font-size="14.00">CheckEquipped(&quot;gloves_t500&quot;)</text>
</g>
<!-- 50 -->
<g id="node51" class="node">
<title>50</title>
<polygon fill="none" stroke="black" points="5672,-540 5476.33,-522 5672,-504 5867.66,-522 5672,-540"/>
<text text-anchor="middle" x="5672" y="-516.95" font-family="Times New Roman,serif" font-size="14.00">!(CheckEquipped(&quot;gloves_t500&quot;))</text>
</g>
<!-- 48&#45;&gt;50 -->
<g id="edge64" class="edge">
<title>48&#45;&gt;50</title>
<path fill="none" stroke="black" d="M6472.31,-584.87C6332.43,-574.72 6086.56,-556.64 5876,-540 5845.47,-537.59 5812.38,-534.87 5781.91,-532.33"/>
<polygon fill="black" stroke="black" points="5782.58,-528.88 5772.32,-531.53 5782,-535.85 5782.58,-528.88"/>
</g>
<!-- 51 -->
<g id="node52" class="node">
<title>51</title>
<ellipse fill="none" stroke="black" cx="6585" cy="-522" rx="699.81" ry="18"/>
<text text-anchor="middle" x="6585" y="-516.95" font-family="Times New Roman,serif" font-size="14.00">Visual Calculus: The hardened vitreous enamel, at once sleek and light, adds a glow to your cheeks and a spring to your step. Just imagine what a full suit of this stuff could do for you!</text>
</g>
<!-- 48&#45;&gt;51 -->
<g id="edge65" class="edge">
<title>48&#45;&gt;51</title>
<path fill="none" stroke="black" d="M6579.08,-575.7C6578.33,-568.41 6578.08,-559.73 6578.35,-551.54"/>
<polygon fill="black" stroke="black" points="6581.84,-551.82 6579,-541.61 6574.85,-551.36 6581.84,-551.82"/>
</g>
<!-- 49&#45;&gt;11 -->
<g id="edge66" class="edge">
<title>49&#45;&gt;11</title>
<path fill="none" stroke="black" d="M3458.06,-1083.34C3485.94,-1073.33 3524.31,-1059.55 3556.13,-1048.13"/>
<polygon fill="black" stroke="black" points="3556.99,-1051.54 3565.22,-1044.87 3554.63,-1044.95 3556.99,-1051.54"/>
</g>
<!-- 55 -->
<g id="node56" class="node">
<title>55</title>
<ellipse fill="none" stroke="black" cx="5641" cy="-450" rx="133.75" ry="18"/>
<text text-anchor="middle" x="5641" y="-444.95" font-family="Times New Roman,serif" font-size="14.00">You: Better late than never, huh?</text>
</g>
<!-- 50&#45;&gt;55 -->
<g id="edge67" class="edge">
<title>50&#45;&gt;55</title>
<path fill="none" stroke="black" d="M5664.65,-504.41C5661.27,-496.79 5657.18,-487.55 5653.35,-478.9"/>
<polygon fill="black" stroke="black" points="5656.58,-477.56 5649.33,-469.83 5650.18,-480.39 5656.58,-477.56"/>
</g>
<!-- 51&#45;&gt;48 -->
<g id="edge68" class="edge">
<title>51&#45;&gt;48</title>
<path fill="none" stroke="black" d="M6590.89,-540.1C6591.65,-547.37 6591.9,-556.04 6591.65,-564.24"/>
<polygon fill="black" stroke="black" points="6588.16,-563.98 6591.01,-574.19 6595.14,-564.43 6588.16,-563.98"/>
</g>
<!-- 52&#45;&gt;26 -->
<g id="edge69" class="edge">
<title>52&#45;&gt;26</title>
<path fill="none" stroke="black" d="M703,-431.7C703,-424.41 703,-415.73 703,-407.54"/>
<polygon fill="black" stroke="black" points="706.5,-407.62 703,-397.62 699.5,-407.62 706.5,-407.62"/>
</g>
<!-- 53&#45;&gt;9 -->
<g id="edge70" class="edge">
<title>53&#45;&gt;9</title>
<path fill="none" stroke="black" d="M2958.08,-503.7C2957.33,-496.41 2957.08,-487.73 2957.35,-479.54"/>
<polygon fill="black" stroke="black" points="2960.84,-479.82 2958,-469.61 2953.85,-479.36 2960.84,-479.82"/>
</g>
<!-- 54&#45;&gt;10 -->
<g id="edge71" class="edge">
<title>54&#45;&gt;10</title>
<path fill="none" stroke="black" d="M5085.65,-503.7C5089.46,-496.07 5094.04,-486.92 5098.3,-478.4"/>
<polygon fill="black" stroke="black" points="5101.42,-479.97 5102.77,-469.46 5095.16,-476.84 5101.42,-479.97"/>
</g>
<!-- 55&#45;&gt;22 -->
<g id="edge72" class="edge">
<title>55&#45;&gt;22</title>
<path fill="none" stroke="black" d="M5608.56,-432.05C5590.57,-422.66 5568,-410.87 5548.71,-400.79"/>
<polygon fill="black" stroke="black" points="5550.5,-397.78 5540.01,-396.25 5547.26,-403.98 5550.5,-397.78"/>
</g>
<!-- 56&#45;&gt;31 -->
<g id="edge73" class="edge">
<title>56&#45;&gt;31</title>
<path fill="none" stroke="black" d="M4625.68,-719.61C4585.55,-709.68 4535.11,-697.2 4493.42,-686.89"/>
<polygon fill="black" stroke="black" points="4494.48,-683.55 4483.93,-684.55 4492.8,-690.34 4494.48,-683.55"/>
</g>
<!-- 57&#45;&gt;14 -->
<g id="edge76" class="edge">
<title>57&#45;&gt;14</title>
<path fill="none" stroke="black" d="M1249.53,-436.94C1257.88,-434.91 1266.67,-433.11 1275,-432 1582.08,-391.07 3753.22,-400.51 4063,-396 4405.45,-391.01 4810.77,-384.18 5001.85,-380.9"/>
<polygon fill="black" stroke="black" points="5001.84,-384.41 5011.78,-380.73 5001.72,-377.41 5001.84,-384.41"/>
</g>
<!-- 57&#45;&gt;41 -->
<g id="edge74" class="edge">
<title>57&#45;&gt;41</title>
<path fill="none" stroke="black" d="M1252.28,-437.72C1259.84,-435.78 1267.64,-433.81 1275,-432 1321.85,-420.45 1374.34,-408.05 1416.82,-398.16"/>
<polygon fill="black" stroke="black" points="1417.54,-401.58 1426.49,-395.91 1415.95,-394.77 1417.54,-401.58"/>
</g>
<!-- 59 -->
<g id="node60" class="node">
<title>59</title>
<ellipse fill="none" stroke="black" cx="1757" cy="-306" rx="367.14" ry="18"/>
<text text-anchor="middle" x="1757" y="-300.95" font-family="Times New Roman,serif" font-size="14.00">You: This is the long sought after *enemy technology*. I can&#39;t just enjoy it &#45;&#45; I must *study* it.</text>
</g>
<!-- 57&#45;&gt;59 -->
<g id="edge75" class="edge">
<title>57&#45;&gt;59</title>
<path fill="none" stroke="black" d="M1250.3,-437.18C1258.43,-435.19 1266.94,-433.34 1275,-432 1325.9,-423.53 1699.17,-429.99 1738,-396 1754.81,-381.28 1758.84,-355.66 1759.09,-335.67"/>
<polygon fill="black" stroke="black" points="1762.59,-335.83 1758.88,-325.91 1755.59,-335.98 1762.59,-335.83"/>
</g>
<!-- 58&#45;&gt;6 -->
<g id="edge77" class="edge">
<title>58&#45;&gt;6</title>
<path fill="none" stroke="black" d="M985,-791.85C985,-755.14 985,-668.66 985,-623.53"/>
<polygon fill="black" stroke="black" points="988.5,-623.75 985,-613.75 981.5,-623.75 988.5,-623.75"/>
</g>
<!-- 59&#45;&gt;18 -->
<g id="edge78" class="edge">
<title>59&#45;&gt;18</title>
<path fill="none" stroke="black" d="M1757,-287.7C1757,-280.41 1757,-271.73 1757,-263.54"/>
<polygon fill="black" stroke="black" points="1760.5,-263.62 1757,-253.62 1753.5,-263.62 1760.5,-263.62"/>
</g>
</g>
</svg>
