<?xml version="1.0" encoding="UTF-8" standalone="no"?>
<!DOCTYPE svg PUBLIC "-//W3C//DTD SVG 1.1//EN"
 "http://www.w3.org/Graphics/SVG/1.1/DTD/svg11.dtd">
<!-- Generated by graphviz version 12.2.1 (20241206.2353)
 -->
<!-- Title: G Pages: 1 -->
<svg width="5461pt" height="2730pt"
 viewBox="0.00 0.00 5460.84 2729.98" xmlns="http://www.w3.org/2000/svg" xmlns:xlink="http://www.w3.org/1999/xlink">
<g id="graph0" class="graph" transform="scale(1 1) rotate(0) translate(4 2725.98)">
<title>G</title>
<polygon fill="white" stroke="none" points="-4,4 -4,-2725.98 5456.84,-2725.98 5456.84,4 -4,4"/>
<!-- 0 -->
<g id="node1" class="node">
<title>0</title>
<ellipse fill="none" stroke="black" cx="2828.56" cy="-2703.98" rx="39.07" ry="18"/>
<text text-anchor="middle" x="2828.56" y="-2698.93" font-family="Times New Roman,serif" font-size="14.00">START</text>
</g>
<!-- 1 -->
<g id="node2" class="node">
<title>1</title>
<ellipse fill="none" stroke="black" cx="2828.56" cy="-2631.98" rx="29.86" ry="18"/>
<text text-anchor="middle" x="2828.56" y="-2626.93" font-family="Times New Roman,serif" font-size="14.00">input</text>
</g>
<!-- 0&#45;&gt;1 -->
<g id="edge1" class="edge">
<title>0&#45;&gt;1</title>
<path fill="none" stroke="black" d="M2828.56,-2685.68C2828.56,-2678.39 2828.56,-2669.71 2828.56,-2661.52"/>
<polygon fill="black" stroke="black" points="2832.06,-2661.6 2828.56,-2651.6 2825.06,-2661.6 2832.06,-2661.6"/>
</g>
<!-- 34 -->
<g id="node35" class="node">
<title>34</title>
<ellipse fill="none" stroke="black" cx="2828.56" cy="-2559.98" rx="790.91" ry="18"/>
<text text-anchor="middle" x="2828.56" y="-2554.93" font-family="Times New Roman,serif" font-size="14.00">Rhetoric: Yes &#45;&#45; you&#39;re ready to start building communism *again*. You&#39;ve built it before, *they&#39;ve* built it before. Hasn&#39;t really worked out yet, but neither has *love* &#45;&#45; should we just stop building love, too?</text>
</g>
<!-- 1&#45;&gt;34 -->
<g id="edge2" class="edge">
<title>1&#45;&gt;34</title>
<path fill="none" stroke="black" d="M2828.56,-2613.68C2828.56,-2606.39 2828.56,-2597.71 2828.56,-2589.52"/>
<polygon fill="black" stroke="black" points="2832.06,-2589.6 2828.56,-2579.6 2825.06,-2589.6 2832.06,-2589.6"/>
</g>
<!-- 2 -->
<g id="node3" class="node">
<title>2</title>
<ellipse fill="none" stroke="black" cx="1503.56" cy="-450" rx="216.15" ry="18"/>
<text text-anchor="middle" x="1503.56" y="-444.95" font-family="Times New Roman,serif" font-size="14.00">Jump to: [You: &quot;Roll up your sleeves and start buil...&quot;]</text>
</g>
<!-- 23 -->
<g id="node24" class="node">
<title>23</title>
<ellipse fill="none" stroke="black" cx="1867.56" cy="-378" rx="264.26" ry="18"/>
<text text-anchor="middle" x="1867.56" y="-372.95" font-family="Times New Roman,serif" font-size="14.00">You: Roll up your sleeves and start building Communism. (Opt in.)</text>
</g>
<!-- 2&#45;&gt;23 -->
<g id="edge3" class="edge">
<title>2&#45;&gt;23</title>
<path fill="none" stroke="black" d="M1587.07,-432.94C1641.77,-422.42 1713.46,-408.63 1770.67,-397.63"/>
<polygon fill="black" stroke="black" points="1771.27,-401.08 1780.43,-395.76 1769.95,-394.21 1771.27,-401.08"/>
</g>
<!-- 3 -->
<g id="node4" class="node">
<title>3</title>
<ellipse fill="none" stroke="black" cx="2362.56" cy="-2487.98" rx="111.23" ry="18"/>
<text text-anchor="middle" x="2362.56" y="-2482.93" font-family="Times New Roman,serif" font-size="14.00">You: Can&#39;t argue with that.</text>
</g>
<!-- 29 -->
<g id="node30" class="node">
<title>29</title>
<ellipse fill="none" stroke="black" cx="2032.56" cy="-2415.98" rx="105.09" ry="18"/>
<text text-anchor="middle" x="2032.56" y="-2410.93" font-family="Times New Roman,serif" font-size="14.00">You: I don&#39;t *do* failure.</text>
</g>
<!-- 3&#45;&gt;29 -->
<g id="edge4" class="edge">
<title>3&#45;&gt;29</title>
<path fill="none" stroke="black" d="M2296.97,-2473.07C2242.52,-2461.52 2165.04,-2445.08 2108.02,-2432.99"/>
<polygon fill="black" stroke="black" points="2108.89,-2429.6 2098.39,-2430.95 2107.44,-2436.44 2108.89,-2429.6"/>
</g>
<!-- 4 -->
<g id="node5" class="node">
<title>4</title>
<ellipse fill="none" stroke="black" cx="1686.56" cy="-2343.98" rx="932.68" ry="18"/>
<text text-anchor="middle" x="1686.56" y="-2338.93" font-family="Times New Roman,serif" font-size="14.00">Rhetoric: Of course you do! You *are* failure, you *are* Communism. Absolutely vanquished, beaten, curb&#45;stomped, shat on. While everyone else is out partying, having a callous laugh, *you* will reverse the fortune of the workers of the world.</text>
</g>
<!-- 44 -->
<g id="node45" class="node">
<title>44</title>
<ellipse fill="none" stroke="black" cx="1504.56" cy="-2271.98" rx="76.43" ry="18"/>
<text text-anchor="middle" x="1504.56" y="-2266.93" font-family="Times New Roman,serif" font-size="14.00">You: Who &#45;&#45; me?</text>
</g>
<!-- 4&#45;&gt;44 -->
<g id="edge5" class="edge">
<title>4&#45;&gt;44</title>
<path fill="none" stroke="black" d="M1641.57,-2325.68C1614.9,-2315.42 1581.08,-2302.41 1553.71,-2291.89"/>
<polygon fill="black" stroke="black" points="1555.18,-2288.7 1544.59,-2288.38 1552.67,-2295.24 1555.18,-2288.7"/>
</g>
<!-- 5 -->
<g id="node6" class="node">
<title>5</title>
<ellipse fill="none" stroke="black" cx="2848.56" cy="-1983.98" rx="193.12" ry="18"/>
<text text-anchor="middle" x="2848.56" y="-1978.93" font-family="Times New Roman,serif" font-size="14.00">Rhetoric: Anyone? Anyone else? There&#39;s no one?</text>
</g>
<!-- 9 -->
<g id="node10" class="node">
<title>9</title>
<ellipse fill="none" stroke="black" cx="2855.56" cy="-1911.98" rx="90.25" ry="18"/>
<text text-anchor="middle" x="2855.56" y="-1906.93" font-family="Times New Roman,serif" font-size="14.00">Volition: There&#39;s one.</text>
</g>
<!-- 5&#45;&gt;9 -->
<g id="edge6" class="edge">
<title>5&#45;&gt;9</title>
<path fill="none" stroke="black" d="M2850.29,-1965.68C2851.02,-1958.39 2851.89,-1949.71 2852.71,-1941.52"/>
<polygon fill="black" stroke="black" points="2856.19,-1941.89 2853.7,-1931.59 2849.22,-1941.2 2856.19,-1941.89"/>
</g>
<!-- 6 -->
<g id="node7" class="node">
<title>6</title>
<ellipse fill="none" stroke="black" cx="2924.56" cy="-1036.99" rx="269.89" ry="18"/>
<text text-anchor="middle" x="2924.56" y="-1031.94" font-family="Times New Roman,serif" font-size="14.00">You: Wait, what? Firing squads? You didn&#39;t say anything about those.</text>
</g>
<!-- 27 -->
<g id="node28" class="node">
<title>27</title>
<ellipse fill="none" stroke="black" cx="3150.56" cy="-954" rx="150.64" ry="18"/>
<text text-anchor="middle" x="3150.56" y="-948.95" font-family="Times New Roman,serif" font-size="14.00">You: I haven&#39;t said anything like that.</text>
</g>
<!-- 6&#45;&gt;27 -->
<g id="edge7" class="edge">
<title>6&#45;&gt;27</title>
<path fill="none" stroke="black" d="M2972.49,-1018.82C3007.87,-1006.14 3056.16,-988.83 3093.52,-975.44"/>
<polygon fill="black" stroke="black" points="3094.59,-978.78 3102.82,-972.11 3092.23,-972.19 3094.59,-978.78"/>
</g>
<!-- 7 -->
<g id="node8" class="node">
<title>7</title>
<ellipse fill="none" stroke="black" cx="772.56" cy="-90" rx="148.08" ry="18"/>
<text text-anchor="middle" x="772.56" y="-84.95" font-family="Times New Roman,serif" font-size="14.00">You: Oh, right. That sounds like me.</text>
</g>
<!-- 17 -->
<g id="node18" class="node">
<title>17</title>
<ellipse fill="none" stroke="black" cx="580.56" cy="-18" rx="580.56" ry="18"/>
<text text-anchor="middle" x="580.56" y="-12.95" font-family="Times New Roman,serif" font-size="14.00">Rhetoric: Funky&#45;style. Very funky. So tell me. Do you have any questions before we fire up the Big Communism Builder, or do we get right down to it?</text>
</g>
<!-- 7&#45;&gt;17 -->
<g id="edge8" class="edge">
<title>7&#45;&gt;17</title>
<path fill="none" stroke="black" d="M727.06,-72.41C700.61,-62.77 667.01,-50.52 638.66,-40.18"/>
<polygon fill="black" stroke="black" points="640.09,-36.98 629.5,-36.84 637.7,-43.56 640.09,-36.98"/>
</g>
<!-- 8 -->
<g id="node9" class="node">
<title>8</title>
<ellipse fill="none" stroke="black" cx="2902.56" cy="-1335.98" rx="224.34" ry="18"/>
<text text-anchor="middle" x="2902.56" y="-1330.93" font-family="Times New Roman,serif" font-size="14.00">You: Wait, first &#45;&#45; what&#39;s this *communism* even about?</text>
</g>
<!-- 43 -->
<g id="node44" class="node">
<title>43</title>
<ellipse fill="none" stroke="black" cx="3005.56" cy="-1263.98" rx="1141.5" ry="18"/>
<text text-anchor="middle" x="3005.56" y="-1258.93" font-family="Times New Roman,serif" font-size="14.00">Rhetoric: You alone, against every living thing, against every human alive: eight hundred trillion reál in the hands of an *impossibly* well organized ruling class; towering city blocks of bank&#45;men who have the ears of prime ministers; million&#45;headed armies of nations and the love of your own mother!</text>
</g>
<!-- 8&#45;&gt;43 -->
<g id="edge9" class="edge">
<title>8&#45;&gt;43</title>
<path fill="none" stroke="black" d="M2928.02,-1317.68C2940.9,-1308.93 2956.72,-1298.18 2970.71,-1288.67"/>
<polygon fill="black" stroke="black" points="2972.48,-1291.7 2978.78,-1283.18 2968.55,-1285.91 2972.48,-1291.7"/>
</g>
<!-- 49 -->
<g id="node50" class="node">
<title>49</title>
<polygon fill="none" stroke="black" points="2906.56,-1857.98 2569.75,-1839.98 2906.56,-1821.98 3243.37,-1839.98 2906.56,-1857.98"/>
<text text-anchor="middle" x="2906.56" y="-1834.93" font-family="Times New Roman,serif" font-size="14.00">Variable[&quot;plaza.sense_rhetoric_communism_volition_fired&quot;]</text>
</g>
<!-- 9&#45;&gt;49 -->
<g id="edge10" class="edge">
<title>9&#45;&gt;49</title>
<path fill="none" stroke="black" d="M2868.17,-1893.68C2874.06,-1885.59 2881.2,-1875.79 2887.71,-1866.85"/>
<polygon fill="black" stroke="black" points="2890.5,-1868.97 2893.56,-1858.83 2884.84,-1864.85 2890.5,-1868.97"/>
</g>
<!-- 10 -->
<g id="node11" class="node">
<title>10</title>
<ellipse fill="none" stroke="black" cx="1504.56" cy="-2199.98" rx="355.88" ry="18"/>
<text text-anchor="middle" x="1504.56" y="-2194.93" font-family="Times New Roman,serif" font-size="14.00">Rhetoric: Yes, you. Word on the street is you&#39;re ready to start building *communism* again!</text>
</g>
<!-- 12 -->
<g id="node13" class="node">
<title>12</title>
<ellipse fill="none" stroke="black" cx="4270.56" cy="-18" rx="201.31" ry="18"/>
<text text-anchor="middle" x="4270.56" y="-12.95" font-family="Times New Roman,serif" font-size="14.00">You: Get the fuck outta here! No. [Finish thought.]</text>
</g>
<!-- 10&#45;&gt;12 -->
<g id="edge11" class="edge">
<title>10&#45;&gt;12</title>
<path fill="none" stroke="black" d="M1577.51,-2181.89C1724.89,-2148.1 2069.11,-2073.03 2362.56,-2037.98 2786.11,-1987.39 4251.56,-2123.55 4251.56,-1696.98 4251.56,-1696.98 4251.56,-1696.98 4251.56,-161 4251.56,-121.39 4258.91,-76.11 4264.47,-47.54"/>
<polygon fill="black" stroke="black" points="4267.88,-48.37 4266.42,-37.87 4261.01,-46.98 4267.88,-48.37"/>
</g>
<!-- 39 -->
<g id="node40" class="node">
<title>39</title>
<ellipse fill="none" stroke="black" cx="1504.56" cy="-2127.98" rx="189.54" ry="18"/>
<text text-anchor="middle" x="1504.56" y="-2122.93" font-family="Times New Roman,serif" font-size="14.00">You: Good bye, Communism. [Finish thought.]</text>
</g>
<!-- 10&#45;&gt;39 -->
<g id="edge13" class="edge">
<title>10&#45;&gt;39</title>
<path fill="none" stroke="black" d="M1504.56,-2181.68C1504.56,-2174.39 1504.56,-2165.71 1504.56,-2157.52"/>
<polygon fill="black" stroke="black" points="1508.06,-2157.6 1504.56,-2147.6 1501.06,-2157.6 1508.06,-2157.6"/>
</g>
<!-- 55 -->
<g id="node56" class="node">
<title>55</title>
<ellipse fill="none" stroke="black" cx="2828.56" cy="-2127.98" rx="150.64" ry="18"/>
<text text-anchor="middle" x="2828.56" y="-2122.93" font-family="Times New Roman,serif" font-size="14.00">Rhetoric: Now get to work, comrade.</text>
</g>
<!-- 10&#45;&gt;55 -->
<g id="edge12" class="edge">
<title>10&#45;&gt;55</title>
<path fill="none" stroke="black" d="M1744.33,-2186.31C2017.49,-2171.86 2455.26,-2148.72 2681.93,-2136.74"/>
<polygon fill="black" stroke="black" points="2681.91,-2140.24 2691.71,-2136.22 2681.54,-2133.25 2681.91,-2140.24"/>
</g>
<!-- 11 -->
<g id="node12" class="node">
<title>11</title>
<ellipse fill="none" stroke="black" cx="3487.56" cy="-2415.98" rx="251.98" ry="18"/>
<text text-anchor="middle" x="3487.56" y="-2410.93" font-family="Times New Roman,serif" font-size="14.00">You: Love has worked out really well for me. I&#39;m a love winner.</text>
</g>
<!-- 13 -->
<g id="node14" class="node">
<title>13</title>
<ellipse fill="none" stroke="black" cx="4624.56" cy="-2199.98" rx="828.28" ry="18"/>
<text text-anchor="middle" x="4624.56" y="-2194.93" font-family="Times New Roman,serif" font-size="14.00">Rhetoric: Good. We need tender men like you building gargantuan communism. Word on the street is it&#39;s going to be ten thousand times larger than any communism previously attempted by human beings. Is that right?</text>
</g>
<!-- 11&#45;&gt;13 -->
<g id="edge14" class="edge">
<title>11&#45;&gt;13</title>
<path fill="none" stroke="black" d="M3574.42,-2398.63C3780.69,-2359.81 4299.27,-2262.21 4521.19,-2220.44"/>
<polygon fill="black" stroke="black" points="4521.82,-2223.88 4531,-2218.59 4520.53,-2217 4521.82,-2223.88"/>
</g>
<!-- 13&#45;&gt;12 -->
<g id="edge15" class="edge">
<title>13&#45;&gt;12</title>
<path fill="none" stroke="black" d="M4577.85,-2181.58C4529.69,-2160.25 4461.56,-2119.1 4461.56,-2056.98 4461.56,-2056.98 4461.56,-2056.98 4461.56,-161 4461.56,-98.63 4395.16,-60.45 4340.67,-39.61"/>
<polygon fill="black" stroke="black" points="4341.96,-36.35 4331.37,-36.19 4339.55,-42.92 4341.96,-36.35"/>
</g>
<!-- 13&#45;&gt;55 -->
<g id="edge16" class="edge">
<title>13&#45;&gt;55</title>
<path fill="none" stroke="black" d="M4232.36,-2183.7C3839.64,-2168.39 3255.38,-2145.62 2981.13,-2134.93"/>
<polygon fill="black" stroke="black" points="2981.54,-2131.44 2971.42,-2134.55 2981.27,-2138.44 2981.54,-2131.44"/>
</g>
<!-- 14 -->
<g id="node15" class="node">
<title>14</title>
<ellipse fill="none" stroke="black" cx="1819.56" cy="-738" rx="61.59" ry="18"/>
<text text-anchor="middle" x="1819.56" y="-732.95" font-family="Times New Roman,serif" font-size="14.00">You: Failure?</text>
</g>
<!-- 41 -->
<g id="node42" class="node">
<title>41</title>
<ellipse fill="none" stroke="black" cx="1819.56" cy="-666" rx="433.16" ry="18"/>
<text text-anchor="middle" x="1819.56" y="-660.95" font-family="Times New Roman,serif" font-size="14.00">Savoir Faire: Let not failure ensnare you any further, beautiful pixie girl! Be an acrobat! A prancing faerie queen!</text>
</g>
<!-- 14&#45;&gt;41 -->
<g id="edge17" class="edge">
<title>14&#45;&gt;41</title>
<path fill="none" stroke="black" d="M1819.56,-719.7C1819.56,-712.41 1819.56,-703.73 1819.56,-695.54"/>
<polygon fill="black" stroke="black" points="1823.06,-695.62 1819.56,-685.62 1816.06,-695.62 1823.06,-695.62"/>
</g>
<!-- 15 -->
<g id="node16" class="node">
<title>15</title>
<ellipse fill="none" stroke="black" cx="1819.56" cy="-522" rx="304.7" ry="18"/>
<text text-anchor="middle" x="1819.56" y="-516.95" font-family="Times New Roman,serif" font-size="14.00">Volition: You should build Communism &#45;&#45; precisely *because* it&#39;s impossible.</text>
</g>
<!-- 15&#45;&gt;2 -->
<g id="edge18" class="edge">
<title>15&#45;&gt;2</title>
<path fill="none" stroke="black" d="M1743.47,-504.14C1696.71,-493.79 1636.71,-480.5 1588.42,-469.8"/>
<polygon fill="black" stroke="black" points="1589.36,-466.42 1578.84,-467.68 1587.84,-473.26 1589.36,-466.42"/>
</g>
<!-- 19 -->
<g id="node20" class="node">
<title>19</title>
<ellipse fill="none" stroke="black" cx="2108.56" cy="-450" rx="371.23" ry="18"/>
<text text-anchor="middle" x="2108.56" y="-444.95" font-family="Times New Roman,serif" font-size="14.00">You: No. Shut up. I want to lie down and let the water carry me downstream. [Discard thought.]</text>
</g>
<!-- 15&#45;&gt;19 -->
<g id="edge19" class="edge">
<title>15&#45;&gt;19</title>
<path fill="none" stroke="black" d="M1889.52,-504.05C1930.86,-494.04 1983.4,-481.31 2026.67,-470.84"/>
<polygon fill="black" stroke="black" points="2027.38,-474.27 2036.27,-468.51 2025.73,-467.46 2027.38,-474.27"/>
</g>
<!-- 16 -->
<g id="node17" class="node">
<title>16</title>
<ellipse fill="none" stroke="black" cx="1372.56" cy="-90" rx="251.47" ry="18"/>
<text text-anchor="middle" x="1372.56" y="-84.95" font-family="Times New Roman,serif" font-size="14.00">You: I&#39;ve said *some* mildly left wing things but none of those.</text>
</g>
<!-- 57 -->
<g id="node58" class="node">
<title>57</title>
<ellipse fill="none" stroke="black" cx="1372.56" cy="-18" rx="27" ry="18"/>
<text text-anchor="middle" x="1372.56" y="-12.95" font-family="Times New Roman,serif" font-size="14.00">57</text>
</g>
<!-- 16&#45;&gt;57 -->
<g id="edge20" class="edge">
<title>16&#45;&gt;57</title>
<path fill="none" stroke="black" d="M1372.56,-71.7C1372.56,-64.41 1372.56,-55.73 1372.56,-47.54"/>
<polygon fill="black" stroke="black" points="1376.06,-47.62 1372.56,-37.62 1369.06,-47.62 1376.06,-47.62"/>
</g>
<!-- 54 -->
<g id="node55" class="node">
<title>54</title>
<ellipse fill="none" stroke="black" cx="1380.56" cy="-234" rx="181.35" ry="18"/>
<text text-anchor="middle" x="1380.56" y="-228.95" font-family="Times New Roman,serif" font-size="14.00">You: How come there&#39;s *word on the street*?</text>
</g>
<!-- 17&#45;&gt;54 -->
<g id="edge21" class="edge">
<title>17&#45;&gt;54</title>
<path fill="none" stroke="black" d="M544.15,-36.34C486.32,-66.04 384.8,-128.44 433.56,-180 459.23,-207.15 924.61,-222.44 1193.24,-229.05"/>
<polygon fill="black" stroke="black" points="1193.09,-232.54 1203.18,-229.29 1193.26,-225.54 1193.09,-232.54"/>
</g>
<!-- 18 -->
<g id="node19" class="node">
<title>18</title>
<ellipse fill="none" stroke="black" cx="1845.56" cy="-882" rx="403.48" ry="18"/>
<text text-anchor="middle" x="1845.56" y="-876.95" font-family="Times New Roman,serif" font-size="14.00">Logic: No objections. It&#39;s mathematically impossible to achieve a classless society. Everyone knows this.</text>
</g>
<!-- 42 -->
<g id="node43" class="node">
<title>42</title>
<ellipse fill="none" stroke="black" cx="1819.56" cy="-810" rx="141.94" ry="18"/>
<text text-anchor="middle" x="1819.56" y="-804.95" font-family="Times New Roman,serif" font-size="14.00">Rhetoric: Failure. It&#39;s about failure.</text>
</g>
<!-- 18&#45;&gt;42 -->
<g id="edge22" class="edge">
<title>18&#45;&gt;42</title>
<path fill="none" stroke="black" d="M1839.13,-863.7C1836.33,-856.15 1832.98,-847.12 1829.84,-838.68"/>
<polygon fill="black" stroke="black" points="1833.2,-837.68 1826.44,-829.52 1826.64,-840.12 1833.2,-837.68"/>
</g>
<!-- 20 -->
<g id="node21" class="node">
<title>20</title>
<ellipse fill="none" stroke="black" cx="2828.56" cy="-2487.98" rx="171.63" ry="18"/>
<text text-anchor="middle" x="2828.56" y="-2482.93" font-family="Times New Roman,serif" font-size="14.00">You: Yes, we should all stop building love.</text>
</g>
<!-- 24 -->
<g id="node25" class="node">
<title>24</title>
<ellipse fill="none" stroke="black" cx="2828.56" cy="-2199.98" rx="950.09" ry="18"/>
<text text-anchor="middle" x="2828.56" y="-2194.93" font-family="Times New Roman,serif" font-size="14.00">Rhetoric: This conversation isn&#39;t really about love. Try to keep up, okay? This is about the communism you&#39;ve *promised* to build. Word on the street is it&#39;s going to be ten thousand times larger than any communism previously attempted. Is that true?</text>
</g>
<!-- 20&#45;&gt;24 -->
<g id="edge23" class="edge">
<title>20&#45;&gt;24</title>
<path fill="none" stroke="black" d="M2828.56,-2469.52C2828.56,-2421.74 2828.56,-2288.49 2828.56,-2229.6"/>
<polygon fill="black" stroke="black" points="2832.06,-2229.73 2828.56,-2219.73 2825.06,-2229.73 2832.06,-2229.73"/>
</g>
<!-- 21 -->
<g id="node22" class="node">
<title>21</title>
<ellipse fill="none" stroke="black" cx="3360.56" cy="-882" rx="824.69" ry="18"/>
<text text-anchor="middle" x="3360.56" y="-876.95" font-family="Times New Roman,serif" font-size="14.00">Rhetoric: Okay, not in so many words. But don&#39;t deny it. You&#39;re about to rip off that mask of social democracy and reveal the monstrous seven&#45;eyed lamb of global communism that will devour and masticate mankind.</text>
</g>
<!-- 53 -->
<g id="node54" class="node">
<title>53</title>
<ellipse fill="none" stroke="black" cx="2844.56" cy="-1407.98" rx="53.4" ry="18"/>
<text text-anchor="middle" x="2844.56" y="-1402.93" font-family="Times New Roman,serif" font-size="14.00">big_builder</text>
</g>
<!-- 21&#45;&gt;53 -->
<g id="edge24" class="edge">
<title>21&#45;&gt;53</title>
<path fill="none" stroke="black" d="M3550.36,-900C3791.17,-924.19 4175.56,-972.71 4175.56,-1035.99 4175.56,-1264.98 4175.56,-1264.98 4175.56,-1264.98 4175.56,-1393.86 3176.19,-1406.01 2909.38,-1406.96"/>
<polygon fill="black" stroke="black" points="2909.47,-1403.46 2899.49,-1406.99 2909.5,-1410.46 2909.47,-1403.46"/>
</g>
<!-- 22 -->
<g id="node23" class="node">
<title>22</title>
<ellipse fill="none" stroke="black" cx="1483.56" cy="-1335.98" rx="303.67" ry="18"/>
<text text-anchor="middle" x="1483.56" y="-1330.93" font-family="Times New Roman,serif" font-size="14.00">You: It&#39;s too tiring. I don&#39;t have it in me. I&#39;m beat down and broken. (Opt out.)</text>
</g>
<!-- 36 -->
<g id="node37" class="node">
<title>36</title>
<ellipse fill="none" stroke="black" cx="1463.56" cy="-1263.98" rx="343.59" ry="18"/>
<text text-anchor="middle" x="1463.56" y="-1258.93" font-family="Times New Roman,serif" font-size="14.00">Rhetoric: There&#39;s no one. Okay then. Lie down and let the water carry you downstream...</text>
</g>
<!-- 22&#45;&gt;36 -->
<g id="edge25" class="edge">
<title>22&#45;&gt;36</title>
<path fill="none" stroke="black" d="M1478.62,-1317.68C1476.49,-1310.22 1473.94,-1301.3 1471.55,-1292.95"/>
<polygon fill="black" stroke="black" points="1474.98,-1292.2 1468.86,-1283.54 1468.25,-1294.12 1474.98,-1292.2"/>
</g>
<!-- 52 -->
<g id="node53" class="node">
<title>52</title>
<ellipse fill="none" stroke="black" cx="1867.56" cy="-306" rx="579.54" ry="18"/>
<text text-anchor="middle" x="1867.56" y="-300.95" font-family="Times New Roman,serif" font-size="14.00">Rhetoric: Everyone can see that. So tell me, do you have any questions before we fire up the Big Communism Builder, or do we get *right down to it*?</text>
</g>
<!-- 23&#45;&gt;52 -->
<g id="edge26" class="edge">
<title>23&#45;&gt;52</title>
<path fill="none" stroke="black" d="M1867.56,-359.7C1867.56,-352.41 1867.56,-343.73 1867.56,-335.54"/>
<polygon fill="black" stroke="black" points="1871.06,-335.62 1867.56,-325.62 1864.06,-335.62 1871.06,-335.62"/>
</g>
<!-- 24&#45;&gt;12 -->
<g id="edge27" class="edge">
<title>24&#45;&gt;12</title>
<path fill="none" stroke="black" d="M3574.04,-2188.51C3934.23,-2173.05 4289.56,-2137.42 4289.56,-2056.98 4289.56,-2056.98 4289.56,-2056.98 4289.56,-161 4289.56,-121.39 4282.21,-76.11 4276.65,-47.54"/>
<polygon fill="black" stroke="black" points="4280.11,-46.98 4274.7,-37.87 4273.25,-48.37 4280.11,-46.98"/>
</g>
<!-- 24&#45;&gt;55 -->
<g id="edge28" class="edge">
<title>24&#45;&gt;55</title>
<path fill="none" stroke="black" d="M2828.56,-2181.68C2828.56,-2174.39 2828.56,-2165.71 2828.56,-2157.52"/>
<polygon fill="black" stroke="black" points="2832.06,-2157.6 2828.56,-2147.6 2825.06,-2157.6 2832.06,-2157.6"/>
</g>
<!-- 25 -->
<g id="node26" class="node">
<title>25</title>
<ellipse fill="none" stroke="black" cx="1458.56" cy="-162" rx="1016.11" ry="18"/>
<text text-anchor="middle" x="1458.56" y="-156.95" font-family="Times New Roman,serif" font-size="14.00">Rhetoric: You keep saying things like *down with the bourgeoisie*, *eat the rich*, *sodomize the land&#45;owners*, *impale all people who have more than 25 reál in their pocket*, *literally murder all human beings regardless of their political beliefs* &#45;&#45; that kind of stuff.</text>
</g>
<!-- 25&#45;&gt;7 -->
<g id="edge31" class="edge">
<title>25&#45;&gt;7</title>
<path fill="none" stroke="black" d="M1289.87,-143.79C1167.33,-131.28 1004.36,-114.65 894.34,-103.43"/>
<polygon fill="black" stroke="black" points="895.01,-99.98 884.7,-102.44 894.3,-106.94 895.01,-99.98"/>
</g>
<!-- 25&#45;&gt;16 -->
<g id="edge29" class="edge">
<title>25&#45;&gt;16</title>
<path fill="none" stroke="black" d="M1437.3,-143.7C1426.86,-135.2 1414.1,-124.81 1402.68,-115.51"/>
<polygon fill="black" stroke="black" points="1405.01,-112.9 1395.05,-109.3 1400.59,-118.33 1405.01,-112.9"/>
</g>
<!-- 28 -->
<g id="node29" class="node">
<title>28</title>
<ellipse fill="none" stroke="black" cx="2588.56" cy="-90" rx="946.5" ry="18"/>
<text text-anchor="middle" x="2588.56" y="-84.95" font-family="Times New Roman,serif" font-size="14.00">Rhetoric: So, what about all that communism you&#39;ve promised to build? Word on the street is you&#39;ve woken up from a thousand years of slumber, promising to erect a version of communism many times greater than any attempted before. Is that true?</text>
</g>
<!-- 25&#45;&gt;28 -->
<g id="edge30" class="edge">
<title>25&#45;&gt;28</title>
<path fill="none" stroke="black" d="M1729.94,-144.19C1904.47,-133.38 2130.75,-119.36 2307.2,-108.43"/>
<polygon fill="black" stroke="black" points="2307.21,-111.94 2316.97,-107.82 2306.78,-104.95 2307.21,-111.94"/>
</g>
<!-- 26 -->
<g id="node27" class="node">
<title>26</title>
<ellipse fill="none" stroke="black" cx="1952.56" cy="-1119.98" rx="381.98" ry="18"/>
<text text-anchor="middle" x="1952.56" y="-1114.93" font-family="Times New Roman,serif" font-size="14.00">Rhetoric: Too late to back out now. You can&#39;t make an omelet without breaking a few million eggs!</text>
</g>
<!-- 38 -->
<g id="node39" class="node">
<title>38</title>
<ellipse fill="none" stroke="black" cx="1952.56" cy="-1036.99" rx="61.08" ry="18"/>
<text text-anchor="middle" x="1952.56" y="-1031.94" font-family="Times New Roman,serif" font-size="14.00">You: &#39;Again&#39;?</text>
</g>
<!-- 26&#45;&gt;38 -->
<g id="edge32" class="edge">
<title>26&#45;&gt;38</title>
<path fill="none" stroke="black" d="M1952.56,-1101.81C1952.56,-1091.67 1952.56,-1078.59 1952.56,-1066.91"/>
<polygon fill="black" stroke="black" points="1956.06,-1066.94 1952.56,-1056.94 1949.06,-1066.94 1956.06,-1066.94"/>
</g>
<!-- 27&#45;&gt;21 -->
<g id="edge33" class="edge">
<title>27&#45;&gt;21</title>
<path fill="none" stroke="black" d="M3199.8,-936.59C3228.97,-926.86 3266.23,-914.44 3297.53,-904.01"/>
<polygon fill="black" stroke="black" points="3298.52,-907.37 3306.9,-900.89 3296.3,-900.73 3298.52,-907.37"/>
</g>
<!-- 28&#45;&gt;12 -->
<g id="edge34" class="edge">
<title>28&#45;&gt;12</title>
<path fill="none" stroke="black" d="M2971.02,-73.08C3316.85,-58.69 3811.67,-38.1 4079.96,-26.93"/>
<polygon fill="black" stroke="black" points="4080.02,-30.43 4089.87,-26.52 4079.73,-23.44 4080.02,-30.43"/>
</g>
<!-- 28&#45;&gt;55 -->
<g id="edge35" class="edge">
<title>28&#45;&gt;55</title>
<path fill="none" stroke="black" d="M2579.65,-108.42C2567.06,-134.7 2545.56,-186.38 2545.56,-233 2545.56,-379 2545.56,-379 2545.56,-379 2545.56,-446.86 2418.54,-906.85 2399.56,-972 2377.79,-1046.75 2406.26,-1091.82 2343.56,-1137.98 2276.3,-1187.51 898.91,-1114.22 840.56,-1173.98 829.38,-1185.43 834.1,-1195.35 840.56,-1209.98 1160.79,-1935.12 2278.69,-2087.36 2682.03,-2118.89"/>
<polygon fill="black" stroke="black" points="2681.72,-2122.37 2691.96,-2119.65 2682.25,-2115.39 2681.72,-2122.37"/>
</g>
<!-- 29&#45;&gt;4 -->
<g id="edge36" class="edge">
<title>29&#45;&gt;4</title>
<path fill="none" stroke="black" d="M1966.67,-2401.65C1914.91,-2391.18 1842.06,-2376.44 1783.63,-2364.62"/>
<polygon fill="black" stroke="black" points="1784.5,-2361.23 1774,-2362.67 1783.11,-2368.09 1784.5,-2361.23"/>
</g>
<!-- 30 -->
<g id="node31" class="node">
<title>30</title>
<ellipse fill="none" stroke="black" cx="1272.56" cy="-666" rx="94.86" ry="18"/>
<text text-anchor="middle" x="1272.56" y="-660.95" font-family="Times New Roman,serif" font-size="14.00">Jump to: [big_builder]</text>
</g>
<!-- 30&#45;&gt;54 -->
<g id="edge37" class="edge">
<title>30&#45;&gt;54</title>
<path fill="none" stroke="black" d="M1269.93,-647.56C1266.13,-620.82 1259.56,-568.06 1259.56,-523 1259.56,-523 1259.56,-523 1259.56,-377 1259.56,-336.55 1254.05,-320.18 1278.56,-288 1288.68,-274.71 1303.08,-264.45 1317.89,-256.65"/>
<polygon fill="black" stroke="black" points="1319.34,-259.84 1326.8,-252.31 1316.27,-253.55 1319.34,-259.84"/>
</g>
<!-- 31 -->
<g id="node32" class="node">
<title>31</title>
<ellipse fill="none" stroke="black" cx="2846.56" cy="-2055.98" rx="475.13" ry="18"/>
<text text-anchor="middle" x="2846.56" y="-2050.93" font-family="Times New Roman,serif" font-size="14.00">Electrochemistry: Did someone mention cocaine? Are we doing cocaine? No? I&#39;m sure I heard someone say Cocainimism...</text>
</g>
<!-- 31&#45;&gt;5 -->
<g id="edge38" class="edge">
<title>31&#45;&gt;5</title>
<path fill="none" stroke="black" d="M2847.06,-2037.68C2847.26,-2030.39 2847.51,-2021.71 2847.75,-2013.52"/>
<polygon fill="black" stroke="black" points="2851.24,-2013.7 2848.03,-2003.6 2844.24,-2013.5 2851.24,-2013.7"/>
</g>
<!-- 32 -->
<g id="node33" class="node">
<title>32</title>
<ellipse fill="none" stroke="black" cx="1819.56" cy="-594" rx="99.97" ry="18"/>
<text text-anchor="middle" x="1819.56" y="-588.95" font-family="Times New Roman,serif" font-size="14.00">You: What should I do?</text>
</g>
<!-- 32&#45;&gt;15 -->
<g id="edge39" class="edge">
<title>32&#45;&gt;15</title>
<path fill="none" stroke="black" d="M1819.56,-575.7C1819.56,-568.41 1819.56,-559.73 1819.56,-551.54"/>
<polygon fill="black" stroke="black" points="1823.06,-551.62 1819.56,-541.62 1816.06,-551.62 1823.06,-551.62"/>
</g>
<!-- 33 -->
<g id="node34" class="node">
<title>33</title>
<ellipse fill="none" stroke="black" cx="2906.56" cy="-1767.98" rx="89.74" ry="18"/>
<text text-anchor="middle" x="2906.56" y="-1762.93" font-family="Times New Roman,serif" font-size="14.00">Rhetoric: Hey, psst...</text>
</g>
<!-- 45 -->
<g id="node46" class="node">
<title>45</title>
<ellipse fill="none" stroke="black" cx="2844.56" cy="-1623.98" rx="81.55" ry="18"/>
<text text-anchor="middle" x="2844.56" y="-1618.93" font-family="Times New Roman,serif" font-size="14.00">You: Look around.</text>
</g>
<!-- 33&#45;&gt;45 -->
<g id="edge40" class="edge">
<title>33&#45;&gt;45</title>
<path fill="none" stroke="black" d="M2926.3,-1750.17C2945.2,-1731.97 2968.76,-1702.28 2953.56,-1677.98 2943.3,-1661.58 2926.34,-1650.12 2908.83,-1642.17"/>
<polygon fill="black" stroke="black" points="2910.48,-1639.07 2899.9,-1638.47 2907.79,-1645.53 2910.48,-1639.07"/>
</g>
<!-- 46 -->
<g id="node47" class="node">
<title>46</title>
<ellipse fill="none" stroke="black" cx="2841.56" cy="-1695.98" rx="102.53" ry="18"/>
<text text-anchor="middle" x="2841.56" y="-1690.93" font-family="Times New Roman,serif" font-size="14.00">Rhetoric: Psst, hey, you!</text>
</g>
<!-- 33&#45;&gt;46 -->
<g id="edge41" class="edge">
<title>33&#45;&gt;46</title>
<path fill="none" stroke="black" d="M2890.83,-1750.04C2883,-1741.61 2873.39,-1731.26 2864.74,-1721.95"/>
<polygon fill="black" stroke="black" points="2867.55,-1719.83 2858.18,-1714.88 2862.42,-1724.59 2867.55,-1719.83"/>
</g>
<!-- 34&#45;&gt;3 -->
<g id="edge43" class="edge">
<title>34&#45;&gt;3</title>
<path fill="none" stroke="black" d="M2713.67,-2541.72C2633.43,-2529.67 2527.79,-2513.8 2453.42,-2502.63"/>
<polygon fill="black" stroke="black" points="2454.13,-2499.2 2443.72,-2501.17 2453.09,-2506.12 2454.13,-2499.2"/>
</g>
<!-- 34&#45;&gt;11 -->
<g id="edge42" class="edge">
<title>34&#45;&gt;11</title>
<path fill="none" stroke="black" d="M2909.04,-2541.64C3033.32,-2514.86 3271,-2463.65 3399.64,-2435.93"/>
<polygon fill="black" stroke="black" points="3400.09,-2439.41 3409.13,-2433.88 3398.62,-2432.57 3400.09,-2439.41"/>
</g>
<!-- 34&#45;&gt;20 -->
<g id="edge44" class="edge">
<title>34&#45;&gt;20</title>
<path fill="none" stroke="black" d="M2828.56,-2541.68C2828.56,-2534.39 2828.56,-2525.71 2828.56,-2517.52"/>
<polygon fill="black" stroke="black" points="2832.06,-2517.6 2828.56,-2507.6 2825.06,-2517.6 2832.06,-2517.6"/>
</g>
<!-- 35 -->
<g id="node36" class="node">
<title>35</title>
<ellipse fill="none" stroke="black" cx="1897.56" cy="-954" rx="493.04" ry="18"/>
<text text-anchor="middle" x="1897.56" y="-948.95" font-family="Times New Roman,serif" font-size="14.00">Rhetoric: Very well. I guess no one will build Communism then. Tell the working man it&#39;s over. Unless anyone has... objections?</text>
</g>
<!-- 35&#45;&gt;18 -->
<g id="edge45" class="edge">
<title>35&#45;&gt;18</title>
<path fill="none" stroke="black" d="M1884.71,-935.7C1878.79,-927.73 1871.63,-918.1 1865.07,-909.26"/>
<polygon fill="black" stroke="black" points="1867.94,-907.26 1859.17,-901.32 1862.32,-911.43 1867.94,-907.26"/>
</g>
<!-- 40 -->
<g id="node41" class="node">
<title>40</title>
<ellipse fill="none" stroke="black" cx="1664.56" cy="-1191.98" rx="814.97" ry="18"/>
<text text-anchor="middle" x="1664.56" y="-1186.93" font-family="Times New Roman,serif" font-size="14.00">Rhetoric: Yes! Abject failure. Total, irreversible defeat on all fronts! Absolutely vanquished, beaten, curb&#45;stomped and pissed on &#45;&#45; until *you* came along! *You* will reverse the fortune of the workers of the world.</text>
</g>
<!-- 36&#45;&gt;40 -->
<g id="edge46" class="edge">
<title>36&#45;&gt;40</title>
<path fill="none" stroke="black" d="M1513.25,-1245.68C1540.67,-1236.13 1574.94,-1224.2 1603.92,-1214.1"/>
<polygon fill="black" stroke="black" points="1605.03,-1217.42 1613.32,-1210.83 1602.73,-1210.81 1605.03,-1217.42"/>
</g>
<!-- 37 -->
<g id="node38" class="node">
<title>37</title>
<ellipse fill="none" stroke="black" cx="3553.56" cy="-1036.99" rx="325.27" ry="28.99"/>
<text text-anchor="middle" x="3553.56" y="-1040.19" font-family="Times New Roman,serif" font-size="14.00">You: Roll your sleeves up further and breathe in the pristine air. [Finish thought.]</text>
<text text-anchor="middle" x="3553.56" y="-1023.69" font-family="Times New Roman,serif" font-size="14.00">Roll your sleeves up and breathe in the pristine air. [Finish thought.]</text>
</g>
<!-- 38&#45;&gt;35 -->
<g id="edge47" class="edge">
<title>38&#45;&gt;35</title>
<path fill="none" stroke="black" d="M1941.16,-1019.21C1933.82,-1008.39 1924.1,-994.08 1915.7,-981.71"/>
<polygon fill="black" stroke="black" points="1918.69,-979.88 1910.17,-973.57 1912.89,-983.81 1918.69,-979.88"/>
</g>
<!-- 40&#45;&gt;44 -->
<g id="edge48" class="edge">
<title>40&#45;&gt;44</title>
<path fill="none" stroke="black" d="M1334.23,-1208.88C1226.56,-1217.1 1129.54,-1229.07 1110.56,-1245.98 1080.37,-1272.89 1091.56,-1294.54 1091.56,-1334.98 1091.56,-2128.98 1091.56,-2128.98 1091.56,-2128.98 1091.56,-2173.92 1102.73,-2192.23 1139.56,-2217.98 1183.33,-2248.58 1325,-2261.81 1418.43,-2267.31"/>
<polygon fill="black" stroke="black" points="1418.16,-2270.8 1428.35,-2267.87 1418.56,-2263.81 1418.16,-2270.8"/>
</g>
<!-- 41&#45;&gt;32 -->
<g id="edge49" class="edge">
<title>41&#45;&gt;32</title>
<path fill="none" stroke="black" d="M1819.56,-647.7C1819.56,-640.41 1819.56,-631.73 1819.56,-623.54"/>
<polygon fill="black" stroke="black" points="1823.06,-623.62 1819.56,-613.62 1816.06,-623.62 1823.06,-623.62"/>
</g>
<!-- 42&#45;&gt;14 -->
<g id="edge50" class="edge">
<title>42&#45;&gt;14</title>
<path fill="none" stroke="black" d="M1819.56,-791.7C1819.56,-784.41 1819.56,-775.73 1819.56,-767.54"/>
<polygon fill="black" stroke="black" points="1823.06,-767.62 1819.56,-757.62 1816.06,-767.62 1823.06,-767.62"/>
</g>
<!-- 42&#45;&gt;30 -->
<g id="edge51" class="edge">
<title>42&#45;&gt;30</title>
<path fill="none" stroke="black" d="M1758.93,-793.26C1655.23,-766.34 1444.68,-711.68 1337.86,-683.95"/>
<polygon fill="black" stroke="black" points="1338.95,-680.62 1328.39,-681.49 1337.19,-687.39 1338.95,-680.62"/>
</g>
<!-- 48 -->
<g id="node49" class="node">
<title>48</title>
<ellipse fill="none" stroke="black" cx="3005.56" cy="-1191.98" rx="238.16" ry="18"/>
<text text-anchor="middle" x="3005.56" y="-1186.93" font-family="Times New Roman,serif" font-size="14.00">Variable[&quot;plaza.sense_rhetoric_communism_volition_fired&quot;]</text>
</g>
<!-- 43&#45;&gt;48 -->
<g id="edge52" class="edge">
<title>43&#45;&gt;48</title>
<path fill="none" stroke="black" d="M3005.56,-1245.68C3005.56,-1238.39 3005.56,-1229.71 3005.56,-1221.52"/>
<polygon fill="black" stroke="black" points="3009.06,-1221.6 3005.56,-1211.6 3002.06,-1221.6 3009.06,-1221.6"/>
</g>
<!-- 44&#45;&gt;10 -->
<g id="edge53" class="edge">
<title>44&#45;&gt;10</title>
<path fill="none" stroke="black" d="M1504.56,-2253.68C1504.56,-2246.39 1504.56,-2237.71 1504.56,-2229.52"/>
<polygon fill="black" stroke="black" points="1508.06,-2229.6 1504.56,-2219.6 1501.06,-2229.6 1508.06,-2229.6"/>
</g>
<!-- 47 -->
<g id="node48" class="node">
<title>47</title>
<ellipse fill="none" stroke="black" cx="2844.56" cy="-1551.98" rx="1078.55" ry="18"/>
<text text-anchor="middle" x="2844.56" y="-1546.93" font-family="Times New Roman,serif" font-size="14.00">Rhetoric: You &#45;&#45; against the atom, the charm and the spin. Where the whole world failed &#45;&#45; matter failed to bend to human will; human will failed to get out of bed and tie its laces &#45;&#45; you alone, single&#45;handedly, will rebuild the dreams of the working class. You are The Last Communist.</text>
</g>
<!-- 45&#45;&gt;47 -->
<g id="edge54" class="edge">
<title>45&#45;&gt;47</title>
<path fill="none" stroke="black" d="M2844.56,-1605.68C2844.56,-1598.39 2844.56,-1589.71 2844.56,-1581.52"/>
<polygon fill="black" stroke="black" points="2848.06,-1581.6 2844.56,-1571.6 2841.06,-1581.6 2848.06,-1581.6"/>
</g>
<!-- 46&#45;&gt;45 -->
<g id="edge55" class="edge">
<title>46&#45;&gt;45</title>
<path fill="none" stroke="black" d="M2842.3,-1677.68C2842.62,-1670.39 2842.99,-1661.71 2843.34,-1653.52"/>
<polygon fill="black" stroke="black" points="2846.83,-1653.74 2843.76,-1643.6 2839.84,-1653.44 2846.83,-1653.74"/>
</g>
<!-- 56 -->
<g id="node57" class="node">
<title>56</title>
<ellipse fill="none" stroke="black" cx="2844.56" cy="-1479.98" rx="730.52" ry="18"/>
<text text-anchor="middle" x="2844.56" y="-1474.93" font-family="Times New Roman,serif" font-size="14.00">Rhetoric: Oh yes, the *mask of ambivalence*. Don&#39;t deny it. You&#39;re about to rip it off and reveal the monstrous seven&#45;eyed lamb of global communism that will devour and masticate mankind.</text>
</g>
<!-- 47&#45;&gt;56 -->
<g id="edge56" class="edge">
<title>47&#45;&gt;56</title>
<path fill="none" stroke="black" d="M2844.56,-1533.68C2844.56,-1526.39 2844.56,-1517.71 2844.56,-1509.52"/>
<polygon fill="black" stroke="black" points="2848.06,-1509.6 2844.56,-1499.6 2841.06,-1509.6 2848.06,-1509.6"/>
</g>
<!-- 50 -->
<g id="node51" class="node">
<title>50</title>
<polygon fill="none" stroke="black" points="3553.56,-1137.98 3203.72,-1119.98 3553.56,-1101.98 3903.4,-1119.98 3553.56,-1137.98"/>
<text text-anchor="middle" x="3553.56" y="-1114.93" font-family="Times New Roman,serif" font-size="14.00">!(Variable[&quot;plaza.sense_rhetoric_communism_volition_fired&quot;])</text>
</g>
<!-- 48&#45;&gt;50 -->
<g id="edge57" class="edge">
<title>48&#45;&gt;50</title>
<path fill="none" stroke="black" d="M3123.46,-1175.92C3218.73,-1163.75 3351.79,-1146.76 3444.59,-1134.9"/>
<polygon fill="black" stroke="black" points="3445.01,-1138.38 3454.49,-1133.64 3444.12,-1131.43 3445.01,-1138.38"/>
</g>
<!-- 51 -->
<g id="node52" class="node">
<title>51</title>
<ellipse fill="none" stroke="black" cx="2908.56" cy="-1119.98" rx="277.06" ry="18"/>
<text text-anchor="middle" x="2908.56" y="-1114.93" font-family="Times New Roman,serif" font-size="14.00">Rhetoric: Oh yeah! Get the firing squads and the animal wagons ready!</text>
</g>
<!-- 48&#45;&gt;51 -->
<g id="edge58" class="edge">
<title>48&#45;&gt;51</title>
<path fill="none" stroke="black" d="M2981.58,-1173.68C2969.57,-1165.01 2954.84,-1154.38 2941.77,-1144.95"/>
<polygon fill="black" stroke="black" points="2943.98,-1142.23 2933.83,-1139.22 2939.89,-1147.91 2943.98,-1142.23"/>
</g>
<!-- 49&#45;&gt;19 -->
<g id="edge60" class="edge">
<title>49&#45;&gt;19</title>
<path fill="none" stroke="black" d="M3179.76,-1836.11C3562.91,-1828.37 4213.56,-1800.05 4213.56,-1696.98 4213.56,-1696.98 4213.56,-1696.98 4213.56,-953 4213.56,-912.55 4223.37,-892.39 4194.56,-864 3934.53,-607.8 2831.46,-500.97 2342.99,-465.62"/>
<polygon fill="black" stroke="black" points="2343.3,-462.14 2333.07,-464.91 2342.8,-469.12 2343.3,-462.14"/>
</g>
<!-- 49&#45;&gt;33 -->
<g id="edge59" class="edge">
<title>49&#45;&gt;33</title>
<path fill="none" stroke="black" d="M2906.56,-1821.68C2906.56,-1814.39 2906.56,-1805.71 2906.56,-1797.52"/>
<polygon fill="black" stroke="black" points="2910.06,-1797.6 2906.56,-1787.6 2903.06,-1797.6 2910.06,-1797.6"/>
</g>
<!-- 50&#45;&gt;37 -->
<g id="edge61" class="edge">
<title>50&#45;&gt;37</title>
<path fill="none" stroke="black" d="M3553.56,-1101.81C3553.56,-1094.72 3553.56,-1086.19 3553.56,-1077.7"/>
<polygon fill="black" stroke="black" points="3557.06,-1077.81 3553.56,-1067.81 3550.06,-1077.81 3557.06,-1077.81"/>
</g>
<!-- 51&#45;&gt;6 -->
<g id="edge63" class="edge">
<title>51&#45;&gt;6</title>
<path fill="none" stroke="black" d="M2911.95,-1101.81C2913.98,-1091.57 2916.6,-1078.31 2918.92,-1066.54"/>
<polygon fill="black" stroke="black" points="2922.32,-1067.4 2920.82,-1056.91 2915.45,-1066.04 2922.32,-1067.4"/>
</g>
<!-- 51&#45;&gt;38 -->
<g id="edge62" class="edge">
<title>51&#45;&gt;38</title>
<path fill="none" stroke="black" d="M2744.49,-1105.08C2532.39,-1087.11 2172.46,-1056.62 2021.95,-1043.87"/>
<polygon fill="black" stroke="black" points="2022.39,-1040.39 2012.13,-1043.04 2021.8,-1047.37 2022.39,-1040.39"/>
</g>
<!-- 52&#45;&gt;54 -->
<g id="edge64" class="edge">
<title>52&#45;&gt;54</title>
<path fill="none" stroke="black" d="M1748.74,-287.92C1670.37,-276.66 1568.42,-262 1491.67,-250.97"/>
<polygon fill="black" stroke="black" points="1492.43,-247.54 1482.03,-249.59 1491.43,-254.47 1492.43,-247.54"/>
</g>
<!-- 53&#45;&gt;8 -->
<g id="edge65" class="edge">
<title>53&#45;&gt;8</title>
<path fill="none" stroke="black" d="M2858.31,-1390.39C2865.04,-1382.27 2873.31,-1372.29 2880.87,-1363.17"/>
<polygon fill="black" stroke="black" points="2883.45,-1365.53 2887.14,-1355.59 2878.06,-1361.06 2883.45,-1365.53"/>
</g>
<!-- 53&#45;&gt;22 -->
<g id="edge66" class="edge">
<title>53&#45;&gt;22</title>
<path fill="none" stroke="black" d="M2792.04,-1404.28C2616.88,-1395.27 2045.35,-1365.88 1718.5,-1349.07"/>
<polygon fill="black" stroke="black" points="1719.14,-1345.59 1708.97,-1348.58 1718.78,-1352.59 1719.14,-1345.59"/>
</g>
<!-- 53&#45;&gt;23 -->
<g id="edge67" class="edge">
<title>53&#45;&gt;23</title>
<path fill="none" stroke="black" d="M2791.76,-1404.33C2595.65,-1393.93 1917.22,-1353.05 1854.56,-1281.98 1843.98,-1269.98 1843.57,-1257.61 1854.56,-1245.98 1903.02,-1194.7 2434.99,-1255.9 2488.56,-1209.98 2519.27,-1183.66 2507.56,-1161.43 2507.56,-1120.98 2507.56,-1120.98 2507.56,-1120.98 2507.56,-521 2507.56,-480.55 2518.89,-458.76 2488.56,-432 2460.23,-407.01 2278.02,-393.51 2118.24,-386.41"/>
<polygon fill="black" stroke="black" points="2118.43,-382.91 2108.29,-385.97 2118.12,-389.91 2118.43,-382.91"/>
</g>
<!-- 54&#45;&gt;25 -->
<g id="edge68" class="edge">
<title>54&#45;&gt;25</title>
<path fill="none" stroke="black" d="M1399.84,-215.7C1409.22,-207.28 1420.66,-197.02 1430.94,-187.79"/>
<polygon fill="black" stroke="black" points="1433,-190.64 1438.11,-181.36 1428.32,-185.43 1433,-190.64"/>
</g>
<!-- 55&#45;&gt;31 -->
<g id="edge69" class="edge">
<title>55&#45;&gt;31</title>
<path fill="none" stroke="black" d="M2833.01,-2109.68C2834.91,-2102.3 2837.17,-2093.51 2839.3,-2085.23"/>
<polygon fill="black" stroke="black" points="2842.69,-2086.11 2841.79,-2075.55 2835.91,-2084.37 2842.69,-2086.11"/>
</g>
<!-- 56&#45;&gt;53 -->
<g id="edge70" class="edge">
<title>56&#45;&gt;53</title>
<path fill="none" stroke="black" d="M2844.56,-1461.68C2844.56,-1454.39 2844.56,-1445.71 2844.56,-1437.52"/>
<polygon fill="black" stroke="black" points="2848.06,-1437.6 2844.56,-1427.6 2841.06,-1437.6 2848.06,-1437.6"/>
</g>
</g>
</svg>
