<?xml version="1.0" encoding="UTF-8" standalone="no"?>
<!DOCTYPE svg PUBLIC "-//W3C//DTD SVG 1.1//EN"
 "http://www.w3.org/Graphics/SVG/1.1/DTD/svg11.dtd">
<!-- Generated by graphviz version 12.2.1 (20241206.2353)
 -->
<!-- Title: G Pages: 1 -->
<svg width="4188pt" height="476pt"
 viewBox="0.00 0.00 4187.51 476.00" xmlns="http://www.w3.org/2000/svg" xmlns:xlink="http://www.w3.org/1999/xlink">
<g id="graph0" class="graph" transform="scale(1 1) rotate(0) translate(4 472)">
<title>G</title>
<polygon fill="white" stroke="none" points="-4,4 -4,-472 4183.51,-472 4183.51,4 -4,4"/>
<!-- 0 -->
<g id="node1" class="node">
<title>0</title>
<ellipse fill="none" stroke="black" cx="696.74" cy="-450" rx="39.07" ry="18"/>
<text text-anchor="middle" x="696.74" y="-444.95" font-family="Times New Roman,serif" font-size="14.00">START</text>
</g>
<!-- 1 -->
<g id="node2" class="node">
<title>1</title>
<ellipse fill="none" stroke="black" cx="696.74" cy="-378" rx="29.86" ry="18"/>
<text text-anchor="middle" x="696.74" y="-372.95" font-family="Times New Roman,serif" font-size="14.00">input</text>
</g>
<!-- 0&#45;&gt;1 -->
<g id="edge1" class="edge">
<title>0&#45;&gt;1</title>
<path fill="none" stroke="black" d="M696.74,-431.7C696.74,-424.41 696.74,-415.73 696.74,-407.54"/>
<polygon fill="black" stroke="black" points="700.24,-407.62 696.74,-397.62 693.24,-407.62 700.24,-407.62"/>
</g>
<!-- 7 -->
<g id="node8" class="node">
<title>7</title>
<ellipse fill="none" stroke="black" cx="696.74" cy="-306" rx="696.74" ry="18"/>
<text text-anchor="middle" x="696.74" y="-300.95" font-family="Times New Roman,serif" font-size="14.00">Physical Instrument: Son, you&#39;ve really let yourself go &#45;&#45; it&#39;s a disgrace. But Coach Physical Instrument is going to get you back in prime condition. Even if it takes a million push&#45;ups!</text>
</g>
<!-- 1&#45;&gt;7 -->
<g id="edge2" class="edge">
<title>1&#45;&gt;7</title>
<path fill="none" stroke="black" d="M696.74,-359.7C696.74,-352.41 696.74,-343.73 696.74,-335.54"/>
<polygon fill="black" stroke="black" points="700.24,-335.62 696.74,-325.62 693.24,-335.62 700.24,-335.62"/>
</g>
<!-- 2 -->
<g id="node3" class="node">
<title>2</title>
<ellipse fill="none" stroke="black" cx="1963.74" cy="-450" rx="700.32" ry="18"/>
<text text-anchor="middle" x="1963.74" y="-444.95" font-family="Times New Roman,serif" font-size="14.00">Physical Instrument: When a man sets his mind and body on something and gives his hundred and ten percent, he is sometimes going to piss himself. It just happens. No shame in that.</text>
</g>
<!-- 6 -->
<g id="node7" class="node">
<title>6</title>
<ellipse fill="none" stroke="black" cx="1811.74" cy="-306" rx="193.63" ry="18"/>
<text text-anchor="middle" x="1811.74" y="-300.95" font-family="Times New Roman,serif" font-size="14.00">You: Let&#39;s do this, coach, I&#39;m with you! (Opt in.)</text>
</g>
<!-- 2&#45;&gt;6 -->
<g id="edge4" class="edge">
<title>2&#45;&gt;6</title>
<path fill="none" stroke="black" d="M1931.19,-431.73C1915.08,-422.34 1895.89,-409.83 1880.74,-396 1860.42,-377.45 1841.59,-352.41 1828.76,-333.61"/>
<polygon fill="black" stroke="black" points="1831.75,-331.78 1823.28,-325.41 1825.92,-335.67 1831.75,-331.78"/>
</g>
<!-- 13 -->
<g id="node14" class="node">
<title>13</title>
<ellipse fill="none" stroke="black" cx="1963.74" cy="-378" rx="73.87" ry="18"/>
<text text-anchor="middle" x="1963.74" y="-372.95" font-family="Times New Roman,serif" font-size="14.00">physintimidating</text>
</g>
<!-- 2&#45;&gt;13 -->
<g id="edge3" class="edge">
<title>2&#45;&gt;13</title>
<path fill="none" stroke="black" d="M1963.74,-431.7C1963.74,-424.41 1963.74,-415.73 1963.74,-407.54"/>
<polygon fill="black" stroke="black" points="1967.24,-407.62 1963.74,-397.62 1960.24,-407.62 1967.24,-407.62"/>
</g>
<!-- 3 -->
<g id="node4" class="node">
<title>3</title>
<ellipse fill="none" stroke="black" cx="363.74" cy="-90" rx="194.15" ry="18"/>
<text text-anchor="middle" x="363.74" y="-84.95" font-family="Times New Roman,serif" font-size="14.00">You: Yes sir! Forge me into organic steel, coach!</text>
</g>
<!-- 15 -->
<g id="node16" class="node">
<title>15</title>
<ellipse fill="none" stroke="black" cx="363.74" cy="-18" rx="27" ry="18"/>
<text text-anchor="middle" x="363.74" y="-12.95" font-family="Times New Roman,serif" font-size="14.00">15</text>
</g>
<!-- 3&#45;&gt;15 -->
<g id="edge5" class="edge">
<title>3&#45;&gt;15</title>
<path fill="none" stroke="black" d="M363.74,-71.7C363.74,-64.41 363.74,-55.73 363.74,-47.54"/>
<polygon fill="black" stroke="black" points="367.24,-47.62 363.74,-37.62 360.24,-47.62 367.24,-47.62"/>
</g>
<!-- 4 -->
<g id="node5" class="node">
<title>4</title>
<ellipse fill="none" stroke="black" cx="696.74" cy="-234" rx="414.74" ry="18"/>
<text text-anchor="middle" x="696.74" y="-228.95" font-family="Times New Roman,serif" font-size="14.00">You: Coach Physical Instrument? Does that mean you&#39;ll call me a maggot and a nancy&#45;boy to motivate me?</text>
</g>
<!-- 8 -->
<g id="node9" class="node">
<title>8</title>
<ellipse fill="none" stroke="black" cx="696.74" cy="-162" rx="533.47" ry="18"/>
<text text-anchor="middle" x="696.74" y="-156.95" font-family="Times New Roman,serif" font-size="14.00">Physical Instrument: Does a master swordsman insult his own blade? No! I&#39;m going to turn you into an athletic bench&#45;mark, you big pussy!</text>
</g>
<!-- 4&#45;&gt;8 -->
<g id="edge6" class="edge">
<title>4&#45;&gt;8</title>
<path fill="none" stroke="black" d="M696.74,-215.7C696.74,-208.41 696.74,-199.73 696.74,-191.54"/>
<polygon fill="black" stroke="black" points="700.24,-191.62 696.74,-181.62 693.24,-191.62 700.24,-191.62"/>
</g>
<!-- 5 -->
<g id="node6" class="node">
<title>5</title>
<ellipse fill="none" stroke="black" cx="2113.74" cy="-306" rx="90.25" ry="18"/>
<text text-anchor="middle" x="2113.74" y="-300.95" font-family="Times New Roman,serif" font-size="14.00">You: Wait, why piss?</text>
</g>
<!-- 5&#45;&gt;2 -->
<g id="edge7" class="edge">
<title>5&#45;&gt;2</title>
<path fill="none" stroke="black" d="M2107.72,-324.32C2100.22,-343.79 2085.78,-375.38 2064.74,-396 2052.1,-408.39 2035.96,-418.6 2020.32,-426.62"/>
<polygon fill="black" stroke="black" points="2018.97,-423.39 2011.52,-430.92 2022.04,-429.68 2018.97,-423.39"/>
</g>
<!-- 12 -->
<g id="node13" class="node">
<title>12</title>
<ellipse fill="none" stroke="black" cx="1811.74" cy="-234" rx="286.27" ry="18"/>
<text text-anchor="middle" x="1811.74" y="-228.95" font-family="Times New Roman,serif" font-size="14.00">You: Too much abuse for my taste. I&#39;m more of an intellectual. (Opt out.)</text>
</g>
<!-- 6&#45;&gt;12 -->
<g id="edge8" class="edge">
<title>6&#45;&gt;12</title>
<path fill="none" stroke="black" d="M1811.74,-287.7C1811.74,-280.41 1811.74,-271.73 1811.74,-263.54"/>
<polygon fill="black" stroke="black" points="1815.24,-263.62 1811.74,-253.62 1808.24,-263.62 1815.24,-263.62"/>
</g>
<!-- 7&#45;&gt;3 -->
<g id="edge10" class="edge">
<title>7&#45;&gt;3</title>
<path fill="none" stroke="black" d="M428.71,-288.93C376.06,-280.93 321.94,-269.19 272.74,-252 214.74,-231.74 184.81,-233.57 154.74,-180 132.53,-140.43 172.51,-118.45 223.26,-106.24"/>
<polygon fill="black" stroke="black" points="223.77,-109.72 232.76,-104.11 222.23,-102.89 223.77,-109.72"/>
</g>
<!-- 7&#45;&gt;4 -->
<g id="edge11" class="edge">
<title>7&#45;&gt;4</title>
<path fill="none" stroke="black" d="M696.74,-287.7C696.74,-280.41 696.74,-271.73 696.74,-263.54"/>
<polygon fill="black" stroke="black" points="700.24,-263.62 696.74,-253.62 693.24,-263.62 700.24,-263.62"/>
</g>
<!-- 10 -->
<g id="node11" class="node">
<title>10</title>
<ellipse fill="none" stroke="black" cx="1142.74" cy="-90" rx="453.12" ry="18"/>
<text text-anchor="middle" x="1142.74" y="-84.95" font-family="Times New Roman,serif" font-size="14.00">Physical Instrument: Attention, attention! An old has&#45;been giving up! Come see the has&#45;been quitting again, everyone!</text>
</g>
<!-- 7&#45;&gt;10 -->
<g id="edge9" class="edge">
<title>7&#45;&gt;10</title>
<path fill="none" stroke="black" d="M964.77,-288.93C1017.42,-280.93 1071.54,-269.19 1120.74,-252 1178.74,-231.74 1208.67,-233.57 1238.74,-180 1246.57,-166.05 1246.87,-157.78 1238.74,-144 1231.18,-131.2 1219.3,-121.27 1206.44,-113.66"/>
<polygon fill="black" stroke="black" points="1208.27,-110.67 1197.8,-109 1204.94,-116.83 1208.27,-110.67"/>
</g>
<!-- 8&#45;&gt;3 -->
<g id="edge13" class="edge">
<title>8&#45;&gt;3</title>
<path fill="none" stroke="black" d="M614.85,-143.79C565.17,-133.34 501.8,-120.02 451.15,-109.37"/>
<polygon fill="black" stroke="black" points="451.87,-105.95 441.37,-107.32 450.43,-112.8 451.87,-105.95"/>
</g>
<!-- 8&#45;&gt;10 -->
<g id="edge12" class="edge">
<title>8&#45;&gt;10</title>
<path fill="none" stroke="black" d="M805.56,-143.92C871.63,-133.55 956.02,-120.31 1023.85,-109.66"/>
<polygon fill="black" stroke="black" points="1024.18,-113.15 1033.52,-108.14 1023.1,-106.24 1024.18,-113.15"/>
</g>
<!-- 9 -->
<g id="node10" class="node">
<title>9</title>
<ellipse fill="none" stroke="black" cx="2909.74" cy="-450" rx="227.93" ry="18"/>
<text text-anchor="middle" x="2909.74" y="-444.95" font-family="Times New Roman,serif" font-size="14.00">You: I&#39;m really, *really* not interested. [Discard thought.]</text>
</g>
<!-- 11 -->
<g id="node12" class="node">
<title>11</title>
<ellipse fill="none" stroke="black" cx="1811.74" cy="-162" rx="525.8" ry="18"/>
<text text-anchor="middle" x="1811.74" y="-156.95" font-family="Times New Roman,serif" font-size="14.00">Physical Instrument: Behold, world &#45;&#45; here walks a sportsman, hands chalked and hair kept back with a bandana. The *homo athleticus!*.</text>
</g>
<!-- 12&#45;&gt;11 -->
<g id="edge14" class="edge">
<title>12&#45;&gt;11</title>
<path fill="none" stroke="black" d="M1811.74,-215.7C1811.74,-208.41 1811.74,-199.73 1811.74,-191.54"/>
<polygon fill="black" stroke="black" points="1815.24,-191.62 1811.74,-181.62 1808.24,-191.62 1815.24,-191.62"/>
</g>
<!-- 13&#45;&gt;5 -->
<g id="edge16" class="edge">
<title>13&#45;&gt;5</title>
<path fill="none" stroke="black" d="M1997.03,-361.46C2018.21,-351.58 2045.9,-338.66 2069,-327.88"/>
<polygon fill="black" stroke="black" points="2070.29,-331.14 2077.87,-323.74 2067.33,-324.8 2070.29,-331.14"/>
</g>
<!-- 13&#45;&gt;6 -->
<g id="edge17" class="edge">
<title>13&#45;&gt;6</title>
<path fill="none" stroke="black" d="M1930.38,-361.64C1909.47,-352.01 1882.18,-339.44 1859.05,-328.79"/>
<polygon fill="black" stroke="black" points="1860.67,-325.68 1850.13,-324.68 1857.75,-332.04 1860.67,-325.68"/>
</g>
<!-- 13&#45;&gt;13 -->
<g id="edge15" class="edge">
<title>13&#45;&gt;13</title>
<path fill="none" stroke="black" d="M2014.76,-391.34C2036.77,-392.43 2055.61,-387.98 2055.61,-378 2055.61,-369.81 2042.93,-365.35 2026.23,-364.61"/>
<polygon fill="black" stroke="black" points="2026.26,-361.11 2016.27,-364.65 2026.29,-368.11 2026.26,-361.11"/>
</g>
<!-- 14 -->
<g id="node15" class="node">
<title>14</title>
<ellipse fill="none" stroke="black" cx="3658.74" cy="-450" rx="502.77" ry="18"/>
<text text-anchor="middle" x="3658.74" y="-444.95" font-family="Times New Roman,serif" font-size="14.00">Physical Instrument: It&#39;s going to take blood, sweat, piss, and tears, but when I&#39;m done with you, boy, you will be a Master Athlete!</text>
</g>
<!-- 14&#45;&gt;14 -->
<g id="edge18" class="edge">
<title>14&#45;&gt;14</title>
<path fill="none" stroke="black" d="M4004.29,-463.45C4103.22,-462.92 4179.51,-458.44 4179.51,-450 4179.51,-441.89 4109.07,-437.44 4015.78,-436.63"/>
<polygon fill="black" stroke="black" points="4015.83,-433.13 4005.81,-436.56 4015.78,-440.13 4015.83,-433.13"/>
</g>
</g>
</svg>
