<?xml version="1.0" encoding="UTF-8" standalone="no"?>
<!DOCTYPE svg PUBLIC "-//W3C//DTD SVG 1.1//EN"
 "http://www.w3.org/Graphics/SVG/1.1/DTD/svg11.dtd">
<!-- Generated by graphviz version 12.2.1 (20241206.2353)
 -->
<!-- Title: G Pages: 1 -->
<svg width="5838pt" height="692pt"
 viewBox="0.00 0.00 5837.94 692.00" xmlns="http://www.w3.org/2000/svg" xmlns:xlink="http://www.w3.org/1999/xlink">
<g id="graph0" class="graph" transform="scale(1 1) rotate(0) translate(4 688)">
<title>G</title>
<polygon fill="white" stroke="none" points="-4,4 -4,-688 5833.94,-688 5833.94,4 -4,4"/>
<!-- 0 -->
<g id="node1" class="node">
<title>0</title>
<ellipse fill="none" stroke="black" cx="2951.83" cy="-666" rx="39.07" ry="18"/>
<text text-anchor="middle" x="2951.83" y="-660.95" font-family="Times New Roman,serif" font-size="14.00">START</text>
</g>
<!-- 1 -->
<g id="node2" class="node">
<title>1</title>
<ellipse fill="none" stroke="black" cx="2951.83" cy="-594" rx="29.86" ry="18"/>
<text text-anchor="middle" x="2951.83" y="-588.95" font-family="Times New Roman,serif" font-size="14.00">input</text>
</g>
<!-- 0&#45;&gt;1 -->
<g id="edge1" class="edge">
<title>0&#45;&gt;1</title>
<path fill="none" stroke="black" d="M2951.83,-647.7C2951.83,-640.41 2951.83,-631.73 2951.83,-623.54"/>
<polygon fill="black" stroke="black" points="2955.33,-623.62 2951.83,-613.62 2948.33,-623.62 2955.33,-623.62"/>
</g>
<!-- 22 -->
<g id="node23" class="node">
<title>22</title>
<ellipse fill="none" stroke="black" cx="2951.83" cy="-522" rx="402.96" ry="18"/>
<text text-anchor="middle" x="2951.83" y="-516.95" font-family="Times New Roman,serif" font-size="14.00">Half Light: So you should be. The world island crumbles at your feet and in the far plain &#45;&#45; παλίντροπος.</text>
</g>
<!-- 1&#45;&gt;22 -->
<g id="edge2" class="edge">
<title>1&#45;&gt;22</title>
<path fill="none" stroke="black" d="M2951.83,-575.7C2951.83,-568.41 2951.83,-559.73 2951.83,-551.54"/>
<polygon fill="black" stroke="black" points="2955.33,-551.62 2951.83,-541.62 2948.33,-551.62 2955.33,-551.62"/>
</g>
<!-- 2 -->
<g id="node3" class="node">
<title>2</title>
<ellipse fill="none" stroke="black" cx="1356.83" cy="-306" rx="104.07" ry="18"/>
<text text-anchor="middle" x="1356.83" y="-300.95" font-family="Times New Roman,serif" font-size="14.00">You: I&#39;m... a little afraid.</text>
</g>
<!-- 23 -->
<g id="node24" class="node">
<title>23</title>
<ellipse fill="none" stroke="black" cx="938.83" cy="-234" rx="938.83" ry="18"/>
<text text-anchor="middle" x="938.83" y="-228.95" font-family="Times New Roman,serif" font-size="14.00">Half Light: Time for THE SHOW. For τὰ ὅλα. The hallowed time of fear and disintegration. A countdown has begun. All will collapse on itself. The world will disappear into a single grain of blackness. All sound will be muted. All life will scream.</text>
</g>
<!-- 2&#45;&gt;23 -->
<g id="edge3" class="edge">
<title>2&#45;&gt;23</title>
<path fill="none" stroke="black" d="M1284.02,-292.81C1220.5,-282.17 1127.25,-266.55 1053.68,-254.23"/>
<polygon fill="black" stroke="black" points="1054.45,-250.81 1044.01,-252.61 1053.29,-257.72 1054.45,-250.81"/>
</g>
<!-- 3 -->
<g id="node4" class="node">
<title>3</title>
<ellipse fill="none" stroke="black" cx="2951.83" cy="-450" rx="312.89" ry="18"/>
<text text-anchor="middle" x="2951.83" y="-444.95" font-family="Times New Roman,serif" font-size="14.00">Volition: Perhaps &#45;&#45; just a thought &#45;&#45; this has something to do with the hangover?</text>
</g>
<!-- 25 -->
<g id="node26" class="node">
<title>25</title>
<ellipse fill="none" stroke="black" cx="2951.83" cy="-378" rx="75.41" ry="18"/>
<text text-anchor="middle" x="2951.83" y="-372.95" font-family="Times New Roman,serif" font-size="14.00">Untitled hub (08)</text>
</g>
<!-- 3&#45;&gt;25 -->
<g id="edge4" class="edge">
<title>3&#45;&gt;25</title>
<path fill="none" stroke="black" d="M2951.83,-431.7C2951.83,-424.41 2951.83,-415.73 2951.83,-407.54"/>
<polygon fill="black" stroke="black" points="2955.33,-407.62 2951.83,-397.62 2948.33,-407.62 2955.33,-407.62"/>
</g>
<!-- 4 -->
<g id="node5" class="node">
<title>4</title>
<ellipse fill="none" stroke="black" cx="4508.83" cy="-162" rx="311.35" ry="18"/>
<text text-anchor="middle" x="4508.83" y="-156.95" font-family="Times New Roman,serif" font-size="14.00">Half Light: No. You cannot *leave*. The countdown has not yet reached XERO.</text>
</g>
<!-- 18 -->
<g id="node19" class="node">
<title>18</title>
<ellipse fill="none" stroke="black" cx="4508.83" cy="-90" rx="405.01" ry="18"/>
<text text-anchor="middle" x="4508.83" y="-84.95" font-family="Times New Roman,serif" font-size="14.00">You: Uhm... yeah, I&#39;m going to opt out of the &#39;παλίντροπος&#39; whatever it is. This was a mistake. (Opt out.)</text>
</g>
<!-- 4&#45;&gt;18 -->
<g id="edge5" class="edge">
<title>4&#45;&gt;18</title>
<path fill="none" stroke="black" d="M4508.83,-143.7C4508.83,-136.41 4508.83,-127.73 4508.83,-119.54"/>
<polygon fill="black" stroke="black" points="4512.33,-119.62 4508.83,-109.62 4505.33,-119.62 4512.33,-119.62"/>
</g>
<!-- 5 -->
<g id="node6" class="node">
<title>5</title>
<ellipse fill="none" stroke="black" cx="2144.83" cy="-234" rx="210.52" ry="18"/>
<text text-anchor="middle" x="2144.83" y="-228.95" font-family="Times New Roman,serif" font-size="14.00">You: Wait, wait &#45;&#45; when did this *countdown* begin?</text>
</g>
<!-- 13 -->
<g id="node14" class="node">
<title>13</title>
<ellipse fill="none" stroke="black" cx="1913.83" cy="-162" rx="200.8" ry="18"/>
<text text-anchor="middle" x="1913.83" y="-156.95" font-family="Times New Roman,serif" font-size="14.00">Half Light: It&#39;s *totally* also a coping mechanism.</text>
</g>
<!-- 5&#45;&gt;13 -->
<g id="edge6" class="edge">
<title>5&#45;&gt;13</title>
<path fill="none" stroke="black" d="M2089.5,-216.23C2056.62,-206.27 2014.71,-193.57 1980.07,-183.08"/>
<polygon fill="black" stroke="black" points="1981.14,-179.74 1970.55,-180.19 1979.11,-186.44 1981.14,-179.74"/>
</g>
<!-- 6 -->
<g id="node7" class="node">
<title>6</title>
<ellipse fill="none" stroke="black" cx="5463.83" cy="-18" rx="366.11" ry="18"/>
<text text-anchor="middle" x="5463.83" y="-12.95" font-family="Times New Roman,serif" font-size="14.00">Half Light: The face of the woman fractures. There will be herd killing. We all become vapour.</text>
</g>
<!-- 7 -->
<g id="node8" class="node">
<title>7</title>
<ellipse fill="none" stroke="black" cx="4508.83" cy="-18" rx="551.9" ry="18"/>
<text text-anchor="middle" x="4508.83" y="-12.95" font-family="Times New Roman,serif" font-size="14.00">Half Light: Okay, yes. Maybe it *is* just the hangover talking. Or some kind of joke you&#39;re playing on yourself instead of working on the case...</text>
</g>
<!-- 8 -->
<g id="node9" class="node">
<title>8</title>
<ellipse fill="none" stroke="black" cx="4508.83" cy="-234" rx="263.24" ry="18"/>
<text text-anchor="middle" x="4508.83" y="-228.95" font-family="Times New Roman,serif" font-size="14.00">You: Yeah... I don&#39;t think the time is *now*. Later maybe. [Leave.]</text>
</g>
<!-- 8&#45;&gt;4 -->
<g id="edge7" class="edge">
<title>8&#45;&gt;4</title>
<path fill="none" stroke="black" d="M4508.83,-215.7C4508.83,-208.41 4508.83,-199.73 4508.83,-191.54"/>
<polygon fill="black" stroke="black" points="4512.33,-191.62 4508.83,-181.62 4505.33,-191.62 4512.33,-191.62"/>
</g>
<!-- 9 -->
<g id="node10" class="node">
<title>9</title>
<ellipse fill="none" stroke="black" cx="2483.83" cy="-234" rx="110.21" ry="18"/>
<text text-anchor="middle" x="2483.83" y="-228.95" font-family="Times New Roman,serif" font-size="14.00">You: τὰ ὅλα? What&#39;s that?</text>
</g>
<!-- 10 -->
<g id="node11" class="node">
<title>10</title>
<ellipse fill="none" stroke="black" cx="2475.83" cy="-162" rx="327.73" ry="18"/>
<text text-anchor="middle" x="2475.83" y="-156.95" font-family="Times New Roman,serif" font-size="14.00">Half Light: οῦ λόγου δ&#39; ἐόντος ξυνοῦ ζώουσιν οἱ πολλοὶ ὡς ἰδίαν ἔχοντες φρόνησιν.</text>
</g>
<!-- 9&#45;&gt;10 -->
<g id="edge8" class="edge">
<title>9&#45;&gt;10</title>
<path fill="none" stroke="black" d="M2481.85,-215.7C2481.02,-208.41 2480.02,-199.73 2479.09,-191.54"/>
<polygon fill="black" stroke="black" points="2482.57,-191.15 2477.95,-181.61 2475.61,-191.94 2482.57,-191.15"/>
</g>
<!-- 12 -->
<g id="node13" class="node">
<title>12</title>
<ellipse fill="none" stroke="black" cx="1888.83" cy="-90" rx="542.69" ry="18"/>
<text text-anchor="middle" x="1888.83" y="-84.95" font-family="Times New Roman,serif" font-size="14.00">Half Light: Monday morning. The moment you arrived in this reality. You are the first crack in the sheer face of god. From you it will spread.</text>
</g>
<!-- 10&#45;&gt;12 -->
<g id="edge9" class="edge">
<title>10&#45;&gt;12</title>
<path fill="none" stroke="black" d="M2342.63,-145.12C2253.08,-134.44 2134.81,-120.33 2041.46,-109.2"/>
<polygon fill="black" stroke="black" points="2042.05,-105.75 2031.7,-108.04 2041.22,-112.7 2042.05,-105.75"/>
</g>
<!-- 11 -->
<g id="node12" class="node">
<title>11</title>
<ellipse fill="none" stroke="black" cx="5608.83" cy="-162" rx="116.86" ry="18"/>
<text text-anchor="middle" x="5608.83" y="-156.95" font-family="Times New Roman,serif" font-size="14.00">Jump to: [Untitled hub (04)]</text>
</g>
<!-- 20 -->
<g id="node21" class="node">
<title>20</title>
<ellipse fill="none" stroke="black" cx="5463.83" cy="-90" rx="212.57" ry="18"/>
<text text-anchor="middle" x="5463.83" y="-84.95" font-family="Times New Roman,serif" font-size="14.00">You: I *do* think the world might end soon. (Opt in.)</text>
</g>
<!-- 11&#45;&gt;20 -->
<g id="edge10" class="edge">
<title>11&#45;&gt;20</title>
<path fill="none" stroke="black" d="M5574.46,-144.41C5555.12,-135.07 5530.71,-123.29 5509.75,-113.17"/>
<polygon fill="black" stroke="black" points="5511.35,-110.05 5500.82,-108.86 5508.3,-116.36 5511.35,-110.05"/>
</g>
<!-- 12&#45;&gt;12 -->
<g id="edge11" class="edge">
<title>12&#45;&gt;12</title>
<path fill="none" stroke="black" d="M2261.86,-103.44C2367.89,-102.89 2449.51,-98.41 2449.51,-90 2449.51,-81.89 2373.69,-77.44 2273.26,-76.63"/>
<polygon fill="black" stroke="black" points="2273.4,-73.13 2263.38,-76.57 2273.36,-80.13 2273.4,-73.13"/>
</g>
<!-- 13&#45;&gt;25 -->
<g id="edge12" class="edge">
<title>13&#45;&gt;25</title>
<path fill="none" stroke="black" d="M1910.32,-180.41C1907.38,-200.58 1906.2,-233.41 1924.83,-252 1991.24,-318.29 2633.56,-359.65 2867.31,-372.61"/>
<polygon fill="black" stroke="black" points="2867.11,-376.1 2877.28,-373.15 2867.49,-369.11 2867.11,-376.1"/>
</g>
<!-- 14 -->
<g id="node15" class="node">
<title>14</title>
<ellipse fill="none" stroke="black" cx="3470.83" cy="-90" rx="74.89" ry="18"/>
<text text-anchor="middle" x="3470.83" y="-84.95" font-family="Times New Roman,serif" font-size="14.00">You: What time?</text>
</g>
<!-- 24 -->
<g id="node25" class="node">
<title>24</title>
<ellipse fill="none" stroke="black" cx="3419.83" cy="-18" rx="116.86" ry="18"/>
<text text-anchor="middle" x="3419.83" y="-12.95" font-family="Times New Roman,serif" font-size="14.00">Jump to: [Untitled hub (08)]</text>
</g>
<!-- 14&#45;&gt;24 -->
<g id="edge13" class="edge">
<title>14&#45;&gt;24</title>
<path fill="none" stroke="black" d="M3458.48,-72.05C3452.68,-64.09 3445.63,-54.41 3439.14,-45.51"/>
<polygon fill="black" stroke="black" points="3442.02,-43.52 3433.3,-37.5 3436.36,-47.64 3442.02,-43.52"/>
</g>
<!-- 15 -->
<g id="node16" class="node">
<title>15</title>
<ellipse fill="none" stroke="black" cx="5112.83" cy="-234" rx="322.61" ry="18"/>
<text text-anchor="middle" x="5112.83" y="-228.95" font-family="Times New Roman,serif" font-size="14.00">You: This is because of the insane world&#45;ending I&#39;ve been saying isn&#39;t it? (Proceed.)</text>
</g>
<!-- 17 -->
<g id="node18" class="node">
<title>17</title>
<ellipse fill="none" stroke="black" cx="5215.83" cy="-162" rx="116.86" ry="18"/>
<text text-anchor="middle" x="5215.83" y="-156.95" font-family="Times New Roman,serif" font-size="14.00">Jump to: [Untitled hub (04)]</text>
</g>
<!-- 15&#45;&gt;17 -->
<g id="edge14" class="edge">
<title>15&#45;&gt;17</title>
<path fill="none" stroke="black" d="M5138.29,-215.7C5151.36,-206.81 5167.46,-195.87 5181.6,-186.26"/>
<polygon fill="black" stroke="black" points="5183.46,-189.23 5189.76,-180.71 5179.52,-183.44 5183.46,-189.23"/>
</g>
<!-- 16 -->
<g id="node17" class="node">
<title>16</title>
<ellipse fill="none" stroke="black" cx="3419.83" cy="-234" rx="807.8" ry="18"/>
<text text-anchor="middle" x="3419.83" y="-228.95" font-family="Times New Roman,serif" font-size="14.00">Half Light: Yes. You spoke the words of the παλίντροπος, and the houses of Perikarnassis. Items, people, even WORDS will tumble, all will lose its meaning in the coming years. That is why you marked yourself.</text>
</g>
<!-- 26 -->
<g id="node27" class="node">
<title>26</title>
<ellipse fill="none" stroke="black" cx="3419.83" cy="-162" rx="278.59" ry="18"/>
<text text-anchor="middle" x="3419.83" y="-156.95" font-family="Times New Roman,serif" font-size="14.00">You: Am I sure it&#39;s not just a joke, or some kind of coping mechanism?</text>
</g>
<!-- 16&#45;&gt;26 -->
<g id="edge15" class="edge">
<title>16&#45;&gt;26</title>
<path fill="none" stroke="black" d="M3419.83,-215.7C3419.83,-208.41 3419.83,-199.73 3419.83,-191.54"/>
<polygon fill="black" stroke="black" points="3423.33,-191.62 3419.83,-181.62 3416.33,-191.62 3423.33,-191.62"/>
</g>
<!-- 17&#45;&gt;20 -->
<g id="edge16" class="edge">
<title>17&#45;&gt;20</title>
<path fill="none" stroke="black" d="M5270.25,-145.64C5306.54,-135.4 5354.57,-121.84 5393.71,-110.79"/>
<polygon fill="black" stroke="black" points="5394.63,-114.17 5403.31,-108.08 5392.73,-107.43 5394.63,-114.17"/>
</g>
<!-- 18&#45;&gt;7 -->
<g id="edge17" class="edge">
<title>18&#45;&gt;7</title>
<path fill="none" stroke="black" d="M4508.83,-71.7C4508.83,-64.41 4508.83,-55.73 4508.83,-47.54"/>
<polygon fill="black" stroke="black" points="4512.33,-47.62 4508.83,-37.62 4505.33,-47.62 4512.33,-47.62"/>
</g>
<!-- 19 -->
<g id="node20" class="node">
<title>19</title>
<ellipse fill="none" stroke="black" cx="2951.83" cy="-306" rx="75.41" ry="18"/>
<text text-anchor="middle" x="2951.83" y="-300.95" font-family="Times New Roman,serif" font-size="14.00">Untitled hub (04)</text>
</g>
<!-- 19&#45;&gt;5 -->
<g id="edge18" class="edge">
<title>19&#45;&gt;5</title>
<path fill="none" stroke="black" d="M2881.97,-298.94C2753.18,-287.77 2475.46,-263.68 2300.08,-248.47"/>
<polygon fill="black" stroke="black" points="2300.45,-244.99 2290.18,-247.61 2299.84,-251.96 2300.45,-244.99"/>
</g>
<!-- 19&#45;&gt;8 -->
<g id="edge19" class="edge">
<title>19&#45;&gt;8</title>
<path fill="none" stroke="black" d="M3005.12,-292.93C3015.58,-290.96 3026.51,-289.18 3036.83,-288 3566.96,-227.47 3703.82,-276.64 4236.83,-252 4261.95,-250.84 4288.37,-249.43 4314.46,-247.92"/>
<polygon fill="black" stroke="black" points="4314.33,-251.43 4324.1,-247.35 4313.92,-244.44 4314.33,-251.43"/>
</g>
<!-- 19&#45;&gt;9 -->
<g id="edge20" class="edge">
<title>19&#45;&gt;9</title>
<path fill="none" stroke="black" d="M2889.2,-295.63C2808.26,-283.53 2666.78,-262.36 2574.2,-248.52"/>
<polygon fill="black" stroke="black" points="2574.79,-245.07 2564.38,-247.05 2573.75,-251.99 2574.79,-245.07"/>
</g>
<!-- 19&#45;&gt;15 -->
<g id="edge21" class="edge">
<title>19&#45;&gt;15</title>
<path fill="none" stroke="black" d="M3005.11,-292.85C3015.57,-290.89 3026.5,-289.13 3036.83,-288 3422.16,-245.82 4393.44,-265.91 4780.83,-252 4812.44,-250.86 4845.73,-249.44 4878.53,-247.89"/>
<polygon fill="black" stroke="black" points="4878.3,-251.41 4888.12,-247.44 4877.97,-244.42 4878.3,-251.41"/>
</g>
<!-- 19&#45;&gt;16 -->
<g id="edge22" class="edge">
<title>19&#45;&gt;16</title>
<path fill="none" stroke="black" d="M3007.06,-293.45C3016.95,-291.53 3027.18,-289.63 3036.83,-288 3113.32,-275.07 3198.8,-263.01 3269.57,-253.68"/>
<polygon fill="black" stroke="black" points="3269.84,-257.17 3279.3,-252.4 3268.92,-250.23 3269.84,-257.17"/>
</g>
<!-- 20&#45;&gt;6 -->
<g id="edge23" class="edge">
<title>20&#45;&gt;6</title>
<path fill="none" stroke="black" d="M5463.83,-71.7C5463.83,-64.41 5463.83,-55.73 5463.83,-47.54"/>
<polygon fill="black" stroke="black" points="5467.33,-47.62 5463.83,-37.62 5460.33,-47.62 5467.33,-47.62"/>
</g>
<!-- 21 -->
<g id="node22" class="node">
<title>21</title>
<ellipse fill="none" stroke="black" cx="3247.83" cy="-306" rx="202.33" ry="18"/>
<text text-anchor="middle" x="3247.83" y="-300.95" font-family="Times New Roman,serif" font-size="14.00">Half Light: Tremble. THE TIME IS NOW. τὰ ὅλα.</text>
</g>
<!-- 21&#45;&gt;20 -->
<g id="edge24" class="edge">
<title>21&#45;&gt;20</title>
<path fill="none" stroke="black" d="M3386.78,-292.57C3410.79,-290.77 3435.52,-289.15 3458.83,-288 3513.94,-285.28 5403.92,-289.03 5444.83,-252 5481.35,-218.93 5476.81,-155.81 5470.28,-119.19"/>
<polygon fill="black" stroke="black" points="5473.8,-118.93 5468.44,-109.79 5466.93,-120.28 5473.8,-118.93"/>
</g>
<!-- 22&#45;&gt;3 -->
<g id="edge25" class="edge">
<title>22&#45;&gt;3</title>
<path fill="none" stroke="black" d="M2951.83,-503.7C2951.83,-496.41 2951.83,-487.73 2951.83,-479.54"/>
<polygon fill="black" stroke="black" points="2955.33,-479.62 2951.83,-469.62 2948.33,-479.62 2955.33,-479.62"/>
</g>
<!-- 23&#45;&gt;12 -->
<g id="edge26" class="edge">
<title>23&#45;&gt;12</title>
<path fill="none" stroke="black" d="M1054.84,-215.66C1234.44,-188.81 1578.32,-137.41 1763.45,-109.74"/>
<polygon fill="black" stroke="black" points="1763.72,-113.24 1773.09,-108.3 1762.69,-106.32 1763.72,-113.24"/>
</g>
<!-- 24&#45;&gt;26 -->
<g id="edge27" class="edge">
<title>24&#45;&gt;26</title>
<path fill="none" stroke="black" d="M3405.84,-35.96C3398.63,-45.82 3390.58,-58.87 3386.83,-72 3382.43,-87.38 3382.43,-92.62 3386.83,-108 3389.42,-117.09 3394.08,-126.13 3399.09,-134.11"/>
<polygon fill="black" stroke="black" points="3396.14,-136 3404.65,-142.31 3401.94,-132.07 3396.14,-136"/>
</g>
<!-- 25&#45;&gt;2 -->
<g id="edge29" class="edge">
<title>25&#45;&gt;2</title>
<path fill="none" stroke="black" d="M2878.1,-373.76C2622.55,-362.55 1773.79,-325.3 1467.91,-311.88"/>
<polygon fill="black" stroke="black" points="1468.48,-308.4 1458.34,-311.46 1468.17,-315.39 1468.48,-308.4"/>
</g>
<!-- 25&#45;&gt;19 -->
<g id="edge28" class="edge">
<title>25&#45;&gt;19</title>
<path fill="none" stroke="black" d="M2951.83,-359.7C2951.83,-352.41 2951.83,-343.73 2951.83,-335.54"/>
<polygon fill="black" stroke="black" points="2955.33,-335.62 2951.83,-325.62 2948.33,-335.62 2955.33,-335.62"/>
</g>
<!-- 25&#45;&gt;21 -->
<g id="edge31" class="edge">
<title>25&#45;&gt;21</title>
<path fill="none" stroke="black" d="M3004.06,-364.65C3049.29,-353.95 3115.43,-338.31 3167.4,-326.02"/>
<polygon fill="black" stroke="black" points="3168.2,-329.43 3177.13,-323.72 3166.59,-322.61 3168.2,-329.43"/>
</g>
<!-- 27 -->
<g id="node28" class="node">
<title>27</title>
<ellipse fill="none" stroke="black" cx="3494.83" cy="-306" rx="27" ry="18"/>
<text text-anchor="middle" x="3494.83" y="-300.95" font-family="Times New Roman,serif" font-size="14.00">27</text>
</g>
<!-- 25&#45;&gt;27 -->
<g id="edge30" class="edge">
<title>25&#45;&gt;27</title>
<path fill="none" stroke="black" d="M3027.61,-376.96C3128.04,-375.13 3309.89,-365.65 3458.83,-324 3460.45,-323.55 3462.09,-323.02 3463.73,-322.45"/>
<polygon fill="black" stroke="black" points="3465.01,-325.71 3472.95,-318.69 3462.36,-319.23 3465.01,-325.71"/>
</g>
<!-- 26&#45;&gt;14 -->
<g id="edge32" class="edge">
<title>26&#45;&gt;14</title>
<path fill="none" stroke="black" d="M3432.43,-143.7C3438.24,-135.73 3445.25,-126.1 3451.69,-117.26"/>
<polygon fill="black" stroke="black" points="3454.41,-119.47 3457.47,-109.33 3448.76,-115.35 3454.41,-119.47"/>
</g>
</g>
</svg>
