<?xml version="1.0" encoding="UTF-8" standalone="no"?>
<!DOCTYPE svg PUBLIC "-//W3C//DTD SVG 1.1//EN"
 "http://www.w3.org/Graphics/SVG/1.1/DTD/svg11.dtd">
<!-- Generated by graphviz version 12.2.1 (20241206.2353)
 -->
<!-- Title: G Pages: 1 -->
<svg width="2342pt" height="620pt"
 viewBox="0.00 0.00 2342.30 620.00" xmlns="http://www.w3.org/2000/svg" xmlns:xlink="http://www.w3.org/1999/xlink">
<g id="graph0" class="graph" transform="scale(1 1) rotate(0) translate(4 616)">
<title>G</title>
<polygon fill="white" stroke="none" points="-4,4 -4,-616 2338.3,-616 2338.3,4 -4,4"/>
<!-- 0 -->
<g id="node1" class="node">
<title>0</title>
<ellipse fill="none" stroke="black" cx="502.94" cy="-594" rx="39.07" ry="18"/>
<text text-anchor="middle" x="502.94" y="-588.95" font-family="Times New Roman,serif" font-size="14.00">START</text>
</g>
<!-- 1 -->
<g id="node2" class="node">
<title>1</title>
<ellipse fill="none" stroke="black" cx="502.94" cy="-522" rx="29.86" ry="18"/>
<text text-anchor="middle" x="502.94" y="-516.95" font-family="Times New Roman,serif" font-size="14.00">input</text>
</g>
<!-- 0&#45;&gt;1 -->
<g id="edge1" class="edge">
<title>0&#45;&gt;1</title>
<path fill="none" stroke="black" d="M502.94,-575.7C502.94,-568.41 502.94,-559.73 502.94,-551.54"/>
<polygon fill="black" stroke="black" points="506.44,-551.62 502.94,-541.62 499.44,-551.62 506.44,-551.62"/>
</g>
<!-- 2 -->
<g id="node3" class="node">
<title>2</title>
<ellipse fill="none" stroke="black" cx="798.94" cy="-522" rx="248.4" ry="18"/>
<text text-anchor="middle" x="798.94" y="-516.95" font-family="Times New Roman,serif" font-size="14.00">Kim Kitsuragi: &quot;Klaasje &#45;&#45; the woman upstairs? Where is she?&quot;</text>
</g>
<!-- 10 -->
<g id="node11" class="node">
<title>10</title>
<ellipse fill="none" stroke="black" cx="798.94" cy="-450" rx="327.22" ry="18"/>
<text text-anchor="middle" x="798.94" y="-444.95" font-family="Times New Roman,serif" font-size="14.00">Garte, the Cafeteria Manager: &quot;She left!&quot; The manager calls down from the balcony.</text>
</g>
<!-- 2&#45;&gt;10 -->
<g id="edge2" class="edge">
<title>2&#45;&gt;10</title>
<path fill="none" stroke="black" d="M798.94,-503.7C798.94,-496.41 798.94,-487.73 798.94,-479.54"/>
<polygon fill="black" stroke="black" points="802.44,-479.62 798.94,-469.62 795.44,-479.62 802.44,-479.62"/>
</g>
<!-- 3 -->
<g id="node4" class="node">
<title>3</title>
<ellipse fill="none" stroke="black" cx="798.94" cy="-306" rx="75.41" ry="18"/>
<text text-anchor="middle" x="798.94" y="-300.95" font-family="Times New Roman,serif" font-size="14.00">Untitled hub (06)</text>
</g>
<!-- 12 -->
<g id="node13" class="node">
<title>12</title>
<ellipse fill="none" stroke="black" cx="731.94" cy="-234" rx="198.75" ry="18"/>
<text text-anchor="middle" x="731.94" y="-228.95" font-family="Times New Roman,serif" font-size="14.00">You: &quot;Garte, what the hell are you *doing* here?&quot;</text>
</g>
<!-- 3&#45;&gt;12 -->
<g id="edge3" class="edge">
<title>3&#45;&gt;12</title>
<path fill="none" stroke="black" d="M782.72,-288.05C774.77,-279.75 765.04,-269.58 756.23,-260.38"/>
<polygon fill="black" stroke="black" points="758.96,-258.17 749.52,-253.37 753.91,-263.01 758.96,-258.17"/>
</g>
<!-- 13 -->
<g id="node14" class="node">
<title>13</title>
<ellipse fill="none" stroke="black" cx="872.94" cy="-90" rx="154.22" ry="18"/>
<text text-anchor="middle" x="872.94" y="-84.95" font-family="Times New Roman,serif" font-size="14.00">You: &quot;What do you mean she *left*?&quot;</text>
</g>
<!-- 3&#45;&gt;13 -->
<g id="edge4" class="edge">
<title>3&#45;&gt;13</title>
<path fill="none" stroke="black" d="M869.16,-299.14C1000.62,-286.57 1275.78,-252.09 1332.94,-180 1342.88,-167.46 1343.59,-155.94 1332.94,-144 1312.35,-120.9 1150.11,-106.41 1024.07,-98.54"/>
<polygon fill="black" stroke="black" points="1024.47,-95.06 1014.27,-97.93 1024.04,-102.04 1024.47,-95.06"/>
</g>
<!-- 4 -->
<g id="node5" class="node">
<title>4</title>
<ellipse fill="none" stroke="black" cx="798.94" cy="-594" rx="141.43" ry="18"/>
<text text-anchor="middle" x="798.94" y="-588.95" font-family="Times New Roman,serif" font-size="14.00">Kortenaer: &quot;Who the fuck is that?&quot;</text>
</g>
<!-- 4&#45;&gt;2 -->
<g id="edge5" class="edge">
<title>4&#45;&gt;2</title>
<path fill="none" stroke="black" d="M798.94,-575.7C798.94,-568.41 798.94,-559.73 798.94,-551.54"/>
<polygon fill="black" stroke="black" points="802.44,-551.62 798.94,-541.62 795.44,-551.62 802.44,-551.62"/>
</g>
<!-- 5 -->
<g id="node6" class="node">
<title>5</title>
<ellipse fill="none" stroke="black" cx="1667.94" cy="-450" rx="489.97" ry="18"/>
<text text-anchor="middle" x="1667.94" y="-444.95" font-family="Times New Roman,serif" font-size="14.00">Empathy: You can *feel* how upset he is with himself. Just for a second. Then the fear takes over and he&#39;s back in the moment.</text>
</g>
<!-- 11 -->
<g id="node12" class="node">
<title>11</title>
<ellipse fill="none" stroke="black" cx="1667.94" cy="-378" rx="532.96" ry="18"/>
<text text-anchor="middle" x="1667.94" y="-372.95" font-family="Times New Roman,serif" font-size="14.00">Kortenaer: &quot;HEY, BUSHMEN!!!&quot; The veins on the man&#39;s neck expand as he yells. &quot;Your little CUNT isn&#39;t gonna help you out of this one!&quot;</text>
</g>
<!-- 5&#45;&gt;11 -->
<g id="edge6" class="edge">
<title>5&#45;&gt;11</title>
<path fill="none" stroke="black" d="M1667.94,-431.7C1667.94,-424.41 1667.94,-415.73 1667.94,-407.54"/>
<polygon fill="black" stroke="black" points="1671.44,-407.62 1667.94,-397.62 1664.44,-407.62 1671.44,-407.62"/>
</g>
<!-- 6 -->
<g id="node7" class="node">
<title>6</title>
<ellipse fill="none" stroke="black" cx="1667.94" cy="-306" rx="242.77" ry="18"/>
<text text-anchor="middle" x="1667.94" y="-300.95" font-family="Times New Roman,serif" font-size="14.00">Volition: She&#39;s gone. Forget about it now. Concentrate on this.</text>
</g>
<!-- 14 -->
<g id="node15" class="node">
<title>14</title>
<ellipse fill="none" stroke="black" cx="1667.94" cy="-234" rx="251.98" ry="18"/>
<text text-anchor="middle" x="1667.94" y="-228.95" font-family="Times New Roman,serif" font-size="14.00">Kim Kitsuragi: Variable[&quot;plaza.tribunal_said_they_didnt_do_it&quot;]</text>
</g>
<!-- 6&#45;&gt;14 -->
<g id="edge7" class="edge">
<title>6&#45;&gt;14</title>
<path fill="none" stroke="black" d="M1667.94,-287.7C1667.94,-280.41 1667.94,-271.73 1667.94,-263.54"/>
<polygon fill="black" stroke="black" points="1671.44,-263.62 1667.94,-253.62 1664.44,-263.62 1671.44,-263.62"/>
</g>
<!-- 7 -->
<g id="node8" class="node">
<title>7</title>
<ellipse fill="none" stroke="black" cx="2043.94" cy="-90" rx="290.37" ry="18"/>
<text text-anchor="middle" x="2043.94" y="-84.95" font-family="Times New Roman,serif" font-size="14.00">Rhetoric: For god&#39;s sake, tell &#39;em the Hardies didn&#39;t *do* it, present a case!</text>
</g>
<!-- 18 -->
<g id="node19" class="node">
<title>18</title>
<ellipse fill="none" stroke="black" cx="1752.94" cy="-18" rx="100.48" ry="18"/>
<text text-anchor="middle" x="1752.94" y="-12.95" font-family="Times New Roman,serif" font-size="14.00">Jump to: [tribunalHUB]</text>
</g>
<!-- 7&#45;&gt;18 -->
<g id="edge8" class="edge">
<title>7&#45;&gt;18</title>
<path fill="none" stroke="black" d="M1973.5,-72.05C1927.5,-60.99 1867.72,-46.61 1822,-35.61"/>
<polygon fill="black" stroke="black" points="1823.01,-32.26 1812.47,-33.32 1821.37,-39.06 1823.01,-32.26"/>
</g>
<!-- 8 -->
<g id="node9" class="node">
<title>8</title>
<ellipse fill="none" stroke="black" cx="661.94" cy="-162" rx="661.94" ry="18"/>
<text text-anchor="middle" x="661.94" y="-156.95" font-family="Times New Roman,serif" font-size="14.00">Garte, the Cafeteria Manager: &quot;What am I doing?! My fucking establishment is UNDER FIRE!&quot; He points to the armoured figures. &quot;You know how much windows *cost?*&quot;</text>
</g>
<!-- 8&#45;&gt;13 -->
<g id="edge9" class="edge">
<title>8&#45;&gt;13</title>
<path fill="none" stroke="black" d="M714.37,-143.61C744.17,-133.72 781.62,-121.3 812.64,-111"/>
<polygon fill="black" stroke="black" points="813.49,-114.41 821.88,-107.94 811.29,-107.76 813.49,-114.41"/>
</g>
<!-- 9 -->
<g id="node10" class="node">
<title>9</title>
<ellipse fill="none" stroke="black" cx="1667.94" cy="-522" rx="434.18" ry="18"/>
<text text-anchor="middle" x="1667.94" y="-516.95" font-family="Times New Roman,serif" font-size="14.00">Kim Kitsuragi: &quot;We should have arrested her...&quot; The lieutenant whispers, his eyes still on the armed mercenaries.</text>
</g>
<!-- 9&#45;&gt;5 -->
<g id="edge10" class="edge">
<title>9&#45;&gt;5</title>
<path fill="none" stroke="black" d="M1667.94,-503.7C1667.94,-496.41 1667.94,-487.73 1667.94,-479.54"/>
<polygon fill="black" stroke="black" points="1671.44,-479.62 1667.94,-469.62 1664.44,-479.62 1671.44,-479.62"/>
</g>
<!-- 17 -->
<g id="node18" class="node">
<title>17</title>
<ellipse fill="none" stroke="black" cx="798.94" cy="-378" rx="221.27" ry="18"/>
<text text-anchor="middle" x="798.94" y="-372.95" font-family="Times New Roman,serif" font-size="14.00">Composure: Unarmed, hunched, but keeping it together.</text>
</g>
<!-- 10&#45;&gt;17 -->
<g id="edge11" class="edge">
<title>10&#45;&gt;17</title>
<path fill="none" stroke="black" d="M798.94,-431.7C798.94,-424.41 798.94,-415.73 798.94,-407.54"/>
<polygon fill="black" stroke="black" points="802.44,-407.62 798.94,-397.62 795.44,-407.62 802.44,-407.62"/>
</g>
<!-- 11&#45;&gt;6 -->
<g id="edge12" class="edge">
<title>11&#45;&gt;6</title>
<path fill="none" stroke="black" d="M1667.94,-359.7C1667.94,-352.41 1667.94,-343.73 1667.94,-335.54"/>
<polygon fill="black" stroke="black" points="1671.44,-335.62 1667.94,-325.62 1664.44,-335.62 1671.44,-335.62"/>
</g>
<!-- 12&#45;&gt;8 -->
<g id="edge13" class="edge">
<title>12&#45;&gt;8</title>
<path fill="none" stroke="black" d="M714.64,-215.7C706.33,-207.39 696.22,-197.28 687.08,-188.14"/>
<polygon fill="black" stroke="black" points="689.66,-185.77 680.11,-181.17 684.71,-190.72 689.66,-185.77"/>
</g>
<!-- 20 -->
<g id="node21" class="node">
<title>20</title>
<ellipse fill="none" stroke="black" cx="872.94" cy="-18" rx="27" ry="18"/>
<text text-anchor="middle" x="872.94" y="-12.95" font-family="Times New Roman,serif" font-size="14.00">20</text>
</g>
<!-- 13&#45;&gt;20 -->
<g id="edge14" class="edge">
<title>13&#45;&gt;20</title>
<path fill="none" stroke="black" d="M872.94,-71.7C872.94,-64.41 872.94,-55.73 872.94,-47.54"/>
<polygon fill="black" stroke="black" points="876.44,-47.62 872.94,-37.62 869.44,-47.62 876.44,-47.62"/>
</g>
<!-- 15 -->
<g id="node16" class="node">
<title>15</title>
<polygon fill="none" stroke="black" points="1461.94,-108 1188.1,-90 1461.94,-72 1735.78,-90 1461.94,-108"/>
<text text-anchor="middle" x="1461.94" y="-84.95" font-family="Times New Roman,serif" font-size="14.00">Variable[&quot;plaza.tribunal_said_they_didnt_do_it&quot;]</text>
</g>
<!-- 14&#45;&gt;15 -->
<g id="edge16" class="edge">
<title>14&#45;&gt;15</title>
<path fill="none" stroke="black" d="M1643.09,-215.87C1605.84,-190.19 1535.51,-141.71 1494.29,-113.3"/>
<polygon fill="black" stroke="black" points="1496.44,-110.53 1486.22,-107.74 1492.47,-116.3 1496.44,-110.53"/>
</g>
<!-- 16 -->
<g id="node17" class="node">
<title>16</title>
<polygon fill="none" stroke="black" points="1976.94,-180 1690.07,-162 1976.94,-144 2263.81,-162 1976.94,-180"/>
<text text-anchor="middle" x="1976.94" y="-156.95" font-family="Times New Roman,serif" font-size="14.00">!(Variable[&quot;plaza.tribunal_said_they_didnt_do_it&quot;])</text>
</g>
<!-- 14&#45;&gt;16 -->
<g id="edge15" class="edge">
<title>14&#45;&gt;16</title>
<path fill="none" stroke="black" d="M1741.56,-216.32C1791.16,-205.09 1856.25,-190.34 1905.4,-179.21"/>
<polygon fill="black" stroke="black" points="1906.13,-182.63 1915.11,-177.01 1904.58,-175.8 1906.13,-182.63"/>
</g>
<!-- 15&#45;&gt;18 -->
<g id="edge17" class="edge">
<title>15&#45;&gt;18</title>
<path fill="none" stroke="black" d="M1518.74,-75.34C1565.87,-64 1633.08,-47.83 1683.42,-35.72"/>
<polygon fill="black" stroke="black" points="1684.16,-39.14 1693.07,-33.4 1682.53,-32.34 1684.16,-39.14"/>
</g>
<!-- 16&#45;&gt;7 -->
<g id="edge18" class="edge">
<title>16&#45;&gt;7</title>
<path fill="none" stroke="black" d="M1992.48,-144.76C2000.53,-136.35 2010.54,-125.89 2019.59,-116.44"/>
<polygon fill="black" stroke="black" points="2022.12,-118.86 2026.5,-109.22 2017.06,-114.02 2022.12,-118.86"/>
</g>
<!-- 17&#45;&gt;3 -->
<g id="edge19" class="edge">
<title>17&#45;&gt;3</title>
<path fill="none" stroke="black" d="M798.94,-359.7C798.94,-352.41 798.94,-343.73 798.94,-335.54"/>
<polygon fill="black" stroke="black" points="802.44,-335.62 798.94,-325.62 795.44,-335.62 802.44,-335.62"/>
</g>
<!-- 19 -->
<g id="node20" class="node">
<title>19</title>
<ellipse fill="none" stroke="black" cx="1667.94" cy="-594" rx="418.83" ry="18"/>
<text text-anchor="middle" x="1667.94" y="-588.95" font-family="Times New Roman,serif" font-size="14.00">Garte, the Cafeteria Manager: &quot;She LEFT! Her room&#39;s cleaned out &#45;&#45; right before these assholes showed up!&quot;</text>
</g>
<!-- 19&#45;&gt;9 -->
<g id="edge20" class="edge">
<title>19&#45;&gt;9</title>
<path fill="none" stroke="black" d="M1667.94,-575.7C1667.94,-568.41 1667.94,-559.73 1667.94,-551.54"/>
<polygon fill="black" stroke="black" points="1671.44,-551.62 1667.94,-541.62 1664.44,-551.62 1671.44,-551.62"/>
</g>
</g>
</svg>
