<?xml version="1.0" encoding="UTF-8" standalone="no"?>
<!DOCTYPE svg PUBLIC "-//W3C//DTD SVG 1.1//EN"
 "http://www.w3.org/Graphics/SVG/1.1/DTD/svg11.dtd">
<!-- Generated by graphviz version 12.2.1 (20241206.2353)
 -->
<!-- Title: G Pages: 1 -->
<svg width="6279pt" height="692pt"
 viewBox="0.00 0.00 6279.18 692.00" xmlns="http://www.w3.org/2000/svg" xmlns:xlink="http://www.w3.org/1999/xlink">
<g id="graph0" class="graph" transform="scale(1 1) rotate(0) translate(4 688)">
<title>G</title>
<polygon fill="white" stroke="none" points="-4,4 -4,-688 6275.18,-688 6275.18,4 -4,4"/>
<!-- 0 -->
<g id="node1" class="node">
<title>0</title>
<ellipse fill="none" stroke="black" cx="1129.73" cy="-666" rx="39.07" ry="18"/>
<text text-anchor="middle" x="1129.73" y="-660.95" font-family="Times New Roman,serif" font-size="14.00">START</text>
</g>
<!-- 1 -->
<g id="node2" class="node">
<title>1</title>
<ellipse fill="none" stroke="black" cx="1129.73" cy="-594" rx="29.86" ry="18"/>
<text text-anchor="middle" x="1129.73" y="-588.95" font-family="Times New Roman,serif" font-size="14.00">input</text>
</g>
<!-- 0&#45;&gt;1 -->
<g id="edge1" class="edge">
<title>0&#45;&gt;1</title>
<path fill="none" stroke="black" d="M1129.73,-647.7C1129.73,-640.41 1129.73,-631.73 1129.73,-623.54"/>
<polygon fill="black" stroke="black" points="1133.23,-623.62 1129.73,-613.62 1126.23,-623.62 1133.23,-623.62"/>
</g>
<!-- 2 -->
<g id="node3" class="node">
<title>2</title>
<ellipse fill="none" stroke="black" cx="1056.73" cy="-90" rx="370.21" ry="18"/>
<text text-anchor="middle" x="1056.73" y="-84.95" font-family="Times New Roman,serif" font-size="14.00">Composure: He must be tweaked off too. With something other than alcohol. They always are...</text>
</g>
<!-- 7 -->
<g id="node8" class="node">
<title>7</title>
<ellipse fill="none" stroke="black" cx="1056.73" cy="-18" rx="537.06" ry="18"/>
<text text-anchor="middle" x="1056.73" y="-12.95" font-family="Times New Roman,serif" font-size="14.00">Kortenaer: &quot;Stupid shit...&quot; He wipes the sweat from his brow. &quot;I know what you&#39;re doing, you *fuck*. It&#39;s not gonna work. I&#39;m clear as day.&quot;</text>
</g>
<!-- 2&#45;&gt;7 -->
<g id="edge2" class="edge">
<title>2&#45;&gt;7</title>
<path fill="none" stroke="black" d="M1050.82,-71.7C1050.07,-64.41 1049.82,-55.73 1050.09,-47.54"/>
<polygon fill="black" stroke="black" points="1053.58,-47.82 1050.74,-37.61 1046.59,-47.36 1053.58,-47.82"/>
</g>
<!-- 3 -->
<g id="node4" class="node">
<title>3</title>
<ellipse fill="none" stroke="black" cx="1568.73" cy="-162" rx="460.8" ry="18"/>
<text text-anchor="middle" x="1568.73" y="-156.95" font-family="Times New Roman,serif" font-size="14.00">Kortenaer: &quot;Nah...&quot; He wipes the sweat from his brow. &quot;I&#39;m clear as day. Fucking government ordained super&#45;soldier...&quot;</text>
</g>
<!-- 3&#45;&gt;2 -->
<g id="edge3" class="edge">
<title>3&#45;&gt;2</title>
<path fill="none" stroke="black" d="M1445.77,-144.19C1368.06,-133.56 1267.71,-119.84 1188.38,-109"/>
<polygon fill="black" stroke="black" points="1189.22,-105.58 1178.84,-107.69 1188.27,-112.52 1189.22,-105.58"/>
</g>
<!-- 4 -->
<g id="node5" class="node">
<title>4</title>
<ellipse fill="none" stroke="black" cx="3055.73" cy="-522" rx="108.16" ry="18"/>
<text text-anchor="middle" x="3055.73" y="-516.95" font-family="Times New Roman,serif" font-size="14.00">You: &quot;Nothing. It&#39;s okay.&quot;</text>
</g>
<!-- 9 -->
<g id="node10" class="node">
<title>9</title>
<ellipse fill="none" stroke="black" cx="2925.73" cy="-666" rx="57.49" ry="18"/>
<text text-anchor="middle" x="2925.73" y="-660.95" font-family="Times New Roman,serif" font-size="14.00">Untitled hub</text>
</g>
<!-- 4&#45;&gt;9 -->
<g id="edge4" class="edge">
<title>4&#45;&gt;9</title>
<path fill="none" stroke="black" d="M3015.09,-539.11C2996.91,-547.48 2976.59,-559.49 2962.73,-576 2948.33,-593.16 2941.32,-617.75 2936.5,-636.74"/>
<polygon fill="black" stroke="black" points="2933.15,-635.7 2934.1,-646.25 2939.94,-637.41 2933.15,-635.7"/>
</g>
<!-- 5 -->
<g id="node6" class="node">
<title>5</title>
<ellipse fill="none" stroke="black" cx="5825.73" cy="-450" rx="445.44" ry="18"/>
<text text-anchor="middle" x="5825.73" y="-444.95" font-family="Times New Roman,serif" font-size="14.00">Electrochemistry: Yeah. So what. You should be drunk too. Or, like, *drunker*. You don&#39;t want to die sober do you?</text>
</g>
<!-- 10 -->
<g id="node11" class="node">
<title>10</title>
<ellipse fill="none" stroke="black" cx="5323.73" cy="-378" rx="288.83" ry="18"/>
<text text-anchor="middle" x="5323.73" y="-372.95" font-family="Times New Roman,serif" font-size="14.00">Suggestion: Now! You got them both off&#45;piste! He&#39;s foaming mad at her...</text>
</g>
<!-- 5&#45;&gt;10 -->
<g id="edge5" class="edge">
<title>5&#45;&gt;10</title>
<path fill="none" stroke="black" d="M5705.49,-432.23C5628.22,-421.46 5528.01,-407.48 5449.65,-396.56"/>
<polygon fill="black" stroke="black" points="5450.14,-393.09 5439.75,-395.18 5449.17,-400.03 5450.14,-393.09"/>
</g>
<!-- 6 -->
<g id="node7" class="node">
<title>6</title>
<ellipse fill="none" stroke="black" cx="544.73" cy="-378" rx="436.74" ry="18"/>
<text text-anchor="middle" x="544.73" y="-372.95" font-family="Times New Roman,serif" font-size="14.00">De Paule: &quot;Enough already! What is this?!&quot; The woman&#39;s voice is furious. &quot;We didn&#39;t come here to fucking chat!&quot;</text>
</g>
<!-- 15 -->
<g id="node16" class="node">
<title>15</title>
<ellipse fill="none" stroke="black" cx="544.73" cy="-306" rx="302.65" ry="18"/>
<text text-anchor="middle" x="544.73" y="-300.95" font-family="Times New Roman,serif" font-size="14.00">You: I don&#39;t need a drink right now for god&#39;s sake. Look at this! I&#39;m in a fight!</text>
</g>
<!-- 6&#45;&gt;15 -->
<g id="edge6" class="edge">
<title>6&#45;&gt;15</title>
<path fill="none" stroke="black" d="M544.73,-359.7C544.73,-352.41 544.73,-343.73 544.73,-335.54"/>
<polygon fill="black" stroke="black" points="548.23,-335.62 544.73,-325.62 541.23,-335.62 548.23,-335.62"/>
</g>
<!-- 7&#45;&gt;2 -->
<g id="edge7" class="edge">
<title>7&#45;&gt;2</title>
<path fill="none" stroke="black" d="M1062.63,-36.1C1063.39,-43.37 1063.64,-52.04 1063.39,-60.24"/>
<polygon fill="black" stroke="black" points="1059.9,-59.98 1062.75,-70.19 1066.88,-60.43 1059.9,-59.98"/>
</g>
<!-- 8 -->
<g id="node9" class="node">
<title>8</title>
<ellipse fill="none" stroke="black" cx="544.73" cy="-162" rx="544.73" ry="18"/>
<text text-anchor="middle" x="544.73" y="-156.95" font-family="Times New Roman,serif" font-size="14.00">Kortenaer: &quot;Didn&#39;t sound like nothing.&quot; He wipes the sweat from his brow. &quot;Sounded like you were about to break into a sermon. Was that it?&quot;</text>
</g>
<!-- 8&#45;&gt;2 -->
<g id="edge8" class="edge">
<title>8&#45;&gt;2</title>
<path fill="none" stroke="black" d="M669,-144.01C746.6,-133.4 846.39,-119.76 925.3,-108.97"/>
<polygon fill="black" stroke="black" points="925.36,-112.49 934.79,-107.67 924.41,-105.56 925.36,-112.49"/>
</g>
<!-- 9&#45;&gt;4 -->
<g id="edge9" class="edge">
<title>9&#45;&gt;4</title>
<path fill="none" stroke="black" d="M2920.73,-647.72C2920.73,-628.28 2927.35,-596.72 2944.73,-576 2956.85,-561.56 2973.92,-550.56 2991.08,-542.43"/>
<polygon fill="black" stroke="black" points="2992.04,-545.83 2999.77,-538.58 2989.21,-539.43 2992.04,-545.83"/>
</g>
<!-- 14 -->
<g id="node15" class="node">
<title>14</title>
<ellipse fill="none" stroke="black" cx="3756.73" cy="-522" rx="574.42" ry="18"/>
<text text-anchor="middle" x="3756.73" y="-516.95" font-family="Times New Roman,serif" font-size="14.00">Kortenaer: &quot;Interrupt me again and I will execute you on the spot, lance&#45;corporal.&quot; The outburst is accompanied by yellowish saliva around his mouth.</text>
</g>
<!-- 9&#45;&gt;14 -->
<g id="edge10" class="edge">
<title>9&#45;&gt;14</title>
<path fill="none" stroke="black" d="M2983.23,-663.92C3183.1,-659.88 3837.25,-644.25 3867.73,-612 3878.73,-600.37 3876.27,-589.53 3867.73,-576 3859.44,-562.85 3846.88,-552.89 3833.16,-545.37"/>
<polygon fill="black" stroke="black" points="3834.87,-542.31 3824.36,-540.99 3831.75,-548.58 3834.87,-542.31"/>
</g>
<!-- 16 -->
<g id="node17" class="node">
<title>16</title>
<ellipse fill="none" stroke="black" cx="1477.73" cy="-594" rx="300.09" ry="18"/>
<text text-anchor="middle" x="1477.73" y="-588.95" font-family="Times New Roman,serif" font-size="14.00">You: I don&#39;t need a drink right now, for god&#39;s sake, the gardener just got shot!</text>
</g>
<!-- 9&#45;&gt;16 -->
<g id="edge11" class="edge">
<title>9&#45;&gt;16</title>
<path fill="none" stroke="black" d="M2868.97,-662.26C2679.7,-653.11 2062.67,-623.28 1717.32,-606.58"/>
<polygon fill="black" stroke="black" points="1717.58,-603.09 1707.43,-606.1 1717.24,-610.08 1717.58,-603.09"/>
</g>
<!-- 17 -->
<g id="node18" class="node">
<title>17</title>
<ellipse fill="none" stroke="black" cx="3410.73" cy="-594" rx="448" ry="18"/>
<text text-anchor="middle" x="3410.73" y="-588.95" font-family="Times New Roman,serif" font-size="14.00">Volition: Shut up! Let him think, too much is on the line, he&#39;s *not* gonna fuck it up because of you. I won&#39;t let you.</text>
</g>
<!-- 9&#45;&gt;17 -->
<g id="edge12" class="edge">
<title>9&#45;&gt;17</title>
<path fill="none" stroke="black" d="M2977.18,-657.58C3049.44,-647.15 3183.32,-627.82 3283.27,-613.4"/>
<polygon fill="black" stroke="black" points="3283.47,-616.9 3292.87,-612.01 3282.47,-609.98 3283.47,-616.9"/>
</g>
<!-- 22 -->
<g id="node23" class="node">
<title>22</title>
<ellipse fill="none" stroke="black" cx="2477.73" cy="-522" rx="452.1" ry="18"/>
<text text-anchor="middle" x="2477.73" y="-516.95" font-family="Times New Roman,serif" font-size="14.00">Electrochemistry: Fucking horrible... A girl got shot?! Because of you?! Only warm alcohol will help soothe the guilt!</text>
</g>
<!-- 9&#45;&gt;22 -->
<g id="edge13" class="edge">
<title>9&#45;&gt;22</title>
<path fill="none" stroke="black" d="M2886.37,-652.52C2809.25,-628.08 2637.57,-573.66 2543.13,-543.73"/>
<polygon fill="black" stroke="black" points="2544.32,-540.43 2533.73,-540.75 2542.2,-547.11 2544.32,-540.43"/>
</g>
<!-- 28 -->
<g id="node29" class="node">
<title>28</title>
<ellipse fill="none" stroke="black" cx="4822.73" cy="-522" rx="473.59" ry="18"/>
<text text-anchor="middle" x="4822.73" y="-516.95" font-family="Times New Roman,serif" font-size="14.00">Kortenaer: &quot;All right.&quot; He wipes the sweat from his brow. &quot;Let&#39;s do this. Smear your shit all over this fucking dung field...&quot;</text>
</g>
<!-- 9&#45;&gt;28 -->
<g id="edge14" class="edge">
<title>9&#45;&gt;28</title>
<path fill="none" stroke="black" d="M2982.59,-662.65C3131.17,-656.33 3543.26,-637.71 3885.73,-612 4156.6,-591.67 4470.77,-560.21 4657.8,-540.66"/>
<polygon fill="black" stroke="black" points="4658.02,-544.15 4667.6,-539.63 4657.29,-537.19 4658.02,-544.15"/>
</g>
<!-- 25 -->
<g id="node26" class="node">
<title>25</title>
<ellipse fill="none" stroke="black" cx="5323.73" cy="-306" rx="235.6" ry="18"/>
<text text-anchor="middle" x="5323.73" y="-300.95" font-family="Times New Roman,serif" font-size="14.00">Authority: That didn&#39;t work at all, he&#39;s *more* focused now.</text>
</g>
<!-- 10&#45;&gt;25 -->
<g id="edge15" class="edge">
<title>10&#45;&gt;25</title>
<path fill="none" stroke="black" d="M5323.73,-359.7C5323.73,-352.41 5323.73,-343.73 5323.73,-335.54"/>
<polygon fill="black" stroke="black" points="5327.23,-335.62 5323.73,-325.62 5320.23,-335.62 5327.23,-335.62"/>
</g>
<!-- 11 -->
<g id="node12" class="node">
<title>11</title>
<ellipse fill="none" stroke="black" cx="3756.73" cy="-450" rx="169.07" ry="18"/>
<text text-anchor="middle" x="3756.73" y="-444.95" font-family="Times New Roman,serif" font-size="14.00">Jump to: [Kortenaer: &quot;&quot;Yes... So what?&quot;&quot;]</text>
</g>
<!-- 24 -->
<g id="node25" class="node">
<title>24</title>
<ellipse fill="none" stroke="black" cx="3756.73" cy="-378" rx="100.48" ry="18"/>
<text text-anchor="middle" x="3756.73" y="-372.95" font-family="Times New Roman,serif" font-size="14.00">Jump to: [tribunalHUB]</text>
</g>
<!-- 11&#45;&gt;24 -->
<g id="edge16" class="edge">
<title>11&#45;&gt;24</title>
<path fill="none" stroke="black" d="M3756.73,-431.7C3756.73,-424.41 3756.73,-415.73 3756.73,-407.54"/>
<polygon fill="black" stroke="black" points="3760.23,-407.62 3756.73,-397.62 3753.23,-407.62 3760.23,-407.62"/>
</g>
<!-- 12 -->
<g id="node13" class="node">
<title>12</title>
<ellipse fill="none" stroke="black" cx="1344.73" cy="-522" rx="662.96" ry="18"/>
<text text-anchor="middle" x="1344.73" y="-516.95" font-family="Times New Roman,serif" font-size="14.00">Electrochemistry: Exactly. This is *so* horrible! People are gonna die whatever you do &#45;&#45; it will be all your fault. Only a drink will soothe this. Keep thinking about the drink!</text>
</g>
<!-- 18 -->
<g id="node19" class="node">
<title>18</title>
<ellipse fill="none" stroke="black" cx="1456.73" cy="-450" rx="200.29" ry="18"/>
<text text-anchor="middle" x="1456.73" y="-444.95" font-family="Times New Roman,serif" font-size="14.00">Kim Kitsuragi: Variable[&quot;character.habit_alcohol&quot;]</text>
</g>
<!-- 12&#45;&gt;18 -->
<g id="edge17" class="edge">
<title>12&#45;&gt;18</title>
<path fill="none" stroke="black" d="M1372.71,-503.52C1386.85,-494.68 1404.19,-483.84 1419.45,-474.3"/>
<polygon fill="black" stroke="black" points="1421.21,-477.33 1427.83,-469.06 1417.5,-471.39 1421.21,-477.33"/>
</g>
<!-- 13 -->
<g id="node14" class="node">
<title>13</title>
<ellipse fill="none" stroke="black" cx="544.73" cy="-234" rx="320.05" ry="18"/>
<text text-anchor="middle" x="544.73" y="-228.95" font-family="Times New Roman,serif" font-size="14.00">You: &quot;Al Gul is a trick the desert pygmees played on us. Do not *succumb* to it!&quot;</text>
</g>
<!-- 13&#45;&gt;8 -->
<g id="edge18" class="edge">
<title>13&#45;&gt;8</title>
<path fill="none" stroke="black" d="M544.73,-215.7C544.73,-208.41 544.73,-199.73 544.73,-191.54"/>
<polygon fill="black" stroke="black" points="548.23,-191.62 544.73,-181.62 541.23,-191.62 548.23,-191.62"/>
</g>
<!-- 14&#45;&gt;11 -->
<g id="edge19" class="edge">
<title>14&#45;&gt;11</title>
<path fill="none" stroke="black" d="M3756.73,-503.7C3756.73,-496.41 3756.73,-487.73 3756.73,-479.54"/>
<polygon fill="black" stroke="black" points="3760.23,-479.62 3756.73,-469.62 3753.23,-479.62 3760.23,-479.62"/>
</g>
<!-- 15&#45;&gt;13 -->
<g id="edge20" class="edge">
<title>15&#45;&gt;13</title>
<path fill="none" stroke="black" d="M544.73,-287.7C544.73,-280.41 544.73,-271.73 544.73,-263.54"/>
<polygon fill="black" stroke="black" points="548.23,-263.62 544.73,-253.62 541.23,-263.62 548.23,-263.62"/>
</g>
<!-- 23 -->
<g id="node24" class="node">
<title>23</title>
<ellipse fill="none" stroke="black" cx="544.73" cy="-522" rx="119.42" ry="18"/>
<text text-anchor="middle" x="544.73" y="-516.95" font-family="Times New Roman,serif" font-size="14.00">Kortenaer: &quot;Yes... So what?&quot;</text>
</g>
<!-- 16&#45;&gt;23 -->
<g id="edge21" class="edge">
<title>16&#45;&gt;23</title>
<path fill="none" stroke="black" d="M1268.2,-580.79C1069.02,-568.89 783.89,-551.03 672.73,-540 662.3,-538.97 651.41,-537.74 640.58,-536.43"/>
<polygon fill="black" stroke="black" points="641.19,-532.98 630.83,-535.23 640.33,-539.93 641.19,-532.98"/>
</g>
<!-- 17&#45;&gt;4 -->
<g id="edge23" class="edge">
<title>17&#45;&gt;4</title>
<path fill="none" stroke="black" d="M3323.89,-575.88C3266.06,-564.47 3190.69,-549.61 3134.58,-538.55"/>
<polygon fill="black" stroke="black" points="3135.6,-535.18 3125.11,-536.68 3134.25,-542.05 3135.6,-535.18"/>
</g>
<!-- 17&#45;&gt;14 -->
<g id="edge25" class="edge">
<title>17&#45;&gt;14</title>
<path fill="none" stroke="black" d="M3495.38,-575.88C3545.23,-565.79 3608.48,-552.99 3660.26,-542.52"/>
<polygon fill="black" stroke="black" points="3660.88,-545.96 3669.98,-540.55 3659.49,-539.1 3660.88,-545.96"/>
</g>
<!-- 17&#45;&gt;22 -->
<g id="edge24" class="edge">
<title>17&#45;&gt;22</title>
<path fill="none" stroke="black" d="M3205.12,-577.57C3053.96,-566.23 2848.95,-550.85 2695.1,-539.31"/>
<polygon fill="black" stroke="black" points="2695.39,-535.82 2685.15,-538.56 2694.86,-542.8 2695.39,-535.82"/>
</g>
<!-- 17&#45;&gt;28 -->
<g id="edge22" class="edge">
<title>17&#45;&gt;28</title>
<path fill="none" stroke="black" d="M3685.49,-579.38C3928.76,-567.32 4282.75,-549.77 4530.99,-537.46"/>
<polygon fill="black" stroke="black" points="4531.04,-540.97 4540.85,-536.97 4530.69,-533.97 4531.04,-540.97"/>
</g>
<!-- 20 -->
<g id="node21" class="node">
<title>20</title>
<polygon fill="none" stroke="black" points="1568.73,-396 1354.97,-378 1568.73,-360 1782.5,-378 1568.73,-396"/>
<text text-anchor="middle" x="1568.73" y="-372.95" font-family="Times New Roman,serif" font-size="14.00">!(Variable[&quot;character.habit_alcohol&quot;])</text>
</g>
<!-- 18&#45;&gt;20 -->
<g id="edge26" class="edge">
<title>18&#45;&gt;20</title>
<path fill="none" stroke="black" d="M1484.42,-431.7C1499.65,-422.17 1518.68,-410.28 1534.81,-400.2"/>
<polygon fill="black" stroke="black" points="1536.5,-403.27 1543.13,-395 1532.79,-397.34 1536.5,-403.27"/>
</g>
<!-- 21 -->
<g id="node22" class="node">
<title>21</title>
<ellipse fill="none" stroke="black" cx="1174.73" cy="-378" rx="161.9" ry="18"/>
<text text-anchor="middle" x="1174.73" y="-372.95" font-family="Times New Roman,serif" font-size="14.00">You: &quot;I&#39;m drunk too. Let&#39;s dance, baby.&quot;</text>
</g>
<!-- 18&#45;&gt;21 -->
<g id="edge27" class="edge">
<title>18&#45;&gt;21</title>
<path fill="none" stroke="black" d="M1390.62,-432.59C1348.54,-422.14 1293.92,-408.58 1250.15,-397.72"/>
<polygon fill="black" stroke="black" points="1251,-394.32 1240.45,-395.31 1249.31,-401.12 1251,-394.32"/>
</g>
<!-- 19 -->
<g id="node20" class="node">
<title>19</title>
<polygon fill="none" stroke="black" points="544.73,-468 344,-450 544.73,-432 745.47,-450 544.73,-468"/>
<text text-anchor="middle" x="544.73" y="-444.95" font-family="Times New Roman,serif" font-size="14.00">Variable[&quot;character.habit_alcohol&quot;]</text>
</g>
<!-- 19&#45;&gt;6 -->
<g id="edge28" class="edge">
<title>19&#45;&gt;6</title>
<path fill="none" stroke="black" d="M544.73,-431.7C544.73,-424.41 544.73,-415.73 544.73,-407.54"/>
<polygon fill="black" stroke="black" points="548.23,-407.62 544.73,-397.62 541.23,-407.62 548.23,-407.62"/>
</g>
<!-- 27 -->
<g id="node28" class="node">
<title>27</title>
<ellipse fill="none" stroke="black" cx="1568.73" cy="-306" rx="213.59" ry="18"/>
<text text-anchor="middle" x="1568.73" y="-300.95" font-family="Times New Roman,serif" font-size="14.00">You: &quot;Your judgement is impaired. You&#39;ll regret this.&quot;</text>
</g>
<!-- 20&#45;&gt;27 -->
<g id="edge29" class="edge">
<title>20&#45;&gt;27</title>
<path fill="none" stroke="black" d="M1568.73,-359.7C1568.73,-352.41 1568.73,-343.73 1568.73,-335.54"/>
<polygon fill="black" stroke="black" points="1572.23,-335.62 1568.73,-325.62 1565.23,-335.62 1572.23,-335.62"/>
</g>
<!-- 29 -->
<g id="node30" class="node">
<title>29</title>
<ellipse fill="none" stroke="black" cx="1174.73" cy="-306" rx="27" ry="18"/>
<text text-anchor="middle" x="1174.73" y="-300.95" font-family="Times New Roman,serif" font-size="14.00">29</text>
</g>
<!-- 21&#45;&gt;29 -->
<g id="edge30" class="edge">
<title>21&#45;&gt;29</title>
<path fill="none" stroke="black" d="M1174.73,-359.7C1174.73,-352.41 1174.73,-343.73 1174.73,-335.54"/>
<polygon fill="black" stroke="black" points="1178.23,-335.62 1174.73,-325.62 1171.23,-335.62 1178.23,-335.62"/>
</g>
<!-- 22&#45;&gt;18 -->
<g id="edge31" class="edge">
<title>22&#45;&gt;18</title>
<path fill="none" stroke="black" d="M2256.82,-505.85C2066.71,-492.82 1796.55,-474.3 1623.95,-462.46"/>
<polygon fill="black" stroke="black" points="1624.19,-458.97 1613.97,-461.78 1623.71,-465.96 1624.19,-458.97"/>
</g>
<!-- 23&#45;&gt;19 -->
<g id="edge32" class="edge">
<title>23&#45;&gt;19</title>
<path fill="none" stroke="black" d="M544.73,-503.7C544.73,-496.41 544.73,-487.73 544.73,-479.54"/>
<polygon fill="black" stroke="black" points="548.23,-479.62 544.73,-469.62 541.23,-479.62 548.23,-479.62"/>
</g>
<!-- 25&#45;&gt;25 -->
<g id="edge33" class="edge">
<title>25&#45;&gt;25</title>
<path fill="none" stroke="black" d="M5485.01,-319.5C5536.54,-319.34 5577.34,-314.84 5577.34,-306 5577.34,-297.81 5542.37,-293.35 5496.3,-292.61"/>
<polygon fill="black" stroke="black" points="5496.56,-289.11 5486.53,-292.52 5496.49,-296.11 5496.56,-289.11"/>
</g>
<!-- 26 -->
<g id="node27" class="node">
<title>26</title>
<ellipse fill="none" stroke="black" cx="4822.73" cy="-450" rx="539.62" ry="18"/>
<text text-anchor="middle" x="4822.73" y="-444.95" font-family="Times New Roman,serif" font-size="14.00">Electrochemistry: Yeah. So what? You should be drunk too. It&#39;s insane how long it&#39;s been since your last drink. Get one in you RIGHT NOW.</text>
</g>
<!-- 26&#45;&gt;10 -->
<g id="edge34" class="edge">
<title>26&#45;&gt;10</title>
<path fill="none" stroke="black" d="M4944.33,-432.01C5021.21,-421.27 5120.35,-407.42 5198.01,-396.57"/>
<polygon fill="black" stroke="black" points="5198.39,-400.05 5207.81,-395.2 5197.42,-393.11 5198.39,-400.05"/>
</g>
<!-- 27&#45;&gt;3 -->
<g id="edge35" class="edge">
<title>27&#45;&gt;3</title>
<path fill="none" stroke="black" d="M1568.73,-287.59C1568.73,-263.61 1568.73,-220.14 1568.73,-191.42"/>
<polygon fill="black" stroke="black" points="1572.23,-191.62 1568.73,-181.62 1565.23,-191.62 1572.23,-191.62"/>
</g>
<!-- 28&#45;&gt;26 -->
<g id="edge36" class="edge">
<title>28&#45;&gt;26</title>
<path fill="none" stroke="black" d="M4822.73,-503.7C4822.73,-496.41 4822.73,-487.73 4822.73,-479.54"/>
<polygon fill="black" stroke="black" points="4826.23,-479.62 4822.73,-469.62 4819.23,-479.62 4826.23,-479.62"/>
</g>
</g>
</svg>
