<?xml version="1.0" encoding="UTF-8" standalone="no"?>
<!DOCTYPE svg PUBLIC "-//W3C//DTD SVG 1.1//EN"
 "http://www.w3.org/Graphics/SVG/1.1/DTD/svg11.dtd">
<!-- Generated by graphviz version 12.2.1 (20241206.2353)
 -->
<!-- Title: G Pages: 1 -->
<svg width="3946pt" height="930pt"
 viewBox="0.00 0.00 3946.20 929.98" xmlns="http://www.w3.org/2000/svg" xmlns:xlink="http://www.w3.org/1999/xlink">
<g id="graph0" class="graph" transform="scale(1 1) rotate(0) translate(4 925.98)">
<title>G</title>
<polygon fill="white" stroke="none" points="-4,4 -4,-925.98 3942.2,-925.98 3942.2,4 -4,4"/>
<!-- 0 -->
<g id="node1" class="node">
<title>0</title>
<ellipse fill="none" stroke="black" cx="1174.93" cy="-903.98" rx="39.07" ry="18"/>
<text text-anchor="middle" x="1174.93" y="-898.93" font-family="Times New Roman,serif" font-size="14.00">START</text>
</g>
<!-- 1 -->
<g id="node2" class="node">
<title>1</title>
<ellipse fill="none" stroke="black" cx="1174.93" cy="-831.98" rx="29.86" ry="18"/>
<text text-anchor="middle" x="1174.93" y="-826.93" font-family="Times New Roman,serif" font-size="14.00">input</text>
</g>
<!-- 0&#45;&gt;1 -->
<g id="edge1" class="edge">
<title>0&#45;&gt;1</title>
<path fill="none" stroke="black" d="M1174.93,-885.68C1174.93,-878.39 1174.93,-869.71 1174.93,-861.52"/>
<polygon fill="black" stroke="black" points="1178.43,-861.6 1174.93,-851.6 1171.43,-861.6 1178.43,-861.6"/>
</g>
<!-- 10 -->
<g id="node11" class="node">
<title>10</title>
<ellipse fill="none" stroke="black" cx="1174.93" cy="-759.98" rx="450.56" ry="18"/>
<text text-anchor="middle" x="1174.93" y="-754.93" font-family="Times New Roman,serif" font-size="14.00">Kim Kitsuragi: “你确定吗？我们在这里还有事没做完……”他看着悬崖边废弃的高射炮塔。</text>
</g>
<!-- 1&#45;&gt;10 -->
<g id="edge2" class="edge">
<title>1&#45;&gt;10</title>
<path fill="none" stroke="black" d="M1174.93,-813.68C1174.93,-806.39 1174.93,-797.71 1174.93,-789.52"/>
<polygon fill="black" stroke="black" points="1178.43,-789.6 1174.93,-779.6 1171.43,-789.6 1178.43,-789.6"/>
</g>
<!-- 2 -->
<g id="node3" class="node">
<title>2</title>
<ellipse fill="none" stroke="black" cx="2032.93" cy="-903.98" rx="210.52" ry="18"/>
<text text-anchor="middle" x="2032.93" y="-898.93" font-family="Times New Roman,serif" font-size="14.00">You: “你说得对。我们开始吧。”[离开。]</text>
</g>
<!-- 3 -->
<g id="node4" class="node">
<title>3</title>
<ellipse fill="none" stroke="black" cx="1733.93" cy="-234" rx="218.2" ry="18"/>
<text text-anchor="middle" x="1733.93" y="-228.95" font-family="Times New Roman,serif" font-size="14.00">ROO A72 Motor Skiff: 你爬上船，启动引擎。</text>
</g>
<!-- 14 -->
<g id="node15" class="node">
<title>14</title>
<ellipse fill="none" stroke="black" cx="1353.93" cy="-162" rx="431.11" ry="18"/>
<text text-anchor="middle" x="1353.93" y="-156.95" font-family="Times New Roman,serif" font-size="14.00">Kim Kitsuragi: “走吧。这里的事已经做完了，”他说着，调整了一下眼镜，望向水面。</text>
</g>
<!-- 3&#45;&gt;14 -->
<g id="edge3" class="edge">
<title>3&#45;&gt;14</title>
<path fill="none" stroke="black" d="M1647.22,-217.03C1590.94,-206.66 1517.28,-193.09 1457.86,-182.15"/>
<polygon fill="black" stroke="black" points="1458.52,-178.71 1448.05,-180.34 1457.25,-185.59 1458.52,-178.71"/>
</g>
<!-- 4 -->
<g id="node5" class="node">
<title>4</title>
<ellipse fill="none" stroke="black" cx="1733.93" cy="-306" rx="452.1" ry="18"/>
<text text-anchor="middle" x="1733.93" y="-300.95" font-family="Times New Roman,serif" font-size="14.00">Cuno: “你确定吗？我们还有些破事要处理呢，警长……”他看着悬崖边废弃的高射炮塔。</text>
</g>
<!-- 4&#45;&gt;3 -->
<g id="edge4" class="edge">
<title>4&#45;&gt;3</title>
<path fill="none" stroke="black" d="M1733.93,-287.7C1733.93,-280.41 1733.93,-271.73 1733.93,-263.54"/>
<polygon fill="black" stroke="black" points="1737.43,-263.62 1733.93,-253.62 1730.43,-263.62 1737.43,-263.62"/>
</g>
<!-- 5 -->
<g id="node6" class="node">
<title>5</title>
<ellipse fill="none" stroke="black" cx="333.93" cy="-162" rx="70.8" ry="18"/>
<text text-anchor="middle" x="333.93" y="-156.95" font-family="Times New Roman,serif" font-size="14.00">IsCunoInParty()</text>
</g>
<!-- 7 -->
<g id="node8" class="node">
<title>7</title>
<polygon fill="none" stroke="black" points="162.93,-108 49.77,-90 162.93,-72 276.08,-90 162.93,-108"/>
<text text-anchor="middle" x="162.93" y="-84.95" font-family="Times New Roman,serif" font-size="14.00">!(IsCunoInParty())</text>
</g>
<!-- 5&#45;&gt;7 -->
<g id="edge6" class="edge">
<title>5&#45;&gt;7</title>
<path fill="none" stroke="black" d="M297.66,-146.15C270.28,-134.95 232.67,-119.55 204.15,-107.87"/>
<polygon fill="black" stroke="black" points="205.68,-104.72 195.1,-104.17 203.03,-111.2 205.68,-104.72"/>
</g>
<!-- 8 -->
<g id="node9" class="node">
<title>8</title>
<ellipse fill="none" stroke="black" cx="504.93" cy="-90" rx="210.52" ry="18"/>
<text text-anchor="middle" x="504.93" y="-84.95" font-family="Times New Roman,serif" font-size="14.00">You: “你说得对。我们开始吧。”[离开。]</text>
</g>
<!-- 5&#45;&gt;8 -->
<g id="edge5" class="edge">
<title>5&#45;&gt;8</title>
<path fill="none" stroke="black" d="M370.19,-146.15C394.25,-136.31 426.2,-123.23 452.95,-112.28"/>
<polygon fill="black" stroke="black" points="453.97,-115.64 461.9,-108.61 451.32,-109.16 453.97,-115.64"/>
</g>
<!-- 6 -->
<g id="node7" class="node">
<title>6</title>
<polygon fill="none" stroke="black" points="333.93,-252 233.8,-234 333.93,-216 434.05,-234 333.93,-252"/>
<text text-anchor="middle" x="333.93" y="-228.95" font-family="Times New Roman,serif" font-size="14.00">IsCunoInParty()</text>
</g>
<!-- 6&#45;&gt;5 -->
<g id="edge7" class="edge">
<title>6&#45;&gt;5</title>
<path fill="none" stroke="black" d="M333.93,-215.7C333.93,-208.41 333.93,-199.73 333.93,-191.54"/>
<polygon fill="black" stroke="black" points="337.43,-191.62 333.93,-181.62 330.43,-191.62 337.43,-191.62"/>
</g>
<!-- 20 -->
<g id="node21" class="node">
<title>20</title>
<ellipse fill="none" stroke="black" cx="162.93" cy="-18" rx="162.93" ry="18"/>
<text text-anchor="middle" x="162.93" y="-12.95" font-family="Times New Roman,serif" font-size="14.00">You: 是啊……还没有。[离开。]</text>
</g>
<!-- 7&#45;&gt;20 -->
<g id="edge8" class="edge">
<title>7&#45;&gt;20</title>
<path fill="none" stroke="black" d="M162.93,-71.7C162.93,-64.41 162.93,-55.73 162.93,-47.54"/>
<polygon fill="black" stroke="black" points="166.43,-47.62 162.93,-37.62 159.43,-47.62 166.43,-47.62"/>
</g>
<!-- 9 -->
<g id="node10" class="node">
<title>9</title>
<ellipse fill="none" stroke="black" cx="1174.93" cy="-687.98" rx="253.52" ry="18"/>
<text text-anchor="middle" x="1174.93" y="-682.93" font-family="Times New Roman,serif" font-size="14.00">ROO A72 Motor Skiff: 码头旁的小艇在波浪中摇摆。</text>
</g>
<!-- 12 -->
<g id="node13" class="node">
<title>12</title>
<ellipse fill="none" stroke="black" cx="785.93" cy="-604.99" rx="117.38" ry="28.99"/>
<text text-anchor="middle" x="785.93" y="-608.19" font-family="Times New Roman,serif" font-size="14.00">You: 返回内陆。</text>
<text text-anchor="middle" x="785.93" y="-591.69" font-family="Times New Roman,serif" font-size="14.00">“我们返回内陆吧。”</text>
</g>
<!-- 9&#45;&gt;12 -->
<g id="edge9" class="edge">
<title>9&#45;&gt;12</title>
<path fill="none" stroke="black" d="M1091.33,-670.57C1039.6,-660.31 971.85,-646.67 911.93,-633.98 902.37,-631.96 892.41,-629.81 882.47,-627.64"/>
<polygon fill="black" stroke="black" points="883.27,-624.24 872.75,-625.52 881.77,-631.07 883.27,-624.24"/>
</g>
<!-- 13 -->
<g id="node14" class="node">
<title>13</title>
<ellipse fill="none" stroke="black" cx="1362.93" cy="-604.99" rx="441.86" ry="18"/>
<text text-anchor="middle" x="1362.93" y="-599.94" font-family="Times New Roman,serif" font-size="14.00">ROO A72 Motor Skiff: 你踏上小艇，它在你的重量下轻柔地摇晃。回去的路上风平浪静。</text>
</g>
<!-- 9&#45;&gt;13 -->
<g id="edge10" class="edge">
<title>9&#45;&gt;13</title>
<path fill="none" stroke="black" d="M1214.8,-669.81C1243.24,-657.55 1281.71,-640.98 1312.32,-627.79"/>
<polygon fill="black" stroke="black" points="1313.6,-631.05 1321.4,-623.88 1310.83,-624.62 1313.6,-631.05"/>
</g>
<!-- 10&#45;&gt;9 -->
<g id="edge11" class="edge">
<title>10&#45;&gt;9</title>
<path fill="none" stroke="black" d="M1174.93,-741.68C1174.93,-734.39 1174.93,-725.71 1174.93,-717.52"/>
<polygon fill="black" stroke="black" points="1178.43,-717.6 1174.93,-707.6 1171.43,-717.6 1178.43,-717.6"/>
</g>
<!-- 11 -->
<g id="node12" class="node">
<title>11</title>
<ellipse fill="none" stroke="black" cx="1190.93" cy="-306" rx="72.85" ry="18"/>
<text text-anchor="middle" x="1190.93" y="-300.95" font-family="Times New Roman,serif" font-size="14.00">You: [离开。]</text>
</g>
<!-- 28 -->
<g id="node29" class="node">
<title>28</title>
<polygon fill="none" stroke="black" points="785.93,-540 527.29,-522 785.93,-504 1044.57,-522 785.93,-540"/>
<text text-anchor="middle" x="785.93" y="-516.95" font-family="Times New Roman,serif" font-size="14.00">Variable[&quot;TASK.inspect_the_phasmid_done&quot;]</text>
</g>
<!-- 12&#45;&gt;28 -->
<g id="edge12" class="edge">
<title>12&#45;&gt;28</title>
<path fill="none" stroke="black" d="M785.93,-575.66C785.93,-567.79 785.93,-559.24 785.93,-551.36"/>
<polygon fill="black" stroke="black" points="789.43,-551.61 785.93,-541.61 782.43,-551.61 789.43,-551.61"/>
</g>
<!-- 27 -->
<g id="node28" class="node">
<title>27</title>
<ellipse fill="none" stroke="black" cx="1362.93" cy="-522" rx="182.89" ry="18"/>
<text text-anchor="middle" x="1362.93" y="-516.95" font-family="Times New Roman,serif" font-size="14.00">Variable[&quot;TASK.inspect_the_phasmid_done&quot;]</text>
</g>
<!-- 13&#45;&gt;27 -->
<g id="edge13" class="edge">
<title>13&#45;&gt;27</title>
<path fill="none" stroke="black" d="M1362.93,-586.82C1362.93,-576.68 1362.93,-563.6 1362.93,-551.91"/>
<polygon fill="black" stroke="black" points="1366.43,-551.94 1362.93,-541.94 1359.43,-551.94 1366.43,-551.94"/>
</g>
<!-- 14&#45;&gt;14 -->
<g id="edge14" class="edge">
<title>14&#45;&gt;14</title>
<path fill="none" stroke="black" d="M1650.06,-175.46C1736.29,-174.99 1803.04,-170.5 1803.04,-162 1803.04,-153.88 1742.15,-149.43 1661.56,-148.63"/>
<polygon fill="black" stroke="black" points="1661.6,-145.13 1651.58,-148.55 1661.55,-152.13 1661.6,-145.13"/>
</g>
<!-- 15 -->
<g id="node16" class="node">
<title>15</title>
<ellipse fill="none" stroke="black" cx="785.93" cy="-378" rx="58.52" ry="18"/>
<text text-anchor="middle" x="785.93" y="-372.95" font-family="Times New Roman,serif" font-size="14.00">IsKimHere()</text>
</g>
<!-- 17 -->
<g id="node18" class="node">
<title>17</title>
<polygon fill="none" stroke="black" points="543.93,-324 448.14,-306 543.93,-288 639.71,-306 543.93,-324"/>
<text text-anchor="middle" x="543.93" y="-300.95" font-family="Times New Roman,serif" font-size="14.00">!(IsKimHere())</text>
</g>
<!-- 15&#45;&gt;17 -->
<g id="edge15" class="edge">
<title>15&#45;&gt;17</title>
<path fill="none" stroke="black" d="M744.32,-364.97C701.72,-352.64 635.59,-333.52 591.07,-320.64"/>
<polygon fill="black" stroke="black" points="592.28,-317.34 581.7,-317.93 590.34,-324.07 592.28,-317.34"/>
</g>
<!-- 18 -->
<g id="node19" class="node">
<title>18</title>
<ellipse fill="none" stroke="black" cx="974.93" cy="-234" rx="523.24" ry="18"/>
<text text-anchor="middle" x="974.93" y="-228.95" font-family="Times New Roman,serif" font-size="14.00">Cuno: “哦耶。”他交叉双臂，朝你点点头，露出一个自鸣得意的傻笑。“我们在这里干得不错，警探。”</text>
</g>
<!-- 15&#45;&gt;18 -->
<g id="edge16" class="edge">
<title>15&#45;&gt;18</title>
<path fill="none" stroke="black" d="M807.24,-360.99C840.4,-336.07 904.53,-287.89 943.16,-258.87"/>
<polygon fill="black" stroke="black" points="944.82,-261.99 950.72,-253.19 940.62,-256.4 944.82,-261.99"/>
</g>
<!-- 16 -->
<g id="node17" class="node">
<title>16</title>
<polygon fill="none" stroke="black" points="1213.93,-396 1131.17,-378 1213.93,-360 1296.68,-378 1213.93,-396"/>
<text text-anchor="middle" x="1213.93" y="-372.95" font-family="Times New Roman,serif" font-size="14.00">IsKimHere()</text>
</g>
<!-- 16&#45;&gt;11 -->
<g id="edge17" class="edge">
<title>16&#45;&gt;11</title>
<path fill="none" stroke="black" d="M1208.59,-360.76C1206.05,-353.04 1202.95,-343.59 1200.05,-334.77"/>
<polygon fill="black" stroke="black" points="1203.47,-333.97 1197.02,-325.56 1196.82,-336.15 1203.47,-333.97"/>
</g>
<!-- 17&#45;&gt;6 -->
<g id="edge18" class="edge">
<title>17&#45;&gt;6</title>
<path fill="none" stroke="black" d="M510.65,-293.91C475,-282.02 418.2,-263.09 378.66,-249.91"/>
<polygon fill="black" stroke="black" points="379.77,-246.59 369.18,-246.75 377.56,-253.23 379.77,-246.59"/>
</g>
<!-- 18&#45;&gt;14 -->
<g id="edge19" class="edge">
<title>18&#45;&gt;14</title>
<path fill="none" stroke="black" d="M1067.64,-215.88C1122.91,-205.67 1193.18,-192.69 1250.28,-182.14"/>
<polygon fill="black" stroke="black" points="1250.83,-185.6 1260.02,-180.34 1249.56,-178.72 1250.83,-185.6"/>
</g>
<!-- 19 -->
<g id="node20" class="node">
<title>19</title>
<ellipse fill="none" stroke="black" cx="2239.93" cy="-687.98" rx="591.82" ry="18"/>
<text text-anchor="middle" x="2239.93" y="-682.93" font-family="Times New Roman,serif" font-size="14.00">Esprit de Corps: 曷城警督躺在医院里，正在恢复。很是勉强。他会问你，你真的做完所有工作了吗？调查完成了吗？</text>
</g>
<!-- 21 -->
<g id="node22" class="node">
<title>21</title>
<ellipse fill="none" stroke="black" cx="2239.93" cy="-604.99" rx="229.97" ry="18"/>
<text text-anchor="middle" x="2239.93" y="-599.94" font-family="Times New Roman,serif" font-size="14.00">ROO A72 Motor Skiff: 你抵达码头，爬出小艇。</text>
</g>
<!-- 19&#45;&gt;21 -->
<g id="edge20" class="edge">
<title>19&#45;&gt;21</title>
<path fill="none" stroke="black" d="M2239.93,-669.81C2239.93,-659.67 2239.93,-646.59 2239.93,-634.91"/>
<polygon fill="black" stroke="black" points="2243.43,-634.94 2239.93,-624.94 2236.43,-634.94 2243.43,-634.94"/>
</g>
<!-- 22 -->
<g id="node23" class="node">
<title>22</title>
<ellipse fill="none" stroke="black" cx="3351.93" cy="-903.98" rx="568.28" ry="18"/>
<text text-anchor="middle" x="3351.93" y="-898.93" font-family="Times New Roman,serif" font-size="14.00">Esprit de Corps: 两个男人和一个女人站在无名村庄的混凝土广场，看着一艘黄色小船越靠越近。大海十分平静。</text>
</g>
<!-- 22&#45;&gt;22 -->
<g id="edge21" class="edge">
<title>22&#45;&gt;22</title>
<path fill="none" stroke="black" d="M3742.68,-917.42C3853.21,-916.86 3938.2,-912.38 3938.2,-903.98 3938.2,-895.88 3858.93,-891.42 3753.93,-890.62"/>
<polygon fill="black" stroke="black" points="3754.22,-887.12 3744.2,-890.55 3754.18,-894.12 3754.22,-887.12"/>
</g>
<!-- 23 -->
<g id="node24" class="node">
<title>23</title>
<ellipse fill="none" stroke="black" cx="2706.93" cy="-903.98" rx="58.52" ry="18"/>
<text text-anchor="middle" x="2706.93" y="-898.93" font-family="Times New Roman,serif" font-size="14.00">IsKimHere()</text>
</g>
<!-- 25 -->
<g id="node26" class="node">
<title>25</title>
<polygon fill="none" stroke="black" points="2239.93,-849.98 2144.14,-831.98 2239.93,-813.98 2335.71,-831.98 2239.93,-849.98"/>
<text text-anchor="middle" x="2239.93" y="-826.93" font-family="Times New Roman,serif" font-size="14.00">!(IsKimHere())</text>
</g>
<!-- 23&#45;&gt;25 -->
<g id="edge22" class="edge">
<title>23&#45;&gt;25</title>
<path fill="none" stroke="black" d="M2654.43,-895.55C2583.98,-885.52 2454.94,-866.94 2344.93,-849.98 2330.45,-847.75 2314.88,-845.27 2300.26,-842.91"/>
<polygon fill="black" stroke="black" points="2301.24,-839.52 2290.8,-841.38 2300.11,-846.43 2301.24,-839.52"/>
</g>
<!-- 26 -->
<g id="node27" class="node">
<title>26</title>
<ellipse fill="none" stroke="black" cx="2706.93" cy="-831.98" rx="352.81" ry="18"/>
<text text-anchor="middle" x="2706.93" y="-826.93" font-family="Times New Roman,serif" font-size="14.00">Perception (Hearing): 只是水面上传来了对话声。有人在内陆，在等你。</text>
</g>
<!-- 23&#45;&gt;26 -->
<g id="edge23" class="edge">
<title>23&#45;&gt;26</title>
<path fill="none" stroke="black" d="M2701.01,-885.68C2700.26,-878.39 2700.01,-869.71 2700.28,-861.52"/>
<polygon fill="black" stroke="black" points="2703.77,-861.81 2700.93,-851.6 2696.78,-861.35 2703.77,-861.81"/>
</g>
<!-- 24 -->
<g id="node25" class="node">
<title>24</title>
<polygon fill="none" stroke="black" points="785.93,-468 703.17,-450 785.93,-432 868.68,-450 785.93,-468"/>
<text text-anchor="middle" x="785.93" y="-444.95" font-family="Times New Roman,serif" font-size="14.00">IsKimHere()</text>
</g>
<!-- 24&#45;&gt;15 -->
<g id="edge24" class="edge">
<title>24&#45;&gt;15</title>
<path fill="none" stroke="black" d="M785.93,-431.7C785.93,-424.41 785.93,-415.73 785.93,-407.54"/>
<polygon fill="black" stroke="black" points="789.43,-407.62 785.93,-397.62 782.43,-407.62 789.43,-407.62"/>
</g>
<!-- 31 -->
<g id="node32" class="node">
<title>31</title>
<polygon fill="none" stroke="black" points="2239.93,-777.98 2139.8,-759.98 2239.93,-741.98 2340.05,-759.98 2239.93,-777.98"/>
<text text-anchor="middle" x="2239.93" y="-754.93" font-family="Times New Roman,serif" font-size="14.00">IsCunoInParty()</text>
</g>
<!-- 25&#45;&gt;31 -->
<g id="edge25" class="edge">
<title>25&#45;&gt;31</title>
<path fill="none" stroke="black" d="M2239.93,-813.68C2239.93,-806.39 2239.93,-797.71 2239.93,-789.52"/>
<polygon fill="black" stroke="black" points="2243.43,-789.6 2239.93,-779.6 2236.43,-789.6 2243.43,-789.6"/>
</g>
<!-- 26&#45;&gt;23 -->
<g id="edge26" class="edge">
<title>26&#45;&gt;23</title>
<path fill="none" stroke="black" d="M2712.82,-850.09C2713.58,-857.35 2713.83,-866.02 2713.58,-874.22"/>
<polygon fill="black" stroke="black" points="2710.09,-873.96 2712.94,-884.17 2717.07,-874.41 2710.09,-873.96"/>
</g>
<!-- 29 -->
<g id="node30" class="node">
<title>29</title>
<polygon fill="none" stroke="black" points="1259.93,-468 988.26,-450 1259.93,-432 1531.59,-450 1259.93,-468"/>
<text text-anchor="middle" x="1259.93" y="-444.95" font-family="Times New Roman,serif" font-size="14.00">!(Variable[&quot;TASK.inspect_the_phasmid_done&quot;])</text>
</g>
<!-- 27&#45;&gt;29 -->
<g id="edge27" class="edge">
<title>27&#45;&gt;29</title>
<path fill="none" stroke="black" d="M1337.46,-503.7C1323.88,-494.46 1307.01,-483 1292.48,-473.13"/>
<polygon fill="black" stroke="black" points="1294.82,-470.48 1284.58,-467.76 1290.89,-476.27 1294.82,-470.48"/>
</g>
<!-- 30 -->
<g id="node31" class="node">
<title>30</title>
<ellipse fill="none" stroke="black" cx="1710.93" cy="-450" rx="70.8" ry="18"/>
<text text-anchor="middle" x="1710.93" y="-444.95" font-family="Times New Roman,serif" font-size="14.00">IsCunoInParty()</text>
</g>
<!-- 27&#45;&gt;30 -->
<g id="edge28" class="edge">
<title>27&#45;&gt;30</title>
<path fill="none" stroke="black" d="M1441.02,-505.29C1502.55,-492.91 1587.34,-475.86 1645.37,-464.19"/>
<polygon fill="black" stroke="black" points="1646.01,-467.63 1655.12,-462.22 1644.63,-460.77 1646.01,-467.63"/>
</g>
<!-- 28&#45;&gt;24 -->
<g id="edge29" class="edge">
<title>28&#45;&gt;24</title>
<path fill="none" stroke="black" d="M785.93,-503.7C785.93,-496.41 785.93,-487.73 785.93,-479.54"/>
<polygon fill="black" stroke="black" points="789.43,-479.62 785.93,-469.62 782.43,-479.62 789.43,-479.62"/>
</g>
<!-- 29&#45;&gt;16 -->
<g id="edge30" class="edge">
<title>29&#45;&gt;16</title>
<path fill="none" stroke="black" d="M1249.02,-432.41C1243.35,-423.77 1236.29,-413.03 1230,-403.46"/>
<polygon fill="black" stroke="black" points="1233.06,-401.74 1224.64,-395.3 1227.21,-405.58 1233.06,-401.74"/>
</g>
<!-- 32 -->
<g id="node33" class="node">
<title>32</title>
<polygon fill="none" stroke="black" points="1710.93,-396 1597.77,-378 1710.93,-360 1824.08,-378 1710.93,-396"/>
<text text-anchor="middle" x="1710.93" y="-372.95" font-family="Times New Roman,serif" font-size="14.00">!(IsCunoInParty())</text>
</g>
<!-- 30&#45;&gt;32 -->
<g id="edge31" class="edge">
<title>30&#45;&gt;32</title>
<path fill="none" stroke="black" d="M1710.93,-431.7C1710.93,-424.41 1710.93,-415.73 1710.93,-407.54"/>
<polygon fill="black" stroke="black" points="1714.43,-407.62 1710.93,-397.62 1707.43,-407.62 1714.43,-407.62"/>
</g>
<!-- 33 -->
<g id="node34" class="node">
<title>33</title>
<ellipse fill="none" stroke="black" cx="1868.93" cy="-378" rx="27" ry="18"/>
<text text-anchor="middle" x="1868.93" y="-372.95" font-family="Times New Roman,serif" font-size="14.00">33</text>
</g>
<!-- 30&#45;&gt;33 -->
<g id="edge32" class="edge">
<title>30&#45;&gt;33</title>
<path fill="none" stroke="black" d="M1746.29,-433.98C1770.71,-423.53 1803.9,-409.15 1832.93,-396 1834.24,-395.41 1835.57,-394.8 1836.92,-394.18"/>
<polygon fill="black" stroke="black" points="1838.31,-397.39 1845.9,-390 1835.36,-391.04 1838.31,-397.39"/>
</g>
<!-- 31&#45;&gt;19 -->
<g id="edge33" class="edge">
<title>31&#45;&gt;19</title>
<path fill="none" stroke="black" d="M2239.93,-741.68C2239.93,-734.39 2239.93,-725.71 2239.93,-717.52"/>
<polygon fill="black" stroke="black" points="2243.43,-717.6 2239.93,-707.6 2236.43,-717.6 2243.43,-717.6"/>
</g>
<!-- 32&#45;&gt;4 -->
<g id="edge34" class="edge">
<title>32&#45;&gt;4</title>
<path fill="none" stroke="black" d="M1716.38,-360.41C1718.85,-352.88 1721.85,-343.75 1724.66,-335.19"/>
<polygon fill="black" stroke="black" points="1727.92,-336.48 1727.72,-325.88 1721.27,-334.29 1727.92,-336.48"/>
</g>
</g>
</svg>
