<?xml version="1.0" encoding="UTF-8" standalone="no"?>
<!DOCTYPE svg PUBLIC "-//W3C//DTD SVG 1.1//EN"
 "http://www.w3.org/Graphics/SVG/1.1/DTD/svg11.dtd">
<!-- Generated by graphviz version 12.2.1 (20241206.2353)
 -->
<!-- Title: G Pages: 1 -->
<svg width="13733pt" height="1190pt"
 viewBox="0.00 0.00 13732.50 1189.95" xmlns="http://www.w3.org/2000/svg" xmlns:xlink="http://www.w3.org/1999/xlink">
<g id="graph0" class="graph" transform="scale(1 1) rotate(0) translate(4 1185.95)">
<title>G</title>
<polygon fill="white" stroke="none" points="-4,4 -4,-1185.95 13728.5,-1185.95 13728.5,4 -4,4"/>
<!-- 0 -->
<g id="node1" class="node">
<title>0</title>
<ellipse fill="none" stroke="black" cx="7889.34" cy="-1163.95" rx="39.07" ry="18"/>
<text text-anchor="middle" x="7889.34" y="-1158.9" font-family="Times New Roman,serif" font-size="14.00">START</text>
</g>
<!-- 1 -->
<g id="node2" class="node">
<title>1</title>
<ellipse fill="none" stroke="black" cx="7889.34" cy="-1091.95" rx="29.86" ry="18"/>
<text text-anchor="middle" x="7889.34" y="-1086.9" font-family="Times New Roman,serif" font-size="14.00">input</text>
</g>
<!-- 0&#45;&gt;1 -->
<g id="edge1" class="edge">
<title>0&#45;&gt;1</title>
<path fill="none" stroke="black" d="M7889.34,-1145.64C7889.34,-1138.35 7889.34,-1129.67 7889.34,-1121.48"/>
<polygon fill="black" stroke="black" points="7892.84,-1121.57 7889.34,-1111.57 7885.84,-1121.57 7892.84,-1121.57"/>
</g>
<!-- 24 -->
<g id="node25" class="node">
<title>24</title>
<ellipse fill="none" stroke="black" cx="7889.34" cy="-1019.95" rx="83.6" ry="18"/>
<text text-anchor="middle" x="7889.34" y="-1014.9" font-family="Times New Roman,serif" font-size="14.00">Cuno: IsKimHere()</text>
</g>
<!-- 1&#45;&gt;24 -->
<g id="edge2" class="edge">
<title>1&#45;&gt;24</title>
<path fill="none" stroke="black" d="M7889.34,-1073.64C7889.34,-1066.35 7889.34,-1057.67 7889.34,-1049.48"/>
<polygon fill="black" stroke="black" points="7892.84,-1049.57 7889.34,-1039.57 7885.84,-1049.57 7892.84,-1049.57"/>
</g>
<!-- 2 -->
<g id="node3" class="node">
<title>2</title>
<ellipse fill="none" stroke="black" cx="484.34" cy="-720.96" rx="484.34" ry="18"/>
<text text-anchor="middle" x="484.34" y="-715.91" font-family="Times New Roman,serif" font-size="14.00">You: （咽下血，然后总结道。）“我们一寸一寸地翻遍整个小岛，继续*任务链*的下一环节。”</text>
</g>
<!-- 30 -->
<g id="node31" class="node">
<title>30</title>
<ellipse fill="none" stroke="black" cx="3637.34" cy="-637.97" rx="207.45" ry="18"/>
<text text-anchor="middle" x="3637.34" y="-632.92" font-family="Times New Roman,serif" font-size="14.00">Kim Kitsuragi: “好吧，”他简洁的回答到。</text>
</g>
<!-- 2&#45;&gt;30 -->
<g id="edge3" class="edge">
<title>2&#45;&gt;30</title>
<path fill="none" stroke="black" d="M719.98,-704.81C801.47,-700.04 893.39,-695.18 977.34,-691.97 1884.5,-657.19 2966.61,-644.57 3420.33,-640.59"/>
<polygon fill="black" stroke="black" points="3420.11,-644.09 3430.08,-640.5 3420.05,-637.09 3420.11,-644.09"/>
</g>
<!-- 3 -->
<g id="node4" class="node">
<title>3</title>
<ellipse fill="none" stroke="black" cx="8876.34" cy="-399.98" rx="70.8" ry="18"/>
<text text-anchor="middle" x="8876.34" y="-394.93" font-family="Times New Roman,serif" font-size="14.00">You: “哦……”</text>
</g>
<!-- 58 -->
<g id="node59" class="node">
<title>58</title>
<ellipse fill="none" stroke="black" cx="8914.34" cy="-316.99" rx="483.31" ry="28.99"/>
<text text-anchor="middle" x="8914.34" y="-320.19" font-family="Times New Roman,serif" font-size="14.00">Kim Kitsuragi: “你一直翻来覆去，然后蜷缩起来，半身沾满了伤口流出来的血。你没事吧？”</text>
<text text-anchor="middle" x="8914.34" y="-303.69" font-family="Times New Roman,serif" font-size="14.00">“你一直翻来覆去，然后蜷缩起来，半边身体沾满了伤口流出来的血。你没事吧？”</text>
</g>
<!-- 3&#45;&gt;58 -->
<g id="edge4" class="edge">
<title>3&#45;&gt;58</title>
<path fill="none" stroke="black" d="M8884.4,-381.81C8887.88,-374.4 8892.09,-365.41 8896.25,-356.54"/>
<polygon fill="black" stroke="black" points="8899.34,-358.21 8900.42,-347.67 8893,-355.23 8899.34,-358.21"/>
</g>
<!-- 4 -->
<g id="node5" class="node">
<title>4</title>
<ellipse fill="none" stroke="black" cx="1388.34" cy="-720.96" rx="401.94" ry="18"/>
<text text-anchor="middle" x="1388.34" y="-715.91" font-family="Times New Roman,serif" font-size="14.00">You: （咽下血，然后总结道。）“我们回内陆吧，继续*任务链*的下一环节。”</text>
</g>
<!-- 4&#45;&gt;30 -->
<g id="edge5" class="edge">
<title>4&#45;&gt;30</title>
<path fill="none" stroke="black" d="M1586.58,-704.88C1654.06,-700.17 1729.96,-695.33 1799.34,-691.97 2386.88,-663.5 3080.87,-648.55 3423.67,-642.41"/>
<polygon fill="black" stroke="black" points="3423.51,-645.92 3433.45,-642.24 3423.39,-638.92 3423.51,-645.92"/>
</g>
<!-- 5 -->
<g id="node6" class="node">
<title>5</title>
<ellipse fill="none" stroke="black" cx="10089.34" cy="-637.97" rx="521.7" ry="18"/>
<text text-anchor="middle" x="10089.34" y="-632.92" font-family="Times New Roman,serif" font-size="14.00">Half Light: 赶快离开这个鬼地方。这操蛋的世界，操蛋的生活，操蛋的身体——赶紧他妈的走就对了。</text>
</g>
<!-- 13 -->
<g id="node14" class="node">
<title>13</title>
<ellipse fill="none" stroke="black" cx="10108.34" cy="-554.97" rx="508.91" ry="18"/>
<text text-anchor="middle" x="10108.34" y="-549.92" font-family="Times New Roman,serif" font-size="14.00">Savoir Faire: 床单被染成了红色。你又开始流血了。振作起来。只要离开这里，然后完成这件破事。</text>
</g>
<!-- 5&#45;&gt;13 -->
<g id="edge6" class="edge">
<title>5&#45;&gt;13</title>
<path fill="none" stroke="black" d="M10093.37,-619.79C10095.77,-609.55 10098.88,-596.29 10101.64,-584.52"/>
<polygon fill="black" stroke="black" points="10105.03,-585.41 10103.91,-574.88 10098.21,-583.81 10105.03,-585.41"/>
</g>
<!-- 6 -->
<g id="node7" class="node">
<title>6</title>
<ellipse fill="none" stroke="black" cx="6212.34" cy="-554.97" rx="145.52" ry="18"/>
<text text-anchor="middle" x="6212.34" y="-549.92" font-family="Times New Roman,serif" font-size="14.00">You: “是啊。关于工作的。”</text>
</g>
<!-- 9 -->
<g id="node10" class="node">
<title>9</title>
<ellipse fill="none" stroke="black" cx="5968.34" cy="-471.98" rx="206.94" ry="18"/>
<text text-anchor="middle" x="5968.34" y="-466.93" font-family="Times New Roman,serif" font-size="14.00">Cuno: Variable[&quot;TASK.extract_a_confession_done&quot;]</text>
</g>
<!-- 6&#45;&gt;9 -->
<g id="edge7" class="edge">
<title>6&#45;&gt;9</title>
<path fill="none" stroke="black" d="M6162.96,-537.58C6124.62,-524.86 6071.21,-507.13 6030.05,-493.47"/>
<polygon fill="black" stroke="black" points="6031.35,-490.21 6020.76,-490.38 6029.15,-496.85 6031.35,-490.21"/>
</g>
<!-- 7 -->
<g id="node8" class="node">
<title>7</title>
<ellipse fill="none" stroke="black" cx="6080.34" cy="-803.95" rx="75.92" ry="18"/>
<text text-anchor="middle" x="6080.34" y="-798.9" font-family="Times New Roman,serif" font-size="14.00">resting_after_hub</text>
</g>
<!-- 7&#45;&gt;2 -->
<g id="edge8" class="edge">
<title>7&#45;&gt;2</title>
<path fill="none" stroke="black" d="M6004.41,-802.64C5449.99,-800.35 2018.06,-784.88 977.34,-749.95 895.31,-747.19 805.67,-742.59 725.6,-737.89"/>
<polygon fill="black" stroke="black" points="726.06,-734.42 715.88,-737.32 725.65,-741.4 726.06,-734.42"/>
</g>
<!-- 7&#45;&gt;4 -->
<g id="edge9" class="edge">
<title>7&#45;&gt;4</title>
<path fill="none" stroke="black" d="M6004.24,-802.59C5502.65,-800.11 2664.8,-784.75 1799.34,-749.95 1731.53,-747.22 1657.53,-742.67 1591.24,-738.02"/>
<polygon fill="black" stroke="black" points="1591.54,-734.54 1581.32,-737.32 1591.05,-741.52 1591.54,-734.54"/>
</g>
<!-- 8 -->
<g id="node9" class="node">
<title>8</title>
<ellipse fill="none" stroke="black" cx="8736.34" cy="-720.96" rx="204.38" ry="18"/>
<text text-anchor="middle" x="8736.34" y="-715.91" font-family="Times New Roman,serif" font-size="14.00">You: “让我们解决这个该死的案子吧。”</text>
</g>
<!-- 7&#45;&gt;8 -->
<g id="edge10" class="edge">
<title>7&#45;&gt;8</title>
<path fill="none" stroke="black" d="M6156.57,-803.01C6449.31,-802.89 7529.41,-798.92 8417.34,-749.95 8475.77,-746.73 8540.07,-741.42 8595.54,-736.29"/>
<polygon fill="black" stroke="black" points="8595.74,-739.79 8605.37,-735.38 8595.09,-732.82 8595.74,-739.79"/>
</g>
<!-- 12 -->
<g id="node13" class="node">
<title>12</title>
<ellipse fill="none" stroke="black" cx="7282.34" cy="-720.96" rx="247.37" ry="18"/>
<text text-anchor="middle" x="7282.34" y="-715.91" font-family="Times New Roman,serif" font-size="14.00">You: “其实——这完全就是毁灭性的灾难，金。”</text>
</g>
<!-- 7&#45;&gt;12 -->
<g id="edge12" class="edge">
<title>7&#45;&gt;12</title>
<path fill="none" stroke="black" d="M6154.94,-800.11C6314.83,-793.74 6702.36,-776.72 7026.34,-749.95 7065.37,-746.72 7107.67,-742.43 7146.43,-738.17"/>
<polygon fill="black" stroke="black" points="7146.73,-741.66 7156.29,-737.08 7145.96,-734.7 7146.73,-741.66"/>
</g>
<!-- 15 -->
<g id="node16" class="node">
<title>15</title>
<ellipse fill="none" stroke="black" cx="2257.34" cy="-720.96" rx="449.03" ry="18"/>
<text text-anchor="middle" x="2257.34" y="-715.91" font-family="Times New Roman,serif" font-size="14.00">You: （咽下血，然后总结道。）“我们要弄清罪犯的动机，继续*任务链*的下一环节。”</text>
</g>
<!-- 7&#45;&gt;15 -->
<g id="edge13" class="edge">
<title>7&#45;&gt;15</title>
<path fill="none" stroke="black" d="M6004.19,-803.02C5639.11,-803.12 4031.54,-800.51 2715.34,-749.95 2640.19,-747.06 2558.19,-742.5 2484.6,-737.89"/>
<polygon fill="black" stroke="black" points="2485.05,-734.41 2474.84,-737.27 2484.6,-741.39 2485.05,-734.41"/>
</g>
<!-- 16 -->
<g id="node17" class="node">
<title>16</title>
<ellipse fill="none" stroke="black" cx="7980.34" cy="-720.96" rx="394.74" ry="28.99"/>
<text text-anchor="middle" x="7980.34" y="-724.16" font-family="Times New Roman,serif" font-size="14.00">You: “我睡得很沉，现在感觉精力充沛。”（试着掩饰手上渗出的血液。）</text>
<text text-anchor="middle" x="7980.34" y="-707.66" font-family="Times New Roman,serif" font-size="14.00">“我睡得很沉，现在感觉精力充沛。”（拼命想掩饰手上渗出的血液。）</text>
</g>
<!-- 7&#45;&gt;16 -->
<g id="edge14" class="edge">
<title>7&#45;&gt;16</title>
<path fill="none" stroke="black" d="M6155.63,-801.15C6374.37,-795.72 7028.78,-778.15 7571.34,-749.95 7610.81,-747.9 7652.41,-745.42 7693.34,-742.79"/>
<polygon fill="black" stroke="black" points="7693.32,-746.3 7703.07,-742.17 7692.87,-739.32 7693.32,-746.3"/>
</g>
<!-- 19 -->
<g id="node20" class="node">
<title>19</title>
<ellipse fill="none" stroke="black" cx="3173.34" cy="-720.96" rx="449.03" ry="18"/>
<text text-anchor="middle" x="3173.34" y="-715.91" font-family="Times New Roman,serif" font-size="14.00">You: （咽下血，然后总结道。）“我们要让那个罪犯认罪，继续*任务链*的下一环节。”</text>
</g>
<!-- 7&#45;&gt;19 -->
<g id="edge15" class="edge">
<title>7&#45;&gt;19</title>
<path fill="none" stroke="black" d="M6004.39,-802.39C5703.55,-799.97 4566.41,-788.63 3631.34,-749.95 3557.15,-746.88 3476.26,-742.33 3403.39,-737.79"/>
<polygon fill="black" stroke="black" points="3403.95,-734.32 3393.75,-737.19 3403.51,-741.31 3403.95,-734.32"/>
</g>
<!-- 23 -->
<g id="node24" class="node">
<title>23</title>
<ellipse fill="none" stroke="black" cx="4101.34" cy="-720.96" rx="460.8" ry="18"/>
<text text-anchor="middle" x="4101.34" y="-715.91" font-family="Times New Roman,serif" font-size="14.00">You: （咽下血，然后总结道。）“我们调查一个那个大混蛋，继续*任务链*的下一环节。”</text>
</g>
<!-- 7&#45;&gt;23 -->
<g id="edge16" class="edge">
<title>7&#45;&gt;23</title>
<path fill="none" stroke="black" d="M6004.95,-800.95C5784.38,-794.97 5121.22,-775.98 4571.34,-749.95 4497.75,-746.47 4417.73,-741.97 4344.92,-737.6"/>
<polygon fill="black" stroke="black" points="4345.47,-734.12 4335.28,-737.02 4345.05,-741.11 4345.47,-734.12"/>
</g>
<!-- 40 -->
<g id="node41" class="node">
<title>40</title>
<ellipse fill="none" stroke="black" cx="4870.34" cy="-720.96" rx="290.37" ry="18"/>
<text text-anchor="middle" x="4870.34" y="-715.91" font-family="Times New Roman,serif" font-size="14.00">You: 把血吐出来，继续回去工作。你就是那种狠角色。</text>
</g>
<!-- 7&#45;&gt;40 -->
<g id="edge11" class="edge">
<title>7&#45;&gt;40</title>
<path fill="none" stroke="black" d="M6006.27,-799.51C5851.1,-792.12 5480.62,-773.45 5170.34,-749.95 5124.78,-746.5 5075.38,-742.14 5030.08,-737.9"/>
<polygon fill="black" stroke="black" points="5030.44,-734.42 5020.16,-736.97 5029.78,-741.39 5030.44,-734.42"/>
</g>
<!-- 57 -->
<g id="node58" class="node">
<title>57</title>
<ellipse fill="none" stroke="black" cx="5616.34" cy="-720.96" rx="437.25" ry="18"/>
<text text-anchor="middle" x="5616.34" y="-715.91" font-family="Times New Roman,serif" font-size="14.00">You: （咽下血，然后总结道。）“让我们逮捕那个罪犯，继续*任务链*的下一环节。”</text>
</g>
<!-- 7&#45;&gt;57 -->
<g id="edge17" class="edge">
<title>7&#45;&gt;57</title>
<path fill="none" stroke="black" d="M6020.63,-792.53C5946.15,-779.52 5817.39,-757.05 5725.18,-740.95"/>
<polygon fill="black" stroke="black" points="5725.78,-737.51 5715.33,-739.24 5724.58,-744.4 5725.78,-737.51"/>
</g>
<!-- 59 -->
<g id="node60" class="node">
<title>59</title>
<ellipse fill="none" stroke="black" cx="6544.34" cy="-720.96" rx="472.57" ry="18"/>
<text text-anchor="middle" x="6544.34" y="-715.91" font-family="Times New Roman,serif" font-size="14.00">You: （咽下血，然后总结道。）“我们再去跟那个罪犯聊一次，继续*任务链*的下一环节。”</text>
</g>
<!-- 7&#45;&gt;59 -->
<g id="edge18" class="edge">
<title>7&#45;&gt;59</title>
<path fill="none" stroke="black" d="M6140.05,-792.53C6214.42,-779.55 6342.89,-757.12 6435.07,-741.03"/>
<polygon fill="black" stroke="black" points="6435.66,-744.48 6444.91,-739.31 6434.46,-737.58 6435.66,-744.48"/>
</g>
<!-- 42 -->
<g id="node43" class="node">
<title>42</title>
<ellipse fill="none" stroke="black" cx="8763.34" cy="-637.97" rx="206.94" ry="18"/>
<text text-anchor="middle" x="8763.34" y="-632.92" font-family="Times New Roman,serif" font-size="14.00">Cuno: Variable[&quot;TASK.extract_a_confession_done&quot;]</text>
</g>
<!-- 8&#45;&gt;42 -->
<g id="edge19" class="edge">
<title>8&#45;&gt;42</title>
<path fill="none" stroke="black" d="M8742.07,-702.78C8745.52,-692.44 8749.99,-679.01 8753.95,-667.14"/>
<polygon fill="black" stroke="black" points="8757.21,-668.43 8757.05,-657.83 8750.57,-666.21 8757.21,-668.43"/>
</g>
<!-- 10 -->
<g id="node11" class="node">
<title>10</title>
<polygon fill="none" stroke="black" points="5421.34,-417.98 5163.42,-399.98 5421.34,-381.98 5679.26,-399.98 5421.34,-417.98"/>
<text text-anchor="middle" x="5421.34" y="-394.93" font-family="Times New Roman,serif" font-size="14.00">Variable[&quot;TASK.extract_a_confession_done&quot;]</text>
</g>
<!-- 9&#45;&gt;10 -->
<g id="edge20" class="edge">
<title>9&#45;&gt;10</title>
<path fill="none" stroke="black" d="M5855.33,-456.52C5756.73,-443.9 5615.06,-425.77 5520.71,-413.7"/>
<polygon fill="black" stroke="black" points="5521.31,-410.25 5510.95,-412.45 5520.43,-417.19 5521.31,-410.25"/>
</g>
<!-- 11 -->
<g id="node12" class="node">
<title>11</title>
<polygon fill="none" stroke="black" points="5968.34,-417.98 5697.4,-399.98 5968.34,-381.98 6239.29,-399.98 5968.34,-417.98"/>
<text text-anchor="middle" x="5968.34" y="-394.93" font-family="Times New Roman,serif" font-size="14.00">!(Variable[&quot;TASK.extract_a_confession_done&quot;])</text>
</g>
<!-- 9&#45;&gt;11 -->
<g id="edge21" class="edge">
<title>9&#45;&gt;11</title>
<path fill="none" stroke="black" d="M5968.34,-453.68C5968.34,-446.39 5968.34,-437.71 5968.34,-429.52"/>
<polygon fill="black" stroke="black" points="5971.84,-429.6 5968.34,-419.6 5964.84,-429.6 5971.84,-429.6"/>
</g>
<!-- 18 -->
<g id="node19" class="node">
<title>18</title>
<ellipse fill="none" stroke="black" cx="5421.34" cy="-316.99" rx="533.47" ry="18"/>
<text text-anchor="middle" x="5421.34" y="-311.94" font-family="Times New Roman,serif" font-size="14.00">Kim Kitsuragi: “别担心，警探。我们已经解决这个案子，全部处理好了。”他看向北方。“你准备好了吗？”</text>
</g>
<!-- 10&#45;&gt;18 -->
<g id="edge22" class="edge">
<title>10&#45;&gt;18</title>
<path fill="none" stroke="black" d="M5421.34,-381.81C5421.34,-371.67 5421.34,-358.59 5421.34,-346.91"/>
<polygon fill="black" stroke="black" points="5424.84,-346.94 5421.34,-336.94 5417.84,-346.94 5424.84,-346.94"/>
</g>
<!-- 63 -->
<g id="node63" class="node">
<title>63</title>
<ellipse fill="none" stroke="black" cx="6345.34" cy="-316.99" rx="372.26" ry="18"/>
<text text-anchor="middle" x="6345.34" y="-311.94" font-family="Times New Roman,serif" font-size="14.00">Kim Kitsuragi: “别担心，警探。我们会解决这个案子的。你准备好了吗？”</text>
</g>
<!-- 11&#45;&gt;63 -->
<g id="edge23" class="edge">
<title>11&#45;&gt;63</title>
<path fill="none" stroke="black" d="M6030.17,-385.7C6091.34,-372.56 6185.64,-352.3 6255.16,-337.37"/>
<polygon fill="black" stroke="black" points="6255.57,-340.86 6264.61,-335.33 6254.1,-334.01 6255.57,-340.86"/>
</g>
<!-- 20 -->
<g id="node21" class="node">
<title>20</title>
<ellipse fill="none" stroke="black" cx="6920.34" cy="-637.97" rx="438.79" ry="18"/>
<text text-anchor="middle" x="6920.34" y="-632.92" font-family="Times New Roman,serif" font-size="14.00">Kim Kitsuragi: 他皱皱眉。“我不想吵醒你——也许我应该这么做？是关于工作的梦吗？”</text>
</g>
<!-- 12&#45;&gt;20 -->
<g id="edge24" class="edge">
<title>12&#45;&gt;20</title>
<path fill="none" stroke="black" d="M7208.21,-703.37C7150.28,-690.41 7069.59,-672.36 7008.37,-658.66"/>
<polygon fill="black" stroke="black" points="7009.18,-655.26 6998.66,-656.49 7007.65,-662.09 7009.18,-655.26"/>
</g>
<!-- 55 -->
<g id="node56" class="node">
<title>55</title>
<ellipse fill="none" stroke="black" cx="10108.34" cy="-471.98" rx="732.06" ry="18"/>
<text text-anchor="middle" x="10108.34" y="-466.93" font-family="Times New Roman,serif" font-size="14.00">Volition: 哈里……我知道你有很多话想说——但是有一点，只要记得你已经走了这么远。而且现在只要再往前一点就好。让我们结束这一切吧。</text>
</g>
<!-- 13&#45;&gt;55 -->
<g id="edge25" class="edge">
<title>13&#45;&gt;55</title>
<path fill="none" stroke="black" d="M10108.34,-536.8C10108.34,-526.67 10108.34,-513.58 10108.34,-501.9"/>
<polygon fill="black" stroke="black" points="10111.84,-501.93 10108.34,-491.93 10104.84,-501.93 10111.84,-501.93"/>
</g>
<!-- 14 -->
<g id="node15" class="node">
<title>14</title>
<ellipse fill="none" stroke="black" cx="13096.34" cy="-234" rx="628.16" ry="18"/>
<text text-anchor="middle" x="13096.34" y="-228.95" font-family="Times New Roman,serif" font-size="14.00">Cuno: “是啊，没什么大不了的，别他妈太在意。最恶劣的梦都是跟婊子有关的——你绝对不会*相信*坤诺看见的那个C……”</text>
</g>
<!-- 56 -->
<g id="node57" class="node">
<title>56</title>
<ellipse fill="none" stroke="black" cx="11662.34" cy="-162" rx="208.99" ry="18"/>
<text text-anchor="middle" x="11662.34" y="-156.95" font-family="Times New Roman,serif" font-size="14.00">Empathy: 好像不太妙，他梦里的那个C。</text>
</g>
<!-- 14&#45;&gt;56 -->
<g id="edge26" class="edge">
<title>14&#45;&gt;56</title>
<path fill="none" stroke="black" d="M12786.95,-217.9C12502.57,-204.02 12090.09,-183.88 11851.75,-172.25"/>
<polygon fill="black" stroke="black" points="11852.21,-168.76 11842.05,-171.77 11851.86,-175.76 11852.21,-168.76"/>
</g>
<!-- 15&#45;&gt;30 -->
<g id="edge27" class="edge">
<title>15&#45;&gt;30</title>
<path fill="none" stroke="black" d="M2495.04,-705.27C2565.92,-700.93 2643.77,-696.21 2715.34,-691.97 2972.38,-676.72 3269.76,-659.75 3455.72,-649.21"/>
<polygon fill="black" stroke="black" points="3455.68,-652.72 3465.46,-648.66 3455.28,-645.73 3455.68,-652.72"/>
</g>
<!-- 41 -->
<g id="node42" class="node">
<title>41</title>
<ellipse fill="none" stroke="black" cx="7991.34" cy="-399.98" rx="379.93" ry="18"/>
<text text-anchor="middle" x="7991.34" y="-394.93" font-family="Times New Roman,serif" font-size="14.00">Kim Kitsuragi: “当然。我在想是不是伤口裂开了……准备好继续行动了吗？”</text>
</g>
<!-- 16&#45;&gt;41 -->
<g id="edge28" class="edge">
<title>16&#45;&gt;41</title>
<path fill="none" stroke="black" d="M7981.32,-691.65C7983.4,-631.31 7988.25,-490.6 7990.35,-429.81"/>
<polygon fill="black" stroke="black" points="7993.84,-430.06 7990.69,-419.94 7986.84,-429.82 7993.84,-430.06"/>
</g>
<!-- 17 -->
<g id="node18" class="node">
<title>17</title>
<ellipse fill="none" stroke="black" cx="9935.34" cy="-316.99" rx="519.9" ry="28.99"/>
<text text-anchor="middle" x="9935.34" y="-320.19" font-family="Times New Roman,serif" font-size="14.00">Kim Kitsuragi: “你确定没问题吗？你一直翻来覆去，然后蜷缩起来，半身沾满了伤口流出来的血。”</text>
<text text-anchor="middle" x="9935.34" y="-303.69" font-family="Times New Roman,serif" font-size="14.00">“你确定没问题吗？你一直翻来覆去，然后蜷缩起来，半边身体沾满了伤口流出来的血。”</text>
</g>
<!-- 62 -->
<g id="node62" class="node">
<title>62</title>
<ellipse fill="none" stroke="black" cx="8658.34" cy="-234" rx="117.37" ry="18"/>
<text text-anchor="middle" x="8658.34" y="-228.95" font-family="Times New Roman,serif" font-size="14.00">Jump to: [resting_after_hub]</text>
</g>
<!-- 17&#45;&gt;62 -->
<g id="edge29" class="edge">
<title>17&#45;&gt;62</title>
<path fill="none" stroke="black" d="M9597.74,-294.58C9326.5,-277.38 8961.35,-254.22 8776.35,-242.48"/>
<polygon fill="black" stroke="black" points="8776.68,-239 8766.48,-241.86 8776.24,-245.98 8776.68,-239"/>
</g>
<!-- 46 -->
<g id="node47" class="node">
<title>46</title>
<ellipse fill="none" stroke="black" cx="6745.34" cy="-234" rx="117.37" ry="18"/>
<text text-anchor="middle" x="6745.34" y="-228.95" font-family="Times New Roman,serif" font-size="14.00">Jump to: [resting_after_hub]</text>
</g>
<!-- 18&#45;&gt;46 -->
<g id="edge30" class="edge">
<title>18&#45;&gt;46</title>
<path fill="none" stroke="black" d="M5671.93,-300.66C5957.7,-283.18 6412.92,-255.33 6626.89,-242.25"/>
<polygon fill="black" stroke="black" points="6626.86,-245.75 6636.63,-241.65 6626.43,-238.77 6626.86,-245.75"/>
</g>
<!-- 19&#45;&gt;30 -->
<g id="edge31" class="edge">
<title>19&#45;&gt;30</title>
<path fill="none" stroke="black" d="M3270.89,-702.93C3348.96,-689.3 3458.04,-670.26 3536.86,-656.5"/>
<polygon fill="black" stroke="black" points="3537.04,-660.03 3546.29,-654.86 3535.84,-653.13 3537.04,-660.03"/>
</g>
<!-- 20&#45;&gt;6 -->
<g id="edge34" class="edge">
<title>20&#45;&gt;6</title>
<path fill="none" stroke="black" d="M6776.64,-620.53C6644.26,-605.38 6450.33,-583.2 6327.76,-569.18"/>
<polygon fill="black" stroke="black" points="6328.33,-565.72 6318,-568.06 6327.54,-572.68 6328.33,-565.72"/>
</g>
<!-- 21 -->
<g id="node22" class="node">
<title>21</title>
<ellipse fill="none" stroke="black" cx="6693.34" cy="-554.97" rx="145.52" ry="18"/>
<text text-anchor="middle" x="6693.34" y="-549.92" font-family="Times New Roman,serif" font-size="14.00">You: “不，是关于前妻的。”</text>
</g>
<!-- 20&#45;&gt;21 -->
<g id="edge33" class="edge">
<title>20&#45;&gt;21</title>
<path fill="none" stroke="black" d="M6871.64,-619.59C6836.07,-606.9 6787.73,-589.65 6750.36,-576.32"/>
<polygon fill="black" stroke="black" points="6751.65,-573.06 6741.06,-573 6749.3,-579.66 6751.65,-573.06"/>
</g>
<!-- 48 -->
<g id="node49" class="node">
<title>48</title>
<ellipse fill="none" stroke="black" cx="6979.34" cy="-554.97" rx="98.44" ry="18"/>
<text text-anchor="middle" x="6979.34" y="-549.92" font-family="Times New Roman,serif" font-size="14.00">You: “去他的吧。”</text>
</g>
<!-- 20&#45;&gt;48 -->
<g id="edge32" class="edge">
<title>20&#45;&gt;48</title>
<path fill="none" stroke="black" d="M6932.85,-619.79C6940.83,-608.84 6951.33,-594.43 6960.32,-582.08"/>
<polygon fill="black" stroke="black" points="6962.9,-584.49 6965.96,-574.35 6957.24,-580.37 6962.9,-584.49"/>
</g>
<!-- 45 -->
<g id="node46" class="node">
<title>45</title>
<ellipse fill="none" stroke="black" cx="6669.34" cy="-471.98" rx="175.72" ry="18"/>
<text text-anchor="middle" x="6669.34" y="-466.93" font-family="Times New Roman,serif" font-size="14.00">Kim Kitsuragi: 警督默默地点点头。</text>
</g>
<!-- 21&#45;&gt;45 -->
<g id="edge35" class="edge">
<title>21&#45;&gt;45</title>
<path fill="none" stroke="black" d="M6688.25,-536.8C6685.19,-526.45 6681.21,-513.03 6677.69,-501.16"/>
<polygon fill="black" stroke="black" points="6681.13,-500.46 6674.94,-491.86 6674.42,-502.45 6681.13,-500.46"/>
</g>
<!-- 22 -->
<g id="node23" class="node">
<title>22</title>
<ellipse fill="none" stroke="black" cx="10334.34" cy="-234" rx="522.21" ry="18"/>
<text text-anchor="middle" x="10334.34" y="-228.95" font-family="Times New Roman,serif" font-size="14.00">Cuno: “坤诺知道这些破事。最恶劣的梦都是跟婊子有关的——你绝对不会*相信*坤诺梦到的那个C……”</text>
</g>
<!-- 22&#45;&gt;56 -->
<g id="edge36" class="edge">
<title>22&#45;&gt;56</title>
<path fill="none" stroke="black" d="M10612.33,-218.35C10871.83,-204.67 11251.84,-184.64 11476.45,-172.8"/>
<polygon fill="black" stroke="black" points="11476.38,-176.31 11486.18,-172.29 11476.01,-169.32 11476.38,-176.31"/>
</g>
<!-- 23&#45;&gt;30 -->
<g id="edge37" class="edge">
<title>23&#45;&gt;30</title>
<path fill="none" stroke="black" d="M4003.51,-702.88C3925.55,-689.27 3816.79,-670.29 3738.08,-656.55"/>
<polygon fill="black" stroke="black" points="3739.12,-653.18 3728.67,-654.91 3737.92,-660.07 3739.12,-653.18"/>
</g>
<!-- 25 -->
<g id="node26" class="node">
<title>25</title>
<polygon fill="none" stroke="black" points="7791.34,-965.95 7708.59,-947.95 7791.34,-929.95 7874.1,-947.95 7791.34,-965.95"/>
<text text-anchor="middle" x="7791.34" y="-942.9" font-family="Times New Roman,serif" font-size="14.00">IsKimHere()</text>
</g>
<!-- 24&#45;&gt;25 -->
<g id="edge38" class="edge">
<title>24&#45;&gt;25</title>
<path fill="none" stroke="black" d="M7866.12,-1002.36C7852.09,-992.34 7834.14,-979.52 7819.33,-968.94"/>
<polygon fill="black" stroke="black" points="7821.54,-966.22 7811.36,-963.25 7817.47,-971.91 7821.54,-966.22"/>
</g>
<!-- 26 -->
<g id="node27" class="node">
<title>26</title>
<polygon fill="none" stroke="black" points="8030.34,-965.95 7934.56,-947.95 8030.34,-929.95 8126.12,-947.95 8030.34,-965.95"/>
<text text-anchor="middle" x="8030.34" y="-942.9" font-family="Times New Roman,serif" font-size="14.00">!(IsKimHere())</text>
</g>
<!-- 24&#45;&gt;26 -->
<g id="edge39" class="edge">
<title>24&#45;&gt;26</title>
<path fill="none" stroke="black" d="M7921.69,-1002.89C7943.59,-992.02 7972.52,-977.66 7995.02,-966.49"/>
<polygon fill="black" stroke="black" points="7996.41,-969.7 8003.81,-962.12 7993.3,-963.43 7996.41,-969.7"/>
</g>
<!-- 27 -->
<g id="node28" class="node">
<title>27</title>
<ellipse fill="none" stroke="black" cx="7708.34" cy="-875.95" rx="250.44" ry="18"/>
<text text-anchor="middle" x="7708.34" y="-870.9" font-family="Times New Roman,serif" font-size="14.00">Kim Kitsuragi: “这么快就起来了……睡得怎么样？”</text>
</g>
<!-- 25&#45;&gt;27 -->
<g id="edge40" class="edge">
<title>25&#45;&gt;27</title>
<path fill="none" stroke="black" d="M7774.94,-933.12C7764.3,-924.14 7750.12,-912.19 7737.59,-901.62"/>
<polygon fill="black" stroke="black" points="7739.88,-898.97 7729.98,-895.2 7735.37,-904.32 7739.88,-898.97"/>
</g>
<!-- 32 -->
<g id="node33" class="node">
<title>32</title>
<ellipse fill="none" stroke="black" cx="10079.34" cy="-875.95" rx="95.88" ry="18"/>
<text text-anchor="middle" x="10079.34" y="-870.9" font-family="Times New Roman,serif" font-size="14.00">Cuno: IsCunoInParty()</text>
</g>
<!-- 26&#45;&gt;32 -->
<g id="edge41" class="edge">
<title>26&#45;&gt;32</title>
<path fill="none" stroke="black" d="M8109.1,-944.26C8426.56,-933.41 9612.56,-892.9 9974.07,-880.54"/>
<polygon fill="black" stroke="black" points="9974.17,-884.04 9984.04,-880.2 9973.93,-877.05 9974.17,-884.04"/>
</g>
<!-- 27&#45;&gt;7 -->
<g id="edge42" class="edge">
<title>27&#45;&gt;7</title>
<path fill="none" stroke="black" d="M7498.01,-865.9C7136.92,-850.38 6414.02,-819.3 6166.1,-808.64"/>
<polygon fill="black" stroke="black" points="6166.31,-805.14 6156.16,-808.21 6166.01,-812.13 6166.31,-805.14"/>
</g>
<!-- 28 -->
<g id="node29" class="node">
<title>28</title>
<ellipse fill="none" stroke="black" cx="11662.34" cy="-18" rx="544.73" ry="18"/>
<text text-anchor="middle" x="11662.34" y="-12.95" font-family="Times New Roman,serif" font-size="14.00">Esprit de Corps: 不管有多糟糕，猪头，我们都要继续，副警探坤诺想到。我们要查案。除此之外没有别的。</text>
</g>
<!-- 29 -->
<g id="node30" class="node">
<title>29</title>
<ellipse fill="none" stroke="black" cx="8838.34" cy="-471.98" rx="360.48" ry="18"/>
<text text-anchor="middle" x="8838.34" y="-466.93" font-family="Times New Roman,serif" font-size="14.00">Kim Kitsuragi: “我们已经解决这个案子了，还记得吗？你刚才在睡觉。”</text>
</g>
<!-- 29&#45;&gt;3 -->
<g id="edge43" class="edge">
<title>29&#45;&gt;3</title>
<path fill="none" stroke="black" d="M8847.73,-453.68C8851.92,-445.97 8856.95,-436.7 8861.62,-428.1"/>
<polygon fill="black" stroke="black" points="8864.64,-429.88 8866.33,-419.42 8858.49,-426.54 8864.64,-429.88"/>
</g>
<!-- 54 -->
<g id="node55" class="node">
<title>54</title>
<ellipse fill="none" stroke="black" cx="3637.34" cy="-554.97" rx="320.56" ry="18"/>
<text text-anchor="middle" x="3637.34" y="-549.92" font-family="Times New Roman,serif" font-size="14.00">Empathy: 他还是很担心。你睡着的时候一定翻腾尖叫的厉害。</text>
</g>
<!-- 30&#45;&gt;54 -->
<g id="edge44" class="edge">
<title>30&#45;&gt;54</title>
<path fill="none" stroke="black" d="M3637.34,-619.79C3637.34,-609.66 3637.34,-596.57 3637.34,-584.89"/>
<polygon fill="black" stroke="black" points="3640.84,-584.92 3637.34,-574.92 3633.84,-584.92 3640.84,-584.92"/>
</g>
<!-- 31 -->
<g id="node32" class="node">
<title>31</title>
<ellipse fill="none" stroke="black" cx="11662.34" cy="-399.98" rx="75.41" ry="18"/>
<text text-anchor="middle" x="11662.34" y="-394.93" font-family="Times New Roman,serif" font-size="14.00">Untitled hub (02)</text>
</g>
<!-- 38 -->
<g id="node39" class="node">
<title>38</title>
<ellipse fill="none" stroke="black" cx="11662.34" cy="-316.99" rx="125.56" ry="18"/>
<text text-anchor="middle" x="11662.34" y="-311.94" font-family="Times New Roman,serif" font-size="14.00">You: 只是痛苦的呻吟。</text>
</g>
<!-- 31&#45;&gt;38 -->
<g id="edge46" class="edge">
<title>31&#45;&gt;38</title>
<path fill="none" stroke="black" d="M11662.34,-381.81C11662.34,-371.67 11662.34,-358.59 11662.34,-346.91"/>
<polygon fill="black" stroke="black" points="11665.84,-346.94 11662.34,-336.94 11658.84,-346.94 11665.84,-346.94"/>
</g>
<!-- 39 -->
<g id="node40" class="node">
<title>39</title>
<ellipse fill="none" stroke="black" cx="12517.34" cy="-316.99" rx="133.75" ry="18"/>
<text text-anchor="middle" x="12517.34" y="-311.94" font-family="Times New Roman,serif" font-size="14.00">You: “这么说我睡着了？”</text>
</g>
<!-- 31&#45;&gt;39 -->
<g id="edge47" class="edge">
<title>31&#45;&gt;39</title>
<path fill="none" stroke="black" d="M11731.59,-392.42C11877.44,-378.61 12217.72,-346.37 12398.9,-329.21"/>
<polygon fill="black" stroke="black" points="12399.21,-332.7 12408.83,-328.27 12398.55,-325.73 12399.21,-332.7"/>
</g>
<!-- 50 -->
<g id="node51" class="node">
<title>50</title>
<ellipse fill="none" stroke="black" cx="11200.34" cy="-316.99" rx="121.98" ry="18"/>
<text text-anchor="middle" x="11200.34" y="-311.94" font-family="Times New Roman,serif" font-size="14.00">You: “你怎么知道的？”</text>
</g>
<!-- 31&#45;&gt;50 -->
<g id="edge45" class="edge">
<title>31&#45;&gt;50</title>
<path fill="none" stroke="black" d="M11602.89,-388.56C11522.99,-374.55 11380.38,-349.55 11288.12,-333.38"/>
<polygon fill="black" stroke="black" points="11288.79,-329.94 11278.33,-331.66 11287.58,-336.84 11288.79,-329.94"/>
</g>
<!-- 33 -->
<g id="node34" class="node">
<title>33</title>
<polygon fill="none" stroke="black" points="10812.34,-821.95 10712.21,-803.95 10812.34,-785.95 10912.47,-803.95 10812.34,-821.95"/>
<text text-anchor="middle" x="10812.34" y="-798.9" font-family="Times New Roman,serif" font-size="14.00">IsCunoInParty()</text>
</g>
<!-- 32&#45;&gt;33 -->
<g id="edge48" class="edge">
<title>32&#45;&gt;33</title>
<path fill="none" stroke="black" d="M10163.43,-866.92C10307.72,-853.14 10600.2,-825.21 10737.71,-812.07"/>
<polygon fill="black" stroke="black" points="10737.81,-815.58 10747.43,-811.15 10737.14,-808.61 10737.81,-815.58"/>
</g>
<!-- 34 -->
<g id="node35" class="node">
<title>34</title>
<polygon fill="none" stroke="black" points="10079.34,-821.95 9966.19,-803.95 10079.34,-785.95 10192.5,-803.95 10079.34,-821.95"/>
<text text-anchor="middle" x="10079.34" y="-798.9" font-family="Times New Roman,serif" font-size="14.00">!(IsCunoInParty())</text>
</g>
<!-- 32&#45;&gt;34 -->
<g id="edge49" class="edge">
<title>32&#45;&gt;34</title>
<path fill="none" stroke="black" d="M10079.34,-857.64C10079.34,-850.35 10079.34,-841.67 10079.34,-833.48"/>
<polygon fill="black" stroke="black" points="10082.84,-833.57 10079.34,-823.57 10075.84,-833.57 10082.84,-833.57"/>
</g>
<!-- 49 -->
<g id="node50" class="node">
<title>49</title>
<ellipse fill="none" stroke="black" cx="11314.34" cy="-720.96" rx="692.65" ry="18"/>
<text text-anchor="middle" x="11314.34" y="-715.91" font-family="Times New Roman,serif" font-size="14.00">Cuno: “哇塞，伙计。你一直尖叫，还翻来覆去的，像疯了一样。现在——你*又*开始流血了……”他战战兢兢地盯着你身上的大片血痕。</text>
</g>
<!-- 33&#45;&gt;49 -->
<g id="edge50" class="edge">
<title>33&#45;&gt;49</title>
<path fill="none" stroke="black" d="M10863.24,-794.74C10940.88,-782.21 11091,-757.99 11196.69,-740.94"/>
<polygon fill="black" stroke="black" points="11196.93,-744.45 11206.24,-739.4 11195.81,-737.54 11196.93,-744.45"/>
</g>
<!-- 53 -->
<g id="node54" class="node">
<title>53</title>
<ellipse fill="none" stroke="black" cx="10079.34" cy="-720.96" rx="524.77" ry="18"/>
<text text-anchor="middle" x="10079.34" y="-715.91" font-family="Times New Roman,serif" font-size="14.00">Inland Empire: 你的周围一片安静。当你睡着的时候，你只有一个人。现在你醒了过来——还是一个人。</text>
</g>
<!-- 34&#45;&gt;53 -->
<g id="edge51" class="edge">
<title>34&#45;&gt;53</title>
<path fill="none" stroke="black" d="M10079.34,-785.77C10079.34,-775.64 10079.34,-762.55 10079.34,-750.87"/>
<polygon fill="black" stroke="black" points="10082.84,-750.9 10079.34,-740.9 10075.84,-750.9 10082.84,-750.9"/>
</g>
<!-- 35 -->
<g id="node36" class="node">
<title>35</title>
<ellipse fill="none" stroke="black" cx="11314.34" cy="-637.97" rx="57.49" ry="18"/>
<text text-anchor="middle" x="11314.34" y="-632.92" font-family="Times New Roman,serif" font-size="14.00">Untitled hub</text>
</g>
<!-- 37 -->
<g id="node38" class="node">
<title>37</title>
<ellipse fill="none" stroke="black" cx="12020.34" cy="-554.97" rx="282.69" ry="18"/>
<text text-anchor="middle" x="12020.34" y="-549.92" font-family="Times New Roman,serif" font-size="14.00">You: “坤诺……我做了个……”（摇摇头）“该死的梦……”</text>
</g>
<!-- 35&#45;&gt;37 -->
<g id="edge53" class="edge">
<title>35&#45;&gt;37</title>
<path fill="none" stroke="black" d="M11367.7,-630.84C11474.59,-618.58 11718.22,-590.63 11875.69,-572.57"/>
<polygon fill="black" stroke="black" points="11875.84,-576.07 11885.38,-571.46 11875.04,-569.12 11875.84,-576.07"/>
</g>
<!-- 52 -->
<g id="node53" class="node">
<title>52</title>
<ellipse fill="none" stroke="black" cx="11304.34" cy="-554.97" rx="415.43" ry="28.99"/>
<text text-anchor="middle" x="11304.34" y="-558.17" font-family="Times New Roman,serif" font-size="14.00">You: “我很好，真的。”（试着掩盖住从指缝中渗出的血迹。）“超级无敌好。”</text>
<text text-anchor="middle" x="11304.34" y="-541.67" font-family="Times New Roman,serif" font-size="14.00">“我很好，真的。”（试着掩盖住从指缝中渗出的血迹。）</text>
</g>
<!-- 35&#45;&gt;52 -->
<g id="edge52" class="edge">
<title>35&#45;&gt;52</title>
<path fill="none" stroke="black" d="M11312.22,-619.79C11311.35,-612.7 11310.29,-604.17 11309.24,-595.68"/>
<polygon fill="black" stroke="black" points="11312.72,-595.28 11308.02,-585.78 11305.77,-596.14 11312.72,-595.28"/>
</g>
<!-- 36 -->
<g id="node37" class="node">
<title>36</title>
<ellipse fill="none" stroke="black" cx="11662.34" cy="-234" rx="787.84" ry="18"/>
<text text-anchor="middle" x="11662.34" y="-228.95" font-family="Times New Roman,serif" font-size="14.00">Cuno: “没错。猪头要像个男人一样承受。对你来说是好事。婊子总是想用*身体*武器来伤害你。*婊子*的风格——你绝对不会*相信*坤诺梦到的那个C……”</text>
</g>
<!-- 36&#45;&gt;56 -->
<g id="edge54" class="edge">
<title>36&#45;&gt;56</title>
<path fill="none" stroke="black" d="M11662.34,-215.7C11662.34,-208.41 11662.34,-199.73 11662.34,-191.54"/>
<polygon fill="black" stroke="black" points="11665.84,-191.62 11662.34,-181.62 11658.84,-191.62 11665.84,-191.62"/>
</g>
<!-- 65 -->
<g id="node65" class="node">
<title>65</title>
<ellipse fill="none" stroke="black" cx="11997.34" cy="-471.98" rx="244.3" ry="18"/>
<text text-anchor="middle" x="11997.34" y="-466.93" font-family="Times New Roman,serif" font-size="14.00">Cuno: “是啊，坤诺看见了。关于婊子的噩梦。”</text>
</g>
<!-- 37&#45;&gt;65 -->
<g id="edge55" class="edge">
<title>37&#45;&gt;65</title>
<path fill="none" stroke="black" d="M12015.46,-536.8C12012.53,-526.45 12008.71,-513.03 12005.34,-501.16"/>
<polygon fill="black" stroke="black" points="12008.8,-500.53 12002.7,-491.87 12002.07,-502.45 12008.8,-500.53"/>
</g>
<!-- 38&#45;&gt;36 -->
<g id="edge56" class="edge">
<title>38&#45;&gt;36</title>
<path fill="none" stroke="black" d="M11662.34,-298.82C11662.34,-288.68 11662.34,-275.6 11662.34,-263.91"/>
<polygon fill="black" stroke="black" points="11665.84,-263.94 11662.34,-253.94 11658.84,-263.94 11665.84,-263.94"/>
</g>
<!-- 39&#45;&gt;14 -->
<g id="edge57" class="edge">
<title>39&#45;&gt;14</title>
<path fill="none" stroke="black" d="M12607.81,-303.34C12702.96,-290.03 12853.71,-268.94 12962.59,-253.71"/>
<polygon fill="black" stroke="black" points="12963.07,-257.18 12972.49,-252.32 12962.1,-250.24 12963.07,-257.18"/>
</g>
<!-- 40&#45;&gt;30 -->
<g id="edge58" class="edge">
<title>40&#45;&gt;30</title>
<path fill="none" stroke="black" d="M4722.53,-705.04C4674.36,-700.46 4620.6,-695.67 4571.34,-691.97 4314.42,-672.66 4017.27,-656.93 3828.4,-647.75"/>
<polygon fill="black" stroke="black" points="3828.63,-644.26 3818.47,-647.27 3828.29,-651.25 3828.63,-644.26"/>
</g>
<!-- 41&#45;&gt;62 -->
<g id="edge59" class="edge">
<title>41&#45;&gt;62</title>
<path fill="none" stroke="black" d="M8047.99,-381.69C8124.86,-358.58 8266.68,-317.14 8389.34,-288 8450.09,-273.57 8519.2,-260.01 8572.17,-250.22"/>
<polygon fill="black" stroke="black" points="8572.52,-253.72 8581.73,-248.46 8571.26,-246.83 8572.52,-253.72"/>
</g>
<!-- 43 -->
<g id="node44" class="node">
<title>43</title>
<polygon fill="none" stroke="black" points="8763.34,-572.97 8505.42,-554.97 8763.34,-536.97 9021.26,-554.97 8763.34,-572.97"/>
<text text-anchor="middle" x="8763.34" y="-549.92" font-family="Times New Roman,serif" font-size="14.00">Variable[&quot;TASK.extract_a_confession_done&quot;]</text>
</g>
<!-- 42&#45;&gt;43 -->
<g id="edge60" class="edge">
<title>42&#45;&gt;43</title>
<path fill="none" stroke="black" d="M8763.34,-619.79C8763.34,-609.66 8763.34,-596.57 8763.34,-584.89"/>
<polygon fill="black" stroke="black" points="8766.84,-584.92 8763.34,-574.92 8759.84,-584.92 8766.84,-584.92"/>
</g>
<!-- 44 -->
<g id="node45" class="node">
<title>44</title>
<polygon fill="none" stroke="black" points="9310.34,-572.97 9039.4,-554.97 9310.34,-536.97 9581.29,-554.97 9310.34,-572.97"/>
<text text-anchor="middle" x="9310.34" y="-549.92" font-family="Times New Roman,serif" font-size="14.00">!(Variable[&quot;TASK.extract_a_confession_done&quot;])</text>
</g>
<!-- 42&#45;&gt;44 -->
<g id="edge61" class="edge">
<title>42&#45;&gt;44</title>
<path fill="none" stroke="black" d="M8865.27,-621.87C8966.35,-606.91 9119.9,-584.17 9217.64,-569.7"/>
<polygon fill="black" stroke="black" points="9218.11,-573.17 9227.49,-568.24 9217.08,-566.24 9218.11,-573.17"/>
</g>
<!-- 43&#45;&gt;29 -->
<g id="edge62" class="edge">
<title>43&#45;&gt;29</title>
<path fill="none" stroke="black" d="M8778.52,-537.58C8788.88,-526.39 8802.82,-511.34 8814.64,-498.58"/>
<polygon fill="black" stroke="black" points="8817.15,-501.01 8821.38,-491.3 8812.02,-496.26 8817.15,-501.01"/>
</g>
<!-- 44&#45;&gt;17 -->
<g id="edge63" class="edge">
<title>44&#45;&gt;17</title>
<path fill="none" stroke="black" d="M9315.32,-536.97C9322.82,-514.44 9339.21,-475.09 9367.34,-453.98 9443.61,-396.74 9540.51,-363.2 9632.58,-343.67"/>
<polygon fill="black" stroke="black" points="9633.21,-347.12 9642.3,-341.67 9631.8,-340.26 9633.21,-347.12"/>
</g>
<!-- 64 -->
<g id="node64" class="node">
<title>64</title>
<ellipse fill="none" stroke="black" cx="6621.34" cy="-399.98" rx="364.07" ry="18"/>
<text text-anchor="middle" x="6621.34" y="-394.93" font-family="Times New Roman,serif" font-size="14.00">Esprit de Corps: 我理解——我们都经历过相同的事情。其实可以克服的。</text>
</g>
<!-- 45&#45;&gt;64 -->
<g id="edge64" class="edge">
<title>45&#45;&gt;64</title>
<path fill="none" stroke="black" d="M6657.48,-453.68C6652.07,-445.8 6645.55,-436.29 6639.54,-427.53"/>
<polygon fill="black" stroke="black" points="6642.47,-425.6 6633.93,-419.34 6636.69,-429.56 6642.47,-425.6"/>
</g>
<!-- 46&#45;&gt;7 -->
<g id="edge65" class="edge">
<title>46&#45;&gt;7</title>
<path fill="none" stroke="black" d="M6862.98,-234.62C7088.02,-237.1 7557.34,-259.03 7557.34,-398.98 7557.34,-638.97 7557.34,-638.97 7557.34,-638.97 7557.34,-689.01 7576,-717 7538.34,-749.95 7486.64,-795.18 6475.35,-801.81 6168.11,-802.78"/>
<polygon fill="black" stroke="black" points="6168.12,-799.28 6158.13,-802.81 6168.14,-806.28 6168.12,-799.28"/>
</g>
<!-- 47 -->
<g id="node48" class="node">
<title>47</title>
<ellipse fill="none" stroke="black" cx="11662.34" cy="-90" rx="676.27" ry="18"/>
<text text-anchor="middle" x="11662.34" y="-84.95" font-family="Times New Roman,serif" font-size="14.00">Cuno: “好吧，那我们他妈的继续上路吧。只要保证你自己别挂掉。”他瞥了一眼你那双沾满鲜血的手。“坤诺他妈的可不是送葬的。”</text>
</g>
<!-- 47&#45;&gt;28 -->
<g id="edge66" class="edge">
<title>47&#45;&gt;28</title>
<path fill="none" stroke="black" d="M11662.34,-71.7C11662.34,-64.41 11662.34,-55.73 11662.34,-47.54"/>
<polygon fill="black" stroke="black" points="11665.84,-47.62 11662.34,-37.62 11658.84,-47.62 11665.84,-47.62"/>
</g>
<!-- 61 -->
<g id="node61" class="node">
<title>61</title>
<ellipse fill="none" stroke="black" cx="7266.34" cy="-399.98" rx="262.73" ry="18"/>
<text text-anchor="middle" x="7266.34" y="-394.93" font-family="Times New Roman,serif" font-size="14.00">Kim Kitsuragi: “当然，”警督点点头。“准备好了吗？”</text>
</g>
<!-- 48&#45;&gt;61 -->
<g id="edge67" class="edge">
<title>48&#45;&gt;61</title>
<path fill="none" stroke="black" d="M7010.33,-537.46C7062.01,-509.9 7165.89,-454.53 7224.18,-423.46"/>
<polygon fill="black" stroke="black" points="7225.66,-426.64 7232.83,-418.84 7222.36,-420.46 7225.66,-426.64"/>
</g>
<!-- 49&#45;&gt;35 -->
<g id="edge68" class="edge">
<title>49&#45;&gt;35</title>
<path fill="none" stroke="black" d="M11314.34,-702.78C11314.34,-692.65 11314.34,-679.56 11314.34,-667.88"/>
<polygon fill="black" stroke="black" points="11317.84,-667.91 11314.34,-657.91 11310.84,-667.91 11317.84,-667.91"/>
</g>
<!-- 50&#45;&gt;22 -->
<g id="edge69" class="edge">
<title>50&#45;&gt;22</title>
<path fill="none" stroke="black" d="M11099.31,-306.54C10957.89,-293.32 10698.41,-269.05 10521.23,-252.48"/>
<polygon fill="black" stroke="black" points="10521.74,-249.01 10511.46,-251.56 10521.09,-255.98 10521.74,-249.01"/>
</g>
<!-- 51 -->
<g id="node52" class="node">
<title>51</title>
<ellipse fill="none" stroke="black" cx="11327.34" cy="-471.98" rx="362.02" ry="18"/>
<text text-anchor="middle" x="11327.34" y="-466.93" font-family="Times New Roman,serif" font-size="14.00">Cuno: “当然，当然。所以你一直嘟囔着什么婊子的事。其实挺好的。”</text>
</g>
<!-- 51&#45;&gt;31 -->
<g id="edge70" class="edge">
<title>51&#45;&gt;31</title>
<path fill="none" stroke="black" d="M11408.44,-454.04C11465.83,-442.04 11541.87,-426.16 11595.73,-414.9"/>
<polygon fill="black" stroke="black" points="11596.32,-418.35 11605.39,-412.88 11594.89,-411.5 11596.32,-418.35"/>
</g>
<!-- 52&#45;&gt;51 -->
<g id="edge71" class="edge">
<title>52&#45;&gt;51</title>
<path fill="none" stroke="black" d="M11312.39,-525.65C11314.65,-517.68 11317.11,-509.02 11319.37,-501.06"/>
<polygon fill="black" stroke="black" points="11322.71,-502.11 11322.07,-491.53 11315.97,-500.2 11322.71,-502.11"/>
</g>
<!-- 53&#45;&gt;5 -->
<g id="edge72" class="edge">
<title>53&#45;&gt;5</title>
<path fill="none" stroke="black" d="M10081.46,-702.78C10082.73,-692.54 10084.36,-679.29 10085.82,-667.51"/>
<polygon fill="black" stroke="black" points="10089.25,-668.25 10087,-657.9 10082.3,-667.39 10089.25,-668.25"/>
</g>
<!-- 56&#45;&gt;47 -->
<g id="edge73" class="edge">
<title>56&#45;&gt;47</title>
<path fill="none" stroke="black" d="M11662.34,-143.7C11662.34,-136.41 11662.34,-127.73 11662.34,-119.54"/>
<polygon fill="black" stroke="black" points="11665.84,-119.62 11662.34,-109.62 11658.84,-119.62 11665.84,-119.62"/>
</g>
<!-- 57&#45;&gt;30 -->
<g id="edge74" class="edge">
<title>57&#45;&gt;30</title>
<path fill="none" stroke="black" d="M5396.73,-704.98C5324.34,-700.37 5243.41,-695.57 5169.34,-691.97 4695.8,-668.95 4139.44,-652.3 3844.84,-644.3"/>
<polygon fill="black" stroke="black" points="3845.21,-640.81 3835.12,-644.04 3845.02,-647.81 3845.21,-640.81"/>
</g>
<!-- 58&#45;&gt;62 -->
<g id="edge75" class="edge">
<title>58&#45;&gt;62</title>
<path fill="none" stroke="black" d="M8825.88,-288.01C8790.59,-276.84 8750.85,-264.27 8718.93,-254.17"/>
<polygon fill="black" stroke="black" points="8720.02,-250.84 8709.43,-251.16 8717.91,-257.52 8720.02,-250.84"/>
</g>
<!-- 59&#45;&gt;30 -->
<g id="edge76" class="edge">
<title>59&#45;&gt;30</title>
<path fill="none" stroke="black" d="M6313.05,-704.82C6233.61,-700.08 6144.11,-695.23 6062.34,-691.97 5247.42,-659.41 4277.6,-645.78 3853.67,-641.07"/>
<polygon fill="black" stroke="black" points="3853.76,-637.57 3843.72,-640.96 3853.69,-644.57 3853.76,-637.57"/>
</g>
<!-- 61&#45;&gt;46 -->
<g id="edge77" class="edge">
<title>61&#45;&gt;46</title>
<path fill="none" stroke="black" d="M7212.06,-381.9C7114.11,-351.07 6908.51,-286.36 6806.05,-254.11"/>
<polygon fill="black" stroke="black" points="6807.31,-250.83 6796.72,-251.17 6805.21,-257.51 6807.31,-250.83"/>
</g>
<!-- 62&#45;&gt;7 -->
<g id="edge78" class="edge">
<title>62&#45;&gt;7</title>
<path fill="none" stroke="black" d="M8564.98,-245.28C8507.87,-253.53 8442.08,-267.22 8422.34,-288 8387.88,-324.28 8403.34,-348.94 8403.34,-398.98 8403.34,-638.97 8403.34,-638.97 8403.34,-638.97 8403.34,-689.01 8422.22,-717.25 8384.34,-749.95 8341.62,-786.83 6583.37,-799.87 6167.74,-802.45"/>
<polygon fill="black" stroke="black" points="6167.91,-798.95 6157.93,-802.51 6167.95,-805.95 6167.91,-798.95"/>
</g>
<!-- 63&#45;&gt;46 -->
<g id="edge79" class="edge">
<title>63&#45;&gt;46</title>
<path fill="none" stroke="black" d="M6429.19,-299.01C6498.74,-284.93 6596.97,-265.04 6665.41,-251.18"/>
<polygon fill="black" stroke="black" points="6665.97,-254.64 6675.07,-249.23 6664.58,-247.78 6665.97,-254.64"/>
</g>
<!-- 64&#45;&gt;46 -->
<g id="edge80" class="edge">
<title>64&#45;&gt;46</title>
<path fill="none" stroke="black" d="M6678.37,-381.73C6696.27,-373.61 6714.45,-362.08 6726.34,-345.98 6743.93,-322.18 6747.36,-287.71 6747.23,-263.51"/>
<polygon fill="black" stroke="black" points="6750.73,-263.64 6746.95,-253.75 6743.74,-263.84 6750.73,-263.64"/>
</g>
<!-- 65&#45;&gt;31 -->
<g id="edge81" class="edge">
<title>65&#45;&gt;31</title>
<path fill="none" stroke="black" d="M11918.37,-454.48C11860.65,-442.42 11783.23,-426.24 11728.68,-414.85"/>
<polygon fill="black" stroke="black" points="11729.74,-411.49 11719.23,-412.87 11728.31,-418.34 11729.74,-411.49"/>
</g>
</g>
</svg>
