<?xml version="1.0" encoding="UTF-8" standalone="no"?>
<!DOCTYPE svg PUBLIC "-//W3C//DTD SVG 1.1//EN"
 "http://www.w3.org/Graphics/SVG/1.1/DTD/svg11.dtd">
<!-- Generated by graphviz version 12.2.1 (20241206.2353)
 -->
<!-- Title: G Pages: 1 -->
<svg width="5914pt" height="1146pt"
 viewBox="0.00 0.00 5913.94 1145.98" xmlns="http://www.w3.org/2000/svg" xmlns:xlink="http://www.w3.org/1999/xlink">
<g id="graph0" class="graph" transform="scale(1 1) rotate(0) translate(4 1141.98)">
<title>G</title>
<polygon fill="white" stroke="none" points="-4,4 -4,-1141.98 5909.94,-1141.98 5909.94,4 -4,4"/>
<!-- 0 -->
<g id="node1" class="node">
<title>0</title>
<ellipse fill="none" stroke="black" cx="3449" cy="-1119.98" rx="39.07" ry="18"/>
<text text-anchor="middle" x="3449" y="-1114.93" font-family="Times New Roman,serif" font-size="14.00">START</text>
</g>
<!-- 1 -->
<g id="node2" class="node">
<title>1</title>
<ellipse fill="none" stroke="black" cx="3449" cy="-1047.98" rx="29.86" ry="18"/>
<text text-anchor="middle" x="3449" y="-1042.93" font-family="Times New Roman,serif" font-size="14.00">input</text>
</g>
<!-- 0&#45;&gt;1 -->
<g id="edge1" class="edge">
<title>0&#45;&gt;1</title>
<path fill="none" stroke="black" d="M3449,-1101.68C3449,-1094.39 3449,-1085.71 3449,-1077.52"/>
<polygon fill="black" stroke="black" points="3452.5,-1077.6 3449,-1067.6 3445.5,-1077.6 3452.5,-1077.6"/>
</g>
<!-- 59 -->
<g id="node59" class="node">
<title>59</title>
<ellipse fill="none" stroke="black" cx="3449" cy="-975.98" rx="327.22" ry="18"/>
<text text-anchor="middle" x="3449" y="-970.93" font-family="Times New Roman,serif" font-size="14.00">Interfacing: 链条消失在大海里，连接着岛屿和海岸边的补给站。</text>
</g>
<!-- 1&#45;&gt;59 -->
<g id="edge2" class="edge">
<title>1&#45;&gt;59</title>
<path fill="none" stroke="black" d="M3449,-1029.68C3449,-1022.39 3449,-1013.71 3449,-1005.52"/>
<polygon fill="black" stroke="black" points="3452.5,-1005.6 3449,-995.6 3445.5,-1005.6 3452.5,-1005.6"/>
</g>
<!-- 2 -->
<g id="node3" class="node">
<title>2</title>
<ellipse fill="none" stroke="black" cx="403" cy="-378" rx="115.84" ry="18"/>
<text text-anchor="middle" x="403" y="-372.95" font-family="Times New Roman,serif" font-size="14.00">Jump to: [debot_chain_hub]</text>
</g>
<!-- 30 -->
<g id="node30" class="node">
<title>30</title>
<ellipse fill="none" stroke="black" cx="3449" cy="-903.98" rx="74.38" ry="18"/>
<text text-anchor="middle" x="3449" y="-898.93" font-family="Times New Roman,serif" font-size="14.00">debot_chain_hub</text>
</g>
<!-- 2&#45;&gt;30 -->
<g id="edge3" class="edge">
<title>2&#45;&gt;30</title>
<path fill="none" stroke="black" d="M320.47,-390.97C202.57,-410.44 0,-453.68 0,-521 0,-739 0,-739 0,-739 0,-941.62 702.9,-835.52 905,-849.98 1398.62,-885.3 2976.79,-899.39 3363.06,-902.36"/>
<polygon fill="black" stroke="black" points="3362.87,-905.86 3372.9,-902.44 3362.93,-898.86 3362.87,-905.86"/>
</g>
<!-- 3 -->
<g id="node4" class="node">
<title>3</title>
<ellipse fill="none" stroke="black" cx="3349" cy="-90" rx="365.6" ry="18"/>
<text text-anchor="middle" x="3349" y="-84.95" font-family="Times New Roman,serif" font-size="14.00">Rhetoric: 疯狂的敌人。精神失常的疯子。就在大灾难降临在这里之后。</text>
</g>
<!-- 61 -->
<g id="node61" class="node">
<title>61</title>
<ellipse fill="none" stroke="black" cx="2780" cy="-18" rx="115.84" ry="18"/>
<text text-anchor="middle" x="2780" y="-12.95" font-family="Times New Roman,serif" font-size="14.00">Jump to: [debot_chain_hub]</text>
</g>
<!-- 3&#45;&gt;61 -->
<g id="edge4" class="edge">
<title>3&#45;&gt;61</title>
<path fill="none" stroke="black" d="M3217.03,-72.76C3114.19,-60.11 2973.59,-42.82 2879.93,-31.29"/>
<polygon fill="black" stroke="black" points="2880.6,-27.85 2870.25,-30.1 2879.75,-34.8 2880.6,-27.85"/>
</g>
<!-- 4 -->
<g id="node5" class="node">
<title>4</title>
<ellipse fill="none" stroke="black" cx="4095" cy="-738" rx="58.52" ry="18"/>
<text text-anchor="middle" x="4095" y="-732.95" font-family="Times New Roman,serif" font-size="14.00">IsKimHere()</text>
</g>
<!-- 5 -->
<g id="node6" class="node">
<title>5</title>
<polygon fill="none" stroke="black" points="4095,-684 4012.24,-666 4095,-648 4177.76,-666 4095,-684"/>
<text text-anchor="middle" x="4095" y="-660.95" font-family="Times New Roman,serif" font-size="14.00">IsKimHere()</text>
</g>
<!-- 4&#45;&gt;5 -->
<g id="edge5" class="edge">
<title>4&#45;&gt;5</title>
<path fill="none" stroke="black" d="M4095,-719.7C4095,-712.41 4095,-703.73 4095,-695.54"/>
<polygon fill="black" stroke="black" points="4098.5,-695.62 4095,-685.62 4091.5,-695.62 4098.5,-695.62"/>
</g>
<!-- 6 -->
<g id="node7" class="node">
<title>6</title>
<polygon fill="none" stroke="black" points="4687,-684 4591.22,-666 4687,-648 4782.78,-666 4687,-684"/>
<text text-anchor="middle" x="4687" y="-660.95" font-family="Times New Roman,serif" font-size="14.00">!(IsKimHere())</text>
</g>
<!-- 4&#45;&gt;6 -->
<g id="edge6" class="edge">
<title>4&#45;&gt;6</title>
<path fill="none" stroke="black" d="M4148.84,-730.63C4256.94,-717.85 4500.19,-689.09 4619.04,-675.04"/>
<polygon fill="black" stroke="black" points="4619.12,-678.55 4628.64,-673.9 4618.3,-671.6 4619.12,-678.55"/>
</g>
<!-- 40 -->
<g id="node40" class="node">
<title>40</title>
<ellipse fill="none" stroke="black" cx="4095" cy="-450" rx="332.85" ry="18"/>
<text text-anchor="middle" x="4095" y="-444.95" font-family="Times New Roman,serif" font-size="14.00">Kim Kitsuragi: 警督看着头顶的机械。“啊，是的……好像是这样。”</text>
</g>
<!-- 5&#45;&gt;40 -->
<g id="edge7" class="edge">
<title>5&#45;&gt;40</title>
<path fill="none" stroke="black" d="M4095,-647.85C4095,-611.14 4095,-524.66 4095,-479.53"/>
<polygon fill="black" stroke="black" points="4098.5,-479.75 4095,-469.75 4091.5,-479.75 4098.5,-479.75"/>
</g>
<!-- 42 -->
<g id="node42" class="node">
<title>42</title>
<ellipse fill="none" stroke="black" cx="4725" cy="-594" rx="70.8" ry="18"/>
<text text-anchor="middle" x="4725" y="-588.95" font-family="Times New Roman,serif" font-size="14.00">IsCunoInParty()</text>
</g>
<!-- 6&#45;&gt;42 -->
<g id="edge8" class="edge">
<title>6&#45;&gt;42</title>
<path fill="none" stroke="black" d="M4695.62,-649.12C4699.95,-641.14 4705.31,-631.26 4710.27,-622.14"/>
<polygon fill="black" stroke="black" points="4713.2,-624.08 4714.89,-613.62 4707.04,-620.74 4713.2,-624.08"/>
</g>
<!-- 7 -->
<g id="node8" class="node">
<title>7</title>
<ellipse fill="none" stroke="black" cx="1601" cy="-594" rx="273.99" ry="18"/>
<text text-anchor="middle" x="1601" y="-588.95" font-family="Times New Roman,serif" font-size="14.00">Kim Kitsuragi: “从严格意义上讲——不是的。并没有。”</text>
</g>
<!-- 34 -->
<g id="node34" class="node">
<title>34</title>
<ellipse fill="none" stroke="black" cx="1572" cy="-378" rx="115.33" ry="18"/>
<text text-anchor="middle" x="1572" y="-372.95" font-family="Times New Roman,serif" font-size="14.00">Interfacing: 他说得对。</text>
</g>
<!-- 7&#45;&gt;34 -->
<g id="edge9" class="edge">
<title>7&#45;&gt;34</title>
<path fill="none" stroke="black" d="M1512.19,-576.57C1451.44,-560.2 1375.24,-528.42 1337,-468 1304.21,-416.19 1378.24,-394.45 1451.69,-385.37"/>
<polygon fill="black" stroke="black" points="1451.95,-388.86 1461.48,-384.24 1451.15,-381.91 1451.95,-388.86"/>
</g>
<!-- 8 -->
<g id="node9" class="node">
<title>8</title>
<ellipse fill="none" stroke="black" cx="3520" cy="-820.99" rx="113.79" ry="18"/>
<text text-anchor="middle" x="3520" y="-815.94" font-family="Times New Roman,serif" font-size="14.00">You: 什么样的敌人？</text>
</g>
<!-- 33 -->
<g id="node33" class="node">
<title>33</title>
<ellipse fill="none" stroke="black" cx="3544" cy="-738" rx="162.41" ry="18"/>
<text text-anchor="middle" x="3544" y="-732.95" font-family="Times New Roman,serif" font-size="14.00">Interfacing: 瑞瓦肖公社的敌人。</text>
</g>
<!-- 8&#45;&gt;33 -->
<g id="edge10" class="edge">
<title>8&#45;&gt;33</title>
<path fill="none" stroke="black" d="M3525.09,-802.82C3528.16,-792.47 3532.13,-779.04 3535.65,-767.18"/>
<polygon fill="black" stroke="black" points="3538.92,-768.46 3538.4,-757.88 3532.21,-766.48 3538.92,-768.46"/>
</g>
<!-- 9 -->
<g id="node10" class="node">
<title>9</title>
<ellipse fill="none" stroke="black" cx="3203" cy="-234" rx="121.98" ry="18"/>
<text text-anchor="middle" x="3203" y="-228.95" font-family="Times New Roman,serif" font-size="14.00">IsHighestPolitical(&quot;moralist&quot;)</text>
</g>
<!-- 10 -->
<g id="node11" class="node">
<title>10</title>
<polygon fill="none" stroke="black" points="3349,-180 3176.49,-162 3349,-144 3521.51,-162 3349,-180"/>
<text text-anchor="middle" x="3349" y="-156.95" font-family="Times New Roman,serif" font-size="14.00">IsHighestPolitical(&quot;moralist&quot;)</text>
</g>
<!-- 9&#45;&gt;10 -->
<g id="edge11" class="edge">
<title>9&#45;&gt;10</title>
<path fill="none" stroke="black" d="M3237.6,-216.41C3259,-206.15 3286.56,-192.94 3308.91,-182.22"/>
<polygon fill="black" stroke="black" points="3310.23,-185.47 3317.73,-177.99 3307.2,-179.16 3310.23,-185.47"/>
</g>
<!-- 11 -->
<g id="node12" class="node">
<title>11</title>
<polygon fill="none" stroke="black" points="2780,-108 2594.46,-90 2780,-72 2965.54,-90 2780,-108"/>
<text text-anchor="middle" x="2780" y="-84.95" font-family="Times New Roman,serif" font-size="14.00">!(IsHighestPolitical(&quot;moralist&quot;))</text>
</g>
<!-- 9&#45;&gt;11 -->
<g id="edge12" class="edge">
<title>9&#45;&gt;11</title>
<path fill="none" stroke="black" d="M3190.91,-215.7C3174.27,-192.39 3144.57,-152.79 3129,-144 3089.67,-121.8 2979.95,-107.59 2893.93,-99.54"/>
<polygon fill="black" stroke="black" points="2894.28,-96.05 2884,-98.63 2893.64,-103.02 2894.28,-96.05"/>
</g>
<!-- 10&#45;&gt;3 -->
<g id="edge13" class="edge">
<title>10&#45;&gt;3</title>
<path fill="none" stroke="black" d="M3349,-143.7C3349,-136.41 3349,-127.73 3349,-119.54"/>
<polygon fill="black" stroke="black" points="3352.5,-119.62 3349,-109.62 3345.5,-119.62 3352.5,-119.62"/>
</g>
<!-- 11&#45;&gt;61 -->
<g id="edge14" class="edge">
<title>11&#45;&gt;61</title>
<path fill="none" stroke="black" d="M2780,-71.7C2780,-64.41 2780,-55.73 2780,-47.54"/>
<polygon fill="black" stroke="black" points="2783.5,-47.62 2780,-37.62 2776.5,-47.62 2783.5,-47.62"/>
</g>
<!-- 12 -->
<g id="node13" class="node">
<title>12</title>
<ellipse fill="none" stroke="black" cx="2840" cy="-738" rx="486.39" ry="18"/>
<text text-anchor="middle" x="2840" y="-732.95" font-family="Times New Roman,serif" font-size="14.00">Kim Kitsuragi: “敌人”。他抬起头。“瑞瓦肖公社的敌人。我相信这座海堡是大革命时期的要塞。”</text>
</g>
<!-- 18 -->
<g id="node19" class="node">
<title>18</title>
<ellipse fill="none" stroke="black" cx="2953" cy="-666" rx="115.84" ry="18"/>
<text text-anchor="middle" x="2953" y="-660.95" font-family="Times New Roman,serif" font-size="14.00">Jump to: [debot_chain_hub]</text>
</g>
<!-- 12&#45;&gt;18 -->
<g id="edge15" class="edge">
<title>12&#45;&gt;18</title>
<path fill="none" stroke="black" d="M2867.93,-719.7C2882.55,-710.64 2900.62,-699.45 2916.34,-689.71"/>
<polygon fill="black" stroke="black" points="2917.83,-692.9 2924.49,-684.66 2914.15,-686.95 2917.83,-692.9"/>
</g>
<!-- 13 -->
<g id="node14" class="node">
<title>13</title>
<ellipse fill="none" stroke="black" cx="1572" cy="-306" rx="115.84" ry="18"/>
<text text-anchor="middle" x="1572" y="-300.95" font-family="Times New Roman,serif" font-size="14.00">Jump to: [debot_chain_hub]</text>
</g>
<!-- 13&#45;&gt;30 -->
<g id="edge16" class="edge">
<title>13&#45;&gt;30</title>
<path fill="none" stroke="black" d="M1471.1,-315.13C1386.7,-328.11 1280,-361.77 1280,-449 1280,-739 1280,-739 1280,-739 1280,-942.84 1523.09,-822.03 1725,-849.98 2046.77,-894.53 3061.42,-901.64 3363.4,-902.77"/>
<polygon fill="black" stroke="black" points="3363.16,-906.27 3373.18,-902.8 3363.19,-899.27 3363.16,-906.27"/>
</g>
<!-- 14 -->
<g id="node15" class="node">
<title>14</title>
<ellipse fill="none" stroke="black" cx="4061" cy="-820.99" rx="263.75" ry="28.99"/>
<text text-anchor="middle" x="4061" y="-824.19" font-family="Times New Roman,serif" font-size="14.00">You: 为什么？</text>
<text text-anchor="middle" x="4061" y="-807.69" font-family="Times New Roman,serif" font-size="14.00">（指过去。）“这里可以通往地之角的补给站。”</text>
</g>
<!-- 14&#45;&gt;4 -->
<g id="edge17" class="edge">
<title>14&#45;&gt;4</title>
<path fill="none" stroke="black" d="M4072.89,-791.66C4076.31,-783.51 4080.04,-774.63 4083.44,-766.53"/>
<polygon fill="black" stroke="black" points="4086.59,-768.07 4087.24,-757.49 4080.14,-765.36 4086.59,-768.07"/>
</g>
<!-- 15 -->
<g id="node16" class="node">
<title>15</title>
<ellipse fill="none" stroke="black" cx="3233" cy="-378" rx="180.33" ry="18"/>
<text text-anchor="middle" x="3233" y="-372.95" font-family="Times New Roman,serif" font-size="14.00">IsHighestPolitical(&quot;revacholian_nationhood&quot;)</text>
</g>
<!-- 16 -->
<g id="node17" class="node">
<title>16</title>
<polygon fill="none" stroke="black" points="2692,-324 2436.98,-306 2692,-288 2947.02,-306 2692,-324"/>
<text text-anchor="middle" x="2692" y="-300.95" font-family="Times New Roman,serif" font-size="14.00">IsHighestPolitical(&quot;revacholian_nationhood&quot;)</text>
</g>
<!-- 15&#45;&gt;16 -->
<g id="edge18" class="edge">
<title>15&#45;&gt;16</title>
<path fill="none" stroke="black" d="M3125.79,-363.13C3028.26,-350.51 2885.46,-332.03 2790.68,-319.77"/>
<polygon fill="black" stroke="black" points="2791.23,-316.31 2780.87,-318.5 2790.33,-323.25 2791.23,-316.31"/>
</g>
<!-- 17 -->
<g id="node18" class="node">
<title>17</title>
<polygon fill="none" stroke="black" points="3233,-324 2964.95,-306 3233,-288 3501.05,-306 3233,-324"/>
<text text-anchor="middle" x="3233" y="-300.95" font-family="Times New Roman,serif" font-size="14.00">!(IsHighestPolitical(&quot;revacholian_nationhood&quot;))</text>
</g>
<!-- 15&#45;&gt;17 -->
<g id="edge19" class="edge">
<title>15&#45;&gt;17</title>
<path fill="none" stroke="black" d="M3233,-359.7C3233,-352.41 3233,-343.73 3233,-335.54"/>
<polygon fill="black" stroke="black" points="3236.5,-335.62 3233,-325.62 3229.5,-335.62 3236.5,-335.62"/>
</g>
<!-- 38 -->
<g id="node38" class="node">
<title>38</title>
<ellipse fill="none" stroke="black" cx="2747" cy="-162" rx="373.28" ry="18"/>
<text text-anchor="middle" x="2747" y="-156.95" font-family="Times New Roman,serif" font-size="14.00">Rhetoric: 不要急着迎接这些敌人，黑心骑士——他们也是瑞瓦肖的敌人。</text>
</g>
<!-- 16&#45;&gt;38 -->
<g id="edge20" class="edge">
<title>16&#45;&gt;38</title>
<path fill="none" stroke="black" d="M2698.53,-288.15C2707.82,-264.16 2724.98,-219.84 2736.19,-190.9"/>
<polygon fill="black" stroke="black" points="2739.42,-192.27 2739.77,-181.68 2732.89,-189.74 2739.42,-192.27"/>
</g>
<!-- 17&#45;&gt;9 -->
<g id="edge21" class="edge">
<title>17&#45;&gt;9</title>
<path fill="none" stroke="black" d="M3225.74,-288.05C3222.47,-280.43 3218.53,-271.23 3214.85,-262.65"/>
<polygon fill="black" stroke="black" points="3218.16,-261.48 3211,-253.67 3211.72,-264.24 3218.16,-261.48"/>
</g>
<!-- 18&#45;&gt;30 -->
<g id="edge22" class="edge">
<title>18&#45;&gt;30</title>
<path fill="none" stroke="black" d="M3064.91,-670.93C3161.92,-676.39 3293.13,-689.35 3335,-720 3386.65,-757.8 3360.31,-797.54 3397,-849.98 3403.98,-859.96 3412.9,-869.8 3421.36,-878.23"/>
<polygon fill="black" stroke="black" points="3418.87,-880.69 3428.5,-885.11 3423.73,-875.65 3418.87,-880.69"/>
</g>
<!-- 19 -->
<g id="node20" class="node">
<title>19</title>
<ellipse fill="none" stroke="black" cx="1973" cy="-738" rx="58.52" ry="18"/>
<text text-anchor="middle" x="1973" y="-732.95" font-family="Times New Roman,serif" font-size="14.00">IsKimHere()</text>
</g>
<!-- 20 -->
<g id="node21" class="node">
<title>20</title>
<polygon fill="none" stroke="black" points="1689,-684 1606.24,-666 1689,-648 1771.76,-666 1689,-684"/>
<text text-anchor="middle" x="1689" y="-660.95" font-family="Times New Roman,serif" font-size="14.00">IsKimHere()</text>
</g>
<!-- 19&#45;&gt;20 -->
<g id="edge23" class="edge">
<title>19&#45;&gt;20</title>
<path fill="none" stroke="black" d="M1928.31,-725.99C1876.4,-713.19 1791.04,-692.15 1737.53,-678.96"/>
<polygon fill="black" stroke="black" points="1738.64,-675.63 1728.09,-676.64 1736.97,-682.43 1738.64,-675.63"/>
</g>
<!-- 21 -->
<g id="node22" class="node">
<title>21</title>
<polygon fill="none" stroke="black" points="1973,-684 1877.22,-666 1973,-648 2068.78,-666 1973,-684"/>
<text text-anchor="middle" x="1973" y="-660.95" font-family="Times New Roman,serif" font-size="14.00">!(IsKimHere())</text>
</g>
<!-- 19&#45;&gt;21 -->
<g id="edge24" class="edge">
<title>19&#45;&gt;21</title>
<path fill="none" stroke="black" d="M1973,-719.7C1973,-712.41 1973,-703.73 1973,-695.54"/>
<polygon fill="black" stroke="black" points="1976.5,-695.62 1973,-685.62 1969.5,-695.62 1976.5,-695.62"/>
</g>
<!-- 20&#45;&gt;7 -->
<g id="edge25" class="edge">
<title>20&#45;&gt;7</title>
<path fill="none" stroke="black" d="M1672.03,-651.5C1660.67,-642.46 1645.38,-630.3 1631.9,-619.58"/>
<polygon fill="black" stroke="black" points="1634.11,-616.87 1624.11,-613.38 1629.75,-622.34 1634.11,-616.87"/>
</g>
<!-- 48 -->
<g id="node48" class="node">
<title>48</title>
<ellipse fill="none" stroke="black" cx="1973" cy="-594" rx="70.8" ry="18"/>
<text text-anchor="middle" x="1973" y="-588.95" font-family="Times New Roman,serif" font-size="14.00">IsCunoInParty()</text>
</g>
<!-- 21&#45;&gt;48 -->
<g id="edge26" class="edge">
<title>21&#45;&gt;48</title>
<path fill="none" stroke="black" d="M1973,-647.7C1973,-640.41 1973,-631.73 1973,-623.54"/>
<polygon fill="black" stroke="black" points="1976.5,-623.62 1973,-613.62 1969.5,-623.62 1976.5,-623.62"/>
</g>
<!-- 23 -->
<g id="node23" class="node">
<title>23</title>
<ellipse fill="none" stroke="black" cx="5043" cy="-738" rx="91.78" ry="18"/>
<text text-anchor="middle" x="5043" y="-732.95" font-family="Times New Roman,serif" font-size="14.00">Interfacing: 敌人。</text>
</g>
<!-- 47 -->
<g id="node47" class="node">
<title>47</title>
<ellipse fill="none" stroke="black" cx="5160" cy="-666" rx="115.84" ry="18"/>
<text text-anchor="middle" x="5160" y="-660.95" font-family="Times New Roman,serif" font-size="14.00">Jump to: [debot_chain_hub]</text>
</g>
<!-- 23&#45;&gt;47 -->
<g id="edge27" class="edge">
<title>23&#45;&gt;47</title>
<path fill="none" stroke="black" d="M5070.73,-720.41C5086.21,-711.15 5105.7,-699.49 5122.52,-689.42"/>
<polygon fill="black" stroke="black" points="5123.98,-692.63 5130.77,-684.49 5120.39,-686.62 5123.98,-692.63"/>
</g>
<!-- 24 -->
<g id="node24" class="node">
<title>24</title>
<ellipse fill="none" stroke="black" cx="3367" cy="-666" rx="133.24" ry="18"/>
<text text-anchor="middle" x="3367" y="-660.95" font-family="Times New Roman,serif" font-size="14.00">IsHighestPolitical(&quot;communist&quot;)</text>
</g>
<!-- 25 -->
<g id="node25" class="node">
<title>25</title>
<polygon fill="none" stroke="black" points="2734,-612 2545.57,-594 2734,-576 2922.43,-594 2734,-612"/>
<text text-anchor="middle" x="2734" y="-588.95" font-family="Times New Roman,serif" font-size="14.00">IsHighestPolitical(&quot;communist&quot;)</text>
</g>
<!-- 24&#45;&gt;25 -->
<g id="edge28" class="edge">
<title>24&#45;&gt;25</title>
<path fill="none" stroke="black" d="M3266.35,-653.87C3146.38,-640.6 2947.4,-618.6 2829.67,-605.58"/>
<polygon fill="black" stroke="black" points="2830.37,-602.14 2820.04,-604.51 2829.6,-609.09 2830.37,-602.14"/>
</g>
<!-- 26 -->
<g id="node26" class="node">
<title>26</title>
<polygon fill="none" stroke="black" points="3367,-612 3165.54,-594 3367,-576 3568.46,-594 3367,-612"/>
<text text-anchor="middle" x="3367" y="-588.95" font-family="Times New Roman,serif" font-size="14.00">!(IsHighestPolitical(&quot;communist&quot;))</text>
</g>
<!-- 24&#45;&gt;26 -->
<g id="edge29" class="edge">
<title>24&#45;&gt;26</title>
<path fill="none" stroke="black" d="M3367,-647.7C3367,-640.41 3367,-631.73 3367,-623.54"/>
<polygon fill="black" stroke="black" points="3370.5,-623.62 3367,-613.62 3363.5,-623.62 3370.5,-623.62"/>
</g>
<!-- 27 -->
<g id="node27" class="node">
<title>27</title>
<ellipse fill="none" stroke="black" cx="2348" cy="-90" rx="189.03" ry="18"/>
<text text-anchor="middle" x="2348" y="-84.95" font-family="Times New Roman,serif" font-size="14.00">Rhetoric: 未来的敌人。人类的敌人。</text>
</g>
<!-- 25&#45;&gt;27 -->
<g id="edge30" class="edge">
<title>25&#45;&gt;27</title>
<path fill="none" stroke="black" d="M2710.57,-577.82C2654.79,-540.65 2512.51,-439.65 2428,-324 2386.79,-267.6 2385.68,-246.73 2365,-180 2358.87,-160.22 2354.55,-137.25 2351.8,-119.61"/>
<polygon fill="black" stroke="black" points="2355.28,-119.22 2350.36,-109.84 2348.35,-120.24 2355.28,-119.22"/>
</g>
<!-- 55 -->
<g id="node55" class="node">
<title>55</title>
<ellipse fill="none" stroke="black" cx="3367" cy="-522" rx="131.71" ry="18"/>
<text text-anchor="middle" x="3367" y="-516.95" font-family="Times New Roman,serif" font-size="14.00">IsHighestPolitical(&quot;ultraliberal&quot;)</text>
</g>
<!-- 26&#45;&gt;55 -->
<g id="edge31" class="edge">
<title>26&#45;&gt;55</title>
<path fill="none" stroke="black" d="M3367,-575.7C3367,-568.41 3367,-559.73 3367,-551.54"/>
<polygon fill="black" stroke="black" points="3370.5,-551.62 3367,-541.62 3363.5,-551.62 3370.5,-551.62"/>
</g>
<!-- 27&#45;&gt;61 -->
<g id="edge32" class="edge">
<title>27&#45;&gt;61</title>
<path fill="none" stroke="black" d="M2441.21,-73.9C2515.17,-61.91 2617.9,-45.27 2690.8,-33.45"/>
<polygon fill="black" stroke="black" points="2690.97,-36.97 2700.29,-31.92 2689.85,-30.06 2690.97,-36.97"/>
</g>
<!-- 28 -->
<g id="node28" class="node">
<title>28</title>
<ellipse fill="none" stroke="black" cx="3132" cy="-820.99" rx="157.3" ry="18"/>
<text text-anchor="middle" x="3132" y="-815.94" font-family="Times New Roman,serif" font-size="14.00">You: “封锁起来是为了防谁？”</text>
</g>
<!-- 28&#45;&gt;12 -->
<g id="edge33" class="edge">
<title>28&#45;&gt;12</title>
<path fill="none" stroke="black" d="M3073.96,-803.89C3027.88,-791.11 2963.17,-773.16 2913.48,-759.38"/>
<polygon fill="black" stroke="black" points="2914.5,-756.03 2903.93,-756.73 2912.63,-762.78 2914.5,-756.03"/>
</g>
<!-- 29 -->
<g id="node29" class="node">
<title>29</title>
<ellipse fill="none" stroke="black" cx="1822" cy="-450" rx="475.64" ry="18"/>
<text text-anchor="middle" x="1822" y="-444.95" font-family="Times New Roman,serif" font-size="14.00">Cuno: “不知道，猪头，我们现在看起来不像是在大门后面——当然了，这只是坤诺的想法。”</text>
</g>
<!-- 29&#45;&gt;34 -->
<g id="edge34" class="edge">
<title>29&#45;&gt;34</title>
<path fill="none" stroke="black" d="M1760.2,-431.7C1722.83,-421.23 1675.22,-407.9 1637.24,-397.27"/>
<polygon fill="black" stroke="black" points="1638.33,-393.94 1627.75,-394.61 1636.44,-400.68 1638.33,-393.94"/>
</g>
<!-- 30&#45;&gt;8 -->
<g id="edge36" class="edge">
<title>30&#45;&gt;8</title>
<path fill="none" stroke="black" d="M3463.71,-886.2C3473.48,-875.06 3486.49,-860.22 3497.54,-847.61"/>
<polygon fill="black" stroke="black" points="3499.86,-850.28 3503.82,-840.45 3494.6,-845.66 3499.86,-850.28"/>
</g>
<!-- 30&#45;&gt;14 -->
<g id="edge40" class="edge">
<title>30&#45;&gt;14</title>
<path fill="none" stroke="black" d="M3513.05,-894.51C3600.23,-882.97 3759.64,-861.87 3884.13,-845.4"/>
<polygon fill="black" stroke="black" points="3884.35,-848.9 3893.8,-844.12 3883.43,-841.96 3884.35,-848.9"/>
</g>
<!-- 30&#45;&gt;28 -->
<g id="edge42" class="edge">
<title>30&#45;&gt;28</title>
<path fill="none" stroke="black" d="M3399.12,-890.24C3347,-876.92 3264.7,-855.9 3205.22,-840.7"/>
<polygon fill="black" stroke="black" points="3206.41,-837.39 3195.86,-838.31 3204.68,-844.17 3206.41,-837.39"/>
</g>
<!-- 36 -->
<g id="node36" class="node">
<title>36</title>
<ellipse fill="none" stroke="black" cx="4751" cy="-820.99" rx="96.39" ry="18"/>
<text text-anchor="middle" x="4751" y="-815.94" font-family="Times New Roman,serif" font-size="14.00">You: [完成思维。]</text>
</g>
<!-- 30&#45;&gt;36 -->
<g id="edge35" class="edge">
<title>30&#45;&gt;36</title>
<path fill="none" stroke="black" d="M3523.28,-901.67C3748.87,-897.37 4423.78,-882.1 4641,-849.98 4657.31,-847.57 4674.72,-843.74 4690.75,-839.69"/>
<polygon fill="black" stroke="black" points="4691.35,-843.15 4700.14,-837.24 4689.58,-836.37 4691.35,-843.15"/>
</g>
<!-- 41 -->
<g id="node41" class="node">
<title>41</title>
<ellipse fill="none" stroke="black" cx="2641" cy="-820.99" rx="240.72" ry="18"/>
<text text-anchor="middle" x="2641" y="-815.94" font-family="Times New Roman,serif" font-size="14.00">You: 这就意味着我*算是*进了补给站的大门。</text>
</g>
<!-- 30&#45;&gt;41 -->
<g id="edge37" class="edge">
<title>30&#45;&gt;41</title>
<path fill="none" stroke="black" d="M3381.15,-896.18C3252.17,-883.25 2968.74,-854.84 2792.45,-837.17"/>
<polygon fill="black" stroke="black" points="2792.8,-833.69 2782.5,-836.17 2792.1,-840.65 2792.8,-833.69"/>
</g>
<!-- 45 -->
<g id="node45" class="node">
<title>45</title>
<ellipse fill="none" stroke="black" cx="5014" cy="-820.99" rx="149.11" ry="18"/>
<text text-anchor="middle" x="5014" y="-815.94" font-family="Times New Roman,serif" font-size="14.00">You: 封锁起来是为了防谁？</text>
</g>
<!-- 30&#45;&gt;45 -->
<g id="edge38" class="edge">
<title>30&#45;&gt;45</title>
<path fill="none" stroke="black" d="M3522.96,-901.54C3774.2,-896.44 4593.8,-878.01 4856,-849.98 4880.15,-847.4 4906.18,-843.33 4930.01,-839.09"/>
<polygon fill="black" stroke="black" points="4930.44,-842.56 4939.65,-837.33 4929.19,-835.68 4930.44,-842.56"/>
</g>
<!-- 58 -->
<g id="node58" class="node">
<title>58</title>
<ellipse fill="none" stroke="black" cx="1983" cy="-820.99" rx="248.91" ry="18"/>
<text text-anchor="middle" x="1983" y="-815.94" font-family="Times New Roman,serif" font-size="14.00">You: “这就意味着我*算是*进了补给站的大门。”</text>
</g>
<!-- 30&#45;&gt;58 -->
<g id="edge41" class="edge">
<title>30&#45;&gt;58</title>
<path fill="none" stroke="black" d="M3376.18,-899.8C3204.53,-892.19 2761.16,-871.95 2391,-849.98 2317.16,-845.6 2235.86,-840.15 2165.39,-835.23"/>
<polygon fill="black" stroke="black" points="2165.9,-831.75 2155.68,-834.55 2165.41,-838.74 2165.9,-831.75"/>
</g>
<!-- 60 -->
<g id="node60" class="node">
<title>60</title>
<ellipse fill="none" stroke="black" cx="1083" cy="-820.99" rx="169.07" ry="18"/>
<text text-anchor="middle" x="1083" y="-815.94" font-family="Times New Roman,serif" font-size="14.00">You: “你觉得它是做什么用的？”</text>
</g>
<!-- 30&#45;&gt;60 -->
<g id="edge39" class="edge">
<title>30&#45;&gt;60</title>
<path fill="none" stroke="black" d="M3374.47,-902.45C3041.59,-899.88 1688.72,-887.29 1266,-849.98 1237.17,-847.44 1205.98,-843.22 1177.66,-838.82"/>
<polygon fill="black" stroke="black" points="1178.46,-835.41 1168.04,-837.3 1177.37,-842.32 1178.46,-835.41"/>
</g>
<!-- 31 -->
<g id="node31" class="node">
<title>31</title>
<ellipse fill="none" stroke="black" cx="5456" cy="-450" rx="433.16" ry="18"/>
<text text-anchor="middle" x="5456" y="-444.95" font-family="Times New Roman,serif" font-size="14.00">Interfacing: 为了运送补给品：弹药和燃料。也可以把它抬起来，封锁瑞瓦肖西海岸。</text>
</g>
<!-- 37 -->
<g id="node37" class="node">
<title>37</title>
<ellipse fill="none" stroke="black" cx="5090" cy="-378" rx="115.84" ry="18"/>
<text text-anchor="middle" x="5090" y="-372.95" font-family="Times New Roman,serif" font-size="14.00">Jump to: [debot_chain_hub]</text>
</g>
<!-- 31&#45;&gt;37 -->
<g id="edge43" class="edge">
<title>31&#45;&gt;37</title>
<path fill="none" stroke="black" d="M5366.93,-431.97C5307.62,-420.62 5230.25,-405.82 5172.36,-394.75"/>
<polygon fill="black" stroke="black" points="5173.03,-391.32 5162.55,-392.87 5171.71,-398.19 5173.03,-391.32"/>
</g>
<!-- 32 -->
<g id="node32" class="node">
<title>32</title>
<ellipse fill="none" stroke="black" cx="539" cy="-594" rx="510.96" ry="18"/>
<text text-anchor="middle" x="539" y="-588.95" font-family="Times New Roman,serif" font-size="14.00">Kim Kitsuragi: “也许是为了把弹药送到岛上？还有补给品。如果把链条抬起来，还可以*封锁*海湾。”</text>
</g>
<!-- 39 -->
<g id="node39" class="node">
<title>39</title>
<ellipse fill="none" stroke="black" cx="409" cy="-522" rx="250.96" ry="18"/>
<text text-anchor="middle" x="409" y="-516.95" font-family="Times New Roman,serif" font-size="14.00">Visual Calculus: 作为封锁海湾那一边的防御手段。</text>
</g>
<!-- 32&#45;&gt;39 -->
<g id="edge44" class="edge">
<title>32&#45;&gt;39</title>
<path fill="none" stroke="black" d="M506.87,-575.7C490.07,-566.65 469.3,-555.47 451.22,-545.73"/>
<polygon fill="black" stroke="black" points="453.01,-542.72 442.55,-541.06 449.69,-548.89 453.01,-542.72"/>
</g>
<!-- 33&#45;&gt;24 -->
<g id="edge45" class="edge">
<title>33&#45;&gt;24</title>
<path fill="none" stroke="black" d="M3501.6,-720.23C3476.88,-710.46 3445.51,-698.05 3419.27,-687.67"/>
<polygon fill="black" stroke="black" points="3420.74,-684.49 3410.15,-684.07 3418.16,-691 3420.74,-684.49"/>
</g>
<!-- 34&#45;&gt;13 -->
<g id="edge46" class="edge">
<title>34&#45;&gt;13</title>
<path fill="none" stroke="black" d="M1572,-359.7C1572,-352.41 1572,-343.73 1572,-335.54"/>
<polygon fill="black" stroke="black" points="1575.5,-335.62 1572,-325.62 1568.5,-335.62 1575.5,-335.62"/>
</g>
<!-- 35 -->
<g id="node35" class="node">
<title>35</title>
<ellipse fill="none" stroke="black" cx="2021" cy="-378" rx="240.72" ry="18"/>
<text text-anchor="middle" x="2021" y="-372.95" font-family="Times New Roman,serif" font-size="14.00">Interfacing: 从严格意义上讲——没有。很抱歉。</text>
</g>
<!-- 35&#45;&gt;13 -->
<g id="edge47" class="edge">
<title>35&#45;&gt;13</title>
<path fill="none" stroke="black" d="M1919.96,-361.25C1842.84,-349.22 1737.53,-332.81 1663.01,-321.19"/>
<polygon fill="black" stroke="black" points="1663.71,-317.75 1653.29,-319.67 1662.63,-324.67 1663.71,-317.75"/>
</g>
<!-- 37&#45;&gt;30 -->
<g id="edge48" class="edge">
<title>37&#45;&gt;30</title>
<path fill="none" stroke="black" d="M5205.94,-378.05C5418.19,-377.54 5851.75,-382.62 5898,-432 5908.94,-443.68 5908.09,-455.58 5898,-468 5650.85,-772.02 5415.29,-553.69 5035,-648 4720.3,-726.04 4653.55,-795.07 4334,-849.98 4181.81,-876.14 3724.51,-893.85 3533.88,-900.29"/>
<polygon fill="black" stroke="black" points="3533.92,-896.79 3524.05,-900.62 3534.16,-903.78 3533.92,-896.79"/>
</g>
<!-- 38&#45;&gt;61 -->
<g id="edge49" class="edge">
<title>38&#45;&gt;61</title>
<path fill="none" stroke="black" d="M2658.05,-144.05C2607.1,-130.21 2558.15,-107.12 2585,-72 2598.06,-54.91 2643.34,-42.04 2686.98,-33.26"/>
<polygon fill="black" stroke="black" points="2687.39,-36.74 2696.54,-31.4 2686.05,-29.87 2687.39,-36.74"/>
</g>
<!-- 39&#45;&gt;2 -->
<g id="edge50" class="edge">
<title>39&#45;&gt;2</title>
<path fill="none" stroke="black" d="M305.76,-505.14C264.32,-496.47 223.4,-484.16 211,-468 179.45,-426.9 240.94,-404.07 302.52,-391.86"/>
<polygon fill="black" stroke="black" points="302.93,-395.34 312.11,-390.05 301.63,-388.46 302.93,-395.34"/>
</g>
<!-- 40&#45;&gt;37 -->
<g id="edge51" class="edge">
<title>40&#45;&gt;37</title>
<path fill="none" stroke="black" d="M4292.47,-435.11C4496.59,-420.75 4808.26,-398.82 4975.11,-387.08"/>
<polygon fill="black" stroke="black" points="4975.14,-390.59 4984.87,-386.4 4974.65,-383.61 4975.14,-390.59"/>
</g>
<!-- 41&#45;&gt;35 -->
<g id="edge52" class="edge">
<title>41&#45;&gt;35</title>
<path fill="none" stroke="black" d="M2508.83,-805.57C2441.32,-795.51 2368.53,-779.59 2345,-756 2316.44,-727.36 2326,-707.45 2326,-667 2326,-667 2326,-667 2326,-521 2326,-480.55 2335.99,-460.21 2307,-432 2288.46,-413.96 2238.95,-401.87 2186.22,-393.85"/>
<polygon fill="black" stroke="black" points="2186.83,-390.41 2176.43,-392.42 2185.82,-397.33 2186.83,-390.41"/>
</g>
<!-- 43 -->
<g id="node43" class="node">
<title>43</title>
<polygon fill="none" stroke="black" points="4725,-540 4624.87,-522 4725,-504 4825.13,-522 4725,-540"/>
<text text-anchor="middle" x="4725" y="-516.95" font-family="Times New Roman,serif" font-size="14.00">IsCunoInParty()</text>
</g>
<!-- 42&#45;&gt;43 -->
<g id="edge53" class="edge">
<title>42&#45;&gt;43</title>
<path fill="none" stroke="black" d="M4725,-575.7C4725,-568.41 4725,-559.73 4725,-551.54"/>
<polygon fill="black" stroke="black" points="4728.5,-551.62 4725,-541.62 4721.5,-551.62 4728.5,-551.62"/>
</g>
<!-- 44 -->
<g id="node44" class="node">
<title>44</title>
<polygon fill="none" stroke="black" points="5206,-540 5092.85,-522 5206,-504 5319.15,-522 5206,-540"/>
<text text-anchor="middle" x="5206" y="-516.95" font-family="Times New Roman,serif" font-size="14.00">!(IsCunoInParty())</text>
</g>
<!-- 42&#45;&gt;44 -->
<g id="edge54" class="edge">
<title>42&#45;&gt;44</title>
<path fill="none" stroke="black" d="M4785.43,-584.21C4875.26,-571.13 5043.52,-546.65 5137.7,-532.94"/>
<polygon fill="black" stroke="black" points="5137.92,-536.44 5147.31,-531.54 5136.91,-529.52 5137.92,-536.44"/>
</g>
<!-- 46 -->
<g id="node46" class="node">
<title>46</title>
<ellipse fill="none" stroke="black" cx="4725" cy="-450" rx="279.62" ry="18"/>
<text text-anchor="middle" x="4725" y="-444.95" font-family="Times New Roman,serif" font-size="14.00">Cuno: 男孩凝视着机械。“这锁链也他妈的太酷了吧。”</text>
</g>
<!-- 43&#45;&gt;46 -->
<g id="edge55" class="edge">
<title>43&#45;&gt;46</title>
<path fill="none" stroke="black" d="M4725,-503.7C4725,-496.41 4725,-487.73 4725,-479.54"/>
<polygon fill="black" stroke="black" points="4728.5,-479.62 4725,-469.62 4721.5,-479.62 4728.5,-479.62"/>
</g>
<!-- 44&#45;&gt;31 -->
<g id="edge56" class="edge">
<title>44&#45;&gt;31</title>
<path fill="none" stroke="black" d="M5245.61,-509.91C5282.63,-499.54 5338.77,-483.82 5383.76,-471.23"/>
<polygon fill="black" stroke="black" points="5384.5,-474.66 5393.18,-468.59 5382.61,-467.92 5384.5,-474.66"/>
</g>
<!-- 45&#45;&gt;23 -->
<g id="edge57" class="edge">
<title>45&#45;&gt;23</title>
<path fill="none" stroke="black" d="M5020.15,-802.82C5023.85,-792.47 5028.66,-779.04 5032.91,-767.18"/>
<polygon fill="black" stroke="black" points="5036.17,-768.45 5036.25,-757.86 5029.58,-766.09 5036.17,-768.45"/>
</g>
<!-- 46&#45;&gt;37 -->
<g id="edge58" class="edge">
<title>46&#45;&gt;37</title>
<path fill="none" stroke="black" d="M4811.5,-432.41C4871.01,-421 4949.57,-405.93 5008.07,-394.71"/>
<polygon fill="black" stroke="black" points="5008.47,-398.2 5017.64,-392.88 5007.16,-391.32 5008.47,-398.2"/>
</g>
<!-- 47&#45;&gt;30 -->
<g id="edge59" class="edge">
<title>47&#45;&gt;30</title>
<path fill="none" stroke="black" d="M5168.45,-684.23C5184.86,-720.44 5215.77,-804.84 5172,-849.98 5143.21,-879.67 3878.76,-897.61 3534.67,-901.95"/>
<polygon fill="black" stroke="black" points="3534.77,-898.45 3524.82,-902.08 3534.86,-905.45 3534.77,-898.45"/>
</g>
<!-- 49 -->
<g id="node49" class="node">
<title>49</title>
<polygon fill="none" stroke="black" points="1822,-540 1721.87,-522 1822,-504 1922.13,-522 1822,-540"/>
<text text-anchor="middle" x="1822" y="-516.95" font-family="Times New Roman,serif" font-size="14.00">IsCunoInParty()</text>
</g>
<!-- 48&#45;&gt;49 -->
<g id="edge60" class="edge">
<title>48&#45;&gt;49</title>
<path fill="none" stroke="black" d="M1939.86,-577.64C1916.12,-566.63 1884.1,-551.79 1859.44,-540.35"/>
<polygon fill="black" stroke="black" points="1860.93,-537.19 1850.39,-536.16 1857.99,-543.54 1860.93,-537.19"/>
</g>
<!-- 50 -->
<g id="node50" class="node">
<title>50</title>
<polygon fill="none" stroke="black" points="2053,-540 1939.85,-522 2053,-504 2166.15,-522 2053,-540"/>
<text text-anchor="middle" x="2053" y="-516.95" font-family="Times New Roman,serif" font-size="14.00">!(IsCunoInParty())</text>
</g>
<!-- 48&#45;&gt;50 -->
<g id="edge61" class="edge">
<title>48&#45;&gt;50</title>
<path fill="none" stroke="black" d="M1991.96,-576.41C2002.64,-567.07 2016.11,-555.28 2027.68,-545.15"/>
<polygon fill="black" stroke="black" points="2029.72,-548.02 2034.94,-538.8 2025.11,-542.75 2029.72,-548.02"/>
</g>
<!-- 49&#45;&gt;29 -->
<g id="edge62" class="edge">
<title>49&#45;&gt;29</title>
<path fill="none" stroke="black" d="M1822,-503.7C1822,-496.41 1822,-487.73 1822,-479.54"/>
<polygon fill="black" stroke="black" points="1825.5,-479.62 1822,-469.62 1818.5,-479.62 1825.5,-479.62"/>
</g>
<!-- 51 -->
<g id="node51" class="node">
<title>51</title>
<ellipse fill="none" stroke="black" cx="1083" cy="-738" rx="58.52" ry="18"/>
<text text-anchor="middle" x="1083" y="-732.95" font-family="Times New Roman,serif" font-size="14.00">IsKimHere()</text>
</g>
<!-- 52 -->
<g id="node52" class="node">
<title>52</title>
<polygon fill="none" stroke="black" points="726,-684 643.24,-666 726,-648 808.76,-666 726,-684"/>
<text text-anchor="middle" x="726" y="-660.95" font-family="Times New Roman,serif" font-size="14.00">IsKimHere()</text>
</g>
<!-- 51&#45;&gt;52 -->
<g id="edge63" class="edge">
<title>51&#45;&gt;52</title>
<path fill="none" stroke="black" d="M1034.48,-727.49C967.84,-714.42 848.42,-691 779.34,-677.46"/>
<polygon fill="black" stroke="black" points="780.26,-674.07 769.77,-675.58 778.91,-680.94 780.26,-674.07"/>
</g>
<!-- 53 -->
<g id="node53" class="node">
<title>53</title>
<polygon fill="none" stroke="black" points="1111,-684 1015.22,-666 1111,-648 1206.78,-666 1111,-684"/>
<text text-anchor="middle" x="1111" y="-660.95" font-family="Times New Roman,serif" font-size="14.00">!(IsKimHere())</text>
</g>
<!-- 51&#45;&gt;53 -->
<g id="edge64" class="edge">
<title>51&#45;&gt;53</title>
<path fill="none" stroke="black" d="M1089.92,-719.7C1093.06,-711.84 1096.85,-702.37 1100.35,-693.63"/>
<polygon fill="black" stroke="black" points="1103.52,-695.13 1103.98,-684.55 1097.02,-692.53 1103.52,-695.13"/>
</g>
<!-- 52&#45;&gt;32 -->
<g id="edge65" class="edge">
<title>52&#45;&gt;32</title>
<path fill="none" stroke="black" d="M696.78,-654.06C669.9,-644 629.28,-628.8 595.99,-616.33"/>
<polygon fill="black" stroke="black" points="597.47,-613.15 586.88,-612.92 595.02,-619.71 597.47,-613.15"/>
</g>
<!-- 62 -->
<g id="node62" class="node">
<title>62</title>
<ellipse fill="none" stroke="black" cx="1139" cy="-594" rx="70.8" ry="18"/>
<text text-anchor="middle" x="1139" y="-588.95" font-family="Times New Roman,serif" font-size="14.00">IsCunoInParty()</text>
</g>
<!-- 53&#45;&gt;62 -->
<g id="edge66" class="edge">
<title>53&#45;&gt;62</title>
<path fill="none" stroke="black" d="M1117.49,-648.76C1120.58,-641.04 1124.37,-631.59 1127.89,-622.77"/>
<polygon fill="black" stroke="black" points="1131.12,-624.11 1131.59,-613.53 1124.62,-621.51 1131.12,-624.11"/>
</g>
<!-- 54 -->
<g id="node54" class="node">
<title>54</title>
<ellipse fill="none" stroke="black" cx="614" cy="-450" rx="393.75" ry="18"/>
<text text-anchor="middle" x="614" y="-444.95" font-family="Times New Roman,serif" font-size="14.00">Cuno: “坤诺当然他妈的知道了。”他耸了耸肩。“坤诺要用它往岛上运狗屎。”</text>
</g>
<!-- 54&#45;&gt;2 -->
<g id="edge67" class="edge">
<title>54&#45;&gt;2</title>
<path fill="none" stroke="black" d="M561.84,-431.7C531.39,-421.59 492.88,-408.82 461.41,-398.38"/>
<polygon fill="black" stroke="black" points="462.62,-395.09 452.03,-395.27 460.42,-401.74 462.62,-395.09"/>
</g>
<!-- 56 -->
<g id="node56" class="node">
<title>56</title>
<polygon fill="none" stroke="black" points="3529,-252 3342.74,-234 3529,-216 3715.26,-234 3529,-252"/>
<text text-anchor="middle" x="3529" y="-228.95" font-family="Times New Roman,serif" font-size="14.00">IsHighestPolitical(&quot;ultraliberal&quot;)</text>
</g>
<!-- 55&#45;&gt;56 -->
<g id="edge68" class="edge">
<title>55&#45;&gt;56</title>
<path fill="none" stroke="black" d="M3422.18,-505.2C3441.77,-497.03 3462.32,-485.08 3476,-468 3524.41,-407.52 3530.4,-311.29 3530.09,-263.65"/>
<polygon fill="black" stroke="black" points="3533.6,-263.82 3529.92,-253.88 3526.6,-263.95 3533.6,-263.82"/>
</g>
<!-- 57 -->
<g id="node57" class="node">
<title>57</title>
<polygon fill="none" stroke="black" points="3268,-468 3068.71,-450 3268,-432 3467.29,-450 3268,-468"/>
<text text-anchor="middle" x="3268" y="-444.95" font-family="Times New Roman,serif" font-size="14.00">!(IsHighestPolitical(&quot;ultraliberal&quot;))</text>
</g>
<!-- 55&#45;&gt;57 -->
<g id="edge69" class="edge">
<title>55&#45;&gt;57</title>
<path fill="none" stroke="black" d="M3342.78,-503.88C3329.67,-494.6 3313.31,-483.04 3299.25,-473.09"/>
<polygon fill="black" stroke="black" points="3301.36,-470.3 3291.18,-467.39 3297.32,-476.02 3301.36,-470.3"/>
</g>
<!-- 56&#45;&gt;3 -->
<g id="edge70" class="edge">
<title>56&#45;&gt;3</title>
<path fill="none" stroke="black" d="M3534.97,-216.39C3540.78,-196.99 3546.68,-164.89 3531,-144 3520.8,-130.4 3489.18,-119.15 3455.11,-110.56"/>
<polygon fill="black" stroke="black" points="3455.99,-107.17 3445.45,-108.22 3454.35,-113.98 3455.99,-107.17"/>
</g>
<!-- 57&#45;&gt;15 -->
<g id="edge71" class="edge">
<title>57&#45;&gt;15</title>
<path fill="none" stroke="black" d="M3259.71,-432.41C3255.85,-424.71 3251.17,-415.34 3246.81,-406.62"/>
<polygon fill="black" stroke="black" points="3250,-405.18 3242.4,-397.8 3243.74,-408.31 3250,-405.18"/>
</g>
<!-- 58&#45;&gt;19 -->
<g id="edge72" class="edge">
<title>58&#45;&gt;19</title>
<path fill="none" stroke="black" d="M1980.88,-802.82C1979.62,-792.58 1977.98,-779.32 1976.52,-767.55"/>
<polygon fill="black" stroke="black" points="1980.04,-767.43 1975.34,-757.93 1973.09,-768.29 1980.04,-767.43"/>
</g>
<!-- 59&#45;&gt;30 -->
<g id="edge73" class="edge">
<title>59&#45;&gt;30</title>
<path fill="none" stroke="black" d="M3449,-957.68C3449,-950.39 3449,-941.71 3449,-933.52"/>
<polygon fill="black" stroke="black" points="3452.5,-933.6 3449,-923.6 3445.5,-933.6 3452.5,-933.6"/>
</g>
<!-- 60&#45;&gt;51 -->
<g id="edge74" class="edge">
<title>60&#45;&gt;51</title>
<path fill="none" stroke="black" d="M1083,-802.82C1083,-792.68 1083,-779.6 1083,-767.91"/>
<polygon fill="black" stroke="black" points="1086.5,-767.94 1083,-757.94 1079.5,-767.94 1086.5,-767.94"/>
</g>
<!-- 61&#45;&gt;30 -->
<g id="edge75" class="edge">
<title>61&#45;&gt;30</title>
<path fill="none" stroke="black" d="M2894.41,-21.33C3139.54,-26.86 3695.58,-42.61 3724,-72 3862.74,-215.51 3734,-321.39 3734,-521 3734,-739 3734,-739 3734,-739 3734,-835.84 3608.86,-876.34 3524.43,-892.65"/>
<polygon fill="black" stroke="black" points="3524,-889.17 3514.8,-894.43 3525.27,-896.05 3524,-889.17"/>
</g>
<!-- 63 -->
<g id="node63" class="node">
<title>63</title>
<polygon fill="none" stroke="black" points="960,-540 859.87,-522 960,-504 1060.13,-522 960,-540"/>
<text text-anchor="middle" x="960" y="-516.95" font-family="Times New Roman,serif" font-size="14.00">IsCunoInParty()</text>
</g>
<!-- 62&#45;&gt;63 -->
<g id="edge77" class="edge">
<title>62&#45;&gt;63</title>
<path fill="none" stroke="black" d="M1101.48,-578.33C1072.17,-566.86 1031.48,-550.95 1001.26,-539.13"/>
<polygon fill="black" stroke="black" points="1002.63,-535.91 992.05,-535.53 1000.08,-542.43 1002.63,-535.91"/>
</g>
<!-- 64 -->
<g id="node64" class="node">
<title>64</title>
<polygon fill="none" stroke="black" points="1139,-468 1025.85,-450 1139,-432 1252.15,-450 1139,-468"/>
<text text-anchor="middle" x="1139" y="-444.95" font-family="Times New Roman,serif" font-size="14.00">!(IsCunoInParty())</text>
</g>
<!-- 62&#45;&gt;64 -->
<g id="edge76" class="edge">
<title>62&#45;&gt;64</title>
<path fill="none" stroke="black" d="M1139,-575.59C1139,-551.61 1139,-508.14 1139,-479.42"/>
<polygon fill="black" stroke="black" points="1142.5,-479.62 1139,-469.62 1135.5,-479.62 1142.5,-479.62"/>
</g>
<!-- 63&#45;&gt;54 -->
<g id="edge78" class="edge">
<title>63&#45;&gt;54</title>
<path fill="none" stroke="black" d="M914.41,-511.78C862.44,-501.26 776.03,-483.78 709.2,-470.26"/>
<polygon fill="black" stroke="black" points="710.21,-466.89 699.71,-468.34 708.82,-473.75 710.21,-466.89"/>
</g>
<!-- 64&#45;&gt;2 -->
<g id="edge79" class="edge">
<title>64&#45;&gt;2</title>
<path fill="none" stroke="black" d="M1082.59,-440.51C1061.98,-437.58 1038.46,-434.42 1017,-432 843.53,-412.44 641.78,-396.28 518.25,-387.14"/>
<polygon fill="black" stroke="black" points="518.65,-383.66 508.42,-386.41 518.14,-390.64 518.65,-383.66"/>
</g>
</g>
</svg>
