<?xml version="1.0" encoding="UTF-8" standalone="no"?>
<!DOCTYPE svg PUBLIC "-//W3C//DTD SVG 1.1//EN"
 "http://www.w3.org/Graphics/SVG/1.1/DTD/svg11.dtd">
<!-- Generated by graphviz version 12.2.1 (20241206.2353)
 -->
<!-- Title: G Pages: 1 -->
<svg width="4156pt" height="1094pt"
 viewBox="0.00 0.00 4155.78 1094.14" xmlns="http://www.w3.org/2000/svg" xmlns:xlink="http://www.w3.org/1999/xlink">
<g id="graph0" class="graph" transform="scale(1 1) rotate(0) translate(4 1090.14)">
<title>G</title>
<polygon fill="white" stroke="none" points="-4,4 -4,-1090.14 4151.78,-1090.14 4151.78,4 -4,4"/>
<!-- 0 -->
<g id="node1" class="node">
<title>0</title>
<ellipse fill="none" stroke="black" cx="2305.87" cy="-1068.14" rx="39.07" ry="18"/>
<text text-anchor="middle" x="2305.87" y="-1063.09" font-family="Times New Roman,serif" font-size="14.00">START</text>
</g>
<!-- 0&#45;&gt;0 -->
<g id="edge1" class="edge">
<title>0&#45;&gt;0</title>
<path fill="none" stroke="black" d="M2328.13,-1083.33C2345.37,-1089.02 2362.94,-1083.95 2362.94,-1068.14 2362.94,-1055.78 2352.21,-1049.99 2339.3,-1050.75"/>
<polygon fill="black" stroke="black" points="2338.76,-1047.29 2329.62,-1052.65 2340.11,-1054.16 2338.76,-1047.29"/>
</g>
<!-- 1 -->
<g id="node2" class="node">
<title>1</title>
<ellipse fill="none" stroke="black" cx="2410.87" cy="-1068.14" rx="29.86" ry="18"/>
<text text-anchor="middle" x="2410.87" y="-1063.09" font-family="Times New Roman,serif" font-size="14.00">input</text>
</g>
<!-- 11 -->
<g id="node12" class="node">
<title>11</title>
<ellipse fill="none" stroke="black" cx="2167.87" cy="-975.07" rx="458.38" ry="39.07"/>
<text text-anchor="middle" x="2167.87" y="-985.39" font-family="Times New Roman,serif" font-size="14.00">Electrochemistry: 我的心脏狂跳不止！快冷静下来……这是安非他命啊，安非他命！</text>
<text text-anchor="middle" x="2167.87" y="-968.89" font-family="Times New Roman,serif" font-size="14.00">啊，安非他命，甜美的安非他命！你觉得自己应该找出货源……也许还能再多弄点？</text>
<text text-anchor="middle" x="2167.87" y="-952.39" font-family="Times New Roman,serif" font-size="14.00">啊，安非他命，甜美的安非他命！也许那个叫坤诺的小孩知道能在哪儿找到更多？</text>
</g>
<!-- 1&#45;&gt;11 -->
<g id="edge2" class="edge">
<title>1&#45;&gt;11</title>
<path fill="none" stroke="black" d="M2387.46,-1056.65C2382.35,-1054.44 2376.95,-1052.16 2371.87,-1050.14 2344.18,-1039.08 2314.11,-1027.79 2285.78,-1017.45"/>
<polygon fill="black" stroke="black" points="2287.04,-1014.18 2276.44,-1014.06 2284.65,-1020.76 2287.04,-1014.18"/>
</g>
<!-- 2 -->
<g id="node3" class="node">
<title>2</title>
<ellipse fill="none" stroke="black" cx="3396.87" cy="-1068.14" rx="137.34" ry="18"/>
<text text-anchor="middle" x="3396.87" y="-1063.09" font-family="Times New Roman,serif" font-size="14.00">You: 舔一口。大口一点。</text>
</g>
<!-- 22 -->
<g id="node23" class="node">
<title>22</title>
<ellipse fill="none" stroke="black" cx="3396.87" cy="-975.07" rx="715.17" ry="18"/>
<text text-anchor="middle" x="3396.87" y="-970.02" font-family="Times New Roman,serif" font-size="14.00">Electrochemistry: 你伸出舌头来回舔了盘子四五下。就像一条狗。不过，还是只有一点非常微弱的苦味。这点量不够让一个成年男子怎么样。</text>
</g>
<!-- 2&#45;&gt;22 -->
<g id="edge3" class="edge">
<title>2&#45;&gt;22</title>
<path fill="none" stroke="black" d="M3396.87,-1050.01C3396.87,-1037.24 3396.87,-1019.52 3396.87,-1004.62"/>
<polygon fill="black" stroke="black" points="3400.37,-1004.94 3396.87,-994.94 3393.37,-1004.94 3400.37,-1004.94"/>
</g>
<!-- 3 -->
<g id="node4" class="node">
<title>3</title>
<ellipse fill="none" stroke="black" cx="2653.87" cy="-738" rx="43.67" ry="18"/>
<text text-anchor="middle" x="2653.87" y="-732.95" font-family="Times New Roman,serif" font-size="14.00">no_kimz</text>
</g>
<!-- 3&#45;&gt;1 -->
<g id="edge4" class="edge">
<title>3&#45;&gt;1</title>
<path fill="none" stroke="black" d="M2658.83,-756.04C2671.45,-803.38 2699.47,-938.02 2634.87,-1014.14 2611.53,-1041.64 2509.68,-1056.71 2451.68,-1063.21"/>
<polygon fill="black" stroke="black" points="2451.43,-1059.71 2441.87,-1064.27 2452.18,-1066.67 2451.43,-1059.71"/>
</g>
<!-- 12 -->
<g id="node13" class="node">
<title>12</title>
<ellipse fill="none" stroke="black" cx="3241.87" cy="-666" rx="266.82" ry="18"/>
<text text-anchor="middle" x="3241.87" y="-660.95" font-family="Times New Roman,serif" font-size="14.00">You: 舔一小口。非常非常小，特别特别小的那种。</text>
</g>
<!-- 3&#45;&gt;12 -->
<g id="edge5" class="edge">
<title>3&#45;&gt;12</title>
<path fill="none" stroke="black" d="M2695.22,-732.08C2778.62,-722.15 2970.33,-699.33 3102.99,-683.53"/>
<polygon fill="black" stroke="black" points="3103.02,-687.06 3112.53,-682.4 3102.19,-680.1 3103.02,-687.06"/>
</g>
<!-- 17 -->
<g id="node18" class="node">
<title>17</title>
<ellipse fill="none" stroke="black" cx="2653.87" cy="-666" rx="78.48" ry="18"/>
<text text-anchor="middle" x="2653.87" y="-660.95" font-family="Times New Roman,serif" font-size="14.00">You: 不要舔。</text>
</g>
<!-- 3&#45;&gt;17 -->
<g id="edge6" class="edge">
<title>3&#45;&gt;17</title>
<path fill="none" stroke="black" d="M2653.87,-719.7C2653.87,-712.41 2653.87,-703.73 2653.87,-695.54"/>
<polygon fill="black" stroke="black" points="2657.37,-695.62 2653.87,-685.62 2650.37,-695.62 2657.37,-695.62"/>
</g>
<!-- 4 -->
<g id="node5" class="node">
<title>4</title>
<ellipse fill="none" stroke="black" cx="2607.87" cy="-594" rx="347.69" ry="18"/>
<text text-anchor="middle" x="2607.87" y="-588.95" font-family="Times New Roman,serif" font-size="14.00">Electrochemistry: 是的，反正这点量也不多。你不过是在*愚弄*自己。</text>
</g>
<!-- 5 -->
<g id="node6" class="node">
<title>5</title>
<ellipse fill="none" stroke="black" cx="1025.87" cy="-18" rx="415.25" ry="18"/>
<text text-anchor="middle" x="1025.87" y="-12.95" font-family="Times New Roman,serif" font-size="14.00">Kim Kitsuragi: “不过确实有个有趣的发现——小孩前往港口的备用通道。做得好。”</text>
</g>
<!-- 6 -->
<g id="node7" class="node">
<title>6</title>
<ellipse fill="none" stroke="black" cx="1644.87" cy="-378" rx="331.31" ry="18"/>
<text text-anchor="middle" x="1644.87" y="-372.95" font-family="Times New Roman,serif" font-size="14.00">You: “我绝对没想过拿走它，我发誓！我不过是想到了*正义*。”</text>
</g>
<!-- 13 -->
<g id="node14" class="node">
<title>13</title>
<ellipse fill="none" stroke="black" cx="1582.87" cy="-306" rx="624.58" ry="18"/>
<text text-anchor="middle" x="1582.87" y="-300.95" font-family="Times New Roman,serif" font-size="14.00">Kim Kitsuragi: “当然了，警探。*迅速*的正义。别担心，我们不需要调查麻醉剂的所有来源……”警督指了指角落里的梯子。</text>
</g>
<!-- 6&#45;&gt;13 -->
<g id="edge7" class="edge">
<title>6&#45;&gt;13</title>
<path fill="none" stroke="black" d="M1629.55,-359.7C1622.34,-351.56 1613.6,-341.69 1605.64,-332.7"/>
<polygon fill="black" stroke="black" points="1608.28,-330.4 1599.03,-325.24 1603.04,-335.04 1608.28,-330.4"/>
</g>
<!-- 7 -->
<g id="node8" class="node">
<title>7</title>
<ellipse fill="none" stroke="black" cx="2066.87" cy="-162" rx="725.4" ry="18"/>
<text text-anchor="middle" x="2066.87" y="-156.95" font-family="Times New Roman,serif" font-size="14.00">Variable[&quot;backyard.cloak_greeting_done&quot;] == true &#160;or Variable[&quot;yard.sense_clicked_on_collapsing_doorway&quot;] == true &#160;or &#160;Variable[&quot;yard.yard_sense_clicked_on_reinforcing_pillars&quot;] == true</text>
</g>
<!-- 8 -->
<g id="node9" class="node">
<title>8</title>
<polygon fill="none" stroke="black" points="1025.87,-108 0,-90 1025.87,-72 2051.75,-90 1025.87,-108"/>
<text text-anchor="middle" x="1025.87" y="-84.95" font-family="Times New Roman,serif" font-size="14.00">Variable[&quot;backyard.cloak_greeting_done&quot;] == true &#160;or Variable[&quot;yard.sense_clicked_on_collapsing_doorway&quot;] == true &#160;or &#160;Variable[&quot;yard.yard_sense_clicked_on_reinforcing_pillars&quot;] == true</text>
</g>
<!-- 7&#45;&gt;8 -->
<g id="edge8" class="edge">
<title>7&#45;&gt;8</title>
<path fill="none" stroke="black" d="M1822.81,-144.59C1647.22,-132.78 1412.5,-117 1243.32,-105.62"/>
<polygon fill="black" stroke="black" points="1243.74,-102.14 1233.53,-104.96 1243.27,-109.13 1243.74,-102.14"/>
</g>
<!-- 9 -->
<g id="node10" class="node">
<title>9</title>
<polygon fill="none" stroke="black" points="3108.87,-108 2069.97,-90 3108.87,-72 4147.78,-90 3108.87,-108"/>
<text text-anchor="middle" x="3108.87" y="-84.95" font-family="Times New Roman,serif" font-size="14.00">!(Variable[&quot;backyard.cloak_greeting_done&quot;] == true &#160;or Variable[&quot;yard.sense_clicked_on_collapsing_doorway&quot;] == true &#160;or &#160;Variable[&quot;yard.yard_sense_clicked_on_reinforcing_pillars&quot;] == true)</text>
</g>
<!-- 7&#45;&gt;9 -->
<g id="edge9" class="edge">
<title>7&#45;&gt;9</title>
<path fill="none" stroke="black" d="M2311.18,-144.59C2486.79,-132.79 2721.49,-117.02 2890.79,-105.65"/>
<polygon fill="black" stroke="black" points="2890.85,-109.15 2900.59,-104.99 2890.38,-102.17 2890.85,-109.15"/>
</g>
<!-- 8&#45;&gt;5 -->
<g id="edge10" class="edge">
<title>8&#45;&gt;5</title>
<path fill="none" stroke="black" d="M1025.87,-71.7C1025.87,-64.41 1025.87,-55.73 1025.87,-47.54"/>
<polygon fill="black" stroke="black" points="1029.37,-47.62 1025.87,-37.62 1022.37,-47.62 1029.37,-47.62"/>
</g>
<!-- 14 -->
<g id="node15" class="node">
<title>14</title>
<ellipse fill="none" stroke="black" cx="3108.87" cy="-18" rx="593.36" ry="18"/>
<text text-anchor="middle" x="3108.87" y="-12.95" font-family="Times New Roman,serif" font-size="14.00">Kim Kitsuragi: “看到那边的*梯子*了吗？也许是通往工业港口的其他通道，不是吗？可能是本地小孩子的秘密通道。”</text>
</g>
<!-- 9&#45;&gt;14 -->
<g id="edge11" class="edge">
<title>9&#45;&gt;14</title>
<path fill="none" stroke="black" d="M3108.87,-71.7C3108.87,-64.41 3108.87,-55.73 3108.87,-47.54"/>
<polygon fill="black" stroke="black" points="3112.37,-47.62 3108.87,-37.62 3105.37,-47.62 3112.37,-47.62"/>
</g>
<!-- 10 -->
<g id="node11" class="node">
<title>10</title>
<ellipse fill="none" stroke="black" cx="2582.87" cy="-234" rx="635.32" ry="18"/>
<text text-anchor="middle" x="2582.87" y="-228.95" font-family="Times New Roman,serif" font-size="14.00">Kim Kitsuragi: “还是不要比较好吧？”他看着你。“警探，以我们的薪金等级，不该做这种事。不过……”他指了指角落的梯子。</text>
</g>
<!-- 10&#45;&gt;7 -->
<g id="edge12" class="edge">
<title>10&#45;&gt;7</title>
<path fill="none" stroke="black" d="M2456.65,-215.88C2380.43,-205.54 2283.25,-192.35 2204.99,-181.74"/>
<polygon fill="black" stroke="black" points="2205.47,-178.27 2195.09,-180.39 2204.53,-185.21 2205.47,-178.27"/>
</g>
<!-- 19 -->
<g id="node20" class="node">
<title>19</title>
<ellipse fill="none" stroke="black" cx="2167.87" cy="-882" rx="58.52" ry="18"/>
<text text-anchor="middle" x="2167.87" y="-876.95" font-family="Times New Roman,serif" font-size="14.00">IsKimHere()</text>
</g>
<!-- 11&#45;&gt;19 -->
<g id="edge13" class="edge">
<title>11&#45;&gt;19</title>
<path fill="none" stroke="black" d="M2167.87,-935.71C2167.87,-927.77 2167.87,-919.53 2167.87,-911.98"/>
<polygon fill="black" stroke="black" points="2171.37,-912.01 2167.87,-902.01 2164.37,-912.01 2171.37,-912.01"/>
</g>
<!-- 15 -->
<g id="node16" class="node">
<title>15</title>
<ellipse fill="none" stroke="black" cx="3511.87" cy="-594" rx="538.59" ry="18"/>
<text text-anchor="middle" x="3511.87" y="-588.95" font-family="Times New Roman,serif" font-size="14.00">Electrochemistry: 尽责的毒品使用。你的舌尖品尝到一股淡淡的苦味。这点量不够让一个成年男子怎么样。</text>
</g>
<!-- 12&#45;&gt;15 -->
<g id="edge14" class="edge">
<title>12&#45;&gt;15</title>
<path fill="none" stroke="black" d="M3306.89,-648.14C3345.11,-638.23 3393.69,-625.64 3433.95,-615.2"/>
<polygon fill="black" stroke="black" points="3434.81,-618.6 3443.61,-612.7 3433.05,-611.82 3434.81,-618.6"/>
</g>
<!-- 27 -->
<g id="node28" class="node">
<title>27</title>
<ellipse fill="none" stroke="black" cx="1551.87" cy="-234" rx="377.37" ry="18"/>
<text text-anchor="middle" x="1551.87" y="-228.95" font-family="Times New Roman,serif" font-size="14.00">Electrochemistry: 是啊，迅速，如闪电般的正义！更快……更强……更公正！</text>
</g>
<!-- 13&#45;&gt;27 -->
<g id="edge15" class="edge">
<title>13&#45;&gt;27</title>
<path fill="none" stroke="black" d="M1575.21,-287.7C1571.83,-280.07 1567.78,-270.92 1564.01,-262.4"/>
<polygon fill="black" stroke="black" points="1567.31,-261.21 1560.06,-253.49 1560.91,-264.05 1567.31,-261.21"/>
</g>
<!-- 16 -->
<g id="node17" class="node">
<title>16</title>
<ellipse fill="none" stroke="black" cx="2550.87" cy="-378" rx="286.78" ry="18"/>
<text text-anchor="middle" x="2550.87" y="-372.95" font-family="Times New Roman,serif" font-size="14.00">You: “有人拿走了这里的麻醉剂。也许警方应该介入？”</text>
</g>
<!-- 16&#45;&gt;10 -->
<g id="edge16" class="edge">
<title>16&#45;&gt;10</title>
<path fill="none" stroke="black" d="M2554.8,-359.59C2560.23,-335.5 2570.08,-291.75 2576.56,-263.03"/>
<polygon fill="black" stroke="black" points="2579.9,-264.11 2578.69,-253.59 2573.07,-262.57 2579.9,-264.11"/>
</g>
<!-- 17&#45;&gt;4 -->
<g id="edge17" class="edge">
<title>17&#45;&gt;4</title>
<path fill="none" stroke="black" d="M2642.5,-647.7C2637.32,-639.81 2631.07,-630.3 2625.32,-621.55"/>
<polygon fill="black" stroke="black" points="2628.36,-619.8 2619.95,-613.37 2622.51,-623.65 2628.36,-619.8"/>
</g>
<!-- 18 -->
<g id="node19" class="node">
<title>18</title>
<ellipse fill="none" stroke="black" cx="2115.87" cy="-738" rx="316.98" ry="18"/>
<text text-anchor="middle" x="2115.87" y="-732.95" font-family="Times New Roman,serif" font-size="14.00">Kim Kitsuragi: 警督并不是在研究镜子里的粉末。他在研究你。</text>
</g>
<!-- 24 -->
<g id="node25" class="node">
<title>24</title>
<ellipse fill="none" stroke="black" cx="2097.87" cy="-666" rx="459.77" ry="18"/>
<text text-anchor="middle" x="2097.87" y="-660.95" font-family="Times New Roman,serif" font-size="14.00">Rhetoric: 这种方法能够从侧面试探出他对使用毒品的态度。我是说，可以利用职业便利。</text>
</g>
<!-- 18&#45;&gt;24 -->
<g id="edge18" class="edge">
<title>18&#45;&gt;24</title>
<path fill="none" stroke="black" d="M2111.42,-719.7C2109.53,-712.32 2107.27,-703.52 2105.14,-695.25"/>
<polygon fill="black" stroke="black" points="2108.53,-694.38 2102.65,-685.57 2101.75,-696.13 2108.53,-694.38"/>
</g>
<!-- 20 -->
<g id="node21" class="node">
<title>20</title>
<polygon fill="none" stroke="black" points="2150.87,-828 2068.12,-810 2150.87,-792 2233.63,-810 2150.87,-828"/>
<text text-anchor="middle" x="2150.87" y="-804.95" font-family="Times New Roman,serif" font-size="14.00">IsKimHere()</text>
</g>
<!-- 19&#45;&gt;20 -->
<g id="edge19" class="edge">
<title>19&#45;&gt;20</title>
<path fill="none" stroke="black" d="M2163.67,-863.7C2161.83,-856.13 2159.63,-847.06 2157.58,-838.59"/>
<polygon fill="black" stroke="black" points="2161.03,-837.98 2155.27,-829.09 2154.23,-839.64 2161.03,-837.98"/>
</g>
<!-- 21 -->
<g id="node22" class="node">
<title>21</title>
<polygon fill="none" stroke="black" points="2438.87,-828 2343.09,-810 2438.87,-792 2534.66,-810 2438.87,-828"/>
<text text-anchor="middle" x="2438.87" y="-804.95" font-family="Times New Roman,serif" font-size="14.00">!(IsKimHere())</text>
</g>
<!-- 19&#45;&gt;21 -->
<g id="edge20" class="edge">
<title>19&#45;&gt;21</title>
<path fill="none" stroke="black" d="M2211.72,-869.68C2260.18,-857.16 2338.1,-837.03 2388.9,-823.91"/>
<polygon fill="black" stroke="black" points="2389.66,-827.33 2398.47,-821.44 2387.91,-820.55 2389.66,-827.33"/>
</g>
<!-- 20&#45;&gt;18 -->
<g id="edge21" class="edge">
<title>20&#45;&gt;18</title>
<path fill="none" stroke="black" d="M2143.11,-793.46C2139.17,-785.59 2134.27,-775.79 2129.71,-766.68"/>
<polygon fill="black" stroke="black" points="2132.88,-765.19 2125.28,-757.81 2126.62,-768.32 2132.88,-765.19"/>
</g>
<!-- 21&#45;&gt;3 -->
<g id="edge22" class="edge">
<title>21&#45;&gt;3</title>
<path fill="none" stroke="black" d="M2472.94,-797.91C2509.85,-785.89 2568.88,-766.67 2609.41,-753.48"/>
<polygon fill="black" stroke="black" points="2610.46,-756.82 2618.88,-750.39 2608.29,-750.16 2610.46,-756.82"/>
</g>
<!-- 23 -->
<g id="node24" class="node">
<title>23</title>
<ellipse fill="none" stroke="black" cx="2097.87" cy="-594" rx="98.95" ry="18"/>
<text text-anchor="middle" x="2097.87" y="-588.95" font-family="Times New Roman,serif" font-size="14.00">kim_full_of_perception</text>
</g>
<!-- 23&#45;&gt;6 -->
<g id="edge25" class="edge">
<title>23&#45;&gt;6</title>
<path fill="none" stroke="black" d="M2004.63,-587.67C1884.3,-579.89 1687.48,-563.7 1663.87,-540 1629.43,-505.42 1632.93,-443.82 1638.78,-407.67"/>
<polygon fill="black" stroke="black" points="1642.2,-408.41 1640.53,-397.95 1635.31,-407.17 1642.2,-408.41"/>
</g>
<!-- 23&#45;&gt;16 -->
<g id="edge23" class="edge">
<title>23&#45;&gt;16</title>
<path fill="none" stroke="black" d="M2180.06,-583.6C2305.03,-569.23 2528.79,-543.1 2531.87,-540 2566.31,-505.42 2562.82,-443.82 2556.97,-407.67"/>
<polygon fill="black" stroke="black" points="2560.44,-407.17 2555.22,-397.95 2553.55,-408.41 2560.44,-407.17"/>
</g>
<!-- 25 -->
<g id="node26" class="node">
<title>25</title>
<ellipse fill="none" stroke="black" cx="2097.87" cy="-522" rx="425.48" ry="18"/>
<text text-anchor="middle" x="2097.87" y="-516.95" font-family="Times New Roman,serif" font-size="14.00">You: “我听说安非他命能让你变成一个真正的好警探。所以，*你*是个好警探吗？”</text>
</g>
<!-- 23&#45;&gt;25 -->
<g id="edge24" class="edge">
<title>23&#45;&gt;25</title>
<path fill="none" stroke="black" d="M2097.87,-575.7C2097.87,-568.41 2097.87,-559.73 2097.87,-551.54"/>
<polygon fill="black" stroke="black" points="2101.37,-551.62 2097.87,-541.62 2094.37,-551.62 2101.37,-551.62"/>
</g>
<!-- 24&#45;&gt;23 -->
<g id="edge26" class="edge">
<title>24&#45;&gt;23</title>
<path fill="none" stroke="black" d="M2097.87,-647.7C2097.87,-640.41 2097.87,-631.73 2097.87,-623.54"/>
<polygon fill="black" stroke="black" points="2101.37,-623.62 2097.87,-613.62 2094.37,-623.62 2101.37,-623.62"/>
</g>
<!-- 26 -->
<g id="node27" class="node">
<title>26</title>
<ellipse fill="none" stroke="black" cx="2097.87" cy="-450" rx="263.75" ry="18"/>
<text text-anchor="middle" x="2097.87" y="-444.95" font-family="Times New Roman,serif" font-size="14.00">Kim Kitsuragi: “不，我只是个*普通*的警探。谢谢。”</text>
</g>
<!-- 25&#45;&gt;26 -->
<g id="edge27" class="edge">
<title>25&#45;&gt;26</title>
<path fill="none" stroke="black" d="M2097.87,-503.7C2097.87,-496.41 2097.87,-487.73 2097.87,-479.54"/>
<polygon fill="black" stroke="black" points="2101.37,-479.62 2097.87,-469.62 2094.37,-479.62 2101.37,-479.62"/>
</g>
<!-- 26&#45;&gt;6 -->
<g id="edge29" class="edge">
<title>26&#45;&gt;6</title>
<path fill="none" stroke="black" d="M1994.23,-432.98C1925.31,-422.33 1834.63,-408.32 1762.93,-397.24"/>
<polygon fill="black" stroke="black" points="1763.51,-393.79 1753.09,-395.72 1762.44,-400.71 1763.51,-393.79"/>
</g>
<!-- 26&#45;&gt;16 -->
<g id="edge28" class="edge">
<title>26&#45;&gt;16</title>
<path fill="none" stroke="black" d="M2201.52,-432.98C2271.2,-422.22 2363.13,-408.01 2435.19,-396.88"/>
<polygon fill="black" stroke="black" points="2435.28,-400.4 2444.63,-395.42 2434.21,-393.49 2435.28,-400.4"/>
</g>
<!-- 27&#45;&gt;7 -->
<g id="edge30" class="edge">
<title>27&#45;&gt;7</title>
<path fill="none" stroke="black" d="M1673.27,-216.5C1750.1,-206.06 1849.61,-192.53 1929.35,-181.69"/>
<polygon fill="black" stroke="black" points="1929.53,-185.2 1938.96,-180.39 1928.58,-178.26 1929.53,-185.2"/>
</g>
</g>
</svg>
