<?xml version="1.0" encoding="UTF-8" standalone="no"?>
<!DOCTYPE svg PUBLIC "-//W3C//DTD SVG 1.1//EN"
 "http://www.w3.org/Graphics/SVG/1.1/DTD/svg11.dtd">
<!-- Generated by graphviz version 12.2.1 (20241206.2353)
 -->
<!-- Title: G Pages: 1 -->
<svg width="4192pt" height="836pt"
 viewBox="0.00 0.00 4191.71 836.00" xmlns="http://www.w3.org/2000/svg" xmlns:xlink="http://www.w3.org/1999/xlink">
<g id="graph0" class="graph" transform="scale(1 1) rotate(0) translate(4 832)">
<title>G</title>
<polygon fill="white" stroke="none" points="-4,4 -4,-832 4187.71,-832 4187.71,4 -4,4"/>
<!-- 0 -->
<g id="node1" class="node">
<title>0</title>
<ellipse fill="none" stroke="black" cx="1553.19" cy="-810" rx="39.07" ry="18"/>
<text text-anchor="middle" x="1553.19" y="-804.95" font-family="Times New Roman,serif" font-size="14.00">START</text>
</g>
<!-- 1 -->
<g id="node2" class="node">
<title>1</title>
<ellipse fill="none" stroke="black" cx="1553.19" cy="-738" rx="29.86" ry="18"/>
<text text-anchor="middle" x="1553.19" y="-732.95" font-family="Times New Roman,serif" font-size="14.00">input</text>
</g>
<!-- 0&#45;&gt;1 -->
<g id="edge1" class="edge">
<title>0&#45;&gt;1</title>
<path fill="none" stroke="black" d="M1553.19,-791.7C1553.19,-784.41 1553.19,-775.73 1553.19,-767.54"/>
<polygon fill="black" stroke="black" points="1556.69,-767.62 1553.19,-757.62 1549.69,-767.62 1556.69,-767.62"/>
</g>
<!-- 26 -->
<g id="node27" class="node">
<title>26</title>
<ellipse fill="none" stroke="black" cx="1553.19" cy="-666" rx="482.29" ry="18"/>
<text text-anchor="middle" x="1553.19" y="-660.95" font-family="Times New Roman,serif" font-size="14.00">Reaction Speed: Is that an Insulindian phasmid? It looks like an Insulindian phasmid. Quick &#45;&#45; catch it before it scuttles away!</text>
</g>
<!-- 1&#45;&gt;26 -->
<g id="edge2" class="edge">
<title>1&#45;&gt;26</title>
<path fill="none" stroke="black" d="M1553.19,-719.7C1553.19,-712.41 1553.19,-703.73 1553.19,-695.54"/>
<polygon fill="black" stroke="black" points="1556.69,-695.62 1553.19,-685.62 1549.69,-695.62 1556.69,-695.62"/>
</g>
<!-- 2 -->
<g id="node3" class="node">
<title>2</title>
<ellipse fill="none" stroke="black" cx="395.19" cy="-90" rx="157.3" ry="18"/>
<text text-anchor="middle" x="395.19" y="-84.95" font-family="Times New Roman,serif" font-size="14.00">You: &quot;Uh, it&#39;s a novel fishing method.&quot;</text>
</g>
<!-- 21 -->
<g id="node22" class="node">
<title>21</title>
<ellipse fill="none" stroke="black" cx="261.19" cy="-18" rx="261.19" ry="18"/>
<text text-anchor="middle" x="261.19" y="-12.95" font-family="Times New Roman,serif" font-size="14.00">Evrart Claire: &quot;Perhaps we should try it out in the wild sometime.&quot;</text>
</g>
<!-- 2&#45;&gt;21 -->
<g id="edge3" class="edge">
<title>2&#45;&gt;21</title>
<path fill="none" stroke="black" d="M362.76,-72.05C345.24,-62.91 323.39,-51.49 304.44,-41.59"/>
<polygon fill="black" stroke="black" points="306.09,-38.5 295.6,-36.98 302.85,-44.71 306.09,-38.5"/>
</g>
<!-- 3 -->
<g id="node4" class="node">
<title>3</title>
<ellipse fill="none" stroke="black" cx="1554.19" cy="-378" rx="57.49" ry="18"/>
<text text-anchor="middle" x="1554.19" y="-372.95" font-family="Times New Roman,serif" font-size="14.00">Untitled hub</text>
</g>
<!-- 6 -->
<g id="node7" class="node">
<title>6</title>
<ellipse fill="none" stroke="black" cx="1418.19" cy="-306" rx="100.48" ry="18"/>
<text text-anchor="middle" x="1418.19" y="-300.95" font-family="Times New Roman,serif" font-size="14.00">You: &quot;Stop right there!&quot;</text>
</g>
<!-- 3&#45;&gt;6 -->
<g id="edge6" class="edge">
<title>3&#45;&gt;6</title>
<path fill="none" stroke="black" d="M1525.35,-362.15C1506.32,-352.36 1481.08,-339.37 1459.88,-328.46"/>
<polygon fill="black" stroke="black" points="1461.68,-325.45 1451.19,-323.98 1458.48,-331.67 1461.68,-325.45"/>
</g>
<!-- 7 -->
<g id="node8" class="node">
<title>7</title>
<ellipse fill="none" stroke="black" cx="930.19" cy="-306" rx="143.48" ry="18"/>
<text text-anchor="middle" x="930.19" y="-300.95" font-family="Times New Roman,serif" font-size="14.00">You: Pirouette toward the phasmid.</text>
</g>
<!-- 3&#45;&gt;7 -->
<g id="edge7" class="edge">
<title>3&#45;&gt;7</title>
<path fill="none" stroke="black" d="M1500.72,-371C1400.31,-359.74 1181.46,-335.19 1045.89,-319.98"/>
<polygon fill="black" stroke="black" points="1046.49,-316.52 1036.16,-318.89 1045.71,-323.48 1046.49,-316.52"/>
</g>
<!-- 10 -->
<g id="node11" class="node">
<title>10</title>
<ellipse fill="none" stroke="black" cx="2700.19" cy="-306" rx="367.65" ry="18"/>
<text text-anchor="middle" x="2700.19" y="-300.95" font-family="Times New Roman,serif" font-size="14.00">You: Wait a moment. Is that really the phasmid? You don&#39;t want to make a fool out of yourself.</text>
</g>
<!-- 3&#45;&gt;10 -->
<g id="edge5" class="edge">
<title>3&#45;&gt;10</title>
<path fill="none" stroke="black" d="M1610.24,-373.58C1762.94,-364.25 2193.01,-337.98 2465.05,-321.36"/>
<polygon fill="black" stroke="black" points="2464.99,-324.87 2474.75,-320.77 2464.56,-317.89 2464.99,-324.87"/>
</g>
<!-- 25 -->
<g id="node26" class="node">
<title>25</title>
<ellipse fill="none" stroke="black" cx="1945.19" cy="-306" rx="153.2" ry="18"/>
<text text-anchor="middle" x="1945.19" y="-300.95" font-family="Times New Roman,serif" font-size="14.00">You: Creep up to the phasmid quietly.</text>
</g>
<!-- 3&#45;&gt;25 -->
<g id="edge4" class="edge">
<title>3&#45;&gt;25</title>
<path fill="none" stroke="black" d="M1603.32,-368.21C1665.58,-357.06 1774.2,-337.61 1852.31,-323.63"/>
<polygon fill="black" stroke="black" points="1852.89,-327.08 1862.11,-321.87 1851.65,-320.19 1852.89,-327.08"/>
</g>
<!-- 4 -->
<g id="node5" class="node">
<title>4</title>
<ellipse fill="none" stroke="black" cx="2808.19" cy="-234" rx="248.91" ry="18"/>
<text text-anchor="middle" x="2808.19" y="-228.95" font-family="Times New Roman,serif" font-size="14.00">Fishing Rod: Definitely not a phasmid. Definitely a fishing rod.</text>
</g>
<!-- 11 -->
<g id="node12" class="node">
<title>11</title>
<ellipse fill="none" stroke="black" cx="2820.19" cy="-162" rx="386.07" ry="18"/>
<text text-anchor="middle" x="2820.19" y="-156.95" font-family="Times New Roman,serif" font-size="14.00">Evrart Claire: &quot;I see you&#39;re admiring my fishing gear. Are you by any chance a fisherman yourself?&quot;</text>
</g>
<!-- 4&#45;&gt;11 -->
<g id="edge8" class="edge">
<title>4&#45;&gt;11</title>
<path fill="none" stroke="black" d="M2811.16,-215.7C2812.42,-208.32 2813.93,-199.52 2815.35,-191.25"/>
<polygon fill="black" stroke="black" points="2818.76,-192.04 2817,-181.6 2811.87,-190.86 2818.76,-192.04"/>
</g>
<!-- 5 -->
<g id="node6" class="node">
<title>5</title>
<ellipse fill="none" stroke="black" cx="2559.19" cy="-90" rx="298.55" ry="18"/>
<text text-anchor="middle" x="2559.19" y="-84.95" font-family="Times New Roman,serif" font-size="14.00">You: &quot;Nah, I&#39;m just sizing you up. Studying your strengths and weaknesses.&quot;</text>
</g>
<!-- 12 -->
<g id="node13" class="node">
<title>12</title>
<ellipse fill="none" stroke="black" cx="2579.19" cy="-18" rx="260.68" ry="18"/>
<text text-anchor="middle" x="2579.19" y="-12.95" font-family="Times New Roman,serif" font-size="14.00">Evrart Claire: &quot;I doubt you&#39;ll learn anything from that fishing rod.&quot;</text>
</g>
<!-- 5&#45;&gt;12 -->
<g id="edge9" class="edge">
<title>5&#45;&gt;12</title>
<path fill="none" stroke="black" d="M2564.14,-71.7C2566.27,-64.24 2568.82,-55.32 2571.2,-46.97"/>
<polygon fill="black" stroke="black" points="2574.51,-48.14 2573.89,-37.56 2567.78,-46.21 2574.51,-48.14"/>
</g>
<!-- 20 -->
<g id="node21" class="node">
<title>20</title>
<ellipse fill="none" stroke="black" cx="1310.19" cy="-234" rx="363.04" ry="18"/>
<text text-anchor="middle" x="1310.19" y="-228.95" font-family="Times New Roman,serif" font-size="14.00">Fishing Rod: You shout at what you thought to be a phasmid, but turns out to be a fishing rod.</text>
</g>
<!-- 6&#45;&gt;20 -->
<g id="edge10" class="edge">
<title>6&#45;&gt;20</title>
<path fill="none" stroke="black" d="M1392.32,-288.23C1378.6,-279.34 1361.52,-268.27 1346.5,-258.53"/>
<polygon fill="black" stroke="black" points="1348.54,-255.69 1338.25,-253.18 1344.74,-261.56 1348.54,-255.69"/>
</g>
<!-- 28 -->
<g id="node28" class="node">
<title>28</title>
<ellipse fill="none" stroke="black" cx="595.19" cy="-234" rx="333.87" ry="18"/>
<text text-anchor="middle" x="595.19" y="-228.95" font-family="Times New Roman,serif" font-size="14.00">Fishing Rod: Beautiful leap! But this isn&#39;t a phasmid in your hand &#45;&#45; it is a fishing rod.</text>
</g>
<!-- 7&#45;&gt;28 -->
<g id="edge11" class="edge">
<title>7&#45;&gt;28</title>
<path fill="none" stroke="black" d="M858.33,-289.98C808.24,-279.52 740.98,-265.46 687.01,-254.19"/>
<polygon fill="black" stroke="black" points="688.04,-250.82 677.53,-252.21 686.61,-257.68 688.04,-250.82"/>
</g>
<!-- 8 -->
<g id="node9" class="node">
<title>8</title>
<ellipse fill="none" stroke="black" cx="921.19" cy="-90" rx="240.72" ry="18"/>
<text text-anchor="middle" x="921.19" y="-84.95" font-family="Times New Roman,serif" font-size="14.00">You: &quot;Sorry, I thought the fishing rod was... something else.&quot;</text>
</g>
<!-- 18 -->
<g id="node19" class="node">
<title>18</title>
<ellipse fill="none" stroke="black" cx="897.19" cy="-18" rx="356.39" ry="18"/>
<text text-anchor="middle" x="897.19" y="-12.95" font-family="Times New Roman,serif" font-size="14.00">Evrart Claire: His great belly ripples with laughter. &quot;A skinny, shy young girl? Never mind.&quot;</text>
</g>
<!-- 8&#45;&gt;18 -->
<g id="edge12" class="edge">
<title>8&#45;&gt;18</title>
<path fill="none" stroke="black" d="M915.26,-71.7C912.7,-64.24 909.65,-55.32 906.78,-46.97"/>
<polygon fill="black" stroke="black" points="910.1,-45.86 903.55,-37.54 903.48,-48.13 910.1,-45.86"/>
</g>
<!-- 9 -->
<g id="node10" class="node">
<title>9</title>
<ellipse fill="none" stroke="black" cx="1017.19" cy="-162" rx="233.04" ry="18"/>
<text text-anchor="middle" x="1017.19" y="-156.95" font-family="Times New Roman,serif" font-size="14.00">Evrart Claire: &quot;What are you trying to accomplish, Harry?&quot;</text>
</g>
<!-- 9&#45;&gt;2 -->
<g id="edge15" class="edge">
<title>9&#45;&gt;2</title>
<path fill="none" stroke="black" d="M889.07,-146.58C779.5,-134.25 622.96,-116.63 515.66,-104.56"/>
<polygon fill="black" stroke="black" points="516.29,-101.11 505.96,-103.47 515.51,-108.06 516.29,-101.11"/>
</g>
<!-- 9&#45;&gt;8 -->
<g id="edge13" class="edge">
<title>9&#45;&gt;8</title>
<path fill="none" stroke="black" d="M993.46,-143.7C981.58,-135.03 967,-124.4 954.06,-114.96"/>
<polygon fill="black" stroke="black" points="956.35,-112.3 946.21,-109.24 952.22,-117.96 956.35,-112.3"/>
</g>
<!-- 17 -->
<g id="node18" class="node">
<title>17</title>
<ellipse fill="none" stroke="black" cx="1606.19" cy="-90" rx="269.89" ry="18"/>
<text text-anchor="middle" x="1606.19" y="-84.95" font-family="Times New Roman,serif" font-size="14.00">You: &quot;I was just trying to surprise you. To throw you off, you know.&quot;</text>
</g>
<!-- 9&#45;&gt;17 -->
<g id="edge14" class="edge">
<title>9&#45;&gt;17</title>
<path fill="none" stroke="black" d="M1140.67,-146.33C1235.84,-135.02 1367.47,-119.37 1466.49,-107.6"/>
<polygon fill="black" stroke="black" points="1466.77,-111.09 1476.29,-106.44 1465.94,-104.14 1466.77,-111.09"/>
</g>
<!-- 10&#45;&gt;4 -->
<g id="edge16" class="edge">
<title>10&#45;&gt;4</title>
<path fill="none" stroke="black" d="M2726.89,-287.7C2740.52,-278.86 2757.3,-267.99 2772.07,-258.41"/>
<polygon fill="black" stroke="black" points="2773.67,-261.55 2780.16,-253.17 2769.86,-255.67 2773.67,-261.55"/>
</g>
<!-- 11&#45;&gt;5 -->
<g id="edge18" class="edge">
<title>11&#45;&gt;5</title>
<path fill="none" stroke="black" d="M2756.01,-143.79C2718.9,-133.83 2672.04,-121.27 2633.35,-110.89"/>
<polygon fill="black" stroke="black" points="2634.7,-107.63 2624.14,-108.42 2632.89,-114.39 2634.7,-107.63"/>
</g>
<!-- 19 -->
<g id="node20" class="node">
<title>19</title>
<ellipse fill="none" stroke="black" cx="3081.19" cy="-90" rx="205.92" ry="18"/>
<text text-anchor="middle" x="3081.19" y="-84.95" font-family="Times New Roman,serif" font-size="14.00">You: &quot;I think maybe I used to be the Fisher King...&quot;</text>
</g>
<!-- 11&#45;&gt;19 -->
<g id="edge17" class="edge">
<title>11&#45;&gt;19</title>
<path fill="none" stroke="black" d="M2884.37,-143.79C2921.96,-133.71 2969.54,-120.95 3008.5,-110.5"/>
<polygon fill="black" stroke="black" points="3009.29,-113.91 3018.05,-107.94 3007.48,-107.15 3009.29,-113.91"/>
</g>
<!-- 22 -->
<g id="node23" class="node">
<title>22</title>
<ellipse fill="none" stroke="black" cx="3612.19" cy="-90" rx="186.47" ry="18"/>
<text text-anchor="middle" x="3612.19" y="-84.95" font-family="Times New Roman,serif" font-size="14.00">You: &quot;Fisherman? Totally. It&#39;s all I do for fun.&quot;</text>
</g>
<!-- 11&#45;&gt;22 -->
<g id="edge19" class="edge">
<title>11&#45;&gt;22</title>
<path fill="none" stroke="black" d="M2994.98,-145.55C3136.51,-133.04 3333.56,-115.63 3466.62,-103.87"/>
<polygon fill="black" stroke="black" points="3466.93,-107.35 3476.58,-102.99 3466.31,-100.38 3466.93,-107.35"/>
</g>
<!-- 13 -->
<g id="node14" class="node">
<title>13</title>
<ellipse fill="none" stroke="black" cx="3061.19" cy="-18" rx="163.95" ry="18"/>
<text text-anchor="middle" x="3061.19" y="-12.95" font-family="Times New Roman,serif" font-size="14.00">Evrart Claire: &quot;Ha ha, maybe you were.&quot;</text>
</g>
<!-- 14 -->
<g id="node15" class="node">
<title>14</title>
<ellipse fill="none" stroke="black" cx="1553.19" cy="-594" rx="226.9" ry="18"/>
<text text-anchor="middle" x="1553.19" y="-588.95" font-family="Times New Roman,serif" font-size="14.00">Variable[&quot;village.orb_nethouse_tried_catching_phasmid&quot;]</text>
</g>
<!-- 15 -->
<g id="node16" class="node">
<title>15</title>
<polygon fill="none" stroke="black" points="1379.19,-540 1058.31,-522 1379.19,-504 1700.08,-522 1379.19,-540"/>
<text text-anchor="middle" x="1379.19" y="-516.95" font-family="Times New Roman,serif" font-size="14.00">Variable[&quot;village.orb_nethouse_tried_catching_phasmid&quot;]</text>
</g>
<!-- 14&#45;&gt;15 -->
<g id="edge21" class="edge">
<title>14&#45;&gt;15</title>
<path fill="none" stroke="black" d="M1510.63,-575.88C1485.51,-565.77 1453.65,-552.95 1427.58,-542.47"/>
<polygon fill="black" stroke="black" points="1429.16,-539.33 1418.58,-538.84 1426.55,-545.82 1429.16,-539.33"/>
</g>
<!-- 16 -->
<g id="node17" class="node">
<title>16</title>
<polygon fill="none" stroke="black" points="1864.19,-468 1530.28,-450 1864.19,-432 2198.11,-450 1864.19,-468"/>
<text text-anchor="middle" x="1864.19" y="-444.95" font-family="Times New Roman,serif" font-size="14.00">!(Variable[&quot;village.orb_nethouse_tried_catching_phasmid&quot;])</text>
</g>
<!-- 14&#45;&gt;16 -->
<g id="edge20" class="edge">
<title>14&#45;&gt;16</title>
<path fill="none" stroke="black" d="M1611.27,-576.22C1641.08,-566.87 1677.65,-554.25 1709.19,-540 1752.57,-520.4 1799.62,-492.33 1830.36,-472.98"/>
<polygon fill="black" stroke="black" points="1831.9,-476.15 1838.47,-467.84 1828.15,-470.24 1831.9,-476.15"/>
</g>
<!-- 24 -->
<g id="node25" class="node">
<title>24</title>
<ellipse fill="none" stroke="black" cx="1244.19" cy="-450" rx="268.36" ry="18"/>
<text text-anchor="middle" x="1244.19" y="-444.95" font-family="Times New Roman,serif" font-size="14.00">Inland Empire: It&#39;s gotta be the phasmid this time. Look &#45;&#45; it moved!</text>
</g>
<!-- 15&#45;&gt;24 -->
<g id="edge22" class="edge">
<title>15&#45;&gt;24</title>
<path fill="none" stroke="black" d="M1348.9,-505.29C1330.76,-495.89 1307.41,-483.78 1287.36,-473.38"/>
<polygon fill="black" stroke="black" points="1289.06,-470.32 1278.57,-468.82 1285.83,-476.53 1289.06,-470.32"/>
</g>
<!-- 16&#45;&gt;3 -->
<g id="edge23" class="edge">
<title>16&#45;&gt;3</title>
<path fill="none" stroke="black" d="M1801.83,-434.92C1746.04,-422.32 1664.95,-404.01 1610.94,-391.81"/>
<polygon fill="black" stroke="black" points="1611.85,-388.43 1601.33,-389.64 1610.31,-395.26 1611.85,-388.43"/>
</g>
<!-- 29 -->
<g id="node29" class="node">
<title>29</title>
<ellipse fill="none" stroke="black" cx="1786.19" cy="-18" rx="514.54" ry="18"/>
<text text-anchor="middle" x="1786.19" y="-12.95" font-family="Times New Roman,serif" font-size="14.00">Evrart Claire: &quot;Well, you certainly succeeded, Harry.&quot; He adjust himself in the chair. &quot;You are a very surprising police officer indeed.&quot;</text>
</g>
<!-- 17&#45;&gt;29 -->
<g id="edge24" class="edge">
<title>17&#45;&gt;29</title>
<path fill="none" stroke="black" d="M1650.23,-71.88C1674.65,-62.38 1705.25,-50.48 1731.23,-40.37"/>
<polygon fill="black" stroke="black" points="1732.22,-43.75 1740.27,-36.86 1729.68,-37.22 1732.22,-43.75"/>
</g>
<!-- 19&#45;&gt;13 -->
<g id="edge25" class="edge">
<title>19&#45;&gt;13</title>
<path fill="none" stroke="black" d="M3076.25,-71.7C3074.12,-64.24 3071.57,-55.32 3069.18,-46.97"/>
<polygon fill="black" stroke="black" points="3072.61,-46.21 3066.5,-37.56 3065.88,-48.14 3072.61,-46.21"/>
</g>
<!-- 20&#45;&gt;9 -->
<g id="edge26" class="edge">
<title>20&#45;&gt;9</title>
<path fill="none" stroke="black" d="M1238.52,-215.88C1195.96,-205.71 1141.88,-192.79 1097.83,-182.27"/>
<polygon fill="black" stroke="black" points="1098.88,-178.92 1088.34,-180 1097.25,-185.73 1098.88,-178.92"/>
</g>
<!-- 23 -->
<g id="node24" class="node">
<title>23</title>
<ellipse fill="none" stroke="black" cx="3713.19" cy="-18" rx="470.52" ry="18"/>
<text text-anchor="middle" x="3713.19" y="-12.95" font-family="Times New Roman,serif" font-size="14.00">Evrart Claire: &quot;I thought so, Harry, I thought so. We should go out together sometime. Bond like men of worth and value.&quot;</text>
</g>
<!-- 22&#45;&gt;23 -->
<g id="edge27" class="edge">
<title>22&#45;&gt;23</title>
<path fill="none" stroke="black" d="M3637.16,-71.7C3649.78,-62.95 3665.3,-52.19 3679.01,-42.69"/>
<polygon fill="black" stroke="black" points="3680.69,-45.78 3686.92,-37.21 3676.71,-40.03 3680.69,-45.78"/>
</g>
<!-- 24&#45;&gt;3 -->
<g id="edge28" class="edge">
<title>24&#45;&gt;3</title>
<path fill="none" stroke="black" d="M1318.45,-432.23C1373.4,-419.82 1447.14,-403.17 1497.42,-391.82"/>
<polygon fill="black" stroke="black" points="1497.95,-395.29 1506.94,-389.67 1496.41,-388.46 1497.95,-395.29"/>
</g>
<!-- 30 -->
<g id="node30" class="node">
<title>30</title>
<ellipse fill="none" stroke="black" cx="2092.19" cy="-234" rx="401.43" ry="18"/>
<text text-anchor="middle" x="2092.19" y="-228.95" font-family="Times New Roman,serif" font-size="14.00">Fishing Rod: You&#39;re a master of stealth. But look what you&#39;ve caught &#45;&#45; not a phasmid, but a fishing rod!</text>
</g>
<!-- 25&#45;&gt;30 -->
<g id="edge29" class="edge">
<title>25&#45;&gt;30</title>
<path fill="none" stroke="black" d="M1980.78,-288.05C2000.19,-278.81 2024.45,-267.26 2045.38,-257.29"/>
<polygon fill="black" stroke="black" points="2046.77,-260.51 2054.29,-253.05 2043.76,-254.19 2046.77,-260.51"/>
</g>
<!-- 26&#45;&gt;14 -->
<g id="edge30" class="edge">
<title>26&#45;&gt;14</title>
<path fill="none" stroke="black" d="M1553.19,-647.7C1553.19,-640.41 1553.19,-631.73 1553.19,-623.54"/>
<polygon fill="black" stroke="black" points="1556.69,-623.62 1553.19,-613.62 1549.69,-623.62 1556.69,-623.62"/>
</g>
<!-- 28&#45;&gt;9 -->
<g id="edge31" class="edge">
<title>28&#45;&gt;9</title>
<path fill="none" stroke="black" d="M695.47,-216.37C760.22,-205.63 844.38,-191.67 910.38,-180.72"/>
<polygon fill="black" stroke="black" points="910.86,-184.19 920.16,-179.1 909.72,-177.28 910.86,-184.19"/>
</g>
<!-- 30&#45;&gt;9 -->
<g id="edge32" class="edge">
<title>30&#45;&gt;9</title>
<path fill="none" stroke="black" d="M1870.76,-218.58C1673.34,-205.73 1387.71,-187.13 1202.23,-175.05"/>
<polygon fill="black" stroke="black" points="1202.7,-171.57 1192.5,-174.42 1202.25,-178.56 1202.7,-171.57"/>
</g>
</g>
</svg>
