<?xml version="1.0" encoding="UTF-8" standalone="no"?>
<!DOCTYPE svg PUBLIC "-//W3C//DTD SVG 1.1//EN"
 "http://www.w3.org/Graphics/SVG/1.1/DTD/svg11.dtd">
<!-- Generated by graphviz version 12.2.1 (20241206.2353)
 -->
<!-- Title: G Pages: 1 -->
<svg width="4057pt" height="1196pt"
 viewBox="0.00 0.00 4056.60 1196.00" xmlns="http://www.w3.org/2000/svg" xmlns:xlink="http://www.w3.org/1999/xlink">
<g id="graph0" class="graph" transform="scale(1 1) rotate(0) translate(4 1192)">
<title>G</title>
<polygon fill="white" stroke="none" points="-4,4 -4,-1192 4052.6,-1192 4052.6,4 -4,4"/>
<!-- 0 -->
<g id="node1" class="node">
<title>0</title>
<ellipse fill="none" stroke="black" cx="187.8" cy="-1170" rx="39.07" ry="18"/>
<text text-anchor="middle" x="187.8" y="-1164.95" font-family="Times New Roman,serif" font-size="14.00">START</text>
</g>
<!-- 0&#45;&gt;0 -->
<g id="edge1" class="edge">
<title>0&#45;&gt;0</title>
<path fill="none" stroke="black" d="M215.99,-1182.94C231.1,-1185.14 244.87,-1180.83 244.87,-1170 244.87,-1161.96 237.29,-1157.52 227.2,-1156.65"/>
<polygon fill="black" stroke="black" points="227.37,-1153.15 217.5,-1157 227.62,-1160.14 227.37,-1153.15"/>
</g>
<!-- 1 -->
<g id="node2" class="node">
<title>1</title>
<ellipse fill="none" stroke="black" cx="292.8" cy="-1170" rx="29.86" ry="18"/>
<text text-anchor="middle" x="292.8" y="-1164.95" font-family="Times New Roman,serif" font-size="14.00">input</text>
</g>
<!-- 31 -->
<g id="node32" class="node">
<title>31</title>
<ellipse fill="none" stroke="black" cx="379.8" cy="-1098" rx="145.52" ry="18"/>
<text text-anchor="middle" x="379.8" y="-1092.95" font-family="Times New Roman,serif" font-size="14.00">Variable[&quot;cargo.evrart_evrart_met&quot;]</text>
</g>
<!-- 1&#45;&gt;31 -->
<g id="edge2" class="edge">
<title>1&#45;&gt;31</title>
<path fill="none" stroke="black" d="M309.99,-1155.17C321.26,-1146.11 336.29,-1134.01 349.53,-1123.36"/>
<polygon fill="black" stroke="black" points="351.56,-1126.22 357.15,-1117.22 347.17,-1120.77 351.56,-1126.22"/>
</g>
<!-- 2 -->
<g id="node3" class="node">
<title>2</title>
<ellipse fill="none" stroke="black" cx="1180.8" cy="-954" rx="228.95" ry="18"/>
<text text-anchor="middle" x="1180.8" y="-948.95" font-family="Times New Roman,serif" font-size="14.00">Rhetoric: Yes, *of course*. Now we&#39;re on the right track...</text>
</g>
<!-- 5 -->
<g id="node6" class="node">
<title>5</title>
<ellipse fill="none" stroke="black" cx="914.8" cy="-882" rx="437.25" ry="18"/>
<text text-anchor="middle" x="914.8" y="-876.95" font-family="Times New Roman,serif" font-size="14.00">Evrart Claire: Meanwhile, the man of stature clatters away on his typewriter, wilfully indifferent to your presence.</text>
</g>
<!-- 2&#45;&gt;5 -->
<g id="edge3" class="edge">
<title>2&#45;&gt;5</title>
<path fill="none" stroke="black" d="M1117.09,-936.23C1079.3,-926.29 1031.15,-913.62 991.31,-903.13"/>
<polygon fill="black" stroke="black" points="992.33,-899.78 981.77,-900.62 990.55,-906.55 992.33,-899.78"/>
</g>
<!-- 3 -->
<g id="node4" class="node">
<title>3</title>
<ellipse fill="none" stroke="black" cx="2236.8" cy="-738" rx="56.98" ry="18"/>
<text text-anchor="middle" x="2236.8" y="-732.95" font-family="Times New Roman,serif" font-size="14.00">You: Inhale.</text>
</g>
<!-- 26 -->
<g id="node27" class="node">
<title>26</title>
<ellipse fill="none" stroke="black" cx="2264.8" cy="-666" rx="104.07" ry="18"/>
<text text-anchor="middle" x="2264.8" y="-660.95" font-family="Times New Roman,serif" font-size="14.00">Rhetoric: It smells like...</text>
</g>
<!-- 3&#45;&gt;26 -->
<g id="edge4" class="edge">
<title>3&#45;&gt;26</title>
<path fill="none" stroke="black" d="M2243.72,-719.7C2246.74,-712.15 2250.35,-703.12 2253.73,-694.68"/>
<polygon fill="black" stroke="black" points="2256.93,-696.09 2257.4,-685.51 2250.43,-693.49 2256.93,-696.09"/>
</g>
<!-- 4 -->
<g id="node5" class="node">
<title>4</title>
<ellipse fill="none" stroke="black" cx="3337.8" cy="-1170" rx="517.61" ry="18"/>
<text text-anchor="middle" x="3337.8" y="-1164.95" font-family="Times New Roman,serif" font-size="14.00">Rhetoric: But you can&#39;t just come out and *ask* him. You should make your introduction first. Pay homage. This is a man of *stature*.</text>
</g>
<!-- 4&#45;&gt;4 -->
<g id="edge5" class="edge">
<title>4&#45;&gt;4</title>
<path fill="none" stroke="black" d="M3693.52,-1183.45C3795.12,-1182.91 3873.41,-1178.43 3873.41,-1170 3873.41,-1161.89 3800.97,-1157.44 3705.02,-1156.63"/>
<polygon fill="black" stroke="black" points="3705.06,-1153.13 3695.03,-1156.56 3705.01,-1160.13 3705.06,-1153.13"/>
</g>
<!-- 6 -->
<g id="node7" class="node">
<title>6</title>
<ellipse fill="none" stroke="black" cx="1180.8" cy="-1026" rx="57.49" ry="18"/>
<text text-anchor="middle" x="1180.8" y="-1020.95" font-family="Times New Roman,serif" font-size="14.00">Untitled hub</text>
</g>
<!-- 6&#45;&gt;2 -->
<g id="edge6" class="edge">
<title>6&#45;&gt;2</title>
<path fill="none" stroke="black" d="M1180.8,-1007.7C1180.8,-1000.41 1180.8,-991.73 1180.8,-983.54"/>
<polygon fill="black" stroke="black" points="1184.3,-983.62 1180.8,-973.62 1177.3,-983.62 1184.3,-983.62"/>
</g>
<!-- 6&#45;&gt;6 -->
<g id="edge7" class="edge">
<title>6&#45;&gt;6</title>
<path fill="none" stroke="black" d="M1221.19,-1039.23C1239.93,-1040.68 1256.3,-1036.27 1256.3,-1026 1256.3,-1017.9 1246.1,-1013.44 1232.6,-1012.63"/>
<polygon fill="black" stroke="black" points="1232.66,-1009.13 1222.7,-1012.75 1232.74,-1016.13 1232.66,-1009.13"/>
</g>
<!-- 7 -->
<g id="node8" class="node">
<title>7</title>
<ellipse fill="none" stroke="black" cx="2068.8" cy="-882" rx="80.01" ry="18"/>
<text text-anchor="middle" x="2068.8" y="-876.95" font-family="Times New Roman,serif" font-size="14.00">You: Where am I?</text>
</g>
<!-- 16 -->
<g id="node17" class="node">
<title>16</title>
<ellipse fill="none" stroke="black" cx="2180.8" cy="-810" rx="545.25" ry="18"/>
<text text-anchor="middle" x="2180.8" y="-804.95" font-family="Times New Roman,serif" font-size="14.00">Rhetoric: An important place. One of the last bastions of the left in Martinaise. Perhaps here you&#39;ll find the man who&#39;ll help you get organised?</text>
</g>
<!-- 7&#45;&gt;16 -->
<g id="edge8" class="edge">
<title>7&#45;&gt;16</title>
<path fill="none" stroke="black" d="M2095.06,-864.59C2109.52,-855.55 2127.7,-844.19 2143.6,-834.25"/>
<polygon fill="black" stroke="black" points="2145.24,-837.36 2151.86,-829.09 2141.53,-831.42 2145.24,-837.36"/>
</g>
<!-- 8 -->
<g id="node9" class="node">
<title>8</title>
<ellipse fill="none" stroke="black" cx="2278.8" cy="-594" rx="337.96" ry="18"/>
<text text-anchor="middle" x="2278.8" y="-588.95" font-family="Times New Roman,serif" font-size="14.00">Kim Kitsuragi: &quot;Well? Smelling much *communism* around the Union boss&#39;s office?&quot;</text>
</g>
<!-- 9 -->
<g id="node10" class="node">
<title>9</title>
<ellipse fill="none" stroke="black" cx="2278.8" cy="-522" rx="895.83" ry="18"/>
<text text-anchor="middle" x="2278.8" y="-516.95" font-family="Times New Roman,serif" font-size="14.00">Perception (Smell): We&#39;re getting crates and pallets calling to mind vast stands of winter pines, a swirl of ancient odours absorbed by heavy carpet fibres, but also a pervasive, treacly *sweetness* that somehow reminds you of kola nuts...</text>
</g>
<!-- 8&#45;&gt;9 -->
<g id="edge9" class="edge">
<title>8&#45;&gt;9</title>
<path fill="none" stroke="black" d="M2278.8,-575.7C2278.8,-568.41 2278.8,-559.73 2278.8,-551.54"/>
<polygon fill="black" stroke="black" points="2282.3,-551.62 2278.8,-541.62 2275.3,-551.62 2282.3,-551.62"/>
</g>
<!-- 22 -->
<g id="node23" class="node">
<title>22</title>
<ellipse fill="none" stroke="black" cx="3206.8" cy="-450" rx="137.34" ry="18"/>
<text text-anchor="middle" x="3206.8" y="-444.95" font-family="Times New Roman,serif" font-size="14.00">You: &quot;Hush, Kim, I&#39;m detecting.&quot;</text>
</g>
<!-- 8&#45;&gt;22 -->
<g id="edge10" class="edge">
<title>8&#45;&gt;22</title>
<path fill="none" stroke="black" d="M2615.6,-592.21C2854.27,-588.47 3139.66,-576.3 3183.8,-540 3201.34,-525.58 3206.49,-499.7 3207.6,-479.55"/>
<polygon fill="black" stroke="black" points="3211.1,-479.77 3207.82,-469.7 3204.1,-479.62 3211.1,-479.77"/>
</g>
<!-- 19 -->
<g id="node20" class="node">
<title>19</title>
<ellipse fill="none" stroke="black" cx="2278.8" cy="-450" rx="163.44" ry="18"/>
<text text-anchor="middle" x="2278.8" y="-444.95" font-family="Times New Roman,serif" font-size="14.00">Variable[&quot;cargo.orb_perc_communism&quot;]</text>
</g>
<!-- 9&#45;&gt;19 -->
<g id="edge11" class="edge">
<title>9&#45;&gt;19</title>
<path fill="none" stroke="black" d="M2278.8,-503.7C2278.8,-496.41 2278.8,-487.73 2278.8,-479.54"/>
<polygon fill="black" stroke="black" points="2282.3,-479.62 2278.8,-469.62 2275.3,-479.62 2282.3,-479.62"/>
</g>
<!-- 10 -->
<g id="node11" class="node">
<title>10</title>
<ellipse fill="none" stroke="black" cx="2861.8" cy="-234" rx="71.82" ry="18"/>
<text text-anchor="middle" x="2861.8" y="-228.95" font-family="Times New Roman,serif" font-size="14.00">You: &quot;Hmmm.&quot;</text>
</g>
<!-- 23 -->
<g id="node24" class="node">
<title>23</title>
<ellipse fill="none" stroke="black" cx="3138.8" cy="-162" rx="145.52" ry="18"/>
<text text-anchor="middle" x="3138.8" y="-156.95" font-family="Times New Roman,serif" font-size="14.00">Variable[&quot;cargo.evrart_evrart_met&quot;]</text>
</g>
<!-- 10&#45;&gt;23 -->
<g id="edge12" class="edge">
<title>10&#45;&gt;23</title>
<path fill="none" stroke="black" d="M2911.01,-220.57C2953.91,-209.72 3016.76,-193.84 3065.57,-181.51"/>
<polygon fill="black" stroke="black" points="3066.41,-184.91 3075.24,-179.06 3064.69,-178.12 3066.41,-184.91"/>
</g>
<!-- 11 -->
<g id="node12" class="node">
<title>11</title>
<ellipse fill="none" stroke="black" cx="2725.8" cy="-1170" rx="58.52" ry="18"/>
<text text-anchor="middle" x="2725.8" y="-1164.95" font-family="Times New Roman,serif" font-size="14.00">IsKimHere()</text>
</g>
<!-- 11&#45;&gt;11 -->
<g id="edge13" class="edge">
<title>11&#45;&gt;11</title>
<path fill="none" stroke="black" d="M2766.74,-1183.23C2785.73,-1184.68 2802.32,-1180.27 2802.32,-1170 2802.32,-1161.82 2791.78,-1157.36 2777.89,-1156.61"/>
<polygon fill="black" stroke="black" points="2778.2,-1153.11 2768.25,-1156.75 2778.3,-1160.11 2778.2,-1153.11"/>
</g>
<!-- 12 -->
<g id="node13" class="node">
<title>12</title>
<polygon fill="none" stroke="black" points="2725.8,-1116 2643.05,-1098 2725.8,-1080 2808.56,-1098 2725.8,-1116"/>
<text text-anchor="middle" x="2725.8" y="-1092.95" font-family="Times New Roman,serif" font-size="14.00">IsKimHere()</text>
</g>
<!-- 11&#45;&gt;12 -->
<g id="edge14" class="edge">
<title>11&#45;&gt;12</title>
<path fill="none" stroke="black" d="M2725.8,-1151.7C2725.8,-1144.41 2725.8,-1135.73 2725.8,-1127.54"/>
<polygon fill="black" stroke="black" points="2729.3,-1127.62 2725.8,-1117.62 2722.3,-1127.62 2729.3,-1127.62"/>
</g>
<!-- 27 -->
<g id="node28" class="node">
<title>27</title>
<ellipse fill="none" stroke="black" cx="2725.8" cy="-1026" rx="453.63" ry="18"/>
<text text-anchor="middle" x="2725.8" y="-1020.95" font-family="Times New Roman,serif" font-size="14.00">Variable[&quot;gates.manana_communist_quest_smelled_kim&quot;] &#160;or &#160;Variable[&quot;pier.cindy_communist_quest_smelled_kim&quot;]</text>
</g>
<!-- 12&#45;&gt;27 -->
<g id="edge15" class="edge">
<title>12&#45;&gt;27</title>
<path fill="none" stroke="black" d="M2725.8,-1079.7C2725.8,-1072.41 2725.8,-1063.73 2725.8,-1055.54"/>
<polygon fill="black" stroke="black" points="2729.3,-1055.62 2725.8,-1045.62 2722.3,-1055.62 2729.3,-1055.62"/>
</g>
<!-- 13 -->
<g id="node14" class="node">
<title>13</title>
<polygon fill="none" stroke="black" points="2675.8,-252 2580.02,-234 2675.8,-216 2771.59,-234 2675.8,-252"/>
<text text-anchor="middle" x="2675.8" y="-228.95" font-family="Times New Roman,serif" font-size="14.00">!(IsKimHere())</text>
</g>
<!-- 13&#45;&gt;23 -->
<g id="edge16" class="edge">
<title>13&#45;&gt;23</title>
<path fill="none" stroke="black" d="M2725.19,-224.86C2742.74,-222.01 2762.64,-218.81 2780.8,-216 2866.55,-202.71 2963.98,-188.33 3035.52,-177.91"/>
<polygon fill="black" stroke="black" points="3035.89,-181.4 3045.28,-176.49 3034.88,-174.47 3035.89,-181.4"/>
</g>
<!-- 14 -->
<g id="node15" class="node">
<title>14</title>
<ellipse fill="none" stroke="black" cx="3380.8" cy="-810" rx="247.89" ry="18"/>
<text text-anchor="middle" x="3380.8" y="-804.95" font-family="Times New Roman,serif" font-size="14.00">Kim Kitsuragi: The lieutenant gives you a sharp sideways look.</text>
</g>
<!-- 14&#45;&gt;23 -->
<g id="edge17" class="edge">
<title>14&#45;&gt;23</title>
<path fill="none" stroke="black" d="M3380.4,-791.51C3379.81,-764.71 3378.8,-711.87 3378.8,-667 3378.8,-667 3378.8,-667 3378.8,-305 3378.8,-234.26 3300.62,-198.01 3233.5,-179.93"/>
<polygon fill="black" stroke="black" points="3234.43,-176.55 3223.87,-177.45 3232.68,-183.33 3234.43,-176.55"/>
</g>
<!-- 15 -->
<g id="node16" class="node">
<title>15</title>
<ellipse fill="none" stroke="black" cx="648.8" cy="-954" rx="284.74" ry="18"/>
<text text-anchor="middle" x="648.8" y="-948.95" font-family="Times New Roman,serif" font-size="14.00">Rhetoric: Now *this* place seems promising from an ideological angle...</text>
</g>
<!-- 15&#45;&gt;5 -->
<g id="edge18" class="edge">
<title>15&#45;&gt;5</title>
<path fill="none" stroke="black" d="M713.19,-936.05C750.86,-926.14 798.63,-913.57 838.22,-903.15"/>
<polygon fill="black" stroke="black" points="838.91,-906.59 847.69,-900.66 837.13,-899.82 838.91,-906.59"/>
</g>
<!-- 16&#45;&gt;3 -->
<g id="edge19" class="edge">
<title>16&#45;&gt;3</title>
<path fill="none" stroke="black" d="M2194.64,-791.7C2201.18,-783.52 2209.12,-773.6 2216.34,-764.58"/>
<polygon fill="black" stroke="black" points="2219.04,-766.8 2222.56,-756.8 2213.58,-762.43 2219.04,-766.8"/>
</g>
<!-- 17 -->
<g id="node18" class="node">
<title>17</title>
<ellipse fill="none" stroke="black" cx="2723.8" cy="-306" rx="526.31" ry="18"/>
<text text-anchor="middle" x="2723.8" y="-300.95" font-family="Times New Roman,serif" font-size="14.00">Perception (Smell): ... an office? Something officious? Is that a word? There&#39;s a bit of dust in the air that may be triggering your allergies.</text>
</g>
<!-- 17&#45;&gt;10 -->
<g id="edge20" class="edge">
<title>17&#45;&gt;10</title>
<path fill="none" stroke="black" d="M2757.91,-287.7C2776.95,-278.04 2800.78,-265.95 2820.82,-255.79"/>
<polygon fill="black" stroke="black" points="2822.22,-259 2829.56,-251.36 2819.06,-252.76 2822.22,-259"/>
</g>
<!-- 18 -->
<g id="node19" class="node">
<title>18</title>
<ellipse fill="none" stroke="black" cx="2690.8" cy="-18" rx="417.81" ry="18"/>
<text text-anchor="middle" x="2690.8" y="-12.95" font-family="Times New Roman,serif" font-size="14.00">Evrart Claire: Meanwhile, Evrart Claire clatters away on his typewriter, wilfully indifferent to your presence.</text>
</g>
<!-- 20 -->
<g id="node21" class="node">
<title>20</title>
<polygon fill="none" stroke="black" points="1933.8,-396 1702.67,-378 1933.8,-360 2164.94,-378 1933.8,-396"/>
<text text-anchor="middle" x="1933.8" y="-372.95" font-family="Times New Roman,serif" font-size="14.00">Variable[&quot;cargo.orb_perc_communism&quot;]</text>
</g>
<!-- 19&#45;&gt;20 -->
<g id="edge21" class="edge">
<title>19&#45;&gt;20</title>
<path fill="none" stroke="black" d="M2203.09,-433.64C2144.89,-421.83 2064.95,-405.61 2007.3,-393.91"/>
<polygon fill="black" stroke="black" points="2008.06,-390.5 1997.57,-391.94 2006.67,-397.36 2008.06,-390.5"/>
</g>
<!-- 21 -->
<g id="node22" class="node">
<title>21</title>
<polygon fill="none" stroke="black" points="2525.8,-396 2281.64,-378 2525.8,-360 2769.97,-378 2525.8,-396"/>
<text text-anchor="middle" x="2525.8" y="-372.95" font-family="Times New Roman,serif" font-size="14.00">!(Variable[&quot;cargo.orb_perc_communism&quot;])</text>
</g>
<!-- 19&#45;&gt;21 -->
<g id="edge22" class="edge">
<title>19&#45;&gt;21</title>
<path fill="none" stroke="black" d="M2336.09,-432.76C2375.09,-421.71 2426.59,-407.12 2466.09,-395.92"/>
<polygon fill="black" stroke="black" points="2467.03,-399.29 2475.69,-393.2 2465.12,-392.56 2467.03,-399.29"/>
</g>
<!-- 34 -->
<g id="node35" class="node">
<title>34</title>
<ellipse fill="none" stroke="black" cx="1834.8" cy="-306" rx="344.62" ry="18"/>
<text text-anchor="middle" x="1834.8" y="-300.95" font-family="Times New Roman,serif" font-size="14.00">Perception (Smell): The whole place could probably use a good deep cleaning, you think.</text>
</g>
<!-- 20&#45;&gt;34 -->
<g id="edge23" class="edge">
<title>20&#45;&gt;34</title>
<path fill="none" stroke="black" d="M1911.83,-361.46C1899.03,-352.41 1882.62,-340.81 1868.24,-330.64"/>
<polygon fill="black" stroke="black" points="1870.56,-328 1860.38,-325.08 1866.52,-333.72 1870.56,-328"/>
</g>
<!-- 21&#45;&gt;17 -->
<g id="edge24" class="edge">
<title>21&#45;&gt;17</title>
<path fill="none" stroke="black" d="M2566.35,-362.67C2594.5,-352.71 2632.49,-339.28 2664.1,-328.11"/>
<polygon fill="black" stroke="black" points="2664.86,-331.55 2673.12,-324.92 2662.53,-324.95 2664.86,-331.55"/>
</g>
<!-- 22&#45;&gt;23 -->
<g id="edge25" class="edge">
<title>22&#45;&gt;23</title>
<path fill="none" stroke="black" d="M3220.22,-431.8C3241.71,-402.04 3279.41,-339.23 3258.8,-288 3241.68,-245.44 3202.38,-209.23 3173.39,-186.91"/>
<polygon fill="black" stroke="black" points="3175.7,-184.26 3165.6,-181.06 3171.5,-189.86 3175.7,-184.26"/>
</g>
<!-- 24 -->
<g id="node25" class="node">
<title>24</title>
<polygon fill="none" stroke="black" points="2917.8,-108 2712,-90 2917.8,-72 3123.6,-90 2917.8,-108"/>
<text text-anchor="middle" x="2917.8" y="-84.95" font-family="Times New Roman,serif" font-size="14.00">Variable[&quot;cargo.evrart_evrart_met&quot;]</text>
</g>
<!-- 23&#45;&gt;24 -->
<g id="edge26" class="edge">
<title>23&#45;&gt;24</title>
<path fill="none" stroke="black" d="M3087.54,-144.76C3052.76,-133.75 3006.86,-119.21 2971.56,-108.03"/>
<polygon fill="black" stroke="black" points="2973,-104.81 2962.41,-105.13 2970.89,-111.49 2973,-104.81"/>
</g>
<!-- 25 -->
<g id="node26" class="node">
<title>25</title>
<polygon fill="none" stroke="black" points="3473.8,-108 3254.97,-90 3473.8,-72 3692.63,-90 3473.8,-108"/>
<text text-anchor="middle" x="3473.8" y="-84.95" font-family="Times New Roman,serif" font-size="14.00">!(Variable[&quot;cargo.evrart_evrart_met&quot;])</text>
</g>
<!-- 23&#45;&gt;25 -->
<g id="edge27" class="edge">
<title>23&#45;&gt;25</title>
<path fill="none" stroke="black" d="M3210.67,-145.98C3267.44,-134.12 3346.26,-117.65 3402.81,-105.83"/>
<polygon fill="black" stroke="black" points="3403.26,-109.32 3412.33,-103.85 3401.82,-102.46 3403.26,-109.32"/>
</g>
<!-- 24&#45;&gt;18 -->
<g id="edge28" class="edge">
<title>24&#45;&gt;18</title>
<path fill="none" stroke="black" d="M2873.77,-75.42C2840.79,-65.25 2795.11,-51.16 2757.64,-39.61"/>
<polygon fill="black" stroke="black" points="2758.84,-36.32 2748.25,-36.71 2756.77,-43.01 2758.84,-36.32"/>
</g>
<!-- 30 -->
<g id="node31" class="node">
<title>30</title>
<ellipse fill="none" stroke="black" cx="3587.8" cy="-18" rx="460.8" ry="18"/>
<text text-anchor="middle" x="3587.8" y="-12.95" font-family="Times New Roman,serif" font-size="14.00">Evrart Claire: Meanwhile, the man behind the desk clatters away on his typewriter, wilfully indifferent to your presence.</text>
</g>
<!-- 25&#45;&gt;30 -->
<g id="edge29" class="edge">
<title>25&#45;&gt;30</title>
<path fill="none" stroke="black" d="M3498.82,-73.64C3513.83,-64.42 3533.22,-52.51 3550.07,-42.17"/>
<polygon fill="black" stroke="black" points="3551.66,-45.3 3558.35,-37.09 3547.99,-39.34 3551.66,-45.3"/>
</g>
<!-- 26&#45;&gt;8 -->
<g id="edge30" class="edge">
<title>26&#45;&gt;8</title>
<path fill="none" stroke="black" d="M2268.26,-647.7C2269.74,-640.32 2271.5,-631.52 2273.15,-623.25"/>
<polygon fill="black" stroke="black" points="2276.56,-624.08 2275.08,-613.59 2269.69,-622.71 2276.56,-624.08"/>
</g>
<!-- 28 -->
<g id="node29" class="node">
<title>28</title>
<polygon fill="none" stroke="black" points="2068.8,-972 1427.27,-954 2068.8,-936 2710.34,-954 2068.8,-972"/>
<text text-anchor="middle" x="2068.8" y="-948.95" font-family="Times New Roman,serif" font-size="14.00">Variable[&quot;gates.manana_communist_quest_smelled_kim&quot;] &#160;or &#160;Variable[&quot;pier.cindy_communist_quest_smelled_kim&quot;]</text>
</g>
<!-- 27&#45;&gt;28 -->
<g id="edge31" class="edge">
<title>27&#45;&gt;28</title>
<path fill="none" stroke="black" d="M2572.18,-1008.63C2462.67,-996.96 2316.55,-981.4 2209.97,-970.04"/>
<polygon fill="black" stroke="black" points="2210.62,-966.59 2200.31,-969.01 2209.88,-973.55 2210.62,-966.59"/>
</g>
<!-- 29 -->
<g id="node30" class="node">
<title>29</title>
<polygon fill="none" stroke="black" points="3382.8,-972 2728.24,-954 3382.8,-936 4037.36,-954 3382.8,-972"/>
<text text-anchor="middle" x="3382.8" y="-948.95" font-family="Times New Roman,serif" font-size="14.00">!(Variable[&quot;gates.manana_communist_quest_smelled_kim&quot;] &#160;or &#160;Variable[&quot;pier.cindy_communist_quest_smelled_kim&quot;])</text>
</g>
<!-- 27&#45;&gt;29 -->
<g id="edge32" class="edge">
<title>27&#45;&gt;29</title>
<path fill="none" stroke="black" d="M2879.42,-1008.63C2988.75,-996.98 3134.56,-981.45 3241.1,-970.1"/>
<polygon fill="black" stroke="black" points="3241.19,-973.61 3250.76,-969.07 3240.44,-966.65 3241.19,-973.61"/>
</g>
<!-- 28&#45;&gt;7 -->
<g id="edge33" class="edge">
<title>28&#45;&gt;7</title>
<path fill="none" stroke="black" d="M2068.8,-935.7C2068.8,-928.41 2068.8,-919.73 2068.8,-911.54"/>
<polygon fill="black" stroke="black" points="2072.3,-911.62 2068.8,-901.62 2065.3,-911.62 2072.3,-911.62"/>
</g>
<!-- 29&#45;&gt;14 -->
<g id="edge34" class="edge">
<title>29&#45;&gt;14</title>
<path fill="none" stroke="black" d="M3382.56,-935.59C3382.22,-911.61 3381.61,-868.14 3381.2,-839.42"/>
<polygon fill="black" stroke="black" points="3384.71,-839.57 3381.06,-829.62 3377.71,-839.67 3384.71,-839.57"/>
</g>
<!-- 32 -->
<g id="node33" class="node">
<title>32</title>
<polygon fill="none" stroke="black" points="205.8,-1044 0,-1026 205.8,-1008 411.6,-1026 205.8,-1044"/>
<text text-anchor="middle" x="205.8" y="-1020.95" font-family="Times New Roman,serif" font-size="14.00">Variable[&quot;cargo.evrart_evrart_met&quot;]</text>
</g>
<!-- 31&#45;&gt;32 -->
<g id="edge35" class="edge">
<title>31&#45;&gt;32</title>
<path fill="none" stroke="black" d="M338.57,-1080.41C312.48,-1069.92 278.73,-1056.34 251.78,-1045.5"/>
<polygon fill="black" stroke="black" points="253.43,-1042.39 242.85,-1041.9 250.82,-1048.88 253.43,-1042.39"/>
</g>
<!-- 33 -->
<g id="node34" class="node">
<title>33</title>
<polygon fill="none" stroke="black" points="648.8,-1044 429.97,-1026 648.8,-1008 867.63,-1026 648.8,-1044"/>
<text text-anchor="middle" x="648.8" y="-1020.95" font-family="Times New Roman,serif" font-size="14.00">!(Variable[&quot;cargo.evrart_evrart_met&quot;])</text>
</g>
<!-- 31&#45;&gt;33 -->
<g id="edge36" class="edge">
<title>31&#45;&gt;33</title>
<path fill="none" stroke="black" d="M440.51,-1081.2C484.13,-1069.85 542.75,-1054.6 586.68,-1043.16"/>
<polygon fill="black" stroke="black" points="587.55,-1046.56 596.34,-1040.65 585.78,-1039.78 587.55,-1046.56"/>
</g>
<!-- 32&#45;&gt;1 -->
<g id="edge37" class="edge">
<title>32&#45;&gt;1</title>
<path fill="none" stroke="black" d="M206.05,-1044.37C207.07,-1063.32 210.96,-1093.91 224.8,-1116 233.82,-1130.39 248.2,-1142.44 261.42,-1151.39"/>
<polygon fill="black" stroke="black" points="259.16,-1154.1 269.47,-1156.54 262.93,-1148.2 259.16,-1154.1"/>
</g>
<!-- 33&#45;&gt;15 -->
<g id="edge38" class="edge">
<title>33&#45;&gt;15</title>
<path fill="none" stroke="black" d="M648.8,-1007.7C648.8,-1000.41 648.8,-991.73 648.8,-983.54"/>
<polygon fill="black" stroke="black" points="652.3,-983.62 648.8,-973.62 645.3,-983.62 652.3,-983.62"/>
</g>
<!-- 34&#45;&gt;10 -->
<g id="edge39" class="edge">
<title>34&#45;&gt;10</title>
<path fill="none" stroke="black" d="M2081.76,-293.1C2338.86,-280.4 2713.43,-260.91 2780.8,-252 2786.86,-251.2 2793.13,-250.2 2799.39,-249.08"/>
<polygon fill="black" stroke="black" points="2799.92,-252.54 2809.1,-247.25 2798.62,-245.66 2799.92,-252.54"/>
</g>
</g>
</svg>
