<?xml version="1.0" encoding="UTF-8" standalone="no"?>
<!DOCTYPE svg PUBLIC "-//W3C//DTD SVG 1.1//EN"
 "http://www.w3.org/Graphics/SVG/1.1/DTD/svg11.dtd">
<!-- Generated by graphviz version 12.2.1 (20241206.2353)
 -->
<!-- Title: G Pages: 1 -->
<svg width="3768pt" height="1340pt"
 viewBox="0.00 0.00 3768.27 1340.00" xmlns="http://www.w3.org/2000/svg" xmlns:xlink="http://www.w3.org/1999/xlink">
<g id="graph0" class="graph" transform="scale(1 1) rotate(0) translate(4 1336)">
<title>G</title>
<polygon fill="white" stroke="none" points="-4,4 -4,-1336 3764.27,-1336 3764.27,4 -4,4"/>
<!-- 0 -->
<g id="node1" class="node">
<title>0</title>
<ellipse fill="none" stroke="black" cx="2255" cy="-1314" rx="39.07" ry="18"/>
<text text-anchor="middle" x="2255" y="-1308.95" font-family="Times New Roman,serif" font-size="14.00">START</text>
</g>
<!-- 1 -->
<g id="node2" class="node">
<title>1</title>
<ellipse fill="none" stroke="black" cx="2255" cy="-1242" rx="29.86" ry="18"/>
<text text-anchor="middle" x="2255" y="-1236.95" font-family="Times New Roman,serif" font-size="14.00">input</text>
</g>
<!-- 0&#45;&gt;1 -->
<g id="edge1" class="edge">
<title>0&#45;&gt;1</title>
<path fill="none" stroke="black" d="M2255,-1295.7C2255,-1288.41 2255,-1279.73 2255,-1271.54"/>
<polygon fill="black" stroke="black" points="2258.5,-1271.62 2255,-1261.62 2251.5,-1271.62 2258.5,-1271.62"/>
</g>
<!-- 27 -->
<g id="node28" class="node">
<title>27</title>
<ellipse fill="none" stroke="black" cx="2255" cy="-1170" rx="401.43" ry="18"/>
<text text-anchor="middle" x="2255" y="-1164.95" font-family="Times New Roman,serif" font-size="14.00">You: 这*绝对*是某种象征！遥视者也会这样做的。隐藏在世俗之间的征兆……</text>
</g>
<!-- 1&#45;&gt;27 -->
<g id="edge2" class="edge">
<title>1&#45;&gt;27</title>
<path fill="none" stroke="black" d="M2255,-1223.7C2255,-1216.41 2255,-1207.73 2255,-1199.54"/>
<polygon fill="black" stroke="black" points="2258.5,-1199.62 2255,-1189.62 2251.5,-1199.62 2258.5,-1199.62"/>
</g>
<!-- 2 -->
<g id="node3" class="node">
<title>2</title>
<ellipse fill="none" stroke="black" cx="1269" cy="-666" rx="41.63" ry="18"/>
<text text-anchor="middle" x="1269" y="-660.95" font-family="Times New Roman,serif" font-size="14.00">itsatable</text>
</g>
<!-- 12 -->
<g id="node13" class="node">
<title>12</title>
<ellipse fill="none" stroke="black" cx="1174" cy="-594" rx="183.4" ry="18"/>
<text text-anchor="middle" x="1174" y="-588.95" font-family="Times New Roman,serif" font-size="14.00">Variable[&quot;cargo.orb_coffee_logic_pareidolia&quot;]</text>
</g>
<!-- 2&#45;&gt;12 -->
<g id="edge5" class="edge">
<title>2&#45;&gt;12</title>
<path fill="none" stroke="black" d="M1248.85,-650.15C1236.52,-641.07 1220.46,-629.23 1206.38,-618.86"/>
<polygon fill="black" stroke="black" points="1208.81,-616.3 1198.69,-613.19 1204.66,-621.94 1208.81,-616.3"/>
</g>
<!-- 16 -->
<g id="node17" class="node">
<title>16</title>
<ellipse fill="none" stroke="black" cx="1729" cy="-594" rx="160.88" ry="18"/>
<text text-anchor="middle" x="1729" y="-588.95" font-family="Times New Roman,serif" font-size="14.00">You: 看向其中一只旧咖啡杯。</text>
</g>
<!-- 2&#45;&gt;16 -->
<g id="edge3" class="edge">
<title>2&#45;&gt;16</title>
<path fill="none" stroke="black" d="M1307.82,-659.09C1377.24,-648.53 1524.78,-626.08 1625.44,-610.76"/>
<polygon fill="black" stroke="black" points="1625.7,-614.26 1635.06,-609.3 1624.64,-607.34 1625.7,-614.26"/>
</g>
<!-- 17 -->
<g id="node18" class="node">
<title>17</title>
<ellipse fill="none" stroke="black" cx="346" cy="-594" rx="152.18" ry="18"/>
<text text-anchor="middle" x="346" y="-588.95" font-family="Times New Roman,serif" font-size="14.00">Inland Empire: 这是一条线索！</text>
</g>
<!-- 2&#45;&gt;17 -->
<g id="edge4" class="edge">
<title>2&#45;&gt;17</title>
<path fill="none" stroke="black" d="M1228.15,-661.9C1099.19,-652.12 696.65,-621.59 482.77,-605.37"/>
<polygon fill="black" stroke="black" points="483.22,-601.9 472.98,-604.63 482.69,-608.88 483.22,-601.9"/>
</g>
<!-- 3 -->
<g id="node4" class="node">
<title>3</title>
<ellipse fill="none" stroke="black" cx="1559" cy="-306" rx="419.85" ry="18"/>
<text text-anchor="middle" x="1559" y="-300.95" font-family="Times New Roman,serif" font-size="14.00">You: 啊哈，太好了。我是有点怀疑，警察应该不是靠这些陈年咖啡渣破案的吧。</text>
</g>
<!-- 36 -->
<g id="node37" class="node">
<title>36</title>
<polygon fill="none" stroke="black" points="1827,-252 1567.64,-234 1827,-216 2086.36,-234 1827,-252"/>
<text text-anchor="middle" x="1827" y="-228.95" font-family="Times New Roman,serif" font-size="14.00">Variable[&quot;cargo.orb_coffee_logic_pareidolia&quot;]</text>
</g>
<!-- 3&#45;&gt;36 -->
<g id="edge6" class="edge">
<title>3&#45;&gt;36</title>
<path fill="none" stroke="black" d="M1624.9,-287.79C1667.16,-276.75 1721.72,-262.5 1763.49,-251.59"/>
<polygon fill="black" stroke="black" points="1764.11,-255.04 1772.91,-249.13 1762.35,-248.27 1764.11,-255.04"/>
</g>
<!-- 4 -->
<g id="node5" class="node">
<title>4</title>
<ellipse fill="none" stroke="black" cx="1272" cy="-1026" rx="222.81" ry="18"/>
<text text-anchor="middle" x="1272" y="-1020.95" font-family="Times New Roman,serif" font-size="14.00">Inland Empire: 所有凶杀案幕后黑手的线索！</text>
</g>
<!-- 30 -->
<g id="node31" class="node">
<title>30</title>
<ellipse fill="none" stroke="black" cx="1272" cy="-954" rx="373.28" ry="18"/>
<text text-anchor="middle" x="1272" y="-948.95" font-family="Times New Roman,serif" font-size="14.00">Inland Empire: 你说的没错，伙计。换做是我，*永远*也编不出这种东西。</text>
</g>
<!-- 4&#45;&gt;30 -->
<g id="edge7" class="edge">
<title>4&#45;&gt;30</title>
<path fill="none" stroke="black" d="M1272,-1007.7C1272,-1000.41 1272,-991.73 1272,-983.54"/>
<polygon fill="black" stroke="black" points="1275.5,-983.62 1272,-973.62 1268.5,-983.62 1275.5,-983.62"/>
</g>
<!-- 5 -->
<g id="node6" class="node">
<title>5</title>
<ellipse fill="none" stroke="black" cx="1990" cy="-954" rx="324.66" ry="18"/>
<text text-anchor="middle" x="1990" y="-948.95" font-family="Times New Roman,serif" font-size="14.00">Inland Empire: 如果连自己的眼睛都信不过，那还能相信什么……</text>
</g>
<!-- 11 -->
<g id="node12" class="node">
<title>11</title>
<ellipse fill="none" stroke="black" cx="1272" cy="-882" rx="90.25" ry="18"/>
<text text-anchor="middle" x="1272" y="-876.95" font-family="Times New Roman,serif" font-size="14.00">You: 捡起卡片。</text>
</g>
<!-- 5&#45;&gt;11 -->
<g id="edge8" class="edge">
<title>5&#45;&gt;11</title>
<path fill="none" stroke="black" d="M1834.2,-937.81C1690.17,-923.77 1481.05,-903.38 1362.66,-891.84"/>
<polygon fill="black" stroke="black" points="1363.29,-888.38 1352.99,-890.9 1362.61,-895.35 1363.29,-888.38"/>
</g>
<!-- 6 -->
<g id="node7" class="node">
<title>6</title>
<ellipse fill="none" stroke="black" cx="1269" cy="-738" rx="83.08" ry="18"/>
<text text-anchor="middle" x="1269" y="-732.95" font-family="Times New Roman,serif" font-size="14.00">Jump to: [itsatable]</text>
</g>
<!-- 6&#45;&gt;2 -->
<g id="edge9" class="edge">
<title>6&#45;&gt;2</title>
<path fill="none" stroke="black" d="M1269,-719.7C1269,-712.41 1269,-703.73 1269,-695.54"/>
<polygon fill="black" stroke="black" points="1272.5,-695.62 1269,-685.62 1265.5,-695.62 1272.5,-695.62"/>
</g>
<!-- 7 -->
<g id="node8" class="node">
<title>7</title>
<ellipse fill="none" stroke="black" cx="452" cy="-234" rx="424.46" ry="18"/>
<text text-anchor="middle" x="452" y="-228.95" font-family="Times New Roman,serif" font-size="14.00">Coffee Table: 如果眯着眼睛看的话，那些咖啡渣好像组成了两个字母：F……还有K。</text>
</g>
<!-- 18 -->
<g id="node19" class="node">
<title>18</title>
<ellipse fill="none" stroke="black" cx="401" cy="-162" rx="172.65" ry="18"/>
<text text-anchor="middle" x="401" y="-156.95" font-family="Times New Roman,serif" font-size="14.00">You: 我应该在这里看到些什么？</text>
</g>
<!-- 7&#45;&gt;18 -->
<g id="edge10" class="edge">
<title>7&#45;&gt;18</title>
<path fill="none" stroke="black" d="M439.39,-215.7C433.59,-207.73 426.57,-198.1 420.14,-189.26"/>
<polygon fill="black" stroke="black" points="423.07,-187.35 414.35,-181.33 417.41,-191.47 423.07,-187.35"/>
</g>
<!-- 8 -->
<g id="node9" class="node">
<title>8</title>
<ellipse fill="none" stroke="black" cx="1269" cy="-810" rx="1009.97" ry="18"/>
<text text-anchor="middle" x="1269" y="-804.95" font-family="Times New Roman,serif" font-size="14.00">Coffee Table: 你一把抓起那张红色的塑料卡片。上面印着吊车抬起集装箱的黑色图案。中间写着“艾蒂安·贺加斯”，下面有一小行字：*董事会成员*。卡上还有一个磁条——应该是用来打开电子门的。</text>
</g>
<!-- 8&#45;&gt;6 -->
<g id="edge11" class="edge">
<title>8&#45;&gt;6</title>
<path fill="none" stroke="black" d="M1269,-791.7C1269,-784.41 1269,-775.73 1269,-767.54"/>
<polygon fill="black" stroke="black" points="1272.5,-767.62 1269,-757.62 1265.5,-767.62 1272.5,-767.62"/>
</g>
<!-- 9 -->
<g id="node10" class="node">
<title>9</title>
<ellipse fill="none" stroke="black" cx="1272" cy="-1098" rx="90.25" ry="18"/>
<text text-anchor="middle" x="1272" y="-1092.95" font-family="Times New Roman,serif" font-size="14.00">You: 什么线索？</text>
</g>
<!-- 9&#45;&gt;4 -->
<g id="edge12" class="edge">
<title>9&#45;&gt;4</title>
<path fill="none" stroke="black" d="M1272,-1079.7C1272,-1072.41 1272,-1063.73 1272,-1055.54"/>
<polygon fill="black" stroke="black" points="1275.5,-1055.62 1272,-1045.62 1268.5,-1055.62 1275.5,-1055.62"/>
</g>
<!-- 10 -->
<g id="node11" class="node">
<title>10</title>
<ellipse fill="none" stroke="black" cx="166" cy="-522" rx="83.08" ry="18"/>
<text text-anchor="middle" x="166" y="-516.95" font-family="Times New Roman,serif" font-size="14.00">Jump to: [itsatable]</text>
</g>
<!-- 10&#45;&gt;2 -->
<g id="edge13" class="edge">
<title>10&#45;&gt;2</title>
<path fill="none" stroke="black" d="M164.06,-540.49C162.87,-561.06 164.54,-594.6 185,-612 224.64,-645.71 1003.33,-660.71 1215.83,-664.19"/>
<polygon fill="black" stroke="black" points="1215.69,-667.69 1225.75,-664.35 1215.81,-660.69 1215.69,-667.69"/>
</g>
<!-- 11&#45;&gt;8 -->
<g id="edge14" class="edge">
<title>11&#45;&gt;8</title>
<path fill="none" stroke="black" d="M1271.26,-863.7C1270.95,-856.41 1270.57,-847.73 1270.22,-839.54"/>
<polygon fill="black" stroke="black" points="1273.72,-839.46 1269.8,-829.62 1266.73,-839.76 1273.72,-839.46"/>
</g>
<!-- 14 -->
<g id="node15" class="node">
<title>14</title>
<polygon fill="none" stroke="black" points="919,-540 646.61,-522 919,-504 1191.39,-522 919,-540"/>
<text text-anchor="middle" x="919" y="-516.95" font-family="Times New Roman,serif" font-size="14.00">!(Variable[&quot;cargo.orb_coffee_logic_pareidolia&quot;])</text>
</g>
<!-- 12&#45;&gt;14 -->
<g id="edge15" class="edge">
<title>12&#45;&gt;14</title>
<path fill="none" stroke="black" d="M1114.21,-576.59C1074.25,-565.62 1021.78,-551.22 981.31,-540.1"/>
<polygon fill="black" stroke="black" points="982.26,-536.74 971.69,-537.46 980.41,-543.49 982.26,-536.74"/>
</g>
<!-- 15 -->
<g id="node16" class="node">
<title>15</title>
<ellipse fill="none" stroke="black" cx="1282" cy="-522" rx="72.85" ry="18"/>
<text text-anchor="middle" x="1282" y="-516.95" font-family="Times New Roman,serif" font-size="14.00">You: [离开。]</text>
</g>
<!-- 12&#45;&gt;15 -->
<g id="edge16" class="edge">
<title>12&#45;&gt;15</title>
<path fill="none" stroke="black" d="M1200.7,-575.7C1214.84,-566.53 1232.37,-555.17 1247.53,-545.34"/>
<polygon fill="black" stroke="black" points="1249.33,-548.34 1255.82,-539.97 1245.53,-542.47 1249.33,-548.34"/>
</g>
<!-- 13 -->
<g id="node14" class="node">
<title>13</title>
<polygon fill="none" stroke="black" points="1884,-468 1624.64,-450 1884,-432 2143.36,-450 1884,-468"/>
<text text-anchor="middle" x="1884" y="-444.95" font-family="Times New Roman,serif" font-size="14.00">Variable[&quot;cargo.orb_coffee_logic_pareidolia&quot;]</text>
</g>
<!-- 20 -->
<g id="node21" class="node">
<title>20</title>
<ellipse fill="none" stroke="black" cx="1777" cy="-378" rx="83.08" ry="18"/>
<text text-anchor="middle" x="1777" y="-372.95" font-family="Times New Roman,serif" font-size="14.00">Jump to: [itsatable]</text>
</g>
<!-- 13&#45;&gt;20 -->
<g id="edge17" class="edge">
<title>13&#45;&gt;20</title>
<path fill="none" stroke="black" d="M1859.99,-433.29C1845.7,-423.94 1827.33,-411.93 1811.51,-401.58"/>
<polygon fill="black" stroke="black" points="1813.6,-398.76 1803.32,-396.22 1809.77,-404.62 1813.6,-398.76"/>
</g>
<!-- 14&#45;&gt;3 -->
<g id="edge18" class="edge">
<title>14&#45;&gt;3</title>
<path fill="none" stroke="black" d="M1048.01,-512.03C1227.37,-499.26 1531.25,-476.47 1540,-468 1575.15,-433.97 1571.32,-371.91 1565.25,-335.58"/>
<polygon fill="black" stroke="black" points="1568.7,-335.01 1563.43,-325.82 1561.82,-336.29 1568.7,-335.01"/>
</g>
<!-- 28 -->
<g id="node29" class="node">
<title>28</title>
<ellipse fill="none" stroke="black" cx="918" cy="-450" rx="612.8" ry="18"/>
<text text-anchor="middle" x="918" y="-444.95" font-family="Times New Roman,serif" font-size="14.00">Coffee Table: 你没发现什么异常。不过是一只布满棕色污渍的脏咖啡杯，杯底还粘着些陈年的咖啡渣……正在慢慢变霉。</text>
</g>
<!-- 14&#45;&gt;28 -->
<g id="edge19" class="edge">
<title>14&#45;&gt;28</title>
<path fill="none" stroke="black" d="M918.75,-503.7C918.65,-496.41 918.52,-487.73 918.41,-479.54"/>
<polygon fill="black" stroke="black" points="921.91,-479.57 918.27,-469.62 914.91,-479.67 921.91,-479.57"/>
</g>
<!-- 29 -->
<g id="node30" class="node">
<title>29</title>
<ellipse fill="none" stroke="black" cx="1884" cy="-522" rx="470.52" ry="18"/>
<text text-anchor="middle" x="1884" y="-516.95" font-family="Times New Roman,serif" font-size="14.00">Logic: 没错，当然了。在聒噪的环境下注意到这个图案，肯定不只是*错觉*的案例。值了。</text>
</g>
<!-- 16&#45;&gt;29 -->
<g id="edge20" class="edge">
<title>16&#45;&gt;29</title>
<path fill="none" stroke="black" d="M1766.52,-576.05C1787.17,-566.73 1813.04,-555.05 1835.24,-545.02"/>
<polygon fill="black" stroke="black" points="1836.42,-548.33 1844.1,-541.02 1833.54,-541.95 1836.42,-548.33"/>
</g>
<!-- 17&#45;&gt;10 -->
<g id="edge21" class="edge">
<title>17&#45;&gt;10</title>
<path fill="none" stroke="black" d="M303.34,-576.41C277.09,-566.2 243.33,-553.07 215.85,-542.39"/>
<polygon fill="black" stroke="black" points="217.28,-539.19 206.69,-538.82 214.74,-545.71 217.28,-539.19"/>
</g>
<!-- 23 -->
<g id="node24" class="node">
<title>23</title>
<ellipse fill="none" stroke="black" cx="299" cy="-378" rx="204.89" ry="18"/>
<text text-anchor="middle" x="299" y="-372.95" font-family="Times New Roman,serif" font-size="14.00">Coffee Table: 你把杯子又扔回了垃圾箱。</text>
</g>
<!-- 17&#45;&gt;23 -->
<g id="edge22" class="edge">
<title>17&#45;&gt;23</title>
<path fill="none" stroke="black" d="M336.68,-575.84C324.49,-552.33 303.78,-508.39 296,-468 292.97,-452.29 295.55,-447.99 296,-432 296.22,-424.05 296.64,-415.43 297.09,-407.5"/>
<polygon fill="black" stroke="black" points="300.57,-407.88 297.69,-397.69 293.59,-407.45 300.57,-407.88"/>
</g>
<!-- 22 -->
<g id="node23" class="node">
<title>22</title>
<ellipse fill="none" stroke="black" cx="350" cy="-90" rx="219.74" ry="18"/>
<text text-anchor="middle" x="350" y="-84.95" font-family="Times New Roman,serif" font-size="14.00">You: 好吧，谢了。这确实不是浪费时间。</text>
</g>
<!-- 18&#45;&gt;22 -->
<g id="edge23" class="edge">
<title>18&#45;&gt;22</title>
<path fill="none" stroke="black" d="M388.39,-143.7C382.59,-135.73 375.57,-126.1 369.14,-117.26"/>
<polygon fill="black" stroke="black" points="372.07,-115.35 363.35,-109.33 366.41,-119.47 372.07,-115.35"/>
</g>
<!-- 19 -->
<g id="node20" class="node">
<title>19</title>
<ellipse fill="none" stroke="black" cx="1021" cy="-378" rx="498.67" ry="18"/>
<text text-anchor="middle" x="1021" y="-372.95" font-family="Times New Roman,serif" font-size="14.00">Inland Empire: 绝对是有什么特殊意义的，我敢*发誓*！你就等着吧……我很快就能破获这个案子。</text>
</g>
<!-- 19&#45;&gt;3 -->
<g id="edge24" class="edge">
<title>19&#45;&gt;3</title>
<path fill="none" stroke="black" d="M1150.55,-360.14C1232,-349.55 1337.02,-335.88 1420.18,-325.06"/>
<polygon fill="black" stroke="black" points="1420.54,-328.55 1430,-323.78 1419.64,-321.6 1420.54,-328.55"/>
</g>
<!-- 19&#45;&gt;28 -->
<g id="edge25" class="edge">
<title>19&#45;&gt;28</title>
<path fill="none" stroke="black" d="M1001.4,-396.35C989.3,-405.19 973.45,-416.06 958.79,-425.63"/>
<polygon fill="black" stroke="black" points="957.16,-422.52 950.65,-430.88 960.95,-428.4 957.16,-422.52"/>
</g>
<!-- 20&#45;&gt;2 -->
<g id="edge26" class="edge">
<title>20&#45;&gt;2</title>
<path fill="none" stroke="black" d="M1723.96,-392.17C1691.78,-401.2 1650.43,-414.67 1616,-432 1591.22,-444.47 1590.36,-456.75 1565,-468 1497.97,-497.72 1458.82,-455.31 1404,-504 1365.95,-537.79 1398.96,-573.23 1366,-612 1351.7,-628.82 1330.66,-641.23 1311.83,-649.79"/>
<polygon fill="black" stroke="black" points="1310.56,-646.53 1302.75,-653.68 1313.32,-652.96 1310.56,-646.53"/>
</g>
<!-- 21 -->
<g id="node22" class="node">
<title>21</title>
<ellipse fill="none" stroke="black" cx="354" cy="-306" rx="140.41" ry="18"/>
<text text-anchor="middle" x="354" y="-300.95" font-family="Times New Roman,serif" font-size="14.00">Inland Empire: 再仔细看看！</text>
</g>
<!-- 21&#45;&gt;7 -->
<g id="edge27" class="edge">
<title>21&#45;&gt;7</title>
<path fill="none" stroke="black" d="M377.97,-287.88C390.1,-279.21 405.03,-268.55 418.29,-259.08"/>
<polygon fill="black" stroke="black" points="420.26,-261.97 426.36,-253.31 416.19,-256.28 420.26,-261.97"/>
</g>
<!-- 24 -->
<g id="node25" class="node">
<title>24</title>
<ellipse fill="none" stroke="black" cx="124" cy="-18" rx="119.93" ry="18"/>
<text text-anchor="middle" x="124" y="-12.95" font-family="Times New Roman,serif" font-size="14.00">Logic: 也许你是对的。</text>
</g>
<!-- 22&#45;&gt;24 -->
<g id="edge28" class="edge">
<title>22&#45;&gt;24</title>
<path fill="none" stroke="black" d="M295.58,-72.14C262.46,-61.89 220.07,-48.75 185.7,-38.11"/>
<polygon fill="black" stroke="black" points="186.88,-34.81 176.3,-35.2 184.81,-41.5 186.88,-34.81"/>
</g>
<!-- 23&#45;&gt;21 -->
<g id="edge29" class="edge">
<title>23&#45;&gt;21</title>
<path fill="none" stroke="black" d="M312.6,-359.7C318.92,-351.64 326.58,-341.89 333.59,-332.98"/>
<polygon fill="black" stroke="black" points="336.2,-335.32 339.63,-325.29 330.7,-331 336.2,-335.32"/>
</g>
<!-- 24&#45;&gt;11 -->
<g id="edge30" class="edge">
<title>24&#45;&gt;11</title>
<path fill="none" stroke="black" d="M93.98,-35.85C57.28,-58.92 0,-104.05 0,-161 0,-739 0,-739 0,-739 0,-856.54 868.97,-876.79 1170.45,-880.27"/>
<polygon fill="black" stroke="black" points="1170.24,-883.77 1180.28,-880.38 1170.32,-876.77 1170.24,-883.77"/>
</g>
<!-- 25 -->
<g id="node26" class="node">
<title>25</title>
<ellipse fill="none" stroke="black" cx="2105" cy="-162" rx="548.32" ry="18"/>
<text text-anchor="middle" x="2105" y="-156.95" font-family="Times New Roman,serif" font-size="14.00">Inland Empire: 如果连自己的眼睛都信不过，那还能相信谁？反正肯定不能相信金。他实在是……太可疑了。</text>
</g>
<!-- 25&#45;&gt;11 -->
<g id="edge31" class="edge">
<title>25&#45;&gt;11</title>
<path fill="none" stroke="black" d="M2235.86,-179.92C2307.96,-197.41 2383,-232.92 2383,-305 2383,-667 2383,-667 2383,-667 2383,-750.08 2359.05,-784.93 2288,-828 2211.24,-874.53 1615.8,-880.58 1373.78,-881.1"/>
<polygon fill="black" stroke="black" points="1374.03,-877.6 1364.04,-881.12 1374.04,-884.6 1374.03,-877.6"/>
</g>
<!-- 26 -->
<g id="node27" class="node">
<title>26</title>
<ellipse fill="none" stroke="black" cx="3214" cy="-1314" rx="546.27" ry="18"/>
<text text-anchor="middle" x="3214" y="-1308.95" font-family="Times New Roman,serif" font-size="14.00">Coffee Table: 一张大桌子上放着两台巨大的真空隔热咖啡贩售机。有人把一张小塑料卡片落在了茶杯旁边。</text>
</g>
<!-- 35 -->
<g id="node36" class="node">
<title>35</title>
<ellipse fill="none" stroke="black" cx="3108" cy="-1242" rx="183.4" ry="18"/>
<text text-anchor="middle" x="3108" y="-1236.95" font-family="Times New Roman,serif" font-size="14.00">Variable[&quot;cargo.orb_coffee_logic_pareidolia&quot;]</text>
</g>
<!-- 26&#45;&gt;35 -->
<g id="edge32" class="edge">
<title>26&#45;&gt;35</title>
<path fill="none" stroke="black" d="M3187.8,-1295.7C3174.32,-1286.8 3157.7,-1275.82 3143.13,-1266.2"/>
<polygon fill="black" stroke="black" points="3145.44,-1263.53 3135.16,-1260.94 3141.58,-1269.37 3145.44,-1263.53"/>
</g>
<!-- 31 -->
<g id="node32" class="node">
<title>31</title>
<ellipse fill="none" stroke="black" cx="2255" cy="-1098" rx="58.52" ry="18"/>
<text text-anchor="middle" x="2255" y="-1092.95" font-family="Times New Roman,serif" font-size="14.00">IsKimHere()</text>
</g>
<!-- 27&#45;&gt;31 -->
<g id="edge33" class="edge">
<title>27&#45;&gt;31</title>
<path fill="none" stroke="black" d="M2255,-1151.7C2255,-1144.41 2255,-1135.73 2255,-1127.54"/>
<polygon fill="black" stroke="black" points="2258.5,-1127.62 2255,-1117.62 2251.5,-1127.62 2258.5,-1127.62"/>
</g>
<!-- 28&#45;&gt;19 -->
<g id="edge34" class="edge">
<title>28&#45;&gt;19</title>
<path fill="none" stroke="black" d="M937.54,-431.7C949.63,-422.86 965.47,-411.99 980.14,-402.41"/>
<polygon fill="black" stroke="black" points="981.77,-405.52 988.28,-397.17 977.98,-399.64 981.77,-405.52"/>
</g>
<!-- 28&#45;&gt;23 -->
<g id="edge35" class="edge">
<title>28&#45;&gt;23</title>
<path fill="none" stroke="black" d="M768.55,-432.1C666.15,-420.52 531.5,-405.29 432.66,-394.11"/>
<polygon fill="black" stroke="black" points="433.23,-390.66 422.9,-393.01 432.44,-397.61 433.23,-390.66"/>
</g>
<!-- 29&#45;&gt;13 -->
<g id="edge36" class="edge">
<title>29&#45;&gt;13</title>
<path fill="none" stroke="black" d="M1884,-503.7C1884,-496.41 1884,-487.73 1884,-479.54"/>
<polygon fill="black" stroke="black" points="1887.5,-479.62 1884,-469.62 1880.5,-479.62 1887.5,-479.62"/>
</g>
<!-- 30&#45;&gt;11 -->
<g id="edge37" class="edge">
<title>30&#45;&gt;11</title>
<path fill="none" stroke="black" d="M1272,-935.7C1272,-928.41 1272,-919.73 1272,-911.54"/>
<polygon fill="black" stroke="black" points="1275.5,-911.62 1272,-901.62 1268.5,-911.62 1275.5,-911.62"/>
</g>
<!-- 33 -->
<g id="node34" class="node">
<title>33</title>
<polygon fill="none" stroke="black" points="2078,-1044 1982.22,-1026 2078,-1008 2173.78,-1026 2078,-1044"/>
<text text-anchor="middle" x="2078" y="-1020.95" font-family="Times New Roman,serif" font-size="14.00">!(IsKimHere())</text>
</g>
<!-- 31&#45;&gt;33 -->
<g id="edge38" class="edge">
<title>31&#45;&gt;33</title>
<path fill="none" stroke="black" d="M2220.03,-1083.17C2190.74,-1071.59 2148.92,-1055.05 2118.24,-1042.92"/>
<polygon fill="black" stroke="black" points="2119.89,-1039.8 2109.3,-1039.38 2117.32,-1046.31 2119.89,-1039.8"/>
</g>
<!-- 34 -->
<g id="node35" class="node">
<title>34</title>
<ellipse fill="none" stroke="black" cx="2344" cy="-882" rx="199.26" ry="18"/>
<text text-anchor="middle" x="2344" y="-876.95" font-family="Times New Roman,serif" font-size="14.00">Inland Empire: 盯着一只废弃的咖啡杯！</text>
</g>
<!-- 31&#45;&gt;34 -->
<g id="edge39" class="edge">
<title>31&#45;&gt;34</title>
<path fill="none" stroke="black" d="M2266.47,-1079.96C2281.71,-1056.57 2308.52,-1012.79 2324,-972 2331.4,-952.51 2336.47,-929.53 2339.66,-911.81"/>
<polygon fill="black" stroke="black" points="2343.11,-912.42 2341.32,-901.98 2336.21,-911.26 2343.11,-912.42"/>
</g>
<!-- 32 -->
<g id="node33" class="node">
<title>32</title>
<polygon fill="none" stroke="black" points="3133,-1116 3050.24,-1098 3133,-1080 3215.76,-1098 3133,-1116"/>
<text text-anchor="middle" x="3133" y="-1092.95" font-family="Times New Roman,serif" font-size="14.00">IsKimHere()</text>
</g>
<!-- 32&#45;&gt;26 -->
<g id="edge40" class="edge">
<title>32&#45;&gt;26</title>
<path fill="none" stroke="black" d="M3199.68,-1102C3235.58,-1107.43 3277.1,-1120.7 3300,-1152 3328.35,-1190.74 3323.4,-1218.09 3300,-1260 3293.05,-1272.45 3281.85,-1282.33 3269.79,-1290.03"/>
<polygon fill="black" stroke="black" points="3268.18,-1286.91 3261.31,-1294.97 3271.71,-1292.96 3268.18,-1286.91"/>
</g>
<!-- 33&#45;&gt;5 -->
<g id="edge41" class="edge">
<title>33&#45;&gt;5</title>
<path fill="none" stroke="black" d="M2060.61,-1011.17C2049.22,-1002.11 2034.01,-990.01 2020.62,-979.36"/>
<polygon fill="black" stroke="black" points="2022.91,-976.7 2012.9,-973.22 2018.55,-982.18 2022.91,-976.7"/>
</g>
<!-- 34&#45;&gt;2 -->
<g id="edge42" class="edge">
<title>34&#45;&gt;2</title>
<path fill="none" stroke="black" d="M2338.3,-863.61C2330.49,-842.82 2314.36,-808.73 2288,-792 2124.94,-688.49 1507.64,-670.65 1322.07,-667.61"/>
<polygon fill="black" stroke="black" points="1322.31,-664.12 1312.25,-667.46 1322.2,-671.12 1322.31,-664.12"/>
</g>
<!-- 37 -->
<g id="node38" class="node">
<title>37</title>
<polygon fill="none" stroke="black" points="2947,-1188 2674.61,-1170 2947,-1152 3219.39,-1170 2947,-1188"/>
<text text-anchor="middle" x="2947" y="-1164.95" font-family="Times New Roman,serif" font-size="14.00">!(Variable[&quot;cargo.orb_coffee_logic_pareidolia&quot;])</text>
</g>
<!-- 35&#45;&gt;37 -->
<g id="edge43" class="edge">
<title>35&#45;&gt;37</title>
<path fill="none" stroke="black" d="M3069.03,-1224.05C3045.84,-1213.97 3016.33,-1201.14 2992.13,-1190.62"/>
<polygon fill="black" stroke="black" points="2993.73,-1187.5 2983.17,-1186.73 2990.94,-1193.92 2993.73,-1187.5"/>
</g>
<!-- 38 -->
<g id="node39" class="node">
<title>38</title>
<ellipse fill="none" stroke="black" cx="3264" cy="-1170" rx="27" ry="18"/>
<text text-anchor="middle" x="3264" y="-1164.95" font-family="Times New Roman,serif" font-size="14.00">38</text>
</g>
<!-- 35&#45;&gt;38 -->
<g id="edge44" class="edge">
<title>35&#45;&gt;38</title>
<path fill="none" stroke="black" d="M3147.29,-1223.94C3170.78,-1213.67 3201.17,-1200.26 3228,-1188 3229.31,-1187.4 3230.64,-1186.79 3231.99,-1186.17"/>
<polygon fill="black" stroke="black" points="3233.39,-1189.38 3240.97,-1181.98 3230.43,-1183.03 3233.39,-1189.38"/>
</g>
<!-- 36&#45;&gt;25 -->
<g id="edge45" class="edge">
<title>36&#45;&gt;25</title>
<path fill="none" stroke="black" d="M1881.26,-219.34C1922.29,-209 1979.26,-194.66 2025.44,-183.03"/>
<polygon fill="black" stroke="black" points="2026.01,-186.5 2034.86,-180.66 2024.31,-179.71 2026.01,-186.5"/>
</g>
<!-- 37&#45;&gt;32 -->
<g id="edge46" class="edge">
<title>37&#45;&gt;32</title>
<path fill="none" stroke="black" d="M2986.45,-1154.15C3017.83,-1142.34 3061.56,-1125.89 3093.07,-1114.03"/>
<polygon fill="black" stroke="black" points="3094.12,-1117.37 3102.25,-1110.57 3091.65,-1110.82 3094.12,-1117.37"/>
</g>
</g>
</svg>
