<?xml version="1.0" encoding="UTF-8" standalone="no"?>
<!DOCTYPE svg PUBLIC "-//W3C//DTD SVG 1.1//EN"
 "http://www.w3.org/Graphics/SVG/1.1/DTD/svg11.dtd">
<!-- Generated by graphviz version 12.2.1 (20241206.2353)
 -->
<!-- Title: G Pages: 1 -->
<svg width="4750pt" height="836pt"
 viewBox="0.00 0.00 4749.68 836.00" xmlns="http://www.w3.org/2000/svg" xmlns:xlink="http://www.w3.org/1999/xlink">
<g id="graph0" class="graph" transform="scale(1 1) rotate(0) translate(4 832)">
<title>G</title>
<polygon fill="white" stroke="none" points="-4,4 -4,-832 4745.68,-832 4745.68,4 -4,4"/>
<!-- 0 -->
<g id="node1" class="node">
<title>0</title>
<ellipse fill="none" stroke="black" cx="2820" cy="-810" rx="39.07" ry="18"/>
<text text-anchor="middle" x="2820" y="-804.95" font-family="Times New Roman,serif" font-size="14.00">START</text>
</g>
<!-- 1 -->
<g id="node2" class="node">
<title>1</title>
<ellipse fill="none" stroke="black" cx="2820" cy="-738" rx="29.86" ry="18"/>
<text text-anchor="middle" x="2820" y="-732.95" font-family="Times New Roman,serif" font-size="14.00">input</text>
</g>
<!-- 0&#45;&gt;1 -->
<g id="edge1" class="edge">
<title>0&#45;&gt;1</title>
<path fill="none" stroke="black" d="M2820,-791.7C2820,-784.41 2820,-775.73 2820,-767.54"/>
<polygon fill="black" stroke="black" points="2823.5,-767.62 2820,-757.62 2816.5,-767.62 2823.5,-767.62"/>
</g>
<!-- 4 -->
<g id="node5" class="node">
<title>4</title>
<ellipse fill="none" stroke="black" cx="2820" cy="-666" rx="493.55" ry="18"/>
<text text-anchor="middle" x="2820" y="-660.95" font-family="Times New Roman,serif" font-size="14.00">Reaction Speed: 那个是伊苏林迪竹节虫吗？看起来应该就是。快点——赶快抓住它，别让它跑了！</text>
</g>
<!-- 1&#45;&gt;4 -->
<g id="edge2" class="edge">
<title>1&#45;&gt;4</title>
<path fill="none" stroke="black" d="M2820,-719.7C2820,-712.41 2820,-703.73 2820,-695.54"/>
<polygon fill="black" stroke="black" points="2823.5,-695.62 2820,-685.62 2816.5,-695.62 2823.5,-695.62"/>
</g>
<!-- 2 -->
<g id="node3" class="node">
<title>2</title>
<ellipse fill="none" stroke="black" cx="1899" cy="-306" rx="313.91" ry="18"/>
<text text-anchor="middle" x="1899" y="-300.95" font-family="Times New Roman,serif" font-size="14.00">You: 等一下。那真的是竹节虫吗？你可不想让自己出洋相。</text>
</g>
<!-- 16 -->
<g id="node16" class="node">
<title>16</title>
<ellipse fill="none" stroke="black" cx="1542" cy="-234" rx="238.16" ry="18"/>
<text text-anchor="middle" x="1542" y="-228.95" font-family="Times New Roman,serif" font-size="14.00">Fishing Rod: 肯定不是竹节虫。绝对是钓鱼竿。</text>
</g>
<!-- 2&#45;&gt;16 -->
<g id="edge3" class="edge">
<title>2&#45;&gt;16</title>
<path fill="none" stroke="black" d="M1813.49,-288.23C1760.13,-277.77 1691.38,-264.29 1636.42,-253.52"/>
<polygon fill="black" stroke="black" points="1637.24,-250.11 1626.75,-251.62 1635.89,-256.98 1637.24,-250.11"/>
</g>
<!-- 3 -->
<g id="node4" class="node">
<title>3</title>
<ellipse fill="none" stroke="black" cx="1165" cy="-18" rx="554.97" ry="18"/>
<text text-anchor="middle" x="1165" y="-12.95" font-family="Times New Roman,serif" font-size="14.00">Evrart Claire: “我猜也是，哈里，我就知道。我俩应该找个时间一起出去。像有价值的男人一样，团结一心。”</text>
</g>
<!-- 28 -->
<g id="node28" class="node">
<title>28</title>
<ellipse fill="none" stroke="black" cx="2820" cy="-594" rx="226.9" ry="18"/>
<text text-anchor="middle" x="2820" y="-588.95" font-family="Times New Roman,serif" font-size="14.00">Variable[&quot;village.orb_nethouse_tried_catching_phasmid&quot;]</text>
</g>
<!-- 4&#45;&gt;28 -->
<g id="edge4" class="edge">
<title>4&#45;&gt;28</title>
<path fill="none" stroke="black" d="M2820,-647.7C2820,-640.41 2820,-631.73 2820,-623.54"/>
<polygon fill="black" stroke="black" points="2823.5,-623.62 2820,-613.62 2816.5,-623.62 2823.5,-623.62"/>
</g>
<!-- 5 -->
<g id="node6" class="node">
<title>5</title>
<ellipse fill="none" stroke="black" cx="2538" cy="-18" rx="449.03" ry="18"/>
<text text-anchor="middle" x="2538" y="-12.95" font-family="Times New Roman,serif" font-size="14.00">Evrart Claire: 他的大肚皮随着笑声起起伏伏。“一个瘦削害羞的年轻姑娘吗？没关系的。”</text>
</g>
<!-- 6 -->
<g id="node7" class="node">
<title>6</title>
<ellipse fill="none" stroke="black" cx="4481" cy="-18" rx="260.68" ry="18"/>
<text text-anchor="middle" x="4481" y="-12.95" font-family="Times New Roman,serif" font-size="14.00">Evrart Claire: “也许我们应该找个时间去外面试试。”</text>
</g>
<!-- 7 -->
<g id="node8" class="node">
<title>7</title>
<ellipse fill="none" stroke="black" cx="2678" cy="-90" rx="247.37" ry="18"/>
<text text-anchor="middle" x="2678" y="-84.95" font-family="Times New Roman,serif" font-size="14.00">You: “抱歉，我把钓鱼竿当成了……别的东西。”</text>
</g>
<!-- 7&#45;&gt;5 -->
<g id="edge5" class="edge">
<title>7&#45;&gt;5</title>
<path fill="none" stroke="black" d="M2643.39,-71.7C2625.13,-62.57 2602.51,-51.26 2582.92,-41.46"/>
<polygon fill="black" stroke="black" points="2584.55,-38.37 2574.04,-37.02 2581.42,-44.63 2584.55,-38.37"/>
</g>
<!-- 8 -->
<g id="node9" class="node">
<title>8</title>
<ellipse fill="none" stroke="black" cx="3604" cy="-18" rx="598.47" ry="18"/>
<text text-anchor="middle" x="3604" y="-12.95" font-family="Times New Roman,serif" font-size="14.00">Evrart Claire: “好吧，你的确成功了，哈里。”他坐在椅子里，稍微调整了一下姿势。“你确实是个很让人惊喜的警官。”</text>
</g>
<!-- 9 -->
<g id="node10" class="node">
<title>9</title>
<ellipse fill="none" stroke="black" cx="441" cy="-90" rx="322.1" ry="18"/>
<text text-anchor="middle" x="441" y="-84.95" font-family="Times New Roman,serif" font-size="14.00">You: “没，我不过是想试试你。研究下你的优点，还有弱点。”</text>
</g>
<!-- 17 -->
<g id="node17" class="node">
<title>17</title>
<ellipse fill="none" stroke="black" cx="296" cy="-18" rx="296" ry="18"/>
<text text-anchor="middle" x="296" y="-12.95" font-family="Times New Roman,serif" font-size="14.00">Evrart Claire: “我觉得你从那根钓鱼竿也看不出什么来吧。”</text>
</g>
<!-- 9&#45;&gt;17 -->
<g id="edge6" class="edge">
<title>9&#45;&gt;17</title>
<path fill="none" stroke="black" d="M405.15,-71.7C386.16,-62.53 362.6,-51.16 342.24,-41.33"/>
<polygon fill="black" stroke="black" points="343.82,-38.2 333.29,-37 340.78,-44.5 343.82,-38.2"/>
</g>
<!-- 10 -->
<g id="node11" class="node">
<title>10</title>
<ellipse fill="none" stroke="black" cx="2382" cy="-234" rx="481.27" ry="18"/>
<text text-anchor="middle" x="2382" y="-228.95" font-family="Times New Roman,serif" font-size="14.00">Fishing Rod: 你真是潜行大师。但是看看你抓到了什么——不是什么竹节虫，而是一根钓鱼竿！</text>
</g>
<!-- 25 -->
<g id="node25" class="node">
<title>25</title>
<ellipse fill="none" stroke="black" cx="3382" cy="-162" rx="201.82" ry="18"/>
<text text-anchor="middle" x="3382" y="-156.95" font-family="Times New Roman,serif" font-size="14.00">Evrart Claire: “你这是想干什么，哈里？”</text>
</g>
<!-- 10&#45;&gt;25 -->
<g id="edge7" class="edge">
<title>10&#45;&gt;25</title>
<path fill="none" stroke="black" d="M2602.38,-217.57C2787.34,-204.63 3047.55,-186.41 3215.49,-174.66"/>
<polygon fill="black" stroke="black" points="3215.68,-178.15 3225.41,-173.96 3215.19,-171.17 3215.68,-178.15"/>
</g>
<!-- 11 -->
<g id="node12" class="node">
<title>11</title>
<ellipse fill="none" stroke="black" cx="2821" cy="-378" rx="57.49" ry="18"/>
<text text-anchor="middle" x="2821" y="-372.95" font-family="Times New Roman,serif" font-size="14.00">Untitled hub</text>
</g>
<!-- 11&#45;&gt;2 -->
<g id="edge9" class="edge">
<title>11&#45;&gt;2</title>
<path fill="none" stroke="black" d="M2765.4,-372.78C2635.64,-362.93 2307.69,-338.03 2094.55,-321.85"/>
<polygon fill="black" stroke="black" points="2094.97,-318.37 2084.73,-321.1 2094.44,-325.35 2094.97,-318.37"/>
</g>
<!-- 20 -->
<g id="node20" class="node">
<title>20</title>
<ellipse fill="none" stroke="black" cx="2547" cy="-306" rx="125.56" ry="18"/>
<text text-anchor="middle" x="2547" y="-300.95" font-family="Times New Roman,serif" font-size="14.00">You: 悄悄爬向竹节虫。</text>
</g>
<!-- 11&#45;&gt;20 -->
<g id="edge10" class="edge">
<title>11&#45;&gt;20</title>
<path fill="none" stroke="black" d="M2777.58,-365.91C2734.63,-354.94 2668.18,-337.96 2617.62,-325.04"/>
<polygon fill="black" stroke="black" points="2618.79,-321.73 2608.23,-322.65 2617.06,-328.51 2618.79,-321.73"/>
</g>
<!-- 21 -->
<g id="node21" class="node">
<title>21</title>
<ellipse fill="none" stroke="black" cx="3095" cy="-306" rx="74.89" ry="18"/>
<text text-anchor="middle" x="3095" y="-300.95" font-family="Times New Roman,serif" font-size="14.00">You: “站住！”</text>
</g>
<!-- 11&#45;&gt;21 -->
<g id="edge11" class="edge">
<title>11&#45;&gt;21</title>
<path fill="none" stroke="black" d="M2864.41,-365.91C2910.24,-354.2 2982.84,-335.65 3034.32,-322.5"/>
<polygon fill="black" stroke="black" points="3035,-325.94 3043.82,-320.07 3033.27,-319.16 3035,-325.94"/>
</g>
<!-- 24 -->
<g id="node24" class="node">
<title>24</title>
<ellipse fill="none" stroke="black" cx="3750" cy="-306" rx="137.34" ry="18"/>
<text text-anchor="middle" x="3750" y="-300.95" font-family="Times New Roman,serif" font-size="14.00">You: 踮着脚走向竹节虫。</text>
</g>
<!-- 11&#45;&gt;24 -->
<g id="edge8" class="edge">
<title>11&#45;&gt;24</title>
<path fill="none" stroke="black" d="M2876.33,-372.83C3021.53,-361.89 3416.41,-332.14 3621.88,-316.65"/>
<polygon fill="black" stroke="black" points="3622.11,-320.15 3631.82,-315.9 3621.59,-313.17 3622.11,-320.15"/>
</g>
<!-- 12 -->
<g id="node13" class="node">
<title>12</title>
<ellipse fill="none" stroke="black" cx="3261" cy="-234" rx="379.42" ry="18"/>
<text text-anchor="middle" x="3261" y="-228.95" font-family="Times New Roman,serif" font-size="14.00">Fishing Rod: 你朝着你眼中的竹节虫大声呵斥，没想到它不过是根钓鱼竿。</text>
</g>
<!-- 12&#45;&gt;25 -->
<g id="edge12" class="edge">
<title>12&#45;&gt;25</title>
<path fill="none" stroke="black" d="M3290.91,-215.7C3306.58,-206.63 3325.98,-195.4 3342.84,-185.65"/>
<polygon fill="black" stroke="black" points="3344.22,-188.9 3351.12,-180.86 3340.71,-182.84 3344.22,-188.9"/>
</g>
<!-- 13 -->
<g id="node14" class="node">
<title>13</title>
<ellipse fill="none" stroke="black" cx="2512" cy="-450" rx="265.8" ry="18"/>
<text text-anchor="middle" x="2512" y="-444.95" font-family="Times New Roman,serif" font-size="14.00">Inland Empire: 这次肯定是竹节虫。你看——它动了！</text>
</g>
<!-- 13&#45;&gt;11 -->
<g id="edge13" class="edge">
<title>13&#45;&gt;11</title>
<path fill="none" stroke="black" d="M2586.01,-432.23C2640.79,-419.82 2714.29,-403.17 2764.41,-391.82"/>
<polygon fill="black" stroke="black" points="2764.91,-395.29 2773.89,-389.67 2763.36,-388.47 2764.91,-395.29"/>
</g>
<!-- 15 -->
<g id="node15" class="node">
<title>15</title>
<ellipse fill="none" stroke="black" cx="1206" cy="-90" rx="322.1" ry="18"/>
<text text-anchor="middle" x="1206" y="-84.95" font-family="Times New Roman,serif" font-size="14.00">You: “钓鱼爱好者？那还用说。那可是我平时唯一的乐趣了。”</text>
</g>
<!-- 15&#45;&gt;3 -->
<g id="edge14" class="edge">
<title>15&#45;&gt;3</title>
<path fill="none" stroke="black" d="M1195.86,-71.7C1191.29,-63.9 1185.79,-54.51 1180.71,-45.83"/>
<polygon fill="black" stroke="black" points="1183.85,-44.27 1175.78,-37.41 1177.81,-47.81 1183.85,-44.27"/>
</g>
<!-- 19 -->
<g id="node19" class="node">
<title>19</title>
<ellipse fill="none" stroke="black" cx="1411" cy="-162" rx="425.48" ry="18"/>
<text text-anchor="middle" x="1411" y="-156.95" font-family="Times New Roman,serif" font-size="14.00">Evrart Claire: “我看你好像挺喜欢我的钓鱼装备。你不会刚好也是个钓鱼爱好者吧？”</text>
</g>
<!-- 16&#45;&gt;19 -->
<g id="edge15" class="edge">
<title>16&#45;&gt;19</title>
<path fill="none" stroke="black" d="M1509.61,-215.7C1492.69,-206.65 1471.76,-195.47 1453.54,-185.73"/>
<polygon fill="black" stroke="black" points="1455.26,-182.69 1444.79,-181.06 1451.96,-188.86 1455.26,-182.69"/>
</g>
<!-- 18 -->
<g id="node18" class="node">
<title>18</title>
<ellipse fill="none" stroke="black" cx="3463" cy="-90" rx="239.7" ry="18"/>
<text text-anchor="middle" x="3463" y="-84.95" font-family="Times New Roman,serif" font-size="14.00">You: “我是想给你个惊喜。迷惑你，你懂得。”</text>
</g>
<!-- 18&#45;&gt;8 -->
<g id="edge16" class="edge">
<title>18&#45;&gt;8</title>
<path fill="none" stroke="black" d="M3497.85,-71.7C3516.24,-62.57 3539.02,-51.26 3558.75,-41.46"/>
<polygon fill="black" stroke="black" points="3560.3,-44.6 3567.7,-37.02 3557.19,-38.33 3560.3,-44.6"/>
</g>
<!-- 19&#45;&gt;9 -->
<g id="edge17" class="edge">
<title>19&#45;&gt;9</title>
<path fill="none" stroke="black" d="M1201.71,-145.9C1036.62,-133.98 807.69,-117.46 644.19,-105.66"/>
<polygon fill="black" stroke="black" points="644.76,-102.2 634.53,-104.97 644.25,-109.18 644.76,-102.2"/>
</g>
<!-- 19&#45;&gt;15 -->
<g id="edge19" class="edge">
<title>19&#45;&gt;15</title>
<path fill="none" stroke="black" d="M1360.32,-143.7C1332.13,-134.07 1296.83,-122.02 1267.11,-111.87"/>
<polygon fill="black" stroke="black" points="1268.47,-108.63 1257.87,-108.71 1266.21,-115.26 1268.47,-108.63"/>
</g>
<!-- 27 -->
<g id="node27" class="node">
<title>27</title>
<ellipse fill="none" stroke="black" cx="1823" cy="-90" rx="235.6" ry="18"/>
<text text-anchor="middle" x="1823" y="-84.95" font-family="Times New Roman,serif" font-size="14.00">You: “我觉得我曾经还可能是钓鱼之王呢……”</text>
</g>
<!-- 19&#45;&gt;27 -->
<g id="edge18" class="edge">
<title>19&#45;&gt;27</title>
<path fill="none" stroke="black" d="M1510.73,-144.05C1573.41,-133.41 1654.17,-119.68 1717.85,-108.86"/>
<polygon fill="black" stroke="black" points="1718.36,-112.33 1727.64,-107.2 1717.19,-105.43 1718.36,-112.33"/>
</g>
<!-- 20&#45;&gt;10 -->
<g id="edge20" class="edge">
<title>20&#45;&gt;10</title>
<path fill="none" stroke="black" d="M2508.31,-288.59C2485.99,-279.12 2457.64,-267.09 2433.46,-256.83"/>
<polygon fill="black" stroke="black" points="2435,-253.68 2424.42,-253 2432.26,-260.13 2435,-253.68"/>
</g>
<!-- 21&#45;&gt;12 -->
<g id="edge21" class="edge">
<title>21&#45;&gt;12</title>
<path fill="none" stroke="black" d="M3131.02,-289.81C3153.88,-280.17 3183.83,-267.54 3209.22,-256.83"/>
<polygon fill="black" stroke="black" points="3210.54,-260.08 3218.39,-252.97 3207.82,-253.63 3210.54,-260.08"/>
</g>
<!-- 22 -->
<g id="node22" class="node">
<title>22</title>
<ellipse fill="none" stroke="black" cx="4010" cy="-234" rx="351.78" ry="18"/>
<text text-anchor="middle" x="4010" y="-228.95" font-family="Times New Roman,serif" font-size="14.00">Fishing Rod: 漂亮！但握在你手里的不是竹节虫——而是一根钓鱼竿。</text>
</g>
<!-- 22&#45;&gt;25 -->
<g id="edge22" class="edge">
<title>22&#45;&gt;25</title>
<path fill="none" stroke="black" d="M3867.49,-217.12C3762.05,-205.36 3619.38,-189.46 3516,-177.94"/>
<polygon fill="black" stroke="black" points="3516.69,-174.49 3506.37,-176.86 3515.92,-181.45 3516.69,-174.49"/>
</g>
<!-- 23 -->
<g id="node23" class="node">
<title>23</title>
<ellipse fill="none" stroke="black" cx="4285" cy="-90" rx="227.93" ry="18"/>
<text text-anchor="middle" x="4285" y="-84.95" font-family="Times New Roman,serif" font-size="14.00">You: “呃，这是一种比较新奇的钓鱼方法。”</text>
</g>
<!-- 23&#45;&gt;6 -->
<g id="edge23" class="edge">
<title>23&#45;&gt;6</title>
<path fill="none" stroke="black" d="M4332.69,-71.97C4359.72,-62.31 4393.75,-50.16 4422.4,-39.93"/>
<polygon fill="black" stroke="black" points="4423.42,-43.28 4431.66,-36.62 4421.07,-36.69 4423.42,-43.28"/>
</g>
<!-- 24&#45;&gt;22 -->
<g id="edge24" class="edge">
<title>24&#45;&gt;22</title>
<path fill="none" stroke="black" d="M3808.34,-289.29C3845.92,-279.17 3895.12,-265.93 3935.51,-255.05"/>
<polygon fill="black" stroke="black" points="3936.17,-258.5 3944.92,-252.52 3934.35,-251.74 3936.17,-258.5"/>
</g>
<!-- 25&#45;&gt;7 -->
<g id="edge26" class="edge">
<title>25&#45;&gt;7</title>
<path fill="none" stroke="black" d="M3250.82,-147.96C3131.88,-136.13 2956.53,-118.69 2831.2,-106.23"/>
<polygon fill="black" stroke="black" points="2831.79,-102.77 2821.49,-105.27 2831.1,-109.74 2831.79,-102.77"/>
</g>
<!-- 25&#45;&gt;18 -->
<g id="edge25" class="edge">
<title>25&#45;&gt;18</title>
<path fill="none" stroke="black" d="M3402.02,-143.7C3411.75,-135.28 3423.63,-125.02 3434.31,-115.79"/>
<polygon fill="black" stroke="black" points="3436.5,-118.52 3441.78,-109.34 3431.92,-113.23 3436.5,-118.52"/>
</g>
<!-- 25&#45;&gt;23 -->
<g id="edge27" class="edge">
<title>25&#45;&gt;23</title>
<path fill="none" stroke="black" d="M3530.6,-149.48C3691.12,-137.04 3946.45,-117.24 4114.89,-104.19"/>
<polygon fill="black" stroke="black" points="4115.15,-107.68 4124.85,-103.41 4114.61,-100.7 4115.15,-107.68"/>
</g>
<!-- 26 -->
<g id="node26" class="node">
<title>26</title>
<ellipse fill="none" stroke="black" cx="1904" cy="-18" rx="166.51" ry="18"/>
<text text-anchor="middle" x="1904" y="-12.95" font-family="Times New Roman,serif" font-size="14.00">Evrart Claire: “哈哈，也许是吧。”</text>
</g>
<!-- 27&#45;&gt;26 -->
<g id="edge28" class="edge">
<title>27&#45;&gt;26</title>
<path fill="none" stroke="black" d="M1843.02,-71.7C1852.75,-63.28 1864.63,-53.02 1875.31,-43.79"/>
<polygon fill="black" stroke="black" points="1877.5,-46.52 1882.78,-37.34 1872.92,-41.23 1877.5,-46.52"/>
</g>
<!-- 29 -->
<g id="node29" class="node">
<title>29</title>
<polygon fill="none" stroke="black" points="2646,-540 2325.11,-522 2646,-504 2966.88,-522 2646,-540"/>
<text text-anchor="middle" x="2646" y="-516.95" font-family="Times New Roman,serif" font-size="14.00">Variable[&quot;village.orb_nethouse_tried_catching_phasmid&quot;]</text>
</g>
<!-- 28&#45;&gt;29 -->
<g id="edge29" class="edge">
<title>28&#45;&gt;29</title>
<path fill="none" stroke="black" d="M2777.43,-575.88C2752.32,-565.77 2720.45,-552.95 2694.39,-542.47"/>
<polygon fill="black" stroke="black" points="2695.96,-539.33 2685.38,-538.84 2693.35,-545.82 2695.96,-539.33"/>
</g>
<!-- 30 -->
<g id="node30" class="node">
<title>30</title>
<polygon fill="none" stroke="black" points="3130,-468 2796.08,-450 3130,-432 3463.91,-450 3130,-468"/>
<text text-anchor="middle" x="3130" y="-444.95" font-family="Times New Roman,serif" font-size="14.00">!(Variable[&quot;village.orb_nethouse_tried_catching_phasmid&quot;])</text>
</g>
<!-- 28&#45;&gt;30 -->
<g id="edge30" class="edge">
<title>28&#45;&gt;30</title>
<path fill="none" stroke="black" d="M2878.46,-576.14C2908.2,-566.81 2944.61,-554.24 2976,-540 3019.14,-520.44 3065.87,-492.36 3096.4,-473"/>
<polygon fill="black" stroke="black" points="3097.91,-476.19 3104.45,-467.86 3094.13,-470.3 3097.91,-476.19"/>
</g>
<!-- 29&#45;&gt;13 -->
<g id="edge31" class="edge">
<title>29&#45;&gt;13</title>
<path fill="none" stroke="black" d="M2615.92,-505.29C2597.92,-495.89 2574.74,-483.78 2554.84,-473.38"/>
<polygon fill="black" stroke="black" points="2556.61,-470.36 2546.12,-468.83 2553.37,-476.56 2556.61,-470.36"/>
</g>
<!-- 30&#45;&gt;11 -->
<g id="edge32" class="edge">
<title>30&#45;&gt;11</title>
<path fill="none" stroke="black" d="M3067.84,-434.92C3012.22,-422.32 2931.4,-404.01 2877.56,-391.81"/>
<polygon fill="black" stroke="black" points="2878.51,-388.44 2867.98,-389.64 2876.96,-395.27 2878.51,-388.44"/>
</g>
</g>
</svg>
