<?xml version="1.0" encoding="UTF-8" standalone="no"?>
<!DOCTYPE svg PUBLIC "-//W3C//DTD SVG 1.1//EN"
 "http://www.w3.org/Graphics/SVG/1.1/DTD/svg11.dtd">
<!-- Generated by graphviz version 12.2.1 (20241206.2353)
 -->
<!-- Title: G Pages: 1 -->
<svg width="4223pt" height="836pt"
 viewBox="0.00 0.00 4223.33 836.00" xmlns="http://www.w3.org/2000/svg" xmlns:xlink="http://www.w3.org/1999/xlink">
<g id="graph0" class="graph" transform="scale(1 1) rotate(0) translate(4 832)">
<title>G</title>
<polygon fill="white" stroke="none" points="-4,4 -4,-832 4219.33,-832 4219.33,4 -4,4"/>
<!-- 0 -->
<g id="node1" class="node">
<title>0</title>
<ellipse fill="none" stroke="black" cx="693.91" cy="-810" rx="39.07" ry="18"/>
<text text-anchor="middle" x="693.91" y="-804.95" font-family="Times New Roman,serif" font-size="14.00">START</text>
</g>
<!-- 1 -->
<g id="node2" class="node">
<title>1</title>
<ellipse fill="none" stroke="black" cx="693.91" cy="-738" rx="29.86" ry="18"/>
<text text-anchor="middle" x="693.91" y="-732.95" font-family="Times New Roman,serif" font-size="14.00">input</text>
</g>
<!-- 0&#45;&gt;1 -->
<g id="edge1" class="edge">
<title>0&#45;&gt;1</title>
<path fill="none" stroke="black" d="M693.91,-791.7C693.91,-784.41 693.91,-775.73 693.91,-767.54"/>
<polygon fill="black" stroke="black" points="697.41,-767.62 693.91,-757.62 690.41,-767.62 697.41,-767.62"/>
</g>
<!-- 4 -->
<g id="node5" class="node">
<title>4</title>
<ellipse fill="none" stroke="black" cx="693.91" cy="-666" rx="493.55" ry="18"/>
<text text-anchor="middle" x="693.91" y="-660.95" font-family="Times New Roman,serif" font-size="14.00">Reaction Speed: 那个是伊苏林迪竹节虫吗？看起来应该就是。快点——赶快抓住它，别让它跑了！</text>
</g>
<!-- 1&#45;&gt;4 -->
<g id="edge2" class="edge">
<title>1&#45;&gt;4</title>
<path fill="none" stroke="black" d="M693.91,-719.7C693.91,-712.41 693.91,-703.73 693.91,-695.54"/>
<polygon fill="black" stroke="black" points="697.41,-695.62 693.91,-685.62 690.41,-695.62 697.41,-695.62"/>
</g>
<!-- 2 -->
<g id="node3" class="node">
<title>2</title>
<ellipse fill="none" stroke="black" cx="313.91" cy="-378" rx="313.91" ry="18"/>
<text text-anchor="middle" x="313.91" y="-372.95" font-family="Times New Roman,serif" font-size="14.00">You: 等一下。那真的是竹节虫吗？你可不想让自己出洋相。</text>
</g>
<!-- 16 -->
<g id="node17" class="node">
<title>16</title>
<ellipse fill="none" stroke="black" cx="313.91" cy="-306" rx="296" ry="18"/>
<text text-anchor="middle" x="313.91" y="-300.95" font-family="Times New Roman,serif" font-size="14.00">Evrart Claire: “我觉得你从那根钓鱼竿也看不出什么来吧。”</text>
</g>
<!-- 2&#45;&gt;16 -->
<g id="edge3" class="edge">
<title>2&#45;&gt;16</title>
<path fill="none" stroke="black" d="M313.91,-359.7C313.91,-352.41 313.91,-343.73 313.91,-335.54"/>
<polygon fill="black" stroke="black" points="317.41,-335.62 313.91,-325.62 310.41,-335.62 317.41,-335.62"/>
</g>
<!-- 3 -->
<g id="node4" class="node">
<title>3</title>
<ellipse fill="none" stroke="black" cx="1296.91" cy="-738" rx="554.97" ry="18"/>
<text text-anchor="middle" x="1296.91" y="-732.95" font-family="Times New Roman,serif" font-size="14.00">Evrart Claire: “我猜也是，哈里，我就知道。我俩应该找个时间一起出去。像有价值的男人一样，团结一心。”</text>
</g>
<!-- 28 -->
<g id="node29" class="node">
<title>28</title>
<polygon fill="none" stroke="black" points="693.91,-612 373.02,-594 693.91,-576 1014.8,-594 693.91,-612"/>
<text text-anchor="middle" x="693.91" y="-588.95" font-family="Times New Roman,serif" font-size="14.00">Variable[&quot;village.orb_nethouse_tried_catching_phasmid&quot;]</text>
</g>
<!-- 4&#45;&gt;28 -->
<g id="edge4" class="edge">
<title>4&#45;&gt;28</title>
<path fill="none" stroke="black" d="M693.91,-647.7C693.91,-640.41 693.91,-631.73 693.91,-623.54"/>
<polygon fill="black" stroke="black" points="697.41,-623.62 693.91,-613.62 690.41,-623.62 697.41,-623.62"/>
</g>
<!-- 5 -->
<g id="node6" class="node">
<title>5</title>
<ellipse fill="none" stroke="black" cx="1170.91" cy="-234" rx="449.03" ry="18"/>
<text text-anchor="middle" x="1170.91" y="-228.95" font-family="Times New Roman,serif" font-size="14.00">Evrart Claire: 他的大肚皮随着笑声起起伏伏。“一个瘦削害羞的年轻姑娘吗？没关系的。”</text>
</g>
<!-- 6 -->
<g id="node7" class="node">
<title>6</title>
<ellipse fill="none" stroke="black" cx="3493.91" cy="-162" rx="260.68" ry="18"/>
<text text-anchor="middle" x="3493.91" y="-156.95" font-family="Times New Roman,serif" font-size="14.00">Evrart Claire: “也许我们应该找个时间去外面试试。”</text>
</g>
<!-- 7 -->
<g id="node8" class="node">
<title>7</title>
<ellipse fill="none" stroke="black" cx="1171.91" cy="-306" rx="247.37" ry="18"/>
<text text-anchor="middle" x="1171.91" y="-300.95" font-family="Times New Roman,serif" font-size="14.00">You: “抱歉，我把钓鱼竿当成了……别的东西。”</text>
</g>
<!-- 7&#45;&gt;5 -->
<g id="edge5" class="edge">
<title>7&#45;&gt;5</title>
<path fill="none" stroke="black" d="M1171.66,-287.7C1171.56,-280.41 1171.43,-271.73 1171.32,-263.54"/>
<polygon fill="black" stroke="black" points="1174.82,-263.57 1171.17,-253.62 1167.82,-263.67 1174.82,-263.57"/>
</g>
<!-- 8 -->
<g id="node9" class="node">
<title>8</title>
<ellipse fill="none" stroke="black" cx="2839.91" cy="-90" rx="598.47" ry="18"/>
<text text-anchor="middle" x="2839.91" y="-84.95" font-family="Times New Roman,serif" font-size="14.00">Evrart Claire: “好吧，你的确成功了，哈里。”他坐在椅子里，稍微调整了一下姿势。“你确实是个很让人惊喜的警官。”</text>
</g>
<!-- 9 -->
<g id="node10" class="node">
<title>9</title>
<ellipse fill="none" stroke="black" cx="2925.91" cy="-234" rx="322.1" ry="18"/>
<text text-anchor="middle" x="2925.91" y="-228.95" font-family="Times New Roman,serif" font-size="14.00">You: “没，我不过是想试试你。研究下你的优点，还有弱点。”</text>
</g>
<!-- 17 -->
<g id="node18" class="node">
<title>17</title>
<ellipse fill="none" stroke="black" cx="2856.91" cy="-162" rx="239.7" ry="18"/>
<text text-anchor="middle" x="2856.91" y="-156.95" font-family="Times New Roman,serif" font-size="14.00">You: “我是想给你个惊喜。迷惑你，你懂得。”</text>
</g>
<!-- 9&#45;&gt;17 -->
<g id="edge6" class="edge">
<title>9&#45;&gt;17</title>
<path fill="none" stroke="black" d="M2908.85,-215.7C2900.66,-207.39 2890.7,-197.28 2881.69,-188.14"/>
<polygon fill="black" stroke="black" points="2884.34,-185.85 2874.83,-181.18 2879.36,-190.76 2884.34,-185.85"/>
</g>
<!-- 10 -->
<g id="node11" class="node">
<title>10</title>
<ellipse fill="none" stroke="black" cx="1741.91" cy="-90" rx="481.27" ry="18"/>
<text text-anchor="middle" x="1741.91" y="-84.95" font-family="Times New Roman,serif" font-size="14.00">Fishing Rod: 你真是潜行大师。但是看看你抓到了什么——不是什么竹节虫，而是一根钓鱼竿！</text>
</g>
<!-- 25 -->
<g id="node26" class="node">
<title>25</title>
<ellipse fill="none" stroke="black" cx="1741.91" cy="-18" rx="166.51" ry="18"/>
<text text-anchor="middle" x="1741.91" y="-12.95" font-family="Times New Roman,serif" font-size="14.00">Evrart Claire: “哈哈，也许是吧。”</text>
</g>
<!-- 10&#45;&gt;25 -->
<g id="edge7" class="edge">
<title>10&#45;&gt;25</title>
<path fill="none" stroke="black" d="M1741.91,-71.7C1741.91,-64.41 1741.91,-55.73 1741.91,-47.54"/>
<polygon fill="black" stroke="black" points="1745.41,-47.62 1741.91,-37.62 1738.41,-47.62 1745.41,-47.62"/>
</g>
<!-- 11 -->
<g id="node12" class="node">
<title>11</title>
<ellipse fill="none" stroke="black" cx="693.91" cy="-450" rx="57.49" ry="18"/>
<text text-anchor="middle" x="693.91" y="-444.95" font-family="Times New Roman,serif" font-size="14.00">Untitled hub</text>
</g>
<!-- 11&#45;&gt;2 -->
<g id="edge9" class="edge">
<title>11&#45;&gt;2</title>
<path fill="none" stroke="black" d="M645.4,-440.06C587.83,-429.46 490.27,-411.49 415.86,-397.78"/>
<polygon fill="black" stroke="black" points="416.55,-394.35 406.08,-395.98 415.28,-401.23 416.55,-394.35"/>
</g>
<!-- 20 -->
<g id="node21" class="node">
<title>20</title>
<ellipse fill="none" stroke="black" cx="2988.91" cy="-378" rx="74.89" ry="18"/>
<text text-anchor="middle" x="2988.91" y="-372.95" font-family="Times New Roman,serif" font-size="14.00">You: “站住！”</text>
</g>
<!-- 11&#45;&gt;20 -->
<g id="edge10" class="edge">
<title>11&#45;&gt;20</title>
<path fill="none" stroke="black" d="M751.21,-447.25C1060.61,-437.82 2531.45,-392.95 2903.33,-381.61"/>
<polygon fill="black" stroke="black" points="2903.39,-385.11 2913.28,-381.31 2903.18,-378.11 2903.39,-385.11"/>
</g>
<!-- 21 -->
<g id="node22" class="node">
<title>21</title>
<ellipse fill="none" stroke="black" cx="730.91" cy="-90" rx="351.78" ry="18"/>
<text text-anchor="middle" x="730.91" y="-84.95" font-family="Times New Roman,serif" font-size="14.00">Fishing Rod: 漂亮！但握在你手里的不是竹节虫——而是一根钓鱼竿。</text>
</g>
<!-- 11&#45;&gt;21 -->
<g id="edge11" class="edge">
<title>11&#45;&gt;21</title>
<path fill="none" stroke="black" d="M685.82,-432.15C681.17,-421.9 675.56,-408.43 671.91,-396 660.58,-357.44 655.91,-347.19 655.91,-307 655.91,-307 655.91,-307 655.91,-233 655.91,-188.36 685.25,-144.01 707.23,-117.05"/>
<polygon fill="black" stroke="black" points="709.89,-119.32 713.66,-109.42 704.54,-114.81 709.89,-119.32"/>
</g>
<!-- 24 -->
<g id="node25" class="node">
<title>24</title>
<ellipse fill="none" stroke="black" cx="1517.91" cy="-378" rx="201.82" ry="18"/>
<text text-anchor="middle" x="1517.91" y="-372.95" font-family="Times New Roman,serif" font-size="14.00">Evrart Claire: “你这是想干什么，哈里？”</text>
</g>
<!-- 11&#45;&gt;24 -->
<g id="edge8" class="edge">
<title>11&#45;&gt;24</title>
<path fill="none" stroke="black" d="M748.93,-444.33C872.9,-433.79 1177.75,-407.9 1364.23,-392.05"/>
<polygon fill="black" stroke="black" points="1364.34,-395.56 1374,-391.22 1363.74,-388.58 1364.34,-395.56"/>
</g>
<!-- 12 -->
<g id="node13" class="node">
<title>12</title>
<ellipse fill="none" stroke="black" cx="3835.91" cy="-90" rx="379.42" ry="18"/>
<text text-anchor="middle" x="3835.91" y="-84.95" font-family="Times New Roman,serif" font-size="14.00">Fishing Rod: 你朝着你眼中的竹节虫大声呵斥，没想到它不过是根钓鱼竿。</text>
</g>
<!-- 12&#45;&gt;25 -->
<g id="edge12" class="edge">
<title>12&#45;&gt;25</title>
<path fill="none" stroke="black" d="M3568.6,-76.87C3527.84,-75.15 3486.26,-73.47 3446.91,-72 2885.63,-51.01 2220.2,-32.03 1913,-23.61"/>
<polygon fill="black" stroke="black" points="1913.38,-20.11 1903.29,-23.34 1913.19,-27.11 1913.38,-20.11"/>
</g>
<!-- 13 -->
<g id="node14" class="node">
<title>13</title>
<ellipse fill="none" stroke="black" cx="693.91" cy="-522" rx="265.8" ry="18"/>
<text text-anchor="middle" x="693.91" y="-516.95" font-family="Times New Roman,serif" font-size="14.00">Inland Empire: 这次肯定是竹节虫。你看——它动了！</text>
</g>
<!-- 13&#45;&gt;11 -->
<g id="edge13" class="edge">
<title>13&#45;&gt;11</title>
<path fill="none" stroke="black" d="M693.91,-503.7C693.91,-496.41 693.91,-487.73 693.91,-479.54"/>
<polygon fill="black" stroke="black" points="697.41,-479.62 693.91,-469.62 690.41,-479.62 697.41,-479.62"/>
</g>
<!-- 14 -->
<g id="node15" class="node">
<title>14</title>
<ellipse fill="none" stroke="black" cx="1296.91" cy="-810" rx="322.1" ry="18"/>
<text text-anchor="middle" x="1296.91" y="-804.95" font-family="Times New Roman,serif" font-size="14.00">You: “钓鱼爱好者？那还用说。那可是我平时唯一的乐趣了。”</text>
</g>
<!-- 14&#45;&gt;3 -->
<g id="edge14" class="edge">
<title>14&#45;&gt;3</title>
<path fill="none" stroke="black" d="M1296.91,-791.7C1296.91,-784.41 1296.91,-775.73 1296.91,-767.54"/>
<polygon fill="black" stroke="black" points="1300.41,-767.62 1296.91,-757.62 1293.41,-767.62 1300.41,-767.62"/>
</g>
<!-- 15 -->
<g id="node16" class="node">
<title>15</title>
<ellipse fill="none" stroke="black" cx="2347.91" cy="-234" rx="238.16" ry="18"/>
<text text-anchor="middle" x="2347.91" y="-228.95" font-family="Times New Roman,serif" font-size="14.00">Fishing Rod: 肯定不是竹节虫。绝对是钓鱼竿。</text>
</g>
<!-- 19 -->
<g id="node20" class="node">
<title>19</title>
<ellipse fill="none" stroke="black" cx="2191.91" cy="-162" rx="125.56" ry="18"/>
<text text-anchor="middle" x="2191.91" y="-156.95" font-family="Times New Roman,serif" font-size="14.00">You: 悄悄爬向竹节虫。</text>
</g>
<!-- 15&#45;&gt;19 -->
<g id="edge15" class="edge">
<title>15&#45;&gt;19</title>
<path fill="none" stroke="black" d="M2309.75,-215.88C2288.49,-206.34 2261.83,-194.38 2239.25,-184.24"/>
<polygon fill="black" stroke="black" points="2240.81,-181.11 2230.25,-180.2 2237.94,-187.49 2240.81,-181.11"/>
</g>
<!-- 17&#45;&gt;8 -->
<g id="edge16" class="edge">
<title>17&#45;&gt;8</title>
<path fill="none" stroke="black" d="M2852.71,-143.7C2850.92,-136.32 2848.78,-127.52 2846.77,-119.25"/>
<polygon fill="black" stroke="black" points="2850.18,-118.47 2844.42,-109.58 2843.38,-120.12 2850.18,-118.47"/>
</g>
<!-- 18 -->
<g id="node19" class="node">
<title>18</title>
<ellipse fill="none" stroke="black" cx="2105.91" cy="-306" rx="425.48" ry="18"/>
<text text-anchor="middle" x="2105.91" y="-300.95" font-family="Times New Roman,serif" font-size="14.00">Evrart Claire: “我看你好像挺喜欢我的钓鱼装备。你不会刚好也是个钓鱼爱好者吧？”</text>
</g>
<!-- 18&#45;&gt;9 -->
<g id="edge17" class="edge">
<title>18&#45;&gt;9</title>
<path fill="none" stroke="black" d="M2289.68,-289.31C2424.92,-277.77 2607.98,-262.14 2743.02,-250.61"/>
<polygon fill="black" stroke="black" points="2743.12,-254.12 2752.78,-249.78 2742.52,-247.14 2743.12,-254.12"/>
</g>
<!-- 18&#45;&gt;15 -->
<g id="edge19" class="edge">
<title>18&#45;&gt;15</title>
<path fill="none" stroke="black" d="M2165.73,-287.7C2199.98,-277.79 2243.1,-265.32 2278.79,-254.99"/>
<polygon fill="black" stroke="black" points="2279.52,-258.42 2288.16,-252.28 2277.58,-251.7 2279.52,-258.42"/>
</g>
<!-- 27 -->
<g id="node28" class="node">
<title>27</title>
<ellipse fill="none" stroke="black" cx="1864.91" cy="-234" rx="226.9" ry="18"/>
<text text-anchor="middle" x="1864.91" y="-228.95" font-family="Times New Roman,serif" font-size="14.00">Variable[&quot;village.orb_nethouse_tried_catching_phasmid&quot;]</text>
</g>
<!-- 18&#45;&gt;27 -->
<g id="edge18" class="edge">
<title>18&#45;&gt;27</title>
<path fill="none" stroke="black" d="M2046.34,-287.7C2012.23,-277.79 1969.29,-265.32 1933.74,-254.99"/>
<polygon fill="black" stroke="black" points="1935,-251.71 1924.42,-252.28 1933.05,-258.44 1935,-251.71"/>
</g>
<!-- 19&#45;&gt;10 -->
<g id="edge20" class="edge">
<title>19&#45;&gt;10</title>
<path fill="none" stroke="black" d="M2109.11,-148.12C2039.91,-137.36 1940.31,-121.86 1862.3,-109.73"/>
<polygon fill="black" stroke="black" points="1862.86,-106.27 1852.44,-108.19 1861.79,-113.19 1862.86,-106.27"/>
</g>
<!-- 20&#45;&gt;12 -->
<g id="edge21" class="edge">
<title>20&#45;&gt;12</title>
<path fill="none" stroke="black" d="M3060.51,-372.22C3224.33,-360.15 3620.81,-324.12 3730.91,-252 3780.11,-219.77 3811.34,-155.6 3826.02,-118.75"/>
<polygon fill="black" stroke="black" points="3829.19,-120.26 3829.5,-109.67 3822.65,-117.75 3829.19,-120.26"/>
</g>
<!-- 21&#45;&gt;25 -->
<g id="edge22" class="edge">
<title>21&#45;&gt;25</title>
<path fill="none" stroke="black" d="M934.28,-74.92C1129.37,-61.41 1419.27,-41.34 1593.51,-29.28"/>
<polygon fill="black" stroke="black" points="1593.57,-32.78 1603.3,-28.6 1593.08,-25.8 1593.57,-32.78"/>
</g>
<!-- 22 -->
<g id="node23" class="node">
<title>22</title>
<ellipse fill="none" stroke="black" cx="3493.91" cy="-234" rx="227.93" ry="18"/>
<text text-anchor="middle" x="3493.91" y="-228.95" font-family="Times New Roman,serif" font-size="14.00">You: “呃，这是一种比较新奇的钓鱼方法。”</text>
</g>
<!-- 22&#45;&gt;6 -->
<g id="edge23" class="edge">
<title>22&#45;&gt;6</title>
<path fill="none" stroke="black" d="M3493.91,-215.7C3493.91,-208.41 3493.91,-199.73 3493.91,-191.54"/>
<polygon fill="black" stroke="black" points="3497.41,-191.62 3493.91,-181.62 3490.41,-191.62 3497.41,-191.62"/>
</g>
<!-- 23 -->
<g id="node24" class="node">
<title>23</title>
<ellipse fill="none" stroke="black" cx="2969.91" cy="-306" rx="137.34" ry="18"/>
<text text-anchor="middle" x="2969.91" y="-300.95" font-family="Times New Roman,serif" font-size="14.00">You: 踮着脚走向竹节虫。</text>
</g>
<!-- 23&#45;&gt;22 -->
<g id="edge24" class="edge">
<title>23&#45;&gt;22</title>
<path fill="none" stroke="black" d="M3063.59,-292.49C3149.16,-281.05 3276.27,-264.07 3370.17,-251.53"/>
<polygon fill="black" stroke="black" points="3370.51,-255.02 3379.95,-250.22 3369.58,-248.08 3370.51,-255.02"/>
</g>
<!-- 24&#45;&gt;7 -->
<g id="edge26" class="edge">
<title>24&#45;&gt;7</title>
<path fill="none" stroke="black" d="M1438.96,-361.03C1387,-350.51 1318.76,-336.71 1264.27,-325.69"/>
<polygon fill="black" stroke="black" points="1265.2,-322.3 1254.7,-323.75 1263.81,-329.16 1265.2,-322.3"/>
</g>
<!-- 24&#45;&gt;18 -->
<g id="edge25" class="edge">
<title>24&#45;&gt;18</title>
<path fill="none" stroke="black" d="M1635.49,-363C1727.7,-352.02 1856.66,-336.67 1956.24,-324.82"/>
<polygon fill="black" stroke="black" points="1956.6,-328.3 1966.11,-323.64 1955.77,-321.35 1956.6,-328.3"/>
</g>
<!-- 24&#45;&gt;23 -->
<g id="edge27" class="edge">
<title>24&#45;&gt;23</title>
<path fill="none" stroke="black" d="M1691.97,-368.61C1983.76,-354.54 2565.71,-326.49 2831.6,-313.67"/>
<polygon fill="black" stroke="black" points="2831.53,-317.18 2841.35,-313.2 2831.19,-310.18 2831.53,-317.18"/>
</g>
<!-- 26 -->
<g id="node27" class="node">
<title>26</title>
<ellipse fill="none" stroke="black" cx="1872.91" cy="-810" rx="235.6" ry="18"/>
<text text-anchor="middle" x="1872.91" y="-804.95" font-family="Times New Roman,serif" font-size="14.00">You: “我觉得我曾经还可能是钓鱼之王呢……”</text>
</g>
<!-- 26&#45;&gt;26 -->
<g id="edge28" class="edge">
<title>26&#45;&gt;26</title>
<path fill="none" stroke="black" d="M2034.19,-823.5C2085.72,-823.34 2126.51,-818.84 2126.51,-810 2126.51,-801.81 2091.55,-797.35 2045.47,-796.61"/>
<polygon fill="black" stroke="black" points="2045.73,-793.11 2035.7,-796.52 2045.67,-800.11 2045.73,-793.11"/>
</g>
<!-- 29 -->
<g id="node30" class="node">
<title>29</title>
<polygon fill="none" stroke="black" points="1251.91,-180 917.99,-162 1251.91,-144 1585.82,-162 1251.91,-180"/>
<text text-anchor="middle" x="1251.91" y="-156.95" font-family="Times New Roman,serif" font-size="14.00">!(Variable[&quot;village.orb_nethouse_tried_catching_phasmid&quot;])</text>
</g>
<!-- 27&#45;&gt;29 -->
<g id="edge29" class="edge">
<title>27&#45;&gt;29</title>
<path fill="none" stroke="black" d="M1739.01,-218.62C1629.82,-206.15 1473.08,-188.26 1367.14,-176.16"/>
<polygon fill="black" stroke="black" points="1367.6,-172.69 1357.27,-175.03 1366.81,-179.64 1367.6,-172.69"/>
</g>
<!-- 30 -->
<g id="node31" class="node">
<title>30</title>
<ellipse fill="none" stroke="black" cx="1864.91" cy="-162" rx="27" ry="18"/>
<text text-anchor="middle" x="1864.91" y="-156.95" font-family="Times New Roman,serif" font-size="14.00">30</text>
</g>
<!-- 27&#45;&gt;30 -->
<g id="edge30" class="edge">
<title>27&#45;&gt;30</title>
<path fill="none" stroke="black" d="M1864.91,-215.7C1864.91,-208.41 1864.91,-199.73 1864.91,-191.54"/>
<polygon fill="black" stroke="black" points="1868.41,-191.62 1864.91,-181.62 1861.41,-191.62 1868.41,-191.62"/>
</g>
<!-- 28&#45;&gt;13 -->
<g id="edge31" class="edge">
<title>28&#45;&gt;13</title>
<path fill="none" stroke="black" d="M693.91,-575.7C693.91,-568.41 693.91,-559.73 693.91,-551.54"/>
<polygon fill="black" stroke="black" points="697.41,-551.62 693.91,-541.62 690.41,-551.62 697.41,-551.62"/>
</g>
<!-- 29&#45;&gt;11 -->
<g id="edge32" class="edge">
<title>29&#45;&gt;11</title>
<path fill="none" stroke="black" d="M1058.82,-170.06C914.24,-177.31 737.34,-191.15 712.91,-216 659.14,-270.67 674.39,-371.54 686.07,-420.65"/>
<polygon fill="black" stroke="black" points="682.64,-421.38 688.47,-430.22 689.43,-419.67 682.64,-421.38"/>
</g>
</g>
</svg>
