<?xml version="1.0" encoding="UTF-8" standalone="no"?>
<!DOCTYPE svg PUBLIC "-//W3C//DTD SVG 1.1//EN"
 "http://www.w3.org/Graphics/SVG/1.1/DTD/svg11.dtd">
<!-- Generated by graphviz version 12.2.1 (20241206.2353)
 -->
<!-- Title: G Pages: 1 -->
<svg width="4352pt" height="188pt"
 viewBox="0.00 0.00 4351.54 188.00" xmlns="http://www.w3.org/2000/svg" xmlns:xlink="http://www.w3.org/1999/xlink">
<g id="graph0" class="graph" transform="scale(1 1) rotate(0) translate(4 184)">
<title>G</title>
<polygon fill="white" stroke="none" points="-4,4 -4,-184 4347.54,-184 4347.54,4 -4,4"/>
<!-- 0 -->
<g id="node1" class="node">
<title>0</title>
<ellipse fill="none" stroke="black" cx="2129.52" cy="-162" rx="39.07" ry="18"/>
<text text-anchor="middle" x="2129.52" y="-156.95" font-family="Times New Roman,serif" font-size="14.00">START</text>
</g>
<!-- 1 -->
<g id="node2" class="node">
<title>1</title>
<ellipse fill="none" stroke="black" cx="2129.52" cy="-90" rx="29.86" ry="18"/>
<text text-anchor="middle" x="2129.52" y="-84.95" font-family="Times New Roman,serif" font-size="14.00">input</text>
</g>
<!-- 0&#45;&gt;1 -->
<g id="edge1" class="edge">
<title>0&#45;&gt;1</title>
<path fill="none" stroke="black" d="M2129.52,-143.7C2129.52,-136.41 2129.52,-127.73 2129.52,-119.54"/>
<polygon fill="black" stroke="black" points="2133.02,-119.62 2129.52,-109.62 2126.02,-119.62 2133.02,-119.62"/>
</g>
<!-- 2 -->
<g id="node3" class="node">
<title>2</title>
<ellipse fill="none" stroke="black" cx="253.52" cy="-18" rx="253.52" ry="18"/>
<text text-anchor="middle" x="253.52" y="-12.95" font-family="Times New Roman,serif" font-size="14.00">Smoker on the Balcony: &quot;Don&#39;t even get me started on beauty...&quot;</text>
</g>
<!-- 1&#45;&gt;2 -->
<g id="edge2" class="edge">
<title>1&#45;&gt;2</title>
<path fill="none" stroke="black" d="M2099.28,-88.36C1937.26,-84.88 1155.28,-67.13 516.52,-36 492.44,-34.83 467.14,-33.42 442.13,-31.92"/>
<polygon fill="black" stroke="black" points="442.37,-28.42 432.17,-31.31 441.94,-35.41 442.37,-28.42"/>
</g>
<!-- 3 -->
<g id="node4" class="node">
<title>3</title>
<ellipse fill="none" stroke="black" cx="782.52" cy="-18" rx="257.1" ry="18"/>
<text text-anchor="middle" x="782.52" y="-12.95" font-family="Times New Roman,serif" font-size="14.00">Smoker on the Balcony: &quot;*Obviously* I&#39;m gonna quit some day.&quot;</text>
</g>
<!-- 1&#45;&gt;3 -->
<g id="edge3" class="edge">
<title>1&#45;&gt;3</title>
<path fill="none" stroke="black" d="M2099.42,-87.69C1972.07,-82.1 1464.99,-59.52 1048.52,-36 1025.08,-34.68 1000.48,-33.21 976.11,-31.71"/>
<polygon fill="black" stroke="black" points="976.64,-28.24 966.44,-31.11 976.21,-35.22 976.64,-28.24"/>
</g>
<!-- 5 -->
<g id="node5" class="node">
<title>5</title>
<ellipse fill="none" stroke="black" cx="1317.52" cy="-18" rx="259.66" ry="18"/>
<text text-anchor="middle" x="1317.52" y="-12.95" font-family="Times New Roman,serif" font-size="14.00">Smoker on the Balcony: &quot;Can&#39;t do it with class? Don&#39;t do it at all.&quot;</text>
</g>
<!-- 1&#45;&gt;5 -->
<g id="edge4" class="edge">
<title>1&#45;&gt;5</title>
<path fill="none" stroke="black" d="M2100.14,-86.47C2002.89,-78.08 1686.31,-50.79 1486.84,-33.6"/>
<polygon fill="black" stroke="black" points="1487.43,-30.13 1477.16,-32.76 1486.83,-37.11 1487.43,-30.13"/>
</g>
<!-- 6 -->
<g id="node6" class="node">
<title>6</title>
<ellipse fill="none" stroke="black" cx="1868.52" cy="-18" rx="273.48" ry="18"/>
<text text-anchor="middle" x="1868.52" y="-12.95" font-family="Times New Roman,serif" font-size="14.00">Smoker on the Balcony: &quot;I&#39;m practically a shrink minus the diploma.&quot;</text>
</g>
<!-- 1&#45;&gt;6 -->
<g id="edge5" class="edge">
<title>1&#45;&gt;6</title>
<path fill="none" stroke="black" d="M2102.57,-81.77C2065.16,-71.74 1996.07,-53.21 1942.61,-38.87"/>
<polygon fill="black" stroke="black" points="1943.83,-35.58 1933.26,-36.37 1942.02,-42.34 1943.83,-35.58"/>
</g>
<!-- 7 -->
<g id="node7" class="node">
<title>7</title>
<ellipse fill="none" stroke="black" cx="2391.52" cy="-18" rx="232.02" ry="18"/>
<text text-anchor="middle" x="2391.52" y="-12.95" font-family="Times New Roman,serif" font-size="14.00">Smoker on the Balcony: &quot;Could I get a refill here, please?&quot;</text>
</g>
<!-- 1&#45;&gt;7 -->
<g id="edge6" class="edge">
<title>1&#45;&gt;7</title>
<path fill="none" stroke="black" d="M2156.57,-81.77C2194.3,-71.69 2264.15,-53.03 2317.92,-38.66"/>
<polygon fill="black" stroke="black" points="2318.57,-42.11 2327.33,-36.15 2316.76,-35.35 2318.57,-42.11"/>
</g>
<!-- 8 -->
<g id="node8" class="node">
<title>8</title>
<ellipse fill="none" stroke="black" cx="2928.52" cy="-18" rx="286.78" ry="18"/>
<text text-anchor="middle" x="2928.52" y="-12.95" font-family="Times New Roman,serif" font-size="14.00">Smoker on the Balcony: &quot;Yes, yes, I&#39;m very attractive. Great, thank you.&quot;</text>
</g>
<!-- 1&#45;&gt;8 -->
<g id="edge7" class="edge">
<title>1&#45;&gt;8</title>
<path fill="none" stroke="black" d="M2158.9,-86.43C2253.98,-78.1 2558.43,-51.42 2754.71,-34.23"/>
<polygon fill="black" stroke="black" points="2754.85,-37.73 2764.51,-33.37 2754.24,-30.75 2754.85,-37.73"/>
</g>
<!-- 9 -->
<g id="node9" class="node">
<title>9</title>
<ellipse fill="none" stroke="black" cx="3525.52" cy="-18" rx="291.9" ry="18"/>
<text text-anchor="middle" x="3525.52" y="-12.95" font-family="Times New Roman,serif" font-size="14.00">Smoker on the Balcony: &quot;Okay, *you* tell me this doesn&#39;t taste like shit...&quot;</text>
</g>
<!-- 1&#45;&gt;9 -->
<g id="edge8" class="edge">
<title>1&#45;&gt;9</title>
<path fill="none" stroke="black" d="M2159.57,-87.63C2287.82,-81.79 2802.09,-58.15 3224.52,-36 3250.93,-34.61 3278.65,-33.11 3306.12,-31.6"/>
<polygon fill="black" stroke="black" points="3306.16,-35.1 3315.95,-31.05 3305.77,-28.11 3306.16,-35.1"/>
</g>
<!-- 10 -->
<g id="node10" class="node">
<title>10</title>
<ellipse fill="none" stroke="black" cx="4089.52" cy="-18" rx="254.03" ry="18"/>
<text text-anchor="middle" x="4089.52" y="-12.95" font-family="Times New Roman,serif" font-size="14.00">Smoker on the Balcony: &quot;*How* can a bar be out of vermouth?&quot;</text>
</g>
<!-- 1&#45;&gt;10 -->
<g id="edge9" class="edge">
<title>1&#45;&gt;10</title>
<path fill="none" stroke="black" d="M2159.66,-88.43C2326.38,-85.23 3152.29,-68.31 3826.52,-36 3850.59,-34.85 3875.9,-33.45 3900.91,-31.95"/>
<polygon fill="black" stroke="black" points="3901.09,-35.45 3910.86,-31.35 3900.67,-28.46 3901.09,-35.45"/>
</g>
</g>
</svg>
