<?xml version="1.0" encoding="UTF-8" standalone="no"?>
<!DOCTYPE svg PUBLIC "-//W3C//DTD SVG 1.1//EN"
 "http://www.w3.org/Graphics/SVG/1.1/DTD/svg11.dtd">
<!-- Generated by graphviz version 12.2.1 (20241206.2353)
 -->
<!-- Title: G Pages: 1 -->
<svg width="3887pt" height="188pt"
 viewBox="0.00 0.00 3886.52 188.00" xmlns="http://www.w3.org/2000/svg" xmlns:xlink="http://www.w3.org/1999/xlink">
<g id="graph0" class="graph" transform="scale(1 1) rotate(0) translate(4 184)">
<title>G</title>
<polygon fill="white" stroke="none" points="-4,4 -4,-184 3882.52,-184 3882.52,4 -4,4"/>
<!-- 0 -->
<g id="node1" class="node">
<title>0</title>
<ellipse fill="none" stroke="black" cx="2122.52" cy="-162" rx="39.07" ry="18"/>
<text text-anchor="middle" x="2122.52" y="-156.95" font-family="Times New Roman,serif" font-size="14.00">START</text>
</g>
<!-- 1 -->
<g id="node2" class="node">
<title>1</title>
<ellipse fill="none" stroke="black" cx="2122.52" cy="-90" rx="29.86" ry="18"/>
<text text-anchor="middle" x="2122.52" y="-84.95" font-family="Times New Roman,serif" font-size="14.00">input</text>
</g>
<!-- 0&#45;&gt;1 -->
<g id="edge1" class="edge">
<title>0&#45;&gt;1</title>
<path fill="none" stroke="black" d="M2122.52,-143.7C2122.52,-136.41 2122.52,-127.73 2122.52,-119.54"/>
<polygon fill="black" stroke="black" points="2126.02,-119.62 2122.52,-109.62 2119.02,-119.62 2126.02,-119.62"/>
</g>
<!-- 2 -->
<g id="node3" class="node">
<title>2</title>
<ellipse fill="none" stroke="black" cx="253.52" cy="-18" rx="253.52" ry="18"/>
<text text-anchor="middle" x="253.52" y="-12.95" font-family="Times New Roman,serif" font-size="14.00">Smoker on the Balcony: &quot;Don&#39;t even get me started on beauty...&quot;</text>
</g>
<!-- 1&#45;&gt;2 -->
<g id="edge2" class="edge">
<title>1&#45;&gt;2</title>
<path fill="none" stroke="black" d="M2092.41,-88.36C1931.09,-84.86 1152.51,-67.04 516.52,-36 492.44,-34.82 467.14,-33.41 442.13,-31.91"/>
<polygon fill="black" stroke="black" points="442.37,-28.42 432.17,-31.31 441.94,-35.41 442.37,-28.42"/>
</g>
<!-- 3 -->
<g id="node4" class="node">
<title>3</title>
<ellipse fill="none" stroke="black" cx="782.52" cy="-18" rx="257.1" ry="18"/>
<text text-anchor="middle" x="782.52" y="-12.95" font-family="Times New Roman,serif" font-size="14.00">Smoker on the Balcony: &quot;*Obviously* I&#39;m gonna quit some day.&quot;</text>
</g>
<!-- 1&#45;&gt;3 -->
<g id="edge3" class="edge">
<title>1&#45;&gt;3</title>
<path fill="none" stroke="black" d="M2092.64,-87.68C1966.24,-82.06 1462.91,-59.37 1049.52,-36 1025.99,-34.67 1001.3,-33.2 976.84,-31.7"/>
<polygon fill="black" stroke="black" points="977.33,-28.22 967.13,-31.1 976.9,-35.21 977.33,-28.22"/>
</g>
<!-- 5 -->
<g id="node6" class="node">
<title>5</title>
<ellipse fill="none" stroke="black" cx="1331.52" cy="-18" rx="273.48" ry="18"/>
<text text-anchor="middle" x="1331.52" y="-12.95" font-family="Times New Roman,serif" font-size="14.00">Smoker on the Balcony: &quot;I&#39;m practically a shrink minus the diploma.&quot;</text>
</g>
<!-- 1&#45;&gt;5 -->
<g id="edge4" class="edge">
<title>1&#45;&gt;5</title>
<path fill="none" stroke="black" d="M2092.95,-86.38C1998.01,-77.98 1695.78,-51.24 1501.85,-34.07"/>
<polygon fill="black" stroke="black" points="1502.17,-30.59 1491.9,-33.19 1501.55,-37.56 1502.17,-30.59"/>
</g>
<!-- 6 -->
<g id="node7" class="node">
<title>6</title>
<ellipse fill="none" stroke="black" cx="1854.52" cy="-18" rx="232.02" ry="18"/>
<text text-anchor="middle" x="1854.52" y="-12.95" font-family="Times New Roman,serif" font-size="14.00">Smoker on the Balcony: &quot;Could I get a refill here, please?&quot;</text>
</g>
<!-- 1&#45;&gt;6 -->
<g id="edge5" class="edge">
<title>1&#45;&gt;6</title>
<path fill="none" stroke="black" d="M2095.34,-81.9C2056.79,-71.83 1984.77,-53.02 1929.49,-38.58"/>
<polygon fill="black" stroke="black" points="1930.7,-35.28 1920.14,-36.14 1928.93,-42.05 1930.7,-35.28"/>
</g>
<!-- 7 -->
<g id="node8" class="node">
<title>7</title>
<ellipse fill="none" stroke="black" cx="2391.52" cy="-18" rx="286.78" ry="18"/>
<text text-anchor="middle" x="2391.52" y="-12.95" font-family="Times New Roman,serif" font-size="14.00">Smoker on the Balcony: &quot;Yes, yes, I&#39;m very attractive. Great, thank you.&quot;</text>
</g>
<!-- 1&#45;&gt;7 -->
<g id="edge6" class="edge">
<title>1&#45;&gt;7</title>
<path fill="none" stroke="black" d="M2149.79,-81.9C2188.29,-71.88 2260.07,-53.2 2315.45,-38.79"/>
<polygon fill="black" stroke="black" points="2316.03,-42.26 2324.82,-36.35 2314.27,-35.49 2316.03,-42.26"/>
</g>
<!-- 8 -->
<g id="node9" class="node">
<title>8</title>
<ellipse fill="none" stroke="black" cx="2988.52" cy="-18" rx="291.9" ry="18"/>
<text text-anchor="middle" x="2988.52" y="-12.95" font-family="Times New Roman,serif" font-size="14.00">Smoker on the Balcony: &quot;Okay, *you* tell me this doesn&#39;t taste like shit...&quot;</text>
</g>
<!-- 1&#45;&gt;8 -->
<g id="edge7" class="edge">
<title>1&#45;&gt;8</title>
<path fill="none" stroke="black" d="M2152.33,-86.59C2253.71,-78.39 2590.79,-51.15 2804.75,-33.85"/>
<polygon fill="black" stroke="black" points="2804.92,-37.35 2814.61,-33.06 2804.36,-30.37 2804.92,-37.35"/>
</g>
<!-- 9 -->
<g id="node10" class="node">
<title>9</title>
<ellipse fill="none" stroke="black" cx="3552.52" cy="-18" rx="254.03" ry="18"/>
<text text-anchor="middle" x="3552.52" y="-12.95" font-family="Times New Roman,serif" font-size="14.00">Smoker on the Balcony: &quot;*How* can a bar be out of vermouth?&quot;</text>
</g>
<!-- 1&#45;&gt;9 -->
<g id="edge8" class="edge">
<title>1&#45;&gt;9</title>
<path fill="none" stroke="black" d="M2152.28,-87.86C2285.1,-82.72 2836.91,-60.9 3289.52,-36 3312.79,-34.72 3337.21,-33.28 3361.4,-31.78"/>
<polygon fill="black" stroke="black" points="3361.6,-35.28 3371.36,-31.17 3361.16,-28.29 3361.6,-35.28"/>
</g>
<!-- 10 -->
<g id="node11" class="node">
<title>10</title>
<ellipse fill="none" stroke="black" cx="3851.52" cy="-18" rx="27" ry="18"/>
<text text-anchor="middle" x="3851.52" y="-12.95" font-family="Times New Roman,serif" font-size="14.00">10</text>
</g>
<!-- 1&#45;&gt;10 -->
<g id="edge9" class="edge">
<title>1&#45;&gt;10</title>
<path fill="none" stroke="black" d="M2152.79,-88.8C2366.79,-87.25 3647.91,-76.35 3815.52,-36 3817.15,-35.61 3818.81,-35.13 3820.46,-34.6"/>
<polygon fill="black" stroke="black" points="3821.68,-37.88 3829.7,-30.95 3819.11,-31.37 3821.68,-37.88"/>
</g>
<!-- 4 -->
<g id="node5" class="node">
<title>4</title>
<ellipse fill="none" stroke="black" cx="2439.52" cy="-162" rx="259.66" ry="18"/>
<text text-anchor="middle" x="2439.52" y="-156.95" font-family="Times New Roman,serif" font-size="14.00">Smoker on the Balcony: &quot;Can&#39;t do it with class? Don&#39;t do it at all.&quot;</text>
</g>
</g>
</svg>
