<?xml version="1.0" encoding="UTF-8" standalone="no"?>
<!DOCTYPE svg PUBLIC "-//W3C//DTD SVG 1.1//EN"
 "http://www.w3.org/Graphics/SVG/1.1/DTD/svg11.dtd">
<!-- Generated by graphviz version 12.2.1 (20241206.2353)
 -->
<!-- Title: G Pages: 1 -->
<svg width="4099pt" height="1124pt"
 viewBox="0.00 0.00 4098.78 1124.00" xmlns="http://www.w3.org/2000/svg" xmlns:xlink="http://www.w3.org/1999/xlink">
<g id="graph0" class="graph" transform="scale(1 1) rotate(0) translate(4 1120)">
<title>G</title>
<polygon fill="white" stroke="none" points="-4,4 -4,-1120 4094.78,-1120 4094.78,4 -4,4"/>
<!-- 0 -->
<g id="node1" class="node">
<title>0</title>
<ellipse fill="none" stroke="black" cx="1164.17" cy="-1098" rx="39.07" ry="18"/>
<text text-anchor="middle" x="1164.17" y="-1092.95" font-family="Times New Roman,serif" font-size="14.00">START</text>
</g>
<!-- 0&#45;&gt;0 -->
<g id="edge1" class="edge">
<title>0&#45;&gt;0</title>
<path fill="none" stroke="black" d="M1192.36,-1110.94C1207.47,-1113.14 1221.24,-1108.83 1221.24,-1098 1221.24,-1089.96 1213.65,-1085.52 1203.56,-1084.65"/>
<polygon fill="black" stroke="black" points="1203.74,-1081.15 1193.87,-1085 1203.99,-1088.14 1203.74,-1081.15"/>
</g>
<!-- 1 -->
<g id="node2" class="node">
<title>1</title>
<ellipse fill="none" stroke="black" cx="3054.17" cy="-738" rx="29.86" ry="18"/>
<text text-anchor="middle" x="3054.17" y="-732.95" font-family="Times New Roman,serif" font-size="14.00">input</text>
</g>
<!-- 39 -->
<g id="node40" class="node">
<title>39</title>
<ellipse fill="none" stroke="black" cx="2845.17" cy="-666" rx="410.13" ry="18"/>
<text text-anchor="middle" x="2845.17" y="-660.95" font-family="Times New Roman,serif" font-size="14.00">Pain Threshold: The spread pattern of these bullet holes makes your chest ache. Your breath grows heavier.</text>
</g>
<!-- 1&#45;&gt;39 -->
<g id="edge2" class="edge">
<title>1&#45;&gt;39</title>
<path fill="none" stroke="black" d="M3028.54,-728.42C2998.59,-718.38 2947.96,-701.43 2907.48,-687.87"/>
<polygon fill="black" stroke="black" points="2908.66,-684.57 2898.07,-684.72 2906.44,-691.21 2908.66,-684.57"/>
</g>
<!-- 2 -->
<g id="node3" class="node">
<title>2</title>
<ellipse fill="none" stroke="black" cx="3237.17" cy="-954" rx="91.27" ry="18"/>
<text text-anchor="middle" x="3237.17" y="-948.95" font-family="Times New Roman,serif" font-size="14.00">You: Examine closer.</text>
</g>
<!-- 45 -->
<g id="node46" class="node">
<title>45</title>
<ellipse fill="none" stroke="black" cx="3237.17" cy="-882" rx="589.77" ry="18"/>
<text text-anchor="middle" x="3237.17" y="-876.95" font-family="Times New Roman,serif" font-size="14.00">Pain Threshold: You peer into the faded marks in the stone... they peer back like an endless row of tiny black holes. Sweat starts trickling down your brow.</text>
</g>
<!-- 2&#45;&gt;45 -->
<g id="edge3" class="edge">
<title>2&#45;&gt;45</title>
<path fill="none" stroke="black" d="M3237.17,-935.7C3237.17,-928.41 3237.17,-919.73 3237.17,-911.54"/>
<polygon fill="black" stroke="black" points="3240.67,-911.62 3237.17,-901.62 3233.67,-911.62 3240.67,-911.62"/>
</g>
<!-- 3 -->
<g id="node4" class="node">
<title>3</title>
<ellipse fill="none" stroke="black" cx="1996.17" cy="-234" rx="323.12" ry="18"/>
<text text-anchor="middle" x="1996.17" y="-228.95" font-family="Times New Roman,serif" font-size="14.00">Visual Calculus: More old bullet holes, half a century at least, from the Revolution.</text>
</g>
<!-- 29 -->
<g id="node30" class="node">
<title>29</title>
<ellipse fill="none" stroke="black" cx="2319.17" cy="-378" rx="80.01" ry="18"/>
<text text-anchor="middle" x="2319.17" y="-372.95" font-family="Times New Roman,serif" font-size="14.00">morekimquestions</text>
</g>
<!-- 3&#45;&gt;29 -->
<g id="edge4" class="edge">
<title>3&#45;&gt;29</title>
<path fill="none" stroke="black" d="M2136.46,-250.61C2192.89,-259.18 2249.87,-271.49 2272.17,-288 2292.22,-302.85 2304.52,-328.81 2311.49,-348.88"/>
<polygon fill="black" stroke="black" points="2308.07,-349.69 2314.44,-358.16 2314.74,-347.57 2308.07,-349.69"/>
</g>
<!-- 4 -->
<g id="node5" class="node">
<title>4</title>
<ellipse fill="none" stroke="black" cx="3340.17" cy="-378" rx="629.69" ry="18"/>
<text text-anchor="middle" x="3340.17" y="-372.95" font-family="Times New Roman,serif" font-size="14.00">Kim Kitsuragi: &quot;Bullet holes generally look the same, so... probably.&quot; He leans in to inspect the wall. &quot;But you are right, more old bullet holes from the Revolution.&quot;</text>
</g>
<!-- 27 -->
<g id="node28" class="node">
<title>27</title>
<ellipse fill="none" stroke="black" cx="2886.17" cy="-162" rx="175.21" ry="18"/>
<text text-anchor="middle" x="2886.17" y="-156.95" font-family="Times New Roman,serif" font-size="14.00">You: &quot;Figured as much.&quot; [Discard thought.]</text>
</g>
<!-- 4&#45;&gt;27 -->
<g id="edge5" class="edge">
<title>4&#45;&gt;27</title>
<path fill="none" stroke="black" d="M3338.54,-359.74C3334.64,-322.24 3323.46,-235.17 3302.17,-216 3291.55,-206.44 3137.61,-188.69 3020.07,-176.37"/>
<polygon fill="black" stroke="black" points="3020.63,-172.91 3010.32,-175.36 3019.9,-179.88 3020.63,-172.91"/>
</g>
<!-- 31 -->
<g id="node32" class="node">
<title>31</title>
<ellipse fill="none" stroke="black" cx="3331.17" cy="-162" rx="251.47" ry="18"/>
<text text-anchor="middle" x="3331.17" y="-156.95" font-family="Times New Roman,serif" font-size="14.00">You: &quot;Man, how many people got shot during that Revolution?&quot;</text>
</g>
<!-- 4&#45;&gt;31 -->
<g id="edge6" class="edge">
<title>4&#45;&gt;31</title>
<path fill="none" stroke="black" d="M3339.88,-359.6C3339.34,-330.06 3337.95,-268.22 3335.17,-216 3334.75,-208.05 3334.15,-199.43 3333.55,-191.5"/>
<polygon fill="black" stroke="black" points="3337.05,-191.38 3332.78,-181.68 3330.08,-191.93 3337.05,-191.38"/>
</g>
<!-- 5 -->
<g id="node6" class="node">
<title>5</title>
<ellipse fill="none" stroke="black" cx="325.17" cy="-162" rx="242.77" ry="18"/>
<text text-anchor="middle" x="325.17" y="-156.95" font-family="Times New Roman,serif" font-size="14.00">You: &quot;Okay. But what can you tell me about the Revolution?&quot;</text>
</g>
<!-- 28 -->
<g id="node29" class="node">
<title>28</title>
<ellipse fill="none" stroke="black" cx="325.17" cy="-90" rx="325.17" ry="18"/>
<text text-anchor="middle" x="325.17" y="-84.95" font-family="Times New Roman,serif" font-size="14.00">Kim Kitsuragi: &quot;Not much. I don&#39;t have a *fresh perspective* on it. Should we go?&quot;</text>
</g>
<!-- 5&#45;&gt;28 -->
<g id="edge7" class="edge">
<title>5&#45;&gt;28</title>
<path fill="none" stroke="black" d="M325.17,-143.7C325.17,-136.41 325.17,-127.73 325.17,-119.54"/>
<polygon fill="black" stroke="black" points="328.67,-119.62 325.17,-109.62 321.67,-119.62 328.67,-119.62"/>
</g>
<!-- 6 -->
<g id="node7" class="node">
<title>6</title>
<ellipse fill="none" stroke="black" cx="2259.17" cy="-882" rx="162.93" ry="18"/>
<text text-anchor="middle" x="2259.17" y="-876.95" font-family="Times New Roman,serif" font-size="14.00">You: &quot;So, no crime has happened here?&quot;</text>
</g>
<!-- 35 -->
<g id="node36" class="node">
<title>35</title>
<ellipse fill="none" stroke="black" cx="2259.17" cy="-810" rx="396.31" ry="18"/>
<text text-anchor="middle" x="2259.17" y="-804.95" font-family="Times New Roman,serif" font-size="14.00">Kim Kitsuragi: &quot;Perhaps *a* crime of a sort, ages ago... but no, these do not warrant an investigation.&quot;</text>
</g>
<!-- 6&#45;&gt;35 -->
<g id="edge8" class="edge">
<title>6&#45;&gt;35</title>
<path fill="none" stroke="black" d="M2259.17,-863.7C2259.17,-856.41 2259.17,-847.73 2259.17,-839.54"/>
<polygon fill="black" stroke="black" points="2262.67,-839.62 2259.17,-829.62 2255.67,-839.62 2262.67,-839.62"/>
</g>
<!-- 7 -->
<g id="node8" class="node">
<title>7</title>
<ellipse fill="none" stroke="black" cx="1569.17" cy="-522" rx="366.11" ry="18"/>
<text text-anchor="middle" x="1569.17" y="-516.95" font-family="Times New Roman,serif" font-size="14.00">Kim Kitsuragi: &quot;Might be the after&#45;effects of your... past escapades. What are you looking at?&quot;</text>
</g>
<!-- 26 -->
<g id="node27" class="node">
<title>26</title>
<ellipse fill="none" stroke="black" cx="1569.17" cy="-450" rx="121.47" ry="18"/>
<text text-anchor="middle" x="1569.17" y="-444.95" font-family="Times New Roman,serif" font-size="14.00">Jump to: [morekimquestions]</text>
</g>
<!-- 7&#45;&gt;26 -->
<g id="edge9" class="edge">
<title>7&#45;&gt;26</title>
<path fill="none" stroke="black" d="M1569.17,-503.7C1569.17,-496.41 1569.17,-487.73 1569.17,-479.54"/>
<polygon fill="black" stroke="black" points="1572.67,-479.62 1569.17,-469.62 1565.67,-479.62 1572.67,-479.62"/>
</g>
<!-- 8 -->
<g id="node9" class="node">
<title>8</title>
<ellipse fill="none" stroke="black" cx="3237.17" cy="-810" rx="441.35" ry="18"/>
<text text-anchor="middle" x="3237.17" y="-804.95" font-family="Times New Roman,serif" font-size="14.00">Kim Kitsuragi: &quot;No, we&#39;re not constructors and renovators. And these bullet holes do not warrant an investigation.&quot;</text>
</g>
<!-- 8&#45;&gt;4 -->
<g id="edge11" class="edge">
<title>8&#45;&gt;4</title>
<path fill="none" stroke="black" d="M3286.84,-791.7C3304.35,-783.37 3322.75,-771.7 3335.17,-756 3360.58,-723.87 3359.17,-707.97 3359.17,-667 3359.17,-667 3359.17,-667 3359.17,-521 3359.17,-481.39 3351.82,-436.11 3346.26,-407.54"/>
<polygon fill="black" stroke="black" points="3349.72,-406.98 3344.31,-397.87 3342.85,-408.37 3349.72,-406.98"/>
</g>
<!-- 24 -->
<g id="node25" class="node">
<title>24</title>
<ellipse fill="none" stroke="black" cx="2259.17" cy="-738" rx="212.57" ry="18"/>
<text text-anchor="middle" x="2259.17" y="-732.95" font-family="Times New Roman,serif" font-size="14.00">You: &quot;Never mind, then. Let&#39;s go.&quot; [Discard thought.]</text>
</g>
<!-- 8&#45;&gt;24 -->
<g id="edge10" class="edge">
<title>8&#45;&gt;24</title>
<path fill="none" stroke="black" d="M3024.66,-793.79C2846.02,-781 2594.05,-762.97 2428.72,-751.14"/>
<polygon fill="black" stroke="black" points="2429.2,-747.66 2418.97,-750.44 2428.7,-754.64 2429.2,-747.66"/>
</g>
<!-- 9 -->
<g id="node10" class="node">
<title>9</title>
<ellipse fill="none" stroke="black" cx="1262.17" cy="-810" rx="320.56" ry="18"/>
<text text-anchor="middle" x="1262.17" y="-804.95" font-family="Times New Roman,serif" font-size="14.00">CheckEquipped(&quot;neck_tie&quot;) &#160;and &#160;Variable[&quot;whirling.necktie_personified&quot;] == true</text>
</g>
<!-- 9&#45;&gt;9 -->
<g id="edge12" class="edge">
<title>9&#45;&gt;9</title>
<path fill="none" stroke="black" d="M1481.97,-823.48C1548.63,-823.14 1600.73,-818.65 1600.73,-810 1600.73,-801.84 1554.36,-797.38 1493.15,-796.62"/>
<polygon fill="black" stroke="black" points="1493.51,-793.12 1483.48,-796.53 1493.45,-800.12 1493.51,-793.12"/>
</g>
<!-- 10 -->
<g id="node11" class="node">
<title>10</title>
<polygon fill="none" stroke="black" points="1262.17,-756 808.82,-738 1262.17,-720 1715.51,-738 1262.17,-756"/>
<text text-anchor="middle" x="1262.17" y="-732.95" font-family="Times New Roman,serif" font-size="14.00">CheckEquipped(&quot;neck_tie&quot;) &#160;and &#160;Variable[&quot;whirling.necktie_personified&quot;] == true</text>
</g>
<!-- 9&#45;&gt;10 -->
<g id="edge13" class="edge">
<title>9&#45;&gt;10</title>
<path fill="none" stroke="black" d="M1262.17,-791.7C1262.17,-784.41 1262.17,-775.73 1262.17,-767.54"/>
<polygon fill="black" stroke="black" points="1265.67,-767.62 1262.17,-757.62 1258.67,-767.62 1265.67,-767.62"/>
</g>
<!-- 43 -->
<g id="node44" class="node">
<title>43</title>
<ellipse fill="none" stroke="black" cx="1137.17" cy="-666" rx="328.24" ry="18"/>
<text text-anchor="middle" x="1137.17" y="-660.95" font-family="Times New Roman,serif" font-size="14.00">Horrific Necktie: This is bad mojo, man! Fuckin&#39; horrible mojo. The end draws near!</text>
</g>
<!-- 10&#45;&gt;43 -->
<g id="edge14" class="edge">
<title>10&#45;&gt;43</title>
<path fill="none" stroke="black" d="M1233.18,-720.76C1216.82,-711.61 1196.12,-700.01 1178.13,-689.94"/>
<polygon fill="black" stroke="black" points="1179.94,-686.94 1169.51,-685.11 1176.52,-693.05 1179.94,-686.94"/>
</g>
<!-- 11 -->
<g id="node12" class="node">
<title>11</title>
<polygon fill="none" stroke="black" points="1950.17,-684 1483.8,-666 1950.17,-648 2416.54,-666 1950.17,-684"/>
<text text-anchor="middle" x="1950.17" y="-660.95" font-family="Times New Roman,serif" font-size="14.00">!(CheckEquipped(&quot;neck_tie&quot;) &#160;and &#160;Variable[&quot;whirling.necktie_personified&quot;] == true)</text>
</g>
<!-- 16 -->
<g id="node17" class="node">
<title>16</title>
<ellipse fill="none" stroke="black" cx="1569.17" cy="-594" rx="209.5" ry="18"/>
<text text-anchor="middle" x="1569.17" y="-588.95" font-family="Times New Roman,serif" font-size="14.00">You: &quot;Is there something we should do about these?&quot;</text>
</g>
<!-- 11&#45;&gt;16 -->
<g id="edge15" class="edge">
<title>11&#45;&gt;16</title>
<path fill="none" stroke="black" d="M1871.69,-650.58C1812.2,-639.65 1730.1,-624.57 1666.44,-612.87"/>
<polygon fill="black" stroke="black" points="1667.13,-609.44 1656.67,-611.08 1665.87,-616.33 1667.13,-609.44"/>
</g>
<!-- 12 -->
<g id="node13" class="node">
<title>12</title>
<ellipse fill="none" stroke="black" cx="2930.17" cy="-450" rx="145.01" ry="18"/>
<text text-anchor="middle" x="2930.17" y="-444.95" font-family="Times New Roman,serif" font-size="14.00">Kim Kitsuragi: The lieutenant nods.</text>
</g>
<!-- 13 -->
<g id="node14" class="node">
<title>13</title>
<ellipse fill="none" stroke="black" cx="3237.17" cy="-1098" rx="603.59" ry="18"/>
<text text-anchor="middle" x="3237.17" y="-1092.95" font-family="Times New Roman,serif" font-size="14.00">Variable[&quot;plaza.rene_asked_wardamage&quot;] == true &#160;or &#160;Variable[&quot;plaza.rene_mentioned_revolution_and_couron&quot;] == true &#160;or &#160;Variable[&quot;tc.revolution&quot;] == true</text>
</g>
<!-- 13&#45;&gt;13 -->
<g id="edge16" class="edge">
<title>13&#45;&gt;13</title>
<path fill="none" stroke="black" d="M3652.2,-1111.44C3769.03,-1110.85 3858.76,-1106.38 3858.76,-1098 3858.76,-1089.89 3774.72,-1085.44 3663.41,-1084.63"/>
<polygon fill="black" stroke="black" points="3663.74,-1081.14 3653.71,-1084.57 3663.69,-1088.14 3663.74,-1081.14"/>
</g>
<!-- 14 -->
<g id="node15" class="node">
<title>14</title>
<polygon fill="none" stroke="black" points="3237.17,-1044 2383.56,-1026 3237.17,-1008 4090.78,-1026 3237.17,-1044"/>
<text text-anchor="middle" x="3237.17" y="-1020.95" font-family="Times New Roman,serif" font-size="14.00">Variable[&quot;plaza.rene_asked_wardamage&quot;] == true &#160;or &#160;Variable[&quot;plaza.rene_mentioned_revolution_and_couron&quot;] == true &#160;or &#160;Variable[&quot;tc.revolution&quot;] == true</text>
</g>
<!-- 13&#45;&gt;14 -->
<g id="edge17" class="edge">
<title>13&#45;&gt;14</title>
<path fill="none" stroke="black" d="M3237.17,-1079.7C3237.17,-1072.41 3237.17,-1063.73 3237.17,-1055.54"/>
<polygon fill="black" stroke="black" points="3240.67,-1055.62 3237.17,-1045.62 3233.67,-1055.62 3240.67,-1055.62"/>
</g>
<!-- 14&#45;&gt;2 -->
<g id="edge18" class="edge">
<title>14&#45;&gt;2</title>
<path fill="none" stroke="black" d="M3237.17,-1007.7C3237.17,-1000.41 3237.17,-991.73 3237.17,-983.54"/>
<polygon fill="black" stroke="black" points="3240.67,-983.62 3237.17,-973.62 3233.67,-983.62 3240.67,-983.62"/>
</g>
<!-- 15 -->
<g id="node16" class="node">
<title>15</title>
<polygon fill="none" stroke="black" points="1452.17,-180 585.53,-162 1452.17,-144 2318.81,-162 1452.17,-180"/>
<text text-anchor="middle" x="1452.17" y="-156.95" font-family="Times New Roman,serif" font-size="14.00">!(Variable[&quot;plaza.rene_asked_wardamage&quot;] == true &#160;or &#160;Variable[&quot;plaza.rene_mentioned_revolution_and_couron&quot;] == true &#160;or &#160;Variable[&quot;tc.revolution&quot;] == true)</text>
</g>
<!-- 20 -->
<g id="node21" class="node">
<title>20</title>
<ellipse fill="none" stroke="black" cx="1883.17" cy="-90" rx="339.5" ry="18"/>
<text text-anchor="middle" x="1883.17" y="-84.95" font-family="Times New Roman,serif" font-size="14.00">Visual Calculus: More old bullet holes, at least half a century. A different era altogether.</text>
</g>
<!-- 15&#45;&gt;20 -->
<g id="edge19" class="edge">
<title>15&#45;&gt;20</title>
<path fill="none" stroke="black" d="M1547.55,-145.51C1613.22,-134.84 1700.75,-120.63 1769.95,-109.39"/>
<polygon fill="black" stroke="black" points="1770.09,-112.91 1779.4,-107.85 1768.97,-106 1770.09,-112.91"/>
</g>
<!-- 16&#45;&gt;7 -->
<g id="edge20" class="edge">
<title>16&#45;&gt;7</title>
<path fill="none" stroke="black" d="M1569.17,-575.7C1569.17,-568.41 1569.17,-559.73 1569.17,-551.54"/>
<polygon fill="black" stroke="black" points="1572.67,-551.62 1569.17,-541.62 1565.67,-551.62 1572.67,-551.62"/>
</g>
<!-- 17 -->
<g id="node18" class="node">
<title>17</title>
<ellipse fill="none" stroke="black" cx="1737.17" cy="-1098" rx="498.16" ry="18"/>
<text text-anchor="middle" x="1737.17" y="-1092.95" font-family="Times New Roman,serif" font-size="14.00">Pain Threshold: Your chest feels tight, looking at them. It&#39;s closing in... caving in, ever tighter. Your breathing grows even heavier.</text>
</g>
<!-- 30 -->
<g id="node31" class="node">
<title>30</title>
<ellipse fill="none" stroke="black" cx="1737.17" cy="-1026" rx="432.14" ry="18"/>
<text text-anchor="middle" x="1737.17" y="-1020.95" font-family="Times New Roman,serif" font-size="14.00">Kim Kitsuragi: &quot;You okay there?&quot; The lieutenant&#39;s sudden voice cuts like a blade, bringing you out of the stupor.</text>
</g>
<!-- 17&#45;&gt;30 -->
<g id="edge21" class="edge">
<title>17&#45;&gt;30</title>
<path fill="none" stroke="black" d="M1737.17,-1079.7C1737.17,-1072.41 1737.17,-1063.73 1737.17,-1055.54"/>
<polygon fill="black" stroke="black" points="1740.67,-1055.62 1737.17,-1045.62 1733.67,-1055.62 1740.67,-1055.62"/>
</g>
<!-- 18 -->
<g id="node19" class="node">
<title>18</title>
<ellipse fill="none" stroke="black" cx="2025.17" cy="-954" rx="210.52" ry="18"/>
<text text-anchor="middle" x="2025.17" y="-948.95" font-family="Times New Roman,serif" font-size="14.00">You: &quot;Man, I started feeling really bad for a second.&quot;</text>
</g>
<!-- 18&#45;&gt;6 -->
<g id="edge22" class="edge">
<title>18&#45;&gt;6</title>
<path fill="none" stroke="black" d="M2081.22,-936.23C2115.04,-926.12 2158.28,-913.18 2193.67,-902.59"/>
<polygon fill="black" stroke="black" points="2194.36,-906.04 2202.93,-899.82 2192.35,-899.34 2194.36,-906.04"/>
</g>
<!-- 19 -->
<g id="node20" class="node">
<title>19</title>
<ellipse fill="none" stroke="black" cx="3108.17" cy="-18" rx="657.33" ry="18"/>
<text text-anchor="middle" x="3108.17" y="-12.95" font-family="Times New Roman,serif" font-size="14.00">Shivers: The streets ran red with blood. Dust swirled above the ruins. The pressure change from artillery fire ripped people apart in the top floors of the building above you...</text>
</g>
<!-- 20&#45;&gt;29 -->
<g id="edge23" class="edge">
<title>20&#45;&gt;29</title>
<path fill="none" stroke="black" d="M2101.12,-104.18C2205.76,-112.78 2312.04,-125.84 2328.17,-144 2378.93,-201.17 2349.9,-300.8 2331.18,-349.12"/>
<polygon fill="black" stroke="black" points="2327.97,-347.72 2327.48,-358.3 2334.46,-350.33 2327.97,-347.72"/>
</g>
<!-- 21 -->
<g id="node22" class="node">
<title>21</title>
<ellipse fill="none" stroke="black" cx="2002.17" cy="-306" rx="260.68" ry="18"/>
<text text-anchor="middle" x="2002.17" y="-300.95" font-family="Times New Roman,serif" font-size="14.00">You: &quot;These bullet holes look like the bullet holes we saw before.&quot;</text>
</g>
<!-- 21&#45;&gt;3 -->
<g id="edge24" class="edge">
<title>21&#45;&gt;3</title>
<path fill="none" stroke="black" d="M2000.69,-287.7C2000.06,-280.41 1999.32,-271.73 1998.61,-263.54"/>
<polygon fill="black" stroke="black" points="2002.11,-263.28 1997.76,-253.61 1995.13,-263.87 2002.11,-263.28"/>
</g>
<!-- 22 -->
<g id="node23" class="node">
<title>22</title>
<ellipse fill="none" stroke="black" cx="1344.17" cy="-954" rx="218.71" ry="18"/>
<text text-anchor="middle" x="1344.17" y="-948.95" font-family="Times New Roman,serif" font-size="14.00">You: (Breathe out sharply.) &quot;Huh, yeah&#45;yeah, I&#39;m fine.&quot;</text>
</g>
<!-- 25 -->
<g id="node26" class="node">
<title>25</title>
<ellipse fill="none" stroke="black" cx="934.17" cy="-594" rx="330.8" ry="18"/>
<text text-anchor="middle" x="934.17" y="-588.95" font-family="Times New Roman,serif" font-size="14.00">Kim Kitsuragi: &quot;You were looking pale there for a second. What are you looking at?&quot;</text>
</g>
<!-- 22&#45;&gt;25 -->
<g id="edge25" class="edge">
<title>22&#45;&gt;25</title>
<path fill="none" stroke="black" d="M1171.81,-942.62C1006.28,-927.77 781.17,-892.59 781.17,-811 781.17,-811 781.17,-811 781.17,-737 781.17,-696.55 774.04,-678.88 800.17,-648 811.88,-634.16 827.69,-623.91 844.35,-616.33"/>
<polygon fill="black" stroke="black" points="845.55,-619.62 853.41,-612.52 842.84,-613.17 845.55,-619.62"/>
</g>
<!-- 23 -->
<g id="node24" class="node">
<title>23</title>
<ellipse fill="none" stroke="black" cx="2474.17" cy="-306" rx="99.46" ry="18"/>
<text text-anchor="middle" x="2474.17" y="-300.95" font-family="Times New Roman,serif" font-size="14.00">You: [Discard thought.]</text>
</g>
<!-- 24&#45;&gt;11 -->
<g id="edge26" class="edge">
<title>24&#45;&gt;11</title>
<path fill="none" stroke="black" d="M2187.11,-720.68C2139.13,-709.81 2076.15,-695.54 2027.18,-684.45"/>
<polygon fill="black" stroke="black" points="2028.01,-681.05 2017.48,-682.25 2026.46,-687.87 2028.01,-681.05"/>
</g>
<!-- 25&#45;&gt;26 -->
<g id="edge27" class="edge">
<title>25&#45;&gt;26</title>
<path fill="none" stroke="black" d="M976.68,-575.66C1027.56,-555.55 1115.76,-522.78 1194.17,-504 1280.99,-483.2 1381.21,-469.56 1456.18,-461.33"/>
<polygon fill="black" stroke="black" points="1456.45,-464.82 1466.02,-460.27 1455.7,-457.86 1456.45,-464.82"/>
</g>
<!-- 26&#45;&gt;29 -->
<g id="edge28" class="edge">
<title>26&#45;&gt;29</title>
<path fill="none" stroke="black" d="M1669.93,-439.6C1819.04,-425.68 2095.79,-399.85 2234.83,-386.87"/>
<polygon fill="black" stroke="black" points="2235.09,-390.36 2244.72,-385.95 2234.44,-383.39 2235.09,-390.36"/>
</g>
<!-- 44 -->
<g id="node45" class="node">
<title>44</title>
<ellipse fill="none" stroke="black" cx="2899.17" cy="-90" rx="269.89" ry="18"/>
<text text-anchor="middle" x="2899.17" y="-84.95" font-family="Times New Roman,serif" font-size="14.00">Kim Kitsuragi: &quot;A history of violence streaking all across Revachol.&quot;</text>
</g>
<!-- 27&#45;&gt;44 -->
<g id="edge29" class="edge">
<title>27&#45;&gt;44</title>
<path fill="none" stroke="black" d="M2889.38,-143.7C2890.75,-136.32 2892.39,-127.52 2893.92,-119.25"/>
<polygon fill="black" stroke="black" points="2897.33,-120.06 2895.72,-109.59 2890.45,-118.79 2897.33,-120.06"/>
</g>
<!-- 29&#45;&gt;1 -->
<g id="edge30" class="edge">
<title>29&#45;&gt;1</title>
<path fill="none" stroke="black" d="M2396.87,-382.84C2578.17,-392.01 3018.78,-415.66 3084.17,-432 3178.17,-455.49 3283.17,-424.11 3283.17,-521 3283.17,-595 3283.17,-595 3283.17,-595 3283.17,-635.45 3292.24,-654.88 3264.17,-684 3241.01,-708.03 3149.03,-724.21 3094.78,-731.88"/>
<polygon fill="black" stroke="black" points="3094.43,-728.4 3084.99,-733.23 3095.38,-735.33 3094.43,-728.4"/>
</g>
<!-- 29&#45;&gt;21 -->
<g id="edge33" class="edge">
<title>29&#45;&gt;21</title>
<path fill="none" stroke="black" d="M2263.59,-364.73C2215.23,-354.05 2144.35,-338.4 2088.59,-326.08"/>
<polygon fill="black" stroke="black" points="2089.65,-322.73 2079.13,-323.99 2088.14,-329.57 2089.65,-322.73"/>
</g>
<!-- 29&#45;&gt;23 -->
<g id="edge34" class="edge">
<title>29&#45;&gt;23</title>
<path fill="none" stroke="black" d="M2353.57,-361.46C2375.48,-351.57 2404.12,-338.63 2428,-327.85"/>
<polygon fill="black" stroke="black" points="2429.2,-331.15 2436.87,-323.84 2426.32,-324.77 2429.2,-331.15"/>
</g>
<!-- 33 -->
<g id="node34" class="node">
<title>33</title>
<ellipse fill="none" stroke="black" cx="2858.17" cy="-306" rx="266.82" ry="18"/>
<text text-anchor="middle" x="2858.17" y="-300.95" font-family="Times New Roman,serif" font-size="14.00">You: &quot;Kim, look... more bullet holes. Someone has been shot here.&quot;</text>
</g>
<!-- 29&#45;&gt;33 -->
<g id="edge31" class="edge">
<title>29&#45;&gt;33</title>
<path fill="none" stroke="black" d="M2387.16,-368.17C2472.3,-357.11 2620.02,-337.93 2727.37,-323.99"/>
<polygon fill="black" stroke="black" points="2727.64,-327.48 2737.11,-322.72 2726.74,-320.54 2727.64,-327.48"/>
</g>
<!-- 41 -->
<g id="node42" class="node">
<title>41</title>
<ellipse fill="none" stroke="black" cx="1316.17" cy="-306" rx="283.2" ry="18"/>
<text text-anchor="middle" x="1316.17" y="-300.95" font-family="Times New Roman,serif" font-size="14.00">You: &quot;What&#39;s with all these bullet holes? I&#39;ve seen a lot of them around.&quot;</text>
</g>
<!-- 29&#45;&gt;41 -->
<g id="edge32" class="edge">
<title>29&#45;&gt;41</title>
<path fill="none" stroke="black" d="M2243.78,-371.74C2090.22,-361.02 1736.83,-336.36 1513.27,-320.76"/>
<polygon fill="black" stroke="black" points="1513.79,-317.28 1503.57,-320.08 1513.3,-324.27 1513.79,-317.28"/>
</g>
<!-- 30&#45;&gt;18 -->
<g id="edge35" class="edge">
<title>30&#45;&gt;18</title>
<path fill="none" stroke="black" d="M1807.99,-1007.79C1849.97,-997.58 1903.25,-984.63 1946.53,-974.11"/>
<polygon fill="black" stroke="black" points="1947.23,-977.54 1956.13,-971.78 1945.58,-970.74 1947.23,-977.54"/>
</g>
<!-- 30&#45;&gt;22 -->
<g id="edge36" class="edge">
<title>30&#45;&gt;22</title>
<path fill="none" stroke="black" d="M1641.53,-1007.97C1581.75,-997.32 1504.88,-983.62 1444.27,-972.83"/>
<polygon fill="black" stroke="black" points="1445.1,-969.42 1434.64,-971.11 1443.87,-976.31 1445.1,-969.42"/>
</g>
<!-- 32 -->
<g id="node33" class="node">
<title>32</title>
<ellipse fill="none" stroke="black" cx="3317.17" cy="-90" rx="103.56" ry="18"/>
<text text-anchor="middle" x="3317.17" y="-84.95" font-family="Times New Roman,serif" font-size="14.00">Kim Kitsuragi: &quot;Plenty.&quot;</text>
</g>
<!-- 31&#45;&gt;32 -->
<g id="edge37" class="edge">
<title>31&#45;&gt;32</title>
<path fill="none" stroke="black" d="M3327.71,-143.7C3326.23,-136.32 3324.47,-127.52 3322.82,-119.25"/>
<polygon fill="black" stroke="black" points="3326.28,-118.71 3320.89,-109.59 3319.42,-120.08 3326.28,-118.71"/>
</g>
<!-- 32&#45;&gt;19 -->
<g id="edge38" class="edge">
<title>32&#45;&gt;19</title>
<path fill="none" stroke="black" d="M3270.78,-73.46C3241.29,-63.59 3202.73,-50.67 3170.57,-39.9"/>
<polygon fill="black" stroke="black" points="3171.96,-36.67 3161.36,-36.82 3169.73,-43.31 3171.96,-36.67"/>
</g>
<!-- 40 -->
<g id="node41" class="node">
<title>40</title>
<ellipse fill="none" stroke="black" cx="2858.17" cy="-234" rx="435.21" ry="18"/>
<text text-anchor="middle" x="2858.17" y="-228.95" font-family="Times New Roman,serif" font-size="14.00">Kim Kitsuragi: The lieutenant inspects the wall, then nods. &quot;Another set of old bullet holes from the Revolution.&quot;</text>
</g>
<!-- 33&#45;&gt;40 -->
<g id="edge39" class="edge">
<title>33&#45;&gt;40</title>
<path fill="none" stroke="black" d="M2858.17,-287.7C2858.17,-280.41 2858.17,-271.73 2858.17,-263.54"/>
<polygon fill="black" stroke="black" points="2861.67,-263.62 2858.17,-253.62 2854.67,-263.62 2861.67,-263.62"/>
</g>
<!-- 34 -->
<g id="node35" class="node">
<title>34</title>
<ellipse fill="none" stroke="black" cx="2319.17" cy="-450" rx="220.25" ry="18"/>
<text text-anchor="middle" x="2319.17" y="-444.95" font-family="Times New Roman,serif" font-size="14.00">Visual Calculus: Another set of awfully old bullet holes.</text>
</g>
<!-- 34&#45;&gt;29 -->
<g id="edge40" class="edge">
<title>34&#45;&gt;29</title>
<path fill="none" stroke="black" d="M2319.17,-431.7C2319.17,-424.41 2319.17,-415.73 2319.17,-407.54"/>
<polygon fill="black" stroke="black" points="2322.67,-407.62 2319.17,-397.62 2315.67,-407.62 2322.67,-407.62"/>
</g>
<!-- 35&#45;&gt;4 -->
<g id="edge42" class="edge">
<title>35&#45;&gt;4</title>
<path fill="none" stroke="black" d="M2570.83,-798.56C2765.19,-790.24 2996.21,-776.52 3093.17,-756 3199.59,-733.47 3321.17,-775.78 3321.17,-667 3321.17,-667 3321.17,-667 3321.17,-521 3321.17,-481.39 3328.52,-436.11 3334.08,-407.54"/>
<polygon fill="black" stroke="black" points="3337.48,-408.37 3336.03,-397.87 3330.62,-406.98 3337.48,-408.37"/>
</g>
<!-- 35&#45;&gt;24 -->
<g id="edge41" class="edge">
<title>35&#45;&gt;24</title>
<path fill="none" stroke="black" d="M2259.17,-791.7C2259.17,-784.41 2259.17,-775.73 2259.17,-767.54"/>
<polygon fill="black" stroke="black" points="2262.67,-767.62 2259.17,-757.62 2255.67,-767.62 2262.67,-767.62"/>
</g>
<!-- 36 -->
<g id="node37" class="node">
<title>36</title>
<ellipse fill="none" stroke="black" cx="2845.17" cy="-594" rx="204.89" ry="18"/>
<text text-anchor="middle" x="2845.17" y="-588.95" font-family="Times New Roman,serif" font-size="14.00">Variable[&quot;plaza.sense_bulletholes_viscal_said_old&quot;]</text>
</g>
<!-- 37 -->
<g id="node38" class="node">
<title>37</title>
<polygon fill="none" stroke="black" points="2319.17,-540 2029.41,-522 2319.17,-504 2608.93,-522 2319.17,-540"/>
<text text-anchor="middle" x="2319.17" y="-516.95" font-family="Times New Roman,serif" font-size="14.00">Variable[&quot;plaza.sense_bulletholes_viscal_said_old&quot;]</text>
</g>
<!-- 36&#45;&gt;37 -->
<g id="edge43" class="edge">
<title>36&#45;&gt;37</title>
<path fill="none" stroke="black" d="M2735.54,-578.41C2642.57,-566.04 2510.29,-548.43 2419.93,-536.41"/>
<polygon fill="black" stroke="black" points="2420.45,-532.95 2410.08,-535.1 2419.53,-539.89 2420.45,-532.95"/>
</g>
<!-- 38 -->
<g id="node39" class="node">
<title>38</title>
<polygon fill="none" stroke="black" points="2930.17,-540 2627.38,-522 2930.17,-504 3232.96,-522 2930.17,-540"/>
<text text-anchor="middle" x="2930.17" y="-516.95" font-family="Times New Roman,serif" font-size="14.00">!(Variable[&quot;plaza.sense_bulletholes_viscal_said_old&quot;])</text>
</g>
<!-- 36&#45;&gt;38 -->
<g id="edge44" class="edge">
<title>36&#45;&gt;38</title>
<path fill="none" stroke="black" d="M2866.18,-575.7C2876.99,-566.79 2890.32,-555.81 2902.01,-546.19"/>
<polygon fill="black" stroke="black" points="2903.9,-549.17 2909.4,-540.11 2899.45,-543.76 2903.9,-549.17"/>
</g>
<!-- 37&#45;&gt;34 -->
<g id="edge45" class="edge">
<title>37&#45;&gt;34</title>
<path fill="none" stroke="black" d="M2319.17,-503.7C2319.17,-496.41 2319.17,-487.73 2319.17,-479.54"/>
<polygon fill="black" stroke="black" points="2322.67,-479.62 2319.17,-469.62 2315.67,-479.62 2322.67,-479.62"/>
</g>
<!-- 38&#45;&gt;12 -->
<g id="edge46" class="edge">
<title>38&#45;&gt;12</title>
<path fill="none" stroke="black" d="M2930.17,-503.7C2930.17,-496.41 2930.17,-487.73 2930.17,-479.54"/>
<polygon fill="black" stroke="black" points="2933.67,-479.62 2930.17,-469.62 2926.67,-479.62 2933.67,-479.62"/>
</g>
<!-- 39&#45;&gt;36 -->
<g id="edge47" class="edge">
<title>39&#45;&gt;36</title>
<path fill="none" stroke="black" d="M2845.17,-647.7C2845.17,-640.41 2845.17,-631.73 2845.17,-623.54"/>
<polygon fill="black" stroke="black" points="2848.67,-623.62 2845.17,-613.62 2841.67,-623.62 2848.67,-623.62"/>
</g>
<!-- 40&#45;&gt;27 -->
<g id="edge48" class="edge">
<title>40&#45;&gt;27</title>
<path fill="none" stroke="black" d="M2865.09,-215.7C2868.11,-208.15 2871.72,-199.12 2875.1,-190.68"/>
<polygon fill="black" stroke="black" points="2878.3,-192.09 2878.76,-181.51 2871.8,-189.49 2878.3,-192.09"/>
</g>
<!-- 40&#45;&gt;31 -->
<g id="edge49" class="edge">
<title>40&#45;&gt;31</title>
<path fill="none" stroke="black" d="M2972.07,-216.14C3045.13,-205.33 3139.77,-191.33 3213.55,-180.41"/>
<polygon fill="black" stroke="black" points="3213.87,-183.9 3223.25,-178.97 3212.84,-176.97 3213.87,-183.9"/>
</g>
<!-- 42 -->
<g id="node43" class="node">
<title>42</title>
<ellipse fill="none" stroke="black" cx="1209.17" cy="-234" rx="445.44" ry="18"/>
<text text-anchor="middle" x="1209.17" y="-228.95" font-family="Times New Roman,serif" font-size="14.00">Kim Kitsuragi: The lieutenant looks at the wall. &quot;Remnants from the Revolution. These are over half a century old.&quot;</text>
</g>
<!-- 41&#45;&gt;42 -->
<g id="edge50" class="edge">
<title>41&#45;&gt;42</title>
<path fill="none" stroke="black" d="M1289.72,-287.7C1276.22,-278.86 1259.59,-267.99 1244.96,-258.41"/>
<polygon fill="black" stroke="black" points="1247.24,-255.72 1236.95,-253.18 1243.4,-261.58 1247.24,-255.72"/>
</g>
<!-- 42&#45;&gt;5 -->
<g id="edge51" class="edge">
<title>42&#45;&gt;5</title>
<path fill="none" stroke="black" d="M1012.43,-217.42C858.35,-205.22 646.08,-188.41 498.38,-176.72"/>
<polygon fill="black" stroke="black" points="498.72,-173.23 488.47,-175.93 498.17,-180.21 498.72,-173.23"/>
</g>
<!-- 42&#45;&gt;15 -->
<g id="edge52" class="edge">
<title>42&#45;&gt;15</title>
<path fill="none" stroke="black" d="M1269.24,-215.7C1304.26,-205.61 1348.53,-192.85 1384.75,-182.42"/>
<polygon fill="black" stroke="black" points="1385.62,-185.81 1394.26,-179.68 1383.68,-179.09 1385.62,-185.81"/>
</g>
<!-- 43&#45;&gt;16 -->
<g id="edge53" class="edge">
<title>43&#45;&gt;16</title>
<path fill="none" stroke="black" d="M1239.27,-648.46C1306.51,-637.56 1394.36,-623.33 1462.5,-612.28"/>
<polygon fill="black" stroke="black" points="1462.89,-615.77 1472.2,-610.71 1461.77,-608.86 1462.89,-615.77"/>
</g>
<!-- 44&#45;&gt;19 -->
<g id="edge54" class="edge">
<title>44&#45;&gt;19</title>
<path fill="none" stroke="black" d="M2950.3,-71.88C2978.93,-62.29 3014.86,-50.25 3045.21,-40.09"/>
<polygon fill="black" stroke="black" points="3046.31,-43.41 3054.68,-36.91 3044.09,-36.77 3046.31,-43.41"/>
</g>
<!-- 45&#45;&gt;8 -->
<g id="edge55" class="edge">
<title>45&#45;&gt;8</title>
<path fill="none" stroke="black" d="M3237.17,-863.7C3237.17,-856.41 3237.17,-847.73 3237.17,-839.54"/>
<polygon fill="black" stroke="black" points="3240.67,-839.62 3237.17,-829.62 3233.67,-839.62 3240.67,-839.62"/>
</g>
</g>
</svg>
