<?xml version="1.0" encoding="UTF-8" standalone="no"?>
<!DOCTYPE svg PUBLIC "-//W3C//DTD SVG 1.1//EN"
 "http://www.w3.org/Graphics/SVG/1.1/DTD/svg11.dtd">
<!-- Generated by graphviz version 12.2.1 (20241206.2353)
 -->
<!-- Title: G Pages: 1 -->
<svg width="2382pt" height="188pt"
 viewBox="0.00 0.00 2382.37 188.00" xmlns="http://www.w3.org/2000/svg" xmlns:xlink="http://www.w3.org/1999/xlink">
<g id="graph0" class="graph" transform="scale(1 1) rotate(0) translate(4 184)">
<title>G</title>
<polygon fill="white" stroke="none" points="-4,4 -4,-184 2378.37,-184 2378.37,4 -4,4"/>
<!-- 0 -->
<g id="node1" class="node">
<title>0</title>
<ellipse fill="none" stroke="black" cx="1139.15" cy="-162" rx="39.07" ry="18"/>
<text text-anchor="middle" x="1139.15" y="-156.95" font-family="Times New Roman,serif" font-size="14.00">START</text>
</g>
<!-- 1 -->
<g id="node2" class="node">
<title>1</title>
<ellipse fill="none" stroke="black" cx="1139.15" cy="-90" rx="29.86" ry="18"/>
<text text-anchor="middle" x="1139.15" y="-84.95" font-family="Times New Roman,serif" font-size="14.00">input</text>
</g>
<!-- 0&#45;&gt;1 -->
<g id="edge1" class="edge">
<title>0&#45;&gt;1</title>
<path fill="none" stroke="black" d="M1139.15,-143.7C1139.15,-136.41 1139.15,-127.73 1139.15,-119.54"/>
<polygon fill="black" stroke="black" points="1142.65,-119.62 1139.15,-109.62 1135.65,-119.62 1142.65,-119.62"/>
</g>
<!-- 2 -->
<g id="node3" class="node">
<title>2</title>
<ellipse fill="none" stroke="black" cx="216.15" cy="-18" rx="216.15" ry="18"/>
<text text-anchor="middle" x="216.15" y="-12.95" font-family="Times New Roman,serif" font-size="14.00">Smoker on the Balcony: &quot;So much for a quiet smoke.&quot;</text>
</g>
<!-- 1&#45;&gt;2 -->
<g id="edge2" class="edge">
<title>1&#45;&gt;2</title>
<path fill="none" stroke="black" d="M1109.49,-86.75C999.57,-78.41 610.14,-48.88 383.37,-31.68"/>
<polygon fill="black" stroke="black" points="383.77,-28.2 373.53,-30.94 383.24,-35.18 383.77,-28.2"/>
</g>
<!-- 3 -->
<g id="node4" class="node">
<title>3</title>
<ellipse fill="none" stroke="black" cx="665.15" cy="-18" rx="214.62" ry="18"/>
<text text-anchor="middle" x="665.15" y="-12.95" font-family="Times New Roman,serif" font-size="14.00">Smoker on the Balcony: &quot;I *knew* I should&#39;ve quit...&quot;</text>
</g>
<!-- 1&#45;&gt;3 -->
<g id="edge3" class="edge">
<title>1&#45;&gt;3</title>
<path fill="none" stroke="black" d="M1110.22,-84.73C1045.99,-75.24 888.59,-52 779.32,-35.86"/>
<polygon fill="black" stroke="black" points="780.14,-32.44 769.74,-34.45 779.12,-39.37 780.14,-32.44"/>
</g>
<!-- 4 -->
<g id="node5" class="node">
<title>4</title>
<ellipse fill="none" stroke="black" cx="1139.15" cy="-18" rx="241.74" ry="18"/>
<text text-anchor="middle" x="1139.15" y="-12.95" font-family="Times New Roman,serif" font-size="14.00">Smoker on the Balcony: &quot;Hey, what&#39;s that noise down there?&quot;</text>
</g>
<!-- 1&#45;&gt;4 -->
<g id="edge4" class="edge">
<title>1&#45;&gt;4</title>
<path fill="none" stroke="black" d="M1139.15,-71.7C1139.15,-64.41 1139.15,-55.73 1139.15,-47.54"/>
<polygon fill="black" stroke="black" points="1142.65,-47.62 1139.15,-37.62 1135.65,-47.62 1142.65,-47.62"/>
</g>
<!-- 5 -->
<g id="node6" class="node">
<title>5</title>
<ellipse fill="none" stroke="black" cx="1615.15" cy="-18" rx="216.67" ry="18"/>
<text text-anchor="middle" x="1615.15" y="-12.95" font-family="Times New Roman,serif" font-size="14.00">Smoker on the Balcony: &quot;I can&#39;t get involved in this...&quot;</text>
</g>
<!-- 1&#45;&gt;5 -->
<g id="edge5" class="edge">
<title>1&#45;&gt;5</title>
<path fill="none" stroke="black" d="M1168.21,-84.73C1232.71,-75.24 1390.77,-52 1500.5,-35.86"/>
<polygon fill="black" stroke="black" points="1500.75,-39.36 1510.13,-34.44 1499.73,-32.44 1500.75,-39.36"/>
</g>
<!-- 7 -->
<g id="node7" class="node">
<title>7</title>
<ellipse fill="none" stroke="black" cx="2112.15" cy="-18" rx="262.22" ry="18"/>
<text text-anchor="middle" x="2112.15" y="-12.95" font-family="Times New Roman,serif" font-size="14.00">Smoker on the Balcony: &quot;It&#39;s been a week and now they show up?&quot;</text>
</g>
<!-- 1&#45;&gt;7 -->
<g id="edge6" class="edge">
<title>1&#45;&gt;7</title>
<path fill="none" stroke="black" d="M1168.8,-86.87C1280.61,-78.82 1682.58,-49.9 1924.25,-32.52"/>
<polygon fill="black" stroke="black" points="1924.4,-36.02 1934.13,-31.81 1923.9,-29.03 1924.4,-36.02"/>
</g>
</g>
</svg>
