<?xml version="1.0" encoding="UTF-8" standalone="no"?>
<!DOCTYPE svg PUBLIC "-//W3C//DTD SVG 1.1//EN"
 "http://www.w3.org/Graphics/SVG/1.1/DTD/svg11.dtd">
<!-- Generated by graphviz version 12.2.1 (20241206.2353)
 -->
<!-- Title: G Pages: 1 -->
<svg width="8084pt" height="620pt"
 viewBox="0.00 0.00 8084.02 620.00" xmlns="http://www.w3.org/2000/svg" xmlns:xlink="http://www.w3.org/1999/xlink">
<g id="graph0" class="graph" transform="scale(1 1) rotate(0) translate(4 616)">
<title>G</title>
<polygon fill="white" stroke="none" points="-4,4 -4,-616 8080.02,-616 8080.02,4 -4,4"/>
<!-- 0 -->
<g id="node1" class="node">
<title>0</title>
<ellipse fill="none" stroke="black" cx="327.4" cy="-594" rx="39.07" ry="18"/>
<text text-anchor="middle" x="327.4" y="-588.95" font-family="Times New Roman,serif" font-size="14.00">START</text>
</g>
<!-- 1 -->
<g id="node2" class="node">
<title>1</title>
<ellipse fill="none" stroke="black" cx="327.4" cy="-522" rx="29.86" ry="18"/>
<text text-anchor="middle" x="327.4" y="-516.95" font-family="Times New Roman,serif" font-size="14.00">input</text>
</g>
<!-- 0&#45;&gt;1 -->
<g id="edge1" class="edge">
<title>0&#45;&gt;1</title>
<path fill="none" stroke="black" d="M327.4,-575.7C327.4,-568.41 327.4,-559.73 327.4,-551.54"/>
<polygon fill="black" stroke="black" points="330.9,-551.62 327.4,-541.62 323.9,-551.62 330.9,-551.62"/>
</g>
<!-- 40 -->
<g id="node41" class="node">
<title>40</title>
<polygon fill="none" stroke="black" points="327.4,-468 0,-450 327.4,-432 654.8,-450 327.4,-468"/>
<text text-anchor="middle" x="327.4" y="-444.95" font-family="Times New Roman,serif" font-size="14.00">IsTaskActive(&quot;TASK.find_heavy_fuel_oil&quot;)&#45;&#45;[[ Variable[ ]]</text>
</g>
<!-- 1&#45;&gt;40 -->
<g id="edge2" class="edge">
<title>1&#45;&gt;40</title>
<path fill="none" stroke="black" d="M327.4,-503.7C327.4,-496.41 327.4,-487.73 327.4,-479.54"/>
<polygon fill="black" stroke="black" points="330.9,-479.62 327.4,-469.62 323.9,-479.62 330.9,-479.62"/>
</g>
<!-- 2 -->
<g id="node3" class="node">
<title>2</title>
<ellipse fill="none" stroke="black" cx="6970.4" cy="-522" rx="316.47" ry="18"/>
<text text-anchor="middle" x="6970.4" y="-516.95" font-family="Times New Roman,serif" font-size="14.00">Kim Kitsuragi: &quot;But why? We work twelve&#45;hour shifts. We get shot at, spat on...&quot;</text>
</g>
<!-- 26 -->
<g id="node27" class="node">
<title>26</title>
<ellipse fill="none" stroke="black" cx="6970.4" cy="-450" rx="525.29" ry="18"/>
<text text-anchor="middle" x="6970.4" y="-444.95" font-family="Times New Roman,serif" font-size="14.00">Conceptualization: You&#39;ve spoken. The wall will now silently repeat the message &#45;&#45; for a decade or so, until the sea air degrades the paint.</text>
</g>
<!-- 2&#45;&gt;26 -->
<g id="edge3" class="edge">
<title>2&#45;&gt;26</title>
<path fill="none" stroke="black" d="M6970.4,-503.7C6970.4,-496.41 6970.4,-487.73 6970.4,-479.54"/>
<polygon fill="black" stroke="black" points="6973.9,-479.62 6970.4,-469.62 6966.9,-479.62 6973.9,-479.62"/>
</g>
<!-- 3 -->
<g id="node4" class="node">
<title>3</title>
<ellipse fill="none" stroke="black" cx="7244.4" cy="-594" rx="156.78" ry="18"/>
<text text-anchor="middle" x="7244.4" y="-588.95" font-family="Times New Roman,serif" font-size="14.00">You: &quot;THIS IS REALLY A MIRROR&quot;</text>
</g>
<!-- 4 -->
<g id="node5" class="node">
<title>4</title>
<ellipse fill="none" stroke="black" cx="2464.4" cy="-306" rx="187.49" ry="18"/>
<text text-anchor="middle" x="2464.4" y="-300.95" font-family="Times New Roman,serif" font-size="14.00">Kim Kitsuragi: &quot;Hmh...&quot; Just a hum. No reply.</text>
</g>
<!-- 27 -->
<g id="node28" class="node">
<title>27</title>
<ellipse fill="none" stroke="black" cx="2832.4" cy="-234" rx="520.68" ry="18"/>
<text text-anchor="middle" x="2832.4" y="-228.95" font-family="Times New Roman,serif" font-size="14.00">Conceptualization: The paintbrush in your hand is like a loaded revolver. What will it be, desperado? Quite a few things come to mind...</text>
</g>
<!-- 4&#45;&gt;27 -->
<g id="edge4" class="edge">
<title>4&#45;&gt;27</title>
<path fill="none" stroke="black" d="M2546.53,-289.38C2601.06,-279.01 2673.01,-265.32 2731.09,-254.27"/>
<polygon fill="black" stroke="black" points="2731.48,-257.76 2740.65,-252.45 2730.18,-250.88 2731.48,-257.76"/>
</g>
<!-- 5 -->
<g id="node6" class="node">
<title>5</title>
<ellipse fill="none" stroke="black" cx="2458.4" cy="-378" rx="306.74" ry="18"/>
<text text-anchor="middle" x="2458.4" y="-372.95" font-family="Times New Roman,serif" font-size="14.00">You: &quot;But what do we work on? KEEPING EVERYTHING THE WAY IT IS.&quot;</text>
</g>
<!-- 5&#45;&gt;4 -->
<g id="edge5" class="edge">
<title>5&#45;&gt;4</title>
<path fill="none" stroke="black" d="M2459.88,-359.7C2460.51,-352.41 2461.25,-343.73 2461.96,-335.54"/>
<polygon fill="black" stroke="black" points="2465.44,-335.87 2462.81,-325.61 2458.46,-335.28 2465.44,-335.87"/>
</g>
<!-- 6 -->
<g id="node7" class="node">
<title>6</title>
<ellipse fill="none" stroke="black" cx="2780.4" cy="-306" rx="103.56" ry="18"/>
<text text-anchor="middle" x="2780.4" y="-300.95" font-family="Times New Roman,serif" font-size="14.00">You: Keep it to yourself.</text>
</g>
<!-- 6&#45;&gt;27 -->
<g id="edge6" class="edge">
<title>6&#45;&gt;27</title>
<path fill="none" stroke="black" d="M2793.26,-287.7C2799.17,-279.73 2806.33,-270.1 2812.89,-261.26"/>
<polygon fill="black" stroke="black" points="2815.64,-263.43 2818.79,-253.32 2810.02,-259.26 2815.64,-263.43"/>
</g>
<!-- 7 -->
<g id="node8" class="node">
<title>7</title>
<ellipse fill="none" stroke="black" cx="2160.4" cy="-594" rx="65.68" ry="18"/>
<text text-anchor="middle" x="2160.4" y="-588.95" font-family="Times New Roman,serif" font-size="14.00">whattopainhub</text>
</g>
<!-- 22 -->
<g id="node23" class="node">
<title>22</title>
<ellipse fill="none" stroke="black" cx="2274.4" cy="-522" rx="199.78" ry="18"/>
<text text-anchor="middle" x="2274.4" y="-516.95" font-family="Times New Roman,serif" font-size="14.00">You: Let the wall remain blank. For now. [Leave.]</text>
</g>
<!-- 7&#45;&gt;22 -->
<g id="edge11" class="edge">
<title>7&#45;&gt;22</title>
<path fill="none" stroke="black" d="M2186.27,-577.12C2201.21,-567.94 2220.26,-556.25 2236.82,-546.07"/>
<polygon fill="black" stroke="black" points="2238.26,-549.3 2244.95,-541.08 2234.6,-543.33 2238.26,-549.3"/>
</g>
<!-- 23 -->
<g id="node24" class="node">
<title>23</title>
<ellipse fill="none" stroke="black" cx="7384.4" cy="-306" rx="691.62" ry="18"/>
<text text-anchor="middle" x="7384.4" y="-300.95" font-family="Times New Roman,serif" font-size="14.00">Conceptualization: You&#39;ve spoken. The wall will now silently repeat the message. For a decade or so, until the sea air degrades the paint, adding another layer of *detritus* to the city.</text>
</g>
<!-- 7&#45;&gt;23 -->
<g id="edge12" class="edge">
<title>7&#45;&gt;23</title>
<path fill="none" stroke="black" d="M2225.79,-591.85C2455.06,-587.65 3243.86,-571.65 3894.4,-540 5131.56,-479.82 6612.83,-367.62 7163.83,-324.5"/>
<polygon fill="black" stroke="black" points="7163.87,-328.01 7173.57,-323.74 7163.33,-321.03 7163.87,-328.01"/>
</g>
<!-- 25 -->
<g id="node26" class="node">
<title>25</title>
<ellipse fill="none" stroke="black" cx="2688.4" cy="-522" rx="196.19" ry="18"/>
<text text-anchor="middle" x="2688.4" y="-516.95" font-family="Times New Roman,serif" font-size="14.00">Rhetoric: Hah! Maybe there&#39;s a *reason* for that!</text>
</g>
<!-- 7&#45;&gt;25 -->
<g id="edge13" class="edge">
<title>7&#45;&gt;25</title>
<path fill="none" stroke="black" d="M2218.67,-585.27C2302.62,-574.15 2459.47,-553.35 2568.73,-538.87"/>
<polygon fill="black" stroke="black" points="2568.85,-542.38 2578.31,-537.6 2567.93,-535.44 2568.85,-542.38"/>
</g>
<!-- 30 -->
<g id="node31" class="node">
<title>30</title>
<ellipse fill="none" stroke="black" cx="2050.4" cy="-450" rx="146.55" ry="18"/>
<text text-anchor="middle" x="2050.4" y="-444.95" font-family="Times New Roman,serif" font-size="14.00">You: &quot;MOTHER OF ALL WALLS&quot;</text>
</g>
<!-- 7&#45;&gt;30 -->
<g id="edge14" class="edge">
<title>7&#45;&gt;30</title>
<path fill="none" stroke="black" d="M2119.52,-579.7C2100.16,-571.32 2078.47,-558.52 2065.4,-540 2053.1,-522.57 2049.64,-498.5 2049.1,-479.78"/>
<polygon fill="black" stroke="black" points="2052.6,-479.9 2049.1,-469.9 2045.6,-479.9 2052.6,-479.9"/>
</g>
<!-- 31 -->
<g id="node32" class="node">
<title>31</title>
<ellipse fill="none" stroke="black" cx="942.4" cy="-450" rx="232.02" ry="18"/>
<text text-anchor="middle" x="942.4" y="-444.95" font-family="Times New Roman,serif" font-size="14.00">You: (Draw a 3,500 year old pictogram of a human being.)</text>
</g>
<!-- 7&#45;&gt;31 -->
<g id="edge15" class="edge">
<title>7&#45;&gt;31</title>
<path fill="none" stroke="black" d="M2095.02,-591.87C1875.04,-587.79 1169.99,-572.3 1073.4,-540 1033.22,-526.56 993.96,-497.06 969.06,-475.7"/>
<polygon fill="black" stroke="black" points="971.52,-473.21 961.7,-469.24 966.9,-478.47 971.52,-473.21"/>
</g>
<!-- 32 -->
<g id="node33" class="node">
<title>32</title>
<ellipse fill="none" stroke="black" cx="807.4" cy="-522" rx="95.37" ry="18"/>
<text text-anchor="middle" x="807.4" y="-516.95" font-family="Times New Roman,serif" font-size="14.00">You: &quot;RENE LIVES!&quot;</text>
</g>
<!-- 7&#45;&gt;32 -->
<g id="edge7" class="edge">
<title>7&#45;&gt;32</title>
<path fill="none" stroke="black" d="M2094.99,-591.22C1916.69,-586.1 1407.17,-569.81 984.4,-540 957.05,-538.07 927.38,-535.44 900.28,-532.81"/>
<polygon fill="black" stroke="black" points="900.64,-529.33 890.35,-531.84 899.96,-536.3 900.64,-529.33"/>
</g>
<!-- 33 -->
<g id="node34" class="node">
<title>33</title>
<ellipse fill="none" stroke="black" cx="3766.4" cy="-522" rx="118.91" ry="18"/>
<text text-anchor="middle" x="3766.4" y="-516.95" font-family="Times New Roman,serif" font-size="14.00">You: &quot;FUCK THE POLICE&quot;</text>
</g>
<!-- 7&#45;&gt;33 -->
<g id="edge8" class="edge">
<title>7&#45;&gt;33</title>
<path fill="none" stroke="black" d="M2224.85,-590.19C2466.34,-579.67 3320.23,-542.45 3642.26,-528.41"/>
<polygon fill="black" stroke="black" points="3642.14,-531.92 3651.98,-527.99 3641.83,-524.93 3642.14,-531.92"/>
</g>
<!-- 34 -->
<g id="node35" class="node">
<title>34</title>
<ellipse fill="none" stroke="black" cx="1313.4" cy="-522" rx="231" ry="18"/>
<text text-anchor="middle" x="1313.4" y="-516.95" font-family="Times New Roman,serif" font-size="14.00">You: &quot;You&#39;re right, you&#39;re right. Is it too late to change it?&quot;</text>
</g>
<!-- 7&#45;&gt;34 -->
<g id="edge9" class="edge">
<title>7&#45;&gt;34</title>
<path fill="none" stroke="black" d="M2098.12,-587.85C1969.05,-577.19 1668.64,-552.36 1479.21,-536.7"/>
<polygon fill="black" stroke="black" points="1479.5,-533.22 1469.25,-535.88 1478.92,-540.19 1479.5,-533.22"/>
</g>
<!-- 37 -->
<g id="node38" class="node">
<title>37</title>
<ellipse fill="none" stroke="black" cx="1790.4" cy="-522" rx="228.44" ry="18"/>
<text text-anchor="middle" x="1790.4" y="-516.95" font-family="Times New Roman,serif" font-size="14.00">Kim Kitsuragi: The lieutenant looks at the wall in dismay:</text>
</g>
<!-- 7&#45;&gt;37 -->
<g id="edge10" class="edge">
<title>7&#45;&gt;37</title>
<path fill="none" stroke="black" d="M2107.39,-582.97C2050.01,-572.12 1957.29,-554.57 1886.92,-541.26"/>
<polygon fill="black" stroke="black" points="1887.79,-537.86 1877.31,-539.44 1886.49,-544.74 1887.79,-537.86"/>
</g>
<!-- 8 -->
<g id="node9" class="node">
<title>8</title>
<ellipse fill="none" stroke="black" cx="4472.4" cy="-450" rx="58.52" ry="18"/>
<text text-anchor="middle" x="4472.4" y="-444.95" font-family="Times New Roman,serif" font-size="14.00">IsKimHere()</text>
</g>
<!-- 9 -->
<g id="node10" class="node">
<title>9</title>
<polygon fill="none" stroke="black" points="4472.4,-396 4389.65,-378 4472.4,-360 4555.16,-378 4472.4,-396"/>
<text text-anchor="middle" x="4472.4" y="-372.95" font-family="Times New Roman,serif" font-size="14.00">IsKimHere()</text>
</g>
<!-- 8&#45;&gt;9 -->
<g id="edge16" class="edge">
<title>8&#45;&gt;9</title>
<path fill="none" stroke="black" d="M4472.4,-431.7C4472.4,-424.41 4472.4,-415.73 4472.4,-407.54"/>
<polygon fill="black" stroke="black" points="4475.9,-407.62 4472.4,-397.62 4468.9,-407.62 4475.9,-407.62"/>
</g>
<!-- 10 -->
<g id="node11" class="node">
<title>10</title>
<polygon fill="none" stroke="black" points="5326.4,-396 5230.62,-378 5326.4,-360 5422.19,-378 5326.4,-396"/>
<text text-anchor="middle" x="5326.4" y="-372.95" font-family="Times New Roman,serif" font-size="14.00">!(IsKimHere())</text>
</g>
<!-- 8&#45;&gt;10 -->
<g id="edge17" class="edge">
<title>8&#45;&gt;10</title>
<path fill="none" stroke="black" d="M4528.43,-444.41C4676.98,-432.23 5081.02,-399.11 5250.25,-385.24"/>
<polygon fill="black" stroke="black" points="5250.34,-388.75 5260.03,-384.44 5249.77,-381.77 5250.34,-388.75"/>
</g>
<!-- 38 -->
<g id="node39" class="node">
<title>38</title>
<ellipse fill="none" stroke="black" cx="4472.4" cy="-306" rx="801.66" ry="18"/>
<text text-anchor="middle" x="4472.4" y="-300.95" font-family="Times New Roman,serif" font-size="14.00">Kim Kitsuragi: &quot;Very poetic.&quot; The lieutenant nods in appreciation &#45;&#45; it doesn&#39;t sound sincere. &quot;Real poetry. Should we return to our murder investigation? I hear there&#39;s a really *bad* one we&#39;re supposed to solve.&quot;</text>
</g>
<!-- 9&#45;&gt;38 -->
<g id="edge18" class="edge">
<title>9&#45;&gt;38</title>
<path fill="none" stroke="black" d="M4472.4,-359.7C4472.4,-352.41 4472.4,-343.73 4472.4,-335.54"/>
<polygon fill="black" stroke="black" points="4475.9,-335.62 4472.4,-325.62 4468.9,-335.62 4475.9,-335.62"/>
</g>
<!-- 12 -->
<g id="node13" class="node">
<title>12</title>
<ellipse fill="none" stroke="black" cx="5983.4" cy="-306" rx="691.62" ry="18"/>
<text text-anchor="middle" x="5983.4" y="-300.95" font-family="Times New Roman,serif" font-size="14.00">Conceptualization: You&#39;ve spoken. The wall will now silently repeat the message. For a decade or so, until the sea air degrades the paint, adding another layer of *detritus* to the city.</text>
</g>
<!-- 10&#45;&gt;12 -->
<g id="edge19" class="edge">
<title>10&#45;&gt;12</title>
<path fill="none" stroke="black" d="M5385.57,-370.7C5480.93,-360.54 5672.1,-340.17 5812.7,-325.19"/>
<polygon fill="black" stroke="black" points="5812.93,-328.68 5822.5,-324.14 5812.19,-321.72 5812.93,-328.68"/>
</g>
<!-- 11 -->
<g id="node12" class="node">
<title>11</title>
<ellipse fill="none" stroke="black" cx="1434.4" cy="-450" rx="242.26" ry="18"/>
<text text-anchor="middle" x="1434.4" y="-444.95" font-family="Times New Roman,serif" font-size="14.00">Kim Kitsuragi: The lieutenant raises his eyebrows, then sighs.</text>
</g>
<!-- 29 -->
<g id="node30" class="node">
<title>29</title>
<ellipse fill="none" stroke="black" cx="1328.4" cy="-378" rx="243.79" ry="18"/>
<text text-anchor="middle" x="1328.4" y="-372.95" font-family="Times New Roman,serif" font-size="14.00">You: &quot;SOMETHING BEAUTIFUL IS GOING TO HAPPEN&quot;</text>
</g>
<!-- 11&#45;&gt;29 -->
<g id="edge20" class="edge">
<title>11&#45;&gt;29</title>
<path fill="none" stroke="black" d="M1408.2,-431.7C1394.95,-422.95 1378.67,-412.19 1364.27,-402.69"/>
<polygon fill="black" stroke="black" points="1366.21,-399.77 1355.93,-397.18 1362.35,-405.61 1366.21,-399.77"/>
</g>
<!-- 18 -->
<g id="node19" class="node">
<title>18</title>
<polygon fill="none" stroke="black" points="5983.4,-252 5900.65,-234 5983.4,-216 6066.16,-234 5983.4,-252"/>
<text text-anchor="middle" x="5983.4" y="-228.95" font-family="Times New Roman,serif" font-size="14.00">IsKimHere()</text>
</g>
<!-- 12&#45;&gt;18 -->
<g id="edge21" class="edge">
<title>12&#45;&gt;18</title>
<path fill="none" stroke="black" d="M5983.4,-287.7C5983.4,-280.41 5983.4,-271.73 5983.4,-263.54"/>
<polygon fill="black" stroke="black" points="5986.9,-263.62 5983.4,-253.62 5979.9,-263.62 5986.9,-263.62"/>
</g>
<!-- 13 -->
<g id="node14" class="node">
<title>13</title>
<ellipse fill="none" stroke="black" cx="6970.4" cy="-594" rx="99.46" ry="18"/>
<text text-anchor="middle" x="6970.4" y="-588.95" font-family="Times New Roman,serif" font-size="14.00">You: &quot;Yeah &#45;&#45; fuck us.&quot;</text>
</g>
<!-- 13&#45;&gt;2 -->
<g id="edge22" class="edge">
<title>13&#45;&gt;2</title>
<path fill="none" stroke="black" d="M6970.4,-575.7C6970.4,-568.41 6970.4,-559.73 6970.4,-551.54"/>
<polygon fill="black" stroke="black" points="6973.9,-551.62 6970.4,-541.62 6966.9,-551.62 6973.9,-551.62"/>
</g>
<!-- 14 -->
<g id="node15" class="node">
<title>14</title>
<ellipse fill="none" stroke="black" cx="3371.4" cy="-378" rx="181.35" ry="18"/>
<text text-anchor="middle" x="3371.4" y="-372.95" font-family="Times New Roman,serif" font-size="14.00">Variable[&quot;backyard.orb_wall_paint_rhetoric&quot;]</text>
</g>
<!-- 16 -->
<g id="node17" class="node">
<title>16</title>
<polygon fill="none" stroke="black" points="3209.4,-324 2939.9,-306 3209.4,-288 3478.9,-306 3209.4,-324"/>
<text text-anchor="middle" x="3209.4" y="-300.95" font-family="Times New Roman,serif" font-size="14.00">!(Variable[&quot;backyard.orb_wall_paint_rhetoric&quot;])</text>
</g>
<!-- 14&#45;&gt;16 -->
<g id="edge23" class="edge">
<title>14&#45;&gt;16</title>
<path fill="none" stroke="black" d="M3332.19,-360.05C3308.86,-349.97 3279.16,-337.14 3254.82,-326.62"/>
<polygon fill="black" stroke="black" points="3256.35,-323.48 3245.79,-322.72 3253.58,-329.9 3256.35,-323.48"/>
</g>
<!-- 17 -->
<g id="node18" class="node">
<title>17</title>
<ellipse fill="none" stroke="black" cx="3555.4" cy="-306" rx="58.52" ry="18"/>
<text text-anchor="middle" x="3555.4" y="-300.95" font-family="Times New Roman,serif" font-size="14.00">IsKimHere()</text>
</g>
<!-- 14&#45;&gt;17 -->
<g id="edge24" class="edge">
<title>14&#45;&gt;17</title>
<path fill="none" stroke="black" d="M3415.47,-360.23C3443.76,-349.47 3480.42,-335.52 3509.13,-324.6"/>
<polygon fill="black" stroke="black" points="3510.19,-327.95 3518.29,-321.12 3507.7,-321.4 3510.19,-327.95"/>
</g>
<!-- 15 -->
<g id="node16" class="node">
<title>15</title>
<polygon fill="none" stroke="black" points="2628.4,-468 2371.93,-450 2628.4,-432 2884.87,-450 2628.4,-468"/>
<text text-anchor="middle" x="2628.4" y="-444.95" font-family="Times New Roman,serif" font-size="14.00">Variable[&quot;backyard.orb_wall_paint_rhetoric&quot;]</text>
</g>
<!-- 15&#45;&gt;5 -->
<g id="edge25" class="edge">
<title>15&#45;&gt;5</title>
<path fill="none" stroke="black" d="M2592.35,-434.15C2568.71,-424.42 2537.4,-411.53 2511,-400.66"/>
<polygon fill="black" stroke="black" points="2512.38,-397.44 2501.8,-396.87 2509.71,-403.91 2512.38,-397.44"/>
</g>
<!-- 15&#45;&gt;6 -->
<g id="edge26" class="edge">
<title>15&#45;&gt;6</title>
<path fill="none" stroke="black" d="M2709.21,-437.25C2733.91,-429.57 2758.68,-416.9 2774.4,-396 2787.22,-378.97 2787.98,-354.52 2785.96,-335.56"/>
<polygon fill="black" stroke="black" points="2789.44,-335.21 2784.58,-325.8 2782.51,-336.19 2789.44,-335.21"/>
</g>
<!-- 16&#45;&gt;27 -->
<g id="edge27" class="edge">
<title>16&#45;&gt;27</title>
<path fill="none" stroke="black" d="M3140.25,-292.16C3083.08,-281.55 3001.03,-266.31 2936.01,-254.24"/>
<polygon fill="black" stroke="black" points="2936.87,-250.84 2926.4,-252.45 2935.59,-257.72 2936.87,-250.84"/>
</g>
<!-- 19 -->
<g id="node20" class="node">
<title>19</title>
<polygon fill="none" stroke="black" points="3518.4,-252 3422.62,-234 3518.4,-216 3614.19,-234 3518.4,-252"/>
<text text-anchor="middle" x="3518.4" y="-228.95" font-family="Times New Roman,serif" font-size="14.00">!(IsKimHere())</text>
</g>
<!-- 17&#45;&gt;19 -->
<g id="edge28" class="edge">
<title>17&#45;&gt;19</title>
<path fill="none" stroke="black" d="M3546.44,-288.05C3542.14,-279.91 3536.89,-269.97 3532.1,-260.91"/>
<polygon fill="black" stroke="black" points="3535.24,-259.37 3527.48,-252.17 3529.05,-262.64 3535.24,-259.37"/>
</g>
<!-- 20 -->
<g id="node21" class="node">
<title>20</title>
<ellipse fill="none" stroke="black" cx="3580.4" cy="-450" rx="174.19" ry="18"/>
<text text-anchor="middle" x="3580.4" y="-444.95" font-family="Times New Roman,serif" font-size="14.00">Kim Kitsuragi: &quot;But we *are* the police...&quot;</text>
</g>
<!-- 17&#45;&gt;20 -->
<g id="edge29" class="edge">
<title>17&#45;&gt;20</title>
<path fill="none" stroke="black" d="M3558.41,-324.11C3562.63,-348.03 3570.32,-391.76 3575.4,-420.6"/>
<polygon fill="black" stroke="black" points="3571.89,-420.86 3577.07,-430.1 3578.79,-419.64 3571.89,-420.86"/>
</g>
<!-- 39 -->
<g id="node40" class="node">
<title>39</title>
<ellipse fill="none" stroke="black" cx="5567.4" cy="-162" rx="231.51" ry="18"/>
<text text-anchor="middle" x="5567.4" y="-156.95" font-family="Times New Roman,serif" font-size="14.00">IsTaskActive(&quot;TASK.find_heavy_fuel_oil&quot;)&#45;&#45;[[ Variable[ ]]</text>
</g>
<!-- 18&#45;&gt;39 -->
<g id="edge30" class="edge">
<title>18&#45;&gt;39</title>
<path fill="none" stroke="black" d="M5938.09,-225.38C5874.91,-214.74 5758.49,-195.15 5672.91,-180.75"/>
<polygon fill="black" stroke="black" points="5673.52,-177.31 5663.07,-179.1 5672.36,-184.21 5673.52,-177.31"/>
</g>
<!-- 20&#45;&gt;14 -->
<g id="edge32" class="edge">
<title>20&#45;&gt;14</title>
<path fill="none" stroke="black" d="M3530.61,-432.32C3501.01,-422.41 3463.27,-409.77 3431.96,-399.28"/>
<polygon fill="black" stroke="black" points="3433.21,-396.01 3422.61,-396.15 3430.98,-402.65 3433.21,-396.01"/>
</g>
<!-- 35 -->
<g id="node36" class="node">
<title>35</title>
<ellipse fill="none" stroke="black" cx="4058.4" cy="-162" rx="427.53" ry="18"/>
<text text-anchor="middle" x="4058.4" y="-156.95" font-family="Times New Roman,serif" font-size="14.00">Conceptualization: Paintbrush &#45;&#45; check, heavy fuel oil &#45;&#45; check... Now the only thing left to do is paint the wall.</text>
</g>
<!-- 20&#45;&gt;35 -->
<g id="edge31" class="edge">
<title>20&#45;&gt;35</title>
<path fill="none" stroke="black" d="M3584.35,-431.66C3592.72,-398.77 3615.4,-327.13 3661.4,-288 3730.27,-229.42 3826.64,-198.25 3907.19,-181.68"/>
<polygon fill="black" stroke="black" points="3907.84,-185.12 3916.97,-179.73 3906.48,-178.25 3907.84,-185.12"/>
</g>
<!-- 21 -->
<g id="node22" class="node">
<title>21</title>
<ellipse fill="none" stroke="black" cx="1790.4" cy="-450" rx="95.88" ry="18"/>
<text text-anchor="middle" x="1790.4" y="-444.95" font-family="Times New Roman,serif" font-size="14.00">You: &quot;NO PARKING&quot;</text>
</g>
<!-- 24 -->
<g id="node25" class="node">
<title>24</title>
<ellipse fill="none" stroke="black" cx="1173.4" cy="-306" rx="120.45" ry="18"/>
<text text-anchor="middle" x="1173.4" y="-300.95" font-family="Times New Roman,serif" font-size="14.00">You: &quot;I LOVE YOU CUNO&quot;</text>
</g>
<!-- 21&#45;&gt;24 -->
<g id="edge33" class="edge">
<title>21&#45;&gt;24</title>
<path fill="none" stroke="black" d="M1759.5,-432.65C1719.53,-412.27 1647.23,-377.93 1581.4,-360 1487.44,-334.41 1377.84,-321.05 1295.91,-314.14"/>
<polygon fill="black" stroke="black" points="1296.3,-310.66 1286.04,-313.33 1295.72,-317.64 1296.3,-310.66"/>
</g>
<!-- 23&#45;&gt;18 -->
<g id="edge34" class="edge">
<title>23&#45;&gt;18</title>
<path fill="none" stroke="black" d="M7073.91,-289.49C6745.46,-273.08 6249.12,-248.28 6060.13,-238.83"/>
<polygon fill="black" stroke="black" points="6060.35,-235.34 6050.18,-238.34 6060,-242.33 6060.35,-235.34"/>
</g>
<!-- 24&#45;&gt;24 -->
<g id="edge35" class="edge">
<title>24&#45;&gt;24</title>
<path fill="none" stroke="black" d="M1256.18,-319.48C1286.75,-319.88 1311.85,-315.39 1311.85,-306 1311.85,-297.82 1292.8,-293.36 1267.69,-292.61"/>
<polygon fill="black" stroke="black" points="1267.72,-289.11 1257.69,-292.54 1267.67,-296.11 1267.72,-289.11"/>
</g>
<!-- 25&#45;&gt;15 -->
<g id="edge36" class="edge">
<title>25&#45;&gt;15</title>
<path fill="none" stroke="black" d="M2673.57,-503.7C2666.31,-495.23 2657.45,-484.89 2649.5,-475.61"/>
<polygon fill="black" stroke="black" points="2652.39,-473.61 2643.22,-468.29 2647.08,-478.16 2652.39,-473.61"/>
</g>
<!-- 27&#45;&gt;7 -->
<g id="edge37" class="edge">
<title>27&#45;&gt;7</title>
<path fill="none" stroke="black" d="M2859.45,-252.4C2871.6,-261.58 2885.06,-273.86 2893.4,-288 2913.95,-322.84 2912.4,-336.55 2912.4,-377 2912.4,-451 2912.4,-451 2912.4,-451 2912.4,-491.45 2923.91,-513.44 2893.4,-540 2844.76,-582.35 2415.73,-590.86 2237.51,-592.57"/>
<polygon fill="black" stroke="black" points="2237.62,-589.07 2227.65,-592.66 2237.68,-596.07 2237.62,-589.07"/>
</g>
<!-- 28 -->
<g id="node29" class="node">
<title>28</title>
<ellipse fill="none" stroke="black" cx="5229.4" cy="-18" rx="279.62" ry="18"/>
<text text-anchor="middle" x="5229.4" y="-12.95" font-family="Times New Roman,serif" font-size="14.00">Conceptualization: The wall towers over you with its indelible message.</text>
</g>
<!-- 29&#45;&gt;24 -->
<g id="edge38" class="edge">
<title>29&#45;&gt;24</title>
<path fill="none" stroke="black" d="M1290.48,-359.88C1269.36,-350.34 1242.88,-338.38 1220.44,-328.24"/>
<polygon fill="black" stroke="black" points="1222.06,-325.13 1211.51,-324.21 1219.18,-331.51 1222.06,-325.13"/>
</g>
<!-- 30&#45;&gt;24 -->
<g id="edge39" class="edge">
<title>30&#45;&gt;24</title>
<path fill="none" stroke="black" d="M1988.35,-433.24C1909.21,-413.64 1767.92,-380.28 1645.4,-360 1524.11,-339.92 1384,-325.25 1288.13,-316.5"/>
<polygon fill="black" stroke="black" points="1288.74,-313.04 1278.46,-315.63 1288.11,-320.01 1288.74,-313.04"/>
</g>
<!-- 31&#45;&gt;24 -->
<g id="edge40" class="edge">
<title>31&#45;&gt;24</title>
<path fill="none" stroke="black" d="M966.47,-431.9C992.78,-413.44 1036.39,-383.53 1075.4,-360 1093.26,-349.23 1113.46,-338.13 1130.87,-328.88"/>
<polygon fill="black" stroke="black" points="1132.2,-332.14 1139.41,-324.38 1128.93,-325.95 1132.2,-332.14"/>
</g>
<!-- 32&#45;&gt;24 -->
<g id="edge41" class="edge">
<title>32&#45;&gt;24</title>
<path fill="none" stroke="black" d="M752.68,-506.84C733.01,-498.83 712.87,-486.55 701.4,-468 692.99,-454.39 691.64,-444.68 701.4,-432 746.1,-373.92 945.74,-337.28 1070.63,-319.6"/>
<polygon fill="black" stroke="black" points="1070.81,-323.11 1080.23,-318.26 1069.84,-316.18 1070.81,-323.11"/>
</g>
<!-- 33&#45;&gt;8 -->
<g id="edge42" class="edge">
<title>33&#45;&gt;8</title>
<path fill="none" stroke="black" d="M3863.83,-511.34C4009.64,-496.88 4280.84,-469.99 4405.98,-457.59"/>
<polygon fill="black" stroke="black" points="4406.15,-461.09 4415.76,-456.62 4405.46,-454.12 4406.15,-461.09"/>
</g>
<!-- 34&#45;&gt;11 -->
<g id="edge43" class="edge">
<title>34&#45;&gt;11</title>
<path fill="none" stroke="black" d="M1343.31,-503.7C1358.87,-494.69 1378.1,-483.57 1394.87,-473.87"/>
<polygon fill="black" stroke="black" points="1396.2,-477.14 1403.11,-469.1 1392.7,-471.08 1396.2,-477.14"/>
</g>
<!-- 35&#45;&gt;28 -->
<g id="edge44" class="edge">
<title>35&#45;&gt;28</title>
<path fill="none" stroke="black" d="M4194.73,-144.47C4419.33,-117.23 4864.71,-63.22 5090.78,-35.81"/>
<polygon fill="black" stroke="black" points="5091.04,-39.3 5100.54,-34.63 5090.19,-32.36 5091.04,-39.3"/>
</g>
<!-- 36 -->
<g id="node37" class="node">
<title>36</title>
<ellipse fill="none" stroke="black" cx="339.4" cy="-378" rx="303.16" ry="18"/>
<text text-anchor="middle" x="339.4" y="-372.95" font-family="Times New Roman,serif" font-size="14.00">You: &quot;WHAT SHADOW LIES THERE, BENEATH THE BRIGHT GLEAM&quot;</text>
</g>
<!-- 36&#45;&gt;24 -->
<g id="edge45" class="edge">
<title>36&#45;&gt;24</title>
<path fill="none" stroke="black" d="M509.68,-362.71C673.65,-348.95 917.1,-328.51 1059.07,-316.6"/>
<polygon fill="black" stroke="black" points="1059.2,-320.1 1068.87,-315.77 1058.62,-313.12 1059.2,-320.1"/>
</g>
<!-- 37&#45;&gt;21 -->
<g id="edge46" class="edge">
<title>37&#45;&gt;21</title>
<path fill="none" stroke="black" d="M1790.4,-503.7C1790.4,-496.41 1790.4,-487.73 1790.4,-479.54"/>
<polygon fill="black" stroke="black" points="1793.9,-479.62 1790.4,-469.62 1786.9,-479.62 1793.9,-479.62"/>
</g>
<!-- 41 -->
<g id="node42" class="node">
<title>41</title>
<polygon fill="none" stroke="black" points="5567.4,-108 5226.97,-90 5567.4,-72 5907.83,-90 5567.4,-108"/>
<text text-anchor="middle" x="5567.4" y="-84.95" font-family="Times New Roman,serif" font-size="14.00">!(IsTaskActive(&quot;TASK.find_heavy_fuel_oil&quot;)&#45;&#45;[[ Variable[ ]])</text>
</g>
<!-- 39&#45;&gt;41 -->
<g id="edge47" class="edge">
<title>39&#45;&gt;41</title>
<path fill="none" stroke="black" d="M5567.4,-143.7C5567.4,-136.41 5567.4,-127.73 5567.4,-119.54"/>
<polygon fill="black" stroke="black" points="5570.9,-119.62 5567.4,-109.62 5563.9,-119.62 5570.9,-119.62"/>
</g>
<!-- 42 -->
<g id="node43" class="node">
<title>42</title>
<ellipse fill="none" stroke="black" cx="5182.4" cy="-90" rx="27" ry="18"/>
<text text-anchor="middle" x="5182.4" y="-84.95" font-family="Times New Roman,serif" font-size="14.00">42</text>
</g>
<!-- 39&#45;&gt;42 -->
<g id="edge48" class="edge">
<title>39&#45;&gt;42</title>
<path fill="none" stroke="black" d="M5417.54,-147.91C5355.05,-139.98 5282.3,-127.48 5218.4,-108 5216.79,-107.51 5215.16,-106.96 5213.53,-106.36"/>
<polygon fill="black" stroke="black" points="5214.91,-103.14 5204.33,-102.53 5212.21,-109.61 5214.91,-103.14"/>
</g>
<!-- 40&#45;&gt;36 -->
<g id="edge49" class="edge">
<title>40&#45;&gt;36</title>
<path fill="none" stroke="black" d="M330.37,-431.7C331.63,-424.32 333.14,-415.52 334.56,-407.25"/>
<polygon fill="black" stroke="black" points="337.97,-408.04 336.21,-397.6 331.07,-406.86 337.97,-408.04"/>
</g>
<!-- 41&#45;&gt;28 -->
<g id="edge50" class="edge">
<title>41&#45;&gt;28</title>
<path fill="none" stroke="black" d="M5500.22,-75.09C5448.87,-64.45 5377.53,-49.68 5320.96,-37.96"/>
<polygon fill="black" stroke="black" points="5321.83,-34.57 5311.33,-35.97 5320.41,-41.42 5321.83,-34.57"/>
</g>
</g>
</svg>
