<?xml version="1.0" encoding="UTF-8" standalone="no"?>
<!DOCTYPE svg PUBLIC "-//W3C//DTD SVG 1.1//EN"
 "http://www.w3.org/Graphics/SVG/1.1/DTD/svg11.dtd">
<!-- Generated by graphviz version 12.2.1 (20241206.2353)
 -->
<!-- Title: G Pages: 1 -->
<svg width="3848pt" height="1412pt"
 viewBox="0.00 0.00 3848.50 1412.00" xmlns="http://www.w3.org/2000/svg" xmlns:xlink="http://www.w3.org/1999/xlink">
<g id="graph0" class="graph" transform="scale(1 1) rotate(0) translate(4 1408)">
<title>G</title>
<polygon fill="white" stroke="none" points="-4,4 -4,-1408 3844.5,-1408 3844.5,4 -4,4"/>
<!-- 0 -->
<g id="node1" class="node">
<title>0</title>
<ellipse fill="none" stroke="black" cx="1536.88" cy="-1386" rx="39.07" ry="18"/>
<text text-anchor="middle" x="1536.88" y="-1380.95" font-family="Times New Roman,serif" font-size="14.00">START</text>
</g>
<!-- 1 -->
<g id="node2" class="node">
<title>1</title>
<ellipse fill="none" stroke="black" cx="1536.88" cy="-1314" rx="29.86" ry="18"/>
<text text-anchor="middle" x="1536.88" y="-1308.95" font-family="Times New Roman,serif" font-size="14.00">input</text>
</g>
<!-- 0&#45;&gt;1 -->
<g id="edge1" class="edge">
<title>0&#45;&gt;1</title>
<path fill="none" stroke="black" d="M1536.88,-1367.7C1536.88,-1360.41 1536.88,-1351.73 1536.88,-1343.54"/>
<polygon fill="black" stroke="black" points="1540.38,-1343.62 1536.88,-1333.62 1533.38,-1343.62 1540.38,-1343.62"/>
</g>
<!-- 40 -->
<g id="node40" class="node">
<title>40</title>
<ellipse fill="none" stroke="black" cx="1536.88" cy="-1242" rx="231.51" ry="18"/>
<text text-anchor="middle" x="1536.88" y="-1236.95" font-family="Times New Roman,serif" font-size="14.00">IsTaskActive(&quot;TASK.find_heavy_fuel_oil&quot;)&#45;&#45;[[ Variable[ ]]</text>
</g>
<!-- 1&#45;&gt;40 -->
<g id="edge2" class="edge">
<title>1&#45;&gt;40</title>
<path fill="none" stroke="black" d="M1536.88,-1295.7C1536.88,-1288.41 1536.88,-1279.73 1536.88,-1271.54"/>
<polygon fill="black" stroke="black" points="1540.38,-1271.62 1536.88,-1261.62 1533.38,-1271.62 1540.38,-1271.62"/>
</g>
<!-- 2 -->
<g id="node3" class="node">
<title>2</title>
<ellipse fill="none" stroke="black" cx="2983.88" cy="-450" rx="316.47" ry="18"/>
<text text-anchor="middle" x="2983.88" y="-444.95" font-family="Times New Roman,serif" font-size="14.00">Kim Kitsuragi: &quot;But why? We work twelve&#45;hour shifts. We get shot at, spat on...&quot;</text>
</g>
<!-- 26 -->
<g id="node26" class="node">
<title>26</title>
<ellipse fill="none" stroke="black" cx="2983.88" cy="-378" rx="196.19" ry="18"/>
<text text-anchor="middle" x="2983.88" y="-372.95" font-family="Times New Roman,serif" font-size="14.00">Rhetoric: Hah! Maybe there&#39;s a *reason* for that!</text>
</g>
<!-- 2&#45;&gt;26 -->
<g id="edge3" class="edge">
<title>2&#45;&gt;26</title>
<path fill="none" stroke="black" d="M2983.88,-431.7C2983.88,-424.41 2983.88,-415.73 2983.88,-407.54"/>
<polygon fill="black" stroke="black" points="2987.38,-407.62 2983.88,-397.62 2980.38,-407.62 2987.38,-407.62"/>
</g>
<!-- 3 -->
<g id="node4" class="node">
<title>3</title>
<ellipse fill="none" stroke="black" cx="1750.88" cy="-1386" rx="156.78" ry="18"/>
<text text-anchor="middle" x="1750.88" y="-1380.95" font-family="Times New Roman,serif" font-size="14.00">You: &quot;THIS IS REALLY A MIRROR&quot;</text>
</g>
<!-- 4 -->
<g id="node5" class="node">
<title>4</title>
<ellipse fill="none" stroke="black" cx="2676.88" cy="-90" rx="187.49" ry="18"/>
<text text-anchor="middle" x="2676.88" y="-84.95" font-family="Times New Roman,serif" font-size="14.00">Kim Kitsuragi: &quot;Hmh...&quot; Just a hum. No reply.</text>
</g>
<!-- 27 -->
<g id="node27" class="node">
<title>27</title>
<ellipse fill="none" stroke="black" cx="2676.88" cy="-18" rx="525.29" ry="18"/>
<text text-anchor="middle" x="2676.88" y="-12.95" font-family="Times New Roman,serif" font-size="14.00">Conceptualization: You&#39;ve spoken. The wall will now silently repeat the message &#45;&#45; for a decade or so, until the sea air degrades the paint.</text>
</g>
<!-- 4&#45;&gt;27 -->
<g id="edge4" class="edge">
<title>4&#45;&gt;27</title>
<path fill="none" stroke="black" d="M2676.88,-71.7C2676.88,-64.41 2676.88,-55.73 2676.88,-47.54"/>
<polygon fill="black" stroke="black" points="2680.38,-47.62 2676.88,-37.62 2673.38,-47.62 2680.38,-47.62"/>
</g>
<!-- 5 -->
<g id="node6" class="node">
<title>5</title>
<ellipse fill="none" stroke="black" cx="2816.88" cy="-162" rx="306.74" ry="18"/>
<text text-anchor="middle" x="2816.88" y="-156.95" font-family="Times New Roman,serif" font-size="14.00">You: &quot;But what do we work on? KEEPING EVERYTHING THE WAY IT IS.&quot;</text>
</g>
<!-- 5&#45;&gt;4 -->
<g id="edge5" class="edge">
<title>5&#45;&gt;4</title>
<path fill="none" stroke="black" d="M2782.27,-143.7C2763.88,-134.5 2741.06,-123.09 2721.36,-113.24"/>
<polygon fill="black" stroke="black" points="2722.95,-110.12 2712.44,-108.78 2719.82,-116.38 2722.95,-110.12"/>
</g>
<!-- 6 -->
<g id="node7" class="node">
<title>6</title>
<ellipse fill="none" stroke="black" cx="2388.88" cy="-162" rx="103.56" ry="18"/>
<text text-anchor="middle" x="2388.88" y="-156.95" font-family="Times New Roman,serif" font-size="14.00">You: Keep it to yourself.</text>
</g>
<!-- 6&#45;&gt;27 -->
<g id="edge6" class="edge">
<title>6&#45;&gt;27</title>
<path fill="none" stroke="black" d="M2401.93,-143.93C2418.24,-123.78 2448.03,-90.66 2480.88,-72 2506.5,-57.45 2536.28,-46.76 2564.77,-38.94"/>
<polygon fill="black" stroke="black" points="2565.37,-42.4 2574.15,-36.48 2563.59,-35.64 2565.37,-42.4"/>
</g>
<!-- 7 -->
<g id="node8" class="node">
<title>7</title>
<ellipse fill="none" stroke="black" cx="1537.88" cy="-954" rx="65.68" ry="18"/>
<text text-anchor="middle" x="1537.88" y="-948.95" font-family="Times New Roman,serif" font-size="14.00">whattopainhub</text>
</g>
<!-- 22 -->
<g id="node22" class="node">
<title>22</title>
<ellipse fill="none" stroke="black" cx="95.88" cy="-882" rx="95.88" ry="18"/>
<text text-anchor="middle" x="95.88" y="-876.95" font-family="Times New Roman,serif" font-size="14.00">You: &quot;NO PARKING&quot;</text>
</g>
<!-- 7&#45;&gt;22 -->
<g id="edge11" class="edge">
<title>7&#45;&gt;22</title>
<path fill="none" stroke="black" d="M1471.95,-953.2C1277.1,-953.19 687.14,-948.82 200.88,-900 192.35,-899.14 183.47,-898.04 174.63,-896.81"/>
<polygon fill="black" stroke="black" points="175.4,-893.38 165,-895.4 174.39,-900.31 175.4,-893.38"/>
</g>
<!-- 23 -->
<g id="node23" class="node">
<title>23</title>
<ellipse fill="none" stroke="black" cx="409.88" cy="-882" rx="199.78" ry="18"/>
<text text-anchor="middle" x="409.88" y="-876.95" font-family="Times New Roman,serif" font-size="14.00">You: Let the wall remain blank. For now. [Leave.]</text>
</g>
<!-- 7&#45;&gt;23 -->
<g id="edge12" class="edge">
<title>7&#45;&gt;23</title>
<path fill="none" stroke="black" d="M1473.5,-949.81C1323.59,-942.27 939.53,-922.28 618.88,-900 600.9,-898.75 582.06,-897.35 563.36,-895.9"/>
<polygon fill="black" stroke="black" points="563.81,-892.42 553.57,-895.14 563.27,-899.4 563.81,-892.42"/>
</g>
<!-- 25 -->
<g id="node25" class="node">
<title>25</title>
<ellipse fill="none" stroke="black" cx="747.88" cy="-882" rx="120.45" ry="18"/>
<text text-anchor="middle" x="747.88" y="-876.95" font-family="Times New Roman,serif" font-size="14.00">You: &quot;I LOVE YOU CUNO&quot;</text>
</g>
<!-- 7&#45;&gt;25 -->
<g id="edge13" class="edge">
<title>7&#45;&gt;25</title>
<path fill="none" stroke="black" d="M1474.43,-948.99C1356.55,-941.31 1095.83,-923.19 876.88,-900 866.54,-898.91 855.75,-897.65 845.01,-896.34"/>
<polygon fill="black" stroke="black" points="845.71,-892.9 835.35,-895.14 844.84,-899.85 845.71,-892.9"/>
</g>
<!-- 30 -->
<g id="node30" class="node">
<title>30</title>
<ellipse fill="none" stroke="black" cx="1129.88" cy="-882" rx="243.79" ry="18"/>
<text text-anchor="middle" x="1129.88" y="-876.95" font-family="Times New Roman,serif" font-size="14.00">You: &quot;SOMETHING BEAUTIFUL IS GOING TO HAPPEN&quot;</text>
</g>
<!-- 7&#45;&gt;30 -->
<g id="edge14" class="edge">
<title>7&#45;&gt;30</title>
<path fill="none" stroke="black" d="M1483.28,-943.63C1419.92,-932.76 1314.01,-914.59 1234.61,-900.97"/>
<polygon fill="black" stroke="black" points="1235.53,-897.58 1225.09,-899.33 1234.35,-904.48 1235.53,-897.58"/>
</g>
<!-- 31 -->
<g id="node31" class="node">
<title>31</title>
<ellipse fill="none" stroke="black" cx="1537.88" cy="-882" rx="146.55" ry="18"/>
<text text-anchor="middle" x="1537.88" y="-876.95" font-family="Times New Roman,serif" font-size="14.00">You: &quot;MOTHER OF ALL WALLS&quot;</text>
</g>
<!-- 7&#45;&gt;31 -->
<g id="edge15" class="edge">
<title>7&#45;&gt;31</title>
<path fill="none" stroke="black" d="M1537.88,-935.7C1537.88,-928.41 1537.88,-919.73 1537.88,-911.54"/>
<polygon fill="black" stroke="black" points="1541.38,-911.62 1537.88,-901.62 1534.38,-911.62 1541.38,-911.62"/>
</g>
<!-- 32 -->
<g id="node32" class="node">
<title>32</title>
<ellipse fill="none" stroke="black" cx="1934.88" cy="-882" rx="232.02" ry="18"/>
<text text-anchor="middle" x="1934.88" y="-876.95" font-family="Times New Roman,serif" font-size="14.00">You: (Draw a 3,500 year old pictogram of a human being.)</text>
</g>
<!-- 7&#45;&gt;32 -->
<g id="edge7" class="edge">
<title>7&#45;&gt;32</title>
<path fill="none" stroke="black" d="M1591.83,-943.49C1653.56,-932.6 1756.03,-914.53 1832.94,-900.97"/>
<polygon fill="black" stroke="black" points="1833.36,-904.45 1842.6,-899.27 1832.14,-897.56 1833.36,-904.45"/>
</g>
<!-- 33 -->
<g id="node33" class="node">
<title>33</title>
<ellipse fill="none" stroke="black" cx="2279.88" cy="-882" rx="95.37" ry="18"/>
<text text-anchor="middle" x="2279.88" y="-876.95" font-family="Times New Roman,serif" font-size="14.00">You: &quot;RENE LIVES!&quot;</text>
</g>
<!-- 7&#45;&gt;33 -->
<g id="edge8" class="edge">
<title>7&#45;&gt;33</title>
<path fill="none" stroke="black" d="M1601.89,-949.36C1717.03,-942.45 1966.56,-925.76 2175.88,-900 2183.87,-899.02 2192.18,-897.87 2200.48,-896.64"/>
<polygon fill="black" stroke="black" points="2200.88,-900.12 2210.24,-895.16 2199.83,-893.2 2200.88,-900.12"/>
</g>
<!-- 34 -->
<g id="node34" class="node">
<title>34</title>
<ellipse fill="none" stroke="black" cx="3136.88" cy="-882" rx="118.91" ry="18"/>
<text text-anchor="middle" x="3136.88" y="-876.95" font-family="Times New Roman,serif" font-size="14.00">You: &quot;FUCK THE POLICE&quot;</text>
</g>
<!-- 7&#45;&gt;34 -->
<g id="edge9" class="edge">
<title>7&#45;&gt;34</title>
<path fill="none" stroke="black" d="M1603.63,-952.88C1810.65,-952.01 2467.44,-945.6 3008.88,-900 3019.77,-899.08 3031.15,-897.9 3042.45,-896.58"/>
<polygon fill="black" stroke="black" points="3042.68,-900.08 3052.19,-895.41 3041.84,-893.13 3042.68,-900.08"/>
</g>
<!-- 37 -->
<g id="node37" class="node">
<title>37</title>
<ellipse fill="none" stroke="black" cx="2696.88" cy="-882" rx="303.16" ry="18"/>
<text text-anchor="middle" x="2696.88" y="-876.95" font-family="Times New Roman,serif" font-size="14.00">You: &quot;WHAT SHADOW LIES THERE, BENEATH THE BRIGHT GLEAM&quot;</text>
</g>
<!-- 7&#45;&gt;37 -->
<g id="edge10" class="edge">
<title>7&#45;&gt;37</title>
<path fill="none" stroke="black" d="M1601.43,-949.16C1765.4,-939.26 2208.76,-912.48 2478.51,-896.19"/>
<polygon fill="black" stroke="black" points="2478.35,-899.71 2488.12,-895.61 2477.93,-892.72 2478.35,-899.71"/>
</g>
<!-- 8 -->
<g id="node9" class="node">
<title>8</title>
<ellipse fill="none" stroke="black" cx="3136.88" cy="-810" rx="58.52" ry="18"/>
<text text-anchor="middle" x="3136.88" y="-804.95" font-family="Times New Roman,serif" font-size="14.00">IsKimHere()</text>
</g>
<!-- 9 -->
<g id="node10" class="node">
<title>9</title>
<polygon fill="none" stroke="black" points="3165.88,-756 3083.12,-738 3165.88,-720 3248.63,-738 3165.88,-756"/>
<text text-anchor="middle" x="3165.88" y="-732.95" font-family="Times New Roman,serif" font-size="14.00">IsKimHere()</text>
</g>
<!-- 8&#45;&gt;9 -->
<g id="edge16" class="edge">
<title>8&#45;&gt;9</title>
<path fill="none" stroke="black" d="M3144.05,-791.7C3147.35,-783.73 3151.34,-774.09 3155,-765.26"/>
<polygon fill="black" stroke="black" points="3158.21,-766.65 3158.81,-756.07 3151.75,-763.97 3158.21,-766.65"/>
</g>
<!-- 10 -->
<g id="node11" class="node">
<title>10</title>
<polygon fill="none" stroke="black" points="2612.88,-756 2517.1,-738 2612.88,-720 2708.66,-738 2612.88,-756"/>
<text text-anchor="middle" x="2612.88" y="-732.95" font-family="Times New Roman,serif" font-size="14.00">!(IsKimHere())</text>
</g>
<!-- 8&#45;&gt;10 -->
<g id="edge17" class="edge">
<title>8&#45;&gt;10</title>
<path fill="none" stroke="black" d="M3084.24,-801.97C2987.93,-789.1 2783.62,-761.81 2678.45,-747.76"/>
<polygon fill="black" stroke="black" points="2678.93,-744.29 2668.55,-746.44 2678,-751.23 2678.93,-744.29"/>
</g>
<!-- 38 -->
<g id="node38" class="node">
<title>38</title>
<ellipse fill="none" stroke="black" cx="3195.88" cy="-666" rx="228.44" ry="18"/>
<text text-anchor="middle" x="3195.88" y="-660.95" font-family="Times New Roman,serif" font-size="14.00">Kim Kitsuragi: The lieutenant looks at the wall in dismay:</text>
</g>
<!-- 9&#45;&gt;38 -->
<g id="edge18" class="edge">
<title>9&#45;&gt;38</title>
<path fill="none" stroke="black" d="M3172.69,-721.12C3176.03,-713.32 3180.16,-703.69 3184,-694.73"/>
<polygon fill="black" stroke="black" points="3187.15,-696.25 3187.87,-685.68 3180.72,-693.5 3187.15,-696.25"/>
</g>
<!-- 12 -->
<g id="node13" class="node">
<title>12</title>
<ellipse fill="none" stroke="black" cx="2257.88" cy="-666" rx="691.62" ry="18"/>
<text text-anchor="middle" x="2257.88" y="-660.95" font-family="Times New Roman,serif" font-size="14.00">Conceptualization: You&#39;ve spoken. The wall will now silently repeat the message. For a decade or so, until the sea air degrades the paint, adding another layer of *detritus* to the city.</text>
</g>
<!-- 10&#45;&gt;12 -->
<g id="edge19" class="edge">
<title>10&#45;&gt;12</title>
<path fill="none" stroke="black" d="M2567.56,-728.06C2514.68,-717.64 2425.71,-700.09 2356.66,-686.48"/>
<polygon fill="black" stroke="black" points="2357.73,-683.12 2347.25,-684.62 2356.38,-689.99 2357.73,-683.12"/>
</g>
<!-- 11 -->
<g id="node12" class="node">
<title>11</title>
<ellipse fill="none" stroke="black" cx="3560.88" cy="-450" rx="242.26" ry="18"/>
<text text-anchor="middle" x="3560.88" y="-444.95" font-family="Times New Roman,serif" font-size="14.00">Kim Kitsuragi: The lieutenant raises his eyebrows, then sighs.</text>
</g>
<!-- 29 -->
<g id="node29" class="node">
<title>29</title>
<ellipse fill="none" stroke="black" cx="3560.88" cy="-378" rx="279.62" ry="18"/>
<text text-anchor="middle" x="3560.88" y="-372.95" font-family="Times New Roman,serif" font-size="14.00">Conceptualization: The wall towers over you with its indelible message.</text>
</g>
<!-- 11&#45;&gt;29 -->
<g id="edge20" class="edge">
<title>11&#45;&gt;29</title>
<path fill="none" stroke="black" d="M3560.88,-431.7C3560.88,-424.41 3560.88,-415.73 3560.88,-407.54"/>
<polygon fill="black" stroke="black" points="3564.38,-407.62 3560.88,-397.62 3557.38,-407.62 3564.38,-407.62"/>
</g>
<!-- 18 -->
<g id="node18" class="node">
<title>18</title>
<ellipse fill="none" stroke="black" cx="1635.88" cy="-594" rx="58.52" ry="18"/>
<text text-anchor="middle" x="1635.88" y="-588.95" font-family="Times New Roman,serif" font-size="14.00">IsKimHere()</text>
</g>
<!-- 12&#45;&gt;18 -->
<g id="edge21" class="edge">
<title>12&#45;&gt;18</title>
<path fill="none" stroke="black" d="M2106.52,-647.97C1976.93,-633.38 1796.62,-613.09 1701.18,-602.35"/>
<polygon fill="black" stroke="black" points="1701.8,-598.9 1691.48,-601.26 1701.02,-605.85 1701.8,-598.9"/>
</g>
<!-- 14 -->
<g id="node14" class="node">
<title>14</title>
<ellipse fill="none" stroke="black" cx="3040.88" cy="-522" rx="99.46" ry="18"/>
<text text-anchor="middle" x="3040.88" y="-516.95" font-family="Times New Roman,serif" font-size="14.00">You: &quot;Yeah &#45;&#45; fuck us.&quot;</text>
</g>
<!-- 14&#45;&gt;2 -->
<g id="edge22" class="edge">
<title>14&#45;&gt;2</title>
<path fill="none" stroke="black" d="M3026.79,-503.7C3020.23,-495.64 3012.29,-485.89 3005.04,-476.98"/>
<polygon fill="black" stroke="black" points="3007.79,-474.82 2998.76,-469.28 3002.36,-479.24 3007.79,-474.82"/>
</g>
<!-- 15 -->
<g id="node15" class="node">
<title>15</title>
<ellipse fill="none" stroke="black" cx="2983.88" cy="-306" rx="181.35" ry="18"/>
<text text-anchor="middle" x="2983.88" y="-300.95" font-family="Times New Roman,serif" font-size="14.00">Variable[&quot;backyard.orb_wall_paint_rhetoric&quot;]</text>
</g>
<!-- 16 -->
<g id="node16" class="node">
<title>16</title>
<polygon fill="none" stroke="black" points="2816.88,-252 2560.41,-234 2816.88,-216 3073.35,-234 2816.88,-252"/>
<text text-anchor="middle" x="2816.88" y="-228.95" font-family="Times New Roman,serif" font-size="14.00">Variable[&quot;backyard.orb_wall_paint_rhetoric&quot;]</text>
</g>
<!-- 15&#45;&gt;16 -->
<g id="edge23" class="edge">
<title>15&#45;&gt;16</title>
<path fill="none" stroke="black" d="M2943.45,-288.05C2919.13,-277.86 2888.08,-264.85 2862.83,-254.26"/>
<polygon fill="black" stroke="black" points="2864.37,-251.11 2853.79,-250.47 2861.66,-257.57 2864.37,-251.11"/>
</g>
<!-- 17 -->
<g id="node17" class="node">
<title>17</title>
<polygon fill="none" stroke="black" points="3151.88,-108 2882.38,-90 3151.88,-72 3421.38,-90 3151.88,-108"/>
<text text-anchor="middle" x="3151.88" y="-84.95" font-family="Times New Roman,serif" font-size="14.00">!(Variable[&quot;backyard.orb_wall_paint_rhetoric&quot;])</text>
</g>
<!-- 15&#45;&gt;17 -->
<g id="edge24" class="edge">
<title>15&#45;&gt;17</title>
<path fill="none" stroke="black" d="M3024.68,-288.14C3043.39,-279.16 3065.09,-266.88 3081.88,-252 3111.23,-225.99 3117.13,-215.91 3132.88,-180 3141.32,-160.75 3146.12,-137.46 3148.78,-119.54"/>
<polygon fill="black" stroke="black" points="3152.22,-120.24 3150.07,-109.87 3145.28,-119.32 3152.22,-120.24"/>
</g>
<!-- 16&#45;&gt;5 -->
<g id="edge25" class="edge">
<title>16&#45;&gt;5</title>
<path fill="none" stroke="black" d="M2816.88,-215.7C2816.88,-208.41 2816.88,-199.73 2816.88,-191.54"/>
<polygon fill="black" stroke="black" points="2820.38,-191.62 2816.88,-181.62 2813.38,-191.62 2820.38,-191.62"/>
</g>
<!-- 16&#45;&gt;6 -->
<g id="edge26" class="edge">
<title>16&#45;&gt;6</title>
<path fill="none" stroke="black" d="M2742.33,-220.81C2667.45,-208.56 2552.24,-189.72 2473.86,-176.9"/>
<polygon fill="black" stroke="black" points="2474.5,-173.46 2464.07,-175.3 2473.37,-180.37 2474.5,-173.46"/>
</g>
<!-- 17&#45;&gt;27 -->
<g id="edge27" class="edge">
<title>17&#45;&gt;27</title>
<path fill="none" stroke="black" d="M3070.22,-76.97C2996.86,-66.16 2887.97,-50.11 2803.35,-37.64"/>
<polygon fill="black" stroke="black" points="2804.01,-34.2 2793.6,-36.2 2802.99,-41.12 2804.01,-34.2"/>
</g>
<!-- 19 -->
<g id="node19" class="node">
<title>19</title>
<polygon fill="none" stroke="black" points="1537.88,-540 1455.12,-522 1537.88,-504 1620.63,-522 1537.88,-540"/>
<text text-anchor="middle" x="1537.88" y="-516.95" font-family="Times New Roman,serif" font-size="14.00">IsKimHere()</text>
</g>
<!-- 18&#45;&gt;19 -->
<g id="edge28" class="edge">
<title>18&#45;&gt;19</title>
<path fill="none" stroke="black" d="M1613.64,-577.12C1599.33,-566.89 1580.63,-553.53 1565.38,-542.65"/>
<polygon fill="black" stroke="black" points="1567.81,-540.08 1557.64,-537.12 1563.75,-545.78 1567.81,-540.08"/>
</g>
<!-- 20 -->
<g id="node20" class="node">
<title>20</title>
<polygon fill="none" stroke="black" points="1734.88,-540 1639.1,-522 1734.88,-504 1830.66,-522 1734.88,-540"/>
<text text-anchor="middle" x="1734.88" y="-516.95" font-family="Times New Roman,serif" font-size="14.00">!(IsKimHere())</text>
</g>
<!-- 18&#45;&gt;20 -->
<g id="edge29" class="edge">
<title>18&#45;&gt;20</title>
<path fill="none" stroke="black" d="M1658.34,-577.12C1672.61,-567.03 1691.2,-553.88 1706.49,-543.07"/>
<polygon fill="black" stroke="black" points="1708.13,-546.2 1714.27,-537.57 1704.09,-540.48 1708.13,-546.2"/>
</g>
<!-- 39 -->
<g id="node39" class="node">
<title>39</title>
<ellipse fill="none" stroke="black" cx="1537.88" cy="-450" rx="801.66" ry="18"/>
<text text-anchor="middle" x="1537.88" y="-444.95" font-family="Times New Roman,serif" font-size="14.00">Kim Kitsuragi: &quot;Very poetic.&quot; The lieutenant nods in appreciation &#45;&#45; it doesn&#39;t sound sincere. &quot;Real poetry. Should we return to our murder investigation? I hear there&#39;s a really *bad* one we&#39;re supposed to solve.&quot;</text>
</g>
<!-- 19&#45;&gt;39 -->
<g id="edge30" class="edge">
<title>19&#45;&gt;39</title>
<path fill="none" stroke="black" d="M1537.88,-503.7C1537.88,-496.41 1537.88,-487.73 1537.88,-479.54"/>
<polygon fill="black" stroke="black" points="1541.38,-479.62 1537.88,-469.62 1534.38,-479.62 1541.38,-479.62"/>
</g>
<!-- 21 -->
<g id="node21" class="node">
<title>21</title>
<ellipse fill="none" stroke="black" cx="3195.88" cy="-594" rx="174.19" ry="18"/>
<text text-anchor="middle" x="3195.88" y="-588.95" font-family="Times New Roman,serif" font-size="14.00">Kim Kitsuragi: &quot;But we *are* the police...&quot;</text>
</g>
<!-- 21&#45;&gt;14 -->
<g id="edge32" class="edge">
<title>21&#45;&gt;14</title>
<path fill="none" stroke="black" d="M3158.36,-576.05C3136.93,-566.38 3109.89,-554.17 3087.16,-543.9"/>
<polygon fill="black" stroke="black" points="3088.66,-540.74 3078.1,-539.81 3085.77,-547.12 3088.66,-540.74"/>
</g>
<!-- 35 -->
<g id="node35" class="node">
<title>35</title>
<ellipse fill="none" stroke="black" cx="3502.88" cy="-522" rx="231" ry="18"/>
<text text-anchor="middle" x="3502.88" y="-516.95" font-family="Times New Roman,serif" font-size="14.00">You: &quot;You&#39;re right, you&#39;re right. Is it too late to change it?&quot;</text>
</g>
<!-- 21&#45;&gt;35 -->
<g id="edge31" class="edge">
<title>21&#45;&gt;35</title>
<path fill="none" stroke="black" d="M3265.54,-577.12C3311.17,-566.71 3371.05,-553.06 3419.25,-542.07"/>
<polygon fill="black" stroke="black" points="3419.84,-545.52 3428.81,-539.89 3418.28,-538.7 3419.84,-545.52"/>
</g>
<!-- 24 -->
<g id="node24" class="node">
<title>24</title>
<ellipse fill="none" stroke="black" cx="1537.88" cy="-810" rx="691.62" ry="18"/>
<text text-anchor="middle" x="1537.88" y="-804.95" font-family="Times New Roman,serif" font-size="14.00">Conceptualization: You&#39;ve spoken. The wall will now silently repeat the message. For a decade or so, until the sea air degrades the paint, adding another layer of *detritus* to the city.</text>
</g>
<!-- 22&#45;&gt;24 -->
<g id="edge33" class="edge">
<title>22&#45;&gt;24</title>
<path fill="none" stroke="black" d="M163.5,-868.82C175.9,-866.94 188.75,-865.22 200.88,-864 437.96,-840.2 699.69,-826.96 928.26,-819.64"/>
<polygon fill="black" stroke="black" points="928.07,-823.15 937.95,-819.34 927.85,-816.15 928.07,-823.15"/>
</g>
<!-- 24&#45;&gt;18 -->
<g id="edge34" class="edge">
<title>24&#45;&gt;18</title>
<path fill="none" stroke="black" d="M1535.45,-791.51C1532.03,-760.21 1528.99,-693.63 1556.88,-648 1565.4,-634.05 1579.15,-622.97 1592.8,-614.62"/>
<polygon fill="black" stroke="black" points="1594.37,-617.75 1601.33,-609.77 1590.91,-611.67 1594.37,-617.75"/>
</g>
<!-- 25&#45;&gt;24 -->
<g id="edge35" class="edge">
<title>25&#45;&gt;24</title>
<path fill="none" stroke="black" d="M833.85,-869.05C848.2,-867.23 862.95,-865.48 876.88,-864 1011.77,-849.71 1162.51,-837.35 1285.94,-828.17"/>
<polygon fill="black" stroke="black" points="1286.19,-831.66 1295.91,-827.43 1285.67,-824.68 1286.19,-831.66"/>
</g>
<!-- 26&#45;&gt;15 -->
<g id="edge36" class="edge">
<title>26&#45;&gt;15</title>
<path fill="none" stroke="black" d="M2983.88,-359.7C2983.88,-352.41 2983.88,-343.73 2983.88,-335.54"/>
<polygon fill="black" stroke="black" points="2987.38,-335.62 2983.88,-325.62 2980.38,-335.62 2987.38,-335.62"/>
</g>
<!-- 28 -->
<g id="node28" class="node">
<title>28</title>
<ellipse fill="none" stroke="black" cx="1537.88" cy="-1026" rx="520.68" ry="18"/>
<text text-anchor="middle" x="1537.88" y="-1020.95" font-family="Times New Roman,serif" font-size="14.00">Conceptualization: The paintbrush in your hand is like a loaded revolver. What will it be, desperado? Quite a few things come to mind...</text>
</g>
<!-- 28&#45;&gt;7 -->
<g id="edge37" class="edge">
<title>28&#45;&gt;7</title>
<path fill="none" stroke="black" d="M1537.88,-1007.7C1537.88,-1000.41 1537.88,-991.73 1537.88,-983.54"/>
<polygon fill="black" stroke="black" points="1541.38,-983.62 1537.88,-973.62 1534.38,-983.62 1541.38,-983.62"/>
</g>
<!-- 30&#45;&gt;24 -->
<g id="edge38" class="edge">
<title>30&#45;&gt;24</title>
<path fill="none" stroke="black" d="M1223.48,-864.94C1283.74,-854.6 1362.38,-841.11 1425.94,-830.2"/>
<polygon fill="black" stroke="black" points="1426.46,-833.67 1435.73,-828.53 1425.28,-826.77 1426.46,-833.67"/>
</g>
<!-- 31&#45;&gt;24 -->
<g id="edge39" class="edge">
<title>31&#45;&gt;24</title>
<path fill="none" stroke="black" d="M1537.88,-863.7C1537.88,-856.41 1537.88,-847.73 1537.88,-839.54"/>
<polygon fill="black" stroke="black" points="1541.38,-839.62 1537.88,-829.62 1534.38,-839.62 1541.38,-839.62"/>
</g>
<!-- 32&#45;&gt;24 -->
<g id="edge40" class="edge">
<title>32&#45;&gt;24</title>
<path fill="none" stroke="black" d="M1844.3,-865.03C1785.68,-854.69 1709.03,-841.18 1647.06,-830.25"/>
<polygon fill="black" stroke="black" points="1648.01,-826.86 1637.55,-828.57 1646.79,-833.76 1648.01,-826.86"/>
</g>
<!-- 33&#45;&gt;24 -->
<g id="edge41" class="edge">
<title>33&#45;&gt;24</title>
<path fill="none" stroke="black" d="M2211.74,-869.07C2199.81,-867.21 2187.5,-865.43 2175.88,-864 2052.71,-848.84 1915.61,-836.82 1800.17,-828.09"/>
<polygon fill="black" stroke="black" points="1800.45,-824.6 1790.22,-827.34 1799.93,-831.58 1800.45,-824.6"/>
</g>
<!-- 34&#45;&gt;8 -->
<g id="edge42" class="edge">
<title>34&#45;&gt;8</title>
<path fill="none" stroke="black" d="M3136.88,-863.7C3136.88,-856.41 3136.88,-847.73 3136.88,-839.54"/>
<polygon fill="black" stroke="black" points="3140.38,-839.62 3136.88,-829.62 3133.38,-839.62 3140.38,-839.62"/>
</g>
<!-- 35&#45;&gt;11 -->
<g id="edge43" class="edge">
<title>35&#45;&gt;11</title>
<path fill="none" stroke="black" d="M3517.22,-503.7C3523.96,-495.56 3532.14,-485.69 3539.58,-476.7"/>
<polygon fill="black" stroke="black" points="3542.06,-479.2 3545.74,-469.27 3536.67,-474.74 3542.06,-479.2"/>
</g>
<!-- 36 -->
<g id="node36" class="node">
<title>36</title>
<ellipse fill="none" stroke="black" cx="1144.88" cy="-1098" rx="427.53" ry="18"/>
<text text-anchor="middle" x="1144.88" y="-1092.95" font-family="Times New Roman,serif" font-size="14.00">Conceptualization: Paintbrush &#45;&#45; check, heavy fuel oil &#45;&#45; check... Now the only thing left to do is paint the wall.</text>
</g>
<!-- 36&#45;&gt;28 -->
<g id="edge44" class="edge">
<title>36&#45;&gt;28</title>
<path fill="none" stroke="black" d="M1240.26,-1080.01C1297.68,-1069.78 1370.92,-1056.74 1430.38,-1046.15"/>
<polygon fill="black" stroke="black" points="1430.97,-1049.6 1440.2,-1044.4 1429.75,-1042.71 1430.97,-1049.6"/>
</g>
<!-- 37&#45;&gt;24 -->
<g id="edge45" class="edge">
<title>37&#45;&gt;24</title>
<path fill="none" stroke="black" d="M2489.67,-868.49C2301.54,-857.12 2022.64,-840.28 1815.32,-827.76"/>
<polygon fill="black" stroke="black" points="1815.65,-824.27 1805.46,-827.16 1815.23,-831.26 1815.65,-824.27"/>
</g>
<!-- 38&#45;&gt;21 -->
<g id="edge46" class="edge">
<title>38&#45;&gt;21</title>
<path fill="none" stroke="black" d="M3195.88,-647.7C3195.88,-640.41 3195.88,-631.73 3195.88,-623.54"/>
<polygon fill="black" stroke="black" points="3199.38,-623.62 3195.88,-613.62 3192.38,-623.62 3199.38,-623.62"/>
</g>
<!-- 41 -->
<g id="node41" class="node">
<title>41</title>
<polygon fill="none" stroke="black" points="1359.88,-1188 1032.48,-1170 1359.88,-1152 1687.28,-1170 1359.88,-1188"/>
<text text-anchor="middle" x="1359.88" y="-1164.95" font-family="Times New Roman,serif" font-size="14.00">IsTaskActive(&quot;TASK.find_heavy_fuel_oil&quot;)&#45;&#45;[[ Variable[ ]]</text>
</g>
<!-- 40&#45;&gt;41 -->
<g id="edge47" class="edge">
<title>40&#45;&gt;41</title>
<path fill="none" stroke="black" d="M1493.58,-1223.88C1468.03,-1213.77 1435.62,-1200.95 1409.1,-1190.47"/>
<polygon fill="black" stroke="black" points="1410.51,-1187.26 1399.92,-1186.84 1407.93,-1193.77 1410.51,-1187.26"/>
</g>
<!-- 42 -->
<g id="node42" class="node">
<title>42</title>
<polygon fill="none" stroke="black" points="1930.88,-1116 1590.45,-1098 1930.88,-1080 2271.31,-1098 1930.88,-1116"/>
<text text-anchor="middle" x="1930.88" y="-1092.95" font-family="Times New Roman,serif" font-size="14.00">!(IsTaskActive(&quot;TASK.find_heavy_fuel_oil&quot;)&#45;&#45;[[ Variable[ ]])</text>
</g>
<!-- 40&#45;&gt;42 -->
<g id="edge48" class="edge">
<title>40&#45;&gt;42</title>
<path fill="none" stroke="black" d="M1589.34,-1224.1C1620.42,-1213.94 1660.52,-1200.58 1695.88,-1188 1760.32,-1165.07 1833.97,-1136.84 1881.39,-1118.41"/>
<polygon fill="black" stroke="black" points="1882.51,-1121.73 1890.56,-1114.83 1879.97,-1115.2 1882.51,-1121.73"/>
</g>
<!-- 41&#45;&gt;36 -->
<g id="edge49" class="edge">
<title>41&#45;&gt;36</title>
<path fill="none" stroke="black" d="M1314.02,-1154.07C1283.31,-1144.07 1242.45,-1130.77 1208.59,-1119.74"/>
<polygon fill="black" stroke="black" points="1209.89,-1116.49 1199.3,-1116.72 1207.73,-1123.14 1209.89,-1116.49"/>
</g>
<!-- 42&#45;&gt;28 -->
<g id="edge50" class="edge">
<title>42&#45;&gt;28</title>
<path fill="none" stroke="black" d="M1855.57,-1083.59C1795.93,-1072.96 1711.84,-1057.99 1645.16,-1046.11"/>
<polygon fill="black" stroke="black" points="1646.14,-1042.73 1635.69,-1044.42 1644.92,-1049.62 1646.14,-1042.73"/>
</g>
</g>
</svg>
