<?xml version="1.0" encoding="UTF-8" standalone="no"?>
<!DOCTYPE svg PUBLIC "-//W3C//DTD SVG 1.1//EN"
 "http://www.w3.org/Graphics/SVG/1.1/DTD/svg11.dtd">
<!-- Generated by graphviz version 12.2.1 (20241206.2353)
 -->
<!-- Title: G Pages: 1 -->
<svg width="770pt" height="188pt"
 viewBox="0.00 0.00 770.43 188.00" xmlns="http://www.w3.org/2000/svg" xmlns:xlink="http://www.w3.org/1999/xlink">
<g id="graph0" class="graph" transform="scale(1 1) rotate(0) translate(4 184)">
<title>G</title>
<polygon fill="white" stroke="none" points="-4,4 -4,-184 766.43,-184 766.43,4 -4,4"/>
<!-- 0 -->
<g id="node1" class="node">
<title>0</title>
<ellipse fill="none" stroke="black" cx="371.23" cy="-162" rx="39.07" ry="18"/>
<text text-anchor="middle" x="371.23" y="-156.95" font-family="Times New Roman,serif" font-size="14.00">START</text>
</g>
<!-- 1 -->
<g id="node2" class="node">
<title>1</title>
<ellipse fill="none" stroke="black" cx="371.23" cy="-90" rx="29.86" ry="18"/>
<text text-anchor="middle" x="371.23" y="-84.95" font-family="Times New Roman,serif" font-size="14.00">input</text>
</g>
<!-- 0&#45;&gt;1 -->
<g id="edge1" class="edge">
<title>0&#45;&gt;1</title>
<path fill="none" stroke="black" d="M371.23,-143.7C371.23,-136.41 371.23,-127.73 371.23,-119.54"/>
<polygon fill="black" stroke="black" points="374.73,-119.62 371.23,-109.62 367.73,-119.62 374.73,-119.62"/>
</g>
<!-- 3 -->
<g id="node3" class="node">
<title>3</title>
<ellipse fill="none" stroke="black" cx="176.23" cy="-18" rx="176.23" ry="18"/>
<text text-anchor="middle" x="176.23" y="-12.95" font-family="Times New Roman,serif" font-size="14.00">Kim Kitsuragi: &quot;This could be our witness.&quot;</text>
</g>
<!-- 1&#45;&gt;3 -->
<g id="edge2" class="edge">
<title>1&#45;&gt;3</title>
<path fill="none" stroke="black" d="M346.14,-79.99C317.87,-69.84 270.98,-53.01 233.62,-39.6"/>
<polygon fill="black" stroke="black" points="234.88,-36.33 224.28,-36.25 232.51,-42.92 234.88,-36.33"/>
</g>
<!-- 4 -->
<g id="node4" class="node">
<title>4</title>
<ellipse fill="none" stroke="black" cx="566.23" cy="-18" rx="196.19" ry="18"/>
<text text-anchor="middle" x="566.23" y="-12.95" font-family="Times New Roman,serif" font-size="14.00">Kim Kitsuragi: &quot;Look, a smoker on the balcony.&quot;</text>
</g>
<!-- 1&#45;&gt;4 -->
<g id="edge3" class="edge">
<title>1&#45;&gt;4</title>
<path fill="none" stroke="black" d="M396.33,-79.99C424.51,-69.88 471.17,-53.12 508.48,-39.73"/>
<polygon fill="black" stroke="black" points="509.57,-43.06 517.8,-36.39 507.2,-36.47 509.57,-43.06"/>
</g>
</g>
</svg>
