<?xml version="1.0" encoding="UTF-8" standalone="no"?>
<!DOCTYPE svg PUBLIC "-//W3C//DTD SVG 1.1//EN"
 "http://www.w3.org/Graphics/SVG/1.1/DTD/svg11.dtd">
<!-- Generated by graphviz version 12.2.1 (20241206.2353)
 -->
<!-- Title: G Pages: 1 -->
<svg width="4569pt" height="116pt"
 viewBox="0.00 0.00 4568.79 116.00" xmlns="http://www.w3.org/2000/svg" xmlns:xlink="http://www.w3.org/1999/xlink">
<g id="graph0" class="graph" transform="scale(1 1) rotate(0) translate(4 112)">
<title>G</title>
<polygon fill="white" stroke="none" points="-4,4 -4,-112 4564.79,-112 4564.79,4 -4,4"/>
<!-- 0 -->
<g id="node1" class="node">
<title>0</title>
<ellipse fill="none" stroke="black" cx="2140.59" cy="-90" rx="39.07" ry="18"/>
<text text-anchor="middle" x="2140.59" y="-84.95" font-family="Times New Roman,serif" font-size="14.00">START</text>
</g>
<!-- 0&#45;&gt;0 -->
<g id="edge1" class="edge">
<title>0&#45;&gt;0</title>
<path fill="none" stroke="black" d="M2168.77,-102.94C2183.89,-105.14 2197.65,-100.83 2197.65,-90 2197.65,-81.96 2190.07,-77.52 2179.98,-76.65"/>
<polygon fill="black" stroke="black" points="2180.16,-73.15 2170.29,-77 2180.41,-80.14 2180.16,-73.15"/>
</g>
<!-- 1 -->
<g id="node2" class="node">
<title>1</title>
<ellipse fill="none" stroke="black" cx="2245.59" cy="-90" rx="29.86" ry="18"/>
<text text-anchor="middle" x="2245.59" y="-84.95" font-family="Times New Roman,serif" font-size="14.00">input</text>
</g>
<!-- 1&#45;&gt;1 -->
<g id="edge2" class="edge">
<title>1&#45;&gt;1</title>
<path fill="none" stroke="black" d="M2267.24,-102.55C2280.67,-105.57 2293.44,-101.39 2293.44,-90 2293.44,-81.99 2287.13,-77.55 2278.71,-76.66"/>
<polygon fill="black" stroke="black" points="2278.49,-73.17 2268.75,-77.35 2278.97,-80.15 2278.49,-73.17"/>
</g>
<!-- 2 -->
<g id="node3" class="node">
<title>2</title>
<ellipse fill="none" stroke="black" cx="256.59" cy="-18" rx="256.59" ry="18"/>
<text text-anchor="middle" x="256.59" y="-12.95" font-family="Times New Roman,serif" font-size="14.00">Trant Heidelstam: &quot;Don&#39;t worry, Mikael, you&#39;ll learn all about it.&quot;</text>
</g>
<!-- 1&#45;&gt;2 -->
<g id="edge3" class="edge">
<title>1&#45;&gt;2</title>
<path fill="none" stroke="black" d="M2223.4,-77.57C2218.03,-75.3 2212.21,-73.24 2206.59,-72 2023.79,-31.85 709.57,-43.97 522.59,-36 497.62,-34.94 471.34,-33.56 445.43,-32.06"/>
<polygon fill="black" stroke="black" points="445.65,-28.57 435.46,-31.48 445.24,-35.56 445.65,-28.57"/>
</g>
<!-- 3 -->
<g id="node4" class="node">
<title>3</title>
<ellipse fill="none" stroke="black" cx="884.59" cy="-18" rx="353.32" ry="18"/>
<text text-anchor="middle" x="884.59" y="-12.95" font-family="Times New Roman,serif" font-size="14.00">Trant Heidelstam: &quot;Feld versus Tricentennial &#45;&#45; I wish we could&#39;ve witnessed that, Mikael.&quot;</text>
</g>
<!-- 1&#45;&gt;3 -->
<g id="edge4" class="edge">
<title>1&#45;&gt;3</title>
<path fill="none" stroke="black" d="M2223.39,-77.63C2218.02,-75.36 2212.2,-73.28 2206.59,-72 1998.67,-24.57 1460.66,-44.99 1247.59,-36 1214.74,-34.61 1180.22,-33.09 1146.08,-31.54"/>
<polygon fill="black" stroke="black" points="1146.67,-28.06 1136.52,-31.1 1146.35,-35.05 1146.67,-28.06"/>
</g>
<!-- 4 -->
<g id="node5" class="node">
<title>4</title>
<ellipse fill="none" stroke="black" cx="1545.59" cy="-18" rx="289.34" ry="18"/>
<text text-anchor="middle" x="1545.59" y="-12.95" font-family="Times New Roman,serif" font-size="14.00">Trant Heidelstam: &quot;Fifty years ago this place was the heart of innovation.&quot;</text>
</g>
<!-- 1&#45;&gt;4 -->
<g id="edge5" class="edge">
<title>1&#45;&gt;4</title>
<path fill="none" stroke="black" d="M2223.35,-77.8C2217.98,-75.53 2212.17,-73.4 2206.59,-72 2163.44,-61.19 1931.45,-44.11 1754.37,-32.28"/>
<polygon fill="black" stroke="black" points="1754.77,-28.8 1744.56,-31.62 1754.31,-35.78 1754.77,-28.8"/>
</g>
<!-- 5 -->
<g id="node6" class="node">
<title>5</title>
<ellipse fill="none" stroke="black" cx="2245.59" cy="-18" rx="392.73" ry="18"/>
<text text-anchor="middle" x="2245.59" y="-12.95" font-family="Times New Roman,serif" font-size="14.00">Trant Heidelstam: &quot;Remind me to give you that collection of essays on modern architecture, Mikael.&quot;</text>
</g>
<!-- 1&#45;&gt;5 -->
<g id="edge6" class="edge">
<title>1&#45;&gt;5</title>
<path fill="none" stroke="black" d="M2245.59,-71.7C2245.59,-64.41 2245.59,-55.73 2245.59,-47.54"/>
<polygon fill="black" stroke="black" points="2249.09,-47.62 2245.59,-37.62 2242.09,-47.62 2249.09,-47.62"/>
</g>
<!-- 7 -->
<g id="node8" class="node">
<title>7</title>
<ellipse fill="none" stroke="black" cx="2944.59" cy="-18" rx="287.81" ry="18"/>
<text text-anchor="middle" x="2944.59" y="-12.95" font-family="Times New Roman,serif" font-size="14.00">Trant Heidelstam: &quot;The significance of all *this* is hard to overestimate.&quot;</text>
</g>
<!-- 1&#45;&gt;7 -->
<g id="edge7" class="edge">
<title>1&#45;&gt;7</title>
<path fill="none" stroke="black" d="M2271.13,-80.15C2280.87,-77.1 2292.13,-73.97 2302.59,-72 2382.08,-57.03 2576.72,-42.06 2730.99,-31.86"/>
<polygon fill="black" stroke="black" points="2730.77,-35.39 2740.52,-31.24 2730.31,-28.4 2730.77,-35.39"/>
</g>
<!-- 8 -->
<g id="node9" class="node">
<title>8</title>
<ellipse fill="none" stroke="black" cx="3526.59" cy="-18" rx="276.04" ry="18"/>
<text text-anchor="middle" x="3526.59" y="-12.95" font-family="Times New Roman,serif" font-size="14.00">Trant Heidelstam: &quot;We are living in *very* interesting times, Mikael.&quot;</text>
</g>
<!-- 1&#45;&gt;8 -->
<g id="edge8" class="edge">
<title>1&#45;&gt;8</title>
<path fill="none" stroke="black" d="M2270.8,-79.99C2280.6,-76.89 2291.99,-73.75 2302.59,-72 2508.6,-37.89 3033.02,-46.22 3241.59,-36 3267.25,-34.74 3294.21,-33.3 3320.89,-31.79"/>
<polygon fill="black" stroke="black" points="3321,-35.29 3330.79,-31.23 3320.61,-28.3 3321,-35.29"/>
</g>
<!-- 9 -->
<g id="node10" class="node">
<title>9</title>
<ellipse fill="none" stroke="black" cx="4190.59" cy="-18" rx="370.21" ry="18"/>
<text text-anchor="middle" x="4190.59" y="-12.95" font-family="Times New Roman,serif" font-size="14.00">Trant Heidelstam: &quot;On the outside – ruins. But what are ruins, Mikael? Detritus of lost epochs.&quot;</text>
</g>
<!-- 1&#45;&gt;9 -->
<g id="edge9" class="edge">
<title>1&#45;&gt;9</title>
<path fill="none" stroke="black" d="M2270.79,-79.91C2280.58,-76.8 2291.98,-73.68 2302.59,-72 2633.9,-19.6 3476.36,-47.52 3811.59,-36 3847.16,-34.78 3884.59,-33.31 3921.53,-31.77"/>
<polygon fill="black" stroke="black" points="3921.62,-35.27 3931.46,-31.35 3921.32,-28.27 3921.62,-35.27"/>
</g>
<!-- 6 -->
<g id="node7" class="node">
<title>6</title>
<ellipse fill="none" stroke="black" cx="2584.59" cy="-90" rx="272.96" ry="18"/>
<text text-anchor="middle" x="2584.59" y="-84.95" font-family="Times New Roman,serif" font-size="14.00">Trant Heidelstam: &quot;Necessity&#45;driven architectural design at its finest.&quot;</text>
</g>
</g>
</svg>
