<?xml version="1.0" encoding="UTF-8" standalone="no"?>
<!DOCTYPE svg PUBLIC "-//W3C//DTD SVG 1.1//EN"
 "http://www.w3.org/Graphics/SVG/1.1/DTD/svg11.dtd">
<!-- Generated by graphviz version 12.2.1 (20241206.2353)
 -->
<!-- Title: G Pages: 1 -->
<svg width="2751pt" height="908pt"
 viewBox="0.00 0.00 2750.59 908.00" xmlns="http://www.w3.org/2000/svg" xmlns:xlink="http://www.w3.org/1999/xlink">
<g id="graph0" class="graph" transform="scale(1 1) rotate(0) translate(4 904)">
<title>G</title>
<polygon fill="white" stroke="none" points="-4,4 -4,-904 2746.59,-904 2746.59,4 -4,4"/>
<!-- 0 -->
<g id="node1" class="node">
<title>0</title>
<ellipse fill="none" stroke="black" cx="1593.74" cy="-810" rx="39.07" ry="18"/>
<text text-anchor="middle" x="1593.74" y="-804.95" font-family="Times New Roman,serif" font-size="14.00">START</text>
</g>
<!-- 1 -->
<g id="node2" class="node">
<title>1</title>
<ellipse fill="none" stroke="black" cx="1615.74" cy="-738" rx="29.86" ry="18"/>
<text text-anchor="middle" x="1615.74" y="-732.95" font-family="Times New Roman,serif" font-size="14.00">input</text>
</g>
<!-- 0&#45;&gt;1 -->
<g id="edge1" class="edge">
<title>0&#45;&gt;1</title>
<path fill="none" stroke="black" d="M1599.18,-791.7C1601.52,-784.24 1604.33,-775.32 1606.95,-766.97"/>
<polygon fill="black" stroke="black" points="1610.25,-768.14 1609.91,-757.55 1603.58,-766.04 1610.25,-768.14"/>
</g>
<!-- 23 -->
<g id="node24" class="node">
<title>23</title>
<ellipse fill="none" stroke="black" cx="1753.74" cy="-666" rx="531.94" ry="18"/>
<text text-anchor="middle" x="1753.74" y="-660.95" font-family="Times New Roman,serif" font-size="14.00">Trash Can: You see traces of mayonnaise and ketchup on it, as well as a tomato wedge. The wrapper reads: &#39;SHISH KEBAB REVACHOL&#39;.</text>
</g>
<!-- 1&#45;&gt;23 -->
<g id="edge2" class="edge">
<title>1&#45;&gt;23</title>
<path fill="none" stroke="black" d="M1638.22,-725.6C1657.38,-715.88 1685.5,-701.62 1709.2,-689.59"/>
<polygon fill="black" stroke="black" points="1710.7,-692.76 1718.04,-685.11 1707.53,-686.51 1710.7,-692.76"/>
</g>
<!-- 2 -->
<g id="node3" class="node">
<title>2</title>
<ellipse fill="none" stroke="black" cx="1747.74" cy="-810" rx="97.41" ry="18"/>
<text text-anchor="middle" x="1747.74" y="-804.95" font-family="Times New Roman,serif" font-size="14.00">You: Examine the tare.</text>
</g>
<!-- 18 -->
<g id="node19" class="node">
<title>18</title>
<ellipse fill="none" stroke="black" cx="1747.74" cy="-738" rx="62.61" ry="18"/>
<text text-anchor="middle" x="1747.74" y="-732.95" font-family="Times New Roman,serif" font-size="14.00">You: [Leave.]</text>
</g>
<!-- 2&#45;&gt;18 -->
<g id="edge3" class="edge">
<title>2&#45;&gt;18</title>
<path fill="none" stroke="black" d="M1747.74,-791.7C1747.74,-784.41 1747.74,-775.73 1747.74,-767.54"/>
<polygon fill="black" stroke="black" points="1751.24,-767.62 1747.74,-757.62 1744.24,-767.62 1751.24,-767.62"/>
</g>
<!-- 3 -->
<g id="node4" class="node">
<title>3</title>
<ellipse fill="none" stroke="black" cx="2604.74" cy="-882" rx="137.85" ry="18"/>
<text text-anchor="middle" x="2604.74" y="-876.95" font-family="Times New Roman,serif" font-size="14.00">You: Examine the kebab wrapper.</text>
</g>
<!-- 24 -->
<g id="node25" class="node">
<title>24</title>
<ellipse fill="none" stroke="black" cx="2604.74" cy="-810" rx="27" ry="18"/>
<text text-anchor="middle" x="2604.74" y="-804.95" font-family="Times New Roman,serif" font-size="14.00">24</text>
</g>
<!-- 3&#45;&gt;24 -->
<g id="edge4" class="edge">
<title>3&#45;&gt;24</title>
<path fill="none" stroke="black" d="M2604.74,-863.7C2604.74,-856.41 2604.74,-847.73 2604.74,-839.54"/>
<polygon fill="black" stroke="black" points="2608.24,-839.62 2604.74,-829.62 2601.24,-839.62 2608.24,-839.62"/>
</g>
<!-- 4 -->
<g id="node5" class="node">
<title>4</title>
<ellipse fill="none" stroke="black" cx="750.74" cy="-666" rx="58.52" ry="18"/>
<text text-anchor="middle" x="750.74" y="-660.95" font-family="Times New Roman,serif" font-size="14.00">IsKimHere()</text>
</g>
<!-- 6 -->
<g id="node7" class="node">
<title>6</title>
<polygon fill="none" stroke="black" points="594.74,-540 498.96,-522 594.74,-504 690.53,-522 594.74,-540"/>
<text text-anchor="middle" x="594.74" y="-516.95" font-family="Times New Roman,serif" font-size="14.00">!(IsKimHere())</text>
</g>
<!-- 4&#45;&gt;6 -->
<g id="edge5" class="edge">
<title>4&#45;&gt;6</title>
<path fill="none" stroke="black" d="M714.63,-651.67C693.93,-642.74 668.43,-629.42 649.74,-612 630.66,-594.21 615.68,-568.37 606.2,-549.11"/>
<polygon fill="black" stroke="black" points="609.47,-547.84 602.04,-540.28 603.14,-550.82 609.47,-547.84"/>
</g>
<!-- 7 -->
<g id="node8" class="node">
<title>7</title>
<ellipse fill="none" stroke="black" cx="801.74" cy="-594" rx="143.48" ry="18"/>
<text text-anchor="middle" x="801.74" y="-588.95" font-family="Times New Roman,serif" font-size="14.00">Jump to: [trash can hub boardwalk]</text>
</g>
<!-- 4&#45;&gt;7 -->
<g id="edge6" class="edge">
<title>4&#45;&gt;7</title>
<path fill="none" stroke="black" d="M763.09,-648.05C768.89,-640.09 775.94,-630.41 782.43,-621.51"/>
<polygon fill="black" stroke="black" points="785.2,-623.64 788.26,-613.5 779.55,-619.52 785.2,-623.64"/>
</g>
<!-- 5 -->
<g id="node6" class="node">
<title>5</title>
<polygon fill="none" stroke="black" points="808.74,-108 725.99,-90 808.74,-72 891.5,-90 808.74,-108"/>
<text text-anchor="middle" x="808.74" y="-84.95" font-family="Times New Roman,serif" font-size="14.00">IsKimHere()</text>
</g>
<!-- 13 -->
<g id="node14" class="node">
<title>13</title>
<ellipse fill="none" stroke="black" cx="863.74" cy="-18" rx="143.48" ry="18"/>
<text text-anchor="middle" x="863.74" y="-12.95" font-family="Times New Roman,serif" font-size="14.00">Jump to: [trash can hub boardwalk]</text>
</g>
<!-- 5&#45;&gt;13 -->
<g id="edge7" class="edge">
<title>5&#45;&gt;13</title>
<path fill="none" stroke="black" d="M820.41,-74.15C827,-65.76 835.44,-55.02 843.12,-45.25"/>
<polygon fill="black" stroke="black" points="845.79,-47.51 849.22,-37.48 840.29,-43.18 845.79,-47.51"/>
</g>
<!-- 14 -->
<g id="node15" class="node">
<title>14</title>
<ellipse fill="none" stroke="black" cx="594.74" cy="-306" rx="335.4" ry="18"/>
<text text-anchor="middle" x="594.74" y="-300.95" font-family="Times New Roman,serif" font-size="14.00">Perception (Smell): It&#39;s hard to concentrate in the smell. The sea air brings some relief.</text>
</g>
<!-- 6&#45;&gt;14 -->
<g id="edge8" class="edge">
<title>6&#45;&gt;14</title>
<path fill="none" stroke="black" d="M594.74,-503.85C594.74,-467.14 594.74,-380.66 594.74,-335.53"/>
<polygon fill="black" stroke="black" points="598.24,-335.75 594.74,-325.75 591.24,-335.75 598.24,-335.75"/>
</g>
<!-- 10 -->
<g id="node11" class="node">
<title>10</title>
<ellipse fill="none" stroke="black" cx="1119.74" cy="-522" rx="411.66" ry="18"/>
<text text-anchor="middle" x="1119.74" y="-516.95" font-family="Times New Roman,serif" font-size="14.00">Electrochemistry: Now, this makes partying look *bad*. Still &#45;&#45; don&#39;t let it sway you. *You&#39;re* responsible.</text>
</g>
<!-- 7&#45;&gt;10 -->
<g id="edge9" class="edge">
<title>7&#45;&gt;10</title>
<path fill="none" stroke="black" d="M870.74,-577.81C917.71,-567.47 980.31,-553.69 1030.99,-542.54"/>
<polygon fill="black" stroke="black" points="1031.45,-546.02 1040.46,-540.45 1029.94,-539.18 1031.45,-546.02"/>
</g>
<!-- 8 -->
<g id="node9" class="node">
<title>8</title>
<ellipse fill="none" stroke="black" cx="588.74" cy="-234" rx="409.62" ry="18"/>
<text text-anchor="middle" x="588.74" y="-228.95" font-family="Times New Roman,serif" font-size="14.00">Encyclopedia: &#39;Red Astra&#39; is the black market version of &#39;Astra&#39; cigarettes, known for their high tar content.</text>
</g>
<!-- 11 -->
<g id="node12" class="node">
<title>11</title>
<ellipse fill="none" stroke="black" cx="566.74" cy="-162" rx="566.74" ry="18"/>
<text text-anchor="middle" x="566.74" y="-156.95" font-family="Times New Roman,serif" font-size="14.00">Perception (Sight): No. There&#39;s more in there. &#39;Livis&#39; strawberry liquor, plus some pilsner bottles too. Better not pick them up, they seem unhygienic.</text>
</g>
<!-- 8&#45;&gt;11 -->
<g id="edge10" class="edge">
<title>8&#45;&gt;11</title>
<path fill="none" stroke="black" d="M583.3,-215.7C580.96,-208.24 578.16,-199.32 575.53,-190.97"/>
<polygon fill="black" stroke="black" points="578.91,-190.04 572.57,-181.55 572.23,-192.14 578.91,-190.04"/>
</g>
<!-- 9 -->
<g id="node10" class="node">
<title>9</title>
<ellipse fill="none" stroke="black" cx="1747.74" cy="-882" rx="102.02" ry="18"/>
<text text-anchor="middle" x="1747.74" y="-876.95" font-family="Times New Roman,serif" font-size="14.00">trash can hub boardwalk</text>
</g>
<!-- 9&#45;&gt;2 -->
<g id="edge12" class="edge">
<title>9&#45;&gt;2</title>
<path fill="none" stroke="black" d="M1747.74,-863.7C1747.74,-856.41 1747.74,-847.73 1747.74,-839.54"/>
<polygon fill="black" stroke="black" points="1751.24,-839.62 1747.74,-829.62 1744.24,-839.62 1751.24,-839.62"/>
</g>
<!-- 9&#45;&gt;4 -->
<g id="edge14" class="edge">
<title>9&#45;&gt;4</title>
<path fill="none" stroke="black" d="M1646.99,-879C1403.63,-873.71 801.36,-857.67 769.74,-828 733.91,-794.37 738.12,-731.72 744.42,-695.28"/>
<polygon fill="black" stroke="black" points="747.76,-696.4 746.2,-685.93 740.89,-695.09 747.76,-696.4"/>
</g>
<!-- 17 -->
<g id="node18" class="node">
<title>17</title>
<ellipse fill="none" stroke="black" cx="1157.74" cy="-810" rx="378.91" ry="18"/>
<text text-anchor="middle" x="1157.74" y="-804.95" font-family="Times New Roman,serif" font-size="14.00">Trash Can: Two empty bottles of &#39;Touloula&#39; vodka and a can of black &#39;Potent Porter&#39; is all you find.</text>
</g>
<!-- 9&#45;&gt;17 -->
<g id="edge11" class="edge">
<title>9&#45;&gt;17</title>
<path fill="none" stroke="black" d="M1664.77,-871.16C1571.86,-860.13 1419.43,-842.05 1305.92,-828.58"/>
<polygon fill="black" stroke="black" points="1306.56,-825.13 1296.22,-827.43 1305.74,-832.08 1306.56,-825.13"/>
</g>
<!-- 19 -->
<g id="node20" class="node">
<title>19</title>
<ellipse fill="none" stroke="black" cx="2211.74" cy="-810" rx="348.2" ry="18"/>
<text text-anchor="middle" x="2211.74" y="-804.95" font-family="Times New Roman,serif" font-size="14.00">Trash Can: Whoever tossed it here was a heavy smoker: the brand name reads &#39;Red Astra&#39;.</text>
</g>
<!-- 9&#45;&gt;19 -->
<g id="edge13" class="edge">
<title>9&#45;&gt;19</title>
<path fill="none" stroke="black" d="M1821.24,-869.13C1892.25,-858.15 2001.14,-841.68 2085.93,-829.08"/>
<polygon fill="black" stroke="black" points="2086.33,-832.56 2095.7,-827.62 2085.3,-825.63 2086.33,-832.56"/>
</g>
<!-- 21 -->
<g id="node22" class="node">
<title>21</title>
<ellipse fill="none" stroke="black" cx="880.74" cy="-450" rx="247.37" ry="18"/>
<text text-anchor="middle" x="880.74" y="-444.95" font-family="Times New Roman,serif" font-size="14.00">Visual Calculus: It&#39;s no older than a day, or two. No mould yet.</text>
</g>
<!-- 10&#45;&gt;21 -->
<g id="edge15" class="edge">
<title>10&#45;&gt;21</title>
<path fill="none" stroke="black" d="M1060.66,-503.7C1026.97,-493.83 984.57,-481.41 949.39,-471.11"/>
<polygon fill="black" stroke="black" points="950.76,-467.86 940.18,-468.41 948.79,-474.58 950.76,-467.86"/>
</g>
<!-- 11&#45;&gt;5 -->
<g id="edge16" class="edge">
<title>11&#45;&gt;5</title>
<path fill="none" stroke="black" d="M626.87,-143.61C669.17,-131.37 724.89,-115.25 763.45,-104.1"/>
<polygon fill="black" stroke="black" points="764.26,-107.51 772.89,-101.37 762.31,-100.79 764.26,-107.51"/>
</g>
<!-- 12 -->
<g id="node13" class="node">
<title>12</title>
<ellipse fill="none" stroke="black" cx="1145.74" cy="-738" rx="354.85" ry="18"/>
<text text-anchor="middle" x="1145.74" y="-732.95" font-family="Times New Roman,serif" font-size="14.00">Kim Kitsuragi: &quot;A tragedy...&quot; The lieutenant looks in the can, eyes watering from the smell.</text>
</g>
<!-- 16 -->
<g id="node17" class="node">
<title>16</title>
<ellipse fill="none" stroke="black" cx="1055.74" cy="-666" rx="148.08" ry="18"/>
<text text-anchor="middle" x="1055.74" y="-660.95" font-family="Times New Roman,serif" font-size="14.00">You: Examine the cigarette package.</text>
</g>
<!-- 12&#45;&gt;16 -->
<g id="edge17" class="edge">
<title>12&#45;&gt;16</title>
<path fill="none" stroke="black" d="M1123.49,-719.7C1112.38,-711.05 1098.75,-700.45 1086.63,-691.03"/>
<polygon fill="black" stroke="black" points="1088.97,-688.41 1078.93,-685.03 1084.67,-693.94 1088.97,-688.41"/>
</g>
<!-- 13&#45;&gt;10 -->
<g id="edge18" class="edge">
<title>13&#45;&gt;10</title>
<path fill="none" stroke="black" d="M981.09,-28.7C1064.48,-42.79 1161.74,-77.18 1161.74,-161 1161.74,-379 1161.74,-379 1161.74,-379 1161.74,-420.08 1145.38,-465.2 1133.08,-493.31"/>
<polygon fill="black" stroke="black" points="1130,-491.63 1129.07,-502.18 1136.38,-494.51 1130,-491.63"/>
</g>
<!-- 14&#45;&gt;8 -->
<g id="edge19" class="edge">
<title>14&#45;&gt;8</title>
<path fill="none" stroke="black" d="M593.26,-287.7C592.63,-280.41 591.89,-271.73 591.19,-263.54"/>
<polygon fill="black" stroke="black" points="594.68,-263.28 590.34,-253.61 587.7,-263.87 594.68,-263.28"/>
</g>
<!-- 15 -->
<g id="node16" class="node">
<title>15</title>
<ellipse fill="none" stroke="black" cx="859.74" cy="-378" rx="204.89" ry="18"/>
<text text-anchor="middle" x="859.74" y="-372.95" font-family="Times New Roman,serif" font-size="14.00">Empathy: He shakes his head with genuine sadness.</text>
</g>
<!-- 15&#45;&gt;14 -->
<g id="edge20" class="edge">
<title>15&#45;&gt;14</title>
<path fill="none" stroke="black" d="M796.94,-360.41C759.03,-350.4 710.47,-337.57 670.44,-327"/>
<polygon fill="black" stroke="black" points="671.42,-323.64 660.86,-324.47 669.63,-330.4 671.42,-323.64"/>
</g>
<!-- 20 -->
<g id="node21" class="node">
<title>20</title>
<ellipse fill="none" stroke="black" cx="1112.74" cy="-594" rx="143.48" ry="18"/>
<text text-anchor="middle" x="1112.74" y="-588.95" font-family="Times New Roman,serif" font-size="14.00">Jump to: [trash can hub boardwalk]</text>
</g>
<!-- 16&#45;&gt;20 -->
<g id="edge21" class="edge">
<title>16&#45;&gt;20</title>
<path fill="none" stroke="black" d="M1069.83,-647.7C1076.39,-639.64 1084.33,-629.89 1091.59,-620.98"/>
<polygon fill="black" stroke="black" points="1094.26,-623.24 1097.86,-613.28 1088.83,-618.82 1094.26,-623.24"/>
</g>
<!-- 17&#45;&gt;12 -->
<g id="edge22" class="edge">
<title>17&#45;&gt;12</title>
<path fill="none" stroke="black" d="M1154.78,-791.7C1153.51,-784.32 1152,-775.52 1150.59,-767.25"/>
<polygon fill="black" stroke="black" points="1154.07,-766.86 1148.93,-757.6 1147.17,-768.04 1154.07,-766.86"/>
</g>
<!-- 19&#45;&gt;9 -->
<g id="edge23" class="edge">
<title>19&#45;&gt;9</title>
<path fill="none" stroke="black" d="M2107.31,-827.64C2025.84,-840.13 1913.95,-856.99 1836.7,-868.38"/>
<polygon fill="black" stroke="black" points="1836.45,-864.88 1827.06,-869.8 1837.47,-871.81 1836.45,-864.88"/>
</g>
<!-- 20&#45;&gt;10 -->
<g id="edge24" class="edge">
<title>20&#45;&gt;10</title>
<path fill="none" stroke="black" d="M1114.47,-575.7C1115.2,-568.41 1116.07,-559.73 1116.89,-551.54"/>
<polygon fill="black" stroke="black" points="1120.37,-551.91 1117.88,-541.61 1113.4,-551.21 1120.37,-551.91"/>
</g>
<!-- 21&#45;&gt;15 -->
<g id="edge25" class="edge">
<title>21&#45;&gt;15</title>
<path fill="none" stroke="black" d="M875.55,-431.7C873.31,-424.24 870.64,-415.32 868.13,-406.97"/>
<polygon fill="black" stroke="black" points="871.53,-406.13 865.31,-397.55 864.83,-408.14 871.53,-406.13"/>
</g>
<!-- 22 -->
<g id="node23" class="node">
<title>22</title>
<ellipse fill="none" stroke="black" cx="1702.74" cy="-594" rx="407.57" ry="18"/>
<text text-anchor="middle" x="1702.74" y="-588.95" font-family="Times New Roman,serif" font-size="14.00">Trash Can: There&#39;s some tare, an empty cigarette package, and a crumpled kebab wrapper in the trash bin.</text>
</g>
<!-- 22&#45;&gt;10 -->
<g id="edge26" class="edge">
<title>22&#45;&gt;10</title>
<path fill="none" stroke="black" d="M1566.05,-576.59C1476.56,-565.84 1359.64,-551.8 1267.92,-540.79"/>
<polygon fill="black" stroke="black" points="1268.43,-537.33 1258.09,-539.61 1267.6,-544.28 1268.43,-537.33"/>
</g>
<!-- 23&#45;&gt;22 -->
<g id="edge27" class="edge">
<title>23&#45;&gt;22</title>
<path fill="none" stroke="black" d="M1741.14,-647.7C1735.33,-639.73 1728.31,-630.1 1721.88,-621.26"/>
<polygon fill="black" stroke="black" points="1724.81,-619.35 1716.1,-613.33 1719.15,-623.47 1724.81,-619.35"/>
</g>
</g>
</svg>
