<?xml version="1.0" encoding="UTF-8" standalone="no"?>
<!DOCTYPE svg PUBLIC "-//W3C//DTD SVG 1.1//EN"
 "http://www.w3.org/Graphics/SVG/1.1/DTD/svg11.dtd">
<!-- Generated by graphviz version 12.2.1 (20241206.2353)
 -->
<!-- Title: G Pages: 1 -->
<svg width="2786pt" height="836pt"
 viewBox="0.00 0.00 2786.23 836.00" xmlns="http://www.w3.org/2000/svg" xmlns:xlink="http://www.w3.org/1999/xlink">
<g id="graph0" class="graph" transform="scale(1 1) rotate(0) translate(4 832)">
<title>G</title>
<polygon fill="white" stroke="none" points="-4,4 -4,-832 2782.23,-832 2782.23,4 -4,4"/>
<!-- 0 -->
<g id="node1" class="node">
<title>0</title>
<ellipse fill="none" stroke="black" cx="1896" cy="-810" rx="39.07" ry="18"/>
<text text-anchor="middle" x="1896" y="-804.95" font-family="Times New Roman,serif" font-size="14.00">START</text>
</g>
<!-- 1 -->
<g id="node2" class="node">
<title>1</title>
<ellipse fill="none" stroke="black" cx="1896" cy="-738" rx="29.86" ry="18"/>
<text text-anchor="middle" x="1896" y="-732.95" font-family="Times New Roman,serif" font-size="14.00">input</text>
</g>
<!-- 0&#45;&gt;1 -->
<g id="edge1" class="edge">
<title>0&#45;&gt;1</title>
<path fill="none" stroke="black" d="M1896,-791.7C1896,-784.41 1896,-775.73 1896,-767.54"/>
<polygon fill="black" stroke="black" points="1899.5,-767.62 1896,-757.62 1892.5,-767.62 1899.5,-767.62"/>
</g>
<!-- 23 -->
<g id="node23" class="node">
<title>23</title>
<ellipse fill="none" stroke="black" cx="1896" cy="-666" rx="407.57" ry="18"/>
<text text-anchor="middle" x="1896" y="-660.95" font-family="Times New Roman,serif" font-size="14.00">Trash Can: There&#39;s some tare, an empty cigarette package, and a crumpled kebab wrapper in the trash bin.</text>
</g>
<!-- 1&#45;&gt;23 -->
<g id="edge2" class="edge">
<title>1&#45;&gt;23</title>
<path fill="none" stroke="black" d="M1896,-719.7C1896,-712.41 1896,-703.73 1896,-695.54"/>
<polygon fill="black" stroke="black" points="1899.5,-695.62 1896,-685.62 1892.5,-695.62 1899.5,-695.62"/>
</g>
<!-- 2 -->
<g id="node3" class="node">
<title>2</title>
<ellipse fill="none" stroke="black" cx="1630" cy="-522" rx="97.41" ry="18"/>
<text text-anchor="middle" x="1630" y="-516.95" font-family="Times New Roman,serif" font-size="14.00">You: Examine the tare.</text>
</g>
<!-- 18 -->
<g id="node18" class="node">
<title>18</title>
<ellipse fill="none" stroke="black" cx="1489" cy="-450" rx="378.91" ry="18"/>
<text text-anchor="middle" x="1489" y="-444.95" font-family="Times New Roman,serif" font-size="14.00">Trash Can: Two empty bottles of &#39;Touloula&#39; vodka and a can of black &#39;Potent Porter&#39; is all you find.</text>
</g>
<!-- 2&#45;&gt;18 -->
<g id="edge3" class="edge">
<title>2&#45;&gt;18</title>
<path fill="none" stroke="black" d="M1596.94,-504.59C1578.14,-495.25 1554.34,-483.44 1533.87,-473.27"/>
<polygon fill="black" stroke="black" points="1535.69,-470.27 1525.17,-468.96 1532.57,-476.54 1535.69,-470.27"/>
</g>
<!-- 4 -->
<g id="node4" class="node">
<title>4</title>
<ellipse fill="none" stroke="black" cx="898" cy="-522" rx="137.85" ry="18"/>
<text text-anchor="middle" x="898" y="-516.95" font-family="Times New Roman,serif" font-size="14.00">You: Examine the kebab wrapper.</text>
</g>
<!-- 24 -->
<g id="node24" class="node">
<title>24</title>
<ellipse fill="none" stroke="black" cx="560" cy="-450" rx="531.94" ry="18"/>
<text text-anchor="middle" x="560" y="-444.95" font-family="Times New Roman,serif" font-size="14.00">Trash Can: You see traces of mayonnaise and ketchup on it, as well as a tomato wedge. The wrapper reads: &#39;SHISH KEBAB REVACHOL&#39;.</text>
</g>
<!-- 4&#45;&gt;24 -->
<g id="edge4" class="edge">
<title>4&#45;&gt;24</title>
<path fill="none" stroke="black" d="M826.73,-506.24C776.63,-495.86 709.07,-481.87 654.48,-470.57"/>
<polygon fill="black" stroke="black" points="655.37,-467.18 644.87,-468.58 653.96,-474.03 655.37,-467.18"/>
</g>
<!-- 5 -->
<g id="node5" class="node">
<title>5</title>
<ellipse fill="none" stroke="black" cx="1301" cy="-306" rx="58.52" ry="18"/>
<text text-anchor="middle" x="1301" y="-300.95" font-family="Times New Roman,serif" font-size="14.00">IsKimHere()</text>
</g>
<!-- 6 -->
<g id="node6" class="node">
<title>6</title>
<polygon fill="none" stroke="black" points="1407,-252 1324.24,-234 1407,-216 1489.76,-234 1407,-252"/>
<text text-anchor="middle" x="1407" y="-228.95" font-family="Times New Roman,serif" font-size="14.00">IsKimHere()</text>
</g>
<!-- 5&#45;&gt;6 -->
<g id="edge5" class="edge">
<title>5&#45;&gt;6</title>
<path fill="none" stroke="black" d="M1325.05,-289.12C1340.78,-278.73 1361.41,-265.11 1378.04,-254.12"/>
<polygon fill="black" stroke="black" points="1379.62,-257.28 1386.04,-248.84 1375.76,-251.43 1379.62,-257.28"/>
</g>
<!-- 7 -->
<g id="node7" class="node">
<title>7</title>
<polygon fill="none" stroke="black" points="1044,-180 948.22,-162 1044,-144 1139.78,-162 1044,-180"/>
<text text-anchor="middle" x="1044" y="-156.95" font-family="Times New Roman,serif" font-size="14.00">!(IsKimHere())</text>
</g>
<!-- 5&#45;&gt;7 -->
<g id="edge6" class="edge">
<title>5&#45;&gt;7</title>
<path fill="none" stroke="black" d="M1273.5,-289.8C1226.01,-263.56 1128.81,-209.86 1077.47,-181.49"/>
<polygon fill="black" stroke="black" points="1079.32,-178.51 1068.87,-176.74 1075.93,-184.64 1079.32,-178.51"/>
</g>
<!-- 13 -->
<g id="node13" class="node">
<title>13</title>
<ellipse fill="none" stroke="black" cx="1513" cy="-162" rx="354.85" ry="18"/>
<text text-anchor="middle" x="1513" y="-156.95" font-family="Times New Roman,serif" font-size="14.00">Kim Kitsuragi: &quot;A tragedy...&quot; The lieutenant looks in the can, eyes watering from the smell.</text>
</g>
<!-- 6&#45;&gt;13 -->
<g id="edge7" class="edge">
<title>6&#45;&gt;13</title>
<path fill="none" stroke="black" d="M1426.94,-219.83C1441.08,-210.5 1460.44,-197.71 1477.22,-186.63"/>
<polygon fill="black" stroke="black" points="1479.06,-189.61 1485.48,-181.18 1475.2,-183.77 1479.06,-189.61"/>
</g>
<!-- 14 -->
<g id="node14" class="node">
<title>14</title>
<ellipse fill="none" stroke="black" cx="1513" cy="-18" rx="143.48" ry="18"/>
<text text-anchor="middle" x="1513" y="-12.95" font-family="Times New Roman,serif" font-size="14.00">Jump to: [trash can hub boardwalk]</text>
</g>
<!-- 7&#45;&gt;14 -->
<g id="edge8" class="edge">
<title>7&#45;&gt;14</title>
<path fill="none" stroke="black" d="M1074.32,-149.39C1121.79,-131.44 1216.76,-96.48 1299,-72 1343.09,-58.88 1392.96,-46.39 1433.46,-36.84"/>
<polygon fill="black" stroke="black" points="1434.2,-40.26 1443.14,-34.57 1432.61,-33.44 1434.2,-40.26"/>
</g>
<!-- 8 -->
<g id="node8" class="node">
<title>8</title>
<ellipse fill="none" stroke="black" cx="208" cy="-234" rx="143.48" ry="18"/>
<text text-anchor="middle" x="208" y="-228.95" font-family="Times New Roman,serif" font-size="14.00">Jump to: [trash can hub boardwalk]</text>
</g>
<!-- 10 -->
<g id="node10" class="node">
<title>10</title>
<ellipse fill="none" stroke="black" cx="1896" cy="-594" rx="102.02" ry="18"/>
<text text-anchor="middle" x="1896" y="-588.95" font-family="Times New Roman,serif" font-size="14.00">trash can hub boardwalk</text>
</g>
<!-- 8&#45;&gt;10 -->
<g id="edge9" class="edge">
<title>8&#45;&gt;10</title>
<path fill="none" stroke="black" d="M142.19,-250.42C81.25,-269.06 0,-307.04 0,-377 0,-451 0,-451 0,-451 0,-540.99 1376.05,-580.71 1783.59,-590.5"/>
<polygon fill="black" stroke="black" points="1783.47,-594 1793.55,-590.74 1783.64,-587 1783.47,-594"/>
</g>
<!-- 9 -->
<g id="node9" class="node">
<title>9</title>
<ellipse fill="none" stroke="black" cx="2335" cy="-378" rx="409.62" ry="18"/>
<text text-anchor="middle" x="2335" y="-372.95" font-family="Times New Roman,serif" font-size="14.00">Encyclopedia: &#39;Red Astra&#39; is the black market version of &#39;Astra&#39; cigarettes, known for their high tar content.</text>
</g>
<!-- 11 -->
<g id="node11" class="node">
<title>11</title>
<ellipse fill="none" stroke="black" cx="2336" cy="-306" rx="411.66" ry="18"/>
<text text-anchor="middle" x="2336" y="-300.95" font-family="Times New Roman,serif" font-size="14.00">Electrochemistry: Now, this makes partying look *bad*. Still &#45;&#45; don&#39;t let it sway you. *You&#39;re* responsible.</text>
</g>
<!-- 9&#45;&gt;11 -->
<g id="edge10" class="edge">
<title>9&#45;&gt;11</title>
<path fill="none" stroke="black" d="M2335.25,-359.7C2335.35,-352.41 2335.48,-343.73 2335.59,-335.54"/>
<polygon fill="black" stroke="black" points="2339.09,-335.67 2335.73,-325.62 2332.09,-335.57 2339.09,-335.67"/>
</g>
<!-- 10&#45;&gt;2 -->
<g id="edge12" class="edge">
<title>10&#45;&gt;2</title>
<path fill="none" stroke="black" d="M1840.88,-578.5C1798.52,-567.35 1739.87,-551.91 1695.18,-540.15"/>
<polygon fill="black" stroke="black" points="1696.16,-536.79 1685.6,-537.63 1694.38,-543.56 1696.16,-536.79"/>
</g>
<!-- 10&#45;&gt;4 -->
<g id="edge14" class="edge">
<title>10&#45;&gt;4</title>
<path fill="none" stroke="black" d="M1802.56,-586.45C1623.74,-573.9 1232.79,-546.48 1028.39,-532.15"/>
<polygon fill="black" stroke="black" points="1028.73,-528.66 1018.51,-531.45 1028.24,-535.64 1028.73,-528.66"/>
</g>
<!-- 17 -->
<g id="node17" class="node">
<title>17</title>
<ellipse fill="none" stroke="black" cx="2245" cy="-522" rx="148.08" ry="18"/>
<text text-anchor="middle" x="2245" y="-516.95" font-family="Times New Roman,serif" font-size="14.00">You: Examine the cigarette package.</text>
</g>
<!-- 10&#45;&gt;17 -->
<g id="edge11" class="edge">
<title>10&#45;&gt;17</title>
<path fill="none" stroke="black" d="M1961.64,-579.83C2017.6,-568.61 2098.41,-552.4 2159.42,-540.16"/>
<polygon fill="black" stroke="black" points="2159.98,-543.62 2169.09,-538.23 2158.6,-536.76 2159.98,-543.62"/>
</g>
<!-- 19 -->
<g id="node19" class="node">
<title>19</title>
<ellipse fill="none" stroke="black" cx="1987" cy="-522" rx="62.61" ry="18"/>
<text text-anchor="middle" x="1987" y="-516.95" font-family="Times New Roman,serif" font-size="14.00">You: [Leave.]</text>
</g>
<!-- 10&#45;&gt;19 -->
<g id="edge13" class="edge">
<title>10&#45;&gt;19</title>
<path fill="none" stroke="black" d="M1918.03,-576.05C1929.71,-567.07 1944.24,-555.9 1956.94,-546.12"/>
<polygon fill="black" stroke="black" points="1958.81,-549.1 1964.6,-540.23 1954.54,-543.55 1958.81,-549.1"/>
</g>
<!-- 21 -->
<g id="node21" class="node">
<title>21</title>
<ellipse fill="none" stroke="black" cx="2556" cy="-234" rx="143.48" ry="18"/>
<text text-anchor="middle" x="2556" y="-228.95" font-family="Times New Roman,serif" font-size="14.00">Jump to: [trash can hub boardwalk]</text>
</g>
<!-- 11&#45;&gt;21 -->
<g id="edge15" class="edge">
<title>11&#45;&gt;21</title>
<path fill="none" stroke="black" d="M2390.38,-287.7C2421.82,-277.69 2461.48,-265.07 2494.11,-254.69"/>
<polygon fill="black" stroke="black" points="2494.98,-258.09 2503.44,-251.72 2492.85,-251.42 2494.98,-258.09"/>
</g>
<!-- 12 -->
<g id="node12" class="node">
<title>12</title>
<ellipse fill="none" stroke="black" cx="1301" cy="-378" rx="566.74" ry="18"/>
<text text-anchor="middle" x="1301" y="-372.95" font-family="Times New Roman,serif" font-size="14.00">Perception (Sight): No. There&#39;s more in there. &#39;Livis&#39; strawberry liquor, plus some pilsner bottles too. Better not pick them up, they seem unhygienic.</text>
</g>
<!-- 12&#45;&gt;5 -->
<g id="edge16" class="edge">
<title>12&#45;&gt;5</title>
<path fill="none" stroke="black" d="M1301,-359.7C1301,-352.41 1301,-343.73 1301,-335.54"/>
<polygon fill="black" stroke="black" points="1304.5,-335.62 1301,-325.62 1297.5,-335.62 1304.5,-335.62"/>
</g>
<!-- 16 -->
<g id="node16" class="node">
<title>16</title>
<ellipse fill="none" stroke="black" cx="1513" cy="-90" rx="204.89" ry="18"/>
<text text-anchor="middle" x="1513" y="-84.95" font-family="Times New Roman,serif" font-size="14.00">Empathy: He shakes his head with genuine sadness.</text>
</g>
<!-- 13&#45;&gt;16 -->
<g id="edge17" class="edge">
<title>13&#45;&gt;16</title>
<path fill="none" stroke="black" d="M1513,-143.7C1513,-136.41 1513,-127.73 1513,-119.54"/>
<polygon fill="black" stroke="black" points="1516.5,-119.62 1513,-109.62 1509.5,-119.62 1516.5,-119.62"/>
</g>
<!-- 14&#45;&gt;10 -->
<g id="edge18" class="edge">
<title>14&#45;&gt;10</title>
<path fill="none" stroke="black" d="M1597.53,-32.85C1710.31,-53.76 1896,-97.8 1896,-161 1896,-451 1896,-451 1896,-451 1896,-490.26 1896,-535.62 1896,-564.31"/>
<polygon fill="black" stroke="black" points="1892.5,-564 1896,-574 1899.5,-564 1892.5,-564"/>
</g>
<!-- 15 -->
<g id="node15" class="node">
<title>15</title>
<ellipse fill="none" stroke="black" cx="416" cy="-306" rx="335.4" ry="18"/>
<text text-anchor="middle" x="416" y="-300.95" font-family="Times New Roman,serif" font-size="14.00">Perception (Smell): It&#39;s hard to concentrate in the smell. The sea air brings some relief.</text>
</g>
<!-- 15&#45;&gt;8 -->
<g id="edge19" class="edge">
<title>15&#45;&gt;8</title>
<path fill="none" stroke="black" d="M364.85,-287.79C335.26,-277.83 297.9,-265.25 267.06,-254.88"/>
<polygon fill="black" stroke="black" points="268.48,-251.66 257.88,-251.79 266.24,-258.29 268.48,-251.66"/>
</g>
<!-- 16&#45;&gt;14 -->
<g id="edge20" class="edge">
<title>16&#45;&gt;14</title>
<path fill="none" stroke="black" d="M1513,-71.7C1513,-64.41 1513,-55.73 1513,-47.54"/>
<polygon fill="black" stroke="black" points="1516.5,-47.62 1513,-37.62 1509.5,-47.62 1516.5,-47.62"/>
</g>
<!-- 20 -->
<g id="node20" class="node">
<title>20</title>
<ellipse fill="none" stroke="black" cx="2305" cy="-450" rx="348.2" ry="18"/>
<text text-anchor="middle" x="2305" y="-444.95" font-family="Times New Roman,serif" font-size="14.00">Trash Can: Whoever tossed it here was a heavy smoker: the brand name reads &#39;Red Astra&#39;.</text>
</g>
<!-- 17&#45;&gt;20 -->
<g id="edge21" class="edge">
<title>17&#45;&gt;20</title>
<path fill="none" stroke="black" d="M2259.83,-503.7C2266.81,-495.56 2275.27,-485.69 2282.97,-476.7"/>
<polygon fill="black" stroke="black" points="2285.5,-479.12 2289.35,-469.25 2280.19,-474.57 2285.5,-479.12"/>
</g>
<!-- 18&#45;&gt;12 -->
<g id="edge22" class="edge">
<title>18&#45;&gt;12</title>
<path fill="none" stroke="black" d="M1442.53,-431.7C1416.99,-422.19 1385.11,-410.32 1358.07,-400.25"/>
<polygon fill="black" stroke="black" points="1359.6,-397.08 1349.01,-396.88 1357.16,-403.64 1359.6,-397.08"/>
</g>
<!-- 20&#45;&gt;9 -->
<g id="edge23" class="edge">
<title>20&#45;&gt;9</title>
<path fill="none" stroke="black" d="M2312.42,-431.7C2315.65,-424.15 2319.52,-415.12 2323.14,-406.68"/>
<polygon fill="black" stroke="black" points="2326.35,-408.07 2327.07,-397.5 2319.92,-405.31 2326.35,-408.07"/>
</g>
<!-- 21&#45;&gt;10 -->
<g id="edge24" class="edge">
<title>21&#45;&gt;10</title>
<path fill="none" stroke="black" d="M2643.19,-248.7C2689.83,-257.78 2740.9,-271.12 2757,-288 2784.91,-317.27 2776,-336.55 2776,-377 2776,-451 2776,-451 2776,-451 2776,-528.46 2237.7,-571.62 2003.13,-586.75"/>
<polygon fill="black" stroke="black" points="2003.12,-583.24 1993.36,-587.37 2003.56,-590.23 2003.12,-583.24"/>
</g>
<!-- 22 -->
<g id="node22" class="node">
<title>22</title>
<ellipse fill="none" stroke="black" cx="442" cy="-378" rx="247.37" ry="18"/>
<text text-anchor="middle" x="442" y="-372.95" font-family="Times New Roman,serif" font-size="14.00">Visual Calculus: It&#39;s no older than a day, or two. No mould yet.</text>
</g>
<!-- 22&#45;&gt;15 -->
<g id="edge25" class="edge">
<title>22&#45;&gt;15</title>
<path fill="none" stroke="black" d="M435.57,-359.7C432.77,-352.15 429.42,-343.12 426.28,-334.68"/>
<polygon fill="black" stroke="black" points="429.64,-333.68 422.88,-325.52 423.08,-336.12 429.64,-333.68"/>
</g>
<!-- 23&#45;&gt;10 -->
<g id="edge26" class="edge">
<title>23&#45;&gt;10</title>
<path fill="none" stroke="black" d="M1896,-647.7C1896,-640.41 1896,-631.73 1896,-623.54"/>
<polygon fill="black" stroke="black" points="1899.5,-623.62 1896,-613.62 1892.5,-623.62 1899.5,-623.62"/>
</g>
<!-- 24&#45;&gt;22 -->
<g id="edge27" class="edge">
<title>24&#45;&gt;22</title>
<path fill="none" stroke="black" d="M530.83,-431.7C515.8,-422.78 497.26,-411.78 481.01,-402.14"/>
<polygon fill="black" stroke="black" points="482.93,-399.21 472.54,-397.12 479.36,-405.23 482.93,-399.21"/>
</g>
</g>
</svg>
