<?xml version="1.0" encoding="UTF-8" standalone="no"?>
<!DOCTYPE svg PUBLIC "-//W3C//DTD SVG 1.1//EN"
 "http://www.w3.org/Graphics/SVG/1.1/DTD/svg11.dtd">
<!-- Generated by graphviz version 12.2.1 (20241206.2353)
 -->
<!-- Title: G Pages: 1 -->
<svg width="5077pt" height="1340pt"
 viewBox="0.00 0.00 5076.87 1340.00" xmlns="http://www.w3.org/2000/svg" xmlns:xlink="http://www.w3.org/1999/xlink">
<g id="graph0" class="graph" transform="scale(1 1) rotate(0) translate(4 1336)">
<title>G</title>
<polygon fill="white" stroke="none" points="-4,4 -4,-1336 5072.87,-1336 5072.87,4 -4,4"/>
<!-- 0 -->
<g id="node1" class="node">
<title>0</title>
<ellipse fill="none" stroke="black" cx="767.4" cy="-1314" rx="39.07" ry="18"/>
<text text-anchor="middle" x="767.4" y="-1308.95" font-family="Times New Roman,serif" font-size="14.00">START</text>
</g>
<!-- 0&#45;&gt;0 -->
<g id="edge1" class="edge">
<title>0&#45;&gt;0</title>
<path fill="none" stroke="black" d="M795.58,-1326.94C810.7,-1329.14 824.46,-1324.83 824.46,-1314 824.46,-1305.96 816.88,-1301.52 806.79,-1300.65"/>
<polygon fill="black" stroke="black" points="806.96,-1297.15 797.1,-1301 807.22,-1304.14 806.96,-1297.15"/>
</g>
<!-- 1 -->
<g id="node2" class="node">
<title>1</title>
<ellipse fill="none" stroke="black" cx="1831.4" cy="-594" rx="29.86" ry="18"/>
<text text-anchor="middle" x="1831.4" y="-588.95" font-family="Times New Roman,serif" font-size="14.00">input</text>
</g>
<!-- 37 -->
<g id="node38" class="node">
<title>37</title>
<ellipse fill="none" stroke="black" cx="1596.4" cy="-522" rx="617.92" ry="18"/>
<text text-anchor="middle" x="1596.4" y="-516.95" font-family="Times New Roman,serif" font-size="14.00">Hand/Eye Coordination: Holding the gun feels natural and satisfying. It&#39;s like an extension of your arm, the polished wooden handle almost fusing into your palm.</text>
</g>
<!-- 1&#45;&gt;37 -->
<g id="edge2" class="edge">
<title>1&#45;&gt;37</title>
<path fill="none" stroke="black" d="M1804.9,-585.11C1771.33,-575.11 1712.25,-557.51 1665.53,-543.59"/>
<polygon fill="black" stroke="black" points="1666.59,-540.26 1656,-540.76 1664.59,-546.97 1666.59,-540.26"/>
</g>
<!-- 2 -->
<g id="node3" class="node">
<title>2</title>
<ellipse fill="none" stroke="black" cx="2597.4" cy="-18" rx="122.49" ry="18"/>
<text text-anchor="middle" x="2597.4" y="-12.95" font-family="Times New Roman,serif" font-size="14.00">Half Light: You sorry *fuck*!</text>
</g>
<!-- 3 -->
<g id="node4" class="node">
<title>3</title>
<ellipse fill="none" stroke="black" cx="2117.4" cy="-1314" rx="166.51" ry="18"/>
<text text-anchor="middle" x="2117.4" y="-1308.95" font-family="Times New Roman,serif" font-size="14.00">IsTHCPresent(&quot;revacholian_nationhood&quot;)</text>
</g>
<!-- 3&#45;&gt;3 -->
<g id="edge3" class="edge">
<title>3&#45;&gt;3</title>
<path fill="none" stroke="black" d="M2231.36,-1327.5C2270.43,-1327.6 2301.9,-1323.11 2301.9,-1314 2301.9,-1305.78 2276.28,-1301.32 2242.57,-1300.6"/>
<polygon fill="black" stroke="black" points="2242.9,-1297.11 2232.87,-1300.52 2242.84,-1304.11 2242.9,-1297.11"/>
</g>
<!-- 4 -->
<g id="node5" class="node">
<title>4</title>
<polygon fill="none" stroke="black" points="2117.4,-1260 1881.92,-1242 2117.4,-1224 2352.87,-1242 2117.4,-1260"/>
<text text-anchor="middle" x="2117.4" y="-1236.95" font-family="Times New Roman,serif" font-size="14.00">IsTHCPresent(&quot;revacholian_nationhood&quot;)</text>
</g>
<!-- 3&#45;&gt;4 -->
<g id="edge4" class="edge">
<title>3&#45;&gt;4</title>
<path fill="none" stroke="black" d="M2117.4,-1295.7C2117.4,-1288.41 2117.4,-1279.73 2117.4,-1271.54"/>
<polygon fill="black" stroke="black" points="2120.9,-1271.62 2117.4,-1261.62 2113.9,-1271.62 2120.9,-1271.62"/>
</g>
<!-- 40 -->
<g id="node41" class="node">
<title>40</title>
<ellipse fill="none" stroke="black" cx="2117.4" cy="-1170" rx="744.85" ry="18"/>
<text text-anchor="middle" x="2117.4" y="-1164.95" font-family="Times New Roman,serif" font-size="14.00">Hand/Eye Coordination: A Villiers 9mm pistol &#45;&#45; where Insulindian steel meets Revachol craftsmanship. With it thou wilt protect the fair people of thine homeland and keep the *visitors* in check.</text>
</g>
<!-- 4&#45;&gt;40 -->
<g id="edge5" class="edge">
<title>4&#45;&gt;40</title>
<path fill="none" stroke="black" d="M2117.4,-1223.7C2117.4,-1216.41 2117.4,-1207.73 2117.4,-1199.54"/>
<polygon fill="black" stroke="black" points="2120.9,-1199.62 2117.4,-1189.62 2113.9,-1199.62 2120.9,-1199.62"/>
</g>
<!-- 5 -->
<g id="node6" class="node">
<title>5</title>
<polygon fill="none" stroke="black" points="1445.4,-828 1196.89,-810 1445.4,-792 1693.9,-810 1445.4,-828"/>
<text text-anchor="middle" x="1445.4" y="-804.95" font-family="Times New Roman,serif" font-size="14.00">!(IsTHCPresent(&quot;revacholian_nationhood&quot;))</text>
</g>
<!-- 6 -->
<g id="node7" class="node">
<title>6</title>
<ellipse fill="none" stroke="black" cx="1402.4" cy="-738" rx="558.04" ry="18"/>
<text text-anchor="middle" x="1402.4" y="-732.95" font-family="Times New Roman,serif" font-size="14.00">Hand/Eye Coordination: At last! The fastest hand in Revachol reunited with the slickest tool in North. You&#39;re gonna be the envy of the town, baby!</text>
</g>
<!-- 5&#45;&gt;6 -->
<g id="edge6" class="edge">
<title>5&#45;&gt;6</title>
<path fill="none" stroke="black" d="M1435.21,-792.41C1430.37,-784.54 1424.47,-774.93 1419.01,-766.04"/>
<polygon fill="black" stroke="black" points="1422.12,-764.43 1413.91,-757.74 1416.16,-768.09 1422.12,-764.43"/>
</g>
<!-- 7 -->
<g id="node8" class="node">
<title>7</title>
<ellipse fill="none" stroke="black" cx="3770.4" cy="-1314" rx="108.16" ry="18"/>
<text text-anchor="middle" x="3770.4" y="-1308.95" font-family="Times New Roman,serif" font-size="14.00">IsTHCPresent(&quot;moralist&quot;)</text>
</g>
<!-- 7&#45;&gt;7 -->
<g id="edge8" class="edge">
<title>7&#45;&gt;7</title>
<path fill="none" stroke="black" d="M3844.89,-1327.46C3873.17,-1327.98 3896.56,-1323.49 3896.56,-1314 3896.56,-1305.81 3879.13,-1301.34 3856.17,-1300.61"/>
<polygon fill="black" stroke="black" points="3856.42,-1297.11 3846.4,-1300.55 3856.38,-1304.11 3856.42,-1297.11"/>
</g>
<!-- 8 -->
<g id="node9" class="node">
<title>8</title>
<polygon fill="none" stroke="black" points="3770.4,-1260 3617.43,-1242 3770.4,-1224 3923.36,-1242 3770.4,-1260"/>
<text text-anchor="middle" x="3770.4" y="-1236.95" font-family="Times New Roman,serif" font-size="14.00">IsTHCPresent(&quot;moralist&quot;)</text>
</g>
<!-- 7&#45;&gt;8 -->
<g id="edge7" class="edge">
<title>7&#45;&gt;8</title>
<path fill="none" stroke="black" d="M3770.4,-1295.7C3770.4,-1288.41 3770.4,-1279.73 3770.4,-1271.54"/>
<polygon fill="black" stroke="black" points="3773.9,-1271.62 3770.4,-1261.62 3766.9,-1271.62 3773.9,-1271.62"/>
</g>
<!-- 41 -->
<g id="node42" class="node">
<title>41</title>
<ellipse fill="none" stroke="black" cx="3770.4" cy="-1170" rx="889.69" ry="18"/>
<text text-anchor="middle" x="3770.4" y="-1164.95" font-family="Times New Roman,serif" font-size="14.00">Hand/Eye Coordination: This is your gun. It&#39;s more of a symbol than anything else, because there is always, *ALWAYS* a rational, sensible, reasonable solution to every situation. Sheathe it and know: You have the moral high&#45;ground.</text>
</g>
<!-- 8&#45;&gt;41 -->
<g id="edge9" class="edge">
<title>8&#45;&gt;41</title>
<path fill="none" stroke="black" d="M3770.4,-1223.7C3770.4,-1216.41 3770.4,-1207.73 3770.4,-1199.54"/>
<polygon fill="black" stroke="black" points="3773.9,-1199.62 3770.4,-1189.62 3766.9,-1199.62 3773.9,-1199.62"/>
</g>
<!-- 9 -->
<g id="node10" class="node">
<title>9</title>
<polygon fill="none" stroke="black" points="1008.4,-1332 842.4,-1314 1008.4,-1296 1174.39,-1314 1008.4,-1332"/>
<text text-anchor="middle" x="1008.4" y="-1308.95" font-family="Times New Roman,serif" font-size="14.00">!(IsTHCPresent(&quot;moralist&quot;))</text>
</g>
<!-- 27 -->
<g id="node28" class="node">
<title>27</title>
<ellipse fill="none" stroke="black" cx="1008.4" cy="-1242" rx="112.26" ry="18"/>
<text text-anchor="middle" x="1008.4" y="-1236.95" font-family="Times New Roman,serif" font-size="14.00">IsTHCPresent(&quot;boiadeiro&quot;)</text>
</g>
<!-- 9&#45;&gt;27 -->
<g id="edge10" class="edge">
<title>9&#45;&gt;27</title>
<path fill="none" stroke="black" d="M1008.4,-1295.7C1008.4,-1288.41 1008.4,-1279.73 1008.4,-1271.54"/>
<polygon fill="black" stroke="black" points="1011.9,-1271.62 1008.4,-1261.62 1004.9,-1271.62 1011.9,-1271.62"/>
</g>
<!-- 10 -->
<g id="node11" class="node">
<title>10</title>
<ellipse fill="none" stroke="black" cx="4730.4" cy="-234" rx="338.48" ry="18"/>
<text text-anchor="middle" x="4730.4" y="-228.95" font-family="Times New Roman,serif" font-size="14.00">Hand/Eye Coordination: This is your gun. Now if we could only find your personality...</text>
</g>
<!-- 11 -->
<g id="node12" class="node">
<title>11</title>
<ellipse fill="none" stroke="black" cx="1857.4" cy="-954" rx="128.63" ry="18"/>
<text text-anchor="middle" x="1857.4" y="-948.95" font-family="Times New Roman,serif" font-size="14.00">IsTHCPresent(&quot;superstar_cop&quot;)</text>
</g>
<!-- 12 -->
<g id="node13" class="node">
<title>12</title>
<polygon fill="none" stroke="black" points="1616.4,-900 1434.48,-882 1616.4,-864 1798.31,-882 1616.4,-900"/>
<text text-anchor="middle" x="1616.4" y="-876.95" font-family="Times New Roman,serif" font-size="14.00">IsTHCPresent(&quot;superstar_cop&quot;)</text>
</g>
<!-- 11&#45;&gt;12 -->
<g id="edge11" class="edge">
<title>11&#45;&gt;12</title>
<path fill="none" stroke="black" d="M1803.31,-937.29C1764.2,-925.93 1711.51,-910.63 1672.04,-899.16"/>
<polygon fill="black" stroke="black" points="1673.05,-895.81 1662.47,-896.38 1671.1,-902.53 1673.05,-895.81"/>
</g>
<!-- 13 -->
<g id="node14" class="node">
<title>13</title>
<polygon fill="none" stroke="black" points="2097.4,-900 1902.45,-882 2097.4,-864 2292.34,-882 2097.4,-900"/>
<text text-anchor="middle" x="2097.4" y="-876.95" font-family="Times New Roman,serif" font-size="14.00">!(IsTHCPresent(&quot;superstar_cop&quot;))</text>
</g>
<!-- 11&#45;&gt;13 -->
<g id="edge12" class="edge">
<title>11&#45;&gt;13</title>
<path fill="none" stroke="black" d="M1911.26,-937.29C1949.96,-926 2002,-910.82 2041.22,-899.38"/>
<polygon fill="black" stroke="black" points="2042.1,-902.77 2050.72,-896.61 2040.14,-896.05 2042.1,-902.77"/>
</g>
<!-- 12&#45;&gt;5 -->
<g id="edge13" class="edge">
<title>12&#45;&gt;5</title>
<path fill="none" stroke="black" d="M1582.2,-867C1556.36,-856.42 1520.6,-841.78 1492.12,-830.13"/>
<polygon fill="black" stroke="black" points="1493.58,-826.94 1483,-826.39 1490.93,-833.42 1493.58,-826.94"/>
</g>
<!-- 34 -->
<g id="node35" class="node">
<title>34</title>
<ellipse fill="none" stroke="black" cx="2140.4" cy="-810" rx="114.3" ry="18"/>
<text text-anchor="middle" x="2140.4" y="-804.95" font-family="Times New Roman,serif" font-size="14.00">IsTHCPresent(&quot;sorry_cop&quot;)</text>
</g>
<!-- 13&#45;&gt;34 -->
<g id="edge14" class="edge">
<title>13&#45;&gt;34</title>
<path fill="none" stroke="black" d="M2107.37,-864.76C2112.27,-856.78 2118.31,-846.95 2123.88,-837.89"/>
<polygon fill="black" stroke="black" points="2126.83,-839.77 2129.08,-829.41 2120.87,-836.1 2126.83,-839.77"/>
</g>
<!-- 14 -->
<g id="node15" class="node">
<title>14</title>
<ellipse fill="none" stroke="black" cx="3803.4" cy="-522" rx="119.42" ry="18"/>
<text text-anchor="middle" x="3803.4" y="-516.95" font-family="Times New Roman,serif" font-size="14.00">IsTHCPresent(&quot;communist&quot;)</text>
</g>
<!-- 15 -->
<g id="node16" class="node">
<title>15</title>
<polygon fill="none" stroke="black" points="3556.4,-468 3387.51,-450 3556.4,-432 3725.28,-450 3556.4,-468"/>
<text text-anchor="middle" x="3556.4" y="-444.95" font-family="Times New Roman,serif" font-size="14.00">IsTHCPresent(&quot;communist&quot;)</text>
</g>
<!-- 14&#45;&gt;15 -->
<g id="edge16" class="edge">
<title>14&#45;&gt;15</title>
<path fill="none" stroke="black" d="M3748.88,-505.55C3708.28,-494.04 3653.03,-478.39 3612.14,-466.8"/>
<polygon fill="black" stroke="black" points="3613.3,-463.49 3602.73,-464.13 3611.4,-470.23 3613.3,-463.49"/>
</g>
<!-- 16 -->
<g id="node17" class="node">
<title>16</title>
<polygon fill="none" stroke="black" points="4034.4,-468 3852.48,-450 4034.4,-432 4216.31,-450 4034.4,-468"/>
<text text-anchor="middle" x="4034.4" y="-444.95" font-family="Times New Roman,serif" font-size="14.00">!(IsTHCPresent(&quot;communist&quot;))</text>
</g>
<!-- 14&#45;&gt;16 -->
<g id="edge15" class="edge">
<title>14&#45;&gt;16</title>
<path fill="none" stroke="black" d="M3854.95,-505.38C3892.22,-494.08 3942.48,-478.85 3980.32,-467.39"/>
<polygon fill="black" stroke="black" points="3981.14,-470.8 3989.69,-464.55 3979.11,-464.1 3981.14,-470.8"/>
</g>
<!-- 38 -->
<g id="node39" class="node">
<title>38</title>
<ellipse fill="none" stroke="black" cx="3474.4" cy="-378" rx="506.86" ry="18"/>
<text text-anchor="middle" x="3474.4" y="-372.95" font-family="Times New Roman,serif" font-size="14.00">Hand/Eye Coordination: This is your gun. Yours and &#45;&#45; by extension &#45;&#45; the People&#39;s. But mostly yours. Now go and serve the People.</text>
</g>
<!-- 15&#45;&gt;38 -->
<g id="edge17" class="edge">
<title>15&#45;&gt;38</title>
<path fill="none" stroke="black" d="M3538.2,-433.46C3527.97,-424.73 3514.97,-413.63 3503.37,-403.74"/>
<polygon fill="black" stroke="black" points="3505.88,-401.27 3496,-397.44 3501.33,-406.6 3505.88,-401.27"/>
</g>
<!-- 42 -->
<g id="node43" class="node">
<title>42</title>
<ellipse fill="none" stroke="black" cx="4117.4" cy="-378" rx="117.89" ry="18"/>
<text text-anchor="middle" x="4117.4" y="-372.95" font-family="Times New Roman,serif" font-size="14.00">IsTHCPresent(&quot;ultraliberal&quot;)</text>
</g>
<!-- 16&#45;&gt;42 -->
<g id="edge18" class="edge">
<title>16&#45;&gt;42</title>
<path fill="none" stroke="black" d="M4052.82,-433.46C4063.24,-424.67 4076.52,-413.47 4088.32,-403.52"/>
<polygon fill="black" stroke="black" points="4090.44,-406.31 4095.83,-397.19 4085.93,-400.96 4090.44,-406.31"/>
</g>
<!-- 17 -->
<g id="node18" class="node">
<title>17</title>
<ellipse fill="none" stroke="black" cx="2949.4" cy="-666" rx="133.24" ry="18"/>
<text text-anchor="middle" x="2949.4" y="-660.95" font-family="Times New Roman,serif" font-size="14.00">IsTHCPresent(&quot;remote_viewer&quot;)</text>
</g>
<!-- 18 -->
<g id="node19" class="node">
<title>18</title>
<polygon fill="none" stroke="black" points="2949.4,-612 2760.96,-594 2949.4,-576 3137.83,-594 2949.4,-612"/>
<text text-anchor="middle" x="2949.4" y="-588.95" font-family="Times New Roman,serif" font-size="14.00">IsTHCPresent(&quot;remote_viewer&quot;)</text>
</g>
<!-- 17&#45;&gt;18 -->
<g id="edge19" class="edge">
<title>17&#45;&gt;18</title>
<path fill="none" stroke="black" d="M2949.4,-647.7C2949.4,-640.41 2949.4,-631.73 2949.4,-623.54"/>
<polygon fill="black" stroke="black" points="2952.9,-623.62 2949.4,-613.62 2945.9,-623.62 2952.9,-623.62"/>
</g>
<!-- 19 -->
<g id="node20" class="node">
<title>19</title>
<polygon fill="none" stroke="black" points="3580.4,-612 3378.94,-594 3580.4,-576 3781.86,-594 3580.4,-612"/>
<text text-anchor="middle" x="3580.4" y="-588.95" font-family="Times New Roman,serif" font-size="14.00">!(IsTHCPresent(&quot;remote_viewer&quot;))</text>
</g>
<!-- 17&#45;&gt;19 -->
<g id="edge20" class="edge">
<title>17&#45;&gt;19</title>
<path fill="none" stroke="black" d="M3050.08,-653.83C3168.73,-640.67 3364.57,-618.94 3482.15,-605.9"/>
<polygon fill="black" stroke="black" points="3482.22,-609.41 3491.77,-604.83 3481.45,-602.46 3482.22,-609.41"/>
</g>
<!-- 51 -->
<g id="node52" class="node">
<title>51</title>
<ellipse fill="none" stroke="black" cx="2949.4" cy="-522" rx="716.7" ry="18"/>
<text text-anchor="middle" x="2949.4" y="-516.95" font-family="Times New Roman,serif" font-size="14.00">Hand/Eye Coordination: Although only useful against assailants made of flesh and blood, the gun is still yours. Maybe Remote Viewers also have some other... non&#45;conventional weaponry?</text>
</g>
<!-- 18&#45;&gt;51 -->
<g id="edge21" class="edge">
<title>18&#45;&gt;51</title>
<path fill="none" stroke="black" d="M2949.4,-575.7C2949.4,-568.41 2949.4,-559.73 2949.4,-551.54"/>
<polygon fill="black" stroke="black" points="2952.9,-551.62 2949.4,-541.62 2945.9,-551.62 2952.9,-551.62"/>
</g>
<!-- 19&#45;&gt;14 -->
<g id="edge22" class="edge">
<title>19&#45;&gt;14</title>
<path fill="none" stroke="black" d="M3623.66,-579.42C3657.43,-568.82 3704.79,-553.95 3742.41,-542.14"/>
<polygon fill="black" stroke="black" points="3743.31,-545.53 3751.8,-539.2 3741.21,-538.85 3743.31,-545.53"/>
</g>
<!-- 20 -->
<g id="node21" class="node">
<title>20</title>
<ellipse fill="none" stroke="black" cx="2949.4" cy="-450" rx="78.99" ry="18"/>
<text text-anchor="middle" x="2949.4" y="-444.95" font-family="Times New Roman,serif" font-size="14.00">Logic: They don&#39;t.</text>
</g>
<!-- 21 -->
<g id="node22" class="node">
<title>21</title>
<ellipse fill="none" stroke="black" cx="2180.4" cy="-162" rx="136.31" ry="18"/>
<text text-anchor="middle" x="2180.4" y="-156.95" font-family="Times New Roman,serif" font-size="14.00">IsTHCPresent(&quot;apocalypse_cop&quot;)</text>
</g>
<!-- 22 -->
<g id="node23" class="node">
<title>22</title>
<polygon fill="none" stroke="black" points="1902.4,-108 1709.62,-90 1902.4,-72 2095.17,-90 1902.4,-108"/>
<text text-anchor="middle" x="1902.4" y="-84.95" font-family="Times New Roman,serif" font-size="14.00">IsTHCPresent(&quot;apocalypse_cop&quot;)</text>
</g>
<!-- 21&#45;&gt;22 -->
<g id="edge23" class="edge">
<title>21&#45;&gt;22</title>
<path fill="none" stroke="black" d="M2119.04,-145.55C2072.96,-133.95 2010.1,-118.12 1963.96,-106.5"/>
<polygon fill="black" stroke="black" points="1964.93,-103.14 1954.37,-104.09 1963.22,-109.92 1964.93,-103.14"/>
</g>
<!-- 23 -->
<g id="node24" class="node">
<title>23</title>
<polygon fill="none" stroke="black" points="2458.4,-108 2252.59,-90 2458.4,-72 2664.2,-90 2458.4,-108"/>
<text text-anchor="middle" x="2458.4" y="-84.95" font-family="Times New Roman,serif" font-size="14.00">!(IsTHCPresent(&quot;apocalypse_cop&quot;))</text>
</g>
<!-- 21&#45;&gt;23 -->
<g id="edge24" class="edge">
<title>21&#45;&gt;23</title>
<path fill="none" stroke="black" d="M2241.75,-145.55C2287.54,-134.02 2349.89,-118.32 2395.94,-106.73"/>
<polygon fill="black" stroke="black" points="2396.67,-110.15 2405.52,-104.31 2394.96,-103.36 2396.67,-110.15"/>
</g>
<!-- 47 -->
<g id="node48" class="node">
<title>47</title>
<ellipse fill="none" stroke="black" cx="1624.4" cy="-18" rx="832.88" ry="18"/>
<text text-anchor="middle" x="1624.4" y="-12.95" font-family="Times New Roman,serif" font-size="14.00">Hand/Eye Coordination: This gun &#45;&#45; Sunrise, Parabellum &#45;&#45; will be the only thing standing between you and the all&#45;consuming nothingness that threatens to eat the world. Sheathe it and wait, Herald. It won&#39;t be long now.</text>
</g>
<!-- 22&#45;&gt;47 -->
<g id="edge25" class="edge">
<title>22&#45;&gt;47</title>
<path fill="none" stroke="black" d="M1851.73,-76.24C1810.61,-65.89 1751.88,-51.1 1704.42,-39.15"/>
<polygon fill="black" stroke="black" points="1705.57,-35.83 1695.02,-36.78 1703.86,-42.62 1705.57,-35.83"/>
</g>
<!-- 23&#45;&gt;2 -->
<g id="edge26" class="edge">
<title>23&#45;&gt;2</title>
<path fill="none" stroke="black" d="M2487.87,-74.15C2507.05,-64.5 2532.39,-51.74 2553.87,-40.92"/>
<polygon fill="black" stroke="black" points="2555.35,-44.09 2562.71,-36.47 2552.2,-37.84 2555.35,-44.09"/>
</g>
<!-- 24 -->
<g id="node25" class="node">
<title>24</title>
<ellipse fill="none" stroke="black" cx="1269.4" cy="-1098" rx="105.09" ry="18"/>
<text text-anchor="middle" x="1269.4" y="-1092.95" font-family="Times New Roman,serif" font-size="14.00">IsTHCPresent(&quot;art_cop&quot;)</text>
</g>
<!-- 25 -->
<g id="node26" class="node">
<title>25</title>
<polygon fill="none" stroke="black" points="1122.4,-1044 973.77,-1026 1122.4,-1008 1271.02,-1026 1122.4,-1044"/>
<text text-anchor="middle" x="1122.4" y="-1020.95" font-family="Times New Roman,serif" font-size="14.00">IsTHCPresent(&quot;art_cop&quot;)</text>
</g>
<!-- 24&#45;&gt;25 -->
<g id="edge27" class="edge">
<title>24&#45;&gt;25</title>
<path fill="none" stroke="black" d="M1234.93,-1080.59C1213.1,-1070.19 1184.8,-1056.71 1162.04,-1045.88"/>
<polygon fill="black" stroke="black" points="1163.59,-1042.74 1153.05,-1041.6 1160.58,-1049.06 1163.59,-1042.74"/>
</g>
<!-- 26 -->
<g id="node27" class="node">
<title>26</title>
<polygon fill="none" stroke="black" points="1721.4,-1044 1559.75,-1026 1721.4,-1008 1883.05,-1026 1721.4,-1044"/>
<text text-anchor="middle" x="1721.4" y="-1020.95" font-family="Times New Roman,serif" font-size="14.00">!(IsTHCPresent(&quot;art_cop&quot;))</text>
</g>
<!-- 24&#45;&gt;26 -->
<g id="edge28" class="edge">
<title>24&#45;&gt;26</title>
<path fill="none" stroke="black" d="M1345.56,-1085.2C1428.79,-1072.32 1561.35,-1051.79 1644.76,-1038.87"/>
<polygon fill="black" stroke="black" points="1645.1,-1042.36 1654.45,-1037.37 1644.03,-1035.44 1645.1,-1042.36"/>
</g>
<!-- 49 -->
<g id="node50" class="node">
<title>49</title>
<ellipse fill="none" stroke="black" cx="986.4" cy="-954" rx="724.38" ry="18"/>
<text text-anchor="middle" x="986.4" y="-948.95" font-family="Times New Roman,serif" font-size="14.00">Hand/Eye Coordination: The gun &#45;&#45; your gun &#45;&#45; can be an item of destruction, but *also* creation. The Villiers&#45;LaSalle Art Project. Time to shoot some beauty through the heart of Martinaise.</text>
</g>
<!-- 25&#45;&gt;49 -->
<g id="edge29" class="edge">
<title>25&#45;&gt;49</title>
<path fill="none" stroke="black" d="M1094.87,-1010.83C1076.33,-1001.29 1051.47,-988.5 1030.23,-977.56"/>
<polygon fill="black" stroke="black" points="1031.98,-974.53 1021.48,-973.06 1028.77,-980.75 1031.98,-974.53"/>
</g>
<!-- 26&#45;&gt;11 -->
<g id="edge30" class="edge">
<title>26&#45;&gt;11</title>
<path fill="none" stroke="black" d="M1749.25,-1010.67C1768.08,-1000.97 1793.31,-987.98 1814.67,-976.99"/>
<polygon fill="black" stroke="black" points="1816.16,-980.16 1823.45,-972.47 1812.96,-973.94 1816.16,-980.16"/>
</g>
<!-- 28 -->
<g id="node29" class="node">
<title>28</title>
<polygon fill="none" stroke="black" points="746.4,-1188 587.64,-1170 746.4,-1152 905.15,-1170 746.4,-1188"/>
<text text-anchor="middle" x="746.4" y="-1164.95" font-family="Times New Roman,serif" font-size="14.00">IsTHCPresent(&quot;boiadeiro&quot;)</text>
</g>
<!-- 27&#45;&gt;28 -->
<g id="edge31" class="edge">
<title>27&#45;&gt;28</title>
<path fill="none" stroke="black" d="M952.19,-1225.98C908.2,-1214.23 847.3,-1197.96 803.17,-1186.17"/>
<polygon fill="black" stroke="black" points="804.08,-1182.79 793.51,-1183.59 802.27,-1189.55 804.08,-1182.79"/>
</g>
<!-- 29 -->
<g id="node30" class="node">
<title>29</title>
<polygon fill="none" stroke="black" points="1182.4,-1188 1010.61,-1170 1182.4,-1152 1354.18,-1170 1182.4,-1188"/>
<text text-anchor="middle" x="1182.4" y="-1164.95" font-family="Times New Roman,serif" font-size="14.00">!(IsTHCPresent(&quot;boiadeiro&quot;))</text>
</g>
<!-- 27&#45;&gt;29 -->
<g id="edge32" class="edge">
<title>27&#45;&gt;29</title>
<path fill="none" stroke="black" d="M1048.75,-1224.76C1075.34,-1214.07 1110.18,-1200.05 1137.62,-1189.01"/>
<polygon fill="black" stroke="black" points="1138.75,-1192.33 1146.72,-1185.35 1136.13,-1185.84 1138.75,-1192.33"/>
</g>
<!-- 46 -->
<g id="node47" class="node">
<title>46</title>
<ellipse fill="none" stroke="black" cx="573.4" cy="-1098" rx="573.4" ry="18"/>
<text text-anchor="middle" x="573.4" y="-1092.95" font-family="Times New Roman,serif" font-size="14.00">Hand/Eye Coordination: The pig iron&#39;s yours, boss. You should blaze one right now to celebrate... and then shoot some cans or chickens or something.</text>
</g>
<!-- 28&#45;&gt;46 -->
<g id="edge33" class="edge">
<title>28&#45;&gt;46</title>
<path fill="none" stroke="black" d="M712.63,-1155.34C688.21,-1145.46 654.74,-1131.91 626.73,-1120.58"/>
<polygon fill="black" stroke="black" points="628.28,-1117.43 617.69,-1116.92 625.65,-1123.92 628.28,-1117.43"/>
</g>
<!-- 29&#45;&gt;24 -->
<g id="edge34" class="edge">
<title>29&#45;&gt;24</title>
<path fill="none" stroke="black" d="M1201.27,-1153.81C1212.45,-1144.82 1226.87,-1133.22 1239.56,-1123.01"/>
<polygon fill="black" stroke="black" points="1241.64,-1125.82 1247.24,-1116.83 1237.26,-1120.37 1241.64,-1125.82"/>
</g>
<!-- 30 -->
<g id="node31" class="node">
<title>30</title>
<ellipse fill="none" stroke="black" cx="3413.4" cy="-234" rx="960.32" ry="18"/>
<text text-anchor="middle" x="3413.4" y="-228.95" font-family="Times New Roman,serif" font-size="14.00">Hand/Eye Coordination: This is your gun and in the world of unarmed civilians a man with a gun is king. But in a wholesome and life&#45;affirming way. You just keep the wheels of the world spinning and maybe there&#39;s some money to be made on the side?</text>
</g>
<!-- 31 -->
<g id="node32" class="node">
<title>31</title>
<ellipse fill="none" stroke="black" cx="1759.4" cy="-306" rx="119.42" ry="18"/>
<text text-anchor="middle" x="1759.4" y="-300.95" font-family="Times New Roman,serif" font-size="14.00">IsTHCPresent(&quot;boring_cop&quot;)</text>
</g>
<!-- 32 -->
<g id="node33" class="node">
<title>32</title>
<polygon fill="none" stroke="black" points="1575.4,-252 1406.51,-234 1575.4,-216 1744.28,-234 1575.4,-252"/>
<text text-anchor="middle" x="1575.4" y="-228.95" font-family="Times New Roman,serif" font-size="14.00">IsTHCPresent(&quot;boring_cop&quot;)</text>
</g>
<!-- 31&#45;&gt;32 -->
<g id="edge35" class="edge">
<title>31&#45;&gt;32</title>
<path fill="none" stroke="black" d="M1716.72,-288.76C1688.29,-277.95 1650.94,-263.74 1621.78,-252.64"/>
<polygon fill="black" stroke="black" points="1623.04,-249.38 1612.45,-249.1 1620.55,-255.92 1623.04,-249.38"/>
</g>
<!-- 33 -->
<g id="node34" class="node">
<title>33</title>
<polygon fill="none" stroke="black" points="2062.4,-252 1880.48,-234 2062.4,-216 2244.31,-234 2062.4,-252"/>
<text text-anchor="middle" x="2062.4" y="-228.95" font-family="Times New Roman,serif" font-size="14.00">!(IsTHCPresent(&quot;boring_cop&quot;))</text>
</g>
<!-- 31&#45;&gt;33 -->
<g id="edge36" class="edge">
<title>31&#45;&gt;33</title>
<path fill="none" stroke="black" d="M1822.91,-290.33C1874.49,-278.41 1946.88,-261.69 1998.54,-249.75"/>
<polygon fill="black" stroke="black" points="1999.13,-253.21 2008.09,-247.55 1997.56,-246.39 1999.13,-253.21"/>
</g>
<!-- 39 -->
<g id="node40" class="node">
<title>39</title>
<ellipse fill="none" stroke="black" cx="1339.4" cy="-162" rx="686.51" ry="18"/>
<text text-anchor="middle" x="1339.4" y="-156.95" font-family="Times New Roman,serif" font-size="14.00">Hand/Eye Coordination: Sheathe your sidearm, officer. A serious law official &#45;&#45; cop&#45;by&#45;the&#45;book &#45;&#45; should know to only unholster their service weapon when using it is unavoidable.</text>
</g>
<!-- 32&#45;&gt;39 -->
<g id="edge37" class="edge">
<title>32&#45;&gt;39</title>
<path fill="none" stroke="black" d="M1532.11,-220.16C1497.69,-209.95 1448.86,-195.47 1408.96,-183.63"/>
<polygon fill="black" stroke="black" points="1410,-180.29 1399.42,-180.8 1408.01,-187 1410,-180.29"/>
</g>
<!-- 33&#45;&gt;21 -->
<g id="edge38" class="edge">
<title>33&#45;&gt;21</title>
<path fill="none" stroke="black" d="M2087.42,-218.15C2103.22,-208.78 2123.94,-196.49 2141.81,-185.89"/>
<polygon fill="black" stroke="black" points="2143.55,-188.92 2150.37,-180.81 2139.98,-182.9 2143.55,-188.92"/>
</g>
<!-- 35 -->
<g id="node36" class="node">
<title>35</title>
<polygon fill="none" stroke="black" points="2140.4,-756 1978.75,-738 2140.4,-720 2302.05,-738 2140.4,-756"/>
<text text-anchor="middle" x="2140.4" y="-732.95" font-family="Times New Roman,serif" font-size="14.00">IsTHCPresent(&quot;sorry_cop&quot;)</text>
</g>
<!-- 34&#45;&gt;35 -->
<g id="edge39" class="edge">
<title>34&#45;&gt;35</title>
<path fill="none" stroke="black" d="M2140.4,-791.7C2140.4,-784.41 2140.4,-775.73 2140.4,-767.54"/>
<polygon fill="black" stroke="black" points="2143.9,-767.62 2140.4,-757.62 2136.9,-767.62 2143.9,-767.62"/>
</g>
<!-- 36 -->
<g id="node37" class="node">
<title>36</title>
<polygon fill="none" stroke="black" points="2758.4,-756 2583.72,-738 2758.4,-720 2933.07,-738 2758.4,-756"/>
<text text-anchor="middle" x="2758.4" y="-732.95" font-family="Times New Roman,serif" font-size="14.00">!(IsTHCPresent(&quot;sorry_cop&quot;))</text>
</g>
<!-- 34&#45;&gt;36 -->
<g id="edge40" class="edge">
<title>34&#45;&gt;36</title>
<path fill="none" stroke="black" d="M2231.25,-798.71C2347.82,-785.51 2548.92,-762.73 2666.15,-749.45"/>
<polygon fill="black" stroke="black" points="2666.53,-752.93 2676.07,-748.32 2665.74,-745.97 2666.53,-752.93"/>
</g>
<!-- 50 -->
<g id="node51" class="node">
<title>50</title>
<ellipse fill="none" stroke="black" cx="1949.4" cy="-666" rx="731.03" ry="18"/>
<text text-anchor="middle" x="1949.4" y="-660.95" font-family="Times New Roman,serif" font-size="14.00">Hand/Eye Coordination: This is your gun. It&#39;s angry at you for losing it. Everyone is. The least you can do is press your lips against the cold steel to apologize... and then just try to go on living.</text>
</g>
<!-- 35&#45;&gt;50 -->
<g id="edge41" class="edge">
<title>35&#45;&gt;50</title>
<path fill="none" stroke="black" d="M2104.02,-723.67C2076.7,-713.65 2038.72,-699.74 2007.25,-688.2"/>
<polygon fill="black" stroke="black" points="2008.86,-685.07 1998.27,-684.91 2006.45,-691.64 2008.86,-685.07"/>
</g>
<!-- 36&#45;&gt;17 -->
<g id="edge42" class="edge">
<title>36&#45;&gt;17</title>
<path fill="none" stroke="black" d="M2795.22,-723.5C2823.27,-713.22 2862.35,-698.9 2894.14,-687.25"/>
<polygon fill="black" stroke="black" points="2895.01,-690.66 2903.19,-683.93 2892.6,-684.09 2895.01,-690.66"/>
</g>
<!-- 48 -->
<g id="node49" class="node">
<title>48</title>
<ellipse fill="none" stroke="black" cx="1433.4" cy="-450" rx="164.46" ry="18"/>
<text text-anchor="middle" x="1433.4" y="-444.95" font-family="Times New Roman,serif" font-size="14.00">You: No time for this. [Discard thought.]</text>
</g>
<!-- 37&#45;&gt;48 -->
<g id="edge43" class="edge">
<title>37&#45;&gt;48</title>
<path fill="none" stroke="black" d="M1556.1,-503.7C1534.03,-494.22 1506.48,-482.39 1483.09,-472.34"/>
<polygon fill="black" stroke="black" points="1484.62,-469.19 1474.05,-468.46 1481.86,-475.62 1484.62,-469.19"/>
</g>
<!-- 53 -->
<g id="node54" class="node">
<title>53</title>
<ellipse fill="none" stroke="black" cx="1759.4" cy="-450" rx="143.48" ry="18"/>
<text text-anchor="middle" x="1759.4" y="-444.95" font-family="Times New Roman,serif" font-size="14.00">You: I think my hand recognizes it.</text>
</g>
<!-- 37&#45;&gt;53 -->
<g id="edge44" class="edge">
<title>37&#45;&gt;53</title>
<path fill="none" stroke="black" d="M1636.69,-503.7C1658.84,-494.18 1686.51,-482.3 1709.97,-472.23"/>
<polygon fill="black" stroke="black" points="1711.21,-475.5 1719.02,-468.34 1708.45,-469.07 1711.21,-475.5"/>
</g>
<!-- 43 -->
<g id="node44" class="node">
<title>43</title>
<polygon fill="none" stroke="black" points="3765.4,-324 3598.68,-306 3765.4,-288 3932.11,-306 3765.4,-324"/>
<text text-anchor="middle" x="3765.4" y="-300.95" font-family="Times New Roman,serif" font-size="14.00">IsTHCPresent(&quot;ultraliberal&quot;)</text>
</g>
<!-- 42&#45;&gt;43 -->
<g id="edge45" class="edge">
<title>42&#45;&gt;43</title>
<path fill="none" stroke="black" d="M4047.43,-363.09C3985.24,-350.72 3894.88,-332.75 3833.32,-320.51"/>
<polygon fill="black" stroke="black" points="3834.15,-317.1 3823.65,-318.59 3832.78,-323.97 3834.15,-317.1"/>
</g>
<!-- 44 -->
<g id="node45" class="node">
<title>44</title>
<polygon fill="none" stroke="black" points="4498.4,-324 4318.65,-306 4498.4,-288 4678.14,-306 4498.4,-324"/>
<text text-anchor="middle" x="4498.4" y="-300.95" font-family="Times New Roman,serif" font-size="14.00">!(IsTHCPresent(&quot;ultraliberal&quot;))</text>
</g>
<!-- 42&#45;&gt;44 -->
<g id="edge46" class="edge">
<title>42&#45;&gt;44</title>
<path fill="none" stroke="black" d="M4190.86,-363.5C4258.55,-351.07 4358.45,-332.71 4425.85,-320.33"/>
<polygon fill="black" stroke="black" points="4426.11,-323.84 4435.31,-318.59 4424.84,-316.96 4426.11,-323.84"/>
</g>
<!-- 43&#45;&gt;30 -->
<g id="edge47" class="edge">
<title>43&#45;&gt;30</title>
<path fill="none" stroke="black" d="M3708.45,-293.68C3655.49,-283.14 3575.47,-267.23 3512.11,-254.63"/>
<polygon fill="black" stroke="black" points="3512.86,-251.21 3502.37,-252.69 3511.5,-258.08 3512.86,-251.21"/>
</g>
<!-- 44&#45;&gt;10 -->
<g id="edge48" class="edge">
<title>44&#45;&gt;10</title>
<path fill="none" stroke="black" d="M4541.76,-291.92C4575.73,-281.67 4623.62,-267.22 4662.64,-255.44"/>
<polygon fill="black" stroke="black" points="4663.64,-258.8 4672.2,-252.56 4661.62,-252.1 4663.64,-258.8"/>
</g>
<!-- 45 -->
<g id="node46" class="node">
<title>45</title>
<ellipse fill="none" stroke="black" cx="1759.4" cy="-378" rx="692.14" ry="18"/>
<text text-anchor="middle" x="1759.4" y="-372.95" font-family="Times New Roman,serif" font-size="14.00">Hand/Eye Coordination: It reminds you of the day you first held it. With fear and respect. Hoping you don&#39;t have to use it &#45;&#45; in vain. The sun was out in Jamrock. It was so long ago...</text>
</g>
<!-- 45&#45;&gt;31 -->
<g id="edge49" class="edge">
<title>45&#45;&gt;31</title>
<path fill="none" stroke="black" d="M1759.4,-359.7C1759.4,-352.41 1759.4,-343.73 1759.4,-335.54"/>
<polygon fill="black" stroke="black" points="1762.9,-335.62 1759.4,-325.62 1755.9,-335.62 1762.9,-335.62"/>
</g>
<!-- 52 -->
<g id="node53" class="node">
<title>52</title>
<ellipse fill="none" stroke="black" cx="573.4" cy="-1026" rx="235.09" ry="18"/>
<text text-anchor="middle" x="573.4" y="-1020.95" font-family="Times New Roman,serif" font-size="14.00">Electrochemistry: Yeah, why aren&#39;t you smoking right now?</text>
</g>
<!-- 46&#45;&gt;52 -->
<g id="edge50" class="edge">
<title>46&#45;&gt;52</title>
<path fill="none" stroke="black" d="M573.4,-1079.7C573.4,-1072.41 573.4,-1063.73 573.4,-1055.54"/>
<polygon fill="black" stroke="black" points="576.9,-1055.62 573.4,-1045.62 569.9,-1055.62 576.9,-1055.62"/>
</g>
<!-- 50&#45;&gt;1 -->
<g id="edge51" class="edge">
<title>50&#45;&gt;1</title>
<path fill="none" stroke="black" d="M1919.92,-647.52C1902.15,-636.97 1879.56,-623.57 1861.65,-612.95"/>
<polygon fill="black" stroke="black" points="1863.67,-610.08 1853.28,-607.98 1860.1,-616.1 1863.67,-610.08"/>
</g>
<!-- 51&#45;&gt;20 -->
<g id="edge52" class="edge">
<title>51&#45;&gt;20</title>
<path fill="none" stroke="black" d="M2949.4,-503.7C2949.4,-496.41 2949.4,-487.73 2949.4,-479.54"/>
<polygon fill="black" stroke="black" points="2952.9,-479.62 2949.4,-469.62 2945.9,-479.62 2952.9,-479.62"/>
</g>
<!-- 53&#45;&gt;45 -->
<g id="edge53" class="edge">
<title>53&#45;&gt;45</title>
<path fill="none" stroke="black" d="M1759.4,-431.7C1759.4,-424.41 1759.4,-415.73 1759.4,-407.54"/>
<polygon fill="black" stroke="black" points="1762.9,-407.62 1759.4,-397.62 1755.9,-407.62 1762.9,-407.62"/>
</g>
</g>
</svg>
