<?xml version="1.0" encoding="UTF-8" standalone="no"?>
<!DOCTYPE svg PUBLIC "-//W3C//DTD SVG 1.1//EN"
 "http://www.w3.org/Graphics/SVG/1.1/DTD/svg11.dtd">
<!-- Generated by graphviz version 12.2.1 (20241206.2353)
 -->
<!-- Title: G Pages: 1 -->
<svg width="3071pt" height="1434pt"
 viewBox="0.00 0.00 3070.60 1433.98" xmlns="http://www.w3.org/2000/svg" xmlns:xlink="http://www.w3.org/1999/xlink">
<g id="graph0" class="graph" transform="scale(1 1) rotate(0) translate(4 1429.98)">
<title>G</title>
<polygon fill="white" stroke="none" points="-4,4 -4,-1429.98 3066.6,-1429.98 3066.6,4 -4,4"/>
<!-- 0 -->
<g id="node1" class="node">
<title>0</title>
<ellipse fill="none" stroke="black" cx="2376" cy="-1407.98" rx="39.07" ry="18"/>
<text text-anchor="middle" x="2376" y="-1402.93" font-family="Times New Roman,serif" font-size="14.00">START</text>
</g>
<!-- 0&#45;&gt;0 -->
<g id="edge1" class="edge">
<title>0&#45;&gt;0</title>
<path fill="none" stroke="black" d="M2404.19,-1420.93C2419.3,-1423.13 2433.07,-1418.81 2433.07,-1407.98 2433.07,-1399.95 2425.48,-1395.5 2415.4,-1394.64"/>
<polygon fill="black" stroke="black" points="2415.57,-1391.13 2405.7,-1394.99 2415.82,-1398.12 2415.57,-1391.13"/>
</g>
<!-- 1 -->
<g id="node2" class="node">
<title>1</title>
<ellipse fill="none" stroke="black" cx="2481" cy="-1407.98" rx="29.86" ry="18"/>
<text text-anchor="middle" x="2481" y="-1402.93" font-family="Times New Roman,serif" font-size="14.00">input</text>
</g>
<!-- 26 -->
<g id="node27" class="node">
<title>26</title>
<ellipse fill="none" stroke="black" cx="2200" cy="-1335.98" rx="368.16" ry="18"/>
<text text-anchor="middle" x="2200" y="-1330.93" font-family="Times New Roman,serif" font-size="14.00">Variable[&quot;yard.hanged_seen&quot;] == true &#160;or &#160;Variable[&quot;yard.sense_smell_rotting_corpse&quot;] == true</text>
</g>
<!-- 1&#45;&gt;26 -->
<g id="edge2" class="edge">
<title>1&#45;&gt;26</title>
<path fill="none" stroke="black" d="M2458.19,-1396.15C2452.95,-1393.91 2447.34,-1391.71 2442,-1389.98 2399.09,-1376.08 2350.72,-1364.67 2308.57,-1356.05"/>
<polygon fill="black" stroke="black" points="2309.4,-1352.65 2298.91,-1354.1 2308.02,-1359.51 2309.4,-1352.65"/>
</g>
<!-- 2 -->
<g id="node3" class="node">
<title>2</title>
<ellipse fill="none" stroke="black" cx="2191" cy="-18" rx="251.98" ry="18"/>
<text text-anchor="middle" x="2191" y="-12.95" font-family="Times New Roman,serif" font-size="14.00">Kim Kitsuragi: &quot;Eyes up, detective. Something&#39;s not right here.&quot;</text>
</g>
<!-- 3 -->
<g id="node4" class="node">
<title>3</title>
<ellipse fill="none" stroke="black" cx="1905" cy="-604.99" rx="300.6" ry="18"/>
<text text-anchor="middle" x="1905" y="-599.94" font-family="Times New Roman,serif" font-size="14.00">Kim Kitsuragi: The lieutenant has already brought a handkerchief to his nose.</text>
</g>
<!-- 4 -->
<g id="node5" class="node">
<title>4</title>
<ellipse fill="none" stroke="black" cx="1128" cy="-1191.98" rx="208.48" ry="18"/>
<text text-anchor="middle" x="1128" y="-1186.93" font-family="Times New Roman,serif" font-size="14.00">Endurance: Keep it in now. Don&#39;t overreact. Breathe.</text>
</g>
<!-- 38 -->
<g id="node39" class="node">
<title>38</title>
<ellipse fill="none" stroke="black" cx="405" cy="-759.98" rx="71.82" ry="18"/>
<text text-anchor="middle" x="405" y="-754.93" font-family="Times New Roman,serif" font-size="14.00">You: What is it?</text>
</g>
<!-- 4&#45;&gt;38 -->
<g id="edge3" class="edge">
<title>4&#45;&gt;38</title>
<path fill="none" stroke="black" d="M930.87,-1185.86C607.53,-1174.8 0,-1141.69 0,-1048.98 0,-1048.98 0,-1048.98 0,-902.98 0,-833.4 215.59,-789.76 332.18,-771.25"/>
<polygon fill="black" stroke="black" points="332.65,-774.72 341.99,-769.72 331.57,-767.8 332.65,-774.72"/>
</g>
<!-- 39 -->
<g id="node40" class="node">
<title>39</title>
<ellipse fill="none" stroke="black" cx="1372" cy="-1119.98" rx="131.71" ry="18"/>
<text text-anchor="middle" x="1372" y="-1114.93" font-family="Times New Roman,serif" font-size="14.00">You: Isn&#39;t it just the rotting fish?</text>
</g>
<!-- 4&#45;&gt;39 -->
<g id="edge4" class="edge">
<title>4&#45;&gt;39</title>
<path fill="none" stroke="black" d="M1186.13,-1174.3C1222.31,-1163.93 1268.93,-1150.55 1306.42,-1139.8"/>
<polygon fill="black" stroke="black" points="1307.14,-1143.23 1315.79,-1137.11 1305.21,-1136.5 1307.14,-1143.23"/>
</g>
<!-- 5 -->
<g id="node6" class="node">
<title>5</title>
<ellipse fill="none" stroke="black" cx="1763" cy="-903.98" rx="217.69" ry="18"/>
<text text-anchor="middle" x="1763" y="-898.93" font-family="Times New Roman,serif" font-size="14.00">Perception (Smell): The smell... It&#39;s awful and familiar.</text>
</g>
<!-- 32 -->
<g id="node33" class="node">
<title>32</title>
<ellipse fill="none" stroke="black" cx="1905" cy="-831.98" rx="57.49" ry="18"/>
<text text-anchor="middle" x="1905" y="-826.93" font-family="Times New Roman,serif" font-size="14.00">Untitled hub</text>
</g>
<!-- 5&#45;&gt;32 -->
<g id="edge5" class="edge">
<title>5&#45;&gt;32</title>
<path fill="none" stroke="black" d="M1797.74,-885.86C1817.97,-875.89 1843.56,-863.27 1864.68,-852.86"/>
<polygon fill="black" stroke="black" points="1866.17,-856.03 1873.59,-848.47 1863.08,-849.75 1866.17,-856.03"/>
</g>
<!-- 6 -->
<g id="node7" class="node">
<title>6</title>
<ellipse fill="none" stroke="black" cx="226" cy="-903.98" rx="198.24" ry="18"/>
<text text-anchor="middle" x="226" y="-898.93" font-family="Times New Roman,serif" font-size="14.00">Perception (Smell): No, it&#39;s much worse than that.</text>
</g>
<!-- 20 -->
<g id="node21" class="node">
<title>20</title>
<ellipse fill="none" stroke="black" cx="585" cy="-831.98" rx="75.41" ry="18"/>
<text text-anchor="middle" x="585" y="-826.93" font-family="Times New Roman,serif" font-size="14.00">Untitled hub (02)</text>
</g>
<!-- 6&#45;&gt;20 -->
<g id="edge6" class="edge">
<title>6&#45;&gt;20</title>
<path fill="none" stroke="black" d="M307.01,-887.19C370.25,-874.86 457.11,-857.92 516.82,-846.28"/>
<polygon fill="black" stroke="black" points="517.38,-849.73 526.53,-844.38 516.04,-842.86 517.38,-849.73"/>
</g>
<!-- 7 -->
<g id="node8" class="node">
<title>7</title>
<ellipse fill="none" stroke="black" cx="713" cy="-450" rx="239.18" ry="18"/>
<text text-anchor="middle" x="713" y="-444.95" font-family="Times New Roman,serif" font-size="14.00">Variable[&quot;yard.hanged_copporooni_copo_messinian_sound&quot;]</text>
</g>
<!-- 8 -->
<g id="node9" class="node">
<title>8</title>
<polygon fill="none" stroke="black" points="1421,-396 1082.74,-378 1421,-360 1759.26,-378 1421,-396"/>
<text text-anchor="middle" x="1421" y="-372.95" font-family="Times New Roman,serif" font-size="14.00">Variable[&quot;yard.hanged_copporooni_copo_messinian_sound&quot;]</text>
</g>
<!-- 7&#45;&gt;8 -->
<g id="edge7" class="edge">
<title>7&#45;&gt;8</title>
<path fill="none" stroke="black" d="M853.72,-435.09C982.29,-422.38 1170.68,-403.75 1294.55,-391.5"/>
<polygon fill="black" stroke="black" points="1294.85,-394.99 1304.46,-390.52 1294.16,-388.02 1294.85,-394.99"/>
</g>
<!-- 9 -->
<g id="node10" class="node">
<title>9</title>
<polygon fill="none" stroke="black" points="713,-396 361.71,-378 713,-360 1064.29,-378 713,-396"/>
<text text-anchor="middle" x="713" y="-372.95" font-family="Times New Roman,serif" font-size="14.00">!(Variable[&quot;yard.hanged_copporooni_copo_messinian_sound&quot;])</text>
</g>
<!-- 7&#45;&gt;9 -->
<g id="edge8" class="edge">
<title>7&#45;&gt;9</title>
<path fill="none" stroke="black" d="M713,-431.7C713,-424.41 713,-415.73 713,-407.54"/>
<polygon fill="black" stroke="black" points="716.5,-407.62 713,-397.62 709.5,-407.62 716.5,-407.62"/>
</g>
<!-- 41 -->
<g id="node42" class="node">
<title>41</title>
<ellipse fill="none" stroke="black" cx="1421" cy="-306" rx="129.15" ry="18"/>
<text text-anchor="middle" x="1421" y="-300.95" font-family="Times New Roman,serif" font-size="14.00">Logic: It *is* death. It must be.</text>
</g>
<!-- 8&#45;&gt;41 -->
<g id="edge9" class="edge">
<title>8&#45;&gt;41</title>
<path fill="none" stroke="black" d="M1421,-359.7C1421,-352.41 1421,-343.73 1421,-335.54"/>
<polygon fill="black" stroke="black" points="1424.5,-335.62 1421,-325.62 1417.5,-335.62 1424.5,-335.62"/>
</g>
<!-- 18 -->
<g id="node19" class="node">
<title>18</title>
<ellipse fill="none" stroke="black" cx="756" cy="-306" rx="475.64" ry="18"/>
<text text-anchor="middle" x="756" y="-300.95" font-family="Times New Roman,serif" font-size="14.00">Encyclopedia: The signs of decaying meat. It announces itself from two dozen metres away. A warning, a *memento mori*.</text>
</g>
<!-- 9&#45;&gt;18 -->
<g id="edge10" class="edge">
<title>9&#45;&gt;18</title>
<path fill="none" stroke="black" d="M723.41,-360.05C728.2,-352.26 734,-342.82 739.37,-334.08"/>
<polygon fill="black" stroke="black" points="742.34,-335.92 744.6,-325.56 736.38,-332.25 742.34,-335.92"/>
</g>
<!-- 10 -->
<g id="node11" class="node">
<title>10</title>
<ellipse fill="none" stroke="black" cx="1421" cy="-234" rx="58.52" ry="18"/>
<text text-anchor="middle" x="1421" y="-228.95" font-family="Times New Roman,serif" font-size="14.00">IsKimHere()</text>
</g>
<!-- 11 -->
<g id="node12" class="node">
<title>11</title>
<polygon fill="none" stroke="black" points="2191,-180 2108.24,-162 2191,-144 2273.76,-162 2191,-180"/>
<text text-anchor="middle" x="2191" y="-156.95" font-family="Times New Roman,serif" font-size="14.00">IsKimHere()</text>
</g>
<!-- 10&#45;&gt;11 -->
<g id="edge11" class="edge">
<title>10&#45;&gt;11</title>
<path fill="none" stroke="black" d="M1476.69,-227.94C1614.81,-215.38 1972.83,-182.83 2123.06,-169.18"/>
<polygon fill="black" stroke="black" points="2123.22,-172.68 2132.86,-168.29 2122.59,-165.7 2123.22,-172.68"/>
</g>
<!-- 12 -->
<g id="node13" class="node">
<title>12</title>
<polygon fill="none" stroke="black" points="1421,-180 1325.22,-162 1421,-144 1516.78,-162 1421,-180"/>
<text text-anchor="middle" x="1421" y="-156.95" font-family="Times New Roman,serif" font-size="14.00">!(IsKimHere())</text>
</g>
<!-- 10&#45;&gt;12 -->
<g id="edge12" class="edge">
<title>10&#45;&gt;12</title>
<path fill="none" stroke="black" d="M1421,-215.7C1421,-208.41 1421,-199.73 1421,-191.54"/>
<polygon fill="black" stroke="black" points="1424.5,-191.62 1421,-181.62 1417.5,-191.62 1424.5,-191.62"/>
</g>
<!-- 22 -->
<g id="node23" class="node">
<title>22</title>
<ellipse fill="none" stroke="black" cx="2191" cy="-90" rx="221.78" ry="18"/>
<text text-anchor="middle" x="2191" y="-84.95" font-family="Times New Roman,serif" font-size="14.00">You: &quot;Heads up, lieutenant. Something&#39;s not right here.&quot;</text>
</g>
<!-- 11&#45;&gt;22 -->
<g id="edge13" class="edge">
<title>11&#45;&gt;22</title>
<path fill="none" stroke="black" d="M2191,-143.7C2191,-136.41 2191,-127.73 2191,-119.54"/>
<polygon fill="black" stroke="black" points="2194.5,-119.62 2191,-109.62 2187.5,-119.62 2194.5,-119.62"/>
</g>
<!-- 23 -->
<g id="node24" class="node">
<title>23</title>
<ellipse fill="none" stroke="black" cx="2583" cy="-90" rx="128.12" ry="18"/>
<text text-anchor="middle" x="2583" y="-84.95" font-family="Times New Roman,serif" font-size="14.00">You: &quot;Kim, what&#39;s that smell?&quot;</text>
</g>
<!-- 11&#45;&gt;23 -->
<g id="edge14" class="edge">
<title>11&#45;&gt;23</title>
<path fill="none" stroke="black" d="M2235.21,-153.11C2297.93,-141.91 2414.1,-121.16 2494.83,-106.74"/>
<polygon fill="black" stroke="black" points="2495.26,-110.22 2504.49,-105.02 2494.03,-103.33 2495.26,-110.22"/>
</g>
<!-- 13 -->
<g id="node14" class="node">
<title>13</title>
<ellipse fill="none" stroke="black" cx="1114" cy="-90" rx="124.54" ry="18"/>
<text text-anchor="middle" x="1114" y="-84.95" font-family="Times New Roman,serif" font-size="14.00">You: It&#39;s a dead corpse isn&#39;t it?</text>
</g>
<!-- 12&#45;&gt;13 -->
<g id="edge15" class="edge">
<title>12&#45;&gt;13</title>
<path fill="none" stroke="black" d="M1378.96,-151.41C1330.34,-140.33 1249.35,-121.86 1189.68,-108.26"/>
<polygon fill="black" stroke="black" points="1190.81,-104.92 1180.28,-106.11 1189.25,-111.75 1190.81,-104.92"/>
</g>
<!-- 30 -->
<g id="node31" class="node">
<title>30</title>
<ellipse fill="none" stroke="black" cx="1421" cy="-90" rx="81.04" ry="18"/>
<text text-anchor="middle" x="1421" y="-84.95" font-family="Times New Roman,serif" font-size="14.00">You: Goddamnit...</text>
</g>
<!-- 12&#45;&gt;30 -->
<g id="edge16" class="edge">
<title>12&#45;&gt;30</title>
<path fill="none" stroke="black" d="M1421,-143.7C1421,-136.41 1421,-127.73 1421,-119.54"/>
<polygon fill="black" stroke="black" points="1424.5,-119.62 1421,-109.62 1417.5,-119.62 1424.5,-119.62"/>
</g>
<!-- 31 -->
<g id="node32" class="node">
<title>31</title>
<ellipse fill="none" stroke="black" cx="1637" cy="-90" rx="117.37" ry="18"/>
<text text-anchor="middle" x="1637" y="-84.95" font-family="Times New Roman,serif" font-size="14.00">You: I don&#39;t want to be here.</text>
</g>
<!-- 12&#45;&gt;31 -->
<g id="edge17" class="edge">
<title>12&#45;&gt;31</title>
<path fill="none" stroke="black" d="M1454.75,-150.06C1487.5,-139.45 1537.92,-123.11 1577.43,-110.31"/>
<polygon fill="black" stroke="black" points="1578.38,-113.68 1586.82,-107.26 1576.22,-107.02 1578.38,-113.68"/>
</g>
<!-- 29 -->
<g id="node30" class="node">
<title>29</title>
<ellipse fill="none" stroke="black" cx="1032" cy="-18" rx="302.65" ry="18"/>
<text text-anchor="middle" x="1032" y="-12.95" font-family="Times New Roman,serif" font-size="14.00">Perception (Smell): Yes. A sense of dread washes over you as you look ahead.</text>
</g>
<!-- 13&#45;&gt;29 -->
<g id="edge18" class="edge">
<title>13&#45;&gt;29</title>
<path fill="none" stroke="black" d="M1094.15,-72.05C1084.13,-63.5 1071.78,-52.96 1060.74,-43.54"/>
<polygon fill="black" stroke="black" points="1063.27,-41.09 1053.39,-37.26 1058.72,-46.41 1063.27,-41.09"/>
</g>
<!-- 14 -->
<g id="node15" class="node">
<title>14</title>
<ellipse fill="none" stroke="black" cx="585" cy="-903.98" rx="142.45" ry="18"/>
<text text-anchor="middle" x="585" y="-898.93" font-family="Times New Roman,serif" font-size="14.00">Perception (Smell): Don&#39;t be naive.</text>
</g>
<!-- 14&#45;&gt;20 -->
<g id="edge19" class="edge">
<title>14&#45;&gt;20</title>
<path fill="none" stroke="black" d="M585,-885.68C585,-878.39 585,-869.71 585,-861.52"/>
<polygon fill="black" stroke="black" points="588.5,-861.6 585,-851.6 581.5,-861.6 588.5,-861.6"/>
</g>
<!-- 15 -->
<g id="node16" class="node">
<title>15</title>
<ellipse fill="none" stroke="black" cx="1905" cy="-759.98" rx="197.22" ry="18"/>
<text text-anchor="middle" x="1905" y="-754.93" font-family="Times New Roman,serif" font-size="14.00">You: Hold on, that *is* awful. (Cover your nose.)</text>
</g>
<!-- 36 -->
<g id="node37" class="node">
<title>36</title>
<ellipse fill="none" stroke="black" cx="1905" cy="-687.98" rx="223.32" ry="18"/>
<text text-anchor="middle" x="1905" y="-682.93" font-family="Times New Roman,serif" font-size="14.00">Perception (Smell): It doesn&#39;t help. You can still smell it.</text>
</g>
<!-- 15&#45;&gt;36 -->
<g id="edge20" class="edge">
<title>15&#45;&gt;36</title>
<path fill="none" stroke="black" d="M1905,-741.68C1905,-734.39 1905,-725.71 1905,-717.52"/>
<polygon fill="black" stroke="black" points="1908.5,-717.6 1905,-707.6 1901.5,-717.6 1908.5,-717.6"/>
</g>
<!-- 16 -->
<g id="node17" class="node">
<title>16</title>
<ellipse fill="none" stroke="black" cx="712" cy="-687.98" rx="274.5" ry="18"/>
<text text-anchor="middle" x="712" y="-682.93" font-family="Times New Roman,serif" font-size="14.00">Jump to: [Perception (Smell): &quot;You&#39;ve never smelled anything this...&quot;]</text>
</g>
<!-- 17 -->
<g id="node18" class="node">
<title>17</title>
<ellipse fill="none" stroke="black" cx="712" cy="-604.99" rx="600.51" ry="28.99"/>
<text text-anchor="middle" x="712" y="-608.19" font-family="Times New Roman,serif" font-size="14.00">Perception (Smell): You&#39;ve never smelled anything this bad before. It&#39;s pungent, but with a faintly cloying sweetness like cheap perfume on Death itself.</text>
<text text-anchor="middle" x="712" y="-591.69" font-family="Times New Roman,serif" font-size="14.00">Don&#39;t you recognize it? That hideous pungency, that faintly cloying sweetness? Only death smells like that.</text>
</g>
<!-- 16&#45;&gt;17 -->
<g id="edge21" class="edge">
<title>16&#45;&gt;17</title>
<path fill="none" stroke="black" d="M712,-669.81C712,-662.72 712,-654.19 712,-645.7"/>
<polygon fill="black" stroke="black" points="715.5,-645.81 712,-635.81 708.5,-645.81 715.5,-645.81"/>
</g>
<!-- 19 -->
<g id="node20" class="node">
<title>19</title>
<ellipse fill="none" stroke="black" cx="713" cy="-522" rx="260.17" ry="18"/>
<text text-anchor="middle" x="713" y="-516.95" font-family="Times New Roman,serif" font-size="14.00">Half Light: Something cold wakes in the pit of your stomach: fear.</text>
</g>
<!-- 17&#45;&gt;19 -->
<g id="edge22" class="edge">
<title>17&#45;&gt;19</title>
<path fill="none" stroke="black" d="M712.35,-575.66C712.45,-567.79 712.55,-559.24 712.65,-551.36"/>
<polygon fill="black" stroke="black" points="716.15,-551.65 712.77,-541.61 709.15,-551.57 716.15,-551.65"/>
</g>
<!-- 18&#45;&gt;10 -->
<g id="edge23" class="edge">
<title>18&#45;&gt;10</title>
<path fill="none" stroke="black" d="M912.33,-288.54C1052.82,-273.76 1252.29,-252.76 1354.7,-241.98"/>
<polygon fill="black" stroke="black" points="1355.01,-245.47 1364.59,-240.94 1354.28,-238.5 1355.01,-245.47"/>
</g>
<!-- 19&#45;&gt;7 -->
<g id="edge24" class="edge">
<title>19&#45;&gt;7</title>
<path fill="none" stroke="black" d="M713,-503.7C713,-496.41 713,-487.73 713,-479.54"/>
<polygon fill="black" stroke="black" points="716.5,-479.62 713,-469.62 709.5,-479.62 716.5,-479.62"/>
</g>
<!-- 21 -->
<g id="node22" class="node">
<title>21</title>
<ellipse fill="none" stroke="black" cx="585" cy="-759.98" rx="90.25" ry="18"/>
<text text-anchor="middle" x="585" y="-754.93" font-family="Times New Roman,serif" font-size="14.00">You: What is it then?</text>
</g>
<!-- 20&#45;&gt;21 -->
<g id="edge26" class="edge">
<title>20&#45;&gt;21</title>
<path fill="none" stroke="black" d="M585,-813.68C585,-806.39 585,-797.71 585,-789.52"/>
<polygon fill="black" stroke="black" points="588.5,-789.6 585,-779.6 581.5,-789.6 588.5,-789.6"/>
</g>
<!-- 25 -->
<g id="node26" class="node">
<title>25</title>
<ellipse fill="none" stroke="black" cx="755" cy="-759.98" rx="62.1" ry="18"/>
<text text-anchor="middle" x="755" y="-754.93" font-family="Times New Roman,serif" font-size="14.00">You: Oh no...</text>
</g>
<!-- 20&#45;&gt;25 -->
<g id="edge25" class="edge">
<title>20&#45;&gt;25</title>
<path fill="none" stroke="black" d="M621.47,-815.97C647.31,-805.33 682.14,-790.98 709.76,-779.61"/>
<polygon fill="black" stroke="black" points="711.02,-782.88 718.93,-775.83 708.35,-776.41 711.02,-782.88"/>
</g>
<!-- 21&#45;&gt;16 -->
<g id="edge27" class="edge">
<title>21&#45;&gt;16</title>
<path fill="none" stroke="black" d="M614.78,-742.57C631.4,-733.41 652.37,-721.85 670.57,-711.82"/>
<polygon fill="black" stroke="black" points="672.24,-714.89 679.31,-707 668.87,-708.76 672.24,-714.89"/>
</g>
<!-- 22&#45;&gt;2 -->
<g id="edge28" class="edge">
<title>22&#45;&gt;2</title>
<path fill="none" stroke="black" d="M2191,-71.7C2191,-64.41 2191,-55.73 2191,-47.54"/>
<polygon fill="black" stroke="black" points="2194.5,-47.62 2191,-37.62 2187.5,-47.62 2194.5,-47.62"/>
</g>
<!-- 24 -->
<g id="node25" class="node">
<title>24</title>
<ellipse fill="none" stroke="black" cx="2762" cy="-18" rx="300.6" ry="18"/>
<text text-anchor="middle" x="2762" y="-12.95" font-family="Times New Roman,serif" font-size="14.00">Kim Kitsuragi: The lieutenant has already brought a handkerchief to his nose.</text>
</g>
<!-- 23&#45;&gt;24 -->
<g id="edge29" class="edge">
<title>23&#45;&gt;24</title>
<path fill="none" stroke="black" d="M2624.97,-72.59C2649.49,-63 2680.72,-50.79 2707.17,-40.44"/>
<polygon fill="black" stroke="black" points="2708.35,-43.74 2716.39,-36.84 2705.8,-37.22 2708.35,-43.74"/>
</g>
<!-- 24&#45;&gt;1 -->
<g id="edge30" class="edge">
<title>24&#45;&gt;1</title>
<path fill="none" stroke="black" d="M2762,-36.49C2762,-63.29 2762,-116.13 2762,-161 2762,-1264.98 2762,-1264.98 2762,-1264.98 2762,-1371.04 2600.56,-1397.9 2522.42,-1404.69"/>
<polygon fill="black" stroke="black" points="2522.27,-1401.19 2512.58,-1405.47 2522.83,-1408.17 2522.27,-1401.19"/>
</g>
<!-- 25&#45;&gt;16 -->
<g id="edge31" class="edge">
<title>25&#45;&gt;16</title>
<path fill="none" stroke="black" d="M744.59,-742.04C739.8,-734.24 734,-724.8 728.63,-716.06"/>
<polygon fill="black" stroke="black" points="731.62,-714.24 723.4,-707.55 725.66,-717.9 731.62,-714.24"/>
</g>
<!-- 27 -->
<g id="node28" class="node">
<title>27</title>
<polygon fill="none" stroke="black" points="1128,-1281.98 607.34,-1263.98 1128,-1245.98 1648.66,-1263.98 1128,-1281.98"/>
<text text-anchor="middle" x="1128" y="-1258.93" font-family="Times New Roman,serif" font-size="14.00">Variable[&quot;yard.hanged_seen&quot;] == true &#160;or &#160;Variable[&quot;yard.sense_smell_rotting_corpse&quot;] == true</text>
</g>
<!-- 26&#45;&gt;27 -->
<g id="edge32" class="edge">
<title>26&#45;&gt;27</title>
<path fill="none" stroke="black" d="M1985.32,-1320.96C1788.89,-1308.14 1501.2,-1289.35 1314.25,-1277.14"/>
<polygon fill="black" stroke="black" points="1314.64,-1273.66 1304.44,-1276.5 1314.19,-1280.65 1314.64,-1273.66"/>
</g>
<!-- 28 -->
<g id="node29" class="node">
<title>28</title>
<polygon fill="none" stroke="black" points="2200,-1281.98 1666.31,-1263.98 2200,-1245.98 2733.69,-1263.98 2200,-1281.98"/>
<text text-anchor="middle" x="2200" y="-1258.93" font-family="Times New Roman,serif" font-size="14.00">!(Variable[&quot;yard.hanged_seen&quot;] == true &#160;or &#160;Variable[&quot;yard.sense_smell_rotting_corpse&quot;] == true)</text>
</g>
<!-- 26&#45;&gt;28 -->
<g id="edge33" class="edge">
<title>26&#45;&gt;28</title>
<path fill="none" stroke="black" d="M2200,-1317.68C2200,-1310.39 2200,-1301.71 2200,-1293.52"/>
<polygon fill="black" stroke="black" points="2203.5,-1293.6 2200,-1283.6 2196.5,-1293.6 2203.5,-1293.6"/>
</g>
<!-- 27&#45;&gt;4 -->
<g id="edge34" class="edge">
<title>27&#45;&gt;4</title>
<path fill="none" stroke="black" d="M1128,-1245.68C1128,-1238.39 1128,-1229.71 1128,-1221.52"/>
<polygon fill="black" stroke="black" points="1131.5,-1221.6 1128,-1211.6 1124.5,-1221.6 1131.5,-1221.6"/>
</g>
<!-- 37 -->
<g id="node38" class="node">
<title>37</title>
<ellipse fill="none" stroke="black" cx="2214" cy="-1119.98" rx="181.86" ry="18"/>
<text text-anchor="middle" x="2214" y="-1114.93" font-family="Times New Roman,serif" font-size="14.00">Perception (Smell): What is that awful smell?</text>
</g>
<!-- 28&#45;&gt;37 -->
<g id="edge35" class="edge">
<title>28&#45;&gt;37</title>
<path fill="none" stroke="black" d="M2201.72,-1245.57C2204.08,-1221.59 2208.37,-1178.13 2211.2,-1149.4"/>
<polygon fill="black" stroke="black" points="2214.67,-1149.9 2212.16,-1139.6 2207.7,-1149.21 2214.67,-1149.9"/>
</g>
<!-- 40 -->
<g id="node41" class="node">
<title>40</title>
<ellipse fill="none" stroke="black" cx="1637" cy="-18" rx="284.22" ry="18"/>
<text text-anchor="middle" x="1637" y="-12.95" font-family="Times New Roman,serif" font-size="14.00">Perception (Smell): A sense of dread washes over you as you look ahead.</text>
</g>
<!-- 30&#45;&gt;40 -->
<g id="edge36" class="edge">
<title>30&#45;&gt;40</title>
<path fill="none" stroke="black" d="M1465.49,-74.58C1496.72,-64.46 1538.93,-50.78 1573.66,-39.53"/>
<polygon fill="black" stroke="black" points="1574.31,-43 1582.74,-36.58 1572.15,-36.34 1574.31,-43"/>
</g>
<!-- 31&#45;&gt;40 -->
<g id="edge37" class="edge">
<title>31&#45;&gt;40</title>
<path fill="none" stroke="black" d="M1637,-71.7C1637,-64.41 1637,-55.73 1637,-47.54"/>
<polygon fill="black" stroke="black" points="1640.5,-47.62 1637,-37.62 1633.5,-47.62 1640.5,-47.62"/>
</g>
<!-- 32&#45;&gt;15 -->
<g id="edge40" class="edge">
<title>32&#45;&gt;15</title>
<path fill="none" stroke="black" d="M1905,-813.68C1905,-806.39 1905,-797.71 1905,-789.52"/>
<polygon fill="black" stroke="black" points="1908.5,-789.6 1905,-779.6 1901.5,-789.6 1908.5,-789.6"/>
</g>
<!-- 32&#45;&gt;38 -->
<g id="edge39" class="edge">
<title>32&#45;&gt;38</title>
<path fill="none" stroke="black" d="M1847.45,-830.14C1616.48,-826.54 756.23,-811.14 486,-777.98 479.7,-777.21 473.15,-776.2 466.64,-775.05"/>
<polygon fill="black" stroke="black" points="467.73,-771.69 457.25,-773.29 466.44,-778.57 467.73,-771.69"/>
</g>
<!-- 32&#45;&gt;39 -->
<g id="edge38" class="edge">
<title>32&#45;&gt;39</title>
<path fill="none" stroke="black" d="M1952.73,-842.44C2044.45,-862.65 2230.64,-914.78 2164,-993.98 2082.86,-1090.42 1720.25,-1112.97 1514.96,-1117.91"/>
<polygon fill="black" stroke="black" points="1514.92,-1114.41 1505,-1118.14 1515.08,-1121.41 1514.92,-1114.41"/>
</g>
<!-- 33 -->
<g id="node34" class="node">
<title>33</title>
<ellipse fill="none" stroke="black" cx="1372" cy="-1047.98" rx="368.16" ry="18"/>
<text text-anchor="middle" x="1372" y="-1042.93" font-family="Times New Roman,serif" font-size="14.00">Variable[&quot;yard.hanged_seen&quot;] == true &#160;or &#160;Variable[&quot;yard.sense_smell_rotting_corpse&quot;] == true</text>
</g>
<!-- 34 -->
<g id="node35" class="node">
<title>34</title>
<polygon fill="none" stroke="black" points="549,-993.98 28.34,-975.98 549,-957.98 1069.66,-975.98 549,-993.98"/>
<text text-anchor="middle" x="549" y="-970.93" font-family="Times New Roman,serif" font-size="14.00">Variable[&quot;yard.hanged_seen&quot;] == true &#160;or &#160;Variable[&quot;yard.sense_smell_rotting_corpse&quot;] == true</text>
</g>
<!-- 33&#45;&gt;34 -->
<g id="edge41" class="edge">
<title>33&#45;&gt;34</title>
<path fill="none" stroke="black" d="M1193.67,-1031.82C1048.47,-1019.46 845.45,-1002.2 706.25,-990.36"/>
<polygon fill="black" stroke="black" points="706.85,-986.9 696.59,-989.54 706.26,-993.87 706.85,-986.9"/>
</g>
<!-- 35 -->
<g id="node36" class="node">
<title>35</title>
<polygon fill="none" stroke="black" points="1621,-993.98 1087.31,-975.98 1621,-957.98 2154.69,-975.98 1621,-993.98"/>
<text text-anchor="middle" x="1621" y="-970.93" font-family="Times New Roman,serif" font-size="14.00">!(Variable[&quot;yard.hanged_seen&quot;] == true &#160;or &#160;Variable[&quot;yard.sense_smell_rotting_corpse&quot;] == true)</text>
</g>
<!-- 33&#45;&gt;35 -->
<g id="edge42" class="edge">
<title>33&#45;&gt;35</title>
<path fill="none" stroke="black" d="M1433.23,-1029.77C1470.06,-1019.42 1516.95,-1006.23 1554.65,-995.63"/>
<polygon fill="black" stroke="black" points="1555.4,-999.06 1564.08,-992.99 1553.5,-992.32 1555.4,-999.06"/>
</g>
<!-- 34&#45;&gt;14 -->
<g id="edge43" class="edge">
<title>34&#45;&gt;14</title>
<path fill="none" stroke="black" d="M557.71,-958.04C561.68,-950.33 566.47,-941.01 570.93,-932.35"/>
<polygon fill="black" stroke="black" points="573.96,-934.1 575.42,-923.6 567.74,-930.9 573.96,-934.1"/>
</g>
<!-- 35&#45;&gt;5 -->
<g id="edge44" class="edge">
<title>35&#45;&gt;5</title>
<path fill="none" stroke="black" d="M1653.93,-958.75C1672.93,-949.38 1697.08,-937.48 1717.83,-927.25"/>
<polygon fill="black" stroke="black" points="1719.23,-930.46 1726.66,-922.9 1716.14,-924.18 1719.23,-930.46"/>
</g>
<!-- 36&#45;&gt;3 -->
<g id="edge45" class="edge">
<title>36&#45;&gt;3</title>
<path fill="none" stroke="black" d="M1905,-669.81C1905,-659.67 1905,-646.59 1905,-634.91"/>
<polygon fill="black" stroke="black" points="1908.5,-634.94 1905,-624.94 1901.5,-634.94 1908.5,-634.94"/>
</g>
<!-- 37&#45;&gt;32 -->
<g id="edge46" class="edge">
<title>37&#45;&gt;32</title>
<path fill="none" stroke="black" d="M2219.03,-1101.67C2230.26,-1058.94 2252.3,-947.53 2197,-885.98 2167.93,-853.63 2050.2,-840.9 1973.4,-835.98"/>
<polygon fill="black" stroke="black" points="1973.61,-832.49 1963.42,-835.37 1973.19,-839.47 1973.61,-832.49"/>
</g>
<!-- 38&#45;&gt;17 -->
<g id="edge47" class="edge">
<title>38&#45;&gt;17</title>
<path fill="none" stroke="black" d="M404.67,-741.62C405.28,-721.5 409.49,-688.71 429,-669.98 443.45,-656.11 476.23,-644.69 514.56,-635.52"/>
<polygon fill="black" stroke="black" points="515.07,-638.99 524.03,-633.34 513.5,-632.17 515.07,-638.99"/>
</g>
<!-- 39&#45;&gt;33 -->
<g id="edge48" class="edge">
<title>39&#45;&gt;33</title>
<path fill="none" stroke="black" d="M1372,-1101.68C1372,-1094.39 1372,-1085.71 1372,-1077.52"/>
<polygon fill="black" stroke="black" points="1375.5,-1077.6 1372,-1067.6 1368.5,-1077.6 1375.5,-1077.6"/>
</g>
<!-- 41&#45;&gt;10 -->
<g id="edge49" class="edge">
<title>41&#45;&gt;10</title>
<path fill="none" stroke="black" d="M1421,-287.7C1421,-280.41 1421,-271.73 1421,-263.54"/>
<polygon fill="black" stroke="black" points="1424.5,-263.62 1421,-253.62 1417.5,-263.62 1424.5,-263.62"/>
</g>
</g>
</svg>
