<?xml version="1.0" encoding="UTF-8" standalone="no"?>
<!DOCTYPE svg PUBLIC "-//W3C//DTD SVG 1.1//EN"
 "http://www.w3.org/Graphics/SVG/1.1/DTD/svg11.dtd">
<!-- Generated by graphviz version 12.2.1 (20241206.2353)
 -->
<!-- Title: G Pages: 1 -->
<svg width="6446pt" height="1340pt"
 viewBox="0.00 0.00 6446.37 1340.00" xmlns="http://www.w3.org/2000/svg" xmlns:xlink="http://www.w3.org/1999/xlink">
<g id="graph0" class="graph" transform="scale(1 1) rotate(0) translate(4 1336)">
<title>G</title>
<polygon fill="white" stroke="none" points="-4,4 -4,-1336 6442.37,-1336 6442.37,4 -4,4"/>
<!-- 0 -->
<g id="node1" class="node">
<title>0</title>
<ellipse fill="none" stroke="black" cx="663.37" cy="-1314" rx="39.07" ry="18"/>
<text text-anchor="middle" x="663.37" y="-1308.95" font-family="Times New Roman,serif" font-size="14.00">START</text>
</g>
<!-- 1 -->
<g id="node2" class="node">
<title>1</title>
<ellipse fill="none" stroke="black" cx="663.37" cy="-1242" rx="29.86" ry="18"/>
<text text-anchor="middle" x="663.37" y="-1236.95" font-family="Times New Roman,serif" font-size="14.00">input</text>
</g>
<!-- 0&#45;&gt;1 -->
<g id="edge1" class="edge">
<title>0&#45;&gt;1</title>
<path fill="none" stroke="black" d="M663.37,-1295.7C663.37,-1288.41 663.37,-1279.73 663.37,-1271.54"/>
<polygon fill="black" stroke="black" points="666.87,-1271.62 663.37,-1261.62 659.87,-1271.62 666.87,-1271.62"/>
</g>
<!-- 36 -->
<g id="node37" class="node">
<title>36</title>
<ellipse fill="none" stroke="black" cx="663.37" cy="-1170" rx="466.43" ry="18"/>
<text text-anchor="middle" x="663.37" y="-1164.95" font-family="Times New Roman,serif" font-size="14.00">Plaisance: &quot;Oh, such wonderful, beautiful stories. Stories of love!&quot; She sighs wistfully. &quot;You should definitely buy these.&quot;</text>
</g>
<!-- 1&#45;&gt;36 -->
<g id="edge2" class="edge">
<title>1&#45;&gt;36</title>
<path fill="none" stroke="black" d="M663.37,-1223.7C663.37,-1216.41 663.37,-1207.73 663.37,-1199.54"/>
<polygon fill="black" stroke="black" points="666.87,-1199.62 663.37,-1189.62 659.87,-1199.62 666.87,-1199.62"/>
</g>
<!-- 2 -->
<g id="node3" class="node">
<title>2</title>
<ellipse fill="none" stroke="black" cx="2982.37" cy="-162" rx="1089.81" ry="18"/>
<text text-anchor="middle" x="2982.37" y="-156.95" font-family="Times New Roman,serif" font-size="14.00">Shelf of Romance Stories: You&#39;d have to buy the book to be sure. But the book cover is a wall of concrete buildings, with a black&#45;and&#45;white rainbow covering them. It&#39;s written by someone from a country where even the rainbows are black&#45;and&#45;white. So it does seem like it&#39;ll be a downer.</text>
</g>
<!-- 3 -->
<g id="node4" class="node">
<title>3</title>
<ellipse fill="none" stroke="black" cx="3485.37" cy="-90" rx="84.11" ry="18"/>
<text text-anchor="middle" x="3485.37" y="-84.95" font-family="Times New Roman,serif" font-size="14.00">Jump to: [romcom]</text>
</g>
<!-- 2&#45;&gt;3 -->
<g id="edge3" class="edge">
<title>2&#45;&gt;3</title>
<path fill="none" stroke="black" d="M3107.03,-143.65C3200.26,-130.68 3324.98,-113.32 3405.26,-102.15"/>
<polygon fill="black" stroke="black" points="3405.37,-105.67 3414.79,-100.82 3404.4,-98.73 3405.37,-105.67"/>
</g>
<!-- 19 -->
<g id="node20" class="node">
<title>19</title>
<ellipse fill="none" stroke="black" cx="4303.37" cy="-18" rx="84.11" ry="18"/>
<text text-anchor="middle" x="4303.37" y="-12.95" font-family="Times New Roman,serif" font-size="14.00">Jump to: [romcom]</text>
</g>
<!-- 3&#45;&gt;19 -->
<g id="edge4" class="edge">
<title>3&#45;&gt;19</title>
<path fill="none" stroke="black" d="M3562.33,-82.41C3714.67,-69.38 4053.85,-40.35 4215.03,-26.56"/>
<polygon fill="black" stroke="black" points="4215.15,-30.06 4224.81,-25.72 4214.55,-23.09 4215.15,-30.06"/>
</g>
<!-- 4 -->
<g id="node5" class="node">
<title>4</title>
<ellipse fill="none" stroke="black" cx="3498.37" cy="-450" rx="214.11" ry="18"/>
<text text-anchor="middle" x="3498.37" y="-444.95" font-family="Times New Roman,serif" font-size="14.00">You: Does anything more real, more *you* stand out?</text>
</g>
<!-- 6 -->
<g id="node7" class="node">
<title>6</title>
<polygon fill="none" stroke="black" points="3879.37,-396 3544.01,-378 3879.37,-360 4214.73,-378 3879.37,-396"/>
<text text-anchor="middle" x="3879.37" y="-372.95" font-family="Times New Roman,serif" font-size="14.00">Variable[&quot;doomed.book_whitech_pain_threshold_romance&quot;]</text>
</g>
<!-- 4&#45;&gt;6 -->
<g id="edge5" class="edge">
<title>4&#45;&gt;6</title>
<path fill="none" stroke="black" d="M3584.83,-433.12C3647.69,-421.57 3732.35,-406.01 3794.77,-394.54"/>
<polygon fill="black" stroke="black" points="3795.08,-398.05 3804.28,-392.8 3793.81,-391.16 3795.08,-398.05"/>
</g>
<!-- 5 -->
<g id="node6" class="node">
<title>5</title>
<ellipse fill="none" stroke="black" cx="3009.37" cy="-450" rx="257.1" ry="18"/>
<text text-anchor="middle" x="3009.37" y="-444.95" font-family="Times New Roman,serif" font-size="14.00">You: Variable[&quot;doomed.book_whitech_pain_threshold_romance&quot;]</text>
</g>
<!-- 7 -->
<g id="node8" class="node">
<title>7</title>
<polygon fill="none" stroke="black" points="3177.37,-396 2828.98,-378 3177.37,-360 3525.76,-378 3177.37,-396"/>
<text text-anchor="middle" x="3177.37" y="-372.95" font-family="Times New Roman,serif" font-size="14.00">!(Variable[&quot;doomed.book_whitech_pain_threshold_romance&quot;])</text>
</g>
<!-- 5&#45;&gt;7 -->
<g id="edge7" class="edge">
<title>5&#45;&gt;7</title>
<path fill="none" stroke="black" d="M3050.47,-431.88C3074.44,-421.89 3104.78,-409.25 3129.78,-398.83"/>
<polygon fill="black" stroke="black" points="3130.86,-402.17 3138.74,-395.1 3128.16,-395.71 3130.86,-402.17"/>
</g>
<!-- 8 -->
<g id="node9" class="node">
<title>8</title>
<ellipse fill="none" stroke="black" cx="2295.37" cy="-378" rx="516.07" ry="18"/>
<text text-anchor="middle" x="2295.37" y="-372.95" font-family="Times New Roman,serif" font-size="14.00">Shelf of Romance Stories: Being a rough, *hard&#45;boiled* detective, you can only be pleased by something more real, more *authentic*.</text>
</g>
<!-- 5&#45;&gt;8 -->
<g id="edge6" class="edge">
<title>5&#45;&gt;8</title>
<path fill="none" stroke="black" d="M2864.02,-434.75C2751.43,-423.71 2594.89,-408.36 2474.55,-396.57"/>
<polygon fill="black" stroke="black" points="2475.18,-393.11 2464.89,-395.62 2474.5,-400.08 2475.18,-393.11"/>
</g>
<!-- 23 -->
<g id="node24" class="node">
<title>23</title>
<polygon fill="none" stroke="black" points="3177.37,-324 2842.01,-306 3177.37,-288 3512.73,-306 3177.37,-324"/>
<text text-anchor="middle" x="3177.37" y="-300.95" font-family="Times New Roman,serif" font-size="14.00">Variable[&quot;doomed.book_whitech_pain_threshold_romance&quot;]</text>
</g>
<!-- 6&#45;&gt;23 -->
<g id="edge8" class="edge">
<title>6&#45;&gt;23</title>
<path fill="none" stroke="black" d="M3765.41,-365.64C3638.45,-352.98 3433.83,-332.57 3302.52,-319.48"/>
<polygon fill="black" stroke="black" points="3303.03,-316.01 3292.73,-318.5 3302.33,-322.98 3303.03,-316.01"/>
</g>
<!-- 7&#45;&gt;23 -->
<g id="edge9" class="edge">
<title>7&#45;&gt;23</title>
<path fill="none" stroke="black" d="M3177.37,-359.7C3177.37,-352.41 3177.37,-343.73 3177.37,-335.54"/>
<polygon fill="black" stroke="black" points="3180.87,-335.62 3177.37,-325.62 3173.87,-335.62 3180.87,-335.62"/>
</g>
<!-- 22 -->
<g id="node23" class="node">
<title>22</title>
<ellipse fill="none" stroke="black" cx="2319.37" cy="-306" rx="337.45" ry="18"/>
<text text-anchor="middle" x="2319.37" y="-300.95" font-family="Times New Roman,serif" font-size="14.00">Shelf of Romance Stories: Variable[&quot;doomed.book_whitech_pain_threshold_romance&quot;]</text>
</g>
<!-- 8&#45;&gt;22 -->
<g id="edge10" class="edge">
<title>8&#45;&gt;22</title>
<path fill="none" stroke="black" d="M2301.3,-359.7C2303.86,-352.24 2306.92,-343.32 2309.78,-334.97"/>
<polygon fill="black" stroke="black" points="2313.08,-336.13 2313.02,-325.54 2306.46,-333.86 2313.08,-336.13"/>
</g>
<!-- 9 -->
<g id="node10" class="node">
<title>9</title>
<ellipse fill="none" stroke="black" cx="4430.37" cy="-234" rx="154.74" ry="18"/>
<text text-anchor="middle" x="4430.37" y="-228.95" font-family="Times New Roman,serif" font-size="14.00">Volition: Turn away, this is a bad idea.</text>
</g>
<!-- 13 -->
<g id="node14" class="node">
<title>13</title>
<ellipse fill="none" stroke="black" cx="4495.37" cy="-162" rx="62.61" ry="18"/>
<text text-anchor="middle" x="4495.37" y="-156.95" font-family="Times New Roman,serif" font-size="14.00">You: [Leave.]</text>
</g>
<!-- 9&#45;&gt;13 -->
<g id="edge12" class="edge">
<title>9&#45;&gt;13</title>
<path fill="none" stroke="black" d="M4446.44,-215.7C4454.19,-207.35 4463.63,-197.18 4472.14,-188.02"/>
<polygon fill="black" stroke="black" points="4474.67,-190.44 4478.91,-180.73 4469.54,-185.68 4474.67,-190.44"/>
</g>
<!-- 39 -->
<g id="node40" class="node">
<title>39</title>
<ellipse fill="none" stroke="black" cx="4271.37" cy="-162" rx="143.48" ry="18"/>
<text text-anchor="middle" x="4271.37" y="-156.95" font-family="Times New Roman,serif" font-size="14.00">You: Help, I don&#39;t want to do this...</text>
</g>
<!-- 9&#45;&gt;39 -->
<g id="edge13" class="edge">
<title>9&#45;&gt;39</title>
<path fill="none" stroke="black" d="M4392.29,-216.23C4370.54,-206.66 4343.05,-194.56 4319.78,-184.31"/>
<polygon fill="black" stroke="black" points="4321.37,-181.19 4310.81,-180.36 4318.55,-187.59 4321.37,-181.19"/>
</g>
<!-- 40 -->
<g id="node41" class="node">
<title>40</title>
<ellipse fill="none" stroke="black" cx="3959.37" cy="-594" rx="162.41" ry="18"/>
<text text-anchor="middle" x="3959.37" y="-588.95" font-family="Times New Roman,serif" font-size="14.00">You: Look through the display of books.</text>
</g>
<!-- 9&#45;&gt;40 -->
<g id="edge11" class="edge">
<title>9&#45;&gt;40</title>
<path fill="none" stroke="black" d="M4526.18,-248.38C4551.1,-256.2 4575.84,-268.55 4593.37,-288 4620.45,-318.05 4612.37,-336.55 4612.37,-377 4612.37,-451 4612.37,-451 4612.37,-451 4612.37,-549.96 4322.37,-580.09 4128.89,-589.18"/>
<polygon fill="black" stroke="black" points="4128.79,-585.68 4118.96,-589.63 4129.1,-592.67 4128.79,-585.68"/>
</g>
<!-- 10 -->
<g id="node11" class="node">
<title>10</title>
<ellipse fill="none" stroke="black" cx="1127.37" cy="-378" rx="595.92" ry="18"/>
<text text-anchor="middle" x="1127.37" y="-372.95" font-family="Times New Roman,serif" font-size="14.00">Pain Threshold: You focus on the overwhelming mass of colourful novels to find anything of note, but it only ends up with your eyes aching from the strain.</text>
</g>
<!-- 34 -->
<g id="node35" class="node">
<title>34</title>
<ellipse fill="none" stroke="black" cx="961.37" cy="-306" rx="301.11" ry="18"/>
<text text-anchor="middle" x="961.37" y="-300.95" font-family="Times New Roman,serif" font-size="14.00">Jump to: [Shelf of Romance Stories: &quot;The shelves are littered with roman...&quot;]</text>
</g>
<!-- 10&#45;&gt;34 -->
<g id="edge14" class="edge">
<title>10&#45;&gt;34</title>
<path fill="none" stroke="black" d="M1086.34,-359.7C1064.11,-350.32 1036.43,-338.65 1012.77,-328.67"/>
<polygon fill="black" stroke="black" points="1014.19,-325.47 1003.61,-324.81 1011.47,-331.92 1014.19,-325.47"/>
</g>
<!-- 11 -->
<g id="node12" class="node">
<title>11</title>
<ellipse fill="none" stroke="black" cx="1115.37" cy="-162" rx="571.35" ry="18"/>
<text text-anchor="middle" x="1115.37" y="-156.95" font-family="Times New Roman,serif" font-size="14.00">Pain Threshold: As you focus on the overwhelming mass of colourful novels, a discrepancy catches your eye &#45;&#45; one of the books is not like the others.</text>
</g>
<!-- 42 -->
<g id="node43" class="node">
<title>42</title>
<ellipse fill="none" stroke="black" cx="767.37" cy="-90" rx="767.37" ry="18"/>
<text text-anchor="middle" x="767.37" y="-84.95" font-family="Times New Roman,serif" font-size="14.00">Plaisance: &quot;No&#45;no, sir, you don&#39;t want that. That&#39;s not proper romance... romance is about overcoming adversity and finding that *single millionaire* who wants to take care of you until the end of days.&quot;</text>
</g>
<!-- 11&#45;&gt;42 -->
<g id="edge15" class="edge">
<title>11&#45;&gt;42</title>
<path fill="none" stroke="black" d="M1029.79,-143.79C979.83,-133.74 916.61,-121.02 864.75,-110.59"/>
<polygon fill="black" stroke="black" points="865.5,-107.17 855.01,-108.63 864.12,-114.03 865.5,-107.17"/>
</g>
<!-- 12 -->
<g id="node13" class="node">
<title>12</title>
<ellipse fill="none" stroke="black" cx="3117.37" cy="-234" rx="111.23" ry="18"/>
<text text-anchor="middle" x="3117.37" y="-228.95" font-family="Times New Roman,serif" font-size="14.00">You: What&#39;s this all about?</text>
</g>
<!-- 12&#45;&gt;2 -->
<g id="edge16" class="edge">
<title>12&#45;&gt;2</title>
<path fill="none" stroke="black" d="M3085.38,-216.41C3067.66,-207.23 3045.39,-195.68 3026.09,-185.67"/>
<polygon fill="black" stroke="black" points="3027.85,-182.64 3017.36,-181.14 3024.63,-188.85 3027.85,-182.64"/>
</g>
<!-- 14 -->
<g id="node15" class="node">
<title>14</title>
<ellipse fill="none" stroke="black" cx="2181.37" cy="-450" rx="234.07" ry="18"/>
<text text-anchor="middle" x="2181.37" y="-444.95" font-family="Times New Roman,serif" font-size="14.00">You: &quot;I want buy the &#39;Sixteen Days of Coldest April&#39; book.&quot;</text>
</g>
<!-- 21 -->
<g id="node22" class="node">
<title>21</title>
<ellipse fill="none" stroke="black" cx="1704.37" cy="-234" rx="84.11" ry="18"/>
<text text-anchor="middle" x="1704.37" y="-228.95" font-family="Times New Roman,serif" font-size="14.00">Jump to: [romcom]</text>
</g>
<!-- 14&#45;&gt;21 -->
<g id="edge17" class="edge">
<title>14&#45;&gt;21</title>
<path fill="none" stroke="black" d="M1973.97,-441.37C1889.07,-434.4 1803.11,-421.15 1770.37,-396 1728.43,-363.79 1712.99,-300.35 1707.42,-263.45"/>
<polygon fill="black" stroke="black" points="1710.94,-263.41 1706.13,-253.97 1704.01,-264.35 1710.94,-263.41"/>
</g>
<!-- 15 -->
<g id="node16" class="node">
<title>15</title>
<ellipse fill="none" stroke="black" cx="3908.37" cy="-450" rx="178.28" ry="18"/>
<text text-anchor="middle" x="3908.37" y="-444.95" font-family="Times New Roman,serif" font-size="14.00">You: I think I&#39;d enjoy reading a few of these.</text>
</g>
<!-- 26 -->
<g id="node27" class="node">
<title>26</title>
<ellipse fill="none" stroke="black" cx="4389.37" cy="-378" rx="156.78" ry="18"/>
<text text-anchor="middle" x="4389.37" y="-372.95" font-family="Times New Roman,serif" font-size="14.00">You: &quot;Storekeep, what&#39;s on this shelf?&quot;</text>
</g>
<!-- 15&#45;&gt;26 -->
<g id="edge18" class="edge">
<title>15&#45;&gt;26</title>
<path fill="none" stroke="black" d="M4007.16,-434.62C4087.72,-422.9 4201.27,-406.38 4283.65,-394.39"/>
<polygon fill="black" stroke="black" points="4283.92,-397.88 4293.31,-392.98 4282.91,-390.96 4283.92,-397.88"/>
</g>
<!-- 16 -->
<g id="node17" class="node">
<title>16</title>
<ellipse fill="none" stroke="black" cx="3790.37" cy="-738" rx="810.36" ry="18"/>
<text text-anchor="middle" x="3790.37" y="-732.95" font-family="Times New Roman,serif" font-size="14.00">Shelf of Romance Stories: On the cover of the book there&#39;s a wall of concrete buildings, with a black&#45;and&#45;white rainbow over them. It&#39;s written by someone from a country where even rainbows are black and white.</text>
</g>
<!-- 44 -->
<g id="node45" class="node">
<title>44</title>
<ellipse fill="none" stroke="black" cx="3959.37" cy="-666" rx="509.42" ry="18"/>
<text text-anchor="middle" x="3959.37" y="-660.95" font-family="Times New Roman,serif" font-size="14.00">Pain Threshold: Someone thought this was a romance story, but it&#39;s actually a thoroughly excruciating work of psychological realism.</text>
</g>
<!-- 16&#45;&gt;44 -->
<g id="edge19" class="edge">
<title>16&#45;&gt;44</title>
<path fill="none" stroke="black" d="M3832.15,-719.7C3854.79,-710.32 3883,-698.63 3907.1,-688.65"/>
<polygon fill="black" stroke="black" points="3908.19,-691.99 3916.09,-684.93 3905.51,-685.52 3908.19,-691.99"/>
</g>
<!-- 17 -->
<g id="node18" class="node">
<title>17</title>
<ellipse fill="none" stroke="black" cx="5493.37" cy="-162" rx="917.33" ry="18"/>
<text text-anchor="middle" x="5493.37" y="-156.95" font-family="Times New Roman,serif" font-size="14.00">Shelf of Romance Stories: You see a foamy mass of pinks and reds... colourful covers filled with risqué imagery. These books are most oft adorned by women in skimpy clothes, thighs revealed... a few roses and sometimes even some pistols.</text>
</g>
<!-- 33 -->
<g id="node34" class="node">
<title>33</title>
<ellipse fill="none" stroke="black" cx="5241.37" cy="-90" rx="84.11" ry="18"/>
<text text-anchor="middle" x="5241.37" y="-84.95" font-family="Times New Roman,serif" font-size="14.00">Jump to: [romcom]</text>
</g>
<!-- 17&#45;&gt;33 -->
<g id="edge20" class="edge">
<title>17&#45;&gt;33</title>
<path fill="none" stroke="black" d="M5430.76,-143.61C5391.45,-132.69 5341.02,-118.68 5302.08,-107.86"/>
<polygon fill="black" stroke="black" points="5303.45,-104.61 5292.88,-105.31 5301.58,-111.36 5303.45,-104.61"/>
</g>
<!-- 18 -->
<g id="node19" class="node">
<title>18</title>
<ellipse fill="none" stroke="black" cx="3459.37" cy="-522" rx="42.65" ry="18"/>
<text text-anchor="middle" x="3459.37" y="-516.95" font-family="Times New Roman,serif" font-size="14.00">romcom</text>
</g>
<!-- 18&#45;&gt;5 -->
<g id="edge21" class="edge">
<title>18&#45;&gt;5</title>
<path fill="none" stroke="black" d="M3419.83,-514.85C3354.12,-504.63 3220.08,-483.78 3123.02,-468.68"/>
<polygon fill="black" stroke="black" points="3123.58,-465.22 3113.16,-467.15 3122.51,-472.14 3123.58,-465.22"/>
</g>
<!-- 18&#45;&gt;14 -->
<g id="edge23" class="edge">
<title>18&#45;&gt;14</title>
<path fill="none" stroke="black" d="M3417.21,-518.69C3257.85,-509.96 2685.75,-478.63 2378.99,-461.82"/>
<polygon fill="black" stroke="black" points="2379.43,-458.34 2369.25,-461.29 2379.05,-465.33 2379.43,-458.34"/>
</g>
<!-- 18&#45;&gt;15 -->
<g id="edge24" class="edge">
<title>18&#45;&gt;15</title>
<path fill="none" stroke="black" d="M3498.82,-514.85C3566.13,-504.36 3705.31,-482.66 3802.65,-467.48"/>
<polygon fill="black" stroke="black" points="3803.17,-470.94 3812.51,-465.94 3802.09,-464.03 3803.17,-470.94"/>
</g>
<!-- 27 -->
<g id="node28" class="node">
<title>27</title>
<ellipse fill="none" stroke="black" cx="4344.37" cy="-450" rx="240.21" ry="18"/>
<text text-anchor="middle" x="4344.37" y="-444.95" font-family="Times New Roman,serif" font-size="14.00">You: &quot;To be honest, I&#39;m looking for something more *real*.&quot;</text>
</g>
<!-- 18&#45;&gt;27 -->
<g id="edge25" class="edge">
<title>18&#45;&gt;27</title>
<path fill="none" stroke="black" d="M3501.16,-517.69C3619.51,-508.33 3961.91,-481.25 4172.22,-464.62"/>
<polygon fill="black" stroke="black" points="4172.49,-468.11 4182.18,-463.83 4171.94,-461.13 4172.49,-468.11"/>
</g>
<!-- 41 -->
<g id="node42" class="node">
<title>41</title>
<ellipse fill="none" stroke="black" cx="1286.37" cy="-450" rx="482.81" ry="18"/>
<text text-anchor="middle" x="1286.37" y="-444.95" font-family="Times New Roman,serif" font-size="14.00">Shelf of Romance Stories: A grey book has lost itself between all the romance. The title reads: &#39;Sixteen Days of Coldest April.&#39;</text>
</g>
<!-- 18&#45;&gt;41 -->
<g id="edge22" class="edge">
<title>18&#45;&gt;41</title>
<path fill="none" stroke="black" d="M3416.94,-519.63C3200.07,-512.65 2204.31,-480.57 1654.21,-462.85"/>
<polygon fill="black" stroke="black" points="1654.54,-459.36 1644.43,-462.53 1654.31,-466.35 1654.54,-459.36"/>
</g>
<!-- 19&#45;&gt;19 -->
<g id="edge26" class="edge">
<title>19&#45;&gt;19</title>
<path fill="none" stroke="black" d="M4361.62,-31.4C4385.41,-32.24 4405.48,-27.77 4405.48,-18 4405.48,-9.83 4391.45,-5.37 4372.95,-4.61"/>
<polygon fill="black" stroke="black" points="4373.14,-1.12 4363.13,-4.6 4373.13,-8.12 4373.14,-1.12"/>
</g>
<!-- 20 -->
<g id="node21" class="node">
<title>20</title>
<ellipse fill="none" stroke="black" cx="1838.37" cy="-882" rx="630.72" ry="18"/>
<text text-anchor="middle" x="1838.37" y="-876.95" font-family="Times New Roman,serif" font-size="14.00">Plaisance: &quot;Huh, it&#39;s in the wrong shelf... Annette&#39;s been moving things around again, has she! That girl...&quot; She shakes her head. &quot;No matter, I hope you enjoy... this.&quot;</text>
</g>
<!-- 32 -->
<g id="node33" class="node">
<title>32</title>
<ellipse fill="none" stroke="black" cx="2507.37" cy="-810" rx="432.65" ry="18"/>
<text text-anchor="middle" x="2507.37" y="-804.95" font-family="Times New Roman,serif" font-size="14.00">Shelf of Romance Stories: They also tend to feature chisel&#45;jawed men in dark suits. It&#39;s all such... glitzy garbage.</text>
</g>
<!-- 20&#45;&gt;32 -->
<g id="edge27" class="edge">
<title>20&#45;&gt;32</title>
<path fill="none" stroke="black" d="M1999.46,-864.14C2102.7,-853.34 2236.4,-839.35 2340.71,-828.44"/>
<polygon fill="black" stroke="black" points="2340.91,-831.94 2350.49,-827.42 2340.18,-824.97 2340.91,-831.94"/>
</g>
<!-- 21&#45;&gt;19 -->
<g id="edge28" class="edge">
<title>21&#45;&gt;19</title>
<path fill="none" stroke="black" d="M1729.43,-216.35C1762.9,-195.14 1824.79,-159.36 1883.37,-144 2333.93,-25.82 3815.74,-18.56 4207.61,-18.76"/>
<polygon fill="black" stroke="black" points="4207.36,-22.26 4217.37,-18.76 4207.37,-15.26 4207.36,-22.26"/>
</g>
<!-- 24 -->
<g id="node25" class="node">
<title>24</title>
<polygon fill="none" stroke="black" points="1236.37,-252 887.98,-234 1236.37,-216 1584.76,-234 1236.37,-252"/>
<text text-anchor="middle" x="1236.37" y="-228.95" font-family="Times New Roman,serif" font-size="14.00">!(Variable[&quot;doomed.book_whitech_pain_threshold_romance&quot;])</text>
</g>
<!-- 22&#45;&gt;24 -->
<g id="edge29" class="edge">
<title>22&#45;&gt;24</title>
<path fill="none" stroke="black" d="M2110.24,-291.48C1902.23,-278.04 1587.54,-257.7 1397.98,-245.45"/>
<polygon fill="black" stroke="black" points="1398.24,-241.96 1388.04,-244.8 1397.79,-248.94 1398.24,-241.96"/>
</g>
<!-- 25 -->
<g id="node26" class="node">
<title>25</title>
<ellipse fill="none" stroke="black" cx="2343.37" cy="-234" rx="537.06" ry="18"/>
<text text-anchor="middle" x="2343.37" y="-228.95" font-family="Times New Roman,serif" font-size="14.00">Shelf of Romance Stories: No, you wouldn&#39;t. Being a rough, *hard&#45;boiled* detective, you hope for something more real... more *authentic*.</text>
</g>
<!-- 22&#45;&gt;25 -->
<g id="edge30" class="edge">
<title>22&#45;&gt;25</title>
<path fill="none" stroke="black" d="M2319.39,-287.7C2321.2,-280.15 2324.06,-271.12 2327.26,-262.68"/>
<polygon fill="black" stroke="black" points="2330.47,-264.08 2331.04,-253.5 2324,-261.42 2330.47,-264.08"/>
</g>
<!-- 23&#45;&gt;12 -->
<g id="edge31" class="edge">
<title>23&#45;&gt;12</title>
<path fill="none" stroke="black" d="M3163.15,-288.41C3156.01,-280.08 3147.2,-269.8 3139.22,-260.49"/>
<polygon fill="black" stroke="black" points="3142.06,-258.42 3132.89,-253.11 3136.74,-262.98 3142.06,-258.42"/>
</g>
<!-- 24&#45;&gt;11 -->
<g id="edge32" class="edge">
<title>24&#45;&gt;11</title>
<path fill="none" stroke="black" d="M1208.61,-216.94C1192.86,-207.83 1172.88,-196.27 1155.46,-186.19"/>
<polygon fill="black" stroke="black" points="1157.26,-183.19 1146.85,-181.21 1153.76,-189.25 1157.26,-183.19"/>
</g>
<!-- 25&#45;&gt;22 -->
<g id="edge33" class="edge">
<title>25&#45;&gt;22</title>
<path fill="none" stroke="black" d="M2343.4,-252.1C2341.61,-259.62 2338.76,-268.65 2335.56,-277.1"/>
<polygon fill="black" stroke="black" points="2332.35,-275.72 2331.79,-286.3 2338.82,-278.37 2332.35,-275.72"/>
</g>
<!-- 37 -->
<g id="node38" class="node">
<title>37</title>
<ellipse fill="none" stroke="black" cx="4393.37" cy="-306" rx="190.56" ry="18"/>
<text text-anchor="middle" x="4393.37" y="-300.95" font-family="Times New Roman,serif" font-size="14.00">You: Is there anything here that calls out to me?</text>
</g>
<!-- 26&#45;&gt;37 -->
<g id="edge34" class="edge">
<title>26&#45;&gt;37</title>
<path fill="none" stroke="black" d="M4390.36,-359.7C4390.78,-352.41 4391.27,-343.73 4391.74,-335.54"/>
<polygon fill="black" stroke="black" points="4395.23,-335.8 4392.31,-325.62 4388.24,-335.4 4395.23,-335.8"/>
</g>
<!-- 43 -->
<g id="node44" class="node">
<title>43</title>
<ellipse fill="none" stroke="black" cx="4100.37" cy="-306" rx="84.11" ry="18"/>
<text text-anchor="middle" x="4100.37" y="-300.95" font-family="Times New Roman,serif" font-size="14.00">Jump to: [romcom]</text>
</g>
<!-- 27&#45;&gt;43 -->
<g id="edge35" class="edge">
<title>27&#45;&gt;43</title>
<path fill="none" stroke="black" d="M4468.63,-434.18C4532.74,-421.6 4590.8,-399.12 4555.37,-360 4528.24,-330.04 4233.4,-329.64 4193.37,-324 4186.44,-323.02 4179.23,-321.9 4172.04,-320.71"/>
<polygon fill="black" stroke="black" points="4172.73,-317.27 4162.28,-319.04 4171.55,-324.17 4172.73,-317.27"/>
</g>
<!-- 28 -->
<g id="node29" class="node">
<title>28</title>
<ellipse fill="none" stroke="black" cx="1838.37" cy="-1026" rx="306.74" ry="18"/>
<text text-anchor="middle" x="1838.37" y="-1020.95" font-family="Times New Roman,serif" font-size="14.00">Shelf of Romance Stories: Variable[&quot;doomed.book_wc_trigger_bad_romance&quot;]</text>
</g>
<!-- 30 -->
<g id="node31" class="node">
<title>30</title>
<polygon fill="none" stroke="black" points="1838.37,-972 1533.41,-954 1838.37,-936 2143.33,-954 1838.37,-972"/>
<text text-anchor="middle" x="1838.37" y="-948.95" font-family="Times New Roman,serif" font-size="14.00">!(Variable[&quot;doomed.book_wc_trigger_bad_romance&quot;])</text>
</g>
<!-- 28&#45;&gt;30 -->
<g id="edge36" class="edge">
<title>28&#45;&gt;30</title>
<path fill="none" stroke="black" d="M1838.37,-1007.7C1838.37,-1000.41 1838.37,-991.73 1838.37,-983.54"/>
<polygon fill="black" stroke="black" points="1841.87,-983.62 1838.37,-973.62 1834.87,-983.62 1841.87,-983.62"/>
</g>
<!-- 31 -->
<g id="node32" class="node">
<title>31</title>
<ellipse fill="none" stroke="black" cx="5540.37" cy="-882" rx="84.11" ry="18"/>
<text text-anchor="middle" x="5540.37" y="-876.95" font-family="Times New Roman,serif" font-size="14.00">Jump to: [romcom]</text>
</g>
<!-- 28&#45;&gt;31 -->
<g id="edge37" class="edge">
<title>28&#45;&gt;31</title>
<path fill="none" stroke="black" d="M2089.55,-1015.37C2828.54,-987.02 4973.07,-904.76 5446.96,-886.58"/>
<polygon fill="black" stroke="black" points="5446.8,-890.09 5456.66,-886.21 5446.53,-883.1 5446.8,-890.09"/>
</g>
<!-- 29 -->
<g id="node30" class="node">
<title>29</title>
<polygon fill="none" stroke="black" points="992.37,-1116 700.44,-1098 992.37,-1080 1284.31,-1098 992.37,-1116"/>
<text text-anchor="middle" x="992.37" y="-1092.95" font-family="Times New Roman,serif" font-size="14.00">Variable[&quot;doomed.book_wc_trigger_bad_romance&quot;]</text>
</g>
<!-- 29&#45;&gt;28 -->
<g id="edge38" class="edge">
<title>29&#45;&gt;28</title>
<path fill="none" stroke="black" d="M1113.13,-1087.01C1254.6,-1075.3 1490.49,-1055.78 1654.68,-1042.2"/>
<polygon fill="black" stroke="black" points="1654.7,-1045.71 1664.38,-1041.4 1654.12,-1038.73 1654.7,-1045.71"/>
</g>
<!-- 30&#45;&gt;20 -->
<g id="edge39" class="edge">
<title>30&#45;&gt;20</title>
<path fill="none" stroke="black" d="M1838.37,-935.7C1838.37,-928.41 1838.37,-919.73 1838.37,-911.54"/>
<polygon fill="black" stroke="black" points="1841.87,-911.62 1838.37,-901.62 1834.87,-911.62 1841.87,-911.62"/>
</g>
<!-- 31&#45;&gt;19 -->
<g id="edge40" class="edge">
<title>31&#45;&gt;19</title>
<path fill="none" stroke="black" d="M5621.25,-876.67C5841.98,-863.78 6438.37,-821.32 6438.37,-739 6438.37,-739 6438.37,-739 6438.37,-161 6438.37,-57.29 4813.29,-26.46 4398.72,-20.28"/>
<polygon fill="black" stroke="black" points="4398.96,-16.78 4388.91,-20.13 4398.85,-23.78 4398.96,-16.78"/>
</g>
<!-- 32&#45;&gt;16 -->
<g id="edge41" class="edge">
<title>32&#45;&gt;16</title>
<path fill="none" stroke="black" d="M2762.77,-795.07C2969.67,-783.78 3261.91,-767.83 3481.87,-755.83"/>
<polygon fill="black" stroke="black" points="3481.97,-759.33 3491.77,-755.29 3481.59,-752.34 3481.97,-759.33"/>
</g>
<!-- 38 -->
<g id="node39" class="node">
<title>38</title>
<ellipse fill="none" stroke="black" cx="2507.37" cy="-738" rx="116.35" ry="18"/>
<text text-anchor="middle" x="2507.37" y="-732.95" font-family="Times New Roman,serif" font-size="14.00">You: Why is it out of place?</text>
</g>
<!-- 32&#45;&gt;38 -->
<g id="edge42" class="edge">
<title>32&#45;&gt;38</title>
<path fill="none" stroke="black" d="M2507.37,-791.7C2507.37,-784.41 2507.37,-775.73 2507.37,-767.54"/>
<polygon fill="black" stroke="black" points="2510.87,-767.62 2507.37,-757.62 2503.87,-767.62 2510.87,-767.62"/>
</g>
<!-- 33&#45;&gt;19 -->
<g id="edge43" class="edge">
<title>33&#45;&gt;19</title>
<path fill="none" stroke="black" d="M5163.01,-83.15C4990.05,-70.24 4576.46,-39.38 4393.3,-25.71"/>
<polygon fill="black" stroke="black" points="4393.58,-22.22 4383.35,-24.97 4393.06,-29.2 4393.58,-22.22"/>
</g>
<!-- 34&#45;&gt;36 -->
<g id="edge44" class="edge">
<title>34&#45;&gt;36</title>
<path fill="none" stroke="black" d="M766.86,-320.1C658.31,-329.23 541.16,-342.83 522.37,-360 492.51,-387.28 503.37,-408.55 503.37,-449 503.37,-1027 503.37,-1027 503.37,-1027 503.37,-1084.49 561.87,-1124.37 608.12,-1146.92"/>
<polygon fill="black" stroke="black" points="606.47,-1150.01 617.01,-1151.1 609.44,-1143.68 606.47,-1150.01"/>
</g>
<!-- 35 -->
<g id="node36" class="node">
<title>35</title>
<ellipse fill="none" stroke="black" cx="4507.37" cy="-90" rx="379.42" ry="18"/>
<text text-anchor="middle" x="4507.37" y="-84.95" font-family="Times New Roman,serif" font-size="14.00">Shelf of Romance Stories: The shelves are littered with romantic tales from across time and space.</text>
</g>
<!-- 35&#45;&gt;19 -->
<g id="edge45" class="edge">
<title>35&#45;&gt;19</title>
<path fill="none" stroke="black" d="M4456.94,-71.7C4426.65,-61.3 4388.13,-48.08 4357.24,-37.48"/>
<polygon fill="black" stroke="black" points="4358.69,-34.28 4348.09,-34.35 4356.41,-40.9 4358.69,-34.28"/>
</g>
<!-- 36&#45;&gt;29 -->
<g id="edge46" class="edge">
<title>36&#45;&gt;29</title>
<path fill="none" stroke="black" d="M744.27,-1151.79C797.27,-1140.51 866.04,-1125.88 917.73,-1114.88"/>
<polygon fill="black" stroke="black" points="918.29,-1118.34 927.34,-1112.84 916.83,-1111.49 918.29,-1118.34"/>
</g>
<!-- 37&#45;&gt;9 -->
<g id="edge47" class="edge">
<title>37&#45;&gt;9</title>
<path fill="none" stroke="black" d="M4402.52,-287.7C4406.59,-279.98 4411.49,-270.71 4416.04,-262.11"/>
<polygon fill="black" stroke="black" points="4419.04,-263.92 4420.62,-253.44 4412.86,-260.65 4419.04,-263.92"/>
</g>
<!-- 45 -->
<g id="node46" class="node">
<title>45</title>
<ellipse fill="none" stroke="black" cx="2507.37" cy="-666" rx="27" ry="18"/>
<text text-anchor="middle" x="2507.37" y="-660.95" font-family="Times New Roman,serif" font-size="14.00">45</text>
</g>
<!-- 38&#45;&gt;45 -->
<g id="edge48" class="edge">
<title>38&#45;&gt;45</title>
<path fill="none" stroke="black" d="M2507.37,-719.7C2507.37,-712.41 2507.37,-703.73 2507.37,-695.54"/>
<polygon fill="black" stroke="black" points="2510.87,-695.62 2507.37,-685.62 2503.87,-695.62 2510.87,-695.62"/>
</g>
<!-- 39&#45;&gt;35 -->
<g id="edge49" class="edge">
<title>39&#45;&gt;35</title>
<path fill="none" stroke="black" d="M4325.51,-144.94C4359.06,-134.99 4402.46,-122.12 4438.44,-111.44"/>
<polygon fill="black" stroke="black" points="4439.31,-114.84 4447.9,-108.64 4437.32,-108.13 4439.31,-114.84"/>
</g>
<!-- 40&#45;&gt;18 -->
<g id="edge50" class="edge">
<title>40&#45;&gt;18</title>
<path fill="none" stroke="black" d="M3861.18,-579.25C3756.04,-564.53 3593.23,-541.74 3510.86,-530.21"/>
<polygon fill="black" stroke="black" points="3511.43,-526.75 3501.04,-528.83 3510.46,-533.69 3511.43,-526.75"/>
</g>
<!-- 41&#45;&gt;10 -->
<g id="edge51" class="edge">
<title>41&#45;&gt;10</title>
<path fill="none" stroke="black" d="M1247.07,-431.7C1225.95,-422.4 1199.7,-410.84 1177.16,-400.92"/>
<polygon fill="black" stroke="black" points="1178.72,-397.78 1168.16,-396.96 1175.9,-404.19 1178.72,-397.78"/>
</g>
<!-- 42&#45;&gt;20 -->
<g id="edge52" class="edge">
<title>42&#45;&gt;20</title>
<path fill="none" stroke="black" d="M609.3,-108.03C536.23,-125.6 465.37,-161.16 465.37,-233 465.37,-307 465.37,-307 465.37,-307 465.37,-407.93 541.37,-420.07 541.37,-521 541.37,-739 541.37,-739 541.37,-739 541.37,-821.34 959.74,-855.95 1321.25,-870.49"/>
<polygon fill="black" stroke="black" points="1321.1,-873.99 1331.23,-870.89 1321.37,-866.99 1321.1,-873.99"/>
</g>
<!-- 43&#45;&gt;19 -->
<g id="edge53" class="edge">
<title>43&#45;&gt;19</title>
<path fill="none" stroke="black" d="M4095.84,-287.69C4085.91,-245.45 4067.06,-135.92 4119.37,-72 4133.44,-54.81 4182.99,-41.12 4227.12,-31.96"/>
<polygon fill="black" stroke="black" points="4227.6,-35.43 4236.72,-30.03 4226.22,-28.57 4227.6,-35.43"/>
</g>
<!-- 44&#45;&gt;13 -->
<g id="edge55" class="edge">
<title>44&#45;&gt;13</title>
<path fill="none" stroke="black" d="M4307.91,-652.51C4479.64,-636.46 4650.37,-600.92 4650.37,-523 4650.37,-523 4650.37,-523 4650.37,-305 4650.37,-245.41 4587.32,-204.07 4541.64,-181.94"/>
<polygon fill="black" stroke="black" points="4543.23,-178.82 4532.69,-177.76 4540.27,-185.16 4543.23,-178.82"/>
</g>
<!-- 44&#45;&gt;40 -->
<g id="edge54" class="edge">
<title>44&#45;&gt;40</title>
<path fill="none" stroke="black" d="M3959.37,-647.7C3959.37,-640.41 3959.37,-631.73 3959.37,-623.54"/>
<polygon fill="black" stroke="black" points="3962.87,-623.62 3959.37,-613.62 3955.87,-623.62 3962.87,-623.62"/>
</g>
</g>
</svg>
