<?xml version="1.0" encoding="UTF-8" standalone="no"?>
<!DOCTYPE svg PUBLIC "-//W3C//DTD SVG 1.1//EN"
 "http://www.w3.org/Graphics/SVG/1.1/DTD/svg11.dtd">
<!-- Generated by graphviz version 12.2.1 (20241206.2353)
 -->
<!-- Title: G Pages: 1 -->
<svg width="2829pt" height="1052pt"
 viewBox="0.00 0.00 2828.88 1052.00" xmlns="http://www.w3.org/2000/svg" xmlns:xlink="http://www.w3.org/1999/xlink">
<g id="graph0" class="graph" transform="scale(1 1) rotate(0) translate(4 1048)">
<title>G</title>
<polygon fill="white" stroke="none" points="-4,4 -4,-1048 2824.88,-1048 2824.88,4 -4,4"/>
<!-- 0 -->
<g id="node1" class="node">
<title>0</title>
<ellipse fill="none" stroke="black" cx="1210.73" cy="-1026" rx="39.07" ry="18"/>
<text text-anchor="middle" x="1210.73" y="-1020.95" font-family="Times New Roman,serif" font-size="14.00">START</text>
</g>
<!-- 1 -->
<g id="node2" class="node">
<title>1</title>
<ellipse fill="none" stroke="black" cx="1210.73" cy="-954" rx="29.86" ry="18"/>
<text text-anchor="middle" x="1210.73" y="-948.95" font-family="Times New Roman,serif" font-size="14.00">input</text>
</g>
<!-- 0&#45;&gt;1 -->
<g id="edge1" class="edge">
<title>0&#45;&gt;1</title>
<path fill="none" stroke="black" d="M1210.73,-1007.7C1210.73,-1000.41 1210.73,-991.73 1210.73,-983.54"/>
<polygon fill="black" stroke="black" points="1214.23,-983.62 1210.73,-973.62 1207.23,-983.62 1214.23,-983.62"/>
</g>
<!-- 25 -->
<g id="node25" class="node">
<title>25</title>
<ellipse fill="none" stroke="black" cx="1210.73" cy="-882" rx="329.26" ry="18"/>
<text text-anchor="middle" x="1210.73" y="-876.95" font-family="Times New Roman,serif" font-size="14.00">Primer Book: You see a colourful primer. The title reads: &quot;A Primer for Small Kids.&quot;</text>
</g>
<!-- 1&#45;&gt;25 -->
<g id="edge2" class="edge">
<title>1&#45;&gt;25</title>
<path fill="none" stroke="black" d="M1210.73,-935.7C1210.73,-928.41 1210.73,-919.73 1210.73,-911.54"/>
<polygon fill="black" stroke="black" points="1214.23,-911.62 1210.73,-901.62 1207.23,-911.62 1214.23,-911.62"/>
</g>
<!-- 2 -->
<g id="node3" class="node">
<title>2</title>
<ellipse fill="none" stroke="black" cx="695.73" cy="-738" rx="137.85" ry="18"/>
<text text-anchor="middle" x="695.73" y="-732.95" font-family="Times New Roman,serif" font-size="14.00">You: &quot;Madam, what&#39;s this book?&quot;</text>
</g>
<!-- 4 -->
<g id="node4" class="node">
<title>4</title>
<ellipse fill="none" stroke="black" cx="479.73" cy="-666" rx="415.25" ry="18"/>
<text text-anchor="middle" x="479.73" y="-660.95" font-family="Times New Roman,serif" font-size="14.00">Plaisance: &quot;A highly educational primer. It&#39;s exceptional for the young mind... and obviously, very popular.&quot;</text>
</g>
<!-- 2&#45;&gt;4 -->
<g id="edge3" class="edge">
<title>2&#45;&gt;4</title>
<path fill="none" stroke="black" d="M645.63,-720.76C615.28,-710.93 576.28,-698.29 543.72,-687.74"/>
<polygon fill="black" stroke="black" points="544.98,-684.47 534.39,-684.71 542.82,-691.13 544.98,-684.47"/>
</g>
<!-- 8 -->
<g id="node8" class="node">
<title>8</title>
<ellipse fill="none" stroke="black" cx="357.73" cy="-594" rx="216.15" ry="18"/>
<text text-anchor="middle" x="357.73" y="-588.95" font-family="Times New Roman,serif" font-size="14.00">You: &quot;Oh wow, that&#39;s cool. I want to become smarter.&quot;</text>
</g>
<!-- 4&#45;&gt;8 -->
<g id="edge4" class="edge">
<title>4&#45;&gt;8</title>
<path fill="none" stroke="black" d="M449.57,-647.7C433.76,-638.63 414.2,-627.4 397.2,-617.65"/>
<polygon fill="black" stroke="black" points="399.26,-614.8 388.85,-612.86 395.78,-620.87 399.26,-614.8"/>
</g>
<!-- 12 -->
<g id="node12" class="node">
<title>12</title>
<ellipse fill="none" stroke="black" cx="676.73" cy="-594" rx="84.62" ry="18"/>
<text text-anchor="middle" x="676.73" y="-588.95" font-family="Times New Roman,serif" font-size="14.00">You: &quot;Okay. Cool.&quot;</text>
</g>
<!-- 4&#45;&gt;12 -->
<g id="edge5" class="edge">
<title>4&#45;&gt;12</title>
<path fill="none" stroke="black" d="M528.42,-647.7C557.45,-637.38 594.3,-624.29 624,-613.73"/>
<polygon fill="black" stroke="black" points="624.92,-617.12 633.17,-610.48 622.58,-610.53 624.92,-617.12"/>
</g>
<!-- 5 -->
<g id="node5" class="node">
<title>5</title>
<ellipse fill="none" stroke="black" cx="456.73" cy="-522" rx="391.7" ry="18"/>
<text text-anchor="middle" x="456.73" y="-516.95" font-family="Times New Roman,serif" font-size="14.00">Plaisance: &quot;You&#39;re a grown man, though. It&#39;s a bit too late for that... this is a book for small children.&quot;</text>
</g>
<!-- 15 -->
<g id="node15" class="node">
<title>15</title>
<ellipse fill="none" stroke="black" cx="316.73" cy="-450" rx="91.27" ry="18"/>
<text text-anchor="middle" x="316.73" y="-444.95" font-family="Times New Roman,serif" font-size="14.00">Jump to: [primerhub]</text>
</g>
<!-- 5&#45;&gt;15 -->
<g id="edge6" class="edge">
<title>5&#45;&gt;15</title>
<path fill="none" stroke="black" d="M422.12,-503.7C403.09,-494.18 379.32,-482.3 359.18,-472.22"/>
<polygon fill="black" stroke="black" points="360.88,-469.16 350.37,-467.82 357.75,-475.42 360.88,-469.16"/>
</g>
<!-- 6 -->
<g id="node6" class="node">
<title>6</title>
<ellipse fill="none" stroke="black" cx="652.73" cy="-306" rx="427.02" ry="18"/>
<text text-anchor="middle" x="652.73" y="-300.95" font-family="Times New Roman,serif" font-size="14.00">Savoir Faire: You now proudly own a primer book for small children which, to be honest, barely cost anything.</text>
</g>
<!-- 17 -->
<g id="node17" class="node">
<title>17</title>
<ellipse fill="none" stroke="black" cx="783.73" cy="-90" rx="117.37" ry="18"/>
<text text-anchor="middle" x="783.73" y="-84.95" font-family="Times New Roman,serif" font-size="14.00">Jump to: [mainmapwallhub]</text>
</g>
<!-- 6&#45;&gt;17 -->
<g id="edge7" class="edge">
<title>6&#45;&gt;17</title>
<path fill="none" stroke="black" d="M649.71,-287.58C645.22,-255.79 640.35,-187.65 671.73,-144 682.38,-129.17 698.28,-118.35 714.78,-110.51"/>
<polygon fill="black" stroke="black" points="715.94,-113.82 723.71,-106.61 713.14,-107.41 715.94,-113.82"/>
</g>
<!-- 7 -->
<g id="node7" class="node">
<title>7</title>
<ellipse fill="none" stroke="black" cx="1717.73" cy="-666" rx="375.33" ry="18"/>
<text text-anchor="middle" x="1717.73" y="-660.95" font-family="Times New Roman,serif" font-size="14.00">Primer Book: It&#39;s exactly like a primer &#45;&#45; a word on every page relating to a letter of the alphabet.</text>
</g>
<!-- 14 -->
<g id="node14" class="node">
<title>14</title>
<ellipse fill="none" stroke="black" cx="2365.73" cy="-594" rx="388.63" ry="18"/>
<text text-anchor="middle" x="2365.73" y="-588.95" font-family="Times New Roman,serif" font-size="14.00">Primer Book: I&#39;m not sure what you&#39;re planning to get from this. It&#39;s meant for babies. Literal babies.</text>
</g>
<!-- 7&#45;&gt;14 -->
<g id="edge8" class="edge">
<title>7&#45;&gt;14</title>
<path fill="none" stroke="black" d="M1865.58,-649.03C1967.03,-638.07 2101.59,-623.53 2205.58,-612.3"/>
<polygon fill="black" stroke="black" points="2205.76,-615.8 2215.32,-611.25 2205,-608.84 2205.76,-615.8"/>
</g>
<!-- 8&#45;&gt;5 -->
<g id="edge9" class="edge">
<title>8&#45;&gt;5</title>
<path fill="none" stroke="black" d="M382.2,-575.7C394.45,-567.03 409.49,-556.4 422.84,-546.96"/>
<polygon fill="black" stroke="black" points="424.81,-549.85 430.96,-541.22 420.77,-544.14 424.81,-549.85"/>
</g>
<!-- 9 -->
<g id="node9" class="node">
<title>9</title>
<ellipse fill="none" stroke="black" cx="1767.73" cy="-306" rx="111.74" ry="18"/>
<text text-anchor="middle" x="1767.73" y="-300.95" font-family="Times New Roman,serif" font-size="14.00">Primer Book: IsKimHere()</text>
</g>
<!-- 10 -->
<g id="node10" class="node">
<title>10</title>
<polygon fill="none" stroke="black" points="1396.73,-252 1313.97,-234 1396.73,-216 1479.48,-234 1396.73,-252"/>
<text text-anchor="middle" x="1396.73" y="-228.95" font-family="Times New Roman,serif" font-size="14.00">IsKimHere()</text>
</g>
<!-- 9&#45;&gt;10 -->
<g id="edge10" class="edge">
<title>9&#45;&gt;10</title>
<path fill="none" stroke="black" d="M1697.07,-291.67C1625.37,-278.14 1515.94,-257.49 1450.85,-245.21"/>
<polygon fill="black" stroke="black" points="1451.58,-241.79 1441.11,-243.37 1450.29,-248.67 1451.58,-241.79"/>
</g>
<!-- 11 -->
<g id="node11" class="node">
<title>11</title>
<polygon fill="none" stroke="black" points="1824.73,-252 1728.94,-234 1824.73,-216 1920.51,-234 1824.73,-252"/>
<text text-anchor="middle" x="1824.73" y="-228.95" font-family="Times New Roman,serif" font-size="14.00">!(IsKimHere())</text>
</g>
<!-- 9&#45;&gt;11 -->
<g id="edge11" class="edge">
<title>9&#45;&gt;11</title>
<path fill="none" stroke="black" d="M1781.82,-287.7C1789.01,-278.86 1797.87,-267.98 1805.66,-258.41"/>
<polygon fill="black" stroke="black" points="1808.17,-260.88 1811.77,-250.91 1802.74,-256.46 1808.17,-260.88"/>
</g>
<!-- 30 -->
<g id="node30" class="node">
<title>30</title>
<ellipse fill="none" stroke="black" cx="1166.73" cy="-162" rx="485.88" ry="18"/>
<text text-anchor="middle" x="1166.73" y="-156.95" font-family="Times New Roman,serif" font-size="14.00">Kim Kitsuragi: The lieutenant coughs sharply, then whispers: &quot;Let&#39;s not. Defrauding small business owners is not our *thing*.&quot;</text>
</g>
<!-- 10&#45;&gt;30 -->
<g id="edge12" class="edge">
<title>10&#45;&gt;30</title>
<path fill="none" stroke="black" d="M1363.28,-222.82C1329.59,-212.57 1276.64,-196.45 1234.19,-183.53"/>
<polygon fill="black" stroke="black" points="1235.39,-180.24 1224.81,-180.68 1233.36,-186.94 1235.39,-180.24"/>
</g>
<!-- 21 -->
<g id="node21" class="node">
<title>21</title>
<ellipse fill="none" stroke="black" cx="1882.73" cy="-162" rx="212.57" ry="18"/>
<text text-anchor="middle" x="1882.73" y="-156.95" font-family="Times New Roman,serif" font-size="14.00">Plaisance: &quot;Sir, please, no touching the merchandise.&quot;</text>
</g>
<!-- 11&#45;&gt;21 -->
<g id="edge13" class="edge">
<title>11&#45;&gt;21</title>
<path fill="none" stroke="black" d="M1837.03,-218.15C1844.05,-209.67 1853.06,-198.8 1861.22,-188.95"/>
<polygon fill="black" stroke="black" points="1863.75,-191.39 1867.43,-181.46 1858.36,-186.92 1863.75,-191.39"/>
</g>
<!-- 12&#45;&gt;5 -->
<g id="edge14" class="edge">
<title>12&#45;&gt;5</title>
<path fill="none" stroke="black" d="M631.14,-578.5C599.43,-568.41 556.7,-554.81 521.47,-543.6"/>
<polygon fill="black" stroke="black" points="522.83,-540.36 512.24,-540.66 520.71,-547.03 522.83,-540.36"/>
</g>
<!-- 13 -->
<g id="node13" class="node">
<title>13</title>
<ellipse fill="none" stroke="black" cx="2456.73" cy="-666" rx="346.15" ry="18"/>
<text text-anchor="middle" x="2456.73" y="-660.95" font-family="Times New Roman,serif" font-size="14.00">Plaisance: &quot;Uh... you have kids?&quot; She shudders uncomfortably. &quot;Okay, I guess. Enjoy it.&quot;</text>
</g>
<!-- 33 -->
<g id="node33" class="node">
<title>33</title>
<ellipse fill="none" stroke="black" cx="2597.73" cy="-522" rx="91.27" ry="18"/>
<text text-anchor="middle" x="2597.73" y="-516.95" font-family="Times New Roman,serif" font-size="14.00">Jump to: [primerhub]</text>
</g>
<!-- 14&#45;&gt;33 -->
<g id="edge15" class="edge">
<title>14&#45;&gt;33</title>
<path fill="none" stroke="black" d="M2422.78,-575.79C2457.92,-565.18 2502.88,-551.62 2538.43,-540.89"/>
<polygon fill="black" stroke="black" points="2539.13,-544.34 2547.69,-538.1 2537.1,-537.64 2539.13,-544.34"/>
</g>
<!-- 23 -->
<g id="node23" class="node">
<title>23</title>
<ellipse fill="none" stroke="black" cx="1210.73" cy="-810" rx="49.82" ry="18"/>
<text text-anchor="middle" x="1210.73" y="-804.95" font-family="Times New Roman,serif" font-size="14.00">primerhub</text>
</g>
<!-- 15&#45;&gt;23 -->
<g id="edge16" class="edge">
<title>15&#45;&gt;23</title>
<path fill="none" stroke="black" d="M234.2,-457.97C167.45,-465.32 80.62,-479.36 55.73,-504 26.98,-532.46 36.73,-552.55 36.73,-593 36.73,-667 36.73,-667 36.73,-667 36.73,-780.18 907.81,-803.74 1149.3,-808.1"/>
<polygon fill="black" stroke="black" points="1149.08,-811.59 1159.14,-808.27 1149.21,-804.59 1149.08,-811.59"/>
</g>
<!-- 16 -->
<g id="node16" class="node">
<title>16</title>
<ellipse fill="none" stroke="black" cx="1767.73" cy="-378" rx="444.42" ry="18"/>
<text text-anchor="middle" x="1767.73" y="-372.95" font-family="Times New Roman,serif" font-size="14.00">Savoir Faire: Slowly, you move your hand towards the small book. Before you even can reach it, you&#39;re interrupted:</text>
</g>
<!-- 16&#45;&gt;9 -->
<g id="edge17" class="edge">
<title>16&#45;&gt;9</title>
<path fill="none" stroke="black" d="M1767.73,-359.7C1767.73,-352.41 1767.73,-343.73 1767.73,-335.54"/>
<polygon fill="black" stroke="black" points="1771.23,-335.62 1767.73,-325.62 1764.23,-335.62 1771.23,-335.62"/>
</g>
<!-- 5720079 -->
<g id="node35" class="node">
<title>5720079</title>
<polygon fill="none" stroke="black" points="909.73,-36 654.7,-18 909.73,0 1164.75,-18 909.73,-36"/>
<text text-anchor="middle" x="909.73" y="-12.95" font-family="Times New Roman,serif" font-size="14.00">JUMP OUT to BOOKSTORE / MAP WALL</text>
</g>
<!-- 17&#45;&gt;5720079 -->
<g id="edge18" class="edge">
<title>17&#45;&gt;5720079</title>
<path fill="none" stroke="black" d="M813.91,-72.23C831.35,-62.54 853.46,-50.26 872.04,-39.94"/>
<polygon fill="black" stroke="black" points="873.58,-43.08 880.62,-35.17 870.18,-36.97 873.58,-43.08"/>
</g>
<!-- 18 -->
<g id="node18" class="node">
<title>18</title>
<ellipse fill="none" stroke="black" cx="1321.73" cy="-522" rx="238.16" ry="18"/>
<text text-anchor="middle" x="1321.73" y="-516.95" font-family="Times New Roman,serif" font-size="14.00">Primer Book: Variable[&quot;doomed.book_primer_wc_stealing&quot;]</text>
</g>
<!-- 19 -->
<g id="node19" class="node">
<title>19</title>
<polygon fill="none" stroke="black" points="883.73,-468 621.47,-450 883.73,-432 1145.98,-450 883.73,-468"/>
<text text-anchor="middle" x="883.73" y="-444.95" font-family="Times New Roman,serif" font-size="14.00">Variable[&quot;doomed.book_primer_wc_stealing&quot;]</text>
</g>
<!-- 18&#45;&gt;19 -->
<g id="edge19" class="edge">
<title>18&#45;&gt;19</title>
<path fill="none" stroke="black" d="M1222.88,-505.2C1147.17,-493.1 1043.69,-476.57 971.01,-464.95"/>
<polygon fill="black" stroke="black" points="971.99,-461.56 961.57,-463.44 970.89,-468.47 971.99,-461.56"/>
</g>
<!-- 20 -->
<g id="node20" class="node">
<title>20</title>
<polygon fill="none" stroke="black" points="1537.73,-468 1262.44,-450 1537.73,-432 1813.01,-450 1537.73,-468"/>
<text text-anchor="middle" x="1537.73" y="-444.95" font-family="Times New Roman,serif" font-size="14.00">!(Variable[&quot;doomed.book_primer_wc_stealing&quot;])</text>
</g>
<!-- 18&#45;&gt;20 -->
<g id="edge20" class="edge">
<title>18&#45;&gt;20</title>
<path fill="none" stroke="black" d="M1374.29,-503.97C1406.94,-493.39 1448.86,-479.8 1482.07,-469.04"/>
<polygon fill="black" stroke="black" points="1483.1,-472.38 1491.53,-465.97 1480.94,-465.72 1483.1,-472.38"/>
</g>
<!-- 24 -->
<g id="node24" class="node">
<title>24</title>
<ellipse fill="none" stroke="black" cx="652.73" cy="-378" rx="652.73" ry="18"/>
<text text-anchor="middle" x="652.73" y="-372.95" font-family="Times New Roman,serif" font-size="14.00">Savoir Faire: You peek at the storekeep, waiting for her to be distracted. When she&#39;s not looking, you deftly swipe the small booklet off the shelf and stuff it in your pocket.</text>
</g>
<!-- 19&#45;&gt;24 -->
<g id="edge21" class="edge">
<title>19&#45;&gt;24</title>
<path fill="none" stroke="black" d="M836.7,-434.75C803.32,-424.64 758,-410.9 720.7,-399.6"/>
<polygon fill="black" stroke="black" points="721.94,-396.32 711.35,-396.77 719.91,-403.02 721.94,-396.32"/>
</g>
<!-- 20&#45;&gt;16 -->
<g id="edge22" class="edge">
<title>20&#45;&gt;16</title>
<path fill="none" stroke="black" d="M1584.82,-434.67C1618.08,-424.54 1663.13,-410.83 1700.2,-399.55"/>
<polygon fill="black" stroke="black" points="1700.93,-402.99 1709.48,-396.73 1698.9,-396.29 1700.93,-402.99"/>
</g>
<!-- 34 -->
<g id="node34" class="node">
<title>34</title>
<ellipse fill="none" stroke="black" cx="1166.73" cy="-90" rx="117.37" ry="18"/>
<text text-anchor="middle" x="1166.73" y="-84.95" font-family="Times New Roman,serif" font-size="14.00">Jump to: [mainmapwallhub]</text>
</g>
<!-- 21&#45;&gt;34 -->
<g id="edge23" class="edge">
<title>21&#45;&gt;34</title>
<path fill="none" stroke="black" d="M1747.21,-147.75C1610.16,-134.35 1401.03,-113.91 1274.75,-101.56"/>
<polygon fill="black" stroke="black" points="1275.35,-98.1 1265.06,-100.61 1274.67,-105.07 1275.35,-98.1"/>
</g>
<!-- 22 -->
<g id="node22" class="node">
<title>22</title>
<ellipse fill="none" stroke="black" cx="1036.73" cy="-738" rx="62.61" ry="18"/>
<text text-anchor="middle" x="1036.73" y="-732.95" font-family="Times New Roman,serif" font-size="14.00">You: [Leave.]</text>
</g>
<!-- 23&#45;&gt;2 -->
<g id="edge25" class="edge">
<title>23&#45;&gt;2</title>
<path fill="none" stroke="black" d="M1164.57,-802.73C1082.94,-791.63 911.21,-768.29 799.8,-753.15"/>
<polygon fill="black" stroke="black" points="800.42,-749.7 790.04,-751.82 799.48,-756.63 800.42,-749.7"/>
</g>
<!-- 23&#45;&gt;22 -->
<g id="edge26" class="edge">
<title>23&#45;&gt;22</title>
<path fill="none" stroke="black" d="M1178.41,-796C1151.53,-785.19 1112.96,-769.67 1082.84,-757.55"/>
<polygon fill="black" stroke="black" points="1084.15,-754.31 1073.57,-753.82 1081.54,-760.8 1084.15,-754.31"/>
</g>
<!-- 26 -->
<g id="node26" class="node">
<title>26</title>
<ellipse fill="none" stroke="black" cx="1210.73" cy="-738" rx="93.83" ry="18"/>
<text text-anchor="middle" x="1210.73" y="-732.95" font-family="Times New Roman,serif" font-size="14.00">You: Steal the Primer.</text>
</g>
<!-- 23&#45;&gt;26 -->
<g id="edge27" class="edge">
<title>23&#45;&gt;26</title>
<path fill="none" stroke="black" d="M1210.73,-791.7C1210.73,-784.41 1210.73,-775.73 1210.73,-767.54"/>
<polygon fill="black" stroke="black" points="1214.23,-767.62 1210.73,-757.62 1207.23,-767.62 1214.23,-767.62"/>
</g>
<!-- 31 -->
<g id="node31" class="node">
<title>31</title>
<ellipse fill="none" stroke="black" cx="1532.73" cy="-738" rx="117.37" ry="18"/>
<text text-anchor="middle" x="1532.73" y="-732.95" font-family="Times New Roman,serif" font-size="14.00">You: Flip through the pages.</text>
</g>
<!-- 23&#45;&gt;31 -->
<g id="edge28" class="edge">
<title>23&#45;&gt;31</title>
<path fill="none" stroke="black" d="M1252.49,-799.92C1303.86,-788.75 1392.07,-769.58 1455.83,-755.72"/>
<polygon fill="black" stroke="black" points="1456.52,-759.15 1465.55,-753.6 1455.04,-752.31 1456.52,-759.15"/>
</g>
<!-- 32 -->
<g id="node32" class="node">
<title>32</title>
<ellipse fill="none" stroke="black" cx="2125.73" cy="-738" rx="127.1" ry="18"/>
<text text-anchor="middle" x="2125.73" y="-732.95" font-family="Times New Roman,serif" font-size="14.00">You: I want to buy this Primer.</text>
</g>
<!-- 23&#45;&gt;32 -->
<g id="edge24" class="edge">
<title>23&#45;&gt;32</title>
<path fill="none" stroke="black" d="M1259.27,-805.29C1398.33,-794.65 1801.18,-763.83 2004.83,-748.25"/>
<polygon fill="black" stroke="black" points="2004.95,-751.75 2014.66,-747.5 2004.42,-744.77 2004.95,-751.75"/>
</g>
<!-- 24&#45;&gt;6 -->
<g id="edge29" class="edge">
<title>24&#45;&gt;6</title>
<path fill="none" stroke="black" d="M652.73,-359.7C652.73,-352.41 652.73,-343.73 652.73,-335.54"/>
<polygon fill="black" stroke="black" points="656.23,-335.62 652.73,-325.62 649.23,-335.62 656.23,-335.62"/>
</g>
<!-- 25&#45;&gt;23 -->
<g id="edge30" class="edge">
<title>25&#45;&gt;23</title>
<path fill="none" stroke="black" d="M1210.73,-863.7C1210.73,-856.41 1210.73,-847.73 1210.73,-839.54"/>
<polygon fill="black" stroke="black" points="1214.23,-839.62 1210.73,-829.62 1207.23,-839.62 1214.23,-839.62"/>
</g>
<!-- 27 -->
<g id="node27" class="node">
<title>27</title>
<ellipse fill="none" stroke="black" cx="1118.73" cy="-666" rx="205.41" ry="18"/>
<text text-anchor="middle" x="1118.73" y="-660.95" font-family="Times New Roman,serif" font-size="14.00">You: Variable[&quot;doomed.book_primer_wc_stealing&quot;]</text>
</g>
<!-- 26&#45;&gt;27 -->
<g id="edge31" class="edge">
<title>26&#45;&gt;27</title>
<path fill="none" stroke="black" d="M1188.46,-720.05C1176.99,-711.33 1162.81,-700.54 1150.24,-690.98"/>
<polygon fill="black" stroke="black" points="1152.71,-688.46 1142.64,-685.19 1148.47,-694.03 1152.71,-688.46"/>
</g>
<!-- 28 -->
<g id="node28" class="node">
<title>28</title>
<polygon fill="none" stroke="black" points="1079.73,-612 817.47,-594 1079.73,-576 1341.98,-594 1079.73,-612"/>
<text text-anchor="middle" x="1079.73" y="-588.95" font-family="Times New Roman,serif" font-size="14.00">Variable[&quot;doomed.book_primer_wc_stealing&quot;]</text>
</g>
<!-- 27&#45;&gt;28 -->
<g id="edge32" class="edge">
<title>27&#45;&gt;28</title>
<path fill="none" stroke="black" d="M1109.09,-647.7C1104.68,-639.78 1099.35,-630.23 1094.46,-621.44"/>
<polygon fill="black" stroke="black" points="1097.65,-619.98 1089.72,-612.94 1091.53,-623.38 1097.65,-619.98"/>
</g>
<!-- 29 -->
<g id="node29" class="node">
<title>29</title>
<polygon fill="none" stroke="black" points="1635.73,-612 1360.44,-594 1635.73,-576 1911.01,-594 1635.73,-612"/>
<text text-anchor="middle" x="1635.73" y="-588.95" font-family="Times New Roman,serif" font-size="14.00">!(Variable[&quot;doomed.book_primer_wc_stealing&quot;])</text>
</g>
<!-- 27&#45;&gt;29 -->
<g id="edge33" class="edge">
<title>27&#45;&gt;29</title>
<path fill="none" stroke="black" d="M1227.11,-650.33C1318.73,-637.92 1448.86,-620.3 1537.48,-608.3"/>
<polygon fill="black" stroke="black" points="1537.95,-611.77 1547.39,-606.96 1537.01,-604.83 1537.95,-611.77"/>
</g>
<!-- 28&#45;&gt;18 -->
<g id="edge34" class="edge">
<title>28&#45;&gt;18</title>
<path fill="none" stroke="black" d="M1128.41,-578.92C1163.98,-568.63 1212.74,-554.53 1252.38,-543.06"/>
<polygon fill="black" stroke="black" points="1253.22,-546.46 1261.85,-540.32 1251.27,-539.74 1253.22,-546.46"/>
</g>
<!-- 29&#45;&gt;18 -->
<g id="edge35" class="edge">
<title>29&#45;&gt;18</title>
<path fill="none" stroke="black" d="M1575.18,-579.5C1527.43,-568.86 1460.25,-553.88 1407.04,-542.02"/>
<polygon fill="black" stroke="black" points="1407.92,-538.63 1397.39,-539.87 1406.39,-545.46 1407.92,-538.63"/>
</g>
<!-- 30&#45;&gt;34 -->
<g id="edge36" class="edge">
<title>30&#45;&gt;34</title>
<path fill="none" stroke="black" d="M1166.73,-143.7C1166.73,-136.41 1166.73,-127.73 1166.73,-119.54"/>
<polygon fill="black" stroke="black" points="1170.23,-119.62 1166.73,-109.62 1163.23,-119.62 1170.23,-119.62"/>
</g>
<!-- 31&#45;&gt;7 -->
<g id="edge37" class="edge">
<title>31&#45;&gt;7</title>
<path fill="none" stroke="black" d="M1575.17,-720.94C1600.69,-711.28 1633.49,-698.87 1661.19,-688.39"/>
<polygon fill="black" stroke="black" points="1662.39,-691.68 1670.5,-684.87 1659.91,-685.13 1662.39,-691.68"/>
</g>
<!-- 32&#45;&gt;13 -->
<g id="edge38" class="edge">
<title>32&#45;&gt;13</title>
<path fill="none" stroke="black" d="M2194.31,-722.5C2243.91,-712.01 2311.45,-697.72 2365.59,-686.27"/>
<polygon fill="black" stroke="black" points="2366.03,-689.76 2375.09,-684.26 2364.59,-682.91 2366.03,-689.76"/>
</g>
<!-- 33&#45;&gt;23 -->
<g id="edge39" class="edge">
<title>33&#45;&gt;23</title>
<path fill="none" stroke="black" d="M2666.81,-534.16C2698.68,-541.9 2735.58,-554.79 2763.73,-576 2771.9,-582.16 2845.44,-645.58 2811.73,-684 2708.39,-801.74 1552.41,-809.09 1271.82,-809.13"/>
<polygon fill="black" stroke="black" points="1272.17,-805.63 1262.17,-809.13 1272.17,-812.63 1272.17,-805.63"/>
</g>
<!-- 34&#45;&gt;5720079 -->
<g id="edge40" class="edge">
<title>34&#45;&gt;5720079</title>
<path fill="none" stroke="black" d="M1110.96,-73.81C1069.9,-62.63 1014.06,-47.42 971.62,-35.86"/>
<polygon fill="black" stroke="black" points="972.61,-32.5 962.05,-33.25 970.77,-39.26 972.61,-32.5"/>
</g>
</g>
</svg>
