<?xml version="1.0" encoding="UTF-8" standalone="no"?>
<!DOCTYPE svg PUBLIC "-//W3C//DTD SVG 1.1//EN"
 "http://www.w3.org/Graphics/SVG/1.1/DTD/svg11.dtd">
<!-- Generated by graphviz version 12.2.1 (20241206.2353)
 -->
<!-- Title: G Pages: 1 -->
<svg width="2153pt" height="188pt"
 viewBox="0.00 0.00 2152.99 188.00" xmlns="http://www.w3.org/2000/svg" xmlns:xlink="http://www.w3.org/1999/xlink">
<g id="graph0" class="graph" transform="scale(1 1) rotate(0) translate(4 184)">
<title>G</title>
<polygon fill="white" stroke="none" points="-4,4 -4,-184 2148.99,-184 2148.99,4 -4,4"/>
<!-- 0 -->
<g id="node1" class="node">
<title>0</title>
<ellipse fill="none" stroke="black" cx="131.19" cy="-162" rx="39.07" ry="18"/>
<text text-anchor="middle" x="131.19" y="-156.95" font-family="Times New Roman,serif" font-size="14.00">START</text>
</g>
<!-- 1 -->
<g id="node2" class="node">
<title>1</title>
<ellipse fill="none" stroke="black" cx="131.19" cy="-90" rx="29.86" ry="18"/>
<text text-anchor="middle" x="131.19" y="-84.95" font-family="Times New Roman,serif" font-size="14.00">input</text>
</g>
<!-- 0&#45;&gt;1 -->
<g id="edge1" class="edge">
<title>0&#45;&gt;1</title>
<path fill="none" stroke="black" d="M131.19,-143.7C131.19,-136.41 131.19,-127.73 131.19,-119.54"/>
<polygon fill="black" stroke="black" points="134.69,-119.62 131.19,-109.62 127.69,-119.62 134.69,-119.62"/>
</g>
<!-- 6 -->
<g id="node7" class="node">
<title>6</title>
<ellipse fill="none" stroke="black" cx="131.19" cy="-18" rx="131.19" ry="18"/>
<text text-anchor="middle" x="131.19" y="-12.95" font-family="Times New Roman,serif" font-size="14.00">Bird&#39;s Nest Roy: &quot;Yeah, man...&quot;</text>
</g>
<!-- 1&#45;&gt;6 -->
<g id="edge2" class="edge">
<title>1&#45;&gt;6</title>
<path fill="none" stroke="black" d="M131.19,-71.7C131.19,-64.41 131.19,-55.73 131.19,-47.54"/>
<polygon fill="black" stroke="black" points="134.69,-47.62 131.19,-37.62 127.69,-47.62 134.69,-47.62"/>
</g>
<!-- 2 -->
<g id="node3" class="node">
<title>2</title>
<ellipse fill="none" stroke="black" cx="335.19" cy="-162" rx="147.06" ry="18"/>
<text text-anchor="middle" x="335.19" y="-156.95" font-family="Times New Roman,serif" font-size="14.00">Bird&#39;s Nest Roy: &quot;The light... wow.&quot;</text>
</g>
<!-- 3 -->
<g id="node4" class="node">
<title>3</title>
<ellipse fill="none" stroke="black" cx="618.19" cy="-162" rx="118.4" ry="18"/>
<text text-anchor="middle" x="618.19" y="-156.95" font-family="Times New Roman,serif" font-size="14.00">Bird&#39;s Nest Roy: &quot;... yeah...&quot;</text>
</g>
<!-- 4 -->
<g id="node5" class="node">
<title>4</title>
<ellipse fill="none" stroke="black" cx="972.19" cy="-162" rx="217.18" ry="18"/>
<text text-anchor="middle" x="972.19" y="-156.95" font-family="Times New Roman,serif" font-size="14.00">Bird&#39;s Nest Roy: &quot;If you want to pawn... you&#39;re here...&quot;</text>
</g>
<!-- 5 -->
<g id="node6" class="node">
<title>5</title>
<ellipse fill="none" stroke="black" cx="1392.19" cy="-162" rx="184.93" ry="18"/>
<text text-anchor="middle" x="1392.19" y="-156.95" font-family="Times New Roman,serif" font-size="14.00">Bird&#39;s Nest Roy: &quot;Welcome to the pawnshop!&quot;</text>
</g>
<!-- 7 -->
<g id="node8" class="node">
<title>7</title>
<ellipse fill="none" stroke="black" cx="1725.19" cy="-162" rx="130.17" ry="18"/>
<text text-anchor="middle" x="1725.19" y="-156.95" font-family="Times New Roman,serif" font-size="14.00">Bird&#39;s Nest Roy: &quot;Like... yeah.&quot;</text>
</g>
<!-- 8 -->
<g id="node9" class="node">
<title>8</title>
<ellipse fill="none" stroke="black" cx="2009.19" cy="-162" rx="135.8" ry="18"/>
<text text-anchor="middle" x="2009.19" y="-156.95" font-family="Times New Roman,serif" font-size="14.00">Bird&#39;s Nest Roy: &quot;Radiowaves...&quot;</text>
</g>
</g>
</svg>
