<?xml version="1.0" encoding="UTF-8" standalone="no"?>
<!DOCTYPE svg PUBLIC "-//W3C//DTD SVG 1.1//EN"
 "http://www.w3.org/Graphics/SVG/1.1/DTD/svg11.dtd">
<!-- Generated by graphviz version 12.2.1 (20241206.2353)
 -->
<!-- Title: G Pages: 1 -->
<svg width="2090pt" height="116pt"
 viewBox="0.00 0.00 2089.73 116.00" xmlns="http://www.w3.org/2000/svg" xmlns:xlink="http://www.w3.org/1999/xlink">
<g id="graph0" class="graph" transform="scale(1 1) rotate(0) translate(4 112)">
<title>G</title>
<polygon fill="white" stroke="none" points="-4,4 -4,-112 2085.73,-112 2085.73,4 -4,4"/>
<!-- 0 -->
<g id="node1" class="node">
<title>0</title>
<ellipse fill="none" stroke="black" cx="79.93" cy="-90" rx="39.07" ry="18"/>
<text text-anchor="middle" x="79.93" y="-84.95" font-family="Times New Roman,serif" font-size="14.00">START</text>
</g>
<!-- 0&#45;&gt;0 -->
<g id="edge1" class="edge">
<title>0&#45;&gt;0</title>
<path fill="none" stroke="black" d="M108.12,-102.94C123.23,-105.14 137,-100.83 137,-90 137,-81.96 129.42,-77.52 119.33,-76.65"/>
<polygon fill="black" stroke="black" points="119.5,-73.15 109.63,-77 119.75,-80.14 119.5,-73.15"/>
</g>
<!-- 1 -->
<g id="node2" class="node">
<title>1</title>
<ellipse fill="none" stroke="black" cx="184.93" cy="-90" rx="29.86" ry="18"/>
<text text-anchor="middle" x="184.93" y="-84.95" font-family="Times New Roman,serif" font-size="14.00">input</text>
</g>
<!-- 5 -->
<g id="node6" class="node">
<title>5</title>
<ellipse fill="none" stroke="black" cx="184.93" cy="-18" rx="184.93" ry="18"/>
<text text-anchor="middle" x="184.93" y="-12.95" font-family="Times New Roman,serif" font-size="14.00">Bird&#39;s Nest Roy: &quot;Welcome to the pawnshop!&quot;</text>
</g>
<!-- 1&#45;&gt;5 -->
<g id="edge2" class="edge">
<title>1&#45;&gt;5</title>
<path fill="none" stroke="black" d="M184.93,-71.7C184.93,-64.41 184.93,-55.73 184.93,-47.54"/>
<polygon fill="black" stroke="black" points="188.43,-47.62 184.93,-37.62 181.43,-47.62 188.43,-47.62"/>
</g>
<!-- 2 -->
<g id="node3" class="node">
<title>2</title>
<ellipse fill="none" stroke="black" cx="379.93" cy="-90" rx="147.06" ry="18"/>
<text text-anchor="middle" x="379.93" y="-84.95" font-family="Times New Roman,serif" font-size="14.00">Bird&#39;s Nest Roy: &quot;The light... wow.&quot;</text>
</g>
<!-- 3 -->
<g id="node4" class="node">
<title>3</title>
<ellipse fill="none" stroke="black" cx="662.93" cy="-90" rx="118.4" ry="18"/>
<text text-anchor="middle" x="662.93" y="-84.95" font-family="Times New Roman,serif" font-size="14.00">Bird&#39;s Nest Roy: &quot;... yeah...&quot;</text>
</g>
<!-- 4 -->
<g id="node5" class="node">
<title>4</title>
<ellipse fill="none" stroke="black" cx="1016.93" cy="-90" rx="217.18" ry="18"/>
<text text-anchor="middle" x="1016.93" y="-84.95" font-family="Times New Roman,serif" font-size="14.00">Bird&#39;s Nest Roy: &quot;If you want to pawn... you&#39;re here...&quot;</text>
</g>
<!-- 6 -->
<g id="node7" class="node">
<title>6</title>
<ellipse fill="none" stroke="black" cx="1382.93" cy="-90" rx="131.19" ry="18"/>
<text text-anchor="middle" x="1382.93" y="-84.95" font-family="Times New Roman,serif" font-size="14.00">Bird&#39;s Nest Roy: &quot;Yeah, man...&quot;</text>
</g>
<!-- 7 -->
<g id="node8" class="node">
<title>7</title>
<ellipse fill="none" stroke="black" cx="1661.93" cy="-90" rx="130.17" ry="18"/>
<text text-anchor="middle" x="1661.93" y="-84.95" font-family="Times New Roman,serif" font-size="14.00">Bird&#39;s Nest Roy: &quot;Like... yeah.&quot;</text>
</g>
<!-- 8 -->
<g id="node9" class="node">
<title>8</title>
<ellipse fill="none" stroke="black" cx="1945.93" cy="-90" rx="135.8" ry="18"/>
<text text-anchor="middle" x="1945.93" y="-84.95" font-family="Times New Roman,serif" font-size="14.00">Bird&#39;s Nest Roy: &quot;Radiowaves...&quot;</text>
</g>
</g>
</svg>
