<?xml version="1.0" encoding="UTF-8" standalone="no"?>
<!DOCTYPE svg PUBLIC "-//W3C//DTD SVG 1.1//EN"
 "http://www.w3.org/Graphics/SVG/1.1/DTD/svg11.dtd">
<!-- Generated by graphviz version 12.2.1 (20241206.2353)
 -->
<!-- Title: G Pages: 1 -->
<svg width="592pt" height="116pt"
 viewBox="0.00 0.00 591.80 116.00" xmlns="http://www.w3.org/2000/svg" xmlns:xlink="http://www.w3.org/1999/xlink">
<g id="graph0" class="graph" transform="scale(1 1) rotate(0) translate(4 112)">
<title>G</title>
<polygon fill="white" stroke="none" points="-4,4 -4,-112 587.8,-112 587.8,4 -4,4"/>
<!-- 0 -->
<g id="node1" class="node">
<title>0</title>
<ellipse fill="none" stroke="black" cx="186.9" cy="-90" rx="39.07" ry="18"/>
<text text-anchor="middle" x="186.9" y="-84.95" font-family="Times New Roman,serif" font-size="14.00">START</text>
</g>
<!-- 0&#45;&gt;0 -->
<g id="edge1" class="edge">
<title>0&#45;&gt;0</title>
<path fill="none" stroke="black" d="M215.09,-102.94C230.2,-105.14 243.97,-100.83 243.97,-90 243.97,-81.96 236.39,-77.52 226.3,-76.65"/>
<polygon fill="black" stroke="black" points="226.47,-73.15 216.6,-77 226.72,-80.14 226.47,-73.15"/>
</g>
<!-- 1 -->
<g id="node2" class="node">
<title>1</title>
<ellipse fill="none" stroke="black" cx="291.9" cy="-90" rx="29.86" ry="18"/>
<text text-anchor="middle" x="291.9" y="-84.95" font-family="Times New Roman,serif" font-size="14.00">input</text>
</g>
<!-- 2 -->
<g id="node3" class="node">
<title>2</title>
<ellipse fill="none" stroke="black" cx="291.9" cy="-18" rx="291.9" ry="18"/>
<text text-anchor="middle" x="291.9" y="-12.95" font-family="Times New Roman,serif" font-size="14.00">Kim Kitsuragi: &quot;Not top&#45;of&#45;the&#45;line glass. Hope he never has to rely on it.&quot;</text>
</g>
<!-- 1&#45;&gt;2 -->
<g id="edge2" class="edge">
<title>1&#45;&gt;2</title>
<path fill="none" stroke="black" d="M291.9,-71.7C291.9,-64.41 291.9,-55.73 291.9,-47.54"/>
<polygon fill="black" stroke="black" points="295.4,-47.62 291.9,-37.62 288.4,-47.62 295.4,-47.62"/>
</g>
</g>
</svg>
