<?xml version="1.0" encoding="UTF-8" standalone="no"?>
<!DOCTYPE svg PUBLIC "-//W3C//DTD SVG 1.1//EN"
 "http://www.w3.org/Graphics/SVG/1.1/DTD/svg11.dtd">
<!-- Generated by graphviz version 12.2.1 (20241206.2353)
 -->
<!-- Title: G Pages: 1 -->
<svg width="4720pt" height="116pt"
 viewBox="0.00 0.00 4719.87 116.00" xmlns="http://www.w3.org/2000/svg" xmlns:xlink="http://www.w3.org/1999/xlink">
<g id="graph0" class="graph" transform="scale(1 1) rotate(0) translate(4 112)">
<title>G</title>
<polygon fill="white" stroke="none" points="-4,4 -4,-112 4715.87,-112 4715.87,4 -4,4"/>
<!-- 0 -->
<g id="node1" class="node">
<title>0</title>
<ellipse fill="none" stroke="black" cx="2427.59" cy="-90" rx="39.07" ry="18"/>
<text text-anchor="middle" x="2427.59" y="-84.95" font-family="Times New Roman,serif" font-size="14.00">START</text>
</g>
<!-- 0&#45;&gt;0 -->
<g id="edge1" class="edge">
<title>0&#45;&gt;0</title>
<path fill="none" stroke="black" d="M2455.77,-102.94C2470.89,-105.14 2484.65,-100.83 2484.65,-90 2484.65,-81.96 2477.07,-77.52 2466.98,-76.65"/>
<polygon fill="black" stroke="black" points="2467.16,-73.15 2457.29,-77 2467.41,-80.14 2467.16,-73.15"/>
</g>
<!-- 1 -->
<g id="node2" class="node">
<title>1</title>
<ellipse fill="none" stroke="black" cx="2532.59" cy="-90" rx="29.86" ry="18"/>
<text text-anchor="middle" x="2532.59" y="-84.95" font-family="Times New Roman,serif" font-size="14.00">input</text>
</g>
<!-- 1&#45;&gt;1 -->
<g id="edge2" class="edge">
<title>1&#45;&gt;1</title>
<path fill="none" stroke="black" d="M2554.24,-102.55C2567.67,-105.57 2580.44,-101.39 2580.44,-90 2580.44,-81.99 2574.13,-77.55 2565.71,-76.66"/>
<polygon fill="black" stroke="black" points="2565.49,-73.17 2555.75,-77.35 2565.97,-80.15 2565.49,-73.17"/>
</g>
<!-- 2 -->
<g id="node3" class="node">
<title>2</title>
<ellipse fill="none" stroke="black" cx="256.59" cy="-18" rx="256.59" ry="18"/>
<text text-anchor="middle" x="256.59" y="-12.95" font-family="Times New Roman,serif" font-size="14.00">René Arnoux: &quot;Wouldn&#39;t even pick it up, if my heart wasn&#39;t in it.&quot;</text>
</g>
<!-- 1&#45;&gt;2 -->
<g id="edge3" class="edge">
<title>1&#45;&gt;2</title>
<path fill="none" stroke="black" d="M2510.41,-77.55C2505.03,-75.28 2499.22,-73.23 2493.59,-72 2279.47,-25.32 740.55,-45.02 521.59,-36 496.61,-34.97 470.32,-33.62 444.4,-32.12"/>
<polygon fill="black" stroke="black" points="444.63,-28.62 434.44,-31.53 444.21,-35.61 444.63,-28.62"/>
</g>
<!-- 3 -->
<g id="node4" class="node">
<title>3</title>
<ellipse fill="none" stroke="black" cx="723.59" cy="-18" rx="192.61" ry="18"/>
<text text-anchor="middle" x="723.59" y="-12.95" font-family="Times New Roman,serif" font-size="14.00">René Arnoux: &quot;Stop complaining and hurry up!&quot;</text>
</g>
<!-- 1&#45;&gt;3 -->
<g id="edge4" class="edge">
<title>1&#45;&gt;3</title>
<path fill="none" stroke="black" d="M2510.4,-77.57C2505.03,-75.3 2499.21,-73.24 2493.59,-72 2323.3,-34.46 1098.71,-45.35 924.59,-36 906.17,-35.01 886.82,-33.71 867.71,-32.27"/>
<polygon fill="black" stroke="black" points="868.24,-28.8 858,-31.52 867.7,-35.78 868.24,-28.8"/>
</g>
<!-- 4 -->
<g id="node5" class="node">
<title>4</title>
<ellipse fill="none" stroke="black" cx="1175.59" cy="-18" rx="241.74" ry="18"/>
<text text-anchor="middle" x="1175.59" y="-12.95" font-family="Times New Roman,serif" font-size="14.00">René Arnoux: &quot;Don&#39;t get mayonnaise on the measuring tape.&quot;</text>
</g>
<!-- 1&#45;&gt;4 -->
<g id="edge5" class="edge">
<title>1&#45;&gt;4</title>
<path fill="none" stroke="black" d="M2510.39,-77.62C2505.02,-75.35 2499.21,-73.27 2493.59,-72 2262.18,-19.67 1663.53,-48.02 1426.59,-36 1403.71,-34.84 1379.67,-33.44 1355.91,-31.95"/>
<polygon fill="black" stroke="black" points="1356.36,-28.47 1346.16,-31.33 1355.92,-35.46 1356.36,-28.47"/>
</g>
<!-- 5 -->
<g id="node6" class="node">
<title>5</title>
<ellipse fill="none" stroke="black" cx="1630.59" cy="-18" rx="195.17" ry="18"/>
<text text-anchor="middle" x="1630.59" y="-12.95" font-family="Times New Roman,serif" font-size="14.00">René Arnoux: &quot;I&#39;m fine, just a little heart burn...&quot;</text>
</g>
<!-- 1&#45;&gt;5 -->
<g id="edge6" class="edge">
<title>1&#45;&gt;5</title>
<path fill="none" stroke="black" d="M2510.37,-77.7C2505,-75.43 2499.19,-73.33 2493.59,-72 2350.88,-38.16 1980.9,-46.09 1834.59,-36 1816.97,-34.79 1798.51,-33.4 1780.19,-31.96"/>
<polygon fill="black" stroke="black" points="1780.57,-28.48 1770.32,-31.18 1780.01,-35.46 1780.57,-28.48"/>
</g>
<!-- 6 -->
<g id="node7" class="node">
<title>6</title>
<ellipse fill="none" stroke="black" cx="2108.59" cy="-18" rx="264.78" ry="18"/>
<text text-anchor="middle" x="2108.59" y="-12.95" font-family="Times New Roman,serif" font-size="14.00">René Arnoux: &quot;*Mon dieu*, how much can a man whine, Gaston?&quot;</text>
</g>
<!-- 1&#45;&gt;6 -->
<g id="edge7" class="edge">
<title>1&#45;&gt;6</title>
<path fill="none" stroke="black" d="M2509.87,-77.86C2504.62,-75.63 2498.99,-73.52 2493.59,-72 2428.04,-53.58 2354.34,-41.45 2289.11,-33.51"/>
<polygon fill="black" stroke="black" points="2289.72,-30.06 2279.38,-32.35 2288.9,-37.01 2289.72,-30.06"/>
</g>
<!-- 7 -->
<g id="node8" class="node">
<title>7</title>
<ellipse fill="none" stroke="black" cx="2532.59" cy="-18" rx="140.92" ry="18"/>
<text text-anchor="middle" x="2532.59" y="-12.95" font-family="Times New Roman,serif" font-size="14.00">René Arnoux: &quot;Goddamn ticker...&quot;</text>
</g>
<!-- 1&#45;&gt;7 -->
<g id="edge8" class="edge">
<title>1&#45;&gt;7</title>
<path fill="none" stroke="black" d="M2532.59,-71.7C2532.59,-64.41 2532.59,-55.73 2532.59,-47.54"/>
<polygon fill="black" stroke="black" points="2536.09,-47.62 2532.59,-37.62 2529.09,-47.62 2536.09,-47.62"/>
</g>
<!-- 8 -->
<g id="node9" class="node">
<title>8</title>
<ellipse fill="none" stroke="black" cx="2876.59" cy="-18" rx="185.45" ry="18"/>
<text text-anchor="middle" x="2876.59" y="-12.95" font-family="Times New Roman,serif" font-size="14.00">René Arnoux: &quot;Strange, I could have sworn...&quot;</text>
</g>
<!-- 1&#45;&gt;8 -->
<g id="edge9" class="edge">
<title>1&#45;&gt;8</title>
<path fill="none" stroke="black" d="M2558.53,-80.62C2568.22,-77.66 2579.35,-74.47 2589.59,-72 2649.04,-57.69 2716.22,-45.09 2770.63,-35.77"/>
<polygon fill="black" stroke="black" points="2770.92,-39.27 2780.19,-34.15 2769.75,-32.37 2770.92,-39.27"/>
</g>
<!-- 9 -->
<g id="node10" class="node">
<title>9</title>
<ellipse fill="none" stroke="black" cx="3312.59" cy="-18" rx="232.53" ry="18"/>
<text text-anchor="middle" x="3312.59" y="-12.95" font-family="Times New Roman,serif" font-size="14.00">René Arnoux: &quot;I feel 20 years younger every time it rains.&quot;</text>
</g>
<!-- 1&#45;&gt;9 -->
<g id="edge10" class="edge">
<title>1&#45;&gt;9</title>
<path fill="none" stroke="black" d="M2558.12,-80.1C2567.85,-77.05 2579.12,-73.92 2589.59,-72 2602.88,-69.56 2924.09,-46.52 3133.85,-31.63"/>
<polygon fill="black" stroke="black" points="3134.08,-35.12 3143.8,-30.92 3133.58,-28.14 3134.08,-35.12"/>
</g>
<!-- 10 -->
<g id="node11" class="node">
<title>10</title>
<ellipse fill="none" stroke="black" cx="3745.59" cy="-18" rx="182.37" ry="18"/>
<text text-anchor="middle" x="3745.59" y="-12.95" font-family="Times New Roman,serif" font-size="14.00">René Arnoux: &quot;So the wind is... yes, perfect.&quot;</text>
</g>
<!-- 1&#45;&gt;10 -->
<g id="edge11" class="edge">
<title>1&#45;&gt;10</title>
<path fill="none" stroke="black" d="M2557.8,-79.99C2567.6,-76.88 2578.99,-73.75 2589.59,-72 3013.05,-2.11 3126.25,-63.03 3554.59,-36 3571.56,-34.93 3589.38,-33.61 3607.01,-32.18"/>
<polygon fill="black" stroke="black" points="3607.07,-35.69 3616.75,-31.38 3606.5,-28.71 3607.07,-35.69"/>
</g>
<!-- 11 -->
<g id="node12" class="node">
<title>11</title>
<ellipse fill="none" stroke="black" cx="4141.59" cy="-18" rx="195.68" ry="18"/>
<text text-anchor="middle" x="4141.59" y="-12.95" font-family="Times New Roman,serif" font-size="14.00">René Arnoux: &quot;It&#39;s a different game in the snow.&quot;</text>
</g>
<!-- 1&#45;&gt;11 -->
<g id="edge12" class="edge">
<title>1&#45;&gt;11</title>
<path fill="none" stroke="black" d="M2557.79,-79.93C2567.59,-76.82 2578.98,-73.69 2589.59,-72 2885.28,-24.8 3637.59,-52.38 3936.59,-36 3955.29,-34.98 3974.94,-33.66 3994.35,-32.21"/>
<polygon fill="black" stroke="black" points="3994.54,-35.7 4004.24,-31.46 3994.01,-28.72 3994.54,-35.7"/>
</g>
<!-- 13 -->
<g id="node14" class="node">
<title>13</title>
<ellipse fill="none" stroke="black" cx="4533.59" cy="-18" rx="178.28" ry="18"/>
<text text-anchor="middle" x="4533.59" y="-12.95" font-family="Times New Roman,serif" font-size="14.00">René Arnoux: &quot;Is my aim really *that* off?&quot;</text>
</g>
<!-- 1&#45;&gt;13 -->
<g id="edge13" class="edge">
<title>1&#45;&gt;13</title>
<path fill="none" stroke="black" d="M2557.79,-79.89C2567.58,-76.78 2578.98,-73.66 2589.59,-72 2975.42,-11.65 3956.66,-57.69 4346.59,-36 4363.69,-35.05 4381.65,-33.77 4399.39,-32.34"/>
<polygon fill="black" stroke="black" points="4399.52,-35.84 4409.2,-31.53 4398.94,-28.87 4399.52,-35.84"/>
</g>
<!-- 12 -->
<g id="node13" class="node">
<title>12</title>
<ellipse fill="none" stroke="black" cx="2871.59" cy="-90" rx="273.48" ry="18"/>
<text text-anchor="middle" x="2871.59" y="-84.95" font-family="Times New Roman,serif" font-size="14.00">René Arnoux: &quot;Build a solid routine and stick to it. That&#39;s all there is.&quot;</text>
</g>
</g>
</svg>
