<?xml version="1.0" encoding="UTF-8" standalone="no"?>
<!DOCTYPE svg PUBLIC "-//W3C//DTD SVG 1.1//EN"
 "http://www.w3.org/Graphics/SVG/1.1/DTD/svg11.dtd">
<!-- Generated by graphviz version 12.2.1 (20241206.2353)
 -->
<!-- Title: G Pages: 1 -->
<svg width="4272pt" height="188pt"
 viewBox="0.00 0.00 4272.06 188.00" xmlns="http://www.w3.org/2000/svg" xmlns:xlink="http://www.w3.org/1999/xlink">
<g id="graph0" class="graph" transform="scale(1 1) rotate(0) translate(4 184)">
<title>G</title>
<polygon fill="white" stroke="none" points="-4,4 -4,-184 4268.06,-184 4268.06,4 -4,4"/>
<!-- 0 -->
<g id="node1" class="node">
<title>0</title>
<ellipse fill="none" stroke="black" cx="2087.5" cy="-162" rx="39.07" ry="18"/>
<text text-anchor="middle" x="2087.5" y="-156.95" font-family="Times New Roman,serif" font-size="14.00">START</text>
</g>
<!-- 1 -->
<g id="node2" class="node">
<title>1</title>
<ellipse fill="none" stroke="black" cx="2087.5" cy="-90" rx="29.86" ry="18"/>
<text text-anchor="middle" x="2087.5" y="-84.95" font-family="Times New Roman,serif" font-size="14.00">input</text>
</g>
<!-- 0&#45;&gt;1 -->
<g id="edge1" class="edge">
<title>0&#45;&gt;1</title>
<path fill="none" stroke="black" d="M2087.5,-143.7C2087.5,-136.41 2087.5,-127.73 2087.5,-119.54"/>
<polygon fill="black" stroke="black" points="2091,-119.62 2087.5,-109.62 2084,-119.62 2091,-119.62"/>
</g>
<!-- 3 -->
<g id="node4" class="node">
<title>3</title>
<ellipse fill="none" stroke="black" cx="274.5" cy="-18" rx="274.5" ry="18"/>
<text text-anchor="middle" x="274.5" y="-12.95" font-family="Times New Roman,serif" font-size="14.00">Gaston Martin: &quot;Yes, yes, the good old days. The all or nothing days.&quot;</text>
</g>
<!-- 1&#45;&gt;3 -->
<g id="edge2" class="edge">
<title>1&#45;&gt;3</title>
<path fill="none" stroke="black" d="M2057.29,-88.24C1900.28,-84.22 1161.48,-64.6 557.5,-36 531.8,-34.78 504.79,-33.35 478.08,-31.85"/>
<polygon fill="black" stroke="black" points="478.35,-28.36 468.17,-31.29 477.95,-35.35 478.35,-28.36"/>
</g>
<!-- 4 -->
<g id="node5" class="node">
<title>4</title>
<ellipse fill="none" stroke="black" cx="832.5" cy="-18" rx="265.8" ry="18"/>
<text text-anchor="middle" x="832.5" y="-12.95" font-family="Times New Roman,serif" font-size="14.00">Gaston Martin: &quot;*Mon dieu*, the pain is exceptionally bad today...&quot;</text>
</g>
<!-- 1&#45;&gt;4 -->
<g id="edge3" class="edge">
<title>1&#45;&gt;4</title>
<path fill="none" stroke="black" d="M2057.83,-87.48C1938.57,-81.35 1482.57,-57.74 1107.5,-36 1083.69,-34.62 1058.72,-33.13 1033.95,-31.63"/>
<polygon fill="black" stroke="black" points="1034.29,-28.15 1024.1,-31.03 1033.86,-35.13 1034.29,-28.15"/>
</g>
<!-- 5 -->
<g id="node6" class="node">
<title>5</title>
<ellipse fill="none" stroke="black" cx="1359.5" cy="-18" rx="243.28" ry="18"/>
<text text-anchor="middle" x="1359.5" y="-12.95" font-family="Times New Roman,serif" font-size="14.00">Gaston Martin: &quot;Argh.. my back! I swear it&#39;s getting worse...&quot;</text>
</g>
<!-- 1&#45;&gt;5 -->
<g id="edge4" class="edge">
<title>1&#45;&gt;5</title>
<path fill="none" stroke="black" d="M2058.06,-86.17C1968.08,-77.52 1692.11,-50.98 1515.16,-33.97"/>
<polygon fill="black" stroke="black" points="1515.71,-30.5 1505.42,-33.03 1515.04,-37.47 1515.71,-30.5"/>
</g>
<!-- 7 -->
<g id="node7" class="node">
<title>7</title>
<ellipse fill="none" stroke="black" cx="1850.5" cy="-18" rx="229.97" ry="18"/>
<text text-anchor="middle" x="1850.5" y="-12.95" font-family="Times New Roman,serif" font-size="14.00">Gaston Martin: &quot;Would you like to play alone tomorrow?&quot;</text>
</g>
<!-- 1&#45;&gt;7 -->
<g id="edge5" class="edge">
<title>1&#45;&gt;7</title>
<path fill="none" stroke="black" d="M2061.23,-81.24C2027.02,-71.14 1965.96,-53.1 1918.34,-39.04"/>
<polygon fill="black" stroke="black" points="1919.51,-35.73 1908.93,-36.26 1917.53,-42.45 1919.51,-35.73"/>
</g>
<!-- 8 -->
<g id="node8" class="node">
<title>8</title>
<ellipse fill="none" stroke="black" cx="2325.5" cy="-18" rx="226.9" ry="18"/>
<text text-anchor="middle" x="2325.5" y="-12.95" font-family="Times New Roman,serif" font-size="14.00">Gaston Martin: &quot;You are the angriest man I know, René.&quot;</text>
</g>
<!-- 1&#45;&gt;8 -->
<g id="edge6" class="edge">
<title>1&#45;&gt;8</title>
<path fill="none" stroke="black" d="M2113.88,-81.24C2148.24,-71.14 2209.55,-53.1 2257.37,-39.04"/>
<polygon fill="black" stroke="black" points="2258.22,-42.44 2266.83,-36.26 2256.25,-35.72 2258.22,-42.44"/>
</g>
<!-- 9 -->
<g id="node9" class="node">
<title>9</title>
<ellipse fill="none" stroke="black" cx="2873.5" cy="-18" rx="302.65" ry="18"/>
<text text-anchor="middle" x="2873.5" y="-12.95" font-family="Times New Roman,serif" font-size="14.00">Gaston Martin: &quot;How long have we known each other? Almost eighty years?&quot;</text>
</g>
<!-- 1&#45;&gt;9 -->
<g id="edge7" class="edge">
<title>1&#45;&gt;9</title>
<path fill="none" stroke="black" d="M2116.88,-86.38C2210.33,-78.06 2505.91,-51.74 2698.77,-34.56"/>
<polygon fill="black" stroke="black" points="2699.02,-38.05 2708.67,-33.68 2698.4,-31.08 2699.02,-38.05"/>
</g>
<!-- 10 -->
<g id="node10" class="node">
<title>10</title>
<ellipse fill="none" stroke="black" cx="3464.5" cy="-18" rx="270.41" ry="18"/>
<text text-anchor="middle" x="3464.5" y="-12.95" font-family="Times New Roman,serif" font-size="14.00">Gaston Martin: &quot;Not bad, René, you might stand a chance this time.&quot;</text>
</g>
<!-- 1&#45;&gt;10 -->
<g id="edge8" class="edge">
<title>1&#45;&gt;10</title>
<path fill="none" stroke="black" d="M2117.2,-87.7C2245.1,-82.1 2761.5,-59.15 3185.5,-36 3209.98,-34.66 3235.67,-33.19 3261.13,-31.69"/>
<polygon fill="black" stroke="black" points="3261.12,-35.2 3270.9,-31.11 3260.71,-28.21 3261.12,-35.2"/>
</g>
<!-- 11 -->
<g id="node11" class="node">
<title>11</title>
<ellipse fill="none" stroke="black" cx="4008.5" cy="-18" rx="255.56" ry="18"/>
<text text-anchor="middle" x="4008.5" y="-12.95" font-family="Times New Roman,serif" font-size="14.00">Gaston Martin: &quot;I&#39;ll just measure... *ouch*. I can barely move...&quot;</text>
</g>
<!-- 1&#45;&gt;11 -->
<g id="edge9" class="edge">
<title>1&#45;&gt;11</title>
<path fill="none" stroke="black" d="M2117.72,-88.39C2282.24,-85.02 3086.62,-67.57 3743.5,-36 3767.87,-34.83 3793.49,-33.42 3818.79,-31.91"/>
<polygon fill="black" stroke="black" points="3818.72,-35.42 3828.49,-31.33 3818.3,-28.43 3818.72,-35.42"/>
</g>
<!-- 2 -->
<g id="node3" class="node">
<title>2</title>
<ellipse fill="none" stroke="black" cx="2273.5" cy="-162" rx="128.63" ry="18"/>
<text text-anchor="middle" x="2273.5" y="-156.95" font-family="Times New Roman,serif" font-size="14.00">Gaston Martin: *chews loudly*</text>
</g>
</g>
</svg>
