<?xml version="1.0" encoding="UTF-8" standalone="no"?>
<!DOCTYPE svg PUBLIC "-//W3C//DTD SVG 1.1//EN"
 "http://www.w3.org/Graphics/SVG/1.1/DTD/svg11.dtd">
<!-- Generated by graphviz version 12.2.1 (20241206.2353)
 -->
<!-- Title: G Pages: 1 -->
<svg width="3748pt" height="764pt"
 viewBox="0.00 0.00 3747.59 764.00" xmlns="http://www.w3.org/2000/svg" xmlns:xlink="http://www.w3.org/1999/xlink">
<g id="graph0" class="graph" transform="scale(1 1) rotate(0) translate(4 760)">
<title>G</title>
<polygon fill="white" stroke="none" points="-4,4 -4,-760 3743.59,-760 3743.59,4 -4,4"/>
<!-- 0 -->
<g id="node1" class="node">
<title>0</title>
<ellipse fill="none" stroke="black" cx="719" cy="-738" rx="39.07" ry="18"/>
<text text-anchor="middle" x="719" y="-732.95" font-family="Times New Roman,serif" font-size="14.00">START</text>
</g>
<!-- 1 -->
<g id="node2" class="node">
<title>1</title>
<ellipse fill="none" stroke="black" cx="719" cy="-666" rx="29.86" ry="18"/>
<text text-anchor="middle" x="719" y="-660.95" font-family="Times New Roman,serif" font-size="14.00">input</text>
</g>
<!-- 0&#45;&gt;1 -->
<g id="edge1" class="edge">
<title>0&#45;&gt;1</title>
<path fill="none" stroke="black" d="M719,-719.7C719,-712.41 719,-703.73 719,-695.54"/>
<polygon fill="black" stroke="black" points="722.5,-695.62 719,-685.62 715.5,-695.62 722.5,-695.62"/>
</g>
<!-- 17 -->
<g id="node18" class="node">
<title>17</title>
<polygon fill="none" stroke="black" points="719,-612 636.25,-594 719,-576 801.76,-594 719,-612"/>
<text text-anchor="middle" x="719" y="-588.95" font-family="Times New Roman,serif" font-size="14.00">IsKimHere()</text>
</g>
<!-- 1&#45;&gt;17 -->
<g id="edge2" class="edge">
<title>1&#45;&gt;17</title>
<path fill="none" stroke="black" d="M719,-647.7C719,-640.41 719,-631.73 719,-623.54"/>
<polygon fill="black" stroke="black" points="722.5,-623.62 719,-613.62 715.5,-623.62 722.5,-623.62"/>
</g>
<!-- 2 -->
<g id="node3" class="node">
<title>2</title>
<ellipse fill="none" stroke="black" cx="2633" cy="-450" rx="557.53" ry="18"/>
<text text-anchor="middle" x="2633" y="-444.95" font-family="Times New Roman,serif" font-size="14.00">Esprit de Corps: If only Kim were here right now! You could ask him if he sees a case here. The sight of those bullet holes stirs something in you.</text>
</g>
<!-- 28 -->
<g id="node29" class="node">
<title>28</title>
<ellipse fill="none" stroke="black" cx="2748" cy="-378" rx="173.67" ry="18"/>
<text text-anchor="middle" x="2748" y="-372.95" font-family="Times New Roman,serif" font-size="14.00">Kim Kitsuragi: &quot;Where?&quot; He looks around.</text>
</g>
<!-- 2&#45;&gt;28 -->
<g id="edge3" class="edge">
<title>2&#45;&gt;28</title>
<path fill="none" stroke="black" d="M2661.43,-431.7C2676.19,-422.71 2694.42,-411.61 2710.34,-401.92"/>
<polygon fill="black" stroke="black" points="2711.89,-405.08 2718.61,-396.89 2708.25,-399.1 2711.89,-405.08"/>
</g>
<!-- 3 -->
<g id="node4" class="node">
<title>3</title>
<ellipse fill="none" stroke="black" cx="318" cy="-450" rx="231" ry="18"/>
<text text-anchor="middle" x="318" y="-444.95" font-family="Times New Roman,serif" font-size="14.00">You: &quot;Okay. What can you tell me about this Revolution?&quot;</text>
</g>
<!-- 4 -->
<g id="node5" class="node">
<title>4</title>
<ellipse fill="none" stroke="black" cx="318" cy="-306" rx="318" ry="18"/>
<text text-anchor="middle" x="318" y="-300.95" font-family="Times New Roman,serif" font-size="14.00">Kim Kitsuragi: &quot;Not much. I don&#39;t have a *fresh perspective* on it. Shall we go?&quot;</text>
</g>
<!-- 3&#45;&gt;4 -->
<g id="edge4" class="edge">
<title>3&#45;&gt;4</title>
<path fill="none" stroke="black" d="M318,-431.59C318,-407.61 318,-364.14 318,-335.42"/>
<polygon fill="black" stroke="black" points="321.5,-335.62 318,-325.62 314.5,-335.62 321.5,-335.62"/>
</g>
<!-- 5 -->
<g id="node6" class="node">
<title>5</title>
<ellipse fill="none" stroke="black" cx="518" cy="-162" rx="58.52" ry="18"/>
<text text-anchor="middle" x="518" y="-156.95" font-family="Times New Roman,serif" font-size="14.00">IsKimHere()</text>
</g>
<!-- 6 -->
<g id="node7" class="node">
<title>6</title>
<polygon fill="none" stroke="black" points="792,-108 709.25,-90 792,-72 874.76,-90 792,-108"/>
<text text-anchor="middle" x="792" y="-84.95" font-family="Times New Roman,serif" font-size="14.00">IsKimHere()</text>
</g>
<!-- 5&#45;&gt;6 -->
<g id="edge5" class="edge">
<title>5&#45;&gt;6</title>
<path fill="none" stroke="black" d="M562.03,-149.75C611.81,-137.03 692.62,-116.39 743.99,-103.27"/>
<polygon fill="black" stroke="black" points="744.83,-106.66 753.65,-100.8 743.1,-99.88 744.83,-106.66"/>
</g>
<!-- 7 -->
<g id="node8" class="node">
<title>7</title>
<polygon fill="none" stroke="black" points="518,-108 422.22,-90 518,-72 613.79,-90 518,-108"/>
<text text-anchor="middle" x="518" y="-84.95" font-family="Times New Roman,serif" font-size="14.00">!(IsKimHere())</text>
</g>
<!-- 5&#45;&gt;7 -->
<g id="edge6" class="edge">
<title>5&#45;&gt;7</title>
<path fill="none" stroke="black" d="M518,-143.7C518,-136.41 518,-127.73 518,-119.54"/>
<polygon fill="black" stroke="black" points="521.5,-119.62 518,-109.62 514.5,-119.62 521.5,-119.62"/>
</g>
<!-- 8 -->
<g id="node9" class="node">
<title>8</title>
<ellipse fill="none" stroke="black" cx="867" cy="-18" rx="172.65" ry="18"/>
<text text-anchor="middle" x="867" y="-12.95" font-family="Times New Roman,serif" font-size="14.00">Visual Calculus: They look pretty ancient...</text>
</g>
<!-- 6&#45;&gt;8 -->
<g id="edge7" class="edge">
<title>6&#45;&gt;8</title>
<path fill="none" stroke="black" d="M807.18,-74.83C816.66,-65.98 829.14,-54.34 840.24,-43.98"/>
<polygon fill="black" stroke="black" points="842.37,-46.78 847.29,-37.4 837.59,-41.67 842.37,-46.78"/>
</g>
<!-- 22 -->
<g id="node23" class="node">
<title>22</title>
<ellipse fill="none" stroke="black" cx="1189" cy="-378" rx="366.11" ry="18"/>
<text text-anchor="middle" x="1189" y="-372.95" font-family="Times New Roman,serif" font-size="14.00">You: (Point to the chips in the wall.) &quot;Someone has been shot! We&#39;re cops, we should solve it.&quot;</text>
</g>
<!-- 8&#45;&gt;22 -->
<g id="edge8" class="edge">
<title>8&#45;&gt;22</title>
<path fill="none" stroke="black" d="M883.28,-36.27C905.34,-61.55 942,-111.09 942,-161 942,-235 942,-235 942,-235 942,-275.45 932.66,-295.14 961,-324 975.41,-338.67 1014.06,-350.03 1055.54,-358.39"/>
<polygon fill="black" stroke="black" points="1054.74,-361.8 1065.22,-360.28 1056.07,-354.93 1054.74,-361.8"/>
</g>
<!-- 9 -->
<g id="node10" class="node">
<title>9</title>
<ellipse fill="none" stroke="black" cx="1125" cy="-738" rx="349.22" ry="18"/>
<text text-anchor="middle" x="1125" y="-732.95" font-family="Times New Roman,serif" font-size="14.00">Kim Kitsuragi: He nods. &quot;We should focus on present crimes &#45;&#45; from the present century.&quot;</text>
</g>
<!-- 10 -->
<g id="node11" class="node">
<title>10</title>
<ellipse fill="none" stroke="black" cx="576" cy="-378" rx="228.95" ry="18"/>
<text text-anchor="middle" x="576" y="-372.95" font-family="Times New Roman,serif" font-size="14.00">You: &quot;Okay. What can you tell me about the Revolution?&quot;</text>
</g>
<!-- 10&#45;&gt;4 -->
<g id="edge9" class="edge">
<title>10&#45;&gt;4</title>
<path fill="none" stroke="black" d="M514.21,-360.23C477.41,-350.25 430.5,-337.52 391.78,-327.02"/>
<polygon fill="black" stroke="black" points="393.12,-323.75 382.55,-324.51 391.28,-330.51 393.12,-323.75"/>
</g>
<!-- 11 -->
<g id="node12" class="node">
<title>11</title>
<ellipse fill="none" stroke="black" cx="719" cy="-450" rx="152.18" ry="18"/>
<text text-anchor="middle" x="719" y="-444.95" font-family="Times New Roman,serif" font-size="14.00">You: &quot;Alright then.&quot; [Finish thought.]</text>
</g>
<!-- 11&#45;&gt;10 -->
<g id="edge10" class="edge">
<title>11&#45;&gt;10</title>
<path fill="none" stroke="black" d="M684.39,-432.05C665.52,-422.82 641.94,-411.28 621.6,-401.32"/>
<polygon fill="black" stroke="black" points="623.17,-398.19 612.65,-396.94 620.1,-404.48 623.17,-398.19"/>
</g>
<!-- 12 -->
<g id="node13" class="node">
<title>12</title>
<ellipse fill="none" stroke="black" cx="1508" cy="-450" rx="418.32" ry="18"/>
<text text-anchor="middle" x="1508" y="-444.95" font-family="Times New Roman,serif" font-size="14.00">Esprit de Corps: The sight of bullet holes stirs something in you, making you forget the lieutenant&#39;s surname.</text>
</g>
<!-- 12&#45;&gt;22 -->
<g id="edge13" class="edge">
<title>12&#45;&gt;22</title>
<path fill="none" stroke="black" d="M1429.97,-431.88C1383.94,-421.78 1325.53,-408.96 1277.75,-398.47"/>
<polygon fill="black" stroke="black" points="1278.78,-395.12 1268.26,-396.39 1277.28,-401.95 1278.78,-395.12"/>
</g>
<!-- 27 -->
<g id="node28" class="node">
<title>27</title>
<ellipse fill="none" stroke="black" cx="1669" cy="-378" rx="95.37" ry="18"/>
<text text-anchor="middle" x="1669" y="-372.95" font-family="Times New Roman,serif" font-size="14.00">You: Look closer first.</text>
</g>
<!-- 12&#45;&gt;27 -->
<g id="edge11" class="edge">
<title>12&#45;&gt;27</title>
<path fill="none" stroke="black" d="M1547.8,-431.7C1570.17,-421.97 1598.23,-409.77 1621.71,-399.56"/>
<polygon fill="black" stroke="black" points="1622.98,-402.83 1630.76,-395.63 1620.19,-396.41 1622.98,-402.83"/>
</g>
<!-- 12&#45;&gt;28 -->
<g id="edge12" class="edge">
<title>12&#45;&gt;28</title>
<path fill="none" stroke="black" d="M1754.84,-435.07C2002.25,-421.1 2375.9,-400.01 2587.32,-388.07"/>
<polygon fill="black" stroke="black" points="2587.21,-391.58 2597,-387.52 2586.82,-384.59 2587.21,-391.58"/>
</g>
<!-- 13 -->
<g id="node14" class="node">
<title>13</title>
<ellipse fill="none" stroke="black" cx="719" cy="-522" rx="75.41" ry="18"/>
<text text-anchor="middle" x="719" y="-516.95" font-family="Times New Roman,serif" font-size="14.00">Untitled hub (02)</text>
</g>
<!-- 13&#45;&gt;3 -->
<g id="edge15" class="edge">
<title>13&#45;&gt;3</title>
<path fill="none" stroke="black" d="M659.4,-510.6C596.5,-499.62 496.18,-482.1 420.53,-468.9"/>
<polygon fill="black" stroke="black" points="421.5,-465.51 411.05,-467.24 420.3,-472.41 421.5,-465.51"/>
</g>
<!-- 13&#45;&gt;11 -->
<g id="edge14" class="edge">
<title>13&#45;&gt;11</title>
<path fill="none" stroke="black" d="M719,-503.7C719,-496.41 719,-487.73 719,-479.54"/>
<polygon fill="black" stroke="black" points="722.5,-479.62 719,-469.62 715.5,-479.62 722.5,-479.62"/>
</g>
<!-- 13&#45;&gt;12 -->
<g id="edge16" class="edge">
<title>13&#45;&gt;12</title>
<path fill="none" stroke="black" d="M788.68,-514.82C906.35,-504.38 1148.33,-482.91 1319.04,-467.76"/>
<polygon fill="black" stroke="black" points="1319.28,-471.26 1328.93,-466.89 1318.66,-464.28 1319.28,-471.26"/>
</g>
<!-- 14 -->
<g id="node15" class="node">
<title>14</title>
<ellipse fill="none" stroke="black" cx="2266" cy="-234" rx="195.17" ry="18"/>
<text text-anchor="middle" x="2266" y="-228.95" font-family="Times New Roman,serif" font-size="14.00">You: &quot;Nothing, forget about it.&quot; [Finish thought.]</text>
</g>
<!-- 15 -->
<g id="node16" class="node">
<title>15</title>
<ellipse fill="none" stroke="black" cx="3548" cy="-306" rx="191.59" ry="18"/>
<text text-anchor="middle" x="3548" y="-300.95" font-family="Times New Roman,serif" font-size="14.00">You: &quot;Oh, you mean like from the Revolution?&quot;</text>
</g>
<!-- 26 -->
<g id="node27" class="node">
<title>26</title>
<ellipse fill="none" stroke="black" cx="3548" cy="-234" rx="99.46" ry="18"/>
<text text-anchor="middle" x="3548" y="-228.95" font-family="Times New Roman,serif" font-size="14.00">You: [Discard thought.]</text>
</g>
<!-- 15&#45;&gt;26 -->
<g id="edge17" class="edge">
<title>15&#45;&gt;26</title>
<path fill="none" stroke="black" d="M3548,-287.7C3548,-280.41 3548,-271.73 3548,-263.54"/>
<polygon fill="black" stroke="black" points="3551.5,-263.62 3548,-253.62 3544.5,-263.62 3551.5,-263.62"/>
</g>
<!-- 16 -->
<g id="node17" class="node">
<title>16</title>
<ellipse fill="none" stroke="black" cx="1859" cy="-594" rx="58.52" ry="18"/>
<text text-anchor="middle" x="1859" y="-588.95" font-family="Times New Roman,serif" font-size="14.00">IsKimHere()</text>
</g>
<!-- 18 -->
<g id="node19" class="node">
<title>18</title>
<polygon fill="none" stroke="black" points="2440,-540 2344.22,-522 2440,-504 2535.79,-522 2440,-540"/>
<text text-anchor="middle" x="2440" y="-516.95" font-family="Times New Roman,serif" font-size="14.00">!(IsKimHere())</text>
</g>
<!-- 16&#45;&gt;18 -->
<g id="edge18" class="edge">
<title>16&#45;&gt;18</title>
<path fill="none" stroke="black" d="M1912.88,-586.51C2019.19,-573.7 2255.75,-545.2 2372.36,-531.15"/>
<polygon fill="black" stroke="black" points="2372.59,-534.65 2382.1,-529.98 2371.75,-527.7 2372.59,-534.65"/>
</g>
<!-- 19 -->
<g id="node20" class="node">
<title>19</title>
<ellipse fill="none" stroke="black" cx="1807" cy="-666" rx="257.1" ry="18"/>
<text text-anchor="middle" x="1807" y="-660.95" font-family="Times New Roman,serif" font-size="14.00">Kim Kitsuragi: &quot;There?&quot; He looks to the wall. &quot;Those are *old*.&quot;</text>
</g>
<!-- 16&#45;&gt;19 -->
<g id="edge19" class="edge">
<title>16&#45;&gt;19</title>
<path fill="none" stroke="black" d="M1852.19,-612.1C1847.07,-620.13 1840.06,-629.87 1833.03,-638.8"/>
<polygon fill="black" stroke="black" points="1830.33,-636.56 1826.73,-646.52 1835.76,-640.98 1830.33,-636.56"/>
</g>
<!-- 17&#45;&gt;13 -->
<g id="edge20" class="edge">
<title>17&#45;&gt;13</title>
<path fill="none" stroke="black" d="M719,-575.7C719,-568.41 719,-559.73 719,-551.54"/>
<polygon fill="black" stroke="black" points="722.5,-551.62 719,-541.62 715.5,-551.62 722.5,-551.62"/>
</g>
<!-- 18&#45;&gt;2 -->
<g id="edge21" class="edge">
<title>18&#45;&gt;2</title>
<path fill="none" stroke="black" d="M2471.44,-509.6C2499.2,-499.53 2540.4,-484.59 2574.25,-472.31"/>
<polygon fill="black" stroke="black" points="2575.32,-475.64 2583.53,-468.94 2572.94,-469.06 2575.32,-475.64"/>
</g>
<!-- 19&#45;&gt;16 -->
<g id="edge22" class="edge">
<title>19&#45;&gt;16</title>
<path fill="none" stroke="black" d="M1813.94,-647.7C1819.3,-639.32 1826.7,-629.1 1834.01,-619.9"/>
<polygon fill="black" stroke="black" points="1836.6,-622.26 1840.26,-612.31 1831.2,-617.81 1836.6,-622.26"/>
</g>
<!-- 21 -->
<g id="node22" class="node">
<title>21</title>
<ellipse fill="none" stroke="black" cx="1291" cy="-594" rx="129.15" ry="18"/>
<text text-anchor="middle" x="1291" y="-588.95" font-family="Times New Roman,serif" font-size="14.00">You: &quot;Kim, look, bullet holes!&quot;</text>
</g>
<!-- 19&#45;&gt;21 -->
<g id="edge23" class="edge">
<title>19&#45;&gt;21</title>
<path fill="none" stroke="black" d="M1692.49,-649.46C1602.69,-637.28 1478.9,-620.49 1392.61,-608.78"/>
<polygon fill="black" stroke="black" points="1393.1,-605.32 1382.72,-607.44 1392.15,-612.25 1393.1,-605.32"/>
</g>
<!-- 30 -->
<g id="node31" class="node">
<title>30</title>
<ellipse fill="none" stroke="black" cx="1755" cy="-594" rx="27" ry="18"/>
<text text-anchor="middle" x="1755" y="-588.95" font-family="Times New Roman,serif" font-size="14.00">30</text>
</g>
<!-- 19&#45;&gt;30 -->
<g id="edge24" class="edge">
<title>19&#45;&gt;30</title>
<path fill="none" stroke="black" d="M1794.15,-647.7C1787.9,-639.28 1780.27,-629.02 1773.42,-619.79"/>
<polygon fill="black" stroke="black" points="1776.32,-617.83 1767.55,-611.89 1770.7,-622 1776.32,-617.83"/>
</g>
<!-- 20 -->
<g id="node21" class="node">
<title>20</title>
<ellipse fill="none" stroke="black" cx="784" cy="-306" rx="129.66" ry="18"/>
<text text-anchor="middle" x="784" y="-300.95" font-family="Times New Roman,serif" font-size="14.00">You: &quot;What do you mean old?&quot;</text>
</g>
<!-- 24 -->
<g id="node25" class="node">
<title>24</title>
<ellipse fill="none" stroke="black" cx="479" cy="-234" rx="435.21" ry="18"/>
<text text-anchor="middle" x="479" y="-228.95" font-family="Times New Roman,serif" font-size="14.00">Esprit de Corps: The fading marks are too degraded to draw any forensic conclusions. Just chips in the sandstone.</text>
</g>
<!-- 20&#45;&gt;24 -->
<g id="edge25" class="edge">
<title>20&#45;&gt;24</title>
<path fill="none" stroke="black" d="M718.95,-290.07C674.07,-279.77 613.93,-265.97 565.09,-254.76"/>
<polygon fill="black" stroke="black" points="565.9,-251.35 555.37,-252.53 564.33,-258.17 565.9,-251.35"/>
</g>
<!-- 29 -->
<g id="node30" class="node">
<title>29</title>
<ellipse fill="none" stroke="black" cx="1098" cy="-522" rx="159.85" ry="18"/>
<text text-anchor="middle" x="1098" y="-516.95" font-family="Times New Roman,serif" font-size="14.00">You: &quot;Oh, okay then.&quot; [Finish thought.]</text>
</g>
<!-- 21&#45;&gt;29 -->
<g id="edge26" class="edge">
<title>21&#45;&gt;29</title>
<path fill="none" stroke="black" d="M1246.24,-576.76C1218.87,-566.84 1183.61,-554.05 1154.35,-543.44"/>
<polygon fill="black" stroke="black" points="1155.88,-540.27 1145.29,-540.15 1153.49,-546.85 1155.88,-540.27"/>
</g>
<!-- 22&#45;&gt;20 -->
<g id="edge27" class="edge">
<title>22&#45;&gt;20</title>
<path fill="none" stroke="black" d="M1091.74,-360.19C1025.59,-348.76 938.69,-333.74 874.11,-322.57"/>
<polygon fill="black" stroke="black" points="875.08,-319.19 864.63,-320.93 873.88,-326.09 875.08,-319.19"/>
</g>
<!-- 23 -->
<g id="node24" class="node">
<title>23</title>
<ellipse fill="none" stroke="black" cx="2863" cy="-306" rx="475.64" ry="18"/>
<text text-anchor="middle" x="2863" y="-300.95" font-family="Times New Roman,serif" font-size="14.00">Kim Kitsuragi: &quot;These bullets were fired during the Revolution, over half a century ago. They do not warrant investigation.&quot;</text>
</g>
<!-- 23&#45;&gt;14 -->
<g id="edge28" class="edge">
<title>23&#45;&gt;14</title>
<path fill="none" stroke="black" d="M2721.14,-288.37C2621.96,-276.74 2490.59,-261.33 2394.49,-250.06"/>
<polygon fill="black" stroke="black" points="2395.08,-246.61 2384.74,-248.92 2394.27,-253.56 2395.08,-246.61"/>
</g>
<!-- 24&#45;&gt;5 -->
<g id="edge29" class="edge">
<title>24&#45;&gt;5</title>
<path fill="none" stroke="black" d="M488.64,-215.7C492.94,-207.98 498.11,-198.71 502.9,-190.11"/>
<polygon fill="black" stroke="black" points="505.93,-191.87 507.74,-181.43 499.81,-188.46 505.93,-191.87"/>
</g>
<!-- 25 -->
<g id="node26" class="node">
<title>25</title>
<ellipse fill="none" stroke="black" cx="1670" cy="-306" rx="699.81" ry="18"/>
<text text-anchor="middle" x="1670" y="-300.95" font-family="Times New Roman,serif" font-size="14.00">Kim Kitsuragi: &quot;Yes, the one that happened half a century ago.&quot; He blinks. &quot;Those bullets were fired during the Revolution and do not warrant an investigation by officers of civil law.&quot;</text>
</g>
<!-- 25&#45;&gt;14 -->
<g id="edge30" class="edge">
<title>25&#45;&gt;14</title>
<path fill="none" stroke="black" d="M1815.42,-287.92C1913.93,-276.35 2042.91,-261.2 2137.62,-250.08"/>
<polygon fill="black" stroke="black" points="2137.97,-253.56 2147.49,-248.92 2137.15,-246.61 2137.97,-253.56"/>
</g>
<!-- 27&#45;&gt;25 -->
<g id="edge31" class="edge">
<title>27&#45;&gt;25</title>
<path fill="none" stroke="black" d="M1669.25,-359.7C1669.35,-352.41 1669.48,-343.73 1669.6,-335.54"/>
<polygon fill="black" stroke="black" points="1673.09,-335.67 1669.74,-325.62 1666.09,-335.57 1673.09,-335.67"/>
</g>
<!-- 28&#45;&gt;15 -->
<g id="edge32" class="edge">
<title>28&#45;&gt;15</title>
<path fill="none" stroke="black" d="M2877.43,-365.68C3020.44,-353.16 3250.34,-333.05 3400.29,-319.92"/>
<polygon fill="black" stroke="black" points="3400.23,-323.44 3409.89,-319.08 3399.62,-316.47 3400.23,-323.44"/>
</g>
<!-- 28&#45;&gt;23 -->
<g id="edge33" class="edge">
<title>28&#45;&gt;23</title>
<path fill="none" stroke="black" d="M2776.14,-359.88C2790.78,-350.96 2808.91,-339.93 2824.8,-330.25"/>
<polygon fill="black" stroke="black" points="2826.35,-333.41 2833.07,-325.22 2822.71,-327.43 2826.35,-333.41"/>
</g>
<!-- 29&#45;&gt;10 -->
<g id="edge34" class="edge">
<title>29&#45;&gt;10</title>
<path fill="none" stroke="black" d="M1063.34,-504.12C1021.01,-484.16 946.79,-451.21 880,-432 824.01,-415.89 760.72,-403.9 706.45,-395.44"/>
<polygon fill="black" stroke="black" points="707.28,-392.03 696.86,-393.98 706.22,-398.95 707.28,-392.03"/>
</g>
</g>
</svg>
