<?xml version="1.0" encoding="UTF-8" standalone="no"?>
<!DOCTYPE svg PUBLIC "-//W3C//DTD SVG 1.1//EN"
 "http://www.w3.org/Graphics/SVG/1.1/DTD/svg11.dtd">
<!-- Generated by graphviz version 12.2.1 (20241206.2353)
 -->
<!-- Title: G Pages: 1 -->
<svg width="2919pt" height="1268pt"
 viewBox="0.00 0.00 2919.08 1268.00" xmlns="http://www.w3.org/2000/svg" xmlns:xlink="http://www.w3.org/1999/xlink">
<g id="graph0" class="graph" transform="scale(1 1) rotate(0) translate(4 1264)">
<title>G</title>
<polygon fill="white" stroke="none" points="-4,4 -4,-1264 2915.08,-1264 2915.08,4 -4,4"/>
<!-- 0 -->
<g id="node1" class="node">
<title>0</title>
<ellipse fill="none" stroke="black" cx="360.7" cy="-1242" rx="39.07" ry="18"/>
<text text-anchor="middle" x="360.7" y="-1236.95" font-family="Times New Roman,serif" font-size="14.00">START</text>
</g>
<!-- 1 -->
<g id="node2" class="node">
<title>1</title>
<ellipse fill="none" stroke="black" cx="360.7" cy="-1170" rx="29.86" ry="18"/>
<text text-anchor="middle" x="360.7" y="-1164.95" font-family="Times New Roman,serif" font-size="14.00">input</text>
</g>
<!-- 0&#45;&gt;1 -->
<g id="edge1" class="edge">
<title>0&#45;&gt;1</title>
<path fill="none" stroke="black" d="M360.7,-1223.7C360.7,-1216.41 360.7,-1207.73 360.7,-1199.54"/>
<polygon fill="black" stroke="black" points="364.2,-1199.62 360.7,-1189.62 357.2,-1199.62 364.2,-1199.62"/>
</g>
<!-- 16 -->
<g id="node17" class="node">
<title>16</title>
<ellipse fill="none" stroke="black" cx="360.7" cy="-1098" rx="275.52" ry="18"/>
<text text-anchor="middle" x="360.7" y="-1092.95" font-family="Times New Roman,serif" font-size="14.00">Logic: Didn&#39;t she repeatedly tell you her husband isn&#39;t missing though?</text>
</g>
<!-- 1&#45;&gt;16 -->
<g id="edge2" class="edge">
<title>1&#45;&gt;16</title>
<path fill="none" stroke="black" d="M360.7,-1151.7C360.7,-1144.41 360.7,-1135.73 360.7,-1127.54"/>
<polygon fill="black" stroke="black" points="364.2,-1127.62 360.7,-1117.62 357.2,-1127.62 364.2,-1127.62"/>
</g>
<!-- 2 -->
<g id="node3" class="node">
<title>2</title>
<ellipse fill="none" stroke="black" cx="674.7" cy="-738" rx="177.26" ry="18"/>
<text text-anchor="middle" x="674.7" y="-732.95" font-family="Times New Roman,serif" font-size="14.00">You: It&#39;s her husband! The missing husband!</text>
</g>
<!-- 24 -->
<g id="node25" class="node">
<title>24</title>
<ellipse fill="none" stroke="black" cx="669.7" cy="-666" rx="235.09" ry="18"/>
<text text-anchor="middle" x="669.7" y="-660.95" font-family="Times New Roman,serif" font-size="14.00">You: This doesn&#39;t add up. I&#39;m only making a fool of myself.</text>
</g>
<!-- 2&#45;&gt;24 -->
<g id="edge3" class="edge">
<title>2&#45;&gt;24</title>
<path fill="none" stroke="black" d="M673.46,-719.7C672.94,-712.41 672.32,-703.73 671.73,-695.54"/>
<polygon fill="black" stroke="black" points="675.23,-695.34 671.03,-685.61 668.25,-695.84 675.23,-695.34"/>
</g>
<!-- 3 -->
<g id="node4" class="node">
<title>3</title>
<ellipse fill="none" stroke="black" cx="1005.7" cy="-234" rx="51.35" ry="18"/>
<text text-anchor="middle" x="1005.7" y="-228.95" font-family="Times New Roman,serif" font-size="14.00">You: I am.</text>
</g>
<!-- 9 -->
<g id="node10" class="node">
<title>9</title>
<ellipse fill="none" stroke="black" cx="1093.7" cy="-450" rx="171.63" ry="18"/>
<text text-anchor="middle" x="1093.7" y="-444.95" font-family="Times New Roman,serif" font-size="14.00">You: Give me champagne! I&#39;m going *in*.</text>
</g>
<!-- 3&#45;&gt;9 -->
<g id="edge4" class="edge">
<title>3&#45;&gt;9</title>
<path fill="none" stroke="black" d="M1021.6,-251.6C1030.49,-261.54 1041.24,-274.79 1048.7,-288 1072.72,-330.54 1084.61,-386.74 1089.93,-420.25"/>
<polygon fill="black" stroke="black" points="1086.45,-420.63 1091.38,-430.01 1093.37,-419.6 1086.45,-420.63"/>
</g>
<!-- 4 -->
<g id="node5" class="node">
<title>4</title>
<ellipse fill="none" stroke="black" cx="646.7" cy="-1242" rx="228.95" ry="18"/>
<text text-anchor="middle" x="646.7" y="-1236.95" font-family="Times New Roman,serif" font-size="14.00">Authority: Not honourable, recruit!! Not honourable at all.</text>
</g>
<!-- 5 -->
<g id="node6" class="node">
<title>5</title>
<ellipse fill="none" stroke="black" cx="1075.7" cy="-1242" rx="182.37" ry="18"/>
<text text-anchor="middle" x="1075.7" y="-1236.95" font-family="Times New Roman,serif" font-size="14.00">You: This is non&#45;sense. [Discard the thought.]</text>
</g>
<!-- 5&#45;&gt;5 -->
<g id="edge5" class="edge">
<title>5&#45;&gt;5</title>
<path fill="none" stroke="black" d="M1200.44,-1255.5C1242.41,-1255.54 1276.07,-1251.04 1276.07,-1242 1276.07,-1233.78 1248.19,-1229.31 1211.53,-1228.6"/>
<polygon fill="black" stroke="black" points="1211.99,-1225.1 1201.95,-1228.51 1211.92,-1232.1 1211.99,-1225.1"/>
</g>
<!-- 6 -->
<g id="node7" class="node">
<title>6</title>
<ellipse fill="none" stroke="black" cx="1967.7" cy="-306" rx="176.74" ry="18"/>
<text text-anchor="middle" x="1967.7" y="-300.95" font-family="Times New Roman,serif" font-size="14.00">Authority: No. Stop goofing around, recruit!</text>
</g>
<!-- 23 -->
<g id="node24" class="node">
<title>23</title>
<ellipse fill="none" stroke="black" cx="1853.7" cy="-234" rx="407.57" ry="18"/>
<text text-anchor="middle" x="1853.7" y="-228.95" font-family="Times New Roman,serif" font-size="14.00">Authority: Yes. And you found him. Now go and tell the working class woman. Protect and serve, recruit!</text>
</g>
<!-- 6&#45;&gt;23 -->
<g id="edge6" class="edge">
<title>6&#45;&gt;23</title>
<path fill="none" stroke="black" d="M1939.81,-287.88C1925.29,-278.96 1907.32,-267.93 1891.56,-258.25"/>
<polygon fill="black" stroke="black" points="1893.73,-255.48 1883.38,-253.23 1890.07,-261.44 1893.73,-255.48"/>
</g>
<!-- 7 -->
<g id="node8" class="node">
<title>7</title>
<ellipse fill="none" stroke="black" cx="379.7" cy="-738" rx="99.46" ry="18"/>
<text text-anchor="middle" x="379.7" y="-732.95" font-family="Times New Roman,serif" font-size="14.00">You: [Discard thought.]</text>
</g>
<!-- 8 -->
<g id="node9" class="node">
<title>8</title>
<ellipse fill="none" stroke="black" cx="469.7" cy="-882" rx="189.03" ry="18"/>
<text text-anchor="middle" x="469.7" y="-876.95" font-family="Times New Roman,serif" font-size="14.00">Authority: Cracked it. All in a good day&#39;s work.</text>
</g>
<!-- 21 -->
<g id="node22" class="node">
<title>21</title>
<ellipse fill="none" stroke="black" cx="449.7" cy="-810" rx="149.62" ry="18"/>
<text text-anchor="middle" x="449.7" y="-804.95" font-family="Times New Roman,serif" font-size="14.00">You: It&#39;s... uhm... some third option?</text>
</g>
<!-- 8&#45;&gt;21 -->
<g id="edge8" class="edge">
<title>8&#45;&gt;21</title>
<path fill="none" stroke="black" d="M464.75,-863.7C462.62,-856.24 460.07,-847.32 457.69,-838.97"/>
<polygon fill="black" stroke="black" points="461.11,-838.21 455,-829.56 454.38,-840.14 461.11,-838.21"/>
</g>
<!-- 28 -->
<g id="node29" class="node">
<title>28</title>
<ellipse fill="none" stroke="black" cx="966.7" cy="-810" rx="81.55" ry="18"/>
<text text-anchor="middle" x="966.7" y="-804.95" font-family="Times New Roman,serif" font-size="14.00">Authority case hub</text>
</g>
<!-- 8&#45;&gt;28 -->
<g id="edge7" class="edge">
<title>8&#45;&gt;28</title>
<path fill="none" stroke="black" d="M572.68,-866.5C666.42,-853.29 802.81,-834.08 888.06,-822.08"/>
<polygon fill="black" stroke="black" points="888.31,-825.57 897.73,-820.71 887.34,-818.64 888.31,-825.57"/>
</g>
<!-- 26 -->
<g id="node27" class="node">
<title>26</title>
<ellipse fill="none" stroke="black" cx="865.7" cy="-378" rx="200.29" ry="18"/>
<text text-anchor="middle" x="865.7" y="-372.95" font-family="Times New Roman,serif" font-size="14.00">You: It&#39;s the future leader of a proletarian uprising.</text>
</g>
<!-- 9&#45;&gt;26 -->
<g id="edge9" class="edge">
<title>9&#45;&gt;26</title>
<path fill="none" stroke="black" d="M1039.95,-432.5C1007.4,-422.51 965.65,-409.69 931.18,-399.11"/>
<polygon fill="black" stroke="black" points="932.3,-395.79 921.71,-396.2 930.25,-402.48 932.3,-395.79"/>
</g>
<!-- 10 -->
<g id="node11" class="node">
<title>10</title>
<ellipse fill="none" stroke="black" cx="1742.7" cy="-594" rx="91.27" ry="18"/>
<text text-anchor="middle" x="1742.7" y="-588.95" font-family="Times New Roman,serif" font-size="14.00">Variable[&quot;tc.mullen&quot;]</text>
</g>
<!-- 12 -->
<g id="node13" class="node">
<title>12</title>
<polygon fill="none" stroke="black" points="1323.7,-540 1181.59,-522 1323.7,-504 1465.8,-522 1323.7,-540"/>
<text text-anchor="middle" x="1323.7" y="-516.95" font-family="Times New Roman,serif" font-size="14.00">!(Variable[&quot;tc.mullen&quot;])</text>
</g>
<!-- 10&#45;&gt;12 -->
<g id="edge10" class="edge">
<title>10&#45;&gt;12</title>
<path fill="none" stroke="black" d="M1674.91,-581.68C1597.87,-568.8 1472.69,-547.89 1394.44,-534.82"/>
<polygon fill="black" stroke="black" points="1395.18,-531.39 1384.74,-533.2 1394.02,-538.3 1395.18,-531.39"/>
</g>
<!-- 13 -->
<g id="node14" class="node">
<title>13</title>
<ellipse fill="none" stroke="black" cx="1786.7" cy="-522" rx="78.99" ry="18"/>
<text text-anchor="middle" x="1786.7" y="-516.95" font-family="Times New Roman,serif" font-size="14.00">You: Case solved!</text>
</g>
<!-- 10&#45;&gt;13 -->
<g id="edge11" class="edge">
<title>10&#45;&gt;13</title>
<path fill="none" stroke="black" d="M1753.57,-575.7C1758.48,-567.9 1764.38,-558.51 1769.83,-549.83"/>
<polygon fill="black" stroke="black" points="1772.78,-551.71 1775.14,-541.39 1766.85,-547.99 1772.78,-551.71"/>
</g>
<!-- 11 -->
<g id="node12" class="node">
<title>11</title>
<polygon fill="none" stroke="black" points="1797.7,-468 1668.62,-450 1797.7,-432 1926.78,-450 1797.7,-468"/>
<text text-anchor="middle" x="1797.7" y="-444.95" font-family="Times New Roman,serif" font-size="14.00">Variable[&quot;tc.mullen&quot;]</text>
</g>
<!-- 33 -->
<g id="node34" class="node">
<title>33</title>
<ellipse fill="none" stroke="black" cx="1982.7" cy="-378" rx="861.03" ry="18"/>
<text text-anchor="middle" x="1982.7" y="-372.95" font-family="Times New Roman,serif" font-size="14.00">Authority: Do marriages make any sense? Does honour? You&#39;re not a filthy philosopher, you&#39;re an officer of law. It&#39;s time to *ace this case* and not brood over your reputation. We can deal with the perception management later.</text>
</g>
<!-- 11&#45;&gt;33 -->
<g id="edge12" class="edge">
<title>11&#45;&gt;33</title>
<path fill="none" stroke="black" d="M1831.2,-436.32C1857.56,-426.35 1894.89,-412.22 1925.9,-400.49"/>
<polygon fill="black" stroke="black" points="1927.04,-403.8 1935.16,-396.99 1924.56,-397.25 1927.04,-403.8"/>
</g>
<!-- 12&#45;&gt;9 -->
<g id="edge13" class="edge">
<title>12&#45;&gt;9</title>
<path fill="none" stroke="black" d="M1283.11,-508.65C1248.69,-498.17 1198.68,-482.95 1158.69,-470.78"/>
<polygon fill="black" stroke="black" points="1159.73,-467.44 1149.15,-467.88 1157.69,-474.14 1159.73,-467.44"/>
</g>
<!-- 13&#45;&gt;11 -->
<g id="edge14" class="edge">
<title>13&#45;&gt;11</title>
<path fill="none" stroke="black" d="M1789.42,-503.7C1790.57,-496.32 1791.96,-487.52 1793.26,-479.25"/>
<polygon fill="black" stroke="black" points="1796.68,-480.02 1794.77,-469.6 1789.76,-478.93 1796.68,-480.02"/>
</g>
<!-- 14 -->
<g id="node15" class="node">
<title>14</title>
<ellipse fill="none" stroke="black" cx="293.7" cy="-162" rx="270.92" ry="18"/>
<text text-anchor="middle" x="293.7" y="-156.95" font-family="Times New Roman,serif" font-size="14.00">Empathy: But he *is* missing. You heard her, the worry in her voice.</text>
</g>
<!-- 30 -->
<g id="node31" class="node">
<title>30</title>
<ellipse fill="none" stroke="black" cx="637.7" cy="-18" rx="354.85" ry="18"/>
<text text-anchor="middle" x="637.7" y="-12.95" font-family="Times New Roman,serif" font-size="14.00">Authority: What do you mean *what did I crack*? Look at how working class that drunk is!</text>
</g>
<!-- 14&#45;&gt;30 -->
<g id="edge15" class="edge">
<title>14&#45;&gt;30</title>
<path fill="none" stroke="black" d="M335.53,-143.73C398.34,-117.81 516.89,-68.87 585.34,-40.61"/>
<polygon fill="black" stroke="black" points="586.57,-43.89 594.48,-36.84 583.9,-37.42 586.57,-43.89"/>
</g>
<!-- 15 -->
<g id="node16" class="node">
<title>15</title>
<ellipse fill="none" stroke="black" cx="360.7" cy="-954" rx="287.81" ry="18"/>
<text text-anchor="middle" x="360.7" y="-948.95" font-family="Times New Roman,serif" font-size="14.00">Authority: There! Working class drunk! You know what this means, right?</text>
</g>
<!-- 15&#45;&gt;8 -->
<g id="edge16" class="edge">
<title>15&#45;&gt;8</title>
<path fill="none" stroke="black" d="M387.64,-935.7C401.5,-926.8 418.59,-915.82 433.57,-906.2"/>
<polygon fill="black" stroke="black" points="435.27,-909.27 441.79,-900.92 431.48,-903.38 435.27,-909.27"/>
</g>
<!-- 15&#45;&gt;14 -->
<g id="edge17" class="edge">
<title>15&#45;&gt;14</title>
<path fill="none" stroke="black" d="M316.74,-935.93C300.3,-927.46 282.91,-915.64 271.7,-900 248.13,-867.13 252.7,-851.45 252.7,-811 252.7,-811 252.7,-811 252.7,-305 252.7,-264 268.67,-218.86 280.68,-190.72"/>
<polygon fill="black" stroke="black" points="283.76,-192.41 284.59,-181.85 277.35,-189.58 283.76,-192.41"/>
</g>
<!-- 18 -->
<g id="node19" class="node">
<title>18</title>
<polygon fill="none" stroke="black" points="360.7,-1044 0,-1026 360.7,-1008 721.39,-1026 360.7,-1044"/>
<text text-anchor="middle" x="360.7" y="-1020.95" font-family="Times New Roman,serif" font-size="14.00">Variable[&quot;plaza.working_authority_logic_husband_not_missing&quot;]</text>
</g>
<!-- 16&#45;&gt;18 -->
<g id="edge18" class="edge">
<title>16&#45;&gt;18</title>
<path fill="none" stroke="black" d="M360.7,-1079.7C360.7,-1072.41 360.7,-1063.73 360.7,-1055.54"/>
<polygon fill="black" stroke="black" points="364.2,-1055.62 360.7,-1045.62 357.2,-1055.62 364.2,-1055.62"/>
</g>
<!-- 17 -->
<g id="node18" class="node">
<title>17</title>
<ellipse fill="none" stroke="black" cx="1570.7" cy="-162" rx="255.05" ry="18"/>
<text text-anchor="middle" x="1570.7" y="-156.95" font-family="Times New Roman,serif" font-size="14.00">Variable[&quot;plaza.working_authority_logic_husband_not_missing&quot;]</text>
</g>
<!-- 19 -->
<g id="node20" class="node">
<title>19</title>
<polygon fill="none" stroke="black" points="1096.7,-108 722.97,-90 1096.7,-72 1470.42,-90 1096.7,-108"/>
<text text-anchor="middle" x="1096.7" y="-84.95" font-family="Times New Roman,serif" font-size="14.00">!(Variable[&quot;plaza.working_authority_logic_husband_not_missing&quot;])</text>
</g>
<!-- 17&#45;&gt;19 -->
<g id="edge19" class="edge">
<title>17&#45;&gt;19</title>
<path fill="none" stroke="black" d="M1463.73,-145.2C1383.83,-133.4 1275.38,-117.39 1197.11,-105.83"/>
<polygon fill="black" stroke="black" points="1197.69,-102.38 1187.28,-104.38 1196.66,-109.3 1197.69,-102.38"/>
</g>
<!-- 20 -->
<g id="node21" class="node">
<title>20</title>
<ellipse fill="none" stroke="black" cx="1664.7" cy="-90" rx="147.06" ry="18"/>
<text text-anchor="middle" x="1664.7" y="-84.95" font-family="Times New Roman,serif" font-size="14.00">You: Wait, what did I crack exactly?</text>
</g>
<!-- 17&#45;&gt;20 -->
<g id="edge20" class="edge">
<title>17&#45;&gt;20</title>
<path fill="none" stroke="black" d="M1593.93,-143.7C1605.66,-134.97 1620.06,-124.24 1632.8,-114.75"/>
<polygon fill="black" stroke="black" points="1634.58,-117.79 1640.51,-109.01 1630.4,-112.17 1634.58,-117.79"/>
</g>
<!-- 18&#45;&gt;15 -->
<g id="edge21" class="edge">
<title>18&#45;&gt;15</title>
<path fill="none" stroke="black" d="M360.7,-1007.7C360.7,-1000.41 360.7,-991.73 360.7,-983.54"/>
<polygon fill="black" stroke="black" points="364.2,-983.62 360.7,-973.62 357.2,-983.62 364.2,-983.62"/>
</g>
<!-- 19&#45;&gt;30 -->
<g id="edge22" class="edge">
<title>19&#45;&gt;30</title>
<path fill="none" stroke="black" d="M1009.55,-75.71C938.16,-64.82 836.39,-49.3 757.36,-37.25"/>
<polygon fill="black" stroke="black" points="758.28,-33.85 747.86,-35.8 757.22,-40.77 758.28,-33.85"/>
</g>
<!-- 31 -->
<g id="node32" class="node">
<title>31</title>
<ellipse fill="none" stroke="black" cx="1758.7" cy="-18" rx="95.37" ry="18"/>
<text text-anchor="middle" x="1758.7" y="-12.95" font-family="Times New Roman,serif" font-size="14.00">Authority: No, it&#39;s not.</text>
</g>
<!-- 20&#45;&gt;31 -->
<g id="edge23" class="edge">
<title>20&#45;&gt;31</title>
<path fill="none" stroke="black" d="M1687.45,-72.05C1699.34,-63.2 1714.09,-52.22 1727.07,-42.55"/>
<polygon fill="black" stroke="black" points="1729.01,-45.47 1734.94,-36.69 1724.83,-39.86 1729.01,-45.47"/>
</g>
<!-- 21&#45;&gt;7 -->
<g id="edge24" class="edge">
<title>21&#45;&gt;7</title>
<path fill="none" stroke="black" d="M432.39,-791.7C424.09,-783.39 413.97,-773.28 404.84,-764.14"/>
<polygon fill="black" stroke="black" points="407.42,-761.77 397.87,-757.17 402.47,-766.72 407.42,-761.77"/>
</g>
<!-- 22 -->
<g id="node23" class="node">
<title>22</title>
<ellipse fill="none" stroke="black" cx="1742.7" cy="-738" rx="123" ry="18"/>
<text text-anchor="middle" x="1742.7" y="-732.95" font-family="Times New Roman,serif" font-size="14.00">Jump to: [Authority case hub]</text>
</g>
<!-- 29 -->
<g id="node30" class="node">
<title>29</title>
<ellipse fill="none" stroke="black" cx="1742.7" cy="-666" rx="55.96" ry="18"/>
<text text-anchor="middle" x="1742.7" y="-660.95" font-family="Times New Roman,serif" font-size="14.00">Answer hub</text>
</g>
<!-- 22&#45;&gt;29 -->
<g id="edge25" class="edge">
<title>22&#45;&gt;29</title>
<path fill="none" stroke="black" d="M1742.7,-719.7C1742.7,-712.41 1742.7,-703.73 1742.7,-695.54"/>
<polygon fill="black" stroke="black" points="1746.2,-695.62 1742.7,-685.62 1739.2,-695.62 1746.2,-695.62"/>
</g>
<!-- 23&#45;&gt;17 -->
<g id="edge26" class="edge">
<title>23&#45;&gt;17</title>
<path fill="none" stroke="black" d="M1784.1,-215.79C1743.39,-205.72 1691.86,-192.97 1649.64,-182.53"/>
<polygon fill="black" stroke="black" points="1650.57,-179.15 1640.02,-180.15 1648.89,-185.95 1650.57,-179.15"/>
</g>
<!-- 34 -->
<g id="node35" class="node">
<title>34</title>
<ellipse fill="none" stroke="black" cx="582.7" cy="-594" rx="27" ry="18"/>
<text text-anchor="middle" x="582.7" y="-588.95" font-family="Times New Roman,serif" font-size="14.00">34</text>
</g>
<!-- 24&#45;&gt;34 -->
<g id="edge27" class="edge">
<title>24&#45;&gt;34</title>
<path fill="none" stroke="black" d="M648.19,-647.7C636.04,-637.92 620.79,-625.65 608.06,-615.41"/>
<polygon fill="black" stroke="black" points="610.48,-612.87 600.5,-609.32 606.1,-618.32 610.48,-612.87"/>
</g>
<!-- 25 -->
<g id="node26" class="node">
<title>25</title>
<ellipse fill="none" stroke="black" cx="2381.7" cy="-594" rx="529.38" ry="18"/>
<text text-anchor="middle" x="2381.7" y="-588.95" font-family="Times New Roman,serif" font-size="14.00">Authority: There&#39;s no need for champagne when there&#39;s honour, recruit. Go and tell the working class woman what you found *right now*.</text>
</g>
<!-- 32 -->
<g id="node33" class="node">
<title>32</title>
<ellipse fill="none" stroke="black" cx="891.7" cy="-306" rx="147.57" ry="18"/>
<text text-anchor="middle" x="891.7" y="-300.95" font-family="Times New Roman,serif" font-size="14.00">Authority: Who&#39;s Dick Mullen now?</text>
</g>
<!-- 26&#45;&gt;32 -->
<g id="edge28" class="edge">
<title>26&#45;&gt;32</title>
<path fill="none" stroke="black" d="M872.12,-359.7C874.93,-352.15 878.28,-343.12 881.42,-334.68"/>
<polygon fill="black" stroke="black" points="884.62,-336.12 884.82,-325.52 878.05,-333.68 884.62,-336.12"/>
</g>
<!-- 27 -->
<g id="node28" class="node">
<title>27</title>
<ellipse fill="none" stroke="black" cx="1235.7" cy="-738" rx="365.6" ry="18"/>
<text text-anchor="middle" x="1235.7" y="-732.95" font-family="Times New Roman,serif" font-size="14.00">You: Open and shut. I don&#39;t even need to think about this anymore. Goodbye. [Finish thought.]</text>
</g>
<!-- 28&#45;&gt;2 -->
<g id="edge29" class="edge">
<title>28&#45;&gt;2</title>
<path fill="none" stroke="black" d="M912.8,-796.08C867.89,-785.31 803.34,-769.84 752.77,-757.72"/>
<polygon fill="black" stroke="black" points="753.89,-754.39 743.35,-755.46 752.26,-761.19 753.89,-754.39"/>
</g>
<!-- 28&#45;&gt;22 -->
<g id="edge31" class="edge">
<title>28&#45;&gt;22</title>
<path fill="none" stroke="black" d="M1043.63,-803.82C1164.52,-795.41 1406.25,-777.57 1610.7,-756 1621.27,-754.88 1632.31,-753.62 1643.3,-752.3"/>
<polygon fill="black" stroke="black" points="1643.71,-755.77 1653.22,-751.09 1642.87,-748.83 1643.71,-755.77"/>
</g>
<!-- 28&#45;&gt;27 -->
<g id="edge30" class="edge">
<title>28&#45;&gt;27</title>
<path fill="none" stroke="black" d="M1017.93,-795.67C1057.78,-785.3 1113.72,-770.74 1158.92,-758.98"/>
<polygon fill="black" stroke="black" points="1159.6,-762.42 1168.4,-756.51 1157.84,-755.64 1159.6,-762.42"/>
</g>
<!-- 29&#45;&gt;10 -->
<g id="edge33" class="edge">
<title>29&#45;&gt;10</title>
<path fill="none" stroke="black" d="M1742.7,-647.7C1742.7,-640.41 1742.7,-631.73 1742.7,-623.54"/>
<polygon fill="black" stroke="black" points="1746.2,-623.62 1742.7,-613.62 1739.2,-623.62 1746.2,-623.62"/>
</g>
<!-- 29&#45;&gt;25 -->
<g id="edge32" class="edge">
<title>29&#45;&gt;25</title>
<path fill="none" stroke="black" d="M1794.99,-659.27C1886.33,-649.27 2078.52,-628.21 2218.11,-612.92"/>
<polygon fill="black" stroke="black" points="2218.26,-616.42 2227.82,-611.86 2217.5,-609.47 2218.26,-616.42"/>
</g>
<!-- 30&#45;&gt;29 -->
<g id="edge34" class="edge">
<title>30&#45;&gt;29</title>
<path fill="none" stroke="black" d="M637.7,-36.49C637.7,-63.29 637.7,-116.13 637.7,-161 637.7,-523 637.7,-523 637.7,-523 637.7,-628.2 1435.78,-657.15 1675.44,-663.47"/>
<polygon fill="black" stroke="black" points="1675.16,-666.97 1685.25,-663.73 1675.34,-659.97 1675.16,-666.97"/>
</g>
<!-- 31&#45;&gt;23 -->
<g id="edge35" class="edge">
<title>31&#45;&gt;23</title>
<path fill="none" stroke="black" d="M1785.29,-35.59C1797.9,-44.8 1812.06,-57.36 1820.7,-72 1845.22,-113.59 1851.74,-170.54 1853.35,-204.38"/>
<polygon fill="black" stroke="black" points="1849.84,-204.34 1853.69,-214.21 1856.84,-204.1 1849.84,-204.34"/>
</g>
<!-- 32&#45;&gt;3 -->
<g id="edge36" class="edge">
<title>32&#45;&gt;3</title>
<path fill="none" stroke="black" d="M919.58,-287.88C935.34,-278.2 955.16,-266.03 971.81,-255.81"/>
<polygon fill="black" stroke="black" points="973.21,-259.05 979.9,-250.84 969.55,-253.09 973.21,-259.05"/>
</g>
<!-- 33&#45;&gt;6 -->
<g id="edge38" class="edge">
<title>33&#45;&gt;6</title>
<path fill="none" stroke="black" d="M1978.99,-359.7C1977.41,-352.32 1975.52,-343.52 1973.75,-335.25"/>
<polygon fill="black" stroke="black" points="1977.2,-334.63 1971.68,-325.58 1970.35,-336.1 1977.2,-334.63"/>
</g>
<!-- 33&#45;&gt;10 -->
<g id="edge37" class="edge">
<title>33&#45;&gt;10</title>
<path fill="none" stroke="black" d="M1975.97,-396.29C1962.19,-429.41 1927.52,-501.9 1874.7,-540 1853.86,-555.03 1828.16,-566.59 1804.99,-575.03"/>
<polygon fill="black" stroke="black" points="1803.92,-571.7 1795.64,-578.3 1806.23,-578.31 1803.92,-571.7"/>
</g>
</g>
</svg>
