<?xml version="1.0" encoding="UTF-8" standalone="no"?>
<!DOCTYPE svg PUBLIC "-//W3C//DTD SVG 1.1//EN"
 "http://www.w3.org/Graphics/SVG/1.1/DTD/svg11.dtd">
<!-- Generated by graphviz version 12.2.1 (20241206.2353)
 -->
<!-- Title: G Pages: 1 -->
<svg width="6941pt" height="1052pt"
 viewBox="0.00 0.00 6940.82 1052.00" xmlns="http://www.w3.org/2000/svg" xmlns:xlink="http://www.w3.org/1999/xlink">
<g id="graph0" class="graph" transform="scale(1 1) rotate(0) translate(4 1048)">
<title>G</title>
<polygon fill="white" stroke="none" points="-4,4 -4,-1048 6936.82,-1048 6936.82,4 -4,4"/>
<!-- 0 -->
<g id="node1" class="node">
<title>0</title>
<ellipse fill="none" stroke="black" cx="4820.82" cy="-1026" rx="39.07" ry="18"/>
<text text-anchor="middle" x="4820.82" y="-1020.95" font-family="Times New Roman,serif" font-size="14.00">START</text>
</g>
<!-- 1 -->
<g id="node2" class="node">
<title>1</title>
<ellipse fill="none" stroke="black" cx="4820.82" cy="-954" rx="29.86" ry="18"/>
<text text-anchor="middle" x="4820.82" y="-948.95" font-family="Times New Roman,serif" font-size="14.00">input</text>
</g>
<!-- 0&#45;&gt;1 -->
<g id="edge1" class="edge">
<title>0&#45;&gt;1</title>
<path fill="none" stroke="black" d="M4820.82,-1007.7C4820.82,-1000.41 4820.82,-991.73 4820.82,-983.54"/>
<polygon fill="black" stroke="black" points="4824.32,-983.62 4820.82,-973.62 4817.32,-983.62 4824.32,-983.62"/>
</g>
<!-- 19 -->
<g id="node20" class="node">
<title>19</title>
<ellipse fill="none" stroke="black" cx="4820.82" cy="-882" rx="351.78" ry="18"/>
<text text-anchor="middle" x="4820.82" y="-876.95" font-family="Times New Roman,serif" font-size="14.00">Volition: You think you have a pretty hot suspect right now, don&#39;t you? That Ruby of yours.</text>
</g>
<!-- 1&#45;&gt;19 -->
<g id="edge2" class="edge">
<title>1&#45;&gt;19</title>
<path fill="none" stroke="black" d="M4820.82,-935.7C4820.82,-928.41 4820.82,-919.73 4820.82,-911.54"/>
<polygon fill="black" stroke="black" points="4824.32,-911.62 4820.82,-901.62 4817.32,-911.62 4824.32,-911.62"/>
</g>
<!-- 2 -->
<g id="node3" class="node">
<title>2</title>
<ellipse fill="none" stroke="black" cx="4553.82" cy="-594" rx="238.67" ry="18"/>
<text text-anchor="middle" x="4553.82" y="-588.95" font-family="Times New Roman,serif" font-size="14.00">Volition: Anything strike you a bit off about this mish&#45;mash?</text>
</g>
<!-- 11 -->
<g id="node12" class="node">
<title>11</title>
<ellipse fill="none" stroke="black" cx="4553.82" cy="-522" rx="56.47" ry="18"/>
<text text-anchor="middle" x="4553.82" y="-516.95" font-family="Times New Roman,serif" font-size="14.00">avolatilehub</text>
</g>
<!-- 2&#45;&gt;11 -->
<g id="edge3" class="edge">
<title>2&#45;&gt;11</title>
<path fill="none" stroke="black" d="M4553.82,-575.7C4553.82,-568.41 4553.82,-559.73 4553.82,-551.54"/>
<polygon fill="black" stroke="black" points="4557.32,-551.62 4553.82,-541.62 4550.32,-551.62 4557.32,-551.62"/>
</g>
<!-- 3 -->
<g id="node4" class="node">
<title>3</title>
<ellipse fill="none" stroke="black" cx="3268.82" cy="-378" rx="417.81" ry="18"/>
<text text-anchor="middle" x="3268.82" y="-372.95" font-family="Times New Roman,serif" font-size="14.00">Volition: True. Strange how you conducted the whole *advanced ballistics analysis* and then hand&#45;waved it?</text>
</g>
<!-- 17 -->
<g id="node18" class="node">
<title>17</title>
<ellipse fill="none" stroke="black" cx="3937.82" cy="-306" rx="97.93" ry="18"/>
<text text-anchor="middle" x="3937.82" y="-300.95" font-family="Times New Roman,serif" font-size="14.00">Jump to: [avolatilehub]</text>
</g>
<!-- 3&#45;&gt;17 -->
<g id="edge4" class="edge">
<title>3&#45;&gt;17</title>
<path fill="none" stroke="black" d="M3423.14,-360.85C3552.84,-347.28 3734.04,-328.32 3843.24,-316.9"/>
<polygon fill="black" stroke="black" points="3843.47,-320.39 3853.06,-315.87 3842.75,-313.43 3843.47,-320.39"/>
</g>
<!-- 4 -->
<g id="node5" class="node">
<title>4</title>
<ellipse fill="none" stroke="black" cx="1942.82" cy="-378" rx="890.2" ry="18"/>
<text text-anchor="middle" x="1942.82" y="-372.95" font-family="Times New Roman,serif" font-size="14.00">Volition: That&#39;s right. *Finish thought*. Just finish it and conveniently go on. She&#39;s watching you leave right now, you know that? Free as a bird on that roof. Lighting up a cigarette and thinking: am I glad Ruby&#39;s in this shit and not me!</text>
</g>
<!-- 9 -->
<g id="node10" class="node">
<title>9</title>
<ellipse fill="none" stroke="black" cx="1942.82" cy="-306" rx="431.62" ry="18"/>
<text text-anchor="middle" x="1942.82" y="-300.95" font-family="Times New Roman,serif" font-size="14.00">Logic: Don&#39;t listen to this guy. The theory was solid. He&#39;s just jealous. Move on, it&#39;s no use harassing her further.</text>
</g>
<!-- 4&#45;&gt;9 -->
<g id="edge5" class="edge">
<title>4&#45;&gt;9</title>
<path fill="none" stroke="black" d="M1942.82,-359.7C1942.82,-352.41 1942.82,-343.73 1942.82,-335.54"/>
<polygon fill="black" stroke="black" points="1946.32,-335.62 1942.82,-325.62 1939.32,-335.62 1946.32,-335.62"/>
</g>
<!-- 5 -->
<g id="node6" class="node">
<title>5</title>
<ellipse fill="none" stroke="black" cx="4161.82" cy="-378" rx="419.34" ry="18"/>
<text text-anchor="middle" x="4161.82" y="-372.95" font-family="Times New Roman,serif" font-size="14.00">Volition: Notice how this hasn&#39;t come up at all &#45;&#45; even Hardie and his boys didn&#39;t mention it. Neither did you.</text>
</g>
<!-- 5&#45;&gt;17 -->
<g id="edge6" class="edge">
<title>5&#45;&gt;17</title>
<path fill="none" stroke="black" d="M4106.45,-359.7C4073.13,-349.28 4030.74,-336.04 3996.79,-325.43"/>
<polygon fill="black" stroke="black" points="3998.13,-322.18 3987.54,-322.54 3996.04,-328.86 3998.13,-322.18"/>
</g>
<!-- 6 -->
<g id="node7" class="node">
<title>6</title>
<ellipse fill="none" stroke="black" cx="5325.82" cy="-378" rx="425.48" ry="18"/>
<text text-anchor="middle" x="5325.82" y="-372.95" font-family="Times New Roman,serif" font-size="14.00">Volition: No&#45;no, that wasn&#39;t sensationalist at all, that is a *perfectly* valid reason for someone to kill someone.</text>
</g>
<!-- 8 -->
<g id="node9" class="node">
<title>8</title>
<ellipse fill="none" stroke="black" cx="5355.82" cy="-306" rx="245.33" ry="18"/>
<text text-anchor="middle" x="5355.82" y="-300.95" font-family="Times New Roman,serif" font-size="14.00">Suggestion: See, even he acknowledges that it&#39;s a good reason!</text>
</g>
<!-- 6&#45;&gt;8 -->
<g id="edge7" class="edge">
<title>6&#45;&gt;8</title>
<path fill="none" stroke="black" d="M5333.23,-359.7C5336.47,-352.15 5340.34,-343.12 5343.95,-334.68"/>
<polygon fill="black" stroke="black" points="5347.17,-336.07 5347.89,-325.5 5340.73,-333.31 5347.17,-336.07"/>
</g>
<!-- 7 -->
<g id="node8" class="node">
<title>7</title>
<ellipse fill="none" stroke="black" cx="6300.82" cy="-90" rx="543.71" ry="18"/>
<text text-anchor="middle" x="6300.82" y="-84.95" font-family="Times New Roman,serif" font-size="14.00">Volition: Man, really? You&#39;re, like... just the most compromised of them all. Man, maybe you should just fire this one, it&#39;s completely useless.</text>
</g>
<!-- 23 -->
<g id="node24" class="node">
<title>23</title>
<ellipse fill="none" stroke="black" cx="6300.82" cy="-18" rx="97.93" ry="18"/>
<text text-anchor="middle" x="6300.82" y="-12.95" font-family="Times New Roman,serif" font-size="14.00">Jump to: [avolatilehub]</text>
</g>
<!-- 7&#45;&gt;23 -->
<g id="edge8" class="edge">
<title>7&#45;&gt;23</title>
<path fill="none" stroke="black" d="M6300.82,-71.7C6300.82,-64.41 6300.82,-55.73 6300.82,-47.54"/>
<polygon fill="black" stroke="black" points="6304.32,-47.62 6300.82,-37.62 6297.32,-47.62 6304.32,-47.62"/>
</g>
<!-- 34 -->
<g id="node34" class="node">
<title>34</title>
<ellipse fill="none" stroke="black" cx="5385.82" cy="-234" rx="240.72" ry="18"/>
<text text-anchor="middle" x="5385.82" y="-228.95" font-family="Times New Roman,serif" font-size="14.00">Variable[&quot;plaza.orb_volition_hardie_suggestion_is_an_idiot&quot;]</text>
</g>
<!-- 8&#45;&gt;34 -->
<g id="edge9" class="edge">
<title>8&#45;&gt;34</title>
<path fill="none" stroke="black" d="M5363.23,-287.7C5366.47,-280.15 5370.34,-271.12 5373.95,-262.68"/>
<polygon fill="black" stroke="black" points="5377.17,-264.07 5377.89,-253.5 5370.73,-261.31 5377.17,-264.07"/>
</g>
<!-- 10 -->
<g id="node11" class="node">
<title>10</title>
<ellipse fill="none" stroke="black" cx="4553.82" cy="-450" rx="387.1" ry="18"/>
<text text-anchor="middle" x="4553.82" y="-444.95" font-family="Times New Roman,serif" font-size="14.00">You: The footprints in the pinball workshop didn&#39;t fit with the Odd Sole&#39;s prints on the crime scene...</text>
</g>
<!-- 15 -->
<g id="node16" class="node">
<title>15</title>
<ellipse fill="none" stroke="black" cx="4702.82" cy="-378" rx="103.56" ry="18"/>
<text text-anchor="middle" x="4702.82" y="-372.95" font-family="Times New Roman,serif" font-size="14.00">Volition: No, they didn&#39;t.</text>
</g>
<!-- 10&#45;&gt;15 -->
<g id="edge10" class="edge">
<title>10&#45;&gt;15</title>
<path fill="none" stroke="black" d="M4590.65,-431.7C4610.94,-422.16 4636.29,-410.25 4657.76,-400.17"/>
<polygon fill="black" stroke="black" points="4659.01,-403.45 4666.57,-396.03 4656.04,-397.11 4659.01,-403.45"/>
</g>
<!-- 11&#45;&gt;10 -->
<g id="edge13" class="edge">
<title>11&#45;&gt;10</title>
<path fill="none" stroke="black" d="M4553.82,-503.7C4553.82,-496.41 4553.82,-487.73 4553.82,-479.54"/>
<polygon fill="black" stroke="black" points="4557.32,-479.62 4553.82,-469.62 4550.32,-479.62 4557.32,-479.62"/>
</g>
<!-- 12 -->
<g id="node13" class="node">
<title>12</title>
<ellipse fill="none" stroke="black" cx="895.82" cy="-450" rx="407.06" ry="18"/>
<text text-anchor="middle" x="895.82" y="-444.95" font-family="Times New Roman,serif" font-size="14.00">You: Well... the bullet didn&#39;t have to come from the roof, it could have come from anywhere on the coast.</text>
</g>
<!-- 11&#45;&gt;12 -->
<g id="edge14" class="edge">
<title>11&#45;&gt;12</title>
<path fill="none" stroke="black" d="M4497.46,-519.92C4135.28,-512.99 2123.43,-474.49 1274.19,-458.24"/>
<polygon fill="black" stroke="black" points="1274.28,-454.74 1264.22,-458.05 1274.15,-461.74 1274.28,-454.74"/>
</g>
<!-- 13 -->
<g id="node14" class="node">
<title>13</title>
<ellipse fill="none" stroke="black" cx="3945.82" cy="-450" rx="202.85" ry="18"/>
<text text-anchor="middle" x="3945.82" y="-444.95" font-family="Times New Roman,serif" font-size="14.00">You: So far no one has mentioned hearing the shot.</text>
</g>
<!-- 11&#45;&gt;13 -->
<g id="edge15" class="edge">
<title>11&#45;&gt;13</title>
<path fill="none" stroke="black" d="M4501.19,-514.94C4407.71,-504.18 4210.08,-481.43 4077.59,-466.17"/>
<polygon fill="black" stroke="black" points="4078.01,-462.7 4067.68,-465.03 4077.21,-469.65 4078.01,-462.7"/>
</g>
<!-- 21 -->
<g id="node22" class="node">
<title>21</title>
<ellipse fill="none" stroke="black" cx="6646.82" cy="-450" rx="200.29" ry="18"/>
<text text-anchor="middle" x="6646.82" y="-444.95" font-family="Times New Roman,serif" font-size="14.00">You: I don&#39;t know, my roof route theory was solid.</text>
</g>
<!-- 11&#45;&gt;21 -->
<g id="edge16" class="edge">
<title>11&#45;&gt;21</title>
<path fill="none" stroke="black" d="M4610.51,-520.5C4839.3,-518.26 5716.98,-507.43 6437.82,-468 6456.9,-466.96 6476.94,-465.63 6496.75,-464.17"/>
<polygon fill="black" stroke="black" points="6496.83,-467.67 6506.54,-463.44 6496.3,-460.69 6496.83,-467.67"/>
</g>
<!-- 26 -->
<g id="node27" class="node">
<title>26</title>
<ellipse fill="none" stroke="black" cx="6117.82" cy="-450" rx="310.84" ry="18"/>
<text text-anchor="middle" x="6117.82" y="-444.95" font-family="Times New Roman,serif" font-size="14.00">You: The bullet was jacketed &#45;&#45; these don&#39;t just lie around everywhere, do they...</text>
</g>
<!-- 11&#45;&gt;26 -->
<g id="edge17" class="edge">
<title>11&#45;&gt;26</title>
<path fill="none" stroke="black" d="M4609.7,-518.8C4784.45,-511.88 5336.09,-489.71 5792.82,-468 5822.35,-466.6 5853.38,-465.06 5884.08,-463.49"/>
<polygon fill="black" stroke="black" points="5884.04,-467 5893.85,-462.99 5883.69,-460.01 5884.04,-467"/>
</g>
<!-- 29 -->
<g id="node30" class="node">
<title>29</title>
<ellipse fill="none" stroke="black" cx="2498.82" cy="-450" rx="203.87" ry="18"/>
<text text-anchor="middle" x="2498.82" y="-444.95" font-family="Times New Roman,serif" font-size="14.00">You: I&#39;m done thinking about this. [Finish thought.]</text>
</g>
<!-- 11&#45;&gt;29 -->
<g id="edge18" class="edge">
<title>11&#45;&gt;29</title>
<path fill="none" stroke="black" d="M4497.78,-519.09C4238.62,-510.26 3149.62,-473.17 2697.2,-457.76"/>
<polygon fill="black" stroke="black" points="2697.6,-454.27 2687.49,-457.43 2697.36,-461.27 2697.6,-454.27"/>
</g>
<!-- 32 -->
<g id="node32" class="node">
<title>32</title>
<ellipse fill="none" stroke="black" cx="5354.82" cy="-450" rx="395.8" ry="18"/>
<text text-anchor="middle" x="5354.82" y="-444.95" font-family="Times New Roman,serif" font-size="14.00">You: Perhaps thinking that Ruby&#39;s fondness for girls might drive her to murder was a bit sensationalist.</text>
</g>
<!-- 11&#45;&gt;32 -->
<g id="edge11" class="edge">
<title>11&#45;&gt;32</title>
<path fill="none" stroke="black" d="M4607.93,-516.27C4720.41,-506.44 4984.11,-483.4 5166.03,-467.5"/>
<polygon fill="black" stroke="black" points="5166.18,-471 5175.83,-466.64 5165.57,-464.03 5166.18,-471"/>
</g>
<!-- 33 -->
<g id="node33" class="node">
<title>33</title>
<ellipse fill="none" stroke="black" cx="3387.82" cy="-450" rx="180.33" ry="18"/>
<text text-anchor="middle" x="3387.82" y="-444.95" font-family="Times New Roman,serif" font-size="14.00">You: It turned out the bullet was an antique...</text>
</g>
<!-- 11&#45;&gt;33 -->
<g id="edge12" class="edge">
<title>11&#45;&gt;33</title>
<path fill="none" stroke="black" d="M4498.75,-517.69C4330.09,-507.57 3815.97,-476.7 3550.42,-460.76"/>
<polygon fill="black" stroke="black" points="3550.83,-457.28 3540.64,-460.17 3550.41,-464.27 3550.83,-457.28"/>
</g>
<!-- 22 -->
<g id="node23" class="node">
<title>22</title>
<ellipse fill="none" stroke="black" cx="527.82" cy="-378" rx="506.86" ry="18"/>
<text text-anchor="middle" x="527.82" y="-372.95" font-family="Times New Roman,serif" font-size="14.00">Volition: Absolutely. It could have come from *anywhere*. But you&#39;re suddenly so certain it came from the roof behind the window.</text>
</g>
<!-- 12&#45;&gt;22 -->
<g id="edge19" class="edge">
<title>12&#45;&gt;22</title>
<path fill="none" stroke="black" d="M806.26,-431.97C752.82,-421.8 684.8,-408.86 629.36,-398.32"/>
<polygon fill="black" stroke="black" points="630.06,-394.88 619.58,-396.45 628.75,-401.76 630.06,-394.88"/>
</g>
<!-- 13&#45;&gt;5 -->
<g id="edge20" class="edge">
<title>13&#45;&gt;5</title>
<path fill="none" stroke="black" d="M3997.83,-432.14C4027.89,-422.4 4065.94,-410.07 4097.82,-399.74"/>
<polygon fill="black" stroke="black" points="4098.5,-403.2 4106.94,-396.78 4096.35,-396.54 4098.5,-403.2"/>
</g>
<!-- 14 -->
<g id="node15" class="node">
<title>14</title>
<ellipse fill="none" stroke="black" cx="4553.82" cy="-738" rx="506.35" ry="18"/>
<text text-anchor="middle" x="4553.82" y="-732.95" font-family="Times New Roman,serif" font-size="14.00">Volition: Notice how it came together without casting too much suspicion on *Klaasje* &#45;&#45; it was nice and *Ruby&#45;centric* in the end.</text>
</g>
<!-- 25 -->
<g id="node26" class="node">
<title>25</title>
<ellipse fill="none" stroke="black" cx="4553.82" cy="-666" rx="106.63" ry="18"/>
<text text-anchor="middle" x="4553.82" y="-660.95" font-family="Times New Roman,serif" font-size="14.00">You: What do you mean?</text>
</g>
<!-- 14&#45;&gt;25 -->
<g id="edge21" class="edge">
<title>14&#45;&gt;25</title>
<path fill="none" stroke="black" d="M4553.82,-719.7C4553.82,-712.41 4553.82,-703.73 4553.82,-695.54"/>
<polygon fill="black" stroke="black" points="4557.32,-695.62 4553.82,-685.62 4550.32,-695.62 4557.32,-695.62"/>
</g>
<!-- 30 -->
<g id="node31" class="node">
<title>30</title>
<ellipse fill="none" stroke="black" cx="5042.82" cy="-666" rx="320.05" ry="18"/>
<text text-anchor="middle" x="5042.82" y="-660.95" font-family="Times New Roman,serif" font-size="14.00">You: I don&#39;t need this criticism right now, this chapter is closed. [Discard thought.]</text>
</g>
<!-- 14&#45;&gt;30 -->
<g id="edge22" class="edge">
<title>14&#45;&gt;30</title>
<path fill="none" stroke="black" d="M4672.19,-720.05C4746.68,-709.39 4842.68,-695.65 4918.31,-684.82"/>
<polygon fill="black" stroke="black" points="4918.42,-688.34 4927.82,-683.46 4917.43,-681.41 4918.42,-688.34"/>
</g>
<!-- 15&#45;&gt;17 -->
<g id="edge23" class="edge">
<title>15&#45;&gt;17</title>
<path fill="none" stroke="black" d="M4628.45,-365.08C4615.59,-363.22 4602.33,-361.45 4589.82,-360 4396.53,-337.63 4169.93,-321.46 4041.18,-313.22"/>
<polygon fill="black" stroke="black" points="4041.5,-309.73 4031.3,-312.59 4041.06,-316.72 4041.5,-309.73"/>
</g>
<!-- 16 -->
<g id="node17" class="node">
<title>16</title>
<ellipse fill="none" stroke="black" cx="6606.82" cy="-378" rx="259.66" ry="18"/>
<text text-anchor="middle" x="6606.82" y="-372.95" font-family="Times New Roman,serif" font-size="14.00">Volition: Yeah, the route was pretty solid. Good work there. Still...</text>
</g>
<!-- 27 -->
<g id="node28" class="node">
<title>27</title>
<ellipse fill="none" stroke="black" cx="6706.82" cy="-306" rx="97.93" ry="18"/>
<text text-anchor="middle" x="6706.82" y="-300.95" font-family="Times New Roman,serif" font-size="14.00">Jump to: [avolatilehub]</text>
</g>
<!-- 16&#45;&gt;27 -->
<g id="edge24" class="edge">
<title>16&#45;&gt;27</title>
<path fill="none" stroke="black" d="M6631.54,-359.7C6644.22,-350.81 6659.86,-339.87 6673.59,-330.26"/>
<polygon fill="black" stroke="black" points="6675.3,-333.33 6681.49,-324.73 6671.29,-327.6 6675.3,-333.33"/>
</g>
<!-- 17&#45;&gt;11 -->
<g id="edge25" class="edge">
<title>17&#45;&gt;11</title>
<path fill="none" stroke="black" d="M3860.04,-317.26C3809.24,-325.74 3749.52,-339.7 3733.82,-360 3704.45,-397.97 3700.99,-432.98 3733.82,-468 3759.42,-495.32 4294.61,-513.48 4486.28,-519.12"/>
<polygon fill="black" stroke="black" points="4485.98,-522.62 4496.07,-519.41 4486.18,-515.62 4485.98,-522.62"/>
</g>
<!-- 18 -->
<g id="node19" class="node">
<title>18</title>
<ellipse fill="none" stroke="black" cx="260.82" cy="-306" rx="97.93" ry="18"/>
<text text-anchor="middle" x="260.82" y="-300.95" font-family="Times New Roman,serif" font-size="14.00">Jump to: [avolatilehub]</text>
</g>
<!-- 18&#45;&gt;11 -->
<g id="edge26" class="edge">
<title>18&#45;&gt;11</title>
<path fill="none" stroke="black" d="M166.82,-311.22C77.36,-318.65 -36.91,-339.21 11.82,-396 148.85,-555.72 270.09,-450.59 479.82,-468 894.33,-502.41 3986.32,-518.33 4485.78,-520.69"/>
<polygon fill="black" stroke="black" points="4485.56,-524.19 4495.58,-520.74 4485.59,-517.19 4485.56,-524.19"/>
</g>
<!-- 28 -->
<g id="node29" class="node">
<title>28</title>
<ellipse fill="none" stroke="black" cx="4768.82" cy="-810" rx="75.92" ry="18"/>
<text text-anchor="middle" x="4768.82" y="-804.95" font-family="Times New Roman,serif" font-size="14.00">You: Yeah? And?</text>
</g>
<!-- 19&#45;&gt;28 -->
<g id="edge27" class="edge">
<title>19&#45;&gt;28</title>
<path fill="none" stroke="black" d="M4807.96,-863.7C4802.04,-855.73 4794.89,-846.1 4788.33,-837.26"/>
<polygon fill="black" stroke="black" points="4791.2,-835.26 4782.43,-829.32 4785.58,-839.43 4791.2,-835.26"/>
</g>
<!-- 19&#45;&gt;30 -->
<g id="edge28" class="edge">
<title>19&#45;&gt;30</title>
<path fill="none" stroke="black" d="M4901.08,-864.02C4958.75,-847.17 5032.47,-815.02 5068.82,-756 5080.51,-737.01 5071.93,-712.5 5061.59,-694.01"/>
<polygon fill="black" stroke="black" points="5064.58,-692.19 5056.4,-685.46 5058.6,-695.83 5064.58,-692.19"/>
</g>
<!-- 20 -->
<g id="node21" class="node">
<title>20</title>
<ellipse fill="none" stroke="black" cx="6067.82" cy="-378" rx="261.19" ry="18"/>
<text text-anchor="middle" x="6067.82" y="-372.95" font-family="Times New Roman,serif" font-size="14.00">Volition: Good point. It is rather rare these days... But do continue.</text>
</g>
<!-- 24 -->
<g id="node25" class="node">
<title>24</title>
<ellipse fill="none" stroke="black" cx="5922.82" cy="-306" rx="97.93" ry="18"/>
<text text-anchor="middle" x="5922.82" y="-300.95" font-family="Times New Roman,serif" font-size="14.00">Jump to: [avolatilehub]</text>
</g>
<!-- 20&#45;&gt;24 -->
<g id="edge29" class="edge">
<title>20&#45;&gt;24</title>
<path fill="none" stroke="black" d="M6031.97,-359.7C6012.17,-350.14 5987.42,-338.19 5966.5,-328.09"/>
<polygon fill="black" stroke="black" points="5968.15,-325 5957.62,-323.8 5965.11,-331.3 5968.15,-325"/>
</g>
<!-- 21&#45;&gt;16 -->
<g id="edge30" class="edge">
<title>21&#45;&gt;16</title>
<path fill="none" stroke="black" d="M6636.93,-431.7C6632.47,-423.9 6627.11,-414.51 6622.15,-405.83"/>
<polygon fill="black" stroke="black" points="6625.34,-404.36 6617.34,-397.42 6619.26,-407.84 6625.34,-404.36"/>
</g>
<!-- 22&#45;&gt;18 -->
<g id="edge31" class="edge">
<title>22&#45;&gt;18</title>
<path fill="none" stroke="black" d="M461.82,-359.7C420.51,-348.87 367.51,-334.97 326.3,-324.17"/>
<polygon fill="black" stroke="black" points="327.31,-320.81 316.74,-321.66 325.53,-327.58 327.31,-320.81"/>
</g>
<!-- 23&#45;&gt;11 -->
<g id="edge32" class="edge">
<title>23&#45;&gt;11</title>
<path fill="none" stroke="black" d="M6398.49,-19.86C6535.48,-22.49 6776.6,-32.75 6853.82,-72 6900.97,-95.96 6932.82,-108.11 6932.82,-161 6932.82,-379 6932.82,-379 6932.82,-379 6932.82,-423.94 6923.14,-444.53 6884.82,-468 6835.29,-498.33 5000.23,-516.88 4621.69,-520.39"/>
<polygon fill="black" stroke="black" points="4621.88,-516.89 4611.91,-520.48 4621.95,-523.89 4621.88,-516.89"/>
</g>
<!-- 24&#45;&gt;11 -->
<g id="edge33" class="edge">
<title>24&#45;&gt;11</title>
<path fill="none" stroke="black" d="M5864.22,-320.72C5840.91,-328.77 5815.49,-341.19 5797.82,-360 5762.98,-397.09 5800.69,-437.69 5759.82,-468 5713.89,-502.07 4869.45,-516.57 4621.64,-520.11"/>
<polygon fill="black" stroke="black" points="4621.76,-516.6 4611.81,-520.24 4621.86,-523.6 4621.76,-516.6"/>
</g>
<!-- 25&#45;&gt;2 -->
<g id="edge34" class="edge">
<title>25&#45;&gt;2</title>
<path fill="none" stroke="black" d="M4553.82,-647.7C4553.82,-640.41 4553.82,-631.73 4553.82,-623.54"/>
<polygon fill="black" stroke="black" points="4557.32,-623.62 4553.82,-613.62 4550.32,-623.62 4557.32,-623.62"/>
</g>
<!-- 26&#45;&gt;20 -->
<g id="edge35" class="edge">
<title>26&#45;&gt;20</title>
<path fill="none" stroke="black" d="M6105.46,-431.7C6099.77,-423.73 6092.89,-414.1 6086.58,-405.26"/>
<polygon fill="black" stroke="black" points="6089.57,-403.44 6080.91,-397.34 6083.88,-407.51 6089.57,-403.44"/>
</g>
<!-- 27&#45;&gt;11 -->
<g id="edge36" class="edge">
<title>27&#45;&gt;11</title>
<path fill="none" stroke="black" d="M6795.67,-313.81C6826.05,-320.91 6857.07,-334.47 6875.82,-360 6904.71,-399.35 6894.34,-438.01 6855.82,-468 6810.59,-503.2 4998.28,-517.87 4621.85,-520.54"/>
<polygon fill="black" stroke="black" points="4621.85,-517.04 4611.87,-520.61 4621.9,-524.04 4621.85,-517.04"/>
</g>
<!-- 28&#45;&gt;14 -->
<g id="edge37" class="edge">
<title>28&#45;&gt;14</title>
<path fill="none" stroke="black" d="M4725.31,-794.83C4694.39,-784.77 4652.38,-771.09 4617.68,-759.79"/>
<polygon fill="black" stroke="black" points="4619.19,-756.6 4608.6,-756.84 4617.03,-763.26 4619.19,-756.6"/>
</g>
<!-- 29&#45;&gt;4 -->
<g id="edge38" class="edge">
<title>29&#45;&gt;4</title>
<path fill="none" stroke="black" d="M2384.96,-434.67C2300.1,-423.98 2183.44,-409.29 2091.26,-397.69"/>
<polygon fill="black" stroke="black" points="2091.72,-394.22 2081.36,-396.44 2090.85,-401.16 2091.72,-394.22"/>
</g>
<!-- 32&#45;&gt;6 -->
<g id="edge39" class="edge">
<title>32&#45;&gt;6</title>
<path fill="none" stroke="black" d="M5347.65,-431.7C5344.52,-424.15 5340.78,-415.12 5337.28,-406.68"/>
<polygon fill="black" stroke="black" points="5340.54,-405.4 5333.48,-397.5 5334.08,-408.08 5340.54,-405.4"/>
</g>
<!-- 33&#45;&gt;3 -->
<g id="edge40" class="edge">
<title>33&#45;&gt;3</title>
<path fill="none" stroke="black" d="M3358.71,-431.88C3343.55,-422.96 3324.8,-411.93 3308.35,-402.25"/>
<polygon fill="black" stroke="black" points="3310.15,-399.25 3299.76,-397.2 3306.6,-405.29 3310.15,-399.25"/>
</g>
<!-- 35 -->
<g id="node35" class="node">
<title>35</title>
<polygon fill="none" stroke="black" points="6027.82,-180 5687.39,-162 6027.82,-144 6368.25,-162 6027.82,-180"/>
<text text-anchor="middle" x="6027.82" y="-156.95" font-family="Times New Roman,serif" font-size="14.00">Variable[&quot;plaza.orb_volition_hardie_suggestion_is_an_idiot&quot;]</text>
</g>
<!-- 34&#45;&gt;35 -->
<g id="edge41" class="edge">
<title>34&#45;&gt;35</title>
<path fill="none" stroke="black" d="M5518.06,-218.58C5632.95,-206.05 5797.88,-188.07 5908.73,-175.98"/>
<polygon fill="black" stroke="black" points="5908.89,-179.49 5918.45,-174.93 5908.13,-172.53 5908.89,-179.49"/>
</g>
<!-- 36 -->
<g id="node36" class="node">
<title>36</title>
<polygon fill="none" stroke="black" points="5385.82,-108 5032.36,-90 5385.82,-72 5739.28,-90 5385.82,-108"/>
<text text-anchor="middle" x="5385.82" y="-84.95" font-family="Times New Roman,serif" font-size="14.00">!(Variable[&quot;plaza.orb_volition_hardie_suggestion_is_an_idiot&quot;])</text>
</g>
<!-- 34&#45;&gt;36 -->
<g id="edge42" class="edge">
<title>34&#45;&gt;36</title>
<path fill="none" stroke="black" d="M5385.82,-215.59C5385.82,-191.61 5385.82,-148.14 5385.82,-119.42"/>
<polygon fill="black" stroke="black" points="5389.32,-119.62 5385.82,-109.62 5382.32,-119.62 5389.32,-119.62"/>
</g>
<!-- 35&#45;&gt;7 -->
<g id="edge43" class="edge">
<title>35&#45;&gt;7</title>
<path fill="none" stroke="black" d="M6084.38,-146.5C6124.26,-136.27 6178.2,-122.44 6222.25,-111.14"/>
<polygon fill="black" stroke="black" points="6222.94,-114.58 6231.76,-108.71 6221.2,-107.8 6222.94,-114.58"/>
</g>
<!-- 36&#45;&gt;23 -->
<g id="edge44" class="edge">
<title>36&#45;&gt;23</title>
<path fill="none" stroke="black" d="M5522.8,-78.52C5708.6,-64.31 6036.14,-39.25 6200.63,-26.66"/>
<polygon fill="black" stroke="black" points="6200.49,-30.19 6210.19,-25.93 6199.96,-23.21 6200.49,-30.19"/>
</g>
</g>
</svg>
