<?xml version="1.0" encoding="UTF-8" standalone="no"?>
<!DOCTYPE svg PUBLIC "-//W3C//DTD SVG 1.1//EN"
 "http://www.w3.org/Graphics/SVG/1.1/DTD/svg11.dtd">
<!-- Generated by graphviz version 12.2.1 (20241206.2353)
 -->
<!-- Title: G Pages: 1 -->
<svg width="2057pt" height="260pt"
 viewBox="0.00 0.00 2056.84 260.00" xmlns="http://www.w3.org/2000/svg" xmlns:xlink="http://www.w3.org/1999/xlink">
<g id="graph0" class="graph" transform="scale(1 1) rotate(0) translate(4 256)">
<title>G</title>
<polygon fill="white" stroke="none" points="-4,4 -4,-256 2052.84,-256 2052.84,4 -4,4"/>
<!-- 0 -->
<g id="node1" class="node">
<title>0</title>
<ellipse fill="none" stroke="black" cx="105.52" cy="-234" rx="39.07" ry="18"/>
<text text-anchor="middle" x="105.52" y="-228.95" font-family="Times New Roman,serif" font-size="14.00">START</text>
</g>
<!-- 0&#45;&gt;0 -->
<g id="edge1" class="edge">
<title>0&#45;&gt;0</title>
<path fill="none" stroke="black" d="M133.71,-246.94C148.82,-249.14 162.59,-244.83 162.59,-234 162.59,-225.96 155.01,-221.52 144.92,-220.65"/>
<polygon fill="black" stroke="black" points="145.09,-217.15 135.22,-221 145.34,-224.14 145.09,-217.15"/>
</g>
<!-- 1 -->
<g id="node2" class="node">
<title>1</title>
<ellipse fill="none" stroke="black" cx="210.52" cy="-234" rx="29.86" ry="18"/>
<text text-anchor="middle" x="210.52" y="-228.95" font-family="Times New Roman,serif" font-size="14.00">input</text>
</g>
<!-- 6 -->
<g id="node7" class="node">
<title>6</title>
<ellipse fill="none" stroke="black" cx="210.52" cy="-162" rx="210.52" ry="18"/>
<text text-anchor="middle" x="210.52" y="-156.95" font-family="Times New Roman,serif" font-size="14.00">Composure: *Something* isn&#39;t right about this game.</text>
</g>
<!-- 1&#45;&gt;6 -->
<g id="edge2" class="edge">
<title>1&#45;&gt;6</title>
<path fill="none" stroke="black" d="M204.65,-216.05C203.86,-208.68 203.61,-199.84 203.88,-191.51"/>
<polygon fill="black" stroke="black" points="207.35,-191.99 204.51,-181.79 200.37,-191.54 207.35,-191.99"/>
</g>
<!-- 2 -->
<g id="node3" class="node">
<title>2</title>
<ellipse fill="none" stroke="black" cx="496.52" cy="-234" rx="101.51" ry="18"/>
<text text-anchor="middle" x="496.52" y="-228.95" font-family="Times New Roman,serif" font-size="14.00">You: Take a closer look.</text>
</g>
<!-- 2&#45;&gt;2 -->
<g id="edge3" class="edge">
<title>2&#45;&gt;2</title>
<path fill="none" stroke="black" d="M566.49,-247.45C593.55,-248.04 616.03,-243.56 616.03,-234 616.03,-225.82 599.58,-221.36 577.88,-220.61"/>
<polygon fill="black" stroke="black" points="578.03,-217.11 568.01,-220.56 577.99,-224.11 578.03,-217.11"/>
</g>
<!-- 3 -->
<g id="node4" class="node">
<title>3</title>
<ellipse fill="none" stroke="black" cx="1240.52" cy="-234" rx="470.01" ry="18"/>
<text text-anchor="middle" x="1240.52" y="-228.95" font-family="Times New Roman,serif" font-size="14.00">René Arnoux: Despite his limp, the man in the uniform moves with efficient grace. His motions are measured and precise.</text>
</g>
<!-- 5 -->
<g id="node6" class="node">
<title>5</title>
<ellipse fill="none" stroke="black" cx="1240.52" cy="-162" rx="465.92" ry="18"/>
<text text-anchor="middle" x="1240.52" y="-156.95" font-family="Times New Roman,serif" font-size="14.00">Gaston Martin: The jolly&#45;looking man in the checkered jacket moves lazily. Like a giant tomcat stretched out in the sun...</text>
</g>
<!-- 3&#45;&gt;5 -->
<g id="edge4" class="edge">
<title>3&#45;&gt;5</title>
<path fill="none" stroke="black" d="M1240.52,-215.7C1240.52,-208.41 1240.52,-199.73 1240.52,-191.54"/>
<polygon fill="black" stroke="black" points="1244.02,-191.62 1240.52,-181.62 1237.02,-191.62 1244.02,-191.62"/>
</g>
<!-- 4 -->
<g id="node5" class="node">
<title>4</title>
<ellipse fill="none" stroke="black" cx="1240.52" cy="-90" rx="808.32" ry="18"/>
<text text-anchor="middle" x="1240.52" y="-84.95" font-family="Times New Roman,serif" font-size="14.00">Gaston Martin: ...then suddenly he leans forward and uses the 0&#45;end of the measuring tape to nudge his opponent&#39;s balls further from the small brown sphere in the pit. As he does this, he complains about his back.</text>
</g>
<!-- 8 -->
<g id="node9" class="node">
<title>8</title>
<ellipse fill="none" stroke="black" cx="1240.52" cy="-18" rx="437.77" ry="18"/>
<text text-anchor="middle" x="1240.52" y="-12.95" font-family="Times New Roman,serif" font-size="14.00">René Arnoux: Apparently oblivious to his partner&#39;s treachery, the uniformed man grabs a ball and takes aim again.</text>
</g>
<!-- 4&#45;&gt;8 -->
<g id="edge5" class="edge">
<title>4&#45;&gt;8</title>
<path fill="none" stroke="black" d="M1240.52,-71.7C1240.52,-64.41 1240.52,-55.73 1240.52,-47.54"/>
<polygon fill="black" stroke="black" points="1244.02,-47.62 1240.52,-37.62 1237.02,-47.62 1244.02,-47.62"/>
</g>
<!-- 5&#45;&gt;4 -->
<g id="edge6" class="edge">
<title>5&#45;&gt;4</title>
<path fill="none" stroke="black" d="M1240.52,-143.7C1240.52,-136.41 1240.52,-127.73 1240.52,-119.54"/>
<polygon fill="black" stroke="black" points="1244.02,-119.62 1240.52,-109.62 1237.02,-119.62 1244.02,-119.62"/>
</g>
<!-- 6&#45;&gt;1 -->
<g id="edge7" class="edge">
<title>6&#45;&gt;1</title>
<path fill="none" stroke="black" d="M216.44,-180.28C217.19,-187.6 217.44,-196.34 217.17,-204.57"/>
<polygon fill="black" stroke="black" points="213.68,-204.33 216.5,-214.54 220.66,-204.8 213.68,-204.33"/>
</g>
<!-- 7 -->
<g id="node8" class="node">
<title>7</title>
<ellipse fill="none" stroke="black" cx="210.52" cy="-90" rx="203.36" ry="18"/>
<text text-anchor="middle" x="210.52" y="-84.95" font-family="Times New Roman,serif" font-size="14.00">You: That&#39;s none of my concern. [Discard thought.]</text>
</g>
<!-- 6&#45;&gt;7 -->
<g id="edge8" class="edge">
<title>6&#45;&gt;7</title>
<path fill="none" stroke="black" d="M210.52,-143.7C210.52,-136.41 210.52,-127.73 210.52,-119.54"/>
<polygon fill="black" stroke="black" points="214.02,-119.62 210.52,-109.62 207.02,-119.62 214.02,-119.62"/>
</g>
</g>
</svg>
