<?xml version="1.0" encoding="UTF-8" standalone="no"?>
<!DOCTYPE svg PUBLIC "-//W3C//DTD SVG 1.1//EN"
 "http://www.w3.org/Graphics/SVG/1.1/DTD/svg11.dtd">
<!-- Generated by graphviz version 12.2.1 (20241206.2353)
 -->
<!-- Title: G Pages: 1 -->
<svg width="2230pt" height="1196pt"
 viewBox="0.00 0.00 2230.41 1196.00" xmlns="http://www.w3.org/2000/svg" xmlns:xlink="http://www.w3.org/1999/xlink">
<g id="graph0" class="graph" transform="scale(1 1) rotate(0) translate(4 1192)">
<title>G</title>
<polygon fill="white" stroke="none" points="-4,4 -4,-1192 2226.41,-1192 2226.41,4 -4,4"/>
<!-- 0 -->
<g id="node1" class="node">
<title>0</title>
<ellipse fill="none" stroke="black" cx="1449.38" cy="-1170" rx="39.07" ry="18"/>
<text text-anchor="middle" x="1449.38" y="-1164.95" font-family="Times New Roman,serif" font-size="14.00">START</text>
</g>
<!-- 0&#45;&gt;0 -->
<g id="edge1" class="edge">
<title>0&#45;&gt;0</title>
<path fill="none" stroke="black" d="M1477.57,-1182.94C1492.68,-1185.14 1506.45,-1180.83 1506.45,-1170 1506.45,-1161.96 1498.86,-1157.52 1488.78,-1156.65"/>
<polygon fill="black" stroke="black" points="1488.95,-1153.15 1479.08,-1157 1489.2,-1160.14 1488.95,-1153.15"/>
</g>
<!-- 1 -->
<g id="node2" class="node">
<title>1</title>
<ellipse fill="none" stroke="black" cx="1554.38" cy="-1170" rx="29.86" ry="18"/>
<text text-anchor="middle" x="1554.38" y="-1164.95" font-family="Times New Roman,serif" font-size="14.00">input</text>
</g>
<!-- 15 -->
<g id="node16" class="node">
<title>15</title>
<ellipse fill="none" stroke="black" cx="1304.38" cy="-1098" rx="287.81" ry="18"/>
<text text-anchor="middle" x="1304.38" y="-1092.95" font-family="Times New Roman,serif" font-size="14.00">Authority: There! Working class drunk! You know what this means, right?</text>
</g>
<!-- 1&#45;&gt;15 -->
<g id="edge2" class="edge">
<title>1&#45;&gt;15</title>
<path fill="none" stroke="black" d="M1531.53,-1158.29C1526.29,-1156.05 1520.69,-1153.81 1515.38,-1152 1476.58,-1138.77 1432.75,-1127.23 1395.13,-1118.33"/>
<polygon fill="black" stroke="black" points="1396.2,-1114.98 1385.66,-1116.12 1394.6,-1121.8 1396.2,-1114.98"/>
</g>
<!-- 2 -->
<g id="node3" class="node">
<title>2</title>
<ellipse fill="none" stroke="black" cx="538.38" cy="-738" rx="177.26" ry="18"/>
<text text-anchor="middle" x="538.38" y="-732.95" font-family="Times New Roman,serif" font-size="14.00">You: It&#39;s her husband! The missing husband!</text>
</g>
<!-- 23 -->
<g id="node24" class="node">
<title>23</title>
<ellipse fill="none" stroke="black" cx="538.38" cy="-666" rx="407.57" ry="18"/>
<text text-anchor="middle" x="538.38" y="-660.95" font-family="Times New Roman,serif" font-size="14.00">Authority: Yes. And you found him. Now go and tell the working class woman. Protect and serve, recruit!</text>
</g>
<!-- 2&#45;&gt;23 -->
<g id="edge3" class="edge">
<title>2&#45;&gt;23</title>
<path fill="none" stroke="black" d="M538.38,-719.7C538.38,-712.41 538.38,-703.73 538.38,-695.54"/>
<polygon fill="black" stroke="black" points="541.88,-695.62 538.38,-685.62 534.88,-695.62 541.88,-695.62"/>
</g>
<!-- 3 -->
<g id="node4" class="node">
<title>3</title>
<ellipse fill="none" stroke="black" cx="1330.38" cy="-882" rx="51.35" ry="18"/>
<text text-anchor="middle" x="1330.38" y="-876.95" font-family="Times New Roman,serif" font-size="14.00">You: I am.</text>
</g>
<!-- 8 -->
<g id="node9" class="node">
<title>8</title>
<ellipse fill="none" stroke="black" cx="1152.38" cy="-810" rx="189.03" ry="18"/>
<text text-anchor="middle" x="1152.38" y="-804.95" font-family="Times New Roman,serif" font-size="14.00">Authority: Cracked it. All in a good day&#39;s work.</text>
</g>
<!-- 3&#45;&gt;8 -->
<g id="edge4" class="edge">
<title>3&#45;&gt;8</title>
<path fill="none" stroke="black" d="M1297.32,-868C1271.71,-857.93 1235.71,-843.77 1205.99,-832.08"/>
<polygon fill="black" stroke="black" points="1207.36,-828.86 1196.77,-828.46 1204.79,-835.37 1207.36,-828.86"/>
</g>
<!-- 4 -->
<g id="node5" class="node">
<title>4</title>
<ellipse fill="none" stroke="black" cx="1361.38" cy="-18" rx="228.95" ry="18"/>
<text text-anchor="middle" x="1361.38" y="-12.95" font-family="Times New Roman,serif" font-size="14.00">Authority: Not honourable, recruit!! Not honourable at all.</text>
</g>
<!-- 5 -->
<g id="node6" class="node">
<title>5</title>
<ellipse fill="none" stroke="black" cx="1361.38" cy="-90" rx="182.37" ry="18"/>
<text text-anchor="middle" x="1361.38" y="-84.95" font-family="Times New Roman,serif" font-size="14.00">You: This is non&#45;sense. [Discard the thought.]</text>
</g>
<!-- 5&#45;&gt;4 -->
<g id="edge5" class="edge">
<title>5&#45;&gt;4</title>
<path fill="none" stroke="black" d="M1361.38,-71.7C1361.38,-64.41 1361.38,-55.73 1361.38,-47.54"/>
<polygon fill="black" stroke="black" points="1364.88,-47.62 1361.38,-37.62 1357.88,-47.62 1364.88,-47.62"/>
</g>
<!-- 6 -->
<g id="node7" class="node">
<title>6</title>
<ellipse fill="none" stroke="black" cx="1464.38" cy="-450" rx="176.74" ry="18"/>
<text text-anchor="middle" x="1464.38" y="-444.95" font-family="Times New Roman,serif" font-size="14.00">Authority: No. Stop goofing around, recruit!</text>
</g>
<!-- 22 -->
<g id="node23" class="node">
<title>22</title>
<ellipse fill="none" stroke="black" cx="1464.38" cy="-378" rx="123" ry="18"/>
<text text-anchor="middle" x="1464.38" y="-372.95" font-family="Times New Roman,serif" font-size="14.00">Jump to: [Authority case hub]</text>
</g>
<!-- 6&#45;&gt;22 -->
<g id="edge6" class="edge">
<title>6&#45;&gt;22</title>
<path fill="none" stroke="black" d="M1464.38,-431.7C1464.38,-424.41 1464.38,-415.73 1464.38,-407.54"/>
<polygon fill="black" stroke="black" points="1467.88,-407.62 1464.38,-397.62 1460.88,-407.62 1467.88,-407.62"/>
</g>
<!-- 7 -->
<g id="node8" class="node">
<title>7</title>
<ellipse fill="none" stroke="black" cx="1108.38" cy="-1026" rx="99.46" ry="18"/>
<text text-anchor="middle" x="1108.38" y="-1020.95" font-family="Times New Roman,serif" font-size="14.00">You: [Discard thought.]</text>
</g>
<!-- 20 -->
<g id="node21" class="node">
<title>20</title>
<ellipse fill="none" stroke="black" cx="880.38" cy="-738" rx="147.06" ry="18"/>
<text text-anchor="middle" x="880.38" y="-732.95" font-family="Times New Roman,serif" font-size="14.00">You: Wait, what did I crack exactly?</text>
</g>
<!-- 8&#45;&gt;20 -->
<g id="edge8" class="edge">
<title>8&#45;&gt;20</title>
<path fill="none" stroke="black" d="M1088.61,-792.59C1047.82,-782.09 994.81,-768.45 952.49,-757.56"/>
<polygon fill="black" stroke="black" points="953.44,-754.19 942.88,-755.08 951.69,-760.97 953.44,-754.19"/>
</g>
<!-- 27 -->
<g id="node28" class="node">
<title>27</title>
<ellipse fill="none" stroke="black" cx="1411.38" cy="-738" rx="365.6" ry="18"/>
<text text-anchor="middle" x="1411.38" y="-732.95" font-family="Times New Roman,serif" font-size="14.00">You: Open and shut. I don&#39;t even need to think about this anymore. Goodbye. [Finish thought.]</text>
</g>
<!-- 8&#45;&gt;27 -->
<g id="edge7" class="edge">
<title>8&#45;&gt;27</title>
<path fill="none" stroke="black" d="M1213.43,-792.5C1250.4,-782.51 1297.81,-769.7 1336.96,-759.11"/>
<polygon fill="black" stroke="black" points="1337.83,-762.5 1346.57,-756.52 1336.01,-755.75 1337.83,-762.5"/>
</g>
<!-- 9 -->
<g id="node10" class="node">
<title>9</title>
<ellipse fill="none" stroke="black" cx="529.38" cy="-90" rx="171.63" ry="18"/>
<text text-anchor="middle" x="529.38" y="-84.95" font-family="Times New Roman,serif" font-size="14.00">You: Give me champagne! I&#39;m going *in*.</text>
</g>
<!-- 25 -->
<g id="node26" class="node">
<title>25</title>
<ellipse fill="none" stroke="black" cx="529.38" cy="-18" rx="529.38" ry="18"/>
<text text-anchor="middle" x="529.38" y="-12.95" font-family="Times New Roman,serif" font-size="14.00">Authority: There&#39;s no need for champagne when there&#39;s honour, recruit. Go and tell the working class woman what you found *right now*.</text>
</g>
<!-- 9&#45;&gt;25 -->
<g id="edge9" class="edge">
<title>9&#45;&gt;25</title>
<path fill="none" stroke="black" d="M529.38,-71.7C529.38,-64.41 529.38,-55.73 529.38,-47.54"/>
<polygon fill="black" stroke="black" points="532.88,-47.62 529.38,-37.62 525.88,-47.62 532.88,-47.62"/>
</g>
<!-- 10 -->
<g id="node11" class="node">
<title>10</title>
<ellipse fill="none" stroke="black" cx="1119.38" cy="-954" rx="91.27" ry="18"/>
<text text-anchor="middle" x="1119.38" y="-948.95" font-family="Times New Roman,serif" font-size="14.00">Variable[&quot;tc.mullen&quot;]</text>
</g>
<!-- 11 -->
<g id="node12" class="node">
<title>11</title>
<polygon fill="none" stroke="black" points="814.38,-900 685.3,-882 814.38,-864 943.46,-882 814.38,-900"/>
<text text-anchor="middle" x="814.38" y="-876.95" font-family="Times New Roman,serif" font-size="14.00">Variable[&quot;tc.mullen&quot;]</text>
</g>
<!-- 10&#45;&gt;11 -->
<g id="edge10" class="edge">
<title>10&#45;&gt;11</title>
<path fill="none" stroke="black" d="M1061.65,-939.75C1007.48,-927.32 926.87,-908.82 872.55,-896.35"/>
<polygon fill="black" stroke="black" points="873.38,-892.95 862.85,-894.13 871.82,-899.77 873.38,-892.95"/>
</g>
<!-- 12 -->
<g id="node13" class="node">
<title>12</title>
<polygon fill="none" stroke="black" points="1119.38,-900 977.27,-882 1119.38,-864 1261.49,-882 1119.38,-900"/>
<text text-anchor="middle" x="1119.38" y="-876.95" font-family="Times New Roman,serif" font-size="14.00">!(Variable[&quot;tc.mullen&quot;])</text>
</g>
<!-- 10&#45;&gt;12 -->
<g id="edge11" class="edge">
<title>10&#45;&gt;12</title>
<path fill="none" stroke="black" d="M1119.38,-935.7C1119.38,-928.41 1119.38,-919.73 1119.38,-911.54"/>
<polygon fill="black" stroke="black" points="1122.88,-911.62 1119.38,-901.62 1115.88,-911.62 1122.88,-911.62"/>
</g>
<!-- 32 -->
<g id="node33" class="node">
<title>32</title>
<ellipse fill="none" stroke="black" cx="668.38" cy="-810" rx="147.57" ry="18"/>
<text text-anchor="middle" x="668.38" y="-804.95" font-family="Times New Roman,serif" font-size="14.00">Authority: Who&#39;s Dick Mullen now?</text>
</g>
<!-- 11&#45;&gt;32 -->
<g id="edge12" class="edge">
<title>11&#45;&gt;32</title>
<path fill="none" stroke="black" d="M786.23,-867.5C765.73,-857.67 737.53,-844.15 713.85,-832.8"/>
<polygon fill="black" stroke="black" points="715.57,-829.74 705.04,-828.58 712.54,-836.06 715.57,-829.74"/>
</g>
<!-- 12&#45;&gt;8 -->
<g id="edge13" class="edge">
<title>12&#45;&gt;8</title>
<path fill="none" stroke="black" d="M1127.03,-864.76C1130.72,-856.95 1135.23,-847.37 1139.43,-838.48"/>
<polygon fill="black" stroke="black" points="1142.56,-840.03 1143.66,-829.49 1136.23,-837.05 1142.56,-840.03"/>
</g>
<!-- 13 -->
<g id="node14" class="node">
<title>13</title>
<ellipse fill="none" stroke="black" cx="1304.38" cy="-1026" rx="78.99" ry="18"/>
<text text-anchor="middle" x="1304.38" y="-1020.95" font-family="Times New Roman,serif" font-size="14.00">You: Case solved!</text>
</g>
<!-- 13&#45;&gt;10 -->
<g id="edge14" class="edge">
<title>13&#45;&gt;10</title>
<path fill="none" stroke="black" d="M1264.69,-1009.98C1237.27,-999.61 1200.54,-985.71 1170.86,-974.48"/>
<polygon fill="black" stroke="black" points="1172.29,-971.28 1161.7,-971.01 1169.81,-977.82 1172.29,-971.28"/>
</g>
<!-- 14 -->
<g id="node15" class="node">
<title>14</title>
<ellipse fill="none" stroke="black" cx="272.38" cy="-378" rx="270.92" ry="18"/>
<text text-anchor="middle" x="272.38" y="-372.95" font-family="Times New Roman,serif" font-size="14.00">Empathy: But he *is* missing. You heard her, the worry in her voice.</text>
</g>
<!-- 29 -->
<g id="node30" class="node">
<title>29</title>
<ellipse fill="none" stroke="black" cx="603.38" cy="-306" rx="55.96" ry="18"/>
<text text-anchor="middle" x="603.38" y="-300.95" font-family="Times New Roman,serif" font-size="14.00">Answer hub</text>
</g>
<!-- 14&#45;&gt;29 -->
<g id="edge15" class="edge">
<title>14&#45;&gt;29</title>
<path fill="none" stroke="black" d="M351.24,-360.32C411.4,-347.6 492.84,-330.38 546.68,-318.99"/>
<polygon fill="black" stroke="black" points="547.19,-322.46 556.25,-316.97 545.74,-315.61 547.19,-322.46"/>
</g>
<!-- 15&#45;&gt;7 -->
<g id="edge17" class="edge">
<title>15&#45;&gt;7</title>
<path fill="none" stroke="black" d="M1256.18,-1079.79C1227.82,-1069.66 1191.87,-1056.82 1162.52,-1046.34"/>
<polygon fill="black" stroke="black" points="1164.06,-1043.17 1153.47,-1043.1 1161.71,-1049.76 1164.06,-1043.17"/>
</g>
<!-- 15&#45;&gt;13 -->
<g id="edge16" class="edge">
<title>15&#45;&gt;13</title>
<path fill="none" stroke="black" d="M1304.38,-1079.7C1304.38,-1072.41 1304.38,-1063.73 1304.38,-1055.54"/>
<polygon fill="black" stroke="black" points="1307.88,-1055.62 1304.38,-1045.62 1300.88,-1055.62 1307.88,-1055.62"/>
</g>
<!-- 16 -->
<g id="node17" class="node">
<title>16</title>
<ellipse fill="none" stroke="black" cx="538.38" cy="-594" rx="275.52" ry="18"/>
<text text-anchor="middle" x="538.38" y="-588.95" font-family="Times New Roman,serif" font-size="14.00">Logic: Didn&#39;t she repeatedly tell you her husband isn&#39;t missing though?</text>
</g>
<!-- 17 -->
<g id="node18" class="node">
<title>17</title>
<ellipse fill="none" stroke="black" cx="538.38" cy="-522" rx="255.05" ry="18"/>
<text text-anchor="middle" x="538.38" y="-516.95" font-family="Times New Roman,serif" font-size="14.00">Variable[&quot;plaza.working_authority_logic_husband_not_missing&quot;]</text>
</g>
<!-- 16&#45;&gt;17 -->
<g id="edge18" class="edge">
<title>16&#45;&gt;17</title>
<path fill="none" stroke="black" d="M538.38,-575.7C538.38,-568.41 538.38,-559.73 538.38,-551.54"/>
<polygon fill="black" stroke="black" points="541.88,-551.62 538.38,-541.62 534.88,-551.62 541.88,-551.62"/>
</g>
<!-- 18 -->
<g id="node19" class="node">
<title>18</title>
<polygon fill="none" stroke="black" points="490.38,-468 129.68,-450 490.38,-432 851.08,-450 490.38,-468"/>
<text text-anchor="middle" x="490.38" y="-444.95" font-family="Times New Roman,serif" font-size="14.00">Variable[&quot;plaza.working_authority_logic_husband_not_missing&quot;]</text>
</g>
<!-- 17&#45;&gt;18 -->
<g id="edge19" class="edge">
<title>17&#45;&gt;18</title>
<path fill="none" stroke="black" d="M526.52,-503.7C520.97,-495.61 514.25,-485.81 508.12,-476.87"/>
<polygon fill="black" stroke="black" points="511.18,-475.14 502.63,-468.87 505.4,-479.1 511.18,-475.14"/>
</g>
<!-- 19 -->
<g id="node20" class="node">
<title>19</title>
<polygon fill="none" stroke="black" points="935.38,-396 561.66,-378 935.38,-360 1309.11,-378 935.38,-396"/>
<text text-anchor="middle" x="935.38" y="-372.95" font-family="Times New Roman,serif" font-size="14.00">!(Variable[&quot;plaza.working_authority_logic_husband_not_missing&quot;])</text>
</g>
<!-- 17&#45;&gt;19 -->
<g id="edge20" class="edge">
<title>17&#45;&gt;19</title>
<path fill="none" stroke="black" d="M684.71,-506.84C754.88,-498.07 830.15,-485.18 860.38,-468 886.23,-453.31 907.14,-426.1 920.25,-405.62"/>
<polygon fill="black" stroke="black" points="923.17,-407.55 925.42,-397.2 917.21,-403.89 923.17,-407.55"/>
</g>
<!-- 18&#45;&gt;14 -->
<g id="edge21" class="edge">
<title>18&#45;&gt;14</title>
<path fill="none" stroke="black" d="M443.35,-433.9C412.06,-423.85 370.58,-410.53 336.31,-399.53"/>
<polygon fill="black" stroke="black" points="337.49,-396.23 326.9,-396.51 335.35,-402.9 337.49,-396.23"/>
</g>
<!-- 19&#45;&gt;29 -->
<g id="edge22" class="edge">
<title>19&#45;&gt;29</title>
<path fill="none" stroke="black" d="M868.2,-362.83C807.09,-349.95 717.9,-331.15 660.24,-318.99"/>
<polygon fill="black" stroke="black" points="661.14,-315.6 650.63,-316.96 659.7,-322.45 661.14,-315.6"/>
</g>
<!-- 30 -->
<g id="node31" class="node">
<title>30</title>
<ellipse fill="none" stroke="black" cx="1392.38" cy="-666" rx="354.85" ry="18"/>
<text text-anchor="middle" x="1392.38" y="-660.95" font-family="Times New Roman,serif" font-size="14.00">Authority: What do you mean *what did I crack*? Look at how working class that drunk is!</text>
</g>
<!-- 20&#45;&gt;30 -->
<g id="edge23" class="edge">
<title>20&#45;&gt;30</title>
<path fill="none" stroke="black" d="M975.78,-723.96C1056.24,-712.96 1172.21,-697.1 1261.37,-684.91"/>
<polygon fill="black" stroke="black" points="1261.72,-688.4 1271.16,-683.57 1260.77,-681.46 1261.72,-688.4"/>
</g>
<!-- 21 -->
<g id="node22" class="node">
<title>21</title>
<ellipse fill="none" stroke="black" cx="1437.38" cy="-522" rx="149.62" ry="18"/>
<text text-anchor="middle" x="1437.38" y="-516.95" font-family="Times New Roman,serif" font-size="14.00">You: It&#39;s... uhm... some third option?</text>
</g>
<!-- 21&#45;&gt;6 -->
<g id="edge24" class="edge">
<title>21&#45;&gt;6</title>
<path fill="none" stroke="black" d="M1444.05,-503.7C1446.96,-496.15 1450.45,-487.12 1453.7,-478.68"/>
<polygon fill="black" stroke="black" points="1456.9,-480.11 1457.24,-469.52 1450.37,-477.59 1456.9,-480.11"/>
</g>
<!-- 28 -->
<g id="node29" class="node">
<title>28</title>
<ellipse fill="none" stroke="black" cx="1437.38" cy="-594" rx="81.55" ry="18"/>
<text text-anchor="middle" x="1437.38" y="-588.95" font-family="Times New Roman,serif" font-size="14.00">Authority case hub</text>
</g>
<!-- 22&#45;&gt;28 -->
<g id="edge25" class="edge">
<title>22&#45;&gt;28</title>
<path fill="none" stroke="black" d="M1384.13,-392.01C1340.03,-400.98 1291.63,-414.45 1278.38,-432 1249.46,-470.31 1250.31,-501.06 1278.38,-540 1295.35,-563.55 1323.24,-576.79 1350.96,-584.19"/>
<polygon fill="black" stroke="black" points="1349.95,-587.54 1360.49,-586.48 1351.59,-580.74 1349.95,-587.54"/>
</g>
<!-- 23&#45;&gt;16 -->
<g id="edge26" class="edge">
<title>23&#45;&gt;16</title>
<path fill="none" stroke="black" d="M538.38,-647.7C538.38,-640.41 538.38,-631.73 538.38,-623.54"/>
<polygon fill="black" stroke="black" points="541.88,-623.62 538.38,-613.62 534.88,-623.62 541.88,-623.62"/>
</g>
<!-- 24 -->
<g id="node25" class="node">
<title>24</title>
<ellipse fill="none" stroke="black" cx="1048.38" cy="-234" rx="235.09" ry="18"/>
<text text-anchor="middle" x="1048.38" y="-228.95" font-family="Times New Roman,serif" font-size="14.00">You: This doesn&#39;t add up. I&#39;m only making a fool of myself.</text>
</g>
<!-- 33 -->
<g id="node34" class="node">
<title>33</title>
<ellipse fill="none" stroke="black" cx="1361.38" cy="-162" rx="861.03" ry="18"/>
<text text-anchor="middle" x="1361.38" y="-156.95" font-family="Times New Roman,serif" font-size="14.00">Authority: Do marriages make any sense? Does honour? You&#39;re not a filthy philosopher, you&#39;re an officer of law. It&#39;s time to *ace this case* and not brood over your reputation. We can deal with the perception management later.</text>
</g>
<!-- 24&#45;&gt;33 -->
<g id="edge27" class="edge">
<title>24&#45;&gt;33</title>
<path fill="none" stroke="black" d="M1122.16,-216.5C1167.17,-206.43 1224.99,-193.5 1272.51,-182.88"/>
<polygon fill="black" stroke="black" points="1273.26,-186.29 1282.25,-180.7 1271.73,-179.46 1273.26,-186.29"/>
</g>
<!-- 26 -->
<g id="node27" class="node">
<title>26</title>
<ellipse fill="none" stroke="black" cx="1805.38" cy="-522" rx="200.29" ry="18"/>
<text text-anchor="middle" x="1805.38" y="-516.95" font-family="Times New Roman,serif" font-size="14.00">You: It&#39;s the future leader of a proletarian uprising.</text>
</g>
<!-- 31 -->
<g id="node32" class="node">
<title>31</title>
<ellipse fill="none" stroke="black" cx="1780.38" cy="-450" rx="95.37" ry="18"/>
<text text-anchor="middle" x="1780.38" y="-444.95" font-family="Times New Roman,serif" font-size="14.00">Authority: No, it&#39;s not.</text>
</g>
<!-- 26&#45;&gt;31 -->
<g id="edge28" class="edge">
<title>26&#45;&gt;31</title>
<path fill="none" stroke="black" d="M1799.2,-503.7C1796.51,-496.15 1793.28,-487.12 1790.27,-478.68"/>
<polygon fill="black" stroke="black" points="1793.66,-477.77 1787,-469.53 1787.07,-480.12 1793.66,-477.77"/>
</g>
<!-- 28&#45;&gt;1 -->
<g id="edge29" class="edge">
<title>28&#45;&gt;1</title>
<path fill="none" stroke="black" d="M1514.58,-600.12C1596.25,-606.87 1718.46,-621.16 1756.38,-648 1793.23,-674.09 1805.38,-691.85 1805.38,-737 1805.38,-1027 1805.38,-1027 1805.38,-1027 1805.38,-1122.56 1665.84,-1154.56 1594.85,-1164.66"/>
<polygon fill="black" stroke="black" points="1594.61,-1161.16 1585.16,-1165.95 1595.54,-1168.1 1594.61,-1161.16"/>
</g>
<!-- 28&#45;&gt;21 -->
<g id="edge31" class="edge">
<title>28&#45;&gt;21</title>
<path fill="none" stroke="black" d="M1437.38,-575.7C1437.38,-568.41 1437.38,-559.73 1437.38,-551.54"/>
<polygon fill="black" stroke="black" points="1440.88,-551.62 1437.38,-541.62 1433.88,-551.62 1440.88,-551.62"/>
</g>
<!-- 28&#45;&gt;26 -->
<g id="edge30" class="edge">
<title>28&#45;&gt;26</title>
<path fill="none" stroke="black" d="M1497.74,-581.52C1555.68,-570.5 1644.08,-553.68 1711.27,-540.9"/>
<polygon fill="black" stroke="black" points="1711.63,-544.4 1720.8,-539.09 1710.32,-537.52 1711.63,-544.4"/>
</g>
<!-- 29&#45;&gt;9 -->
<g id="edge33" class="edge">
<title>29&#45;&gt;9</title>
<path fill="none" stroke="black" d="M581.84,-289.32C554.72,-268.08 509.49,-227.36 491.38,-180 485.66,-165.06 486.48,-159.23 491.38,-144 494.47,-134.39 500.01,-125.05 505.93,-116.96"/>
<polygon fill="black" stroke="black" points="508.54,-119.29 511.98,-109.27 503.04,-114.96 508.54,-119.29"/>
</g>
<!-- 29&#45;&gt;24 -->
<g id="edge32" class="edge">
<title>29&#45;&gt;24</title>
<path fill="none" stroke="black" d="M652.7,-297.24C720.91,-286.51 845.95,-266.84 937.26,-252.48"/>
<polygon fill="black" stroke="black" points="937.68,-255.96 947.01,-250.95 936.59,-249.04 937.68,-255.96"/>
</g>
<!-- 30&#45;&gt;28 -->
<g id="edge34" class="edge">
<title>30&#45;&gt;28</title>
<path fill="none" stroke="black" d="M1403.5,-647.7C1408.57,-639.81 1414.68,-630.3 1420.31,-621.55"/>
<polygon fill="black" stroke="black" points="1423.1,-623.68 1425.57,-613.38 1417.21,-619.9 1423.1,-623.68"/>
</g>
<!-- 31&#45;&gt;22 -->
<g id="edge35" class="edge">
<title>31&#45;&gt;22</title>
<path fill="none" stroke="black" d="M1720.2,-435.67C1669.44,-424.42 1596.47,-408.26 1541.44,-396.07"/>
<polygon fill="black" stroke="black" points="1542.34,-392.68 1531.81,-393.94 1540.82,-399.52 1542.34,-392.68"/>
</g>
<!-- 32&#45;&gt;2 -->
<g id="edge36" class="edge">
<title>32&#45;&gt;2</title>
<path fill="none" stroke="black" d="M636.91,-792.05C619.79,-782.84 598.4,-771.32 579.93,-761.37"/>
<polygon fill="black" stroke="black" points="581.81,-758.41 571.34,-756.75 578.49,-764.57 581.81,-758.41"/>
</g>
<!-- 33&#45;&gt;5 -->
<g id="edge38" class="edge">
<title>33&#45;&gt;5</title>
<path fill="none" stroke="black" d="M1361.38,-143.7C1361.38,-136.41 1361.38,-127.73 1361.38,-119.54"/>
<polygon fill="black" stroke="black" points="1364.88,-119.62 1361.38,-109.62 1357.88,-119.62 1364.88,-119.62"/>
</g>
<!-- 33&#45;&gt;9 -->
<g id="edge37" class="edge">
<title>33&#45;&gt;9</title>
<path fill="none" stroke="black" d="M1159.71,-144.03C1008.61,-131.32 805.62,-114.24 671.3,-102.94"/>
<polygon fill="black" stroke="black" points="671.91,-99.48 661.65,-102.13 671.32,-106.45 671.91,-99.48"/>
</g>
</g>
</svg>
