<?xml version="1.0" encoding="UTF-8" standalone="no"?>
<!DOCTYPE svg PUBLIC "-//W3C//DTD SVG 1.1//EN"
 "http://www.w3.org/Graphics/SVG/1.1/DTD/svg11.dtd">
<!-- Generated by graphviz version 12.2.1 (20241206.2353)
 -->
<!-- Title: G Pages: 1 -->
<svg width="5174pt" height="1046pt"
 viewBox="0.00 0.00 5174.49 1045.95" xmlns="http://www.w3.org/2000/svg" xmlns:xlink="http://www.w3.org/1999/xlink">
<g id="graph0" class="graph" transform="scale(1 1) rotate(0) translate(4 1041.95)">
<title>G</title>
<polygon fill="white" stroke="none" points="-4,4 -4,-1041.95 5170.49,-1041.95 5170.49,4 -4,4"/>
<!-- 0 -->
<g id="node1" class="node">
<title>0</title>
<ellipse fill="none" stroke="black" cx="732.57" cy="-936.96" rx="39.07" ry="18"/>
<text text-anchor="middle" x="732.57" y="-931.91" font-family="Times New Roman,serif" font-size="14.00">START</text>
</g>
<!-- 1 -->
<g id="node2" class="node">
<title>1</title>
<ellipse fill="none" stroke="black" cx="732.57" cy="-853.97" rx="29.86" ry="18"/>
<text text-anchor="middle" x="732.57" y="-848.92" font-family="Times New Roman,serif" font-size="14.00">input</text>
</g>
<!-- 0&#45;&gt;1 -->
<g id="edge1" class="edge">
<title>0&#45;&gt;1</title>
<path fill="none" stroke="black" d="M732.57,-918.78C732.57,-908.65 732.57,-895.56 732.57,-883.88"/>
<polygon fill="black" stroke="black" points="736.07,-883.91 732.57,-873.91 729.07,-883.91 736.07,-883.91"/>
</g>
<!-- 35 -->
<g id="node36" class="node">
<title>35</title>
<ellipse fill="none" stroke="black" cx="732.57" cy="-770.97" rx="732.57" ry="18"/>
<text text-anchor="middle" x="732.57" y="-765.92" font-family="Times New Roman,serif" font-size="14.00">Coin&#45;Operated Viewer: The lenses shift, the ghost sharpens into an islet in the bay. In the ruins a man&#45;made structure is visible: a half&#45;sunken sea&#45;fort, its concrete almost reconquered by nature.</text>
</g>
<!-- 1&#45;&gt;35 -->
<g id="edge2" class="edge">
<title>1&#45;&gt;35</title>
<path fill="none" stroke="black" d="M732.57,-835.79C732.57,-825.66 732.57,-812.57 732.57,-800.89"/>
<polygon fill="black" stroke="black" points="736.07,-800.92 732.57,-790.92 729.07,-800.92 736.07,-800.92"/>
</g>
<!-- 2 -->
<g id="node3" class="node">
<title>2</title>
<ellipse fill="none" stroke="black" cx="467.57" cy="-604.99" rx="62.61" ry="18"/>
<text text-anchor="middle" x="467.57" y="-599.94" font-family="Times New Roman,serif" font-size="14.00">You: [Leave.]</text>
</g>
<!-- 3 -->
<g id="node4" class="node">
<title>3</title>
<ellipse fill="none" stroke="black" cx="2249.57" cy="-378" rx="53.91" ry="18"/>
<text text-anchor="middle" x="2249.57" y="-372.95" font-family="Times New Roman,serif" font-size="14.00">Viewer hub</text>
</g>
<!-- 8 -->
<g id="node9" class="node">
<title>8</title>
<ellipse fill="none" stroke="black" cx="2727.57" cy="-306" rx="80.01" ry="18"/>
<text text-anchor="middle" x="2727.57" y="-300.95" font-family="Times New Roman,serif" font-size="14.00">You: Insert a coin.</text>
</g>
<!-- 3&#45;&gt;8 -->
<g id="edge3" class="edge">
<title>3&#45;&gt;8</title>
<path fill="none" stroke="black" d="M2298.03,-369.9C2381.11,-357.74 2551.33,-332.81 2650.73,-318.25"/>
<polygon fill="black" stroke="black" points="2651.02,-321.75 2660.4,-316.84 2650,-314.82 2651.02,-321.75"/>
</g>
<!-- 9 -->
<g id="node10" class="node">
<title>9</title>
<ellipse fill="none" stroke="black" cx="2249.57" cy="-306" rx="189.03" ry="18"/>
<text text-anchor="middle" x="2249.57" y="-300.95" font-family="Times New Roman,serif" font-size="14.00">You: &quot;What&#39;s a tourist attraction doing... here?&quot;</text>
</g>
<!-- 3&#45;&gt;9 -->
<g id="edge4" class="edge">
<title>3&#45;&gt;9</title>
<path fill="none" stroke="black" d="M2249.57,-359.7C2249.57,-352.41 2249.57,-343.73 2249.57,-335.54"/>
<polygon fill="black" stroke="black" points="2253.07,-335.62 2249.57,-325.62 2246.07,-335.62 2253.07,-335.62"/>
</g>
<!-- 24 -->
<g id="node25" class="node">
<title>24</title>
<ellipse fill="none" stroke="black" cx="1693.57" cy="-162" rx="432.65" ry="18"/>
<text text-anchor="middle" x="1693.57" y="-156.95" font-family="Times New Roman,serif" font-size="14.00">Kim Kitsuragi: &quot;We should have *done* something about the Union ten years ago. That ship has sailed, officer.&quot;</text>
</g>
<!-- 3&#45;&gt;24 -->
<g id="edge5" class="edge">
<title>3&#45;&gt;24</title>
<path fill="none" stroke="black" d="M2205.3,-367.31C2164.76,-357.93 2103.36,-342.44 2051.57,-324 1935.17,-282.55 1804.08,-219.06 1737.49,-185.54"/>
<polygon fill="black" stroke="black" points="1739.23,-182.49 1728.72,-181.11 1736.07,-188.74 1739.23,-182.49"/>
</g>
<!-- 4 -->
<g id="node5" class="node">
<title>4</title>
<ellipse fill="none" stroke="black" cx="2789.57" cy="-687.98" rx="228.44" ry="18"/>
<text text-anchor="middle" x="2789.57" y="-682.93" font-family="Times New Roman,serif" font-size="14.00">Variable[&quot;plaza.viewer_logic_wondered_why_is_it_here&quot;]</text>
</g>
<!-- 5 -->
<g id="node6" class="node">
<title>5</title>
<polygon fill="none" stroke="black" points="2249.57,-468 1926.51,-450 2249.57,-432 2572.63,-450 2249.57,-468"/>
<text text-anchor="middle" x="2249.57" y="-444.95" font-family="Times New Roman,serif" font-size="14.00">Variable[&quot;plaza.viewer_logic_wondered_why_is_it_here&quot;]</text>
</g>
<!-- 4&#45;&gt;5 -->
<g id="edge6" class="edge">
<title>4&#45;&gt;5</title>
<path fill="none" stroke="black" d="M2618.46,-675.7C2433.41,-659.43 2156.35,-621.81 2093.57,-540 2066.68,-504.97 2117.28,-481.46 2167.86,-467.45"/>
<polygon fill="black" stroke="black" points="2168.72,-470.84 2177.5,-464.9 2166.94,-464.07 2168.72,-470.84"/>
</g>
<!-- 6 -->
<g id="node7" class="node">
<title>6</title>
<polygon fill="none" stroke="black" points="2789.57,-622.99 2453.48,-604.99 2789.57,-586.99 3125.66,-604.99 2789.57,-622.99"/>
<text text-anchor="middle" x="2789.57" y="-599.94" font-family="Times New Roman,serif" font-size="14.00">!(Variable[&quot;plaza.viewer_logic_wondered_why_is_it_here&quot;])</text>
</g>
<!-- 4&#45;&gt;6 -->
<g id="edge7" class="edge">
<title>4&#45;&gt;6</title>
<path fill="none" stroke="black" d="M2789.57,-669.81C2789.57,-659.67 2789.57,-646.59 2789.57,-634.91"/>
<polygon fill="black" stroke="black" points="2793.07,-634.94 2789.57,-624.94 2786.07,-634.94 2793.07,-634.94"/>
</g>
<!-- 5&#45;&gt;3 -->
<g id="edge8" class="edge">
<title>5&#45;&gt;3</title>
<path fill="none" stroke="black" d="M2249.57,-431.7C2249.57,-424.41 2249.57,-415.73 2249.57,-407.54"/>
<polygon fill="black" stroke="black" points="2253.07,-407.62 2249.57,-397.62 2246.07,-407.62 2253.07,-407.62"/>
</g>
<!-- 20 -->
<g id="node21" class="node">
<title>20</title>
<ellipse fill="none" stroke="black" cx="2789.57" cy="-522" rx="687.02" ry="18"/>
<text text-anchor="middle" x="2789.57" y="-516.95" font-family="Times New Roman,serif" font-size="14.00">Kim Kitsuragi: &quot;There was a revitalization project in &#39;49. A design studio tried restoring Martinaise to its pre&#45;war glory.&quot; The lieutenant looks around and concludes: &quot;It didn&#39;t stick.&quot;</text>
</g>
<!-- 6&#45;&gt;20 -->
<g id="edge9" class="edge">
<title>6&#45;&gt;20</title>
<path fill="none" stroke="black" d="M2789.57,-586.82C2789.57,-576.68 2789.57,-563.6 2789.57,-551.91"/>
<polygon fill="black" stroke="black" points="2793.07,-551.94 2789.57,-541.94 2786.07,-551.94 2793.07,-551.94"/>
</g>
<!-- 7 -->
<g id="node8" class="node">
<title>7</title>
<ellipse fill="none" stroke="black" cx="1644.57" cy="-604.99" rx="402.17" ry="28.99"/>
<text text-anchor="middle" x="1644.57" y="-608.19" font-family="Times New Roman,serif" font-size="14.00">You: Could the shot have come from there? Then entered the window upstairs the Whirling&#45;in&#45;Rags?</text>
<text text-anchor="middle" x="1644.57" y="-591.69" font-family="Times New Roman,serif" font-size="14.00">&quot;Could the shot have come from there?&quot;</text>
</g>
<!-- 16 -->
<g id="node17" class="node">
<title>16</title>
<polygon fill="none" stroke="black" points="1644.57,-540 1561.81,-522 1644.57,-504 1727.32,-522 1644.57,-540"/>
<text text-anchor="middle" x="1644.57" y="-516.95" font-family="Times New Roman,serif" font-size="14.00">IsKimHere()</text>
</g>
<!-- 7&#45;&gt;16 -->
<g id="edge10" class="edge">
<title>7&#45;&gt;16</title>
<path fill="none" stroke="black" d="M1644.57,-575.66C1644.57,-567.79 1644.57,-559.24 1644.57,-551.36"/>
<polygon fill="black" stroke="black" points="1648.07,-551.61 1644.57,-541.61 1641.07,-551.61 1648.07,-551.61"/>
</g>
<!-- 13 -->
<g id="node14" class="node">
<title>13</title>
<ellipse fill="none" stroke="black" cx="2919.57" cy="-234" rx="459.26" ry="18"/>
<text text-anchor="middle" x="2919.57" y="-228.95" font-family="Times New Roman,serif" font-size="14.00">Kim Kitsuragi: &quot;Really? I don&#39;t have the eyesight to make it out...&quot; The lieutenant takes off his glasses and cleans them.</text>
</g>
<!-- 8&#45;&gt;13 -->
<g id="edge11" class="edge">
<title>8&#45;&gt;13</title>
<path fill="none" stroke="black" d="M2768.29,-290.15C2795.34,-280.29 2831.29,-267.18 2861.36,-256.22"/>
<polygon fill="black" stroke="black" points="2862.52,-259.52 2870.72,-252.81 2860.12,-252.95 2862.52,-259.52"/>
</g>
<!-- 21 -->
<g id="node22" class="node">
<title>21</title>
<ellipse fill="none" stroke="black" cx="2249.57" cy="-234" rx="192.61" ry="18"/>
<text text-anchor="middle" x="2249.57" y="-228.95" font-family="Times New Roman,serif" font-size="14.00">You: &quot;Cool. I dig organized crime. It&#39;s the best.&quot;</text>
</g>
<!-- 9&#45;&gt;21 -->
<g id="edge12" class="edge">
<title>9&#45;&gt;21</title>
<path fill="none" stroke="black" d="M2249.57,-287.7C2249.57,-280.41 2249.57,-271.73 2249.57,-263.54"/>
<polygon fill="black" stroke="black" points="2253.07,-263.62 2249.57,-253.62 2246.07,-263.62 2253.07,-263.62"/>
</g>
<!-- 10 -->
<g id="node11" class="node">
<title>10</title>
<ellipse fill="none" stroke="black" cx="4142.57" cy="-687.98" rx="576.47" ry="18"/>
<text text-anchor="middle" x="4142.57" y="-682.93" font-family="Times New Roman,serif" font-size="14.00">Coin&#45;Operated Viewer: It&#39;s not possible to know from this distance. The details are blurry, there&#39;s water vapour in the way and waves cut into the islet...</text>
</g>
<!-- 28 -->
<g id="node29" class="node">
<title>28</title>
<ellipse fill="none" stroke="black" cx="4142.57" cy="-604.99" rx="130.68" ry="18"/>
<text text-anchor="middle" x="4142.57" y="-599.94" font-family="Times New Roman,serif" font-size="14.00">You: &quot;Hang in there, little one.&quot;</text>
</g>
<!-- 10&#45;&gt;28 -->
<g id="edge13" class="edge">
<title>10&#45;&gt;28</title>
<path fill="none" stroke="black" d="M4142.57,-669.81C4142.57,-659.67 4142.57,-646.59 4142.57,-634.91"/>
<polygon fill="black" stroke="black" points="4146.07,-634.94 4142.57,-624.94 4139.07,-634.94 4146.07,-634.94"/>
</g>
<!-- 11 -->
<g id="node12" class="node">
<title>11</title>
<ellipse fill="none" stroke="black" cx="2428.57" cy="-162" rx="284.22" ry="18"/>
<text text-anchor="middle" x="2428.57" y="-156.95" font-family="Times New Roman,serif" font-size="14.00">Kim Kitsuragi: &quot;That&#39;s odd. I could swear you were a *police officer*...&quot;</text>
</g>
<!-- 42 -->
<g id="node43" class="node">
<title>42</title>
<ellipse fill="none" stroke="black" cx="2061.57" cy="-90" rx="110.21" ry="18"/>
<text text-anchor="middle" x="2061.57" y="-84.95" font-family="Times New Roman,serif" font-size="14.00">Jump to: [sgreat_successs]</text>
</g>
<!-- 11&#45;&gt;42 -->
<g id="edge14" class="edge">
<title>11&#45;&gt;42</title>
<path fill="none" stroke="black" d="M2341.59,-144.41C2281.26,-132.9 2201.46,-117.68 2142.48,-106.43"/>
<polygon fill="black" stroke="black" points="2143.32,-103.03 2132.84,-104.59 2142,-109.91 2143.32,-103.03"/>
</g>
<!-- 12 -->
<g id="node13" class="node">
<title>12</title>
<ellipse fill="none" stroke="black" cx="3837.57" cy="-1019.95" rx="361.51" ry="18"/>
<text text-anchor="middle" x="3837.57" y="-1014.9" font-family="Times New Roman,serif" font-size="14.00">Coin&#45;Operated Viewer: Your money disappears into the coin&#45;slot. A clunk, the ring of metal...</text>
</g>
<!-- 39 -->
<g id="node40" class="node">
<title>39</title>
<ellipse fill="none" stroke="black" cx="3837.57" cy="-936.96" rx="1030.08" ry="28.99"/>
<text text-anchor="middle" x="3837.57" y="-940.16" font-family="Times New Roman,serif" font-size="14.00">Kim Kitsuragi: &quot;They got as far as the street lamps and the statue on that intersection. Then something went sour.&quot; He lowers his voice. &quot;I suspect that *something* was Evrart Claire &#45;&#45; the Union leader. He muscled them out. It&#39;s how it usually goes around here.&quot;</text>
<text text-anchor="middle" x="3837.57" y="-923.66" font-family="Times New Roman,serif" font-size="14.00">&quot;They got as far as the street lamps and that statue on the intersection before something went sour.&quot; He lowers his voice. &quot;I suspect it was Evrart Claire&#39;s doing. He muscled them out &#45;&#45; it&#39;s how it usually goes around here.&quot;</text>
</g>
<!-- 12&#45;&gt;39 -->
<g id="edge15" class="edge">
<title>12&#45;&gt;39</title>
<path fill="none" stroke="black" d="M3837.57,-1001.77C3837.57,-994.69 3837.57,-986.15 3837.57,-977.67"/>
<polygon fill="black" stroke="black" points="3841.07,-977.78 3837.57,-967.78 3834.07,-977.78 3841.07,-977.78"/>
</g>
<!-- 43 -->
<g id="node44" class="node">
<title>43</title>
<ellipse fill="none" stroke="black" cx="2919.57" cy="-90" rx="110.21" ry="18"/>
<text text-anchor="middle" x="2919.57" y="-84.95" font-family="Times New Roman,serif" font-size="14.00">Jump to: [sgreat_successs]</text>
</g>
<!-- 13&#45;&gt;43 -->
<g id="edge16" class="edge">
<title>13&#45;&gt;43</title>
<path fill="none" stroke="black" d="M2919.57,-215.59C2919.57,-191.61 2919.57,-148.14 2919.57,-119.42"/>
<polygon fill="black" stroke="black" points="2923.07,-119.62 2919.57,-109.62 2916.07,-119.62 2923.07,-119.62"/>
</g>
<!-- 14 -->
<g id="node15" class="node">
<title>14</title>
<ellipse fill="none" stroke="black" cx="4217.57" cy="-378" rx="167.53" ry="18"/>
<text text-anchor="middle" x="4217.57" y="-372.95" font-family="Times New Roman,serif" font-size="14.00">You: &quot;Can&#39;t we... do something about it?&quot;</text>
</g>
<!-- 25 -->
<g id="node26" class="node">
<title>25</title>
<ellipse fill="none" stroke="black" cx="4205.57" cy="-306" rx="651.19" ry="18"/>
<text text-anchor="middle" x="4205.57" y="-300.95" font-family="Times New Roman,serif" font-size="14.00">Coin&#45;Operated Viewer: It looks as if it was abandoned quite some time ago, nothing but a rotten tooth remains of the anti&#45;aircraft tower. A lonely birch tree grows out of it.</text>
</g>
<!-- 14&#45;&gt;25 -->
<g id="edge17" class="edge">
<title>14&#45;&gt;25</title>
<path fill="none" stroke="black" d="M4214.6,-359.7C4213.34,-352.32 4211.83,-343.52 4210.41,-335.25"/>
<polygon fill="black" stroke="black" points="4213.9,-334.86 4208.76,-325.6 4207,-336.04 4213.9,-334.86"/>
</g>
<!-- 15 -->
<g id="node16" class="node">
<title>15</title>
<ellipse fill="none" stroke="black" cx="4142.57" cy="-853.97" rx="58.52" ry="18"/>
<text text-anchor="middle" x="4142.57" y="-848.92" font-family="Times New Roman,serif" font-size="14.00">IsKimHere()</text>
</g>
<!-- 17 -->
<g id="node18" class="node">
<title>17</title>
<polygon fill="none" stroke="black" points="4142.57,-788.97 4046.78,-770.97 4142.57,-752.97 4238.35,-770.97 4142.57,-788.97"/>
<text text-anchor="middle" x="4142.57" y="-765.92" font-family="Times New Roman,serif" font-size="14.00">!(IsKimHere())</text>
</g>
<!-- 15&#45;&gt;17 -->
<g id="edge18" class="edge">
<title>15&#45;&gt;17</title>
<path fill="none" stroke="black" d="M4142.57,-835.79C4142.57,-825.66 4142.57,-812.57 4142.57,-800.89"/>
<polygon fill="black" stroke="black" points="4146.07,-800.92 4142.57,-790.92 4139.07,-800.92 4146.07,-800.92"/>
</g>
<!-- 18 -->
<g id="node19" class="node">
<title>18</title>
<ellipse fill="none" stroke="black" cx="4720.57" cy="-770.97" rx="299.07" ry="18"/>
<text text-anchor="middle" x="4720.57" y="-765.92" font-family="Times New Roman,serif" font-size="14.00">Kim Kitsuragi: &quot;Can you tell? From this distance? I don&#39;t think it&#39;s possible.&quot;</text>
</g>
<!-- 15&#45;&gt;18 -->
<g id="edge19" class="edge">
<title>15&#45;&gt;18</title>
<path fill="none" stroke="black" d="M4195.14,-845.6C4284.89,-833.02 4470.06,-807.08 4594.82,-789.59"/>
<polygon fill="black" stroke="black" points="4595.03,-793.1 4604.45,-788.25 4594.06,-786.17 4595.03,-793.1"/>
</g>
<!-- 19 -->
<g id="node20" class="node">
<title>19</title>
<ellipse fill="none" stroke="black" cx="1644.57" cy="-450" rx="264.26" ry="18"/>
<text text-anchor="middle" x="1644.57" y="-444.95" font-family="Times New Roman,serif" font-size="14.00">Logic: Why place a tourist attraction in the middle of such poverty?</text>
</g>
<!-- 16&#45;&gt;19 -->
<g id="edge20" class="edge">
<title>16&#45;&gt;19</title>
<path fill="none" stroke="black" d="M1644.57,-503.7C1644.57,-496.41 1644.57,-487.73 1644.57,-479.54"/>
<polygon fill="black" stroke="black" points="1648.07,-479.62 1644.57,-469.62 1641.07,-479.62 1648.07,-479.62"/>
</g>
<!-- 17&#45;&gt;10 -->
<g id="edge21" class="edge">
<title>17&#45;&gt;10</title>
<path fill="none" stroke="black" d="M4142.57,-752.8C4142.57,-742.67 4142.57,-729.58 4142.57,-717.9"/>
<polygon fill="black" stroke="black" points="4146.07,-717.93 4142.57,-707.93 4139.07,-717.93 4146.07,-717.93"/>
</g>
<!-- 38 -->
<g id="node39" class="node">
<title>38</title>
<ellipse fill="none" stroke="black" cx="4925.57" cy="-687.98" rx="149.11" ry="18"/>
<text text-anchor="middle" x="4925.57" y="-682.93" font-family="Times New Roman,serif" font-size="14.00">You: Pull the handle and look inside.</text>
</g>
<!-- 18&#45;&gt;38 -->
<g id="edge22" class="edge">
<title>18&#45;&gt;38</title>
<path fill="none" stroke="black" d="M4764.29,-752.7C4796.02,-740.16 4839.09,-723.15 4872.74,-709.85"/>
<polygon fill="black" stroke="black" points="4873.89,-713.16 4881.9,-706.23 4871.32,-706.65 4873.89,-713.16"/>
</g>
<!-- 19&#45;&gt;3 -->
<g id="edge23" class="edge">
<title>19&#45;&gt;3</title>
<path fill="none" stroke="black" d="M1774.73,-433.94C1902.38,-419.17 2091.47,-397.29 2187.99,-386.12"/>
<polygon fill="black" stroke="black" points="2188.26,-389.62 2197.79,-384.99 2187.46,-382.66 2188.26,-389.62"/>
</g>
<!-- 41 -->
<g id="node42" class="node">
<title>41</title>
<ellipse fill="none" stroke="black" cx="2737.57" cy="-450" rx="95.37" ry="18"/>
<text text-anchor="middle" x="2737.57" y="-444.95" font-family="Times New Roman,serif" font-size="14.00">Jump to: [Viewer hub]</text>
</g>
<!-- 20&#45;&gt;41 -->
<g id="edge24" class="edge">
<title>20&#45;&gt;41</title>
<path fill="none" stroke="black" d="M2776.71,-503.7C2770.79,-495.73 2763.64,-486.1 2757.08,-477.26"/>
<polygon fill="black" stroke="black" points="2759.95,-475.26 2751.18,-469.32 2754.33,-479.43 2759.95,-475.26"/>
</g>
<!-- 21&#45;&gt;11 -->
<g id="edge25" class="edge">
<title>21&#45;&gt;11</title>
<path fill="none" stroke="black" d="M2292.9,-216.05C2317.27,-206.52 2347.93,-194.53 2373.94,-184.36"/>
<polygon fill="black" stroke="black" points="2374.94,-187.73 2382.98,-180.83 2372.4,-181.21 2374.94,-187.73"/>
</g>
<!-- 22 -->
<g id="node23" class="node">
<title>22</title>
<ellipse fill="none" stroke="black" cx="3346.57" cy="-853.97" rx="78.48" ry="18"/>
<text text-anchor="middle" x="3346.57" y="-848.92" font-family="Times New Roman,serif" font-size="14.00">You: Say nothing.</text>
</g>
<!-- 34 -->
<g id="node35" class="node">
<title>34</title>
<ellipse fill="none" stroke="black" cx="2919.57" cy="-770.97" rx="848.7" ry="28.99"/>
<text text-anchor="middle" x="2919.57" y="-774.17" font-family="Times New Roman,serif" font-size="14.00">Coin&#45;Operated Viewer: This coin&#45;operated viewer is facing South. The instruction manual says to insert twenty five *centims* and pull the handle while looking inside, then use the focus knob to zoom in if necessary.</text>
<text text-anchor="middle" x="2919.57" y="-757.67" font-family="Times New Roman,serif" font-size="14.00">This coin&#45;operated viewer is facing South. It has given up all its secrets &#45;&#45; there seems to be a sunken seafort on the islet in the bay...</text>
</g>
<!-- 22&#45;&gt;34 -->
<g id="edge26" class="edge">
<title>22&#45;&gt;34</title>
<path fill="none" stroke="black" d="M3287.64,-841.79C3233.68,-831.55 3151.31,-815.93 3078.16,-802.06"/>
<polygon fill="black" stroke="black" points="3078.94,-798.64 3068.46,-800.22 3077.63,-805.52 3078.94,-798.64"/>
</g>
<!-- 23 -->
<g id="node24" class="node">
<title>23</title>
<ellipse fill="none" stroke="black" cx="3837.57" cy="-853.97" rx="62.61" ry="18"/>
<text text-anchor="middle" x="3837.57" y="-848.92" font-family="Times New Roman,serif" font-size="14.00">You: [Leave.]</text>
</g>
<!-- 24&#45;&gt;42 -->
<g id="edge27" class="edge">
<title>24&#45;&gt;42</title>
<path fill="none" stroke="black" d="M1783.12,-143.97C1843.38,-132.5 1922.19,-117.51 1980.57,-106.41"/>
<polygon fill="black" stroke="black" points="1980.94,-109.9 1990.11,-104.59 1979.63,-103.02 1980.94,-109.9"/>
</g>
<!-- 37 -->
<g id="node38" class="node">
<title>37</title>
<ellipse fill="none" stroke="black" cx="4010.57" cy="-234" rx="441.35" ry="18"/>
<text text-anchor="middle" x="4010.57" y="-228.95" font-family="Times New Roman,serif" font-size="14.00">Coin&#45;Operated Viewer: It&#39;s not. The details are blurry, there&#39;s water vapour in the way and waves cut into the islet...</text>
</g>
<!-- 25&#45;&gt;37 -->
<g id="edge28" class="edge">
<title>25&#45;&gt;37</title>
<path fill="none" stroke="black" d="M4157.12,-287.61C4130.51,-278.06 4097.32,-266.14 4069.25,-256.07"/>
<polygon fill="black" stroke="black" points="4070.79,-252.9 4060.2,-252.82 4068.43,-259.49 4070.79,-252.9"/>
</g>
<!-- 26 -->
<g id="node27" class="node">
<title>26</title>
<ellipse fill="none" stroke="black" cx="732.57" cy="-687.98" rx="68.75" ry="18"/>
<text text-anchor="middle" x="732.57" y="-682.93" font-family="Times New Roman,serif" font-size="14.00">sgreat_successs</text>
</g>
<!-- 26&#45;&gt;2 -->
<g id="edge30" class="edge">
<title>26&#45;&gt;2</title>
<path fill="none" stroke="black" d="M685.15,-674.66C646.96,-664.48 592.01,-649.27 544.57,-633.98 534.93,-630.88 524.69,-627.33 514.94,-623.84"/>
<polygon fill="black" stroke="black" points="516.21,-620.57 505.62,-620.45 513.82,-627.15 516.21,-620.57"/>
</g>
<!-- 26&#45;&gt;7 -->
<g id="edge32" class="edge">
<title>26&#45;&gt;7</title>
<path fill="none" stroke="black" d="M797.06,-681.26C917.36,-670.57 1182.04,-647.07 1383.83,-629.15"/>
<polygon fill="black" stroke="black" points="1384.05,-632.64 1393.7,-628.27 1383.43,-625.67 1384.05,-632.64"/>
</g>
<!-- 29 -->
<g id="node30" class="node">
<title>29</title>
<ellipse fill="none" stroke="black" cx="905.57" cy="-604.99" rx="318.52" ry="18"/>
<text text-anchor="middle" x="905.57" y="-599.94" font-family="Times New Roman,serif" font-size="14.00">Coin&#45;Operated Viewer: The little brave birch&#45;tree seems to wave back in the wind.</text>
</g>
<!-- 26&#45;&gt;29 -->
<g id="edge31" class="edge">
<title>26&#45;&gt;29</title>
<path fill="none" stroke="black" d="M765.11,-671.75C791.46,-659.41 828.94,-641.86 858.56,-628"/>
<polygon fill="black" stroke="black" points="859.73,-631.31 867.3,-623.9 856.76,-624.97 859.73,-631.31"/>
</g>
<!-- 33 -->
<g id="node34" class="node">
<title>33</title>
<ellipse fill="none" stroke="black" cx="682.57" cy="-378" rx="258.63" ry="18"/>
<text text-anchor="middle" x="682.57" y="-372.95" font-family="Times New Roman,serif" font-size="14.00">Kim Kitsuragi: The lieutenant adjusts his collar. It&#39;s frisky outside.</text>
</g>
<!-- 26&#45;&gt;33 -->
<g id="edge29" class="edge">
<title>26&#45;&gt;33</title>
<path fill="none" stroke="black" d="M667.4,-682.05C634.79,-675.89 597.99,-662.55 577.57,-633.98 523.99,-559.03 610.3,-452.68 656.46,-404.49"/>
<polygon fill="black" stroke="black" points="658.76,-407.14 663.24,-397.54 653.75,-402.25 658.76,-407.14"/>
</g>
<!-- 27 -->
<g id="node28" class="node">
<title>27</title>
<ellipse fill="none" stroke="black" cx="2919.57" cy="-18" rx="110.21" ry="18"/>
<text text-anchor="middle" x="2919.57" y="-12.95" font-family="Times New Roman,serif" font-size="14.00">Jump to: [sgreat_successs]</text>
</g>
<!-- 27&#45;&gt;27 -->
<g id="edge33" class="edge">
<title>27&#45;&gt;27</title>
<path fill="none" stroke="black" d="M2995.27,-31.46C3024.01,-31.98 3047.78,-27.49 3047.78,-18 3047.78,-9.81 3030.06,-5.34 3006.73,-4.61"/>
<polygon fill="black" stroke="black" points="3006.81,-1.11 2996.78,-4.55 3006.76,-8.11 3006.81,-1.11"/>
</g>
<!-- 30 -->
<g id="node31" class="node">
<title>30</title>
<ellipse fill="none" stroke="black" cx="4273.57" cy="-522" rx="740.76" ry="18"/>
<text text-anchor="middle" x="4273.57" y="-516.95" font-family="Times New Roman,serif" font-size="14.00">Coin&#45;Operated Viewer: The curtains on the display open. You lean in to catch the view &#45;&#45; it&#39;s blurry, different blues and greens. In the middle of the shimmer stands a drab grey shape, like a ghost.</text>
</g>
<!-- 28&#45;&gt;30 -->
<g id="edge34" class="edge">
<title>28&#45;&gt;30</title>
<path fill="none" stroke="black" d="M4170.03,-587.01C4189.2,-575.16 4215.03,-559.19 4236.09,-546.17"/>
<polygon fill="black" stroke="black" points="4237.74,-549.27 4244.4,-541.03 4234.06,-543.31 4237.74,-549.27"/>
</g>
<!-- 44 -->
<g id="node45" class="node">
<title>44</title>
<ellipse fill="none" stroke="black" cx="905.57" cy="-522" rx="27" ry="18"/>
<text text-anchor="middle" x="905.57" y="-516.95" font-family="Times New Roman,serif" font-size="14.00">44</text>
</g>
<!-- 29&#45;&gt;44 -->
<g id="edge35" class="edge">
<title>29&#45;&gt;44</title>
<path fill="none" stroke="black" d="M905.57,-586.82C905.57,-576.68 905.57,-563.6 905.57,-551.91"/>
<polygon fill="black" stroke="black" points="909.07,-551.94 905.57,-541.94 902.07,-551.94 909.07,-551.94"/>
</g>
<!-- 32 -->
<g id="node33" class="node">
<title>32</title>
<ellipse fill="none" stroke="black" cx="4262.57" cy="-450" rx="219.74" ry="18"/>
<text text-anchor="middle" x="4262.57" y="-444.95" font-family="Times New Roman,serif" font-size="14.00">You: &quot;There are ruins of some kind of building there...&quot;</text>
</g>
<!-- 30&#45;&gt;32 -->
<g id="edge36" class="edge">
<title>30&#45;&gt;32</title>
<path fill="none" stroke="black" d="M4270.85,-503.7C4269.69,-496.32 4268.31,-487.52 4267.01,-479.25"/>
<polygon fill="black" stroke="black" points="4270.5,-478.93 4265.49,-469.6 4263.59,-480.02 4270.5,-478.93"/>
</g>
<!-- 31 -->
<g id="node32" class="node">
<title>31</title>
<ellipse fill="none" stroke="black" cx="5003.57" cy="-604.99" rx="162.93" ry="18"/>
<text text-anchor="middle" x="5003.57" y="-599.94" font-family="Times New Roman,serif" font-size="14.00">You: Turn the knob to focus your vision.</text>
</g>
<!-- 36 -->
<g id="node37" class="node">
<title>36</title>
<ellipse fill="none" stroke="black" cx="4154.57" cy="-90" rx="219.74" ry="18"/>
<text text-anchor="middle" x="4154.57" y="-84.95" font-family="Times New Roman,serif" font-size="14.00">Empathy: Its leaves ripped from it by the winter wind...</text>
</g>
<!-- 31&#45;&gt;36 -->
<g id="edge37" class="edge">
<title>31&#45;&gt;36</title>
<path fill="none" stroke="black" d="M5010.9,-586.92C5022.2,-559.02 5042.57,-501.71 5042.57,-451 5042.57,-451 5042.57,-451 5042.57,-233 5042.57,-162.38 4598.98,-120.65 4338.84,-102.25"/>
<polygon fill="black" stroke="black" points="4339.09,-98.76 4328.87,-101.55 4338.6,-105.74 4339.09,-98.76"/>
</g>
<!-- 32&#45;&gt;14 -->
<g id="edge38" class="edge">
<title>32&#45;&gt;14</title>
<path fill="none" stroke="black" d="M4251.44,-431.7C4246.38,-423.81 4240.26,-414.3 4234.63,-405.55"/>
<polygon fill="black" stroke="black" points="4237.73,-403.9 4229.38,-397.38 4231.85,-407.68 4237.73,-403.9"/>
</g>
<!-- 33&#45;&gt;42 -->
<g id="edge39" class="edge">
<title>33&#45;&gt;42</title>
<path fill="none" stroke="black" d="M714.07,-359.8C798.28,-314.79 1036.79,-193.61 1251.57,-144 1379.38,-114.48 1749.66,-99.86 1942.16,-94.09"/>
<polygon fill="black" stroke="black" points="1942.05,-97.59 1951.94,-93.8 1941.84,-90.6 1942.05,-97.59"/>
</g>
<!-- 34&#45;&gt;4 -->
<g id="edge40" class="edge">
<title>34&#45;&gt;4</title>
<path fill="none" stroke="black" d="M2874.1,-741.65C2858.75,-732.08 2841.8,-721.52 2827.13,-712.39"/>
<polygon fill="black" stroke="black" points="2829.01,-709.43 2818.68,-707.12 2825.31,-715.38 2829.01,-709.43"/>
</g>
<!-- 35&#45;&gt;26 -->
<g id="edge41" class="edge">
<title>35&#45;&gt;26</title>
<path fill="none" stroke="black" d="M732.57,-752.8C732.57,-742.67 732.57,-729.58 732.57,-717.9"/>
<polygon fill="black" stroke="black" points="736.07,-717.93 732.57,-707.93 729.07,-717.93 736.07,-717.93"/>
</g>
<!-- 36&#45;&gt;27 -->
<g id="edge42" class="edge">
<title>36&#45;&gt;27</title>
<path fill="none" stroke="black" d="M3977.95,-78.99C3720.7,-64.41 3250.1,-37.73 3033.81,-25.48"/>
<polygon fill="black" stroke="black" points="3034.15,-21.99 3023.96,-24.92 3033.75,-28.98 3034.15,-21.99"/>
</g>
<!-- 37&#45;&gt;28 -->
<g id="edge43" class="edge">
<title>37&#45;&gt;28</title>
<path fill="none" stroke="black" d="M3702.77,-247.26C3634.21,-255.12 3573.55,-267.76 3545.57,-288 3510.28,-313.53 3504.57,-333.45 3504.57,-377 3504.57,-451 3504.57,-451 3504.57,-451 3504.57,-491.45 3493.48,-512.97 3523.57,-540 3558.8,-571.64 3836.07,-589.95 4007.35,-598.36"/>
<polygon fill="black" stroke="black" points="4007.06,-601.85 4017.22,-598.83 4007.4,-594.85 4007.06,-601.85"/>
</g>
<!-- 38&#45;&gt;31 -->
<g id="edge44" class="edge">
<title>38&#45;&gt;31</title>
<path fill="none" stroke="black" d="M4942.11,-669.81C4952.86,-658.64 4967.08,-643.88 4979.12,-631.37"/>
<polygon fill="black" stroke="black" points="4981.58,-633.86 4986,-624.23 4976.54,-629.01 4981.58,-633.86"/>
</g>
<!-- 39&#45;&gt;15 -->
<g id="edge47" class="edge">
<title>39&#45;&gt;15</title>
<path fill="none" stroke="black" d="M3944.24,-907.63C3992.81,-894.73 4048.22,-880.02 4088.11,-869.43"/>
<polygon fill="black" stroke="black" points="4088.95,-872.82 4097.72,-866.87 4087.16,-866.06 4088.95,-872.82"/>
</g>
<!-- 39&#45;&gt;22 -->
<g id="edge46" class="edge">
<title>39&#45;&gt;22</title>
<path fill="none" stroke="black" d="M3667.56,-907.91C3582.96,-893.96 3485.1,-877.82 3419.89,-867.06"/>
<polygon fill="black" stroke="black" points="3420.84,-863.67 3410.4,-865.5 3419.7,-870.58 3420.84,-863.67"/>
</g>
<!-- 39&#45;&gt;23 -->
<g id="edge45" class="edge">
<title>39&#45;&gt;23</title>
<path fill="none" stroke="black" d="M3837.57,-907.63C3837.57,-899.75 3837.57,-891.2 3837.57,-883.32"/>
<polygon fill="black" stroke="black" points="3841.07,-883.57 3837.57,-873.57 3834.07,-883.57 3841.07,-883.57"/>
</g>
<!-- 40 -->
<g id="node41" class="node">
<title>40</title>
<ellipse fill="none" stroke="black" cx="4319.57" cy="-1019.95" rx="102.02" ry="18"/>
<text text-anchor="middle" x="4319.57" y="-1014.9" font-family="Times New Roman,serif" font-size="14.00">You: &quot;What happened?&quot;</text>
</g>
<!-- 40&#45;&gt;40 -->
<g id="edge48" class="edge">
<title>40&#45;&gt;40</title>
<path fill="none" stroke="black" d="M4379.47,-1034.92C4411.01,-1037.34 4439.59,-1032.35 4439.59,-1019.95 4439.59,-1009.05 4417.51,-1003.88 4390.75,-1004.43"/>
<polygon fill="black" stroke="black" points="4390.8,-1000.92 4380.98,-1004.91 4391.14,-1007.91 4390.8,-1000.92"/>
</g>
<!-- 41&#45;&gt;3 -->
<g id="edge49" class="edge">
<title>41&#45;&gt;3</title>
<path fill="none" stroke="black" d="M2663.19,-438.33C2566.31,-424.43 2398.83,-400.41 2309.6,-387.61"/>
<polygon fill="black" stroke="black" points="2310.22,-384.16 2299.83,-386.21 2309.23,-391.09 2310.22,-384.16"/>
</g>
<!-- 42&#45;&gt;27 -->
<g id="edge50" class="edge">
<title>42&#45;&gt;27</title>
<path fill="none" stroke="black" d="M2158.32,-81.11C2319.73,-67.94 2642.81,-41.58 2811.46,-27.82"/>
<polygon fill="black" stroke="black" points="2811.65,-31.32 2821.33,-27.01 2811.08,-24.34 2811.65,-31.32"/>
</g>
<!-- 43&#45;&gt;27 -->
<g id="edge51" class="edge">
<title>43&#45;&gt;27</title>
<path fill="none" stroke="black" d="M2919.57,-71.7C2919.57,-64.41 2919.57,-55.73 2919.57,-47.54"/>
<polygon fill="black" stroke="black" points="2923.07,-47.62 2919.57,-37.62 2916.07,-47.62 2923.07,-47.62"/>
</g>
</g>
</svg>
