<?xml version="1.0" encoding="UTF-8" standalone="no"?>
<!DOCTYPE svg PUBLIC "-//W3C//DTD SVG 1.1//EN"
 "http://www.w3.org/Graphics/SVG/1.1/DTD/svg11.dtd">
<!-- Generated by graphviz version 12.2.1 (20241206.2353)
 -->
<!-- Title: G Pages: 1 -->
<svg width="3682pt" height="260pt"
 viewBox="0.00 0.00 3682.27 260.00" xmlns="http://www.w3.org/2000/svg" xmlns:xlink="http://www.w3.org/1999/xlink">
<g id="graph0" class="graph" transform="scale(1 1) rotate(0) translate(4 256)">
<title>G</title>
<polygon fill="white" stroke="none" points="-4,4 -4,-256 3678.27,-256 3678.27,4 -4,4"/>
<!-- 0 -->
<g id="node1" class="node">
<title>0</title>
<ellipse fill="none" stroke="black" cx="203.36" cy="-234" rx="39.07" ry="18"/>
<text text-anchor="middle" x="203.36" y="-228.95" font-family="Times New Roman,serif" font-size="14.00">START</text>
</g>
<!-- 1 -->
<g id="node2" class="node">
<title>1</title>
<ellipse fill="none" stroke="black" cx="203.36" cy="-162" rx="29.86" ry="18"/>
<text text-anchor="middle" x="203.36" y="-156.95" font-family="Times New Roman,serif" font-size="14.00">input</text>
</g>
<!-- 0&#45;&gt;1 -->
<g id="edge1" class="edge">
<title>0&#45;&gt;1</title>
<path fill="none" stroke="black" d="M203.36,-215.7C203.36,-208.41 203.36,-199.73 203.36,-191.54"/>
<polygon fill="black" stroke="black" points="206.86,-191.62 203.36,-181.62 199.86,-191.62 206.86,-191.62"/>
</g>
<!-- 7 -->
<g id="node8" class="node">
<title>7</title>
<ellipse fill="none" stroke="black" cx="203.36" cy="-90" rx="203.36" ry="18"/>
<text text-anchor="middle" x="203.36" y="-84.95" font-family="Times New Roman,serif" font-size="14.00">You: That&#39;s none of my concern. [Discard thought.]</text>
</g>
<!-- 1&#45;&gt;7 -->
<g id="edge2" class="edge">
<title>1&#45;&gt;7</title>
<path fill="none" stroke="black" d="M203.36,-143.7C203.36,-136.41 203.36,-127.73 203.36,-119.54"/>
<polygon fill="black" stroke="black" points="206.86,-119.62 203.36,-109.62 199.86,-119.62 206.86,-119.62"/>
</g>
<!-- 2 -->
<g id="node3" class="node">
<title>2</title>
<ellipse fill="none" stroke="black" cx="970.36" cy="-234" rx="101.51" ry="18"/>
<text text-anchor="middle" x="970.36" y="-228.95" font-family="Times New Roman,serif" font-size="14.00">You: Take a closer look.</text>
</g>
<!-- 3 -->
<g id="node4" class="node">
<title>3</title>
<ellipse fill="none" stroke="black" cx="721.36" cy="-162" rx="470.01" ry="18"/>
<text text-anchor="middle" x="721.36" y="-156.95" font-family="Times New Roman,serif" font-size="14.00">René Arnoux: Despite his limp, the man in the uniform moves with efficient grace. His motions are measured and precise.</text>
</g>
<!-- 2&#45;&gt;3 -->
<g id="edge3" class="edge">
<title>2&#45;&gt;3</title>
<path fill="none" stroke="black" d="M917.86,-218.24C881.86,-208.12 833.63,-194.56 793.96,-183.41"/>
<polygon fill="black" stroke="black" points="795.05,-180.08 784.47,-180.74 793.15,-186.82 795.05,-180.08"/>
</g>
<!-- 6 -->
<g id="node7" class="node">
<title>6</title>
<ellipse fill="none" stroke="black" cx="970.36" cy="-90" rx="210.52" ry="18"/>
<text text-anchor="middle" x="970.36" y="-84.95" font-family="Times New Roman,serif" font-size="14.00">Composure: *Something* isn&#39;t right about this game.</text>
</g>
<!-- 3&#45;&gt;6 -->
<g id="edge4" class="edge">
<title>3&#45;&gt;6</title>
<path fill="none" stroke="black" d="M782.91,-143.7C818.43,-133.71 863.23,-121.12 900.13,-110.74"/>
<polygon fill="black" stroke="black" points="900.67,-114.23 909.35,-108.15 898.77,-107.49 900.67,-114.23"/>
</g>
<!-- 4 -->
<g id="node5" class="node">
<title>4</title>
<ellipse fill="none" stroke="black" cx="1898.36" cy="-234" rx="808.32" ry="18"/>
<text text-anchor="middle" x="1898.36" y="-228.95" font-family="Times New Roman,serif" font-size="14.00">Gaston Martin: ...then suddenly he leans forward and uses the 0&#45;end of the measuring tape to nudge his opponent&#39;s balls further from the small brown sphere in the pit. As he does this, he complains about his back.</text>
</g>
<!-- 9 -->
<g id="node10" class="node">
<title>9</title>
<ellipse fill="none" stroke="black" cx="1898.36" cy="-162" rx="27" ry="18"/>
<text text-anchor="middle" x="1898.36" y="-156.95" font-family="Times New Roman,serif" font-size="14.00">9</text>
</g>
<!-- 4&#45;&gt;9 -->
<g id="edge5" class="edge">
<title>4&#45;&gt;9</title>
<path fill="none" stroke="black" d="M1898.36,-215.7C1898.36,-208.41 1898.36,-199.73 1898.36,-191.54"/>
<polygon fill="black" stroke="black" points="1901.86,-191.62 1898.36,-181.62 1894.86,-191.62 1901.86,-191.62"/>
</g>
<!-- 5 -->
<g id="node6" class="node">
<title>5</title>
<ellipse fill="none" stroke="black" cx="3190.36" cy="-234" rx="465.92" ry="18"/>
<text text-anchor="middle" x="3190.36" y="-228.95" font-family="Times New Roman,serif" font-size="14.00">Gaston Martin: The jolly&#45;looking man in the checkered jacket moves lazily. Like a giant tomcat stretched out in the sun...</text>
</g>
<!-- 5&#45;&gt;5 -->
<g id="edge6" class="edge">
<title>5&#45;&gt;5</title>
<path fill="none" stroke="black" d="M3510.31,-247.45C3602.8,-246.96 3674.27,-242.47 3674.27,-234 3674.27,-225.87 3608.54,-221.42 3521.58,-220.63"/>
<polygon fill="black" stroke="black" points="3521.85,-217.13 3511.82,-220.56 3521.8,-224.13 3521.85,-217.13"/>
</g>
<!-- 6&#45;&gt;2 -->
<g id="edge8" class="edge">
<title>6&#45;&gt;2</title>
<path fill="none" stroke="black" d="M1112.5,-103.61C1177.88,-115.22 1234.22,-137.45 1200.36,-180 1190.91,-191.87 1115.41,-207.75 1053.45,-219.02"/>
<polygon fill="black" stroke="black" points="1053.16,-215.51 1043.94,-220.73 1054.4,-222.4 1053.16,-215.51"/>
</g>
<!-- 8 -->
<g id="node9" class="node">
<title>8</title>
<ellipse fill="none" stroke="black" cx="970.36" cy="-18" rx="437.77" ry="18"/>
<text text-anchor="middle" x="970.36" y="-12.95" font-family="Times New Roman,serif" font-size="14.00">René Arnoux: Apparently oblivious to his partner&#39;s treachery, the uniformed man grabs a ball and takes aim again.</text>
</g>
<!-- 6&#45;&gt;8 -->
<g id="edge7" class="edge">
<title>6&#45;&gt;8</title>
<path fill="none" stroke="black" d="M970.36,-71.7C970.36,-64.41 970.36,-55.73 970.36,-47.54"/>
<polygon fill="black" stroke="black" points="973.86,-47.62 970.36,-37.62 966.86,-47.62 973.86,-47.62"/>
</g>
</g>
</svg>
