<?xml version="1.0" encoding="UTF-8" standalone="no"?>
<!DOCTYPE svg PUBLIC "-//W3C//DTD SVG 1.1//EN"
 "http://www.w3.org/Graphics/SVG/1.1/DTD/svg11.dtd">
<!-- Generated by graphviz version 12.2.1 (20241206.2353)
 -->
<!-- Title: G Pages: 1 -->
<svg width="3852pt" height="908pt"
 viewBox="0.00 0.00 3851.76 908.00" xmlns="http://www.w3.org/2000/svg" xmlns:xlink="http://www.w3.org/1999/xlink">
<g id="graph0" class="graph" transform="scale(1 1) rotate(0) translate(4 904)">
<title>G</title>
<polygon fill="white" stroke="none" points="-4,4 -4,-904 3847.76,-904 3847.76,4 -4,4"/>
<!-- 0 -->
<g id="node1" class="node">
<title>0</title>
<ellipse fill="none" stroke="black" cx="911.76" cy="-882" rx="39.07" ry="18"/>
<text text-anchor="middle" x="911.76" y="-876.95" font-family="Times New Roman,serif" font-size="14.00">START</text>
</g>
<!-- 1 -->
<g id="node2" class="node">
<title>1</title>
<ellipse fill="none" stroke="black" cx="911.76" cy="-810" rx="29.86" ry="18"/>
<text text-anchor="middle" x="911.76" y="-804.95" font-family="Times New Roman,serif" font-size="14.00">input</text>
</g>
<!-- 0&#45;&gt;1 -->
<g id="edge1" class="edge">
<title>0&#45;&gt;1</title>
<path fill="none" stroke="black" d="M911.76,-863.7C911.76,-856.41 911.76,-847.73 911.76,-839.54"/>
<polygon fill="black" stroke="black" points="915.26,-839.62 911.76,-829.62 908.26,-839.62 915.26,-839.62"/>
</g>
<!-- 14 -->
<g id="node14" class="node">
<title>14</title>
<ellipse fill="none" stroke="black" cx="911.76" cy="-738" rx="623.04" ry="18"/>
<text text-anchor="middle" x="911.76" y="-732.95" font-family="Times New Roman,serif" font-size="14.00">Coin&#45;Operated Viewer: This coin&#45;operated viewer is facing southwest. Its coin&#45;slot is full of fossilized bubblegum, rendering the machine permanently inaccessible.</text>
</g>
<!-- 1&#45;&gt;14 -->
<g id="edge2" class="edge">
<title>1&#45;&gt;14</title>
<path fill="none" stroke="black" d="M911.76,-791.7C911.76,-784.41 911.76,-775.73 911.76,-767.54"/>
<polygon fill="black" stroke="black" points="915.26,-767.62 911.76,-757.62 908.26,-767.62 915.26,-767.62"/>
</g>
<!-- 2 -->
<g id="node3" class="node">
<title>2</title>
<ellipse fill="none" stroke="black" cx="820.76" cy="-594" rx="62.61" ry="18"/>
<text text-anchor="middle" x="820.76" y="-588.95" font-family="Times New Roman,serif" font-size="14.00">You: [Leave.]</text>
</g>
<!-- 3 -->
<g id="node4" class="node">
<title>3</title>
<ellipse fill="none" stroke="black" cx="1179.76" cy="-594" rx="154.74" ry="18"/>
<text text-anchor="middle" x="1179.76" y="-588.95" font-family="Times New Roman,serif" font-size="14.00">You: &quot;Vandalism.&quot; (Shake your head.)</text>
</g>
<!-- 19 -->
<g id="node19" class="node">
<title>19</title>
<ellipse fill="none" stroke="black" cx="1264.76" cy="-522" rx="58.52" ry="18"/>
<text text-anchor="middle" x="1264.76" y="-516.95" font-family="Times New Roman,serif" font-size="14.00">IsKimHere()</text>
</g>
<!-- 3&#45;&gt;19 -->
<g id="edge3" class="edge">
<title>3&#45;&gt;19</title>
<path fill="none" stroke="black" d="M1200.77,-575.7C1211.4,-566.94 1224.46,-556.19 1236.01,-546.68"/>
<polygon fill="black" stroke="black" points="1238.2,-549.4 1243.7,-540.35 1233.75,-544 1238.2,-549.4"/>
</g>
<!-- 4 -->
<g id="node5" class="node">
<title>4</title>
<ellipse fill="none" stroke="black" cx="3194.76" cy="-90" rx="527.33" ry="18"/>
<text text-anchor="middle" x="3194.76" y="-84.95" font-family="Times New Roman,serif" font-size="14.00">Perception (Sight): Around the large wooden building you see chunks of sea ice, gathered on the beach. And a small tent set up on the ice.</text>
</g>
<!-- 26 -->
<g id="node26" class="node">
<title>26</title>
<ellipse fill="none" stroke="black" cx="3471.76" cy="-18" rx="95.37" ry="18"/>
<text text-anchor="middle" x="3471.76" y="-12.95" font-family="Times New Roman,serif" font-size="14.00">Jump to: [Viewer hub]</text>
</g>
<!-- 4&#45;&gt;26 -->
<g id="edge4" class="edge">
<title>4&#45;&gt;26</title>
<path fill="none" stroke="black" d="M3263.23,-71.7C3306.56,-60.75 3362.3,-46.66 3405.25,-35.81"/>
<polygon fill="black" stroke="black" points="3405.85,-39.27 3414.69,-33.42 3404.14,-32.48 3405.85,-39.27"/>
</g>
<!-- 5 -->
<g id="node6" class="node">
<title>5</title>
<ellipse fill="none" stroke="black" cx="2656.76" cy="-378" rx="163.44" ry="18"/>
<text text-anchor="middle" x="2656.76" y="-372.95" font-family="Times New Roman,serif" font-size="14.00">You: Shift your focus to the background.</text>
</g>
<!-- 22 -->
<g id="node22" class="node">
<title>22</title>
<ellipse fill="none" stroke="black" cx="2913.76" cy="-306" rx="902.49" ry="18"/>
<text text-anchor="middle" x="2913.76" y="-300.95" font-family="Times New Roman,serif" font-size="14.00">Coin&#45;Operated Viewer: Under the graffito a sea of blues and greys appears &#45;&#45; behind the water lies a coast studded with concrete and reeds. On it &#45;&#45; a church on stilts, lanky weather&#45;worn wooden planks, an x&#45;shaped cross topping its tower.</text>
</g>
<!-- 5&#45;&gt;22 -->
<g id="edge5" class="edge">
<title>5&#45;&gt;22</title>
<path fill="none" stroke="black" d="M2716.04,-360.85C2752.55,-350.91 2799.68,-338.07 2838.77,-327.43"/>
<polygon fill="black" stroke="black" points="2839.64,-330.82 2848.37,-324.81 2837.8,-324.06 2839.64,-330.82"/>
</g>
<!-- 7 -->
<g id="node7" class="node">
<title>7</title>
<ellipse fill="none" stroke="black" cx="2282.76" cy="-522" rx="619.97" ry="18"/>
<text text-anchor="middle" x="2282.76" y="-516.95" font-family="Times New Roman,serif" font-size="14.00">Coin&#45;Operated Viewer: A thick layer of graffito covers the lenses &#45;&#45; you spell out the word &quot;ONUC&quot; written on the other side &#45;&#45; with N and C scribbled backwards.</text>
</g>
<!-- 15 -->
<g id="node15" class="node">
<title>15</title>
<ellipse fill="none" stroke="black" cx="2435.76" cy="-450" rx="133.24" ry="18"/>
<text text-anchor="middle" x="2435.76" y="-444.95" font-family="Times New Roman,serif" font-size="14.00">Logic: That&#39;s CUNO on the lens.</text>
</g>
<!-- 7&#45;&gt;15 -->
<g id="edge6" class="edge">
<title>7&#45;&gt;15</title>
<path fill="none" stroke="black" d="M2320.58,-503.7C2341.19,-494.27 2366.88,-482.51 2388.77,-472.5"/>
<polygon fill="black" stroke="black" points="2390.15,-475.72 2397.79,-468.37 2387.24,-469.35 2390.15,-475.72"/>
</g>
<!-- 8 -->
<g id="node8" class="node">
<title>8</title>
<ellipse fill="none" stroke="black" cx="455.76" cy="-594" rx="141.94" ry="18"/>
<text text-anchor="middle" x="455.76" y="-588.95" font-family="Times New Roman,serif" font-size="14.00">You: &quot;Poor little viewer...&quot; (Pat it.)</text>
</g>
<!-- 17 -->
<g id="node17" class="node">
<title>17</title>
<ellipse fill="none" stroke="black" cx="350.76" cy="-522" rx="350.76" ry="18"/>
<text text-anchor="middle" x="350.76" y="-516.95" font-family="Times New Roman,serif" font-size="14.00">Coin&#45;Operated Viewer: The metal feels cold and wet under your palm. It looks unhygienic.</text>
</g>
<!-- 8&#45;&gt;17 -->
<g id="edge7" class="edge">
<title>8&#45;&gt;17</title>
<path fill="none" stroke="black" d="M430.07,-575.88C416.95,-567.13 400.78,-556.34 386.46,-546.8"/>
<polygon fill="black" stroke="black" points="388.43,-543.91 378.17,-541.27 384.55,-549.73 388.43,-543.91"/>
</g>
<!-- 9 -->
<g id="node9" class="node">
<title>9</title>
<ellipse fill="none" stroke="black" cx="540.76" cy="-450" rx="95.37" ry="18"/>
<text text-anchor="middle" x="540.76" y="-444.95" font-family="Times New Roman,serif" font-size="14.00">Jump to: [Viewer hub]</text>
</g>
<!-- 16 -->
<g id="node16" class="node">
<title>16</title>
<ellipse fill="none" stroke="black" cx="911.76" cy="-666" rx="53.91" ry="18"/>
<text text-anchor="middle" x="911.76" y="-660.95" font-family="Times New Roman,serif" font-size="14.00">Viewer hub</text>
</g>
<!-- 9&#45;&gt;16 -->
<g id="edge8" class="edge">
<title>9&#45;&gt;16</title>
<path fill="none" stroke="black" d="M620.55,-460.22C652.09,-467.53 686.51,-480.61 710.76,-504 747.38,-539.33 712.35,-576.45 748.76,-612 775.64,-638.24 815.64,-651.49 849.29,-658.18"/>
<polygon fill="black" stroke="black" points="848.47,-661.59 858.94,-659.93 849.73,-654.7 848.47,-661.59"/>
</g>
<!-- 10 -->
<g id="node10" class="node">
<title>10</title>
<ellipse fill="none" stroke="black" cx="1912.76" cy="-378" rx="305.21" ry="18"/>
<text text-anchor="middle" x="1912.76" y="-372.95" font-family="Times New Roman,serif" font-size="14.00">Kim Kitsuragi: &quot;Probably some kids...&quot; The lieutenant inspects the rigged slot.</text>
</g>
<!-- 25 -->
<g id="node25" class="node">
<title>25</title>
<ellipse fill="none" stroke="black" cx="1636.76" cy="-306" rx="356.39" ry="18"/>
<text text-anchor="middle" x="1636.76" y="-300.95" font-family="Times New Roman,serif" font-size="14.00">Interfacing: A simple but clever solution to ruining a coin&#45;operated viewer. It took ingenuity.</text>
</g>
<!-- 10&#45;&gt;25 -->
<g id="edge9" class="edge">
<title>10&#45;&gt;25</title>
<path fill="none" stroke="black" d="M1845.59,-359.97C1806.28,-349.99 1756.43,-337.35 1715.3,-326.92"/>
<polygon fill="black" stroke="black" points="1716.25,-323.55 1705.69,-324.48 1714.52,-330.33 1716.25,-323.55"/>
</g>
<!-- 11 -->
<g id="node11" class="node">
<title>11</title>
<ellipse fill="none" stroke="black" cx="1100.76" cy="-234" rx="95.37" ry="18"/>
<text text-anchor="middle" x="1100.76" y="-228.95" font-family="Times New Roman,serif" font-size="14.00">Jump to: [Viewer hub]</text>
</g>
<!-- 11&#45;&gt;16 -->
<g id="edge10" class="edge">
<title>11&#45;&gt;16</title>
<path fill="none" stroke="black" d="M1017.68,-243.13C986.41,-250.29 953.05,-263.56 930.76,-288 903.5,-317.88 911.76,-336.55 911.76,-377 911.76,-523 911.76,-523 911.76,-523 911.76,-562.26 911.76,-607.62 911.76,-636.31"/>
<polygon fill="black" stroke="black" points="908.26,-636 911.76,-646 915.26,-636 908.26,-636"/>
</g>
<!-- 12 -->
<g id="node12" class="node">
<title>12</title>
<ellipse fill="none" stroke="black" cx="3147.76" cy="-162" rx="354.34" ry="18"/>
<text text-anchor="middle" x="3147.76" y="-156.95" font-family="Times New Roman,serif" font-size="14.00">Inland Empire: The church looks old and weather&#45;worn. There are no lights in the windows.</text>
</g>
<!-- 12&#45;&gt;4 -->
<g id="edge11" class="edge">
<title>12&#45;&gt;4</title>
<path fill="none" stroke="black" d="M3159.38,-143.7C3164.67,-135.81 3171.05,-126.3 3176.94,-117.55"/>
<polygon fill="black" stroke="black" points="3179.76,-119.61 3182.43,-109.36 3173.95,-115.71 3179.76,-119.61"/>
</g>
<!-- 13 -->
<g id="node13" class="node">
<title>13</title>
<ellipse fill="none" stroke="black" cx="1100.76" cy="-306" rx="161.39" ry="18"/>
<text text-anchor="middle" x="1100.76" y="-300.95" font-family="Times New Roman,serif" font-size="14.00">Interfacing: But yes &#45;&#45; it was vandalism.</text>
</g>
<!-- 13&#45;&gt;11 -->
<g id="edge12" class="edge">
<title>13&#45;&gt;11</title>
<path fill="none" stroke="black" d="M1100.76,-287.7C1100.76,-280.41 1100.76,-271.73 1100.76,-263.54"/>
<polygon fill="black" stroke="black" points="1104.26,-263.62 1100.76,-253.62 1097.26,-263.62 1104.26,-263.62"/>
</g>
<!-- 14&#45;&gt;16 -->
<g id="edge13" class="edge">
<title>14&#45;&gt;16</title>
<path fill="none" stroke="black" d="M911.76,-719.7C911.76,-712.41 911.76,-703.73 911.76,-695.54"/>
<polygon fill="black" stroke="black" points="915.26,-695.62 911.76,-685.62 908.26,-695.62 915.26,-695.62"/>
</g>
<!-- 15&#45;&gt;5 -->
<g id="edge14" class="edge">
<title>15&#45;&gt;5</title>
<path fill="none" stroke="black" d="M2486.46,-432.94C2518.43,-422.82 2559.95,-409.66 2593.99,-398.88"/>
<polygon fill="black" stroke="black" points="2594.84,-402.28 2603.32,-395.93 2592.73,-395.61 2594.84,-402.28"/>
</g>
<!-- 16&#45;&gt;2 -->
<g id="edge16" class="edge">
<title>16&#45;&gt;2</title>
<path fill="none" stroke="black" d="M891.11,-649.12C879.18,-639.94 863.96,-628.23 850.73,-618.06"/>
<polygon fill="black" stroke="black" points="853.22,-615.55 843.16,-612.23 848.95,-621.1 853.22,-615.55"/>
</g>
<!-- 16&#45;&gt;3 -->
<g id="edge17" class="edge">
<title>16&#45;&gt;3</title>
<path fill="none" stroke="black" d="M953.34,-654.14C994.48,-643.39 1058.29,-626.73 1107.69,-613.82"/>
<polygon fill="black" stroke="black" points="1108.38,-617.26 1117.18,-611.35 1106.62,-610.49 1108.38,-617.26"/>
</g>
<!-- 16&#45;&gt;8 -->
<g id="edge15" class="edge">
<title>16&#45;&gt;8</title>
<path fill="none" stroke="black" d="M863.39,-657.58C790.3,-646.36 650.14,-624.84 554.8,-610.2"/>
<polygon fill="black" stroke="black" points="555.61,-606.79 545.19,-608.73 554.54,-613.71 555.61,-606.79"/>
</g>
<!-- 23 -->
<g id="node23" class="node">
<title>23</title>
<ellipse fill="none" stroke="black" cx="1583.76" cy="-594" rx="77.97" ry="18"/>
<text text-anchor="middle" x="1583.76" y="-588.95" font-family="Times New Roman,serif" font-size="14.00">You: Look inside.</text>
</g>
<!-- 16&#45;&gt;23 -->
<g id="edge18" class="edge">
<title>16&#45;&gt;23</title>
<path fill="none" stroke="black" d="M962.82,-659.68C1078.75,-647.61 1362.62,-618.04 1502.77,-603.44"/>
<polygon fill="black" stroke="black" points="1502.75,-606.96 1512.33,-602.44 1502.02,-600 1502.75,-606.96"/>
</g>
<!-- 17&#45;&gt;9 -->
<g id="edge19" class="edge">
<title>17&#45;&gt;9</title>
<path fill="none" stroke="black" d="M397.73,-503.7C425.11,-493.61 459.71,-480.86 488.03,-470.43"/>
<polygon fill="black" stroke="black" points="488.95,-473.82 497.12,-467.08 486.53,-467.25 488.95,-473.82"/>
</g>
<!-- 18 -->
<g id="node18" class="node">
<title>18</title>
<ellipse fill="none" stroke="black" cx="2960.76" cy="-234" rx="673.2" ry="18"/>
<text text-anchor="middle" x="2960.76" y="-228.95" font-family="Times New Roman,serif" font-size="14.00">Encyclopedia: You know this to be the Star of Perikarnassis, or the Chi&#45;Rho. The central symbol of the Perikarnassian church &#45;&#45; a star, a great moral height to be strived towards.</text>
</g>
<!-- 18&#45;&gt;12 -->
<g id="edge20" class="edge">
<title>18&#45;&gt;12</title>
<path fill="none" stroke="black" d="M3006.98,-215.7C3032.48,-206.15 3064.33,-194.23 3091.29,-184.14"/>
<polygon fill="black" stroke="black" points="3092.19,-187.54 3100.32,-180.76 3089.73,-180.98 3092.19,-187.54"/>
</g>
<!-- 20 -->
<g id="node20" class="node">
<title>20</title>
<polygon fill="none" stroke="black" points="1686.76,-468 1604,-450 1686.76,-432 1769.51,-450 1686.76,-468"/>
<text text-anchor="middle" x="1686.76" y="-444.95" font-family="Times New Roman,serif" font-size="14.00">IsKimHere()</text>
</g>
<!-- 19&#45;&gt;20 -->
<g id="edge21" class="edge">
<title>19&#45;&gt;20</title>
<path fill="none" stroke="black" d="M1315.24,-512.63C1394.43,-499.49 1547.34,-474.13 1630.16,-460.39"/>
<polygon fill="black" stroke="black" points="1630.58,-463.87 1639.87,-458.78 1629.43,-456.96 1630.58,-463.87"/>
</g>
<!-- 21 -->
<g id="node21" class="node">
<title>21</title>
<polygon fill="none" stroke="black" points="1264.76,-468 1168.98,-450 1264.76,-432 1360.54,-450 1264.76,-468"/>
<text text-anchor="middle" x="1264.76" y="-444.95" font-family="Times New Roman,serif" font-size="14.00">!(IsKimHere())</text>
</g>
<!-- 19&#45;&gt;21 -->
<g id="edge22" class="edge">
<title>19&#45;&gt;21</title>
<path fill="none" stroke="black" d="M1264.76,-503.7C1264.76,-496.41 1264.76,-487.73 1264.76,-479.54"/>
<polygon fill="black" stroke="black" points="1268.26,-479.62 1264.76,-469.62 1261.26,-479.62 1268.26,-479.62"/>
</g>
<!-- 20&#45;&gt;10 -->
<g id="edge23" class="edge">
<title>20&#45;&gt;10</title>
<path fill="none" stroke="black" d="M1719.62,-438.82C1752.77,-428.55 1804.89,-412.41 1846.63,-399.48"/>
<polygon fill="black" stroke="black" points="1847.59,-402.85 1856.1,-396.55 1845.52,-396.16 1847.59,-402.85"/>
</g>
<!-- 24 -->
<g id="node24" class="node">
<title>24</title>
<ellipse fill="none" stroke="black" cx="1264.76" cy="-378" rx="325.17" ry="18"/>
<text text-anchor="middle" x="1264.76" y="-372.95" font-family="Times New Roman,serif" font-size="14.00">Coin&#45;Operated Viewer: The mute machine is unable to confirm or deny your theory.</text>
</g>
<!-- 21&#45;&gt;24 -->
<g id="edge24" class="edge">
<title>21&#45;&gt;24</title>
<path fill="none" stroke="black" d="M1264.76,-431.7C1264.76,-424.41 1264.76,-415.73 1264.76,-407.54"/>
<polygon fill="black" stroke="black" points="1268.26,-407.62 1264.76,-397.62 1261.26,-407.62 1268.26,-407.62"/>
</g>
<!-- 22&#45;&gt;18 -->
<g id="edge25" class="edge">
<title>22&#45;&gt;18</title>
<path fill="none" stroke="black" d="M2925.38,-287.7C2930.67,-279.81 2937.05,-270.3 2942.94,-261.55"/>
<polygon fill="black" stroke="black" points="2945.76,-263.61 2948.43,-253.36 2939.95,-259.71 2945.76,-263.61"/>
</g>
<!-- 23&#45;&gt;7 -->
<g id="edge26" class="edge">
<title>23&#45;&gt;7</title>
<path fill="none" stroke="black" d="M1654.31,-585.94C1758.7,-575.48 1957.71,-555.55 2103.92,-540.91"/>
<polygon fill="black" stroke="black" points="2104.13,-544.41 2113.73,-539.93 2103.43,-537.44 2104.13,-544.41"/>
</g>
<!-- 24&#45;&gt;13 -->
<g id="edge27" class="edge">
<title>24&#45;&gt;13</title>
<path fill="none" stroke="black" d="M1224.22,-359.7C1202.01,-350.22 1174.3,-338.39 1150.75,-328.34"/>
<polygon fill="black" stroke="black" points="1152.23,-325.16 1141.66,-324.46 1149.48,-331.6 1152.23,-325.16"/>
</g>
<!-- 25&#45;&gt;11 -->
<g id="edge28" class="edge">
<title>25&#45;&gt;11</title>
<path fill="none" stroke="black" d="M1511.77,-288.68C1412.64,-275.73 1276.59,-257.96 1188.67,-246.48"/>
<polygon fill="black" stroke="black" points="1189.26,-243.03 1178.89,-245.2 1188.36,-249.97 1189.26,-243.03"/>
</g>
<!-- 26&#45;&gt;16 -->
<g id="edge29" class="edge">
<title>26&#45;&gt;16</title>
<path fill="none" stroke="black" d="M3557.1,-26.39C3609.17,-33.3 3676.01,-46.59 3730.76,-72 3788.75,-98.91 3843.76,-97.07 3843.76,-161 3843.76,-523 3843.76,-523 3843.76,-523 3843.76,-671.55 1411.04,-667.29 977.46,-665.36"/>
<polygon fill="black" stroke="black" points="977.64,-661.86 967.62,-665.31 977.6,-668.86 977.64,-661.86"/>
</g>
</g>
</svg>
