<?xml version="1.0" encoding="UTF-8" standalone="no"?>
<!DOCTYPE svg PUBLIC "-//W3C//DTD SVG 1.1//EN"
 "http://www.w3.org/Graphics/SVG/1.1/DTD/svg11.dtd">
<!-- Generated by graphviz version 12.2.1 (20241206.2353)
 -->
<!-- Title: G Pages: 1 -->
<svg width="4202pt" height="548pt"
 viewBox="0.00 0.00 4201.84 548.00" xmlns="http://www.w3.org/2000/svg" xmlns:xlink="http://www.w3.org/1999/xlink">
<g id="graph0" class="graph" transform="scale(1 1) rotate(0) translate(4 544)">
<title>G</title>
<polygon fill="white" stroke="none" points="-4,4 -4,-544 4197.84,-544 4197.84,4 -4,4"/>
<!-- 0 -->
<g id="node1" class="node">
<title>0</title>
<ellipse fill="none" stroke="black" cx="216.07" cy="-522" rx="39.07" ry="18"/>
<text text-anchor="middle" x="216.07" y="-516.95" font-family="Times New Roman,serif" font-size="14.00">START</text>
</g>
<!-- 0&#45;&gt;0 -->
<g id="edge1" class="edge">
<title>0&#45;&gt;0</title>
<path fill="none" stroke="black" d="M244.26,-534.94C259.37,-537.14 273.14,-532.83 273.14,-522 273.14,-513.96 265.56,-509.52 255.47,-508.65"/>
<polygon fill="black" stroke="black" points="255.64,-505.15 245.77,-509 255.89,-512.14 255.64,-505.15"/>
</g>
<!-- 1 -->
<g id="node2" class="node">
<title>1</title>
<ellipse fill="none" stroke="black" cx="321.07" cy="-522" rx="29.86" ry="18"/>
<text text-anchor="middle" x="321.07" y="-516.95" font-family="Times New Roman,serif" font-size="14.00">input</text>
</g>
<!-- 19 -->
<g id="node20" class="node">
<title>19</title>
<ellipse fill="none" stroke="black" cx="321.07" cy="-450" rx="321.07" ry="18"/>
<text text-anchor="middle" x="321.07" y="-444.95" font-family="Times New Roman,serif" font-size="14.00">Kim Kitsuragi: 警督清了清喉咙。“警探——你是不是忘了什么？”</text>
</g>
<!-- 1&#45;&gt;19 -->
<g id="edge2" class="edge">
<title>1&#45;&gt;19</title>
<path fill="none" stroke="black" d="M315.2,-504.05C314.41,-496.68 314.16,-487.84 314.43,-479.51"/>
<polygon fill="black" stroke="black" points="317.9,-479.99 315.06,-469.79 310.92,-479.54 317.9,-479.99"/>
</g>
<!-- 2 -->
<g id="node3" class="node">
<title>2</title>
<ellipse fill="none" stroke="black" cx="1170.07" cy="-522" rx="360.48" ry="18"/>
<text text-anchor="middle" x="1170.07" y="-516.95" font-family="Times New Roman,serif" font-size="14.00">Variable[&quot;boardwalk.ruby_killed_herself&quot;] &#160;and &#160;Variable[&quot;boardwalk.tent_covered&quot;] == false</text>
</g>
<!-- 2&#45;&gt;2 -->
<g id="edge3" class="edge">
<title>2&#45;&gt;2</title>
<path fill="none" stroke="black" d="M1417.15,-535.47C1491.02,-535.09 1548.56,-530.6 1548.56,-522 1548.56,-513.84 1496.71,-509.38 1428.27,-508.62"/>
<polygon fill="black" stroke="black" points="1428.69,-505.12 1418.67,-508.54 1428.64,-512.12 1428.69,-505.12"/>
</g>
<!-- 3 -->
<g id="node4" class="node">
<title>3</title>
<polygon fill="none" stroke="black" points="1170.07,-468 660.27,-450 1170.07,-432 1679.87,-450 1170.07,-468"/>
<text text-anchor="middle" x="1170.07" y="-444.95" font-family="Times New Roman,serif" font-size="14.00">Variable[&quot;boardwalk.ruby_killed_herself&quot;] &#160;and &#160;Variable[&quot;boardwalk.tent_covered&quot;] == false</text>
</g>
<!-- 2&#45;&gt;3 -->
<g id="edge4" class="edge">
<title>2&#45;&gt;3</title>
<path fill="none" stroke="black" d="M1170.07,-503.7C1170.07,-496.41 1170.07,-487.73 1170.07,-479.54"/>
<polygon fill="black" stroke="black" points="1173.57,-479.62 1170.07,-469.62 1166.57,-479.62 1173.57,-479.62"/>
</g>
<!-- 11 -->
<g id="node12" class="node">
<title>11</title>
<polygon fill="none" stroke="black" points="1170.07,-396 991.05,-378 1170.07,-360 1349.1,-378 1170.07,-396"/>
<text text-anchor="middle" x="1170.07" y="-372.95" font-family="Times New Roman,serif" font-size="14.00">!(CheckItem(&quot;rubys_journal&quot;))</text>
</g>
<!-- 3&#45;&gt;11 -->
<g id="edge5" class="edge">
<title>3&#45;&gt;11</title>
<path fill="none" stroke="black" d="M1170.07,-431.7C1170.07,-424.41 1170.07,-415.73 1170.07,-407.54"/>
<polygon fill="black" stroke="black" points="1173.57,-407.62 1170.07,-397.62 1166.57,-407.62 1173.57,-407.62"/>
</g>
<!-- 4 -->
<g id="node5" class="node">
<title>4</title>
<polygon fill="none" stroke="black" points="2239.07,-180 1716.25,-162 2239.07,-144 2761.9,-162 2239.07,-180"/>
<text text-anchor="middle" x="2239.07" y="-156.95" font-family="Times New Roman,serif" font-size="14.00">!(Variable[&quot;boardwalk.ruby_killed_herself&quot;] &#160;and &#160;Variable[&quot;boardwalk.tent_covered&quot;] == false)</text>
</g>
<!-- 8 -->
<g id="node9" class="node">
<title>8</title>
<ellipse fill="none" stroke="black" cx="2112.07" cy="-90" rx="192.61" ry="18"/>
<text text-anchor="middle" x="2112.07" y="-84.95" font-family="Times New Roman,serif" font-size="14.00">You: “我宁愿现在就出去喝杯啤酒。”</text>
</g>
<!-- 4&#45;&gt;8 -->
<g id="edge6" class="edge">
<title>4&#45;&gt;8</title>
<path fill="none" stroke="black" d="M2209.3,-144.59C2192.47,-135.31 2171.2,-123.59 2152.84,-113.47"/>
<polygon fill="black" stroke="black" points="2154.76,-110.53 2144.32,-108.77 2151.38,-116.66 2154.76,-110.53"/>
</g>
<!-- 5 -->
<g id="node6" class="node">
<title>5</title>
<ellipse fill="none" stroke="black" cx="1749.07" cy="-234" rx="313.4" ry="18"/>
<text text-anchor="middle" x="1749.07" y="-228.95" font-family="Times New Roman,serif" font-size="14.00">Kim Kitsuragi: 警督只是摇了摇头。“我们赶紧动手吧，好吗？”</text>
</g>
<!-- 6 -->
<g id="node7" class="node">
<title>6</title>
<ellipse fill="none" stroke="black" cx="3451.07" cy="-234" rx="239.7" ry="18"/>
<text text-anchor="middle" x="3451.07" y="-228.95" font-family="Times New Roman,serif" font-size="14.00">You: “你说得对，咱们赶紧把这事儿了了吧。”</text>
</g>
<!-- 18 -->
<g id="node19" class="node">
<title>18</title>
<ellipse fill="none" stroke="black" cx="3451.07" cy="-162" rx="289.85" ry="18"/>
<text text-anchor="middle" x="3451.07" y="-156.95" font-family="Times New Roman,serif" font-size="14.00">Kim Kitsuragi: 他朝着后面的隧道比了个手势。“你先走。”</text>
</g>
<!-- 6&#45;&gt;18 -->
<g id="edge7" class="edge">
<title>6&#45;&gt;18</title>
<path fill="none" stroke="black" d="M3451.07,-215.7C3451.07,-208.41 3451.07,-199.73 3451.07,-191.54"/>
<polygon fill="black" stroke="black" points="3454.57,-191.62 3451.07,-181.62 3447.57,-191.62 3454.57,-191.62"/>
</g>
<!-- 7 -->
<g id="node8" class="node">
<title>7</title>
<ellipse fill="none" stroke="black" cx="1170.07" cy="-234" rx="247.89" ry="18"/>
<text text-anchor="middle" x="1170.07" y="-228.95" font-family="Times New Roman,serif" font-size="14.00">You: “抱歉！”（敲敲自己的脑袋。）“我忘了。”</text>
</g>
<!-- 7&#45;&gt;4 -->
<g id="edge8" class="edge">
<title>7&#45;&gt;4</title>
<path fill="none" stroke="black" d="M1348.77,-221.16C1375.03,-219.43 1401.75,-217.66 1427.07,-216 1641.36,-201.92 1887.46,-185.87 2052.04,-175.16"/>
<polygon fill="black" stroke="black" points="2051.99,-178.67 2061.74,-174.53 2051.53,-171.69 2051.99,-178.67"/>
</g>
<!-- 16 -->
<g id="node17" class="node">
<title>16</title>
<ellipse fill="none" stroke="black" cx="1629.07" cy="-18" rx="627.65" ry="18"/>
<text text-anchor="middle" x="1629.07" y="-12.95" font-family="Times New Roman,serif" font-size="14.00">Kim Kitsuragi: “就算如此也无法改变这个事实：我们对她是有责任的。干活吧。”他朝着后面的隧道做了个手势。“你先走。”</text>
</g>
<!-- 8&#45;&gt;16 -->
<g id="edge9" class="edge">
<title>8&#45;&gt;16</title>
<path fill="none" stroke="black" d="M2010.53,-74.28C1937.19,-63.65 1837.57,-49.22 1758.52,-37.76"/>
<polygon fill="black" stroke="black" points="1759.41,-34.35 1749.01,-36.38 1758.4,-41.28 1759.41,-34.35"/>
</g>
<!-- 9 -->
<g id="node10" class="node">
<title>9</title>
<ellipse fill="none" stroke="black" cx="2365.07" cy="-378" rx="117.37" ry="18"/>
<text text-anchor="middle" x="2365.07" y="-372.95" font-family="Times New Roman,serif" font-size="14.00">CheckItem(&quot;rubys_journal&quot;)</text>
</g>
<!-- 9&#45;&gt;9 -->
<g id="edge10" class="edge">
<title>9&#45;&gt;9</title>
<path fill="none" stroke="black" d="M2445.68,-391.47C2475.72,-391.91 2500.45,-387.42 2500.45,-378 2500.45,-369.79 2481.69,-365.33 2456.99,-364.6"/>
<polygon fill="black" stroke="black" points="2457.22,-361.11 2447.2,-364.54 2457.17,-368.11 2457.22,-361.11"/>
</g>
<!-- 10 -->
<g id="node11" class="node">
<title>10</title>
<polygon fill="none" stroke="black" points="2365.07,-324 2199.08,-306 2365.07,-288 2531.07,-306 2365.07,-324"/>
<text text-anchor="middle" x="2365.07" y="-300.95" font-family="Times New Roman,serif" font-size="14.00">CheckItem(&quot;rubys_journal&quot;)</text>
</g>
<!-- 9&#45;&gt;10 -->
<g id="edge11" class="edge">
<title>9&#45;&gt;10</title>
<path fill="none" stroke="black" d="M2365.07,-359.7C2365.07,-352.41 2365.07,-343.73 2365.07,-335.54"/>
<polygon fill="black" stroke="black" points="2368.57,-335.62 2365.07,-325.62 2361.57,-335.62 2368.57,-335.62"/>
</g>
<!-- 14 -->
<g id="node15" class="node">
<title>14</title>
<ellipse fill="none" stroke="black" cx="2365.07" cy="-234" rx="284.22" ry="18"/>
<text text-anchor="middle" x="2365.07" y="-228.95" font-family="Times New Roman,serif" font-size="14.00">You: “当然了。我这是在考你呢，看看*你*记不记得。”</text>
</g>
<!-- 10&#45;&gt;14 -->
<g id="edge12" class="edge">
<title>10&#45;&gt;14</title>
<path fill="none" stroke="black" d="M2365.07,-287.7C2365.07,-280.41 2365.07,-271.73 2365.07,-263.54"/>
<polygon fill="black" stroke="black" points="2368.57,-263.62 2365.07,-253.62 2361.57,-263.62 2368.57,-263.62"/>
</g>
<!-- 12 -->
<g id="node13" class="node">
<title>12</title>
<ellipse fill="none" stroke="black" cx="1170.07" cy="-306" rx="835.44" ry="18"/>
<text text-anchor="middle" x="1170.07" y="-300.95" font-family="Times New Roman,serif" font-size="14.00">Kim Kitsuragi: “我们还要处理她的遗体……”他摆弄了一下大衣。“我知道，这不是什么愉快的活计，不过我们不能就这样放着她不管，而且我们还有现场要调查呢。”</text>
</g>
<!-- 11&#45;&gt;12 -->
<g id="edge13" class="edge">
<title>11&#45;&gt;12</title>
<path fill="none" stroke="black" d="M1170.07,-359.7C1170.07,-352.41 1170.07,-343.73 1170.07,-335.54"/>
<polygon fill="black" stroke="black" points="1173.57,-335.62 1170.07,-325.62 1166.57,-335.62 1173.57,-335.62"/>
</g>
<!-- 12&#45;&gt;5 -->
<g id="edge14" class="edge">
<title>12&#45;&gt;5</title>
<path fill="none" stroke="black" d="M1312.46,-287.79C1402.2,-276.94 1517.64,-262.98 1607.28,-252.14"/>
<polygon fill="black" stroke="black" points="1607.63,-255.63 1617.13,-250.95 1606.79,-248.68 1607.63,-255.63"/>
</g>
<!-- 12&#45;&gt;7 -->
<g id="edge16" class="edge">
<title>12&#45;&gt;7</title>
<path fill="none" stroke="black" d="M1170.07,-287.7C1170.07,-280.41 1170.07,-271.73 1170.07,-263.54"/>
<polygon fill="black" stroke="black" points="1173.57,-263.62 1170.07,-253.62 1166.57,-263.62 1173.57,-263.62"/>
</g>
<!-- 21 -->
<g id="node22" class="node">
<title>21</title>
<ellipse fill="none" stroke="black" cx="1398.07" cy="-90" rx="251.47" ry="18"/>
<text text-anchor="middle" x="1398.07" y="-84.95" font-family="Times New Roman,serif" font-size="14.00">You: “但是实在是太悲伤了，金。我太悲伤了！”</text>
</g>
<!-- 12&#45;&gt;21 -->
<g id="edge15" class="edge">
<title>12&#45;&gt;21</title>
<path fill="none" stroke="black" d="M969.39,-288.09C917.7,-275.5 883.86,-253.7 913.07,-216 955.51,-161.24 1133.05,-126.22 1261.04,-107.58"/>
<polygon fill="black" stroke="black" points="1261.2,-111.09 1270.61,-106.21 1260.21,-104.16 1261.2,-111.09"/>
</g>
<!-- 13 -->
<g id="node14" class="node">
<title>13</title>
<ellipse fill="none" stroke="black" cx="3951.07" cy="-234" rx="242.77" ry="18"/>
<text text-anchor="middle" x="3951.07" y="-228.95" font-family="Times New Roman,serif" font-size="14.00">Kim Kitsuragi: “我们还要调查现场。还记得吗？”</text>
</g>
<!-- 20 -->
<g id="node21" class="node">
<title>20</title>
<ellipse fill="none" stroke="black" cx="3701.07" cy="-306" rx="57.49" ry="18"/>
<text text-anchor="middle" x="3701.07" y="-300.95" font-family="Times New Roman,serif" font-size="14.00">Untitled hub</text>
</g>
<!-- 13&#45;&gt;20 -->
<g id="edge17" class="edge">
<title>13&#45;&gt;20</title>
<path fill="none" stroke="black" d="M3896.28,-251.99C3854.72,-263.98 3797.91,-279.85 3756.25,-291.09"/>
<polygon fill="black" stroke="black" points="3755.41,-287.7 3746.66,-293.67 3757.23,-294.46 3755.41,-287.7"/>
</g>
<!-- 14&#45;&gt;4 -->
<g id="edge18" class="edge">
<title>14&#45;&gt;4</title>
<path fill="none" stroke="black" d="M2333.93,-215.7C2317.16,-206.38 2296.3,-194.79 2278.42,-184.86"/>
<polygon fill="black" stroke="black" points="2280.33,-181.91 2269.89,-180.12 2276.93,-188.03 2280.33,-181.91"/>
</g>
<!-- 15 -->
<g id="node16" class="node">
<title>15</title>
<ellipse fill="none" stroke="black" cx="3701.07" cy="-378" rx="442.88" ry="18"/>
<text text-anchor="middle" x="3701.07" y="-372.95" font-family="Times New Roman,serif" font-size="14.00">Kim Kitsuragi: “你指的是她的日记？我们应该翻阅一遍。也许能找到什么有用的东西。”</text>
</g>
<!-- 15&#45;&gt;20 -->
<g id="edge19" class="edge">
<title>15&#45;&gt;20</title>
<path fill="none" stroke="black" d="M3701.07,-359.7C3701.07,-352.41 3701.07,-343.73 3701.07,-335.54"/>
<polygon fill="black" stroke="black" points="3704.57,-335.62 3701.07,-325.62 3697.57,-335.62 3704.57,-335.62"/>
</g>
<!-- 17 -->
<g id="node18" class="node">
<title>17</title>
<ellipse fill="none" stroke="black" cx="2930.07" cy="-234" rx="263.24" ry="18"/>
<text text-anchor="middle" x="2930.07" y="-228.95" font-family="Times New Roman,serif" font-size="14.00">You: “噢，就不能你来吗，金？我已经没力气了。”</text>
</g>
<!-- 17&#45;&gt;4 -->
<g id="edge20" class="edge">
<title>17&#45;&gt;4</title>
<path fill="none" stroke="black" d="M2786.9,-218.5C2667.32,-206.38 2497.82,-189.21 2379.12,-177.19"/>
<polygon fill="black" stroke="black" points="2379.61,-173.72 2369.3,-176.19 2378.9,-180.68 2379.61,-173.72"/>
</g>
<!-- 19&#45;&gt;1 -->
<g id="edge21" class="edge">
<title>19&#45;&gt;1</title>
<path fill="none" stroke="black" d="M326.99,-468.28C327.74,-475.6 327.99,-484.34 327.72,-492.57"/>
<polygon fill="black" stroke="black" points="324.23,-492.33 327.05,-502.54 331.21,-492.8 324.23,-492.33"/>
</g>
<!-- 20&#45;&gt;6 -->
<g id="edge24" class="edge">
<title>20&#45;&gt;6</title>
<path fill="none" stroke="black" d="M3659.23,-293.28C3621.94,-282.84 3566.58,-267.34 3522.33,-254.95"/>
<polygon fill="black" stroke="black" points="3523.36,-251.61 3512.79,-252.28 3521.48,-258.35 3523.36,-251.61"/>
</g>
<!-- 20&#45;&gt;13 -->
<g id="edge23" class="edge">
<title>20&#45;&gt;13</title>
<path fill="none" stroke="black" d="M3740.45,-292.49C3776.29,-282.01 3830.09,-266.87 3874.37,-254.76"/>
<polygon fill="black" stroke="black" points="3875.22,-258.15 3883.94,-252.15 3873.37,-251.4 3875.22,-258.15"/>
</g>
<!-- 20&#45;&gt;17 -->
<g id="edge22" class="edge">
<title>20&#45;&gt;17</title>
<path fill="none" stroke="black" d="M3646.24,-300.02C3532.97,-289.74 3269.19,-265.79 3095.34,-250"/>
<polygon fill="black" stroke="black" points="3095.8,-246.53 3085.53,-249.11 3095.17,-253.5 3095.8,-246.53"/>
</g>
<!-- 21&#45;&gt;16 -->
<g id="edge25" class="edge">
<title>21&#45;&gt;16</title>
<path fill="none" stroke="black" d="M1453.99,-72.05C1486.16,-62.31 1526.82,-49.98 1560.86,-39.67"/>
<polygon fill="black" stroke="black" points="1561.66,-43.09 1570.21,-36.84 1559.63,-36.39 1561.66,-43.09"/>
</g>
</g>
</svg>
