<?xml version="1.0" encoding="UTF-8" standalone="no"?>
<!DOCTYPE svg PUBLIC "-//W3C//DTD SVG 1.1//EN"
 "http://www.w3.org/Graphics/SVG/1.1/DTD/svg11.dtd">
<!-- Generated by graphviz version 12.2.1 (20241206.2353)
 -->
<!-- Title: G Pages: 1 -->
<svg width="4048pt" height="980pt"
 viewBox="0.00 0.00 4047.66 980.00" xmlns="http://www.w3.org/2000/svg" xmlns:xlink="http://www.w3.org/1999/xlink">
<g id="graph0" class="graph" transform="scale(1 1) rotate(0) translate(4 976)">
<title>G</title>
<polygon fill="white" stroke="none" points="-4,4 -4,-976 4043.66,-976 4043.66,4 -4,4"/>
<!-- 0 -->
<g id="node1" class="node">
<title>0</title>
<ellipse fill="none" stroke="black" cx="2080.66" cy="-954" rx="39.07" ry="18"/>
<text text-anchor="middle" x="2080.66" y="-948.95" font-family="Times New Roman,serif" font-size="14.00">START</text>
</g>
<!-- 1 -->
<g id="node2" class="node">
<title>1</title>
<ellipse fill="none" stroke="black" cx="2080.66" cy="-882" rx="29.86" ry="18"/>
<text text-anchor="middle" x="2080.66" y="-876.95" font-family="Times New Roman,serif" font-size="14.00">input</text>
</g>
<!-- 0&#45;&gt;1 -->
<g id="edge1" class="edge">
<title>0&#45;&gt;1</title>
<path fill="none" stroke="black" d="M2080.66,-935.7C2080.66,-928.41 2080.66,-919.73 2080.66,-911.54"/>
<polygon fill="black" stroke="black" points="2084.16,-911.62 2080.66,-901.62 2077.16,-911.62 2084.16,-911.62"/>
</g>
<!-- 23 -->
<g id="node23" class="node">
<title>23</title>
<ellipse fill="none" stroke="black" cx="2080.66" cy="-810" rx="386.59" ry="18"/>
<text text-anchor="middle" x="2080.66" y="-804.95" font-family="Times New Roman,serif" font-size="14.00">Tare Machine: The tare machine stands in the corner. A sign says: &quot;ONE BOTTLE = TEN CENTS&quot;.</text>
</g>
<!-- 1&#45;&gt;23 -->
<g id="edge2" class="edge">
<title>1&#45;&gt;23</title>
<path fill="none" stroke="black" d="M2080.66,-863.7C2080.66,-856.41 2080.66,-847.73 2080.66,-839.54"/>
<polygon fill="black" stroke="black" points="2084.16,-839.62 2080.66,-829.62 2077.16,-839.62 2084.16,-839.62"/>
</g>
<!-- 2 -->
<g id="node3" class="node">
<title>2</title>
<ellipse fill="none" stroke="black" cx="3434.66" cy="-306" rx="241.74" ry="18"/>
<text text-anchor="middle" x="3434.66" y="-300.95" font-family="Times New Roman,serif" font-size="14.00">You: &quot;I see. And how do I pick up tare for the tare machine?&quot;</text>
</g>
<!-- 8 -->
<g id="node9" class="node">
<title>8</title>
<ellipse fill="none" stroke="black" cx="3447.66" cy="-234" rx="449.03" ry="18"/>
<text text-anchor="middle" x="3447.66" y="-228.95" font-family="Times New Roman,serif" font-size="14.00">Frittte clerk: &quot;You need a bag I guess? We used to have some but we gave them all out, so...&quot; She shrugs awkwardly.</text>
</g>
<!-- 2&#45;&gt;8 -->
<g id="edge3" class="edge">
<title>2&#45;&gt;8</title>
<path fill="none" stroke="black" d="M3437.88,-287.7C3439.25,-280.32 3440.88,-271.52 3442.42,-263.25"/>
<polygon fill="black" stroke="black" points="3445.83,-264.06 3444.21,-253.59 3438.94,-262.79 3445.83,-264.06"/>
</g>
<!-- 3 -->
<g id="node4" class="node">
<title>3</title>
<ellipse fill="none" stroke="black" cx="2214.66" cy="-378" rx="119.42" ry="18"/>
<text text-anchor="middle" x="2214.66" y="-372.95" font-family="Times New Roman,serif" font-size="14.00">Jump to: [Tare machine hub]</text>
</g>
<!-- 20 -->
<g id="node20" class="node">
<title>20</title>
<ellipse fill="none" stroke="black" cx="2080.66" cy="-738" rx="77.97" ry="18"/>
<text text-anchor="middle" x="2080.66" y="-732.95" font-family="Times New Roman,serif" font-size="14.00">Tare machine hub</text>
</g>
<!-- 3&#45;&gt;20 -->
<g id="edge4" class="edge">
<title>3&#45;&gt;20</title>
<path fill="none" stroke="black" d="M2155.99,-394.1C2135.39,-402.17 2113.88,-414.23 2099.66,-432 2074.4,-463.59 2080.66,-480.55 2080.66,-521 2080.66,-595 2080.66,-595 2080.66,-595 2080.66,-634.26 2080.66,-679.62 2080.66,-708.31"/>
<polygon fill="black" stroke="black" points="2077.16,-708 2080.66,-718 2084.16,-708 2077.16,-708"/>
</g>
<!-- 4 -->
<g id="node5" class="node">
<title>4</title>
<ellipse fill="none" stroke="black" cx="1565.66" cy="-594" rx="448.51" ry="18"/>
<text text-anchor="middle" x="1565.66" y="-588.95" font-family="Times New Roman,serif" font-size="14.00">Frittte clerk: &quot;No.&quot; She doesn&#39;t even bother looking up out of her magazine. &quot;You need tare to use the tare machine.&quot;</text>
</g>
<!-- 19 -->
<g id="node19" class="node">
<title>19</title>
<ellipse fill="none" stroke="black" cx="1824.66" cy="-522" rx="119.42" ry="18"/>
<text text-anchor="middle" x="1824.66" y="-516.95" font-family="Times New Roman,serif" font-size="14.00">Jump to: [Tare machine hub]</text>
</g>
<!-- 4&#45;&gt;19 -->
<g id="edge5" class="edge">
<title>4&#45;&gt;19</title>
<path fill="none" stroke="black" d="M1629.69,-575.7C1668.49,-565.21 1717.94,-551.84 1757.33,-541.2"/>
<polygon fill="black" stroke="black" points="1758.21,-544.59 1766.95,-538.6 1756.39,-537.83 1758.21,-544.59"/>
</g>
<!-- 5 -->
<g id="node6" class="node">
<title>5</title>
<ellipse fill="none" stroke="black" cx="1056.66" cy="-666" rx="101.51" ry="18"/>
<text text-anchor="middle" x="1056.66" y="-660.95" font-family="Times New Roman,serif" font-size="14.00">You: Insert your bottles.</text>
</g>
<!-- 32 -->
<g id="node32" class="node">
<title>32</title>
<ellipse fill="none" stroke="black" cx="995.66" cy="-594" rx="103.04" ry="18"/>
<text text-anchor="middle" x="995.66" y="-588.95" font-family="Times New Roman,serif" font-size="14.00">IsTHCFixed(&quot;hobocop&quot;)</text>
</g>
<!-- 5&#45;&gt;32 -->
<g id="edge6" class="edge">
<title>5&#45;&gt;32</title>
<path fill="none" stroke="black" d="M1041.9,-648.05C1034.81,-639.92 1026.16,-630 1018.27,-620.94"/>
<polygon fill="black" stroke="black" points="1020.92,-618.66 1011.71,-613.42 1015.64,-623.25 1020.92,-618.66"/>
</g>
<!-- 6 -->
<g id="node7" class="node">
<title>6</title>
<ellipse fill="none" stroke="black" cx="2154.66" cy="-18" rx="570.32" ry="18"/>
<text text-anchor="middle" x="2154.66" y="-12.95" font-family="Times New Roman,serif" font-size="14.00">Electrochemistry: D&#39;you know what you should do with that money, kiddo? You should *buy more alcohol*! Enter the endless cycle of consumption!</text>
</g>
<!-- 7 -->
<g id="node8" class="node">
<title>7</title>
<ellipse fill="none" stroke="black" cx="2420.66" cy="-666" rx="123" ry="18"/>
<text text-anchor="middle" x="2420.66" y="-660.95" font-family="Times New Roman,serif" font-size="14.00">You: &quot;What is this machine?&quot;</text>
</g>
<!-- 12 -->
<g id="node13" class="node">
<title>12</title>
<ellipse fill="none" stroke="black" cx="2464.66" cy="-594" rx="355.88" ry="18"/>
<text text-anchor="middle" x="2464.66" y="-588.95" font-family="Times New Roman,serif" font-size="14.00">Frittte clerk: &quot;Hm?&quot; The clerk looks up, out of her magazine. &quot;Oh. That&#39;s the tare machine.&quot;</text>
</g>
<!-- 7&#45;&gt;12 -->
<g id="edge7" class="edge">
<title>7&#45;&gt;12</title>
<path fill="none" stroke="black" d="M2431.54,-647.7C2436.44,-639.9 2442.34,-630.51 2447.8,-621.83"/>
<polygon fill="black" stroke="black" points="2450.75,-623.71 2453.11,-613.39 2444.82,-619.99 2450.75,-623.71"/>
</g>
<!-- 9 -->
<g id="node10" class="node">
<title>9</title>
<ellipse fill="none" stroke="black" cx="3459.66" cy="-162" rx="501.74" ry="18"/>
<text text-anchor="middle" x="3459.66" y="-156.95" font-family="Times New Roman,serif" font-size="14.00">Frittte clerk: &quot;Feel free to use it if you find a bag, though. I&#39;m sure there are some... out there.&quot; She points outside. &quot;Somewhere...&quot;</text>
</g>
<!-- 8&#45;&gt;9 -->
<g id="edge8" class="edge">
<title>8&#45;&gt;9</title>
<path fill="none" stroke="black" d="M3450.63,-215.7C3451.89,-208.32 3453.4,-199.52 3454.82,-191.25"/>
<polygon fill="black" stroke="black" points="3458.24,-192.04 3456.48,-181.6 3451.34,-190.86 3458.24,-192.04"/>
</g>
<!-- 27 -->
<g id="node27" class="node">
<title>27</title>
<ellipse fill="none" stroke="black" cx="3749.66" cy="-90" rx="119.42" ry="18"/>
<text text-anchor="middle" x="3749.66" y="-84.95" font-family="Times New Roman,serif" font-size="14.00">Jump to: [Tare machine hub]</text>
</g>
<!-- 9&#45;&gt;27 -->
<g id="edge9" class="edge">
<title>9&#45;&gt;27</title>
<path fill="none" stroke="black" d="M3531.35,-143.7C3575.73,-132.98 3632.54,-119.27 3677.08,-108.52"/>
<polygon fill="black" stroke="black" points="3677.76,-111.96 3686.66,-106.21 3676.11,-105.15 3677.76,-111.96"/>
</g>
<!-- 10 -->
<g id="node11" class="node">
<title>10</title>
<ellipse fill="none" stroke="black" cx="2171.66" cy="-666" rx="62.61" ry="18"/>
<text text-anchor="middle" x="2171.66" y="-660.95" font-family="Times New Roman,serif" font-size="14.00">You: [Leave.]</text>
</g>
<!-- 11 -->
<g id="node12" class="node">
<title>11</title>
<ellipse fill="none" stroke="black" cx="476.66" cy="-234" rx="476.66" ry="18"/>
<text text-anchor="middle" x="476.66" y="-228.95" font-family="Times New Roman,serif" font-size="14.00">Tare Machine: Your bottles clunk into the machine and the money appears with a satisfying jingle. You&#39;re a richer man now!</text>
</g>
<!-- 24 -->
<g id="node24" class="node">
<title>24</title>
<ellipse fill="none" stroke="black" cx="1641.66" cy="-162" rx="351.27" ry="18"/>
<text text-anchor="middle" x="1641.66" y="-156.95" font-family="Times New Roman,serif" font-size="14.00">Variable[&quot;TASK.get_a_drink&quot;] == true &#160;and &#160;Variable[&quot;TASK.get_a_drink_done&quot;] == false</text>
</g>
<!-- 11&#45;&gt;24 -->
<g id="edge10" class="edge">
<title>11&#45;&gt;24</title>
<path fill="none" stroke="black" d="M723.37,-218.18C925.64,-206.02 1209.94,-188.94 1408.44,-177.01"/>
<polygon fill="black" stroke="black" points="1408.62,-180.51 1418.39,-176.42 1408.2,-173.52 1408.62,-180.51"/>
</g>
<!-- 14 -->
<g id="node15" class="node">
<title>14</title>
<ellipse fill="none" stroke="black" cx="2406.66" cy="-522" rx="150.64" ry="18"/>
<text text-anchor="middle" x="2406.66" y="-516.95" font-family="Times New Roman,serif" font-size="14.00">You: &quot;I understand now. Thank you.&quot;</text>
</g>
<!-- 12&#45;&gt;14 -->
<g id="edge12" class="edge">
<title>12&#45;&gt;14</title>
<path fill="none" stroke="black" d="M2450.33,-575.7C2443.58,-567.56 2435.41,-557.69 2427.96,-548.7"/>
<polygon fill="black" stroke="black" points="2430.88,-546.74 2421.8,-541.27 2425.49,-551.2 2430.88,-546.74"/>
</g>
<!-- 18 -->
<g id="node18" class="node">
<title>18</title>
<ellipse fill="none" stroke="black" cx="2973.66" cy="-522" rx="120.45" ry="18"/>
<text text-anchor="middle" x="2973.66" y="-516.95" font-family="Times New Roman,serif" font-size="14.00">You: &quot;Yes, but what *is* it?&quot;</text>
</g>
<!-- 12&#45;&gt;18 -->
<g id="edge11" class="edge">
<title>12&#45;&gt;18</title>
<path fill="none" stroke="black" d="M2584,-576.59C2672.91,-564.36 2792.83,-547.87 2876.05,-536.42"/>
<polygon fill="black" stroke="black" points="2876.36,-539.91 2885.79,-535.08 2875.41,-532.98 2876.36,-539.91"/>
</g>
<!-- 13 -->
<g id="node14" class="node">
<title>13</title>
<ellipse fill="none" stroke="black" cx="3334.66" cy="-378" rx="241.23" ry="18"/>
<text text-anchor="middle" x="3334.66" y="-372.95" font-family="Times New Roman,serif" font-size="14.00">Savoir Faire: Cool. Let&#39;s do this swindle. This *tare* swindle.</text>
</g>
<!-- 13&#45;&gt;2 -->
<g id="edge13" class="edge">
<title>13&#45;&gt;2</title>
<path fill="none" stroke="black" d="M3359.38,-359.7C3371.88,-350.95 3387.24,-340.19 3400.82,-330.69"/>
<polygon fill="black" stroke="black" points="3402.46,-333.82 3408.64,-325.21 3398.44,-328.08 3402.46,-333.82"/>
</g>
<!-- 22 -->
<g id="node22" class="node">
<title>22</title>
<ellipse fill="none" stroke="black" cx="2348.66" cy="-450" rx="240.21" ry="18"/>
<text text-anchor="middle" x="2348.66" y="-444.95" font-family="Times New Roman,serif" font-size="14.00">Frittte clerk: &quot;Mh.&quot; She looks down, back into her magazine.</text>
</g>
<!-- 14&#45;&gt;22 -->
<g id="edge14" class="edge">
<title>14&#45;&gt;22</title>
<path fill="none" stroke="black" d="M2392.33,-503.7C2385.58,-495.56 2377.41,-485.69 2369.96,-476.7"/>
<polygon fill="black" stroke="black" points="2372.88,-474.74 2363.8,-469.27 2367.49,-479.2 2372.88,-474.74"/>
</g>
<!-- 16 -->
<g id="node16" class="node">
<title>16</title>
<ellipse fill="none" stroke="black" cx="1504.66" cy="-450" rx="476.66" ry="18"/>
<text text-anchor="middle" x="1504.66" y="-444.95" font-family="Times New Roman,serif" font-size="14.00">Tare Machine: Your bottles clunk into the machine and the money appears with a satisfying jingle. You&#39;re a richer man now!</text>
</g>
<!-- 29 -->
<g id="node29" class="node">
<title>29</title>
<ellipse fill="none" stroke="black" cx="1641.66" cy="-378" rx="164.46" ry="18"/>
<text text-anchor="middle" x="1641.66" y="-372.95" font-family="Times New Roman,serif" font-size="14.00">Variable[&quot;gates.fritte_tare_hobo_inland&quot;]</text>
</g>
<!-- 16&#45;&gt;29 -->
<g id="edge15" class="edge">
<title>16&#45;&gt;29</title>
<path fill="none" stroke="black" d="M1538.53,-431.7C1556.53,-422.5 1578.86,-411.09 1598.14,-401.24"/>
<polygon fill="black" stroke="black" points="1599.53,-404.46 1606.84,-396.79 1596.34,-398.23 1599.53,-404.46"/>
</g>
<!-- 17 -->
<g id="node17" class="node">
<title>17</title>
<ellipse fill="none" stroke="black" cx="3309.66" cy="-450" rx="702.37" ry="18"/>
<text text-anchor="middle" x="3309.66" y="-444.95" font-family="Times New Roman,serif" font-size="14.00">Frittte clerk: She knits her brow, confused. &quot;It&#39;s... a machine for tare? You know. You find tare outside &#45;&#45; like, bottles or whatever &#45;&#45; and put it in the machine. Then it gives you money.&quot;</text>
</g>
<!-- 17&#45;&gt;13 -->
<g id="edge16" class="edge">
<title>17&#45;&gt;13</title>
<path fill="none" stroke="black" d="M3315.84,-431.7C3318.54,-424.15 3321.76,-415.12 3324.78,-406.68"/>
<polygon fill="black" stroke="black" points="3327.98,-408.12 3328.05,-397.53 3321.39,-405.77 3327.98,-408.12"/>
</g>
<!-- 18&#45;&gt;17 -->
<g id="edge17" class="edge">
<title>18&#45;&gt;17</title>
<path fill="none" stroke="black" d="M3042.06,-506.75C3091.97,-496.35 3160.22,-482.13 3215.31,-470.66"/>
<polygon fill="black" stroke="black" points="3215.94,-474.1 3225.01,-468.64 3214.51,-467.25 3215.94,-474.1"/>
</g>
<!-- 19&#45;&gt;20 -->
<g id="edge18" class="edge">
<title>19&#45;&gt;20</title>
<path fill="none" stroke="black" d="M1928.05,-531.26C1962,-538.63 1997.66,-551.99 2023.66,-576 2033.74,-585.3 2059.01,-665.21 2072.26,-708.84"/>
<polygon fill="black" stroke="black" points="2068.83,-709.58 2075.07,-718.14 2075.53,-707.56 2068.83,-709.58"/>
</g>
<!-- 20&#45;&gt;5 -->
<g id="edge21" class="edge">
<title>20&#45;&gt;5</title>
<path fill="none" stroke="black" d="M2006.31,-732.2C1865.86,-723.09 1551.94,-702.56 1287.66,-684 1245.95,-681.07 1200.02,-677.72 1160.17,-674.77"/>
<polygon fill="black" stroke="black" points="1160.57,-671.29 1150.34,-674.04 1160.05,-678.27 1160.57,-671.29"/>
</g>
<!-- 20&#45;&gt;7 -->
<g id="edge22" class="edge">
<title>20&#45;&gt;7</title>
<path fill="none" stroke="black" d="M2137.57,-725.28C2193.12,-713.85 2278.16,-696.34 2340.54,-683.5"/>
<polygon fill="black" stroke="black" points="2340.95,-686.99 2350.04,-681.54 2339.54,-680.13 2340.95,-686.99"/>
</g>
<!-- 20&#45;&gt;10 -->
<g id="edge19" class="edge">
<title>20&#45;&gt;10</title>
<path fill="none" stroke="black" d="M2102.23,-720.41C2113.99,-711.37 2128.73,-700.03 2141.6,-690.13"/>
<polygon fill="black" stroke="black" points="2143.58,-693.02 2149.37,-684.15 2139.31,-687.47 2143.58,-693.02"/>
</g>
<!-- 28 -->
<g id="node28" class="node">
<title>28</title>
<ellipse fill="none" stroke="black" cx="1625.66" cy="-666" rx="328.75" ry="18"/>
<text text-anchor="middle" x="1625.66" y="-660.95" font-family="Times New Roman,serif" font-size="14.00">You: &quot;Excuse me &#45;&#45; I have the tare bag but no tare. Can I still use the tare machine?&quot;</text>
</g>
<!-- 20&#45;&gt;28 -->
<g id="edge20" class="edge">
<title>20&#45;&gt;28</title>
<path fill="none" stroke="black" d="M2017.4,-727.27C1946.87,-716.42 1831.25,-698.63 1743.85,-685.18"/>
<polygon fill="black" stroke="black" points="1744.44,-681.73 1734.03,-683.67 1743.38,-688.65 1744.44,-681.73"/>
</g>
<!-- 21 -->
<g id="node21" class="node">
<title>21</title>
<ellipse fill="none" stroke="black" cx="1641.66" cy="-234" rx="670.64" ry="18"/>
<text text-anchor="middle" x="1641.66" y="-228.95" font-family="Times New Roman,serif" font-size="14.00">Inland Empire: You&#39;re 100% sure you got special Hobocop money for that tare. At least +100% extra tare money. If the numbers on the machine told you otherwise, it&#39;s a *lie*.</text>
</g>
<!-- 21&#45;&gt;24 -->
<g id="edge23" class="edge">
<title>21&#45;&gt;24</title>
<path fill="none" stroke="black" d="M1641.66,-215.7C1641.66,-208.41 1641.66,-199.73 1641.66,-191.54"/>
<polygon fill="black" stroke="black" points="1645.16,-191.62 1641.66,-181.62 1638.16,-191.62 1645.16,-191.62"/>
</g>
<!-- 22&#45;&gt;3 -->
<g id="edge24" class="edge">
<title>22&#45;&gt;3</title>
<path fill="none" stroke="black" d="M2315.54,-431.7C2297.75,-422.41 2275.64,-410.86 2256.66,-400.94"/>
<polygon fill="black" stroke="black" points="2258.31,-397.85 2247.83,-396.32 2255.07,-404.06 2258.31,-397.85"/>
</g>
<!-- 23&#45;&gt;20 -->
<g id="edge25" class="edge">
<title>23&#45;&gt;20</title>
<path fill="none" stroke="black" d="M2080.66,-791.7C2080.66,-784.41 2080.66,-775.73 2080.66,-767.54"/>
<polygon fill="black" stroke="black" points="2084.16,-767.62 2080.66,-757.62 2077.16,-767.62 2084.16,-767.62"/>
</g>
<!-- 25 -->
<g id="node25" class="node">
<title>25</title>
<polygon fill="none" stroke="black" points="2154.66,-108 1657.89,-90 2154.66,-72 2651.44,-90 2154.66,-108"/>
<text text-anchor="middle" x="2154.66" y="-84.95" font-family="Times New Roman,serif" font-size="14.00">Variable[&quot;TASK.get_a_drink&quot;] == true &#160;and &#160;Variable[&quot;TASK.get_a_drink_done&quot;] == false</text>
</g>
<!-- 24&#45;&gt;25 -->
<g id="edge26" class="edge">
<title>24&#45;&gt;25</title>
<path fill="none" stroke="black" d="M1761.62,-144.63C1846.4,-133.06 1959.29,-117.66 2042.32,-106.33"/>
<polygon fill="black" stroke="black" points="2042.64,-109.82 2052.08,-105 2041.7,-102.88 2042.64,-109.82"/>
</g>
<!-- 26 -->
<g id="node26" class="node">
<title>26</title>
<polygon fill="none" stroke="black" points="1129.66,-108 619.86,-90 1129.66,-72 1639.46,-90 1129.66,-108"/>
<text text-anchor="middle" x="1129.66" y="-84.95" font-family="Times New Roman,serif" font-size="14.00">!(Variable[&quot;TASK.get_a_drink&quot;] == true &#160;and &#160;Variable[&quot;TASK.get_a_drink_done&quot;] == false)</text>
</g>
<!-- 24&#45;&gt;26 -->
<g id="edge27" class="edge">
<title>24&#45;&gt;26</title>
<path fill="none" stroke="black" d="M1521.95,-144.63C1437.61,-133.1 1325.41,-117.76 1242.62,-106.44"/>
<polygon fill="black" stroke="black" points="1243.27,-103 1232.89,-105.11 1242.33,-109.94 1243.27,-103"/>
</g>
<!-- 25&#45;&gt;6 -->
<g id="edge28" class="edge">
<title>25&#45;&gt;6</title>
<path fill="none" stroke="black" d="M2154.66,-71.7C2154.66,-64.41 2154.66,-55.73 2154.66,-47.54"/>
<polygon fill="black" stroke="black" points="2158.16,-47.62 2154.66,-37.62 2151.16,-47.62 2158.16,-47.62"/>
</g>
<!-- 27&#45;&gt;20 -->
<g id="edge29" class="edge">
<title>27&#45;&gt;20</title>
<path fill="none" stroke="black" d="M3851.5,-99.61C3935.06,-112.93 4039.66,-146.81 4039.66,-233 4039.66,-595 4039.66,-595 4039.66,-595 4039.66,-690.08 2552.4,-727.28 2169.63,-735.27"/>
<polygon fill="black" stroke="black" points="2169.8,-731.77 2159.88,-735.48 2169.95,-738.77 2169.8,-731.77"/>
</g>
<!-- 28&#45;&gt;4 -->
<g id="edge30" class="edge">
<title>28&#45;&gt;4</title>
<path fill="none" stroke="black" d="M1610.83,-647.7C1603.86,-639.56 1595.4,-629.69 1587.69,-620.7"/>
<polygon fill="black" stroke="black" points="1590.48,-618.57 1581.31,-613.25 1585.16,-623.12 1590.48,-618.57"/>
</g>
<!-- 30 -->
<g id="node30" class="node">
<title>30</title>
<polygon fill="none" stroke="black" points="2239.66,-324 2007.08,-306 2239.66,-288 2472.25,-306 2239.66,-324"/>
<text text-anchor="middle" x="2239.66" y="-300.95" font-family="Times New Roman,serif" font-size="14.00">Variable[&quot;gates.fritte_tare_hobo_inland&quot;]</text>
</g>
<!-- 29&#45;&gt;30 -->
<g id="edge31" class="edge">
<title>29&#45;&gt;30</title>
<path fill="none" stroke="black" d="M1751,-364.2C1861.67,-351.25 2031.39,-331.38 2138.9,-318.8"/>
<polygon fill="black" stroke="black" points="2139.04,-322.3 2148.57,-317.66 2138.23,-315.35 2139.04,-322.3"/>
</g>
<!-- 31 -->
<g id="node31" class="node">
<title>31</title>
<polygon fill="none" stroke="black" points="1641.66,-324 1396.05,-306 1641.66,-288 1887.28,-306 1641.66,-324"/>
<text text-anchor="middle" x="1641.66" y="-300.95" font-family="Times New Roman,serif" font-size="14.00">!(Variable[&quot;gates.fritte_tare_hobo_inland&quot;])</text>
</g>
<!-- 29&#45;&gt;31 -->
<g id="edge32" class="edge">
<title>29&#45;&gt;31</title>
<path fill="none" stroke="black" d="M1641.66,-359.7C1641.66,-352.41 1641.66,-343.73 1641.66,-335.54"/>
<polygon fill="black" stroke="black" points="1645.16,-335.62 1641.66,-325.62 1638.16,-335.62 1645.16,-335.62"/>
</g>
<!-- 30&#45;&gt;24 -->
<g id="edge33" class="edge">
<title>30&#45;&gt;24</title>
<path fill="none" stroke="black" d="M2277.55,-290.5C2294.24,-281.99 2312.18,-269.42 2321.66,-252 2329.31,-237.95 2332.53,-227.75 2321.66,-216 2296.83,-189.15 2137.62,-175.88 1979.5,-169.32"/>
<polygon fill="black" stroke="black" points="1979.76,-165.83 1969.63,-168.92 1979.48,-172.83 1979.76,-165.83"/>
</g>
<!-- 31&#45;&gt;21 -->
<g id="edge34" class="edge">
<title>31&#45;&gt;21</title>
<path fill="none" stroke="black" d="M1641.66,-287.7C1641.66,-280.41 1641.66,-271.73 1641.66,-263.54"/>
<polygon fill="black" stroke="black" points="1645.16,-263.62 1641.66,-253.62 1638.16,-263.62 1645.16,-263.62"/>
</g>
<!-- 33 -->
<g id="node33" class="node">
<title>33</title>
<polygon fill="none" stroke="black" points="1361.66,-540 1215.94,-522 1361.66,-504 1507.39,-522 1361.66,-540"/>
<text text-anchor="middle" x="1361.66" y="-516.95" font-family="Times New Roman,serif" font-size="14.00">IsTHCFixed(&quot;hobocop&quot;)</text>
</g>
<!-- 32&#45;&gt;33 -->
<g id="edge35" class="edge">
<title>32&#45;&gt;33</title>
<path fill="none" stroke="black" d="M1063.22,-580.08C1129.31,-567.44 1229.36,-548.3 1295.11,-535.73"/>
<polygon fill="black" stroke="black" points="1295.51,-539.22 1304.68,-533.9 1294.2,-532.34 1295.51,-539.22"/>
</g>
<!-- 34 -->
<g id="node34" class="node">
<title>34</title>
<polygon fill="none" stroke="black" points="967.66,-540 808.91,-522 967.66,-504 1126.42,-522 967.66,-540"/>
<text text-anchor="middle" x="967.66" y="-516.95" font-family="Times New Roman,serif" font-size="14.00">!(IsTHCFixed(&quot;hobocop&quot;))</text>
</g>
<!-- 32&#45;&gt;34 -->
<g id="edge36" class="edge">
<title>32&#45;&gt;34</title>
<path fill="none" stroke="black" d="M988.74,-575.7C985.68,-568.04 982,-558.85 978.59,-550.3"/>
<polygon fill="black" stroke="black" points="981.84,-549.01 974.87,-541.03 975.34,-551.61 981.84,-549.01"/>
</g>
<!-- 33&#45;&gt;16 -->
<g id="edge37" class="edge">
<title>33&#45;&gt;16</title>
<path fill="none" stroke="black" d="M1389.92,-507.17C1409.61,-497.53 1436.31,-484.46 1459.01,-473.35"/>
<polygon fill="black" stroke="black" points="1460.31,-476.61 1467.75,-469.07 1457.23,-470.32 1460.31,-476.61"/>
</g>
<!-- 34&#45;&gt;11 -->
<g id="edge38" class="edge">
<title>34&#45;&gt;11</title>
<path fill="none" stroke="black" d="M942.64,-506.42C862.8,-459.92 613.69,-314.81 516.27,-258.07"/>
<polygon fill="black" stroke="black" points="518.23,-255.16 507.82,-253.15 514.7,-261.21 518.23,-255.16"/>
</g>
</g>
</svg>
