<?xml version="1.0" encoding="UTF-8" standalone="no"?>
<!DOCTYPE svg PUBLIC "-//W3C//DTD SVG 1.1//EN"
 "http://www.w3.org/Graphics/SVG/1.1/DTD/svg11.dtd">
<!-- Generated by graphviz version 12.2.1 (20241206.2353)
 -->
<!-- Title: G Pages: 1 -->
<svg width="4417pt" height="2060pt"
 viewBox="0.00 0.00 4417.28 2060.00" xmlns="http://www.w3.org/2000/svg" xmlns:xlink="http://www.w3.org/1999/xlink">
<g id="graph0" class="graph" transform="scale(1 1) rotate(0) translate(4 2056)">
<title>G</title>
<polygon fill="white" stroke="none" points="-4,4 -4,-2056 4413.28,-2056 4413.28,4 -4,4"/>
<!-- 0 -->
<g id="node1" class="node">
<title>0</title>
<ellipse fill="none" stroke="black" cx="1416.6" cy="-2034" rx="39.07" ry="18"/>
<text text-anchor="middle" x="1416.6" y="-2028.95" font-family="Times New Roman,serif" font-size="14.00">START</text>
</g>
<!-- 1 -->
<g id="node2" class="node">
<title>1</title>
<ellipse fill="none" stroke="black" cx="1416.6" cy="-1962" rx="29.86" ry="18"/>
<text text-anchor="middle" x="1416.6" y="-1956.95" font-family="Times New Roman,serif" font-size="14.00">input</text>
</g>
<!-- 0&#45;&gt;1 -->
<g id="edge1" class="edge">
<title>0&#45;&gt;1</title>
<path fill="none" stroke="black" d="M1416.6,-2015.7C1416.6,-2008.41 1416.6,-1999.73 1416.6,-1991.54"/>
<polygon fill="black" stroke="black" points="1420.1,-1991.62 1416.6,-1981.62 1413.1,-1991.62 1420.1,-1991.62"/>
</g>
<!-- 12 -->
<g id="node13" class="node">
<title>12</title>
<ellipse fill="none" stroke="black" cx="1416.6" cy="-1890" rx="455.68" ry="18"/>
<text text-anchor="middle" x="1416.6" y="-1884.95" font-family="Times New Roman,serif" font-size="14.00">Shimmering Wall of Vices: A colourful display of cigarettes and alcohol bottles lines the shop wall, inviting you closer.</text>
</g>
<!-- 1&#45;&gt;12 -->
<g id="edge2" class="edge">
<title>1&#45;&gt;12</title>
<path fill="none" stroke="black" d="M1416.6,-1943.7C1416.6,-1936.41 1416.6,-1927.73 1416.6,-1919.54"/>
<polygon fill="black" stroke="black" points="1420.1,-1919.62 1416.6,-1909.62 1413.1,-1919.62 1420.1,-1919.62"/>
</g>
<!-- 2 -->
<g id="node3" class="node">
<title>2</title>
<ellipse fill="none" stroke="black" cx="3299.6" cy="-522" rx="419.34" ry="18"/>
<text text-anchor="middle" x="3299.6" y="-516.95" font-family="Times New Roman,serif" font-size="14.00">Electrochemistry: Don&#39;t worry your pretty little head about it. Let&#39;s concentrate on what&#39;s IMPORTANT here.</text>
</g>
<!-- 36 -->
<g id="node37" class="node">
<title>36</title>
<ellipse fill="none" stroke="black" cx="2852.6" cy="-450" rx="130.17" ry="18"/>
<text text-anchor="middle" x="2852.6" y="-444.95" font-family="Times New Roman,serif" font-size="14.00">You: &quot;Thanks for your answer.&quot;</text>
</g>
<!-- 2&#45;&gt;36 -->
<g id="edge3" class="edge">
<title>2&#45;&gt;36</title>
<path fill="none" stroke="black" d="M3191.96,-504.14C3117.54,-492.49 3019.42,-477.13 2947.84,-465.92"/>
<polygon fill="black" stroke="black" points="2948.5,-462.48 2938.08,-464.39 2947.42,-469.39 2948.5,-462.48"/>
</g>
<!-- 38 -->
<g id="node39" class="node">
<title>38</title>
<ellipse fill="none" stroke="black" cx="3299.6" cy="-450" rx="250.44" ry="18"/>
<text text-anchor="middle" x="3299.6" y="-444.95" font-family="Times New Roman,serif" font-size="14.00">You: &quot;Okay. What will consuming this stuff do to my *body*?&quot;</text>
</g>
<!-- 2&#45;&gt;38 -->
<g id="edge4" class="edge">
<title>2&#45;&gt;38</title>
<path fill="none" stroke="black" d="M3299.6,-503.7C3299.6,-496.41 3299.6,-487.73 3299.6,-479.54"/>
<polygon fill="black" stroke="black" points="3303.1,-479.62 3299.6,-469.62 3296.1,-479.62 3303.1,-479.62"/>
</g>
<!-- 3 -->
<g id="node4" class="node">
<title>3</title>
<ellipse fill="none" stroke="black" cx="2394.6" cy="-378" rx="387.1" ry="18"/>
<text text-anchor="middle" x="2394.6" y="-372.95" font-family="Times New Roman,serif" font-size="14.00">Frittte clerk: &quot;Sure.&quot; She tilts her head back at the shelf. &quot;So... are you going to buy anything, or...?&quot;</text>
</g>
<!-- 7 -->
<g id="node8" class="node">
<title>7</title>
<ellipse fill="none" stroke="black" cx="1743.6" cy="-306" rx="126.59" ry="18"/>
<text text-anchor="middle" x="1743.6" y="-300.95" font-family="Times New Roman,serif" font-size="14.00">Jump to: [alcohol smokes hub]</text>
</g>
<!-- 3&#45;&gt;7 -->
<g id="edge5" class="edge">
<title>3&#45;&gt;7</title>
<path fill="none" stroke="black" d="M2245.24,-360.94C2125.78,-348.1 1961.02,-330.38 1853.43,-318.81"/>
<polygon fill="black" stroke="black" points="1854.04,-315.36 1843.73,-317.77 1853.3,-322.32 1854.04,-315.36"/>
</g>
<!-- 4 -->
<g id="node5" class="node">
<title>4</title>
<ellipse fill="none" stroke="black" cx="1240.6" cy="-1242" rx="510.44" ry="18"/>
<text text-anchor="middle" x="1240.6" y="-1236.95" font-family="Times New Roman,serif" font-size="14.00">Frittte clerk: &quot;But I&#39;m obliged to inform you that both alcohol and cigarettes damage your health. But I guess you already know that.&quot;</text>
</g>
<!-- 45 -->
<g id="node45" class="node">
<title>45</title>
<ellipse fill="none" stroke="black" cx="2083.6" cy="-1170" rx="344.62" ry="18"/>
<text text-anchor="middle" x="2083.6" y="-1164.95" font-family="Times New Roman,serif" font-size="14.00">Volition: Don&#39;t ask, don&#39;t look, don&#39;t do *anything* here. Just go away. Get back to work.</text>
</g>
<!-- 4&#45;&gt;45 -->
<g id="edge6" class="edge">
<title>4&#45;&gt;45</title>
<path fill="none" stroke="black" d="M1434.53,-1224.9C1572.49,-1213.44 1756.91,-1198.13 1893.91,-1186.75"/>
<polygon fill="black" stroke="black" points="1894.16,-1190.24 1903.84,-1185.93 1893.58,-1183.27 1894.16,-1190.24"/>
</g>
<!-- 5 -->
<g id="node6" class="node">
<title>5</title>
<ellipse fill="none" stroke="black" cx="2075.6" cy="-522" rx="539.62" ry="18"/>
<text text-anchor="middle" x="2075.6" y="-516.95" font-family="Times New Roman,serif" font-size="14.00">Kim Kitsuragi: &quot;Of course not,&quot; the lieutenant says, glaring at you. &quot;Frittte is an establishment that acts within the law. Is that all, detective?&quot;</text>
</g>
<!-- 20 -->
<g id="node21" class="node">
<title>20</title>
<ellipse fill="none" stroke="black" cx="2075.6" cy="-450" rx="313.91" ry="18"/>
<text text-anchor="middle" x="2075.6" y="-444.95" font-family="Times New Roman,serif" font-size="14.00">Electrochemistry: Bah! What&#39;s the point if they don&#39;t even sell the *good* drugs?</text>
</g>
<!-- 5&#45;&gt;20 -->
<g id="edge7" class="edge">
<title>5&#45;&gt;20</title>
<path fill="none" stroke="black" d="M2075.6,-503.7C2075.6,-496.41 2075.6,-487.73 2075.6,-479.54"/>
<polygon fill="black" stroke="black" points="2079.1,-479.62 2075.6,-469.62 2072.1,-479.62 2079.1,-479.62"/>
</g>
<!-- 6 -->
<g id="node7" class="node">
<title>6</title>
<ellipse fill="none" stroke="black" cx="916.6" cy="-1602" rx="389.66" ry="18"/>
<text text-anchor="middle" x="916.6" y="-1596.95" font-family="Times New Roman,serif" font-size="14.00">Frittte clerk: &quot;Again, I&#39;m obliged to inform you that both alcohol and cigarettes damage your health.&quot;</text>
</g>
<!-- 46 -->
<g id="node46" class="node">
<title>46</title>
<ellipse fill="none" stroke="black" cx="1279.6" cy="-882" rx="85.13" ry="18"/>
<text text-anchor="middle" x="1279.6" y="-876.95" font-family="Times New Roman,serif" font-size="14.00">alcohol smokes hub</text>
</g>
<!-- 6&#45;&gt;46 -->
<g id="edge8" class="edge">
<title>6&#45;&gt;46</title>
<path fill="none" stroke="black" d="M841.15,-1583.85C779.54,-1564.86 702.6,-1527.44 702.6,-1459 702.6,-1459 702.6,-1459 702.6,-1025 702.6,-926.8 1021.69,-896.13 1185.29,-886.85"/>
<polygon fill="black" stroke="black" points="1185.01,-890.37 1194.8,-886.33 1184.62,-883.38 1185.01,-890.37"/>
</g>
<!-- 7&#45;&gt;46 -->
<g id="edge9" class="edge">
<title>7&#45;&gt;46</title>
<path fill="none" stroke="black" d="M1645.84,-317.73C1567.15,-332.43 1469.6,-367.16 1469.6,-449 1469.6,-739 1469.6,-739 1469.6,-739 1469.6,-779.45 1477.88,-798.14 1450.6,-828 1429.31,-851.3 1398.01,-864.45 1367.99,-871.84"/>
<polygon fill="black" stroke="black" points="1367.47,-868.37 1358.49,-873.98 1369.01,-875.2 1367.47,-868.37"/>
</g>
<!-- 8 -->
<g id="node9" class="node">
<title>8</title>
<ellipse fill="none" stroke="black" cx="2734.6" cy="-1458" rx="119.42" ry="18"/>
<text text-anchor="middle" x="2734.6" y="-1452.95" font-family="Times New Roman,serif" font-size="14.00">You: Not right now. [Leave.]</text>
</g>
<!-- 9 -->
<g id="node10" class="node">
<title>9</title>
<ellipse fill="none" stroke="black" cx="3110.6" cy="-666" rx="90.76" ry="18"/>
<text text-anchor="middle" x="3110.6" y="-660.95" font-family="Times New Roman,serif" font-size="14.00">You: &quot;What is pale?&quot;</text>
</g>
<!-- 29 -->
<g id="node30" class="node">
<title>29</title>
<ellipse fill="none" stroke="black" cx="3237.6" cy="-594" rx="294.97" ry="18"/>
<text text-anchor="middle" x="3237.6" y="-588.95" font-family="Times New Roman,serif" font-size="14.00">Frittte clerk: &quot;You know...&quot; She shrugs, uninterested in explaining it further.</text>
</g>
<!-- 9&#45;&gt;29 -->
<g id="edge10" class="edge">
<title>9&#45;&gt;29</title>
<path fill="none" stroke="black" d="M3140.37,-648.59C3157,-639.42 3177.97,-627.87 3196.17,-617.83"/>
<polygon fill="black" stroke="black" points="3197.84,-620.91 3204.91,-613.02 3194.46,-614.78 3197.84,-620.91"/>
</g>
<!-- 10 -->
<g id="node11" class="node">
<title>10</title>
<ellipse fill="none" stroke="black" cx="2771.6" cy="-1386" rx="239.7" ry="18"/>
<text text-anchor="middle" x="2771.6" y="-1380.95" font-family="Times New Roman,serif" font-size="14.00">Conceptualization: The beauty, the truth, the poetry of it all...</text>
</g>
<!-- 44 -->
<g id="node44" class="node">
<title>44</title>
<ellipse fill="none" stroke="black" cx="3019.6" cy="-1314" rx="681.9" ry="18"/>
<text text-anchor="middle" x="3019.6" y="-1308.95" font-family="Times New Roman,serif" font-size="14.00">Frittte clerk: &quot;I&#39;m obliged to inform you that both alcohol and cigarettes damage your health,&quot; she comments as you eye the goods behind her, &quot;but I guess you already know that.&quot;</text>
</g>
<!-- 10&#45;&gt;44 -->
<g id="edge11" class="edge">
<title>10&#45;&gt;44</title>
<path fill="none" stroke="black" d="M2831.31,-1368.14C2866.27,-1358.28 2910.66,-1345.75 2947.55,-1335.34"/>
<polygon fill="black" stroke="black" points="2948.11,-1338.81 2956.78,-1332.73 2946.21,-1332.08 2948.11,-1338.81"/>
</g>
<!-- 11 -->
<g id="node12" class="node">
<title>11</title>
<ellipse fill="none" stroke="black" cx="1128.6" cy="-18" rx="126.59" ry="18"/>
<text text-anchor="middle" x="1128.6" y="-12.95" font-family="Times New Roman,serif" font-size="14.00">Jump to: [alcohol smokes hub]</text>
</g>
<!-- 11&#45;&gt;46 -->
<g id="edge12" class="edge">
<title>11&#45;&gt;46</title>
<path fill="none" stroke="black" d="M1004.38,-21.84C711.19,-30.18 0.6,-60.74 0.6,-161 0.6,-739 0.6,-739 0.6,-739 0.6,-780.21 -5.85,-802.59 26.6,-828 71.92,-863.5 897.98,-876.52 1183.48,-879.97"/>
<polygon fill="black" stroke="black" points="1183.08,-883.47 1193.12,-880.09 1183.16,-876.47 1183.08,-883.47"/>
</g>
<!-- 23 -->
<g id="node24" class="node">
<title>23</title>
<ellipse fill="none" stroke="black" cx="1416.6" cy="-1818" rx="169.58" ry="18"/>
<text text-anchor="middle" x="1416.6" y="-1812.95" font-family="Times New Roman,serif" font-size="14.00">Variable[&quot;gates.frittte_vice_hub_reached&quot;]</text>
</g>
<!-- 12&#45;&gt;23 -->
<g id="edge13" class="edge">
<title>12&#45;&gt;23</title>
<path fill="none" stroke="black" d="M1416.6,-1871.7C1416.6,-1864.41 1416.6,-1855.73 1416.6,-1847.54"/>
<polygon fill="black" stroke="black" points="1420.1,-1847.62 1416.6,-1837.62 1413.1,-1847.62 1420.1,-1847.62"/>
</g>
<!-- 13 -->
<g id="node14" class="node">
<title>13</title>
<ellipse fill="none" stroke="black" cx="2983.6" cy="-738" rx="568.28" ry="18"/>
<text text-anchor="middle" x="2983.6" y="-732.95" font-family="Times New Roman,serif" font-size="14.00">Frittte clerk: &quot;Um, the pale&#45;aged vodka is special, I guess. It&#39;s stored in pale for a couple of years, which makes it super expensive and super strong.&quot;</text>
</g>
<!-- 13&#45;&gt;9 -->
<g id="edge14" class="edge">
<title>13&#45;&gt;9</title>
<path fill="none" stroke="black" d="M3014.99,-719.7C3031.89,-710.38 3052.91,-698.79 3070.94,-688.86"/>
<polygon fill="black" stroke="black" points="3072.48,-692.01 3079.55,-684.11 3069.1,-685.88 3072.48,-692.01"/>
</g>
<!-- 13&#45;&gt;36 -->
<g id="edge15" class="edge">
<title>13&#45;&gt;36</title>
<path fill="none" stroke="black" d="M2971.31,-719.72C2948.29,-686.5 2898.53,-610.78 2871.6,-540 2864.15,-520.44 2859.33,-497.3 2856.4,-479.52"/>
<polygon fill="black" stroke="black" points="2859.87,-479.03 2854.9,-469.67 2852.95,-480.08 2859.87,-479.03"/>
</g>
<!-- 13&#45;&gt;38 -->
<g id="edge16" class="edge">
<title>13&#45;&gt;38</title>
<path fill="none" stroke="black" d="M3133.33,-720.17C3330.68,-694.38 3660.76,-637.55 3727.6,-540 3736.64,-526.8 3738.19,-515.99 3727.6,-504 3711.39,-485.66 3600.11,-472.23 3495.1,-463.48"/>
<polygon fill="black" stroke="black" points="3495.41,-459.99 3485.15,-462.67 3494.83,-466.97 3495.41,-459.99"/>
</g>
<!-- 14 -->
<g id="node15" class="node">
<title>14</title>
<ellipse fill="none" stroke="black" cx="2457.6" cy="-1458" rx="139.38" ry="18"/>
<text text-anchor="middle" x="2457.6" y="-1452.95" font-family="Times New Roman,serif" font-size="14.00">You: (Say nothing. Just take it in.)</text>
</g>
<!-- 14&#45;&gt;10 -->
<g id="edge17" class="edge">
<title>14&#45;&gt;10</title>
<path fill="none" stroke="black" d="M2525.34,-1441.9C2572.54,-1431.38 2635.85,-1417.26 2686.46,-1405.98"/>
<polygon fill="black" stroke="black" points="2686.91,-1409.47 2695.91,-1403.87 2685.39,-1402.63 2686.91,-1409.47"/>
</g>
<!-- 15 -->
<g id="node16" class="node">
<title>15</title>
<ellipse fill="none" stroke="black" cx="2072.6" cy="-1530" rx="57.49" ry="18"/>
<text text-anchor="middle" x="2072.6" y="-1524.95" font-family="Times New Roman,serif" font-size="14.00">Untitled hub</text>
</g>
<!-- 15&#45;&gt;8 -->
<g id="edge18" class="edge">
<title>15&#45;&gt;8</title>
<path fill="none" stroke="black" d="M2127.52,-1524.12C2224.24,-1515.4 2431.24,-1496.15 2605.6,-1476 2615.73,-1474.83 2626.31,-1473.54 2636.85,-1472.22"/>
<polygon fill="black" stroke="black" points="2637.27,-1475.69 2646.75,-1470.96 2636.39,-1468.75 2637.27,-1475.69"/>
</g>
<!-- 15&#45;&gt;14 -->
<g id="edge20" class="edge">
<title>15&#45;&gt;14</title>
<path fill="none" stroke="black" d="M2121.36,-1520.13C2183.26,-1508.88 2291.25,-1489.24 2368.14,-1475.27"/>
<polygon fill="black" stroke="black" points="2368.55,-1478.75 2377.76,-1473.52 2367.29,-1471.86 2368.55,-1478.75"/>
</g>
<!-- 51 -->
<g id="node51" class="node">
<title>51</title>
<ellipse fill="none" stroke="black" cx="1470.6" cy="-1458" rx="174.19" ry="18"/>
<text text-anchor="middle" x="1470.6" y="-1452.95" font-family="Times New Roman,serif" font-size="14.00">You: &quot;I am in Heaven. I need it all so bad.&quot;</text>
</g>
<!-- 15&#45;&gt;51 -->
<g id="edge19" class="edge">
<title>15&#45;&gt;51</title>
<path fill="none" stroke="black" d="M2019.44,-1522.82C1924.86,-1511.82 1725.05,-1488.59 1594.4,-1473.4"/>
<polygon fill="black" stroke="black" points="1595,-1469.94 1584.66,-1472.26 1594.19,-1476.9 1595,-1469.94"/>
</g>
<!-- 63 -->
<g id="node63" class="node">
<title>63</title>
<ellipse fill="none" stroke="black" cx="2072.6" cy="-1458" rx="227.41" ry="18"/>
<text text-anchor="middle" x="2072.6" y="-1452.95" font-family="Times New Roman,serif" font-size="14.00">You: &quot;This is *not* a good place for a recovering addict.&quot;</text>
</g>
<!-- 15&#45;&gt;63 -->
<g id="edge21" class="edge">
<title>15&#45;&gt;63</title>
<path fill="none" stroke="black" d="M2072.6,-1511.7C2072.6,-1504.41 2072.6,-1495.73 2072.6,-1487.54"/>
<polygon fill="black" stroke="black" points="2076.1,-1487.62 2072.6,-1477.62 2069.1,-1487.62 2076.1,-1487.62"/>
</g>
<!-- 16 -->
<g id="node17" class="node">
<title>16</title>
<ellipse fill="none" stroke="black" cx="787.6" cy="-738" rx="144.5" ry="18"/>
<text text-anchor="middle" x="787.6" y="-732.95" font-family="Times New Roman,serif" font-size="14.00">Frittte clerk: &quot;Here you go, mister.&quot;</text>
</g>
<!-- 27 -->
<g id="node28" class="node">
<title>27</title>
<ellipse fill="none" stroke="black" cx="787.6" cy="-666" rx="126.59" ry="18"/>
<text text-anchor="middle" x="787.6" y="-660.95" font-family="Times New Roman,serif" font-size="14.00">Jump to: [alcohol smokes hub]</text>
</g>
<!-- 16&#45;&gt;27 -->
<g id="edge22" class="edge">
<title>16&#45;&gt;27</title>
<path fill="none" stroke="black" d="M787.6,-719.7C787.6,-712.41 787.6,-703.73 787.6,-695.54"/>
<polygon fill="black" stroke="black" points="791.1,-695.62 787.6,-685.62 784.1,-695.62 791.1,-695.62"/>
</g>
<!-- 17 -->
<g id="node18" class="node">
<title>17</title>
<ellipse fill="none" stroke="black" cx="1904.6" cy="-954" rx="415.76" ry="18"/>
<text text-anchor="middle" x="1904.6" y="-948.95" font-family="Times New Roman,serif" font-size="14.00">Electrochemistry: Know this &#45;&#45; you will never finish your alcohol *quest* if you don&#39;t buy beautiful alcohol.</text>
</g>
<!-- 17&#45;&gt;46 -->
<g id="edge23" class="edge">
<title>17&#45;&gt;46</title>
<path fill="none" stroke="black" d="M1758.85,-936.68C1636.59,-922.98 1466.18,-903.9 1364.94,-892.56"/>
<polygon fill="black" stroke="black" points="1365.39,-889.09 1355.06,-891.45 1364.61,-896.04 1365.39,-889.09"/>
</g>
<!-- 18 -->
<g id="node19" class="node">
<title>18</title>
<ellipse fill="none" stroke="black" cx="1128.6" cy="-90" rx="740.76" ry="18"/>
<text text-anchor="middle" x="1128.6" y="-84.95" font-family="Times New Roman,serif" font-size="14.00">Tutorial Agent: Use medication (like NOSAPHED and MAGNESIUM) to counteract the negative effects of substances. NOTE! Consuming substances can have unforeseen consequences for you.</text>
</g>
<!-- 18&#45;&gt;11 -->
<g id="edge24" class="edge">
<title>18&#45;&gt;11</title>
<path fill="none" stroke="black" d="M1128.6,-71.7C1128.6,-64.41 1128.6,-55.73 1128.6,-47.54"/>
<polygon fill="black" stroke="black" points="1132.1,-47.62 1128.6,-37.62 1125.1,-47.62 1132.1,-47.62"/>
</g>
<!-- 19 -->
<g id="node20" class="node">
<title>19</title>
<ellipse fill="none" stroke="black" cx="2263.6" cy="-1242" rx="494.58" ry="18"/>
<text text-anchor="middle" x="2263.6" y="-1236.95" font-family="Times New Roman,serif" font-size="14.00">Frittte clerk: &quot;I&#39;m obliged to inform you that both alcohol and cigarettes damage your health. But I guess you already know that.&quot;</text>
</g>
<!-- 19&#45;&gt;45 -->
<g id="edge25" class="edge">
<title>19&#45;&gt;45</title>
<path fill="none" stroke="black" d="M2219.1,-1223.7C2194.67,-1214.2 2164.17,-1202.33 2138.29,-1192.27"/>
<polygon fill="black" stroke="black" points="2139.89,-1189.14 2129.3,-1188.77 2137.35,-1195.66 2139.89,-1189.14"/>
</g>
<!-- 47 -->
<g id="node47" class="node">
<title>47</title>
<ellipse fill="none" stroke="black" cx="1783.6" cy="-378" rx="126.59" ry="18"/>
<text text-anchor="middle" x="1783.6" y="-372.95" font-family="Times New Roman,serif" font-size="14.00">Jump to: [alcohol smokes hub]</text>
</g>
<!-- 20&#45;&gt;47 -->
<g id="edge26" class="edge">
<title>20&#45;&gt;47</title>
<path fill="none" stroke="black" d="M2004.91,-432.05C1960.16,-421.33 1902.41,-407.48 1857.12,-396.63"/>
<polygon fill="black" stroke="black" points="1858.2,-393.29 1847.66,-394.36 1856.57,-400.09 1858.2,-393.29"/>
</g>
<!-- 21 -->
<g id="node22" class="node">
<title>21</title>
<ellipse fill="none" stroke="black" cx="182.6" cy="-810" rx="146.55" ry="18"/>
<text text-anchor="middle" x="182.6" y="-804.95" font-family="Times New Roman,serif" font-size="14.00">You: &quot;Give me Potent Pilsner beer.&quot;</text>
</g>
<!-- 31 -->
<g id="node32" class="node">
<title>31</title>
<ellipse fill="none" stroke="black" cx="173.6" cy="-738" rx="144.5" ry="18"/>
<text text-anchor="middle" x="173.6" y="-732.95" font-family="Times New Roman,serif" font-size="14.00">Frittte clerk: &quot;Here you go, mister.&quot;</text>
</g>
<!-- 21&#45;&gt;31 -->
<g id="edge27" class="edge">
<title>21&#45;&gt;31</title>
<path fill="none" stroke="black" d="M180.37,-791.7C179.42,-784.32 178.29,-775.52 177.23,-767.25"/>
<polygon fill="black" stroke="black" points="180.74,-767.08 175.99,-757.61 173.79,-767.97 180.74,-767.08"/>
</g>
<!-- 22 -->
<g id="node23" class="node">
<title>22</title>
<ellipse fill="none" stroke="black" cx="484.6" cy="-810" rx="134.26" ry="18"/>
<text text-anchor="middle" x="484.6" y="-804.95" font-family="Times New Roman,serif" font-size="14.00">You: &quot;Give me Astra cigarettes.&quot;</text>
</g>
<!-- 58 -->
<g id="node58" class="node">
<title>58</title>
<ellipse fill="none" stroke="black" cx="480.6" cy="-738" rx="144.5" ry="18"/>
<text text-anchor="middle" x="480.6" y="-732.95" font-family="Times New Roman,serif" font-size="14.00">Frittte clerk: &quot;Here you go, mister.&quot;</text>
</g>
<!-- 22&#45;&gt;58 -->
<g id="edge28" class="edge">
<title>22&#45;&gt;58</title>
<path fill="none" stroke="black" d="M483.61,-791.7C483.19,-784.41 482.7,-775.73 482.23,-767.54"/>
<polygon fill="black" stroke="black" points="485.73,-767.4 481.66,-757.62 478.74,-767.8 485.73,-767.4"/>
</g>
<!-- 24 -->
<g id="node25" class="node">
<title>24</title>
<polygon fill="none" stroke="black" points="1161.6,-1764 921.78,-1746 1161.6,-1728 1401.42,-1746 1161.6,-1764"/>
<text text-anchor="middle" x="1161.6" y="-1740.95" font-family="Times New Roman,serif" font-size="14.00">Variable[&quot;gates.frittte_vice_hub_reached&quot;]</text>
</g>
<!-- 23&#45;&gt;24 -->
<g id="edge29" class="edge">
<title>23&#45;&gt;24</title>
<path fill="none" stroke="black" d="M1357.13,-1800.68C1316.55,-1789.54 1262.98,-1774.83 1222.16,-1763.63"/>
<polygon fill="black" stroke="black" points="1223.31,-1760.31 1212.74,-1761.04 1221.46,-1767.06 1223.31,-1760.31"/>
</g>
<!-- 25 -->
<g id="node26" class="node">
<title>25</title>
<polygon fill="none" stroke="black" points="1702.6,-1764 1449.75,-1746 1702.6,-1728 1955.45,-1746 1702.6,-1764"/>
<text text-anchor="middle" x="1702.6" y="-1740.95" font-family="Times New Roman,serif" font-size="14.00">!(Variable[&quot;gates.frittte_vice_hub_reached&quot;])</text>
</g>
<!-- 23&#45;&gt;25 -->
<g id="edge30" class="edge">
<title>23&#45;&gt;25</title>
<path fill="none" stroke="black" d="M1482.21,-1800.94C1528.37,-1789.64 1589.93,-1774.57 1636.26,-1763.24"/>
<polygon fill="black" stroke="black" points="1637.04,-1766.65 1645.92,-1760.87 1635.37,-1759.85 1637.04,-1766.65"/>
</g>
<!-- 24&#45;&gt;6 -->
<g id="edge31" class="edge">
<title>24&#45;&gt;6</title>
<path fill="none" stroke="black" d="M1134.91,-1729.53C1091.87,-1704.58 1006.85,-1655.31 956.56,-1626.16"/>
<polygon fill="black" stroke="black" points="958.4,-1623.18 947.99,-1621.19 954.89,-1629.24 958.4,-1623.18"/>
</g>
<!-- 39 -->
<g id="node40" class="node">
<title>39</title>
<ellipse fill="none" stroke="black" cx="1825.6" cy="-1674" rx="603.59" ry="18"/>
<text text-anchor="middle" x="1825.6" y="-1668.95" font-family="Times New Roman,serif" font-size="14.00">Perception (Sight): The bottles wink at you in the light. The smokes too glitter in their wrapping. It&#39;s like looking into a kind of heaven. Your knees are weak...</text>
</g>
<!-- 25&#45;&gt;39 -->
<g id="edge32" class="edge">
<title>25&#45;&gt;39</title>
<path fill="none" stroke="black" d="M1729.89,-1729.46C1746.06,-1720.26 1766.85,-1708.43 1784.92,-1698.15"/>
<polygon fill="black" stroke="black" points="1786.64,-1701.2 1793.6,-1693.21 1783.18,-1695.11 1786.64,-1701.2"/>
</g>
<!-- 26 -->
<g id="node27" class="node">
<title>26</title>
<ellipse fill="none" stroke="black" cx="1036.6" cy="-810" rx="62.61" ry="18"/>
<text text-anchor="middle" x="1036.6" y="-804.95" font-family="Times New Roman,serif" font-size="14.00">You: [Leave.]</text>
</g>
<!-- 27&#45;&gt;46 -->
<g id="edge33" class="edge">
<title>27&#45;&gt;46</title>
<path fill="none" stroke="black" d="M872.59,-679.66C897.99,-687.4 923.79,-699.89 941.6,-720 974.13,-756.75 929.15,-794.05 964.6,-828 995.63,-857.72 1104.51,-870.88 1185.63,-876.64"/>
<polygon fill="black" stroke="black" points="1185.15,-880.11 1195.37,-877.3 1185.63,-873.13 1185.15,-880.11"/>
</g>
<!-- 28 -->
<g id="node29" class="node">
<title>28</title>
<ellipse fill="none" stroke="black" cx="2043.6" cy="-1314" rx="276.04" ry="18"/>
<text text-anchor="middle" x="2043.6" y="-1308.95" font-family="Times New Roman,serif" font-size="14.00">Electrochemistry: Good thing you&#39;re an *unrecovering* alcoholic then!</text>
</g>
<!-- 28&#45;&gt;19 -->
<g id="edge34" class="edge">
<title>28&#45;&gt;19</title>
<path fill="none" stroke="black" d="M2097.41,-1295.88C2127.93,-1286.17 2166.33,-1273.95 2198.53,-1263.7"/>
<polygon fill="black" stroke="black" points="2199.28,-1267.14 2207.75,-1260.77 2197.16,-1260.47 2199.28,-1267.14"/>
</g>
<!-- 29&#45;&gt;2 -->
<g id="edge35" class="edge">
<title>29&#45;&gt;2</title>
<path fill="none" stroke="black" d="M3252.92,-575.7C3260.13,-567.56 3268.87,-557.69 3276.83,-548.7"/>
<polygon fill="black" stroke="black" points="3279.43,-551.04 3283.44,-541.24 3274.19,-546.4 3279.43,-551.04"/>
</g>
<!-- 30 -->
<g id="node31" class="node">
<title>30</title>
<ellipse fill="none" stroke="black" cx="779.6" cy="-810" rx="137.85" ry="18"/>
<text text-anchor="middle" x="779.6" y="-804.95" font-family="Times New Roman,serif" font-size="14.00">You: &quot;Give me pale&#45;aged vodka.&quot;</text>
</g>
<!-- 30&#45;&gt;16 -->
<g id="edge36" class="edge">
<title>30&#45;&gt;16</title>
<path fill="none" stroke="black" d="M781.57,-791.7C782.41,-784.41 783.4,-775.73 784.34,-767.54"/>
<polygon fill="black" stroke="black" points="787.81,-767.94 785.47,-757.61 780.86,-767.15 787.81,-767.94"/>
</g>
<!-- 31&#45;&gt;27 -->
<g id="edge37" class="edge">
<title>31&#45;&gt;27</title>
<path fill="none" stroke="black" d="M277.41,-725.17C389.43,-712.39 566.96,-692.15 680.32,-679.23"/>
<polygon fill="black" stroke="black" points="680.38,-682.75 689.92,-678.14 679.59,-675.79 680.38,-682.75"/>
</g>
<!-- 32 -->
<g id="node33" class="node">
<title>32</title>
<ellipse fill="none" stroke="black" cx="2302.6" cy="-306" rx="149.11" ry="18"/>
<text text-anchor="middle" x="2302.6" y="-300.95" font-family="Times New Roman,serif" font-size="14.00">Variable[&quot;tc.turn_off_tutorial_node&quot;]</text>
</g>
<!-- 33 -->
<g id="node34" class="node">
<title>33</title>
<polygon fill="none" stroke="black" points="2302.6,-180 2091.73,-162 2302.6,-144 2513.47,-162 2302.6,-180"/>
<text text-anchor="middle" x="2302.6" y="-156.95" font-family="Times New Roman,serif" font-size="14.00">Variable[&quot;tc.turn_off_tutorial_node&quot;]</text>
</g>
<!-- 32&#45;&gt;33 -->
<g id="edge38" class="edge">
<title>32&#45;&gt;33</title>
<path fill="none" stroke="black" d="M2302.6,-287.59C2302.6,-263.61 2302.6,-220.14 2302.6,-191.42"/>
<polygon fill="black" stroke="black" points="2306.1,-191.62 2302.6,-181.62 2299.1,-191.62 2306.1,-191.62"/>
</g>
<!-- 34 -->
<g id="node35" class="node">
<title>34</title>
<polygon fill="none" stroke="black" points="1589.6,-252 1365.7,-234 1589.6,-216 1813.49,-234 1589.6,-252"/>
<text text-anchor="middle" x="1589.6" y="-228.95" font-family="Times New Roman,serif" font-size="14.00">!(Variable[&quot;tc.turn_off_tutorial_node&quot;])</text>
</g>
<!-- 32&#45;&gt;34 -->
<g id="edge39" class="edge">
<title>32&#45;&gt;34</title>
<path fill="none" stroke="black" d="M2189.62,-293.91C2055.03,-280.69 1831.73,-258.77 1698.82,-245.72"/>
<polygon fill="black" stroke="black" points="1699.23,-242.25 1688.94,-244.75 1698.55,-249.21 1699.23,-242.25"/>
</g>
<!-- 33&#45;&gt;11 -->
<g id="edge40" class="edge">
<title>33&#45;&gt;11</title>
<path fill="none" stroke="black" d="M2251.43,-147.9C2172.14,-128.13 2014.55,-90.98 1878.6,-72 1664.35,-42.09 1413.18,-28.69 1262.68,-22.96"/>
<polygon fill="black" stroke="black" points="1263.21,-19.48 1253.08,-22.6 1262.95,-26.48 1263.21,-19.48"/>
</g>
<!-- 56 -->
<g id="node56" class="node">
<title>56</title>
<ellipse fill="none" stroke="black" cx="1128.6" cy="-162" rx="944.97" ry="18"/>
<text text-anchor="middle" x="1128.6" y="-156.95" font-family="Times New Roman,serif" font-size="14.00">Tutorial Agent: Substances give powerful bonuses to your main stats, at the cost of damage to your Health or Morale. CIGARETTES raise your INTELLECT while damaging your Health, ALCOHOL raises PHYSIQUE while damaging your Morale.</text>
</g>
<!-- 34&#45;&gt;56 -->
<g id="edge41" class="edge">
<title>34&#45;&gt;56</title>
<path fill="none" stroke="black" d="M1514.25,-221.56C1443.83,-210.87 1337.36,-194.7 1254.12,-182.06"/>
<polygon fill="black" stroke="black" points="1254.7,-178.61 1244.29,-180.57 1253.65,-185.53 1254.7,-178.61"/>
</g>
<!-- 35 -->
<g id="node36" class="node">
<title>35</title>
<ellipse fill="none" stroke="black" cx="1210.6" cy="-738" rx="144.5" ry="18"/>
<text text-anchor="middle" x="1210.6" y="-732.95" font-family="Times New Roman,serif" font-size="14.00">Frittte clerk: &quot;Here you go, mister.&quot;</text>
</g>
<!-- 35&#45;&gt;27 -->
<g id="edge42" class="edge">
<title>35&#45;&gt;27</title>
<path fill="none" stroke="black" d="M1126.01,-723C1054.46,-711.16 952.16,-694.23 878.8,-682.09"/>
<polygon fill="black" stroke="black" points="879.67,-678.69 869.23,-680.51 878.52,-685.59 879.67,-678.69"/>
</g>
<!-- 36&#45;&gt;3 -->
<g id="edge43" class="edge">
<title>36&#45;&gt;3</title>
<path fill="none" stroke="black" d="M2767.52,-436C2696.49,-425.14 2594.39,-409.54 2514.97,-397.4"/>
<polygon fill="black" stroke="black" points="2515.83,-393.99 2505.42,-395.94 2514.77,-400.91 2515.83,-393.99"/>
</g>
<!-- 37 -->
<g id="node38" class="node">
<title>37</title>
<ellipse fill="none" stroke="black" cx="1845.6" cy="-810" rx="189.03" ry="18"/>
<text text-anchor="middle" x="1845.6" y="-804.95" font-family="Times New Roman,serif" font-size="14.00">You: &quot;Do you sell speed at this establishment?&quot;</text>
</g>
<!-- 60 -->
<g id="node60" class="node">
<title>60</title>
<ellipse fill="none" stroke="black" cx="1966.6" cy="-738" rx="431.11" ry="18"/>
<text text-anchor="middle" x="1966.6" y="-732.95" font-family="Times New Roman,serif" font-size="14.00">Frittte clerk: &quot;... Huh? Speed, like... *speed* speed? No, Frittte doesn&#39;t do that...&quot; She blinks at you, bewildered.</text>
</g>
<!-- 37&#45;&gt;60 -->
<g id="edge44" class="edge">
<title>37&#45;&gt;60</title>
<path fill="none" stroke="black" d="M1875.2,-791.88C1890.75,-782.88 1910.04,-771.72 1926.88,-761.98"/>
<polygon fill="black" stroke="black" points="1928.25,-765.23 1935.15,-757.19 1924.74,-759.17 1928.25,-765.23"/>
</g>
<!-- 50 -->
<g id="node50" class="node">
<title>50</title>
<ellipse fill="none" stroke="black" cx="3259.6" cy="-378" rx="420.37" ry="18"/>
<text text-anchor="middle" x="3259.6" y="-372.95" font-family="Times New Roman,serif" font-size="14.00">Frittte clerk: &quot;I mean, I already said it&#39;d hurt you? I don&#39;t know what else they do.&quot; She stares at &#160;you, unsure.</text>
</g>
<!-- 38&#45;&gt;50 -->
<g id="edge45" class="edge">
<title>38&#45;&gt;50</title>
<path fill="none" stroke="black" d="M3289.71,-431.7C3285.25,-423.9 3279.89,-414.51 3274.93,-405.83"/>
<polygon fill="black" stroke="black" points="3278.12,-404.36 3270.12,-397.42 3272.04,-407.84 3278.12,-404.36"/>
</g>
<!-- 55 -->
<g id="node55" class="node">
<title>55</title>
<ellipse fill="none" stroke="black" cx="2025.6" cy="-1602" rx="594.38" ry="18"/>
<text text-anchor="middle" x="2025.6" y="-1596.95" font-family="Times New Roman,serif" font-size="14.00">Electrochemistry: There, in that dark green glass, a world of ruby, all in vain! The great flowing river of warmth: Wine&#45;alcohol. Beer&#45;alcohol. Love&#45;alcohol.</text>
</g>
<!-- 39&#45;&gt;55 -->
<g id="edge46" class="edge">
<title>39&#45;&gt;55</title>
<path fill="none" stroke="black" d="M1875.29,-1655.61C1902.48,-1646.09 1936.37,-1634.23 1965.08,-1624.18"/>
<polygon fill="black" stroke="black" points="1966.1,-1627.53 1974.38,-1620.93 1963.79,-1620.93 1966.1,-1627.53"/>
</g>
<!-- 40 -->
<g id="node41" class="node">
<title>40</title>
<ellipse fill="none" stroke="black" cx="1904.6" cy="-1098" rx="126.08" ry="18"/>
<text text-anchor="middle" x="1904.6" y="-1092.95" font-family="Times New Roman,serif" font-size="14.00">Variable[&quot;TASK.get_a_drink&quot;]</text>
</g>
<!-- 41 -->
<g id="node42" class="node">
<title>41</title>
<polygon fill="none" stroke="black" points="1904.6,-1044 1726.3,-1026 1904.6,-1008 2082.89,-1026 1904.6,-1044"/>
<text text-anchor="middle" x="1904.6" y="-1020.95" font-family="Times New Roman,serif" font-size="14.00">Variable[&quot;TASK.get_a_drink&quot;]</text>
</g>
<!-- 40&#45;&gt;41 -->
<g id="edge47" class="edge">
<title>40&#45;&gt;41</title>
<path fill="none" stroke="black" d="M1904.6,-1079.7C1904.6,-1072.41 1904.6,-1063.73 1904.6,-1055.54"/>
<polygon fill="black" stroke="black" points="1908.1,-1055.62 1904.6,-1045.62 1901.1,-1055.62 1908.1,-1055.62"/>
</g>
<!-- 42 -->
<g id="node43" class="node">
<title>42</title>
<polygon fill="none" stroke="black" points="1279.6,-972 1088.27,-954 1279.6,-936 1470.92,-954 1279.6,-972"/>
<text text-anchor="middle" x="1279.6" y="-948.95" font-family="Times New Roman,serif" font-size="14.00">!(Variable[&quot;TASK.get_a_drink&quot;])</text>
</g>
<!-- 40&#45;&gt;42 -->
<g id="edge48" class="edge">
<title>40&#45;&gt;42</title>
<path fill="none" stroke="black" d="M1839.48,-1082.21C1719.54,-1054.95 1465.01,-997.13 1344.92,-969.84"/>
<polygon fill="black" stroke="black" points="1345.73,-966.44 1335.2,-967.63 1344.18,-973.26 1345.73,-966.44"/>
</g>
<!-- 41&#45;&gt;17 -->
<g id="edge49" class="edge">
<title>41&#45;&gt;17</title>
<path fill="none" stroke="black" d="M1904.6,-1007.7C1904.6,-1000.41 1904.6,-991.73 1904.6,-983.54"/>
<polygon fill="black" stroke="black" points="1908.1,-983.62 1904.6,-973.62 1901.1,-983.62 1908.1,-983.62"/>
</g>
<!-- 42&#45;&gt;46 -->
<g id="edge50" class="edge">
<title>42&#45;&gt;46</title>
<path fill="none" stroke="black" d="M1279.6,-935.7C1279.6,-928.41 1279.6,-919.73 1279.6,-911.54"/>
<polygon fill="black" stroke="black" points="1283.1,-911.62 1279.6,-901.62 1276.1,-911.62 1283.1,-911.62"/>
</g>
<!-- 44&#45;&gt;45 -->
<g id="edge51" class="edge">
<title>44&#45;&gt;45</title>
<path fill="none" stroke="black" d="M2980.8,-1295.69C2932.09,-1274.81 2845.45,-1240.46 2767.6,-1224 2651.16,-1199.37 2521.41,-1185.9 2406.48,-1178.62"/>
<polygon fill="black" stroke="black" points="2406.75,-1175.13 2396.56,-1178.01 2406.32,-1182.12 2406.75,-1175.13"/>
</g>
<!-- 45&#45;&gt;40 -->
<g id="edge52" class="edge">
<title>45&#45;&gt;40</title>
<path fill="none" stroke="black" d="M2039.35,-1151.7C2014.42,-1141.95 1983.13,-1129.71 1956.98,-1119.48"/>
<polygon fill="black" stroke="black" points="1958.49,-1116.32 1947.9,-1115.93 1955.94,-1122.84 1958.49,-1116.32"/>
</g>
<!-- 46&#45;&gt;21 -->
<g id="edge55" class="edge">
<title>46&#45;&gt;21</title>
<path fill="none" stroke="black" d="M1196.37,-877.7C1032.55,-870.89 656.77,-853.74 341.6,-828 327.6,-826.86 312.92,-825.5 298.38,-824.06"/>
<polygon fill="black" stroke="black" points="299.1,-820.62 288.8,-823.1 298.4,-827.58 299.1,-820.62"/>
</g>
<!-- 46&#45;&gt;22 -->
<g id="edge56" class="edge">
<title>46&#45;&gt;22</title>
<path fill="none" stroke="black" d="M1199.84,-875.31C1077.63,-866.4 836.73,-848.08 632.6,-828 620.06,-826.77 606.93,-825.39 593.89,-823.96"/>
<polygon fill="black" stroke="black" points="594.3,-820.48 583.97,-822.86 593.53,-827.44 594.3,-820.48"/>
</g>
<!-- 46&#45;&gt;26 -->
<g id="edge58" class="edge">
<title>46&#45;&gt;26</title>
<path fill="none" stroke="black" d="M1230.71,-866.92C1190.13,-855.23 1132.47,-838.62 1090.54,-826.54"/>
<polygon fill="black" stroke="black" points="1091.74,-823.24 1081.16,-823.84 1089.8,-829.97 1091.74,-823.24"/>
</g>
<!-- 46&#45;&gt;30 -->
<g id="edge57" class="edge">
<title>46&#45;&gt;30</title>
<path fill="none" stroke="black" d="M1210.07,-871.27C1124.94,-859.35 980.02,-839.06 882.09,-825.35"/>
<polygon fill="black" stroke="black" points="882.87,-821.92 872.49,-824 881.9,-828.86 882.87,-821.92"/>
</g>
<!-- 46&#45;&gt;37 -->
<g id="edge53" class="edge">
<title>46&#45;&gt;37</title>
<path fill="none" stroke="black" d="M1351.57,-872.1C1444.86,-860.56 1608.97,-840.26 1722.3,-826.25"/>
<polygon fill="black" stroke="black" points="1722.45,-829.76 1731.94,-825.06 1721.59,-822.81 1722.45,-829.76"/>
</g>
<!-- 48 -->
<g id="node48" class="node">
<title>48</title>
<ellipse fill="none" stroke="black" cx="1279.6" cy="-810" rx="161.9" ry="18"/>
<text text-anchor="middle" x="1279.6" y="-804.95" font-family="Times New Roman,serif" font-size="14.00">You: &quot;Give me Commodore Red wine.&quot;</text>
</g>
<!-- 46&#45;&gt;48 -->
<g id="edge54" class="edge">
<title>46&#45;&gt;48</title>
<path fill="none" stroke="black" d="M1279.6,-863.7C1279.6,-856.41 1279.6,-847.73 1279.6,-839.54"/>
<polygon fill="black" stroke="black" points="1283.1,-839.62 1279.6,-829.62 1276.1,-839.62 1283.1,-839.62"/>
</g>
<!-- 61 -->
<g id="node61" class="node">
<title>61</title>
<ellipse fill="none" stroke="black" cx="2617.6" cy="-810" rx="197.73" ry="18"/>
<text text-anchor="middle" x="2617.6" y="-804.95" font-family="Times New Roman,serif" font-size="14.00">You: &quot;Please, tell me more about these products.&quot;</text>
</g>
<!-- 46&#45;&gt;61 -->
<g id="edge59" class="edge">
<title>46&#45;&gt;61</title>
<path fill="none" stroke="black" d="M1361.53,-876.71C1573.71,-865.61 2144.95,-835.73 2438.32,-820.38"/>
<polygon fill="black" stroke="black" points="2438.19,-823.89 2447.99,-819.87 2437.82,-816.9 2438.19,-823.89"/>
</g>
<!-- 62 -->
<g id="node62" class="node">
<title>62</title>
<ellipse fill="none" stroke="black" cx="3505.6" cy="-810" rx="198.75" ry="18"/>
<text text-anchor="middle" x="3505.6" y="-804.95" font-family="Times New Roman,serif" font-size="14.00">You: &quot;Do you sell any... under the counter vices?&quot;</text>
</g>
<!-- 46&#45;&gt;62 -->
<g id="edge60" class="edge">
<title>46&#45;&gt;62</title>
<path fill="none" stroke="black" d="M1363.47,-878.36C1684.87,-868.26 2843.26,-831.83 3309.34,-817.17"/>
<polygon fill="black" stroke="black" points="3309.16,-820.68 3319.04,-816.87 3308.94,-813.68 3309.16,-820.68"/>
</g>
<!-- 47&#45;&gt;46 -->
<g id="edge61" class="edge">
<title>47&#45;&gt;46</title>
<path fill="none" stroke="black" d="M1684.73,-389.57C1605.54,-404.16 1507.6,-438.82 1507.6,-521 1507.6,-739 1507.6,-739 1507.6,-739 1507.6,-779.97 1512.7,-799.16 1483.6,-828 1465.71,-845.72 1408.12,-859.7 1358.67,-868.85"/>
<polygon fill="black" stroke="black" points="1358.33,-865.35 1349.1,-870.57 1359.57,-872.24 1358.33,-865.35"/>
</g>
<!-- 48&#45;&gt;35 -->
<g id="edge62" class="edge">
<title>48&#45;&gt;35</title>
<path fill="none" stroke="black" d="M1262.54,-791.7C1254.35,-783.39 1244.38,-773.28 1235.38,-764.14"/>
<polygon fill="black" stroke="black" points="1238.03,-761.85 1228.52,-757.18 1233.05,-766.76 1238.03,-761.85"/>
</g>
<!-- 49 -->
<g id="node49" class="node">
<title>49</title>
<ellipse fill="none" stroke="black" cx="4198.6" cy="-666" rx="126.59" ry="18"/>
<text text-anchor="middle" x="4198.6" y="-660.95" font-family="Times New Roman,serif" font-size="14.00">Jump to: [alcohol smokes hub]</text>
</g>
<!-- 49&#45;&gt;46 -->
<g id="edge63" class="edge">
<title>49&#45;&gt;46</title>
<path fill="none" stroke="black" d="M4292.69,-678.35C4361.52,-690.36 4436.74,-713.64 4398.6,-756 4295.02,-871.03 1891.3,-880.3 1376.2,-880.96"/>
<polygon fill="black" stroke="black" points="1376.26,-877.46 1366.26,-880.98 1376.27,-884.46 1376.26,-877.46"/>
</g>
<!-- 50&#45;&gt;32 -->
<g id="edge64" class="edge">
<title>50&#45;&gt;32</title>
<path fill="none" stroke="black" d="M3053.12,-361.9C2867.19,-348.3 2599.2,-328.7 2438.83,-316.97"/>
<polygon fill="black" stroke="black" points="2439.21,-313.48 2428.99,-316.24 2438.7,-320.47 2439.21,-313.48"/>
</g>
<!-- 64 -->
<g id="node64" class="node">
<title>64</title>
<ellipse fill="none" stroke="black" cx="1227.6" cy="-1386" rx="492.02" ry="18"/>
<text text-anchor="middle" x="1227.6" y="-1380.95" font-family="Times New Roman,serif" font-size="14.00">Frittte clerk: &quot;Um... Sure. If you want something, I can get it for you. Just let me know and pay and stuff...&quot; She adjusts her hat.</text>
</g>
<!-- 51&#45;&gt;64 -->
<g id="edge65" class="edge">
<title>51&#45;&gt;64</title>
<path fill="none" stroke="black" d="M1413.62,-1440.59C1379.15,-1430.66 1334.92,-1417.91 1298.23,-1407.35"/>
<polygon fill="black" stroke="black" points="1299.64,-1404.11 1289.06,-1404.7 1297.7,-1410.84 1299.64,-1404.11"/>
</g>
<!-- 52 -->
<g id="node52" class="node">
<title>52</title>
<ellipse fill="none" stroke="black" cx="2075.6" cy="-666" rx="58.52" ry="18"/>
<text text-anchor="middle" x="2075.6" y="-660.95" font-family="Times New Roman,serif" font-size="14.00">IsKimHere()</text>
</g>
<!-- 53 -->
<g id="node53" class="node">
<title>53</title>
<polygon fill="none" stroke="black" points="2075.6,-612 1992.84,-594 2075.6,-576 2158.35,-594 2075.6,-612"/>
<text text-anchor="middle" x="2075.6" y="-588.95" font-family="Times New Roman,serif" font-size="14.00">IsKimHere()</text>
</g>
<!-- 52&#45;&gt;53 -->
<g id="edge66" class="edge">
<title>52&#45;&gt;53</title>
<path fill="none" stroke="black" d="M2075.6,-647.7C2075.6,-640.41 2075.6,-631.73 2075.6,-623.54"/>
<polygon fill="black" stroke="black" points="2079.1,-623.62 2075.6,-613.62 2072.1,-623.62 2079.1,-623.62"/>
</g>
<!-- 54 -->
<g id="node54" class="node">
<title>54</title>
<polygon fill="none" stroke="black" points="2728.6,-540 2632.81,-522 2728.6,-504 2824.38,-522 2728.6,-540"/>
<text text-anchor="middle" x="2728.6" y="-516.95" font-family="Times New Roman,serif" font-size="14.00">!(IsKimHere())</text>
</g>
<!-- 52&#45;&gt;54 -->
<g id="edge67" class="edge">
<title>52&#45;&gt;54</title>
<path fill="none" stroke="black" d="M2122.3,-654.84C2240.05,-629.24 2548.63,-562.13 2674.23,-534.82"/>
<polygon fill="black" stroke="black" points="2674.94,-538.25 2683.97,-532.7 2673.46,-531.41 2674.94,-538.25"/>
</g>
<!-- 53&#45;&gt;5 -->
<g id="edge68" class="edge">
<title>53&#45;&gt;5</title>
<path fill="none" stroke="black" d="M2075.6,-575.7C2075.6,-568.41 2075.6,-559.73 2075.6,-551.54"/>
<polygon fill="black" stroke="black" points="2079.1,-551.62 2075.6,-541.62 2072.1,-551.62 2079.1,-551.62"/>
</g>
<!-- 54&#45;&gt;20 -->
<g id="edge69" class="edge">
<title>54&#45;&gt;20</title>
<path fill="none" stroke="black" d="M2680.8,-512.51C2663.17,-509.56 2643.01,-506.39 2624.6,-504 2505.49,-488.53 2371.31,-475.5 2265.41,-466.23"/>
<polygon fill="black" stroke="black" points="2265.72,-462.74 2255.46,-465.36 2265.12,-469.72 2265.72,-462.74"/>
</g>
<!-- 55&#45;&gt;15 -->
<g id="edge70" class="edge">
<title>55&#45;&gt;15</title>
<path fill="none" stroke="black" d="M2037.21,-1583.7C2042.51,-1575.81 2048.89,-1566.3 2054.77,-1557.55"/>
<polygon fill="black" stroke="black" points="2057.6,-1559.61 2060.27,-1549.36 2051.79,-1555.71 2057.6,-1559.61"/>
</g>
<!-- 56&#45;&gt;18 -->
<g id="edge71" class="edge">
<title>56&#45;&gt;18</title>
<path fill="none" stroke="black" d="M1128.6,-143.7C1128.6,-136.41 1128.6,-127.73 1128.6,-119.54"/>
<polygon fill="black" stroke="black" points="1132.1,-119.62 1128.6,-109.62 1125.1,-119.62 1132.1,-119.62"/>
</g>
<!-- 57 -->
<g id="node57" class="node">
<title>57</title>
<ellipse fill="none" stroke="black" cx="2120.6" cy="-1386" rx="382.49" ry="18"/>
<text text-anchor="middle" x="2120.6" y="-1380.95" font-family="Times New Roman,serif" font-size="14.00">Frittte clerk: &quot;Um... Guess not, no.&quot; She looks at the wall of goods behind her, then adjusts her hat.</text>
</g>
<!-- 57&#45;&gt;28 -->
<g id="edge72" class="edge">
<title>57&#45;&gt;28</title>
<path fill="none" stroke="black" d="M2101.56,-1367.7C2092.4,-1359.37 2081.24,-1349.22 2071.17,-1340.07"/>
<polygon fill="black" stroke="black" points="2073.55,-1337.5 2063.8,-1333.37 2068.84,-1342.68 2073.55,-1337.5"/>
</g>
<!-- 58&#45;&gt;27 -->
<g id="edge73" class="edge">
<title>58&#45;&gt;27</title>
<path fill="none" stroke="black" d="M547.97,-721.64C596.21,-710.64 661.24,-695.81 711.38,-684.38"/>
<polygon fill="black" stroke="black" points="712.04,-687.82 721.01,-682.18 710.48,-680.99 712.04,-687.82"/>
</g>
<!-- 59 -->
<g id="node59" class="node">
<title>59</title>
<ellipse fill="none" stroke="black" cx="3979.6" cy="-738" rx="409.62" ry="18"/>
<text text-anchor="middle" x="3979.6" y="-732.95" font-family="Times New Roman,serif" font-size="14.00">Frittte clerk: &quot;No.&quot; She fixes her hair underneath her cap. &quot;Frittte only sells legal drugs, like the law says.&quot;</text>
</g>
<!-- 59&#45;&gt;49 -->
<g id="edge74" class="edge">
<title>59&#45;&gt;49</title>
<path fill="none" stroke="black" d="M4033.73,-719.7C4065.37,-709.58 4105.37,-696.8 4138.05,-686.35"/>
<polygon fill="black" stroke="black" points="4138.93,-689.75 4147.39,-683.37 4136.8,-683.08 4138.93,-689.75"/>
</g>
<!-- 60&#45;&gt;52 -->
<g id="edge75" class="edge">
<title>60&#45;&gt;52</title>
<path fill="none" stroke="black" d="M1993.54,-719.7C2008.16,-710.31 2026.37,-698.62 2041.91,-688.63"/>
<polygon fill="black" stroke="black" points="2043.4,-691.84 2049.92,-683.49 2039.62,-685.95 2043.4,-691.84"/>
</g>
<!-- 61&#45;&gt;13 -->
<g id="edge76" class="edge">
<title>61&#45;&gt;13</title>
<path fill="none" stroke="black" d="M2700.19,-793.2C2754.15,-782.88 2824.98,-769.34 2882.33,-758.37"/>
<polygon fill="black" stroke="black" points="2882.96,-761.81 2892.13,-756.49 2881.65,-754.94 2882.96,-761.81"/>
</g>
<!-- 62&#45;&gt;59 -->
<g id="edge77" class="edge">
<title>62&#45;&gt;59</title>
<path fill="none" stroke="black" d="M3606.7,-794.07C3679.26,-783.35 3777.49,-768.85 3854.92,-757.41"/>
<polygon fill="black" stroke="black" points="3855.31,-760.89 3864.69,-755.97 3854.28,-753.97 3855.31,-760.89"/>
</g>
<!-- 63&#45;&gt;57 -->
<g id="edge78" class="edge">
<title>63&#45;&gt;57</title>
<path fill="none" stroke="black" d="M2084.46,-1439.7C2089.87,-1431.81 2096.39,-1422.3 2102.39,-1413.55"/>
<polygon fill="black" stroke="black" points="2105.24,-1415.58 2108.01,-1405.35 2099.47,-1411.62 2105.24,-1415.58"/>
</g>
<!-- 64&#45;&gt;4 -->
<g id="edge79" class="edge">
<title>64&#45;&gt;4</title>
<path fill="none" stroke="black" d="M1229.19,-1367.59C1231.39,-1343.61 1235.37,-1300.14 1238,-1271.42"/>
<polygon fill="black" stroke="black" points="1241.47,-1271.9 1238.89,-1261.62 1234.5,-1271.26 1241.47,-1271.9"/>
</g>
</g>
</svg>
