<?xml version="1.0" encoding="UTF-8" standalone="no"?>
<!DOCTYPE svg PUBLIC "-//W3C//DTD SVG 1.1//EN"
 "http://www.w3.org/Graphics/SVG/1.1/DTD/svg11.dtd">
<!-- Generated by graphviz version 12.2.1 (20241206.2353)
 -->
<!-- Title: G Pages: 1 -->
<svg width="446pt" height="116pt"
 viewBox="0.00 0.00 446.45 116.00" xmlns="http://www.w3.org/2000/svg" xmlns:xlink="http://www.w3.org/1999/xlink">
<g id="graph0" class="graph" transform="scale(1 1) rotate(0) translate(4 112)">
<title>G</title>
<polygon fill="white" stroke="none" points="-4,4 -4,-112 442.45,-112 442.45,4 -4,4"/>
<!-- 0 -->
<g id="node1" class="node">
<title>0</title>
<ellipse fill="none" stroke="black" cx="114.22" cy="-90" rx="39.07" ry="18"/>
<text text-anchor="middle" x="114.22" y="-84.95" font-family="Times New Roman,serif" font-size="14.00">START</text>
</g>
<!-- 0&#45;&gt;0 -->
<g id="edge1" class="edge">
<title>0&#45;&gt;0</title>
<path fill="none" stroke="black" d="M142.41,-102.94C157.52,-105.14 171.29,-100.83 171.29,-90 171.29,-81.96 163.71,-77.52 153.62,-76.65"/>
<polygon fill="black" stroke="black" points="153.79,-73.15 143.93,-77 154.04,-80.14 153.79,-73.15"/>
</g>
<!-- 1 -->
<g id="node2" class="node">
<title>1</title>
<ellipse fill="none" stroke="black" cx="219.22" cy="-90" rx="29.86" ry="18"/>
<text text-anchor="middle" x="219.22" y="-84.95" font-family="Times New Roman,serif" font-size="14.00">input</text>
</g>
<!-- 2 -->
<g id="node3" class="node">
<title>2</title>
<ellipse fill="none" stroke="black" cx="219.22" cy="-18" rx="219.22" ry="18"/>
<text text-anchor="middle" x="219.22" y="-12.95" font-family="Times New Roman,serif" font-size="14.00">Judit Minot: &quot;Harry, we&#39;re here because we&#39;re worried.&quot;</text>
</g>
<!-- 1&#45;&gt;2 -->
<g id="edge2" class="edge">
<title>1&#45;&gt;2</title>
<path fill="none" stroke="black" d="M219.22,-71.7C219.22,-64.41 219.22,-55.73 219.22,-47.54"/>
<polygon fill="black" stroke="black" points="222.72,-47.62 219.22,-37.62 215.72,-47.62 222.72,-47.62"/>
</g>
</g>
</svg>
