<?xml version="1.0" encoding="UTF-8" standalone="no"?>
<!DOCTYPE svg PUBLIC "-//W3C//DTD SVG 1.1//EN"
 "http://www.w3.org/Graphics/SVG/1.1/DTD/svg11.dtd">
<!-- Generated by graphviz version 12.2.1 (20241206.2353)
 -->
<!-- Title: G Pages: 1 -->
<svg width="3460pt" height="188pt"
 viewBox="0.00 0.00 3460.28 188.00" xmlns="http://www.w3.org/2000/svg" xmlns:xlink="http://www.w3.org/1999/xlink">
<g id="graph0" class="graph" transform="scale(1 1) rotate(0) translate(4 184)">
<title>G</title>
<polygon fill="white" stroke="none" points="-4,4 -4,-184 3456.28,-184 3456.28,4 -4,4"/>
<!-- 0 -->
<g id="node1" class="node">
<title>0</title>
<ellipse fill="none" stroke="black" cx="1891.28" cy="-162" rx="39.07" ry="18"/>
<text text-anchor="middle" x="1891.28" y="-156.95" font-family="Times New Roman,serif" font-size="14.00">START</text>
</g>
<!-- 1 -->
<g id="node2" class="node">
<title>1</title>
<ellipse fill="none" stroke="black" cx="1891.28" cy="-90" rx="29.86" ry="18"/>
<text text-anchor="middle" x="1891.28" y="-84.95" font-family="Times New Roman,serif" font-size="14.00">input</text>
</g>
<!-- 0&#45;&gt;1 -->
<g id="edge1" class="edge">
<title>0&#45;&gt;1</title>
<path fill="none" stroke="black" d="M1891.28,-143.7C1891.28,-136.41 1891.28,-127.73 1891.28,-119.54"/>
<polygon fill="black" stroke="black" points="1894.78,-119.62 1891.28,-109.62 1887.78,-119.62 1894.78,-119.62"/>
</g>
<!-- 3 -->
<g id="node4" class="node">
<title>3</title>
<ellipse fill="none" stroke="black" cx="178.28" cy="-18" rx="178.28" ry="18"/>
<text text-anchor="middle" x="178.28" y="-12.95" font-family="Times New Roman,serif" font-size="14.00">Idiot Doom Spiral: &quot;Gotta ride this one out.&quot;</text>
</g>
<!-- 1&#45;&gt;3 -->
<g id="edge2" class="edge">
<title>1&#45;&gt;3</title>
<path fill="none" stroke="black" d="M1861.13,-88.58C1704.44,-86.27 967.18,-73.78 365.28,-36 348.6,-34.95 331.1,-33.64 313.78,-32.22"/>
<polygon fill="black" stroke="black" points="314.2,-28.74 303.94,-31.39 313.61,-35.72 314.2,-28.74"/>
</g>
<!-- 4 -->
<g id="node5" class="node">
<title>4</title>
<ellipse fill="none" stroke="black" cx="665.28" cy="-18" rx="290.88" ry="18"/>
<text text-anchor="middle" x="665.28" y="-12.95" font-family="Times New Roman,serif" font-size="14.00">Idiot Doom Spiral: &quot;I should definitely start thinking about jogging again.&quot;</text>
</g>
<!-- 1&#45;&gt;4 -->
<g id="edge3" class="edge">
<title>1&#45;&gt;4</title>
<path fill="none" stroke="black" d="M1861.28,-87.29C1729.24,-79.75 1192.83,-49.12 885.1,-31.55"/>
<polygon fill="black" stroke="black" points="885.5,-28.07 875.31,-30.99 885.1,-35.06 885.5,-28.07"/>
</g>
<!-- 5 -->
<g id="node6" class="node">
<title>5</title>
<ellipse fill="none" stroke="black" cx="1131.28" cy="-18" rx="156.78" ry="18"/>
<text text-anchor="middle" x="1131.28" y="-12.95" font-family="Times New Roman,serif" font-size="14.00">Idiot Doom Spiral: &quot;Pass it on, Rosie.&quot;</text>
</g>
<!-- 1&#45;&gt;5 -->
<g id="edge4" class="edge">
<title>1&#45;&gt;5</title>
<path fill="none" stroke="black" d="M1861.6,-86.49C1774.77,-79.12 1513.71,-56.74 1297.28,-36 1283.85,-34.71 1269.82,-33.33 1255.85,-31.93"/>
<polygon fill="black" stroke="black" points="1256.47,-28.48 1246.17,-30.96 1255.77,-35.44 1256.47,-28.48"/>
</g>
<!-- 6 -->
<g id="node7" class="node">
<title>6</title>
<ellipse fill="none" stroke="black" cx="1615.28" cy="-18" rx="309.3" ry="18"/>
<text text-anchor="middle" x="1615.28" y="-12.95" font-family="Times New Roman,serif" font-size="14.00">Idiot Doom Spiral: &quot;But are you *really* cornering the market is the question?&quot;</text>
</g>
<!-- 1&#45;&gt;6 -->
<g id="edge5" class="edge">
<title>1&#45;&gt;6</title>
<path fill="none" stroke="black" d="M1864.06,-82.1C1824.71,-72.12 1750.38,-53.26 1693.18,-38.76"/>
<polygon fill="black" stroke="black" points="1694.36,-35.45 1683.81,-36.38 1692.64,-42.23 1694.36,-35.45"/>
</g>
<!-- 7 -->
<g id="node8" class="node">
<title>7</title>
<ellipse fill="none" stroke="black" cx="2167.28" cy="-18" rx="224.85" ry="18"/>
<text text-anchor="middle" x="2167.28" y="-12.95" font-family="Times New Roman,serif" font-size="14.00">Idiot Doom Spiral: &quot;Not sensing a lot of concept in this.&quot;</text>
</g>
<!-- 1&#45;&gt;7 -->
<g id="edge6" class="edge">
<title>1&#45;&gt;7</title>
<path fill="none" stroke="black" d="M1918.5,-82.1C1958.17,-72.04 2033.39,-52.96 2090.77,-38.4"/>
<polygon fill="black" stroke="black" points="2091.33,-41.87 2100.17,-36.02 2089.61,-35.09 2091.33,-41.87"/>
</g>
<!-- 8 -->
<g id="node9" class="node">
<title>8</title>
<ellipse fill="none" stroke="black" cx="2661.28" cy="-18" rx="250.96" ry="18"/>
<text text-anchor="middle" x="2661.28" y="-12.95" font-family="Times New Roman,serif" font-size="14.00">Idiot Doom Spiral: &quot;Where&#39;s my lighter?! Oh, holding it again.&quot;</text>
</g>
<!-- 1&#45;&gt;8 -->
<g id="edge7" class="edge">
<title>1&#45;&gt;8</title>
<path fill="none" stroke="black" d="M1920.99,-86.3C2014.98,-77.75 2310.67,-50.87 2498.68,-33.78"/>
<polygon fill="black" stroke="black" points="2498.92,-37.27 2508.56,-32.88 2498.28,-30.3 2498.92,-37.27"/>
</g>
<!-- 9 -->
<g id="node10" class="node">
<title>9</title>
<ellipse fill="none" stroke="black" cx="3155.28" cy="-18" rx="224.85" ry="18"/>
<text text-anchor="middle" x="3155.28" y="-12.95" font-family="Times New Roman,serif" font-size="14.00">Idiot Doom Spiral: &quot;It&#39;s a jungle out there... and in here.&quot;</text>
</g>
<!-- 1&#45;&gt;9 -->
<g id="edge8" class="edge">
<title>1&#45;&gt;9</title>
<path fill="none" stroke="black" d="M1921.21,-87.69C2044.58,-82.25 2525.88,-60.53 2921.28,-36 2941.7,-34.73 2963.11,-33.31 2984.34,-31.84"/>
<polygon fill="black" stroke="black" points="2984.52,-35.33 2994.26,-31.15 2984.04,-28.35 2984.52,-35.33"/>
</g>
<!-- 10 -->
<g id="node11" class="node">
<title>10</title>
<ellipse fill="none" stroke="black" cx="3425.28" cy="-18" rx="27" ry="18"/>
<text text-anchor="middle" x="3425.28" y="-12.95" font-family="Times New Roman,serif" font-size="14.00">10</text>
</g>
<!-- 1&#45;&gt;10 -->
<g id="edge9" class="edge">
<title>1&#45;&gt;10</title>
<path fill="none" stroke="black" d="M1921.49,-88.66C2120.69,-86.35 3241.9,-71.8 3389.28,-36 3390.92,-35.6 3392.57,-35.13 3394.22,-34.59"/>
<polygon fill="black" stroke="black" points="3395.45,-37.87 3403.46,-30.94 3392.87,-31.36 3395.45,-37.87"/>
</g>
<!-- 2 -->
<g id="node3" class="node">
<title>2</title>
<ellipse fill="none" stroke="black" cx="2202.28" cy="-162" rx="253.52" ry="18"/>
<text text-anchor="middle" x="2202.28" y="-156.95" font-family="Times New Roman,serif" font-size="14.00">Idiot Doom Spiral: &quot;Don&#39;t sit on it. Keep the hard stuff moving.&quot;</text>
</g>
</g>
</svg>
