<?xml version="1.0" encoding="UTF-8" standalone="no"?>
<!DOCTYPE svg PUBLIC "-//W3C//DTD SVG 1.1//EN"
 "http://www.w3.org/Graphics/SVG/1.1/DTD/svg11.dtd">
<!-- Generated by graphviz version 12.2.1 (20241206.2353)
 -->
<!-- Title: G Pages: 1 -->
<svg width="3942pt" height="116pt"
 viewBox="0.00 0.00 3942.22 116.00" xmlns="http://www.w3.org/2000/svg" xmlns:xlink="http://www.w3.org/1999/xlink">
<g id="graph0" class="graph" transform="scale(1 1) rotate(0) translate(4 112)">
<title>G</title>
<polygon fill="white" stroke="none" points="-4,4 -4,-112 3938.22,-112 3938.22,4 -4,4"/>
<!-- 0 -->
<g id="node1" class="node">
<title>0</title>
<ellipse fill="none" stroke="black" cx="1855.35" cy="-90" rx="39.07" ry="18"/>
<text text-anchor="middle" x="1855.35" y="-84.95" font-family="Times New Roman,serif" font-size="14.00">START</text>
</g>
<!-- 0&#45;&gt;0 -->
<g id="edge1" class="edge">
<title>0&#45;&gt;0</title>
<path fill="none" stroke="black" d="M1883.54,-102.94C1898.65,-105.14 1912.42,-100.83 1912.42,-90 1912.42,-81.96 1904.83,-77.52 1894.75,-76.65"/>
<polygon fill="black" stroke="black" points="1894.92,-73.15 1885.05,-77 1895.17,-80.14 1894.92,-73.15"/>
</g>
<!-- 1 -->
<g id="node2" class="node">
<title>1</title>
<ellipse fill="none" stroke="black" cx="1960.35" cy="-90" rx="29.86" ry="18"/>
<text text-anchor="middle" x="1960.35" y="-84.95" font-family="Times New Roman,serif" font-size="14.00">input</text>
</g>
<!-- 1&#45;&gt;1 -->
<g id="edge2" class="edge">
<title>1&#45;&gt;1</title>
<path fill="none" stroke="black" d="M1982.01,-102.55C1995.43,-105.57 2008.21,-101.39 2008.21,-90 2008.21,-81.99 2001.89,-77.55 1993.47,-76.66"/>
<polygon fill="black" stroke="black" points="1993.25,-73.17 1983.52,-77.35 1993.73,-80.15 1993.25,-73.17"/>
</g>
<!-- 2 -->
<g id="node3" class="node">
<title>2</title>
<ellipse fill="none" stroke="black" cx="246.35" cy="-18" rx="246.35" ry="18"/>
<text text-anchor="middle" x="246.35" y="-12.95" font-family="Times New Roman,serif" font-size="14.00">Lilienne, the Net Picker: &quot;It&#39;s kinda nice seeing cops around...&quot;</text>
</g>
<!-- 1&#45;&gt;2 -->
<g id="edge3" class="edge">
<title>1&#45;&gt;2</title>
<path fill="none" stroke="black" d="M1938.16,-77.58C1932.79,-75.31 1926.97,-73.25 1921.35,-72 1767.26,-37.83 659.01,-43.25 501.35,-36 477.71,-34.91 452.86,-33.54 428.32,-32.05"/>
<polygon fill="black" stroke="black" points="428.77,-28.57 418.58,-31.45 428.34,-35.56 428.77,-28.57"/>
</g>
<!-- 3 -->
<g id="node4" class="node">
<title>3</title>
<ellipse fill="none" stroke="black" cx="800.35" cy="-18" rx="289.85" ry="18"/>
<text text-anchor="middle" x="800.35" y="-12.95" font-family="Times New Roman,serif" font-size="14.00">Lilienne, the Net Picker: &quot;Thought you guys forgot this place even exists.&quot;</text>
</g>
<!-- 1&#45;&gt;3 -->
<g id="edge4" class="edge">
<title>1&#45;&gt;3</title>
<path fill="none" stroke="black" d="M1938.15,-77.66C1932.78,-75.38 1926.96,-73.3 1921.35,-72 1743.22,-30.78 1281.96,-45.19 1099.35,-36 1072.77,-34.66 1044.86,-33.18 1017.21,-31.66"/>
<polygon fill="black" stroke="black" points="1017.5,-28.17 1007.32,-31.12 1017.11,-35.16 1017.5,-28.17"/>
</g>
<!-- 4 -->
<g id="node5" class="node">
<title>4</title>
<ellipse fill="none" stroke="black" cx="1395.35" cy="-18" rx="287.29" ry="18"/>
<text text-anchor="middle" x="1395.35" y="-12.95" font-family="Times New Roman,serif" font-size="14.00">Lilienne, the Net Picker: &quot;I really need to get out there, catch something.&quot;</text>
</g>
<!-- 1&#45;&gt;4 -->
<g id="edge5" class="edge">
<title>1&#45;&gt;4</title>
<path fill="none" stroke="black" d="M1937.68,-77.71C1932.42,-75.5 1926.78,-73.42 1921.35,-72 1861.34,-56.31 1718.08,-42.41 1596.21,-32.79"/>
<polygon fill="black" stroke="black" points="1596.61,-29.31 1586.37,-32.02 1596.06,-36.29 1596.61,-29.31"/>
</g>
<!-- 6 -->
<g id="node7" class="node">
<title>6</title>
<ellipse fill="none" stroke="black" cx="1960.35" cy="-18" rx="259.66" ry="18"/>
<text text-anchor="middle" x="1960.35" y="-12.95" font-family="Times New Roman,serif" font-size="14.00">Lilienne, the Net Picker: &quot;Goddamnit... I *just* bought that net...&quot;</text>
</g>
<!-- 1&#45;&gt;6 -->
<g id="edge6" class="edge">
<title>1&#45;&gt;6</title>
<path fill="none" stroke="black" d="M1960.35,-71.7C1960.35,-64.41 1960.35,-55.73 1960.35,-47.54"/>
<polygon fill="black" stroke="black" points="1963.85,-47.62 1960.35,-37.62 1956.85,-47.62 1963.85,-47.62"/>
</g>
<!-- 7 -->
<g id="node8" class="node">
<title>7</title>
<ellipse fill="none" stroke="black" cx="2449.35" cy="-18" rx="211.55" ry="18"/>
<text text-anchor="middle" x="2449.35" y="-12.95" font-family="Times New Roman,serif" font-size="14.00">Lilienne, the Net Picker: &quot;It&#39;s yellowfin season soon.&quot;</text>
</g>
<!-- 1&#45;&gt;7 -->
<g id="edge7" class="edge">
<title>1&#45;&gt;7</title>
<path fill="none" stroke="black" d="M1985.94,-80.37C1995.68,-77.35 2006.94,-74.18 2017.35,-72 2106.18,-53.44 2206.75,-40.63 2288.48,-32.26"/>
<polygon fill="black" stroke="black" points="2288.78,-35.75 2298.38,-31.26 2288.08,-28.78 2288.78,-35.75"/>
</g>
<!-- 8 -->
<g id="node9" class="node">
<title>8</title>
<ellipse fill="none" stroke="black" cx="2963.35" cy="-18" rx="284.74" ry="18"/>
<text text-anchor="middle" x="2963.35" y="-12.95" font-family="Times New Roman,serif" font-size="14.00">Lilienne, the Net Picker: &quot;Huh... haven&#39;t seen the RCM around for ages.&quot;</text>
</g>
<!-- 1&#45;&gt;8 -->
<g id="edge8" class="edge">
<title>1&#45;&gt;8</title>
<path fill="none" stroke="black" d="M1985.87,-80C1995.6,-76.93 2006.87,-73.83 2017.35,-72 2303.7,-22.12 2380.15,-52.42 2670.35,-36 2695.5,-34.58 2721.86,-33.07 2748.03,-31.56"/>
<polygon fill="black" stroke="black" points="2747.94,-35.08 2757.72,-31.01 2747.54,-28.09 2747.94,-35.08"/>
</g>
<!-- 9 -->
<g id="node10" class="node">
<title>9</title>
<ellipse fill="none" stroke="black" cx="3600.35" cy="-18" rx="333.87" ry="18"/>
<text text-anchor="middle" x="3600.35" y="-12.95" font-family="Times New Roman,serif" font-size="14.00">Lilienne, the Net Picker: &quot;The throw&#45;nets just aren&#39;t paying off this time of the year...&quot;</text>
</g>
<!-- 1&#45;&gt;9 -->
<g id="edge9" class="edge">
<title>1&#45;&gt;9</title>
<path fill="none" stroke="black" d="M1985.56,-79.94C1995.35,-76.83 2006.75,-73.71 2017.35,-72 2289.53,-28.23 2981.89,-46.82 3257.35,-36 3289.2,-34.75 3322.7,-33.28 3355.78,-31.74"/>
<polygon fill="black" stroke="black" points="3355.64,-35.25 3365.47,-31.28 3355.31,-28.25 3355.64,-35.25"/>
</g>
<!-- 5 -->
<g id="node6" class="node">
<title>5</title>
<ellipse fill="none" stroke="black" cx="2247.35" cy="-90" rx="220.76" ry="18"/>
<text text-anchor="middle" x="2247.35" y="-84.95" font-family="Times New Roman,serif" font-size="14.00">Lilienne, the Net Picker: &quot;Hey, kids! Oh... never mind.&quot;</text>
</g>
</g>
</svg>
