<?xml version="1.0" encoding="UTF-8" standalone="no"?>
<!DOCTYPE svg PUBLIC "-//W3C//DTD SVG 1.1//EN"
 "http://www.w3.org/Graphics/SVG/1.1/DTD/svg11.dtd">
<!-- Generated by graphviz version 12.2.1 (20241206.2353)
 -->
<!-- Title: G Pages: 1 -->
<svg width="4338pt" height="836pt"
 viewBox="0.00 0.00 4337.67 836.00" xmlns="http://www.w3.org/2000/svg" xmlns:xlink="http://www.w3.org/1999/xlink">
<g id="graph0" class="graph" transform="scale(1 1) rotate(0) translate(4 832)">
<title>G</title>
<polygon fill="white" stroke="none" points="-4,4 -4,-832 4333.67,-832 4333.67,4 -4,4"/>
<!-- 0 -->
<g id="node1" class="node">
<title>0</title>
<ellipse fill="none" stroke="black" cx="281.38" cy="-810" rx="39.07" ry="18"/>
<text text-anchor="middle" x="281.38" y="-804.95" font-family="Times New Roman,serif" font-size="14.00">START</text>
</g>
<!-- 0&#45;&gt;0 -->
<g id="edge1" class="edge">
<title>0&#45;&gt;0</title>
<path fill="none" stroke="black" d="M309.57,-822.94C324.68,-825.14 338.45,-820.83 338.45,-810 338.45,-801.96 330.86,-797.52 320.78,-796.65"/>
<polygon fill="black" stroke="black" points="320.95,-793.15 311.08,-797 321.2,-800.14 320.95,-793.15"/>
</g>
<!-- 1 -->
<g id="node2" class="node">
<title>1</title>
<ellipse fill="none" stroke="black" cx="2585.38" cy="-90" rx="29.86" ry="18"/>
<text text-anchor="middle" x="2585.38" y="-84.95" font-family="Times New Roman,serif" font-size="14.00">input</text>
</g>
<!-- 2 -->
<g id="node3" class="node">
<title>2</title>
<ellipse fill="none" stroke="black" cx="2585.38" cy="-18" rx="167.02" ry="18"/>
<text text-anchor="middle" x="2585.38" y="-12.95" font-family="Times New Roman,serif" font-size="14.00">You: Leave the sandcastle alone. [Leave.]</text>
</g>
<!-- 1&#45;&gt;2 -->
<g id="edge2" class="edge">
<title>1&#45;&gt;2</title>
<path fill="none" stroke="black" d="M2585.38,-71.7C2585.38,-64.41 2585.38,-55.73 2585.38,-47.54"/>
<polygon fill="black" stroke="black" points="2588.88,-47.62 2585.38,-37.62 2581.88,-47.62 2588.88,-47.62"/>
</g>
<!-- 3 -->
<g id="node4" class="node">
<title>3</title>
<ellipse fill="none" stroke="black" cx="529.38" cy="-810" rx="173.16" ry="18"/>
<text text-anchor="middle" x="529.38" y="-804.95" font-family="Times New Roman,serif" font-size="14.00">Variable[&quot;village.sandcastle_hub_reached&quot;]</text>
</g>
<!-- 3&#45;&gt;3 -->
<g id="edge3" class="edge">
<title>3&#45;&gt;3</title>
<path fill="none" stroke="black" d="M647.92,-823.5C688.18,-823.57 720.54,-819.07 720.54,-810 720.54,-801.78 693.96,-797.31 659.02,-796.6"/>
<polygon fill="black" stroke="black" points="659.47,-793.11 649.43,-796.51 659.4,-800.11 659.47,-793.11"/>
</g>
<!-- 4 -->
<g id="node5" class="node">
<title>4</title>
<polygon fill="none" stroke="black" points="529.38,-756 284.49,-738 529.38,-720 774.27,-738 529.38,-756"/>
<text text-anchor="middle" x="529.38" y="-732.95" font-family="Times New Roman,serif" font-size="14.00">Variable[&quot;village.sandcastle_hub_reached&quot;]</text>
</g>
<!-- 3&#45;&gt;4 -->
<g id="edge4" class="edge">
<title>3&#45;&gt;4</title>
<path fill="none" stroke="black" d="M529.38,-791.7C529.38,-784.41 529.38,-775.73 529.38,-767.54"/>
<polygon fill="black" stroke="black" points="532.88,-767.62 529.38,-757.62 525.88,-767.62 532.88,-767.62"/>
</g>
<!-- 18 -->
<g id="node19" class="node">
<title>18</title>
<ellipse fill="none" stroke="black" cx="529.38" cy="-666" rx="529.38" ry="18"/>
<text text-anchor="middle" x="529.38" y="-660.95" font-family="Times New Roman,serif" font-size="14.00">Sandcastle: The fortress is still defiantly standing. There&#39;s an inviting gleam of *something* coming from the depths of the deepest cellars.</text>
</g>
<!-- 4&#45;&gt;18 -->
<g id="edge5" class="edge">
<title>4&#45;&gt;18</title>
<path fill="none" stroke="black" d="M529.38,-719.7C529.38,-712.41 529.38,-703.73 529.38,-695.54"/>
<polygon fill="black" stroke="black" points="532.88,-695.62 529.38,-685.62 525.88,-695.62 532.88,-695.62"/>
</g>
<!-- 5 -->
<g id="node6" class="node">
<title>5</title>
<polygon fill="none" stroke="black" points="2708.38,-756 2450.46,-738 2708.38,-720 2966.3,-738 2708.38,-756"/>
<text text-anchor="middle" x="2708.38" y="-732.95" font-family="Times New Roman,serif" font-size="14.00">!(Variable[&quot;village.sandcastle_hub_reached&quot;])</text>
</g>
<!-- 20 -->
<g id="node21" class="node">
<title>20</title>
<ellipse fill="none" stroke="black" cx="1931.38" cy="-666" rx="854.38" ry="18"/>
<text text-anchor="middle" x="1931.38" y="-660.95" font-family="Times New Roman,serif" font-size="14.00">Sandcastle: Weather has not been kind to Lily&#39;s little sandcastle. The once mighty towers are quickly eroding away. You can see something shining back to you from what must have been a vast underground catacomb network.</text>
</g>
<!-- 5&#45;&gt;20 -->
<g id="edge6" class="edge">
<title>5&#45;&gt;20</title>
<path fill="none" stroke="black" d="M2599.11,-727.16C2478.1,-716.25 2280.45,-698.45 2131.52,-685.03"/>
<polygon fill="black" stroke="black" points="2132.21,-681.58 2121.94,-684.17 2131.59,-688.55 2132.21,-681.58"/>
</g>
<!-- 6 -->
<g id="node7" class="node">
<title>6</title>
<ellipse fill="none" stroke="black" cx="3869.38" cy="-810" rx="231" ry="18"/>
<text text-anchor="middle" x="3869.38" y="-804.95" font-family="Times New Roman,serif" font-size="14.00">You: Reach in the catacombs and pull out the shiny object.</text>
</g>
<!-- 17 -->
<g id="node18" class="node">
<title>17</title>
<ellipse fill="none" stroke="black" cx="3869.38" cy="-738" rx="460.29" ry="18"/>
<text text-anchor="middle" x="3869.38" y="-732.95" font-family="Times New Roman,serif" font-size="14.00">Sandcastle: The walls and floors give way to the giant&#39;s greed, collapse and present you with a pair of ceramic gauntlets.</text>
</g>
<!-- 6&#45;&gt;17 -->
<g id="edge7" class="edge">
<title>6&#45;&gt;17</title>
<path fill="none" stroke="black" d="M3869.38,-791.7C3869.38,-784.41 3869.38,-775.73 3869.38,-767.54"/>
<polygon fill="black" stroke="black" points="3872.88,-767.62 3869.38,-757.62 3865.88,-767.62 3872.88,-767.62"/>
</g>
<!-- 7 -->
<g id="node8" class="node">
<title>7</title>
<ellipse fill="none" stroke="black" cx="3869.38" cy="-666" rx="58.52" ry="18"/>
<text text-anchor="middle" x="3869.38" y="-660.95" font-family="Times New Roman,serif" font-size="14.00">IsKimHere()</text>
</g>
<!-- 8 -->
<g id="node9" class="node">
<title>8</title>
<polygon fill="none" stroke="black" points="3771.38,-612 3688.63,-594 3771.38,-576 3854.14,-594 3771.38,-612"/>
<text text-anchor="middle" x="3771.38" y="-588.95" font-family="Times New Roman,serif" font-size="14.00">IsKimHere()</text>
</g>
<!-- 7&#45;&gt;8 -->
<g id="edge8" class="edge">
<title>7&#45;&gt;8</title>
<path fill="none" stroke="black" d="M3847.14,-649.12C3832.83,-638.89 3814.13,-625.53 3798.89,-614.65"/>
<polygon fill="black" stroke="black" points="3801.32,-612.08 3791.14,-609.12 3797.25,-617.78 3801.32,-612.08"/>
</g>
<!-- 9 -->
<g id="node10" class="node">
<title>9</title>
<polygon fill="none" stroke="black" points="3968.38,-612 3872.6,-594 3968.38,-576 4064.16,-594 3968.38,-612"/>
<text text-anchor="middle" x="3968.38" y="-588.95" font-family="Times New Roman,serif" font-size="14.00">!(IsKimHere())</text>
</g>
<!-- 7&#45;&gt;9 -->
<g id="edge9" class="edge">
<title>7&#45;&gt;9</title>
<path fill="none" stroke="black" d="M3891.84,-649.12C3906.11,-639.03 3924.7,-625.88 3939.99,-615.07"/>
<polygon fill="black" stroke="black" points="3941.63,-618.2 3947.78,-609.57 3937.59,-612.48 3941.63,-618.2"/>
</g>
<!-- 12 -->
<g id="node13" class="node">
<title>12</title>
<ellipse fill="none" stroke="black" cx="3771.38" cy="-522" rx="448" ry="18"/>
<text text-anchor="middle" x="3771.38" y="-516.95" font-family="Times New Roman,serif" font-size="14.00">Kim Kitsuragi: &quot;Congratulations &#45;&#45; that&#39;s the gauntlets down, then. We&#39;re doing good on the armour collection front.&quot;</text>
</g>
<!-- 8&#45;&gt;12 -->
<g id="edge10" class="edge">
<title>8&#45;&gt;12</title>
<path fill="none" stroke="black" d="M3771.38,-575.7C3771.38,-568.41 3771.38,-559.73 3771.38,-551.54"/>
<polygon fill="black" stroke="black" points="3774.88,-551.62 3771.38,-541.62 3767.88,-551.62 3774.88,-551.62"/>
</g>
<!-- 10 -->
<g id="node11" class="node">
<title>10</title>
<ellipse fill="none" stroke="black" cx="2310.38" cy="-306" rx="618.43" ry="18"/>
<text text-anchor="middle" x="2310.38" y="-300.95" font-family="Times New Roman,serif" font-size="14.00">Sandcastle: A gush of wind disintegrates another piece of the cellar ceiling, exposing more of the mysterious glimmer underneath. The shithole&#39;s about to collapse.</text>
</g>
<!-- 11 -->
<g id="node12" class="node">
<title>11</title>
<ellipse fill="none" stroke="black" cx="2402.38" cy="-234" rx="297.53" ry="18"/>
<text text-anchor="middle" x="2402.38" y="-228.95" font-family="Times New Roman,serif" font-size="14.00">Half Light: The building&#39;s coming down on you, you need to get out of here!</text>
</g>
<!-- 10&#45;&gt;11 -->
<g id="edge11" class="edge">
<title>10&#45;&gt;11</title>
<path fill="none" stroke="black" d="M2333.12,-287.7C2344.4,-279.11 2358.21,-268.61 2370.52,-259.24"/>
<polygon fill="black" stroke="black" points="2372.54,-262.1 2378.38,-253.26 2368.3,-256.53 2372.54,-262.1"/>
</g>
<!-- 21 -->
<g id="node22" class="node">
<title>21</title>
<ellipse fill="none" stroke="black" cx="2585.38" cy="-162" rx="326.7" ry="18"/>
<text text-anchor="middle" x="2585.38" y="-156.95" font-family="Times New Roman,serif" font-size="14.00">Visual Calculus: Smooth reflective surface... are these the gloves you&#39;re looking for?</text>
</g>
<!-- 11&#45;&gt;21 -->
<g id="edge12" class="edge">
<title>11&#45;&gt;21</title>
<path fill="none" stroke="black" d="M2447.15,-215.88C2471.98,-206.38 2503.09,-194.48 2529.5,-184.37"/>
<polygon fill="black" stroke="black" points="2530.62,-187.69 2538.71,-180.85 2528.12,-181.16 2530.62,-187.69"/>
</g>
<!-- 13 -->
<g id="node14" class="node">
<title>13</title>
<ellipse fill="none" stroke="black" cx="2994.38" cy="-810" rx="625.6" ry="18"/>
<text text-anchor="middle" x="2994.38" y="-804.95" font-family="Times New Roman,serif" font-size="14.00">Kim Kitsuragi: &quot;The little castle?&quot; The lieutenant smiles a little. &quot;The reigning lord must have come upon some really tough times to let it slip in such decrepitude.&quot;</text>
</g>
<!-- 13&#45;&gt;1 -->
<g id="edge13" class="edge">
<title>13&#45;&gt;1</title>
<path fill="none" stroke="black" d="M3002.07,-791.91C3013.17,-765.62 3032.38,-713.45 3032.38,-667 3032.38,-667 3032.38,-667 3032.38,-233 3032.38,-169.77 2979.22,-169.56 2921.38,-144 2822.22,-100.18 2692.5,-91.95 2627.03,-90.8"/>
<polygon fill="black" stroke="black" points="2627.13,-87.3 2617.09,-90.68 2627.05,-94.3 2627.13,-87.3"/>
</g>
<!-- 13&#45;&gt;5 -->
<g id="edge14" class="edge">
<title>13&#45;&gt;5</title>
<path fill="none" stroke="black" d="M2923.68,-791.7C2878.24,-780.57 2819.58,-766.22 2774.97,-755.3"/>
<polygon fill="black" stroke="black" points="2775.96,-751.94 2765.41,-752.96 2774.29,-758.74 2775.96,-751.94"/>
</g>
<!-- 14 -->
<g id="node15" class="node">
<title>14</title>
<ellipse fill="none" stroke="black" cx="2310.38" cy="-450" rx="58.52" ry="18"/>
<text text-anchor="middle" x="2310.38" y="-444.95" font-family="Times New Roman,serif" font-size="14.00">IsKimHere()</text>
</g>
<!-- 15 -->
<g id="node16" class="node">
<title>15</title>
<polygon fill="none" stroke="black" points="2676.38,-396 2593.63,-378 2676.38,-360 2759.14,-378 2676.38,-396"/>
<text text-anchor="middle" x="2676.38" y="-372.95" font-family="Times New Roman,serif" font-size="14.00">IsKimHere()</text>
</g>
<!-- 14&#45;&gt;15 -->
<g id="edge16" class="edge">
<title>14&#45;&gt;15</title>
<path fill="none" stroke="black" d="M2358.98,-439.7C2427.37,-426.63 2551.56,-402.87 2622.63,-389.28"/>
<polygon fill="black" stroke="black" points="2622.91,-392.79 2632.07,-387.47 2621.59,-385.91 2622.91,-392.79"/>
</g>
<!-- 16 -->
<g id="node17" class="node">
<title>16</title>
<polygon fill="none" stroke="black" points="2310.38,-396 2214.6,-378 2310.38,-360 2406.16,-378 2310.38,-396"/>
<text text-anchor="middle" x="2310.38" y="-372.95" font-family="Times New Roman,serif" font-size="14.00">!(IsKimHere())</text>
</g>
<!-- 14&#45;&gt;16 -->
<g id="edge15" class="edge">
<title>14&#45;&gt;16</title>
<path fill="none" stroke="black" d="M2310.38,-431.7C2310.38,-424.41 2310.38,-415.73 2310.38,-407.54"/>
<polygon fill="black" stroke="black" points="2313.88,-407.62 2310.38,-397.62 2306.88,-407.62 2313.88,-407.62"/>
</g>
<!-- 15&#45;&gt;13 -->
<g id="edge17" class="edge">
<title>15&#45;&gt;13</title>
<path fill="none" stroke="black" d="M2748.94,-380.68C2842.79,-387.14 2994.38,-414.13 2994.38,-521 2994.38,-667 2994.38,-667 2994.38,-667 2994.38,-706.26 2994.38,-751.62 2994.38,-780.31"/>
<polygon fill="black" stroke="black" points="2990.88,-780 2994.38,-790 2997.88,-780 2990.88,-780"/>
</g>
<!-- 16&#45;&gt;10 -->
<g id="edge18" class="edge">
<title>16&#45;&gt;10</title>
<path fill="none" stroke="black" d="M2310.38,-359.7C2310.38,-352.41 2310.38,-343.73 2310.38,-335.54"/>
<polygon fill="black" stroke="black" points="2313.88,-335.62 2310.38,-325.62 2306.88,-335.62 2313.88,-335.62"/>
</g>
<!-- 17&#45;&gt;7 -->
<g id="edge19" class="edge">
<title>17&#45;&gt;7</title>
<path fill="none" stroke="black" d="M3869.38,-719.7C3869.38,-712.41 3869.38,-703.73 3869.38,-695.54"/>
<polygon fill="black" stroke="black" points="3872.88,-695.62 3869.38,-685.62 3865.88,-695.62 3872.88,-695.62"/>
</g>
<!-- 19 -->
<g id="node20" class="node">
<title>19</title>
<ellipse fill="none" stroke="black" cx="1931.38" cy="-594" rx="57.49" ry="18"/>
<text text-anchor="middle" x="1931.38" y="-588.95" font-family="Times New Roman,serif" font-size="14.00">Untitled hub</text>
</g>
<!-- 18&#45;&gt;19 -->
<g id="edge20" class="edge">
<title>18&#45;&gt;19</title>
<path fill="none" stroke="black" d="M819.03,-650.54C1152.25,-633.9 1677.4,-607.68 1863.35,-598.4"/>
<polygon fill="black" stroke="black" points="1863.52,-601.89 1873.33,-597.9 1863.17,-594.9 1863.52,-601.89"/>
</g>
<!-- 19&#45;&gt;1 -->
<g id="edge21" class="edge">
<title>19&#45;&gt;1</title>
<path fill="none" stroke="black" d="M1876.7,-588.13C1798.59,-577.84 1664.38,-546.29 1664.38,-451 1664.38,-451 1664.38,-451 1664.38,-233 1664.38,-142.66 2365.48,-101.87 2544.27,-92.93"/>
<polygon fill="black" stroke="black" points="2544.19,-96.44 2554.01,-92.45 2543.85,-89.45 2544.19,-96.44"/>
</g>
<!-- 19&#45;&gt;5 -->
<g id="edge22" class="edge">
<title>19&#45;&gt;5</title>
<path fill="none" stroke="black" d="M1988.57,-596.38C2176.82,-601.2 2766.74,-618.61 2794.38,-648 2805.34,-659.66 2802.18,-670.03 2794.38,-684 2786.47,-698.17 2773.04,-709.02 2759.11,-717.1"/>
<polygon fill="black" stroke="black" points="2757.48,-714.01 2750.3,-721.79 2760.77,-720.19 2757.48,-714.01"/>
</g>
<!-- 22 -->
<g id="node23" class="node">
<title>22</title>
<ellipse fill="none" stroke="black" cx="2121.38" cy="-522" rx="74.38" ry="18"/>
<text text-anchor="middle" x="2121.38" y="-516.95" font-family="Times New Roman,serif" font-size="14.00">You: &quot;Broken...&quot;</text>
</g>
<!-- 19&#45;&gt;22 -->
<g id="edge23" class="edge">
<title>19&#45;&gt;22</title>
<path fill="none" stroke="black" d="M1967.56,-579.67C1996.88,-568.87 2038.5,-553.53 2071.06,-541.54"/>
<polygon fill="black" stroke="black" points="2072.13,-544.88 2080.3,-538.13 2069.71,-538.31 2072.13,-544.88"/>
</g>
<!-- 20&#45;&gt;19 -->
<g id="edge24" class="edge">
<title>20&#45;&gt;19</title>
<path fill="none" stroke="black" d="M1931.38,-647.7C1931.38,-640.41 1931.38,-631.73 1931.38,-623.54"/>
<polygon fill="black" stroke="black" points="1934.88,-623.62 1931.38,-613.62 1927.88,-623.62 1934.88,-623.62"/>
</g>
<!-- 21&#45;&gt;1 -->
<g id="edge25" class="edge">
<title>21&#45;&gt;1</title>
<path fill="none" stroke="black" d="M2585.38,-143.7C2585.38,-136.41 2585.38,-127.73 2585.38,-119.54"/>
<polygon fill="black" stroke="black" points="2588.88,-119.62 2585.38,-109.62 2581.88,-119.62 2588.88,-119.62"/>
</g>
<!-- 21&#45;&gt;5 -->
<g id="edge26" class="edge">
<title>21&#45;&gt;5</title>
<path fill="none" stroke="black" d="M2679,-179.68C2788.9,-201.98 2956.38,-245.69 2956.38,-305 2956.38,-595 2956.38,-595 2956.38,-595 2956.38,-669.76 2870.45,-705.71 2799.76,-722.64"/>
<polygon fill="black" stroke="black" points="2799,-719.22 2790.03,-724.85 2800.56,-726.04 2799,-719.22"/>
</g>
<!-- 22&#45;&gt;14 -->
<g id="edge27" class="edge">
<title>22&#45;&gt;14</title>
<path fill="none" stroke="black" d="M2161,-506.33C2190.82,-495.28 2231.81,-480.1 2263.3,-468.44"/>
<polygon fill="black" stroke="black" points="2264.43,-471.75 2272.59,-465 2262,-465.19 2264.43,-471.75"/>
</g>
</g>
</svg>
