<?xml version="1.0" encoding="UTF-8" standalone="no"?>
<!DOCTYPE svg PUBLIC "-//W3C//DTD SVG 1.1//EN"
 "http://www.w3.org/Graphics/SVG/1.1/DTD/svg11.dtd">
<!-- Generated by graphviz version 12.2.1 (20241206.2353)
 -->
<!-- Title: G Pages: 1 -->
<svg width="3067pt" height="188pt"
 viewBox="0.00 0.00 3067.28 188.00" xmlns="http://www.w3.org/2000/svg" xmlns:xlink="http://www.w3.org/1999/xlink">
<g id="graph0" class="graph" transform="scale(1 1) rotate(0) translate(4 184)">
<title>G</title>
<polygon fill="white" stroke="none" points="-4,4 -4,-184 3063.28,-184 3063.28,4 -4,4"/>
<!-- 0 -->
<g id="node1" class="node">
<title>0</title>
<ellipse fill="none" stroke="black" cx="1350.55" cy="-162" rx="39.07" ry="18"/>
<text text-anchor="middle" x="1350.55" y="-156.95" font-family="Times New Roman,serif" font-size="14.00">START</text>
</g>
<!-- 1 -->
<g id="node2" class="node">
<title>1</title>
<ellipse fill="none" stroke="black" cx="1350.55" cy="-90" rx="29.86" ry="18"/>
<text text-anchor="middle" x="1350.55" y="-84.95" font-family="Times New Roman,serif" font-size="14.00">input</text>
</g>
<!-- 0&#45;&gt;1 -->
<g id="edge1" class="edge">
<title>0&#45;&gt;1</title>
<path fill="none" stroke="black" d="M1350.55,-143.7C1350.55,-136.41 1350.55,-127.73 1350.55,-119.54"/>
<polygon fill="black" stroke="black" points="1354.05,-119.62 1350.55,-109.62 1347.05,-119.62 1354.05,-119.62"/>
</g>
<!-- 2 -->
<g id="node3" class="node">
<title>2</title>
<ellipse fill="none" stroke="black" cx="146.55" cy="-18" rx="146.55" ry="18"/>
<text text-anchor="middle" x="146.55" y="-12.95" font-family="Times New Roman,serif" font-size="14.00">Rosemary: &quot;Are you drinking that?&quot;</text>
</g>
<!-- 1&#45;&gt;2 -->
<g id="edge2" class="edge">
<title>1&#45;&gt;2</title>
<path fill="none" stroke="black" d="M1320.46,-88.13C1195.38,-84.36 704.17,-68.22 301.55,-36 288.24,-34.93 274.31,-33.65 260.48,-32.27"/>
<polygon fill="black" stroke="black" points="261.24,-28.83 250.94,-31.29 260.53,-35.79 261.24,-28.83"/>
</g>
<!-- 3 -->
<g id="node4" class="node">
<title>3</title>
<ellipse fill="none" stroke="black" cx="491.55" cy="-18" rx="180.84" ry="18"/>
<text text-anchor="middle" x="491.55" y="-12.95" font-family="Times New Roman,serif" font-size="14.00">Rosemary: &quot;The way she goes, buddy&#45;boy...&quot;</text>
</g>
<!-- 1&#45;&gt;3 -->
<g id="edge3" class="edge">
<title>1&#45;&gt;3</title>
<path fill="none" stroke="black" d="M1320.86,-86.76C1227.05,-79.64 928.55,-56.83 681.55,-36 665.86,-34.68 649.45,-33.26 633.13,-31.83"/>
<polygon fill="black" stroke="black" points="633.62,-28.36 623.35,-30.97 633.01,-35.33 633.62,-28.36"/>
</g>
<!-- 4 -->
<g id="node5" class="node">
<title>4</title>
<ellipse fill="none" stroke="black" cx="839.55" cy="-18" rx="149.11" ry="18"/>
<text text-anchor="middle" x="839.55" y="-12.95" font-family="Times New Roman,serif" font-size="14.00">Rosemary: &quot;What was I gonna say?&quot;</text>
</g>
<!-- 1&#45;&gt;4 -->
<g id="edge4" class="edge">
<title>1&#45;&gt;4</title>
<path fill="none" stroke="black" d="M1321.61,-85.04C1250.84,-75.34 1066.13,-50.04 946.99,-33.72"/>
<polygon fill="black" stroke="black" points="947.55,-30.26 937.17,-32.37 946.6,-37.2 947.55,-30.26"/>
</g>
<!-- 5 -->
<g id="node6" class="node">
<title>5</title>
<ellipse fill="none" stroke="black" cx="1181.55" cy="-18" rx="175.21" ry="18"/>
<text text-anchor="middle" x="1181.55" y="-12.95" font-family="Times New Roman,serif" font-size="14.00">Rosemary: &quot;Doctors are idiots, buddy&#45;boy.&quot;</text>
</g>
<!-- 1&#45;&gt;5 -->
<g id="edge5" class="edge">
<title>1&#45;&gt;5</title>
<path fill="none" stroke="black" d="M1326.33,-78.97C1301.98,-68.88 1263.69,-53.02 1232.6,-40.14"/>
<polygon fill="black" stroke="black" points="1234.34,-37.08 1223.76,-36.48 1231.66,-43.54 1234.34,-37.08"/>
</g>
<!-- 6 -->
<g id="node7" class="node">
<title>6</title>
<ellipse fill="none" stroke="black" cx="1519.55" cy="-18" rx="144.5" ry="18"/>
<text text-anchor="middle" x="1519.55" y="-12.95" font-family="Times New Roman,serif" font-size="14.00">Rosemary: &quot;That&#39;s just life, friend.&quot;</text>
</g>
<!-- 1&#45;&gt;6 -->
<g id="edge6" class="edge">
<title>1&#45;&gt;6</title>
<path fill="none" stroke="black" d="M1374.76,-78.97C1399.28,-68.82 1437.93,-52.81 1469.13,-39.88"/>
<polygon fill="black" stroke="black" points="1470.09,-43.27 1477.99,-36.21 1467.42,-36.81 1470.09,-43.27"/>
</g>
<!-- 7 -->
<g id="node8" class="node">
<title>7</title>
<ellipse fill="none" stroke="black" cx="1849.55" cy="-18" rx="167.02" ry="18"/>
<text text-anchor="middle" x="1849.55" y="-12.95" font-family="Times New Roman,serif" font-size="14.00">Rosemary: &quot;The way she fucking goes...&quot;</text>
</g>
<!-- 1&#45;&gt;7 -->
<g id="edge7" class="edge">
<title>1&#45;&gt;7</title>
<path fill="none" stroke="black" d="M1379.53,-84.93C1448.08,-75.32 1623.08,-50.77 1739.12,-34.49"/>
<polygon fill="black" stroke="black" points="1739.59,-37.96 1749.01,-33.1 1738.62,-31.03 1739.59,-37.96"/>
</g>
<!-- 9 -->
<g id="node9" class="node">
<title>9</title>
<ellipse fill="none" stroke="black" cx="2253.55" cy="-18" rx="218.71" ry="18"/>
<text text-anchor="middle" x="2253.55" y="-12.95" font-family="Times New Roman,serif" font-size="14.00">Rosemary: &quot;I&#39;m not running tabs. It&#39;s bad for business.&quot;</text>
</g>
<!-- 1&#45;&gt;9 -->
<g id="edge8" class="edge">
<title>1&#45;&gt;9</title>
<path fill="none" stroke="black" d="M1380.33,-86.69C1488.41,-78.31 1865.12,-49.11 2086.88,-31.92"/>
<polygon fill="black" stroke="black" points="2087.1,-35.41 2096.8,-31.15 2086.56,-28.43 2087.1,-35.41"/>
</g>
<!-- 10 -->
<g id="node10" class="node">
<title>10</title>
<ellipse fill="none" stroke="black" cx="2774.55" cy="-18" rx="284.74" ry="18"/>
<text text-anchor="middle" x="2774.55" y="-12.95" font-family="Times New Roman,serif" font-size="14.00">Rosemary: &quot;Look, opening it with my eye&#45;socket again... No problemo.&quot;</text>
</g>
<!-- 1&#45;&gt;10 -->
<g id="edge9" class="edge">
<title>1&#45;&gt;10</title>
<path fill="none" stroke="black" d="M1380.26,-87.73C1510.48,-82.13 2043.8,-58.96 2481.55,-36 2507.26,-34.65 2534.24,-33.17 2560.98,-31.67"/>
<polygon fill="black" stroke="black" points="2561.12,-35.17 2570.91,-31.11 2560.73,-28.18 2561.12,-35.17"/>
</g>
</g>
</svg>
