<?xml version="1.0" encoding="UTF-8" standalone="no"?>
<!DOCTYPE svg PUBLIC "-//W3C//DTD SVG 1.1//EN"
 "http://www.w3.org/Graphics/SVG/1.1/DTD/svg11.dtd">
<!-- Generated by graphviz version 12.2.1 (20241206.2353)
 -->
<!-- Title: G Pages: 1 -->
<svg width="3213pt" height="1412pt"
 viewBox="0.00 0.00 3213.43 1412.00" xmlns="http://www.w3.org/2000/svg" xmlns:xlink="http://www.w3.org/1999/xlink">
<g id="graph0" class="graph" transform="scale(1 1) rotate(0) translate(4 1408)">
<title>G</title>
<polygon fill="white" stroke="none" points="-4,4 -4,-1408 3209.43,-1408 3209.43,4 -4,4"/>
<!-- 0 -->
<g id="node1" class="node">
<title>0</title>
<ellipse fill="none" stroke="black" cx="943.83" cy="-1386" rx="39.07" ry="18"/>
<text text-anchor="middle" x="943.83" y="-1380.95" font-family="Times New Roman,serif" font-size="14.00">START</text>
</g>
<!-- 1 -->
<g id="node2" class="node">
<title>1</title>
<ellipse fill="none" stroke="black" cx="943.83" cy="-1314" rx="29.86" ry="18"/>
<text text-anchor="middle" x="943.83" y="-1308.95" font-family="Times New Roman,serif" font-size="14.00">input</text>
</g>
<!-- 0&#45;&gt;1 -->
<g id="edge1" class="edge">
<title>0&#45;&gt;1</title>
<path fill="none" stroke="black" d="M943.83,-1367.7C943.83,-1360.41 943.83,-1351.73 943.83,-1343.54"/>
<polygon fill="black" stroke="black" points="947.33,-1343.62 943.83,-1333.62 940.33,-1343.62 947.33,-1343.62"/>
</g>
<!-- 40 -->
<g id="node40" class="node">
<title>40</title>
<ellipse fill="none" stroke="black" cx="943.83" cy="-1242" rx="216.67" ry="18"/>
<text text-anchor="middle" x="943.83" y="-1236.95" font-family="Times New Roman,serif" font-size="14.00">Variable[&quot;TASK.report_back_to_cleaning_lady_done&quot;]</text>
</g>
<!-- 1&#45;&gt;40 -->
<g id="edge2" class="edge">
<title>1&#45;&gt;40</title>
<path fill="none" stroke="black" d="M943.83,-1295.7C943.83,-1288.41 943.83,-1279.73 943.83,-1271.54"/>
<polygon fill="black" stroke="black" points="947.33,-1271.62 943.83,-1261.62 940.33,-1271.62 947.33,-1271.62"/>
</g>
<!-- 2 -->
<g id="node3" class="node">
<title>2</title>
<ellipse fill="none" stroke="black" cx="1486.83" cy="-738" rx="280.64" ry="18"/>
<text text-anchor="middle" x="1486.83" y="-732.95" font-family="Times New Roman,serif" font-size="14.00">Suggestion: 花言巧语可是进不去的。还是官方一点吧。</text>
</g>
<!-- 21 -->
<g id="node22" class="node">
<title>21</title>
<ellipse fill="none" stroke="black" cx="1408.83" cy="-666" rx="188" ry="18"/>
<text text-anchor="middle" x="1408.83" y="-660.95" font-family="Times New Roman,serif" font-size="14.00">Logic: 你有*很多*需要进去的理由。</text>
</g>
<!-- 2&#45;&gt;21 -->
<g id="edge3" class="edge">
<title>2&#45;&gt;21</title>
<path fill="none" stroke="black" d="M1467.55,-719.7C1458.17,-711.28 1446.74,-701.02 1436.45,-691.79"/>
<polygon fill="black" stroke="black" points="1439.07,-689.43 1429.29,-685.36 1434.39,-694.64 1439.07,-689.43"/>
</g>
<!-- 3 -->
<g id="node4" class="node">
<title>3</title>
<ellipse fill="none" stroke="black" cx="2040.83" cy="-234" rx="112.77" ry="18"/>
<text text-anchor="middle" x="2040.83" y="-228.95" font-family="Times New Roman,serif" font-size="14.00">Jump to: [locked door hub]</text>
</g>
<!-- 45 -->
<g id="node45" class="node">
<title>45</title>
<ellipse fill="none" stroke="black" cx="1486.83" cy="-1026" rx="71.31" ry="18"/>
<text text-anchor="middle" x="1486.83" y="-1020.95" font-family="Times New Roman,serif" font-size="14.00">locked door hub</text>
</g>
<!-- 3&#45;&gt;45 -->
<g id="edge4" class="edge">
<title>3&#45;&gt;45</title>
<path fill="none" stroke="black" d="M1953.45,-245.74C1898.45,-254.29 1834.3,-268.14 1814.83,-288 1786.52,-316.89 1795.83,-336.55 1795.83,-377 1795.83,-883 1795.83,-883 1795.83,-883 1795.83,-928.15 1783.2,-945.24 1746.83,-972 1718.07,-993.16 1628.79,-1008.13 1562.84,-1016.65"/>
<polygon fill="black" stroke="black" points="1562.63,-1013.14 1553.15,-1017.87 1563.5,-1020.09 1562.63,-1013.14"/>
</g>
<!-- 4 -->
<g id="node5" class="node">
<title>4</title>
<ellipse fill="none" stroke="black" cx="1486.83" cy="-810" rx="240.72" ry="18"/>
<text text-anchor="middle" x="1486.83" y="-804.95" font-family="Times New Roman,serif" font-size="14.00">Half Light: 吓吓他们。就说怀疑有*重大罪行*！</text>
</g>
<!-- 4&#45;&gt;2 -->
<g id="edge5" class="edge">
<title>4&#45;&gt;2</title>
<path fill="none" stroke="black" d="M1486.83,-791.7C1486.83,-784.41 1486.83,-775.73 1486.83,-767.54"/>
<polygon fill="black" stroke="black" points="1490.33,-767.62 1486.83,-757.62 1483.33,-767.62 1490.33,-767.62"/>
</g>
<!-- 5 -->
<g id="node6" class="node">
<title>5</title>
<ellipse fill="none" stroke="black" cx="872.83" cy="-882" rx="277.06" ry="18"/>
<text text-anchor="middle" x="872.83" y="-876.95" font-family="Times New Roman,serif" font-size="14.00">Locked Door: 脚步声突然中止了，但是没有人来开门。</text>
</g>
<!-- 6 -->
<g id="node7" class="node">
<title>6</title>
<ellipse fill="none" stroke="black" cx="864.83" cy="-810" rx="222.81" ry="18"/>
<text text-anchor="middle" x="864.83" y="-804.95" font-family="Times New Roman,serif" font-size="14.00">Inland Empire: 你能感觉到另一侧的紧张感。</text>
</g>
<!-- 5&#45;&gt;6 -->
<g id="edge6" class="edge">
<title>5&#45;&gt;6</title>
<path fill="none" stroke="black" d="M870.85,-863.7C870.02,-856.41 869.03,-847.73 868.09,-839.54"/>
<polygon fill="black" stroke="black" points="871.57,-839.15 866.96,-829.61 864.62,-839.94 871.57,-839.15"/>
</g>
<!-- 20 -->
<g id="node21" class="node">
<title>20</title>
<ellipse fill="none" stroke="black" cx="855.83" cy="-738" rx="293.95" ry="18"/>
<text text-anchor="middle" x="855.83" y="-732.95" font-family="Times New Roman,serif" font-size="14.00">Perception (Hearing): 听起来是个女人，有女性鞋子的声音。</text>
</g>
<!-- 6&#45;&gt;20 -->
<g id="edge7" class="edge">
<title>6&#45;&gt;20</title>
<path fill="none" stroke="black" d="M862.61,-791.7C861.66,-784.32 860.53,-775.52 859.46,-767.25"/>
<polygon fill="black" stroke="black" points="862.97,-767.08 858.22,-757.61 856.03,-767.97 862.97,-767.08"/>
</g>
<!-- 7 -->
<g id="node8" class="node">
<title>7</title>
<ellipse fill="none" stroke="black" cx="1061.83" cy="-522" rx="355.88" ry="18"/>
<text text-anchor="middle" x="1061.83" y="-516.95" font-family="Times New Roman,serif" font-size="14.00">Locked Door: “拜托！”短暂的停顿过后，你开始听到大门解锁的声音。</text>
</g>
<!-- 35 -->
<g id="node35" class="node">
<title>35</title>
<ellipse fill="none" stroke="black" cx="1061.83" cy="-450" rx="217.69" ry="18"/>
<text text-anchor="middle" x="1061.83" y="-444.95" font-family="Times New Roman,serif" font-size="14.00">Variable[&quot;apt.master_investigator_doors_opened&quot;] &gt;=3</text>
</g>
<!-- 7&#45;&gt;35 -->
<g id="edge8" class="edge">
<title>7&#45;&gt;35</title>
<path fill="none" stroke="black" d="M1061.83,-503.7C1061.83,-496.41 1061.83,-487.73 1061.83,-479.54"/>
<polygon fill="black" stroke="black" points="1065.33,-479.62 1061.83,-469.62 1058.33,-479.62 1065.33,-479.62"/>
</g>
<!-- 8 -->
<g id="node9" class="node">
<title>8</title>
<ellipse fill="none" stroke="black" cx="187.83" cy="-954" rx="72.85" ry="18"/>
<text text-anchor="middle" x="187.83" y="-948.95" font-family="Times New Roman,serif" font-size="14.00">You: [离开。]</text>
</g>
<!-- 9 -->
<g id="node10" class="node">
<title>9</title>
<ellipse fill="none" stroke="black" cx="2239.83" cy="-450" rx="368.67" ry="18"/>
<text text-anchor="middle" x="2239.83" y="-444.95" font-family="Times New Roman,serif" font-size="14.00">Kim Kitsuragi: “我们走吧，”警督说到，“我们没有进入那个房间的理由。”</text>
</g>
<!-- 48 -->
<g id="node48" class="node">
<title>48</title>
<ellipse fill="none" stroke="black" cx="2285.83" cy="-378" rx="358.44" ry="18"/>
<text text-anchor="middle" x="2285.83" y="-372.95" font-family="Times New Roman,serif" font-size="14.00">Physical Instrument: 之后再说吧。进入这扇门像是一次身体上的*挑战*。</text>
</g>
<!-- 9&#45;&gt;48 -->
<g id="edge9" class="edge">
<title>9&#45;&gt;48</title>
<path fill="none" stroke="black" d="M2251.2,-431.7C2256.38,-423.81 2262.63,-414.3 2268.39,-405.55"/>
<polygon fill="black" stroke="black" points="2271.19,-407.65 2273.76,-397.37 2265.34,-403.8 2271.19,-407.65"/>
</g>
<!-- 10 -->
<g id="node11" class="node">
<title>10</title>
<ellipse fill="none" stroke="black" cx="1061.83" cy="-594" rx="331.31" ry="18"/>
<text text-anchor="middle" x="1061.83" y="-588.95" font-family="Times New Roman,serif" font-size="14.00">You: “如果我怀疑有*非法闯入*事件的话，就不需要搜查令了。”</text>
</g>
<!-- 10&#45;&gt;7 -->
<g id="edge10" class="edge">
<title>10&#45;&gt;7</title>
<path fill="none" stroke="black" d="M1061.83,-575.7C1061.83,-568.41 1061.83,-559.73 1061.83,-551.54"/>
<polygon fill="black" stroke="black" points="1065.33,-551.62 1061.83,-541.62 1058.33,-551.62 1065.33,-551.62"/>
</g>
<!-- 11 -->
<g id="node12" class="node">
<title>11</title>
<ellipse fill="none" stroke="black" cx="336.83" cy="-1026" rx="75.41" ry="18"/>
<text text-anchor="middle" x="336.83" y="-1020.95" font-family="Times New Roman,serif" font-size="14.00">Untitled hub (02)</text>
</g>
<!-- 11&#45;&gt;8 -->
<g id="edge11" class="edge">
<title>11&#45;&gt;8</title>
<path fill="none" stroke="black" d="M303.76,-1009.46C282.35,-999.41 254.24,-986.2 231.07,-975.31"/>
<polygon fill="black" stroke="black" points="232.71,-972.22 222.18,-971.14 229.74,-978.56 232.71,-972.22"/>
</g>
<!-- 12 -->
<g id="node13" class="node">
<title>12</title>
<ellipse fill="none" stroke="black" cx="383.83" cy="-954" rx="66.71" ry="18"/>
<text text-anchor="middle" x="383.83" y="-948.95" font-family="Times New Roman,serif" font-size="14.00">You: 敲门。</text>
</g>
<!-- 11&#45;&gt;12 -->
<g id="edge12" class="edge">
<title>11&#45;&gt;12</title>
<path fill="none" stroke="black" d="M348.21,-1008.05C353.63,-999.97 360.25,-990.12 366.3,-981.11"/>
<polygon fill="black" stroke="black" points="369.05,-983.3 371.71,-973.05 363.23,-979.4 369.05,-983.3"/>
</g>
<!-- 43 -->
<g id="node43" class="node">
<title>43</title>
<ellipse fill="none" stroke="black" cx="288.83" cy="-882" rx="288.83" ry="18"/>
<text text-anchor="middle" x="288.83" y="-876.95" font-family="Times New Roman,serif" font-size="14.00">Locked Door: 什么也没发生。房地产中介一定是离开了。</text>
</g>
<!-- 12&#45;&gt;43 -->
<g id="edge13" class="edge">
<title>12&#45;&gt;43</title>
<path fill="none" stroke="black" d="M361.8,-936.76C349.77,-927.9 334.66,-916.77 321.31,-906.93"/>
<polygon fill="black" stroke="black" points="323.75,-904.38 313.62,-901.27 319.6,-910.02 323.75,-904.38"/>
</g>
<!-- 13 -->
<g id="node14" class="node">
<title>13</title>
<ellipse fill="none" stroke="black" cx="1454.83" cy="-1098" rx="451.07" ry="18"/>
<text text-anchor="middle" x="1454.83" y="-1092.95" font-family="Times New Roman,serif" font-size="14.00">Locked Door: 你听到里面有人走动的声音，像是在重新摆放家具。门牌上的数字写着10。</text>
</g>
<!-- 13&#45;&gt;45 -->
<g id="edge14" class="edge">
<title>13&#45;&gt;45</title>
<path fill="none" stroke="black" d="M1462.74,-1079.7C1466.23,-1072.07 1470.41,-1062.92 1474.31,-1054.4"/>
<polygon fill="black" stroke="black" points="1477.41,-1056.03 1478.38,-1045.48 1471.04,-1053.12 1477.41,-1056.03"/>
</g>
<!-- 14 -->
<g id="node15" class="node">
<title>14</title>
<ellipse fill="none" stroke="black" cx="2070.83" cy="-954" rx="90.25" ry="18"/>
<text text-anchor="middle" x="2070.83" y="-948.95" font-family="Times New Roman,serif" font-size="14.00">You: 再敲一次。</text>
</g>
<!-- 30 -->
<g id="node30" class="node">
<title>30</title>
<ellipse fill="none" stroke="black" cx="2226.83" cy="-882" rx="402.96" ry="18"/>
<text text-anchor="middle" x="2226.83" y="-876.95" font-family="Times New Roman,serif" font-size="14.00">Locked Door: 这次脚步靠近一点。“是谁？”一个女性的声音响起，谨慎而紧张。</text>
</g>
<!-- 14&#45;&gt;30 -->
<g id="edge15" class="edge">
<title>14&#45;&gt;30</title>
<path fill="none" stroke="black" d="M2106.23,-937.12C2127.43,-927.6 2154.7,-915.37 2177.94,-904.94"/>
<polygon fill="black" stroke="black" points="2179.22,-908.2 2186.91,-900.91 2176.36,-901.81 2179.22,-908.2"/>
</g>
<!-- 15 -->
<g id="node16" class="node">
<title>15</title>
<ellipse fill="none" stroke="black" cx="2514.83" cy="-594" rx="58.52" ry="18"/>
<text text-anchor="middle" x="2514.83" y="-588.95" font-family="Times New Roman,serif" font-size="14.00">IsKimHere()</text>
</g>
<!-- 16 -->
<g id="node17" class="node">
<title>16</title>
<polygon fill="none" stroke="black" points="2321.83,-540 2239.08,-522 2321.83,-504 2404.59,-522 2321.83,-540"/>
<text text-anchor="middle" x="2321.83" y="-516.95" font-family="Times New Roman,serif" font-size="14.00">IsKimHere()</text>
</g>
<!-- 15&#45;&gt;16 -->
<g id="edge16" class="edge">
<title>15&#45;&gt;16</title>
<path fill="none" stroke="black" d="M2478.07,-579.67C2445.01,-567.68 2396.53,-550.09 2362.36,-537.7"/>
<polygon fill="black" stroke="black" points="2363.82,-534.51 2353.22,-534.39 2361.43,-541.09 2363.82,-534.51"/>
</g>
<!-- 17 -->
<g id="node18" class="node">
<title>17</title>
<polygon fill="none" stroke="black" points="2721.83,-468 2626.05,-450 2721.83,-432 2817.61,-450 2721.83,-468"/>
<text text-anchor="middle" x="2721.83" y="-444.95" font-family="Times New Roman,serif" font-size="14.00">!(IsKimHere())</text>
</g>
<!-- 15&#45;&gt;17 -->
<g id="edge17" class="edge">
<title>15&#45;&gt;17</title>
<path fill="none" stroke="black" d="M2537.77,-577.26C2575.58,-551.32 2650.93,-499.63 2692.54,-471.09"/>
<polygon fill="black" stroke="black" points="2694.34,-474.1 2700.61,-465.56 2690.38,-468.33 2694.34,-474.1"/>
</g>
<!-- 16&#45;&gt;9 -->
<g id="edge18" class="edge">
<title>16&#45;&gt;9</title>
<path fill="none" stroke="black" d="M2305.63,-507.17C2295.11,-498.19 2281.11,-486.24 2268.73,-475.67"/>
<polygon fill="black" stroke="black" points="2271.1,-473.09 2261.22,-469.26 2266.55,-478.41 2271.1,-473.09"/>
</g>
<!-- 17&#45;&gt;48 -->
<g id="edge19" class="edge">
<title>17&#45;&gt;48</title>
<path fill="none" stroke="black" d="M2672.37,-440.88C2655.12,-438.05 2635.62,-434.87 2617.83,-432 2546.21,-420.43 2465.88,-407.6 2402.18,-397.46"/>
<polygon fill="black" stroke="black" points="2402.81,-394.02 2392.38,-395.91 2401.71,-400.93 2402.81,-394.02"/>
</g>
<!-- 18 -->
<g id="node19" class="node">
<title>18</title>
<ellipse fill="none" stroke="black" cx="1486.83" cy="-882" rx="167.53" ry="18"/>
<text text-anchor="middle" x="1486.83" y="-876.95" font-family="Times New Roman,serif" font-size="14.00">Locked Door: “什么？当然不是！”</text>
</g>
<!-- 18&#45;&gt;4 -->
<g id="edge20" class="edge">
<title>18&#45;&gt;4</title>
<path fill="none" stroke="black" d="M1486.83,-863.7C1486.83,-856.41 1486.83,-847.73 1486.83,-839.54"/>
<polygon fill="black" stroke="black" points="1490.33,-839.62 1486.83,-829.62 1483.33,-839.62 1490.33,-839.62"/>
</g>
<!-- 19 -->
<g id="node20" class="node">
<title>19</title>
<ellipse fill="none" stroke="black" cx="368.83" cy="-1098" rx="156.78" ry="18"/>
<text text-anchor="middle" x="368.83" y="-1092.95" font-family="Times New Roman,serif" font-size="14.00">Locked Door: 10号门又关上了。</text>
</g>
<!-- 19&#45;&gt;11 -->
<g id="edge21" class="edge">
<title>19&#45;&gt;11</title>
<path fill="none" stroke="black" d="M360.92,-1079.7C357.43,-1072.07 353.25,-1062.92 349.35,-1054.4"/>
<polygon fill="black" stroke="black" points="352.62,-1053.12 345.28,-1045.48 346.25,-1056.03 352.62,-1053.12"/>
</g>
<!-- 46 -->
<g id="node46" class="node">
<title>46</title>
<ellipse fill="none" stroke="black" cx="1011.83" cy="-666" rx="112.77" ry="18"/>
<text text-anchor="middle" x="1011.83" y="-660.95" font-family="Times New Roman,serif" font-size="14.00">Jump to: [locked door hub]</text>
</g>
<!-- 20&#45;&gt;46 -->
<g id="edge22" class="edge">
<title>20&#45;&gt;46</title>
<path fill="none" stroke="black" d="M894.39,-719.7C915.73,-710.12 942.42,-698.14 964.96,-688.03"/>
<polygon fill="black" stroke="black" points="966.25,-691.29 973.94,-684 963.38,-684.9 966.25,-691.29"/>
</g>
<!-- 21&#45;&gt;10 -->
<g id="edge24" class="edge">
<title>21&#45;&gt;10</title>
<path fill="none" stroke="black" d="M1330.52,-649.2C1279,-638.81 1211.26,-625.14 1156.69,-614.14"/>
<polygon fill="black" stroke="black" points="1157.59,-610.75 1147.09,-612.2 1156.2,-617.61 1157.59,-610.75"/>
</g>
<!-- 24 -->
<g id="node25" class="node">
<title>24</title>
<ellipse fill="none" stroke="black" cx="1589.83" cy="-594" rx="178.28" ry="18"/>
<text text-anchor="middle" x="1589.83" y="-588.95" font-family="Times New Roman,serif" font-size="14.00">You: “你在里面制造*吗啡*吗？！”</text>
</g>
<!-- 21&#45;&gt;24 -->
<g id="edge23" class="edge">
<title>21&#45;&gt;24</title>
<path fill="none" stroke="black" d="M1452.65,-648.05C1477.57,-638.42 1508.99,-626.26 1535.47,-616.02"/>
<polygon fill="black" stroke="black" points="1536.63,-619.33 1544.69,-612.46 1534.1,-612.8 1536.63,-619.33"/>
</g>
<!-- 28 -->
<g id="node29" class="node">
<title>28</title>
<ellipse fill="none" stroke="black" cx="498.83" cy="-594" rx="213.59" ry="18"/>
<text text-anchor="middle" x="498.83" y="-588.95" font-family="Times New Roman,serif" font-size="14.00">You: “那就开门，我要*核查*你的身份。”</text>
</g>
<!-- 21&#45;&gt;28 -->
<g id="edge25" class="edge">
<title>21&#45;&gt;28</title>
<path fill="none" stroke="black" d="M1265.64,-653.99C1102.38,-641.43 835.93,-620.93 664.02,-607.71"/>
<polygon fill="black" stroke="black" points="664.33,-604.22 654.09,-606.94 663.79,-611.2 664.33,-604.22"/>
</g>
<!-- 22 -->
<g id="node23" class="node">
<title>22</title>
<ellipse fill="none" stroke="black" cx="2608.83" cy="-810" rx="72.85" ry="18"/>
<text text-anchor="middle" x="2608.83" y="-804.95" font-family="Times New Roman,serif" font-size="14.00">You: [离开。]</text>
</g>
<!-- 23 -->
<g id="node24" class="node">
<title>23</title>
<ellipse fill="none" stroke="black" cx="1001.83" cy="-234" rx="165.48" ry="18"/>
<text text-anchor="middle" x="1001.83" y="-228.95" font-family="Times New Roman,serif" font-size="14.00">Rhetoric: 哎呀，还挺简单的嘛。</text>
</g>
<!-- 32 -->
<g id="node32" class="node">
<title>32</title>
<ellipse fill="none" stroke="black" cx="1001.83" cy="-162" rx="58.52" ry="18"/>
<text text-anchor="middle" x="1001.83" y="-156.95" font-family="Times New Roman,serif" font-size="14.00">IsKimHere()</text>
</g>
<!-- 23&#45;&gt;32 -->
<g id="edge26" class="edge">
<title>23&#45;&gt;32</title>
<path fill="none" stroke="black" d="M1001.83,-215.7C1001.83,-208.41 1001.83,-199.73 1001.83,-191.54"/>
<polygon fill="black" stroke="black" points="1005.33,-191.62 1001.83,-181.62 998.33,-191.62 1005.33,-191.62"/>
</g>
<!-- 24&#45;&gt;7 -->
<g id="edge27" class="edge">
<title>24&#45;&gt;7</title>
<path fill="none" stroke="black" d="M1484.88,-579.09C1402.11,-568.11 1286.08,-552.73 1196.47,-540.85"/>
<polygon fill="black" stroke="black" points="1196.99,-537.39 1186.62,-539.54 1196.07,-544.33 1196.99,-537.39"/>
</g>
<!-- 25 -->
<g id="node26" class="node">
<title>25</title>
<ellipse fill="none" stroke="black" cx="977.83" cy="-954" rx="66.71" ry="18"/>
<text text-anchor="middle" x="977.83" y="-948.95" font-family="Times New Roman,serif" font-size="14.00">You: 敲门。</text>
</g>
<!-- 25&#45;&gt;5 -->
<g id="edge28" class="edge">
<title>25&#45;&gt;5</title>
<path fill="none" stroke="black" d="M953.48,-936.76C940.06,-927.82 923.16,-916.55 908.3,-906.65"/>
<polygon fill="black" stroke="black" points="910.41,-903.85 900.15,-901.21 906.52,-909.67 910.41,-903.85"/>
</g>
<!-- 26 -->
<g id="node27" class="node">
<title>26</title>
<ellipse fill="none" stroke="black" cx="2514.83" cy="-738" rx="690.6" ry="18"/>
<text text-anchor="middle" x="2514.83" y="-732.95" font-family="Times New Roman,serif" font-size="14.00">Locked Door: “我*必须*开门吗？”你再次听见高跟鞋的咔哒声，好像另一边有人正朝门口走来。现在她的语气里多了几分防备的意味……</text>
</g>
<!-- 27 -->
<g id="node28" class="node">
<title>27</title>
<ellipse fill="none" stroke="black" cx="2514.83" cy="-666" rx="344.11" ry="18"/>
<text text-anchor="middle" x="2514.83" y="-660.95" font-family="Times New Roman,serif" font-size="14.00">Locked Door: “你有搜查令吗？如果没有的话，我没有义务这么做。”</text>
</g>
<!-- 26&#45;&gt;27 -->
<g id="edge29" class="edge">
<title>26&#45;&gt;27</title>
<path fill="none" stroke="black" d="M2514.83,-719.7C2514.83,-712.41 2514.83,-703.73 2514.83,-695.54"/>
<polygon fill="black" stroke="black" points="2518.33,-695.62 2514.83,-685.62 2511.33,-695.62 2518.33,-695.62"/>
</g>
<!-- 27&#45;&gt;15 -->
<g id="edge30" class="edge">
<title>27&#45;&gt;15</title>
<path fill="none" stroke="black" d="M2514.83,-647.7C2514.83,-640.41 2514.83,-631.73 2514.83,-623.54"/>
<polygon fill="black" stroke="black" points="2518.33,-623.62 2514.83,-613.62 2511.33,-623.62 2518.33,-623.62"/>
</g>
<!-- 28&#45;&gt;7 -->
<g id="edge31" class="edge">
<title>28&#45;&gt;7</title>
<path fill="none" stroke="black" d="M615.48,-578.5C704,-567.49 826.1,-552.31 920.22,-540.61"/>
<polygon fill="black" stroke="black" points="920.56,-544.09 930.05,-539.38 919.69,-537.15 920.56,-544.09"/>
</g>
<!-- 30&#45;&gt;22 -->
<g id="edge33" class="edge">
<title>30&#45;&gt;22</title>
<path fill="none" stroke="black" d="M2319.3,-864.05C2387.48,-851.56 2478.73,-834.84 2540.43,-823.53"/>
<polygon fill="black" stroke="black" points="2540.9,-827.01 2550.1,-821.76 2539.63,-820.12 2540.9,-827.01"/>
</g>
<!-- 38 -->
<g id="node38" class="node">
<title>38</title>
<ellipse fill="none" stroke="black" cx="2275.83" cy="-810" rx="145.52" ry="18"/>
<text text-anchor="middle" x="2275.83" y="-804.95" font-family="Times New Roman,serif" font-size="14.00">You: “我是警察。请开门。”</text>
</g>
<!-- 30&#45;&gt;38 -->
<g id="edge32" class="edge">
<title>30&#45;&gt;38</title>
<path fill="none" stroke="black" d="M2238.94,-863.7C2244.52,-855.73 2251.26,-846.1 2257.45,-837.26"/>
<polygon fill="black" stroke="black" points="2260.12,-839.54 2262.99,-829.34 2254.39,-835.53 2260.12,-839.54"/>
</g>
<!-- 31 -->
<g id="node31" class="node">
<title>31</title>
<ellipse fill="none" stroke="black" cx="662.83" cy="-306" rx="338.48" ry="18"/>
<text text-anchor="middle" x="662.83" y="-300.95" font-family="Times New Roman,serif" font-size="14.00">SetVariableValue(&quot;character.trigger_master_investigator_thought&quot;, true) &#45;&#45;[[ Variable[ ]]</text>
</g>
<!-- 31&#45;&gt;23 -->
<g id="edge34" class="edge">
<title>31&#45;&gt;23</title>
<path fill="none" stroke="black" d="M744.89,-288.05C796.67,-277.36 863.42,-263.58 915.92,-252.74"/>
<polygon fill="black" stroke="black" points="916.32,-256.23 925.41,-250.78 914.91,-249.37 916.32,-256.23"/>
</g>
<!-- 33 -->
<g id="node33" class="node">
<title>33</title>
<polygon fill="none" stroke="black" points="903.83,-108 821.08,-90 903.83,-72 986.59,-90 903.83,-108"/>
<text text-anchor="middle" x="903.83" y="-84.95" font-family="Times New Roman,serif" font-size="14.00">IsKimHere()</text>
</g>
<!-- 32&#45;&gt;33 -->
<g id="edge35" class="edge">
<title>32&#45;&gt;33</title>
<path fill="none" stroke="black" d="M979.59,-145.12C965.28,-134.89 946.58,-121.53 931.34,-110.65"/>
<polygon fill="black" stroke="black" points="933.77,-108.08 923.59,-105.12 929.7,-113.78 933.77,-108.08"/>
</g>
<!-- 34 -->
<g id="node34" class="node">
<title>34</title>
<polygon fill="none" stroke="black" points="1100.83,-108 1005.05,-90 1100.83,-72 1196.61,-90 1100.83,-108"/>
<text text-anchor="middle" x="1100.83" y="-84.95" font-family="Times New Roman,serif" font-size="14.00">!(IsKimHere())</text>
</g>
<!-- 32&#45;&gt;34 -->
<g id="edge36" class="edge">
<title>32&#45;&gt;34</title>
<path fill="none" stroke="black" d="M1024.3,-145.12C1038.56,-135.03 1057.15,-121.88 1072.44,-111.07"/>
<polygon fill="black" stroke="black" points="1074.08,-114.2 1080.23,-105.57 1070.04,-108.48 1074.08,-114.2"/>
</g>
<!-- 39 -->
<g id="node39" class="node">
<title>39</title>
<ellipse fill="none" stroke="black" cx="903.83" cy="-18" rx="395.8" ry="18"/>
<text text-anchor="middle" x="903.83" y="-12.95" font-family="Times New Roman,serif" font-size="14.00">Kim Kitsuragi: “这招挺聪明的，”警督一边说着，一边朝打开的大门点了点头。</text>
</g>
<!-- 33&#45;&gt;39 -->
<g id="edge37" class="edge">
<title>33&#45;&gt;39</title>
<path fill="none" stroke="black" d="M903.83,-71.7C903.83,-64.41 903.83,-55.73 903.83,-47.54"/>
<polygon fill="black" stroke="black" points="907.33,-47.62 903.83,-37.62 900.33,-47.62 907.33,-47.62"/>
</g>
<!-- 36 -->
<g id="node36" class="node">
<title>36</title>
<polygon fill="none" stroke="black" points="747.83,-396 439.97,-378 747.83,-360 1055.69,-378 747.83,-396"/>
<text text-anchor="middle" x="747.83" y="-372.95" font-family="Times New Roman,serif" font-size="14.00">Variable[&quot;apt.master_investigator_doors_opened&quot;] &gt;=3</text>
</g>
<!-- 35&#45;&gt;36 -->
<g id="edge38" class="edge">
<title>35&#45;&gt;36</title>
<path fill="none" stroke="black" d="M988.21,-432.59C937.82,-421.36 871.29,-406.52 821,-395.31"/>
<polygon fill="black" stroke="black" points="821.88,-391.92 811.36,-393.16 820.36,-398.75 821.88,-391.92"/>
</g>
<!-- 37 -->
<g id="node37" class="node">
<title>37</title>
<polygon fill="none" stroke="black" points="1339.83,-324 1018.94,-306 1339.83,-288 1660.72,-306 1339.83,-324"/>
<text text-anchor="middle" x="1339.83" y="-300.95" font-family="Times New Roman,serif" font-size="14.00">!(Variable[&quot;apt.master_investigator_doors_opened&quot;] &gt;=3)</text>
</g>
<!-- 35&#45;&gt;37 -->
<g id="edge39" class="edge">
<title>35&#45;&gt;37</title>
<path fill="none" stroke="black" d="M1095.64,-431.73C1146.89,-405.55 1244.08,-355.91 1299.14,-327.79"/>
<polygon fill="black" stroke="black" points="1300.57,-330.98 1307.88,-323.32 1297.39,-324.75 1300.57,-330.98"/>
</g>
<!-- 36&#45;&gt;31 -->
<g id="edge40" class="edge">
<title>36&#45;&gt;31</title>
<path fill="none" stroke="black" d="M728.12,-360.76C717.56,-352.07 704.35,-341.19 692.58,-331.5"/>
<polygon fill="black" stroke="black" points="695.04,-328.99 685.09,-325.33 690.59,-334.39 695.04,-328.99"/>
</g>
<!-- 37&#45;&gt;23 -->
<g id="edge41" class="edge">
<title>37&#45;&gt;23</title>
<path fill="none" stroke="black" d="M1273.46,-291.25C1220.26,-280.24 1145.25,-264.7 1087.52,-252.75"/>
<polygon fill="black" stroke="black" points="1088.57,-249.39 1078.07,-250.79 1087.15,-256.24 1088.57,-249.39"/>
</g>
<!-- 38&#45;&gt;26 -->
<g id="edge42" class="edge">
<title>38&#45;&gt;26</title>
<path fill="none" stroke="black" d="M2330.66,-792.94C2364.51,-783.03 2408.26,-770.21 2444.62,-759.56"/>
<polygon fill="black" stroke="black" points="2445.59,-762.93 2454.2,-756.76 2443.62,-756.21 2445.59,-762.93"/>
</g>
<!-- 41 -->
<g id="node41" class="node">
<title>41</title>
<polygon fill="none" stroke="black" points="621.83,-1188 315.42,-1170 621.83,-1152 928.24,-1170 621.83,-1188"/>
<text text-anchor="middle" x="621.83" y="-1164.95" font-family="Times New Roman,serif" font-size="14.00">Variable[&quot;TASK.report_back_to_cleaning_lady_done&quot;]</text>
</g>
<!-- 40&#45;&gt;41 -->
<g id="edge43" class="edge">
<title>40&#45;&gt;41</title>
<path fill="none" stroke="black" d="M868.74,-1224.68C816.8,-1213.39 747.99,-1198.43 696.21,-1187.17"/>
<polygon fill="black" stroke="black" points="697.09,-1183.78 686.58,-1185.07 695.6,-1190.62 697.09,-1183.78"/>
</g>
<!-- 42 -->
<g id="node42" class="node">
<title>42</title>
<polygon fill="none" stroke="black" points="1391.83,-1188 1072.39,-1170 1391.83,-1152 1711.27,-1170 1391.83,-1188"/>
<text text-anchor="middle" x="1391.83" y="-1164.95" font-family="Times New Roman,serif" font-size="14.00">!(Variable[&quot;TASK.report_back_to_cleaning_lady_done&quot;])</text>
</g>
<!-- 40&#45;&gt;42 -->
<g id="edge44" class="edge">
<title>40&#45;&gt;42</title>
<path fill="none" stroke="black" d="M1042.7,-1225.55C1118.93,-1213.64 1223.61,-1197.28 1298.43,-1185.59"/>
<polygon fill="black" stroke="black" points="1298.87,-1189.07 1308.21,-1184.07 1297.79,-1182.15 1298.87,-1189.07"/>
</g>
<!-- 41&#45;&gt;19 -->
<g id="edge45" class="edge">
<title>41&#45;&gt;19</title>
<path fill="none" stroke="black" d="M569.72,-1154.58C531.61,-1144.04 479.53,-1129.63 437.94,-1118.12"/>
<polygon fill="black" stroke="black" points="439.1,-1114.81 428.52,-1115.52 437.23,-1121.56 439.1,-1114.81"/>
</g>
<!-- 42&#45;&gt;13 -->
<g id="edge46" class="edge">
<title>42&#45;&gt;13</title>
<path fill="none" stroke="black" d="M1406.76,-1152.41C1414.15,-1144.2 1423.24,-1134.1 1431.52,-1124.9"/>
<polygon fill="black" stroke="black" points="1434.03,-1127.35 1438.12,-1117.57 1428.82,-1122.66 1434.03,-1127.35"/>
</g>
<!-- 43&#45;&gt;11 -->
<g id="edge47" class="edge">
<title>43&#45;&gt;11</title>
<path fill="none" stroke="black" d="M291.03,-900.48C293.68,-918.74 298.92,-948.01 307.83,-972 311.12,-980.85 315.68,-990.03 320.21,-998.21"/>
<polygon fill="black" stroke="black" points="317.04,-999.73 325.08,-1006.63 323.1,-996.22 317.04,-999.73"/>
</g>
<!-- 44 -->
<g id="node44" class="node">
<title>44</title>
<ellipse fill="none" stroke="black" cx="2285.83" cy="-306" rx="462.33" ry="18"/>
<text text-anchor="middle" x="2285.83" y="-300.95" font-family="Times New Roman,serif" font-size="14.00">Logic: 一般来说，如果你有*任何*理由的话——字面上的意义——那做起事来就容易的多。</text>
</g>
<!-- 44&#45;&gt;3 -->
<g id="edge48" class="edge">
<title>44&#45;&gt;3</title>
<path fill="none" stroke="black" d="M2225.27,-287.7C2188.64,-277.23 2141.99,-263.9 2104.77,-253.27"/>
<polygon fill="black" stroke="black" points="2106.07,-250 2095.49,-250.62 2104.15,-256.73 2106.07,-250"/>
</g>
<!-- 45&#45;&gt;14 -->
<g id="edge51" class="edge">
<title>45&#45;&gt;14</title>
<path fill="none" stroke="black" d="M1550.16,-1017.41C1655.14,-1004.83 1865.39,-979.63 1984.08,-965.4"/>
<polygon fill="black" stroke="black" points="1984.26,-968.9 1993.78,-964.24 1983.43,-961.95 1984.26,-968.9"/>
</g>
<!-- 45&#45;&gt;22 -->
<g id="edge50" class="edge">
<title>45&#45;&gt;22</title>
<path fill="none" stroke="black" d="M1557.23,-1022.84C1796.6,-1014.75 2568.08,-982.44 2638.83,-900 2654.09,-882.22 2642.76,-856.35 2629.89,-837.08"/>
<polygon fill="black" stroke="black" points="2632.9,-835.28 2624.23,-829.18 2627.21,-839.35 2632.9,-835.28"/>
</g>
<!-- 45&#45;&gt;25 -->
<g id="edge49" class="edge">
<title>45&#45;&gt;25</title>
<path fill="none" stroke="black" d="M1425.18,-1016.52C1329.86,-1003.41 1147.32,-978.31 1047.41,-964.57"/>
<polygon fill="black" stroke="black" points="1048.12,-961.13 1037.73,-963.24 1047.16,-968.07 1048.12,-961.13"/>
</g>
<!-- 47 -->
<g id="node47" class="node">
<title>47</title>
<ellipse fill="none" stroke="black" cx="1486.83" cy="-954" rx="251.47" ry="18"/>
<text text-anchor="middle" x="1486.83" y="-948.95" font-family="Times New Roman,serif" font-size="14.00">You: “这个房间应该是空的。你是闯进去的吗？”</text>
</g>
<!-- 45&#45;&gt;47 -->
<g id="edge52" class="edge">
<title>45&#45;&gt;47</title>
<path fill="none" stroke="black" d="M1486.83,-1007.7C1486.83,-1000.41 1486.83,-991.73 1486.83,-983.54"/>
<polygon fill="black" stroke="black" points="1490.33,-983.62 1486.83,-973.62 1483.33,-983.62 1490.33,-983.62"/>
</g>
<!-- 46&#45;&gt;45 -->
<g id="edge53" class="edge">
<title>46&#45;&gt;45</title>
<path fill="none" stroke="black" d="M1089.57,-679.4C1114.92,-687.13 1141.08,-699.66 1158.83,-720 1185.43,-750.47 1177.83,-768.55 1177.83,-809 1177.83,-883 1177.83,-883 1177.83,-883 1177.83,-928.15 1190.46,-945.24 1226.83,-972 1255.59,-993.16 1344.87,-1008.13 1410.82,-1016.65"/>
<polygon fill="black" stroke="black" points="1410.16,-1020.09 1420.52,-1017.87 1411.03,-1013.14 1410.16,-1020.09"/>
</g>
<!-- 47&#45;&gt;18 -->
<g id="edge54" class="edge">
<title>47&#45;&gt;18</title>
<path fill="none" stroke="black" d="M1486.83,-935.7C1486.83,-928.41 1486.83,-919.73 1486.83,-911.54"/>
<polygon fill="black" stroke="black" points="1490.33,-911.62 1486.83,-901.62 1483.33,-911.62 1490.33,-911.62"/>
</g>
<!-- 48&#45;&gt;44 -->
<g id="edge55" class="edge">
<title>48&#45;&gt;44</title>
<path fill="none" stroke="black" d="M2285.83,-359.7C2285.83,-352.41 2285.83,-343.73 2285.83,-335.54"/>
<polygon fill="black" stroke="black" points="2289.33,-335.62 2285.83,-325.62 2282.33,-335.62 2289.33,-335.62"/>
</g>
</g>
</svg>
