<?xml version="1.0" encoding="UTF-8" standalone="no"?>
<!DOCTYPE svg PUBLIC "-//W3C//DTD SVG 1.1//EN"
 "http://www.w3.org/Graphics/SVG/1.1/DTD/svg11.dtd">
<!-- Generated by graphviz version 12.2.1 (20241206.2353)
 -->
<!-- Title: G Pages: 1 -->
<svg width="2241pt" height="548pt"
 viewBox="0.00 0.00 2240.98 548.00" xmlns="http://www.w3.org/2000/svg" xmlns:xlink="http://www.w3.org/1999/xlink">
<g id="graph0" class="graph" transform="scale(1 1) rotate(0) translate(4 544)">
<title>G</title>
<polygon fill="white" stroke="none" points="-4,4 -4,-544 2236.98,-544 2236.98,4 -4,4"/>
<!-- 0 -->
<g id="node1" class="node">
<title>0</title>
<ellipse fill="none" stroke="black" cx="1410.88" cy="-522" rx="39.07" ry="18"/>
<text text-anchor="middle" x="1410.88" y="-516.95" font-family="Times New Roman,serif" font-size="14.00">START</text>
</g>
<!-- 1 -->
<g id="node2" class="node">
<title>1</title>
<ellipse fill="none" stroke="black" cx="1410.88" cy="-450" rx="29.86" ry="18"/>
<text text-anchor="middle" x="1410.88" y="-444.95" font-family="Times New Roman,serif" font-size="14.00">input</text>
</g>
<!-- 0&#45;&gt;1 -->
<g id="edge1" class="edge">
<title>0&#45;&gt;1</title>
<path fill="none" stroke="black" d="M1410.88,-503.7C1410.88,-496.41 1410.88,-487.73 1410.88,-479.54"/>
<polygon fill="black" stroke="black" points="1414.38,-479.62 1410.88,-469.62 1407.38,-479.62 1414.38,-479.62"/>
</g>
<!-- 5 -->
<g id="node6" class="node">
<title>5</title>
<ellipse fill="none" stroke="black" cx="1410.88" cy="-378" rx="479.73" ry="18"/>
<text text-anchor="middle" x="1410.88" y="-372.95" font-family="Times New Roman,serif" font-size="14.00">Electrochemistry: 拿走思必得。拿走那份光辉与荣耀。现在它是你的了。你拥有它了！快拿走！</text>
</g>
<!-- 1&#45;&gt;5 -->
<g id="edge2" class="edge">
<title>1&#45;&gt;5</title>
<path fill="none" stroke="black" d="M1410.88,-431.7C1410.88,-424.41 1410.88,-415.73 1410.88,-407.54"/>
<polygon fill="black" stroke="black" points="1414.38,-407.62 1410.88,-397.62 1407.38,-407.62 1414.38,-407.62"/>
</g>
<!-- 2 -->
<g id="node3" class="node">
<title>2</title>
<ellipse fill="none" stroke="black" cx="603.88" cy="-162" rx="145.01" ry="18"/>
<text text-anchor="middle" x="603.88" y="-156.95" font-family="Times New Roman,serif" font-size="14.00">You: 也许可以只来一点……</text>
</g>
<!-- 9 -->
<g id="node9" class="node">
<title>9</title>
<ellipse fill="none" stroke="black" cx="420.88" cy="-90" rx="420.88" ry="18"/>
<text text-anchor="middle" x="420.88" y="-84.95" font-family="Times New Roman,serif" font-size="14.00">Electrochemistry: 开始是一点点，然后是很多。来啊，派对动物！让一切滚蛋去吧！</text>
</g>
<!-- 2&#45;&gt;9 -->
<g id="edge3" class="edge">
<title>2&#45;&gt;9</title>
<path fill="none" stroke="black" d="M560.51,-144.41C535.41,-134.81 503.55,-122.62 476.61,-112.32"/>
<polygon fill="black" stroke="black" points="478.17,-109.17 467.58,-108.86 475.67,-115.71 478.17,-109.17"/>
</g>
<!-- 3 -->
<g id="node4" class="node">
<title>3</title>
<ellipse fill="none" stroke="black" cx="1327.88" cy="-90" rx="467.96" ry="18"/>
<text text-anchor="middle" x="1327.88" y="-84.95" font-family="Times New Roman,serif" font-size="14.00">Electrochemistry: 去你的吧。你以前挺酷的。你为什么就不能拿起瓶子稍微吸那么一小下呢？</text>
</g>
<!-- 6 -->
<g id="node7" class="node">
<title>6</title>
<ellipse fill="none" stroke="black" cx="1327.88" cy="-18" rx="57.49" ry="18"/>
<text text-anchor="middle" x="1327.88" y="-12.95" font-family="Times New Roman,serif" font-size="14.00">Untitled hub</text>
</g>
<!-- 3&#45;&gt;6 -->
<g id="edge4" class="edge">
<title>3&#45;&gt;6</title>
<path fill="none" stroke="black" d="M1327.88,-71.7C1327.88,-64.41 1327.88,-55.73 1327.88,-47.54"/>
<polygon fill="black" stroke="black" points="1331.38,-47.62 1327.88,-37.62 1324.38,-47.62 1331.38,-47.62"/>
</g>
<!-- 4 -->
<g id="node5" class="node">
<title>4</title>
<ellipse fill="none" stroke="black" cx="1220.88" cy="-306" rx="214.11" ry="18"/>
<text text-anchor="middle" x="1220.88" y="-300.95" font-family="Times New Roman,serif" font-size="14.00">You: 不行。反正现在不行。[放弃思维。]</text>
</g>
<!-- 10 -->
<g id="node10" class="node">
<title>10</title>
<ellipse fill="none" stroke="black" cx="999.88" cy="-234" rx="397.33" ry="18"/>
<text text-anchor="middle" x="999.88" y="-228.95" font-family="Times New Roman,serif" font-size="14.00">Electrochemistry: 拜托，来啊！一点点！只要一点点而已！你觉得怎么样，嗯？</text>
</g>
<!-- 4&#45;&gt;10 -->
<g id="edge5" class="edge">
<title>4&#45;&gt;10</title>
<path fill="none" stroke="black" d="M1167.66,-288.14C1136.91,-278.4 1097.97,-266.07 1065.35,-255.74"/>
<polygon fill="black" stroke="black" points="1066.59,-252.46 1056,-252.78 1064.47,-259.13 1066.59,-252.46"/>
</g>
<!-- 5&#45;&gt;4 -->
<g id="edge7" class="edge">
<title>5&#45;&gt;4</title>
<path fill="none" stroke="black" d="M1363.91,-359.7C1337.81,-350.08 1305.15,-338.05 1277.63,-327.91"/>
<polygon fill="black" stroke="black" points="1278.99,-324.68 1268.39,-324.51 1276.57,-331.25 1278.99,-324.68"/>
</g>
<!-- 12 -->
<g id="node12" class="node">
<title>12</title>
<ellipse fill="none" stroke="black" cx="1712.88" cy="-306" rx="149.11" ry="18"/>
<text text-anchor="middle" x="1712.88" y="-300.95" font-family="Times New Roman,serif" font-size="14.00">You: 让我们一起见鬼去吧。</text>
</g>
<!-- 5&#45;&gt;12 -->
<g id="edge6" class="edge">
<title>5&#45;&gt;12</title>
<path fill="none" stroke="black" d="M1485.14,-359.79C1530.56,-349.26 1588.59,-335.81 1634.71,-325.12"/>
<polygon fill="black" stroke="black" points="1635.43,-328.54 1644.38,-322.88 1633.85,-321.72 1635.43,-328.54"/>
</g>
<!-- 8 -->
<g id="node8" class="node">
<title>8</title>
<ellipse fill="none" stroke="black" cx="1163.88" cy="-162" rx="214.11" ry="18"/>
<text text-anchor="middle" x="1163.88" y="-156.95" font-family="Times New Roman,serif" font-size="14.00">You: 我说，抛弃这个念头！[放弃思维。]</text>
</g>
<!-- 8&#45;&gt;3 -->
<g id="edge8" class="edge">
<title>8&#45;&gt;3</title>
<path fill="none" stroke="black" d="M1204,-143.88C1225.95,-134.5 1253.38,-122.8 1276.85,-112.78"/>
<polygon fill="black" stroke="black" points="1278.1,-116.05 1285.93,-108.91 1275.36,-109.61 1278.1,-116.05"/>
</g>
<!-- 9&#45;&gt;6 -->
<g id="edge9" class="edge">
<title>9&#45;&gt;6</title>
<path fill="none" stroke="black" d="M619.36,-73.68C822.76,-57.98 1127.55,-34.46 1261.13,-24.15"/>
<polygon fill="black" stroke="black" points="1261.16,-27.66 1270.86,-23.4 1260.62,-20.68 1261.16,-27.66"/>
</g>
<!-- 10&#45;&gt;2 -->
<g id="edge11" class="edge">
<title>10&#45;&gt;2</title>
<path fill="none" stroke="black" d="M904.02,-216.05C840.75,-204.87 758.32,-190.3 695.85,-179.26"/>
<polygon fill="black" stroke="black" points="696.77,-175.87 686.32,-177.57 695.56,-182.76 696.77,-175.87"/>
</g>
<!-- 10&#45;&gt;8 -->
<g id="edge10" class="edge">
<title>10&#45;&gt;8</title>
<path fill="none" stroke="black" d="M1040.42,-215.7C1062.46,-206.29 1089.93,-194.56 1113.36,-184.56"/>
<polygon fill="black" stroke="black" points="1114.59,-187.84 1122.41,-180.7 1111.84,-181.41 1114.59,-187.84"/>
</g>
<!-- 11 -->
<g id="node11" class="node">
<title>11</title>
<ellipse fill="none" stroke="black" cx="1823.88" cy="-234" rx="409.11" ry="18"/>
<text text-anchor="middle" x="1823.88" y="-228.95" font-family="Times New Roman,serif" font-size="14.00">Electrochemistry: 这他妈才对啊！快伸手，抓住那个酒瓶，一起狂欢，一起摇摆！</text>
</g>
<!-- 11&#45;&gt;6 -->
<g id="edge12" class="edge">
<title>11&#45;&gt;6</title>
<path fill="none" stroke="black" d="M1827.99,-215.5C1834.65,-182.35 1843.42,-110.28 1804.88,-72 1776.43,-43.74 1521.08,-28.02 1396.13,-21.95"/>
<polygon fill="black" stroke="black" points="1396.49,-18.46 1386.33,-21.48 1396.15,-25.46 1396.49,-18.46"/>
</g>
<!-- 12&#45;&gt;11 -->
<g id="edge13" class="edge">
<title>12&#45;&gt;11</title>
<path fill="none" stroke="black" d="M1740.03,-287.88C1754.04,-279.04 1771.33,-268.14 1786.57,-258.53"/>
<polygon fill="black" stroke="black" points="1788.36,-261.54 1794.95,-253.24 1784.63,-255.61 1788.36,-261.54"/>
</g>
</g>
</svg>
