<?xml version="1.0" encoding="UTF-8" standalone="no"?>
<!DOCTYPE svg PUBLIC "-//W3C//DTD SVG 1.1//EN"
 "http://www.w3.org/Graphics/SVG/1.1/DTD/svg11.dtd">
<!-- Generated by graphviz version 12.2.1 (20241206.2353)
 -->
<!-- Title: G Pages: 1 -->
<svg width="4445pt" height="404pt"
 viewBox="0.00 0.00 4444.83 404.00" xmlns="http://www.w3.org/2000/svg" xmlns:xlink="http://www.w3.org/1999/xlink">
<g id="graph0" class="graph" transform="scale(1 1) rotate(0) translate(4 400)">
<title>G</title>
<polygon fill="white" stroke="none" points="-4,4 -4,-400 4440.83,-400 4440.83,4 -4,4"/>
<!-- 0 -->
<g id="node1" class="node">
<title>0</title>
<ellipse fill="none" stroke="black" cx="109.7" cy="-378" rx="39.07" ry="18"/>
<text text-anchor="middle" x="109.7" y="-372.95" font-family="Times New Roman,serif" font-size="14.00">START</text>
</g>
<!-- 1 -->
<g id="node2" class="node">
<title>1</title>
<ellipse fill="none" stroke="black" cx="109.7" cy="-306" rx="29.86" ry="18"/>
<text text-anchor="middle" x="109.7" y="-300.95" font-family="Times New Roman,serif" font-size="14.00">input</text>
</g>
<!-- 0&#45;&gt;1 -->
<g id="edge1" class="edge">
<title>0&#45;&gt;1</title>
<path fill="none" stroke="black" d="M109.7,-359.7C109.7,-352.41 109.7,-343.73 109.7,-335.54"/>
<polygon fill="black" stroke="black" points="113.2,-335.62 109.7,-325.62 106.2,-335.62 113.2,-335.62"/>
</g>
<!-- 9 -->
<g id="node10" class="node">
<title>9</title>
<ellipse fill="none" stroke="black" cx="109.7" cy="-234" rx="109.7" ry="18"/>
<text text-anchor="middle" x="109.7" y="-228.95" font-family="Times New Roman,serif" font-size="14.00">You: 那张平面图……</text>
</g>
<!-- 1&#45;&gt;9 -->
<g id="edge2" class="edge">
<title>1&#45;&gt;9</title>
<path fill="none" stroke="black" d="M109.7,-287.7C109.7,-280.41 109.7,-271.73 109.7,-263.54"/>
<polygon fill="black" stroke="black" points="113.2,-263.62 109.7,-253.62 106.2,-263.62 113.2,-263.62"/>
</g>
<!-- 2 -->
<g id="node3" class="node">
<title>2</title>
<ellipse fill="none" stroke="black" cx="679.7" cy="-378" rx="121.47" ry="18"/>
<text text-anchor="middle" x="679.7" y="-372.95" font-family="Times New Roman,serif" font-size="14.00">You: 看看自己周围……</text>
</g>
<!-- 15 -->
<g id="node16" class="node">
<title>15</title>
<ellipse fill="none" stroke="black" cx="679.7" cy="-306" rx="93.32" ry="18"/>
<text text-anchor="middle" x="679.7" y="-300.95" font-family="Times New Roman,serif" font-size="14.00">abandoned apt shivers</text>
</g>
<!-- 2&#45;&gt;15 -->
<g id="edge3" class="edge">
<title>2&#45;&gt;15</title>
<path fill="none" stroke="black" d="M673.78,-359.7C673.03,-352.41 672.79,-343.73 673.05,-335.54"/>
<polygon fill="black" stroke="black" points="676.54,-335.82 673.7,-325.61 669.55,-335.36 676.54,-335.82"/>
</g>
<!-- 3 -->
<g id="node4" class="node">
<title>3</title>
<ellipse fill="none" stroke="black" cx="1280.7" cy="-162" rx="189.03" ry="18"/>
<text text-anchor="middle" x="1280.7" y="-156.95" font-family="Times New Roman,serif" font-size="14.00">Conceptualization: 她的审美眼光不俗。</text>
</g>
<!-- 5 -->
<g id="node6" class="node">
<title>5</title>
<ellipse fill="none" stroke="black" cx="1768.7" cy="-90" rx="134.78" ry="18"/>
<text text-anchor="middle" x="1768.7" y="-84.95" font-family="Times New Roman,serif" font-size="14.00">Jump to: [abandoned apt shivers]</text>
</g>
<!-- 3&#45;&gt;5 -->
<g id="edge4" class="edge">
<title>3&#45;&gt;5</title>
<path fill="none" stroke="black" d="M1382.4,-146.41C1466.26,-134.38 1584.58,-117.41 1668.13,-105.43"/>
<polygon fill="black" stroke="black" points="1668.52,-108.91 1677.92,-104.02 1667.53,-101.98 1668.52,-108.91"/>
</g>
<!-- 4 -->
<g id="node5" class="node">
<title>4</title>
<ellipse fill="none" stroke="black" cx="848.7" cy="-90" rx="747.41" ry="18"/>
<text text-anchor="middle" x="848.7" y="-84.95" font-family="Times New Roman,serif" font-size="14.00">Shivers: 一位前建筑师站在一扇窗户前，手中握着一份房间的平面图。寒潮让这栋建筑里的空气凝固下来，冰冷刺骨，温度已经下降到零下20度。</text>
</g>
<!-- 16 -->
<g id="node17" class="node">
<title>16</title>
<ellipse fill="none" stroke="black" cx="1298.7" cy="-18" rx="27" ry="18"/>
<text text-anchor="middle" x="1298.7" y="-12.95" font-family="Times New Roman,serif" font-size="14.00">16</text>
</g>
<!-- 4&#45;&gt;16 -->
<g id="edge5" class="edge">
<title>4&#45;&gt;16</title>
<path fill="none" stroke="black" d="M959.64,-71.74C1057.89,-56.46 1195.58,-35.04 1261.14,-24.84"/>
<polygon fill="black" stroke="black" points="1261.68,-28.3 1271.02,-23.31 1260.6,-21.38 1261.68,-28.3"/>
</g>
<!-- 5&#45;&gt;16 -->
<g id="edge6" class="edge">
<title>5&#45;&gt;16</title>
<path fill="none" stroke="black" d="M1681.12,-75.96C1577.51,-60.53 1409.76,-35.54 1335.77,-24.52"/>
<polygon fill="black" stroke="black" points="1336.63,-21.11 1326.23,-23.1 1335.6,-28.03 1336.63,-21.11"/>
</g>
<!-- 6 -->
<g id="node7" class="node">
<title>6</title>
<ellipse fill="none" stroke="black" cx="368.7" cy="-234" rx="131.71" ry="18"/>
<text text-anchor="middle" x="368.7" y="-228.95" font-family="Times New Roman,serif" font-size="14.00">You: 颤抖。[完成思维。]</text>
</g>
<!-- 7 -->
<g id="node8" class="node">
<title>7</title>
<ellipse fill="none" stroke="black" cx="2045.7" cy="-162" rx="557.53" ry="18"/>
<text text-anchor="middle" x="2045.7" y="-156.95" font-family="Times New Roman,serif" font-size="14.00">Shivers: ……被冷空气冻得通红。她不停地朝握着平面图的手指哈气。从她的表情里，你捕捉到悲伤的痕迹。</text>
</g>
<!-- 7&#45;&gt;5 -->
<g id="edge7" class="edge">
<title>7&#45;&gt;5</title>
<path fill="none" stroke="black" d="M1977.23,-143.7C1935.75,-133.22 1882.91,-119.86 1840.8,-109.22"/>
<polygon fill="black" stroke="black" points="1841.8,-105.86 1831.25,-106.81 1840.09,-112.65 1841.8,-105.86"/>
</g>
<!-- 8 -->
<g id="node9" class="node">
<title>8</title>
<ellipse fill="none" stroke="black" cx="4004.7" cy="-234" rx="432.14" ry="18"/>
<text text-anchor="middle" x="4004.7" y="-228.95" font-family="Times New Roman,serif" font-size="14.00">Shivers: 周围的温度突然变化，冰冷的空气将你包围。灰尘静静地躺在石头地板上。</text>
</g>
<!-- 11 -->
<g id="node12" class="node">
<title>11</title>
<ellipse fill="none" stroke="black" cx="3260.7" cy="-162" rx="639.93" ry="18"/>
<text text-anchor="middle" x="3260.7" y="-156.95" font-family="Times New Roman,serif" font-size="14.00">Shivers: ……纸上模糊的铅笔线描绘出相同的地点，但是少了一堵与隔壁公寓连接的东墙。家具的布置方案已经记录下来了。</text>
</g>
<!-- 8&#45;&gt;11 -->
<g id="edge8" class="edge">
<title>8&#45;&gt;11</title>
<path fill="none" stroke="black" d="M3834.94,-217.03C3720.27,-206.24 3568.76,-191.98 3450.17,-180.83"/>
<polygon fill="black" stroke="black" points="3450.58,-177.35 3440.3,-179.9 3449.93,-184.32 3450.58,-177.35"/>
</g>
<!-- 13 -->
<g id="node14" class="node">
<title>13</title>
<ellipse fill="none" stroke="black" cx="4004.7" cy="-162" rx="86.15" ry="18"/>
<text text-anchor="middle" x="4004.7" y="-156.95" font-family="Times New Roman,serif" font-size="14.00">You: 她的脸……</text>
</g>
<!-- 8&#45;&gt;13 -->
<g id="edge9" class="edge">
<title>8&#45;&gt;13</title>
<path fill="none" stroke="black" d="M3998.78,-215.7C3998.03,-208.41 3997.79,-199.73 3998.05,-191.54"/>
<polygon fill="black" stroke="black" points="4001.54,-191.82 3998.7,-181.61 3994.55,-191.36 4001.54,-191.82"/>
</g>
<!-- 12 -->
<g id="node13" class="node">
<title>12</title>
<ellipse fill="none" stroke="black" cx="109.7" cy="-162" rx="96.39" ry="18"/>
<text text-anchor="middle" x="109.7" y="-156.95" font-family="Times New Roman,serif" font-size="14.00">You: [放弃思维。]</text>
</g>
<!-- 9&#45;&gt;12 -->
<g id="edge10" class="edge">
<title>9&#45;&gt;12</title>
<path fill="none" stroke="black" d="M109.7,-215.7C109.7,-208.41 109.7,-199.73 109.7,-191.54"/>
<polygon fill="black" stroke="black" points="113.2,-191.62 109.7,-181.62 106.2,-191.62 113.2,-191.62"/>
</g>
<!-- 10 -->
<g id="node11" class="node">
<title>10</title>
<ellipse fill="none" stroke="black" cx="679.7" cy="-234" rx="160.88" ry="18"/>
<text text-anchor="middle" x="679.7" y="-228.95" font-family="Times New Roman,serif" font-size="14.00">You: 摩擦自己的身体来取暖。</text>
</g>
<!-- 10&#45;&gt;4 -->
<g id="edge11" class="edge">
<title>10&#45;&gt;4</title>
<path fill="none" stroke="black" d="M700.08,-215.87C729.82,-190.89 785.26,-144.3 819.37,-115.64"/>
<polygon fill="black" stroke="black" points="821.41,-118.5 826.82,-109.39 816.91,-113.14 821.41,-118.5"/>
</g>
<!-- 11&#45;&gt;5 -->
<g id="edge12" class="edge">
<title>11&#45;&gt;5</title>
<path fill="none" stroke="black" d="M2940.63,-145.98C2619.02,-130.89 2138.59,-108.35 1905.43,-97.42"/>
<polygon fill="black" stroke="black" points="1905.84,-93.93 1895.69,-96.96 1905.51,-100.92 1905.84,-93.93"/>
</g>
<!-- 13&#45;&gt;8 -->
<g id="edge13" class="edge">
<title>13&#45;&gt;8</title>
<path fill="none" stroke="black" d="M4010.59,-180.1C4011.35,-187.37 4011.61,-196.04 4011.35,-204.24"/>
<polygon fill="black" stroke="black" points="4007.86,-203.98 4010.71,-214.19 4014.85,-204.43 4007.86,-203.98"/>
</g>
<!-- 14 -->
<g id="node15" class="node">
<title>14</title>
<ellipse fill="none" stroke="black" cx="1409.7" cy="-234" rx="550.88" ry="18"/>
<text text-anchor="middle" x="1409.7" y="-228.95" font-family="Times New Roman,serif" font-size="14.00">Shivers: 这里空旷而整洁，墙上装饰着新挂毯。一支标准的HB石墨铅笔从屋子中央的三腿凳上滚落了下来。</text>
</g>
<!-- 14&#45;&gt;3 -->
<g id="edge14" class="edge">
<title>14&#45;&gt;3</title>
<path fill="none" stroke="black" d="M1377.81,-215.7C1361.02,-206.58 1340.22,-195.3 1322.19,-185.51"/>
<polygon fill="black" stroke="black" points="1324.01,-182.52 1313.55,-180.83 1320.67,-188.67 1324.01,-182.52"/>
</g>
<!-- 15&#45;&gt;2 -->
<g id="edge16" class="edge">
<title>15&#45;&gt;2</title>
<path fill="none" stroke="black" d="M685.59,-324.1C686.35,-331.37 686.61,-340.04 686.35,-348.24"/>
<polygon fill="black" stroke="black" points="682.86,-347.98 685.71,-358.19 689.85,-348.43 682.86,-347.98"/>
</g>
<!-- 15&#45;&gt;6 -->
<g id="edge18" class="edge">
<title>15&#45;&gt;6</title>
<path fill="none" stroke="black" d="M620.47,-291.67C571.01,-280.54 500.12,-264.58 446.15,-252.43"/>
<polygon fill="black" stroke="black" points="447.25,-249.09 436.73,-250.31 445.72,-255.92 447.25,-249.09"/>
</g>
<!-- 15&#45;&gt;10 -->
<g id="edge15" class="edge">
<title>15&#45;&gt;10</title>
<path fill="none" stroke="black" d="M679.7,-287.7C679.7,-280.41 679.7,-271.73 679.7,-263.54"/>
<polygon fill="black" stroke="black" points="683.2,-263.62 679.7,-253.62 676.2,-263.62 683.2,-263.62"/>
</g>
<!-- 15&#45;&gt;14 -->
<g id="edge17" class="edge">
<title>15&#45;&gt;14</title>
<path fill="none" stroke="black" d="M761.67,-297.14C873.4,-286.43 1076.67,-266.93 1225.86,-252.63"/>
<polygon fill="black" stroke="black" points="1225.83,-256.15 1235.45,-251.71 1225.16,-249.18 1225.83,-256.15"/>
</g>
</g>
</svg>
