<?xml version="1.0" encoding="UTF-8" standalone="no"?>
<!DOCTYPE svg PUBLIC "-//W3C//DTD SVG 1.1//EN"
 "http://www.w3.org/Graphics/SVG/1.1/DTD/svg11.dtd">
<!-- Generated by graphviz version 12.2.1 (20241206.2353)
 -->
<!-- Title: G Pages: 1 -->
<svg width="6286pt" height="116pt"
 viewBox="0.00 0.00 6286.08 116.00" xmlns="http://www.w3.org/2000/svg" xmlns:xlink="http://www.w3.org/1999/xlink">
<g id="graph0" class="graph" transform="scale(1 1) rotate(0) translate(4 112)">
<title>G</title>
<polygon fill="white" stroke="none" points="-4,4 -4,-112 6282.08,-112 6282.08,4 -4,4"/>
<!-- 0 -->
<g id="node1" class="node">
<title>0</title>
<ellipse fill="none" stroke="black" cx="3124.94" cy="-90" rx="39.07" ry="18"/>
<text text-anchor="middle" x="3124.94" y="-84.95" font-family="Times New Roman,serif" font-size="14.00">START</text>
</g>
<!-- 0&#45;&gt;0 -->
<g id="edge1" class="edge">
<title>0&#45;&gt;0</title>
<path fill="none" stroke="black" d="M3153.13,-102.94C3168.24,-105.14 3182.01,-100.83 3182.01,-90 3182.01,-81.96 3174.42,-77.52 3164.34,-76.65"/>
<polygon fill="black" stroke="black" points="3164.51,-73.15 3154.64,-77 3164.76,-80.14 3164.51,-73.15"/>
</g>
<!-- 1 -->
<g id="node2" class="node">
<title>1</title>
<ellipse fill="none" stroke="black" cx="3229.94" cy="-90" rx="29.86" ry="18"/>
<text text-anchor="middle" x="3229.94" y="-84.95" font-family="Times New Roman,serif" font-size="14.00">input</text>
</g>
<!-- 1&#45;&gt;1 -->
<g id="edge2" class="edge">
<title>1&#45;&gt;1</title>
<path fill="none" stroke="black" d="M3251.59,-102.55C3265.02,-105.57 3277.8,-101.39 3277.8,-90 3277.8,-81.99 3271.48,-77.55 3263.06,-76.66"/>
<polygon fill="black" stroke="black" points="3262.84,-73.17 3253.1,-77.35 3263.32,-80.15 3262.84,-73.17"/>
</g>
<!-- 2 -->
<g id="node3" class="node">
<title>2</title>
<ellipse fill="none" stroke="black" cx="401.94" cy="-18" rx="401.94" ry="18"/>
<text text-anchor="middle" x="401.94" y="-12.95" font-family="Times New Roman,serif" font-size="14.00">Steban, the Student Communist: “如果亚唯物主义是错的，我情愿和它一起错下去。”</text>
</g>
<!-- 1&#45;&gt;2 -->
<g id="edge3" class="edge">
<title>1&#45;&gt;2</title>
<path fill="none" stroke="black" d="M3207.76,-77.54C3202.39,-75.27 3196.57,-73.22 3190.94,-72 3061.8,-44.06 945.01,-39.73 812.94,-36 773.13,-34.88 731.17,-33.43 689.87,-31.87"/>
<polygon fill="black" stroke="black" points="690.17,-28.38 680.04,-31.49 689.9,-35.37 690.17,-28.38"/>
</g>
<!-- 3 -->
<g id="node4" class="node">
<title>3</title>
<ellipse fill="none" stroke="black" cx="1082.94" cy="-18" rx="260.68" ry="18"/>
<text text-anchor="middle" x="1082.94" y="-12.95" font-family="Times New Roman,serif" font-size="14.00">Steban, the Student Communist: “今晚有点凉呢，尤利。”</text>
</g>
<!-- 1&#45;&gt;3 -->
<g id="edge4" class="edge">
<title>1&#45;&gt;3</title>
<path fill="none" stroke="black" d="M3207.76,-77.56C3202.39,-75.29 3196.57,-73.23 3190.94,-72 2991.4,-28.36 1557.03,-44.42 1352.94,-36 1327.38,-34.95 1300.47,-33.57 1273.95,-32.06"/>
<polygon fill="black" stroke="black" points="1274.31,-28.57 1264.12,-31.49 1273.9,-35.56 1274.31,-28.57"/>
</g>
<!-- 4 -->
<g id="node5" class="node">
<title>4</title>
<ellipse fill="none" stroke="black" cx="1692.94" cy="-18" rx="331.31" ry="18"/>
<text text-anchor="middle" x="1692.94" y="-12.95" font-family="Times New Roman,serif" font-size="14.00">Steban, the Student Communist: “我们是仅剩的真正的康米主义者了。”</text>
</g>
<!-- 1&#45;&gt;4 -->
<g id="edge5" class="edge">
<title>1&#45;&gt;4</title>
<path fill="none" stroke="black" d="M3207.75,-77.61C3202.38,-75.33 3196.56,-73.26 3190.94,-72 2939.75,-15.55 2290.19,-46.43 2032.94,-36 2001.77,-34.74 1969.01,-33.27 1936.62,-31.74"/>
<polygon fill="black" stroke="black" points="1936.86,-28.25 1926.7,-31.27 1936.52,-35.24 1936.86,-28.25"/>
</g>
<!-- 5 -->
<g id="node6" class="node">
<title>5</title>
<ellipse fill="none" stroke="black" cx="2367.94" cy="-18" rx="325.68" ry="18"/>
<text text-anchor="middle" x="2367.94" y="-12.95" font-family="Times New Roman,serif" font-size="14.00">Steban, the Student Communist: “我唯一关心的‘阶级’就是无产阶级。”</text>
</g>
<!-- 1&#45;&gt;5 -->
<g id="edge6" class="edge">
<title>1&#45;&gt;5</title>
<path fill="none" stroke="black" d="M3207.72,-77.74C3202.35,-75.46 3196.54,-73.36 3190.94,-72 3162.54,-65.12 2835.63,-45.46 2602.51,-32.12"/>
<polygon fill="black" stroke="black" points="2602.83,-28.63 2592.65,-31.55 2602.43,-35.62 2602.83,-28.63"/>
</g>
<!-- 6 -->
<g id="node7" class="node">
<title>6</title>
<ellipse fill="none" stroke="black" cx="2960.94" cy="-18" rx="248.91" ry="18"/>
<text text-anchor="middle" x="2960.94" y="-12.95" font-family="Times New Roman,serif" font-size="14.00">Steban, the Student Communist: “理论是思想的诗歌。”</text>
</g>
<!-- 1&#45;&gt;6 -->
<g id="edge7" class="edge">
<title>1&#45;&gt;6</title>
<path fill="none" stroke="black" d="M3207.12,-78.21C3201.87,-75.97 3196.27,-73.76 3190.94,-72 3148.7,-58.06 3100.93,-46.41 3059.91,-37.62"/>
<polygon fill="black" stroke="black" points="3060.8,-34.23 3050.29,-35.59 3059.35,-41.08 3060.8,-34.23"/>
</g>
<!-- 7 -->
<g id="node8" class="node">
<title>7</title>
<ellipse fill="none" stroke="black" cx="3499.94" cy="-18" rx="272.45" ry="18"/>
<text text-anchor="middle" x="3499.94" y="-12.95" font-family="Times New Roman,serif" font-size="14.00">Steban, the Student Communist: “谁他妈的拿了我的夹克？”</text>
</g>
<!-- 1&#45;&gt;7 -->
<g id="edge8" class="edge">
<title>1&#45;&gt;7</title>
<path fill="none" stroke="black" d="M3256.26,-80.88C3265.88,-77.98 3276.88,-74.75 3286.94,-72 3329.95,-60.24 3378.13,-48.16 3417.78,-38.51"/>
<polygon fill="black" stroke="black" points="3418.36,-41.97 3427.26,-36.21 3416.71,-35.17 3418.36,-41.97"/>
</g>
<!-- 8 -->
<g id="node9" class="node">
<title>8</title>
<ellipse fill="none" stroke="black" cx="4109.94" cy="-18" rx="319.54" ry="18"/>
<text text-anchor="middle" x="4109.94" y="-12.95" font-family="Times New Roman,serif" font-size="14.00">Steban, the Student Communist: “我相信莫里斯和祖扎娜会回来的。”</text>
</g>
<!-- 1&#45;&gt;8 -->
<g id="edge9" class="edge">
<title>1&#45;&gt;8</title>
<path fill="none" stroke="black" d="M3255.46,-80.05C3265.2,-76.99 3276.47,-73.87 3286.94,-72 3343.16,-61.94 3649,-43.83 3871.47,-31.62"/>
<polygon fill="black" stroke="black" points="3871.36,-35.13 3881.15,-31.08 3870.97,-28.14 3871.36,-35.13"/>
</g>
<!-- 9 -->
<g id="node10" class="node">
<title>9</title>
<ellipse fill="none" stroke="black" cx="4834.94" cy="-18" rx="387.61" ry="18"/>
<text text-anchor="middle" x="4834.94" y="-12.95" font-family="Times New Roman,serif" font-size="14.00">Steban, the Student Communist: “和我一起上讨论课的那个女生*说了*她会来的。”</text>
</g>
<!-- 1&#45;&gt;9 -->
<g id="edge10" class="edge">
<title>1&#45;&gt;9</title>
<path fill="none" stroke="black" d="M3255.15,-79.95C3264.94,-76.84 3276.34,-73.72 3286.94,-72 3539.77,-31.06 4182.99,-45.49 4438.94,-36 4475.16,-34.66 4513.24,-33.15 4550.89,-31.59"/>
<polygon fill="black" stroke="black" points="4550.66,-35.11 4560.51,-31.2 4550.37,-28.11 4550.66,-35.11"/>
</g>
<!-- 10 -->
<g id="node11" class="node">
<title>10</title>
<ellipse fill="none" stroke="black" cx="5512.94" cy="-18" rx="272.45" ry="18"/>
<text text-anchor="middle" x="5512.94" y="-12.95" font-family="Times New Roman,serif" font-size="14.00">Steban, the Student Communist: “我这学期的绩点完蛋了。”</text>
</g>
<!-- 1&#45;&gt;10 -->
<g id="edge11" class="edge">
<title>1&#45;&gt;10</title>
<path fill="none" stroke="black" d="M3255.14,-79.88C3264.93,-76.76 3276.33,-73.65 3286.94,-72 3500.52,-38.81 5015.96,-44.53 5231.94,-36 5258.55,-34.95 5286.57,-33.58 5314.18,-32.06"/>
<polygon fill="black" stroke="black" points="5314.27,-35.56 5324.06,-31.52 5313.88,-28.58 5314.27,-35.56"/>
</g>
<!-- 12 -->
<g id="node13" class="node">
<title>12</title>
<ellipse fill="none" stroke="black" cx="6040.94" cy="-18" rx="237.14" ry="18"/>
<text text-anchor="middle" x="6040.94" y="-12.95" font-family="Times New Roman,serif" font-size="14.00">Steban, the Student Communist: “有点意思，尤利。”</text>
</g>
<!-- 1&#45;&gt;12 -->
<g id="edge12" class="edge">
<title>1&#45;&gt;12</title>
<path fill="none" stroke="black" d="M3255.13,-79.86C3264.93,-76.74 3276.32,-73.63 3286.94,-72 3562.31,-29.79 5515.6,-47.57 5793.94,-36 5817.59,-35.02 5842.49,-33.67 5867.02,-32.16"/>
<polygon fill="black" stroke="black" points="5866.98,-35.67 5876.74,-31.55 5866.54,-28.69 5866.98,-35.67"/>
</g>
<!-- 11 -->
<g id="node12" class="node">
<title>11</title>
<ellipse fill="none" stroke="black" cx="3650.94" cy="-90" rx="354.85" ry="18"/>
<text text-anchor="middle" x="3650.94" y="-84.95" font-family="Times New Roman,serif" font-size="14.00">Steban, the Student Communist: “庞奇和瓦特曼的著作应该变成必读书目。”</text>
</g>
</g>
</svg>
