<?xml version="1.0" encoding="UTF-8" standalone="no"?>
<!DOCTYPE svg PUBLIC "-//W3C//DTD SVG 1.1//EN"
 "http://www.w3.org/Graphics/SVG/1.1/DTD/svg11.dtd">
<!-- Generated by graphviz version 12.2.1 (20241206.2353)
 -->
<!-- Title: G Pages: 1 -->
<svg width="6198pt" height="908pt"
 viewBox="0.00 0.00 6198.43 908.00" xmlns="http://www.w3.org/2000/svg" xmlns:xlink="http://www.w3.org/1999/xlink">
<g id="graph0" class="graph" transform="scale(1 1) rotate(0) translate(4 904)">
<title>G</title>
<polygon fill="white" stroke="none" points="-4,4 -4,-904 6194.43,-904 6194.43,4 -4,4"/>
<!-- 0 -->
<g id="node1" class="node">
<title>0</title>
<ellipse fill="none" stroke="black" cx="1871.83" cy="-882" rx="39.07" ry="18"/>
<text text-anchor="middle" x="1871.83" y="-876.95" font-family="Times New Roman,serif" font-size="14.00">START</text>
</g>
<!-- 0&#45;&gt;0 -->
<g id="edge1" class="edge">
<title>0&#45;&gt;0</title>
<path fill="none" stroke="black" d="M1900.02,-894.94C1915.13,-897.14 1928.9,-892.83 1928.9,-882 1928.9,-873.96 1921.31,-869.52 1911.23,-868.65"/>
<polygon fill="black" stroke="black" points="1911.4,-865.15 1901.53,-869 1911.65,-872.14 1911.4,-865.15"/>
</g>
<!-- 1 -->
<g id="node2" class="node">
<title>1</title>
<ellipse fill="none" stroke="black" cx="1976.83" cy="-882" rx="29.86" ry="18"/>
<text text-anchor="middle" x="1976.83" y="-876.95" font-family="Times New Roman,serif" font-size="14.00">input</text>
</g>
<!-- 39 -->
<g id="node40" class="node">
<title>39</title>
<ellipse fill="none" stroke="black" cx="1306.83" cy="-810" rx="216.67" ry="18"/>
<text text-anchor="middle" x="1306.83" y="-804.95" font-family="Times New Roman,serif" font-size="14.00">Variable[&quot;TASK.report_back_to_cleaning_lady_done&quot;]</text>
</g>
<!-- 1&#45;&gt;39 -->
<g id="edge2" class="edge">
<title>1&#45;&gt;39</title>
<path fill="none" stroke="black" d="M1954.59,-869.82C1949.22,-867.54 1943.42,-865.41 1937.83,-864 1858.15,-843.87 1656.32,-829.18 1502.19,-820.43"/>
<polygon fill="black" stroke="black" points="1502.41,-816.94 1492.23,-819.87 1502.01,-823.93 1502.41,-816.94"/>
</g>
<!-- 2 -->
<g id="node3" class="node">
<title>2</title>
<ellipse fill="none" stroke="black" cx="1237.83" cy="-162" rx="280.64" ry="18"/>
<text text-anchor="middle" x="1237.83" y="-156.95" font-family="Times New Roman,serif" font-size="14.00">Suggestion: 花言巧语可是进不去的。还是官方一点吧。</text>
</g>
<!-- 20 -->
<g id="node21" class="node">
<title>20</title>
<ellipse fill="none" stroke="black" cx="985.83" cy="-90" rx="293.95" ry="18"/>
<text text-anchor="middle" x="985.83" y="-84.95" font-family="Times New Roman,serif" font-size="14.00">Perception (Hearing): 听起来是个女人，有女性鞋子的声音。</text>
</g>
<!-- 2&#45;&gt;20 -->
<g id="edge3" class="edge">
<title>2&#45;&gt;20</title>
<path fill="none" stroke="black" d="M1176.51,-143.97C1140.7,-134.02 1095.34,-121.42 1057.85,-111.01"/>
<polygon fill="black" stroke="black" points="1059.02,-107.7 1048.45,-108.39 1057.15,-114.44 1059.02,-107.7"/>
</g>
<!-- 3 -->
<g id="node4" class="node">
<title>3</title>
<ellipse fill="none" stroke="black" cx="1306.83" cy="-594" rx="112.77" ry="18"/>
<text text-anchor="middle" x="1306.83" y="-588.95" font-family="Times New Roman,serif" font-size="14.00">Jump to: [locked door hub]</text>
</g>
<!-- 44 -->
<g id="node45" class="node">
<title>44</title>
<ellipse fill="none" stroke="black" cx="1306.83" cy="-522" rx="71.31" ry="18"/>
<text text-anchor="middle" x="1306.83" y="-516.95" font-family="Times New Roman,serif" font-size="14.00">locked door hub</text>
</g>
<!-- 3&#45;&gt;44 -->
<g id="edge4" class="edge">
<title>3&#45;&gt;44</title>
<path fill="none" stroke="black" d="M1306.83,-575.7C1306.83,-568.41 1306.83,-559.73 1306.83,-551.54"/>
<polygon fill="black" stroke="black" points="1310.33,-551.62 1306.83,-541.62 1303.33,-551.62 1310.33,-551.62"/>
</g>
<!-- 4 -->
<g id="node5" class="node">
<title>4</title>
<ellipse fill="none" stroke="black" cx="3424.83" cy="-18" rx="240.72" ry="18"/>
<text text-anchor="middle" x="3424.83" y="-12.95" font-family="Times New Roman,serif" font-size="14.00">Half Light: 吓吓他们。就说怀疑有*重大罪行*！</text>
</g>
<!-- 4&#45;&gt;1 -->
<g id="edge5" class="edge">
<title>4&#45;&gt;1</title>
<path fill="none" stroke="black" d="M3540.12,-34.19C3613.5,-51.08 3694.83,-86.59 3694.83,-161 3694.83,-739 3694.83,-739 3694.83,-739 3694.83,-825.91 2280.15,-872.02 2018.26,-879.81"/>
<polygon fill="black" stroke="black" points="2018.42,-876.3 2008.53,-880.1 2018.62,-883.3 2018.42,-876.3"/>
</g>
<!-- 5 -->
<g id="node6" class="node">
<title>5</title>
<ellipse fill="none" stroke="black" cx="3334.83" cy="-882" rx="277.06" ry="18"/>
<text text-anchor="middle" x="3334.83" y="-876.95" font-family="Times New Roman,serif" font-size="14.00">Locked Door: 脚步声突然中止了，但是没有人来开门。</text>
</g>
<!-- 5&#45;&gt;5 -->
<g id="edge6" class="edge">
<title>5&#45;&gt;5</title>
<path fill="none" stroke="black" d="M3524.61,-895.49C3583.55,-895.23 3629.89,-890.74 3629.89,-882 3629.89,-873.83 3589.33,-869.36 3535.84,-868.61"/>
<polygon fill="black" stroke="black" points="3536.16,-865.12 3526.13,-868.53 3536.09,-872.12 3536.16,-865.12"/>
</g>
<!-- 6 -->
<g id="node7" class="node">
<title>6</title>
<ellipse fill="none" stroke="black" cx="1283.83" cy="-378" rx="222.81" ry="18"/>
<text text-anchor="middle" x="1283.83" y="-372.95" font-family="Times New Roman,serif" font-size="14.00">Inland Empire: 你能感觉到另一侧的紧张感。</text>
</g>
<!-- 19 -->
<g id="node20" class="node">
<title>19</title>
<ellipse fill="none" stroke="black" cx="1201.83" cy="-306" rx="156.78" ry="18"/>
<text text-anchor="middle" x="1201.83" y="-300.95" font-family="Times New Roman,serif" font-size="14.00">Locked Door: 10号门又关上了。</text>
</g>
<!-- 6&#45;&gt;19 -->
<g id="edge7" class="edge">
<title>6&#45;&gt;19</title>
<path fill="none" stroke="black" d="M1263.56,-359.7C1253.53,-351.14 1241.26,-340.66 1230.3,-331.3"/>
<polygon fill="black" stroke="black" points="1232.9,-328.92 1223.02,-325.09 1228.35,-334.24 1232.9,-328.92"/>
</g>
<!-- 7 -->
<g id="node8" class="node">
<title>7</title>
<ellipse fill="none" stroke="black" cx="4239.83" cy="-810" rx="355.88" ry="18"/>
<text text-anchor="middle" x="4239.83" y="-804.95" font-family="Times New Roman,serif" font-size="14.00">Locked Door: “拜托！”短暂的停顿过后，你开始听到大门解锁的声音。</text>
</g>
<!-- 34 -->
<g id="node35" class="node">
<title>34</title>
<ellipse fill="none" stroke="black" cx="4239.83" cy="-738" rx="217.69" ry="18"/>
<text text-anchor="middle" x="4239.83" y="-732.95" font-family="Times New Roman,serif" font-size="14.00">Variable[&quot;apt.master_investigator_doors_opened&quot;] &gt;=3</text>
</g>
<!-- 7&#45;&gt;34 -->
<g id="edge8" class="edge">
<title>7&#45;&gt;34</title>
<path fill="none" stroke="black" d="M4239.83,-791.7C4239.83,-784.41 4239.83,-775.73 4239.83,-767.54"/>
<polygon fill="black" stroke="black" points="4243.33,-767.62 4239.83,-757.62 4236.33,-767.62 4243.33,-767.62"/>
</g>
<!-- 8 -->
<g id="node9" class="node">
<title>8</title>
<ellipse fill="none" stroke="black" cx="4696.83" cy="-738" rx="72.85" ry="18"/>
<text text-anchor="middle" x="4696.83" y="-732.95" font-family="Times New Roman,serif" font-size="14.00">You: [离开。]</text>
</g>
<!-- 9 -->
<g id="node10" class="node">
<title>9</title>
<ellipse fill="none" stroke="black" cx="2170.83" cy="-378" rx="368.67" ry="18"/>
<text text-anchor="middle" x="2170.83" y="-372.95" font-family="Times New Roman,serif" font-size="14.00">Kim Kitsuragi: “我们走吧，”警督说到，“我们没有进入那个房间的理由。”</text>
</g>
<!-- 47 -->
<g id="node48" class="node">
<title>47</title>
<ellipse fill="none" stroke="black" cx="1758.83" cy="-306" rx="358.44" ry="18"/>
<text text-anchor="middle" x="1758.83" y="-300.95" font-family="Times New Roman,serif" font-size="14.00">Physical Instrument: 之后再说吧。进入这扇门像是一次身体上的*挑战*。</text>
</g>
<!-- 9&#45;&gt;47 -->
<g id="edge9" class="edge">
<title>9&#45;&gt;47</title>
<path fill="none" stroke="black" d="M2071.88,-360.19C2010.57,-349.77 1931.73,-336.38 1868.51,-325.64"/>
<polygon fill="black" stroke="black" points="1869.24,-322.21 1858.79,-323.98 1868.06,-329.11 1869.24,-322.21"/>
</g>
<!-- 10 -->
<g id="node11" class="node">
<title>10</title>
<ellipse fill="none" stroke="black" cx="946.83" cy="-234" rx="331.31" ry="18"/>
<text text-anchor="middle" x="946.83" y="-228.95" font-family="Times New Roman,serif" font-size="14.00">You: “如果我怀疑有*非法闯入*事件的话，就不需要搜查令了。”</text>
</g>
<!-- 10&#45;&gt;6 -->
<g id="edge10" class="edge">
<title>10&#45;&gt;6</title>
<path fill="none" stroke="black" d="M959.16,-252.38C974.66,-272.83 1003.19,-306.26 1035.83,-324 1067.73,-341.34 1104.81,-353.01 1140.43,-360.86"/>
<polygon fill="black" stroke="black" points="1139.44,-364.23 1149.95,-362.87 1140.88,-357.38 1139.44,-364.23"/>
</g>
<!-- 11 -->
<g id="node12" class="node">
<title>11</title>
<ellipse fill="none" stroke="black" cx="4239.83" cy="-882" rx="75.41" ry="18"/>
<text text-anchor="middle" x="4239.83" y="-876.95" font-family="Times New Roman,serif" font-size="14.00">Untitled hub (02)</text>
</g>
<!-- 11&#45;&gt;7 -->
<g id="edge12" class="edge">
<title>11&#45;&gt;7</title>
<path fill="none" stroke="black" d="M4239.83,-863.7C4239.83,-856.41 4239.83,-847.73 4239.83,-839.54"/>
<polygon fill="black" stroke="black" points="4243.33,-839.62 4239.83,-829.62 4236.33,-839.62 4243.33,-839.62"/>
</g>
<!-- 11&#45;&gt;11 -->
<g id="edge11" class="edge">
<title>11&#45;&gt;11</title>
<path fill="none" stroke="black" d="M4292.17,-895.36C4314.35,-896.37 4333.24,-891.91 4333.24,-882 4333.24,-873.79 4320.28,-869.32 4303.24,-868.6"/>
<polygon fill="black" stroke="black" points="4303.67,-865.1 4293.69,-868.63 4303.7,-872.1 4303.67,-865.1"/>
</g>
<!-- 12 -->
<g id="node13" class="node">
<title>12</title>
<ellipse fill="none" stroke="black" cx="385.83" cy="-666" rx="66.71" ry="18"/>
<text text-anchor="middle" x="385.83" y="-660.95" font-family="Times New Roman,serif" font-size="14.00">You: 敲门。</text>
</g>
<!-- 42 -->
<g id="node43" class="node">
<title>42</title>
<ellipse fill="none" stroke="black" cx="288.83" cy="-522" rx="288.83" ry="18"/>
<text text-anchor="middle" x="288.83" y="-516.95" font-family="Times New Roman,serif" font-size="14.00">Locked Door: 什么也没发生。房地产中介一定是离开了。</text>
</g>
<!-- 12&#45;&gt;42 -->
<g id="edge13" class="edge">
<title>12&#45;&gt;42</title>
<path fill="none" stroke="black" d="M374.13,-647.87C357.45,-623.46 326.69,-578.43 307.02,-549.64"/>
<polygon fill="black" stroke="black" points="309.96,-547.72 301.43,-541.44 304.18,-551.67 309.96,-547.72"/>
</g>
<!-- 13 -->
<g id="node14" class="node">
<title>13</title>
<ellipse fill="none" stroke="black" cx="789.83" cy="-450" rx="451.07" ry="18"/>
<text text-anchor="middle" x="789.83" y="-444.95" font-family="Times New Roman,serif" font-size="14.00">Locked Door: 你听到里面有人走动的声音，像是在重新摆放家具。门牌上的数字写着10。</text>
</g>
<!-- 13&#45;&gt;44 -->
<g id="edge14" class="edge">
<title>13&#45;&gt;44</title>
<path fill="none" stroke="black" d="M919.21,-467.72C1019.14,-481.06 1153.66,-499.31 1235.14,-510.62"/>
<polygon fill="black" stroke="black" points="1234.39,-514.05 1244.78,-511.96 1235.36,-507.12 1234.39,-514.05"/>
</g>
<!-- 14 -->
<g id="node15" class="node">
<title>14</title>
<ellipse fill="none" stroke="black" cx="2812.83" cy="-306" rx="90.25" ry="18"/>
<text text-anchor="middle" x="2812.83" y="-300.95" font-family="Times New Roman,serif" font-size="14.00">You: 再敲一次。</text>
</g>
<!-- 29 -->
<g id="node30" class="node">
<title>29</title>
<ellipse fill="none" stroke="black" cx="2711.83" cy="-234" rx="402.96" ry="18"/>
<text text-anchor="middle" x="2711.83" y="-228.95" font-family="Times New Roman,serif" font-size="14.00">Locked Door: 这次脚步靠近一点。“是谁？”一个女性的声音响起，谨慎而紧张。</text>
</g>
<!-- 14&#45;&gt;29 -->
<g id="edge15" class="edge">
<title>14&#45;&gt;29</title>
<path fill="none" stroke="black" d="M2788.64,-288.23C2775.93,-279.43 2760.14,-268.48 2746.19,-258.81"/>
<polygon fill="black" stroke="black" points="2748.34,-256.04 2738.12,-253.22 2744.35,-261.8 2748.34,-256.04"/>
</g>
<!-- 15 -->
<g id="node16" class="node">
<title>15</title>
<ellipse fill="none" stroke="black" cx="4696.83" cy="-882" rx="58.52" ry="18"/>
<text text-anchor="middle" x="4696.83" y="-876.95" font-family="Times New Roman,serif" font-size="14.00">IsKimHere()</text>
</g>
<!-- 15&#45;&gt;15 -->
<g id="edge17" class="edge">
<title>15&#45;&gt;15</title>
<path fill="none" stroke="black" d="M4737.77,-895.23C4756.76,-896.68 4773.35,-892.27 4773.35,-882 4773.35,-873.82 4762.81,-869.36 4748.92,-868.61"/>
<polygon fill="black" stroke="black" points="4749.23,-865.11 4739.28,-868.75 4749.33,-872.11 4749.23,-865.11"/>
</g>
<!-- 16 -->
<g id="node17" class="node">
<title>16</title>
<polygon fill="none" stroke="black" points="4696.83,-828 4614.08,-810 4696.83,-792 4779.59,-810 4696.83,-828"/>
<text text-anchor="middle" x="4696.83" y="-804.95" font-family="Times New Roman,serif" font-size="14.00">IsKimHere()</text>
</g>
<!-- 15&#45;&gt;16 -->
<g id="edge16" class="edge">
<title>15&#45;&gt;16</title>
<path fill="none" stroke="black" d="M4696.83,-863.7C4696.83,-856.41 4696.83,-847.73 4696.83,-839.54"/>
<polygon fill="black" stroke="black" points="4700.33,-839.62 4696.83,-829.62 4693.33,-839.62 4700.33,-839.62"/>
</g>
<!-- 16&#45;&gt;8 -->
<g id="edge18" class="edge">
<title>16&#45;&gt;8</title>
<path fill="none" stroke="black" d="M4696.83,-791.7C4696.83,-784.41 4696.83,-775.73 4696.83,-767.54"/>
<polygon fill="black" stroke="black" points="4700.33,-767.62 4696.83,-757.62 4693.33,-767.62 4700.33,-767.62"/>
</g>
<!-- 17 -->
<g id="node18" class="node">
<title>17</title>
<polygon fill="none" stroke="black" points="1688.83,-396 1593.05,-378 1688.83,-360 1784.61,-378 1688.83,-396"/>
<text text-anchor="middle" x="1688.83" y="-372.95" font-family="Times New Roman,serif" font-size="14.00">!(IsKimHere())</text>
</g>
<!-- 17&#45;&gt;47 -->
<g id="edge19" class="edge">
<title>17&#45;&gt;47</title>
<path fill="none" stroke="black" d="M1703.33,-362.5C1711.97,-353.86 1723.17,-342.66 1733.25,-332.58"/>
<polygon fill="black" stroke="black" points="1735.71,-335.07 1740.3,-325.53 1730.76,-330.12 1735.71,-335.07"/>
</g>
<!-- 18 -->
<g id="node19" class="node">
<title>18</title>
<ellipse fill="none" stroke="black" cx="1306.83" cy="-666" rx="167.53" ry="18"/>
<text text-anchor="middle" x="1306.83" y="-660.95" font-family="Times New Roman,serif" font-size="14.00">Locked Door: “什么？当然不是！”</text>
</g>
<!-- 18&#45;&gt;3 -->
<g id="edge20" class="edge">
<title>18&#45;&gt;3</title>
<path fill="none" stroke="black" d="M1306.83,-647.7C1306.83,-640.41 1306.83,-631.73 1306.83,-623.54"/>
<polygon fill="black" stroke="black" points="1310.33,-623.62 1306.83,-613.62 1303.33,-623.62 1310.33,-623.62"/>
</g>
<!-- 19&#45;&gt;10 -->
<g id="edge21" class="edge">
<title>19&#45;&gt;10</title>
<path fill="none" stroke="black" d="M1143.01,-288.85C1106.52,-278.84 1059.33,-265.88 1020.38,-255.19"/>
<polygon fill="black" stroke="black" points="1021.39,-251.84 1010.82,-252.57 1019.54,-258.59 1021.39,-251.84"/>
</g>
<!-- 45 -->
<g id="node46" class="node">
<title>45</title>
<ellipse fill="none" stroke="black" cx="563.83" cy="-18" rx="112.77" ry="18"/>
<text text-anchor="middle" x="563.83" y="-12.95" font-family="Times New Roman,serif" font-size="14.00">Jump to: [locked door hub]</text>
</g>
<!-- 20&#45;&gt;45 -->
<g id="edge22" class="edge">
<title>20&#45;&gt;45</title>
<path fill="none" stroke="black" d="M886.89,-72.59C815.47,-60.74 719.91,-44.89 651.28,-33.51"/>
<polygon fill="black" stroke="black" points="652.01,-30.08 641.57,-31.9 650.86,-36.98 652.01,-30.08"/>
</g>
<!-- 21 -->
<g id="node22" class="node">
<title>21</title>
<ellipse fill="none" stroke="black" cx="2786.83" cy="-450" rx="188" ry="18"/>
<text text-anchor="middle" x="2786.83" y="-444.95" font-family="Times New Roman,serif" font-size="14.00">Logic: 你有*很多*需要进去的理由。</text>
</g>
<!-- 21&#45;&gt;9 -->
<g id="edge23" class="edge">
<title>21&#45;&gt;9</title>
<path fill="none" stroke="black" d="M2668.79,-435.59C2570.6,-424.43 2430.16,-408.47 2323.45,-396.34"/>
<polygon fill="black" stroke="black" points="2324.08,-392.89 2313.75,-395.24 2323.29,-399.85 2324.08,-392.89"/>
</g>
<!-- 23 -->
<g id="node24" class="node">
<title>23</title>
<ellipse fill="none" stroke="black" cx="3467.83" cy="-378" rx="165.48" ry="18"/>
<text text-anchor="middle" x="3467.83" y="-372.95" font-family="Times New Roman,serif" font-size="14.00">Rhetoric: 哎呀，还挺简单的嘛。</text>
</g>
<!-- 21&#45;&gt;23 -->
<g id="edge25" class="edge">
<title>21&#45;&gt;23</title>
<path fill="none" stroke="black" d="M2911.74,-436.16C3033.12,-423.68 3216.62,-404.82 3339.24,-392.22"/>
<polygon fill="black" stroke="black" points="3339.45,-395.71 3349.04,-391.21 3338.73,-388.75 3339.45,-395.71"/>
</g>
<!-- 27 -->
<g id="node28" class="node">
<title>27</title>
<ellipse fill="none" stroke="black" cx="2939.83" cy="-378" rx="344.11" ry="18"/>
<text text-anchor="middle" x="2939.83" y="-372.95" font-family="Times New Roman,serif" font-size="14.00">Locked Door: “你有搜查令吗？如果没有的话，我没有义务这么做。”</text>
</g>
<!-- 21&#45;&gt;27 -->
<g id="edge24" class="edge">
<title>21&#45;&gt;27</title>
<path fill="none" stroke="black" d="M2824.26,-431.88C2844.56,-422.59 2869.87,-411.01 2891.63,-401.05"/>
<polygon fill="black" stroke="black" points="2892.98,-404.28 2900.62,-396.94 2890.07,-397.92 2892.98,-404.28"/>
</g>
<!-- 22 -->
<g id="node23" class="node">
<title>22</title>
<ellipse fill="none" stroke="black" cx="4487.83" cy="-522" rx="72.85" ry="18"/>
<text text-anchor="middle" x="4487.83" y="-516.95" font-family="Times New Roman,serif" font-size="14.00">You: [离开。]</text>
</g>
<!-- 31 -->
<g id="node32" class="node">
<title>31</title>
<ellipse fill="none" stroke="black" cx="3446.83" cy="-306" rx="58.52" ry="18"/>
<text text-anchor="middle" x="3446.83" y="-300.95" font-family="Times New Roman,serif" font-size="14.00">IsKimHere()</text>
</g>
<!-- 23&#45;&gt;31 -->
<g id="edge26" class="edge">
<title>23&#45;&gt;31</title>
<path fill="none" stroke="black" d="M3462.64,-359.7C3460.4,-352.24 3457.73,-343.32 3455.22,-334.97"/>
<polygon fill="black" stroke="black" points="3458.62,-334.13 3452.4,-325.55 3451.92,-336.14 3458.62,-334.13"/>
</g>
<!-- 24 -->
<g id="node25" class="node">
<title>24</title>
<ellipse fill="none" stroke="black" cx="1436.83" cy="-450" rx="178.28" ry="18"/>
<text text-anchor="middle" x="1436.83" y="-444.95" font-family="Times New Roman,serif" font-size="14.00">You: “你在里面制造*吗啡*吗？！”</text>
</g>
<!-- 24&#45;&gt;6 -->
<g id="edge27" class="edge">
<title>24&#45;&gt;6</title>
<path fill="none" stroke="black" d="M1399.79,-432.05C1379.35,-422.7 1353.73,-410.98 1331.77,-400.93"/>
<polygon fill="black" stroke="black" points="1333.25,-397.76 1322.7,-396.78 1330.34,-404.13 1333.25,-397.76"/>
</g>
<!-- 25 -->
<g id="node26" class="node">
<title>25</title>
<ellipse fill="none" stroke="black" cx="3155.83" cy="-90" rx="66.71" ry="18"/>
<text text-anchor="middle" x="3155.83" y="-84.95" font-family="Times New Roman,serif" font-size="14.00">You: 敲门。</text>
</g>
<!-- 25&#45;&gt;4 -->
<g id="edge28" class="edge">
<title>25&#45;&gt;4</title>
<path fill="none" stroke="black" d="M3202.69,-76.81C3243.1,-66.29 3302.21,-50.91 3349.3,-38.65"/>
<polygon fill="black" stroke="black" points="3350.12,-42.06 3358.91,-36.15 3348.35,-35.28 3350.12,-42.06"/>
</g>
<!-- 26 -->
<g id="node27" class="node">
<title>26</title>
<ellipse fill="none" stroke="black" cx="5481.83" cy="-882" rx="690.6" ry="18"/>
<text text-anchor="middle" x="5481.83" y="-876.95" font-family="Times New Roman,serif" font-size="14.00">Locked Door: “我*必须*开门吗？”你再次听见高跟鞋的咔哒声，好像另一边有人正朝门口走来。现在她的语气里多了几分防备的意味……</text>
</g>
<!-- 26&#45;&gt;26 -->
<g id="edge29" class="edge">
<title>26&#45;&gt;26</title>
<path fill="none" stroke="black" d="M5957.05,-895.43C6089.21,-894.81 6190.43,-890.33 6190.43,-882 6190.43,-873.9 6094.86,-869.45 5968.2,-868.64"/>
<polygon fill="black" stroke="black" points="5968.58,-865.14 5958.56,-868.58 5968.54,-872.14 5968.58,-865.14"/>
</g>
<!-- 27&#45;&gt;14 -->
<g id="edge30" class="edge">
<title>27&#45;&gt;14</title>
<path fill="none" stroke="black" d="M2908.44,-359.7C2891.53,-350.38 2870.51,-338.79 2852.49,-328.86"/>
<polygon fill="black" stroke="black" points="2854.33,-325.88 2843.88,-324.11 2850.95,-332.01 2854.33,-325.88"/>
</g>
<!-- 28 -->
<g id="node29" class="node">
<title>28</title>
<ellipse fill="none" stroke="black" cx="1846.83" cy="-450" rx="213.59" ry="18"/>
<text text-anchor="middle" x="1846.83" y="-444.95" font-family="Times New Roman,serif" font-size="14.00">You: “那就开门，我要*核查*你的身份。”</text>
</g>
<!-- 28&#45;&gt;6 -->
<g id="edge31" class="edge">
<title>28&#45;&gt;6</title>
<path fill="none" stroke="black" d="M1730.18,-434.5C1637.7,-423 1508.57,-406.94 1412.98,-395.06"/>
<polygon fill="black" stroke="black" points="1413.64,-391.61 1403.29,-393.85 1412.78,-398.56 1413.64,-391.61"/>
</g>
<!-- 29&#45;&gt;21 -->
<g id="edge32" class="edge">
<title>29&#45;&gt;21</title>
<path fill="none" stroke="black" d="M2680.69,-252.35C2631.77,-281.82 2546.47,-343.56 2586.83,-396 2598.77,-411.52 2636.8,-423.43 2676.54,-431.99"/>
<polygon fill="black" stroke="black" points="2675.79,-435.41 2686.29,-434.01 2677.21,-428.55 2675.79,-435.41"/>
</g>
<!-- 37 -->
<g id="node38" class="node">
<title>37</title>
<ellipse fill="none" stroke="black" cx="2711.83" cy="-162" rx="145.52" ry="18"/>
<text text-anchor="middle" x="2711.83" y="-156.95" font-family="Times New Roman,serif" font-size="14.00">You: “我是警察。请开门。”</text>
</g>
<!-- 29&#45;&gt;37 -->
<g id="edge33" class="edge">
<title>29&#45;&gt;37</title>
<path fill="none" stroke="black" d="M2711.83,-215.7C2711.83,-208.41 2711.83,-199.73 2711.83,-191.54"/>
<polygon fill="black" stroke="black" points="2715.33,-191.62 2711.83,-181.62 2708.33,-191.62 2715.33,-191.62"/>
</g>
<!-- 30 -->
<g id="node31" class="node">
<title>30</title>
<ellipse fill="none" stroke="black" cx="4149.83" cy="-594" rx="338.48" ry="18"/>
<text text-anchor="middle" x="4149.83" y="-588.95" font-family="Times New Roman,serif" font-size="14.00">SetVariableValue(&quot;character.trigger_master_investigator_thought&quot;, true) &#45;&#45;[[ Variable[ ]]</text>
</g>
<!-- 30&#45;&gt;22 -->
<g id="edge34" class="edge">
<title>30&#45;&gt;22</title>
<path fill="none" stroke="black" d="M4231.65,-576.05C4290.02,-563.97 4367.49,-547.92 4421.9,-536.65"/>
<polygon fill="black" stroke="black" points="4422.58,-540.09 4431.67,-534.63 4421.17,-533.23 4422.58,-540.09"/>
</g>
<!-- 32 -->
<g id="node33" class="node">
<title>32</title>
<polygon fill="none" stroke="black" points="3446.83,-252 3364.08,-234 3446.83,-216 3529.59,-234 3446.83,-252"/>
<text text-anchor="middle" x="3446.83" y="-228.95" font-family="Times New Roman,serif" font-size="14.00">IsKimHere()</text>
</g>
<!-- 31&#45;&gt;32 -->
<g id="edge35" class="edge">
<title>31&#45;&gt;32</title>
<path fill="none" stroke="black" d="M3446.83,-287.7C3446.83,-280.41 3446.83,-271.73 3446.83,-263.54"/>
<polygon fill="black" stroke="black" points="3450.33,-263.62 3446.83,-253.62 3443.33,-263.62 3450.33,-263.62"/>
</g>
<!-- 33 -->
<g id="node34" class="node">
<title>33</title>
<polygon fill="none" stroke="black" points="3249.83,-252 3154.05,-234 3249.83,-216 3345.61,-234 3249.83,-252"/>
<text text-anchor="middle" x="3249.83" y="-228.95" font-family="Times New Roman,serif" font-size="14.00">!(IsKimHere())</text>
</g>
<!-- 31&#45;&gt;33 -->
<g id="edge36" class="edge">
<title>31&#45;&gt;33</title>
<path fill="none" stroke="black" d="M3409.78,-291.83C3376.49,-280 3327.61,-262.64 3292.65,-250.22"/>
<polygon fill="black" stroke="black" points="3293.85,-246.93 3283.26,-246.88 3291.51,-253.52 3293.85,-246.93"/>
</g>
<!-- 38 -->
<g id="node39" class="node">
<title>38</title>
<ellipse fill="none" stroke="black" cx="3270.83" cy="-162" rx="395.8" ry="18"/>
<text text-anchor="middle" x="3270.83" y="-156.95" font-family="Times New Roman,serif" font-size="14.00">Kim Kitsuragi: “这招挺聪明的，”警督一边说着，一边朝打开的大门点了点头。</text>
</g>
<!-- 32&#45;&gt;38 -->
<g id="edge37" class="edge">
<title>32&#45;&gt;38</title>
<path fill="none" stroke="black" d="M3418.55,-221.75C3393.43,-211.76 3356.02,-196.88 3325.13,-184.6"/>
<polygon fill="black" stroke="black" points="3326.5,-181.37 3315.91,-180.93 3323.91,-187.88 3326.5,-181.37"/>
</g>
<!-- 35 -->
<g id="node36" class="node">
<title>35</title>
<polygon fill="none" stroke="black" points="4194.83,-684 3886.97,-666 4194.83,-648 4502.69,-666 4194.83,-684"/>
<text text-anchor="middle" x="4194.83" y="-660.95" font-family="Times New Roman,serif" font-size="14.00">Variable[&quot;apt.master_investigator_doors_opened&quot;] &gt;=3</text>
</g>
<!-- 34&#45;&gt;35 -->
<g id="edge38" class="edge">
<title>34&#45;&gt;35</title>
<path fill="none" stroke="black" d="M4228.71,-719.7C4223.56,-711.7 4217.34,-702.02 4211.64,-693.15"/>
<polygon fill="black" stroke="black" points="4214.69,-691.41 4206.33,-684.9 4208.8,-695.2 4214.69,-691.41"/>
</g>
<!-- 36 -->
<g id="node37" class="node">
<title>36</title>
<polygon fill="none" stroke="black" points="4826.83,-612 4505.94,-594 4826.83,-576 5147.72,-594 4826.83,-612"/>
<text text-anchor="middle" x="4826.83" y="-588.95" font-family="Times New Roman,serif" font-size="14.00">!(Variable[&quot;apt.master_investigator_doors_opened&quot;] &gt;=3)</text>
</g>
<!-- 34&#45;&gt;36 -->
<g id="edge39" class="edge">
<title>34&#45;&gt;36</title>
<path fill="none" stroke="black" d="M4330.9,-721.2C4383.93,-711.52 4451.93,-698.27 4511.83,-684 4602.05,-662.5 4705.26,-632.25 4768.23,-613.13"/>
<polygon fill="black" stroke="black" points="4769.13,-616.52 4777.68,-610.26 4767.09,-609.82 4769.13,-616.52"/>
</g>
<!-- 35&#45;&gt;30 -->
<g id="edge40" class="edge">
<title>35&#45;&gt;30</title>
<path fill="none" stroke="black" d="M4184.17,-648.41C4179.11,-640.54 4172.93,-630.93 4167.21,-622.04"/>
<polygon fill="black" stroke="black" points="4170.22,-620.24 4161.86,-613.72 4164.33,-624.02 4170.22,-620.24"/>
</g>
<!-- 36&#45;&gt;22 -->
<g id="edge41" class="edge">
<title>36&#45;&gt;22</title>
<path fill="none" stroke="black" d="M4760.26,-579.25C4700.48,-566.91 4613.21,-548.89 4553.66,-536.59"/>
<polygon fill="black" stroke="black" points="4554.49,-533.19 4543.99,-534.6 4553.07,-540.05 4554.49,-533.19"/>
</g>
<!-- 37&#45;&gt;25 -->
<g id="edge42" class="edge">
<title>37&#45;&gt;25</title>
<path fill="none" stroke="black" d="M2799.29,-147.21C2884.05,-133.85 3010.82,-113.86 3088.15,-101.67"/>
<polygon fill="black" stroke="black" points="3088.36,-105.18 3097.69,-100.17 3087.27,-98.27 3088.36,-105.18"/>
</g>
<!-- 40 -->
<g id="node41" class="node">
<title>40</title>
<polygon fill="none" stroke="black" points="1306.83,-756 1000.42,-738 1306.83,-720 1613.24,-738 1306.83,-756"/>
<text text-anchor="middle" x="1306.83" y="-732.95" font-family="Times New Roman,serif" font-size="14.00">Variable[&quot;TASK.report_back_to_cleaning_lady_done&quot;]</text>
</g>
<!-- 39&#45;&gt;40 -->
<g id="edge43" class="edge">
<title>39&#45;&gt;40</title>
<path fill="none" stroke="black" d="M1306.83,-791.7C1306.83,-784.41 1306.83,-775.73 1306.83,-767.54"/>
<polygon fill="black" stroke="black" points="1310.33,-767.62 1306.83,-757.62 1303.33,-767.62 1310.33,-767.62"/>
</g>
<!-- 41 -->
<g id="node42" class="node">
<title>41</title>
<polygon fill="none" stroke="black" points="645.83,-756 326.39,-738 645.83,-720 965.27,-738 645.83,-756"/>
<text text-anchor="middle" x="645.83" y="-732.95" font-family="Times New Roman,serif" font-size="14.00">!(Variable[&quot;TASK.report_back_to_cleaning_lady_done&quot;])</text>
</g>
<!-- 39&#45;&gt;41 -->
<g id="edge44" class="edge">
<title>39&#45;&gt;41</title>
<path fill="none" stroke="black" d="M1176.63,-795.21C1056.97,-782.54 881.06,-763.91 765.02,-751.62"/>
<polygon fill="black" stroke="black" points="765.45,-748.15 755.13,-750.58 764.71,-755.11 765.45,-748.15"/>
</g>
<!-- 40&#45;&gt;18 -->
<g id="edge45" class="edge">
<title>40&#45;&gt;18</title>
<path fill="none" stroke="black" d="M1306.83,-719.7C1306.83,-712.41 1306.83,-703.73 1306.83,-695.54"/>
<polygon fill="black" stroke="black" points="1310.33,-695.62 1306.83,-685.62 1303.33,-695.62 1310.33,-695.62"/>
</g>
<!-- 41&#45;&gt;12 -->
<g id="edge46" class="edge">
<title>41&#45;&gt;12</title>
<path fill="none" stroke="black" d="M592.27,-722.58C548.69,-710.85 487.34,-694.33 442.85,-682.35"/>
<polygon fill="black" stroke="black" points="443.95,-679.02 433.39,-679.8 442.13,-685.78 443.95,-679.02"/>
</g>
<!-- 42&#45;&gt;10 -->
<g id="edge47" class="edge">
<title>42&#45;&gt;10</title>
<path fill="none" stroke="black" d="M285.18,-503.85C282.08,-484.23 280.38,-452.22 296.83,-432 364.86,-348.41 667.16,-283.75 834.47,-253.61"/>
<polygon fill="black" stroke="black" points="835.07,-257.05 844.3,-251.85 833.84,-250.16 835.07,-257.05"/>
</g>
<!-- 43 -->
<g id="node44" class="node">
<title>43</title>
<ellipse fill="none" stroke="black" cx="1758.83" cy="-234" rx="462.33" ry="18"/>
<text text-anchor="middle" x="1758.83" y="-228.95" font-family="Times New Roman,serif" font-size="14.00">Logic: 一般来说，如果你有*任何*理由的话——字面上的意义——那做起事来就容易的多。</text>
</g>
<!-- 43&#45;&gt;2 -->
<g id="edge48" class="edge">
<title>43&#45;&gt;2</title>
<path fill="none" stroke="black" d="M1634.04,-216.23C1553.25,-205.38 1448.29,-191.28 1366.7,-180.31"/>
<polygon fill="black" stroke="black" points="1367.23,-176.85 1356.85,-178.99 1366.29,-183.79 1367.23,-176.85"/>
</g>
<!-- 44&#45;&gt;13 -->
<g id="edge51" class="edge">
<title>44&#45;&gt;13</title>
<path fill="none" stroke="black" d="M1244.07,-513.11C1163.84,-502.57 1023.08,-483.58 919.43,-469.36"/>
<polygon fill="black" stroke="black" points="920.14,-465.93 909.75,-468.03 919.18,-472.86 920.14,-465.93"/>
</g>
<!-- 44&#45;&gt;21 -->
<g id="edge50" class="edge">
<title>44&#45;&gt;21</title>
<path fill="none" stroke="black" d="M1377.47,-519.19C1571.33,-513.99 2127.9,-497.46 2589.83,-468 2607.28,-466.89 2625.58,-465.54 2643.71,-464.11"/>
<polygon fill="black" stroke="black" points="2643.77,-467.61 2653.45,-463.32 2643.2,-460.64 2643.77,-467.61"/>
</g>
<!-- 44&#45;&gt;24 -->
<g id="edge49" class="edge">
<title>44&#45;&gt;24</title>
<path fill="none" stroke="black" d="M1336,-505.29C1353.39,-495.93 1375.75,-483.89 1395,-473.53"/>
<polygon fill="black" stroke="black" points="1396.54,-476.67 1403.69,-468.85 1393.23,-470.5 1396.54,-476.67"/>
</g>
<!-- 46 -->
<g id="node47" class="node">
<title>46</title>
<ellipse fill="none" stroke="black" cx="2329.83" cy="-450" rx="251.47" ry="18"/>
<text text-anchor="middle" x="2329.83" y="-444.95" font-family="Times New Roman,serif" font-size="14.00">You: “这个房间应该是空的。你是闯进去的吗？”</text>
</g>
<!-- 44&#45;&gt;46 -->
<g id="edge52" class="edge">
<title>44&#45;&gt;46</title>
<path fill="none" stroke="black" d="M1375.14,-516.33C1529.55,-505.76 1910,-479.73 2141.31,-463.9"/>
<polygon fill="black" stroke="black" points="2141.31,-467.41 2151.04,-463.23 2140.83,-460.42 2141.31,-467.41"/>
</g>
<!-- 45&#45;&gt;44 -->
<g id="edge53" class="edge">
<title>45&#45;&gt;44</title>
<path fill="none" stroke="black" d="M480.99,-30.51C407.2,-45.98 310.83,-81.42 310.83,-161 310.83,-379 310.83,-379 310.83,-379 310.83,-419.45 299.09,-441.72 329.83,-468 363.62,-496.88 995.46,-513.97 1224.66,-519.24"/>
<polygon fill="black" stroke="black" points="1224.33,-522.73 1234.41,-519.46 1224.49,-515.73 1224.33,-522.73"/>
</g>
<!-- 46&#45;&gt;17 -->
<g id="edge54" class="edge">
<title>46&#45;&gt;17</title>
<path fill="none" stroke="black" d="M2168.86,-435.81C2062.03,-426.39 1918.81,-412.5 1792.83,-396 1778.16,-394.08 1762.38,-391.67 1747.65,-389.28"/>
<polygon fill="black" stroke="black" points="1748.56,-385.89 1738.12,-387.71 1747.42,-392.79 1748.56,-385.89"/>
</g>
<!-- 47&#45;&gt;43 -->
<g id="edge55" class="edge">
<title>47&#45;&gt;43</title>
<path fill="none" stroke="black" d="M1758.83,-287.7C1758.83,-280.41 1758.83,-271.73 1758.83,-263.54"/>
<polygon fill="black" stroke="black" points="1762.33,-263.62 1758.83,-253.62 1755.33,-263.62 1762.33,-263.62"/>
</g>
</g>
</svg>
