<?xml version="1.0" encoding="UTF-8" standalone="no"?>
<!DOCTYPE svg PUBLIC "-//W3C//DTD SVG 1.1//EN"
 "http://www.w3.org/Graphics/SVG/1.1/DTD/svg11.dtd">
<!-- Generated by graphviz version 12.2.1 (20241206.2353)
 -->
<!-- Title: G Pages: 1 -->
<svg width="2242pt" height="1196pt"
 viewBox="0.00 0.00 2242.23 1196.00" xmlns="http://www.w3.org/2000/svg" xmlns:xlink="http://www.w3.org/1999/xlink">
<g id="graph0" class="graph" transform="scale(1 1) rotate(0) translate(4 1192)">
<title>G</title>
<polygon fill="white" stroke="none" points="-4,4 -4,-1192 2238.23,-1192 2238.23,4 -4,4"/>
<!-- 0 -->
<g id="node1" class="node">
<title>0</title>
<ellipse fill="none" stroke="black" cx="1116.53" cy="-1170" rx="39.07" ry="18"/>
<text text-anchor="middle" x="1116.53" y="-1164.95" font-family="Times New Roman,serif" font-size="14.00">START</text>
</g>
<!-- 1 -->
<g id="node2" class="node">
<title>1</title>
<ellipse fill="none" stroke="black" cx="1116.53" cy="-1098" rx="29.86" ry="18"/>
<text text-anchor="middle" x="1116.53" y="-1092.95" font-family="Times New Roman,serif" font-size="14.00">input</text>
</g>
<!-- 0&#45;&gt;1 -->
<g id="edge1" class="edge">
<title>0&#45;&gt;1</title>
<path fill="none" stroke="black" d="M1116.53,-1151.7C1116.53,-1144.41 1116.53,-1135.73 1116.53,-1127.54"/>
<polygon fill="black" stroke="black" points="1120.03,-1127.62 1116.53,-1117.62 1113.03,-1127.62 1120.03,-1127.62"/>
</g>
<!-- 6 -->
<g id="node6" class="node">
<title>6</title>
<ellipse fill="none" stroke="black" cx="1116.53" cy="-1026" rx="737.17" ry="18"/>
<text text-anchor="middle" x="1116.53" y="-1020.95" font-family="Times New Roman,serif" font-size="14.00">Writing Desk: 一本电话簿躺在桌子上，压在一叠物业账单上面。就在它旁边，一小瓶安非他命就摆在十分显眼的地方，还方便地配了一根吸管。</text>
</g>
<!-- 1&#45;&gt;6 -->
<g id="edge2" class="edge">
<title>1&#45;&gt;6</title>
<path fill="none" stroke="black" d="M1116.53,-1079.7C1116.53,-1072.41 1116.53,-1063.73 1116.53,-1055.54"/>
<polygon fill="black" stroke="black" points="1120.03,-1055.62 1116.53,-1045.62 1113.03,-1055.62 1120.03,-1055.62"/>
</g>
<!-- 2 -->
<g id="node3" class="node">
<title>2</title>
<ellipse fill="none" stroke="black" cx="236.53" cy="-234" rx="86.67" ry="18"/>
<text text-anchor="middle" x="236.53" y="-228.95" font-family="Times New Roman,serif" font-size="14.00">Jump to: [table hub]</text>
</g>
<!-- 14 -->
<g id="node14" class="node">
<title>14</title>
<ellipse fill="none" stroke="black" cx="1117.53" cy="-522" rx="45.21" ry="18"/>
<text text-anchor="middle" x="1117.53" y="-516.95" font-family="Times New Roman,serif" font-size="14.00">table hub</text>
</g>
<!-- 2&#45;&gt;14 -->
<g id="edge3" class="edge">
<title>2&#45;&gt;14</title>
<path fill="none" stroke="black" d="M154.48,-240.05C73.5,-248.22 -32.43,-269.4 10.53,-324 142.19,-491.32 853.25,-516.53 1060.69,-520.33"/>
<polygon fill="black" stroke="black" points="1060.62,-523.83 1070.68,-520.5 1060.74,-516.83 1060.62,-523.83"/>
</g>
<!-- 3 -->
<g id="node4" class="node">
<title>3</title>
<ellipse fill="none" stroke="black" cx="865.53" cy="-450" rx="251.47" ry="18"/>
<text text-anchor="middle" x="865.53" y="-444.95" font-family="Times New Roman,serif" font-size="14.00">You: “警督，我在桌子上发现了精神活性物质。”</text>
</g>
<!-- 5 -->
<g id="node5" class="node">
<title>5</title>
<ellipse fill="none" stroke="black" cx="524.53" cy="-378" rx="160.37" ry="18"/>
<text text-anchor="middle" x="524.53" y="-372.95" font-family="Times New Roman,serif" font-size="14.00">Kim Kitsuragi: “很好，没收了。”</text>
</g>
<!-- 3&#45;&gt;5 -->
<g id="edge4" class="edge">
<title>3&#45;&gt;5</title>
<path fill="none" stroke="black" d="M785.15,-432.5C732.66,-421.73 664.19,-407.67 610.61,-396.67"/>
<polygon fill="black" stroke="black" points="611.39,-393.26 600.89,-394.68 609.98,-400.12 611.39,-393.26"/>
</g>
<!-- 8 -->
<g id="node8" class="node">
<title>8</title>
<ellipse fill="none" stroke="black" cx="481.53" cy="-306" rx="462.33" ry="18"/>
<text text-anchor="middle" x="481.53" y="-300.95" font-family="Times New Roman,serif" font-size="14.00">Esprit de Corps: 这么少量的安非他命，警督压根就不会感兴趣的。他在听其他房间的动静。</text>
</g>
<!-- 5&#45;&gt;8 -->
<g id="edge5" class="edge">
<title>5&#45;&gt;8</title>
<path fill="none" stroke="black" d="M513.9,-359.7C509.11,-351.9 503.34,-342.51 498.01,-333.83"/>
<polygon fill="black" stroke="black" points="501.04,-332.08 492.83,-325.39 495.08,-335.75 501.04,-332.08"/>
</g>
<!-- 11 -->
<g id="node11" class="node">
<title>11</title>
<ellipse fill="none" stroke="black" cx="1116.53" cy="-954" rx="336.94" ry="18"/>
<text text-anchor="middle" x="1116.53" y="-948.95" font-family="Times New Roman,serif" font-size="14.00">Variable[&quot;TASK.get_speed&quot;] == true &#160;and &#160;Variable[&quot;TASK.get_speed_done&quot;] == false</text>
</g>
<!-- 6&#45;&gt;11 -->
<g id="edge6" class="edge">
<title>6&#45;&gt;11</title>
<path fill="none" stroke="black" d="M1116.53,-1007.7C1116.53,-1000.41 1116.53,-991.73 1116.53,-983.54"/>
<polygon fill="black" stroke="black" points="1120.03,-983.62 1116.53,-973.62 1113.03,-983.62 1120.03,-983.62"/>
</g>
<!-- 7 -->
<g id="node7" class="node">
<title>7</title>
<ellipse fill="none" stroke="black" cx="1582.53" cy="-306" rx="620.99" ry="18"/>
<text text-anchor="middle" x="1582.53" y="-300.95" font-family="Times New Roman,serif" font-size="14.00">Electrochemistry: 别等了，现在就庆祝吧！把这玩意一口气干个精光！等搜查完这张无聊的桌子，马上就去清点一下存货！</text>
</g>
<!-- 22 -->
<g id="node22" class="node">
<title>22</title>
<ellipse fill="none" stroke="black" cx="1582.53" cy="-234" rx="180.84" ry="18"/>
<text text-anchor="middle" x="1582.53" y="-228.95" font-family="Times New Roman,serif" font-size="14.00">Variable[&quot;apt.cuno_dad_main_hub_reached&quot;]</text>
</g>
<!-- 7&#45;&gt;22 -->
<g id="edge7" class="edge">
<title>7&#45;&gt;22</title>
<path fill="none" stroke="black" d="M1582.53,-287.7C1582.53,-280.41 1582.53,-271.73 1582.53,-263.54"/>
<polygon fill="black" stroke="black" points="1586.03,-263.62 1582.53,-253.62 1579.03,-263.62 1586.03,-263.62"/>
</g>
<!-- 8&#45;&gt;2 -->
<g id="edge8" class="edge">
<title>8&#45;&gt;2</title>
<path fill="none" stroke="black" d="M420.97,-287.7C383.18,-276.9 334.72,-263.05 296.95,-252.26"/>
<polygon fill="black" stroke="black" points="298.14,-248.96 287.56,-249.58 296.21,-255.69 298.14,-248.96"/>
</g>
<!-- 9 -->
<g id="node9" class="node">
<title>9</title>
<ellipse fill="none" stroke="black" cx="694.53" cy="-810" rx="338.48" ry="18"/>
<text text-anchor="middle" x="694.53" y="-804.95" font-family="Times New Roman,serif" font-size="14.00">Electrochemistry: 找到了！它就在那里，宝贝。今天是你的幸运日。</text>
</g>
<!-- 15 -->
<g id="node15" class="node">
<title>15</title>
<ellipse fill="none" stroke="black" cx="1117.53" cy="-738" rx="58.52" ry="18"/>
<text text-anchor="middle" x="1117.53" y="-732.95" font-family="Times New Roman,serif" font-size="14.00">IsKimHere()</text>
</g>
<!-- 9&#45;&gt;15 -->
<g id="edge9" class="edge">
<title>9&#45;&gt;15</title>
<path fill="none" stroke="black" d="M795.04,-792.37C876.05,-778.96 987.37,-760.54 1055.77,-749.22"/>
<polygon fill="black" stroke="black" points="1056,-752.73 1065.29,-747.64 1054.86,-745.82 1056,-752.73"/>
</g>
<!-- 10 -->
<g id="node10" class="node">
<title>10</title>
<ellipse fill="none" stroke="black" cx="1327.53" cy="-450" rx="149.11" ry="18"/>
<text text-anchor="middle" x="1327.53" y="-444.95" font-family="Times New Roman,serif" font-size="14.00">You: 从桌子上拿走思必得。</text>
</g>
<!-- 21 -->
<g id="node21" class="node">
<title>21</title>
<ellipse fill="none" stroke="black" cx="1412.53" cy="-378" rx="360.48" ry="18"/>
<text text-anchor="middle" x="1412.53" y="-372.95" font-family="Times New Roman,serif" font-size="14.00">Writing Desk: 你把瓶子塞进口袋，好像这是世界上最自然的一件事情。</text>
</g>
<!-- 10&#45;&gt;21 -->
<g id="edge10" class="edge">
<title>10&#45;&gt;21</title>
<path fill="none" stroke="black" d="M1348.54,-431.7C1358.86,-423.2 1371.47,-412.81 1382.76,-403.51"/>
<polygon fill="black" stroke="black" points="1384.8,-406.37 1390.29,-397.31 1380.35,-400.96 1384.8,-406.37"/>
</g>
<!-- 12 -->
<g id="node12" class="node">
<title>12</title>
<polygon fill="none" stroke="black" points="864.53,-900 388.02,-882 864.53,-864 1341.03,-882 864.53,-900"/>
<text text-anchor="middle" x="864.53" y="-876.95" font-family="Times New Roman,serif" font-size="14.00">Variable[&quot;TASK.get_speed&quot;] == true &#160;and &#160;Variable[&quot;TASK.get_speed_done&quot;] == false</text>
</g>
<!-- 11&#45;&gt;12 -->
<g id="edge11" class="edge">
<title>11&#45;&gt;12</title>
<path fill="none" stroke="black" d="M1054.88,-935.88C1017.35,-925.45 969.4,-912.13 931.02,-901.47"/>
<polygon fill="black" stroke="black" points="931.99,-898.11 921.41,-898.8 930.11,-904.85 931.99,-898.11"/>
</g>
<!-- 13 -->
<g id="node13" class="node">
<title>13</title>
<polygon fill="none" stroke="black" points="1540.53,-828 1050.99,-810 1540.53,-792 2030.06,-810 1540.53,-828"/>
<text text-anchor="middle" x="1540.53" y="-804.95" font-family="Times New Roman,serif" font-size="14.00">!(Variable[&quot;TASK.get_speed&quot;] == true &#160;and &#160;Variable[&quot;TASK.get_speed_done&quot;] == false)</text>
</g>
<!-- 11&#45;&gt;13 -->
<g id="edge12" class="edge">
<title>11&#45;&gt;13</title>
<path fill="none" stroke="black" d="M1211.75,-936.27C1254.74,-927.49 1305.81,-915.34 1350.53,-900 1404.38,-881.53 1463.3,-852.44 1501.03,-832.58"/>
<polygon fill="black" stroke="black" points="1502.56,-835.73 1509.75,-827.95 1499.27,-829.54 1502.56,-835.73"/>
</g>
<!-- 12&#45;&gt;9 -->
<g id="edge13" class="edge">
<title>12&#45;&gt;9</title>
<path fill="none" stroke="black" d="M825.95,-865.12C802.64,-855.52 772.6,-843.15 747.13,-832.66"/>
<polygon fill="black" stroke="black" points="748.5,-829.44 737.92,-828.87 745.84,-835.91 748.5,-829.44"/>
</g>
<!-- 13&#45;&gt;15 -->
<g id="edge14" class="edge">
<title>13&#45;&gt;15</title>
<path fill="none" stroke="black" d="M1454.16,-794.71C1372.51,-781.2 1252,-761.25 1179.49,-749.25"/>
<polygon fill="black" stroke="black" points="1180.21,-745.83 1169.77,-747.65 1179.07,-752.73 1180.21,-745.83"/>
</g>
<!-- 14&#45;&gt;3 -->
<g id="edge17" class="edge">
<title>14&#45;&gt;3</title>
<path fill="none" stroke="black" d="M1081.15,-510.9C1043.68,-500.49 984.27,-483.98 937.29,-470.93"/>
<polygon fill="black" stroke="black" points="938.28,-467.58 927.7,-468.27 936.4,-474.32 938.28,-467.58"/>
</g>
<!-- 14&#45;&gt;10 -->
<g id="edge16" class="edge">
<title>14&#45;&gt;10</title>
<path fill="none" stroke="black" d="M1151.27,-509.75C1182.5,-499.34 1229.67,-483.62 1267.35,-471.06"/>
<polygon fill="black" stroke="black" points="1268.39,-474.4 1276.77,-467.92 1266.18,-467.76 1268.39,-474.4"/>
</g>
<!-- 18 -->
<g id="node18" class="node">
<title>18</title>
<ellipse fill="none" stroke="black" cx="1783.53" cy="-18" rx="72.85" ry="18"/>
<text text-anchor="middle" x="1783.53" y="-12.95" font-family="Times New Roman,serif" font-size="14.00">You: [离开。]</text>
</g>
<!-- 14&#45;&gt;18 -->
<g id="edge15" class="edge">
<title>14&#45;&gt;18</title>
<path fill="none" stroke="black" d="M1162.92,-520.07C1371.94,-515.22 2231.53,-488.61 2231.53,-379 2231.53,-379 2231.53,-379 2231.53,-161 2231.53,-120.55 2242.35,-99.32 2212.53,-72 2163.76,-27.32 1978.77,-19.04 1868.27,-18.22"/>
<polygon fill="black" stroke="black" points="1868.36,-14.72 1858.34,-18.17 1868.32,-21.72 1868.36,-14.72"/>
</g>
<!-- 16 -->
<g id="node16" class="node">
<title>16</title>
<polygon fill="none" stroke="black" points="1062.53,-684 979.77,-666 1062.53,-648 1145.28,-666 1062.53,-684"/>
<text text-anchor="middle" x="1062.53" y="-660.95" font-family="Times New Roman,serif" font-size="14.00">IsKimHere()</text>
</g>
<!-- 15&#45;&gt;16 -->
<g id="edge18" class="edge">
<title>15&#45;&gt;16</title>
<path fill="none" stroke="black" d="M1104.21,-720.05C1097.35,-711.32 1088.85,-700.51 1081.33,-690.93"/>
<polygon fill="black" stroke="black" points="1084.09,-688.78 1075.16,-683.08 1078.59,-693.1 1084.09,-688.78"/>
</g>
<!-- 17 -->
<g id="node17" class="node">
<title>17</title>
<polygon fill="none" stroke="black" points="1354.53,-612 1258.74,-594 1354.53,-576 1450.31,-594 1354.53,-612"/>
<text text-anchor="middle" x="1354.53" y="-588.95" font-family="Times New Roman,serif" font-size="14.00">!(IsKimHere())</text>
</g>
<!-- 15&#45;&gt;17 -->
<g id="edge19" class="edge">
<title>15&#45;&gt;17</title>
<path fill="none" stroke="black" d="M1143.34,-721.53C1187.04,-695.35 1275.46,-642.37 1322.84,-613.98"/>
<polygon fill="black" stroke="black" points="1324.5,-617.07 1331.28,-608.93 1320.9,-611.07 1324.5,-617.07"/>
</g>
<!-- 19 -->
<g id="node19" class="node">
<title>19</title>
<ellipse fill="none" stroke="black" cx="881.53" cy="-594" rx="359.46" ry="18"/>
<text text-anchor="middle" x="881.53" y="-588.95" font-family="Times New Roman,serif" font-size="14.00">Savoir Faire: 你可以把瓶子直接塞进口袋——警督甚至都不会注意到……</text>
</g>
<!-- 16&#45;&gt;19 -->
<g id="edge20" class="edge">
<title>16&#45;&gt;19</title>
<path fill="none" stroke="black" d="M1033.85,-653.91C1007.88,-643.86 968.89,-628.79 936.87,-616.4"/>
<polygon fill="black" stroke="black" points="938.3,-613.2 927.71,-612.86 935.78,-619.73 938.3,-613.2"/>
</g>
<!-- 17&#45;&gt;14 -->
<g id="edge21" class="edge">
<title>17&#45;&gt;14</title>
<path fill="none" stroke="black" d="M1318.53,-582.37C1277.23,-570.17 1209.38,-550.13 1164.08,-536.75"/>
<polygon fill="black" stroke="black" points="1165.12,-533.41 1154.54,-533.93 1163.13,-540.12 1165.12,-533.41"/>
</g>
<!-- 19&#45;&gt;14 -->
<g id="edge22" class="edge">
<title>19&#45;&gt;14</title>
<path fill="none" stroke="black" d="M939.56,-575.79C980.18,-563.74 1033.71,-547.86 1071.42,-536.68"/>
<polygon fill="black" stroke="black" points="1072.05,-540.14 1080.64,-533.94 1070.06,-533.43 1072.05,-540.14"/>
</g>
<!-- 20 -->
<g id="node20" class="node">
<title>20</title>
<ellipse fill="none" stroke="black" cx="1783.53" cy="-90" rx="419.85" ry="18"/>
<text text-anchor="middle" x="1783.53" y="-84.95" font-family="Times New Roman,serif" font-size="14.00">Half Light: 在你面对那头野兽，德鲁伊特之前，一口气干了它。你需要一点鼓励。</text>
</g>
<!-- 20&#45;&gt;18 -->
<g id="edge23" class="edge">
<title>20&#45;&gt;18</title>
<path fill="none" stroke="black" d="M1783.53,-71.7C1783.53,-64.41 1783.53,-55.73 1783.53,-47.54"/>
<polygon fill="black" stroke="black" points="1787.03,-47.62 1783.53,-37.62 1780.03,-47.62 1787.03,-47.62"/>
</g>
<!-- 21&#45;&gt;7 -->
<g id="edge24" class="edge">
<title>21&#45;&gt;7</title>
<path fill="none" stroke="black" d="M1454.55,-359.7C1477.33,-350.32 1505.7,-338.63 1529.94,-328.65"/>
<polygon fill="black" stroke="black" points="1531.08,-331.97 1539,-324.92 1528.42,-325.49 1531.08,-331.97"/>
</g>
<!-- 23 -->
<g id="node23" class="node">
<title>23</title>
<polygon fill="none" stroke="black" points="1089.53,-108 833.78,-90 1089.53,-72 1345.27,-90 1089.53,-108"/>
<text text-anchor="middle" x="1089.53" y="-84.95" font-family="Times New Roman,serif" font-size="14.00">Variable[&quot;apt.cuno_dad_main_hub_reached&quot;]</text>
</g>
<!-- 22&#45;&gt;23 -->
<g id="edge26" class="edge">
<title>22&#45;&gt;23</title>
<path fill="none" stroke="black" d="M1525.49,-216.57C1431.5,-189.5 1244.98,-135.77 1149.25,-108.2"/>
<polygon fill="black" stroke="black" points="1150.35,-104.88 1139.78,-105.47 1148.42,-111.6 1150.35,-104.88"/>
</g>
<!-- 24 -->
<g id="node24" class="node">
<title>24</title>
<polygon fill="none" stroke="black" points="1682.53,-180 1413.75,-162 1682.53,-144 1951.3,-162 1682.53,-180"/>
<text text-anchor="middle" x="1682.53" y="-156.95" font-family="Times New Roman,serif" font-size="14.00">!(Variable[&quot;apt.cuno_dad_main_hub_reached&quot;])</text>
</g>
<!-- 22&#45;&gt;24 -->
<g id="edge25" class="edge">
<title>22&#45;&gt;24</title>
<path fill="none" stroke="black" d="M1607.25,-215.7C1620.31,-206.55 1636.5,-195.22 1650.51,-185.41"/>
<polygon fill="black" stroke="black" points="1652.38,-188.38 1658.56,-179.78 1648.36,-182.64 1652.38,-188.38"/>
</g>
<!-- 23&#45;&gt;18 -->
<g id="edge27" class="edge">
<title>23&#45;&gt;18</title>
<path fill="none" stroke="black" d="M1191.56,-78.71C1331.49,-64.59 1579.91,-39.54 1705.78,-26.84"/>
<polygon fill="black" stroke="black" points="1706.1,-30.33 1715.7,-25.84 1705.4,-23.36 1706.1,-30.33"/>
</g>
<!-- 24&#45;&gt;20 -->
<g id="edge28" class="edge">
<title>24&#45;&gt;20</title>
<path fill="none" stroke="black" d="M1705.45,-145.12C1718.43,-136.12 1734.93,-124.68 1749.41,-114.65"/>
<polygon fill="black" stroke="black" points="1751.11,-117.73 1757.33,-109.15 1747.12,-111.97 1751.11,-117.73"/>
</g>
</g>
</svg>
