<?xml version="1.0" encoding="UTF-8" standalone="no"?>
<!DOCTYPE svg PUBLIC "-//W3C//DTD SVG 1.1//EN"
 "http://www.w3.org/Graphics/SVG/1.1/DTD/svg11.dtd">
<!-- Generated by graphviz version 12.2.1 (20241206.2353)
 -->
<!-- Title: G Pages: 1 -->
<svg width="4630pt" height="1124pt"
 viewBox="0.00 0.00 4630.14 1124.00" xmlns="http://www.w3.org/2000/svg" xmlns:xlink="http://www.w3.org/1999/xlink">
<g id="graph0" class="graph" transform="scale(1 1) rotate(0) translate(4 1120)">
<title>G</title>
<polygon fill="white" stroke="none" points="-4,4 -4,-1120 4626.14,-1120 4626.14,4 -4,4"/>
<!-- 0 -->
<g id="node1" class="node">
<title>0</title>
<ellipse fill="none" stroke="black" cx="1353.56" cy="-1098" rx="39.07" ry="18"/>
<text text-anchor="middle" x="1353.56" y="-1092.95" font-family="Times New Roman,serif" font-size="14.00">START</text>
</g>
<!-- 0&#45;&gt;0 -->
<g id="edge1" class="edge">
<title>0&#45;&gt;0</title>
<path fill="none" stroke="black" d="M1381.75,-1110.94C1396.86,-1113.14 1410.63,-1108.83 1410.63,-1098 1410.63,-1089.96 1403.05,-1085.52 1392.96,-1084.65"/>
<polygon fill="black" stroke="black" points="1393.13,-1081.15 1383.26,-1085 1393.38,-1088.14 1393.13,-1081.15"/>
</g>
<!-- 1 -->
<g id="node2" class="node">
<title>1</title>
<ellipse fill="none" stroke="black" cx="1767.56" cy="-1026" rx="29.86" ry="18"/>
<text text-anchor="middle" x="1767.56" y="-1020.95" font-family="Times New Roman,serif" font-size="14.00">input</text>
</g>
<!-- 31 -->
<g id="node29" class="node">
<title>31</title>
<ellipse fill="none" stroke="black" cx="1202.56" cy="-954" rx="180.33" ry="18"/>
<text text-anchor="middle" x="1202.56" y="-948.95" font-family="Times New Roman,serif" font-size="14.00">Visual Calculus: 就是这样。你懂了。</text>
</g>
<!-- 1&#45;&gt;31 -->
<g id="edge2" class="edge">
<title>1&#45;&gt;31</title>
<path fill="none" stroke="black" d="M1738.38,-1021.38C1662.77,-1012.02 1457.15,-986.54 1323.74,-970.01"/>
<polygon fill="black" stroke="black" points="1324.52,-966.58 1314.17,-968.83 1323.66,-973.53 1324.52,-966.58"/>
</g>
<!-- 2 -->
<g id="node3" class="node">
<title>2</title>
<ellipse fill="none" stroke="black" cx="1751.56" cy="-594" rx="113.79" ry="18"/>
<text text-anchor="middle" x="1751.56" y="-588.95" font-family="Times New Roman,serif" font-size="14.00">You: 我是个侦探吗？</text>
</g>
<!-- 22 -->
<g id="node20" class="node">
<title>22</title>
<ellipse fill="none" stroke="black" cx="1736.56" cy="-522" rx="228.95" ry="18"/>
<text text-anchor="middle" x="1736.56" y="-516.95" font-family="Times New Roman,serif" font-size="14.00">You: 所以*是*那个腐败的警长把他们杀了？</text>
</g>
<!-- 2&#45;&gt;22 -->
<g id="edge3" class="edge">
<title>2&#45;&gt;22</title>
<path fill="none" stroke="black" d="M1747.86,-575.7C1746.28,-568.32 1744.39,-559.52 1742.62,-551.25"/>
<polygon fill="black" stroke="black" points="1746.06,-550.63 1740.55,-541.58 1739.22,-552.1 1746.06,-550.63"/>
</g>
<!-- 4 -->
<g id="node4" class="node">
<title>4</title>
<ellipse fill="none" stroke="black" cx="4257.56" cy="-378" rx="364.58" ry="18"/>
<text text-anchor="middle" x="4257.56" y="-372.95" font-family="Times New Roman,serif" font-size="14.00">Visual Calculus: 侦探，密探，神探，窥视者——像马伦和你这样的男人。</text>
</g>
<!-- 27 -->
<g id="node25" class="node">
<title>27</title>
<ellipse fill="none" stroke="black" cx="4257.56" cy="-306" rx="184.42" ry="18"/>
<text text-anchor="middle" x="4257.56" y="-300.95" font-family="Times New Roman,serif" font-size="14.00">You: 等等，你为什么要这么说话？</text>
</g>
<!-- 4&#45;&gt;27 -->
<g id="edge12" class="edge">
<title>4&#45;&gt;27</title>
<path fill="none" stroke="black" d="M4257.56,-359.7C4257.56,-352.41 4257.56,-343.73 4257.56,-335.54"/>
<polygon fill="black" stroke="black" points="4261.06,-335.62 4257.56,-325.62 4254.06,-335.62 4261.06,-335.62"/>
</g>
<!-- 5 -->
<g id="node5" class="node">
<title>5</title>
<ellipse fill="none" stroke="black" cx="3209.56" cy="-234" rx="217.18" ry="18"/>
<text text-anchor="middle" x="3209.56" y="-228.95" font-family="Times New Roman,serif" font-size="14.00">You: 所以*是*康米主义者送他们入土的？</text>
</g>
<!-- 6 -->
<g id="node6" class="node">
<title>6</title>
<ellipse fill="none" stroke="black" cx="2833.56" cy="-450" rx="244.3" ry="18"/>
<text text-anchor="middle" x="2833.56" y="-444.95" font-family="Times New Roman,serif" font-size="14.00">Electrochemistry: 这就是为什么你永远不该看书。</text>
</g>
<!-- 5&#45;&gt;6 -->
<g id="edge13" class="edge">
<title>5&#45;&gt;6</title>
<path fill="none" stroke="black" d="M3106.3,-250.28C2991,-269.71 2815.32,-307.18 2775.56,-360 2765.94,-372.78 2769.11,-381.36 2775.56,-396 2780.4,-406.97 2788.75,-416.66 2797.64,-424.65"/>
<polygon fill="black" stroke="black" points="2795.13,-427.11 2805.06,-430.81 2799.6,-421.73 2795.13,-427.11"/>
</g>
<!-- 6&#45;&gt;4 -->
<g id="edge16" class="edge">
<title>6&#45;&gt;4</title>
<path fill="none" stroke="black" d="M3032.31,-439.23C3283.33,-426.89 3715.99,-405.62 3994.28,-391.94"/>
<polygon fill="black" stroke="black" points="3994.44,-395.44 4004.25,-391.45 3994.09,-388.45 3994.44,-395.44"/>
</g>
<!-- 21 -->
<g id="node19" class="node">
<title>21</title>
<ellipse fill="none" stroke="black" cx="3662.56" cy="-378" rx="212.06" ry="18"/>
<text text-anchor="middle" x="3662.56" y="-372.95" font-family="Times New Roman,serif" font-size="14.00">Composure: 你说得对，他以前更有礼貌。</text>
</g>
<!-- 6&#45;&gt;21 -->
<g id="edge18" class="edge">
<title>6&#45;&gt;21</title>
<path fill="none" stroke="black" d="M2989.98,-435.79C3137.35,-423.35 3357,-404.8 3504.8,-392.32"/>
<polygon fill="black" stroke="black" points="3505.03,-395.81 3514.7,-391.49 3504.44,-388.84 3505.03,-395.81"/>
</g>
<!-- 23 -->
<g id="node21" class="node">
<title>23</title>
<ellipse fill="none" stroke="black" cx="628.56" cy="-378" rx="262.73" ry="18"/>
<text text-anchor="middle" x="628.56" y="-372.95" font-family="Times New Roman,serif" font-size="14.00">Visual Calculus: 一针见血。窥视者。而且还很厉害。</text>
</g>
<!-- 6&#45;&gt;23 -->
<g id="edge19" class="edge">
<title>6&#45;&gt;23</title>
<path fill="none" stroke="black" d="M2597.15,-445.2C2232.6,-438.75 1511.31,-423.56 899.56,-396 874.43,-394.87 847.99,-393.47 821.89,-391.96"/>
<polygon fill="black" stroke="black" points="822.43,-388.49 812.24,-391.4 822.02,-395.48 822.43,-388.49"/>
</g>
<!-- 25 -->
<g id="node23" class="node">
<title>25</title>
<ellipse fill="none" stroke="black" cx="1379.56" cy="-378" rx="470.52" ry="18"/>
<text text-anchor="middle" x="1379.56" y="-372.95" font-family="Times New Roman,serif" font-size="14.00">Visual Calculus: 那是因为你是个披着警察外衣的侦探，本质上——就是个彻头彻尾的窥探者。</text>
</g>
<!-- 6&#45;&gt;25 -->
<g id="edge20" class="edge">
<title>6&#45;&gt;25</title>
<path fill="none" stroke="black" d="M2633.68,-439.38C2385.95,-427.45 1961.65,-407.02 1675.99,-393.27"/>
<polygon fill="black" stroke="black" points="1676.29,-389.78 1666.13,-392.8 1675.95,-396.77 1676.29,-389.78"/>
</g>
<!-- 35 -->
<g id="node33" class="node">
<title>35</title>
<ellipse fill="none" stroke="black" cx="3072.56" cy="-378" rx="287.81" ry="18"/>
<text text-anchor="middle" x="3072.56" y="-372.95" font-family="Times New Roman,serif" font-size="14.00">You: 所以马伦*真的*把他最好的朋友和那个女人杀了？</text>
</g>
<!-- 6&#45;&gt;35 -->
<g id="edge14" class="edge">
<title>6&#45;&gt;35</title>
<path fill="none" stroke="black" d="M2885.84,-431.97C2918.6,-422.06 2961.3,-409.53 2997.62,-399.14"/>
<polygon fill="black" stroke="black" points="2998.56,-402.51 3007.22,-396.4 2996.64,-395.78 2998.56,-402.51"/>
</g>
<!-- 36 -->
<g id="node34" class="node">
<title>36</title>
<ellipse fill="none" stroke="black" cx="2546.56" cy="-378" rx="181.86" ry="18"/>
<text text-anchor="middle" x="2546.56" y="-372.95" font-family="Times New Roman,serif" font-size="14.00">You: 所以他们*真的*死了都要爱？</text>
</g>
<!-- 6&#45;&gt;36 -->
<g id="edge15" class="edge">
<title>6&#45;&gt;36</title>
<path fill="none" stroke="black" d="M2759.71,-432.41C2716.35,-422.11 2661.83,-408.83 2618.75,-398.09"/>
<polygon fill="black" stroke="black" points="2619.8,-394.75 2609.25,-395.72 2618.1,-401.54 2619.8,-394.75"/>
</g>
<!-- 12 -->
<g id="node42" class="node">
<title>12</title>
<ellipse fill="none" stroke="black" cx="3405.56" cy="-378" rx="27" ry="18"/>
<text text-anchor="middle" x="3405.56" y="-372.95" font-family="Times New Roman,serif" font-size="14.00">12</text>
</g>
<!-- 6&#45;&gt;12 -->
<g id="edge17" class="edge">
<title>6&#45;&gt;12</title>
<path fill="none" stroke="black" d="M3062.96,-443.57C3159.06,-436.88 3271.1,-423.24 3369.56,-396 3371.19,-395.55 3372.83,-395.03 3374.47,-394.46"/>
<polygon fill="black" stroke="black" points="3375.74,-397.72 3383.69,-390.71 3373.11,-391.24 3375.74,-397.72"/>
</g>
<!-- 7 -->
<g id="node7" class="node">
<title>7</title>
<ellipse fill="none" stroke="black" cx="3055.56" cy="-738" rx="672.17" ry="18"/>
<text text-anchor="middle" x="3055.56" y="-732.95" font-family="Times New Roman,serif" font-size="14.00">Visual Calculus: 别像警察一样思考，警察不会破案。他们只会用镊子恐吓人，然后把他们带到大房子里。他们*解决*不了任何问题。</text>
</g>
<!-- 34 -->
<g id="node32" class="node">
<title>34</title>
<ellipse fill="none" stroke="black" cx="3055.56" cy="-666" rx="78.48" ry="18"/>
<text text-anchor="middle" x="3055.56" y="-660.95" font-family="Times New Roman,serif" font-size="14.00">You: 那是谁？</text>
</g>
<!-- 7&#45;&gt;34 -->
<g id="edge21" class="edge">
<title>7&#45;&gt;34</title>
<path fill="none" stroke="black" d="M3055.56,-719.7C3055.56,-712.41 3055.56,-703.73 3055.56,-695.54"/>
<polygon fill="black" stroke="black" points="3059.06,-695.62 3055.56,-685.62 3052.06,-695.62 3059.06,-695.62"/>
</g>
<!-- 9 -->
<g id="node8" class="node">
<title>9</title>
<ellipse fill="none" stroke="black" cx="692.56" cy="-738" rx="482.29" ry="18"/>
<text text-anchor="middle" x="692.56" y="-732.95" font-family="Times New Roman,serif" font-size="14.00">Visual Calculus: 我一直都是这么说话的。继续。这个骗局——像打折的保险箱一样一敲就碎了。</text>
</g>
<!-- 20 -->
<g id="node18" class="node">
<title>20</title>
<ellipse fill="none" stroke="black" cx="2655.56" cy="-666" rx="280.64" ry="18"/>
<text text-anchor="middle" x="2655.56" y="-660.95" font-family="Times New Roman,serif" font-size="14.00">Encyclopedia: 咳&#45;咳！这位警察18年来解决了216个案子。</text>
</g>
<!-- 9&#45;&gt;20 -->
<g id="edge22" class="edge">
<title>9&#45;&gt;20</title>
<path fill="none" stroke="black" d="M1088.59,-727.45C1427.66,-718.56 1928.84,-703.71 2365.56,-684 2392.24,-682.8 2420.29,-681.36 2448.01,-679.85"/>
<polygon fill="black" stroke="black" points="2448.13,-683.34 2457.93,-679.3 2447.75,-676.35 2448.13,-683.34"/>
</g>
<!-- 10 -->
<g id="node9" class="node">
<title>10</title>
<ellipse fill="none" stroke="black" cx="447.56" cy="-162" rx="66.71" ry="18"/>
<text text-anchor="middle" x="447.56" y="-156.95" font-family="Times New Roman,serif" font-size="14.00">You: 事情？</text>
</g>
<!-- 14 -->
<g id="node12" class="node">
<title>14</title>
<ellipse fill="none" stroke="black" cx="337.56" cy="-90" rx="66.71" ry="18"/>
<text text-anchor="middle" x="337.56" y="-84.95" font-family="Times New Roman,serif" font-size="14.00">You: 什么？</text>
</g>
<!-- 10&#45;&gt;14 -->
<g id="edge23" class="edge">
<title>10&#45;&gt;14</title>
<path fill="none" stroke="black" d="M422.33,-144.94C407.51,-135.51 388.58,-123.47 372.37,-113.15"/>
<polygon fill="black" stroke="black" points="374.28,-110.21 363.96,-107.8 370.52,-116.12 374.28,-110.21"/>
</g>
<!-- 11 -->
<g id="node10" class="node">
<title>11</title>
<ellipse fill="none" stroke="black" cx="1793.56" cy="-666" rx="563.16" ry="18"/>
<text text-anchor="middle" x="1793.56" y="-660.95" font-family="Times New Roman,serif" font-size="14.00">Logic: 查理．斯皮兰和狄安娜．德诺芙的死，迪克．马伦正在调查的案子——这场阴险的骗局一定就是这样。</text>
</g>
<!-- 11&#45;&gt;2 -->
<g id="edge24" class="edge">
<title>11&#45;&gt;2</title>
<path fill="none" stroke="black" d="M1783.18,-647.7C1778.5,-639.9 1772.87,-630.51 1767.66,-621.83"/>
<polygon fill="black" stroke="black" points="1770.75,-620.18 1762.6,-613.4 1764.75,-623.78 1770.75,-620.18"/>
</g>
<!-- 13 -->
<g id="node11" class="node">
<title>13</title>
<ellipse fill="none" stroke="black" cx="1202.56" cy="-810" rx="149.11" ry="18"/>
<text text-anchor="middle" x="1202.56" y="-804.95" font-family="Times New Roman,serif" font-size="14.00">You: 其实我觉得我想错了。</text>
</g>
<!-- 13&#45;&gt;6 -->
<g id="edge25" class="edge">
<title>13&#45;&gt;6</title>
<path fill="none" stroke="black" d="M1202.56,-791.51C1202.56,-764.71 1202.56,-711.87 1202.56,-667 1202.56,-667 1202.56,-667 1202.56,-593 1202.56,-455.63 1363.08,-526.68 1498.56,-504 1699.67,-470.33 2254.22,-457.91 2581.88,-453.43"/>
<polygon fill="black" stroke="black" points="2581.49,-456.94 2591.44,-453.3 2581.4,-449.94 2581.49,-456.94"/>
</g>
<!-- 16 -->
<g id="node14" class="node">
<title>16</title>
<ellipse fill="none" stroke="black" cx="337.56" cy="-18" rx="237.65" ry="18"/>
<text text-anchor="middle" x="337.56" y="-12.95" font-family="Times New Roman,serif" font-size="14.00">You: 不，我没有。不管是什么。[放弃思维。]</text>
</g>
<!-- 14&#45;&gt;16 -->
<g id="edge26" class="edge">
<title>14&#45;&gt;16</title>
<path fill="none" stroke="black" d="M337.56,-71.7C337.56,-64.41 337.56,-55.73 337.56,-47.54"/>
<polygon fill="black" stroke="black" points="341.06,-47.62 337.56,-37.62 334.06,-47.62 341.06,-47.62"/>
</g>
<!-- 15 -->
<g id="node13" class="node">
<title>15</title>
<ellipse fill="none" stroke="black" cx="766.56" cy="-882" rx="333.87" ry="18"/>
<text text-anchor="middle" x="766.56" y="-876.95" font-family="Times New Roman,serif" font-size="14.00">Visual Calculus: 大衣，帽子，这骗局太阴险了，Yeggman都破不了。</text>
</g>
<!-- 17 -->
<g id="node15" class="node">
<title>17</title>
<ellipse fill="none" stroke="black" cx="692.56" cy="-810" rx="133.24" ry="18"/>
<text text-anchor="middle" x="692.56" y="-804.95" font-family="Times New Roman,serif" font-size="14.00">Visual Calculus: 整个事情。</text>
</g>
<!-- 15&#45;&gt;17 -->
<g id="edge27" class="edge">
<title>15&#45;&gt;17</title>
<path fill="none" stroke="black" d="M748.27,-863.7C739.4,-855.3 728.58,-845.07 718.85,-835.86"/>
<polygon fill="black" stroke="black" points="721.41,-833.47 711.74,-829.14 716.6,-838.56 721.41,-833.47"/>
</g>
<!-- 17&#45;&gt;9 -->
<g id="edge29" class="edge">
<title>17&#45;&gt;9</title>
<path fill="none" stroke="black" d="M692.56,-791.7C692.56,-784.41 692.56,-775.73 692.56,-767.54"/>
<polygon fill="black" stroke="black" points="696.06,-767.62 692.56,-757.62 689.06,-767.62 696.06,-767.62"/>
</g>
<!-- 33 -->
<g id="node31" class="node">
<title>33</title>
<ellipse fill="none" stroke="black" cx="125.56" cy="-450" rx="125.56" ry="18"/>
<text text-anchor="middle" x="125.56" y="-444.95" font-family="Times New Roman,serif" font-size="14.00">You: 哦，大衣和帽子？</text>
</g>
<!-- 17&#45;&gt;33 -->
<g id="edge28" class="edge">
<title>17&#45;&gt;33</title>
<path fill="none" stroke="black" d="M570.17,-802.62C434.14,-794.47 229.77,-778.65 201.56,-756 169.02,-729.86 171.56,-708.74 171.56,-667 171.56,-667 171.56,-667 171.56,-593 171.56,-551.59 153.64,-506.55 140.17,-478.55"/>
<polygon fill="black" stroke="black" points="143.36,-477.09 135.77,-469.7 137.09,-480.21 143.36,-477.09"/>
</g>
<!-- 18 -->
<g id="node16" class="node">
<title>18</title>
<ellipse fill="none" stroke="black" cx="556.56" cy="-234" rx="408.59" ry="18"/>
<text text-anchor="middle" x="556.56" y="-228.95" font-family="Times New Roman,serif" font-size="14.00">Rhetoric: Yeggman……要么是专门抢劫金库的，要么就是只跟蛋黄打交道的家伙。</text>
</g>
<!-- 18&#45;&gt;10 -->
<g id="edge30" class="edge">
<title>18&#45;&gt;10</title>
<path fill="none" stroke="black" d="M529.62,-215.7C515.35,-206.53 497.65,-195.17 482.35,-185.34"/>
<polygon fill="black" stroke="black" points="484.28,-182.42 473.98,-179.96 480.5,-188.31 484.28,-182.42"/>
</g>
<!-- 19 -->
<g id="node17" class="node">
<title>19</title>
<ellipse fill="none" stroke="black" cx="2295.56" cy="-234" rx="196.19" ry="18"/>
<text text-anchor="middle" x="2295.56" y="-228.95" font-family="Times New Roman,serif" font-size="14.00">You: 我一直觉得自己像个私家侦探。</text>
</g>
<!-- 39 -->
<g id="node37" class="node">
<title>39</title>
<ellipse fill="none" stroke="black" cx="2295.56" cy="-162" rx="780.68" ry="18"/>
<text text-anchor="middle" x="2295.56" y="-156.95" font-family="Times New Roman,serif" font-size="14.00">Visual Calculus: 如果有任何疑问，请查阅值得信赖的迪克．马伦的书，重新建立起和真实的你、和他的联系。迪克．马伦。你。他。你们。模式：马伦。</text>
</g>
<!-- 19&#45;&gt;39 -->
<g id="edge31" class="edge">
<title>19&#45;&gt;39</title>
<path fill="none" stroke="black" d="M2295.56,-215.7C2295.56,-208.41 2295.56,-199.73 2295.56,-191.54"/>
<polygon fill="black" stroke="black" points="2299.06,-191.62 2295.56,-181.62 2292.06,-191.62 2299.06,-191.62"/>
</g>
<!-- 20&#45;&gt;1 -->
<g id="edge33" class="edge">
<title>20&#45;&gt;1</title>
<path fill="none" stroke="black" d="M2443.63,-678.14C2273.04,-693.12 2061.56,-728.02 2061.56,-809 2061.56,-883 2061.56,-883 2061.56,-883 2061.56,-993.89 1889.88,-1018.22 1808.9,-1023.53"/>
<polygon fill="black" stroke="black" points="1808.94,-1020.03 1799.16,-1024.1 1809.34,-1027.01 1808.94,-1020.03"/>
</g>
<!-- 32 -->
<g id="node30" class="node">
<title>32</title>
<ellipse fill="none" stroke="black" cx="2442.56" cy="-594" rx="210.01" ry="18"/>
<text text-anchor="middle" x="2442.56" y="-588.95" font-family="Times New Roman,serif" font-size="14.00">You: 我的手册上写着我破了216个案子。</text>
</g>
<!-- 20&#45;&gt;32 -->
<g id="edge32" class="edge">
<title>20&#45;&gt;32</title>
<path fill="none" stroke="black" d="M2603.46,-647.88C2573.6,-638.06 2535.95,-625.69 2504.58,-615.38"/>
<polygon fill="black" stroke="black" points="2505.79,-612.1 2495.2,-612.3 2503.61,-618.75 2505.79,-612.1"/>
</g>
<!-- 38 -->
<g id="node36" class="node">
<title>38</title>
<ellipse fill="none" stroke="black" cx="3436.56" cy="-306" rx="271.43" ry="18"/>
<text text-anchor="middle" x="3436.56" y="-300.95" font-family="Times New Roman,serif" font-size="14.00">Rhetoric: 典型的马伦狂热症，一种有据可查的病症。</text>
</g>
<!-- 21&#45;&gt;38 -->
<g id="edge34" class="edge">
<title>21&#45;&gt;38</title>
<path fill="none" stroke="black" d="M3608.14,-360.14C3576.32,-350.29 3535.93,-337.78 3502.34,-327.37"/>
<polygon fill="black" stroke="black" points="3503.72,-324.14 3493.13,-324.52 3501.65,-330.82 3503.72,-324.14"/>
</g>
<!-- 22&#45;&gt;6 -->
<g id="edge35" class="edge">
<title>22&#45;&gt;6</title>
<path fill="none" stroke="black" d="M1900.43,-509.09C1925.26,-507.34 1950.59,-505.6 1974.56,-504 2201.23,-488.91 2461.64,-473.05 2635.77,-462.66"/>
<polygon fill="black" stroke="black" points="2635.83,-466.16 2645.6,-462.07 2635.41,-459.17 2635.83,-466.16"/>
</g>
<!-- 42 -->
<g id="node40" class="node">
<title>42</title>
<ellipse fill="none" stroke="black" cx="1350.56" cy="-306" rx="59.03" ry="18"/>
<text text-anchor="middle" x="1350.56" y="-300.95" font-family="Times New Roman,serif" font-size="14.00">Private HUB</text>
</g>
<!-- 23&#45;&gt;42 -->
<g id="edge36" class="edge">
<title>23&#45;&gt;42</title>
<path fill="none" stroke="black" d="M775.98,-362.71C931.09,-347.67 1168.35,-324.67 1283.38,-313.51"/>
<polygon fill="black" stroke="black" points="1283.67,-317 1293.29,-312.55 1282.99,-310.03 1283.67,-317"/>
</g>
<!-- 24 -->
<g id="node22" class="node">
<title>24</title>
<ellipse fill="none" stroke="black" cx="2273.56" cy="-522" rx="290.37" ry="18"/>
<text text-anchor="middle" x="2273.56" y="-516.95" font-family="Times New Roman,serif" font-size="14.00">You: 所以是那个吸毒成瘾的艺术爱好者把他们干掉了？</text>
</g>
<!-- 24&#45;&gt;6 -->
<g id="edge37" class="edge">
<title>24&#45;&gt;6</title>
<path fill="none" stroke="black" d="M2398.89,-505.33C2488.96,-494.08 2610.14,-478.93 2701.67,-467.49"/>
<polygon fill="black" stroke="black" points="2701.97,-470.98 2711.46,-466.26 2701.1,-464.03 2701.97,-470.98"/>
</g>
<!-- 25&#45;&gt;42 -->
<g id="edge38" class="edge">
<title>25&#45;&gt;42</title>
<path fill="none" stroke="black" d="M1372.4,-359.7C1369.27,-352.15 1365.53,-343.12 1362.03,-334.68"/>
<polygon fill="black" stroke="black" points="1365.29,-333.4 1358.23,-325.5 1358.82,-336.08 1365.29,-333.4"/>
</g>
<!-- 26 -->
<g id="node24" class="node">
<title>26</title>
<ellipse fill="none" stroke="black" cx="2848.56" cy="-522" rx="228.95" ry="18"/>
<text text-anchor="middle" x="2848.56" y="-516.95" font-family="Times New Roman,serif" font-size="14.00">You: 所有凶手*就是*那个混蛋的傻逼儿子？</text>
</g>
<!-- 26&#45;&gt;6 -->
<g id="edge39" class="edge">
<title>26&#45;&gt;6</title>
<path fill="none" stroke="black" d="M2844.86,-503.7C2843.28,-496.32 2841.39,-487.52 2839.62,-479.25"/>
<polygon fill="black" stroke="black" points="2843.06,-478.63 2837.55,-469.58 2836.22,-480.1 2843.06,-478.63"/>
</g>
<!-- 8 -->
<g id="node43" class="node">
<title>8</title>
<ellipse fill="none" stroke="black" cx="4257.56" cy="-234" rx="27" ry="18"/>
<text text-anchor="middle" x="4257.56" y="-228.95" font-family="Times New Roman,serif" font-size="14.00">8</text>
</g>
<!-- 27&#45;&gt;8 -->
<g id="edge40" class="edge">
<title>27&#45;&gt;8</title>
<path fill="none" stroke="black" d="M4257.56,-287.7C4257.56,-280.41 4257.56,-271.73 4257.56,-263.54"/>
<polygon fill="black" stroke="black" points="4261.06,-263.62 4257.56,-253.62 4254.06,-263.62 4261.06,-263.62"/>
</g>
<!-- 28 -->
<g id="node26" class="node">
<title>28</title>
<ellipse fill="none" stroke="black" cx="2098.56" cy="-378" rx="230.48" ry="18"/>
<text text-anchor="middle" x="2098.56" y="-372.95" font-family="Times New Roman,serif" font-size="14.00">Variable[&quot;inventory.ledger_perception_perforation_count&quot;]</text>
</g>
<!-- 28&#45;&gt;28 -->
<g id="edge41" class="edge">
<title>28&#45;&gt;28</title>
<path fill="none" stroke="black" d="M2256.29,-391.5C2306.92,-391.36 2347.05,-386.86 2347.05,-378 2347.05,-369.82 2312.8,-365.35 2267.66,-364.61"/>
<polygon fill="black" stroke="black" points="2267.83,-361.11 2257.8,-364.52 2267.77,-368.11 2267.83,-361.11"/>
</g>
<!-- 29 -->
<g id="node27" class="node">
<title>29</title>
<polygon fill="none" stroke="black" points="2182.56,-324 1856.61,-306 2182.56,-288 2508.52,-306 2182.56,-324"/>
<text text-anchor="middle" x="2182.56" y="-300.95" font-family="Times New Roman,serif" font-size="14.00">Variable[&quot;inventory.ledger_perception_perforation_count&quot;]</text>
</g>
<!-- 28&#45;&gt;29 -->
<g id="edge42" class="edge">
<title>28&#45;&gt;29</title>
<path fill="none" stroke="black" d="M2119.33,-359.7C2129.83,-350.94 2142.74,-340.19 2154.15,-330.68"/>
<polygon fill="black" stroke="black" points="2156.3,-333.44 2161.74,-324.35 2151.82,-328.06 2156.3,-333.44"/>
</g>
<!-- 29&#45;&gt;19 -->
<g id="edge43" class="edge">
<title>29&#45;&gt;19</title>
<path fill="none" stroke="black" d="M2208.49,-288.94C2223.17,-279.85 2241.78,-268.32 2258.03,-258.25"/>
<polygon fill="black" stroke="black" points="2259.84,-261.25 2266.5,-253.01 2256.15,-255.3 2259.84,-261.25"/>
</g>
<!-- 30 -->
<g id="node28" class="node">
<title>30</title>
<polygon fill="none" stroke="black" points="1767.56,-1116 1428.58,-1098 1767.56,-1080 2106.55,-1098 1767.56,-1116"/>
<text text-anchor="middle" x="1767.56" y="-1092.95" font-family="Times New Roman,serif" font-size="14.00">!(Variable[&quot;inventory.ledger_perception_perforation_count&quot;])</text>
</g>
<!-- 30&#45;&gt;1 -->
<g id="edge44" class="edge">
<title>30&#45;&gt;1</title>
<path fill="none" stroke="black" d="M1767.56,-1079.7C1767.56,-1072.41 1767.56,-1063.73 1767.56,-1055.54"/>
<polygon fill="black" stroke="black" points="1771.06,-1055.62 1767.56,-1045.62 1764.06,-1055.62 1771.06,-1055.62"/>
</g>
<!-- 31&#45;&gt;13 -->
<g id="edge45" class="edge">
<title>31&#45;&gt;13</title>
<path fill="none" stroke="black" d="M1202.56,-935.59C1202.56,-911.61 1202.56,-868.14 1202.56,-839.42"/>
<polygon fill="black" stroke="black" points="1206.06,-839.62 1202.56,-829.62 1199.06,-839.62 1206.06,-839.62"/>
</g>
<!-- 31&#45;&gt;15 -->
<g id="edge46" class="edge">
<title>31&#45;&gt;15</title>
<path fill="none" stroke="black" d="M1110.1,-938.15C1043.19,-927.41 952.34,-912.83 880.88,-901.35"/>
<polygon fill="black" stroke="black" points="881.5,-897.91 871.07,-899.78 880.39,-904.82 881.5,-897.91"/>
</g>
<!-- 32&#45;&gt;24 -->
<g id="edge47" class="edge">
<title>32&#45;&gt;24</title>
<path fill="none" stroke="black" d="M2401.22,-575.88C2378.41,-566.43 2349.86,-554.6 2325.55,-544.53"/>
<polygon fill="black" stroke="black" points="2327.04,-541.36 2316.46,-540.77 2324.36,-547.83 2327.04,-541.36"/>
</g>
<!-- 33&#45;&gt;14 -->
<g id="edge48" class="edge">
<title>33&#45;&gt;14</title>
<path fill="none" stroke="black" d="M124.35,-431.52C122.6,-404.73 119.56,-351.91 119.56,-307 119.56,-307 119.56,-307 119.56,-233 119.56,-158.81 209.3,-121.37 273.63,-104.06"/>
<polygon fill="black" stroke="black" points="274.24,-107.51 283.05,-101.63 272.49,-100.74 274.24,-107.51"/>
</g>
<!-- 3 -->
<g id="node41" class="node">
<title>3</title>
<ellipse fill="none" stroke="black" cx="3055.56" cy="-594" rx="27" ry="18"/>
<text text-anchor="middle" x="3055.56" y="-588.95" font-family="Times New Roman,serif" font-size="14.00">3</text>
</g>
<!-- 34&#45;&gt;3 -->
<g id="edge49" class="edge">
<title>34&#45;&gt;3</title>
<path fill="none" stroke="black" d="M3055.56,-647.7C3055.56,-640.41 3055.56,-631.73 3055.56,-623.54"/>
<polygon fill="black" stroke="black" points="3059.06,-623.62 3055.56,-613.62 3052.06,-623.62 3059.06,-623.62"/>
</g>
<!-- 35&#45;&gt;6 -->
<g id="edge50" class="edge">
<title>35&#45;&gt;6</title>
<path fill="none" stroke="black" d="M3020.16,-396.07C2987.27,-406.01 2944.42,-418.59 2908.04,-428.99"/>
<polygon fill="black" stroke="black" points="2907.1,-425.62 2898.44,-431.73 2909.01,-432.35 2907.1,-425.62"/>
</g>
<!-- 36&#45;&gt;6 -->
<g id="edge51" class="edge">
<title>36&#45;&gt;6</title>
<path fill="none" stroke="black" d="M2617.89,-394.99C2660.93,-405.2 2715.64,-418.52 2759.21,-429.37"/>
<polygon fill="black" stroke="black" points="2758.3,-432.75 2768.86,-431.78 2760,-425.96 2758.3,-432.75"/>
</g>
<!-- 37 -->
<g id="node35" class="node">
<title>37</title>
<ellipse fill="none" stroke="black" cx="1269.56" cy="-162" rx="227.41" ry="18"/>
<text text-anchor="middle" x="1269.56" y="-156.95" font-family="Times New Roman,serif" font-size="14.00">Visual Calculus: 你本来可以成为好的那一种。</text>
</g>
<!-- 38&#45;&gt;5 -->
<g id="edge52" class="edge">
<title>38&#45;&gt;5</title>
<path fill="none" stroke="black" d="M3381.32,-287.97C3349.23,-278.07 3308.61,-265.54 3274.94,-255.16"/>
<polygon fill="black" stroke="black" points="3276.3,-251.92 3265.71,-252.31 3274.24,-258.61 3276.3,-251.92"/>
</g>
<!-- 40 -->
<g id="node38" class="node">
<title>40</title>
<ellipse fill="none" stroke="black" cx="1908.56" cy="-234" rx="172.65" ry="18"/>
<text text-anchor="middle" x="1908.56" y="-228.95" font-family="Times New Roman,serif" font-size="14.00">You: 我不觉得自己像私家侦探。</text>
</g>
<!-- 40&#45;&gt;39 -->
<g id="edge53" class="edge">
<title>40&#45;&gt;39</title>
<path fill="none" stroke="black" d="M1992.06,-217.9C2049.6,-207.49 2126.57,-193.57 2188.6,-182.35"/>
<polygon fill="black" stroke="black" points="2188.9,-185.85 2198.12,-180.63 2187.65,-178.96 2188.9,-185.85"/>
</g>
<!-- 41 -->
<g id="node39" class="node">
<title>41</title>
<ellipse fill="none" stroke="black" cx="1350.56" cy="-234" rx="367.14" ry="18"/>
<text text-anchor="middle" x="1350.56" y="-228.95" font-family="Times New Roman,serif" font-size="14.00">You: 私家侦探只会扰乱警方工作，危害平民。我不干了。[放弃思维。]</text>
</g>
<!-- 41&#45;&gt;37 -->
<g id="edge54" class="edge">
<title>41&#45;&gt;37</title>
<path fill="none" stroke="black" d="M1330.54,-215.7C1320.81,-207.28 1308.93,-197.02 1298.25,-187.79"/>
<polygon fill="black" stroke="black" points="1300.64,-185.23 1290.78,-181.34 1296.06,-190.52 1300.64,-185.23"/>
</g>
<!-- 42&#45;&gt;18 -->
<g id="edge57" class="edge">
<title>42&#45;&gt;18</title>
<path fill="none" stroke="black" d="M1294.41,-300.05C1181.89,-290.13 924.28,-267.42 745.35,-251.64"/>
<polygon fill="black" stroke="black" points="745.73,-248.16 735.46,-250.77 745.11,-255.14 745.73,-248.16"/>
</g>
<!-- 42&#45;&gt;40 -->
<g id="edge55" class="edge">
<title>42&#45;&gt;40</title>
<path fill="none" stroke="black" d="M1404.57,-298.22C1493,-287.13 1670.73,-264.84 1789.71,-249.91"/>
<polygon fill="black" stroke="black" points="1790.04,-253.4 1799.53,-248.68 1789.17,-246.45 1790.04,-253.4"/>
</g>
<!-- 42&#45;&gt;41 -->
<g id="edge56" class="edge">
<title>42&#45;&gt;41</title>
<path fill="none" stroke="black" d="M1350.56,-287.7C1350.56,-280.41 1350.56,-271.73 1350.56,-263.54"/>
<polygon fill="black" stroke="black" points="1354.06,-263.62 1350.56,-253.62 1347.06,-263.62 1354.06,-263.62"/>
</g>
<!-- 3&#45;&gt;4 -->
<g id="edge6" class="edge">
<title>3&#45;&gt;4</title>
<path fill="none" stroke="black" d="M3081.51,-588.38C3221.5,-563.46 3890.23,-444.4 4152.08,-397.78"/>
<polygon fill="black" stroke="black" points="4152.39,-401.28 4161.62,-396.08 4151.16,-394.39 4152.39,-401.28"/>
</g>
<!-- 3&#45;&gt;21 -->
<g id="edge8" class="edge">
<title>3&#45;&gt;21</title>
<path fill="none" stroke="black" d="M3078.99,-584.74C3166.19,-554 3473.68,-445.59 3603.76,-399.73"/>
<polygon fill="black" stroke="black" points="3604.6,-403.14 3612.87,-396.52 3602.28,-396.54 3604.6,-403.14"/>
</g>
<!-- 3&#45;&gt;23 -->
<g id="edge9" class="edge">
<title>3&#45;&gt;23</title>
<path fill="none" stroke="black" d="M3028.34,-591.7C2964.36,-588.67 2799.43,-581.02 2661.56,-576 2123.02,-556.38 1985.11,-600.05 1449.56,-540 1173.13,-509 850.83,-434.28 705.99,-398.6"/>
<polygon fill="black" stroke="black" points="707.05,-395.26 696.5,-396.26 705.37,-402.05 707.05,-395.26"/>
</g>
<!-- 3&#45;&gt;25 -->
<g id="edge10" class="edge">
<title>3&#45;&gt;25</title>
<path fill="none" stroke="black" d="M3028.34,-591.71C2964.36,-588.71 2799.43,-581.11 2661.56,-576 2596.97,-573.61 1555.82,-570 1498.56,-540 1443.78,-511.3 1407.66,-444.71 1390.73,-406.78"/>
<polygon fill="black" stroke="black" points="1394.05,-405.63 1386.87,-397.83 1387.62,-408.4 1394.05,-405.63"/>
</g>
<!-- 3&#45;&gt;26 -->
<g id="edge11" class="edge">
<title>3&#45;&gt;26</title>
<path fill="none" stroke="black" d="M3031.82,-584.97C3002.18,-574.95 2950.41,-557.44 2909.44,-543.59"/>
<polygon fill="black" stroke="black" points="2910.77,-540.34 2900.17,-540.45 2908.52,-546.97 2910.77,-540.34"/>
</g>
<!-- 3&#45;&gt;35 -->
<g id="edge4" class="edge">
<title>3&#45;&gt;35</title>
<path fill="none" stroke="black" d="M3067.43,-577.76C3074.51,-567.66 3082.83,-553.79 3086.56,-540 3099.12,-493.67 3092.74,-479.6 3086.56,-432 3085.51,-423.88 3083.58,-415.24 3081.49,-407.34"/>
<polygon fill="black" stroke="black" points="3084.91,-406.55 3078.8,-397.9 3078.17,-408.47 3084.91,-406.55"/>
</g>
<!-- 3&#45;&gt;36 -->
<g id="edge5" class="edge">
<title>3&#45;&gt;36</title>
<path fill="none" stroke="black" d="M3028.32,-593.24C2942.07,-593.49 2676.82,-590.08 2610.56,-540 2568.45,-508.17 2554,-444.31 2549.08,-407.3"/>
<polygon fill="black" stroke="black" points="2552.6,-407.33 2547.97,-397.81 2545.65,-408.15 2552.6,-407.33"/>
</g>
<!-- 3&#45;&gt;12 -->
<g id="edge7" class="edge">
<title>3&#45;&gt;12</title>
<path fill="none" stroke="black" d="M3075.13,-581.04C3133.6,-545.29 3307.24,-439.12 3376.53,-396.75"/>
<polygon fill="black" stroke="black" points="3378.35,-399.74 3385.06,-391.54 3374.7,-393.77 3378.35,-399.74"/>
</g>
</g>
</svg>
