<?xml version="1.0" encoding="UTF-8" standalone="no"?>
<!DOCTYPE svg PUBLIC "-//W3C//DTD SVG 1.1//EN"
 "http://www.w3.org/Graphics/SVG/1.1/DTD/svg11.dtd">
<!-- Generated by graphviz version 12.2.1 (20241206.2353)
 -->
<!-- Title: G Pages: 1 -->
<svg width="3284pt" height="1916pt"
 viewBox="0.00 0.00 3284.04 1916.00" xmlns="http://www.w3.org/2000/svg" xmlns:xlink="http://www.w3.org/1999/xlink">
<g id="graph0" class="graph" transform="scale(1 1) rotate(0) translate(4 1912)">
<title>G</title>
<polygon fill="white" stroke="none" points="-4,4 -4,-1912 3280.04,-1912 3280.04,4 -4,4"/>
<!-- 0 -->
<g id="node1" class="node">
<title>0</title>
<ellipse fill="none" stroke="black" cx="2055.18" cy="-1890" rx="39.07" ry="18"/>
<text text-anchor="middle" x="2055.18" y="-1884.95" font-family="Times New Roman,serif" font-size="14.00">START</text>
</g>
<!-- 1 -->
<g id="node2" class="node">
<title>1</title>
<ellipse fill="none" stroke="black" cx="2055.18" cy="-1818" rx="29.86" ry="18"/>
<text text-anchor="middle" x="2055.18" y="-1812.95" font-family="Times New Roman,serif" font-size="14.00">input</text>
</g>
<!-- 0&#45;&gt;1 -->
<g id="edge1" class="edge">
<title>0&#45;&gt;1</title>
<path fill="none" stroke="black" d="M2055.18,-1871.7C2055.18,-1864.41 2055.18,-1855.73 2055.18,-1847.54"/>
<polygon fill="black" stroke="black" points="2058.68,-1847.62 2055.18,-1837.62 2051.68,-1847.62 2058.68,-1847.62"/>
</g>
<!-- 32 -->
<g id="node29" class="node">
<title>32</title>
<ellipse fill="none" stroke="black" cx="2055.18" cy="-1746" rx="180.33" ry="18"/>
<text text-anchor="middle" x="2055.18" y="-1740.95" font-family="Times New Roman,serif" font-size="14.00">Visual Calculus: 就是这样。你懂了。</text>
</g>
<!-- 1&#45;&gt;32 -->
<g id="edge2" class="edge">
<title>1&#45;&gt;32</title>
<path fill="none" stroke="black" d="M2055.18,-1799.7C2055.18,-1792.41 2055.18,-1783.73 2055.18,-1775.54"/>
<polygon fill="black" stroke="black" points="2058.68,-1775.62 2055.18,-1765.62 2051.68,-1775.62 2058.68,-1775.62"/>
</g>
<!-- 2 -->
<g id="node3" class="node">
<title>2</title>
<ellipse fill="none" stroke="black" cx="1853.18" cy="-306" rx="113.79" ry="18"/>
<text text-anchor="middle" x="1853.18" y="-300.95" font-family="Times New Roman,serif" font-size="14.00">You: 我是个侦探吗？</text>
</g>
<!-- 23 -->
<g id="node21" class="node">
<title>23</title>
<ellipse fill="none" stroke="black" cx="1882.18" cy="-234" rx="262.73" ry="18"/>
<text text-anchor="middle" x="1882.18" y="-228.95" font-family="Times New Roman,serif" font-size="14.00">Visual Calculus: 一针见血。窥视者。而且还很厉害。</text>
</g>
<!-- 2&#45;&gt;23 -->
<g id="edge3" class="edge">
<title>2&#45;&gt;23</title>
<path fill="none" stroke="black" d="M1860.35,-287.7C1863.47,-280.15 1867.21,-271.12 1870.71,-262.68"/>
<polygon fill="black" stroke="black" points="1873.92,-264.08 1874.51,-253.5 1867.45,-261.4 1873.92,-264.08"/>
</g>
<!-- 4 -->
<g id="node4" class="node">
<title>4</title>
<ellipse fill="none" stroke="black" cx="1534.18" cy="-594" rx="364.58" ry="18"/>
<text text-anchor="middle" x="1534.18" y="-588.95" font-family="Times New Roman,serif" font-size="14.00">Visual Calculus: 侦探，密探，神探，窥视者——像马伦和你这样的男人。</text>
</g>
<!-- 28 -->
<g id="node26" class="node">
<title>28</title>
<ellipse fill="none" stroke="black" cx="1534.18" cy="-522" rx="230.48" ry="18"/>
<text text-anchor="middle" x="1534.18" y="-516.95" font-family="Times New Roman,serif" font-size="14.00">Variable[&quot;inventory.ledger_perception_perforation_count&quot;]</text>
</g>
<!-- 4&#45;&gt;28 -->
<g id="edge12" class="edge">
<title>4&#45;&gt;28</title>
<path fill="none" stroke="black" d="M1534.18,-575.7C1534.18,-568.41 1534.18,-559.73 1534.18,-551.54"/>
<polygon fill="black" stroke="black" points="1537.68,-551.62 1534.18,-541.62 1530.68,-551.62 1537.68,-551.62"/>
</g>
<!-- 5 -->
<g id="node5" class="node">
<title>5</title>
<ellipse fill="none" stroke="black" cx="217.18" cy="-810" rx="217.18" ry="18"/>
<text text-anchor="middle" x="217.18" y="-804.95" font-family="Times New Roman,serif" font-size="14.00">You: 所以*是*康米主义者送他们入土的？</text>
</g>
<!-- 7 -->
<g id="node7" class="node">
<title>7</title>
<ellipse fill="none" stroke="black" cx="1534.18" cy="-738" rx="672.17" ry="18"/>
<text text-anchor="middle" x="1534.18" y="-732.95" font-family="Times New Roman,serif" font-size="14.00">Visual Calculus: 别像警察一样思考，警察不会破案。他们只会用镊子恐吓人，然后把他们带到大房子里。他们*解决*不了任何问题。</text>
</g>
<!-- 5&#45;&gt;7 -->
<g id="edge13" class="edge">
<title>5&#45;&gt;7</title>
<path fill="none" stroke="black" d="M370.62,-796.91C394.89,-795.15 419.71,-793.45 443.18,-792 685.49,-777 958.29,-763.75 1170.49,-754.25"/>
<polygon fill="black" stroke="black" points="1170.47,-757.75 1180.31,-753.81 1170.16,-750.76 1170.47,-757.75"/>
</g>
<!-- 6 -->
<g id="node6" class="node">
<title>6</title>
<ellipse fill="none" stroke="black" cx="1533.18" cy="-882" rx="244.3" ry="18"/>
<text text-anchor="middle" x="1533.18" y="-876.95" font-family="Times New Roman,serif" font-size="14.00">Electrochemistry: 这就是为什么你永远不该看书。</text>
</g>
<!-- 6&#45;&gt;5 -->
<g id="edge16" class="edge">
<title>6&#45;&gt;5</title>
<path fill="none" stroke="black" d="M1323.62,-872.46C1104.09,-863.13 749.28,-846.95 443.18,-828 423.38,-826.77 402.61,-825.37 382.03,-823.91"/>
<polygon fill="black" stroke="black" points="382.36,-820.42 372.13,-823.2 381.85,-827.41 382.36,-820.42"/>
</g>
<!-- 13 -->
<g id="node11" class="node">
<title>13</title>
<ellipse fill="none" stroke="black" cx="601.18" cy="-810" rx="149.11" ry="18"/>
<text text-anchor="middle" x="601.18" y="-804.95" font-family="Times New Roman,serif" font-size="14.00">You: 其实我觉得我想错了。</text>
</g>
<!-- 6&#45;&gt;13 -->
<g id="edge17" class="edge">
<title>6&#45;&gt;13</title>
<path fill="none" stroke="black" d="M1345.34,-870.18C1188.49,-860.66 959.09,-845.59 759.18,-828 746.08,-826.85 732.38,-825.53 718.77,-824.16"/>
<polygon fill="black" stroke="black" points="719.17,-820.68 708.86,-823.15 718.46,-827.65 719.17,-820.68"/>
</g>
<!-- 22 -->
<g id="node20" class="node">
<title>22</title>
<ellipse fill="none" stroke="black" cx="997.18" cy="-810" rx="228.95" ry="18"/>
<text text-anchor="middle" x="997.18" y="-804.95" font-family="Times New Roman,serif" font-size="14.00">You: 所以*是*那个腐败的警长把他们杀了？</text>
</g>
<!-- 6&#45;&gt;22 -->
<g id="edge18" class="edge">
<title>6&#45;&gt;22</title>
<path fill="none" stroke="black" d="M1416.54,-865.77C1329.86,-854.45 1211.75,-839.02 1122.96,-827.43"/>
<polygon fill="black" stroke="black" points="1123.6,-823.98 1113.23,-826.16 1122.7,-830.92 1123.6,-823.98"/>
</g>
<!-- 24 -->
<g id="node22" class="node">
<title>24</title>
<ellipse fill="none" stroke="black" cx="1534.18" cy="-810" rx="290.37" ry="18"/>
<text text-anchor="middle" x="1534.18" y="-804.95" font-family="Times New Roman,serif" font-size="14.00">You: 所以是那个吸毒成瘾的艺术爱好者把他们干掉了？</text>
</g>
<!-- 6&#45;&gt;24 -->
<g id="edge19" class="edge">
<title>6&#45;&gt;24</title>
<path fill="none" stroke="black" d="M1533.42,-863.7C1533.53,-856.41 1533.65,-847.73 1533.77,-839.54"/>
<polygon fill="black" stroke="black" points="1537.27,-839.67 1533.91,-829.62 1530.27,-839.57 1537.27,-839.67"/>
</g>
<!-- 26 -->
<g id="node24" class="node">
<title>26</title>
<ellipse fill="none" stroke="black" cx="2071.18" cy="-810" rx="228.95" ry="18"/>
<text text-anchor="middle" x="2071.18" y="-804.95" font-family="Times New Roman,serif" font-size="14.00">You: 所有凶手*就是*那个混蛋的傻逼儿子？</text>
</g>
<!-- 6&#45;&gt;26 -->
<g id="edge20" class="edge">
<title>6&#45;&gt;26</title>
<path fill="none" stroke="black" d="M1650.25,-865.77C1737.25,-854.45 1855.8,-839.02 1944.93,-827.43"/>
<polygon fill="black" stroke="black" points="1945.23,-830.92 1954.69,-826.16 1944.33,-823.98 1945.23,-830.92"/>
</g>
<!-- 36 -->
<g id="node33" class="node">
<title>36</title>
<ellipse fill="none" stroke="black" cx="2606.18" cy="-810" rx="287.81" ry="18"/>
<text text-anchor="middle" x="2606.18" y="-804.95" font-family="Times New Roman,serif" font-size="14.00">You: 所以马伦*真的*把他最好的朋友和那个女人杀了？</text>
</g>
<!-- 6&#45;&gt;36 -->
<g id="edge14" class="edge">
<title>6&#45;&gt;36</title>
<path fill="none" stroke="black" d="M1711.57,-869.36C1901.5,-856.97 2201.64,-837.39 2401.18,-824.37"/>
<polygon fill="black" stroke="black" points="2401.12,-827.88 2410.87,-823.74 2400.67,-820.9 2401.12,-827.88"/>
</g>
<!-- 37 -->
<g id="node34" class="node">
<title>37</title>
<ellipse fill="none" stroke="black" cx="3094.18" cy="-810" rx="181.86" ry="18"/>
<text text-anchor="middle" x="3094.18" y="-804.95" font-family="Times New Roman,serif" font-size="14.00">You: 所以他们*真的*死了都要爱？</text>
</g>
<!-- 6&#45;&gt;37 -->
<g id="edge15" class="edge">
<title>6&#45;&gt;37</title>
<path fill="none" stroke="black" d="M1762.73,-875.63C2035,-868.45 2502.47,-853.57 2903.18,-828 2920.15,-826.92 2937.97,-825.59 2955.6,-824.16"/>
<polygon fill="black" stroke="black" points="2955.66,-827.66 2965.34,-823.35 2955.09,-820.69 2955.66,-827.66"/>
</g>
<!-- 35 -->
<g id="node32" class="node">
<title>35</title>
<ellipse fill="none" stroke="black" cx="1534.18" cy="-666" rx="78.48" ry="18"/>
<text text-anchor="middle" x="1534.18" y="-660.95" font-family="Times New Roman,serif" font-size="14.00">You: 那是谁？</text>
</g>
<!-- 7&#45;&gt;35 -->
<g id="edge21" class="edge">
<title>7&#45;&gt;35</title>
<path fill="none" stroke="black" d="M1534.18,-719.7C1534.18,-712.41 1534.18,-703.73 1534.18,-695.54"/>
<polygon fill="black" stroke="black" points="1537.68,-695.62 1534.18,-685.62 1530.68,-695.62 1537.68,-695.62"/>
</g>
<!-- 9 -->
<g id="node8" class="node">
<title>9</title>
<ellipse fill="none" stroke="black" cx="1512.18" cy="-1098" rx="482.29" ry="18"/>
<text text-anchor="middle" x="1512.18" y="-1092.95" font-family="Times New Roman,serif" font-size="14.00">Visual Calculus: 我一直都是这么说话的。继续。这个骗局——像打折的保险箱一样一敲就碎了。</text>
</g>
<!-- 21 -->
<g id="node19" class="node">
<title>21</title>
<ellipse fill="none" stroke="black" cx="1513.18" cy="-1026" rx="212.06" ry="18"/>
<text text-anchor="middle" x="1513.18" y="-1020.95" font-family="Times New Roman,serif" font-size="14.00">Composure: 你说得对，他以前更有礼貌。</text>
</g>
<!-- 9&#45;&gt;21 -->
<g id="edge22" class="edge">
<title>9&#45;&gt;21</title>
<path fill="none" stroke="black" d="M1512.42,-1079.7C1512.53,-1072.41 1512.65,-1063.73 1512.77,-1055.54"/>
<polygon fill="black" stroke="black" points="1516.27,-1055.67 1512.91,-1045.62 1509.27,-1055.57 1516.27,-1055.67"/>
</g>
<!-- 10 -->
<g id="node9" class="node">
<title>10</title>
<ellipse fill="none" stroke="black" cx="1789.18" cy="-1530" rx="66.71" ry="18"/>
<text text-anchor="middle" x="1789.18" y="-1524.95" font-family="Times New Roman,serif" font-size="14.00">You: 事情？</text>
</g>
<!-- 15 -->
<g id="node13" class="node">
<title>15</title>
<ellipse fill="none" stroke="black" cx="1894.18" cy="-1458" rx="333.87" ry="18"/>
<text text-anchor="middle" x="1894.18" y="-1452.95" font-family="Times New Roman,serif" font-size="14.00">Visual Calculus: 大衣，帽子，这骗局太阴险了，Yeggman都破不了。</text>
</g>
<!-- 10&#45;&gt;15 -->
<g id="edge23" class="edge">
<title>10&#45;&gt;15</title>
<path fill="none" stroke="black" d="M1813.53,-1512.76C1826.95,-1503.82 1843.85,-1492.55 1858.71,-1482.65"/>
<polygon fill="black" stroke="black" points="1860.48,-1485.67 1866.86,-1477.21 1856.6,-1479.85 1860.48,-1485.67"/>
</g>
<!-- 11 -->
<g id="node10" class="node">
<title>11</title>
<ellipse fill="none" stroke="black" cx="1894.18" cy="-1314" rx="563.16" ry="18"/>
<text text-anchor="middle" x="1894.18" y="-1308.95" font-family="Times New Roman,serif" font-size="14.00">Logic: 查理．斯皮兰和狄安娜．德诺芙的死，迪克．马伦正在调查的案子——这场阴险的骗局一定就是这样。</text>
</g>
<!-- 3 -->
<g id="node41" class="node">
<title>3</title>
<ellipse fill="none" stroke="black" cx="1894.18" cy="-1242" rx="27" ry="18"/>
<text text-anchor="middle" x="1894.18" y="-1236.95" font-family="Times New Roman,serif" font-size="14.00">3</text>
</g>
<!-- 11&#45;&gt;3 -->
<g id="edge24" class="edge">
<title>11&#45;&gt;3</title>
<path fill="none" stroke="black" d="M1894.18,-1295.7C1894.18,-1288.41 1894.18,-1279.73 1894.18,-1271.54"/>
<polygon fill="black" stroke="black" points="1897.68,-1271.62 1894.18,-1261.62 1890.68,-1271.62 1897.68,-1271.62"/>
</g>
<!-- 13&#45;&gt;7 -->
<g id="edge25" class="edge">
<title>13&#45;&gt;7</title>
<path fill="none" stroke="black" d="M707.36,-797C724.67,-795.21 742.41,-793.47 759.18,-792 922.35,-777.65 1105.15,-764.98 1252.21,-755.64"/>
<polygon fill="black" stroke="black" points="1252.36,-759.13 1262.12,-755.01 1251.92,-752.15 1252.36,-759.13"/>
</g>
<!-- 14 -->
<g id="node12" class="node">
<title>14</title>
<ellipse fill="none" stroke="black" cx="1894.18" cy="-1674" rx="66.71" ry="18"/>
<text text-anchor="middle" x="1894.18" y="-1668.95" font-family="Times New Roman,serif" font-size="14.00">You: 什么？</text>
</g>
<!-- 17 -->
<g id="node15" class="node">
<title>17</title>
<ellipse fill="none" stroke="black" cx="1894.18" cy="-1602" rx="133.24" ry="18"/>
<text text-anchor="middle" x="1894.18" y="-1596.95" font-family="Times New Roman,serif" font-size="14.00">Visual Calculus: 整个事情。</text>
</g>
<!-- 14&#45;&gt;17 -->
<g id="edge26" class="edge">
<title>14&#45;&gt;17</title>
<path fill="none" stroke="black" d="M1894.18,-1655.7C1894.18,-1648.41 1894.18,-1639.73 1894.18,-1631.54"/>
<polygon fill="black" stroke="black" points="1897.68,-1631.62 1894.18,-1621.62 1890.68,-1631.62 1897.68,-1631.62"/>
</g>
<!-- 18 -->
<g id="node16" class="node">
<title>18</title>
<ellipse fill="none" stroke="black" cx="1894.18" cy="-1386" rx="408.59" ry="18"/>
<text text-anchor="middle" x="1894.18" y="-1380.95" font-family="Times New Roman,serif" font-size="14.00">Rhetoric: Yeggman……要么是专门抢劫金库的，要么就是只跟蛋黄打交道的家伙。</text>
</g>
<!-- 15&#45;&gt;18 -->
<g id="edge27" class="edge">
<title>15&#45;&gt;18</title>
<path fill="none" stroke="black" d="M1894.18,-1439.7C1894.18,-1432.41 1894.18,-1423.73 1894.18,-1415.54"/>
<polygon fill="black" stroke="black" points="1897.68,-1415.62 1894.18,-1405.62 1890.68,-1415.62 1897.68,-1415.62"/>
</g>
<!-- 16 -->
<g id="node14" class="node">
<title>16</title>
<ellipse fill="none" stroke="black" cx="2216.18" cy="-1674" rx="237.65" ry="18"/>
<text text-anchor="middle" x="2216.18" y="-1668.95" font-family="Times New Roman,serif" font-size="14.00">You: 不，我没有。不管是什么。[放弃思维。]</text>
</g>
<!-- 17&#45;&gt;10 -->
<g id="edge29" class="edge">
<title>17&#45;&gt;10</title>
<path fill="none" stroke="black" d="M1868.49,-1583.88C1854.75,-1574.71 1837.65,-1563.31 1822.85,-1553.45"/>
<polygon fill="black" stroke="black" points="1825.04,-1550.7 1814.78,-1548.07 1821.15,-1556.52 1825.04,-1550.7"/>
</g>
<!-- 34 -->
<g id="node31" class="node">
<title>34</title>
<ellipse fill="none" stroke="black" cx="1999.18" cy="-1530" rx="125.56" ry="18"/>
<text text-anchor="middle" x="1999.18" y="-1524.95" font-family="Times New Roman,serif" font-size="14.00">You: 哦，大衣和帽子？</text>
</g>
<!-- 17&#45;&gt;34 -->
<g id="edge28" class="edge">
<title>17&#45;&gt;34</title>
<path fill="none" stroke="black" d="M1919.86,-1583.88C1933.31,-1574.91 1949.97,-1563.81 1964.54,-1554.09"/>
<polygon fill="black" stroke="black" points="1966.12,-1557.25 1972.5,-1548.79 1962.24,-1551.42 1966.12,-1557.25"/>
</g>
<!-- 18&#45;&gt;11 -->
<g id="edge30" class="edge">
<title>18&#45;&gt;11</title>
<path fill="none" stroke="black" d="M1894.18,-1367.7C1894.18,-1360.41 1894.18,-1351.73 1894.18,-1343.54"/>
<polygon fill="black" stroke="black" points="1897.68,-1343.62 1894.18,-1333.62 1890.68,-1343.62 1897.68,-1343.62"/>
</g>
<!-- 19 -->
<g id="node17" class="node">
<title>19</title>
<ellipse fill="none" stroke="black" cx="1506.18" cy="-90" rx="196.19" ry="18"/>
<text text-anchor="middle" x="1506.18" y="-84.95" font-family="Times New Roman,serif" font-size="14.00">You: 我一直觉得自己像个私家侦探。</text>
</g>
<!-- 40 -->
<g id="node37" class="node">
<title>40</title>
<ellipse fill="none" stroke="black" cx="1119.18" cy="-18" rx="780.68" ry="18"/>
<text text-anchor="middle" x="1119.18" y="-12.95" font-family="Times New Roman,serif" font-size="14.00">Visual Calculus: 如果有任何疑问，请查阅值得信赖的迪克．马伦的书，重新建立起和真实的你、和他的联系。迪克．马伦。你。他。你们。模式：马伦。</text>
</g>
<!-- 19&#45;&gt;40 -->
<g id="edge31" class="edge">
<title>19&#45;&gt;40</title>
<path fill="none" stroke="black" d="M1420.29,-73.46C1363.06,-63.11 1287.41,-49.43 1226.26,-38.37"/>
<polygon fill="black" stroke="black" points="1226.97,-34.94 1216.51,-36.61 1225.73,-41.83 1226.97,-34.94"/>
</g>
<!-- 20 -->
<g id="node18" class="node">
<title>20</title>
<ellipse fill="none" stroke="black" cx="1215.18" cy="-378" rx="280.64" ry="18"/>
<text text-anchor="middle" x="1215.18" y="-372.95" font-family="Times New Roman,serif" font-size="14.00">Encyclopedia: 咳&#45;咳！这位警察18年来解决了216个案子。</text>
</g>
<!-- 20&#45;&gt;2 -->
<g id="edge33" class="edge">
<title>20&#45;&gt;2</title>
<path fill="none" stroke="black" d="M1352.83,-361.9C1472.41,-348.78 1642.91,-330.07 1750.78,-318.23"/>
<polygon fill="black" stroke="black" points="1750.93,-321.74 1760.49,-317.17 1750.17,-314.78 1750.93,-321.74"/>
</g>
<!-- 33 -->
<g id="node30" class="node">
<title>33</title>
<ellipse fill="none" stroke="black" cx="1159.18" cy="-306" rx="210.01" ry="18"/>
<text text-anchor="middle" x="1159.18" y="-300.95" font-family="Times New Roman,serif" font-size="14.00">You: 我的手册上写着我破了216个案子。</text>
</g>
<!-- 20&#45;&gt;33 -->
<g id="edge32" class="edge">
<title>20&#45;&gt;33</title>
<path fill="none" stroke="black" d="M1201.33,-359.7C1194.89,-351.64 1187.09,-341.89 1179.96,-332.98"/>
<polygon fill="black" stroke="black" points="1182.79,-330.91 1173.81,-325.29 1177.32,-335.28 1182.79,-330.91"/>
</g>
<!-- 39 -->
<g id="node36" class="node">
<title>39</title>
<ellipse fill="none" stroke="black" cx="1520.18" cy="-954" rx="271.43" ry="18"/>
<text text-anchor="middle" x="1520.18" y="-948.95" font-family="Times New Roman,serif" font-size="14.00">Rhetoric: 典型的马伦狂热症，一种有据可查的病症。</text>
</g>
<!-- 21&#45;&gt;39 -->
<g id="edge34" class="edge">
<title>21&#45;&gt;39</title>
<path fill="none" stroke="black" d="M1514.91,-1007.7C1515.64,-1000.41 1516.5,-991.73 1517.32,-983.54"/>
<polygon fill="black" stroke="black" points="1520.8,-983.91 1518.32,-973.61 1513.84,-983.21 1520.8,-983.91"/>
</g>
<!-- 22&#45;&gt;7 -->
<g id="edge35" class="edge">
<title>22&#45;&gt;7</title>
<path fill="none" stroke="black" d="M1112.05,-794.03C1193.81,-783.37 1304.21,-768.98 1391.61,-757.58"/>
<polygon fill="black" stroke="black" points="1392,-761.06 1401.46,-756.3 1391.09,-754.12 1392,-761.06"/>
</g>
<!-- 43 -->
<g id="node40" class="node">
<title>43</title>
<ellipse fill="none" stroke="black" cx="1506.18" cy="-162" rx="59.03" ry="18"/>
<text text-anchor="middle" x="1506.18" y="-156.95" font-family="Times New Roman,serif" font-size="14.00">Private HUB</text>
</g>
<!-- 23&#45;&gt;43 -->
<g id="edge36" class="edge">
<title>23&#45;&gt;43</title>
<path fill="none" stroke="black" d="M1794.02,-216.59C1724.14,-203.58 1628.32,-185.74 1566.82,-174.29"/>
<polygon fill="black" stroke="black" points="1567.71,-170.9 1557.24,-172.51 1566.43,-177.78 1567.71,-170.9"/>
</g>
<!-- 24&#45;&gt;7 -->
<g id="edge37" class="edge">
<title>24&#45;&gt;7</title>
<path fill="none" stroke="black" d="M1534.18,-791.7C1534.18,-784.41 1534.18,-775.73 1534.18,-767.54"/>
<polygon fill="black" stroke="black" points="1537.68,-767.62 1534.18,-757.62 1530.68,-767.62 1537.68,-767.62"/>
</g>
<!-- 25 -->
<g id="node23" class="node">
<title>25</title>
<ellipse fill="none" stroke="black" cx="1131.18" cy="-234" rx="470.52" ry="18"/>
<text text-anchor="middle" x="1131.18" y="-228.95" font-family="Times New Roman,serif" font-size="14.00">Visual Calculus: 那是因为你是个披着警察外衣的侦探，本质上——就是个彻头彻尾的窥探者。</text>
</g>
<!-- 25&#45;&gt;43 -->
<g id="edge38" class="edge">
<title>25&#45;&gt;43</title>
<path fill="none" stroke="black" d="M1222.91,-215.88C1292.17,-202.95 1385.26,-185.57 1445.49,-174.33"/>
<polygon fill="black" stroke="black" points="1446.04,-177.79 1455.22,-172.51 1444.75,-170.91 1446.04,-177.79"/>
</g>
<!-- 26&#45;&gt;7 -->
<g id="edge39" class="edge">
<title>26&#45;&gt;7</title>
<path fill="none" stroke="black" d="M1956.31,-794.03C1874.55,-783.37 1764.14,-768.98 1676.75,-757.58"/>
<polygon fill="black" stroke="black" points="1677.26,-754.12 1666.89,-756.3 1676.36,-761.06 1677.26,-754.12"/>
</g>
<!-- 27 -->
<g id="node25" class="node">
<title>27</title>
<ellipse fill="none" stroke="black" cx="1639.18" cy="-1170" rx="184.42" ry="18"/>
<text text-anchor="middle" x="1639.18" y="-1164.95" font-family="Times New Roman,serif" font-size="14.00">You: 等等，你为什么要这么说话？</text>
</g>
<!-- 27&#45;&gt;9 -->
<g id="edge40" class="edge">
<title>27&#45;&gt;9</title>
<path fill="none" stroke="black" d="M1608.11,-1151.88C1591.78,-1142.88 1571.54,-1131.72 1553.87,-1121.98"/>
<polygon fill="black" stroke="black" points="1555.58,-1118.93 1545.13,-1117.16 1552.2,-1125.06 1555.58,-1118.93"/>
</g>
<!-- 29 -->
<g id="node27" class="node">
<title>29</title>
<polygon fill="none" stroke="black" points="1357.18,-468 1031.22,-450 1357.18,-432 1683.13,-450 1357.18,-468"/>
<text text-anchor="middle" x="1357.18" y="-444.95" font-family="Times New Roman,serif" font-size="14.00">Variable[&quot;inventory.ledger_perception_perforation_count&quot;]</text>
</g>
<!-- 28&#45;&gt;29 -->
<g id="edge41" class="edge">
<title>28&#45;&gt;29</title>
<path fill="none" stroke="black" d="M1490.88,-503.88C1465.33,-493.77 1432.92,-480.95 1406.4,-470.47"/>
<polygon fill="black" stroke="black" points="1407.81,-467.26 1397.22,-466.84 1405.23,-473.77 1407.81,-467.26"/>
</g>
<!-- 30 -->
<g id="node28" class="node">
<title>30</title>
<polygon fill="none" stroke="black" points="1853.18,-396 1514.19,-378 1853.18,-360 2192.16,-378 1853.18,-396"/>
<text text-anchor="middle" x="1853.18" y="-372.95" font-family="Times New Roman,serif" font-size="14.00">!(Variable[&quot;inventory.ledger_perception_perforation_count&quot;])</text>
</g>
<!-- 28&#45;&gt;30 -->
<g id="edge42" class="edge">
<title>28&#45;&gt;30</title>
<path fill="none" stroke="black" d="M1592.54,-504.2C1622.77,-494.81 1660,-482.15 1692.18,-468 1737.02,-448.28 1785.93,-420.23 1817.93,-400.92"/>
<polygon fill="black" stroke="black" points="1819.68,-403.96 1826.41,-395.77 1816.05,-397.98 1819.68,-403.96"/>
</g>
<!-- 29&#45;&gt;20 -->
<g id="edge43" class="edge">
<title>29&#45;&gt;20</title>
<path fill="none" stroke="black" d="M1325.31,-433.29C1306.13,-423.83 1281.4,-411.64 1260.24,-401.21"/>
<polygon fill="black" stroke="black" points="1262.05,-398.2 1251.53,-396.92 1258.95,-404.48 1262.05,-398.2"/>
</g>
<!-- 30&#45;&gt;2 -->
<g id="edge44" class="edge">
<title>30&#45;&gt;2</title>
<path fill="none" stroke="black" d="M1853.18,-359.7C1853.18,-352.41 1853.18,-343.73 1853.18,-335.54"/>
<polygon fill="black" stroke="black" points="1856.68,-335.62 1853.18,-325.62 1849.68,-335.62 1856.68,-335.62"/>
</g>
<!-- 32&#45;&gt;14 -->
<g id="edge46" class="edge">
<title>32&#45;&gt;14</title>
<path fill="none" stroke="black" d="M2016.2,-1728.05C1992.86,-1717.9 1963.09,-1704.96 1938.8,-1694.4"/>
<polygon fill="black" stroke="black" points="1940.37,-1691.27 1929.81,-1690.49 1937.58,-1697.69 1940.37,-1691.27"/>
</g>
<!-- 32&#45;&gt;16 -->
<g id="edge45" class="edge">
<title>32&#45;&gt;16</title>
<path fill="none" stroke="black" d="M2094.15,-1728.05C2115.86,-1718.62 2143.12,-1706.76 2166.36,-1696.66"/>
<polygon fill="black" stroke="black" points="2167.56,-1699.95 2175.34,-1692.76 2164.77,-1693.53 2167.56,-1699.95"/>
</g>
<!-- 33&#45;&gt;25 -->
<g id="edge47" class="edge">
<title>33&#45;&gt;25</title>
<path fill="none" stroke="black" d="M1152.26,-287.7C1149.24,-280.15 1145.62,-271.12 1142.25,-262.68"/>
<polygon fill="black" stroke="black" points="1145.54,-261.49 1138.58,-253.51 1139.05,-264.09 1145.54,-261.49"/>
</g>
<!-- 34&#45;&gt;15 -->
<g id="edge48" class="edge">
<title>34&#45;&gt;15</title>
<path fill="none" stroke="black" d="M1973.76,-1512.05C1960.42,-1503.16 1943.86,-1492.12 1929.31,-1482.42"/>
<polygon fill="black" stroke="black" points="1931.61,-1479.75 1921.35,-1477.11 1927.73,-1485.57 1931.61,-1479.75"/>
</g>
<!-- 35&#45;&gt;4 -->
<g id="edge49" class="edge">
<title>35&#45;&gt;4</title>
<path fill="none" stroke="black" d="M1534.18,-647.7C1534.18,-640.41 1534.18,-631.73 1534.18,-623.54"/>
<polygon fill="black" stroke="black" points="1537.68,-623.62 1534.18,-613.62 1530.68,-623.62 1537.68,-623.62"/>
</g>
<!-- 36&#45;&gt;7 -->
<g id="edge50" class="edge">
<title>36&#45;&gt;7</title>
<path fill="none" stroke="black" d="M2412.05,-796.32C2238.86,-785.01 1983.96,-768.37 1793.38,-755.93"/>
<polygon fill="black" stroke="black" points="1793.79,-752.45 1783.58,-755.29 1793.33,-759.43 1793.79,-752.45"/>
</g>
<!-- 37&#45;&gt;7 -->
<g id="edge51" class="edge">
<title>37&#45;&gt;7</title>
<path fill="none" stroke="black" d="M2966.85,-796.77C2945.6,-794.99 2923.78,-793.31 2903.18,-792 2607.6,-773.14 2275.66,-760.08 2012.66,-751.65"/>
<polygon fill="black" stroke="black" points="2012.99,-748.16 2002.89,-751.34 2012.77,-755.16 2012.99,-748.16"/>
</g>
<!-- 38 -->
<g id="node35" class="node">
<title>38</title>
<ellipse fill="none" stroke="black" cx="2145.18" cy="-18" rx="227.41" ry="18"/>
<text text-anchor="middle" x="2145.18" y="-12.95" font-family="Times New Roman,serif" font-size="14.00">Visual Calculus: 你本来可以成为好的那一种。</text>
</g>
<!-- 39&#45;&gt;6 -->
<g id="edge52" class="edge">
<title>39&#45;&gt;6</title>
<path fill="none" stroke="black" d="M1523.39,-935.7C1524.76,-928.32 1526.39,-919.52 1527.93,-911.25"/>
<polygon fill="black" stroke="black" points="1531.34,-912.06 1529.72,-901.59 1524.46,-910.79 1531.34,-912.06"/>
</g>
<!-- 41 -->
<g id="node38" class="node">
<title>41</title>
<ellipse fill="none" stroke="black" cx="1119.18" cy="-90" rx="172.65" ry="18"/>
<text text-anchor="middle" x="1119.18" y="-84.95" font-family="Times New Roman,serif" font-size="14.00">You: 我不觉得自己像私家侦探。</text>
</g>
<!-- 41&#45;&gt;40 -->
<g id="edge53" class="edge">
<title>41&#45;&gt;40</title>
<path fill="none" stroke="black" d="M1119.18,-71.7C1119.18,-64.41 1119.18,-55.73 1119.18,-47.54"/>
<polygon fill="black" stroke="black" points="1122.68,-47.62 1119.18,-37.62 1115.68,-47.62 1122.68,-47.62"/>
</g>
<!-- 42 -->
<g id="node39" class="node">
<title>42</title>
<ellipse fill="none" stroke="black" cx="2116.18" cy="-90" rx="367.14" ry="18"/>
<text text-anchor="middle" x="2116.18" y="-84.95" font-family="Times New Roman,serif" font-size="14.00">You: 私家侦探只会扰乱警方工作，危害平民。我不干了。[放弃思维。]</text>
</g>
<!-- 42&#45;&gt;38 -->
<g id="edge54" class="edge">
<title>42&#45;&gt;38</title>
<path fill="none" stroke="black" d="M2123.35,-71.7C2126.47,-64.15 2130.21,-55.12 2133.71,-46.68"/>
<polygon fill="black" stroke="black" points="2136.92,-48.08 2137.51,-37.5 2130.45,-45.4 2136.92,-48.08"/>
</g>
<!-- 43&#45;&gt;19 -->
<g id="edge57" class="edge">
<title>43&#45;&gt;19</title>
<path fill="none" stroke="black" d="M1506.18,-143.7C1506.18,-136.41 1506.18,-127.73 1506.18,-119.54"/>
<polygon fill="black" stroke="black" points="1509.68,-119.62 1506.18,-109.62 1502.68,-119.62 1509.68,-119.62"/>
</g>
<!-- 43&#45;&gt;41 -->
<g id="edge55" class="edge">
<title>43&#45;&gt;41</title>
<path fill="none" stroke="black" d="M1456.38,-151.99C1395.38,-140.96 1290.73,-122.03 1214.15,-108.18"/>
<polygon fill="black" stroke="black" points="1215.02,-104.78 1204.56,-106.44 1213.78,-111.67 1215.02,-104.78"/>
</g>
<!-- 43&#45;&gt;42 -->
<g id="edge56" class="edge">
<title>43&#45;&gt;42</title>
<path fill="none" stroke="black" d="M1560.85,-154.73C1650.85,-144.4 1833.32,-123.46 1964.56,-108.4"/>
<polygon fill="black" stroke="black" points="1964.87,-111.89 1974.4,-107.27 1964.07,-104.93 1964.87,-111.89"/>
</g>
<!-- 3&#45;&gt;5 -->
<g id="edge6" class="edge">
<title>3&#45;&gt;5</title>
<path fill="none" stroke="black" d="M1866.93,-1240.89C1748.61,-1240.13 1267.67,-1234.21 876.18,-1188 660.27,-1162.52 395.18,-1316.41 395.18,-1099 395.18,-1099 395.18,-1099 395.18,-953 395.18,-892.53 331.63,-853.63 280.47,-832.11"/>
<polygon fill="black" stroke="black" points="282.09,-828.98 271.5,-828.47 279.46,-835.47 282.09,-828.98"/>
</g>
<!-- 3&#45;&gt;13 -->
<g id="edge7" class="edge">
<title>3&#45;&gt;13</title>
<path fill="none" stroke="black" d="M1867.04,-1240.46C1696.97,-1236.76 785.18,-1211.64 785.18,-1099 785.18,-1099 785.18,-1099 785.18,-953 785.18,-891.09 719.08,-852.38 666.12,-831.3"/>
<polygon fill="black" stroke="black" points="667.39,-828.04 656.8,-827.74 664.89,-834.58 667.39,-828.04"/>
</g>
<!-- 3&#45;&gt;22 -->
<g id="edge8" class="edge">
<title>3&#45;&gt;22</title>
<path fill="none" stroke="black" d="M1867.39,-1239.65C1718.47,-1231.81 999.18,-1189.27 999.18,-1099 999.18,-1099 999.18,-1099 999.18,-953 999.18,-913.74 998.4,-868.37 997.82,-839.69"/>
<polygon fill="black" stroke="black" points="1001.32,-839.92 997.61,-830 994.33,-840.07 1001.32,-839.92"/>
</g>
<!-- 3&#45;&gt;24 -->
<g id="edge9" class="edge">
<title>3&#45;&gt;24</title>
<path fill="none" stroke="black" d="M1915.03,-1230.29C1951.3,-1209.99 2022.18,-1162.23 2022.18,-1099 2022.18,-1099 2022.18,-1099 2022.18,-953 2022.18,-883.72 1838.55,-846 1696.58,-827.2"/>
<polygon fill="black" stroke="black" points="1697.44,-823.78 1687.08,-825.96 1696.54,-830.72 1697.44,-823.78"/>
</g>
<!-- 3&#45;&gt;26 -->
<g id="edge10" class="edge">
<title>3&#45;&gt;26</title>
<path fill="none" stroke="black" d="M1920.84,-1237.85C1952.43,-1232.75 2004.74,-1219.82 2036.18,-1188 2065.72,-1158.1 2068.18,-1141.03 2068.18,-1099 2068.18,-1099 2068.18,-1099 2068.18,-953 2068.18,-913.73 2069.34,-868.37 2070.22,-839.69"/>
<polygon fill="black" stroke="black" points="2073.7,-840.1 2070.52,-830 2066.71,-839.88 2073.7,-840.1"/>
</g>
<!-- 3&#45;&gt;27 -->
<g id="edge11" class="edge">
<title>3&#45;&gt;27</title>
<path fill="none" stroke="black" d="M1869.73,-1234.29C1833.28,-1224.28 1763.29,-1205.07 1709.94,-1190.42"/>
<polygon fill="black" stroke="black" points="1711.2,-1187.14 1700.63,-1187.87 1709.34,-1193.89 1711.2,-1187.14"/>
</g>
<!-- 3&#45;&gt;36 -->
<g id="edge4" class="edge">
<title>3&#45;&gt;36</title>
<path fill="none" stroke="black" d="M1921.13,-1238.68C2020.16,-1229.41 2358.18,-1191.04 2358.18,-1099 2358.18,-1099 2358.18,-1099 2358.18,-953 2358.18,-884.85 2429.57,-848.96 2495.74,-830.32"/>
<polygon fill="black" stroke="black" points="2496.53,-833.73 2505.27,-827.76 2494.71,-826.97 2496.53,-833.73"/>
</g>
<!-- 3&#45;&gt;37 -->
<g id="edge5" class="edge">
<title>3&#45;&gt;37</title>
<path fill="none" stroke="black" d="M1921.08,-1239.43C2065.91,-1230.64 2746.18,-1184.76 2746.18,-1099 2746.18,-1099 2746.18,-1099 2746.18,-953 2746.18,-897.2 2901.48,-852.58 3004.59,-829.11"/>
<polygon fill="black" stroke="black" points="3005.18,-832.56 3014.17,-826.96 3003.64,-825.73 3005.18,-832.56"/>
</g>
</g>
</svg>
