<?xml version="1.0" encoding="UTF-8" standalone="no"?>
<!DOCTYPE svg PUBLIC "-//W3C//DTD SVG 1.1//EN"
 "http://www.w3.org/Graphics/SVG/1.1/DTD/svg11.dtd">
<!-- Generated by graphviz version 12.2.1 (20241206.2353)
 -->
<!-- Title: G Pages: 1 -->
<svg width="4412pt" height="1810pt"
 viewBox="0.00 0.00 4411.56 1809.60" xmlns="http://www.w3.org/2000/svg" xmlns:xlink="http://www.w3.org/1999/xlink">
<g id="graph0" class="graph" transform="scale(1 1) rotate(0) translate(4 1805.6)">
<title>G</title>
<polygon fill="white" stroke="none" points="-4,4 -4,-1805.6 4407.56,-1805.6 4407.56,4 -4,4"/>
<!-- 0 -->
<g id="node1" class="node">
<title>0</title>
<ellipse fill="none" stroke="black" cx="168.56" cy="-1783.6" rx="39.07" ry="18"/>
<text text-anchor="middle" x="168.56" y="-1778.55" font-family="Times New Roman,serif" font-size="14.00">START</text>
</g>
<!-- 1 -->
<g id="node2" class="node">
<title>1</title>
<ellipse fill="none" stroke="black" cx="168.56" cy="-1711.6" rx="29.86" ry="18"/>
<text text-anchor="middle" x="168.56" y="-1706.55" font-family="Times New Roman,serif" font-size="14.00">input</text>
</g>
<!-- 0&#45;&gt;1 -->
<g id="edge1" class="edge">
<title>0&#45;&gt;1</title>
<path fill="none" stroke="black" d="M168.56,-1765.3C168.56,-1758.01 168.56,-1749.33 168.56,-1741.14"/>
<polygon fill="black" stroke="black" points="172.06,-1741.22 168.56,-1731.22 165.06,-1741.22 172.06,-1741.22"/>
</g>
<!-- 30 -->
<g id="node31" class="node">
<title>30</title>
<ellipse fill="none" stroke="black" cx="168.56" cy="-1639.6" rx="168.56" ry="18"/>
<text text-anchor="middle" x="168.56" y="-1634.55" font-family="Times New Roman,serif" font-size="14.00">Door, Room #2: 警佐的房门关着。</text>
</g>
<!-- 1&#45;&gt;30 -->
<g id="edge2" class="edge">
<title>1&#45;&gt;30</title>
<path fill="none" stroke="black" d="M168.56,-1693.3C168.56,-1686.01 168.56,-1677.33 168.56,-1669.14"/>
<polygon fill="black" stroke="black" points="172.06,-1669.22 168.56,-1659.22 165.06,-1669.22 172.06,-1669.22"/>
</g>
<!-- 2 -->
<g id="node3" class="node">
<title>2</title>
<ellipse fill="none" stroke="black" cx="2198.56" cy="-324.8" rx="184.42" ry="18"/>
<text text-anchor="middle" x="2198.56" y="-319.75" font-family="Times New Roman,serif" font-size="14.00">Variable[&quot;TASK.find_murder_weapon_done&quot;]</text>
</g>
<!-- 3 -->
<g id="node4" class="node">
<title>3</title>
<polygon fill="none" stroke="black" points="1649.56,-270.8 1388.74,-252.8 1649.56,-234.8 1910.37,-252.8 1649.56,-270.8"/>
<text text-anchor="middle" x="1649.56" y="-247.75" font-family="Times New Roman,serif" font-size="14.00">Variable[&quot;TASK.find_murder_weapon_done&quot;]</text>
</g>
<!-- 2&#45;&gt;3 -->
<g id="edge3" class="edge">
<title>2&#45;&gt;3</title>
<path fill="none" stroke="black" d="M2089.43,-309.89C1990.47,-297.27 1845.79,-278.82 1749.72,-266.57"/>
<polygon fill="black" stroke="black" points="1750.4,-263.13 1740.04,-265.34 1749.52,-270.07 1750.4,-263.13"/>
</g>
<!-- 4 -->
<g id="node5" class="node">
<title>4</title>
<polygon fill="none" stroke="black" points="2202.56,-270.8 1928.72,-252.8 2202.56,-234.8 2476.4,-252.8 2202.56,-270.8"/>
<text text-anchor="middle" x="2202.56" y="-247.75" font-family="Times New Roman,serif" font-size="14.00">!(Variable[&quot;TASK.find_murder_weapon_done&quot;])</text>
</g>
<!-- 2&#45;&gt;4 -->
<g id="edge4" class="edge">
<title>2&#45;&gt;4</title>
<path fill="none" stroke="black" d="M2199.54,-306.5C2199.96,-299.21 2200.46,-290.53 2200.92,-282.34"/>
<polygon fill="black" stroke="black" points="2204.42,-282.6 2201.49,-272.42 2197.43,-282.2 2204.42,-282.6"/>
</g>
<!-- 48 -->
<g id="node49" class="node">
<title>48</title>
<ellipse fill="none" stroke="black" cx="1360.56" cy="-180.8" rx="90.25" ry="18"/>
<text text-anchor="middle" x="1360.56" y="-175.75" font-family="Times New Roman,serif" font-size="14.00">You: 猛地敲门。</text>
</g>
<!-- 3&#45;&gt;48 -->
<g id="edge5" class="edge">
<title>3&#45;&gt;48</title>
<path fill="none" stroke="black" d="M1593.49,-238.22C1546.03,-226.73 1477.89,-210.22 1427.56,-198.03"/>
<polygon fill="black" stroke="black" points="1428.48,-194.65 1417.94,-195.7 1426.83,-201.45 1428.48,-194.65"/>
</g>
<!-- 44 -->
<g id="node45" class="node">
<title>44</title>
<ellipse fill="none" stroke="black" cx="2247.56" cy="-180.8" rx="184.42" ry="18"/>
<text text-anchor="middle" x="2247.56" y="-175.75" font-family="Times New Roman,serif" font-size="14.00">You: 「我是加尔特，酒吧老板。」</text>
</g>
<!-- 4&#45;&gt;44 -->
<g id="edge6" class="edge">
<title>4&#45;&gt;44</title>
<path fill="none" stroke="black" d="M2213.22,-235.21C2218.28,-227.34 2224.46,-217.73 2230.17,-208.84"/>
<polygon fill="black" stroke="black" points="2233.06,-210.83 2235.52,-200.52 2227.17,-207.04 2233.06,-210.83"/>
</g>
<!-- 5 -->
<g id="node6" class="node">
<title>5</title>
<ellipse fill="none" stroke="black" cx="1675.56" cy="-108.8" rx="286.27" ry="18"/>
<text text-anchor="middle" x="1675.56" y="-103.75" font-family="Times New Roman,serif" font-size="14.00">Door, Room #2: 你听到抽屉关上的声音，接着是脚步声。</text>
</g>
<!-- 29 -->
<g id="node30" class="node">
<title>29</title>
<ellipse fill="none" stroke="black" cx="2882.56" cy="-27.4" rx="328.45" ry="27.4"/>
<text text-anchor="middle" x="2882.56" y="-29.48" font-family="Times New Roman,serif" font-size="14.00">Kim Kitsuragi: 「什么事，警官？」警佐的声音听起来很疲惫。</text>
<text text-anchor="middle" x="2882.56" y="-12.98" font-family="Times New Roman,serif" font-size="14.00">「什么事，警官？几点了？」警佐的声音听起来很疲惫。</text>
</g>
<!-- 5&#45;&gt;29 -->
<g id="edge7" class="edge">
<title>5&#45;&gt;29</title>
<path fill="none" stroke="black" d="M1868.14,-95.13C2070.72,-81.81 2390.92,-60.74 2617.31,-45.85"/>
<polygon fill="black" stroke="black" points="2617.44,-49.35 2627.19,-45.2 2616.98,-42.36 2617.44,-49.35"/>
</g>
<!-- 6 -->
<g id="node7" class="node">
<title>6</title>
<ellipse fill="none" stroke="black" cx="2115.56" cy="-684.8" rx="267.85" ry="18"/>
<text text-anchor="middle" x="2115.56" y="-679.75" font-family="Times New Roman,serif" font-size="14.00">Electrochemistry: 他在哪儿？现在不该是派对时间吗？</text>
</g>
<!-- 25 -->
<g id="node26" class="node">
<title>25</title>
<ellipse fill="none" stroke="black" cx="2110.56" cy="-612.8" rx="259.15" ry="18"/>
<text text-anchor="middle" x="2110.56" y="-607.75" font-family="Times New Roman,serif" font-size="14.00">Variable[&quot;TASK.get_the_dead_body_down_from_the_tree_done&quot;]</text>
</g>
<!-- 6&#45;&gt;25 -->
<g id="edge8" class="edge">
<title>6&#45;&gt;25</title>
<path fill="none" stroke="black" d="M2114.32,-666.5C2113.8,-659.21 2113.18,-650.53 2112.59,-642.34"/>
<polygon fill="black" stroke="black" points="2116.09,-642.14 2111.89,-632.41 2109.11,-642.64 2116.09,-642.14"/>
</g>
<!-- 7 -->
<g id="node8" class="node">
<title>7</title>
<ellipse fill="none" stroke="black" cx="2110.56" cy="-468.8" rx="189.54" ry="18"/>
<text text-anchor="middle" x="2110.56" y="-463.75" font-family="Times New Roman,serif" font-size="14.00">Variable[&quot;TASK.perform_field_autopsy_done&quot;]</text>
</g>
<!-- 8 -->
<g id="node9" class="node">
<title>8</title>
<polygon fill="none" stroke="black" points="2198.56,-414.8 1930.51,-396.8 2198.56,-378.8 2466.6,-396.8 2198.56,-414.8"/>
<text text-anchor="middle" x="2198.56" y="-391.75" font-family="Times New Roman,serif" font-size="14.00">Variable[&quot;TASK.perform_field_autopsy_done&quot;]</text>
</g>
<!-- 7&#45;&gt;8 -->
<g id="edge9" class="edge">
<title>7&#45;&gt;8</title>
<path fill="none" stroke="black" d="M2132.31,-450.5C2143.58,-441.53 2157.5,-430.46 2169.67,-420.78"/>
<polygon fill="black" stroke="black" points="2171.73,-423.61 2177.37,-414.65 2167.37,-418.14 2171.73,-423.61"/>
</g>
<!-- 9 -->
<g id="node10" class="node">
<title>9</title>
<polygon fill="none" stroke="black" points="1631.56,-414.8 1350.48,-396.8 1631.56,-378.8 1912.63,-396.8 1631.56,-414.8"/>
<text text-anchor="middle" x="1631.56" y="-391.75" font-family="Times New Roman,serif" font-size="14.00">!(Variable[&quot;TASK.perform_field_autopsy_done&quot;])</text>
</g>
<!-- 7&#45;&gt;9 -->
<g id="edge10" class="edge">
<title>7&#45;&gt;9</title>
<path fill="none" stroke="black" d="M2010.14,-453.13C1926.43,-440.89 1808.02,-423.59 1726.02,-411.6"/>
<polygon fill="black" stroke="black" points="1726.59,-408.15 1716.19,-410.17 1725.58,-415.08 1726.59,-408.15"/>
</g>
<!-- 8&#45;&gt;2 -->
<g id="edge11" class="edge">
<title>8&#45;&gt;2</title>
<path fill="none" stroke="black" d="M2198.56,-378.5C2198.56,-371.21 2198.56,-362.53 2198.56,-354.34"/>
<polygon fill="black" stroke="black" points="2202.06,-354.42 2198.56,-344.42 2195.06,-354.42 2202.06,-354.42"/>
</g>
<!-- 18 -->
<g id="node19" class="node">
<title>18</title>
<ellipse fill="none" stroke="black" cx="1614.56" cy="-324.8" rx="246.86" ry="18"/>
<text text-anchor="middle" x="1614.56" y="-319.75" font-family="Times New Roman,serif" font-size="14.00">Logic: *他*难道不担心你在验尸时有所遗漏吗？</text>
</g>
<!-- 9&#45;&gt;18 -->
<g id="edge12" class="edge">
<title>9&#45;&gt;18</title>
<path fill="none" stroke="black" d="M1627.44,-378.86C1625.63,-371.4 1623.45,-362.44 1621.41,-354.02"/>
<polygon fill="black" stroke="black" points="1624.87,-353.44 1619.11,-344.55 1618.07,-355.09 1624.87,-353.44"/>
</g>
<!-- 10 -->
<g id="node11" class="node">
<title>10</title>
<ellipse fill="none" stroke="black" cx="2157.56" cy="-991.6" rx="286.27" ry="18"/>
<text text-anchor="middle" x="2157.56" y="-986.55" font-family="Times New Roman,serif" font-size="14.00">Door, Room #2: 你听到抽屉关上的声音，接着是脚步声。</text>
</g>
<!-- 35 -->
<g id="node36" class="node">
<title>35</title>
<ellipse fill="none" stroke="black" cx="2117.56" cy="-910.2" rx="182.08" ry="27.4"/>
<text text-anchor="middle" x="2117.56" y="-912.28" font-family="Times New Roman,serif" font-size="14.00">Kim Kitsuragi: 「警探？是你吗？」</text>
<text text-anchor="middle" x="2117.56" y="-895.78" font-family="Times New Roman,serif" font-size="14.00">「哈里？是你吗？几点了？」</text>
</g>
<!-- 10&#45;&gt;35 -->
<g id="edge13" class="edge">
<title>10&#45;&gt;35</title>
<path fill="none" stroke="black" d="M2148.88,-973.37C2145.11,-965.9 2140.55,-956.84 2136.08,-947.98"/>
<polygon fill="black" stroke="black" points="2139.25,-946.48 2131.62,-939.12 2132.99,-949.63 2139.25,-946.48"/>
</g>
<!-- 11 -->
<g id="node12" class="node">
<title>11</title>
<ellipse fill="none" stroke="black" cx="3422.56" cy="-1135.6" rx="290.37" ry="18"/>
<text text-anchor="middle" x="3422.56" y="-1130.55" font-family="Times New Roman,serif" font-size="14.00">You: 「你想不想半夜出去兜兜风，让头脑清醒一下？」</text>
</g>
<!-- 23 -->
<g id="node24" class="node">
<title>23</title>
<ellipse fill="none" stroke="black" cx="3574.56" cy="-1063.6" rx="290.88" ry="18"/>
<text text-anchor="middle" x="3574.56" y="-1058.55" font-family="Times New Roman,serif" font-size="14.00">Kim Kitsuragi: 「为了什么清醒一下？为了*不睡觉*吗？」</text>
</g>
<!-- 11&#45;&gt;23 -->
<g id="edge14" class="edge">
<title>11&#45;&gt;23</title>
<path fill="none" stroke="black" d="M3460.13,-1117.3C3480.3,-1108.01 3505.37,-1096.46 3526.9,-1086.55"/>
<polygon fill="black" stroke="black" points="3528.16,-1089.82 3535.78,-1082.46 3525.23,-1083.46 3528.16,-1089.82"/>
</g>
<!-- 12 -->
<g id="node13" class="node">
<title>12</title>
<ellipse fill="none" stroke="black" cx="2504.56" cy="-108.8" rx="211.04" ry="18"/>
<text text-anchor="middle" x="2504.56" y="-103.75" font-family="Times New Roman,serif" font-size="14.00">Kim Kitsuragi: 「很好笑。你想干什么？」</text>
</g>
<!-- 19 -->
<g id="node20" class="node">
<title>19</title>
<ellipse fill="none" stroke="black" cx="2490.56" cy="-1207.6" rx="44.19" ry="18"/>
<text text-anchor="middle" x="2490.56" y="-1202.55" font-family="Times New Roman,serif" font-size="14.00">final hub</text>
</g>
<!-- 12&#45;&gt;19 -->
<g id="edge15" class="edge">
<title>12&#45;&gt;19</title>
<path fill="none" stroke="black" d="M2504.56,-127.29C2504.56,-154.09 2504.56,-206.93 2504.56,-251.8 2504.56,-469.8 2504.56,-469.8 2504.56,-469.8 2504.56,-665.64 2471.56,-713.36 2471.56,-909.2 2471.56,-1064.6 2471.56,-1064.6 2471.56,-1064.6 2471.56,-1104.21 2478.91,-1149.49 2484.47,-1178.06"/>
<polygon fill="black" stroke="black" points="2481.01,-1178.62 2486.41,-1187.73 2487.87,-1177.24 2481.01,-1178.62"/>
</g>
<!-- 13 -->
<g id="node14" class="node">
<title>13</title>
<ellipse fill="none" stroke="black" cx="966.56" cy="-1063.6" rx="234.58" ry="18"/>
<text text-anchor="middle" x="966.56" y="-1058.55" font-family="Times New Roman,serif" font-size="14.00">Kim Kitsuragi: 「你有什么时候不在派对吗？」</text>
</g>
<!-- 16 -->
<g id="node17" class="node">
<title>16</title>
<ellipse fill="none" stroke="black" cx="828.56" cy="-991.6" rx="179.82" ry="18"/>
<text text-anchor="middle" x="828.56" y="-986.55" font-family="Times New Roman,serif" font-size="14.00">Esprit de Corps: 你得自己想办法了。</text>
</g>
<!-- 13&#45;&gt;16 -->
<g id="edge16" class="edge">
<title>13&#45;&gt;16</title>
<path fill="none" stroke="black" d="M932.44,-1045.3C914.31,-1036.1 891.82,-1024.69 872.4,-1014.84"/>
<polygon fill="black" stroke="black" points="874.13,-1011.79 863.63,-1010.39 870.96,-1018.04 874.13,-1011.79"/>
</g>
<!-- 14 -->
<g id="node15" class="node">
<title>14</title>
<ellipse fill="none" stroke="black" cx="1009.56" cy="-1135.6" rx="149.11" ry="18"/>
<text text-anchor="middle" x="1009.56" y="-1130.55" font-family="Times New Roman,serif" font-size="14.00">You: 「现在是派对时间。」</text>
</g>
<!-- 14&#45;&gt;13 -->
<g id="edge17" class="edge">
<title>14&#45;&gt;13</title>
<path fill="none" stroke="black" d="M998.93,-1117.3C994.14,-1109.5 988.37,-1100.11 983.04,-1091.43"/>
<polygon fill="black" stroke="black" points="986.07,-1089.68 977.85,-1083 980.11,-1093.35 986.07,-1089.68"/>
</g>
<!-- 15 -->
<g id="node16" class="node">
<title>15</title>
<ellipse fill="none" stroke="black" cx="391.56" cy="-1351.6" rx="242.26" ry="18"/>
<text text-anchor="middle" x="391.56" y="-1346.55" font-family="Times New Roman,serif" font-size="14.00">Inland Empire: 只要不用面对那个吊死的男人……</text>
</g>
<!-- 46 -->
<g id="node47" class="node">
<title>46</title>
<ellipse fill="none" stroke="black" cx="385.56" cy="-1279.6" rx="116.35" ry="18"/>
<text text-anchor="middle" x="385.56" y="-1274.55" font-family="Times New Roman,serif" font-size="14.00">Volition: 你在干什么？</text>
</g>
<!-- 15&#45;&gt;46 -->
<g id="edge18" class="edge">
<title>15&#45;&gt;46</title>
<path fill="none" stroke="black" d="M390.07,-1333.3C389.45,-1326.01 388.7,-1317.33 388,-1309.14"/>
<polygon fill="black" stroke="black" points="391.49,-1308.88 387.15,-1299.21 384.52,-1309.48 391.49,-1308.88"/>
</g>
<!-- 36 -->
<g id="node37" class="node">
<title>36</title>
<ellipse fill="none" stroke="black" cx="1029.56" cy="-910.2" rx="169.88" ry="27.4"/>
<text text-anchor="middle" x="1029.56" y="-912.28" font-family="Times New Roman,serif" font-size="14.00">Kim Kitsuragi: 「晚安，警探。」</text>
<text text-anchor="middle" x="1029.56" y="-895.78" font-family="Times New Roman,serif" font-size="14.00">「晚安，哈里。」</text>
</g>
<!-- 16&#45;&gt;36 -->
<g id="edge19" class="edge">
<title>16&#45;&gt;36</title>
<path fill="none" stroke="black" d="M871.18,-973.76C895.92,-963.99 927.75,-951.42 956.38,-940.11"/>
<polygon fill="black" stroke="black" points="957.34,-943.49 965.35,-936.56 954.76,-936.98 957.34,-943.49"/>
</g>
<!-- 17 -->
<g id="node18" class="node">
<title>17</title>
<ellipse fill="none" stroke="black" cx="4129.56" cy="-1063.6" rx="246.35" ry="18"/>
<text text-anchor="middle" x="4129.56" y="-1058.55" font-family="Times New Roman,serif" font-size="14.00">Kim Kitsuragi: 「我也不知道。你该休息一下。」</text>
</g>
<!-- 54 -->
<g id="node55" class="node">
<title>54</title>
<ellipse fill="none" stroke="black" cx="3574.56" cy="-991.6" rx="27" ry="18"/>
<text text-anchor="middle" x="3574.56" y="-986.55" font-family="Times New Roman,serif" font-size="14.00">54</text>
</g>
<!-- 17&#45;&gt;54 -->
<g id="edge20" class="edge">
<title>17&#45;&gt;54</title>
<path fill="none" stroke="black" d="M4009.47,-1047.46C3883.4,-1031.55 3692.55,-1007.48 3612.25,-997.36"/>
<polygon fill="black" stroke="black" points="3613.09,-993.93 3602.73,-996.16 3612.21,-1000.88 3613.09,-993.93"/>
</g>
<!-- 18&#45;&gt;48 -->
<g id="edge21" class="edge">
<title>18&#45;&gt;48</title>
<path fill="none" stroke="black" d="M1493.64,-308.68C1444.96,-300.17 1396.35,-287.79 1379.56,-270.8 1364.01,-255.08 1359.78,-229.94 1359.15,-210.39"/>
<polygon fill="black" stroke="black" points="1362.65,-210.58 1359.14,-200.59 1355.65,-210.59 1362.65,-210.58"/>
</g>
<!-- 19&#45;&gt;11 -->
<g id="edge23" class="edge">
<title>19&#45;&gt;11</title>
<path fill="none" stroke="black" d="M2533.95,-1203.34C2656.17,-1194.16 3008.84,-1167.67 3231.39,-1150.96"/>
<polygon fill="black" stroke="black" points="3231.33,-1154.47 3241.04,-1150.24 3230.8,-1147.49 3231.33,-1154.47"/>
</g>
<!-- 19&#45;&gt;14 -->
<g id="edge25" class="edge">
<title>19&#45;&gt;14</title>
<path fill="none" stroke="black" d="M2446.2,-1205.41C2282.57,-1200.89 1697.32,-1183.48 1215.56,-1153.6 1190.44,-1152.04 1163.63,-1150.06 1137.93,-1148.01"/>
<polygon fill="black" stroke="black" points="1138.36,-1144.53 1128.11,-1147.22 1137.8,-1151.51 1138.36,-1144.53"/>
</g>
<!-- 24 -->
<g id="node25" class="node">
<title>24</title>
<ellipse fill="none" stroke="black" cx="3999.56" cy="-1135.6" rx="137.34" ry="18"/>
<text text-anchor="middle" x="3999.56" y="-1130.55" font-family="Times New Roman,serif" font-size="14.00">You: 「我不知道，金。」</text>
</g>
<!-- 19&#45;&gt;24 -->
<g id="edge28" class="edge">
<title>19&#45;&gt;24</title>
<path fill="none" stroke="black" d="M2534.73,-1204.99C2694.52,-1199.09 3257.46,-1177.78 3721.56,-1153.6 3769.18,-1151.12 3821.36,-1148.03 3867.53,-1145.16"/>
<polygon fill="black" stroke="black" points="3867.55,-1148.67 3877.31,-1144.55 3867.11,-1141.68 3867.55,-1148.67"/>
</g>
<!-- 33 -->
<g id="node34" class="node">
<title>33</title>
<ellipse fill="none" stroke="black" cx="2800.56" cy="-1135.6" rx="160.88" ry="18"/>
<text text-anchor="middle" x="2800.56" y="-1130.55" font-family="Times New Roman,serif" font-size="14.00">You: 「我想再过一遍案子。」</text>
</g>
<!-- 19&#45;&gt;33 -->
<g id="edge22" class="edge">
<title>19&#45;&gt;33</title>
<path fill="none" stroke="black" d="M2528.57,-1198.02C2576.08,-1187.29 2658.65,-1168.65 2720.38,-1154.71"/>
<polygon fill="black" stroke="black" points="2720.8,-1158.2 2729.79,-1152.58 2719.26,-1151.37 2720.8,-1158.2"/>
</g>
<!-- 45 -->
<g id="node46" class="node">
<title>45</title>
<ellipse fill="none" stroke="black" cx="1956.56" cy="-1135.6" rx="61.59" ry="18"/>
<text text-anchor="middle" x="1956.56" y="-1130.55" font-family="Times New Roman,serif" font-size="14.00">knocking hub</text>
</g>
<!-- 19&#45;&gt;45 -->
<g id="edge24" class="edge">
<title>19&#45;&gt;45</title>
<path fill="none" stroke="black" d="M2449.1,-1201.17C2356.94,-1189.09 2134.42,-1159.92 2022.77,-1145.28"/>
<polygon fill="black" stroke="black" points="2023.54,-1141.85 2013.17,-1144.02 2022.63,-1148.79 2023.54,-1141.85"/>
</g>
<!-- 52 -->
<g id="node53" class="node">
<title>52</title>
<ellipse fill="none" stroke="black" cx="2731.56" cy="-828.8" rx="231.51" ry="18"/>
<text text-anchor="middle" x="2731.56" y="-823.75" font-family="Times New Roman,serif" font-size="14.00">You: 「是我，加尔特。这家餐厅的经理。」</text>
</g>
<!-- 19&#45;&gt;52 -->
<g id="edge26" class="edge">
<title>19&#45;&gt;52</title>
<path fill="none" stroke="black" d="M2494.4,-1189.21C2499.95,-1162.54 2509.56,-1109.87 2509.56,-1064.6 2509.56,-1064.6 2509.56,-1064.6 2509.56,-990.6 2509.56,-916.22 2592.31,-872.72 2656.77,-850.13"/>
<polygon fill="black" stroke="black" points="2657.56,-853.55 2665.91,-847.03 2655.32,-846.92 2657.56,-853.55"/>
</g>
<!-- 53 -->
<g id="node54" class="node">
<title>53</title>
<ellipse fill="none" stroke="black" cx="1229.56" cy="-991.6" rx="203.36" ry="18"/>
<text text-anchor="middle" x="1229.56" y="-986.55" font-family="Times New Roman,serif" font-size="14.00">Esprit de Corps: 他现在最需要的是睡眠。</text>
</g>
<!-- 19&#45;&gt;53 -->
<g id="edge27" class="edge">
<title>19&#45;&gt;53</title>
<path fill="none" stroke="black" d="M2446.53,-1205.44C2322.88,-1201.82 1962.09,-1188.79 1664.56,-1153.6 1478.22,-1131.56 1383.79,-1211.67 1248.56,-1081.6 1232.62,-1066.27 1228.43,-1041.11 1227.9,-1021.44"/>
<polygon fill="black" stroke="black" points="1231.4,-1021.58 1227.97,-1011.55 1224.4,-1021.53 1231.4,-1021.58"/>
</g>
<!-- 20 -->
<g id="node21" class="node">
<title>20</title>
<ellipse fill="none" stroke="black" cx="385.56" cy="-1135.6" rx="152.18" ry="18"/>
<text text-anchor="middle" x="385.56" y="-1130.55" font-family="Times New Roman,serif" font-size="14.00">Kim Kitsuragi: 「做噩梦了？」</text>
</g>
<!-- 32 -->
<g id="node33" class="node">
<title>32</title>
<ellipse fill="none" stroke="black" cx="385.56" cy="-1063.6" rx="328.75" ry="18"/>
<text text-anchor="middle" x="385.56" y="-1058.55" font-family="Times New Roman,serif" font-size="14.00">Kim Kitsuragi: 「我保证你会习惯的。有时候走走路会有帮助。」</text>
</g>
<!-- 20&#45;&gt;32 -->
<g id="edge29" class="edge">
<title>20&#45;&gt;32</title>
<path fill="none" stroke="black" d="M385.56,-1117.3C385.56,-1110.01 385.56,-1101.33 385.56,-1093.14"/>
<polygon fill="black" stroke="black" points="389.06,-1093.22 385.56,-1083.22 382.06,-1093.22 389.06,-1093.22"/>
</g>
<!-- 21 -->
<g id="node22" class="node">
<title>21</title>
<ellipse fill="none" stroke="black" cx="1334.56" cy="-468.8" rx="235.09" ry="18"/>
<text text-anchor="middle" x="1334.56" y="-463.75" font-family="Times New Roman,serif" font-size="14.00">Logic: *他*难道不担心你没把尸体弄下来吗？</text>
</g>
<!-- 21&#45;&gt;48 -->
<g id="edge30" class="edge">
<title>21&#45;&gt;48</title>
<path fill="none" stroke="black" d="M1335.83,-450.4C1337.17,-432.45 1339.38,-403.66 1341.56,-378.8 1346.8,-318.88 1353.76,-248.79 1357.63,-210.46"/>
<polygon fill="black" stroke="black" points="1361.1,-210.99 1358.62,-200.69 1354.13,-210.29 1361.1,-210.99"/>
</g>
<!-- 22 -->
<g id="node23" class="node">
<title>22</title>
<ellipse fill="none" stroke="black" cx="2901.56" cy="-1063.6" rx="364.07" ry="18"/>
<text text-anchor="middle" x="2901.56" y="-1058.55" font-family="Times New Roman,serif" font-size="14.00">Kim Kitsuragi: 「是个好主意。那早上再说吧，就是不用睡觉的时候。」</text>
</g>
<!-- 22&#45;&gt;54 -->
<g id="edge31" class="edge">
<title>22&#45;&gt;54</title>
<path fill="none" stroke="black" d="M3053.43,-1046.8C3210.37,-1030.48 3444.92,-1006.08 3536.24,-996.59"/>
<polygon fill="black" stroke="black" points="3536.57,-1000.07 3546.15,-995.56 3535.84,-993.11 3536.57,-1000.07"/>
</g>
<!-- 23&#45;&gt;54 -->
<g id="edge32" class="edge">
<title>23&#45;&gt;54</title>
<path fill="none" stroke="black" d="M3574.56,-1045.3C3574.56,-1038.01 3574.56,-1029.33 3574.56,-1021.14"/>
<polygon fill="black" stroke="black" points="3578.06,-1021.22 3574.56,-1011.22 3571.06,-1021.22 3578.06,-1021.22"/>
</g>
<!-- 24&#45;&gt;17 -->
<g id="edge33" class="edge">
<title>24&#45;&gt;17</title>
<path fill="none" stroke="black" d="M4031.02,-1117.66C4047.94,-1108.55 4069.02,-1097.2 4087.34,-1087.33"/>
<polygon fill="black" stroke="black" points="4088.99,-1090.42 4096.14,-1082.59 4085.68,-1084.25 4088.99,-1090.42"/>
</g>
<!-- 26 -->
<g id="node27" class="node">
<title>26</title>
<polygon fill="none" stroke="black" points="2110.56,-558.8 1744.07,-540.8 2110.56,-522.8 2477.04,-540.8 2110.56,-558.8"/>
<text text-anchor="middle" x="2110.56" y="-535.75" font-family="Times New Roman,serif" font-size="14.00">Variable[&quot;TASK.get_the_dead_body_down_from_the_tree_done&quot;]</text>
</g>
<!-- 25&#45;&gt;26 -->
<g id="edge34" class="edge">
<title>25&#45;&gt;26</title>
<path fill="none" stroke="black" d="M2110.56,-594.5C2110.56,-587.21 2110.56,-578.53 2110.56,-570.34"/>
<polygon fill="black" stroke="black" points="2114.06,-570.42 2110.56,-560.42 2107.06,-570.42 2114.06,-570.42"/>
</g>
<!-- 27 -->
<g id="node28" class="node">
<title>27</title>
<polygon fill="none" stroke="black" points="1346.56,-558.8 967.04,-540.8 1346.56,-522.8 1726.07,-540.8 1346.56,-558.8"/>
<text text-anchor="middle" x="1346.56" y="-535.75" font-family="Times New Roman,serif" font-size="14.00">!(Variable[&quot;TASK.get_the_dead_body_down_from_the_tree_done&quot;])</text>
</g>
<!-- 25&#45;&gt;27 -->
<g id="edge35" class="edge">
<title>25&#45;&gt;27</title>
<path fill="none" stroke="black" d="M1958.24,-597.85C1819.68,-585.15 1616.99,-566.58 1483.46,-554.34"/>
<polygon fill="black" stroke="black" points="1484.15,-550.89 1473.87,-553.47 1483.51,-557.86 1484.15,-550.89"/>
</g>
<!-- 26&#45;&gt;7 -->
<g id="edge36" class="edge">
<title>26&#45;&gt;7</title>
<path fill="none" stroke="black" d="M2110.56,-522.5C2110.56,-515.21 2110.56,-506.53 2110.56,-498.34"/>
<polygon fill="black" stroke="black" points="2114.06,-498.42 2110.56,-488.42 2107.06,-498.42 2114.06,-498.42"/>
</g>
<!-- 27&#45;&gt;21 -->
<g id="edge37" class="edge">
<title>27&#45;&gt;21</title>
<path fill="none" stroke="black" d="M1343.59,-522.5C1342.32,-515.12 1340.82,-506.33 1339.4,-498.05"/>
<polygon fill="black" stroke="black" points="1342.88,-497.66 1337.74,-488.4 1335.98,-498.84 1342.88,-497.66"/>
</g>
<!-- 28 -->
<g id="node29" class="node">
<title>28</title>
<ellipse fill="none" stroke="black" cx="249.56" cy="-1567.6" rx="66.71" ry="18"/>
<text text-anchor="middle" x="249.56" y="-1562.55" font-family="Times New Roman,serif" font-size="14.00">You: 敲门。</text>
</g>
<!-- 40 -->
<g id="node41" class="node">
<title>40</title>
<ellipse fill="none" stroke="black" cx="316.56" cy="-1495.6" rx="133.24" ry="18"/>
<text text-anchor="middle" x="316.56" y="-1490.55" font-family="Times New Roman,serif" font-size="14.00">Door, Room #2: 没有回应。</text>
</g>
<!-- 28&#45;&gt;40 -->
<g id="edge38" class="edge">
<title>28&#45;&gt;40</title>
<path fill="none" stroke="black" d="M265.77,-1549.66C273.72,-1541.35 283.45,-1531.19 292.27,-1521.98"/>
<polygon fill="black" stroke="black" points="294.59,-1524.61 298.97,-1514.97 289.53,-1519.77 294.59,-1524.61"/>
</g>
<!-- 29&#45;&gt;19 -->
<g id="edge39" class="edge">
<title>29&#45;&gt;19</title>
<path fill="none" stroke="black" d="M3210.72,-29C3657.85,-34.27 4403.56,-60.88 4403.56,-179.8 4403.56,-1064.6 4403.56,-1064.6 4403.56,-1064.6 4403.56,-1185.9 4265.26,-1134 4145.56,-1153.6 3827.72,-1205.65 2798.38,-1207.19 2546.54,-1206.76"/>
<polygon fill="black" stroke="black" points="2546.67,-1203.26 2536.66,-1206.74 2546.65,-1210.26 2546.67,-1203.26"/>
</g>
<!-- 30&#45;&gt;28 -->
<g id="edge40" class="edge">
<title>30&#45;&gt;28</title>
<path fill="none" stroke="black" d="M188.58,-1621.3C198.63,-1612.61 210.97,-1601.94 221.92,-1592.49"/>
<polygon fill="black" stroke="black" points="223.9,-1595.4 229.18,-1586.21 219.32,-1590.1 223.9,-1595.4"/>
</g>
<!-- 39 -->
<g id="node40" class="node">
<title>39</title>
<ellipse fill="none" stroke="black" cx="132.56" cy="-1207.6" rx="72.85" ry="18"/>
<text text-anchor="middle" x="132.56" y="-1202.55" font-family="Times New Roman,serif" font-size="14.00">You: [离开。]</text>
</g>
<!-- 30&#45;&gt;39 -->
<g id="edge41" class="edge">
<title>30&#45;&gt;39</title>
<path fill="none" stroke="black" d="M158.82,-1621.28C145.05,-1595.13 121.56,-1543.6 121.56,-1496.6 121.56,-1496.6 121.56,-1496.6 121.56,-1350.6 121.56,-1311.22 125.81,-1265.89 129.03,-1237.24"/>
<polygon fill="black" stroke="black" points="132.48,-1237.9 130.15,-1227.56 125.52,-1237.09 132.48,-1237.9"/>
</g>
<!-- 31 -->
<g id="node32" class="node">
<title>31</title>
<ellipse fill="none" stroke="black" cx="2116.56" cy="-756.8" rx="156.78" ry="18"/>
<text text-anchor="middle" x="2116.56" y="-751.75" font-family="Times New Roman,serif" font-size="14.00">Door, Room #2: 仍然没有回应。</text>
</g>
<!-- 31&#45;&gt;6 -->
<g id="edge42" class="edge">
<title>31&#45;&gt;6</title>
<path fill="none" stroke="black" d="M2116.31,-738.5C2116.2,-731.21 2116.08,-722.53 2115.96,-714.34"/>
<polygon fill="black" stroke="black" points="2119.46,-714.37 2115.82,-704.42 2112.46,-714.47 2119.46,-714.37"/>
</g>
<!-- 32&#45;&gt;16 -->
<g id="edge43" class="edge">
<title>32&#45;&gt;16</title>
<path fill="none" stroke="black" d="M489.98,-1046.1C560.52,-1034.96 653.28,-1020.3 723.87,-1009.14"/>
<polygon fill="black" stroke="black" points="724.18,-1012.64 733.51,-1007.62 723.09,-1005.72 724.18,-1012.64"/>
</g>
<!-- 33&#45;&gt;22 -->
<g id="edge44" class="edge">
<title>33&#45;&gt;22</title>
<path fill="none" stroke="black" d="M2825.26,-1117.48C2837.88,-1108.73 2853.44,-1097.95 2867.21,-1088.4"/>
<polygon fill="black" stroke="black" points="2868.93,-1091.47 2875.16,-1082.9 2864.94,-1085.72 2868.93,-1091.47"/>
</g>
<!-- 34 -->
<g id="node35" class="node">
<title>34</title>
<ellipse fill="none" stroke="black" cx="1737.56" cy="-1063.6" rx="190.56" ry="18"/>
<text text-anchor="middle" x="1737.56" y="-1058.55" font-family="Times New Roman,serif" font-size="14.00">You: 我还是不要打扰金了。[离开。]</text>
</g>
<!-- 50 -->
<g id="node51" class="node">
<title>50</title>
<ellipse fill="none" stroke="black" cx="2116.56" cy="-828.8" rx="90.25" ry="18"/>
<text text-anchor="middle" x="2116.56" y="-823.75" font-family="Times New Roman,serif" font-size="14.00">You: 再次敲门。</text>
</g>
<!-- 35&#45;&gt;50 -->
<g id="edge45" class="edge">
<title>35&#45;&gt;50</title>
<path fill="none" stroke="black" d="M2117.22,-882.32C2117.12,-874.55 2117.01,-866.05 2116.91,-858.19"/>
<polygon fill="black" stroke="black" points="2120.42,-858.41 2116.79,-848.46 2113.42,-858.5 2120.42,-858.41"/>
</g>
<!-- 37 -->
<g id="node38" class="node">
<title>37</title>
<ellipse fill="none" stroke="black" cx="2490.56" cy="-1351.6" rx="286.27" ry="18"/>
<text text-anchor="middle" x="2490.56" y="-1346.55" font-family="Times New Roman,serif" font-size="14.00">Door, Room #2: 你听到抽屉关上的声音，接着是脚步声。</text>
</g>
<!-- 38 -->
<g id="node39" class="node">
<title>38</title>
<ellipse fill="none" stroke="black" cx="2490.56" cy="-1279.6" rx="187.49" ry="18"/>
<text text-anchor="middle" x="2490.56" y="-1274.55" font-family="Times New Roman,serif" font-size="14.00">Kim Kitsuragi: 「什么事？几点了？」</text>
</g>
<!-- 37&#45;&gt;38 -->
<g id="edge46" class="edge">
<title>37&#45;&gt;38</title>
<path fill="none" stroke="black" d="M2490.56,-1333.3C2490.56,-1326.01 2490.56,-1317.33 2490.56,-1309.14"/>
<polygon fill="black" stroke="black" points="2494.06,-1309.22 2490.56,-1299.22 2487.06,-1309.22 2494.06,-1309.22"/>
</g>
<!-- 38&#45;&gt;19 -->
<g id="edge47" class="edge">
<title>38&#45;&gt;19</title>
<path fill="none" stroke="black" d="M2490.56,-1261.3C2490.56,-1254.01 2490.56,-1245.33 2490.56,-1237.14"/>
<polygon fill="black" stroke="black" points="2494.06,-1237.22 2490.56,-1227.22 2487.06,-1237.22 2494.06,-1237.22"/>
</g>
<!-- 47 -->
<g id="node48" class="node">
<title>47</title>
<ellipse fill="none" stroke="black" cx="351.56" cy="-1423.6" rx="162.41" ry="18"/>
<text text-anchor="middle" x="351.56" y="-1418.55" font-family="Times New Roman,serif" font-size="14.00">Interfacing: 他不想去兜兜风吗？</text>
</g>
<!-- 40&#45;&gt;47 -->
<g id="edge48" class="edge">
<title>40&#45;&gt;47</title>
<path fill="none" stroke="black" d="M325.21,-1477.3C329.02,-1469.67 333.6,-1460.52 337.86,-1452"/>
<polygon fill="black" stroke="black" points="340.98,-1453.57 342.33,-1443.06 334.72,-1450.44 340.98,-1453.57"/>
</g>
<!-- 41 -->
<g id="node42" class="node">
<title>41</title>
<ellipse fill="none" stroke="black" cx="2157.56" cy="-1063.6" rx="172.65" ry="18"/>
<text text-anchor="middle" x="2157.56" y="-1058.55" font-family="Times New Roman,serif" font-size="14.00">You: 敲出金在秋千上吹的曲子。</text>
</g>
<!-- 41&#45;&gt;10 -->
<g id="edge49" class="edge">
<title>41&#45;&gt;10</title>
<path fill="none" stroke="black" d="M2157.56,-1045.3C2157.56,-1038.01 2157.56,-1029.33 2157.56,-1021.14"/>
<polygon fill="black" stroke="black" points="2161.06,-1021.22 2157.56,-1011.22 2154.06,-1021.22 2161.06,-1021.22"/>
</g>
<!-- 42 -->
<g id="node43" class="node">
<title>42</title>
<ellipse fill="none" stroke="black" cx="2490.56" cy="-1423.6" rx="160.88" ry="18"/>
<text text-anchor="middle" x="2490.56" y="-1418.55" font-family="Times New Roman,serif" font-size="14.00">You: 再敲一次，和之前一样。</text>
</g>
<!-- 42&#45;&gt;37 -->
<g id="edge50" class="edge">
<title>42&#45;&gt;37</title>
<path fill="none" stroke="black" d="M2490.56,-1405.3C2490.56,-1398.01 2490.56,-1389.33 2490.56,-1381.14"/>
<polygon fill="black" stroke="black" points="2494.06,-1381.22 2490.56,-1371.22 2487.06,-1381.22 2494.06,-1381.22"/>
</g>
<!-- 43 -->
<g id="node44" class="node">
<title>43</title>
<ellipse fill="none" stroke="black" cx="1325.56" cy="-756.8" rx="235.09" ry="18"/>
<text text-anchor="middle" x="1325.56" y="-751.75" font-family="Times New Roman,serif" font-size="14.00">Logic: *他*难道就不担心你还没找到凶器吗？</text>
</g>
<!-- 43&#45;&gt;48 -->
<g id="edge51" class="edge">
<title>43&#45;&gt;48</title>
<path fill="none" stroke="black" d="M1228.9,-740.04C1114.27,-718.54 938.56,-675.53 938.56,-613.8 938.56,-613.8 938.56,-613.8 938.56,-323.8 938.56,-253.53 1151.43,-211.44 1274.8,-192.96"/>
<polygon fill="black" stroke="black" points="1275.2,-196.44 1284.58,-191.52 1274.18,-189.51 1275.2,-196.44"/>
</g>
<!-- 44&#45;&gt;12 -->
<g id="edge52" class="edge">
<title>44&#45;&gt;12</title>
<path fill="none" stroke="black" d="M2307.81,-163.39C2345.02,-153.25 2393,-140.19 2432.25,-129.49"/>
<polygon fill="black" stroke="black" points="2433.15,-132.88 2441.88,-126.87 2431.31,-126.12 2433.15,-132.88"/>
</g>
<!-- 45&#45;&gt;34 -->
<g id="edge54" class="edge">
<title>45&#45;&gt;34</title>
<path fill="none" stroke="black" d="M1916.13,-1121.68C1883.74,-1111.33 1837.7,-1096.61 1800.49,-1084.72"/>
<polygon fill="black" stroke="black" points="1801.78,-1081.46 1791.19,-1081.75 1799.65,-1088.12 1801.78,-1081.46"/>
</g>
<!-- 45&#45;&gt;41 -->
<g id="edge53" class="edge">
<title>45&#45;&gt;41</title>
<path fill="none" stroke="black" d="M1994.84,-1121.27C2024.23,-1111.03 2065.33,-1096.72 2098.87,-1085.04"/>
<polygon fill="black" stroke="black" points="2099.75,-1088.44 2108.04,-1081.84 2097.45,-1081.83 2099.75,-1088.44"/>
</g>
<!-- 45&#45;&gt;43 -->
<g id="edge55" class="edge">
<title>45&#45;&gt;43</title>
<path fill="none" stroke="black" d="M1957.21,-1117.3C1957.04,-1097.85 1953.96,-1066.27 1937.56,-1045.6 1936.34,-1044.08 1515.72,-846.9 1372.59,-779.84"/>
<polygon fill="black" stroke="black" points="1374.29,-776.77 1363.75,-775.69 1371.32,-783.11 1374.29,-776.77"/>
</g>
<!-- 49 -->
<g id="node50" class="node">
<title>49</title>
<ellipse fill="none" stroke="black" cx="1393.56" cy="-1063.6" rx="135.8" ry="18"/>
<text text-anchor="middle" x="1393.56" y="-1058.55" font-family="Times New Roman,serif" font-size="14.00">Drama: 不，你是加尔特。</text>
</g>
<!-- 45&#45;&gt;49 -->
<g id="edge56" class="edge">
<title>45&#45;&gt;49</title>
<path fill="none" stroke="black" d="M1900.77,-1127.67C1808.07,-1116.14 1620.72,-1092.85 1501.49,-1078.02"/>
<polygon fill="black" stroke="black" points="1502.03,-1074.56 1491.67,-1076.8 1501.16,-1081.51 1502.03,-1074.56"/>
</g>
<!-- 46&#45;&gt;39 -->
<g id="edge58" class="edge">
<title>46&#45;&gt;39</title>
<path fill="none" stroke="black" d="M330.35,-1263.33C288.97,-1251.88 232.49,-1236.25 190.47,-1224.63"/>
<polygon fill="black" stroke="black" points="191.61,-1221.31 181.04,-1222.01 189.74,-1228.05 191.61,-1221.31"/>
</g>
<!-- 51 -->
<g id="node52" class="node">
<title>51</title>
<ellipse fill="none" stroke="black" cx="385.56" cy="-1207.6" rx="156.78" ry="18"/>
<text text-anchor="middle" x="385.56" y="-1202.55" font-family="Times New Roman,serif" font-size="14.00">You: 「我……还不想睡觉。」</text>
</g>
<!-- 46&#45;&gt;51 -->
<g id="edge57" class="edge">
<title>46&#45;&gt;51</title>
<path fill="none" stroke="black" d="M385.56,-1261.3C385.56,-1254.01 385.56,-1245.33 385.56,-1237.14"/>
<polygon fill="black" stroke="black" points="389.06,-1237.22 385.56,-1227.22 382.06,-1237.22 389.06,-1237.22"/>
</g>
<!-- 47&#45;&gt;15 -->
<g id="edge59" class="edge">
<title>47&#45;&gt;15</title>
<path fill="none" stroke="black" d="M361.44,-1405.3C365.9,-1397.5 371.26,-1388.11 376.22,-1379.43"/>
<polygon fill="black" stroke="black" points="379.11,-1381.44 381.03,-1371.02 373.03,-1377.97 379.11,-1381.44"/>
</g>
<!-- 48&#45;&gt;5 -->
<g id="edge60" class="edge">
<title>48&#45;&gt;5</title>
<path fill="none" stroke="black" d="M1419.07,-166.8C1466.76,-156.2 1534.81,-141.08 1588.83,-129.07"/>
<polygon fill="black" stroke="black" points="1589.3,-132.55 1598.31,-126.97 1587.79,-125.72 1589.3,-132.55"/>
</g>
<!-- 49&#45;&gt;19 -->
<g id="edge61" class="edge">
<title>49&#45;&gt;19</title>
<path fill="none" stroke="black" d="M1463.71,-1079.38C1558.87,-1098.96 1734.35,-1133.35 1885.56,-1153.6 2087.26,-1180.62 2328.73,-1197.03 2435.34,-1203.46"/>
<polygon fill="black" stroke="black" points="2435.05,-1206.95 2445.24,-1204.05 2435.46,-1199.96 2435.05,-1206.95"/>
</g>
<!-- 50&#45;&gt;31 -->
<g id="edge62" class="edge">
<title>50&#45;&gt;31</title>
<path fill="none" stroke="black" d="M2116.56,-810.5C2116.56,-803.21 2116.56,-794.53 2116.56,-786.34"/>
<polygon fill="black" stroke="black" points="2120.06,-786.42 2116.56,-776.42 2113.06,-786.42 2120.06,-786.42"/>
</g>
<!-- 51&#45;&gt;20 -->
<g id="edge63" class="edge">
<title>51&#45;&gt;20</title>
<path fill="none" stroke="black" d="M385.56,-1189.3C385.56,-1182.01 385.56,-1173.33 385.56,-1165.14"/>
<polygon fill="black" stroke="black" points="389.06,-1165.22 385.56,-1155.22 382.06,-1165.22 389.06,-1165.22"/>
</g>
<!-- 52&#45;&gt;12 -->
<g id="edge64" class="edge">
<title>52&#45;&gt;12</title>
<path fill="none" stroke="black" d="M2710.23,-810.53C2682.49,-785.98 2637.56,-738.13 2637.56,-685.8 2637.56,-685.8 2637.56,-685.8 2637.56,-251.8 2637.56,-198.24 2586.53,-156.55 2547.69,-132.58"/>
<polygon fill="black" stroke="black" points="2549.8,-129.76 2539.42,-127.64 2546.21,-135.77 2549.8,-129.76"/>
</g>
<!-- 53&#45;&gt;36 -->
<g id="edge65" class="edge">
<title>53&#45;&gt;36</title>
<path fill="none" stroke="black" d="M1186.65,-973.57C1162.22,-963.87 1130.96,-951.46 1102.77,-940.27"/>
<polygon fill="black" stroke="black" points="1104.13,-937.04 1093.54,-936.6 1101.54,-943.55 1104.13,-937.04"/>
</g>
</g>
</svg>
