<?xml version="1.0" encoding="UTF-8" standalone="no"?>
<!DOCTYPE svg PUBLIC "-//W3C//DTD SVG 1.1//EN"
 "http://www.w3.org/Graphics/SVG/1.1/DTD/svg11.dtd">
<!-- Generated by graphviz version 12.2.1 (20241206.2353)
 -->
<!-- Title: G Pages: 1 -->
<svg width="4390pt" height="923pt"
 viewBox="0.00 0.00 4389.58 923.45" xmlns="http://www.w3.org/2000/svg" xmlns:xlink="http://www.w3.org/1999/xlink">
<g id="graph0" class="graph" transform="scale(1 1) rotate(0) translate(4 919.45)">
<title>G</title>
<polygon fill="white" stroke="none" points="-4,4 -4,-919.45 4385.58,-919.45 4385.58,4 -4,4"/>
<!-- 0 -->
<g id="node1" class="node">
<title>0</title>
<ellipse fill="none" stroke="black" cx="3435.59" cy="-897.45" rx="39.07" ry="18"/>
<text text-anchor="middle" x="3435.59" y="-892.4" font-family="Times New Roman,serif" font-size="14.00">START</text>
</g>
<!-- 1 -->
<g id="node2" class="node">
<title>1</title>
<ellipse fill="none" stroke="black" cx="3435.59" cy="-825.45" rx="29.86" ry="18"/>
<text text-anchor="middle" x="3435.59" y="-820.4" font-family="Times New Roman,serif" font-size="14.00">input</text>
</g>
<!-- 0&#45;&gt;1 -->
<g id="edge1" class="edge">
<title>0&#45;&gt;1</title>
<path fill="none" stroke="black" d="M3435.59,-879.15C3435.59,-871.86 3435.59,-863.18 3435.59,-854.99"/>
<polygon fill="black" stroke="black" points="3439.09,-855.07 3435.59,-845.07 3432.09,-855.07 3439.09,-855.07"/>
</g>
<!-- 24 -->
<g id="node25" class="node">
<title>24</title>
<ellipse fill="none" stroke="black" cx="3435.59" cy="-753.45" rx="278.08" ry="18"/>
<text text-anchor="middle" x="3435.59" y="-748.4" font-family="Times New Roman,serif" font-size="14.00">Kim Kitsuragi: “案子处理完之后，你可以自己再回来。”</text>
</g>
<!-- 1&#45;&gt;24 -->
<g id="edge2" class="edge">
<title>1&#45;&gt;24</title>
<path fill="none" stroke="black" d="M3435.59,-807.15C3435.59,-799.86 3435.59,-791.18 3435.59,-782.99"/>
<polygon fill="black" stroke="black" points="3439.09,-783.07 3435.59,-773.07 3432.09,-783.07 3439.09,-783.07"/>
</g>
<!-- 2 -->
<g id="node3" class="node">
<title>2</title>
<ellipse fill="none" stroke="black" cx="408.59" cy="-90" rx="408.59" ry="18"/>
<text text-anchor="middle" x="408.59" y="-84.95" font-family="Times New Roman,serif" font-size="14.00">Shivers: 是的，确实很讽刺，因为在内心深处，他们相信自己是马佐夫主义者。</text>
</g>
<!-- 15 -->
<g id="node16" class="node">
<title>15</title>
<ellipse fill="none" stroke="black" cx="1277.59" cy="-18" rx="361.51" ry="18"/>
<text text-anchor="middle" x="1277.59" y="-12.95" font-family="Times New Roman,serif" font-size="14.00">Shivers: 也许。他们肯定想破坏现状，用某种新形象来重新塑造现实。</text>
</g>
<!-- 2&#45;&gt;15 -->
<g id="edge3" class="edge">
<title>2&#45;&gt;15</title>
<path fill="none" stroke="black" d="M599.3,-73.64C742.34,-62.12 937.49,-46.4 1081.75,-34.78"/>
<polygon fill="black" stroke="black" points="1081.73,-38.29 1091.41,-34 1081.16,-31.31 1081.73,-38.29"/>
</g>
<!-- 3 -->
<g id="node4" class="node">
<title>3</title>
<ellipse fill="none" stroke="black" cx="1682.59" cy="-90" rx="781.19" ry="18"/>
<text text-anchor="middle" x="1682.59" y="-84.95" font-family="Times New Roman,serif" font-size="14.00">Shivers: 讽刺。他们是冒充马佐夫主义者的雅皮士……又或者是马佐夫主义者在冒充雅皮士？在备受贫穷困扰的马丁内斯，就连他们自己有时也会搞混。</text>
</g>
<!-- 3&#45;&gt;15 -->
<g id="edge4" class="edge">
<title>3&#45;&gt;15</title>
<path fill="none" stroke="black" d="M1582.48,-71.7C1522.83,-61.39 1447.1,-48.3 1386.03,-37.74"/>
<polygon fill="black" stroke="black" points="1386.75,-34.31 1376.3,-36.06 1385.56,-41.21 1386.75,-34.31"/>
</g>
<!-- 4 -->
<g id="node5" class="node">
<title>4</title>
<ellipse fill="none" stroke="black" cx="3076.59" cy="-504.72" rx="196.19" ry="18"/>
<text text-anchor="middle" x="3076.59" y="-499.67" font-family="Times New Roman,serif" font-size="14.00">You: 听上去像是一群干劲十足的人。</text>
</g>
<!-- 31 -->
<g id="node32" class="node">
<title>31</title>
<ellipse fill="none" stroke="black" cx="3215.59" cy="-399.98" rx="27" ry="18"/>
<text text-anchor="middle" x="3215.59" y="-394.93" font-family="Times New Roman,serif" font-size="14.00">31</text>
</g>
<!-- 4&#45;&gt;31 -->
<g id="edge5" class="edge">
<title>4&#45;&gt;31</title>
<path fill="none" stroke="black" d="M3099.86,-486.52C3124.39,-468.39 3162.99,-439.86 3188.79,-420.79"/>
<polygon fill="black" stroke="black" points="3190.81,-423.65 3196.77,-414.89 3186.65,-418.02 3190.81,-423.65"/>
</g>
<!-- 5 -->
<g id="node6" class="node">
<title>5</title>
<ellipse fill="none" stroke="black" cx="1785.59" cy="-399.98" rx="58.52" ry="18"/>
<text text-anchor="middle" x="1785.59" y="-394.93" font-family="Times New Roman,serif" font-size="14.00">IsKimHere()</text>
</g>
<!-- 6 -->
<g id="node7" class="node">
<title>6</title>
<polygon fill="none" stroke="black" points="1785.59,-345.98 1702.84,-327.98 1785.59,-309.98 1868.35,-327.98 1785.59,-345.98"/>
<text text-anchor="middle" x="1785.59" y="-322.93" font-family="Times New Roman,serif" font-size="14.00">IsKimHere()</text>
</g>
<!-- 5&#45;&gt;6 -->
<g id="edge6" class="edge">
<title>5&#45;&gt;6</title>
<path fill="none" stroke="black" d="M1785.59,-381.68C1785.59,-374.39 1785.59,-365.71 1785.59,-357.52"/>
<polygon fill="black" stroke="black" points="1789.09,-357.6 1785.59,-347.6 1782.09,-357.6 1789.09,-357.6"/>
</g>
<!-- 7 -->
<g id="node8" class="node">
<title>7</title>
<polygon fill="none" stroke="black" points="1401.59,-345.98 1305.81,-327.98 1401.59,-309.98 1497.38,-327.98 1401.59,-345.98"/>
<text text-anchor="middle" x="1401.59" y="-322.93" font-family="Times New Roman,serif" font-size="14.00">!(IsKimHere())</text>
</g>
<!-- 5&#45;&gt;7 -->
<g id="edge7" class="edge">
<title>5&#45;&gt;7</title>
<path fill="none" stroke="black" d="M1736.18,-389.97C1665.37,-377.07 1535.29,-353.36 1459.88,-339.61"/>
<polygon fill="black" stroke="black" points="1460.67,-336.19 1450.2,-337.84 1459.41,-343.08 1460.67,-336.19"/>
</g>
<!-- 8 -->
<g id="node9" class="node">
<title>8</title>
<ellipse fill="none" stroke="black" cx="1785.59" cy="-244.99" rx="544.3" ry="28.99"/>
<text text-anchor="middle" x="1785.59" y="-248.19" font-family="Times New Roman,serif" font-size="14.00">Kim Kitsuragi: 警督调整了一下眼镜。“不管那里发生了什么，对我们现在的调查都几乎没有任何影响。”</text>
<text text-anchor="middle" x="1785.59" y="-231.69" font-family="Times New Roman,serif" font-size="14.00">警督调整了一下眼镜。“一个虚构的可卡因骷髅跟我们现在的调查几乎没有任何关系。”</text>
</g>
<!-- 6&#45;&gt;8 -->
<g id="edge8" class="edge">
<title>6&#45;&gt;8</title>
<path fill="none" stroke="black" d="M1785.59,-309.81C1785.59,-302.72 1785.59,-294.19 1785.59,-285.7"/>
<polygon fill="black" stroke="black" points="1789.09,-285.81 1785.59,-275.81 1782.09,-285.81 1789.09,-285.81"/>
</g>
<!-- 12 -->
<g id="node13" class="node">
<title>12</title>
<ellipse fill="none" stroke="black" cx="1089.59" cy="-244.99" rx="133.29" ry="27.4"/>
<text text-anchor="middle" x="1089.59" y="-247.07" font-family="Times New Roman,serif" font-size="14.00">Shivers: 还没有。</text>
<text text-anchor="middle" x="1089.59" y="-230.57" font-family="Times New Roman,serif" font-size="14.00">你还没准备好去探险。</text>
</g>
<!-- 7&#45;&gt;12 -->
<g id="edge9" class="edge">
<title>7&#45;&gt;12</title>
<path fill="none" stroke="black" d="M1362.71,-316.89C1317.73,-305.21 1242.13,-285.59 1181.86,-269.94"/>
<polygon fill="black" stroke="black" points="1182.82,-266.58 1172.26,-267.45 1181.06,-273.35 1182.82,-266.58"/>
</g>
<!-- 25 -->
<g id="node26" class="node">
<title>25</title>
<ellipse fill="none" stroke="black" cx="1733.59" cy="-162" rx="149.11" ry="18"/>
<text text-anchor="middle" x="1733.59" y="-156.95" font-family="Times New Roman,serif" font-size="14.00">You: 是什么给了他们动力？</text>
</g>
<!-- 8&#45;&gt;25 -->
<g id="edge10" class="edge">
<title>8&#45;&gt;25</title>
<path fill="none" stroke="black" d="M1767.41,-215.66C1761.99,-207.23 1756.08,-198.02 1750.74,-189.7"/>
<polygon fill="black" stroke="black" points="1753.74,-187.89 1745.39,-181.37 1747.84,-191.68 1753.74,-187.89"/>
</g>
<!-- 9 -->
<g id="node10" class="node">
<title>9</title>
<ellipse fill="none" stroke="black" cx="745.59" cy="-609.45" rx="155.25" ry="18"/>
<text text-anchor="middle" x="745.59" y="-604.4" font-family="Times New Roman,serif" font-size="14.00">You: 暂时先不管它。[离开。]</text>
</g>
<!-- 10 -->
<g id="node11" class="node">
<title>10</title>
<ellipse fill="none" stroke="black" cx="2607.59" cy="-504.72" rx="255.05" ry="18"/>
<text text-anchor="middle" x="2607.59" y="-499.67" font-family="Times New Roman,serif" font-size="14.00">You: 希望他们至少是为了瑞瓦肖的荣耀而工作。</text>
</g>
<!-- 23 -->
<g id="node24" class="node">
<title>23</title>
<ellipse fill="none" stroke="black" cx="2761.59" cy="-399.98" rx="408.59" ry="18"/>
<text text-anchor="middle" x="2761.59" y="-394.93" font-family="Times New Roman,serif" font-size="14.00">Shivers: 德尔塔物流公司的货車在这里等待着，后面院子的白光反射在車身上。</text>
</g>
<!-- 10&#45;&gt;23 -->
<g id="edge11" class="edge">
<title>10&#45;&gt;23</title>
<path fill="none" stroke="black" d="M2633.37,-486.52C2658.72,-469.61 2697.63,-443.65 2725.94,-424.76"/>
<polygon fill="black" stroke="black" points="2727.84,-427.71 2734.22,-419.25 2723.96,-421.88 2727.84,-427.71"/>
</g>
<!-- 11 -->
<g id="node12" class="node">
<title>11</title>
<ellipse fill="none" stroke="black" cx="2995.59" cy="-681.45" rx="52.89" ry="18"/>
<text text-anchor="middle" x="2995.59" y="-676.4" font-family="Times New Roman,serif" font-size="14.00">dlc_shivers</text>
</g>
<!-- 11&#45;&gt;9 -->
<g id="edge12" class="edge">
<title>11&#45;&gt;9</title>
<path fill="none" stroke="black" d="M2942.47,-680.56C2705.44,-680.73 1720.73,-678.19 914.59,-627.45 898.81,-626.46 882.23,-625.14 865.87,-623.66"/>
<polygon fill="black" stroke="black" points="866.37,-620.2 856.1,-622.76 865.73,-627.17 866.37,-620.2"/>
</g>
<!-- 22 -->
<g id="node23" class="node">
<title>22</title>
<ellipse fill="none" stroke="black" cx="928.59" cy="-162" rx="310.33" ry="18"/>
<text text-anchor="middle" x="928.59" y="-156.95" font-family="Times New Roman,serif" font-size="14.00">Shivers: 也许。不确定他们是否还记得自己在为什么工作……</text>
</g>
<!-- 11&#45;&gt;22 -->
<g id="edge15" class="edge">
<title>11&#45;&gt;22</title>
<path fill="none" stroke="black" d="M2942.68,-679.85C2710.67,-676.99 1781.97,-663.5 1492.59,-627.45 1238.12,-595.76 928.59,-762.16 928.59,-505.72 928.59,-505.72 928.59,-505.72 928.59,-326.98 928.59,-279.52 928.59,-224.34 928.59,-191.61"/>
<polygon fill="black" stroke="black" points="932.09,-191.75 928.59,-181.75 925.09,-191.75 932.09,-191.75"/>
</g>
<!-- 27 -->
<g id="node28" class="node">
<title>27</title>
<ellipse fill="none" stroke="black" cx="2630.59" cy="-609.45" rx="702.88" ry="18"/>
<text text-anchor="middle" x="2630.59" y="-604.4" font-family="Times New Roman,serif" font-size="14.00">Shivers: 是的，人们努力伏案工作着。大楼里的灯光始终那么明亮，让他们很难分辨现在是白天还是黑夜。谁知道他们什么时候会出来？</text>
</g>
<!-- 11&#45;&gt;27 -->
<g id="edge13" class="edge">
<title>11&#45;&gt;27</title>
<path fill="none" stroke="black" d="M2950.47,-671.8C2896.34,-661.42 2803.93,-643.69 2732.31,-629.96"/>
<polygon fill="black" stroke="black" points="2732.97,-626.52 2722.49,-628.08 2731.65,-633.4 2732.97,-626.52"/>
</g>
<!-- 29 -->
<g id="node30" class="node">
<title>29</title>
<ellipse fill="none" stroke="black" cx="3977.59" cy="-609.45" rx="403.99" ry="18"/>
<text text-anchor="middle" x="3977.59" y="-604.4" font-family="Times New Roman,serif" font-size="14.00">You: 不管他们在做什么，完成时间真有这么紧张吗？听起来好像挺危险的……</text>
</g>
<!-- 11&#45;&gt;29 -->
<g id="edge14" class="edge">
<title>11&#45;&gt;29</title>
<path fill="none" stroke="black" d="M3047.01,-676.79C3177.27,-667.5 3526.38,-642.62 3757.99,-626.11"/>
<polygon fill="black" stroke="black" points="3758.04,-629.61 3767.77,-625.41 3757.54,-622.63 3758.04,-629.61"/>
</g>
<!-- 12&#45;&gt;11 -->
<g id="edge16" class="edge">
<title>12&#45;&gt;11</title>
<path fill="none" stroke="black" d="M1117.45,-272.15C1144.52,-300.55 1181.59,-348.62 1181.59,-398.98 1181.59,-505.72 1181.59,-505.72 1181.59,-505.72 1181.59,-559.78 1240.46,-541.14 1292.59,-555.45 1610.54,-642.72 2661.63,-672.71 2931.82,-679.07"/>
<polygon fill="black" stroke="black" points="2931.39,-682.56 2941.46,-679.29 2931.55,-675.56 2931.39,-682.56"/>
</g>
<!-- 13 -->
<g id="node14" class="node">
<title>13</title>
<ellipse fill="none" stroke="black" cx="380.59" cy="-162" rx="219.74" ry="18"/>
<text text-anchor="middle" x="380.59" y="-156.95" font-family="Times New Roman,serif" font-size="14.00">You: 听起来可不像什么恰当的工作环境。</text>
</g>
<!-- 13&#45;&gt;2 -->
<g id="edge17" class="edge">
<title>13&#45;&gt;2</title>
<path fill="none" stroke="black" d="M387.51,-143.7C390.53,-136.15 394.15,-127.12 397.52,-118.68"/>
<polygon fill="black" stroke="black" points="400.73,-120.09 401.19,-109.51 394.23,-117.49 400.73,-120.09"/>
</g>
<!-- 14 -->
<g id="node15" class="node">
<title>14</title>
<ellipse fill="none" stroke="black" cx="3385.59" cy="-504.72" rx="94.34" ry="18"/>
<text text-anchor="middle" x="3385.59" y="-499.67" font-family="Times New Roman,serif" font-size="14.00">Jump to: [dlc_shivers]</text>
</g>
<!-- 14&#45;&gt;11 -->
<g id="edge18" class="edge">
<title>14&#45;&gt;11</title>
<path fill="none" stroke="black" d="M3384.84,-522.95C3382.68,-549.77 3374.36,-601.16 3342.59,-627.45 3300.64,-662.18 3148.14,-674.25 3059.89,-678.37"/>
<polygon fill="black" stroke="black" points="3059.76,-674.87 3049.92,-678.81 3060.07,-681.87 3059.76,-674.87"/>
</g>
<!-- 15&#45;&gt;15 -->
<g id="edge19" class="edge">
<title>15&#45;&gt;15</title>
<path fill="none" stroke="black" d="M1525.34,-31.47C1599.4,-31.09 1657.1,-26.6 1657.1,-18 1657.1,-9.84 1605.12,-5.38 1536.49,-4.62"/>
<polygon fill="black" stroke="black" points="1536.88,-1.12 1526.85,-4.54 1536.83,-8.12 1536.88,-1.12"/>
</g>
<!-- 16 -->
<g id="node17" class="node">
<title>16</title>
<ellipse fill="none" stroke="black" cx="3878.59" cy="-504.72" rx="243.79" ry="18"/>
<text text-anchor="middle" x="3878.59" y="-499.67" font-family="Times New Roman,serif" font-size="14.00">Shivers: 你知道它可能就在这里，堵住了大门。</text>
</g>
<!-- 16&#45;&gt;11 -->
<g id="edge20" class="edge">
<title>16&#45;&gt;11</title>
<path fill="none" stroke="black" d="M3778.7,-521.6C3714.89,-534.44 3631.82,-556.3 3564.59,-591.45 3542.51,-603 3544.56,-617.78 3521.59,-627.45 3439.76,-661.93 3181.1,-674.57 3059.69,-678.68"/>
<polygon fill="black" stroke="black" points="3059.78,-675.18 3049.9,-679.01 3060.01,-682.17 3059.78,-675.18"/>
</g>
<!-- 17 -->
<g id="node18" class="node">
<title>17</title>
<ellipse fill="none" stroke="black" cx="3256.59" cy="-244.99" rx="184.93" ry="18"/>
<text text-anchor="middle" x="3256.59" y="-239.94" font-family="Times New Roman,serif" font-size="14.00">Shivers: 因为这是一个神秘的地方。</text>
</g>
<!-- 17&#45;&gt;11 -->
<g id="edge21" class="edge">
<title>17&#45;&gt;11</title>
<path fill="none" stroke="black" d="M3341.57,-261.34C3414.39,-279.97 3507.59,-319.37 3507.59,-398.98 3507.59,-505.72 3507.59,-505.72 3507.59,-505.72 3507.59,-587.84 3445.99,-600.01 3368.59,-627.45 3264.51,-664.36 3135.48,-675.64 3059.68,-679.04"/>
<polygon fill="black" stroke="black" points="3059.8,-675.53 3049.95,-679.44 3060.08,-682.53 3059.8,-675.53"/>
</g>
<!-- 18 -->
<g id="node19" class="node">
<title>18</title>
<ellipse fill="none" stroke="black" cx="2978.59" cy="-825.45" rx="162.41" ry="18"/>
<text text-anchor="middle" x="2978.59" y="-820.4" font-family="Times New Roman,serif" font-size="14.00">Variable[&quot;coast.snowshivers_dlc_truck&quot;]</text>
</g>
<!-- 20 -->
<g id="node21" class="node">
<title>20</title>
<polygon fill="none" stroke="black" points="2556.59,-771.45 2313.88,-753.45 2556.59,-735.45 2799.31,-753.45 2556.59,-771.45"/>
<text text-anchor="middle" x="2556.59" y="-748.4" font-family="Times New Roman,serif" font-size="14.00">!(Variable[&quot;coast.snowshivers_dlc_truck&quot;])</text>
</g>
<!-- 18&#45;&gt;20 -->
<g id="edge22" class="edge">
<title>18&#45;&gt;20</title>
<path fill="none" stroke="black" d="M2890.9,-809.91C2817.43,-797.72 2713.24,-780.44 2640.78,-768.42"/>
<polygon fill="black" stroke="black" points="2641.36,-764.97 2630.92,-766.78 2640.21,-771.87 2641.36,-764.97"/>
</g>
<!-- 21 -->
<g id="node22" class="node">
<title>21</title>
<ellipse fill="none" stroke="black" cx="2978.59" cy="-753.45" rx="160.88" ry="18"/>
<text text-anchor="middle" x="2978.59" y="-748.4" font-family="Times New Roman,serif" font-size="14.00">You: 为什么这光感觉怪怪的？</text>
</g>
<!-- 18&#45;&gt;21 -->
<g id="edge23" class="edge">
<title>18&#45;&gt;21</title>
<path fill="none" stroke="black" d="M2972.68,-807.15C2971.93,-799.86 2971.68,-791.18 2971.95,-782.99"/>
<polygon fill="black" stroke="black" points="2975.44,-783.28 2972.6,-773.07 2968.45,-782.82 2975.44,-783.28"/>
</g>
<!-- 19 -->
<g id="node20" class="node">
<title>19</title>
<polygon fill="none" stroke="black" points="3005.59,-345.98 2775.91,-327.98 3005.59,-309.98 3235.28,-327.98 3005.59,-345.98"/>
<text text-anchor="middle" x="3005.59" y="-322.93" font-family="Times New Roman,serif" font-size="14.00">Variable[&quot;coast.snowshivers_dlc_truck&quot;]</text>
</g>
<!-- 19&#45;&gt;17 -->
<g id="edge24" class="edge">
<title>19&#45;&gt;17</title>
<path fill="none" stroke="black" d="M3049.03,-312.97C3089.08,-300.04 3148.99,-280.71 3194.17,-266.13"/>
<polygon fill="black" stroke="black" points="3195.14,-269.5 3203.59,-263.1 3192.99,-262.84 3195.14,-269.5"/>
</g>
<!-- 20&#45;&gt;11 -->
<g id="edge25" class="edge">
<title>20&#45;&gt;11</title>
<path fill="none" stroke="black" d="M2631.06,-740.58C2717.57,-726.78 2858.46,-704.32 2937.35,-691.74"/>
<polygon fill="black" stroke="black" points="2937.71,-695.23 2947.04,-690.2 2936.61,-688.31 2937.71,-695.23"/>
</g>
<!-- 21&#45;&gt;18 -->
<g id="edge26" class="edge">
<title>21&#45;&gt;18</title>
<path fill="none" stroke="black" d="M2984.49,-771.56C2985.25,-778.82 2985.5,-787.49 2985.25,-795.69"/>
<polygon fill="black" stroke="black" points="2981.76,-795.43 2984.61,-805.64 2988.74,-795.88 2981.76,-795.43"/>
</g>
<!-- 22&#45;&gt;15 -->
<g id="edge27" class="edge">
<title>22&#45;&gt;15</title>
<path fill="none" stroke="black" d="M911.93,-143.82C895.2,-124.46 874.3,-92.98 892.59,-72 909.39,-52.73 949.97,-40.23 998.78,-32.17"/>
<polygon fill="black" stroke="black" points="999.16,-35.65 1008.5,-30.65 998.08,-28.74 999.16,-35.65"/>
</g>
<!-- 23&#45;&gt;19 -->
<g id="edge28" class="edge">
<title>23&#45;&gt;19</title>
<path fill="none" stroke="black" d="M2821.6,-381.77C2859.87,-370.79 2909.22,-356.63 2947.18,-345.74"/>
<polygon fill="black" stroke="black" points="2947.97,-349.16 2956.61,-343.03 2946.04,-342.43 2947.97,-349.16"/>
</g>
<!-- 24&#45;&gt;11 -->
<g id="edge29" class="edge">
<title>24&#45;&gt;11</title>
<path fill="none" stroke="black" d="M3333.82,-736.26C3246.96,-722.44 3125.12,-703.06 3053.86,-691.72"/>
<polygon fill="black" stroke="black" points="3054.79,-688.33 3044.37,-690.21 3053.69,-695.24 3054.79,-688.33"/>
</g>
<!-- 25&#45;&gt;3 -->
<g id="edge30" class="edge">
<title>25&#45;&gt;3</title>
<path fill="none" stroke="black" d="M1720.99,-143.7C1715.18,-135.73 1708.17,-126.1 1701.73,-117.26"/>
<polygon fill="black" stroke="black" points="1704.66,-115.35 1695.95,-109.33 1699.01,-119.47 1704.66,-115.35"/>
</g>
<!-- 26 -->
<g id="node27" class="node">
<title>26</title>
<ellipse fill="none" stroke="black" cx="1792.59" cy="-504.72" rx="491.26" ry="50.73"/>
<text text-anchor="middle" x="1792.59" y="-523.29" font-family="Times New Roman,serif" font-size="14.00">You: 难道就不能想办法进到院子里去吗？</text>
<text text-anchor="middle" x="1792.59" y="-506.79" font-family="Times New Roman,serif" font-size="14.00">“喂，金，我们想办法进院子里去吧。白痴厄运漩涡说我们可以在里面找到可卡因骷髅……”</text>
<text text-anchor="middle" x="1792.59" y="-490.29" font-family="Times New Roman,serif" font-size="14.00">“喂，金，我们想办法进院子里去吧。它*真是*太神秘了。”</text>
<text text-anchor="middle" x="1792.59" y="-473.79" font-family="Times New Roman,serif" font-size="14.00">那不就是可卡因骷髅的所在地吗？我怎么才能进到院子里去呢？</text>
</g>
<!-- 26&#45;&gt;5 -->
<g id="edge31" class="edge">
<title>26&#45;&gt;5</title>
<path fill="none" stroke="black" d="M1789.18,-453.55C1788.62,-445.36 1788.06,-437.13 1787.55,-429.69"/>
<polygon fill="black" stroke="black" points="1791.06,-429.67 1786.88,-419.93 1784.07,-430.15 1791.06,-429.67"/>
</g>
<!-- 27&#45;&gt;4 -->
<g id="edge32" class="edge">
<title>27&#45;&gt;4</title>
<path fill="none" stroke="black" d="M2711.57,-591.1C2758.39,-580.95 2818.38,-567.76 2871.59,-555.45 2913.97,-545.65 2961.16,-534.24 2999.56,-524.82"/>
<polygon fill="black" stroke="black" points="3000.32,-528.24 3009.2,-522.45 2998.65,-521.44 3000.32,-528.24"/>
</g>
<!-- 27&#45;&gt;10 -->
<g id="edge33" class="edge">
<title>27&#45;&gt;10</title>
<path fill="none" stroke="black" d="M2626.69,-591.03C2623.2,-575.43 2618.02,-552.29 2613.94,-534.04"/>
<polygon fill="black" stroke="black" points="2617.37,-533.36 2611.77,-524.36 2610.54,-534.89 2617.37,-533.36"/>
</g>
<!-- 27&#45;&gt;14 -->
<g id="edge34" class="edge">
<title>27&#45;&gt;14</title>
<path fill="none" stroke="black" d="M2953.85,-593.03C3084.76,-584.51 3219.53,-572.2 3281.59,-555.45 3304.69,-549.22 3328.89,-537.96 3348.12,-527.74"/>
<polygon fill="black" stroke="black" points="3349.55,-530.95 3356.65,-523.08 3346.2,-524.8 3349.55,-530.95"/>
</g>
<!-- 27&#45;&gt;26 -->
<g id="edge35" class="edge">
<title>27&#45;&gt;26</title>
<path fill="none" stroke="black" d="M2491.27,-591.37C2389.41,-578.88 2246.96,-561.42 2117.24,-545.52"/>
<polygon fill="black" stroke="black" points="2117.78,-542.06 2107.43,-544.31 2116.93,-549.01 2117.78,-542.06"/>
</g>
<!-- 30 -->
<g id="node31" class="node">
<title>30</title>
<ellipse fill="none" stroke="black" cx="3427.59" cy="-90" rx="945.99" ry="18"/>
<text text-anchor="middle" x="3427.59" y="-84.95" font-family="Times New Roman,serif" font-size="14.00">Shivers: 是的，作为冒充马佐夫主义者的雅皮士，他们在讽刺的激励下积极奋斗着……又或者是冒充雅皮士的马佐夫主义者？在备受贫穷困扰的马丁内斯，就连他们自己有时也会搞混。</text>
</g>
<!-- 27&#45;&gt;30 -->
<g id="edge36" class="edge">
<title>27&#45;&gt;30</title>
<path fill="none" stroke="black" d="M2438.19,-591.67C2394.92,-583.81 2357.61,-572.3 2343.59,-555.45 2294.27,-496.19 2296.67,-443.16 2343.59,-381.98 2456.28,-235.06 2999.1,-145.91 3271.29,-109.73"/>
<polygon fill="black" stroke="black" points="3271.49,-113.23 3280.95,-108.45 3270.57,-106.29 3271.49,-113.23"/>
</g>
<!-- 28 -->
<g id="node29" class="node">
<title>28</title>
<ellipse fill="none" stroke="black" cx="3594.59" cy="-897.45" rx="102.02" ry="18"/>
<text text-anchor="middle" x="3594.59" y="-892.4" font-family="Times New Roman,serif" font-size="14.00">You: 里面有人吗？</text>
</g>
<!-- 28&#45;&gt;28 -->
<g id="edge37" class="edge">
<title>28&#45;&gt;28</title>
<path fill="none" stroke="black" d="M3664.86,-910.9C3692.03,-911.5 3714.61,-907.02 3714.61,-897.45 3714.61,-889.27 3698.09,-884.81 3676.3,-884.06"/>
<polygon fill="black" stroke="black" points="3676.39,-880.57 3666.38,-884.01 3676.36,-887.56 3676.39,-880.57"/>
</g>
<!-- 29&#45;&gt;16 -->
<g id="edge38" class="edge">
<title>29&#45;&gt;16</title>
<path fill="none" stroke="black" d="M3960.8,-591.03C3944.92,-574.54 3920.9,-549.62 3902.92,-530.97"/>
<polygon fill="black" stroke="black" points="3905.65,-528.75 3896.19,-523.98 3900.61,-533.61 3905.65,-528.75"/>
</g>
<!-- 30&#45;&gt;15 -->
<g id="edge39" class="edge">
<title>30&#45;&gt;15</title>
<path fill="none" stroke="black" d="M2963.39,-73.89C2546.23,-60.3 1945.4,-40.74 1585.05,-29.01"/>
<polygon fill="black" stroke="black" points="1585.29,-25.52 1575.18,-28.69 1585.06,-32.51 1585.29,-25.52"/>
</g>
</g>
</svg>
