<?xml version="1.0" encoding="UTF-8" standalone="no"?>
<!DOCTYPE svg PUBLIC "-//W3C//DTD SVG 1.1//EN"
 "http://www.w3.org/Graphics/SVG/1.1/DTD/svg11.dtd">
<!-- Generated by graphviz version 12.2.1 (20241206.2353)
 -->
<!-- Title: G Pages: 1 -->
<svg width="2777pt" height="764pt"
 viewBox="0.00 0.00 2776.73 764.00" xmlns="http://www.w3.org/2000/svg" xmlns:xlink="http://www.w3.org/1999/xlink">
<g id="graph0" class="graph" transform="scale(1 1) rotate(0) translate(4 760)">
<title>G</title>
<polygon fill="white" stroke="none" points="-4,4 -4,-760 2772.73,-760 2772.73,4 -4,4"/>
<!-- 0 -->
<g id="node1" class="node">
<title>0</title>
<ellipse fill="none" stroke="black" cx="1389.93" cy="-738" rx="39.07" ry="18"/>
<text text-anchor="middle" x="1389.93" y="-732.95" font-family="Times New Roman,serif" font-size="14.00">START</text>
</g>
<!-- 0&#45;&gt;0 -->
<g id="edge1" class="edge">
<title>0&#45;&gt;0</title>
<path fill="none" stroke="black" d="M1418.11,-750.94C1433.23,-753.14 1446.99,-748.83 1446.99,-738 1446.99,-729.96 1439.41,-725.52 1429.32,-724.65"/>
<polygon fill="black" stroke="black" points="1429.49,-721.15 1419.63,-725 1429.74,-728.14 1429.49,-721.15"/>
</g>
<!-- 1 -->
<g id="node2" class="node">
<title>1</title>
<ellipse fill="none" stroke="black" cx="1494.93" cy="-738" rx="29.86" ry="18"/>
<text text-anchor="middle" x="1494.93" y="-732.95" font-family="Times New Roman,serif" font-size="14.00">input</text>
</g>
<!-- 10 -->
<g id="node11" class="node">
<title>10</title>
<ellipse fill="none" stroke="black" cx="1362.93" cy="-666" rx="236.11" ry="18"/>
<text text-anchor="middle" x="1362.93" y="-660.95" font-family="Times New Roman,serif" font-size="14.00">Conceptualization: 这里的措辞就应该从上面看。</text>
</g>
<!-- 1&#45;&gt;10 -->
<g id="edge2" class="edge">
<title>1&#45;&gt;10</title>
<path fill="none" stroke="black" d="M1473.13,-725.44C1454.71,-715.68 1427.8,-701.4 1405.18,-689.41"/>
<polygon fill="black" stroke="black" points="1406.95,-686.38 1396.47,-684.79 1403.67,-692.57 1406.95,-686.38"/>
</g>
<!-- 2 -->
<g id="node3" class="node">
<title>2</title>
<ellipse fill="none" stroke="black" cx="219.93" cy="-162" rx="102.02" ry="18"/>
<text text-anchor="middle" x="219.93" y="-156.95" font-family="Times New Roman,serif" font-size="14.00">You: 静静地点头。</text>
</g>
<!-- 6 -->
<g id="node7" class="node">
<title>6</title>
<ellipse fill="none" stroke="black" cx="227.93" cy="-90" rx="227.93" ry="18"/>
<text text-anchor="middle" x="227.93" y="-84.95" font-family="Times New Roman,serif" font-size="14.00">You: “他们到底是怎么一直待在半空中的？”</text>
</g>
<!-- 2&#45;&gt;6 -->
<g id="edge3" class="edge">
<title>2&#45;&gt;6</title>
<path fill="none" stroke="black" d="M221.9,-143.7C222.74,-136.41 223.73,-127.73 224.66,-119.54"/>
<polygon fill="black" stroke="black" points="228.14,-119.94 225.8,-109.61 221.19,-119.15 228.14,-119.94"/>
</g>
<!-- 3 -->
<g id="node4" class="node">
<title>3</title>
<ellipse fill="none" stroke="black" cx="1241.93" cy="-90" rx="192.61" ry="18"/>
<text text-anchor="middle" x="1241.93" y="-84.95" font-family="Times New Roman,serif" font-size="14.00">You: “不过，他们为什么会在那里？”</text>
</g>
<!-- 11 -->
<g id="node12" class="node">
<title>11</title>
<ellipse fill="none" stroke="black" cx="998.93" cy="-18" rx="757.13" ry="18"/>
<text text-anchor="middle" x="998.93" y="-12.95" font-family="Times New Roman,serif" font-size="14.00">Kim Kitsuragi: “我说，”警督有些不耐烦。“这些东西可不是三言两语就能解释清楚的。现在我们还有更重要的事要做，不如先回到正事上来，好吧？”</text>
</g>
<!-- 3&#45;&gt;11 -->
<g id="edge4" class="edge">
<title>3&#45;&gt;11</title>
<path fill="none" stroke="black" d="M1184.34,-72.41C1150.12,-62.56 1106.46,-49.98 1070.09,-39.5"/>
<polygon fill="black" stroke="black" points="1071.1,-36.15 1060.52,-36.74 1069.16,-42.87 1071.1,-36.15"/>
</g>
<!-- 4 -->
<g id="node5" class="node">
<title>4</title>
<ellipse fill="none" stroke="black" cx="1661.93" cy="-162" rx="380.96" ry="18"/>
<text text-anchor="middle" x="1661.93" y="-156.95" font-family="Times New Roman,serif" font-size="14.00">You: （朝天空挥手。）“你们好啊，友好的国际社会。感谢你们的监控。”</text>
</g>
<!-- 8 -->
<g id="node9" class="node">
<title>8</title>
<ellipse fill="none" stroke="black" cx="1747.93" cy="-90" rx="294.97" ry="18"/>
<text text-anchor="middle" x="1747.93" y="-84.95" font-family="Times New Roman,serif" font-size="14.00">Conceptualization: 相比寻常，天空变得越发明亮和热忱了。</text>
</g>
<!-- 4&#45;&gt;8 -->
<g id="edge5" class="edge">
<title>4&#45;&gt;8</title>
<path fill="none" stroke="black" d="M1683.18,-143.7C1693.62,-135.2 1706.38,-124.81 1717.81,-115.51"/>
<polygon fill="black" stroke="black" points="1719.89,-118.33 1725.44,-109.3 1715.47,-112.9 1719.89,-118.33"/>
</g>
<!-- 5 -->
<g id="node6" class="node">
<title>5</title>
<ellipse fill="none" stroke="black" cx="634.93" cy="-162" rx="294.97" ry="18"/>
<text text-anchor="middle" x="634.93" y="-156.95" font-family="Times New Roman,serif" font-size="14.00">Conceptualization: 相比寻常，天空变得越发不祥而凶险了。</text>
</g>
<!-- 6&#45;&gt;11 -->
<g id="edge6" class="edge">
<title>6&#45;&gt;11</title>
<path fill="none" stroke="black" d="M373.4,-75.79C494.47,-64.8 668.01,-49.04 801.61,-36.91"/>
<polygon fill="black" stroke="black" points="801.63,-40.43 811.27,-36.04 800.99,-33.46 801.63,-40.43"/>
</g>
<!-- 7 -->
<g id="node8" class="node">
<title>7</title>
<ellipse fill="none" stroke="black" cx="2155.93" cy="-738" rx="612.8" ry="18"/>
<text text-anchor="middle" x="2155.93" y="-732.95" font-family="Times New Roman,serif" font-size="14.00">Conceptualization: 天空对你沉默的点头毫不关心，但是警督好像对此比较赞赏。你在他脸上捕捉到一个转瞬即逝的微笑。</text>
</g>
<!-- 9 -->
<g id="node10" class="node">
<title>9</title>
<ellipse fill="none" stroke="black" cx="668.93" cy="-306" rx="121.98" ry="18"/>
<text text-anchor="middle" x="668.93" y="-300.95" font-family="Times New Roman,serif" font-size="14.00">You: “静风舰是什么？”</text>
</g>
<!-- 20 -->
<g id="node21" class="node">
<title>20</title>
<ellipse fill="none" stroke="black" cx="634.93" cy="-234" rx="589.77" ry="18"/>
<text text-anchor="middle" x="634.93" y="-228.95" font-family="Times New Roman,serif" font-size="14.00">Kim Kitsuragi: “静风舰是一种飞艇，一种半刚性的混合动力飞船。”他指向云层中的一个小点。“*那个*就是静风舰。”</text>
</g>
<!-- 9&#45;&gt;20 -->
<g id="edge7" class="edge">
<title>9&#45;&gt;20</title>
<path fill="none" stroke="black" d="M660.52,-287.7C656.82,-280.07 652.37,-270.92 648.23,-262.4"/>
<polygon fill="black" stroke="black" points="651.41,-260.93 643.89,-253.47 645.12,-263.99 651.41,-260.93"/>
</g>
<!-- 18 -->
<g id="node19" class="node">
<title>18</title>
<ellipse fill="none" stroke="black" cx="1366.93" cy="-594" rx="227.93" ry="18"/>
<text text-anchor="middle" x="1366.93" y="-588.95" font-family="Times New Roman,serif" font-size="14.00">You: “那是什么鬼？”（指向屋顶的信息。）</text>
</g>
<!-- 10&#45;&gt;18 -->
<g id="edge8" class="edge">
<title>10&#45;&gt;18</title>
<path fill="none" stroke="black" d="M1363.91,-647.7C1364.33,-640.41 1364.83,-631.73 1365.29,-623.54"/>
<polygon fill="black" stroke="black" points="1368.79,-623.8 1365.86,-613.62 1361.8,-623.4 1368.79,-623.8"/>
</g>
<!-- 19 -->
<g id="node20" class="node">
<title>19</title>
<ellipse fill="none" stroke="black" cx="857.93" cy="-594" rx="263.24" ry="18"/>
<text text-anchor="middle" x="857.93" y="-588.95" font-family="Times New Roman,serif" font-size="14.00">You: “喂，我说金，屋顶上的这条信息是给谁的？”</text>
</g>
<!-- 10&#45;&gt;19 -->
<g id="edge9" class="edge">
<title>10&#45;&gt;19</title>
<path fill="none" stroke="black" d="M1252.41,-649.68C1172.63,-638.62 1064.81,-623.68 982.06,-612.21"/>
<polygon fill="black" stroke="black" points="982.7,-608.76 972.31,-610.86 981.74,-615.7 982.7,-608.76"/>
</g>
<!-- 13 -->
<g id="node14" class="node">
<title>13</title>
<ellipse fill="none" stroke="black" cx="1626.93" cy="-306" rx="44.7" ry="18"/>
<text text-anchor="middle" x="1626.93" y="-300.95" font-family="Times New Roman,serif" font-size="14.00">bringitup</text>
</g>
<!-- 11&#45;&gt;13 -->
<g id="edge10" class="edge">
<title>11&#45;&gt;13</title>
<path fill="none" stroke="black" d="M1547.36,-30.76C1793.13,-38.81 2032.71,-51.79 2051.93,-72 2085,-106.78 2077.33,-139.27 2051.93,-180 2012.15,-243.76 1785.44,-283.02 1680.37,-298.03"/>
<polygon fill="black" stroke="black" points="1680,-294.54 1670.58,-299.4 1680.97,-301.48 1680,-294.54"/>
</g>
<!-- 12 -->
<g id="node13" class="node">
<title>12</title>
<ellipse fill="none" stroke="black" cx="755.93" cy="-90" rx="275.01" ry="18"/>
<text text-anchor="middle" x="755.93" y="-84.95" font-family="Times New Roman,serif" font-size="14.00">You: “这里居然有飞艇的吗？我能去哪儿弄一个？！”</text>
</g>
<!-- 12&#45;&gt;11 -->
<g id="edge11" class="edge">
<title>12&#45;&gt;11</title>
<path fill="none" stroke="black" d="M815.06,-71.97C849.05,-62.17 891.98,-49.81 927.81,-39.49"/>
<polygon fill="black" stroke="black" points="928.59,-42.9 937.23,-36.77 926.65,-36.18 928.59,-42.9"/>
</g>
<!-- 13&#45;&gt;1 -->
<g id="edge12" class="edge">
<title>13&#45;&gt;1</title>
<path fill="none" stroke="black" d="M1626.93,-324.49C1626.93,-351.29 1626.93,-404.13 1626.93,-449 1626.93,-595 1626.93,-595 1626.93,-595 1626.93,-635.45 1633.08,-652.33 1607.93,-684 1605.22,-687.41 1561.32,-707.45 1529.05,-721.88"/>
<polygon fill="black" stroke="black" points="1527.72,-718.64 1520.01,-725.91 1530.57,-725.04 1527.72,-718.64"/>
</g>
<!-- 13&#45;&gt;3 -->
<g id="edge13" class="edge">
<title>13&#45;&gt;3</title>
<path fill="none" stroke="black" d="M1584.03,-300.23C1534.57,-293.69 1451.52,-279.49 1384.93,-252 1329.88,-229.28 1308.64,-226.89 1271.93,-180 1258.17,-162.43 1250.55,-138.22 1246.43,-119.49"/>
<polygon fill="black" stroke="black" points="1249.9,-118.99 1244.55,-109.85 1243.03,-120.34 1249.9,-118.99"/>
</g>
<!-- 21 -->
<g id="node22" class="node">
<title>21</title>
<ellipse fill="none" stroke="black" cx="1644.93" cy="-234" rx="251.47" ry="18"/>
<text text-anchor="middle" x="1644.93" y="-228.95" font-family="Times New Roman,serif" font-size="14.00">You: （对着天上的云挥舞你的手指。）“回家！”</text>
</g>
<!-- 13&#45;&gt;21 -->
<g id="edge14" class="edge">
<title>13&#45;&gt;21</title>
<path fill="none" stroke="black" d="M1631.37,-287.7C1633.27,-280.32 1635.53,-271.52 1637.66,-263.25"/>
<polygon fill="black" stroke="black" points="1641.05,-264.13 1640.15,-253.57 1634.27,-262.38 1641.05,-264.13"/>
</g>
<!-- 14 -->
<g id="node15" class="node">
<title>14</title>
<ellipse fill="none" stroke="black" cx="874.93" cy="-522" rx="707.49" ry="18"/>
<text text-anchor="middle" x="874.93" y="-516.95" font-family="Times New Roman,serif" font-size="14.00">Kim Kitsuragi: 警督抬起头低语到：“回家。”他停顿了一下。“这是*静风讯号*。联盟静风舰用的，他们可以从低对流层密切监控这座城市。”</text>
</g>
<!-- 15 -->
<g id="node16" class="node">
<title>15</title>
<ellipse fill="none" stroke="black" cx="874.93" cy="-450" rx="100.48" ry="18"/>
<text text-anchor="middle" x="874.93" y="-444.95" font-family="Times New Roman,serif" font-size="14.00">Variable[&quot;tc.aerostatic&quot;]</text>
</g>
<!-- 14&#45;&gt;15 -->
<g id="edge15" class="edge">
<title>14&#45;&gt;15</title>
<path fill="none" stroke="black" d="M874.93,-503.7C874.93,-496.41 874.93,-487.73 874.93,-479.54"/>
<polygon fill="black" stroke="black" points="878.43,-479.62 874.93,-469.62 871.43,-479.62 878.43,-479.62"/>
</g>
<!-- 16 -->
<g id="node17" class="node">
<title>16</title>
<polygon fill="none" stroke="black" points="1254.93,-396 1112.82,-378 1254.93,-360 1397.03,-378 1254.93,-396"/>
<text text-anchor="middle" x="1254.93" y="-372.95" font-family="Times New Roman,serif" font-size="14.00">Variable[&quot;tc.aerostatic&quot;]</text>
</g>
<!-- 15&#45;&gt;16 -->
<g id="edge16" class="edge">
<title>15&#45;&gt;16</title>
<path fill="none" stroke="black" d="M943.3,-436.4C1012.53,-423.65 1118.91,-404.06 1187.71,-391.38"/>
<polygon fill="black" stroke="black" points="1188.15,-394.86 1197.36,-389.61 1186.89,-387.97 1188.15,-394.86"/>
</g>
<!-- 17 -->
<g id="node18" class="node">
<title>17</title>
<polygon fill="none" stroke="black" points="737.93,-396 582.79,-378 737.93,-360 893.06,-378 737.93,-396"/>
<text text-anchor="middle" x="737.93" y="-372.95" font-family="Times New Roman,serif" font-size="14.00">!(Variable[&quot;tc.aerostatic&quot;])</text>
</g>
<!-- 15&#45;&gt;17 -->
<g id="edge17" class="edge">
<title>15&#45;&gt;17</title>
<path fill="none" stroke="black" d="M842.8,-432.59C822.78,-422.36 796.91,-409.14 775.87,-398.39"/>
<polygon fill="black" stroke="black" points="777.52,-395.3 767.02,-393.87 774.34,-401.53 777.52,-395.3"/>
</g>
<!-- 16&#45;&gt;13 -->
<g id="edge18" class="edge">
<title>16&#45;&gt;13</title>
<path fill="none" stroke="black" d="M1310.22,-366.6C1382.02,-353.08 1506.36,-329.69 1575.97,-316.59"/>
<polygon fill="black" stroke="black" points="1576.4,-320.07 1585.58,-314.78 1575.11,-313.19 1576.4,-320.07"/>
</g>
<!-- 17&#45;&gt;9 -->
<g id="edge19" class="edge">
<title>17&#45;&gt;9</title>
<path fill="none" stroke="black" d="M722.61,-361.46C714.05,-352.78 703.18,-341.75 693.46,-331.89"/>
<polygon fill="black" stroke="black" points="696.22,-329.7 686.71,-325.04 691.23,-334.62 696.22,-329.7"/>
</g>
<!-- 18&#45;&gt;14 -->
<g id="edge20" class="edge">
<title>18&#45;&gt;14</title>
<path fill="none" stroke="black" d="M1259.56,-577.72C1185.3,-567.16 1086.01,-553.03 1006.91,-541.78"/>
<polygon fill="black" stroke="black" points="1007.78,-538.37 997.39,-540.42 1006.8,-545.3 1007.78,-538.37"/>
</g>
<!-- 19&#45;&gt;14 -->
<g id="edge21" class="edge">
<title>19&#45;&gt;14</title>
<path fill="none" stroke="black" d="M862.13,-575.7C863.92,-568.32 866.05,-559.52 868.06,-551.25"/>
<polygon fill="black" stroke="black" points="871.46,-552.12 870.41,-541.58 864.65,-550.47 871.46,-552.12"/>
</g>
<!-- 20&#45;&gt;2 -->
<g id="edge22" class="edge">
<title>20&#45;&gt;2</title>
<path fill="none" stroke="black" d="M532.87,-215.79C462.2,-203.87 369.31,-188.2 303.13,-177.03"/>
<polygon fill="black" stroke="black" points="303.85,-173.61 293.41,-175.4 302.69,-180.51 303.85,-173.61"/>
</g>
<!-- 20&#45;&gt;5 -->
<g id="edge24" class="edge">
<title>20&#45;&gt;5</title>
<path fill="none" stroke="black" d="M634.93,-215.7C634.93,-208.41 634.93,-199.73 634.93,-191.54"/>
<polygon fill="black" stroke="black" points="638.43,-191.62 634.93,-181.62 631.43,-191.62 638.43,-191.62"/>
</g>
<!-- 20&#45;&gt;12 -->
<g id="edge23" class="edge">
<title>20&#45;&gt;12</title>
<path fill="none" stroke="black" d="M842.6,-216.7C886.74,-208.85 924.45,-197.22 938.93,-180 967.85,-145.59 922.82,-123.4 870.2,-109.78"/>
<polygon fill="black" stroke="black" points="871.26,-106.44 860.71,-107.45 869.59,-113.24 871.26,-106.44"/>
</g>
<!-- 21&#45;&gt;4 -->
<g id="edge25" class="edge">
<title>21&#45;&gt;4</title>
<path fill="none" stroke="black" d="M1649.13,-215.7C1650.92,-208.32 1653.05,-199.52 1655.06,-191.25"/>
<polygon fill="black" stroke="black" points="1658.46,-192.12 1657.41,-181.58 1651.65,-190.47 1658.46,-192.12"/>
</g>
</g>
</svg>
