<?xml version="1.0" encoding="UTF-8" standalone="no"?>
<!DOCTYPE svg PUBLIC "-//W3C//DTD SVG 1.1//EN"
 "http://www.w3.org/Graphics/SVG/1.1/DTD/svg11.dtd">
<!-- Generated by graphviz version 12.2.1 (20241206.2353)
 -->
<!-- Title: G Pages: 1 -->
<svg width="4950pt" height="188pt"
 viewBox="0.00 0.00 4949.61 188.00" xmlns="http://www.w3.org/2000/svg" xmlns:xlink="http://www.w3.org/1999/xlink">
<g id="graph0" class="graph" transform="scale(1 1) rotate(0) translate(4 184)">
<title>G</title>
<polygon fill="white" stroke="none" points="-4,4 -4,-184 4945.61,-184 4945.61,4 -4,4"/>
<!-- 0 -->
<g id="node1" class="node">
<title>0</title>
<ellipse fill="none" stroke="black" cx="2432.76" cy="-162" rx="39.07" ry="18"/>
<text text-anchor="middle" x="2432.76" y="-156.95" font-family="Times New Roman,serif" font-size="14.00">START</text>
</g>
<!-- 1 -->
<g id="node2" class="node">
<title>1</title>
<ellipse fill="none" stroke="black" cx="2432.76" cy="-90" rx="29.86" ry="18"/>
<text text-anchor="middle" x="2432.76" y="-84.95" font-family="Times New Roman,serif" font-size="14.00">input</text>
</g>
<!-- 0&#45;&gt;1 -->
<g id="edge1" class="edge">
<title>0&#45;&gt;1</title>
<path fill="none" stroke="black" d="M2432.76,-143.7C2432.76,-136.41 2432.76,-127.73 2432.76,-119.54"/>
<polygon fill="black" stroke="black" points="2436.26,-119.62 2432.76,-109.62 2429.26,-119.62 2436.26,-119.62"/>
</g>
<!-- 2 -->
<g id="node3" class="node">
<title>2</title>
<ellipse fill="none" stroke="black" cx="285.76" cy="-18" rx="285.76" ry="18"/>
<text text-anchor="middle" x="285.76" y="-12.95" font-family="Times New Roman,serif" font-size="14.00">Lilienne, the Net Picker: “在这里看到警察其实还挺好的……”</text>
</g>
<!-- 1&#45;&gt;2 -->
<g id="edge2" class="edge">
<title>1&#45;&gt;2</title>
<path fill="none" stroke="black" d="M2402.77,-88.47C2227.78,-85.29 1320.69,-67.9 580.76,-36 553.39,-34.82 524.59,-33.39 496.17,-31.87"/>
<polygon fill="black" stroke="black" points="496.55,-28.39 486.38,-31.34 496.18,-35.38 496.55,-28.39"/>
</g>
<!-- 3 -->
<g id="node4" class="node">
<title>3</title>
<ellipse fill="none" stroke="black" cx="949.76" cy="-18" rx="360.48" ry="18"/>
<text text-anchor="middle" x="949.76" y="-12.95" font-family="Times New Roman,serif" font-size="14.00">Lilienne, the Net Picker: “还以为你们这些家伙早就忘了这个地方的存在。”</text>
</g>
<!-- 1&#45;&gt;3 -->
<g id="edge3" class="edge">
<title>1&#45;&gt;3</title>
<path fill="none" stroke="black" d="M2402.8,-87.59C2254.84,-80.6 1594.1,-49.41 1216.58,-31.59"/>
<polygon fill="black" stroke="black" points="1216.88,-28.1 1206.73,-31.13 1216.55,-35.1 1216.88,-28.1"/>
</g>
<!-- 4 -->
<g id="node5" class="node">
<title>4</title>
<ellipse fill="none" stroke="black" cx="1594.76" cy="-18" rx="266.31" ry="18"/>
<text text-anchor="middle" x="1594.76" y="-12.95" font-family="Times New Roman,serif" font-size="14.00">Lilienne, the Net Picker: “我真的应该出海去抓点什么。”</text>
</g>
<!-- 1&#45;&gt;4 -->
<g id="edge4" class="edge">
<title>1&#45;&gt;4</title>
<path fill="none" stroke="black" d="M2403.43,-86.55C2304.15,-78.26 1975.49,-50.8 1768.99,-33.55"/>
<polygon fill="black" stroke="black" points="1769.48,-30.08 1759.22,-32.74 1768.9,-37.06 1769.48,-30.08"/>
</g>
<!-- 5 -->
<g id="node6" class="node">
<title>5</title>
<ellipse fill="none" stroke="black" cx="2141.76" cy="-18" rx="262.22" ry="18"/>
<text text-anchor="middle" x="2141.76" y="-12.95" font-family="Times New Roman,serif" font-size="14.00">Lilienne, the Net Picker: “喂，孩子们！呃……没事了。”</text>
</g>
<!-- 1&#45;&gt;5 -->
<g id="edge5" class="edge">
<title>1&#45;&gt;5</title>
<path fill="none" stroke="black" d="M2405.12,-82.35C2363.65,-72.38 2283.69,-53.14 2222.71,-38.47"/>
<polygon fill="black" stroke="black" points="2223.57,-35.08 2213.03,-36.14 2221.93,-41.89 2223.57,-35.08"/>
</g>
<!-- 7 -->
<g id="node7" class="node">
<title>7</title>
<ellipse fill="none" stroke="black" cx="2724.76" cy="-18" rx="302.65" ry="18"/>
<text text-anchor="middle" x="2724.76" y="-12.95" font-family="Times New Roman,serif" font-size="14.00">Lilienne, the Net Picker: “该死……我才*刚刚*买下这张渔网……”</text>
</g>
<!-- 1&#45;&gt;7 -->
<g id="edge6" class="edge">
<title>1&#45;&gt;7</title>
<path fill="none" stroke="black" d="M2460.23,-82.41C2501.68,-72.48 2581.88,-53.25 2643.15,-38.56"/>
<polygon fill="black" stroke="black" points="2643.59,-42.06 2652.5,-36.32 2641.96,-35.25 2643.59,-42.06"/>
</g>
<!-- 8 -->
<g id="node8" class="node">
<title>8</title>
<ellipse fill="none" stroke="black" cx="3335.76" cy="-18" rx="289.85" ry="18"/>
<text text-anchor="middle" x="3335.76" y="-12.95" font-family="Times New Roman,serif" font-size="14.00">Lilienne, the Net Picker: “捕捞黄鳍金枪鱼的季节就快到了。”</text>
</g>
<!-- 1&#45;&gt;8 -->
<g id="edge7" class="edge">
<title>1&#45;&gt;8</title>
<path fill="none" stroke="black" d="M2462.55,-86.69C2567.3,-78.57 2924.44,-50.89 3148.23,-33.54"/>
<polygon fill="black" stroke="black" points="3148.24,-37.05 3157.94,-32.78 3147.7,-30.07 3148.24,-37.05"/>
</g>
<!-- 9 -->
<g id="node9" class="node">
<title>9</title>
<ellipse fill="none" stroke="black" cx="3950.76" cy="-18" rx="306.74" ry="18"/>
<text text-anchor="middle" x="3950.76" y="-12.95" font-family="Times New Roman,serif" font-size="14.00">Lilienne, the Net Picker: “呃……已经好多年没见过RCM的人了。”</text>
</g>
<!-- 1&#45;&gt;9 -->
<g id="edge8" class="edge">
<title>1&#45;&gt;9</title>
<path fill="none" stroke="black" d="M2462.5,-87.79C2597.64,-82.3 3167.42,-58.87 3634.76,-36 3662.86,-34.62 3692.36,-33.12 3721.58,-31.59"/>
<polygon fill="black" stroke="black" points="3721.45,-35.1 3731.25,-31.08 3721.08,-28.11 3721.45,-35.1"/>
</g>
<!-- 10 -->
<g id="node10" class="node">
<title>10</title>
<ellipse fill="none" stroke="black" cx="4608.76" cy="-18" rx="332.85" ry="18"/>
<text text-anchor="middle" x="4608.76" y="-12.95" font-family="Times New Roman,serif" font-size="14.00">Lilienne, the Net Picker: “每年到了这个时候，抛网都没什么收获……”</text>
</g>
<!-- 1&#45;&gt;10 -->
<g id="edge9" class="edge">
<title>1&#45;&gt;10</title>
<path fill="none" stroke="black" d="M2462.73,-88.37C2636.7,-84.65 3534.29,-64.79 4266.76,-36 4298.51,-34.75 4331.92,-33.28 4364.9,-31.74"/>
<polygon fill="black" stroke="black" points="4364.73,-35.25 4374.56,-31.29 4364.4,-28.26 4364.73,-35.25"/>
</g>
</g>
</svg>
