<?xml version="1.0" encoding="UTF-8" standalone="no"?>
<!DOCTYPE svg PUBLIC "-//W3C//DTD SVG 1.1//EN"
 "http://www.w3.org/Graphics/SVG/1.1/DTD/svg11.dtd">
<!-- Generated by graphviz version 12.2.1 (20241206.2353)
 -->
<!-- Title: G Pages: 1 -->
<svg width="4398pt" height="188pt"
 viewBox="0.00 0.00 4397.76 188.00" xmlns="http://www.w3.org/2000/svg" xmlns:xlink="http://www.w3.org/1999/xlink">
<g id="graph0" class="graph" transform="scale(1 1) rotate(0) translate(4 184)">
<title>G</title>
<polygon fill="white" stroke="none" points="-4,4 -4,-184 4393.76,-184 4393.76,4 -4,4"/>
<!-- 0 -->
<g id="node1" class="node">
<title>0</title>
<ellipse fill="none" stroke="black" cx="2426.76" cy="-162" rx="39.07" ry="18"/>
<text text-anchor="middle" x="2426.76" y="-156.95" font-family="Times New Roman,serif" font-size="14.00">START</text>
</g>
<!-- 1 -->
<g id="node2" class="node">
<title>1</title>
<ellipse fill="none" stroke="black" cx="2426.76" cy="-90" rx="29.86" ry="18"/>
<text text-anchor="middle" x="2426.76" y="-84.95" font-family="Times New Roman,serif" font-size="14.00">input</text>
</g>
<!-- 0&#45;&gt;1 -->
<g id="edge1" class="edge">
<title>0&#45;&gt;1</title>
<path fill="none" stroke="black" d="M2426.76,-143.7C2426.76,-136.41 2426.76,-127.73 2426.76,-119.54"/>
<polygon fill="black" stroke="black" points="2430.26,-119.62 2426.76,-109.62 2423.26,-119.62 2430.26,-119.62"/>
</g>
<!-- 2 -->
<g id="node3" class="node">
<title>2</title>
<ellipse fill="none" stroke="black" cx="285.76" cy="-18" rx="285.76" ry="18"/>
<text text-anchor="middle" x="285.76" y="-12.95" font-family="Times New Roman,serif" font-size="14.00">Lilienne, the Net Picker: “在这里看到警察其实还挺好的……”</text>
</g>
<!-- 1&#45;&gt;2 -->
<g id="edge2" class="edge">
<title>1&#45;&gt;2</title>
<path fill="none" stroke="black" d="M2396.59,-88.46C2221.46,-85.26 1317.9,-67.81 580.76,-36 553.39,-34.82 524.59,-33.39 496.17,-31.87"/>
<polygon fill="black" stroke="black" points="496.55,-28.39 486.38,-31.34 496.18,-35.37 496.55,-28.39"/>
</g>
<!-- 3 -->
<g id="node4" class="node">
<title>3</title>
<ellipse fill="none" stroke="black" cx="949.76" cy="-18" rx="360.48" ry="18"/>
<text text-anchor="middle" x="949.76" y="-12.95" font-family="Times New Roman,serif" font-size="14.00">Lilienne, the Net Picker: “还以为你们这些家伙早就忘了这个地方的存在。”</text>
</g>
<!-- 1&#45;&gt;3 -->
<g id="edge3" class="edge">
<title>1&#45;&gt;3</title>
<path fill="none" stroke="black" d="M2396.92,-87.59C2249.61,-80.6 1591.95,-49.44 1215.89,-31.61"/>
<polygon fill="black" stroke="black" points="1216.24,-28.13 1206.08,-31.15 1215.9,-35.12 1216.24,-28.13"/>
</g>
<!-- 4 -->
<g id="node5" class="node">
<title>4</title>
<ellipse fill="none" stroke="black" cx="1594.76" cy="-18" rx="266.31" ry="18"/>
<text text-anchor="middle" x="1594.76" y="-12.95" font-family="Times New Roman,serif" font-size="14.00">Lilienne, the Net Picker: “我真的应该出海去抓点什么。”</text>
</g>
<!-- 1&#45;&gt;4 -->
<g id="edge4" class="edge">
<title>1&#45;&gt;4</title>
<path fill="none" stroke="black" d="M2397.15,-86.51C2298.09,-78.17 1973.01,-50.82 1768.29,-33.6"/>
<polygon fill="black" stroke="black" points="1768.88,-30.14 1758.62,-32.79 1768.29,-37.11 1768.88,-30.14"/>
</g>
<!-- 5 -->
<g id="node6" class="node">
<title>5</title>
<ellipse fill="none" stroke="black" cx="2141.76" cy="-18" rx="262.22" ry="18"/>
<text text-anchor="middle" x="2141.76" y="-12.95" font-family="Times New Roman,serif" font-size="14.00">Lilienne, the Net Picker: “喂，孩子们！呃……没事了。”</text>
</g>
<!-- 1&#45;&gt;5 -->
<g id="edge5" class="edge">
<title>1&#45;&gt;5</title>
<path fill="none" stroke="black" d="M2399.43,-82.29C2358.77,-72.3 2280.75,-53.14 2221.17,-38.5"/>
<polygon fill="black" stroke="black" points="2222.28,-35.17 2211.74,-36.19 2220.61,-41.97 2222.28,-35.17"/>
</g>
<!-- 7 -->
<g id="node8" class="node">
<title>7</title>
<ellipse fill="none" stroke="black" cx="2711.76" cy="-18" rx="289.85" ry="18"/>
<text text-anchor="middle" x="2711.76" y="-12.95" font-family="Times New Roman,serif" font-size="14.00">Lilienne, the Net Picker: “捕捞黄鳍金枪鱼的季节就快到了。”</text>
</g>
<!-- 1&#45;&gt;7 -->
<g id="edge6" class="edge">
<title>1&#45;&gt;7</title>
<path fill="none" stroke="black" d="M2454.09,-82.29C2494.68,-72.32 2572.52,-53.2 2632.07,-38.57"/>
<polygon fill="black" stroke="black" points="2632.61,-42.04 2641.49,-36.26 2630.94,-35.25 2632.61,-42.04"/>
</g>
<!-- 8 -->
<g id="node9" class="node">
<title>8</title>
<ellipse fill="none" stroke="black" cx="3326.76" cy="-18" rx="306.74" ry="18"/>
<text text-anchor="middle" x="3326.76" y="-12.95" font-family="Times New Roman,serif" font-size="14.00">Lilienne, the Net Picker: “呃……已经好多年没见过RCM的人了。”</text>
</g>
<!-- 1&#45;&gt;8 -->
<g id="edge7" class="edge">
<title>1&#45;&gt;8</title>
<path fill="none" stroke="black" d="M2456.45,-86.69C2560.25,-78.62 2912.74,-51.2 3136.01,-33.84"/>
<polygon fill="black" stroke="black" points="3135.99,-37.35 3145.69,-33.08 3135.45,-30.37 3135.99,-37.35"/>
</g>
<!-- 9 -->
<g id="node10" class="node">
<title>9</title>
<ellipse fill="none" stroke="black" cx="3984.76" cy="-18" rx="332.85" ry="18"/>
<text text-anchor="middle" x="3984.76" y="-12.95" font-family="Times New Roman,serif" font-size="14.00">Lilienne, the Net Picker: “每年到了这个时候，抛网都没什么收获……”</text>
</g>
<!-- 1&#45;&gt;9 -->
<g id="edge8" class="edge">
<title>1&#45;&gt;9</title>
<path fill="none" stroke="black" d="M2456.85,-87.76C2593.55,-82.09 3169.94,-58.06 3642.76,-36 3673.04,-34.59 3704.82,-33.06 3736.31,-31.53"/>
<polygon fill="black" stroke="black" points="3736.11,-35.04 3745.92,-31.06 3735.76,-28.05 3736.11,-35.04"/>
</g>
<!-- 10 -->
<g id="node11" class="node">
<title>10</title>
<ellipse fill="none" stroke="black" cx="4362.76" cy="-18" rx="27" ry="18"/>
<text text-anchor="middle" x="4362.76" y="-12.95" font-family="Times New Roman,serif" font-size="14.00">10</text>
</g>
<!-- 1&#45;&gt;10 -->
<g id="edge9" class="edge">
<title>1&#45;&gt;10</title>
<path fill="none" stroke="black" d="M2456.99,-88.91C2685.53,-88.1 4137.6,-81.2 4326.76,-36 4328.52,-35.58 4330.31,-35.06 4332.08,-34.48"/>
<polygon fill="black" stroke="black" points="4333.34,-37.75 4341.33,-30.8 4330.74,-31.25 4333.34,-37.75"/>
</g>
<!-- 6 -->
<g id="node7" class="node">
<title>6</title>
<ellipse fill="none" stroke="black" cx="2786.76" cy="-162" rx="302.65" ry="18"/>
<text text-anchor="middle" x="2786.76" y="-156.95" font-family="Times New Roman,serif" font-size="14.00">Lilienne, the Net Picker: “该死……我才*刚刚*买下这张渔网……”</text>
</g>
</g>
</svg>
