<?xml version="1.0" encoding="UTF-8" standalone="no"?>
<!DOCTYPE svg PUBLIC "-//W3C//DTD SVG 1.1//EN"
 "http://www.w3.org/Graphics/SVG/1.1/DTD/svg11.dtd">
<!-- Generated by graphviz version 12.2.1 (20241206.2353)
 -->
<!-- Title: G Pages: 1 -->
<svg width="3175pt" height="188pt"
 viewBox="0.00 0.00 3174.71 188.00" xmlns="http://www.w3.org/2000/svg" xmlns:xlink="http://www.w3.org/1999/xlink">
<g id="graph0" class="graph" transform="scale(1 1) rotate(0) translate(4 184)">
<title>G</title>
<polygon fill="white" stroke="none" points="-4,4 -4,-184 3170.71,-184 3170.71,4 -4,4"/>
<!-- 0 -->
<g id="node1" class="node">
<title>0</title>
<ellipse fill="none" stroke="black" cx="1393.5" cy="-162" rx="39.07" ry="18"/>
<text text-anchor="middle" x="1393.5" y="-156.95" font-family="Times New Roman,serif" font-size="14.00">START</text>
</g>
<!-- 1 -->
<g id="node2" class="node">
<title>1</title>
<ellipse fill="none" stroke="black" cx="1393.5" cy="-90" rx="29.86" ry="18"/>
<text text-anchor="middle" x="1393.5" y="-84.95" font-family="Times New Roman,serif" font-size="14.00">input</text>
</g>
<!-- 0&#45;&gt;1 -->
<g id="edge1" class="edge">
<title>0&#45;&gt;1</title>
<path fill="none" stroke="black" d="M1393.5,-143.7C1393.5,-136.41 1393.5,-127.73 1393.5,-119.54"/>
<polygon fill="black" stroke="black" points="1397,-119.62 1393.5,-109.62 1390,-119.62 1397,-119.62"/>
</g>
<!-- 2 -->
<g id="node3" class="node">
<title>2</title>
<ellipse fill="none" stroke="black" cx="144.5" cy="-18" rx="144.5" ry="18"/>
<text text-anchor="middle" x="144.5" y="-12.95" font-family="Times New Roman,serif" font-size="14.00">Rosemary: “你在喝那个吗？”</text>
</g>
<!-- 1&#45;&gt;2 -->
<g id="edge2" class="edge">
<title>1&#45;&gt;2</title>
<path fill="none" stroke="black" d="M1363.41,-88.22C1235,-84.77 720.18,-69.45 298.5,-36 285.17,-34.94 271.21,-33.65 257.37,-32.27"/>
<polygon fill="black" stroke="black" points="258.12,-28.82 247.81,-31.29 257.4,-35.79 258.12,-28.82"/>
</g>
<!-- 3 -->
<g id="node4" class="node">
<title>3</title>
<ellipse fill="none" stroke="black" cx="494.5" cy="-18" rx="187.49" ry="18"/>
<text text-anchor="middle" x="494.5" y="-12.95" font-family="Times New Roman,serif" font-size="14.00">Rosemary: “她的样子真是，伙计……”</text>
</g>
<!-- 1&#45;&gt;3 -->
<g id="edge3" class="edge">
<title>1&#45;&gt;3</title>
<path fill="none" stroke="black" d="M1363.73,-86.87C1266.86,-79.9 951.9,-57.06 691.5,-36 675.08,-34.67 657.89,-33.24 640.81,-31.8"/>
<polygon fill="black" stroke="black" points="641.37,-28.34 631.11,-30.98 640.78,-35.31 641.37,-28.34"/>
</g>
<!-- 4 -->
<g id="node5" class="node">
<title>4</title>
<ellipse fill="none" stroke="black" cx="856.5" cy="-18" rx="156.27" ry="18"/>
<text text-anchor="middle" x="856.5" y="-12.95" font-family="Times New Roman,serif" font-size="14.00">Rosemary: “我想说什么来着？”</text>
</g>
<!-- 1&#45;&gt;4 -->
<g id="edge4" class="edge">
<title>1&#45;&gt;4</title>
<path fill="none" stroke="black" d="M1364.25,-85.19C1290.58,-75.58 1094.33,-50 968.51,-33.6"/>
<polygon fill="black" stroke="black" points="969.19,-30.16 958.82,-32.34 968.28,-37.1 969.19,-30.16"/>
</g>
<!-- 5 -->
<g id="node6" class="node">
<title>5</title>
<ellipse fill="none" stroke="black" cx="1210.5" cy="-18" rx="179.82" ry="18"/>
<text text-anchor="middle" x="1210.5" y="-12.95" font-family="Times New Roman,serif" font-size="14.00">Rosemary: “医生都是白痴，伙计。”</text>
</g>
<!-- 1&#45;&gt;5 -->
<g id="edge5" class="edge">
<title>1&#45;&gt;5</title>
<path fill="none" stroke="black" d="M1368.82,-79.56C1342.38,-69.45 1299.59,-53.08 1265.15,-39.9"/>
<polygon fill="black" stroke="black" points="1266.76,-36.77 1256.17,-36.47 1264.26,-43.31 1266.76,-36.77"/>
</g>
<!-- 6 -->
<g id="node7" class="node">
<title>6</title>
<ellipse fill="none" stroke="black" cx="1576.5" cy="-18" rx="168.04" ry="18"/>
<text text-anchor="middle" x="1576.5" y="-12.95" font-family="Times New Roman,serif" font-size="14.00">Rosemary: “这就是生活，朋友。”</text>
</g>
<!-- 1&#45;&gt;6 -->
<g id="edge6" class="edge">
<title>1&#45;&gt;6</title>
<path fill="none" stroke="black" d="M1418.18,-79.56C1444.71,-69.41 1487.7,-52.97 1522.2,-39.77"/>
<polygon fill="black" stroke="black" points="1523.1,-43.17 1531.19,-36.33 1520.6,-36.64 1523.1,-43.17"/>
</g>
<!-- 7 -->
<g id="node8" class="node">
<title>7</title>
<ellipse fill="none" stroke="black" cx="1914.5" cy="-18" rx="152.18" ry="18"/>
<text text-anchor="middle" x="1914.5" y="-12.95" font-family="Times New Roman,serif" font-size="14.00">Rosemary: “她的样子真是……”</text>
</g>
<!-- 1&#45;&gt;7 -->
<g id="edge7" class="edge">
<title>1&#45;&gt;7</title>
<path fill="none" stroke="black" d="M1422.63,-85.09C1494.58,-75.42 1683.7,-50.01 1805.37,-33.66"/>
<polygon fill="black" stroke="black" points="1805.61,-37.16 1815.06,-32.36 1804.68,-30.22 1805.61,-37.16"/>
</g>
<!-- 9 -->
<g id="node9" class="node">
<title>9</title>
<ellipse fill="none" stroke="black" cx="2311.5" cy="-18" rx="226.9" ry="18"/>
<text text-anchor="middle" x="2311.5" y="-12.95" font-family="Times New Roman,serif" font-size="14.00">Rosemary: “我没在攒钱。这样对生意不好。”</text>
</g>
<!-- 1&#45;&gt;9 -->
<g id="edge8" class="edge">
<title>1&#45;&gt;9</title>
<path fill="none" stroke="black" d="M1423.26,-86.73C1532.21,-78.42 1914.68,-49.26 2140.66,-32.03"/>
<polygon fill="black" stroke="black" points="2140.76,-35.53 2150.46,-31.28 2140.23,-28.55 2140.76,-35.53"/>
</g>
<!-- 10 -->
<g id="node10" class="node">
<title>10</title>
<ellipse fill="none" stroke="black" cx="2861.5" cy="-18" rx="305.21" ry="18"/>
<text text-anchor="middle" x="2861.5" y="-12.95" font-family="Times New Roman,serif" font-size="14.00">Rosemary: “看，又用我的眼窝把它打开了……完全没问题。”</text>
</g>
<!-- 1&#45;&gt;10 -->
<g id="edge9" class="edge">
<title>1&#45;&gt;10</title>
<path fill="none" stroke="black" d="M1423.37,-87.72C1555.46,-82.03 2100.31,-58.37 2547.5,-36 2575.18,-34.62 2604.23,-33.11 2633.01,-31.59"/>
<polygon fill="black" stroke="black" points="2633.15,-35.09 2642.95,-31.06 2632.77,-28.1 2633.15,-35.09"/>
</g>
</g>
</svg>
