<?xml version="1.0" encoding="UTF-8" standalone="no"?>
<!DOCTYPE svg PUBLIC "-//W3C//DTD SVG 1.1//EN"
 "http://www.w3.org/Graphics/SVG/1.1/DTD/svg11.dtd">
<!-- Generated by graphviz version 12.2.1 (20241206.2353)
 -->
<!-- Title: G Pages: 1 -->
<svg width="3669pt" height="836pt"
 viewBox="0.00 0.00 3669.21 836.00" xmlns="http://www.w3.org/2000/svg" xmlns:xlink="http://www.w3.org/1999/xlink">
<g id="graph0" class="graph" transform="scale(1 1) rotate(0) translate(4 832)">
<title>G</title>
<polygon fill="white" stroke="none" points="-4,4 -4,-832 3665.21,-832 3665.21,4 -4,4"/>
<!-- 0 -->
<g id="node1" class="node">
<title>0</title>
<ellipse fill="none" stroke="black" cx="2032.95" cy="-810" rx="39.07" ry="18"/>
<text text-anchor="middle" x="2032.95" y="-804.95" font-family="Times New Roman,serif" font-size="14.00">START</text>
</g>
<!-- 1 -->
<g id="node2" class="node">
<title>1</title>
<ellipse fill="none" stroke="black" cx="2032.95" cy="-738" rx="29.86" ry="18"/>
<text text-anchor="middle" x="2032.95" y="-732.95" font-family="Times New Roman,serif" font-size="14.00">input</text>
</g>
<!-- 0&#45;&gt;1 -->
<g id="edge1" class="edge">
<title>0&#45;&gt;1</title>
<path fill="none" stroke="black" d="M2032.95,-791.7C2032.95,-784.41 2032.95,-775.73 2032.95,-767.54"/>
<polygon fill="black" stroke="black" points="2036.45,-767.62 2032.95,-757.62 2029.45,-767.62 2036.45,-767.62"/>
</g>
<!-- 19 -->
<g id="node19" class="node">
<title>19</title>
<ellipse fill="none" stroke="black" cx="2032.95" cy="-666" rx="324.66" ry="18"/>
<text text-anchor="middle" x="2032.95" y="-660.95" font-family="Times New Roman,serif" font-size="14.00">Inland Empire: 那是竹节虫吗？靠在墙边的那个，很像竹节虫……</text>
</g>
<!-- 1&#45;&gt;19 -->
<g id="edge2" class="edge">
<title>1&#45;&gt;19</title>
<path fill="none" stroke="black" d="M2032.95,-719.7C2032.95,-712.41 2032.95,-703.73 2032.95,-695.54"/>
<polygon fill="black" stroke="black" points="2036.45,-695.62 2032.95,-685.62 2029.45,-695.62 2036.45,-695.62"/>
</g>
<!-- 2 -->
<g id="node3" class="node">
<title>2</title>
<ellipse fill="none" stroke="black" cx="3006.95" cy="-162" rx="221.78" ry="18"/>
<text text-anchor="middle" x="3006.95" y="-156.95" font-family="Times New Roman,serif" font-size="14.00">You: 忘了竹节虫吧……呃，火钩。[离开。]</text>
</g>
<!-- 3 -->
<g id="node4" class="node">
<title>3</title>
<ellipse fill="none" stroke="black" cx="2032.95" cy="-594" rx="147.57" ry="18"/>
<text text-anchor="middle" x="2032.95" y="-588.95" font-family="Times New Roman,serif" font-size="14.00">Variable[&quot;cargo.evrart_fishing_rod&quot;]</text>
</g>
<!-- 4 -->
<g id="node5" class="node">
<title>4</title>
<polygon fill="none" stroke="black" points="1914.95,-540 1706.25,-522 1914.95,-504 2123.64,-522 1914.95,-540"/>
<text text-anchor="middle" x="1914.95" y="-516.95" font-family="Times New Roman,serif" font-size="14.00">Variable[&quot;cargo.evrart_fishing_rod&quot;]</text>
</g>
<!-- 3&#45;&gt;4 -->
<g id="edge3" class="edge">
<title>3&#45;&gt;4</title>
<path fill="none" stroke="black" d="M2004.08,-575.88C1987.88,-566.27 1967.54,-554.2 1950.38,-544.02"/>
<polygon fill="black" stroke="black" points="1952.39,-541.14 1942,-539.05 1948.82,-547.16 1952.39,-541.14"/>
</g>
<!-- 5 -->
<g id="node6" class="node">
<title>5</title>
<polygon fill="none" stroke="black" points="2307.95,-468 2086.22,-450 2307.95,-432 2529.67,-450 2307.95,-468"/>
<text text-anchor="middle" x="2307.95" y="-444.95" font-family="Times New Roman,serif" font-size="14.00">!(Variable[&quot;cargo.evrart_fishing_rod&quot;])</text>
</g>
<!-- 3&#45;&gt;5 -->
<g id="edge4" class="edge">
<title>3&#45;&gt;5</title>
<path fill="none" stroke="black" d="M2065.84,-576.01C2116.74,-549.73 2214.36,-499.32 2268.81,-471.21"/>
<polygon fill="black" stroke="black" points="2270.15,-474.46 2277.43,-466.76 2266.94,-468.24 2270.15,-474.46"/>
</g>
<!-- 16 -->
<g id="node16" class="node">
<title>16</title>
<ellipse fill="none" stroke="black" cx="1758.95" cy="-450" rx="309.3" ry="18"/>
<text text-anchor="middle" x="1758.95" y="-444.95" font-family="Times New Roman,serif" font-size="14.00">Reaction Speed: 等等，难道又要上演一遍之前的钓鱼竿戏码？</text>
</g>
<!-- 4&#45;&gt;16 -->
<g id="edge5" class="edge">
<title>4&#45;&gt;16</title>
<path fill="none" stroke="black" d="M1882.24,-506.33C1860.69,-496.65 1832.06,-483.81 1807.82,-472.93"/>
<polygon fill="black" stroke="black" points="1809.32,-469.77 1798.77,-468.87 1806.46,-476.16 1809.32,-469.77"/>
</g>
<!-- 14 -->
<g id="node14" class="node">
<title>14</title>
<ellipse fill="none" stroke="black" cx="2032.95" cy="-378" rx="57.49" ry="18"/>
<text text-anchor="middle" x="2032.95" y="-372.95" font-family="Times New Roman,serif" font-size="14.00">Untitled hub</text>
</g>
<!-- 5&#45;&gt;14 -->
<g id="edge6" class="edge">
<title>5&#45;&gt;14</title>
<path fill="none" stroke="black" d="M2255.9,-435.75C2207.79,-423.51 2136.57,-405.38 2087.64,-392.92"/>
<polygon fill="black" stroke="black" points="2088.65,-389.57 2078.1,-390.49 2086.93,-396.35 2088.65,-389.57"/>
</g>
<!-- 6 -->
<g id="node7" class="node">
<title>6</title>
<ellipse fill="none" stroke="black" cx="824.95" cy="-162" rx="243.28" ry="18"/>
<text text-anchor="middle" x="824.95" y="-156.95" font-family="Times New Roman,serif" font-size="14.00">You: 当然不是竹节虫了，它实在是大过头了。</text>
</g>
<!-- 11 -->
<g id="node11" class="node">
<title>11</title>
<ellipse fill="none" stroke="black" cx="618.95" cy="-90" rx="618.95" ry="18"/>
<text text-anchor="middle" x="618.95" y="-84.95" font-family="Times New Roman,serif" font-size="14.00">Inland Empire: 别对自己太苛刻。你本来也没办法太确定的。再说了，找到竹节虫是你的特殊命运——你一定感觉到了吧！</text>
</g>
<!-- 6&#45;&gt;11 -->
<g id="edge7" class="edge">
<title>6&#45;&gt;11</title>
<path fill="none" stroke="black" d="M774.82,-143.97C746.5,-134.34 710.86,-122.23 680.81,-112.02"/>
<polygon fill="black" stroke="black" points="682.05,-108.74 671.45,-108.84 679.79,-115.37 682.05,-108.74"/>
</g>
<!-- 7 -->
<g id="node8" class="node">
<title>7</title>
<ellipse fill="none" stroke="black" cx="3006.95" cy="-234" rx="654.26" ry="18"/>
<text text-anchor="middle" x="3006.95" y="-228.95" font-family="Times New Roman,serif" font-size="14.00">Inland Empire: 好吧。这不是竹节虫，甚至都不是有机物。不过是壁炉边放着的火钩而已。不过……你的惊奇感哪里去了，伙计？</text>
</g>
<!-- 7&#45;&gt;2 -->
<g id="edge8" class="edge">
<title>7&#45;&gt;2</title>
<path fill="none" stroke="black" d="M3006.95,-215.7C3006.95,-208.41 3006.95,-199.73 3006.95,-191.54"/>
<polygon fill="black" stroke="black" points="3010.45,-191.62 3006.95,-181.62 3003.45,-191.62 3010.45,-191.62"/>
</g>
<!-- 8 -->
<g id="node9" class="node">
<title>8</title>
<ellipse fill="none" stroke="black" cx="1482.95" cy="-306" rx="202.33" ry="18"/>
<text text-anchor="middle" x="1482.95" y="-300.95" font-family="Times New Roman,serif" font-size="14.00">You: 忽略你看到的东西。[放弃思维。]</text>
</g>
<!-- 10 -->
<g id="node10" class="node">
<title>10</title>
<ellipse fill="none" stroke="black" cx="1862.95" cy="-162" rx="570.32" ry="18"/>
<text text-anchor="middle" x="1862.95" y="-156.95" font-family="Times New Roman,serif" font-size="14.00">You: 我打算不当警察，换个科学家试试，结果这就是我的下场。我的意思是，我甚至连个*好警察*都算不上。</text>
</g>
<!-- 22 -->
<g id="node22" class="node">
<title>22</title>
<ellipse fill="none" stroke="black" cx="1862.95" cy="-90" rx="607.18" ry="18"/>
<text text-anchor="middle" x="1862.95" y="-84.95" font-family="Times New Roman,serif" font-size="14.00">Inland Empire: 你只不过是听从了自己的直觉，还有你的命运。你一定会找到竹节虫的！只不过，可能不在这里罢了……</text>
</g>
<!-- 10&#45;&gt;22 -->
<g id="edge9" class="edge">
<title>10&#45;&gt;22</title>
<path fill="none" stroke="black" d="M1862.95,-143.7C1862.95,-136.41 1862.95,-127.73 1862.95,-119.54"/>
<polygon fill="black" stroke="black" points="1866.45,-119.62 1862.95,-109.62 1859.45,-119.62 1866.45,-119.62"/>
</g>
<!-- 12 -->
<g id="node12" class="node">
<title>12</title>
<ellipse fill="none" stroke="black" cx="1862.95" cy="-18" rx="398.36" ry="18"/>
<text text-anchor="middle" x="1862.95" y="-12.95" font-family="Times New Roman,serif" font-size="14.00">You: 要不还是放下发现伊苏林迪竹节虫的梦想吧……不过是暂时的。[离开。]</text>
</g>
<!-- 11&#45;&gt;12 -->
<g id="edge10" class="edge">
<title>11&#45;&gt;12</title>
<path fill="none" stroke="black" d="M895.03,-73.46C1108.35,-61.46 1401.27,-44.98 1608.85,-33.3"/>
<polygon fill="black" stroke="black" points="1608.92,-36.8 1618.71,-32.74 1608.53,-29.81 1608.92,-36.8"/>
</g>
<!-- 13 -->
<g id="node13" class="node">
<title>13</title>
<ellipse fill="none" stroke="black" cx="1851.95" cy="-306" rx="149.11" ry="18"/>
<text text-anchor="middle" x="1851.95" y="-300.95" font-family="Times New Roman,serif" font-size="14.00">You: 尝试偷偷靠近竹节虫。</text>
</g>
<!-- 21 -->
<g id="node21" class="node">
<title>21</title>
<ellipse fill="none" stroke="black" cx="1862.95" cy="-234" rx="461.82" ry="18"/>
<text text-anchor="middle" x="1862.95" y="-228.95" font-family="Times New Roman,serif" font-size="14.00">Inland Empire: 这不是竹节虫……甚至都不是有机物——只是一根火钩。真是太让人失望了！</text>
</g>
<!-- 13&#45;&gt;21 -->
<g id="edge11" class="edge">
<title>13&#45;&gt;21</title>
<path fill="none" stroke="black" d="M1854.67,-287.7C1855.82,-280.32 1857.21,-271.52 1858.51,-263.25"/>
<polygon fill="black" stroke="black" points="1861.93,-264.02 1860.02,-253.6 1855.01,-262.93 1861.93,-264.02"/>
</g>
<!-- 14&#45;&gt;8 -->
<g id="edge12" class="edge">
<title>14&#45;&gt;8</title>
<path fill="none" stroke="black" d="M1980.71,-370.35C1895.57,-359.52 1724.6,-337.76 1607,-322.79"/>
<polygon fill="black" stroke="black" points="1607.66,-319.34 1597.29,-321.55 1606.77,-326.29 1607.66,-319.34"/>
</g>
<!-- 14&#45;&gt;13 -->
<g id="edge14" class="edge">
<title>14&#45;&gt;13</title>
<path fill="none" stroke="black" d="M1997.62,-363.34C1971.41,-353.2 1935.23,-339.21 1905.48,-327.7"/>
<polygon fill="black" stroke="black" points="1906.84,-324.48 1896.25,-324.13 1904.32,-331.01 1906.84,-324.48"/>
</g>
<!-- 15 -->
<g id="node15" class="node">
<title>15</title>
<ellipse fill="none" stroke="black" cx="3006.95" cy="-306" rx="578" ry="18"/>
<text text-anchor="middle" x="3006.95" y="-300.95" font-family="Times New Roman,serif" font-size="14.00">You: 你不会再被愚弄一次。只要静静地站在这里，观察这个肯定*不是竹节虫*的东西，直到看清它的真面目……</text>
</g>
<!-- 14&#45;&gt;15 -->
<g id="edge15" class="edge">
<title>14&#45;&gt;15</title>
<path fill="none" stroke="black" d="M2088.46,-373.01C2217.81,-363.71 2545.49,-340.16 2772.29,-323.86"/>
<polygon fill="black" stroke="black" points="2772.46,-327.36 2782.18,-323.15 2771.95,-320.38 2772.46,-327.36"/>
</g>
<!-- 17 -->
<g id="node17" class="node">
<title>17</title>
<ellipse fill="none" stroke="black" cx="2214.95" cy="-306" rx="196.19" ry="18"/>
<text text-anchor="middle" x="2214.95" y="-300.95" font-family="Times New Roman,serif" font-size="14.00">You: 跳向竹节虫，用手紧紧抓住它！</text>
</g>
<!-- 14&#45;&gt;17 -->
<g id="edge13" class="edge">
<title>14&#45;&gt;17</title>
<path fill="none" stroke="black" d="M2068.04,-363.5C2094.17,-353.45 2130.33,-339.54 2160.24,-328.04"/>
<polygon fill="black" stroke="black" points="2161.46,-331.32 2169.53,-324.47 2158.94,-324.79 2161.46,-331.32"/>
</g>
<!-- 15&#45;&gt;7 -->
<g id="edge16" class="edge">
<title>15&#45;&gt;7</title>
<path fill="none" stroke="black" d="M3006.95,-287.7C3006.95,-280.41 3006.95,-271.73 3006.95,-263.54"/>
<polygon fill="black" stroke="black" points="3010.45,-263.62 3006.95,-253.62 3003.45,-263.62 3010.45,-263.62"/>
</g>
<!-- 16&#45;&gt;14 -->
<g id="edge17" class="edge">
<title>16&#45;&gt;14</title>
<path fill="none" stroke="black" d="M1825.62,-431.97C1872.55,-419.98 1934.57,-404.13 1978.51,-392.91"/>
<polygon fill="black" stroke="black" points="1979.27,-396.33 1988.09,-390.46 1977.54,-389.54 1979.27,-396.33"/>
</g>
<!-- 17&#45;&gt;21 -->
<g id="edge18" class="edge">
<title>17&#45;&gt;21</title>
<path fill="none" stroke="black" d="M2135.07,-289.12C2083.27,-278.81 2015.43,-265.32 1960.45,-254.39"/>
<polygon fill="black" stroke="black" points="1961.25,-250.98 1950.76,-252.46 1959.89,-257.85 1961.25,-250.98"/>
</g>
<!-- 18 -->
<g id="node18" class="node">
<title>18</title>
<ellipse fill="none" stroke="black" cx="2894.95" cy="-90" rx="407.06" ry="18"/>
<text text-anchor="middle" x="2894.95" y="-84.95" font-family="Times New Roman,serif" font-size="14.00">Inland Empire: 是吗？！不过下次你会更走运的。找到竹节虫——就是你的命运。</text>
</g>
<!-- 18&#45;&gt;12 -->
<g id="edge19" class="edge">
<title>18&#45;&gt;12</title>
<path fill="none" stroke="black" d="M2678.61,-74.33C2505.82,-62.61 2264.44,-46.23 2089.13,-34.34"/>
<polygon fill="black" stroke="black" points="2089.4,-30.85 2079.18,-33.67 2088.93,-37.84 2089.4,-30.85"/>
</g>
<!-- 19&#45;&gt;3 -->
<g id="edge20" class="edge">
<title>19&#45;&gt;3</title>
<path fill="none" stroke="black" d="M2032.95,-647.7C2032.95,-640.41 2032.95,-631.73 2032.95,-623.54"/>
<polygon fill="black" stroke="black" points="2036.45,-623.62 2032.95,-613.62 2029.45,-623.62 2036.45,-623.62"/>
</g>
<!-- 20 -->
<g id="node20" class="node">
<title>20</title>
<ellipse fill="none" stroke="black" cx="2613.95" cy="-162" rx="113.79" ry="18"/>
<text text-anchor="middle" x="2613.95" y="-156.95" font-family="Times New Roman,serif" font-size="14.00">You: 简直难以置信！</text>
</g>
<!-- 20&#45;&gt;18 -->
<g id="edge21" class="edge">
<title>20&#45;&gt;18</title>
<path fill="none" stroke="black" d="M2673.2,-146.24C2714.4,-135.98 2769.81,-122.17 2814.93,-110.93"/>
<polygon fill="black" stroke="black" points="2815.55,-114.39 2824.4,-108.57 2813.85,-107.59 2815.55,-114.39"/>
</g>
<!-- 21&#45;&gt;6 -->
<g id="edge24" class="edge">
<title>21&#45;&gt;6</title>
<path fill="none" stroke="black" d="M1638.36,-217.85C1451.11,-205.23 1187.47,-187.45 1011.65,-175.59"/>
<polygon fill="black" stroke="black" points="1011.92,-172.1 1001.7,-174.92 1011.45,-179.09 1011.92,-172.1"/>
</g>
<!-- 21&#45;&gt;10 -->
<g id="edge22" class="edge">
<title>21&#45;&gt;10</title>
<path fill="none" stroke="black" d="M1862.95,-215.7C1862.95,-208.41 1862.95,-199.73 1862.95,-191.54"/>
<polygon fill="black" stroke="black" points="1866.45,-191.62 1862.95,-181.62 1859.45,-191.62 1866.45,-191.62"/>
</g>
<!-- 21&#45;&gt;20 -->
<g id="edge23" class="edge">
<title>21&#45;&gt;20</title>
<path fill="none" stroke="black" d="M2041.97,-216.95C2156.39,-206.61 2307.92,-192.76 2441.95,-180 2463.44,-177.95 2486.44,-175.72 2508.4,-173.55"/>
<polygon fill="black" stroke="black" points="2508.66,-177.04 2518.27,-172.58 2507.98,-170.08 2508.66,-177.04"/>
</g>
<!-- 22&#45;&gt;12 -->
<g id="edge25" class="edge">
<title>22&#45;&gt;12</title>
<path fill="none" stroke="black" d="M1862.95,-71.7C1862.95,-64.41 1862.95,-55.73 1862.95,-47.54"/>
<polygon fill="black" stroke="black" points="1866.45,-47.62 1862.95,-37.62 1859.45,-47.62 1866.45,-47.62"/>
</g>
</g>
</svg>
