<?xml version="1.0" encoding="UTF-8" standalone="no"?>
<!DOCTYPE svg PUBLIC "-//W3C//DTD SVG 1.1//EN"
 "http://www.w3.org/Graphics/SVG/1.1/DTD/svg11.dtd">
<!-- Generated by graphviz version 12.2.1 (20241206.2353)
 -->
<!-- Title: G Pages: 1 -->
<svg width="5049pt" height="188pt"
 viewBox="0.00 0.00 5049.21 188.00" xmlns="http://www.w3.org/2000/svg" xmlns:xlink="http://www.w3.org/1999/xlink">
<g id="graph0" class="graph" transform="scale(1 1) rotate(0) translate(4 184)">
<title>G</title>
<polygon fill="white" stroke="none" points="-4,4 -4,-184 5045.21,-184 5045.21,4 -4,4"/>
<!-- 0 -->
<g id="node1" class="node">
<title>0</title>
<ellipse fill="none" stroke="black" cx="2828.21" cy="-162" rx="39.07" ry="18"/>
<text text-anchor="middle" x="2828.21" y="-156.95" font-family="Times New Roman,serif" font-size="14.00">START</text>
</g>
<!-- 1 -->
<g id="node2" class="node">
<title>1</title>
<ellipse fill="none" stroke="black" cx="2828.21" cy="-90" rx="29.86" ry="18"/>
<text text-anchor="middle" x="2828.21" y="-84.95" font-family="Times New Roman,serif" font-size="14.00">input</text>
</g>
<!-- 0&#45;&gt;1 -->
<g id="edge1" class="edge">
<title>0&#45;&gt;1</title>
<path fill="none" stroke="black" d="M2828.21,-143.7C2828.21,-136.41 2828.21,-127.73 2828.21,-119.54"/>
<polygon fill="black" stroke="black" points="2831.71,-119.62 2828.21,-109.62 2824.71,-119.62 2831.71,-119.62"/>
</g>
<!-- 2 -->
<g id="node3" class="node">
<title>2</title>
<ellipse fill="none" stroke="black" cx="305.21" cy="-18" rx="305.21" ry="18"/>
<text text-anchor="middle" x="305.21" y="-12.95" font-family="Times New Roman,serif" font-size="14.00">Echo Maker: &quot;I would commit war crimes for some real Saramirizian coffee.&quot;</text>
</g>
<!-- 1&#45;&gt;2 -->
<g id="edge2" class="edge">
<title>1&#45;&gt;2</title>
<path fill="none" stroke="black" d="M2798,-88.62C2603.71,-86.09 1509.96,-70.79 619.21,-36 589.69,-34.85 558.63,-33.42 527.99,-31.89"/>
<polygon fill="black" stroke="black" points="528.39,-28.41 518.23,-31.4 528.04,-35.4 528.39,-28.41"/>
</g>
<!-- 3 -->
<g id="node4" class="node">
<title>3</title>
<ellipse fill="none" stroke="black" cx="906.21" cy="-18" rx="278.08" ry="18"/>
<text text-anchor="middle" x="906.21" y="-12.95" font-family="Times New Roman,serif" font-size="14.00">Echo Maker: &quot;I can&#39;t believe someone just left these matchboxes here.&quot;</text>
</g>
<!-- 1&#45;&gt;3 -->
<g id="edge3" class="edge">
<title>1&#45;&gt;3</title>
<path fill="none" stroke="black" d="M2798.1,-88.32C2635.08,-84.61 1841.48,-65.7 1193.21,-36 1166.91,-34.8 1139.27,-33.37 1111.96,-31.85"/>
<polygon fill="black" stroke="black" points="1112.38,-28.37 1102.2,-31.31 1111.99,-35.36 1112.38,-28.37"/>
</g>
<!-- 4 -->
<g id="node5" class="node">
<title>4</title>
<ellipse fill="none" stroke="black" cx="1469.21" cy="-18" rx="266.82" ry="18"/>
<text text-anchor="middle" x="1469.21" y="-12.95" font-family="Times New Roman,serif" font-size="14.00">Echo Maker: &quot;This new translation of &#39;Reál and Reality&#39; is garbage.&quot;</text>
</g>
<!-- 1&#45;&gt;4 -->
<g id="edge4" class="edge">
<title>1&#45;&gt;4</title>
<path fill="none" stroke="black" d="M2798.48,-87.68C2671.62,-82.03 2162.95,-59.09 1745.21,-36 1720.89,-34.66 1695.36,-33.18 1670.07,-31.67"/>
<polygon fill="black" stroke="black" points="1670.56,-28.19 1660.37,-31.09 1670.14,-35.18 1670.56,-28.19"/>
</g>
<!-- 5 -->
<g id="node6" class="node">
<title>5</title>
<ellipse fill="none" stroke="black" cx="2034.21" cy="-18" rx="280.13" ry="18"/>
<text text-anchor="middle" x="2034.21" y="-12.95" font-family="Times New Roman,serif" font-size="14.00">Echo Maker: &quot;I&#39;ll spit in Maurice&#39;s face when he comes crawling back.&quot;</text>
</g>
<!-- 1&#45;&gt;5 -->
<g id="edge5" class="edge">
<title>1&#45;&gt;5</title>
<path fill="none" stroke="black" d="M2798.53,-86.38C2703.32,-77.99 2400.43,-51.29 2205.74,-34.12"/>
<polygon fill="black" stroke="black" points="2206.31,-30.66 2196.04,-33.27 2205.69,-37.63 2206.31,-30.66"/>
</g>
<!-- 6 -->
<g id="node7" class="node">
<title>6</title>
<ellipse fill="none" stroke="black" cx="2450.21" cy="-18" rx="117.89" ry="18"/>
<text text-anchor="middle" x="2450.21" y="-12.95" font-family="Times New Roman,serif" font-size="14.00">Echo Maker: &quot;Yes, exactly.&quot;</text>
</g>
<!-- 1&#45;&gt;6 -->
<g id="edge6" class="edge">
<title>1&#45;&gt;6</title>
<path fill="none" stroke="black" d="M2799.8,-83.74C2744.09,-73.42 2618.62,-50.19 2534.16,-34.55"/>
<polygon fill="black" stroke="black" points="2535,-31.14 2524.53,-32.76 2533.72,-38.03 2535,-31.14"/>
</g>
<!-- 7 -->
<g id="node8" class="node">
<title>7</title>
<ellipse fill="none" stroke="black" cx="2828.21" cy="-18" rx="242.26" ry="18"/>
<text text-anchor="middle" x="2828.21" y="-12.95" font-family="Times New Roman,serif" font-size="14.00">Echo Maker: &quot;Don&#39;t worry, I&#39;m sure your jacket will turn up.&quot;</text>
</g>
<!-- 1&#45;&gt;7 -->
<g id="edge7" class="edge">
<title>1&#45;&gt;7</title>
<path fill="none" stroke="black" d="M2828.21,-71.7C2828.21,-64.41 2828.21,-55.73 2828.21,-47.54"/>
<polygon fill="black" stroke="black" points="2831.71,-47.62 2828.21,-37.62 2824.71,-47.62 2831.71,-47.62"/>
</g>
<!-- 8 -->
<g id="node9" class="node">
<title>8</title>
<ellipse fill="none" stroke="black" cx="3296.21" cy="-18" rx="207.96" ry="18"/>
<text text-anchor="middle" x="3296.21" y="-12.95" font-family="Times New Roman,serif" font-size="14.00">Echo Maker: &quot;Eight cups a day is perfectly healthy.&quot;</text>
</g>
<!-- 1&#45;&gt;8 -->
<g id="edge8" class="edge">
<title>1&#45;&gt;8</title>
<path fill="none" stroke="black" d="M2857.13,-84.67C2920.84,-75.14 3076.17,-51.91 3183.87,-35.8"/>
<polygon fill="black" stroke="black" points="3184.25,-39.29 3193.62,-34.34 3183.21,-32.36 3184.25,-39.29"/>
</g>
<!-- 10 -->
<g id="node11" class="node">
<title>10</title>
<ellipse fill="none" stroke="black" cx="3688.21" cy="-18" rx="166.51" ry="18"/>
<text text-anchor="middle" x="3688.21" y="-12.95" font-family="Times New Roman,serif" font-size="14.00">Echo Maker: &quot;Completely right, Steban.&quot;</text>
</g>
<!-- 1&#45;&gt;10 -->
<g id="edge9" class="edge">
<title>1&#45;&gt;10</title>
<path fill="none" stroke="black" d="M2857.94,-86.91C2953.25,-80.16 3259.81,-58.11 3513.21,-36 3527.63,-34.74 3542.71,-33.37 3557.71,-31.96"/>
<polygon fill="black" stroke="black" points="3558.02,-35.45 3567.65,-31.02 3557.36,-28.48 3558.02,-35.45"/>
</g>
<!-- 11 -->
<g id="node12" class="node">
<title>11</title>
<ellipse fill="none" stroke="black" cx="4141.21" cy="-18" rx="268.36" ry="18"/>
<text text-anchor="middle" x="4141.21" y="-12.95" font-family="Times New Roman,serif" font-size="14.00">Echo Maker: &quot;The communards didn&#39;t commit *enough* atrocities.&quot;</text>
</g>
<!-- 1&#45;&gt;11 -->
<g id="edge10" class="edge">
<title>1&#45;&gt;11</title>
<path fill="none" stroke="black" d="M2857.88,-87.59C2981.28,-81.72 3465.92,-58.41 3864.21,-36 3888.41,-34.64 3913.79,-33.16 3938.96,-31.65"/>
<polygon fill="black" stroke="black" points="3938.83,-35.17 3948.61,-31.07 3938.42,-28.18 3938.83,-35.17"/>
</g>
<!-- 12 -->
<g id="node13" class="node">
<title>12</title>
<ellipse fill="none" stroke="black" cx="4698.21" cy="-18" rx="270.92" ry="18"/>
<text text-anchor="middle" x="4698.21" y="-12.95" font-family="Times New Roman,serif" font-size="14.00">Echo Maker: &quot;University is a lot better once you stop going to class.&quot;</text>
</g>
<!-- 1&#45;&gt;12 -->
<g id="edge11" class="edge">
<title>1&#45;&gt;12</title>
<path fill="none" stroke="black" d="M2858.27,-88.3C3018.56,-84.53 3788.83,-65.59 4418.21,-36 4443.75,-34.8 4470.59,-33.38 4497.12,-31.87"/>
<polygon fill="black" stroke="black" points="4497.17,-35.37 4506.96,-31.31 4496.78,-28.39 4497.17,-35.37"/>
</g>
<!-- 13 -->
<g id="node14" class="node">
<title>13</title>
<ellipse fill="none" stroke="black" cx="5014.21" cy="-18" rx="27" ry="18"/>
<text text-anchor="middle" x="5014.21" y="-12.95" font-family="Times New Roman,serif" font-size="14.00">13</text>
</g>
<!-- 1&#45;&gt;13 -->
<g id="edge12" class="edge">
<title>1&#45;&gt;13</title>
<path fill="none" stroke="black" d="M2858.42,-89.01C3103.55,-89 4762.96,-87.06 4978.21,-36 4979.97,-35.58 4981.76,-35.07 4983.53,-34.49"/>
<polygon fill="black" stroke="black" points="4984.78,-37.76 4992.78,-30.81 4982.2,-31.25 4984.78,-37.76"/>
</g>
<!-- 9 -->
<g id="node10" class="node">
<title>9</title>
<ellipse fill="none" stroke="black" cx="3045.21" cy="-162" rx="160.37" ry="18"/>
<text text-anchor="middle" x="3045.21" y="-156.95" font-family="Times New Roman,serif" font-size="14.00">Echo Maker: &quot;Another coffee, Steban?&quot;</text>
</g>
</g>
</svg>
