<?xml version="1.0" encoding="UTF-8" standalone="no"?>
<!DOCTYPE svg PUBLIC "-//W3C//DTD SVG 1.1//EN"
 "http://www.w3.org/Graphics/SVG/1.1/DTD/svg11.dtd">
<!-- Generated by graphviz version 12.2.1 (20241206.2353)
 -->
<!-- Title: G Pages: 1 -->
<svg width="8960pt" height="548pt"
 viewBox="0.00 0.00 8960.41 548.00" xmlns="http://www.w3.org/2000/svg" xmlns:xlink="http://www.w3.org/1999/xlink">
<g id="graph0" class="graph" transform="scale(1 1) rotate(0) translate(4 544)">
<title>G</title>
<polygon fill="white" stroke="none" points="-4,4 -4,-544 8956.41,-544 8956.41,4 -4,4"/>
<!-- 0 -->
<g id="node1" class="node">
<title>0</title>
<ellipse fill="none" stroke="black" cx="1050.74" cy="-522" rx="39.07" ry="18"/>
<text text-anchor="middle" x="1050.74" y="-516.95" font-family="Times New Roman,serif" font-size="14.00">START</text>
</g>
<!-- 1 -->
<g id="node2" class="node">
<title>1</title>
<ellipse fill="none" stroke="black" cx="1050.74" cy="-450" rx="29.86" ry="18"/>
<text text-anchor="middle" x="1050.74" y="-444.95" font-family="Times New Roman,serif" font-size="14.00">input</text>
</g>
<!-- 0&#45;&gt;1 -->
<g id="edge1" class="edge">
<title>0&#45;&gt;1</title>
<path fill="none" stroke="black" d="M1050.74,-503.7C1050.74,-496.41 1050.74,-487.73 1050.74,-479.54"/>
<polygon fill="black" stroke="black" points="1054.24,-479.62 1050.74,-469.62 1047.24,-479.62 1054.24,-479.62"/>
</g>
<!-- 41 -->
<g id="node42" class="node">
<title>41</title>
<ellipse fill="none" stroke="black" cx="1050.74" cy="-378" rx="117.89" ry="18"/>
<text text-anchor="middle" x="1050.74" y="-372.95" font-family="Times New Roman,serif" font-size="14.00">IsTHCPresent(&quot;ultraliberal&quot;)</text>
</g>
<!-- 1&#45;&gt;41 -->
<g id="edge2" class="edge">
<title>1&#45;&gt;41</title>
<path fill="none" stroke="black" d="M1050.74,-431.7C1050.74,-424.41 1050.74,-415.73 1050.74,-407.54"/>
<polygon fill="black" stroke="black" points="1054.24,-407.62 1050.74,-397.62 1047.24,-407.62 1054.24,-407.62"/>
</g>
<!-- 2 -->
<g id="node3" class="node">
<title>2</title>
<ellipse fill="none" stroke="black" cx="4244.74" cy="-162" rx="204.89" ry="18"/>
<text text-anchor="middle" x="4244.74" y="-156.95" font-family="Times New Roman,serif" font-size="14.00">Encyclopedia: Because white is the colour of peace.</text>
</g>
<!-- 35 -->
<g id="node36" class="node">
<title>35</title>
<ellipse fill="none" stroke="black" cx="3694.74" cy="-378" rx="42.14" ry="18"/>
<text text-anchor="middle" x="3694.74" y="-372.95" font-family="Times New Roman,serif" font-size="14.00">first hub</text>
</g>
<!-- 2&#45;&gt;35 -->
<g id="edge3" class="edge">
<title>2&#45;&gt;35</title>
<path fill="none" stroke="black" d="M4159.77,-178.82C4077.76,-196.66 3952.18,-230.89 3855.74,-288 3835.72,-299.85 3837.17,-311.2 3817.74,-324 3793.16,-340.2 3762.81,-353.34 3738.4,-362.48"/>
<polygon fill="black" stroke="black" points="3737.27,-359.17 3729.08,-365.88 3739.67,-365.75 3737.27,-359.17"/>
</g>
<!-- 3 -->
<g id="node4" class="node">
<title>3</title>
<ellipse fill="none" stroke="black" cx="2333.74" cy="-306" rx="669.62" ry="18"/>
<text text-anchor="middle" x="2333.74" y="-300.95" font-family="Times New Roman,serif" font-size="14.00">Encyclopedia: The wreath of antlers represents a natural crown. It was about building a society that could exist in accord with the natural world &#45;&#45; and at the same time above it.</text>
</g>
<!-- 10 -->
<g id="node11" class="node">
<title>10</title>
<ellipse fill="none" stroke="black" cx="2336.74" cy="-234" rx="94.86" ry="18"/>
<text text-anchor="middle" x="2336.74" y="-228.95" font-family="Times New Roman,serif" font-size="14.00">Jump to: [commuhub]</text>
</g>
<!-- 3&#45;&gt;10 -->
<g id="edge4" class="edge">
<title>3&#45;&gt;10</title>
<path fill="none" stroke="black" d="M2334.48,-287.7C2334.8,-280.41 2335.17,-271.73 2335.52,-263.54"/>
<polygon fill="black" stroke="black" points="2339.01,-263.76 2335.94,-253.62 2332.02,-263.46 2339.01,-263.76"/>
</g>
<!-- 4 -->
<g id="node5" class="node">
<title>4</title>
<ellipse fill="none" stroke="black" cx="5432.74" cy="-306" rx="289.85" ry="18"/>
<text text-anchor="middle" x="5432.74" y="-300.95" font-family="Times New Roman,serif" font-size="14.00">Endurance: In other words, it doesn&#39;t mean a thing to *trüe* Revacholians.</text>
</g>
<!-- 5 -->
<g id="node6" class="node">
<title>5</title>
<ellipse fill="none" stroke="black" cx="622.74" cy="-234" rx="488.44" ry="18"/>
<text text-anchor="middle" x="622.74" y="-228.95" font-family="Times New Roman,serif" font-size="14.00">Savoir Faire: Whatever kid drew this graffito will get it one day. You just can&#39;t beat FREEDOM and hustle&#45;jiggling all the time.</text>
</g>
<!-- 6 -->
<g id="node7" class="node">
<title>6</title>
<ellipse fill="none" stroke="black" cx="6501.74" cy="-378" rx="196.19" ry="18"/>
<text text-anchor="middle" x="6501.74" y="-372.95" font-family="Times New Roman,serif" font-size="14.00">You: What does it evoke in me? [Finish thought.]</text>
</g>
<!-- 14 -->
<g id="node15" class="node">
<title>14</title>
<polygon fill="none" stroke="black" points="6501.74,-324 6332.85,-306 6501.74,-288 6670.63,-306 6501.74,-324"/>
<text text-anchor="middle" x="6501.74" y="-300.95" font-family="Times New Roman,serif" font-size="14.00">IsTHCPresent(&quot;communist&quot;)</text>
</g>
<!-- 6&#45;&gt;14 -->
<g id="edge5" class="edge">
<title>6&#45;&gt;14</title>
<path fill="none" stroke="black" d="M6501.74,-359.7C6501.74,-352.41 6501.74,-343.73 6501.74,-335.54"/>
<polygon fill="black" stroke="black" points="6505.24,-335.62 6501.74,-325.62 6498.24,-335.62 6505.24,-335.62"/>
</g>
<!-- 7 -->
<g id="node8" class="node">
<title>7</title>
<ellipse fill="none" stroke="black" cx="6145.74" cy="-378" rx="141.43" ry="18"/>
<text text-anchor="middle" x="6145.74" y="-372.95" font-family="Times New Roman,serif" font-size="14.00">You: Why is the star upside down?</text>
</g>
<!-- 9 -->
<g id="node10" class="node">
<title>9</title>
<ellipse fill="none" stroke="black" cx="6047.74" cy="-306" rx="225.88" ry="18"/>
<text text-anchor="middle" x="6047.74" y="-300.95" font-family="Times New Roman,serif" font-size="14.00">Encyclopedia: To symbolize the toppling of the old order.</text>
</g>
<!-- 7&#45;&gt;9 -->
<g id="edge6" class="edge">
<title>7&#45;&gt;9</title>
<path fill="none" stroke="black" d="M6121.77,-359.88C6109.55,-351.15 6094.49,-340.39 6081.15,-330.86"/>
<polygon fill="black" stroke="black" points="6083.21,-328.03 6073.04,-325.07 6079.14,-333.73 6083.21,-328.03"/>
</g>
<!-- 8 -->
<g id="node9" class="node">
<title>8</title>
<ellipse fill="none" stroke="black" cx="3149.74" cy="-306" rx="128.63" ry="18"/>
<text text-anchor="middle" x="3149.74" y="-300.95" font-family="Times New Roman,serif" font-size="14.00">You: Inspect the symbol closer.</text>
</g>
<!-- 22 -->
<g id="node23" class="node">
<title>22</title>
<ellipse fill="none" stroke="black" cx="2847.74" cy="-234" rx="94.86" ry="18"/>
<text text-anchor="middle" x="2847.74" y="-228.95" font-family="Times New Roman,serif" font-size="14.00">Jump to: [commuhub]</text>
</g>
<!-- 8&#45;&gt;22 -->
<g id="edge7" class="edge">
<title>8&#45;&gt;22</title>
<path fill="none" stroke="black" d="M3085.33,-290.07C3035.96,-278.63 2967.96,-262.86 2917.35,-251.13"/>
<polygon fill="black" stroke="black" points="2918.19,-247.74 2907.65,-248.89 2916.6,-254.55 2918.19,-247.74"/>
</g>
<!-- 33 -->
<g id="node34" class="node">
<title>33</title>
<ellipse fill="none" stroke="black" cx="5976.74" cy="-450" rx="53.4" ry="18"/>
<text text-anchor="middle" x="5976.74" y="-444.95" font-family="Times New Roman,serif" font-size="14.00">commuhub</text>
</g>
<!-- 9&#45;&gt;33 -->
<g id="edge8" class="edge">
<title>9&#45;&gt;33</title>
<path fill="none" stroke="black" d="M6025.77,-324.21C6015.15,-333.67 6003.13,-346.26 5995.74,-360 5985.73,-378.63 5980.99,-402.12 5978.75,-420.29"/>
<polygon fill="black" stroke="black" points="5975.28,-419.81 5977.74,-430.12 5982.25,-420.53 5975.28,-419.81"/>
</g>
<!-- 34 -->
<g id="node35" class="node">
<title>34</title>
<ellipse fill="none" stroke="black" cx="2336.74" cy="-162" rx="94.86" ry="18"/>
<text text-anchor="middle" x="2336.74" y="-156.95" font-family="Times New Roman,serif" font-size="14.00">Jump to: [commuhub]</text>
</g>
<!-- 10&#45;&gt;34 -->
<g id="edge9" class="edge">
<title>10&#45;&gt;34</title>
<path fill="none" stroke="black" d="M2336.74,-215.7C2336.74,-208.41 2336.74,-199.73 2336.74,-191.54"/>
<polygon fill="black" stroke="black" points="2340.24,-191.62 2336.74,-181.62 2333.24,-191.62 2340.24,-191.62"/>
</g>
<!-- 11 -->
<g id="node12" class="node">
<title>11</title>
<ellipse fill="none" stroke="black" cx="6501.74" cy="-18" rx="278.59" ry="18"/>
<text text-anchor="middle" x="6501.74" y="-12.95" font-family="Times New Roman,serif" font-size="14.00">Rhetoric: You are the Big Communism Builder now. It&#39;s you or no one.</text>
</g>
<!-- 12 -->
<g id="node13" class="node">
<title>12</title>
<ellipse fill="none" stroke="black" cx="2979.74" cy="-378" rx="152.18" ry="18"/>
<text text-anchor="middle" x="2979.74" y="-372.95" font-family="Times New Roman,serif" font-size="14.00">You: What&#39;s the deal with the antlers?</text>
</g>
<!-- 12&#45;&gt;3 -->
<g id="edge10" class="edge">
<title>12&#45;&gt;3</title>
<path fill="none" stroke="black" d="M2870.16,-365.13C2769.11,-354.18 2617.64,-337.76 2501.39,-325.17"/>
<polygon fill="black" stroke="black" points="2502.08,-321.72 2491.76,-324.12 2501.33,-328.68 2502.08,-321.72"/>
</g>
<!-- 13 -->
<g id="node14" class="node">
<title>13</title>
<ellipse fill="none" stroke="black" cx="7637.74" cy="-522" rx="119.42" ry="18"/>
<text text-anchor="middle" x="7637.74" y="-516.95" font-family="Times New Roman,serif" font-size="14.00">IsTHCPresent(&quot;communist&quot;)</text>
</g>
<!-- 15 -->
<g id="node16" class="node">
<title>15</title>
<polygon fill="none" stroke="black" points="7366.74,-468 7184.83,-450 7366.74,-432 7548.66,-450 7366.74,-468"/>
<text text-anchor="middle" x="7366.74" y="-444.95" font-family="Times New Roman,serif" font-size="14.00">!(IsTHCPresent(&quot;communist&quot;))</text>
</g>
<!-- 13&#45;&gt;15 -->
<g id="edge12" class="edge">
<title>13&#45;&gt;15</title>
<path fill="none" stroke="black" d="M7579.27,-505.9C7534.14,-494.24 7471.92,-478.17 7426.47,-466.43"/>
<polygon fill="black" stroke="black" points="7427.61,-463.11 7417.06,-464 7425.86,-469.89 7427.61,-463.11"/>
</g>
<!-- 16 -->
<g id="node17" class="node">
<title>16</title>
<ellipse fill="none" stroke="black" cx="7791.74" cy="-450" rx="108.16" ry="18"/>
<text text-anchor="middle" x="7791.74" y="-444.95" font-family="Times New Roman,serif" font-size="14.00">IsTHCPresent(&quot;moralist&quot;)</text>
</g>
<!-- 13&#45;&gt;16 -->
<g id="edge11" class="edge">
<title>13&#45;&gt;16</title>
<path fill="none" stroke="black" d="M7674.24,-504.41C7695.51,-494.74 7722.54,-482.46 7745.31,-472.1"/>
<polygon fill="black" stroke="black" points="7746.74,-475.3 7754.4,-467.98 7743.84,-468.93 7746.74,-475.3"/>
</g>
<!-- 38 -->
<g id="node39" class="node">
<title>38</title>
<ellipse fill="none" stroke="black" cx="6501.74" cy="-234" rx="610.25" ry="18"/>
<text text-anchor="middle" x="6501.74" y="-228.95" font-family="Times New Roman,serif" font-size="14.00">Encyclopedia: You see noble aims but also mountains upon mountains of corpses. They should&#39;ve taken a more *measured* approach. Also, you&#39;re really smart.</text>
</g>
<!-- 14&#45;&gt;38 -->
<g id="edge13" class="edge">
<title>14&#45;&gt;38</title>
<path fill="none" stroke="black" d="M6501.74,-287.7C6501.74,-280.41 6501.74,-271.73 6501.74,-263.54"/>
<polygon fill="black" stroke="black" points="6505.24,-263.62 6501.74,-253.62 6498.24,-263.62 6505.24,-263.62"/>
</g>
<!-- 17 -->
<g id="node18" class="node">
<title>17</title>
<polygon fill="none" stroke="black" points="7249.74,-396 7096.78,-378 7249.74,-360 7402.71,-378 7249.74,-396"/>
<text text-anchor="middle" x="7249.74" y="-372.95" font-family="Times New Roman,serif" font-size="14.00">IsTHCPresent(&quot;moralist&quot;)</text>
</g>
<!-- 15&#45;&gt;17 -->
<g id="edge14" class="edge">
<title>15&#45;&gt;17</title>
<path fill="none" stroke="black" d="M7341.64,-433.98C7324.76,-423.88 7302.3,-410.44 7283.8,-399.38"/>
<polygon fill="black" stroke="black" points="7285.68,-396.42 7275.3,-394.29 7282.08,-402.43 7285.68,-396.42"/>
</g>
<!-- 18 -->
<g id="node19" class="node">
<title>18</title>
<polygon fill="none" stroke="black" points="8415.74,-396 8249.75,-378 8415.74,-360 8581.73,-378 8415.74,-396"/>
<text text-anchor="middle" x="8415.74" y="-372.95" font-family="Times New Roman,serif" font-size="14.00">!(IsTHCPresent(&quot;moralist&quot;))</text>
</g>
<!-- 16&#45;&gt;18 -->
<g id="edge15" class="edge">
<title>16&#45;&gt;18</title>
<path fill="none" stroke="black" d="M7879.49,-439.16C7997.54,-425.91 8206.4,-402.48 8325.64,-389.11"/>
<polygon fill="black" stroke="black" points="8325.84,-392.61 8335.38,-388.01 8325.06,-385.65 8325.84,-392.61"/>
</g>
<!-- 19 -->
<g id="node20" class="node">
<title>19</title>
<ellipse fill="none" stroke="black" cx="7791.74" cy="-378" rx="186.47" ry="18"/>
<text text-anchor="middle" x="7791.74" y="-372.95" font-family="Times New Roman,serif" font-size="14.00">Rhetoric: He doesn&#39;t actually reach for his gun.</text>
</g>
<!-- 16&#45;&gt;19 -->
<g id="edge16" class="edge">
<title>16&#45;&gt;19</title>
<path fill="none" stroke="black" d="M7791.74,-431.7C7791.74,-424.41 7791.74,-415.73 7791.74,-407.54"/>
<polygon fill="black" stroke="black" points="7795.24,-407.62 7791.74,-397.62 7788.24,-407.62 7795.24,-407.62"/>
</g>
<!-- 39 -->
<g id="node40" class="node">
<title>39</title>
<ellipse fill="none" stroke="black" cx="7064.74" cy="-306" rx="83.6" ry="18"/>
<text text-anchor="middle" x="7064.74" y="-300.95" font-family="Times New Roman,serif" font-size="14.00">Jump to: [first hub]</text>
</g>
<!-- 17&#45;&gt;39 -->
<g id="edge17" class="edge">
<title>17&#45;&gt;39</title>
<path fill="none" stroke="black" d="M7214.51,-363.67C7186.56,-353.09 7147.12,-338.17 7115.73,-326.29"/>
<polygon fill="black" stroke="black" points="7117,-323.03 7106.4,-322.76 7114.52,-329.58 7117,-323.03"/>
</g>
<!-- 24 -->
<g id="node25" class="node">
<title>24</title>
<polygon fill="none" stroke="black" points="8670.74,-324 8435.26,-306 8670.74,-288 8906.22,-306 8670.74,-324"/>
<text text-anchor="middle" x="8670.74" y="-300.95" font-family="Times New Roman,serif" font-size="14.00">IsTHCPresent(&quot;revacholian_nationhood&quot;)</text>
</g>
<!-- 18&#45;&gt;24 -->
<g id="edge18" class="edge">
<title>18&#45;&gt;24</title>
<path fill="none" stroke="black" d="M8461.33,-364.49C8502.89,-353.08 8564.57,-336.14 8610.24,-323.61"/>
<polygon fill="black" stroke="black" points="8611.02,-327.02 8619.73,-321 8609.16,-320.27 8611.02,-327.02"/>
</g>
<!-- 40 -->
<g id="node41" class="node">
<title>40</title>
<ellipse fill="none" stroke="black" cx="7791.74" cy="-306" rx="625.6" ry="18"/>
<text text-anchor="middle" x="7791.74" y="-300.95" font-family="Times New Roman,serif" font-size="14.00">Encyclopedia: That isn&#39;t *just* a five&#45;pointed star &#45;&#45; it&#39;s an inverted white pentagram cradled in a wreath of antlers. The iconography of communism, in other words.</text>
</g>
<!-- 19&#45;&gt;40 -->
<g id="edge19" class="edge">
<title>19&#45;&gt;40</title>
<path fill="none" stroke="black" d="M7791.74,-359.7C7791.74,-352.41 7791.74,-343.73 7791.74,-335.54"/>
<polygon fill="black" stroke="black" points="7795.24,-335.62 7791.74,-325.62 7788.24,-335.62 7795.24,-335.62"/>
</g>
<!-- 20 -->
<g id="node21" class="node">
<title>20</title>
<ellipse fill="none" stroke="black" cx="7356.74" cy="-162" rx="99.46" ry="18"/>
<text text-anchor="middle" x="7356.74" y="-156.95" font-family="Times New Roman,serif" font-size="14.00">You: [Discard thought.]</text>
</g>
<!-- 21 -->
<g id="node22" class="node">
<title>21</title>
<ellipse fill="none" stroke="black" cx="4494.74" cy="-306" rx="629.69" ry="18"/>
<text text-anchor="middle" x="4494.74" y="-300.95" font-family="Times New Roman,serif" font-size="14.00">Encyclopedia: The star&#45;and&#45;antlers was developed in the sixth decade of the last century and quickly adopted by Mazov and the communards during the Revolution...</text>
</g>
<!-- 28 -->
<g id="node29" class="node">
<title>28</title>
<ellipse fill="none" stroke="black" cx="4444.74" cy="-234" rx="76.43" ry="18"/>
<text text-anchor="middle" x="4444.74" y="-228.95" font-family="Times New Roman,serif" font-size="14.00">You: Why white?</text>
</g>
<!-- 21&#45;&gt;28 -->
<g id="edge20" class="edge">
<title>21&#45;&gt;28</title>
<path fill="none" stroke="black" d="M4482.38,-287.7C4476.69,-279.73 4469.81,-270.1 4463.5,-261.26"/>
<polygon fill="black" stroke="black" points="4466.5,-259.44 4457.84,-253.34 4460.8,-263.51 4466.5,-259.44"/>
</g>
<!-- 22&#45;&gt;34 -->
<g id="edge21" class="edge">
<title>22&#45;&gt;34</title>
<path fill="none" stroke="black" d="M2772.62,-222.71C2679.62,-209.97 2521.55,-188.32 2423.48,-174.88"/>
<polygon fill="black" stroke="black" points="2424,-171.42 2413.62,-173.53 2423.05,-178.36 2424,-171.42"/>
</g>
<!-- 23 -->
<g id="node24" class="node">
<title>23</title>
<ellipse fill="none" stroke="black" cx="3552.74" cy="-234" rx="166.51" ry="18"/>
<text text-anchor="middle" x="3552.74" y="-228.95" font-family="Times New Roman,serif" font-size="14.00">IsTHCPresent(&quot;revacholian_nationhood&quot;)</text>
</g>
<!-- 25 -->
<g id="node26" class="node">
<title>25</title>
<polygon fill="none" stroke="black" points="3016.74,-180 2768.24,-162 3016.74,-144 3265.25,-162 3016.74,-180"/>
<text text-anchor="middle" x="3016.74" y="-156.95" font-family="Times New Roman,serif" font-size="14.00">!(IsTHCPresent(&quot;revacholian_nationhood&quot;))</text>
</g>
<!-- 23&#45;&gt;25 -->
<g id="edge22" class="edge">
<title>23&#45;&gt;25</title>
<path fill="none" stroke="black" d="M3449.4,-219.5C3352.49,-206.85 3208.69,-188.07 3113.86,-175.68"/>
<polygon fill="black" stroke="black" points="3114.41,-172.23 3104.04,-174.4 3113.51,-179.17 3114.41,-172.23"/>
</g>
<!-- 26 -->
<g id="node27" class="node">
<title>26</title>
<ellipse fill="none" stroke="black" cx="3602.74" cy="-162" rx="319.03" ry="18"/>
<text text-anchor="middle" x="3602.74" y="-156.95" font-family="Times New Roman,serif" font-size="14.00">Encyclopedia: Nothing at all yet. Right now it&#39;s just meaningless shapes on a wall.</text>
</g>
<!-- 23&#45;&gt;26 -->
<g id="edge23" class="edge">
<title>23&#45;&gt;26</title>
<path fill="none" stroke="black" d="M3565.1,-215.7C3570.79,-207.73 3577.67,-198.1 3583.98,-189.26"/>
<polygon fill="black" stroke="black" points="3586.68,-191.51 3589.64,-181.34 3580.98,-187.44 3586.68,-191.51"/>
</g>
<!-- 30 -->
<g id="node31" class="node">
<title>30</title>
<ellipse fill="none" stroke="black" cx="8670.74" cy="-234" rx="281.67" ry="18"/>
<text text-anchor="middle" x="8670.74" y="-228.95" font-family="Times New Roman,serif" font-size="14.00">Rhetoric: The price of idealism unrestrained by humanism. Never again.</text>
</g>
<!-- 24&#45;&gt;30 -->
<g id="edge24" class="edge">
<title>24&#45;&gt;30</title>
<path fill="none" stroke="black" d="M8670.74,-287.7C8670.74,-280.41 8670.74,-271.73 8670.74,-263.54"/>
<polygon fill="black" stroke="black" points="8674.24,-263.62 8670.74,-253.62 8667.24,-263.62 8674.24,-263.62"/>
</g>
<!-- 42 -->
<g id="node43" class="node">
<title>42</title>
<polygon fill="none" stroke="black" points="3016.74,-108 2850.03,-90 3016.74,-72 3183.46,-90 3016.74,-108"/>
<text text-anchor="middle" x="3016.74" y="-84.95" font-family="Times New Roman,serif" font-size="14.00">IsTHCPresent(&quot;ultraliberal&quot;)</text>
</g>
<!-- 25&#45;&gt;42 -->
<g id="edge25" class="edge">
<title>25&#45;&gt;42</title>
<path fill="none" stroke="black" d="M3016.74,-143.7C3016.74,-136.41 3016.74,-127.73 3016.74,-119.54"/>
<polygon fill="black" stroke="black" points="3020.24,-119.62 3016.74,-109.62 3013.24,-119.62 3020.24,-119.62"/>
</g>
<!-- 27 -->
<g id="node28" class="node">
<title>27</title>
<ellipse fill="none" stroke="black" cx="1676.74" cy="-234" rx="547.29" ry="18"/>
<text text-anchor="middle" x="1676.74" y="-228.95" font-family="Times New Roman,serif" font-size="14.00">Encyclopedia: Even today, half a century after, the star&#45;and&#45;antlers retains the ability to evoke hope, disappointment, and fear in equal measure.</text>
</g>
<!-- 27&#45;&gt;34 -->
<g id="edge26" class="edge">
<title>27&#45;&gt;34</title>
<path fill="none" stroke="black" d="M1833.99,-216.32C1961.83,-202.76 2137.83,-184.1 2244.1,-172.83"/>
<polygon fill="black" stroke="black" points="2244.35,-176.32 2253.92,-171.78 2243.61,-169.36 2244.35,-176.32"/>
</g>
<!-- 28&#45;&gt;2 -->
<g id="edge27" class="edge">
<title>28&#45;&gt;2</title>
<path fill="none" stroke="black" d="M4403.3,-218.5C4374.52,-208.42 4335.74,-194.85 4303.74,-183.65"/>
<polygon fill="black" stroke="black" points="4305.2,-180.45 4294.6,-180.45 4302.88,-187.06 4305.2,-180.45"/>
</g>
<!-- 29 -->
<g id="node30" class="node">
<title>29</title>
<ellipse fill="none" stroke="black" cx="5391.74" cy="-378" rx="557.02" ry="18"/>
<text text-anchor="middle" x="5391.74" y="-372.95" font-family="Times New Roman,serif" font-size="14.00">Encyclopedia: Communism is the ideology of gutless intellectuals and clueless university students. They don&#39;t care about the *real* wörking man.</text>
</g>
<!-- 29&#45;&gt;4 -->
<g id="edge28" class="edge">
<title>29&#45;&gt;4</title>
<path fill="none" stroke="black" d="M5401.88,-359.7C5406.44,-351.9 5411.94,-342.51 5417.03,-333.83"/>
<polygon fill="black" stroke="black" points="5419.92,-335.81 5421.96,-325.41 5413.88,-332.27 5419.92,-335.81"/>
</g>
<!-- 31 -->
<g id="node32" class="node">
<title>31</title>
<ellipse fill="none" stroke="black" cx="6501.74" cy="-162" rx="232.53" ry="18"/>
<text text-anchor="middle" x="6501.74" y="-156.95" font-family="Times New Roman,serif" font-size="14.00">You: &quot;Look out, Kim: There are communists around here.&quot;</text>
</g>
<!-- 37 -->
<g id="node38" class="node">
<title>37</title>
<ellipse fill="none" stroke="black" cx="6501.74" cy="-90" rx="469.5" ry="18"/>
<text text-anchor="middle" x="6501.74" y="-84.95" font-family="Times New Roman,serif" font-size="14.00">Encyclopedia: Gone. Gone is the glory. Of hope, only the scribblings of impoverished students remain. In dirty hallways...</text>
</g>
<!-- 31&#45;&gt;37 -->
<g id="edge29" class="edge">
<title>31&#45;&gt;37</title>
<path fill="none" stroke="black" d="M6501.74,-143.7C6501.74,-136.41 6501.74,-127.73 6501.74,-119.54"/>
<polygon fill="black" stroke="black" points="6505.24,-119.62 6501.74,-109.62 6498.24,-119.62 6505.24,-119.62"/>
</g>
<!-- 32 -->
<g id="node33" class="node">
<title>32</title>
<ellipse fill="none" stroke="black" cx="3552.74" cy="-306" rx="256.07" ry="18"/>
<text text-anchor="middle" x="3552.74" y="-300.95" font-family="Times New Roman,serif" font-size="14.00">Encyclopedia: Also, some social democrats were already using it.</text>
</g>
<!-- 32&#45;&gt;23 -->
<g id="edge30" class="edge">
<title>32&#45;&gt;23</title>
<path fill="none" stroke="black" d="M3552.74,-287.7C3552.74,-280.41 3552.74,-271.73 3552.74,-263.54"/>
<polygon fill="black" stroke="black" points="3556.24,-263.62 3552.74,-253.62 3549.24,-263.62 3556.24,-263.62"/>
</g>
<!-- 33&#45;&gt;6 -->
<g id="edge33" class="edge">
<title>33&#45;&gt;6</title>
<path fill="none" stroke="black" d="M6025.66,-442.48C6106.4,-431.71 6269.82,-409.92 6382.49,-394.9"/>
<polygon fill="black" stroke="black" points="6382.62,-398.41 6392.07,-393.62 6381.69,-391.48 6382.62,-398.41"/>
</g>
<!-- 33&#45;&gt;7 -->
<g id="edge34" class="edge">
<title>33&#45;&gt;7</title>
<path fill="none" stroke="black" d="M6009.33,-435.5C6033.65,-425.43 6067.35,-411.47 6095.16,-399.95"/>
<polygon fill="black" stroke="black" points="6096.21,-403.31 6104.11,-396.25 6093.53,-396.84 6096.21,-403.31"/>
</g>
<!-- 33&#45;&gt;12 -->
<g id="edge31" class="edge">
<title>33&#45;&gt;12</title>
<path fill="none" stroke="black" d="M5923.33,-447.84C5669.1,-442.33 4556.05,-418.04 3643.74,-396 3470.78,-391.82 3272.49,-386.7 3137.96,-383.18"/>
<polygon fill="black" stroke="black" points="3138.37,-379.69 3128.28,-382.93 3138.19,-386.69 3138.37,-379.69"/>
</g>
<!-- 33&#45;&gt;29 -->
<g id="edge32" class="edge">
<title>33&#45;&gt;29</title>
<path fill="none" stroke="black" d="M5926.87,-443.03C5843.05,-433 5670.71,-412.38 5544.16,-397.24"/>
<polygon fill="black" stroke="black" points="5544.68,-393.78 5534.34,-396.06 5543.85,-400.73 5544.68,-393.78"/>
</g>
<!-- 34&#45;&gt;34 -->
<g id="edge35" class="edge">
<title>34&#45;&gt;34</title>
<path fill="none" stroke="black" d="M2402.25,-175.43C2428.05,-176.11 2449.6,-171.63 2449.6,-162 2449.6,-153.83 2434.11,-149.37 2413.69,-148.62"/>
<polygon fill="black" stroke="black" points="2413.78,-145.12 2403.77,-148.57 2413.75,-152.12 2413.78,-145.12"/>
</g>
<!-- 35&#45;&gt;8 -->
<g id="edge37" class="edge">
<title>35&#45;&gt;8</title>
<path fill="none" stroke="black" d="M3654.67,-371.85C3570.94,-361.1 3375.14,-335.95 3253.45,-320.32"/>
<polygon fill="black" stroke="black" points="3254.14,-316.88 3243.77,-319.08 3253.25,-323.82 3254.14,-316.88"/>
</g>
<!-- 35&#45;&gt;21 -->
<g id="edge38" class="edge">
<title>35&#45;&gt;21</title>
<path fill="none" stroke="black" d="M3735.79,-373.41C3837.14,-364.54 4104.66,-341.13 4293.28,-324.63"/>
<polygon fill="black" stroke="black" points="4293.57,-328.12 4303.23,-323.76 4292.96,-321.14 4293.57,-328.12"/>
</g>
<!-- 35&#45;&gt;32 -->
<g id="edge36" class="edge">
<title>35&#45;&gt;32</title>
<path fill="none" stroke="black" d="M3668.03,-363.83C3648.32,-354.11 3621.01,-340.65 3597.93,-329.27"/>
<polygon fill="black" stroke="black" points="3599.53,-326.16 3589.01,-324.88 3596.44,-332.44 3599.53,-326.16"/>
</g>
<!-- 36 -->
<g id="node37" class="node">
<title>36</title>
<ellipse fill="none" stroke="black" cx="7356.74" cy="-234" rx="226.9" ry="18"/>
<text text-anchor="middle" x="7356.74" y="-228.95" font-family="Times New Roman,serif" font-size="14.00">Kim Kitsuragi: &quot;I&#39;ll keep my Armistice handy, detective.&quot;</text>
</g>
<!-- 36&#45;&gt;20 -->
<g id="edge39" class="edge">
<title>36&#45;&gt;20</title>
<path fill="none" stroke="black" d="M7356.74,-215.7C7356.74,-208.41 7356.74,-199.73 7356.74,-191.54"/>
<polygon fill="black" stroke="black" points="7360.24,-191.62 7356.74,-181.62 7353.24,-191.62 7360.24,-191.62"/>
</g>
<!-- 37&#45;&gt;11 -->
<g id="edge40" class="edge">
<title>37&#45;&gt;11</title>
<path fill="none" stroke="black" d="M6501.74,-71.7C6501.74,-64.41 6501.74,-55.73 6501.74,-47.54"/>
<polygon fill="black" stroke="black" points="6505.24,-47.62 6501.74,-37.62 6498.24,-47.62 6505.24,-47.62"/>
</g>
<!-- 38&#45;&gt;31 -->
<g id="edge41" class="edge">
<title>38&#45;&gt;31</title>
<path fill="none" stroke="black" d="M6501.74,-215.7C6501.74,-208.41 6501.74,-199.73 6501.74,-191.54"/>
<polygon fill="black" stroke="black" points="6505.24,-191.62 6501.74,-181.62 6498.24,-191.62 6505.24,-191.62"/>
</g>
<!-- 39&#45;&gt;36 -->
<g id="edge42" class="edge">
<title>39&#45;&gt;36</title>
<path fill="none" stroke="black" d="M7118.98,-292C7163.22,-281.39 7226.35,-266.26 7276.45,-254.25"/>
<polygon fill="black" stroke="black" points="7277.2,-257.67 7286.11,-251.93 7275.57,-250.86 7277.2,-257.67"/>
</g>
<!-- 40&#45;&gt;36 -->
<g id="edge43" class="edge">
<title>40&#45;&gt;36</title>
<path fill="none" stroke="black" d="M7684.77,-287.79C7617.93,-277.03 7532.12,-263.22 7465.03,-252.43"/>
<polygon fill="black" stroke="black" points="7465.93,-249.03 7455.5,-250.89 7464.82,-255.94 7465.93,-249.03"/>
</g>
<!-- 43 -->
<g id="node44" class="node">
<title>43</title>
<polygon fill="none" stroke="black" points="1464.74,-324 1285,-306 1464.74,-288 1644.49,-306 1464.74,-324"/>
<text text-anchor="middle" x="1464.74" y="-300.95" font-family="Times New Roman,serif" font-size="14.00">!(IsTHCPresent(&quot;ultraliberal&quot;))</text>
</g>
<!-- 41&#45;&gt;43 -->
<g id="edge44" class="edge">
<title>41&#45;&gt;43</title>
<path fill="none" stroke="black" d="M1127.64,-364C1202.15,-351.4 1314.49,-332.41 1388.7,-319.86"/>
<polygon fill="black" stroke="black" points="1389.05,-323.35 1398.33,-318.23 1387.89,-316.45 1389.05,-323.35"/>
</g>
<!-- 44 -->
<g id="node45" class="node">
<title>44</title>
<ellipse fill="none" stroke="black" cx="631.74" cy="-306" rx="631.74" ry="18"/>
<text text-anchor="middle" x="631.74" y="-300.95" font-family="Times New Roman,serif" font-size="14.00">Encyclopedia: Smug superiority? Esthetic musings? The triumph of Capital is undeniable, but... maybe the guns were sort of cool? Revolutionaries had loads of guns.</text>
</g>
<!-- 41&#45;&gt;44 -->
<g id="edge45" class="edge">
<title>41&#45;&gt;44</title>
<path fill="none" stroke="black" d="M973.4,-364.08C909.53,-353.41 817.95,-338.11 745.68,-326.03"/>
<polygon fill="black" stroke="black" points="746.64,-322.65 736.2,-324.45 745.49,-329.55 746.64,-322.65"/>
</g>
<!-- 45 -->
<g id="node46" class="node">
<title>45</title>
<ellipse fill="none" stroke="black" cx="3016.74" cy="-18" rx="27" ry="18"/>
<text text-anchor="middle" x="3016.74" y="-12.95" font-family="Times New Roman,serif" font-size="14.00">45</text>
</g>
<!-- 42&#45;&gt;45 -->
<g id="edge46" class="edge">
<title>42&#45;&gt;45</title>
<path fill="none" stroke="black" d="M3016.74,-71.7C3016.74,-64.41 3016.74,-55.73 3016.74,-47.54"/>
<polygon fill="black" stroke="black" points="3020.24,-47.62 3016.74,-37.62 3013.24,-47.62 3020.24,-47.62"/>
</g>
<!-- 43&#45;&gt;27 -->
<g id="edge47" class="edge">
<title>43&#45;&gt;27</title>
<path fill="none" stroke="black" d="M1505.12,-291.67C1535.71,-281.57 1578.33,-267.5 1613.44,-255.9"/>
<polygon fill="black" stroke="black" points="1614.24,-259.32 1622.64,-252.86 1612.04,-252.68 1614.24,-259.32"/>
</g>
<!-- 44&#45;&gt;5 -->
<g id="edge48" class="edge">
<title>44&#45;&gt;5</title>
<path fill="none" stroke="black" d="M629.52,-287.7C628.57,-280.32 627.44,-271.52 626.37,-263.25"/>
<polygon fill="black" stroke="black" points="629.88,-263.08 625.13,-253.61 622.94,-263.97 629.88,-263.08"/>
</g>
</g>
</svg>
