<?xml version="1.0" encoding="UTF-8" standalone="no"?>
<!DOCTYPE svg PUBLIC "-//W3C//DTD SVG 1.1//EN"
 "http://www.w3.org/Graphics/SVG/1.1/DTD/svg11.dtd">
<!-- Generated by graphviz version 12.2.1 (20241206.2353)
 -->
<!-- Title: G Pages: 1 -->
<svg width="1405pt" height="620pt"
 viewBox="0.00 0.00 1404.83 620.00" xmlns="http://www.w3.org/2000/svg" xmlns:xlink="http://www.w3.org/1999/xlink">
<g id="graph0" class="graph" transform="scale(1 1) rotate(0) translate(4 616)">
<title>G</title>
<polygon fill="white" stroke="none" points="-4,4 -4,-616 1400.83,-616 1400.83,4 -4,4"/>
<!-- 0 -->
<g id="node1" class="node">
<title>0</title>
<ellipse fill="none" stroke="black" cx="565.03" cy="-594" rx="39.07" ry="18"/>
<text text-anchor="middle" x="565.03" y="-588.95" font-family="Times New Roman,serif" font-size="14.00">START</text>
</g>
<!-- 0&#45;&gt;0 -->
<g id="edge1" class="edge">
<title>0&#45;&gt;0</title>
<path fill="none" stroke="black" d="M593.22,-606.94C608.33,-609.14 622.1,-604.83 622.1,-594 622.1,-585.96 614.52,-581.52 604.43,-580.65"/>
<polygon fill="black" stroke="black" points="604.6,-577.15 594.74,-581 604.85,-584.14 604.6,-577.15"/>
</g>
<!-- 1 -->
<g id="node2" class="node">
<title>1</title>
<ellipse fill="none" stroke="black" cx="670.03" cy="-594" rx="29.86" ry="18"/>
<text text-anchor="middle" x="670.03" y="-588.95" font-family="Times New Roman,serif" font-size="14.00">input</text>
</g>
<!-- 4 -->
<g id="node5" class="node">
<title>4</title>
<ellipse fill="none" stroke="black" cx="553.03" cy="-522" rx="205.92" ry="18"/>
<text text-anchor="middle" x="553.03" y="-516.95" font-family="Times New Roman,serif" font-size="14.00">You: No. Not right now, anyway. [Discard thought.]</text>
</g>
<!-- 1&#45;&gt;4 -->
<g id="edge2" class="edge">
<title>1&#45;&gt;4</title>
<path fill="none" stroke="black" d="M649.39,-580.65C633.41,-571.09 610.83,-557.58 591.55,-546.04"/>
<polygon fill="black" stroke="black" points="593.49,-543.13 583.11,-541 589.9,-549.13 593.49,-543.13"/>
</g>
<!-- 2 -->
<g id="node3" class="node">
<title>2</title>
<ellipse fill="none" stroke="black" cx="670.03" cy="-306" rx="107.14" ry="18"/>
<text text-anchor="middle" x="670.03" y="-300.95" font-family="Times New Roman,serif" font-size="14.00">You: Maybe just a little...</text>
</g>
<!-- 8 -->
<g id="node9" class="node">
<title>8</title>
<ellipse fill="none" stroke="black" cx="670.03" cy="-234" rx="321.59" ry="18"/>
<text text-anchor="middle" x="670.03" y="-228.95" font-family="Times New Roman,serif" font-size="14.00">Electrochemistry: Just a little. Then a lot. Come on, party boy! Let&#39;s get FUCKED!</text>
</g>
<!-- 2&#45;&gt;8 -->
<g id="edge3" class="edge">
<title>2&#45;&gt;8</title>
<path fill="none" stroke="black" d="M670.03,-287.7C670.03,-280.41 670.03,-271.73 670.03,-263.54"/>
<polygon fill="black" stroke="black" points="673.53,-263.62 670.03,-253.62 666.53,-263.62 673.53,-263.62"/>
</g>
<!-- 3 -->
<g id="node4" class="node">
<title>3</title>
<ellipse fill="none" stroke="black" cx="406.03" cy="-90" rx="406.03" ry="18"/>
<text text-anchor="middle" x="406.03" y="-84.95" font-family="Times New Roman,serif" font-size="14.00">Electrochemistry: Fuck you. You used to be cool. Why can&#39;t you just take the bottle and snort snort snort?</text>
</g>
<!-- 5 -->
<g id="node6" class="node">
<title>5</title>
<ellipse fill="none" stroke="black" cx="670.03" cy="-162" rx="386.59" ry="18"/>
<text text-anchor="middle" x="670.03" y="-156.95" font-family="Times New Roman,serif" font-size="14.00">Electrochemistry: Take the speed. Take that glorious stuff. You have it now. You&#39;ve got it! TAKE IT!</text>
</g>
<!-- 3&#45;&gt;5 -->
<g id="edge4" class="edge">
<title>3&#45;&gt;5</title>
<path fill="none" stroke="black" d="M476.6,-108.15C514.83,-118.01 561.86,-130.46 600,-140.79"/>
<polygon fill="black" stroke="black" points="598.99,-144.14 609.56,-143.39 600.83,-137.39 598.99,-144.14"/>
</g>
<!-- 9 -->
<g id="node10" class="node">
<title>9</title>
<ellipse fill="none" stroke="black" cx="670.03" cy="-450" rx="320.56" ry="18"/>
<text text-anchor="middle" x="670.03" y="-444.95" font-family="Times New Roman,serif" font-size="14.00">Electrochemistry: Come on. Come on! A little! Just a little bit! Whaddya say, huh?</text>
</g>
<!-- 4&#45;&gt;9 -->
<g id="edge5" class="edge">
<title>4&#45;&gt;9</title>
<path fill="none" stroke="black" d="M581.96,-503.7C596.86,-494.78 615.25,-483.78 631.36,-474.14"/>
<polygon fill="black" stroke="black" points="632.96,-477.26 639.74,-469.12 629.36,-471.25 632.96,-477.26"/>
</g>
<!-- 5&#45;&gt;3 -->
<g id="edge6" class="edge">
<title>5&#45;&gt;3</title>
<path fill="none" stroke="black" d="M599.56,-143.88C561.29,-134 514.18,-121.54 475.99,-111.19"/>
<polygon fill="black" stroke="black" points="476.99,-107.83 466.42,-108.59 475.15,-114.59 476.99,-107.83"/>
</g>
<!-- 11 -->
<g id="node12" class="node">
<title>11</title>
<ellipse fill="none" stroke="black" cx="935.03" cy="-90" rx="104.58" ry="18"/>
<text text-anchor="middle" x="935.03" y="-84.95" font-family="Times New Roman,serif" font-size="14.00">You: Let&#39;s get fucked up.</text>
</g>
<!-- 5&#45;&gt;11 -->
<g id="edge7" class="edge">
<title>5&#45;&gt;11</title>
<path fill="none" stroke="black" d="M735.2,-143.79C775.77,-133.07 827.81,-119.32 868.61,-108.55"/>
<polygon fill="black" stroke="black" points="869.3,-111.98 878.07,-106.05 867.51,-105.22 869.3,-111.98"/>
</g>
<!-- 6 -->
<g id="node7" class="node">
<title>6</title>
<ellipse fill="none" stroke="black" cx="775.03" cy="-594" rx="57.49" ry="18"/>
<text text-anchor="middle" x="775.03" y="-588.95" font-family="Times New Roman,serif" font-size="14.00">Untitled hub</text>
</g>
<!-- 7 -->
<g id="node8" class="node">
<title>7</title>
<ellipse fill="none" stroke="black" cx="670.03" cy="-378" rx="204.89" ry="18"/>
<text text-anchor="middle" x="670.03" y="-372.95" font-family="Times New Roman,serif" font-size="14.00">You: I said I discard the thought! [Discard thought.]</text>
</g>
<!-- 7&#45;&gt;2 -->
<g id="edge8" class="edge">
<title>7&#45;&gt;2</title>
<path fill="none" stroke="black" d="M670.03,-359.7C670.03,-352.41 670.03,-343.73 670.03,-335.54"/>
<polygon fill="black" stroke="black" points="673.53,-335.62 670.03,-325.62 666.53,-335.62 673.53,-335.62"/>
</g>
<!-- 8&#45;&gt;5 -->
<g id="edge9" class="edge">
<title>8&#45;&gt;5</title>
<path fill="none" stroke="black" d="M670.03,-215.7C670.03,-208.41 670.03,-199.73 670.03,-191.54"/>
<polygon fill="black" stroke="black" points="673.53,-191.62 670.03,-181.62 666.53,-191.62 673.53,-191.62"/>
</g>
<!-- 9&#45;&gt;1 -->
<g id="edge10" class="edge">
<title>9&#45;&gt;1</title>
<path fill="none" stroke="black" d="M725.11,-468.16C741.86,-476.25 758.38,-487.8 768.03,-504 776.23,-517.74 776.23,-526.26 768.03,-540 764.25,-546.34 730.1,-563.98 703.17,-577.18"/>
<polygon fill="black" stroke="black" points="701.73,-573.98 694.27,-581.5 704.79,-580.28 701.73,-573.98"/>
</g>
<!-- 9&#45;&gt;7 -->
<g id="edge11" class="edge">
<title>9&#45;&gt;7</title>
<path fill="none" stroke="black" d="M670.03,-431.7C670.03,-424.41 670.03,-415.73 670.03,-407.54"/>
<polygon fill="black" stroke="black" points="673.53,-407.62 670.03,-397.62 666.53,-407.62 673.53,-407.62"/>
</g>
<!-- 10 -->
<g id="node11" class="node">
<title>10</title>
<ellipse fill="none" stroke="black" cx="1001.03" cy="-18" rx="395.8" ry="18"/>
<text text-anchor="middle" x="1001.03" y="-12.95" font-family="Times New Roman,serif" font-size="14.00">Electrochemistry: FUCKING RIGHT! PUT THAT BOTTLE IN YOUR HAND AND PARTY DOWN!</text>
</g>
<!-- 10&#45;&gt;5 -->
<g id="edge12" class="edge">
<title>10&#45;&gt;5</title>
<path fill="none" stroke="black" d="M1022.12,-36.46C1042.61,-55.49 1068.05,-86.15 1049.03,-108 1032.94,-126.5 994.6,-138.74 948.19,-146.79"/>
<polygon fill="black" stroke="black" points="947.68,-143.33 938.38,-148.4 948.81,-150.24 947.68,-143.33"/>
</g>
<!-- 11&#45;&gt;10 -->
<g id="edge13" class="edge">
<title>11&#45;&gt;10</title>
<path fill="none" stroke="black" d="M951.01,-72.05C958.84,-63.75 968.43,-53.58 977.11,-44.38"/>
<polygon fill="black" stroke="black" points="979.39,-47.05 983.71,-37.38 974.3,-42.25 979.39,-47.05"/>
</g>
</g>
</svg>
