<?xml version="1.0" encoding="UTF-8" standalone="no"?>
<!DOCTYPE svg PUBLIC "-//W3C//DTD SVG 1.1//EN"
 "http://www.w3.org/Graphics/SVG/1.1/DTD/svg11.dtd">
<!-- Generated by graphviz version 12.2.1 (20241206.2353)
 -->
<!-- Title: G Pages: 1 -->
<svg width="2307pt" height="332pt"
 viewBox="0.00 0.00 2307.31 332.00" xmlns="http://www.w3.org/2000/svg" xmlns:xlink="http://www.w3.org/1999/xlink">
<g id="graph0" class="graph" transform="scale(1 1) rotate(0) translate(4 328)">
<title>G</title>
<polygon fill="white" stroke="none" points="-4,4 -4,-328 2303.31,-328 2303.31,4 -4,4"/>
<!-- 0 -->
<g id="node1" class="node">
<title>0</title>
<ellipse fill="none" stroke="black" cx="837.25" cy="-306" rx="39.07" ry="18"/>
<text text-anchor="middle" x="837.25" y="-300.95" font-family="Times New Roman,serif" font-size="14.00">START</text>
</g>
<!-- 0&#45;&gt;0 -->
<g id="edge1" class="edge">
<title>0&#45;&gt;0</title>
<path fill="none" stroke="black" d="M865.44,-318.94C880.55,-321.14 894.32,-316.83 894.32,-306 894.32,-297.96 886.74,-293.52 876.65,-292.65"/>
<polygon fill="black" stroke="black" points="876.82,-289.15 866.95,-293 877.07,-296.14 876.82,-289.15"/>
</g>
<!-- 1 -->
<g id="node2" class="node">
<title>1</title>
<ellipse fill="none" stroke="black" cx="807.25" cy="-162" rx="29.86" ry="18"/>
<text text-anchor="middle" x="807.25" y="-156.95" font-family="Times New Roman,serif" font-size="14.00">input</text>
</g>
<!-- 4 -->
<g id="node5" class="node">
<title>4</title>
<ellipse fill="none" stroke="black" cx="502.25" cy="-90" rx="502.25" ry="18"/>
<text text-anchor="middle" x="502.25" y="-84.95" font-family="Times New Roman,serif" font-size="14.00">Shivers: Yes... Reunion...! Listen within the circles that capture the electrical world… If you can hear me then, we will be united…</text>
</g>
<!-- 1&#45;&gt;4 -->
<g id="edge2" class="edge">
<title>1&#45;&gt;4</title>
<path fill="none" stroke="black" d="M779.65,-154.66C736.89,-144.85 652.84,-125.56 588.42,-110.78"/>
<polygon fill="black" stroke="black" points="589.45,-107.42 578.92,-108.6 587.88,-114.24 589.45,-107.42"/>
</g>
<!-- 2 -->
<g id="node3" class="node">
<title>2</title>
<ellipse fill="none" stroke="black" cx="1172.25" cy="-162" rx="164.46" ry="18"/>
<text text-anchor="middle" x="1172.25" y="-156.95" font-family="Times New Roman,serif" font-size="14.00">You: I will be there soon. Wherever it is!</text>
</g>
<!-- 3 -->
<g id="node4" class="node">
<title>3</title>
<ellipse fill="none" stroke="black" cx="1325.25" cy="-90" rx="302.65" ry="18"/>
<text text-anchor="middle" x="1325.25" y="-84.95" font-family="Times New Roman,serif" font-size="14.00">You: You better be ready when I find you, weird voice! I&#39;m going to hurt you!</text>
</g>
<!-- 2&#45;&gt;3 -->
<g id="edge3" class="edge">
<title>2&#45;&gt;3</title>
<path fill="none" stroke="black" d="M1209.29,-144.05C1229.66,-134.74 1255.17,-123.07 1277.07,-113.04"/>
<polygon fill="black" stroke="black" points="1278.48,-116.25 1286.12,-108.91 1275.57,-109.88 1278.48,-116.25"/>
</g>
<!-- 8 -->
<g id="node9" class="node">
<title>8</title>
<ellipse fill="none" stroke="black" cx="1325.25" cy="-18" rx="507.88" ry="18"/>
<text text-anchor="middle" x="1325.25" y="-12.95" font-family="Times New Roman,serif" font-size="14.00">Shivers: Please do not... Just listen within the circles that capture the electrical world… If you can hear me then, we will be united…</text>
</g>
<!-- 3&#45;&gt;8 -->
<g id="edge4" class="edge">
<title>3&#45;&gt;8</title>
<path fill="none" stroke="black" d="M1325.25,-71.7C1325.25,-64.41 1325.25,-55.73 1325.25,-47.54"/>
<polygon fill="black" stroke="black" points="1328.75,-47.62 1325.25,-37.62 1321.75,-47.62 1328.75,-47.62"/>
</g>
<!-- 5 -->
<g id="node6" class="node">
<title>5</title>
<ellipse fill="none" stroke="black" cx="1172.25" cy="-234" rx="136.82" ry="18"/>
<text text-anchor="middle" x="1172.25" y="-228.95" font-family="Times New Roman,serif" font-size="14.00">Shivers: I am yours... So nearly...</text>
</g>
<!-- 5&#45;&gt;1 -->
<g id="edge5" class="edge">
<title>5&#45;&gt;1</title>
<path fill="none" stroke="black" d="M1097.07,-218.58C1020.96,-203.99 906.24,-181.98 846.52,-170.53"/>
<polygon fill="black" stroke="black" points="847.31,-167.12 836.83,-168.67 845.99,-173.99 847.31,-167.12"/>
</g>
<!-- 5&#45;&gt;2 -->
<g id="edge6" class="edge">
<title>5&#45;&gt;2</title>
<path fill="none" stroke="black" d="M1172.25,-215.7C1172.25,-208.41 1172.25,-199.73 1172.25,-191.54"/>
<polygon fill="black" stroke="black" points="1175.75,-191.62 1172.25,-181.62 1168.75,-191.62 1175.75,-191.62"/>
</g>
<!-- 6 -->
<g id="node7" class="node">
<title>6</title>
<ellipse fill="none" stroke="black" cx="1827.25" cy="-162" rx="472.06" ry="18"/>
<text text-anchor="middle" x="1827.25" y="-156.95" font-family="Times New Roman,serif" font-size="14.00">Shivers: So near... Listen within the circles that capture the electrical world… If you can hear me then, we will be united…</text>
</g>
<!-- 5&#45;&gt;6 -->
<g id="edge7" class="edge">
<title>5&#45;&gt;6</title>
<path fill="none" stroke="black" d="M1276.04,-221.91C1379.67,-210.83 1540.55,-193.64 1661.8,-180.68"/>
<polygon fill="black" stroke="black" points="1661.96,-184.18 1671.53,-179.64 1661.22,-177.22 1661.96,-184.18"/>
</g>
<!-- 7 -->
<g id="node8" class="node">
<title>7</title>
<ellipse fill="none" stroke="black" cx="1172.25" cy="-306" rx="260.17" ry="18"/>
<text text-anchor="middle" x="1172.25" y="-300.95" font-family="Times New Roman,serif" font-size="14.00">You: That&#39;s great. Tell me what circle I&#39;ve got to run into this time.</text>
</g>
<!-- 7&#45;&gt;5 -->
<g id="edge8" class="edge">
<title>7&#45;&gt;5</title>
<path fill="none" stroke="black" d="M1172.25,-287.7C1172.25,-280.41 1172.25,-271.73 1172.25,-263.54"/>
<polygon fill="black" stroke="black" points="1175.75,-263.62 1172.25,-253.62 1168.75,-263.62 1175.75,-263.62"/>
</g>
</g>
</svg>
