<?xml version="1.0" encoding="UTF-8" standalone="no"?>
<!DOCTYPE svg PUBLIC "-//W3C//DTD SVG 1.1//EN"
 "http://www.w3.org/Graphics/SVG/1.1/DTD/svg11.dtd">
<!-- Generated by graphviz version 12.2.1 (20241206.2353)
 -->
<!-- Title: G Pages: 1 -->
<svg width="2358pt" height="692pt"
 viewBox="0.00 0.00 2358.29 692.00" xmlns="http://www.w3.org/2000/svg" xmlns:xlink="http://www.w3.org/1999/xlink">
<g id="graph0" class="graph" transform="scale(1 1) rotate(0) translate(4 688)">
<title>G</title>
<polygon fill="white" stroke="none" points="-4,4 -4,-688 2354.29,-688 2354.29,4 -4,4"/>
<!-- 0 -->
<g id="node1" class="node">
<title>0</title>
<ellipse fill="none" stroke="black" cx="1140.42" cy="-666" rx="39.07" ry="18"/>
<text text-anchor="middle" x="1140.42" y="-660.95" font-family="Times New Roman,serif" font-size="14.00">START</text>
</g>
<!-- 1 -->
<g id="node2" class="node">
<title>1</title>
<ellipse fill="none" stroke="black" cx="1140.42" cy="-594" rx="29.86" ry="18"/>
<text text-anchor="middle" x="1140.42" y="-588.95" font-family="Times New Roman,serif" font-size="14.00">input</text>
</g>
<!-- 0&#45;&gt;1 -->
<g id="edge1" class="edge">
<title>0&#45;&gt;1</title>
<path fill="none" stroke="black" d="M1140.42,-647.7C1140.42,-640.41 1140.42,-631.73 1140.42,-623.54"/>
<polygon fill="black" stroke="black" points="1143.92,-623.62 1140.42,-613.62 1136.92,-623.62 1143.92,-623.62"/>
</g>
<!-- 9 -->
<g id="node9" class="node">
<title>9</title>
<ellipse fill="none" stroke="black" cx="1140.42" cy="-522" rx="342.06" ry="18"/>
<text text-anchor="middle" x="1140.42" y="-516.95" font-family="Times New Roman,serif" font-size="14.00">Shivers: A shift in temperature. The air chills around you. Dust settles on the stony floor.</text>
</g>
<!-- 1&#45;&gt;9 -->
<g id="edge2" class="edge">
<title>1&#45;&gt;9</title>
<path fill="none" stroke="black" d="M1140.42,-575.7C1140.42,-568.41 1140.42,-559.73 1140.42,-551.54"/>
<polygon fill="black" stroke="black" points="1143.92,-551.62 1140.42,-541.62 1136.92,-551.62 1143.92,-551.62"/>
</g>
<!-- 2 -->
<g id="node3" class="node">
<title>2</title>
<ellipse fill="none" stroke="black" cx="665.42" cy="-234" rx="119.42" ry="18"/>
<text text-anchor="middle" x="665.42" y="-228.95" font-family="Times New Roman,serif" font-size="14.00">You: Look around yourself...</text>
</g>
<!-- 15 -->
<g id="node15" class="node">
<title>15</title>
<ellipse fill="none" stroke="black" cx="643.42" cy="-162" rx="622.02" ry="18"/>
<text text-anchor="middle" x="643.42" y="-156.95" font-family="Times New Roman,serif" font-size="14.00">Shivers: It&#39;s clean and empty, with new tapestry embellishing the walls. A standard HB graphite pencil has fallen off a three&#45;legged stool in the middle of the room.</text>
</g>
<!-- 2&#45;&gt;15 -->
<g id="edge3" class="edge">
<title>2&#45;&gt;15</title>
<path fill="none" stroke="black" d="M659.98,-215.7C657.63,-208.24 654.83,-199.32 652.2,-190.97"/>
<polygon fill="black" stroke="black" points="655.58,-190.04 649.24,-181.55 648.9,-192.14 655.58,-190.04"/>
</g>
<!-- 3 -->
<g id="node4" class="node">
<title>3</title>
<ellipse fill="none" stroke="black" cx="275.42" cy="-90" rx="181.86" ry="18"/>
<text text-anchor="middle" x="275.42" y="-84.95" font-family="Times New Roman,serif" font-size="14.00">Conceptualization: She had an eye for beauty.</text>
</g>
<!-- 5 -->
<g id="node6" class="node">
<title>5</title>
<ellipse fill="none" stroke="black" cx="747.42" cy="-18" rx="134.78" ry="18"/>
<text text-anchor="middle" x="747.42" y="-12.95" font-family="Times New Roman,serif" font-size="14.00">Jump to: [abandoned apt shivers]</text>
</g>
<!-- 3&#45;&gt;5 -->
<g id="edge4" class="edge">
<title>3&#45;&gt;5</title>
<path fill="none" stroke="black" d="M373.5,-74.45C454.12,-62.5 567.8,-45.64 648.61,-33.65"/>
<polygon fill="black" stroke="black" points="648.92,-37.15 658.29,-32.22 647.89,-30.22 648.92,-37.15"/>
</g>
<!-- 4 -->
<g id="node5" class="node">
<title>4</title>
<ellipse fill="none" stroke="black" cx="1014.42" cy="-378" rx="737.17" ry="18"/>
<text text-anchor="middle" x="1014.42" y="-372.95" font-family="Times New Roman,serif" font-size="14.00">Shivers: A former architect stands before a slice of window, a room plan in her hand. A cold wave has made the air in the building stand still and frozen, with temperatures falling down to &#45;20°C.</text>
</g>
<!-- 16 -->
<g id="node16" class="node">
<title>16</title>
<ellipse fill="none" stroke="black" cx="1014.42" cy="-306" rx="93.32" ry="18"/>
<text text-anchor="middle" x="1014.42" y="-300.95" font-family="Times New Roman,serif" font-size="14.00">abandoned apt shivers</text>
</g>
<!-- 4&#45;&gt;16 -->
<g id="edge5" class="edge">
<title>4&#45;&gt;16</title>
<path fill="none" stroke="black" d="M1014.42,-359.7C1014.42,-352.41 1014.42,-343.73 1014.42,-335.54"/>
<polygon fill="black" stroke="black" points="1017.92,-335.62 1014.42,-325.62 1010.92,-335.62 1017.92,-335.62"/>
</g>
<!-- 5&#45;&gt;16 -->
<g id="edge6" class="edge">
<title>5&#45;&gt;16</title>
<path fill="none" stroke="black" d="M612.48,-18.89C446.39,-20.63 175.16,-30.1 84.42,-72 63.64,-81.59 -32.87,-128.08 12.42,-180 71.12,-247.3 671.19,-286.66 913.62,-299.92"/>
<polygon fill="black" stroke="black" points="913.21,-303.4 923.38,-300.45 913.59,-296.41 913.21,-303.4"/>
</g>
<!-- 6 -->
<g id="node7" class="node">
<title>6</title>
<ellipse fill="none" stroke="black" cx="1014.42" cy="-234" rx="122.49" ry="18"/>
<text text-anchor="middle" x="1014.42" y="-228.95" font-family="Times New Roman,serif" font-size="14.00">You: Shiver. [Finish thought.]</text>
</g>
<!-- 8 -->
<g id="node8" class="node">
<title>8</title>
<ellipse fill="none" stroke="black" cx="1864.42" cy="-162" rx="485.88" ry="18"/>
<text text-anchor="middle" x="1864.42" y="-156.95" font-family="Times New Roman,serif" font-size="14.00">Shivers: ...is red from the cold. She&#39;s breathing on her fingers clasping the plan. Traces of sadness are visible in her expression.</text>
</g>
<!-- 8&#45;&gt;5 -->
<g id="edge7" class="edge">
<title>8&#45;&gt;5</title>
<path fill="none" stroke="black" d="M1929.81,-143.69C1947.29,-135.75 1964.15,-124.33 1974.42,-108 1982.93,-94.45 1985.48,-83.56 1974.42,-72 1937.56,-33.51 1209.81,-22.82 892.85,-19.97"/>
<polygon fill="black" stroke="black" points="893.3,-16.48 883.27,-19.89 893.24,-23.48 893.3,-16.48"/>
</g>
<!-- 11 -->
<g id="node11" class="node">
<title>11</title>
<ellipse fill="none" stroke="black" cx="1014.42" cy="-450" rx="134.26" ry="18"/>
<text text-anchor="middle" x="1014.42" y="-444.95" font-family="Times New Roman,serif" font-size="14.00">You: Rub your sides for warmth.</text>
</g>
<!-- 9&#45;&gt;11 -->
<g id="edge8" class="edge">
<title>9&#45;&gt;11</title>
<path fill="none" stroke="black" d="M1109.27,-503.7C1092.82,-494.56 1072.44,-483.24 1054.79,-473.43"/>
<polygon fill="black" stroke="black" points="1056.53,-470.39 1046.09,-468.6 1053.13,-476.51 1056.53,-470.39"/>
</g>
<!-- 13 -->
<g id="node13" class="node">
<title>13</title>
<ellipse fill="none" stroke="black" cx="1266.42" cy="-450" rx="99.46" ry="18"/>
<text text-anchor="middle" x="1266.42" y="-444.95" font-family="Times New Roman,serif" font-size="14.00">You: [Discard thought.]</text>
</g>
<!-- 9&#45;&gt;13 -->
<g id="edge9" class="edge">
<title>9&#45;&gt;13</title>
<path fill="none" stroke="black" d="M1171.56,-503.7C1188.29,-494.41 1209.08,-482.86 1226.93,-472.94"/>
<polygon fill="black" stroke="black" points="1228.13,-476.27 1235.17,-468.36 1224.73,-470.15 1228.13,-476.27"/>
</g>
<!-- 10 -->
<g id="node10" class="node">
<title>10</title>
<ellipse fill="none" stroke="black" cx="1270.42" cy="-234" rx="71.31" ry="18"/>
<text text-anchor="middle" x="1270.42" y="-228.95" font-family="Times New Roman,serif" font-size="14.00">You: The plan...</text>
</g>
<!-- 12 -->
<g id="node12" class="node">
<title>12</title>
<ellipse fill="none" stroke="black" cx="1220.42" cy="-90" rx="744.85" ry="18"/>
<text text-anchor="middle" x="1220.42" y="-84.95" font-family="Times New Roman,serif" font-size="14.00">Shivers: ... faint pencil lines on paper depict the same place, but a missing eastern wall connects the room with the neighbouring apartment. Ideas for arranging the furniture have been jotted down.</text>
</g>
<!-- 10&#45;&gt;12 -->
<g id="edge10" class="edge">
<title>10&#45;&gt;12</title>
<path fill="none" stroke="black" d="M1275.4,-215.84C1279.83,-197.34 1284.23,-167.39 1274.42,-144 1269.95,-133.37 1262.21,-123.8 1253.95,-115.81"/>
<polygon fill="black" stroke="black" points="1256.54,-113.44 1246.76,-109.38 1251.88,-118.66 1256.54,-113.44"/>
</g>
<!-- 11&#45;&gt;4 -->
<g id="edge11" class="edge">
<title>11&#45;&gt;4</title>
<path fill="none" stroke="black" d="M1014.42,-431.7C1014.42,-424.41 1014.42,-415.73 1014.42,-407.54"/>
<polygon fill="black" stroke="black" points="1017.92,-407.62 1014.42,-397.62 1010.92,-407.62 1017.92,-407.62"/>
</g>
<!-- 12&#45;&gt;5 -->
<g id="edge12" class="edge">
<title>12&#45;&gt;5</title>
<path fill="none" stroke="black" d="M1103.8,-71.74C1024.83,-60.05 921.61,-44.78 846.6,-33.68"/>
<polygon fill="black" stroke="black" points="847.18,-30.23 836.77,-32.22 846.15,-37.15 847.18,-30.23"/>
</g>
<!-- 14 -->
<g id="node14" class="node">
<title>14</title>
<ellipse fill="none" stroke="black" cx="1629.42" cy="-234" rx="70.8" ry="18"/>
<text text-anchor="middle" x="1629.42" y="-228.95" font-family="Times New Roman,serif" font-size="14.00">You: Her face...</text>
</g>
<!-- 14&#45;&gt;8 -->
<g id="edge13" class="edge">
<title>14&#45;&gt;8</title>
<path fill="none" stroke="black" d="M1674.17,-219.67C1708.5,-209.44 1756.48,-195.15 1795.67,-183.48"/>
<polygon fill="black" stroke="black" points="1796.43,-186.9 1805.02,-180.69 1794.44,-180.19 1796.43,-186.9"/>
</g>
<!-- 15&#45;&gt;3 -->
<g id="edge14" class="edge">
<title>15&#45;&gt;3</title>
<path fill="none" stroke="black" d="M552.92,-143.79C496.76,-133.1 424.76,-119.41 368.18,-108.65"/>
<polygon fill="black" stroke="black" points="369.04,-105.25 358.57,-106.82 367.74,-112.12 369.04,-105.25"/>
</g>
<!-- 16&#45;&gt;2 -->
<g id="edge16" class="edge">
<title>16&#45;&gt;2</title>
<path fill="none" stroke="black" d="M951.62,-292.4C894.13,-280.87 808.75,-263.75 746.2,-251.2"/>
<polygon fill="black" stroke="black" points="747.17,-247.83 736.68,-249.29 745.8,-254.69 747.17,-247.83"/>
</g>
<!-- 16&#45;&gt;6 -->
<g id="edge18" class="edge">
<title>16&#45;&gt;6</title>
<path fill="none" stroke="black" d="M1014.42,-287.7C1014.42,-280.41 1014.42,-271.73 1014.42,-263.54"/>
<polygon fill="black" stroke="black" points="1017.92,-263.62 1014.42,-253.62 1010.92,-263.62 1017.92,-263.62"/>
</g>
<!-- 16&#45;&gt;10 -->
<g id="edge15" class="edge">
<title>16&#45;&gt;10</title>
<path fill="none" stroke="black" d="M1066.84,-290.67C1109.09,-279.11 1168.47,-262.88 1212.19,-250.92"/>
<polygon fill="black" stroke="black" points="1213.05,-254.31 1221.78,-248.3 1211.21,-247.56 1213.05,-254.31"/>
</g>
<!-- 16&#45;&gt;14 -->
<g id="edge17" class="edge">
<title>16&#45;&gt;14</title>
<path fill="none" stroke="black" d="M1093.24,-296.03C1212.6,-282.44 1437.61,-256.83 1554.57,-243.52"/>
<polygon fill="black" stroke="black" points="1554.84,-247.01 1564.38,-242.4 1554.05,-240.06 1554.84,-247.01"/>
</g>
</g>
</svg>
