<?xml version="1.0" encoding="UTF-8" standalone="no"?>
<!DOCTYPE svg PUBLIC "-//W3C//DTD SVG 1.1//EN"
 "http://www.w3.org/Graphics/SVG/1.1/DTD/svg11.dtd">
<!-- Generated by graphviz version 12.2.1 (20241206.2353)
 -->
<!-- Title: G Pages: 1 -->
<svg width="3085pt" height="1340pt"
 viewBox="0.00 0.00 3084.55 1340.00" xmlns="http://www.w3.org/2000/svg" xmlns:xlink="http://www.w3.org/1999/xlink">
<g id="graph0" class="graph" transform="scale(1 1) rotate(0) translate(4 1336)">
<title>G</title>
<polygon fill="white" stroke="none" points="-4,4 -4,-1336 3080.55,-1336 3080.55,4 -4,4"/>
<!-- 0 -->
<g id="node1" class="node">
<title>0</title>
<ellipse fill="none" stroke="black" cx="2450.95" cy="-1314" rx="39.07" ry="18"/>
<text text-anchor="middle" x="2450.95" y="-1308.95" font-family="Times New Roman,serif" font-size="14.00">START</text>
</g>
<!-- 1 -->
<g id="node2" class="node">
<title>1</title>
<ellipse fill="none" stroke="black" cx="2450.95" cy="-1242" rx="29.86" ry="18"/>
<text text-anchor="middle" x="2450.95" y="-1236.95" font-family="Times New Roman,serif" font-size="14.00">input</text>
</g>
<!-- 0&#45;&gt;1 -->
<g id="edge1" class="edge">
<title>0&#45;&gt;1</title>
<path fill="none" stroke="black" d="M2450.95,-1295.7C2450.95,-1288.41 2450.95,-1279.73 2450.95,-1271.54"/>
<polygon fill="black" stroke="black" points="2454.45,-1271.62 2450.95,-1261.62 2447.45,-1271.62 2454.45,-1271.62"/>
</g>
<!-- 41 -->
<g id="node41" class="node">
<title>41</title>
<ellipse fill="none" stroke="black" cx="2450.95" cy="-1170" rx="625.6" ry="18"/>
<text text-anchor="middle" x="2450.95" y="-1164.95" font-family="Times New Roman,serif" font-size="14.00">Encyclopedia: That isn&#39;t *just* a five&#45;pointed star &#45;&#45; it&#39;s an inverted white pentagram cradled in a wreath of antlers. The iconography of communism, in other words.</text>
</g>
<!-- 1&#45;&gt;41 -->
<g id="edge2" class="edge">
<title>1&#45;&gt;41</title>
<path fill="none" stroke="black" d="M2450.95,-1223.7C2450.95,-1216.41 2450.95,-1207.73 2450.95,-1199.54"/>
<polygon fill="black" stroke="black" points="2454.45,-1199.62 2450.95,-1189.62 2447.45,-1199.62 2454.45,-1199.62"/>
</g>
<!-- 2 -->
<g id="node3" class="node">
<title>2</title>
<ellipse fill="none" stroke="black" cx="2396.95" cy="-666" rx="204.89" ry="18"/>
<text text-anchor="middle" x="2396.95" y="-660.95" font-family="Times New Roman,serif" font-size="14.00">Encyclopedia: Because white is the colour of peace.</text>
</g>
<!-- 35 -->
<g id="node35" class="node">
<title>35</title>
<ellipse fill="none" stroke="black" cx="2322.95" cy="-594" rx="94.86" ry="18"/>
<text text-anchor="middle" x="2322.95" y="-588.95" font-family="Times New Roman,serif" font-size="14.00">Jump to: [commuhub]</text>
</g>
<!-- 2&#45;&gt;35 -->
<g id="edge3" class="edge">
<title>2&#45;&gt;35</title>
<path fill="none" stroke="black" d="M2378.65,-647.7C2369.78,-639.3 2358.96,-629.07 2349.23,-619.86"/>
<polygon fill="black" stroke="black" points="2351.8,-617.47 2342.13,-613.14 2346.99,-622.56 2351.8,-617.47"/>
</g>
<!-- 3 -->
<g id="node4" class="node">
<title>3</title>
<ellipse fill="none" stroke="black" cx="686.95" cy="-666" rx="669.62" ry="18"/>
<text text-anchor="middle" x="686.95" y="-660.95" font-family="Times New Roman,serif" font-size="14.00">Encyclopedia: The wreath of antlers represents a natural crown. It was about building a society that could exist in accord with the natural world &#45;&#45; and at the same time above it.</text>
</g>
<!-- 10 -->
<g id="node11" class="node">
<title>10</title>
<ellipse fill="none" stroke="black" cx="337.95" cy="-594" rx="94.86" ry="18"/>
<text text-anchor="middle" x="337.95" y="-588.95" font-family="Times New Roman,serif" font-size="14.00">Jump to: [commuhub]</text>
</g>
<!-- 3&#45;&gt;10 -->
<g id="edge4" class="edge">
<title>3&#45;&gt;10</title>
<path fill="none" stroke="black" d="M600.68,-647.7C542.99,-636.13 467.83,-621.05 412.69,-609.99"/>
<polygon fill="black" stroke="black" points="413.57,-606.6 403.08,-608.06 412.19,-613.46 413.57,-606.6"/>
</g>
<!-- 4 -->
<g id="node5" class="node">
<title>4</title>
<ellipse fill="none" stroke="black" cx="783.95" cy="-162" rx="289.85" ry="18"/>
<text text-anchor="middle" x="783.95" y="-156.95" font-family="Times New Roman,serif" font-size="14.00">Endurance: In other words, it doesn&#39;t mean a thing to *trüe* Revacholians.</text>
</g>
<!-- 5 -->
<g id="node6" class="node">
<title>5</title>
<ellipse fill="none" stroke="black" cx="2190.95" cy="-18" rx="488.44" ry="18"/>
<text text-anchor="middle" x="2190.95" y="-12.95" font-family="Times New Roman,serif" font-size="14.00">Savoir Faire: Whatever kid drew this graffito will get it one day. You just can&#39;t beat FREEDOM and hustle&#45;jiggling all the time.</text>
</g>
<!-- 6 -->
<g id="node7" class="node">
<title>6</title>
<ellipse fill="none" stroke="black" cx="1496.95" cy="-738" rx="196.19" ry="18"/>
<text text-anchor="middle" x="1496.95" y="-732.95" font-family="Times New Roman,serif" font-size="14.00">You: What does it evoke in me? [Finish thought.]</text>
</g>
<!-- 14 -->
<g id="node14" class="node">
<title>14</title>
<ellipse fill="none" stroke="black" cx="1493.95" cy="-666" rx="119.42" ry="18"/>
<text text-anchor="middle" x="1493.95" y="-660.95" font-family="Times New Roman,serif" font-size="14.00">IsTHCPresent(&quot;communist&quot;)</text>
</g>
<!-- 6&#45;&gt;14 -->
<g id="edge5" class="edge">
<title>6&#45;&gt;14</title>
<path fill="none" stroke="black" d="M1496.2,-719.7C1495.89,-712.41 1495.52,-703.73 1495.17,-695.54"/>
<polygon fill="black" stroke="black" points="1498.67,-695.46 1494.74,-685.62 1491.68,-695.76 1498.67,-695.46"/>
</g>
<!-- 7 -->
<g id="node8" class="node">
<title>7</title>
<ellipse fill="none" stroke="black" cx="1856.95" cy="-738" rx="141.43" ry="18"/>
<text text-anchor="middle" x="1856.95" y="-732.95" font-family="Times New Roman,serif" font-size="14.00">You: Why is the star upside down?</text>
</g>
<!-- 9 -->
<g id="node10" class="node">
<title>9</title>
<ellipse fill="none" stroke="black" cx="1856.95" cy="-666" rx="225.88" ry="18"/>
<text text-anchor="middle" x="1856.95" y="-660.95" font-family="Times New Roman,serif" font-size="14.00">Encyclopedia: To symbolize the toppling of the old order.</text>
</g>
<!-- 7&#45;&gt;9 -->
<g id="edge6" class="edge">
<title>7&#45;&gt;9</title>
<path fill="none" stroke="black" d="M1856.95,-719.7C1856.95,-712.41 1856.95,-703.73 1856.95,-695.54"/>
<polygon fill="black" stroke="black" points="1860.45,-695.62 1856.95,-685.62 1853.45,-695.62 1860.45,-695.62"/>
</g>
<!-- 8 -->
<g id="node9" class="node">
<title>8</title>
<ellipse fill="none" stroke="black" cx="1999.95" cy="-1026" rx="128.63" ry="18"/>
<text text-anchor="middle" x="1999.95" y="-1020.95" font-family="Times New Roman,serif" font-size="14.00">You: Inspect the symbol closer.</text>
</g>
<!-- 22 -->
<g id="node22" class="node">
<title>22</title>
<ellipse fill="none" stroke="black" cx="1856.95" cy="-954" rx="629.69" ry="18"/>
<text text-anchor="middle" x="1856.95" y="-948.95" font-family="Times New Roman,serif" font-size="14.00">Encyclopedia: The star&#45;and&#45;antlers was developed in the sixth decade of the last century and quickly adopted by Mazov and the communards during the Revolution...</text>
</g>
<!-- 8&#45;&gt;22 -->
<g id="edge7" class="edge">
<title>8&#45;&gt;22</title>
<path fill="none" stroke="black" d="M1965.69,-1008.23C1946.75,-998.96 1922.97,-987.32 1902.48,-977.29"/>
<polygon fill="black" stroke="black" points="1904.29,-974.28 1893.77,-973.03 1901.21,-980.57 1904.29,-974.28"/>
</g>
<!-- 33 -->
<g id="node33" class="node">
<title>33</title>
<ellipse fill="none" stroke="black" cx="1841.95" cy="-594" rx="256.07" ry="18"/>
<text text-anchor="middle" x="1841.95" y="-588.95" font-family="Times New Roman,serif" font-size="14.00">Encyclopedia: Also, some social democrats were already using it.</text>
</g>
<!-- 9&#45;&gt;33 -->
<g id="edge8" class="edge">
<title>9&#45;&gt;33</title>
<path fill="none" stroke="black" d="M1853.24,-647.7C1851.66,-640.32 1849.77,-631.52 1848,-623.25"/>
<polygon fill="black" stroke="black" points="1851.45,-622.63 1845.93,-613.58 1844.6,-624.1 1851.45,-622.63"/>
</g>
<!-- 34 -->
<g id="node34" class="node">
<title>34</title>
<ellipse fill="none" stroke="black" cx="1856.95" cy="-810" rx="53.4" ry="18"/>
<text text-anchor="middle" x="1856.95" y="-804.95" font-family="Times New Roman,serif" font-size="14.00">commuhub</text>
</g>
<!-- 10&#45;&gt;34 -->
<g id="edge9" class="edge">
<title>10&#45;&gt;34</title>
<path fill="none" stroke="black" d="M244.19,-596.96C157.54,-600.99 37.82,-612.94 7.95,-648 -2.43,-660.18 -2.8,-672.15 7.95,-684 69.21,-751.53 1471.92,-797.48 1792.23,-807.12"/>
<polygon fill="black" stroke="black" points="1791.99,-810.61 1802.09,-807.41 1792.2,-803.61 1791.99,-810.61"/>
</g>
<!-- 11 -->
<g id="node12" class="node">
<title>11</title>
<ellipse fill="none" stroke="black" cx="890.95" cy="-450" rx="278.59" ry="18"/>
<text text-anchor="middle" x="890.95" y="-444.95" font-family="Times New Roman,serif" font-size="14.00">Rhetoric: You are the Big Communism Builder now. It&#39;s you or no one.</text>
</g>
<!-- 12 -->
<g id="node13" class="node">
<title>12</title>
<ellipse fill="none" stroke="black" cx="906.95" cy="-738" rx="152.18" ry="18"/>
<text text-anchor="middle" x="906.95" y="-732.95" font-family="Times New Roman,serif" font-size="14.00">You: What&#39;s the deal with the antlers?</text>
</g>
<!-- 12&#45;&gt;3 -->
<g id="edge10" class="edge">
<title>12&#45;&gt;3</title>
<path fill="none" stroke="black" d="M855.37,-720.59C824.67,-710.82 785.43,-698.34 752.55,-687.87"/>
<polygon fill="black" stroke="black" points="753.69,-684.56 743.1,-684.87 751.57,-691.24 753.69,-684.56"/>
</g>
<!-- 15 -->
<g id="node15" class="node">
<title>15</title>
<polygon fill="none" stroke="black" points="992.95,-612 824.06,-594 992.95,-576 1161.83,-594 992.95,-612"/>
<text text-anchor="middle" x="992.95" y="-588.95" font-family="Times New Roman,serif" font-size="14.00">IsTHCPresent(&quot;communist&quot;)</text>
</g>
<!-- 14&#45;&gt;15 -->
<g id="edge12" class="edge">
<title>14&#45;&gt;15</title>
<path fill="none" stroke="black" d="M1408.39,-653.05C1315.16,-640.02 1167.06,-619.33 1075.17,-606.49"/>
<polygon fill="black" stroke="black" points="1075.86,-603.05 1065.47,-605.13 1074.89,-609.98 1075.86,-603.05"/>
</g>
<!-- 16 -->
<g id="node16" class="node">
<title>16</title>
<polygon fill="none" stroke="black" points="1385.95,-612 1204.03,-594 1385.95,-576 1567.86,-594 1385.95,-612"/>
<text text-anchor="middle" x="1385.95" y="-588.95" font-family="Times New Roman,serif" font-size="14.00">!(IsTHCPresent(&quot;communist&quot;))</text>
</g>
<!-- 14&#45;&gt;16 -->
<g id="edge11" class="edge">
<title>14&#45;&gt;16</title>
<path fill="none" stroke="black" d="M1467.8,-648.05C1453.02,-638.47 1434.39,-626.4 1418.65,-616.2"/>
<polygon fill="black" stroke="black" points="1420.84,-613.45 1410.55,-610.94 1417.03,-619.32 1420.84,-613.45"/>
</g>
<!-- 38 -->
<g id="node38" class="node">
<title>38</title>
<ellipse fill="none" stroke="black" cx="890.95" cy="-522" rx="469.5" ry="18"/>
<text text-anchor="middle" x="890.95" y="-516.95" font-family="Times New Roman,serif" font-size="14.00">Encyclopedia: Gone. Gone is the glory. Of hope, only the scribblings of impoverished students remain. In dirty hallways...</text>
</g>
<!-- 15&#45;&gt;38 -->
<g id="edge13" class="edge">
<title>15&#45;&gt;38</title>
<path fill="none" stroke="black" d="M971.06,-577.98C957.91,-568.95 940.86,-557.26 925.88,-546.97"/>
<polygon fill="black" stroke="black" points="927.86,-544.09 917.64,-541.32 923.9,-549.86 927.86,-544.09"/>
</g>
<!-- 17 -->
<g id="node17" class="node">
<title>17</title>
<ellipse fill="none" stroke="black" cx="1486.95" cy="-522" rx="108.16" ry="18"/>
<text text-anchor="middle" x="1486.95" y="-516.95" font-family="Times New Roman,serif" font-size="14.00">IsTHCPresent(&quot;moralist&quot;)</text>
</g>
<!-- 16&#45;&gt;17 -->
<g id="edge14" class="edge">
<title>16&#45;&gt;17</title>
<path fill="none" stroke="black" d="M1407.86,-577.81C1421.09,-568.64 1438.23,-556.77 1453.16,-546.42"/>
<polygon fill="black" stroke="black" points="1455.13,-549.31 1461.35,-540.74 1451.14,-543.56 1455.13,-549.31"/>
</g>
<!-- 18 -->
<g id="node18" class="node">
<title>18</title>
<polygon fill="none" stroke="black" points="1985.95,-468 1832.98,-450 1985.95,-432 2138.91,-450 1985.95,-468"/>
<text text-anchor="middle" x="1985.95" y="-444.95" font-family="Times New Roman,serif" font-size="14.00">IsTHCPresent(&quot;moralist&quot;)</text>
</g>
<!-- 17&#45;&gt;18 -->
<g id="edge15" class="edge">
<title>17&#45;&gt;18</title>
<path fill="none" stroke="black" d="M1567.67,-509.68C1661.15,-496.56 1814.11,-475.11 1906.87,-462.09"/>
<polygon fill="black" stroke="black" points="1907.24,-465.58 1916.66,-460.72 1906.27,-458.64 1907.24,-465.58"/>
</g>
<!-- 19 -->
<g id="node19" class="node">
<title>19</title>
<polygon fill="none" stroke="black" points="1419.95,-468 1253.95,-450 1419.95,-432 1585.94,-450 1419.95,-468"/>
<text text-anchor="middle" x="1419.95" y="-444.95" font-family="Times New Roman,serif" font-size="14.00">!(IsTHCPresent(&quot;moralist&quot;))</text>
</g>
<!-- 17&#45;&gt;19 -->
<g id="edge16" class="edge">
<title>17&#45;&gt;19</title>
<path fill="none" stroke="black" d="M1470.73,-504.05C1462.34,-495.29 1451.96,-484.45 1442.78,-474.86"/>
<polygon fill="black" stroke="black" points="1445.59,-472.73 1436.14,-467.92 1440.53,-477.57 1445.59,-472.73"/>
</g>
<!-- 39 -->
<g id="node39" class="node">
<title>39</title>
<ellipse fill="none" stroke="black" cx="2099.95" cy="-378" rx="610.25" ry="18"/>
<text text-anchor="middle" x="2099.95" y="-372.95" font-family="Times New Roman,serif" font-size="14.00">Encyclopedia: You see noble aims but also mountains upon mountains of corpses. They should&#39;ve taken a more *measured* approach. Also, you&#39;re really smart.</text>
</g>
<!-- 18&#45;&gt;39 -->
<g id="edge17" class="edge">
<title>18&#45;&gt;39</title>
<path fill="none" stroke="black" d="M2009.84,-434.33C2024.91,-425.08 2044.69,-412.93 2061.88,-402.37"/>
<polygon fill="black" stroke="black" points="2063.67,-405.38 2070.36,-397.17 2060.01,-399.42 2063.67,-405.38"/>
</g>
<!-- 24 -->
<g id="node24" class="node">
<title>24</title>
<ellipse fill="none" stroke="black" cx="1304.95" cy="-378" rx="166.51" ry="18"/>
<text text-anchor="middle" x="1304.95" y="-372.95" font-family="Times New Roman,serif" font-size="14.00">IsTHCPresent(&quot;revacholian_nationhood&quot;)</text>
</g>
<!-- 19&#45;&gt;24 -->
<g id="edge18" class="edge">
<title>19&#45;&gt;24</title>
<path fill="none" stroke="black" d="M1395.56,-434.15C1380.09,-424.74 1359.78,-412.38 1342.31,-401.74"/>
<polygon fill="black" stroke="black" points="1344.6,-399.04 1334.23,-396.83 1340.96,-405.02 1344.6,-399.04"/>
</g>
<!-- 20 -->
<g id="node20" class="node">
<title>20</title>
<ellipse fill="none" stroke="black" cx="2751.95" cy="-882" rx="186.47" ry="18"/>
<text text-anchor="middle" x="2751.95" y="-876.95" font-family="Times New Roman,serif" font-size="14.00">Rhetoric: He doesn&#39;t actually reach for his gun.</text>
</g>
<!-- 40 -->
<g id="node40" class="node">
<title>40</title>
<ellipse fill="none" stroke="black" cx="2632.95" cy="-810" rx="83.6" ry="18"/>
<text text-anchor="middle" x="2632.95" y="-804.95" font-family="Times New Roman,serif" font-size="14.00">Jump to: [first hub]</text>
</g>
<!-- 20&#45;&gt;40 -->
<g id="edge19" class="edge">
<title>20&#45;&gt;40</title>
<path fill="none" stroke="black" d="M2722.84,-863.88C2706.96,-854.54 2687.14,-842.88 2670.15,-832.89"/>
<polygon fill="black" stroke="black" points="2672.23,-830.05 2661.83,-827.99 2668.68,-836.08 2672.23,-830.05"/>
</g>
<!-- 21 -->
<g id="node21" class="node">
<title>21</title>
<ellipse fill="none" stroke="black" cx="2387.95" cy="-1026" rx="99.46" ry="18"/>
<text text-anchor="middle" x="2387.95" y="-1020.95" font-family="Times New Roman,serif" font-size="14.00">You: [Discard thought.]</text>
</g>
<!-- 28 -->
<g id="node28" class="node">
<title>28</title>
<ellipse fill="none" stroke="black" cx="1856.95" cy="-882" rx="547.29" ry="18"/>
<text text-anchor="middle" x="1856.95" y="-876.95" font-family="Times New Roman,serif" font-size="14.00">Encyclopedia: Even today, half a century after, the star&#45;and&#45;antlers retains the ability to evoke hope, disappointment, and fear in equal measure.</text>
</g>
<!-- 22&#45;&gt;28 -->
<g id="edge20" class="edge">
<title>22&#45;&gt;28</title>
<path fill="none" stroke="black" d="M1856.95,-935.7C1856.95,-928.41 1856.95,-919.73 1856.95,-911.54"/>
<polygon fill="black" stroke="black" points="1860.45,-911.62 1856.95,-901.62 1853.45,-911.62 1860.45,-911.62"/>
</g>
<!-- 23 -->
<g id="node23" class="node">
<title>23</title>
<ellipse fill="none" stroke="black" cx="1983.95" cy="-522" rx="94.86" ry="18"/>
<text text-anchor="middle" x="1983.95" y="-516.95" font-family="Times New Roman,serif" font-size="14.00">Jump to: [commuhub]</text>
</g>
<!-- 23&#45;&gt;34 -->
<g id="edge21" class="edge">
<title>23&#45;&gt;34</title>
<path fill="none" stroke="black" d="M2048.48,-535.5C2070.86,-543.26 2093.65,-555.8 2106.95,-576 2133.58,-616.48 2116.72,-642.35 2091.95,-684 2053.51,-748.6 1969.05,-781.57 1912.56,-797.03"/>
<polygon fill="black" stroke="black" points="1911.91,-793.58 1903.13,-799.51 1913.69,-800.35 1911.91,-793.58"/>
</g>
<!-- 25 -->
<g id="node25" class="node">
<title>25</title>
<polygon fill="none" stroke="black" points="878.95,-324 643.47,-306 878.95,-288 1114.42,-306 878.95,-324"/>
<text text-anchor="middle" x="878.95" y="-300.95" font-family="Times New Roman,serif" font-size="14.00">IsTHCPresent(&quot;revacholian_nationhood&quot;)</text>
</g>
<!-- 24&#45;&gt;25 -->
<g id="edge22" class="edge">
<title>24&#45;&gt;25</title>
<path fill="none" stroke="black" d="M1215.9,-362.37C1141.31,-350.11 1035.62,-332.74 962.59,-320.74"/>
<polygon fill="black" stroke="black" points="963.54,-317.35 953.1,-319.19 962.4,-324.26 963.54,-317.35"/>
</g>
<!-- 26 -->
<g id="node26" class="node">
<title>26</title>
<polygon fill="none" stroke="black" points="1428.95,-324 1180.44,-306 1428.95,-288 1677.45,-306 1428.95,-324"/>
<text text-anchor="middle" x="1428.95" y="-300.95" font-family="Times New Roman,serif" font-size="14.00">!(IsTHCPresent(&quot;revacholian_nationhood&quot;))</text>
</g>
<!-- 24&#45;&gt;26 -->
<g id="edge23" class="edge">
<title>24&#45;&gt;26</title>
<path fill="none" stroke="black" d="M1335.28,-359.88C1352.38,-350.22 1373.88,-338.09 1391.96,-327.88"/>
<polygon fill="black" stroke="black" points="1393.57,-330.99 1400.56,-323.02 1390.13,-324.89 1393.57,-330.99"/>
</g>
<!-- 30 -->
<g id="node30" class="node">
<title>30</title>
<ellipse fill="none" stroke="black" cx="783.95" cy="-234" rx="557.02" ry="18"/>
<text text-anchor="middle" x="783.95" y="-228.95" font-family="Times New Roman,serif" font-size="14.00">Encyclopedia: Communism is the ideology of gutless intellectuals and clueless university students. They don&#39;t care about the *real* wörking man.</text>
</g>
<!-- 25&#45;&gt;30 -->
<g id="edge24" class="edge">
<title>25&#45;&gt;30</title>
<path fill="none" stroke="black" d="M857.86,-289.46C845.78,-280.56 830.36,-269.2 816.73,-259.16"/>
<polygon fill="black" stroke="black" points="818.99,-256.47 808.86,-253.36 814.84,-262.11 818.99,-256.47"/>
</g>
<!-- 42 -->
<g id="node42" class="node">
<title>42</title>
<ellipse fill="none" stroke="black" cx="1476.95" cy="-234" rx="117.89" ry="18"/>
<text text-anchor="middle" x="1476.95" y="-228.95" font-family="Times New Roman,serif" font-size="14.00">IsTHCPresent(&quot;ultraliberal&quot;)</text>
</g>
<!-- 26&#45;&gt;42 -->
<g id="edge25" class="edge">
<title>26&#45;&gt;42</title>
<path fill="none" stroke="black" d="M1440.32,-288.41C1445.86,-280.34 1452.65,-270.43 1458.87,-261.35"/>
<polygon fill="black" stroke="black" points="1461.69,-263.43 1464.46,-253.2 1455.92,-259.47 1461.69,-263.43"/>
</g>
<!-- 27 -->
<g id="node27" class="node">
<title>27</title>
<ellipse fill="none" stroke="black" cx="1221.95" cy="-90" rx="319.03" ry="18"/>
<text text-anchor="middle" x="1221.95" y="-84.95" font-family="Times New Roman,serif" font-size="14.00">Encyclopedia: Nothing at all yet. Right now it&#39;s just meaningless shapes on a wall.</text>
</g>
<!-- 28&#45;&gt;34 -->
<g id="edge26" class="edge">
<title>28&#45;&gt;34</title>
<path fill="none" stroke="black" d="M1856.95,-863.7C1856.95,-856.41 1856.95,-847.73 1856.95,-839.54"/>
<polygon fill="black" stroke="black" points="1860.45,-839.62 1856.95,-829.62 1853.45,-839.62 1860.45,-839.62"/>
</g>
<!-- 29 -->
<g id="node29" class="node">
<title>29</title>
<ellipse fill="none" stroke="black" cx="2331.95" cy="-738" rx="76.43" ry="18"/>
<text text-anchor="middle" x="2331.95" y="-732.95" font-family="Times New Roman,serif" font-size="14.00">You: Why white?</text>
</g>
<!-- 29&#45;&gt;2 -->
<g id="edge27" class="edge">
<title>29&#45;&gt;2</title>
<path fill="none" stroke="black" d="M2347.68,-720.05C2355.31,-711.84 2364.64,-701.79 2373.12,-692.66"/>
<polygon fill="black" stroke="black" points="2375.64,-695.09 2379.88,-685.38 2370.51,-690.33 2375.64,-695.09"/>
</g>
<!-- 30&#45;&gt;4 -->
<g id="edge28" class="edge">
<title>30&#45;&gt;4</title>
<path fill="none" stroke="black" d="M783.95,-215.7C783.95,-208.41 783.95,-199.73 783.95,-191.54"/>
<polygon fill="black" stroke="black" points="787.45,-191.62 783.95,-181.62 780.45,-191.62 787.45,-191.62"/>
</g>
<!-- 31 -->
<g id="node31" class="node">
<title>31</title>
<ellipse fill="none" stroke="black" cx="2099.95" cy="-306" rx="281.67" ry="18"/>
<text text-anchor="middle" x="2099.95" y="-300.95" font-family="Times New Roman,serif" font-size="14.00">Rhetoric: The price of idealism unrestrained by humanism. Never again.</text>
</g>
<!-- 32 -->
<g id="node32" class="node">
<title>32</title>
<ellipse fill="none" stroke="black" cx="2775.95" cy="-1026" rx="232.53" ry="18"/>
<text text-anchor="middle" x="2775.95" y="-1020.95" font-family="Times New Roman,serif" font-size="14.00">You: &quot;Look out, Kim: There are communists around here.&quot;</text>
</g>
<!-- 37 -->
<g id="node37" class="node">
<title>37</title>
<ellipse fill="none" stroke="black" cx="2772.95" cy="-954" rx="226.9" ry="18"/>
<text text-anchor="middle" x="2772.95" y="-948.95" font-family="Times New Roman,serif" font-size="14.00">Kim Kitsuragi: &quot;I&#39;ll keep my Armistice handy, detective.&quot;</text>
</g>
<!-- 32&#45;&gt;37 -->
<g id="edge29" class="edge">
<title>32&#45;&gt;37</title>
<path fill="none" stroke="black" d="M2775.2,-1007.7C2774.89,-1000.41 2774.52,-991.73 2774.17,-983.54"/>
<polygon fill="black" stroke="black" points="2777.67,-983.46 2773.74,-973.62 2770.68,-983.76 2777.67,-983.46"/>
</g>
<!-- 33&#45;&gt;23 -->
<g id="edge30" class="edge">
<title>33&#45;&gt;23</title>
<path fill="none" stroke="black" d="M1877.05,-575.7C1896.35,-566.18 1920.46,-554.3 1940.89,-544.22"/>
<polygon fill="black" stroke="black" points="1942.42,-547.37 1949.84,-539.81 1939.32,-541.1 1942.42,-547.37"/>
</g>
<!-- 34&#45;&gt;6 -->
<g id="edge33" class="edge">
<title>34&#45;&gt;6</title>
<path fill="none" stroke="black" d="M1811.35,-800.13C1755.77,-789.33 1660.46,-770.79 1589.31,-756.96"/>
<polygon fill="black" stroke="black" points="1590.08,-753.54 1579.59,-755.07 1588.74,-760.41 1590.08,-753.54"/>
</g>
<!-- 34&#45;&gt;7 -->
<g id="edge34" class="edge">
<title>34&#45;&gt;7</title>
<path fill="none" stroke="black" d="M1856.95,-791.7C1856.95,-784.41 1856.95,-775.73 1856.95,-767.54"/>
<polygon fill="black" stroke="black" points="1860.45,-767.62 1856.95,-757.62 1853.45,-767.62 1860.45,-767.62"/>
</g>
<!-- 34&#45;&gt;12 -->
<g id="edge31" class="edge">
<title>34&#45;&gt;12</title>
<path fill="none" stroke="black" d="M1805.2,-805.19C1662.36,-794.66 1259.04,-764.94 1044.75,-749.15"/>
<polygon fill="black" stroke="black" points="1045.18,-745.68 1034.95,-748.43 1044.66,-752.66 1045.18,-745.68"/>
</g>
<!-- 34&#45;&gt;29 -->
<g id="edge32" class="edge">
<title>34&#45;&gt;29</title>
<path fill="none" stroke="black" d="M1905.11,-801.9C1988.03,-789.68 2158.34,-764.58 2256.92,-750.06"/>
<polygon fill="black" stroke="black" points="2257.4,-753.52 2266.78,-748.6 2256.38,-746.6 2257.4,-753.52"/>
</g>
<!-- 35&#45;&gt;34 -->
<g id="edge35" class="edge">
<title>35&#45;&gt;34</title>
<path fill="none" stroke="black" d="M2258.17,-607.5C2232.05,-615.35 2203.33,-627.96 2182.95,-648 2146.1,-684.22 2179.84,-723.17 2139.95,-756 2107.15,-782.98 1993.23,-797.49 1920.31,-804.2"/>
<polygon fill="black" stroke="black" points="1920.13,-800.71 1910.48,-805.08 1920.76,-807.68 1920.13,-800.71"/>
</g>
<!-- 36 -->
<g id="node36" class="node">
<title>36</title>
<ellipse fill="none" stroke="black" cx="2450.95" cy="-1098" rx="42.14" ry="18"/>
<text text-anchor="middle" x="2450.95" y="-1092.95" font-family="Times New Roman,serif" font-size="14.00">first hub</text>
</g>
<!-- 36&#45;&gt;8 -->
<g id="edge37" class="edge">
<title>36&#45;&gt;8</title>
<path fill="none" stroke="black" d="M2411.71,-1090.91C2341.65,-1080.04 2193.2,-1056.99 2095.02,-1041.76"/>
<polygon fill="black" stroke="black" points="2095.81,-1038.34 2085.39,-1040.26 2094.74,-1045.25 2095.81,-1038.34"/>
</g>
<!-- 36&#45;&gt;21 -->
<g id="edge38" class="edge">
<title>36&#45;&gt;21</title>
<path fill="none" stroke="black" d="M2436.33,-1080.76C2428.76,-1072.35 2419.35,-1061.89 2410.84,-1052.44"/>
<polygon fill="black" stroke="black" points="2413.66,-1050.34 2404.37,-1045.25 2408.46,-1055.02 2413.66,-1050.34"/>
</g>
<!-- 36&#45;&gt;32 -->
<g id="edge36" class="edge">
<title>36&#45;&gt;32</title>
<path fill="none" stroke="black" d="M2487.91,-1089.04C2536.35,-1078.61 2622.84,-1059.98 2688.45,-1045.85"/>
<polygon fill="black" stroke="black" points="2689.09,-1049.29 2698.13,-1043.76 2687.62,-1042.44 2689.09,-1049.29"/>
</g>
<!-- 37&#45;&gt;20 -->
<g id="edge39" class="edge">
<title>37&#45;&gt;20</title>
<path fill="none" stroke="black" d="M2767.76,-935.7C2765.52,-928.24 2762.84,-919.32 2760.34,-910.97"/>
<polygon fill="black" stroke="black" points="2763.74,-910.13 2757.51,-901.55 2757.03,-912.14 2763.74,-910.13"/>
</g>
<!-- 38&#45;&gt;11 -->
<g id="edge40" class="edge">
<title>38&#45;&gt;11</title>
<path fill="none" stroke="black" d="M890.95,-503.7C890.95,-496.41 890.95,-487.73 890.95,-479.54"/>
<polygon fill="black" stroke="black" points="894.45,-479.62 890.95,-469.62 887.45,-479.62 894.45,-479.62"/>
</g>
<!-- 39&#45;&gt;31 -->
<g id="edge41" class="edge">
<title>39&#45;&gt;31</title>
<path fill="none" stroke="black" d="M2099.95,-359.7C2099.95,-352.41 2099.95,-343.73 2099.95,-335.54"/>
<polygon fill="black" stroke="black" points="2103.45,-335.62 2099.95,-325.62 2096.45,-335.62 2103.45,-335.62"/>
</g>
<!-- 40&#45;&gt;36 -->
<g id="edge42" class="edge">
<title>40&#45;&gt;36</title>
<path fill="none" stroke="black" d="M2601.21,-826.91C2585.96,-835.96 2568.54,-848.57 2556.95,-864 2506.21,-931.54 2537.58,-970.5 2495.95,-1044 2490.21,-1054.13 2482.4,-1064.16 2474.9,-1072.71"/>
<polygon fill="black" stroke="black" points="2472.48,-1070.18 2468.32,-1079.93 2477.65,-1074.9 2472.48,-1070.18"/>
</g>
<!-- 41&#45;&gt;36 -->
<g id="edge43" class="edge">
<title>41&#45;&gt;36</title>
<path fill="none" stroke="black" d="M2450.95,-1151.7C2450.95,-1144.41 2450.95,-1135.73 2450.95,-1127.54"/>
<polygon fill="black" stroke="black" points="2454.45,-1127.62 2450.95,-1117.62 2447.45,-1127.62 2454.45,-1127.62"/>
</g>
<!-- 43 -->
<g id="node43" class="node">
<title>43</title>
<polygon fill="none" stroke="black" points="2039.95,-180 1873.23,-162 2039.95,-144 2206.66,-162 2039.95,-180"/>
<text text-anchor="middle" x="2039.95" y="-156.95" font-family="Times New Roman,serif" font-size="14.00">IsTHCPresent(&quot;ultraliberal&quot;)</text>
</g>
<!-- 42&#45;&gt;43 -->
<g id="edge44" class="edge">
<title>42&#45;&gt;43</title>
<path fill="none" stroke="black" d="M1566.16,-221.91C1672.36,-208.7 1848.5,-186.8 1953.48,-173.75"/>
<polygon fill="black" stroke="black" points="1953.67,-177.25 1963.17,-172.55 1952.81,-170.31 1953.67,-177.25"/>
</g>
<!-- 44 -->
<g id="node44" class="node">
<title>44</title>
<polygon fill="none" stroke="black" points="1373.95,-180 1194.2,-162 1373.95,-144 1553.69,-162 1373.95,-180"/>
<text text-anchor="middle" x="1373.95" y="-156.95" font-family="Times New Roman,serif" font-size="14.00">!(IsTHCPresent(&quot;ultraliberal&quot;))</text>
</g>
<!-- 42&#45;&gt;44 -->
<g id="edge45" class="edge">
<title>42&#45;&gt;44</title>
<path fill="none" stroke="black" d="M1452.01,-216.05C1438.04,-206.56 1420.49,-194.63 1405.56,-184.49"/>
<polygon fill="black" stroke="black" points="1407.69,-181.7 1397.45,-178.97 1403.75,-187.49 1407.69,-181.7"/>
</g>
<!-- 45 -->
<g id="node45" class="node">
<title>45</title>
<ellipse fill="none" stroke="black" cx="2190.95" cy="-90" rx="631.74" ry="18"/>
<text text-anchor="middle" x="2190.95" y="-84.95" font-family="Times New Roman,serif" font-size="14.00">Encyclopedia: Smug superiority? Esthetic musings? The triumph of Capital is undeniable, but... maybe the guns were sort of cool? Revolutionaries had loads of guns.</text>
</g>
<!-- 43&#45;&gt;45 -->
<g id="edge46" class="edge">
<title>43&#45;&gt;45</title>
<path fill="none" stroke="black" d="M2070.5,-146.83C2091.37,-137.16 2119.44,-124.15 2143.24,-113.12"/>
<polygon fill="black" stroke="black" points="2144.51,-116.39 2152.11,-109 2141.56,-110.04 2144.51,-116.39"/>
</g>
<!-- 44&#45;&gt;27 -->
<g id="edge47" class="edge">
<title>44&#45;&gt;27</title>
<path fill="none" stroke="black" d="M1342.82,-146.67C1321.79,-136.98 1293.61,-124 1269.75,-113.02"/>
<polygon fill="black" stroke="black" points="1271.4,-109.92 1260.86,-108.92 1268.48,-116.28 1271.4,-109.92"/>
</g>
<!-- 45&#45;&gt;5 -->
<g id="edge48" class="edge">
<title>45&#45;&gt;5</title>
<path fill="none" stroke="black" d="M2190.95,-71.7C2190.95,-64.41 2190.95,-55.73 2190.95,-47.54"/>
<polygon fill="black" stroke="black" points="2194.45,-47.62 2190.95,-37.62 2187.45,-47.62 2194.45,-47.62"/>
</g>
</g>
</svg>
