<?xml version="1.0" encoding="UTF-8" standalone="no"?>
<!DOCTYPE svg PUBLIC "-//W3C//DTD SVG 1.1//EN"
 "http://www.w3.org/Graphics/SVG/1.1/DTD/svg11.dtd">
<!-- Generated by graphviz version 12.2.1 (20241206.2353)
 -->
<!-- Title: G Pages: 1 -->
<svg width="1641pt" height="188pt"
 viewBox="0.00 0.00 1640.80 188.00" xmlns="http://www.w3.org/2000/svg" xmlns:xlink="http://www.w3.org/1999/xlink">
<g id="graph0" class="graph" transform="scale(1 1) rotate(0) translate(4 184)">
<title>G</title>
<polygon fill="white" stroke="none" points="-4,4 -4,-184 1636.8,-184 1636.8,4 -4,4"/>
<!-- 0 -->
<g id="node1" class="node">
<title>0</title>
<ellipse fill="none" stroke="black" cx="1079.92" cy="-162" rx="39.07" ry="18"/>
<text text-anchor="middle" x="1079.92" y="-156.95" font-family="Times New Roman,serif" font-size="14.00">START</text>
</g>
<!-- 1 -->
<g id="node2" class="node">
<title>1</title>
<ellipse fill="none" stroke="black" cx="1079.92" cy="-90" rx="29.86" ry="18"/>
<text text-anchor="middle" x="1079.92" y="-84.95" font-family="Times New Roman,serif" font-size="14.00">input</text>
</g>
<!-- 0&#45;&gt;1 -->
<g id="edge1" class="edge">
<title>0&#45;&gt;1</title>
<path fill="none" stroke="black" d="M1079.92,-143.7C1079.92,-136.41 1079.92,-127.73 1079.92,-119.54"/>
<polygon fill="black" stroke="black" points="1083.42,-119.62 1079.92,-109.62 1076.42,-119.62 1083.42,-119.62"/>
</g>
<!-- 3 -->
<g id="node4" class="node">
<title>3</title>
<ellipse fill="none" stroke="black" cx="335.92" cy="-18" rx="335.92" ry="18"/>
<text text-anchor="middle" x="335.92" y="-12.95" font-family="Times New Roman,serif" font-size="14.00">Morell, the Cryptozoologist: &quot;How about rekindling that camp fire so we can dry off?&quot;</text>
</g>
<!-- 1&#45;&gt;3 -->
<g id="edge2" class="edge">
<title>1&#45;&gt;3</title>
<path fill="none" stroke="black" d="M1050.29,-86.21C961.08,-77.82 689.97,-52.31 508.59,-35.25"/>
<polygon fill="black" stroke="black" points="509.11,-31.78 498.82,-34.33 508.45,-38.75 509.11,-31.78"/>
</g>
<!-- 4 -->
<g id="node5" class="node">
<title>4</title>
<ellipse fill="none" stroke="black" cx="1079.92" cy="-18" rx="390.17" ry="18"/>
<text text-anchor="middle" x="1079.92" y="-12.95" font-family="Times New Roman,serif" font-size="14.00">Morell, the Cryptozoologist: &quot;Don&#39;t you remember that method I showed you back in... never mind.&quot;</text>
</g>
<!-- 1&#45;&gt;4 -->
<g id="edge3" class="edge">
<title>1&#45;&gt;4</title>
<path fill="none" stroke="black" d="M1079.92,-71.7C1079.92,-64.41 1079.92,-55.73 1079.92,-47.54"/>
<polygon fill="black" stroke="black" points="1083.42,-47.62 1079.92,-37.62 1076.42,-47.62 1083.42,-47.62"/>
</g>
<!-- 5 -->
<g id="node6" class="node">
<title>5</title>
<ellipse fill="none" stroke="black" cx="1514.92" cy="-18" rx="27" ry="18"/>
<text text-anchor="middle" x="1514.92" y="-12.95" font-family="Times New Roman,serif" font-size="14.00">5</text>
</g>
<!-- 1&#45;&gt;5 -->
<g id="edge4" class="edge">
<title>1&#45;&gt;5</title>
<path fill="none" stroke="black" d="M1110.1,-88.15C1177.58,-85.58 1345.19,-75.41 1478.92,-36 1480.53,-35.52 1482.17,-34.98 1483.8,-34.4"/>
<polygon fill="black" stroke="black" points="1485.1,-37.65 1493.01,-30.59 1482.43,-31.18 1485.1,-37.65"/>
</g>
<!-- 2 -->
<g id="node3" class="node">
<title>2</title>
<ellipse fill="none" stroke="black" cx="1384.92" cy="-162" rx="247.89" ry="18"/>
<text text-anchor="middle" x="1384.92" y="-156.95" font-family="Times New Roman,serif" font-size="14.00">Morell, the Cryptozoologist: &quot;Gary, what are you doing there?&quot;</text>
</g>
</g>
</svg>
