<?xml version="1.0" encoding="UTF-8" standalone="no"?>
<!DOCTYPE svg PUBLIC "-//W3C//DTD SVG 1.1//EN"
 "http://www.w3.org/Graphics/SVG/1.1/DTD/svg11.dtd">
<!-- Generated by graphviz version 12.2.1 (20241206.2353)
 -->
<!-- Title: G Pages: 1 -->
<svg width="1590pt" height="188pt"
 viewBox="0.00 0.00 1590.17 188.00" xmlns="http://www.w3.org/2000/svg" xmlns:xlink="http://www.w3.org/1999/xlink">
<g id="graph0" class="graph" transform="scale(1 1) rotate(0) translate(4 184)">
<title>G</title>
<polygon fill="white" stroke="none" points="-4,4 -4,-184 1586.17,-184 1586.17,4 -4,4"/>
<!-- 0 -->
<g id="node1" class="node">
<title>0</title>
<ellipse fill="none" stroke="black" cx="799.13" cy="-162" rx="39.07" ry="18"/>
<text text-anchor="middle" x="799.13" y="-156.95" font-family="Times New Roman,serif" font-size="14.00">START</text>
</g>
<!-- 1 -->
<g id="node2" class="node">
<title>1</title>
<ellipse fill="none" stroke="black" cx="799.13" cy="-90" rx="29.86" ry="18"/>
<text text-anchor="middle" x="799.13" y="-84.95" font-family="Times New Roman,serif" font-size="14.00">input</text>
</g>
<!-- 0&#45;&gt;1 -->
<g id="edge1" class="edge">
<title>0&#45;&gt;1</title>
<path fill="none" stroke="black" d="M799.13,-143.7C799.13,-136.41 799.13,-127.73 799.13,-119.54"/>
<polygon fill="black" stroke="black" points="802.63,-119.62 799.13,-109.62 795.63,-119.62 802.63,-119.62"/>
</g>
<!-- 3 -->
<g id="node4" class="node">
<title>3</title>
<ellipse fill="none" stroke="black" cx="215.13" cy="-18" rx="215.13" ry="18"/>
<text text-anchor="middle" x="215.13" y="-12.95" font-family="Times New Roman,serif" font-size="14.00">Gary, the Cryptofascist: &quot;But everything&#39;s so... moist.&quot;</text>
</g>
<!-- 1&#45;&gt;3 -->
<g id="edge2" class="edge">
<title>1&#45;&gt;3</title>
<path fill="none" stroke="black" d="M769.77,-85.48C693.31,-76.32 484.4,-51.28 345.93,-34.68"/>
<polygon fill="black" stroke="black" points="346.69,-31.24 336.34,-33.53 345.85,-38.19 346.69,-31.24"/>
</g>
<!-- 4 -->
<g id="node5" class="node">
<title>4</title>
<ellipse fill="none" stroke="black" cx="799.13" cy="-18" rx="351.27" ry="18"/>
<text text-anchor="middle" x="799.13" y="-12.95" font-family="Times New Roman,serif" font-size="14.00">Gary, the Cryptofascist: &quot;I&#39;d take a bullet for you, but I won&#39;t spend another hour out here.&quot;</text>
</g>
<!-- 1&#45;&gt;4 -->
<g id="edge3" class="edge">
<title>1&#45;&gt;4</title>
<path fill="none" stroke="black" d="M799.13,-71.7C799.13,-64.41 799.13,-55.73 799.13,-47.54"/>
<polygon fill="black" stroke="black" points="802.63,-47.62 799.13,-37.62 795.63,-47.62 802.63,-47.62"/>
</g>
<!-- 5 -->
<g id="node6" class="node">
<title>5</title>
<ellipse fill="none" stroke="black" cx="1195.13" cy="-18" rx="27" ry="18"/>
<text text-anchor="middle" x="1195.13" y="-12.95" font-family="Times New Roman,serif" font-size="14.00">5</text>
</g>
<!-- 1&#45;&gt;5 -->
<g id="edge4" class="edge">
<title>1&#45;&gt;5</title>
<path fill="none" stroke="black" d="M829.18,-87.57C891.79,-83.93 1040.31,-71.93 1159.13,-36 1160.74,-35.51 1162.37,-34.96 1164.01,-34.37"/>
<polygon fill="black" stroke="black" points="1165.32,-37.62 1173.21,-30.54 1162.63,-31.15 1165.32,-37.62"/>
</g>
<!-- 2 -->
<g id="node3" class="node">
<title>2</title>
<ellipse fill="none" stroke="black" cx="1219.13" cy="-162" rx="363.04" ry="18"/>
<text text-anchor="middle" x="1219.13" y="-156.95" font-family="Times New Roman,serif" font-size="14.00">Gary, the Cryptofascist: &quot;Seeing if there are any signs of phasmid activity. And taking a leak.&quot;</text>
</g>
</g>
</svg>
