<?xml version="1.0" encoding="UTF-8" standalone="no"?>
<!DOCTYPE svg PUBLIC "-//W3C//DTD SVG 1.1//EN"
 "http://www.w3.org/Graphics/SVG/1.1/DTD/svg11.dtd">
<!-- Generated by graphviz version 12.2.1 (20241206.2353)
 -->
<!-- Title: G Pages: 1 -->
<svg width="2876pt" height="188pt"
 viewBox="0.00 0.00 2876.27 188.00" xmlns="http://www.w3.org/2000/svg" xmlns:xlink="http://www.w3.org/1999/xlink">
<g id="graph0" class="graph" transform="scale(1 1) rotate(0) translate(4 184)">
<title>G</title>
<polygon fill="white" stroke="none" points="-4,4 -4,-184 2872.27,-184 2872.27,4 -4,4"/>
<!-- 0 -->
<g id="node1" class="node">
<title>0</title>
<ellipse fill="none" stroke="black" cx="1431.42" cy="-162" rx="39.07" ry="18"/>
<text text-anchor="middle" x="1431.42" y="-156.95" font-family="Times New Roman,serif" font-size="14.00">START</text>
</g>
<!-- 1 -->
<g id="node2" class="node">
<title>1</title>
<ellipse fill="none" stroke="black" cx="1431.42" cy="-90" rx="29.86" ry="18"/>
<text text-anchor="middle" x="1431.42" y="-84.95" font-family="Times New Roman,serif" font-size="14.00">input</text>
</g>
<!-- 0&#45;&gt;1 -->
<g id="edge1" class="edge">
<title>0&#45;&gt;1</title>
<path fill="none" stroke="black" d="M1431.42,-143.7C1431.42,-136.41 1431.42,-127.73 1431.42,-119.54"/>
<polygon fill="black" stroke="black" points="1434.92,-119.62 1431.42,-109.62 1427.92,-119.62 1434.92,-119.62"/>
</g>
<!-- 2 -->
<g id="node3" class="node">
<title>2</title>
<ellipse fill="none" stroke="black" cx="184.42" cy="-18" rx="184.42" ry="18"/>
<text text-anchor="middle" x="184.42" y="-12.95" font-family="Times New Roman,serif" font-size="14.00">Shanky: &quot;Did you fucking shit in your boots?&quot;</text>
</g>
<!-- 1&#45;&gt;2 -->
<g id="edge2" class="edge">
<title>1&#45;&gt;2</title>
<path fill="none" stroke="black" d="M1401.64,-87.91C1276.71,-83.27 782.74,-64.03 377.42,-36 360.7,-34.84 343.17,-33.49 325.79,-32.07"/>
<polygon fill="black" stroke="black" points="326.16,-28.59 315.91,-31.25 325.58,-35.56 326.16,-28.59"/>
</g>
<!-- 4 -->
<g id="node4" class="node">
<title>4</title>
<ellipse fill="none" stroke="black" cx="559.42" cy="-18" rx="172.65" ry="18"/>
<text text-anchor="middle" x="559.42" y="-12.95" font-family="Times New Roman,serif" font-size="14.00">Shanky: &quot;Funny how your sis didn&#39;t get it.&quot;</text>
</g>
<!-- 1&#45;&gt;4 -->
<g id="edge3" class="edge">
<title>1&#45;&gt;4</title>
<path fill="none" stroke="black" d="M1401.82,-86.9C1306.2,-80.09 997.01,-57.75 741.42,-36 726.28,-34.71 710.44,-33.31 694.69,-31.88"/>
<polygon fill="black" stroke="black" points="695.03,-28.4 684.75,-30.98 694.39,-35.37 695.03,-28.4"/>
</g>
<!-- 5 -->
<g id="node5" class="node">
<title>5</title>
<ellipse fill="none" stroke="black" cx="906.42" cy="-18" rx="156.27" ry="18"/>
<text text-anchor="middle" x="906.42" y="-12.95" font-family="Times New Roman,serif" font-size="14.00">Shanky: &quot;The big boss has it covered.&quot;</text>
</g>
<!-- 1&#45;&gt;5 -->
<g id="edge4" class="edge">
<title>1&#45;&gt;5</title>
<path fill="none" stroke="black" d="M1402.45,-85.14C1330.37,-75.53 1139.99,-50.14 1017.15,-33.76"/>
<polygon fill="black" stroke="black" points="1017.72,-30.31 1007.34,-32.46 1016.79,-37.25 1017.72,-30.31"/>
</g>
<!-- 6 -->
<g id="node6" class="node">
<title>6</title>
<ellipse fill="none" stroke="black" cx="1247.42" cy="-18" rx="166.51" ry="18"/>
<text text-anchor="middle" x="1247.42" y="-12.95" font-family="Times New Roman,serif" font-size="14.00">Shanky: &quot;Play a round of biscuit, Angie!&quot;</text>
</g>
<!-- 1&#45;&gt;6 -->
<g id="edge5" class="edge">
<title>1&#45;&gt;6</title>
<path fill="none" stroke="black" d="M1406.61,-79.56C1379.94,-69.41 1336.71,-52.97 1302.02,-39.77"/>
<polygon fill="black" stroke="black" points="1303.57,-36.61 1292.97,-36.33 1301.08,-43.16 1303.57,-36.61"/>
</g>
<!-- 7 -->
<g id="node7" class="node">
<title>7</title>
<ellipse fill="none" stroke="black" cx="1615.42" cy="-18" rx="183.91" ry="18"/>
<text text-anchor="middle" x="1615.42" y="-12.95" font-family="Times New Roman,serif" font-size="14.00">Shanky: &quot;Fuck it, I&#39;m seeing Monica tonight.&quot;</text>
</g>
<!-- 1&#45;&gt;7 -->
<g id="edge6" class="edge">
<title>1&#45;&gt;7</title>
<path fill="none" stroke="black" d="M1456.24,-79.56C1482.82,-69.45 1525.85,-53.08 1560.47,-39.9"/>
<polygon fill="black" stroke="black" points="1561.41,-43.29 1569.51,-36.47 1558.92,-36.75 1561.41,-43.29"/>
</g>
<!-- 8 -->
<g id="node8" class="node">
<title>8</title>
<ellipse fill="none" stroke="black" cx="1975.42" cy="-18" rx="158.32" ry="18"/>
<text text-anchor="middle" x="1975.42" y="-12.95" font-family="Times New Roman,serif" font-size="14.00">Shanky: &quot;Tell it to the bossman, bozo.&quot;</text>
</g>
<!-- 1&#45;&gt;8 -->
<g id="edge7" class="edge">
<title>1&#45;&gt;8</title>
<path fill="none" stroke="black" d="M1460.67,-85.24C1535.01,-75.67 1734.32,-50.02 1862,-33.59"/>
<polygon fill="black" stroke="black" points="1862.39,-37.07 1871.86,-32.33 1861.49,-30.13 1862.39,-37.07"/>
</g>
<!-- 9 -->
<g id="node9" class="node">
<title>9</title>
<ellipse fill="none" stroke="black" cx="2298.42" cy="-18" rx="146.55" ry="18"/>
<text text-anchor="middle" x="2298.42" y="-12.95" font-family="Times New Roman,serif" font-size="14.00">Shanky: &quot;Your fucking feet, man...&quot;</text>
</g>
<!-- 1&#45;&gt;9 -->
<g id="edge8" class="edge">
<title>1&#45;&gt;9</title>
<path fill="none" stroke="black" d="M1461.25,-87.14C1559.03,-80.98 1878.64,-60.2 2142.42,-36 2155.35,-34.81 2168.87,-33.48 2182.32,-32.1"/>
<polygon fill="black" stroke="black" points="2182.49,-35.6 2192.07,-31.08 2181.76,-28.63 2182.49,-35.6"/>
</g>
<!-- 10 -->
<g id="node10" class="node">
<title>10</title>
<ellipse fill="none" stroke="black" cx="2665.42" cy="-18" rx="202.85" ry="18"/>
<text text-anchor="middle" x="2665.42" y="-12.95" font-family="Times New Roman,serif" font-size="14.00">Shanky: &quot;Goddamn bindlestiffs waltzing in here...&quot;</text>
</g>
<!-- 1&#45;&gt;10 -->
<g id="edge9" class="edge">
<title>1&#45;&gt;10</title>
<path fill="none" stroke="black" d="M1461.15,-87.77C1583.71,-82.64 2061.8,-61.98 2454.42,-36 2472.65,-34.79 2491.76,-33.41 2510.71,-31.98"/>
<polygon fill="black" stroke="black" points="2510.96,-35.47 2520.66,-31.21 2510.42,-28.49 2510.96,-35.47"/>
</g>
</g>
</svg>
