<?xml version="1.0" encoding="UTF-8" standalone="no"?>
<!DOCTYPE svg PUBLIC "-//W3C//DTD SVG 1.1//EN"
 "http://www.w3.org/Graphics/SVG/1.1/DTD/svg11.dtd">
<!-- Generated by graphviz version 12.2.1 (20241206.2353)
 -->
<!-- Title: G Pages: 1 -->
<svg width="3338pt" height="332pt"
 viewBox="0.00 0.00 3338.23 332.00" xmlns="http://www.w3.org/2000/svg" xmlns:xlink="http://www.w3.org/1999/xlink">
<g id="graph0" class="graph" transform="scale(1 1) rotate(0) translate(4 328)">
<title>G</title>
<polygon fill="white" stroke="none" points="-4,4 -4,-328 3334.23,-328 3334.23,4 -4,4"/>
<!-- 0 -->
<g id="node1" class="node">
<title>0</title>
<ellipse fill="none" stroke="black" cx="464.3" cy="-306" rx="39.07" ry="18"/>
<text text-anchor="middle" x="464.3" y="-300.95" font-family="Times New Roman,serif" font-size="14.00">START</text>
</g>
<!-- 0&#45;&gt;0 -->
<g id="edge1" class="edge">
<title>0&#45;&gt;0</title>
<path fill="none" stroke="black" d="M492.49,-318.94C507.6,-321.14 521.37,-316.83 521.37,-306 521.37,-297.96 513.79,-293.52 503.7,-292.65"/>
<polygon fill="black" stroke="black" points="503.87,-289.15 494,-293 504.12,-296.14 503.87,-289.15"/>
</g>
<!-- 1 -->
<g id="node2" class="node">
<title>1</title>
<ellipse fill="none" stroke="black" cx="569.3" cy="-306" rx="29.86" ry="18"/>
<text text-anchor="middle" x="569.3" y="-300.95" font-family="Times New Roman,serif" font-size="14.00">input</text>
</g>
<!-- 6 -->
<g id="node7" class="node">
<title>6</title>
<ellipse fill="none" stroke="black" cx="569.3" cy="-234" rx="569.3" ry="18"/>
<text text-anchor="middle" x="569.3" y="-228.95" font-family="Times New Roman,serif" font-size="14.00">Encyclopedia: The theme on that pinball machine is a standard *royalist* theme &#45;&#45; used on everything from pinball cabinets to full&#45;flavour cigarettes.</text>
</g>
<!-- 1&#45;&gt;6 -->
<g id="edge2" class="edge">
<title>1&#45;&gt;6</title>
<path fill="none" stroke="black" d="M563.42,-288.05C562.64,-280.68 562.39,-271.84 562.66,-263.51"/>
<polygon fill="black" stroke="black" points="566.13,-263.99 563.29,-253.79 559.15,-263.54 566.13,-263.99"/>
</g>
<!-- 2 -->
<g id="node3" class="node">
<title>2</title>
<ellipse fill="none" stroke="black" cx="569.3" cy="-90" rx="99.46" ry="18"/>
<text text-anchor="middle" x="569.3" y="-84.95" font-family="Times New Roman,serif" font-size="14.00">You: [Discard thought.]</text>
</g>
<!-- 3 -->
<g id="node4" class="node">
<title>3</title>
<ellipse fill="none" stroke="black" cx="1500.3" cy="-306" rx="883.55" ry="18"/>
<text text-anchor="middle" x="1500.3" y="-300.95" font-family="Times New Roman,serif" font-size="14.00">Encyclopedia: Clinging to a picture&#45;book version of the past century, waiting for the King to come back and cast out all the profiteers and homo&#45;sexuals. Basically, imagine a yellow plastic crown with a liquor brand emblazoned on it.</text>
</g>
<!-- 3&#45;&gt;3 -->
<g id="edge4" class="edge">
<title>3&#45;&gt;3</title>
<path fill="none" stroke="black" d="M2109.17,-319.41C2275.23,-318.73 2401.85,-314.26 2401.85,-306 2401.85,-297.92 2280.86,-293.47 2120.3,-292.64"/>
<polygon fill="black" stroke="black" points="2120.7,-289.14 2110.69,-292.6 2120.67,-296.14 2120.7,-289.14"/>
</g>
<!-- 7 -->
<g id="node8" class="node">
<title>7</title>
<ellipse fill="none" stroke="black" cx="1435.3" cy="-90" rx="250.44" ry="18"/>
<text text-anchor="middle" x="1435.3" y="-84.95" font-family="Times New Roman,serif" font-size="14.00">You: The idea of a king and a century gone is pretty fascinating.</text>
</g>
<!-- 3&#45;&gt;7 -->
<g id="edge5" class="edge">
<title>3&#45;&gt;7</title>
<path fill="none" stroke="black" d="M1368.25,-287.81C1303.51,-271.69 1231.94,-240.47 1196.3,-180 1173.16,-140.73 1207.28,-118.65 1256.35,-106.29"/>
<polygon fill="black" stroke="black" points="1256.96,-109.74 1265.9,-104.06 1255.37,-102.92 1256.96,-109.74"/>
</g>
<!-- 8 -->
<g id="node9" class="node">
<title>8</title>
<ellipse fill="none" stroke="black" cx="1500.3" cy="-234" rx="165.48" ry="18"/>
<text text-anchor="middle" x="1500.3" y="-228.95" font-family="Times New Roman,serif" font-size="14.00">You: Wait! Where do I get such a crown?</text>
</g>
<!-- 3&#45;&gt;8 -->
<g id="edge3" class="edge">
<title>3&#45;&gt;8</title>
<path fill="none" stroke="black" d="M1500.3,-287.7C1500.3,-280.41 1500.3,-271.73 1500.3,-263.54"/>
<polygon fill="black" stroke="black" points="1503.8,-263.62 1500.3,-253.62 1496.8,-263.62 1503.8,-263.62"/>
</g>
<!-- 4 -->
<g id="node5" class="node">
<title>4</title>
<ellipse fill="none" stroke="black" cx="2625.3" cy="-306" rx="205.92" ry="18"/>
<text text-anchor="middle" x="2625.3" y="-300.95" font-family="Times New Roman,serif" font-size="14.00">You: I&#39;d rather know more about the world of today.</text>
</g>
<!-- 11 -->
<g id="node12" class="node">
<title>11</title>
<ellipse fill="none" stroke="black" cx="2625.3" cy="-234" rx="704.93" ry="18"/>
<text text-anchor="middle" x="2625.3" y="-228.95" font-family="Times New Roman,serif" font-size="14.00">Encyclopedia: The contemporary period stands still. The fated Carousel of Progress that doomed the royalists is itself winding down. Our time is decelerating &#45;&#45; into what, no one knows.</text>
</g>
<!-- 4&#45;&gt;11 -->
<g id="edge6" class="edge">
<title>4&#45;&gt;11</title>
<path fill="none" stroke="black" d="M2625.3,-287.7C2625.3,-280.41 2625.3,-271.73 2625.3,-263.54"/>
<polygon fill="black" stroke="black" points="2628.8,-263.62 2625.3,-253.62 2621.8,-263.62 2628.8,-263.62"/>
</g>
<!-- 5 -->
<g id="node6" class="node">
<title>5</title>
<ellipse fill="none" stroke="black" cx="569.3" cy="-162" rx="119.93" ry="18"/>
<text text-anchor="middle" x="569.3" y="-156.95" font-family="Times New Roman,serif" font-size="14.00">You: What are its hallmarks?</text>
</g>
<!-- 5&#45;&gt;2 -->
<g id="edge7" class="edge">
<title>5&#45;&gt;2</title>
<path fill="none" stroke="black" d="M569.3,-143.7C569.3,-136.41 569.3,-127.73 569.3,-119.54"/>
<polygon fill="black" stroke="black" points="572.8,-119.62 569.3,-109.62 565.8,-119.62 572.8,-119.62"/>
</g>
<!-- 6&#45;&gt;1 -->
<g id="edge8" class="edge">
<title>6&#45;&gt;1</title>
<path fill="none" stroke="black" d="M575.21,-252.28C575.97,-259.6 576.22,-268.34 575.94,-276.57"/>
<polygon fill="black" stroke="black" points="572.45,-276.33 575.28,-286.54 579.44,-276.8 572.45,-276.33"/>
</g>
<!-- 6&#45;&gt;5 -->
<g id="edge9" class="edge">
<title>6&#45;&gt;5</title>
<path fill="none" stroke="black" d="M569.3,-215.7C569.3,-208.41 569.3,-199.73 569.3,-191.54"/>
<polygon fill="black" stroke="black" points="572.8,-191.62 569.3,-181.62 565.8,-191.62 572.8,-191.62"/>
</g>
<!-- 9 -->
<g id="node10" class="node">
<title>9</title>
<ellipse fill="none" stroke="black" cx="1435.3" cy="-18" rx="586.19" ry="18"/>
<text text-anchor="middle" x="1435.3" y="-12.95" font-family="Times New Roman,serif" font-size="14.00">Encyclopedia: The sentiment is called *antecentennial nostalgia* &#45;&#45; pining for a time before the turn of the century. It&#39;s common even now, after 50 years.</text>
</g>
<!-- 7&#45;&gt;9 -->
<g id="edge10" class="edge">
<title>7&#45;&gt;9</title>
<path fill="none" stroke="black" d="M1435.3,-71.7C1435.3,-64.41 1435.3,-55.73 1435.3,-47.54"/>
<polygon fill="black" stroke="black" points="1438.8,-47.62 1435.3,-37.62 1431.8,-47.62 1438.8,-47.62"/>
</g>
<!-- 10 -->
<g id="node11" class="node">
<title>10</title>
<ellipse fill="none" stroke="black" cx="1693.3" cy="-162" rx="488.44" ry="18"/>
<text text-anchor="middle" x="1693.3" y="-156.95" font-family="Times New Roman,serif" font-size="14.00">Encyclopedia: It comes free with a six&#45;pack of Vermillon &#39;Roi d&#39;Or.&#39; The words &#39;ROI D&#39;OR&#39; are stamped into the crown&#39;s plastic.</text>
</g>
<!-- 8&#45;&gt;10 -->
<g id="edge11" class="edge">
<title>8&#45;&gt;10</title>
<path fill="none" stroke="black" d="M1546.53,-216.23C1573.03,-206.62 1606.55,-194.46 1634.86,-184.2"/>
<polygon fill="black" stroke="black" points="1635.8,-187.58 1644.01,-180.88 1633.42,-181 1635.8,-187.58"/>
</g>
<!-- 10&#45;&gt;3 -->
<g id="edge12" class="edge">
<title>10&#45;&gt;3</title>
<path fill="none" stroke="black" d="M1694.47,-180.39C1694.83,-200.23 1692.25,-232.45 1674.3,-252 1661.72,-265.71 1645.7,-275.91 1628.51,-283.5"/>
<polygon fill="black" stroke="black" points="1627.61,-280.09 1619.67,-287.11 1630.25,-286.57 1627.61,-280.09"/>
</g>
<!-- 10&#45;&gt;7 -->
<g id="edge13" class="edge">
<title>10&#45;&gt;7</title>
<path fill="none" stroke="black" d="M1629.53,-143.7C1592.86,-133.75 1546.64,-121.21 1508.5,-110.86"/>
<polygon fill="black" stroke="black" points="1509.48,-107.5 1498.91,-108.26 1507.65,-114.26 1509.48,-107.5"/>
</g>
</g>
</svg>
