<?xml version="1.0" encoding="UTF-8" standalone="no"?>
<!DOCTYPE svg PUBLIC "-//W3C//DTD SVG 1.1//EN"
 "http://www.w3.org/Graphics/SVG/1.1/DTD/svg11.dtd">
<!-- Generated by graphviz version 12.2.1 (20241206.2353)
 -->
<!-- Title: G Pages: 1 -->
<svg width="5605pt" height="1650pt"
 viewBox="0.00 0.00 5605.34 1649.98" xmlns="http://www.w3.org/2000/svg" xmlns:xlink="http://www.w3.org/1999/xlink">
<g id="graph0" class="graph" transform="scale(1 1) rotate(0) translate(4 1645.98)">
<title>G</title>
<polygon fill="white" stroke="none" points="-4,4 -4,-1645.98 5601.34,-1645.98 5601.34,4 -4,4"/>
<!-- 0 -->
<g id="node1" class="node">
<title>0</title>
<ellipse fill="none" stroke="black" cx="2049.5" cy="-1623.98" rx="39.07" ry="18"/>
<text text-anchor="middle" x="2049.5" y="-1618.93" font-family="Times New Roman,serif" font-size="14.00">START</text>
</g>
<!-- 1 -->
<g id="node2" class="node">
<title>1</title>
<ellipse fill="none" stroke="black" cx="2049.5" cy="-1551.98" rx="29.86" ry="18"/>
<text text-anchor="middle" x="2049.5" y="-1546.93" font-family="Times New Roman,serif" font-size="14.00">input</text>
</g>
<!-- 0&#45;&gt;1 -->
<g id="edge1" class="edge">
<title>0&#45;&gt;1</title>
<path fill="none" stroke="black" d="M2049.5,-1605.68C2049.5,-1598.39 2049.5,-1589.71 2049.5,-1581.52"/>
<polygon fill="black" stroke="black" points="2053,-1581.6 2049.5,-1571.6 2046,-1581.6 2053,-1581.6"/>
</g>
<!-- 31 -->
<g id="node32" class="node">
<title>31</title>
<ellipse fill="none" stroke="black" cx="2049.5" cy="-1479.98" rx="261.7" ry="18"/>
<text text-anchor="middle" x="2049.5" y="-1474.93" font-family="Times New Roman,serif" font-size="14.00">Inland Empire: Who knows?... It&#39;s getting cold out. You should go.</text>
</g>
<!-- 1&#45;&gt;31 -->
<g id="edge2" class="edge">
<title>1&#45;&gt;31</title>
<path fill="none" stroke="black" d="M2049.5,-1533.68C2049.5,-1526.39 2049.5,-1517.71 2049.5,-1509.52"/>
<polygon fill="black" stroke="black" points="2053,-1509.6 2049.5,-1499.6 2046,-1509.6 2053,-1509.6"/>
</g>
<!-- 2 -->
<g id="node3" class="node">
<title>2</title>
<ellipse fill="none" stroke="black" cx="2198.5" cy="-594" rx="227.41" ry="18"/>
<text text-anchor="middle" x="2198.5" y="-588.95" font-family="Times New Roman,serif" font-size="14.00">Variable[&quot;yard.hanged_love_did_in_communism_killed&quot;]</text>
</g>
<!-- 3 -->
<g id="node4" class="node">
<title>3</title>
<polygon fill="none" stroke="black" points="2186.5,-540 1864.89,-522 2186.5,-504 2508.11,-522 2186.5,-540"/>
<text text-anchor="middle" x="2186.5" y="-516.95" font-family="Times New Roman,serif" font-size="14.00">Variable[&quot;yard.hanged_love_did_in_communism_killed&quot;]</text>
</g>
<!-- 2&#45;&gt;3 -->
<g id="edge3" class="edge">
<title>2&#45;&gt;3</title>
<path fill="none" stroke="black" d="M2195.53,-575.7C2194.27,-568.32 2192.76,-559.52 2191.34,-551.25"/>
<polygon fill="black" stroke="black" points="2194.83,-550.86 2189.69,-541.6 2187.93,-552.04 2194.83,-550.86"/>
</g>
<!-- 4 -->
<g id="node5" class="node">
<title>4</title>
<polygon fill="none" stroke="black" points="2860.5,-540 2525.86,-522 2860.5,-504 3195.14,-522 2860.5,-540"/>
<text text-anchor="middle" x="2860.5" y="-516.95" font-family="Times New Roman,serif" font-size="14.00">!(Variable[&quot;yard.hanged_love_did_in_communism_killed&quot;])</text>
</g>
<!-- 2&#45;&gt;4 -->
<g id="edge4" class="edge">
<title>2&#45;&gt;4</title>
<path fill="none" stroke="black" d="M2330.87,-579C2450.1,-566.4 2623.88,-548.02 2739.48,-535.8"/>
<polygon fill="black" stroke="black" points="2739.74,-539.29 2749.32,-534.76 2739.01,-532.33 2739.74,-539.29"/>
</g>
<!-- 39 -->
<g id="node40" class="node">
<title>39</title>
<ellipse fill="none" stroke="black" cx="2186.5" cy="-450" rx="138.36" ry="18"/>
<text text-anchor="middle" x="2186.5" y="-444.95" font-family="Times New Roman,serif" font-size="14.00">You: Say nothing. Let her answer.</text>
</g>
<!-- 3&#45;&gt;39 -->
<g id="edge5" class="edge">
<title>3&#45;&gt;39</title>
<path fill="none" stroke="black" d="M2186.5,-503.7C2186.5,-496.41 2186.5,-487.73 2186.5,-479.54"/>
<polygon fill="black" stroke="black" points="2190,-479.62 2186.5,-469.62 2183,-479.62 2190,-479.62"/>
</g>
<!-- 33 -->
<g id="node34" class="node">
<title>33</title>
<ellipse fill="none" stroke="black" cx="2860.5" cy="-450" rx="423.95" ry="18"/>
<text text-anchor="middle" x="2860.5" y="-444.95" font-family="Times New Roman,serif" font-size="14.00">Klaasje (Miss Oranje Disco Dancer): &quot;I don&#39;t know...&quot; She looks down at the yard &#45;&#45; then back into her coffee.</text>
</g>
<!-- 4&#45;&gt;33 -->
<g id="edge6" class="edge">
<title>4&#45;&gt;33</title>
<path fill="none" stroke="black" d="M2860.5,-503.7C2860.5,-496.41 2860.5,-487.73 2860.5,-479.54"/>
<polygon fill="black" stroke="black" points="2864,-479.62 2860.5,-469.62 2857,-479.62 2864,-479.62"/>
</g>
<!-- 5 -->
<g id="node6" class="node">
<title>5</title>
<ellipse fill="none" stroke="black" cx="2186.5" cy="-306" rx="330.29" ry="18"/>
<text text-anchor="middle" x="2186.5" y="-300.95" font-family="Times New Roman,serif" font-size="14.00">Drama: Gone forever... Sire, thee shall never findeth another mistress quaint like her!</text>
</g>
<!-- 54 -->
<g id="node55" class="node">
<title>54</title>
<ellipse fill="none" stroke="black" cx="2186.5" cy="-234" rx="516.07" ry="18"/>
<text text-anchor="middle" x="2186.5" y="-228.95" font-family="Times New Roman,serif" font-size="14.00">Variable[&quot;TASK.arrest_klaasje_done&quot;] == false &#160;or &#160;Variable[&quot;TASK.enter_cavern_done&quot;] == false &#160;or &#160;IsHourBetween(7, 22) == false</text>
</g>
<!-- 5&#45;&gt;54 -->
<g id="edge7" class="edge">
<title>5&#45;&gt;54</title>
<path fill="none" stroke="black" d="M2186.5,-287.7C2186.5,-280.41 2186.5,-271.73 2186.5,-263.54"/>
<polygon fill="black" stroke="black" points="2190,-263.62 2186.5,-253.62 2183,-263.62 2190,-263.62"/>
</g>
<!-- 6 -->
<g id="node7" class="node">
<title>6</title>
<ellipse fill="none" stroke="black" cx="339.5" cy="-378" rx="339.5" ry="18"/>
<text text-anchor="middle" x="339.5" y="-372.95" font-family="Times New Roman,serif" font-size="14.00">Inland Empire: You do not know. A wind of needles. Airships flutter in the stratosphere.</text>
</g>
<!-- 14 -->
<g id="node15" class="node">
<title>14</title>
<ellipse fill="none" stroke="black" cx="2049.5" cy="-1407.98" rx="117.89" ry="18"/>
<text text-anchor="middle" x="2049.5" y="-1402.93" font-family="Times New Roman,serif" font-size="14.00">Jump to: [what_did_him_in]</text>
</g>
<!-- 6&#45;&gt;14 -->
<g id="edge8" class="edge">
<title>6&#45;&gt;14</title>
<path fill="none" stroke="black" d="M310.79,-396.37C298.12,-405.46 284.17,-417.69 275.5,-432 254.54,-466.59 256.5,-480.55 256.5,-521 256.5,-1264.98 256.5,-1264.98 256.5,-1264.98 256.5,-1348.68 1514.47,-1391.79 1923.02,-1403.59"/>
<polygon fill="black" stroke="black" points="1922.66,-1407.08 1932.76,-1403.87 1922.86,-1400.08 1922.66,-1407.08"/>
</g>
<!-- 7 -->
<g id="node8" class="node">
<title>7</title>
<ellipse fill="none" stroke="black" cx="2513.5" cy="-1119.98" rx="415.76" ry="18"/>
<text text-anchor="middle" x="2513.5" y="-1114.93" font-family="Times New Roman,serif" font-size="14.00">Volition: It appears this one has *not* been entirely corrupted... this may help. This may help the others see.</text>
</g>
<!-- 21 -->
<g id="node22" class="node">
<title>21</title>
<ellipse fill="none" stroke="black" cx="2513.5" cy="-1047.98" rx="114.3" ry="18"/>
<text text-anchor="middle" x="2513.5" y="-1042.93" font-family="Times New Roman,serif" font-size="14.00">Empathy: Real as anything.</text>
</g>
<!-- 7&#45;&gt;21 -->
<g id="edge9" class="edge">
<title>7&#45;&gt;21</title>
<path fill="none" stroke="black" d="M2513.5,-1101.68C2513.5,-1094.39 2513.5,-1085.71 2513.5,-1077.52"/>
<polygon fill="black" stroke="black" points="2517,-1077.6 2513.5,-1067.6 2510,-1077.6 2517,-1077.6"/>
</g>
<!-- 8 -->
<g id="node9" class="node">
<title>8</title>
<ellipse fill="none" stroke="black" cx="3595.5" cy="-1623.98" rx="524.26" ry="18"/>
<text text-anchor="middle" x="3595.5" y="-1618.93" font-family="Times New Roman,serif" font-size="14.00">Variable[&quot;TASK.arrest_klaasje_done&quot;] == false &#160;and &#160;Variable[&quot;TASK.enter_cavern_done&quot;] == false &#160;and &#160;IsHourBetween(7, 22) == true</text>
</g>
<!-- 9 -->
<g id="node10" class="node">
<title>9</title>
<polygon fill="none" stroke="black" points="2838.5,-1569.98 2097.08,-1551.98 2838.5,-1533.98 3579.92,-1551.98 2838.5,-1569.98"/>
<text text-anchor="middle" x="2838.5" y="-1546.93" font-family="Times New Roman,serif" font-size="14.00">Variable[&quot;TASK.arrest_klaasje_done&quot;] == false &#160;and &#160;Variable[&quot;TASK.enter_cavern_done&quot;] == false &#160;and &#160;IsHourBetween(7, 22) == true</text>
</g>
<!-- 8&#45;&gt;9 -->
<g id="edge10" class="edge">
<title>8&#45;&gt;9</title>
<path fill="none" stroke="black" d="M3418.49,-1606.62C3291.8,-1594.9 3122.6,-1579.25 2999.66,-1567.89"/>
<polygon fill="black" stroke="black" points="3000.07,-1564.41 2989.79,-1566.97 2999.43,-1571.38 3000.07,-1564.41"/>
</g>
<!-- 10 -->
<g id="node11" class="node">
<title>10</title>
<polygon fill="none" stroke="black" points="4352.5,-1569.98 3598.05,-1551.98 4352.5,-1533.98 5106.95,-1551.98 4352.5,-1569.98"/>
<text text-anchor="middle" x="4352.5" y="-1546.93" font-family="Times New Roman,serif" font-size="14.00">!(Variable[&quot;TASK.arrest_klaasje_done&quot;] == false &#160;and &#160;Variable[&quot;TASK.enter_cavern_done&quot;] == false &#160;and &#160;IsHourBetween(7, 22) == true)</text>
</g>
<!-- 8&#45;&gt;10 -->
<g id="edge11" class="edge">
<title>8&#45;&gt;10</title>
<path fill="none" stroke="black" d="M3772.5,-1606.62C3898.98,-1594.92 4067.84,-1579.31 4190.72,-1567.94"/>
<polygon fill="black" stroke="black" points="4190.95,-1571.44 4200.59,-1567.03 4190.31,-1564.47 4190.95,-1571.44"/>
</g>
<!-- 11 -->
<g id="node12" class="node">
<title>11</title>
<ellipse fill="none" stroke="black" cx="2505.5" cy="-759.98" rx="147.57" ry="18"/>
<text text-anchor="middle" x="2505.5" y="-754.93" font-family="Times New Roman,serif" font-size="14.00">You: How do I... know all this then?</text>
</g>
<!-- 32 -->
<g id="node33" class="node">
<title>32</title>
<ellipse fill="none" stroke="black" cx="2698.5" cy="-676.99" rx="310.84" ry="18"/>
<text text-anchor="middle" x="2698.5" y="-671.94" font-family="Times New Roman,serif" font-size="14.00">Inland Empire: Or was it communism that killed him and love that did him in...</text>
</g>
<!-- 11&#45;&gt;32 -->
<g id="edge12" class="edge">
<title>11&#45;&gt;32</title>
<path fill="none" stroke="black" d="M2545.49,-742.2C2574.85,-729.88 2614.99,-713.03 2646.79,-699.69"/>
<polygon fill="black" stroke="black" points="2647.97,-702.99 2655.83,-695.9 2645.26,-696.54 2647.97,-702.99"/>
</g>
<!-- 12 -->
<g id="node13" class="node">
<title>12</title>
<ellipse fill="none" stroke="black" cx="842.5" cy="-594" rx="62.1" ry="18"/>
<text text-anchor="middle" x="842.5" y="-588.95" font-family="Times New Roman,serif" font-size="14.00">You: &quot;Why?&quot;</text>
</g>
<!-- 52 -->
<g id="node53" class="node">
<title>52</title>
<ellipse fill="none" stroke="black" cx="675.5" cy="-522" rx="340.52" ry="18"/>
<text text-anchor="middle" x="675.5" y="-516.95" font-family="Times New Roman,serif" font-size="14.00">Inland Empire: Remember this silence. The lady is dangerous. People suffer around her.</text>
</g>
<!-- 12&#45;&gt;52 -->
<g id="edge13" class="edge">
<title>12&#45;&gt;52</title>
<path fill="none" stroke="black" d="M808.3,-578.67C784.99,-568.89 753.68,-555.77 727.32,-544.72"/>
<polygon fill="black" stroke="black" points="728.71,-541.51 718.13,-540.87 726,-547.96 728.71,-541.51"/>
</g>
<!-- 13 -->
<g id="node14" class="node">
<title>13</title>
<ellipse fill="none" stroke="black" cx="1997.5" cy="-759.98" rx="90.76" ry="18"/>
<text text-anchor="middle" x="1997.5" y="-754.93" font-family="Times New Roman,serif" font-size="14.00">You: &quot;Was it? Real?&quot;</text>
</g>
<!-- 34 -->
<g id="node35" class="node">
<title>34</title>
<ellipse fill="none" stroke="black" cx="1819.5" cy="-676.99" rx="116.86" ry="18"/>
<text text-anchor="middle" x="1819.5" y="-671.94" font-family="Times New Roman,serif" font-size="14.00">Variable[&quot;XP.ruby_motive&quot;]</text>
</g>
<!-- 13&#45;&gt;34 -->
<g id="edge14" class="edge">
<title>13&#45;&gt;34</title>
<path fill="none" stroke="black" d="M1962.33,-742.98C1934.78,-730.45 1896.2,-712.89 1866.08,-699.19"/>
<polygon fill="black" stroke="black" points="1867.74,-696.1 1857.19,-695.14 1864.85,-702.47 1867.74,-696.1"/>
</g>
<!-- 46 -->
<g id="node47" class="node">
<title>46</title>
<ellipse fill="none" stroke="black" cx="3230.5" cy="-1335.98" rx="442.37" ry="18"/>
<text text-anchor="middle" x="3230.5" y="-1330.93" font-family="Times New Roman,serif" font-size="14.00">Klaasje (Miss Oranje Disco Dancer): She&#39;s silent, holding on to her coffee mug. No vapour rises from it &#45;&#45; it&#39;s cold.</text>
</g>
<!-- 14&#45;&gt;46 -->
<g id="edge15" class="edge">
<title>14&#45;&gt;46</title>
<path fill="none" stroke="black" d="M2154,-1399.33C2196.64,-1396.28 2246.42,-1392.84 2291.5,-1389.98 2515.17,-1375.82 2768.93,-1361.6 2956.21,-1351.47"/>
<polygon fill="black" stroke="black" points="2956.3,-1354.97 2966.09,-1350.93 2955.92,-1347.98 2956.3,-1354.97"/>
</g>
<!-- 15 -->
<g id="node16" class="node">
<title>15</title>
<ellipse fill="none" stroke="black" cx="2223.5" cy="-759.98" rx="116.86" ry="18"/>
<text text-anchor="middle" x="2223.5" y="-754.93" font-family="Times New Roman,serif" font-size="14.00">You: I already miss Klaasje.</text>
</g>
<!-- 50 -->
<g id="node51" class="node">
<title>50</title>
<ellipse fill="none" stroke="black" cx="2198.5" cy="-676.99" rx="170.94" ry="28.99"/>
<text text-anchor="middle" x="2198.5" y="-680.19" font-family="Times New Roman,serif" font-size="14.00">You: It *killed* him... (Look at Klaasje.)</text>
<text text-anchor="middle" x="2198.5" y="-663.69" font-family="Times New Roman,serif" font-size="14.00">It *killed* him.</text>
</g>
<!-- 15&#45;&gt;50 -->
<g id="edge16" class="edge">
<title>15&#45;&gt;50</title>
<path fill="none" stroke="black" d="M2218.2,-741.81C2215.96,-734.56 2213.26,-725.8 2210.58,-717.12"/>
<polygon fill="black" stroke="black" points="2213.98,-716.27 2207.68,-707.74 2207.29,-718.33 2213.98,-716.27"/>
</g>
<!-- 16 -->
<g id="node17" class="node">
<title>16</title>
<ellipse fill="none" stroke="black" cx="2646.5" cy="-90" rx="236.11" ry="18"/>
<text text-anchor="middle" x="2646.5" y="-84.95" font-family="Times New Roman,serif" font-size="14.00">Inland Empire: Feels good, doesn&#39;t it? Doing the right thing.</text>
</g>
<!-- 41 -->
<g id="node42" class="node">
<title>41</title>
<ellipse fill="none" stroke="black" cx="2646.5" cy="-18" rx="99.46" ry="18"/>
<text text-anchor="middle" x="2646.5" y="-12.95" font-family="Times New Roman,serif" font-size="14.00">You: [Discard thought.]</text>
</g>
<!-- 16&#45;&gt;41 -->
<g id="edge17" class="edge">
<title>16&#45;&gt;41</title>
<path fill="none" stroke="black" d="M2646.5,-71.7C2646.5,-64.41 2646.5,-55.73 2646.5,-47.54"/>
<polygon fill="black" stroke="black" points="2650,-47.62 2646.5,-37.62 2643,-47.62 2650,-47.62"/>
</g>
<!-- 17 -->
<g id="node18" class="node">
<title>17</title>
<ellipse fill="none" stroke="black" cx="2688.5" cy="-1479.98" rx="183.4" ry="18"/>
<text text-anchor="middle" x="2688.5" y="-1474.93" font-family="Times New Roman,serif" font-size="14.00">Variable[&quot;whirling.klaasje_love_did_in_said&quot;]</text>
</g>
<!-- 19 -->
<g id="node20" class="node">
<title>19</title>
<polygon fill="none" stroke="black" points="2572.5,-1425.98 2300.11,-1407.98 2572.5,-1389.98 2844.89,-1407.98 2572.5,-1425.98"/>
<text text-anchor="middle" x="2572.5" y="-1402.93" font-family="Times New Roman,serif" font-size="14.00">!(Variable[&quot;whirling.klaasje_love_did_in_said&quot;])</text>
</g>
<!-- 17&#45;&gt;19 -->
<g id="edge18" class="edge">
<title>17&#45;&gt;19</title>
<path fill="none" stroke="black" d="M2660.12,-1461.86C2644.42,-1452.39 2624.77,-1440.52 2608.05,-1430.44"/>
<polygon fill="black" stroke="black" points="2610.27,-1427.69 2599.9,-1425.52 2606.65,-1433.68 2610.27,-1427.69"/>
</g>
<!-- 20 -->
<g id="node21" class="node">
<title>20</title>
<ellipse fill="none" stroke="black" cx="3127.5" cy="-1407.98" rx="117.89" ry="18"/>
<text text-anchor="middle" x="3127.5" y="-1402.93" font-family="Times New Roman,serif" font-size="14.00">Jump to: [what_did_him_in]</text>
</g>
<!-- 17&#45;&gt;20 -->
<g id="edge19" class="edge">
<title>17&#45;&gt;20</title>
<path fill="none" stroke="black" d="M2781.87,-1464.09C2857.18,-1452.09 2962.47,-1435.3 3037.01,-1423.41"/>
<polygon fill="black" stroke="black" points="3037.41,-1426.89 3046.74,-1421.86 3036.31,-1419.98 3037.41,-1426.89"/>
</g>
<!-- 18 -->
<g id="node19" class="node">
<title>18</title>
<polygon fill="none" stroke="black" points="3770.5,-540 3511.14,-522 3770.5,-504 4029.86,-522 3770.5,-540"/>
<text text-anchor="middle" x="3770.5" y="-516.95" font-family="Times New Roman,serif" font-size="14.00">Variable[&quot;whirling.klaasje_love_did_in_said&quot;]</text>
</g>
<!-- 43 -->
<g id="node44" class="node">
<title>43</title>
<ellipse fill="none" stroke="black" cx="4063.5" cy="-450" rx="117.89" ry="18"/>
<text text-anchor="middle" x="4063.5" y="-444.95" font-family="Times New Roman,serif" font-size="14.00">Jump to: [what_did_him_in]</text>
</g>
<!-- 18&#45;&gt;43 -->
<g id="edge20" class="edge">
<title>18&#45;&gt;43</title>
<path fill="none" stroke="black" d="M3826.99,-507.5C3873.6,-496.37 3940.06,-480.49 3990.67,-468.4"/>
<polygon fill="black" stroke="black" points="3991.48,-471.8 4000.39,-466.08 3989.85,-465 3991.48,-471.8"/>
</g>
<!-- 25 -->
<g id="node26" class="node">
<title>25</title>
<ellipse fill="none" stroke="black" cx="2469.5" cy="-1335.98" rx="241.74" ry="18"/>
<text text-anchor="middle" x="2469.5" y="-1330.93" font-family="Times New Roman,serif" font-size="14.00">You: (Turn to Klaasje.) &quot;Looks like love did him in after all.&quot;</text>
</g>
<!-- 19&#45;&gt;25 -->
<g id="edge21" class="edge">
<title>19&#45;&gt;25</title>
<path fill="none" stroke="black" d="M2549.13,-1391.1C2535.88,-1382.1 2519.06,-1370.67 2504.29,-1360.63"/>
<polygon fill="black" stroke="black" points="2506.43,-1357.85 2496.2,-1355.13 2502.5,-1363.64 2506.43,-1357.85"/>
</g>
<!-- 20&#45;&gt;46 -->
<g id="edge22" class="edge">
<title>20&#45;&gt;46</title>
<path fill="none" stroke="black" d="M3152.43,-1390.04C3165.4,-1381.23 3181.45,-1370.31 3195.63,-1360.68"/>
<polygon fill="black" stroke="black" points="3197.52,-1363.62 3203.83,-1355.11 3193.59,-1357.83 3197.52,-1363.62"/>
</g>
<!-- 27 -->
<g id="node28" class="node">
<title>27</title>
<ellipse fill="none" stroke="black" cx="2368.5" cy="-975.98" rx="178.28" ry="18"/>
<text text-anchor="middle" x="2368.5" y="-970.93" font-family="Times New Roman,serif" font-size="14.00">Variable[&quot;XP.detect_compromized_skillset&quot;]</text>
</g>
<!-- 21&#45;&gt;27 -->
<g id="edge23" class="edge">
<title>21&#45;&gt;27</title>
<path fill="none" stroke="black" d="M2479.14,-1030.39C2459.72,-1021.02 2435.2,-1009.19 2414.19,-999.04"/>
<polygon fill="black" stroke="black" points="2415.77,-995.91 2405.24,-994.72 2412.72,-1002.22 2415.77,-995.91"/>
</g>
<!-- 22 -->
<g id="node23" class="node">
<title>22</title>
<ellipse fill="none" stroke="black" cx="4099.5" cy="-676.99" rx="117.89" ry="18"/>
<text text-anchor="middle" x="4099.5" y="-671.94" font-family="Times New Roman,serif" font-size="14.00">Jump to: [what_did_him_in]</text>
</g>
<!-- 22&#45;&gt;46 -->
<g id="edge24" class="edge">
<title>22&#45;&gt;46</title>
<path fill="none" stroke="black" d="M4200.58,-686.5C4240.28,-694.9 4283.05,-711.08 4311.5,-741.98 4338.89,-771.74 4330.5,-790.54 4330.5,-830.98 4330.5,-1192.98 4330.5,-1192.98 4330.5,-1192.98 4330.5,-1270.71 3892.93,-1306.88 3569.75,-1322.99"/>
<polygon fill="black" stroke="black" points="3569.63,-1319.49 3559.81,-1323.48 3569.97,-1326.48 3569.63,-1319.49"/>
</g>
<!-- 23 -->
<g id="node24" class="node">
<title>23</title>
<ellipse fill="none" stroke="black" cx="423.5" cy="-450" rx="139.38" ry="18"/>
<text text-anchor="middle" x="423.5" y="-444.95" font-family="Times New Roman,serif" font-size="14.00">You: What is communism in this?</text>
</g>
<!-- 23&#45;&gt;6 -->
<g id="edge25" class="edge">
<title>23&#45;&gt;6</title>
<path fill="none" stroke="black" d="M403.17,-432.05C392.9,-423.5 380.25,-412.96 368.94,-403.54"/>
<polygon fill="black" stroke="black" points="371.32,-400.96 361.39,-397.24 366.83,-406.33 371.32,-400.96"/>
</g>
<!-- 24 -->
<g id="node25" class="node">
<title>24</title>
<ellipse fill="none" stroke="black" cx="3832.5" cy="-759.98" rx="470.01" ry="18"/>
<text text-anchor="middle" x="3832.5" y="-754.93" font-family="Times New Roman,serif" font-size="14.00">Inland Empire: If it weren&#39;t for her he would not have been there. The shot would not have connected with his soft palate...</text>
</g>
<!-- 24&#45;&gt;46 -->
<g id="edge26" class="edge">
<title>24&#45;&gt;46</title>
<path fill="none" stroke="black" d="M3725.15,-777.98C3655.83,-795.78 3578.5,-831.62 3578.5,-902.98 3578.5,-1192.98 3578.5,-1192.98 3578.5,-1192.98 3578.5,-1247.6 3429.7,-1291.51 3326.7,-1315.36"/>
<polygon fill="black" stroke="black" points="3326.08,-1311.91 3317.11,-1317.55 3327.63,-1318.73 3326.08,-1311.91"/>
</g>
<!-- 47 -->
<g id="node48" class="node">
<title>47</title>
<ellipse fill="none" stroke="black" cx="1192.5" cy="-1191.98" rx="166" ry="18"/>
<text text-anchor="middle" x="1192.5" y="-1186.93" font-family="Times New Roman,serif" font-size="14.00">Volition: You were just being a good cop.</text>
</g>
<!-- 25&#45;&gt;47 -->
<g id="edge27" class="edge">
<title>25&#45;&gt;47</title>
<path fill="none" stroke="black" d="M2338.54,-1320.42C2091.22,-1292.92 1558.58,-1233.69 1316.62,-1206.79"/>
<polygon fill="black" stroke="black" points="1317.15,-1203.32 1306.83,-1205.7 1316.38,-1210.28 1317.15,-1203.32"/>
</g>
<!-- 26 -->
<g id="node27" class="node">
<title>26</title>
<ellipse fill="none" stroke="black" cx="3226.5" cy="-759.98" rx="117.89" ry="18"/>
<text text-anchor="middle" x="3226.5" y="-754.93" font-family="Times New Roman,serif" font-size="14.00">Jump to: [what_did_him_in]</text>
</g>
<!-- 26&#45;&gt;46 -->
<g id="edge28" class="edge">
<title>26&#45;&gt;46</title>
<path fill="none" stroke="black" d="M3242.3,-777.88C3250.68,-787.72 3260.47,-800.77 3266.5,-813.98 3283.3,-850.77 3285.5,-862.54 3285.5,-902.98 3285.5,-1192.98 3285.5,-1192.98 3285.5,-1192.98 3285.5,-1235.41 3263.88,-1280.45 3247.75,-1308.16"/>
<polygon fill="black" stroke="black" points="3244.84,-1306.21 3242.68,-1316.59 3250.83,-1309.82 3244.84,-1306.21"/>
</g>
<!-- 29 -->
<g id="node30" class="node">
<title>29</title>
<polygon fill="none" stroke="black" points="2808.5,-921.98 2543.35,-903.98 2808.5,-885.98 3073.65,-903.98 2808.5,-921.98"/>
<text text-anchor="middle" x="2808.5" y="-898.93" font-family="Times New Roman,serif" font-size="14.00">!(Variable[&quot;XP.detect_compromized_skillset&quot;])</text>
</g>
<!-- 27&#45;&gt;29 -->
<g id="edge29" class="edge">
<title>27&#45;&gt;29</title>
<path fill="none" stroke="black" d="M2461.27,-960.22C2537.66,-948.07 2645.21,-930.96 2720.31,-919.01"/>
<polygon fill="black" stroke="black" points="2720.79,-922.48 2730.12,-917.45 2719.69,-915.57 2720.79,-922.48"/>
</g>
<!-- 30 -->
<g id="node31" class="node">
<title>30</title>
<ellipse fill="none" stroke="black" cx="2223.5" cy="-903.98" rx="302.14" ry="18"/>
<text text-anchor="middle" x="2223.5" y="-898.93" font-family="Times New Roman,serif" font-size="14.00">Inland Empire: As you look back you think: So love did *do him in* after all.</text>
</g>
<!-- 27&#45;&gt;30 -->
<g id="edge30" class="edge">
<title>27&#45;&gt;30</title>
<path fill="none" stroke="black" d="M2333.03,-957.86C2313.88,-948.61 2290.02,-937.09 2269.46,-927.17"/>
<polygon fill="black" stroke="black" points="2271.25,-924.15 2260.72,-922.95 2268.21,-930.45 2271.25,-924.15"/>
</g>
<!-- 28 -->
<g id="node29" class="node">
<title>28</title>
<polygon fill="none" stroke="black" points="2513.5,-1209.98 2261.37,-1191.98 2513.5,-1173.98 2765.63,-1191.98 2513.5,-1209.98"/>
<text text-anchor="middle" x="2513.5" y="-1186.93" font-family="Times New Roman,serif" font-size="14.00">Variable[&quot;XP.detect_compromized_skillset&quot;]</text>
</g>
<!-- 28&#45;&gt;7 -->
<g id="edge31" class="edge">
<title>28&#45;&gt;7</title>
<path fill="none" stroke="black" d="M2513.5,-1173.68C2513.5,-1166.39 2513.5,-1157.71 2513.5,-1149.52"/>
<polygon fill="black" stroke="black" points="2517,-1149.6 2513.5,-1139.6 2510,-1149.6 2517,-1149.6"/>
</g>
<!-- 29&#45;&gt;21 -->
<g id="edge32" class="edge">
<title>29&#45;&gt;21</title>
<path fill="none" stroke="black" d="M2776.99,-920.15C2724.39,-945.47 2618.57,-996.41 2558.27,-1025.43"/>
<polygon fill="black" stroke="black" points="2556.77,-1022.27 2549.28,-1029.76 2559.81,-1028.58 2556.77,-1022.27"/>
</g>
<!-- 42 -->
<g id="node43" class="node">
<title>42</title>
<ellipse fill="none" stroke="black" cx="2787.5" cy="-831.98" rx="470.01" ry="18"/>
<text text-anchor="middle" x="2787.5" y="-826.93" font-family="Times New Roman,serif" font-size="14.00">Inland Empire: If it weren&#39;t for her he would not have been there. The shot would not have connected with his soft palate...</text>
</g>
<!-- 30&#45;&gt;42 -->
<g id="edge33" class="edge">
<title>30&#45;&gt;42</title>
<path fill="none" stroke="black" d="M2350.42,-887.23C2436.96,-876.49 2551.76,-862.24 2642,-851.04"/>
<polygon fill="black" stroke="black" points="2642.16,-854.55 2651.65,-849.84 2641.3,-847.6 2642.16,-854.55"/>
</g>
<!-- 45 -->
<g id="node46" class="node">
<title>45</title>
<ellipse fill="none" stroke="black" cx="2223.5" cy="-831.98" rx="76.43" ry="18"/>
<text text-anchor="middle" x="2223.5" y="-826.93" font-family="Times New Roman,serif" font-size="14.00">what_did_him_in</text>
</g>
<!-- 30&#45;&gt;45 -->
<g id="edge34" class="edge">
<title>30&#45;&gt;45</title>
<path fill="none" stroke="black" d="M2223.5,-885.68C2223.5,-878.39 2223.5,-869.71 2223.5,-861.52"/>
<polygon fill="black" stroke="black" points="2227,-861.6 2223.5,-851.6 2220,-861.6 2227,-861.6"/>
</g>
<!-- 31&#45;&gt;14 -->
<g id="edge35" class="edge">
<title>31&#45;&gt;14</title>
<path fill="none" stroke="black" d="M2049.5,-1461.68C2049.5,-1454.39 2049.5,-1445.71 2049.5,-1437.52"/>
<polygon fill="black" stroke="black" points="2053,-1437.6 2049.5,-1427.6 2046,-1437.6 2053,-1437.6"/>
</g>
<!-- 44 -->
<g id="node45" class="node">
<title>44</title>
<ellipse fill="none" stroke="black" cx="3421.5" cy="-594" rx="78.99" ry="18"/>
<text text-anchor="middle" x="3421.5" y="-588.95" font-family="Times New Roman,serif" font-size="14.00">You: I was right...</text>
</g>
<!-- 32&#45;&gt;44 -->
<g id="edge36" class="edge">
<title>32&#45;&gt;44</title>
<path fill="none" stroke="black" d="M2837.05,-660.47C2986.35,-643.75 3218.9,-617.7 3340.77,-604.04"/>
<polygon fill="black" stroke="black" points="3340.8,-607.56 3350.35,-602.97 3340.02,-600.61 3340.8,-607.56"/>
</g>
<!-- 59 -->
<g id="node60" class="node">
<title>59</title>
<ellipse fill="none" stroke="black" cx="2860.5" cy="-378" rx="27" ry="18"/>
<text text-anchor="middle" x="2860.5" y="-372.95" font-family="Times New Roman,serif" font-size="14.00">59</text>
</g>
<!-- 33&#45;&gt;59 -->
<g id="edge37" class="edge">
<title>33&#45;&gt;59</title>
<path fill="none" stroke="black" d="M2860.5,-431.7C2860.5,-424.41 2860.5,-415.73 2860.5,-407.54"/>
<polygon fill="black" stroke="black" points="2864,-407.62 2860.5,-397.62 2857,-407.62 2864,-407.62"/>
</g>
<!-- 36 -->
<g id="node37" class="node">
<title>36</title>
<polygon fill="none" stroke="black" points="1509.5,-612 1331.2,-594 1509.5,-576 1687.8,-594 1509.5,-612"/>
<text text-anchor="middle" x="1509.5" y="-588.95" font-family="Times New Roman,serif" font-size="14.00">!(Variable[&quot;XP.ruby_motive&quot;])</text>
</g>
<!-- 34&#45;&gt;36 -->
<g id="edge38" class="edge">
<title>34&#45;&gt;36</title>
<path fill="none" stroke="black" d="M1761.92,-660.95C1706.88,-646.57 1624.27,-624.99 1568.7,-610.47"/>
<polygon fill="black" stroke="black" points="1569.64,-607.1 1559.08,-607.95 1567.87,-613.87 1569.64,-607.1"/>
</g>
<!-- 37 -->
<g id="node38" class="node">
<title>37</title>
<ellipse fill="none" stroke="black" cx="1819.5" cy="-594" rx="93.83" ry="18"/>
<text text-anchor="middle" x="1819.5" y="-588.95" font-family="Times New Roman,serif" font-size="14.00">You: [Finish thought.]</text>
</g>
<!-- 34&#45;&gt;37 -->
<g id="edge39" class="edge">
<title>34&#45;&gt;37</title>
<path fill="none" stroke="black" d="M1819.5,-658.82C1819.5,-648.68 1819.5,-635.6 1819.5,-623.91"/>
<polygon fill="black" stroke="black" points="1823,-623.94 1819.5,-613.94 1816,-623.94 1823,-623.94"/>
</g>
<!-- 35 -->
<g id="node36" class="node">
<title>35</title>
<polygon fill="none" stroke="black" points="2648.5,-1281.98 2483.23,-1263.98 2648.5,-1245.98 2813.77,-1263.98 2648.5,-1281.98"/>
<text text-anchor="middle" x="2648.5" y="-1258.93" font-family="Times New Roman,serif" font-size="14.00">Variable[&quot;XP.ruby_motive&quot;]</text>
</g>
<!-- 35&#45;&gt;28 -->
<g id="edge40" class="edge">
<title>35&#45;&gt;28</title>
<path fill="none" stroke="black" d="M2620.85,-1248.65C2601.28,-1238.5 2574.73,-1224.73 2552.93,-1213.43"/>
<polygon fill="black" stroke="black" points="2554.81,-1210.46 2544.32,-1208.96 2551.59,-1216.68 2554.81,-1210.46"/>
</g>
<!-- 53 -->
<g id="node54" class="node">
<title>53</title>
<ellipse fill="none" stroke="black" cx="1452.5" cy="-522" rx="370.21" ry="18"/>
<text text-anchor="middle" x="1452.5" y="-516.95" font-family="Times New Roman,serif" font-size="14.00">Half Light: You fool! What are you waiting for?! Mount a rescue operation and go get her back!</text>
</g>
<!-- 36&#45;&gt;53 -->
<g id="edge41" class="edge">
<title>36&#45;&gt;53</title>
<path fill="none" stroke="black" d="M1496.57,-577.12C1489.79,-568.8 1481.33,-558.41 1473.64,-548.96"/>
<polygon fill="black" stroke="black" points="1476.56,-547.01 1467.54,-541.47 1471.14,-551.43 1476.56,-547.01"/>
</g>
<!-- 38 -->
<g id="node39" class="node">
<title>38</title>
<ellipse fill="none" stroke="black" cx="3421.5" cy="-676.99" rx="393.75" ry="18"/>
<text text-anchor="middle" x="3421.5" y="-671.94" font-family="Times New Roman,serif" font-size="14.00">Inland Empire: No. Communism killed him, remember? Love made it possible. You know this much.</text>
</g>
<!-- 38&#45;&gt;44 -->
<g id="edge42" class="edge">
<title>38&#45;&gt;44</title>
<path fill="none" stroke="black" d="M3421.5,-658.82C3421.5,-648.68 3421.5,-635.6 3421.5,-623.91"/>
<polygon fill="black" stroke="black" points="3425,-623.94 3421.5,-613.94 3418,-623.94 3425,-623.94"/>
</g>
<!-- 49 -->
<g id="node50" class="node">
<title>49</title>
<ellipse fill="none" stroke="black" cx="2186.5" cy="-378" rx="222.81" ry="18"/>
<text text-anchor="middle" x="2186.5" y="-372.95" font-family="Times New Roman,serif" font-size="14.00">Inland Empire: Of course you do, Harry. Everyone does.</text>
</g>
<!-- 39&#45;&gt;49 -->
<g id="edge43" class="edge">
<title>39&#45;&gt;49</title>
<path fill="none" stroke="black" d="M2186.5,-431.7C2186.5,-424.41 2186.5,-415.73 2186.5,-407.54"/>
<polygon fill="black" stroke="black" points="2190,-407.62 2186.5,-397.62 2183,-407.62 2190,-407.62"/>
</g>
<!-- 40 -->
<g id="node41" class="node">
<title>40</title>
<ellipse fill="none" stroke="black" cx="1413.5" cy="-759.98" rx="475.13" ry="18"/>
<text text-anchor="middle" x="1413.5" y="-754.93" font-family="Times New Roman,serif" font-size="14.00">Authority: Hey, what is this funeral vibe here? You did what any good cop would do. Pat yourself on the back and move on.</text>
</g>
<!-- 48 -->
<g id="node49" class="node">
<title>48</title>
<ellipse fill="none" stroke="black" cx="1010.5" cy="-676.99" rx="623.55" ry="18"/>
<text text-anchor="middle" x="1010.5" y="-671.94" font-family="Times New Roman,serif" font-size="14.00">Klaasje (Miss Oranje Disco Dancer): &quot;Yeah...&quot; she finally breaks the silence. &quot;I&#39;d like to think he didn&#39;t *love* me. Or that it was chemically&#45;induced and not real.&quot;</text>
</g>
<!-- 40&#45;&gt;48 -->
<g id="edge44" class="edge">
<title>40&#45;&gt;48</title>
<path fill="none" stroke="black" d="M1328.03,-741.81C1263.47,-728.83 1174.79,-711.01 1107.56,-697.5"/>
<polygon fill="black" stroke="black" points="1108.51,-694.12 1098.02,-695.58 1107.13,-700.98 1108.51,-694.12"/>
</g>
<!-- 42&#45;&gt;46 -->
<g id="edge45" class="edge">
<title>42&#45;&gt;46</title>
<path fill="none" stroke="black" d="M2972.39,-848.97C3010.17,-856.92 3048.69,-868.67 3082.5,-885.98 3133.14,-911.91 3174.5,-918.09 3174.5,-974.98 3174.5,-1192.98 3174.5,-1192.98 3174.5,-1192.98 3174.5,-1235.52 3196.51,-1280.53 3212.93,-1308.2"/>
<polygon fill="black" stroke="black" points="3209.89,-1309.93 3218.1,-1316.62 3215.86,-1306.27 3209.89,-1309.93"/>
</g>
<!-- 43&#45;&gt;46 -->
<g id="edge46" class="edge">
<title>43&#45;&gt;46</title>
<path fill="none" stroke="black" d="M4170.17,-457.83C4258.13,-469.93 4368.5,-503.05 4368.5,-593 4368.5,-1192.98 4368.5,-1192.98 4368.5,-1192.98 4368.5,-1286.23 4269.17,-1260.19 4178.5,-1281.98 4076.55,-1306.49 3841.79,-1319.73 3631.42,-1326.85"/>
<polygon fill="black" stroke="black" points="3631.54,-1323.34 3621.66,-1327.17 3631.77,-1330.34 3631.54,-1323.34"/>
</g>
<!-- 44&#45;&gt;18 -->
<g id="edge47" class="edge">
<title>44&#45;&gt;18</title>
<path fill="none" stroke="black" d="M3479.52,-581.36C3538.52,-569.53 3630.21,-551.14 3694.87,-538.17"/>
<polygon fill="black" stroke="black" points="3695.21,-541.67 3704.33,-536.27 3693.83,-534.81 3695.21,-541.67"/>
</g>
<!-- 45&#45;&gt;11 -->
<g id="edge51" class="edge">
<title>45&#45;&gt;11</title>
<path fill="none" stroke="black" d="M2274.89,-818.23C2318.69,-807.35 2382.17,-791.6 2431.44,-779.37"/>
<polygon fill="black" stroke="black" points="2432.03,-782.83 2440.9,-777.02 2430.35,-776.03 2432.03,-782.83"/>
</g>
<!-- 45&#45;&gt;13 -->
<g id="edge52" class="edge">
<title>45&#45;&gt;13</title>
<path fill="none" stroke="black" d="M2178.58,-817.07C2143.43,-806.18 2094.27,-790.96 2056.04,-779.12"/>
<polygon fill="black" stroke="black" points="2057.1,-775.78 2046.51,-776.16 2055.03,-782.46 2057.1,-775.78"/>
</g>
<!-- 45&#45;&gt;15 -->
<g id="edge53" class="edge">
<title>45&#45;&gt;15</title>
<path fill="none" stroke="black" d="M2223.5,-813.68C2223.5,-806.39 2223.5,-797.71 2223.5,-789.52"/>
<polygon fill="black" stroke="black" points="2227,-789.6 2223.5,-779.6 2220,-789.6 2227,-789.6"/>
</g>
<!-- 45&#45;&gt;24 -->
<g id="edge55" class="edge">
<title>45&#45;&gt;24</title>
<path fill="none" stroke="black" d="M2277.25,-818.86C2287.57,-816.92 2298.33,-815.17 2308.5,-813.98 2770.1,-760.23 2889.06,-794.22 3353.5,-777.98 3396.24,-776.49 3441.12,-774.91 3485.57,-773.34"/>
<polygon fill="black" stroke="black" points="3485.48,-776.84 3495.35,-772.99 3485.23,-769.85 3485.48,-776.84"/>
</g>
<!-- 45&#45;&gt;26 -->
<g id="edge56" class="edge">
<title>45&#45;&gt;26</title>
<path fill="none" stroke="black" d="M2277.71,-818.86C2287.9,-816.95 2298.49,-815.2 2308.5,-813.98 2658.27,-771.31 2749.55,-809.57 3100.5,-777.98 3110.94,-777.04 3121.85,-775.87 3132.68,-774.57"/>
<polygon fill="black" stroke="black" points="3132.93,-778.07 3142.43,-773.37 3132.08,-771.12 3132.93,-778.07"/>
</g>
<!-- 45&#45;&gt;38 -->
<g id="edge49" class="edge">
<title>45&#45;&gt;38</title>
<path fill="none" stroke="black" d="M2278.69,-819.15C2288.59,-817.25 2298.83,-815.44 2308.5,-813.98 2464.88,-790.45 2518.74,-843.89 2662.5,-777.98 2683.65,-768.29 2679.29,-751.54 2700.5,-741.98 2723.53,-731.6 3002.06,-709.02 3206.06,-693.65"/>
<polygon fill="black" stroke="black" points="3206.02,-697.17 3215.73,-692.93 3205.49,-690.19 3206.02,-697.17"/>
</g>
<!-- 45&#45;&gt;40 -->
<g id="edge50" class="edge">
<title>45&#45;&gt;40</title>
<path fill="none" stroke="black" d="M2152.68,-824.86C2032.73,-814.5 1785.56,-793.14 1610.1,-777.97"/>
<polygon fill="black" stroke="black" points="1610.43,-774.49 1600.16,-777.11 1609.82,-781.46 1610.43,-774.49"/>
</g>
<!-- 51 -->
<g id="node52" class="node">
<title>51</title>
<ellipse fill="none" stroke="black" cx="640.5" cy="-759.98" rx="279.62" ry="18"/>
<text text-anchor="middle" x="640.5" y="-754.93" font-family="Times New Roman,serif" font-size="14.00">Klaasje (Miss Oranje Disco Dancer): &quot;Easier that way.&quot; She takes a sip.</text>
</g>
<!-- 45&#45;&gt;51 -->
<g id="edge54" class="edge">
<title>45&#45;&gt;51</title>
<path fill="none" stroke="black" d="M2148.36,-828.37C1949.44,-821.37 1392.66,-801.09 929.5,-777.98 903.47,-776.68 876.13,-775.21 849.07,-773.7"/>
<polygon fill="black" stroke="black" points="849.6,-770.22 839.42,-773.15 849.21,-777.21 849.6,-770.22"/>
</g>
<!-- 58 -->
<g id="node59" class="node">
<title>58</title>
<ellipse fill="none" stroke="black" cx="2900.5" cy="-759.98" rx="190.56" ry="18"/>
<text text-anchor="middle" x="2900.5" y="-754.93" font-family="Times New Roman,serif" font-size="14.00">Composure: There&#39;s a nod, the smallest of nods.</text>
</g>
<!-- 45&#45;&gt;58 -->
<g id="edge48" class="edge">
<title>45&#45;&gt;58</title>
<path fill="none" stroke="black" d="M2278.22,-819.13C2288.26,-817.22 2298.67,-815.4 2308.5,-813.98 2351.04,-807.84 2589,-787.24 2749.97,-773.61"/>
<polygon fill="black" stroke="black" points="2750.25,-777.1 2759.92,-772.76 2749.66,-770.12 2750.25,-777.1"/>
</g>
<!-- 46&#45;&gt;35 -->
<g id="edge57" class="edge">
<title>46&#45;&gt;35</title>
<path fill="none" stroke="black" d="M3092.94,-1318.44C2982.32,-1305.13 2830.27,-1286.85 2735.76,-1275.48"/>
<polygon fill="black" stroke="black" points="2736.38,-1272.03 2726.03,-1274.31 2735.54,-1278.98 2736.38,-1272.03"/>
</g>
<!-- 47&#45;&gt;23 -->
<g id="edge58" class="edge">
<title>47&#45;&gt;23</title>
<path fill="none" stroke="black" d="M1041.37,-1184.24C873.07,-1175.83 612.01,-1159.85 515.5,-1137.98 412.23,-1114.58 294.5,-1154.87 294.5,-1048.98 294.5,-1048.98 294.5,-1048.98 294.5,-593 294.5,-551.11 298.35,-535.9 325.5,-504 336.76,-490.77 352.18,-480.3 367.46,-472.28"/>
<polygon fill="black" stroke="black" points="368.66,-475.59 376.08,-468.03 365.56,-469.31 368.66,-475.59"/>
</g>
<!-- 48&#45;&gt;12 -->
<g id="edge59" class="edge">
<title>48&#45;&gt;12</title>
<path fill="none" stroke="black" d="M974.46,-658.62C947.87,-645.8 911.64,-628.33 883.87,-614.95"/>
<polygon fill="black" stroke="black" points="885.57,-611.88 875.04,-610.69 882.53,-618.18 885.57,-611.88"/>
</g>
<!-- 49&#45;&gt;5 -->
<g id="edge60" class="edge">
<title>49&#45;&gt;5</title>
<path fill="none" stroke="black" d="M2186.5,-359.7C2186.5,-352.41 2186.5,-343.73 2186.5,-335.54"/>
<polygon fill="black" stroke="black" points="2190,-335.62 2186.5,-325.62 2183,-335.62 2190,-335.62"/>
</g>
<!-- 50&#45;&gt;2 -->
<g id="edge61" class="edge">
<title>50&#45;&gt;2</title>
<path fill="none" stroke="black" d="M2198.5,-647.66C2198.5,-639.79 2198.5,-631.24 2198.5,-623.36"/>
<polygon fill="black" stroke="black" points="2202,-623.61 2198.5,-613.61 2195,-623.61 2202,-623.61"/>
</g>
<!-- 51&#45;&gt;27 -->
<g id="edge62" class="edge">
<title>51&#45;&gt;27</title>
<path fill="none" stroke="black" d="M761.02,-776.65C986.83,-805.92 1489.06,-870.58 1912.5,-921.98 2023.77,-935.49 2150.4,-950.15 2241.94,-960.62"/>
<polygon fill="black" stroke="black" points="2241.37,-964.08 2251.7,-961.74 2242.16,-957.13 2241.37,-964.08"/>
</g>
<!-- 52&#45;&gt;28 -->
<g id="edge63" class="edge">
<title>52&#45;&gt;28</title>
<path fill="none" stroke="black" d="M499.48,-537.84C415.26,-555.64 332.5,-594 332.5,-675.99 332.5,-1048.98 332.5,-1048.98 332.5,-1048.98 332.5,-1146.67 1744.16,-1179.08 2296.06,-1188.02"/>
<polygon fill="black" stroke="black" points="2295.77,-1191.52 2305.82,-1188.18 2295.88,-1184.52 2295.77,-1191.52"/>
</g>
<!-- 53&#45;&gt;23 -->
<g id="edge64" class="edge">
<title>53&#45;&gt;23</title>
<path fill="none" stroke="black" d="M1243.03,-506.75C1037.32,-492.76 729.8,-471.84 555.85,-460"/>
<polygon fill="black" stroke="black" points="556.31,-456.53 546.1,-459.34 555.84,-463.51 556.31,-456.53"/>
</g>
<!-- 56 -->
<g id="node57" class="node">
<title>56</title>
<polygon fill="none" stroke="black" points="1727.5,-180 984.63,-162 1727.5,-144 2470.37,-162 1727.5,-180"/>
<text text-anchor="middle" x="1727.5" y="-156.95" font-family="Times New Roman,serif" font-size="14.00">!(Variable[&quot;TASK.arrest_klaasje_done&quot;] == false &#160;or &#160;Variable[&quot;TASK.enter_cavern_done&quot;] == false &#160;or &#160;IsHourBetween(7, 22) == false)</text>
</g>
<!-- 54&#45;&gt;56 -->
<g id="edge65" class="edge">
<title>54&#45;&gt;56</title>
<path fill="none" stroke="black" d="M2074.8,-215.97C2002.76,-204.98 1909.48,-190.75 1837.73,-179.81"/>
<polygon fill="black" stroke="black" points="1838.31,-176.36 1827.9,-178.31 1837.26,-183.28 1838.31,-176.36"/>
</g>
<!-- 57 -->
<g id="node58" class="node">
<title>57</title>
<ellipse fill="none" stroke="black" cx="2646.5" cy="-162" rx="157.81" ry="18"/>
<text text-anchor="middle" x="2646.5" y="-156.95" font-family="Times New Roman,serif" font-size="14.00">You: I did the right thing. I know I did.</text>
</g>
<!-- 54&#45;&gt;57 -->
<g id="edge66" class="edge">
<title>54&#45;&gt;57</title>
<path fill="none" stroke="black" d="M2298.44,-215.97C2373.19,-204.59 2470.76,-189.74 2543.57,-178.66"/>
<polygon fill="black" stroke="black" points="2543.73,-182.18 2553.09,-177.22 2542.67,-175.26 2543.73,-182.18"/>
</g>
<!-- 55 -->
<g id="node56" class="node">
<title>55</title>
<polygon fill="none" stroke="black" points="4867.5,-1641.98 4137.66,-1623.98 4867.5,-1605.98 5597.34,-1623.98 4867.5,-1641.98"/>
<text text-anchor="middle" x="4867.5" y="-1618.93" font-family="Times New Roman,serif" font-size="14.00">Variable[&quot;TASK.arrest_klaasje_done&quot;] == false &#160;or &#160;Variable[&quot;TASK.enter_cavern_done&quot;] == false &#160;or &#160;IsHourBetween(7, 22) == false</text>
</g>
<!-- 57&#45;&gt;16 -->
<g id="edge67" class="edge">
<title>57&#45;&gt;16</title>
<path fill="none" stroke="black" d="M2646.5,-143.7C2646.5,-136.41 2646.5,-127.73 2646.5,-119.54"/>
<polygon fill="black" stroke="black" points="2650,-119.62 2646.5,-109.62 2643,-119.62 2650,-119.62"/>
</g>
<!-- 58&#45;&gt;22 -->
<g id="edge68" class="edge">
<title>58&#45;&gt;22</title>
<path fill="none" stroke="black" d="M3034.79,-746.85C3056.42,-745.09 3078.57,-743.4 3099.5,-741.98 3421.39,-720.25 3502.8,-730.33 3824.5,-705.98 3881.34,-701.68 3944.64,-695.35 3996.17,-689.79"/>
<polygon fill="black" stroke="black" points="3996.24,-693.3 4005.81,-688.74 3995.49,-686.34 3996.24,-693.3"/>
</g>
</g>
</svg>
