<?xml version="1.0" encoding="UTF-8" standalone="no"?>
<!DOCTYPE svg PUBLIC "-//W3C//DTD SVG 1.1//EN"
 "http://www.w3.org/Graphics/SVG/1.1/DTD/svg11.dtd">
<!-- Generated by graphviz version 12.2.1 (20241206.2353)
 -->
<!-- Title: G Pages: 1 -->
<svg width="1839pt" height="476pt"
 viewBox="0.00 0.00 1839.24 476.00" xmlns="http://www.w3.org/2000/svg" xmlns:xlink="http://www.w3.org/1999/xlink">
<g id="graph0" class="graph" transform="scale(1 1) rotate(0) translate(4 472)">
<title>G</title>
<polygon fill="white" stroke="none" points="-4,4 -4,-472 1835.24,-472 1835.24,4 -4,4"/>
<!-- 0 -->
<g id="node1" class="node">
<title>0</title>
<ellipse fill="none" stroke="black" cx="996.5" cy="-450" rx="39.07" ry="18"/>
<text text-anchor="middle" x="996.5" y="-444.95" font-family="Times New Roman,serif" font-size="14.00">START</text>
</g>
<!-- 1 -->
<g id="node2" class="node">
<title>1</title>
<ellipse fill="none" stroke="black" cx="996.5" cy="-378" rx="29.86" ry="18"/>
<text text-anchor="middle" x="996.5" y="-372.95" font-family="Times New Roman,serif" font-size="14.00">input</text>
</g>
<!-- 0&#45;&gt;1 -->
<g id="edge1" class="edge">
<title>0&#45;&gt;1</title>
<path fill="none" stroke="black" d="M996.5,-431.7C996.5,-424.41 996.5,-415.73 996.5,-407.54"/>
<polygon fill="black" stroke="black" points="1000.01,-407.62 996.5,-397.62 993.01,-407.62 1000.01,-407.62"/>
</g>
<!-- 10 -->
<g id="node11" class="node">
<title>10</title>
<ellipse fill="none" stroke="black" cx="996.5" cy="-306" rx="383.51" ry="18"/>
<text text-anchor="middle" x="996.5" y="-300.95" font-family="Times New Roman,serif" font-size="14.00">Esprit de Corps: Okay, the man with the sunglasses and his *hypothetical Station 41*. Weird, right?</text>
</g>
<!-- 1&#45;&gt;10 -->
<g id="edge2" class="edge">
<title>1&#45;&gt;10</title>
<path fill="none" stroke="black" d="M996.5,-359.7C996.5,-352.41 996.5,-343.73 996.5,-335.54"/>
<polygon fill="black" stroke="black" points="1000.01,-335.62 996.5,-325.62 993.01,-335.62 1000.01,-335.62"/>
</g>
<!-- 2 -->
<g id="node3" class="node">
<title>2</title>
<ellipse fill="none" stroke="black" cx="410.5" cy="-234" rx="110.72" ry="18"/>
<text text-anchor="middle" x="410.5" y="-228.95" font-family="Times New Roman,serif" font-size="14.00">You: I know! Super weird.</text>
</g>
<!-- 12 -->
<g id="node12" class="node">
<title>12</title>
<ellipse fill="none" stroke="black" cx="751.5" cy="-162" rx="751.5" ry="18"/>
<text text-anchor="middle" x="751.5" y="-156.95" font-family="Times New Roman,serif" font-size="14.00">Esprit de Corps: There&#39;s something we&#39;re missing here... something you can&#39;t put our finger on. You know what &#45;&#45; just ask him. I know it sounds crazy (and you&#39;ll probably get laughed at). But still...</text>
</g>
<!-- 2&#45;&gt;12 -->
<g id="edge3" class="edge">
<title>2&#45;&gt;12</title>
<path fill="none" stroke="black" d="M477.47,-219.25C528.29,-208.82 598.87,-194.33 655.67,-182.67"/>
<polygon fill="black" stroke="black" points="656.26,-186.12 665.35,-180.68 654.86,-179.27 656.26,-186.12"/>
</g>
<!-- 3 -->
<g id="node4" class="node">
<title>3</title>
<ellipse fill="none" stroke="black" cx="751.5" cy="-234" rx="212.06" ry="18"/>
<text text-anchor="middle" x="751.5" y="-228.95" font-family="Times New Roman,serif" font-size="14.00">You: No, this whole interaction was perfectly normal.</text>
</g>
<!-- 3&#45;&gt;12 -->
<g id="edge4" class="edge">
<title>3&#45;&gt;12</title>
<path fill="none" stroke="black" d="M751.5,-215.7C751.5,-208.41 751.5,-199.73 751.5,-191.54"/>
<polygon fill="black" stroke="black" points="755.01,-191.62 751.5,-181.62 748.01,-191.62 755.01,-191.62"/>
</g>
<!-- 4 -->
<g id="node5" class="node">
<title>4</title>
<ellipse fill="none" stroke="black" cx="469.5" cy="-90" rx="204.38" ry="18"/>
<text text-anchor="middle" x="469.5" y="-84.95" font-family="Times New Roman,serif" font-size="14.00">You: It&#39;s impossible. I don&#39;t want to waste my time.</text>
</g>
<!-- 9 -->
<g id="node10" class="node">
<title>9</title>
<ellipse fill="none" stroke="black" cx="469.5" cy="-18" rx="196.7" ry="18"/>
<text text-anchor="middle" x="469.5" y="-12.95" font-family="Times New Roman,serif" font-size="14.00">Esprit de Corps: Of course. Yes. It&#39;s preposterous.</text>
</g>
<!-- 4&#45;&gt;9 -->
<g id="edge5" class="edge">
<title>4&#45;&gt;9</title>
<path fill="none" stroke="black" d="M469.5,-71.7C469.5,-64.41 469.5,-55.73 469.5,-47.54"/>
<polygon fill="black" stroke="black" points="473.01,-47.62 469.5,-37.62 466.01,-47.62 473.01,-47.62"/>
</g>
<!-- 5 -->
<g id="node6" class="node">
<title>5</title>
<ellipse fill="none" stroke="black" cx="1242.5" cy="-234" rx="261.19" ry="18"/>
<text text-anchor="middle" x="1242.5" y="-228.95" font-family="Times New Roman,serif" font-size="14.00">You: Frankly I&#39;m way past caring or wondering. [Discard thought.]</text>
</g>
<!-- 6 -->
<g id="node7" class="node">
<title>6</title>
<ellipse fill="none" stroke="black" cx="1033.5" cy="-18" rx="289.85" ry="18"/>
<text text-anchor="middle" x="1033.5" y="-12.95" font-family="Times New Roman,serif" font-size="14.00">Esprit de Corps: Yes. Just cross it off the list. It&#39;s probably not true though.</text>
</g>
<!-- 7 -->
<g id="node8" class="node">
<title>7</title>
<ellipse fill="none" stroke="black" cx="1676.5" cy="-234" rx="154.74" ry="18"/>
<text text-anchor="middle" x="1676.5" y="-228.95" font-family="Times New Roman,serif" font-size="14.00">You: I guess it was kind of weird, yes.</text>
</g>
<!-- 7&#45;&gt;12 -->
<g id="edge6" class="edge">
<title>7&#45;&gt;12</title>
<path fill="none" stroke="black" d="M1566.28,-221.06C1548.32,-219.26 1529.9,-217.51 1512.5,-216 1352.24,-202.12 1172.75,-189.48 1028.35,-180.03"/>
<polygon fill="black" stroke="black" points="1028.85,-176.55 1018.65,-179.39 1028.4,-183.54 1028.85,-176.55"/>
</g>
<!-- 8 -->
<g id="node9" class="node">
<title>8</title>
<ellipse fill="none" stroke="black" cx="1033.5" cy="-90" rx="342.06" ry="18"/>
<text text-anchor="middle" x="1033.5" y="-84.95" font-family="Times New Roman,serif" font-size="14.00">You: I was thinking the same thing. I should just ask him if we&#39;re from the same station.</text>
</g>
<!-- 8&#45;&gt;6 -->
<g id="edge7" class="edge">
<title>8&#45;&gt;6</title>
<path fill="none" stroke="black" d="M1033.5,-71.7C1033.5,-64.41 1033.5,-55.73 1033.5,-47.54"/>
<polygon fill="black" stroke="black" points="1037.01,-47.62 1033.5,-37.62 1030.01,-47.62 1037.01,-47.62"/>
</g>
<!-- 10&#45;&gt;2 -->
<g id="edge8" class="edge">
<title>10&#45;&gt;2</title>
<path fill="none" stroke="black" d="M846.32,-288.98C754.94,-278.97 635.91,-265.46 530.5,-252 521.35,-250.83 511.82,-249.56 502.3,-248.27"/>
<polygon fill="black" stroke="black" points="503.03,-244.84 492.65,-246.94 502.08,-251.77 503.03,-244.84"/>
</g>
<!-- 10&#45;&gt;3 -->
<g id="edge9" class="edge">
<title>10&#45;&gt;3</title>
<path fill="none" stroke="black" d="M936.26,-287.79C901.33,-277.81 857.21,-265.2 820.85,-254.81"/>
<polygon fill="black" stroke="black" points="821.86,-251.46 811.28,-252.08 819.94,-258.19 821.86,-251.46"/>
</g>
<!-- 10&#45;&gt;5 -->
<g id="edge10" class="edge">
<title>10&#45;&gt;5</title>
<path fill="none" stroke="black" d="M1057,-287.79C1091.81,-277.88 1135.71,-265.39 1172.07,-255.04"/>
<polygon fill="black" stroke="black" points="1172.98,-258.42 1181.64,-252.32 1171.06,-251.69 1172.98,-258.42"/>
</g>
<!-- 10&#45;&gt;7 -->
<g id="edge11" class="edge">
<title>10&#45;&gt;7</title>
<path fill="none" stroke="black" d="M1151.74,-289.09C1254.18,-278.59 1391.35,-264.5 1512.5,-252 1525.52,-250.66 1539.11,-249.25 1552.66,-247.85"/>
<polygon fill="black" stroke="black" points="1552.93,-251.34 1562.52,-246.83 1552.21,-244.38 1552.93,-251.34"/>
</g>
<!-- 12&#45;&gt;4 -->
<g id="edge13" class="edge">
<title>12&#45;&gt;4</title>
<path fill="none" stroke="black" d="M681.43,-143.61C640.56,-133.46 588.92,-120.64 546.85,-110.2"/>
<polygon fill="black" stroke="black" points="547.84,-106.84 537.29,-107.83 546.15,-113.63 547.84,-106.84"/>
</g>
<!-- 12&#45;&gt;8 -->
<g id="edge12" class="edge">
<title>12&#45;&gt;8</title>
<path fill="none" stroke="black" d="M821.58,-143.61C861.71,-133.65 912.2,-121.11 953.84,-110.78"/>
<polygon fill="black" stroke="black" points="954.44,-114.23 963.3,-108.43 952.75,-107.44 954.44,-114.23"/>
</g>
</g>
</svg>
