<?xml version="1.0" encoding="UTF-8" standalone="no"?>
<!DOCTYPE svg PUBLIC "-//W3C//DTD SVG 1.1//EN"
 "http://www.w3.org/Graphics/SVG/1.1/DTD/svg11.dtd">
<!-- Generated by graphviz version 12.2.1 (20241206.2353)
 -->
<!-- Title: G Pages: 1 -->
<svg width="4514pt" height="116pt"
 viewBox="0.00 0.00 4514.23 116.00" xmlns="http://www.w3.org/2000/svg" xmlns:xlink="http://www.w3.org/1999/xlink">
<g id="graph0" class="graph" transform="scale(1 1) rotate(0) translate(4 112)">
<title>G</title>
<polygon fill="white" stroke="none" points="-4,4 -4,-112 4510.23,-112 4510.23,4 -4,4"/>
<!-- 0 -->
<g id="node1" class="node">
<title>0</title>
<ellipse fill="none" stroke="black" cx="1238.11" cy="-90" rx="39.07" ry="18"/>
<text text-anchor="middle" x="1238.11" y="-84.95" font-family="Times New Roman,serif" font-size="14.00">START</text>
</g>
<!-- 0&#45;&gt;0 -->
<g id="edge1" class="edge">
<title>0&#45;&gt;0</title>
<path fill="none" stroke="black" d="M1266.29,-102.94C1281.41,-105.14 1295.17,-100.83 1295.17,-90 1295.17,-81.96 1287.59,-77.52 1277.5,-76.65"/>
<polygon fill="black" stroke="black" points="1277.67,-73.15 1267.81,-77 1277.93,-80.14 1277.67,-73.15"/>
</g>
<!-- 1 -->
<g id="node2" class="node">
<title>1</title>
<ellipse fill="none" stroke="black" cx="1343.11" cy="-90" rx="29.86" ry="18"/>
<text text-anchor="middle" x="1343.11" y="-84.95" font-family="Times New Roman,serif" font-size="14.00">input</text>
</g>
<!-- 1&#45;&gt;1 -->
<g id="edge2" class="edge">
<title>1&#45;&gt;1</title>
<path fill="none" stroke="black" d="M1364.76,-102.55C1378.19,-105.57 1390.96,-101.39 1390.96,-90 1390.96,-81.99 1384.64,-77.55 1376.23,-76.66"/>
<polygon fill="black" stroke="black" points="1376.01,-73.17 1366.27,-77.35 1376.49,-80.15 1376.01,-73.17"/>
</g>
<!-- 4 -->
<g id="node5" class="node">
<title>4</title>
<ellipse fill="none" stroke="black" cx="344.11" cy="-18" rx="344.11" ry="18"/>
<text text-anchor="middle" x="344.11" y="-12.95" font-family="Times New Roman,serif" font-size="14.00">Eugene: &quot;I wrote a song about the fight, anybody wanna hear it, or...? Too soon, I get it.&quot;</text>
</g>
<!-- 1&#45;&gt;4 -->
<g id="edge3" class="edge">
<title>1&#45;&gt;4</title>
<path fill="none" stroke="black" d="M1320.89,-77.7C1315.52,-75.43 1309.71,-73.33 1304.11,-72 1286.96,-67.93 874.41,-46.15 595.77,-31.81"/>
<polygon fill="black" stroke="black" points="596.35,-28.34 586.18,-31.32 595.99,-35.33 596.35,-28.34"/>
</g>
<!-- 5 -->
<g id="node6" class="node">
<title>5</title>
<ellipse fill="none" stroke="black" cx="883.11" cy="-18" rx="176.74" ry="18"/>
<text text-anchor="middle" x="883.11" y="-12.95" font-family="Times New Roman,serif" font-size="14.00">Eugene: &quot;One day I&#39;ll write a song about it.&quot;</text>
</g>
<!-- 1&#45;&gt;5 -->
<g id="edge4" class="edge">
<title>1&#45;&gt;5</title>
<path fill="none" stroke="black" d="M1320.4,-77.81C1315.15,-75.59 1309.52,-73.49 1304.11,-72 1252.28,-57.76 1122.78,-42.54 1020.97,-32.08"/>
<polygon fill="black" stroke="black" points="1021.45,-28.61 1011.15,-31.07 1020.74,-35.57 1021.45,-28.61"/>
</g>
<!-- 7 -->
<g id="node8" class="node">
<title>7</title>
<ellipse fill="none" stroke="black" cx="1343.11" cy="-18" rx="264.78" ry="18"/>
<text text-anchor="middle" x="1343.11" y="-12.95" font-family="Times New Roman,serif" font-size="14.00">Eugene: &quot;Never thought I&#39;d miss the smell of Angie&#39;s rotting feet...&quot;</text>
</g>
<!-- 1&#45;&gt;7 -->
<g id="edge5" class="edge">
<title>1&#45;&gt;7</title>
<path fill="none" stroke="black" d="M1343.11,-71.7C1343.11,-64.41 1343.11,-55.73 1343.11,-47.54"/>
<polygon fill="black" stroke="black" points="1346.61,-47.62 1343.11,-37.62 1339.61,-47.62 1346.61,-47.62"/>
</g>
<!-- 9 -->
<g id="node10" class="node">
<title>9</title>
<ellipse fill="none" stroke="black" cx="1929.11" cy="-18" rx="303.16" ry="18"/>
<text text-anchor="middle" x="1929.11" y="-12.95" font-family="Times New Roman,serif" font-size="14.00">Eugene: &quot;Shit like that can turn a man into pacifist... Not me, but someone...&quot;</text>
</g>
<!-- 1&#45;&gt;9 -->
<g id="edge6" class="edge">
<title>1&#45;&gt;9</title>
<path fill="none" stroke="black" d="M1368.67,-80.25C1378.41,-77.21 1389.67,-74.06 1400.11,-72 1498.87,-52.51 1609.5,-40.01 1703.95,-32.07"/>
<polygon fill="black" stroke="black" points="1704.2,-35.57 1713.88,-31.25 1703.63,-28.59 1704.2,-35.57"/>
</g>
<!-- 10 -->
<g id="node11" class="node">
<title>10</title>
<ellipse fill="none" stroke="black" cx="2433.11" cy="-18" rx="182.37" ry="18"/>
<text text-anchor="middle" x="2433.11" y="-12.95" font-family="Times New Roman,serif" font-size="14.00">Eugene: &quot;Hardie boys are local legends now.&quot;</text>
</g>
<!-- 1&#45;&gt;10 -->
<g id="edge7" class="edge">
<title>1&#45;&gt;10</title>
<path fill="none" stroke="black" d="M1368.33,-80.02C1378.12,-76.92 1389.51,-73.78 1400.11,-72 1769.06,-10.07 1867.79,-60.5 2241.11,-36 2258.1,-34.88 2275.93,-33.54 2293.58,-32.1"/>
<polygon fill="black" stroke="black" points="2293.66,-35.61 2303.34,-31.3 2293.08,-28.63 2293.66,-35.61"/>
</g>
<!-- 2 -->
<g id="node3" class="node">
<title>2</title>
<ellipse fill="none" stroke="black" cx="1599.11" cy="-90" rx="190.05" ry="18"/>
<text text-anchor="middle" x="1599.11" y="-84.95" font-family="Times New Roman,serif" font-size="14.00">Eugene: &quot;Shit like that really makes you think.&quot;</text>
</g>
<!-- 3 -->
<g id="node4" class="node">
<title>3</title>
<ellipse fill="none" stroke="black" cx="2080.11" cy="-90" rx="272.45" ry="18"/>
<text text-anchor="middle" x="2080.11" y="-84.95" font-family="Times New Roman,serif" font-size="14.00">Eugene: &quot;What about Mañana? Think he&#39;d make a good Hardie boy?&quot;</text>
</g>
<!-- 6 -->
<g id="node7" class="node">
<title>6</title>
<ellipse fill="none" stroke="black" cx="2614.11" cy="-90" rx="243.28" ry="18"/>
<text text-anchor="middle" x="2614.11" y="-84.95" font-family="Times New Roman,serif" font-size="14.00">Eugene: &quot;Goddamn Shanky... never liked that rat&#45;faced fuck.&quot;</text>
</g>
<!-- 8 -->
<g id="node9" class="node">
<title>8</title>
<ellipse fill="none" stroke="black" cx="3099.11" cy="-90" rx="223.32" ry="18"/>
<text text-anchor="middle" x="3099.11" y="-84.95" font-family="Times New Roman,serif" font-size="14.00">Eugene: &quot;Strange... I even miss Angie&#39;s loud stomach...&quot;</text>
</g>
<!-- 11 -->
<g id="node12" class="node">
<title>11</title>
<ellipse fill="none" stroke="black" cx="3569.11" cy="-90" rx="228.44" ry="18"/>
<text text-anchor="middle" x="3569.11" y="-84.95" font-family="Times New Roman,serif" font-size="14.00">Eugene: &quot;Think Mañana could make a good Hardie boy?&quot;</text>
</g>
<!-- 12 -->
<g id="node13" class="node">
<title>12</title>
<ellipse fill="none" stroke="black" cx="4161.11" cy="-90" rx="345.13" ry="18"/>
<text text-anchor="middle" x="4161.11" y="-84.95" font-family="Times New Roman,serif" font-size="14.00">Eugene: &quot;Word on the street is: &#39;Outgunned, the Hardie boys kill twenty Krenel mercs...&#39;&quot;</text>
</g>
</g>
</svg>
