<?xml version="1.0" encoding="UTF-8" standalone="no"?>
<!DOCTYPE svg PUBLIC "-//W3C//DTD SVG 1.1//EN"
 "http://www.w3.org/Graphics/SVG/1.1/DTD/svg11.dtd">
<!-- Generated by graphviz version 12.2.1 (20241206.2353)
 -->
<!-- Title: G Pages: 1 -->
<svg width="4376pt" height="1196pt"
 viewBox="0.00 0.00 4375.70 1196.00" xmlns="http://www.w3.org/2000/svg" xmlns:xlink="http://www.w3.org/1999/xlink">
<g id="graph0" class="graph" transform="scale(1 1) rotate(0) translate(4 1192)">
<title>G</title>
<polygon fill="white" stroke="none" points="-4,4 -4,-1192 4371.7,-1192 4371.7,4 -4,4"/>
<!-- 0 -->
<g id="node1" class="node">
<title>0</title>
<ellipse fill="none" stroke="black" cx="2640.67" cy="-1170" rx="39.07" ry="18"/>
<text text-anchor="middle" x="2640.67" y="-1164.95" font-family="Times New Roman,serif" font-size="14.00">START</text>
</g>
<!-- 1 -->
<g id="node2" class="node">
<title>1</title>
<ellipse fill="none" stroke="black" cx="2640.67" cy="-1098" rx="29.86" ry="18"/>
<text text-anchor="middle" x="2640.67" y="-1092.95" font-family="Times New Roman,serif" font-size="14.00">input</text>
</g>
<!-- 0&#45;&gt;1 -->
<g id="edge1" class="edge">
<title>0&#45;&gt;1</title>
<path fill="none" stroke="black" d="M2640.67,-1151.7C2640.67,-1144.41 2640.67,-1135.73 2640.67,-1127.54"/>
<polygon fill="black" stroke="black" points="2644.17,-1127.62 2640.67,-1117.62 2637.17,-1127.62 2644.17,-1127.62"/>
</g>
<!-- 31 -->
<g id="node31" class="node">
<title>31</title>
<ellipse fill="none" stroke="black" cx="2640.67" cy="-1026" rx="813.95" ry="18"/>
<text text-anchor="middle" x="2640.67" y="-1020.95" font-family="Times New Roman,serif" font-size="14.00">Limbic System: It&#39;s easier, this time, drifting off. Your head has found a comfortable indent in the pillow. Your legs and your torso feel like lead weights sinking to the bottom of the sea, until they&#39;re suddenly light...</text>
</g>
<!-- 1&#45;&gt;31 -->
<g id="edge2" class="edge">
<title>1&#45;&gt;31</title>
<path fill="none" stroke="black" d="M2640.67,-1079.7C2640.67,-1072.41 2640.67,-1063.73 2640.67,-1055.54"/>
<polygon fill="black" stroke="black" points="2644.17,-1055.62 2640.67,-1045.62 2637.17,-1055.62 2644.17,-1055.62"/>
</g>
<!-- 2 -->
<g id="node3" class="node">
<title>2</title>
<ellipse fill="none" stroke="black" cx="1222.67" cy="-810" rx="162.41" ry="18"/>
<text text-anchor="middle" x="1222.67" y="-804.95" font-family="Times New Roman,serif" font-size="14.00">You: Sing along &#45;&#45; in silent communion.</text>
</g>
<!-- 18 -->
<g id="node19" class="node">
<title>18</title>
<ellipse fill="none" stroke="black" cx="628.67" cy="-738" rx="628.67" ry="18"/>
<text text-anchor="middle" x="628.67" y="-732.95" font-family="Times New Roman,serif" font-size="14.00">Ancient Reptilian Brain: Blackness, blackness, blackness. The ultimate disco. The ruins of your life behind you, still smouldering. Ashes rise. But you&#39;re not looking.</text>
</g>
<!-- 2&#45;&gt;18 -->
<g id="edge3" class="edge">
<title>2&#45;&gt;18</title>
<path fill="none" stroke="black" d="M1114.41,-796.24C1021.99,-785.35 887.94,-769.55 784.06,-757.31"/>
<polygon fill="black" stroke="black" points="784.67,-753.86 774.33,-756.17 783.85,-760.81 784.67,-753.86"/>
</g>
<!-- 3 -->
<g id="node4" class="node">
<title>3</title>
<ellipse fill="none" stroke="black" cx="1974.67" cy="-738" rx="699.81" ry="18"/>
<text text-anchor="middle" x="1974.67" y="-732.95" font-family="Times New Roman,serif" font-size="14.00">Ancient Reptilian Brain: This is greatest hits material. Black tape spinning and spinning and spinning... You finally tired yourself. Cornered the flicker of your mind and extinguished it.</text>
</g>
<!-- 12 -->
<g id="node13" class="node">
<title>12</title>
<ellipse fill="none" stroke="black" cx="1995.67" cy="-666" rx="210.52" ry="18"/>
<text text-anchor="middle" x="1995.67" y="-660.95" font-family="Times New Roman,serif" font-size="14.00">Limbic System: For now &#45;&#45; a little while &#45;&#45; you can...</text>
</g>
<!-- 3&#45;&gt;12 -->
<g id="edge4" class="edge">
<title>3&#45;&gt;12</title>
<path fill="none" stroke="black" d="M1979.86,-719.7C1982.1,-712.24 1984.77,-703.32 1987.28,-694.97"/>
<polygon fill="black" stroke="black" points="1990.58,-696.14 1990.1,-685.55 1983.88,-694.13 1990.58,-696.14"/>
</g>
<!-- 4 -->
<g id="node5" class="node">
<title>4</title>
<ellipse fill="none" stroke="black" cx="3030.67" cy="-1098" rx="66.71" ry="18"/>
<text text-anchor="middle" x="3030.67" y="-1092.95" font-family="Times New Roman,serif" font-size="14.00">You: Oh god...</text>
</g>
<!-- 5 -->
<g id="node6" class="node">
<title>5</title>
<ellipse fill="none" stroke="black" cx="3636.67" cy="-594" rx="113.28" ry="18"/>
<text text-anchor="middle" x="3636.67" y="-588.95" font-family="Times New Roman,serif" font-size="14.00">You: Is this the last dream?</text>
</g>
<!-- 6 -->
<g id="node7" class="node">
<title>6</title>
<ellipse fill="none" stroke="black" cx="3301.67" cy="-522" rx="576.47" ry="18"/>
<text text-anchor="middle" x="3301.67" y="-516.95" font-family="Times New Roman,serif" font-size="14.00">Ancient Reptilian Brain: No. This is the one before that. We&#39;ll just keep cycling it for you, if you don&#39;t mind. As long as we can. Spin it like black yarn.</text>
</g>
<!-- 5&#45;&gt;6 -->
<g id="edge5" class="edge">
<title>5&#45;&gt;6</title>
<path fill="none" stroke="black" d="M3570.09,-579.09C3520.09,-568.64 3450.96,-554.2 3395.38,-542.58"/>
<polygon fill="black" stroke="black" points="3396.44,-539.23 3385.94,-540.61 3395.01,-546.08 3396.44,-539.23"/>
</g>
<!-- 27 -->
<g id="node27" class="node">
<title>27</title>
<ellipse fill="none" stroke="black" cx="3301.67" cy="-450" rx="155.25" ry="18"/>
<text text-anchor="middle" x="3301.67" y="-444.95" font-family="Times New Roman,serif" font-size="14.00">Limbic System: Enjoy it while it lasts.</text>
</g>
<!-- 6&#45;&gt;27 -->
<g id="edge6" class="edge">
<title>6&#45;&gt;27</title>
<path fill="none" stroke="black" d="M3301.67,-503.7C3301.67,-496.41 3301.67,-487.73 3301.67,-479.54"/>
<polygon fill="black" stroke="black" points="3305.17,-479.62 3301.67,-469.62 3298.17,-479.62 3305.17,-479.62"/>
</g>
<!-- 7 -->
<g id="node8" class="node">
<title>7</title>
<ellipse fill="none" stroke="black" cx="2640.67" cy="-954" rx="162.93" ry="18"/>
<text text-anchor="middle" x="2640.67" y="-948.95" font-family="Times New Roman,serif" font-size="14.00">Variable[&quot;whirling.lackout_dream_had&quot;]</text>
</g>
<!-- 8 -->
<g id="node9" class="node">
<title>8</title>
<polygon fill="none" stroke="black" points="2394.67,-900 2164.26,-882 2394.67,-864 2625.08,-882 2394.67,-900"/>
<text text-anchor="middle" x="2394.67" y="-876.95" font-family="Times New Roman,serif" font-size="14.00">Variable[&quot;whirling.lackout_dream_had&quot;]</text>
</g>
<!-- 7&#45;&gt;8 -->
<g id="edge7" class="edge">
<title>7&#45;&gt;8</title>
<path fill="none" stroke="black" d="M2583.62,-936.76C2544.65,-925.68 2493.14,-911.02 2453.75,-899.81"/>
<polygon fill="black" stroke="black" points="2454.75,-896.46 2444.18,-897.09 2452.84,-903.19 2454.75,-896.46"/>
</g>
<!-- 9 -->
<g id="node10" class="node">
<title>9</title>
<polygon fill="none" stroke="black" points="3299.67,-900 3056.23,-882 3299.67,-864 3543.11,-882 3299.67,-900"/>
<text text-anchor="middle" x="3299.67" y="-876.95" font-family="Times New Roman,serif" font-size="14.00">!(Variable[&quot;whirling.lackout_dream_had&quot;])</text>
</g>
<!-- 7&#45;&gt;9 -->
<g id="edge8" class="edge">
<title>7&#45;&gt;9</title>
<path fill="none" stroke="black" d="M2755.08,-940.85C2877.73,-927.82 3071,-907.29 3191.27,-894.51"/>
<polygon fill="black" stroke="black" points="3191.6,-898 3201.18,-893.46 3190.86,-891.04 3191.6,-898"/>
</g>
<!-- 8&#45;&gt;2 -->
<g id="edge10" class="edge">
<title>8&#45;&gt;2</title>
<path fill="none" stroke="black" d="M2267.85,-873.43C2050.36,-860.44 1607.16,-833.96 1373.93,-820.03"/>
<polygon fill="black" stroke="black" points="1374.34,-816.55 1364.15,-819.45 1373.92,-823.54 1374.34,-816.55"/>
</g>
<!-- 11 -->
<g id="node12" class="node">
<title>11</title>
<ellipse fill="none" stroke="black" cx="2051.67" cy="-810" rx="132.22" ry="18"/>
<text text-anchor="middle" x="2051.67" y="-804.95" font-family="Times New Roman,serif" font-size="14.00">You: I&#39;ve heard this song before.</text>
</g>
<!-- 8&#45;&gt;11 -->
<g id="edge11" class="edge">
<title>8&#45;&gt;11</title>
<path fill="none" stroke="black" d="M2332.95,-868.4C2277.39,-857.07 2195.31,-840.31 2134.14,-827.83"/>
<polygon fill="black" stroke="black" points="2134.95,-824.42 2124.45,-825.85 2133.55,-831.28 2134.95,-824.42"/>
</g>
<!-- 17 -->
<g id="node18" class="node">
<title>17</title>
<ellipse fill="none" stroke="black" cx="2506.67" cy="-810" rx="226.9" ry="18"/>
<text text-anchor="middle" x="2506.67" y="-804.95" font-family="Times New Roman,serif" font-size="14.00">You: How many days have I been in Martinaise already...</text>
</g>
<!-- 8&#45;&gt;17 -->
<g id="edge9" class="edge">
<title>8&#45;&gt;17</title>
<path fill="none" stroke="black" d="M2419.53,-865.46C2434.29,-856.24 2453.28,-844.37 2469.77,-834.06"/>
<polygon fill="black" stroke="black" points="2471.23,-837.28 2477.85,-829.01 2467.52,-831.34 2471.23,-837.28"/>
</g>
<!-- 33 -->
<g id="node33" class="node">
<title>33</title>
<ellipse fill="none" stroke="black" cx="3636.67" cy="-810" rx="731.03" ry="18"/>
<text text-anchor="middle" x="3636.67" y="-804.95" font-family="Times New Roman,serif" font-size="14.00">Ancient Reptilian Brain: This respite &#45;&#45; you&#39;ve earned it, brother. Bask in the darkness. Let it swallow you up and swivel you around while you forget everything you&#39;ve managed to remember...</text>
</g>
<!-- 9&#45;&gt;33 -->
<g id="edge12" class="edge">
<title>9&#45;&gt;33</title>
<path fill="none" stroke="black" d="M3361.48,-868.16C3412,-857.67 3484.26,-842.66 3542.05,-830.65"/>
<polygon fill="black" stroke="black" points="3542.48,-834.14 3551.55,-828.68 3541.05,-827.29 3542.48,-834.14"/>
</g>
<!-- 10 -->
<g id="node11" class="node">
<title>10</title>
<ellipse fill="none" stroke="black" cx="3030.67" cy="-1170" rx="57.49" ry="18"/>
<text text-anchor="middle" x="3030.67" y="-1164.95" font-family="Times New Roman,serif" font-size="14.00">Untitled hub</text>
</g>
<!-- 10&#45;&gt;4 -->
<g id="edge13" class="edge">
<title>10&#45;&gt;4</title>
<path fill="none" stroke="black" d="M3030.67,-1151.7C3030.67,-1144.41 3030.67,-1135.73 3030.67,-1127.54"/>
<polygon fill="black" stroke="black" points="3034.17,-1127.62 3030.67,-1117.62 3027.17,-1127.62 3034.17,-1127.62"/>
</g>
<!-- 11&#45;&gt;3 -->
<g id="edge14" class="edge">
<title>11&#45;&gt;3</title>
<path fill="none" stroke="black" d="M2032.64,-791.7C2023.47,-783.37 2012.32,-773.22 2002.25,-764.07"/>
<polygon fill="black" stroke="black" points="2004.63,-761.5 1994.87,-757.37 1999.92,-766.68 2004.63,-761.5"/>
</g>
<!-- 32 -->
<g id="node32" class="node">
<title>32</title>
<ellipse fill="none" stroke="black" cx="2016.67" cy="-594" rx="159.85" ry="18"/>
<text text-anchor="middle" x="2016.67" y="-588.95" font-family="Times New Roman,serif" font-size="14.00">You: (Sleep. Without words or images.)</text>
</g>
<!-- 12&#45;&gt;32 -->
<g id="edge15" class="edge">
<title>12&#45;&gt;32</title>
<path fill="none" stroke="black" d="M2000.86,-647.7C2003.1,-640.24 2005.77,-631.32 2008.28,-622.97"/>
<polygon fill="black" stroke="black" points="2011.58,-624.14 2011.1,-613.55 2004.88,-622.13 2011.58,-624.14"/>
</g>
<!-- 13 -->
<g id="node14" class="node">
<title>13</title>
<ellipse fill="none" stroke="black" cx="3150.67" cy="-738" rx="458.24" ry="18"/>
<text text-anchor="middle" x="3150.67" y="-732.95" font-family="Times New Roman,serif" font-size="14.00">Ancient Reptilian Brain: There are no days here. There are no weeks. Just black tape spinning. On repeat. Until the end.</text>
</g>
<!-- 13&#45;&gt;12 -->
<g id="edge16" class="edge">
<title>13&#45;&gt;12</title>
<path fill="none" stroke="black" d="M2908.19,-722.3C2689.16,-709.03 2371.84,-689.8 2174.93,-677.86"/>
<polygon fill="black" stroke="black" points="2175.31,-674.38 2165.11,-677.27 2174.88,-681.37 2175.31,-674.38"/>
</g>
<!-- 14 -->
<g id="node15" class="node">
<title>14</title>
<ellipse fill="none" stroke="black" cx="2099.67" cy="-522" rx="565.21" ry="18"/>
<text text-anchor="middle" x="2099.67" y="-516.95" font-family="Times New Roman,serif" font-size="14.00">Limbic System: When the pictograms and the hieroglyphs of the world return, they seem silent somehow. The alarm rings quietly too. You&#39;re ready.</text>
</g>
<!-- 30 -->
<g id="node30" class="node">
<title>30</title>
<ellipse fill="none" stroke="black" cx="2287.67" cy="-378" rx="232.53" ry="18"/>
<text text-anchor="middle" x="2287.67" y="-372.95" font-family="Times New Roman,serif" font-size="14.00">Half Light: Ready &#45;&#45; but something is coming. It always is.</text>
</g>
<!-- 14&#45;&gt;30 -->
<g id="edge17" class="edge">
<title>14&#45;&gt;30</title>
<path fill="none" stroke="black" d="M2122.72,-503.59C2156.08,-478.4 2217.92,-431.68 2255.68,-403.17"/>
<polygon fill="black" stroke="black" points="2257.65,-406.06 2263.52,-397.24 2253.43,-400.48 2257.65,-406.06"/>
</g>
<!-- 15 -->
<g id="node16" class="node">
<title>15</title>
<ellipse fill="none" stroke="black" cx="2830.67" cy="-90" rx="59.54" ry="18"/>
<text text-anchor="middle" x="2830.67" y="-84.95" font-family="Times New Roman,serif" font-size="14.00">Volition: Go.</text>
</g>
<!-- 26 -->
<g id="node26" class="node">
<title>26</title>
<ellipse fill="none" stroke="black" cx="2412.67" cy="-18" rx="98.44" ry="18"/>
<text text-anchor="middle" x="2412.67" y="-12.95" font-family="Times New Roman,serif" font-size="14.00">You: [Open your eyes.]</text>
</g>
<!-- 15&#45;&gt;26 -->
<g id="edge18" class="edge">
<title>15&#45;&gt;26</title>
<path fill="none" stroke="black" d="M2779.42,-80.42C2708.38,-68.52 2579.2,-46.89 2494.67,-32.73"/>
<polygon fill="black" stroke="black" points="2495.5,-29.32 2485.06,-31.12 2494.34,-36.23 2495.5,-29.32"/>
</g>
<!-- 16 -->
<g id="node17" class="node">
<title>16</title>
<ellipse fill="none" stroke="black" cx="3853.67" cy="-1170" rx="274.5" ry="18"/>
<text text-anchor="middle" x="3853.67" y="-1164.95" font-family="Times New Roman,serif" font-size="14.00">SetVariableValue(&quot;whirling.lackout_dream_had&quot;, true) &#45;&#45;[[ Variable[ ]]</text>
</g>
<!-- 19 -->
<g id="node20" class="node">
<title>19</title>
<ellipse fill="none" stroke="black" cx="3853.67" cy="-1098" rx="129.15" ry="18"/>
<text text-anchor="middle" x="3853.67" y="-1092.95" font-family="Times New Roman,serif" font-size="14.00">SubstanceUsedMore(&quot;alcohol&quot;)</text>
</g>
<!-- 16&#45;&gt;19 -->
<g id="edge19" class="edge">
<title>16&#45;&gt;19</title>
<path fill="none" stroke="black" d="M3853.67,-1151.7C3853.67,-1144.41 3853.67,-1135.73 3853.67,-1127.54"/>
<polygon fill="black" stroke="black" points="3857.17,-1127.62 3853.67,-1117.62 3850.17,-1127.62 3857.17,-1127.62"/>
</g>
<!-- 17&#45;&gt;13 -->
<g id="edge20" class="edge">
<title>17&#45;&gt;13</title>
<path fill="none" stroke="black" d="M2636.61,-794.88C2737.92,-783.86 2879.21,-768.51 2988.03,-756.68"/>
<polygon fill="black" stroke="black" points="2988.39,-760.16 2997.95,-755.6 2987.63,-753.2 2988.39,-760.16"/>
</g>
<!-- 18&#45;&gt;12 -->
<g id="edge21" class="edge">
<title>18&#45;&gt;12</title>
<path fill="none" stroke="black" d="M926.98,-721.72C1194.86,-708.01 1579.95,-688.29 1807.31,-676.65"/>
<polygon fill="black" stroke="black" points="1807.36,-680.15 1817.17,-676.14 1807.01,-673.16 1807.36,-680.15"/>
</g>
<!-- 20 -->
<g id="node21" class="node">
<title>20</title>
<polygon fill="none" stroke="black" points="3655.67,-1044 3473.03,-1026 3655.67,-1008 3838.31,-1026 3655.67,-1044"/>
<text text-anchor="middle" x="3655.67" y="-1020.95" font-family="Times New Roman,serif" font-size="14.00">SubstanceUsedMore(&quot;alcohol&quot;)</text>
</g>
<!-- 19&#45;&gt;20 -->
<g id="edge22" class="edge">
<title>19&#45;&gt;20</title>
<path fill="none" stroke="black" d="M3807.75,-1080.76C3776.99,-1069.89 3736.52,-1055.58 3705.07,-1044.46"/>
<polygon fill="black" stroke="black" points="3706.37,-1041.21 3695.77,-1041.18 3704.04,-1047.81 3706.37,-1041.21"/>
</g>
<!-- 21 -->
<g id="node22" class="node">
<title>21</title>
<polygon fill="none" stroke="black" points="4051.67,-1044 3856,-1026 4051.67,-1008 4247.34,-1026 4051.67,-1044"/>
<text text-anchor="middle" x="4051.67" y="-1020.95" font-family="Times New Roman,serif" font-size="14.00">!(SubstanceUsedMore(&quot;alcohol&quot;))</text>
</g>
<!-- 19&#45;&gt;21 -->
<g id="edge23" class="edge">
<title>19&#45;&gt;21</title>
<path fill="none" stroke="black" d="M3899.59,-1080.76C3930.25,-1069.93 3970.55,-1055.68 4001.96,-1044.57"/>
<polygon fill="black" stroke="black" points="4002.98,-1047.93 4011.24,-1041.29 4000.65,-1041.33 4002.98,-1047.93"/>
</g>
<!-- 22 -->
<g id="node23" class="node">
<title>22</title>
<ellipse fill="none" stroke="black" cx="3301.67" cy="-378" rx="155.25" ry="18"/>
<text text-anchor="middle" x="3301.67" y="-372.95" font-family="Times New Roman,serif" font-size="14.00">You: Thank you, darkness. Thank you.</text>
</g>
<!-- 34 -->
<g id="node34" class="node">
<title>34</title>
<ellipse fill="none" stroke="black" cx="3291.67" cy="-306" rx="264.78" ry="18"/>
<text text-anchor="middle" x="3291.67" y="-300.95" font-family="Times New Roman,serif" font-size="14.00">Ancient Reptilian Brain: You&#39;re welcome, Harry&#45;boy. You earned it.</text>
</g>
<!-- 22&#45;&gt;34 -->
<g id="edge24" class="edge">
<title>22&#45;&gt;34</title>
<path fill="none" stroke="black" d="M3299.2,-359.7C3298.15,-352.32 3296.89,-343.52 3295.71,-335.25"/>
<polygon fill="black" stroke="black" points="3299.21,-335.01 3294.33,-325.6 3292.28,-336 3299.21,-335.01"/>
</g>
<!-- 24 -->
<g id="node24" class="node">
<title>24</title>
<ellipse fill="none" stroke="black" cx="3905.67" cy="-666" rx="241.23" ry="18"/>
<text text-anchor="middle" x="3905.67" y="-660.95" font-family="Times New Roman,serif" font-size="14.00">Ancient Reptilian Brain: No, you haven&#39;t. You&#39;ve just *been*.</text>
</g>
<!-- 24&#45;&gt;5 -->
<g id="edge25" class="edge">
<title>24&#45;&gt;5</title>
<path fill="none" stroke="black" d="M3841.24,-648.23C3800.15,-637.54 3746.95,-623.7 3705.1,-612.81"/>
<polygon fill="black" stroke="black" points="3706.2,-609.48 3695.64,-610.34 3704.43,-616.25 3706.2,-609.48"/>
</g>
<!-- 24&#45;&gt;22 -->
<g id="edge26" class="edge">
<title>24&#45;&gt;22</title>
<path fill="none" stroke="black" d="M3909.48,-647.59C3915.52,-614.9 3923.16,-544.05 3886.67,-504 3827.61,-439.17 3591.84,-405.47 3438.24,-390.05"/>
<polygon fill="black" stroke="black" points="3438.67,-386.57 3428.37,-389.07 3437.98,-393.54 3438.67,-386.57"/>
</g>
<!-- 25 -->
<g id="node25" class="node">
<title>25</title>
<ellipse fill="none" stroke="black" cx="3245.67" cy="-162" rx="808.83" ry="18"/>
<text text-anchor="middle" x="3245.67" y="-156.95" font-family="Times New Roman,serif" font-size="14.00">Limbic System: After centuries of darkness, the alarm rings &#45;&#45; but what&#39;s this? You *actually* feel rested. There&#39;s no time to cuddle with your pillow, however, or as much as shiver from the cold. The world awaits.</text>
</g>
<!-- 25&#45;&gt;15 -->
<g id="edge27" class="edge">
<title>25&#45;&gt;15</title>
<path fill="none" stroke="black" d="M3142.82,-143.65C3064.31,-130.41 2958.72,-112.6 2892.69,-101.46"/>
<polygon fill="black" stroke="black" points="2893.58,-98.06 2883.13,-99.85 2892.41,-104.96 2893.58,-98.06"/>
</g>
<!-- 27&#45;&gt;22 -->
<g id="edge28" class="edge">
<title>27&#45;&gt;22</title>
<path fill="none" stroke="black" d="M3301.67,-431.7C3301.67,-424.41 3301.67,-415.73 3301.67,-407.54"/>
<polygon fill="black" stroke="black" points="3305.17,-407.62 3301.67,-397.62 3298.17,-407.62 3305.17,-407.62"/>
</g>
<!-- 28 -->
<g id="node28" class="node">
<title>28</title>
<ellipse fill="none" stroke="black" cx="3271.67" cy="-234" rx="174.19" ry="18"/>
<text text-anchor="middle" x="3271.67" y="-228.95" font-family="Times New Roman,serif" font-size="14.00">You: (Fall into a deep, uninterrupted sleep.)</text>
</g>
<!-- 28&#45;&gt;25 -->
<g id="edge29" class="edge">
<title>28&#45;&gt;25</title>
<path fill="none" stroke="black" d="M3265.24,-215.7C3262.44,-208.15 3259.09,-199.12 3255.95,-190.68"/>
<polygon fill="black" stroke="black" points="3259.31,-189.68 3252.55,-181.52 3252.75,-192.12 3259.31,-189.68"/>
</g>
<!-- 29 -->
<g id="node29" class="node">
<title>29</title>
<ellipse fill="none" stroke="black" cx="3874.67" cy="-738" rx="178.79" ry="18"/>
<text text-anchor="middle" x="3874.67" y="-732.95" font-family="Times New Roman,serif" font-size="14.00">You: But I&#39;ve been bad. I haven&#39;t earned this.</text>
</g>
<!-- 29&#45;&gt;24 -->
<g id="edge30" class="edge">
<title>29&#45;&gt;24</title>
<path fill="none" stroke="black" d="M3882.33,-719.7C3885.71,-712.07 3889.77,-702.92 3893.54,-694.4"/>
<polygon fill="black" stroke="black" points="3896.63,-696.05 3897.48,-685.49 3890.23,-693.21 3896.63,-696.05"/>
</g>
<!-- 30&#45;&gt;26 -->
<g id="edge31" class="edge">
<title>30&#45;&gt;26</title>
<path fill="none" stroke="black" d="M2305.65,-359.56C2329.51,-334.44 2368.67,-285.52 2368.67,-235 2368.67,-235 2368.67,-235 2368.67,-161 2368.67,-119.76 2385.81,-74.68 2398.7,-46.62"/>
<polygon fill="black" stroke="black" points="2401.78,-48.3 2402.9,-37.76 2395.45,-45.29 2401.78,-48.3"/>
</g>
<!-- 31&#45;&gt;7 -->
<g id="edge32" class="edge">
<title>31&#45;&gt;7</title>
<path fill="none" stroke="black" d="M2640.67,-1007.7C2640.67,-1000.41 2640.67,-991.73 2640.67,-983.54"/>
<polygon fill="black" stroke="black" points="2644.17,-983.62 2640.67,-973.62 2637.17,-983.62 2644.17,-983.62"/>
</g>
<!-- 32&#45;&gt;14 -->
<g id="edge33" class="edge">
<title>32&#45;&gt;14</title>
<path fill="none" stroke="black" d="M2037.19,-575.7C2047.26,-567.2 2059.58,-556.81 2070.6,-547.51"/>
<polygon fill="black" stroke="black" points="2072.56,-550.45 2077.95,-541.32 2068.04,-545.09 2072.56,-550.45"/>
</g>
<!-- 33&#45;&gt;5 -->
<g id="edge34" class="edge">
<title>33&#45;&gt;5</title>
<path fill="none" stroke="black" d="M3636.67,-791.85C3636.67,-755.14 3636.67,-668.66 3636.67,-623.53"/>
<polygon fill="black" stroke="black" points="3640.17,-623.75 3636.67,-613.75 3633.17,-623.75 3640.17,-623.75"/>
</g>
<!-- 33&#45;&gt;29 -->
<g id="edge35" class="edge">
<title>33&#45;&gt;29</title>
<path fill="none" stroke="black" d="M3695.81,-791.61C3729.87,-781.59 3772.78,-768.97 3808.03,-758.6"/>
<polygon fill="black" stroke="black" points="3808.65,-762.07 3817.25,-755.89 3806.67,-755.35 3808.65,-762.07"/>
</g>
<!-- 34&#45;&gt;28 -->
<g id="edge36" class="edge">
<title>34&#45;&gt;28</title>
<path fill="none" stroke="black" d="M3286.73,-287.7C3284.6,-280.24 3282.05,-271.32 3279.66,-262.97"/>
<polygon fill="black" stroke="black" points="3283.09,-262.21 3276.97,-253.56 3276.36,-264.14 3283.09,-262.21"/>
</g>
</g>
</svg>
