<?xml version="1.0" encoding="UTF-8" standalone="no"?>
<!DOCTYPE svg PUBLIC "-//W3C//DTD SVG 1.1//EN"
 "http://www.w3.org/Graphics/SVG/1.1/DTD/svg11.dtd">
<!-- Generated by graphviz version 12.2.1 (20241206.2353)
 -->
<!-- Title: G Pages: 1 -->
<svg width="6266pt" height="1268pt"
 viewBox="0.00 0.00 6265.53 1268.00" xmlns="http://www.w3.org/2000/svg" xmlns:xlink="http://www.w3.org/1999/xlink">
<g id="graph0" class="graph" transform="scale(1 1) rotate(0) translate(4 1264)">
<title>G</title>
<polygon fill="white" stroke="none" points="-4,4 -4,-1264 6261.53,-1264 6261.53,4 -4,4"/>
<!-- 0 -->
<g id="node1" class="node">
<title>0</title>
<ellipse fill="none" stroke="black" cx="1028.9" cy="-1242" rx="39.07" ry="18"/>
<text text-anchor="middle" x="1028.9" y="-1236.95" font-family="Times New Roman,serif" font-size="14.00">START</text>
</g>
<!-- 0&#45;&gt;0 -->
<g id="edge1" class="edge">
<title>0&#45;&gt;0</title>
<path fill="none" stroke="black" d="M1057.09,-1254.94C1072.2,-1257.14 1085.97,-1252.83 1085.97,-1242 1085.97,-1233.96 1078.39,-1229.52 1068.3,-1228.65"/>
<polygon fill="black" stroke="black" points="1068.47,-1225.15 1058.6,-1229 1068.72,-1232.14 1068.47,-1225.15"/>
</g>
<!-- 1 -->
<g id="node2" class="node">
<title>1</title>
<ellipse fill="none" stroke="black" cx="1230.9" cy="-1170" rx="29.86" ry="18"/>
<text text-anchor="middle" x="1230.9" y="-1164.95" font-family="Times New Roman,serif" font-size="14.00">input</text>
</g>
<!-- 33 -->
<g id="node34" class="node">
<title>33</title>
<ellipse fill="none" stroke="black" cx="1230.9" cy="-1098" rx="622.53" ry="18"/>
<text text-anchor="middle" x="1230.9" y="-1092.95" font-family="Times New Roman,serif" font-size="14.00">Volition: You got up from this floor because of a holy vow you made sixteen years ago. With *me*. To wake up exactly 07:30 every morning until the day you die.</text>
</g>
<!-- 1&#45;&gt;33 -->
<g id="edge2" class="edge">
<title>1&#45;&gt;33</title>
<path fill="none" stroke="black" d="M1230.9,-1151.7C1230.9,-1144.41 1230.9,-1135.73 1230.9,-1127.54"/>
<polygon fill="black" stroke="black" points="1234.4,-1127.62 1230.9,-1117.62 1227.4,-1127.62 1234.4,-1127.62"/>
</g>
<!-- 2 -->
<g id="node3" class="node">
<title>2</title>
<ellipse fill="none" stroke="black" cx="3546.9" cy="-90" rx="768.91" ry="18"/>
<text text-anchor="middle" x="3546.9" y="-84.95" font-family="Times New Roman,serif" font-size="14.00">Electrochemistry: Speed is a potent central nervous system stimulant. It kept you propped up all day yesterday despite your debilitating hangover. How else did you think you even got up from this floor?</text>
</g>
<!-- 19 -->
<g id="node20" class="node">
<title>19</title>
<ellipse fill="none" stroke="black" cx="3546.9" cy="-18" rx="341.55" ry="18"/>
<text text-anchor="middle" x="3546.9" y="-12.95" font-family="Times New Roman,serif" font-size="14.00">Electrochemistry: Fast recovery, man! Quick turnaround. &#160;Superdetective back in action.</text>
</g>
<!-- 2&#45;&gt;19 -->
<g id="edge3" class="edge">
<title>2&#45;&gt;19</title>
<path fill="none" stroke="black" d="M3546.9,-71.7C3546.9,-64.41 3546.9,-55.73 3546.9,-47.54"/>
<polygon fill="black" stroke="black" points="3550.4,-47.62 3546.9,-37.62 3543.4,-47.62 3550.4,-47.62"/>
</g>
<!-- 3 -->
<g id="node4" class="node">
<title>3</title>
<ellipse fill="none" stroke="black" cx="4894.9" cy="-306" rx="77.97" ry="18"/>
<text text-anchor="middle" x="4894.9" y="-300.95" font-family="Times New Roman,serif" font-size="14.00">You: What chick?</text>
</g>
<!-- 35 -->
<g id="node36" class="node">
<title>35</title>
<ellipse fill="none" stroke="black" cx="4894.9" cy="-234" rx="347.69" ry="18"/>
<text text-anchor="middle" x="4894.9" y="-228.95" font-family="Times New Roman,serif" font-size="14.00">You: That&#39;s a lie. I can do this without the speed. Half the town won&#39;t be dead... (Opt out.)</text>
</g>
<!-- 3&#45;&gt;35 -->
<g id="edge4" class="edge">
<title>3&#45;&gt;35</title>
<path fill="none" stroke="black" d="M4894.9,-287.7C4894.9,-280.41 4894.9,-271.73 4894.9,-263.54"/>
<polygon fill="black" stroke="black" points="4898.4,-263.62 4894.9,-253.62 4891.4,-263.62 4898.4,-263.62"/>
</g>
<!-- 4 -->
<g id="node5" class="node">
<title>4</title>
<ellipse fill="none" stroke="black" cx="2942.9" cy="-450" rx="70.8" ry="18"/>
<text text-anchor="middle" x="2942.9" y="-444.95" font-family="Times New Roman,serif" font-size="14.00">speed_hangover</text>
</g>
<!-- 4&#45;&gt;4 -->
<g id="edge6" class="edge">
<title>4&#45;&gt;4</title>
<path fill="none" stroke="black" d="M2992.21,-463.34C3013.49,-464.43 3031.7,-459.98 3031.7,-450 3031.7,-441.81 3019.44,-437.35 3003.3,-436.61"/>
<polygon fill="black" stroke="black" points="3003.71,-433.11 2993.73,-436.65 3003.74,-440.11 3003.71,-433.11"/>
</g>
<!-- 6 -->
<g id="node7" class="node">
<title>6</title>
<ellipse fill="none" stroke="black" cx="2942.9" cy="-378" rx="195.68" ry="18"/>
<text text-anchor="middle" x="2942.9" y="-372.95" font-family="Times New Roman,serif" font-size="14.00">You: No, that&#39;s not it. *Really* I feel super&#45;good.</text>
</g>
<!-- 4&#45;&gt;6 -->
<g id="edge8" class="edge">
<title>4&#45;&gt;6</title>
<path fill="none" stroke="black" d="M2942.9,-431.7C2942.9,-424.41 2942.9,-415.73 2942.9,-407.54"/>
<polygon fill="black" stroke="black" points="2946.4,-407.62 2942.9,-397.62 2939.4,-407.62 2946.4,-407.62"/>
</g>
<!-- 14 -->
<g id="node15" class="node">
<title>14</title>
<ellipse fill="none" stroke="black" cx="2609.9" cy="-378" rx="118.91" ry="18"/>
<text text-anchor="middle" x="2609.9" y="-372.95" font-family="Times New Roman,serif" font-size="14.00">You: Why is this happening?</text>
</g>
<!-- 4&#45;&gt;14 -->
<g id="edge7" class="edge">
<title>4&#45;&gt;14</title>
<path fill="none" stroke="black" d="M2889.77,-437.83C2835.46,-426.42 2750.52,-408.56 2688.45,-395.51"/>
<polygon fill="black" stroke="black" points="2689.51,-392.16 2679.01,-393.53 2688.07,-399.01 2689.51,-392.16"/>
</g>
<!-- 40 -->
<g id="node41" class="node">
<title>40</title>
<ellipse fill="none" stroke="black" cx="3632.9" cy="-378" rx="476.15" ry="18"/>
<text text-anchor="middle" x="3632.9" y="-372.95" font-family="Times New Roman,serif" font-size="14.00">Volition: You&#39;re too weak to say &#39;no&#39; now. Waking up is the worst part. Maybe somewhere down the line you could decline...</text>
</g>
<!-- 4&#45;&gt;40 -->
<g id="edge5" class="edge">
<title>4&#45;&gt;40</title>
<path fill="none" stroke="black" d="M3007.81,-442.41C3110.32,-432.02 3313.09,-411.44 3459.95,-396.55"/>
<polygon fill="black" stroke="black" points="3460.21,-400.04 3469.81,-395.55 3459.5,-393.07 3460.21,-400.04"/>
</g>
<!-- 5 -->
<g id="node6" class="node">
<title>5</title>
<ellipse fill="none" stroke="black" cx="1933.9" cy="-810" rx="262.22" ry="18"/>
<text text-anchor="middle" x="1933.9" y="-804.95" font-family="Times New Roman,serif" font-size="14.00">You: I need to get more of it then. *Detecting* is my life. (Opt in.)</text>
</g>
<!-- 27 -->
<g id="node28" class="node">
<title>27</title>
<ellipse fill="none" stroke="black" cx="1933.9" cy="-738" rx="421.9" ry="18"/>
<text text-anchor="middle" x="1933.9" y="-732.95" font-family="Times New Roman,serif" font-size="14.00">Volition: Don&#39;t do that. Stay strong. The hangover will wear off. You don&#39;t need to keep doing this to yourself.</text>
</g>
<!-- 5&#45;&gt;27 -->
<g id="edge9" class="edge">
<title>5&#45;&gt;27</title>
<path fill="none" stroke="black" d="M1933.9,-791.7C1933.9,-784.41 1933.9,-775.73 1933.9,-767.54"/>
<polygon fill="black" stroke="black" points="1937.4,-767.62 1933.9,-757.62 1930.4,-767.62 1937.4,-767.62"/>
</g>
<!-- 28 -->
<g id="node29" class="node">
<title>28</title>
<ellipse fill="none" stroke="black" cx="2942.9" cy="-306" rx="397.85" ry="18"/>
<text text-anchor="middle" x="2942.9" y="-300.95" font-family="Times New Roman,serif" font-size="14.00">Electrochemistry: Of course! Martinaise is speed&#45;central. You just gotta poke around, follow your nose.</text>
</g>
<!-- 6&#45;&gt;28 -->
<g id="edge10" class="edge">
<title>6&#45;&gt;28</title>
<path fill="none" stroke="black" d="M2942.9,-359.7C2942.9,-352.41 2942.9,-343.73 2942.9,-335.54"/>
<polygon fill="black" stroke="black" points="2946.4,-335.62 2942.9,-325.62 2939.4,-335.62 2946.4,-335.62"/>
</g>
<!-- 7 -->
<g id="node8" class="node">
<title>7</title>
<ellipse fill="none" stroke="black" cx="4364.9" cy="-306" rx="251.98" ry="18"/>
<text text-anchor="middle" x="4364.9" y="-300.95" font-family="Times New Roman,serif" font-size="14.00">You: No. I can take this. I am not going to go looking for speed.</text>
</g>
<!-- 17 -->
<g id="node18" class="node">
<title>17</title>
<ellipse fill="none" stroke="black" cx="4182.9" cy="-234" rx="346.15" ry="18"/>
<text text-anchor="middle" x="4182.9" y="-228.95" font-family="Times New Roman,serif" font-size="14.00">Electrochemistry: Suit yourself, slow, sad shell&#45;man. See how you do without your spark.</text>
</g>
<!-- 7&#45;&gt;17 -->
<g id="edge11" class="edge">
<title>7&#45;&gt;17</title>
<path fill="none" stroke="black" d="M4320.38,-287.88C4295.68,-278.38 4264.75,-266.48 4238.47,-256.37"/>
<polygon fill="black" stroke="black" points="4239.91,-253.18 4229.32,-252.85 4237.4,-259.71 4239.91,-253.18"/>
</g>
<!-- 8 -->
<g id="node9" class="node">
<title>8</title>
<ellipse fill="none" stroke="black" cx="4981.9" cy="-450" rx="252.49" ry="18"/>
<text text-anchor="middle" x="4981.9" y="-444.95" font-family="Times New Roman,serif" font-size="14.00">You: Who am I kidding? Of course I want some speed. (Opt in.)</text>
</g>
<!-- 18 -->
<g id="node19" class="node">
<title>18</title>
<ellipse fill="none" stroke="black" cx="4979.9" cy="-378" rx="852.84" ry="18"/>
<text text-anchor="middle" x="4979.9" y="-372.95" font-family="Times New Roman,serif" font-size="14.00">Electrochemistry: Are you sure? Ready to live as this pathetic shell of yourself for days? &#160;Basically a week? Let&#39;s be honest &#45;&#45; two weeks, maybe three? You won&#39;t make it. Half the town will be dead by then. You will be fired.</text>
</g>
<!-- 8&#45;&gt;18 -->
<g id="edge12" class="edge">
<title>8&#45;&gt;18</title>
<path fill="none" stroke="black" d="M4981.41,-431.7C4981.2,-424.41 4980.95,-415.73 4980.72,-407.54"/>
<polygon fill="black" stroke="black" points="4984.22,-407.51 4980.43,-397.62 4977.22,-407.71 4984.22,-407.51"/>
</g>
<!-- 9 -->
<g id="node10" class="node">
<title>9</title>
<ellipse fill="none" stroke="black" cx="4070.9" cy="-522" rx="602.57" ry="18"/>
<text text-anchor="middle" x="4070.9" y="-516.95" font-family="Times New Roman,serif" font-size="14.00">Electrochemistry: It&#39;s power, man. It&#39;s professionalism. It makes you feel like you&#39;re young again and ready to *detect*! Ready to go to war against the world!</text>
</g>
<!-- 9&#45;&gt;4 -->
<g id="edge13" class="edge">
<title>9&#45;&gt;4</title>
<path fill="none" stroke="black" d="M3816.7,-505.23C3562.11,-489.43 3185.4,-466.05 3022.62,-455.95"/>
<polygon fill="black" stroke="black" points="3022.98,-452.46 3012.78,-455.34 3022.55,-459.45 3022.98,-452.46"/>
</g>
<!-- 9&#45;&gt;6 -->
<g id="edge15" class="edge">
<title>9&#45;&gt;6</title>
<path fill="none" stroke="black" d="M3935.68,-503.98C3714.67,-476.16 3279.39,-421.36 3066.3,-394.53"/>
<polygon fill="black" stroke="black" points="3066.94,-391.09 3056.58,-393.31 3066.07,-398.03 3066.94,-391.09"/>
</g>
<!-- 9&#45;&gt;14 -->
<g id="edge14" class="edge">
<title>9&#45;&gt;14</title>
<path fill="none" stroke="black" d="M3652.44,-508.68C3334.64,-498.3 2939.51,-482.82 2862.9,-468 2823.82,-460.44 2724.08,-423.28 2662.14,-399.43"/>
<polygon fill="black" stroke="black" points="2663.42,-396.17 2652.83,-395.83 2660.9,-402.7 2663.42,-396.17"/>
</g>
<!-- 10 -->
<g id="node11" class="node">
<title>10</title>
<ellipse fill="none" stroke="black" cx="1230.9" cy="-954" rx="236.11" ry="18"/>
<text text-anchor="middle" x="1230.9" y="-948.95" font-family="Times New Roman,serif" font-size="14.00">You: Is that how it&#39;s going to be now when I close my eyes?</text>
</g>
<!-- 11 -->
<g id="node12" class="node">
<title>11</title>
<ellipse fill="none" stroke="black" cx="1230.9" cy="-882" rx="498.67" ry="18"/>
<text text-anchor="middle" x="1230.9" y="-876.95" font-family="Times New Roman,serif" font-size="14.00">Electrochemistry: Oh, just a dream. You have ones like that all the time. You feel even worse this morning than you did last night.</text>
</g>
<!-- 10&#45;&gt;11 -->
<g id="edge16" class="edge">
<title>10&#45;&gt;11</title>
<path fill="none" stroke="black" d="M1230.9,-935.7C1230.9,-928.41 1230.9,-919.73 1230.9,-911.54"/>
<polygon fill="black" stroke="black" points="1234.4,-911.62 1230.9,-901.62 1227.4,-911.62 1234.4,-911.62"/>
</g>
<!-- 15 -->
<g id="node16" class="node">
<title>15</title>
<ellipse fill="none" stroke="black" cx="1168.9" cy="-810" rx="340.01" ry="18"/>
<text text-anchor="middle" x="1168.9" y="-804.95" font-family="Times New Roman,serif" font-size="14.00">You: I think Cuno might have speed. I should ask him and start blasting again. (Opt in.)</text>
</g>
<!-- 11&#45;&gt;15 -->
<g id="edge17" class="edge">
<title>11&#45;&gt;15</title>
<path fill="none" stroke="black" d="M1215.58,-863.7C1208.37,-855.56 1199.63,-845.69 1191.66,-836.7"/>
<polygon fill="black" stroke="black" points="1194.3,-834.4 1185.05,-829.24 1189.06,-839.04 1194.3,-834.4"/>
</g>
<!-- 12 -->
<g id="node13" class="node">
<title>12</title>
<ellipse fill="none" stroke="black" cx="1116.9" cy="-234" rx="575.44" ry="18"/>
<text text-anchor="middle" x="1116.9" y="-228.95" font-family="Times New Roman,serif" font-size="14.00">Electrochemistry: Yes. Wait till you see the one with the chick in it, it&#39;s gonna be a good one. You feel even worse this morning than you did last night.</text>
</g>
<!-- 12&#45;&gt;15 -->
<g id="edge18" class="edge">
<title>12&#45;&gt;15</title>
<path fill="none" stroke="black" d="M886.71,-250.88C836.33,-258.73 792.46,-270.47 773.9,-288 744.5,-315.77 754.9,-336.55 754.9,-377 754.9,-667 754.9,-667 754.9,-667 754.9,-728.67 921.32,-769.22 1043.13,-790.64"/>
<polygon fill="black" stroke="black" points="1042.46,-794.08 1052.91,-792.33 1043.66,-787.18 1042.46,-794.08"/>
</g>
<!-- 13 -->
<g id="node14" class="node">
<title>13</title>
<ellipse fill="none" stroke="black" cx="1933.9" cy="-882" rx="63.12" ry="18"/>
<text text-anchor="middle" x="1933.9" y="-876.95" font-family="Times New Roman,serif" font-size="14.00">why_is_speed</text>
</g>
<!-- 13&#45;&gt;5 -->
<g id="edge19" class="edge">
<title>13&#45;&gt;5</title>
<path fill="none" stroke="black" d="M1933.9,-863.7C1933.9,-856.41 1933.9,-847.73 1933.9,-839.54"/>
<polygon fill="black" stroke="black" points="1937.4,-839.62 1933.9,-829.62 1930.4,-839.62 1937.4,-839.62"/>
</g>
<!-- 13&#45;&gt;13 -->
<g id="edge20" class="edge">
<title>13&#45;&gt;13</title>
<path fill="none" stroke="black" d="M1978.13,-895.29C1997.91,-896.55 2015.02,-892.12 2015.02,-882 2015.02,-873.85 2003.94,-869.39 1989.31,-868.62"/>
<polygon fill="black" stroke="black" points="1989.61,-865.12 1979.64,-868.7 1989.67,-872.12 1989.61,-865.12"/>
</g>
<!-- 23 -->
<g id="node24" class="node">
<title>23</title>
<ellipse fill="none" stroke="black" cx="1478.9" cy="-306" rx="695.72" ry="18"/>
<text text-anchor="middle" x="1478.9" y="-300.95" font-family="Times New Roman,serif" font-size="14.00">Electrochemistry: You mean why are you so tired? Too tired and *down* to even think? It *is* worrying, isn&#39;t it. You can&#39;t be a detective like this &#45;&#45; detectives need to be able to think.</text>
</g>
<!-- 14&#45;&gt;23 -->
<g id="edge21" class="edge">
<title>14&#45;&gt;23</title>
<path fill="none" stroke="black" d="M2501.46,-370.29C2330.15,-359.69 1991.72,-338.74 1751.16,-323.85"/>
<polygon fill="black" stroke="black" points="1751.49,-320.36 1741.29,-323.24 1751.06,-327.35 1751.49,-320.36"/>
</g>
<!-- 15&#45;&gt;27 -->
<g id="edge22" class="edge">
<title>15&#45;&gt;27</title>
<path fill="none" stroke="black" d="M1334.42,-793.85C1456.61,-782.67 1622.93,-767.46 1749.38,-755.88"/>
<polygon fill="black" stroke="black" points="1749.58,-759.38 1759.22,-754.98 1748.94,-752.41 1749.58,-759.38"/>
</g>
<!-- 16 -->
<g id="node17" class="node">
<title>16</title>
<ellipse fill="none" stroke="black" cx="3546.9" cy="-162" rx="45.72" ry="18"/>
<text text-anchor="middle" x="3546.9" y="-156.95" font-family="Times New Roman,serif" font-size="14.00">speedhub</text>
</g>
<!-- 16&#45;&gt;2 -->
<g id="edge23" class="edge">
<title>16&#45;&gt;2</title>
<path fill="none" stroke="black" d="M3546.9,-143.7C3546.9,-136.41 3546.9,-127.73 3546.9,-119.54"/>
<polygon fill="black" stroke="black" points="3550.4,-119.62 3546.9,-109.62 3543.4,-119.62 3550.4,-119.62"/>
</g>
<!-- 29 -->
<g id="node30" class="node">
<title>29</title>
<ellipse fill="none" stroke="black" cx="2202.9" cy="-594" rx="527.33" ry="18"/>
<text text-anchor="middle" x="2202.9" y="-588.95" font-family="Times New Roman,serif" font-size="14.00">Electrochemistry: That&#39;s not really true. Your heart has finally pumped all the *speed* out of your system, buster. Time to get some more.</text>
</g>
<!-- 16&#45;&gt;29 -->
<g id="edge24" class="edge">
<title>16&#45;&gt;29</title>
<path fill="none" stroke="black" d="M3501.03,-162.93C3265.48,-163.14 2202.9,-171.48 2202.9,-305 2202.9,-451 2202.9,-451 2202.9,-451 2202.9,-490.26 2202.9,-535.62 2202.9,-564.31"/>
<polygon fill="black" stroke="black" points="2199.4,-564 2202.9,-574 2206.4,-564 2199.4,-564"/>
</g>
<!-- 18&#45;&gt;7 -->
<g id="edge26" class="edge">
<title>18&#45;&gt;7</title>
<path fill="none" stroke="black" d="M4829.06,-359.83C4730.63,-348.63 4602.97,-334.1 4506.45,-323.11"/>
<polygon fill="black" stroke="black" points="4506.97,-319.65 4496.64,-321.99 4506.18,-326.6 4506.97,-319.65"/>
</g>
<!-- 34 -->
<g id="node35" class="node">
<title>34</title>
<ellipse fill="none" stroke="black" cx="4568.9" cy="-666" rx="153.71" ry="18"/>
<text text-anchor="middle" x="4568.9" y="-660.95" font-family="Times New Roman,serif" font-size="14.00">Electrochemistry: Good going, buddy.</text>
</g>
<!-- 18&#45;&gt;34 -->
<g id="edge25" class="edge">
<title>18&#45;&gt;34</title>
<path fill="none" stroke="black" d="M4833.78,-396.22C4785.23,-404.57 4738.93,-416.28 4720.9,-432 4682.55,-465.44 4709.01,-496.33 4682.9,-540 4659.58,-579.01 4622.79,-616.54 4597.35,-640.12"/>
<polygon fill="black" stroke="black" points="4595.01,-637.51 4589.98,-646.83 4599.72,-642.68 4595.01,-637.51"/>
</g>
<!-- 20 -->
<g id="node21" class="node">
<title>20</title>
<ellipse fill="none" stroke="black" cx="356.9" cy="-1026" rx="143.99" ry="18"/>
<text text-anchor="middle" x="356.9" y="-1020.95" font-family="Times New Roman,serif" font-size="14.00">Variable[&quot;whirling.speed_volition&quot;]</text>
</g>
<!-- 20&#45;&gt;20 -->
<g id="edge27" class="edge">
<title>20&#45;&gt;20</title>
<path fill="none" stroke="black" d="M455.36,-1039.49C490.39,-1039.74 518.89,-1035.25 518.89,-1026 518.89,-1017.77 496.29,-1013.3 466.59,-1012.6"/>
<polygon fill="black" stroke="black" points="466.9,-1009.1 456.87,-1012.52 466.85,-1016.1 466.9,-1009.1"/>
</g>
<!-- 21 -->
<g id="node22" class="node">
<title>21</title>
<polygon fill="none" stroke="black" points="356.9,-972 153.27,-954 356.9,-936 560.53,-954 356.9,-972"/>
<text text-anchor="middle" x="356.9" y="-948.95" font-family="Times New Roman,serif" font-size="14.00">Variable[&quot;whirling.speed_volition&quot;]</text>
</g>
<!-- 20&#45;&gt;21 -->
<g id="edge28" class="edge">
<title>20&#45;&gt;21</title>
<path fill="none" stroke="black" d="M356.9,-1007.7C356.9,-1000.41 356.9,-991.73 356.9,-983.54"/>
<polygon fill="black" stroke="black" points="360.4,-983.62 356.9,-973.62 353.4,-983.62 360.4,-983.62"/>
</g>
<!-- 32 -->
<g id="node33" class="node">
<title>32</title>
<ellipse fill="none" stroke="black" cx="356.9" cy="-882" rx="356.9" ry="18"/>
<text text-anchor="middle" x="356.9" y="-876.95" font-family="Times New Roman,serif" font-size="14.00">Electrochemistry: Really? Because you feel even worse this morning than you did last night.</text>
</g>
<!-- 21&#45;&gt;32 -->
<g id="edge29" class="edge">
<title>21&#45;&gt;32</title>
<path fill="none" stroke="black" d="M356.9,-935.7C356.9,-928.41 356.9,-919.73 356.9,-911.54"/>
<polygon fill="black" stroke="black" points="360.4,-911.62 356.9,-901.62 353.4,-911.62 360.4,-911.62"/>
</g>
<!-- 22 -->
<g id="node23" class="node">
<title>22</title>
<polygon fill="none" stroke="black" points="4964.9,-540 4748.24,-522 4964.9,-504 5181.56,-522 4964.9,-540"/>
<text text-anchor="middle" x="4964.9" y="-516.95" font-family="Times New Roman,serif" font-size="14.00">!(Variable[&quot;whirling.speed_volition&quot;])</text>
</g>
<!-- 22&#45;&gt;8 -->
<g id="edge30" class="edge">
<title>22&#45;&gt;8</title>
<path fill="none" stroke="black" d="M4969.02,-504.05C4970.83,-496.6 4973,-487.64 4975.05,-479.22"/>
<polygon fill="black" stroke="black" points="4978.39,-480.29 4977.35,-469.75 4971.59,-478.64 4978.39,-480.29"/>
</g>
<!-- 23&#45;&gt;12 -->
<g id="edge31" class="edge">
<title>23&#45;&gt;12</title>
<path fill="none" stroke="black" d="M1389.42,-287.7C1337.12,-277.58 1270.99,-264.8 1216.97,-254.35"/>
<polygon fill="black" stroke="black" points="1217.95,-250.98 1207.47,-252.51 1216.62,-257.85 1217.95,-250.98"/>
</g>
<!-- 24 -->
<g id="node25" class="node">
<title>24</title>
<ellipse fill="none" stroke="black" cx="3465.9" cy="-594" rx="490.48" ry="18"/>
<text text-anchor="middle" x="3465.9" y="-588.95" font-family="Times New Roman,serif" font-size="14.00">Electrochemistry: It&#39;s just that your heart has finally pumped all the *speed* out of your system, buster. Time to get some more.</text>
</g>
<!-- 26 -->
<g id="node27" class="node">
<title>26</title>
<ellipse fill="none" stroke="black" cx="2840.9" cy="-522" rx="609.73" ry="18"/>
<text text-anchor="middle" x="2840.9" y="-516.95" font-family="Times New Roman,serif" font-size="14.00">Electrochemistry: Don&#39;t be silly. There was no vow. You were high on speed. That was the only reason you got up. You can&#39;t *detect* without it, it&#39;s that simple.</text>
</g>
<!-- 24&#45;&gt;26 -->
<g id="edge32" class="edge">
<title>24&#45;&gt;26</title>
<path fill="none" stroke="black" d="M3317.78,-576.41C3223.16,-565.81 3100.44,-552.07 3003.18,-541.18"/>
<polygon fill="black" stroke="black" points="3003.58,-537.7 2993.25,-540.06 3002.8,-544.66 3003.58,-537.7"/>
</g>
<!-- 25 -->
<g id="node26" class="node">
<title>25</title>
<ellipse fill="none" stroke="black" cx="1230.9" cy="-1026" rx="168.04" ry="18"/>
<text text-anchor="middle" x="1230.9" y="-1020.95" font-family="Times New Roman,serif" font-size="14.00">You: Oh my god, what the hell was that...</text>
</g>
<!-- 25&#45;&gt;10 -->
<g id="edge33" class="edge">
<title>25&#45;&gt;10</title>
<path fill="none" stroke="black" d="M1230.9,-1007.7C1230.9,-1000.41 1230.9,-991.73 1230.9,-983.54"/>
<polygon fill="black" stroke="black" points="1234.4,-983.62 1230.9,-973.62 1227.4,-983.62 1234.4,-983.62"/>
</g>
<!-- 26&#45;&gt;4 -->
<g id="edge34" class="edge">
<title>26&#45;&gt;4</title>
<path fill="none" stroke="black" d="M2866.38,-503.52C2879.51,-494.5 2895.69,-483.4 2909.79,-473.72"/>
<polygon fill="black" stroke="black" points="2911.64,-476.7 2917.9,-468.16 2907.67,-470.93 2911.64,-476.7"/>
</g>
<!-- 26&#45;&gt;6 -->
<g id="edge36" class="edge">
<title>26&#45;&gt;6</title>
<path fill="none" stroke="black" d="M2841.5,-503.74C2842.95,-484.61 2847.68,-453.6 2862.9,-432 2871.38,-419.97 2883.54,-409.92 2895.83,-401.93"/>
<polygon fill="black" stroke="black" points="2897.63,-404.94 2904.35,-396.75 2893.99,-398.96 2897.63,-404.94"/>
</g>
<!-- 26&#45;&gt;14 -->
<g id="edge35" class="edge">
<title>26&#45;&gt;14</title>
<path fill="none" stroke="black" d="M2810.76,-503.56C2793.22,-493.33 2770.72,-480.08 2750.9,-468 2714.86,-446.02 2674.14,-420.21 2645.75,-402.06"/>
<polygon fill="black" stroke="black" points="2647.84,-399.24 2637.53,-396.79 2644.06,-405.13 2647.84,-399.24"/>
</g>
<!-- 36 -->
<g id="node37" class="node">
<title>36</title>
<ellipse fill="none" stroke="black" cx="1995.9" cy="-666" rx="391.7" ry="18"/>
<text text-anchor="middle" x="1995.9" y="-660.95" font-family="Times New Roman,serif" font-size="14.00">Electrochemistry: You don&#39;t know? Some broad that messed you up. It&#39;ll come to you. It always does.</text>
</g>
<!-- 27&#45;&gt;36 -->
<g id="edge37" class="edge">
<title>27&#45;&gt;36</title>
<path fill="none" stroke="black" d="M1949.23,-719.7C1956.43,-711.56 1965.18,-701.69 1973.14,-692.7"/>
<polygon fill="black" stroke="black" points="1975.74,-695.04 1979.75,-685.24 1970.5,-690.4 1975.74,-695.04"/>
</g>
<!-- 42 -->
<g id="node43" class="node">
<title>42</title>
<ellipse fill="none" stroke="black" cx="2942.9" cy="-234" rx="443.4" ry="18"/>
<text text-anchor="middle" x="2942.9" y="-228.95" font-family="Times New Roman,serif" font-size="14.00">Electrochemistry: You and speed will be happy again. You will make her come home. This time it will be different.</text>
</g>
<!-- 28&#45;&gt;42 -->
<g id="edge38" class="edge">
<title>28&#45;&gt;42</title>
<path fill="none" stroke="black" d="M2942.9,-287.7C2942.9,-280.41 2942.9,-271.73 2942.9,-263.54"/>
<polygon fill="black" stroke="black" points="2946.4,-263.62 2942.9,-253.62 2939.4,-263.62 2946.4,-263.62"/>
</g>
<!-- 29&#45;&gt;26 -->
<g id="edge39" class="edge">
<title>29&#45;&gt;26</title>
<path fill="none" stroke="black" d="M2354.91,-576.32C2451.53,-565.72 2576.61,-552 2675.68,-541.13"/>
<polygon fill="black" stroke="black" points="2675.95,-544.62 2685.51,-540.05 2675.19,-537.66 2675.95,-544.62"/>
</g>
<!-- 30 -->
<g id="node31" class="node">
<title>30</title>
<ellipse fill="none" stroke="black" cx="4936.9" cy="-594" rx="162.93" ry="18"/>
<text text-anchor="middle" x="4936.9" y="-588.95" font-family="Times New Roman,serif" font-size="14.00">You: What the hell is going on with me?</text>
</g>
<!-- 30&#45;&gt;22 -->
<g id="edge40" class="edge">
<title>30&#45;&gt;22</title>
<path fill="none" stroke="black" d="M4943.82,-575.7C4946.88,-568.04 4950.56,-558.85 4953.98,-550.3"/>
<polygon fill="black" stroke="black" points="4957.23,-551.61 4957.69,-541.03 4950.73,-549.01 4957.23,-551.61"/>
</g>
<!-- 31 -->
<g id="node32" class="node">
<title>31</title>
<ellipse fill="none" stroke="black" cx="1633.9" cy="-1242" rx="258.12" ry="18"/>
<text text-anchor="middle" x="1633.9" y="-1236.95" font-family="Times New Roman,serif" font-size="14.00">You: I just had the most beautiful dream. Uplifting. Rejuvenating.</text>
</g>
<!-- 31&#45;&gt;31 -->
<g id="edge41" class="edge">
<title>31&#45;&gt;31</title>
<path fill="none" stroke="black" d="M1810.84,-1255.49C1866.31,-1255.27 1910.02,-1250.77 1910.02,-1242 1910.02,-1233.83 1872.08,-1229.37 1822.04,-1228.61"/>
<polygon fill="black" stroke="black" points="1822.38,-1225.12 1812.35,-1228.52 1822.32,-1232.12 1822.38,-1225.12"/>
</g>
<!-- 32&#45;&gt;15 -->
<g id="edge42" class="edge">
<title>32&#45;&gt;15</title>
<path fill="none" stroke="black" d="M532.09,-865.9C665.53,-854.39 848.77,-838.6 984.44,-826.9"/>
<polygon fill="black" stroke="black" points="984.6,-830.4 994.26,-826.06 984,-823.43 984.6,-830.4"/>
</g>
<!-- 33&#45;&gt;25 -->
<g id="edge43" class="edge">
<title>33&#45;&gt;25</title>
<path fill="none" stroke="black" d="M1230.9,-1079.7C1230.9,-1072.41 1230.9,-1063.73 1230.9,-1055.54"/>
<polygon fill="black" stroke="black" points="1234.4,-1055.62 1230.9,-1045.62 1227.4,-1055.62 1234.4,-1055.62"/>
</g>
<!-- 34&#45;&gt;9 -->
<g id="edge45" class="edge">
<title>34&#45;&gt;9</title>
<path fill="none" stroke="black" d="M4512.26,-648.85C4421.22,-622.89 4242.46,-571.92 4142.64,-543.46"/>
<polygon fill="black" stroke="black" points="4143.79,-540.14 4133.21,-540.77 4141.87,-546.88 4143.79,-540.14"/>
</g>
<!-- 34&#45;&gt;24 -->
<g id="edge44" class="edge">
<title>34&#45;&gt;24</title>
<path fill="none" stroke="black" d="M4436.4,-656.59C4258.67,-645.31 3939.57,-625.06 3715.93,-610.87"/>
<polygon fill="black" stroke="black" points="3716.4,-607.39 3706.2,-610.25 3715.96,-614.38 3716.4,-607.39"/>
</g>
<!-- 34&#45;&gt;30 -->
<g id="edge46" class="edge">
<title>34&#45;&gt;30</title>
<path fill="none" stroke="black" d="M4646.94,-650.15C4705.24,-639.07 4785.06,-623.88 4846.19,-612.25"/>
<polygon fill="black" stroke="black" points="4846.73,-615.72 4855.9,-610.41 4845.42,-608.84 4846.73,-615.72"/>
</g>
<!-- 35&#45;&gt;16 -->
<g id="edge47" class="edge">
<title>35&#45;&gt;16</title>
<path fill="none" stroke="black" d="M4655.85,-220.59C4334.05,-203.88 3781.36,-175.17 3603.68,-165.95"/>
<polygon fill="black" stroke="black" points="3603.96,-162.46 3593.79,-165.43 3603.59,-169.45 3603.96,-162.46"/>
</g>
<!-- 36&#45;&gt;29 -->
<g id="edge48" class="edge">
<title>36&#45;&gt;29</title>
<path fill="none" stroke="black" d="M2047.07,-647.7C2075.43,-638.11 2110.91,-626.11 2140.85,-615.98"/>
<polygon fill="black" stroke="black" points="2141.82,-619.35 2150.17,-612.83 2139.58,-612.72 2141.82,-619.35"/>
</g>
<!-- 37 -->
<g id="node38" class="node">
<title>37</title>
<ellipse fill="none" stroke="black" cx="6053.9" cy="-450" rx="143.99" ry="18"/>
<text text-anchor="middle" x="6053.9" y="-444.95" font-family="Times New Roman,serif" font-size="14.00">Variable[&quot;whirling.speed_volition&quot;]</text>
</g>
<!-- 37&#45;&gt;37 -->
<g id="edge49" class="edge">
<title>37&#45;&gt;37</title>
<path fill="none" stroke="black" d="M6152.36,-463.49C6187.39,-463.74 6215.89,-459.25 6215.89,-450 6215.89,-441.77 6193.29,-437.3 6163.59,-436.6"/>
<polygon fill="black" stroke="black" points="6163.9,-433.1 6153.87,-436.52 6163.85,-440.1 6163.9,-433.1"/>
</g>
<!-- 38 -->
<g id="node39" class="node">
<title>38</title>
<polygon fill="none" stroke="black" points="6053.9,-396 5850.27,-378 6053.9,-360 6257.53,-378 6053.9,-396"/>
<text text-anchor="middle" x="6053.9" y="-372.95" font-family="Times New Roman,serif" font-size="14.00">Variable[&quot;whirling.speed_volition&quot;]</text>
</g>
<!-- 37&#45;&gt;38 -->
<g id="edge50" class="edge">
<title>37&#45;&gt;38</title>
<path fill="none" stroke="black" d="M6053.9,-431.7C6053.9,-424.41 6053.9,-415.73 6053.9,-407.54"/>
<polygon fill="black" stroke="black" points="6057.4,-407.62 6053.9,-397.62 6050.4,-407.62 6057.4,-407.62"/>
</g>
<!-- 38&#45;&gt;3 -->
<g id="edge51" class="edge">
<title>38&#45;&gt;3</title>
<path fill="none" stroke="black" d="M5953.11,-368.42C5917.93,-365.56 5878.19,-362.47 5841.9,-360 5525.32,-338.45 5148.77,-319.31 4981.91,-311.17"/>
<polygon fill="black" stroke="black" points="4982.41,-307.69 4972.25,-310.7 4982.07,-314.68 4982.41,-307.69"/>
</g>
<!-- 39 -->
<g id="node40" class="node">
<title>39</title>
<polygon fill="none" stroke="black" points="2144.9,-1260 1928.24,-1242 2144.9,-1224 2361.56,-1242 2144.9,-1260"/>
<text text-anchor="middle" x="2144.9" y="-1236.95" font-family="Times New Roman,serif" font-size="14.00">!(Variable[&quot;whirling.speed_volition&quot;])</text>
</g>
<!-- 39&#45;&gt;39 -->
<g id="edge52" class="edge">
<title>39&#45;&gt;39</title>
<path fill="none" stroke="black" d="M2230.63,-1253.38C2303.29,-1258.36 2379.56,-1254.57 2379.56,-1242 2379.56,-1230.07 2310.84,-1226.05 2241.72,-1229.93"/>
<polygon fill="black" stroke="black" points="2241.9,-1226.41 2232.14,-1230.53 2242.34,-1233.4 2241.9,-1226.41"/>
</g>
<!-- 40&#45;&gt;3 -->
<g id="edge53" class="edge">
<title>40&#45;&gt;3</title>
<path fill="none" stroke="black" d="M3909.83,-362.95C4109.03,-352.66 4384.07,-338.09 4625.9,-324 4687.27,-320.42 4756.48,-316.04 4809.34,-312.62"/>
<polygon fill="black" stroke="black" points="4809.43,-316.12 4819.19,-311.98 4808.98,-309.14 4809.43,-316.12"/>
</g>
<!-- 41 -->
<g id="node42" class="node">
<title>41</title>
<ellipse fill="none" stroke="black" cx="1230.9" cy="-1242" rx="126.59" ry="18"/>
<text text-anchor="middle" x="1230.9" y="-1236.95" font-family="Times New Roman,serif" font-size="14.00">You: Wait. What *is*... speed?</text>
</g>
<!-- 41&#45;&gt;1 -->
<g id="edge54" class="edge">
<title>41&#45;&gt;1</title>
<path fill="none" stroke="black" d="M1230.9,-1223.7C1230.9,-1216.41 1230.9,-1207.73 1230.9,-1199.54"/>
<polygon fill="black" stroke="black" points="1234.4,-1199.62 1230.9,-1189.62 1227.4,-1199.62 1234.4,-1199.62"/>
</g>
</g>
</svg>
