<?xml version="1.0" encoding="UTF-8" standalone="no"?>
<!DOCTYPE svg PUBLIC "-//W3C//DTD SVG 1.1//EN"
 "http://www.w3.org/Graphics/SVG/1.1/DTD/svg11.dtd">
<!-- Generated by graphviz version 12.2.1 (20241206.2353)
 -->
<!-- Title: G Pages: 1 -->
<svg width="568pt" height="116pt"
 viewBox="0.00 0.00 568.26 116.00" xmlns="http://www.w3.org/2000/svg" xmlns:xlink="http://www.w3.org/1999/xlink">
<g id="graph0" class="graph" transform="scale(1 1) rotate(0) translate(4 112)">
<title>G</title>
<polygon fill="white" stroke="none" points="-4,4 -4,-112 564.26,-112 564.26,4 -4,4"/>
<!-- 0 -->
<g id="node1" class="node">
<title>0</title>
<ellipse fill="none" stroke="black" cx="175.13" cy="-90" rx="39.07" ry="18"/>
<text text-anchor="middle" x="175.13" y="-84.95" font-family="Times New Roman,serif" font-size="14.00">START</text>
</g>
<!-- 0&#45;&gt;0 -->
<g id="edge1" class="edge">
<title>0&#45;&gt;0</title>
<path fill="none" stroke="black" d="M203.32,-102.94C218.43,-105.14 232.2,-100.83 232.2,-90 232.2,-81.96 224.61,-77.52 214.53,-76.65"/>
<polygon fill="black" stroke="black" points="214.7,-73.15 204.83,-77 214.95,-80.14 214.7,-73.15"/>
</g>
<!-- 1 -->
<g id="node2" class="node">
<title>1</title>
<ellipse fill="none" stroke="black" cx="280.13" cy="-90" rx="29.86" ry="18"/>
<text text-anchor="middle" x="280.13" y="-84.95" font-family="Times New Roman,serif" font-size="14.00">input</text>
</g>
<!-- 2 -->
<g id="node3" class="node">
<title>2</title>
<ellipse fill="none" stroke="black" cx="280.13" cy="-18" rx="280.13" ry="18"/>
<text text-anchor="middle" x="280.13" y="-12.95" font-family="Times New Roman,serif" font-size="14.00">Door, Room #2: The door is locked. Lieutenant Kitsuragi resides inside.</text>
</g>
<!-- 1&#45;&gt;2 -->
<g id="edge2" class="edge">
<title>1&#45;&gt;2</title>
<path fill="none" stroke="black" d="M280.13,-71.7C280.13,-64.41 280.13,-55.73 280.13,-47.54"/>
<polygon fill="black" stroke="black" points="283.63,-47.62 280.13,-37.62 276.63,-47.62 283.63,-47.62"/>
</g>
</g>
</svg>
