<?xml version="1.0" encoding="UTF-8" standalone="no"?>
<!DOCTYPE svg PUBLIC "-//W3C//DTD SVG 1.1//EN"
 "http://www.w3.org/Graphics/SVG/1.1/DTD/svg11.dtd">
<!-- Generated by graphviz version 12.2.1 (20241206.2353)
 -->
<!-- Title: G Pages: 1 -->
<svg width="5712pt" height="620pt"
 viewBox="0.00 0.00 5711.63 620.00" xmlns="http://www.w3.org/2000/svg" xmlns:xlink="http://www.w3.org/1999/xlink">
<g id="graph0" class="graph" transform="scale(1 1) rotate(0) translate(4 616)">
<title>G</title>
<polygon fill="white" stroke="none" points="-4,4 -4,-616 5707.63,-616 5707.63,4 -4,4"/>
<!-- 0 -->
<g id="node1" class="node">
<title>0</title>
<ellipse fill="none" stroke="black" cx="1045.38" cy="-594" rx="39.07" ry="18"/>
<text text-anchor="middle" x="1045.38" y="-588.95" font-family="Times New Roman,serif" font-size="14.00">START</text>
</g>
<!-- 0&#45;&gt;0 -->
<g id="edge1" class="edge">
<title>0&#45;&gt;0</title>
<path fill="none" stroke="black" d="M1073.57,-606.94C1088.68,-609.14 1102.45,-604.83 1102.45,-594 1102.45,-585.96 1094.87,-581.52 1084.78,-580.65"/>
<polygon fill="black" stroke="black" points="1084.95,-577.15 1075.08,-581 1085.2,-584.14 1084.95,-577.15"/>
</g>
<!-- 1 -->
<g id="node2" class="node">
<title>1</title>
<ellipse fill="none" stroke="black" cx="1272.38" cy="-450" rx="29.86" ry="18"/>
<text text-anchor="middle" x="1272.38" y="-444.95" font-family="Times New Roman,serif" font-size="14.00">input</text>
</g>
<!-- 26 -->
<g id="node27" class="node">
<title>26</title>
<ellipse fill="none" stroke="black" cx="1272.38" cy="-378" rx="482.29" ry="18"/>
<text text-anchor="middle" x="1272.38" y="-372.95" font-family="Times New Roman,serif" font-size="14.00">Hand/Eye Coordination: Just as you look at the flowers, a gust of wind raises them from the roof, picking them up in the air...</text>
</g>
<!-- 1&#45;&gt;26 -->
<g id="edge2" class="edge">
<title>1&#45;&gt;26</title>
<path fill="none" stroke="black" d="M1272.38,-431.7C1272.38,-424.41 1272.38,-415.73 1272.38,-407.54"/>
<polygon fill="black" stroke="black" points="1275.88,-407.62 1272.38,-397.62 1268.88,-407.62 1275.88,-407.62"/>
</g>
<!-- 2 -->
<g id="node3" class="node">
<title>2</title>
<ellipse fill="none" stroke="black" cx="1505.38" cy="-306" rx="269.38" ry="18"/>
<text text-anchor="middle" x="1505.38" y="-300.95" font-family="Times New Roman,serif" font-size="14.00">Kim Kitsuragi: The lieutenant gives you an acknowledging little nod.</text>
</g>
<!-- 9 -->
<g id="node10" class="node">
<title>9</title>
<ellipse fill="none" stroke="black" cx="1505.38" cy="-234" rx="778.12" ry="18"/>
<text text-anchor="middle" x="1505.38" y="-228.95" font-family="Times New Roman,serif" font-size="14.00">Hand/Eye Coordination: Your 9mm semiautomatic finger pistols produce a satisfying snap. (Strange for such a low calibre finger&#45;gun to sound so chunky.) The flower in your hand is impressed. So is Kim.</text>
</g>
<!-- 2&#45;&gt;9 -->
<g id="edge3" class="edge">
<title>2&#45;&gt;9</title>
<path fill="none" stroke="black" d="M1505.38,-287.7C1505.38,-280.41 1505.38,-271.73 1505.38,-263.54"/>
<polygon fill="black" stroke="black" points="1508.88,-263.62 1505.38,-253.62 1501.88,-263.62 1508.88,-263.62"/>
</g>
<!-- 3 -->
<g id="node4" class="node">
<title>3</title>
<ellipse fill="none" stroke="black" cx="1574.38" cy="-594" rx="114.82" ry="18"/>
<text text-anchor="middle" x="1574.38" y="-588.95" font-family="Times New Roman,serif" font-size="14.00">You: Move your hand, fast!</text>
</g>
<!-- 3&#45;&gt;3 -->
<g id="edge4" class="edge">
<title>3&#45;&gt;3</title>
<path fill="none" stroke="black" d="M1653.14,-607.47C1682.76,-607.95 1707.2,-603.46 1707.2,-594 1707.2,-585.8 1688.82,-581.33 1664.62,-580.61"/>
<polygon fill="black" stroke="black" points="1664.67,-577.11 1654.65,-580.54 1664.63,-584.11 1664.67,-577.11"/>
</g>
<!-- 4 -->
<g id="node5" class="node">
<title>4</title>
<ellipse fill="none" stroke="black" cx="293.38" cy="-378" rx="227.41" ry="18"/>
<text text-anchor="middle" x="293.38" y="-372.95" font-family="Times New Roman,serif" font-size="14.00">You: Variable[&quot;whirling.klaasje_flower_red_check_grab&quot;]</text>
</g>
<!-- 4&#45;&gt;4 -->
<g id="edge5" class="edge">
<title>4&#45;&gt;4</title>
<path fill="none" stroke="black" d="M449.16,-391.5C499.16,-391.36 538.8,-386.86 538.8,-378 538.8,-369.82 504.97,-365.35 460.39,-364.61"/>
<polygon fill="black" stroke="black" points="460.7,-361.11 450.67,-364.52 460.63,-368.11 460.7,-361.11"/>
</g>
<!-- 5 -->
<g id="node6" class="node">
<title>5</title>
<polygon fill="none" stroke="black" points="293.38,-324 0,-306 293.38,-288 586.77,-306 293.38,-324"/>
<text text-anchor="middle" x="293.38" y="-300.95" font-family="Times New Roman,serif" font-size="14.00">Variable[&quot;whirling.klaasje_flower_red_check_grab&quot;]</text>
</g>
<!-- 4&#45;&gt;5 -->
<g id="edge6" class="edge">
<title>4&#45;&gt;5</title>
<path fill="none" stroke="black" d="M293.38,-359.7C293.38,-352.41 293.38,-343.73 293.38,-335.54"/>
<polygon fill="black" stroke="black" points="296.88,-335.62 293.38,-325.62 289.88,-335.62 296.88,-335.62"/>
</g>
<!-- 12 -->
<g id="node13" class="node">
<title>12</title>
<polygon fill="none" stroke="black" points="404.38,-252 210.16,-234 404.38,-216 598.6,-234 404.38,-252"/>
<text text-anchor="middle" x="404.38" y="-228.95" font-family="Times New Roman,serif" font-size="14.00">!(IsTHCPresent(&quot;finger_pistols&quot;))</text>
</g>
<!-- 5&#45;&gt;12 -->
<g id="edge7" class="edge">
<title>5&#45;&gt;12</title>
<path fill="none" stroke="black" d="M318.57,-289.12C334.08,-279.34 354.14,-266.69 370.96,-256.08"/>
<polygon fill="black" stroke="black" points="372.56,-259.2 379.16,-250.91 368.83,-253.28 372.56,-259.2"/>
</g>
<!-- 6 -->
<g id="node7" class="node">
<title>6</title>
<polygon fill="none" stroke="black" points="911.38,-324 604.97,-306 911.38,-288 1217.79,-306 911.38,-324"/>
<text text-anchor="middle" x="911.38" y="-300.95" font-family="Times New Roman,serif" font-size="14.00">!(Variable[&quot;whirling.klaasje_flower_red_check_grab&quot;])</text>
</g>
<!-- 6&#45;&gt;12 -->
<g id="edge8" class="edge">
<title>6&#45;&gt;12</title>
<path fill="none" stroke="black" d="M822.49,-292.73C729.25,-279.85 583.67,-259.75 491.22,-246.99"/>
<polygon fill="black" stroke="black" points="491.82,-243.54 481.43,-245.64 490.86,-250.47 491.82,-243.54"/>
</g>
<!-- 7 -->
<g id="node8" class="node">
<title>7</title>
<ellipse fill="none" stroke="black" cx="2056.38" cy="-450" rx="96.9" ry="18"/>
<text text-anchor="middle" x="2056.38" y="-444.95" font-family="Times New Roman,serif" font-size="14.00">You: [Discard chance.]</text>
</g>
<!-- 8 -->
<g id="node9" class="node">
<title>8</title>
<ellipse fill="none" stroke="black" cx="4761.38" cy="-378" rx="476.15" ry="18"/>
<text text-anchor="middle" x="4761.38" y="-372.95" font-family="Times New Roman,serif" font-size="14.00">Hand/Eye Coordination: You catch a single white flower between your fingers. The rest fly off into the wind. It&#39;s a may bell!</text>
</g>
<!-- 29 -->
<g id="node30" class="node">
<title>29</title>
<ellipse fill="none" stroke="black" cx="4761.38" cy="-306" rx="441.86" ry="18"/>
<text text-anchor="middle" x="4761.38" y="-300.95" font-family="Times New Roman,serif" font-size="14.00">Hand/Eye Coordination: Variable[&quot;TASK.arrest_klaasje_done&quot;] &#160;or &#160;Variable[&quot;TASK.report_to_the_tribunal_done&quot;]</text>
</g>
<!-- 8&#45;&gt;29 -->
<g id="edge9" class="edge">
<title>8&#45;&gt;29</title>
<path fill="none" stroke="black" d="M4761.38,-359.7C4761.38,-352.41 4761.38,-343.73 4761.38,-335.54"/>
<polygon fill="black" stroke="black" points="4764.88,-335.62 4761.38,-325.62 4757.88,-335.62 4764.88,-335.62"/>
</g>
<!-- 22 -->
<g id="node23" class="node">
<title>22</title>
<ellipse fill="none" stroke="black" cx="1505.38" cy="-162" rx="767.37" ry="18"/>
<text text-anchor="middle" x="1505.38" y="-156.95" font-family="Times New Roman,serif" font-size="14.00">Klaasje (Miss Oranje Disco Dancer): That&#39;s not actually true &#45;&#45; she&#39;s looking toward the yard and doesn&#39;t notice them. Which is probably for the best, because didn&#39;t someone mention she&#39;s a rape victim?</text>
</g>
<!-- 9&#45;&gt;22 -->
<g id="edge10" class="edge">
<title>9&#45;&gt;22</title>
<path fill="none" stroke="black" d="M1505.38,-215.7C1505.38,-208.41 1505.38,-199.73 1505.38,-191.54"/>
<polygon fill="black" stroke="black" points="1508.88,-191.62 1505.38,-181.62 1501.88,-191.62 1508.88,-191.62"/>
</g>
<!-- 10 -->
<g id="node11" class="node">
<title>10</title>
<ellipse fill="none" stroke="black" cx="3992.38" cy="-594" rx="221.27" ry="18"/>
<text text-anchor="middle" x="3992.38" y="-588.95" font-family="Times New Roman,serif" font-size="14.00">Hand/Eye Coordination: IsTHCPresent(&quot;finger_pistols&quot;)</text>
</g>
<!-- 10&#45;&gt;10 -->
<g id="edge11" class="edge">
<title>10&#45;&gt;10</title>
<path fill="none" stroke="black" d="M4143.97,-607.5C4192.86,-607.38 4231.65,-602.88 4231.65,-594 4231.65,-585.82 4198.68,-581.35 4155.23,-580.61"/>
<polygon fill="black" stroke="black" points="4155.51,-577.11 4145.48,-580.52 4155.45,-584.11 4155.51,-577.11"/>
</g>
<!-- 11 -->
<g id="node12" class="node">
<title>11</title>
<polygon fill="none" stroke="black" points="3992.38,-540 3811.19,-522 3992.38,-504 4173.58,-522 3992.38,-540"/>
<text text-anchor="middle" x="3992.38" y="-516.95" font-family="Times New Roman,serif" font-size="14.00">IsTHCPresent(&quot;finger_pistols&quot;)</text>
</g>
<!-- 10&#45;&gt;11 -->
<g id="edge12" class="edge">
<title>10&#45;&gt;11</title>
<path fill="none" stroke="black" d="M3992.38,-575.7C3992.38,-568.41 3992.38,-559.73 3992.38,-551.54"/>
<polygon fill="black" stroke="black" points="3995.88,-551.62 3992.38,-541.62 3988.88,-551.62 3995.88,-551.62"/>
</g>
<!-- 20 -->
<g id="node21" class="node">
<title>20</title>
<ellipse fill="none" stroke="black" cx="2972.38" cy="-450" rx="800.64" ry="18"/>
<text text-anchor="middle" x="2972.38" y="-444.95" font-family="Times New Roman,serif" font-size="14.00">Hand/Eye Coordination: Your 9mm semiautomatic finger pistols make two satisfying snaps. (Strange for such a small calibre of finger pistol to sound so chunky.) The flower in your hand is impressed. So is she.</text>
</g>
<!-- 11&#45;&gt;20 -->
<g id="edge15" class="edge">
<title>11&#45;&gt;20</title>
<path fill="none" stroke="black" d="M3888.49,-513.87C3734.11,-503.28 3439.44,-483.05 3225.89,-468.4"/>
<polygon fill="black" stroke="black" points="3226.23,-464.91 3216.02,-467.72 3225.75,-471.9 3226.23,-464.91"/>
</g>
<!-- 25 -->
<g id="node26" class="node">
<title>25</title>
<ellipse fill="none" stroke="black" cx="3992.38" cy="-450" rx="201.82" ry="18"/>
<text text-anchor="middle" x="3992.38" y="-444.95" font-family="Times New Roman,serif" font-size="14.00">You: Snap your finger pistols at the young woman.</text>
</g>
<!-- 11&#45;&gt;25 -->
<g id="edge13" class="edge">
<title>11&#45;&gt;25</title>
<path fill="none" stroke="black" d="M3992.38,-503.7C3992.38,-496.41 3992.38,-487.73 3992.38,-479.54"/>
<polygon fill="black" stroke="black" points="3995.88,-479.62 3992.38,-469.62 3988.88,-479.62 3995.88,-479.62"/>
</g>
<!-- 28 -->
<g id="node29" class="node">
<title>28</title>
<ellipse fill="none" stroke="black" cx="4464.38" cy="-450" rx="149.62" ry="18"/>
<text text-anchor="middle" x="4464.38" y="-444.95" font-family="Times New Roman,serif" font-size="14.00">You: Snap your finger pistols at him.</text>
</g>
<!-- 11&#45;&gt;28 -->
<g id="edge14" class="edge">
<title>11&#45;&gt;28</title>
<path fill="none" stroke="black" d="M4063.05,-510.52C4142.09,-498.8 4270.86,-479.7 4361.17,-466.31"/>
<polygon fill="black" stroke="black" points="4361.66,-469.77 4371.04,-464.84 4360.64,-462.85 4361.66,-469.77"/>
</g>
<!-- 13 -->
<g id="node14" class="node">
<title>13</title>
<ellipse fill="none" stroke="black" cx="2056.38" cy="-594" rx="330.8" ry="18"/>
<text text-anchor="middle" x="2056.38" y="-588.95" font-family="Times New Roman,serif" font-size="14.00">Hand/Eye Coordination: Variable[&quot;whirling.klaasje_flower_red_check_grab&quot;] == true</text>
</g>
<!-- 13&#45;&gt;13 -->
<g id="edge16" class="edge">
<title>13&#45;&gt;13</title>
<path fill="none" stroke="black" d="M2283.25,-607.48C2351.72,-607.12 2405.18,-602.63 2405.18,-594 2405.18,-585.86 2357.6,-581.4 2294.73,-580.62"/>
<polygon fill="black" stroke="black" points="2294.79,-577.12 2284.76,-580.54 2294.73,-584.12 2294.79,-577.12"/>
</g>
<!-- 14 -->
<g id="node15" class="node">
<title>14</title>
<polygon fill="none" stroke="black" points="2056.38,-540 1719.57,-522 2056.38,-504 2393.19,-522 2056.38,-540"/>
<text text-anchor="middle" x="2056.38" y="-516.95" font-family="Times New Roman,serif" font-size="14.00">Variable[&quot;whirling.klaasje_flower_red_check_grab&quot;] == true</text>
</g>
<!-- 13&#45;&gt;14 -->
<g id="edge17" class="edge">
<title>13&#45;&gt;14</title>
<path fill="none" stroke="black" d="M2056.38,-575.7C2056.38,-568.41 2056.38,-559.73 2056.38,-551.54"/>
<polygon fill="black" stroke="black" points="2059.88,-551.62 2056.38,-541.62 2052.88,-551.62 2059.88,-551.62"/>
</g>
<!-- 14&#45;&gt;7 -->
<g id="edge18" class="edge">
<title>14&#45;&gt;7</title>
<path fill="none" stroke="black" d="M2056.38,-503.7C2056.38,-496.41 2056.38,-487.73 2056.38,-479.54"/>
<polygon fill="black" stroke="black" points="2059.88,-479.62 2056.38,-469.62 2052.88,-479.62 2059.88,-479.62"/>
</g>
<!-- 15 -->
<g id="node16" class="node">
<title>15</title>
<polygon fill="none" stroke="black" points="4629.38,-108 4279.54,-90 4629.38,-72 4979.22,-90 4629.38,-108"/>
<text text-anchor="middle" x="4629.38" y="-84.95" font-family="Times New Roman,serif" font-size="14.00">!(Variable[&quot;whirling.klaasje_flower_red_check_grab&quot;] == true)</text>
</g>
<!-- 23 -->
<g id="node24" class="node">
<title>23</title>
<ellipse fill="none" stroke="black" cx="4629.38" cy="-18" rx="426.51" ry="18"/>
<text text-anchor="middle" x="4629.38" y="-12.95" font-family="Times New Roman,serif" font-size="14.00">Kim Kitsuragi: That&#39;s not entirely true, the lieutenant is looking at the door to the east and mostly misses them.</text>
</g>
<!-- 15&#45;&gt;23 -->
<g id="edge19" class="edge">
<title>15&#45;&gt;23</title>
<path fill="none" stroke="black" d="M4629.38,-71.7C4629.38,-64.41 4629.38,-55.73 4629.38,-47.54"/>
<polygon fill="black" stroke="black" points="4632.88,-47.62 4629.38,-37.62 4625.88,-47.62 4632.88,-47.62"/>
</g>
<!-- 16 -->
<g id="node17" class="node">
<title>16</title>
<ellipse fill="none" stroke="black" cx="1272.38" cy="-594" rx="151.67" ry="18"/>
<text text-anchor="middle" x="1272.38" y="-588.95" font-family="Times New Roman,serif" font-size="14.00">Hand/Eye Coordination: IsKimHere()</text>
</g>
<!-- 16&#45;&gt;16 -->
<g id="edge20" class="edge">
<title>16&#45;&gt;16</title>
<path fill="none" stroke="black" d="M1376.34,-607.49C1412.66,-607.67 1442.05,-603.18 1442.05,-594 1442.05,-585.79 1418.53,-581.33 1387.58,-580.6"/>
<polygon fill="black" stroke="black" points="1387.89,-577.11 1377.86,-580.52 1387.83,-584.11 1387.89,-577.11"/>
</g>
<!-- 17 -->
<g id="node18" class="node">
<title>17</title>
<polygon fill="none" stroke="black" points="1272.38,-540 1189.63,-522 1272.38,-504 1355.14,-522 1272.38,-540"/>
<text text-anchor="middle" x="1272.38" y="-516.95" font-family="Times New Roman,serif" font-size="14.00">IsKimHere()</text>
</g>
<!-- 16&#45;&gt;17 -->
<g id="edge21" class="edge">
<title>16&#45;&gt;17</title>
<path fill="none" stroke="black" d="M1272.38,-575.7C1272.38,-568.41 1272.38,-559.73 1272.38,-551.54"/>
<polygon fill="black" stroke="black" points="1275.88,-551.62 1272.38,-541.62 1268.88,-551.62 1275.88,-551.62"/>
</g>
<!-- 17&#45;&gt;1 -->
<g id="edge22" class="edge">
<title>17&#45;&gt;1</title>
<path fill="none" stroke="black" d="M1272.38,-503.7C1272.38,-496.41 1272.38,-487.73 1272.38,-479.54"/>
<polygon fill="black" stroke="black" points="1275.88,-479.62 1272.38,-469.62 1268.88,-479.62 1275.88,-479.62"/>
</g>
<!-- 18 -->
<g id="node19" class="node">
<title>18</title>
<polygon fill="none" stroke="black" points="2972.38,-324 2876.6,-306 2972.38,-288 3068.17,-306 2972.38,-324"/>
<text text-anchor="middle" x="2972.38" y="-300.95" font-family="Times New Roman,serif" font-size="14.00">!(IsKimHere())</text>
</g>
<!-- 19 -->
<g id="node20" class="node">
<title>19</title>
<ellipse fill="none" stroke="black" cx="3798.38" cy="-378" rx="468.48" ry="18"/>
<text text-anchor="middle" x="3798.38" y="-372.95" font-family="Times New Roman,serif" font-size="14.00">Hand/Eye Coordination: Probably for the best &#45;&#45; your 9mm semiautomatic finger pistols are not a toy to be waved around.</text>
</g>
<!-- 21 -->
<g id="node22" class="node">
<title>21</title>
<ellipse fill="none" stroke="black" cx="2972.38" cy="-378" rx="145.52" ry="18"/>
<text text-anchor="middle" x="2972.38" y="-372.95" font-family="Times New Roman,serif" font-size="14.00">You: Don&#39;t snap finger pistols at all.</text>
</g>
<!-- 20&#45;&gt;21 -->
<g id="edge23" class="edge">
<title>20&#45;&gt;21</title>
<path fill="none" stroke="black" d="M2972.38,-431.7C2972.38,-424.41 2972.38,-415.73 2972.38,-407.54"/>
<polygon fill="black" stroke="black" points="2975.88,-407.62 2972.38,-397.62 2968.88,-407.62 2975.88,-407.62"/>
</g>
<!-- 21&#45;&gt;18 -->
<g id="edge24" class="edge">
<title>21&#45;&gt;18</title>
<path fill="none" stroke="black" d="M2972.38,-359.7C2972.38,-352.41 2972.38,-343.73 2972.38,-335.54"/>
<polygon fill="black" stroke="black" points="2975.88,-335.62 2972.38,-325.62 2968.88,-335.62 2975.88,-335.62"/>
</g>
<!-- 24 -->
<g id="node25" class="node">
<title>24</title>
<ellipse fill="none" stroke="black" cx="4546.38" cy="-594" rx="296.51" ry="18"/>
<text text-anchor="middle" x="4546.38" y="-588.95" font-family="Times New Roman,serif" font-size="14.00">Hand/Eye Coordination: ...the wind brushes them off the roof. They&#39;re gone.</text>
</g>
<!-- 25&#45;&gt;19 -->
<g id="edge25" class="edge">
<title>25&#45;&gt;19</title>
<path fill="none" stroke="black" d="M3945.42,-432.05C3918.87,-422.48 3885.44,-410.41 3857.16,-400.21"/>
<polygon fill="black" stroke="black" points="3858.62,-397.01 3848.02,-396.91 3856.24,-403.6 3858.62,-397.01"/>
</g>
<!-- 26&#45;&gt;2 -->
<g id="edge26" class="edge">
<title>26&#45;&gt;2</title>
<path fill="none" stroke="black" d="M1329.98,-359.7C1362.69,-349.87 1403.81,-337.52 1438.01,-327.24"/>
<polygon fill="black" stroke="black" points="1438.83,-330.65 1447.4,-324.42 1436.82,-323.94 1438.83,-330.65"/>
</g>
<!-- 26&#45;&gt;6 -->
<g id="edge27" class="edge">
<title>26&#45;&gt;6</title>
<path fill="none" stroke="black" d="M1184.07,-359.88C1125.27,-348.47 1048.62,-333.61 991.56,-322.55"/>
<polygon fill="black" stroke="black" points="992.39,-319.14 981.91,-320.68 991.06,-326.02 992.39,-319.14"/>
</g>
<!-- 27 -->
<g id="node28" class="node">
<title>27</title>
<ellipse fill="none" stroke="black" cx="5158.38" cy="-162" rx="545.25" ry="18"/>
<text text-anchor="middle" x="5158.38" y="-156.95" font-family="Times New Roman,serif" font-size="14.00">Klaasje (Miss Oranje Disco Dancer): The young woman looks at the may bell in your hand &#45;&#45; just a glance &#45;&#45; then takes a drag of her cigarette.</text>
</g>
<!-- 27&#45;&gt;15 -->
<g id="edge28" class="edge">
<title>27&#45;&gt;15</title>
<path fill="none" stroke="black" d="M5030.33,-144.05C4940.05,-132.11 4820.56,-116.3 4735.58,-105.05"/>
<polygon fill="black" stroke="black" points="4736.22,-101.61 4725.84,-103.76 4735.3,-108.55 4736.22,-101.61"/>
</g>
<!-- 28&#45;&gt;8 -->
<g id="edge29" class="edge">
<title>28&#45;&gt;8</title>
<path fill="none" stroke="black" d="M4530.3,-433.46C4573.57,-423.27 4630.56,-409.83 4677.11,-398.86"/>
<polygon fill="black" stroke="black" points="4677.69,-402.32 4686.62,-396.62 4676.09,-395.51 4677.69,-402.32"/>
</g>
<!-- 30 -->
<g id="node31" class="node">
<title>30</title>
<polygon fill="none" stroke="black" points="4101.38,-180 3607.51,-162 4101.38,-144 4595.26,-162 4101.38,-180"/>
<text text-anchor="middle" x="4101.38" y="-156.95" font-family="Times New Roman,serif" font-size="14.00">Variable[&quot;TASK.arrest_klaasje_done&quot;] &#160;or &#160;Variable[&quot;TASK.report_to_the_tribunal_done&quot;]</text>
</g>
<!-- 29&#45;&gt;30 -->
<g id="edge30" class="edge">
<title>29&#45;&gt;30</title>
<path fill="none" stroke="black" d="M4680.35,-287.83C4631.65,-277.49 4568.45,-264.04 4512.38,-252 4397.22,-227.27 4263.98,-198.37 4181.18,-180.37"/>
<polygon fill="black" stroke="black" points="4182.08,-176.98 4171.57,-178.28 4180.59,-183.82 4182.08,-176.98"/>
</g>
<!-- 31 -->
<g id="node32" class="node">
<title>31</title>
<polygon fill="none" stroke="black" points="5028.38,-252 4521.48,-234 5028.38,-216 5535.29,-234 5028.38,-252"/>
<text text-anchor="middle" x="5028.38" y="-228.95" font-family="Times New Roman,serif" font-size="14.00">!(Variable[&quot;TASK.arrest_klaasje_done&quot;] &#160;or &#160;Variable[&quot;TASK.report_to_the_tribunal_done&quot;])</text>
</g>
<!-- 29&#45;&gt;31 -->
<g id="edge31" class="edge">
<title>29&#45;&gt;31</title>
<path fill="none" stroke="black" d="M4827.04,-287.79C4867.07,-277.29 4918.18,-263.89 4958.89,-253.22"/>
<polygon fill="black" stroke="black" points="4959.55,-256.66 4968.34,-250.74 4957.78,-249.89 4959.55,-256.66"/>
</g>
<!-- 30&#45;&gt;15 -->
<g id="edge32" class="edge">
<title>30&#45;&gt;15</title>
<path fill="none" stroke="black" d="M4204.75,-147.3C4296.69,-135.11 4430.55,-117.36 4523.3,-105.06"/>
<polygon fill="black" stroke="black" points="4523.73,-108.54 4533.18,-103.75 4522.81,-101.6 4523.73,-108.54"/>
</g>
<!-- 31&#45;&gt;27 -->
<g id="edge33" class="edge">
<title>31&#45;&gt;27</title>
<path fill="none" stroke="black" d="M5058.86,-216.59C5075.96,-207.38 5097.54,-195.76 5116.24,-185.69"/>
<polygon fill="black" stroke="black" points="5117.8,-188.83 5124.95,-181 5114.48,-182.66 5117.8,-188.83"/>
</g>
</g>
</svg>
