<?xml version="1.0" encoding="UTF-8" standalone="no"?>
<!DOCTYPE svg PUBLIC "-//W3C//DTD SVG 1.1//EN"
 "http://www.w3.org/Graphics/SVG/1.1/DTD/svg11.dtd">
<!-- Generated by graphviz version 12.2.1 (20241206.2353)
 -->
<!-- Title: G Pages: 1 -->
<svg width="10031pt" height="1312pt"
 viewBox="0.00 0.00 10030.58 1311.97" xmlns="http://www.w3.org/2000/svg" xmlns:xlink="http://www.w3.org/1999/xlink">
<g id="graph0" class="graph" transform="scale(1 1) rotate(0) translate(4 1307.97)">
<title>G</title>
<polygon fill="white" stroke="none" points="-4,4 -4,-1307.97 10026.58,-1307.97 10026.58,4 -4,4"/>
<!-- 0 -->
<g id="node1" class="node">
<title>0</title>
<ellipse fill="none" stroke="black" cx="3338.3" cy="-1285.97" rx="39.07" ry="18"/>
<text text-anchor="middle" x="3338.3" y="-1280.92" font-family="Times New Roman,serif" font-size="14.00">START</text>
</g>
<!-- 0&#45;&gt;0 -->
<g id="edge1" class="edge">
<title>0&#45;&gt;0</title>
<path fill="none" stroke="black" d="M3366.49,-1298.91C3381.6,-1301.11 3395.37,-1296.79 3395.37,-1285.97 3395.37,-1277.93 3387.78,-1273.48 3377.7,-1272.62"/>
<polygon fill="black" stroke="black" points="3377.87,-1269.11 3368,-1272.97 3378.12,-1276.11 3377.87,-1269.11"/>
</g>
<!-- 1 -->
<g id="node2" class="node">
<title>1</title>
<ellipse fill="none" stroke="black" cx="3589.3" cy="-1141.97" rx="29.86" ry="18"/>
<text text-anchor="middle" x="3589.3" y="-1136.92" font-family="Times New Roman,serif" font-size="14.00">input</text>
</g>
<!-- 5 -->
<g id="node6" class="node">
<title>5</title>
<ellipse fill="none" stroke="black" cx="3589.3" cy="-1069.97" rx="601.55" ry="18"/>
<text text-anchor="middle" x="3589.3" y="-1064.92" font-family="Times New Roman,serif" font-size="14.00">Kim Kitsuragi: &quot;Look on the bright side: if it fails, we will only sustain minor injuries. I&#39;m talking three, maybe four months in the hospital. Maximum five.&quot;</text>
</g>
<!-- 1&#45;&gt;5 -->
<g id="edge2" class="edge">
<title>1&#45;&gt;5</title>
<path fill="none" stroke="black" d="M3589.3,-1123.66C3589.3,-1116.37 3589.3,-1107.69 3589.3,-1099.5"/>
<polygon fill="black" stroke="black" points="3592.8,-1099.58 3589.3,-1089.58 3585.8,-1099.58 3592.8,-1099.58"/>
</g>
<!-- 2 -->
<g id="node3" class="node">
<title>2</title>
<ellipse fill="none" stroke="black" cx="8529.3" cy="-234" rx="243.79" ry="18"/>
<text text-anchor="middle" x="8529.3" y="-228.95" font-family="Times New Roman,serif" font-size="14.00">Elevator: The elevator stands open, inviting you to step inside.</text>
</g>
<!-- 35 -->
<g id="node36" class="node">
<title>35</title>
<ellipse fill="none" stroke="black" cx="7779.3" cy="-162" rx="557.53" ry="18"/>
<text text-anchor="middle" x="7779.3" y="-156.95" font-family="Times New Roman,serif" font-size="14.00">Variable[&quot;auto.visited_pinball_workshop&quot;] &#160;and &#160;Variable[&quot;whirling.elevator_use&quot;] == false &#160;and &#160;Variable[&quot;whirling.elevator_logic_use&quot;] == false</text>
</g>
<!-- 2&#45;&gt;35 -->
<g id="edge3" class="edge">
<title>2&#45;&gt;35</title>
<path fill="none" stroke="black" d="M8382.02,-219.25C8263.36,-208.18 8095.75,-192.54 7967.39,-180.56"/>
<polygon fill="black" stroke="black" points="7968.06,-177.1 7957.78,-179.66 7967.41,-184.07 7968.06,-177.1"/>
</g>
<!-- 3 -->
<g id="node4" class="node">
<title>3</title>
<ellipse fill="none" stroke="black" cx="5863.3" cy="-522" rx="378.91" ry="18"/>
<text text-anchor="middle" x="5863.3" y="-516.95" font-family="Times New Roman,serif" font-size="14.00">Elevator: The elevator lurches and squeaks, like the belly of some ancient beast, as you descend....</text>
</g>
<!-- 4 -->
<g id="node5" class="node">
<title>4</title>
<ellipse fill="none" stroke="black" cx="7294.3" cy="-378" rx="63.12" ry="18"/>
<text text-anchor="middle" x="7294.3" y="-372.95" font-family="Times New Roman,serif" font-size="14.00">You: Look in.</text>
</g>
<!-- 32 -->
<g id="node33" class="node">
<title>32</title>
<ellipse fill="none" stroke="black" cx="7294.3" cy="-306" rx="629.69" ry="18"/>
<text text-anchor="middle" x="7294.3" y="-300.95" font-family="Times New Roman,serif" font-size="14.00">Elevator: Smells of nougat and sweat. Your head brushes up against the ceiling. There is a control panel to your right &#45;&#45; and just enough room for two people to fit in.</text>
</g>
<!-- 4&#45;&gt;32 -->
<g id="edge4" class="edge">
<title>4&#45;&gt;32</title>
<path fill="none" stroke="black" d="M7294.3,-359.7C7294.3,-352.41 7294.3,-343.73 7294.3,-335.54"/>
<polygon fill="black" stroke="black" points="7297.8,-335.62 7294.3,-325.62 7290.8,-335.62 7297.8,-335.62"/>
</g>
<!-- 47 -->
<g id="node48" class="node">
<title>47</title>
<ellipse fill="none" stroke="black" cx="3589.3" cy="-997.97" rx="212.57" ry="18"/>
<text text-anchor="middle" x="3589.3" y="-992.92" font-family="Times New Roman,serif" font-size="14.00">Rhetoric: It appears his whole enthusiasm is sarcastic.</text>
</g>
<!-- 5&#45;&gt;47 -->
<g id="edge5" class="edge">
<title>5&#45;&gt;47</title>
<path fill="none" stroke="black" d="M3589.3,-1051.66C3589.3,-1044.37 3589.3,-1035.69 3589.3,-1027.5"/>
<polygon fill="black" stroke="black" points="3592.8,-1027.58 3589.3,-1017.58 3585.8,-1027.58 3592.8,-1027.58"/>
</g>
<!-- 6 -->
<g id="node7" class="node">
<title>6</title>
<ellipse fill="none" stroke="black" cx="3589.3" cy="-1285.97" rx="176.23" ry="18"/>
<text text-anchor="middle" x="3589.3" y="-1280.92" font-family="Times New Roman,serif" font-size="14.00">Variable[&quot;whirling.elevator_main_reached&quot;]</text>
</g>
<!-- 6&#45;&gt;6 -->
<g id="edge6" class="edge">
<title>6&#45;&gt;6</title>
<path fill="none" stroke="black" d="M3709.75,-1299.46C3750.65,-1299.54 3783.53,-1295.04 3783.53,-1285.97 3783.53,-1277.75 3756.53,-1273.28 3721.02,-1272.57"/>
<polygon fill="black" stroke="black" points="3721.29,-1269.07 3711.26,-1272.48 3721.23,-1276.07 3721.29,-1269.07"/>
</g>
<!-- 7 -->
<g id="node8" class="node">
<title>7</title>
<polygon fill="none" stroke="black" points="3589.3,-1231.97 3340.07,-1213.97 3589.3,-1195.97 3838.53,-1213.97 3589.3,-1231.97"/>
<text text-anchor="middle" x="3589.3" y="-1208.92" font-family="Times New Roman,serif" font-size="14.00">Variable[&quot;whirling.elevator_main_reached&quot;]</text>
</g>
<!-- 6&#45;&gt;7 -->
<g id="edge7" class="edge">
<title>6&#45;&gt;7</title>
<path fill="none" stroke="black" d="M3589.3,-1267.66C3589.3,-1260.37 3589.3,-1251.69 3589.3,-1243.5"/>
<polygon fill="black" stroke="black" points="3592.8,-1243.58 3589.3,-1233.58 3585.8,-1243.58 3592.8,-1243.58"/>
</g>
<!-- 7&#45;&gt;1 -->
<g id="edge8" class="edge">
<title>7&#45;&gt;1</title>
<path fill="none" stroke="black" d="M3589.3,-1195.66C3589.3,-1188.37 3589.3,-1179.69 3589.3,-1171.5"/>
<polygon fill="black" stroke="black" points="3592.8,-1171.58 3589.3,-1161.58 3585.8,-1171.58 3592.8,-1171.58"/>
</g>
<!-- 8 -->
<g id="node9" class="node">
<title>8</title>
<polygon fill="none" stroke="black" points="6346.3,-694.99 6084.04,-676.99 6346.3,-658.99 6608.56,-676.99 6346.3,-694.99"/>
<text text-anchor="middle" x="6346.3" y="-671.94" font-family="Times New Roman,serif" font-size="14.00">!(Variable[&quot;whirling.elevator_main_reached&quot;])</text>
</g>
<!-- 22 -->
<g id="node23" class="node">
<title>22</title>
<ellipse fill="none" stroke="black" cx="6101.3" cy="-594" rx="507.37" ry="18"/>
<text text-anchor="middle" x="6101.3" y="-588.95" font-family="Times New Roman,serif" font-size="14.00">Elevator: This small elevator is dimly lit by a bulb that&#39;s been glowing for ages. The latticed cage is open, inviting you to step inside.</text>
</g>
<!-- 8&#45;&gt;22 -->
<g id="edge9" class="edge">
<title>8&#45;&gt;22</title>
<path fill="none" stroke="black" d="M6302.5,-661.51C6264.05,-648.8 6207.67,-630.16 6164.37,-615.85"/>
<polygon fill="black" stroke="black" points="6165.69,-612.6 6155.1,-612.78 6163.49,-619.25 6165.69,-612.6"/>
</g>
<!-- 9 -->
<g id="node10" class="node">
<title>9</title>
<ellipse fill="none" stroke="black" cx="4340.3" cy="-676.99" rx="656.31" ry="18"/>
<text text-anchor="middle" x="4340.3" y="-671.94" font-family="Times New Roman,serif" font-size="14.00">Kim Kitsuragi: &quot;Seems like a small freight elevator for transporting machinery. For that &#45;&#45; it&#39;s pretty quaint.&quot; He taps the on the guttering light bulb &#45;&#45; it&#39;s golden in the dark.</text>
</g>
<!-- 30 -->
<g id="node31" class="node">
<title>30</title>
<ellipse fill="none" stroke="black" cx="4340.3" cy="-594" rx="114.82" ry="18"/>
<text text-anchor="middle" x="4340.3" y="-588.95" font-family="Times New Roman,serif" font-size="14.00">Jump to: [elevatormainhub]</text>
</g>
<!-- 9&#45;&gt;30 -->
<g id="edge10" class="edge">
<title>9&#45;&gt;30</title>
<path fill="none" stroke="black" d="M4340.3,-658.82C4340.3,-648.68 4340.3,-635.6 4340.3,-623.91"/>
<polygon fill="black" stroke="black" points="4343.8,-623.94 4340.3,-613.94 4336.8,-623.94 4343.8,-623.94"/>
</g>
<!-- 10 -->
<g id="node11" class="node">
<title>10</title>
<ellipse fill="none" stroke="black" cx="2894.3" cy="-770.97" rx="368.76" ry="28.99"/>
<text text-anchor="middle" x="2894.3" y="-774.17" font-family="Times New Roman,serif" font-size="14.00">You: &quot;This elevator must have been needed to transport the pinball machines up and down.&quot;</text>
<text text-anchor="middle" x="2894.3" y="-757.67" font-family="Times New Roman,serif" font-size="14.00">&quot;So it was mostly pinball machines riding this elevator.&quot;</text>
</g>
<!-- 25 -->
<g id="node26" class="node">
<title>25</title>
<ellipse fill="none" stroke="black" cx="2110.3" cy="-676.99" rx="526.31" ry="18"/>
<text text-anchor="middle" x="2110.3" y="-671.94" font-family="Times New Roman,serif" font-size="14.00">Kim Kitsuragi: &quot;Seems so, although it&#39;s pretty... quaint for a freight elevator.&quot; He taps on the guttering light bulb &#45;&#45; it&#39;s golden in the dark.</text>
</g>
<!-- 10&#45;&gt;25 -->
<g id="edge11" class="edge">
<title>10&#45;&gt;25</title>
<path fill="none" stroke="black" d="M2692.4,-746.29C2559.09,-730.65 2387.08,-710.46 2264.69,-696.11"/>
<polygon fill="black" stroke="black" points="2265.22,-692.64 2254.88,-694.95 2264.41,-699.6 2265.22,-692.64"/>
</g>
<!-- 11 -->
<g id="node12" class="node">
<title>11</title>
<ellipse fill="none" stroke="black" cx="8242.3" cy="-770.97" rx="68.24" ry="18"/>
<text text-anchor="middle" x="8242.3" y="-765.92" font-family="Times New Roman,serif" font-size="14.00">You: Go down.</text>
</g>
<!-- 11&#45;&gt;2 -->
<g id="edge12" class="edge">
<title>11&#45;&gt;2</title>
<path fill="none" stroke="black" d="M8310.85,-770.1C8375.27,-766.99 8471.65,-753.75 8539.3,-705.98 8544.39,-702.39 8773.6,-330 8775.3,-324 8779.67,-308.61 8785.35,-300.45 8775.3,-288 8761.67,-271.12 8721.58,-259.36 8677.61,-251.29"/>
<polygon fill="black" stroke="black" points="8678.31,-247.86 8667.86,-249.57 8677.1,-254.75 8678.31,-247.86"/>
</g>
<!-- 12 -->
<g id="node13" class="node">
<title>12</title>
<ellipse fill="none" stroke="black" cx="8631.3" cy="-770.97" rx="137.34" ry="18"/>
<text text-anchor="middle" x="8631.3" y="-765.92" font-family="Times New Roman,serif" font-size="14.00">You: (Close the doors and go up.)</text>
</g>
<!-- 15 -->
<g id="node16" class="node">
<title>15</title>
<ellipse fill="none" stroke="black" cx="9288.3" cy="-676.99" rx="702.37" ry="18"/>
<text text-anchor="middle" x="9288.3" y="-671.94" font-family="Times New Roman,serif" font-size="14.00">Kim Kitsuragi: &quot;If some form of time travel becomes possible in the future, I doubt its inventors will use it to repair elevators in Martinaise,” the lieutenant responds with a grave voice.</text>
</g>
<!-- 12&#45;&gt;15 -->
<g id="edge13" class="edge">
<title>12&#45;&gt;15</title>
<path fill="none" stroke="black" d="M8722.65,-757.18C8834.77,-741.49 9025.8,-714.74 9154.48,-696.73"/>
<polygon fill="black" stroke="black" points="9154.66,-700.24 9164.07,-695.38 9153.68,-693.3 9154.66,-700.24"/>
</g>
<!-- 13 -->
<g id="node14" class="node">
<title>13</title>
<ellipse fill="none" stroke="black" cx="7024.3" cy="-450" rx="62.61" ry="18"/>
<text text-anchor="middle" x="7024.3" y="-444.95" font-family="Times New Roman,serif" font-size="14.00">You: [Leave.]</text>
</g>
<!-- 14 -->
<g id="node15" class="node">
<title>14</title>
<ellipse fill="none" stroke="black" cx="8170.3" cy="-378" rx="190.05" ry="18"/>
<text text-anchor="middle" x="8170.3" y="-372.95" font-family="Times New Roman,serif" font-size="14.00">You: &quot;So it&#39;s *not* a message from the future?&quot;</text>
</g>
<!-- 17 -->
<g id="node18" class="node">
<title>17</title>
<ellipse fill="none" stroke="black" cx="8354.3" cy="-306" rx="412.18" ry="18"/>
<text text-anchor="middle" x="8354.3" y="-300.95" font-family="Times New Roman,serif" font-size="14.00">Kim Kitsuragi: &quot;No, I think the bureaucrats just forgot about this back&#45;room elevator after the Revolution.&quot;</text>
</g>
<!-- 14&#45;&gt;17 -->
<g id="edge14" class="edge">
<title>14&#45;&gt;17</title>
<path fill="none" stroke="black" d="M8214.84,-360.05C8239.89,-350.52 8271.41,-338.53 8298.14,-328.36"/>
<polygon fill="black" stroke="black" points="8299.37,-331.64 8307.48,-324.81 8296.89,-325.1 8299.37,-331.64"/>
</g>
<!-- 38 -->
<g id="node39" class="node">
<title>38</title>
<ellipse fill="none" stroke="black" cx="7797.3" cy="-925.97" rx="114.82" ry="18"/>
<text text-anchor="middle" x="7797.3" y="-920.92" font-family="Times New Roman,serif" font-size="14.00">Jump to: [elevatormainhub]</text>
</g>
<!-- 15&#45;&gt;38 -->
<g id="edge15" class="edge">
<title>15&#45;&gt;38</title>
<path fill="none" stroke="black" d="M9225.03,-695.41C9128.94,-721.35 8940.15,-770.23 8777.3,-799.97 8463.03,-857.34 8087.31,-897.4 7905.91,-914.96"/>
<polygon fill="black" stroke="black" points="7905.63,-911.47 7896.01,-915.92 7906.3,-918.44 7905.63,-911.47"/>
</g>
<!-- 16 -->
<g id="node17" class="node">
<title>16</title>
<ellipse fill="none" stroke="black" cx="4212.3" cy="-1285.97" rx="411.15" ry="18"/>
<text text-anchor="middle" x="4212.3" y="-1280.92" font-family="Times New Roman,serif" font-size="14.00">Elevator: The elevator screeches and rattles, like the belly of some ancient beast, as it carries you upward...</text>
</g>
<!-- 17&#45;&gt;38 -->
<g id="edge16" class="edge">
<title>17&#45;&gt;38</title>
<path fill="none" stroke="black" d="M8555.6,-322.15C9036.85,-362.15 10199.67,-483.17 9999.3,-705.98 9859.54,-861.4 8366.1,-910.83 7921.49,-922.16"/>
<polygon fill="black" stroke="black" points="7921.65,-918.65 7911.74,-922.4 7921.83,-925.65 7921.65,-918.65"/>
</g>
<!-- 18 -->
<g id="node19" class="node">
<title>18</title>
<ellipse fill="none" stroke="black" cx="4900.3" cy="-18" rx="410.13" ry="18"/>
<text text-anchor="middle" x="4900.3" y="-12.95" font-family="Times New Roman,serif" font-size="14.00">Logic: This elevator must have been used to transport pinball machines to and from the upstairs workshop.</text>
</g>
<!-- 19 -->
<g id="node20" class="node">
<title>19</title>
<ellipse fill="none" stroke="black" cx="6508.3" cy="-853.97" rx="73.36" ry="18"/>
<text text-anchor="middle" x="6508.3" y="-848.92" font-family="Times New Roman,serif" font-size="14.00">elevatormainhub</text>
</g>
<!-- 18&#45;&gt;19 -->
<g id="edge17" class="edge">
<title>18&#45;&gt;19</title>
<path fill="none" stroke="black" d="M4524.01,-25.36C3649.95,-41.38 1556.3,-87.43 1556.3,-161 1556.3,-677.99 1556.3,-677.99 1556.3,-677.99 1556.3,-893.04 2301.59,-787.84 2516.3,-799.97 3315.11,-845.07 5919.73,-851.93 6423.51,-852.84"/>
<polygon fill="black" stroke="black" points="6423.14,-856.34 6433.15,-852.85 6423.16,-849.34 6423.14,-856.34"/>
</g>
<!-- 19&#45;&gt;9 -->
<g id="edge19" class="edge">
<title>19&#45;&gt;9</title>
<path fill="none" stroke="black" d="M6435.04,-851.78C6174.21,-847.34 5291.34,-830.36 5010.3,-799.97 4798.64,-777.08 4553.26,-726.04 4426.31,-697.78"/>
<polygon fill="black" stroke="black" points="4427.14,-694.38 4416.62,-695.61 4425.61,-701.21 4427.14,-694.38"/>
</g>
<!-- 19&#45;&gt;10 -->
<g id="edge20" class="edge">
<title>19&#45;&gt;10</title>
<path fill="none" stroke="black" d="M6434.89,-852.55C6095.92,-850.47 4648.08,-839.57 3461.3,-799.97 3377.4,-797.17 3286.56,-793.13 3202.69,-788.99"/>
<polygon fill="black" stroke="black" points="3203.11,-785.51 3192.95,-788.51 3202.76,-792.5 3203.11,-785.51"/>
</g>
<!-- 19&#45;&gt;11 -->
<g id="edge21" class="edge">
<title>19&#45;&gt;11</title>
<path fill="none" stroke="black" d="M6580.97,-850.89C6782.37,-844.98 7364.77,-826.7 7848.3,-799.97 7959.08,-793.84 8087.21,-784.28 8166.51,-778.07"/>
<polygon fill="black" stroke="black" points="8166.64,-781.57 8176.34,-777.3 8166.09,-774.59 8166.64,-781.57"/>
</g>
<!-- 19&#45;&gt;12 -->
<g id="edge22" class="edge">
<title>19&#45;&gt;12</title>
<path fill="none" stroke="black" d="M6581.69,-852.4C6827.6,-850.18 7645.01,-840.04 8319.3,-799.97 8384.33,-796.1 8456.81,-789.72 8515.53,-784.03"/>
<polygon fill="black" stroke="black" points="8515.59,-787.54 8525.2,-783.09 8514.91,-780.58 8515.59,-787.54"/>
</g>
<!-- 20 -->
<g id="node21" class="node">
<title>20</title>
<ellipse fill="none" stroke="black" cx="7698.3" cy="-770.97" rx="140.92" ry="18"/>
<text text-anchor="middle" x="7698.3" y="-765.92" font-family="Times New Roman,serif" font-size="14.00">You: Look at the elevator controls.</text>
</g>
<!-- 19&#45;&gt;20 -->
<g id="edge24" class="edge">
<title>19&#45;&gt;20</title>
<path fill="none" stroke="black" d="M6578.75,-848.48C6718.61,-839.53 7041.22,-818.73 7312.3,-799.97 7397.26,-794.09 7492.7,-787.17 7567.43,-781.68"/>
<polygon fill="black" stroke="black" points="7567.55,-785.18 7577.26,-780.96 7567.03,-778.2 7567.55,-785.18"/>
</g>
<!-- 26 -->
<g id="node27" class="node">
<title>26</title>
<ellipse fill="none" stroke="black" cx="3755.3" cy="-770.97" rx="284.96" ry="28.99"/>
<text text-anchor="middle" x="3755.3" y="-774.17" font-family="Times New Roman,serif" font-size="14.00">You: Could this have been for moving pinball machines up and down?</text>
<text text-anchor="middle" x="3755.3" y="-757.67" font-family="Times New Roman,serif" font-size="14.00">Would a pinball machine really fit in here?</text>
</g>
<!-- 19&#45;&gt;26 -->
<g id="edge25" class="edge">
<title>19&#45;&gt;26</title>
<path fill="none" stroke="black" d="M6435.66,-850.97C6186.68,-844.1 5344.78,-820.77 4649.3,-799.97 4443.97,-793.82 4212.12,-786.56 4035.99,-780.96"/>
<polygon fill="black" stroke="black" points="4036.36,-777.47 4026.25,-780.65 4036.14,-784.47 4036.36,-777.47"/>
</g>
<!-- 28 -->
<g id="node29" class="node">
<title>28</title>
<ellipse fill="none" stroke="black" cx="6381.3" cy="-770.97" rx="193.12" ry="18"/>
<text text-anchor="middle" x="6381.3" y="-765.92" font-family="Times New Roman,serif" font-size="14.00">You: &quot;I wonder what this elevator was used for.&quot;</text>
</g>
<!-- 19&#45;&gt;28 -->
<g id="edge26" class="edge">
<title>19&#45;&gt;28</title>
<path fill="none" stroke="black" d="M6482.9,-836.77C6464.28,-824.89 6438.72,-808.59 6417.9,-795.31"/>
<polygon fill="black" stroke="black" points="6420,-792.5 6409.68,-790.07 6416.23,-798.4 6420,-792.5"/>
</g>
<!-- 40 -->
<g id="node41" class="node">
<title>40</title>
<ellipse fill="none" stroke="black" cx="5768.3" cy="-770.97" rx="159.34" ry="18"/>
<text text-anchor="middle" x="5768.3" y="-765.92" font-family="Times New Roman,serif" font-size="14.00">You: What were you used for, elevator?</text>
</g>
<!-- 19&#45;&gt;40 -->
<g id="edge18" class="edge">
<title>19&#45;&gt;40</title>
<path fill="none" stroke="black" d="M6442.3,-845.74C6318.37,-832.18 6049.11,-802.71 5890.99,-785.4"/>
<polygon fill="black" stroke="black" points="5891.63,-781.95 5881.31,-784.34 5890.87,-788.91 5891.63,-781.95"/>
</g>
<!-- 46 -->
<g id="node47" class="node">
<title>46</title>
<ellipse fill="none" stroke="black" cx="6908.3" cy="-770.97" rx="184.93" ry="18"/>
<text text-anchor="middle" x="6908.3" y="-765.92" font-family="Times New Roman,serif" font-size="14.00">You: &quot;It says the last maintenance was in &#39;88.&quot;</text>
</g>
<!-- 19&#45;&gt;46 -->
<g id="edge23" class="edge">
<title>19&#45;&gt;46</title>
<path fill="none" stroke="black" d="M6563.5,-841.79C6629.72,-828.38 6741.58,-805.73 6819.88,-789.88"/>
<polygon fill="black" stroke="black" points="6820.11,-793.4 6829.21,-787.99 6818.72,-786.54 6820.11,-793.4"/>
</g>
<!-- 33 -->
<g id="node34" class="node">
<title>33</title>
<ellipse fill="none" stroke="black" cx="7928.3" cy="-676.99" rx="601.55" ry="18"/>
<text text-anchor="middle" x="7928.3" y="-671.94" font-family="Times New Roman,serif" font-size="14.00">Elevator: There are large rectangular buttons: &#39;Monter&#39;, &#39;Descendre&#39;, and an international: &#39;Call for Emergency Assistance&#39;. That third one appears to be broken.</text>
</g>
<!-- 20&#45;&gt;33 -->
<g id="edge27" class="edge">
<title>20&#45;&gt;33</title>
<path fill="none" stroke="black" d="M7739.95,-753.32C7777.62,-738.25 7833.31,-715.98 7874.37,-699.56"/>
<polygon fill="black" stroke="black" points="7875.62,-702.83 7883.6,-695.87 7873.02,-696.33 7875.62,-702.83"/>
</g>
<!-- 21 -->
<g id="node22" class="node">
<title>21</title>
<ellipse fill="none" stroke="black" cx="7006.3" cy="-594" rx="225.88" ry="18"/>
<text text-anchor="middle" x="7006.3" y="-588.95" font-family="Times New Roman,serif" font-size="14.00">You: &quot;This elevator was last maintained in the *future*?&quot;</text>
</g>
<!-- 34 -->
<g id="node35" class="node">
<title>34</title>
<ellipse fill="none" stroke="black" cx="7159.3" cy="-522" rx="283.2" ry="18"/>
<text text-anchor="middle" x="7159.3" y="-516.95" font-family="Times New Roman,serif" font-size="14.00">Kim Kitsuragi: &quot;No, it was maintained in &#39;88 of the *previous* century.&quot;</text>
</g>
<!-- 21&#45;&gt;34 -->
<g id="edge28" class="edge">
<title>21&#45;&gt;34</title>
<path fill="none" stroke="black" d="M7043.73,-575.88C7064.03,-566.59 7089.34,-555.01 7111.1,-545.05"/>
<polygon fill="black" stroke="black" points="7112.45,-548.28 7120.09,-540.94 7109.54,-541.92 7112.45,-548.28"/>
</g>
<!-- 22&#45;&gt;3 -->
<g id="edge29" class="edge">
<title>22&#45;&gt;3</title>
<path fill="none" stroke="black" d="M6042.47,-575.7C6009.3,-565.94 5967.68,-553.7 5932.9,-543.47"/>
<polygon fill="black" stroke="black" points="5933.9,-540.12 5923.32,-540.65 5931.92,-546.83 5933.9,-540.12"/>
</g>
<!-- 44 -->
<g id="node45" class="node">
<title>44</title>
<ellipse fill="none" stroke="black" cx="6323.3" cy="-522" rx="62.61" ry="18"/>
<text text-anchor="middle" x="6323.3" y="-516.95" font-family="Times New Roman,serif" font-size="14.00">You: [Leave.]</text>
</g>
<!-- 22&#45;&gt;44 -->
<g id="edge30" class="edge">
<title>22&#45;&gt;44</title>
<path fill="none" stroke="black" d="M6156.18,-575.7C6191.4,-564.59 6236.85,-550.26 6271.46,-539.35"/>
<polygon fill="black" stroke="black" points="6272.36,-542.73 6280.85,-536.39 6270.26,-536.06 6272.36,-542.73"/>
</g>
<!-- 23 -->
<g id="node24" class="node">
<title>23</title>
<ellipse fill="none" stroke="black" cx="7294.3" cy="-450" rx="189.03" ry="18"/>
<text text-anchor="middle" x="7294.3" y="-444.95" font-family="Times New Roman,serif" font-size="14.00">You: &quot;That means it&#39;s not really that safe, is it.&quot;</text>
</g>
<!-- 23&#45;&gt;4 -->
<g id="edge31" class="edge">
<title>23&#45;&gt;4</title>
<path fill="none" stroke="black" d="M7294.3,-431.7C7294.3,-424.41 7294.3,-415.73 7294.3,-407.54"/>
<polygon fill="black" stroke="black" points="7297.8,-407.62 7294.3,-397.62 7290.8,-407.62 7297.8,-407.62"/>
</g>
<!-- 24 -->
<g id="node25" class="node">
<title>24</title>
<ellipse fill="none" stroke="black" cx="5559.3" cy="-676.99" rx="506.86" ry="18"/>
<text text-anchor="middle" x="5559.3" y="-671.94" font-family="Times New Roman,serif" font-size="14.00">Elevator: The deep scratches on the floor suggest it was used as a freight elevator &#45;&#45; for transporting heavy machinery. And one man.</text>
</g>
<!-- 24&#45;&gt;30 -->
<g id="edge32" class="edge">
<title>24&#45;&gt;30</title>
<path fill="none" stroke="black" d="M5327.15,-660.57C5066.77,-643.27 4654.91,-615.9 4455.73,-602.67"/>
<polygon fill="black" stroke="black" points="4456.1,-599.19 4445.89,-602.02 4455.63,-606.17 4456.1,-599.19"/>
</g>
<!-- 25&#45;&gt;30 -->
<g id="edge33" class="edge">
<title>25&#45;&gt;30</title>
<path fill="none" stroke="black" d="M2375.57,-661.01C2461.6,-656.44 2557.48,-651.67 2645.3,-648 3233.01,-623.44 3935.78,-604.93 4216.05,-597.99"/>
<polygon fill="black" stroke="black" points="4216.03,-601.49 4225.94,-597.75 4215.86,-594.49 4216.03,-601.49"/>
</g>
<!-- 31 -->
<g id="node32" class="node">
<title>31</title>
<ellipse fill="none" stroke="black" cx="3160.3" cy="-676.99" rx="505.58" ry="28.99"/>
<text text-anchor="middle" x="3160.3" y="-680.19" font-family="Times New Roman,serif" font-size="14.00">Elevator: Looks like one would fit in there, yes. Although it&#39;s also surprisingly human &#45;&#45; in the golden light of that ancient bulb.</text>
<text text-anchor="middle" x="3160.3" y="-663.69" font-family="Times New Roman,serif" font-size="14.00">Just about. If tilted precisely. For a small elevator this one is surprisingly nice. The ancient golden bulb gutters in the dark.</text>
</g>
<!-- 26&#45;&gt;31 -->
<g id="edge34" class="edge">
<title>26&#45;&gt;31</title>
<path fill="none" stroke="black" d="M3601.3,-746.17C3522.79,-734.03 3426.74,-719.18 3344.35,-706.44"/>
<polygon fill="black" stroke="black" points="3344.99,-703 3334.57,-704.93 3343.92,-709.92 3344.99,-703"/>
</g>
<!-- 27 -->
<g id="node28" class="node">
<title>27</title>
<ellipse fill="none" stroke="black" cx="7986.3" cy="-450" rx="116.86" ry="18"/>
<text text-anchor="middle" x="7986.3" y="-444.95" font-family="Times New Roman,serif" font-size="14.00">You: &quot;That&#39;s disappointing.&quot;</text>
</g>
<!-- 27&#45;&gt;14 -->
<g id="edge35" class="edge">
<title>27&#45;&gt;14</title>
<path fill="none" stroke="black" d="M8028.51,-432.94C8054.18,-423.18 8087.24,-410.6 8114.98,-400.05"/>
<polygon fill="black" stroke="black" points="8116.2,-403.33 8124.3,-396.5 8113.71,-396.78 8116.2,-403.33"/>
</g>
<!-- 28&#45;&gt;8 -->
<g id="edge36" class="edge">
<title>28&#45;&gt;8</title>
<path fill="none" stroke="black" d="M6374.72,-752.67C6369.65,-739.36 6362.55,-720.7 6356.71,-705.36"/>
<polygon fill="black" stroke="black" points="6360.1,-704.42 6353.27,-696.32 6353.56,-706.91 6360.1,-704.42"/>
</g>
<!-- 29 -->
<g id="node30" class="node">
<title>29</title>
<ellipse fill="none" stroke="black" cx="7735.3" cy="-522" rx="114.82" ry="18"/>
<text text-anchor="middle" x="7735.3" y="-516.95" font-family="Times New Roman,serif" font-size="14.00">Jump to: [elevatormainhub]</text>
</g>
<!-- 29&#45;&gt;19 -->
<g id="edge37" class="edge">
<title>29&#45;&gt;19</title>
<path fill="none" stroke="black" d="M7625.11,-527.35C7527.72,-533.13 7394.59,-546.31 7351.3,-576 7296.83,-613.35 7326.41,-659.7 7279.3,-705.98 7215.76,-768.4 7187.69,-774.62 7102.3,-799.97 7008.86,-827.7 6731.57,-843.31 6591.4,-849.62"/>
<polygon fill="black" stroke="black" points="6591.67,-846.11 6581.83,-850.05 6591.98,-853.1 6591.67,-846.11"/>
</g>
<!-- 30&#45;&gt;19 -->
<g id="edge38" class="edge">
<title>30&#45;&gt;19</title>
<path fill="none" stroke="black" d="M4451.88,-598.56C4628.92,-605 4958.97,-620.54 5005.3,-648 5031.8,-663.71 5017.51,-689.13 5043.3,-705.98 5253.45,-843.34 5350.84,-771.72 5600.3,-799.97 5902.35,-834.16 6263.57,-846.9 6424.18,-851.11"/>
<polygon fill="black" stroke="black" points="6423.79,-854.6 6433.88,-851.36 6423.97,-847.61 6423.79,-854.6"/>
</g>
<!-- 31&#45;&gt;30 -->
<g id="edge39" class="edge">
<title>31&#45;&gt;30</title>
<path fill="none" stroke="black" d="M3479.24,-654.1C3726.4,-637.14 4054.66,-614.61 4225.67,-602.87"/>
<polygon fill="black" stroke="black" points="4225.71,-606.37 4235.45,-602.2 4225.23,-599.39 4225.71,-606.37"/>
</g>
<!-- 39 -->
<g id="node40" class="node">
<title>39</title>
<ellipse fill="none" stroke="black" cx="7449.3" cy="-234" rx="398.87" ry="18"/>
<text text-anchor="middle" x="7449.3" y="-228.95" font-family="Times New Roman,serif" font-size="14.00">Perception (Sight): The maintenance card under the control panel reads: &#39;Last Maintenance: 10 July &#39;88&#39;.</text>
</g>
<!-- 32&#45;&gt;39 -->
<g id="edge40" class="edge">
<title>32&#45;&gt;39</title>
<path fill="none" stroke="black" d="M7332.61,-287.7C7353.11,-278.44 7378.56,-266.95 7400.46,-257.06"/>
<polygon fill="black" stroke="black" points="7401.84,-260.28 7409.51,-252.97 7398.96,-253.9 7401.84,-260.28"/>
</g>
<!-- 45 -->
<g id="node46" class="node">
<title>45</title>
<ellipse fill="none" stroke="black" cx="7894.3" cy="-594" rx="534.5" ry="18"/>
<text text-anchor="middle" x="7894.3" y="-588.95" font-family="Times New Roman,serif" font-size="14.00">Encyclopedia: A small steel plaque reads &#39;Halter 800&#39;. Halter is a Königsteiner lift company who went out of business a long, long time ago.</text>
</g>
<!-- 33&#45;&gt;45 -->
<g id="edge41" class="edge">
<title>33&#45;&gt;45</title>
<path fill="none" stroke="black" d="M7921.09,-658.82C7916.7,-648.36 7910.99,-634.77 7905.98,-622.81"/>
<polygon fill="black" stroke="black" points="7909.3,-621.69 7902.2,-613.83 7902.85,-624.4 7909.3,-621.69"/>
</g>
<!-- 34&#45;&gt;13 -->
<g id="edge43" class="edge">
<title>34&#45;&gt;13</title>
<path fill="none" stroke="black" d="M7125.93,-503.7C7107.13,-493.95 7083.54,-481.72 7063.83,-471.49"/>
<polygon fill="black" stroke="black" points="7065.45,-468.4 7054.96,-466.9 7062.23,-474.61 7065.45,-468.4"/>
</g>
<!-- 34&#45;&gt;23 -->
<g id="edge44" class="edge">
<title>34&#45;&gt;23</title>
<path fill="none" stroke="black" d="M7192.67,-503.7C7210.33,-494.54 7232.21,-483.19 7251.14,-473.38"/>
<polygon fill="black" stroke="black" points="7252.7,-476.51 7259.97,-468.8 7249.48,-470.3 7252.7,-476.51"/>
</g>
<!-- 34&#45;&gt;27 -->
<g id="edge42" class="edge">
<title>34&#45;&gt;27</title>
<path fill="none" stroke="black" d="M7324.67,-507C7487.94,-493.18 7733.1,-472.43 7874.64,-460.45"/>
<polygon fill="black" stroke="black" points="7874.73,-463.96 7884.4,-459.63 7874.14,-456.98 7874.73,-463.96"/>
</g>
<!-- 36 -->
<g id="node37" class="node">
<title>36</title>
<polygon fill="none" stroke="black" points="7934.3,-108 7145.83,-90 7934.3,-72 8722.77,-90 7934.3,-108"/>
<text text-anchor="middle" x="7934.3" y="-84.95" font-family="Times New Roman,serif" font-size="14.00">Variable[&quot;auto.visited_pinball_workshop&quot;] &#160;and &#160;Variable[&quot;whirling.elevator_use&quot;] == false &#160;and &#160;Variable[&quot;whirling.elevator_logic_use&quot;] == false</text>
</g>
<!-- 35&#45;&gt;36 -->
<g id="edge45" class="edge">
<title>35&#45;&gt;36</title>
<path fill="none" stroke="black" d="M7817.61,-143.7C7838.67,-134.19 7864.95,-122.32 7887.24,-112.25"/>
<polygon fill="black" stroke="black" points="7888.44,-115.55 7896.11,-108.25 7885.56,-109.17 7888.44,-115.55"/>
</g>
<!-- 37 -->
<g id="node38" class="node">
<title>37</title>
<polygon fill="none" stroke="black" points="6326.3,-108 5524.81,-90 6326.3,-72 7127.79,-90 6326.3,-108"/>
<text text-anchor="middle" x="6326.3" y="-84.95" font-family="Times New Roman,serif" font-size="14.00">!(Variable[&quot;auto.visited_pinball_workshop&quot;] &#160;and &#160;Variable[&quot;whirling.elevator_use&quot;] == false &#160;and &#160;Variable[&quot;whirling.elevator_logic_use&quot;] == false)</text>
</g>
<!-- 35&#45;&gt;37 -->
<g id="edge46" class="edge">
<title>35&#45;&gt;37</title>
<path fill="none" stroke="black" d="M7477.36,-146.45C7213.78,-133.76 6835.34,-115.52 6585.31,-103.48"/>
<polygon fill="black" stroke="black" points="6585.54,-99.99 6575.39,-103 6585.2,-106.98 6585.54,-99.99"/>
</g>
<!-- 36&#45;&gt;18 -->
<g id="edge47" class="edge">
<title>36&#45;&gt;18</title>
<path fill="none" stroke="black" d="M7553.11,-80.21C6965.65,-66.65 5846.47,-40.83 5267.55,-27.47"/>
<polygon fill="black" stroke="black" points="5267.69,-23.98 5257.61,-27.24 5267.53,-30.97 5267.69,-23.98"/>
</g>
<!-- 37&#45;&gt;19 -->
<g id="edge48" class="edge">
<title>37&#45;&gt;19</title>
<path fill="none" stroke="black" d="M6480.39,-104.98C6558.19,-121.45 6636.3,-156.93 6636.3,-233 6636.3,-677.99 6636.3,-677.99 6636.3,-677.99 6636.3,-737.1 6620.59,-754.11 6583.3,-799.97 6573.44,-812.09 6560.14,-822.7 6547.47,-831.18"/>
<polygon fill="black" stroke="black" points="6545.8,-828.09 6539.25,-836.42 6549.57,-833.99 6545.8,-828.09"/>
</g>
<!-- 38&#45;&gt;19 -->
<g id="edge49" class="edge">
<title>38&#45;&gt;19</title>
<path fill="none" stroke="black" d="M7690.17,-919.15C7438.84,-905.5 6815.66,-871.66 6590.84,-859.45"/>
<polygon fill="black" stroke="black" points="6591.16,-855.96 6580.99,-858.91 6590.78,-862.95 6591.16,-855.96"/>
</g>
<!-- 39&#45;&gt;35 -->
<g id="edge50" class="edge">
<title>39&#45;&gt;35</title>
<path fill="none" stroke="black" d="M7529.61,-215.97C7577.05,-205.9 7637.32,-193.12 7686.75,-182.63"/>
<polygon fill="black" stroke="black" points="7687.24,-186.11 7696.29,-180.61 7685.78,-179.26 7687.24,-186.11"/>
</g>
<!-- 40&#45;&gt;24 -->
<g id="edge51" class="edge">
<title>40&#45;&gt;24</title>
<path fill="none" stroke="black" d="M5729.97,-753.1C5695.93,-738.12 5645.98,-716.14 5608.9,-699.82"/>
<polygon fill="black" stroke="black" points="5610.76,-696.81 5600.2,-695.99 5607.94,-703.22 5610.76,-696.81"/>
</g>
<!-- 41 -->
<g id="node42" class="node">
<title>41</title>
<ellipse fill="none" stroke="black" cx="764.3" cy="-522" rx="764.3" ry="18"/>
<text text-anchor="middle" x="764.3" y="-516.95" font-family="Times New Roman,serif" font-size="14.00">Kim Kitsuragi: &quot;At the end of the last century.&quot; He nods. &quot;Look on the bright side. If it fails, we will only sustain minor injuries &#45;&#45; I&#39;m talking three, maybe four months in the hospital. maximum five.&quot;</text>
</g>
<!-- 41&#45;&gt;47 -->
<g id="edge52" class="edge">
<title>41&#45;&gt;47</title>
<path fill="none" stroke="black" d="M851.74,-540.27C963.11,-564.83 1141.3,-613.83 1141.3,-675.99 1141.3,-854.97 1141.3,-854.97 1141.3,-854.97 1141.3,-965.84 2762.91,-990.3 3366.49,-995.56"/>
<polygon fill="black" stroke="black" points="3366.39,-999.06 3376.42,-995.65 3366.45,-992.06 3366.39,-999.06"/>
</g>
<!-- 42 -->
<g id="node43" class="node">
<title>42</title>
<ellipse fill="none" stroke="black" cx="6967.3" cy="-676.99" rx="303.16" ry="18"/>
<text text-anchor="middle" x="6967.3" y="-671.94" font-family="Times New Roman,serif" font-size="14.00">Kim Kitsuragi: &quot;That it does.&quot; The lieutenant peeks in. &quot;I say &#45;&#45; let&#39;s brave it.&quot;</text>
</g>
<!-- 42&#45;&gt;21 -->
<g id="edge54" class="edge">
<title>42&#45;&gt;21</title>
<path fill="none" stroke="black" d="M6975.57,-658.82C6980.66,-648.26 6987.28,-634.49 6993.08,-622.45"/>
<polygon fill="black" stroke="black" points="6996.06,-624.32 6997.25,-613.79 6989.76,-621.29 6996.06,-624.32"/>
</g>
<!-- 43 -->
<g id="node44" class="node">
<title>43</title>
<ellipse fill="none" stroke="black" cx="5024.3" cy="-594" rx="268.36" ry="18"/>
<text text-anchor="middle" x="5024.3" y="-588.95" font-family="Times New Roman,serif" font-size="14.00">You: &quot;Eighty&#45;eight... This elevator was maintained a long time ago.&quot;</text>
</g>
<!-- 42&#45;&gt;43 -->
<g id="edge53" class="edge">
<title>42&#45;&gt;43</title>
<path fill="none" stroke="black" d="M6804.47,-661.39C6745.55,-656.52 6678.46,-651.46 6617.3,-648 6487.56,-640.66 5690.47,-615.55 5275.29,-602.71"/>
<polygon fill="black" stroke="black" points="5275.65,-599.22 5265.54,-602.41 5275.43,-606.21 5275.65,-599.22"/>
</g>
<!-- 43&#45;&gt;41 -->
<g id="edge55" class="edge">
<title>43&#45;&gt;41</title>
<path fill="none" stroke="black" d="M4789.32,-585.03C4689.16,-581.85 4571.02,-578.38 4464.3,-576 3422.97,-552.74 2216.55,-537.68 1471.84,-529.77"/>
<polygon fill="black" stroke="black" points="1471.91,-526.27 1461.88,-529.66 1471.84,-533.27 1471.91,-526.27"/>
</g>
<!-- 45&#45;&gt;29 -->
<g id="edge56" class="edge">
<title>45&#45;&gt;29</title>
<path fill="none" stroke="black" d="M7855,-575.7C7833.15,-566.08 7805.8,-554.04 7782.76,-543.89"/>
<polygon fill="black" stroke="black" points="7784.46,-540.82 7773.9,-539.99 7781.64,-547.23 7784.46,-540.82"/>
</g>
<!-- 46&#45;&gt;42 -->
<g id="edge57" class="edge">
<title>46&#45;&gt;42</title>
<path fill="none" stroke="black" d="M6919.4,-752.67C6928.05,-739.18 6940.22,-720.21 6950.13,-704.76"/>
<polygon fill="black" stroke="black" points="6952.98,-706.8 6955.44,-696.49 6947.09,-703.02 6952.98,-706.8"/>
</g>
<!-- 47&#45;&gt;38 -->
<g id="edge58" class="edge">
<title>47&#45;&gt;38</title>
<path fill="none" stroke="black" d="M3795.82,-993.53C4541.14,-981.13 7079.5,-938.91 7672.63,-929.04"/>
<polygon fill="black" stroke="black" points="7672.31,-932.55 7682.25,-928.88 7672.19,-925.55 7672.31,-932.55"/>
</g>
</g>
</svg>
