<?xml version="1.0" encoding="UTF-8" standalone="no"?>
<!DOCTYPE svg PUBLIC "-//W3C//DTD SVG 1.1//EN"
 "http://www.w3.org/Graphics/SVG/1.1/DTD/svg11.dtd">
<!-- Generated by graphviz version 12.2.1 (20241206.2353)
 -->
<!-- Title: G Pages: 1 -->
<svg width="4399pt" height="1052pt"
 viewBox="0.00 0.00 4398.64 1052.00" xmlns="http://www.w3.org/2000/svg" xmlns:xlink="http://www.w3.org/1999/xlink">
<g id="graph0" class="graph" transform="scale(1 1) rotate(0) translate(4 1048)">
<title>G</title>
<polygon fill="white" stroke="none" points="-4,4 -4,-1048 4394.64,-1048 4394.64,4 -4,4"/>
<!-- 0 -->
<g id="node1" class="node">
<title>0</title>
<ellipse fill="none" stroke="black" cx="2475.81" cy="-1026" rx="39.07" ry="18"/>
<text text-anchor="middle" x="2475.81" y="-1020.95" font-family="Times New Roman,serif" font-size="14.00">START</text>
</g>
<!-- 1 -->
<g id="node2" class="node">
<title>1</title>
<ellipse fill="none" stroke="black" cx="2475.81" cy="-954" rx="29.86" ry="18"/>
<text text-anchor="middle" x="2475.81" y="-948.95" font-family="Times New Roman,serif" font-size="14.00">input</text>
</g>
<!-- 0&#45;&gt;1 -->
<g id="edge1" class="edge">
<title>0&#45;&gt;1</title>
<path fill="none" stroke="black" d="M2475.81,-1007.7C2475.81,-1000.41 2475.81,-991.73 2475.81,-983.54"/>
<polygon fill="black" stroke="black" points="2479.31,-983.62 2475.81,-973.62 2472.31,-983.62 2479.31,-983.62"/>
</g>
<!-- 31 -->
<g id="node32" class="node">
<title>31</title>
<ellipse fill="none" stroke="black" cx="2475.81" cy="-882" rx="159.85" ry="18"/>
<text text-anchor="middle" x="2475.81" y="-876.95" font-family="Times New Roman,serif" font-size="14.00">You: (Sleep. Without words or images.)</text>
</g>
<!-- 1&#45;&gt;31 -->
<g id="edge2" class="edge">
<title>1&#45;&gt;31</title>
<path fill="none" stroke="black" d="M2475.81,-935.7C2475.81,-928.41 2475.81,-919.73 2475.81,-911.54"/>
<polygon fill="black" stroke="black" points="2479.31,-911.62 2475.81,-901.62 2472.31,-911.62 2479.31,-911.62"/>
</g>
<!-- 2 -->
<g id="node3" class="node">
<title>2</title>
<ellipse fill="none" stroke="black" cx="2805.81" cy="-522" rx="162.41" ry="18"/>
<text text-anchor="middle" x="2805.81" y="-516.95" font-family="Times New Roman,serif" font-size="14.00">You: Sing along &#45;&#45; in silent communion.</text>
</g>
<!-- 18 -->
<g id="node19" class="node">
<title>18</title>
<ellipse fill="none" stroke="black" cx="2980.81" cy="-450" rx="628.67" ry="18"/>
<text text-anchor="middle" x="2980.81" y="-444.95" font-family="Times New Roman,serif" font-size="14.00">Ancient Reptilian Brain: Blackness, blackness, blackness. The ultimate disco. The ruins of your life behind you, still smouldering. Ashes rise. But you&#39;re not looking.</text>
</g>
<!-- 2&#45;&gt;18 -->
<g id="edge3" class="edge">
<title>2&#45;&gt;18</title>
<path fill="none" stroke="black" d="M2847.73,-504.23C2871.44,-494.75 2901.35,-482.79 2926.8,-472.6"/>
<polygon fill="black" stroke="black" points="2928.02,-475.89 2936,-468.92 2925.42,-469.39 2928.02,-475.89"/>
</g>
<!-- 3 -->
<g id="node4" class="node">
<title>3</title>
<ellipse fill="none" stroke="black" cx="699.81" cy="-450" rx="699.81" ry="18"/>
<text text-anchor="middle" x="699.81" y="-444.95" font-family="Times New Roman,serif" font-size="14.00">Ancient Reptilian Brain: This is greatest hits material. Black tape spinning and spinning and spinning... You finally tired yourself. Cornered the flicker of your mind and extinguished it.</text>
</g>
<!-- 12 -->
<g id="node13" class="node">
<title>12</title>
<ellipse fill="none" stroke="black" cx="2321.81" cy="-378" rx="210.52" ry="18"/>
<text text-anchor="middle" x="2321.81" y="-372.95" font-family="Times New Roman,serif" font-size="14.00">Limbic System: For now &#45;&#45; a little while &#45;&#45; you can...</text>
</g>
<!-- 3&#45;&gt;12 -->
<g id="edge4" class="edge">
<title>3&#45;&gt;12</title>
<path fill="none" stroke="black" d="M1048.27,-433.96C1377.41,-419.76 1859.24,-398.96 2125.95,-387.45"/>
<polygon fill="black" stroke="black" points="2125.96,-390.96 2135.8,-387.03 2125.66,-383.96 2125.96,-390.96"/>
</g>
<!-- 4 -->
<g id="node5" class="node">
<title>4</title>
<ellipse fill="none" stroke="black" cx="2590.81" cy="-954" rx="66.71" ry="18"/>
<text text-anchor="middle" x="2590.81" y="-948.95" font-family="Times New Roman,serif" font-size="14.00">You: Oh god...</text>
</g>
<!-- 5 -->
<g id="node6" class="node">
<title>5</title>
<ellipse fill="none" stroke="black" cx="2061.81" cy="-234" rx="113.28" ry="18"/>
<text text-anchor="middle" x="2061.81" y="-228.95" font-family="Times New Roman,serif" font-size="14.00">You: Is this the last dream?</text>
</g>
<!-- 6 -->
<g id="node7" class="node">
<title>6</title>
<ellipse fill="none" stroke="black" cx="2061.81" cy="-162" rx="576.47" ry="18"/>
<text text-anchor="middle" x="2061.81" y="-156.95" font-family="Times New Roman,serif" font-size="14.00">Ancient Reptilian Brain: No. This is the one before that. We&#39;ll just keep cycling it for you, if you don&#39;t mind. As long as we can. Spin it like black yarn.</text>
</g>
<!-- 5&#45;&gt;6 -->
<g id="edge5" class="edge">
<title>5&#45;&gt;6</title>
<path fill="none" stroke="black" d="M2061.81,-215.7C2061.81,-208.41 2061.81,-199.73 2061.81,-191.54"/>
<polygon fill="black" stroke="black" points="2065.31,-191.62 2061.81,-181.62 2058.31,-191.62 2065.31,-191.62"/>
</g>
<!-- 27 -->
<g id="node28" class="node">
<title>27</title>
<ellipse fill="none" stroke="black" cx="2061.81" cy="-90" rx="174.19" ry="18"/>
<text text-anchor="middle" x="2061.81" y="-84.95" font-family="Times New Roman,serif" font-size="14.00">You: (Fall into a deep, uninterrupted sleep.)</text>
</g>
<!-- 6&#45;&gt;27 -->
<g id="edge6" class="edge">
<title>6&#45;&gt;27</title>
<path fill="none" stroke="black" d="M2061.81,-143.7C2061.81,-136.41 2061.81,-127.73 2061.81,-119.54"/>
<polygon fill="black" stroke="black" points="2065.31,-119.62 2061.81,-109.62 2058.31,-119.62 2065.31,-119.62"/>
</g>
<!-- 7 -->
<g id="node8" class="node">
<title>7</title>
<ellipse fill="none" stroke="black" cx="2475.81" cy="-666" rx="162.93" ry="18"/>
<text text-anchor="middle" x="2475.81" y="-660.95" font-family="Times New Roman,serif" font-size="14.00">Variable[&quot;whirling.lackout_dream_had&quot;]</text>
</g>
<!-- 8 -->
<g id="node9" class="node">
<title>8</title>
<polygon fill="none" stroke="black" points="2229.81,-612 1999.4,-594 2229.81,-576 2460.22,-594 2229.81,-612"/>
<text text-anchor="middle" x="2229.81" y="-588.95" font-family="Times New Roman,serif" font-size="14.00">Variable[&quot;whirling.lackout_dream_had&quot;]</text>
</g>
<!-- 7&#45;&gt;8 -->
<g id="edge7" class="edge">
<title>7&#45;&gt;8</title>
<path fill="none" stroke="black" d="M2418.76,-648.76C2379.79,-637.68 2328.28,-623.02 2288.89,-611.81"/>
<polygon fill="black" stroke="black" points="2289.9,-608.46 2279.32,-609.09 2287.98,-615.19 2289.9,-608.46"/>
</g>
<!-- 9 -->
<g id="node10" class="node">
<title>9</title>
<polygon fill="none" stroke="black" points="2811.81,-612 2568.37,-594 2811.81,-576 3055.25,-594 2811.81,-612"/>
<text text-anchor="middle" x="2811.81" y="-588.95" font-family="Times New Roman,serif" font-size="14.00">!(Variable[&quot;whirling.lackout_dream_had&quot;])</text>
</g>
<!-- 7&#45;&gt;9 -->
<g id="edge8" class="edge">
<title>7&#45;&gt;9</title>
<path fill="none" stroke="black" d="M2549.96,-649.55C2606.1,-637.86 2682.83,-621.87 2738.71,-610.23"/>
<polygon fill="black" stroke="black" points="2739.39,-613.66 2748.47,-608.2 2737.96,-606.81 2739.39,-613.66"/>
</g>
<!-- 8&#45;&gt;2 -->
<g id="edge10" class="edge">
<title>8&#45;&gt;2</title>
<path fill="none" stroke="black" d="M2317.29,-582.37C2416.26,-570.34 2577.93,-550.69 2687.95,-537.32"/>
<polygon fill="black" stroke="black" points="2688.09,-540.83 2697.6,-536.15 2687.25,-533.88 2688.09,-540.83"/>
</g>
<!-- 11 -->
<g id="node12" class="node">
<title>11</title>
<ellipse fill="none" stroke="black" cx="1273.81" cy="-522" rx="132.22" ry="18"/>
<text text-anchor="middle" x="1273.81" y="-516.95" font-family="Times New Roman,serif" font-size="14.00">You: I&#39;ve heard this song before.</text>
</g>
<!-- 8&#45;&gt;11 -->
<g id="edge11" class="edge">
<title>8&#45;&gt;11</title>
<path fill="none" stroke="black" d="M2114.5,-584.56C1933.94,-571.34 1585.9,-545.85 1399.28,-532.19"/>
<polygon fill="black" stroke="black" points="1399.79,-528.71 1389.56,-531.48 1399.28,-535.7 1399.79,-528.71"/>
</g>
<!-- 17 -->
<g id="node18" class="node">
<title>17</title>
<ellipse fill="none" stroke="black" cx="2049.81" cy="-522" rx="226.9" ry="18"/>
<text text-anchor="middle" x="2049.81" y="-516.95" font-family="Times New Roman,serif" font-size="14.00">You: How many days have I been in Martinaise already...</text>
</g>
<!-- 8&#45;&gt;17 -->
<g id="edge9" class="edge">
<title>8&#45;&gt;17</title>
<path fill="none" stroke="black" d="M2192.52,-578.5C2167.04,-568.59 2132.87,-555.3 2104.35,-544.21"/>
<polygon fill="black" stroke="black" points="2105.72,-540.99 2095.14,-540.63 2103.19,-547.51 2105.72,-540.99"/>
</g>
<!-- 33 -->
<g id="node34" class="node">
<title>33</title>
<ellipse fill="none" stroke="black" cx="3614.81" cy="-522" rx="264.78" ry="18"/>
<text text-anchor="middle" x="3614.81" y="-516.95" font-family="Times New Roman,serif" font-size="14.00">Ancient Reptilian Brain: You&#39;re welcome, Harry&#45;boy. You earned it.</text>
</g>
<!-- 9&#45;&gt;33 -->
<g id="edge12" class="edge">
<title>9&#45;&gt;33</title>
<path fill="none" stroke="black" d="M2920.11,-583.56C3054.93,-571.81 3286.75,-551.6 3445.22,-537.78"/>
<polygon fill="black" stroke="black" points="3445.33,-541.29 3454.99,-536.93 3444.72,-534.31 3445.33,-541.29"/>
</g>
<!-- 10 -->
<g id="node11" class="node">
<title>10</title>
<ellipse fill="none" stroke="black" cx="2590.81" cy="-1026" rx="57.49" ry="18"/>
<text text-anchor="middle" x="2590.81" y="-1020.95" font-family="Times New Roman,serif" font-size="14.00">Untitled hub</text>
</g>
<!-- 10&#45;&gt;4 -->
<g id="edge13" class="edge">
<title>10&#45;&gt;4</title>
<path fill="none" stroke="black" d="M2590.81,-1007.7C2590.81,-1000.41 2590.81,-991.73 2590.81,-983.54"/>
<polygon fill="black" stroke="black" points="2594.31,-983.62 2590.81,-973.62 2587.31,-983.62 2594.31,-983.62"/>
</g>
<!-- 11&#45;&gt;3 -->
<g id="edge14" class="edge">
<title>11&#45;&gt;3</title>
<path fill="none" stroke="black" d="M1177.74,-509.28C1088.67,-498.42 954.7,-482.08 851.25,-469.47"/>
<polygon fill="black" stroke="black" points="851.92,-466.02 841.57,-468.29 851.07,-472.97 851.92,-466.02"/>
</g>
<!-- 32 -->
<g id="node33" class="node">
<title>32</title>
<ellipse fill="none" stroke="black" cx="2447.81" cy="-306" rx="731.03" ry="18"/>
<text text-anchor="middle" x="2447.81" y="-300.95" font-family="Times New Roman,serif" font-size="14.00">Ancient Reptilian Brain: This respite &#45;&#45; you&#39;ve earned it, brother. Bask in the darkness. Let it swallow you up and swivel you around while you forget everything you&#39;ve managed to remember...</text>
</g>
<!-- 12&#45;&gt;32 -->
<g id="edge15" class="edge">
<title>12&#45;&gt;32</title>
<path fill="none" stroke="black" d="M2352.64,-359.88C2368.84,-350.88 2388.92,-339.72 2406.45,-329.98"/>
<polygon fill="black" stroke="black" points="2408.07,-333.08 2415.11,-325.17 2404.67,-326.97 2408.07,-333.08"/>
</g>
<!-- 13 -->
<g id="node14" class="node">
<title>13</title>
<ellipse fill="none" stroke="black" cx="1875.81" cy="-450" rx="458.24" ry="18"/>
<text text-anchor="middle" x="1875.81" y="-444.95" font-family="Times New Roman,serif" font-size="14.00">Ancient Reptilian Brain: There are no days here. There are no weeks. Just black tape spinning. On repeat. Until the end.</text>
</g>
<!-- 13&#45;&gt;12 -->
<g id="edge16" class="edge">
<title>13&#45;&gt;12</title>
<path fill="none" stroke="black" d="M1983.78,-432.05C2053.27,-421.15 2143.3,-407.02 2212.97,-396.08"/>
<polygon fill="black" stroke="black" points="2213.14,-399.6 2222.47,-394.59 2212.05,-392.68 2213.14,-399.6"/>
</g>
<!-- 14 -->
<g id="node15" class="node">
<title>14</title>
<ellipse fill="none" stroke="black" cx="2475.81" cy="-810" rx="565.21" ry="18"/>
<text text-anchor="middle" x="2475.81" y="-804.95" font-family="Times New Roman,serif" font-size="14.00">Limbic System: When the pictograms and the hieroglyphs of the world return, they seem silent somehow. The alarm rings quietly too. You&#39;re ready.</text>
</g>
<!-- 30 -->
<g id="node31" class="node">
<title>30</title>
<ellipse fill="none" stroke="black" cx="2475.81" cy="-738" rx="813.95" ry="18"/>
<text text-anchor="middle" x="2475.81" y="-732.95" font-family="Times New Roman,serif" font-size="14.00">Limbic System: It&#39;s easier, this time, drifting off. Your head has found a comfortable indent in the pillow. Your legs and your torso feel like lead weights sinking to the bottom of the sea, until they&#39;re suddenly light...</text>
</g>
<!-- 14&#45;&gt;30 -->
<g id="edge17" class="edge">
<title>14&#45;&gt;30</title>
<path fill="none" stroke="black" d="M2475.81,-791.7C2475.81,-784.41 2475.81,-775.73 2475.81,-767.54"/>
<polygon fill="black" stroke="black" points="2479.31,-767.62 2475.81,-757.62 2472.31,-767.62 2479.31,-767.62"/>
</g>
<!-- 15 -->
<g id="node16" class="node">
<title>15</title>
<ellipse fill="none" stroke="black" cx="3133.81" cy="-234" rx="59.54" ry="18"/>
<text text-anchor="middle" x="3133.81" y="-228.95" font-family="Times New Roman,serif" font-size="14.00">Volition: Go.</text>
</g>
<!-- 26 -->
<g id="node27" class="node">
<title>26</title>
<ellipse fill="none" stroke="black" cx="2811.81" cy="-162" rx="155.25" ry="18"/>
<text text-anchor="middle" x="2811.81" y="-156.95" font-family="Times New Roman,serif" font-size="14.00">Limbic System: Enjoy it while it lasts.</text>
</g>
<!-- 15&#45;&gt;26 -->
<g id="edge18" class="edge">
<title>15&#45;&gt;26</title>
<path fill="none" stroke="black" d="M3086.65,-222.75C3036.16,-211.77 2955.1,-194.15 2894.07,-180.88"/>
<polygon fill="black" stroke="black" points="2894.91,-177.48 2884.4,-178.78 2893.42,-184.32 2894.91,-177.48"/>
</g>
<!-- 16 -->
<g id="node17" class="node">
<title>16</title>
<ellipse fill="none" stroke="black" cx="2940.81" cy="-1026" rx="274.5" ry="18"/>
<text text-anchor="middle" x="2940.81" y="-1020.95" font-family="Times New Roman,serif" font-size="14.00">SetVariableValue(&quot;whirling.lackout_dream_had&quot;, true) &#45;&#45;[[ Variable[ ]]</text>
</g>
<!-- 19 -->
<g id="node20" class="node">
<title>19</title>
<ellipse fill="none" stroke="black" cx="2940.81" cy="-954" rx="129.15" ry="18"/>
<text text-anchor="middle" x="2940.81" y="-948.95" font-family="Times New Roman,serif" font-size="14.00">SubstanceUsedMore(&quot;alcohol&quot;)</text>
</g>
<!-- 16&#45;&gt;19 -->
<g id="edge19" class="edge">
<title>16&#45;&gt;19</title>
<path fill="none" stroke="black" d="M2940.81,-1007.7C2940.81,-1000.41 2940.81,-991.73 2940.81,-983.54"/>
<polygon fill="black" stroke="black" points="2944.31,-983.62 2940.81,-973.62 2937.31,-983.62 2944.31,-983.62"/>
</g>
<!-- 17&#45;&gt;13 -->
<g id="edge20" class="edge">
<title>17&#45;&gt;13</title>
<path fill="none" stroke="black" d="M2007.25,-503.88C1983.74,-494.42 1954.32,-482.58 1929.28,-472.51"/>
<polygon fill="black" stroke="black" points="1930.83,-469.36 1920.25,-468.88 1928.22,-475.86 1930.83,-469.36"/>
</g>
<!-- 18&#45;&gt;12 -->
<g id="edge21" class="edge">
<title>18&#45;&gt;12</title>
<path fill="none" stroke="black" d="M2822.13,-432.14C2712.25,-420.47 2567.36,-405.08 2461.79,-393.87"/>
<polygon fill="black" stroke="black" points="2462.23,-390.4 2451.91,-392.82 2461.49,-397.36 2462.23,-390.4"/>
</g>
<!-- 20 -->
<g id="node21" class="node">
<title>20</title>
<polygon fill="none" stroke="black" points="2888.81,-900 2706.17,-882 2888.81,-864 3071.45,-882 2888.81,-900"/>
<text text-anchor="middle" x="2888.81" y="-876.95" font-family="Times New Roman,serif" font-size="14.00">SubstanceUsedMore(&quot;alcohol&quot;)</text>
</g>
<!-- 19&#45;&gt;20 -->
<g id="edge22" class="edge">
<title>19&#45;&gt;20</title>
<path fill="none" stroke="black" d="M2927.96,-935.7C2921.8,-927.4 2914.3,-917.31 2907.52,-908.19"/>
<polygon fill="black" stroke="black" points="2910.48,-906.3 2901.71,-900.36 2904.86,-910.47 2910.48,-906.3"/>
</g>
<!-- 21 -->
<g id="node22" class="node">
<title>21</title>
<polygon fill="none" stroke="black" points="3284.81,-900 3089.14,-882 3284.81,-864 3480.48,-882 3284.81,-900"/>
<text text-anchor="middle" x="3284.81" y="-876.95" font-family="Times New Roman,serif" font-size="14.00">!(SubstanceUsedMore(&quot;alcohol&quot;))</text>
</g>
<!-- 19&#45;&gt;21 -->
<g id="edge23" class="edge">
<title>19&#45;&gt;21</title>
<path fill="none" stroke="black" d="M3011.67,-938.58C3071.08,-926.49 3155.45,-909.32 3214.65,-897.28"/>
<polygon fill="black" stroke="black" points="3215.19,-900.74 3224.29,-895.32 3213.79,-893.88 3215.19,-900.74"/>
</g>
<!-- 22 -->
<g id="node23" class="node">
<title>22</title>
<ellipse fill="none" stroke="black" cx="2609.81" cy="-90" rx="155.25" ry="18"/>
<text text-anchor="middle" x="2609.81" y="-84.95" font-family="Times New Roman,serif" font-size="14.00">You: Thank you, darkness. Thank you.</text>
</g>
<!-- 34 -->
<g id="node35" class="node">
<title>34</title>
<ellipse fill="none" stroke="black" cx="2609.81" cy="-18" rx="27" ry="18"/>
<text text-anchor="middle" x="2609.81" y="-12.95" font-family="Times New Roman,serif" font-size="14.00">34</text>
</g>
<!-- 22&#45;&gt;34 -->
<g id="edge24" class="edge">
<title>22&#45;&gt;34</title>
<path fill="none" stroke="black" d="M2609.81,-71.7C2609.81,-64.41 2609.81,-55.73 2609.81,-47.54"/>
<polygon fill="black" stroke="black" points="2613.31,-47.62 2609.81,-37.62 2606.31,-47.62 2613.31,-47.62"/>
</g>
<!-- 23 -->
<g id="node24" class="node">
<title>23</title>
<ellipse fill="none" stroke="black" cx="1457.81" cy="-306" rx="241.23" ry="18"/>
<text text-anchor="middle" x="1457.81" y="-300.95" font-family="Times New Roman,serif" font-size="14.00">Ancient Reptilian Brain: No, you haven&#39;t. You&#39;ve just *been*.</text>
</g>
<!-- 23&#45;&gt;5 -->
<g id="edge25" class="edge">
<title>23&#45;&gt;5</title>
<path fill="none" stroke="black" d="M1584.8,-290.28C1696.69,-277.32 1857.53,-258.68 1960.85,-246.7"/>
<polygon fill="black" stroke="black" points="1961.19,-250.19 1970.72,-245.56 1960.38,-243.23 1961.19,-250.19"/>
</g>
<!-- 23&#45;&gt;22 -->
<g id="edge26" class="edge">
<title>23&#45;&gt;22</title>
<path fill="none" stroke="black" d="M1453.53,-287.54C1446.5,-254.11 1436.96,-181.12 1476.81,-144 1476.81,-144 2147.35,-112.63 2456.73,-98.16"/>
<polygon fill="black" stroke="black" points="2456.7,-101.67 2466.52,-97.7 2456.37,-94.67 2456.7,-101.67"/>
</g>
<!-- 24 -->
<g id="node25" class="node">
<title>24</title>
<ellipse fill="none" stroke="black" cx="3581.81" cy="-378" rx="808.83" ry="18"/>
<text text-anchor="middle" x="3581.81" y="-372.95" font-family="Times New Roman,serif" font-size="14.00">Limbic System: After centuries of darkness, the alarm rings &#45;&#45; but what&#39;s this? You *actually* feel rested. There&#39;s no time to cuddle with your pillow, however, or as much as shiver from the cold. The world awaits.</text>
</g>
<!-- 24&#45;&gt;15 -->
<g id="edge27" class="edge">
<title>24&#45;&gt;15</title>
<path fill="none" stroke="black" d="M3526.88,-359.59C3439.45,-331.88 3269.86,-278.12 3184.9,-251.19"/>
<polygon fill="black" stroke="black" points="3186.02,-247.88 3175.43,-248.19 3183.91,-254.55 3186.02,-247.88"/>
</g>
<!-- 25 -->
<g id="node26" class="node">
<title>25</title>
<ellipse fill="none" stroke="black" cx="2061.81" cy="-18" rx="98.44" ry="18"/>
<text text-anchor="middle" x="2061.81" y="-12.95" font-family="Times New Roman,serif" font-size="14.00">You: [Open your eyes.]</text>
</g>
<!-- 26&#45;&gt;22 -->
<g id="edge28" class="edge">
<title>26&#45;&gt;22</title>
<path fill="none" stroke="black" d="M2763.94,-144.41C2735.37,-134.51 2698.86,-121.86 2668.55,-111.35"/>
<polygon fill="black" stroke="black" points="2669.71,-108.05 2659.12,-108.09 2667.42,-114.67 2669.71,-108.05"/>
</g>
<!-- 27&#45;&gt;25 -->
<g id="edge29" class="edge">
<title>27&#45;&gt;25</title>
<path fill="none" stroke="black" d="M2061.81,-71.7C2061.81,-64.41 2061.81,-55.73 2061.81,-47.54"/>
<polygon fill="black" stroke="black" points="2065.31,-47.62 2061.81,-37.62 2058.31,-47.62 2065.31,-47.62"/>
</g>
<!-- 28 -->
<g id="node29" class="node">
<title>28</title>
<ellipse fill="none" stroke="black" cx="3805.81" cy="-450" rx="178.79" ry="18"/>
<text text-anchor="middle" x="3805.81" y="-444.95" font-family="Times New Roman,serif" font-size="14.00">You: But I&#39;ve been bad. I haven&#39;t earned this.</text>
</g>
<!-- 28&#45;&gt;24 -->
<g id="edge30" class="edge">
<title>28&#45;&gt;24</title>
<path fill="none" stroke="black" d="M3752.73,-432.41C3721.44,-422.63 3681.58,-410.18 3648.22,-399.75"/>
<polygon fill="black" stroke="black" points="3649.68,-396.54 3639.09,-396.9 3647.59,-403.22 3649.68,-396.54"/>
</g>
<!-- 29 -->
<g id="node30" class="node">
<title>29</title>
<ellipse fill="none" stroke="black" cx="2474.81" cy="-234" rx="232.53" ry="18"/>
<text text-anchor="middle" x="2474.81" y="-228.95" font-family="Times New Roman,serif" font-size="14.00">Half Light: Ready &#45;&#45; but something is coming. It always is.</text>
</g>
<!-- 29&#45;&gt;26 -->
<g id="edge31" class="edge">
<title>29&#45;&gt;26</title>
<path fill="none" stroke="black" d="M2553.4,-216.68C2605.51,-205.85 2673.85,-191.66 2727.16,-180.58"/>
<polygon fill="black" stroke="black" points="2727.74,-184.04 2736.82,-178.58 2726.31,-177.18 2727.74,-184.04"/>
</g>
<!-- 30&#45;&gt;7 -->
<g id="edge32" class="edge">
<title>30&#45;&gt;7</title>
<path fill="none" stroke="black" d="M2475.81,-719.7C2475.81,-712.41 2475.81,-703.73 2475.81,-695.54"/>
<polygon fill="black" stroke="black" points="2479.31,-695.62 2475.81,-685.62 2472.31,-695.62 2479.31,-695.62"/>
</g>
<!-- 31&#45;&gt;14 -->
<g id="edge33" class="edge">
<title>31&#45;&gt;14</title>
<path fill="none" stroke="black" d="M2475.81,-863.7C2475.81,-856.41 2475.81,-847.73 2475.81,-839.54"/>
<polygon fill="black" stroke="black" points="2479.31,-839.62 2475.81,-829.62 2472.31,-839.62 2479.31,-839.62"/>
</g>
<!-- 32&#45;&gt;5 -->
<g id="edge34" class="edge">
<title>32&#45;&gt;5</title>
<path fill="none" stroke="black" d="M2352.4,-287.7C2289.03,-276.21 2206.62,-261.26 2145.75,-250.22"/>
<polygon fill="black" stroke="black" points="2146.6,-246.82 2136.13,-248.48 2145.35,-253.71 2146.6,-246.82"/>
</g>
<!-- 32&#45;&gt;29 -->
<g id="edge35" class="edge">
<title>32&#45;&gt;29</title>
<path fill="none" stroke="black" d="M2454.49,-287.7C2457.4,-280.15 2460.88,-271.12 2464.14,-262.68"/>
<polygon fill="black" stroke="black" points="2467.34,-264.11 2467.67,-253.52 2460.81,-261.59 2467.34,-264.11"/>
</g>
<!-- 33&#45;&gt;28 -->
<g id="edge36" class="edge">
<title>33&#45;&gt;28</title>
<path fill="none" stroke="black" d="M3661.54,-503.88C3687.96,-494.19 3721.19,-482.01 3749.1,-471.79"/>
<polygon fill="black" stroke="black" points="3750.29,-475.07 3758.48,-468.35 3747.89,-468.5 3750.29,-475.07"/>
</g>
</g>
</svg>
