<?xml version="1.0" encoding="UTF-8" standalone="no"?>
<!DOCTYPE svg PUBLIC "-//W3C//DTD SVG 1.1//EN"
 "http://www.w3.org/Graphics/SVG/1.1/DTD/svg11.dtd">
<!-- Generated by graphviz version 12.2.1 (20241206.2353)
 -->
<!-- Title: G Pages: 1 -->
<svg width="6891pt" height="1218pt"
 viewBox="0.00 0.00 6891.38 1217.98" xmlns="http://www.w3.org/2000/svg" xmlns:xlink="http://www.w3.org/1999/xlink">
<g id="graph0" class="graph" transform="scale(1 1) rotate(0) translate(4 1213.98)">
<title>G</title>
<polygon fill="white" stroke="none" points="-4,4 -4,-1213.98 6887.38,-1213.98 6887.38,4 -4,4"/>
<!-- 0 -->
<g id="node1" class="node">
<title>0</title>
<ellipse fill="none" stroke="black" cx="4275.38" cy="-1191.98" rx="39.07" ry="18"/>
<text text-anchor="middle" x="4275.38" y="-1186.93" font-family="Times New Roman,serif" font-size="14.00">START</text>
</g>
<!-- 0&#45;&gt;0 -->
<g id="edge1" class="edge">
<title>0&#45;&gt;0</title>
<path fill="none" stroke="black" d="M4303.57,-1204.93C4318.68,-1207.13 4332.45,-1202.81 4332.45,-1191.98 4332.45,-1183.95 4324.86,-1179.5 4314.78,-1178.64"/>
<polygon fill="black" stroke="black" points="4314.95,-1175.13 4305.08,-1178.99 4315.2,-1182.12 4314.95,-1175.13"/>
</g>
<!-- 1 -->
<g id="node2" class="node">
<title>1</title>
<ellipse fill="none" stroke="black" cx="4380.38" cy="-1191.98" rx="29.86" ry="18"/>
<text text-anchor="middle" x="4380.38" y="-1186.93" font-family="Times New Roman,serif" font-size="14.00">input</text>
</g>
<!-- 56 -->
<g id="node57" class="node">
<title>56</title>
<ellipse fill="none" stroke="black" cx="1876.38" cy="-1119.98" rx="153.71" ry="18"/>
<text text-anchor="middle" x="1876.38" y="-1114.93" font-family="Times New Roman,serif" font-size="14.00">Variable[&quot;auto.visited_pinball_room&quot;]</text>
</g>
<!-- 1&#45;&gt;56 -->
<g id="edge2" class="edge">
<title>1&#45;&gt;56</title>
<path fill="none" stroke="black" d="M4358.2,-1179.55C4352.83,-1177.28 4347.01,-1175.22 4341.38,-1173.98 4118.57,-1125.03 2557.54,-1120.85 2041.52,-1120.83"/>
<polygon fill="black" stroke="black" points="2041.79,-1117.33 2031.79,-1120.83 2041.79,-1124.33 2041.79,-1117.33"/>
</g>
<!-- 2 -->
<g id="node3" class="node">
<title>2</title>
<ellipse fill="none" stroke="black" cx="1702.38" cy="-687.98" rx="479.73" ry="18"/>
<text text-anchor="middle" x="1702.38" y="-682.93" font-family="Times New Roman,serif" font-size="14.00">Inland Empire: It&#39;s not a ghost story. It&#39;s a curse &#45;&#45; and Garte ought be made knowledgeable so he can perform counter&#45;spells.</text>
</g>
<!-- 26 -->
<g id="node27" class="node">
<title>26</title>
<ellipse fill="none" stroke="black" cx="2348.38" cy="-234" rx="102.53" ry="18"/>
<text text-anchor="middle" x="2348.38" y="-228.95" font-family="Times New Roman,serif" font-size="14.00">Jump to: [workshophub]</text>
</g>
<!-- 2&#45;&gt;26 -->
<g id="edge3" class="edge">
<title>2&#45;&gt;26</title>
<path fill="none" stroke="black" d="M1643.73,-669.71C1625.66,-661.62 1607.39,-650.11 1595.38,-633.98 1565.49,-593.85 1576.38,-573.04 1576.38,-523 1576.38,-523 1576.38,-523 1576.38,-377 1576.38,-309.76 2035.25,-261.8 2245.45,-243.35"/>
<polygon fill="black" stroke="black" points="2245.62,-246.85 2255.28,-242.5 2245.02,-239.88 2245.62,-246.85"/>
</g>
<!-- 3 -->
<g id="node4" class="node">
<title>3</title>
<ellipse fill="none" stroke="black" cx="529.38" cy="-378" rx="529.38" ry="18"/>
<text text-anchor="middle" x="529.38" y="-372.95" font-family="Times New Roman,serif" font-size="14.00">Logic: This seems to be some kind of workshop. For fixing up pinball machines &#45;&#45; a long time ago. Everything is covered with dust now...</text>
</g>
<!-- 10 -->
<g id="node11" class="node">
<title>10</title>
<polygon fill="none" stroke="black" points="1337.38,-921.98 1241.6,-903.98 1337.38,-885.98 1433.16,-903.98 1337.38,-921.98"/>
<text text-anchor="middle" x="1337.38" y="-898.93" font-family="Times New Roman,serif" font-size="14.00">!(IsKimHere())</text>
</g>
<!-- 3&#45;&gt;10 -->
<g id="edge4" class="edge">
<title>3&#45;&gt;10</title>
<path fill="none" stroke="black" d="M558.49,-396.35C593.72,-419.81 648.38,-465.19 648.38,-521 648.38,-760.98 648.38,-760.98 648.38,-760.98 648.38,-878.93 1040.61,-899.73 1233.19,-902.84"/>
<polygon fill="black" stroke="black" points="1232.89,-906.33 1242.95,-902.98 1233,-899.33 1232.89,-906.33"/>
</g>
<!-- 4 -->
<g id="node5" class="node">
<title>4</title>
<ellipse fill="none" stroke="black" cx="1586.38" cy="-18" rx="636.35" ry="18"/>
<text text-anchor="middle" x="1586.38" y="-12.95" font-family="Times New Roman,serif" font-size="14.00">Kim Kitsuragi: &quot;Looks like it. I&#39;m guessing Martinaise North 22 used to be a pinball arcade before it became a hostel. There are machines left over...&quot; He taps his foot.</text>
</g>
<!-- 44 -->
<g id="node45" class="node">
<title>44</title>
<ellipse fill="none" stroke="black" cx="1312.38" cy="-306" rx="226.39" ry="18"/>
<text text-anchor="middle" x="1312.38" y="-300.95" font-family="Times New Roman,serif" font-size="14.00">Perception (Hearing): A creak, some dust falls off a shelf.</text>
</g>
<!-- 4&#45;&gt;44 -->
<g id="edge5" class="edge">
<title>4&#45;&gt;44</title>
<path fill="none" stroke="black" d="M1267.09,-33.99C1165.25,-42.07 1074.51,-54.17 1058.38,-72 981.86,-156.58 1160.09,-244.38 1256.14,-283.71"/>
<polygon fill="black" stroke="black" points="1254.6,-286.86 1265.18,-287.36 1257.22,-280.37 1254.6,-286.86"/>
</g>
<!-- 5 -->
<g id="node6" class="node">
<title>5</title>
<ellipse fill="none" stroke="black" cx="5379.38" cy="-975.98" rx="424.46" ry="18"/>
<text text-anchor="middle" x="5379.38" y="-970.93" font-family="Times New Roman,serif" font-size="14.00">Variable[&quot;doomed.dicemaker_pinball_arcade&quot;] &#160;or &#160;Variable[&quot;doomed.dicemaker_whirling_part_of_complex&quot;]</text>
</g>
<!-- 5&#45;&gt;5 -->
<g id="edge6" class="edge">
<title>5&#45;&gt;5</title>
<path fill="none" stroke="black" d="M5670.87,-989.44C5755.94,-988.98 5821.84,-984.49 5821.84,-975.98 5821.84,-967.86 5761.73,-963.4 5682.21,-962.61"/>
<polygon fill="black" stroke="black" points="5682.41,-959.11 5672.38,-962.53 5682.35,-966.11 5682.41,-959.11"/>
</g>
<!-- 6 -->
<g id="node7" class="node">
<title>6</title>
<polygon fill="none" stroke="black" points="5379.38,-921.98 4779.1,-903.98 5379.38,-885.98 5979.66,-903.98 5379.38,-921.98"/>
<text text-anchor="middle" x="5379.38" y="-898.93" font-family="Times New Roman,serif" font-size="14.00">Variable[&quot;doomed.dicemaker_pinball_arcade&quot;] &#160;or &#160;Variable[&quot;doomed.dicemaker_whirling_part_of_complex&quot;]</text>
</g>
<!-- 5&#45;&gt;6 -->
<g id="edge7" class="edge">
<title>5&#45;&gt;6</title>
<path fill="none" stroke="black" d="M5379.38,-957.68C5379.38,-950.39 5379.38,-941.71 5379.38,-933.52"/>
<polygon fill="black" stroke="black" points="5382.88,-933.6 5379.38,-923.6 5375.88,-933.6 5382.88,-933.6"/>
</g>
<!-- 23 -->
<g id="node24" class="node">
<title>23</title>
<ellipse fill="none" stroke="black" cx="5379.38" cy="-831.98" rx="260.68" ry="18"/>
<text text-anchor="middle" x="5379.38" y="-826.93" font-family="Times New Roman,serif" font-size="14.00">Reaction Speed: Remember the *Dicemaker*?! Then that means...</text>
</g>
<!-- 6&#45;&gt;23 -->
<g id="edge8" class="edge">
<title>6&#45;&gt;23</title>
<path fill="none" stroke="black" d="M5379.38,-885.68C5379.38,-878.39 5379.38,-869.71 5379.38,-861.52"/>
<polygon fill="black" stroke="black" points="5382.88,-861.6 5379.38,-851.6 5375.88,-861.6 5382.88,-861.6"/>
</g>
<!-- 7 -->
<g id="node8" class="node">
<title>7</title>
<polygon fill="none" stroke="black" points="3855.38,-540 3242.08,-522 3855.38,-504 4468.69,-522 3855.38,-540"/>
<text text-anchor="middle" x="3855.38" y="-516.95" font-family="Times New Roman,serif" font-size="14.00">!(Variable[&quot;doomed.dicemaker_pinball_arcade&quot;] &#160;or &#160;Variable[&quot;doomed.dicemaker_whirling_part_of_complex&quot;])</text>
</g>
<!-- 37 -->
<g id="node38" class="node">
<title>37</title>
<ellipse fill="none" stroke="black" cx="4931.38" cy="-450" rx="164.46" ry="18"/>
<text text-anchor="middle" x="4931.38" y="-444.95" font-family="Times New Roman,serif" font-size="14.00">Variable[&quot;tc.doomed_commercial_area&quot;]</text>
</g>
<!-- 7&#45;&gt;37 -->
<g id="edge9" class="edge">
<title>7&#45;&gt;37</title>
<path fill="none" stroke="black" d="M4040.66,-508.95C4250.3,-495.31 4587.69,-473.36 4781.48,-460.75"/>
<polygon fill="black" stroke="black" points="4781.62,-464.25 4791.38,-460.11 4781.17,-457.26 4781.62,-464.25"/>
</g>
<!-- 8 -->
<g id="node9" class="node">
<title>8</title>
<ellipse fill="none" stroke="black" cx="2329.38" cy="-975.98" rx="58.52" ry="18"/>
<text text-anchor="middle" x="2329.38" y="-970.93" font-family="Times New Roman,serif" font-size="14.00">IsKimHere()</text>
</g>
<!-- 8&#45;&gt;8 -->
<g id="edge10" class="edge">
<title>8&#45;&gt;8</title>
<path fill="none" stroke="black" d="M2370.32,-989.22C2389.31,-990.66 2405.9,-986.25 2405.9,-975.98 2405.9,-967.8 2395.36,-963.34 2381.47,-962.59"/>
<polygon fill="black" stroke="black" points="2381.78,-959.09 2371.83,-962.73 2381.88,-966.09 2381.78,-959.09"/>
</g>
<!-- 9 -->
<g id="node10" class="node">
<title>9</title>
<polygon fill="none" stroke="black" points="2329.38,-921.98 2246.63,-903.98 2329.38,-885.98 2412.14,-903.98 2329.38,-921.98"/>
<text text-anchor="middle" x="2329.38" y="-898.93" font-family="Times New Roman,serif" font-size="14.00">IsKimHere()</text>
</g>
<!-- 8&#45;&gt;9 -->
<g id="edge11" class="edge">
<title>8&#45;&gt;9</title>
<path fill="none" stroke="black" d="M2329.38,-957.68C2329.38,-950.39 2329.38,-941.71 2329.38,-933.52"/>
<polygon fill="black" stroke="black" points="2332.88,-933.6 2329.38,-923.6 2325.88,-933.6 2332.88,-933.6"/>
</g>
<!-- 54 -->
<g id="node55" class="node">
<title>54</title>
<ellipse fill="none" stroke="black" cx="2329.38" cy="-831.98" rx="396.82" ry="18"/>
<text text-anchor="middle" x="2329.38" y="-826.93" font-family="Times New Roman,serif" font-size="14.00">Kim Kitsuragi: &quot;At some point &#45;&#45; twenty years ago? Fifteen maybe. Before pinball went out of vogue.&quot;</text>
</g>
<!-- 9&#45;&gt;54 -->
<g id="edge12" class="edge">
<title>9&#45;&gt;54</title>
<path fill="none" stroke="black" d="M2329.38,-885.68C2329.38,-878.39 2329.38,-869.71 2329.38,-861.52"/>
<polygon fill="black" stroke="black" points="2332.88,-861.6 2329.38,-851.6 2325.88,-861.6 2332.88,-861.6"/>
</g>
<!-- 31 -->
<g id="node32" class="node">
<title>31</title>
<ellipse fill="none" stroke="black" cx="1454.38" cy="-831.98" rx="275.52" ry="18"/>
<text text-anchor="middle" x="1454.38" y="-826.93" font-family="Times New Roman,serif" font-size="14.00">Logic: Yes. Pinball hasn&#39;t enjoyed a heyday for fifteen or twenty years.</text>
</g>
<!-- 10&#45;&gt;31 -->
<g id="edge13" class="edge">
<title>10&#45;&gt;31</title>
<path fill="none" stroke="black" d="M1359.39,-889.82C1375.21,-880.35 1396.96,-867.33 1415.66,-856.15"/>
<polygon fill="black" stroke="black" points="1417.31,-859.24 1424.1,-851.1 1413.72,-853.23 1417.31,-859.24"/>
</g>
<!-- 11 -->
<g id="node12" class="node">
<title>11</title>
<ellipse fill="none" stroke="black" cx="2844.38" cy="-903.98" rx="58.52" ry="18"/>
<text text-anchor="middle" x="2844.38" y="-898.93" font-family="Times New Roman,serif" font-size="14.00">IsKimHere()</text>
</g>
<!-- 11&#45;&gt;11 -->
<g id="edge14" class="edge">
<title>11&#45;&gt;11</title>
<path fill="none" stroke="black" d="M2885.32,-917.22C2904.31,-918.66 2920.9,-914.25 2920.9,-903.98 2920.9,-895.8 2910.36,-891.34 2896.47,-890.59"/>
<polygon fill="black" stroke="black" points="2896.78,-887.09 2886.83,-890.73 2896.88,-894.09 2896.78,-887.09"/>
</g>
<!-- 12 -->
<g id="node13" class="node">
<title>12</title>
<polygon fill="none" stroke="black" points="2844.38,-849.98 2761.63,-831.98 2844.38,-813.98 2927.14,-831.98 2844.38,-849.98"/>
<text text-anchor="middle" x="2844.38" y="-826.93" font-family="Times New Roman,serif" font-size="14.00">IsKimHere()</text>
</g>
<!-- 11&#45;&gt;12 -->
<g id="edge15" class="edge">
<title>11&#45;&gt;12</title>
<path fill="none" stroke="black" d="M2844.38,-885.68C2844.38,-878.39 2844.38,-869.71 2844.38,-861.52"/>
<polygon fill="black" stroke="black" points="2847.88,-861.6 2844.38,-851.6 2840.88,-861.6 2847.88,-861.6"/>
</g>
<!-- 30 -->
<g id="node31" class="node">
<title>30</title>
<ellipse fill="none" stroke="black" cx="2844.38" cy="-759.98" rx="394.26" ry="18"/>
<text text-anchor="middle" x="2844.38" y="-754.93" font-family="Times New Roman,serif" font-size="14.00">Kim Kitsuragi: The lieutenant looks around the dusty, crowded room, inspecting the tools on the shelf.</text>
</g>
<!-- 12&#45;&gt;30 -->
<g id="edge16" class="edge">
<title>12&#45;&gt;30</title>
<path fill="none" stroke="black" d="M2844.38,-813.68C2844.38,-806.39 2844.38,-797.71 2844.38,-789.52"/>
<polygon fill="black" stroke="black" points="2847.88,-789.6 2844.38,-779.6 2840.88,-789.6 2847.88,-789.6"/>
</g>
<!-- 13 -->
<g id="node14" class="node">
<title>13</title>
<polygon fill="none" stroke="black" points="2113.38,-777.98 2017.6,-759.98 2113.38,-741.98 2209.16,-759.98 2113.38,-777.98"/>
<text text-anchor="middle" x="2113.38" y="-754.93" font-family="Times New Roman,serif" font-size="14.00">!(IsKimHere())</text>
</g>
<!-- 15 -->
<g id="node16" class="node">
<title>15</title>
<ellipse fill="none" stroke="black" cx="2386.38" cy="-687.98" rx="61.08" ry="18"/>
<text text-anchor="middle" x="2386.38" y="-682.93" font-family="Times New Roman,serif" font-size="14.00">workshophub</text>
</g>
<!-- 13&#45;&gt;15 -->
<g id="edge17" class="edge">
<title>13&#45;&gt;15</title>
<path fill="none" stroke="black" d="M2152.49,-748.95C2199.16,-736.99 2277.5,-716.9 2330.53,-703.3"/>
<polygon fill="black" stroke="black" points="2331.15,-706.76 2339.97,-700.88 2329.41,-699.98 2331.15,-706.76"/>
</g>
<!-- 14 -->
<g id="node15" class="node">
<title>14</title>
<ellipse fill="none" stroke="black" cx="2800.38" cy="-604.99" rx="386.26" ry="28.99"/>
<text text-anchor="middle" x="2800.38" y="-608.19" font-family="Times New Roman,serif" font-size="14.00">You: &quot;Could this mean the Whirling&#45;in&#45;Rags really *is* part of the Doomed Commercial Area?&quot;</text>
<text text-anchor="middle" x="2800.38" y="-591.69" font-family="Times New Roman,serif" font-size="14.00">&quot;Could this mean the Whirling&#45;in&#45;Rags really *is* part of the Doomed Commercial Area?&quot;</text>
</g>
<!-- 27 -->
<g id="node28" class="node">
<title>27</title>
<ellipse fill="none" stroke="black" cx="2800.38" cy="-522" rx="58.52" ry="18"/>
<text text-anchor="middle" x="2800.38" y="-516.95" font-family="Times New Roman,serif" font-size="14.00">IsKimHere()</text>
</g>
<!-- 14&#45;&gt;27 -->
<g id="edge18" class="edge">
<title>14&#45;&gt;27</title>
<path fill="none" stroke="black" d="M2800.38,-575.66C2800.38,-567.79 2800.38,-559.24 2800.38,-551.36"/>
<polygon fill="black" stroke="black" points="2803.88,-551.61 2800.38,-541.61 2796.88,-551.61 2803.88,-551.61"/>
</g>
<!-- 15&#45;&gt;14 -->
<g id="edge22" class="edge">
<title>15&#45;&gt;14</title>
<path fill="none" stroke="black" d="M2436.32,-677.21C2489.92,-666.73 2577.61,-649.57 2653.5,-634.73"/>
<polygon fill="black" stroke="black" points="2653.97,-638.2 2663.12,-632.84 2652.63,-631.33 2653.97,-638.2"/>
</g>
<!-- 18 -->
<g id="node19" class="node">
<title>18</title>
<ellipse fill="none" stroke="black" cx="3506.38" cy="-604.99" rx="263.75" ry="28.99"/>
<text text-anchor="middle" x="3506.38" y="-608.19" font-family="Times New Roman,serif" font-size="14.00">You: &quot;Doesn&#39;t look like that pinball machine will ever get fixed.&quot;</text>
<text text-anchor="middle" x="3506.38" y="-591.69" font-family="Times New Roman,serif" font-size="14.00">Doesn&#39;t look like that pinball machine will ever get fixed.</text>
</g>
<!-- 15&#45;&gt;18 -->
<g id="edge23" class="edge">
<title>15&#45;&gt;18</title>
<path fill="none" stroke="black" d="M2446.42,-683.98C2584.54,-676.9 2935.5,-657.94 3228.38,-633.98 3254.19,-631.87 3281.31,-629.42 3308.09,-626.87"/>
<polygon fill="black" stroke="black" points="3308.42,-630.36 3318.04,-625.92 3307.75,-623.39 3308.42,-630.36"/>
</g>
<!-- 40 -->
<g id="node41" class="node">
<title>40</title>
<ellipse fill="none" stroke="black" cx="2158.38" cy="-604.99" rx="162.46" ry="28.99"/>
<text text-anchor="middle" x="2158.38" y="-608.19" font-family="Times New Roman,serif" font-size="14.00">You: Not interested. [Discard thought.]</text>
<text text-anchor="middle" x="2158.38" y="-591.69" font-family="Times New Roman,serif" font-size="14.00"> [Finish thought.]</text>
</g>
<!-- 15&#45;&gt;40 -->
<g id="edge19" class="edge">
<title>15&#45;&gt;40</title>
<path fill="none" stroke="black" d="M2348.47,-673.52C2319.2,-663.12 2277.61,-648.34 2240.79,-635.26"/>
<polygon fill="black" stroke="black" points="2242.06,-632 2231.47,-631.95 2239.72,-638.6 2242.06,-632"/>
</g>
<!-- 42 -->
<g id="node43" class="node">
<title>42</title>
<ellipse fill="none" stroke="black" cx="1791.38" cy="-604.99" rx="186.85" ry="28.99"/>
<text text-anchor="middle" x="1791.38" y="-608.19" font-family="Times New Roman,serif" font-size="14.00">You: &quot;This used to be a... pinball workshop.&quot;</text>
<text text-anchor="middle" x="1791.38" y="-591.69" font-family="Times New Roman,serif" font-size="14.00">This used to be a... pinball workshop.</text>
</g>
<!-- 15&#45;&gt;42 -->
<g id="edge20" class="edge">
<title>15&#45;&gt;42</title>
<path fill="none" stroke="black" d="M2331.17,-679.82C2254.15,-669.79 2110.08,-650.89 1987.38,-633.98 1971.18,-631.75 1954.23,-629.38 1937.37,-627"/>
<polygon fill="black" stroke="black" points="1938.2,-623.58 1927.81,-625.65 1937.22,-630.52 1938.2,-623.58"/>
</g>
<!-- 45 -->
<g id="node46" class="node">
<title>45</title>
<ellipse fill="none" stroke="black" cx="4100.38" cy="-604.99" rx="312.01" ry="28.99"/>
<text text-anchor="middle" x="4100.38" y="-608.19" font-family="Times New Roman,serif" font-size="14.00">You: &quot;Looks like they gave up on fixing the pinball machines at some point.&quot;</text>
<text text-anchor="middle" x="4100.38" y="-591.69" font-family="Times New Roman,serif" font-size="14.00">Looks like they gave up on fixing the pinball machines at some point.</text>
</g>
<!-- 15&#45;&gt;45 -->
<g id="edge21" class="edge">
<title>15&#45;&gt;45</title>
<path fill="none" stroke="black" d="M2447.19,-685.73C2641.47,-681.51 3264.59,-666.2 3779.38,-633.98 3809.85,-632.08 3841.91,-629.71 3873.5,-627.17"/>
<polygon fill="black" stroke="black" points="3873.46,-630.68 3883.14,-626.38 3872.89,-623.71 3873.46,-630.68"/>
</g>
<!-- 16 -->
<g id="node17" class="node">
<title>16</title>
<ellipse fill="none" stroke="black" cx="2329.38" cy="-759.98" rx="102.53" ry="18"/>
<text text-anchor="middle" x="2329.38" y="-754.93" font-family="Times New Roman,serif" font-size="14.00">Jump to: [workshophub]</text>
</g>
<!-- 16&#45;&gt;15 -->
<g id="edge24" class="edge">
<title>16&#45;&gt;15</title>
<path fill="none" stroke="black" d="M2343.47,-741.68C2350.2,-733.42 2358.37,-723.38 2365.78,-714.28"/>
<polygon fill="black" stroke="black" points="2368.29,-716.74 2371.89,-706.78 2362.86,-712.32 2368.29,-716.74"/>
</g>
<!-- 17 -->
<g id="node18" class="node">
<title>17</title>
<ellipse fill="none" stroke="black" cx="4931.38" cy="-522" rx="444.93" ry="18"/>
<text text-anchor="middle" x="4931.38" y="-516.95" font-family="Times New Roman,serif" font-size="14.00">Logic: As the Dicemaker said, yes; it all fits. Not that it has anything to do with the case, but it is a nice connection!</text>
</g>
<!-- 17&#45;&gt;37 -->
<g id="edge25" class="edge">
<title>17&#45;&gt;37</title>
<path fill="none" stroke="black" d="M4931.38,-503.7C4931.38,-496.41 4931.38,-487.73 4931.38,-479.54"/>
<polygon fill="black" stroke="black" points="4934.88,-479.62 4931.38,-469.62 4927.88,-479.62 4934.88,-479.62"/>
</g>
<!-- 18&#45;&gt;7 -->
<g id="edge26" class="edge">
<title>18&#45;&gt;7</title>
<path fill="none" stroke="black" d="M3617.29,-578.25C3669.39,-566.16 3730.27,-552.03 3777.42,-541.09"/>
<polygon fill="black" stroke="black" points="3778.06,-544.54 3787.01,-538.87 3776.47,-537.72 3778.06,-544.54"/>
</g>
<!-- 19 -->
<g id="node20" class="node">
<title>19</title>
<ellipse fill="none" stroke="black" cx="6124.38" cy="-522" rx="730.52" ry="18"/>
<text text-anchor="middle" x="6124.38" y="-516.95" font-family="Times New Roman,serif" font-size="14.00">Kim Kitsuragi: &quot;Ah, yes &#45;&#45; as the novelty dicemaker said.&quot; He makes a note in his notebook. &quot;This has absolutely nothing to do with the case, I&#39;m sure. But I do like a nice little *connection*.&quot;</text>
</g>
<!-- 19&#45;&gt;37 -->
<g id="edge27" class="edge">
<title>19&#45;&gt;37</title>
<path fill="none" stroke="black" d="M5849.56,-504.87C5612.09,-490.94 5277.56,-471.31 5084.73,-460"/>
<polygon fill="black" stroke="black" points="5085.08,-456.51 5074.89,-459.42 5084.67,-463.5 5085.08,-456.51"/>
</g>
<!-- 20 -->
<g id="node21" class="node">
<title>20</title>
<ellipse fill="none" stroke="black" cx="1312.38" cy="-522" rx="58.52" ry="18"/>
<text text-anchor="middle" x="1312.38" y="-516.95" font-family="Times New Roman,serif" font-size="14.00">IsKimHere()</text>
</g>
<!-- 21 -->
<g id="node22" class="node">
<title>21</title>
<polygon fill="none" stroke="black" points="878.38,-468 795.63,-450 878.38,-432 961.14,-450 878.38,-468"/>
<text text-anchor="middle" x="878.38" y="-444.95" font-family="Times New Roman,serif" font-size="14.00">IsKimHere()</text>
</g>
<!-- 20&#45;&gt;21 -->
<g id="edge28" class="edge">
<title>20&#45;&gt;21</title>
<path fill="none" stroke="black" d="M1261.32,-512.76C1179.81,-499.62 1020.81,-473.97 935.58,-460.23"/>
<polygon fill="black" stroke="black" points="936.24,-456.79 925.81,-458.65 935.12,-463.7 936.24,-456.79"/>
</g>
<!-- 22 -->
<g id="node23" class="node">
<title>22</title>
<polygon fill="none" stroke="black" points="1312.38,-468 1216.6,-450 1312.38,-432 1408.16,-450 1312.38,-468"/>
<text text-anchor="middle" x="1312.38" y="-444.95" font-family="Times New Roman,serif" font-size="14.00">!(IsKimHere())</text>
</g>
<!-- 20&#45;&gt;22 -->
<g id="edge29" class="edge">
<title>20&#45;&gt;22</title>
<path fill="none" stroke="black" d="M1312.38,-503.7C1312.38,-496.41 1312.38,-487.73 1312.38,-479.54"/>
<polygon fill="black" stroke="black" points="1315.88,-479.62 1312.38,-469.62 1308.88,-479.62 1315.88,-479.62"/>
</g>
<!-- 21&#45;&gt;3 -->
<g id="edge30" class="edge">
<title>21&#45;&gt;3</title>
<path fill="none" stroke="black" d="M836.63,-440.63C784.94,-430.26 695.26,-412.27 626.08,-398.4"/>
<polygon fill="black" stroke="black" points="627.15,-395.04 616.65,-396.5 625.77,-401.9 627.15,-395.04"/>
</g>
<!-- 55 -->
<g id="node56" class="node">
<title>55</title>
<ellipse fill="none" stroke="black" cx="1312.38" cy="-378" rx="236.11" ry="18"/>
<text text-anchor="middle" x="1312.38" y="-372.95" font-family="Times New Roman,serif" font-size="14.00">Logic: Yes. Martinaise North 22 used to be a pinball arcade.</text>
</g>
<!-- 22&#45;&gt;55 -->
<g id="edge31" class="edge">
<title>22&#45;&gt;55</title>
<path fill="none" stroke="black" d="M1312.38,-431.7C1312.38,-424.41 1312.38,-415.73 1312.38,-407.54"/>
<polygon fill="black" stroke="black" points="1315.88,-407.62 1312.38,-397.62 1308.88,-407.62 1315.88,-407.62"/>
</g>
<!-- 24 -->
<g id="node25" class="node">
<title>24</title>
<ellipse fill="none" stroke="black" cx="5379.38" cy="-759.98" rx="367.14" ry="18"/>
<text text-anchor="middle" x="5379.38" y="-754.93" font-family="Times New Roman,serif" font-size="14.00">You: &quot;Whirling&#45;in&#45;Rags was once the East Delta Pinball arcade. This is all left over from that.&quot;</text>
</g>
<!-- 23&#45;&gt;24 -->
<g id="edge32" class="edge">
<title>23&#45;&gt;24</title>
<path fill="none" stroke="black" d="M5379.38,-813.68C5379.38,-806.39 5379.38,-797.71 5379.38,-789.52"/>
<polygon fill="black" stroke="black" points="5382.88,-789.6 5379.38,-779.6 5375.88,-789.6 5382.88,-789.6"/>
</g>
<!-- 47 -->
<g id="node48" class="node">
<title>47</title>
<ellipse fill="none" stroke="black" cx="5379.38" cy="-687.98" rx="58.52" ry="18"/>
<text text-anchor="middle" x="5379.38" y="-682.93" font-family="Times New Roman,serif" font-size="14.00">IsKimHere()</text>
</g>
<!-- 24&#45;&gt;47 -->
<g id="edge33" class="edge">
<title>24&#45;&gt;47</title>
<path fill="none" stroke="black" d="M5379.38,-741.68C5379.38,-734.39 5379.38,-725.71 5379.38,-717.52"/>
<polygon fill="black" stroke="black" points="5382.88,-717.6 5379.38,-707.6 5375.88,-717.6 5382.88,-717.6"/>
</g>
<!-- 25 -->
<g id="node26" class="node">
<title>25</title>
<ellipse fill="none" stroke="black" cx="1337.38" cy="-975.98" rx="510.96" ry="18"/>
<text text-anchor="middle" x="1337.38" y="-970.93" font-family="Times New Roman,serif" font-size="14.00">Logic: So this is where they brought faulty pinball machines to fix them up &#45;&#45; a long time ago. Everything is covered with dust now...</text>
</g>
<!-- 25&#45;&gt;10 -->
<g id="edge34" class="edge">
<title>25&#45;&gt;10</title>
<path fill="none" stroke="black" d="M1337.38,-957.68C1337.38,-950.39 1337.38,-941.71 1337.38,-933.52"/>
<polygon fill="black" stroke="black" points="1340.88,-933.6 1337.38,-923.6 1333.88,-933.6 1340.88,-933.6"/>
</g>
<!-- 26&#45;&gt;15 -->
<g id="edge35" class="edge">
<title>26&#45;&gt;15</title>
<path fill="none" stroke="black" d="M2348.38,-252.49C2348.38,-279.29 2348.38,-332.13 2348.38,-377 2348.38,-523 2348.38,-523 2348.38,-523 2348.38,-571.93 2364.64,-627 2375.88,-659.25"/>
<polygon fill="black" stroke="black" points="2372.57,-660.4 2379.25,-668.62 2379.16,-658.03 2372.57,-660.4"/>
</g>
<!-- 28 -->
<g id="node29" class="node">
<title>28</title>
<polygon fill="none" stroke="black" points="3076.38,-468 2993.63,-450 3076.38,-432 3159.14,-450 3076.38,-468"/>
<text text-anchor="middle" x="3076.38" y="-444.95" font-family="Times New Roman,serif" font-size="14.00">IsKimHere()</text>
</g>
<!-- 27&#45;&gt;28 -->
<g id="edge36" class="edge">
<title>27&#45;&gt;28</title>
<path fill="none" stroke="black" d="M2844.42,-509.83C2894.75,-497.06 2976.85,-476.24 3028.67,-463.1"/>
<polygon fill="black" stroke="black" points="3029.26,-466.56 3038.1,-460.71 3027.54,-459.78 3029.26,-466.56"/>
</g>
<!-- 29 -->
<g id="node30" class="node">
<title>29</title>
<polygon fill="none" stroke="black" points="2671.38,-468 2575.6,-450 2671.38,-432 2767.16,-450 2671.38,-468"/>
<text text-anchor="middle" x="2671.38" y="-444.95" font-family="Times New Roman,serif" font-size="14.00">!(IsKimHere())</text>
</g>
<!-- 27&#45;&gt;29 -->
<g id="edge37" class="edge">
<title>27&#45;&gt;29</title>
<path fill="none" stroke="black" d="M2772.39,-505.81C2752.61,-495.08 2726,-480.64 2705.06,-469.28"/>
<polygon fill="black" stroke="black" points="2706.78,-466.23 2696.32,-464.54 2703.44,-472.38 2706.78,-466.23"/>
</g>
<!-- 33 -->
<g id="node34" class="node">
<title>33</title>
<ellipse fill="none" stroke="black" cx="3352.38" cy="-378" rx="661.94" ry="18"/>
<text text-anchor="middle" x="3352.38" y="-372.95" font-family="Times New Roman,serif" font-size="14.00">Kim Kitsuragi: &quot;If that&#39;s true then our *cafeteria manager* is not going to like it.&quot; He looks around. &quot;We should tell him what we found up here &#45;&#45; *omitting* that suspicion.&quot;</text>
</g>
<!-- 28&#45;&gt;33 -->
<g id="edge38" class="edge">
<title>28&#45;&gt;33</title>
<path fill="none" stroke="black" d="M3113.32,-439.63C3153.91,-429.34 3220.32,-412.49 3272.86,-399.17"/>
<polygon fill="black" stroke="black" points="3273.55,-402.6 3282.38,-396.75 3271.83,-395.82 3273.55,-402.6"/>
</g>
<!-- 43 -->
<g id="node44" class="node">
<title>43</title>
<ellipse fill="none" stroke="black" cx="2543.38" cy="-378" rx="129.15" ry="18"/>
<text text-anchor="middle" x="2543.38" y="-372.95" font-family="Times New Roman,serif" font-size="14.00">Logic: Yes. It would mean that.</text>
</g>
<!-- 29&#45;&gt;43 -->
<g id="edge39" class="edge">
<title>29&#45;&gt;43</title>
<path fill="none" stroke="black" d="M2647.6,-436C2629.83,-426.28 2605.11,-412.76 2584.2,-401.32"/>
<polygon fill="black" stroke="black" points="2586.07,-398.36 2575.62,-396.63 2582.71,-404.5 2586.07,-398.36"/>
</g>
<!-- 30&#45;&gt;15 -->
<g id="edge40" class="edge">
<title>30&#45;&gt;15</title>
<path fill="none" stroke="black" d="M2734.68,-742.22C2645.95,-728.65 2524.06,-710.03 2450.5,-698.78"/>
<polygon fill="black" stroke="black" points="2451.48,-695.39 2441.06,-697.34 2450.42,-702.31 2451.48,-695.39"/>
</g>
<!-- 31&#45;&gt;16 -->
<g id="edge41" class="edge">
<title>31&#45;&gt;16</title>
<path fill="none" stroke="black" d="M1672.57,-820.65C1825.62,-812.23 2034.86,-798.37 2218.38,-777.98 2227.2,-777 2236.39,-775.84 2245.54,-774.58"/>
<polygon fill="black" stroke="black" points="2245.74,-778.08 2255.15,-773.21 2244.76,-771.15 2245.74,-778.08"/>
</g>
<!-- 32 -->
<g id="node33" class="node">
<title>32</title>
<ellipse fill="none" stroke="black" cx="4136.38" cy="-234" rx="102.53" ry="18"/>
<text text-anchor="middle" x="4136.38" y="-228.95" font-family="Times New Roman,serif" font-size="14.00">Jump to: [workshophub]</text>
</g>
<!-- 32&#45;&gt;15 -->
<g id="edge42" class="edge">
<title>32&#45;&gt;15</title>
<path fill="none" stroke="black" d="M4033.71,-234.68C3670.98,-233.99 2468.06,-235.68 2405.38,-288 2374.33,-313.92 2386.38,-336.55 2386.38,-377 2386.38,-523 2386.38,-523 2386.38,-523 2386.38,-570.46 2386.38,-625.64 2386.38,-658.37"/>
<polygon fill="black" stroke="black" points="2382.88,-658.23 2386.38,-668.23 2389.88,-658.23 2382.88,-658.23"/>
</g>
<!-- 34 -->
<g id="node35" class="node">
<title>34</title>
<ellipse fill="none" stroke="black" cx="4055.38" cy="-306" rx="577.49" ry="18"/>
<text text-anchor="middle" x="4055.38" y="-300.95" font-family="Times New Roman,serif" font-size="14.00">Kim Kitsuragi: &quot;He does not appear to be the kind of man who likes his establishment to be part of a neighbourhood ghost story. About *bankruptcy*.&quot;</text>
</g>
<!-- 33&#45;&gt;34 -->
<g id="edge43" class="edge">
<title>33&#45;&gt;34</title>
<path fill="none" stroke="black" d="M3521.66,-360.14C3628.99,-349.46 3767.65,-335.65 3876.74,-324.79"/>
<polygon fill="black" stroke="black" points="3876.76,-328.3 3886.37,-323.83 3876.07,-321.34 3876.76,-328.3"/>
</g>
<!-- 36 -->
<g id="node37" class="node">
<title>36</title>
<ellipse fill="none" stroke="black" cx="5154.38" cy="-234" rx="432.14" ry="18"/>
<text text-anchor="middle" x="5154.38" y="-228.95" font-family="Times New Roman,serif" font-size="14.00">Logic: Stupid superstition. But still &#45;&#45; it would be *interesting* to see what the cafeteria manager thinks of this...</text>
</g>
<!-- 34&#45;&gt;36 -->
<g id="edge44" class="edge">
<title>34&#45;&gt;36</title>
<path fill="none" stroke="black" d="M4302.02,-289.29C4484.57,-277.66 4731.98,-261.9 4913.22,-250.36"/>
<polygon fill="black" stroke="black" points="4913.25,-253.87 4923,-249.74 4912.8,-246.88 4913.25,-253.87"/>
</g>
<!-- 35 -->
<g id="node36" class="node">
<title>35</title>
<ellipse fill="none" stroke="black" cx="2937.38" cy="-306" rx="522.73" ry="18"/>
<text text-anchor="middle" x="2937.38" y="-300.95" font-family="Times New Roman,serif" font-size="14.00">Logic: And Garte would not like that. He should probably be made aware that his establishment is part of the neighbourhood ghost story.</text>
</g>
<!-- 35&#45;&gt;26 -->
<g id="edge45" class="edge">
<title>35&#45;&gt;26</title>
<path fill="none" stroke="black" d="M2796.3,-288.23C2686.91,-275.23 2538.33,-257.57 2442.88,-246.23"/>
<polygon fill="black" stroke="black" points="2443.36,-242.76 2433.01,-245.06 2442.53,-249.71 2443.36,-242.76"/>
</g>
<!-- 36&#45;&gt;1 -->
<g id="edge46" class="edge">
<title>36&#45;&gt;1</title>
<path fill="none" stroke="black" d="M5485.96,-245.87C5988.05,-264.57 6883.38,-307.65 6883.38,-377 6883.38,-1048.98 6883.38,-1048.98 6883.38,-1048.98 6883.38,-1177.63 4748.02,-1189.77 4421.93,-1190.88"/>
<polygon fill="black" stroke="black" points="4422.18,-1187.37 4412.19,-1190.91 4422.2,-1194.37 4422.18,-1187.37"/>
</g>
<!-- 38 -->
<g id="node39" class="node">
<title>38</title>
<polygon fill="none" stroke="black" points="5242.38,-396 5009.8,-378 5242.38,-360 5474.96,-378 5242.38,-396"/>
<text text-anchor="middle" x="5242.38" y="-372.95" font-family="Times New Roman,serif" font-size="14.00">Variable[&quot;tc.doomed_commercial_area&quot;]</text>
</g>
<!-- 37&#45;&gt;38 -->
<g id="edge47" class="edge">
<title>37&#45;&gt;38</title>
<path fill="none" stroke="black" d="M5001.17,-433.29C5052.65,-421.71 5122.34,-406.02 5173.57,-394.49"/>
<polygon fill="black" stroke="black" points="5174.08,-397.96 5183.06,-392.35 5172.54,-391.13 5174.08,-397.96"/>
</g>
<!-- 39 -->
<g id="node40" class="node">
<title>39</title>
<polygon fill="none" stroke="black" points="4746.38,-396 4500.77,-378 4746.38,-360 4991.99,-378 4746.38,-396"/>
<text text-anchor="middle" x="4746.38" y="-372.95" font-family="Times New Roman,serif" font-size="14.00">!(Variable[&quot;tc.doomed_commercial_area&quot;])</text>
</g>
<!-- 37&#45;&gt;39 -->
<g id="edge48" class="edge">
<title>37&#45;&gt;39</title>
<path fill="none" stroke="black" d="M4887.07,-432.23C4859.49,-421.8 4823.97,-408.36 4795.53,-397.6"/>
<polygon fill="black" stroke="black" points="4797.01,-394.41 4786.42,-394.15 4794.53,-400.96 4797.01,-394.41"/>
</g>
<!-- 50 -->
<g id="node51" class="node">
<title>50</title>
<ellipse fill="none" stroke="black" cx="5235.38" cy="-306" rx="348.2" ry="18"/>
<text text-anchor="middle" x="5235.38" y="-300.95" font-family="Times New Roman,serif" font-size="14.00">Inland Empire: But then it went bankrupt... your skin crawls from making the connection!</text>
</g>
<!-- 38&#45;&gt;50 -->
<g id="edge49" class="edge">
<title>38&#45;&gt;50</title>
<path fill="none" stroke="black" d="M5240.65,-359.7C5239.92,-352.41 5239.05,-343.73 5238.23,-335.54"/>
<polygon fill="black" stroke="black" points="5241.72,-335.21 5237.24,-325.61 5234.75,-335.91 5241.72,-335.21"/>
</g>
<!-- 41 -->
<g id="node42" class="node">
<title>41</title>
<ellipse fill="none" stroke="black" cx="4753.38" cy="-306" rx="102.53" ry="18"/>
<text text-anchor="middle" x="4753.38" y="-300.95" font-family="Times New Roman,serif" font-size="14.00">Jump to: [workshophub]</text>
</g>
<!-- 39&#45;&gt;41 -->
<g id="edge50" class="edge">
<title>39&#45;&gt;41</title>
<path fill="none" stroke="black" d="M4748.11,-359.7C4748.84,-352.41 4749.71,-343.73 4750.53,-335.54"/>
<polygon fill="black" stroke="black" points="4754.01,-335.91 4751.52,-325.61 4747.04,-335.21 4754.01,-335.91"/>
</g>
<!-- 41&#45;&gt;15 -->
<g id="edge51" class="edge">
<title>41&#45;&gt;15</title>
<path fill="none" stroke="black" d="M4678.41,-318.63C4666.05,-320.47 4653.36,-322.33 4641.38,-324 4621.86,-326.73 3248.37,-491.2 3233.38,-504 3187.61,-543.08 3242.34,-596.33 3195.38,-633.98 3138.71,-679.43 2647.41,-686.04 2459.26,-686.9"/>
<polygon fill="black" stroke="black" points="2459.35,-683.4 2449.36,-686.94 2459.38,-690.4 2459.35,-683.4"/>
</g>
<!-- 42&#45;&gt;20 -->
<g id="edge52" class="edge">
<title>42&#45;&gt;20</title>
<path fill="none" stroke="black" d="M1667.09,-582.98C1572.83,-567.04 1447.32,-545.82 1373.64,-533.36"/>
<polygon fill="black" stroke="black" points="1374.65,-529.98 1364.21,-531.76 1373.48,-536.88 1374.65,-529.98"/>
</g>
<!-- 43&#45;&gt;35 -->
<g id="edge53" class="edge">
<title>43&#45;&gt;35</title>
<path fill="none" stroke="black" d="M2620.75,-363.25C2680.39,-352.66 2763.56,-337.88 2829.7,-326.13"/>
<polygon fill="black" stroke="black" points="2830.28,-329.58 2839.51,-324.39 2829.05,-322.69 2830.28,-329.58"/>
</g>
<!-- 51 -->
<g id="node52" class="node">
<title>51</title>
<ellipse fill="none" stroke="black" cx="1586.38" cy="-234" rx="58.52" ry="18"/>
<text text-anchor="middle" x="1586.38" y="-228.95" font-family="Times New Roman,serif" font-size="14.00">IsKimHere()</text>
</g>
<!-- 44&#45;&gt;51 -->
<g id="edge54" class="edge">
<title>44&#45;&gt;51</title>
<path fill="none" stroke="black" d="M1377.66,-288.32C1424.55,-276.34 1487.04,-260.38 1531.39,-249.05"/>
<polygon fill="black" stroke="black" points="1532.25,-252.44 1541.07,-246.57 1530.52,-245.66 1532.25,-252.44"/>
</g>
<!-- 45&#45;&gt;7 -->
<g id="edge55" class="edge">
<title>45&#45;&gt;7</title>
<path fill="none" stroke="black" d="M4017.43,-576.57C3983.66,-565.41 3945.39,-552.75 3914.52,-542.55"/>
<polygon fill="black" stroke="black" points="3915.96,-539.34 3905.37,-539.52 3913.76,-545.99 3915.96,-539.34"/>
</g>
<!-- 46 -->
<g id="node47" class="node">
<title>46</title>
<ellipse fill="none" stroke="black" cx="2566.38" cy="-90" rx="443.4" ry="18"/>
<text text-anchor="middle" x="2566.38" y="-84.95" font-family="Times New Roman,serif" font-size="14.00">Logic: And it has been forgotten. Now, there is only one working machine in the main hall &#45;&#45; the rest is lost to dust.</text>
</g>
<!-- 46&#45;&gt;4 -->
<g id="edge56" class="edge">
<title>46&#45;&gt;4</title>
<path fill="none" stroke="black" d="M2353.43,-73.79C2197.68,-62.66 1986.3,-47.57 1824.88,-36.04"/>
<polygon fill="black" stroke="black" points="1825.57,-32.58 1815.35,-35.35 1825.07,-39.56 1825.57,-32.58"/>
</g>
<!-- 48 -->
<g id="node49" class="node">
<title>48</title>
<polygon fill="none" stroke="black" points="5975.38,-622.99 5892.63,-604.99 5975.38,-586.99 6058.14,-604.99 5975.38,-622.99"/>
<text text-anchor="middle" x="5975.38" y="-599.94" font-family="Times New Roman,serif" font-size="14.00">IsKimHere()</text>
</g>
<!-- 47&#45;&gt;48 -->
<g id="edge57" class="edge">
<title>47&#45;&gt;48</title>
<path fill="none" stroke="black" d="M5432.27,-679.8C5542.83,-664.77 5797.81,-630.12 5914.76,-614.23"/>
<polygon fill="black" stroke="black" points="5915.04,-617.72 5924.48,-612.91 5914.1,-610.79 5915.04,-617.72"/>
</g>
<!-- 49 -->
<g id="node50" class="node">
<title>49</title>
<polygon fill="none" stroke="black" points="5229.38,-622.99 5133.6,-604.99 5229.38,-586.99 5325.16,-604.99 5229.38,-622.99"/>
<text text-anchor="middle" x="5229.38" y="-599.94" font-family="Times New Roman,serif" font-size="14.00">!(IsKimHere())</text>
</g>
<!-- 47&#45;&gt;49 -->
<g id="edge58" class="edge">
<title>47&#45;&gt;49</title>
<path fill="none" stroke="black" d="M5351.17,-671.75C5326.14,-658.24 5289.55,-638.48 5263.01,-624.15"/>
<polygon fill="black" stroke="black" points="5264.82,-621.15 5254.36,-619.48 5261.49,-627.31 5264.82,-621.15"/>
</g>
<!-- 48&#45;&gt;19 -->
<g id="edge59" class="edge">
<title>48&#45;&gt;19</title>
<path fill="none" stroke="black" d="M5998.33,-591.51C6020.63,-579.4 6055,-560.71 6082.23,-545.91"/>
<polygon fill="black" stroke="black" points="6083.83,-549.03 6090.94,-541.18 6080.48,-542.88 6083.83,-549.03"/>
</g>
<!-- 49&#45;&gt;17 -->
<g id="edge60" class="edge">
<title>49&#45;&gt;17</title>
<path fill="none" stroke="black" d="M5191.34,-593.65C5144.73,-580.99 5064.72,-559.24 5005.74,-543.21"/>
<polygon fill="black" stroke="black" points="5007.01,-539.93 4996.44,-540.68 5005.18,-546.68 5007.01,-539.93"/>
</g>
<!-- 50&#45;&gt;32 -->
<g id="edge61" class="edge">
<title>50&#45;&gt;32</title>
<path fill="none" stroke="black" d="M5021.85,-291.4C4787.91,-276.5 4422.12,-253.2 4242.77,-241.78"/>
<polygon fill="black" stroke="black" points="4243.2,-238.3 4233,-241.15 4242.76,-245.28 4243.2,-238.3"/>
</g>
<!-- 52 -->
<g id="node53" class="node">
<title>52</title>
<polygon fill="none" stroke="black" points="1586.38,-180 1503.63,-162 1586.38,-144 1669.14,-162 1586.38,-180"/>
<text text-anchor="middle" x="1586.38" y="-156.95" font-family="Times New Roman,serif" font-size="14.00">IsKimHere()</text>
</g>
<!-- 51&#45;&gt;52 -->
<g id="edge62" class="edge">
<title>51&#45;&gt;52</title>
<path fill="none" stroke="black" d="M1586.38,-215.7C1586.38,-208.41 1586.38,-199.73 1586.38,-191.54"/>
<polygon fill="black" stroke="black" points="1589.88,-191.62 1586.38,-181.62 1582.88,-191.62 1589.88,-191.62"/>
</g>
<!-- 53 -->
<g id="node54" class="node">
<title>53</title>
<polygon fill="none" stroke="black" points="2174.38,-180 2078.6,-162 2174.38,-144 2270.16,-162 2174.38,-180"/>
<text text-anchor="middle" x="2174.38" y="-156.95" font-family="Times New Roman,serif" font-size="14.00">!(IsKimHere())</text>
</g>
<!-- 51&#45;&gt;53 -->
<g id="edge63" class="edge">
<title>51&#45;&gt;53</title>
<path fill="none" stroke="black" d="M1640.38,-226.57C1747.81,-213.78 1988.12,-185.17 2106.22,-171.11"/>
<polygon fill="black" stroke="black" points="2106.58,-174.6 2116.1,-169.94 2105.76,-167.64 2106.58,-174.6"/>
</g>
<!-- 59 -->
<g id="node60" class="node">
<title>59</title>
<ellipse fill="none" stroke="black" cx="1586.38" cy="-90" rx="518.63" ry="18"/>
<text text-anchor="middle" x="1586.38" y="-84.95" font-family="Times New Roman,serif" font-size="14.00">Kim Kitsuragi: &quot;Downstairs in the hall &#45;&#45; next to the main door. One of them even works. I&#39;ve seen one of the Hardies bang away at it.&quot;</text>
</g>
<!-- 52&#45;&gt;59 -->
<g id="edge64" class="edge">
<title>52&#45;&gt;59</title>
<path fill="none" stroke="black" d="M1586.38,-143.7C1586.38,-136.41 1586.38,-127.73 1586.38,-119.54"/>
<polygon fill="black" stroke="black" points="1589.88,-119.62 1586.38,-109.62 1582.88,-119.62 1589.88,-119.62"/>
</g>
<!-- 53&#45;&gt;46 -->
<g id="edge65" class="edge">
<title>53&#45;&gt;46</title>
<path fill="none" stroke="black" d="M2222.06,-152.49C2280.69,-142.02 2381.97,-123.93 2459.56,-110.07"/>
<polygon fill="black" stroke="black" points="2460.11,-113.53 2469.34,-108.33 2458.88,-106.64 2460.11,-113.53"/>
</g>
<!-- 54&#45;&gt;16 -->
<g id="edge66" class="edge">
<title>54&#45;&gt;16</title>
<path fill="none" stroke="black" d="M2329.38,-813.68C2329.38,-806.39 2329.38,-797.71 2329.38,-789.52"/>
<polygon fill="black" stroke="black" points="2332.88,-789.6 2329.38,-779.6 2325.88,-789.6 2332.88,-789.6"/>
</g>
<!-- 55&#45;&gt;44 -->
<g id="edge67" class="edge">
<title>55&#45;&gt;44</title>
<path fill="none" stroke="black" d="M1312.38,-359.7C1312.38,-352.41 1312.38,-343.73 1312.38,-335.54"/>
<polygon fill="black" stroke="black" points="1315.88,-335.62 1312.38,-325.62 1308.88,-335.62 1315.88,-335.62"/>
</g>
<!-- 57 -->
<g id="node58" class="node">
<title>57</title>
<polygon fill="none" stroke="black" points="1374.38,-1065.98 1157,-1047.98 1374.38,-1029.98 1591.76,-1047.98 1374.38,-1065.98"/>
<text text-anchor="middle" x="1374.38" y="-1042.93" font-family="Times New Roman,serif" font-size="14.00">Variable[&quot;auto.visited_pinball_room&quot;]</text>
</g>
<!-- 56&#45;&gt;57 -->
<g id="edge68" class="edge">
<title>56&#45;&gt;57</title>
<path fill="none" stroke="black" d="M1780.18,-1105.57C1689,-1092.85 1553.08,-1073.9 1464.09,-1061.49"/>
<polygon fill="black" stroke="black" points="1464.83,-1058.06 1454.44,-1060.15 1463.86,-1064.99 1464.83,-1058.06"/>
</g>
<!-- 58 -->
<g id="node59" class="node">
<title>58</title>
<polygon fill="none" stroke="black" points="1876.38,-1065.98 1645.97,-1047.98 1876.38,-1029.98 2106.79,-1047.98 1876.38,-1065.98"/>
<text text-anchor="middle" x="1876.38" y="-1042.93" font-family="Times New Roman,serif" font-size="14.00">!(Variable[&quot;auto.visited_pinball_room&quot;])</text>
</g>
<!-- 56&#45;&gt;58 -->
<g id="edge69" class="edge">
<title>56&#45;&gt;58</title>
<path fill="none" stroke="black" d="M1876.38,-1101.68C1876.38,-1094.39 1876.38,-1085.71 1876.38,-1077.52"/>
<polygon fill="black" stroke="black" points="1879.88,-1077.6 1876.38,-1067.6 1872.88,-1077.6 1879.88,-1077.6"/>
</g>
<!-- 57&#45;&gt;25 -->
<g id="edge70" class="edge">
<title>57&#45;&gt;25</title>
<path fill="none" stroke="black" d="M1365.61,-1030.39C1361.54,-1022.69 1356.59,-1013.32 1351.98,-1004.6"/>
<polygon fill="black" stroke="black" points="1355.08,-1002.97 1347.31,-995.77 1348.89,-1006.24 1355.08,-1002.97"/>
</g>
<!-- 58&#45;&gt;2 -->
<g id="edge71" class="edge">
<title>58&#45;&gt;2</title>
<path fill="none" stroke="black" d="M1876.38,-1029.49C1876.38,-1002.69 1876.38,-949.85 1876.38,-904.98 1876.38,-904.98 1876.38,-904.98 1876.38,-830.98 1876.38,-771.47 1814.52,-732.44 1764.57,-710.63"/>
<polygon fill="black" stroke="black" points="1766.08,-707.47 1755.51,-706.82 1763.37,-713.92 1766.08,-707.47"/>
</g>
<!-- 59&#45;&gt;4 -->
<g id="edge72" class="edge">
<title>59&#45;&gt;4</title>
<path fill="none" stroke="black" d="M1586.38,-71.7C1586.38,-64.41 1586.38,-55.73 1586.38,-47.54"/>
<polygon fill="black" stroke="black" points="1589.88,-47.62 1586.38,-37.62 1582.88,-47.62 1589.88,-47.62"/>
</g>
</g>
</svg>
