<?xml version="1.0" encoding="UTF-8" standalone="no"?>
<!DOCTYPE svg PUBLIC "-//W3C//DTD SVG 1.1//EN"
 "http://www.w3.org/Graphics/SVG/1.1/DTD/svg11.dtd">
<!-- Generated by graphviz version 12.2.1 (20241206.2353)
 -->
<!-- Title: G Pages: 1 -->
<svg width="6972pt" height="1650pt"
 viewBox="0.00 0.00 6971.84 1649.98" xmlns="http://www.w3.org/2000/svg" xmlns:xlink="http://www.w3.org/1999/xlink">
<g id="graph0" class="graph" transform="scale(1 1) rotate(0) translate(4 1645.98)">
<title>G</title>
<polygon fill="white" stroke="none" points="-4,4 -4,-1645.98 6967.84,-1645.98 6967.84,4 -4,4"/>
<!-- 0 -->
<g id="node1" class="node">
<title>0</title>
<ellipse fill="none" stroke="black" cx="6108.83" cy="-1623.98" rx="39.07" ry="18"/>
<text text-anchor="middle" x="6108.83" y="-1618.93" font-family="Times New Roman,serif" font-size="14.00">START</text>
</g>
<!-- 1 -->
<g id="node2" class="node">
<title>1</title>
<ellipse fill="none" stroke="black" cx="6108.83" cy="-1551.98" rx="29.86" ry="18"/>
<text text-anchor="middle" x="6108.83" y="-1546.93" font-family="Times New Roman,serif" font-size="14.00">input</text>
</g>
<!-- 0&#45;&gt;1 -->
<g id="edge1" class="edge">
<title>0&#45;&gt;1</title>
<path fill="none" stroke="black" d="M6108.83,-1605.68C6108.83,-1598.39 6108.83,-1589.71 6108.83,-1581.52"/>
<polygon fill="black" stroke="black" points="6112.33,-1581.6 6108.83,-1571.6 6105.33,-1581.6 6112.33,-1581.6"/>
</g>
<!-- 9 -->
<g id="node10" class="node">
<title>9</title>
<ellipse fill="none" stroke="black" cx="6108.83" cy="-1468.99" rx="420.2" ry="28.99"/>
<text text-anchor="middle" x="6108.83" y="-1472.19" font-family="Times New Roman,serif" font-size="14.00">Encyclopedia: A Stas&#45;Rajko! One of the finest Zsiemsk&#45;made motor carriages ever. An oldie but a goldie.</text>
<text text-anchor="middle" x="6108.83" y="-1455.69" font-family="Times New Roman,serif" font-size="14.00">Stas&#45;Rajko KK&#45;2! One of the finest Zsiemsk&#45;made motor carriages ever. An oldie but a goldie.</text>
</g>
<!-- 1&#45;&gt;9 -->
<g id="edge2" class="edge">
<title>1&#45;&gt;9</title>
<path fill="none" stroke="black" d="M6108.83,-1533.81C6108.83,-1526.72 6108.83,-1518.19 6108.83,-1509.7"/>
<polygon fill="black" stroke="black" points="6112.33,-1509.81 6108.83,-1499.81 6105.33,-1509.81 6112.33,-1509.81"/>
</g>
<!-- 2 -->
<g id="node3" class="node">
<title>2</title>
<ellipse fill="none" stroke="black" cx="4543.83" cy="-882" rx="789.89" ry="18"/>
<text text-anchor="middle" x="4543.83" y="-876.95" font-family="Times New Roman,serif" font-size="14.00">Encyclopedia: No. Only that the motor carriage is typically baby&#45;blue, the colours of Zygismunt the Great, an ancient Zsiemsk ruler. His banners were famously zaffer and white: the colours of the Stas&#45;Rajko.</text>
</g>
<!-- 13 -->
<g id="node14" class="node">
<title>13</title>
<ellipse fill="none" stroke="black" cx="3725.83" cy="-810" rx="158.83" ry="18"/>
<text text-anchor="middle" x="3725.83" y="-804.95" font-family="Times New Roman,serif" font-size="14.00">You: &quot;What happened last time, Kim?&quot;</text>
</g>
<!-- 2&#45;&gt;13 -->
<g id="edge4" class="edge">
<title>2&#45;&gt;13</title>
<path fill="none" stroke="black" d="M4346.33,-864.1C4196.11,-851.24 3993.37,-833.89 3861.15,-822.58"/>
<polygon fill="black" stroke="black" points="3861.54,-819.1 3851.28,-821.74 3860.94,-826.08 3861.54,-819.1"/>
</g>
<!-- 27 -->
<g id="node28" class="node">
<title>27</title>
<ellipse fill="none" stroke="black" cx="4698.83" cy="-810" rx="643" ry="18"/>
<text text-anchor="middle" x="4698.83" y="-804.95" font-family="Times New Roman,serif" font-size="14.00">You: &quot;Let me guess what happened last time, Kim: Blue and white are the colours of Zsiemsk. Someone painted it, got a Zsiemsk mad, and boom &#45;&#45; murder happened.&quot;</text>
</g>
<!-- 2&#45;&gt;27 -->
<g id="edge3" class="edge">
<title>2&#45;&gt;27</title>
<path fill="none" stroke="black" d="M4582.14,-863.7C4602.64,-854.44 4628.09,-842.95 4649.99,-833.06"/>
<polygon fill="black" stroke="black" points="4651.36,-836.28 4659.04,-828.97 4648.48,-829.9 4651.36,-836.28"/>
</g>
<!-- 3 -->
<g id="node4" class="node">
<title>3</title>
<ellipse fill="none" stroke="black" cx="4466.83" cy="-90" rx="829.81" ry="18"/>
<text text-anchor="middle" x="4466.83" y="-84.95" font-family="Times New Roman,serif" font-size="14.00">Kim Kitsuragi: &quot;Could it be another Stas&#45;Rajko murder?&quot; He gives you a crooked smile. &quot;Honestly, that just doesn&#39;t seem like the type of vehicle our dead guy would drive, so my initial guess is the two are not related.&quot;</text>
</g>
<!-- 6 -->
<g id="node7" class="node">
<title>6</title>
<ellipse fill="none" stroke="black" cx="5294.83" cy="-18" rx="126.08" ry="18"/>
<text text-anchor="middle" x="5294.83" y="-12.95" font-family="Times New Roman,serif" font-size="14.00">Jump to: [more_of_stas_rajko]</text>
</g>
<!-- 3&#45;&gt;6 -->
<g id="edge5" class="edge">
<title>3&#45;&gt;6</title>
<path fill="none" stroke="black" d="M4667.26,-72.05C4826.78,-58.57 5044.54,-40.16 5177.13,-28.95"/>
<polygon fill="black" stroke="black" points="5177.32,-32.45 5186.99,-28.12 5176.73,-25.47 5177.32,-32.45"/>
</g>
<!-- 4 -->
<g id="node5" class="node">
<title>4</title>
<ellipse fill="none" stroke="black" cx="4135.83" cy="-522" rx="84.62" ry="18"/>
<text text-anchor="middle" x="4135.83" y="-516.95" font-family="Times New Roman,serif" font-size="14.00">more_of_stas_rajko</text>
</g>
<!-- 18 -->
<g id="node19" class="node">
<title>18</title>
<ellipse fill="none" stroke="black" cx="3481.83" cy="-450" rx="441.35" ry="18"/>
<text text-anchor="middle" x="3481.83" y="-444.95" font-family="Times New Roman,serif" font-size="14.00">You: &quot;Hate to correct you Kim, but only four&#45;thousand&#45;three&#45;hundred&#45;and&#45;ninety&#45;five people were on that protest.&quot;</text>
</g>
<!-- 4&#45;&gt;18 -->
<g id="edge9" class="edge">
<title>4&#45;&gt;18</title>
<path fill="none" stroke="black" d="M4061.44,-513.04C3960.9,-502.28 3778.9,-482.8 3645.59,-468.53"/>
<polygon fill="black" stroke="black" points="3646.28,-465.08 3635.97,-467.5 3645.54,-472.04 3646.28,-465.08"/>
</g>
<!-- 32 -->
<g id="node33" class="node">
<title>32</title>
<ellipse fill="none" stroke="black" cx="5149.83" cy="-450" rx="169.58" ry="18"/>
<text text-anchor="middle" x="5149.83" y="-444.95" font-family="Times New Roman,serif" font-size="14.00">You: &quot;Who are the Zsiemsk community?&quot;</text>
</g>
<!-- 4&#45;&gt;32 -->
<g id="edge6" class="edge">
<title>4&#45;&gt;32</title>
<path fill="none" stroke="black" d="M4215.4,-515.51C4384.38,-503.84 4781.45,-476.43 4999.65,-461.37"/>
<polygon fill="black" stroke="black" points="4999.63,-464.88 5009.36,-460.7 4999.14,-457.89 4999.63,-464.88"/>
</g>
<!-- 42 -->
<g id="node42" class="node">
<title>42</title>
<ellipse fill="none" stroke="black" cx="1885.83" cy="-450" rx="304.18" ry="18"/>
<text text-anchor="middle" x="1885.83" y="-444.95" font-family="Times New Roman,serif" font-size="14.00">You: &quot;Interesting. Before we proceed, I&#39;ve got an *opinion* on this paint&#45;job.&quot;</text>
</g>
<!-- 4&#45;&gt;42 -->
<g id="edge7" class="edge">
<title>4&#45;&gt;42</title>
<path fill="none" stroke="black" d="M4052.41,-518.4C3745.79,-508.87 2672.5,-475.47 2160.98,-459.56"/>
<polygon fill="black" stroke="black" points="2161.36,-456.07 2151.26,-459.26 2161.14,-463.07 2161.36,-456.07"/>
</g>
<!-- 48 -->
<g id="node48" class="node">
<title>48</title>
<ellipse fill="none" stroke="black" cx="2668.83" cy="-450" rx="172.14" ry="18"/>
<text text-anchor="middle" x="2668.83" y="-444.95" font-family="Times New Roman,serif" font-size="14.00">You: &quot;What&#39;d they sentence the killers to?&quot;</text>
</g>
<!-- 4&#45;&gt;48 -->
<g id="edge8" class="edge">
<title>4&#45;&gt;48</title>
<path fill="none" stroke="black" d="M4053.78,-517.31C3866.68,-508.88 3394.07,-487.39 2998.83,-468 2944.26,-465.32 2884.63,-462.29 2831.25,-459.53"/>
<polygon fill="black" stroke="black" points="2831.64,-456.04 2821.47,-459.02 2831.28,-463.03 2831.64,-456.04"/>
</g>
<!-- 50 -->
<g id="node50" class="node">
<title>50</title>
<ellipse fill="none" stroke="black" cx="4061.83" cy="-450" rx="120.45" ry="18"/>
<text text-anchor="middle" x="4061.83" y="-444.95" font-family="Times New Roman,serif" font-size="14.00">You: Got it. [Finish thought.]</text>
</g>
<!-- 4&#45;&gt;50 -->
<g id="edge10" class="edge">
<title>4&#45;&gt;50</title>
<path fill="none" stroke="black" d="M4117.91,-504.05C4109.05,-495.67 4098.17,-485.38 4088.36,-476.1"/>
<polygon fill="black" stroke="black" points="4090.86,-473.64 4081.19,-469.32 4086.05,-478.73 4090.86,-473.64"/>
</g>
<!-- 56 -->
<g id="node56" class="node">
<title>56</title>
<ellipse fill="none" stroke="black" cx="4509.83" cy="-450" rx="272.45" ry="18"/>
<text text-anchor="middle" x="4509.83" y="-444.95" font-family="Times New Roman,serif" font-size="14.00">You: &quot;Kim... could our hanged man have been the driver of this car?&quot;</text>
</g>
<!-- 4&#45;&gt;56 -->
<g id="edge11" class="edge">
<title>4&#45;&gt;56</title>
<path fill="none" stroke="black" d="M4197.59,-509.44C4255.47,-498.61 4342.97,-482.23 4410.63,-469.57"/>
<polygon fill="black" stroke="black" points="4411.07,-473.05 4420.25,-467.77 4409.78,-466.17 4411.07,-473.05"/>
</g>
<!-- 5 -->
<g id="node6" class="node">
<title>5</title>
<ellipse fill="none" stroke="black" cx="2534.83" cy="-378" rx="370.72" ry="18"/>
<text text-anchor="middle" x="2534.83" y="-372.95" font-family="Times New Roman,serif" font-size="14.00">Kim Kitsuragi: He studies his reflection in the car window. &quot;Four years for murder in Reunion.&quot;</text>
</g>
<!-- 24 -->
<g id="node25" class="node">
<title>24</title>
<ellipse fill="none" stroke="black" cx="2456.83" cy="-306" rx="527.84" ry="18"/>
<text text-anchor="middle" x="2456.83" y="-300.95" font-family="Times New Roman,serif" font-size="14.00">Kim Kitsuragi: The lieutenant shrugs. &quot;The perps were remorseful. Their *sorry* knocked eight years off the sentence. That&#39;s the system.&quot;</text>
</g>
<!-- 5&#45;&gt;24 -->
<g id="edge12" class="edge">
<title>5&#45;&gt;24</title>
<path fill="none" stroke="black" d="M2515.55,-359.7C2506.17,-351.28 2494.73,-341.02 2484.45,-331.79"/>
<polygon fill="black" stroke="black" points="2487.06,-329.43 2477.28,-325.36 2482.39,-334.64 2487.06,-329.43"/>
</g>
<!-- 6&#45;&gt;4 -->
<g id="edge13" class="edge">
<title>6&#45;&gt;4</title>
<path fill="none" stroke="black" d="M5421.23,-18.85C5796.84,-18.96 6883.78,-23.47 6941.83,-72 6972.86,-97.94 6960.83,-120.55 6960.83,-161 6960.83,-379 6960.83,-379 6960.83,-379 6960.83,-518.74 4726.97,-522.24 4232.12,-521.3"/>
<polygon fill="black" stroke="black" points="4232.28,-517.8 4222.27,-521.28 4232.27,-524.8 4232.28,-517.8"/>
</g>
<!-- 7 -->
<g id="node8" class="node">
<title>7</title>
<ellipse fill="none" stroke="black" cx="5891.83" cy="-1242" rx="273.48" ry="18"/>
<text text-anchor="middle" x="5891.83" y="-1236.95" font-family="Times New Roman,serif" font-size="14.00">Physical Instrument: Bulky frame. Heavy. Hardy. Looks like a tractor.</text>
</g>
<!-- 51 -->
<g id="node51" class="node">
<title>51</title>
<ellipse fill="none" stroke="black" cx="5843.83" cy="-1170" rx="48.28" ry="18"/>
<text text-anchor="middle" x="5843.83" y="-1164.95" font-family="Times New Roman,serif" font-size="14.00">stas_rajko</text>
</g>
<!-- 7&#45;&gt;51 -->
<g id="edge14" class="edge">
<title>7&#45;&gt;51</title>
<path fill="none" stroke="black" d="M5879.96,-1223.7C5874.42,-1215.61 5867.7,-1205.81 5861.57,-1196.87"/>
<polygon fill="black" stroke="black" points="5864.62,-1195.14 5856.08,-1188.87 5858.85,-1199.1 5864.62,-1195.14"/>
</g>
<!-- 8 -->
<g id="node9" class="node">
<title>8</title>
<ellipse fill="none" stroke="black" cx="6044.83" cy="-1386" rx="99.97" ry="18"/>
<text text-anchor="middle" x="6044.83" y="-1380.95" font-family="Times New Roman,serif" font-size="14.00">You: Who drives these?</text>
</g>
<!-- 38 -->
<g id="node38" class="node">
<title>38</title>
<ellipse fill="none" stroke="black" cx="5915.83" cy="-1314" rx="333.87" ry="18"/>
<text text-anchor="middle" x="5915.83" y="-1308.95" font-family="Times New Roman,serif" font-size="14.00">Encyclopedia: Not many people outside of Graad – and Revachol West too, it appears.</text>
</g>
<!-- 8&#45;&gt;38 -->
<g id="edge15" class="edge">
<title>8&#45;&gt;38</title>
<path fill="none" stroke="black" d="M6014.26,-1368.41C5997.28,-1359.2 5975.93,-1347.61 5957.45,-1337.59"/>
<polygon fill="black" stroke="black" points="5959.32,-1334.62 5948.86,-1332.92 5955.98,-1340.77 5959.32,-1334.62"/>
</g>
<!-- 9&#45;&gt;8 -->
<g id="edge16" class="edge">
<title>9&#45;&gt;8</title>
<path fill="none" stroke="black" d="M6086.44,-1439.66C6079.56,-1430.95 6072.02,-1421.42 6065.28,-1412.88"/>
<polygon fill="black" stroke="black" points="6068.22,-1410.96 6059.28,-1405.28 6062.73,-1415.3 6068.22,-1410.96"/>
</g>
<!-- 46 -->
<g id="node46" class="node">
<title>46</title>
<ellipse fill="none" stroke="black" cx="6608.83" cy="-1098" rx="275.01" ry="18"/>
<text text-anchor="middle" x="6608.83" y="-1092.95" font-family="Times New Roman,serif" font-size="14.00">You: That&#39;s cool, but I have policeman things to do. [Discard thought.]</text>
</g>
<!-- 9&#45;&gt;46 -->
<g id="edge17" class="edge">
<title>9&#45;&gt;46</title>
<path fill="none" stroke="black" d="M6181.93,-1440.04C6232.16,-1415.53 6289.83,-1374.45 6289.83,-1315 6289.83,-1315 6289.83,-1315 6289.83,-1241 6289.83,-1168.49 6359.47,-1132.74 6433.68,-1115.22"/>
<polygon fill="black" stroke="black" points="6434.18,-1118.7 6443.18,-1113.1 6432.66,-1111.87 6434.18,-1118.7"/>
</g>
<!-- 10 -->
<g id="node11" class="node">
<title>10</title>
<ellipse fill="none" stroke="black" cx="4099.83" cy="-1026" rx="654.77" ry="18"/>
<text text-anchor="middle" x="4099.83" y="-1020.95" font-family="Times New Roman,serif" font-size="14.00">Kim Kitsuragi: &quot;A Stas&#45;Rajko, KK&#45;2. That&#39;s a classic model,&quot; the lieutenant replies with a nod. &quot;Never thought I&#39;d see another one repainted after what happened last time.&quot;</text>
</g>
<!-- 10&#45;&gt;13 -->
<g id="edge18" class="edge">
<title>10&#45;&gt;13</title>
<path fill="none" stroke="black" d="M3956.24,-1008C3882.95,-991.95 3798.22,-960.72 3744.83,-900 3730.38,-883.57 3726,-858.88 3725.03,-839.66"/>
<polygon fill="black" stroke="black" points="3728.53,-839.7 3724.84,-829.77 3721.53,-839.83 3728.53,-839.7"/>
</g>
<!-- 15 -->
<g id="node16" class="node">
<title>15</title>
<ellipse fill="none" stroke="black" cx="4321.83" cy="-954" rx="317.49" ry="18"/>
<text text-anchor="middle" x="4321.83" y="-948.95" font-family="Times New Roman,serif" font-size="14.00">You: Hold on, maybe I can impress him &#45;&#45; do *I* know what happened last time?</text>
</g>
<!-- 10&#45;&gt;15 -->
<g id="edge19" class="edge">
<title>10&#45;&gt;15</title>
<path fill="none" stroke="black" d="M4154.99,-1007.61C4185.79,-997.89 4224.36,-985.73 4256.65,-975.55"/>
<polygon fill="black" stroke="black" points="4257.41,-978.98 4265.89,-972.64 4255.3,-972.31 4257.41,-978.98"/>
</g>
<!-- 11 -->
<g id="node12" class="node">
<title>11</title>
<ellipse fill="none" stroke="black" cx="3481.83" cy="-378" rx="244.81" ry="18"/>
<text text-anchor="middle" x="3481.83" y="-372.95" font-family="Times New Roman,serif" font-size="14.00">Kim Kitsuragi: &quot;Is that so, officer? I&#39;ll take you at your word.&quot;</text>
</g>
<!-- 12 -->
<g id="node13" class="node">
<title>12</title>
<ellipse fill="none" stroke="black" cx="3481.83" cy="-306" rx="134.26" ry="18"/>
<text text-anchor="middle" x="3481.83" y="-300.95" font-family="Times New Roman,serif" font-size="14.00">Esprit de Corps: Were you there?</text>
</g>
<!-- 11&#45;&gt;12 -->
<g id="edge20" class="edge">
<title>11&#45;&gt;12</title>
<path fill="none" stroke="black" d="M3481.83,-359.7C3481.83,-352.41 3481.83,-343.73 3481.83,-335.54"/>
<polygon fill="black" stroke="black" points="3485.33,-335.62 3481.83,-325.62 3478.33,-335.62 3485.33,-335.62"/>
</g>
<!-- 28 -->
<g id="node29" class="node">
<title>28</title>
<ellipse fill="none" stroke="black" cx="3481.83" cy="-234" rx="126.08" ry="18"/>
<text text-anchor="middle" x="3481.83" y="-228.95" font-family="Times New Roman,serif" font-size="14.00">Jump to: [more_of_stas_rajko]</text>
</g>
<!-- 12&#45;&gt;28 -->
<g id="edge21" class="edge">
<title>12&#45;&gt;28</title>
<path fill="none" stroke="black" d="M3481.83,-287.7C3481.83,-280.41 3481.83,-271.73 3481.83,-263.54"/>
<polygon fill="black" stroke="black" points="3485.33,-263.62 3481.83,-253.62 3478.33,-263.62 3485.33,-263.62"/>
</g>
<!-- 22 -->
<g id="node23" class="node">
<title>22</title>
<ellipse fill="none" stroke="black" cx="3467.83" cy="-738" rx="715.68" ry="18"/>
<text text-anchor="middle" x="3467.83" y="-732.95" font-family="Times New Roman,serif" font-size="14.00">Kim Kitsuragi: &quot;An old case from my precinct. A couple of Zsiemsk migrants saw a Stas&#45;Rajko stopped in the street, painted just like this: muddy brown. Murdered the driver on the spot.&quot;</text>
</g>
<!-- 13&#45;&gt;22 -->
<g id="edge22" class="edge">
<title>13&#45;&gt;22</title>
<path fill="none" stroke="black" d="M3666.31,-792.85C3629.67,-782.91 3582.35,-770.07 3543.11,-759.43"/>
<polygon fill="black" stroke="black" points="3544.04,-756.05 3533.47,-756.81 3542.2,-762.81 3544.04,-756.05"/>
</g>
<!-- 14 -->
<g id="node15" class="node">
<title>14</title>
<ellipse fill="none" stroke="black" cx="1740.83" cy="-234" rx="365.09" ry="18"/>
<text text-anchor="middle" x="1740.83" y="-228.95" font-family="Times New Roman,serif" font-size="14.00">Kim Kitsuragi: &quot;You sure you&#39;re not Zsiemsk?&quot; He shares a smile with you, only for a second.</text>
</g>
<!-- 16 -->
<g id="node17" class="node">
<title>16</title>
<ellipse fill="none" stroke="black" cx="1740.83" cy="-162" rx="473.59" ry="18"/>
<text text-anchor="middle" x="1740.83" y="-156.95" font-family="Times New Roman,serif" font-size="14.00">Encyclopedia: Yes, you&#39;re sure you&#39;re not! Or if you are, it&#39;s only in that Revacholian way. (Four to five percent maximum.)</text>
</g>
<!-- 14&#45;&gt;16 -->
<g id="edge23" class="edge">
<title>14&#45;&gt;16</title>
<path fill="none" stroke="black" d="M1740.83,-215.7C1740.83,-208.41 1740.83,-199.73 1740.83,-191.54"/>
<polygon fill="black" stroke="black" points="1744.33,-191.62 1740.83,-181.62 1737.33,-191.62 1744.33,-191.62"/>
</g>
<!-- 15&#45;&gt;2 -->
<g id="edge24" class="edge">
<title>15&#45;&gt;2</title>
<path fill="none" stroke="black" d="M4376.42,-935.79C4407.1,-926.11 4445.61,-913.97 4477.96,-903.77"/>
<polygon fill="black" stroke="black" points="4478.75,-907.19 4487.23,-900.85 4476.64,-900.51 4478.75,-907.19"/>
</g>
<!-- 17 -->
<g id="node18" class="node">
<title>17</title>
<ellipse fill="none" stroke="black" cx="4135.83" cy="-594" rx="519.14" ry="18"/>
<text text-anchor="middle" x="4135.83" y="-588.95" font-family="Times New Roman,serif" font-size="14.00">Encyclopedia: Correction: four&#45;thousand&#45;three&#45;hundred&#45;and&#45;ninety&#45;five. The fourth largest public protest of a criminal trial in Revachol.</text>
</g>
<!-- 17&#45;&gt;4 -->
<g id="edge25" class="edge">
<title>17&#45;&gt;4</title>
<path fill="none" stroke="black" d="M4135.83,-575.7C4135.83,-568.41 4135.83,-559.73 4135.83,-551.54"/>
<polygon fill="black" stroke="black" points="4139.33,-551.62 4135.83,-541.62 4132.33,-551.62 4139.33,-551.62"/>
</g>
<!-- 18&#45;&gt;11 -->
<g id="edge26" class="edge">
<title>18&#45;&gt;11</title>
<path fill="none" stroke="black" d="M3481.83,-431.7C3481.83,-424.41 3481.83,-415.73 3481.83,-407.54"/>
<polygon fill="black" stroke="black" points="3485.33,-407.62 3481.83,-397.62 3478.33,-407.62 3485.33,-407.62"/>
</g>
<!-- 19 -->
<g id="node20" class="node">
<title>19</title>
<ellipse fill="none" stroke="black" cx="4899.83" cy="-666" rx="697.77" ry="18"/>
<text text-anchor="middle" x="4899.83" y="-660.95" font-family="Times New Roman,serif" font-size="14.00">Kim Kitsuragi: &quot;They said it was an honour killing. Hussar&#45;style. The Zsiemsk community protested the trial, flying the colours.&quot; He shakes his head. &quot;Five thousand came to protest.&quot;</text>
</g>
<!-- 19&#45;&gt;17 -->
<g id="edge27" class="edge">
<title>19&#45;&gt;17</title>
<path fill="none" stroke="black" d="M4716.35,-648.19C4598.3,-637.37 4445.23,-623.35 4325.91,-612.42"/>
<polygon fill="black" stroke="black" points="4326.26,-608.93 4315.98,-611.51 4325.62,-615.9 4326.26,-608.93"/>
</g>
<!-- 20 -->
<g id="node21" class="node">
<title>20</title>
<ellipse fill="none" stroke="black" cx="3458.83" cy="-162" rx="126.08" ry="18"/>
<text text-anchor="middle" x="3458.83" y="-156.95" font-family="Times New Roman,serif" font-size="14.00">Jump to: [more_of_stas_rajko]</text>
</g>
<!-- 20&#45;&gt;4 -->
<g id="edge28" class="edge">
<title>20&#45;&gt;4</title>
<path fill="none" stroke="black" d="M3579.87,-167.26C3749.55,-180.53 4052.8,-232.59 4190.83,-432 4199.93,-445.16 4197.09,-453.28 4190.83,-468 4186.16,-478.98 4177.98,-488.79 4169.32,-496.9"/>
<polygon fill="black" stroke="black" points="4167.05,-494.24 4161.78,-503.43 4171.63,-499.53 4167.05,-494.24"/>
</g>
<!-- 21 -->
<g id="node22" class="node">
<title>21</title>
<ellipse fill="none" stroke="black" cx="3045.83" cy="-1098" rx="237.65" ry="18"/>
<text text-anchor="middle" x="3045.83" y="-1092.95" font-family="Times New Roman,serif" font-size="14.00">You: What a beautiful motor carriage! I want to know more!</text>
</g>
<!-- 41 -->
<g id="node41" class="node">
<title>41</title>
<ellipse fill="none" stroke="black" cx="2650.83" cy="-1026" rx="776.58" ry="18"/>
<text text-anchor="middle" x="2650.83" y="-1020.95" font-family="Times New Roman,serif" font-size="14.00">Encyclopedia: Glad to share! The value of the motor carriage has been seriously diminished by its colour: all Stas&#45;Rajkos are baby&#45;blue by default. The paint would be considered unforgivable to collectors.</text>
</g>
<!-- 21&#45;&gt;41 -->
<g id="edge29" class="edge">
<title>21&#45;&gt;41</title>
<path fill="none" stroke="black" d="M2955.21,-1080.94C2897.1,-1070.64 2821.33,-1057.21 2759.92,-1046.33"/>
<polygon fill="black" stroke="black" points="2760.58,-1042.89 2750.12,-1044.6 2759.36,-1049.79 2760.58,-1042.89"/>
</g>
<!-- 37 -->
<g id="node37" class="node">
<title>37</title>
<ellipse fill="none" stroke="black" cx="3372.83" cy="-666" rx="811.39" ry="18"/>
<text text-anchor="middle" x="3372.83" y="-660.95" font-family="Times New Roman,serif" font-size="14.00">Kim Kitsuragi: &quot;They said it was an honour killing. Hussar&#45;style. The Zsiemsk community protested the trial, flying the banners of some old king or whatever.&quot; He shakes his head. &quot;Five thousand came to protest.&quot;</text>
</g>
<!-- 22&#45;&gt;37 -->
<g id="edge30" class="edge">
<title>22&#45;&gt;37</title>
<path fill="none" stroke="black" d="M3444.35,-719.7C3432.58,-711.03 3418.16,-700.4 3405.35,-690.96"/>
<polygon fill="black" stroke="black" points="3407.72,-688.36 3397.59,-685.24 3403.56,-693.99 3407.72,-688.36"/>
</g>
<!-- 23 -->
<g id="node24" class="node">
<title>23</title>
<ellipse fill="none" stroke="black" cx="5837.83" cy="-1098" rx="126.59" ry="18"/>
<text text-anchor="middle" x="5837.83" y="-1092.95" font-family="Times New Roman,serif" font-size="14.00">You: Hold up. Is this a tractor?</text>
</g>
<!-- 25 -->
<g id="node26" class="node">
<title>25</title>
<ellipse fill="none" stroke="black" cx="5524.83" cy="-1026" rx="752.53" ry="18"/>
<text text-anchor="middle" x="5524.83" y="-1020.95" font-family="Times New Roman,serif" font-size="14.00">Encyclopedia: Yes, built like a tractor. And used as one too in the Zsiemsk countryside! Take note of the Eight Antler emblem, the symbol of the Stas&#45;Rajko. Proudly born to honour its humble roots.</text>
</g>
<!-- 23&#45;&gt;25 -->
<g id="edge31" class="edge">
<title>23&#45;&gt;25</title>
<path fill="none" stroke="black" d="M5771.83,-1082.24C5725.89,-1071.97 5664.1,-1058.15 5613.82,-1046.9"/>
<polygon fill="black" stroke="black" points="5614.62,-1043.49 5604.09,-1044.73 5613.09,-1050.33 5614.62,-1043.49"/>
</g>
<!-- 26 -->
<g id="node27" class="node">
<title>26</title>
<ellipse fill="none" stroke="black" cx="2730.83" cy="-234" rx="606.66" ry="18"/>
<text text-anchor="middle" x="2730.83" y="-228.95" font-family="Times New Roman,serif" font-size="14.00">Logic: The prisons in the Greater Revachol Industrial Harbour are already full. Prisoners are expensive to maintain. The longer the sentence, the larger the cost.</text>
</g>
<!-- 24&#45;&gt;26 -->
<g id="edge32" class="edge">
<title>24&#45;&gt;26</title>
<path fill="none" stroke="black" d="M2524.56,-287.7C2563.09,-277.85 2611.54,-265.47 2651.8,-255.19"/>
<polygon fill="black" stroke="black" points="2652.64,-258.59 2661.46,-252.72 2650.91,-251.81 2652.64,-258.59"/>
</g>
<!-- 40 -->
<g id="node40" class="node">
<title>40</title>
<ellipse fill="none" stroke="black" cx="5914.83" cy="-954" rx="89.74" ry="18"/>
<text text-anchor="middle" x="5914.83" y="-948.95" font-family="Times New Roman,serif" font-size="14.00">Jump to: [stas_rajko]</text>
</g>
<!-- 25&#45;&gt;40 -->
<g id="edge33" class="edge">
<title>25&#45;&gt;40</title>
<path fill="none" stroke="black" d="M5621.23,-1007.7C5688.12,-995.69 5776.02,-979.91 5838.15,-968.76"/>
<polygon fill="black" stroke="black" points="5838.72,-972.22 5847.95,-967 5837.49,-965.33 5838.72,-972.22"/>
</g>
<!-- 26&#45;&gt;20 -->
<g id="edge34" class="edge">
<title>26&#45;&gt;20</title>
<path fill="none" stroke="black" d="M2904.74,-216.28C3041.24,-203.15 3227.31,-185.26 3345.27,-173.92"/>
<polygon fill="black" stroke="black" points="3345.35,-177.43 3354.97,-172.99 3344.68,-170.46 3345.35,-177.43"/>
</g>
<!-- 33 -->
<g id="node34" class="node">
<title>33</title>
<ellipse fill="none" stroke="black" cx="4851.83" cy="-738" rx="602.57" ry="18"/>
<text text-anchor="middle" x="4851.83" y="-732.95" font-family="Times New Roman,serif" font-size="14.00">Kim Kitsuragi: &quot;That&#39;s... Well, yes. Exactly it, more or less. Except it was a crowd of them. Tore him out of the vehicle and ran him over with his own tyres.&quot;</text>
</g>
<!-- 27&#45;&gt;33 -->
<g id="edge35" class="edge">
<title>27&#45;&gt;33</title>
<path fill="none" stroke="black" d="M4736.65,-791.7C4756.88,-782.44 4782,-770.95 4803.62,-761.06"/>
<polygon fill="black" stroke="black" points="4804.9,-764.32 4812.54,-756.98 4801.99,-757.95 4804.9,-764.32"/>
</g>
<!-- 28&#45;&gt;4 -->
<g id="edge36" class="edge">
<title>28&#45;&gt;4</title>
<path fill="none" stroke="black" d="M3395.64,-247.49C3234.45,-274.08 2913.84,-344.22 3031.83,-468 3066.36,-504.23 3777.96,-516.61 4040.03,-519.95"/>
<polygon fill="black" stroke="black" points="4039.86,-523.45 4049.9,-520.07 4039.95,-516.45 4039.86,-523.45"/>
</g>
<!-- 29 -->
<g id="node30" class="node">
<title>29</title>
<ellipse fill="none" stroke="black" cx="4918.83" cy="-234" rx="160.88" ry="18"/>
<text text-anchor="middle" x="4918.83" y="-228.95" font-family="Times New Roman,serif" font-size="14.00">Variable[&quot;whirling.kim_briefing_done&quot;]</text>
</g>
<!-- 30 -->
<g id="node31" class="node">
<title>30</title>
<polygon fill="none" stroke="black" points="4759.83,-180 4532.31,-162 4759.83,-144 4987.34,-162 4759.83,-180"/>
<text text-anchor="middle" x="4759.83" y="-156.95" font-family="Times New Roman,serif" font-size="14.00">Variable[&quot;whirling.kim_briefing_done&quot;]</text>
</g>
<!-- 29&#45;&gt;30 -->
<g id="edge37" class="edge">
<title>29&#45;&gt;30</title>
<path fill="none" stroke="black" d="M4880.34,-216.05C4857.2,-205.87 4827.68,-192.87 4803.65,-182.29"/>
<polygon fill="black" stroke="black" points="4805.33,-179.21 4794.77,-178.38 4802.51,-185.61 4805.33,-179.21"/>
</g>
<!-- 31 -->
<g id="node32" class="node">
<title>31</title>
<polygon fill="none" stroke="black" points="5830.83,-180 5590.28,-162 5830.83,-144 6071.37,-162 5830.83,-180"/>
<text text-anchor="middle" x="5830.83" y="-156.95" font-family="Times New Roman,serif" font-size="14.00">!(Variable[&quot;whirling.kim_briefing_done&quot;])</text>
</g>
<!-- 29&#45;&gt;31 -->
<g id="edge38" class="edge">
<title>29&#45;&gt;31</title>
<path fill="none" stroke="black" d="M5048.53,-223.05C5223,-209.65 5531.3,-185.99 5704.19,-172.72"/>
<polygon fill="black" stroke="black" points="5704.42,-176.21 5714.12,-171.96 5703.89,-169.23 5704.42,-176.21"/>
</g>
<!-- 30&#45;&gt;3 -->
<g id="edge39" class="edge">
<title>30&#45;&gt;3</title>
<path fill="none" stroke="black" d="M4705.06,-147.92C4661.64,-137.54 4600.22,-122.87 4550.62,-111.02"/>
<polygon fill="black" stroke="black" points="4551.59,-107.65 4541.06,-108.73 4549.97,-114.46 4551.59,-107.65"/>
</g>
<!-- 36 -->
<g id="node36" class="node">
<title>36</title>
<ellipse fill="none" stroke="black" cx="6123.83" cy="-90" rx="808.83" ry="18"/>
<text text-anchor="middle" x="6123.83" y="-84.95" font-family="Times New Roman,serif" font-size="14.00">Kim Kitsuragi: &quot;Could it be another Stas&#45;Rajko murder?&quot; He gives you a crooked smile. &quot;You really should ask me to brief you on the case. But right now I&#39;m just gonna go ahead and guess the two aren&#39;t related.&quot;</text>
</g>
<!-- 31&#45;&gt;36 -->
<g id="edge40" class="edge">
<title>31&#45;&gt;36</title>
<path fill="none" stroke="black" d="M5886.28,-147.75C5929.7,-137.38 5990.8,-122.78 6040.16,-110.99"/>
<polygon fill="black" stroke="black" points="6040.75,-114.45 6049.67,-108.72 6039.13,-107.64 6040.75,-114.45"/>
</g>
<!-- 57 -->
<g id="node57" class="node">
<title>57</title>
<ellipse fill="none" stroke="black" cx="5275.83" cy="-378" rx="388.12" ry="18"/>
<text text-anchor="middle" x="5275.83" y="-372.95" font-family="Times New Roman,serif" font-size="14.00">Kim Kitsuragi: &quot;People we&#39;re paid to protect.&quot; The lieutenant shakes his head. &quot;Let&#39;s leave it at that.&quot;</text>
</g>
<!-- 32&#45;&gt;57 -->
<g id="edge41" class="edge">
<title>32&#45;&gt;57</title>
<path fill="none" stroke="black" d="M5180.65,-431.88C5196.85,-422.88 5216.93,-411.72 5234.47,-401.98"/>
<polygon fill="black" stroke="black" points="5236.08,-405.08 5243.12,-397.17 5232.68,-398.97 5236.08,-405.08"/>
</g>
<!-- 33&#45;&gt;19 -->
<g id="edge42" class="edge">
<title>33&#45;&gt;19</title>
<path fill="none" stroke="black" d="M4863.69,-719.7C4869.1,-711.81 4875.62,-702.3 4881.62,-693.55"/>
<polygon fill="black" stroke="black" points="4884.47,-695.58 4887.24,-685.35 4878.7,-691.62 4884.47,-695.58"/>
</g>
<!-- 35 -->
<g id="node35" class="node">
<title>35</title>
<ellipse fill="none" stroke="black" cx="1740.83" cy="-306" rx="160.37" ry="18"/>
<text text-anchor="middle" x="1740.83" y="-300.95" font-family="Times New Roman,serif" font-size="14.00">You: &quot;They should&#39;ve left it baby&#45;blue.&quot;</text>
</g>
<!-- 35&#45;&gt;14 -->
<g id="edge43" class="edge">
<title>35&#45;&gt;14</title>
<path fill="none" stroke="black" d="M1740.83,-287.7C1740.83,-280.41 1740.83,-271.73 1740.83,-263.54"/>
<polygon fill="black" stroke="black" points="1744.33,-263.62 1740.83,-253.62 1737.33,-263.62 1744.33,-263.62"/>
</g>
<!-- 36&#45;&gt;6 -->
<g id="edge44" class="edge">
<title>36&#45;&gt;6</title>
<path fill="none" stroke="black" d="M5923.41,-72.08C5763.6,-58.58 5545.26,-40.15 5412.46,-28.93"/>
<polygon fill="black" stroke="black" points="5412.83,-25.45 5402.57,-28.1 5412.24,-32.43 5412.83,-25.45"/>
</g>
<!-- 37&#45;&gt;17 -->
<g id="edge45" class="edge">
<title>37&#45;&gt;17</title>
<path fill="none" stroke="black" d="M3558.02,-648.01C3675.74,-637.21 3827.73,-623.27 3946.28,-612.39"/>
<polygon fill="black" stroke="black" points="3946.5,-615.88 3956.14,-611.48 3945.86,-608.91 3946.5,-615.88"/>
</g>
<!-- 38&#45;&gt;7 -->
<g id="edge46" class="edge">
<title>38&#45;&gt;7</title>
<path fill="none" stroke="black" d="M5909.9,-1295.7C5907.34,-1288.24 5904.28,-1279.32 5901.42,-1270.97"/>
<polygon fill="black" stroke="black" points="5904.74,-1269.86 5898.18,-1261.54 5898.12,-1272.13 5904.74,-1269.86"/>
</g>
<!-- 39 -->
<g id="node39" class="node">
<title>39</title>
<ellipse fill="none" stroke="black" cx="1740.83" cy="-378" rx="134.26" ry="18"/>
<text text-anchor="middle" x="1740.83" y="-372.95" font-family="Times New Roman,serif" font-size="14.00">Kim Kitsuragi: &quot;Yes, detective?&quot;</text>
</g>
<!-- 39&#45;&gt;35 -->
<g id="edge47" class="edge">
<title>39&#45;&gt;35</title>
<path fill="none" stroke="black" d="M1740.83,-359.7C1740.83,-352.41 1740.83,-343.73 1740.83,-335.54"/>
<polygon fill="black" stroke="black" points="1744.33,-335.62 1740.83,-325.62 1737.33,-335.62 1744.33,-335.62"/>
</g>
<!-- 43 -->
<g id="node43" class="node">
<title>43</title>
<ellipse fill="none" stroke="black" cx="1028.83" cy="-306" rx="184.93" ry="18"/>
<text text-anchor="middle" x="1028.83" y="-300.95" font-family="Times New Roman,serif" font-size="14.00">You: &quot;I think it looks better brown and black.&quot;</text>
</g>
<!-- 39&#45;&gt;43 -->
<g id="edge48" class="edge">
<title>39&#45;&gt;43</title>
<path fill="none" stroke="black" d="M1635,-366.6C1510.66,-354.37 1303.99,-334.05 1167.08,-320.59"/>
<polygon fill="black" stroke="black" points="1167.5,-317.12 1157.21,-319.62 1166.82,-324.08 1167.5,-317.12"/>
</g>
<!-- 40&#45;&gt;51 -->
<g id="edge49" class="edge">
<title>40&#45;&gt;51</title>
<path fill="none" stroke="black" d="M6004.63,-954.83C6102.82,-956.78 6251.02,-966.73 6286.83,-1008 6297.31,-1020.09 6296.48,-1031.24 6286.83,-1044 6239.95,-1105.94 6008.77,-1145.89 5900.26,-1161.53"/>
<polygon fill="black" stroke="black" points="5899.81,-1158.06 5890.4,-1162.93 5900.8,-1164.99 5899.81,-1158.06"/>
</g>
<!-- 52 -->
<g id="node52" class="node">
<title>52</title>
<ellipse fill="none" stroke="black" cx="2650.83" cy="-954" rx="671.66" ry="18"/>
<text text-anchor="middle" x="2650.83" y="-948.95" font-family="Times New Roman,serif" font-size="14.00">Encyclopedia: Zaffer blue was also the colour Zygismunt the Great used for his banners... Strange. This is really all you know about the Stas&#45;Rajko. And ancient Zsiemsk rulers.</text>
</g>
<!-- 41&#45;&gt;52 -->
<g id="edge50" class="edge">
<title>41&#45;&gt;52</title>
<path fill="none" stroke="black" d="M2650.83,-1007.7C2650.83,-1000.41 2650.83,-991.73 2650.83,-983.54"/>
<polygon fill="black" stroke="black" points="2654.33,-983.62 2650.83,-973.62 2647.33,-983.62 2654.33,-983.62"/>
</g>
<!-- 42&#45;&gt;39 -->
<g id="edge51" class="edge">
<title>42&#45;&gt;39</title>
<path fill="none" stroke="black" d="M1849.99,-431.7C1830.61,-422.35 1806.51,-410.71 1785.88,-400.75"/>
<polygon fill="black" stroke="black" points="1787.65,-397.72 1777.12,-396.52 1784.61,-404.02 1787.65,-397.72"/>
</g>
<!-- 44 -->
<g id="node44" class="node">
<title>44</title>
<ellipse fill="none" stroke="black" cx="678.83" cy="-234" rx="678.83" ry="18"/>
<text text-anchor="middle" x="678.83" y="-228.95" font-family="Times New Roman,serif" font-size="14.00">Kim Kitsuragi: &quot;Okay.&quot; The lieutenant takes his glasses off to polish. &quot;I&#39;m not going to honour kill anyone over this &#45;&#45; but I&#39;ve *seen* it blue and white. It&#39;s much better that way.&quot;</text>
</g>
<!-- 43&#45;&gt;44 -->
<g id="edge52" class="edge">
<title>43&#45;&gt;44</title>
<path fill="none" stroke="black" d="M950.28,-289.29C898.9,-279.01 831.39,-265.51 776.54,-254.54"/>
<polygon fill="black" stroke="black" points="777.37,-251.14 766.88,-252.61 776,-258 777.37,-251.14"/>
</g>
<!-- 45 -->
<g id="node45" class="node">
<title>45</title>
<ellipse fill="none" stroke="black" cx="2886.83" cy="-90" rx="732.57" ry="18"/>
<text text-anchor="middle" x="2886.83" y="-84.95" font-family="Times New Roman,serif" font-size="14.00">Kim Kitsuragi: &quot;I try to avoid drawing far&#45;gone conclusions like this before actually examining the body,&quot; the lieutenant says with a slight smirk. &quot;But my initial guess is the two are unrelated.&quot;</text>
</g>
<!-- 45&#45;&gt;6 -->
<g id="edge53" class="edge">
<title>45&#45;&gt;6</title>
<path fill="none" stroke="black" d="M3347.2,-75.62C3907.24,-59.34 4820.1,-32.8 5160.92,-22.89"/>
<polygon fill="black" stroke="black" points="5160.9,-26.39 5170.79,-22.61 5160.7,-19.4 5160.9,-26.39"/>
</g>
<!-- 47 -->
<g id="node47" class="node">
<title>47</title>
<ellipse fill="none" stroke="black" cx="4850.83" cy="-1098" rx="134.26" ry="18"/>
<text text-anchor="middle" x="4850.83" y="-1092.95" font-family="Times New Roman,serif" font-size="14.00">You: &quot;Hey Kim, check this out!&quot;</text>
</g>
<!-- 47&#45;&gt;10 -->
<g id="edge54" class="edge">
<title>47&#45;&gt;10</title>
<path fill="none" stroke="black" d="M4743.23,-1086.97C4625.43,-1075.99 4434.25,-1058.17 4290.84,-1044.8"/>
<polygon fill="black" stroke="black" points="4291.51,-1041.35 4281.23,-1043.91 4290.87,-1048.32 4291.51,-1041.35"/>
</g>
<!-- 48&#45;&gt;5 -->
<g id="edge55" class="edge">
<title>48&#45;&gt;5</title>
<path fill="none" stroke="black" d="M2636.05,-431.88C2618.53,-422.72 2596.74,-411.34 2577.87,-401.48"/>
<polygon fill="black" stroke="black" points="2579.56,-398.42 2569.08,-396.89 2576.32,-404.62 2579.56,-398.42"/>
</g>
<!-- 49 -->
<g id="node49" class="node">
<title>49</title>
<ellipse fill="none" stroke="black" cx="5279.83" cy="-306" rx="126.08" ry="18"/>
<text text-anchor="middle" x="5279.83" y="-300.95" font-family="Times New Roman,serif" font-size="14.00">Jump to: [more_of_stas_rajko]</text>
</g>
<!-- 49&#45;&gt;4 -->
<g id="edge56" class="edge">
<title>49&#45;&gt;4</title>
<path fill="none" stroke="black" d="M5188.31,-318.68C5071.01,-333.7 4882.21,-358.11 4878.83,-360 4824.77,-390.19 4845.64,-439.19 4790.83,-468 4742.46,-493.42 4399.59,-510.48 4230.15,-517.45"/>
<polygon fill="black" stroke="black" points="4230.11,-513.95 4220.26,-517.86 4230.39,-520.94 4230.11,-513.95"/>
</g>
<!-- 51&#45;&gt;21 -->
<g id="edge58" class="edge">
<title>51&#45;&gt;21</title>
<path fill="none" stroke="black" d="M5795.56,-1167.79C5496.39,-1160.31 3888.17,-1120.07 3279.47,-1104.85"/>
<polygon fill="black" stroke="black" points="3279.97,-1101.36 3269.88,-1104.61 3279.79,-1108.35 3279.97,-1101.36"/>
</g>
<!-- 51&#45;&gt;23 -->
<g id="edge60" class="edge">
<title>51&#45;&gt;23</title>
<path fill="none" stroke="black" d="M5842.35,-1151.7C5841.72,-1144.41 5840.98,-1135.73 5840.27,-1127.54"/>
<polygon fill="black" stroke="black" points="5843.76,-1127.28 5839.42,-1117.61 5836.79,-1127.87 5843.76,-1127.28"/>
</g>
<!-- 51&#45;&gt;46 -->
<g id="edge59" class="edge">
<title>51&#45;&gt;46</title>
<path fill="none" stroke="black" d="M5890.53,-1164.73C5997.64,-1154.93 6265.31,-1130.43 6441.92,-1114.27"/>
<polygon fill="black" stroke="black" points="6442.01,-1117.78 6451.65,-1113.38 6441.37,-1110.81 6442.01,-1117.78"/>
</g>
<!-- 51&#45;&gt;47 -->
<g id="edge57" class="edge">
<title>51&#45;&gt;47</title>
<path fill="none" stroke="black" d="M5796.6,-1165.67C5650.37,-1155.36 5201.52,-1123.72 4978.85,-1108.02"/>
<polygon fill="black" stroke="black" points="4979.17,-1104.54 4968.95,-1107.33 4978.68,-1111.52 4979.17,-1104.54"/>
</g>
<!-- 53 -->
<g id="node53" class="node">
<title>53</title>
<ellipse fill="none" stroke="black" cx="4509.83" cy="-378" rx="153.2" ry="18"/>
<text text-anchor="middle" x="4509.83" y="-372.95" font-family="Times New Roman,serif" font-size="14.00">Variable[&quot;yard.hanged_hub_reached&quot;]</text>
</g>
<!-- 54 -->
<g id="node54" class="node">
<title>54</title>
<polygon fill="none" stroke="black" points="4918.83,-324 4702.17,-306 4918.83,-288 5135.49,-306 4918.83,-324"/>
<text text-anchor="middle" x="4918.83" y="-300.95" font-family="Times New Roman,serif" font-size="14.00">Variable[&quot;yard.hanged_hub_reached&quot;]</text>
</g>
<!-- 53&#45;&gt;54 -->
<g id="edge61" class="edge">
<title>53&#45;&gt;54</title>
<path fill="none" stroke="black" d="M4594.08,-362.58C4666,-350.27 4768.69,-332.7 4839.24,-320.62"/>
<polygon fill="black" stroke="black" points="4839.52,-324.13 4848.78,-318.99 4838.33,-317.23 4839.52,-324.13"/>
</g>
<!-- 55 -->
<g id="node55" class="node">
<title>55</title>
<polygon fill="none" stroke="black" points="4454.83,-324 4225.14,-306 4454.83,-288 4684.52,-306 4454.83,-324"/>
<text text-anchor="middle" x="4454.83" y="-300.95" font-family="Times New Roman,serif" font-size="14.00">!(Variable[&quot;yard.hanged_hub_reached&quot;])</text>
</g>
<!-- 53&#45;&gt;55 -->
<g id="edge62" class="edge">
<title>53&#45;&gt;55</title>
<path fill="none" stroke="black" d="M4496.23,-359.7C4489.72,-351.4 4481.79,-341.31 4474.62,-332.19"/>
<polygon fill="black" stroke="black" points="4477.38,-330.04 4468.45,-324.33 4471.87,-334.36 4477.38,-330.04"/>
</g>
<!-- 54&#45;&gt;29 -->
<g id="edge63" class="edge">
<title>54&#45;&gt;29</title>
<path fill="none" stroke="black" d="M4918.83,-287.7C4918.83,-280.41 4918.83,-271.73 4918.83,-263.54"/>
<polygon fill="black" stroke="black" points="4922.33,-263.62 4918.83,-253.62 4915.33,-263.62 4922.33,-263.62"/>
</g>
<!-- 55&#45;&gt;45 -->
<g id="edge64" class="edge">
<title>55&#45;&gt;45</title>
<path fill="none" stroke="black" d="M4422.04,-290.24C4375.89,-270.12 4288.7,-234.48 4210.83,-216 3938.42,-151.37 3627.02,-119.92 3374.68,-104.72"/>
<polygon fill="black" stroke="black" points="3375.17,-101.24 3364.98,-104.14 3374.75,-108.23 3375.17,-101.24"/>
</g>
<!-- 56&#45;&gt;53 -->
<g id="edge65" class="edge">
<title>56&#45;&gt;53</title>
<path fill="none" stroke="black" d="M4509.83,-431.7C4509.83,-424.41 4509.83,-415.73 4509.83,-407.54"/>
<polygon fill="black" stroke="black" points="4513.33,-407.62 4509.83,-397.62 4506.33,-407.62 4513.33,-407.62"/>
</g>
<!-- 57&#45;&gt;49 -->
<g id="edge66" class="edge">
<title>57&#45;&gt;49</title>
<path fill="none" stroke="black" d="M5276.82,-359.7C5277.23,-352.41 5277.73,-343.73 5278.2,-335.54"/>
<polygon fill="black" stroke="black" points="5281.69,-335.8 5278.76,-325.62 5274.7,-335.4 5281.69,-335.8"/>
</g>
</g>
</svg>
