<?xml version="1.0" encoding="UTF-8" standalone="no"?>
<!DOCTYPE svg PUBLIC "-//W3C//DTD SVG 1.1//EN"
 "http://www.w3.org/Graphics/SVG/1.1/DTD/svg11.dtd">
<!-- Generated by graphviz version 12.2.1 (20241206.2353)
 -->
<!-- Title: G Pages: 1 -->
<svg width="4843pt" height="764pt"
 viewBox="0.00 0.00 4843.04 764.00" xmlns="http://www.w3.org/2000/svg" xmlns:xlink="http://www.w3.org/1999/xlink">
<g id="graph0" class="graph" transform="scale(1 1) rotate(0) translate(4 760)">
<title>G</title>
<polygon fill="white" stroke="none" points="-4,4 -4,-760 4839.04,-760 4839.04,4 -4,4"/>
<!-- 0 -->
<g id="node1" class="node">
<title>0</title>
<ellipse fill="none" stroke="black" cx="666.46" cy="-738" rx="39.07" ry="18"/>
<text text-anchor="middle" x="666.46" y="-732.95" font-family="Times New Roman,serif" font-size="14.00">START</text>
</g>
<!-- 0&#45;&gt;0 -->
<g id="edge1" class="edge">
<title>0&#45;&gt;0</title>
<path fill="none" stroke="black" d="M694.65,-750.94C709.76,-753.14 723.53,-748.83 723.53,-738 723.53,-729.96 715.94,-725.52 705.86,-724.65"/>
<polygon fill="black" stroke="black" points="706.03,-721.15 696.16,-725 706.28,-728.14 706.03,-721.15"/>
</g>
<!-- 1 -->
<g id="node2" class="node">
<title>1</title>
<ellipse fill="none" stroke="black" cx="2240.46" cy="-378" rx="29.86" ry="18"/>
<text text-anchor="middle" x="2240.46" y="-372.95" font-family="Times New Roman,serif" font-size="14.00">input</text>
</g>
<!-- 9 -->
<g id="node10" class="node">
<title>9</title>
<ellipse fill="none" stroke="black" cx="2240.46" cy="-306" rx="107.65" ry="18"/>
<text text-anchor="middle" x="2240.46" y="-300.95" font-family="Times New Roman,serif" font-size="14.00">Encyclopedia: Then don&#39;t.</text>
</g>
<!-- 1&#45;&gt;9 -->
<g id="edge2" class="edge">
<title>1&#45;&gt;9</title>
<path fill="none" stroke="black" d="M2240.46,-359.7C2240.46,-352.41 2240.46,-343.73 2240.46,-335.54"/>
<polygon fill="black" stroke="black" points="2243.96,-335.62 2240.46,-325.62 2236.96,-335.62 2243.96,-335.62"/>
</g>
<!-- 2 -->
<g id="node3" class="node">
<title>2</title>
<ellipse fill="none" stroke="black" cx="1278.46" cy="-738" rx="536.55" ry="18"/>
<text text-anchor="middle" x="1278.46" y="-732.95" font-family="Times New Roman,serif" font-size="14.00">Kim Kitsuragi: &quot;Did you see that?&quot; The lieutenant nods towards the vehicle. &quot;The seals on the humanitarian aid lorry have been broken off.&quot;</text>
</g>
<!-- 17 -->
<g id="node18" class="node">
<title>17</title>
<ellipse fill="none" stroke="black" cx="677.46" cy="-666" rx="194.15" ry="18"/>
<text text-anchor="middle" x="677.46" y="-660.95" font-family="Times New Roman,serif" font-size="14.00">You: &quot;I have a feeling Siileng&#39;s involved in this.&quot;</text>
</g>
<!-- 2&#45;&gt;17 -->
<g id="edge3" class="edge">
<title>2&#45;&gt;17</title>
<path fill="none" stroke="black" d="M1134.12,-720.19C1034.24,-708.55 902.47,-693.21 806.16,-681.99"/>
<polygon fill="black" stroke="black" points="806.73,-678.53 796.39,-680.85 805.92,-685.49 806.73,-678.53"/>
</g>
<!-- 33 -->
<g id="node34" class="node">
<title>33</title>
<ellipse fill="none" stroke="black" cx="1139.46" cy="-666" rx="249.42" ry="18"/>
<text text-anchor="middle" x="1139.46" y="-660.95" font-family="Times New Roman,serif" font-size="14.00">You: &quot;I did see it, yes. Let&#39;s better not jump to any conclusion.&quot;</text>
</g>
<!-- 2&#45;&gt;33 -->
<g id="edge5" class="edge">
<title>2&#45;&gt;33</title>
<path fill="none" stroke="black" d="M1244.1,-719.7C1225.84,-710.5 1203.18,-699.09 1183.62,-689.24"/>
<polygon fill="black" stroke="black" points="1185.28,-686.16 1174.78,-684.79 1182.13,-692.41 1185.28,-686.16"/>
</g>
<!-- 42 -->
<g id="node43" class="node">
<title>42</title>
<ellipse fill="none" stroke="black" cx="1664.46" cy="-666" rx="153.71" ry="18"/>
<text text-anchor="middle" x="1664.46" y="-660.95" font-family="Times New Roman,serif" font-size="14.00">You: &quot;Looks like someone&#39;s stealing.&quot;</text>
</g>
<!-- 2&#45;&gt;42 -->
<g id="edge4" class="edge">
<title>2&#45;&gt;42</title>
<path fill="none" stroke="black" d="M1372.89,-719.88C1433.61,-708.86 1512.13,-694.62 1572.38,-683.7"/>
<polygon fill="black" stroke="black" points="1572.71,-687.2 1581.93,-681.97 1571.46,-680.31 1572.71,-687.2"/>
</g>
<!-- 3 -->
<g id="node4" class="node">
<title>3</title>
<ellipse fill="none" stroke="black" cx="3038.46" cy="-378" rx="617.92" ry="18"/>
<text text-anchor="middle" x="3038.46" y="-372.95" font-family="Times New Roman,serif" font-size="14.00">Kim Kitsuragi: &quot;Yes, absolutely,&quot; he agrees, while his eyes turn to the traffic jam. &quot;But I suggest we keep our eyes open around that streethawker we met before.&quot;</text>
</g>
<!-- 4 -->
<g id="node5" class="node">
<title>4</title>
<ellipse fill="none" stroke="black" cx="3731.46" cy="-378" rx="57.49" ry="18"/>
<text text-anchor="middle" x="3731.46" y="-372.95" font-family="Times New Roman,serif" font-size="14.00">Untitled hub</text>
</g>
<!-- 21 -->
<g id="node22" class="node">
<title>21</title>
<ellipse fill="none" stroke="black" cx="3143.46" cy="-306" rx="233.56" ry="18"/>
<text text-anchor="middle" x="3143.46" y="-300.95" font-family="Times New Roman,serif" font-size="14.00">You: &quot;Humanox... This stands for humanitarian aid, right?&quot;</text>
</g>
<!-- 4&#45;&gt;21 -->
<g id="edge7" class="edge">
<title>4&#45;&gt;21</title>
<path fill="none" stroke="black" d="M3689.77,-365.25C3681.75,-363.28 3673.38,-361.41 3665.46,-360 3555.26,-340.33 3430.57,-327.33 3330.7,-319.13"/>
<polygon fill="black" stroke="black" points="3331.03,-315.65 3320.78,-318.33 3330.46,-322.62 3331.03,-315.65"/>
</g>
<!-- 26 -->
<g id="node27" class="node">
<title>26</title>
<ellipse fill="none" stroke="black" cx="3731.46" cy="-234" rx="367.14" ry="18"/>
<text text-anchor="middle" x="3731.46" y="-228.95" font-family="Times New Roman,serif" font-size="14.00">You: &quot;Oh my god, I&#39;m a legit genius. Here&#39;s proof that Siileng really was selling stolen goods!&quot;</text>
</g>
<!-- 4&#45;&gt;26 -->
<g id="edge6" class="edge">
<title>4&#45;&gt;26</title>
<path fill="none" stroke="black" d="M3731.46,-359.59C3731.46,-335.61 3731.46,-292.14 3731.46,-263.42"/>
<polygon fill="black" stroke="black" points="3734.96,-263.62 3731.46,-253.62 3727.96,-263.62 3734.96,-263.62"/>
</g>
<!-- 31 -->
<g id="node32" class="node">
<title>31</title>
<ellipse fill="none" stroke="black" cx="4055.46" cy="-306" rx="224.85" ry="18"/>
<text text-anchor="middle" x="4055.46" y="-300.95" font-family="Times New Roman,serif" font-size="14.00">You: &quot;Did you see that, Kim? It must be Siileng&#39;s truck.&quot;</text>
</g>
<!-- 4&#45;&gt;31 -->
<g id="edge8" class="edge">
<title>4&#45;&gt;31</title>
<path fill="none" stroke="black" d="M3774.64,-365.74C3782.55,-363.76 3790.74,-361.77 3798.46,-360 3852.11,-347.67 3912.37,-335.17 3961.05,-325.41"/>
<polygon fill="black" stroke="black" points="3961.6,-328.87 3970.72,-323.48 3960.23,-322 3961.6,-328.87"/>
</g>
<!-- 5 -->
<g id="node6" class="node">
<title>5</title>
<ellipse fill="none" stroke="black" cx="904.46" cy="-450" rx="95.88" ry="18"/>
<text text-anchor="middle" x="904.46" y="-444.95" font-family="Times New Roman,serif" font-size="14.00">You: Great! I&#39;m smart.</text>
</g>
<!-- 32 -->
<g id="node33" class="node">
<title>32</title>
<ellipse fill="none" stroke="black" cx="904.46" cy="-378" rx="72.34" ry="18"/>
<text text-anchor="middle" x="904.46" y="-372.95" font-family="Times New Roman,serif" font-size="14.00">Logic: Atta boy!</text>
</g>
<!-- 5&#45;&gt;32 -->
<g id="edge9" class="edge">
<title>5&#45;&gt;32</title>
<path fill="none" stroke="black" d="M904.46,-431.7C904.46,-424.41 904.46,-415.73 904.46,-407.54"/>
<polygon fill="black" stroke="black" points="907.96,-407.62 904.46,-397.62 900.96,-407.62 907.96,-407.62"/>
</g>
<!-- 6 -->
<g id="node7" class="node">
<title>6</title>
<ellipse fill="none" stroke="black" cx="4318.46" cy="-666" rx="516.58" ry="18"/>
<text text-anchor="middle" x="4318.46" y="-660.95" font-family="Times New Roman,serif" font-size="14.00">Kim Kitsuragi: &quot;Yes, absolutely,&quot; the lieutenant agrees, while his eyes scan the traffic jam. &quot;But let&#39;s keep our eyes open nevertheless.&quot;</text>
</g>
<!-- 7 -->
<g id="node8" class="node">
<title>7</title>
<ellipse fill="none" stroke="black" cx="1718.46" cy="-594" rx="261.7" ry="18"/>
<text text-anchor="middle" x="1718.46" y="-588.95" font-family="Times New Roman,serif" font-size="14.00">Logic: Someone here is stealing from a company called Humanox.</text>
</g>
<!-- 37 -->
<g id="node38" class="node">
<title>37</title>
<ellipse fill="none" stroke="black" cx="1724.46" cy="-522" rx="58.52" ry="18"/>
<text text-anchor="middle" x="1724.46" y="-516.95" font-family="Times New Roman,serif" font-size="14.00">IsKimHere()</text>
</g>
<!-- 7&#45;&gt;37 -->
<g id="edge10" class="edge">
<title>7&#45;&gt;37</title>
<path fill="none" stroke="black" d="M1719.94,-575.7C1720.57,-568.41 1721.31,-559.73 1722.01,-551.54"/>
<polygon fill="black" stroke="black" points="1725.5,-551.87 1722.86,-541.61 1718.52,-551.28 1725.5,-551.87"/>
</g>
<!-- 8 -->
<g id="node9" class="node">
<title>8</title>
<ellipse fill="none" stroke="black" cx="359.46" cy="-18" rx="359.46" ry="18"/>
<text text-anchor="middle" x="359.46" y="-12.95" font-family="Times New Roman,serif" font-size="14.00">Kim Kitsuragi: &quot;You may be right,&quot; he agrees, scanning the jam. &quot;Let&#39;s keep our eyes open.&quot;</text>
</g>
<!-- 10 -->
<g id="node11" class="node">
<title>10</title>
<ellipse fill="none" stroke="black" cx="3557.46" cy="-738" rx="159.85" ry="18"/>
<text text-anchor="middle" x="3557.46" y="-732.95" font-family="Times New Roman,serif" font-size="14.00">Variable[&quot;jam.siileng_called_him_out&quot;]</text>
</g>
<!-- 10&#45;&gt;10 -->
<g id="edge11" class="edge">
<title>10&#45;&gt;10</title>
<path fill="none" stroke="black" d="M3666.88,-751.5C3704.74,-751.64 3735.31,-747.14 3735.31,-738 3735.31,-729.79 3710.63,-725.32 3678.16,-724.6"/>
<polygon fill="black" stroke="black" points="3678.42,-721.11 3668.39,-724.52 3678.36,-728.11 3678.42,-721.11"/>
</g>
<!-- 11 -->
<g id="node12" class="node">
<title>11</title>
<polygon fill="none" stroke="black" points="3557.46,-684 3331.39,-666 3557.46,-648 3783.53,-666 3557.46,-684"/>
<text text-anchor="middle" x="3557.46" y="-660.95" font-family="Times New Roman,serif" font-size="14.00">Variable[&quot;jam.siileng_called_him_out&quot;]</text>
</g>
<!-- 10&#45;&gt;11 -->
<g id="edge12" class="edge">
<title>10&#45;&gt;11</title>
<path fill="none" stroke="black" d="M3557.46,-719.7C3557.46,-712.41 3557.46,-703.73 3557.46,-695.54"/>
<polygon fill="black" stroke="black" points="3560.96,-695.62 3557.46,-685.62 3553.96,-695.62 3560.96,-695.62"/>
</g>
<!-- 20 -->
<g id="node21" class="node">
<title>20</title>
<ellipse fill="none" stroke="black" cx="3557.46" cy="-594" rx="365.6" ry="18"/>
<text text-anchor="middle" x="3557.46" y="-588.95" font-family="Times New Roman,serif" font-size="14.00">Logic: You were right. That streethawker really *was* stealing from the back of his own truck.</text>
</g>
<!-- 11&#45;&gt;20 -->
<g id="edge13" class="edge">
<title>11&#45;&gt;20</title>
<path fill="none" stroke="black" d="M3557.46,-647.7C3557.46,-640.41 3557.46,-631.73 3557.46,-623.54"/>
<polygon fill="black" stroke="black" points="3560.96,-623.62 3557.46,-613.62 3553.96,-623.62 3560.96,-623.62"/>
</g>
<!-- 12 -->
<g id="node13" class="node">
<title>12</title>
<polygon fill="none" stroke="black" points="4318.46,-756 4079.36,-738 4318.46,-720 4557.56,-738 4318.46,-756"/>
<text text-anchor="middle" x="4318.46" y="-732.95" font-family="Times New Roman,serif" font-size="14.00">!(Variable[&quot;jam.siileng_called_him_out&quot;])</text>
</g>
<!-- 12&#45;&gt;6 -->
<g id="edge14" class="edge">
<title>12&#45;&gt;6</title>
<path fill="none" stroke="black" d="M4318.46,-719.7C4318.46,-712.41 4318.46,-703.73 4318.46,-695.54"/>
<polygon fill="black" stroke="black" points="4321.96,-695.62 4318.46,-685.62 4314.96,-695.62 4321.96,-695.62"/>
</g>
<!-- 13 -->
<g id="node14" class="node">
<title>13</title>
<ellipse fill="none" stroke="black" cx="1139.46" cy="-594" rx="168.04" ry="18"/>
<text text-anchor="middle" x="1139.46" y="-588.95" font-family="Times New Roman,serif" font-size="14.00">Variable[&quot;jam.siileng_mainhub_reached&quot;]</text>
</g>
<!-- 14 -->
<g id="node15" class="node">
<title>14</title>
<polygon fill="none" stroke="black" points="1410.46,-540 1172.81,-522 1410.46,-504 1648.11,-522 1410.46,-540"/>
<text text-anchor="middle" x="1410.46" y="-516.95" font-family="Times New Roman,serif" font-size="14.00">Variable[&quot;jam.siileng_mainhub_reached&quot;]</text>
</g>
<!-- 13&#45;&gt;14 -->
<g id="edge15" class="edge">
<title>13&#45;&gt;14</title>
<path fill="none" stroke="black" d="M1201.97,-576.85C1245.54,-565.6 1303.46,-550.64 1347.2,-539.34"/>
<polygon fill="black" stroke="black" points="1348.01,-542.75 1356.81,-536.86 1346.25,-535.97 1348.01,-542.75"/>
</g>
<!-- 15 -->
<g id="node16" class="node">
<title>15</title>
<polygon fill="none" stroke="black" points="904.46,-540 653.78,-522 904.46,-504 1155.14,-522 904.46,-540"/>
<text text-anchor="middle" x="904.46" y="-516.95" font-family="Times New Roman,serif" font-size="14.00">!(Variable[&quot;jam.siileng_mainhub_reached&quot;])</text>
</g>
<!-- 13&#45;&gt;15 -->
<g id="edge16" class="edge">
<title>13&#45;&gt;15</title>
<path fill="none" stroke="black" d="M1084.36,-576.59C1047.69,-565.66 999.6,-551.34 962.36,-540.25"/>
<polygon fill="black" stroke="black" points="963.71,-537 953.12,-537.5 961.71,-543.7 963.71,-537"/>
</g>
<!-- 14&#45;&gt;2 -->
<g id="edge17" class="edge">
<title>14&#45;&gt;2</title>
<path fill="none" stroke="black" d="M1414.31,-540.16C1420.37,-571.82 1428.5,-640.17 1397.46,-684 1388.01,-697.35 1374.4,-707.38 1359.74,-714.91"/>
<polygon fill="black" stroke="black" points="1358.4,-711.68 1350.83,-719.09 1361.37,-718.01 1358.4,-711.68"/>
</g>
<!-- 15&#45;&gt;5 -->
<g id="edge18" class="edge">
<title>15&#45;&gt;5</title>
<path fill="none" stroke="black" d="M904.46,-503.7C904.46,-496.41 904.46,-487.73 904.46,-479.54"/>
<polygon fill="black" stroke="black" points="907.96,-479.62 904.46,-469.62 900.96,-479.62 907.96,-479.62"/>
</g>
<!-- 16 -->
<g id="node17" class="node">
<title>16</title>
<ellipse fill="none" stroke="black" cx="2375.46" cy="-162" rx="202.85" ry="18"/>
<text text-anchor="middle" x="2375.46" y="-156.95" font-family="Times New Roman,serif" font-size="14.00">You: Okay. But what am I supposed to do about it?</text>
</g>
<!-- 27 -->
<g id="node28" class="node">
<title>27</title>
<ellipse fill="none" stroke="black" cx="2544.46" cy="-90" rx="389.66" ry="18"/>
<text text-anchor="middle" x="2544.46" y="-84.95" font-family="Times New Roman,serif" font-size="14.00">Logic: Uh, dunno. Nothing, I guess. It&#39;s not like there&#39;s something you can do, you&#39;re but a mere cop.</text>
</g>
<!-- 16&#45;&gt;27 -->
<g id="edge19" class="edge">
<title>16&#45;&gt;27</title>
<path fill="none" stroke="black" d="M2416.37,-144.05C2439.18,-134.61 2467.81,-122.75 2492.23,-112.64"/>
<polygon fill="black" stroke="black" points="2493.45,-115.91 2501.35,-108.85 2490.78,-109.45 2493.45,-115.91"/>
</g>
<!-- 18 -->
<g id="node19" class="node">
<title>18</title>
<ellipse fill="none" stroke="black" cx="677.46" cy="-594" rx="258.12" ry="18"/>
<text text-anchor="middle" x="677.46" y="-588.95" font-family="Times New Roman,serif" font-size="14.00">Kim Kitsuragi: &quot;You may be right. Let&#39;s see what he&#39;s got to say.&quot;</text>
</g>
<!-- 17&#45;&gt;18 -->
<g id="edge20" class="edge">
<title>17&#45;&gt;18</title>
<path fill="none" stroke="black" d="M677.46,-647.7C677.46,-640.41 677.46,-631.73 677.46,-623.54"/>
<polygon fill="black" stroke="black" points="680.96,-623.62 677.46,-613.62 673.96,-623.62 680.96,-623.62"/>
</g>
<!-- 19 -->
<g id="node20" class="node">
<title>19</title>
<ellipse fill="none" stroke="black" cx="820.46" cy="-90" rx="103.04" ry="18"/>
<text text-anchor="middle" x="820.46" y="-84.95" font-family="Times New Roman,serif" font-size="14.00">You: I don&#39;t believe you.</text>
</g>
<!-- 19&#45;&gt;8 -->
<g id="edge21" class="edge">
<title>19&#45;&gt;8</title>
<path fill="none" stroke="black" d="M744.59,-77.48C672.75,-66.57 563.72,-50.02 479.98,-37.3"/>
<polygon fill="black" stroke="black" points="480.51,-33.84 470.09,-35.8 479.46,-40.76 480.51,-33.84"/>
</g>
<!-- 34 -->
<g id="node35" class="node">
<title>34</title>
<ellipse fill="none" stroke="black" cx="3557.46" cy="-522" rx="58.52" ry="18"/>
<text text-anchor="middle" x="3557.46" y="-516.95" font-family="Times New Roman,serif" font-size="14.00">IsKimHere()</text>
</g>
<!-- 20&#45;&gt;34 -->
<g id="edge22" class="edge">
<title>20&#45;&gt;34</title>
<path fill="none" stroke="black" d="M3557.46,-575.7C3557.46,-568.41 3557.46,-559.73 3557.46,-551.54"/>
<polygon fill="black" stroke="black" points="3560.96,-551.62 3557.46,-541.62 3553.96,-551.62 3560.96,-551.62"/>
</g>
<!-- 28 -->
<g id="node29" class="node">
<title>28</title>
<ellipse fill="none" stroke="black" cx="2817.46" cy="-234" rx="528.87" ry="18"/>
<text text-anchor="middle" x="2817.46" y="-228.95" font-family="Times New Roman,serif" font-size="14.00">Kim Kitsuragi: &quot;Yes,&quot; nods the lieutenant, &quot;Humanox is a well&#45;known humanitarian aid organization. It must be the streethawker&#39;s truck.&quot;</text>
</g>
<!-- 21&#45;&gt;28 -->
<g id="edge23" class="edge">
<title>21&#45;&gt;28</title>
<path fill="none" stroke="black" d="M3067.03,-288.59C3019.7,-278.43 2958.66,-265.32 2908.79,-254.61"/>
<polygon fill="black" stroke="black" points="2909.67,-251.22 2899.16,-252.54 2908.2,-258.06 2909.67,-251.22"/>
</g>
<!-- 22 -->
<g id="node23" class="node">
<title>22</title>
<ellipse fill="none" stroke="black" cx="3731.46" cy="-162" rx="542.69" ry="18"/>
<text text-anchor="middle" x="3731.46" y="-156.95" font-family="Times New Roman,serif" font-size="14.00">Kim Kitsuragi: &quot;Good to know that we were right,&quot; the lieutenant remarks dryly. &quot;Would have *sucked* to rip a man off for no reason at all.&quot;</text>
</g>
<!-- 23 -->
<g id="node24" class="node">
<title>23</title>
<ellipse fill="none" stroke="black" cx="1637.46" cy="-306" rx="170.09" ry="18"/>
<text text-anchor="middle" x="1637.46" y="-300.95" font-family="Times New Roman,serif" font-size="14.00">Variable[&quot;jam.siileng_encyclo_humanox&quot;]</text>
</g>
<!-- 24 -->
<g id="node25" class="node">
<title>24</title>
<polygon fill="none" stroke="black" points="1315.46,-252 1074.92,-234 1315.46,-216 1556,-234 1315.46,-252"/>
<text text-anchor="middle" x="1315.46" y="-228.95" font-family="Times New Roman,serif" font-size="14.00">Variable[&quot;jam.siileng_encyclo_humanox&quot;]</text>
</g>
<!-- 23&#45;&gt;24 -->
<g id="edge24" class="edge">
<title>23&#45;&gt;24</title>
<path fill="none" stroke="black" d="M1565.2,-289.29C1511.79,-277.68 1439.45,-261.95 1386.37,-250.41"/>
<polygon fill="black" stroke="black" points="1387.34,-247.04 1376.82,-248.34 1385.85,-253.88 1387.34,-247.04"/>
</g>
<!-- 25 -->
<g id="node26" class="node">
<title>25</title>
<polygon fill="none" stroke="black" points="1827.46,-252 1573.89,-234 1827.46,-216 2081.03,-234 1827.46,-252"/>
<text text-anchor="middle" x="1827.46" y="-228.95" font-family="Times New Roman,serif" font-size="14.00">!(Variable[&quot;jam.siileng_encyclo_humanox&quot;])</text>
</g>
<!-- 23&#45;&gt;25 -->
<g id="edge25" class="edge">
<title>23&#45;&gt;25</title>
<path fill="none" stroke="black" d="M1682.97,-288.23C1711.42,-277.75 1748.09,-264.24 1777.37,-253.45"/>
<polygon fill="black" stroke="black" points="1778.2,-256.88 1786.37,-250.14 1775.78,-250.31 1778.2,-256.88"/>
</g>
<!-- 45 -->
<g id="node46" class="node">
<title>45</title>
<ellipse fill="none" stroke="black" cx="1315.46" cy="-162" rx="55.96" ry="18"/>
<text text-anchor="middle" x="1315.46" y="-156.95" font-family="Times New Roman,serif" font-size="14.00">Encyclo yes</text>
</g>
<!-- 24&#45;&gt;45 -->
<g id="edge26" class="edge">
<title>24&#45;&gt;45</title>
<path fill="none" stroke="black" d="M1315.46,-215.7C1315.46,-208.41 1315.46,-199.73 1315.46,-191.54"/>
<polygon fill="black" stroke="black" points="1318.96,-191.62 1315.46,-181.62 1311.96,-191.62 1318.96,-191.62"/>
</g>
<!-- 25&#45;&gt;16 -->
<g id="edge27" class="edge">
<title>25&#45;&gt;16</title>
<path fill="none" stroke="black" d="M1915.51,-221.75C2006.49,-210.13 2149.27,-191.89 2251.62,-178.82"/>
<polygon fill="black" stroke="black" points="2251.97,-182.3 2261.45,-177.56 2251.09,-175.36 2251.97,-182.3"/>
</g>
<!-- 29 -->
<g id="node30" class="node">
<title>29</title>
<ellipse fill="none" stroke="black" cx="1545.46" cy="-162" rx="99.46" ry="18"/>
<text text-anchor="middle" x="1545.46" y="-156.95" font-family="Times New Roman,serif" font-size="14.00">You: [Discard thought.]</text>
</g>
<!-- 25&#45;&gt;29 -->
<g id="edge28" class="edge">
<title>25&#45;&gt;29</title>
<path fill="none" stroke="black" d="M1772.75,-219.42C1727.28,-208.13 1662.36,-192.02 1613.53,-179.9"/>
<polygon fill="black" stroke="black" points="1614.45,-176.52 1603.9,-177.51 1612.76,-183.31 1614.45,-176.52"/>
</g>
<!-- 46 -->
<g id="node47" class="node">
<title>46</title>
<ellipse fill="none" stroke="black" cx="1827.46" cy="-162" rx="164.46" ry="18"/>
<text text-anchor="middle" x="1827.46" y="-156.95" font-family="Times New Roman,serif" font-size="14.00">You: Cool. Thieves. I should catch them.</text>
</g>
<!-- 25&#45;&gt;46 -->
<g id="edge29" class="edge">
<title>25&#45;&gt;46</title>
<path fill="none" stroke="black" d="M1827.46,-215.7C1827.46,-208.41 1827.46,-199.73 1827.46,-191.54"/>
<polygon fill="black" stroke="black" points="1830.96,-191.62 1827.46,-181.62 1823.96,-191.62 1830.96,-191.62"/>
</g>
<!-- 26&#45;&gt;22 -->
<g id="edge30" class="edge">
<title>26&#45;&gt;22</title>
<path fill="none" stroke="black" d="M3731.46,-215.7C3731.46,-208.41 3731.46,-199.73 3731.46,-191.54"/>
<polygon fill="black" stroke="black" points="3734.96,-191.62 3731.46,-181.62 3727.96,-191.62 3734.96,-191.62"/>
</g>
<!-- 28&#45;&gt;22 -->
<g id="edge31" class="edge">
<title>28&#45;&gt;22</title>
<path fill="none" stroke="black" d="M3026.29,-217.01C3170.98,-205.93 3363.3,-191.2 3510.55,-179.92"/>
<polygon fill="black" stroke="black" points="3510.75,-183.41 3520.46,-179.16 3510.22,-176.43 3510.75,-183.41"/>
</g>
<!-- 30 -->
<g id="node31" class="node">
<title>30</title>
<ellipse fill="none" stroke="black" cx="1637.46" cy="-378" rx="555.48" ry="18"/>
<text text-anchor="middle" x="1637.46" y="-372.95" font-family="Times New Roman,serif" font-size="14.00">Encyclopedia: Humanox is a non&#45;profit humanitarian aid organization created by EPIS countries to provide assistance during humanitarian crises.</text>
</g>
<!-- 30&#45;&gt;23 -->
<g id="edge32" class="edge">
<title>30&#45;&gt;23</title>
<path fill="none" stroke="black" d="M1637.46,-359.7C1637.46,-352.41 1637.46,-343.73 1637.46,-335.54"/>
<polygon fill="black" stroke="black" points="1640.96,-335.62 1637.46,-325.62 1633.96,-335.62 1640.96,-335.62"/>
</g>
<!-- 31&#45;&gt;22 -->
<g id="edge33" class="edge">
<title>31&#45;&gt;22</title>
<path fill="none" stroke="black" d="M4077.84,-287.71C4099.63,-268.82 4126.83,-238.29 4107.46,-216 4093.1,-199.48 4060.89,-187.96 4021.05,-179.96"/>
<polygon fill="black" stroke="black" points="4021.87,-176.56 4011.4,-178.13 4020.57,-183.43 4021.87,-176.56"/>
</g>
<!-- 33&#45;&gt;13 -->
<g id="edge34" class="edge">
<title>33&#45;&gt;13</title>
<path fill="none" stroke="black" d="M1139.46,-647.7C1139.46,-640.41 1139.46,-631.73 1139.46,-623.54"/>
<polygon fill="black" stroke="black" points="1142.96,-623.62 1139.46,-613.62 1135.96,-623.62 1142.96,-623.62"/>
</g>
<!-- 35 -->
<g id="node36" class="node">
<title>35</title>
<polygon fill="none" stroke="black" points="3211.46,-468 3128.7,-450 3211.46,-432 3294.22,-450 3211.46,-468"/>
<text text-anchor="middle" x="3211.46" y="-444.95" font-family="Times New Roman,serif" font-size="14.00">IsKimHere()</text>
</g>
<!-- 34&#45;&gt;35 -->
<g id="edge35" class="edge">
<title>34&#45;&gt;35</title>
<path fill="none" stroke="black" d="M3509.71,-511.34C3445.31,-498.31 3330.99,-475.18 3264.15,-461.66"/>
<polygon fill="black" stroke="black" points="3265.02,-458.26 3254.52,-459.71 3263.63,-465.13 3265.02,-458.26"/>
</g>
<!-- 36 -->
<g id="node37" class="node">
<title>36</title>
<polygon fill="none" stroke="black" points="3731.46,-468 3635.68,-450 3731.46,-432 3827.24,-450 3731.46,-468"/>
<text text-anchor="middle" x="3731.46" y="-444.95" font-family="Times New Roman,serif" font-size="14.00">!(IsKimHere())</text>
</g>
<!-- 34&#45;&gt;36 -->
<g id="edge36" class="edge">
<title>34&#45;&gt;36</title>
<path fill="none" stroke="black" d="M3591.84,-507.17C3620.5,-495.64 3661.38,-479.19 3691.5,-467.07"/>
<polygon fill="black" stroke="black" points="3692.7,-470.37 3700.67,-463.39 3690.08,-463.87 3692.7,-470.37"/>
</g>
<!-- 35&#45;&gt;3 -->
<g id="edge37" class="edge">
<title>35&#45;&gt;3</title>
<path fill="none" stroke="black" d="M3183.66,-437.75C3158.97,-427.76 3122.2,-412.88 3091.83,-400.6"/>
<polygon fill="black" stroke="black" points="3093.38,-397.45 3082.8,-396.94 3090.75,-403.93 3093.38,-397.45"/>
</g>
<!-- 36&#45;&gt;4 -->
<g id="edge39" class="edge">
<title>36&#45;&gt;4</title>
<path fill="none" stroke="black" d="M3731.46,-431.7C3731.46,-424.41 3731.46,-415.73 3731.46,-407.54"/>
<polygon fill="black" stroke="black" points="3734.96,-407.62 3731.46,-397.62 3727.96,-407.62 3734.96,-407.62"/>
</g>
<!-- 41 -->
<g id="node42" class="node">
<title>41</title>
<ellipse fill="none" stroke="black" cx="3906.46" cy="-378" rx="99.46" ry="18"/>
<text text-anchor="middle" x="3906.46" y="-372.95" font-family="Times New Roman,serif" font-size="14.00">You: [Discard thought.]</text>
</g>
<!-- 36&#45;&gt;41 -->
<g id="edge38" class="edge">
<title>36&#45;&gt;41</title>
<path fill="none" stroke="black" d="M3761.15,-437.13C3787.14,-426.73 3825.46,-411.4 3856.22,-399.1"/>
<polygon fill="black" stroke="black" points="3857.36,-402.41 3865.35,-395.44 3854.76,-395.91 3857.36,-402.41"/>
</g>
<!-- 38 -->
<g id="node39" class="node">
<title>38</title>
<polygon fill="none" stroke="black" points="2058.46,-468 1975.7,-450 2058.46,-432 2141.22,-450 2058.46,-468"/>
<text text-anchor="middle" x="2058.46" y="-444.95" font-family="Times New Roman,serif" font-size="14.00">IsKimHere()</text>
</g>
<!-- 37&#45;&gt;38 -->
<g id="edge40" class="edge">
<title>37&#45;&gt;38</title>
<path fill="none" stroke="black" d="M1771.96,-511.05C1834.06,-498.03 1942.45,-475.31 2006.62,-461.86"/>
<polygon fill="black" stroke="black" points="2007.13,-465.33 2016.2,-459.86 2005.7,-458.48 2007.13,-465.33"/>
</g>
<!-- 39 -->
<g id="node40" class="node">
<title>39</title>
<polygon fill="none" stroke="black" points="1680.46,-468 1584.68,-450 1680.46,-432 1776.24,-450 1680.46,-468"/>
<text text-anchor="middle" x="1680.46" y="-444.95" font-family="Times New Roman,serif" font-size="14.00">!(IsKimHere())</text>
</g>
<!-- 37&#45;&gt;39 -->
<g id="edge41" class="edge">
<title>37&#45;&gt;39</title>
<path fill="none" stroke="black" d="M1713.81,-504.05C1708.5,-495.62 1701.99,-485.25 1696.13,-475.92"/>
<polygon fill="black" stroke="black" points="1699.2,-474.24 1690.92,-467.64 1693.28,-477.97 1699.2,-474.24"/>
</g>
<!-- 38&#45;&gt;1 -->
<g id="edge42" class="edge">
<title>38&#45;&gt;1</title>
<path fill="none" stroke="black" d="M2089.06,-438.22C2118.14,-427.84 2163.03,-411.48 2201.46,-396 2203.2,-395.3 2204.98,-394.57 2206.78,-393.82"/>
<polygon fill="black" stroke="black" points="2207.81,-397.19 2215.65,-390.05 2205.07,-390.74 2207.81,-397.19"/>
</g>
<!-- 39&#45;&gt;30 -->
<g id="edge43" class="edge">
<title>39&#45;&gt;30</title>
<path fill="none" stroke="black" d="M1670.92,-433.46C1665.97,-425.42 1659.8,-415.36 1654.1,-406.09"/>
<polygon fill="black" stroke="black" points="1657.19,-404.44 1648.98,-397.75 1651.23,-408.1 1657.19,-404.44"/>
</g>
<!-- 40 -->
<g id="node41" class="node">
<title>40</title>
<ellipse fill="none" stroke="black" cx="1322.46" cy="-90" rx="150.13" ry="18"/>
<text text-anchor="middle" x="1322.46" y="-84.95" font-family="Times New Roman,serif" font-size="14.00">You: Okay&#45;do. What&#39;s EPIS, though?</text>
</g>
<!-- 43 -->
<g id="node44" class="node">
<title>43</title>
<ellipse fill="none" stroke="black" cx="1553.46" cy="-18" rx="816.5" ry="18"/>
<text text-anchor="middle" x="1553.46" y="-12.95" font-family="Times New Roman,serif" font-size="14.00">Encyclopedia: Now that I start to think about it I&#39;m not even sure it was EPIS... maybe it was ECIS, or ETIS? Maybe your brain just made this letter combination up to sound more professional. Kiddo, it&#39;s a mystery.</text>
</g>
<!-- 40&#45;&gt;43 -->
<g id="edge44" class="edge">
<title>40&#45;&gt;43</title>
<path fill="none" stroke="black" d="M1376.04,-72.76C1408.65,-62.88 1450.61,-50.17 1485.54,-39.58"/>
<polygon fill="black" stroke="black" points="1486.13,-43.06 1494.69,-36.81 1484.1,-36.36 1486.13,-43.06"/>
</g>
<!-- 42&#45;&gt;7 -->
<g id="edge45" class="edge">
<title>42&#45;&gt;7</title>
<path fill="none" stroke="black" d="M1677.81,-647.7C1684.02,-639.64 1691.54,-629.89 1698.42,-620.98"/>
<polygon fill="black" stroke="black" points="1701,-623.36 1704.34,-613.3 1695.46,-619.08 1701,-623.36"/>
</g>
<!-- 44 -->
<g id="node45" class="node">
<title>44</title>
<ellipse fill="none" stroke="black" cx="1820.46" cy="-90" rx="315.96" ry="18"/>
<text text-anchor="middle" x="1820.46" y="-84.95" font-family="Times New Roman,serif" font-size="14.00">Logic: That&#39;s what a cop does, isn&#39;t it? Keep your eyes peeled... crime is close by.</text>
</g>
<!-- 45&#45;&gt;19 -->
<g id="edge47" class="edge">
<title>45&#45;&gt;19</title>
<path fill="none" stroke="black" d="M1264.81,-153.84C1181.33,-142.03 1013.76,-118.34 909.95,-103.65"/>
<polygon fill="black" stroke="black" points="910.44,-100.19 900.05,-102.25 909.46,-107.12 910.44,-100.19"/>
</g>
<!-- 45&#45;&gt;40 -->
<g id="edge46" class="edge">
<title>45&#45;&gt;40</title>
<path fill="none" stroke="black" d="M1317.19,-143.7C1317.92,-136.41 1318.79,-127.73 1319.61,-119.54"/>
<polygon fill="black" stroke="black" points="1323.09,-119.91 1320.6,-109.61 1316.12,-119.21 1323.09,-119.91"/>
</g>
<!-- 46&#45;&gt;44 -->
<g id="edge48" class="edge">
<title>46&#45;&gt;44</title>
<path fill="none" stroke="black" d="M1825.73,-143.7C1825,-136.41 1824.13,-127.73 1823.31,-119.54"/>
<polygon fill="black" stroke="black" points="1826.8,-119.21 1822.32,-109.61 1819.83,-119.91 1826.8,-119.21"/>
</g>
</g>
</svg>
