<?xml version="1.0" encoding="UTF-8" standalone="no"?>
<!DOCTYPE svg PUBLIC "-//W3C//DTD SVG 1.1//EN"
 "http://www.w3.org/Graphics/SVG/1.1/DTD/svg11.dtd">
<!-- Generated by graphviz version 12.2.1 (20241206.2353)
 -->
<!-- Title: G Pages: 1 -->
<svg width="9753pt" height="1988pt"
 viewBox="0.00 0.00 9752.81 1988.00" xmlns="http://www.w3.org/2000/svg" xmlns:xlink="http://www.w3.org/1999/xlink">
<g id="graph0" class="graph" transform="scale(1 1) rotate(0) translate(4 1984)">
<title>G</title>
<polygon fill="white" stroke="none" points="-4,4 -4,-1984 9748.81,-1984 9748.81,4 -4,4"/>
<!-- 0 -->
<g id="node1" class="node">
<title>0</title>
<ellipse fill="none" stroke="black" cx="7482.02" cy="-1962" rx="39.07" ry="18"/>
<text text-anchor="middle" x="7482.02" y="-1956.95" font-family="Times New Roman,serif" font-size="14.00">START</text>
</g>
<!-- 0&#45;&gt;0 -->
<g id="edge1" class="edge">
<title>0&#45;&gt;0</title>
<path fill="none" stroke="black" d="M7510.21,-1974.94C7525.32,-1977.14 7539.09,-1972.83 7539.09,-1962 7539.09,-1953.96 7531.51,-1949.52 7521.42,-1948.65"/>
<polygon fill="black" stroke="black" points="7521.59,-1945.15 7511.72,-1949 7521.84,-1952.14 7521.59,-1945.15"/>
</g>
<!-- 1 -->
<g id="node2" class="node">
<title>1</title>
<ellipse fill="none" stroke="black" cx="6950.02" cy="-666" rx="29.86" ry="18"/>
<text text-anchor="middle" x="6950.02" y="-660.95" font-family="Times New Roman,serif" font-size="14.00">input</text>
</g>
<!-- 8 -->
<g id="node9" class="node">
<title>8</title>
<ellipse fill="none" stroke="black" cx="7051.02" cy="-594" rx="174.19" ry="18"/>
<text text-anchor="middle" x="7051.02" y="-588.95" font-family="Times New Roman,serif" font-size="14.00">You: This must be an elaborate piece of art.</text>
</g>
<!-- 1&#45;&gt;8 -->
<g id="edge2" class="edge">
<title>1&#45;&gt;8</title>
<path fill="none" stroke="black" d="M6969.02,-651.83C6982.59,-642.43 7001.2,-629.53 7017.27,-618.39"/>
<polygon fill="black" stroke="black" points="7018.91,-621.52 7025.13,-612.94 7014.92,-615.76 7018.91,-621.52"/>
</g>
<!-- 2 -->
<g id="node3" class="node">
<title>2</title>
<ellipse fill="none" stroke="black" cx="8948.02" cy="-1170" rx="434.18" ry="18"/>
<text text-anchor="middle" x="8948.02" y="-1164.95" font-family="Times New Roman,serif" font-size="14.00">Conceptualization: A conductor for the hundreds of story threads that pass through the Game Master&#39;s Frequency.</text>
</g>
<!-- 31 -->
<g id="node32" class="node">
<title>31</title>
<ellipse fill="none" stroke="black" cx="9084.02" cy="-1098" rx="158.83" ry="18"/>
<text text-anchor="middle" x="9084.02" y="-1092.95" font-family="Times New Roman,serif" font-size="14.00">You: If it&#39;s a game, then who&#39;s playing?</text>
</g>
<!-- 2&#45;&gt;31 -->
<g id="edge3" class="edge">
<title>2&#45;&gt;31</title>
<path fill="none" stroke="black" d="M8981.64,-1151.7C8999.64,-1142.43 9022.01,-1130.92 9041.24,-1121.02"/>
<polygon fill="black" stroke="black" points="9042.62,-1124.24 9049.91,-1116.56 9039.42,-1118.02 9042.62,-1124.24"/>
</g>
<!-- 3 -->
<g id="node4" class="node">
<title>3</title>
<ellipse fill="none" stroke="black" cx="8290.02" cy="-1530" rx="439.81" ry="18"/>
<text text-anchor="middle" x="8290.02" y="-1524.95" font-family="Times New Roman,serif" font-size="14.00">Frequency Fireplace: Unclear. It looks like a cardiovascular system, split into veins and capillaries. Very advanced.</text>
</g>
<!-- 7 -->
<g id="node8" class="node">
<title>7</title>
<ellipse fill="none" stroke="black" cx="8741.02" cy="-1458" rx="146.04" ry="18"/>
<text text-anchor="middle" x="8741.02" y="-1452.95" font-family="Times New Roman,serif" font-size="14.00">You: Wait, who&#39;s the Game Master?</text>
</g>
<!-- 3&#45;&gt;7 -->
<g id="edge6" class="edge">
<title>3&#45;&gt;7</title>
<path fill="none" stroke="black" d="M8398.91,-1512.1C8472.77,-1500.64 8569.65,-1485.6 8641.46,-1474.45"/>
<polygon fill="black" stroke="black" points="8641.92,-1477.92 8651.26,-1472.93 8640.85,-1471.01 8641.92,-1477.92"/>
</g>
<!-- 40 -->
<g id="node41" class="node">
<title>40</title>
<ellipse fill="none" stroke="black" cx="7600.02" cy="-1314" rx="207.96" ry="18"/>
<text text-anchor="middle" x="7600.02" y="-1308.95" font-family="Times New Roman,serif" font-size="14.00">You: So we&#39;re dealing with something medical here?</text>
</g>
<!-- 3&#45;&gt;40 -->
<g id="edge4" class="edge">
<title>3&#45;&gt;40</title>
<path fill="none" stroke="black" d="M8128.44,-1512.83C8091.14,-1504.96 8052.58,-1493.29 8019.02,-1476 7998.34,-1465.34 8001,-1451.92 7981.02,-1440 7890.37,-1385.94 7773.45,-1352.07 7693.18,-1333.44"/>
<polygon fill="black" stroke="black" points="7694.11,-1330.06 7683.58,-1331.24 7692.55,-1336.88 7694.11,-1330.06"/>
</g>
<!-- 44 -->
<g id="node45" class="node">
<title>44</title>
<ellipse fill="none" stroke="black" cx="8290.02" cy="-1458" rx="262.22" ry="18"/>
<text text-anchor="middle" x="8290.02" y="-1452.95" font-family="Times New Roman,serif" font-size="14.00">You: Of course... (Narrow your eyes.) The anatomy of *the curse*.</text>
</g>
<!-- 3&#45;&gt;44 -->
<g id="edge5" class="edge">
<title>3&#45;&gt;44</title>
<path fill="none" stroke="black" d="M8290.02,-1511.7C8290.02,-1504.41 8290.02,-1495.73 8290.02,-1487.54"/>
<polygon fill="black" stroke="black" points="8293.52,-1487.62 8290.02,-1477.62 8286.52,-1487.62 8293.52,-1487.62"/>
</g>
<!-- 4 -->
<g id="node5" class="node">
<title>4</title>
<ellipse fill="none" stroke="black" cx="8852.02" cy="-1314" rx="504.3" ry="18"/>
<text text-anchor="middle" x="8852.02" y="-1308.95" font-family="Times New Roman,serif" font-size="14.00">Frequency Fireplace: Radio frequencies, it seems. UKV123.6, UKV123.7, UKV123.9... some written notes too. Sparse and cryptic.</text>
</g>
<!-- 25 -->
<g id="node26" class="node">
<title>25</title>
<ellipse fill="none" stroke="black" cx="9011.02" cy="-1242" rx="136.31" ry="18"/>
<text text-anchor="middle" x="9011.02" y="-1236.95" font-family="Times New Roman,serif" font-size="14.00">You: Radio frequencies for what?</text>
</g>
<!-- 4&#45;&gt;25 -->
<g id="edge7" class="edge">
<title>4&#45;&gt;25</title>
<path fill="none" stroke="black" d="M8891.33,-1295.7C8912.84,-1286.22 8939.68,-1274.41 8962.5,-1264.36"/>
<polygon fill="black" stroke="black" points="8963.87,-1267.58 8971.61,-1260.35 8961.04,-1261.18 8963.87,-1267.58"/>
</g>
<!-- 5 -->
<g id="node6" class="node">
<title>5</title>
<ellipse fill="none" stroke="black" cx="6953.02" cy="-378" rx="270.41" ry="18"/>
<text text-anchor="middle" x="6953.02" y="-372.95" font-family="Times New Roman,serif" font-size="14.00">Authority: The leader of a massive on&#45;air game built by these people.</text>
</g>
<!-- 5&#45;&gt;1 -->
<g id="edge8" class="edge">
<title>5&#45;&gt;1</title>
<path fill="none" stroke="black" d="M6896.02,-395.98C6846.75,-414.03 6778.62,-447.86 6747.02,-504 6704.28,-579.93 6842.46,-633.14 6912.23,-654.53"/>
<polygon fill="black" stroke="black" points="6911.17,-657.87 6921.75,-657.37 6913.17,-651.16 6911.17,-657.87"/>
</g>
<!-- 6 -->
<g id="node7" class="node">
<title>6</title>
<ellipse fill="none" stroke="black" cx="8290.02" cy="-1602" rx="115.33" ry="18"/>
<text text-anchor="middle" x="8290.02" y="-1596.95" font-family="Times New Roman,serif" font-size="14.00">You: What am I looking at?</text>
</g>
<!-- 6&#45;&gt;3 -->
<g id="edge9" class="edge">
<title>6&#45;&gt;3</title>
<path fill="none" stroke="black" d="M8290.02,-1583.7C8290.02,-1576.41 8290.02,-1567.73 8290.02,-1559.54"/>
<polygon fill="black" stroke="black" points="8293.52,-1559.62 8290.02,-1549.62 8286.52,-1559.62 8293.52,-1559.62"/>
</g>
<!-- 41 -->
<g id="node42" class="node">
<title>41</title>
<ellipse fill="none" stroke="black" cx="8803.02" cy="-1386" rx="186.98" ry="18"/>
<text text-anchor="middle" x="8803.02" y="-1380.95" font-family="Times New Roman,serif" font-size="14.00">Frequency Fireplace: Someone very important.</text>
</g>
<!-- 7&#45;&gt;41 -->
<g id="edge10" class="edge">
<title>7&#45;&gt;41</title>
<path fill="none" stroke="black" d="M8756.35,-1439.7C8763.56,-1431.56 8772.3,-1421.69 8780.26,-1412.7"/>
<polygon fill="black" stroke="black" points="8782.86,-1415.04 8786.87,-1405.24 8777.62,-1410.4 8782.86,-1415.04"/>
</g>
<!-- 18 -->
<g id="node19" class="node">
<title>18</title>
<ellipse fill="none" stroke="black" cx="7374.02" cy="-522" rx="618.43" ry="18"/>
<text text-anchor="middle" x="7374.02" y="-516.95" font-family="Times New Roman,serif" font-size="14.00">Conceptualization: History classes. Students with their textbooks open, studying the roots of our civilization. Those aquarelle&#45;blue tiles looked beautiful in the sun.</text>
</g>
<!-- 8&#45;&gt;18 -->
<g id="edge11" class="edge">
<title>8&#45;&gt;18</title>
<path fill="none" stroke="black" d="M7123.91,-577.2C7170.96,-567.01 7232.55,-553.66 7282.83,-542.76"/>
<polygon fill="black" stroke="black" points="7283.53,-546.19 7292.56,-540.65 7282.04,-539.35 7283.53,-546.19"/>
</g>
<!-- 9 -->
<g id="node10" class="node">
<title>9</title>
<ellipse fill="none" stroke="black" cx="8327.02" cy="-666" rx="752.02" ry="18"/>
<text text-anchor="middle" x="8327.02" y="-660.95" font-family="Times New Roman,serif" font-size="14.00">Frequency Fireplace: This old fireplace is covered in lines drawn in blue and red marker, the mesh spreading over the stone like blood vessels on alabaster skin. It looks ghostly and strangely ancient.</text>
</g>
<!-- 45 -->
<g id="node46" class="node">
<title>45</title>
<ellipse fill="none" stroke="black" cx="8327.02" cy="-594" rx="399.89" ry="18"/>
<text text-anchor="middle" x="8327.02" y="-588.95" font-family="Times New Roman,serif" font-size="14.00">Inland Empire: A diagram for summoning some time&#45;forgotten being? The symbols seem very esoteric.</text>
</g>
<!-- 9&#45;&gt;45 -->
<g id="edge12" class="edge">
<title>9&#45;&gt;45</title>
<path fill="none" stroke="black" d="M8327.02,-647.7C8327.02,-640.41 8327.02,-631.73 8327.02,-623.54"/>
<polygon fill="black" stroke="black" points="8330.52,-623.62 8327.02,-613.62 8323.52,-623.62 8330.52,-623.62"/>
</g>
<!-- 10 -->
<g id="node11" class="node">
<title>10</title>
<ellipse fill="none" stroke="black" cx="8244.02" cy="-1746" rx="201.82" ry="18"/>
<text text-anchor="middle" x="8244.02" y="-1740.95" font-family="Times New Roman,serif" font-size="14.00">Half Light: Looks like a surveillance programme...</text>
</g>
<!-- 48 -->
<g id="node49" class="node">
<title>48</title>
<ellipse fill="none" stroke="black" cx="8290.02" cy="-1674" rx="328.75" ry="18"/>
<text text-anchor="middle" x="8290.02" y="-1668.95" font-family="Times New Roman,serif" font-size="14.00">Interfacing: They must have had *massive* airwidth. These things don&#39;t come cheap.</text>
</g>
<!-- 10&#45;&gt;48 -->
<g id="edge13" class="edge">
<title>10&#45;&gt;48</title>
<path fill="none" stroke="black" d="M8255.39,-1727.7C8260.57,-1719.81 8266.82,-1710.3 8272.58,-1701.55"/>
<polygon fill="black" stroke="black" points="8275.38,-1703.65 8277.95,-1693.37 8269.53,-1699.8 8275.38,-1703.65"/>
</g>
<!-- 11 -->
<g id="node12" class="node">
<title>11</title>
<ellipse fill="none" stroke="black" cx="9083.02" cy="-90" rx="637.88" ry="18"/>
<text text-anchor="middle" x="9083.02" y="-84.95" font-family="Times New Roman,serif" font-size="14.00">Perception (Sight): A list of names under the stations suggests people across *six isolas* would be playing: Mundi, Insulinde, Katla, Graad, Samara, and even Iilmaraa.</text>
</g>
<!-- 21 -->
<g id="node22" class="node">
<title>21</title>
<ellipse fill="none" stroke="black" cx="8750.02" cy="-18" rx="833.91" ry="18"/>
<text text-anchor="middle" x="8750.02" y="-12.95" font-family="Times New Roman,serif" font-size="14.00">Kim Kitsuragi: &quot;Exactly.&quot; He nods at the calendar on the chalkboard, wiping his marker&#45;stained fingers clean against his jacket. &quot;This schedule &#45;&#45; I know *doom* when I see it. The company was running out of funding.&quot;</text>
</g>
<!-- 11&#45;&gt;21 -->
<g id="edge14" class="edge">
<title>11&#45;&gt;21</title>
<path fill="none" stroke="black" d="M9000.71,-71.7C8953.17,-61.7 8893.2,-49.1 8843.84,-38.72"/>
<polygon fill="black" stroke="black" points="8844.82,-35.35 8834.31,-36.72 8843.38,-42.2 8844.82,-35.35"/>
</g>
<!-- 12 -->
<g id="node13" class="node">
<title>12</title>
<ellipse fill="none" stroke="black" cx="7831.02" cy="-378" rx="477.69" ry="18"/>
<text text-anchor="middle" x="7831.02" y="-372.95" font-family="Times New Roman,serif" font-size="14.00">Frequency Fireplace: Nothing. It&#39;s just lines on marble, an echo from times long gone. No one has used the fireplace in ages.</text>
</g>
<!-- 14 -->
<g id="node15" class="node">
<title>14</title>
<ellipse fill="none" stroke="black" cx="8258.02" cy="-306" rx="121.47" ry="18"/>
<text text-anchor="middle" x="8258.02" y="-300.95" font-family="Times New Roman,serif" font-size="14.00">You: &quot;Why do you say that?&quot;</text>
</g>
<!-- 12&#45;&gt;14 -->
<g id="edge15" class="edge">
<title>12&#45;&gt;14</title>
<path fill="none" stroke="black" d="M7934.93,-359.97C8006.02,-348.31 8099.35,-333.01 8167.41,-321.85"/>
<polygon fill="black" stroke="black" points="8167.74,-325.35 8177.04,-320.28 8166.61,-318.44 8167.74,-325.35"/>
</g>
<!-- 13 -->
<g id="node14" class="node">
<title>13</title>
<ellipse fill="none" stroke="black" cx="7479.02" cy="-1818" rx="320.05" ry="18"/>
<text text-anchor="middle" x="7479.02" y="-1812.95" font-family="Times New Roman,serif" font-size="14.00">You: Hold on, how do I know what Kedran mosaic tiles are supposed to look like?</text>
</g>
<!-- 17 -->
<g id="node18" class="node">
<title>17</title>
<polygon fill="none" stroke="black" points="6746.02,-1764 6418.62,-1746 6746.02,-1728 7073.42,-1746 6746.02,-1764"/>
<text text-anchor="middle" x="6746.02" y="-1740.95" font-family="Times New Roman,serif" font-size="14.00">!(Variable[&quot;doomed.fortress_accident_kim_switch_done&quot;])</text>
</g>
<!-- 13&#45;&gt;17 -->
<g id="edge16" class="edge">
<title>13&#45;&gt;17</title>
<path fill="none" stroke="black" d="M7321.32,-1801.94C7187.49,-1789.16 6997.92,-1771.06 6873.51,-1759.17"/>
<polygon fill="black" stroke="black" points="6873.84,-1755.69 6863.55,-1758.22 6873.18,-1762.66 6873.84,-1755.69"/>
</g>
<!-- 30 -->
<g id="node31" class="node">
<title>30</title>
<ellipse fill="none" stroke="black" cx="8371.02" cy="-234" rx="730.01" ry="18"/>
<text text-anchor="middle" x="8371.02" y="-228.95" font-family="Times New Roman,serif" font-size="14.00">Kim Kitsuragi: &quot;The schedule.&quot; He nods at the calendar on the chalkboard, wiping his marker&#45;stained fingers clean. &quot;I know *doom* when I see it &#45;&#45; the company was running out of funding.&quot;</text>
</g>
<!-- 14&#45;&gt;30 -->
<g id="edge17" class="edge">
<title>14&#45;&gt;30</title>
<path fill="none" stroke="black" d="M8285.38,-288.05C8299.87,-279.07 8317.89,-267.91 8333.66,-258.14"/>
<polygon fill="black" stroke="black" points="8335.19,-261.31 8341.85,-253.07 8331.5,-255.36 8335.19,-261.31"/>
</g>
<!-- 15 -->
<g id="node16" class="node">
<title>15</title>
<ellipse fill="none" stroke="black" cx="8820.02" cy="-1962" rx="222.3" ry="18"/>
<text text-anchor="middle" x="8820.02" y="-1956.95" font-family="Times New Roman,serif" font-size="14.00">Variable[&quot;doomed.fortress_accident_kim_switch_done&quot;]</text>
</g>
<!-- 15&#45;&gt;15 -->
<g id="edge19" class="edge">
<title>15&#45;&gt;15</title>
<path fill="none" stroke="black" d="M8972.25,-1975.5C9021.36,-1975.38 9060.32,-1970.88 9060.32,-1962 9060.32,-1953.82 9027.21,-1949.35 8983.56,-1948.61"/>
<polygon fill="black" stroke="black" points="8983.8,-1945.11 8973.77,-1948.52 8983.73,-1952.11 8983.8,-1945.11"/>
</g>
<!-- 16 -->
<g id="node17" class="node">
<title>16</title>
<polygon fill="none" stroke="black" points="8820.02,-1908 8505.65,-1890 8820.02,-1872 9134.4,-1890 8820.02,-1908"/>
<text text-anchor="middle" x="8820.02" y="-1884.95" font-family="Times New Roman,serif" font-size="14.00">Variable[&quot;doomed.fortress_accident_kim_switch_done&quot;]</text>
</g>
<!-- 15&#45;&gt;16 -->
<g id="edge18" class="edge">
<title>15&#45;&gt;16</title>
<path fill="none" stroke="black" d="M8820.02,-1943.7C8820.02,-1936.41 8820.02,-1927.73 8820.02,-1919.54"/>
<polygon fill="black" stroke="black" points="8823.52,-1919.62 8820.02,-1909.62 8816.52,-1919.62 8823.52,-1919.62"/>
</g>
<!-- 33 -->
<g id="node34" class="node">
<title>33</title>
<ellipse fill="none" stroke="black" cx="6380.02" cy="-1674" rx="58.52" ry="18"/>
<text text-anchor="middle" x="6380.02" y="-1668.95" font-family="Times New Roman,serif" font-size="14.00">IsKimHere()</text>
</g>
<!-- 17&#45;&gt;33 -->
<g id="edge20" class="edge">
<title>17&#45;&gt;33</title>
<path fill="none" stroke="black" d="M6675.02,-1731.42C6606.68,-1718.35 6504.47,-1698.8 6440.07,-1686.48"/>
<polygon fill="black" stroke="black" points="6440.86,-1683.07 6430.38,-1684.63 6439.54,-1689.95 6440.86,-1683.07"/>
</g>
<!-- 42 -->
<g id="node43" class="node">
<title>42</title>
<ellipse fill="none" stroke="black" cx="7831.02" cy="-450" rx="59.54" ry="18"/>
<text text-anchor="middle" x="7831.02" y="-444.95" font-family="Times New Roman,serif" font-size="14.00">fireplace hub</text>
</g>
<!-- 18&#45;&gt;42 -->
<g id="edge21" class="edge">
<title>18&#45;&gt;42</title>
<path fill="none" stroke="black" d="M7486.11,-503.83C7574.66,-490.27 7695.03,-471.83 7767.65,-460.71"/>
<polygon fill="black" stroke="black" points="7768.03,-464.19 7777.39,-459.22 7766.97,-457.27 7768.03,-464.19"/>
</g>
<!-- 19 -->
<g id="node20" class="node">
<title>19</title>
<ellipse fill="none" stroke="black" cx="8763.02" cy="-738" rx="771.98" ry="18"/>
<text text-anchor="middle" x="8763.02" y="-732.95" font-family="Times New Roman,serif" font-size="14.00">Frequency Fireplace: You think so? The web is comprised of radio stations. All lead back to one red heart, titled: The Game Master Frequency. A note says: &#39;This one can listen in on any station it wants?!&#39;</text>
</g>
<!-- 19&#45;&gt;9 -->
<g id="edge22" class="edge">
<title>19&#45;&gt;9</title>
<path fill="none" stroke="black" d="M8655.25,-719.7C8591.72,-709.5 8511.24,-696.58 8445.88,-686.08"/>
<polygon fill="black" stroke="black" points="8446.61,-682.66 8436.18,-684.53 8445.5,-689.57 8446.61,-682.66"/>
</g>
<!-- 20 -->
<g id="node21" class="node">
<title>20</title>
<ellipse fill="none" stroke="black" cx="7804.02" cy="-1890" rx="683.95" ry="18"/>
<text text-anchor="middle" x="7804.02" y="-1884.95" font-family="Times New Roman,serif" font-size="14.00">Kim Kitsuragi: &quot;My god...&quot; The lieutenant leans closer, his finger tracking the maddening rhizome. &quot;It&#39;s as if the *less money* they had, the more ambitious their project became.&quot;</text>
</g>
<!-- 20&#45;&gt;13 -->
<g id="edge23" class="edge">
<title>20&#45;&gt;13</title>
<path fill="none" stroke="black" d="M7723.68,-1871.7C7676.69,-1861.57 7617.25,-1848.77 7568.72,-1838.32"/>
<polygon fill="black" stroke="black" points="7569.59,-1834.93 7559.07,-1836.24 7568.11,-1841.77 7569.59,-1834.93"/>
</g>
<!-- 23 -->
<g id="node24" class="node">
<title>23</title>
<ellipse fill="none" stroke="black" cx="8221.02" cy="-1818" rx="312.37" ry="18"/>
<text text-anchor="middle" x="8221.02" y="-1812.95" font-family="Times New Roman,serif" font-size="14.00">Frequency Fireplace: Whoever decides to call in to a call&#45;in station, it looks like.</text>
</g>
<!-- 20&#45;&gt;23 -->
<g id="edge24" class="edge">
<title>20&#45;&gt;23</title>
<path fill="none" stroke="black" d="M7906.83,-1871.74C7968.94,-1861.32 8048.06,-1848.03 8111.37,-1837.41"/>
<polygon fill="black" stroke="black" points="8111.82,-1840.88 8121.1,-1835.77 8110.66,-1833.98 8111.82,-1840.88"/>
</g>
<!-- 43 -->
<g id="node44" class="node">
<title>43</title>
<ellipse fill="none" stroke="black" cx="8750.02" cy="-162" rx="150.64" ry="18"/>
<text text-anchor="middle" x="8750.02" y="-156.95" font-family="Times New Roman,serif" font-size="14.00">You: What else? (Squint at the lines.)</text>
</g>
<!-- 21&#45;&gt;43 -->
<g id="edge25" class="edge">
<title>21&#45;&gt;43</title>
<path fill="none" stroke="black" d="M8528.69,-35.83C8486.09,-43.67 8450.25,-55.16 8436.02,-72 8425.69,-84.22 8425.69,-95.78 8436.02,-108 8457.79,-133.75 8530.1,-146.99 8599.84,-153.8"/>
<polygon fill="black" stroke="black" points="8599.22,-157.26 8609.5,-154.7 8599.87,-150.29 8599.22,-157.26"/>
</g>
<!-- 22 -->
<g id="node23" class="node">
<title>22</title>
<ellipse fill="none" stroke="black" cx="9084.02" cy="-1026" rx="168.56" ry="18"/>
<text text-anchor="middle" x="9084.02" y="-1020.95" font-family="Times New Roman,serif" font-size="14.00">Empathy: All of this gone, left unrealized.</text>
</g>
<!-- 32 -->
<g id="node33" class="node">
<title>32</title>
<ellipse fill="none" stroke="black" cx="9084.02" cy="-954" rx="366.11" ry="18"/>
<text text-anchor="middle" x="9084.02" y="-948.95" font-family="Times New Roman,serif" font-size="14.00">Logic: There&#39;s no way a little basement studio working *here* could pull anything like this off.</text>
</g>
<!-- 22&#45;&gt;32 -->
<g id="edge26" class="edge">
<title>22&#45;&gt;32</title>
<path fill="none" stroke="black" d="M9084.02,-1007.7C9084.02,-1000.41 9084.02,-991.73 9084.02,-983.54"/>
<polygon fill="black" stroke="black" points="9087.52,-983.62 9084.02,-973.62 9080.52,-983.62 9087.52,-983.62"/>
</g>
<!-- 23&#45;&gt;10 -->
<g id="edge27" class="edge">
<title>23&#45;&gt;10</title>
<path fill="none" stroke="black" d="M8226.71,-1799.7C8229.16,-1792.24 8232.09,-1783.32 8234.83,-1774.97"/>
<polygon fill="black" stroke="black" points="8238.13,-1776.14 8237.93,-1765.54 8231.48,-1773.95 8238.13,-1776.14"/>
</g>
<!-- 24 -->
<g id="node25" class="node">
<title>24</title>
<ellipse fill="none" stroke="black" cx="7804.02" cy="-1962" rx="246.86" ry="18"/>
<text text-anchor="middle" x="7804.02" y="-1956.95" font-family="Times New Roman,serif" font-size="14.00">You: &quot;Mhm. The cost of airwidth alone must have been huge.&quot;</text>
</g>
<!-- 24&#45;&gt;20 -->
<g id="edge28" class="edge">
<title>24&#45;&gt;20</title>
<path fill="none" stroke="black" d="M7804.02,-1943.7C7804.02,-1936.41 7804.02,-1927.73 7804.02,-1919.54"/>
<polygon fill="black" stroke="black" points="7807.52,-1919.62 7804.02,-1909.62 7800.52,-1919.62 7807.52,-1919.62"/>
</g>
<!-- 25&#45;&gt;2 -->
<g id="edge29" class="edge">
<title>25&#45;&gt;2</title>
<path fill="none" stroke="black" d="M8995.45,-1223.7C8988.05,-1215.47 8979.06,-1205.48 8970.9,-1196.42"/>
<polygon fill="black" stroke="black" points="8973.72,-1194.32 8964.43,-1189.23 8968.52,-1199 8973.72,-1194.32"/>
</g>
<!-- 26 -->
<g id="node27" class="node">
<title>26</title>
<ellipse fill="none" stroke="black" cx="8327.02" cy="-522" rx="316.47" ry="18"/>
<text text-anchor="middle" x="8327.02" y="-516.95" font-family="Times New Roman,serif" font-size="14.00">Conceptualization: The whole thing resembles Kedran mosaic tiles. Very Pisantic.</text>
</g>
<!-- 26&#45;&gt;42 -->
<g id="edge30" class="edge">
<title>26&#45;&gt;42</title>
<path fill="none" stroke="black" d="M8211.98,-504.76C8113.65,-490.89 7975.73,-471.42 7895.64,-460.12"/>
<polygon fill="black" stroke="black" points="7896.14,-456.66 7885.75,-458.72 7895.16,-463.59 7896.14,-456.66"/>
</g>
<!-- 27 -->
<g id="node28" class="node">
<title>27</title>
<ellipse fill="none" stroke="black" cx="9084.02" cy="-882" rx="58.52" ry="18"/>
<text text-anchor="middle" x="9084.02" y="-876.95" font-family="Times New Roman,serif" font-size="14.00">IsKimHere()</text>
</g>
<!-- 28 -->
<g id="node29" class="node">
<title>28</title>
<polygon fill="none" stroke="black" points="8870.02,-828 8787.27,-810 8870.02,-792 8952.78,-810 8870.02,-828"/>
<text text-anchor="middle" x="8870.02" y="-804.95" font-family="Times New Roman,serif" font-size="14.00">IsKimHere()</text>
</g>
<!-- 27&#45;&gt;28 -->
<g id="edge31" class="edge">
<title>27&#45;&gt;28</title>
<path fill="none" stroke="black" d="M9045.27,-868.32C9007.89,-856.1 8951.43,-837.63 8912.76,-824.98"/>
<polygon fill="black" stroke="black" points="8913.9,-821.67 8903.3,-821.89 8911.72,-828.32 8913.9,-821.67"/>
</g>
<!-- 29 -->
<g id="node30" class="node">
<title>29</title>
<polygon fill="none" stroke="black" points="9649.02,-756 9553.24,-738 9649.02,-720 9744.81,-738 9649.02,-756"/>
<text text-anchor="middle" x="9649.02" y="-732.95" font-family="Times New Roman,serif" font-size="14.00">!(IsKimHere())</text>
</g>
<!-- 27&#45;&gt;29 -->
<g id="edge32" class="edge">
<title>27&#45;&gt;29</title>
<path fill="none" stroke="black" d="M9128.36,-869.86C9231.87,-843.84 9488.98,-779.22 9598.41,-751.72"/>
<polygon fill="black" stroke="black" points="9599.15,-755.14 9607.99,-749.31 9597.44,-748.35 9599.15,-755.14"/>
</g>
<!-- 28&#45;&gt;19 -->
<g id="edge33" class="edge">
<title>28&#45;&gt;19</title>
<path fill="none" stroke="black" d="M8850.15,-796C8835.77,-786.59 8815.94,-773.62 8798.83,-762.42"/>
<polygon fill="black" stroke="black" points="8801.2,-759.8 8790.92,-757.25 8797.37,-765.65 8801.2,-759.8"/>
</g>
<!-- 29&#45;&gt;43 -->
<g id="edge34" class="edge">
<title>29&#45;&gt;43</title>
<path fill="none" stroke="black" d="M9608.39,-727.2C9525.15,-705.95 9343.02,-652.83 9343.02,-595 9343.02,-595 9343.02,-595 9343.02,-305 9343.02,-214.3 9077.31,-181.4 8901.62,-169.56"/>
<polygon fill="black" stroke="black" points="8901.9,-166.07 8891.69,-168.91 8901.44,-173.05 8901.9,-166.07"/>
</g>
<!-- 30&#45;&gt;43 -->
<g id="edge35" class="edge">
<title>30&#45;&gt;43</title>
<path fill="none" stroke="black" d="M8464.71,-215.7C8524.12,-204.72 8600.58,-190.6 8659.39,-179.74"/>
<polygon fill="black" stroke="black" points="8659.85,-183.21 8669.05,-177.96 8658.58,-176.33 8659.85,-183.21"/>
</g>
<!-- 31&#45;&gt;22 -->
<g id="edge36" class="edge">
<title>31&#45;&gt;22</title>
<path fill="none" stroke="black" d="M9084.02,-1079.7C9084.02,-1072.41 9084.02,-1063.73 9084.02,-1055.54"/>
<polygon fill="black" stroke="black" points="9087.52,-1055.62 9084.02,-1045.62 9080.52,-1055.62 9087.52,-1055.62"/>
</g>
<!-- 32&#45;&gt;27 -->
<g id="edge37" class="edge">
<title>32&#45;&gt;27</title>
<path fill="none" stroke="black" d="M9084.02,-935.7C9084.02,-928.41 9084.02,-919.73 9084.02,-911.54"/>
<polygon fill="black" stroke="black" points="9087.52,-911.62 9084.02,-901.62 9080.52,-911.62 9087.52,-911.62"/>
</g>
<!-- 34 -->
<g id="node35" class="node">
<title>34</title>
<polygon fill="none" stroke="black" points="6000.02,-1620 5917.27,-1602 6000.02,-1584 6082.78,-1602 6000.02,-1620"/>
<text text-anchor="middle" x="6000.02" y="-1596.95" font-family="Times New Roman,serif" font-size="14.00">IsKimHere()</text>
</g>
<!-- 33&#45;&gt;34 -->
<g id="edge38" class="edge">
<title>33&#45;&gt;34</title>
<path fill="none" stroke="black" d="M6330.73,-1663.92C6259.49,-1650.8 6128.18,-1626.61 6054.26,-1612.99"/>
<polygon fill="black" stroke="black" points="6055.31,-1609.63 6044.84,-1611.26 6054.04,-1616.51 6055.31,-1609.63"/>
</g>
<!-- 35 -->
<g id="node36" class="node">
<title>35</title>
<polygon fill="none" stroke="black" points="6380.02,-1620 6284.24,-1602 6380.02,-1584 6475.81,-1602 6380.02,-1620"/>
<text text-anchor="middle" x="6380.02" y="-1596.95" font-family="Times New Roman,serif" font-size="14.00">!(IsKimHere())</text>
</g>
<!-- 33&#45;&gt;35 -->
<g id="edge39" class="edge">
<title>33&#45;&gt;35</title>
<path fill="none" stroke="black" d="M6380.02,-1655.7C6380.02,-1648.41 6380.02,-1639.73 6380.02,-1631.54"/>
<polygon fill="black" stroke="black" points="6383.52,-1631.62 6380.02,-1621.62 6376.52,-1631.62 6383.52,-1631.62"/>
</g>
<!-- 36 -->
<g id="node37" class="node">
<title>36</title>
<ellipse fill="none" stroke="black" cx="5977.02" cy="-1530" rx="1401.5" ry="18"/>
<text text-anchor="middle" x="5977.02" y="-1524.95" font-family="Times New Roman,serif" font-size="14.00">Variable[&quot;doomed.moodboard_read_slogans&quot;] == true &#160;and &#160;Variable[&quot;doomed.moodboard_read_calendar&quot;] == true &#160;and &#160;Variable[&quot;doomed.moodboard_viewed_drawings&quot;] == true &#160;and &#160;Variable[&quot;doomed.moodboard_viewed_photos&quot;] == true &#160;and &#160;Variable[&quot;doomed.fireplace_have_read_it&quot;] == true &#160;and &#160;Variable[&quot;doomed.doomed_radiocomputer_turned_on&quot;] == true</text>
</g>
<!-- 34&#45;&gt;36 -->
<g id="edge40" class="edge">
<title>34&#45;&gt;36</title>
<path fill="none" stroke="black" d="M5994.69,-1584.76C5992.15,-1577.04 5989.04,-1567.59 5986.15,-1558.77"/>
<polygon fill="black" stroke="black" points="5989.57,-1557.97 5983.12,-1549.56 5982.92,-1560.15 5989.57,-1557.97"/>
</g>
<!-- 37 -->
<g id="node38" class="node">
<title>37</title>
<polygon fill="none" stroke="black" points="1982.02,-1476 0,-1458 1982.02,-1440 3964.04,-1458 1982.02,-1476"/>
<text text-anchor="middle" x="1982.02" y="-1452.95" font-family="Times New Roman,serif" font-size="14.00">Variable[&quot;doomed.moodboard_read_slogans&quot;] == true &#160;and &#160;Variable[&quot;doomed.moodboard_read_calendar&quot;] == true &#160;and &#160;Variable[&quot;doomed.moodboard_viewed_drawings&quot;] == true &#160;and &#160;Variable[&quot;doomed.moodboard_viewed_photos&quot;] == true &#160;and &#160;Variable[&quot;doomed.fireplace_have_read_it&quot;] == true &#160;and &#160;Variable[&quot;doomed.doomed_radiocomputer_turned_on&quot;] == true</text>
</g>
<!-- 36&#45;&gt;37 -->
<g id="edge41" class="edge">
<title>36&#45;&gt;37</title>
<path fill="none" stroke="black" d="M5170.68,-1514.87C4429.99,-1501.89 3345.06,-1482.88 2651.21,-1470.73"/>
<polygon fill="black" stroke="black" points="2651.32,-1467.23 2641.26,-1470.55 2651.2,-1474.23 2651.32,-1467.23"/>
</g>
<!-- 38 -->
<g id="node39" class="node">
<title>38</title>
<polygon fill="none" stroke="black" points="5977.02,-1476 3981.97,-1458 5977.02,-1440 7972.07,-1458 5977.02,-1476"/>
<text text-anchor="middle" x="5977.02" y="-1452.95" font-family="Times New Roman,serif" font-size="14.00">!(Variable[&quot;doomed.moodboard_read_slogans&quot;] == true &#160;and &#160;Variable[&quot;doomed.moodboard_read_calendar&quot;] == true &#160;and &#160;Variable[&quot;doomed.moodboard_viewed_drawings&quot;] == true &#160;and &#160;Variable[&quot;doomed.moodboard_viewed_photos&quot;] == true &#160;and &#160;Variable[&quot;doomed.fireplace_have_read_it&quot;] == true &#160;and &#160;Variable[&quot;doomed.doomed_radiocomputer_turned_on&quot;] == true)</text>
</g>
<!-- 36&#45;&gt;38 -->
<g id="edge42" class="edge">
<title>36&#45;&gt;38</title>
<path fill="none" stroke="black" d="M5977.02,-1511.7C5977.02,-1504.41 5977.02,-1495.73 5977.02,-1487.54"/>
<polygon fill="black" stroke="black" points="5980.52,-1487.62 5977.02,-1477.62 5973.52,-1487.62 5980.52,-1487.62"/>
</g>
<!-- 46 -->
<g id="node47" class="node">
<title>46</title>
<ellipse fill="none" stroke="black" cx="1982.02" cy="-1386" rx="271.94" ry="18"/>
<text text-anchor="middle" x="1982.02" y="-1380.95" font-family="Times New Roman,serif" font-size="14.00">SetVariableValue(&quot;kimswitch.fortress_accident&quot;, true) &#45;&#45;[[ Variable[ ]]</text>
</g>
<!-- 37&#45;&gt;46 -->
<g id="edge43" class="edge">
<title>37&#45;&gt;46</title>
<path fill="none" stroke="black" d="M1982.02,-1439.7C1982.02,-1432.41 1982.02,-1423.73 1982.02,-1415.54"/>
<polygon fill="black" stroke="black" points="1985.52,-1415.62 1982.02,-1405.62 1978.52,-1415.62 1985.52,-1415.62"/>
</g>
<!-- 39 -->
<g id="node40" class="node">
<title>39</title>
<ellipse fill="none" stroke="black" cx="8099.02" cy="-1242" rx="757.65" ry="18"/>
<text text-anchor="middle" x="8099.02" y="-1236.95" font-family="Times New Roman,serif" font-size="14.00">Frequency Fireplace: Perhaps... The web is comprised of radio stations. All lead back to one red heart, titled: The Game Master Frequency. A note says: &#39;This one can listen in on any station it wants?!&#39;</text>
</g>
<!-- 39&#45;&gt;9 -->
<g id="edge44" class="edge">
<title>39&#45;&gt;9</title>
<path fill="none" stroke="black" d="M8063.64,-1223.54C8023.35,-1200.86 7963.02,-1157.2 7963.02,-1099 7963.02,-1099 7963.02,-1099 7963.02,-809 7963.02,-768.55 7952.61,-747.76 7982.02,-720 7998.68,-704.28 8035.58,-693.22 8079.32,-685.44"/>
<polygon fill="black" stroke="black" points="8079.81,-688.91 8089.09,-683.79 8078.64,-682.01 8079.81,-688.91"/>
</g>
<!-- 40&#45;&gt;18 -->
<g id="edge45" class="edge">
<title>40&#45;&gt;18</title>
<path fill="none" stroke="black" d="M7464.09,-1300C7407.99,-1291.89 7351.54,-1279.22 7332.02,-1260 7303.21,-1231.62 7313.02,-1211.45 7313.02,-1171 7313.02,-1171 7313.02,-1171 7313.02,-665 7313.02,-621.99 7336.94,-577.16 7354.83,-549.66"/>
<polygon fill="black" stroke="black" points="7357.57,-551.85 7360.24,-541.6 7351.76,-547.95 7357.57,-551.85"/>
</g>
<!-- 41&#45;&gt;4 -->
<g id="edge46" class="edge">
<title>41&#45;&gt;4</title>
<path fill="none" stroke="black" d="M8815.13,-1367.7C8820.71,-1359.73 8827.45,-1350.1 8833.64,-1341.26"/>
<polygon fill="black" stroke="black" points="8836.31,-1343.54 8839.18,-1333.34 8830.58,-1339.53 8836.31,-1343.54"/>
</g>
<!-- 42&#45;&gt;5 -->
<g id="edge48" class="edge">
<title>42&#45;&gt;5</title>
<path fill="none" stroke="black" d="M7774.09,-444.46C7646.54,-434.29 7333.35,-409.32 7132.74,-393.33"/>
<polygon fill="black" stroke="black" points="7133.24,-389.86 7122.99,-392.55 7132.68,-396.84 7133.24,-389.86"/>
</g>
<!-- 42&#45;&gt;12 -->
<g id="edge47" class="edge">
<title>42&#45;&gt;12</title>
<path fill="none" stroke="black" d="M7831.02,-431.7C7831.02,-424.41 7831.02,-415.73 7831.02,-407.54"/>
<polygon fill="black" stroke="black" points="7834.52,-407.62 7831.02,-397.62 7827.52,-407.62 7834.52,-407.62"/>
</g>
<!-- 47 -->
<g id="node48" class="node">
<title>47</title>
<ellipse fill="none" stroke="black" cx="8389.02" cy="-378" rx="62.61" ry="18"/>
<text text-anchor="middle" x="8389.02" y="-372.95" font-family="Times New Roman,serif" font-size="14.00">You: [Leave.]</text>
</g>
<!-- 42&#45;&gt;47 -->
<g id="edge49" class="edge">
<title>42&#45;&gt;47</title>
<path fill="none" stroke="black" d="M7888.7,-445.1C7980.21,-438.38 8164.04,-422.7 8318.02,-396 8322.86,-395.16 8327.86,-394.19 8332.86,-393.14"/>
<polygon fill="black" stroke="black" points="8333.25,-396.63 8342.27,-391.07 8331.75,-389.8 8333.25,-396.63"/>
</g>
<!-- 43&#45;&gt;11 -->
<g id="edge50" class="edge">
<title>43&#45;&gt;11</title>
<path fill="none" stroke="black" d="M8822.28,-145.81C8871.3,-135.51 8936.57,-121.79 8989.55,-110.65"/>
<polygon fill="black" stroke="black" points="8990.1,-114.11 8999.17,-108.63 8988.66,-107.26 8990.1,-114.11"/>
</g>
<!-- 44&#45;&gt;39 -->
<g id="edge51" class="edge">
<title>44&#45;&gt;39</title>
<path fill="none" stroke="black" d="M8274.71,-1439.85C8241.26,-1402.36 8161.45,-1312.95 8121.96,-1268.7"/>
<polygon fill="black" stroke="black" points="8124.68,-1266.49 8115.41,-1261.36 8119.46,-1271.15 8124.68,-1266.49"/>
</g>
<!-- 45&#45;&gt;26 -->
<g id="edge52" class="edge">
<title>45&#45;&gt;26</title>
<path fill="none" stroke="black" d="M8327.02,-575.7C8327.02,-568.41 8327.02,-559.73 8327.02,-551.54"/>
<polygon fill="black" stroke="black" points="8330.52,-551.62 8327.02,-541.62 8323.52,-551.62 8330.52,-551.62"/>
</g>
<!-- 48&#45;&gt;6 -->
<g id="edge53" class="edge">
<title>48&#45;&gt;6</title>
<path fill="none" stroke="black" d="M8290.02,-1655.7C8290.02,-1648.41 8290.02,-1639.73 8290.02,-1631.54"/>
<polygon fill="black" stroke="black" points="8293.52,-1631.62 8290.02,-1621.62 8286.52,-1631.62 8293.52,-1631.62"/>
</g>
<!-- 48&#45;&gt;31 -->
<g id="edge54" class="edge">
<title>48&#45;&gt;31</title>
<path fill="none" stroke="black" d="M8571.56,-1664.44C8903.33,-1650.49 9410.02,-1615.37 9410.02,-1531 9410.02,-1531 9410.02,-1531 9410.02,-1241 9410.02,-1200.55 9420.18,-1180.03 9391.02,-1152 9367.48,-1129.36 9297.82,-1116.29 9230.79,-1108.79"/>
<polygon fill="black" stroke="black" points="9231.45,-1105.34 9221.14,-1107.75 9230.71,-1112.3 9231.45,-1105.34"/>
</g>
</g>
</svg>
