<?xml version="1.0" encoding="UTF-8" standalone="no"?>
<!DOCTYPE svg PUBLIC "-//W3C//DTD SVG 1.1//EN"
 "http://www.w3.org/Graphics/SVG/1.1/DTD/svg11.dtd">
<!-- Generated by graphviz version 12.2.1 (20241206.2353)
 -->
<!-- Title: G Pages: 1 -->
<svg width="4912pt" height="952pt"
 viewBox="0.00 0.00 4912.40 951.97" xmlns="http://www.w3.org/2000/svg" xmlns:xlink="http://www.w3.org/1999/xlink">
<g id="graph0" class="graph" transform="scale(1 1) rotate(0) translate(4 947.97)">
<title>G</title>
<polygon fill="white" stroke="none" points="-4,4 -4,-947.97 4908.4,-947.97 4908.4,4 -4,4"/>
<!-- 0 -->
<g id="node1" class="node">
<title>0</title>
<ellipse fill="none" stroke="black" cx="1343.95" cy="-493.97" rx="39.07" ry="18"/>
<text text-anchor="middle" x="1343.95" y="-488.92" font-family="Times New Roman,serif" font-size="14.00">START</text>
</g>
<!-- 1 -->
<g id="node2" class="node">
<title>1</title>
<ellipse fill="none" stroke="black" cx="1343.95" cy="-421.97" rx="29.86" ry="18"/>
<text text-anchor="middle" x="1343.95" y="-416.92" font-family="Times New Roman,serif" font-size="14.00">input</text>
</g>
<!-- 0&#45;&gt;1 -->
<g id="edge1" class="edge">
<title>0&#45;&gt;1</title>
<path fill="none" stroke="black" d="M1343.95,-475.66C1343.95,-468.37 1343.95,-459.69 1343.95,-451.5"/>
<polygon fill="black" stroke="black" points="1347.45,-451.58 1343.95,-441.58 1340.45,-451.58 1347.45,-451.58"/>
</g>
<!-- 10 -->
<g id="node11" class="node">
<title>10</title>
<ellipse fill="none" stroke="black" cx="3110.95" cy="-338.97" rx="300.34" ry="28.99"/>
<text text-anchor="middle" x="3110.95" y="-342.17" font-family="Times New Roman,serif" font-size="14.00">Pile of Eternite: An inconspicuous pile of the roofing material, eternite.</text>
<text text-anchor="middle" x="3110.95" y="-325.67" font-family="Times New Roman,serif" font-size="14.00">The pile of eternite looks stranger now that Cuno told you about his... pad.</text>
</g>
<!-- 1&#45;&gt;10 -->
<g id="edge2" class="edge">
<title>1&#45;&gt;10</title>
<path fill="none" stroke="black" d="M1366.15,-409.59C1371.52,-407.32 1377.33,-405.25 1382.95,-403.97 1517.16,-373.38 2345.97,-353.78 2805.25,-345.12"/>
<polygon fill="black" stroke="black" points="2805.26,-348.62 2815.19,-344.93 2805.13,-341.62 2805.26,-348.62"/>
</g>
<!-- 2 -->
<g id="node3" class="node">
<title>2</title>
<ellipse fill="none" stroke="black" cx="4314.95" cy="-781.97" rx="218.2" ry="18"/>
<text text-anchor="middle" x="4314.95" y="-776.92" font-family="Times New Roman,serif" font-size="14.00">Pile of Eternite: Variable[&quot;yard.shack_strange_feeling&quot;]</text>
</g>
<!-- 3 -->
<g id="node4" class="node">
<title>3</title>
<polygon fill="none" stroke="black" points="3893.95,-727.97 3671.5,-709.97 3893.95,-691.97 4116.4,-709.97 3893.95,-727.97"/>
<text text-anchor="middle" x="3893.95" y="-704.92" font-family="Times New Roman,serif" font-size="14.00">Variable[&quot;yard.shack_strange_feeling&quot;]</text>
</g>
<!-- 2&#45;&gt;3 -->
<g id="edge3" class="edge">
<title>2&#45;&gt;3</title>
<path fill="none" stroke="black" d="M4220.73,-765.3C4147.11,-753.06 4045.83,-736.22 3975.62,-724.54"/>
<polygon fill="black" stroke="black" points="3976.56,-721.15 3966.12,-722.96 3975.41,-728.06 3976.56,-721.15"/>
</g>
<!-- 4 -->
<g id="node5" class="node">
<title>4</title>
<polygon fill="none" stroke="black" points="4369.95,-727.97 4134.47,-709.97 4369.95,-691.97 4605.43,-709.97 4369.95,-727.97"/>
<text text-anchor="middle" x="4369.95" y="-704.92" font-family="Times New Roman,serif" font-size="14.00">!(Variable[&quot;yard.shack_strange_feeling&quot;])</text>
</g>
<!-- 2&#45;&gt;4 -->
<g id="edge4" class="edge">
<title>2&#45;&gt;4</title>
<path fill="none" stroke="black" d="M4328.55,-763.66C4335.06,-755.37 4342.99,-745.28 4350.16,-736.15"/>
<polygon fill="black" stroke="black" points="4352.91,-738.33 4356.33,-728.3 4347.4,-734 4352.91,-738.33"/>
</g>
<!-- 12 -->
<g id="node13" class="node">
<title>12</title>
<ellipse fill="none" stroke="black" cx="3883.95" cy="-565.97" rx="204.38" ry="18"/>
<text text-anchor="middle" x="3883.95" y="-560.92" font-family="Times New Roman,serif" font-size="14.00">Perception (Sight): It reveals no secrets at this time.</text>
</g>
<!-- 3&#45;&gt;12 -->
<g id="edge5" class="edge">
<title>3&#45;&gt;12</title>
<path fill="none" stroke="black" d="M3892.75,-691.84C3891.06,-667.96 3887.99,-624.35 3885.96,-595.51"/>
<polygon fill="black" stroke="black" points="3889.46,-595.39 3885.27,-585.66 3882.48,-595.89 3889.46,-595.39"/>
</g>
<!-- 21 -->
<g id="node22" class="node">
<title>21</title>
<ellipse fill="none" stroke="black" cx="4352.95" cy="-637.97" rx="320.56" ry="18"/>
<text text-anchor="middle" x="4352.95" y="-632.92" font-family="Times New Roman,serif" font-size="14.00">Conceptualization: Rhythmic pattern &#45;&#45; calms your mind. Mammals like this stuff.</text>
</g>
<!-- 4&#45;&gt;21 -->
<g id="edge6" class="edge">
<title>4&#45;&gt;21</title>
<path fill="none" stroke="black" d="M4365.84,-692.02C4364.03,-684.57 4361.85,-675.61 4359.81,-667.19"/>
<polygon fill="black" stroke="black" points="4363.27,-666.6 4357.5,-657.71 4356.46,-668.26 4363.27,-666.6"/>
</g>
<!-- 5 -->
<g id="node6" class="node">
<title>5</title>
<ellipse fill="none" stroke="black" cx="3806.95" cy="-853.97" rx="83.6" ry="18"/>
<text text-anchor="middle" x="3806.95" y="-848.92" font-family="Times New Roman,serif" font-size="14.00">You: What feeling?</text>
</g>
<!-- 18 -->
<g id="node19" class="node">
<title>18</title>
<ellipse fill="none" stroke="black" cx="3698.95" cy="-781.97" rx="356.39" ry="18"/>
<text text-anchor="middle" x="3698.95" y="-776.92" font-family="Times New Roman,serif" font-size="14.00">Inland Empire: Hard to say, it&#39;s gone now. Feelings pass, you see. Especially the small ones.</text>
</g>
<!-- 5&#45;&gt;18 -->
<g id="edge7" class="edge">
<title>5&#45;&gt;18</title>
<path fill="none" stroke="black" d="M3781.36,-836.38C3767.64,-827.49 3750.51,-816.39 3735.43,-806.61"/>
<polygon fill="black" stroke="black" points="3737.44,-803.74 3727.14,-801.24 3733.63,-809.61 3737.44,-803.74"/>
</g>
<!-- 6 -->
<g id="node7" class="node">
<title>6</title>
<ellipse fill="none" stroke="black" cx="2487.95" cy="-565.97" rx="237.14" ry="18"/>
<text text-anchor="middle" x="2487.95" y="-560.92" font-family="Times New Roman,serif" font-size="14.00">Pile of Eternite: Variable[&quot;yard.shack_ency_eternite_dump&quot;]</text>
</g>
<!-- 7 -->
<g id="node8" class="node">
<title>7</title>
<polygon fill="none" stroke="black" points="3194.95,-511.97 2945.72,-493.97 3194.95,-475.97 3444.18,-493.97 3194.95,-511.97"/>
<text text-anchor="middle" x="3194.95" y="-488.92" font-family="Times New Roman,serif" font-size="14.00">Variable[&quot;yard.shack_ency_eternite_dump&quot;]</text>
</g>
<!-- 6&#45;&gt;7 -->
<g id="edge9" class="edge">
<title>6&#45;&gt;7</title>
<path fill="none" stroke="black" d="M2628.48,-551.05C2761.45,-537.89 2958.51,-518.38 3081.69,-506.18"/>
<polygon fill="black" stroke="black" points="3081.9,-509.68 3091.51,-505.21 3081.21,-502.71 3081.9,-509.68"/>
</g>
<!-- 8 -->
<g id="node9" class="node">
<title>8</title>
<polygon fill="none" stroke="black" points="2487.95,-511.97 2225.69,-493.97 2487.95,-475.97 2750.21,-493.97 2487.95,-511.97"/>
<text text-anchor="middle" x="2487.95" y="-488.92" font-family="Times New Roman,serif" font-size="14.00">!(Variable[&quot;yard.shack_ency_eternite_dump&quot;])</text>
</g>
<!-- 6&#45;&gt;8 -->
<g id="edge8" class="edge">
<title>6&#45;&gt;8</title>
<path fill="none" stroke="black" d="M2487.95,-547.66C2487.95,-540.37 2487.95,-531.69 2487.95,-523.5"/>
<polygon fill="black" stroke="black" points="2491.45,-523.58 2487.95,-513.58 2484.45,-523.58 2491.45,-523.58"/>
</g>
<!-- 30 -->
<g id="node31" class="node">
<title>30</title>
<ellipse fill="none" stroke="black" cx="3525.95" cy="-338.97" rx="96.39" ry="18"/>
<text text-anchor="middle" x="3525.95" y="-333.92" font-family="Times New Roman,serif" font-size="14.00">Jump to: [real eternite]</text>
</g>
<!-- 7&#45;&gt;30 -->
<g id="edge10" class="edge">
<title>7&#45;&gt;30</title>
<path fill="none" stroke="black" d="M3319.92,-484.51C3429.78,-475.77 3574.96,-460.52 3592.95,-439.97 3614.01,-415.92 3585.98,-384.91 3560.01,-363.84"/>
<polygon fill="black" stroke="black" points="3562.23,-361.14 3552.19,-357.76 3557.93,-366.66 3562.23,-361.14"/>
</g>
<!-- 20 -->
<g id="node21" class="node">
<title>20</title>
<ellipse fill="none" stroke="black" cx="2487.95" cy="-421.97" rx="1096.46" ry="18"/>
<text text-anchor="middle" x="2487.95" y="-416.92" font-family="Times New Roman,serif" font-size="14.00">Encyclopedia: Glad you asked. When junior researcher Õlari Taal invented eternite in the Värtna Polytechnic Institute, some thirty odd years ago, he thought it would last forever &#45;&#45; hence the name eternite. Sadly the only lasting thing turned out to be the material&#39;s highly carcinogenic effect.</text>
</g>
<!-- 8&#45;&gt;20 -->
<g id="edge11" class="edge">
<title>8&#45;&gt;20</title>
<path fill="none" stroke="black" d="M2487.95,-475.66C2487.95,-468.37 2487.95,-459.69 2487.95,-451.5"/>
<polygon fill="black" stroke="black" points="2491.45,-451.58 2487.95,-441.58 2484.45,-451.58 2491.45,-451.58"/>
</g>
<!-- 9 -->
<g id="node10" class="node">
<title>9</title>
<ellipse fill="none" stroke="black" cx="2435.95" cy="-709.97" rx="62.61" ry="18"/>
<text text-anchor="middle" x="2435.95" y="-704.92" font-family="Times New Roman,serif" font-size="14.00">You: [Leave.]</text>
</g>
<!-- 40 -->
<g id="node41" class="node">
<title>40</title>
<ellipse fill="none" stroke="black" cx="3525.95" cy="-255.98" rx="104.58" ry="18"/>
<text text-anchor="middle" x="3525.95" y="-250.93" font-family="Times New Roman,serif" font-size="14.00">You: Discard the feeling.</text>
</g>
<!-- 10&#45;&gt;40 -->
<g id="edge12" class="edge">
<title>10&#45;&gt;40</title>
<path fill="none" stroke="black" d="M3241.69,-312.46C3309.18,-299.29 3389.28,-283.66 3447.23,-272.35"/>
<polygon fill="black" stroke="black" points="3447.88,-275.79 3457.02,-270.43 3446.54,-268.92 3447.88,-275.79"/>
</g>
<!-- 11 -->
<g id="node12" class="node">
<title>11</title>
<ellipse fill="none" stroke="black" cx="443.95" cy="-255.98" rx="232.02" ry="18"/>
<text text-anchor="middle" x="443.95" y="-250.93" font-family="Times New Roman,serif" font-size="14.00">Perception (Sight): There it is! You see a shabby little door.</text>
</g>
<!-- 27 -->
<g id="node28" class="node">
<title>27</title>
<ellipse fill="none" stroke="black" cx="443.95" cy="-183.98" rx="119.93" ry="18"/>
<text text-anchor="middle" x="443.95" y="-178.93" font-family="Times New Roman,serif" font-size="14.00">Pile of Eternite: IsKimHere()</text>
</g>
<!-- 11&#45;&gt;27 -->
<g id="edge13" class="edge">
<title>11&#45;&gt;27</title>
<path fill="none" stroke="black" d="M443.95,-237.68C443.95,-230.39 443.95,-221.71 443.95,-213.52"/>
<polygon fill="black" stroke="black" points="447.45,-213.6 443.95,-203.6 440.45,-213.6 447.45,-213.6"/>
</g>
<!-- 38 -->
<g id="node39" class="node">
<title>38</title>
<ellipse fill="none" stroke="black" cx="3883.95" cy="-338.97" rx="96.39" ry="18"/>
<text text-anchor="middle" x="3883.95" y="-333.92" font-family="Times New Roman,serif" font-size="14.00">Jump to: [real eternite]</text>
</g>
<!-- 12&#45;&gt;38 -->
<g id="edge14" class="edge">
<title>12&#45;&gt;38</title>
<path fill="none" stroke="black" d="M3883.95,-547.68C3883.95,-509.16 3883.95,-415.9 3883.95,-368.57"/>
<polygon fill="black" stroke="black" points="3887.45,-368.83 3883.95,-358.83 3880.45,-368.83 3887.45,-368.83"/>
</g>
<!-- 13 -->
<g id="node14" class="node">
<title>13</title>
<ellipse fill="none" stroke="black" cx="1660.95" cy="-709.97" rx="232.53" ry="18"/>
<text text-anchor="middle" x="1660.95" y="-704.92" font-family="Times New Roman,serif" font-size="14.00">You: Why am I looking at this pile of the roofing material?</text>
</g>
<!-- 14 -->
<g id="node15" class="node">
<title>14</title>
<ellipse fill="none" stroke="black" cx="1589.95" cy="-637.97" rx="206.43" ry="18"/>
<text text-anchor="middle" x="1589.95" y="-632.92" font-family="Times New Roman,serif" font-size="14.00">You: Variable[&quot;yard.cuno_shack_white_perc_sight&quot;]</text>
</g>
<!-- 13&#45;&gt;14 -->
<g id="edge15" class="edge">
<title>13&#45;&gt;14</title>
<path fill="none" stroke="black" d="M1643.4,-691.66C1634.98,-683.35 1624.72,-673.24 1615.45,-664.11"/>
<polygon fill="black" stroke="black" points="1617.96,-661.66 1608.38,-657.13 1613.04,-666.65 1617.96,-661.66"/>
</g>
<!-- 15 -->
<g id="node16" class="node">
<title>15</title>
<polygon fill="none" stroke="black" points="1031.95,-583.97 768.25,-565.97 1031.95,-547.97 1295.66,-565.97 1031.95,-583.97"/>
<text text-anchor="middle" x="1031.95" y="-560.92" font-family="Times New Roman,serif" font-size="14.00">Variable[&quot;yard.cuno_shack_white_perc_sight&quot;]</text>
</g>
<!-- 14&#45;&gt;15 -->
<g id="edge17" class="edge">
<title>14&#45;&gt;15</title>
<path fill="none" stroke="black" d="M1475.35,-622.59C1374.72,-609.96 1229.74,-591.78 1133.28,-579.68"/>
<polygon fill="black" stroke="black" points="1133.91,-576.23 1123.56,-578.46 1133.04,-583.17 1133.91,-576.23"/>
</g>
<!-- 16 -->
<g id="node17" class="node">
<title>16</title>
<polygon fill="none" stroke="black" points="1589.95,-583.97 1313.22,-565.97 1589.95,-547.97 1866.69,-565.97 1589.95,-583.97"/>
<text text-anchor="middle" x="1589.95" y="-560.92" font-family="Times New Roman,serif" font-size="14.00">!(Variable[&quot;yard.cuno_shack_white_perc_sight&quot;])</text>
</g>
<!-- 14&#45;&gt;16 -->
<g id="edge16" class="edge">
<title>14&#45;&gt;16</title>
<path fill="none" stroke="black" d="M1589.95,-619.66C1589.95,-612.37 1589.95,-603.69 1589.95,-595.5"/>
<polygon fill="black" stroke="black" points="1593.45,-595.58 1589.95,-585.58 1586.45,-595.58 1593.45,-595.58"/>
</g>
<!-- 23 -->
<g id="node24" class="node">
<title>23</title>
<ellipse fill="none" stroke="black" cx="1031.95" cy="-493.97" rx="247.37" ry="18"/>
<text text-anchor="middle" x="1031.95" y="-488.92" font-family="Times New Roman,serif" font-size="14.00">Pile of Eternite: Variable[&quot;yard.cuno_shack_white_perc_sight&quot;]</text>
</g>
<!-- 15&#45;&gt;23 -->
<g id="edge18" class="edge">
<title>15&#45;&gt;23</title>
<path fill="none" stroke="black" d="M1031.95,-547.66C1031.95,-540.37 1031.95,-531.69 1031.95,-523.5"/>
<polygon fill="black" stroke="black" points="1035.45,-523.58 1031.95,-513.58 1028.45,-523.58 1035.45,-523.58"/>
</g>
<!-- 16&#45;&gt;23 -->
<g id="edge19" class="edge">
<title>16&#45;&gt;23</title>
<path fill="none" stroke="black" d="M1498.12,-553.45C1407.17,-542.04 1266.98,-524.45 1164.08,-511.54"/>
<polygon fill="black" stroke="black" points="1164.52,-508.07 1154.17,-510.3 1163.65,-515.01 1164.52,-508.07"/>
</g>
<!-- 17 -->
<g id="node18" class="node">
<title>17</title>
<ellipse fill="none" stroke="black" cx="3317.95" cy="-183.98" rx="261.7" ry="18"/>
<text text-anchor="middle" x="3317.95" y="-178.93" font-family="Times New Roman,serif" font-size="14.00">Jump to: [Pile of Eternite: &quot;An inconspicuous pile of the roofin...&quot;]</text>
</g>
<!-- 17&#45;&gt;10 -->
<g id="edge20" class="edge">
<title>17&#45;&gt;10</title>
<path fill="none" stroke="black" d="M3294.4,-202.39C3261.34,-226.82 3200.48,-271.8 3157.96,-303.23"/>
<polygon fill="black" stroke="black" points="3156.1,-300.26 3150.14,-309.01 3160.26,-305.88 3156.1,-300.26"/>
</g>
<!-- 37 -->
<g id="node38" class="node">
<title>37</title>
<ellipse fill="none" stroke="black" cx="3647.95" cy="-637.97" rx="96.39" ry="18"/>
<text text-anchor="middle" x="3647.95" y="-632.92" font-family="Times New Roman,serif" font-size="14.00">Jump to: [real eternite]</text>
</g>
<!-- 18&#45;&gt;37 -->
<g id="edge21" class="edge">
<title>18&#45;&gt;37</title>
<path fill="none" stroke="black" d="M3684.57,-763.91C3676.98,-754.01 3668.17,-740.97 3662.95,-727.97 3655.22,-708.71 3651.47,-685.56 3649.66,-667.69"/>
<polygon fill="black" stroke="black" points="3653.15,-667.46 3648.81,-657.79 3646.18,-668.05 3653.15,-667.46"/>
</g>
<!-- 19 -->
<g id="node20" class="node">
<title>19</title>
<ellipse fill="none" stroke="black" cx="2416.95" cy="-637.97" rx="378.91" ry="18"/>
<text text-anchor="middle" x="2416.95" y="-632.92" font-family="Times New Roman,serif" font-size="14.00">Pile of Eternite: It&#39;s nothing. Someone just left some roofing material slanted against an old shack.</text>
</g>
<!-- 19&#45;&gt;6 -->
<g id="edge22" class="edge">
<title>19&#45;&gt;6</title>
<path fill="none" stroke="black" d="M2434.5,-619.66C2442.93,-611.35 2453.19,-601.24 2462.45,-592.11"/>
<polygon fill="black" stroke="black" points="2464.86,-594.65 2469.53,-585.13 2459.95,-589.66 2464.86,-594.65"/>
</g>
<!-- 20&#45;&gt;30 -->
<g id="edge23" class="edge">
<title>20&#45;&gt;30</title>
<path fill="none" stroke="black" d="M3065.99,-406.25C3183.58,-398.17 3306.11,-386.04 3419.95,-367.97 3435.31,-365.53 3451.65,-361.8 3466.79,-357.84"/>
<polygon fill="black" stroke="black" points="3467.37,-361.31 3476.12,-355.34 3465.55,-354.55 3467.37,-361.31"/>
</g>
<!-- 33 -->
<g id="node34" class="node">
<title>33</title>
<ellipse fill="none" stroke="black" cx="4381.95" cy="-565.97" rx="276.04" ry="18"/>
<text text-anchor="middle" x="4381.95" y="-560.92" font-family="Times New Roman,serif" font-size="14.00">Inland Empire: No, there&#39;s more to this. You get this strange *feeling*.</text>
</g>
<!-- 21&#45;&gt;33 -->
<g id="edge24" class="edge">
<title>21&#45;&gt;33</title>
<path fill="none" stroke="black" d="M4360.12,-619.66C4363.25,-612.12 4366.99,-603.08 4370.48,-594.65"/>
<polygon fill="black" stroke="black" points="4373.69,-596.05 4374.29,-585.47 4367.23,-593.37 4373.69,-596.05"/>
</g>
<!-- 22 -->
<g id="node23" class="node">
<title>22</title>
<ellipse fill="none" stroke="black" cx="4314.95" cy="-925.97" rx="67.73" ry="18"/>
<text text-anchor="middle" x="4314.95" y="-920.92" font-family="Times New Roman,serif" font-size="14.00">feeling_strange</text>
</g>
<!-- 22&#45;&gt;5 -->
<g id="edge26" class="edge">
<title>22&#45;&gt;5</title>
<path fill="none" stroke="black" d="M4256.18,-916.87C4165.05,-904.31 3989.5,-880.12 3886.91,-865.98"/>
<polygon fill="black" stroke="black" points="3887.57,-862.54 3877.19,-864.64 3886.62,-869.48 3887.57,-862.54"/>
</g>
<!-- 41 -->
<g id="node42" class="node">
<title>41</title>
<ellipse fill="none" stroke="black" cx="4314.95" cy="-853.97" rx="321.07" ry="18"/>
<text text-anchor="middle" x="4314.95" y="-848.92" font-family="Times New Roman,serif" font-size="14.00">Perception (Sight): Because it&#39;s nice and orderly. Well laid pallet. Easy on the eyes.</text>
</g>
<!-- 22&#45;&gt;41 -->
<g id="edge25" class="edge">
<title>22&#45;&gt;41</title>
<path fill="none" stroke="black" d="M4314.95,-907.66C4314.95,-900.37 4314.95,-891.69 4314.95,-883.5"/>
<polygon fill="black" stroke="black" points="4318.45,-883.58 4314.95,-873.58 4311.45,-883.58 4318.45,-883.58"/>
</g>
<!-- 24 -->
<g id="node25" class="node">
<title>24</title>
<polygon fill="none" stroke="black" points="1031.95,-439.97 768.25,-421.97 1031.95,-403.97 1295.66,-421.97 1031.95,-439.97"/>
<text text-anchor="middle" x="1031.95" y="-416.92" font-family="Times New Roman,serif" font-size="14.00">Variable[&quot;yard.cuno_shack_white_perc_sight&quot;]</text>
</g>
<!-- 23&#45;&gt;24 -->
<g id="edge27" class="edge">
<title>23&#45;&gt;24</title>
<path fill="none" stroke="black" d="M1031.95,-475.66C1031.95,-468.37 1031.95,-459.69 1031.95,-451.5"/>
<polygon fill="black" stroke="black" points="1035.45,-451.58 1031.95,-441.58 1028.45,-451.58 1035.45,-451.58"/>
</g>
<!-- 25 -->
<g id="node26" class="node">
<title>25</title>
<polygon fill="none" stroke="black" points="463.95,-439.97 187.22,-421.97 463.95,-403.97 740.69,-421.97 463.95,-439.97"/>
<text text-anchor="middle" x="463.95" y="-416.92" font-family="Times New Roman,serif" font-size="14.00">!(Variable[&quot;yard.cuno_shack_white_perc_sight&quot;])</text>
</g>
<!-- 23&#45;&gt;25 -->
<g id="edge28" class="edge">
<title>23&#45;&gt;25</title>
<path fill="none" stroke="black" d="M909.75,-477.91C807.82,-465.34 664.16,-447.64 567.74,-435.76"/>
<polygon fill="black" stroke="black" points="568.37,-432.31 558.01,-434.56 567.51,-439.25 568.37,-432.31"/>
</g>
<!-- 26 -->
<g id="node27" class="node">
<title>26</title>
<ellipse fill="none" stroke="black" cx="1041.95" cy="-338.97" rx="469.52" ry="28.99"/>
<text text-anchor="middle" x="1041.95" y="-342.17" font-family="Times New Roman,serif" font-size="14.00">Perception (Sight): Because there&#39;s a secret door hidden behind the panels of eternite. That&#39;s why they&#39;re *too* orderly.</text>
<text text-anchor="middle" x="1041.95" y="-325.67" font-family="Times New Roman,serif" font-size="14.00">Because unless Cuno lied, you should just be able to pull the panels aside.</text>
</g>
<!-- 24&#45;&gt;26 -->
<g id="edge29" class="edge">
<title>24&#45;&gt;26</title>
<path fill="none" stroke="black" d="M1034.07,-403.79C1034.95,-396.7 1036,-388.17 1037.05,-379.68"/>
<polygon fill="black" stroke="black" points="1040.52,-380.14 1038.27,-369.78 1033.57,-379.28 1040.52,-380.14"/>
</g>
<!-- 42 -->
<g id="node43" class="node">
<title>42</title>
<ellipse fill="none" stroke="black" cx="443.95" cy="-338.97" rx="110.21" ry="18"/>
<text text-anchor="middle" x="443.95" y="-333.92" font-family="Times New Roman,serif" font-size="14.00">You: Pull the panels aside.</text>
</g>
<!-- 25&#45;&gt;42 -->
<g id="edge30" class="edge">
<title>25&#45;&gt;42</title>
<path fill="none" stroke="black" d="M459.71,-403.79C457.18,-393.55 453.91,-380.29 451,-368.52"/>
<polygon fill="black" stroke="black" points="454.41,-367.74 448.62,-358.87 447.62,-369.42 454.41,-367.74"/>
</g>
<!-- 43 -->
<g id="node44" class="node">
<title>43</title>
<ellipse fill="none" stroke="black" cx="1041.95" cy="-255.98" rx="27" ry="18"/>
<text text-anchor="middle" x="1041.95" y="-250.93" font-family="Times New Roman,serif" font-size="14.00">43</text>
</g>
<!-- 26&#45;&gt;43 -->
<g id="edge31" class="edge">
<title>26&#45;&gt;43</title>
<path fill="none" stroke="black" d="M1041.95,-309.65C1041.95,-301.77 1041.95,-293.22 1041.95,-285.34"/>
<polygon fill="black" stroke="black" points="1045.45,-285.59 1041.95,-275.59 1038.45,-285.59 1045.45,-285.59"/>
</g>
<!-- 28 -->
<g id="node29" class="node">
<title>28</title>
<polygon fill="none" stroke="black" points="345.95,-129.98 263.2,-111.98 345.95,-93.98 428.71,-111.98 345.95,-129.98"/>
<text text-anchor="middle" x="345.95" y="-106.93" font-family="Times New Roman,serif" font-size="14.00">IsKimHere()</text>
</g>
<!-- 27&#45;&gt;28 -->
<g id="edge32" class="edge">
<title>27&#45;&gt;28</title>
<path fill="none" stroke="black" d="M419.98,-165.86C405.94,-155.83 388.16,-143.13 373.54,-132.69"/>
<polygon fill="black" stroke="black" points="375.86,-130.05 365.69,-127.08 371.79,-135.74 375.86,-130.05"/>
</g>
<!-- 29 -->
<g id="node30" class="node">
<title>29</title>
<polygon fill="none" stroke="black" points="542.95,-129.98 447.17,-111.98 542.95,-93.98 638.74,-111.98 542.95,-129.98"/>
<text text-anchor="middle" x="542.95" y="-106.93" font-family="Times New Roman,serif" font-size="14.00">!(IsKimHere())</text>
</g>
<!-- 27&#45;&gt;29 -->
<g id="edge33" class="edge">
<title>27&#45;&gt;29</title>
<path fill="none" stroke="black" d="M467.92,-166.04C481.91,-156.15 499.64,-143.61 514.36,-133.2"/>
<polygon fill="black" stroke="black" points="516.14,-136.23 522.29,-127.59 512.1,-130.51 516.14,-136.23"/>
</g>
<!-- 32 -->
<g id="node33" class="node">
<title>32</title>
<ellipse fill="none" stroke="black" cx="345.95" cy="-28.99" rx="345.95" ry="28.99"/>
<text text-anchor="middle" x="345.95" y="-32.19" font-family="Times New Roman,serif" font-size="14.00">Kim Kitsuragi: &quot;What is this, then? A tool shed?&quot; He peeks inside. &quot;Let&#39;s investigate.&quot;</text>
<text text-anchor="middle" x="345.95" y="-15.69" font-family="Times New Roman,serif" font-size="14.00">&quot;So this is the shack Cuno mentioned... Let&#39;s take a look inside, then.&quot;</text>
</g>
<!-- 28&#45;&gt;32 -->
<g id="edge34" class="edge">
<title>28&#45;&gt;32</title>
<path fill="none" stroke="black" d="M345.95,-93.81C345.95,-86.72 345.95,-78.19 345.95,-69.7"/>
<polygon fill="black" stroke="black" points="349.45,-69.81 345.95,-59.81 342.45,-69.81 349.45,-69.81"/>
</g>
<!-- 30&#45;&gt;40 -->
<g id="edge35" class="edge">
<title>30&#45;&gt;40</title>
<path fill="none" stroke="black" d="M3525.95,-320.8C3525.95,-310.67 3525.95,-297.58 3525.95,-285.9"/>
<polygon fill="black" stroke="black" points="3529.45,-285.93 3525.95,-275.93 3522.45,-285.93 3529.45,-285.93"/>
</g>
<!-- 31 -->
<g id="node32" class="node">
<title>31</title>
<ellipse fill="none" stroke="black" cx="2274.95" cy="-709.97" rx="80.01" ry="18"/>
<text text-anchor="middle" x="2274.95" y="-704.92" font-family="Times New Roman,serif" font-size="14.00">You: What is this?</text>
</g>
<!-- 31&#45;&gt;19 -->
<g id="edge36" class="edge">
<title>31&#45;&gt;19</title>
<path fill="none" stroke="black" d="M2307.17,-693.08C2326.14,-683.73 2350.44,-671.75 2371.35,-661.44"/>
<polygon fill="black" stroke="black" points="2372.84,-664.61 2380.26,-657.05 2369.75,-658.33 2372.84,-664.61"/>
</g>
<!-- 34 -->
<g id="node35" class="node">
<title>34</title>
<ellipse fill="none" stroke="black" cx="4381.95" cy="-493.97" rx="218.2" ry="18"/>
<text text-anchor="middle" x="4381.95" y="-488.92" font-family="Times New Roman,serif" font-size="14.00">Pile of Eternite: Variable[&quot;yard.shack_strange_feeling&quot;]</text>
</g>
<!-- 33&#45;&gt;34 -->
<g id="edge37" class="edge">
<title>33&#45;&gt;34</title>
<path fill="none" stroke="black" d="M4381.95,-547.66C4381.95,-540.37 4381.95,-531.69 4381.95,-523.5"/>
<polygon fill="black" stroke="black" points="4385.45,-523.58 4381.95,-513.58 4378.45,-523.58 4385.45,-523.58"/>
</g>
<!-- 35 -->
<g id="node36" class="node">
<title>35</title>
<polygon fill="none" stroke="black" points="4681.95,-439.97 4459.5,-421.97 4681.95,-403.97 4904.4,-421.97 4681.95,-439.97"/>
<text text-anchor="middle" x="4681.95" y="-416.92" font-family="Times New Roman,serif" font-size="14.00">Variable[&quot;yard.shack_strange_feeling&quot;]</text>
</g>
<!-- 34&#45;&gt;35 -->
<g id="edge38" class="edge">
<title>34&#45;&gt;35</title>
<path fill="none" stroke="black" d="M4452.67,-476.47C4502.01,-464.95 4567.4,-449.69 4615.73,-438.42"/>
<polygon fill="black" stroke="black" points="4616.27,-441.88 4625.22,-436.2 4614.68,-435.07 4616.27,-441.88"/>
</g>
<!-- 36 -->
<g id="node37" class="node">
<title>36</title>
<polygon fill="none" stroke="black" points="4166.95,-439.97 3931.47,-421.97 4166.95,-403.97 4402.43,-421.97 4166.95,-439.97"/>
<text text-anchor="middle" x="4166.95" y="-416.92" font-family="Times New Roman,serif" font-size="14.00">!(Variable[&quot;yard.shack_strange_feeling&quot;])</text>
</g>
<!-- 34&#45;&gt;36 -->
<g id="edge39" class="edge">
<title>34&#45;&gt;36</title>
<path fill="none" stroke="black" d="M4329.91,-476.02C4296.97,-465.3 4254.46,-451.46 4221.13,-440.6"/>
<polygon fill="black" stroke="black" points="4222.23,-437.28 4211.64,-437.51 4220.06,-443.94 4222.23,-437.28"/>
</g>
<!-- 35&#45;&gt;22 -->
<g id="edge40" class="edge">
<title>35&#45;&gt;22</title>
<path fill="none" stroke="black" d="M4685.9,-439.91C4691.73,-466.42 4701.95,-519.41 4701.95,-564.97 4701.95,-782.97 4701.95,-782.97 4701.95,-782.97 4701.95,-829.94 4684.24,-846.22 4644.95,-871.97 4604.35,-898.58 4475.87,-913.04 4391.71,-919.87"/>
<polygon fill="black" stroke="black" points="4391.61,-916.37 4381.91,-920.65 4392.16,-923.35 4391.61,-916.37"/>
</g>
<!-- 36&#45;&gt;38 -->
<g id="edge41" class="edge">
<title>36&#45;&gt;38</title>
<path fill="none" stroke="black" d="M4118.94,-407.23C4071.24,-393.57 3997.89,-372.58 3945.83,-357.68"/>
<polygon fill="black" stroke="black" points="3947.1,-354.41 3936.52,-355.02 3945.17,-361.14 3947.1,-354.41"/>
</g>
<!-- 37&#45;&gt;40 -->
<g id="edge42" class="edge">
<title>37&#45;&gt;40</title>
<path fill="none" stroke="black" d="M3648.36,-619.48C3648.94,-592.68 3649.95,-539.84 3649.95,-494.97 3649.95,-494.97 3649.95,-494.97 3649.95,-420.97 3649.95,-370.92 3660.69,-350.23 3630.95,-309.98 3620.15,-295.36 3604.16,-284.5 3587.9,-276.55"/>
<polygon fill="black" stroke="black" points="3589.72,-273.53 3579.17,-272.6 3586.83,-279.91 3589.72,-273.53"/>
</g>
<!-- 38&#45;&gt;40 -->
<g id="edge43" class="edge">
<title>38&#45;&gt;40</title>
<path fill="none" stroke="black" d="M3824.43,-324.51C3762.41,-310.48 3665.16,-288.48 3598.64,-273.43"/>
<polygon fill="black" stroke="black" points="3599.42,-270.01 3588.89,-271.22 3597.87,-276.84 3599.42,-270.01"/>
</g>
<!-- 39 -->
<g id="node40" class="node">
<title>39</title>
<ellipse fill="none" stroke="black" cx="2274.95" cy="-781.97" rx="54.93" ry="18"/>
<text text-anchor="middle" x="2274.95" y="-776.92" font-family="Times New Roman,serif" font-size="14.00">real eternite</text>
</g>
<!-- 39&#45;&gt;9 -->
<g id="edge44" class="edge">
<title>39&#45;&gt;9</title>
<path fill="none" stroke="black" d="M2307.15,-766.97C2331.53,-756.37 2365.3,-741.68 2392.14,-730.01"/>
<polygon fill="black" stroke="black" points="2393.27,-733.34 2401.04,-726.14 2390.47,-726.92 2393.27,-733.34"/>
</g>
<!-- 39&#45;&gt;13 -->
<g id="edge45" class="edge">
<title>39&#45;&gt;13</title>
<path fill="none" stroke="black" d="M2223.66,-775.12C2131.22,-764.58 1933.78,-742.07 1799.16,-726.72"/>
<polygon fill="black" stroke="black" points="1799.8,-723.27 1789.47,-725.62 1799,-730.23 1799.8,-723.27"/>
</g>
<!-- 39&#45;&gt;31 -->
<g id="edge46" class="edge">
<title>39&#45;&gt;31</title>
<path fill="none" stroke="black" d="M2274.95,-763.66C2274.95,-756.37 2274.95,-747.69 2274.95,-739.5"/>
<polygon fill="black" stroke="black" points="2278.45,-739.58 2274.95,-729.58 2271.45,-739.58 2278.45,-739.58"/>
</g>
<!-- 40&#45;&gt;17 -->
<g id="edge47" class="edge">
<title>40&#45;&gt;17</title>
<path fill="none" stroke="black" d="M3479.79,-239.45C3450.22,-229.5 3411.5,-216.47 3379.35,-205.65"/>
<polygon fill="black" stroke="black" points="3380.75,-202.42 3370.16,-202.55 3378.52,-209.06 3380.75,-202.42"/>
</g>
<!-- 41&#45;&gt;2 -->
<g id="edge48" class="edge">
<title>41&#45;&gt;2</title>
<path fill="none" stroke="black" d="M4314.95,-835.66C4314.95,-828.37 4314.95,-819.69 4314.95,-811.5"/>
<polygon fill="black" stroke="black" points="4318.45,-811.58 4314.95,-801.58 4311.45,-811.58 4318.45,-811.58"/>
</g>
<!-- 42&#45;&gt;11 -->
<g id="edge49" class="edge">
<title>42&#45;&gt;11</title>
<path fill="none" stroke="black" d="M443.95,-320.8C443.95,-310.67 443.95,-297.58 443.95,-285.9"/>
<polygon fill="black" stroke="black" points="447.45,-285.93 443.95,-275.93 440.45,-285.93 447.45,-285.93"/>
</g>
</g>
</svg>
