<?xml version="1.0" encoding="UTF-8" standalone="no"?>
<!DOCTYPE svg PUBLIC "-//W3C//DTD SVG 1.1//EN"
 "http://www.w3.org/Graphics/SVG/1.1/DTD/svg11.dtd">
<!-- Generated by graphviz version 12.2.1 (20241206.2353)
 -->
<!-- Title: G Pages: 1 -->
<svg width="3193pt" height="116pt"
 viewBox="0.00 0.00 3193.02 116.00" xmlns="http://www.w3.org/2000/svg" xmlns:xlink="http://www.w3.org/1999/xlink">
<g id="graph0" class="graph" transform="scale(1 1) rotate(0) translate(4 112)">
<title>G</title>
<polygon fill="white" stroke="none" points="-4,4 -4,-112 3189.02,-112 3189.02,4 -4,4"/>
<!-- 0 -->
<g id="node1" class="node">
<title>0</title>
<ellipse fill="none" stroke="black" cx="651.85" cy="-90" rx="39.07" ry="18"/>
<text text-anchor="middle" x="651.85" y="-84.95" font-family="Times New Roman,serif" font-size="14.00">START</text>
</g>
<!-- 0&#45;&gt;0 -->
<g id="edge1" class="edge">
<title>0&#45;&gt;0</title>
<path fill="none" stroke="black" d="M680.04,-102.94C695.15,-105.14 708.92,-100.83 708.92,-90 708.92,-81.96 701.34,-77.52 691.25,-76.65"/>
<polygon fill="black" stroke="black" points="691.42,-73.15 681.56,-77 691.67,-80.14 691.42,-73.15"/>
</g>
<!-- 1 -->
<g id="node2" class="node">
<title>1</title>
<ellipse fill="none" stroke="black" cx="756.85" cy="-90" rx="29.86" ry="18"/>
<text text-anchor="middle" x="756.85" y="-84.95" font-family="Times New Roman,serif" font-size="14.00">input</text>
</g>
<!-- 1&#45;&gt;1 -->
<g id="edge2" class="edge">
<title>1&#45;&gt;1</title>
<path fill="none" stroke="black" d="M778.51,-102.55C791.93,-105.57 804.71,-101.39 804.71,-90 804.71,-81.99 798.39,-77.55 789.98,-76.66"/>
<polygon fill="black" stroke="black" points="789.76,-73.17 780.02,-77.35 790.24,-80.15 789.76,-73.17"/>
</g>
<!-- 4 -->
<g id="node5" class="node">
<title>4</title>
<ellipse fill="none" stroke="black" cx="159.85" cy="-18" rx="159.85" ry="18"/>
<text text-anchor="middle" x="159.85" y="-12.95" font-family="Times New Roman,serif" font-size="14.00">Cuno: &quot;This shit ain&#39;t nothing to Cuno.&quot;</text>
</g>
<!-- 1&#45;&gt;4 -->
<g id="edge3" class="edge">
<title>1&#45;&gt;4</title>
<path fill="none" stroke="black" d="M734.6,-77.85C729.23,-75.57 723.43,-73.43 717.85,-72 549.26,-28.67 501.12,-52.76 327.85,-36 314.39,-34.7 300.31,-33.31 286.29,-31.91"/>
<polygon fill="black" stroke="black" points="286.87,-28.46 276.57,-30.94 286.17,-35.42 286.87,-28.46"/>
</g>
<!-- 6 -->
<g id="node7" class="node">
<title>6</title>
<ellipse fill="none" stroke="black" cx="569.85" cy="-18" rx="232.53" ry="18"/>
<text text-anchor="middle" x="569.85" y="-12.95" font-family="Times New Roman,serif" font-size="14.00">Cuno: &quot;Cuno&#39;s fucking electricity! 2000 volts. Cuno&#45;volts.&quot;</text>
</g>
<!-- 1&#45;&gt;6 -->
<g id="edge4" class="edge">
<title>1&#45;&gt;6</title>
<path fill="none" stroke="black" d="M733.45,-78.49C728.34,-76.28 722.94,-74.01 717.85,-72 689.42,-60.73 657.52,-49.17 630.64,-39.73"/>
<polygon fill="black" stroke="black" points="631.86,-36.45 621.27,-36.46 629.55,-43.06 631.86,-36.45"/>
</g>
<!-- 10 -->
<g id="node11" class="node">
<title>10</title>
<ellipse fill="none" stroke="black" cx="943.85" cy="-18" rx="123.52" ry="18"/>
<text text-anchor="middle" x="943.85" y="-12.95" font-family="Times New Roman,serif" font-size="14.00">Cunoesse: &quot;I&#39;m bored, Cuno!&quot;</text>
</g>
<!-- 1&#45;&gt;10 -->
<g id="edge5" class="edge">
<title>1&#45;&gt;10</title>
<path fill="none" stroke="black" d="M781.69,-79.7C809.06,-69.46 853.93,-52.66 889.54,-39.33"/>
<polygon fill="black" stroke="black" points="890.71,-42.63 898.84,-35.85 888.25,-36.08 890.71,-42.63"/>
</g>
<!-- 12 -->
<g id="node13" class="node">
<title>12</title>
<ellipse fill="none" stroke="black" cx="1223.85" cy="-18" rx="138.36" ry="18"/>
<text text-anchor="middle" x="1223.85" y="-12.95" font-family="Times New Roman,serif" font-size="14.00">Cunoesse: &quot;Snap out of it, Cuno!&quot;</text>
</g>
<!-- 1&#45;&gt;12 -->
<g id="edge6" class="edge">
<title>1&#45;&gt;12</title>
<path fill="none" stroke="black" d="M782.45,-80.41C792.19,-77.39 803.45,-74.21 813.85,-72 842.62,-65.89 1002.56,-45.89 1113.95,-32.28"/>
<polygon fill="black" stroke="black" points="1114.24,-35.77 1123.75,-31.08 1113.4,-28.82 1114.24,-35.77"/>
</g>
<!-- 2 -->
<g id="node3" class="node">
<title>2</title>
<ellipse fill="none" stroke="black" cx="984.85" cy="-90" rx="161.9" ry="18"/>
<text text-anchor="middle" x="984.85" y="-84.95" font-family="Times New Roman,serif" font-size="14.00">Cunoesse: &quot;Let&#39;s get out of here, Cuno!&quot;</text>
</g>
<!-- 3 -->
<g id="node4" class="node">
<title>3</title>
<ellipse fill="none" stroke="black" cx="1364.85" cy="-90" rx="200.29" ry="18"/>
<text text-anchor="middle" x="1364.85" y="-84.95" font-family="Times New Roman,serif" font-size="14.00">Cuno: &quot;Cuno&#39;s gonna have a fucking heart attack!&quot;</text>
</g>
<!-- 5 -->
<g id="node6" class="node">
<title>5</title>
<ellipse fill="none" stroke="black" cx="1742.85" cy="-90" rx="159.85" ry="18"/>
<text text-anchor="middle" x="1742.85" y="-84.95" font-family="Times New Roman,serif" font-size="14.00">Cunoesse: &quot;What are we doing, Cuno?&quot;</text>
</g>
<!-- 7 -->
<g id="node8" class="node">
<title>7</title>
<ellipse fill="none" stroke="black" cx="2022.85" cy="-90" rx="102.02" ry="18"/>
<text text-anchor="middle" x="2022.85" y="-84.95" font-family="Times New Roman,serif" font-size="14.00">Cunoesse: &quot;Booooring!&quot;</text>
</g>
<!-- 8 -->
<g id="node9" class="node">
<title>8</title>
<ellipse fill="none" stroke="black" cx="2319.85" cy="-90" rx="177.26" ry="18"/>
<text text-anchor="middle" x="2319.85" y="-84.95" font-family="Times New Roman,serif" font-size="14.00">Cuno: &quot;Speedtrain: Cuno &#45;&#45; leaving station!&quot;</text>
</g>
<!-- 9 -->
<g id="node10" class="node">
<title>9</title>
<ellipse fill="none" stroke="black" cx="2645.85" cy="-90" rx="131.19" ry="18"/>
<text text-anchor="middle" x="2645.85" y="-84.95" font-family="Times New Roman,serif" font-size="14.00">Cuno: &quot;Cuno&#39;s little shitshow...&quot;</text>
</g>
<!-- 11 -->
<g id="node12" class="node">
<title>11</title>
<ellipse fill="none" stroke="black" cx="2989.85" cy="-90" rx="195.17" ry="18"/>
<text text-anchor="middle" x="2989.85" y="-84.95" font-family="Times New Roman,serif" font-size="14.00">Cuno: &quot;Cuno likes this brain&#45;shit. Thinking&#45;shit.&quot;</text>
</g>
</g>
</svg>
