<?xml version="1.0" encoding="UTF-8" standalone="no"?>
<!DOCTYPE svg PUBLIC "-//W3C//DTD SVG 1.1//EN"
 "http://www.w3.org/Graphics/SVG/1.1/DTD/svg11.dtd">
<!-- Generated by graphviz version 12.2.1 (20241206.2353)
 -->
<!-- Title: G Pages: 1 -->
<svg width="3763pt" height="188pt"
 viewBox="0.00 0.00 3763.13 188.00" xmlns="http://www.w3.org/2000/svg" xmlns:xlink="http://www.w3.org/1999/xlink">
<g id="graph0" class="graph" transform="scale(1 1) rotate(0) translate(4 184)">
<title>G</title>
<polygon fill="white" stroke="none" points="-4,4 -4,-184 3759.13,-184 3759.13,4 -4,4"/>
<!-- 0 -->
<g id="node1" class="node">
<title>0</title>
<ellipse fill="none" stroke="black" cx="1974.4" cy="-162" rx="39.07" ry="18"/>
<text text-anchor="middle" x="1974.4" y="-156.95" font-family="Times New Roman,serif" font-size="14.00">START</text>
</g>
<!-- 1 -->
<g id="node2" class="node">
<title>1</title>
<ellipse fill="none" stroke="black" cx="1974.4" cy="-90" rx="29.86" ry="18"/>
<text text-anchor="middle" x="1974.4" y="-84.95" font-family="Times New Roman,serif" font-size="14.00">input</text>
</g>
<!-- 0&#45;&gt;1 -->
<g id="edge1" class="edge">
<title>0&#45;&gt;1</title>
<path fill="none" stroke="black" d="M1974.4,-143.7C1974.4,-136.41 1974.4,-127.73 1974.4,-119.54"/>
<polygon fill="black" stroke="black" points="1977.9,-119.62 1974.4,-109.62 1970.9,-119.62 1977.9,-119.62"/>
</g>
<!-- 2 -->
<g id="node3" class="node">
<title>2</title>
<ellipse fill="none" stroke="black" cx="248.4" cy="-18" rx="248.4" ry="18"/>
<text text-anchor="middle" x="248.4" y="-12.95" font-family="Times New Roman,serif" font-size="14.00">Cunoesse: &quot;Right in the dick, Cuno! Get him right in the dick!&quot;</text>
</g>
<!-- 1&#45;&gt;2 -->
<g id="edge2" class="edge">
<title>1&#45;&gt;2</title>
<path fill="none" stroke="black" d="M1944.39,-88.25C1791.51,-84.37 1083.95,-65.57 505.4,-36 482.17,-34.81 457.77,-33.41 433.64,-31.92"/>
<polygon fill="black" stroke="black" points="433.91,-28.43 423.71,-31.3 433.47,-35.42 433.91,-28.43"/>
</g>
<!-- 5 -->
<g id="node5" class="node">
<title>5</title>
<ellipse fill="none" stroke="black" cx="638.4" cy="-18" rx="124.03" ry="18"/>
<text text-anchor="middle" x="638.4" y="-12.95" font-family="Times New Roman,serif" font-size="14.00">Cunoesse: &quot;Nice one, Cuno!!&quot;</text>
</g>
<!-- 1&#45;&gt;5 -->
<g id="edge3" class="edge">
<title>1&#45;&gt;5</title>
<path fill="none" stroke="black" d="M1944.58,-88.6C1809.09,-86.58 1237.97,-76.03 771.4,-36 760.15,-35.03 748.39,-33.83 736.71,-32.5"/>
<polygon fill="black" stroke="black" points="737.41,-29.06 727.07,-31.37 736.6,-36.01 737.41,-29.06"/>
</g>
<!-- 6 -->
<g id="node6" class="node">
<title>6</title>
<ellipse fill="none" stroke="black" cx="907.4" cy="-18" rx="127.1" ry="18"/>
<text text-anchor="middle" x="907.4" y="-12.95" font-family="Times New Roman,serif" font-size="14.00">Cunoesse: &quot;Break him, Cuno!&quot;</text>
</g>
<!-- 1&#45;&gt;6 -->
<g id="edge4" class="edge">
<title>1&#45;&gt;6</title>
<path fill="none" stroke="black" d="M1944.6,-88.04C1828.76,-84.13 1397.3,-68.16 1043.4,-36 1032.08,-34.97 1020.26,-33.74 1008.51,-32.41"/>
<polygon fill="black" stroke="black" points="1009.13,-28.95 998.79,-31.28 1008.32,-35.91 1009.13,-28.95"/>
</g>
<!-- 7 -->
<g id="node7" class="node">
<title>7</title>
<ellipse fill="none" stroke="black" cx="1261.4" cy="-18" rx="208.99" ry="18"/>
<text text-anchor="middle" x="1261.4" y="-12.95" font-family="Times New Roman,serif" font-size="14.00">Cunoesse: &quot;You should throw the pig at him, Cuno!&quot;</text>
</g>
<!-- 1&#45;&gt;7 -->
<g id="edge5" class="edge">
<title>1&#45;&gt;7</title>
<path fill="none" stroke="black" d="M1945.12,-86.13C1855.31,-77.31 1579.37,-50.22 1406.73,-33.27"/>
<polygon fill="black" stroke="black" points="1407.32,-29.81 1397.02,-32.32 1406.63,-36.78 1407.32,-29.81"/>
</g>
<!-- 11 -->
<g id="node11" class="node">
<title>11</title>
<ellipse fill="none" stroke="black" cx="1646.4" cy="-18" rx="158.32" ry="18"/>
<text text-anchor="middle" x="1646.4" y="-12.95" font-family="Times New Roman,serif" font-size="14.00">Cunoesse: &quot;Fuck him up, Cuno. Yeah.&quot;</text>
</g>
<!-- 1&#45;&gt;11 -->
<g id="edge6" class="edge">
<title>1&#45;&gt;11</title>
<path fill="none" stroke="black" d="M1946.43,-83.03C1899.01,-72.91 1801.04,-52 1729.92,-36.82"/>
<polygon fill="black" stroke="black" points="1730.73,-33.42 1720.22,-34.76 1729.27,-40.27 1730.73,-33.42"/>
</g>
<!-- 12 -->
<g id="node12" class="node">
<title>12</title>
<ellipse fill="none" stroke="black" cx="1974.4" cy="-18" rx="152.18" ry="18"/>
<text text-anchor="middle" x="1974.4" y="-12.95" font-family="Times New Roman,serif" font-size="14.00">Cunoesse: &quot;Right in the mouth&#45;hole!&quot;</text>
</g>
<!-- 1&#45;&gt;12 -->
<g id="edge7" class="edge">
<title>1&#45;&gt;12</title>
<path fill="none" stroke="black" d="M1974.4,-71.7C1974.4,-64.41 1974.4,-55.73 1974.4,-47.54"/>
<polygon fill="black" stroke="black" points="1977.9,-47.62 1974.4,-37.62 1970.9,-47.62 1977.9,-47.62"/>
</g>
<!-- 13 -->
<g id="node13" class="node">
<title>13</title>
<ellipse fill="none" stroke="black" cx="2282.4" cy="-18" rx="137.34" ry="18"/>
<text text-anchor="middle" x="2282.4" y="-12.95" font-family="Times New Roman,serif" font-size="14.00">Cunoesse: &quot;Cuno, throw the pig!&quot;</text>
</g>
<!-- 1&#45;&gt;13 -->
<g id="edge8" class="edge">
<title>1&#45;&gt;13</title>
<path fill="none" stroke="black" d="M2002,-82.73C2047.16,-72.46 2138.4,-51.73 2204.57,-36.69"/>
<polygon fill="black" stroke="black" points="2205.34,-40.1 2214.31,-34.47 2203.78,-33.28 2205.34,-40.1"/>
</g>
<!-- 14 -->
<g id="node14" class="node">
<title>14</title>
<ellipse fill="none" stroke="black" cx="2608.4" cy="-18" rx="171.11" ry="18"/>
<text text-anchor="middle" x="2608.4" y="-12.95" font-family="Times New Roman,serif" font-size="14.00">Cunoesse: &quot;Got fucked... fucked real bad.&quot;</text>
</g>
<!-- 1&#45;&gt;14 -->
<g id="edge9" class="edge">
<title>1&#45;&gt;14</title>
<path fill="none" stroke="black" d="M2003.71,-85.76C2087.34,-76.53 2330.81,-49.65 2482.08,-32.95"/>
<polygon fill="black" stroke="black" points="2482.2,-36.45 2491.76,-31.88 2481.44,-29.5 2482.2,-36.45"/>
</g>
<!-- 15 -->
<g id="node15" class="node">
<title>15</title>
<ellipse fill="none" stroke="black" cx="2974.4" cy="-18" rx="176.74" ry="18"/>
<text text-anchor="middle" x="2974.4" y="-12.95" font-family="Times New Roman,serif" font-size="14.00">Cunoesse: &quot;Oh yeah, *napakymppi* Cuno!&quot;</text>
</g>
<!-- 1&#45;&gt;15 -->
<g id="edge10" class="edge">
<title>1&#45;&gt;15</title>
<path fill="none" stroke="black" d="M2004.35,-87.33C2111.03,-81.34 2482.37,-59.94 2788.4,-36 2804.16,-34.77 2820.66,-33.39 2837.05,-31.96"/>
<polygon fill="black" stroke="black" points="2837.21,-35.46 2846.86,-31.1 2836.59,-28.49 2837.21,-35.46"/>
</g>
<!-- 16 -->
<g id="node16" class="node">
<title>16</title>
<ellipse fill="none" stroke="black" cx="3298.4" cy="-18" rx="129.15" ry="18"/>
<text text-anchor="middle" x="3298.4" y="-12.95" font-family="Times New Roman,serif" font-size="14.00">Cunoesse: &quot;Yeah, Cuno, yeah!&quot;</text>
</g>
<!-- 1&#45;&gt;16 -->
<g id="edge11" class="edge">
<title>1&#45;&gt;16</title>
<path fill="none" stroke="black" d="M2004.24,-88.52C2138.61,-86.19 2700.84,-74.52 3160.4,-36 3172.18,-35.01 3184.52,-33.78 3196.75,-32.43"/>
<polygon fill="black" stroke="black" points="3196.89,-35.94 3206.44,-31.34 3196.11,-28.98 3196.89,-35.94"/>
</g>
<!-- 17 -->
<g id="node17" class="node">
<title>17</title>
<ellipse fill="none" stroke="black" cx="3600.4" cy="-18" rx="154.74" ry="18"/>
<text text-anchor="middle" x="3600.4" y="-12.95" font-family="Times New Roman,serif" font-size="14.00">Cunoesse: &quot;Yeah Cuno, fuck him up!&quot;</text>
</g>
<!-- 1&#45;&gt;17 -->
<g id="edge12" class="edge">
<title>1&#45;&gt;17</title>
<path fill="none" stroke="black" d="M2004.54,-88.66C2157.34,-86.77 2861.57,-76.17 3436.4,-36 3450.85,-34.99 3465.99,-33.72 3480.99,-32.32"/>
<polygon fill="black" stroke="black" points="3481.29,-35.81 3490.91,-31.38 3480.63,-28.84 3481.29,-35.81"/>
</g>
<!-- 4 -->
<g id="node4" class="node">
<title>4</title>
<ellipse fill="none" stroke="black" cx="2133.4" cy="-162" rx="102.02" ry="18"/>
<text text-anchor="middle" x="2133.4" y="-156.95" font-family="Times New Roman,serif" font-size="14.00">Cuno: &quot;Cuno&#39;s got this.&quot;</text>
</g>
<!-- 8 -->
<g id="node8" class="node">
<title>8</title>
<ellipse fill="none" stroke="black" cx="2372.4" cy="-162" rx="118.91" ry="18"/>
<text text-anchor="middle" x="2372.4" y="-156.95" font-family="Times New Roman,serif" font-size="14.00">Cuno: &quot;Fucker shit himself.&quot;</text>
</g>
<!-- 9 -->
<g id="node9" class="node">
<title>9</title>
<ellipse fill="none" stroke="black" cx="2699.4" cy="-162" rx="190.56" ry="18"/>
<text text-anchor="middle" x="2699.4" y="-156.95" font-family="Times New Roman,serif" font-size="14.00">Cuno: &quot;Over here, baconator! Time for launch.&quot;</text>
</g>
<!-- 10 -->
<g id="node10" class="node">
<title>10</title>
<ellipse fill="none" stroke="black" cx="3084.4" cy="-162" rx="176.74" ry="18"/>
<text text-anchor="middle" x="3084.4" y="-156.95" font-family="Times New Roman,serif" font-size="14.00">Cuno: &quot;Cuno knows how to fucking throw!&quot;</text>
</g>
</g>
</svg>
