<?xml version="1.0" encoding="UTF-8" standalone="no"?>
<!DOCTYPE svg PUBLIC "-//W3C//DTD SVG 1.1//EN"
 "http://www.w3.org/Graphics/SVG/1.1/DTD/svg11.dtd">
<!-- Generated by graphviz version 12.2.1 (20241206.2353)
 -->
<!-- Title: G Pages: 1 -->
<svg width="3280pt" height="188pt"
 viewBox="0.00 0.00 3280.26 188.00" xmlns="http://www.w3.org/2000/svg" xmlns:xlink="http://www.w3.org/1999/xlink">
<g id="graph0" class="graph" transform="scale(1 1) rotate(0) translate(4 184)">
<title>G</title>
<polygon fill="white" stroke="none" points="-4,4 -4,-184 3276.26,-184 3276.26,4 -4,4"/>
<!-- 0 -->
<g id="node1" class="node">
<title>0</title>
<ellipse fill="none" stroke="black" cx="781.9" cy="-162" rx="39.07" ry="18"/>
<text text-anchor="middle" x="781.9" y="-156.95" font-family="Times New Roman,serif" font-size="14.00">START</text>
</g>
<!-- 1 -->
<g id="node2" class="node">
<title>1</title>
<ellipse fill="none" stroke="black" cx="781.9" cy="-90" rx="29.86" ry="18"/>
<text text-anchor="middle" x="781.9" y="-84.95" font-family="Times New Roman,serif" font-size="14.00">input</text>
</g>
<!-- 0&#45;&gt;1 -->
<g id="edge1" class="edge">
<title>0&#45;&gt;1</title>
<path fill="none" stroke="black" d="M781.9,-143.7C781.9,-136.41 781.9,-127.73 781.9,-119.54"/>
<polygon fill="black" stroke="black" points="785.4,-119.62 781.9,-109.62 778.4,-119.62 785.4,-119.62"/>
</g>
<!-- 2 -->
<g id="node3" class="node">
<title>2</title>
<ellipse fill="none" stroke="black" cx="161.9" cy="-18" rx="161.9" ry="18"/>
<text text-anchor="middle" x="161.9" y="-12.95" font-family="Times New Roman,serif" font-size="14.00">Cunoesse: &quot;Let&#39;s get out of here, Cuno!&quot;</text>
</g>
<!-- 1&#45;&gt;2 -->
<g id="edge2" class="edge">
<title>1&#45;&gt;2</title>
<path fill="none" stroke="black" d="M752.42,-85.67C669.56,-76.32 431.13,-49.4 283.81,-32.76"/>
<polygon fill="black" stroke="black" points="284.32,-29.3 273.99,-31.66 283.54,-36.26 284.32,-29.3"/>
</g>
<!-- 5 -->
<g id="node6" class="node">
<title>5</title>
<ellipse fill="none" stroke="black" cx="501.9" cy="-18" rx="159.85" ry="18"/>
<text text-anchor="middle" x="501.9" y="-12.95" font-family="Times New Roman,serif" font-size="14.00">Cunoesse: &quot;What are we doing, Cuno?&quot;</text>
</g>
<!-- 1&#45;&gt;5 -->
<g id="edge3" class="edge">
<title>1&#45;&gt;5</title>
<path fill="none" stroke="black" d="M754.54,-82.16C713.69,-71.95 635.28,-52.34 576.59,-37.67"/>
<polygon fill="black" stroke="black" points="577.53,-34.3 566.98,-35.27 575.83,-41.09 577.53,-34.3"/>
</g>
<!-- 7 -->
<g id="node8" class="node">
<title>7</title>
<ellipse fill="none" stroke="black" cx="781.9" cy="-18" rx="102.02" ry="18"/>
<text text-anchor="middle" x="781.9" y="-12.95" font-family="Times New Roman,serif" font-size="14.00">Cunoesse: &quot;Booooring!&quot;</text>
</g>
<!-- 1&#45;&gt;7 -->
<g id="edge4" class="edge">
<title>1&#45;&gt;7</title>
<path fill="none" stroke="black" d="M781.9,-71.7C781.9,-64.41 781.9,-55.73 781.9,-47.54"/>
<polygon fill="black" stroke="black" points="785.4,-47.62 781.9,-37.62 778.4,-47.62 785.4,-47.62"/>
</g>
<!-- 11 -->
<g id="node12" class="node">
<title>11</title>
<ellipse fill="none" stroke="black" cx="1096.9" cy="-18" rx="195.17" ry="18"/>
<text text-anchor="middle" x="1096.9" y="-12.95" font-family="Times New Roman,serif" font-size="14.00">Cuno: &quot;Cuno likes this brain&#45;shit. Thinking&#45;shit.&quot;</text>
</g>
<!-- 1&#45;&gt;11 -->
<g id="edge5" class="edge">
<title>1&#45;&gt;11</title>
<path fill="none" stroke="black" d="M809.58,-82.85C854.66,-72.83 945.69,-52.6 1013.27,-37.58"/>
<polygon fill="black" stroke="black" points="1013.85,-41.04 1022.85,-35.46 1012.33,-34.21 1013.85,-41.04"/>
</g>
<!-- 13 -->
<g id="node14" class="node">
<title>13</title>
<ellipse fill="none" stroke="black" cx="1336.9" cy="-18" rx="27" ry="18"/>
<text text-anchor="middle" x="1336.9" y="-12.95" font-family="Times New Roman,serif" font-size="14.00">13</text>
</g>
<!-- 1&#45;&gt;13 -->
<g id="edge6" class="edge">
<title>1&#45;&gt;13</title>
<path fill="none" stroke="black" d="M812.11,-89.45C892.97,-89.89 1120.5,-86.21 1300.9,-36 1302.53,-35.55 1304.17,-35.03 1305.81,-34.46"/>
<polygon fill="black" stroke="black" points="1307.08,-37.72 1315.02,-30.7 1304.44,-31.23 1307.08,-37.72"/>
</g>
<!-- 3 -->
<g id="node4" class="node">
<title>3</title>
<ellipse fill="none" stroke="black" cx="1038.9" cy="-162" rx="200.29" ry="18"/>
<text text-anchor="middle" x="1038.9" y="-156.95" font-family="Times New Roman,serif" font-size="14.00">Cuno: &quot;Cuno&#39;s gonna have a fucking heart attack!&quot;</text>
</g>
<!-- 4 -->
<g id="node5" class="node">
<title>4</title>
<ellipse fill="none" stroke="black" cx="1416.9" cy="-162" rx="159.85" ry="18"/>
<text text-anchor="middle" x="1416.9" y="-156.95" font-family="Times New Roman,serif" font-size="14.00">Cuno: &quot;This shit ain&#39;t nothing to Cuno.&quot;</text>
</g>
<!-- 6 -->
<g id="node7" class="node">
<title>6</title>
<ellipse fill="none" stroke="black" cx="1826.9" cy="-162" rx="232.53" ry="18"/>
<text text-anchor="middle" x="1826.9" y="-156.95" font-family="Times New Roman,serif" font-size="14.00">Cuno: &quot;Cuno&#39;s fucking electricity! 2000 volts. Cuno&#45;volts.&quot;</text>
</g>
<!-- 8 -->
<g id="node9" class="node">
<title>8</title>
<ellipse fill="none" stroke="black" cx="2254.9" cy="-162" rx="177.26" ry="18"/>
<text text-anchor="middle" x="2254.9" y="-156.95" font-family="Times New Roman,serif" font-size="14.00">Cuno: &quot;Speedtrain: Cuno &#45;&#45; leaving station!&quot;</text>
</g>
<!-- 9 -->
<g id="node10" class="node">
<title>9</title>
<ellipse fill="none" stroke="black" cx="2580.9" cy="-162" rx="131.19" ry="18"/>
<text text-anchor="middle" x="2580.9" y="-156.95" font-family="Times New Roman,serif" font-size="14.00">Cuno: &quot;Cuno&#39;s little shitshow...&quot;</text>
</g>
<!-- 10 -->
<g id="node11" class="node">
<title>10</title>
<ellipse fill="none" stroke="black" cx="2853.9" cy="-162" rx="123.52" ry="18"/>
<text text-anchor="middle" x="2853.9" y="-156.95" font-family="Times New Roman,serif" font-size="14.00">Cunoesse: &quot;I&#39;m bored, Cuno!&quot;</text>
</g>
<!-- 12 -->
<g id="node13" class="node">
<title>12</title>
<ellipse fill="none" stroke="black" cx="3133.9" cy="-162" rx="138.36" ry="18"/>
<text text-anchor="middle" x="3133.9" y="-156.95" font-family="Times New Roman,serif" font-size="14.00">Cunoesse: &quot;Snap out of it, Cuno!&quot;</text>
</g>
</g>
</svg>
