<?xml version="1.0" encoding="UTF-8" standalone="no"?>
<!DOCTYPE svg PUBLIC "-//W3C//DTD SVG 1.1//EN"
 "http://www.w3.org/Graphics/SVG/1.1/DTD/svg11.dtd">
<!-- Generated by graphviz version 12.2.1 (20241206.2353)
 -->
<!-- Title: G Pages: 1 -->
<svg width="6777pt" height="1794pt"
 viewBox="0.00 0.00 6777.33 1793.98" xmlns="http://www.w3.org/2000/svg" xmlns:xlink="http://www.w3.org/1999/xlink">
<g id="graph0" class="graph" transform="scale(1 1) rotate(0) translate(4 1789.98)">
<title>G</title>
<polygon fill="white" stroke="none" points="-4,4 -4,-1789.98 6773.33,-1789.98 6773.33,4 -4,4"/>
<!-- 0 -->
<g id="node1" class="node">
<title>0</title>
<ellipse fill="none" stroke="black" cx="3953.43" cy="-1767.98" rx="39.07" ry="18"/>
<text text-anchor="middle" x="3953.43" y="-1762.93" font-family="Times New Roman,serif" font-size="14.00">START</text>
</g>
<!-- 0&#45;&gt;0 -->
<g id="edge1" class="edge">
<title>0&#45;&gt;0</title>
<path fill="none" stroke="black" d="M3981.61,-1780.93C3996.73,-1783.13 4010.49,-1778.81 4010.49,-1767.98 4010.49,-1759.95 4002.91,-1755.5 3992.82,-1754.64"/>
<polygon fill="black" stroke="black" points="3992.99,-1751.13 3983.13,-1754.99 3993.25,-1758.12 3992.99,-1751.13"/>
</g>
<!-- 1 -->
<g id="node2" class="node">
<title>1</title>
<ellipse fill="none" stroke="black" cx="4058.43" cy="-1767.98" rx="29.86" ry="18"/>
<text text-anchor="middle" x="4058.43" y="-1762.93" font-family="Times New Roman,serif" font-size="14.00">input</text>
</g>
<!-- 64 -->
<g id="node65" class="node">
<title>64</title>
<ellipse fill="none" stroke="black" cx="3653.43" cy="-1695.98" rx="221.27" ry="18"/>
<text text-anchor="middle" x="3653.43" y="-1690.93" font-family="Times New Roman,serif" font-size="14.00">Barbell: Variable[&quot;doomed.barbell_main_hub_reached&quot;]</text>
</g>
<!-- 1&#45;&gt;64 -->
<g id="edge2" class="edge">
<title>1&#45;&gt;64</title>
<path fill="none" stroke="black" d="M4035.7,-1755.87C4030.46,-1753.64 4024.82,-1751.52 4019.43,-1749.98 3953.61,-1731.24 3879.16,-1718.92 3814.66,-1710.92"/>
<polygon fill="black" stroke="black" points="3815.43,-1707.48 3805.08,-1709.75 3814.58,-1714.43 3815.43,-1707.48"/>
</g>
<!-- 2 -->
<g id="node3" class="node">
<title>2</title>
<ellipse fill="none" stroke="black" cx="4460.43" cy="-378" rx="221.78" ry="18"/>
<text text-anchor="middle" x="4460.43" y="-372.95" font-family="Times New Roman,serif" font-size="14.00">Logic: 也许砸破那扇后门不是个好主意……</text>
</g>
<!-- 52 -->
<g id="node53" class="node">
<title>52</title>
<ellipse fill="none" stroke="black" cx="3887.43" cy="-306" rx="90.76" ry="18"/>
<text text-anchor="middle" x="3887.43" y="-300.95" font-family="Times New Roman,serif" font-size="14.00">Barbell: IsKimHere()</text>
</g>
<!-- 2&#45;&gt;52 -->
<g id="edge3" class="edge">
<title>2&#45;&gt;52</title>
<path fill="none" stroke="black" d="M4341,-362.41C4231.53,-349.04 4072.02,-329.55 3974.24,-317.61"/>
<polygon fill="black" stroke="black" points="3974.78,-314.15 3964.43,-316.41 3973.93,-321.09 3974.78,-314.15"/>
</g>
<!-- 3 -->
<g id="node4" class="node">
<title>3</title>
<ellipse fill="none" stroke="black" cx="4909.43" cy="-460.99" rx="102.02" ry="18"/>
<text text-anchor="middle" x="4909.43" y="-455.94" font-family="Times New Roman,serif" font-size="14.00">You: 什么也不说。</text>
</g>
<!-- 39 -->
<g id="node40" class="node">
<title>39</title>
<ellipse fill="none" stroke="black" cx="5058.43" cy="-378" rx="357.92" ry="18"/>
<text text-anchor="middle" x="5058.43" y="-372.95" font-family="Times New Roman,serif" font-size="14.00">Kim Kitsuragi: “举重也一直都不是我的最爱。”警督显然是在*应付*你。</text>
</g>
<!-- 3&#45;&gt;39 -->
<g id="edge4" class="edge">
<title>3&#45;&gt;39</title>
<path fill="none" stroke="black" d="M4939.94,-443.41C4961.99,-431.42 4992.05,-415.08 5016.38,-401.86"/>
<polygon fill="black" stroke="black" points="5017.97,-404.98 5025.08,-397.13 5014.62,-398.83 5017.97,-404.98"/>
</g>
<!-- 4 -->
<g id="node5" class="node">
<title>4</title>
<ellipse fill="none" stroke="black" cx="2398.43" cy="-1191.98" rx="90.76" ry="18"/>
<text text-anchor="middle" x="2398.43" y="-1186.93" font-family="Times New Roman,serif" font-size="14.00">Barbell: IsKimHere()</text>
</g>
<!-- 4&#45;&gt;4 -->
<g id="edge5" class="edge">
<title>4&#45;&gt;4</title>
<path fill="none" stroke="black" d="M2461.01,-1205.4C2486.12,-1206.16 2507.19,-1201.69 2507.19,-1191.98 2507.19,-1183.8 2492.19,-1179.33 2472.42,-1178.59"/>
<polygon fill="black" stroke="black" points="2472.54,-1175.09 2462.53,-1178.57 2472.52,-1182.09 2472.54,-1175.09"/>
</g>
<!-- 5 -->
<g id="node6" class="node">
<title>5</title>
<polygon fill="none" stroke="black" points="2398.43,-1137.98 2315.67,-1119.98 2398.43,-1101.98 2481.18,-1119.98 2398.43,-1137.98"/>
<text text-anchor="middle" x="2398.43" y="-1114.93" font-family="Times New Roman,serif" font-size="14.00">IsKimHere()</text>
</g>
<!-- 4&#45;&gt;5 -->
<g id="edge6" class="edge">
<title>4&#45;&gt;5</title>
<path fill="none" stroke="black" d="M2398.43,-1173.68C2398.43,-1166.39 2398.43,-1157.71 2398.43,-1149.52"/>
<polygon fill="black" stroke="black" points="2401.93,-1149.6 2398.43,-1139.6 2394.93,-1149.6 2401.93,-1149.6"/>
</g>
<!-- 36 -->
<g id="node37" class="node">
<title>36</title>
<ellipse fill="none" stroke="black" cx="2284.43" cy="-1047.98" rx="254.54" ry="18"/>
<text text-anchor="middle" x="2284.43" y="-1042.93" font-family="Times New Roman,serif" font-size="14.00">Kim Kitsuragi: “技巧很不错。”警督点头表示赞同。</text>
</g>
<!-- 5&#45;&gt;36 -->
<g id="edge7" class="edge">
<title>5&#45;&gt;36</title>
<path fill="none" stroke="black" d="M2377.52,-1106.14C2362.04,-1096.64 2340.54,-1083.44 2322.1,-1072.12"/>
<polygon fill="black" stroke="black" points="2324.15,-1069.27 2313.79,-1067.02 2320.49,-1075.23 2324.15,-1069.27"/>
</g>
<!-- 6 -->
<g id="node7" class="node">
<title>6</title>
<polygon fill="none" stroke="black" points="1916.43,-1065.98 1820.64,-1047.98 1916.43,-1029.98 2012.21,-1047.98 1916.43,-1065.98"/>
<text text-anchor="middle" x="1916.43" y="-1042.93" font-family="Times New Roman,serif" font-size="14.00">!(IsKimHere())</text>
</g>
<!-- 32 -->
<g id="node33" class="node">
<title>32</title>
<ellipse fill="none" stroke="black" cx="2284.43" cy="-975.98" rx="94.34" ry="18"/>
<text text-anchor="middle" x="2284.43" y="-970.93" font-family="Times New Roman,serif" font-size="14.00">Jump to: [barbell hub]</text>
</g>
<!-- 6&#45;&gt;32 -->
<g id="edge8" class="edge">
<title>6&#45;&gt;32</title>
<path fill="none" stroke="black" d="M1962.66,-1038.19C2024.26,-1026.47 2134.07,-1005.58 2208.07,-991.51"/>
<polygon fill="black" stroke="black" points="2208.51,-994.99 2217.68,-989.68 2207.2,-988.11 2208.51,-994.99"/>
</g>
<!-- 7 -->
<g id="node8" class="node">
<title>7</title>
<ellipse fill="none" stroke="black" cx="5058.43" cy="-162" rx="298.55" ry="18"/>
<text text-anchor="middle" x="5058.43" y="-156.95" font-family="Times New Roman,serif" font-size="14.00">You: “是哪个混账玩意把夹圈卸下来的？这绝对是重罪。”</text>
</g>
<!-- 37 -->
<g id="node38" class="node">
<title>37</title>
<ellipse fill="none" stroke="black" cx="4150.43" cy="-90" rx="567.77" ry="18"/>
<text text-anchor="middle" x="4150.43" y="-84.95" font-family="Times New Roman,serif" font-size="14.00">Kim Kitsuragi: “如果健身房还在运营的话，那就违反了EPIS的安全条例。但是它没有。应该不会有人来这里了。”</text>
</g>
<!-- 7&#45;&gt;37 -->
<g id="edge9" class="edge">
<title>7&#45;&gt;37</title>
<path fill="none" stroke="black" d="M4879.31,-147.19C4733.59,-135.96 4527.3,-120.05 4371.35,-108.03"/>
<polygon fill="black" stroke="black" points="4371.96,-104.57 4361.72,-107.29 4371.42,-111.55 4371.96,-104.57"/>
</g>
<!-- 8 -->
<g id="node9" class="node">
<title>8</title>
<ellipse fill="none" stroke="black" cx="2963.43" cy="-162" rx="94.34" ry="18"/>
<text text-anchor="middle" x="2963.43" y="-156.95" font-family="Times New Roman,serif" font-size="14.00">Jump to: [barbell hub]</text>
</g>
<!-- 67 -->
<g id="node68" class="node">
<title>67</title>
<ellipse fill="none" stroke="black" cx="2624.43" cy="-1263.98" rx="52.89" ry="18"/>
<text text-anchor="middle" x="2624.43" y="-1258.93" font-family="Times New Roman,serif" font-size="14.00">barbell hub</text>
</g>
<!-- 8&#45;&gt;67 -->
<g id="edge10" class="edge">
<title>8&#45;&gt;67</title>
<path fill="none" stroke="black" d="M2878.82,-170.23C2795.75,-182.51 2681.43,-215.65 2681.43,-305 2681.43,-1120.98 2681.43,-1120.98 2681.43,-1120.98 2681.43,-1161.95 2673.76,-1172.41 2657.43,-1209.98 2653.49,-1219.03 2648.19,-1228.34 2642.98,-1236.59"/>
<polygon fill="black" stroke="black" points="2640.17,-1234.48 2637.61,-1244.76 2646.02,-1238.33 2640.17,-1234.48"/>
</g>
<!-- 9 -->
<g id="node10" class="node">
<title>9</title>
<ellipse fill="none" stroke="black" cx="5693.43" cy="-543.98" rx="76.94" ry="18"/>
<text text-anchor="middle" x="5693.43" y="-538.93" font-family="Times New Roman,serif" font-size="14.00">reaction with kim</text>
</g>
<!-- 9&#45;&gt;2 -->
<g id="edge11" class="edge">
<title>9&#45;&gt;2</title>
<path fill="none" stroke="black" d="M5629.21,-533.75C5608.56,-530.99 5585.55,-528.12 5564.43,-525.98 5452.27,-514.61 5155.64,-547.05 5058.43,-489.98 5031.85,-474.38 5046.81,-447.91 5020.43,-432 5003.76,-421.95 4790.67,-403.86 4632.27,-391.65"/>
<polygon fill="black" stroke="black" points="4632.71,-388.17 4622.47,-390.89 4632.18,-395.15 4632.71,-388.17"/>
</g>
<!-- 38 -->
<g id="node39" class="node">
<title>38</title>
<ellipse fill="none" stroke="black" cx="5236.43" cy="-460.99" rx="169.07" ry="18"/>
<text text-anchor="middle" x="5236.43" y="-455.94" font-family="Times New Roman,serif" font-size="14.00">You: “去你的吧，该死的杠铃！”</text>
</g>
<!-- 9&#45;&gt;38 -->
<g id="edge14" class="edge">
<title>9&#45;&gt;38</title>
<path fill="none" stroke="black" d="M5633.68,-532.39C5557.04,-518.81 5423.16,-495.08 5332.21,-478.97"/>
<polygon fill="black" stroke="black" points="5333.01,-475.55 5322.55,-477.26 5331.79,-482.45 5333.01,-475.55"/>
</g>
<!-- 44 -->
<g id="node45" class="node">
<title>44</title>
<ellipse fill="none" stroke="black" cx="5733.43" cy="-460.99" rx="310.33" ry="18"/>
<text text-anchor="middle" x="5733.43" y="-455.94" font-family="Times New Roman,serif" font-size="14.00">You: “无所谓了，反正举重是为那些智力受损的人准备的。”</text>
</g>
<!-- 9&#45;&gt;44 -->
<g id="edge12" class="edge">
<title>9&#45;&gt;44</title>
<path fill="none" stroke="black" d="M5701.91,-525.81C5707.12,-515.25 5713.92,-501.48 5719.87,-489.44"/>
<polygon fill="black" stroke="black" points="5722.86,-491.3 5724.15,-480.78 5716.58,-488.2 5722.86,-491.3"/>
</g>
<!-- 45 -->
<g id="node46" class="node">
<title>45</title>
<ellipse fill="none" stroke="black" cx="6415.43" cy="-460.99" rx="353.91" ry="28.99"/>
<text text-anchor="middle" x="6415.43" y="-464.19" font-family="Times New Roman,serif" font-size="14.00">You: “看来我的体型有点走样了。或者只是我的手掌心太滑了……”</text>
<text text-anchor="middle" x="6415.43" y="-447.69" font-family="Times New Roman,serif" font-size="14.00">“看来我的体型有点走样了。或者只是这副手套太垃圾了……”</text>
</g>
<!-- 9&#45;&gt;45 -->
<g id="edge13" class="edge">
<title>9&#45;&gt;45</title>
<path fill="none" stroke="black" d="M5761.68,-535.33C5861.04,-524.18 6049.96,-502.99 6199.26,-486.24"/>
<polygon fill="black" stroke="black" points="6199.34,-489.75 6208.89,-485.16 6198.56,-482.8 6199.34,-489.75"/>
</g>
<!-- 10 -->
<g id="node11" class="node">
<title>10</title>
<ellipse fill="none" stroke="black" cx="5536.43" cy="-234" rx="301.63" ry="18"/>
<text text-anchor="middle" x="5536.43" y="-228.95" font-family="Times New Roman,serif" font-size="14.00">Kim Kitsuragi: “戴着手套肯定会容易一点，”警督表示赞同。</text>
</g>
<!-- 10&#45;&gt;7 -->
<g id="edge15" class="edge">
<title>10&#45;&gt;7</title>
<path fill="none" stroke="black" d="M5425.86,-216.81C5352.27,-206.03 5255.57,-191.87 5179.84,-180.78"/>
<polygon fill="black" stroke="black" points="5180.72,-177.37 5170.32,-179.39 5179.71,-184.3 5180.72,-177.37"/>
</g>
<!-- 11 -->
<g id="node12" class="node">
<title>11</title>
<ellipse fill="none" stroke="black" cx="1091.43" cy="-1191.98" rx="266.82" ry="18"/>
<text text-anchor="middle" x="1091.43" y="-1186.93" font-family="Times New Roman,serif" font-size="14.00">You: 这种熟悉的感觉，难道我是个举重运动员吗？</text>
</g>
<!-- 61 -->
<g id="node62" class="node">
<title>61</title>
<ellipse fill="none" stroke="black" cx="791.43" cy="-1119.98" rx="791.43" ry="18"/>
<text text-anchor="middle" x="791.43" y="-1114.93" font-family="Times New Roman,serif" font-size="14.00">Inland Empire: 不，不是的……是橡胶那陈腐的味道，运动鞋嘎吱嘎吱的声响，是你青肿的膝盖抵在垫子上的感觉。还有那声口哨……然后这种感觉消失了。</text>
</g>
<!-- 11&#45;&gt;61 -->
<g id="edge16" class="edge">
<title>11&#45;&gt;61</title>
<path fill="none" stroke="black" d="M1019.57,-1174.22C976.65,-1164.2 921.89,-1151.42 876.78,-1140.9"/>
<polygon fill="black" stroke="black" points="877.84,-1137.55 867.3,-1138.69 876.25,-1144.37 877.84,-1137.55"/>
</g>
<!-- 12 -->
<g id="node13" class="node">
<title>12</title>
<ellipse fill="none" stroke="black" cx="3653.43" cy="-1551.98" rx="278.59" ry="18"/>
<text text-anchor="middle" x="3653.43" y="-1546.93" font-family="Times New Roman,serif" font-size="14.00">Barbell: 地上躺着一只杠铃。夹圈的颜色已经脱落了。</text>
</g>
<!-- 43 -->
<g id="node44" class="node">
<title>43</title>
<ellipse fill="none" stroke="black" cx="3653.43" cy="-1479.98" rx="782.21" ry="18"/>
<text text-anchor="middle" x="3653.43" y="-1474.93" font-family="Times New Roman,serif" font-size="14.00">Physical Instrument: 这是60公斤重的杠铃。你的肱三头肌一看到这些重量就发出了不满的声音。让这个世界看看，它要对付的是哪种野兽。把杠铃举起来。</text>
</g>
<!-- 12&#45;&gt;43 -->
<g id="edge17" class="edge">
<title>12&#45;&gt;43</title>
<path fill="none" stroke="black" d="M3653.43,-1533.68C3653.43,-1526.39 3653.43,-1517.71 3653.43,-1509.52"/>
<polygon fill="black" stroke="black" points="3656.93,-1509.6 3653.43,-1499.6 3649.93,-1509.6 3656.93,-1509.6"/>
</g>
<!-- 13 -->
<g id="node14" class="node">
<title>13</title>
<ellipse fill="none" stroke="black" cx="5264.43" cy="-759.98" rx="749.46" ry="18"/>
<text text-anchor="middle" x="5264.43" y="-754.93" font-family="Times New Roman,serif" font-size="14.00">Physical Instrument: 你奇迹般地激发出超乎常人的力量，把杠铃举到了空中。你的肱二头肌在颤抖，不过你是一个野蛮人。这不过是小孩子的游戏！</text>
</g>
<!-- 20 -->
<g id="node21" class="node">
<title>20</title>
<ellipse fill="none" stroke="black" cx="5600.43" cy="-687.98" rx="74.89" ry="18"/>
<text text-anchor="middle" x="5600.43" y="-682.93" font-family="Times New Roman,serif" font-size="14.00">You: “哦耶。”</text>
</g>
<!-- 13&#45;&gt;20 -->
<g id="edge19" class="edge">
<title>13&#45;&gt;20</title>
<path fill="none" stroke="black" d="M5347.48,-741.68C5405,-729.7 5480.53,-713.96 5534.04,-702.81"/>
<polygon fill="black" stroke="black" points="5534.55,-706.28 5543.63,-700.82 5533.12,-699.43 5534.55,-706.28"/>
</g>
<!-- 25 -->
<g id="node26" class="node">
<title>25</title>
<ellipse fill="none" stroke="black" cx="4893.43" cy="-687.98" rx="133.75" ry="18"/>
<text text-anchor="middle" x="4893.43" y="-682.93" font-family="Times New Roman,serif" font-size="14.00">You: “我是真正的冠军！”</text>
</g>
<!-- 13&#45;&gt;25 -->
<g id="edge18" class="edge">
<title>13&#45;&gt;25</title>
<path fill="none" stroke="black" d="M5172.72,-741.68C5113.98,-730.6 5038.21,-716.3 4980.41,-705.4"/>
<polygon fill="black" stroke="black" points="4981.07,-701.96 4970.59,-703.54 4979.77,-708.84 4981.07,-701.96"/>
</g>
<!-- 69 -->
<g id="node70" class="node">
<title>69</title>
<ellipse fill="none" stroke="black" cx="5276.43" cy="-687.98" rx="231.51" ry="18"/>
<text text-anchor="middle" x="5276.43" y="-682.93" font-family="Times New Roman,serif" font-size="14.00">You: （什么也不说，沉浸在这种感觉里。）</text>
</g>
<!-- 13&#45;&gt;69 -->
<g id="edge20" class="edge">
<title>13&#45;&gt;69</title>
<path fill="none" stroke="black" d="M5267.39,-741.68C5268.66,-734.3 5270.16,-725.51 5271.58,-717.23"/>
<polygon fill="black" stroke="black" points="5275,-718.03 5273.24,-707.58 5268.1,-716.84 5275,-718.03"/>
</g>
<!-- 14 -->
<g id="node15" class="node">
<title>14</title>
<ellipse fill="none" stroke="black" cx="2782.43" cy="-1191.98" rx="72.85" ry="18"/>
<text text-anchor="middle" x="2782.43" y="-1186.93" font-family="Times New Roman,serif" font-size="14.00">You: [离开。]</text>
</g>
<!-- 15 -->
<g id="node16" class="node">
<title>15</title>
<ellipse fill="none" stroke="black" cx="3518.43" cy="-460.99" rx="223.83" ry="18"/>
<text text-anchor="middle" x="3518.43" y="-455.94" font-family="Times New Roman,serif" font-size="14.00">Barbell: Variable[&quot;doomed.bookstore_backdoor_forced&quot;]</text>
</g>
<!-- 16 -->
<g id="node17" class="node">
<title>16</title>
<polygon fill="none" stroke="black" points="3949.43,-396 3677.76,-378 3949.43,-360 4221.09,-378 3949.43,-396"/>
<text text-anchor="middle" x="3949.43" y="-372.95" font-family="Times New Roman,serif" font-size="14.00">Variable[&quot;doomed.bookstore_backdoor_forced&quot;]</text>
</g>
<!-- 15&#45;&gt;16 -->
<g id="edge21" class="edge">
<title>15&#45;&gt;16</title>
<path fill="none" stroke="black" d="M3603.84,-443.94C3681.26,-429.39 3794.48,-408.12 3869.99,-393.93"/>
<polygon fill="black" stroke="black" points="3870.18,-397.45 3879.36,-392.17 3868.89,-390.57 3870.18,-397.45"/>
</g>
<!-- 17 -->
<g id="node18" class="node">
<title>17</title>
<polygon fill="none" stroke="black" points="3375.43,-396 3090.73,-378 3375.43,-360 3660.12,-378 3375.43,-396"/>
<text text-anchor="middle" x="3375.43" y="-372.95" font-family="Times New Roman,serif" font-size="14.00">!(Variable[&quot;doomed.bookstore_backdoor_forced&quot;])</text>
</g>
<!-- 15&#45;&gt;17 -->
<g id="edge22" class="edge">
<title>15&#45;&gt;17</title>
<path fill="none" stroke="black" d="M3488.1,-442.82C3466.1,-430.36 3436.22,-413.43 3412.76,-400.14"/>
<polygon fill="black" stroke="black" points="3414.55,-397.14 3404.12,-395.25 3411.1,-403.23 3414.55,-397.14"/>
</g>
<!-- 16&#45;&gt;1 -->
<g id="edge23" class="edge">
<title>16&#45;&gt;1</title>
<path fill="none" stroke="black" d="M4047.32,-390.01C4196.45,-409.54 4463.43,-456.57 4463.43,-542.98 4463.43,-1624.98 4463.43,-1624.98 4463.43,-1624.98 4463.43,-1797.3 4256.8,-1686.95 4096.43,-1749.98 4094.91,-1750.58 4093.37,-1751.2 4091.82,-1751.84"/>
<polygon fill="black" stroke="black" points="4090.8,-1748.47 4082.99,-1755.62 4093.56,-1754.9 4090.8,-1748.47"/>
</g>
<!-- 17&#45;&gt;52 -->
<g id="edge24" class="edge">
<title>17&#45;&gt;52</title>
<path fill="none" stroke="black" d="M3462.86,-365.05C3558.1,-352.03 3709.36,-331.34 3803.28,-318.5"/>
<polygon fill="black" stroke="black" points="3803.51,-322.01 3812.94,-317.18 3802.56,-315.07 3803.51,-322.01"/>
</g>
<!-- 18 -->
<g id="node19" class="node">
<title>18</title>
<ellipse fill="none" stroke="black" cx="1563.43" cy="-1047.98" rx="239.7" ry="18"/>
<text text-anchor="middle" x="1563.43" y="-1042.93" font-family="Times New Roman,serif" font-size="14.00">You: “其实呢，我真的不在乎什么安全隐患。”</text>
</g>
<!-- 19 -->
<g id="node20" class="node">
<title>19</title>
<ellipse fill="none" stroke="black" cx="2146.43" cy="-90" rx="289.85" ry="18"/>
<text text-anchor="middle" x="2146.43" y="-84.95" font-family="Times New Roman,serif" font-size="14.00">Kim Kitsuragi: “谁都不在乎，直到他们被压在杠铃底下。”</text>
</g>
<!-- 18&#45;&gt;19 -->
<g id="edge25" class="edge">
<title>18&#45;&gt;19</title>
<path fill="none" stroke="black" d="M1667.99,-1031.35C1787.69,-1010.43 1967.43,-968.46 1967.43,-904.98 1967.43,-904.98 1967.43,-904.98 1967.43,-233 1967.43,-172.51 2030.94,-133.7 2082.3,-112.2"/>
<polygon fill="black" stroke="black" points="2083.35,-115.55 2091.32,-108.57 2080.73,-109.06 2083.35,-115.55"/>
</g>
<!-- 68 -->
<g id="node69" class="node">
<title>68</title>
<ellipse fill="none" stroke="black" cx="2643.43" cy="-18" rx="94.34" ry="18"/>
<text text-anchor="middle" x="2643.43" y="-12.95" font-family="Times New Roman,serif" font-size="14.00">Jump to: [barbell hub]</text>
</g>
<!-- 19&#45;&gt;68 -->
<g id="edge26" class="edge">
<title>19&#45;&gt;68</title>
<path fill="none" stroke="black" d="M2260.14,-72.98C2350.72,-60.23 2475.57,-42.64 2557.83,-31.06"/>
<polygon fill="black" stroke="black" points="2558.24,-34.53 2567.65,-29.67 2557.26,-27.6 2558.24,-34.53"/>
</g>
<!-- 47 -->
<g id="node48" class="node">
<title>47</title>
<ellipse fill="none" stroke="black" cx="5288.43" cy="-615.98" rx="796.54" ry="18"/>
<text text-anchor="middle" x="5288.43" y="-610.93" font-family="Times New Roman,serif" font-size="14.00">Physical Instrument: 你把杠铃扔在地板上，一股温热的成就感从你的头顶倾泄而下。片刻之间，你感觉自己是那么的强大，只要下定决心，就一定能够成功。</text>
</g>
<!-- 20&#45;&gt;47 -->
<g id="edge27" class="edge">
<title>20&#45;&gt;47</title>
<path fill="none" stroke="black" d="M5547.15,-675.03C5500.5,-664.56 5431.78,-649.15 5376.9,-636.83"/>
<polygon fill="black" stroke="black" points="5377.76,-633.44 5367.24,-634.66 5376.23,-640.27 5377.76,-633.44"/>
</g>
<!-- 21 -->
<g id="node22" class="node">
<title>21</title>
<ellipse fill="none" stroke="black" cx="1714.43" cy="-903.98" rx="94.34" ry="18"/>
<text text-anchor="middle" x="1714.43" y="-898.93" font-family="Times New Roman,serif" font-size="14.00">Jump to: [barbell hub]</text>
</g>
<!-- 21&#45;&gt;67 -->
<g id="edge28" class="edge">
<title>21&#45;&gt;67</title>
<path fill="none" stroke="black" d="M1805.77,-908.91C1963.23,-916.22 2279.27,-933.45 2387.43,-957.98 2593.85,-1004.81 2605.43,-1031.47 2605.43,-1046.98 2605.43,-1120.98 2605.43,-1120.98 2605.43,-1120.98 2605.43,-1160.59 2612.78,-1205.87 2618.34,-1234.44"/>
<polygon fill="black" stroke="black" points="2614.88,-1235 2620.28,-1244.11 2621.74,-1233.62 2614.88,-1235"/>
</g>
<!-- 22 -->
<g id="node23" class="node">
<title>22</title>
<ellipse fill="none" stroke="black" cx="4902.43" cy="-1767.98" rx="796.54" ry="18"/>
<text text-anchor="middle" x="4902.43" y="-1762.93" font-family="Times New Roman,serif" font-size="14.00">Physical Instrument: 你把杠铃扔在地板上，一股温热的成就感从你的头顶倾泄而下。片刻之间，你感觉自己是那么的强大，只要下定决心，就一定能够成功。</text>
</g>
<!-- 23 -->
<g id="node24" class="node">
<title>23</title>
<ellipse fill="none" stroke="black" cx="3258.43" cy="-1407.98" rx="274.5" ry="18"/>
<text text-anchor="middle" x="3258.43" y="-1402.93" font-family="Times New Roman,serif" font-size="14.00">Visual Calculus: 杠铃上没有夹圈。这是一个安全隐患。</text>
</g>
<!-- 40 -->
<g id="node41" class="node">
<title>40</title>
<ellipse fill="none" stroke="black" cx="3017.43" cy="-1335.98" rx="187.49" ry="18"/>
<text text-anchor="middle" x="3017.43" y="-1330.93" font-family="Times New Roman,serif" font-size="14.00">Inland Empire: 为什么感觉这么熟悉？</text>
</g>
<!-- 23&#45;&gt;40 -->
<g id="edge29" class="edge">
<title>23&#45;&gt;40</title>
<path fill="none" stroke="black" d="M3199.78,-1389.95C3165.18,-1379.9 3121.25,-1367.14 3085.18,-1356.66"/>
<polygon fill="black" stroke="black" points="3086.29,-1353.34 3075.71,-1353.91 3084.33,-1360.06 3086.29,-1353.34"/>
</g>
<!-- 24 -->
<g id="node25" class="node">
<title>24</title>
<ellipse fill="none" stroke="black" cx="6302.43" cy="-234" rx="372.26" ry="18"/>
<text text-anchor="middle" x="6302.43" y="-228.95" font-family="Times New Roman,serif" font-size="14.00">Kim Kitsuragi: “合适的举重手套肯定能提供更好的抓力，”警督表示赞同。</text>
</g>
<!-- 24&#45;&gt;7 -->
<g id="edge30" class="edge">
<title>24&#45;&gt;7</title>
<path fill="none" stroke="black" d="M6066.24,-219.71C5840.97,-207.03 5504.09,-188.08 5282.82,-175.63"/>
<polygon fill="black" stroke="black" points="5283.07,-172.14 5272.89,-175.07 5282.68,-179.12 5283.07,-172.14"/>
</g>
<!-- 25&#45;&gt;47 -->
<g id="edge31" class="edge">
<title>25&#45;&gt;47</title>
<path fill="none" stroke="black" d="M4971.94,-673.07C5031.38,-662.53 5113.76,-647.94 5179.56,-636.27"/>
<polygon fill="black" stroke="black" points="5180.09,-639.74 5189.32,-634.55 5178.86,-632.84 5180.09,-639.74"/>
</g>
<!-- 26 -->
<g id="node27" class="node">
<title>26</title>
<ellipse fill="none" stroke="black" cx="966.43" cy="-1047.98" rx="131.71" ry="18"/>
<text text-anchor="middle" x="966.43" y="-1042.93" font-family="Times New Roman,serif" font-size="14.00">Logic: 这只是一段记忆。</text>
</g>
<!-- 41 -->
<g id="node42" class="node">
<title>41</title>
<ellipse fill="none" stroke="black" cx="1193.43" cy="-975.98" rx="357.41" ry="18"/>
<text text-anchor="middle" x="1193.43" y="-970.93" font-family="Times New Roman,serif" font-size="14.00">Endurance: 来自另一种生活的记忆——那时的你年轻有为，苗条健康。</text>
</g>
<!-- 26&#45;&gt;41 -->
<g id="edge32" class="edge">
<title>26&#45;&gt;41</title>
<path fill="none" stroke="black" d="M1018.22,-1031.01C1050.34,-1021.11 1091.92,-1008.28 1126.52,-997.61"/>
<polygon fill="black" stroke="black" points="1127.52,-1000.97 1136.04,-994.68 1125.45,-994.28 1127.52,-1000.97"/>
</g>
<!-- 27 -->
<g id="node28" class="node">
<title>27</title>
<ellipse fill="none" stroke="black" cx="2515.43" cy="-1479.98" rx="337.45" ry="18"/>
<text text-anchor="middle" x="2515.43" y="-1474.93" font-family="Times New Roman,serif" font-size="14.00">Barbell: 杠铃耐心地躺在地板上等待着，就像一条等待主人的狗。</text>
</g>
<!-- 27&#45;&gt;67 -->
<g id="edge33" class="edge">
<title>27&#45;&gt;67</title>
<path fill="none" stroke="black" d="M2524.16,-1461.83C2543.02,-1424.81 2587.66,-1337.16 2610.48,-1292.37"/>
<polygon fill="black" stroke="black" points="2613.54,-1294.06 2614.96,-1283.56 2607.3,-1290.89 2613.54,-1294.06"/>
</g>
<!-- 28 -->
<g id="node29" class="node">
<title>28</title>
<ellipse fill="none" stroke="black" cx="3553.43" cy="-975.98" rx="182.89" ry="18"/>
<text text-anchor="middle" x="3553.43" y="-970.93" font-family="Times New Roman,serif" font-size="14.00">Barbell: Variable[&quot;doomed.gym_doing_reps&quot;]</text>
</g>
<!-- 29 -->
<g id="node30" class="node">
<title>29</title>
<polygon fill="none" stroke="black" points="4116.43,-921.98 3902.66,-903.98 4116.43,-885.98 4330.19,-903.98 4116.43,-921.98"/>
<text text-anchor="middle" x="4116.43" y="-898.93" font-family="Times New Roman,serif" font-size="14.00">Variable[&quot;doomed.gym_doing_reps&quot;]</text>
</g>
<!-- 28&#45;&gt;29 -->
<g id="edge34" class="edge">
<title>28&#45;&gt;29</title>
<path fill="none" stroke="black" d="M3663.98,-961.24C3768.21,-948.28 3922.74,-929.06 4021.52,-916.78"/>
<polygon fill="black" stroke="black" points="4021.69,-920.29 4031.18,-915.58 4020.83,-913.34 4021.69,-920.29"/>
</g>
<!-- 30 -->
<g id="node31" class="node">
<title>30</title>
<polygon fill="none" stroke="black" points="3553.43,-921.98 3326.63,-903.98 3553.43,-885.98 3780.22,-903.98 3553.43,-921.98"/>
<text text-anchor="middle" x="3553.43" y="-898.93" font-family="Times New Roman,serif" font-size="14.00">!(Variable[&quot;doomed.gym_doing_reps&quot;])</text>
</g>
<!-- 28&#45;&gt;30 -->
<g id="edge35" class="edge">
<title>28&#45;&gt;30</title>
<path fill="none" stroke="black" d="M3553.43,-957.68C3553.43,-950.39 3553.43,-941.71 3553.43,-933.52"/>
<polygon fill="black" stroke="black" points="3556.93,-933.6 3553.43,-923.6 3549.93,-933.6 3556.93,-933.6"/>
</g>
<!-- 29&#45;&gt;13 -->
<g id="edge36" class="edge">
<title>29&#45;&gt;13</title>
<path fill="none" stroke="black" d="M4200.38,-892.6C4393.31,-868.73 4870.46,-809.71 5114.88,-779.48"/>
<polygon fill="black" stroke="black" points="5114.99,-782.99 5124.48,-778.29 5114.13,-776.05 5114.99,-782.99"/>
</g>
<!-- 46 -->
<g id="node47" class="node">
<title>46</title>
<ellipse fill="none" stroke="black" cx="3553.43" cy="-831.98" rx="843.63" ry="18"/>
<text text-anchor="middle" x="3553.43" y="-826.93" font-family="Times New Roman,serif" font-size="14.00">Physical Instrument: 你设法把它从地上提了起来，但是杠铃感觉有些摇晃，很是危险，你的双手开始出汗打滑。结果你根本不是什么野兽，只是个体型糟糕的老男人。</text>
</g>
<!-- 30&#45;&gt;46 -->
<g id="edge37" class="edge">
<title>30&#45;&gt;46</title>
<path fill="none" stroke="black" d="M3553.43,-885.68C3553.43,-878.39 3553.43,-869.71 3553.43,-861.52"/>
<polygon fill="black" stroke="black" points="3556.93,-861.6 3553.43,-851.6 3549.93,-861.6 3556.93,-861.6"/>
</g>
<!-- 31 -->
<g id="node32" class="node">
<title>31</title>
<ellipse fill="none" stroke="black" cx="5058.43" cy="-306" rx="697.77" ry="18"/>
<text text-anchor="middle" x="5058.43" y="-300.95" font-family="Times New Roman,serif" font-size="14.00">Kim Kitsuragi: “我的意思是说，在警局的健身房。我更喜欢跑步，能让你清空大脑……”警督走到杠铃旁边，给你留了点安静恢复的空间。</text>
</g>
<!-- 31&#45;&gt;7 -->
<g id="edge38" class="edge">
<title>31&#45;&gt;7</title>
<path fill="none" stroke="black" d="M5058.43,-287.59C5058.43,-263.61 5058.43,-220.14 5058.43,-191.42"/>
<polygon fill="black" stroke="black" points="5061.93,-191.62 5058.43,-181.62 5054.93,-191.62 5061.93,-191.62"/>
</g>
<!-- 32&#45;&gt;67 -->
<g id="edge39" class="edge">
<title>32&#45;&gt;67</title>
<path fill="none" stroke="black" d="M2369.41,-984.16C2436.6,-991.59 2523.15,-1005.61 2548.43,-1029.98 2607.63,-1087.08 2559.72,-1134.09 2591.43,-1209.98 2595.23,-1219.08 2600.5,-1228.41 2605.71,-1236.66"/>
<polygon fill="black" stroke="black" points="2602.67,-1238.41 2611.1,-1244.82 2608.51,-1234.55 2602.67,-1238.41"/>
</g>
<!-- 33 -->
<g id="node34" class="node">
<title>33</title>
<ellipse fill="none" stroke="black" cx="3553.43" cy="-759.98" rx="196.19" ry="18"/>
<text text-anchor="middle" x="3553.43" y="-754.93" font-family="Times New Roman,serif" font-size="14.00">Barbell: Variable[&quot;tc.doomed_commercial_area&quot;]</text>
</g>
<!-- 34 -->
<g id="node35" class="node">
<title>34</title>
<polygon fill="none" stroke="black" points="3409.43,-705.98 3176.84,-687.98 3409.43,-669.98 3642.01,-687.98 3409.43,-705.98"/>
<text text-anchor="middle" x="3409.43" y="-682.93" font-family="Times New Roman,serif" font-size="14.00">Variable[&quot;tc.doomed_commercial_area&quot;]</text>
</g>
<!-- 33&#45;&gt;34 -->
<g id="edge40" class="edge">
<title>33&#45;&gt;34</title>
<path fill="none" stroke="black" d="M3518.2,-741.86C3497.73,-731.91 3471.85,-719.33 3450.47,-708.93"/>
<polygon fill="black" stroke="black" points="3452.26,-705.91 3441.74,-704.69 3449.2,-712.21 3452.26,-705.91"/>
</g>
<!-- 35 -->
<g id="node36" class="node">
<title>35</title>
<polygon fill="none" stroke="black" points="3874.43,-633.98 3628.81,-615.98 3874.43,-597.98 4120.04,-615.98 3874.43,-633.98"/>
<text text-anchor="middle" x="3874.43" y="-610.93" font-family="Times New Roman,serif" font-size="14.00">!(Variable[&quot;tc.doomed_commercial_area&quot;])</text>
</g>
<!-- 33&#45;&gt;35 -->
<g id="edge41" class="edge">
<title>33&#45;&gt;35</title>
<path fill="none" stroke="black" d="M3592.15,-741.85C3652.2,-715.29 3767.45,-664.31 3830.52,-636.41"/>
<polygon fill="black" stroke="black" points="3831.81,-639.66 3839.54,-632.42 3828.98,-633.26 3831.81,-639.66"/>
</g>
<!-- 62 -->
<g id="node63" class="node">
<title>62</title>
<ellipse fill="none" stroke="black" cx="3340.43" cy="-615.98" rx="269.89" ry="18"/>
<text text-anchor="middle" x="3340.43" y="-610.93" font-family="Times New Roman,serif" font-size="14.00">Inland Empire: 看见没，看见没！这个地方被诅咒了！</text>
</g>
<!-- 34&#45;&gt;62 -->
<g id="edge42" class="edge">
<title>34&#45;&gt;62</title>
<path fill="none" stroke="black" d="M3393.42,-670.75C3385.05,-662.25 3374.61,-651.66 3365.21,-642.13"/>
<polygon fill="black" stroke="black" points="3367.88,-639.85 3358.37,-635.18 3362.9,-644.76 3367.88,-639.85"/>
</g>
<!-- 60 -->
<g id="node61" class="node">
<title>60</title>
<ellipse fill="none" stroke="black" cx="3518.43" cy="-543.98" rx="349.74" ry="18"/>
<text text-anchor="middle" x="3518.43" y="-538.93" font-family="Times New Roman,serif" font-size="14.00">Endurance: 就连你的身体也辜负了你。你没伤到自己简直就是奇迹。</text>
</g>
<!-- 35&#45;&gt;60 -->
<g id="edge43" class="edge">
<title>35&#45;&gt;60</title>
<path fill="none" stroke="black" d="M3809.96,-602.31C3755.71,-591.64 3677.31,-576.22 3615.48,-564.07"/>
<polygon fill="black" stroke="black" points="3616.5,-560.7 3606.01,-562.2 3615.15,-567.57 3616.5,-560.7"/>
</g>
<!-- 36&#45;&gt;32 -->
<g id="edge44" class="edge">
<title>36&#45;&gt;32</title>
<path fill="none" stroke="black" d="M2284.43,-1029.68C2284.43,-1022.39 2284.43,-1013.71 2284.43,-1005.52"/>
<polygon fill="black" stroke="black" points="2287.93,-1005.6 2284.43,-995.6 2280.93,-1005.6 2287.93,-1005.6"/>
</g>
<!-- 37&#45;&gt;68 -->
<g id="edge45" class="edge">
<title>37&#45;&gt;68</title>
<path fill="none" stroke="black" d="M3839.09,-74.54C3496.84,-58.64 2966.26,-34 2745.34,-23.73"/>
<polygon fill="black" stroke="black" points="2745.77,-20.25 2735.62,-23.28 2745.44,-27.24 2745.77,-20.25"/>
</g>
<!-- 38&#45;&gt;39 -->
<g id="edge46" class="edge">
<title>38&#45;&gt;39</title>
<path fill="none" stroke="black" d="M5199.11,-443.01C5172.33,-430.83 5135.99,-414.29 5106.95,-401.08"/>
<polygon fill="black" stroke="black" points="5108.54,-397.96 5097.99,-397 5105.64,-404.33 5108.54,-397.96"/>
</g>
<!-- 39&#45;&gt;31 -->
<g id="edge47" class="edge">
<title>39&#45;&gt;31</title>
<path fill="none" stroke="black" d="M5058.43,-359.7C5058.43,-352.41 5058.43,-343.73 5058.43,-335.54"/>
<polygon fill="black" stroke="black" points="5061.93,-335.62 5058.43,-325.62 5054.93,-335.62 5061.93,-335.62"/>
</g>
<!-- 40&#45;&gt;67 -->
<g id="edge48" class="edge">
<title>40&#45;&gt;67</title>
<path fill="none" stroke="black" d="M2931.18,-1319.62C2855.36,-1306.12 2747.15,-1286.84 2681.58,-1275.16"/>
<polygon fill="black" stroke="black" points="2682.59,-1271.79 2672.13,-1273.48 2681.36,-1278.68 2682.59,-1271.79"/>
</g>
<!-- 41&#45;&gt;21 -->
<g id="edge49" class="edge">
<title>41&#45;&gt;21</title>
<path fill="none" stroke="black" d="M1315.25,-958.62C1411.09,-945.74 1542.27,-928.11 1627.67,-916.64"/>
<polygon fill="black" stroke="black" points="1627.95,-920.13 1637.39,-915.33 1627.01,-913.2 1627.95,-920.13"/>
</g>
<!-- 42 -->
<g id="node43" class="node">
<title>42</title>
<ellipse fill="none" stroke="black" cx="1949.43" cy="-1119.98" rx="348.71" ry="18"/>
<text text-anchor="middle" x="1949.43" y="-1114.93" font-family="Times New Roman,serif" font-size="14.00">Kim Kitsuragi: “你说得对，杠铃片可能会掉下来。最好还是别碰了。”</text>
</g>
<!-- 42&#45;&gt;6 -->
<g id="edge51" class="edge">
<title>42&#45;&gt;6</title>
<path fill="none" stroke="black" d="M1941.27,-1101.68C1937.47,-1093.62 1932.87,-1083.86 1928.66,-1074.94"/>
<polygon fill="black" stroke="black" points="1931.89,-1073.58 1924.46,-1066.02 1925.56,-1076.56 1931.89,-1073.58"/>
</g>
<!-- 42&#45;&gt;18 -->
<g id="edge50" class="edge">
<title>42&#45;&gt;18</title>
<path fill="none" stroke="black" d="M1856.97,-1102.22C1798.6,-1091.63 1723.2,-1077.96 1663.44,-1067.12"/>
<polygon fill="black" stroke="black" points="1664.42,-1063.74 1653.96,-1065.4 1663.17,-1070.63 1664.42,-1063.74"/>
</g>
<!-- 43&#45;&gt;23 -->
<g id="edge52" class="edge">
<title>43&#45;&gt;23</title>
<path fill="none" stroke="black" d="M3555.53,-1461.63C3496.6,-1451.19 3421.64,-1437.91 3361.75,-1427.29"/>
<polygon fill="black" stroke="black" points="3362.7,-1423.91 3352.25,-1425.61 3361.48,-1430.8 3362.7,-1423.91"/>
</g>
<!-- 55 -->
<g id="node56" class="node">
<title>55</title>
<ellipse fill="none" stroke="black" cx="5771.43" cy="-378" rx="336.94" ry="18"/>
<text text-anchor="middle" x="5771.43" y="-372.95" font-family="Times New Roman,serif" font-size="14.00">Kim Kitsuragi: “这也从来都不是我的最爱。”警督显然是在应付你。</text>
</g>
<!-- 44&#45;&gt;55 -->
<g id="edge53" class="edge">
<title>44&#45;&gt;55</title>
<path fill="none" stroke="black" d="M5741.48,-442.82C5746.39,-432.36 5752.77,-418.77 5758.38,-406.81"/>
<polygon fill="black" stroke="black" points="5761.53,-408.34 5762.6,-397.8 5755.19,-405.37 5761.53,-408.34"/>
</g>
<!-- 48 -->
<g id="node49" class="node">
<title>48</title>
<ellipse fill="none" stroke="black" cx="6377.43" cy="-378" rx="163.95" ry="18"/>
<text text-anchor="middle" x="6377.43" y="-372.95" font-family="Times New Roman,serif" font-size="14.00">Barbell: CheckEquippedGroup(&quot;gloves&quot;)</text>
</g>
<!-- 45&#45;&gt;48 -->
<g id="edge54" class="edge">
<title>45&#45;&gt;48</title>
<path fill="none" stroke="black" d="M6402.14,-431.66C6398.27,-423.42 6394.05,-414.43 6390.21,-406.25"/>
<polygon fill="black" stroke="black" points="6393.51,-405.03 6386.09,-397.47 6387.17,-408.01 6393.51,-405.03"/>
</g>
<!-- 46&#45;&gt;33 -->
<g id="edge55" class="edge">
<title>46&#45;&gt;33</title>
<path fill="none" stroke="black" d="M3553.43,-813.68C3553.43,-806.39 3553.43,-797.71 3553.43,-789.52"/>
<polygon fill="black" stroke="black" points="3556.93,-789.6 3553.43,-779.6 3549.93,-789.6 3556.93,-789.6"/>
</g>
<!-- 63 -->
<g id="node64" class="node">
<title>63</title>
<ellipse fill="none" stroke="black" cx="5066.43" cy="-543.98" rx="489.46" ry="18"/>
<text text-anchor="middle" x="5066.43" y="-538.93" font-family="Times New Roman,serif" font-size="14.00">Inland Empire: 喂，你还在一栋鬼屋里……如果被什么人听见呢？如果他们不知道你在这里呢？！</text>
</g>
<!-- 47&#45;&gt;63 -->
<g id="edge56" class="edge">
<title>47&#45;&gt;63</title>
<path fill="none" stroke="black" d="M5233.26,-597.59C5202.58,-587.91 5164.19,-575.81 5131.97,-565.65"/>
<polygon fill="black" stroke="black" points="5133.34,-562.41 5122.75,-562.74 5131.23,-569.09 5133.34,-562.41"/>
</g>
<!-- 49 -->
<g id="node50" class="node">
<title>49</title>
<polygon fill="none" stroke="black" points="6377.43,-324 6191.17,-306 6377.43,-288 6563.69,-306 6377.43,-324"/>
<text text-anchor="middle" x="6377.43" y="-300.95" font-family="Times New Roman,serif" font-size="14.00">CheckEquippedGroup(&quot;gloves&quot;)</text>
</g>
<!-- 48&#45;&gt;49 -->
<g id="edge57" class="edge">
<title>48&#45;&gt;49</title>
<path fill="none" stroke="black" d="M6377.43,-359.7C6377.43,-352.41 6377.43,-343.73 6377.43,-335.54"/>
<polygon fill="black" stroke="black" points="6380.93,-335.62 6377.43,-325.62 6373.93,-335.62 6380.93,-335.62"/>
</g>
<!-- 50 -->
<g id="node51" class="node">
<title>50</title>
<polygon fill="none" stroke="black" points="5973.43,-324 5774.14,-306 5973.43,-288 6172.71,-306 5973.43,-324"/>
<text text-anchor="middle" x="5973.43" y="-300.95" font-family="Times New Roman,serif" font-size="14.00">!(CheckEquippedGroup(&quot;gloves&quot;))</text>
</g>
<!-- 48&#45;&gt;50 -->
<g id="edge58" class="edge">
<title>48&#45;&gt;50</title>
<path fill="none" stroke="black" d="M6292.24,-362.24C6220.86,-349.87 6119.83,-332.37 6050.75,-320.4"/>
<polygon fill="black" stroke="black" points="6051.46,-316.97 6041.01,-318.71 6050.27,-323.87 6051.46,-316.97"/>
</g>
<!-- 49&#45;&gt;24 -->
<g id="edge59" class="edge">
<title>49&#45;&gt;24</title>
<path fill="none" stroke="black" d="M6360.78,-289.46C6351.52,-280.82 6339.77,-269.85 6329.24,-260.03"/>
<polygon fill="black" stroke="black" points="6331.94,-257.76 6322.24,-253.49 6327.16,-262.88 6331.94,-257.76"/>
</g>
<!-- 50&#45;&gt;10 -->
<g id="edge60" class="edge">
<title>50&#45;&gt;10</title>
<path fill="none" stroke="black" d="M5903.7,-293.83C5835.35,-282.88 5730,-266.01 5649.63,-253.13"/>
<polygon fill="black" stroke="black" points="5650.39,-249.71 5639.96,-251.58 5649.28,-256.62 5650.39,-249.71"/>
</g>
<!-- 51 -->
<g id="node52" class="node">
<title>51</title>
<ellipse fill="none" stroke="black" cx="1982.43" cy="-1191.98" rx="275.01" ry="18"/>
<text text-anchor="middle" x="1982.43" y="-1186.93" font-family="Times New Roman,serif" font-size="14.00">You: “看，金，这是个陷阱。这个杠铃上没有夹圈！”</text>
</g>
<!-- 51&#45;&gt;42 -->
<g id="edge61" class="edge">
<title>51&#45;&gt;42</title>
<path fill="none" stroke="black" d="M1974.27,-1173.68C1970.67,-1166.05 1966.36,-1156.9 1962.34,-1148.38"/>
<polygon fill="black" stroke="black" points="1965.56,-1147.01 1958.13,-1139.46 1959.23,-1149.99 1965.56,-1147.01"/>
</g>
<!-- 53 -->
<g id="node54" class="node">
<title>53</title>
<polygon fill="none" stroke="black" points="3159.43,-252 3076.67,-234 3159.43,-216 3242.18,-234 3159.43,-252"/>
<text text-anchor="middle" x="3159.43" y="-228.95" font-family="Times New Roman,serif" font-size="14.00">IsKimHere()</text>
</g>
<!-- 52&#45;&gt;53 -->
<g id="edge62" class="edge">
<title>52&#45;&gt;53</title>
<path fill="none" stroke="black" d="M3807.09,-297.27C3662.46,-283.37 3360.88,-254.37 3226.52,-241.45"/>
<polygon fill="black" stroke="black" points="3227,-237.98 3216.71,-240.51 3226.33,-244.95 3227,-237.98"/>
</g>
<!-- 54 -->
<g id="node55" class="node">
<title>54</title>
<polygon fill="none" stroke="black" points="4411.43,-252 4315.64,-234 4411.43,-216 4507.21,-234 4411.43,-252"/>
<text text-anchor="middle" x="4411.43" y="-228.95" font-family="Times New Roman,serif" font-size="14.00">!(IsKimHere())</text>
</g>
<!-- 52&#45;&gt;54 -->
<g id="edge63" class="edge">
<title>52&#45;&gt;54</title>
<path fill="none" stroke="black" d="M3961.11,-295.16C4063.75,-281.45 4248.12,-256.82 4346.09,-243.73"/>
<polygon fill="black" stroke="black" points="4346.36,-247.22 4355.81,-242.43 4345.43,-240.29 4346.36,-247.22"/>
</g>
<!-- 53&#45;&gt;8 -->
<g id="edge64" class="edge">
<title>53&#45;&gt;8</title>
<path fill="none" stroke="black" d="M3129.23,-222.22C3099.45,-211.58 3053.29,-195.09 3017.23,-182.22"/>
<polygon fill="black" stroke="black" points="3018.41,-178.92 3007.82,-178.85 3016.06,-185.51 3018.41,-178.92"/>
</g>
<!-- 54&#45;&gt;7 -->
<g id="edge65" class="edge">
<title>54&#45;&gt;7</title>
<path fill="none" stroke="black" d="M4470.27,-226.63C4568.01,-216.06 4766.82,-194.55 4906.13,-179.48"/>
<polygon fill="black" stroke="black" points="4906.25,-182.98 4915.81,-178.43 4905.5,-176.03 4906.25,-182.98"/>
</g>
<!-- 55&#45;&gt;31 -->
<g id="edge66" class="edge">
<title>55&#45;&gt;31</title>
<path fill="none" stroke="black" d="M5614.96,-361.64C5505.06,-350.85 5357.68,-336.38 5242.19,-325.04"/>
<polygon fill="black" stroke="black" points="5242.56,-321.56 5232.27,-324.07 5241.88,-328.53 5242.56,-321.56"/>
</g>
<!-- 56 -->
<g id="node57" class="node">
<title>56</title>
<ellipse fill="none" stroke="black" cx="3028.43" cy="-1191.98" rx="90.25" ry="18"/>
<text text-anchor="middle" x="3028.43" y="-1186.93" font-family="Times New Roman,serif" font-size="14.00">You: 举起杠铃。</text>
</g>
<!-- 57 -->
<g id="node58" class="node">
<title>57</title>
<ellipse fill="none" stroke="black" cx="3094.43" cy="-1119.98" rx="171.11" ry="18"/>
<text text-anchor="middle" x="3094.43" y="-1114.93" font-family="Times New Roman,serif" font-size="14.00">You: Variable[&quot;doomed.gym_doing_reps&quot;]</text>
</g>
<!-- 56&#45;&gt;57 -->
<g id="edge67" class="edge">
<title>56&#45;&gt;57</title>
<path fill="none" stroke="black" d="M3044.4,-1174.04C3052.23,-1165.74 3061.82,-1155.57 3070.5,-1146.36"/>
<polygon fill="black" stroke="black" points="3072.79,-1149.04 3077.1,-1139.36 3067.69,-1144.23 3072.79,-1149.04"/>
</g>
<!-- 58 -->
<g id="node59" class="node">
<title>58</title>
<polygon fill="none" stroke="black" points="3094.43,-1065.98 2880.66,-1047.98 3094.43,-1029.98 3308.19,-1047.98 3094.43,-1065.98"/>
<text text-anchor="middle" x="3094.43" y="-1042.93" font-family="Times New Roman,serif" font-size="14.00">Variable[&quot;doomed.gym_doing_reps&quot;]</text>
</g>
<!-- 57&#45;&gt;58 -->
<g id="edge68" class="edge">
<title>57&#45;&gt;58</title>
<path fill="none" stroke="black" d="M3094.43,-1101.68C3094.43,-1094.39 3094.43,-1085.71 3094.43,-1077.52"/>
<polygon fill="black" stroke="black" points="3097.93,-1077.6 3094.43,-1067.6 3090.93,-1077.6 3097.93,-1077.6"/>
</g>
<!-- 59 -->
<g id="node60" class="node">
<title>59</title>
<polygon fill="none" stroke="black" points="3553.43,-1065.98 3326.63,-1047.98 3553.43,-1029.98 3780.22,-1047.98 3553.43,-1065.98"/>
<text text-anchor="middle" x="3553.43" y="-1042.93" font-family="Times New Roman,serif" font-size="14.00">!(Variable[&quot;doomed.gym_doing_reps&quot;])</text>
</g>
<!-- 57&#45;&gt;59 -->
<g id="edge69" class="edge">
<title>57&#45;&gt;59</title>
<path fill="none" stroke="black" d="M3188.97,-1104.56C3270.68,-1092.1 3387.79,-1074.24 3467.03,-1062.16"/>
<polygon fill="black" stroke="black" points="3467.1,-1065.69 3476.45,-1060.72 3466.04,-1058.77 3467.1,-1065.69"/>
</g>
<!-- 58&#45;&gt;28 -->
<g id="edge70" class="edge">
<title>58&#45;&gt;28</title>
<path fill="none" stroke="black" d="M3168.17,-1035.74C3243.23,-1024.29 3360.38,-1006.42 3445.8,-993.4"/>
<polygon fill="black" stroke="black" points="3446.26,-996.87 3455.61,-991.9 3445.2,-989.95 3446.26,-996.87"/>
</g>
<!-- 59&#45;&gt;28 -->
<g id="edge71" class="edge">
<title>59&#45;&gt;28</title>
<path fill="none" stroke="black" d="M3553.43,-1029.68C3553.43,-1022.39 3553.43,-1013.71 3553.43,-1005.52"/>
<polygon fill="black" stroke="black" points="3556.93,-1005.6 3553.43,-995.6 3549.93,-1005.6 3556.93,-1005.6"/>
</g>
<!-- 60&#45;&gt;15 -->
<g id="edge72" class="edge">
<title>60&#45;&gt;15</title>
<path fill="none" stroke="black" d="M3518.43,-525.81C3518.43,-515.67 3518.43,-502.59 3518.43,-490.91"/>
<polygon fill="black" stroke="black" points="3521.93,-490.94 3518.43,-480.94 3514.93,-490.94 3521.93,-490.94"/>
</g>
<!-- 61&#45;&gt;26 -->
<g id="edge73" class="edge">
<title>61&#45;&gt;26</title>
<path fill="none" stroke="black" d="M834.68,-1101.68C858.86,-1092.01 889.16,-1079.89 914.6,-1069.71"/>
<polygon fill="black" stroke="black" points="915.78,-1073.01 923.76,-1066.05 913.18,-1066.51 915.78,-1073.01"/>
</g>
<!-- 62&#45;&gt;60 -->
<g id="edge74" class="edge">
<title>62&#45;&gt;60</title>
<path fill="none" stroke="black" d="M3383.97,-597.86C3408.02,-588.4 3438.11,-576.57 3463.73,-566.49"/>
<polygon fill="black" stroke="black" points="3464.97,-569.77 3473,-562.85 3462.41,-563.25 3464.97,-569.77"/>
</g>
<!-- 63&#45;&gt;3 -->
<g id="edge75" class="edge">
<title>63&#45;&gt;3</title>
<path fill="none" stroke="black" d="M5032.75,-525.61C5008.99,-513.35 4976.99,-496.85 4951.55,-483.72"/>
<polygon fill="black" stroke="black" points="4953.28,-480.68 4942.79,-479.2 4950.07,-486.9 4953.28,-480.68"/>
</g>
<!-- 65 -->
<g id="node66" class="node">
<title>65</title>
<polygon fill="none" stroke="black" points="2943.43,-1641.98 2675.38,-1623.98 2943.43,-1605.98 3211.48,-1623.98 2943.43,-1641.98"/>
<text text-anchor="middle" x="2943.43" y="-1618.93" font-family="Times New Roman,serif" font-size="14.00">Variable[&quot;doomed.barbell_main_hub_reached&quot;]</text>
</g>
<!-- 64&#45;&gt;65 -->
<g id="edge76" class="edge">
<title>64&#45;&gt;65</title>
<path fill="none" stroke="black" d="M3516.53,-1681.49C3384.03,-1668.42 3185.33,-1648.83 3060.12,-1636.49"/>
<polygon fill="black" stroke="black" points="3060.79,-1633.04 3050.5,-1635.54 3060.1,-1640 3060.79,-1633.04"/>
</g>
<!-- 66 -->
<g id="node67" class="node">
<title>66</title>
<polygon fill="none" stroke="black" points="3653.43,-1641.98 3372.35,-1623.98 3653.43,-1605.98 3934.5,-1623.98 3653.43,-1641.98"/>
<text text-anchor="middle" x="3653.43" y="-1618.93" font-family="Times New Roman,serif" font-size="14.00">!(Variable[&quot;doomed.barbell_main_hub_reached&quot;])</text>
</g>
<!-- 64&#45;&gt;66 -->
<g id="edge77" class="edge">
<title>64&#45;&gt;66</title>
<path fill="none" stroke="black" d="M3653.43,-1677.68C3653.43,-1670.39 3653.43,-1661.71 3653.43,-1653.52"/>
<polygon fill="black" stroke="black" points="3656.93,-1653.6 3653.43,-1643.6 3649.93,-1653.6 3656.93,-1653.6"/>
</g>
<!-- 65&#45;&gt;27 -->
<g id="edge78" class="edge">
<title>65&#45;&gt;27</title>
<path fill="none" stroke="black" d="M2899.63,-1608.45C2823.42,-1583.17 2666.17,-1531 2578.31,-1501.85"/>
<polygon fill="black" stroke="black" points="2579.46,-1498.54 2568.87,-1498.71 2577.26,-1505.18 2579.46,-1498.54"/>
</g>
<!-- 66&#45;&gt;12 -->
<g id="edge79" class="edge">
<title>66&#45;&gt;12</title>
<path fill="none" stroke="black" d="M3653.43,-1605.68C3653.43,-1598.39 3653.43,-1589.71 3653.43,-1581.52"/>
<polygon fill="black" stroke="black" points="3656.93,-1581.6 3653.43,-1571.6 3649.93,-1581.6 3656.93,-1581.6"/>
</g>
<!-- 67&#45;&gt;11 -->
<g id="edge82" class="edge">
<title>67&#45;&gt;11</title>
<path fill="none" stroke="black" d="M2572.1,-1260.59C2376.86,-1251.68 1683.51,-1220.02 1319.06,-1203.38"/>
<polygon fill="black" stroke="black" points="1319.24,-1199.88 1309.09,-1202.92 1318.92,-1206.87 1319.24,-1199.88"/>
</g>
<!-- 67&#45;&gt;14 -->
<g id="edge83" class="edge">
<title>67&#45;&gt;14</title>
<path fill="none" stroke="black" d="M2655.64,-1249.15C2679.04,-1238.79 2711.39,-1224.45 2737.56,-1212.86"/>
<polygon fill="black" stroke="black" points="2738.88,-1216.11 2746.6,-1208.85 2736.04,-1209.71 2738.88,-1216.11"/>
</g>
<!-- 67&#45;&gt;51 -->
<g id="edge81" class="edge">
<title>67&#45;&gt;51</title>
<path fill="none" stroke="black" d="M2574.58,-1257.55C2480.64,-1247.31 2274.04,-1224.78 2131.54,-1209.24"/>
<polygon fill="black" stroke="black" points="2131.93,-1205.76 2121.61,-1208.16 2131.17,-1212.72 2131.93,-1205.76"/>
</g>
<!-- 67&#45;&gt;56 -->
<g id="edge80" class="edge">
<title>67&#45;&gt;56</title>
<path fill="none" stroke="black" d="M2670.77,-1254.95C2739.13,-1243.11 2867.85,-1220.81 2950.78,-1206.44"/>
<polygon fill="black" stroke="black" points="2951.17,-1209.92 2960.43,-1204.76 2949.98,-1203.02 2951.17,-1209.92"/>
</g>
<!-- 68&#45;&gt;67 -->
<g id="edge84" class="edge">
<title>68&#45;&gt;67</title>
<path fill="none" stroke="black" d="M2643.43,-36.49C2643.43,-63.29 2643.43,-116.13 2643.43,-161 2643.43,-1120.98 2643.43,-1120.98 2643.43,-1120.98 2643.43,-1160.59 2636.07,-1205.87 2630.52,-1234.44"/>
<polygon fill="black" stroke="black" points="2627.11,-1233.62 2628.57,-1244.11 2633.97,-1235 2627.11,-1233.62"/>
</g>
<!-- 69&#45;&gt;47 -->
<g id="edge85" class="edge">
<title>69&#45;&gt;47</title>
<path fill="none" stroke="black" d="M5279.39,-669.68C5280.66,-662.3 5282.16,-653.51 5283.58,-645.23"/>
<polygon fill="black" stroke="black" points="5287,-646.03 5285.24,-635.58 5280.1,-644.84 5287,-646.03"/>
</g>
</g>
</svg>
