<?xml version="1.0" encoding="UTF-8" standalone="no"?>
<!DOCTYPE svg PUBLIC "-//W3C//DTD SVG 1.1//EN"
 "http://www.w3.org/Graphics/SVG/1.1/DTD/svg11.dtd">
<!-- Generated by graphviz version 12.2.1 (20241206.2353)
 -->
<!-- Title: G Pages: 1 -->
<svg width="893pt" height="188pt"
 viewBox="0.00 0.00 892.52 188.00" xmlns="http://www.w3.org/2000/svg" xmlns:xlink="http://www.w3.org/1999/xlink">
<g id="graph0" class="graph" transform="scale(1 1) rotate(0) translate(4 184)">
<title>G</title>
<polygon fill="white" stroke="none" points="-4,4 -4,-184 888.52,-184 888.52,4 -4,4"/>
<!-- 0 -->
<g id="node1" class="node">
<title>0</title>
<ellipse fill="none" stroke="black" cx="493.5" cy="-162" rx="39.07" ry="18"/>
<text text-anchor="middle" x="493.5" y="-156.95" font-family="Times New Roman,serif" font-size="14.00">START</text>
</g>
<!-- 1 -->
<g id="node2" class="node">
<title>1</title>
<ellipse fill="none" stroke="black" cx="493.5" cy="-90" rx="29.86" ry="18"/>
<text text-anchor="middle" x="493.5" y="-84.95" font-family="Times New Roman,serif" font-size="14.00">input</text>
</g>
<!-- 0&#45;&gt;1 -->
<g id="edge1" class="edge">
<title>0&#45;&gt;1</title>
<path fill="none" stroke="black" d="M493.5,-143.7C493.5,-136.41 493.5,-127.73 493.5,-119.54"/>
<polygon fill="black" stroke="black" points="497,-119.62 493.5,-109.62 490,-119.62 497,-119.62"/>
</g>
<!-- 2 -->
<g id="node3" class="node">
<title>2</title>
<ellipse fill="none" stroke="black" cx="144.5" cy="-18" rx="144.5" ry="18"/>
<text text-anchor="middle" x="144.5" y="-12.95" font-family="Times New Roman,serif" font-size="14.00">Cuno: &quot;Got the fucking fuel, yeah.&quot;</text>
</g>
<!-- 1&#45;&gt;2 -->
<g id="edge2" class="edge">
<title>1&#45;&gt;2</title>
<path fill="none" stroke="black" d="M465.24,-83.33C414.58,-73.17 306.48,-51.49 229.8,-36.11"/>
<polygon fill="black" stroke="black" points="230.7,-32.72 220.21,-34.19 229.33,-39.58 230.7,-32.72"/>
</g>
<!-- 4 -->
<g id="node5" class="node">
<title>4</title>
<ellipse fill="none" stroke="black" cx="493.5" cy="-18" rx="186.47" ry="18"/>
<text text-anchor="middle" x="493.5" y="-12.95" font-family="Times New Roman,serif" font-size="14.00">Cuno: &quot;Empty... Gotta look elsewhere, piggo.&quot;</text>
</g>
<!-- 1&#45;&gt;4 -->
<g id="edge3" class="edge">
<title>1&#45;&gt;4</title>
<path fill="none" stroke="black" d="M493.5,-71.7C493.5,-64.41 493.5,-55.73 493.5,-47.54"/>
<polygon fill="black" stroke="black" points="497,-47.62 493.5,-37.62 490,-47.62 497,-47.62"/>
</g>
<!-- 5 -->
<g id="node6" class="node">
<title>5</title>
<ellipse fill="none" stroke="black" cx="724.5" cy="-18" rx="27" ry="18"/>
<text text-anchor="middle" x="724.5" y="-12.95" font-family="Times New Roman,serif" font-size="14.00">5</text>
</g>
<!-- 1&#45;&gt;5 -->
<g id="edge4" class="edge">
<title>1&#45;&gt;5</title>
<path fill="none" stroke="black" d="M521.43,-83.04C559.72,-74.5 630.4,-57.42 688.5,-36 690.04,-35.43 691.6,-34.82 693.18,-34.19"/>
<polygon fill="black" stroke="black" points="694.3,-37.52 702.06,-30.31 691.49,-31.1 694.3,-37.52"/>
</g>
<!-- 3 -->
<g id="node4" class="node">
<title>3</title>
<ellipse fill="none" stroke="black" cx="717.5" cy="-162" rx="167.02" ry="18"/>
<text text-anchor="middle" x="717.5" y="-156.95" font-family="Times New Roman,serif" font-size="14.00">Cuno: &quot;Fuckin&#39;... May bells everywhere.&quot;</text>
</g>
</g>
</svg>
