<?xml version="1.0" encoding="UTF-8" standalone="no"?>
<!DOCTYPE svg PUBLIC "-//W3C//DTD SVG 1.1//EN"
 "http://www.w3.org/Graphics/SVG/1.1/DTD/svg11.dtd">
<!-- Generated by graphviz version 12.2.1 (20241206.2353)
 -->
<!-- Title: G Pages: 1 -->
<svg width="2307pt" height="188pt"
 viewBox="0.00 0.00 2307.40 188.00" xmlns="http://www.w3.org/2000/svg" xmlns:xlink="http://www.w3.org/1999/xlink">
<g id="graph0" class="graph" transform="scale(1 1) rotate(0) translate(4 184)">
<title>G</title>
<polygon fill="white" stroke="none" points="-4,4 -4,-184 2303.4,-184 2303.4,4 -4,4"/>
<!-- 0 -->
<g id="node1" class="node">
<title>0</title>
<ellipse fill="none" stroke="black" cx="1305.4" cy="-162" rx="39.07" ry="18"/>
<text text-anchor="middle" x="1305.4" y="-156.95" font-family="Times New Roman,serif" font-size="14.00">START</text>
</g>
<!-- 1 -->
<g id="node2" class="node">
<title>1</title>
<ellipse fill="none" stroke="black" cx="1305.4" cy="-90" rx="29.86" ry="18"/>
<text text-anchor="middle" x="1305.4" y="-84.95" font-family="Times New Roman,serif" font-size="14.00">input</text>
</g>
<!-- 0&#45;&gt;1 -->
<g id="edge1" class="edge">
<title>0&#45;&gt;1</title>
<path fill="none" stroke="black" d="M1305.4,-143.7C1305.4,-136.41 1305.4,-127.73 1305.4,-119.54"/>
<polygon fill="black" stroke="black" points="1308.9,-119.62 1305.4,-109.62 1301.9,-119.62 1308.9,-119.62"/>
</g>
<!-- 2 -->
<g id="node3" class="node">
<title>2</title>
<ellipse fill="none" stroke="black" cx="183.4" cy="-18" rx="183.4" ry="18"/>
<text text-anchor="middle" x="183.4" y="-12.95" font-family="Times New Roman,serif" font-size="14.00">Glen: “胸部中了两枪，他倒下了。”</text>
</g>
<!-- 1&#45;&gt;2 -->
<g id="edge2" class="edge">
<title>1&#45;&gt;2</title>
<path fill="none" stroke="black" d="M1275.66,-87.65C1160.06,-82.31 729.44,-61.76 375.4,-36 358.97,-34.8 341.76,-33.44 324.68,-32.02"/>
<polygon fill="black" stroke="black" points="325.25,-28.55 314.99,-31.2 324.66,-35.53 325.25,-28.55"/>
</g>
<!-- 3 -->
<g id="node4" class="node">
<title>3</title>
<ellipse fill="none" stroke="black" cx="532.4" cy="-18" rx="148.08" ry="18"/>
<text text-anchor="middle" x="532.4" y="-12.95" font-family="Times New Roman,serif" font-size="14.00">Glen: “酩酊大醉，我来了！”</text>
</g>
<!-- 1&#45;&gt;3 -->
<g id="edge3" class="edge">
<title>1&#45;&gt;3</title>
<path fill="none" stroke="black" d="M1275.57,-86.67C1186.48,-79.65 914.56,-57.87 689.4,-36 676.61,-34.76 663.24,-33.4 649.93,-32.01"/>
<polygon fill="black" stroke="black" points="650.59,-28.56 640.28,-31 649.86,-35.52 650.59,-28.56"/>
</g>
<!-- 4 -->
<g id="node5" class="node">
<title>4</title>
<ellipse fill="none" stroke="black" cx="858.4" cy="-18" rx="159.85" ry="18"/>
<text text-anchor="middle" x="858.4" y="-12.95" font-family="Times New Roman,serif" font-size="14.00">Glen: “莫妮卡的咪咪可大了。”</text>
</g>
<!-- 1&#45;&gt;4 -->
<g id="edge4" class="edge">
<title>1&#45;&gt;4</title>
<path fill="none" stroke="black" d="M1276.76,-84.51C1214.26,-74.73 1063.06,-51.05 960.62,-35.01"/>
<polygon fill="black" stroke="black" points="961.22,-31.56 950.8,-33.47 960.14,-38.48 961.22,-31.56"/>
</g>
<!-- 5 -->
<g id="node6" class="node">
<title>5</title>
<ellipse fill="none" stroke="black" cx="1172.4" cy="-18" rx="136.31" ry="18"/>
<text text-anchor="middle" x="1172.4" y="-12.95" font-family="Times New Roman,serif" font-size="14.00">Glen: “干掉那些大人物。”</text>
</g>
<!-- 1&#45;&gt;5 -->
<g id="edge5" class="edge">
<title>1&#45;&gt;5</title>
<path fill="none" stroke="black" d="M1283.44,-77.44C1264.82,-67.64 1237.58,-53.31 1214.74,-41.28"/>
<polygon fill="black" stroke="black" points="1216.42,-38.21 1205.94,-36.65 1213.16,-44.41 1216.42,-38.21"/>
</g>
<!-- 6 -->
<g id="node7" class="node">
<title>6</title>
<ellipse fill="none" stroke="black" cx="1439.4" cy="-18" rx="112.77" ry="18"/>
<text text-anchor="middle" x="1439.4" y="-12.95" font-family="Times New Roman,serif" font-size="14.00">Glen: “我才没有呢！”</text>
</g>
<!-- 1&#45;&gt;6 -->
<g id="edge6" class="edge">
<title>1&#45;&gt;6</title>
<path fill="none" stroke="black" d="M1327.53,-77.44C1346.5,-67.53 1374.36,-52.98 1397.52,-40.87"/>
<polygon fill="black" stroke="black" points="1398.87,-44.12 1406.12,-36.39 1395.63,-37.91 1398.87,-44.12"/>
</g>
<!-- 8 -->
<g id="node9" class="node">
<title>8</title>
<ellipse fill="none" stroke="black" cx="1741.4" cy="-18" rx="171.63" ry="18"/>
<text text-anchor="middle" x="1741.4" y="-12.95" font-family="Times New Roman,serif" font-size="14.00">Glen: “我很有胆量，就是这样。”</text>
</g>
<!-- 1&#45;&gt;8 -->
<g id="edge7" class="edge">
<title>1&#45;&gt;8</title>
<path fill="none" stroke="black" d="M1334.01,-84.41C1394.84,-74.64 1539.62,-51.39 1639.12,-35.42"/>
<polygon fill="black" stroke="black" points="1639.6,-38.89 1648.92,-33.85 1638.49,-31.98 1639.6,-38.89"/>
</g>
<!-- 9 -->
<g id="node10" class="node">
<title>9</title>
<ellipse fill="none" stroke="black" cx="2079.4" cy="-18" rx="148.08" ry="18"/>
<text text-anchor="middle" x="2079.4" y="-12.95" font-family="Times New Roman,serif" font-size="14.00">Glen: “想看看我的指虎吗？”</text>
</g>
<!-- 1&#45;&gt;9 -->
<g id="edge8" class="edge">
<title>1&#45;&gt;9</title>
<path fill="none" stroke="black" d="M1334.96,-86.69C1423.87,-79.71 1696.61,-57.92 1922.4,-36 1935.19,-34.76 1948.56,-33.4 1961.87,-32.01"/>
<polygon fill="black" stroke="black" points="1961.94,-35.53 1971.52,-31 1961.2,-28.56 1961.94,-35.53"/>
</g>
<!-- 10 -->
<g id="node11" class="node">
<title>10</title>
<ellipse fill="none" stroke="black" cx="2272.4" cy="-18" rx="27" ry="18"/>
<text text-anchor="middle" x="2272.4" y="-12.95" font-family="Times New Roman,serif" font-size="14.00">10</text>
</g>
<!-- 1&#45;&gt;10 -->
<g id="edge9" class="edge">
<title>1&#45;&gt;10</title>
<path fill="none" stroke="black" d="M1335.28,-88.83C1474.47,-87.81 2059.89,-80.89 2236.4,-36 2238.03,-35.58 2239.68,-35.09 2241.32,-34.55"/>
<polygon fill="black" stroke="black" points="2242.57,-37.82 2250.56,-30.86 2239.97,-31.32 2242.57,-37.82"/>
</g>
<!-- 7 -->
<g id="node8" class="node">
<title>7</title>
<ellipse fill="none" stroke="black" cx="1569.4" cy="-162" rx="206.94" ry="18"/>
<text text-anchor="middle" x="1569.4" y="-156.95" font-family="Times New Roman,serif" font-size="14.00">Glen: “拜托伙计们，你们都知道我的。”</text>
</g>
</g>
</svg>
