<?xml version="1.0" encoding="UTF-8" standalone="no"?>
<!DOCTYPE svg PUBLIC "-//W3C//DTD SVG 1.1//EN"
 "http://www.w3.org/Graphics/SVG/1.1/DTD/svg11.dtd">
<!-- Generated by graphviz version 12.2.1 (20241206.2353)
 -->
<!-- Title: G Pages: 1 -->
<svg width="1449pt" height="548pt"
 viewBox="0.00 0.00 1448.90 548.00" xmlns="http://www.w3.org/2000/svg" xmlns:xlink="http://www.w3.org/1999/xlink">
<g id="graph0" class="graph" transform="scale(1 1) rotate(0) translate(4 544)">
<title>G</title>
<polygon fill="white" stroke="none" points="-4,4 -4,-544 1444.9,-544 1444.9,4 -4,4"/>
<!-- 0 -->
<g id="node1" class="node">
<title>0</title>
<ellipse fill="none" stroke="black" cx="779.9" cy="-522" rx="39.07" ry="18"/>
<text text-anchor="middle" x="779.9" y="-516.95" font-family="Times New Roman,serif" font-size="14.00">START</text>
</g>
<!-- 0&#45;&gt;0 -->
<g id="edge1" class="edge">
<title>0&#45;&gt;0</title>
<path fill="none" stroke="black" d="M808.09,-534.94C823.2,-537.14 836.97,-532.83 836.97,-522 836.97,-513.96 829.39,-509.52 819.3,-508.65"/>
<polygon fill="black" stroke="black" points="819.47,-505.15 809.6,-509 819.72,-512.14 819.47,-505.15"/>
</g>
<!-- 1 -->
<g id="node2" class="node">
<title>1</title>
<ellipse fill="none" stroke="black" cx="884.9" cy="-522" rx="29.86" ry="18"/>
<text text-anchor="middle" x="884.9" y="-516.95" font-family="Times New Roman,serif" font-size="14.00">input</text>
</g>
<!-- 5 -->
<g id="node6" class="node">
<title>5</title>
<ellipse fill="none" stroke="black" cx="884.9" cy="-450" rx="555.99" ry="18"/>
<text text-anchor="middle" x="884.9" y="-444.95" font-family="Times New Roman,serif" font-size="14.00">Composure: 它们都在那里——两只一模一样的鞋，*绿油油*，还*毫无差别*都是蛇皮，重新回到了你的脚上！</text>
</g>
<!-- 1&#45;&gt;5 -->
<g id="edge2" class="edge">
<title>1&#45;&gt;5</title>
<path fill="none" stroke="black" d="M884.9,-503.7C884.9,-496.41 884.9,-487.73 884.9,-479.54"/>
<polygon fill="black" stroke="black" points="888.4,-479.62 884.9,-469.62 881.4,-479.62 888.4,-479.62"/>
</g>
<!-- 2 -->
<g id="node3" class="node">
<title>2</title>
<ellipse fill="none" stroke="black" cx="884.9" cy="-234" rx="282.69" ry="18"/>
<text text-anchor="middle" x="884.9" y="-228.95" font-family="Times New Roman,serif" font-size="14.00">Composure: 来啊，只要你别丢掉那些鳄鱼皮宝贝就行。</text>
</g>
<!-- 3 -->
<g id="node4" class="node">
<title>3</title>
<ellipse fill="none" stroke="black" cx="884.9" cy="-378" rx="200.8" ry="18"/>
<text text-anchor="middle" x="884.9" y="-372.95" font-family="Times New Roman,serif" font-size="14.00">Conceptualization: 就像两只幼小的鳄鱼。</text>
</g>
<!-- 6 -->
<g id="node7" class="node">
<title>6</title>
<ellipse fill="none" stroke="black" cx="399.9" cy="-306" rx="262.73" ry="18"/>
<text text-anchor="middle" x="399.9" y="-300.95" font-family="Times New Roman,serif" font-size="14.00">You: 等等，看起来好像不是普通警察穿的鞋子……</text>
</g>
<!-- 3&#45;&gt;6 -->
<g id="edge5" class="edge">
<title>3&#45;&gt;6</title>
<path fill="none" stroke="black" d="M782.05,-362.15C705.56,-351.12 600.96,-336.02 520.53,-324.41"/>
<polygon fill="black" stroke="black" points="521.24,-320.98 510.85,-323.01 520.24,-327.91 521.24,-320.98"/>
</g>
<!-- 8 -->
<g id="node9" class="node">
<title>8</title>
<ellipse fill="none" stroke="black" cx="884.9" cy="-306" rx="96.39" ry="18"/>
<text text-anchor="middle" x="884.9" y="-300.95" font-family="Times New Roman,serif" font-size="14.00">You: [放弃思维。]</text>
</g>
<!-- 3&#45;&gt;8 -->
<g id="edge3" class="edge">
<title>3&#45;&gt;8</title>
<path fill="none" stroke="black" d="M884.9,-359.7C884.9,-352.41 884.9,-343.73 884.9,-335.54"/>
<polygon fill="black" stroke="black" points="888.4,-335.62 884.9,-325.62 881.4,-335.62 888.4,-335.62"/>
</g>
<!-- 9 -->
<g id="node10" class="node">
<title>9</title>
<ellipse fill="none" stroke="black" cx="743.9" cy="-90" rx="102.02" ry="18"/>
<text text-anchor="middle" x="743.9" y="-84.95" font-family="Times New Roman,serif" font-size="14.00">You: 尺寸怎么样？</text>
</g>
<!-- 3&#45;&gt;9 -->
<g id="edge4" class="edge">
<title>3&#45;&gt;9</title>
<path fill="none" stroke="black" d="M979.78,-361.7C1086.13,-340.37 1236.4,-295.11 1176.9,-216 1135.54,-161.01 946.6,-122.57 832.41,-103.9"/>
<polygon fill="black" stroke="black" points="833.18,-100.48 822.76,-102.35 832.07,-107.39 833.18,-100.48"/>
</g>
<!-- 4 -->
<g id="node5" class="node">
<title>4</title>
<ellipse fill="none" stroke="black" cx="591.9" cy="-162" rx="277.06" ry="18"/>
<text text-anchor="middle" x="591.9" y="-156.95" font-family="Times New Roman,serif" font-size="14.00">Electrochemistry: 你可能是别人口中的那种*大条警察*。</text>
</g>
<!-- 4&#45;&gt;9 -->
<g id="edge6" class="edge">
<title>4&#45;&gt;9</title>
<path fill="none" stroke="black" d="M629.47,-143.7C650.25,-134.13 676.23,-122.17 698.18,-112.06"/>
<polygon fill="black" stroke="black" points="699.59,-115.26 707.21,-107.9 696.66,-108.9 699.59,-115.26"/>
</g>
<!-- 5&#45;&gt;3 -->
<g id="edge7" class="edge">
<title>5&#45;&gt;3</title>
<path fill="none" stroke="black" d="M884.9,-431.7C884.9,-424.41 884.9,-415.73 884.9,-407.54"/>
<polygon fill="black" stroke="black" points="888.4,-407.62 884.9,-397.62 881.4,-407.62 888.4,-407.62"/>
</g>
<!-- 7 -->
<g id="node8" class="node">
<title>7</title>
<ellipse fill="none" stroke="black" cx="291.9" cy="-234" rx="291.9" ry="18"/>
<text text-anchor="middle" x="291.9" y="-228.95" font-family="Times New Roman,serif" font-size="14.00">Composure: 有一点很明确，你绝对不是什么*普通警察*。</text>
</g>
<!-- 6&#45;&gt;7 -->
<g id="edge8" class="edge">
<title>6&#45;&gt;7</title>
<path fill="none" stroke="black" d="M373.2,-287.7C359.57,-278.86 342.8,-267.99 328.03,-258.41"/>
<polygon fill="black" stroke="black" points="330.23,-255.67 319.94,-253.17 326.42,-261.55 330.23,-255.67"/>
</g>
<!-- 7&#45;&gt;4 -->
<g id="edge9" class="edge">
<title>7&#45;&gt;4</title>
<path fill="none" stroke="black" d="M364.14,-216.14C407.71,-205.98 463.37,-192.99 508.76,-182.4"/>
<polygon fill="black" stroke="black" points="509.35,-185.86 518.3,-180.17 507.76,-179.04 509.35,-185.86"/>
</g>
<!-- 8&#45;&gt;2 -->
<g id="edge10" class="edge">
<title>8&#45;&gt;2</title>
<path fill="none" stroke="black" d="M884.9,-287.7C884.9,-280.41 884.9,-271.73 884.9,-263.54"/>
<polygon fill="black" stroke="black" points="888.4,-263.62 884.9,-253.62 881.4,-263.62 888.4,-263.62"/>
</g>
<!-- 10 -->
<g id="node11" class="node">
<title>10</title>
<ellipse fill="none" stroke="black" cx="743.9" cy="-18" rx="412.18" ry="18"/>
<text text-anchor="middle" x="743.9" y="-12.95" font-family="Times New Roman,serif" font-size="14.00">Composure: 很好。它们很平衡，很舒服。说实话，感觉这是你现在唯一的优点。</text>
</g>
<!-- 9&#45;&gt;10 -->
<g id="edge11" class="edge">
<title>9&#45;&gt;10</title>
<path fill="none" stroke="black" d="M743.9,-71.7C743.9,-64.41 743.9,-55.73 743.9,-47.54"/>
<polygon fill="black" stroke="black" points="747.4,-47.62 743.9,-37.62 740.4,-47.62 747.4,-47.62"/>
</g>
</g>
</svg>
