<?xml version="1.0" encoding="UTF-8" standalone="no"?>
<!DOCTYPE svg PUBLIC "-//W3C//DTD SVG 1.1//EN"
 "http://www.w3.org/Graphics/SVG/1.1/DTD/svg11.dtd">
<!-- Generated by graphviz version 12.2.1 (20241206.2353)
 -->
<!-- Title: G Pages: 1 -->
<svg width="7364pt" height="116pt"
 viewBox="0.00 0.00 7363.85 116.00" xmlns="http://www.w3.org/2000/svg" xmlns:xlink="http://www.w3.org/1999/xlink">
<g id="graph0" class="graph" transform="scale(1 1) rotate(0) translate(4 112)">
<title>G</title>
<polygon fill="white" stroke="none" points="-4,4 -4,-112 7359.85,-112 7359.85,4 -4,4"/>
<!-- 0 -->
<g id="node1" class="node">
<title>0</title>
<ellipse fill="none" stroke="black" cx="3516.93" cy="-90" rx="39.07" ry="18"/>
<text text-anchor="middle" x="3516.93" y="-84.95" font-family="Times New Roman,serif" font-size="14.00">START</text>
</g>
<!-- 0&#45;&gt;0 -->
<g id="edge1" class="edge">
<title>0&#45;&gt;0</title>
<path fill="none" stroke="black" d="M3545.12,-102.94C3560.23,-105.14 3574,-100.83 3574,-90 3574,-81.96 3566.42,-77.52 3556.33,-76.65"/>
<polygon fill="black" stroke="black" points="3556.5,-73.15 3546.63,-77 3556.75,-80.14 3556.5,-73.15"/>
</g>
<!-- 1 -->
<g id="node2" class="node">
<title>1</title>
<ellipse fill="none" stroke="black" cx="3621.93" cy="-90" rx="29.86" ry="18"/>
<text text-anchor="middle" x="3621.93" y="-84.95" font-family="Times New Roman,serif" font-size="14.00">input</text>
</g>
<!-- 1&#45;&gt;1 -->
<g id="edge2" class="edge">
<title>1&#45;&gt;1</title>
<path fill="none" stroke="black" d="M3643.59,-102.55C3657.01,-105.57 3669.79,-101.39 3669.79,-90 3669.79,-81.99 3663.47,-77.55 3655.06,-76.66"/>
<polygon fill="black" stroke="black" points="3654.83,-73.17 3645.1,-77.35 3655.31,-80.15 3654.83,-73.17"/>
</g>
<!-- 2 -->
<g id="node3" class="node">
<title>2</title>
<ellipse fill="none" stroke="black" cx="184.93" cy="-18" rx="184.93" ry="18"/>
<text text-anchor="middle" x="184.93" y="-12.95" font-family="Times New Roman,serif" font-size="14.00">Moneyman: “你要通过花钱来赚钱。”</text>
</g>
<!-- 1&#45;&gt;2 -->
<g id="edge3" class="edge">
<title>1&#45;&gt;2</title>
<path fill="none" stroke="black" d="M3599.76,-77.52C3594.39,-75.26 3588.57,-73.21 3582.93,-72 3408.88,-34.69 556.73,-44.78 378.93,-36 360.81,-35.11 341.76,-33.84 322.97,-32.4"/>
<polygon fill="black" stroke="black" points="323.38,-28.92 313.14,-31.62 322.83,-35.9 323.38,-28.92"/>
</g>
<!-- 3 -->
<g id="node4" class="node">
<title>3</title>
<ellipse fill="none" stroke="black" cx="591.93" cy="-18" rx="204.38" ry="18"/>
<text text-anchor="middle" x="591.93" y="-12.95" font-family="Times New Roman,serif" font-size="14.00">Moneyman: “他们说金钱买不来欢乐……”</text>
</g>
<!-- 1&#45;&gt;3 -->
<g id="edge4" class="edge">
<title>1&#45;&gt;3</title>
<path fill="none" stroke="black" d="M3599.76,-77.53C3594.39,-75.26 3588.57,-73.21 3582.93,-72 3432.04,-39.52 959.11,-43.14 804.93,-36 784.83,-35.07 763.68,-33.77 742.83,-32.3"/>
<polygon fill="black" stroke="black" points="743.37,-28.83 733.14,-31.6 742.86,-35.81 743.37,-28.83"/>
</g>
<!-- 4 -->
<g id="node5" class="node">
<title>4</title>
<ellipse fill="none" stroke="black" cx="1210.93" cy="-18" rx="396.82" ry="18"/>
<text text-anchor="middle" x="1210.93" y="-12.95" font-family="Times New Roman,serif" font-size="14.00">Moneyman: “这样一来，当你老得赚不动新钱的时候，也能有足够的钱花了。”</text>
</g>
<!-- 1&#45;&gt;4 -->
<g id="edge5" class="edge">
<title>1&#45;&gt;4</title>
<path fill="none" stroke="black" d="M3599.75,-77.55C3594.38,-75.28 3588.56,-73.23 3582.93,-72 3369.47,-25.45 1835.32,-42.57 1616.93,-36 1578.02,-34.83 1537.01,-33.37 1496.63,-31.81"/>
<polygon fill="black" stroke="black" points="1496.9,-28.32 1486.77,-31.42 1496.63,-35.31 1496.9,-28.32"/>
</g>
<!-- 5 -->
<g id="node6" class="node">
<title>5</title>
<ellipse fill="none" stroke="black" cx="1857.93" cy="-18" rx="232.02" ry="18"/>
<text text-anchor="middle" x="1857.93" y="-12.95" font-family="Times New Roman,serif" font-size="14.00">Moneyman: “然后用那些股票去赚更多的钱。”</text>
</g>
<!-- 1&#45;&gt;5 -->
<g id="edge6" class="edge">
<title>1&#45;&gt;5</title>
<path fill="none" stroke="black" d="M3599.75,-77.58C3594.38,-75.31 3588.56,-73.24 3582.93,-72 3421.89,-36.38 2263.69,-43.8 2098.93,-36 2076.61,-34.94 2053.14,-33.59 2029.97,-32.11"/>
<polygon fill="black" stroke="black" points="2030.34,-28.62 2020.13,-31.47 2029.88,-35.61 2030.34,-28.62"/>
</g>
<!-- 6 -->
<g id="node7" class="node">
<title>6</title>
<ellipse fill="none" stroke="black" cx="2257.93" cy="-18" rx="149.62" ry="18"/>
<text text-anchor="middle" x="2257.93" y="-12.95" font-family="Times New Roman,serif" font-size="14.00">Moneyman: “金钱就是数字。”</text>
</g>
<!-- 1&#45;&gt;6 -->
<g id="edge7" class="edge">
<title>1&#45;&gt;6</title>
<path fill="none" stroke="black" d="M3599.74,-77.6C3594.37,-75.33 3588.55,-73.26 3582.93,-72 3330,-15.18 2675.56,-53.79 2416.93,-36 2402.81,-35.03 2388,-33.77 2373.34,-32.38"/>
<polygon fill="black" stroke="black" points="2373.98,-28.92 2363.68,-31.43 2373.3,-35.89 2373.98,-28.92"/>
</g>
<!-- 7 -->
<g id="node8" class="node">
<title>7</title>
<ellipse fill="none" stroke="black" cx="2657.93" cy="-18" rx="232.02" ry="18"/>
<text text-anchor="middle" x="2657.93" y="-12.95" font-family="Times New Roman,serif" font-size="14.00">Moneyman: “无偿劳动不会为你赚来一分钱。”</text>
</g>
<!-- 1&#45;&gt;7 -->
<g id="edge8" class="edge">
<title>1&#45;&gt;7</title>
<path fill="none" stroke="black" d="M3599.72,-77.69C3594.35,-75.42 3588.54,-73.32 3582.93,-72 3434.79,-37.03 3050.86,-45.36 2898.93,-36 2877.99,-34.71 2856.03,-33.28 2834.24,-31.8"/>
<polygon fill="black" stroke="black" points="2834.6,-28.32 2824.39,-31.13 2834.12,-35.3 2834.6,-28.32"/>
</g>
<!-- 8 -->
<g id="node9" class="node">
<title>8</title>
<ellipse fill="none" stroke="black" cx="3139.93" cy="-18" rx="232.02" ry="18"/>
<text text-anchor="middle" x="3139.93" y="-12.95" font-family="Times New Roman,serif" font-size="14.00">Moneyman: “根本就没有白给的钱这种东西。”</text>
</g>
<!-- 1&#45;&gt;8 -->
<g id="edge9" class="edge">
<title>1&#45;&gt;8</title>
<path fill="none" stroke="black" d="M3599.24,-77.79C3593.99,-75.57 3588.35,-73.47 3582.93,-72 3531,-57.9 3404.96,-43.5 3300.54,-33.27"/>
<polygon fill="black" stroke="black" points="3301.01,-29.8 3290.72,-32.31 3300.33,-36.77 3301.01,-29.8"/>
</g>
<!-- 9 -->
<g id="node10" class="node">
<title>9</title>
<ellipse fill="none" stroke="black" cx="3621.93" cy="-18" rx="232.02" ry="18"/>
<text text-anchor="middle" x="3621.93" y="-12.95" font-family="Times New Roman,serif" font-size="14.00">Moneyman: “钱才是让这个世界转动的东西。”</text>
</g>
<!-- 1&#45;&gt;9 -->
<g id="edge10" class="edge">
<title>1&#45;&gt;9</title>
<path fill="none" stroke="black" d="M3621.93,-71.7C3621.93,-64.41 3621.93,-55.73 3621.93,-47.54"/>
<polygon fill="black" stroke="black" points="3625.43,-47.62 3621.93,-37.62 3618.43,-47.62 3625.43,-47.62"/>
</g>
<!-- 10 -->
<g id="node11" class="node">
<title>10</title>
<ellipse fill="none" stroke="black" cx="4221.93" cy="-18" rx="349.74" ry="18"/>
<text text-anchor="middle" x="4221.93" y="-12.95" font-family="Times New Roman,serif" font-size="14.00">Moneyman: “房地产是墓地，只有那些疲倦的古钱才会在那里安息。”</text>
</g>
<!-- 1&#45;&gt;10 -->
<g id="edge11" class="edge">
<title>1&#45;&gt;10</title>
<path fill="none" stroke="black" d="M3647.49,-80.23C3657.23,-77.2 3668.5,-74.05 3678.93,-72 3775.84,-53 3883.88,-40.69 3977.91,-32.76"/>
<polygon fill="black" stroke="black" points="3978.13,-36.26 3987.8,-31.95 3977.55,-29.28 3978.13,-36.26"/>
</g>
<!-- 11 -->
<g id="node12" class="node">
<title>11</title>
<ellipse fill="none" stroke="black" cx="4809.93" cy="-18" rx="220.25" ry="18"/>
<text text-anchor="middle" x="4809.93" y="-12.95" font-family="Times New Roman,serif" font-size="14.00">Moneyman: “你必须更明智地投资你的钱。”</text>
</g>
<!-- 1&#45;&gt;11 -->
<g id="edge12" class="edge">
<title>1&#45;&gt;11</title>
<path fill="none" stroke="black" d="M3647.15,-80C3656.95,-76.9 3668.34,-73.76 3678.93,-72 4074.7,-6.15 4180.38,-58.85 4580.93,-36 4601.34,-34.84 4622.77,-33.46 4643.98,-31.99"/>
<polygon fill="black" stroke="black" points="4644.15,-35.49 4653.88,-31.3 4643.66,-28.51 4644.15,-35.49"/>
</g>
<!-- 12 -->
<g id="node13" class="node">
<title>12</title>
<ellipse fill="none" stroke="black" cx="5279.93" cy="-18" rx="232.02" ry="18"/>
<text text-anchor="middle" x="5279.93" y="-12.95" font-family="Times New Roman,serif" font-size="14.00">Moneyman: “这一切都是关于钱，你知道的。”</text>
</g>
<!-- 1&#45;&gt;12 -->
<g id="edge13" class="edge">
<title>1&#45;&gt;12</title>
<path fill="none" stroke="black" d="M3647.14,-79.93C3656.93,-76.81 3668.33,-73.69 3678.93,-72 3977.49,-24.38 4736.96,-50.64 5038.93,-36 5061.17,-34.92 5084.54,-33.56 5107.62,-32.08"/>
<polygon fill="black" stroke="black" points="5107.66,-35.58 5117.41,-31.44 5107.2,-28.6 5107.66,-35.58"/>
</g>
<!-- 13 -->
<g id="node14" class="node">
<title>13</title>
<ellipse fill="none" stroke="black" cx="5816.93" cy="-18" rx="286.78" ry="18"/>
<text text-anchor="middle" x="5816.93" y="-12.95" font-family="Times New Roman,serif" font-size="14.00">Moneyman: “……但是那只不过意味着，你的钱还不够。”</text>
</g>
<!-- 1&#45;&gt;13 -->
<g id="edge14" class="edge">
<title>1&#45;&gt;13</title>
<path fill="none" stroke="black" d="M3647.13,-79.89C3656.93,-76.77 3668.32,-73.65 3678.93,-72 4083.46,-8.92 5111.82,-51.74 5520.93,-36 5549.1,-34.92 5578.75,-33.52 5607.98,-31.99"/>
<polygon fill="black" stroke="black" points="5607.84,-35.5 5617.64,-31.48 5607.47,-28.51 5607.84,-35.5"/>
</g>
<!-- 15 -->
<g id="node16" class="node">
<title>15</title>
<ellipse fill="none" stroke="black" cx="6294.93" cy="-18" rx="173.16" ry="18"/>
<text text-anchor="middle" x="6294.93" y="-12.95" font-family="Times New Roman,serif" font-size="14.00">Moneyman: “你可以用钱买股票。”</text>
</g>
<!-- 1&#45;&gt;15 -->
<g id="edge15" class="edge">
<title>1&#45;&gt;15</title>
<path fill="none" stroke="black" d="M3647.13,-79.86C3656.92,-76.74 3668.32,-73.63 3678.93,-72 3946.28,-30.96 5842.85,-50.59 6112.93,-36 6129.7,-35.09 6147.31,-33.84 6164.7,-32.41"/>
<polygon fill="black" stroke="black" points="6164.9,-35.91 6174.58,-31.58 6164.32,-28.93 6164.9,-35.91"/>
</g>
<!-- 16 -->
<g id="node17" class="node">
<title>16</title>
<ellipse fill="none" stroke="black" cx="6705.93" cy="-18" rx="220.25" ry="18"/>
<text text-anchor="middle" x="6705.93" y="-12.95" font-family="Times New Roman,serif" font-size="14.00">Moneyman: “金钱法则就像自然规律一样。”</text>
</g>
<!-- 1&#45;&gt;16 -->
<g id="edge16" class="edge">
<title>1&#45;&gt;16</title>
<path fill="none" stroke="black" d="M3647.13,-79.85C3656.92,-76.73 3668.32,-73.62 3678.93,-72 3986.29,-25.12 6166.31,-49.52 6476.93,-36 6498.65,-35.05 6521.51,-33.74 6544.04,-32.26"/>
<polygon fill="black" stroke="black" points="6544.17,-35.76 6553.91,-31.59 6543.7,-28.77 6544.17,-35.76"/>
</g>
<!-- 17 -->
<g id="node18" class="node">
<title>17</title>
<ellipse fill="none" stroke="black" cx="7149.93" cy="-18" rx="205.92" ry="18"/>
<text text-anchor="middle" x="7149.93" y="-12.95" font-family="Times New Roman,serif" font-size="14.00">Moneyman: “钱才是*真正*重要的东西。”</text>
</g>
<!-- 1&#45;&gt;17 -->
<g id="edge17" class="edge">
<title>1&#45;&gt;17</title>
<path fill="none" stroke="black" d="M3647.12,-79.84C3656.92,-76.72 3668.32,-73.61 3678.93,-72 4036.65,-17.77 6573.5,-52.27 6934.93,-36 6955.3,-35.08 6976.74,-33.79 6997.86,-32.31"/>
<polygon fill="black" stroke="black" points="6997.98,-35.82 7007.7,-31.61 6997.48,-28.83 6997.98,-35.82"/>
</g>
<!-- 14 -->
<g id="node15" class="node">
<title>14</title>
<ellipse fill="none" stroke="black" cx="3895.93" cy="-90" rx="208.48" ry="18"/>
<text text-anchor="middle" x="3895.93" y="-84.95" font-family="Times New Roman,serif" font-size="14.00">Moneyman: “金钱完全是关乎于信任的！”</text>
</g>
</g>
</svg>
