<?xml version="1.0" encoding="UTF-8" standalone="no"?>
<!DOCTYPE svg PUBLIC "-//W3C//DTD SVG 1.1//EN"
 "http://www.w3.org/Graphics/SVG/1.1/DTD/svg11.dtd">
<!-- Generated by graphviz version 12.2.1 (20241206.2353)
 -->
<!-- Title: G Pages: 1 -->
<svg width="4151pt" height="1570pt"
 viewBox="0.00 0.00 4150.65 1569.87" xmlns="http://www.w3.org/2000/svg" xmlns:xlink="http://www.w3.org/1999/xlink">
<g id="graph0" class="graph" transform="scale(1 1) rotate(0) translate(4 1565.87)">
<title>G</title>
<polygon fill="white" stroke="none" points="-4,4 -4,-1565.87 4146.65,-1565.87 4146.65,4 -4,4"/>
<!-- 0 -->
<g id="node1" class="node">
<title>0</title>
<ellipse fill="none" stroke="black" cx="1125.56" cy="-1543.87" rx="39.07" ry="18"/>
<text text-anchor="middle" x="1125.56" y="-1538.82" font-family="Times New Roman,serif" font-size="14.00">START</text>
</g>
<!-- 1 -->
<g id="node2" class="node">
<title>1</title>
<ellipse fill="none" stroke="black" cx="1125.56" cy="-1471.87" rx="29.86" ry="18"/>
<text text-anchor="middle" x="1125.56" y="-1466.82" font-family="Times New Roman,serif" font-size="14.00">input</text>
</g>
<!-- 0&#45;&gt;1 -->
<g id="edge1" class="edge">
<title>0&#45;&gt;1</title>
<path fill="none" stroke="black" d="M1125.56,-1525.57C1125.56,-1518.28 1125.56,-1509.6 1125.56,-1501.41"/>
<polygon fill="black" stroke="black" points="1129.06,-1501.49 1125.56,-1491.49 1122.06,-1501.49 1129.06,-1501.49"/>
</g>
<!-- 37 -->
<g id="node38" class="node">
<title>37</title>
<polygon fill="none" stroke="black" points="1125.56,-1417.87 861.85,-1399.87 1125.56,-1381.87 1389.27,-1399.87 1125.56,-1417.87"/>
<text text-anchor="middle" x="1125.56" y="-1394.82" font-family="Times New Roman,serif" font-size="14.00">Variable[&quot;whirling.klaasjesnote_hub_reached&quot;]</text>
</g>
<!-- 1&#45;&gt;37 -->
<g id="edge2" class="edge">
<title>1&#45;&gt;37</title>
<path fill="none" stroke="black" d="M1125.56,-1453.57C1125.56,-1446.28 1125.56,-1437.6 1125.56,-1429.41"/>
<polygon fill="black" stroke="black" points="1129.06,-1429.49 1125.56,-1419.49 1122.06,-1429.49 1129.06,-1429.49"/>
</g>
<!-- 2 -->
<g id="node3" class="node">
<title>2</title>
<ellipse fill="none" stroke="black" cx="1076.56" cy="-1089.89" rx="256.59" ry="18"/>
<text text-anchor="middle" x="1076.56" y="-1084.84" font-family="Times New Roman,serif" font-size="14.00">Interfacing: 但是并不恐慌。深思熟虑。十分专注。</text>
</g>
<!-- 9 -->
<g id="node10" class="node">
<title>9</title>
<ellipse fill="none" stroke="black" cx="556.56" cy="-1017.89" rx="70.8" ry="18"/>
<text text-anchor="middle" x="556.56" y="-1012.84" font-family="Times New Roman,serif" font-size="14.00">IsCunoInParty()</text>
</g>
<!-- 2&#45;&gt;9 -->
<g id="edge3" class="edge">
<title>2&#45;&gt;9</title>
<path fill="none" stroke="black" d="M961.48,-1073.4C860.13,-1059.75 715.62,-1040.3 629.43,-1028.7"/>
<polygon fill="black" stroke="black" points="630.07,-1025.25 619.69,-1027.39 629.13,-1032.19 630.07,-1025.25"/>
</g>
<!-- 3 -->
<g id="node4" class="node">
<title>3</title>
<ellipse fill="none" stroke="black" cx="2728.56" cy="-234" rx="462.33" ry="18"/>
<text text-anchor="middle" x="2728.56" y="-228.95" font-family="Times New Roman,serif" font-size="14.00">Kim Kitsuragi: “一份礼物……”警督怀疑地转向楼梯，在上方的阴影中寻找其他存在的痕迹。</text>
</g>
<!-- 27 -->
<g id="node28" class="node">
<title>27</title>
<ellipse fill="none" stroke="black" cx="2175.56" cy="-162" rx="330.29" ry="18"/>
<text text-anchor="middle" x="2175.56" y="-156.95" font-family="Times New Roman,serif" font-size="14.00">Kim Kitsuragi: “我不会拔枪的……暂时不会。但我不喜欢*礼物*。”</text>
</g>
<!-- 3&#45;&gt;27 -->
<g id="edge4" class="edge">
<title>3&#45;&gt;27</title>
<path fill="none" stroke="black" d="M2596.46,-216.28C2511.06,-205.47 2400.12,-191.42 2313.58,-180.47"/>
<polygon fill="black" stroke="black" points="2314.2,-177.02 2303.84,-179.24 2313.32,-183.97 2314.2,-177.02"/>
</g>
<!-- 4 -->
<g id="node5" class="node">
<title>4</title>
<ellipse fill="none" stroke="black" cx="515.56" cy="-18" rx="515.56" ry="18"/>
<text text-anchor="middle" x="515.56" y="-12.95" font-family="Times New Roman,serif" font-size="14.00">Interfacing: 你看着便条上参差不齐又潦草的字迹。她很匆忙，但是并不恐慌。深思熟虑。十分专注。</text>
</g>
<!-- 4&#45;&gt;9 -->
<g id="edge5" class="edge">
<title>4&#45;&gt;9</title>
<path fill="none" stroke="black" d="M363.94,-35.67C226.91,-55.09 46.56,-93.47 46.56,-161 46.56,-852.91 46.56,-852.91 46.56,-852.91 46.56,-918.42 85.76,-933.05 143.56,-963.89 199.43,-993.69 372.23,-1007.53 475.77,-1013.29"/>
<polygon fill="black" stroke="black" points="475.43,-1016.78 485.6,-1013.82 475.81,-1009.79 475.43,-1016.78"/>
</g>
<!-- 5 -->
<g id="node6" class="node">
<title>5</title>
<ellipse fill="none" stroke="black" cx="2111.56" cy="-306" rx="70.8" ry="18"/>
<text text-anchor="middle" x="2111.56" y="-300.95" font-family="Times New Roman,serif" font-size="14.00">IsCunoInParty()</text>
</g>
<!-- 7 -->
<g id="node8" class="node">
<title>7</title>
<polygon fill="none" stroke="black" points="1881.56,-252 1768.41,-234 1881.56,-216 1994.72,-234 1881.56,-252"/>
<text text-anchor="middle" x="1881.56" y="-228.95" font-family="Times New Roman,serif" font-size="14.00">!(IsCunoInParty())</text>
</g>
<!-- 5&#45;&gt;7 -->
<g id="edge7" class="edge">
<title>5&#45;&gt;7</title>
<path fill="none" stroke="black" d="M2067.49,-291.59C2028.14,-279.61 1970.62,-262.11 1930,-249.74"/>
<polygon fill="black" stroke="black" points="1931.06,-246.4 1920.47,-246.84 1929.02,-253.1 1931.06,-246.4"/>
</g>
<!-- 8 -->
<g id="node9" class="node">
<title>8</title>
<ellipse fill="none" stroke="black" cx="2111.56" cy="-234" rx="98.95" ry="18"/>
<text text-anchor="middle" x="2111.56" y="-228.95" font-family="Times New Roman,serif" font-size="14.00">Jump to: [Untitled hub]</text>
</g>
<!-- 5&#45;&gt;8 -->
<g id="edge6" class="edge">
<title>5&#45;&gt;8</title>
<path fill="none" stroke="black" d="M2111.56,-287.7C2111.56,-280.41 2111.56,-271.73 2111.56,-263.54"/>
<polygon fill="black" stroke="black" points="2115.06,-263.62 2111.56,-253.62 2108.06,-263.62 2115.06,-263.62"/>
</g>
<!-- 6 -->
<g id="node7" class="node">
<title>6</title>
<polygon fill="none" stroke="black" points="2403.56,-581.91 2303.43,-563.91 2403.56,-545.91 2503.69,-563.91 2403.56,-581.91"/>
<text text-anchor="middle" x="2403.56" y="-558.86" font-family="Times New Roman,serif" font-size="14.00">IsCunoInParty()</text>
</g>
<!-- 40 -->
<g id="node41" class="node">
<title>40</title>
<ellipse fill="none" stroke="black" cx="2440.56" cy="-434.95" rx="173.59" ry="63.29"/>
<text text-anchor="middle" x="2440.56" y="-462.4" font-family="Times New Roman,serif" font-size="14.00">Klaasje&#39;s Note: “归来的时候再见。</text>
<text text-anchor="middle" x="2440.56" y="-429.9" font-family="Times New Roman,serif" font-size="14.00">另.我没杀他。</text>
<text text-anchor="middle" x="2440.56" y="-397.4" font-family="Times New Roman,serif" font-size="14.00">又另.楼上有礼物。”</text>
</g>
<!-- 6&#45;&gt;40 -->
<g id="edge8" class="edge">
<title>6&#45;&gt;40</title>
<path fill="none" stroke="black" d="M2408.4,-546.31C2411.29,-536.4 2415.18,-523.05 2419.26,-509.06"/>
<polygon fill="black" stroke="black" points="2422.53,-510.32 2421.97,-499.74 2415.81,-508.36 2422.53,-510.32"/>
</g>
<!-- 7&#45;&gt;27 -->
<g id="edge9" class="edge">
<title>7&#45;&gt;27</title>
<path fill="none" stroke="black" d="M1925.58,-222.52C1969.71,-212.01 2038.74,-195.58 2093.08,-182.64"/>
<polygon fill="black" stroke="black" points="2093.7,-186.09 2102.62,-180.37 2092.08,-179.28 2093.7,-186.09"/>
</g>
<!-- 8&#45;&gt;27 -->
<g id="edge10" class="edge">
<title>8&#45;&gt;27</title>
<path fill="none" stroke="black" d="M2127.05,-216.05C2134.57,-207.84 2143.75,-197.79 2152.1,-188.66"/>
<polygon fill="black" stroke="black" points="2154.58,-191.13 2158.75,-181.39 2149.41,-186.41 2154.58,-191.13"/>
</g>
<!-- 11 -->
<g id="node12" class="node">
<title>11</title>
<polygon fill="none" stroke="black" points="265.56,-952.9 152.41,-934.9 265.56,-916.9 378.72,-934.9 265.56,-952.9"/>
<text text-anchor="middle" x="265.56" y="-929.85" font-family="Times New Roman,serif" font-size="14.00">!(IsCunoInParty())</text>
</g>
<!-- 9&#45;&gt;11 -->
<g id="edge11" class="edge">
<title>9&#45;&gt;11</title>
<path fill="none" stroke="black" d="M510.13,-1003.97C457.14,-989.22 370.76,-965.18 316.1,-949.97"/>
<polygon fill="black" stroke="black" points="317.31,-946.67 306.74,-947.36 315.44,-953.41 317.31,-946.67"/>
</g>
<!-- 12 -->
<g id="node13" class="node">
<title>12</title>
<ellipse fill="none" stroke="black" cx="571.56" cy="-934.9" rx="154.5" ry="28.99"/>
<text text-anchor="middle" x="571.56" y="-938.1" font-family="Times New Roman,serif" font-size="14.00">You: 看来她离开的很匆忙。</text>
<text text-anchor="middle" x="571.56" y="-921.6" font-family="Times New Roman,serif" font-size="14.00">“看来她离开的很匆忙。”</text>
</g>
<!-- 9&#45;&gt;12 -->
<g id="edge12" class="edge">
<title>9&#45;&gt;12</title>
<path fill="none" stroke="black" d="M559.74,-999.71C561.07,-992.55 562.67,-983.9 564.26,-975.32"/>
<polygon fill="black" stroke="black" points="567.66,-976.16 566.04,-965.69 560.78,-974.89 567.66,-976.16"/>
</g>
<!-- 10 -->
<g id="node11" class="node">
<title>10</title>
<polygon fill="none" stroke="black" points="2842.56,-581.91 2742.43,-563.91 2842.56,-545.91 2942.69,-563.91 2842.56,-581.91"/>
<text text-anchor="middle" x="2842.56" y="-558.86" font-family="Times New Roman,serif" font-size="14.00">IsCunoInParty()</text>
</g>
<!-- 34 -->
<g id="node35" class="node">
<title>34</title>
<ellipse fill="none" stroke="black" cx="2842.56" cy="-434.95" rx="210.19" ry="63.29"/>
<text text-anchor="middle" x="2842.56" y="-462.4" font-family="Times New Roman,serif" font-size="14.00">Klaasje&#39;s Note: “很抱歉，我骗了所有人。</text>
<text text-anchor="middle" x="2842.56" y="-429.9" font-family="Times New Roman,serif" font-size="14.00">另.我没杀他。</text>
<text text-anchor="middle" x="2842.56" y="-397.4" font-family="Times New Roman,serif" font-size="14.00">又另.楼上有礼物。”</text>
</g>
<!-- 10&#45;&gt;34 -->
<g id="edge13" class="edge">
<title>10&#45;&gt;34</title>
<path fill="none" stroke="black" d="M2842.56,-545.52C2842.56,-535.92 2842.56,-523.26 2842.56,-509.97"/>
<polygon fill="black" stroke="black" points="2846.06,-510.23 2842.56,-500.23 2839.06,-510.23 2846.06,-510.23"/>
</g>
<!-- 47 -->
<g id="node48" class="node">
<title>47</title>
<ellipse fill="none" stroke="black" cx="515.56" cy="-162" rx="440.84" ry="18"/>
<text text-anchor="middle" x="515.56" y="-156.95" font-family="Times New Roman,serif" font-size="14.00">Cuno: “是啊是啊。”他环顾四周。“逍遥法外的逃犯什么的。坤诺之前见过这种破事。”</text>
</g>
<!-- 11&#45;&gt;47 -->
<g id="edge14" class="edge">
<title>11&#45;&gt;47</title>
<path fill="none" stroke="black" d="M230.23,-922.2C177.56,-902.28 84.56,-856.41 84.56,-780.91 84.56,-780.91 84.56,-780.91 84.56,-305 84.56,-242.2 251.74,-202.54 377.86,-181.56"/>
<polygon fill="black" stroke="black" points="378.36,-185.03 387.67,-179.96 377.23,-178.12 378.36,-185.03"/>
</g>
<!-- 18 -->
<g id="node19" class="node">
<title>18</title>
<polygon fill="none" stroke="black" points="590.56,-869.91 507.81,-851.91 590.56,-833.91 673.32,-851.91 590.56,-869.91"/>
<text text-anchor="middle" x="590.56" y="-846.86" font-family="Times New Roman,serif" font-size="14.00">IsKimHere()</text>
</g>
<!-- 12&#45;&gt;18 -->
<g id="edge15" class="edge">
<title>12&#45;&gt;18</title>
<path fill="none" stroke="black" d="M578.21,-905.57C580.1,-897.48 582.17,-888.67 584.06,-880.62"/>
<polygon fill="black" stroke="black" points="587.44,-881.54 586.32,-871 580.62,-879.94 587.44,-881.54"/>
</g>
<!-- 13 -->
<g id="node14" class="node">
<title>13</title>
<ellipse fill="none" stroke="black" cx="1913.56" cy="-1316.88" rx="151.85" ry="28.99"/>
<text text-anchor="middle" x="1913.56" y="-1320.08" font-family="Times New Roman,serif" font-size="14.00">You: 这个*礼物*会是什么？</text>
<text text-anchor="middle" x="1913.56" y="-1303.58" font-family="Times New Roman,serif" font-size="14.00">“这个*礼物*会是什么？”</text>
</g>
<!-- 15 -->
<g id="node16" class="node">
<title>15</title>
<polygon fill="none" stroke="black" points="1811.56,-1251.89 1728.81,-1233.89 1811.56,-1215.89 1894.32,-1233.89 1811.56,-1251.89"/>
<text text-anchor="middle" x="1811.56" y="-1228.84" font-family="Times New Roman,serif" font-size="14.00">IsKimHere()</text>
</g>
<!-- 13&#45;&gt;15 -->
<g id="edge16" class="edge">
<title>13&#45;&gt;15</title>
<path fill="none" stroke="black" d="M1878.74,-1288.23C1865.32,-1277.57 1850.22,-1265.58 1837.74,-1255.68"/>
<polygon fill="black" stroke="black" points="1839.97,-1252.98 1829.96,-1249.5 1835.62,-1258.46 1839.97,-1252.98"/>
</g>
<!-- 14 -->
<g id="node15" class="node">
<title>14</title>
<ellipse fill="none" stroke="black" cx="2842.56" cy="-707.91" rx="58.52" ry="18"/>
<text text-anchor="middle" x="2842.56" y="-702.86" font-family="Times New Roman,serif" font-size="14.00">IsKimHere()</text>
</g>
<!-- 16 -->
<g id="node17" class="node">
<title>16</title>
<polygon fill="none" stroke="black" points="2842.56,-653.91 2746.78,-635.91 2842.56,-617.91 2938.35,-635.91 2842.56,-653.91"/>
<text text-anchor="middle" x="2842.56" y="-630.86" font-family="Times New Roman,serif" font-size="14.00">!(IsKimHere())</text>
</g>
<!-- 14&#45;&gt;16 -->
<g id="edge17" class="edge">
<title>14&#45;&gt;16</title>
<path fill="none" stroke="black" d="M2842.56,-689.6C2842.56,-682.31 2842.56,-673.63 2842.56,-665.44"/>
<polygon fill="black" stroke="black" points="2846.06,-665.52 2842.56,-655.52 2839.06,-665.52 2846.06,-665.52"/>
</g>
<!-- 17 -->
<g id="node18" class="node">
<title>17</title>
<ellipse fill="none" stroke="black" cx="3170.56" cy="-635.91" rx="58.52" ry="18"/>
<text text-anchor="middle" x="3170.56" y="-630.86" font-family="Times New Roman,serif" font-size="14.00">IsKimHere()</text>
</g>
<!-- 14&#45;&gt;17 -->
<g id="edge18" class="edge">
<title>14&#45;&gt;17</title>
<path fill="none" stroke="black" d="M2889.56,-696.88C2948.29,-684.34 3048.81,-662.89 3112.36,-649.33"/>
<polygon fill="black" stroke="black" points="3112.86,-652.8 3121.91,-647.29 3111.4,-645.95 3112.86,-652.8"/>
</g>
<!-- 28 -->
<g id="node29" class="node">
<title>28</title>
<ellipse fill="none" stroke="black" cx="1811.56" cy="-1161.89" rx="422.41" ry="18"/>
<text text-anchor="middle" x="1811.56" y="-1156.84" font-family="Times New Roman,serif" font-size="14.00">Klaasje&#39;s Note: 便条没有回复。那些参差不齐又潦草的字迹看起来像是她在赶时间。</text>
</g>
<!-- 15&#45;&gt;28 -->
<g id="edge19" class="edge">
<title>15&#45;&gt;28</title>
<path fill="none" stroke="black" d="M1811.56,-1215.59C1811.56,-1208.3 1811.56,-1199.62 1811.56,-1191.43"/>
<polygon fill="black" stroke="black" points="1815.06,-1191.51 1811.56,-1181.51 1808.06,-1191.51 1815.06,-1191.51"/>
</g>
<!-- 16&#45;&gt;10 -->
<g id="edge20" class="edge">
<title>16&#45;&gt;10</title>
<path fill="none" stroke="black" d="M2842.56,-617.6C2842.56,-610.31 2842.56,-601.63 2842.56,-593.44"/>
<polygon fill="black" stroke="black" points="2846.06,-593.52 2842.56,-583.52 2839.06,-593.52 2846.06,-593.52"/>
</g>
<!-- 19 -->
<g id="node20" class="node">
<title>19</title>
<polygon fill="none" stroke="black" points="3170.56,-581.91 3074.78,-563.91 3170.56,-545.91 3266.35,-563.91 3170.56,-581.91"/>
<text text-anchor="middle" x="3170.56" y="-558.86" font-family="Times New Roman,serif" font-size="14.00">!(IsKimHere())</text>
</g>
<!-- 17&#45;&gt;19 -->
<g id="edge21" class="edge">
<title>17&#45;&gt;19</title>
<path fill="none" stroke="black" d="M3170.56,-617.6C3170.56,-610.31 3170.56,-601.63 3170.56,-593.44"/>
<polygon fill="black" stroke="black" points="3174.06,-593.52 3170.56,-583.52 3167.06,-593.52 3174.06,-593.52"/>
</g>
<!-- 20 -->
<g id="node21" class="node">
<title>20</title>
<ellipse fill="none" stroke="black" cx="3715.56" cy="-434.95" rx="427.09" ry="74.95"/>
<text text-anchor="middle" x="3715.56" y="-470.65" font-family="Times New Roman,serif" font-size="14.00">Klaasje&#39;s Note: “很抱歉，我骗了所有人。回见。另.我没杀他。又另.楼上有礼物。”</text>
<text text-anchor="middle" x="3715.56" y="-454.15" font-family="Times New Roman,serif" font-size="14.00">“很抱歉，我骗了所有人。</text>
<text text-anchor="middle" x="3715.56" y="-421.65" font-family="Times New Roman,serif" font-size="14.00">另.我没杀他。</text>
<text text-anchor="middle" x="3715.56" y="-389.15" font-family="Times New Roman,serif" font-size="14.00">又另.楼上有礼物。”</text>
</g>
<!-- 17&#45;&gt;20 -->
<g id="edge22" class="edge">
<title>17&#45;&gt;20</title>
<path fill="none" stroke="black" d="M3207.17,-621.54C3270.81,-598.31 3406.08,-548.93 3521.09,-506.95"/>
<polygon fill="black" stroke="black" points="3522.18,-510.27 3530.38,-503.55 3519.78,-503.7 3522.18,-510.27"/>
</g>
<!-- 46 -->
<g id="node47" class="node">
<title>46</title>
<ellipse fill="none" stroke="black" cx="629.56" cy="-779.91" rx="516.58" ry="18"/>
<text text-anchor="middle" x="629.56" y="-774.86" font-family="Times New Roman,serif" font-size="14.00">Klaasje&#39;s Note: 这个不透气的房间里没有响应，甚至没有一点回音。你注意到楼梯上有一件丝绸衬衫。</text>
</g>
<!-- 18&#45;&gt;46 -->
<g id="edge23" class="edge">
<title>18&#45;&gt;46</title>
<path fill="none" stroke="black" d="M599.22,-835.37C603.65,-827.41 609.18,-817.48 614.31,-808.29"/>
<polygon fill="black" stroke="black" points="617.29,-810.13 619.1,-799.69 611.17,-806.72 617.29,-810.13"/>
</g>
<!-- 31 -->
<g id="node32" class="node">
<title>31</title>
<polygon fill="none" stroke="black" points="3170.56,-452.95 3070.43,-434.95 3170.56,-416.95 3270.69,-434.95 3170.56,-452.95"/>
<text text-anchor="middle" x="3170.56" y="-429.9" font-family="Times New Roman,serif" font-size="14.00">IsCunoInParty()</text>
</g>
<!-- 19&#45;&gt;31 -->
<g id="edge24" class="edge">
<title>19&#45;&gt;31</title>
<path fill="none" stroke="black" d="M3170.56,-545.52C3170.56,-524.63 3170.56,-489.28 3170.56,-464.4"/>
<polygon fill="black" stroke="black" points="3174.06,-464.64 3170.56,-454.64 3167.06,-464.64 3174.06,-464.64"/>
</g>
<!-- 20&#45;&gt;27 -->
<g id="edge25" class="edge">
<title>20&#45;&gt;27</title>
<path fill="none" stroke="black" d="M3584.06,-363.3C3482.25,-312.38 3336.05,-247.34 3199.56,-216 3071.73,-186.65 2751.76,-173.53 2503.22,-167.68"/>
<polygon fill="black" stroke="black" points="2503.4,-164.18 2493.32,-167.45 2503.24,-171.18 2503.4,-164.18"/>
</g>
<!-- 21 -->
<g id="node22" class="node">
<title>21</title>
<ellipse fill="none" stroke="black" cx="1125.56" cy="-1316.88" rx="286.27" ry="18"/>
<text text-anchor="middle" x="1125.56" y="-1311.83" font-family="Times New Roman,serif" font-size="14.00">Half Light: 只要千万别走进另一个无线电陷阱，好吗……</text>
</g>
<!-- 30 -->
<g id="node31" class="node">
<title>30</title>
<ellipse fill="none" stroke="black" cx="1125.56" cy="-1233.89" rx="70.8" ry="18"/>
<text text-anchor="middle" x="1125.56" y="-1228.84" font-family="Times New Roman,serif" font-size="14.00">IsCunoInParty()</text>
</g>
<!-- 21&#45;&gt;30 -->
<g id="edge26" class="edge">
<title>21&#45;&gt;30</title>
<path fill="none" stroke="black" d="M1125.56,-1298.7C1125.56,-1288.57 1125.56,-1275.49 1125.56,-1263.8"/>
<polygon fill="black" stroke="black" points="1129.06,-1263.83 1125.56,-1253.83 1122.06,-1263.83 1129.06,-1263.83"/>
</g>
<!-- 22 -->
<g id="node23" class="node">
<title>22</title>
<ellipse fill="none" stroke="black" cx="1632.56" cy="-707.91" rx="58.52" ry="18"/>
<text text-anchor="middle" x="1632.56" y="-702.86" font-family="Times New Roman,serif" font-size="14.00">IsKimHere()</text>
</g>
<!-- 24 -->
<g id="node25" class="node">
<title>24</title>
<polygon fill="none" stroke="black" points="2364.56,-653.91 2268.78,-635.91 2364.56,-617.91 2460.35,-635.91 2364.56,-653.91"/>
<text text-anchor="middle" x="2364.56" y="-630.86" font-family="Times New Roman,serif" font-size="14.00">!(IsKimHere())</text>
</g>
<!-- 22&#45;&gt;24 -->
<g id="edge27" class="edge">
<title>22&#45;&gt;24</title>
<path fill="none" stroke="black" d="M1687.88,-701.62C1818.37,-689.14 2145.39,-657.87 2291.76,-643.87"/>
<polygon fill="black" stroke="black" points="2291.69,-647.39 2301.31,-642.95 2291.03,-640.42 2291.69,-647.39"/>
</g>
<!-- 25 -->
<g id="node26" class="node">
<title>25</title>
<ellipse fill="none" stroke="black" cx="986.56" cy="-635.91" rx="618.43" ry="18"/>
<text text-anchor="middle" x="986.56" y="-630.86" font-family="Times New Roman,serif" font-size="14.00">Klaasje&#39;s Note: 在成堆的账单旁边，你看见一份笔记——上面留下了几行字，字迹又大又潦草，好像笔者马上要冲出门去。</text>
</g>
<!-- 22&#45;&gt;25 -->
<g id="edge28" class="edge">
<title>22&#45;&gt;25</title>
<path fill="none" stroke="black" d="M1578.04,-701C1485.42,-690.96 1293.75,-670.19 1153.62,-655.01"/>
<polygon fill="black" stroke="black" points="1154.17,-651.55 1143.85,-653.95 1153.42,-658.51 1154.17,-651.55"/>
</g>
<!-- 23 -->
<g id="node24" class="node">
<title>23</title>
<polygon fill="none" stroke="black" points="2728.56,-324 2645.81,-306 2728.56,-288 2811.32,-306 2728.56,-324"/>
<text text-anchor="middle" x="2728.56" y="-300.95" font-family="Times New Roman,serif" font-size="14.00">IsKimHere()</text>
</g>
<!-- 23&#45;&gt;3 -->
<g id="edge29" class="edge">
<title>23&#45;&gt;3</title>
<path fill="none" stroke="black" d="M2728.56,-287.7C2728.56,-280.41 2728.56,-271.73 2728.56,-263.54"/>
<polygon fill="black" stroke="black" points="2732.06,-263.62 2728.56,-253.62 2725.06,-263.62 2732.06,-263.62"/>
</g>
<!-- 24&#45;&gt;6 -->
<g id="edge30" class="edge">
<title>24&#45;&gt;6</title>
<path fill="none" stroke="black" d="M2373.22,-619.37C2377.96,-610.85 2383.97,-600.08 2389.38,-590.36"/>
<polygon fill="black" stroke="black" points="2392.38,-592.16 2394.19,-581.72 2386.27,-588.75 2392.38,-592.16"/>
</g>
<!-- 42 -->
<g id="node43" class="node">
<title>42</title>
<polygon fill="none" stroke="black" points="986.56,-581.91 840.84,-563.91 986.56,-545.91 1132.29,-563.91 986.56,-581.91"/>
<text text-anchor="middle" x="986.56" y="-558.86" font-family="Times New Roman,serif" font-size="14.00">Variable[&quot;tc.the_return&quot;]</text>
</g>
<!-- 25&#45;&gt;42 -->
<g id="edge31" class="edge">
<title>25&#45;&gt;42</title>
<path fill="none" stroke="black" d="M986.56,-617.6C986.56,-610.31 986.56,-601.63 986.56,-593.44"/>
<polygon fill="black" stroke="black" points="990.06,-593.52 986.56,-583.52 983.06,-593.52 990.06,-593.52"/>
</g>
<!-- 26 -->
<g id="node27" class="node">
<title>26</title>
<ellipse fill="none" stroke="black" cx="2295.56" cy="-1399.87" rx="57.49" ry="18"/>
<text text-anchor="middle" x="2295.56" y="-1394.82" font-family="Times New Roman,serif" font-size="14.00">Untitled hub</text>
</g>
<!-- 26&#45;&gt;13 -->
<g id="edge33" class="edge">
<title>26&#45;&gt;13</title>
<path fill="none" stroke="black" d="M2249.1,-1389.02C2193.67,-1377.27 2099.12,-1357.22 2024.49,-1341.4"/>
<polygon fill="black" stroke="black" points="2025.62,-1338.06 2015.11,-1339.41 2024.16,-1344.91 2025.62,-1338.06"/>
</g>
<!-- 26&#45;&gt;14 -->
<g id="edge34" class="edge">
<title>26&#45;&gt;14</title>
<path fill="none" stroke="black" d="M2351.82,-1395.45C2413.79,-1390.21 2515.53,-1377.28 2597.56,-1345.87 2684.63,-1312.54 2775.56,-1328.12 2775.56,-1234.89 2775.56,-1234.89 2775.56,-1234.89 2775.56,-850.91 2775.56,-806.96 2802.13,-762.06 2821.8,-734.82"/>
<polygon fill="black" stroke="black" points="2824.59,-736.94 2827.77,-726.84 2818.98,-732.75 2824.59,-736.94"/>
</g>
<!-- 36 -->
<g id="node37" class="node">
<title>36</title>
<ellipse fill="none" stroke="black" cx="2402.56" cy="-1316.88" rx="186.47" ry="18"/>
<text text-anchor="middle" x="2402.56" y="-1311.83" font-family="Times New Roman,serif" font-size="14.00">Variable[&quot;whirling.klaasjesnote_hub_reached&quot;]</text>
</g>
<!-- 26&#45;&gt;36 -->
<g id="edge32" class="edge">
<title>26&#45;&gt;36</title>
<path fill="none" stroke="black" d="M2316.7,-1382.87C2332.26,-1371.09 2353.67,-1354.89 2371.22,-1341.61"/>
<polygon fill="black" stroke="black" points="2372.92,-1344.71 2378.78,-1335.88 2368.7,-1339.13 2372.92,-1344.71"/>
</g>
<!-- 45 -->
<g id="node46" class="node">
<title>45</title>
<ellipse fill="none" stroke="black" cx="1482.56" cy="-90" rx="183.91" ry="18"/>
<text text-anchor="middle" x="1482.56" y="-84.95" font-family="Times New Roman,serif" font-size="14.00">Kim Kitsuragi: “这没什么好奇怪的。”</text>
</g>
<!-- 27&#45;&gt;45 -->
<g id="edge35" class="edge">
<title>27&#45;&gt;45</title>
<path fill="none" stroke="black" d="M2023.05,-145.59C1902.24,-133.39 1735.01,-116.5 1618.68,-104.75"/>
<polygon fill="black" stroke="black" points="1619.04,-101.27 1608.74,-103.75 1618.33,-108.23 1619.04,-101.27"/>
</g>
<!-- 28&#45;&gt;2 -->
<g id="edge36" class="edge">
<title>28&#45;&gt;2</title>
<path fill="none" stroke="black" d="M1643.86,-1144.92C1521.32,-1133.25 1356.2,-1117.52 1235.71,-1106.05"/>
<polygon fill="black" stroke="black" points="1236.35,-1102.59 1226.06,-1105.13 1235.69,-1109.56 1236.35,-1102.59"/>
</g>
<!-- 29 -->
<g id="node30" class="node">
<title>29</title>
<ellipse fill="none" stroke="black" cx="556.56" cy="-1089.89" rx="245.84" ry="18"/>
<text text-anchor="middle" x="556.56" y="-1084.84" font-family="Times New Roman,serif" font-size="14.00">Volition: 放松。不是所有人都在给你设陷阱的。</text>
</g>
<!-- 29&#45;&gt;9 -->
<g id="edge37" class="edge">
<title>29&#45;&gt;9</title>
<path fill="none" stroke="black" d="M556.56,-1071.59C556.56,-1064.3 556.56,-1055.62 556.56,-1047.43"/>
<polygon fill="black" stroke="black" points="560.06,-1047.51 556.56,-1037.51 553.06,-1047.51 560.06,-1047.51"/>
</g>
<!-- 32 -->
<g id="node33" class="node">
<title>32</title>
<polygon fill="none" stroke="black" points="888.56,-1179.89 775.41,-1161.89 888.56,-1143.89 1001.72,-1161.89 888.56,-1179.89"/>
<text text-anchor="middle" x="888.56" y="-1156.84" font-family="Times New Roman,serif" font-size="14.00">!(IsCunoInParty())</text>
</g>
<!-- 30&#45;&gt;32 -->
<g id="edge38" class="edge">
<title>30&#45;&gt;32</title>
<path fill="none" stroke="black" d="M1080.7,-1219.64C1039.93,-1207.6 979.88,-1189.86 937.79,-1177.43"/>
<polygon fill="black" stroke="black" points="939,-1174.14 928.42,-1174.66 937.02,-1180.85 939,-1174.14"/>
</g>
<!-- 33 -->
<g id="node34" class="node">
<title>33</title>
<ellipse fill="none" stroke="black" cx="1687.56" cy="-779.91" rx="523.24" ry="18"/>
<text text-anchor="middle" x="1687.56" y="-774.86" font-family="Times New Roman,serif" font-size="14.00">Cuno: “一个陷阱，有可能。”他自信地点点头。“但是别担心，猪头。还有坤诺赏识你。我们进去吧。”</text>
</g>
<!-- 30&#45;&gt;33 -->
<g id="edge39" class="edge">
<title>30&#45;&gt;33</title>
<path fill="none" stroke="black" d="M1184.81,-1223.69C1254.72,-1209.07 1361.56,-1173.25 1361.56,-1090.89 1361.56,-1090.89 1361.56,-1090.89 1361.56,-933.9 1361.56,-857.47 1435.9,-819.15 1513.59,-799.96"/>
<polygon fill="black" stroke="black" points="1514.15,-803.43 1523.09,-797.73 1512.55,-796.61 1514.15,-803.43"/>
</g>
<!-- 48 -->
<g id="node49" class="node">
<title>48</title>
<ellipse fill="none" stroke="black" cx="3170.56" cy="-306" rx="27" ry="18"/>
<text text-anchor="middle" x="3170.56" y="-300.95" font-family="Times New Roman,serif" font-size="14.00">48</text>
</g>
<!-- 31&#45;&gt;48 -->
<g id="edge40" class="edge">
<title>31&#45;&gt;48</title>
<path fill="none" stroke="black" d="M3170.56,-416.57C3170.56,-395.67 3170.56,-360.33 3170.56,-335.44"/>
<polygon fill="black" stroke="black" points="3174.06,-335.69 3170.56,-325.69 3167.06,-335.69 3174.06,-335.69"/>
</g>
<!-- 32&#45;&gt;29 -->
<g id="edge41" class="edge">
<title>32&#45;&gt;29</title>
<path fill="none" stroke="black" d="M841.35,-1150.93C790.68,-1140.25 709.02,-1123.03 646.1,-1109.77"/>
<polygon fill="black" stroke="black" points="646.97,-1106.37 636.46,-1107.74 645.52,-1113.22 646.97,-1106.37"/>
</g>
<!-- 33&#45;&gt;22 -->
<g id="edge42" class="edge">
<title>33&#45;&gt;22</title>
<path fill="none" stroke="black" d="M1673.97,-761.6C1667.54,-753.43 1659.75,-743.51 1652.66,-734.49"/>
<polygon fill="black" stroke="black" points="1655.49,-732.42 1646.56,-726.72 1649.98,-736.74 1655.49,-732.42"/>
</g>
<!-- 34&#45;&gt;23 -->
<g id="edge43" class="edge">
<title>34&#45;&gt;23</title>
<path fill="none" stroke="black" d="M2788.23,-373.45C2774.3,-357.93 2760.15,-342.17 2749.13,-329.9"/>
<polygon fill="black" stroke="black" points="2752,-327.86 2742.71,-322.76 2746.79,-332.54 2752,-327.86"/>
</g>
<!-- 35 -->
<g id="node36" class="node">
<title>35</title>
<ellipse fill="none" stroke="black" cx="931.56" cy="-234" rx="72.85" ry="18"/>
<text text-anchor="middle" x="931.56" y="-228.95" font-family="Times New Roman,serif" font-size="14.00">You: [离开。]</text>
</g>
<!-- 38 -->
<g id="node39" class="node">
<title>38</title>
<polygon fill="none" stroke="black" points="2188.56,-1251.89 1911.83,-1233.89 2188.56,-1215.89 2465.3,-1233.89 2188.56,-1251.89"/>
<text text-anchor="middle" x="2188.56" y="-1228.84" font-family="Times New Roman,serif" font-size="14.00">!(Variable[&quot;whirling.klaasjesnote_hub_reached&quot;])</text>
</g>
<!-- 36&#45;&gt;38 -->
<g id="edge44" class="edge">
<title>36&#45;&gt;38</title>
<path fill="none" stroke="black" d="M2357.96,-1299C2322.95,-1285.75 2274.25,-1267.32 2238.04,-1253.62"/>
<polygon fill="black" stroke="black" points="2239.72,-1250.51 2229.13,-1250.24 2237.24,-1257.06 2239.72,-1250.51"/>
</g>
<!-- 39 -->
<g id="node40" class="node">
<title>39</title>
<ellipse fill="none" stroke="black" cx="2253.56" cy="-1017.89" rx="413.2" ry="18"/>
<text text-anchor="middle" x="2253.56" y="-1012.84" font-family="Times New Roman,serif" font-size="14.00">Cuno: “一个礼物，嗯……？”男孩转向楼梯。“在坤诺看来，这他妈也太可疑了。”</text>
</g>
<!-- 36&#45;&gt;39 -->
<g id="edge45" class="edge">
<title>36&#45;&gt;39</title>
<path fill="none" stroke="black" d="M2431.61,-1298.79C2447.51,-1287.66 2465.72,-1271.57 2474.56,-1251.89 2481.12,-1237.29 2481.11,-1230.49 2474.56,-1215.89 2438.12,-1134.59 2349.72,-1073.07 2296.42,-1041.82"/>
<polygon fill="black" stroke="black" points="2298.3,-1038.86 2287.88,-1036.91 2294.81,-1044.93 2298.3,-1038.86"/>
</g>
<!-- 37&#45;&gt;21 -->
<g id="edge46" class="edge">
<title>37&#45;&gt;21</title>
<path fill="none" stroke="black" d="M1125.56,-1381.7C1125.56,-1371.56 1125.56,-1358.48 1125.56,-1346.79"/>
<polygon fill="black" stroke="black" points="1129.06,-1346.82 1125.56,-1336.82 1122.06,-1346.82 1129.06,-1346.82"/>
</g>
<!-- 38&#45;&gt;26 -->
<g id="edge47" class="edge">
<title>38&#45;&gt;26</title>
<path fill="none" stroke="black" d="M2187.28,-1252.31C2186.45,-1275.66 2188.16,-1317.46 2207.56,-1345.87 2217.79,-1360.85 2233.79,-1372.3 2249.35,-1380.65"/>
<polygon fill="black" stroke="black" points="2247.58,-1383.68 2258.09,-1385.02 2250.71,-1377.42 2247.58,-1383.68"/>
</g>
<!-- 39&#45;&gt;27 -->
<g id="edge48" class="edge">
<title>39&#45;&gt;27</title>
<path fill="none" stroke="black" d="M2250.95,-999.7C2246.65,-969.9 2238.56,-906.65 2238.56,-852.91 2238.56,-852.91 2238.56,-852.91 2238.56,-305 2238.56,-264.55 2237.21,-252.39 2219.56,-216 2214.81,-206.2 2207.87,-196.67 2200.9,-188.45"/>
<polygon fill="black" stroke="black" points="2203.72,-186.35 2194.44,-181.23 2198.5,-191.01 2203.72,-186.35"/>
</g>
<!-- 40&#45;&gt;23 -->
<g id="edge49" class="edge">
<title>40&#45;&gt;23</title>
<path fill="none" stroke="black" d="M2550.26,-385.6C2600.25,-363.56 2656.1,-338.94 2691.74,-323.23"/>
<polygon fill="black" stroke="black" points="2693.01,-326.5 2700.75,-319.26 2690.18,-320.09 2693.01,-326.5"/>
</g>
<!-- 41 -->
<g id="node42" class="node">
<title>41</title>
<ellipse fill="none" stroke="black" cx="986.56" cy="-434.95" rx="103.04" ry="18"/>
<text text-anchor="middle" x="986.56" y="-429.9" font-family="Times New Roman,serif" font-size="14.00">Variable[&quot;tc.the_return&quot;]</text>
</g>
<!-- 43 -->
<g id="node44" class="node">
<title>43</title>
<polygon fill="none" stroke="black" points="931.56,-324 772.81,-306 931.56,-288 1090.32,-306 931.56,-324"/>
<text text-anchor="middle" x="931.56" y="-300.95" font-family="Times New Roman,serif" font-size="14.00">!(Variable[&quot;tc.the_return&quot;])</text>
</g>
<!-- 41&#45;&gt;43 -->
<g id="edge50" class="edge">
<title>41&#45;&gt;43</title>
<path fill="none" stroke="black" d="M979.03,-416.57C969.79,-395.25 954.04,-358.88 943.23,-333.94"/>
<polygon fill="black" stroke="black" points="946.44,-332.55 939.26,-324.76 940.02,-335.33 946.44,-332.55"/>
</g>
<!-- 44 -->
<g id="node45" class="node">
<title>44</title>
<ellipse fill="none" stroke="black" cx="1565.56" cy="-306" rx="457.22" ry="18"/>
<text text-anchor="middle" x="1565.56" y="-300.95" font-family="Times New Roman,serif" font-size="14.00">Hand/Eye Coordination: 他说他不会，但看着字条的时候，却本能地把手伸向了枪套的方向。</text>
</g>
<!-- 41&#45;&gt;44 -->
<g id="edge51" class="edge">
<title>41&#45;&gt;44</title>
<path fill="none" stroke="black" d="M1049.07,-420.25C1152.05,-397.67 1357.69,-352.58 1476.07,-326.62"/>
<polygon fill="black" stroke="black" points="1476.75,-330.06 1485.77,-324.5 1475.25,-323.22 1476.75,-330.06"/>
</g>
<!-- 42&#45;&gt;41 -->
<g id="edge52" class="edge">
<title>42&#45;&gt;41</title>
<path fill="none" stroke="black" d="M986.56,-545.52C986.56,-524.63 986.56,-489.28 986.56,-464.4"/>
<polygon fill="black" stroke="black" points="990.06,-464.64 986.56,-454.64 983.06,-464.64 990.06,-464.64"/>
</g>
<!-- 43&#45;&gt;35 -->
<g id="edge53" class="edge">
<title>43&#45;&gt;35</title>
<path fill="none" stroke="black" d="M931.56,-287.7C931.56,-280.41 931.56,-271.73 931.56,-263.54"/>
<polygon fill="black" stroke="black" points="935.06,-263.62 931.56,-253.62 928.06,-263.62 935.06,-263.62"/>
</g>
<!-- 44&#45;&gt;22 -->
<g id="edge54" class="edge">
<title>44&#45;&gt;22</title>
<path fill="none" stroke="black" d="M1568.42,-324.08C1578.82,-386.15 1614.67,-600.14 1627.74,-678.16"/>
<polygon fill="black" stroke="black" points="1624.28,-678.69 1629.39,-687.97 1631.19,-677.53 1624.28,-678.69"/>
</g>
<!-- 45&#45;&gt;4 -->
<g id="edge55" class="edge">
<title>45&#45;&gt;4</title>
<path fill="none" stroke="black" d="M1338.05,-78.54C1181.22,-67.19 928.62,-48.9 744.69,-35.59"/>
<polygon fill="black" stroke="black" points="744.96,-32.1 734.73,-34.87 744.46,-39.08 744.96,-32.1"/>
</g>
<!-- 46&#45;&gt;22 -->
<g id="edge56" class="edge">
<title>46&#45;&gt;22</title>
<path fill="none" stroke="black" d="M854.03,-763.24C1082.02,-747.33 1421.32,-723.65 1564.7,-713.64"/>
<polygon fill="black" stroke="black" points="1564.67,-717.15 1574.4,-712.97 1564.19,-710.17 1564.67,-717.15"/>
</g>
<!-- 47&#45;&gt;4 -->
<g id="edge57" class="edge">
<title>47&#45;&gt;4</title>
<path fill="none" stroke="black" d="M515.56,-143.59C515.56,-119.61 515.56,-76.14 515.56,-47.42"/>
<polygon fill="black" stroke="black" points="519.06,-47.62 515.56,-37.62 512.06,-47.62 519.06,-47.62"/>
</g>
</g>
</svg>
