<?xml version="1.0" encoding="UTF-8" standalone="no"?>
<!DOCTYPE svg PUBLIC "-//W3C//DTD SVG 1.1//EN"
 "http://www.w3.org/Graphics/SVG/1.1/DTD/svg11.dtd">
<!-- Generated by graphviz version 12.2.1 (20241206.2353)
 -->
<!-- Title: G Pages: 1 -->
<svg width="3183pt" height="188pt"
 viewBox="0.00 0.00 3183.46 188.00" xmlns="http://www.w3.org/2000/svg" xmlns:xlink="http://www.w3.org/1999/xlink">
<g id="graph0" class="graph" transform="scale(1 1) rotate(0) translate(4 184)">
<title>G</title>
<polygon fill="white" stroke="none" points="-4,4 -4,-184 3179.46,-184 3179.46,4 -4,4"/>
<!-- 0 -->
<g id="node1" class="node">
<title>0</title>
<ellipse fill="none" stroke="black" cx="1595.67" cy="-162" rx="39.07" ry="18"/>
<text text-anchor="middle" x="1595.67" y="-156.95" font-family="Times New Roman,serif" font-size="14.00">START</text>
</g>
<!-- 1 -->
<g id="node2" class="node">
<title>1</title>
<ellipse fill="none" stroke="black" cx="1595.67" cy="-90" rx="29.86" ry="18"/>
<text text-anchor="middle" x="1595.67" y="-84.95" font-family="Times New Roman,serif" font-size="14.00">input</text>
</g>
<!-- 0&#45;&gt;1 -->
<g id="edge1" class="edge">
<title>0&#45;&gt;1</title>
<path fill="none" stroke="black" d="M1595.67,-143.7C1595.67,-136.41 1595.67,-127.73 1595.67,-119.54"/>
<polygon fill="black" stroke="black" points="1599.17,-119.62 1595.67,-109.62 1592.17,-119.62 1599.17,-119.62"/>
</g>
<!-- 2 -->
<g id="node3" class="node">
<title>2</title>
<ellipse fill="none" stroke="black" cx="216.67" cy="-18" rx="216.67" ry="18"/>
<text text-anchor="middle" x="216.67" y="-12.95" font-family="Times New Roman,serif" font-size="14.00">Shanky: “你是在自己的靴子里拉屎了吗？”</text>
</g>
<!-- 1&#45;&gt;2 -->
<g id="edge2" class="edge">
<title>1&#45;&gt;2</title>
<path fill="none" stroke="black" d="M1565.78,-87.95C1433.64,-83.25 888.59,-63.14 441.67,-36 421.87,-34.8 401.11,-33.41 380.53,-31.95"/>
<polygon fill="black" stroke="black" points="380.86,-28.46 370.63,-31.24 380.36,-35.44 380.86,-28.46"/>
</g>
<!-- 4 -->
<g id="node4" class="node">
<title>4</title>
<ellipse fill="none" stroke="black" cx="620.67" cy="-18" rx="169.58" ry="18"/>
<text text-anchor="middle" x="620.67" y="-12.95" font-family="Times New Roman,serif" font-size="14.00">Shanky: “奇怪你妹妹怎么没有。”</text>
</g>
<!-- 1&#45;&gt;4 -->
<g id="edge3" class="edge">
<title>1&#45;&gt;4</title>
<path fill="none" stroke="black" d="M1565.64,-87.31C1460.37,-81.31 1098.2,-60.11 799.67,-36 784.52,-34.78 768.66,-33.4 752.9,-31.98"/>
<polygon fill="black" stroke="black" points="753.25,-28.5 742.97,-31.08 752.61,-35.47 753.25,-28.5"/>
</g>
<!-- 5 -->
<g id="node5" class="node">
<title>5</title>
<ellipse fill="none" stroke="black" cx="954.67" cy="-18" rx="146.04" ry="18"/>
<text text-anchor="middle" x="954.67" y="-12.95" font-family="Times New Roman,serif" font-size="14.00">Shanky: “大老板都搞定了。”</text>
</g>
<!-- 1&#45;&gt;5 -->
<g id="edge4" class="edge">
<title>1&#45;&gt;5</title>
<path fill="none" stroke="black" d="M1566.36,-85.81C1490.73,-77.58 1282.84,-54.94 1109.67,-36 1097.49,-34.67 1084.78,-33.28 1072.09,-31.89"/>
<polygon fill="black" stroke="black" points="1072.8,-28.44 1062.48,-30.83 1072.04,-35.4 1072.8,-28.44"/>
</g>
<!-- 6 -->
<g id="node6" class="node">
<title>6</title>
<ellipse fill="none" stroke="black" cx="1358.67" cy="-18" rx="240.21" ry="18"/>
<text text-anchor="middle" x="1358.67" y="-12.95" font-family="Times New Roman,serif" font-size="14.00">Shanky: “给我们表演一轮吃小饼干吧，安吉！”</text>
</g>
<!-- 1&#45;&gt;6 -->
<g id="edge5" class="edge">
<title>1&#45;&gt;6</title>
<path fill="none" stroke="black" d="M1569.4,-81.24C1535.18,-71.14 1474.12,-53.1 1426.51,-39.04"/>
<polygon fill="black" stroke="black" points="1427.68,-35.73 1417.1,-36.26 1425.7,-42.45 1427.68,-35.73"/>
</g>
<!-- 7 -->
<g id="node7" class="node">
<title>7</title>
<ellipse fill="none" stroke="black" cx="1833.67" cy="-18" rx="216.67" ry="18"/>
<text text-anchor="middle" x="1833.67" y="-12.95" font-family="Times New Roman,serif" font-size="14.00">Shanky: “去他的，我今晚要去见莫妮卡。”</text>
</g>
<!-- 1&#45;&gt;7 -->
<g id="edge6" class="edge">
<title>1&#45;&gt;7</title>
<path fill="none" stroke="black" d="M1622.04,-81.24C1656.4,-71.14 1717.72,-53.1 1765.54,-39.04"/>
<polygon fill="black" stroke="black" points="1766.39,-42.44 1774.99,-36.26 1764.41,-35.72 1766.39,-42.44"/>
</g>
<!-- 8 -->
<g id="node8" class="node">
<title>8</title>
<ellipse fill="none" stroke="black" cx="2237.67" cy="-18" rx="169.58" ry="18"/>
<text text-anchor="middle" x="2237.67" y="-12.95" font-family="Times New Roman,serif" font-size="14.00">Shanky: “跟老大说去吧，笨蛋。”</text>
</g>
<!-- 1&#45;&gt;8 -->
<g id="edge7" class="edge">
<title>1&#45;&gt;8</title>
<path fill="none" stroke="black" d="M1624.92,-85.81C1709.46,-76.59 1957.8,-49.51 2111.14,-32.8"/>
<polygon fill="black" stroke="black" points="2111.4,-36.29 2120.96,-31.72 2110.64,-29.33 2111.4,-36.29"/>
</g>
<!-- 9 -->
<g id="node9" class="node">
<title>9</title>
<ellipse fill="none" stroke="black" cx="2590.67" cy="-18" rx="165.48" ry="18"/>
<text text-anchor="middle" x="2590.67" y="-12.95" font-family="Times New Roman,serif" font-size="14.00">Shanky: “你该死的脚，老兄……”</text>
</g>
<!-- 1&#45;&gt;9 -->
<g id="edge8" class="edge">
<title>1&#45;&gt;9</title>
<path fill="none" stroke="black" d="M1625.51,-87.43C1732.63,-81.72 2107.74,-61.06 2416.67,-36 2431.39,-34.81 2446.81,-33.45 2462.13,-32.04"/>
<polygon fill="black" stroke="black" points="2462.11,-35.56 2471.74,-31.14 2461.46,-28.59 2462.11,-35.56"/>
</g>
<!-- 10 -->
<g id="node10" class="node">
<title>10</title>
<ellipse fill="none" stroke="black" cx="2974.67" cy="-18" rx="200.8" ry="18"/>
<text text-anchor="middle" x="2974.67" y="-12.95" font-family="Times New Roman,serif" font-size="14.00">Shanky: “该死的流浪汉在这里打转……”</text>
</g>
<!-- 1&#45;&gt;10 -->
<g id="edge9" class="edge">
<title>1&#45;&gt;10</title>
<path fill="none" stroke="black" d="M1625.49,-88.04C1758.58,-83.66 2311.51,-64.61 2764.67,-36 2783.2,-34.83 2802.65,-33.45 2821.92,-32"/>
<polygon fill="black" stroke="black" points="2822.02,-35.51 2831.72,-31.25 2821.48,-28.53 2822.02,-35.51"/>
</g>
</g>
</svg>
