<?xml version="1.0" encoding="UTF-8" standalone="no"?>
<!DOCTYPE svg PUBLIC "-//W3C//DTD SVG 1.1//EN"
 "http://www.w3.org/Graphics/SVG/1.1/DTD/svg11.dtd">
<!-- Generated by graphviz version 12.2.1 (20241206.2353)
 -->
<!-- Title: G Pages: 1 -->
<svg width="1952pt" height="116pt"
 viewBox="0.00 0.00 1951.79 116.00" xmlns="http://www.w3.org/2000/svg" xmlns:xlink="http://www.w3.org/1999/xlink">
<g id="graph0" class="graph" transform="scale(1 1) rotate(0) translate(4 112)">
<title>G</title>
<polygon fill="white" stroke="none" points="-4,4 -4,-112 1947.79,-112 1947.79,4 -4,4"/>
<!-- 0 -->
<g id="node1" class="node">
<title>0</title>
<ellipse fill="none" stroke="black" cx="933.06" cy="-90" rx="39.07" ry="18"/>
<text text-anchor="middle" x="933.06" y="-84.95" font-family="Times New Roman,serif" font-size="14.00">START</text>
</g>
<!-- 0&#45;&gt;0 -->
<g id="edge1" class="edge">
<title>0&#45;&gt;0</title>
<path fill="none" stroke="black" d="M961.25,-102.94C976.36,-105.14 990.13,-100.83 990.13,-90 990.13,-81.96 982.54,-77.52 972.45,-76.65"/>
<polygon fill="black" stroke="black" points="972.63,-73.15 962.76,-77 972.88,-80.14 972.63,-73.15"/>
</g>
<!-- 1 -->
<g id="node2" class="node">
<title>1</title>
<ellipse fill="none" stroke="black" cx="1038.06" cy="-90" rx="29.86" ry="18"/>
<text text-anchor="middle" x="1038.06" y="-84.95" font-family="Times New Roman,serif" font-size="14.00">input</text>
</g>
<!-- 1&#45;&gt;1 -->
<g id="edge2" class="edge">
<title>1&#45;&gt;1</title>
<path fill="none" stroke="black" d="M1059.71,-102.55C1073.14,-105.57 1085.91,-101.39 1085.91,-90 1085.91,-81.99 1079.6,-77.55 1071.18,-76.66"/>
<polygon fill="black" stroke="black" points="1070.96,-73.17 1061.22,-77.35 1071.44,-80.15 1070.96,-73.17"/>
</g>
<!-- 2 -->
<g id="node3" class="node">
<title>2</title>
<ellipse fill="none" stroke="black" cx="212.06" cy="-18" rx="212.06" ry="18"/>
<text text-anchor="middle" x="212.06" y="-12.95" font-family="Times New Roman,serif" font-size="14.00">Elizabeth: “等不及要换掉这身破衣服了。”</text>
</g>
<!-- 1&#45;&gt;2 -->
<g id="edge3" class="edge">
<title>1&#45;&gt;2</title>
<path fill="none" stroke="black" d="M1015.84,-77.74C1010.47,-75.46 1004.66,-73.35 999.06,-72 754.06,-12.75 684.5,-53.67 433.06,-36 414.29,-34.68 394.62,-33.25 375.09,-31.79"/>
<polygon fill="black" stroke="black" points="375.36,-28.3 365.12,-31.04 374.83,-35.28 375.36,-28.3"/>
</g>
<!-- 3 -->
<g id="node4" class="node">
<title>3</title>
<ellipse fill="none" stroke="black" cx="619.06" cy="-18" rx="176.74" ry="18"/>
<text text-anchor="middle" x="619.06" y="-12.95" font-family="Times New Roman,serif" font-size="14.00">Elizabeth: “艾弗拉特付的钱不够。”</text>
</g>
<!-- 1&#45;&gt;3 -->
<g id="edge4" class="edge">
<title>1&#45;&gt;3</title>
<path fill="none" stroke="black" d="M1015.34,-77.86C1010.09,-75.64 1004.46,-73.52 999.06,-72 952.98,-59.01 838.83,-43.89 747.58,-33.14"/>
<polygon fill="black" stroke="black" points="748.13,-29.68 737.79,-31.99 747.32,-36.63 748.13,-29.68"/>
</g>
<!-- 4 -->
<g id="node5" class="node">
<title>4</title>
<ellipse fill="none" stroke="black" cx="1038.06" cy="-18" rx="223.83" ry="18"/>
<text text-anchor="middle" x="1038.06" y="-12.95" font-family="Times New Roman,serif" font-size="14.00">Elizabeth: “提图斯，告诉过你要低调一点。”</text>
</g>
<!-- 1&#45;&gt;4 -->
<g id="edge5" class="edge">
<title>1&#45;&gt;4</title>
<path fill="none" stroke="black" d="M1038.06,-71.7C1038.06,-64.41 1038.06,-55.73 1038.06,-47.54"/>
<polygon fill="black" stroke="black" points="1041.56,-47.62 1038.06,-37.62 1034.56,-47.62 1041.56,-47.62"/>
</g>
<!-- 6 -->
<g id="node7" class="node">
<title>6</title>
<ellipse fill="none" stroke="black" cx="1405.06" cy="-18" rx="125.56" ry="18"/>
<text text-anchor="middle" x="1405.06" y="-12.95" font-family="Times New Roman,serif" font-size="14.00">Elizabeth: “难以置信……”</text>
</g>
<!-- 1&#45;&gt;6 -->
<g id="edge6" class="edge">
<title>1&#45;&gt;6</title>
<path fill="none" stroke="black" d="M1063.99,-80.55C1073.67,-77.58 1084.8,-74.4 1095.06,-72 1164.88,-55.68 1244.65,-42.16 1305.78,-32.86"/>
<polygon fill="black" stroke="black" points="1306.11,-36.35 1315.48,-31.39 1305.07,-29.42 1306.11,-36.35"/>
</g>
<!-- 7 -->
<g id="node8" class="node">
<title>7</title>
<ellipse fill="none" stroke="black" cx="1746.06" cy="-18" rx="197.73" ry="18"/>
<text text-anchor="middle" x="1746.06" y="-12.95" font-family="Times New Roman,serif" font-size="14.00">Elizabeth: “我学法律就是为了*这个*？”</text>
</g>
<!-- 1&#45;&gt;7 -->
<g id="edge7" class="edge">
<title>1&#45;&gt;7</title>
<path fill="none" stroke="black" d="M1063.6,-80.14C1073.34,-77.09 1084.6,-73.96 1095.06,-72 1290.09,-35.45 1342.29,-52.16 1540.06,-36 1556.86,-34.63 1574.42,-33.19 1591.91,-31.75"/>
<polygon fill="black" stroke="black" points="1592.2,-35.24 1601.88,-30.93 1591.62,-28.26 1592.2,-35.24"/>
</g>
<!-- 5 -->
<g id="node6" class="node">
<title>5</title>
<ellipse fill="none" stroke="black" cx="1347.06" cy="-90" rx="243.28" ry="18"/>
<text text-anchor="middle" x="1347.06" y="-84.95" font-family="Times New Roman,serif" font-size="14.00">Elizabeth: “照顾这群蠢货……搞什么鬼，莉兹？”</text>
</g>
</g>
</svg>
