<?xml version="1.0" encoding="UTF-8" standalone="no"?>
<!DOCTYPE svg PUBLIC "-//W3C//DTD SVG 1.1//EN"
 "http://www.w3.org/Graphics/SVG/1.1/DTD/svg11.dtd">
<!-- Generated by graphviz version 12.2.1 (20241206.2353)
 -->
<!-- Title: G Pages: 1 -->
<svg width="6588pt" height="1074pt"
 viewBox="0.00 0.00 6588.49 1073.98" xmlns="http://www.w3.org/2000/svg" xmlns:xlink="http://www.w3.org/1999/xlink">
<g id="graph0" class="graph" transform="scale(1 1) rotate(0) translate(4 1069.98)">
<title>G</title>
<polygon fill="white" stroke="none" points="-4,4 -4,-1069.98 6584.49,-1069.98 6584.49,4 -4,4"/>
<!-- 0 -->
<g id="node1" class="node">
<title>0</title>
<ellipse fill="none" stroke="black" cx="2867.33" cy="-1047.98" rx="39.07" ry="18"/>
<text text-anchor="middle" x="2867.33" y="-1042.93" font-family="Times New Roman,serif" font-size="14.00">START</text>
</g>
<!-- 1 -->
<g id="node2" class="node">
<title>1</title>
<ellipse fill="none" stroke="black" cx="2867.33" cy="-975.98" rx="29.86" ry="18"/>
<text text-anchor="middle" x="2867.33" y="-970.93" font-family="Times New Roman,serif" font-size="14.00">input</text>
</g>
<!-- 0&#45;&gt;1 -->
<g id="edge1" class="edge">
<title>0&#45;&gt;1</title>
<path fill="none" stroke="black" d="M2867.33,-1029.68C2867.33,-1022.39 2867.33,-1013.71 2867.33,-1005.52"/>
<polygon fill="black" stroke="black" points="2870.83,-1005.6 2867.33,-995.6 2863.83,-1005.6 2870.83,-1005.6"/>
</g>
<!-- 26 -->
<g id="node27" class="node">
<title>26</title>
<ellipse fill="none" stroke="black" cx="2867.33" cy="-903.98" rx="50.33" ry="18"/>
<text text-anchor="middle" x="2867.33" y="-898.93" font-family="Times New Roman,serif" font-size="14.00">voyeurhub</text>
</g>
<!-- 1&#45;&gt;26 -->
<g id="edge2" class="edge">
<title>1&#45;&gt;26</title>
<path fill="none" stroke="black" d="M2867.33,-957.68C2867.33,-950.39 2867.33,-941.71 2867.33,-933.52"/>
<polygon fill="black" stroke="black" points="2870.83,-933.6 2867.33,-923.6 2863.83,-933.6 2870.83,-933.6"/>
</g>
<!-- 2 -->
<g id="node3" class="node">
<title>2</title>
<ellipse fill="none" stroke="black" cx="3724.33" cy="-903.98" rx="788.36" ry="18"/>
<text text-anchor="middle" x="3724.33" y="-898.93" font-family="Times New Roman,serif" font-size="14.00">Electrochemistry: 然后你的腺体又大胆的做出*另一种*假设——他们还会加上*另一个*瓶子，就放在离之前那个不远的地方。这次看见的瓶子要稍微小一些。</text>
</g>
<!-- 23 -->
<g id="node24" class="node">
<title>23</title>
<ellipse fill="none" stroke="black" cx="3724.33" cy="-820.99" rx="99.88" ry="28.99"/>
<text text-anchor="middle" x="3724.33" y="-824.19" font-family="Times New Roman,serif" font-size="14.00">You: [忽略思维。]</text>
<text text-anchor="middle" x="3724.33" y="-807.69" font-family="Times New Roman,serif" font-size="14.00">[完成思维。]</text>
</g>
<!-- 2&#45;&gt;23 -->
<g id="edge3" class="edge">
<title>2&#45;&gt;23</title>
<path fill="none" stroke="black" d="M3724.33,-885.81C3724.33,-878.72 3724.33,-870.19 3724.33,-861.7"/>
<polygon fill="black" stroke="black" points="3727.83,-861.81 3724.33,-851.81 3720.83,-861.81 3727.83,-861.81"/>
</g>
<!-- 3 -->
<g id="node4" class="node">
<title>3</title>
<ellipse fill="none" stroke="black" cx="1146.33" cy="-738" rx="769.42" ry="18"/>
<text text-anchor="middle" x="1146.33" y="-732.95" font-family="Times New Roman,serif" font-size="14.00">Shivers: 招牌竖起又被拆下，商店橱窗关闭又被重新打开。唯一永恒不变的——只有偷窥狂，从来都没什么用。而且有时候，是彻头彻尾的一无是处。</text>
</g>
<!-- 27 -->
<g id="node28" class="node">
<title>27</title>
<ellipse fill="none" stroke="black" cx="1146.33" cy="-666" rx="149.11" ry="18"/>
<text text-anchor="middle" x="1146.33" y="-660.95" font-family="Times New Roman,serif" font-size="14.00">You: 那些人在里面做什么？</text>
</g>
<!-- 3&#45;&gt;27 -->
<g id="edge4" class="edge">
<title>3&#45;&gt;27</title>
<path fill="none" stroke="black" d="M1146.33,-719.7C1146.33,-712.41 1146.33,-703.73 1146.33,-695.54"/>
<polygon fill="black" stroke="black" points="1149.83,-695.62 1146.33,-685.62 1142.83,-695.62 1149.83,-695.62"/>
</g>
<!-- 4 -->
<g id="node5" class="node">
<title>4</title>
<ellipse fill="none" stroke="black" cx="3724.33" cy="-1047.98" rx="149.11" ry="18"/>
<text text-anchor="middle" x="3724.33" y="-1042.93" font-family="Times New Roman,serif" font-size="14.00">You: 像一个优秀的调查员。</text>
</g>
<!-- 17 -->
<g id="node18" class="node">
<title>17</title>
<ellipse fill="none" stroke="black" cx="3724.33" cy="-975.98" rx="559.58" ry="18"/>
<text text-anchor="middle" x="3724.33" y="-970.93" font-family="Times New Roman,serif" font-size="14.00">Electrochemistry: 如果你的中脑缘奖赏回路大胆猜测的话：其中一个瓶子可能被*放在*了不属于它的某个地方。</text>
</g>
<!-- 4&#45;&gt;17 -->
<g id="edge5" class="edge">
<title>4&#45;&gt;17</title>
<path fill="none" stroke="black" d="M3724.33,-1029.68C3724.33,-1022.39 3724.33,-1013.71 3724.33,-1005.52"/>
<polygon fill="black" stroke="black" points="3727.83,-1005.6 3724.33,-995.6 3720.83,-1005.6 3727.83,-1005.6"/>
</g>
<!-- 5 -->
<g id="node6" class="node">
<title>5</title>
<ellipse fill="none" stroke="black" cx="829.33" cy="-378" rx="290.88" ry="18"/>
<text text-anchor="middle" x="829.33" y="-372.95" font-family="Times New Roman,serif" font-size="14.00">Shivers: 但是为什么呢？这些东西已经不属于任何人了。</text>
</g>
<!-- 15 -->
<g id="node16" class="node">
<title>15</title>
<ellipse fill="none" stroke="black" cx="2166.33" cy="-90" rx="444.42" ry="18"/>
<text text-anchor="middle" x="2166.33" y="-84.95" font-family="Times New Roman,serif" font-size="14.00">Kim Kitsuragi: “不过，地板上的脚印……”他指着附近地板上的印记。“*确实*非常可疑。”</text>
</g>
<!-- 5&#45;&gt;15 -->
<g id="edge6" class="edge">
<title>5&#45;&gt;15</title>
<path fill="none" stroke="black" d="M907.49,-360.28C1139.9,-310.57 1826,-163.8 2074.86,-110.57"/>
<polygon fill="black" stroke="black" points="2075.49,-114.01 2084.54,-108.5 2074.03,-107.17 2075.49,-114.01"/>
</g>
<!-- 6 -->
<g id="node7" class="node">
<title>6</title>
<ellipse fill="none" stroke="black" cx="2166.33" cy="-234" rx="452.1" ry="18"/>
<text text-anchor="middle" x="2166.33" y="-228.95" font-family="Times New Roman,serif" font-size="14.00">Kim Kitsuragi: 他靠近窥视孔。“几乎什么都看不见。最好不要仓促地*凭感觉*做出结论。”</text>
</g>
<!-- 16 -->
<g id="node17" class="node">
<title>16</title>
<ellipse fill="none" stroke="black" cx="2166.33" cy="-162" rx="137.85" ry="18"/>
<text text-anchor="middle" x="2166.33" y="-156.95" font-family="Times New Roman,serif" font-size="14.00">Shivers: 那就赶紧做事吧。</text>
</g>
<!-- 6&#45;&gt;16 -->
<g id="edge7" class="edge">
<title>6&#45;&gt;16</title>
<path fill="none" stroke="black" d="M2166.33,-215.7C2166.33,-208.41 2166.33,-199.73 2166.33,-191.54"/>
<polygon fill="black" stroke="black" points="2169.83,-191.62 2166.33,-181.62 2162.83,-191.62 2169.83,-191.62"/>
</g>
<!-- 7 -->
<g id="node8" class="node">
<title>7</title>
<ellipse fill="none" stroke="black" cx="4769.33" cy="-1047.98" rx="303.16" ry="18"/>
<text text-anchor="middle" x="4769.33" y="-1042.93" font-family="Times New Roman,serif" font-size="14.00">Electrochemistry: 无聊的脚印。我想直接凭感觉作出结论了。</text>
</g>
<!-- 19 -->
<g id="node20" class="node">
<title>19</title>
<ellipse fill="none" stroke="black" cx="4604.33" cy="-975.98" rx="302.14" ry="18"/>
<text text-anchor="middle" x="4604.33" y="-970.93" font-family="Times New Roman,serif" font-size="14.00">You: 感觉我应该为某种东西感到悲痛，但不确定是什么。</text>
</g>
<!-- 7&#45;&gt;19 -->
<g id="edge8" class="edge">
<title>7&#45;&gt;19</title>
<path fill="none" stroke="black" d="M4728.55,-1029.68C4706.45,-1020.31 4678.94,-1008.63 4655.43,-998.66"/>
<polygon fill="black" stroke="black" points="4656.9,-995.48 4646.33,-994.8 4654.17,-1001.93 4656.9,-995.48"/>
</g>
<!-- 8 -->
<g id="node9" class="node">
<title>8</title>
<ellipse fill="none" stroke="black" cx="2166.33" cy="-18" rx="267.33" ry="18"/>
<text text-anchor="middle" x="2166.33" y="-12.95" font-family="Times New Roman,serif" font-size="14.00">Shivers: 但是，到底是什么冲突，或者是大灾难呢？</text>
</g>
<!-- 8&#45;&gt;15 -->
<g id="edge9" class="edge">
<title>8&#45;&gt;15</title>
<path fill="none" stroke="black" d="M2172.23,-36.1C2172.99,-43.37 2173.24,-52.04 2172.99,-60.24"/>
<polygon fill="black" stroke="black" points="2169.5,-59.98 2172.35,-70.19 2176.48,-60.43 2169.5,-59.98"/>
</g>
<!-- 9 -->
<g id="node10" class="node">
<title>9</title>
<ellipse fill="none" stroke="black" cx="2897.33" cy="-522" rx="208.48" ry="18"/>
<text text-anchor="middle" x="2897.33" y="-516.95" font-family="Times New Roman,serif" font-size="14.00">Shivers: 有太多地方可以开始了，是吧。</text>
</g>
<!-- 9&#45;&gt;15 -->
<g id="edge10" class="edge">
<title>9&#45;&gt;15</title>
<path fill="none" stroke="black" d="M2860.92,-503.81C2819.44,-481.42 2757.33,-438.03 2757.33,-379 2757.33,-379 2757.33,-379 2757.33,-233 2757.33,-159.24 2581.12,-123.7 2421.13,-106.62"/>
<polygon fill="black" stroke="black" points="2421.94,-103.19 2411.63,-105.63 2421.22,-110.15 2421.94,-103.19"/>
</g>
<!-- 10 -->
<g id="node11" class="node">
<title>10</title>
<ellipse fill="none" stroke="black" cx="4846.33" cy="-903.98" rx="227.93" ry="18"/>
<text text-anchor="middle" x="4846.33" y="-898.93" font-family="Times New Roman,serif" font-size="14.00">You: “我好像能从这里看到卡拉洁的卧室。”</text>
</g>
<!-- 10&#45;&gt;7 -->
<g id="edge11" class="edge">
<title>10&#45;&gt;7</title>
<path fill="none" stroke="black" d="M4880.53,-922.26C4893.97,-930.98 4907.92,-942.94 4915.33,-957.98 4922.41,-972.33 4924.52,-980.88 4915.33,-993.98 4905.5,-1008.02 4891.54,-1018.36 4876.12,-1025.96"/>
<polygon fill="black" stroke="black" points="4874.88,-1022.68 4867.18,-1029.96 4877.74,-1029.07 4874.88,-1022.68"/>
</g>
<!-- 11 -->
<g id="node12" class="node">
<title>11</title>
<ellipse fill="none" stroke="black" cx="1718.33" cy="-450" rx="420.37" ry="18"/>
<text text-anchor="middle" x="1718.33" y="-444.95" font-family="Times New Roman,serif" font-size="14.00">Shivers: 其实它为什么一开始就在那里根本就不重要。也许之前就是那样用的吧。</text>
</g>
<!-- 11&#45;&gt;27 -->
<g id="edge12" class="edge">
<title>11&#45;&gt;27</title>
<path fill="none" stroke="black" d="M1693.08,-468.28C1643.48,-501.38 1528.9,-573.83 1422.33,-612 1371.09,-630.36 1312.09,-642.78 1261.83,-650.95"/>
<polygon fill="black" stroke="black" points="1261.41,-647.48 1252.08,-652.5 1262.5,-654.39 1261.41,-647.48"/>
</g>
<!-- 12 -->
<g id="node13" class="node">
<title>12</title>
<ellipse fill="none" stroke="black" cx="1176.33" cy="-522" rx="75.41" ry="18"/>
<text text-anchor="middle" x="1176.33" y="-516.95" font-family="Times New Roman,serif" font-size="14.00">Untitled hub (03)</text>
</g>
<!-- 12&#45;&gt;11 -->
<g id="edge13" class="edge">
<title>12&#45;&gt;11</title>
<path fill="none" stroke="black" d="M1241.44,-512.59C1324.37,-501.88 1469.91,-483.08 1578.47,-469.06"/>
<polygon fill="black" stroke="black" points="1578.88,-472.54 1588.35,-467.79 1577.98,-465.6 1578.88,-472.54"/>
</g>
<!-- 28 -->
<g id="node29" class="node">
<title>28</title>
<ellipse fill="none" stroke="black" cx="1183.33" cy="-450" rx="96.39" ry="18"/>
<text text-anchor="middle" x="1183.33" y="-444.95" font-family="Times New Roman,serif" font-size="14.00">You: [完成思维。]</text>
</g>
<!-- 12&#45;&gt;28 -->
<g id="edge14" class="edge">
<title>12&#45;&gt;28</title>
<path fill="none" stroke="black" d="M1178.06,-503.7C1178.79,-496.41 1179.66,-487.73 1180.48,-479.54"/>
<polygon fill="black" stroke="black" points="1183.96,-479.91 1181.47,-469.61 1177,-479.21 1183.96,-479.91"/>
</g>
<!-- 29 -->
<g id="node30" class="node">
<title>29</title>
<ellipse fill="none" stroke="black" cx="580.33" cy="-450" rx="488.95" ry="18"/>
<text text-anchor="middle" x="580.33" y="-444.95" font-family="Times New Roman,serif" font-size="14.00">Electrochemistry: 你本能地靠近了窥视孔。我肯定他们在做一些*不自然*的事，反常到骇人听闻。</text>
</g>
<!-- 12&#45;&gt;29 -->
<g id="edge15" class="edge">
<title>12&#45;&gt;29</title>
<path fill="none" stroke="black" d="M1109.7,-513.17C1019.34,-502.56 855.3,-483.29 733.68,-469.01"/>
<polygon fill="black" stroke="black" points="734.26,-465.55 723.92,-467.86 733.45,-472.51 734.26,-465.55"/>
</g>
<!-- 13 -->
<g id="node14" class="node">
<title>13</title>
<ellipse fill="none" stroke="black" cx="2166.33" cy="-306" rx="113.79" ry="18"/>
<text text-anchor="middle" x="2166.33" y="-300.95" font-family="Times New Roman,serif" font-size="14.00">You: 像一个入侵者。</text>
</g>
<!-- 13&#45;&gt;6 -->
<g id="edge16" class="edge">
<title>13&#45;&gt;6</title>
<path fill="none" stroke="black" d="M2166.33,-287.7C2166.33,-280.41 2166.33,-271.73 2166.33,-263.54"/>
<polygon fill="black" stroke="black" points="2169.83,-263.62 2166.33,-253.62 2162.83,-263.62 2169.83,-263.62"/>
</g>
<!-- 14 -->
<g id="node15" class="node">
<title>14</title>
<ellipse fill="none" stroke="black" cx="267.33" cy="-738" rx="91.78" ry="18"/>
<text text-anchor="middle" x="267.33" y="-732.95" font-family="Times New Roman,serif" font-size="14.00">Jump to: [voyeurhub]</text>
</g>
<!-- 14&#45;&gt;27 -->
<g id="edge17" class="edge">
<title>14&#45;&gt;27</title>
<path fill="none" stroke="black" d="M332.94,-724.99C344.7,-723.12 356.86,-721.35 368.33,-720 585.31,-694.41 837.89,-680.02 994.97,-672.88"/>
<polygon fill="black" stroke="black" points="994.76,-676.4 1004.6,-672.45 994.45,-669.4 994.76,-676.4"/>
</g>
<!-- 15&#45;&gt;8 -->
<g id="edge18" class="edge">
<title>15&#45;&gt;8</title>
<path fill="none" stroke="black" d="M2160.42,-71.7C2159.67,-64.41 2159.42,-55.73 2159.69,-47.54"/>
<polygon fill="black" stroke="black" points="2163.18,-47.82 2160.34,-37.61 2156.19,-47.36 2163.18,-47.82"/>
</g>
<!-- 16&#45;&gt;15 -->
<g id="edge19" class="edge">
<title>16&#45;&gt;15</title>
<path fill="none" stroke="black" d="M2166.33,-143.7C2166.33,-136.41 2166.33,-127.73 2166.33,-119.54"/>
<polygon fill="black" stroke="black" points="2169.83,-119.62 2166.33,-109.62 2162.83,-119.62 2169.83,-119.62"/>
</g>
<!-- 17&#45;&gt;2 -->
<g id="edge20" class="edge">
<title>17&#45;&gt;2</title>
<path fill="none" stroke="black" d="M3724.33,-957.68C3724.33,-950.39 3724.33,-941.71 3724.33,-933.52"/>
<polygon fill="black" stroke="black" points="3727.83,-933.6 3724.33,-923.6 3720.83,-933.6 3727.83,-933.6"/>
</g>
<!-- 18 -->
<g id="node19" class="node">
<title>18</title>
<ellipse fill="none" stroke="black" cx="1638.33" cy="-378" rx="116.86" ry="18"/>
<text text-anchor="middle" x="1638.33" y="-372.95" font-family="Times New Roman,serif" font-size="14.00">Jump to: [Untitled hub (03)]</text>
</g>
<!-- 18&#45;&gt;13 -->
<g id="edge21" class="edge">
<title>18&#45;&gt;13</title>
<path fill="none" stroke="black" d="M1724.93,-365.52C1819.87,-352.93 1971.77,-332.8 2070.29,-319.73"/>
<polygon fill="black" stroke="black" points="2070.49,-323.24 2079.94,-318.45 2069.57,-316.3 2070.49,-323.24"/>
</g>
<!-- 19&#45;&gt;10 -->
<g id="edge22" class="edge">
<title>19&#45;&gt;10</title>
<path fill="none" stroke="black" d="M4663.53,-957.86C4697.9,-947.92 4741.36,-935.35 4777.28,-924.96"/>
<polygon fill="black" stroke="black" points="4778.08,-928.37 4786.71,-922.23 4776.13,-921.65 4778.08,-928.37"/>
</g>
<!-- 20 -->
<g id="node21" class="node">
<title>20</title>
<ellipse fill="none" stroke="black" cx="2106.33" cy="-738" rx="172.65" ry="18"/>
<text text-anchor="middle" x="2106.33" y="-732.95" font-family="Times New Roman,serif" font-size="14.00">You: 弹球操作失败不是我的错。</text>
</g>
<!-- 25 -->
<g id="node26" class="node">
<title>25</title>
<ellipse fill="none" stroke="black" cx="2076.33" cy="-666" rx="763.28" ry="18"/>
<text text-anchor="middle" x="2076.33" y="-660.95" font-family="Times New Roman,serif" font-size="14.00">Electrochemistry: 你几乎可以*看见*一个男人和一个女人的形状，在里面纠缠——沐浴在毒品，汗水和肮脏的床单之中。瓶子在地上散落的到处都是……</text>
</g>
<!-- 20&#45;&gt;25 -->
<g id="edge23" class="edge">
<title>20&#45;&gt;25</title>
<path fill="none" stroke="black" d="M2098.92,-719.7C2095.69,-712.15 2091.81,-703.12 2088.2,-694.68"/>
<polygon fill="black" stroke="black" points="2091.42,-693.31 2084.26,-685.5 2084.98,-696.07 2091.42,-693.31"/>
</g>
<!-- 21 -->
<g id="node22" class="node">
<title>21</title>
<ellipse fill="none" stroke="black" cx="2684.33" cy="-594" rx="116.86" ry="18"/>
<text text-anchor="middle" x="2684.33" y="-588.95" font-family="Times New Roman,serif" font-size="14.00">Jump to: [Untitled hub (03)]</text>
</g>
<!-- 21&#45;&gt;13 -->
<g id="edge24" class="edge">
<title>21&#45;&gt;13</title>
<path fill="none" stroke="black" d="M2653.87,-576.18C2565.16,-527.2 2307.04,-384.69 2206.8,-329.34"/>
<polygon fill="black" stroke="black" points="2208.54,-326.3 2198.09,-324.53 2205.15,-332.43 2208.54,-326.3"/>
</g>
<!-- 22 -->
<g id="node23" class="node">
<title>22</title>
<ellipse fill="none" stroke="black" cx="5826.33" cy="-1047.98" rx="736.15" ry="18"/>
<text text-anchor="middle" x="5826.33" y="-1042.93" font-family="Times New Roman,serif" font-size="14.00">Electrochemistry: 还有！你可以把思必得塞进自己的直肠，我是说字面意义上的，懂吗？通过粘膜直接进入血液！没错，肯定*也*发生这种事了。</text>
</g>
<!-- 22&#45;&gt;22 -->
<g id="edge25" class="edge">
<title>22&#45;&gt;22</title>
<path fill="none" stroke="black" d="M6332.99,-1061.4C6473.21,-1060.77 6580.49,-1056.3 6580.49,-1047.98 6580.49,-1039.9 6479,-1035.44 6344.42,-1034.62"/>
<polygon fill="black" stroke="black" points="6344.53,-1031.12 6334.51,-1034.57 6344.49,-1038.12 6344.53,-1031.12"/>
</g>
<!-- 24 -->
<g id="node25" class="node">
<title>24</title>
<ellipse fill="none" stroke="black" cx="267.33" cy="-820.99" rx="267.33" ry="18"/>
<text text-anchor="middle" x="267.33" y="-815.94" font-family="Times New Roman,serif" font-size="14.00">Shivers: 不，但是在垃圾堆里乱翻的你有什么感受？</text>
</g>
<!-- 24&#45;&gt;5 -->
<g id="edge28" class="edge">
<title>24&#45;&gt;5</title>
<path fill="none" stroke="black" d="M179.23,-803.55C149.01,-794.07 117.1,-779.2 94.33,-756 65,-726.1 63.33,-708.89 63.33,-667 63.33,-667 63.33,-667 63.33,-521 63.33,-480.55 51.81,-458.54 82.33,-432 117.13,-401.74 342.78,-388.75 537.06,-383.17"/>
<polygon fill="black" stroke="black" points="536.93,-386.67 546.82,-382.9 536.73,-379.68 536.93,-386.67"/>
</g>
<!-- 24&#45;&gt;14 -->
<g id="edge29" class="edge">
<title>24&#45;&gt;14</title>
<path fill="none" stroke="black" d="M267.33,-802.82C267.33,-792.68 267.33,-779.6 267.33,-767.91"/>
<polygon fill="black" stroke="black" points="270.83,-767.94 267.33,-757.94 263.83,-767.94 270.83,-767.94"/>
</g>
<!-- 24&#45;&gt;20 -->
<g id="edge27" class="edge">
<title>24&#45;&gt;20</title>
<path fill="none" stroke="black" d="M518.1,-814.56C842.84,-806.56 1426.29,-788.85 1924.33,-756 1940.57,-754.93 1957.6,-753.61 1974.46,-752.17"/>
<polygon fill="black" stroke="black" points="1974.33,-755.7 1984,-751.35 1973.73,-748.72 1974.33,-755.7"/>
</g>
<!-- 32 -->
<g id="node33" class="node">
<title>32</title>
<ellipse fill="none" stroke="black" cx="130.33" cy="-738" rx="27" ry="18"/>
<text text-anchor="middle" x="130.33" y="-732.95" font-family="Times New Roman,serif" font-size="14.00">32</text>
</g>
<!-- 24&#45;&gt;32 -->
<g id="edge26" class="edge">
<title>24&#45;&gt;32</title>
<path fill="none" stroke="black" d="M237.94,-802.62C214.8,-788.93 182.68,-769.95 159.57,-756.29"/>
<polygon fill="black" stroke="black" points="161.66,-753.45 151.27,-751.38 158.09,-759.48 161.66,-753.45"/>
</g>
<!-- 25&#45;&gt;13 -->
<g id="edge30" class="edge">
<title>25&#45;&gt;13</title>
<path fill="none" stroke="black" d="M2096.76,-647.54C2123.31,-622.77 2166.33,-574.66 2166.33,-523 2166.33,-523 2166.33,-523 2166.33,-449 2166.33,-409.74 2166.33,-364.38 2166.33,-335.69"/>
<polygon fill="black" stroke="black" points="2169.83,-336 2166.33,-326 2162.83,-336 2169.83,-336"/>
</g>
<!-- 26&#45;&gt;21 -->
<g id="edge32" class="edge">
<title>26&#45;&gt;21</title>
<path fill="none" stroke="black" d="M2871.91,-885.83C2882.72,-841.19 2904.85,-719.89 2848.33,-648 2833.26,-628.83 2811.16,-616.49 2788.03,-608.58"/>
<polygon fill="black" stroke="black" points="2789.39,-605.34 2778.8,-605.7 2787.3,-612.02 2789.39,-605.34"/>
</g>
<!-- 26&#45;&gt;24 -->
<g id="edge31" class="edge">
<title>26&#45;&gt;24</title>
<path fill="none" stroke="black" d="M2817.14,-901.42C2531.31,-892.52 1101.15,-847.97 516.74,-829.76"/>
<polygon fill="black" stroke="black" points="517.26,-826.28 507.15,-829.46 517.04,-833.27 517.26,-826.28"/>
</g>
<!-- 31 -->
<g id="node32" class="node">
<title>31</title>
<ellipse fill="none" stroke="black" cx="3009.33" cy="-820.99" rx="113.79" ry="18"/>
<text text-anchor="middle" x="3009.33" y="-815.94" font-family="Times New Roman,serif" font-size="14.00">You: 像一个幸存者。</text>
</g>
<!-- 26&#45;&gt;31 -->
<g id="edge33" class="edge">
<title>26&#45;&gt;31</title>
<path fill="none" stroke="black" d="M2893.38,-888.13C2914.91,-875.85 2945.82,-858.22 2970.31,-844.25"/>
<polygon fill="black" stroke="black" points="2971.76,-847.45 2978.71,-839.46 2968.29,-841.37 2971.76,-847.45"/>
</g>
<!-- 30 -->
<g id="node31" class="node">
<title>30</title>
<ellipse fill="none" stroke="black" cx="1170.33" cy="-594" rx="243.28" ry="18"/>
<text text-anchor="middle" x="1170.33" y="-588.95" font-family="Times New Roman,serif" font-size="14.00">You: 所以这就是墙上有洞的原因？有偷窥狂？</text>
</g>
<!-- 27&#45;&gt;30 -->
<g id="edge34" class="edge">
<title>27&#45;&gt;30</title>
<path fill="none" stroke="black" d="M1152.27,-647.7C1154.82,-640.24 1157.88,-631.32 1160.75,-622.97"/>
<polygon fill="black" stroke="black" points="1164.05,-624.13 1163.98,-613.54 1157.43,-621.86 1164.05,-624.13"/>
</g>
<!-- 29&#45;&gt;18 -->
<g id="edge35" class="edge">
<title>29&#45;&gt;18</title>
<path fill="none" stroke="black" d="M811.54,-433.7C1030.69,-419.2 1350.99,-398.01 1521.45,-386.73"/>
<polygon fill="black" stroke="black" points="1521.45,-390.24 1531.19,-386.09 1520.98,-383.26 1521.45,-390.24"/>
</g>
<!-- 30&#45;&gt;12 -->
<g id="edge36" class="edge">
<title>30&#45;&gt;12</title>
<path fill="none" stroke="black" d="M1171.82,-575.7C1172.44,-568.41 1173.19,-559.73 1173.89,-551.54"/>
<polygon fill="black" stroke="black" points="1177.37,-551.87 1174.74,-541.61 1170.4,-551.28 1177.37,-551.87"/>
</g>
<!-- 31&#45;&gt;9 -->
<g id="edge37" class="edge">
<title>31&#45;&gt;9</title>
<path fill="none" stroke="black" d="M3002.83,-802.74C2984.23,-753.43 2930.72,-611.53 2907.88,-550.95"/>
<polygon fill="black" stroke="black" points="2911.2,-549.84 2904.39,-541.72 2904.65,-552.31 2911.2,-549.84"/>
</g>
</g>
</svg>
