<?xml version="1.0" encoding="UTF-8" standalone="no"?>
<!DOCTYPE svg PUBLIC "-//W3C//DTD SVG 1.1//EN"
 "http://www.w3.org/Graphics/SVG/1.1/DTD/svg11.dtd">
<!-- Generated by graphviz version 12.2.1 (20241206.2353)
 -->
<!-- Title: G Pages: 1 -->
<svg width="7074pt" height="188pt"
 viewBox="0.00 0.00 7074.46 188.00" xmlns="http://www.w3.org/2000/svg" xmlns:xlink="http://www.w3.org/1999/xlink">
<g id="graph0" class="graph" transform="scale(1 1) rotate(0) translate(4 184)">
<title>G</title>
<polygon fill="white" stroke="none" points="-4,4 -4,-184 7070.46,-184 7070.46,4 -4,4"/>
<!-- 0 -->
<g id="node1" class="node">
<title>0</title>
<ellipse fill="none" stroke="black" cx="3356.8" cy="-162" rx="39.07" ry="18"/>
<text text-anchor="middle" x="3356.8" y="-156.95" font-family="Times New Roman,serif" font-size="14.00">START</text>
</g>
<!-- 1 -->
<g id="node2" class="node">
<title>1</title>
<ellipse fill="none" stroke="black" cx="3356.8" cy="-90" rx="29.86" ry="18"/>
<text text-anchor="middle" x="3356.8" y="-84.95" font-family="Times New Roman,serif" font-size="14.00">input</text>
</g>
<!-- 0&#45;&gt;1 -->
<g id="edge1" class="edge">
<title>0&#45;&gt;1</title>
<path fill="none" stroke="black" d="M3356.8,-143.7C3356.8,-136.41 3356.8,-127.73 3356.8,-119.54"/>
<polygon fill="black" stroke="black" points="3360.3,-119.62 3356.8,-109.62 3353.3,-119.62 3360.3,-119.62"/>
</g>
<!-- 2 -->
<g id="node3" class="node">
<title>2</title>
<ellipse fill="none" stroke="black" cx="200.8" cy="-18" rx="200.8" ry="18"/>
<text text-anchor="middle" x="200.8" y="-12.95" font-family="Times New Roman,serif" font-size="14.00">Eugene: “真希望我的吉他还在身边……”</text>
</g>
<!-- 1&#45;&gt;2 -->
<g id="edge2" class="edge">
<title>1&#45;&gt;2</title>
<path fill="none" stroke="black" d="M3326.66,-89.18C3098.15,-90.37 1614.65,-95.5 410.8,-36 391.23,-35.03 370.65,-33.73 350.34,-32.26"/>
<polygon fill="black" stroke="black" points="350.83,-28.79 340.61,-31.55 350.32,-35.77 350.83,-28.79"/>
</g>
<!-- 3 -->
<g id="node4" class="node">
<title>3</title>
<ellipse fill="none" stroke="black" cx="647.8" cy="-18" rx="228.44" ry="18"/>
<text text-anchor="middle" x="647.8" y="-12.95" font-family="Times New Roman,serif" font-size="14.00">Eugene: “现在哈迪兄弟成为本地的传说了。”</text>
</g>
<!-- 1&#45;&gt;3 -->
<g id="edge3" class="edge">
<title>1&#45;&gt;3</title>
<path fill="none" stroke="black" d="M3326.74,-88.93C3120,-88.3 1887.12,-82.66 884.8,-36 862.67,-34.97 839.39,-33.62 816.42,-32.14"/>
<polygon fill="black" stroke="black" points="816.89,-28.66 806.69,-31.5 816.44,-35.65 816.89,-28.66"/>
</g>
<!-- 5 -->
<g id="node5" class="node">
<title>5</title>
<ellipse fill="none" stroke="black" cx="1063.8" cy="-18" rx="169.58" ry="18"/>
<text text-anchor="middle" x="1063.8" y="-12.95" font-family="Times New Roman,serif" font-size="14.00">Eugene: “是啊，那是怎么回事？”</text>
</g>
<!-- 1&#45;&gt;5 -->
<g id="edge4" class="edge">
<title>1&#45;&gt;5</title>
<path fill="none" stroke="black" d="M3326.66,-89.03C3137.29,-89.08 2092.55,-86.94 1242.8,-36 1226.44,-35.02 1209.26,-33.73 1192.29,-32.29"/>
<polygon fill="black" stroke="black" points="1192.95,-28.83 1182.69,-31.46 1192.35,-35.81 1192.95,-28.83"/>
</g>
<!-- 6 -->
<g id="node6" class="node">
<title>6</title>
<ellipse fill="none" stroke="black" cx="1538.8" cy="-18" rx="287.29" ry="18"/>
<text text-anchor="middle" x="1538.8" y="-12.95" font-family="Times New Roman,serif" font-size="14.00">Eugene: “你觉得马列拉会成为一个优秀的哈迪兄弟吗？”</text>
</g>
<!-- 1&#45;&gt;6 -->
<g id="edge5" class="edge">
<title>1&#45;&gt;6</title>
<path fill="none" stroke="black" d="M3326.75,-88.21C3170.57,-84.03 2435.66,-63.71 1834.8,-36 1807.79,-34.75 1779.4,-33.3 1751.34,-31.79"/>
<polygon fill="black" stroke="black" points="1751.87,-28.31 1741.7,-31.26 1751.49,-35.3 1751.87,-28.31"/>
</g>
<!-- 7 -->
<g id="node7" class="node">
<title>7</title>
<ellipse fill="none" stroke="black" cx="2120.8" cy="-18" rx="277.06" ry="18"/>
<text text-anchor="middle" x="2120.8" y="-12.95" font-family="Times New Roman,serif" font-size="14.00">Eugene: “我不唱卡拉OK的，老兄。我的水平太高了。”</text>
</g>
<!-- 1&#45;&gt;7 -->
<g id="edge6" class="edge">
<title>1&#45;&gt;7</title>
<path fill="none" stroke="black" d="M3326.85,-87.37C3209.44,-80.97 2769.2,-56.88 2406.8,-36 2382.14,-34.58 2356.29,-33.07 2330.64,-31.56"/>
<polygon fill="black" stroke="black" points="2330.97,-28.07 2320.78,-30.98 2330.55,-35.06 2330.97,-28.07"/>
</g>
<!-- 8 -->
<g id="node8" class="node">
<title>8</title>
<ellipse fill="none" stroke="black" cx="2679.8" cy="-18" rx="263.75" ry="18"/>
<text text-anchor="middle" x="2679.8" y="-12.95" font-family="Times New Roman,serif" font-size="14.00">Eugene: “遇到那种破事真的会让你开始好好思考。”</text>
</g>
<!-- 1&#45;&gt;8 -->
<g id="edge7" class="edge">
<title>1&#45;&gt;8</title>
<path fill="none" stroke="black" d="M3327.27,-85.95C3242.75,-77.21 2995.44,-51.64 2832.1,-34.75"/>
<polygon fill="black" stroke="black" points="2832.79,-31.3 2822.49,-33.75 2832.07,-38.26 2832.79,-31.3"/>
</g>
<!-- 9 -->
<g id="node9" class="node">
<title>9</title>
<ellipse fill="none" stroke="black" cx="3166.8" cy="-18" rx="204.89" ry="18"/>
<text text-anchor="middle" x="3166.8" y="-12.95" font-family="Times New Roman,serif" font-size="14.00">Eugene: “莫妮卡的咪咪不是超级大吗？”</text>
</g>
<!-- 1&#45;&gt;9 -->
<g id="edge8" class="edge">
<title>1&#45;&gt;9</title>
<path fill="none" stroke="black" d="M3331.96,-79.85C3304.49,-69.73 3259.35,-53.1 3223.2,-39.78"/>
<polygon fill="black" stroke="black" points="3224.79,-36.64 3214.2,-36.46 3222.37,-43.2 3224.79,-36.64"/>
</g>
<!-- 10 -->
<g id="node10" class="node">
<title>10</title>
<ellipse fill="none" stroke="black" cx="3547.8" cy="-18" rx="157.81" ry="18"/>
<text text-anchor="middle" x="3547.8" y="-12.95" font-family="Times New Roman,serif" font-size="14.00">Eugene: “究竟是哪个，老兄？”</text>
</g>
<!-- 1&#45;&gt;10 -->
<g id="edge9" class="edge">
<title>1&#45;&gt;10</title>
<path fill="none" stroke="black" d="M3381.77,-79.85C3409.56,-69.66 3455.37,-52.88 3491.83,-39.51"/>
<polygon fill="black" stroke="black" points="3492.72,-42.91 3500.91,-36.18 3490.32,-36.34 3492.72,-42.91"/>
</g>
<!-- 11 -->
<g id="node11" class="node">
<title>11</title>
<ellipse fill="none" stroke="black" cx="4084.8" cy="-18" rx="361.51" ry="18"/>
<text text-anchor="middle" x="4084.8" y="-12.95" font-family="Times New Roman,serif" font-size="14.00">Eugene: “奇怪……我甚至有点想念安吉那个咕噜的很大声的肚子了……”</text>
</g>
<!-- 1&#45;&gt;11 -->
<g id="edge10" class="edge">
<title>1&#45;&gt;11</title>
<path fill="none" stroke="black" d="M3386.24,-86.17C3473.35,-77.79 3734.8,-52.65 3911.94,-35.62"/>
<polygon fill="black" stroke="black" points="3912.1,-39.12 3921.72,-34.68 3911.43,-32.15 3912.1,-39.12"/>
</g>
<!-- 12 -->
<g id="node12" class="node">
<title>12</title>
<ellipse fill="none" stroke="black" cx="4806.8" cy="-18" rx="342.06" ry="18"/>
<text text-anchor="middle" x="4806.8" y="-12.95" font-family="Times New Roman,serif" font-size="14.00">Eugene: “该死的尚可……我从来都不是很喜欢那个老鼠脸的混账。”</text>
</g>
<!-- 1&#45;&gt;12 -->
<g id="edge11" class="edge">
<title>1&#45;&gt;12</title>
<path fill="none" stroke="black" d="M3386.52,-87.57C3514.5,-81.41 4031.27,-56.52 4455.8,-36 4486.33,-34.52 4518.34,-32.98 4550.1,-31.44"/>
<polygon fill="black" stroke="black" points="4549.99,-34.95 4559.81,-30.97 4549.65,-27.96 4549.99,-34.95"/>
</g>
<!-- 13 -->
<g id="node13" class="node">
<title>13</title>
<ellipse fill="none" stroke="black" cx="5453.8" cy="-18" rx="287.29" ry="18"/>
<text text-anchor="middle" x="5453.8" y="-12.95" font-family="Times New Roman,serif" font-size="14.00">Eugene: （歌唱。）“去酒吧，我们的酒吧，哈迪酒吧！”</text>
</g>
<!-- 1&#45;&gt;13 -->
<g id="edge12" class="edge">
<title>1&#45;&gt;13</title>
<path fill="none" stroke="black" d="M3386.8,-88.43C3559,-85.1 4439.41,-67.19 5157.8,-36 5185.15,-34.81 5213.92,-33.38 5242.33,-31.87"/>
<polygon fill="black" stroke="black" points="5242.31,-35.37 5252.1,-31.34 5241.93,-28.38 5242.31,-35.37"/>
</g>
<!-- 14 -->
<g id="node14" class="node">
<title>14</title>
<ellipse fill="none" stroke="black" cx="5975.8" cy="-18" rx="216.67" ry="18"/>
<text text-anchor="middle" x="5975.8" y="-12.95" font-family="Times New Roman,serif" font-size="14.00">Eugene: “总有一天，我会为此写一首歌。”</text>
</g>
<!-- 1&#45;&gt;14 -->
<g id="edge13" class="edge">
<title>1&#45;&gt;14</title>
<path fill="none" stroke="black" d="M3386.87,-88.94C3589.87,-88.38 4781.15,-83.13 5749.8,-36 5770.8,-34.98 5792.88,-33.64 5814.67,-32.17"/>
<polygon fill="black" stroke="black" points="5814.79,-35.67 5824.53,-31.49 5814.31,-28.68 5814.79,-35.67"/>
</g>
<!-- 15 -->
<g id="node15" class="node">
<title>15</title>
<ellipse fill="none" stroke="black" cx="6412.8" cy="-18" rx="202.33" ry="18"/>
<text text-anchor="middle" x="6412.8" y="-12.95" font-family="Times New Roman,serif" font-size="14.00">Eugene: “我们需要一些*真正*的音乐。”</text>
</g>
<!-- 1&#45;&gt;15 -->
<g id="edge14" class="edge">
<title>1&#45;&gt;15</title>
<path fill="none" stroke="black" d="M3386.97,-89.15C3611.14,-90.08 5041.07,-93.52 6201.8,-36 6221.39,-35.03 6241.98,-33.72 6262.3,-32.27"/>
<polygon fill="black" stroke="black" points="6262.33,-35.77 6272.05,-31.55 6261.82,-28.79 6262.33,-35.77"/>
</g>
<!-- 16 -->
<g id="node16" class="node">
<title>16</title>
<ellipse fill="none" stroke="black" cx="6849.8" cy="-18" rx="216.67" ry="18"/>
<text text-anchor="middle" x="6849.8" y="-12.95" font-family="Times New Roman,serif" font-size="14.00">Eugene: “是啊，好像能有什么改变似的。”</text>
</g>
<!-- 1&#45;&gt;16 -->
<g id="edge15" class="edge">
<title>1&#45;&gt;16</title>
<path fill="none" stroke="black" d="M3386.86,-88.76C3674.52,-86.4 5944.86,-67.02 6623.8,-36 6645.15,-35.02 6667.62,-33.7 6689.76,-32.21"/>
<polygon fill="black" stroke="black" points="6689.71,-35.72 6699.45,-31.55 6689.23,-28.74 6689.71,-35.72"/>
</g>
</g>
</svg>
