<?xml version="1.0" encoding="UTF-8" standalone="no"?>
<!DOCTYPE svg PUBLIC "-//W3C//DTD SVG 1.1//EN"
 "http://www.w3.org/Graphics/SVG/1.1/DTD/svg11.dtd">
<!-- Generated by graphviz version 12.2.1 (20241206.2353)
 -->
<!-- Title: G Pages: 1 -->
<svg width="3467pt" height="908pt"
 viewBox="0.00 0.00 3467.10 908.00" xmlns="http://www.w3.org/2000/svg" xmlns:xlink="http://www.w3.org/1999/xlink">
<g id="graph0" class="graph" transform="scale(1 1) rotate(0) translate(4 904)">
<title>G</title>
<polygon fill="white" stroke="none" points="-4,4 -4,-904 3463.1,-904 3463.1,4 -4,4"/>
<!-- 0 -->
<g id="node1" class="node">
<title>0</title>
<ellipse fill="none" stroke="black" cx="107.7" cy="-882" rx="39.07" ry="18"/>
<text text-anchor="middle" x="107.7" y="-876.95" font-family="Times New Roman,serif" font-size="14.00">START</text>
</g>
<!-- 0&#45;&gt;0 -->
<g id="edge1" class="edge">
<title>0&#45;&gt;0</title>
<path fill="none" stroke="black" d="M135.89,-894.94C151,-897.14 164.77,-892.83 164.77,-882 164.77,-873.96 157.19,-869.52 147.1,-868.65"/>
<polygon fill="black" stroke="black" points="147.27,-865.15 137.4,-869 147.52,-872.14 147.27,-865.15"/>
</g>
<!-- 1 -->
<g id="node2" class="node">
<title>1</title>
<ellipse fill="none" stroke="black" cx="212.7" cy="-882" rx="29.86" ry="18"/>
<text text-anchor="middle" x="212.7" y="-876.95" font-family="Times New Roman,serif" font-size="14.00">input</text>
</g>
<!-- 1&#45;&gt;1 -->
<g id="edge2" class="edge">
<title>1&#45;&gt;1</title>
<path fill="none" stroke="black" d="M234.36,-894.55C247.78,-897.57 260.56,-893.39 260.56,-882 260.56,-873.99 254.24,-869.55 245.83,-868.66"/>
<polygon fill="black" stroke="black" points="245.6,-865.17 235.87,-869.35 246.08,-872.15 245.6,-865.17"/>
</g>
<!-- 2 -->
<g id="node3" class="node">
<title>2</title>
<ellipse fill="none" stroke="black" cx="2341.7" cy="-666" rx="339.5" ry="18"/>
<text text-anchor="middle" x="2341.7" y="-660.95" font-family="Times New Roman,serif" font-size="14.00">Bathtub: 这不是世界上最整洁的浴缸，不过它比现在的你要干净。</text>
</g>
<!-- 15 -->
<g id="node16" class="node">
<title>15</title>
<ellipse fill="none" stroke="black" cx="2339.7" cy="-594" rx="386.59" ry="18"/>
<text text-anchor="middle" x="2339.7" y="-588.95" font-family="Times New Roman,serif" font-size="14.00">Bathtub: 随着逐渐冷却的水温，你的手指变得苍白，上面盖满小小的螺纹。</text>
</g>
<!-- 2&#45;&gt;15 -->
<g id="edge3" class="edge">
<title>2&#45;&gt;15</title>
<path fill="none" stroke="black" d="M2341.21,-647.7C2341,-640.41 2340.75,-631.73 2340.52,-623.54"/>
<polygon fill="black" stroke="black" points="2344.02,-623.51 2340.23,-613.62 2337.02,-623.71 2344.02,-623.51"/>
</g>
<!-- 3 -->
<g id="node4" class="node">
<title>3</title>
<ellipse fill="none" stroke="black" cx="812.7" cy="-306" rx="497.14" ry="18"/>
<text text-anchor="middle" x="812.7" y="-300.95" font-family="Times New Roman,serif" font-size="14.00">Savoir Faire: 保持住，别动！让头停留在水面上，不然莫雷尔朝你身上喷的那些费洛蒙就全没了。</text>
</g>
<!-- 20 -->
<g id="node21" class="node">
<title>20</title>
<ellipse fill="none" stroke="black" cx="812.7" cy="-234" rx="57.49" ry="18"/>
<text text-anchor="middle" x="812.7" y="-228.95" font-family="Times New Roman,serif" font-size="14.00">Untitled hub</text>
</g>
<!-- 3&#45;&gt;20 -->
<g id="edge4" class="edge">
<title>3&#45;&gt;20</title>
<path fill="none" stroke="black" d="M812.7,-287.7C812.7,-280.41 812.7,-271.73 812.7,-263.54"/>
<polygon fill="black" stroke="black" points="816.2,-263.62 812.7,-253.62 809.2,-263.62 816.2,-263.62"/>
</g>
<!-- 4 -->
<g id="node5" class="node">
<title>4</title>
<ellipse fill="none" stroke="black" cx="2342.7" cy="-882" rx="176.74" ry="18"/>
<text text-anchor="middle" x="2342.7" y="-876.95" font-family="Times New Roman,serif" font-size="14.00">Variable[&quot;coast.morells_pheromone_spray&quot;]</text>
</g>
<!-- 4&#45;&gt;4 -->
<g id="edge5" class="edge">
<title>4&#45;&gt;4</title>
<path fill="none" stroke="black" d="M2463.47,-895.5C2504.48,-895.57 2537.45,-891.07 2537.45,-882 2537.45,-873.78 2510.37,-869.31 2474.77,-868.6"/>
<polygon fill="black" stroke="black" points="2475.01,-865.1 2464.98,-868.51 2474.95,-872.1 2475.01,-865.1"/>
</g>
<!-- 5 -->
<g id="node6" class="node">
<title>5</title>
<polygon fill="none" stroke="black" points="2342.7,-828 2092.75,-810 2342.7,-792 2592.66,-810 2342.7,-828"/>
<text text-anchor="middle" x="2342.7" y="-804.95" font-family="Times New Roman,serif" font-size="14.00">Variable[&quot;coast.morells_pheromone_spray&quot;]</text>
</g>
<!-- 4&#45;&gt;5 -->
<g id="edge6" class="edge">
<title>4&#45;&gt;5</title>
<path fill="none" stroke="black" d="M2342.7,-863.7C2342.7,-856.41 2342.7,-847.73 2342.7,-839.54"/>
<polygon fill="black" stroke="black" points="2346.2,-839.62 2342.7,-829.62 2339.2,-839.62 2346.2,-839.62"/>
</g>
<!-- 23 -->
<g id="node24" class="node">
<title>23</title>
<ellipse fill="none" stroke="black" cx="2342.7" cy="-738" rx="692.65" ry="18"/>
<text text-anchor="middle" x="2342.7" y="-732.95" font-family="Times New Roman,serif" font-size="14.00">Bathtub: 水感觉也不是特别的干净。几只啤酒罐在你的身侧上下浮沉，像悲伤的鸭子一样。你停下来想了一会儿，然后把头沉了下去。</text>
</g>
<!-- 5&#45;&gt;23 -->
<g id="edge7" class="edge">
<title>5&#45;&gt;23</title>
<path fill="none" stroke="black" d="M2342.7,-791.7C2342.7,-784.41 2342.7,-775.73 2342.7,-767.54"/>
<polygon fill="black" stroke="black" points="2346.2,-767.62 2342.7,-757.62 2339.2,-767.62 2346.2,-767.62"/>
</g>
<!-- 6 -->
<g id="node7" class="node">
<title>6</title>
<polygon fill="none" stroke="black" points="365.7,-756 102.72,-738 365.7,-720 628.69,-738 365.7,-756"/>
<text text-anchor="middle" x="365.7" y="-732.95" font-family="Times New Roman,serif" font-size="14.00">!(Variable[&quot;coast.morells_pheromone_spray&quot;])</text>
</g>
<!-- 29 -->
<g id="node30" class="node">
<title>29</title>
<ellipse fill="none" stroke="black" cx="586.7" cy="-666" rx="586.7" ry="18"/>
<text text-anchor="middle" x="586.7" y="-660.95" font-family="Times New Roman,serif" font-size="14.00">Bathtub: 水只是有些微温，不过还算舒适，仿佛羊水一般。几只啤酒罐在你的身侧上下浮沉，像悲伤的鸭子一样。</text>
</g>
<!-- 6&#45;&gt;29 -->
<g id="edge8" class="edge">
<title>6&#45;&gt;29</title>
<path fill="none" stroke="black" d="M410.96,-722.67C442.66,-712.62 485.52,-699.05 520.98,-687.82"/>
<polygon fill="black" stroke="black" points="521.81,-691.23 530.28,-684.87 519.69,-684.55 521.81,-691.23"/>
</g>
<!-- 7 -->
<g id="node8" class="node">
<title>7</title>
<ellipse fill="none" stroke="black" cx="699.7" cy="-522" rx="113.79" ry="18"/>
<text text-anchor="middle" x="699.7" y="-516.95" font-family="Times New Roman,serif" font-size="14.00">You: 给自己冲个澡。</text>
</g>
<!-- 30 -->
<g id="node31" class="node">
<title>30</title>
<ellipse fill="none" stroke="black" cx="754.7" cy="-450" rx="233.56" ry="18"/>
<text text-anchor="middle" x="754.7" y="-444.95" font-family="Times New Roman,serif" font-size="14.00">Bathtub: 浴缸里水慢慢满上了，水在召唤你。</text>
</g>
<!-- 7&#45;&gt;30 -->
<g id="edge9" class="edge">
<title>7&#45;&gt;30</title>
<path fill="none" stroke="black" d="M713.3,-503.7C719.63,-495.64 727.29,-485.89 734.29,-476.98"/>
<polygon fill="black" stroke="black" points="736.9,-479.32 740.33,-469.29 731.4,-475 736.9,-479.32"/>
</g>
<!-- 8 -->
<g id="node9" class="node">
<title>8</title>
<ellipse fill="none" stroke="black" cx="1224.7" cy="-522" rx="149.11" ry="18"/>
<text text-anchor="middle" x="1224.7" y="-516.95" font-family="Times New Roman,serif" font-size="14.00">You: 让啤酒罐在里面放着。</text>
</g>
<!-- 25 -->
<g id="node26" class="node">
<title>25</title>
<ellipse fill="none" stroke="black" cx="1467.7" cy="-450" rx="433.67" ry="18"/>
<text text-anchor="middle" x="1467.7" y="-444.95" font-family="Times New Roman,serif" font-size="14.00">Bathtub: 啤酒罐继续吐着上下浮沉，你的想法也一样，漫无目的地泼溅在浴缸两侧。</text>
</g>
<!-- 8&#45;&gt;25 -->
<g id="edge10" class="edge">
<title>8&#45;&gt;25</title>
<path fill="none" stroke="black" d="M1280.76,-504.85C1315.33,-494.89 1359.98,-482.03 1396.97,-471.38"/>
<polygon fill="black" stroke="black" points="1397.59,-474.84 1406.23,-468.71 1395.65,-468.11 1397.59,-474.84"/>
</g>
<!-- 9 -->
<g id="node10" class="node">
<title>9</title>
<ellipse fill="none" stroke="black" cx="2332.7" cy="-522" rx="125.56" ry="18"/>
<text text-anchor="middle" x="2332.7" y="-516.95" font-family="Times New Roman,serif" font-size="14.00">You: 把啤酒罐拿出来。</text>
</g>
<!-- 21 -->
<g id="node22" class="node">
<title>21</title>
<ellipse fill="none" stroke="black" cx="2331.7" cy="-450" rx="398.36" ry="18"/>
<text text-anchor="middle" x="2331.7" y="-444.95" font-family="Times New Roman,serif" font-size="14.00">Bathtub: 现在你泡在浴缸里独自思考，但这总比在浴缸外面要来的容易许多。</text>
</g>
<!-- 9&#45;&gt;21 -->
<g id="edge11" class="edge">
<title>9&#45;&gt;21</title>
<path fill="none" stroke="black" d="M2332.46,-503.7C2332.35,-496.41 2332.23,-487.73 2332.11,-479.54"/>
<polygon fill="black" stroke="black" points="2335.61,-479.57 2331.97,-469.62 2328.61,-479.67 2335.61,-479.57"/>
</g>
<!-- 10 -->
<g id="node11" class="node">
<title>10</title>
<ellipse fill="none" stroke="black" cx="1693.7" cy="-162" rx="455.17" ry="18"/>
<text text-anchor="middle" x="1693.7" y="-156.95" font-family="Times New Roman,serif" font-size="14.00">Physical Instrument: 你在干什么？你又不是水族箱里那些肥硕的大鱼。是时候行动起来了。</text>
</g>
<!-- 11 -->
<g id="node12" class="node">
<title>11</title>
<ellipse fill="none" stroke="black" cx="2315.7" cy="-306" rx="125.56" ry="18"/>
<text text-anchor="middle" x="2315.7" y="-300.95" font-family="Times New Roman,serif" font-size="14.00">You: 出去。（总结。）</text>
</g>
<!-- 10&#45;&gt;11 -->
<g id="edge12" class="edge">
<title>10&#45;&gt;11</title>
<path fill="none" stroke="black" d="M1768.94,-180.18C1888.43,-207.46 2120.25,-260.38 2240.02,-287.72"/>
<polygon fill="black" stroke="black" points="2238.89,-291.05 2249.42,-289.87 2240.45,-284.23 2238.89,-291.05"/>
</g>
<!-- 12 -->
<g id="node13" class="node">
<title>12</title>
<ellipse fill="none" stroke="black" cx="2315.7" cy="-234" rx="46.23" ry="18"/>
<text text-anchor="middle" x="2315.7" y="-228.95" font-family="Times New Roman,serif" font-size="14.00">lingerhub</text>
</g>
<!-- 11&#45;&gt;12 -->
<g id="edge13" class="edge">
<title>11&#45;&gt;12</title>
<path fill="none" stroke="black" d="M2315.7,-287.7C2315.7,-280.41 2315.7,-271.73 2315.7,-263.54"/>
<polygon fill="black" stroke="black" points="2319.2,-263.62 2315.7,-253.62 2312.2,-263.62 2319.2,-263.62"/>
</g>
<!-- 12&#45;&gt;10 -->
<g id="edge14" class="edge">
<title>12&#45;&gt;10</title>
<path fill="none" stroke="black" d="M2271.96,-228.08C2186.01,-218.4 1991.3,-196.49 1851.55,-180.76"/>
<polygon fill="black" stroke="black" points="1852.16,-177.31 1841.83,-179.67 1851.38,-184.27 1852.16,-177.31"/>
</g>
<!-- 22 -->
<g id="node23" class="node">
<title>22</title>
<ellipse fill="none" stroke="black" cx="2315.7" cy="-162" rx="149.11" ry="18"/>
<text text-anchor="middle" x="2315.7" y="-156.95" font-family="Times New Roman,serif" font-size="14.00">You: 在浴缸里多待一会儿。</text>
</g>
<!-- 12&#45;&gt;22 -->
<g id="edge16" class="edge">
<title>12&#45;&gt;22</title>
<path fill="none" stroke="black" d="M2315.7,-215.7C2315.7,-208.41 2315.7,-199.73 2315.7,-191.54"/>
<polygon fill="black" stroke="black" points="2319.2,-191.62 2315.7,-181.62 2312.2,-191.62 2319.2,-191.62"/>
</g>
<!-- 27 -->
<g id="node28" class="node">
<title>27</title>
<ellipse fill="none" stroke="black" cx="2596.7" cy="-162" rx="113.79" ry="18"/>
<text text-anchor="middle" x="2596.7" y="-156.95" font-family="Times New Roman,serif" font-size="14.00">You: 想象一些东西。</text>
</g>
<!-- 12&#45;&gt;27 -->
<g id="edge15" class="edge">
<title>12&#45;&gt;27</title>
<path fill="none" stroke="black" d="M2353.89,-223.49C2398.11,-212.47 2471.87,-194.1 2526.51,-180.49"/>
<polygon fill="black" stroke="black" points="2527.19,-183.92 2536.05,-178.11 2525.5,-177.13 2527.19,-183.92"/>
</g>
<!-- 13 -->
<g id="node14" class="node">
<title>13</title>
<ellipse fill="none" stroke="black" cx="1139.7" cy="-738" rx="492.53" ry="18"/>
<text text-anchor="middle" x="1139.7" y="-732.95" font-family="Times New Roman,serif" font-size="14.00">Bathtub: 你站起身，水位线也随之下降。现在你感觉有点冷。你的衣服粘在依然潮湿的皮肤上。</text>
</g>
<!-- 14 -->
<g id="node15" class="node">
<title>14</title>
<ellipse fill="none" stroke="black" cx="1683.7" cy="-90" rx="343.59" ry="18"/>
<text text-anchor="middle" x="1683.7" y="-84.95" font-family="Times New Roman,serif" font-size="14.00">You: 我想永远带着这种尸臭味活下去。这是死亡的象征。[离开。]</text>
</g>
<!-- 15&#45;&gt;9 -->
<g id="edge17" class="edge">
<title>15&#45;&gt;9</title>
<path fill="none" stroke="black" d="M2337.97,-575.7C2337.24,-568.41 2336.38,-559.73 2335.56,-551.54"/>
<polygon fill="black" stroke="black" points="2339.04,-551.21 2334.56,-541.61 2332.08,-551.91 2339.04,-551.21"/>
</g>
<!-- 16 -->
<g id="node17" class="node">
<title>16</title>
<ellipse fill="none" stroke="black" cx="752.7" cy="-882" rx="474.62" ry="18"/>
<text text-anchor="middle" x="752.7" y="-876.95" font-family="Times New Roman,serif" font-size="14.00">Perception (Smell): 啊，那个皂垢的味道。闻起来像是生活的味道。至少跟你比起来是这样的。</text>
</g>
<!-- 17 -->
<g id="node18" class="node">
<title>17</title>
<ellipse fill="none" stroke="black" cx="752.7" cy="-810" rx="52.38" ry="18"/>
<text text-anchor="middle" x="752.7" y="-804.95" font-family="Times New Roman,serif" font-size="14.00">bathtubhub</text>
</g>
<!-- 16&#45;&gt;17 -->
<g id="edge18" class="edge">
<title>16&#45;&gt;17</title>
<path fill="none" stroke="black" d="M752.7,-863.7C752.7,-856.41 752.7,-847.73 752.7,-839.54"/>
<polygon fill="black" stroke="black" points="756.2,-839.62 752.7,-829.62 749.2,-839.62 756.2,-839.62"/>
</g>
<!-- 17&#45;&gt;6 -->
<g id="edge20" class="edge">
<title>17&#45;&gt;6</title>
<path fill="none" stroke="black" d="M707.17,-800.76C643.15,-789.18 525.52,-767.91 446.45,-753.61"/>
<polygon fill="black" stroke="black" points="447.52,-750.24 437.05,-751.91 446.27,-757.13 447.52,-750.24"/>
</g>
<!-- 17&#45;&gt;13 -->
<g id="edge19" class="edge">
<title>17&#45;&gt;13</title>
<path fill="none" stroke="black" d="M798.23,-800.76C855.75,-790.36 956.52,-772.13 1033.73,-758.17"/>
<polygon fill="black" stroke="black" points="1034.24,-761.63 1043.46,-756.41 1032.99,-754.74 1034.24,-761.63"/>
</g>
<!-- 18 -->
<g id="node19" class="node">
<title>18</title>
<ellipse fill="none" stroke="black" cx="499.7" cy="-162" rx="184.42" ry="18"/>
<text text-anchor="middle" x="499.7" y="-156.95" font-family="Times New Roman,serif" font-size="14.00">You: 我不在乎。我只想被水淹没。</text>
</g>
<!-- 24 -->
<g id="node25" class="node">
<title>24</title>
<ellipse fill="none" stroke="black" cx="499.7" cy="-90" rx="198.24" ry="18"/>
<text text-anchor="middle" x="499.7" y="-84.95" font-family="Times New Roman,serif" font-size="14.00">Bathtub: 温水很舒适，仿佛羊水一般。</text>
</g>
<!-- 18&#45;&gt;24 -->
<g id="edge21" class="edge">
<title>18&#45;&gt;24</title>
<path fill="none" stroke="black" d="M499.7,-143.7C499.7,-136.41 499.7,-127.73 499.7,-119.54"/>
<polygon fill="black" stroke="black" points="503.2,-119.62 499.7,-109.62 496.2,-119.62 503.2,-119.62"/>
</g>
<!-- 19 -->
<g id="node20" class="node">
<title>19</title>
<ellipse fill="none" stroke="black" cx="2885.7" cy="-18" rx="573.4" ry="18"/>
<text text-anchor="middle" x="2885.7" y="-12.95" font-family="Times New Roman,serif" font-size="14.00">Conceptualization: 然后——你看见一条窄街上的房子，一家录像带租赁店，以及笼罩在星球曲线轮廓之上的黑暗。</text>
</g>
<!-- 19&#45;&gt;11 -->
<g id="edge22" class="edge">
<title>19&#45;&gt;11</title>
<path fill="none" stroke="black" d="M3101.23,-35.11C3153.7,-47.68 3187.08,-69.68 3156.7,-108 3067.74,-220.21 2643.44,-274.64 2433.66,-295.05"/>
<polygon fill="black" stroke="black" points="2433.43,-291.55 2423.81,-296 2434.1,-298.52 2433.43,-291.55"/>
</g>
<!-- 20&#45;&gt;18 -->
<g id="edge24" class="edge">
<title>20&#45;&gt;18</title>
<path fill="none" stroke="black" d="M766.85,-222.75C718.52,-211.94 641.35,-194.68 582.36,-181.48"/>
<polygon fill="black" stroke="black" points="583.19,-178.08 572.66,-179.32 581.66,-184.92 583.19,-178.08"/>
</g>
<!-- 33 -->
<g id="node34" class="node">
<title>33</title>
<ellipse fill="none" stroke="black" cx="945.7" cy="-162" rx="243.28" ry="18"/>
<text text-anchor="middle" x="945.7" y="-156.95" font-family="Times New Roman,serif" font-size="14.00">You: 为了以防万一，把你的头停留在水面上。</text>
</g>
<!-- 20&#45;&gt;33 -->
<g id="edge23" class="edge">
<title>20&#45;&gt;33</title>
<path fill="none" stroke="black" d="M841.23,-217.98C859.26,-208.5 882.87,-196.07 903.09,-185.43"/>
<polygon fill="black" stroke="black" points="904.45,-188.67 911.67,-180.91 901.19,-182.47 904.45,-188.67"/>
</g>
<!-- 31 -->
<g id="node32" class="node">
<title>31</title>
<ellipse fill="none" stroke="black" cx="2315.7" cy="-378" rx="562.14" ry="18"/>
<text text-anchor="middle" x="2315.7" y="-372.95" font-family="Times New Roman,serif" font-size="14.00">Electrochemistry: 它们甚至都不算真正的想法。只是一些杂七杂八的感觉，一个都不够敏锐，费不着集中精力。</text>
</g>
<!-- 21&#45;&gt;31 -->
<g id="edge25" class="edge">
<title>21&#45;&gt;31</title>
<path fill="none" stroke="black" d="M2327.75,-431.7C2326.06,-424.32 2324.05,-415.52 2322.16,-407.25"/>
<polygon fill="black" stroke="black" points="2325.59,-406.55 2319.95,-397.58 2318.77,-408.11 2325.59,-406.55"/>
</g>
<!-- 22&#45;&gt;14 -->
<g id="edge26" class="edge">
<title>22&#45;&gt;14</title>
<path fill="none" stroke="black" d="M2208.49,-149.13C2106.76,-137.86 1952.76,-120.8 1837.86,-108.07"/>
<polygon fill="black" stroke="black" points="1838.35,-104.61 1828.02,-106.98 1837.58,-111.56 1838.35,-104.61"/>
</g>
<!-- 23&#45;&gt;2 -->
<g id="edge27" class="edge">
<title>23&#45;&gt;2</title>
<path fill="none" stroke="black" d="M2342.46,-719.7C2342.35,-712.41 2342.23,-703.73 2342.11,-695.54"/>
<polygon fill="black" stroke="black" points="2345.61,-695.57 2341.97,-685.62 2338.61,-695.67 2345.61,-695.57"/>
</g>
<!-- 26 -->
<g id="node27" class="node">
<title>26</title>
<ellipse fill="none" stroke="black" cx="696.7" cy="-594" rx="328.75" ry="18"/>
<text text-anchor="middle" x="696.7" y="-588.95" font-family="Times New Roman,serif" font-size="14.00">Inland Empire: 你感觉很好，很孤独。而且还特别，特别的疲惫。</text>
</g>
<!-- 24&#45;&gt;26 -->
<g id="edge28" class="edge">
<title>24&#45;&gt;26</title>
<path fill="none" stroke="black" d="M374.52,-104.28C349.2,-112.32 324.83,-124.8 306.7,-144 278.94,-173.41 287.7,-192.55 287.7,-233 287.7,-451 287.7,-451 287.7,-451 287.7,-512.27 453.59,-553.09 574.07,-574.66"/>
<polygon fill="black" stroke="black" points="573.27,-578.08 583.72,-576.36 574.48,-571.18 573.27,-578.08"/>
</g>
<!-- 25&#45;&gt;31 -->
<g id="edge29" class="edge">
<title>25&#45;&gt;31</title>
<path fill="none" stroke="black" d="M1657.22,-433.36C1790.78,-422.33 1969.62,-407.57 2107.22,-396.21"/>
<polygon fill="black" stroke="black" points="2107.12,-399.73 2116.8,-395.42 2106.54,-392.75 2107.12,-399.73"/>
</g>
<!-- 26&#45;&gt;7 -->
<g id="edge31" class="edge">
<title>26&#45;&gt;7</title>
<path fill="none" stroke="black" d="M697.44,-575.7C697.76,-568.41 698.13,-559.73 698.48,-551.54"/>
<polygon fill="black" stroke="black" points="701.97,-551.76 698.9,-541.62 694.98,-551.46 701.97,-551.76"/>
</g>
<!-- 26&#45;&gt;8 -->
<g id="edge30" class="edge">
<title>26&#45;&gt;8</title>
<path fill="none" stroke="black" d="M818.5,-576.85C908.22,-564.96 1029.17,-548.92 1115.71,-537.45"/>
<polygon fill="black" stroke="black" points="1115.93,-540.95 1125.38,-536.17 1115.01,-534.01 1115.93,-540.95"/>
</g>
<!-- 32 -->
<g id="node33" class="node">
<title>32</title>
<ellipse fill="none" stroke="black" cx="2596.7" cy="-90" rx="551.39" ry="18"/>
<text text-anchor="middle" x="2596.7" y="-84.95" font-family="Times New Roman,serif" font-size="14.00">Bathtub: 你看见了尸体。你还能闻到自己身上的尸臭。要想彻底消除这股恶臭，不是洗一次澡就能解决的。</text>
</g>
<!-- 27&#45;&gt;32 -->
<g id="edge32" class="edge">
<title>27&#45;&gt;32</title>
<path fill="none" stroke="black" d="M2596.7,-143.7C2596.7,-136.41 2596.7,-127.73 2596.7,-119.54"/>
<polygon fill="black" stroke="black" points="2600.2,-119.62 2596.7,-109.62 2593.2,-119.62 2600.2,-119.62"/>
</g>
<!-- 28 -->
<g id="node29" class="node">
<title>28</title>
<ellipse fill="none" stroke="black" cx="783.7" cy="-378" rx="231.51" ry="18"/>
<text text-anchor="middle" x="783.7" y="-372.95" font-family="Times New Roman,serif" font-size="14.00">You: 脱下衣服，闭上眼睛，然后浸入水中。</text>
</g>
<!-- 28&#45;&gt;3 -->
<g id="edge33" class="edge">
<title>28&#45;&gt;3</title>
<path fill="none" stroke="black" d="M790.87,-359.7C794,-352.15 797.74,-343.12 801.24,-334.68"/>
<polygon fill="black" stroke="black" points="804.44,-336.08 805.04,-325.5 797.98,-333.4 804.44,-336.08"/>
</g>
<!-- 29&#45;&gt;26 -->
<g id="edge34" class="edge">
<title>29&#45;&gt;26</title>
<path fill="none" stroke="black" d="M613.89,-647.7C627.78,-638.86 644.87,-627.99 659.91,-618.41"/>
<polygon fill="black" stroke="black" points="661.61,-621.48 668.17,-613.16 657.85,-615.58 661.61,-621.48"/>
</g>
<!-- 30&#45;&gt;28 -->
<g id="edge35" class="edge">
<title>30&#45;&gt;28</title>
<path fill="none" stroke="black" d="M761.87,-431.7C765,-424.15 768.74,-415.12 772.24,-406.68"/>
<polygon fill="black" stroke="black" points="775.44,-408.08 776.04,-397.5 768.98,-405.4 775.44,-408.08"/>
</g>
<!-- 31&#45;&gt;11 -->
<g id="edge36" class="edge">
<title>31&#45;&gt;11</title>
<path fill="none" stroke="black" d="M2315.7,-359.7C2315.7,-352.41 2315.7,-343.73 2315.7,-335.54"/>
<polygon fill="black" stroke="black" points="2319.2,-335.62 2315.7,-325.62 2312.2,-335.62 2319.2,-335.62"/>
</g>
<!-- 32&#45;&gt;19 -->
<g id="edge37" class="edge">
<title>32&#45;&gt;19</title>
<path fill="none" stroke="black" d="M2668.14,-71.7C2708.96,-61.81 2760.32,-49.37 2802.9,-39.06"/>
<polygon fill="black" stroke="black" points="2803.72,-42.46 2812.61,-36.7 2802.07,-35.66 2803.72,-42.46"/>
</g>
<!-- 33&#45;&gt;24 -->
<g id="edge38" class="edge">
<title>33&#45;&gt;24</title>
<path fill="none" stroke="black" d="M845.06,-145.2C774.19,-134.08 679.44,-119.21 607.11,-107.86"/>
<polygon fill="black" stroke="black" points="608.08,-104.47 597.65,-106.37 606.99,-111.38 608.08,-104.47"/>
</g>
</g>
</svg>
