<?xml version="1.0" encoding="UTF-8" standalone="no"?>
<!DOCTYPE svg PUBLIC "-//W3C//DTD SVG 1.1//EN"
 "http://www.w3.org/Graphics/SVG/1.1/DTD/svg11.dtd">
<!-- Generated by graphviz version 12.2.1 (20241206.2353)
 -->
<!-- Title: G Pages: 1 -->
<svg width="8264pt" height="1791pt"
 viewBox="0.00 0.00 8263.93 1790.80" xmlns="http://www.w3.org/2000/svg" xmlns:xlink="http://www.w3.org/1999/xlink">
<g id="graph0" class="graph" transform="scale(1 1) rotate(0) translate(4 1786.8)">
<title>G</title>
<polygon fill="white" stroke="none" points="-4,4 -4,-1786.8 8259.93,-1786.8 8259.93,4 -4,4"/>
<!-- 0 -->
<g id="node1" class="node">
<title>0</title>
<ellipse fill="none" stroke="black" cx="4531.92" cy="-1764.8" rx="39.07" ry="18"/>
<text text-anchor="middle" x="4531.92" y="-1759.75" font-family="Times New Roman,serif" font-size="14.00">START</text>
</g>
<!-- 0&#45;&gt;0 -->
<g id="edge1" class="edge">
<title>0&#45;&gt;0</title>
<path fill="none" stroke="black" d="M4560.11,-1777.74C4575.22,-1779.94 4588.99,-1775.63 4588.99,-1764.8 4588.99,-1756.76 4581.4,-1752.32 4571.32,-1751.46"/>
<polygon fill="black" stroke="black" points="4571.49,-1747.95 4561.62,-1751.8 4571.74,-1754.94 4571.49,-1747.95"/>
</g>
<!-- 1 -->
<g id="node2" class="node">
<title>1</title>
<ellipse fill="none" stroke="black" cx="4636.92" cy="-1764.8" rx="29.86" ry="18"/>
<text text-anchor="middle" x="4636.92" y="-1759.75" font-family="Times New Roman,serif" font-size="14.00">input</text>
</g>
<!-- 42 -->
<g id="node43" class="node">
<title>42</title>
<ellipse fill="none" stroke="black" cx="4636.92" cy="-1692.8" rx="245.84" ry="18"/>
<text text-anchor="middle" x="4636.92" y="-1687.75" font-family="Times New Roman,serif" font-size="14.00">Bloated Corpse of a Drunk: 你还记得童年的味道吗？</text>
</g>
<!-- 1&#45;&gt;42 -->
<g id="edge2" class="edge">
<title>1&#45;&gt;42</title>
<path fill="none" stroke="black" d="M4631.04,-1746.86C4630.26,-1739.49 4630,-1730.64 4630.27,-1722.31"/>
<polygon fill="black" stroke="black" points="4633.75,-1722.79 4630.91,-1712.59 4626.76,-1722.34 4633.75,-1722.79"/>
</g>
<!-- 2 -->
<g id="node3" class="node">
<title>2</title>
<ellipse fill="none" stroke="black" cx="2663.92" cy="-828.8" rx="290.37" ry="18"/>
<text text-anchor="middle" x="2663.92" y="-823.75" font-family="Times New Roman,serif" font-size="14.00">You: 我出生在一家医院，那里一般是别人死去的地方。</text>
</g>
<!-- 5 -->
<g id="node6" class="node">
<title>5</title>
<ellipse fill="none" stroke="black" cx="2967.92" cy="-756.8" rx="125.56" ry="18"/>
<text text-anchor="middle" x="2967.92" y="-751.75" font-family="Times New Roman,serif" font-size="14.00">You: 极乐世界是什么？</text>
</g>
<!-- 2&#45;&gt;5 -->
<g id="edge3" class="edge">
<title>2&#45;&gt;5</title>
<path fill="none" stroke="black" d="M2737.12,-810.94C2784.05,-800.14 2844.82,-786.15 2892.22,-775.23"/>
<polygon fill="black" stroke="black" points="2892.92,-778.66 2901.88,-773.01 2891.35,-771.84 2892.92,-778.66"/>
</g>
<!-- 3 -->
<g id="node4" class="node">
<title>3</title>
<ellipse fill="none" stroke="black" cx="1762.92" cy="-1188.8" rx="372.77" ry="18"/>
<text text-anchor="middle" x="1762.92" y="-1183.75" font-family="Times New Roman,serif" font-size="14.00">You: 告诉我这是什么！！在你告诉我自己是谁之前，我是不会回答的。</text>
</g>
<!-- 35 -->
<g id="node36" class="node">
<title>35</title>
<ellipse fill="none" stroke="black" cx="1762.92" cy="-1116.8" rx="1053.98" ry="18"/>
<text text-anchor="middle" x="1762.92" y="-1111.75" font-family="Times New Roman,serif" font-size="14.00">Bloated Corpse of a Drunk: 你知道我是谁。我是糟糕的一天。就在那一天，你问了她，之后一个人走在街上，游荡……那是你人生中最糟糕的一天，亲爱的哈里，而且它就要来了。她会在电话里听说这件事的。</text>
</g>
<!-- 3&#45;&gt;35 -->
<g id="edge4" class="edge">
<title>3&#45;&gt;35</title>
<path fill="none" stroke="black" d="M1762.92,-1170.5C1762.92,-1163.21 1762.92,-1154.53 1762.92,-1146.34"/>
<polygon fill="black" stroke="black" points="1766.42,-1146.42 1762.92,-1136.42 1759.42,-1146.42 1766.42,-1146.42"/>
</g>
<!-- 4 -->
<g id="node5" class="node">
<title>4</title>
<ellipse fill="none" stroke="black" cx="6845.92" cy="-378" rx="102.02" ry="18"/>
<text text-anchor="middle" x="6845.92" y="-372.95" font-family="Times New Roman,serif" font-size="14.00">You: 什么？不要！</text>
</g>
<!-- 30 -->
<g id="node31" class="node">
<title>30</title>
<ellipse fill="none" stroke="black" cx="4724.92" cy="-162" rx="1079.06" ry="18"/>
<text text-anchor="middle" x="4724.92" y="-156.95" font-family="Times New Roman,serif" font-size="14.00">Limbic System: 没错，派对小子。而且这次比之前还要*糟糕*！想想你看见的那些烂事！它也要来了，这么快就来了！寂静的警铃在你脑海中响起，就像钟表，根本不让你好好睡觉……是时候穿上衣服了，哈里！</text>
</g>
<!-- 4&#45;&gt;30 -->
<g id="edge5" class="edge">
<title>4&#45;&gt;30</title>
<path fill="none" stroke="black" d="M6759.15,-368.25C6442.45,-336.29 5344.49,-225.51 4906.94,-181.37"/>
<polygon fill="black" stroke="black" points="4907.59,-177.91 4897.28,-180.39 4906.88,-184.88 4907.59,-177.91"/>
</g>
<!-- 14 -->
<g id="node15" class="node">
<title>14</title>
<ellipse fill="none" stroke="black" cx="2785.92" cy="-675.4" rx="818.55" ry="18"/>
<text text-anchor="middle" x="2785.92" y="-670.35" font-family="Times New Roman,serif" font-size="14.00">Bloated Corpse of a Drunk: 没错，你这个胆小鬼，只是呆呆地站在那里。一只手握着酒瓶，另一只手抓住自己的下体——看着她离你远去。让一切都从你身边溜走。</text>
</g>
<!-- 5&#45;&gt;14 -->
<g id="edge6" class="edge">
<title>5&#45;&gt;14</title>
<path fill="none" stroke="black" d="M2930.21,-739.35C2902.92,-727.44 2865.76,-711.23 2835.98,-698.24"/>
<polygon fill="black" stroke="black" points="2837.74,-695.19 2827.18,-694.4 2834.94,-701.61 2837.74,-695.19"/>
</g>
<!-- 6 -->
<g id="node7" class="node">
<title>6</title>
<ellipse fill="none" stroke="black" cx="1542.92" cy="-675.4" rx="406.55" ry="18"/>
<text text-anchor="middle" x="1542.92" y="-670.35" font-family="Times New Roman,serif" font-size="14.00">Bloated Corpse of a Drunk: 你没有跟任何人开玩笑，哈里。你不记得了。告诉我……</text>
</g>
<!-- 47 -->
<g id="node48" class="node">
<title>47</title>
<ellipse fill="none" stroke="black" cx="1069.92" cy="-594" rx="304.7" ry="18"/>
<text text-anchor="middle" x="1069.92" y="-588.95" font-family="Times New Roman,serif" font-size="14.00">Bloated Corpse of a Drunk: 你还记得妻子的手抚摸你的脸庞吗？</text>
</g>
<!-- 6&#45;&gt;47 -->
<g id="edge7" class="edge">
<title>6&#45;&gt;47</title>
<path fill="none" stroke="black" d="M1442.32,-657.51C1364.99,-644.53 1258.32,-626.63 1178.95,-613.3"/>
<polygon fill="black" stroke="black" points="1179.87,-609.91 1169.43,-611.7 1178.72,-616.81 1179.87,-609.91"/>
</g>
<!-- 7 -->
<g id="node8" class="node">
<title>7</title>
<ellipse fill="none" stroke="black" cx="1796.92" cy="-522" rx="149.11" ry="18"/>
<text text-anchor="middle" x="1796.92" y="-516.95" font-family="Times New Roman,serif" font-size="14.00">You: 我的精神疲惫而破碎。</text>
</g>
<!-- 49 -->
<g id="node50" class="node">
<title>49</title>
<ellipse fill="none" stroke="black" cx="1137.92" cy="-450" rx="1137.92" ry="18"/>
<text text-anchor="middle" x="1137.92" y="-444.95" font-family="Times New Roman,serif" font-size="14.00">Ancient Reptilian Brain: 你在想什么？我听不见你的声音，剩下的只不过是词句的梦境。乱七八糟的垃圾。画面不见了，床升起来迎接你。一种纤薄的，像睡觉一样的状态。比起天鹅绒，更像是玻璃，在你的脑海里*碾磨*着。</text>
</g>
<!-- 7&#45;&gt;49 -->
<g id="edge8" class="edge">
<title>7&#45;&gt;49</title>
<path fill="none" stroke="black" d="M1687.73,-509.4C1585.59,-498.55 1431.32,-482.17 1312.16,-469.51"/>
<polygon fill="black" stroke="black" points="1312.56,-466.03 1302.25,-468.46 1311.82,-472.99 1312.56,-466.03"/>
</g>
<!-- 8 -->
<g id="node9" class="node">
<title>8</title>
<ellipse fill="none" stroke="black" cx="4540.92" cy="-1476.8" rx="160.88" ry="18"/>
<text text-anchor="middle" x="4540.92" y="-1471.75" font-family="Times New Roman,serif" font-size="14.00">You: 我能把它们全部找回来。</text>
</g>
<!-- 41 -->
<g id="node42" class="node">
<title>41</title>
<ellipse fill="none" stroke="black" cx="4540.92" cy="-1404.8" rx="571.35" ry="18"/>
<text text-anchor="middle" x="4540.92" y="-1399.75" font-family="Times New Roman,serif" font-size="14.00">Bloated Corpse of a Drunk: 不。它不在了。第三次离去，再也不会回来——全都不复归来。你失败了。你辜负了我。</text>
</g>
<!-- 8&#45;&gt;41 -->
<g id="edge9" class="edge">
<title>8&#45;&gt;41</title>
<path fill="none" stroke="black" d="M4540.92,-1458.5C4540.92,-1451.21 4540.92,-1442.53 4540.92,-1434.34"/>
<polygon fill="black" stroke="black" points="4544.42,-1434.42 4540.92,-1424.42 4537.42,-1434.42 4544.42,-1434.42"/>
</g>
<!-- 9 -->
<g id="node10" class="node">
<title>9</title>
<ellipse fill="none" stroke="black" cx="523.92" cy="-1116.8" rx="137.34" ry="18"/>
<text text-anchor="middle" x="523.92" y="-1111.75" font-family="Times New Roman,serif" font-size="14.00">You: 我什么也不记得了。</text>
</g>
<!-- 9&#45;&gt;47 -->
<g id="edge10" class="edge">
<title>9&#45;&gt;47</title>
<path fill="none" stroke="black" d="M487.72,-1099.14C445.65,-1077 381.92,-1033.59 381.92,-973.8 381.92,-973.8 381.92,-973.8 381.92,-755.8 381.92,-662.25 626.19,-623.09 823.63,-606.72"/>
<polygon fill="black" stroke="black" points="823.88,-610.21 833.57,-605.92 823.31,-603.24 823.88,-610.21"/>
</g>
<!-- 10 -->
<g id="node11" class="node">
<title>10</title>
<ellipse fill="none" stroke="black" cx="4473.92" cy="-234" rx="177.77" ry="18"/>
<text text-anchor="middle" x="4473.92" y="-228.95" font-family="Times New Roman,serif" font-size="14.00">You: 天啊……还有*其他*种类吗？</text>
</g>
<!-- 10&#45;&gt;30 -->
<g id="edge11" class="edge">
<title>10&#45;&gt;30</title>
<path fill="none" stroke="black" d="M4532.77,-216.59C4568.24,-206.69 4613.73,-194.01 4651.54,-183.46"/>
<polygon fill="black" stroke="black" points="4652.35,-186.87 4661.04,-180.82 4650.47,-180.13 4652.35,-186.87"/>
</g>
<!-- 11 -->
<g id="node12" class="node">
<title>11</title>
<ellipse fill="none" stroke="black" cx="3719.92" cy="-675.4" rx="97.93" ry="18"/>
<text text-anchor="middle" x="3719.92" y="-670.35" font-family="Times New Roman,serif" font-size="14.00">Jump to: [bloated_hub]</text>
</g>
<!-- 12 -->
<g id="node13" class="node">
<title>12</title>
<ellipse fill="none" stroke="black" cx="3719.92" cy="-594" rx="86.15" ry="18"/>
<text text-anchor="middle" x="3719.92" y="-588.95" font-family="Times New Roman,serif" font-size="14.00">You: 帮帮我……</text>
</g>
<!-- 11&#45;&gt;12 -->
<g id="edge12" class="edge">
<title>11&#45;&gt;12</title>
<path fill="none" stroke="black" d="M3719.92,-657.17C3719.92,-647.46 3719.92,-635.07 3719.92,-623.91"/>
<polygon fill="black" stroke="black" points="3723.42,-623.98 3719.92,-613.98 3716.42,-623.98 3723.42,-623.98"/>
</g>
<!-- 15 -->
<g id="node16" class="node">
<title>15</title>
<ellipse fill="none" stroke="black" cx="3237.92" cy="-522" rx="614.85" ry="18"/>
<text text-anchor="middle" x="3237.92" y="-516.95" font-family="Times New Roman,serif" font-size="14.00">Bloated Corpse of a Drunk: 所有一切。灰域和洲——就在表面——外层的磁气圈……燃烧着，狂怒的真理，8千年书写的历史。</text>
</g>
<!-- 12&#45;&gt;15 -->
<g id="edge13" class="edge">
<title>12&#45;&gt;15</title>
<path fill="none" stroke="black" d="M3650.6,-582.93C3576.71,-572.2 3458.02,-554.96 3366.85,-541.72"/>
<polygon fill="black" stroke="black" points="3367.49,-538.28 3357.09,-540.31 3366.48,-545.21 3367.49,-538.28"/>
</g>
<!-- 13 -->
<g id="node14" class="node">
<title>13</title>
<ellipse fill="none" stroke="black" cx="4470.92" cy="-756.8" rx="56.47" ry="18"/>
<text text-anchor="middle" x="4470.92" y="-751.75" font-family="Times New Roman,serif" font-size="14.00">bloated_hub</text>
</g>
<!-- 13&#45;&gt;4 -->
<g id="edge14" class="edge">
<title>13&#45;&gt;4</title>
<path fill="none" stroke="black" d="M4527.7,-756.65C4635.5,-757.09 4864.29,-752 4922.92,-702.8 4967.99,-664.98 4913.94,-611.41 4960.92,-576 5026.09,-526.87 7817.78,-548.79 7898.92,-540 8056.38,-522.95 8147.88,-590.78 8247.92,-468 8258.03,-455.6 8259.02,-443.53 8247.92,-432 8203.49,-385.86 7285.24,-379.76 6959.38,-379.05"/>
<polygon fill="black" stroke="black" points="6959.57,-375.55 6949.56,-379.03 6959.55,-382.55 6959.57,-375.55"/>
</g>
<!-- 13&#45;&gt;6 -->
<g id="edge15" class="edge">
<title>13&#45;&gt;6</title>
<path fill="none" stroke="black" d="M4414.27,-755.5C4142.06,-753.84 2941.08,-744.42 1957.92,-702.8 1894.04,-700.1 1824.7,-696.1 1761.31,-692.04"/>
<polygon fill="black" stroke="black" points="1761.68,-688.55 1751.47,-691.4 1761.23,-695.54 1761.68,-688.55"/>
</g>
<!-- 13&#45;&gt;11 -->
<g id="edge16" class="edge">
<title>13&#45;&gt;11</title>
<path fill="none" stroke="black" d="M4414.56,-754.19C4302.13,-750.3 4042.26,-738 3826.92,-702.8 3812.55,-700.45 3797.27,-697.17 3782.89,-693.71"/>
<polygon fill="black" stroke="black" points="3784.11,-690.41 3773.56,-691.41 3782.43,-697.2 3784.11,-690.41"/>
</g>
<!-- 20 -->
<g id="node21" class="node">
<title>20</title>
<ellipse fill="none" stroke="black" cx="4787.92" cy="-675.4" rx="125.87" ry="27.4"/>
<text text-anchor="middle" x="4787.92" y="-677.48" font-family="Times New Roman,serif" font-size="14.00">You: 我之前见过你……</text>
<text text-anchor="middle" x="4787.92" y="-660.98" font-family="Times New Roman,serif" font-size="14.00">我之前跟你说过话。</text>
</g>
<!-- 13&#45;&gt;20 -->
<g id="edge17" class="edge">
<title>13&#45;&gt;20</title>
<path fill="none" stroke="black" d="M4514.33,-744.93C4560.87,-733.27 4636.11,-714.42 4695.92,-699.44"/>
<polygon fill="black" stroke="black" points="4696.58,-702.89 4705.43,-697.06 4694.88,-696.1 4696.58,-702.89"/>
</g>
<!-- 26 -->
<g id="node27" class="node">
<title>26</title>
<ellipse fill="none" stroke="black" cx="5355.92" cy="-675.4" rx="215.64" ry="18"/>
<text text-anchor="middle" x="5355.92" y="-670.35" font-family="Times New Roman,serif" font-size="14.00">You: 我想试着……试着去解决这起案件。</text>
</g>
<!-- 13&#45;&gt;26 -->
<g id="edge18" class="edge">
<title>13&#45;&gt;26</title>
<path fill="none" stroke="black" d="M4524.95,-750.95C4656.99,-739.11 4999.98,-708.33 5201.63,-690.24"/>
<polygon fill="black" stroke="black" points="5201.76,-693.75 5211.41,-689.37 5201.13,-686.77 5201.76,-693.75"/>
</g>
<!-- 27 -->
<g id="node28" class="node">
<title>27</title>
<ellipse fill="none" stroke="black" cx="4470.92" cy="-675.4" rx="172.65" ry="18"/>
<text text-anchor="middle" x="4470.92" y="-670.35" font-family="Times New Roman,serif" font-size="14.00">You: 我可以从这事恢复过来的。</text>
</g>
<!-- 13&#45;&gt;27 -->
<g id="edge19" class="edge">
<title>13&#45;&gt;27</title>
<path fill="none" stroke="black" d="M4470.92,-738.57C4470.92,-728.86 4470.92,-716.47 4470.92,-705.31"/>
<polygon fill="black" stroke="black" points="4474.42,-705.38 4470.92,-695.38 4467.42,-705.38 4474.42,-705.38"/>
</g>
<!-- 36 -->
<g id="node37" class="node">
<title>36</title>
<ellipse fill="none" stroke="black" cx="2361.92" cy="-594" rx="481.27" ry="18"/>
<text text-anchor="middle" x="2361.92" y="-588.95" font-family="Times New Roman,serif" font-size="14.00">Bloated Corpse of a Drunk: 告诉我，你的朋友在哪？人类都有朋友，小哈里。你的朋友都在哪里？</text>
</g>
<!-- 14&#45;&gt;36 -->
<g id="edge20" class="edge">
<title>14&#45;&gt;36</title>
<path fill="none" stroke="black" d="M2693.13,-657.02C2625.58,-644.37 2534.1,-627.24 2464.4,-614.19"/>
<polygon fill="black" stroke="black" points="2465.37,-610.81 2454.89,-612.41 2464.08,-617.69 2465.37,-610.81"/>
</g>
<!-- 37 -->
<g id="node38" class="node">
<title>37</title>
<ellipse fill="none" stroke="black" cx="3237.92" cy="-378" rx="530.92" ry="18"/>
<text text-anchor="middle" x="3237.92" y="-372.95" font-family="Times New Roman,serif" font-size="14.00">Bloated Corpse of a Drunk: 你真的把事情搞糟了，哈里。46亿人——你辜负了他们每一个。你真的*搞砸*了。</text>
</g>
<!-- 15&#45;&gt;37 -->
<g id="edge21" class="edge">
<title>15&#45;&gt;37</title>
<path fill="none" stroke="black" d="M3237.92,-503.59C3237.92,-479.61 3237.92,-436.14 3237.92,-407.42"/>
<polygon fill="black" stroke="black" points="3241.42,-407.62 3237.92,-397.62 3234.42,-407.62 3241.42,-407.62"/>
</g>
<!-- 16 -->
<g id="node17" class="node">
<title>16</title>
<ellipse fill="none" stroke="black" cx="4540.92" cy="-1332.8" rx="1149.69" ry="18"/>
<text text-anchor="middle" x="4540.92" y="-1327.75" font-family="Times New Roman,serif" font-size="14.00">Ancient Reptilian Brain: 帮你，为什么？我听不见你的声音，剩下的只不过是词句的梦境。乱七八糟的垃圾。画面不见了，床升起来迎接你。一种纤薄的，像睡觉一样的状态。比起天鹅绒，更像是玻璃，在你的脑海里*碾磨*着。</text>
</g>
<!-- 50 -->
<g id="node51" class="node">
<title>50</title>
<ellipse fill="none" stroke="black" cx="1762.92" cy="-1260.8" rx="701.35" ry="18"/>
<text text-anchor="middle" x="1762.92" y="-1255.75" font-family="Times New Roman,serif" font-size="14.00">Limbic System: 有&#45;有些不太*对劲*。睡觉不应该是这么糟糕的感觉。如此干燥。毫无营养。你的思想出了点问题。某种……新型的宿醉……</text>
</g>
<!-- 16&#45;&gt;50 -->
<g id="edge22" class="edge">
<title>16&#45;&gt;50</title>
<path fill="none" stroke="black" d="M3950.93,-1316.93C3449.06,-1304.29 2736.32,-1286.33 2262.27,-1274.38"/>
<polygon fill="black" stroke="black" points="2262.37,-1270.88 2252.28,-1274.13 2262.19,-1277.88 2262.37,-1270.88"/>
</g>
<!-- 17 -->
<g id="node18" class="node">
<title>17</title>
<ellipse fill="none" stroke="black" cx="4057.92" cy="-675.4" rx="222.3" ry="18"/>
<text text-anchor="middle" x="4057.92" y="-670.35" font-family="Times New Roman,serif" font-size="14.00">Bloated Corpse of a Drunk: 你辜负了极乐世界。</text>
</g>
<!-- 17&#45;&gt;12 -->
<g id="edge23" class="edge">
<title>17&#45;&gt;12</title>
<path fill="none" stroke="black" d="M3987.48,-657.85C3928.4,-643.98 3844.64,-624.3 3786.64,-610.67"/>
<polygon fill="black" stroke="black" points="3787.77,-607.34 3777.23,-608.46 3786.17,-614.16 3787.77,-607.34"/>
</g>
<!-- 18 -->
<g id="node19" class="node">
<title>18</title>
<ellipse fill="none" stroke="black" cx="1762.92" cy="-1044.8" rx="618.43" ry="18"/>
<text text-anchor="middle" x="1762.92" y="-1039.75" font-family="Times New Roman,serif" font-size="14.00">Bloated Corpse of a Drunk: 现实会变成怪诞的噩梦。这会是你对她做的最后一件事。告诉我——你还记得自己此生的最爱吗？</text>
</g>
<!-- 39 -->
<g id="node40" class="node">
<title>39</title>
<ellipse fill="none" stroke="black" cx="1762.92" cy="-972.8" rx="97.93" ry="18"/>
<text text-anchor="middle" x="1762.92" y="-967.75" font-family="Times New Roman,serif" font-size="14.00">Jump to: [dream_intro]</text>
</g>
<!-- 18&#45;&gt;39 -->
<g id="edge24" class="edge">
<title>18&#45;&gt;39</title>
<path fill="none" stroke="black" d="M1762.92,-1026.5C1762.92,-1019.21 1762.92,-1010.53 1762.92,-1002.34"/>
<polygon fill="black" stroke="black" points="1766.42,-1002.42 1762.92,-992.42 1759.42,-1002.42 1766.42,-1002.42"/>
</g>
<!-- 19 -->
<g id="node20" class="node">
<title>19</title>
<ellipse fill="none" stroke="black" cx="1899.92" cy="-828.8" rx="90.25" ry="18"/>
<text text-anchor="middle" x="1899.92" y="-823.75" font-family="Times New Roman,serif" font-size="14.00">You: 我离开了。</text>
</g>
<!-- 44 -->
<g id="node45" class="node">
<title>44</title>
<ellipse fill="none" stroke="black" cx="1960.92" cy="-756.8" rx="863.08" ry="18"/>
<text text-anchor="middle" x="1960.92" y="-751.75" font-family="Times New Roman,serif" font-size="14.00">Bloated Corpse of a Drunk: 哦不，时髦宝贝儿，你*留下来*了。是其余的部分离开了你。在你只是呆呆站在那里的时候。一只手抓着瓶子，另一只握着下体——目送它远去。</text>
</g>
<!-- 19&#45;&gt;44 -->
<g id="edge25" class="edge">
<title>19&#45;&gt;44</title>
<path fill="none" stroke="black" d="M1914.69,-810.86C1921.77,-802.72 1930.42,-792.8 1938.31,-783.74"/>
<polygon fill="black" stroke="black" points="1940.94,-786.06 1944.87,-776.22 1935.66,-781.46 1940.94,-786.06"/>
</g>
<!-- 32 -->
<g id="node33" class="node">
<title>32</title>
<ellipse fill="none" stroke="black" cx="4643.92" cy="-594" rx="269.89" ry="18"/>
<text text-anchor="middle" x="4643.92" y="-588.95" font-family="Times New Roman,serif" font-size="14.00">Limbic System: Variable[&quot;yard.hanged_corpse_questions_unlocked&quot;]</text>
</g>
<!-- 20&#45;&gt;32 -->
<g id="edge26" class="edge">
<title>20&#45;&gt;32</title>
<path fill="none" stroke="black" d="M4742.75,-649.5C4724.33,-639.34 4703.16,-627.67 4685.16,-617.74"/>
<polygon fill="black" stroke="black" points="4687.02,-614.77 4676.57,-613 4683.64,-620.9 4687.02,-614.77"/>
</g>
<!-- 21 -->
<g id="node22" class="node">
<title>21</title>
<ellipse fill="none" stroke="black" cx="4921.92" cy="-306" rx="120.45" ry="18"/>
<text text-anchor="middle" x="4921.92" y="-300.95" font-family="Times New Roman,serif" font-size="14.00">Limbic System: 臭小子。</text>
</g>
<!-- 21&#45;&gt;10 -->
<g id="edge27" class="edge">
<title>21&#45;&gt;10</title>
<path fill="none" stroke="black" d="M4840.79,-292.32C4767.46,-280.87 4659.07,-263.93 4579.11,-251.44"/>
<polygon fill="black" stroke="black" points="4579.93,-248.02 4569.51,-249.94 4578.85,-254.94 4579.93,-248.02"/>
</g>
<!-- 22 -->
<g id="node23" class="node">
<title>22</title>
<ellipse fill="none" stroke="black" cx="4921.92" cy="-378" rx="383" ry="18"/>
<text text-anchor="middle" x="4921.92" y="-372.95" font-family="Times New Roman,serif" font-size="14.00">Ancient Reptilian Brain: 你很快就会钻回那冰冷的蛇皮里，在床上汗流浃背……</text>
</g>
<!-- 22&#45;&gt;21 -->
<g id="edge28" class="edge">
<title>22&#45;&gt;21</title>
<path fill="none" stroke="black" d="M4921.92,-359.7C4921.92,-352.41 4921.92,-343.73 4921.92,-335.54"/>
<polygon fill="black" stroke="black" points="4925.42,-335.62 4921.92,-325.62 4918.42,-335.62 4925.42,-335.62"/>
</g>
<!-- 23 -->
<g id="node24" class="node">
<title>23</title>
<ellipse fill="none" stroke="black" cx="4540.92" cy="-1620.8" rx="99.46" ry="18"/>
<text text-anchor="middle" x="4540.92" y="-1615.75" font-family="Times New Roman,serif" font-size="14.00">You: 这*是*什么？</text>
</g>
<!-- 31 -->
<g id="node32" class="node">
<title>31</title>
<ellipse fill="none" stroke="black" cx="4362.92" cy="-1548.8" rx="328.24" ry="18"/>
<text text-anchor="middle" x="4362.92" y="-1543.75" font-family="Times New Roman,serif" font-size="14.00">Bloated Corpse of a Drunk: 罐头上写的是什么，哈里。快回答问题。</text>
</g>
<!-- 23&#45;&gt;31 -->
<g id="edge29" class="edge">
<title>23&#45;&gt;31</title>
<path fill="none" stroke="black" d="M4500.53,-1603.92C4475.9,-1594.23 4444.1,-1581.73 4417.28,-1571.18"/>
<polygon fill="black" stroke="black" points="4418.89,-1568.05 4408.3,-1567.65 4416.33,-1574.56 4418.89,-1568.05"/>
</g>
<!-- 24 -->
<g id="node25" class="node">
<title>24</title>
<ellipse fill="none" stroke="black" cx="1883.92" cy="-900.8" rx="56.47" ry="18"/>
<text text-anchor="middle" x="1883.92" y="-895.75" font-family="Times New Roman,serif" font-size="14.00">dream_intro</text>
</g>
<!-- 24&#45;&gt;2 -->
<g id="edge30" class="edge">
<title>24&#45;&gt;2</title>
<path fill="none" stroke="black" d="M1937.84,-894.96C2050.6,-884.84 2315.48,-861.07 2492.18,-845.21"/>
<polygon fill="black" stroke="black" points="2492.27,-848.72 2501.92,-844.34 2491.65,-841.75 2492.27,-848.72"/>
</g>
<!-- 24&#45;&gt;19 -->
<g id="edge31" class="edge">
<title>24&#45;&gt;19</title>
<path fill="none" stroke="black" d="M1887.88,-882.5C1889.56,-875.12 1891.57,-866.33 1893.46,-858.05"/>
<polygon fill="black" stroke="black" points="1896.86,-858.91 1895.67,-848.38 1890.03,-857.35 1896.86,-858.91"/>
</g>
<!-- 28 -->
<g id="node29" class="node">
<title>28</title>
<ellipse fill="none" stroke="black" cx="3772.92" cy="-828.8" rx="102.02" ry="18"/>
<text text-anchor="middle" x="3772.92" y="-823.75" font-family="Times New Roman,serif" font-size="14.00">You: 我被抛弃了。</text>
</g>
<!-- 24&#45;&gt;28 -->
<g id="edge32" class="edge">
<title>24&#45;&gt;28</title>
<path fill="none" stroke="black" d="M1939.94,-897.72C2201.79,-888.02 3307.23,-847.06 3662.49,-833.89"/>
<polygon fill="black" stroke="black" points="3662.42,-837.4 3672.28,-833.53 3662.16,-830.4 3662.42,-837.4"/>
</g>
<!-- 29 -->
<g id="node30" class="node">
<title>29</title>
<ellipse fill="none" stroke="black" cx="914.92" cy="-828.8" rx="109.7" ry="18"/>
<text text-anchor="middle" x="914.92" y="-823.75" font-family="Times New Roman,serif" font-size="14.00">You: 你在说……谁？</text>
</g>
<!-- 24&#45;&gt;29 -->
<g id="edge33" class="edge">
<title>24&#45;&gt;29</title>
<path fill="none" stroke="black" d="M1828.11,-897.31C1694.54,-891.11 1346.02,-873.55 1055.92,-846.8 1041.1,-845.43 1025.43,-843.77 1010.14,-842.02"/>
<polygon fill="black" stroke="black" points="1010.93,-838.59 1000.59,-840.91 1010.12,-845.54 1010.93,-838.59"/>
</g>
<!-- 25 -->
<g id="node26" class="node">
<title>25</title>
<ellipse fill="none" stroke="black" cx="4024.92" cy="-306" rx="758.67" ry="18"/>
<text text-anchor="middle" x="4024.92" y="-300.95" font-family="Times New Roman,serif" font-size="14.00">Bloated Corpse of a Drunk: 你不可能摆脱这件破事回到从前！像你那样在那种*高导状态*中垂死挣扎，横冲直撞，表现的像个*小丑*一样。你在骗谁呢？</text>
</g>
<!-- 25&#45;&gt;10 -->
<g id="edge34" class="edge">
<title>25&#45;&gt;10</title>
<path fill="none" stroke="black" d="M4135.62,-287.74C4206.73,-276.66 4298.55,-262.34 4368.59,-251.42"/>
<polygon fill="black" stroke="black" points="4368.8,-254.93 4378.14,-249.93 4367.72,-248.01 4368.8,-254.93"/>
</g>
<!-- 40 -->
<g id="node41" class="node">
<title>40</title>
<ellipse fill="none" stroke="black" cx="6107.92" cy="-594" rx="1137.92" ry="18"/>
<text text-anchor="middle" x="6107.92" y="-588.95" font-family="Times New Roman,serif" font-size="14.00">Ancient Reptilian Brain: 你想干什么？我听不见你的声音，剩下的只不过是词句的梦境。乱七八糟的垃圾。画面不见了，床升起来迎接你。一种纤薄的，像睡觉一样的状态。比起天鹅绒，更像是玻璃，在你的脑海里*碾磨*着。</text>
</g>
<!-- 26&#45;&gt;40 -->
<g id="edge35" class="edge">
<title>26&#45;&gt;40</title>
<path fill="none" stroke="black" d="M5486.05,-660.66C5609.63,-647.61 5796.32,-627.9 5932.9,-613.48"/>
<polygon fill="black" stroke="black" points="5933.22,-616.97 5942.8,-612.43 5932.48,-610 5933.22,-616.97"/>
</g>
<!-- 27&#45;&gt;25 -->
<g id="edge36" class="edge">
<title>27&#45;&gt;25</title>
<path fill="none" stroke="black" d="M4376.78,-659.95C4210.21,-633.08 3880.92,-573.56 3880.92,-523 3880.92,-523 3880.92,-523 3880.92,-449 3880.92,-394.02 3934.8,-353.17 3976.64,-329.74"/>
<polygon fill="black" stroke="black" points="3978.24,-332.85 3985.38,-325.02 3974.92,-326.69 3978.24,-332.85"/>
</g>
<!-- 28&#45;&gt;13 -->
<g id="edge37" class="edge">
<title>28&#45;&gt;13</title>
<path fill="none" stroke="black" d="M3859.91,-819.08C4001.84,-804.84 4280.02,-776.95 4406.08,-764.3"/>
<polygon fill="black" stroke="black" points="4406.33,-767.8 4415.93,-763.32 4405.63,-760.83 4406.33,-767.8"/>
</g>
<!-- 38 -->
<g id="node39" class="node">
<title>38</title>
<ellipse fill="none" stroke="black" cx="725.92" cy="-756.8" rx="316.47" ry="18"/>
<text text-anchor="middle" x="725.92" y="-751.75" font-family="Times New Roman,serif" font-size="14.00">Bloated Corpse of a Drunk: 你还记得她唇角和双腿之间的温度吗？</text>
</g>
<!-- 29&#45;&gt;38 -->
<g id="edge38" class="edge">
<title>29&#45;&gt;38</title>
<path fill="none" stroke="black" d="M872.03,-811.92C845.76,-802.19 811.82,-789.62 783.26,-779.04"/>
<polygon fill="black" stroke="black" points="784.62,-775.81 774.03,-775.62 782.19,-782.37 784.62,-775.81"/>
</g>
<!-- 46 -->
<g id="node47" class="node">
<title>46</title>
<ellipse fill="none" stroke="black" cx="4724.92" cy="-90" rx="261.7" ry="18"/>
<text text-anchor="middle" x="4724.92" y="-84.95" font-family="Times New Roman,serif" font-size="14.00">Limbic System: 是时候回到那个该死的工厂上班了！</text>
</g>
<!-- 30&#45;&gt;46 -->
<g id="edge39" class="edge">
<title>30&#45;&gt;46</title>
<path fill="none" stroke="black" d="M4724.92,-143.7C4724.92,-136.41 4724.92,-127.73 4724.92,-119.54"/>
<polygon fill="black" stroke="black" points="4728.42,-119.62 4724.92,-109.62 4721.42,-119.62 4728.42,-119.62"/>
</g>
<!-- 31&#45;&gt;1 -->
<g id="edge41" class="edge">
<title>31&#45;&gt;1</title>
<path fill="none" stroke="black" d="M4359,-1567.11C4352.67,-1599.94 4344.44,-1671.49 4381.92,-1710.8 4449.08,-1781.24 4504.61,-1719.15 4597.92,-1746.8 4599.77,-1747.35 4601.65,-1747.96 4603.53,-1748.62"/>
<polygon fill="black" stroke="black" points="4602.17,-1751.85 4612.76,-1752.22 4604.72,-1745.33 4602.17,-1751.85"/>
</g>
<!-- 31&#45;&gt;8 -->
<g id="edge40" class="edge">
<title>31&#45;&gt;8</title>
<path fill="none" stroke="black" d="M4406.92,-1530.5C4431.33,-1520.9 4461.87,-1508.89 4487.63,-1498.76"/>
<polygon fill="black" stroke="black" points="4488.91,-1502.01 4496.94,-1495.1 4486.35,-1495.5 4488.91,-1502.01"/>
</g>
<!-- 33 -->
<g id="node34" class="node">
<title>33</title>
<polygon fill="none" stroke="black" points="7595.92,-540 7301.81,-522 7595.92,-504 7890.03,-522 7595.92,-540"/>
<text text-anchor="middle" x="7595.92" y="-516.95" font-family="Times New Roman,serif" font-size="14.00">Variable[&quot;yard.hanged_corpse_questions_unlocked&quot;]</text>
</g>
<!-- 32&#45;&gt;33 -->
<g id="edge42" class="edge">
<title>32&#45;&gt;33</title>
<path fill="none" stroke="black" d="M4831.77,-580.69C4863.84,-578.9 4896.83,-577.24 4927.92,-576 5805.19,-541.04 6845.68,-528.8 7327,-524.79"/>
<polygon fill="black" stroke="black" points="7326.78,-528.3 7336.75,-524.71 7326.72,-521.3 7326.78,-528.3"/>
</g>
<!-- 34 -->
<g id="node35" class="node">
<title>34</title>
<polygon fill="none" stroke="black" points="4596.92,-540 4289.79,-522 4596.92,-504 4904.06,-522 4596.92,-540"/>
<text text-anchor="middle" x="4596.92" y="-516.95" font-family="Times New Roman,serif" font-size="14.00">!(Variable[&quot;yard.hanged_corpse_questions_unlocked&quot;])</text>
</g>
<!-- 32&#45;&gt;34 -->
<g id="edge43" class="edge">
<title>32&#45;&gt;34</title>
<path fill="none" stroke="black" d="M4632.3,-575.7C4626.93,-567.7 4620.43,-558.02 4614.48,-549.15"/>
<polygon fill="black" stroke="black" points="4617.4,-547.23 4608.92,-540.88 4611.59,-551.13 4617.4,-547.23"/>
</g>
<!-- 51 -->
<g id="node52" class="node">
<title>51</title>
<ellipse fill="none" stroke="black" cx="7419.92" cy="-450" rx="818.55" ry="18"/>
<text text-anchor="middle" x="7419.92" y="-444.95" font-family="Times New Roman,serif" font-size="14.00">Bloated Corpse of a Drunk: 不，哈里。你只是在自言自语。你一直都是这么做的。甚至在梦里也是一样。演出逐渐消失，迪斯科彩球的斑点也从你周围渐渐褪去……</text>
</g>
<!-- 33&#45;&gt;51 -->
<g id="edge44" class="edge">
<title>33&#45;&gt;51</title>
<path fill="none" stroke="black" d="M7558.16,-505.98C7533.73,-496.27 7501.53,-483.46 7474.35,-472.65"/>
<polygon fill="black" stroke="black" points="7475.82,-469.46 7465.23,-469.02 7473.23,-475.97 7475.82,-469.46"/>
</g>
<!-- 52 -->
<g id="node53" class="node">
<title>52</title>
<ellipse fill="none" stroke="black" cx="4503.92" cy="-450" rx="594.89" ry="18"/>
<text text-anchor="middle" x="4503.92" y="-444.95" font-family="Times New Roman,serif" font-size="14.00">Bloated Corpse of a Drunk: 不，你没有。你只是在说梦话。这出戏逐渐消失，迪斯科彩球的斑点也从你周围渐渐褪去……</text>
</g>
<!-- 34&#45;&gt;52 -->
<g id="edge45" class="edge">
<title>34&#45;&gt;52</title>
<path fill="none" stroke="black" d="M4575.35,-504.76C4563.69,-495.99 4549.07,-484.98 4536.09,-475.21"/>
<polygon fill="black" stroke="black" points="4538.3,-472.5 4528.21,-469.28 4534.09,-478.09 4538.3,-472.5"/>
</g>
<!-- 35&#45;&gt;18 -->
<g id="edge46" class="edge">
<title>35&#45;&gt;18</title>
<path fill="none" stroke="black" d="M1762.92,-1098.5C1762.92,-1091.21 1762.92,-1082.53 1762.92,-1074.34"/>
<polygon fill="black" stroke="black" points="1766.42,-1074.42 1762.92,-1064.42 1759.42,-1074.42 1766.42,-1074.42"/>
</g>
<!-- 36&#45;&gt;7 -->
<g id="edge48" class="edge">
<title>36&#45;&gt;7</title>
<path fill="none" stroke="black" d="M2226.95,-576.28C2129.96,-564.26 2000.73,-548.25 1909.34,-536.93"/>
<polygon fill="black" stroke="black" points="1909.96,-533.48 1899.6,-535.72 1909.1,-540.42 1909.96,-533.48"/>
</g>
<!-- 43 -->
<g id="node44" class="node">
<title>43</title>
<ellipse fill="none" stroke="black" cx="4136.92" cy="-522" rx="102.02" ry="18"/>
<text text-anchor="middle" x="4136.92" y="-516.95" font-family="Times New Roman,serif" font-size="14.00">You: 我不想回去。</text>
</g>
<!-- 36&#45;&gt;43 -->
<g id="edge47" class="edge">
<title>36&#45;&gt;43</title>
<path fill="none" stroke="black" d="M2738.07,-582.46C3041.52,-573.3 3479.32,-558.58 3861.92,-540 3918,-537.28 3980.46,-533.48 4031.67,-530.16"/>
<polygon fill="black" stroke="black" points="4031.82,-533.66 4041.58,-529.52 4031.37,-526.67 4031.82,-533.66"/>
</g>
<!-- 37&#45;&gt;10 -->
<g id="edge49" class="edge">
<title>37&#45;&gt;10</title>
<path fill="none" stroke="black" d="M3235.99,-359.85C3234.74,-339.3 3236.29,-305.45 3256.92,-288 3295.51,-255.36 3955.35,-241.91 4286.9,-237.19"/>
<polygon fill="black" stroke="black" points="4286.61,-240.7 4296.56,-237.06 4286.51,-233.7 4286.61,-240.7"/>
</g>
<!-- 38&#45;&gt;39 -->
<g id="edge50" class="edge">
<title>38&#45;&gt;39</title>
<path fill="none" stroke="black" d="M734.28,-775.23C745.28,-796.07 766.69,-830.2 795.92,-846.8 941.06,-929.22 1436.38,-958.83 1656.27,-968.09"/>
<polygon fill="black" stroke="black" points="1655.84,-971.58 1665.97,-968.49 1656.13,-964.58 1655.84,-971.58"/>
</g>
<!-- 39&#45;&gt;24 -->
<g id="edge51" class="edge">
<title>39&#45;&gt;24</title>
<path fill="none" stroke="black" d="M1791.6,-955.21C1808.38,-945.5 1829.74,-933.15 1847.68,-922.77"/>
<polygon fill="black" stroke="black" points="1849.3,-925.87 1856.21,-917.83 1845.8,-919.81 1849.3,-925.87"/>
</g>
<!-- 40&#45;&gt;50 -->
<g id="edge52" class="edge">
<title>40&#45;&gt;50</title>
<path fill="none" stroke="black" d="M6066.58,-612.44C6016.55,-636.65 5938.92,-685.53 5938.92,-755.8 5938.92,-1117.8 5938.92,-1117.8 5938.92,-1117.8 5938.92,-1204.6 3603.67,-1240.99 2425.78,-1253.82"/>
<polygon fill="black" stroke="black" points="2426.03,-1250.32 2416.07,-1253.93 2426.11,-1257.32 2426.03,-1250.32"/>
</g>
<!-- 41&#45;&gt;16 -->
<g id="edge53" class="edge">
<title>41&#45;&gt;16</title>
<path fill="none" stroke="black" d="M4540.92,-1386.5C4540.92,-1379.21 4540.92,-1370.53 4540.92,-1362.34"/>
<polygon fill="black" stroke="black" points="4544.42,-1362.42 4540.92,-1352.42 4537.42,-1362.42 4544.42,-1362.42"/>
</g>
<!-- 42&#45;&gt;1 -->
<g id="edge55" class="edge">
<title>42&#45;&gt;1</title>
<path fill="none" stroke="black" d="M4642.83,-1711.08C4643.59,-1718.4 4643.83,-1727.14 4643.56,-1735.38"/>
<polygon fill="black" stroke="black" points="4640.07,-1735.13 4642.9,-1745.35 4647.06,-1735.6 4640.07,-1735.13"/>
</g>
<!-- 42&#45;&gt;8 -->
<g id="edge54" class="edge">
<title>42&#45;&gt;8</title>
<path fill="none" stroke="black" d="M4653.97,-1674.44C4682.41,-1643.34 4733.27,-1577.06 4699.92,-1530.8 4688.2,-1514.54 4671.28,-1503.2 4652.81,-1495.3"/>
<polygon fill="black" stroke="black" points="4654.1,-1492.04 4643.51,-1491.69 4651.56,-1498.57 4654.1,-1492.04"/>
</g>
<!-- 42&#45;&gt;23 -->
<g id="edge56" class="edge">
<title>42&#45;&gt;23</title>
<path fill="none" stroke="black" d="M4613.19,-1674.5C4601.13,-1665.7 4586.29,-1654.88 4573.2,-1645.34"/>
<polygon fill="black" stroke="black" points="4575.41,-1642.62 4565.27,-1639.56 4571.29,-1648.28 4575.41,-1642.62"/>
</g>
<!-- 45 -->
<g id="node46" class="node">
<title>45</title>
<ellipse fill="none" stroke="black" cx="5849.92" cy="-450" rx="733.59" ry="18"/>
<text text-anchor="middle" x="5849.92" y="-444.95" font-family="Times New Roman,serif" font-size="14.00">Bloated Corpse of a Drunk: 它们只会束缚着你，*坠入深渊*。现在它们都走了。走远了，再也不会回来——全都不复归来。你失败了。你辜负了我。</text>
</g>
<!-- 43&#45;&gt;45 -->
<g id="edge57" class="edge">
<title>43&#45;&gt;45</title>
<path fill="none" stroke="black" d="M4216.4,-510.41C4237.35,-507.95 4259.96,-505.59 4280.92,-504 4478.42,-489.03 4957.41,-473.98 5334.59,-463.76"/>
<polygon fill="black" stroke="black" points="5334.58,-467.26 5344.49,-463.49 5334.39,-460.26 5334.58,-467.26"/>
</g>
<!-- 44&#45;&gt;36 -->
<g id="edge58" class="edge">
<title>44&#45;&gt;36</title>
<path fill="none" stroke="black" d="M1529.16,-740.8C1333.55,-731.82 1142.12,-718.99 1126.92,-702.8 1110.25,-685.04 1110.07,-665.59 1126.92,-648 1154.17,-619.56 1556.44,-606.31 1894.58,-600.18"/>
<polygon fill="black" stroke="black" points="1894.63,-603.68 1904.56,-600 1894.5,-596.68 1894.63,-603.68"/>
</g>
<!-- 45&#45;&gt;16 -->
<g id="edge59" class="edge">
<title>45&#45;&gt;16</title>
<path fill="none" stroke="black" d="M6366.5,-463.11C6699.79,-477.37 7099.13,-508.42 7254.92,-576 7265.32,-580.51 7273.92,-581.67 7273.92,-593 7273.92,-1189.8 7273.92,-1189.8 7273.92,-1189.8 7273.92,-1278.01 6354.03,-1311.66 5581.62,-1324.37"/>
<polygon fill="black" stroke="black" points="5581.71,-1320.87 5571.77,-1324.53 5581.82,-1327.87 5581.71,-1320.87"/>
</g>
<!-- 48 -->
<g id="node49" class="node">
<title>48</title>
<ellipse fill="none" stroke="black" cx="4724.92" cy="-18" rx="92.81" ry="18"/>
<text text-anchor="middle" x="4724.92" y="-12.95" font-family="Times New Roman,serif" font-size="14.00">Limbic System: ……</text>
</g>
<!-- 46&#45;&gt;48 -->
<g id="edge60" class="edge">
<title>46&#45;&gt;48</title>
<path fill="none" stroke="black" d="M4724.92,-71.7C4724.92,-64.41 4724.92,-55.73 4724.92,-47.54"/>
<polygon fill="black" stroke="black" points="4728.42,-47.62 4724.92,-37.62 4721.42,-47.62 4728.42,-47.62"/>
</g>
<!-- 47&#45;&gt;24 -->
<g id="edge61" class="edge">
<title>47&#45;&gt;24</title>
<path fill="none" stroke="black" d="M1065.64,-612.38C1057.97,-648.09 1046.42,-730.1 1088.92,-774.8 1188.01,-879.04 1641.88,-896.46 1815.82,-899.29"/>
<polygon fill="black" stroke="black" points="1815.54,-902.79 1825.59,-899.44 1815.65,-895.79 1815.54,-902.79"/>
</g>
<!-- 49&#45;&gt;50 -->
<g id="edge62" class="edge">
<title>49&#45;&gt;50</title>
<path fill="none" stroke="black" d="M929.05,-468.18C693.8,-490.43 343.92,-533.51 343.92,-593 343.92,-1117.8 343.92,-1117.8 343.92,-1117.8 343.92,-1203.19 755.98,-1237.78 1136,-1251.53"/>
<polygon fill="black" stroke="black" points="1135.6,-1255.02 1145.72,-1251.88 1135.85,-1248.03 1135.6,-1255.02"/>
</g>
<!-- 50&#45;&gt;3 -->
<g id="edge64" class="edge">
<title>50&#45;&gt;3</title>
<path fill="none" stroke="black" d="M1762.92,-1242.5C1762.92,-1235.21 1762.92,-1226.53 1762.92,-1218.34"/>
<polygon fill="black" stroke="black" points="1766.42,-1218.42 1762.92,-1208.42 1759.42,-1218.42 1766.42,-1218.42"/>
</g>
<!-- 50&#45;&gt;9 -->
<g id="edge63" class="edge">
<title>50&#45;&gt;9</title>
<path fill="none" stroke="black" d="M1614.08,-1242.74C1362.87,-1213.95 860.23,-1156.35 636.18,-1130.67"/>
<polygon fill="black" stroke="black" points="636.59,-1127.19 626.25,-1129.53 635.79,-1134.15 636.59,-1127.19"/>
</g>
<!-- 51&#45;&gt;22 -->
<g id="edge65" class="edge">
<title>51&#45;&gt;22</title>
<path fill="none" stroke="black" d="M6927.89,-435.21C6433.2,-421.35 5684.14,-400.36 5255.12,-388.34"/>
<polygon fill="black" stroke="black" points="5255.39,-384.84 5245.29,-388.06 5255.19,-391.84 5255.39,-384.84"/>
</g>
<!-- 52&#45;&gt;22 -->
<g id="edge66" class="edge">
<title>52&#45;&gt;22</title>
<path fill="none" stroke="black" d="M4606.71,-431.79C4668.39,-421.46 4746.89,-408.31 4810.12,-397.72"/>
<polygon fill="black" stroke="black" points="4810.56,-401.2 4819.84,-396.09 4809.4,-394.29 4810.56,-401.2"/>
</g>
</g>
</svg>
