<?xml version="1.0" encoding="UTF-8" standalone="no"?>
<!DOCTYPE svg PUBLIC "-//W3C//DTD SVG 1.1//EN"
 "http://www.w3.org/Graphics/SVG/1.1/DTD/svg11.dtd">
<!-- Generated by graphviz version 12.2.1 (20241206.2353)
 -->
<!-- Title: G Pages: 1 -->
<svg width="486pt" height="188pt"
 viewBox="0.00 0.00 486.37 188.00" xmlns="http://www.w3.org/2000/svg" xmlns:xlink="http://www.w3.org/1999/xlink">
<g id="graph0" class="graph" transform="scale(1 1) rotate(0) translate(4 184)">
<title>G</title>
<polygon fill="white" stroke="none" points="-4,4 -4,-184 482.37,-184 482.37,4 -4,4"/>
<!-- 0 -->
<g id="node1" class="node">
<title>0</title>
<ellipse fill="none" stroke="black" cx="239.18" cy="-162" rx="39.07" ry="18"/>
<text text-anchor="middle" x="239.18" y="-156.95" font-family="Times New Roman,serif" font-size="14.00">START</text>
</g>
<!-- 1 -->
<g id="node2" class="node">
<title>1</title>
<ellipse fill="none" stroke="black" cx="239.18" cy="-90" rx="29.86" ry="18"/>
<text text-anchor="middle" x="239.18" y="-84.95" font-family="Times New Roman,serif" font-size="14.00">input</text>
</g>
<!-- 0&#45;&gt;1 -->
<g id="edge1" class="edge">
<title>0&#45;&gt;1</title>
<path fill="none" stroke="black" d="M239.18,-143.7C239.18,-136.41 239.18,-127.73 239.18,-119.54"/>
<polygon fill="black" stroke="black" points="242.69,-119.62 239.19,-109.62 235.69,-119.62 242.69,-119.62"/>
</g>
<!-- 3 -->
<g id="node3" class="node">
<title>3</title>
<ellipse fill="none" stroke="black" cx="239.18" cy="-18" rx="239.18" ry="18"/>
<text text-anchor="middle" x="239.18" y="-12.95" font-family="Times New Roman,serif" font-size="14.00">Door, Room #2: 门上锁了。曷城警督住在里面。</text>
</g>
<!-- 1&#45;&gt;3 -->
<g id="edge2" class="edge">
<title>1&#45;&gt;3</title>
<path fill="none" stroke="black" d="M239.18,-71.7C239.18,-64.41 239.18,-55.73 239.18,-47.54"/>
<polygon fill="black" stroke="black" points="242.69,-47.62 239.19,-37.62 235.69,-47.62 242.69,-47.62"/>
</g>
</g>
</svg>
