<?xml version="1.0" encoding="UTF-8" standalone="no"?>
<!DOCTYPE svg PUBLIC "-//W3C//DTD SVG 1.1//EN"
 "http://www.w3.org/Graphics/SVG/1.1/DTD/svg11.dtd">
<!-- Generated by graphviz version 12.2.1 (20241206.2353)
 -->
<!-- Title: G Pages: 1 -->
<svg width="4314pt" height="620pt"
 viewBox="0.00 0.00 4314.46 620.00" xmlns="http://www.w3.org/2000/svg" xmlns:xlink="http://www.w3.org/1999/xlink">
<g id="graph0" class="graph" transform="scale(1 1) rotate(0) translate(4 616)">
<title>G</title>
<polygon fill="white" stroke="none" points="-4,4 -4,-616 4310.46,-616 4310.46,4 -4,4"/>
<!-- 0 -->
<g id="node1" class="node">
<title>0</title>
<ellipse fill="none" stroke="black" cx="930.96" cy="-594" rx="39.07" ry="18"/>
<text text-anchor="middle" x="930.96" y="-588.95" font-family="Times New Roman,serif" font-size="14.00">START</text>
</g>
<!-- 0&#45;&gt;0 -->
<g id="edge1" class="edge">
<title>0&#45;&gt;0</title>
<path fill="none" stroke="black" d="M959.15,-606.94C974.26,-609.14 988.03,-604.83 988.03,-594 988.03,-585.96 980.45,-581.52 970.36,-580.65"/>
<polygon fill="black" stroke="black" points="970.53,-577.15 960.66,-581 970.78,-584.14 970.53,-577.15"/>
</g>
<!-- 1 -->
<g id="node2" class="node">
<title>1</title>
<ellipse fill="none" stroke="black" cx="1570.96" cy="-306" rx="29.86" ry="18"/>
<text text-anchor="middle" x="1570.96" y="-300.95" font-family="Times New Roman,serif" font-size="14.00">input</text>
</g>
<!-- 3 -->
<g id="node4" class="node">
<title>3</title>
<ellipse fill="none" stroke="black" cx="1570.96" cy="-234" rx="131.71" ry="18"/>
<text text-anchor="middle" x="1570.96" y="-228.95" font-family="Times New Roman,serif" font-size="14.00">You: 解封这扇门。[离开]</text>
</g>
<!-- 1&#45;&gt;3 -->
<g id="edge2" class="edge">
<title>1&#45;&gt;3</title>
<path fill="none" stroke="black" d="M1570.96,-287.7C1570.96,-280.41 1570.96,-271.73 1570.96,-263.54"/>
<polygon fill="black" stroke="black" points="1574.46,-263.62 1570.96,-253.62 1567.46,-263.62 1574.46,-263.62"/>
</g>
<!-- 2 -->
<g id="node3" class="node">
<title>2</title>
<ellipse fill="none" stroke="black" cx="3060.96" cy="-450" rx="309.81" ry="18"/>
<text text-anchor="middle" x="3060.96" y="-444.95" font-family="Times New Roman,serif" font-size="14.00">Barred Door: 你之前见过一扇被封住的门，这就是它的内侧。</text>
</g>
<!-- 7 -->
<g id="node8" class="node">
<title>7</title>
<ellipse fill="none" stroke="black" cx="3658.96" cy="-378" rx="630.72" ry="18"/>
<text text-anchor="middle" x="3658.96" y="-372.95" font-family="Times New Roman,serif" font-size="14.00">Conceptualization: 折叠M维度，出自流行的科幻小说系列*系统之内*。看看，有人突然心情变好了（而且还会看科幻小说。）</text>
</g>
<!-- 2&#45;&gt;7 -->
<g id="edge3" class="edge">
<title>2&#45;&gt;7</title>
<path fill="none" stroke="black" d="M3194.79,-433.33C3285.95,-422.66 3406.96,-408.5 3502.56,-397.31"/>
<polygon fill="black" stroke="black" points="3502.77,-400.81 3512.29,-396.17 3501.95,-393.86 3502.77,-400.81"/>
</g>
<!-- 4 -->
<g id="node5" class="node">
<title>4</title>
<ellipse fill="none" stroke="black" cx="1193.96" cy="-594" rx="187.49" ry="18"/>
<text text-anchor="middle" x="1193.96" y="-588.95" font-family="Times New Roman,serif" font-size="14.00">Variable[&quot;whirling.barreddoor_greeting_done&quot;]</text>
</g>
<!-- 4&#45;&gt;4 -->
<g id="edge4" class="edge">
<title>4&#45;&gt;4</title>
<path fill="none" stroke="black" d="M1322.4,-607.5C1365.21,-607.5 1399.46,-603 1399.46,-594 1399.46,-585.81 1371.08,-581.34 1333.71,-580.61"/>
<polygon fill="black" stroke="black" points="1333.94,-577.11 1323.91,-580.51 1333.87,-584.11 1333.94,-577.11"/>
</g>
<!-- 5 -->
<g id="node6" class="node">
<title>5</title>
<polygon fill="none" stroke="black" points="1193.96,-540 928.81,-522 1193.96,-504 1459.12,-522 1193.96,-540"/>
<text text-anchor="middle" x="1193.96" y="-516.95" font-family="Times New Roman,serif" font-size="14.00">Variable[&quot;whirling.barreddoor_greeting_done&quot;]</text>
</g>
<!-- 4&#45;&gt;5 -->
<g id="edge5" class="edge">
<title>4&#45;&gt;5</title>
<path fill="none" stroke="black" d="M1193.96,-575.7C1193.96,-568.41 1193.96,-559.73 1193.96,-551.54"/>
<polygon fill="black" stroke="black" points="1197.46,-551.62 1193.96,-541.62 1190.46,-551.62 1197.46,-551.62"/>
</g>
<!-- 22 -->
<g id="node23" class="node">
<title>22</title>
<ellipse fill="none" stroke="black" cx="1193.96" cy="-450" rx="255.56" ry="18"/>
<text text-anchor="middle" x="1193.96" y="-444.95" font-family="Times New Roman,serif" font-size="14.00">Variable[&quot;whirling.barreddoor_physinst_kick_in_success_failed&quot;]</text>
</g>
<!-- 5&#45;&gt;22 -->
<g id="edge6" class="edge">
<title>5&#45;&gt;22</title>
<path fill="none" stroke="black" d="M1193.96,-503.7C1193.96,-496.41 1193.96,-487.73 1193.96,-479.54"/>
<polygon fill="black" stroke="black" points="1197.46,-479.62 1193.96,-469.62 1190.46,-479.62 1197.46,-479.62"/>
</g>
<!-- 6 -->
<g id="node7" class="node">
<title>6</title>
<polygon fill="none" stroke="black" points="816.96,-252 538.78,-234 816.96,-216 1095.15,-234 816.96,-252"/>
<text text-anchor="middle" x="816.96" y="-228.95" font-family="Times New Roman,serif" font-size="14.00">!(Variable[&quot;whirling.barreddoor_greeting_done&quot;])</text>
</g>
<!-- 9 -->
<g id="node10" class="node">
<title>9</title>
<ellipse fill="none" stroke="black" cx="574.96" cy="-162" rx="219.74" ry="18"/>
<text text-anchor="middle" x="574.96" y="-156.95" font-family="Times New Roman,serif" font-size="14.00">You: 再轻轻地给门来上一拳，以防万一。</text>
</g>
<!-- 6&#45;&gt;9 -->
<g id="edge7" class="edge">
<title>6&#45;&gt;9</title>
<path fill="none" stroke="black" d="M767.7,-218.75C732.08,-208.45 683.47,-194.39 643.98,-182.96"/>
<polygon fill="black" stroke="black" points="645.14,-179.66 634.56,-180.24 643.19,-186.38 645.14,-179.66"/>
</g>
<!-- 14 -->
<g id="node15" class="node">
<title>14</title>
<ellipse fill="none" stroke="black" cx="3403.96" cy="-306" rx="227.41" ry="18"/>
<text text-anchor="middle" x="3403.96" y="-300.95" font-family="Times New Roman,serif" font-size="14.00">Barred Door: 门震动了一下，像是在嘲笑你。</text>
</g>
<!-- 7&#45;&gt;14 -->
<g id="edge8" class="edge">
<title>7&#45;&gt;14</title>
<path fill="none" stroke="black" d="M3595.6,-359.61C3559.22,-349.62 3513.42,-337.05 3475.71,-326.7"/>
<polygon fill="black" stroke="black" points="3476.83,-323.37 3466.26,-324.1 3474.98,-330.12 3476.83,-323.37"/>
</g>
<!-- 8 -->
<g id="node9" class="node">
<title>8</title>
<ellipse fill="none" stroke="black" cx="2533.96" cy="-522" rx="87.18" ry="18"/>
<text text-anchor="middle" x="2533.96" y="-516.95" font-family="Times New Roman,serif" font-size="14.00">barreddoorinsidehub</text>
</g>
<!-- 8&#45;&gt;2 -->
<g id="edge11" class="edge">
<title>8&#45;&gt;2</title>
<path fill="none" stroke="black" d="M2605.86,-511.45C2688.73,-500.44 2826.64,-482.12 2928.97,-468.53"/>
<polygon fill="black" stroke="black" points="2929.37,-472.01 2938.83,-467.22 2928.45,-465.07 2929.37,-472.01"/>
</g>
<!-- 8&#45;&gt;8 -->
<g id="edge9" class="edge">
<title>8&#45;&gt;8</title>
<path fill="none" stroke="black" d="M2594.23,-535.41C2618.62,-536.21 2639.14,-531.74 2639.14,-522 2639.14,-513.82 2624.66,-509.36 2605.58,-508.61"/>
<polygon fill="black" stroke="black" points="2605.75,-505.11 2595.74,-508.59 2605.73,-512.11 2605.75,-505.11"/>
</g>
<!-- 15 -->
<g id="node16" class="node">
<title>15</title>
<ellipse fill="none" stroke="black" cx="2486.96" cy="-378" rx="523.24" ry="18"/>
<text text-anchor="middle" x="2486.96" y="-372.95" font-family="Times New Roman,serif" font-size="14.00">Inland Empire: 是的。我们*确实*有可能会重新出现在M平原上。准备迎接灵力冲击。（或者是屋顶。）</text>
</g>
<!-- 8&#45;&gt;15 -->
<g id="edge12" class="edge">
<title>8&#45;&gt;15</title>
<path fill="none" stroke="black" d="M2531.69,-503.55C2528.98,-485.31 2523.7,-456.06 2514.96,-432 2511.8,-423.29 2507.46,-414.24 2503.13,-406.12"/>
<polygon fill="black" stroke="black" points="2506.21,-404.47 2498.29,-397.43 2500.1,-407.87 2506.21,-404.47"/>
</g>
<!-- 16 -->
<g id="node17" class="node">
<title>16</title>
<ellipse fill="none" stroke="black" cx="2291.96" cy="-450" rx="214.11" ry="18"/>
<text text-anchor="middle" x="2291.96" y="-444.95" font-family="Times New Roman,serif" font-size="14.00">You: 让门继续保持封住的状态。[离开。]</text>
</g>
<!-- 8&#45;&gt;16 -->
<g id="edge10" class="edge">
<title>8&#45;&gt;16</title>
<path fill="none" stroke="black" d="M2484.7,-506.75C2448.95,-496.41 2400.13,-482.29 2360.56,-470.84"/>
<polygon fill="black" stroke="black" points="2361.7,-467.53 2351.12,-468.11 2359.76,-474.25 2361.7,-467.53"/>
</g>
<!-- 13 -->
<g id="node14" class="node">
<title>13</title>
<polygon fill="none" stroke="black" points="456.96,-108 0,-90 456.96,-72 913.93,-90 456.96,-108"/>
<text text-anchor="middle" x="456.96" y="-84.95" font-family="Times New Roman,serif" font-size="14.00">!(Variable[&quot;TASK.arrest_klaasje_done&quot;] &#160;or &#160;Variable[&quot;TASK.enter_cavern_done&quot;])</text>
</g>
<!-- 9&#45;&gt;13 -->
<g id="edge13" class="edge">
<title>9&#45;&gt;13</title>
<path fill="none" stroke="black" d="M545.79,-143.7C530.16,-134.42 510.74,-122.9 494.04,-113"/>
<polygon fill="black" stroke="black" points="496.27,-110.25 485.88,-108.16 492.7,-116.27 496.27,-110.25"/>
</g>
<!-- 10 -->
<g id="node11" class="node">
<title>10</title>
<ellipse fill="none" stroke="black" cx="3530.96" cy="-162" rx="309.81" ry="18"/>
<text text-anchor="middle" x="3530.96" y="-156.95" font-family="Times New Roman,serif" font-size="14.00">Barred Door: 这扇门很小，但看起来很沉。它从里面挡住了。</text>
</g>
<!-- 10&#45;&gt;7 -->
<g id="edge14" class="edge">
<title>10&#45;&gt;7</title>
<path fill="none" stroke="black" d="M3551.31,-180.24C3576.22,-202.5 3617.81,-243.71 3639.96,-288 3649.42,-306.92 3654.19,-330.39 3656.58,-348.48"/>
<polygon fill="black" stroke="black" points="3653.08,-348.71 3657.68,-358.25 3660.04,-347.92 3653.08,-348.71"/>
</g>
<!-- 11 -->
<g id="node12" class="node">
<title>11</title>
<ellipse fill="none" stroke="black" cx="3610.96" cy="-594" rx="313.91" ry="18"/>
<text text-anchor="middle" x="3610.96" y="-588.95" font-family="Times New Roman,serif" font-size="14.00">Variable[&quot;TASK.arrest_klaasje_done&quot;] &#160;or &#160;Variable[&quot;TASK.enter_cavern_done&quot;]</text>
</g>
<!-- 11&#45;&gt;11 -->
<g id="edge15" class="edge">
<title>11&#45;&gt;11</title>
<path fill="none" stroke="black" d="M3826.04,-607.48C3891.58,-607.16 3942.87,-602.67 3942.87,-594 3942.87,-585.84 3897.42,-581.38 3837.41,-580.62"/>
<polygon fill="black" stroke="black" points="3837.59,-577.12 3827.56,-580.53 3837.53,-584.12 3837.59,-577.12"/>
</g>
<!-- 12 -->
<g id="node13" class="node">
<title>12</title>
<polygon fill="none" stroke="black" points="3610.96,-540 3167.03,-522 3610.96,-504 4054.9,-522 3610.96,-540"/>
<text text-anchor="middle" x="3610.96" y="-516.95" font-family="Times New Roman,serif" font-size="14.00">Variable[&quot;TASK.arrest_klaasje_done&quot;] &#160;or &#160;Variable[&quot;TASK.enter_cavern_done&quot;]</text>
</g>
<!-- 11&#45;&gt;12 -->
<g id="edge16" class="edge">
<title>11&#45;&gt;12</title>
<path fill="none" stroke="black" d="M3610.96,-575.7C3610.96,-568.41 3610.96,-559.73 3610.96,-551.54"/>
<polygon fill="black" stroke="black" points="3614.46,-551.62 3610.96,-541.62 3607.46,-551.62 3614.46,-551.62"/>
</g>
<!-- 18 -->
<g id="node19" class="node">
<title>18</title>
<ellipse fill="none" stroke="black" cx="3610.96" cy="-450" rx="128.63" ry="18"/>
<text text-anchor="middle" x="3610.96" y="-444.95" font-family="Times New Roman,serif" font-size="14.00">Jump to: [barreddoorinsidehub]</text>
</g>
<!-- 12&#45;&gt;18 -->
<g id="edge17" class="edge">
<title>12&#45;&gt;18</title>
<path fill="none" stroke="black" d="M3610.96,-503.7C3610.96,-496.41 3610.96,-487.73 3610.96,-479.54"/>
<polygon fill="black" stroke="black" points="3614.46,-479.62 3610.96,-469.62 3607.46,-479.62 3614.46,-479.62"/>
</g>
<!-- 19 -->
<g id="node20" class="node">
<title>19</title>
<ellipse fill="none" stroke="black" cx="698.96" cy="-18" rx="357.41" ry="18"/>
<text text-anchor="middle" x="698.96" y="-12.95" font-family="Times New Roman,serif" font-size="14.00">Kim Kitsuragi: “除非我们能转变成折叠M维度，我希望出去就是屋顶。”</text>
</g>
<!-- 13&#45;&gt;19 -->
<g id="edge18" class="edge">
<title>13&#45;&gt;19</title>
<path fill="none" stroke="black" d="M510.07,-73.64C544.9,-63.57 590.81,-50.28 628.65,-39.34"/>
<polygon fill="black" stroke="black" points="629.52,-42.73 638.15,-36.59 627.57,-36.01 629.52,-42.73"/>
</g>
<!-- 17 -->
<g id="node18" class="node">
<title>17</title>
<ellipse fill="none" stroke="black" cx="3403.96" cy="-234" rx="157.3" ry="18"/>
<text text-anchor="middle" x="3403.96" y="-228.95" font-family="Times New Roman,serif" font-size="14.00">You: “所以另一边有什么呢？”</text>
</g>
<!-- 14&#45;&gt;17 -->
<g id="edge19" class="edge">
<title>14&#45;&gt;17</title>
<path fill="none" stroke="black" d="M3403.96,-287.7C3403.96,-280.41 3403.96,-271.73 3403.96,-263.54"/>
<polygon fill="black" stroke="black" points="3407.46,-263.62 3403.96,-253.62 3400.46,-263.62 3407.46,-263.62"/>
</g>
<!-- 15&#45;&gt;17 -->
<g id="edge20" class="edge">
<title>15&#45;&gt;17</title>
<path fill="none" stroke="black" d="M2597.12,-359.94C2776.28,-332.2 3128.22,-277.7 3301.97,-250.79"/>
<polygon fill="black" stroke="black" points="3302.31,-254.28 3311.65,-249.29 3301.24,-247.37 3302.31,-254.28"/>
</g>
<!-- 17&#45;&gt;10 -->
<g id="edge21" class="edge">
<title>17&#45;&gt;10</title>
<path fill="none" stroke="black" d="M3435.03,-215.88C3451.64,-206.72 3472.29,-195.34 3490.17,-185.48"/>
<polygon fill="black" stroke="black" points="3491.38,-188.81 3498.45,-180.92 3488,-182.68 3491.38,-188.81"/>
</g>
<!-- 18&#45;&gt;7 -->
<g id="edge22" class="edge">
<title>18&#45;&gt;7</title>
<path fill="none" stroke="black" d="M3622.83,-431.7C3628.23,-423.81 3634.75,-414.3 3640.76,-405.55"/>
<polygon fill="black" stroke="black" points="3643.61,-407.58 3646.38,-397.35 3637.84,-403.62 3643.61,-407.58"/>
</g>
<!-- 19&#45;&gt;6 -->
<g id="edge23" class="edge">
<title>19&#45;&gt;6</title>
<path fill="none" stroke="black" d="M826.63,-35.27C869.54,-43.56 909.88,-55.47 922.96,-72 960.1,-118.95 893.59,-178.89 850.14,-210.75"/>
<polygon fill="black" stroke="black" points="848.32,-207.75 842.23,-216.41 852.4,-213.44 848.32,-207.75"/>
</g>
<!-- 20 -->
<g id="node21" class="node">
<title>20</title>
<ellipse fill="none" stroke="black" cx="816.96" cy="-306" rx="647.61" ry="18"/>
<text text-anchor="middle" x="816.96" y="-300.95" font-family="Times New Roman,serif" font-size="14.00">Kim Kitsuragi: “除非我们能转变成折叠M维度，我希望出去就是屋顶——我们可以找卡拉洁问问这条路线，看看她有什么反应？”</text>
</g>
<!-- 20&#45;&gt;6 -->
<g id="edge24" class="edge">
<title>20&#45;&gt;6</title>
<path fill="none" stroke="black" d="M816.96,-287.7C816.96,-280.41 816.96,-271.73 816.96,-263.54"/>
<polygon fill="black" stroke="black" points="820.46,-263.62 816.96,-253.62 813.46,-263.62 820.46,-263.62"/>
</g>
<!-- 21 -->
<g id="node22" class="node">
<title>21</title>
<ellipse fill="none" stroke="black" cx="4031.96" cy="-450" rx="274.5" ry="18"/>
<text text-anchor="middle" x="4031.96" y="-444.95" font-family="Times New Roman,serif" font-size="14.00">Barred Door: 这就是你之前试图踹开的那扇封住的门。</text>
</g>
<!-- 21&#45;&gt;7 -->
<g id="edge25" class="edge">
<title>21&#45;&gt;7</title>
<path fill="none" stroke="black" d="M3944.04,-432.5C3889.52,-422.27 3819.23,-409.08 3762.09,-398.35"/>
<polygon fill="black" stroke="black" points="3762.81,-394.93 3752.33,-396.52 3761.52,-401.81 3762.81,-394.93"/>
</g>
<!-- 23 -->
<g id="node24" class="node">
<title>23</title>
<polygon fill="none" stroke="black" points="816.96,-396 455.54,-378 816.96,-360 1178.38,-378 816.96,-396"/>
<text text-anchor="middle" x="816.96" y="-372.95" font-family="Times New Roman,serif" font-size="14.00">Variable[&quot;whirling.barreddoor_physinst_kick_in_success_failed&quot;]</text>
</g>
<!-- 22&#45;&gt;23 -->
<g id="edge27" class="edge">
<title>22&#45;&gt;23</title>
<path fill="none" stroke="black" d="M1106.05,-432.68C1044.6,-421.27 962.98,-406.11 902.14,-394.82"/>
<polygon fill="black" stroke="black" points="902.99,-391.41 892.52,-393.03 901.72,-398.3 902.99,-391.41"/>
</g>
<!-- 24 -->
<g id="node25" class="node">
<title>24</title>
<polygon fill="none" stroke="black" points="1570.96,-396 1196.51,-378 1570.96,-360 1945.41,-378 1570.96,-396"/>
<text text-anchor="middle" x="1570.96" y="-372.95" font-family="Times New Roman,serif" font-size="14.00">!(Variable[&quot;whirling.barreddoor_physinst_kick_in_success_failed&quot;])</text>
</g>
<!-- 22&#45;&gt;24 -->
<g id="edge26" class="edge">
<title>22&#45;&gt;24</title>
<path fill="none" stroke="black" d="M1281.88,-432.68C1343.12,-421.3 1424.4,-406.21 1485.17,-394.93"/>
<polygon fill="black" stroke="black" points="1485.59,-398.41 1494.78,-393.14 1484.31,-391.53 1485.59,-398.41"/>
</g>
<!-- 23&#45;&gt;20 -->
<g id="edge28" class="edge">
<title>23&#45;&gt;20</title>
<path fill="none" stroke="black" d="M816.96,-359.7C816.96,-352.41 816.96,-343.73 816.96,-335.54"/>
<polygon fill="black" stroke="black" points="820.46,-335.62 816.96,-325.62 813.46,-335.62 820.46,-335.62"/>
</g>
<!-- 24&#45;&gt;1 -->
<g id="edge29" class="edge">
<title>24&#45;&gt;1</title>
<path fill="none" stroke="black" d="M1570.96,-359.7C1570.96,-352.41 1570.96,-343.73 1570.96,-335.54"/>
<polygon fill="black" stroke="black" points="1574.46,-335.62 1570.96,-325.62 1567.46,-335.62 1574.46,-335.62"/>
</g>
</g>
</svg>
