<?xml version="1.0" encoding="UTF-8" standalone="no"?>
<!DOCTYPE svg PUBLIC "-//W3C//DTD SVG 1.1//EN"
 "http://www.w3.org/Graphics/SVG/1.1/DTD/svg11.dtd">
<!-- Generated by graphviz version 12.2.1 (20241206.2353)
 -->
<!-- Title: G Pages: 1 -->
<svg width="7507pt" height="188pt"
 viewBox="0.00 0.00 7506.93 188.00" xmlns="http://www.w3.org/2000/svg" xmlns:xlink="http://www.w3.org/1999/xlink">
<g id="graph0" class="graph" transform="scale(1 1) rotate(0) translate(4 184)">
<title>G</title>
<polygon fill="white" stroke="none" points="-4,4 -4,-184 7502.93,-184 7502.93,4 -4,4"/>
<!-- 0 -->
<g id="node1" class="node">
<title>0</title>
<ellipse fill="none" stroke="black" cx="3921.93" cy="-162" rx="39.07" ry="18"/>
<text text-anchor="middle" x="3921.93" y="-156.95" font-family="Times New Roman,serif" font-size="14.00">START</text>
</g>
<!-- 1 -->
<g id="node2" class="node">
<title>1</title>
<ellipse fill="none" stroke="black" cx="3921.93" cy="-90" rx="29.86" ry="18"/>
<text text-anchor="middle" x="3921.93" y="-84.95" font-family="Times New Roman,serif" font-size="14.00">input</text>
</g>
<!-- 0&#45;&gt;1 -->
<g id="edge1" class="edge">
<title>0&#45;&gt;1</title>
<path fill="none" stroke="black" d="M3921.93,-143.7C3921.93,-136.41 3921.93,-127.73 3921.93,-119.54"/>
<polygon fill="black" stroke="black" points="3925.43,-119.62 3921.93,-109.62 3918.43,-119.62 3925.43,-119.62"/>
</g>
<!-- 2 -->
<g id="node3" class="node">
<title>2</title>
<ellipse fill="none" stroke="black" cx="184.93" cy="-18" rx="184.93" ry="18"/>
<text text-anchor="middle" x="184.93" y="-12.95" font-family="Times New Roman,serif" font-size="14.00">Moneyman: “你要通过花钱来赚钱。”</text>
</g>
<!-- 1&#45;&gt;2 -->
<g id="edge2" class="edge">
<title>1&#45;&gt;2</title>
<path fill="none" stroke="black" d="M3891.73,-88.85C3590.2,-87.33 1116.94,-73.81 378.93,-36 360.88,-35.08 341.91,-33.8 323.19,-32.35"/>
<polygon fill="black" stroke="black" points="323.65,-28.87 313.4,-31.57 323.09,-35.85 323.65,-28.87"/>
</g>
<!-- 3 -->
<g id="node4" class="node">
<title>3</title>
<ellipse fill="none" stroke="black" cx="591.93" cy="-18" rx="204.38" ry="18"/>
<text text-anchor="middle" x="591.93" y="-12.95" font-family="Times New Roman,serif" font-size="14.00">Moneyman: “他们说金钱买不来欢乐……”</text>
</g>
<!-- 1&#45;&gt;3 -->
<g id="edge3" class="edge">
<title>1&#45;&gt;3</title>
<path fill="none" stroke="black" d="M3891.95,-88.75C3612.01,-86.38 1451.62,-67.27 804.93,-36 785.08,-35.04 764.21,-33.74 743.61,-32.28"/>
<polygon fill="black" stroke="black" points="743.94,-28.79 733.72,-31.56 743.44,-35.77 743.94,-28.79"/>
</g>
<!-- 4 -->
<g id="node5" class="node">
<title>4</title>
<ellipse fill="none" stroke="black" cx="1210.93" cy="-18" rx="396.82" ry="18"/>
<text text-anchor="middle" x="1210.93" y="-12.95" font-family="Times New Roman,serif" font-size="14.00">Moneyman: “这样一来，当你老得赚不动新钱的时候，也能有足够的钱花了。”</text>
</g>
<!-- 1&#45;&gt;4 -->
<g id="edge4" class="edge">
<title>1&#45;&gt;4</title>
<path fill="none" stroke="black" d="M3891.71,-88.52C3692.63,-85.32 2548.59,-66.21 1616.93,-36 1578.75,-34.76 1538.55,-33.29 1498.9,-31.73"/>
<polygon fill="black" stroke="black" points="1499.09,-28.24 1488.96,-31.34 1498.82,-35.23 1499.09,-28.24"/>
</g>
<!-- 5 -->
<g id="node6" class="node">
<title>5</title>
<ellipse fill="none" stroke="black" cx="1857.93" cy="-18" rx="232.02" ry="18"/>
<text text-anchor="middle" x="1857.93" y="-12.95" font-family="Times New Roman,serif" font-size="14.00">Moneyman: “然后用那些股票去赚更多的钱。”</text>
</g>
<!-- 1&#45;&gt;5 -->
<g id="edge5" class="edge">
<title>1&#45;&gt;5</title>
<path fill="none" stroke="black" d="M3891.85,-88.59C3718.18,-86.14 2826.27,-72.21 2098.93,-36 2076.79,-34.9 2053.52,-33.53 2030.53,-32.04"/>
<polygon fill="black" stroke="black" points="2030.99,-28.57 2020.78,-31.41 2030.53,-35.55 2030.99,-28.57"/>
</g>
<!-- 6 -->
<g id="node7" class="node">
<title>6</title>
<ellipse fill="none" stroke="black" cx="2257.93" cy="-18" rx="149.62" ry="18"/>
<text text-anchor="middle" x="2257.93" y="-12.95" font-family="Times New Roman,serif" font-size="14.00">Moneyman: “金钱就是数字。”</text>
</g>
<!-- 1&#45;&gt;6 -->
<g id="edge6" class="edge">
<title>1&#45;&gt;6</title>
<path fill="none" stroke="black" d="M3891.68,-88.74C3735.99,-87.21 3009.58,-78.06 2416.93,-36 2402.81,-35 2388,-33.72 2373.35,-32.32"/>
<polygon fill="black" stroke="black" points="2373.98,-28.86 2363.69,-31.37 2373.3,-35.83 2373.98,-28.86"/>
</g>
<!-- 7 -->
<g id="node8" class="node">
<title>7</title>
<ellipse fill="none" stroke="black" cx="2657.93" cy="-18" rx="232.02" ry="18"/>
<text text-anchor="middle" x="2657.93" y="-12.95" font-family="Times New Roman,serif" font-size="14.00">Moneyman: “无偿劳动不会为你赚来一分钱。”</text>
</g>
<!-- 1&#45;&gt;7 -->
<g id="edge7" class="edge">
<title>1&#45;&gt;7</title>
<path fill="none" stroke="black" d="M3892.21,-87.66C3769.68,-82.11 3291.68,-60.02 2898.93,-36 2877.9,-34.71 2855.84,-33.28 2833.96,-31.8"/>
<polygon fill="black" stroke="black" points="2834.27,-28.31 2824.06,-31.13 2833.8,-35.3 2834.27,-28.31"/>
</g>
<!-- 8 -->
<g id="node9" class="node">
<title>8</title>
<ellipse fill="none" stroke="black" cx="3139.93" cy="-18" rx="232.02" ry="18"/>
<text text-anchor="middle" x="3139.93" y="-12.95" font-family="Times New Roman,serif" font-size="14.00">Moneyman: “根本就没有白给的钱这种东西。”</text>
</g>
<!-- 1&#45;&gt;8 -->
<g id="edge8" class="edge">
<title>1&#45;&gt;8</title>
<path fill="none" stroke="black" d="M3892.23,-86.34C3796.29,-77.75 3489.83,-50.32 3298.94,-33.23"/>
<polygon fill="black" stroke="black" points="3299.45,-29.77 3289.18,-32.36 3298.83,-36.74 3299.45,-29.77"/>
</g>
<!-- 9 -->
<g id="node10" class="node">
<title>9</title>
<ellipse fill="none" stroke="black" cx="3621.93" cy="-18" rx="232.02" ry="18"/>
<text text-anchor="middle" x="3621.93" y="-12.95" font-family="Times New Roman,serif" font-size="14.00">Moneyman: “钱才是让这个世界转动的东西。”</text>
</g>
<!-- 1&#45;&gt;9 -->
<g id="edge9" class="edge">
<title>1&#45;&gt;9</title>
<path fill="none" stroke="black" d="M3894.25,-82.54C3851.49,-72.56 3767.69,-53.01 3704.29,-38.22"/>
<polygon fill="black" stroke="black" points="3705.11,-34.81 3694.57,-35.95 3703.52,-41.63 3705.11,-34.81"/>
</g>
<!-- 10 -->
<g id="node11" class="node">
<title>10</title>
<ellipse fill="none" stroke="black" cx="4221.93" cy="-18" rx="349.74" ry="18"/>
<text text-anchor="middle" x="4221.93" y="-12.95" font-family="Times New Roman,serif" font-size="14.00">Moneyman: “房地产是墓地，只有那些疲倦的古钱才会在那里安息。”</text>
</g>
<!-- 1&#45;&gt;10 -->
<g id="edge10" class="edge">
<title>1&#45;&gt;10</title>
<path fill="none" stroke="black" d="M3949.62,-82.54C3991.97,-72.66 4074.57,-53.38 4137.75,-38.64"/>
<polygon fill="black" stroke="black" points="4138.49,-42.06 4147.43,-36.38 4136.9,-35.25 4138.49,-42.06"/>
</g>
<!-- 11 -->
<g id="node12" class="node">
<title>11</title>
<ellipse fill="none" stroke="black" cx="4809.93" cy="-18" rx="220.25" ry="18"/>
<text text-anchor="middle" x="4809.93" y="-12.95" font-family="Times New Roman,serif" font-size="14.00">Moneyman: “你必须更明智地投资你的钱。”</text>
</g>
<!-- 1&#45;&gt;11 -->
<g id="edge11" class="edge">
<title>1&#45;&gt;11</title>
<path fill="none" stroke="black" d="M3951.73,-86.65C4058.36,-78.25 4426.11,-49.26 4644.09,-32.07"/>
<polygon fill="black" stroke="black" points="4644.12,-35.58 4653.81,-31.31 4643.57,-28.6 4644.12,-35.58"/>
</g>
<!-- 12 -->
<g id="node13" class="node">
<title>12</title>
<ellipse fill="none" stroke="black" cx="5279.93" cy="-18" rx="232.02" ry="18"/>
<text text-anchor="middle" x="5279.93" y="-12.95" font-family="Times New Roman,serif" font-size="14.00">Moneyman: “这一切都是关于钱，你知道的。”</text>
</g>
<!-- 1&#45;&gt;12 -->
<g id="edge12" class="edge">
<title>1&#45;&gt;12</title>
<path fill="none" stroke="black" d="M3951.72,-87.84C4081.11,-82.74 4607.23,-61.46 5038.93,-36 5060.25,-34.74 5082.61,-33.31 5104.77,-31.83"/>
<polygon fill="black" stroke="black" points="5104.72,-35.34 5114.46,-31.18 5104.25,-28.36 5104.72,-35.34"/>
</g>
<!-- 13 -->
<g id="node14" class="node">
<title>13</title>
<ellipse fill="none" stroke="black" cx="5816.93" cy="-18" rx="286.78" ry="18"/>
<text text-anchor="middle" x="5816.93" y="-12.95" font-family="Times New Roman,serif" font-size="14.00">Moneyman: “……但是那只不过意味着，你的钱还不够。”</text>
</g>
<!-- 1&#45;&gt;13 -->
<g id="edge13" class="edge">
<title>1&#45;&gt;13</title>
<path fill="none" stroke="black" d="M3951.9,-88.28C4112.5,-84.35 4887.6,-64.68 5520.93,-36 5548.06,-34.77 5576.57,-33.33 5604.75,-31.81"/>
<polygon fill="black" stroke="black" points="5604.64,-35.32 5614.44,-31.28 5604.26,-28.33 5604.64,-35.32"/>
</g>
<!-- 14 -->
<g id="node15" class="node">
<title>14</title>
<ellipse fill="none" stroke="black" cx="6329.93" cy="-18" rx="208.48" ry="18"/>
<text text-anchor="middle" x="6329.93" y="-12.95" font-family="Times New Roman,serif" font-size="14.00">Moneyman: “金钱完全是关乎于信任的！”</text>
</g>
<!-- 1&#45;&gt;14 -->
<g id="edge14" class="edge">
<title>1&#45;&gt;14</title>
<path fill="none" stroke="black" d="M3952.22,-88.88C4145.86,-88.01 5230.4,-81.21 6112.93,-36 6132.84,-34.98 6153.75,-33.66 6174.4,-32.2"/>
<polygon fill="black" stroke="black" points="6174.61,-35.7 6184.34,-31.49 6174.11,-28.72 6174.61,-35.7"/>
</g>
<!-- 16 -->
<g id="node17" class="node">
<title>16</title>
<ellipse fill="none" stroke="black" cx="6776.93" cy="-18" rx="220.25" ry="18"/>
<text text-anchor="middle" x="6776.93" y="-12.95" font-family="Times New Roman,serif" font-size="14.00">Moneyman: “金钱法则就像自然规律一样。”</text>
</g>
<!-- 1&#45;&gt;16 -->
<g id="edge15" class="edge">
<title>1&#45;&gt;16</title>
<path fill="none" stroke="black" d="M3952.12,-89C4166.39,-88.9 5479.78,-86.18 6546.93,-36 6568.49,-34.99 6591.16,-33.65 6613.53,-32.16"/>
<polygon fill="black" stroke="black" points="6613.58,-35.67 6623.32,-31.5 6613.11,-28.68 6613.58,-35.67"/>
</g>
<!-- 17 -->
<g id="node18" class="node">
<title>17</title>
<ellipse fill="none" stroke="black" cx="7220.93" cy="-18" rx="205.92" ry="18"/>
<text text-anchor="middle" x="7220.93" y="-12.95" font-family="Times New Roman,serif" font-size="14.00">Moneyman: “钱才是*真正*重要的东西。”</text>
</g>
<!-- 1&#45;&gt;17 -->
<g id="edge16" class="edge">
<title>1&#45;&gt;17</title>
<path fill="none" stroke="black" d="M3952.03,-88.74C4230.8,-86.3 6366.42,-66.75 7005.93,-36 7026.06,-35.03 7047.23,-33.72 7068.12,-32.25"/>
<polygon fill="black" stroke="black" points="7068.11,-35.76 7077.83,-31.55 7067.61,-28.78 7068.11,-35.76"/>
</g>
<!-- 18 -->
<g id="node19" class="node">
<title>18</title>
<ellipse fill="none" stroke="black" cx="7471.93" cy="-18" rx="27" ry="18"/>
<text text-anchor="middle" x="7471.93" y="-12.95" font-family="Times New Roman,serif" font-size="14.00">18</text>
</g>
<!-- 1&#45;&gt;18 -->
<g id="edge17" class="edge">
<title>1&#45;&gt;18</title>
<path fill="none" stroke="black" d="M3952.23,-88.91C4285.33,-87.9 7256.43,-77.68 7435.93,-36 7437.7,-35.59 7439.48,-35.08 7441.26,-34.51"/>
<polygon fill="black" stroke="black" points="7442.51,-37.78 7450.51,-30.84 7439.93,-31.27 7442.51,-37.78"/>
</g>
<!-- 15 -->
<g id="node16" class="node">
<title>15</title>
<ellipse fill="none" stroke="black" cx="4151.93" cy="-162" rx="173.16" ry="18"/>
<text text-anchor="middle" x="4151.93" y="-156.95" font-family="Times New Roman,serif" font-size="14.00">Moneyman: “你可以用钱买股票。”</text>
</g>
</g>
</svg>
