<?xml version="1.0" encoding="UTF-8" standalone="no"?>
<!DOCTYPE svg PUBLIC "-//W3C//DTD SVG 1.1//EN"
 "http://www.w3.org/Graphics/SVG/1.1/DTD/svg11.dtd">
<!-- Generated by graphviz version 12.2.1 (20241206.2353)
 -->
<!-- Title: G Pages: 1 -->
<svg width="2195pt" height="188pt"
 viewBox="0.00 0.00 2194.79 188.00" xmlns="http://www.w3.org/2000/svg" xmlns:xlink="http://www.w3.org/1999/xlink">
<g id="graph0" class="graph" transform="scale(1 1) rotate(0) translate(4 184)">
<title>G</title>
<polygon fill="white" stroke="none" points="-4,4 -4,-184 2190.79,-184 2190.79,4 -4,4"/>
<!-- 0 -->
<g id="node1" class="node">
<title>0</title>
<ellipse fill="none" stroke="black" cx="941.21" cy="-162" rx="39.07" ry="18"/>
<text text-anchor="middle" x="941.21" y="-156.95" font-family="Times New Roman,serif" font-size="14.00">START</text>
</g>
<!-- 1 -->
<g id="node2" class="node">
<title>1</title>
<ellipse fill="none" stroke="black" cx="941.21" cy="-90" rx="29.86" ry="18"/>
<text text-anchor="middle" x="941.21" y="-84.95" font-family="Times New Roman,serif" font-size="14.00">input</text>
</g>
<!-- 0&#45;&gt;1 -->
<g id="edge1" class="edge">
<title>0&#45;&gt;1</title>
<path fill="none" stroke="black" d="M941.21,-143.7C941.21,-136.41 941.21,-127.73 941.21,-119.54"/>
<polygon fill="black" stroke="black" points="944.71,-119.62 941.21,-109.62 937.71,-119.62 944.71,-119.62"/>
</g>
<!-- 2 -->
<g id="node3" class="node">
<title>2</title>
<ellipse fill="none" stroke="black" cx="110.21" cy="-18" rx="110.21" ry="18"/>
<text text-anchor="middle" x="110.21" y="-12.95" font-family="Times New Roman,serif" font-size="14.00">Fat Angus: *气喘吁吁*</text>
</g>
<!-- 1&#45;&gt;2 -->
<g id="edge2" class="edge">
<title>1&#45;&gt;2</title>
<path fill="none" stroke="black" d="M911.3,-87.5C813.28,-82.43 492.92,-64.62 229.21,-36 219.71,-34.97 209.81,-33.76 199.94,-32.48"/>
<polygon fill="black" stroke="black" points="200.72,-29.05 190.35,-31.2 199.8,-35.99 200.72,-29.05"/>
</g>
<!-- 4 -->
<g id="node4" class="node">
<title>4</title>
<ellipse fill="none" stroke="black" cx="414.21" cy="-18" rx="175.72" ry="18"/>
<text text-anchor="middle" x="414.21" y="-12.95" font-family="Times New Roman,serif" font-size="14.00">Fat Angus: “我爸爸曾经……算了。”</text>
</g>
<!-- 1&#45;&gt;4 -->
<g id="edge3" class="edge">
<title>1&#45;&gt;4</title>
<path fill="none" stroke="black" d="M912.12,-85.14C840.67,-75.65 653.34,-50.76 529.93,-34.37"/>
<polygon fill="black" stroke="black" points="530.44,-30.91 520.07,-33.06 529.52,-37.85 530.44,-30.91"/>
</g>
<!-- 5 -->
<g id="node5" class="node">
<title>5</title>
<ellipse fill="none" stroke="black" cx="752.21" cy="-18" rx="144.5" ry="18"/>
<text text-anchor="middle" x="752.21" y="-12.95" font-family="Times New Roman,serif" font-size="14.00">Fat Angus: “我什么也没说。”</text>
</g>
<!-- 1&#45;&gt;5 -->
<g id="edge4" class="edge">
<title>1&#45;&gt;5</title>
<path fill="none" stroke="black" d="M916.11,-79.7C888.51,-69.48 843.31,-52.74 807.36,-39.42"/>
<polygon fill="black" stroke="black" points="809.02,-36.31 798.42,-36.12 806.59,-42.87 809.02,-36.31"/>
</g>
<!-- 6 -->
<g id="node6" class="node">
<title>6</title>
<ellipse fill="none" stroke="black" cx="1130.21" cy="-18" rx="215.13" ry="18"/>
<text text-anchor="middle" x="1130.21" y="-12.95" font-family="Times New Roman,serif" font-size="14.00">Fat Angus: “我的新陈代谢很慢，丹尼斯！”</text>
</g>
<!-- 1&#45;&gt;6 -->
<g id="edge5" class="edge">
<title>1&#45;&gt;6</title>
<path fill="none" stroke="black" d="M966.31,-79.7C993.52,-69.63 1037.83,-53.21 1073.53,-39.99"/>
<polygon fill="black" stroke="black" points="1074.72,-43.28 1082.88,-36.53 1072.29,-36.72 1074.72,-43.28"/>
</g>
<!-- 7 -->
<g id="node7" class="node">
<title>7</title>
<ellipse fill="none" stroke="black" cx="1531.21" cy="-18" rx="168.04" ry="18"/>
<text text-anchor="middle" x="1531.21" y="-12.95" font-family="Times New Roman,serif" font-size="14.00">Fat Angus: “我有足痛风，混蛋！”</text>
</g>
<!-- 1&#45;&gt;7 -->
<g id="edge6" class="edge">
<title>1&#45;&gt;7</title>
<path fill="none" stroke="black" d="M970.47,-85.53C1049.48,-76.15 1270.6,-49.92 1410.4,-33.33"/>
<polygon fill="black" stroke="black" points="1410.55,-36.84 1420.07,-32.19 1409.73,-29.89 1410.55,-36.84"/>
</g>
<!-- 8 -->
<g id="node8" class="node">
<title>8</title>
<ellipse fill="none" stroke="black" cx="1952.21" cy="-18" rx="234.58" ry="18"/>
<text text-anchor="middle" x="1952.21" y="-12.95" font-family="Times New Roman,serif" font-size="14.00">Fat Angus: “我想知道那个塞尔维去哪儿了……”</text>
</g>
<!-- 1&#45;&gt;8 -->
<g id="edge7" class="edge">
<title>1&#45;&gt;8</title>
<path fill="none" stroke="black" d="M970.82,-86.96C1073.1,-79.91 1420.92,-55.93 1708.21,-36 1728.68,-34.58 1750.11,-33.09 1771.42,-31.61"/>
<polygon fill="black" stroke="black" points="1771.64,-35.1 1781.37,-30.91 1771.16,-28.12 1771.64,-35.1"/>
</g>
</g>
</svg>
