<?xml version="1.0" encoding="UTF-8" standalone="no"?>
<!DOCTYPE svg PUBLIC "-//W3C//DTD SVG 1.1//EN"
 "http://www.w3.org/Graphics/SVG/1.1/DTD/svg11.dtd">
<!-- Generated by graphviz version 12.2.1 (20241206.2353)
 -->
<!-- Title: G Pages: 1 -->
<svg width="9320pt" height="116pt"
 viewBox="0.00 0.00 9320.29 116.00" xmlns="http://www.w3.org/2000/svg" xmlns:xlink="http://www.w3.org/1999/xlink">
<g id="graph0" class="graph" transform="scale(1 1) rotate(0) translate(4 112)">
<title>G</title>
<polygon fill="white" stroke="none" points="-4,4 -4,-112 9316.29,-112 9316.29,4 -4,4"/>
<!-- 0 -->
<g id="node1" class="node">
<title>0</title>
<ellipse fill="none" stroke="black" cx="4835.96" cy="-90" rx="39.07" ry="18"/>
<text text-anchor="middle" x="4835.96" y="-84.95" font-family="Times New Roman,serif" font-size="14.00">START</text>
</g>
<!-- 0&#45;&gt;0 -->
<g id="edge1" class="edge">
<title>0&#45;&gt;0</title>
<path fill="none" stroke="black" d="M4864.15,-102.94C4879.26,-105.14 4893.03,-100.83 4893.03,-90 4893.03,-81.96 4885.45,-77.52 4875.36,-76.65"/>
<polygon fill="black" stroke="black" points="4875.53,-73.15 4865.66,-77 4875.78,-80.14 4875.53,-73.15"/>
</g>
<!-- 1 -->
<g id="node2" class="node">
<title>1</title>
<ellipse fill="none" stroke="black" cx="4940.96" cy="-90" rx="29.86" ry="18"/>
<text text-anchor="middle" x="4940.96" y="-84.95" font-family="Times New Roman,serif" font-size="14.00">input</text>
</g>
<!-- 1&#45;&gt;1 -->
<g id="edge2" class="edge">
<title>1&#45;&gt;1</title>
<path fill="none" stroke="black" d="M4962.62,-102.55C4976.04,-105.57 4988.82,-101.39 4988.82,-90 4988.82,-81.99 4982.5,-77.55 4974.09,-76.66"/>
<polygon fill="black" stroke="black" points="4973.87,-73.17 4964.13,-77.35 4974.35,-80.15 4973.87,-73.17"/>
</g>
<!-- 2 -->
<g id="node3" class="node">
<title>2</title>
<ellipse fill="none" stroke="black" cx="272.96" cy="-18" rx="272.96" ry="18"/>
<text text-anchor="middle" x="272.96" y="-12.95" font-family="Times New Roman,serif" font-size="14.00">Egg Head: “失去而复得，潜入声音里，向节拍祈祷！”</text>
</g>
<!-- 1&#45;&gt;2 -->
<g id="edge3" class="edge">
<title>1&#45;&gt;2</title>
<path fill="none" stroke="black" d="M4918.79,-77.51C4913.42,-75.25 4907.6,-73.2 4901.96,-72 4665.75,-21.73 796.33,-44.27 554.96,-36 527.49,-35.06 498.52,-33.71 470.03,-32.19"/>
<polygon fill="black" stroke="black" points="470.41,-28.7 460.23,-31.65 470.03,-35.69 470.41,-28.7"/>
</g>
<!-- 3 -->
<g id="node4" class="node">
<title>3</title>
<ellipse fill="none" stroke="black" cx="832.96" cy="-18" rx="268.87" ry="18"/>
<text text-anchor="middle" x="832.96" y="-12.95" font-family="Times New Roman,serif" font-size="14.00">Egg Head: “行动起来，躁动灵魂，靠近——强心脏！”</text>
</g>
<!-- 1&#45;&gt;3 -->
<g id="edge4" class="edge">
<title>1&#45;&gt;3</title>
<path fill="none" stroke="black" d="M4918.79,-77.52C4913.42,-75.25 4907.6,-73.2 4901.96,-72 4695.98,-28.04 1321.45,-43.43 1110.96,-36 1083.87,-35.04 1055.32,-33.69 1027.24,-32.16"/>
<polygon fill="black" stroke="black" points="1027.77,-28.69 1017.6,-31.63 1027.39,-35.68 1027.77,-28.69"/>
</g>
<!-- 4 -->
<g id="node5" class="node">
<title>4</title>
<ellipse fill="none" stroke="black" cx="1501.96" cy="-18" rx="382.49" ry="18"/>
<text text-anchor="middle" x="1501.96" y="-12.95" font-family="Times New Roman,serif" font-size="14.00">Egg Head: “太阳灼烧，感知心跳——单条轨迹，韵律来袭——大家跳起来！”</text>
</g>
<!-- 1&#45;&gt;4 -->
<g id="edge5" class="edge">
<title>1&#45;&gt;4</title>
<path fill="none" stroke="black" d="M4918.79,-77.53C4913.42,-75.26 4907.6,-73.21 4901.96,-72 4738.51,-36.9 2060.08,-40.63 1892.96,-36 1854.79,-34.94 1814.53,-33.53 1774.93,-31.97"/>
<polygon fill="black" stroke="black" points="1775.15,-28.47 1765.02,-31.57 1774.88,-35.47 1775.15,-28.47"/>
</g>
<!-- 5 -->
<g id="node6" class="node">
<title>5</title>
<ellipse fill="none" stroke="black" cx="2276.96" cy="-18" rx="374.81" ry="18"/>
<text text-anchor="middle" x="2276.96" y="-12.95" font-family="Times New Roman,serif" font-size="14.00">Egg Head: “仇恨之门，伴侣约会，没有空间给小飞飞——深夜捉鸡捕手！”</text>
</g>
<!-- 1&#45;&gt;5 -->
<g id="edge6" class="edge">
<title>1&#45;&gt;5</title>
<path fill="none" stroke="black" d="M4918.79,-77.54C4913.41,-75.28 4907.59,-73.22 4901.96,-72 4658.59,-19.22 2909.88,-43.51 2660.96,-36 2623.93,-34.88 2584.9,-33.45 2546.48,-31.89"/>
<polygon fill="black" stroke="black" points="2546.77,-28.4 2536.64,-31.49 2546.48,-35.4 2546.77,-28.4"/>
</g>
<!-- 6 -->
<g id="node7" class="node">
<title>6</title>
<ellipse fill="none" stroke="black" cx="2942.96" cy="-18" rx="272.96" ry="18"/>
<text text-anchor="middle" x="2942.96" y="-12.95" font-family="Times New Roman,serif" font-size="14.00">Egg Head: “所有人到数三声跟我一起飞入天空。呀！”</text>
</g>
<!-- 1&#45;&gt;6 -->
<g id="edge7" class="edge">
<title>1&#45;&gt;6</title>
<path fill="none" stroke="black" d="M4918.78,-77.57C4913.41,-75.3 4907.59,-73.24 4901.96,-72 4719.93,-32.01 3411.19,-43.61 3224.96,-36 3198.37,-34.91 3170.37,-33.52 3142.77,-32.01"/>
<polygon fill="black" stroke="black" points="3143.08,-28.52 3132.9,-31.46 3142.69,-35.51 3143.08,-28.52"/>
</g>
<!-- 7 -->
<g id="node8" class="node">
<title>7</title>
<ellipse fill="none" stroke="black" cx="3502.96" cy="-18" rx="268.87" ry="18"/>
<text text-anchor="middle" x="3502.96" y="-12.95" font-family="Times New Roman,serif" font-size="14.00">Egg Head: “重新返回，大家一起来！舞池——硬核！”</text>
</g>
<!-- 1&#45;&gt;7 -->
<g id="edge8" class="edge">
<title>1&#45;&gt;7</title>
<path fill="none" stroke="black" d="M4918.77,-77.61C4913.4,-75.34 4907.58,-73.27 4901.96,-72 4658.82,-17.22 4029.93,-47.61 3780.96,-36 3755.5,-34.81 3728.73,-33.39 3702.28,-31.89"/>
<polygon fill="black" stroke="black" points="3702.67,-28.4 3692.48,-31.33 3702.26,-35.39 3702.67,-28.4"/>
</g>
<!-- 8 -->
<g id="node9" class="node">
<title>8</title>
<ellipse fill="none" stroke="black" cx="4038.96" cy="-18" rx="249.42" ry="18"/>
<text text-anchor="middle" x="4038.96" y="-12.95" font-family="Times New Roman,serif" font-size="14.00">Egg Head: “敲诈者，无踪影，穿过巨大的球形！”</text>
</g>
<!-- 1&#45;&gt;8 -->
<g id="edge9" class="edge">
<title>1&#45;&gt;8</title>
<path fill="none" stroke="black" d="M4918.75,-77.72C4913.38,-75.45 4907.57,-73.34 4901.96,-72 4640.02,-9.22 4565.8,-52.86 4296.96,-36 4274.92,-34.62 4251.82,-33.14 4228.89,-31.65"/>
<polygon fill="black" stroke="black" points="4229.36,-28.18 4219.16,-31.02 4228.91,-35.16 4229.36,-28.18"/>
</g>
<!-- 9 -->
<g id="node10" class="node">
<title>9</title>
<ellipse fill="none" stroke="black" cx="4637.96" cy="-18" rx="331.82" ry="18"/>
<text text-anchor="middle" x="4637.96" y="-12.95" font-family="Times New Roman,serif" font-size="14.00">Egg Head: “我们都是坏孩子，我们都深陷险境，我们在搞黄色！”</text>
</g>
<!-- 1&#45;&gt;9 -->
<g id="edge10" class="edge">
<title>1&#45;&gt;9</title>
<path fill="none" stroke="black" d="M4918.18,-78.1C4912.93,-75.87 4907.32,-73.68 4901.96,-72 4855.62,-57.43 4803.39,-45.95 4757.69,-37.46"/>
<polygon fill="black" stroke="black" points="4758.49,-34.05 4748.02,-35.69 4757.23,-40.93 4758.49,-34.05"/>
</g>
<!-- 10 -->
<g id="node11" class="node">
<title>10</title>
<ellipse fill="none" stroke="black" cx="5244.96" cy="-18" rx="257.1" ry="18"/>
<text text-anchor="middle" x="5244.96" y="-12.95" font-family="Times New Roman,serif" font-size="14.00">Egg Head: “荒野荒野请指引——从前的我何处寻！”</text>
</g>
<!-- 1&#45;&gt;10 -->
<g id="edge11" class="edge">
<title>1&#45;&gt;10</title>
<path fill="none" stroke="black" d="M4966.95,-80.78C4976.64,-77.84 4987.76,-74.61 4997.96,-72 5047.52,-59.31 5103.19,-47.19 5149.12,-37.74"/>
<polygon fill="black" stroke="black" points="5149.69,-41.2 5158.79,-35.76 5148.29,-34.34 5149.69,-41.2"/>
</g>
<!-- 11 -->
<g id="node12" class="node">
<title>11</title>
<ellipse fill="none" stroke="black" cx="5686.96" cy="-18" rx="167.02" ry="18"/>
<text text-anchor="middle" x="5686.96" y="-12.95" font-family="Times New Roman,serif" font-size="14.00">Egg Head: “四个，后门，硬核！”</text>
</g>
<!-- 1&#45;&gt;11 -->
<g id="edge12" class="edge">
<title>1&#45;&gt;11</title>
<path fill="none" stroke="black" d="M4966.49,-80.08C4976.23,-77.03 4987.5,-73.9 4997.96,-72 5222.83,-31.09 5283.19,-54.99 5510.96,-36 5525.73,-34.77 5541.19,-33.4 5556.56,-31.98"/>
<polygon fill="black" stroke="black" points="5556.57,-35.5 5566.21,-31.09 5555.93,-28.53 5556.57,-35.5"/>
</g>
<!-- 12 -->
<g id="node13" class="node">
<title>12</title>
<ellipse fill="none" stroke="black" cx="6156.96" cy="-18" rx="284.74" ry="18"/>
<text text-anchor="middle" x="6156.96" y="-12.95" font-family="Times New Roman,serif" font-size="14.00">Egg Head: “濒临边界，节奏下潜，潜水员们汇聚一堂！”</text>
</g>
<!-- 1&#45;&gt;12 -->
<g id="edge13" class="edge">
<title>1&#45;&gt;12</title>
<path fill="none" stroke="black" d="M4966.18,-80.01C4975.98,-76.91 4987.37,-73.77 4997.96,-72 5377.47,-8.53 5478.66,-55.11 5862.96,-36 5889.33,-34.69 5917.02,-33.22 5944.43,-31.7"/>
<polygon fill="black" stroke="black" points="5944.44,-35.2 5954.23,-31.15 5944.05,-28.21 5944.44,-35.2"/>
</g>
<!-- 13 -->
<g id="node14" class="node">
<title>13</title>
<ellipse fill="none" stroke="black" cx="6755.96" cy="-18" rx="296.51" ry="18"/>
<text text-anchor="middle" x="6755.96" y="-12.95" font-family="Times New Roman,serif" font-size="14.00">Egg Head: “谁是舞池之王？往事过去，现在翻到第四章！”</text>
</g>
<!-- 1&#45;&gt;13 -->
<g id="edge14" class="edge">
<title>1&#45;&gt;13</title>
<path fill="none" stroke="black" d="M4966.17,-79.92C4975.96,-76.8 4987.36,-73.68 4997.96,-72 5316.96,-21.4 6128.24,-48.99 6450.96,-36 6479.51,-34.85 6509.55,-33.43 6539.18,-31.91"/>
<polygon fill="black" stroke="black" points="6539.2,-35.41 6549.01,-31.4 6538.84,-28.42 6539.2,-35.41"/>
</g>
<!-- 14 -->
<g id="node15" class="node">
<title>14</title>
<ellipse fill="none" stroke="black" cx="7435.96" cy="-18" rx="365.6" ry="18"/>
<text text-anchor="middle" x="7435.96" y="-12.95" font-family="Times New Roman,serif" font-size="14.00">Egg Head: “平流层,大炮手,音乐发烧友——你没有听错，这*就是*第一！”</text>
</g>
<!-- 1&#45;&gt;14 -->
<g id="edge15" class="edge">
<title>1&#45;&gt;14</title>
<path fill="none" stroke="black" d="M4966.16,-79.88C4975.95,-76.76 4987.35,-73.64 4997.96,-72 5224.63,-36.9 6832.71,-43.21 7061.96,-36 7097.73,-34.88 7135.41,-33.45 7172.53,-31.9"/>
<polygon fill="black" stroke="black" points="7172.67,-35.4 7182.51,-31.48 7172.38,-28.4 7172.67,-35.4"/>
</g>
<!-- 15 -->
<g id="node16" class="node">
<title>15</title>
<ellipse fill="none" stroke="black" cx="8123.96" cy="-18" rx="304.18" ry="18"/>
<text text-anchor="middle" x="8123.96" y="-12.95" font-family="Times New Roman,serif" font-size="14.00">Egg Head: “凉鞋成就男人——绕道而行，消息收到，硬核！”</text>
</g>
<!-- 1&#45;&gt;15 -->
<g id="edge16" class="edge">
<title>1&#45;&gt;15</title>
<path fill="none" stroke="black" d="M4966.16,-79.85C4975.95,-76.73 4987.35,-73.62 4997.96,-72 5306.97,-24.88 7498.56,-46.48 7810.96,-36 7841.37,-34.98 7873.43,-33.59 7904.96,-32.05"/>
<polygon fill="black" stroke="black" points="7904.76,-35.57 7914.58,-31.58 7904.41,-28.58 7904.76,-35.57"/>
</g>
<!-- 17 -->
<g id="node18" class="node">
<title>17</title>
<ellipse fill="none" stroke="black" cx="8624.96" cy="-18" rx="178.79" ry="18"/>
<text text-anchor="middle" x="8624.96" y="-12.95" font-family="Times New Roman,serif" font-size="14.00">Egg Head: “更快，更强，更爆炸！”</text>
</g>
<!-- 1&#45;&gt;17 -->
<g id="edge17" class="edge">
<title>1&#45;&gt;17</title>
<path fill="none" stroke="black" d="M4966.16,-79.84C4975.95,-76.71 4987.35,-73.61 4997.96,-72 5375.8,-14.84 8055.32,-55.22 8436.96,-36 8454.51,-35.12 8472.96,-33.86 8491.16,-32.42"/>
<polygon fill="black" stroke="black" points="8491.25,-35.92 8500.94,-31.62 8490.69,-28.94 8491.25,-35.92"/>
</g>
<!-- 18 -->
<g id="node19" class="node">
<title>18</title>
<ellipse fill="none" stroke="black" cx="9066.96" cy="-18" rx="245.33" ry="18"/>
<text text-anchor="middle" x="9066.96" y="-12.95" font-family="Times New Roman,serif" font-size="14.00">Egg Head: “叽里呱啦——魅力之都，声音之子！”</text>
</g>
<!-- 1&#45;&gt;18 -->
<g id="edge18" class="edge">
<title>1&#45;&gt;18</title>
<path fill="none" stroke="black" d="M4966.15,-79.83C4975.95,-76.71 4987.34,-73.6 4997.96,-72 5417.13,-8.8 8389.36,-52.16 8812.96,-36 8837.49,-35.06 8863.33,-33.73 8888.75,-32.23"/>
<polygon fill="black" stroke="black" points="8888.73,-35.73 8898.5,-31.64 8888.3,-28.75 8888.73,-35.73"/>
</g>
<!-- 16 -->
<g id="node17" class="node">
<title>16</title>
<ellipse fill="none" stroke="black" cx="5244.96" cy="-90" rx="237.65" ry="18"/>
<text text-anchor="middle" x="5244.96" y="-84.95" font-family="Times New Roman,serif" font-size="14.00">Egg Head: “追根溯源，潜在能量，永不回头。”</text>
</g>
</g>
</svg>
