<?xml version="1.0" encoding="UTF-8" standalone="no"?>
<!DOCTYPE svg PUBLIC "-//W3C//DTD SVG 1.1//EN"
 "http://www.w3.org/Graphics/SVG/1.1/DTD/svg11.dtd">
<!-- Generated by graphviz version 12.2.1 (20241206.2353)
 -->
<!-- Title: G Pages: 1 -->
<svg width="7726pt" height="1988pt"
 viewBox="0.00 0.00 7725.86 1988.00" xmlns="http://www.w3.org/2000/svg" xmlns:xlink="http://www.w3.org/1999/xlink">
<g id="graph0" class="graph" transform="scale(1 1) rotate(0) translate(4 1984)">
<title>G</title>
<polygon fill="white" stroke="none" points="-4,4 -4,-1984 7721.86,-1984 7721.86,4 -4,4"/>
<!-- 0 -->
<g id="node1" class="node">
<title>0</title>
<ellipse fill="none" stroke="black" cx="2410.44" cy="-1962" rx="39.07" ry="18"/>
<text text-anchor="middle" x="2410.44" y="-1956.95" font-family="Times New Roman,serif" font-size="14.00">START</text>
</g>
<!-- 1 -->
<g id="node2" class="node">
<title>1</title>
<ellipse fill="none" stroke="black" cx="2410.44" cy="-1890" rx="29.86" ry="18"/>
<text text-anchor="middle" x="2410.44" y="-1884.95" font-family="Times New Roman,serif" font-size="14.00">input</text>
</g>
<!-- 0&#45;&gt;1 -->
<g id="edge1" class="edge">
<title>0&#45;&gt;1</title>
<path fill="none" stroke="black" d="M2410.44,-1943.7C2410.44,-1936.41 2410.44,-1927.73 2410.44,-1919.54"/>
<polygon fill="black" stroke="black" points="2413.94,-1919.62 2410.44,-1909.62 2406.94,-1919.62 2413.94,-1919.62"/>
</g>
<!-- 20 -->
<g id="node21" class="node">
<title>20</title>
<ellipse fill="none" stroke="black" cx="2410.44" cy="-1818" rx="793.47" ry="18"/>
<text text-anchor="middle" x="2410.44" y="-1812.95" font-family="Times New Roman,serif" font-size="14.00">Electrochemistry: 就在这里，你的口袋里装着一支勇敢的小小军队。人称第一吸烟排。二十位勇敢的士兵向你立正敬礼，时刻准备为你赴汤蹈火，指挥官……</text>
</g>
<!-- 1&#45;&gt;20 -->
<g id="edge2" class="edge">
<title>1&#45;&gt;20</title>
<path fill="none" stroke="black" d="M2410.44,-1871.7C2410.44,-1864.41 2410.44,-1855.73 2410.44,-1847.54"/>
<polygon fill="black" stroke="black" points="2413.94,-1847.62 2410.44,-1837.62 2406.94,-1847.62 2413.94,-1847.62"/>
</g>
<!-- 2 -->
<g id="node3" class="node">
<title>2</title>
<ellipse fill="none" stroke="black" cx="3138.44" cy="-522" rx="331.82" ry="18"/>
<text text-anchor="middle" x="3138.44" y="-516.95" font-family="Times New Roman,serif" font-size="14.00">You: 不行。在即将吸入之际毅然扔掉这支烟。[忽略这个想法。]</text>
</g>
<!-- 22 -->
<g id="node23" class="node">
<title>22</title>
<ellipse fill="none" stroke="black" cx="2556.44" cy="-450" rx="263.24" ry="18"/>
<text text-anchor="middle" x="2556.44" y="-444.95" font-family="Times New Roman,serif" font-size="14.00">Jump to: [Electrochemistry: &quot;Already you regret it &#45;&#45; looking at...&quot;]</text>
</g>
<!-- 2&#45;&gt;22 -->
<g id="edge3" class="edge">
<title>2&#45;&gt;22</title>
<path fill="none" stroke="black" d="M3006.01,-505.07C2912.86,-493.87 2788.5,-478.91 2694.18,-467.57"/>
<polygon fill="black" stroke="black" points="2694.68,-464.1 2684.34,-466.38 2693.85,-471.05 2694.68,-464.1"/>
</g>
<!-- 3 -->
<g id="node4" class="node">
<title>3</title>
<ellipse fill="none" stroke="black" cx="5669.44" cy="-234" rx="225.88" ry="18"/>
<text text-anchor="middle" x="5669.44" y="-228.95" font-family="Times New Roman,serif" font-size="14.00">Variable[&quot;whirling.sense_smoking_volition_withdrawal&quot;]</text>
</g>
<!-- 4 -->
<g id="node5" class="node">
<title>4</title>
<polygon fill="none" stroke="black" points="5516.44,-180 5197,-162 5516.44,-144 5835.88,-162 5516.44,-180"/>
<text text-anchor="middle" x="5516.44" y="-156.95" font-family="Times New Roman,serif" font-size="14.00">Variable[&quot;whirling.sense_smoking_volition_withdrawal&quot;]</text>
</g>
<!-- 3&#45;&gt;4 -->
<g id="edge4" class="edge">
<title>3&#45;&gt;4</title>
<path fill="none" stroke="black" d="M5632.02,-215.88C5610.48,-206.02 5583.29,-193.59 5560.7,-183.25"/>
<polygon fill="black" stroke="black" points="5562.28,-180.12 5551.73,-179.14 5559.37,-186.49 5562.28,-180.12"/>
</g>
<!-- 5 -->
<g id="node6" class="node">
<title>5</title>
<polygon fill="none" stroke="black" points="6024.44,-108 5691.98,-90 6024.44,-72 6356.91,-90 6024.44,-108"/>
<text text-anchor="middle" x="6024.44" y="-84.95" font-family="Times New Roman,serif" font-size="14.00">!(Variable[&quot;whirling.sense_smoking_volition_withdrawal&quot;])</text>
</g>
<!-- 3&#45;&gt;5 -->
<g id="edge5" class="edge">
<title>3&#45;&gt;5</title>
<path fill="none" stroke="black" d="M5733.49,-216.35C5767,-206.95 5808.43,-194.24 5844.44,-180 5894.75,-160.1 5950.21,-131.63 5986.09,-112.28"/>
<polygon fill="black" stroke="black" points="5987.67,-115.41 5994.79,-107.56 5984.33,-109.25 5987.67,-115.41"/>
</g>
<!-- 66 -->
<g id="node66" class="node">
<title>66</title>
<ellipse fill="none" stroke="black" cx="5363.44" cy="-90" rx="310.84" ry="18"/>
<text text-anchor="middle" x="5363.44" y="-84.95" font-family="Times New Roman,serif" font-size="14.00">Electrochemistry: ……唠唠叨叨，啰啰嗦嗦。真无聊。点烟吧！</text>
</g>
<!-- 4&#45;&gt;66 -->
<g id="edge6" class="edge">
<title>4&#45;&gt;66</title>
<path fill="none" stroke="black" d="M5482.49,-145.46C5461.65,-135.93 5434.63,-123.57 5411.6,-113.03"/>
<polygon fill="black" stroke="black" points="5413.26,-109.94 5402.71,-108.97 5410.35,-116.31 5413.26,-109.94"/>
</g>
<!-- 57 -->
<g id="node57" class="node">
<title>57</title>
<ellipse fill="none" stroke="black" cx="6024.44" cy="-18" rx="116.86" ry="18"/>
<text text-anchor="middle" x="6024.44" y="-12.95" font-family="Times New Roman,serif" font-size="14.00">Jump to: [Untitled hub (02)]</text>
</g>
<!-- 5&#45;&gt;57 -->
<g id="edge7" class="edge">
<title>5&#45;&gt;57</title>
<path fill="none" stroke="black" d="M6024.44,-71.7C6024.44,-64.41 6024.44,-55.73 6024.44,-47.54"/>
<polygon fill="black" stroke="black" points="6027.94,-47.62 6024.44,-37.62 6020.94,-47.62 6027.94,-47.62"/>
</g>
<!-- 6 -->
<g id="node7" class="node">
<title>6</title>
<ellipse fill="none" stroke="black" cx="3066.44" cy="-1674" rx="593.36" ry="18"/>
<text text-anchor="middle" x="3066.44" y="-1668.95" font-family="Times New Roman,serif" font-size="14.00">Electrochemistry: 你选中了最出色的战士！这位尼古丁的士兵是多么的肥美多汁。你还等什么？点烟吧——重返自我！</text>
</g>
<!-- 41 -->
<g id="node42" class="node">
<title>41</title>
<ellipse fill="none" stroke="black" cx="3423.44" cy="-1602" rx="290.37" ry="18"/>
<text text-anchor="middle" x="3423.44" y="-1596.95" font-family="Times New Roman,serif" font-size="14.00">Variable[&quot;whirling.necktie_personified&quot;] &#160;and &#160;CheckEquipped(&quot;neck_tie&quot;)</text>
</g>
<!-- 6&#45;&gt;41 -->
<g id="edge8" class="edge">
<title>6&#45;&gt;41</title>
<path fill="none" stroke="black" d="M3154.23,-1655.79C3206.66,-1645.51 3273.3,-1632.44 3327.17,-1621.88"/>
<polygon fill="black" stroke="black" points="3327.83,-1625.31 3336.97,-1619.96 3326.49,-1618.44 3327.83,-1625.31"/>
</g>
<!-- 7 -->
<g id="node8" class="node">
<title>7</title>
<ellipse fill="none" stroke="black" cx="6946.44" cy="-1170" rx="489.97" ry="18"/>
<text text-anchor="middle" x="6946.44" y="-1164.95" font-family="Times New Roman,serif" font-size="14.00">Logic: 不过，人们真的会*一直*看着吗？毕竟人们可能会去厕所，或者你也可能会在不同的……</text>
</g>
<!-- 15 -->
<g id="node16" class="node">
<title>15</title>
<ellipse fill="none" stroke="black" cx="6946.44" cy="-1098" rx="246.35" ry="18"/>
<text text-anchor="middle" x="6946.44" y="-1092.95" font-family="Times New Roman,serif" font-size="14.00">Variable[&quot;character.smoking_logic_wont_always_be_looking&quot;]</text>
</g>
<!-- 7&#45;&gt;15 -->
<g id="edge9" class="edge">
<title>7&#45;&gt;15</title>
<path fill="none" stroke="black" d="M6946.44,-1151.7C6946.44,-1144.41 6946.44,-1135.73 6946.44,-1127.54"/>
<polygon fill="black" stroke="black" points="6949.94,-1127.62 6946.44,-1117.62 6942.94,-1127.62 6949.94,-1127.62"/>
</g>
<!-- 8 -->
<g id="node9" class="node">
<title>8</title>
<ellipse fill="none" stroke="black" cx="3954.44" cy="-450" rx="138.87" ry="18"/>
<text text-anchor="middle" x="3954.44" y="-444.95" font-family="Times New Roman,serif" font-size="14.00">CheckHeldRightGroup(&quot;smokes&quot;)</text>
</g>
<!-- 9 -->
<g id="node10" class="node">
<title>9</title>
<polygon fill="none" stroke="black" points="3367.44,-396 3171.05,-378 3367.44,-360 3563.84,-378 3367.44,-396"/>
<text text-anchor="middle" x="3367.44" y="-372.95" font-family="Times New Roman,serif" font-size="14.00">CheckHeldRightGroup(&quot;smokes&quot;)</text>
</g>
<!-- 8&#45;&gt;9 -->
<g id="edge10" class="edge">
<title>8&#45;&gt;9</title>
<path fill="none" stroke="black" d="M3854.87,-437.13C3744.93,-424.02 3569.28,-403.07 3461.57,-390.22"/>
<polygon fill="black" stroke="black" points="3462.25,-386.78 3451.9,-389.07 3461.42,-393.73 3462.25,-386.78"/>
</g>
<!-- 10 -->
<g id="node11" class="node">
<title>10</title>
<polygon fill="none" stroke="black" points="3954.44,-396 3745.02,-378 3954.44,-360 4163.86,-378 3954.44,-396"/>
<text text-anchor="middle" x="3954.44" y="-372.95" font-family="Times New Roman,serif" font-size="14.00">!(CheckHeldRightGroup(&quot;smokes&quot;))</text>
</g>
<!-- 8&#45;&gt;10 -->
<g id="edge11" class="edge">
<title>8&#45;&gt;10</title>
<path fill="none" stroke="black" d="M3954.44,-431.7C3954.44,-424.41 3954.44,-415.73 3954.44,-407.54"/>
<polygon fill="black" stroke="black" points="3957.94,-407.62 3954.44,-397.62 3950.94,-407.62 3957.94,-407.62"/>
</g>
<!-- 35 -->
<g id="node36" class="node">
<title>35</title>
<ellipse fill="none" stroke="black" cx="1914.44" cy="-306" rx="1010.99" ry="18"/>
<text text-anchor="middle" x="1914.44" y="-300.95" font-family="Times New Roman,serif" font-size="14.00">Electrochemistry: 随着浓郁，温和的烟雾吸入肺部，一股温柔的怀念*立刻*充溢你的脑海，身躯*以及*灵魂。这是你所怀念的*自己*，年轻时的你。霹雳特警强尼*强势回归*。而且他简直酷炫到爆了。</text>
</g>
<!-- 9&#45;&gt;35 -->
<g id="edge12" class="edge">
<title>9&#45;&gt;35</title>
<path fill="none" stroke="black" d="M3242.3,-370.97C3027.67,-360.63 2581.99,-339.16 2266.28,-323.95"/>
<polygon fill="black" stroke="black" points="2266.77,-320.47 2256.62,-323.48 2266.44,-327.46 2266.77,-320.47"/>
</g>
<!-- 19 -->
<g id="node20" class="node">
<title>19</title>
<ellipse fill="none" stroke="black" cx="3954.44" cy="-306" rx="1010.99" ry="18"/>
<text text-anchor="middle" x="3954.44" y="-300.95" font-family="Times New Roman,serif" font-size="14.00">Electrochemistry: 随着浓郁，温和的烟雾吸入肺部，一股温柔的怀念*立刻*充溢你的脑海，身躯*以及*灵魂。这是你所怀念的*自己*，年轻时的你。霹雳特警强尼*强势回归*。而且他简直酷炫到爆了。</text>
</g>
<!-- 10&#45;&gt;19 -->
<g id="edge13" class="edge">
<title>10&#45;&gt;19</title>
<path fill="none" stroke="black" d="M3954.44,-359.7C3954.44,-352.41 3954.44,-343.73 3954.44,-335.54"/>
<polygon fill="black" stroke="black" points="3957.94,-335.62 3954.44,-325.62 3950.94,-335.62 3957.94,-335.62"/>
</g>
<!-- 11 -->
<g id="node12" class="node">
<title>11</title>
<ellipse fill="none" stroke="black" cx="3745.44" cy="-738" rx="251.98" ry="18"/>
<text text-anchor="middle" x="3745.44" y="-732.95" font-family="Times New Roman,serif" font-size="14.00">Electrochemistry: 闭嘴吧。生米正在煮成熟饭呢……</text>
</g>
<!-- 48 -->
<g id="node49" class="node">
<title>48</title>
<ellipse fill="none" stroke="black" cx="4360.44" cy="-594" rx="75.41" ry="18"/>
<text text-anchor="middle" x="4360.44" y="-588.95" font-family="Times New Roman,serif" font-size="14.00">Untitled hub (02)</text>
</g>
<!-- 11&#45;&gt;48 -->
<g id="edge14" class="edge">
<title>11&#45;&gt;48</title>
<path fill="none" stroke="black" d="M3743.63,-719.64C3742.55,-699.21 3744.33,-665.8 3764.44,-648 3801.77,-614.96 4118.18,-601.67 4274.19,-597.09"/>
<polygon fill="black" stroke="black" points="4274.18,-600.59 4284.08,-596.8 4273.98,-593.59 4274.18,-600.59"/>
</g>
<!-- 12 -->
<g id="node13" class="node">
<title>12</title>
<ellipse fill="none" stroke="black" cx="4882.44" cy="-522" rx="219.74" ry="18"/>
<text text-anchor="middle" x="4882.44" y="-516.95" font-family="Times New Roman,serif" font-size="14.00">You: 如果我吸了，会有怎样的不良影响？</text>
</g>
<!-- 40 -->
<g id="node41" class="node">
<title>40</title>
<ellipse fill="none" stroke="black" cx="5003.44" cy="-450" rx="670.13" ry="18"/>
<text text-anchor="middle" x="5003.44" y="-444.95" font-family="Times New Roman,serif" font-size="14.00">Electrochemistry: 不良影响？比如获得“荣耀”的风险很高？还有一定几率成为酷炫的*天才*。众所周知，吸烟会让你成为“知识分子”。</text>
</g>
<!-- 12&#45;&gt;40 -->
<g id="edge15" class="edge">
<title>12&#45;&gt;40</title>
<path fill="none" stroke="black" d="M4912.35,-503.7C4927.91,-494.69 4947.14,-483.57 4963.91,-473.87"/>
<polygon fill="black" stroke="black" points="4965.24,-477.14 4972.15,-469.1 4961.74,-471.08 4965.24,-477.14"/>
</g>
<!-- 13 -->
<g id="node14" class="node">
<title>13</title>
<ellipse fill="none" stroke="black" cx="4279.44" cy="-522" rx="243.28" ry="18"/>
<text text-anchor="middle" x="4279.44" y="-516.95" font-family="Times New Roman,serif" font-size="14.00">You: 快让这坏家伙欲火焚身，然后猛吸一口。</text>
</g>
<!-- 13&#45;&gt;8 -->
<g id="edge16" class="edge">
<title>13&#45;&gt;8</title>
<path fill="none" stroke="black" d="M4202.83,-504.5C4152.39,-493.64 4086.46,-479.43 4035.2,-468.39"/>
<polygon fill="black" stroke="black" points="4036.16,-465.02 4025.64,-466.34 4034.68,-471.86 4036.16,-465.02"/>
</g>
<!-- 14 -->
<g id="node15" class="node">
<title>14</title>
<ellipse fill="none" stroke="black" cx="5669.44" cy="-306" rx="686.51" ry="18"/>
<text text-anchor="middle" x="5669.44" y="-300.95" font-family="Times New Roman,serif" font-size="14.00">Volition: 那之所以有助于集中注意力，是因为导致你注意力涣散的正是*尼古丁戒断症状*。吸烟只是在缓解它自己造成的问题罢了……</text>
</g>
<!-- 14&#45;&gt;3 -->
<g id="edge17" class="edge">
<title>14&#45;&gt;3</title>
<path fill="none" stroke="black" d="M5669.44,-287.7C5669.44,-280.41 5669.44,-271.73 5669.44,-263.54"/>
<polygon fill="black" stroke="black" points="5672.94,-263.62 5669.44,-253.62 5665.94,-263.62 5672.94,-263.62"/>
</g>
<!-- 16 -->
<g id="node17" class="node">
<title>16</title>
<polygon fill="none" stroke="black" points="6875.44,-1044 6527.05,-1026 6875.44,-1008 7223.84,-1026 6875.44,-1044"/>
<text text-anchor="middle" x="6875.44" y="-1020.95" font-family="Times New Roman,serif" font-size="14.00">Variable[&quot;character.smoking_logic_wont_always_be_looking&quot;]</text>
</g>
<!-- 15&#45;&gt;16 -->
<g id="edge18" class="edge">
<title>15&#45;&gt;16</title>
<path fill="none" stroke="black" d="M6928.89,-1079.7C6920.25,-1071.18 6909.69,-1060.76 6900.24,-1051.45"/>
<polygon fill="black" stroke="black" points="6902.96,-1049.21 6893.38,-1044.68 6898.04,-1054.2 6902.96,-1049.21"/>
</g>
<!-- 17 -->
<g id="node18" class="node">
<title>17</title>
<polygon fill="none" stroke="black" points="7356.44,-972 6995.02,-954 7356.44,-936 7717.86,-954 7356.44,-972"/>
<text text-anchor="middle" x="7356.44" y="-948.95" font-family="Times New Roman,serif" font-size="14.00">!(Variable[&quot;character.smoking_logic_wont_always_be_looking&quot;])</text>
</g>
<!-- 15&#45;&gt;17 -->
<g id="edge19" class="edge">
<title>15&#45;&gt;17</title>
<path fill="none" stroke="black" d="M7090.05,-1082.98C7136.75,-1075.15 7187.96,-1062.96 7232.44,-1044 7269.84,-1028.06 7306.94,-999.27 7330.68,-978.75"/>
<polygon fill="black" stroke="black" points="7332.77,-981.57 7337.96,-972.33 7328.14,-976.32 7332.77,-981.57"/>
</g>
<!-- 58 -->
<g id="node58" class="node">
<title>58</title>
<ellipse fill="none" stroke="black" cx="6520.44" cy="-954" rx="456.19" ry="18"/>
<text text-anchor="middle" x="6520.44" y="-948.95" font-family="Times New Roman,serif" font-size="14.00">Electrochemistry: 闭嘴点烟！你想浑浑噩噩地度过余生吗？这玩意会给你急需的酷炫派头。</text>
</g>
<!-- 16&#45;&gt;58 -->
<g id="edge20" class="edge">
<title>16&#45;&gt;58</title>
<path fill="none" stroke="black" d="M6805.31,-1011.17C6751.96,-1000.65 6677.9,-986.05 6618.66,-974.37"/>
<polygon fill="black" stroke="black" points="6619.38,-970.94 6608.89,-972.44 6618.02,-977.81 6619.38,-970.94"/>
</g>
<!-- 33 -->
<g id="node34" class="node">
<title>33</title>
<ellipse fill="none" stroke="black" cx="6520.44" cy="-882" rx="104.58" ry="18"/>
<text text-anchor="middle" x="6520.44" y="-876.95" font-family="Times New Roman,serif" font-size="14.00">Jump to: [SMOKEHUB]</text>
</g>
<!-- 17&#45;&gt;33 -->
<g id="edge21" class="edge">
<title>17&#45;&gt;33</title>
<path fill="none" stroke="black" d="M7225.82,-942.06C7059.72,-928.15 6776.27,-904.42 6624.17,-891.69"/>
<polygon fill="black" stroke="black" points="6624.77,-888.22 6614.51,-890.88 6624.18,-895.2 6624.77,-888.22"/>
</g>
<!-- 18 -->
<g id="node19" class="node">
<title>18</title>
<ellipse fill="none" stroke="black" cx="510.44" cy="-162" rx="510.44" ry="18"/>
<text text-anchor="middle" x="510.44" y="-156.95" font-family="Times New Roman,serif" font-size="14.00">Tutorial Agent: 你刚刚错过了开始吸烟的机会。不过别担心，开始抽烟的选项会在3小时候再次开启。</text>
</g>
<!-- 23 -->
<g id="node24" class="node">
<title>23</title>
<ellipse fill="none" stroke="black" cx="2934.44" cy="-234" rx="149.11" ry="18"/>
<text text-anchor="middle" x="2934.44" y="-228.95" font-family="Times New Roman,serif" font-size="14.00">Variable[&quot;tc.turn_off_tutorial_node&quot;]</text>
</g>
<!-- 19&#45;&gt;23 -->
<g id="edge22" class="edge">
<title>19&#45;&gt;23</title>
<path fill="none" stroke="black" d="M3707.85,-288.08C3508.59,-274.4 3235.38,-255.65 3072.68,-244.49"/>
<polygon fill="black" stroke="black" points="3073.37,-241.03 3063.15,-243.83 3072.89,-248.01 3073.37,-241.03"/>
</g>
<!-- 44 -->
<g id="node45" class="node">
<title>44</title>
<ellipse fill="none" stroke="black" cx="2009.44" cy="-1674" rx="190.56" ry="18"/>
<text text-anchor="middle" x="2009.44" y="-1668.95" font-family="Times New Roman,serif" font-size="14.00">You: 我不会这么做的。[忽略思维。]</text>
</g>
<!-- 20&#45;&gt;44 -->
<g id="edge23" class="edge">
<title>20&#45;&gt;44</title>
<path fill="none" stroke="black" d="M2361.27,-1799.59C2287.17,-1773.35 2147.13,-1723.76 2067.9,-1695.7"/>
<polygon fill="black" stroke="black" points="2069.16,-1692.43 2058.57,-1692.4 2066.83,-1699.03 2069.16,-1692.43"/>
</g>
<!-- 47 -->
<g id="node48" class="node">
<title>47</title>
<ellipse fill="none" stroke="black" cx="2643.44" cy="-1746" rx="102.02" ry="18"/>
<text text-anchor="middle" x="2643.44" y="-1740.95" font-family="Times New Roman,serif" font-size="14.00">You: 抽出一支烟。</text>
</g>
<!-- 20&#45;&gt;47 -->
<g id="edge24" class="edge">
<title>20&#45;&gt;47</title>
<path fill="none" stroke="black" d="M2468.34,-1799.61C2503.15,-1789.15 2547.4,-1775.85 2582.71,-1765.25"/>
<polygon fill="black" stroke="black" points="2583.34,-1768.71 2591.91,-1762.48 2581.32,-1762.01 2583.34,-1768.71"/>
</g>
<!-- 21 -->
<g id="node22" class="node">
<title>21</title>
<ellipse fill="none" stroke="black" cx="4429.44" cy="-1314" rx="66.71" ry="18"/>
<text text-anchor="middle" x="4429.44" y="-1308.95" font-family="Times New Roman,serif" font-size="14.00">You: 点烟！</text>
</g>
<!-- 30 -->
<g id="node31" class="node">
<title>30</title>
<ellipse fill="none" stroke="black" cx="4066.44" cy="-1242" rx="138.87" ry="18"/>
<text text-anchor="middle" x="4066.44" y="-1236.95" font-family="Times New Roman,serif" font-size="14.00">CheckHeldRightGroup(&quot;smokes&quot;)</text>
</g>
<!-- 21&#45;&gt;30 -->
<g id="edge25" class="edge">
<title>21&#45;&gt;30</title>
<path fill="none" stroke="black" d="M4376.27,-1302.75C4317.58,-1291.43 4222.22,-1273.04 4152.78,-1259.65"/>
<polygon fill="black" stroke="black" points="4153.84,-1256.29 4143.36,-1257.83 4152.51,-1263.16 4153.84,-1256.29"/>
</g>
<!-- 39 -->
<g id="node40" class="node">
<title>39</title>
<ellipse fill="none" stroke="black" cx="1621.44" cy="-378" rx="880.99" ry="18"/>
<text text-anchor="middle" x="1621.44" y="-372.95" font-family="Times New Roman,serif" font-size="14.00">Electrochemistry: 你已经感到后悔了——仅仅是因为看着这包烟……但别担心。你可以稍后再来。香烟军队对你忠心耿耿。你还有整整*一辈子*可以随时返回阅兵式的主席台。</text>
</g>
<!-- 22&#45;&gt;39 -->
<g id="edge26" class="edge">
<title>22&#45;&gt;39</title>
<path fill="none" stroke="black" d="M2383.59,-436.06C2235.78,-424.99 2021.63,-408.96 1857.94,-396.71"/>
<polygon fill="black" stroke="black" points="1858.49,-393.24 1848.25,-395.98 1857.96,-400.22 1858.49,-393.24"/>
</g>
<!-- 24 -->
<g id="node25" class="node">
<title>24</title>
<polygon fill="none" stroke="black" points="3161.44,-180 2950.57,-162 3161.44,-144 3372.31,-162 3161.44,-180"/>
<text text-anchor="middle" x="3161.44" y="-156.95" font-family="Times New Roman,serif" font-size="14.00">Variable[&quot;tc.turn_off_tutorial_node&quot;]</text>
</g>
<!-- 23&#45;&gt;24 -->
<g id="edge27" class="edge">
<title>23&#45;&gt;24</title>
<path fill="none" stroke="black" d="M2987.09,-216.76C3022.82,-205.75 3069.97,-191.21 3106.22,-180.03"/>
<polygon fill="black" stroke="black" points="3107.13,-183.41 3115.66,-177.12 3105.07,-176.72 3107.13,-183.41"/>
</g>
<!-- 25 -->
<g id="node26" class="node">
<title>25</title>
<polygon fill="none" stroke="black" points="2708.44,-180 2484.55,-162 2708.44,-144 2932.34,-162 2708.44,-180"/>
<text text-anchor="middle" x="2708.44" y="-156.95" font-family="Times New Roman,serif" font-size="14.00">!(Variable[&quot;tc.turn_off_tutorial_node&quot;])</text>
</g>
<!-- 23&#45;&gt;25 -->
<g id="edge28" class="edge">
<title>23&#45;&gt;25</title>
<path fill="none" stroke="black" d="M2882.03,-216.76C2846.57,-205.78 2799.83,-191.31 2763.78,-180.14"/>
<polygon fill="black" stroke="black" points="2764.99,-176.85 2754.4,-177.24 2762.92,-183.54 2764.99,-176.85"/>
</g>
<!-- 65 -->
<g id="node65" class="node">
<title>65</title>
<ellipse fill="none" stroke="black" cx="2708.44" cy="-90" rx="1222.37" ry="18"/>
<text text-anchor="middle" x="2708.44" y="-84.95" font-family="Times New Roman,serif" font-size="14.00">Tutorial Agent: 在屏幕右下角，你可以看到有一个香烟按钮！香烟可以给予你所有智力技能+1加成，包括：逻辑思维、能说会道、标新立异、见微知著、博学多闻以及故弄玄虚。在进行白色检定前吸烟会很好用。不过，吸烟是有害健康的。</text>
</g>
<!-- 25&#45;&gt;65 -->
<g id="edge29" class="edge">
<title>25&#45;&gt;65</title>
<path fill="none" stroke="black" d="M2708.44,-143.7C2708.44,-136.41 2708.44,-127.73 2708.44,-119.54"/>
<polygon fill="black" stroke="black" points="2711.94,-119.62 2708.44,-109.62 2704.94,-119.62 2711.94,-119.62"/>
</g>
<!-- 26 -->
<g id="node27" class="node">
<title>26</title>
<ellipse fill="none" stroke="black" cx="4066.44" cy="-1098" rx="793.47" ry="18"/>
<text text-anchor="middle" x="4066.44" y="-1092.95" font-family="Times New Roman,serif" font-size="14.00">Electrochemistry: 摇滚警察大驾光临，瞧一瞧看一看呐，乡亲们！霹雳特警强尼从裤兜中掏出了打火机。弹指之间，火苗窜起，顶级的满足感。扑面而来……</text>
</g>
<!-- 49 -->
<g id="node50" class="node">
<title>49</title>
<ellipse fill="none" stroke="black" cx="3965.44" cy="-1026" rx="559.58" ry="18"/>
<text text-anchor="middle" x="3965.44" y="-1020.95" font-family="Times New Roman,serif" font-size="14.00">Perception (Sight): 打火机是廉价的一次性塑料做的。安全锁已经解除了——对你而言，安全锁*一直*形同虚设。</text>
</g>
<!-- 26&#45;&gt;49 -->
<g id="edge30" class="edge">
<title>26&#45;&gt;49</title>
<path fill="none" stroke="black" d="M4041.22,-1079.52C4028.59,-1070.76 4013.12,-1060.04 3999.46,-1050.58"/>
<polygon fill="black" stroke="black" points="4001.8,-1047.94 3991.59,-1045.12 3997.82,-1053.7 4001.8,-1047.94"/>
</g>
<!-- 27 -->
<g id="node28" class="node">
<title>27</title>
<ellipse fill="none" stroke="black" cx="5613.44" cy="-1170" rx="290.37" ry="18"/>
<text text-anchor="middle" x="5613.44" y="-1164.95" font-family="Times New Roman,serif" font-size="14.00">Variable[&quot;whirling.necktie_personified&quot;] &#160;and &#160;CheckEquipped(&quot;neck_tie&quot;)</text>
</g>
<!-- 28 -->
<g id="node29" class="node">
<title>28</title>
<polygon fill="none" stroke="black" points="5431.44,-1116 5020.8,-1098 5431.44,-1080 5842.08,-1098 5431.44,-1116"/>
<text text-anchor="middle" x="5431.44" y="-1092.95" font-family="Times New Roman,serif" font-size="14.00">Variable[&quot;whirling.necktie_personified&quot;] &#160;and &#160;CheckEquipped(&quot;neck_tie&quot;)</text>
</g>
<!-- 27&#45;&gt;28 -->
<g id="edge31" class="edge">
<title>27&#45;&gt;28</title>
<path fill="none" stroke="black" d="M5568.92,-1151.88C5542.82,-1141.84 5509.73,-1129.11 5482.56,-1118.66"/>
<polygon fill="black" stroke="black" points="5484.09,-1115.5 5473.5,-1115.18 5481.58,-1122.03 5484.09,-1115.5"/>
</g>
<!-- 29 -->
<g id="node30" class="node">
<title>29</title>
<polygon fill="none" stroke="black" points="5976.44,-1044 5552.78,-1026 5976.44,-1008 6400.11,-1026 5976.44,-1044"/>
<text text-anchor="middle" x="5976.44" y="-1020.95" font-family="Times New Roman,serif" font-size="14.00">!(Variable[&quot;whirling.necktie_personified&quot;] &#160;and &#160;CheckEquipped(&quot;neck_tie&quot;))</text>
</g>
<!-- 27&#45;&gt;29 -->
<g id="edge32" class="edge">
<title>27&#45;&gt;29</title>
<path fill="none" stroke="black" d="M5728.09,-1153.07C5768.22,-1145.01 5812.87,-1133.18 5851.44,-1116 5888.56,-1099.47 5925.82,-1071.05 5949.87,-1050.77"/>
<polygon fill="black" stroke="black" points="5951.96,-1053.59 5957.27,-1044.42 5947.4,-1048.28 5951.96,-1053.59"/>
</g>
<!-- 63 -->
<g id="node63" class="node">
<title>63</title>
<ellipse fill="none" stroke="black" cx="5225.44" cy="-1026" rx="309.81" ry="18"/>
<text text-anchor="middle" x="5225.44" y="-1020.95" font-family="Times New Roman,serif" font-size="14.00">Horrific Necktie: 踏入光芒，在净化之火中重生吧，*哥们儿*！</text>
</g>
<!-- 28&#45;&gt;63 -->
<g id="edge33" class="edge">
<title>28&#45;&gt;63</title>
<path fill="none" stroke="black" d="M5385.98,-1081.55C5356.71,-1071.6 5318.3,-1058.55 5286.4,-1047.71"/>
<polygon fill="black" stroke="black" points="5287.87,-1044.52 5277.28,-1044.61 5285.62,-1051.15 5287.87,-1044.52"/>
</g>
<!-- 56 -->
<g id="node56" class="node">
<title>56</title>
<ellipse fill="none" stroke="black" cx="5941.44" cy="-954" rx="104.58" ry="18"/>
<text text-anchor="middle" x="5941.44" y="-948.95" font-family="Times New Roman,serif" font-size="14.00">Jump to: [SMOKEHUB]</text>
</g>
<!-- 29&#45;&gt;56 -->
<g id="edge34" class="edge">
<title>29&#45;&gt;56</title>
<path fill="none" stroke="black" d="M5967.97,-1008.05C5964.12,-1000.35 5959.46,-991.03 5955.13,-982.36"/>
<polygon fill="black" stroke="black" points="5958.36,-981.01 5950.76,-973.63 5952.1,-984.14 5958.36,-981.01"/>
</g>
<!-- 31 -->
<g id="node32" class="node">
<title>31</title>
<polygon fill="none" stroke="black" points="4066.44,-1188 3870.05,-1170 4066.44,-1152 4262.84,-1170 4066.44,-1188"/>
<text text-anchor="middle" x="4066.44" y="-1164.95" font-family="Times New Roman,serif" font-size="14.00">CheckHeldRightGroup(&quot;smokes&quot;)</text>
</g>
<!-- 30&#45;&gt;31 -->
<g id="edge36" class="edge">
<title>30&#45;&gt;31</title>
<path fill="none" stroke="black" d="M4066.44,-1223.7C4066.44,-1216.41 4066.44,-1207.73 4066.44,-1199.54"/>
<polygon fill="black" stroke="black" points="4069.94,-1199.62 4066.44,-1189.62 4062.94,-1199.62 4069.94,-1199.62"/>
</g>
<!-- 32 -->
<g id="node33" class="node">
<title>32</title>
<polygon fill="none" stroke="black" points="3051.44,-1188 2842.02,-1170 3051.44,-1152 3260.86,-1170 3051.44,-1188"/>
<text text-anchor="middle" x="3051.44" y="-1164.95" font-family="Times New Roman,serif" font-size="14.00">!(CheckHeldRightGroup(&quot;smokes&quot;))</text>
</g>
<!-- 30&#45;&gt;32 -->
<g id="edge35" class="edge">
<title>30&#45;&gt;32</title>
<path fill="none" stroke="black" d="M3946.02,-1232.7C3751.95,-1219.31 3371.94,-1193.1 3175.55,-1179.56"/>
<polygon fill="black" stroke="black" points="3176.05,-1176.09 3165.83,-1178.89 3175.57,-1183.07 3176.05,-1176.09"/>
</g>
<!-- 31&#45;&gt;26 -->
<g id="edge37" class="edge">
<title>31&#45;&gt;26</title>
<path fill="none" stroke="black" d="M4066.44,-1151.7C4066.44,-1144.41 4066.44,-1135.73 4066.44,-1127.54"/>
<polygon fill="black" stroke="black" points="4069.94,-1127.62 4066.44,-1117.62 4062.94,-1127.62 4069.94,-1127.62"/>
</g>
<!-- 55 -->
<g id="node55" class="node">
<title>55</title>
<ellipse fill="none" stroke="black" cx="2461.44" cy="-1098" rx="793.47" ry="18"/>
<text text-anchor="middle" x="2461.44" y="-1092.95" font-family="Times New Roman,serif" font-size="14.00">Electrochemistry: 摇滚警察大驾光临，瞧一瞧看一看呐，乡亲们！霹雳特警强尼从裤兜中掏出了打火机。弹指之间，火苗窜起，顶级的满足感。扑面而来……</text>
</g>
<!-- 32&#45;&gt;55 -->
<g id="edge38" class="edge">
<title>32&#45;&gt;55</title>
<path fill="none" stroke="black" d="M2965.97,-1158.86C2875.04,-1148.07 2729.22,-1130.77 2617.68,-1117.54"/>
<polygon fill="black" stroke="black" points="2618.16,-1114.07 2607.81,-1116.37 2617.33,-1121.02 2618.16,-1114.07"/>
</g>
<!-- 61 -->
<g id="node61" class="node">
<title>61</title>
<ellipse fill="none" stroke="black" cx="4887.44" cy="-1386" rx="63.12" ry="18"/>
<text text-anchor="middle" x="4887.44" y="-1380.95" font-family="Times New Roman,serif" font-size="14.00">SMOKEHUB</text>
</g>
<!-- 33&#45;&gt;61 -->
<g id="edge39" class="edge">
<title>33&#45;&gt;61</title>
<path fill="none" stroke="black" d="M6426.28,-890.15C6292.97,-900.29 6041.59,-919.44 5827.44,-936 5618.24,-952.18 4887.44,-815.18 4887.44,-1025 4887.44,-1243 4887.44,-1243 4887.44,-1243 4887.44,-1282.26 4887.44,-1327.62 4887.44,-1356.31"/>
<polygon fill="black" stroke="black" points="4883.94,-1356 4887.44,-1366 4890.94,-1356 4883.94,-1356"/>
</g>
<!-- 34 -->
<g id="node35" class="node">
<title>34</title>
<ellipse fill="none" stroke="black" cx="3745.44" cy="-810" rx="688.04" ry="18"/>
<text text-anchor="middle" x="3745.44" y="-804.95" font-family="Times New Roman,serif" font-size="14.00">Frittte clerk: “嘿，这里不许抽烟。”女孩的声音不带丝毫兴趣或热情。她讲话的时候甚至都没有抬头看你一眼：“请不要在弗莱特胡闹。”</text>
</g>
<!-- 34&#45;&gt;11 -->
<g id="edge40" class="edge">
<title>34&#45;&gt;11</title>
<path fill="none" stroke="black" d="M3745.44,-791.7C3745.44,-784.41 3745.44,-775.73 3745.44,-767.54"/>
<polygon fill="black" stroke="black" points="3748.94,-767.62 3745.44,-757.62 3741.94,-767.62 3748.94,-767.62"/>
</g>
<!-- 35&#45;&gt;23 -->
<g id="edge41" class="edge">
<title>35&#45;&gt;23</title>
<path fill="none" stroke="black" d="M2161.03,-288.08C2360.3,-274.4 2633.51,-255.65 2796.2,-244.49"/>
<polygon fill="black" stroke="black" points="2796,-248.01 2805.73,-243.83 2795.52,-241.03 2796,-248.01"/>
</g>
<!-- 36 -->
<g id="node37" class="node">
<title>36</title>
<ellipse fill="none" stroke="black" cx="736.44" cy="-306" rx="149.11" ry="18"/>
<text text-anchor="middle" x="736.44" y="-300.95" font-family="Times New Roman,serif" font-size="14.00">Variable[&quot;tc.turn_off_tutorial_node&quot;]</text>
</g>
<!-- 37 -->
<g id="node38" class="node">
<title>37</title>
<polygon fill="none" stroke="black" points="963.44,-252 752.57,-234 963.44,-216 1174.31,-234 963.44,-252"/>
<text text-anchor="middle" x="963.44" y="-228.95" font-family="Times New Roman,serif" font-size="14.00">Variable[&quot;tc.turn_off_tutorial_node&quot;]</text>
</g>
<!-- 36&#45;&gt;37 -->
<g id="edge42" class="edge">
<title>36&#45;&gt;37</title>
<path fill="none" stroke="black" d="M789.09,-288.76C824.82,-277.75 871.97,-263.21 908.22,-252.03"/>
<polygon fill="black" stroke="black" points="909.13,-255.41 917.66,-249.12 907.07,-248.72 909.13,-255.41"/>
</g>
<!-- 38 -->
<g id="node39" class="node">
<title>38</title>
<polygon fill="none" stroke="black" points="510.44,-252 286.55,-234 510.44,-216 734.34,-234 510.44,-252"/>
<text text-anchor="middle" x="510.44" y="-228.95" font-family="Times New Roman,serif" font-size="14.00">!(Variable[&quot;tc.turn_off_tutorial_node&quot;])</text>
</g>
<!-- 36&#45;&gt;38 -->
<g id="edge43" class="edge">
<title>36&#45;&gt;38</title>
<path fill="none" stroke="black" d="M684.03,-288.76C648.57,-277.78 601.83,-263.31 565.78,-252.14"/>
<polygon fill="black" stroke="black" points="566.99,-248.85 556.4,-249.24 564.92,-255.54 566.99,-248.85"/>
</g>
<!-- 38&#45;&gt;18 -->
<g id="edge44" class="edge">
<title>38&#45;&gt;18</title>
<path fill="none" stroke="black" d="M510.44,-215.7C510.44,-208.41 510.44,-199.73 510.44,-191.54"/>
<polygon fill="black" stroke="black" points="513.94,-191.62 510.44,-181.62 506.94,-191.62 513.94,-191.62"/>
</g>
<!-- 39&#45;&gt;36 -->
<g id="edge45" class="edge">
<title>39&#45;&gt;36</title>
<path fill="none" stroke="black" d="M1363.03,-360.33C1224.06,-350.82 1049.79,-338.02 894.44,-324 881.46,-322.83 867.88,-321.51 854.37,-320.14"/>
<polygon fill="black" stroke="black" points="854.87,-316.67 844.56,-319.13 854.15,-323.63 854.87,-316.67"/>
</g>
<!-- 45 -->
<g id="node46" class="node">
<title>45</title>
<ellipse fill="none" stroke="black" cx="5225.44" cy="-378" rx="320.05" ry="18"/>
<text text-anchor="middle" x="5225.44" y="-372.95" font-family="Times New Roman,serif" font-size="14.00">Logic: 吸烟稍微有助于集中集中注意力，这可是货真价实的。</text>
</g>
<!-- 40&#45;&gt;45 -->
<g id="edge46" class="edge">
<title>40&#45;&gt;45</title>
<path fill="none" stroke="black" d="M5058.6,-431.61C5089.41,-421.89 5127.97,-409.73 5160.26,-399.55"/>
<polygon fill="black" stroke="black" points="5161.02,-402.98 5169.51,-396.64 5158.92,-396.31 5161.02,-402.98"/>
</g>
<!-- 42 -->
<g id="node43" class="node">
<title>42</title>
<polygon fill="none" stroke="black" points="3423.44,-1548 3012.8,-1530 3423.44,-1512 3834.08,-1530 3423.44,-1548"/>
<text text-anchor="middle" x="3423.44" y="-1524.95" font-family="Times New Roman,serif" font-size="14.00">Variable[&quot;whirling.necktie_personified&quot;] &#160;and &#160;CheckEquipped(&quot;neck_tie&quot;)</text>
</g>
<!-- 41&#45;&gt;42 -->
<g id="edge47" class="edge">
<title>41&#45;&gt;42</title>
<path fill="none" stroke="black" d="M3423.44,-1583.7C3423.44,-1576.41 3423.44,-1567.73 3423.44,-1559.54"/>
<polygon fill="black" stroke="black" points="3426.94,-1559.62 3423.44,-1549.62 3419.94,-1559.62 3426.94,-1559.62"/>
</g>
<!-- 43 -->
<g id="node44" class="node">
<title>43</title>
<polygon fill="none" stroke="black" points="4887.44,-1476 4463.78,-1458 4887.44,-1440 5311.11,-1458 4887.44,-1476"/>
<text text-anchor="middle" x="4887.44" y="-1452.95" font-family="Times New Roman,serif" font-size="14.00">!(Variable[&quot;whirling.necktie_personified&quot;] &#160;and &#160;CheckEquipped(&quot;neck_tie&quot;))</text>
</g>
<!-- 41&#45;&gt;43 -->
<g id="edge48" class="edge">
<title>41&#45;&gt;43</title>
<path fill="none" stroke="black" d="M3575.63,-1586.24C3862.05,-1558.46 4476.96,-1498.81 4750.91,-1472.24"/>
<polygon fill="black" stroke="black" points="4750.98,-1475.75 4760.6,-1471.3 4750.31,-1468.79 4750.98,-1475.75"/>
</g>
<!-- 62 -->
<g id="node62" class="node">
<title>62</title>
<ellipse fill="none" stroke="black" cx="3423.44" cy="-1458" rx="1022.76" ry="18"/>
<text text-anchor="middle" x="3423.44" y="-1452.95" font-family="Times New Roman,serif" font-size="14.00">Horrific Necktie: 是啊，*哥们儿*！（领带绕在你的脖子上，兴奋地颤抖着。）请务必点上这支烟。你*迫切需要*在嘴边叼上一位天降尼古丁的神兵！安抚一下你的瘾头。前往极乐世界。成为*天才*吧！</text>
</g>
<!-- 42&#45;&gt;62 -->
<g id="edge49" class="edge">
<title>42&#45;&gt;62</title>
<path fill="none" stroke="black" d="M3423.44,-1511.7C3423.44,-1504.41 3423.44,-1495.73 3423.44,-1487.54"/>
<polygon fill="black" stroke="black" points="3426.94,-1487.62 3423.44,-1477.62 3419.94,-1487.62 3426.94,-1487.62"/>
</g>
<!-- 43&#45;&gt;61 -->
<g id="edge50" class="edge">
<title>43&#45;&gt;61</title>
<path fill="none" stroke="black" d="M4887.44,-1439.7C4887.44,-1432.41 4887.44,-1423.73 4887.44,-1415.54"/>
<polygon fill="black" stroke="black" points="4890.94,-1415.62 4887.44,-1405.62 4883.94,-1415.62 4890.94,-1415.62"/>
</g>
<!-- 44&#45;&gt;39 -->
<g id="edge51" class="edge">
<title>44&#45;&gt;39</title>
<path fill="none" stroke="black" d="M1869.68,-1661.44C1719,-1645.03 1500.44,-1607.95 1500.44,-1531 1500.44,-1531 1500.44,-1531 1500.44,-521 1500.44,-469.56 1547.01,-427.3 1582.36,-402.62"/>
<polygon fill="black" stroke="black" points="1583.95,-405.77 1590.28,-397.28 1580.03,-399.97 1583.95,-405.77"/>
</g>
<!-- 45&#45;&gt;14 -->
<g id="edge52" class="edge">
<title>45&#45;&gt;14</title>
<path fill="none" stroke="black" d="M5329.82,-360.54C5395.51,-350.19 5480.51,-336.79 5549.04,-325.98"/>
<polygon fill="black" stroke="black" points="5549.5,-329.45 5558.83,-324.44 5548.41,-322.54 5549.5,-329.45"/>
</g>
<!-- 46 -->
<g id="node47" class="node">
<title>46</title>
<ellipse fill="none" stroke="black" cx="6815.44" cy="-1314" rx="228.95" ry="18"/>
<text text-anchor="middle" x="6815.44" y="-1308.95" font-family="Times New Roman,serif" font-size="14.00">You: 我不想*现在就*点烟，还有人看着呢。</text>
</g>
<!-- 70 -->
<g id="node70" class="node">
<title>70</title>
<ellipse fill="none" stroke="black" cx="6937.44" cy="-1242" rx="470.52" ry="18"/>
<text text-anchor="middle" x="6937.44" y="-1236.95" font-family="Times New Roman,serif" font-size="14.00">Electrochemistry: 有人看着？你这懦夫！人们*一直*在看着——所以这样才*酷*呢，别废话了！</text>
</g>
<!-- 46&#45;&gt;70 -->
<g id="edge53" class="edge">
<title>46&#45;&gt;70</title>
<path fill="none" stroke="black" d="M6845.6,-1295.7C6861.29,-1286.69 6880.68,-1275.57 6897.59,-1265.87"/>
<polygon fill="black" stroke="black" points="6898.97,-1269.11 6905.9,-1261.1 6895.48,-1263.04 6898.97,-1269.11"/>
</g>
<!-- 47&#45;&gt;6 -->
<g id="edge54" class="edge">
<title>47&#45;&gt;6</title>
<path fill="none" stroke="black" d="M2716.16,-1732.97C2780.89,-1722.26 2876.67,-1706.41 2951.72,-1693.99"/>
<polygon fill="black" stroke="black" points="2951.85,-1697.51 2961.14,-1692.43 2950.7,-1690.61 2951.85,-1697.51"/>
</g>
<!-- 48&#45;&gt;2 -->
<g id="edge55" class="edge">
<title>48&#45;&gt;2</title>
<path fill="none" stroke="black" d="M4287.66,-588.83C4111.02,-578.71 3653.47,-552.5 3371.88,-536.37"/>
<polygon fill="black" stroke="black" points="3372.39,-532.9 3362.2,-535.82 3371.99,-539.88 3372.39,-532.9"/>
</g>
<!-- 48&#45;&gt;12 -->
<g id="edge56" class="edge">
<title>48&#45;&gt;12</title>
<path fill="none" stroke="black" d="M4424.97,-584.35C4508.27,-573.18 4654.94,-553.51 4759.76,-539.45"/>
<polygon fill="black" stroke="black" points="4760.1,-542.94 4769.55,-538.14 4759.17,-536 4760.1,-542.94"/>
</g>
<!-- 48&#45;&gt;13 -->
<g id="edge57" class="edge">
<title>48&#45;&gt;13</title>
<path fill="none" stroke="black" d="M4341.25,-576.41C4331.28,-567.8 4318.91,-557.1 4307.86,-547.55"/>
<polygon fill="black" stroke="black" points="4310.35,-545.08 4300.49,-541.19 4305.77,-550.38 4310.35,-545.08"/>
</g>
<!-- 52 -->
<g id="node52" class="node">
<title>52</title>
<ellipse fill="none" stroke="black" cx="3965.44" cy="-954" rx="121.47" ry="18"/>
<text text-anchor="middle" x="3965.44" y="-948.95" font-family="Times New Roman,serif" font-size="14.00">Variable[&quot;auto.smoke_fritte&quot;]</text>
</g>
<!-- 49&#45;&gt;52 -->
<g id="edge58" class="edge">
<title>49&#45;&gt;52</title>
<path fill="none" stroke="black" d="M3965.44,-1007.7C3965.44,-1000.41 3965.44,-991.73 3965.44,-983.54"/>
<polygon fill="black" stroke="black" points="3968.94,-983.62 3965.44,-973.62 3961.94,-983.62 3968.94,-983.62"/>
</g>
<!-- 51 -->
<g id="node51" class="node">
<title>51</title>
<ellipse fill="none" stroke="black" cx="4360.44" cy="-666" rx="586.7" ry="18"/>
<text text-anchor="middle" x="4360.44" y="-660.95" font-family="Times New Roman,serif" font-size="14.00">Idiot Doom Spiral: 穿着恶臭运动服的男人一本正经地点了点头。“这是冒险途中应得的休息。我们都需要这种放松。”</text>
</g>
<!-- 51&#45;&gt;48 -->
<g id="edge59" class="edge">
<title>51&#45;&gt;48</title>
<path fill="none" stroke="black" d="M4360.44,-647.7C4360.44,-640.41 4360.44,-631.73 4360.44,-623.54"/>
<polygon fill="black" stroke="black" points="4363.94,-623.62 4360.44,-613.62 4356.94,-623.62 4363.94,-623.62"/>
</g>
<!-- 53 -->
<g id="node53" class="node">
<title>53</title>
<polygon fill="none" stroke="black" points="3865.44,-900 3693.66,-882 3865.44,-864 4037.23,-882 3865.44,-900"/>
<text text-anchor="middle" x="3865.44" y="-876.95" font-family="Times New Roman,serif" font-size="14.00">Variable[&quot;auto.smoke_fritte&quot;]</text>
</g>
<!-- 52&#45;&gt;53 -->
<g id="edge60" class="edge">
<title>52&#45;&gt;53</title>
<path fill="none" stroke="black" d="M3940.98,-935.88C3927.41,-926.38 3910.42,-914.48 3895.99,-904.38"/>
<polygon fill="black" stroke="black" points="3898.38,-901.78 3888.18,-898.91 3894.36,-907.52 3898.38,-901.78"/>
</g>
<!-- 54 -->
<g id="node54" class="node">
<title>54</title>
<polygon fill="none" stroke="black" points="4478.44,-900 4293.63,-882 4478.44,-864 4663.26,-882 4478.44,-900"/>
<text text-anchor="middle" x="4478.44" y="-876.95" font-family="Times New Roman,serif" font-size="14.00">!(Variable[&quot;auto.smoke_fritte&quot;])</text>
</g>
<!-- 52&#45;&gt;54 -->
<g id="edge61" class="edge">
<title>52&#45;&gt;54</title>
<path fill="none" stroke="black" d="M4052.76,-941.09C4147.58,-928.15 4298.08,-907.61 4392.4,-894.74"/>
<polygon fill="black" stroke="black" points="4392.68,-898.23 4402.12,-893.41 4391.74,-891.3 4392.68,-898.23"/>
</g>
<!-- 53&#45;&gt;34 -->
<g id="edge62" class="edge">
<title>53&#45;&gt;34</title>
<path fill="none" stroke="black" d="M3840.29,-866.33C3824.28,-856.99 3803.22,-844.7 3785,-834.08"/>
<polygon fill="black" stroke="black" points="3786.94,-831.15 3776.54,-829.14 3783.41,-837.2 3786.94,-831.15"/>
</g>
<!-- 67 -->
<g id="node67" class="node">
<title>67</title>
<ellipse fill="none" stroke="black" cx="4597.44" cy="-810" rx="145.52" ry="18"/>
<text text-anchor="middle" x="4597.44" y="-804.95" font-family="Times New Roman,serif" font-size="14.00">Variable[&quot;auto.smoke_doomspiral&quot;]</text>
</g>
<!-- 54&#45;&gt;67 -->
<g id="edge63" class="edge">
<title>54&#45;&gt;67</title>
<path fill="none" stroke="black" d="M4503.68,-866.15C4519.68,-856.74 4540.7,-844.38 4558.78,-833.74"/>
<polygon fill="black" stroke="black" points="4560.33,-836.89 4567.17,-828.81 4556.78,-830.86 4560.33,-836.89"/>
</g>
<!-- 55&#45;&gt;49 -->
<g id="edge64" class="edge">
<title>55&#45;&gt;49</title>
<path fill="none" stroke="black" d="M2799.44,-1081.27C3052.26,-1069.5 3395.78,-1053.51 3644.41,-1041.94"/>
<polygon fill="black" stroke="black" points="3644.47,-1045.44 3654.3,-1041.48 3644.14,-1038.45 3644.47,-1045.44"/>
</g>
<!-- 56&#45;&gt;61 -->
<g id="edge65" class="edge">
<title>56&#45;&gt;61</title>
<path fill="none" stroke="black" d="M6017.11,-966.79C6029.89,-968.64 6043.03,-970.44 6055.44,-972 6133.9,-981.83 6350.57,-955.22 6409.44,-1008 6439.56,-1035 6428.44,-1056.55 6428.44,-1097 6428.44,-1243 6428.44,-1243 6428.44,-1243 6428.44,-1317.6 5268.09,-1369.66 4961.17,-1382.12"/>
<polygon fill="black" stroke="black" points="4961.12,-1378.62 4951.27,-1382.52 4961.41,-1385.61 4961.12,-1378.62"/>
</g>
<!-- 57&#45;&gt;48 -->
<g id="edge66" class="edge">
<title>57&#45;&gt;48</title>
<path fill="none" stroke="black" d="M6137.23,-23.02C6223.55,-28.5 6333.12,-41.44 6365.44,-72 6394.83,-99.79 6384.44,-120.55 6384.44,-161 6384.44,-451 6384.44,-451 6384.44,-451 6384.44,-549.68 4833.31,-584.41 4446.85,-591.53"/>
<polygon fill="black" stroke="black" points="4446.93,-588.03 4437,-591.71 4447.06,-595.03 4446.93,-588.03"/>
</g>
<!-- 58&#45;&gt;33 -->
<g id="edge67" class="edge">
<title>58&#45;&gt;33</title>
<path fill="none" stroke="black" d="M6520.44,-935.7C6520.44,-928.41 6520.44,-919.73 6520.44,-911.54"/>
<polygon fill="black" stroke="black" points="6523.94,-911.62 6520.44,-901.62 6516.94,-911.62 6523.94,-911.62"/>
</g>
<!-- 59 -->
<g id="node59" class="node">
<title>59</title>
<ellipse fill="none" stroke="black" cx="5392.44" cy="-1314" rx="255.05" ry="18"/>
<text text-anchor="middle" x="5392.44" y="-1308.95" font-family="Times New Roman,serif" font-size="14.00">You: 我已经犯过心脏病了。也许吸烟有害健康？</text>
</g>
<!-- 64 -->
<g id="node64" class="node">
<title>64</title>
<ellipse fill="none" stroke="black" cx="5613.44" cy="-1242" rx="698.28" ry="18"/>
<text text-anchor="middle" x="5613.44" y="-1236.95" font-family="Times New Roman,serif" font-size="14.00">Electrochemistry: 不，真正*有害健康*的是烦恼和担忧。*压力*才是导致你心脏停跳的罪魁祸首。吸烟只会减轻你的压力。这是一剂良药。</text>
</g>
<!-- 59&#45;&gt;64 -->
<g id="edge68" class="edge">
<title>59&#45;&gt;64</title>
<path fill="none" stroke="black" d="M5446.22,-1295.97C5476.87,-1286.26 5515.51,-1274.02 5547.92,-1263.75"/>
<polygon fill="black" stroke="black" points="5548.73,-1267.17 5557.21,-1260.81 5546.62,-1260.49 5548.73,-1267.17"/>
</g>
<!-- 60 -->
<g id="node60" class="node">
<title>60</title>
<ellipse fill="none" stroke="black" cx="1742.44" cy="-666" rx="214.11" ry="18"/>
<text text-anchor="middle" x="1742.44" y="-660.95" font-family="Times New Roman,serif" font-size="14.00">You: 把烟塞回烟盒里。[忽略这个想法。]</text>
</g>
<!-- 60&#45;&gt;39 -->
<g id="edge69" class="edge">
<title>60&#45;&gt;39</title>
<path fill="none" stroke="black" d="M1735.06,-647.54C1714.71,-599.46 1657.76,-464.83 1633.08,-406.51"/>
<polygon fill="black" stroke="black" points="1636.44,-405.47 1629.32,-397.63 1630,-408.2 1636.44,-405.47"/>
</g>
<!-- 61&#45;&gt;21 -->
<g id="edge72" class="edge">
<title>61&#45;&gt;21</title>
<path fill="none" stroke="black" d="M4832.65,-1376.63C4748.86,-1363.82 4589.02,-1339.39 4497.77,-1325.44"/>
<polygon fill="black" stroke="black" points="4498.36,-1321.99 4487.95,-1323.94 4497.3,-1328.91 4498.36,-1321.99"/>
</g>
<!-- 61&#45;&gt;46 -->
<g id="edge73" class="edge">
<title>61&#45;&gt;46</title>
<path fill="none" stroke="black" d="M4950.04,-1383.12C5160.58,-1376.76 5862.48,-1355.1 6442.44,-1332 6497.59,-1329.8 6557.31,-1327.19 6612.46,-1324.67"/>
<polygon fill="black" stroke="black" points="6612.45,-1328.18 6622.28,-1324.23 6612.13,-1321.19 6612.45,-1328.18"/>
</g>
<!-- 61&#45;&gt;59 -->
<g id="edge70" class="edge">
<title>61&#45;&gt;59</title>
<path fill="none" stroke="black" d="M4943.42,-1377.24C5021.47,-1366.42 5165.08,-1346.52 5268.91,-1332.12"/>
<polygon fill="black" stroke="black" points="5269.17,-1335.62 5278.6,-1330.78 5268.21,-1328.69 5269.17,-1335.62"/>
</g>
<!-- 61&#45;&gt;60 -->
<g id="edge71" class="edge">
<title>61&#45;&gt;60</title>
<path fill="none" stroke="black" d="M4824.4,-1383.94C4372.22,-1376.17 1640.44,-1325.81 1640.44,-1243 1640.44,-1243 1640.44,-1243 1640.44,-809 1640.44,-760.38 1680.38,-717.01 1710.27,-691.35"/>
<polygon fill="black" stroke="black" points="1712.16,-694.33 1717.62,-685.25 1707.69,-688.95 1712.16,-694.33"/>
</g>
<!-- 62&#45;&gt;61 -->
<g id="edge74" class="edge">
<title>62&#45;&gt;61</title>
<path fill="none" stroke="black" d="M3766.69,-1440.59C4113.75,-1423.99 4625.06,-1399.55 4813.88,-1390.52"/>
<polygon fill="black" stroke="black" points="4813.98,-1394.02 4823.8,-1390.04 4813.65,-1387.02 4813.98,-1394.02"/>
</g>
<!-- 63&#45;&gt;56 -->
<g id="edge75" class="edge">
<title>63&#45;&gt;56</title>
<path fill="none" stroke="black" d="M5379.48,-1009.94C5519.14,-996.29 5720.93,-976.56 5840.88,-964.83"/>
<polygon fill="black" stroke="black" points="5841.11,-968.33 5850.72,-963.87 5840.43,-961.36 5841.11,-968.33"/>
</g>
<!-- 64&#45;&gt;27 -->
<g id="edge76" class="edge">
<title>64&#45;&gt;27</title>
<path fill="none" stroke="black" d="M5613.44,-1223.7C5613.44,-1216.41 5613.44,-1207.73 5613.44,-1199.54"/>
<polygon fill="black" stroke="black" points="5616.94,-1199.62 5613.44,-1189.62 5609.94,-1199.62 5616.94,-1199.62"/>
</g>
<!-- 66&#45;&gt;57 -->
<g id="edge77" class="edge">
<title>66&#45;&gt;57</title>
<path fill="none" stroke="black" d="M5508.5,-73.64C5632.5,-60.51 5808,-41.92 5918.99,-30.17"/>
<polygon fill="black" stroke="black" points="5919.12,-33.67 5928.69,-29.14 5918.38,-26.71 5919.12,-33.67"/>
</g>
<!-- 68 -->
<g id="node68" class="node">
<title>68</title>
<polygon fill="none" stroke="black" points="4478.44,-756 4272.64,-738 4478.44,-720 4684.25,-738 4478.44,-756"/>
<text text-anchor="middle" x="4478.44" y="-732.95" font-family="Times New Roman,serif" font-size="14.00">Variable[&quot;auto.smoke_doomspiral&quot;]</text>
</g>
<!-- 67&#45;&gt;68 -->
<g id="edge78" class="edge">
<title>67&#45;&gt;68</title>
<path fill="none" stroke="black" d="M4568.33,-791.88C4551.88,-782.2 4531.2,-770.03 4513.81,-759.81"/>
<polygon fill="black" stroke="black" points="4515.72,-756.87 4505.33,-754.81 4512.17,-762.9 4515.72,-756.87"/>
</g>
<!-- 69 -->
<g id="node69" class="node">
<title>69</title>
<polygon fill="none" stroke="black" points="5184.44,-684 4965.61,-666 5184.44,-648 5403.27,-666 5184.44,-684"/>
<text text-anchor="middle" x="5184.44" y="-660.95" font-family="Times New Roman,serif" font-size="14.00">!(Variable[&quot;auto.smoke_doomspiral&quot;])</text>
</g>
<!-- 67&#45;&gt;69 -->
<g id="edge79" class="edge">
<title>67&#45;&gt;69</title>
<path fill="none" stroke="black" d="M4661.66,-793.47C4774.37,-766.2 5006.55,-710.03 5119.66,-682.67"/>
<polygon fill="black" stroke="black" points="5120.19,-686.15 5129.08,-680.39 5118.54,-679.34 5120.19,-686.15"/>
</g>
<!-- 68&#45;&gt;51 -->
<g id="edge80" class="edge">
<title>68&#45;&gt;51</title>
<path fill="none" stroke="black" d="M4452.84,-721.81C4437.17,-712.51 4416.81,-700.44 4399.2,-689.99"/>
<polygon fill="black" stroke="black" points="4401.43,-687.24 4391.04,-685.15 4397.85,-693.26 4401.43,-687.24"/>
</g>
<!-- 69&#45;&gt;48 -->
<g id="edge81" class="edge">
<title>69&#45;&gt;48</title>
<path fill="none" stroke="black" d="M5080.08,-656.13C4913.9,-642.02 4592.55,-614.72 4442,-601.93"/>
<polygon fill="black" stroke="black" points="4442.35,-598.45 4432.09,-601.09 4441.76,-605.42 4442.35,-598.45"/>
</g>
<!-- 70&#45;&gt;7 -->
<g id="edge82" class="edge">
<title>70&#45;&gt;7</title>
<path fill="none" stroke="black" d="M6939.67,-1223.7C6940.62,-1216.32 6941.75,-1207.52 6942.81,-1199.25"/>
<polygon fill="black" stroke="black" points="6946.25,-1199.97 6944.05,-1189.61 6939.3,-1199.08 6946.25,-1199.97"/>
</g>
</g>
</svg>
