<?xml version="1.0" encoding="UTF-8" standalone="no"?>
<!DOCTYPE svg PUBLIC "-//W3C//DTD SVG 1.1//EN"
 "http://www.w3.org/Graphics/SVG/1.1/DTD/svg11.dtd">
<!-- Generated by graphviz version 12.2.1 (20241206.2353)
 -->
<!-- Title: G Pages: 1 -->
<svg width="1294pt" height="188pt"
 viewBox="0.00 0.00 1294.32 188.00" xmlns="http://www.w3.org/2000/svg" xmlns:xlink="http://www.w3.org/1999/xlink">
<g id="graph0" class="graph" transform="scale(1 1) rotate(0) translate(4 184)">
<title>G</title>
<polygon fill="white" stroke="none" points="-4,4 -4,-184 1290.32,-184 1290.32,4 -4,4"/>
<!-- 0 -->
<g id="node1" class="node">
<title>0</title>
<ellipse fill="none" stroke="black" cx="39.07" cy="-162" rx="39.07" ry="18"/>
<text text-anchor="middle" x="39.07" y="-156.95" font-family="Times New Roman,serif" font-size="14.00">START</text>
</g>
<!-- 0&#45;&gt;0 -->
<g id="edge1" class="edge">
<title>0&#45;&gt;0</title>
<path fill="none" stroke="black" d="M67.26,-174.94C82.37,-177.14 96.14,-172.83 96.14,-162 96.14,-153.96 88.55,-149.52 78.46,-148.65"/>
<polygon fill="black" stroke="black" points="78.64,-145.15 68.77,-149 78.89,-152.14 78.64,-145.15"/>
</g>
<!-- 1 -->
<g id="node2" class="node">
<title>1</title>
<ellipse fill="none" stroke="black" cx="592.07" cy="-90" rx="29.86" ry="18"/>
<text text-anchor="middle" x="592.07" y="-84.95" font-family="Times New Roman,serif" font-size="14.00">input</text>
</g>
<!-- 3 -->
<g id="node4" class="node">
<title>3</title>
<ellipse fill="none" stroke="black" cx="592.07" cy="-18" rx="179.3" ry="18"/>
<text text-anchor="middle" x="592.07" y="-12.95" font-family="Times New Roman,serif" font-size="14.00">Inland Empire: 走吧……去垃圾箱……</text>
</g>
<!-- 1&#45;&gt;3 -->
<g id="edge2" class="edge">
<title>1&#45;&gt;3</title>
<path fill="none" stroke="black" d="M592.07,-71.7C592.07,-64.41 592.07,-55.73 592.07,-47.54"/>
<polygon fill="black" stroke="black" points="595.57,-47.62 592.07,-37.62 588.57,-47.62 595.57,-47.62"/>
</g>
<!-- 2 -->
<g id="node3" class="node">
<title>2</title>
<ellipse fill="none" stroke="black" cx="1178.07" cy="-162" rx="90.25" ry="18"/>
<text text-anchor="middle" x="1178.07" y="-156.95" font-family="Times New Roman,serif" font-size="14.00">You: 什么选项？</text>
</g>
<!-- 2&#45;&gt;2 -->
<g id="edge3" class="edge">
<title>2&#45;&gt;2</title>
<path fill="none" stroke="black" d="M1240.36,-175.42C1265.35,-176.18 1286.32,-171.7 1286.32,-162 1286.32,-153.81 1271.39,-149.35 1251.71,-148.61"/>
<polygon fill="black" stroke="black" points="1251.88,-145.11 1241.88,-148.59 1251.87,-152.11 1251.88,-145.11"/>
</g>
<!-- 4 -->
<g id="node5" class="node">
<title>4</title>
<ellipse fill="none" stroke="black" cx="592.07" cy="-162" rx="477.69" ry="18"/>
<text text-anchor="middle" x="592.07" y="-156.95" font-family="Times New Roman,serif" font-size="14.00">Inland Empire: 干得好。你彻底搞砸了。没钱也没办法付清加尔特的账。你只剩一个选项了……</text>
</g>
<!-- 4&#45;&gt;1 -->
<g id="edge4" class="edge">
<title>4&#45;&gt;1</title>
<path fill="none" stroke="black" d="M592.07,-143.7C592.07,-136.41 592.07,-127.73 592.07,-119.54"/>
<polygon fill="black" stroke="black" points="595.57,-119.62 592.07,-109.62 588.57,-119.62 595.57,-119.62"/>
</g>
</g>
</svg>
