<?xml version="1.0" encoding="UTF-8" standalone="no"?>
<!DOCTYPE svg PUBLIC "-//W3C//DTD SVG 1.1//EN"
 "http://www.w3.org/Graphics/SVG/1.1/DTD/svg11.dtd">
<!-- Generated by graphviz version 12.2.1 (20241206.2353)
 -->
<!-- Title: G Pages: 1 -->
<svg width="4902pt" height="1916pt"
 viewBox="0.00 0.00 4901.54 1916.00" xmlns="http://www.w3.org/2000/svg" xmlns:xlink="http://www.w3.org/1999/xlink">
<g id="graph0" class="graph" transform="scale(1 1) rotate(0) translate(4 1912)">
<title>G</title>
<polygon fill="white" stroke="none" points="-4,4 -4,-1912 4897.54,-1912 4897.54,4 -4,4"/>
<!-- 0 -->
<g id="node1" class="node">
<title>0</title>
<ellipse fill="none" stroke="black" cx="2400.61" cy="-1890" rx="39.07" ry="18"/>
<text text-anchor="middle" x="2400.61" y="-1884.95" font-family="Times New Roman,serif" font-size="14.00">START</text>
</g>
<!-- 1 -->
<g id="node2" class="node">
<title>1</title>
<ellipse fill="none" stroke="black" cx="2400.61" cy="-1818" rx="29.86" ry="18"/>
<text text-anchor="middle" x="2400.61" y="-1812.95" font-family="Times New Roman,serif" font-size="14.00">input</text>
</g>
<!-- 0&#45;&gt;1 -->
<g id="edge1" class="edge">
<title>0&#45;&gt;1</title>
<path fill="none" stroke="black" d="M2400.61,-1871.7C2400.61,-1864.41 2400.61,-1855.73 2400.61,-1847.54"/>
<polygon fill="black" stroke="black" points="2404.11,-1847.62 2400.61,-1837.62 2397.11,-1847.62 2404.11,-1847.62"/>
</g>
<!-- 4 -->
<g id="node5" class="node">
<title>4</title>
<ellipse fill="none" stroke="black" cx="2400.61" cy="-1746" rx="422.92" ry="18"/>
<text text-anchor="middle" x="2400.61" y="-1740.95" font-family="Times New Roman,serif" font-size="14.00">Dried Wildflower: 六片破碎的花瓣躺在你的掌心。它们是白色的，铃铛形状的王冠。</text>
</g>
<!-- 1&#45;&gt;4 -->
<g id="edge2" class="edge">
<title>1&#45;&gt;4</title>
<path fill="none" stroke="black" d="M2400.61,-1799.7C2400.61,-1792.41 2400.61,-1783.73 2400.61,-1775.54"/>
<polygon fill="black" stroke="black" points="2404.11,-1775.62 2400.61,-1765.62 2397.11,-1775.62 2404.11,-1775.62"/>
</g>
<!-- 2 -->
<g id="node3" class="node">
<title>2</title>
<ellipse fill="none" stroke="black" cx="562.61" cy="-1026" rx="121.98" ry="18"/>
<text text-anchor="middle" x="562.61" y="-1020.95" font-family="Times New Roman,serif" font-size="14.00">You: “大革命是什么？”</text>
</g>
<!-- 9 -->
<g id="node10" class="node">
<title>9</title>
<ellipse fill="none" stroke="black" cx="541.61" cy="-882" rx="525.29" ry="18"/>
<text text-anchor="middle" x="541.61" y="-876.95" font-family="Times New Roman,serif" font-size="14.00">Kim Kitsuragi: “一场大型的政治和军事冲突。在附近问问，或者买本书看。”他似乎被这个问题惹恼了。</text>
</g>
<!-- 2&#45;&gt;9 -->
<g id="edge3" class="edge">
<title>2&#45;&gt;9</title>
<path fill="none" stroke="black" d="M560.04,-1007.59C556.49,-983.61 550.06,-940.14 545.81,-911.42"/>
<polygon fill="black" stroke="black" points="549.29,-910.99 544.36,-901.61 542.36,-912.01 549.29,-910.99"/>
</g>
<!-- 3 -->
<g id="node4" class="node">
<title>3</title>
<ellipse fill="none" stroke="black" cx="4252.61" cy="-954" rx="616.9" ry="18"/>
<text text-anchor="middle" x="4252.61" y="-948.95" font-family="Times New Roman,serif" font-size="14.00">Kim Kitsuragi: “是的，不过并没有*这么*早——据我所知并不是这样……”他观察着花瓣：“看起来脱过水，是保藏起来的。”</text>
</g>
<!-- 47 -->
<g id="node48" class="node">
<title>47</title>
<ellipse fill="none" stroke="black" cx="4574.61" cy="-882" rx="89.74" ry="18"/>
<text text-anchor="middle" x="4574.61" y="-876.95" font-family="Times New Roman,serif" font-size="14.00">Jump to: [da_flower]</text>
</g>
<!-- 3&#45;&gt;47 -->
<g id="edge4" class="edge">
<title>3&#45;&gt;47</title>
<path fill="none" stroke="black" d="M4332.21,-935.7C4384.93,-924.24 4453.45,-909.34 4504.19,-898.31"/>
<polygon fill="black" stroke="black" points="4504.88,-901.74 4513.9,-896.2 4503.39,-894.9 4504.88,-901.74"/>
</g>
<!-- 40 -->
<g id="node41" class="node">
<title>40</title>
<ellipse fill="none" stroke="black" cx="2400.61" cy="-1674" rx="58.52" ry="18"/>
<text text-anchor="middle" x="2400.61" y="-1668.95" font-family="Times New Roman,serif" font-size="14.00">IsKimHere()</text>
</g>
<!-- 4&#45;&gt;40 -->
<g id="edge5" class="edge">
<title>4&#45;&gt;40</title>
<path fill="none" stroke="black" d="M2400.61,-1727.7C2400.61,-1720.41 2400.61,-1711.73 2400.61,-1703.54"/>
<polygon fill="black" stroke="black" points="2404.11,-1703.62 2400.61,-1693.62 2397.11,-1703.62 2404.11,-1703.62"/>
</g>
<!-- 5 -->
<g id="node6" class="node">
<title>5</title>
<ellipse fill="none" stroke="black" cx="3412.61" cy="-882" rx="463.36" ry="18"/>
<text text-anchor="middle" x="3412.61" y="-876.95" font-family="Times New Roman,serif" font-size="14.00">Shivers: 运河大桥下，水潺潺流过——是黑水。你摩擦着身体寻求温暖，然而并没有效果。</text>
</g>
<!-- 18 -->
<g id="node19" class="node">
<title>18</title>
<ellipse fill="none" stroke="black" cx="3412.61" cy="-810" rx="189.03" ry="18"/>
<text text-anchor="middle" x="3412.61" y="-804.95" font-family="Times New Roman,serif" font-size="14.00">Variable[&quot;whirling.klaasje_shivers_may_bells&quot;]</text>
</g>
<!-- 5&#45;&gt;18 -->
<g id="edge6" class="edge">
<title>5&#45;&gt;18</title>
<path fill="none" stroke="black" d="M3412.61,-863.7C3412.61,-856.41 3412.61,-847.73 3412.61,-839.54"/>
<polygon fill="black" stroke="black" points="3416.11,-839.62 3412.61,-829.62 3409.11,-839.62 3416.11,-839.62"/>
</g>
<!-- 6 -->
<g id="node7" class="node">
<title>6</title>
<ellipse fill="none" stroke="black" cx="3838.61" cy="-18" rx="538.08" ry="18"/>
<text text-anchor="middle" x="3838.61" y="-12.95" font-family="Times New Roman,serif" font-size="14.00">Reaction Speed: 等等，你有没有注意到有个*老兵*在玩球类游戏——就在广场上？你应该找他打听花的事。</text>
</g>
<!-- 7 -->
<g id="node8" class="node">
<title>7</title>
<ellipse fill="none" stroke="black" cx="2733.61" cy="-522" rx="439.81" ry="18"/>
<text text-anchor="middle" x="2733.61" y="-516.95" font-family="Times New Roman,serif" font-size="14.00">Shivers: ……老人用皱巴巴的手指碾碎花瓣。然后把它们洒在小溪里，就像白色的盐。</text>
</g>
<!-- 29 -->
<g id="node30" class="node">
<title>29</title>
<ellipse fill="none" stroke="black" cx="3251.61" cy="-450" rx="200.8" ry="18"/>
<text text-anchor="middle" x="3251.61" y="-444.95" font-family="Times New Roman,serif" font-size="14.00">Variable[&quot;TASK.ask_rene_about_maybells_done&quot;]</text>
</g>
<!-- 7&#45;&gt;29 -->
<g id="edge7" class="edge">
<title>7&#45;&gt;29</title>
<path fill="none" stroke="black" d="M2857.36,-504.28C2940.76,-493.01 3050.18,-478.22 3132.58,-467.09"/>
<polygon fill="black" stroke="black" points="3132.82,-470.58 3142.27,-465.78 3131.89,-463.65 3132.82,-470.58"/>
</g>
<!-- 8 -->
<g id="node9" class="node">
<title>8</title>
<ellipse fill="none" stroke="black" cx="1094.61" cy="-1242" rx="544.73" ry="18"/>
<text text-anchor="middle" x="1094.61" y="-1236.95" font-family="Times New Roman,serif" font-size="14.00">Kim Kitsuragi: “我说过了——这是伊苏林迪百合，或者铃兰。大革命期间，女孩会把它们别在男孩的身上。”</text>
</g>
<!-- 12 -->
<g id="node13" class="node">
<title>12</title>
<ellipse fill="none" stroke="black" cx="1854.61" cy="-1170" rx="336.94" ry="18"/>
<text text-anchor="middle" x="1854.61" y="-1164.95" font-family="Times New Roman,serif" font-size="14.00">Encyclopedia: 这是一朵春天的花，不过现在有些太早了，不是吗？</text>
</g>
<!-- 8&#45;&gt;12 -->
<g id="edge8" class="edge">
<title>8&#45;&gt;12</title>
<path fill="none" stroke="black" d="M1273.28,-1224.54C1395.72,-1213.27 1557.37,-1198.38 1679.12,-1187.16"/>
<polygon fill="black" stroke="black" points="1679.26,-1190.67 1688.9,-1186.26 1678.62,-1183.7 1679.26,-1190.67"/>
</g>
<!-- 43 -->
<g id="node44" class="node">
<title>43</title>
<ellipse fill="none" stroke="black" cx="541.61" cy="-810" rx="89.74" ry="18"/>
<text text-anchor="middle" x="541.61" y="-804.95" font-family="Times New Roman,serif" font-size="14.00">Jump to: [da_flower]</text>
</g>
<!-- 9&#45;&gt;43 -->
<g id="edge9" class="edge">
<title>9&#45;&gt;43</title>
<path fill="none" stroke="black" d="M541.61,-863.7C541.61,-856.41 541.61,-847.73 541.61,-839.54"/>
<polygon fill="black" stroke="black" points="545.11,-839.62 541.61,-829.62 538.11,-839.62 545.11,-839.62"/>
</g>
<!-- 10 -->
<g id="node11" class="node">
<title>10</title>
<ellipse fill="none" stroke="black" cx="2683.61" cy="-594" rx="522.21" ry="18"/>
<text text-anchor="middle" x="2683.61" y="-588.95" font-family="Times New Roman,serif" font-size="14.00">Shivers: 在内陆，马丁内斯支流的上游，这条运河输送着加姆洛克丝绸厂的废水；还有战时的尸体……</text>
</g>
<!-- 10&#45;&gt;7 -->
<g id="edge10" class="edge">
<title>10&#45;&gt;7</title>
<path fill="none" stroke="black" d="M2695.97,-575.7C2701.66,-567.73 2708.54,-558.1 2714.85,-549.26"/>
<polygon fill="black" stroke="black" points="2717.55,-551.51 2720.51,-541.34 2711.85,-547.44 2717.55,-551.51"/>
</g>
<!-- 11 -->
<g id="node12" class="node">
<title>11</title>
<ellipse fill="none" stroke="black" cx="2817.61" cy="-1530" rx="752.53" ry="18"/>
<text text-anchor="middle" x="2817.61" y="-1524.95" font-family="Times New Roman,serif" font-size="14.00">Esprit de Corps: 在加姆洛克中央区的某处，曷城警督走进了公共图书馆，走过两旁一排排的书架……你感觉他是为了做花卉的深入分析才来这里的。</text>
</g>
<!-- 45 -->
<g id="node46" class="node">
<title>45</title>
<ellipse fill="none" stroke="black" cx="1854.61" cy="-1098" rx="48.28" ry="18"/>
<text text-anchor="middle" x="1854.61" y="-1092.95" font-family="Times New Roman,serif" font-size="14.00">da_flower</text>
</g>
<!-- 12&#45;&gt;45 -->
<g id="edge11" class="edge">
<title>12&#45;&gt;45</title>
<path fill="none" stroke="black" d="M1854.61,-1151.7C1854.61,-1144.41 1854.61,-1135.73 1854.61,-1127.54"/>
<polygon fill="black" stroke="black" points="1858.11,-1127.62 1854.61,-1117.62 1851.11,-1127.62 1858.11,-1127.62"/>
</g>
<!-- 13 -->
<g id="node14" class="node">
<title>13</title>
<ellipse fill="none" stroke="black" cx="3376.61" cy="-162" rx="140.92" ry="18"/>
<text text-anchor="middle" x="3376.61" y="-156.95" font-family="Times New Roman,serif" font-size="14.00">Variable[&quot;plaza.rene_know_dead&quot;]</text>
</g>
<!-- 14 -->
<g id="node15" class="node">
<title>14</title>
<polygon fill="none" stroke="black" points="3161.61,-108 2962.32,-90 3161.61,-72 3360.9,-90 3161.61,-108"/>
<text text-anchor="middle" x="3161.61" y="-84.95" font-family="Times New Roman,serif" font-size="14.00">Variable[&quot;plaza.rene_know_dead&quot;]</text>
</g>
<!-- 13&#45;&gt;14 -->
<g id="edge12" class="edge">
<title>13&#45;&gt;14</title>
<path fill="none" stroke="black" d="M3326.75,-144.76C3293.05,-133.8 3248.64,-119.33 3214.36,-108.17"/>
<polygon fill="black" stroke="black" points="3215.64,-104.91 3205.05,-105.14 3213.47,-111.57 3215.64,-104.91"/>
</g>
<!-- 15 -->
<g id="node16" class="node">
<title>15</title>
<polygon fill="none" stroke="black" points="3714.61,-108 3502.29,-90 3714.61,-72 3926.93,-90 3714.61,-108"/>
<text text-anchor="middle" x="3714.61" y="-84.95" font-family="Times New Roman,serif" font-size="14.00">!(Variable[&quot;plaza.rene_know_dead&quot;])</text>
</g>
<!-- 13&#45;&gt;15 -->
<g id="edge13" class="edge">
<title>13&#45;&gt;15</title>
<path fill="none" stroke="black" d="M3448.29,-146.15C3505.88,-134.23 3586.34,-117.56 3643.72,-105.68"/>
<polygon fill="black" stroke="black" points="3644.31,-109.13 3653.39,-103.68 3642.89,-102.28 3644.31,-109.13"/>
</g>
<!-- 28 -->
<g id="node29" class="node">
<title>28</title>
<ellipse fill="none" stroke="black" cx="2915.61" cy="-18" rx="367.14" ry="18"/>
<text text-anchor="middle" x="2915.61" y="-12.95" font-family="Times New Roman,serif" font-size="14.00">Logic: 雷内！那个穿着制服的老人。等你有机会，不妨拿给他看看吧。</text>
</g>
<!-- 14&#45;&gt;28 -->
<g id="edge14" class="edge">
<title>14&#45;&gt;28</title>
<path fill="none" stroke="black" d="M3115.05,-75.75C3078.86,-65.45 3028.05,-51 2986.78,-39.25"/>
<polygon fill="black" stroke="black" points="2987.99,-35.96 2977.41,-36.59 2986.07,-42.69 2987.99,-35.96"/>
</g>
<!-- 15&#45;&gt;6 -->
<g id="edge15" class="edge">
<title>15&#45;&gt;6</title>
<path fill="none" stroke="black" d="M3741.52,-73.81C3757.98,-64.51 3779.38,-52.44 3797.89,-41.99"/>
<polygon fill="black" stroke="black" points="3799.52,-45.09 3806.51,-37.12 3796.08,-38.99 3799.52,-45.09"/>
</g>
<!-- 16 -->
<g id="node17" class="node">
<title>16</title>
<ellipse fill="none" stroke="black" cx="2151.61" cy="-1026" rx="169.07" ry="18"/>
<text text-anchor="middle" x="2151.61" y="-1020.95" font-family="Times New Roman,serif" font-size="14.00">You: “谁会别着这些？哪边的？”</text>
</g>
<!-- 17 -->
<g id="node18" class="node">
<title>17</title>
<ellipse fill="none" stroke="black" cx="2346.61" cy="-954" rx="760.72" ry="18"/>
<text text-anchor="middle" x="2346.61" y="-948.95" font-family="Times New Roman,serif" font-size="14.00">Kim Kitsuragi: “革命派：公社社员和无政府主义者。他们的代表色是白色。不过这个传统是从宗主国的军队兴起的，所以对军队的人来说也有意义。”</text>
</g>
<!-- 16&#45;&gt;17 -->
<g id="edge16" class="edge">
<title>16&#45;&gt;17</title>
<path fill="none" stroke="black" d="M2198.32,-1008.23C2225.09,-998.62 2258.96,-986.46 2287.57,-976.2"/>
<polygon fill="black" stroke="black" points="2288.59,-979.55 2296.82,-972.87 2286.23,-972.96 2288.59,-979.55"/>
</g>
<!-- 39 -->
<g id="node40" class="node">
<title>39</title>
<ellipse fill="none" stroke="black" cx="2106.61" cy="-882" rx="824.69" ry="18"/>
<text text-anchor="middle" x="2106.61" y="-876.95" font-family="Times New Roman,serif" font-size="14.00">Kim Kitsuragi: “相比*哪一边*，更多是跟女孩和男孩相关的。女孩把男孩们送上死亡的道路——然后自己也因为痢疾和肺痨在废墟中死去。它是内战的一种标志。”</text>
</g>
<!-- 17&#45;&gt;39 -->
<g id="edge17" class="edge">
<title>17&#45;&gt;39</title>
<path fill="none" stroke="black" d="M2286.98,-935.61C2253.64,-925.88 2211.89,-913.71 2176.96,-903.52"/>
<polygon fill="black" stroke="black" points="2178.39,-900.29 2167.81,-900.85 2176.43,-907.01 2178.39,-900.29"/>
</g>
<!-- 19 -->
<g id="node20" class="node">
<title>19</title>
<polygon fill="none" stroke="black" points="3264.61,-756 2997.29,-738 3264.61,-720 3531.94,-738 3264.61,-756"/>
<text text-anchor="middle" x="3264.61" y="-732.95" font-family="Times New Roman,serif" font-size="14.00">Variable[&quot;whirling.klaasje_shivers_may_bells&quot;]</text>
</g>
<!-- 18&#45;&gt;19 -->
<g id="edge18" class="edge">
<title>18&#45;&gt;19</title>
<path fill="none" stroke="black" d="M3376.41,-791.88C3355.52,-782 3329.14,-769.52 3307.26,-759.17"/>
<polygon fill="black" stroke="black" points="3308.82,-756.04 3298.28,-754.93 3305.83,-762.37 3308.82,-756.04"/>
</g>
<!-- 20 -->
<g id="node21" class="node">
<title>20</title>
<polygon fill="none" stroke="black" points="3559.61,-540 3279.26,-522 3559.61,-504 3839.97,-522 3559.61,-540"/>
<text text-anchor="middle" x="3559.61" y="-516.95" font-family="Times New Roman,serif" font-size="14.00">!(Variable[&quot;whirling.klaasje_shivers_may_bells&quot;])</text>
</g>
<!-- 18&#45;&gt;20 -->
<g id="edge19" class="edge">
<title>18&#45;&gt;20</title>
<path fill="none" stroke="black" d="M3488.19,-793.11C3508.26,-785.24 3527.86,-773.49 3540.61,-756 3585.36,-694.6 3574.82,-598.4 3565.93,-551.13"/>
<polygon fill="black" stroke="black" points="3569.38,-550.55 3563.98,-541.44 3562.52,-551.93 3569.38,-550.55"/>
</g>
<!-- 27 -->
<g id="node28" class="node">
<title>27</title>
<ellipse fill="none" stroke="black" cx="3297.61" cy="-666" rx="90.25" ry="18"/>
<text text-anchor="middle" x="3297.61" y="-660.95" font-family="Times New Roman,serif" font-size="14.00">You: 站着不动。</text>
</g>
<!-- 19&#45;&gt;27 -->
<g id="edge20" class="edge">
<title>19&#45;&gt;27</title>
<path fill="none" stroke="black" d="M3272.6,-720.05C3276.19,-712.43 3280.53,-703.23 3284.58,-694.65"/>
<polygon fill="black" stroke="black" points="3287.72,-696.18 3288.82,-685.64 3281.39,-693.2 3287.72,-696.18"/>
</g>
<!-- 38 -->
<g id="node39" class="node">
<title>38</title>
<ellipse fill="none" stroke="black" cx="2867.61" cy="-666" rx="137.34" ry="18"/>
<text text-anchor="middle" x="2867.61" y="-660.95" font-family="Times New Roman,serif" font-size="14.00">You: 朝你的手指吹口气。</text>
</g>
<!-- 19&#45;&gt;38 -->
<g id="edge21" class="edge">
<title>19&#45;&gt;38</title>
<path fill="none" stroke="black" d="M3193.18,-724.4C3127.49,-712.82 3029.77,-695.59 2958.53,-683.03"/>
<polygon fill="black" stroke="black" points="2959.28,-679.61 2948.83,-681.32 2958.07,-686.5 2959.28,-679.61"/>
</g>
<!-- 20&#45;&gt;29 -->
<g id="edge22" class="edge">
<title>20&#45;&gt;29</title>
<path fill="none" stroke="black" d="M3499.86,-507.42C3452.66,-496.69 3386.27,-481.6 3334.02,-469.73"/>
<polygon fill="black" stroke="black" points="3335.1,-466.39 3324.57,-467.58 3333.55,-473.21 3335.1,-466.39"/>
</g>
<!-- 21 -->
<g id="node22" class="node">
<title>21</title>
<ellipse fill="none" stroke="black" cx="3361.61" cy="-594" rx="137.85" ry="18"/>
<text text-anchor="middle" x="3361.61" y="-588.95" font-family="Times New Roman,serif" font-size="14.00">Shivers: 这种感觉逝去了。</text>
</g>
<!-- 21&#45;&gt;29 -->
<g id="edge23" class="edge">
<title>21&#45;&gt;29</title>
<path fill="none" stroke="black" d="M3317.62,-576.61C3300.53,-568.14 3282.3,-556.14 3270.61,-540 3257.99,-522.58 3253.42,-498.51 3251.91,-479.79"/>
<polygon fill="black" stroke="black" points="3255.41,-479.7 3251.38,-469.9 3248.42,-480.07 3255.41,-479.7"/>
</g>
<!-- 22 -->
<g id="node23" class="node">
<title>22</title>
<ellipse fill="none" stroke="black" cx="1167.61" cy="-954" rx="399.89" ry="18"/>
<text text-anchor="middle" x="1167.61" y="-948.95" font-family="Times New Roman,serif" font-size="14.00">Kim Kitsuragi: “也许是——也许不是。”他在小笔记本里做了点记录。“再说吧。”</text>
</g>
<!-- 23 -->
<g id="node24" class="node">
<title>23</title>
<ellipse fill="none" stroke="black" cx="1174.61" cy="-882" rx="89.74" ry="18"/>
<text text-anchor="middle" x="1174.61" y="-876.95" font-family="Times New Roman,serif" font-size="14.00">Jump to: [da_flower]</text>
</g>
<!-- 22&#45;&gt;23 -->
<g id="edge24" class="edge">
<title>22&#45;&gt;23</title>
<path fill="none" stroke="black" d="M1169.34,-935.7C1170.07,-928.41 1170.94,-919.73 1171.76,-911.54"/>
<polygon fill="black" stroke="black" points="1175.24,-911.91 1172.75,-901.61 1168.27,-911.21 1175.24,-911.91"/>
</g>
<!-- 23&#45;&gt;45 -->
<g id="edge25" class="edge">
<title>23&#45;&gt;45</title>
<path fill="none" stroke="black" d="M1109.46,-894.73C1098.19,-896.6 1086.57,-898.44 1075.61,-900 630.22,-963.48 683.61,-887.08 758.61,-972 827.85,-1050.4 1577.09,-1086.02 1795.3,-1094.78"/>
<polygon fill="black" stroke="black" points="1794.86,-1098.27 1804.99,-1095.17 1795.14,-1091.27 1794.86,-1098.27"/>
</g>
<!-- 24 -->
<g id="node25" class="node">
<title>24</title>
<ellipse fill="none" stroke="black" cx="1854.61" cy="-1386" rx="225.88" ry="18"/>
<text text-anchor="middle" x="1854.61" y="-1380.95" font-family="Times New Roman,serif" font-size="14.00">Variable[&quot;inventory.wildflower_hub_reached_with_kim&quot;]</text>
</g>
<!-- 25 -->
<g id="node26" class="node">
<title>25</title>
<polygon fill="none" stroke="black" points="1519.61,-1332 1200.17,-1314 1519.61,-1296 1839.05,-1314 1519.61,-1332"/>
<text text-anchor="middle" x="1519.61" y="-1308.95" font-family="Times New Roman,serif" font-size="14.00">Variable[&quot;inventory.wildflower_hub_reached_with_kim&quot;]</text>
</g>
<!-- 24&#45;&gt;25 -->
<g id="edge26" class="edge">
<title>24&#45;&gt;25</title>
<path fill="none" stroke="black" d="M1776.49,-1368.68C1722.34,-1357.36 1650.57,-1342.36 1596.65,-1331.1"/>
<polygon fill="black" stroke="black" points="1597.42,-1327.68 1586.91,-1329.06 1595.99,-1334.53 1597.42,-1327.68"/>
</g>
<!-- 26 -->
<g id="node27" class="node">
<title>26</title>
<polygon fill="none" stroke="black" points="2401.61,-1332 2069.14,-1314 2401.61,-1296 2734.08,-1314 2401.61,-1332"/>
<text text-anchor="middle" x="2401.61" y="-1308.95" font-family="Times New Roman,serif" font-size="14.00">!(Variable[&quot;inventory.wildflower_hub_reached_with_kim&quot;])</text>
</g>
<!-- 24&#45;&gt;26 -->
<g id="edge27" class="edge">
<title>24&#45;&gt;26</title>
<path fill="none" stroke="black" d="M1970.62,-1370.15C2066.45,-1357.89 2201.41,-1340.62 2294.66,-1328.69"/>
<polygon fill="black" stroke="black" points="2294.85,-1332.19 2304.32,-1327.45 2293.96,-1325.25 2294.85,-1332.19"/>
</g>
<!-- 25&#45;&gt;8 -->
<g id="edge28" class="edge">
<title>25&#45;&gt;8</title>
<path fill="none" stroke="black" d="M1440.67,-1300C1375.71,-1289.3 1282.74,-1273.99 1209.53,-1261.93"/>
<polygon fill="black" stroke="black" points="1210.34,-1258.51 1199.91,-1260.34 1209.2,-1265.42 1210.34,-1258.51"/>
</g>
<!-- 33 -->
<g id="node34" class="node">
<title>33</title>
<ellipse fill="none" stroke="black" cx="2614.61" cy="-1242" rx="957.76" ry="18"/>
<text text-anchor="middle" x="2614.61" y="-1236.95" font-family="Times New Roman,serif" font-size="14.00">Kim Kitsuragi: “这是伊苏林迪百合。”警督调整了一下自己的眼镜。“叫做‘铃兰’，或者大革命期间也叫‘露西尔的眼泪’。女孩们曾经会把这种花别在士兵们的胸口，然后目送他们走向战场。”</text>
</g>
<!-- 26&#45;&gt;33 -->
<g id="edge29" class="edge">
<title>26&#45;&gt;33</title>
<path fill="none" stroke="black" d="M2447.3,-1297.98C2477.53,-1288.05 2517.58,-1274.89 2550.91,-1263.93"/>
<polygon fill="black" stroke="black" points="2551.63,-1267.38 2560.04,-1260.93 2549.45,-1260.73 2551.63,-1267.38"/>
</g>
<!-- 27&#45;&gt;21 -->
<g id="edge30" class="edge">
<title>27&#45;&gt;21</title>
<path fill="none" stroke="black" d="M3313.1,-648.05C3320.62,-639.84 3329.8,-629.79 3338.15,-620.66"/>
<polygon fill="black" stroke="black" points="3340.63,-623.13 3344.8,-613.39 3335.46,-618.41 3340.63,-623.13"/>
</g>
<!-- 30 -->
<g id="node31" class="node">
<title>30</title>
<polygon fill="none" stroke="black" points="2952.61,-396 2668.64,-378 2952.61,-360 3236.58,-378 2952.61,-396"/>
<text text-anchor="middle" x="2952.61" y="-372.95" font-family="Times New Roman,serif" font-size="14.00">Variable[&quot;TASK.ask_rene_about_maybells_done&quot;]</text>
</g>
<!-- 29&#45;&gt;30 -->
<g id="edge31" class="edge">
<title>29&#45;&gt;30</title>
<path fill="none" stroke="black" d="M3181.89,-432.68C3133.86,-421.43 3070.3,-406.55 3022.28,-395.31"/>
<polygon fill="black" stroke="black" points="3023.37,-391.97 3012.83,-393.1 3021.77,-398.79 3023.37,-391.97"/>
</g>
<!-- 31 -->
<g id="node32" class="node">
<title>31</title>
<polygon fill="none" stroke="black" points="3551.61,-396 3254.61,-378 3551.61,-360 3848.61,-378 3551.61,-396"/>
<text text-anchor="middle" x="3551.61" y="-372.95" font-family="Times New Roman,serif" font-size="14.00">!(Variable[&quot;TASK.ask_rene_about_maybells_done&quot;])</text>
</g>
<!-- 29&#45;&gt;31 -->
<g id="edge32" class="edge">
<title>29&#45;&gt;31</title>
<path fill="none" stroke="black" d="M3321.57,-432.68C3369.6,-421.47 3433.11,-406.65 3481.23,-395.42"/>
<polygon fill="black" stroke="black" points="3481.76,-398.89 3490.7,-393.21 3480.17,-392.08 3481.76,-398.89"/>
</g>
<!-- 35 -->
<g id="node36" class="node">
<title>35</title>
<ellipse fill="none" stroke="black" cx="3551.61" cy="-306" rx="112.77" ry="18"/>
<text text-anchor="middle" x="3551.61" y="-300.95" font-family="Times New Roman,serif" font-size="14.00">Variable[&quot;plaza.met_rene&quot;]</text>
</g>
<!-- 31&#45;&gt;35 -->
<g id="edge33" class="edge">
<title>31&#45;&gt;35</title>
<path fill="none" stroke="black" d="M3551.61,-359.7C3551.61,-352.41 3551.61,-343.73 3551.61,-335.54"/>
<polygon fill="black" stroke="black" points="3555.11,-335.62 3551.61,-325.62 3548.11,-335.62 3555.11,-335.62"/>
</g>
<!-- 32 -->
<g id="node33" class="node">
<title>32</title>
<ellipse fill="none" stroke="black" cx="2957.61" cy="-1026" rx="204.38" ry="18"/>
<text text-anchor="middle" x="2957.61" y="-1020.95" font-family="Times New Roman,serif" font-size="14.00">You: “很好。”（把花放回你的口袋。）</text>
</g>
<!-- 34 -->
<g id="node35" class="node">
<title>34</title>
<ellipse fill="none" stroke="black" cx="3371.61" cy="-954" rx="246.35" ry="18"/>
<text text-anchor="middle" x="3371.61" y="-948.95" font-family="Times New Roman,serif" font-size="14.00">Dried Wildflower: 你手中的花瓣感觉干枯又脆弱。</text>
</g>
<!-- 32&#45;&gt;34 -->
<g id="edge34" class="edge">
<title>32&#45;&gt;34</title>
<path fill="none" stroke="black" d="M3049.49,-1009.46C3113.46,-998.65 3198.95,-984.19 3265.78,-972.89"/>
<polygon fill="black" stroke="black" points="3265.99,-976.41 3275.26,-971.29 3264.82,-969.51 3265.99,-976.41"/>
</g>
<!-- 33&#45;&gt;12 -->
<g id="edge35" class="edge">
<title>33&#45;&gt;12</title>
<path fill="none" stroke="black" d="M2428.69,-1223.88C2307.26,-1212.69 2149.68,-1198.18 2030.34,-1187.19"/>
<polygon fill="black" stroke="black" points="2030.7,-1183.7 2020.42,-1186.27 2030.06,-1190.67 2030.7,-1183.7"/>
</g>
<!-- 34&#45;&gt;5 -->
<g id="edge36" class="edge">
<title>34&#45;&gt;5</title>
<path fill="none" stroke="black" d="M3381.75,-935.7C3386.31,-927.9 3391.81,-918.51 3396.9,-909.83"/>
<polygon fill="black" stroke="black" points="3399.79,-911.81 3401.83,-901.41 3393.75,-908.27 3399.79,-911.81"/>
</g>
<!-- 36 -->
<g id="node37" class="node">
<title>36</title>
<polygon fill="none" stroke="black" points="3376.61,-252 3217.13,-234 3376.61,-216 3536.09,-234 3376.61,-252"/>
<text text-anchor="middle" x="3376.61" y="-228.95" font-family="Times New Roman,serif" font-size="14.00">Variable[&quot;plaza.met_rene&quot;]</text>
</g>
<!-- 35&#45;&gt;36 -->
<g id="edge37" class="edge">
<title>35&#45;&gt;36</title>
<path fill="none" stroke="black" d="M3511.02,-288.76C3484.1,-278 3448.77,-263.86 3421.09,-252.79"/>
<polygon fill="black" stroke="black" points="3422.5,-249.59 3411.91,-249.12 3419.9,-256.08 3422.5,-249.59"/>
</g>
<!-- 37 -->
<g id="node38" class="node">
<title>37</title>
<polygon fill="none" stroke="black" points="3726.61,-252 3554.1,-234 3726.61,-216 3899.12,-234 3726.61,-252"/>
<text text-anchor="middle" x="3726.61" y="-228.95" font-family="Times New Roman,serif" font-size="14.00">!(Variable[&quot;plaza.met_rene&quot;])</text>
</g>
<!-- 35&#45;&gt;37 -->
<g id="edge38" class="edge">
<title>35&#45;&gt;37</title>
<path fill="none" stroke="black" d="M3592.2,-288.76C3618.94,-278.07 3653.98,-264.05 3681.58,-253.01"/>
<polygon fill="black" stroke="black" points="3682.75,-256.31 3690.74,-249.35 3680.15,-249.81 3682.75,-256.31"/>
</g>
<!-- 36&#45;&gt;13 -->
<g id="edge39" class="edge">
<title>36&#45;&gt;13</title>
<path fill="none" stroke="black" d="M3376.61,-215.7C3376.61,-208.41 3376.61,-199.73 3376.61,-191.54"/>
<polygon fill="black" stroke="black" points="3380.11,-191.62 3376.61,-181.62 3373.11,-191.62 3380.11,-191.62"/>
</g>
<!-- 38&#45;&gt;10 -->
<g id="edge40" class="edge">
<title>38&#45;&gt;10</title>
<path fill="none" stroke="black" d="M2824.47,-648.59C2799.25,-638.99 2767.12,-626.77 2739.92,-616.42"/>
<polygon fill="black" stroke="black" points="2741.38,-613.23 2730.79,-612.95 2738.89,-619.77 2741.38,-613.23"/>
</g>
<!-- 39&#45;&gt;43 -->
<g id="edge41" class="edge">
<title>39&#45;&gt;43</title>
<path fill="none" stroke="black" d="M1754.91,-865.27C1394.98,-849.17 858.38,-825.17 639.69,-815.39"/>
<polygon fill="black" stroke="black" points="639.92,-811.89 629.77,-814.94 639.6,-818.89 639.92,-811.89"/>
</g>
<!-- 41 -->
<g id="node42" class="node">
<title>41</title>
<polygon fill="none" stroke="black" points="2302.61,-1620 2219.86,-1602 2302.61,-1584 2385.37,-1602 2302.61,-1620"/>
<text text-anchor="middle" x="2302.61" y="-1596.95" font-family="Times New Roman,serif" font-size="14.00">IsKimHere()</text>
</g>
<!-- 40&#45;&gt;41 -->
<g id="edge42" class="edge">
<title>40&#45;&gt;41</title>
<path fill="none" stroke="black" d="M2378.37,-1657.12C2364.06,-1646.89 2345.36,-1633.53 2330.12,-1622.65"/>
<polygon fill="black" stroke="black" points="2332.55,-1620.08 2322.37,-1617.12 2328.48,-1625.78 2332.55,-1620.08"/>
</g>
<!-- 42 -->
<g id="node43" class="node">
<title>42</title>
<polygon fill="none" stroke="black" points="2658.61,-1620 2562.83,-1602 2658.61,-1584 2754.39,-1602 2658.61,-1620"/>
<text text-anchor="middle" x="2658.61" y="-1596.95" font-family="Times New Roman,serif" font-size="14.00">!(IsKimHere())</text>
</g>
<!-- 40&#45;&gt;42 -->
<g id="edge43" class="edge">
<title>40&#45;&gt;42</title>
<path fill="none" stroke="black" d="M2443.5,-1661.36C2489.27,-1648.95 2561.64,-1629.31 2609.62,-1616.29"/>
<polygon fill="black" stroke="black" points="2610.47,-1619.69 2619.2,-1613.69 2608.63,-1612.93 2610.47,-1619.69"/>
</g>
<!-- 46 -->
<g id="node47" class="node">
<title>46</title>
<ellipse fill="none" stroke="black" cx="1984.61" cy="-1530" rx="62.61" ry="18"/>
<text text-anchor="middle" x="1984.61" y="-1524.95" font-family="Times New Roman,serif" font-size="14.00">kim_presence</text>
</g>
<!-- 41&#45;&gt;46 -->
<g id="edge44" class="edge">
<title>41&#45;&gt;46</title>
<path fill="none" stroke="black" d="M2261.46,-1592.48C2212.38,-1582.25 2127.89,-1564.41 2055.61,-1548 2051.28,-1547.02 2046.81,-1545.99 2042.32,-1544.94"/>
<polygon fill="black" stroke="black" points="2043.18,-1541.54 2032.64,-1542.66 2041.57,-1548.36 2043.18,-1541.54"/>
</g>
<!-- 42&#45;&gt;11 -->
<g id="edge45" class="edge">
<title>42&#45;&gt;11</title>
<path fill="none" stroke="black" d="M2686.31,-1588.81C2708.69,-1578.95 2740.79,-1564.82 2767.64,-1553"/>
<polygon fill="black" stroke="black" points="2768.89,-1556.27 2776.64,-1549.04 2766.07,-1549.87 2768.89,-1556.27"/>
</g>
<!-- 43&#45;&gt;45 -->
<g id="edge46" class="edge">
<title>43&#45;&gt;45</title>
<path fill="none" stroke="black" d="M453.09,-813.42C309.03,-818.28 36.89,-831.67 7.61,-864 -3.13,-875.86 -1.71,-886.99 7.61,-900 123.52,-1061.78 235.89,-1007.92 431.61,-1044 699.39,-1093.37 1559.95,-1097.02 1794.87,-1097.08"/>
<polygon fill="black" stroke="black" points="1794.72,-1100.58 1804.72,-1097.08 1794.72,-1093.58 1794.72,-1100.58"/>
</g>
<!-- 44 -->
<g id="node45" class="node">
<title>44</title>
<ellipse fill="none" stroke="black" cx="1557.61" cy="-1026" rx="212.06" ry="18"/>
<text text-anchor="middle" x="1557.61" y="-1020.95" font-family="Times New Roman,serif" font-size="14.00">You: “它出现在屋顶——是一种巧合吗？”</text>
</g>
<!-- 44&#45;&gt;22 -->
<g id="edge47" class="edge">
<title>44&#45;&gt;22</title>
<path fill="none" stroke="black" d="M1469.6,-1009.2C1411.44,-998.76 1334.89,-985.02 1273.41,-973.99"/>
<polygon fill="black" stroke="black" points="1274.06,-970.55 1263.6,-972.23 1272.83,-977.44 1274.06,-970.55"/>
</g>
<!-- 45&#45;&gt;2 -->
<g id="edge49" class="edge">
<title>45&#45;&gt;2</title>
<path fill="none" stroke="black" d="M1806.41,-1095.72C1650.16,-1091.36 1143.6,-1075.58 725.61,-1044 707.08,-1042.6 687.4,-1040.81 668.35,-1038.91"/>
<polygon fill="black" stroke="black" points="668.72,-1035.43 658.42,-1037.91 668.01,-1042.4 668.72,-1035.43"/>
</g>
<!-- 45&#45;&gt;16 -->
<g id="edge51" class="edge">
<title>45&#45;&gt;16</title>
<path fill="none" stroke="black" d="M1894.67,-1087.56C1940.26,-1076.81 2015.84,-1059 2073.25,-1045.47"/>
<polygon fill="black" stroke="black" points="2073.71,-1048.96 2082.64,-1043.26 2072.1,-1042.14 2073.71,-1048.96"/>
</g>
<!-- 45&#45;&gt;32 -->
<g id="edge48" class="edge">
<title>45&#45;&gt;32</title>
<path fill="none" stroke="black" d="M1902.01,-1093.99C2052.59,-1084.44 2525.41,-1054.43 2784.17,-1038.01"/>
<polygon fill="black" stroke="black" points="2784.29,-1041.51 2794.05,-1037.38 2783.85,-1034.52 2784.29,-1041.51"/>
</g>
<!-- 45&#45;&gt;44 -->
<g id="edge50" class="edge">
<title>45&#45;&gt;44</title>
<path fill="none" stroke="black" d="M1814.56,-1087.56C1769.65,-1076.98 1695.66,-1059.54 1638.58,-1046.08"/>
<polygon fill="black" stroke="black" points="1639.42,-1042.68 1628.88,-1043.8 1637.81,-1049.5 1639.42,-1042.68"/>
</g>
<!-- 50 -->
<g id="node51" class="node">
<title>50</title>
<ellipse fill="none" stroke="black" cx="3806.61" cy="-1026" rx="180.84" ry="18"/>
<text text-anchor="middle" x="3806.61" y="-1020.95" font-family="Times New Roman,serif" font-size="14.00">You: “这些花是在早春开放的吗？”</text>
</g>
<!-- 45&#45;&gt;50 -->
<g id="edge52" class="edge">
<title>45&#45;&gt;50</title>
<path fill="none" stroke="black" d="M1902.38,-1095.29C2140.06,-1086.76 3200.76,-1048.73 3627.71,-1033.42"/>
<polygon fill="black" stroke="black" points="3627.54,-1036.92 3637.41,-1033.07 3627.29,-1029.93 3627.54,-1036.92"/>
</g>
<!-- 48 -->
<g id="node49" class="node">
<title>48</title>
<ellipse fill="none" stroke="black" cx="1854.61" cy="-1458" rx="121.98" ry="18"/>
<text text-anchor="middle" x="1854.61" y="-1452.95" font-family="Times New Roman,serif" font-size="14.00">You: “这是什么，金？”</text>
</g>
<!-- 46&#45;&gt;48 -->
<g id="edge53" class="edge">
<title>46&#45;&gt;48</title>
<path fill="none" stroke="black" d="M1956.08,-1513.64C1938.39,-1504.11 1915.36,-1491.71 1895.72,-1481.14"/>
<polygon fill="black" stroke="black" points="1897.6,-1478.17 1887.13,-1476.51 1894.28,-1484.34 1897.6,-1478.17"/>
</g>
<!-- 49 -->
<g id="node50" class="node">
<title>49</title>
<ellipse fill="none" stroke="black" cx="2114.61" cy="-1458" rx="119.93" ry="18"/>
<text text-anchor="middle" x="2114.61" y="-1452.95" font-family="Times New Roman,serif" font-size="14.00">You: 没事了。[离开。]</text>
</g>
<!-- 46&#45;&gt;49 -->
<g id="edge54" class="edge">
<title>46&#45;&gt;49</title>
<path fill="none" stroke="black" d="M2013.14,-1513.64C2030.83,-1504.11 2053.86,-1491.71 2073.5,-1481.14"/>
<polygon fill="black" stroke="black" points="2074.94,-1484.34 2082.09,-1476.51 2071.62,-1478.17 2074.94,-1484.34"/>
</g>
<!-- 47&#45;&gt;45 -->
<g id="edge55" class="edge">
<title>47&#45;&gt;45</title>
<path fill="none" stroke="black" d="M4664.34,-882.79C4775.92,-885.45 4944.21,-900.83 4878.61,-972 4774.37,-1085.1 2330.24,-1095.88 1914.47,-1096.9"/>
<polygon fill="black" stroke="black" points="1914.55,-1093.4 1904.56,-1096.92 1914.57,-1100.4 1914.55,-1093.4"/>
</g>
<!-- 48&#45;&gt;24 -->
<g id="edge56" class="edge">
<title>48&#45;&gt;24</title>
<path fill="none" stroke="black" d="M1854.61,-1439.7C1854.61,-1432.41 1854.61,-1423.73 1854.61,-1415.54"/>
<polygon fill="black" stroke="black" points="1858.11,-1415.62 1854.61,-1405.62 1851.11,-1415.62 1858.11,-1415.62"/>
</g>
<!-- 50&#45;&gt;3 -->
<g id="edge57" class="edge">
<title>50&#45;&gt;3</title>
<path fill="none" stroke="black" d="M3900.65,-1010.24C3968.11,-999.65 4059.55,-985.3 4132.33,-973.88"/>
<polygon fill="black" stroke="black" points="4132.55,-977.39 4141.88,-972.38 4131.46,-970.47 4132.55,-977.39"/>
</g>
</g>
</svg>
