<?xml version="1.0" encoding="UTF-8" standalone="no"?>
<!DOCTYPE svg PUBLIC "-//W3C//DTD SVG 1.1//EN"
 "http://www.w3.org/Graphics/SVG/1.1/DTD/svg11.dtd">
<!-- Generated by graphviz version 12.2.1 (20241206.2353)
 -->
<!-- Title: G Pages: 1 -->
<svg width="4827pt" height="1340pt"
 viewBox="0.00 0.00 4826.98 1340.00" xmlns="http://www.w3.org/2000/svg" xmlns:xlink="http://www.w3.org/1999/xlink">
<g id="graph0" class="graph" transform="scale(1 1) rotate(0) translate(4 1336)">
<title>G</title>
<polygon fill="white" stroke="none" points="-4,4 -4,-1336 4822.98,-1336 4822.98,4 -4,4"/>
<!-- 0 -->
<g id="node1" class="node">
<title>0</title>
<ellipse fill="none" stroke="black" cx="1818" cy="-1314" rx="39.07" ry="18"/>
<text text-anchor="middle" x="1818" y="-1308.95" font-family="Times New Roman,serif" font-size="14.00">START</text>
</g>
<!-- 1 -->
<g id="node2" class="node">
<title>1</title>
<ellipse fill="none" stroke="black" cx="1818" cy="-1242" rx="29.86" ry="18"/>
<text text-anchor="middle" x="1818" y="-1236.95" font-family="Times New Roman,serif" font-size="14.00">input</text>
</g>
<!-- 0&#45;&gt;1 -->
<g id="edge1" class="edge">
<title>0&#45;&gt;1</title>
<path fill="none" stroke="black" d="M1818,-1295.7C1818,-1288.41 1818,-1279.73 1818,-1271.54"/>
<polygon fill="black" stroke="black" points="1821.5,-1271.62 1818,-1261.62 1814.5,-1271.62 1821.5,-1271.62"/>
</g>
<!-- 7 -->
<g id="node8" class="node">
<title>7</title>
<ellipse fill="none" stroke="black" cx="1818" cy="-1170" rx="685.99" ry="18"/>
<text text-anchor="middle" x="1818" y="-1164.95" font-family="Times New Roman,serif" font-size="14.00">Boots with Rotting Flesh: 靴子留在尸体上很可能是因为悬挂状态下没办法脱下来。现在看着都让人觉得不太舒服，更不用说那股味道了。</text>
</g>
<!-- 1&#45;&gt;7 -->
<g id="edge2" class="edge">
<title>1&#45;&gt;7</title>
<path fill="none" stroke="black" d="M1818,-1223.7C1818,-1216.41 1818,-1207.73 1818,-1199.54"/>
<polygon fill="black" stroke="black" points="1821.5,-1199.62 1818,-1189.62 1814.5,-1199.62 1821.5,-1199.62"/>
</g>
<!-- 2 -->
<g id="node3" class="node">
<title>2</title>
<ellipse fill="none" stroke="black" cx="1428" cy="-954" rx="556.51" ry="18"/>
<text text-anchor="middle" x="1428" y="-948.95" font-family="Times New Roman,serif" font-size="14.00">Boots with Rotting Flesh: 更令人不舒服的是，现在你已经知道了这个男人的名字，而他的血肉还困在鞋子里面。</text>
</g>
<!-- 31 -->
<g id="node32" class="node">
<title>31</title>
<ellipse fill="none" stroke="black" cx="1641" cy="-306" rx="72.85" ry="18"/>
<text text-anchor="middle" x="1641" y="-300.95" font-family="Times New Roman,serif" font-size="14.00">what_to_do_hub</text>
</g>
<!-- 2&#45;&gt;31 -->
<g id="edge3" class="edge">
<title>2&#45;&gt;31</title>
<path fill="none" stroke="black" d="M1428,-935.51C1428,-908.71 1428,-855.87 1428,-811 1428,-811 1428,-811 1428,-449 1428,-377.1 1513.08,-339.36 1575.69,-321.33"/>
<polygon fill="black" stroke="black" points="1576.54,-324.72 1585.25,-318.69 1574.67,-317.98 1576.54,-324.72"/>
</g>
<!-- 3 -->
<g id="node4" class="node">
<title>3</title>
<ellipse fill="none" stroke="black" cx="2945" cy="-522" rx="152.18" ry="18"/>
<text text-anchor="middle" x="2945" y="-516.95" font-family="Times New Roman,serif" font-size="14.00">Variable[&quot;TASK.run_serial_number&quot;]</text>
</g>
<!-- 4 -->
<g id="node5" class="node">
<title>4</title>
<polygon fill="none" stroke="black" points="2479,-468 2263.79,-450 2479,-432 2694.22,-450 2479,-468"/>
<text text-anchor="middle" x="2479" y="-444.95" font-family="Times New Roman,serif" font-size="14.00">Variable[&quot;TASK.run_serial_number&quot;]</text>
</g>
<!-- 3&#45;&gt;4 -->
<g id="edge4" class="edge">
<title>3&#45;&gt;4</title>
<path fill="none" stroke="black" d="M2853.49,-507.25C2769.83,-494.69 2646.98,-476.23 2565.07,-463.93"/>
<polygon fill="black" stroke="black" points="2565.7,-460.48 2555.29,-462.46 2564.66,-467.41 2565.7,-460.48"/>
</g>
<!-- 5 -->
<g id="node6" class="node">
<title>5</title>
<polygon fill="none" stroke="black" points="2945,-468 2716.76,-450 2945,-432 3173.24,-450 2945,-468"/>
<text text-anchor="middle" x="2945" y="-444.95" font-family="Times New Roman,serif" font-size="14.00">!(Variable[&quot;TASK.run_serial_number&quot;])</text>
</g>
<!-- 3&#45;&gt;5 -->
<g id="edge5" class="edge">
<title>3&#45;&gt;5</title>
<path fill="none" stroke="black" d="M2945,-503.7C2945,-496.41 2945,-487.73 2945,-479.54"/>
<polygon fill="black" stroke="black" points="2948.5,-479.62 2945,-469.62 2941.5,-479.62 2948.5,-479.62"/>
</g>
<!-- 29 -->
<g id="node30" class="node">
<title>29</title>
<ellipse fill="none" stroke="black" cx="2436" cy="-378" rx="403.48" ry="18"/>
<text text-anchor="middle" x="2436" y="-372.95" font-family="Times New Roman,serif" font-size="14.00">Boots with Rotting Flesh: 一旦查阅过你发现的序列号之后，你就能更了解它们了。</text>
</g>
<!-- 4&#45;&gt;29 -->
<g id="edge6" class="edge">
<title>4&#45;&gt;29</title>
<path fill="none" stroke="black" d="M2468.81,-432.41C2463.98,-424.54 2458.07,-414.93 2452.62,-406.04"/>
<polygon fill="black" stroke="black" points="2455.73,-404.43 2447.51,-397.74 2449.77,-408.09 2455.73,-404.43"/>
</g>
<!-- 18 -->
<g id="node19" class="node">
<title>18</title>
<ellipse fill="none" stroke="black" cx="2945" cy="-378" rx="50.84" ry="18"/>
<text text-anchor="middle" x="2945" y="-372.95" font-family="Times New Roman,serif" font-size="14.00">look_it_up</text>
</g>
<!-- 5&#45;&gt;18 -->
<g id="edge7" class="edge">
<title>5&#45;&gt;18</title>
<path fill="none" stroke="black" d="M2945,-431.7C2945,-424.41 2945,-415.73 2945,-407.54"/>
<polygon fill="black" stroke="black" points="2948.5,-407.62 2945,-397.62 2941.5,-407.62 2948.5,-407.62"/>
</g>
<!-- 6 -->
<g id="node7" class="node">
<title>6</title>
<ellipse fill="none" stroke="black" cx="2337" cy="-234" rx="131.71" ry="18"/>
<text text-anchor="middle" x="2337" y="-228.95" font-family="Times New Roman,serif" font-size="14.00">You: [把靴子放在一边。]</text>
</g>
<!-- 22 -->
<g id="node23" class="node">
<title>22</title>
<ellipse fill="none" stroke="black" cx="1818" cy="-1098" rx="229.97" ry="18"/>
<text text-anchor="middle" x="1818" y="-1092.95" font-family="Times New Roman,serif" font-size="14.00">Variable[&quot;TASK.run_serial_number_personal_info_done&quot;]</text>
</g>
<!-- 7&#45;&gt;22 -->
<g id="edge8" class="edge">
<title>7&#45;&gt;22</title>
<path fill="none" stroke="black" d="M1818,-1151.7C1818,-1144.41 1818,-1135.73 1818,-1127.54"/>
<polygon fill="black" stroke="black" points="1821.5,-1127.62 1818,-1117.62 1814.5,-1127.62 1821.5,-1127.62"/>
</g>
<!-- 8 -->
<g id="node9" class="node">
<title>8</title>
<ellipse fill="none" stroke="black" cx="2926" cy="-666" rx="304.7" ry="18"/>
<text text-anchor="middle" x="2926" y="-660.95" font-family="Times New Roman,serif" font-size="14.00">Variable[&quot;TASK.run_serial_number&quot;] &#160;and &#160;Variable[&quot;plaza.serial_number_1&quot;]</text>
</g>
<!-- 9 -->
<g id="node10" class="node">
<title>9</title>
<polygon fill="none" stroke="black" points="2100,-612 1669.1,-594 2100,-576 2530.91,-594 2100,-612"/>
<text text-anchor="middle" x="2100" y="-588.95" font-family="Times New Roman,serif" font-size="14.00">Variable[&quot;TASK.run_serial_number&quot;] &#160;and &#160;Variable[&quot;plaza.serial_number_1&quot;]</text>
</g>
<!-- 8&#45;&gt;9 -->
<g id="edge9" class="edge">
<title>8&#45;&gt;9</title>
<path fill="none" stroke="black" d="M2756.36,-650.62C2607.31,-637.99 2392.52,-619.79 2249.73,-607.69"/>
<polygon fill="black" stroke="black" points="2250.06,-604.2 2239.8,-606.85 2249.47,-611.18 2250.06,-604.2"/>
</g>
<!-- 10 -->
<g id="node11" class="node">
<title>10</title>
<polygon fill="none" stroke="black" points="2993,-612 2549.07,-594 2993,-576 3436.94,-594 2993,-612"/>
<text text-anchor="middle" x="2993" y="-588.95" font-family="Times New Roman,serif" font-size="14.00">!(Variable[&quot;TASK.run_serial_number&quot;] &#160;and &#160;Variable[&quot;plaza.serial_number_1&quot;])</text>
</g>
<!-- 8&#45;&gt;10 -->
<g id="edge10" class="edge">
<title>8&#45;&gt;10</title>
<path fill="none" stroke="black" d="M2942.57,-647.7C2950.64,-639.27 2960.49,-628.97 2969.33,-619.73"/>
<polygon fill="black" stroke="black" points="2971.66,-622.36 2976.05,-612.72 2966.6,-617.52 2971.66,-622.36"/>
</g>
<!-- 36 -->
<g id="node37" class="node">
<title>36</title>
<ellipse fill="none" stroke="black" cx="1992" cy="-522" rx="273.99" ry="18"/>
<text text-anchor="middle" x="1992" y="-516.95" font-family="Times New Roman,serif" font-size="14.00">Boots with Rotting Flesh: 希望很快你会更了解它们一些。</text>
</g>
<!-- 9&#45;&gt;36 -->
<g id="edge11" class="edge">
<title>9&#45;&gt;36</title>
<path fill="none" stroke="black" d="M2074.68,-576.59C2060.87,-567.64 2043.54,-556.4 2028.32,-546.54"/>
<polygon fill="black" stroke="black" points="2030.24,-543.61 2019.94,-541.11 2026.43,-549.49 2030.24,-543.61"/>
</g>
<!-- 10&#45;&gt;3 -->
<g id="edge12" class="edge">
<title>10&#45;&gt;3</title>
<path fill="none" stroke="black" d="M2981.38,-576.05C2975.92,-568.09 2969.29,-558.41 2963.18,-549.51"/>
<polygon fill="black" stroke="black" points="2966.25,-547.79 2957.71,-541.52 2960.47,-551.75 2966.25,-547.79"/>
</g>
<!-- 11 -->
<g id="node12" class="node">
<title>11</title>
<ellipse fill="none" stroke="black" cx="715" cy="-90" rx="114.3" ry="18"/>
<text text-anchor="middle" x="715" y="-84.95" font-family="Times New Roman,serif" font-size="14.00">Jump to: [what_to_do_hub]</text>
</g>
<!-- 11&#45;&gt;31 -->
<g id="edge13" class="edge">
<title>11&#45;&gt;31</title>
<path fill="none" stroke="black" d="M600.56,-91.25C410.68,-92.88 47.38,-101.56 8,-144 -2.88,-155.73 -2.37,-167.82 8,-180 109.13,-298.68 1235.87,-305.75 1556.4,-305.34"/>
<polygon fill="black" stroke="black" points="1556.41,-308.85 1566.4,-305.33 1556.4,-301.85 1556.41,-308.85"/>
</g>
<!-- 12 -->
<g id="node13" class="node">
<title>12</title>
<ellipse fill="none" stroke="black" cx="1740" cy="-810" rx="273.99" ry="18"/>
<text text-anchor="middle" x="1740" y="-804.95" font-family="Times New Roman,serif" font-size="14.00">Boots with Rotting Flesh: 希望你很快能知道它们属于谁。</text>
</g>
<!-- 12&#45;&gt;31 -->
<g id="edge14" class="edge">
<title>12&#45;&gt;31</title>
<path fill="none" stroke="black" d="M1704.72,-791.81C1664.13,-769.26 1603,-725.58 1603,-667 1603,-667 1603,-667 1603,-449 1603,-408.18 1617.84,-362.93 1628.97,-334.72"/>
<polygon fill="black" stroke="black" points="1632.2,-336.08 1632.74,-325.49 1625.72,-333.43 1632.2,-336.08"/>
</g>
<!-- 13 -->
<g id="node14" class="node">
<title>13</title>
<ellipse fill="none" stroke="black" cx="2367" cy="-810" rx="179.82" ry="18"/>
<text text-anchor="middle" x="2367" y="-804.95" font-family="Times New Roman,serif" font-size="14.00">Variable[&quot;plaza.kineema_serial_given_fake&quot;]</text>
</g>
<!-- 14 -->
<g id="node15" class="node">
<title>14</title>
<polygon fill="none" stroke="black" points="2184,-756 1929.71,-738 2184,-720 2438.3,-738 2184,-756"/>
<text text-anchor="middle" x="2184" y="-732.95" font-family="Times New Roman,serif" font-size="14.00">Variable[&quot;plaza.kineema_serial_given_fake&quot;]</text>
</g>
<!-- 13&#45;&gt;14 -->
<g id="edge15" class="edge">
<title>13&#45;&gt;14</title>
<path fill="none" stroke="black" d="M2323.17,-792.23C2295.98,-781.83 2261,-768.45 2232.91,-757.71"/>
<polygon fill="black" stroke="black" points="2234.52,-754.57 2223.93,-754.27 2232.01,-761.11 2234.52,-754.57"/>
</g>
<!-- 15 -->
<g id="node16" class="node">
<title>15</title>
<polygon fill="none" stroke="black" points="2858,-756 2590.68,-738 2858,-720 3125.33,-738 2858,-756"/>
<text text-anchor="middle" x="2858" y="-732.95" font-family="Times New Roman,serif" font-size="14.00">!(Variable[&quot;plaza.kineema_serial_given_fake&quot;])</text>
</g>
<!-- 13&#45;&gt;15 -->
<g id="edge16" class="edge">
<title>13&#45;&gt;15</title>
<path fill="none" stroke="black" d="M2467.55,-794.67C2554.28,-782.3 2678.61,-764.58 2763.52,-752.47"/>
<polygon fill="black" stroke="black" points="2763.81,-755.96 2773.22,-751.09 2762.82,-749.03 2763.81,-755.96"/>
</g>
<!-- 35 -->
<g id="node36" class="node">
<title>35</title>
<ellipse fill="none" stroke="black" cx="2117" cy="-666" rx="485.88" ry="18"/>
<text text-anchor="middle" x="2117" y="-660.95" font-family="Times New Roman,serif" font-size="14.00">Boots with Rotting Flesh: 你把错误的序列号告诉了爱丽丝，这让你失去了进一步了解它们的机会。</text>
</g>
<!-- 14&#45;&gt;35 -->
<g id="edge17" class="edge">
<title>14&#45;&gt;35</title>
<path fill="none" stroke="black" d="M2168.46,-720.76C2160.41,-712.35 2150.4,-701.89 2141.35,-692.44"/>
<polygon fill="black" stroke="black" points="2143.88,-690.02 2134.44,-685.22 2138.83,-694.86 2143.88,-690.02"/>
</g>
<!-- 15&#45;&gt;8 -->
<g id="edge18" class="edge">
<title>15&#45;&gt;8</title>
<path fill="none" stroke="black" d="M2873.78,-720.76C2882.03,-712.27 2892.32,-701.68 2901.58,-692.15"/>
<polygon fill="black" stroke="black" points="2903.86,-694.82 2908.31,-685.21 2898.84,-689.94 2903.86,-694.82"/>
</g>
<!-- 16 -->
<g id="node17" class="node">
<title>16</title>
<ellipse fill="none" stroke="black" cx="2676" cy="-306" rx="113.79" ry="18"/>
<text text-anchor="middle" x="2676" y="-300.95" font-family="Times New Roman,serif" font-size="14.00">You: 看看靴子底部。</text>
</g>
<!-- 17 -->
<g id="node18" class="node">
<title>17</title>
<ellipse fill="none" stroke="black" cx="2610" cy="-162" rx="307.26" ry="18"/>
<text text-anchor="middle" x="2610" y="-156.95" font-family="Times New Roman,serif" font-size="14.00">Boots with Rotting Flesh: 每只脚底上都印着“费尔韦瑟T&#45;500/VE”。</text>
</g>
<!-- 16&#45;&gt;17 -->
<g id="edge19" class="edge">
<title>16&#45;&gt;17</title>
<path fill="none" stroke="black" d="M2667.91,-287.59C2656.62,-263.29 2636.02,-218.97 2622.68,-190.27"/>
<polygon fill="black" stroke="black" points="2625.98,-189.08 2618.59,-181.48 2619.64,-192.03 2625.98,-189.08"/>
</g>
<!-- 21 -->
<g id="node22" class="node">
<title>21</title>
<ellipse fill="none" stroke="black" cx="3512" cy="-18" rx="92.3" ry="18"/>
<text text-anchor="middle" x="3512" y="-12.95" font-family="Times New Roman,serif" font-size="14.00">Jump to: [look_it_up]</text>
</g>
<!-- 17&#45;&gt;21 -->
<g id="edge20" class="edge">
<title>17&#45;&gt;21</title>
<path fill="none" stroke="black" d="M2477.5,-145.38C2413,-132.66 2356.47,-110.31 2393,-72 2427.74,-35.58 3138.11,-23.4 3408.63,-20.08"/>
<polygon fill="black" stroke="black" points="3408.54,-23.58 3418.5,-19.96 3408.46,-16.58 3408.54,-23.58"/>
</g>
<!-- 18&#45;&gt;6 -->
<g id="edge24" class="edge">
<title>18&#45;&gt;6</title>
<path fill="none" stroke="black" d="M2900.66,-368.73C2884.16,-365.78 2865.25,-362.56 2848,-360 2717.35,-340.59 2680.78,-357.46 2553,-324 2490.79,-307.71 2422.78,-277.45 2380.02,-256.78"/>
<polygon fill="black" stroke="black" points="2381.59,-253.66 2371.07,-252.41 2378.52,-259.95 2381.59,-253.66"/>
</g>
<!-- 18&#45;&gt;16 -->
<g id="edge22" class="edge">
<title>18&#45;&gt;16</title>
<path fill="none" stroke="black" d="M2905.02,-366.6C2862.62,-355.56 2794.86,-337.93 2744.03,-324.7"/>
<polygon fill="black" stroke="black" points="2745.16,-321.38 2734.6,-322.25 2743.39,-328.15 2745.16,-321.38"/>
</g>
<!-- 26 -->
<g id="node27" class="node">
<title>26</title>
<ellipse fill="none" stroke="black" cx="2945" cy="-306" rx="113.79" ry="18"/>
<text text-anchor="middle" x="2945" y="-300.95" font-family="Times New Roman,serif" font-size="14.00">You: 看看靴子内部。</text>
</g>
<!-- 18&#45;&gt;26 -->
<g id="edge23" class="edge">
<title>18&#45;&gt;26</title>
<path fill="none" stroke="black" d="M2945,-359.7C2945,-352.41 2945,-343.73 2945,-335.54"/>
<polygon fill="black" stroke="black" points="2948.5,-335.62 2945,-325.62 2941.5,-335.62 2948.5,-335.62"/>
</g>
<!-- 40 -->
<g id="node41" class="node">
<title>40</title>
<ellipse fill="none" stroke="black" cx="3475" cy="-306" rx="125.56" ry="18"/>
<text text-anchor="middle" x="3475" y="-300.95" font-family="Times New Roman,serif" font-size="14.00">You: 仔细地检查靴子。</text>
</g>
<!-- 18&#45;&gt;40 -->
<g id="edge21" class="edge">
<title>18&#45;&gt;40</title>
<path fill="none" stroke="black" d="M2992.04,-370.79C3077.36,-359.52 3259.4,-335.48 3374.01,-320.34"/>
<polygon fill="black" stroke="black" points="3374.27,-323.83 3383.73,-319.06 3373.36,-316.9 3374.27,-323.83"/>
</g>
<!-- 19 -->
<g id="node20" class="node">
<title>19</title>
<ellipse fill="none" stroke="black" cx="861" cy="-234" rx="396.31" ry="18"/>
<text text-anchor="middle" x="861" y="-228.95" font-family="Times New Roman,serif" font-size="14.00">You: 不是有种说法叫穿着别人的鞋子走路吗（站在别人的角度思考问题）？</text>
</g>
<!-- 25 -->
<g id="node26" class="node">
<title>25</title>
<ellipse fill="none" stroke="black" cx="715" cy="-162" rx="697.77" ry="18"/>
<text text-anchor="middle" x="715" y="-156.95" font-family="Times New Roman,serif" font-size="14.00">Boots with Rotting Flesh: 就算你已经记不得，不过你看过这么多东西，总不会那么天真吧。你永远也不会知道成为他那样的人是什么感觉。</text>
</g>
<!-- 19&#45;&gt;25 -->
<g id="edge25" class="edge">
<title>19&#45;&gt;25</title>
<path fill="none" stroke="black" d="M824.91,-215.7C805.86,-206.56 782.25,-195.24 761.8,-185.44"/>
<polygon fill="black" stroke="black" points="763.33,-182.29 752.8,-181.12 760.31,-188.6 763.33,-182.29"/>
</g>
<!-- 20 -->
<g id="node21" class="node">
<title>20</title>
<ellipse fill="none" stroke="black" cx="1858" cy="-162" rx="427.02" ry="18"/>
<text text-anchor="middle" x="1858" y="-156.95" font-family="Times New Roman,serif" font-size="14.00">Boots with Rotting Flesh: 大小似乎是合适的。只要你能把那些臭烘烘的烂肉给弄出来。</text>
</g>
<!-- 20&#45;&gt;11 -->
<g id="edge26" class="edge">
<title>20&#45;&gt;11</title>
<path fill="none" stroke="black" d="M1622.56,-146.58C1381.4,-131.81 1016.41,-109.46 831.38,-98.13"/>
<polygon fill="black" stroke="black" points="831.7,-94.64 821.5,-97.52 831.27,-101.63 831.7,-94.64"/>
</g>
<!-- 21&#45;&gt;18 -->
<g id="edge27" class="edge">
<title>21&#45;&gt;18</title>
<path fill="none" stroke="black" d="M3604.24,-19.73C3891.16,-22.42 4751.54,-33.64 4797,-72 4827.92,-98.08 4816,-120.55 4816,-161 4816,-235 4816,-235 4816,-235 4816,-327.86 3331.16,-367.97 3007.01,-375.61"/>
<polygon fill="black" stroke="black" points="3006.96,-372.11 2997.05,-375.85 3007.13,-379.11 3006.96,-372.11"/>
</g>
<!-- 23 -->
<g id="node24" class="node">
<title>23</title>
<polygon fill="none" stroke="black" points="1478,-1044 1152.77,-1026 1478,-1008 1803.23,-1026 1478,-1044"/>
<text text-anchor="middle" x="1478" y="-1020.95" font-family="Times New Roman,serif" font-size="14.00">Variable[&quot;TASK.run_serial_number_personal_info_done&quot;]</text>
</g>
<!-- 22&#45;&gt;23 -->
<g id="edge29" class="edge">
<title>22&#45;&gt;23</title>
<path fill="none" stroke="black" d="M1738.72,-1080.68C1683.64,-1069.34 1610.61,-1054.3 1555.85,-1043.03"/>
<polygon fill="black" stroke="black" points="1556.79,-1039.65 1546.29,-1041.06 1555.38,-1046.5 1556.79,-1039.65"/>
</g>
<!-- 24 -->
<g id="node25" class="node">
<title>24</title>
<polygon fill="none" stroke="black" points="2184,-1044 1845.75,-1026 2184,-1008 2522.26,-1026 2184,-1044"/>
<text text-anchor="middle" x="2184" y="-1020.95" font-family="Times New Roman,serif" font-size="14.00">!(Variable[&quot;TASK.run_serial_number_personal_info_done&quot;])</text>
</g>
<!-- 22&#45;&gt;24 -->
<g id="edge28" class="edge">
<title>22&#45;&gt;24</title>
<path fill="none" stroke="black" d="M1902.43,-1080.85C1962.23,-1069.42 2042.04,-1054.15 2101.42,-1042.8"/>
<polygon fill="black" stroke="black" points="2101.98,-1046.25 2111.15,-1040.93 2100.67,-1039.38 2101.98,-1046.25"/>
</g>
<!-- 23&#45;&gt;2 -->
<g id="edge30" class="edge">
<title>23&#45;&gt;2</title>
<path fill="none" stroke="black" d="M1466.15,-1008.41C1460.47,-1000.45 1453.52,-990.72 1447.12,-981.76"/>
<polygon fill="black" stroke="black" points="1450.01,-979.78 1441.35,-973.68 1444.31,-983.85 1450.01,-979.78"/>
</g>
<!-- 32 -->
<g id="node33" class="node">
<title>32</title>
<ellipse fill="none" stroke="black" cx="2210" cy="-954" rx="207.45" ry="18"/>
<text text-anchor="middle" x="2210" y="-948.95" font-family="Times New Roman,serif" font-size="14.00">Variable[&quot;TASK.run_serial_number_personal_info&quot;]</text>
</g>
<!-- 24&#45;&gt;32 -->
<g id="edge31" class="edge">
<title>24&#45;&gt;32</title>
<path fill="none" stroke="black" d="M2190.3,-1008.05C2193.1,-1000.52 2196.47,-991.44 2199.63,-982.94"/>
<polygon fill="black" stroke="black" points="2202.86,-984.29 2203.06,-973.69 2196.3,-981.85 2202.86,-984.29"/>
</g>
<!-- 25&#45;&gt;11 -->
<g id="edge32" class="edge">
<title>25&#45;&gt;11</title>
<path fill="none" stroke="black" d="M715,-143.7C715,-136.41 715,-127.73 715,-119.54"/>
<polygon fill="black" stroke="black" points="718.5,-119.62 715,-109.62 711.5,-119.62 718.5,-119.62"/>
</g>
<!-- 28 -->
<g id="node29" class="node">
<title>28</title>
<ellipse fill="none" stroke="black" cx="2664" cy="-90" rx="262.22" ry="18"/>
<text text-anchor="middle" x="2664" y="-84.95" font-family="Times New Roman,serif" font-size="14.00">Boots with Rotting Flesh: 还是一些袜子和腐坏的尸体。</text>
</g>
<!-- 26&#45;&gt;28 -->
<g id="edge33" class="edge">
<title>26&#45;&gt;28</title>
<path fill="none" stroke="black" d="M2948.85,-287.55C2954.96,-254.8 2962.71,-183.85 2926,-144 2910.4,-127.05 2867.48,-115.28 2820.79,-107.22"/>
<polygon fill="black" stroke="black" points="2821.43,-103.77 2811,-105.59 2820.29,-110.68 2821.43,-103.77"/>
</g>
<!-- 27 -->
<g id="node28" class="node">
<title>27</title>
<ellipse fill="none" stroke="black" cx="4443" cy="-90" rx="344.62" ry="18"/>
<text text-anchor="middle" x="4443" y="-84.95" font-family="Times New Roman,serif" font-size="14.00">Boots with Rotting Flesh: 又是那些优雅的螺纹，中间还隐藏着序列号。</text>
</g>
<!-- 27&#45;&gt;21 -->
<g id="edge34" class="edge">
<title>27&#45;&gt;21</title>
<path fill="none" stroke="black" d="M4251.79,-74.62C4055.94,-59.9 3759.4,-37.6 3608.12,-26.23"/>
<polygon fill="black" stroke="black" points="3608.79,-22.77 3598.55,-25.51 3608.26,-29.75 3608.79,-22.77"/>
</g>
<!-- 28&#45;&gt;21 -->
<g id="edge35" class="edge">
<title>28&#45;&gt;21</title>
<path fill="none" stroke="black" d="M2827.26,-75.52C3002.24,-61.08 3274.09,-38.64 3416.93,-26.85"/>
<polygon fill="black" stroke="black" points="3417.06,-30.35 3426.74,-26.04 3416.49,-23.37 3417.06,-30.35"/>
</g>
<!-- 29&#45;&gt;31 -->
<g id="edge36" class="edge">
<title>29&#45;&gt;31</title>
<path fill="none" stroke="black" d="M2259.07,-361.42C2090.7,-346.6 1845.05,-324.97 1720.21,-313.97"/>
<polygon fill="black" stroke="black" points="1720.65,-310.5 1710.38,-313.11 1720.04,-317.47 1720.65,-310.5"/>
</g>
<!-- 30 -->
<g id="node31" class="node">
<title>30</title>
<ellipse fill="none" stroke="black" cx="3512" cy="-90" rx="568.28" ry="18"/>
<text text-anchor="middle" x="3512" y="-84.95" font-family="Times New Roman,serif" font-size="14.00">Boots with Rotting Flesh: 优雅的螺纹盖住了靴子光滑的表面。只要把它们擦干净，它们又会变回华丽灿烂的样子。</text>
</g>
<!-- 30&#45;&gt;21 -->
<g id="edge37" class="edge">
<title>30&#45;&gt;21</title>
<path fill="none" stroke="black" d="M3512,-71.7C3512,-64.41 3512,-55.73 3512,-47.54"/>
<polygon fill="black" stroke="black" points="3515.5,-47.62 3512,-37.62 3508.5,-47.62 3515.5,-47.62"/>
</g>
<!-- 31&#45;&gt;6 -->
<g id="edge40" class="edge">
<title>31&#45;&gt;6</title>
<path fill="none" stroke="black" d="M1707.42,-298.32C1825.98,-286.4 2075.32,-261.32 2222.15,-246.55"/>
<polygon fill="black" stroke="black" points="2222.3,-250.05 2231.9,-245.57 2221.6,-243.09 2222.3,-250.05"/>
</g>
<!-- 31&#45;&gt;19 -->
<g id="edge39" class="edge">
<title>31&#45;&gt;19</title>
<path fill="none" stroke="black" d="M1573.49,-298.94C1457.3,-288.51 1215.72,-266.83 1046.2,-251.62"/>
<polygon fill="black" stroke="black" points="1046.67,-248.15 1036.39,-250.74 1046.04,-255.12 1046.67,-248.15"/>
</g>
<!-- 41 -->
<g id="node42" class="node">
<title>41</title>
<ellipse fill="none" stroke="black" cx="1726" cy="-234" rx="172.65" ry="18"/>
<text text-anchor="middle" x="1726" y="-228.95" font-family="Times New Roman,serif" font-size="14.00">You: 我还能有机会穿上它们吗？</text>
</g>
<!-- 31&#45;&gt;41 -->
<g id="edge38" class="edge">
<title>31&#45;&gt;41</title>
<path fill="none" stroke="black" d="M1661.15,-288.41C1671.71,-279.71 1684.85,-268.89 1696.53,-259.27"/>
<polygon fill="black" stroke="black" points="1698.45,-262.22 1703.95,-253.16 1694,-256.82 1698.45,-262.22"/>
</g>
<!-- 33 -->
<g id="node34" class="node">
<title>33</title>
<polygon fill="none" stroke="black" points="1749,-900 1455.62,-882 1749,-864 2042.39,-882 1749,-900"/>
<text text-anchor="middle" x="1749" y="-876.95" font-family="Times New Roman,serif" font-size="14.00">Variable[&quot;TASK.run_serial_number_personal_info&quot;]</text>
</g>
<!-- 32&#45;&gt;33 -->
<g id="edge41" class="edge">
<title>32&#45;&gt;33</title>
<path fill="none" stroke="black" d="M2109.97,-937.81C2030.34,-925.72 1919.73,-908.92 1842,-897.12"/>
<polygon fill="black" stroke="black" points="1842.69,-893.69 1832.28,-895.64 1841.64,-900.61 1842.69,-893.69"/>
</g>
<!-- 34 -->
<g id="node35" class="node">
<title>34</title>
<polygon fill="none" stroke="black" points="2367,-900 2060.59,-882 2367,-864 2673.42,-882 2367,-900"/>
<text text-anchor="middle" x="2367" y="-876.95" font-family="Times New Roman,serif" font-size="14.00">!(Variable[&quot;TASK.run_serial_number_personal_info&quot;])</text>
</g>
<!-- 32&#45;&gt;34 -->
<g id="edge42" class="edge">
<title>32&#45;&gt;34</title>
<path fill="none" stroke="black" d="M2248.41,-935.88C2270.69,-925.94 2298.86,-913.38 2322.15,-903"/>
<polygon fill="black" stroke="black" points="2323.38,-906.28 2331.09,-899.01 2320.53,-899.89 2323.38,-906.28"/>
</g>
<!-- 33&#45;&gt;12 -->
<g id="edge43" class="edge">
<title>33&#45;&gt;12</title>
<path fill="none" stroke="black" d="M1746.78,-863.7C1745.83,-856.32 1744.7,-847.52 1743.64,-839.25"/>
<polygon fill="black" stroke="black" points="1747.14,-839.08 1742.4,-829.61 1740.2,-839.97 1747.14,-839.08"/>
</g>
<!-- 34&#45;&gt;13 -->
<g id="edge44" class="edge">
<title>34&#45;&gt;13</title>
<path fill="none" stroke="black" d="M2367,-863.7C2367,-856.41 2367,-847.73 2367,-839.54"/>
<polygon fill="black" stroke="black" points="2370.5,-839.62 2367,-829.62 2363.5,-839.62 2370.5,-839.62"/>
</g>
<!-- 35&#45;&gt;31 -->
<g id="edge45" class="edge">
<title>35&#45;&gt;31</title>
<path fill="none" stroke="black" d="M1883.41,-649.78C1780.1,-640.88 1677.81,-628.19 1660,-612 1630.08,-584.79 1641,-563.45 1641,-523 1641,-523 1641,-523 1641,-449 1641,-409.74 1641,-364.38 1641,-335.69"/>
<polygon fill="black" stroke="black" points="1644.5,-336 1641,-326 1637.5,-336 1644.5,-336"/>
</g>
<!-- 36&#45;&gt;31 -->
<g id="edge46" class="edge">
<title>36&#45;&gt;31</title>
<path fill="none" stroke="black" d="M1963.58,-503.67C1900.11,-464.97 1746.97,-371.61 1676.98,-328.94"/>
<polygon fill="black" stroke="black" points="1678.94,-326.03 1668.58,-323.81 1675.29,-332 1678.94,-326.03"/>
</g>
<!-- 37 -->
<g id="node38" class="node">
<title>37</title>
<ellipse fill="none" stroke="black" cx="3512" cy="-234" rx="214.11" ry="18"/>
<text text-anchor="middle" x="3512" y="-228.95" font-family="Times New Roman,serif" font-size="14.00">Variable[&quot;yard.hanged_serial_number_seen&quot;] == false</text>
</g>
<!-- 38 -->
<g id="node39" class="node">
<title>38</title>
<polygon fill="none" stroke="black" points="3512,-180 3209.21,-162 3512,-144 3814.8,-162 3512,-180"/>
<text text-anchor="middle" x="3512" y="-156.95" font-family="Times New Roman,serif" font-size="14.00">Variable[&quot;yard.hanged_serial_number_seen&quot;] == false</text>
</g>
<!-- 37&#45;&gt;38 -->
<g id="edge47" class="edge">
<title>37&#45;&gt;38</title>
<path fill="none" stroke="black" d="M3512,-215.7C3512,-208.41 3512,-199.73 3512,-191.54"/>
<polygon fill="black" stroke="black" points="3515.5,-191.62 3512,-181.62 3508.5,-191.62 3515.5,-191.62"/>
</g>
<!-- 39 -->
<g id="node40" class="node">
<title>39</title>
<polygon fill="none" stroke="black" points="4296,-180 3980.18,-162 4296,-144 4611.82,-162 4296,-180"/>
<text text-anchor="middle" x="4296" y="-156.95" font-family="Times New Roman,serif" font-size="14.00">!(Variable[&quot;yard.hanged_serial_number_seen&quot;] == false)</text>
</g>
<!-- 37&#45;&gt;39 -->
<g id="edge48" class="edge">
<title>37&#45;&gt;39</title>
<path fill="none" stroke="black" d="M3654.89,-220.24C3800.45,-207.25 4024.26,-187.26 4165.27,-174.67"/>
<polygon fill="black" stroke="black" points="4165.39,-178.18 4175.03,-173.8 4164.76,-171.2 4165.39,-178.18"/>
</g>
<!-- 38&#45;&gt;30 -->
<g id="edge49" class="edge">
<title>38&#45;&gt;30</title>
<path fill="none" stroke="black" d="M3512,-143.7C3512,-136.41 3512,-127.73 3512,-119.54"/>
<polygon fill="black" stroke="black" points="3515.5,-119.62 3512,-109.62 3508.5,-119.62 3515.5,-119.62"/>
</g>
<!-- 39&#45;&gt;27 -->
<g id="edge50" class="edge">
<title>39&#45;&gt;27</title>
<path fill="none" stroke="black" d="M4328.63,-145.46C4348.56,-135.97 4374.38,-123.68 4396.44,-113.17"/>
<polygon fill="black" stroke="black" points="4397.71,-116.45 4405.23,-108.99 4394.7,-110.13 4397.71,-116.45"/>
</g>
<!-- 40&#45;&gt;37 -->
<g id="edge51" class="edge">
<title>40&#45;&gt;37</title>
<path fill="none" stroke="black" d="M3484.15,-287.7C3488.23,-279.98 3493.13,-270.71 3497.67,-262.11"/>
<polygon fill="black" stroke="black" points="3500.68,-263.92 3502.26,-253.44 3494.49,-260.65 3500.68,-263.92"/>
</g>
<!-- 41&#45;&gt;20 -->
<g id="edge52" class="edge">
<title>41&#45;&gt;20</title>
<path fill="none" stroke="black" d="M1758.29,-215.88C1775.43,-206.79 1796.7,-195.51 1815.19,-185.71"/>
<polygon fill="black" stroke="black" points="1816.6,-188.92 1823.79,-181.14 1813.32,-182.74 1816.6,-188.92"/>
</g>
</g>
</svg>
