<?xml version="1.0" encoding="UTF-8" standalone="no"?>
<!DOCTYPE svg PUBLIC "-//W3C//DTD SVG 1.1//EN"
 "http://www.w3.org/Graphics/SVG/1.1/DTD/svg11.dtd">
<!-- Generated by graphviz version 12.2.1 (20241206.2353)
 -->
<!-- Title: G Pages: 1 -->
<svg width="7039pt" height="1484pt"
 viewBox="0.00 0.00 7039.35 1484.00" xmlns="http://www.w3.org/2000/svg" xmlns:xlink="http://www.w3.org/1999/xlink">
<g id="graph0" class="graph" transform="scale(1 1) rotate(0) translate(4 1480)">
<title>G</title>
<polygon fill="white" stroke="none" points="-4,4 -4,-1480 7035.35,-1480 7035.35,4 -4,4"/>
<!-- 0 -->
<g id="node1" class="node">
<title>0</title>
<ellipse fill="none" stroke="black" cx="4728" cy="-1458" rx="39.07" ry="18"/>
<text text-anchor="middle" x="4728" y="-1452.95" font-family="Times New Roman,serif" font-size="14.00">START</text>
</g>
<!-- 0&#45;&gt;0 -->
<g id="edge1" class="edge">
<title>0&#45;&gt;0</title>
<path fill="none" stroke="black" d="M4756.19,-1470.94C4771.3,-1473.14 4785.07,-1468.83 4785.07,-1458 4785.07,-1449.96 4777.48,-1445.52 4767.4,-1444.65"/>
<polygon fill="black" stroke="black" points="4767.57,-1441.15 4757.7,-1445 4767.82,-1448.14 4767.57,-1441.15"/>
</g>
<!-- 1 -->
<g id="node2" class="node">
<title>1</title>
<ellipse fill="none" stroke="black" cx="4833" cy="-1458" rx="29.86" ry="18"/>
<text text-anchor="middle" x="4833" y="-1452.95" font-family="Times New Roman,serif" font-size="14.00">input</text>
</g>
<!-- 39 -->
<g id="node40" class="node">
<title>39</title>
<ellipse fill="none" stroke="black" cx="4833" cy="-1386" rx="945.48" ry="18"/>
<text text-anchor="middle" x="4833" y="-1380.95" font-family="Times New Roman,serif" font-size="14.00">Stock Certificate: 泛着珠光宝气的纸张顽固地拒绝保持展开状态——非得用力按住两端才行。上面印刷着满是精美花饰的字体令人看着费劲。其中最吸引人的部分莫过于顶部装饰的图案。</text>
</g>
<!-- 1&#45;&gt;39 -->
<g id="edge2" class="edge">
<title>1&#45;&gt;39</title>
<path fill="none" stroke="black" d="M4833,-1439.7C4833,-1432.41 4833,-1423.73 4833,-1415.54"/>
<polygon fill="black" stroke="black" points="4836.5,-1415.62 4833,-1405.62 4829.5,-1415.62 4836.5,-1415.62"/>
</g>
<!-- 2 -->
<g id="node3" class="node">
<title>2</title>
<ellipse fill="none" stroke="black" cx="2900" cy="-306" rx="902.49" ry="18"/>
<text text-anchor="middle" x="2900" y="-300.95" font-family="Times New Roman,serif" font-size="14.00">Stock Certificate: 纸上潦草的字迹也纷纷向你咧开大嘴。无数张血盆大口仿佛要将你吞噬。纸面上的涂鸦纠缠不休，川流不息，你仍不知该从何处开始解读，双眼逐渐湿润起来。</text>
</g>
<!-- 44 -->
<g id="node45" class="node">
<title>44</title>
<ellipse fill="none" stroke="black" cx="3328" cy="-234" rx="397.33" ry="18"/>
<text text-anchor="middle" x="3328" y="-228.95" font-family="Times New Roman,serif" font-size="14.00">Perception (Sight): 得了，得了——拉倒吧。你都感到刺痛了。还是换个方式吧。</text>
</g>
<!-- 2&#45;&gt;44 -->
<g id="edge3" class="edge">
<title>2&#45;&gt;44</title>
<path fill="none" stroke="black" d="M3006.07,-287.65C3069.26,-277.32 3149.45,-264.2 3213.99,-253.65"/>
<polygon fill="black" stroke="black" points="3214.23,-257.15 3223.53,-252.09 3213.1,-250.25 3214.23,-257.15"/>
</g>
<!-- 3 -->
<g id="node4" class="node">
<title>3</title>
<ellipse fill="none" stroke="black" cx="2437" cy="-450" rx="537.06" ry="18"/>
<text text-anchor="middle" x="2437" y="-444.95" font-family="Times New Roman,serif" font-size="14.00">Logic: 把注意力集中在空白处——这样就能看出每个字母的范围。先把字母单独摘出来，再逐个*破解*。</text>
</g>
<!-- 20 -->
<g id="node21" class="node">
<title>20</title>
<ellipse fill="none" stroke="black" cx="1842" cy="-378" rx="1058.08" ry="18"/>
<text text-anchor="middle" x="1842" y="-372.95" font-family="Times New Roman,serif" font-size="14.00">Stock Certificate: 你逐渐做到了——线条逐渐结合成单个的字母。整个过程像是望着冰雪消融，露出下面的灌木。数秒之后，你终于能认出整个标题了：M——K——M——G。以此为起点，你能读出剩下的字吗？</text>
</g>
<!-- 3&#45;&gt;20 -->
<g id="edge4" class="edge">
<title>3&#45;&gt;20</title>
<path fill="none" stroke="black" d="M2294.1,-432.19C2205.56,-421.77 2091.72,-408.38 2000.43,-397.64"/>
<polygon fill="black" stroke="black" points="2000.97,-394.18 1990.63,-396.49 2000.15,-401.13 2000.97,-394.18"/>
</g>
<!-- 4 -->
<g id="node5" class="node">
<title>4</title>
<ellipse fill="none" stroke="black" cx="4833" cy="-1314" rx="311.86" ry="18"/>
<text text-anchor="middle" x="4833" y="-1308.95" font-family="Times New Roman,serif" font-size="14.00">Hand/Eye Coordination: 顽固的小东西！但别担心——我按得住。</text>
</g>
<!-- 8 -->
<g id="node9" class="node">
<title>8</title>
<ellipse fill="none" stroke="black" cx="4833" cy="-1242" rx="725.4" ry="18"/>
<text text-anchor="middle" x="4833" y="-1236.95" font-family="Times New Roman,serif" font-size="14.00">Rhetoric: 在这种地方用上*华贵*字体也未免太狡猾了。*设计*这种字体的初衷就是通过花里胡哨到令人看不懂，在签订法律协议时占尽便宜。</text>
</g>
<!-- 4&#45;&gt;8 -->
<g id="edge5" class="edge">
<title>4&#45;&gt;8</title>
<path fill="none" stroke="black" d="M4833,-1295.7C4833,-1288.41 4833,-1279.73 4833,-1271.54"/>
<polygon fill="black" stroke="black" points="4836.5,-1271.62 4833,-1261.62 4829.5,-1271.62 4836.5,-1271.62"/>
</g>
<!-- 5 -->
<g id="node6" class="node">
<title>5</title>
<ellipse fill="none" stroke="black" cx="3296" cy="-594" rx="224.85" ry="18"/>
<text text-anchor="middle" x="3296" y="-588.95" font-family="Times New Roman,serif" font-size="14.00">Variable[&quot;inventory.stock_certificate_perception_squint&quot;]</text>
</g>
<!-- 6 -->
<g id="node7" class="node">
<title>6</title>
<polygon fill="none" stroke="black" points="3650,-540 3332.01,-522 3650,-504 3967.99,-522 3650,-540"/>
<text text-anchor="middle" x="3650" y="-516.95" font-family="Times New Roman,serif" font-size="14.00">Variable[&quot;inventory.stock_certificate_perception_squint&quot;]</text>
</g>
<!-- 5&#45;&gt;6 -->
<g id="edge6" class="edge">
<title>5&#45;&gt;6</title>
<path fill="none" stroke="black" d="M3377.66,-576.85C3435.47,-565.42 3512.62,-550.17 3570.05,-538.81"/>
<polygon fill="black" stroke="black" points="3570.64,-542.26 3579.77,-536.89 3569.28,-535.39 3570.64,-542.26"/>
</g>
<!-- 7 -->
<g id="node8" class="node">
<title>7</title>
<polygon fill="none" stroke="black" points="2983,-540 2651.98,-522 2983,-504 3314.02,-522 2983,-540"/>
<text text-anchor="middle" x="2983" y="-516.95" font-family="Times New Roman,serif" font-size="14.00">!(Variable[&quot;inventory.stock_certificate_perception_squint&quot;])</text>
</g>
<!-- 5&#45;&gt;7 -->
<g id="edge7" class="edge">
<title>5&#45;&gt;7</title>
<path fill="none" stroke="black" d="M3222.62,-576.59C3172.72,-565.43 3106.96,-550.72 3056.95,-539.54"/>
<polygon fill="black" stroke="black" points="3057.88,-536.16 3047.36,-537.39 3056.35,-542.99 3057.88,-536.16"/>
</g>
<!-- 29 -->
<g id="node30" class="node">
<title>29</title>
<ellipse fill="none" stroke="black" cx="3644" cy="-450" rx="330.8" ry="18"/>
<text text-anchor="middle" x="3644" y="-444.95" font-family="Times New Roman,serif" font-size="14.00">Perception (Sight): 那样根本没用，对吧？你不如努力把眼睛瞪大？</text>
</g>
<!-- 6&#45;&gt;29 -->
<g id="edge8" class="edge">
<title>6&#45;&gt;29</title>
<path fill="none" stroke="black" d="M3648.52,-503.7C3647.89,-496.41 3647.15,-487.73 3646.45,-479.54"/>
<polygon fill="black" stroke="black" points="3649.94,-479.28 3645.6,-469.61 3642.96,-479.87 3649.94,-479.28"/>
</g>
<!-- 18 -->
<g id="node19" class="node">
<title>18</title>
<ellipse fill="none" stroke="black" cx="3088" cy="-450" rx="96.39" ry="18"/>
<text text-anchor="middle" x="3088" y="-444.95" font-family="Times New Roman,serif" font-size="14.00">Jump to: [reading hub]</text>
</g>
<!-- 7&#45;&gt;18 -->
<g id="edge9" class="edge">
<title>7&#45;&gt;18</title>
<path fill="none" stroke="black" d="M3007.09,-504.94C3020.8,-495.8 3038.2,-484.2 3053.36,-474.1"/>
<polygon fill="black" stroke="black" points="3055.29,-477.01 3061.67,-468.55 3051.41,-471.19 3055.29,-477.01"/>
</g>
<!-- 10 -->
<g id="node11" class="node">
<title>10</title>
<ellipse fill="none" stroke="black" cx="4833" cy="-1170" rx="64.15" ry="18"/>
<text text-anchor="middle" x="4833" y="-1164.95" font-family="Times New Roman,serif" font-size="14.00">certificate hub</text>
</g>
<!-- 8&#45;&gt;10 -->
<g id="edge10" class="edge">
<title>8&#45;&gt;10</title>
<path fill="none" stroke="black" d="M4833,-1223.7C4833,-1216.41 4833,-1207.73 4833,-1199.54"/>
<polygon fill="black" stroke="black" points="4836.5,-1199.62 4833,-1189.62 4829.5,-1199.62 4836.5,-1199.62"/>
</g>
<!-- 9 -->
<g id="node10" class="node">
<title>9</title>
<ellipse fill="none" stroke="black" cx="584" cy="-234" rx="105.6" ry="18"/>
<text text-anchor="middle" x="584" y="-228.95" font-family="Times New Roman,serif" font-size="14.00">Jump to: [certificate hub]</text>
</g>
<!-- 9&#45;&gt;10 -->
<g id="edge11" class="edge">
<title>9&#45;&gt;10</title>
<path fill="none" stroke="black" d="M481.94,-238.99C314.54,-248.35 0,-278.98 0,-377 0,-1027 0,-1027 0,-1027 0,-1151.37 4143.91,-1167.17 4757.46,-1168.83"/>
<polygon fill="black" stroke="black" points="4757.26,-1172.32 4767.27,-1168.85 4757.28,-1165.32 4757.26,-1172.32"/>
</g>
<!-- 23 -->
<g id="node24" class="node">
<title>23</title>
<ellipse fill="none" stroke="black" cx="4957" cy="-1098" rx="96.39" ry="18"/>
<text text-anchor="middle" x="4957" y="-1092.95" font-family="Times New Roman,serif" font-size="14.00">You: [置之不理。]</text>
</g>
<!-- 10&#45;&gt;23 -->
<g id="edge14" class="edge">
<title>10&#45;&gt;23</title>
<path fill="none" stroke="black" d="M4860.52,-1153.46C4877.38,-1143.95 4899.22,-1131.62 4917.86,-1121.1"/>
<polygon fill="black" stroke="black" points="4919.52,-1124.18 4926.51,-1116.21 4916.08,-1118.08 4919.52,-1124.18"/>
</g>
<!-- 26 -->
<g id="node27" class="node">
<title>26</title>
<ellipse fill="none" stroke="black" cx="5646" cy="-1098" rx="113.79" ry="18"/>
<text text-anchor="middle" x="5646" y="-1092.95" font-family="Times New Roman,serif" font-size="14.00">You: 看文档的顶部。</text>
</g>
<!-- 10&#45;&gt;26 -->
<g id="edge12" class="edge">
<title>10&#45;&gt;26</title>
<path fill="none" stroke="black" d="M4893.77,-1163.77C5030.33,-1152.01 5363.04,-1123.36 5536.59,-1108.42"/>
<polygon fill="black" stroke="black" points="5536.87,-1111.91 5546.53,-1107.56 5536.27,-1104.94 5536.87,-1111.91"/>
</g>
<!-- 27 -->
<g id="node28" class="node">
<title>27</title>
<ellipse fill="none" stroke="black" cx="4328" cy="-1098" rx="113.79" ry="18"/>
<text text-anchor="middle" x="4328" y="-1092.95" font-family="Times New Roman,serif" font-size="14.00">You: 试图阅读文字。</text>
</g>
<!-- 10&#45;&gt;27 -->
<g id="edge13" class="edge">
<title>10&#45;&gt;27</title>
<path fill="none" stroke="black" d="M4776.54,-1161.17C4690.74,-1149.28 4526.53,-1126.52 4422.38,-1112.08"/>
<polygon fill="black" stroke="black" points="4423.12,-1108.65 4412.74,-1110.75 4422.16,-1115.59 4423.12,-1108.65"/>
</g>
<!-- 11 -->
<g id="node12" class="node">
<title>11</title>
<ellipse fill="none" stroke="black" cx="1732" cy="-594" rx="199.26" ry="18"/>
<text text-anchor="middle" x="1732" y="-588.95" font-family="Times New Roman,serif" font-size="14.00">Variable[&quot;inventory.stock_certificate_logic_style&quot;]</text>
</g>
<!-- 12 -->
<g id="node13" class="node">
<title>12</title>
<polygon fill="none" stroke="black" points="2129,-540 1847.2,-522 2129,-504 2410.8,-522 2129,-540"/>
<text text-anchor="middle" x="2129" y="-516.95" font-family="Times New Roman,serif" font-size="14.00">Variable[&quot;inventory.stock_certificate_logic_style&quot;]</text>
</g>
<!-- 11&#45;&gt;12 -->
<g id="edge15" class="edge">
<title>11&#45;&gt;12</title>
<path fill="none" stroke="black" d="M1820.11,-577.46C1887.27,-565.62 1979.14,-549.42 2045.21,-537.77"/>
<polygon fill="black" stroke="black" points="2045.68,-541.25 2054.92,-536.06 2044.46,-534.35 2045.68,-541.25"/>
</g>
<!-- 13 -->
<g id="node14" class="node">
<title>13</title>
<polygon fill="none" stroke="black" points="1235,-540 940.17,-522 1235,-504 1529.83,-522 1235,-540"/>
<text text-anchor="middle" x="1235" y="-516.95" font-family="Times New Roman,serif" font-size="14.00">!(Variable[&quot;inventory.stock_certificate_logic_style&quot;])</text>
</g>
<!-- 11&#45;&gt;13 -->
<g id="edge16" class="edge">
<title>11&#45;&gt;13</title>
<path fill="none" stroke="black" d="M1627.51,-578.28C1540.59,-566.04 1417.77,-548.74 1332.77,-536.77"/>
<polygon fill="black" stroke="black" points="1333.44,-533.33 1323.05,-535.4 1332.47,-540.26 1333.44,-533.33"/>
</g>
<!-- 12&#45;&gt;3 -->
<g id="edge17" class="edge">
<title>12&#45;&gt;3</title>
<path fill="none" stroke="black" d="M2188.75,-507.42C2234.55,-497.01 2298.41,-482.5 2349.9,-470.8"/>
<polygon fill="black" stroke="black" points="2350.57,-474.23 2359.54,-468.6 2349.02,-467.41 2350.57,-474.23"/>
</g>
<!-- 47 -->
<g id="node48" class="node">
<title>47</title>
<ellipse fill="none" stroke="black" cx="974" cy="-450" rx="907.61" ry="18"/>
<text text-anchor="middle" x="974" y="-444.95" font-family="Times New Roman,serif" font-size="14.00">Stock Certificate: 就算这东西确实别有深意，也深到了你无法参透的程度。你只能看出一个令人费解的谜团，大量文字如同蝰蛇盘绕于巢穴之中——如果这些真能算是*文字*的话。</text>
</g>
<!-- 13&#45;&gt;47 -->
<g id="edge18" class="edge">
<title>13&#45;&gt;47</title>
<path fill="none" stroke="black" d="M1181.87,-506.75C1143.83,-496.55 1092.07,-482.67 1049.72,-471.31"/>
<polygon fill="black" stroke="black" points="1050.63,-467.93 1040.07,-468.72 1048.82,-474.69 1050.63,-467.93"/>
</g>
<!-- 14 -->
<g id="node15" class="node">
<title>14</title>
<ellipse fill="none" stroke="black" cx="3650" cy="-810" rx="54.93" ry="18"/>
<text text-anchor="middle" x="3650" y="-804.95" font-family="Times New Roman,serif" font-size="14.00">reading hub</text>
</g>
<!-- 17 -->
<g id="node18" class="node">
<title>17</title>
<ellipse fill="none" stroke="black" cx="2096" cy="-738" rx="102.02" ry="18"/>
<text text-anchor="middle" x="2096" y="-732.95" font-family="Times New Roman,serif" font-size="14.00">You: 专注于标题。</text>
</g>
<!-- 14&#45;&gt;17 -->
<g id="edge20" class="edge">
<title>14&#45;&gt;17</title>
<path fill="none" stroke="black" d="M3595.6,-806.55C3370.74,-796.42 2511.27,-757.71 2205.1,-743.91"/>
<polygon fill="black" stroke="black" points="2205.67,-740.44 2195.52,-743.48 2205.35,-747.43 2205.67,-740.44"/>
</g>
<!-- 40 -->
<g id="node41" class="node">
<title>40</title>
<ellipse fill="none" stroke="black" cx="3473" cy="-738" rx="231.51" ry="18"/>
<text text-anchor="middle" x="3473" y="-732.95" font-family="Times New Roman,serif" font-size="14.00">You: 眯起眼睛，指望窥见字里行间的玄机。</text>
</g>
<!-- 14&#45;&gt;40 -->
<g id="edge19" class="edge">
<title>14&#45;&gt;40</title>
<path fill="none" stroke="black" d="M3615.87,-795.5C3590.55,-785.49 3555.54,-771.64 3526.51,-760.16"/>
<polygon fill="black" stroke="black" points="3528.11,-757.03 3517.52,-756.61 3525.53,-763.54 3528.11,-757.03"/>
</g>
<!-- 41 -->
<g id="node42" class="node">
<title>41</title>
<ellipse fill="none" stroke="black" cx="4307" cy="-738" rx="125.56" ry="18"/>
<text text-anchor="middle" x="4307" y="-732.95" font-family="Times New Roman,serif" font-size="14.00">You: 放弃。（返回。）</text>
</g>
<!-- 14&#45;&gt;41 -->
<g id="edge21" class="edge">
<title>14&#45;&gt;41</title>
<path fill="none" stroke="black" d="M3701.83,-803.48C3808.25,-792.14 4053.46,-766.01 4196.96,-750.72"/>
<polygon fill="black" stroke="black" points="4197.31,-754.21 4206.88,-749.67 4196.56,-747.25 4197.31,-754.21"/>
</g>
<!-- 15 -->
<g id="node16" class="node">
<title>15</title>
<ellipse fill="none" stroke="black" cx="3713" cy="-954" rx="283.71" ry="18"/>
<text text-anchor="middle" x="3713" y="-948.95" font-family="Times New Roman,serif" font-size="14.00">Perception (Sight): 你能做到的！也许眯眼能够帮你看清？</text>
</g>
<!-- 30 -->
<g id="node31" class="node">
<title>30</title>
<ellipse fill="none" stroke="black" cx="3663" cy="-882" rx="367.14" ry="18"/>
<text text-anchor="middle" x="3663" y="-876.95" font-family="Times New Roman,serif" font-size="14.00">Logic: 从最大的字母开始研究这种字体的特点。一步步破解这个谜团。</text>
</g>
<!-- 15&#45;&gt;30 -->
<g id="edge22" class="edge">
<title>15&#45;&gt;30</title>
<path fill="none" stroke="black" d="M3700.64,-935.7C3694.95,-927.73 3688.07,-918.1 3681.76,-909.26"/>
<polygon fill="black" stroke="black" points="3684.76,-907.44 3676.1,-901.34 3679.06,-911.51 3684.76,-907.44"/>
</g>
<!-- 16 -->
<g id="node17" class="node">
<title>16</title>
<ellipse fill="none" stroke="black" cx="3738" cy="-1026" rx="662.96" ry="18"/>
<text text-anchor="middle" x="3738" y="-1020.95" font-family="Times New Roman,serif" font-size="14.00">Stock Certificate: 每个字母都像是一道被扯向百万个不同方向的法令纹。字里行间都在冲你笑着——为你什么都看不懂而心满意足。</text>
</g>
<!-- 16&#45;&gt;15 -->
<g id="edge23" class="edge">
<title>16&#45;&gt;15</title>
<path fill="none" stroke="black" d="M3731.82,-1007.7C3729.13,-1000.15 3725.9,-991.12 3722.89,-982.68"/>
<polygon fill="black" stroke="black" points="3726.28,-981.77 3719.62,-973.53 3719.69,-984.12 3726.28,-981.77"/>
</g>
<!-- 19 -->
<g id="node20" class="node">
<title>19</title>
<ellipse fill="none" stroke="black" cx="1732" cy="-666" rx="829.3" ry="18"/>
<text text-anchor="middle" x="1732" y="-660.95" font-family="Times New Roman,serif" font-size="14.00">Stock Certificate: 一片加粗的黑色网格环绕着位于文件顶部的椭圆形图案。看起来几乎像是故意圈起来的。很可能正是如此。你不由得开始感到这其实*别有深意*。</text>
</g>
<!-- 17&#45;&gt;19 -->
<g id="edge24" class="edge">
<title>17&#45;&gt;19</title>
<path fill="none" stroke="black" d="M2028.81,-724.08C1973.97,-713.53 1895.62,-698.47 1833.19,-686.46"/>
<polygon fill="black" stroke="black" points="1834.09,-683.07 1823.61,-684.62 1832.77,-689.94 1834.09,-683.07"/>
</g>
<!-- 18&#45;&gt;14 -->
<g id="edge25" class="edge">
<title>18&#45;&gt;14</title>
<path fill="none" stroke="black" d="M3018.33,-462.83C3006.55,-464.67 2994.44,-466.47 2983,-468 2800.91,-492.36 2589,-409.29 2589,-593 2589,-667 2589,-667 2589,-667 2589,-767.86 3351.95,-799.77 3583.9,-807.15"/>
<polygon fill="black" stroke="black" points="3583.57,-810.64 3593.68,-807.45 3583.79,-803.64 3583.57,-810.64"/>
</g>
<!-- 19&#45;&gt;11 -->
<g id="edge26" class="edge">
<title>19&#45;&gt;11</title>
<path fill="none" stroke="black" d="M1732,-647.7C1732,-640.41 1732,-631.73 1732,-623.54"/>
<polygon fill="black" stroke="black" points="1735.5,-623.62 1732,-613.62 1728.5,-623.62 1735.5,-623.62"/>
</g>
<!-- 21 -->
<g id="node22" class="node">
<title>21</title>
<ellipse fill="none" stroke="black" cx="1219" cy="-306" rx="184.42" ry="18"/>
<text text-anchor="middle" x="1219" y="-300.95" font-family="Times New Roman,serif" font-size="14.00">You: 呜呼！学海无涯。暂且作罢。</text>
</g>
<!-- 20&#45;&gt;21 -->
<g id="edge28" class="edge">
<title>20&#45;&gt;21</title>
<path fill="none" stroke="black" d="M1688.4,-359.74C1583.8,-347.99 1446.9,-332.61 1347.97,-321.49"/>
<polygon fill="black" stroke="black" points="1348.53,-318.03 1338.21,-320.39 1347.75,-324.99 1348.53,-318.03"/>
</g>
<!-- 48 -->
<g id="node49" class="node">
<title>48</title>
<ellipse fill="none" stroke="black" cx="1842" cy="-306" rx="137.34" ry="18"/>
<text text-anchor="middle" x="1842" y="-300.95" font-family="Times New Roman,serif" font-size="14.00">You: 试着去读那些小字。</text>
</g>
<!-- 20&#45;&gt;48 -->
<g id="edge27" class="edge">
<title>20&#45;&gt;48</title>
<path fill="none" stroke="black" d="M1842,-359.7C1842,-352.41 1842,-343.73 1842,-335.54"/>
<polygon fill="black" stroke="black" points="1845.5,-335.62 1842,-325.62 1838.5,-335.62 1845.5,-335.62"/>
</g>
<!-- 21&#45;&gt;9 -->
<g id="edge29" class="edge">
<title>21&#45;&gt;9</title>
<path fill="none" stroke="black" d="M1099.93,-291.87C979.28,-278.57 794.83,-258.24 682.25,-245.83"/>
<polygon fill="black" stroke="black" points="682.73,-242.36 672.41,-244.75 681.97,-249.32 682.73,-242.36"/>
</g>
<!-- 22 -->
<g id="node23" class="node">
<title>22</title>
<ellipse fill="none" stroke="black" cx="1958" cy="-234" rx="782.21" ry="18"/>
<text text-anchor="middle" x="1958" y="-228.95" font-family="Times New Roman,serif" font-size="14.00">Stock Certificate: 兄弟啊，你这是闯进文字的*馆子*了。这是字母的丧命之地，字母表的残肢断臂像蜘蛛腿一样堆在你面前。这些东西怎么长了这么多毛？</text>
</g>
<!-- 25 -->
<g id="node26" class="node">
<title>25</title>
<ellipse fill="none" stroke="black" cx="2075" cy="-162" rx="1153.79" ry="18"/>
<text text-anchor="middle" x="2075" y="-156.95" font-family="Times New Roman,serif" font-size="14.00">Stock Certificate: 凭借着剃刀般的锐利目光，你开始小心翼翼地给字母刮毛。首先现出原形的是“R”，接着又有个“E”。几个完整的单词突然呈现在眼前：“兹证明（无法辨识）被授予（无法辨识）玛瓦&#45;科什莱墨丘利集团的股本。”</text>
</g>
<!-- 22&#45;&gt;25 -->
<g id="edge30" class="edge">
<title>22&#45;&gt;25</title>
<path fill="none" stroke="black" d="M1987.22,-215.52C2002.13,-206.6 2020.46,-195.63 2036.51,-186.03"/>
<polygon fill="black" stroke="black" points="2038.07,-189.18 2044.85,-181.04 2034.47,-183.17 2038.07,-189.18"/>
</g>
<!-- 24 -->
<g id="node25" class="node">
<title>24</title>
<ellipse fill="none" stroke="black" cx="4418" cy="-666" rx="349.22" ry="18"/>
<text text-anchor="middle" x="4418" y="-660.95" font-family="Times New Roman,serif" font-size="14.00">Stock Certificate: 你一稍微松手，这张股权证明就摆出架势要卷回去。</text>
</g>
<!-- 46 -->
<g id="node47" class="node">
<title>46</title>
<ellipse fill="none" stroke="black" cx="4559" cy="-594" rx="105.6" ry="18"/>
<text text-anchor="middle" x="4559" y="-588.95" font-family="Times New Roman,serif" font-size="14.00">Jump to: [certificate hub]</text>
</g>
<!-- 24&#45;&gt;46 -->
<g id="edge31" class="edge">
<title>24&#45;&gt;46</title>
<path fill="none" stroke="black" d="M4452.85,-647.7C4471.88,-638.25 4495.61,-626.47 4515.81,-616.44"/>
<polygon fill="black" stroke="black" points="4517.24,-619.64 4524.64,-612.06 4514.13,-613.37 4517.24,-619.64"/>
</g>
<!-- 33 -->
<g id="node34" class="node">
<title>33</title>
<ellipse fill="none" stroke="black" cx="3004" cy="-90" rx="1105.16" ry="18"/>
<text text-anchor="middle" x="3004" y="-84.95" font-family="Times New Roman,serif" font-size="14.00">Savoir Faire: 我一眼就能认出这种商务文件的调调。这是一张正式的，合法的，由董事会一致通过的股权证明。你已经成为股市大户了。快去吹响暴发户的喇叭，召集一群喧闹的小丑吧——今天就靠他们跳舞助兴了！</text>
</g>
<!-- 25&#45;&gt;33 -->
<g id="edge32" class="edge">
<title>25&#45;&gt;33</title>
<path fill="none" stroke="black" d="M2302.26,-143.88C2442.96,-133.27 2623.35,-119.68 2766.01,-108.93"/>
<polygon fill="black" stroke="black" points="2765.86,-112.45 2775.57,-108.21 2765.33,-105.47 2765.86,-112.45"/>
</g>
<!-- 49 -->
<g id="node50" class="node">
<title>49</title>
<ellipse fill="none" stroke="black" cx="6070" cy="-1026" rx="961.35" ry="18"/>
<text text-anchor="middle" x="6070" y="-1020.95" font-family="Times New Roman,serif" font-size="14.00">Stock Certificate: 椭圆形的边框里是一张灰色的素描图：卷发的女孩充满热情地骑着一台工业钻头。钻头将地下坚硬的岩石搅成碎片，撒向空中。钻开的洞口下流淌着银光闪闪的液态金属。</text>
</g>
<!-- 26&#45;&gt;49 -->
<g id="edge33" class="edge">
<title>26&#45;&gt;49</title>
<path fill="none" stroke="black" d="M5722.78,-1084.32C5787.13,-1073.7 5880.01,-1058.37 5953.52,-1046.23"/>
<polygon fill="black" stroke="black" points="5953.89,-1049.72 5963.19,-1044.63 5952.75,-1042.81 5953.89,-1049.72"/>
</g>
<!-- 27&#45;&gt;16 -->
<g id="edge34" class="edge">
<title>27&#45;&gt;16</title>
<path fill="none" stroke="black" d="M4239.03,-1086.44C4147.53,-1075.59 4003.21,-1058.47 3892.91,-1045.38"/>
<polygon fill="black" stroke="black" points="3893.52,-1041.93 3883.18,-1044.22 3892.69,-1048.88 3893.52,-1041.93"/>
</g>
<!-- 28 -->
<g id="node29" class="node">
<title>28</title>
<ellipse fill="none" stroke="black" cx="3296" cy="-666" rx="678.83" ry="18"/>
<text text-anchor="middle" x="3296" y="-660.95" font-family="Times New Roman,serif" font-size="14.00">Stock Certificate: 你的视野被卷入一片模糊的黑色涂鸦之中。宛如透过沾满油污的镜片观察一道铁艺围栏。你无法从中认出任何符号。</text>
</g>
<!-- 28&#45;&gt;5 -->
<g id="edge35" class="edge">
<title>28&#45;&gt;5</title>
<path fill="none" stroke="black" d="M3296,-647.7C3296,-640.41 3296,-631.73 3296,-623.54"/>
<polygon fill="black" stroke="black" points="3299.5,-623.62 3296,-613.62 3292.5,-623.62 3299.5,-623.62"/>
</g>
<!-- 32 -->
<g id="node33" class="node">
<title>32</title>
<ellipse fill="none" stroke="black" cx="3326" cy="-378" rx="90.25" ry="18"/>
<text text-anchor="middle" x="3326" y="-372.95" font-family="Times New Roman,serif" font-size="14.00">You: 瞪大双眼。</text>
</g>
<!-- 29&#45;&gt;32 -->
<g id="edge36" class="edge">
<title>29&#45;&gt;32</title>
<path fill="none" stroke="black" d="M3567.02,-432.05C3514.99,-420.6 3446.81,-405.59 3396.25,-394.46"/>
<polygon fill="black" stroke="black" points="3397.09,-391.07 3386.57,-392.33 3395.59,-397.9 3397.09,-391.07"/>
</g>
<!-- 42 -->
<g id="node43" class="node">
<title>42</title>
<ellipse fill="none" stroke="black" cx="3864" cy="-378" rx="66.71" ry="18"/>
<text text-anchor="middle" x="3864" y="-372.95" font-family="Times New Roman,serif" font-size="14.00">You: 不行。</text>
</g>
<!-- 29&#45;&gt;42 -->
<g id="edge37" class="edge">
<title>29&#45;&gt;42</title>
<path fill="none" stroke="black" d="M3698.1,-431.79C3732.54,-420.83 3776.94,-406.7 3811.14,-395.82"/>
<polygon fill="black" stroke="black" points="3811.95,-399.24 3820.41,-392.87 3809.82,-392.57 3811.95,-399.24"/>
</g>
<!-- 30&#45;&gt;14 -->
<g id="edge38" class="edge">
<title>30&#45;&gt;14</title>
<path fill="none" stroke="black" d="M3659.79,-863.7C3658.42,-856.32 3656.78,-847.52 3655.25,-839.25"/>
<polygon fill="black" stroke="black" points="3658.72,-838.79 3653.45,-829.59 3651.84,-840.06 3658.72,-838.79"/>
</g>
<!-- 31 -->
<g id="node32" class="node">
<title>31</title>
<ellipse fill="none" stroke="black" cx="3570" cy="-18" rx="105.6" ry="18"/>
<text text-anchor="middle" x="3570" y="-12.95" font-family="Times New Roman,serif" font-size="14.00">Jump to: [certificate hub]</text>
</g>
<!-- 31&#45;&gt;10 -->
<g id="edge39" class="edge">
<title>31&#45;&gt;10</title>
<path fill="none" stroke="black" d="M3675.51,-19.86C3979.06,-23.71 4833,-44.88 4833,-161 4833,-1027 4833,-1027 4833,-1027 4833,-1066.26 4833,-1111.62 4833,-1140.31"/>
<polygon fill="black" stroke="black" points="4829.5,-1140 4833,-1150 4836.5,-1140 4829.5,-1140"/>
</g>
<!-- 32&#45;&gt;2 -->
<g id="edge40" class="edge">
<title>32&#45;&gt;2</title>
<path fill="none" stroke="black" d="M3258.03,-365.83C3193.21,-355.18 3094.27,-338.92 3016.81,-326.19"/>
<polygon fill="black" stroke="black" points="3017.48,-322.76 3007.04,-324.59 3016.34,-329.66 3017.48,-322.76"/>
</g>
<!-- 33&#45;&gt;31 -->
<g id="edge41" class="edge">
<title>33&#45;&gt;31</title>
<path fill="none" stroke="black" d="M3144.27,-71.65C3247.41,-58.9 3384.8,-41.9 3475.25,-30.72"/>
<polygon fill="black" stroke="black" points="3475.59,-34.2 3485.08,-29.5 3474.73,-27.26 3475.59,-34.2"/>
</g>
<!-- 34 -->
<g id="node35" class="node">
<title>34</title>
<ellipse fill="none" stroke="black" cx="5925" cy="-954" rx="671.66" ry="18"/>
<text text-anchor="middle" x="5925" y="-948.95" font-family="Times New Roman,serif" font-size="14.00">Conceptualization: 由闪耀的溢洪道交织而成的地底王国！银色的群星在此熔化，再滤出其中珍贵的宝藏。真是令人灵感迸发的宝地！</text>
</g>
<!-- 45 -->
<g id="node46" class="node">
<title>45</title>
<ellipse fill="none" stroke="black" cx="5808" cy="-882" rx="582.1" ry="18"/>
<text text-anchor="middle" x="5808" y="-876.95" font-family="Times New Roman,serif" font-size="14.00">Physical Instrument: 她的姿势真是不像样！她应该挺直腰板，用力下压那台机器。难道*没人*教过她人体工程学吗？</text>
</g>
<!-- 34&#45;&gt;45 -->
<g id="edge42" class="edge">
<title>34&#45;&gt;45</title>
<path fill="none" stroke="black" d="M5896.08,-935.7C5881.17,-926.78 5862.79,-915.78 5846.68,-906.14"/>
<polygon fill="black" stroke="black" points="5848.67,-903.25 5838.29,-901.12 5845.08,-909.26 5848.67,-903.25"/>
</g>
<!-- 35 -->
<g id="node36" class="node">
<title>35</title>
<ellipse fill="none" stroke="black" cx="416" cy="-378" rx="219.22" ry="18"/>
<text text-anchor="middle" x="416" y="-372.95" font-family="Times New Roman,serif" font-size="14.00">Logic: 这里一定藏着*某种*形式的逻辑……</text>
</g>
<!-- 37 -->
<g id="node38" class="node">
<title>37</title>
<ellipse fill="none" stroke="black" cx="270" cy="-306" rx="96.39" ry="18"/>
<text text-anchor="middle" x="270" y="-300.95" font-family="Times New Roman,serif" font-size="14.00">Jump to: [reading hub]</text>
</g>
<!-- 35&#45;&gt;37 -->
<g id="edge43" class="edge">
<title>35&#45;&gt;37</title>
<path fill="none" stroke="black" d="M380.28,-359.88C360.35,-350.32 335.35,-338.33 314.19,-328.19"/>
<polygon fill="black" stroke="black" points="315.74,-325.05 305.21,-323.88 312.71,-331.36 315.74,-325.05"/>
</g>
<!-- 36 -->
<g id="node37" class="node">
<title>36</title>
<ellipse fill="none" stroke="black" cx="3917" cy="-306" rx="96.39" ry="18"/>
<text text-anchor="middle" x="3917" y="-300.95" font-family="Times New Roman,serif" font-size="14.00">Jump to: [reading hub]</text>
</g>
<!-- 36&#45;&gt;14 -->
<g id="edge44" class="edge">
<title>36&#45;&gt;14</title>
<path fill="none" stroke="black" d="M3935.66,-323.81C3960.95,-348.54 4003,-397.41 4003,-449 4003,-667 4003,-667 4003,-667 4003,-729.81 3808.2,-777.66 3708.02,-798.12"/>
<polygon fill="black" stroke="black" points="3707.47,-794.66 3698.36,-800.06 3708.85,-801.52 3707.47,-794.66"/>
</g>
<!-- 37&#45;&gt;14 -->
<g id="edge45" class="edge">
<title>37&#45;&gt;14</title>
<path fill="none" stroke="black" d="M201.02,-318.98C132.63,-335.28 38,-371.79 38,-449 38,-667 38,-667 38,-667 38,-759.33 3092.1,-801.93 3583.6,-808.18"/>
<polygon fill="black" stroke="black" points="3583.51,-811.68 3593.55,-808.31 3583.6,-804.68 3583.51,-811.68"/>
</g>
<!-- 38 -->
<g id="node39" class="node">
<title>38</title>
<ellipse fill="none" stroke="black" cx="5431" cy="-810" rx="105.6" ry="18"/>
<text text-anchor="middle" x="5431" y="-804.95" font-family="Times New Roman,serif" font-size="14.00">Jump to: [certificate hub]</text>
</g>
<!-- 38&#45;&gt;10 -->
<g id="edge46" class="edge">
<title>38&#45;&gt;10</title>
<path fill="none" stroke="black" d="M5363.1,-824.15C5261.32,-845.84 5081,-892.75 5081,-953 5081,-1027 5081,-1027 5081,-1027 5081,-1067.45 5090.35,-1087.16 5062,-1116 5040.03,-1138.35 4961.98,-1152.96 4903.06,-1161.07"/>
<polygon fill="black" stroke="black" points="4902.88,-1157.57 4893.43,-1162.36 4903.8,-1164.5 4902.88,-1157.57"/>
</g>
<!-- 39&#45;&gt;4 -->
<g id="edge47" class="edge">
<title>39&#45;&gt;4</title>
<path fill="none" stroke="black" d="M4833,-1367.7C4833,-1360.41 4833,-1351.73 4833,-1343.54"/>
<polygon fill="black" stroke="black" points="4836.5,-1343.62 4833,-1333.62 4829.5,-1343.62 4836.5,-1343.62"/>
</g>
<!-- 40&#45;&gt;28 -->
<g id="edge48" class="edge">
<title>40&#45;&gt;28</title>
<path fill="none" stroke="black" d="M3429.7,-719.88C3405.88,-710.46 3376.09,-698.67 3350.67,-688.62"/>
<polygon fill="black" stroke="black" points="3352.08,-685.41 3341.49,-684.99 3349.5,-691.92 3352.08,-685.41"/>
</g>
<!-- 41&#45;&gt;24 -->
<g id="edge49" class="edge">
<title>41&#45;&gt;24</title>
<path fill="none" stroke="black" d="M4333.87,-720.05C4348.11,-711.07 4365.81,-699.91 4381.3,-690.14"/>
<polygon fill="black" stroke="black" points="4382.73,-693.38 4389.33,-685.08 4379,-687.46 4382.73,-693.38"/>
</g>
<!-- 42&#45;&gt;36 -->
<g id="edge50" class="edge">
<title>42&#45;&gt;36</title>
<path fill="none" stroke="black" d="M3876.83,-360.05C3882.92,-352.01 3890.35,-342.2 3897.14,-333.23"/>
<polygon fill="black" stroke="black" points="3899.76,-335.57 3903.01,-325.48 3894.18,-331.34 3899.76,-335.57"/>
</g>
<!-- 43 -->
<g id="node44" class="node">
<title>43</title>
<ellipse fill="none" stroke="black" cx="3808" cy="-162" rx="96.39" ry="18"/>
<text text-anchor="middle" x="3808" y="-156.95" font-family="Times New Roman,serif" font-size="14.00">Jump to: [reading hub]</text>
</g>
<!-- 43&#45;&gt;14 -->
<g id="edge51" class="edge">
<title>43&#45;&gt;14</title>
<path fill="none" stroke="black" d="M3877.28,-174.88C3945.96,-191.11 4041,-227.55 4041,-305 4041,-667 4041,-667 4041,-667 4041,-730.58 3986.8,-729.52 3929,-756 3860.29,-787.48 3773.84,-800.26 3715.52,-805.45"/>
<polygon fill="black" stroke="black" points="3715.43,-801.95 3705.76,-806.27 3716.01,-808.92 3715.43,-801.95"/>
</g>
<!-- 44&#45;&gt;43 -->
<g id="edge52" class="edge">
<title>44&#45;&gt;43</title>
<path fill="none" stroke="black" d="M3442.36,-216.32C3528.39,-203.78 3644.41,-186.86 3722.49,-175.47"/>
<polygon fill="black" stroke="black" points="3722.84,-178.96 3732.23,-174.05 3721.83,-172.03 3722.84,-178.96"/>
</g>
<!-- 45&#45;&gt;38 -->
<g id="edge53" class="edge">
<title>45&#45;&gt;38</title>
<path fill="none" stroke="black" d="M5715.29,-863.79C5652.93,-852.21 5571.5,-837.09 5511.79,-826"/>
<polygon fill="black" stroke="black" points="5512.48,-822.57 5502.01,-824.19 5511.2,-829.45 5512.48,-822.57"/>
</g>
<!-- 46&#45;&gt;10 -->
<g id="edge54" class="edge">
<title>46&#45;&gt;10</title>
<path fill="none" stroke="black" d="M4640.64,-605.79C4693.96,-614.5 4757.09,-628.53 4776,-648 4804.18,-677.02 4795,-696.55 4795,-737 4795,-1027 4795,-1027 4795,-1027 4795,-1067.82 4809.84,-1113.07 4820.97,-1141.28"/>
<polygon fill="black" stroke="black" points="4817.72,-1142.57 4824.74,-1150.51 4824.2,-1139.92 4817.72,-1142.57"/>
</g>
<!-- 47&#45;&gt;35 -->
<g id="edge55" class="edge">
<title>47&#45;&gt;35</title>
<path fill="none" stroke="black" d="M836.43,-431.74C747.08,-420.53 631.42,-406.02 544.04,-395.06"/>
<polygon fill="black" stroke="black" points="544.57,-391.6 534.22,-393.83 543.7,-398.55 544.57,-391.6"/>
</g>
<!-- 48&#45;&gt;22 -->
<g id="edge56" class="edge">
<title>48&#45;&gt;22</title>
<path fill="none" stroke="black" d="M1870.08,-288.05C1884.96,-279.07 1903.46,-267.91 1919.65,-258.14"/>
<polygon fill="black" stroke="black" points="1921.32,-261.22 1928.08,-253.06 1917.71,-255.23 1921.32,-261.22"/>
</g>
<!-- 49&#45;&gt;34 -->
<g id="edge57" class="edge">
<title>49&#45;&gt;34</title>
<path fill="none" stroke="black" d="M6033.78,-1007.52C6014.86,-998.38 5991.48,-987.09 5971.25,-977.33"/>
<polygon fill="black" stroke="black" points="5972.9,-974.24 5962.37,-973.04 5969.85,-980.54 5972.9,-974.24"/>
</g>
</g>
</svg>
