<?xml version="1.0" encoding="UTF-8" standalone="no"?>
<!DOCTYPE svg PUBLIC "-//W3C//DTD SVG 1.1//EN"
 "http://www.w3.org/Graphics/SVG/1.1/DTD/svg11.dtd">
<!-- Generated by graphviz version 12.2.1 (20241206.2353)
 -->
<!-- Title: G Pages: 1 -->
<svg width="5783pt" height="980pt"
 viewBox="0.00 0.00 5783.06 980.00" xmlns="http://www.w3.org/2000/svg" xmlns:xlink="http://www.w3.org/1999/xlink">
<g id="graph0" class="graph" transform="scale(1 1) rotate(0) translate(4 976)">
<title>G</title>
<polygon fill="white" stroke="none" points="-4,4 -4,-976 5779.06,-976 5779.06,4 -4,4"/>
<!-- 0 -->
<g id="node1" class="node">
<title>0</title>
<ellipse fill="none" stroke="black" cx="4155" cy="-954" rx="39.07" ry="18"/>
<text text-anchor="middle" x="4155" y="-948.95" font-family="Times New Roman,serif" font-size="14.00">START</text>
</g>
<!-- 0&#45;&gt;0 -->
<g id="edge1" class="edge">
<title>0&#45;&gt;0</title>
<path fill="none" stroke="black" d="M4183.19,-966.94C4198.3,-969.14 4212.07,-964.83 4212.07,-954 4212.07,-945.96 4204.48,-941.52 4194.4,-940.65"/>
<polygon fill="black" stroke="black" points="4194.57,-937.15 4184.7,-941 4194.82,-944.14 4194.57,-937.15"/>
</g>
<!-- 1 -->
<g id="node2" class="node">
<title>1</title>
<ellipse fill="none" stroke="black" cx="4260" cy="-954" rx="29.86" ry="18"/>
<text text-anchor="middle" x="4260" y="-948.95" font-family="Times New Roman,serif" font-size="14.00">input</text>
</g>
<!-- 1&#45;&gt;1 -->
<g id="edge2" class="edge">
<title>1&#45;&gt;1</title>
<path fill="none" stroke="black" d="M4281.65,-966.55C4295.08,-969.57 4307.86,-965.39 4307.86,-954 4307.86,-945.99 4301.54,-941.55 4293.12,-940.66"/>
<polygon fill="black" stroke="black" points="4292.9,-937.17 4283.16,-941.35 4293.38,-944.15 4292.9,-937.17"/>
</g>
<!-- 2 -->
<g id="node3" class="node">
<title>2</title>
<ellipse fill="none" stroke="black" cx="1019" cy="-306" rx="738.2" ry="18"/>
<text text-anchor="middle" x="1019" y="-300.95" font-family="Times New Roman,serif" font-size="14.00">A Folded Library Card: 这张借书证被对折了起来，摸起来还有点潮湿。正面写着：“加姆洛克公共图书馆借书证。签发给比莉·梅让，截至53年7月。”</text>
</g>
<!-- 18 -->
<g id="node19" class="node">
<title>18</title>
<ellipse fill="none" stroke="black" cx="1495" cy="-234" rx="423.44" ry="18"/>
<text text-anchor="middle" x="1495" y="-228.95" font-family="Times New Roman,serif" font-size="14.00">Logic: 比莉是一个男女通用的名字。会是死者的名字吗，*或者*是他家庭成员的？</text>
</g>
<!-- 2&#45;&gt;18 -->
<g id="edge3" class="edge">
<title>2&#45;&gt;18</title>
<path fill="none" stroke="black" d="M1136.36,-287.74C1207.32,-277.31 1297.73,-264.01 1370.02,-253.38"/>
<polygon fill="black" stroke="black" points="1370.13,-256.9 1379.51,-251.98 1369.11,-249.98 1370.13,-256.9"/>
</g>
<!-- 3 -->
<g id="node4" class="node">
<title>3</title>
<ellipse fill="none" stroke="black" cx="4509" cy="-954" rx="182.89" ry="18"/>
<text text-anchor="middle" x="4509" y="-948.95" font-family="Times New Roman,serif" font-size="14.00">Variable[&quot;TASK.identify_corpse_boardwalk&quot;]</text>
</g>
<!-- 3&#45;&gt;3 -->
<g id="edge4" class="edge">
<title>3&#45;&gt;3</title>
<path fill="none" stroke="black" d="M4634.06,-967.5C4676.14,-967.54 4709.89,-963.04 4709.89,-954 4709.89,-945.78 4681.93,-941.31 4645.18,-940.6"/>
<polygon fill="black" stroke="black" points="4645.61,-937.1 4635.58,-940.51 4645.54,-944.1 4645.61,-937.1"/>
</g>
<!-- 4 -->
<g id="node5" class="node">
<title>4</title>
<polygon fill="none" stroke="black" points="4509,-900 4250.36,-882 4509,-864 4767.64,-882 4509,-900"/>
<text text-anchor="middle" x="4509" y="-876.95" font-family="Times New Roman,serif" font-size="14.00">Variable[&quot;TASK.identify_corpse_boardwalk&quot;]</text>
</g>
<!-- 3&#45;&gt;4 -->
<g id="edge5" class="edge">
<title>3&#45;&gt;4</title>
<path fill="none" stroke="black" d="M4509,-935.7C4509,-928.41 4509,-919.73 4509,-911.54"/>
<polygon fill="black" stroke="black" points="4512.5,-911.62 4509,-901.62 4505.5,-911.62 4512.5,-911.62"/>
</g>
<!-- 42 -->
<g id="node43" class="node">
<title>42</title>
<ellipse fill="none" stroke="black" cx="4509" cy="-810" rx="302.14" ry="18"/>
<text text-anchor="middle" x="4509" y="-804.95" font-family="Times New Roman,serif" font-size="14.00">IsTaskActive(&quot;TASK.examine_library_card_with_main_task&quot;)&#45;&#45;[[ Variable[ ]]</text>
</g>
<!-- 4&#45;&gt;42 -->
<g id="edge6" class="edge">
<title>4&#45;&gt;42</title>
<path fill="none" stroke="black" d="M4509,-863.7C4509,-856.41 4509,-847.73 4509,-839.54"/>
<polygon fill="black" stroke="black" points="4512.5,-839.62 4509,-829.62 4505.5,-839.62 4512.5,-839.62"/>
</g>
<!-- 5 -->
<g id="node6" class="node">
<title>5</title>
<polygon fill="none" stroke="black" points="5452,-756 5180.33,-738 5452,-720 5723.67,-738 5452,-756"/>
<text text-anchor="middle" x="5452" y="-732.95" font-family="Times New Roman,serif" font-size="14.00">!(Variable[&quot;TASK.identify_corpse_boardwalk&quot;])</text>
</g>
<!-- 12 -->
<g id="node13" class="node">
<title>12</title>
<ellipse fill="none" stroke="black" cx="5452" cy="-666" rx="218.71" ry="18"/>
<text text-anchor="middle" x="5452" y="-660.95" font-family="Times New Roman,serif" font-size="14.00">A Folded Library Card: 你把借书证放在一边。</text>
</g>
<!-- 5&#45;&gt;12 -->
<g id="edge7" class="edge">
<title>5&#45;&gt;12</title>
<path fill="none" stroke="black" d="M5452,-719.7C5452,-712.41 5452,-703.73 5452,-695.54"/>
<polygon fill="black" stroke="black" points="5455.5,-695.62 5452,-685.62 5448.5,-695.62 5455.5,-695.62"/>
</g>
<!-- 6 -->
<g id="node7" class="node">
<title>6</title>
<ellipse fill="none" stroke="black" cx="5452" cy="-954" rx="58.52" ry="18"/>
<text text-anchor="middle" x="5452" y="-948.95" font-family="Times New Roman,serif" font-size="14.00">IsKimHere()</text>
</g>
<!-- 6&#45;&gt;6 -->
<g id="edge8" class="edge">
<title>6&#45;&gt;6</title>
<path fill="none" stroke="black" d="M5492.94,-967.23C5511.93,-968.68 5528.52,-964.27 5528.52,-954 5528.52,-945.82 5517.98,-941.36 5504.09,-940.61"/>
<polygon fill="black" stroke="black" points="5504.4,-937.11 5494.45,-940.75 5504.5,-944.11 5504.4,-937.11"/>
</g>
<!-- 7 -->
<g id="node8" class="node">
<title>7</title>
<polygon fill="none" stroke="black" points="5452,-900 5369.24,-882 5452,-864 5534.76,-882 5452,-900"/>
<text text-anchor="middle" x="5452" y="-876.95" font-family="Times New Roman,serif" font-size="14.00">IsKimHere()</text>
</g>
<!-- 6&#45;&gt;7 -->
<g id="edge9" class="edge">
<title>6&#45;&gt;7</title>
<path fill="none" stroke="black" d="M5452,-935.7C5452,-928.41 5452,-919.73 5452,-911.54"/>
<polygon fill="black" stroke="black" points="5455.5,-911.62 5452,-901.62 5448.5,-911.62 5455.5,-911.62"/>
</g>
<!-- 15 -->
<g id="node16" class="node">
<title>15</title>
<polygon fill="none" stroke="black" points="5452,-828 5128.94,-810 5452,-792 5775.06,-810 5452,-828"/>
<text text-anchor="middle" x="5452" y="-804.95" font-family="Times New Roman,serif" font-size="14.00">!(Variable[&quot;TASK.report_corpse_wo_taking_main_task&quot;])</text>
</g>
<!-- 7&#45;&gt;15 -->
<g id="edge10" class="edge">
<title>7&#45;&gt;15</title>
<path fill="none" stroke="black" d="M5452,-863.7C5452,-856.41 5452,-847.73 5452,-839.54"/>
<polygon fill="black" stroke="black" points="5455.5,-839.62 5452,-829.62 5448.5,-839.62 5455.5,-839.62"/>
</g>
<!-- 8 -->
<g id="node9" class="node">
<title>8</title>
<polygon fill="none" stroke="black" points="2277,-180 2181.22,-162 2277,-144 2372.78,-162 2277,-180"/>
<text text-anchor="middle" x="2277" y="-156.95" font-family="Times New Roman,serif" font-size="14.00">!(IsKimHere())</text>
</g>
<!-- 28 -->
<g id="node29" class="node">
<title>28</title>
<ellipse fill="none" stroke="black" cx="2274" cy="-90" rx="461.31" ry="18"/>
<text text-anchor="middle" x="2274" y="-84.95" font-family="Times New Roman,serif" font-size="14.00">Logic: 在采取进一步行动之前，你应该先决定如何处理那具尸体。和警督谈谈这件事吧。</text>
</g>
<!-- 8&#45;&gt;28 -->
<g id="edge11" class="edge">
<title>8&#45;&gt;28</title>
<path fill="none" stroke="black" d="M2276.26,-143.7C2275.95,-136.41 2275.57,-127.73 2275.22,-119.54"/>
<polygon fill="black" stroke="black" points="2278.72,-119.46 2274.8,-109.62 2271.73,-119.76 2278.72,-119.46"/>
</g>
<!-- 9 -->
<g id="node10" class="node">
<title>9</title>
<ellipse fill="none" stroke="black" cx="1767" cy="-522" rx="70.29" ry="18"/>
<text text-anchor="middle" x="1767" y="-516.95" font-family="Times New Roman,serif" font-size="14.00">library card hub</text>
</g>
<!-- 16 -->
<g id="node17" class="node">
<title>16</title>
<ellipse fill="none" stroke="black" cx="805" cy="-162" rx="595.92" ry="18"/>
<text text-anchor="middle" x="805" y="-156.95" font-family="Times New Roman,serif" font-size="14.00">Kim Kitsuragi: “我们应该先决定怎么处理这具尸体，然后再采取其他行动。我们再看一眼那具尸体，充分讨论一下。”</text>
</g>
<!-- 9&#45;&gt;16 -->
<g id="edge12" class="edge">
<title>9&#45;&gt;16</title>
<path fill="none" stroke="black" d="M1697.19,-519.11C1369.52,-509.8 0,-465.7 0,-379 0,-379 0,-379 0,-305 0,-245.15 349.57,-202.52 587.99,-180.4"/>
<polygon fill="black" stroke="black" points="588.12,-183.9 597.75,-179.5 587.47,-176.93 588.12,-183.9"/>
</g>
<!-- 22 -->
<g id="node23" class="node">
<title>22</title>
<ellipse fill="none" stroke="black" cx="1088" cy="-450" rx="90.25" ry="18"/>
<text text-anchor="middle" x="1088" y="-444.95" font-family="Times New Roman,serif" font-size="14.00">You: 看看背面。</text>
</g>
<!-- 9&#45;&gt;22 -->
<g id="edge14" class="edge">
<title>9&#45;&gt;22</title>
<path fill="none" stroke="black" d="M1702.82,-514.38C1581.35,-501.86 1317.6,-474.67 1178.33,-460.31"/>
<polygon fill="black" stroke="black" points="1178.7,-456.83 1168.39,-459.29 1177.98,-463.79 1178.7,-456.83"/>
</g>
<!-- 45 -->
<g id="node46" class="node">
<title>45</title>
<ellipse fill="none" stroke="black" cx="1866" cy="-450" rx="90.25" ry="18"/>
<text text-anchor="middle" x="1866" y="-444.95" font-family="Times New Roman,serif" font-size="14.00">You: 看看里面。</text>
</g>
<!-- 9&#45;&gt;45 -->
<g id="edge13" class="edge">
<title>9&#45;&gt;45</title>
<path fill="none" stroke="black" d="M1790.21,-504.59C1802.93,-495.59 1818.92,-484.29 1832.93,-474.38"/>
<polygon fill="black" stroke="black" points="1834.87,-477.3 1841.01,-468.67 1830.83,-471.58 1834.87,-477.3"/>
</g>
<!-- 10 -->
<g id="node11" class="node">
<title>10</title>
<ellipse fill="none" stroke="black" cx="3404" cy="-18" rx="336.43" ry="18"/>
<text text-anchor="middle" x="3404" y="-12.95" font-family="Times New Roman,serif" font-size="14.00">A Folded Library Card: 有什么东西告诉你，你应该给他们打个电话。</text>
</g>
<!-- 10&#45;&gt;10 -->
<g id="edge15" class="edge">
<title>10&#45;&gt;10</title>
<path fill="none" stroke="black" d="M3634.53,-31.48C3704.1,-31.12 3758.43,-26.63 3758.43,-18 3758.43,-9.84 3709.88,-5.38 3645.8,-4.62"/>
<polygon fill="black" stroke="black" points="3646.07,-1.12 3636.04,-4.54 3646.01,-8.12 3646.07,-1.12"/>
</g>
<!-- 11 -->
<g id="node12" class="node">
<title>11</title>
<ellipse fill="none" stroke="black" cx="3999" cy="-234" rx="111.74" ry="18"/>
<text text-anchor="middle" x="3999" y="-228.95" font-family="Times New Roman,serif" font-size="14.00">Jump to: [library card hub]</text>
</g>
<!-- 11&#45;&gt;8 -->
<g id="edge16" class="edge">
<title>11&#45;&gt;8</title>
<path fill="none" stroke="black" d="M3921.03,-220.71C3907.07,-218.87 3892.63,-217.19 3879,-216 3316.96,-167.03 2640.4,-162.38 2383.2,-162.57"/>
<polygon fill="black" stroke="black" points="2383.52,-159.07 2373.52,-162.58 2383.53,-166.07 2383.52,-159.07"/>
</g>
<!-- 13 -->
<g id="node14" class="node">
<title>13</title>
<ellipse fill="none" stroke="black" cx="4564" cy="-378" rx="219.22" ry="18"/>
<text text-anchor="middle" x="4564" y="-372.95" font-family="Times New Roman,serif" font-size="14.00">Variable[&quot;TASK.report_corpse_wo_taking_main_task&quot;]</text>
</g>
<!-- 13&#45;&gt;13 -->
<g id="edge17" class="edge">
<title>13&#45;&gt;13</title>
<path fill="none" stroke="black" d="M4714,-391.5C4762.61,-391.39 4801.22,-386.89 4801.22,-378 4801.22,-369.82 4768.55,-365.35 4725.47,-364.61"/>
<polygon fill="black" stroke="black" points="4725.55,-361.11 4715.51,-364.52 4725.48,-368.11 4725.55,-361.11"/>
</g>
<!-- 14 -->
<g id="node15" class="node">
<title>14</title>
<polygon fill="none" stroke="black" points="4564,-324 4253.97,-306 4564,-288 4874.03,-306 4564,-324"/>
<text text-anchor="middle" x="4564" y="-300.95" font-family="Times New Roman,serif" font-size="14.00">Variable[&quot;TASK.report_corpse_wo_taking_main_task&quot;]</text>
</g>
<!-- 13&#45;&gt;14 -->
<g id="edge18" class="edge">
<title>13&#45;&gt;14</title>
<path fill="none" stroke="black" d="M4564,-359.7C4564,-352.41 4564,-343.73 4564,-335.54"/>
<polygon fill="black" stroke="black" points="4567.5,-335.62 4564,-325.62 4560.5,-335.62 4567.5,-335.62"/>
</g>
<!-- 32 -->
<g id="node33" class="node">
<title>32</title>
<ellipse fill="none" stroke="black" cx="4564" cy="-234" rx="58.52" ry="18"/>
<text text-anchor="middle" x="4564" y="-228.95" font-family="Times New Roman,serif" font-size="14.00">IsKimHere()</text>
</g>
<!-- 14&#45;&gt;32 -->
<g id="edge19" class="edge">
<title>14&#45;&gt;32</title>
<path fill="none" stroke="black" d="M4564,-287.7C4564,-280.41 4564,-271.73 4564,-263.54"/>
<polygon fill="black" stroke="black" points="4567.5,-263.62 4564,-253.62 4560.5,-263.62 4567.5,-263.62"/>
</g>
<!-- 15&#45;&gt;5 -->
<g id="edge20" class="edge">
<title>15&#45;&gt;5</title>
<path fill="none" stroke="black" d="M5452,-791.7C5452,-784.41 5452,-775.73 5452,-767.54"/>
<polygon fill="black" stroke="black" points="5455.5,-767.62 5452,-757.62 5448.5,-767.62 5455.5,-767.62"/>
</g>
<!-- 16&#45;&gt;10 -->
<g id="edge21" class="edge">
<title>16&#45;&gt;10</title>
<path fill="none" stroke="black" d="M963.11,-144.17C1159.89,-123.86 1506.37,-90.17 1804,-72 2243.69,-45.15 2752.24,-31.23 3075.84,-24.52"/>
<polygon fill="black" stroke="black" points="3075.83,-28.03 3085.76,-24.32 3075.69,-21.03 3075.83,-28.03"/>
</g>
<!-- 17 -->
<g id="node18" class="node">
<title>17</title>
<ellipse fill="none" stroke="black" cx="3015" cy="-594" rx="119.93" ry="18"/>
<text text-anchor="middle" x="3015" y="-588.95" font-family="Times New Roman,serif" font-size="14.00">You: [把它放在一边。]</text>
</g>
<!-- 19 -->
<g id="node20" class="node">
<title>19</title>
<ellipse fill="none" stroke="black" cx="3015" cy="-522" rx="321.59" ry="18"/>
<text text-anchor="middle" x="3015" y="-516.95" font-family="Times New Roman,serif" font-size="14.00">IsTaskActive(&quot;TASK.examine_libray_card_wo_taking_main_task&quot;)&#45;&#45;[[ Variable[ ]]</text>
</g>
<!-- 17&#45;&gt;19 -->
<g id="edge22" class="edge">
<title>17&#45;&gt;19</title>
<path fill="none" stroke="black" d="M3015,-575.7C3015,-568.41 3015,-559.73 3015,-551.54"/>
<polygon fill="black" stroke="black" points="3018.5,-551.62 3015,-541.62 3011.5,-551.62 3018.5,-551.62"/>
</g>
<!-- 18&#45;&gt;8 -->
<g id="edge23" class="edge">
<title>18&#45;&gt;8</title>
<path fill="none" stroke="black" d="M1671.47,-217.2C1838.61,-202.24 2081.5,-180.5 2202.58,-169.66"/>
<polygon fill="black" stroke="black" points="2202.75,-173.16 2212.4,-168.78 2202.13,-166.19 2202.75,-173.16"/>
</g>
<!-- 20 -->
<g id="node21" class="node">
<title>20</title>
<polygon fill="none" stroke="black" points="3673,-468 3218.21,-450 3673,-432 4127.79,-450 3673,-468"/>
<text text-anchor="middle" x="3673" y="-444.95" font-family="Times New Roman,serif" font-size="14.00">IsTaskActive(&quot;TASK.examine_libray_card_wo_taking_main_task&quot;)&#45;&#45;[[ Variable[ ]]</text>
</g>
<!-- 19&#45;&gt;20 -->
<g id="edge24" class="edge">
<title>19&#45;&gt;20</title>
<path fill="none" stroke="black" d="M3160.62,-505.51C3274.72,-493.37 3432.04,-476.63 3542.16,-464.92"/>
<polygon fill="black" stroke="black" points="3542.25,-468.43 3551.83,-463.89 3541.51,-461.47 3542.25,-468.43"/>
</g>
<!-- 21 -->
<g id="node22" class="node">
<title>21</title>
<polygon fill="none" stroke="black" points="2732,-468 2264.18,-450 2732,-432 3199.82,-450 2732,-468"/>
<text text-anchor="middle" x="2732" y="-444.95" font-family="Times New Roman,serif" font-size="14.00">!(IsTaskActive(&quot;TASK.examine_libray_card_wo_taking_main_task&quot;)&#45;&#45;[[ Variable[ ]])</text>
</g>
<!-- 19&#45;&gt;21 -->
<g id="edge25" class="edge">
<title>19&#45;&gt;21</title>
<path fill="none" stroke="black" d="M2946.13,-503.97C2903.09,-493.32 2847.74,-479.63 2804.1,-468.83"/>
<polygon fill="black" stroke="black" points="2805,-465.45 2794.45,-466.45 2803.32,-472.25 2805,-465.45"/>
</g>
<!-- 39 -->
<g id="node40" class="node">
<title>39</title>
<ellipse fill="none" stroke="black" cx="3999" cy="-378" rx="58.52" ry="18"/>
<text text-anchor="middle" x="3999" y="-372.95" font-family="Times New Roman,serif" font-size="14.00">IsKimHere()</text>
</g>
<!-- 20&#45;&gt;39 -->
<g id="edge26" class="edge">
<title>20&#45;&gt;39</title>
<path fill="none" stroke="black" d="M3747.98,-434.47C3799.56,-424.26 3869.58,-409.98 3931,-396 3935.28,-395.03 3939.71,-393.99 3944.15,-392.92"/>
<polygon fill="black" stroke="black" points="3944.81,-396.37 3953.7,-390.6 3943.16,-389.56 3944.81,-396.37"/>
</g>
<!-- 30 -->
<g id="node31" class="node">
<title>30</title>
<ellipse fill="none" stroke="black" cx="781" cy="-378" rx="752.53" ry="18"/>
<text text-anchor="middle" x="781" y="-372.95" font-family="Times New Roman,serif" font-size="14.00">A Folded Library Card: “如有遗失，请将借书证归还给图书馆。拨打005&#45;02&#45;55&#45;211或者前往加姆洛克，麦罗埃街街78号。开放时间：上午9时至下午18时。”</text>
</g>
<!-- 22&#45;&gt;30 -->
<g id="edge27" class="edge">
<title>22&#45;&gt;30</title>
<path fill="none" stroke="black" d="M1030.26,-435.83C984.62,-425.43 920.19,-410.74 868.27,-398.9"/>
<polygon fill="black" stroke="black" points="869.06,-395.49 858.53,-396.68 867.5,-402.31 869.06,-395.49"/>
</g>
<!-- 23 -->
<g id="node24" class="node">
<title>23</title>
<ellipse fill="none" stroke="black" cx="2737" cy="-378" rx="1185.01" ry="18"/>
<text text-anchor="middle" x="2737" y="-372.95" font-family="Times New Roman,serif" font-size="14.00">A Folded Library Card: 不管这张借书证的主人是谁，肯定是位热心读者：你发现一张用蓝色铅笔书写的借书清单：“惊魂无线电”，“靠近我和太阳近一些”。清单上的最后一个是M·蒂博的“闪耀曲线”。图书馆印章显示这本书已经归还了。</text>
</g>
<!-- 36 -->
<g id="node37" class="node">
<title>36</title>
<ellipse fill="none" stroke="black" cx="2529" cy="-306" rx="342.06" ry="18"/>
<text text-anchor="middle" x="2529" y="-300.95" font-family="Times New Roman,serif" font-size="14.00">Conceptualization: 大部分标题似乎都是科幻类的。还有一些惊悚类。</text>
</g>
<!-- 23&#45;&gt;36 -->
<g id="edge28" class="edge">
<title>23&#45;&gt;36</title>
<path fill="none" stroke="black" d="M2685.32,-359.61C2656.71,-349.98 2620.95,-337.95 2590.86,-327.82"/>
<polygon fill="black" stroke="black" points="2592.09,-324.54 2581.49,-324.67 2589.85,-331.17 2592.09,-324.54"/>
</g>
<!-- 24 -->
<g id="node25" class="node">
<title>24</title>
<ellipse fill="none" stroke="black" cx="4156" cy="-666" rx="58.52" ry="18"/>
<text text-anchor="middle" x="4156" y="-660.95" font-family="Times New Roman,serif" font-size="14.00">IsKimHere()</text>
</g>
<!-- 25 -->
<g id="node26" class="node">
<title>25</title>
<polygon fill="none" stroke="black" points="4156,-612 4073.24,-594 4156,-576 4238.76,-594 4156,-612"/>
<text text-anchor="middle" x="4156" y="-588.95" font-family="Times New Roman,serif" font-size="14.00">IsKimHere()</text>
</g>
<!-- 24&#45;&gt;25 -->
<g id="edge29" class="edge">
<title>24&#45;&gt;25</title>
<path fill="none" stroke="black" d="M4156,-647.7C4156,-640.41 4156,-631.73 4156,-623.54"/>
<polygon fill="black" stroke="black" points="4159.5,-623.62 4156,-613.62 4152.5,-623.62 4159.5,-623.62"/>
</g>
<!-- 26 -->
<g id="node27" class="node">
<title>26</title>
<polygon fill="none" stroke="black" points="2299,-612 2203.22,-594 2299,-576 2394.78,-594 2299,-612"/>
<text text-anchor="middle" x="2299" y="-588.95" font-family="Times New Roman,serif" font-size="14.00">!(IsKimHere())</text>
</g>
<!-- 24&#45;&gt;26 -->
<g id="edge30" class="edge">
<title>24&#45;&gt;26</title>
<path fill="none" stroke="black" d="M4097.87,-662.81C3829.81,-652.7 2712.21,-610.58 2387.71,-598.34"/>
<polygon fill="black" stroke="black" points="2388.14,-594.86 2378.01,-597.98 2387.87,-601.85 2388.14,-594.86"/>
</g>
<!-- 35 -->
<g id="node36" class="node">
<title>35</title>
<ellipse fill="none" stroke="black" cx="4156" cy="-522" rx="560.09" ry="18"/>
<text text-anchor="middle" x="4156" y="-516.95" font-family="Times New Roman,serif" font-size="14.00">Kim Kitsuragi: “很好。”他记下笔记。“我们应该去锐影那边打个电话，看看能不能了解一下比莉·梅让的信息。”</text>
</g>
<!-- 25&#45;&gt;35 -->
<g id="edge31" class="edge">
<title>25&#45;&gt;35</title>
<path fill="none" stroke="black" d="M4156,-575.7C4156,-568.41 4156,-559.73 4156,-551.54"/>
<polygon fill="black" stroke="black" points="4159.5,-551.62 4156,-541.62 4152.5,-551.62 4159.5,-551.62"/>
</g>
<!-- 26&#45;&gt;9 -->
<g id="edge32" class="edge">
<title>26&#45;&gt;9</title>
<path fill="none" stroke="black" d="M2244.57,-585.84C2148.14,-573.15 1947.33,-546.73 1839.38,-532.52"/>
<polygon fill="black" stroke="black" points="1840.15,-529.09 1829.77,-531.26 1839.23,-536.03 1840.15,-529.09"/>
</g>
<!-- 27 -->
<g id="node28" class="node">
<title>27</title>
<ellipse fill="none" stroke="black" cx="2286" cy="-234" rx="111.74" ry="18"/>
<text text-anchor="middle" x="2286" y="-228.95" font-family="Times New Roman,serif" font-size="14.00">Jump to: [library card hub]</text>
</g>
<!-- 27&#45;&gt;8 -->
<g id="edge33" class="edge">
<title>27&#45;&gt;8</title>
<path fill="none" stroke="black" d="M2283.78,-215.7C2282.81,-208.21 2281.66,-199.26 2280.58,-190.88"/>
<polygon fill="black" stroke="black" points="2284.08,-190.6 2279.33,-181.12 2277.13,-191.49 2284.08,-190.6"/>
</g>
<!-- 28&#45;&gt;10 -->
<g id="edge34" class="edge">
<title>28&#45;&gt;10</title>
<path fill="none" stroke="black" d="M2512.95,-74.2C2709.34,-62.03 2985.62,-44.92 3178.29,-32.98"/>
<polygon fill="black" stroke="black" points="3178.43,-36.48 3188.2,-32.37 3178,-29.49 3178.43,-36.48"/>
</g>
<!-- 29 -->
<g id="node30" class="node">
<title>29</title>
<ellipse fill="none" stroke="black" cx="3160" cy="-234" rx="709.54" ry="18"/>
<text text-anchor="middle" x="3160" y="-228.95" font-family="Times New Roman,serif" font-size="14.00">Kim Kitsuragi: “很好，我们已经检查过借书证——对我们的同事而言，这就够了。现在可以用我的锐影呼叫警察局，把这个案子交给他们。”</text>
</g>
<!-- 30&#45;&gt;2 -->
<g id="edge35" class="edge">
<title>30&#45;&gt;2</title>
<path fill="none" stroke="black" d="M840.14,-359.61C873.06,-349.92 914.24,-337.81 948.79,-327.65"/>
<polygon fill="black" stroke="black" points="949.7,-331.03 958.3,-324.85 947.72,-324.32 949.7,-331.03"/>
</g>
<!-- 31 -->
<g id="node32" class="node">
<title>31</title>
<ellipse fill="none" stroke="black" cx="3039" cy="-90" rx="285.76" ry="18"/>
<text text-anchor="middle" x="3039" y="-84.95" font-family="Times New Roman,serif" font-size="14.00">Reaction Speed: 好主意。这里有大量信息可以作为参考。</text>
</g>
<!-- 31&#45;&gt;10 -->
<g id="edge36" class="edge">
<title>31&#45;&gt;10</title>
<path fill="none" stroke="black" d="M3125.5,-72.41C3179.45,-62.06 3249.06,-48.71 3305.18,-37.95"/>
<polygon fill="black" stroke="black" points="3305.57,-41.44 3314.74,-36.12 3304.25,-34.57 3305.57,-41.44"/>
</g>
<!-- 33 -->
<g id="node34" class="node">
<title>33</title>
<polygon fill="none" stroke="black" points="4319,-180 4236.24,-162 4319,-144 4401.76,-162 4319,-180"/>
<text text-anchor="middle" x="4319" y="-156.95" font-family="Times New Roman,serif" font-size="14.00">IsKimHere()</text>
</g>
<!-- 32&#45;&gt;33 -->
<g id="edge37" class="edge">
<title>32&#45;&gt;33</title>
<path fill="none" stroke="black" d="M4522.16,-221.05C4478.32,-208.52 4409.65,-188.9 4364.49,-176"/>
<polygon fill="black" stroke="black" points="4365.57,-172.67 4355,-173.28 4363.65,-179.4 4365.57,-172.67"/>
</g>
<!-- 34 -->
<g id="node35" class="node">
<title>34</title>
<polygon fill="none" stroke="black" points="4566,-180 4470.22,-162 4566,-144 4661.78,-162 4566,-180"/>
<text text-anchor="middle" x="4566" y="-156.95" font-family="Times New Roman,serif" font-size="14.00">!(IsKimHere())</text>
</g>
<!-- 32&#45;&gt;34 -->
<g id="edge38" class="edge">
<title>32&#45;&gt;34</title>
<path fill="none" stroke="black" d="M4564.49,-215.7C4564.7,-208.41 4564.95,-199.73 4565.18,-191.54"/>
<polygon fill="black" stroke="black" points="4568.68,-191.71 4565.47,-181.62 4561.68,-191.51 4568.68,-191.71"/>
</g>
<!-- 37 -->
<g id="node38" class="node">
<title>37</title>
<ellipse fill="none" stroke="black" cx="3770" cy="-90" rx="427.02" ry="18"/>
<text text-anchor="middle" x="3770" y="-84.95" font-family="Times New Roman,serif" font-size="14.00">Kim Kitsuragi: “我们已经决定把这件事交给警局去处理了，所以没必要打给图书馆。</text>
</g>
<!-- 33&#45;&gt;37 -->
<g id="edge39" class="edge">
<title>33&#45;&gt;37</title>
<path fill="none" stroke="black" d="M4268.34,-154.54C4187.98,-144.29 4028.42,-123.95 3911.42,-109.03"/>
<polygon fill="black" stroke="black" points="3912.1,-105.59 3901.74,-107.8 3911.21,-112.53 3912.1,-105.59"/>
</g>
<!-- 38 -->
<g id="node39" class="node">
<title>38</title>
<ellipse fill="none" stroke="black" cx="4570" cy="-90" rx="355.37" ry="18"/>
<text text-anchor="middle" x="4570" y="-84.95" font-family="Times New Roman,serif" font-size="14.00">Logic: 你已经决定让警局去处理这件事情，所以没必要打给图书馆。</text>
</g>
<!-- 34&#45;&gt;38 -->
<g id="edge40" class="edge">
<title>34&#45;&gt;38</title>
<path fill="none" stroke="black" d="M4566.99,-143.7C4567.41,-136.41 4567.9,-127.73 4568.37,-119.54"/>
<polygon fill="black" stroke="black" points="4571.86,-119.8 4568.94,-109.62 4564.87,-119.4 4571.86,-119.8"/>
</g>
<!-- 35&#45;&gt;31 -->
<g id="edge41" class="edge">
<title>35&#45;&gt;31</title>
<path fill="none" stroke="black" d="M4156,-503.51C4156,-476.71 4156,-423.87 4156,-379 4156,-379 4156,-379 4156,-233 4156,-186.72 3544.72,-131.21 3226.57,-105.44"/>
<polygon fill="black" stroke="black" points="3227.13,-101.98 3216.88,-104.66 3226.57,-108.95 3227.13,-101.98"/>
</g>
<!-- 36&#45;&gt;27 -->
<g id="edge42" class="edge">
<title>36&#45;&gt;27</title>
<path fill="none" stroke="black" d="M2469.24,-287.79C2432.92,-277.32 2386.57,-263.97 2349.57,-253.31"/>
<polygon fill="black" stroke="black" points="2350.94,-250.06 2340.36,-250.66 2349,-256.79 2350.94,-250.06"/>
</g>
<!-- 37&#45;&gt;10 -->
<g id="edge43" class="edge">
<title>37&#45;&gt;10</title>
<path fill="none" stroke="black" d="M3680.93,-71.97C3627.19,-61.69 3558.61,-48.57 3503.15,-37.96"/>
<polygon fill="black" stroke="black" points="3503.85,-34.53 3493.37,-36.09 3502.53,-41.41 3503.85,-34.53"/>
</g>
<!-- 38&#45;&gt;10 -->
<g id="edge44" class="edge">
<title>38&#45;&gt;10</title>
<path fill="none" stroke="black" d="M4346.91,-75.61C4142.09,-63.31 3839.91,-45.17 3633.19,-32.76"/>
<polygon fill="black" stroke="black" points="3633.58,-29.28 3623.39,-32.17 3633.16,-36.26 3633.58,-29.28"/>
</g>
<!-- 40 -->
<g id="node41" class="node">
<title>40</title>
<polygon fill="none" stroke="black" points="3491,-324 3408.24,-306 3491,-288 3573.76,-306 3491,-324"/>
<text text-anchor="middle" x="3491" y="-300.95" font-family="Times New Roman,serif" font-size="14.00">IsKimHere()</text>
</g>
<!-- 39&#45;&gt;40 -->
<g id="edge45" class="edge">
<title>39&#45;&gt;40</title>
<path fill="none" stroke="black" d="M3956.01,-365.39C3947.75,-363.4 3939.14,-361.5 3931,-360 3801.38,-336.09 3648.21,-320.45 3561.05,-312.71"/>
<polygon fill="black" stroke="black" points="3561.49,-309.24 3551.22,-311.85 3560.88,-316.21 3561.49,-309.24"/>
</g>
<!-- 41 -->
<g id="node42" class="node">
<title>41</title>
<polygon fill="none" stroke="black" points="3999,-324 3903.22,-306 3999,-288 4094.78,-306 3999,-324"/>
<text text-anchor="middle" x="3999" y="-300.95" font-family="Times New Roman,serif" font-size="14.00">!(IsKimHere())</text>
</g>
<!-- 39&#45;&gt;41 -->
<g id="edge46" class="edge">
<title>39&#45;&gt;41</title>
<path fill="none" stroke="black" d="M3999,-359.7C3999,-352.41 3999,-343.73 3999,-335.54"/>
<polygon fill="black" stroke="black" points="4002.5,-335.62 3999,-325.62 3995.5,-335.62 4002.5,-335.62"/>
</g>
<!-- 40&#45;&gt;29 -->
<g id="edge47" class="edge">
<title>40&#45;&gt;29</title>
<path fill="none" stroke="black" d="M3450.41,-296.42C3401.54,-286.08 3317.91,-268.4 3252.92,-254.65"/>
<polygon fill="black" stroke="black" points="3253.82,-251.26 3243.31,-252.62 3252.37,-258.11 3253.82,-251.26"/>
</g>
<!-- 41&#45;&gt;11 -->
<g id="edge48" class="edge">
<title>41&#45;&gt;11</title>
<path fill="none" stroke="black" d="M3999,-287.7C3999,-280.41 3999,-271.73 3999,-263.54"/>
<polygon fill="black" stroke="black" points="4002.5,-263.62 3999,-253.62 3995.5,-263.62 4002.5,-263.62"/>
</g>
<!-- 43 -->
<g id="node44" class="node">
<title>43</title>
<polygon fill="none" stroke="black" points="4274,-756 3846.71,-738 4274,-720 4701.29,-738 4274,-756"/>
<text text-anchor="middle" x="4274" y="-732.95" font-family="Times New Roman,serif" font-size="14.00">IsTaskActive(&quot;TASK.examine_library_card_with_main_task&quot;)&#45;&#45;[[ Variable[ ]]</text>
</g>
<!-- 42&#45;&gt;43 -->
<g id="edge49" class="edge">
<title>42&#45;&gt;43</title>
<path fill="none" stroke="black" d="M4451.51,-791.88C4416.54,-781.46 4371.87,-768.15 4336.09,-757.5"/>
<polygon fill="black" stroke="black" points="4337.33,-754.21 4326.75,-754.71 4335.33,-760.92 4337.33,-754.21"/>
</g>
<!-- 44 -->
<g id="node45" class="node">
<title>44</title>
<polygon fill="none" stroke="black" points="4775,-684 4334.68,-666 4775,-648 5215.32,-666 4775,-684"/>
<text text-anchor="middle" x="4775" y="-660.95" font-family="Times New Roman,serif" font-size="14.00">!(IsTaskActive(&quot;TASK.examine_library_card_with_main_task&quot;)&#45;&#45;[[ Variable[ ]])</text>
</g>
<!-- 42&#45;&gt;44 -->
<g id="edge50" class="edge">
<title>42&#45;&gt;44</title>
<path fill="none" stroke="black" d="M4623.8,-792.93C4653.63,-785.08 4684.51,-773.39 4710,-756 4732.91,-740.37 4750.71,-713.9 4761.85,-693.89"/>
<polygon fill="black" stroke="black" points="4764.89,-695.63 4766.49,-685.16 4758.71,-692.34 4764.89,-695.63"/>
</g>
<!-- 43&#45;&gt;24 -->
<g id="edge51" class="edge">
<title>43&#45;&gt;24</title>
<path fill="none" stroke="black" d="M4246.63,-720.76C4230.2,-711.02 4209.13,-698.52 4191.44,-688.02"/>
<polygon fill="black" stroke="black" points="4193.69,-685.29 4183.31,-683.2 4190.12,-691.31 4193.69,-685.29"/>
</g>
<!-- 44&#45;&gt;10 -->
<g id="edge52" class="edge">
<title>44&#45;&gt;10</title>
<path fill="none" stroke="black" d="M4824.11,-649.56C4876.8,-629.57 4953,-589.22 4953,-523 4953,-523 4953,-523 4953,-161 4953,-120.55 4965,-97.98 4934,-72 4889.32,-34.55 4186.93,-23.54 3749.55,-20.32"/>
<polygon fill="black" stroke="black" points="3749.84,-16.82 3739.82,-20.25 3749.79,-23.82 3749.84,-16.82"/>
</g>
<!-- 45&#45;&gt;23 -->
<g id="edge53" class="edge">
<title>45&#45;&gt;23</title>
<path fill="none" stroke="black" d="M1948.33,-442.38C2076.33,-432.1 2327.5,-411.91 2512.14,-397.07"/>
<polygon fill="black" stroke="black" points="2512.17,-400.58 2521.86,-396.29 2511.61,-393.6 2512.17,-400.58"/>
</g>
</g>
</svg>
