<?xml version="1.0" encoding="UTF-8" standalone="no"?>
<!DOCTYPE svg PUBLIC "-//W3C//DTD SVG 1.1//EN"
 "http://www.w3.org/Graphics/SVG/1.1/DTD/svg11.dtd">
<!-- Generated by graphviz version 12.2.1 (20241206.2353)
 -->
<!-- Title: G Pages: 1 -->
<svg width="3579pt" height="692pt"
 viewBox="0.00 0.00 3579.05 692.00" xmlns="http://www.w3.org/2000/svg" xmlns:xlink="http://www.w3.org/1999/xlink">
<g id="graph0" class="graph" transform="scale(1 1) rotate(0) translate(4 688)">
<title>G</title>
<polygon fill="white" stroke="none" points="-4,4 -4,-688 3575.05,-688 3575.05,4 -4,4"/>
<!-- 0 -->
<g id="node1" class="node">
<title>0</title>
<ellipse fill="none" stroke="black" cx="1307.93" cy="-666" rx="39.07" ry="18"/>
<text text-anchor="middle" x="1307.93" y="-660.95" font-family="Times New Roman,serif" font-size="14.00">START</text>
</g>
<!-- 0&#45;&gt;0 -->
<g id="edge1" class="edge">
<title>0&#45;&gt;0</title>
<path fill="none" stroke="black" d="M1336.11,-678.94C1351.23,-681.14 1364.99,-676.83 1364.99,-666 1364.99,-657.96 1357.41,-653.52 1347.32,-652.65"/>
<polygon fill="black" stroke="black" points="1347.49,-649.15 1337.63,-653 1347.75,-656.14 1347.49,-649.15"/>
</g>
<!-- 1 -->
<g id="node2" class="node">
<title>1</title>
<ellipse fill="none" stroke="black" cx="1412.93" cy="-666" rx="29.86" ry="18"/>
<text text-anchor="middle" x="1412.93" y="-660.95" font-family="Times New Roman,serif" font-size="14.00">input</text>
</g>
<!-- 9 -->
<g id="node10" class="node">
<title>9</title>
<polygon fill="none" stroke="black" points="1273.93,-612 1034.83,-594 1273.93,-576 1513.02,-594 1273.93,-612"/>
<text text-anchor="middle" x="1273.93" y="-588.95" font-family="Times New Roman,serif" font-size="14.00">!(Variable[&quot;yard.hanged_tats_night_sky&quot;])</text>
</g>
<!-- 1&#45;&gt;9 -->
<g id="edge2" class="edge">
<title>1&#45;&gt;9</title>
<path fill="none" stroke="black" d="M1390.59,-653.75C1370.05,-643.41 1339.08,-627.81 1314.22,-615.29"/>
<polygon fill="black" stroke="black" points="1315.84,-612.19 1305.33,-610.82 1312.69,-618.44 1315.84,-612.19"/>
</g>
<!-- 2 -->
<g id="node3" class="node">
<title>2</title>
<ellipse fill="none" stroke="black" cx="2489.93" cy="-234" rx="198.24" ry="18"/>
<text text-anchor="middle" x="2489.93" y="-228.95" font-family="Times New Roman,serif" font-size="14.00">Suggestion: 与死者亲近的人或许知情。</text>
</g>
<!-- 16 -->
<g id="node17" class="node">
<title>16</title>
<ellipse fill="none" stroke="black" cx="2426.93" cy="-162" rx="242.77" ry="18"/>
<text text-anchor="middle" x="2426.93" y="-156.95" font-family="Times New Roman,serif" font-size="14.00">Encyclopedia: 某个了解历史的人也许能告诉你。</text>
</g>
<!-- 2&#45;&gt;16 -->
<g id="edge3" class="edge">
<title>2&#45;&gt;16</title>
<path fill="none" stroke="black" d="M2474.35,-215.7C2466.95,-207.47 2457.96,-197.48 2449.8,-188.42"/>
<polygon fill="black" stroke="black" points="2452.62,-186.32 2443.33,-181.23 2447.42,-191 2452.62,-186.32"/>
</g>
<!-- 3 -->
<g id="node4" class="node">
<title>3</title>
<ellipse fill="none" stroke="black" cx="2799.93" cy="-162" rx="112.26" ry="18"/>
<text text-anchor="middle" x="2799.93" y="-156.95" font-family="Times New Roman,serif" font-size="14.00">Photo of Tattoos: 死者。</text>
</g>
<!-- 15 -->
<g id="node16" class="node">
<title>15</title>
<ellipse fill="none" stroke="black" cx="2500.93" cy="-90" rx="105.09" ry="18"/>
<text text-anchor="middle" x="2500.93" y="-84.95" font-family="Times New Roman,serif" font-size="14.00">Jump to: [interacthereyo]</text>
</g>
<!-- 3&#45;&gt;15 -->
<g id="edge4" class="edge">
<title>3&#45;&gt;15</title>
<path fill="none" stroke="black" d="M2738.34,-146.58C2690.18,-135.31 2623.15,-119.61 2572.59,-107.78"/>
<polygon fill="black" stroke="black" points="2573.42,-104.38 2562.89,-105.51 2571.83,-111.19 2573.42,-104.38"/>
</g>
<!-- 4 -->
<g id="node5" class="node">
<title>4</title>
<ellipse fill="none" stroke="black" cx="1486.93" cy="-378" rx="383" ry="18"/>
<text text-anchor="middle" x="1486.93" y="-372.95" font-family="Times New Roman,serif" font-size="14.00">Photo of Tattoos: 等你去发现。在没有帮助的情况下，你已经走到这么远了。</text>
</g>
<!-- 4&#45;&gt;1 -->
<g id="edge5" class="edge">
<title>4&#45;&gt;1</title>
<path fill="none" stroke="black" d="M1508.19,-396.3C1518.03,-405.69 1528.69,-418.2 1533.93,-432 1562.38,-506.96 1567.24,-545.86 1521.93,-612 1505.81,-635.53 1476.2,-649 1451.91,-656.47"/>
<polygon fill="black" stroke="black" points="1450.98,-653.09 1442.3,-659.17 1452.88,-659.83 1450.98,-653.09"/>
</g>
<!-- 5 -->
<g id="node6" class="node">
<title>5</title>
<ellipse fill="none" stroke="black" cx="1998.93" cy="-18" rx="571.35" ry="18"/>
<text text-anchor="middle" x="1998.93" y="-12.95" font-family="Times New Roman,serif" font-size="14.00">Photo of Tattoos: 看起来几乎就像是无线电脑里的电子图案，或者是一个老旧的纤维内存单元，不过也不完全是。</text>
</g>
<!-- 5&#45;&gt;5 -->
<g id="edge6" class="edge">
<title>5&#45;&gt;5</title>
<path fill="none" stroke="black" d="M2391.73,-31.44C2502.84,-30.87 2588.27,-26.39 2588.27,-18 2588.27,-9.89 2508.58,-5.44 2403.03,-4.63"/>
<polygon fill="black" stroke="black" points="2403.27,-1.13 2393.25,-4.57 2403.22,-8.13 2403.27,-1.13"/>
</g>
<!-- 6 -->
<g id="node7" class="node">
<title>6</title>
<ellipse fill="none" stroke="black" cx="2564.93" cy="-378" rx="63.63" ry="18"/>
<text text-anchor="middle" x="2564.93" y="-372.95" font-family="Times New Roman,serif" font-size="14.00">interacthereyo</text>
</g>
<!-- 11 -->
<g id="node12" class="node">
<title>11</title>
<ellipse fill="none" stroke="black" cx="2553.93" cy="-306" rx="78.48" ry="18"/>
<text text-anchor="middle" x="2553.93" y="-300.95" font-family="Times New Roman,serif" font-size="14.00">You: 你是谁？</text>
</g>
<!-- 6&#45;&gt;11 -->
<g id="edge8" class="edge">
<title>6&#45;&gt;11</title>
<path fill="none" stroke="black" d="M2562.21,-359.7C2561.05,-352.32 2559.67,-343.52 2558.37,-335.25"/>
<polygon fill="black" stroke="black" points="2561.86,-334.93 2556.85,-325.6 2554.94,-336.02 2561.86,-334.93"/>
</g>
<!-- 18 -->
<g id="node19" class="node">
<title>18</title>
<ellipse fill="none" stroke="black" cx="2799.93" cy="-306" rx="149.11" ry="18"/>
<text text-anchor="middle" x="2799.93" y="-300.95" font-family="Times New Roman,serif" font-size="14.00">You: 这个纹身是什么意思？</text>
</g>
<!-- 6&#45;&gt;18 -->
<g id="edge7" class="edge">
<title>6&#45;&gt;18</title>
<path fill="none" stroke="black" d="M2607.76,-364.24C2643.29,-353.66 2694.37,-338.44 2734.94,-326.36"/>
<polygon fill="black" stroke="black" points="2735.78,-329.76 2744.37,-323.55 2733.78,-323.05 2735.78,-329.76"/>
</g>
<!-- 22 -->
<g id="node23" class="node">
<title>22</title>
<ellipse fill="none" stroke="black" cx="2325.93" cy="-306" rx="131.71" ry="18"/>
<text text-anchor="middle" x="2325.93" y="-300.95" font-family="Times New Roman,serif" font-size="14.00">You: [把照片放在一边。]</text>
</g>
<!-- 6&#45;&gt;22 -->
<g id="edge9" class="edge">
<title>6&#45;&gt;22</title>
<path fill="none" stroke="black" d="M2521.92,-364.4C2485.4,-353.71 2432.45,-338.2 2390.78,-326"/>
<polygon fill="black" stroke="black" points="2391.94,-322.69 2381.35,-323.23 2389.97,-329.4 2391.94,-322.69"/>
</g>
<!-- 7 -->
<g id="node8" class="node">
<title>7</title>
<ellipse fill="none" stroke="black" cx="3155.93" cy="-234" rx="159.85" ry="18"/>
<text text-anchor="middle" x="3155.93" y="-228.95" font-family="Times New Roman,serif" font-size="14.00">Variable[&quot;yard.hanged_tats_night_sky&quot;]</text>
</g>
<!-- 7&#45;&gt;7 -->
<g id="edge11" class="edge">
<title>7&#45;&gt;7</title>
<path fill="none" stroke="black" d="M3265.34,-247.5C3303.2,-247.64 3333.78,-243.14 3333.78,-234 3333.78,-225.79 3309.1,-221.32 3276.63,-220.6"/>
<polygon fill="black" stroke="black" points="3276.89,-217.11 3266.86,-220.52 3276.82,-224.11 3276.89,-217.11"/>
</g>
<!-- 8 -->
<g id="node9" class="node">
<title>8</title>
<polygon fill="none" stroke="black" points="3155.93,-180 2929.86,-162 3155.93,-144 3381.99,-162 3155.93,-180"/>
<text text-anchor="middle" x="3155.93" y="-156.95" font-family="Times New Roman,serif" font-size="14.00">Variable[&quot;yard.hanged_tats_night_sky&quot;]</text>
</g>
<!-- 7&#45;&gt;8 -->
<g id="edge10" class="edge">
<title>7&#45;&gt;8</title>
<path fill="none" stroke="black" d="M3155.93,-215.7C3155.93,-208.41 3155.93,-199.73 3155.93,-191.54"/>
<polygon fill="black" stroke="black" points="3159.43,-191.62 3155.93,-181.62 3152.43,-191.62 3159.43,-191.62"/>
</g>
<!-- 17 -->
<g id="node18" class="node">
<title>17</title>
<ellipse fill="none" stroke="black" cx="3134.93" cy="-90" rx="425.99" ry="18"/>
<text text-anchor="middle" x="3134.93" y="-84.95" font-family="Times New Roman,serif" font-size="14.00">Photo of Tattoos: 它看起来还像是那种夜空中的星图，不过……有些不太对劲的地方。</text>
</g>
<!-- 8&#45;&gt;17 -->
<g id="edge12" class="edge">
<title>8&#45;&gt;17</title>
<path fill="none" stroke="black" d="M3150.84,-144.05C3148.61,-136.6 3145.92,-127.64 3143.39,-119.22"/>
<polygon fill="black" stroke="black" points="3146.77,-118.3 3140.54,-109.73 3140.06,-120.31 3146.77,-118.3"/>
</g>
<!-- 19 -->
<g id="node20" class="node">
<title>19</title>
<ellipse fill="none" stroke="black" cx="1260.93" cy="-522" rx="186.47" ry="18"/>
<text text-anchor="middle" x="1260.93" y="-516.95" font-family="Times New Roman,serif" font-size="14.00">Variable[&quot;yard.hanged_tats_micro_electronic&quot;]</text>
</g>
<!-- 9&#45;&gt;19 -->
<g id="edge13" class="edge">
<title>9&#45;&gt;19</title>
<path fill="none" stroke="black" d="M1270.78,-576.05C1269.41,-568.68 1267.77,-559.84 1266.22,-551.51"/>
<polygon fill="black" stroke="black" points="1269.68,-550.96 1264.41,-541.76 1262.8,-552.23 1269.68,-550.96"/>
</g>
<!-- 10 -->
<g id="node11" class="node">
<title>10</title>
<ellipse fill="none" stroke="black" cx="2575.93" cy="-450" rx="995.13" ry="18"/>
<text text-anchor="middle" x="2575.93" y="-444.95" font-family="Times New Roman,serif" font-size="14.00">Photo of Tattoos: 一张错综复杂的蓝色线网覆盖了躯干。从右肩横跨至腹腔神经丛，每当它们相交时都会形成一颗白色的星星。他的皮肤上点缀着数百个褪了色的星号，尤其是心脏周围最为密集。</text>
</g>
<!-- 10&#45;&gt;6 -->
<g id="edge14" class="edge">
<title>10&#45;&gt;6</title>
<path fill="none" stroke="black" d="M2573.21,-431.7C2572.05,-424.32 2570.67,-415.52 2569.37,-407.25"/>
<polygon fill="black" stroke="black" points="2572.86,-406.93 2567.85,-397.6 2565.94,-408.02 2572.86,-406.93"/>
</g>
<!-- 11&#45;&gt;2 -->
<g id="edge15" class="edge">
<title>11&#45;&gt;2</title>
<path fill="none" stroke="black" d="M2538.43,-288.05C2530.92,-279.84 2521.73,-269.79 2513.39,-260.66"/>
<polygon fill="black" stroke="black" points="2516.07,-258.41 2506.74,-253.39 2510.91,-263.13 2516.07,-258.41"/>
</g>
<!-- 12 -->
<g id="node13" class="node">
<title>12</title>
<ellipse fill="none" stroke="black" cx="835.93" cy="-378" rx="183.4" ry="18"/>
<text text-anchor="middle" x="835.93" y="-372.95" font-family="Times New Roman,serif" font-size="14.00">Variable[&quot;yard.hanged_tats_national_pattern&quot;]</text>
</g>
<!-- 13 -->
<g id="node14" class="node">
<title>13</title>
<polygon fill="none" stroke="black" points="1809.93,-324 1550.56,-306 1809.93,-288 2069.29,-306 1809.93,-324"/>
<text text-anchor="middle" x="1809.93" y="-300.95" font-family="Times New Roman,serif" font-size="14.00">Variable[&quot;yard.hanged_tats_national_pattern&quot;]</text>
</g>
<!-- 12&#45;&gt;13 -->
<g id="edge16" class="edge">
<title>12&#45;&gt;13</title>
<path fill="none" stroke="black" d="M980.69,-366.6C1168.2,-353.12 1492.59,-329.81 1675.11,-316.69"/>
<polygon fill="black" stroke="black" points="1675.15,-320.2 1684.87,-315.99 1674.65,-313.21 1675.15,-320.2"/>
</g>
<!-- 14 -->
<g id="node15" class="node">
<title>14</title>
<polygon fill="none" stroke="black" points="835.93,-324 563.53,-306 835.93,-288 1108.32,-306 835.93,-324"/>
<text text-anchor="middle" x="835.93" y="-300.95" font-family="Times New Roman,serif" font-size="14.00">!(Variable[&quot;yard.hanged_tats_national_pattern&quot;])</text>
</g>
<!-- 12&#45;&gt;14 -->
<g id="edge17" class="edge">
<title>12&#45;&gt;14</title>
<path fill="none" stroke="black" d="M835.93,-359.7C835.93,-352.41 835.93,-343.73 835.93,-335.54"/>
<polygon fill="black" stroke="black" points="839.43,-335.62 835.93,-325.62 832.43,-335.62 839.43,-335.62"/>
</g>
<!-- 26 -->
<g id="node27" class="node">
<title>26</title>
<ellipse fill="none" stroke="black" cx="1998.93" cy="-90" rx="378.91" ry="18"/>
<text text-anchor="middle" x="1998.93" y="-84.95" font-family="Times New Roman,serif" font-size="14.00">Photo of Tattoos: 这个图案还有一种民族特有的感觉，不过一点也不熟悉……</text>
</g>
<!-- 13&#45;&gt;26 -->
<g id="edge18" class="edge">
<title>13&#45;&gt;26</title>
<path fill="none" stroke="black" d="M1824.44,-288.56C1857.11,-251.57 1936.63,-161.53 1976.03,-116.93"/>
<polygon fill="black" stroke="black" points="1978.57,-119.33 1982.57,-109.52 1973.33,-114.7 1978.57,-119.33"/>
</g>
<!-- 23 -->
<g id="node24" class="node">
<title>23</title>
<ellipse fill="none" stroke="black" cx="835.93" cy="-234" rx="158.32" ry="18"/>
<text text-anchor="middle" x="835.93" y="-228.95" font-family="Times New Roman,serif" font-size="14.00">Variable[&quot;yard.hanged_tats_insepcted&quot;]</text>
</g>
<!-- 14&#45;&gt;23 -->
<g id="edge19" class="edge">
<title>14&#45;&gt;23</title>
<path fill="none" stroke="black" d="M835.93,-287.7C835.93,-280.41 835.93,-271.73 835.93,-263.54"/>
<polygon fill="black" stroke="black" points="839.43,-263.62 835.93,-253.62 832.43,-263.62 839.43,-263.62"/>
</g>
<!-- 15&#45;&gt;5 -->
<g id="edge20" class="edge">
<title>15&#45;&gt;5</title>
<path fill="none" stroke="black" d="M2423.99,-77.4C2411.6,-75.56 2398.91,-73.71 2386.93,-72 2304.34,-60.2 2211.79,-47.54 2137.79,-37.55"/>
<polygon fill="black" stroke="black" points="2138.43,-34.1 2128.05,-36.23 2137.49,-41.04 2138.43,-34.1"/>
</g>
<!-- 16&#45;&gt;15 -->
<g id="edge21" class="edge">
<title>16&#45;&gt;15</title>
<path fill="none" stroke="black" d="M2445.22,-143.7C2454.09,-135.3 2464.91,-125.07 2474.64,-115.86"/>
<polygon fill="black" stroke="black" points="2476.89,-118.56 2481.74,-109.14 2472.07,-113.47 2476.89,-118.56"/>
</g>
<!-- 17&#45;&gt;5 -->
<g id="edge22" class="edge">
<title>17&#45;&gt;5</title>
<path fill="none" stroke="black" d="M2900.58,-74.56C2715.08,-63.13 2456.02,-47.17 2263.16,-35.28"/>
<polygon fill="black" stroke="black" points="2263.42,-31.79 2253.23,-34.67 2262.99,-38.78 2263.42,-31.79"/>
</g>
<!-- 18&#45;&gt;3 -->
<g id="edge23" class="edge">
<title>18&#45;&gt;3</title>
<path fill="none" stroke="black" d="M2799.93,-287.59C2799.93,-263.61 2799.93,-220.14 2799.93,-191.42"/>
<polygon fill="black" stroke="black" points="2803.43,-191.62 2799.93,-181.62 2796.43,-191.62 2803.43,-191.62"/>
</g>
<!-- 20 -->
<g id="node21" class="node">
<title>20</title>
<polygon fill="none" stroke="black" points="1260.93,-468 997.22,-450 1260.93,-432 1524.63,-450 1260.93,-468"/>
<text text-anchor="middle" x="1260.93" y="-444.95" font-family="Times New Roman,serif" font-size="14.00">Variable[&quot;yard.hanged_tats_micro_electronic&quot;]</text>
</g>
<!-- 19&#45;&gt;20 -->
<g id="edge24" class="edge">
<title>19&#45;&gt;20</title>
<path fill="none" stroke="black" d="M1260.93,-503.7C1260.93,-496.41 1260.93,-487.73 1260.93,-479.54"/>
<polygon fill="black" stroke="black" points="1264.43,-479.62 1260.93,-469.62 1257.43,-479.62 1264.43,-479.62"/>
</g>
<!-- 21 -->
<g id="node22" class="node">
<title>21</title>
<polygon fill="none" stroke="black" points="702.93,-468 426.19,-450 702.93,-432 979.66,-450 702.93,-468"/>
<text text-anchor="middle" x="702.93" y="-444.95" font-family="Times New Roman,serif" font-size="14.00">!(Variable[&quot;yard.hanged_tats_micro_electronic&quot;])</text>
</g>
<!-- 19&#45;&gt;21 -->
<g id="edge25" class="edge">
<title>19&#45;&gt;21</title>
<path fill="none" stroke="black" d="M1150.35,-507.13C1050.11,-494.55 903.51,-476.16 805.75,-463.9"/>
<polygon fill="black" stroke="black" points="806.23,-460.43 795.87,-462.66 805.36,-467.38 806.23,-460.43"/>
</g>
<!-- 20&#45;&gt;4 -->
<g id="edge26" class="edge">
<title>20&#45;&gt;4</title>
<path fill="none" stroke="black" d="M1307.21,-434.67C1339.88,-424.54 1384.15,-410.83 1420.58,-399.55"/>
<polygon fill="black" stroke="black" points="1421.15,-403.04 1429.67,-396.73 1419.08,-396.35 1421.15,-403.04"/>
</g>
<!-- 21&#45;&gt;12 -->
<g id="edge27" class="edge">
<title>21&#45;&gt;12</title>
<path fill="none" stroke="black" d="M732.44,-433.46C750.43,-424 773.71,-411.75 793.63,-401.26"/>
<polygon fill="black" stroke="black" points="795.14,-404.42 802.36,-396.67 791.88,-398.23 795.14,-404.42"/>
</g>
<!-- 24 -->
<g id="node25" class="node">
<title>24</title>
<polygon fill="none" stroke="black" points="877.93,-180 654.03,-162 877.93,-144 1101.82,-162 877.93,-180"/>
<text text-anchor="middle" x="877.93" y="-156.95" font-family="Times New Roman,serif" font-size="14.00">Variable[&quot;yard.hanged_tats_insepcted&quot;]</text>
</g>
<!-- 23&#45;&gt;24 -->
<g id="edge28" class="edge">
<title>23&#45;&gt;24</title>
<path fill="none" stroke="black" d="M846.31,-215.7C851.06,-207.78 856.79,-198.23 862.06,-189.44"/>
<polygon fill="black" stroke="black" points="865.03,-191.3 867.17,-180.92 859.03,-187.69 865.03,-191.3"/>
</g>
<!-- 25 -->
<g id="node26" class="node">
<title>25</title>
<polygon fill="none" stroke="black" points="236.93,-108 0,-90 236.93,-72 473.85,-90 236.93,-108"/>
<text text-anchor="middle" x="236.93" y="-84.95" font-family="Times New Roman,serif" font-size="14.00">!(Variable[&quot;yard.hanged_tats_insepcted&quot;])</text>
</g>
<!-- 23&#45;&gt;25 -->
<g id="edge29" class="edge">
<title>23&#45;&gt;25</title>
<path fill="none" stroke="black" d="M769.53,-217.26C654.42,-189.97 419.07,-134.18 303.69,-106.83"/>
<polygon fill="black" stroke="black" points="304.59,-103.44 294.05,-104.54 302.97,-110.25 304.59,-103.44"/>
</g>
<!-- 27 -->
<g id="node28" class="node">
<title>27</title>
<ellipse fill="none" stroke="black" cx="1046.93" cy="-90" rx="555.48" ry="18"/>
<text text-anchor="middle" x="1046.93" y="-84.95" font-family="Times New Roman,serif" font-size="14.00">Photo of Tattoos: 它可能是任何东西……宗教符号，一份公路路线图。甚至可能只是纯粹的装饰物。谁知道呢？</text>
</g>
<!-- 24&#45;&gt;27 -->
<g id="edge30" class="edge">
<title>24&#45;&gt;27</title>
<path fill="none" stroke="black" d="M912.94,-146.5C936.59,-136.7 968.21,-123.61 994.79,-112.59"/>
<polygon fill="black" stroke="black" points="995.79,-115.97 1003.69,-108.91 993.11,-109.5 995.79,-115.97"/>
</g>
<!-- 25&#45;&gt;5 -->
<g id="edge31" class="edge">
<title>25&#45;&gt;5</title>
<path fill="none" stroke="black" d="M351.71,-80.25C393.05,-77.32 440.07,-74.23 482.93,-72 844.36,-53.2 1254.62,-39.31 1557.13,-30.48"/>
<polygon fill="black" stroke="black" points="1556.89,-33.99 1566.78,-30.2 1556.68,-26.99 1556.89,-33.99"/>
</g>
<!-- 26&#45;&gt;5 -->
<g id="edge32" class="edge">
<title>26&#45;&gt;5</title>
<path fill="none" stroke="black" d="M1998.93,-71.7C1998.93,-64.41 1998.93,-55.73 1998.93,-47.54"/>
<polygon fill="black" stroke="black" points="2002.43,-47.62 1998.93,-37.62 1995.43,-47.62 2002.43,-47.62"/>
</g>
<!-- 27&#45;&gt;5 -->
<g id="edge33" class="edge">
<title>27&#45;&gt;5</title>
<path fill="none" stroke="black" d="M1264.74,-72.98C1415.47,-61.9 1615.73,-47.18 1769.02,-35.9"/>
<polygon fill="black" stroke="black" points="1769.22,-39.4 1778.93,-35.18 1768.7,-32.42 1769.22,-39.4"/>
</g>
</g>
</svg>
