<?xml version="1.0" encoding="UTF-8" standalone="no"?>
<!DOCTYPE svg PUBLIC "-//W3C//DTD SVG 1.1//EN"
 "http://www.w3.org/Graphics/SVG/1.1/DTD/svg11.dtd">
<!-- Generated by graphviz version 12.2.1 (20241206.2353)
 -->
<!-- Title: G Pages: 1 -->
<svg width="7348pt" height="1772pt"
 viewBox="0.00 0.00 7347.51 1772.00" xmlns="http://www.w3.org/2000/svg" xmlns:xlink="http://www.w3.org/1999/xlink">
<g id="graph0" class="graph" transform="scale(1 1) rotate(0) translate(4 1768)">
<title>G</title>
<polygon fill="white" stroke="none" points="-4,4 -4,-1768 7343.51,-1768 7343.51,4 -4,4"/>
<!-- 0 -->
<g id="node1" class="node">
<title>0</title>
<ellipse fill="none" stroke="black" cx="2911" cy="-1746" rx="39.07" ry="18"/>
<text text-anchor="middle" x="2911" y="-1740.95" font-family="Times New Roman,serif" font-size="14.00">START</text>
</g>
<!-- 0&#45;&gt;0 -->
<g id="edge1" class="edge">
<title>0&#45;&gt;0</title>
<path fill="none" stroke="black" d="M2939.19,-1758.94C2954.3,-1761.14 2968.07,-1756.83 2968.07,-1746 2968.07,-1737.96 2960.48,-1733.52 2950.4,-1732.65"/>
<polygon fill="black" stroke="black" points="2950.57,-1729.15 2940.7,-1733 2950.82,-1736.14 2950.57,-1729.15"/>
</g>
<!-- 1 -->
<g id="node2" class="node">
<title>1</title>
<ellipse fill="none" stroke="black" cx="1609" cy="-810" rx="29.86" ry="18"/>
<text text-anchor="middle" x="1609" y="-804.95" font-family="Times New Roman,serif" font-size="14.00">input</text>
</g>
<!-- 15 -->
<g id="node16" class="node">
<title>15</title>
<ellipse fill="none" stroke="black" cx="1797" cy="-522" rx="307.77" ry="18"/>
<text text-anchor="middle" x="1797" y="-516.95" font-family="Times New Roman,serif" font-size="14.00">You: “真他么绝了，这不就是*我*吗！”（真正投入书中。）</text>
</g>
<!-- 1&#45;&gt;15 -->
<g id="edge2" class="edge">
<title>1&#45;&gt;15</title>
<path fill="none" stroke="black" d="M1604.56,-791.76C1594.85,-749.7 1576.44,-640.52 1628,-576 1639.37,-561.78 1654.51,-551.3 1671.09,-543.59"/>
<polygon fill="black" stroke="black" points="1672.34,-546.86 1680.18,-539.73 1669.6,-540.42 1672.34,-546.86"/>
</g>
<!-- 2 -->
<g id="node3" class="node">
<title>2</title>
<ellipse fill="none" stroke="black" cx="3838" cy="-1170" rx="219.74" ry="18"/>
<text text-anchor="middle" x="3838" y="-1164.95" font-family="Times New Roman,serif" font-size="14.00">You: 好吧，了解。没必要继续看下去了。</text>
</g>
<!-- 22 -->
<g id="node23" class="node">
<title>22</title>
<ellipse fill="none" stroke="black" cx="3889" cy="-1098" rx="149.11" ry="18"/>
<text text-anchor="middle" x="3889" y="-1092.95" font-family="Times New Roman,serif" font-size="14.00">You: 是时候翻阅这本书了。</text>
</g>
<!-- 2&#45;&gt;22 -->
<g id="edge3" class="edge">
<title>2&#45;&gt;22</title>
<path fill="none" stroke="black" d="M3850.61,-1151.7C3856.41,-1143.73 3863.43,-1134.1 3869.86,-1125.26"/>
<polygon fill="black" stroke="black" points="3872.59,-1127.47 3875.65,-1117.33 3866.93,-1123.35 3872.59,-1127.47"/>
</g>
<!-- 3 -->
<g id="node4" class="node">
<title>3</title>
<ellipse fill="none" stroke="black" cx="2114" cy="-666" rx="160.88" ry="18"/>
<text text-anchor="middle" x="2114" y="-660.95" font-family="Times New Roman,serif" font-size="14.00">You: 呃，庸俗。（合上书。）</text>
</g>
<!-- 48 -->
<g id="node49" class="node">
<title>48</title>
<ellipse fill="none" stroke="black" cx="2009" cy="-594" rx="372.26" ry="18"/>
<text text-anchor="middle" x="2009" y="-588.95" font-family="Times New Roman,serif" font-size="14.00">Jump to: [Man from Hjelmdall and the Devil Woman: &quot;The edges of the pages are worn and...&quot;]</text>
</g>
<!-- 3&#45;&gt;48 -->
<g id="edge4" class="edge">
<title>3&#45;&gt;48</title>
<path fill="none" stroke="black" d="M2088.31,-647.88C2075.19,-639.13 2059.02,-628.34 2044.7,-618.8"/>
<polygon fill="black" stroke="black" points="2046.67,-615.91 2036.41,-613.27 2042.79,-621.73 2046.67,-615.91"/>
</g>
<!-- 4 -->
<g id="node5" class="node">
<title>4</title>
<ellipse fill="none" stroke="black" cx="1480" cy="-234" rx="90.25" ry="18"/>
<text text-anchor="middle" x="1480" y="-228.95" font-family="Times New Roman,serif" font-size="14.00">You: 看看封底。</text>
</g>
<!-- 12 -->
<g id="node13" class="node">
<title>12</title>
<ellipse fill="none" stroke="black" cx="1480" cy="-162" rx="352.29" ry="18"/>
<text text-anchor="middle" x="1480" y="-156.95" font-family="Times New Roman,serif" font-size="14.00">Man from Hjelmdall and the Devil Woman: 你翻到了版权页。书是38年写的。</text>
</g>
<!-- 4&#45;&gt;12 -->
<g id="edge5" class="edge">
<title>4&#45;&gt;12</title>
<path fill="none" stroke="black" d="M1480,-215.7C1480,-208.41 1480,-199.73 1480,-191.54"/>
<polygon fill="black" stroke="black" points="1483.5,-191.62 1480,-181.62 1476.5,-191.62 1483.5,-191.62"/>
</g>
<!-- 5 -->
<g id="node6" class="node">
<title>5</title>
<ellipse fill="none" stroke="black" cx="5974" cy="-810" rx="1100.56" ry="18"/>
<text text-anchor="middle" x="5974" y="-804.95" font-family="Times New Roman,serif" font-size="14.00">Man from Hjelmdall and the Devil Woman: “……他就被一个女战士部落伏击，带回了云之城的远古城堡，那里的统治者是一个神秘又邪恶的女王。来自赫姆达尔的男人究竟能否逃离这个可怕的处境，找到他走失的好友呢？”</text>
</g>
<!-- 35 -->
<g id="node36" class="node">
<title>35</title>
<ellipse fill="none" stroke="black" cx="6201" cy="-738" rx="90.25" ry="18"/>
<text text-anchor="middle" x="6201" y="-732.95" font-family="Times New Roman,serif" font-size="14.00">You: 勇往直前！</text>
</g>
<!-- 5&#45;&gt;35 -->
<g id="edge6" class="edge">
<title>5&#45;&gt;35</title>
<path fill="none" stroke="black" d="M6030.4,-791.61C6064.53,-781.08 6107.96,-767.69 6142.46,-757.05"/>
<polygon fill="black" stroke="black" points="6143.36,-760.44 6151.88,-754.15 6141.29,-753.75 6143.36,-760.44"/>
</g>
<!-- 6 -->
<g id="node7" class="node">
<title>6</title>
<ellipse fill="none" stroke="black" cx="389" cy="-1242" rx="236.11" ry="18"/>
<text text-anchor="middle" x="389" y="-1236.95" font-family="Times New Roman,serif" font-size="14.00">Rhetoric: 它在呼唤着你。这就是瑞瓦肖精神。</text>
</g>
<!-- 29 -->
<g id="node30" class="node">
<title>29</title>
<polygon fill="none" stroke="black" points="1480,-108 1231.49,-90 1480,-72 1728.51,-90 1480,-108"/>
<text text-anchor="middle" x="1480" y="-84.95" font-family="Times New Roman,serif" font-size="14.00">!(IsTHCPresent(&quot;revacholian_nationhood&quot;))</text>
</g>
<!-- 6&#45;&gt;29 -->
<g id="edge7" class="edge">
<title>6&#45;&gt;29</title>
<path fill="none" stroke="black" d="M291.09,-1225.18C175.86,-1203.74 0,-1160.87 0,-1099 0,-1099 0,-1099 0,-233 0,-167.34 935.26,-116.34 1318.82,-98.18"/>
<polygon fill="black" stroke="black" points="1318.95,-101.68 1328.78,-97.71 1318.62,-94.69 1318.95,-101.68"/>
</g>
<!-- 7 -->
<g id="node8" class="node">
<title>7</title>
<ellipse fill="none" stroke="black" cx="6427" cy="-666" rx="496.11" ry="18"/>
<text text-anchor="middle" x="6427" y="-660.95" font-family="Times New Roman,serif" font-size="14.00">Man from Hjelmdall and the Devil Woman: 那就写篇论文去。来自赫姆达尔的男人跟你之间已经结束了。</text>
</g>
<!-- 33 -->
<g id="node34" class="node">
<title>33</title>
<ellipse fill="none" stroke="black" cx="6427" cy="-594" rx="113.79" ry="18"/>
<text text-anchor="middle" x="6427" y="-588.95" font-family="Times New Roman,serif" font-size="14.00">You: 把书放在一边。</text>
</g>
<!-- 7&#45;&gt;33 -->
<g id="edge8" class="edge">
<title>7&#45;&gt;33</title>
<path fill="none" stroke="black" d="M6427,-647.7C6427,-640.41 6427,-631.73 6427,-623.54"/>
<polygon fill="black" stroke="black" points="6430.5,-623.62 6427,-613.62 6423.5,-623.62 6430.5,-623.62"/>
</g>
<!-- 8 -->
<g id="node9" class="node">
<title>8</title>
<ellipse fill="none" stroke="black" cx="2656" cy="-1674" rx="978.75" ry="18"/>
<text text-anchor="middle" x="2656" y="-1668.95" font-family="Times New Roman,serif" font-size="14.00">Man from Hjelmdall and the Devil Woman: 来自赫姆达尔的男人那有如钢铁一般的肌肉在潮湿的丛林空气中闪闪发亮，但他并没有流汗。在冥想之中，他的灵魂依然在寒冷的北国，那里是他的家乡。</text>
</g>
<!-- 14 -->
<g id="node15" class="node">
<title>14</title>
<ellipse fill="none" stroke="black" cx="2656" cy="-1602" rx="1318.59" ry="18"/>
<text text-anchor="middle" x="2656" y="-1596.95" font-family="Times New Roman,serif" font-size="14.00">Man from Hjelmdall and the Devil Woman: “‘你的魔咒根本无法与纯洁和意志的力量相抗衡。赫姆达尔的弟兄们将会站立在肉体的罪恶之上，因为它是脆弱而腐败的，然而，我的肉体确是用鲜血和冲突铸造的。’莉迪亚拉女王笑了，嗓音风骚而淫荡，然后她说到……”</text>
</g>
<!-- 8&#45;&gt;14 -->
<g id="edge10" class="edge">
<title>8&#45;&gt;14</title>
<path fill="none" stroke="black" d="M2656,-1655.7C2656,-1648.41 2656,-1639.73 2656,-1631.54"/>
<polygon fill="black" stroke="black" points="2659.5,-1631.62 2656,-1621.62 2652.5,-1631.62 2659.5,-1631.62"/>
</g>
<!-- 38 -->
<g id="node39" class="node">
<title>38</title>
<ellipse fill="none" stroke="black" cx="1114" cy="-1602" rx="172.65" ry="18"/>
<text text-anchor="middle" x="1114" y="-1596.95" font-family="Times New Roman,serif" font-size="14.00">You: 呃。我够了。（合上书。）</text>
</g>
<!-- 8&#45;&gt;38 -->
<g id="edge9" class="edge">
<title>8&#45;&gt;38</title>
<path fill="none" stroke="black" d="M2164.63,-1658.01C1914.11,-1649.19 1604.68,-1636.5 1328,-1620 1304.55,-1618.6 1279.68,-1616.86 1255.51,-1615.03"/>
<polygon fill="black" stroke="black" points="1255.83,-1611.55 1245.6,-1614.27 1255.3,-1618.53 1255.83,-1611.55"/>
</g>
<!-- 9 -->
<g id="node10" class="node">
<title>9</title>
<ellipse fill="none" stroke="black" cx="2137" cy="-1386" rx="137.34" ry="18"/>
<text text-anchor="middle" x="2137" y="-1380.95" font-family="Times New Roman,serif" font-size="14.00">You: 也许吧，我不知道。</text>
</g>
<!-- 31 -->
<g id="node32" class="node">
<title>31</title>
<ellipse fill="none" stroke="black" cx="1836" cy="-1314" rx="372.26" ry="18"/>
<text text-anchor="middle" x="1836" y="-1308.95" font-family="Times New Roman,serif" font-size="14.00">Jump to: [Man from Hjelmdall and the Devil Woman: &quot;The edges of the pages are worn and...&quot;]</text>
</g>
<!-- 9&#45;&gt;31 -->
<g id="edge11" class="edge">
<title>9&#45;&gt;31</title>
<path fill="none" stroke="black" d="M2071.69,-1369.81C2027.41,-1359.52 1968.48,-1345.81 1920.62,-1334.68"/>
<polygon fill="black" stroke="black" points="1921.65,-1331.33 1911.12,-1332.47 1920.07,-1338.14 1921.65,-1331.33"/>
</g>
<!-- 10 -->
<g id="node11" class="node">
<title>10</title>
<ellipse fill="none" stroke="black" cx="4510" cy="-1170" rx="396.31" ry="18"/>
<text text-anchor="middle" x="4510" y="-1164.95" font-family="Times New Roman,serif" font-size="14.00">You: 我一直希望后面能变好一点，不过写作实在太糟糕，而且还是重复的。</text>
</g>
<!-- 37 -->
<g id="node38" class="node">
<title>37</title>
<ellipse fill="none" stroke="black" cx="3447" cy="-1746" rx="460.8" ry="18"/>
<text text-anchor="middle" x="3447" y="-1740.95" font-family="Times New Roman,serif" font-size="14.00">Man from Hjelmdall and the Devil Woman: 你对文学到底有多少了解，你这辈子到底看过书没有？</text>
</g>
<!-- 10&#45;&gt;37 -->
<g id="edge12" class="edge">
<title>10&#45;&gt;37</title>
<path fill="none" stroke="black" d="M4387.98,-1187.54C4316.05,-1204.94 4239,-1240.5 4239,-1313 4239,-1603 4239,-1603 4239,-1603 4239,-1662.68 3886.08,-1705.96 3651.42,-1728.14"/>
<polygon fill="black" stroke="black" points="3651.12,-1724.65 3641.49,-1729.07 3651.78,-1731.62 3651.12,-1724.65"/>
</g>
<!-- 11 -->
<g id="node12" class="node">
<title>11</title>
<ellipse fill="none" stroke="black" cx="3627" cy="-522" rx="133.24" ry="18"/>
<text text-anchor="middle" x="3627" y="-516.95" font-family="Times New Roman,serif" font-size="14.00">You: 我们给它个机会……</text>
</g>
<!-- 16 -->
<g id="node17" class="node">
<title>16</title>
<ellipse fill="none" stroke="black" cx="3627" cy="-450" rx="602.06" ry="18"/>
<text text-anchor="middle" x="3627" y="-444.95" font-family="Times New Roman,serif" font-size="14.00">Man from Hjelmdall and the Devil Woman: 书页的边缘残破又肮脏。很多人看过魔女和来自赫姆达尔的男人之间的争执片段。</text>
</g>
<!-- 11&#45;&gt;16 -->
<g id="edge13" class="edge">
<title>11&#45;&gt;16</title>
<path fill="none" stroke="black" d="M3627,-503.7C3627,-496.41 3627,-487.73 3627,-479.54"/>
<polygon fill="black" stroke="black" points="3630.5,-479.62 3627,-469.62 3623.5,-479.62 3630.5,-479.62"/>
</g>
<!-- 12&#45;&gt;29 -->
<g id="edge14" class="edge">
<title>12&#45;&gt;29</title>
<path fill="none" stroke="black" d="M1480,-143.7C1480,-136.41 1480,-127.73 1480,-119.54"/>
<polygon fill="black" stroke="black" points="1483.5,-119.62 1480,-109.62 1476.5,-119.62 1483.5,-119.62"/>
</g>
<!-- 13 -->
<g id="node14" class="node">
<title>13</title>
<ellipse fill="none" stroke="black" cx="1480" cy="-306" rx="1182.96" ry="18"/>
<text text-anchor="middle" x="1480" y="-300.95" font-family="Times New Roman,serif" font-size="14.00">Man from Hjelmdall and the Devil Woman: 封皮上写着：“来自赫姆达尔的男人，带着最激动人心的冒险回归了！闯入一片怪异的丛林后，食人土著绑架了他唯一幸存的伙伴，忠诚的提尔巴德。来自赫姆达尔的男人还没来得及展开救援……”</text>
</g>
<!-- 13&#45;&gt;4 -->
<g id="edge15" class="edge">
<title>13&#45;&gt;4</title>
<path fill="none" stroke="black" d="M1480,-287.7C1480,-280.41 1480,-271.73 1480,-263.54"/>
<polygon fill="black" stroke="black" points="1483.5,-263.62 1480,-253.62 1476.5,-263.62 1483.5,-263.62"/>
</g>
<!-- 43 -->
<g id="node44" class="node">
<title>43</title>
<ellipse fill="none" stroke="black" cx="2656" cy="-1530" rx="1548.39" ry="18"/>
<text text-anchor="middle" x="2656" y="-1524.95" font-family="Times New Roman,serif" font-size="14.00">Man from Hjelmdall and the Devil Woman: “‘我为你准备了一个宏伟的计划，来自赫姆达尔的男人。’她伸出恶魔之手，朝着一大堆药剂和油膏比了个手势。‘首先你要取悦我，然后带领我的军队去跟邪恶的食人族战斗。’来自赫姆达尔的男人的面部毫无波澜，不过内心却在骚动——这违反了他奉若神明的一切。”</text>
</g>
<!-- 14&#45;&gt;43 -->
<g id="edge16" class="edge">
<title>14&#45;&gt;43</title>
<path fill="none" stroke="black" d="M2656,-1583.7C2656,-1576.41 2656,-1567.73 2656,-1559.54"/>
<polygon fill="black" stroke="black" points="2659.5,-1559.62 2656,-1549.62 2652.5,-1559.62 2659.5,-1559.62"/>
</g>
<!-- 17 -->
<g id="node18" class="node">
<title>17</title>
<ellipse fill="none" stroke="black" cx="1480" cy="-450" rx="1072.92" ry="18"/>
<text text-anchor="middle" x="1480" y="-444.95" font-family="Times New Roman,serif" font-size="14.00">Man from Hjelmdall and the Devil Woman: 狂战士的怒火在他天蓝色的眼睛里熊熊燃烧，他给已经逝去许久的赫姆达尔村庄部落带去了光辉与荣耀。乳白色的巨人像冰熊一样咆哮，卡特拉的狂风大声呼喊出它的名字。</text>
</g>
<!-- 15&#45;&gt;17 -->
<g id="edge17" class="edge">
<title>15&#45;&gt;17</title>
<path fill="none" stroke="black" d="M1720.67,-504.14C1675.38,-494.14 1617.73,-481.41 1570.2,-470.92"/>
<polygon fill="black" stroke="black" points="1570.98,-467.51 1560.46,-468.77 1569.47,-474.34 1570.98,-467.51"/>
</g>
<!-- 42 -->
<g id="node43" class="node">
<title>42</title>
<ellipse fill="none" stroke="black" cx="3157" cy="-738" rx="43.16" ry="18"/>
<text text-anchor="middle" x="3157" y="-732.95" font-family="Times New Roman,serif" font-size="14.00">bookhub</text>
</g>
<!-- 16&#45;&gt;42 -->
<g id="edge18" class="edge">
<title>16&#45;&gt;42</title>
<path fill="none" stroke="black" d="M3214.19,-463.47C2908.48,-482.44 2528.31,-529.86 2428,-648 2417.64,-660.2 2417.1,-672.28 2428,-684 2473.68,-733.12 2941.14,-737.25 3102.55,-737.21"/>
<polygon fill="black" stroke="black" points="3102.12,-740.71 3112.12,-737.2 3102.11,-733.71 3102.12,-740.71"/>
</g>
<!-- 17&#45;&gt;1 -->
<g id="edge19" class="edge">
<title>17&#45;&gt;1</title>
<path fill="none" stroke="black" d="M1477.76,-468.31C1475.92,-486.44 1474.45,-515.59 1480,-540 1501.78,-635.79 1562.09,-737.29 1591.89,-783.46"/>
<polygon fill="black" stroke="black" points="1588.87,-785.24 1597.27,-791.7 1594.73,-781.41 1588.87,-785.24"/>
</g>
<!-- 18 -->
<g id="node19" class="node">
<title>18</title>
<ellipse fill="none" stroke="black" cx="1480" cy="-378" rx="1452.17" ry="18"/>
<text text-anchor="middle" x="1480" y="-372.95" font-family="Times New Roman,serif" font-size="14.00">Man from Hjelmdall and the Devil Woman: 有一个段落是这么写的：“来自赫姆达尔的男人抬起头，蓝色的眼睛宛如故土山中的湖泊。他很少说话，但是此时此刻，他的声音在黑暗的王宫大殿里轰鸣：‘别想吸干我的阳气，你这个邪恶的妖妇！赫姆达尔的子孙永远不会屈服于你诱人的诡计。’”</text>
</g>
<!-- 17&#45;&gt;18 -->
<g id="edge20" class="edge">
<title>17&#45;&gt;18</title>
<path fill="none" stroke="black" d="M1480,-431.7C1480,-424.41 1480,-415.73 1480,-407.54"/>
<polygon fill="black" stroke="black" points="1483.5,-407.62 1480,-397.62 1476.5,-407.62 1483.5,-407.62"/>
</g>
<!-- 18&#45;&gt;13 -->
<g id="edge21" class="edge">
<title>18&#45;&gt;13</title>
<path fill="none" stroke="black" d="M1480,-359.7C1480,-352.41 1480,-343.73 1480,-335.54"/>
<polygon fill="black" stroke="black" points="1483.5,-335.62 1480,-325.62 1476.5,-335.62 1483.5,-335.62"/>
</g>
<!-- 19 -->
<g id="node20" class="node">
<title>19</title>
<ellipse fill="none" stroke="black" cx="2582" cy="-1026" rx="102.02" ry="18"/>
<text text-anchor="middle" x="2582" y="-1020.95" font-family="Times New Roman,serif" font-size="14.00">You: 再接着看看！</text>
</g>
<!-- 44 -->
<g id="node45" class="node">
<title>44</title>
<ellipse fill="none" stroke="black" cx="2487" cy="-882" rx="978.75" ry="18"/>
<text text-anchor="middle" x="2487" y="-876.95" font-family="Times New Roman,serif" font-size="14.00">Man from Hjelmdall and the Devil Woman: 来自赫姆达尔的男人骑上一头镀金的格里芬，金色的鬓毛在微风中飘扬。两把双手剑都挂在他的背后，他要奔赴战场。他能否征服敌人？他能否战胜自己？</text>
</g>
<!-- 19&#45;&gt;44 -->
<g id="edge22" class="edge">
<title>19&#45;&gt;44</title>
<path fill="none" stroke="black" d="M2570.54,-1007.87C2554.21,-983.46 2524.08,-938.43 2504.82,-909.64"/>
<polygon fill="black" stroke="black" points="2507.81,-907.81 2499.34,-901.45 2501.99,-911.7 2507.81,-907.81"/>
</g>
<!-- 20 -->
<g id="node21" class="node">
<title>20</title>
<ellipse fill="none" stroke="black" cx="4046" cy="-1314" rx="160.88" ry="18"/>
<text text-anchor="middle" x="4046" y="-1308.95" font-family="Times New Roman,serif" font-size="14.00">You: 我受够了。（合上书。）</text>
</g>
<!-- 30 -->
<g id="node31" class="node">
<title>30</title>
<ellipse fill="none" stroke="black" cx="4071" cy="-1242" rx="37.02" ry="18"/>
<text text-anchor="middle" x="4071" y="-1236.95" font-family="Times New Roman,serif" font-size="14.00">failhub</text>
</g>
<!-- 20&#45;&gt;30 -->
<g id="edge23" class="edge">
<title>20&#45;&gt;30</title>
<path fill="none" stroke="black" d="M4052.18,-1295.7C4054.87,-1288.15 4058.1,-1279.12 4061.11,-1270.68"/>
<polygon fill="black" stroke="black" points="4064.31,-1272.12 4064.38,-1261.53 4057.72,-1269.77 4064.31,-1272.12"/>
</g>
<!-- 21 -->
<g id="node22" class="node">
<title>21</title>
<ellipse fill="none" stroke="black" cx="3627" cy="-666" rx="1190.12" ry="18"/>
<text text-anchor="middle" x="3627" y="-660.95" font-family="Times New Roman,serif" font-size="14.00">Man from Hjelmdall and the Devil Woman: 在这本书的最后几页，来自赫姆达尔的男人骑上了加拉沃恩——他那头威风的格里芬——并将目光投向远方。莉迪亚女王已逝，但食人族的大军仍在冲击城门，还是没有任何关于提尔巴德的消息……</text>
</g>
<!-- 25 -->
<g id="node26" class="node">
<title>25</title>
<ellipse fill="none" stroke="black" cx="3627" cy="-594" rx="400.92" ry="18"/>
<text text-anchor="middle" x="3627" y="-588.95" font-family="Times New Roman,serif" font-size="14.00">Rhetoric: 天啦，这玩意简直是文学的退化。这些鬼东西是什么时候写出来的？</text>
</g>
<!-- 21&#45;&gt;25 -->
<g id="edge24" class="edge">
<title>21&#45;&gt;25</title>
<path fill="none" stroke="black" d="M3627,-647.7C3627,-640.41 3627,-631.73 3627,-623.54"/>
<polygon fill="black" stroke="black" points="3630.5,-623.62 3627,-613.62 3623.5,-623.62 3630.5,-623.62"/>
</g>
<!-- 39 -->
<g id="node40" class="node">
<title>39</title>
<ellipse fill="none" stroke="black" cx="3893" cy="-1026" rx="919.89" ry="18"/>
<text text-anchor="middle" x="3893" y="-1020.95" font-family="Times New Roman,serif" font-size="14.00">Man from Hjelmdall and the Devil Woman: 你随便翻开了这本书的某一页。来自赫姆达尔的男人正挥舞着两把双手大剑，在蛮族的人山人海中浴血奋战，他的表情坚定，满是不屈的决心。</text>
</g>
<!-- 22&#45;&gt;39 -->
<g id="edge25" class="edge">
<title>22&#45;&gt;39</title>
<path fill="none" stroke="black" d="M3889.99,-1079.7C3890.41,-1072.41 3890.9,-1063.73 3891.37,-1055.54"/>
<polygon fill="black" stroke="black" points="3894.86,-1055.8 3891.94,-1045.62 3887.87,-1055.4 3894.86,-1055.8"/>
</g>
<!-- 23 -->
<g id="node24" class="node">
<title>23</title>
<ellipse fill="none" stroke="black" cx="1080" cy="-1098" rx="372.26" ry="18"/>
<text text-anchor="middle" x="1080" y="-1092.95" font-family="Times New Roman,serif" font-size="14.00">Jump to: [Man from Hjelmdall and the Devil Woman: &quot;The edges of the pages are worn and...&quot;]</text>
</g>
<!-- 23&#45;&gt;15 -->
<g id="edge26" class="edge">
<title>23&#45;&gt;15</title>
<path fill="none" stroke="black" d="M1135.29,-1079.79C1188.52,-1059.38 1261,-1019.7 1261,-955 1261,-955 1261,-955 1261,-665 1261,-591.91 1449.6,-555.56 1603.05,-538.09"/>
<polygon fill="black" stroke="black" points="1602.98,-541.62 1612.53,-537.03 1602.21,-534.66 1602.98,-541.62"/>
</g>
<!-- 24 -->
<g id="node25" class="node">
<title>24</title>
<ellipse fill="none" stroke="black" cx="2220" cy="-18" rx="372.26" ry="18"/>
<text text-anchor="middle" x="2220" y="-12.95" font-family="Times New Roman,serif" font-size="14.00">Jump to: [Man from Hjelmdall and the Devil Woman: &quot;The edges of the pages are worn and...&quot;]</text>
</g>
<!-- 24&#45;&gt;15 -->
<g id="edge27" class="edge">
<title>24&#45;&gt;15</title>
<path fill="none" stroke="black" d="M2386.53,-34.54C2604.75,-57.2 2960,-102.99 2960,-161 2960,-379 2960,-379 2960,-379 2960,-466.83 2430.68,-500.78 2086.24,-513.58"/>
<polygon fill="black" stroke="black" points="2086.21,-510.08 2076.34,-513.94 2086.46,-517.07 2086.21,-510.08"/>
</g>
<!-- 25&#45;&gt;11 -->
<g id="edge28" class="edge">
<title>25&#45;&gt;11</title>
<path fill="none" stroke="black" d="M3627,-575.7C3627,-568.41 3627,-559.73 3627,-551.54"/>
<polygon fill="black" stroke="black" points="3630.5,-551.62 3627,-541.62 3623.5,-551.62 3630.5,-551.62"/>
</g>
<!-- 26 -->
<g id="node27" class="node">
<title>26</title>
<ellipse fill="none" stroke="black" cx="4150" cy="-882" rx="666.54" ry="18"/>
<text text-anchor="middle" x="4150" y="-876.95" font-family="Times New Roman,serif" font-size="14.00">Man from Hjelmdall and the Devil Woman: 欲知后事如何，请购买“来自赫姆达尔的男人与三眼骷髅”，39年春季，所有精品书店正式发售。</text>
</g>
<!-- 46 -->
<g id="node47" class="node">
<title>46</title>
<ellipse fill="none" stroke="black" cx="3506" cy="-810" rx="84.62" ry="18"/>
<text text-anchor="middle" x="3506" y="-804.95" font-family="Times New Roman,serif" font-size="14.00">Jump to: [bookhub]</text>
</g>
<!-- 26&#45;&gt;46 -->
<g id="edge29" class="edge">
<title>26&#45;&gt;46</title>
<path fill="none" stroke="black" d="M3994.11,-864.05C3867.45,-850.29 3693.57,-831.39 3591.17,-820.26"/>
<polygon fill="black" stroke="black" points="3591.79,-816.8 3581.47,-819.2 3591.03,-823.76 3591.79,-816.8"/>
</g>
<!-- 27 -->
<g id="node28" class="node">
<title>27</title>
<ellipse fill="none" stroke="black" cx="5974" cy="-954" rx="166.51" ry="18"/>
<text text-anchor="middle" x="5974" y="-948.95" font-family="Times New Roman,serif" font-size="14.00">IsTHCPresent(&quot;revacholian_nationhood&quot;)</text>
</g>
<!-- 27&#45;&gt;27 -->
<g id="edge30" class="edge">
<title>27&#45;&gt;27</title>
<path fill="none" stroke="black" d="M6087.96,-967.5C6127.03,-967.6 6158.51,-963.11 6158.51,-954 6158.51,-945.78 6132.88,-941.32 6099.17,-940.6"/>
<polygon fill="black" stroke="black" points="6099.51,-937.11 6089.48,-940.52 6099.44,-944.11 6099.51,-937.11"/>
</g>
<!-- 28 -->
<g id="node29" class="node">
<title>28</title>
<polygon fill="none" stroke="black" points="5974,-900 5738.52,-882 5974,-864 6209.48,-882 5974,-900"/>
<text text-anchor="middle" x="5974" y="-876.95" font-family="Times New Roman,serif" font-size="14.00">IsTHCPresent(&quot;revacholian_nationhood&quot;)</text>
</g>
<!-- 27&#45;&gt;28 -->
<g id="edge31" class="edge">
<title>27&#45;&gt;28</title>
<path fill="none" stroke="black" d="M5974,-935.7C5974,-928.41 5974,-919.73 5974,-911.54"/>
<polygon fill="black" stroke="black" points="5977.5,-911.62 5974,-901.62 5970.5,-911.62 5977.5,-911.62"/>
</g>
<!-- 28&#45;&gt;5 -->
<g id="edge32" class="edge">
<title>28&#45;&gt;5</title>
<path fill="none" stroke="black" d="M5974,-863.7C5974,-856.41 5974,-847.73 5974,-839.54"/>
<polygon fill="black" stroke="black" points="5977.5,-839.62 5974,-829.62 5970.5,-839.62 5977.5,-839.62"/>
</g>
<!-- 29&#45;&gt;24 -->
<g id="edge33" class="edge">
<title>29&#45;&gt;24</title>
<path fill="none" stroke="black" d="M1584.45,-79.12C1703.85,-67.82 1901.22,-49.15 2044.38,-35.61"/>
<polygon fill="black" stroke="black" points="2044.32,-39.13 2053.95,-34.71 2043.66,-32.16 2044.32,-39.13"/>
</g>
<!-- 30&#45;&gt;2 -->
<g id="edge36" class="edge">
<title>30&#45;&gt;2</title>
<path fill="none" stroke="black" d="M4040.06,-1231.7C4005.75,-1221.4 3949.38,-1204.46 3904.88,-1191.09"/>
<polygon fill="black" stroke="black" points="3906.17,-1187.83 3895.59,-1188.3 3904.16,-1194.53 3906.17,-1187.83"/>
</g>
<!-- 30&#45;&gt;10 -->
<g id="edge35" class="edge">
<title>30&#45;&gt;10</title>
<path fill="none" stroke="black" d="M4105.81,-1235.45C4167.17,-1225.67 4297.13,-1204.94 4393.2,-1189.62"/>
<polygon fill="black" stroke="black" points="4393.63,-1193.1 4402.95,-1188.07 4392.52,-1186.19 4393.63,-1193.1"/>
</g>
<!-- 49 -->
<g id="node50" class="node">
<title>49</title>
<ellipse fill="none" stroke="black" cx="4533" cy="-1098" rx="207.96" ry="18"/>
<text text-anchor="middle" x="4533" y="-1092.95" font-family="Times New Roman,serif" font-size="14.00">You: 该死，真是坚忍不拔，英勇无畏。</text>
</g>
<!-- 30&#45;&gt;49 -->
<g id="edge34" class="edge">
<title>30&#45;&gt;49</title>
<path fill="none" stroke="black" d="M4072.39,-1223.85C4075.04,-1203.29 4082.73,-1169.44 4105,-1152 4139.83,-1124.71 4233.74,-1111.32 4324.74,-1104.82"/>
<polygon fill="black" stroke="black" points="4324.86,-1108.32 4334.6,-1104.14 4324.38,-1101.33 4324.86,-1108.32"/>
</g>
<!-- 31&#45;&gt;15 -->
<g id="edge37" class="edge">
<title>31&#45;&gt;15</title>
<path fill="none" stroke="black" d="M1748,-1296.05C1642.58,-1273.17 1480,-1228.56 1480,-1171 1480,-1171 1480,-1171 1480,-737 1480,-646.68 1529.01,-626.34 1604,-576 1626.5,-560.89 1653.21,-550.07 1679.47,-542.33"/>
<polygon fill="black" stroke="black" points="1680.15,-545.77 1688.83,-539.7 1678.26,-539.03 1680.15,-545.77"/>
</g>
<!-- 32 -->
<g id="node33" class="node">
<title>32</title>
<ellipse fill="none" stroke="black" cx="5393" cy="-666" rx="519.66" ry="18"/>
<text text-anchor="middle" x="5393" y="-660.95" font-family="Times New Roman,serif" font-size="14.00">Man from Hjelmdall and the Devil Woman: 来自赫姆达尔的男人没空搭理文盲。这本书跟你之间已经结束了。</text>
</g>
<!-- 32&#45;&gt;33 -->
<g id="edge38" class="edge">
<title>32&#45;&gt;33</title>
<path fill="none" stroke="black" d="M5623.12,-649.42C5837.19,-634.93 6147.29,-613.94 6312.8,-602.73"/>
<polygon fill="black" stroke="black" points="6312.72,-606.24 6322.46,-602.08 6312.25,-599.26 6312.72,-606.24"/>
</g>
<!-- 34 -->
<g id="node35" class="node">
<title>34</title>
<ellipse fill="none" stroke="black" cx="2648" cy="-810" rx="84.62" ry="18"/>
<text text-anchor="middle" x="2648" y="-804.95" font-family="Times New Roman,serif" font-size="14.00">Jump to: [bookhub]</text>
</g>
<!-- 34&#45;&gt;42 -->
<g id="edge39" class="edge">
<title>34&#45;&gt;42</title>
<path fill="none" stroke="black" d="M2717.71,-799.41C2821.23,-785.18 3013.28,-758.77 3105.26,-746.12"/>
<polygon fill="black" stroke="black" points="3105.57,-749.61 3115,-744.78 3104.62,-742.67 3105.57,-749.61"/>
</g>
<!-- 35&#45;&gt;7 -->
<g id="edge40" class="edge">
<title>35&#45;&gt;7</title>
<path fill="none" stroke="black" d="M6248.38,-722.33C6280.75,-712.3 6324.12,-698.86 6360.02,-687.75"/>
<polygon fill="black" stroke="black" points="6360.94,-691.12 6369.46,-684.82 6358.87,-684.44 6360.94,-691.12"/>
</g>
<!-- 36 -->
<g id="node37" class="node">
<title>36</title>
<ellipse fill="none" stroke="black" cx="3157" cy="-810" rx="84.62" ry="18"/>
<text text-anchor="middle" x="3157" y="-804.95" font-family="Times New Roman,serif" font-size="14.00">Jump to: [bookhub]</text>
</g>
<!-- 36&#45;&gt;42 -->
<g id="edge41" class="edge">
<title>36&#45;&gt;42</title>
<path fill="none" stroke="black" d="M3157,-791.7C3157,-784.41 3157,-775.73 3157,-767.54"/>
<polygon fill="black" stroke="black" points="3160.5,-767.62 3157,-757.62 3153.5,-767.62 3160.5,-767.62"/>
</g>
<!-- 37&#45;&gt;8 -->
<g id="edge43" class="edge">
<title>37&#45;&gt;8</title>
<path fill="none" stroke="black" d="M3266.02,-1728.98C3145.17,-1718.29 2986,-1704.2 2860.55,-1693.1"/>
<polygon fill="black" stroke="black" points="2861.07,-1689.63 2850.8,-1692.24 2860.45,-1696.61 2861.07,-1689.63"/>
</g>
<!-- 40 -->
<g id="node41" class="node">
<title>40</title>
<ellipse fill="none" stroke="black" cx="5052" cy="-1674" rx="102.02" ry="18"/>
<text text-anchor="middle" x="5052" y="-1668.95" font-family="Times New Roman,serif" font-size="14.00">You: 我当然有了。</text>
</g>
<!-- 37&#45;&gt;40 -->
<g id="edge42" class="edge">
<title>37&#45;&gt;40</title>
<path fill="none" stroke="black" d="M3746.54,-1731.94C4108.63,-1716.14 4699.6,-1690.37 4942.49,-1679.78"/>
<polygon fill="black" stroke="black" points="4942.44,-1683.28 4952.28,-1679.35 4942.14,-1676.29 4942.44,-1683.28"/>
</g>
<!-- 45 -->
<g id="node46" class="node">
<title>45</title>
<ellipse fill="none" stroke="black" cx="985" cy="-1674" rx="325.68" ry="18"/>
<text text-anchor="middle" x="985" y="-1668.95" font-family="Times New Roman,serif" font-size="14.00">You: 不好意思，我对批判性分析还是略知一二的。还有艺术。</text>
</g>
<!-- 37&#45;&gt;45 -->
<g id="edge44" class="edge">
<title>37&#45;&gt;45</title>
<path fill="none" stroke="black" d="M3122.44,-1732.86C3073.7,-1731.15 3024.03,-1729.48 2977,-1728 2657.37,-1717.97 1760.52,-1694.78 1286.84,-1682.68"/>
<polygon fill="black" stroke="black" points="1286.99,-1679.18 1276.9,-1682.42 1286.81,-1686.18 1286.99,-1679.18"/>
</g>
<!-- 38&#45;&gt;23 -->
<g id="edge45" class="edge">
<title>38&#45;&gt;23</title>
<path fill="none" stroke="black" d="M1107.12,-1583.83C1097.18,-1557.44 1080,-1505.14 1080,-1459 1080,-1459 1080,-1459 1080,-1241 1080,-1201.74 1080,-1156.38 1080,-1127.69"/>
<polygon fill="black" stroke="black" points="1083.5,-1128 1080,-1118 1076.5,-1128 1083.5,-1128"/>
</g>
<!-- 47 -->
<g id="node48" class="node">
<title>47</title>
<ellipse fill="none" stroke="black" cx="4023" cy="-954" rx="625.6" ry="18"/>
<text text-anchor="middle" x="4023" y="-948.95" font-family="Times New Roman,serif" font-size="14.00">Man from Hjelmdall and the Devil Woman: 他的胳膊像风車一样挥舞着，上面沾满了敌人的鲜血。严重损毁的尸体散落在战场上。</text>
</g>
<!-- 39&#45;&gt;47 -->
<g id="edge46" class="edge">
<title>39&#45;&gt;47</title>
<path fill="none" stroke="black" d="M3925.47,-1007.52C3942.27,-998.47 3962.98,-987.32 3980.98,-977.62"/>
<polygon fill="black" stroke="black" points="3982.47,-980.8 3989.61,-972.98 3979.15,-974.64 3982.47,-980.8"/>
</g>
<!-- 51 -->
<g id="node52" class="node">
<title>51</title>
<ellipse fill="none" stroke="black" cx="6761" cy="-1458" rx="578.51" ry="18"/>
<text text-anchor="middle" x="6761" y="-1452.95" font-family="Times New Roman,serif" font-size="14.00">Man from Hjelmdall and the Devil Woman: 这不是普通的书。这是来自赫姆达尔的男人。而且它跟你已经没什么好说了。</text>
</g>
<!-- 40&#45;&gt;51 -->
<g id="edge47" class="edge">
<title>40&#45;&gt;51</title>
<path fill="none" stroke="black" d="M5133.28,-1662.82C5402.34,-1629.13 6266.68,-1520.9 6614.24,-1477.38"/>
<polygon fill="black" stroke="black" points="6614.64,-1480.85 6624.13,-1476.14 6613.77,-1473.91 6614.64,-1480.85"/>
</g>
<!-- 41 -->
<g id="node42" class="node">
<title>41</title>
<ellipse fill="none" stroke="black" cx="2614" cy="-1458" rx="210.01" ry="18"/>
<text text-anchor="middle" x="2614" y="-1452.95" font-family="Times New Roman,serif" font-size="14.00">Conceptualization: *这个*已经超出原始了。</text>
</g>
<!-- 41&#45;&gt;9 -->
<g id="edge48" class="edge">
<title>41&#45;&gt;9</title>
<path fill="none" stroke="black" d="M2511.09,-1441.9C2430,-1430 2317.6,-1413.5 2237.22,-1401.71"/>
<polygon fill="black" stroke="black" points="2237.99,-1398.28 2227.59,-1400.29 2236.98,-1405.21 2237.99,-1398.28"/>
</g>
<!-- 41&#45;&gt;19 -->
<g id="edge50" class="edge">
<title>41&#45;&gt;19</title>
<path fill="none" stroke="black" d="M2611.77,-1439.55C2608.56,-1412.79 2603,-1360 2603,-1315 2603,-1315 2603,-1315 2603,-1169 2603,-1129.31 2594.87,-1084.05 2588.73,-1055.51"/>
<polygon fill="black" stroke="black" points="2592.17,-1054.84 2586.58,-1045.84 2585.34,-1056.37 2592.17,-1054.84"/>
</g>
<!-- 50 -->
<g id="node51" class="node">
<title>50</title>
<ellipse fill="none" stroke="black" cx="3430" cy="-1386" rx="168.56" ry="18"/>
<text text-anchor="middle" x="3430" y="-1380.95" font-family="Times New Roman,serif" font-size="14.00">You: 哇哦……这真是一部史诗！</text>
</g>
<!-- 41&#45;&gt;50 -->
<g id="edge49" class="edge">
<title>41&#45;&gt;50</title>
<path fill="none" stroke="black" d="M2758.47,-1444.61C2908.6,-1431.73 3141.92,-1411.71 3290.27,-1398.99"/>
<polygon fill="black" stroke="black" points="3290.51,-1402.48 3300.18,-1398.14 3289.91,-1395.5 3290.51,-1402.48"/>
</g>
<!-- 42&#45;&gt;3 -->
<g id="edge52" class="edge">
<title>42&#45;&gt;3</title>
<path fill="none" stroke="black" d="M3114.5,-734.15C2971.33,-724.54 2502.2,-693.05 2260.64,-676.84"/>
<polygon fill="black" stroke="black" points="2261.03,-673.36 2250.82,-676.18 2260.56,-680.34 2261.03,-673.36"/>
</g>
<!-- 42&#45;&gt;21 -->
<g id="edge53" class="edge">
<title>42&#45;&gt;21</title>
<path fill="none" stroke="black" d="M3197.07,-731.03C3263.19,-721.18 3397.87,-701.13 3498.97,-686.07"/>
<polygon fill="black" stroke="black" points="3499.32,-689.56 3508.69,-684.62 3498.28,-682.63 3499.32,-689.56"/>
</g>
<!-- 42&#45;&gt;32 -->
<g id="edge51" class="edge">
<title>42&#45;&gt;32</title>
<path fill="none" stroke="black" d="M3200.17,-735.65C3421.13,-728.73 4437.33,-696.92 5005.58,-679.13"/>
<polygon fill="black" stroke="black" points="5005.44,-682.63 5015.32,-678.82 5005.22,-675.64 5005.44,-682.63"/>
</g>
<!-- 43&#45;&gt;41 -->
<g id="edge54" class="edge">
<title>43&#45;&gt;41</title>
<path fill="none" stroke="black" d="M2645.62,-1511.7C2640.94,-1503.9 2635.31,-1494.51 2630.1,-1485.83"/>
<polygon fill="black" stroke="black" points="2633.19,-1484.18 2625.04,-1477.4 2627.19,-1487.78 2633.19,-1484.18"/>
</g>
<!-- 44&#45;&gt;1 -->
<g id="edge55" class="edge">
<title>44&#45;&gt;1</title>
<path fill="none" stroke="black" d="M2273.34,-863.97C2063.45,-847.23 1759.27,-822.98 1650,-814.27"/>
<polygon fill="black" stroke="black" points="1650.3,-810.78 1640.06,-813.48 1649.75,-817.76 1650.3,-810.78"/>
</g>
<!-- 44&#45;&gt;34 -->
<g id="edge56" class="edge">
<title>44&#45;&gt;34</title>
<path fill="none" stroke="black" d="M2527.21,-863.52C2549.75,-853.72 2577.96,-841.45 2601.44,-831.24"/>
<polygon fill="black" stroke="black" points="2602.7,-834.51 2610.48,-827.31 2599.91,-828.09 2602.7,-834.51"/>
</g>
<!-- 45&#45;&gt;6 -->
<g id="edge57" class="edge">
<title>45&#45;&gt;6</title>
<path fill="none" stroke="black" d="M900.27,-1656.19C796.69,-1633.15 635,-1588.05 635,-1531 635,-1531 635,-1531 635,-1385 635,-1316.33 562.22,-1280.35 495.83,-1261.82"/>
<polygon fill="black" stroke="black" points="496.84,-1258.47 486.28,-1259.27 495.04,-1265.23 496.84,-1258.47"/>
</g>
<!-- 46&#45;&gt;42 -->
<g id="edge58" class="edge">
<title>46&#45;&gt;42</title>
<path fill="none" stroke="black" d="M3446,-796.97C3378.3,-783.39 3269.43,-761.55 3206.42,-748.91"/>
<polygon fill="black" stroke="black" points="3207.19,-745.5 3196.69,-746.96 3205.81,-752.36 3207.19,-745.5"/>
</g>
<!-- 47&#45;&gt;26 -->
<g id="edge59" class="edge">
<title>47&#45;&gt;26</title>
<path fill="none" stroke="black" d="M4054.39,-935.7C4070.73,-926.69 4090.91,-915.57 4108.51,-905.87"/>
<polygon fill="black" stroke="black" points="4110.13,-908.97 4117.2,-901.08 4106.75,-902.84 4110.13,-908.97"/>
</g>
<!-- 48&#45;&gt;15 -->
<g id="edge60" class="edge">
<title>48&#45;&gt;15</title>
<path fill="none" stroke="black" d="M1956.6,-575.7C1927.31,-566.03 1890.62,-553.91 1859.8,-543.74"/>
<polygon fill="black" stroke="black" points="1861.2,-540.51 1850.61,-540.7 1859,-547.16 1861.2,-540.51"/>
</g>
<!-- 49&#45;&gt;16 -->
<g id="edge61" class="edge">
<title>49&#45;&gt;16</title>
<path fill="none" stroke="black" d="M4678.72,-1084.82C4739.24,-1076.88 4800.39,-1064.12 4822,-1044 4851.9,-1016.16 4845,-995.86 4845,-955 4845,-955 4845,-955 4845,-593 4845,-513.42 4429.47,-478.36 4083.82,-462.96"/>
<polygon fill="black" stroke="black" points="4083.98,-459.46 4073.84,-462.52 4083.68,-466.46 4083.98,-459.46"/>
</g>
<!-- 50&#45;&gt;20 -->
<g id="edge62" class="edge">
<title>50&#45;&gt;20</title>
<path fill="none" stroke="black" d="M3542.27,-1372.24C3650.47,-1359.95 3813.69,-1341.4 3924.8,-1328.77"/>
<polygon fill="black" stroke="black" points="3925.01,-1332.27 3934.55,-1327.66 3924.22,-1325.32 3925.01,-1332.27"/>
</g>
<!-- 51&#45;&gt;33 -->
<g id="edge63" class="edge">
<title>51&#45;&gt;33</title>
<path fill="none" stroke="black" d="M6844.23,-1439.74C6945.46,-1416.3 7103,-1370.85 7103,-1315 7103,-1315 7103,-1315 7103,-737 7103,-625.67 6747.39,-601.13 6552.01,-596.06"/>
<polygon fill="black" stroke="black" points="6552.12,-592.56 6542.04,-595.81 6551.95,-599.55 6552.12,-592.56"/>
</g>
</g>
</svg>
