<?xml version="1.0" encoding="UTF-8" standalone="no"?>
<!DOCTYPE svg PUBLIC "-//W3C//DTD SVG 1.1//EN"
 "http://www.w3.org/Graphics/SVG/1.1/DTD/svg11.dtd">
<!-- Generated by graphviz version 12.2.1 (20241206.2353)
 -->
<!-- Title: G Pages: 1 -->
<svg width="2472pt" height="1844pt"
 viewBox="0.00 0.00 2472.10 1844.00" xmlns="http://www.w3.org/2000/svg" xmlns:xlink="http://www.w3.org/1999/xlink">
<g id="graph0" class="graph" transform="scale(1 1) rotate(0) translate(4 1840)">
<title>G</title>
<polygon fill="white" stroke="none" points="-4,4 -4,-1840 2468.1,-1840 2468.1,4 -4,4"/>
<!-- 0 -->
<g id="node1" class="node">
<title>0</title>
<ellipse fill="none" stroke="black" cx="1362.99" cy="-1818" rx="39.07" ry="18"/>
<text text-anchor="middle" x="1362.99" y="-1812.95" font-family="Times New Roman,serif" font-size="14.00">START</text>
</g>
<!-- 1 -->
<g id="node2" class="node">
<title>1</title>
<ellipse fill="none" stroke="black" cx="1362.99" cy="-1746" rx="29.86" ry="18"/>
<text text-anchor="middle" x="1362.99" y="-1740.95" font-family="Times New Roman,serif" font-size="14.00">input</text>
</g>
<!-- 0&#45;&gt;1 -->
<g id="edge1" class="edge">
<title>0&#45;&gt;1</title>
<path fill="none" stroke="black" d="M1362.99,-1799.7C1362.99,-1792.41 1362.99,-1783.73 1362.99,-1775.54"/>
<polygon fill="black" stroke="black" points="1366.49,-1775.62 1362.99,-1765.62 1359.49,-1775.62 1366.49,-1775.62"/>
</g>
<!-- 3 -->
<g id="node4" class="node">
<title>3</title>
<ellipse fill="none" stroke="black" cx="1362.99" cy="-1674" rx="365.6" ry="18"/>
<text text-anchor="middle" x="1362.99" y="-1668.95" font-family="Times New Roman,serif" font-size="14.00">Filthy Jacket: 当你把它拿在手里的时候，它发出了一阵不安的嘎吱声……</text>
</g>
<!-- 1&#45;&gt;3 -->
<g id="edge2" class="edge">
<title>1&#45;&gt;3</title>
<path fill="none" stroke="black" d="M1362.99,-1727.7C1362.99,-1720.41 1362.99,-1711.73 1362.99,-1703.54"/>
<polygon fill="black" stroke="black" points="1366.49,-1703.62 1362.99,-1693.62 1359.49,-1703.62 1366.49,-1703.62"/>
</g>
<!-- 2 -->
<g id="node3" class="node">
<title>2</title>
<ellipse fill="none" stroke="black" cx="831.99" cy="-1602" rx="207.96" ry="18"/>
<text text-anchor="middle" x="831.99" y="-1596.95" font-family="Times New Roman,serif" font-size="14.00">You: 我为什么又开始摸这件脏夹克了？</text>
</g>
<!-- 16 -->
<g id="node17" class="node">
<title>16</title>
<ellipse fill="none" stroke="black" cx="793.99" cy="-1530" rx="134.26" ry="18"/>
<text text-anchor="middle" x="793.99" y="-1524.95" font-family="Times New Roman,serif" font-size="14.00">Filthy Jacket: 没有为什么。</text>
</g>
<!-- 2&#45;&gt;16 -->
<g id="edge3" class="edge">
<title>2&#45;&gt;16</title>
<path fill="none" stroke="black" d="M822.6,-1583.7C818.41,-1575.98 813.38,-1566.71 808.71,-1558.11"/>
<polygon fill="black" stroke="black" points="811.85,-1556.55 804,-1549.43 805.7,-1559.89 811.85,-1556.55"/>
</g>
<!-- 3&#45;&gt;2 -->
<g id="edge5" class="edge">
<title>3&#45;&gt;2</title>
<path fill="none" stroke="black" d="M1238.83,-1656.63C1153.03,-1645.32 1039.44,-1630.35 954.09,-1619.1"/>
<polygon fill="black" stroke="black" points="954.64,-1615.64 944.27,-1617.8 953.73,-1622.58 954.64,-1615.64"/>
</g>
<!-- 23 -->
<g id="node24" class="node">
<title>23</title>
<ellipse fill="none" stroke="black" cx="1362.99" cy="-1602" rx="266.82" ry="18"/>
<text text-anchor="middle" x="1362.99" y="-1596.95" font-family="Times New Roman,serif" font-size="14.00">You: 天啦，这件夹克怎么会变成这么恶心的样子？</text>
</g>
<!-- 3&#45;&gt;23 -->
<g id="edge6" class="edge">
<title>3&#45;&gt;23</title>
<path fill="none" stroke="black" d="M1362.99,-1655.7C1362.99,-1648.41 1362.99,-1639.73 1362.99,-1631.54"/>
<polygon fill="black" stroke="black" points="1366.49,-1631.62 1362.99,-1621.62 1359.49,-1631.62 1366.49,-1631.62"/>
</g>
<!-- 32 -->
<g id="node33" class="node">
<title>32</title>
<ellipse fill="none" stroke="black" cx="1919.99" cy="-1602" rx="237.65" ry="18"/>
<text text-anchor="middle" x="1919.99" y="-1596.95" font-family="Times New Roman,serif" font-size="14.00">You: 现在还是别想了。[把脏夹克放在一边。]</text>
</g>
<!-- 3&#45;&gt;32 -->
<g id="edge4" class="edge">
<title>3&#45;&gt;32</title>
<path fill="none" stroke="black" d="M1492.53,-1656.72C1581.76,-1645.51 1699.91,-1630.66 1789.38,-1619.42"/>
<polygon fill="black" stroke="black" points="1789.71,-1622.9 1799.19,-1618.18 1788.83,-1615.96 1789.71,-1622.9"/>
</g>
<!-- 4 -->
<g id="node5" class="node">
<title>4</title>
<ellipse fill="none" stroke="black" cx="1359.99" cy="-1242" rx="217.18" ry="18"/>
<text text-anchor="middle" x="1359.99" y="-1236.95" font-family="Times New Roman,serif" font-size="14.00">You: 转念一想，我们*还是*思考一下吧。</text>
</g>
<!-- 13 -->
<g id="node14" class="node">
<title>13</title>
<ellipse fill="none" stroke="black" cx="1236.99" cy="-1170" rx="555.48" ry="18"/>
<text text-anchor="middle" x="1236.99" y="-1164.95" font-family="Times New Roman,serif" font-size="14.00">Filthy Jacket: 你突然想到自己手里*拿*的甚至都不是夹克本身，而是一层厚厚的沉料和海鸥粪便结成的外壳。</text>
</g>
<!-- 4&#45;&gt;13 -->
<g id="edge7" class="edge">
<title>4&#45;&gt;13</title>
<path fill="none" stroke="black" d="M1329.59,-1223.7C1313.77,-1214.69 1294.23,-1203.57 1277.18,-1193.87"/>
<polygon fill="black" stroke="black" points="1279.21,-1191 1268.79,-1189.1 1275.75,-1197.08 1279.21,-1191"/>
</g>
<!-- 5 -->
<g id="node6" class="node">
<title>5</title>
<ellipse fill="none" stroke="black" cx="815.99" cy="-810" rx="231.51" ry="18"/>
<text text-anchor="middle" x="815.99" y="-804.95" font-family="Times New Roman,serif" font-size="14.00">You: 有人把它放在栏杆上，之后怎么样了？</text>
</g>
<!-- 28 -->
<g id="node29" class="node">
<title>28</title>
<ellipse fill="none" stroke="black" cx="815.99" cy="-738" rx="463.87" ry="18"/>
<text text-anchor="middle" x="815.99" y="-732.95" font-family="Times New Roman,serif" font-size="14.00">Filthy Jacket: 外壳很坚硬。这件夹克至少在太阳底下晒了一天。谁知道后来发生了什么事？</text>
</g>
<!-- 5&#45;&gt;28 -->
<g id="edge8" class="edge">
<title>5&#45;&gt;28</title>
<path fill="none" stroke="black" d="M815.99,-791.7C815.99,-784.41 815.99,-775.73 815.99,-767.54"/>
<polygon fill="black" stroke="black" points="819.49,-767.62 815.99,-757.62 812.49,-767.62 819.49,-767.62"/>
</g>
<!-- 6 -->
<g id="node7" class="node">
<title>6</title>
<ellipse fill="none" stroke="black" cx="663.99" cy="-306" rx="488.44" ry="18"/>
<text text-anchor="middle" x="663.99" y="-300.95" font-family="Times New Roman,serif" font-size="14.00">Shivers: *啪嗒*。一枚白色炸弹在男人的鞋子上爆炸。一阵咒骂声响起，但是鸟儿并没有听到。</text>
</g>
<!-- 14 -->
<g id="node15" class="node">
<title>14</title>
<ellipse fill="none" stroke="black" cx="347.99" cy="-234" rx="331.82" ry="18"/>
<text text-anchor="middle" x="347.99" y="-228.95" font-family="Times New Roman,serif" font-size="14.00">You: 我感觉自己现在已经理解这件夹克了。[把夹克放在一边。]</text>
</g>
<!-- 6&#45;&gt;14 -->
<g id="edge9" class="edge">
<title>6&#45;&gt;14</title>
<path fill="none" stroke="black" d="M586.29,-287.79C540.69,-277.69 482.95,-264.9 435.72,-254.43"/>
<polygon fill="black" stroke="black" points="436.58,-251.04 426.06,-252.29 435.06,-257.87 436.58,-251.04"/>
</g>
<!-- 15 -->
<g id="node16" class="node">
<title>15</title>
<ellipse fill="none" stroke="black" cx="952.99" cy="-234" rx="255.05" ry="18"/>
<text text-anchor="middle" x="952.99" y="-228.95" font-family="Times New Roman,serif" font-size="14.00">You: 我为什么要花这么多时间思考海鸥粪便呢？</text>
</g>
<!-- 6&#45;&gt;15 -->
<g id="edge10" class="edge">
<title>6&#45;&gt;15</title>
<path fill="none" stroke="black" d="M735.06,-287.79C776.73,-277.69 829.48,-264.92 872.66,-254.46"/>
<polygon fill="black" stroke="black" points="873.33,-257.9 882.23,-252.14 871.68,-251.09 873.33,-257.9"/>
</g>
<!-- 7 -->
<g id="node8" class="node">
<title>7</title>
<ellipse fill="none" stroke="black" cx="815.99" cy="-594" rx="178.28" ry="18"/>
<text text-anchor="middle" x="815.99" y="-588.95" font-family="Times New Roman,serif" font-size="14.00">Variable[&quot;inventory.filthy_shivers_seagulls&quot;]</text>
</g>
<!-- 8 -->
<g id="node9" class="node">
<title>8</title>
<polygon fill="none" stroke="black" points="690.99,-540 438.87,-522 690.99,-504 943.12,-522 690.99,-540"/>
<text text-anchor="middle" x="690.99" y="-516.95" font-family="Times New Roman,serif" font-size="14.00">Variable[&quot;inventory.filthy_shivers_seagulls&quot;]</text>
</g>
<!-- 7&#45;&gt;8 -->
<g id="edge11" class="edge">
<title>7&#45;&gt;8</title>
<path fill="none" stroke="black" d="M785.41,-575.88C768.3,-566.29 746.81,-554.26 728.66,-544.09"/>
<polygon fill="black" stroke="black" points="730.45,-541.09 720.02,-539.25 727.03,-547.19 730.45,-541.09"/>
</g>
<!-- 9 -->
<g id="node10" class="node">
<title>9</title>
<polygon fill="none" stroke="black" points="1230.99,-540 965.84,-522 1230.99,-504 1496.15,-522 1230.99,-540"/>
<text text-anchor="middle" x="1230.99" y="-516.95" font-family="Times New Roman,serif" font-size="14.00">!(Variable[&quot;inventory.filthy_shivers_seagulls&quot;])</text>
</g>
<!-- 7&#45;&gt;9 -->
<g id="edge12" class="edge">
<title>7&#45;&gt;9</title>
<path fill="none" stroke="black" d="M905.02,-577.98C976.46,-565.93 1076.07,-549.13 1146.33,-537.28"/>
<polygon fill="black" stroke="black" points="1146.57,-540.79 1155.85,-535.67 1145.41,-533.89 1146.57,-540.79"/>
</g>
<!-- 25 -->
<g id="node26" class="node">
<title>25</title>
<ellipse fill="none" stroke="black" cx="672.99" cy="-450" rx="390.17" ry="18"/>
<text text-anchor="middle" x="672.99" y="-444.95" font-family="Times New Roman,serif" font-size="14.00">Shivers: 它们就像是静风舰队的投弹手，在*放眼全是目标的环境*里翱翔……</text>
</g>
<!-- 8&#45;&gt;25 -->
<g id="edge13" class="edge">
<title>8&#45;&gt;25</title>
<path fill="none" stroke="black" d="M686.64,-504.05C684.72,-496.6 682.41,-487.64 680.25,-479.22"/>
<polygon fill="black" stroke="black" points="683.69,-478.55 677.81,-469.74 676.91,-480.3 683.69,-478.55"/>
</g>
<!-- 36 -->
<g id="node36" class="node">
<title>36</title>
<ellipse fill="none" stroke="black" cx="1235.99" cy="-378" rx="172.65" ry="18"/>
<text text-anchor="middle" x="1235.99" y="-372.95" font-family="Times New Roman,serif" font-size="14.00">You: 我要假装自己没想过这些。</text>
</g>
<!-- 9&#45;&gt;36 -->
<g id="edge14" class="edge">
<title>9&#45;&gt;36</title>
<path fill="none" stroke="black" d="M1231.61,-503.59C1232.45,-479.61 1233.98,-436.14 1234.99,-407.42"/>
<polygon fill="black" stroke="black" points="1238.48,-407.74 1235.34,-397.62 1231.49,-407.49 1238.48,-407.74"/>
</g>
<!-- 10 -->
<g id="node11" class="node">
<title>10</title>
<ellipse fill="none" stroke="black" cx="1955.99" cy="-1530" rx="157.81" ry="18"/>
<text text-anchor="middle" x="1955.99" y="-1524.95" font-family="Times New Roman,serif" font-size="14.00">Filthy Jacket: 那样可能更好吧。</text>
</g>
<!-- 11 -->
<g id="node12" class="node">
<title>11</title>
<ellipse fill="none" stroke="black" cx="1924.99" cy="-18" rx="539.1" ry="18"/>
<text text-anchor="middle" x="1924.99" y="-12.95" font-family="Times New Roman,serif" font-size="14.00">Composure: 什么？不行！那不就粘在你的*裤子*上了吗。这是个灾难。你永远也没办法清除这股味道了。</text>
</g>
<!-- 12 -->
<g id="node13" class="node">
<title>12</title>
<ellipse fill="none" stroke="black" cx="1533.99" cy="-1314" rx="322.61" ry="18"/>
<text text-anchor="middle" x="1533.99" y="-1308.95" font-family="Times New Roman,serif" font-size="14.00">Filthy Jacket: 明智的选择。你越不去想这件夹克，结果就越好。</text>
</g>
<!-- 12&#45;&gt;4 -->
<g id="edge15" class="edge">
<title>12&#45;&gt;4</title>
<path fill="none" stroke="black" d="M1490.98,-1295.7C1467.38,-1286.2 1437.92,-1274.35 1412.92,-1264.29"/>
<polygon fill="black" stroke="black" points="1414.5,-1261.15 1403.91,-1260.67 1411.88,-1267.65 1414.5,-1261.15"/>
</g>
<!-- 31 -->
<g id="node32" class="node">
<title>31</title>
<ellipse fill="none" stroke="black" cx="1738.99" cy="-1242" rx="143.48" ry="18"/>
<text text-anchor="middle" x="1738.99" y="-1236.95" font-family="Times New Roman,serif" font-size="14.00">You: [把脏夹克放在一边。]</text>
</g>
<!-- 12&#45;&gt;31 -->
<g id="edge16" class="edge">
<title>12&#45;&gt;31</title>
<path fill="none" stroke="black" d="M1584.4,-1295.79C1613.33,-1285.91 1649.8,-1273.45 1680.06,-1263.12"/>
<polygon fill="black" stroke="black" points="1681.13,-1266.46 1689.46,-1259.91 1678.87,-1259.83 1681.13,-1266.46"/>
</g>
<!-- 39 -->
<g id="node39" class="node">
<title>39</title>
<ellipse fill="none" stroke="black" cx="1236.99" cy="-1098" rx="733.59" ry="18"/>
<text text-anchor="middle" x="1236.99" y="-1092.95" font-family="Times New Roman,serif" font-size="14.00">Perception (Smell): 它闻起来像是死亡海洋生物的味道，纠缠在灰色的海藻之间。在海浪把它推到岸边之前，它肯定已经在水里待了好一阵子了。</text>
</g>
<!-- 13&#45;&gt;39 -->
<g id="edge17" class="edge">
<title>13&#45;&gt;39</title>
<path fill="none" stroke="black" d="M1236.99,-1151.7C1236.99,-1144.41 1236.99,-1135.73 1236.99,-1127.54"/>
<polygon fill="black" stroke="black" points="1240.49,-1127.62 1236.99,-1117.62 1233.49,-1127.62 1240.49,-1127.62"/>
</g>
<!-- 37 -->
<g id="node37" class="node">
<title>37</title>
<ellipse fill="none" stroke="black" cx="1188.99" cy="-162" rx="353.32" ry="18"/>
<text text-anchor="middle" x="1188.99" y="-156.95" font-family="Times New Roman,serif" font-size="14.00">Composure: 太迟了！你已经开始想了。现在你的手上沾满了脏东西。</text>
</g>
<!-- 15&#45;&gt;37 -->
<g id="edge18" class="edge">
<title>15&#45;&gt;37</title>
<path fill="none" stroke="black" d="M1010.12,-216.05C1043.38,-206.19 1085.52,-193.69 1120.54,-183.3"/>
<polygon fill="black" stroke="black" points="1121.12,-186.78 1129.71,-180.58 1119.13,-180.07 1121.12,-186.78"/>
</g>
<!-- 33 -->
<g id="node34" class="node">
<title>33</title>
<ellipse fill="none" stroke="black" cx="793.99" cy="-1458" rx="172.65" ry="18"/>
<text text-anchor="middle" x="793.99" y="-1452.95" font-family="Times New Roman,serif" font-size="14.00">You: 那我们就把它放在一边吧。</text>
</g>
<!-- 16&#45;&gt;33 -->
<g id="edge19" class="edge">
<title>16&#45;&gt;33</title>
<path fill="none" stroke="black" d="M793.99,-1511.7C793.99,-1504.41 793.99,-1495.73 793.99,-1487.54"/>
<polygon fill="black" stroke="black" points="797.49,-1487.62 793.99,-1477.62 790.49,-1487.62 797.49,-1487.62"/>
</g>
<!-- 17 -->
<g id="node18" class="node">
<title>17</title>
<ellipse fill="none" stroke="black" cx="912.99" cy="-954" rx="565.72" ry="18"/>
<text text-anchor="middle" x="912.99" y="-948.95" font-family="Times New Roman,serif" font-size="14.00">Filthy Jacket: 不知怎么的，它被拖上了木板道，如果用的不是人手，那就有可能是晚上在海滩边游荡的野狗……</text>
</g>
<!-- 40 -->
<g id="node40" class="node">
<title>40</title>
<ellipse fill="none" stroke="black" cx="815.99" cy="-882" rx="815.99" ry="18"/>
<text text-anchor="middle" x="815.99" y="-876.95" font-family="Times New Roman,serif" font-size="14.00">Visual Calculus: 周围有很多模糊的脚印，虽然不太可能说清是什么种类，或者到底有多少。可以说，有人把这件夹克搁在栏杆上之前，它在地上躺过一段时间。</text>
</g>
<!-- 17&#45;&gt;40 -->
<g id="edge20" class="edge">
<title>17&#45;&gt;40</title>
<path fill="none" stroke="black" d="M889.02,-935.7C877.01,-927.03 862.28,-916.4 849.2,-906.96"/>
<polygon fill="black" stroke="black" points="851.42,-904.25 841.26,-901.23 847.32,-909.92 851.42,-904.25"/>
</g>
<!-- 18 -->
<g id="node19" class="node">
<title>18</title>
<ellipse fill="none" stroke="black" cx="1362.99" cy="-1458" rx="353.32" ry="18"/>
<text text-anchor="middle" x="1362.99" y="-1452.95" font-family="Times New Roman,serif" font-size="14.00">Composure: 有些秘密还是不被发现的好。说真的，甚至都别去尝试。</text>
</g>
<!-- 19 -->
<g id="node20" class="node">
<title>19</title>
<ellipse fill="none" stroke="black" cx="1454.99" cy="-1386" rx="78.48" ry="18"/>
<text text-anchor="middle" x="1454.99" y="-1380.95" font-family="Times New Roman,serif" font-size="14.00">You: 别想了。</text>
</g>
<!-- 18&#45;&gt;19 -->
<g id="edge22" class="edge">
<title>18&#45;&gt;19</title>
<path fill="none" stroke="black" d="M1385.73,-1439.7C1397.38,-1430.84 1411.73,-1419.92 1424.34,-1410.33"/>
<polygon fill="black" stroke="black" points="1426.1,-1413.38 1431.94,-1404.54 1421.86,-1407.81 1426.1,-1413.38"/>
</g>
<!-- 24 -->
<g id="node25" class="node">
<title>24</title>
<ellipse fill="none" stroke="black" cx="1114.99" cy="-1314" rx="78.48" ry="18"/>
<text text-anchor="middle" x="1114.99" y="-1308.95" font-family="Times New Roman,serif" font-size="14.00">You: 想一想。</text>
</g>
<!-- 18&#45;&gt;24 -->
<g id="edge21" class="edge">
<title>18&#45;&gt;24</title>
<path fill="none" stroke="black" d="M1332.58,-1439.59C1287.42,-1413.73 1202.66,-1365.2 1153.32,-1336.94"/>
<polygon fill="black" stroke="black" points="1155.08,-1333.92 1144.66,-1331.99 1151.6,-1340 1155.08,-1333.92"/>
</g>
<!-- 19&#45;&gt;12 -->
<g id="edge23" class="edge">
<title>19&#45;&gt;12</title>
<path fill="none" stroke="black" d="M1474.12,-1368.05C1483.68,-1359.58 1495.43,-1349.17 1505.99,-1339.82"/>
<polygon fill="black" stroke="black" points="1508.2,-1342.53 1513.36,-1333.28 1503.56,-1337.29 1508.2,-1342.53"/>
</g>
<!-- 20 -->
<g id="node21" class="node">
<title>20</title>
<ellipse fill="none" stroke="black" cx="1607.99" cy="-90" rx="196.19" ry="18"/>
<text text-anchor="middle" x="1607.99" y="-84.95" font-family="Times New Roman,serif" font-size="14.00">You: 也许我可以用裤子把手擦干净？</text>
</g>
<!-- 20&#45;&gt;11 -->
<g id="edge24" class="edge">
<title>20&#45;&gt;11</title>
<path fill="none" stroke="black" d="M1681.12,-72.85C1727.09,-62.7 1786.72,-49.53 1835.5,-38.76"/>
<polygon fill="black" stroke="black" points="1836.21,-42.19 1845.22,-36.62 1834.7,-35.35 1836.21,-42.19"/>
</g>
<!-- 21 -->
<g id="node22" class="node">
<title>21</title>
<ellipse fill="none" stroke="black" cx="1102.99" cy="-1026" rx="240.72" ry="18"/>
<text text-anchor="middle" x="1102.99" y="-1020.95" font-family="Times New Roman,serif" font-size="14.00">You: 好吧，但是这个外壳是什么*形成*的呢？</text>
</g>
<!-- 21&#45;&gt;17 -->
<g id="edge25" class="edge">
<title>21&#45;&gt;17</title>
<path fill="none" stroke="black" d="M1056.51,-1007.88C1030.71,-998.37 998.39,-986.46 970.95,-976.35"/>
<polygon fill="black" stroke="black" points="972.33,-973.13 961.73,-972.96 969.91,-979.7 972.33,-973.13"/>
</g>
<!-- 22 -->
<g id="node23" class="node">
<title>22</title>
<ellipse fill="none" stroke="black" cx="872.99" cy="-18" rx="494.58" ry="18"/>
<text text-anchor="middle" x="872.99" y="-12.95" font-family="Times New Roman,serif" font-size="14.00">Composure: 现在你把那些脏东西甩的到处都是！这是个灾难。你永远也没办法清除这股味道了。</text>
</g>
<!-- 38 -->
<g id="node38" class="node">
<title>38</title>
<ellipse fill="none" stroke="black" cx="1362.99" cy="-1530" rx="416.78" ry="18"/>
<text text-anchor="middle" x="1362.99" y="-1524.95" font-family="Times New Roman,serif" font-size="14.00">Filthy Jacket: 这是一个肮脏又污秽的传说，不适合那些弱鸡。你确定能够忍受吗？</text>
</g>
<!-- 23&#45;&gt;38 -->
<g id="edge26" class="edge">
<title>23&#45;&gt;38</title>
<path fill="none" stroke="black" d="M1362.99,-1583.7C1362.99,-1576.41 1362.99,-1567.73 1362.99,-1559.54"/>
<polygon fill="black" stroke="black" points="1366.49,-1559.62 1362.99,-1549.62 1359.49,-1559.62 1366.49,-1559.62"/>
</g>
<!-- 24&#45;&gt;13 -->
<g id="edge27" class="edge">
<title>24&#45;&gt;13</title>
<path fill="none" stroke="black" d="M1114.47,-1295.81C1114.76,-1276.45 1117.96,-1244.96 1133.99,-1224 1143.87,-1211.09 1157.78,-1201.04 1172.19,-1193.35"/>
<polygon fill="black" stroke="black" points="1173.44,-1196.63 1180.85,-1189.06 1170.34,-1190.36 1173.44,-1196.63"/>
</g>
<!-- 29 -->
<g id="node30" class="node">
<title>29</title>
<ellipse fill="none" stroke="black" cx="663.99" cy="-378" rx="380.96" ry="18"/>
<text text-anchor="middle" x="663.99" y="-372.95" font-family="Times New Roman,serif" font-size="14.00">Shivers: 突然间，炸弹舱门打开了，闪烁着耀眼白光的炸弹直冲向大地……</text>
</g>
<!-- 25&#45;&gt;29 -->
<g id="edge28" class="edge">
<title>25&#45;&gt;29</title>
<path fill="none" stroke="black" d="M670.77,-431.7C669.82,-424.32 668.69,-415.52 667.62,-407.25"/>
<polygon fill="black" stroke="black" points="671.13,-407.08 666.38,-397.61 664.19,-407.97 671.13,-407.08"/>
</g>
<!-- 26 -->
<g id="node27" class="node">
<title>26</title>
<ellipse fill="none" stroke="black" cx="1610.99" cy="-954" rx="66.71" ry="18"/>
<text text-anchor="middle" x="1610.99" y="-948.95" font-family="Times New Roman,serif" font-size="14.00">You: 恶心。</text>
</g>
<!-- 41 -->
<g id="node41" class="node">
<title>41</title>
<ellipse fill="none" stroke="black" cx="1588.99" cy="-666" rx="396.31" ry="18"/>
<text text-anchor="middle" x="1588.99" y="-660.95" font-family="Times New Roman,serif" font-size="14.00">Composure: 为什么，你为什么要去想它？看看你的手——上面沾满了脏东西。</text>
</g>
<!-- 26&#45;&gt;41 -->
<g id="edge29" class="edge">
<title>26&#45;&gt;41</title>
<path fill="none" stroke="black" d="M1623.72,-935.85C1630.28,-925.92 1637.6,-912.88 1640.99,-900 1645.07,-884.53 1643.05,-879.87 1640.99,-864 1633.01,-802.49 1611.56,-732.81 1598.85,-695.02"/>
<polygon fill="black" stroke="black" points="1602.24,-694.12 1595.69,-685.79 1595.61,-696.38 1602.24,-694.12"/>
</g>
<!-- 27 -->
<g id="node28" class="node">
<title>27</title>
<ellipse fill="none" stroke="black" cx="1188.99" cy="-90" rx="149.11" ry="18"/>
<text text-anchor="middle" x="1188.99" y="-84.95" font-family="Times New Roman,serif" font-size="14.00">You: 呕！（甩动你的手。）</text>
</g>
<!-- 27&#45;&gt;22 -->
<g id="edge30" class="edge">
<title>27&#45;&gt;22</title>
<path fill="none" stroke="black" d="M1119.65,-73.64C1073.28,-63.37 1011.86,-49.76 961.91,-38.7"/>
<polygon fill="black" stroke="black" points="962.78,-35.3 952.26,-36.56 961.27,-42.14 962.78,-35.3"/>
</g>
<!-- 30 -->
<g id="node31" class="node">
<title>30</title>
<ellipse fill="none" stroke="black" cx="815.99" cy="-666" rx="286.78" ry="18"/>
<text text-anchor="middle" x="815.99" y="-660.95" font-family="Times New Roman,serif" font-size="14.00">Shivers: 城市上空的某个地方，一队海鸥在空中盘旋……</text>
</g>
<!-- 28&#45;&gt;30 -->
<g id="edge31" class="edge">
<title>28&#45;&gt;30</title>
<path fill="none" stroke="black" d="M815.99,-719.7C815.99,-712.41 815.99,-703.73 815.99,-695.54"/>
<polygon fill="black" stroke="black" points="819.49,-695.62 815.99,-685.62 812.49,-695.62 819.49,-695.62"/>
</g>
<!-- 29&#45;&gt;6 -->
<g id="edge32" class="edge">
<title>29&#45;&gt;6</title>
<path fill="none" stroke="black" d="M663.99,-359.7C663.99,-352.41 663.99,-343.73 663.99,-335.54"/>
<polygon fill="black" stroke="black" points="667.49,-335.62 663.99,-325.62 660.49,-335.62 667.49,-335.62"/>
</g>
<!-- 30&#45;&gt;7 -->
<g id="edge33" class="edge">
<title>30&#45;&gt;7</title>
<path fill="none" stroke="black" d="M815.99,-647.7C815.99,-640.41 815.99,-631.73 815.99,-623.54"/>
<polygon fill="black" stroke="black" points="819.49,-623.62 815.99,-613.62 812.49,-623.62 819.49,-623.62"/>
</g>
<!-- 32&#45;&gt;10 -->
<g id="edge34" class="edge">
<title>32&#45;&gt;10</title>
<path fill="none" stroke="black" d="M1928.89,-1583.7C1932.86,-1575.98 1937.63,-1566.71 1942.05,-1558.11"/>
<polygon fill="black" stroke="black" points="1945.04,-1559.94 1946.5,-1549.45 1938.82,-1556.74 1945.04,-1559.94"/>
</g>
<!-- 34 -->
<g id="node35" class="node">
<title>34</title>
<ellipse fill="none" stroke="black" cx="1348.99" cy="-810" rx="231.51" ry="18"/>
<text text-anchor="middle" x="1348.99" y="-804.95" font-family="Times New Roman,serif" font-size="14.00">You: 好吧，确实挺恶心的。我已经受够了。</text>
</g>
<!-- 34&#45;&gt;41 -->
<g id="edge35" class="edge">
<title>34&#45;&gt;41</title>
<path fill="none" stroke="black" d="M1377.94,-791.87C1420.89,-766.46 1501.59,-718.71 1549.8,-690.19"/>
<polygon fill="black" stroke="black" points="1551.44,-693.29 1558.26,-685.18 1547.87,-687.26 1551.44,-693.29"/>
</g>
<!-- 36&#45;&gt;37 -->
<g id="edge36" class="edge">
<title>36&#45;&gt;37</title>
<path fill="none" stroke="black" d="M1236.01,-359.65C1235.59,-329.67 1232.72,-266.52 1216.99,-216 1214.28,-207.29 1210.15,-198.34 1205.88,-190.33"/>
<polygon fill="black" stroke="black" points="1209.01,-188.75 1201.05,-181.75 1202.91,-192.18 1209.01,-188.75"/>
</g>
<!-- 37&#45;&gt;20 -->
<g id="edge38" class="edge">
<title>37&#45;&gt;20</title>
<path fill="none" stroke="black" d="M1289.09,-144.28C1354.31,-133.38 1439.19,-119.2 1504.98,-108.21"/>
<polygon fill="black" stroke="black" points="1505.42,-111.68 1514.71,-106.58 1504.27,-104.78 1505.42,-111.68"/>
</g>
<!-- 37&#45;&gt;27 -->
<g id="edge37" class="edge">
<title>37&#45;&gt;27</title>
<path fill="none" stroke="black" d="M1188.99,-143.7C1188.99,-136.41 1188.99,-127.73 1188.99,-119.54"/>
<polygon fill="black" stroke="black" points="1192.49,-119.62 1188.99,-109.62 1185.49,-119.62 1192.49,-119.62"/>
</g>
<!-- 38&#45;&gt;18 -->
<g id="edge39" class="edge">
<title>38&#45;&gt;18</title>
<path fill="none" stroke="black" d="M1362.99,-1511.7C1362.99,-1504.41 1362.99,-1495.73 1362.99,-1487.54"/>
<polygon fill="black" stroke="black" points="1366.49,-1487.62 1362.99,-1477.62 1359.49,-1487.62 1366.49,-1487.62"/>
</g>
<!-- 39&#45;&gt;21 -->
<g id="edge41" class="edge">
<title>39&#45;&gt;21</title>
<path fill="none" stroke="black" d="M1203.87,-1079.7C1186.34,-1070.54 1164.62,-1059.19 1145.83,-1049.38"/>
<polygon fill="black" stroke="black" points="1147.56,-1046.33 1137.08,-1044.81 1144.32,-1052.54 1147.56,-1046.33"/>
</g>
<!-- 39&#45;&gt;26 -->
<g id="edge40" class="edge">
<title>39&#45;&gt;26</title>
<path fill="none" stroke="black" d="M1282.85,-1079.59C1354,-1052.57 1490.33,-1000.81 1562.85,-973.28"/>
<polygon fill="black" stroke="black" points="1563.97,-976.6 1572.08,-969.77 1561.49,-970.05 1563.97,-976.6"/>
</g>
<!-- 40&#45;&gt;5 -->
<g id="edge43" class="edge">
<title>40&#45;&gt;5</title>
<path fill="none" stroke="black" d="M815.99,-863.7C815.99,-856.41 815.99,-847.73 815.99,-839.54"/>
<polygon fill="black" stroke="black" points="819.49,-839.62 815.99,-829.62 812.49,-839.62 819.49,-839.62"/>
</g>
<!-- 40&#45;&gt;34 -->
<g id="edge42" class="edge">
<title>40&#45;&gt;34</title>
<path fill="none" stroke="black" d="M947.4,-863.74C1031.54,-852.69 1140.11,-838.43 1223.14,-827.53"/>
<polygon fill="black" stroke="black" points="1223.46,-831.02 1232.92,-826.24 1222.55,-824.08 1223.46,-831.02"/>
</g>
<!-- 41&#45;&gt;20 -->
<g id="edge45" class="edge">
<title>41&#45;&gt;20</title>
<path fill="none" stroke="black" d="M1592.84,-647.61C1598.39,-620.94 1607.99,-568.27 1607.99,-523 1607.99,-523 1607.99,-523 1607.99,-233 1607.99,-193.74 1607.99,-148.38 1607.99,-119.69"/>
<polygon fill="black" stroke="black" points="1611.49,-120 1607.99,-110 1604.49,-120 1611.49,-120"/>
</g>
<!-- 41&#45;&gt;27 -->
<g id="edge44" class="edge">
<title>41&#45;&gt;27</title>
<path fill="none" stroke="black" d="M1585.15,-647.61C1579.6,-620.94 1569.99,-568.27 1569.99,-523 1569.99,-523 1569.99,-523 1569.99,-233 1569.99,-192.55 1580.51,-171.66 1550.99,-144 1533.77,-127.86 1414.55,-112.6 1317.55,-102.64"/>
<polygon fill="black" stroke="black" points="1317.95,-99.16 1307.65,-101.63 1317.25,-106.12 1317.95,-99.16"/>
</g>
</g>
</svg>
