<?xml version="1.0" encoding="UTF-8" standalone="no"?>
<!DOCTYPE svg PUBLIC "-//W3C//DTD SVG 1.1//EN"
 "http://www.w3.org/Graphics/SVG/1.1/DTD/svg11.dtd">
<!-- Generated by graphviz version 12.2.1 (20241206.2353)
 -->
<!-- Title: G Pages: 1 -->
<svg width="6578pt" height="1988pt"
 viewBox="0.00 0.00 6578.26 1988.00" xmlns="http://www.w3.org/2000/svg" xmlns:xlink="http://www.w3.org/1999/xlink">
<g id="graph0" class="graph" transform="scale(1 1) rotate(0) translate(4 1984)">
<title>G</title>
<polygon fill="white" stroke="none" points="-4,4 -4,-1984 6574.26,-1984 6574.26,4 -4,4"/>
<!-- 0 -->
<g id="node1" class="node">
<title>0</title>
<ellipse fill="none" stroke="black" cx="822.26" cy="-1962" rx="39.07" ry="18"/>
<text text-anchor="middle" x="822.26" y="-1956.95" font-family="Times New Roman,serif" font-size="14.00">START</text>
</g>
<!-- 1 -->
<g id="node2" class="node">
<title>1</title>
<ellipse fill="none" stroke="black" cx="822.26" cy="-1890" rx="29.86" ry="18"/>
<text text-anchor="middle" x="822.26" y="-1884.95" font-family="Times New Roman,serif" font-size="14.00">input</text>
</g>
<!-- 0&#45;&gt;1 -->
<g id="edge1" class="edge">
<title>0&#45;&gt;1</title>
<path fill="none" stroke="black" d="M822.26,-1943.7C822.26,-1936.41 822.26,-1927.73 822.26,-1919.54"/>
<polygon fill="black" stroke="black" points="825.76,-1919.62 822.26,-1909.62 818.76,-1919.62 825.76,-1919.62"/>
</g>
<!-- 16 -->
<g id="node17" class="node">
<title>16</title>
<ellipse fill="none" stroke="black" cx="822.26" cy="-1818" rx="602.06" ry="18"/>
<text text-anchor="middle" x="822.26" y="-1812.95" font-family="Times New Roman,serif" font-size="14.00">Man from Hjelmdall and the Devil Woman: 书页的边缘残破又肮脏。很多人看过魔女和来自赫姆达尔的男人之间的争执片段。</text>
</g>
<!-- 1&#45;&gt;16 -->
<g id="edge2" class="edge">
<title>1&#45;&gt;16</title>
<path fill="none" stroke="black" d="M822.26,-1871.7C822.26,-1864.41 822.26,-1855.73 822.26,-1847.54"/>
<polygon fill="black" stroke="black" points="825.76,-1847.62 822.26,-1837.62 818.76,-1847.62 825.76,-1847.62"/>
</g>
<!-- 2 -->
<g id="node3" class="node">
<title>2</title>
<ellipse fill="none" stroke="black" cx="1642.26" cy="-810" rx="219.74" ry="18"/>
<text text-anchor="middle" x="1642.26" y="-804.95" font-family="Times New Roman,serif" font-size="14.00">You: 好吧，了解。没必要继续看下去了。</text>
</g>
<!-- 23 -->
<g id="node24" class="node">
<title>23</title>
<ellipse fill="none" stroke="black" cx="1221.26" cy="-738" rx="372.26" ry="18"/>
<text text-anchor="middle" x="1221.26" y="-732.95" font-family="Times New Roman,serif" font-size="14.00">Jump to: [Man from Hjelmdall and the Devil Woman: &quot;The edges of the pages are worn and...&quot;]</text>
</g>
<!-- 2&#45;&gt;23 -->
<g id="edge3" class="edge">
<title>2&#45;&gt;23</title>
<path fill="none" stroke="black" d="M1547.77,-793.29C1484.16,-782.71 1399.99,-768.72 1333.04,-757.59"/>
<polygon fill="black" stroke="black" points="1333.96,-754.19 1323.52,-756 1332.81,-761.1 1333.96,-754.19"/>
</g>
<!-- 3 -->
<g id="node4" class="node">
<title>3</title>
<ellipse fill="none" stroke="black" cx="1704.26" cy="-1098" rx="160.88" ry="18"/>
<text text-anchor="middle" x="1704.26" y="-1092.95" font-family="Times New Roman,serif" font-size="14.00">You: 呃，庸俗。（合上书。）</text>
</g>
<!-- 49 -->
<g id="node49" class="node">
<title>49</title>
<ellipse fill="none" stroke="black" cx="1222.26" cy="-1026" rx="372.26" ry="18"/>
<text text-anchor="middle" x="1222.26" y="-1020.95" font-family="Times New Roman,serif" font-size="14.00">Jump to: [Man from Hjelmdall and the Devil Woman: &quot;The edges of the pages are worn and...&quot;]</text>
</g>
<!-- 3&#45;&gt;49 -->
<g id="edge4" class="edge">
<title>3&#45;&gt;49</title>
<path fill="none" stroke="black" d="M1608.74,-1083.13C1533.9,-1072.26 1429.16,-1057.05 1347.59,-1045.2"/>
<polygon fill="black" stroke="black" points="1348.14,-1041.74 1337.74,-1043.77 1347.13,-1048.67 1348.14,-1041.74"/>
</g>
<!-- 4 -->
<g id="node5" class="node">
<title>4</title>
<ellipse fill="none" stroke="black" cx="5109.26" cy="-1674" rx="90.25" ry="18"/>
<text text-anchor="middle" x="5109.26" y="-1668.95" font-family="Times New Roman,serif" font-size="14.00">You: 看看封底。</text>
</g>
<!-- 13 -->
<g id="node14" class="node">
<title>13</title>
<ellipse fill="none" stroke="black" cx="5321.26" cy="-1602" rx="1182.96" ry="18"/>
<text text-anchor="middle" x="5321.26" y="-1596.95" font-family="Times New Roman,serif" font-size="14.00">Man from Hjelmdall and the Devil Woman: 封皮上写着：“来自赫姆达尔的男人，带着最激动人心的冒险回归了！闯入一片怪异的丛林后，食人土著绑架了他唯一幸存的伙伴，忠诚的提尔巴德。来自赫姆达尔的男人还没来得及展开救援……”</text>
</g>
<!-- 4&#45;&gt;13 -->
<g id="edge5" class="edge">
<title>4&#45;&gt;13</title>
<path fill="none" stroke="black" d="M5154.47,-1658.07C5184.65,-1648.11 5224.75,-1634.86 5258.07,-1623.86"/>
<polygon fill="black" stroke="black" points="5258.79,-1627.31 5267.19,-1620.85 5256.6,-1620.66 5258.79,-1627.31"/>
</g>
<!-- 5 -->
<g id="node6" class="node">
<title>5</title>
<ellipse fill="none" stroke="black" cx="5362.26" cy="-1530" rx="1100.56" ry="18"/>
<text text-anchor="middle" x="5362.26" y="-1524.95" font-family="Times New Roman,serif" font-size="14.00">Man from Hjelmdall and the Devil Woman: “……他就被一个女战士部落伏击，带回了云之城的远古城堡，那里的统治者是一个神秘又邪恶的女王。来自赫姆达尔的男人究竟能否逃离这个可怕的处境，找到他走失的好友呢？”</text>
</g>
<!-- 36 -->
<g id="node37" class="node">
<title>36</title>
<ellipse fill="none" stroke="black" cx="5930.26" cy="-1458" rx="84.62" ry="18"/>
<text text-anchor="middle" x="5930.26" y="-1452.95" font-family="Times New Roman,serif" font-size="14.00">Jump to: [bookhub]</text>
</g>
<!-- 5&#45;&gt;36 -->
<g id="edge6" class="edge">
<title>5&#45;&gt;36</title>
<path fill="none" stroke="black" d="M5502.66,-1511.7C5610.88,-1498.36 5756.84,-1480.37 5847.19,-1469.24"/>
<polygon fill="black" stroke="black" points="5847.47,-1472.73 5856.97,-1468.03 5846.61,-1465.78 5847.47,-1472.73"/>
</g>
<!-- 6 -->
<g id="node7" class="node">
<title>6</title>
<ellipse fill="none" stroke="black" cx="2976.26" cy="-1242" rx="236.11" ry="18"/>
<text text-anchor="middle" x="2976.26" y="-1236.95" font-family="Times New Roman,serif" font-size="14.00">Rhetoric: 它在呼唤着你。这就是瑞瓦肖精神。</text>
</g>
<!-- 30 -->
<g id="node31" class="node">
<title>30</title>
<ellipse fill="none" stroke="black" cx="2370.26" cy="-1170" rx="37.02" ry="18"/>
<text text-anchor="middle" x="2370.26" y="-1164.95" font-family="Times New Roman,serif" font-size="14.00">failhub</text>
</g>
<!-- 6&#45;&gt;30 -->
<g id="edge7" class="edge">
<title>6&#45;&gt;30</title>
<path fill="none" stroke="black" d="M2849.96,-1226.41C2715.4,-1210.87 2509.38,-1187.07 2417.42,-1176.45"/>
<polygon fill="black" stroke="black" points="2418.1,-1173 2407.76,-1175.33 2417.3,-1179.96 2418.1,-1173"/>
</g>
<!-- 7 -->
<g id="node8" class="node">
<title>7</title>
<ellipse fill="none" stroke="black" cx="2775.26" cy="-90" rx="496.11" ry="18"/>
<text text-anchor="middle" x="2775.26" y="-84.95" font-family="Times New Roman,serif" font-size="14.00">Man from Hjelmdall and the Devil Woman: 那就写篇论文去。来自赫姆达尔的男人跟你之间已经结束了。</text>
</g>
<!-- 34 -->
<g id="node35" class="node">
<title>34</title>
<ellipse fill="none" stroke="black" cx="2228.26" cy="-18" rx="84.62" ry="18"/>
<text text-anchor="middle" x="2228.26" y="-12.95" font-family="Times New Roman,serif" font-size="14.00">Jump to: [bookhub]</text>
</g>
<!-- 7&#45;&gt;34 -->
<g id="edge8" class="edge">
<title>7&#45;&gt;34</title>
<path fill="none" stroke="black" d="M2643.89,-72.19C2540.17,-58.92 2398.69,-40.81 2310.44,-29.52"/>
<polygon fill="black" stroke="black" points="2311.02,-26.06 2300.66,-28.27 2310.13,-33.01 2311.02,-26.06"/>
</g>
<!-- 8 -->
<g id="node9" class="node">
<title>8</title>
<ellipse fill="none" stroke="black" cx="2626.26" cy="-738" rx="978.75" ry="18"/>
<text text-anchor="middle" x="2626.26" y="-732.95" font-family="Times New Roman,serif" font-size="14.00">Man from Hjelmdall and the Devil Woman: 来自赫姆达尔的男人那有如钢铁一般的肌肉在潮湿的丛林空气中闪闪发亮，但他并没有流汗。在冥想之中，他的灵魂依然在寒冷的北国，那里是他的家乡。</text>
</g>
<!-- 15 -->
<g id="node16" class="node">
<title>15</title>
<ellipse fill="none" stroke="black" cx="2626.26" cy="-666" rx="307.77" ry="18"/>
<text text-anchor="middle" x="2626.26" y="-660.95" font-family="Times New Roman,serif" font-size="14.00">You: “真他么绝了，这不就是*我*吗！”（真正投入书中。）</text>
</g>
<!-- 8&#45;&gt;15 -->
<g id="edge10" class="edge">
<title>8&#45;&gt;15</title>
<path fill="none" stroke="black" d="M2626.26,-719.7C2626.26,-712.41 2626.26,-703.73 2626.26,-695.54"/>
<polygon fill="black" stroke="black" points="2629.76,-695.62 2626.26,-685.62 2622.76,-695.62 2629.76,-695.62"/>
</g>
<!-- 39 -->
<g id="node39" class="node">
<title>39</title>
<ellipse fill="none" stroke="black" cx="1557.26" cy="-666" rx="172.65" ry="18"/>
<text text-anchor="middle" x="1557.26" y="-660.95" font-family="Times New Roman,serif" font-size="14.00">You: 呃。我够了。（合上书。）</text>
</g>
<!-- 8&#45;&gt;39 -->
<g id="edge9" class="edge">
<title>8&#45;&gt;39</title>
<path fill="none" stroke="black" d="M2369.18,-720.17C2164.06,-706.73 1883.51,-688.36 1711.64,-677.11"/>
<polygon fill="black" stroke="black" points="1711.94,-673.62 1701.73,-676.46 1711.48,-680.61 1711.94,-673.62"/>
</g>
<!-- 9 -->
<g id="node10" class="node">
<title>9</title>
<ellipse fill="none" stroke="black" cx="995.26" cy="-162" rx="137.34" ry="18"/>
<text text-anchor="middle" x="995.26" y="-156.95" font-family="Times New Roman,serif" font-size="14.00">You: 也许吧，我不知道。</text>
</g>
<!-- 32 -->
<g id="node33" class="node">
<title>32</title>
<ellipse fill="none" stroke="black" cx="566.26" cy="-90" rx="519.66" ry="18"/>
<text text-anchor="middle" x="566.26" y="-84.95" font-family="Times New Roman,serif" font-size="14.00">Man from Hjelmdall and the Devil Woman: 来自赫姆达尔的男人没空搭理文盲。这本书跟你之间已经结束了。</text>
</g>
<!-- 9&#45;&gt;32 -->
<g id="edge11" class="edge">
<title>9&#45;&gt;32</title>
<path fill="none" stroke="black" d="M911.52,-147.34C846.12,-136.66 754.48,-121.71 682.05,-109.89"/>
<polygon fill="black" stroke="black" points="682.98,-106.5 672.54,-108.34 681.85,-113.41 682.98,-106.5"/>
</g>
<!-- 10 -->
<g id="node11" class="node">
<title>10</title>
<ellipse fill="none" stroke="black" cx="1875.26" cy="-306" rx="396.31" ry="18"/>
<text text-anchor="middle" x="1875.26" y="-300.95" font-family="Times New Roman,serif" font-size="14.00">You: 我一直希望后面能变好一点，不过写作实在太糟糕，而且还是重复的。</text>
</g>
<!-- 38 -->
<g id="node38" class="node">
<title>38</title>
<ellipse fill="none" stroke="black" cx="1223.26" cy="-234" rx="460.8" ry="18"/>
<text text-anchor="middle" x="1223.26" y="-228.95" font-family="Times New Roman,serif" font-size="14.00">Man from Hjelmdall and the Devil Woman: 你对文学到底有多少了解，你这辈子到底看过书没有？</text>
</g>
<!-- 10&#45;&gt;38 -->
<g id="edge12" class="edge">
<title>10&#45;&gt;38</title>
<path fill="none" stroke="black" d="M1725.26,-288.9C1624.31,-278.06 1491.21,-263.77 1387.42,-252.63"/>
<polygon fill="black" stroke="black" points="1388.02,-249.17 1377.7,-251.58 1387.27,-256.13 1388.02,-249.17"/>
</g>
<!-- 11 -->
<g id="node12" class="node">
<title>11</title>
<ellipse fill="none" stroke="black" cx="2714.26" cy="-1098" rx="133.24" ry="18"/>
<text text-anchor="middle" x="2714.26" y="-1092.95" font-family="Times New Roman,serif" font-size="14.00">You: 我们给它个机会……</text>
</g>
<!-- 17 -->
<g id="node18" class="node">
<title>17</title>
<ellipse fill="none" stroke="black" cx="2685.26" cy="-1026" rx="1072.92" ry="18"/>
<text text-anchor="middle" x="2685.26" y="-1020.95" font-family="Times New Roman,serif" font-size="14.00">Man from Hjelmdall and the Devil Woman: 狂战士的怒火在他天蓝色的眼睛里熊熊燃烧，他给已经逝去许久的赫姆达尔村庄部落带去了光辉与荣耀。乳白色的巨人像冰熊一样咆哮，卡特拉的狂风大声呼喊出它的名字。</text>
</g>
<!-- 11&#45;&gt;17 -->
<g id="edge13" class="edge">
<title>11&#45;&gt;17</title>
<path fill="none" stroke="black" d="M2707.09,-1079.7C2703.96,-1072.15 2700.22,-1063.12 2696.72,-1054.68"/>
<polygon fill="black" stroke="black" points="2699.98,-1053.4 2692.92,-1045.5 2693.51,-1056.08 2699.98,-1053.4"/>
</g>
<!-- 12 -->
<g id="node13" class="node">
<title>12</title>
<ellipse fill="none" stroke="black" cx="2370.26" cy="-1242" rx="352.29" ry="18"/>
<text text-anchor="middle" x="2370.26" y="-1236.95" font-family="Times New Roman,serif" font-size="14.00">Man from Hjelmdall and the Devil Woman: 你翻到了版权页。书是38年写的。</text>
</g>
<!-- 12&#45;&gt;30 -->
<g id="edge14" class="edge">
<title>12&#45;&gt;30</title>
<path fill="none" stroke="black" d="M2370.26,-1223.7C2370.26,-1216.41 2370.26,-1207.73 2370.26,-1199.54"/>
<polygon fill="black" stroke="black" points="2373.76,-1199.62 2370.26,-1189.62 2366.76,-1199.62 2373.76,-1199.62"/>
</g>
<!-- 13&#45;&gt;5 -->
<g id="edge15" class="edge">
<title>13&#45;&gt;5</title>
<path fill="none" stroke="black" d="M5331.39,-1583.7C5335.96,-1575.9 5341.46,-1566.51 5346.54,-1557.83"/>
<polygon fill="black" stroke="black" points="5349.44,-1559.81 5351.47,-1549.41 5343.4,-1556.27 5349.44,-1559.81"/>
</g>
<!-- 14 -->
<g id="node15" class="node">
<title>14</title>
<ellipse fill="none" stroke="black" cx="2438.26" cy="-522" rx="1318.59" ry="18"/>
<text text-anchor="middle" x="2438.26" y="-516.95" font-family="Times New Roman,serif" font-size="14.00">Man from Hjelmdall and the Devil Woman: “‘你的魔咒根本无法与纯洁和意志的力量相抗衡。赫姆达尔的弟兄们将会站立在肉体的罪恶之上，因为它是脆弱而腐败的，然而，我的肉体确是用鲜血和冲突铸造的。’莉迪亚拉女王笑了，嗓音风骚而淫荡，然后她说到……”</text>
</g>
<!-- 44 -->
<g id="node44" class="node">
<title>44</title>
<ellipse fill="none" stroke="black" cx="2249.26" cy="-450" rx="1548.39" ry="18"/>
<text text-anchor="middle" x="2249.26" y="-444.95" font-family="Times New Roman,serif" font-size="14.00">Man from Hjelmdall and the Devil Woman: “‘我为你准备了一个宏伟的计划，来自赫姆达尔的男人。’她伸出恶魔之手，朝着一大堆药剂和油膏比了个手势。‘首先你要取悦我，然后带领我的军队去跟邪恶的食人族战斗。’来自赫姆达尔的男人的面部毫无波澜，不过内心却在骚动——这违反了他奉若神明的一切。”</text>
</g>
<!-- 14&#45;&gt;44 -->
<g id="edge16" class="edge">
<title>14&#45;&gt;44</title>
<path fill="none" stroke="black" d="M2391.05,-503.52C2365.47,-494.04 2333.66,-482.26 2306.66,-472.26"/>
<polygon fill="black" stroke="black" points="2308.2,-469.1 2297.61,-468.91 2305.77,-475.66 2308.2,-469.1"/>
</g>
<!-- 18 -->
<g id="node19" class="node">
<title>18</title>
<ellipse fill="none" stroke="black" cx="2626.26" cy="-594" rx="1452.17" ry="18"/>
<text text-anchor="middle" x="2626.26" y="-588.95" font-family="Times New Roman,serif" font-size="14.00">Man from Hjelmdall and the Devil Woman: 有一个段落是这么写的：“来自赫姆达尔的男人抬起头，蓝色的眼睛宛如故土山中的湖泊。他很少说话，但是此时此刻，他的声音在黑暗的王宫大殿里轰鸣：‘别想吸干我的阳气，你这个邪恶的妖妇！赫姆达尔的子孙永远不会屈服于你诱人的诡计。’”</text>
</g>
<!-- 15&#45;&gt;18 -->
<g id="edge17" class="edge">
<title>15&#45;&gt;18</title>
<path fill="none" stroke="black" d="M2626.26,-647.7C2626.26,-640.41 2626.26,-631.73 2626.26,-623.54"/>
<polygon fill="black" stroke="black" points="2629.76,-623.62 2626.26,-613.62 2622.76,-623.62 2629.76,-623.62"/>
</g>
<!-- 43 -->
<g id="node43" class="node">
<title>43</title>
<ellipse fill="none" stroke="black" cx="4675.26" cy="-1746" rx="43.16" ry="18"/>
<text text-anchor="middle" x="4675.26" y="-1740.95" font-family="Times New Roman,serif" font-size="14.00">bookhub</text>
</g>
<!-- 16&#45;&gt;43 -->
<g id="edge18" class="edge">
<title>16&#45;&gt;43</title>
<path fill="none" stroke="black" d="M1325.97,-1807.85C2275.19,-1790.6 4265.62,-1754.44 4620.53,-1747.99"/>
<polygon fill="black" stroke="black" points="4620.53,-1751.49 4630.47,-1747.81 4620.41,-1744.5 4620.53,-1751.49"/>
</g>
<!-- 17&#45;&gt;2 -->
<g id="edge19" class="edge">
<title>17&#45;&gt;2</title>
<path fill="none" stroke="black" d="M2414.89,-1008.12C2130.38,-987.83 1716.09,-950.17 1661.26,-900 1644.84,-884.99 1640.74,-859.57 1640.36,-839.73"/>
<polygon fill="black" stroke="black" points="1643.86,-839.81 1640.51,-829.76 1636.86,-839.7 1643.86,-839.81"/>
</g>
<!-- 19 -->
<g id="node20" class="node">
<title>19</title>
<ellipse fill="none" stroke="black" cx="2656.26" cy="-954" rx="102.02" ry="18"/>
<text text-anchor="middle" x="2656.26" y="-948.95" font-family="Times New Roman,serif" font-size="14.00">You: 再接着看看！</text>
</g>
<!-- 17&#45;&gt;19 -->
<g id="edge20" class="edge">
<title>17&#45;&gt;19</title>
<path fill="none" stroke="black" d="M2678.09,-1007.7C2674.96,-1000.15 2671.22,-991.12 2667.72,-982.68"/>
<polygon fill="black" stroke="black" points="2670.98,-981.4 2663.92,-973.5 2664.51,-984.08 2670.98,-981.4"/>
</g>
<!-- 18&#45;&gt;14 -->
<g id="edge21" class="edge">
<title>18&#45;&gt;14</title>
<path fill="none" stroke="black" d="M2579.3,-575.52C2553.97,-566.08 2522.5,-554.37 2495.71,-544.39"/>
<polygon fill="black" stroke="black" points="2496.95,-541.12 2486.36,-540.91 2494.51,-547.68 2496.95,-541.12"/>
</g>
<!-- 45 -->
<g id="node45" class="node">
<title>45</title>
<ellipse fill="none" stroke="black" cx="2649.26" cy="-882" rx="978.75" ry="18"/>
<text text-anchor="middle" x="2649.26" y="-876.95" font-family="Times New Roman,serif" font-size="14.00">Man from Hjelmdall and the Devil Woman: 来自赫姆达尔的男人骑上一头镀金的格里芬，金色的鬓毛在微风中飘扬。两把双手剑都挂在他的背后，他要奔赴战场。他能否征服敌人？他能否战胜自己？</text>
</g>
<!-- 19&#45;&gt;45 -->
<g id="edge22" class="edge">
<title>19&#45;&gt;45</title>
<path fill="none" stroke="black" d="M2654.52,-935.7C2653.8,-928.41 2652.93,-919.73 2652.11,-911.54"/>
<polygon fill="black" stroke="black" points="2655.59,-911.21 2651.12,-901.61 2648.63,-911.91 2655.59,-911.21"/>
</g>
<!-- 20 -->
<g id="node21" class="node">
<title>20</title>
<ellipse fill="none" stroke="black" cx="722.26" cy="-306" rx="160.88" ry="18"/>
<text text-anchor="middle" x="722.26" y="-300.95" font-family="Times New Roman,serif" font-size="14.00">You: 我受够了。（合上书。）</text>
</g>
<!-- 31 -->
<g id="node32" class="node">
<title>31</title>
<ellipse fill="none" stroke="black" cx="372.26" cy="-234" rx="372.26" ry="18"/>
<text text-anchor="middle" x="372.26" y="-228.95" font-family="Times New Roman,serif" font-size="14.00">Jump to: [Man from Hjelmdall and the Devil Woman: &quot;The edges of the pages are worn and...&quot;]</text>
</g>
<!-- 20&#45;&gt;31 -->
<g id="edge23" class="edge">
<title>20&#45;&gt;31</title>
<path fill="none" stroke="black" d="M645.88,-289.72C593.65,-279.28 524.01,-265.35 468.06,-254.16"/>
<polygon fill="black" stroke="black" points="469.03,-250.79 458.54,-252.26 467.66,-257.65 469.03,-250.79"/>
</g>
<!-- 21 -->
<g id="node22" class="node">
<title>21</title>
<ellipse fill="none" stroke="black" cx="2892.26" cy="-234" rx="1190.12" ry="18"/>
<text text-anchor="middle" x="2892.26" y="-228.95" font-family="Times New Roman,serif" font-size="14.00">Man from Hjelmdall and the Devil Woman: 在这本书的最后几页，来自赫姆达尔的男人骑上了加拉沃恩——他那头威风的格里芬——并将目光投向远方。莉迪亚女王已逝，但食人族的大军仍在冲击城门，还是没有任何关于提尔巴德的消息……</text>
</g>
<!-- 26 -->
<g id="node27" class="node">
<title>26</title>
<ellipse fill="none" stroke="black" cx="3121.26" cy="-162" rx="666.54" ry="18"/>
<text text-anchor="middle" x="3121.26" y="-156.95" font-family="Times New Roman,serif" font-size="14.00">Man from Hjelmdall and the Devil Woman: 欲知后事如何，请购买“来自赫姆达尔的男人与三眼骷髅”，39年春季，所有精品书店正式发售。</text>
</g>
<!-- 21&#45;&gt;26 -->
<g id="edge24" class="edge">
<title>21&#45;&gt;26</title>
<path fill="none" stroke="black" d="M2949.16,-215.61C2980.69,-205.97 3020.11,-193.92 3053.27,-183.78"/>
<polygon fill="black" stroke="black" points="3054.26,-187.14 3062.8,-180.87 3052.22,-180.44 3054.26,-187.14"/>
</g>
<!-- 22 -->
<g id="node23" class="node">
<title>22</title>
<ellipse fill="none" stroke="black" cx="3519.26" cy="-1674" rx="149.11" ry="18"/>
<text text-anchor="middle" x="3519.26" y="-1668.95" font-family="Times New Roman,serif" font-size="14.00">You: 是时候翻阅这本书了。</text>
</g>
<!-- 40 -->
<g id="node40" class="node">
<title>40</title>
<ellipse fill="none" stroke="black" cx="3105.26" cy="-1602" rx="919.89" ry="18"/>
<text text-anchor="middle" x="3105.26" y="-1596.95" font-family="Times New Roman,serif" font-size="14.00">Man from Hjelmdall and the Devil Woman: 你随便翻开了这本书的某一页。来自赫姆达尔的男人正挥舞着两把双手大剑，在蛮族的人山人海中浴血奋战，他的表情坚定，满是不屈的决心。</text>
</g>
<!-- 22&#45;&gt;40 -->
<g id="edge25" class="edge">
<title>22&#45;&gt;40</title>
<path fill="none" stroke="black" d="M3434.98,-1658.75C3372.72,-1648.22 3287.28,-1633.78 3218.97,-1622.23"/>
<polygon fill="black" stroke="black" points="3219.67,-1618.8 3209.22,-1620.58 3218.5,-1625.7 3219.67,-1618.8"/>
</g>
<!-- 23&#45;&gt;16 -->
<g id="edge26" class="edge">
<title>23&#45;&gt;16</title>
<path fill="none" stroke="black" d="M1113.54,-755.67C995.37,-777.07 822.26,-819.01 822.26,-881 822.26,-1675 822.26,-1675 822.26,-1675 822.26,-1714.26 822.26,-1759.62 822.26,-1788.31"/>
<polygon fill="black" stroke="black" points="818.76,-1788 822.26,-1798 825.76,-1788 818.76,-1788"/>
</g>
<!-- 24 -->
<g id="node25" class="node">
<title>24</title>
<ellipse fill="none" stroke="black" cx="784.26" cy="-594" rx="372.26" ry="18"/>
<text text-anchor="middle" x="784.26" y="-588.95" font-family="Times New Roman,serif" font-size="14.00">Jump to: [Man from Hjelmdall and the Devil Woman: &quot;The edges of the pages are worn and...&quot;]</text>
</g>
<!-- 24&#45;&gt;16 -->
<g id="edge27" class="edge">
<title>24&#45;&gt;16</title>
<path fill="none" stroke="black" d="M784.26,-612.49C784.26,-639.29 784.26,-692.13 784.26,-737 784.26,-1675 784.26,-1675 784.26,-1675 784.26,-1715.82 799.09,-1761.07 810.22,-1789.28"/>
<polygon fill="black" stroke="black" points="806.97,-1790.57 813.99,-1798.51 813.45,-1787.92 806.97,-1790.57"/>
</g>
<!-- 25 -->
<g id="node26" class="node">
<title>25</title>
<ellipse fill="none" stroke="black" cx="2422.26" cy="-1314" rx="400.92" ry="18"/>
<text text-anchor="middle" x="2422.26" y="-1308.95" font-family="Times New Roman,serif" font-size="14.00">Rhetoric: 天啦，这玩意简直是文学的退化。这些鬼东西是什么时候写出来的？</text>
</g>
<!-- 25&#45;&gt;12 -->
<g id="edge28" class="edge">
<title>25&#45;&gt;12</title>
<path fill="none" stroke="black" d="M2409.4,-1295.7C2403.48,-1287.73 2396.33,-1278.1 2389.77,-1269.26"/>
<polygon fill="black" stroke="black" points="2392.64,-1267.26 2383.86,-1261.32 2387.02,-1271.43 2392.64,-1267.26"/>
</g>
<!-- 47 -->
<g id="node47" class="node">
<title>47</title>
<ellipse fill="none" stroke="black" cx="4071.26" cy="-90" rx="84.62" ry="18"/>
<text text-anchor="middle" x="4071.26" y="-84.95" font-family="Times New Roman,serif" font-size="14.00">Jump to: [bookhub]</text>
</g>
<!-- 26&#45;&gt;47 -->
<g id="edge29" class="edge">
<title>26&#45;&gt;47</title>
<path fill="none" stroke="black" d="M3344.29,-144.57C3546.94,-129.63 3835.7,-108.36 3980.75,-97.67"/>
<polygon fill="black" stroke="black" points="3980.99,-101.16 3990.7,-96.94 3980.47,-94.18 3980.99,-101.16"/>
</g>
<!-- 27 -->
<g id="node28" class="node">
<title>27</title>
<ellipse fill="none" stroke="black" cx="2976.26" cy="-1458" rx="166.51" ry="18"/>
<text text-anchor="middle" x="2976.26" y="-1452.95" font-family="Times New Roman,serif" font-size="14.00">IsTHCPresent(&quot;revacholian_nationhood&quot;)</text>
</g>
<!-- 28 -->
<g id="node29" class="node">
<title>28</title>
<polygon fill="none" stroke="black" points="2976.26,-1404 2740.78,-1386 2976.26,-1368 3211.73,-1386 2976.26,-1404"/>
<text text-anchor="middle" x="2976.26" y="-1380.95" font-family="Times New Roman,serif" font-size="14.00">IsTHCPresent(&quot;revacholian_nationhood&quot;)</text>
</g>
<!-- 27&#45;&gt;28 -->
<g id="edge30" class="edge">
<title>27&#45;&gt;28</title>
<path fill="none" stroke="black" d="M2976.26,-1439.7C2976.26,-1432.41 2976.26,-1423.73 2976.26,-1415.54"/>
<polygon fill="black" stroke="black" points="2979.76,-1415.62 2976.26,-1405.62 2972.76,-1415.62 2979.76,-1415.62"/>
</g>
<!-- 29 -->
<g id="node30" class="node">
<title>29</title>
<polygon fill="none" stroke="black" points="2448.26,-1404 2199.75,-1386 2448.26,-1368 2696.76,-1386 2448.26,-1404"/>
<text text-anchor="middle" x="2448.26" y="-1380.95" font-family="Times New Roman,serif" font-size="14.00">!(IsTHCPresent(&quot;revacholian_nationhood&quot;))</text>
</g>
<!-- 27&#45;&gt;29 -->
<g id="edge31" class="edge">
<title>27&#45;&gt;29</title>
<path fill="none" stroke="black" d="M2873.83,-1443.42C2778.68,-1430.81 2638.04,-1412.16 2544.82,-1399.8"/>
<polygon fill="black" stroke="black" points="2545.28,-1396.33 2534.91,-1398.49 2544.36,-1403.27 2545.28,-1396.33"/>
</g>
<!-- 28&#45;&gt;6 -->
<g id="edge32" class="edge">
<title>28&#45;&gt;6</title>
<path fill="none" stroke="black" d="M2976.26,-1367.59C2976.26,-1343.61 2976.26,-1300.14 2976.26,-1271.42"/>
<polygon fill="black" stroke="black" points="2979.76,-1271.62 2976.26,-1261.62 2972.76,-1271.62 2979.76,-1271.62"/>
</g>
<!-- 29&#45;&gt;25 -->
<g id="edge33" class="edge">
<title>29&#45;&gt;25</title>
<path fill="none" stroke="black" d="M2441.96,-1368.05C2439.16,-1360.52 2435.79,-1351.44 2432.63,-1342.94"/>
<polygon fill="black" stroke="black" points="2435.96,-1341.85 2429.2,-1333.69 2429.4,-1344.29 2435.96,-1341.85"/>
</g>
<!-- 30&#45;&gt;3 -->
<g id="edge34" class="edge">
<title>30&#45;&gt;3</title>
<path fill="none" stroke="black" d="M2334.45,-1165.24C2240.78,-1155.39 1985.03,-1128.51 1829.64,-1112.18"/>
<polygon fill="black" stroke="black" points="1830.44,-1108.74 1820.13,-1111.18 1829.71,-1115.71 1830.44,-1108.74"/>
</g>
<!-- 30&#45;&gt;11 -->
<g id="edge36" class="edge">
<title>30&#45;&gt;11</title>
<path fill="none" stroke="black" d="M2403.87,-1162.16C2456.21,-1151.51 2558.75,-1130.64 2631.63,-1115.81"/>
<polygon fill="black" stroke="black" points="2632.03,-1119.3 2641.13,-1113.88 2630.63,-1112.44 2632.03,-1119.3"/>
</g>
<!-- 50 -->
<g id="node50" class="node">
<title>50</title>
<ellipse fill="none" stroke="black" cx="2355.26" cy="-1098" rx="207.96" ry="18"/>
<text text-anchor="middle" x="2355.26" y="-1092.95" font-family="Times New Roman,serif" font-size="14.00">You: 该死，真是坚忍不拔，英勇无畏。</text>
</g>
<!-- 30&#45;&gt;50 -->
<g id="edge35" class="edge">
<title>30&#45;&gt;50</title>
<path fill="none" stroke="black" d="M2366.55,-1151.7C2364.97,-1144.32 2363.08,-1135.52 2361.31,-1127.25"/>
<polygon fill="black" stroke="black" points="2364.76,-1126.63 2359.24,-1117.58 2357.91,-1128.1 2364.76,-1126.63"/>
</g>
<!-- 31&#45;&gt;16 -->
<g id="edge37" class="edge">
<title>31&#45;&gt;16</title>
<path fill="none" stroke="black" d="M373.06,-252.48C374.23,-279.28 376.26,-332.11 376.26,-377 376.26,-1675 376.26,-1675 376.26,-1675 376.26,-1738.71 543.59,-1777.65 673.26,-1798.26"/>
<polygon fill="black" stroke="black" points="672.58,-1801.69 683,-1799.78 673.66,-1794.78 672.58,-1801.69"/>
</g>
<!-- 32&#45;&gt;34 -->
<g id="edge38" class="edge">
<title>32&#45;&gt;34</title>
<path fill="none" stroke="black" d="M887.69,-75.46C1273.92,-59.19 1899.33,-32.85 2134.7,-22.94"/>
<polygon fill="black" stroke="black" points="2134.59,-26.45 2144.43,-22.53 2134.29,-19.45 2134.59,-26.45"/>
</g>
<!-- 33 -->
<g id="node34" class="node">
<title>33</title>
<ellipse fill="none" stroke="black" cx="4675.26" cy="-1674" rx="113.79" ry="18"/>
<text text-anchor="middle" x="4675.26" y="-1668.95" font-family="Times New Roman,serif" font-size="14.00">You: 把书放在一边。</text>
</g>
<!-- 34&#45;&gt;43 -->
<g id="edge39" class="edge">
<title>34&#45;&gt;43</title>
<path fill="none" stroke="black" d="M2313.04,-19.49C2919.18,-23.22 6570.26,-50.34 6570.26,-161 6570.26,-1603 6570.26,-1603 6570.26,-1603 6570.26,-1797.29 6335.38,-1670.75 6142.26,-1692 5860.58,-1722.99 4961.26,-1740.13 4729.93,-1744.1"/>
<polygon fill="black" stroke="black" points="4729.93,-1740.6 4719.99,-1744.27 4730.05,-1747.6 4729.93,-1740.6"/>
</g>
<!-- 35 -->
<g id="node36" class="node">
<title>35</title>
<ellipse fill="none" stroke="black" cx="2641.26" cy="-810" rx="90.25" ry="18"/>
<text text-anchor="middle" x="2641.26" y="-804.95" font-family="Times New Roman,serif" font-size="14.00">You: 勇往直前！</text>
</g>
<!-- 35&#45;&gt;8 -->
<g id="edge40" class="edge">
<title>35&#45;&gt;8</title>
<path fill="none" stroke="black" d="M2637.55,-791.7C2635.97,-784.32 2634.08,-775.52 2632.31,-767.25"/>
<polygon fill="black" stroke="black" points="2635.76,-766.63 2630.24,-757.58 2628.91,-768.1 2635.76,-766.63"/>
</g>
<!-- 36&#45;&gt;43 -->
<g id="edge41" class="edge">
<title>36&#45;&gt;43</title>
<path fill="none" stroke="black" d="M6012.24,-1462.88C6154.27,-1470.21 6434.58,-1487.56 6472.26,-1512 6482.92,-1518.92 6545.08,-1585.93 6513.26,-1620 6450.73,-1686.92 5028.52,-1734.16 4729.94,-1743.36"/>
<polygon fill="black" stroke="black" points="4729.98,-1739.86 4720.09,-1743.66 4730.19,-1746.86 4729.98,-1739.86"/>
</g>
<!-- 38&#45;&gt;9 -->
<g id="edge44" class="edge">
<title>38&#45;&gt;9</title>
<path fill="none" stroke="black" d="M1166.9,-215.7C1133.93,-205.58 1092.25,-192.78 1058.21,-182.33"/>
<polygon fill="black" stroke="black" points="1059.49,-179.06 1048.9,-179.47 1057.43,-185.75 1059.49,-179.06"/>
</g>
<!-- 41 -->
<g id="node41" class="node">
<title>41</title>
<ellipse fill="none" stroke="black" cx="1467.26" cy="-162" rx="102.02" ry="18"/>
<text text-anchor="middle" x="1467.26" y="-156.95" font-family="Times New Roman,serif" font-size="14.00">You: 我当然有了。</text>
</g>
<!-- 38&#45;&gt;41 -->
<g id="edge43" class="edge">
<title>38&#45;&gt;41</title>
<path fill="none" stroke="black" d="M1283.57,-215.7C1320.43,-205.12 1367.49,-191.62 1404.75,-180.93"/>
<polygon fill="black" stroke="black" points="1405.38,-184.39 1414.02,-178.27 1403.45,-177.66 1405.38,-184.39"/>
</g>
<!-- 46 -->
<g id="node46" class="node">
<title>46</title>
<ellipse fill="none" stroke="black" cx="2045.26" cy="-162" rx="325.68" ry="18"/>
<text text-anchor="middle" x="2045.26" y="-156.95" font-family="Times New Roman,serif" font-size="14.00">You: 不好意思，我对批判性分析还是略知一二的。还有艺术。</text>
</g>
<!-- 38&#45;&gt;46 -->
<g id="edge42" class="edge">
<title>38&#45;&gt;46</title>
<path fill="none" stroke="black" d="M1410.04,-217.09C1545.27,-205.58 1727.18,-190.09 1861.67,-178.63"/>
<polygon fill="black" stroke="black" points="1861.72,-182.14 1871.39,-177.81 1861.13,-175.17 1861.72,-182.14"/>
</g>
<!-- 39&#45;&gt;24 -->
<g id="edge45" class="edge">
<title>39&#45;&gt;24</title>
<path fill="none" stroke="black" d="M1430.04,-653.48C1303.59,-642.03 1108.41,-624.35 965.71,-611.43"/>
<polygon fill="black" stroke="black" points="966.45,-607.98 956.18,-610.57 965.82,-614.96 966.45,-607.98"/>
</g>
<!-- 48 -->
<g id="node48" class="node">
<title>48</title>
<ellipse fill="none" stroke="black" cx="2990.26" cy="-1530" rx="625.6" ry="18"/>
<text text-anchor="middle" x="2990.26" y="-1524.95" font-family="Times New Roman,serif" font-size="14.00">Man from Hjelmdall and the Devil Woman: 他的胳膊像风車一样挥舞着，上面沾满了敌人的鲜血。严重损毁的尸体散落在战场上。</text>
</g>
<!-- 40&#45;&gt;48 -->
<g id="edge46" class="edge">
<title>40&#45;&gt;48</title>
<path fill="none" stroke="black" d="M3076.53,-1583.52C3061.88,-1574.6 3043.86,-1563.63 3028.09,-1554.03"/>
<polygon fill="black" stroke="black" points="3030.27,-1551.26 3019.9,-1549.05 3026.63,-1557.24 3030.27,-1551.26"/>
</g>
<!-- 52 -->
<g id="node52" class="node">
<title>52</title>
<ellipse fill="none" stroke="black" cx="1682.26" cy="-90" rx="578.51" ry="18"/>
<text text-anchor="middle" x="1682.26" y="-84.95" font-family="Times New Roman,serif" font-size="14.00">Man from Hjelmdall and the Devil Woman: 这不是普通的书。这是来自赫姆达尔的男人。而且它跟你已经没什么好说了。</text>
</g>
<!-- 41&#45;&gt;52 -->
<g id="edge47" class="edge">
<title>41&#45;&gt;52</title>
<path fill="none" stroke="black" d="M1514.44,-145.64C1544.89,-135.72 1584.88,-122.7 1618.19,-111.86"/>
<polygon fill="black" stroke="black" points="1618.89,-115.31 1627.31,-108.89 1616.72,-108.66 1618.89,-115.31"/>
</g>
<!-- 42 -->
<g id="node42" class="node">
<title>42</title>
<ellipse fill="none" stroke="black" cx="2062.26" cy="-378" rx="210.01" ry="18"/>
<text text-anchor="middle" x="2062.26" y="-372.95" font-family="Times New Roman,serif" font-size="14.00">Conceptualization: *这个*已经超出原始了。</text>
</g>
<!-- 42&#45;&gt;10 -->
<g id="edge48" class="edge">
<title>42&#45;&gt;10</title>
<path fill="none" stroke="black" d="M2016.99,-360.05C1991.41,-350.48 1959.21,-338.43 1931.97,-328.23"/>
<polygon fill="black" stroke="black" points="1933.41,-325.03 1922.82,-324.81 1930.96,-331.59 1933.41,-325.03"/>
</g>
<!-- 42&#45;&gt;20 -->
<g id="edge50" class="edge">
<title>42&#45;&gt;20</title>
<path fill="none" stroke="black" d="M1886.73,-367.83C1622.68,-354.04 1127.54,-328.17 876.55,-315.06"/>
<polygon fill="black" stroke="black" points="876.83,-311.57 866.67,-314.54 876.47,-318.56 876.83,-311.57"/>
</g>
<!-- 51 -->
<g id="node51" class="node">
<title>51</title>
<ellipse fill="none" stroke="black" cx="2603.26" cy="-306" rx="168.56" ry="18"/>
<text text-anchor="middle" x="2603.26" y="-300.95" font-family="Times New Roman,serif" font-size="14.00">You: 哇哦……这真是一部史诗！</text>
</g>
<!-- 42&#45;&gt;51 -->
<g id="edge49" class="edge">
<title>42&#45;&gt;51</title>
<path fill="none" stroke="black" d="M2175.01,-362.41C2266.57,-350.56 2395.19,-333.92 2487.54,-321.97"/>
<polygon fill="black" stroke="black" points="2487.93,-325.45 2497.4,-320.7 2487.03,-318.51 2487.93,-325.45"/>
</g>
<!-- 43&#45;&gt;4 -->
<g id="edge52" class="edge">
<title>43&#45;&gt;4</title>
<path fill="none" stroke="black" d="M4714.92,-1738.6C4785.93,-1727.15 4936.04,-1702.94 5029.2,-1687.91"/>
<polygon fill="black" stroke="black" points="5029.74,-1691.37 5039.05,-1686.32 5028.62,-1684.46 5029.74,-1691.37"/>
</g>
<!-- 43&#45;&gt;22 -->
<g id="edge53" class="edge">
<title>43&#45;&gt;22</title>
<path fill="none" stroke="black" d="M4632.74,-1742.43C4475.83,-1732.92 3924.72,-1699.55 3661.4,-1683.61"/>
<polygon fill="black" stroke="black" points="3661.94,-1680.13 3651.75,-1683.02 3661.52,-1687.12 3661.94,-1680.13"/>
</g>
<!-- 43&#45;&gt;33 -->
<g id="edge51" class="edge">
<title>43&#45;&gt;33</title>
<path fill="none" stroke="black" d="M4675.26,-1727.7C4675.26,-1720.41 4675.26,-1711.73 4675.26,-1703.54"/>
<polygon fill="black" stroke="black" points="4678.76,-1703.62 4675.26,-1693.62 4671.76,-1703.62 4678.76,-1703.62"/>
</g>
<!-- 44&#45;&gt;42 -->
<g id="edge54" class="edge">
<title>44&#45;&gt;42</title>
<path fill="none" stroke="black" d="M2202.55,-431.52C2176.95,-421.94 2145.06,-410 2118.15,-399.92"/>
<polygon fill="black" stroke="black" points="2119.73,-396.78 2109.14,-396.55 2117.28,-403.33 2119.73,-396.78"/>
</g>
<!-- 45&#45;&gt;2 -->
<g id="edge55" class="edge">
<title>45&#45;&gt;2</title>
<path fill="none" stroke="black" d="M2406.13,-864.1C2224.21,-851.45 1979.72,-834.46 1816.85,-823.14"/>
<polygon fill="black" stroke="black" points="1817.49,-819.67 1807.27,-822.47 1817,-826.66 1817.49,-819.67"/>
</g>
<!-- 45&#45;&gt;35 -->
<g id="edge56" class="edge">
<title>45&#45;&gt;35</title>
<path fill="none" stroke="black" d="M2647.28,-863.7C2646.44,-856.41 2645.45,-847.73 2644.52,-839.54"/>
<polygon fill="black" stroke="black" points="2647.99,-839.15 2643.38,-829.61 2641.04,-839.94 2647.99,-839.15"/>
</g>
<!-- 46&#45;&gt;7 -->
<g id="edge57" class="edge">
<title>46&#45;&gt;7</title>
<path fill="none" stroke="black" d="M2203.2,-145.85C2317.95,-134.85 2473.49,-119.94 2593.42,-108.44"/>
<polygon fill="black" stroke="black" points="2593.42,-111.95 2603.04,-107.51 2592.75,-104.98 2593.42,-111.95"/>
</g>
<!-- 47&#45;&gt;43 -->
<g id="edge58" class="edge">
<title>47&#45;&gt;43</title>
<path fill="none" stroke="black" d="M4079.15,-108.07C4090.54,-134.33 4110.26,-186.47 4110.26,-233 4110.26,-1603 4110.26,-1603 4110.26,-1603 4110.26,-1707.65 4479.43,-1735.9 4620.94,-1742.88"/>
<polygon fill="black" stroke="black" points="4620.66,-1746.37 4630.81,-1743.35 4620.99,-1739.38 4620.66,-1746.37"/>
</g>
<!-- 48&#45;&gt;27 -->
<g id="edge59" class="edge">
<title>48&#45;&gt;27</title>
<path fill="none" stroke="black" d="M2986.79,-1511.7C2985.32,-1504.32 2983.56,-1495.52 2981.91,-1487.25"/>
<polygon fill="black" stroke="black" points="2985.37,-1486.71 2979.97,-1477.59 2978.5,-1488.08 2985.37,-1486.71"/>
</g>
<!-- 49&#45;&gt;16 -->
<g id="edge60" class="edge">
<title>49&#45;&gt;16</title>
<path fill="none" stroke="black" d="M1166.97,-1044.21C1113.74,-1064.62 1041.26,-1104.3 1041.26,-1169 1041.26,-1675 1041.26,-1675 1041.26,-1675 1041.26,-1739.87 972.77,-1776.59 912.4,-1796.36"/>
<polygon fill="black" stroke="black" points="911.57,-1792.96 903.07,-1799.29 913.66,-1799.64 911.57,-1792.96"/>
</g>
<!-- 50&#45;&gt;17 -->
<g id="edge61" class="edge">
<title>50&#45;&gt;17</title>
<path fill="none" stroke="black" d="M2431.38,-1080.85C2479.26,-1070.7 2541.37,-1057.52 2592.17,-1046.74"/>
<polygon fill="black" stroke="black" points="2592.63,-1050.23 2601.68,-1044.73 2591.17,-1043.38 2592.63,-1050.23"/>
</g>
<!-- 51&#45;&gt;21 -->
<g id="edge62" class="edge">
<title>51&#45;&gt;21</title>
<path fill="none" stroke="black" d="M2669.2,-289.03C2710.74,-278.97 2764.73,-265.89 2809.18,-255.12"/>
<polygon fill="black" stroke="black" points="2809.9,-258.55 2818.8,-252.79 2808.25,-251.75 2809.9,-258.55"/>
</g>
<!-- 52&#45;&gt;34 -->
<g id="edge63" class="edge">
<title>52&#45;&gt;34</title>
<path fill="none" stroke="black" d="M1814.77,-72.01C1918.04,-58.77 2058.16,-40.81 2145.87,-29.56"/>
<polygon fill="black" stroke="black" points="2146.12,-33.06 2155.59,-28.32 2145.23,-26.12 2146.12,-33.06"/>
</g>
</g>
</svg>
