<?xml version="1.0" encoding="UTF-8" standalone="no"?>
<!DOCTYPE svg PUBLIC "-//W3C//DTD SVG 1.1//EN"
 "http://www.w3.org/Graphics/SVG/1.1/DTD/svg11.dtd">
<!-- Generated by graphviz version 12.2.1 (20241206.2353)
 -->
<!-- Title: G Pages: 1 -->
<svg width="10172pt" height="1052pt"
 viewBox="0.00 0.00 10171.70 1052.00" xmlns="http://www.w3.org/2000/svg" xmlns:xlink="http://www.w3.org/1999/xlink">
<g id="graph0" class="graph" transform="scale(1 1) rotate(0) translate(4 1048)">
<title>G</title>
<polygon fill="white" stroke="none" points="-4,4 -4,-1048 10167.7,-1048 10167.7,4 -4,4"/>
<!-- 0 -->
<g id="node1" class="node">
<title>0</title>
<ellipse fill="none" stroke="black" cx="3499.77" cy="-1026" rx="39.07" ry="18"/>
<text text-anchor="middle" x="3499.77" y="-1020.95" font-family="Times New Roman,serif" font-size="14.00">START</text>
</g>
<!-- 0&#45;&gt;0 -->
<g id="edge1" class="edge">
<title>0&#45;&gt;0</title>
<path fill="none" stroke="black" d="M3527.95,-1038.94C3543.07,-1041.14 3556.83,-1036.83 3556.83,-1026 3556.83,-1017.96 3549.25,-1013.52 3539.16,-1012.65"/>
<polygon fill="black" stroke="black" points="3539.34,-1009.15 3529.47,-1013 3539.59,-1016.14 3539.34,-1009.15"/>
</g>
<!-- 1 -->
<g id="node2" class="node">
<title>1</title>
<ellipse fill="none" stroke="black" cx="3604.77" cy="-1026" rx="29.86" ry="18"/>
<text text-anchor="middle" x="3604.77" y="-1020.95" font-family="Times New Roman,serif" font-size="14.00">input</text>
</g>
<!-- 24 -->
<g id="node25" class="node">
<title>24</title>
<ellipse fill="none" stroke="black" cx="4205.77" cy="-954" rx="1040.68" ry="18"/>
<text text-anchor="middle" x="4205.77" y="-948.95" font-family="Times New Roman,serif" font-size="14.00">From A to Zrieek! A Guide To a Well&#45;Behaved Cockatoo: 宠物主人还报告说喜怒无常，吵闹，敌对情绪的状况会反复出现。如果凤头鹦鹉不满意，它们可能会无休无止的尖叫，拔自己的羽毛，或者变得很有攻击性。</text>
</g>
<!-- 1&#45;&gt;24 -->
<g id="edge2" class="edge">
<title>1&#45;&gt;24</title>
<path fill="none" stroke="black" d="M3634.16,-1021.58C3707.7,-1013.01 3903.93,-990.16 4045.97,-973.61"/>
<polygon fill="black" stroke="black" points="4046.36,-977.09 4055.89,-972.46 4045.55,-970.14 4046.36,-977.09"/>
</g>
<!-- 2 -->
<g id="node3" class="node">
<title>2</title>
<ellipse fill="none" stroke="black" cx="8608.77" cy="-450" rx="125.56" ry="18"/>
<text text-anchor="middle" x="8608.77" y="-444.95" font-family="Times New Roman,serif" font-size="14.00">You: 好吧。还有什么？</text>
</g>
<!-- 19 -->
<g id="node20" class="node">
<title>19</title>
<ellipse fill="none" stroke="black" cx="8663.77" cy="-378" rx="235.09" ry="18"/>
<text text-anchor="middle" x="8663.77" y="-372.95" font-family="Times New Roman,serif" font-size="14.00">Perception (Hearing): 哎哟。那可就有些伤人了。</text>
</g>
<!-- 2&#45;&gt;19 -->
<g id="edge3" class="edge">
<title>2&#45;&gt;19</title>
<path fill="none" stroke="black" d="M8622.36,-431.7C8628.69,-423.64 8636.35,-413.89 8643.35,-404.98"/>
<polygon fill="black" stroke="black" points="8645.97,-407.32 8649.39,-397.29 8640.46,-403 8645.97,-407.32"/>
</g>
<!-- 3 -->
<g id="node4" class="node">
<title>3</title>
<ellipse fill="none" stroke="black" cx="5786.77" cy="-1026" rx="250.96" ry="18"/>
<text text-anchor="middle" x="5786.77" y="-1020.95" font-family="Times New Roman,serif" font-size="14.00">You: 说实在的，这只鸟听起来确实跟我很像……</text>
</g>
<!-- 34 -->
<g id="node35" class="node">
<title>34</title>
<ellipse fill="none" stroke="black" cx="5786.77" cy="-954" rx="522.73" ry="18"/>
<text text-anchor="middle" x="5786.77" y="-948.95" font-family="Times New Roman,serif" font-size="14.00">From A to Zrieek! A Guide To a Well&#45;Behaved Cockatoo: 是的，不过凤头鹦鹉那些种类都很不一样！你是哪一种？</text>
</g>
<!-- 3&#45;&gt;34 -->
<g id="edge4" class="edge">
<title>3&#45;&gt;34</title>
<path fill="none" stroke="black" d="M5780.85,-1007.7C5780.1,-1000.41 5779.86,-991.73 5780.12,-983.54"/>
<polygon fill="black" stroke="black" points="5783.61,-983.82 5780.77,-973.61 5776.62,-983.36 5783.61,-983.82"/>
</g>
<!-- 4 -->
<g id="node5" class="node">
<title>4</title>
<ellipse fill="none" stroke="black" cx="1961.77" cy="-666" rx="88.71" ry="18"/>
<text text-anchor="middle" x="1961.77" y="-660.95" font-family="Times New Roman,serif" font-size="14.00">choose cockatoo hub</text>
</g>
<!-- 5 -->
<g id="node6" class="node">
<title>5</title>
<ellipse fill="none" stroke="black" cx="2828.77" cy="-594" rx="124.54" ry="18"/>
<text text-anchor="middle" x="2828.77" y="-588.95" font-family="Times New Roman,serif" font-size="14.00">Jump to: [readininventoryhub]</text>
</g>
<!-- 4&#45;&gt;5 -->
<g id="edge5" class="edge">
<title>4&#45;&gt;5</title>
<path fill="none" stroke="black" d="M2044.53,-659.13C2173.94,-649.84 2432.03,-630.86 2650.77,-612 2672.1,-610.16 2694.86,-608.08 2716.73,-606.02"/>
<polygon fill="black" stroke="black" points="2716.94,-609.51 2726.56,-605.09 2716.28,-602.54 2716.94,-609.51"/>
</g>
<!-- 15 -->
<g id="node16" class="node">
<title>15</title>
<ellipse fill="none" stroke="black" cx="1120.77" cy="-594" rx="307.26" ry="18"/>
<text text-anchor="middle" x="1120.77" y="-588.95" font-family="Times New Roman,serif" font-size="14.00">SetVariableValue(&quot;plaza.working_chose_sorry_cockatoo&quot;, true) &#45;&#45;[[ Variable[ ]]</text>
</g>
<!-- 4&#45;&gt;15 -->
<g id="edge6" class="edge">
<title>4&#45;&gt;15</title>
<path fill="none" stroke="black" d="M1880.75,-658.26C1748.65,-647.26 1483.64,-625.2 1304.19,-610.27"/>
<polygon fill="black" stroke="black" points="1304.53,-606.78 1294.28,-609.44 1303.95,-613.76 1304.53,-606.78"/>
</g>
<!-- 26 -->
<g id="node27" class="node">
<title>26</title>
<ellipse fill="none" stroke="black" cx="1792.77" cy="-594" rx="311.35" ry="18"/>
<text text-anchor="middle" x="1792.77" y="-588.95" font-family="Times New Roman,serif" font-size="14.00">You: 是的，不过凤头鹦鹉身上肯定也有一些*很棒*的地方。</text>
</g>
<!-- 4&#45;&gt;26 -->
<g id="edge8" class="edge">
<title>4&#45;&gt;26</title>
<path fill="none" stroke="black" d="M1923.84,-649.29C1900.59,-639.66 1870.51,-627.2 1845.02,-616.64"/>
<polygon fill="black" stroke="black" points="1846.39,-613.42 1835.82,-612.83 1843.72,-619.89 1846.39,-613.42"/>
</g>
<!-- 27 -->
<g id="node28" class="node">
<title>27</title>
<ellipse fill="none" stroke="black" cx="2409.77" cy="-594" rx="231.51" ry="18"/>
<text text-anchor="middle" x="2409.77" y="-588.95" font-family="Times New Roman,serif" font-size="14.00">You: 普通的灰色砰砰凤头鹦鹉，那就是我。</text>
</g>
<!-- 4&#45;&gt;27 -->
<g id="edge9" class="edge">
<title>4&#45;&gt;27</title>
<path fill="none" stroke="black" d="M2030.3,-654.29C2101.61,-643.15 2214.41,-625.53 2298.51,-612.38"/>
<polygon fill="black" stroke="black" points="2298.83,-615.88 2308.17,-610.87 2297.75,-608.96 2298.83,-615.88"/>
</g>
<!-- 50 -->
<g id="node51" class="node">
<title>50</title>
<ellipse fill="none" stroke="black" cx="372.77" cy="-594" rx="372.77" ry="18"/>
<text text-anchor="middle" x="372.77" y="-588.95" font-family="Times New Roman,serif" font-size="14.00">You: 只有漆黑的葬礼凤头鹦鹉才能真正触及到我充满厄运的灵魂深处。</text>
</g>
<!-- 4&#45;&gt;50 -->
<g id="edge7" class="edge">
<title>4&#45;&gt;50</title>
<path fill="none" stroke="black" d="M1875.77,-661.21C1647.95,-651.18 1021.1,-623.56 652.86,-607.34"/>
<polygon fill="black" stroke="black" points="653.15,-603.85 643.01,-606.9 652.85,-610.84 653.15,-603.85"/>
</g>
<!-- 46 -->
<g id="node47" class="node">
<title>46</title>
<ellipse fill="none" stroke="black" cx="5749.77" cy="-522" rx="83.08" ry="18"/>
<text text-anchor="middle" x="5749.77" y="-516.95" font-family="Times New Roman,serif" font-size="14.00">readininventoryhub</text>
</g>
<!-- 5&#45;&gt;46 -->
<g id="edge10" class="edge">
<title>5&#45;&gt;46</title>
<path fill="none" stroke="black" d="M2950.56,-590.08C3435.66,-578.46 5224.81,-535.58 5655.88,-525.25"/>
<polygon fill="black" stroke="black" points="5655.9,-528.75 5665.81,-525.01 5655.73,-521.75 5655.9,-528.75"/>
</g>
<!-- 6 -->
<g id="node7" class="node">
<title>6</title>
<ellipse fill="none" stroke="black" cx="7619.77" cy="-306" rx="377.88" ry="18"/>
<text text-anchor="middle" x="7619.77" y="-300.95" font-family="Times New Roman,serif" font-size="14.00">You: 不过如果我只是一只*操蛋凤头鹦鹉*呢——操蛋的人加凤头鹦鹉？！</text>
</g>
<!-- 14 -->
<g id="node15" class="node">
<title>14</title>
<ellipse fill="none" stroke="black" cx="7510.77" cy="-234" rx="424.97" ry="18"/>
<text text-anchor="middle" x="7510.77" y="-228.95" font-family="Times New Roman,serif" font-size="14.00">Half Light: 世界上所有可怕的东西都跟*砰的一声*有关……任何时候都可能会发生。</text>
</g>
<!-- 6&#45;&gt;14 -->
<g id="edge11" class="edge">
<title>6&#45;&gt;14</title>
<path fill="none" stroke="black" d="M7592.82,-287.7C7579.07,-278.86 7562.13,-267.99 7547.23,-258.41"/>
<polygon fill="black" stroke="black" points="7549.36,-255.62 7539.05,-253.16 7545.58,-261.51 7549.36,-255.62"/>
</g>
<!-- 7 -->
<g id="node8" class="node">
<title>7</title>
<ellipse fill="none" stroke="black" cx="6093.77" cy="-90" rx="370.21" ry="18"/>
<text text-anchor="middle" x="6093.77" y="-84.95" font-family="Times New Roman,serif" font-size="14.00">You: 谁会想要一个爱说话的同伴啊？！我想要个懂得如何*倾听*的人。</text>
</g>
<!-- 23 -->
<g id="node24" class="node">
<title>23</title>
<ellipse fill="none" stroke="black" cx="6093.77" cy="-18" rx="124.54" ry="18"/>
<text text-anchor="middle" x="6093.77" y="-12.95" font-family="Times New Roman,serif" font-size="14.00">Jump to: [readininventoryhub]</text>
</g>
<!-- 7&#45;&gt;23 -->
<g id="edge12" class="edge">
<title>7&#45;&gt;23</title>
<path fill="none" stroke="black" d="M6093.77,-71.7C6093.77,-64.41 6093.77,-55.73 6093.77,-47.54"/>
<polygon fill="black" stroke="black" points="6097.27,-47.62 6093.77,-37.62 6090.27,-47.62 6097.27,-47.62"/>
</g>
<!-- 8 -->
<g id="node9" class="node">
<title>8</title>
<ellipse fill="none" stroke="black" cx="2016.77" cy="-522" rx="116.86" ry="18"/>
<text text-anchor="middle" x="2016.77" y="-516.95" font-family="Times New Roman,serif" font-size="14.00">Inland Empire: 酷毙了。</text>
</g>
<!-- 8&#45;&gt;4 -->
<g id="edge13" class="edge">
<title>8&#45;&gt;4</title>
<path fill="none" stroke="black" d="M2066.96,-538.6C2084.63,-546.78 2102.61,-558.78 2112.77,-576 2120.9,-589.78 2122.02,-598.95 2112.77,-612 2097.79,-633.13 2073.7,-645.9 2049.13,-653.59"/>
<polygon fill="black" stroke="black" points="2048.33,-650.18 2039.67,-656.27 2050.24,-656.91 2048.33,-650.18"/>
</g>
<!-- 9 -->
<g id="node10" class="node">
<title>9</title>
<ellipse fill="none" stroke="black" cx="6296.77" cy="-306" rx="927.57" ry="18"/>
<text text-anchor="middle" x="6296.77" y="-300.95" font-family="Times New Roman,serif" font-size="14.00">From A to Zrieek! A Guide To a Well&#45;Behaved Cockatoo: 你说得对，凤头鹦鹉的确是一种非常华丽的生物。它们喜欢表演，拥抱和炫耀，甚至会因为*好玩*而大声尖叫——通常会达到*135*分贝！</text>
</g>
<!-- 18 -->
<g id="node19" class="node">
<title>18</title>
<ellipse fill="none" stroke="black" cx="6144.77" cy="-234" rx="137.34" ry="18"/>
<text text-anchor="middle" x="6144.77" y="-228.95" font-family="Times New Roman,serif" font-size="14.00">You: 了解葬礼凤头鹦鹉。</text>
</g>
<!-- 9&#45;&gt;18 -->
<g id="edge14" class="edge">
<title>9&#45;&gt;18</title>
<path fill="none" stroke="black" d="M6258.8,-287.52C6238.4,-278.12 6213.07,-266.46 6191.47,-256.51"/>
<polygon fill="black" stroke="black" points="6193.12,-253.42 6182.58,-252.41 6190.19,-259.77 6193.12,-253.42"/>
</g>
<!-- 10 -->
<g id="node11" class="node">
<title>10</title>
<ellipse fill="none" stroke="black" cx="2986.77" cy="-90" rx="380.44" ry="18"/>
<text text-anchor="middle" x="2986.77" y="-84.95" font-family="Times New Roman,serif" font-size="14.00">You: 我能承受的住……每当感到孤独的时候，有人能说说话肯定挺好的。</text>
</g>
<!-- 10&#45;&gt;23 -->
<g id="edge15" class="edge">
<title>10&#45;&gt;23</title>
<path fill="none" stroke="black" d="M3323.7,-81.41C4001.6,-66.14 5504.44,-32.28 5960.18,-22.01"/>
<polygon fill="black" stroke="black" points="5959.97,-25.52 5969.89,-21.79 5959.82,-18.52 5959.97,-25.52"/>
</g>
<!-- 11 -->
<g id="node12" class="node">
<title>11</title>
<ellipse fill="none" stroke="black" cx="4882.77" cy="-450" rx="329.26" ry="18"/>
<text text-anchor="middle" x="4882.77" y="-444.95" font-family="Times New Roman,serif" font-size="14.00">SetVariableValue(&quot;plaza.working_chose_apocalypse_cockatoo&quot;, true) &#45;&#45;[[ Variable[ ]]</text>
</g>
<!-- 42 -->
<g id="node43" class="node">
<title>42</title>
<ellipse fill="none" stroke="black" cx="4509.77" cy="-378" rx="696.74" ry="18"/>
<text text-anchor="middle" x="4509.77" y="-372.95" font-family="Times New Roman,serif" font-size="14.00">From A to Zrieek! A Guide To a Well&#45;Behaved Cockatoo: 你说得对，你就是*非洲灰鹦鹉属黑凤头鹦鹉*的具现。这只不祥的鸟儿就是属于你的纹章！</text>
</g>
<!-- 11&#45;&gt;42 -->
<g id="edge16" class="edge">
<title>11&#45;&gt;42</title>
<path fill="none" stroke="black" d="M4793.42,-432.23C4739.17,-422.05 4669.7,-409.01 4613.09,-398.39"/>
<polygon fill="black" stroke="black" points="4613.91,-394.98 4603.44,-396.58 4612.62,-401.86 4613.91,-394.98"/>
</g>
<!-- 12 -->
<g id="node13" class="node">
<title>12</title>
<ellipse fill="none" stroke="black" cx="7433.77" cy="-1026" rx="184.42" ry="18"/>
<text text-anchor="middle" x="7433.77" y="-1020.95" font-family="Times New Roman,serif" font-size="14.00">You: 了解最普通的砰砰凤头鹦鹉。</text>
</g>
<!-- 30 -->
<g id="node31" class="node">
<title>30</title>
<ellipse fill="none" stroke="black" cx="7433.77" cy="-954" rx="1106.19" ry="18"/>
<text text-anchor="middle" x="7433.77" y="-948.95" font-family="Times New Roman,serif" font-size="14.00">From A to Zrieek! A Guide To a Well&#45;Behaved Cockatoo: 濒临灭绝的威严凤头鹦鹉也许是其中最让人*印象深刻*的一种，它们通常被称作是丛林里最艳丽的鸟类，那对粉色的翅膀，还有流动的羽冠修饰着它骄傲又*自大*的本性。</text>
</g>
<!-- 12&#45;&gt;30 -->
<g id="edge17" class="edge">
<title>12&#45;&gt;30</title>
<path fill="none" stroke="black" d="M7427.85,-1007.7C7427.1,-1000.41 7426.86,-991.73 7427.12,-983.54"/>
<polygon fill="black" stroke="black" points="7430.61,-983.82 7427.77,-973.61 7423.62,-983.36 7430.61,-983.82"/>
</g>
<!-- 13 -->
<g id="node14" class="node">
<title>13</title>
<ellipse fill="none" stroke="black" cx="4505.77" cy="-666" rx="898.91" ry="18"/>
<text text-anchor="middle" x="4505.77" y="-660.95" font-family="Times New Roman,serif" font-size="14.00">From A to Zrieek! A Guide To a Well&#45;Behaved Cockatoo: 用诗人探险家詹姆斯·福尼尔爵士的话说：“很少有鸟儿能像这个硕大、大胆又美丽的物种一样，为单调青翠的森林带来勃勃生机。”</text>
</g>
<!-- 32 -->
<g id="node33" class="node">
<title>32</title>
<ellipse fill="none" stroke="black" cx="5027.77" cy="-594" rx="124.54" ry="18"/>
<text text-anchor="middle" x="5027.77" y="-588.95" font-family="Times New Roman,serif" font-size="14.00">Jump to: [readininventoryhub]</text>
</g>
<!-- 13&#45;&gt;32 -->
<g id="edge18" class="edge">
<title>13&#45;&gt;32</title>
<path fill="none" stroke="black" d="M4634.8,-647.7C4725.15,-635.58 4844.12,-619.63 4927.4,-608.46"/>
<polygon fill="black" stroke="black" points="4927.7,-611.95 4937.15,-607.15 4926.77,-605.01 4927.7,-611.95"/>
</g>
<!-- 36 -->
<g id="node37" class="node">
<title>36</title>
<ellipse fill="none" stroke="black" cx="7502.77" cy="-162" rx="124.54" ry="18"/>
<text text-anchor="middle" x="7502.77" y="-156.95" font-family="Times New Roman,serif" font-size="14.00">Jump to: [readininventoryhub]</text>
</g>
<!-- 14&#45;&gt;36 -->
<g id="edge19" class="edge">
<title>14&#45;&gt;36</title>
<path fill="none" stroke="black" d="M7508.79,-215.7C7507.96,-208.41 7506.96,-199.73 7506.03,-191.54"/>
<polygon fill="black" stroke="black" points="7509.51,-191.15 7504.89,-181.61 7502.55,-191.94 7509.51,-191.15"/>
</g>
<!-- 51 -->
<g id="node52" class="node">
<title>51</title>
<ellipse fill="none" stroke="black" cx="1111.77" cy="-522" rx="769.93" ry="18"/>
<text text-anchor="middle" x="1111.77" y="-516.95" font-family="Times New Roman,serif" font-size="14.00">From A to Zrieek! A Guide To a Well&#45;Behaved Cockatoo: 你说得对，你就是操蛋凤头鹦鹉的具现。这只可怜的小鸟属于你的纹章！它甚至都没有羽毛，只会尖叫。</text>
</g>
<!-- 15&#45;&gt;51 -->
<g id="edge20" class="edge">
<title>15&#45;&gt;51</title>
<path fill="none" stroke="black" d="M1118.54,-575.7C1117.59,-568.32 1116.46,-559.52 1115.4,-551.25"/>
<polygon fill="black" stroke="black" points="1118.91,-551.08 1114.16,-541.61 1111.96,-551.97 1118.91,-551.08"/>
</g>
<!-- 16 -->
<g id="node17" class="node">
<title>16</title>
<ellipse fill="none" stroke="black" cx="5757.77" cy="-450" rx="160.88" ry="18"/>
<text text-anchor="middle" x="5757.77" y="-444.95" font-family="Times New Roman,serif" font-size="14.00">You: 我必须花时间考虑一下。</text>
</g>
<!-- 41 -->
<g id="node42" class="node">
<title>41</title>
<ellipse fill="none" stroke="black" cx="5761.77" cy="-378" rx="499.18" ry="18"/>
<text text-anchor="middle" x="5761.77" y="-372.95" font-family="Times New Roman,serif" font-size="14.00">From A to Zrieek! A Guide To a Well&#45;Behaved Cockatoo: 能理解。选择纹章鸟类可不是个微不足道的小问题。</text>
</g>
<!-- 16&#45;&gt;41 -->
<g id="edge21" class="edge">
<title>16&#45;&gt;41</title>
<path fill="none" stroke="black" d="M5758.76,-431.7C5759.17,-424.41 5759.67,-415.73 5760.14,-407.54"/>
<polygon fill="black" stroke="black" points="5763.63,-407.8 5760.7,-397.62 5756.64,-407.4 5763.63,-407.8"/>
</g>
<!-- 17 -->
<g id="node18" class="node">
<title>17</title>
<ellipse fill="none" stroke="black" cx="10043.77" cy="-450" rx="119.93" ry="18"/>
<text text-anchor="middle" x="10043.77" y="-444.95" font-family="Times New Roman,serif" font-size="14.00">You: [把书放在一边。]</text>
</g>
<!-- 44 -->
<g id="node45" class="node">
<title>44</title>
<ellipse fill="none" stroke="black" cx="6093.77" cy="-162" rx="1266.38" ry="18"/>
<text text-anchor="middle" x="6093.77" y="-156.95" font-family="Times New Roman,serif" font-size="14.00">From A to Zrieek! A Guide To a Well&#45;Behaved Cockatoo: 这是一种长着黄色尾巴的黑凤头鹦鹉，它的专用名*非洲灰鹦鹉属黑凤头鹦鹉*跟它那身漆黑又阴郁的羽毛有关。这种鸟看起来像是要去参加葬礼一样，24小时/7天。毫无疑问，它身上有种不吉利的感觉。</text>
</g>
<!-- 18&#45;&gt;44 -->
<g id="edge22" class="edge">
<title>18&#45;&gt;44</title>
<path fill="none" stroke="black" d="M6132.16,-215.7C6126.35,-207.73 6119.34,-198.1 6112.9,-189.26"/>
<polygon fill="black" stroke="black" points="6115.84,-187.35 6107.12,-181.33 6110.18,-191.47 6115.84,-187.35"/>
</g>
<!-- 39 -->
<g id="node40" class="node">
<title>39</title>
<ellipse fill="none" stroke="black" cx="8676.77" cy="-306" rx="155.25" ry="18"/>
<text text-anchor="middle" x="8676.77" y="-300.95" font-family="Times New Roman,serif" font-size="14.00">Logic: 对邻居来说不太好吧。</text>
</g>
<!-- 19&#45;&gt;39 -->
<g id="edge23" class="edge">
<title>19&#45;&gt;39</title>
<path fill="none" stroke="black" d="M8666.98,-359.7C8668.35,-352.32 8669.98,-343.52 8671.52,-335.25"/>
<polygon fill="black" stroke="black" points="8674.93,-336.06 8673.31,-325.59 8668.05,-334.79 8674.93,-336.06"/>
</g>
<!-- 20 -->
<g id="node21" class="node">
<title>20</title>
<ellipse fill="none" stroke="black" cx="8756.77" cy="-162" rx="1111.31" ry="18"/>
<text text-anchor="middle" x="8756.77" y="-156.95" font-family="Times New Roman,serif" font-size="14.00">From A to Zrieek! A Guide To a Well&#45;Behaved Cockatoo: 这本书讲述了凤头鹦鹉的微妙本质，同时为鸟类爱好者介绍了一些最受欢迎的物种：葬礼凤头鹦鹉，威严凤头鹦鹉，还有最普通的砰砰凤头鹦鹉。里面配有很鲜艳的插图。</text>
</g>
<!-- 20&#45;&gt;46 -->
<g id="edge24" class="edge">
<title>20&#45;&gt;46</title>
<path fill="none" stroke="black" d="M8835.93,-180.4C8857.24,-188.3 8878.79,-199.68 8894.77,-216 8924.17,-246.04 8926.77,-262.97 8926.77,-305 8926.77,-379 8926.77,-379 8926.77,-379 8926.77,-469.44 8832.11,-448.64 8743.77,-468 8599.03,-499.71 6336.89,-516.98 5844.08,-520.38"/>
<polygon fill="black" stroke="black" points="5844.26,-516.87 5834.28,-520.44 5844.3,-523.87 5844.26,-516.87"/>
</g>
<!-- 21 -->
<g id="node22" class="node">
<title>21</title>
<ellipse fill="none" stroke="black" cx="5749.77" cy="-594" rx="124.54" ry="18"/>
<text text-anchor="middle" x="5749.77" y="-588.95" font-family="Times New Roman,serif" font-size="14.00">Jump to: [readininventoryhub]</text>
</g>
<!-- 21&#45;&gt;46 -->
<g id="edge25" class="edge">
<title>21&#45;&gt;46</title>
<path fill="none" stroke="black" d="M5749.77,-575.7C5749.77,-568.41 5749.77,-559.73 5749.77,-551.54"/>
<polygon fill="black" stroke="black" points="5753.27,-551.62 5749.77,-541.62 5746.27,-551.62 5753.27,-551.62"/>
</g>
<!-- 22 -->
<g id="node23" class="node">
<title>22</title>
<ellipse fill="none" stroke="black" cx="5226.77" cy="-306" rx="124.54" ry="18"/>
<text text-anchor="middle" x="5226.77" y="-300.95" font-family="Times New Roman,serif" font-size="14.00">Jump to: [readininventoryhub]</text>
</g>
<!-- 22&#45;&gt;46 -->
<g id="edge26" class="edge">
<title>22&#45;&gt;46</title>
<path fill="none" stroke="black" d="M5227.16,-324.33C5228.58,-344.41 5234.02,-377.17 5253.77,-396 5312.98,-452.45 5543.88,-492.39 5668.67,-510.35"/>
<polygon fill="black" stroke="black" points="5668.15,-513.81 5678.54,-511.75 5669.13,-506.88 5668.15,-513.81"/>
</g>
<!-- 23&#45;&gt;46 -->
<g id="edge27" class="edge">
<title>23&#45;&gt;46</title>
<path fill="none" stroke="black" d="M6217.28,-20.71C6849.79,-29.78 9703.3,-74.42 9876.77,-144 9887.28,-148.22 9895.77,-149.67 9895.77,-161 9895.77,-379 9895.77,-379 9895.77,-379 9895.77,-614.72 9074.19,-456.08 8838.77,-468 8234.31,-498.6 6294.96,-516.44 5844.06,-520.23"/>
<polygon fill="black" stroke="black" points="5844.22,-516.73 5834.25,-520.32 5844.28,-523.73 5844.22,-516.73"/>
</g>
<!-- 52 -->
<g id="node53" class="node">
<title>52</title>
<ellipse fill="none" stroke="black" cx="4272.77" cy="-882" rx="219.74" ry="18"/>
<text text-anchor="middle" x="4272.77" y="-876.95" font-family="Times New Roman,serif" font-size="14.00">You: 没错。真的挺糟糕的。还有别的吗？</text>
</g>
<!-- 24&#45;&gt;52 -->
<g id="edge28" class="edge">
<title>24&#45;&gt;52</title>
<path fill="none" stroke="black" d="M4222.33,-935.7C4230.2,-927.47 4239.76,-917.48 4248.44,-908.42"/>
<polygon fill="black" stroke="black" points="4250.96,-910.84 4255.35,-901.2 4245.91,-906 4250.96,-910.84"/>
</g>
<!-- 25 -->
<g id="node26" class="node">
<title>25</title>
<ellipse fill="none" stroke="black" cx="2987.77" cy="-450" rx="1217.25" ry="18"/>
<text text-anchor="middle" x="2987.77" y="-444.95" font-family="Times New Roman,serif" font-size="14.00">From A to Zrieek! A Guide To a Well&#45;Behaved Cockatoo: 凤头鹦鹉是一种长着直立羽冠的鹦鹉，是在塞美尼群岛和法斯拉美南部被发现的。以才智和普遍早熟而闻名的凤头鹦鹉在鸟类饲养界很受欢迎；然而，它们经常会表现出各种各样的行为问题。</text>
</g>
<!-- 25&#45;&gt;1 -->
<g id="edge29" class="edge">
<title>25&#45;&gt;1</title>
<path fill="none" stroke="black" d="M2991.21,-468.41C2996.17,-495.1 3004.77,-547.81 3004.77,-593 3004.77,-883 3004.77,-883 3004.77,-883 3004.77,-960.9 3081.58,-948.23 3155.77,-972 3329.97,-1027.82 3388.5,-962.86 3565.77,-1008 3567.77,-1008.51 3569.81,-1009.11 3571.84,-1009.78"/>
<polygon fill="black" stroke="black" points="3570.51,-1013.02 3581.1,-1013.3 3573,-1006.48 3570.51,-1013.02"/>
</g>
<!-- 26&#45;&gt;8 -->
<g id="edge30" class="edge">
<title>26&#45;&gt;8</title>
<path fill="none" stroke="black" d="M1847.56,-575.88C1880.4,-565.61 1922.22,-552.55 1956.06,-541.97"/>
<polygon fill="black" stroke="black" points="1956.8,-545.41 1965.3,-539.08 1954.71,-538.73 1956.8,-545.41"/>
</g>
<!-- 28 -->
<g id="node29" class="node">
<title>28</title>
<ellipse fill="none" stroke="black" cx="2418.77" cy="-522" rx="266.82" ry="18"/>
<text text-anchor="middle" x="2418.77" y="-516.95" font-family="Times New Roman,serif" font-size="14.00">You: 难道还不够明显吗？威严凤头鹦鹉，我来啦。</text>
</g>
<!-- 27&#45;&gt;28 -->
<g id="edge31" class="edge">
<title>27&#45;&gt;28</title>
<path fill="none" stroke="black" d="M2411.99,-575.7C2412.94,-568.32 2414.07,-559.52 2415.13,-551.25"/>
<polygon fill="black" stroke="black" points="2418.57,-551.97 2416.37,-541.61 2411.63,-551.08 2418.57,-551.97"/>
</g>
<!-- 49 -->
<g id="node50" class="node">
<title>49</title>
<ellipse fill="none" stroke="black" cx="1430.77" cy="-450" rx="321.59" ry="18"/>
<text text-anchor="middle" x="1430.77" y="-444.95" font-family="Times New Roman,serif" font-size="14.00">SetVariableValue(&quot;plaza.working_chose_superstar_cockatoo&quot;, true) &#45;&#45;[[ Variable[ ]]</text>
</g>
<!-- 28&#45;&gt;49 -->
<g id="edge32" class="edge">
<title>28&#45;&gt;49</title>
<path fill="none" stroke="black" d="M2239.56,-508.3C2069.53,-496.26 1814.22,-478.17 1636.07,-465.55"/>
<polygon fill="black" stroke="black" points="1636.45,-462.06 1626.23,-464.85 1635.96,-469.05 1636.45,-462.06"/>
</g>
<!-- 29 -->
<g id="node30" class="node">
<title>29</title>
<ellipse fill="none" stroke="black" cx="3303.77" cy="-378" rx="314.42" ry="18"/>
<text text-anchor="middle" x="3303.77" y="-372.95" font-family="Times New Roman,serif" font-size="14.00">SetVariableValue(&quot;plaza.working_chose_serious_cockatoo&quot;, true) &#45;&#45;[[ Variable[ ]]</text>
</g>
<!-- 43 -->
<g id="node44" class="node">
<title>43</title>
<ellipse fill="none" stroke="black" cx="3163.77" cy="-306" rx="593.36" ry="18"/>
<text text-anchor="middle" x="3163.77" y="-300.95" font-family="Times New Roman,serif" font-size="14.00">From A to Zrieek! A Guide To a Well&#45;Behaved Cockatoo: 你说得对，你就是平庸的具现。这只被埋没的鸟儿就是属于你的纹章！</text>
</g>
<!-- 29&#45;&gt;43 -->
<g id="edge33" class="edge">
<title>29&#45;&gt;43</title>
<path fill="none" stroke="black" d="M3269.16,-359.7C3250.9,-350.57 3228.29,-339.26 3208.69,-329.46"/>
<polygon fill="black" stroke="black" points="3210.32,-326.37 3199.81,-325.02 3207.19,-332.63 3210.32,-326.37"/>
</g>
<!-- 30&#45;&gt;12 -->
<g id="edge34" class="edge">
<title>30&#45;&gt;12</title>
<path fill="none" stroke="black" d="M7439.66,-972.1C7440.42,-979.37 7440.68,-988.04 7440.42,-996.24"/>
<polygon fill="black" stroke="black" points="7436.93,-995.98 7439.78,-1006.19 7443.92,-996.43 7436.93,-995.98"/>
</g>
<!-- 31 -->
<g id="node32" class="node">
<title>31</title>
<ellipse fill="none" stroke="black" cx="4472.77" cy="-738" rx="1306.3" ry="18"/>
<text text-anchor="middle" x="4472.77" y="-732.95" font-family="Times New Roman,serif" font-size="14.00">From A to Zrieek! A Guide To a Well&#45;Behaved Cockatoo: 尽管名字很*吵闹*，其实砰砰凤头鹦鹉是其中最害羞的一种。它们在塞美尼的所有丛林都很常见，同样还有全世界的动物园和私人家里，它的羽毛主要是灰色和白色的。塞美尼名字*砰砰*被认为是拟声的起源。</text>
</g>
<!-- 31&#45;&gt;13 -->
<g id="edge35" class="edge">
<title>31&#45;&gt;13</title>
<path fill="none" stroke="black" d="M4480.92,-719.7C4484.52,-712.07 4488.84,-702.92 4492.85,-694.4"/>
<polygon fill="black" stroke="black" points="4495.96,-696.01 4497.06,-685.47 4489.63,-693.03 4495.96,-696.01"/>
</g>
<!-- 32&#45;&gt;46 -->
<g id="edge36" class="edge">
<title>32&#45;&gt;46</title>
<path fill="none" stroke="black" d="M5128.92,-583.19C5271.65,-569.35 5529.68,-544.34 5663.71,-531.34"/>
<polygon fill="black" stroke="black" points="5663.99,-534.83 5673.6,-530.38 5663.31,-527.87 5663.99,-534.83"/>
</g>
<!-- 33 -->
<g id="node34" class="node">
<title>33</title>
<ellipse fill="none" stroke="black" cx="5749.77" cy="-666" rx="260.17" ry="18"/>
<text text-anchor="middle" x="5749.77" y="-660.95" font-family="Times New Roman,serif" font-size="14.00">Perception (Sight): 看上去肯定很壮观。深粉加雪白。</text>
</g>
<!-- 33&#45;&gt;21 -->
<g id="edge37" class="edge">
<title>33&#45;&gt;21</title>
<path fill="none" stroke="black" d="M5749.77,-647.7C5749.77,-640.41 5749.77,-631.73 5749.77,-623.54"/>
<polygon fill="black" stroke="black" points="5753.27,-623.62 5749.77,-613.62 5746.27,-623.62 5753.27,-623.62"/>
</g>
<!-- 34&#45;&gt;3 -->
<g id="edge38" class="edge">
<title>34&#45;&gt;3</title>
<path fill="none" stroke="black" d="M5792.66,-972.1C5793.42,-979.37 5793.68,-988.04 5793.42,-996.24"/>
<polygon fill="black" stroke="black" points="5789.93,-995.98 5792.78,-1006.19 5796.92,-996.43 5789.93,-995.98"/>
</g>
<!-- 35 -->
<g id="node36" class="node">
<title>35</title>
<ellipse fill="none" stroke="black" cx="1895.77" cy="-306" rx="581.58" ry="18"/>
<text text-anchor="middle" x="1895.77" y="-300.95" font-family="Times New Roman,serif" font-size="14.00">From A to Zrieek! A Guide To a Well&#45;Behaved Cockatoo: 你说得对，你就是威严的具现。这只美丽的大鸟就是属于你的纹章！</text>
</g>
<!-- 45 -->
<g id="node46" class="node">
<title>45</title>
<ellipse fill="none" stroke="black" cx="3163.77" cy="-234" rx="124.54" ry="18"/>
<text text-anchor="middle" x="3163.77" y="-228.95" font-family="Times New Roman,serif" font-size="14.00">Jump to: [readininventoryhub]</text>
</g>
<!-- 35&#45;&gt;45 -->
<g id="edge39" class="edge">
<title>35&#45;&gt;45</title>
<path fill="none" stroke="black" d="M2172.47,-289.72C2441.24,-274.89 2837.22,-253.03 3037.64,-241.96"/>
<polygon fill="black" stroke="black" points="3037.79,-245.46 3047.58,-241.41 3037.4,-238.47 3037.79,-245.46"/>
</g>
<!-- 36&#45;&gt;46 -->
<g id="edge40" class="edge">
<title>36&#45;&gt;46</title>
<path fill="none" stroke="black" d="M7593.57,-174.64C7608.02,-176.46 7622.8,-178.3 7636.77,-180 7807.54,-200.81 8400.77,-132.96 8400.77,-305 8400.77,-379 8400.77,-379 8400.77,-379 8400.77,-509.76 6316.93,-520.28 5844.31,-520.98"/>
<polygon fill="black" stroke="black" points="5844.62,-517.48 5834.63,-520.99 5844.63,-524.48 5844.62,-517.48"/>
</g>
<!-- 37 -->
<g id="node38" class="node">
<title>37</title>
<ellipse fill="none" stroke="black" cx="8702.77" cy="-234" rx="182.89" ry="18"/>
<text text-anchor="middle" x="8702.77" y="-228.95" font-family="Times New Roman,serif" font-size="14.00">Drama: 表演？哦耶，小鸟不错啊！</text>
</g>
<!-- 37&#45;&gt;20 -->
<g id="edge41" class="edge">
<title>37&#45;&gt;20</title>
<path fill="none" stroke="black" d="M8716.12,-215.7C8722.33,-207.64 8729.85,-197.89 8736.72,-188.98"/>
<polygon fill="black" stroke="black" points="8739.31,-191.36 8742.65,-181.3 8733.77,-187.08 8739.31,-191.36"/>
</g>
<!-- 38 -->
<g id="node39" class="node">
<title>38</title>
<ellipse fill="none" stroke="black" cx="4360.77" cy="-450" rx="137.34" ry="18"/>
<text text-anchor="middle" x="4360.77" y="-444.95" font-family="Times New Roman,serif" font-size="14.00">You: 了解威严凤头鹦鹉。</text>
</g>
<!-- 38&#45;&gt;29 -->
<g id="edge42" class="edge">
<title>38&#45;&gt;29</title>
<path fill="none" stroke="black" d="M4263.59,-436.97C4246.98,-435.14 4229.89,-433.4 4213.77,-432 3993.9,-412.9 3743.54,-398.88 3561.15,-390.08"/>
<polygon fill="black" stroke="black" points="3561.45,-386.59 3551.29,-389.6 3561.11,-393.58 3561.45,-386.59"/>
</g>
<!-- 39&#45;&gt;37 -->
<g id="edge43" class="edge">
<title>39&#45;&gt;37</title>
<path fill="none" stroke="black" d="M8683.19,-287.7C8686,-280.15 8689.35,-271.12 8692.49,-262.68"/>
<polygon fill="black" stroke="black" points="8695.69,-264.12 8695.89,-253.52 8689.12,-261.68 8695.69,-264.12"/>
</g>
<!-- 40 -->
<g id="node41" class="node">
<title>40</title>
<ellipse fill="none" stroke="black" cx="4405.77" cy="-810" rx="934.73" ry="18"/>
<text text-anchor="middle" x="4405.77" y="-804.95" font-family="Times New Roman,serif" font-size="14.00">From A to Zrieek! A Guide To a Well&#45;Behaved Cockatoo: 如果你不能每天为它们烹饪食物，给它们一切所需的全心照顾，那就不推荐你饲养凤头鹦鹉。这种鸟永远也不会理解你也有自己的生活。</text>
</g>
<!-- 40&#45;&gt;31 -->
<g id="edge44" class="edge">
<title>40&#45;&gt;31</title>
<path fill="none" stroke="black" d="M4422.33,-791.7C4430.2,-783.47 4439.76,-773.48 4448.44,-764.42"/>
<polygon fill="black" stroke="black" points="4450.96,-766.84 4455.35,-757.2 4445.91,-762 4450.96,-766.84"/>
</g>
<!-- 41&#45;&gt;22 -->
<g id="edge45" class="edge">
<title>41&#45;&gt;22</title>
<path fill="none" stroke="black" d="M5632.94,-360.14C5539.43,-347.91 5414.68,-331.59 5328.22,-320.27"/>
<polygon fill="black" stroke="black" points="5328.68,-316.8 5318.31,-318.98 5327.77,-323.75 5328.68,-316.8"/>
</g>
<!-- 42&#45;&gt;45 -->
<g id="edge46" class="edge">
<title>42&#45;&gt;45</title>
<path fill="none" stroke="black" d="M4385.04,-359.81C4243.21,-340.62 4004.62,-309.47 3798.77,-288 3620.27,-269.39 3412.99,-253.08 3285.1,-243.63"/>
<polygon fill="black" stroke="black" points="3285.48,-240.15 3275.25,-242.91 3284.96,-247.13 3285.48,-240.15"/>
</g>
<!-- 43&#45;&gt;45 -->
<g id="edge47" class="edge">
<title>43&#45;&gt;45</title>
<path fill="none" stroke="black" d="M3163.77,-287.7C3163.77,-280.41 3163.77,-271.73 3163.77,-263.54"/>
<polygon fill="black" stroke="black" points="3167.27,-263.62 3163.77,-253.62 3160.27,-263.62 3167.27,-263.62"/>
</g>
<!-- 44&#45;&gt;7 -->
<g id="edge48" class="edge">
<title>44&#45;&gt;7</title>
<path fill="none" stroke="black" d="M6093.77,-143.7C6093.77,-136.41 6093.77,-127.73 6093.77,-119.54"/>
<polygon fill="black" stroke="black" points="6097.27,-119.62 6093.77,-109.62 6090.27,-119.62 6097.27,-119.62"/>
</g>
<!-- 45&#45;&gt;46 -->
<g id="edge49" class="edge">
<title>45&#45;&gt;46</title>
<path fill="none" stroke="black" d="M3284.67,-238.7C3449.53,-244.79 3728.71,-259.23 3765.77,-288 3805.96,-319.2 3763.01,-365.54 3803.77,-396 3866.42,-442.82 4434.87,-401.2 4506.77,-432 4528.15,-441.16 4523.35,-458.92 4544.77,-468 4645.79,-510.85 5389.26,-519.06 5655.37,-520.63"/>
<polygon fill="black" stroke="black" points="5655,-524.13 5665.02,-520.69 5655.04,-517.13 5655,-524.13"/>
</g>
<!-- 46&#45;&gt;2 -->
<g id="edge50" class="edge">
<title>46&#45;&gt;2</title>
<path fill="none" stroke="black" d="M5833.3,-521.39C6162.08,-522.5 7398.73,-522.56 8414.77,-468 8441.35,-466.57 8469.94,-464.41 8496.78,-462.11"/>
<polygon fill="black" stroke="black" points="8497,-465.6 8506.66,-461.25 8496.39,-458.63 8497,-465.6"/>
</g>
<!-- 46&#45;&gt;11 -->
<g id="edge52" class="edge">
<title>46&#45;&gt;11</title>
<path fill="none" stroke="black" d="M5672.83,-514.79C5539.51,-504.02 5261.85,-481.61 5073.85,-466.43"/>
<polygon fill="black" stroke="black" points="5074.2,-462.94 5063.95,-465.63 5073.64,-469.92 5074.2,-462.94"/>
</g>
<!-- 46&#45;&gt;16 -->
<g id="edge54" class="edge">
<title>46&#45;&gt;16</title>
<path fill="none" stroke="black" d="M5751.74,-503.7C5752.58,-496.41 5753.57,-487.73 5754.51,-479.54"/>
<polygon fill="black" stroke="black" points="5757.98,-479.94 5755.64,-469.61 5751.03,-479.15 5757.98,-479.94"/>
</g>
<!-- 46&#45;&gt;17 -->
<g id="edge55" class="edge">
<title>46&#45;&gt;17</title>
<path fill="none" stroke="black" d="M5833.03,-521.23C6345.33,-522.44 9075.29,-526.06 9909.77,-468 9922.25,-467.13 9935.35,-465.89 9948.27,-464.46"/>
<polygon fill="black" stroke="black" points="9948.52,-467.95 9958.06,-463.34 9947.72,-461 9948.52,-467.95"/>
</g>
<!-- 46&#45;&gt;25 -->
<g id="edge56" class="edge">
<title>46&#45;&gt;25</title>
<path fill="none" stroke="black" d="M5667.48,-518.91C5363.92,-511.22 4288.64,-483.97 3595.94,-466.41"/>
<polygon fill="black" stroke="black" points="3596.1,-462.92 3586.01,-466.16 3595.92,-469.91 3596.1,-462.92"/>
</g>
<!-- 46&#45;&gt;38 -->
<g id="edge51" class="edge">
<title>46&#45;&gt;38</title>
<path fill="none" stroke="black" d="M5667.07,-519.44C5467.93,-515.25 4946.09,-501.71 4511.77,-468 4498.17,-466.95 4483.91,-465.62 4469.81,-464.19"/>
<polygon fill="black" stroke="black" points="4470.37,-460.72 4460.06,-463.17 4469.64,-467.69 4470.37,-460.72"/>
</g>
<!-- 47 -->
<g id="node48" class="node">
<title>47</title>
<ellipse fill="none" stroke="black" cx="6715.77" cy="-450" rx="172.65" ry="18"/>
<text text-anchor="middle" x="6715.77" y="-444.95" font-family="Times New Roman,serif" font-size="14.00">You: 好吧，这些鸟有什么问题？</text>
</g>
<!-- 46&#45;&gt;47 -->
<g id="edge53" class="edge">
<title>46&#45;&gt;47</title>
<path fill="none" stroke="black" d="M5827.59,-515.36C5987.99,-503.74 6357.72,-476.95 6566.04,-461.85"/>
<polygon fill="black" stroke="black" points="6566.14,-465.35 6575.86,-461.14 6565.64,-458.37 6566.14,-465.35"/>
</g>
<!-- 48 -->
<g id="node49" class="node">
<title>48</title>
<ellipse fill="none" stroke="black" cx="7325.77" cy="-378" rx="1046.82" ry="18"/>
<text text-anchor="middle" x="7325.77" y="-372.95" font-family="Times New Roman,serif" font-size="14.00">From A to Zrieek! A Guide To a Well&#45;Behaved Cockatoo: 该从哪里说起呢？所有凤头鹦鹉都是以性情乖僻而闻名的，每天至少需要整整两个小时的关注。它们喜欢说话，甚至被说成是‘不知道该如何收场的可爱小丑’。</text>
</g>
<!-- 47&#45;&gt;48 -->
<g id="edge57" class="edge">
<title>47&#45;&gt;48</title>
<path fill="none" stroke="black" d="M6828.72,-436.04C6922.84,-425.24 7058.1,-409.72 7163.76,-397.59"/>
<polygon fill="black" stroke="black" points="7164.15,-401.07 7173.69,-396.45 7163.35,-394.11 7164.15,-401.07"/>
</g>
<!-- 48&#45;&gt;6 -->
<g id="edge59" class="edge">
<title>48&#45;&gt;6</title>
<path fill="none" stroke="black" d="M7398.82,-359.61C7440.67,-349.64 7493.33,-337.1 7536.74,-326.77"/>
<polygon fill="black" stroke="black" points="7537.46,-330.19 7546.38,-324.47 7535.84,-323.38 7537.46,-330.19"/>
</g>
<!-- 48&#45;&gt;9 -->
<g id="edge58" class="edge">
<title>48&#45;&gt;9</title>
<path fill="none" stroke="black" d="M7076.35,-360.03C6918.49,-349.29 6714.84,-335.44 6555.27,-324.59"/>
<polygon fill="black" stroke="black" points="6555.58,-321.1 6545.37,-323.91 6555.11,-328.08 6555.58,-321.1"/>
</g>
<!-- 49&#45;&gt;35 -->
<g id="edge60" class="edge">
<title>49&#45;&gt;35</title>
<path fill="none" stroke="black" d="M1486.86,-431.87C1572.62,-405.68 1736.09,-355.76 1828.24,-327.62"/>
<polygon fill="black" stroke="black" points="1829.13,-331.01 1837.67,-324.74 1827.08,-324.32 1829.13,-331.01"/>
</g>
<!-- 50&#45;&gt;10 -->
<g id="edge61" class="edge">
<title>50&#45;&gt;10</title>
<path fill="none" stroke="black" d="M356.57,-575.63C348.28,-565.84 338.71,-553 332.77,-540 315.96,-503.21 313.77,-491.45 313.77,-451 313.77,-451 313.77,-451 313.77,-233 313.77,-120.07 1855.22,-96.77 2597,-92.09"/>
<polygon fill="black" stroke="black" points="2596.91,-95.59 2606.89,-92.03 2596.86,-88.59 2596.91,-95.59"/>
</g>
<!-- 51&#45;&gt;45 -->
<g id="edge62" class="edge">
<title>51&#45;&gt;45</title>
<path fill="none" stroke="black" d="M1103.66,-503.57C1096.22,-484.83 1087.98,-454.69 1099.77,-432 1151.11,-333.2 1199.09,-323.07 1304.77,-288 1466.53,-234.31 2626.21,-233.13 3027.52,-234.37"/>
<polygon fill="black" stroke="black" points="3027.36,-237.87 3037.37,-234.4 3027.38,-230.87 3027.36,-237.87"/>
</g>
<!-- 52&#45;&gt;40 -->
<g id="edge63" class="edge">
<title>52&#45;&gt;40</title>
<path fill="none" stroke="black" d="M4305.3,-863.88C4322.56,-854.79 4344,-843.51 4362.63,-833.71"/>
<polygon fill="black" stroke="black" points="4364.09,-836.89 4371.3,-829.14 4360.82,-830.7 4364.09,-836.89"/>
</g>
</g>
</svg>
